<?xml version="1.0" encoding="UTF-8" standalone="no"?>
<!DOCTYPE svg PUBLIC "-//W3C//DTD SVG 1.1//EN"
 "http://www.w3.org/Graphics/SVG/1.1/DTD/svg11.dtd">
<!-- Generated by graphviz version 2.43.0 (0)
 -->
<!-- Title: main Pages: 1 -->
<svg width="659pt" height="272pt"
 viewBox="0.00 0.00 659.00 271.50" xmlns="http://www.w3.org/2000/svg" xmlns:xlink="http://www.w3.org/1999/xlink">
<g id="graph0" class="graph" transform="scale(1 1) rotate(0) translate(4 267.5)">
<title>main</title>
<!-- Node1 -->
<g id="Node000001" class="node">
<title>Node1</title>
<g id="a_Node000001"><a xlink:title=" ">
<polygon fill="#999999" stroke="#666666" points="38,-130 0,-130 0,-111 38,-111 38,-130"/>
<text text-anchor="middle" x="19" y="-118" font-family="Arial" font-size="10.00">main</text>
</a>
</g>
</g>
<!-- Node2 -->
<g id="Node000002" class="node">
<title>Node2</title>
<g id="a_Node000002"><a xlink:href="classutil_1_1io_1_1InputParser.html#aa96876b43b2ea728d90f2e108959908d" target="_top" xlink:title="Check if argument exists.">
<polygon fill="white" stroke="#666666" points="187.5,-263.5 88.5,-263.5 88.5,-233.5 187.5,-233.5 187.5,-263.5"/>
<text text-anchor="start" x="96.5" y="-251.5" font-family="Arial" font-size="10.00">util::io::InputParser</text>
<text text-anchor="middle" x="138" y="-240.5" font-family="Arial" font-size="10.00">::cmdOptionExists</text>
</a>
</g>
</g>
<!-- Node1&#45;&gt;Node2 -->
<g id="edge1_Node000001_Node000002" class="edge">
<title>Node1&#45;&gt;Node2</title>
<g id="a_edge1_Node000001_Node000002"><a xlink:title=" ">
<path fill="none" stroke="#63b8ff" d="M22.51,-130.28C28.23,-150.62 44.08,-197.83 74,-224.5 75.74,-226.05 77.59,-227.5 79.52,-228.87"/>
<polygon fill="#63b8ff" stroke="#63b8ff" points="78.08,-232.08 88.44,-234.29 81.71,-226.1 78.08,-232.08"/>
</a>
</g>
</g>
<!-- Node3 -->
<g id="Node000003" class="node">
<title>Node3</title>
<g id="a_Node000003"><a xlink:href="classutil_1_1io_1_1InputParser.html#afe43d01219bc49d0e9a9714b1fa17375" target="_top" xlink:title="Get value of argument specified by key.">
<polygon fill="white" stroke="#666666" points="187.5,-215.5 88.5,-215.5 88.5,-185.5 187.5,-185.5 187.5,-215.5"/>
<text text-anchor="start" x="96.5" y="-203.5" font-family="Arial" font-size="10.00">util::io::InputParser</text>
<text text-anchor="middle" x="138" y="-192.5" font-family="Arial" font-size="10.00">::getCmdOption</text>
</a>
</g>
</g>
<!-- Node1&#45;&gt;Node3 -->
<g id="edge2_Node000001_Node000003" class="edge">
<title>Node1&#45;&gt;Node3</title>
<g id="a_edge2_Node000001_Node000003"><a xlink:title=" ">
<path fill="none" stroke="#63b8ff" d="M27.04,-130.07C36.49,-142.33 54.39,-163.55 74,-176.5 76.38,-178.07 78.88,-179.56 81.45,-180.97"/>
<polygon fill="#63b8ff" stroke="#63b8ff" points="79.91,-184.11 90.42,-185.46 83.04,-177.85 79.91,-184.11"/>
</a>
</g>
</g>
<!-- Node4 -->
<g id="Node000004" class="node">
<title>Node4</title>
<g id="a_Node000004"><a xlink:href="namespaceutil_1_1parallel.html#a4ad550a438091fb9cd924783e690764d" target="_top" xlink:title="Get number of threads to be used by taskflow.">
<polygon fill="white" stroke="#666666" points="202,-167 74,-167 74,-148 202,-148 202,-167"/>
<text text-anchor="middle" x="138" y="-155" font-family="Arial" font-size="10.00">util::parallel::getNThreads</text>
</a>
</g>
</g>
<!-- Node1&#45;&gt;Node4 -->
<g id="edge3_Node000001_Node000004" class="edge">
<title>Node1&#45;&gt;Node4</title>
<g id="a_edge3_Node000001_Node000004"><a xlink:title=" ">
<path fill="none" stroke="#63b8ff" d="M38.4,-127.28C48.8,-131.04 62.07,-135.7 74,-139.5 79.97,-141.4 86.3,-143.32 92.54,-145.16"/>
<polygon fill="#63b8ff" stroke="#63b8ff" points="91.65,-148.54 102.23,-147.97 93.6,-141.82 91.65,-148.54"/>
</a>
</g>
</g>
<!-- Node5 -->
<g id="Node000005" class="node">
<title>Node5</title>
<g id="a_Node000005"><a xlink:href="namespaceutil_1_1parallel.html#a51937c54a3624744fa6dff8f5e312862" target="_top" xlink:title="Initializes MpiStatus struct.">
<polygon fill="white" stroke="#666666" points="202,-130 74,-130 74,-111 202,-111 202,-130"/>
<text text-anchor="middle" x="138" y="-118" font-family="Arial" font-size="10.00">util::parallel::initNThreads</text>
</a>
</g>
</g>
<!-- Node1&#45;&gt;Node5 -->
<g id="edge4_Node000001_Node000005" class="edge">
<title>Node1&#45;&gt;Node5</title>
<g id="a_edge4_Node000001_Node000005"><a xlink:title=" ">
<path fill="none" stroke="#63b8ff" d="M38.02,-120.5C45.35,-120.5 54.34,-120.5 63.88,-120.5"/>
<polygon fill="#63b8ff" stroke="#63b8ff" points="63.98,-124 73.98,-120.5 63.98,-117 63.98,-124"/>
</a>
</g>
</g>
<!-- Node6 -->
<g id="Node000006" class="node">
<title>Node6</title>
<g id="a_Node000006"><a xlink:href="namespaceutil_1_1io.html#a578a578ce41389fb01e56de7316b7054" target="_top" xlink:title="Prints formatted information.">
<polygon fill="white" stroke="#666666" points="172,-93 104,-93 104,-74 172,-74 172,-93"/>
<text text-anchor="middle" x="138" y="-81" font-family="Arial" font-size="10.00">util::io::print</text>
</a>
</g>
</g>
<!-- Node1&#45;&gt;Node6 -->
<g id="edge5_Node000001_Node000006" class="edge">
<title>Node1&#45;&gt;Node6</title>
<g id="a_edge5_Node000001_Node000006"><a xlink:title=" ">
<path fill="none" stroke="#63b8ff" d="M38.45,-114.2C48.87,-110.69 62.13,-106.27 74,-102.5 80.66,-100.39 87.73,-98.2 94.64,-96.09"/>
<polygon fill="#63b8ff" stroke="#63b8ff" points="96.01,-99.33 104.57,-93.09 93.99,-92.63 96.01,-99.33"/>
</a>
</g>
</g>
<!-- Node12 -->
<g id="Node000012" class="node">
<title>Node12</title>
<g id="a_Node000012"><a xlink:href="classmodel_1_1DEMModel.html#ae8eba7a12449983fa10d07e3b7374512" target="_top" xlink:title="Main driver to simulate.">
<polygon fill="white" stroke="#666666" points="196.5,-56 79.5,-56 79.5,-37 196.5,-37 196.5,-56"/>
<text text-anchor="middle" x="138" y="-44" font-family="Arial" font-size="10.00">model::DEMModel::run</text>
</a>
</g>
</g>
<!-- Node1&#45;&gt;Node12 -->
<g id="edge11_Node000001_Node000012" class="edge">
<title>Node1&#45;&gt;Node12</title>
<g id="a_edge11_Node000001_Node000012"><a xlink:title=" ">
<path fill="none" stroke="#63b8ff" d="M26.87,-110.67C36.15,-98.12 53.85,-76.6 74,-64.5 76.83,-62.8 79.82,-61.26 82.91,-59.85"/>
<polygon fill="#63b8ff" stroke="#63b8ff" points="84.41,-63.02 92.39,-56.05 81.8,-56.53 84.41,-63.02"/>
</a>
</g>
</g>
<!-- Node13 -->
<g id="Node000013" class="node">
<title>Node13</title>
<g id="a_Node000013"><a xlink:href="namespaceutil_1_1methods.html#aaf9cfac99073d034d41e10d4d17e59a2" target="_top" xlink:title="Returns difference between two times.">
<polygon fill="white" stroke="#666666" points="194.5,-19 81.5,-19 81.5,0 194.5,0 194.5,-19"/>
<text text-anchor="middle" x="138" y="-7" font-family="Arial" font-size="10.00">util::methods::timeDiff</text>
</a>
</g>
</g>
<!-- Node1&#45;&gt;Node13 -->
<g id="edge12_Node000001_Node000013" class="edge">
<title>Node1&#45;&gt;Node13</title>
<g id="a_edge12_Node000001_Node000013"><a xlink:title=" ">
<path fill="none" stroke="#63b8ff" d="M22.84,-110.98C28.98,-92.12 45.27,-49.87 74,-27.5 75.79,-26.11 77.68,-24.83 79.64,-23.64"/>
<polygon fill="#63b8ff" stroke="#63b8ff" points="81.34,-26.71 88.67,-19.06 78.17,-20.47 81.34,-26.71"/>
</a>
</g>
</g>
<!-- Node7 -->
<g id="Node000007" class="node">
<title>Node7</title>
<g id="a_Node000007"><a xlink:href="namespaceutil_1_1parallel.html#adb80f14125b7556bb478cc3725508fa8" target="_top" xlink:title="get rank (id) of this processor">
<polygon fill="white" stroke="#666666" points="349,-112 238,-112 238,-93 349,-93 349,-112"/>
<text text-anchor="middle" x="293.5" y="-100" font-family="Arial" font-size="10.00">util::parallel::mpiRank</text>
</a>
</g>
</g>
<!-- Node6&#45;&gt;Node7 -->
<g id="edge6_Node000006_Node000007" class="edge">
<title>Node6&#45;&gt;Node7</title>
<g id="a_edge6_Node000006_Node000007"><a xlink:title=" ">
<path fill="none" stroke="#63b8ff" d="M172.31,-87.62C188.53,-89.63 208.6,-92.12 227.68,-94.48"/>
<polygon fill="#63b8ff" stroke="#63b8ff" points="227.48,-97.98 237.83,-95.73 228.34,-91.03 227.48,-97.98"/>
</a>
</g>
</g>
<!-- Node10 -->
<g id="Node000010" class="node">
<title>Node10</title>
<g id="a_Node000010"><a xlink:href="namespaceutil_1_1io.html#a3e537e3bd778616255015cde6e60a30a" target="_top" xlink:title="Returns formatted string for output.">
<polygon fill="white" stroke="#666666" points="333.5,-75 253.5,-75 253.5,-56 333.5,-56 333.5,-75"/>
<text text-anchor="middle" x="293.5" y="-63" font-family="Arial" font-size="10.00">util::io::printStr</text>
</a>
</g>
</g>
<!-- Node6&#45;&gt;Node10 -->
<g id="edge9_Node000006_Node000010" class="edge">
<title>Node6&#45;&gt;Node10</title>
<g id="a_edge9_Node000006_Node000010"><a xlink:title=" ">
<path fill="none" stroke="#63b8ff" d="M172.31,-79.59C193.05,-77.16 220.09,-73.99 243.28,-71.27"/>
<polygon fill="#63b8ff" stroke="#63b8ff" points="243.76,-74.74 253.28,-70.1 242.94,-67.79 243.76,-74.74"/>
</a>
</g>
</g>
<!-- Node8 -->
<g id="Node000008" class="node">
<title>Node8</title>
<g id="a_Node000008"><a xlink:href="namespaceutil_1_1parallel.html#aa0c65ae0f7fb6e0c4f3104c5bf3b1ff6" target="_top" xlink:title="Initializes MPI and also creates MpiStatus struct.">
<polygon fill="white" stroke="#666666" points="486,-112 385,-112 385,-93 486,-93 486,-112"/>
<text text-anchor="middle" x="435.5" y="-100" font-family="Arial" font-size="10.00">util::parallel::initMpi</text>
</a>
</g>
</g>
<!-- Node7&#45;&gt;Node8 -->
<g id="edge7_Node000007_Node000008" class="edge">
<title>Node7&#45;&gt;Node8</title>
<g id="a_edge7_Node000007_Node000008"><a xlink:title=" ">
<path fill="none" stroke="#63b8ff" d="M349.03,-102.5C357.43,-102.5 366.15,-102.5 374.67,-102.5"/>
<polygon fill="#63b8ff" stroke="#63b8ff" points="374.92,-106 384.92,-102.5 374.92,-99 374.92,-106"/>
</a>
</g>
</g>
<!-- Node9 -->
<g id="Node000009" class="node">
<title>Node9</title>
<g id="a_Node000009"><a xlink:href="namespaceutil_1_1parallel.html#a47cb50d2db6de7cf2a786994f274cc9a" target="_top" xlink:title="Initializes MpiStatus struct.">
<polygon fill="white" stroke="#666666" points="651,-112 522,-112 522,-93 651,-93 651,-112"/>
<text text-anchor="middle" x="586.5" y="-100" font-family="Arial" font-size="10.00">util::parallel::initMpiStatus</text>
</a>
</g>
</g>
<!-- Node8&#45;&gt;Node9 -->
<g id="edge8_Node000008_Node000009" class="edge">
<title>Node8&#45;&gt;Node9</title>
<g id="a_edge8_Node000008_Node000009"><a xlink:title=" ">
<path fill="none" stroke="#63b8ff" d="M486.11,-102.5C494.33,-102.5 503,-102.5 511.66,-102.5"/>
<polygon fill="#63b8ff" stroke="#63b8ff" points="511.79,-106 521.79,-102.5 511.79,-99 511.79,-106"/>
</a>
</g>
</g>
<!-- Node11 -->
<g id="Node000011" class="node">
<title>Node11</title>
<g id="a_Node000011"><a xlink:href="namespaceutil_1_1io.html#a38afb09a152cca4061850f4123bd3aeb" target="_top" xlink:title="Returns tab spaces of given size.">
<polygon fill="white" stroke="#666666" points="478,-75 393,-75 393,-56 478,-56 478,-75"/>
<text text-anchor="middle" x="435.5" y="-63" font-family="Arial" font-size="10.00">util::io::getTabS</text>
</a>
</g>
</g>
<!-- Node10&#45;&gt;Node11 -->
<g id="edge10_Node000010_Node000011" class="edge">
<title>Node10&#45;&gt;Node11</title>
<g id="a_edge10_Node000010_Node000011"><a xlink:title=" ">
<path fill="none" stroke="#63b8ff" d="M333.87,-65.5C349,-65.5 366.5,-65.5 382.63,-65.5"/>
<polygon fill="#63b8ff" stroke="#63b8ff" points="382.98,-69 392.98,-65.5 382.98,-62 382.98,-69"/>
</a>
</g>
</g>
</g>
</svg>
