<?xml version="1.0" encoding="UTF-8" standalone="no"?>
<!DOCTYPE svg PUBLIC "-//W3C//DTD SVG 1.1//EN"
 "http://www.w3.org/Graphics/SVG/1.1/DTD/svg11.dtd">
<!-- Generated by graphviz version 2.43.0 (0)
 -->
<!-- Title: /home/user/project/src/fe/baseElem.cpp Pages: 1 -->
<svg width="537pt" height="319pt"
 viewBox="0.00 0.00 537.19 319.00" xmlns="http://www.w3.org/2000/svg" xmlns:xlink="http://www.w3.org/1999/xlink">
<g id="graph0" class="graph" transform="scale(1 1) rotate(0) translate(4 315)">
<title>/home/user/project/src/fe/baseElem.cpp</title>
<!-- Node1 -->
<g id="node1" class="node">
<title>Node1</title>
<g id="a_node1"><a xlink:title=" ">
<polygon fill="#bfbfbf" stroke="black" points="340.19,-280.5 340.19,-310.5 450.19,-310.5 450.19,-280.5 340.19,-280.5"/>
<text text-anchor="start" x="348.19" y="-298.5" font-family="Arial" font-size="10.00">/home/user/project</text>
<text text-anchor="middle" x="395.19" y="-287.5" font-family="Arial" font-size="10.00">/src/fe/baseElem.cpp</text>
</a>
</g>
</g>
<!-- Node2 -->
<g id="node2" class="node">
<title>Node2</title>
<g id="a_node2"><a xlink:href="baseElem_8h.html" target="_top" xlink:title=" ">
<polygon fill="none" stroke="black" points="299.19,-224.5 299.19,-243.5 367.19,-243.5 367.19,-224.5 299.19,-224.5"/>
<text text-anchor="middle" x="333.19" y="-231.5" font-family="Arial" font-size="10.00">baseElem.h</text>
</a>
</g>
</g>
<!-- Node1&#45;&gt;Node2 -->
<g id="edge1" class="edge">
<title>Node1&#45;&gt;Node2</title>
<path fill="none" stroke="midnightblue" d="M380.5,-280.4C371.21,-271.49 359.19,-259.95 349.59,-250.74"/>
<polygon fill="midnightblue" stroke="midnightblue" points="351.85,-248.06 342.21,-243.66 347,-253.11 351.85,-248.06"/>
</g>
<!-- Node9 -->
<g id="node6" class="node">
<title>Node9</title>
<g id="a_node6"><a xlink:title=" ">
<polygon fill="none" stroke="#bfbfbf" points="317.19,-0.5 317.19,-19.5 371.19,-19.5 371.19,-0.5 317.19,-0.5"/>
<text text-anchor="middle" x="344.19" y="-7.5" font-family="Arial" font-size="10.00">iostream</text>
</a>
</g>
</g>
<!-- Node1&#45;&gt;Node9 -->
<g id="edge17" class="edge">
<title>Node1&#45;&gt;Node9</title>
<path fill="none" stroke="midnightblue" d="M395.19,-280.28C395.19,-258.48 395.19,-215.49 395.19,-179 395.19,-179 395.19,-179 395.19,-121 395.19,-90.9 389.32,-83.08 376.19,-56 371.34,-45.99 364.31,-35.81 358.08,-27.67"/>
<polygon fill="midnightblue" stroke="midnightblue" points="360.73,-25.38 351.76,-19.74 355.26,-29.75 360.73,-25.38"/>
</g>
<!-- Node17 -->
<g id="node11" class="node">
<title>Node17</title>
<g id="a_node11"><a xlink:href="feElementDefs_8h.html" target="_top" xlink:title=" ">
<polygon fill="none" stroke="black" points="423.19,-224.5 423.19,-243.5 529.19,-243.5 529.19,-224.5 423.19,-224.5"/>
<text text-anchor="middle" x="476.19" y="-231.5" font-family="Arial" font-size="10.00">util/feElementDefs.h</text>
</a>
</g>
</g>
<!-- Node1&#45;&gt;Node17 -->
<g id="edge16" class="edge">
<title>Node1&#45;&gt;Node17</title>
<path fill="none" stroke="midnightblue" d="M414.39,-280.4C427.01,-271.13 443.48,-259.03 456.25,-249.65"/>
<polygon fill="midnightblue" stroke="midnightblue" points="458.42,-252.4 464.4,-243.66 454.27,-246.76 458.42,-252.4"/>
</g>
<!-- Node3 -->
<g id="node3" class="node">
<title>Node3</title>
<g id="a_node3"><a xlink:href="quadData_8h.html" target="_top" xlink:title=" ">
<polygon fill="none" stroke="black" points="225.69,-168.5 225.69,-187.5 292.69,-187.5 292.69,-168.5 225.69,-168.5"/>
<text text-anchor="middle" x="259.19" y="-175.5" font-family="Arial" font-size="10.00">quadData.h</text>
</a>
</g>
</g>
<!-- Node2&#45;&gt;Node3 -->
<g id="edge2" class="edge">
<title>Node2&#45;&gt;Node3</title>
<path fill="none" stroke="midnightblue" d="M321.3,-224.32C310.04,-216.11 292.9,-203.6 279.48,-193.81"/>
<polygon fill="midnightblue" stroke="midnightblue" points="281.44,-190.9 271.3,-187.83 277.31,-196.56 281.44,-190.9"/>
</g>
<!-- Node5 -->
<g id="node5" class="node">
<title>Node5</title>
<g id="a_node5"><a xlink:href="point_8h.html" target="_top" xlink:title=" ">
<polygon fill="none" stroke="red" points="321.19,-56.5 321.19,-75.5 367.19,-75.5 367.19,-56.5 321.19,-56.5"/>
<text text-anchor="middle" x="344.19" y="-63.5" font-family="Arial" font-size="10.00">point.h</text>
</a>
</g>
</g>
<!-- Node2&#45;&gt;Node5 -->
<g id="edge15" class="edge">
<title>Node2&#45;&gt;Node5</title>
<path fill="none" stroke="midnightblue" d="M333.78,-224.08C335.51,-197.95 340.6,-121.21 342.96,-85.58"/>
<polygon fill="midnightblue" stroke="midnightblue" points="346.45,-85.78 343.62,-75.57 339.47,-85.31 346.45,-85.78"/>
</g>
<!-- Node4 -->
<g id="node4" class="node">
<title>Node4</title>
<g id="a_node4"><a xlink:href="io_8h.html" target="_top" xlink:title=" ">
<polygon fill="none" stroke="black" points="213.19,-112.5 213.19,-131.5 261.19,-131.5 261.19,-112.5 213.19,-112.5"/>
<text text-anchor="middle" x="237.19" y="-119.5" font-family="Arial" font-size="10.00">util/io.h</text>
</a>
</g>
</g>
<!-- Node3&#45;&gt;Node4 -->
<g id="edge3" class="edge">
<title>Node3&#45;&gt;Node4</title>
<path fill="none" stroke="midnightblue" d="M255.56,-168.08C252.58,-160.77 248.26,-150.18 244.57,-141.1"/>
<polygon fill="midnightblue" stroke="midnightblue" points="247.77,-139.69 240.76,-131.75 241.29,-142.33 247.77,-139.69"/>
</g>
<!-- Node3&#45;&gt;Node5 -->
<g id="edge13" class="edge">
<title>Node3&#45;&gt;Node5</title>
<path fill="none" stroke="midnightblue" d="M265.86,-168.37C279.95,-150.14 312.95,-107.43 331.31,-83.68"/>
<polygon fill="midnightblue" stroke="midnightblue" points="334.21,-85.64 337.55,-75.59 328.67,-81.36 334.21,-85.64"/>
</g>
<!-- Node10 -->
<g id="node7" class="node">
<title>Node10</title>
<g id="a_node7"><a xlink:title=" ">
<polygon fill="none" stroke="#bfbfbf" points="59.19,-0.5 59.19,-19.5 103.19,-19.5 103.19,-0.5 59.19,-0.5"/>
<text text-anchor="middle" x="81.19" y="-7.5" font-family="Arial" font-size="10.00">vector</text>
</a>
</g>
</g>
<!-- Node3&#45;&gt;Node10 -->
<g id="edge14" class="edge">
<title>Node3&#45;&gt;Node10</title>
<path fill="none" stroke="midnightblue" d="M225.42,-175.08C168.44,-169.81 54.5,-150.04 4.19,-76 -11.38,-53.09 21.77,-33.65 49.32,-22.16"/>
<polygon fill="midnightblue" stroke="midnightblue" points="50.73,-25.37 58.75,-18.43 48.16,-18.86 50.73,-25.37"/>
</g>
<!-- Node4&#45;&gt;Node5 -->
<g id="edge4" class="edge">
<title>Node4&#45;&gt;Node5</title>
<path fill="none" stroke="midnightblue" d="M254.38,-112.32C271.54,-103.66 298.14,-90.24 317.94,-80.25"/>
<polygon fill="midnightblue" stroke="midnightblue" points="319.69,-83.28 327.04,-75.65 316.54,-77.04 319.69,-83.28"/>
</g>
<!-- Node4&#45;&gt;Node9 -->
<g id="edge10" class="edge">
<title>Node4&#45;&gt;Node9</title>
<path fill="none" stroke="midnightblue" d="M245.59,-112.37C263.48,-93.97 305.6,-50.67 328.58,-27.05"/>
<polygon fill="midnightblue" stroke="midnightblue" points="331.37,-29.2 335.83,-19.59 326.35,-24.32 331.37,-29.2"/>
</g>
<!-- Node4&#45;&gt;Node10 -->
<g id="edge11" class="edge">
<title>Node4&#45;&gt;Node10</title>
<path fill="none" stroke="midnightblue" d="M212.87,-114.39C190.35,-107.44 156.72,-94.85 132.19,-76 115.19,-62.93 100.65,-42.96 91.5,-28.6"/>
<polygon fill="midnightblue" stroke="midnightblue" points="94.26,-26.42 86.06,-19.72 88.29,-30.07 94.26,-26.42"/>
</g>
<!-- Node11 -->
<g id="node8" class="node">
<title>Node11</title>
<g id="a_node8"><a xlink:href="parallelUtil_8h.html" target="_top" xlink:title=" ">
<polygon fill="none" stroke="red" points="13.69,-56.5 13.69,-75.5 84.69,-75.5 84.69,-56.5 13.69,-56.5"/>
<text text-anchor="middle" x="49.19" y="-63.5" font-family="Arial" font-size="10.00">parallelUtil.h</text>
</a>
</g>
</g>
<!-- Node4&#45;&gt;Node11 -->
<g id="edge7" class="edge">
<title>Node4&#45;&gt;Node11</title>
<path fill="none" stroke="midnightblue" d="M213,-114.05C181.5,-105 126.04,-89.07 88.47,-78.28"/>
<polygon fill="midnightblue" stroke="midnightblue" points="89.44,-74.92 78.86,-75.52 87.51,-81.65 89.44,-74.92"/>
</g>
<!-- Node15 -->
<g id="node9" class="node">
<title>Node15</title>
<g id="a_node9"><a xlink:title=" ">
<polygon fill="none" stroke="#bfbfbf" points="141.19,-56.5 141.19,-75.5 191.19,-75.5 191.19,-56.5 141.19,-56.5"/>
<text text-anchor="middle" x="166.19" y="-63.5" font-family="Arial" font-size="10.00">fstream</text>
</a>
</g>
</g>
<!-- Node4&#45;&gt;Node15 -->
<g id="edge9" class="edge">
<title>Node4&#45;&gt;Node15</title>
<path fill="none" stroke="midnightblue" d="M225.78,-112.32C215.08,-104.18 198.85,-91.84 186.03,-82.09"/>
<polygon fill="midnightblue" stroke="midnightblue" points="187.88,-79.1 177.81,-75.83 183.65,-84.67 187.88,-79.1"/>
</g>
<!-- Node16 -->
<g id="node10" class="node">
<title>Node16</title>
<g id="a_node10"><a xlink:title=" ">
<polygon fill="none" stroke="#bfbfbf" points="209.19,-56.5 209.19,-75.5 265.19,-75.5 265.19,-56.5 209.19,-56.5"/>
<text text-anchor="middle" x="237.19" y="-63.5" font-family="Arial" font-size="10.00">algorithm</text>
</a>
</g>
</g>
<!-- Node4&#45;&gt;Node16 -->
<g id="edge12" class="edge">
<title>Node4&#45;&gt;Node16</title>
<path fill="none" stroke="midnightblue" d="M237.19,-112.08C237.19,-105.01 237.19,-94.86 237.19,-85.99"/>
<polygon fill="midnightblue" stroke="midnightblue" points="240.69,-85.75 237.19,-75.75 233.69,-85.75 240.69,-85.75"/>
</g>
<!-- Node5&#45;&gt;Node9 -->
<g id="edge5" class="edge">
<title>Node5&#45;&gt;Node9</title>
<path fill="none" stroke="midnightblue" d="M344.19,-56.08C344.19,-49.01 344.19,-38.86 344.19,-29.99"/>
<polygon fill="midnightblue" stroke="midnightblue" points="347.69,-29.75 344.19,-19.75 340.69,-29.75 347.69,-29.75"/>
</g>
<!-- Node5&#45;&gt;Node10 -->
<g id="edge6" class="edge">
<title>Node5&#45;&gt;Node10</title>
<path fill="none" stroke="midnightblue" d="M320.85,-60.21C273.71,-50.53 167.06,-28.63 113.36,-17.6"/>
<polygon fill="midnightblue" stroke="midnightblue" points="113.86,-14.13 103.36,-15.55 112.45,-20.99 113.86,-14.13"/>
</g>
<!-- Node11&#45;&gt;Node10 -->
<g id="edge8" class="edge">
<title>Node11&#45;&gt;Node10</title>
<path fill="none" stroke="midnightblue" d="M54.47,-56.08C58.9,-48.61 65.35,-37.72 70.81,-28.52"/>
<polygon fill="midnightblue" stroke="midnightblue" points="73.92,-30.14 76,-19.75 67.9,-26.57 73.92,-30.14"/>
</g>
</g>
</svg>
