<?xml version="1.0" encoding="UTF-8" standalone="no"?>
<!DOCTYPE svg PUBLIC "-//W3C//DTD SVG 1.1//EN"
 "http://www.w3.org/Graphics/SVG/1.1/DTD/svg11.dtd">
<!-- Generated by graphviz version 2.43.0 (0)
 -->
<!-- Title: /home/user/project/src/particle/baseParticle.h Pages: 1 -->
<svg width="1306pt" height="184pt"
 viewBox="0.00 0.00 1306.00 184.00" xmlns="http://www.w3.org/2000/svg" xmlns:xlink="http://www.w3.org/1999/xlink">
<g id="graph0" class="graph" transform="scale(1 1) rotate(0) translate(4 180)">
<title>/home/user/project/src/particle/baseParticle.h</title>
<!-- Node1 -->
<g id="node1" class="node">
<title>Node1</title>
<g id="a_node1"><a xlink:title=" ">
<polygon fill="#bfbfbf" stroke="black" points="480.5,-145.5 480.5,-175.5 613.5,-175.5 613.5,-145.5 480.5,-145.5"/>
<text text-anchor="start" x="488.5" y="-163.5" font-family="Arial" font-size="10.00">/home/user/project</text>
<text text-anchor="middle" x="547" y="-152.5" font-family="Arial" font-size="10.00">/src/particle/baseParticle.h</text>
</a>
</g>
</g>
<!-- Node2 -->
<g id="node2" class="node">
<title>Node2</title>
<g id="a_node2"><a xlink:href="particleFLoading_8cpp.html" target="_top" xlink:title=" ">
<polygon fill="none" stroke="black" points="0,-78.5 0,-108.5 160,-108.5 160,-78.5 0,-78.5"/>
<text text-anchor="start" x="8" y="-96.5" font-family="Arial" font-size="10.00">/home/user/project</text>
<text text-anchor="middle" x="80" y="-85.5" font-family="Arial" font-size="10.00">/src/loading/particleFLoading.cpp</text>
</a>
</g>
</g>
<!-- Node1&#45;&gt;Node2 -->
<g id="edge1" class="edge">
<title>Node1&#45;&gt;Node2</title>
<path fill="none" stroke="midnightblue" d="M470.32,-149.91C393.89,-140.2 273.2,-124.45 169,-109 166.06,-108.56 163.06,-108.11 160.04,-107.65"/>
<polygon fill="midnightblue" stroke="midnightblue" points="469.98,-153.4 480.34,-151.18 470.86,-146.45 469.98,-153.4"/>
</g>
<!-- Node3 -->
<g id="node3" class="node">
<title>Node3</title>
<g id="a_node3"><a xlink:href="particleULoading_8cpp.html" target="_top" xlink:title=" ">
<polygon fill="none" stroke="black" points="178.5,-78.5 178.5,-108.5 339.5,-108.5 339.5,-78.5 178.5,-78.5"/>
<text text-anchor="start" x="186.5" y="-96.5" font-family="Arial" font-size="10.00">/home/user/project</text>
<text text-anchor="middle" x="259" y="-85.5" font-family="Arial" font-size="10.00">/src/loading/particleULoading.cpp</text>
</a>
</g>
</g>
<!-- Node1&#45;&gt;Node3 -->
<g id="edge2" class="edge">
<title>Node1&#45;&gt;Node3</title>
<path fill="none" stroke="midnightblue" d="M475.01,-143.25C427.8,-132.6 366.69,-118.81 321.52,-108.61"/>
<polygon fill="midnightblue" stroke="midnightblue" points="474.34,-146.69 484.86,-145.48 475.88,-139.86 474.34,-146.69"/>
</g>
<!-- Node4 -->
<g id="node4" class="node">
<title>Node4</title>
<g id="a_node4"><a xlink:href="materialUtil_8cpp.html" target="_top" xlink:title=" ">
<polygon fill="none" stroke="black" points="358,-78.5 358,-108.5 500,-108.5 500,-78.5 358,-78.5"/>
<text text-anchor="start" x="366" y="-96.5" font-family="Arial" font-size="10.00">/home/user/project</text>
<text text-anchor="middle" x="429" y="-85.5" font-family="Arial" font-size="10.00">/src/material/materialUtil.cpp</text>
</a>
</g>
</g>
<!-- Node1&#45;&gt;Node4 -->
<g id="edge3" class="edge">
<title>Node1&#45;&gt;Node4</title>
<path fill="none" stroke="midnightblue" d="M512.39,-140.44C493.88,-130.24 471.48,-117.9 454.55,-108.58"/>
<polygon fill="midnightblue" stroke="midnightblue" points="510.95,-143.64 521.4,-145.4 514.33,-137.51 510.95,-143.64"/>
</g>
<!-- Node5 -->
<g id="node5" class="node">
<title>Node5</title>
<g id="a_node5"><a xlink:href="modelData_8cpp.html" target="_top" xlink:title=" ">
<polygon fill="none" stroke="black" points="440.5,-6 440.5,-36 571.5,-36 571.5,-6 440.5,-6"/>
<text text-anchor="start" x="448.5" y="-24" font-family="Arial" font-size="10.00">/home/user/project</text>
<text text-anchor="middle" x="506" y="-13" font-family="Arial" font-size="10.00">/src/model/modelData.cpp</text>
</a>
</g>
</g>
<!-- Node1&#45;&gt;Node5 -->
<g id="edge4" class="edge">
<title>Node1&#45;&gt;Node5</title>
<path fill="none" stroke="midnightblue" d="M548.68,-134.82C549.04,-118.34 548.02,-96.39 542,-78 536.89,-62.4 526.38,-46.88 518.02,-36.15"/>
<polygon fill="midnightblue" stroke="midnightblue" points="545.17,-135.12 548.26,-145.25 552.16,-135.4 545.17,-135.12"/>
</g>
<!-- Node6 -->
<g id="node6" class="node">
<title>Node6</title>
<g id="a_node6"><a xlink:href="particle_8h.html" target="_top" xlink:title=" ">
<polygon fill="none" stroke="black" points="735,-78.5 735,-108.5 845,-108.5 845,-78.5 735,-78.5"/>
<text text-anchor="start" x="743" y="-96.5" font-family="Arial" font-size="10.00">/home/user/project</text>
<text text-anchor="middle" x="790" y="-85.5" font-family="Arial" font-size="10.00">/src/particle/particle.h</text>
</a>
</g>
</g>
<!-- Node1&#45;&gt;Node6 -->
<g id="edge5" class="edge">
<title>Node1&#45;&gt;Node6</title>
<path fill="none" stroke="midnightblue" d="M609.25,-142.85C648.86,-132.25 699.61,-118.68 737.25,-108.61"/>
<polygon fill="midnightblue" stroke="midnightblue" points="608.18,-139.51 599.43,-145.48 609.99,-146.27 608.18,-139.51"/>
</g>
<!-- Node9 -->
<g id="node9" class="node">
<title>Node9</title>
<g id="a_node9"><a xlink:href="vtkParticleReader_8cpp.html" target="_top" xlink:title=" ">
<polygon fill="none" stroke="black" points="276,-6 276,-36 422,-36 422,-6 276,-6"/>
<text text-anchor="start" x="284" y="-24" font-family="Arial" font-size="10.00">/home/user/project</text>
<text text-anchor="middle" x="349" y="-13" font-family="Arial" font-size="10.00">/src/rw/vtkParticleReader.cpp</text>
</a>
</g>
</g>
<!-- Node1&#45;&gt;Node9 -->
<g id="edge18" class="edge">
<title>Node1&#45;&gt;Node9</title>
<path fill="none" stroke="midnightblue" d="M541.28,-135.56C535.81,-117.47 525.84,-93.24 509,-78 493.02,-63.53 442.93,-47.29 403,-36.03"/>
<polygon fill="midnightblue" stroke="midnightblue" points="537.96,-136.68 544,-145.38 544.71,-134.81 537.96,-136.68"/>
</g>
<!-- Node10 -->
<g id="node10" class="node">
<title>Node10</title>
<g id="a_node10"><a xlink:href="vtkParticleWriter_8cpp.html" target="_top" xlink:title=" ">
<polygon fill="none" stroke="black" points="884,-6 884,-36 1024,-36 1024,-6 884,-6"/>
<text text-anchor="start" x="892" y="-24" font-family="Arial" font-size="10.00">/home/user/project</text>
<text text-anchor="middle" x="954" y="-13" font-family="Arial" font-size="10.00">/src/rw/vtkParticleWriter.cpp</text>
</a>
</g>
</g>
<!-- Node1&#45;&gt;Node10 -->
<g id="edge19" class="edge">
<title>Node1&#45;&gt;Node10</title>
<path fill="none" stroke="midnightblue" d="M623.63,-158.43C687.91,-154.88 780.69,-143.47 854,-109 891.28,-91.47 925.31,-55.92 942.42,-36.12"/>
<polygon fill="midnightblue" stroke="midnightblue" points="623.38,-154.93 613.57,-158.93 623.73,-161.93 623.38,-154.93"/>
</g>
<!-- Node12 -->
<g id="node12" class="node">
<title>Node12</title>
<g id="a_node12"><a xlink:href="wall_8h.html" target="_top" xlink:title=" ">
<polygon fill="none" stroke="black" points="594,-78.5 594,-108.5 692,-108.5 692,-78.5 594,-78.5"/>
<text text-anchor="start" x="602" y="-96.5" font-family="Arial" font-size="10.00">/home/user/project</text>
<text text-anchor="middle" x="643" y="-85.5" font-family="Arial" font-size="10.00">/src/particle/wall.h</text>
</a>
</g>
</g>
<!-- Node1&#45;&gt;Node12 -->
<g id="edge12" class="edge">
<title>Node1&#45;&gt;Node12</title>
<path fill="none" stroke="midnightblue" d="M576.19,-139.73C591.05,-129.68 608.76,-117.68 622.21,-108.58"/>
<polygon fill="midnightblue" stroke="midnightblue" points="574.15,-136.89 567.83,-145.4 578.07,-142.69 574.15,-136.89"/>
</g>
<!-- Node6&#45;&gt;Node5 -->
<g id="edge7" class="edge">
<title>Node6&#45;&gt;Node5</title>
<path fill="none" stroke="midnightblue" d="M724.97,-77.2C683.68,-67.39 629.13,-54.23 581,-42 573.56,-40.11 565.71,-38.07 558.01,-36.04"/>
<polygon fill="midnightblue" stroke="midnightblue" points="724.37,-80.66 734.91,-79.56 725.99,-73.85 724.37,-80.66"/>
</g>
<!-- Node7 -->
<g id="node7" class="node">
<title>Node7</title>
<g id="a_node7"><a xlink:href="demModel_8cpp.html" target="_top" xlink:title=" ">
<polygon fill="none" stroke="black" points="714.5,-6 714.5,-36 865.5,-36 865.5,-6 714.5,-6"/>
<text text-anchor="start" x="722.5" y="-24" font-family="Arial" font-size="10.00">/home/user/project</text>
<text text-anchor="middle" x="790" y="-13" font-family="Arial" font-size="10.00">/src/model/dem/demModel.cpp</text>
</a>
</g>
</g>
<!-- Node6&#45;&gt;Node7 -->
<g id="edge6" class="edge">
<title>Node6&#45;&gt;Node7</title>
<path fill="none" stroke="midnightblue" d="M790,-68.23C790,-57.57 790,-45.41 790,-36.25"/>
<polygon fill="midnightblue" stroke="midnightblue" points="786.5,-68.23 790,-78.23 793.5,-68.23 786.5,-68.23"/>
</g>
<!-- Node8 -->
<g id="node8" class="node">
<title>Node8</title>
<g id="a_node8"><a xlink:href="particle_8cpp.html" target="_top" xlink:title=" ">
<polygon fill="none" stroke="black" points="1042.5,-6 1042.5,-36 1163.5,-36 1163.5,-6 1042.5,-6"/>
<text text-anchor="start" x="1050.5" y="-24" font-family="Arial" font-size="10.00">/home/user/project</text>
<text text-anchor="middle" x="1103" y="-13" font-family="Arial" font-size="10.00">/src/particle/particle.cpp</text>
</a>
</g>
</g>
<!-- Node6&#45;&gt;Node8 -->
<g id="edge8" class="edge">
<title>Node6&#45;&gt;Node8</title>
<path fill="none" stroke="midnightblue" d="M855.13,-80.31C904.23,-70.8 973.11,-56.76 1033,-42 1040.36,-40.19 1048.12,-38.12 1055.68,-36.03"/>
<polygon fill="midnightblue" stroke="midnightblue" points="854.43,-76.88 845.27,-82.21 855.75,-83.76 854.43,-76.88"/>
</g>
<!-- Node6&#45;&gt;Node9 -->
<g id="edge9" class="edge">
<title>Node6&#45;&gt;Node9</title>
<path fill="none" stroke="midnightblue" d="M724.86,-81.67C716.83,-80.4 708.73,-79.15 701,-78 581.68,-60.3 550.57,-64.16 432,-42 422.82,-40.28 413.13,-38.2 403.74,-36.04"/>
<polygon fill="midnightblue" stroke="midnightblue" points="724.54,-85.16 734.97,-83.28 725.64,-78.25 724.54,-85.16"/>
</g>
<!-- Node6&#45;&gt;Node10 -->
<g id="edge10" class="edge">
<title>Node6&#45;&gt;Node10</title>
<path fill="none" stroke="midnightblue" d="M832.24,-74.34C859.96,-62.42 895.69,-47.07 921.26,-36.07"/>
<polygon fill="midnightblue" stroke="midnightblue" points="830.6,-71.24 822.79,-78.4 833.36,-77.67 830.6,-71.24"/>
</g>
<!-- Node11 -->
<g id="node11" class="node">
<title>Node11</title>
<g id="a_node11"><a xlink:href="testParticleLib_8cpp.html" target="_top" xlink:title=" ">
<polygon fill="none" stroke="black" points="1182,-0.5 1182,-41.5 1298,-41.5 1298,-0.5 1182,-0.5"/>
<text text-anchor="start" x="1190" y="-29.5" font-family="Arial" font-size="10.00">/home/user/project</text>
<text text-anchor="start" x="1190" y="-18.5" font-family="Arial" font-size="10.00">/test/test_exec/particle</text>
<text text-anchor="middle" x="1240" y="-7.5" font-family="Arial" font-size="10.00">/testParticleLib.cpp</text>
</a>
</g>
</g>
<!-- Node6&#45;&gt;Node11 -->
<g id="edge11" class="edge">
<title>Node6&#45;&gt;Node11</title>
<path fill="none" stroke="midnightblue" d="M855,-87.11C931.62,-80.02 1062.53,-65.61 1173,-42 1175.85,-41.39 1178.75,-40.72 1181.68,-40.01"/>
<polygon fill="midnightblue" stroke="midnightblue" points="854.65,-83.62 845.01,-88.02 855.29,-90.59 854.65,-83.62"/>
</g>
<!-- Node12&#45;&gt;Node5 -->
<g id="edge14" class="edge">
<title>Node12&#45;&gt;Node5</title>
<path fill="none" stroke="midnightblue" d="M606.5,-73.72C583.51,-61.89 554.34,-46.87 533.35,-36.07"/>
<polygon fill="midnightblue" stroke="midnightblue" points="605.11,-76.94 615.61,-78.4 608.32,-70.71 605.11,-76.94"/>
</g>
<!-- Node12&#45;&gt;Node7 -->
<g id="edge13" class="edge">
<title>Node12&#45;&gt;Node7</title>
<path fill="none" stroke="midnightblue" d="M681.51,-74.03C706.27,-62.16 737.94,-46.97 760.66,-36.07"/>
<polygon fill="midnightblue" stroke="midnightblue" points="679.9,-70.92 672.39,-78.4 682.92,-77.23 679.9,-70.92"/>
</g>
<!-- Node12&#45;&gt;Node9 -->
<g id="edge16" class="edge">
<title>Node12&#45;&gt;Node9</title>
<path fill="none" stroke="midnightblue" d="M584.11,-78.43C541.79,-68.31 483.37,-54.34 432,-42 424.07,-40.1 415.72,-38.09 407.49,-36.11"/>
<polygon fill="midnightblue" stroke="midnightblue" points="583.43,-81.87 593.96,-80.79 585.05,-75.06 583.43,-81.87"/>
</g>
<!-- Node12&#45;&gt;Node10 -->
<g id="edge17" class="edge">
<title>Node12&#45;&gt;Node10</title>
<path fill="none" stroke="midnightblue" d="M702.44,-80.14C749.38,-70.23 816.5,-55.77 875,-42 882.99,-40.12 891.41,-38.07 899.66,-36.01"/>
<polygon fill="midnightblue" stroke="midnightblue" points="701.5,-76.76 692.44,-82.24 702.95,-83.61 701.5,-76.76"/>
</g>
<!-- Node13 -->
<g id="node13" class="node">
<title>Node13</title>
<g id="a_node13"><a xlink:href="wall_8cpp.html" target="_top" xlink:title=" ">
<polygon fill="none" stroke="black" points="589.5,-6 589.5,-36 696.5,-36 696.5,-6 589.5,-6"/>
<text text-anchor="start" x="597.5" y="-24" font-family="Arial" font-size="10.00">/home/user/project</text>
<text text-anchor="middle" x="643" y="-13" font-family="Arial" font-size="10.00">/src/particle/wall.cpp</text>
</a>
</g>
</g>
<!-- Node12&#45;&gt;Node13 -->
<g id="edge15" class="edge">
<title>Node12&#45;&gt;Node13</title>
<path fill="none" stroke="midnightblue" d="M643,-68.23C643,-57.57 643,-45.41 643,-36.25"/>
<polygon fill="midnightblue" stroke="midnightblue" points="639.5,-68.23 643,-78.23 646.5,-68.23 639.5,-68.23"/>
</g>
</g>
</svg>
