<?xml version="1.0" encoding="UTF-8" standalone="no"?>
<!DOCTYPE svg PUBLIC "-//W3C//DTD SVG 1.1//EN"
 "http://www.w3.org/Graphics/SVG/1.1/DTD/svg11.dtd">
<!-- Generated by graphviz version 2.43.0 (0)
 -->
<!-- Title: /home/user/project/src/particle/baseParticle.h Pages: 1 -->
<svg width="1744pt" height="115pt"
 viewBox="0.00 0.00 1744.00 115.00" xmlns="http://www.w3.org/2000/svg" xmlns:xlink="http://www.w3.org/1999/xlink">
<g id="graph0" class="graph" transform="scale(1 1) rotate(0) translate(4 111)">
<title>/home/user/project/src/particle/baseParticle.h</title>
<!-- Node1 -->
<g id="Node000001" class="node">
<title>Node1</title>
<g id="a_Node000001"><a xlink:title=" ">
<polygon fill="#999999" stroke="#666666" points="960.5,-107 827.5,-107 827.5,-77 960.5,-77 960.5,-107"/>
<text text-anchor="start" x="835.5" y="-95" font-family="Arial" font-size="10.00">/home/user/project</text>
<text text-anchor="middle" x="894" y="-84" font-family="Arial" font-size="10.00">/src/particle/baseParticle.h</text>
</a>
</g>
</g>
<!-- Node2 -->
<g id="Node000002" class="node">
<title>Node2</title>
<g id="a_Node000002"><a xlink:href="apps_2peridynamics_2main_8cpp.html" target="_top" xlink:title=" ">
<polygon fill="white" stroke="#666666" points="144,-35.5 0,-35.5 0,-5.5 144,-5.5 144,-35.5"/>
<text text-anchor="start" x="8" y="-23.5" font-family="Arial" font-size="10.00">/home/user/project</text>
<text text-anchor="middle" x="72" y="-12.5" font-family="Arial" font-size="10.00">/apps/peridynamics/main.cpp</text>
</a>
</g>
</g>
<!-- Node1&#45;&gt;Node2 -->
<g id="edge1_Node000001_Node000002" class="edge">
<title>Node1&#45;&gt;Node2</title>
<g id="a_edge1_Node000001_Node000002"><a xlink:title=" ">
<path fill="none" stroke="#63b8ff" d="M817.18,-90.08C682.09,-87.51 393.52,-77.8 153,-41 143.85,-39.6 134.21,-37.68 124.9,-35.59"/>
<polygon fill="#63b8ff" stroke="#63b8ff" points="817.36,-93.58 827.42,-90.27 817.48,-86.58 817.36,-93.58"/>
</a>
</g>
</g>
<!-- Node3 -->
<g id="Node000003" class="node">
<title>Node3</title>
<g id="a_Node000003"><a xlink:href="apps_2twoparticle__demo_2main_8cpp.html" target="_top" xlink:title=" ">
<polygon fill="white" stroke="#666666" points="282,-41 162,-41 162,0 282,0 282,-41"/>
<text text-anchor="start" x="170" y="-29" font-family="Arial" font-size="10.00">/home/user/project</text>
<text text-anchor="start" x="170" y="-18" font-family="Arial" font-size="10.00">/apps/twoparticle_demo</text>
<text text-anchor="middle" x="222" y="-7" font-family="Arial" font-size="10.00">/main.cpp</text>
</a>
</g>
</g>
<!-- Node1&#45;&gt;Node3 -->
<g id="edge2_Node000001_Node000003" class="edge">
<title>Node1&#45;&gt;Node3</title>
<g id="a_edge2_Node000001_Node000003"><a xlink:title=" ">
<path fill="none" stroke="#63b8ff" d="M817.3,-89.36C702.15,-85.84 478.13,-74.87 291,-41 288.06,-40.47 285.07,-39.86 282.05,-39.21"/>
<polygon fill="#63b8ff" stroke="#63b8ff" points="817.33,-92.86 827.43,-89.66 817.53,-85.87 817.33,-92.86"/>
</a>
</g>
</g>
<!-- Node4 -->
<g id="Node000004" class="node">
<title>Node4</title>
<g id="a_Node000004"><a xlink:href="particleFLoading_8cpp.html" target="_top" xlink:title=" ">
<polygon fill="white" stroke="#666666" points="460,-35.5 300,-35.5 300,-5.5 460,-5.5 460,-35.5"/>
<text text-anchor="start" x="308" y="-23.5" font-family="Arial" font-size="10.00">/home/user/project</text>
<text text-anchor="middle" x="380" y="-12.5" font-family="Arial" font-size="10.00">/src/loading/particleFLoading.cpp</text>
</a>
</g>
</g>
<!-- Node1&#45;&gt;Node4 -->
<g id="edge3_Node000001_Node000004" class="edge">
<title>Node1&#45;&gt;Node4</title>
<g id="a_edge3_Node000001_Node000004"><a xlink:title=" ">
<path fill="none" stroke="#63b8ff" d="M817.34,-84.28C731.98,-76.26 590.1,-61.34 469,-41 459.64,-39.43 449.78,-37.52 440.17,-35.52"/>
<polygon fill="#63b8ff" stroke="#63b8ff" points="817.18,-87.78 827.46,-85.22 817.83,-80.81 817.18,-87.78"/>
</a>
</g>
</g>
<!-- Node5 -->
<g id="Node000005" class="node">
<title>Node5</title>
<g id="a_Node000005"><a xlink:href="particleULoading_8cpp.html" target="_top" xlink:title=" ">
<polygon fill="white" stroke="#666666" points="639.5,-35.5 478.5,-35.5 478.5,-5.5 639.5,-5.5 639.5,-35.5"/>
<text text-anchor="start" x="486.5" y="-23.5" font-family="Arial" font-size="10.00">/home/user/project</text>
<text text-anchor="middle" x="559" y="-12.5" font-family="Arial" font-size="10.00">/src/loading/particleULoading.cpp</text>
</a>
</g>
</g>
<!-- Node1&#45;&gt;Node5 -->
<g id="edge4_Node000001_Node000005" class="edge">
<title>Node1&#45;&gt;Node5</title>
<g id="a_edge4_Node000001_Node000005"><a xlink:title=" ">
<path fill="none" stroke="#63b8ff" d="M817.33,-75.6C769.01,-65.83 705.32,-52.85 649,-41 640.71,-39.26 631.99,-37.4 623.38,-35.55"/>
<polygon fill="#63b8ff" stroke="#63b8ff" points="816.91,-79.09 827.4,-77.63 818.3,-72.22 816.91,-79.09"/>
</a>
</g>
</g>
<!-- Node6 -->
<g id="Node000006" class="node">
<title>Node6</title>
<g id="a_Node000006"><a xlink:href="materialUtil_8cpp.html" target="_top" xlink:title=" ">
<polygon fill="white" stroke="#666666" points="800,-35.5 658,-35.5 658,-5.5 800,-5.5 800,-35.5"/>
<text text-anchor="start" x="666" y="-23.5" font-family="Arial" font-size="10.00">/home/user/project</text>
<text text-anchor="middle" x="729" y="-12.5" font-family="Arial" font-size="10.00">/src/material/materialUtil.cpp</text>
</a>
</g>
</g>
<!-- Node1&#45;&gt;Node6 -->
<g id="edge5_Node000001_Node000006" class="edge">
<title>Node1&#45;&gt;Node6</title>
<g id="a_edge5_Node000001_Node000006"><a xlink:title=" ">
<path fill="none" stroke="#63b8ff" d="M851.17,-72.96C823.47,-61.29 787.94,-46.32 762.34,-35.54"/>
<polygon fill="#63b8ff" stroke="#63b8ff" points="850.04,-76.28 860.61,-76.94 852.75,-69.83 850.04,-76.28"/>
</a>
</g>
</g>
<!-- Node7 -->
<g id="Node000007" class="node">
<title>Node7</title>
<g id="a_Node000007"><a xlink:href="demModel_8cpp.html" target="_top" xlink:title=" ">
<polygon fill="white" stroke="#666666" points="969.5,-35.5 818.5,-35.5 818.5,-5.5 969.5,-5.5 969.5,-35.5"/>
<text text-anchor="start" x="826.5" y="-23.5" font-family="Arial" font-size="10.00">/home/user/project</text>
<text text-anchor="middle" x="894" y="-12.5" font-family="Arial" font-size="10.00">/src/model/dem/demModel.cpp</text>
</a>
</g>
</g>
<!-- Node1&#45;&gt;Node7 -->
<g id="edge6_Node000001_Node000007" class="edge">
<title>Node1&#45;&gt;Node7</title>
<g id="a_edge6_Node000001_Node000007"><a xlink:title=" ">
<path fill="none" stroke="#63b8ff" d="M894,-66.75C894,-56.31 894,-44.49 894,-35.54"/>
<polygon fill="#63b8ff" stroke="#63b8ff" points="890.5,-66.94 894,-76.94 897.5,-66.94 890.5,-66.94"/>
</a>
</g>
</g>
<!-- Node8 -->
<g id="Node000008" class="node">
<title>Node8</title>
<g id="a_Node000008"><a xlink:href="modelData_8cpp.html" target="_top" xlink:title=" ">
<polygon fill="white" stroke="#666666" points="1118.5,-35.5 987.5,-35.5 987.5,-5.5 1118.5,-5.5 1118.5,-35.5"/>
<text text-anchor="start" x="995.5" y="-23.5" font-family="Arial" font-size="10.00">/home/user/project</text>
<text text-anchor="middle" x="1053" y="-12.5" font-family="Arial" font-size="10.00">/src/model/modelData.cpp</text>
</a>
</g>
</g>
<!-- Node1&#45;&gt;Node8 -->
<g id="edge7_Node000001_Node000008" class="edge">
<title>Node1&#45;&gt;Node8</title>
<g id="a_edge7_Node000001_Node000008"><a xlink:title=" ">
<path fill="none" stroke="#63b8ff" d="M935.63,-72.81C962.27,-61.16 996.32,-46.28 1020.87,-35.54"/>
<polygon fill="#63b8ff" stroke="#63b8ff" points="933.94,-69.72 926.18,-76.94 936.74,-76.14 933.94,-69.72"/>
</a>
</g>
</g>
<!-- Node9 -->
<g id="Node000009" class="node">
<title>Node9</title>
<g id="a_Node000009"><a xlink:href="baseParticle_8cpp.html" target="_top" xlink:title=" ">
<polygon fill="white" stroke="#666666" points="1279.5,-35.5 1136.5,-35.5 1136.5,-5.5 1279.5,-5.5 1279.5,-35.5"/>
<text text-anchor="start" x="1144.5" y="-23.5" font-family="Arial" font-size="10.00">/home/user/project</text>
<text text-anchor="middle" x="1208" y="-12.5" font-family="Arial" font-size="10.00">/src/particle/baseParticle.cpp</text>
</a>
</g>
</g>
<!-- Node1&#45;&gt;Node9 -->
<g id="edge8_Node000001_Node000009" class="edge">
<title>Node1&#45;&gt;Node9</title>
<g id="a_edge8_Node000001_Node000009"><a xlink:title=" ">
<path fill="none" stroke="#63b8ff" d="M970.53,-75.22C1016.29,-65.65 1075.56,-52.99 1128,-41 1135.53,-39.28 1143.44,-37.42 1151.23,-35.55"/>
<polygon fill="#63b8ff" stroke="#63b8ff" points="969.75,-71.81 960.68,-77.28 971.19,-78.66 969.75,-71.81"/>
</a>
</g>
</g>
<!-- Node10 -->
<g id="Node000010" class="node">
<title>Node10</title>
<g id="a_Node000010"><a xlink:href="vtkParticleReader_8cpp.html" target="_top" xlink:title=" ">
<polygon fill="white" stroke="#666666" points="1444,-35.5 1298,-35.5 1298,-5.5 1444,-5.5 1444,-35.5"/>
<text text-anchor="start" x="1306" y="-23.5" font-family="Arial" font-size="10.00">/home/user/project</text>
<text text-anchor="middle" x="1371" y="-12.5" font-family="Arial" font-size="10.00">/src/rw/vtkParticleReader.cpp</text>
</a>
</g>
</g>
<!-- Node1&#45;&gt;Node10 -->
<g id="edge9_Node000001_Node000010" class="edge">
<title>Node1&#45;&gt;Node10</title>
<g id="a_edge9_Node000001_Node000010"><a xlink:title=" ">
<path fill="none" stroke="#63b8ff" d="M970.7,-83.76C1050.56,-75.65 1179.1,-60.96 1289,-41 1297.64,-39.43 1306.73,-37.53 1315.59,-35.53"/>
<polygon fill="#63b8ff" stroke="#63b8ff" points="970.33,-80.28 960.73,-84.77 971.03,-87.24 970.33,-80.28"/>
</a>
</g>
</g>
<!-- Node11 -->
<g id="Node000011" class="node">
<title>Node11</title>
<g id="a_Node000011"><a xlink:href="vtkParticleWriter_8cpp.html" target="_top" xlink:title=" ">
<polygon fill="white" stroke="#666666" points="1602,-35.5 1462,-35.5 1462,-5.5 1602,-5.5 1602,-35.5"/>
<text text-anchor="start" x="1470" y="-23.5" font-family="Arial" font-size="10.00">/home/user/project</text>
<text text-anchor="middle" x="1532" y="-12.5" font-family="Arial" font-size="10.00">/src/rw/vtkParticleWriter.cpp</text>
</a>
</g>
</g>
<!-- Node1&#45;&gt;Node11 -->
<g id="edge10_Node000001_Node000011" class="edge">
<title>Node1&#45;&gt;Node11</title>
<g id="a_edge10_Node000001_Node000011"><a xlink:title=" ">
<path fill="none" stroke="#63b8ff" d="M970.85,-87.85C1079.04,-82.56 1282.16,-69.55 1453,-41 1461.78,-39.53 1471.02,-37.61 1479.97,-35.54"/>
<polygon fill="#63b8ff" stroke="#63b8ff" points="970.5,-84.36 960.68,-88.33 970.83,-91.35 970.5,-84.36"/>
</a>
</g>
</g>
<!-- Node12 -->
<g id="Node000012" class="node">
<title>Node12</title>
<g id="a_Node000012"><a xlink:href="testParticleLib_8cpp.html" target="_top" xlink:title=" ">
<polygon fill="white" stroke="#666666" points="1736,-41 1620,-41 1620,0 1736,0 1736,-41"/>
<text text-anchor="start" x="1628" y="-29" font-family="Arial" font-size="10.00">/home/user/project</text>
<text text-anchor="start" x="1628" y="-18" font-family="Arial" font-size="10.00">/test/test_exec/particle</text>
<text text-anchor="middle" x="1678" y="-7" font-family="Arial" font-size="10.00">/testParticleLib.cpp</text>
</a>
</g>
</g>
<!-- Node1&#45;&gt;Node12 -->
<g id="edge11_Node000001_Node000012" class="edge">
<title>Node1&#45;&gt;Node12</title>
<g id="a_edge11_Node000001_Node000012"><a xlink:title=" ">
<path fill="none" stroke="#63b8ff" d="M970.82,-91C1102.77,-89.81 1380.53,-82.09 1611,-41 1613.86,-40.49 1616.78,-39.9 1619.71,-39.26"/>
<polygon fill="#63b8ff" stroke="#63b8ff" points="970.78,-87.5 960.81,-91.08 970.84,-94.5 970.78,-87.5"/>
</a>
</g>
</g>
</g>
</svg>
