<?xml version="1.0" encoding="UTF-8" standalone="no"?>
<!DOCTYPE svg PUBLIC "-//W3C//DTD SVG 1.1//EN"
 "http://www.w3.org/Graphics/SVG/1.1/DTD/svg11.dtd">
<!-- Generated by graphviz version 2.43.0 (0)
 -->
<!-- Title: util::geometry::Triangle::printStr Pages: 1 -->
<svg width="361pt" height="53pt"
 viewBox="0.00 0.00 361.00 52.50" xmlns="http://www.w3.org/2000/svg" xmlns:xlink="http://www.w3.org/1999/xlink">
<g id="graph0" class="graph" transform="scale(1 1) rotate(0) translate(4 48.5)">
<title>util::geometry::Triangle::printStr</title>
<!-- Node1 -->
<g id="node1" class="node">
<title>Node1</title>
<g id="a_node1"><a xlink:title="Prints the information.">
<polygon fill="#bfbfbf" stroke="black" points="0,-14 0,-44 116,-44 116,-14 0,-14"/>
<text text-anchor="start" x="8" y="-32" font-family="Arial" font-size="10.00">util::geometry::Triangle</text>
<text text-anchor="middle" x="58" y="-21" font-family="Arial" font-size="10.00">::printStr</text>
</a>
</g>
</g>
<!-- Node2 -->
<g id="node2" class="node">
<title>Node2</title>
<g id="a_node2"><a xlink:href="namespaceutil_1_1io.html#a38afb09a152cca4061850f4123bd3aeb" target="_top" xlink:title="Returns tab spaces of given size.">
<polygon fill="none" stroke="black" points="268,-19.5 268,-38.5 353,-38.5 353,-19.5 268,-19.5"/>
<text text-anchor="middle" x="310.5" y="-26.5" font-family="Arial" font-size="10.00">util::io::getTabS</text>
</a>
</g>
</g>
<!-- Node1&#45;&gt;Node2 -->
<g id="edge1" class="edge">
<title>Node1&#45;&gt;Node2</title>
<path fill="none" stroke="midnightblue" d="M116.16,-29C158.75,-29 216.45,-29 257.7,-29"/>
<polygon fill="midnightblue" stroke="midnightblue" points="257.82,-32.5 267.82,-29 257.82,-25.5 257.82,-32.5"/>
</g>
<!-- Node3 -->
<g id="node3" class="node">
<title>Node3</title>
<g id="a_node3"><a xlink:href="namespaceutil_1_1io.html#a3e537e3bd778616255015cde6e60a30a" target="_top" xlink:title="Returns formatted string for output.">
<polygon fill="none" stroke="black" points="152,-0.5 152,-19.5 232,-19.5 232,-0.5 152,-0.5"/>
<text text-anchor="middle" x="192" y="-7.5" font-family="Arial" font-size="10.00">util::io::printStr</text>
</a>
</g>
</g>
<!-- Node1&#45;&gt;Node3 -->
<g id="edge2" class="edge">
<title>Node1&#45;&gt;Node3</title>
<path fill="none" stroke="midnightblue" d="M116.13,-20.78C124.65,-19.55 133.37,-18.3 141.71,-17.09"/>
<polygon fill="midnightblue" stroke="midnightblue" points="142.26,-20.55 151.66,-15.66 141.26,-13.62 142.26,-20.55"/>
</g>
<!-- Node3&#45;&gt;Node2 -->
<g id="edge3" class="edge">
<title>Node3&#45;&gt;Node2</title>
<path fill="none" stroke="midnightblue" d="M232.12,-16.38C240.38,-17.73 249.23,-19.17 257.88,-20.58"/>
<polygon fill="midnightblue" stroke="midnightblue" points="257.46,-24.06 267.89,-22.21 258.59,-17.15 257.46,-24.06"/>
</g>
</g>
</svg>
