<?xml version="1.0" encoding="UTF-8" standalone="no"?>
<!DOCTYPE svg PUBLIC "-//W3C//DTD SVG 1.1//EN"
 "http://www.w3.org/Graphics/SVG/1.1/DTD/svg11.dtd">
<!-- Generated by graphviz version 2.43.0 (0)
 -->
<!-- Title: nsearch::TreeSearchCheckIDExcludeResult::clear Pages: 1 -->
<svg width="528pt" height="50pt"
 viewBox="0.00 0.00 528.00 50.00" xmlns="http://www.w3.org/2000/svg" xmlns:xlink="http://www.w3.org/1999/xlink">
<g id="graph0" class="graph" transform="scale(1 1) rotate(0) translate(4 46)">
<title>nsearch::TreeSearchCheckIDExcludeResult::clear</title>
<!-- Node1 -->
<g id="node1" class="node">
<title>Node1</title>
<g id="a_node1"><a xlink:title="Clear the data.">
<polygon fill="#bfbfbf" stroke="black" points="384,-6 384,-36 520,-36 520,-6 384,-6"/>
<text text-anchor="start" x="392" y="-24" font-family="Arial" font-size="10.00">nsearch::TreeSearchCheck</text>
<text text-anchor="middle" x="452" y="-13" font-family="Arial" font-size="10.00">IDExcludeResult::clear</text>
</a>
</g>
</g>
<!-- Node2 -->
<g id="node2" class="node">
<title>Node2</title>
<g id="a_node2"><a xlink:href="classnsearch_1_1TreeSearchCheckIDExcludeResult.html#a2c87d98cf1a24210b36361fb440a24a1" target="_top" xlink:title="Initialize the data (clear)">
<polygon fill="none" stroke="black" points="212,-6 212,-36 348,-36 348,-6 212,-6"/>
<text text-anchor="start" x="220" y="-24" font-family="Arial" font-size="10.00">nsearch::TreeSearchCheck</text>
<text text-anchor="middle" x="280" y="-13" font-family="Arial" font-size="10.00">IDExcludeResult::init</text>
</a>
</g>
</g>
<!-- Node1&#45;&gt;Node2 -->
<g id="edge1" class="edge">
<title>Node1&#45;&gt;Node2</title>
<path fill="none" stroke="midnightblue" d="M373.58,-21C365.12,-21 356.57,-21 348.26,-21"/>
<polygon fill="midnightblue" stroke="midnightblue" points="373.81,-24.5 383.81,-21 373.81,-17.5 373.81,-24.5"/>
</g>
<!-- Node3 -->
<g id="node3" class="node">
<title>Node3</title>
<g id="a_node3"><a xlink:href="classnsearch_1_1TreeSearchCheckIDExcludeResult.html#a9dd8a99777f0ee69fc5aafb5f8a20bf3" target="_top" xlink:title="Constructor.">
<polygon fill="none" stroke="black" points="0,-0.5 0,-41.5 176,-41.5 176,-0.5 0,-0.5"/>
<text text-anchor="start" x="8" y="-29.5" font-family="Arial" font-size="10.00">nsearch::TreeSearchCheck</text>
<text text-anchor="start" x="8" y="-18.5" font-family="Arial" font-size="10.00">IDExcludeResult::TreeSearchCheck</text>
<text text-anchor="middle" x="88" y="-7.5" font-family="Arial" font-size="10.00">IDExcludeResult</text>
</a>
</g>
</g>
<!-- Node2&#45;&gt;Node3 -->
<g id="edge2" class="edge">
<title>Node2&#45;&gt;Node3</title>
<path fill="none" stroke="midnightblue" d="M201.62,-21C193.22,-21 184.63,-21 176.13,-21"/>
<polygon fill="midnightblue" stroke="midnightblue" points="201.75,-24.5 211.75,-21 201.75,-17.5 201.75,-24.5"/>
</g>
</g>
</svg>
