<?xml version="1.0" encoding="UTF-8" standalone="no"?>
<!DOCTYPE svg PUBLIC "-//W3C//DTD SVG 1.1//EN"
 "http://www.w3.org/Graphics/SVG/1.1/DTD/svg11.dtd">
<!-- Generated by graphviz version 2.43.0 (0)
 -->
<!-- Title: geom::Ellipsoid::isInside Pages: 1 -->
<svg width="511pt" height="175pt"
 viewBox="0.00 0.00 511.00 175.00" xmlns="http://www.w3.org/2000/svg" xmlns:xlink="http://www.w3.org/1999/xlink">
<g id="graph0" class="graph" transform="scale(1 1) rotate(0) translate(4 171)">
<title>geom::Ellipsoid::isInside</title>
<!-- Node1 -->
<g id="Node000001" class="node">
<title>Node1</title>
<g id="a_Node000001"><a xlink:title="Checks if point is inside this object.">
<polygon fill="#999999" stroke="#666666" points="503,-93 380,-93 380,-74 503,-74 503,-93"/>
<text text-anchor="middle" x="441.5" y="-81" font-family="Arial" font-size="10.00">geom::Ellipsoid::isInside</text>
</a>
</g>
</g>
<!-- Node2 -->
<g id="Node000002" class="node">
<title>Node2</title>
<g id="a_Node000002"><a xlink:href="classgeom_1_1Ellipsoid.html#aafa32d204edf1440ee8c274f3edc7174" target="_top" xlink:title="Checks if box intersects this object.">
<polygon fill="white" stroke="#666666" points="339,-167 190,-167 190,-148 339,-148 339,-167"/>
<text text-anchor="middle" x="264.5" y="-155" font-family="Arial" font-size="10.00">geom::Ellipsoid::doesIntersect</text>
</a>
</g>
</g>
<!-- Node1&#45;&gt;Node2 -->
<g id="edge1_Node000001_Node000002" class="edge">
<title>Node1&#45;&gt;Node2</title>
<g id="a_edge1_Node000001_Node000002"><a xlink:title=" ">
<path fill="none" stroke="#63b8ff" d="M418.62,-98.77C399.66,-111.36 371.1,-128.81 344,-139.5 335.55,-142.83 326.32,-145.64 317.27,-147.96"/>
<polygon fill="#63b8ff" stroke="#63b8ff" points="420.78,-101.54 427.1,-93.04 416.86,-95.74 420.78,-101.54"/>
</a>
</g>
</g>
<!-- Node3 -->
<g id="Node000003" class="node">
<title>Node3</title>
<g id="a_Node000003"><a xlink:href="classgeom_1_1Ellipsoid.html#aa84a08c41ad74576d264b1df7c303f77" target="_top" xlink:title="Checks if box is completely inside.">
<polygon fill="white" stroke="#666666" points="326,-130 203,-130 203,-111 326,-111 326,-130"/>
<text text-anchor="middle" x="264.5" y="-118" font-family="Arial" font-size="10.00">geom::Ellipsoid::isInside</text>
</a>
</g>
</g>
<!-- Node1&#45;&gt;Node3 -->
<g id="edge2_Node000001_Node000003" class="edge">
<title>Node1&#45;&gt;Node3</title>
<g id="a_edge2_Node000001_Node000003"><a xlink:title=" ">
<path fill="none" stroke="#63b8ff" d="M385.39,-95.15C361.35,-100.23 333.51,-106.12 310.72,-110.94"/>
<polygon fill="#63b8ff" stroke="#63b8ff" points="386.37,-98.52 395.43,-93.03 384.93,-91.67 386.37,-98.52"/>
</a>
</g>
</g>
<!-- Node4 -->
<g id="Node000004" class="node">
<title>Node4</title>
<g id="a_Node000004"><a xlink:href="classgeom_1_1Ellipsoid.html#a94da84b3f980c62011a48c316d414d93" target="_top" xlink:title="Checks if point is within given distance of this object.">
<polygon fill="white" stroke="#666666" points="344,-93 185,-93 185,-74 344,-74 344,-93"/>
<text text-anchor="middle" x="264.5" y="-81" font-family="Arial" font-size="10.00">geom::Ellipsoid::isNearBoundary</text>
</a>
</g>
</g>
<!-- Node1&#45;&gt;Node4 -->
<g id="edge3_Node000001_Node000004" class="edge">
<title>Node1&#45;&gt;Node4</title>
<g id="a_edge3_Node000001_Node000004"><a xlink:title=" ">
<path fill="none" stroke="#63b8ff" d="M369.71,-83.5C361.34,-83.5 352.76,-83.5 344.29,-83.5"/>
<polygon fill="#63b8ff" stroke="#63b8ff" points="369.78,-87 379.78,-83.5 369.78,-80 369.78,-87"/>
</a>
</g>
</g>
<!-- Node6 -->
<g id="Node000006" class="node">
<title>Node6</title>
<g id="a_Node000006"><a xlink:href="classgeom_1_1Ellipsoid.html#a47df33c2c0ad13b0831fe258c67e47db" target="_top" xlink:title="Checks if box is outside of the object.">
<polygon fill="white" stroke="#666666" points="330,-56 199,-56 199,-37 330,-37 330,-56"/>
<text text-anchor="middle" x="264.5" y="-44" font-family="Arial" font-size="10.00">geom::Ellipsoid::isOutside</text>
</a>
</g>
</g>
<!-- Node1&#45;&gt;Node6 -->
<g id="edge5_Node000001_Node000006" class="edge">
<title>Node1&#45;&gt;Node6</title>
<g id="a_edge5_Node000001_Node000006"><a xlink:title=" ">
<path fill="none" stroke="#63b8ff" d="M385.39,-71.85C361.35,-66.77 333.51,-60.88 310.72,-56.06"/>
<polygon fill="#63b8ff" stroke="#63b8ff" points="384.93,-75.33 395.43,-73.97 386.37,-68.48 384.93,-75.33"/>
</a>
</g>
</g>
<!-- Node7 -->
<g id="Node000007" class="node">
<title>Node7</title>
<g id="a_Node000007"><a xlink:href="classgeom_1_1Ellipsoid.html#a73885e0778eb53106e2dcc6aec6596fa" target="_top" xlink:title="Checks if point is outside of this object.">
<polygon fill="white" stroke="#666666" points="330,-19 199,-19 199,0 330,0 330,-19"/>
<text text-anchor="middle" x="264.5" y="-7" font-family="Arial" font-size="10.00">geom::Ellipsoid::isOutside</text>
</a>
</g>
</g>
<!-- Node1&#45;&gt;Node7 -->
<g id="edge6_Node000001_Node000007" class="edge">
<title>Node1&#45;&gt;Node7</title>
<g id="a_edge6_Node000001_Node000007"><a xlink:title=" ">
<path fill="none" stroke="#63b8ff" d="M418.22,-68.39C399.22,-56.11 370.8,-39.14 344,-28.5 334.62,-24.78 324.3,-21.64 314.32,-19.07"/>
<polygon fill="#63b8ff" stroke="#63b8ff" points="416.46,-71.43 426.74,-74 420.31,-65.58 416.46,-71.43"/>
</a>
</g>
</g>
<!-- Node5 -->
<g id="Node000005" class="node">
<title>Node5</title>
<g id="a_Node000005"><a xlink:href="classgeom_1_1Ellipsoid.html#a24250468b0152acf481b1ce94a642205" target="_top" xlink:title="Checks if point lies exactly on the boundary.">
<polygon fill="white" stroke="#666666" points="149,-93 0,-93 0,-74 149,-74 149,-93"/>
<text text-anchor="middle" x="74.5" y="-81" font-family="Arial" font-size="10.00">geom::Ellipsoid::doesIntersect</text>
</a>
</g>
</g>
<!-- Node4&#45;&gt;Node5 -->
<g id="edge4_Node000004_Node000005" class="edge">
<title>Node4&#45;&gt;Node5</title>
<g id="a_edge4_Node000004_Node000005"><a xlink:title=" ">
<path fill="none" stroke="#63b8ff" d="M174.78,-83.5C166.16,-83.5 157.47,-83.5 149.02,-83.5"/>
<polygon fill="#63b8ff" stroke="#63b8ff" points="174.86,-87 184.86,-83.5 174.86,-80 174.86,-87"/>
</a>
</g>
</g>
</g>
</svg>
