<?xml version="1.0" encoding="UTF-8" standalone="no"?>
<!DOCTYPE svg PUBLIC "-//W3C//DTD SVG 1.1//EN"
 "http://www.w3.org/Graphics/SVG/1.1/DTD/svg11.dtd">
<!-- Generated by graphviz version 2.43.0 (0)
 -->
<!-- Title: nsearch::BaseNSearch Pages: 1 -->
<svg width="142pt" height="192pt"
 viewBox="0.00 0.00 142.00 192.00" xmlns="http://www.w3.org/2000/svg" xmlns:xlink="http://www.w3.org/1999/xlink">
<g id="graph0" class="graph" transform="scale(1 1) rotate(0) translate(4 188)">
<title>nsearch::BaseNSearch</title>
<!-- Node1 -->
<g id="Node000001" class="node">
<title>Node1</title>
<g id="a_Node000001"><a xlink:title="A class for nearest neighbor search.">
<polygon fill="#999999" stroke="transparent" points="134,-184 0,-184 0,0 134,0 134,-184"/>
<text text-anchor="start" x="16" y="-172" font-family="Arial" font-size="10.00">nsearch::BaseNSearch</text>
<text text-anchor="start" x="4" y="-157" font-family="Arial" font-size="10.00">+</text>
<text text-anchor="start" x="15" y="-157" font-family="Arial" font-size="10.00">d_debug</text>
<text text-anchor="start" x="4" y="-142" font-family="Arial" font-size="10.00">+</text>
<text text-anchor="start" x="15" y="-142" font-family="Arial" font-size="10.00">d_treeType</text>
<text text-anchor="start" x="4" y="-127" font-family="Arial" font-size="10.00">+</text>
<text text-anchor="start" x="15" y="-127" font-family="Arial" font-size="10.00">BaseNSearch()</text>
<text text-anchor="start" x="4" y="-112" font-family="Arial" font-size="10.00">+</text>
<text text-anchor="start" x="15" y="-112" font-family="Arial" font-size="10.00">updatePointCloud()</text>
<text text-anchor="start" x="4" y="-97" font-family="Arial" font-size="10.00">+</text>
<text text-anchor="start" x="15" y="-97" font-family="Arial" font-size="10.00">setInputCloud()</text>
<text text-anchor="start" x="4" y="-82" font-family="Arial" font-size="10.00">+</text>
<text text-anchor="start" x="15" y="-82" font-family="Arial" font-size="10.00">radiusSearch()</text>
<text text-anchor="start" x="4" y="-67" font-family="Arial" font-size="10.00">+</text>
<text text-anchor="start" x="15" y="-67" font-family="Arial" font-size="10.00">radiusSearch()</text>
<text text-anchor="start" x="4" y="-52" font-family="Arial" font-size="10.00">+</text>
<text text-anchor="start" x="15" y="-52" font-family="Arial" font-size="10.00">radiusSearchExcludeTag()</text>
<text text-anchor="start" x="4" y="-37" font-family="Arial" font-size="10.00">+</text>
<text text-anchor="start" x="15" y="-37" font-family="Arial" font-size="10.00">radiusSearchExcludeTag()</text>
<text text-anchor="start" x="4" y="-22" font-family="Arial" font-size="10.00">+</text>
<text text-anchor="start" x="15" y="-22" font-family="Arial" font-size="10.00">radiusSearchIncludeTag()</text>
<text text-anchor="start" x="4" y="-7" font-family="Arial" font-size="10.00">+</text>
<text text-anchor="start" x="15" y="-7" font-family="Arial" font-size="10.00">radiusSearchIncludeTag()</text>
<polygon fill="#666666" stroke="#666666" points="0,-167 0,-167 134,-167 134,-167 0,-167"/>
<polygon fill="#666666" stroke="#666666" points="0,-137 0,-137 13,-137 13,-137 0,-137"/>
<polygon fill="#666666" stroke="#666666" points="13,-137 13,-137 134,-137 134,-137 13,-137"/>
<polygon fill="none" stroke="#666666" points="0,0 0,-184 134,-184 134,0 0,0"/>
</a>
</g>
</g>
</g>
</svg>
