<?xml version="1.0" encoding="UTF-8" standalone="no"?>
<!DOCTYPE svg PUBLIC "-//W3C//DTD SVG 1.1//EN"
 "http://www.w3.org/Graphics/SVG/1.1/DTD/svg11.dtd">
<!-- Generated by graphviz version 2.43.0 (0)
 -->
<!-- Title: rw::reader::VtkReader::VtkReader Pages: 1 -->
<svg width="459pt" height="39pt"
 viewBox="0.00 0.00 459.00 39.00" xmlns="http://www.w3.org/2000/svg" xmlns:xlink="http://www.w3.org/1999/xlink">
<g id="graph0" class="graph" transform="scale(1 1) rotate(0) translate(4 35)">
<title>rw::reader::VtkReader::VtkReader</title>
<!-- Node1 -->
<g id="node1" class="node">
<title>Node1</title>
<g id="a_node1"><a xlink:title="Constructor.">
<polygon fill="#bfbfbf" stroke="black" points="0,-0.5 0,-30.5 113,-30.5 113,-0.5 0,-0.5"/>
<text text-anchor="start" x="8" y="-18.5" font-family="Arial" font-size="10.00">rw::reader::VtkReader</text>
<text text-anchor="middle" x="56.5" y="-7.5" font-family="Arial" font-size="10.00">::VtkReader</text>
</a>
</g>
</g>
<!-- Node2 -->
<g id="node2" class="node">
<title>Node2</title>
<g id="a_node2"><a xlink:href="namespaceutil_1_1io.html#a8a38ac2a0437a16aa1c311b6a075dc51" target="_top" xlink:title="Check for extension and if possible create new filename from a given filename and a given extension.">
<polygon fill="none" stroke="black" points="149,-0.5 149,-30.5 271,-30.5 271,-0.5 149,-0.5"/>
<text text-anchor="start" x="157" y="-18.5" font-family="Arial" font-size="10.00">util::io::checkAndCreate</text>
<text text-anchor="middle" x="210" y="-7.5" font-family="Arial" font-size="10.00">NewFilename</text>
</a>
</g>
</g>
<!-- Node1&#45;&gt;Node2 -->
<g id="edge1" class="edge">
<title>Node1&#45;&gt;Node2</title>
<path fill="none" stroke="midnightblue" d="M113.05,-15.5C121.43,-15.5 130.16,-15.5 138.8,-15.5"/>
<polygon fill="midnightblue" stroke="midnightblue" points="138.86,-19 148.86,-15.5 138.86,-12 138.86,-19"/>
</g>
<!-- Node3 -->
<g id="node3" class="node">
<title>Node3</title>
<g id="a_node3"><a xlink:href="namespaceutil_1_1io.html#a6588c46813adf0cb86b795880f1a2ec7" target="_top" xlink:title="Get extension from the filename.">
<polygon fill="none" stroke="black" points="307,-6 307,-25 451,-25 451,-6 307,-6"/>
<text text-anchor="middle" x="379" y="-13" font-family="Arial" font-size="10.00">util::io::getExtensionFromFile</text>
</a>
</g>
</g>
<!-- Node2&#45;&gt;Node3 -->
<g id="edge2" class="edge">
<title>Node2&#45;&gt;Node3</title>
<path fill="none" stroke="midnightblue" d="M271.29,-15.5C279.62,-15.5 288.28,-15.5 296.91,-15.5"/>
<polygon fill="midnightblue" stroke="midnightblue" points="297,-19 307,-15.5 297,-12 297,-19"/>
</g>
</g>
</svg>
