<?xml version="1.0" encoding="UTF-8" standalone="no"?>
<!DOCTYPE svg PUBLIC "-//W3C//DTD SVG 1.1//EN"
 "http://www.w3.org/Graphics/SVG/1.1/DTD/svg11.dtd">
<!-- Generated by graphviz version 2.43.0 (0)
 -->
<!-- Title: inp::Input::setParticleDeck Pages: 1 -->
<svg width="671pt" height="204pt"
 viewBox="0.00 0.00 671.00 203.50" xmlns="http://www.w3.org/2000/svg" xmlns:xlink="http://www.w3.org/1999/xlink">
<g id="graph0" class="graph" transform="scale(1 1) rotate(0) translate(4 199.5)">
<title>inp::Input::setParticleDeck</title>
<!-- Node1 -->
<g id="node1" class="node">
<title>Node1</title>
<g id="a_node1"><a xlink:title="Read data into particle deck and store its pointer.">
<polygon fill="#bfbfbf" stroke="black" points="0,-93.5 0,-112.5 133,-112.5 133,-93.5 0,-93.5"/>
<text text-anchor="middle" x="66.5" y="-100.5" font-family="Arial" font-size="10.00">inp::Input::setParticleDeck</text>
</a>
</g>
</g>
<!-- Node2 -->
<g id="node2" class="node">
<title>Node2</title>
<g id="a_node2"><a xlink:href="namespaceutil_1_1geometry.html#a2f43f1f68c3073656dcb3af84de93192" target="_top" xlink:title="Check parameter data for validity.">
<polygon fill="none" stroke="black" points="340,-165 340,-195 477,-195 477,-165 340,-165"/>
<text text-anchor="start" x="348" y="-183" font-family="Arial" font-size="10.00">util::geometry::checkParam</text>
<text text-anchor="middle" x="408.5" y="-172" font-family="Arial" font-size="10.00">ForGeometry</text>
</a>
</g>
</g>
<!-- Node1&#45;&gt;Node2 -->
<g id="edge1" class="edge">
<title>Node1&#45;&gt;Node2</title>
<path fill="none" stroke="midnightblue" d="M105.04,-112.5C124.16,-117.27 147.79,-123.08 169,-128 222.55,-140.43 283.08,-153.62 329.76,-163.6"/>
<polygon fill="midnightblue" stroke="midnightblue" points="329.29,-167.08 339.8,-165.74 330.75,-160.23 329.29,-167.08"/>
</g>
<!-- Node4 -->
<g id="node4" class="node">
<title>Node4</title>
<g id="a_node4"><a xlink:href="namespaceutil_1_1geometry.html#a2fe7250de366a89b0ed8e09f5a063ad6" target="_top" xlink:title="Create geometrical object from the given data.">
<polygon fill="none" stroke="black" points="169,-88 169,-118 304,-118 304,-88 169,-88"/>
<text text-anchor="start" x="177" y="-106" font-family="Arial" font-size="10.00">util::geometry::createGeom</text>
<text text-anchor="middle" x="236.5" y="-95" font-family="Arial" font-size="10.00">Object</text>
</a>
</g>
</g>
<!-- Node1&#45;&gt;Node4 -->
<g id="edge3" class="edge">
<title>Node1&#45;&gt;Node4</title>
<path fill="none" stroke="midnightblue" d="M133.42,-103C141.72,-103 150.26,-103 158.71,-103"/>
<polygon fill="midnightblue" stroke="midnightblue" points="158.95,-106.5 168.95,-103 158.95,-99.5 158.95,-106.5"/>
</g>
<!-- Node9 -->
<g id="node9" class="node">
<title>Node9</title>
<g id="a_node9"><a xlink:href="namespaceutil.html#a227b5f8acbd7a403a033663c8893d631" target="_top" xlink:title="Returns true if a &gt; b.">
<polygon fill="none" stroke="black" points="199,-49.5 199,-68.5 274,-68.5 274,-49.5 199,-49.5"/>
<text text-anchor="middle" x="236.5" y="-56.5" font-family="Arial" font-size="10.00">util::isGreater</text>
</a>
</g>
</g>
<!-- Node1&#45;&gt;Node9 -->
<g id="edge11" class="edge">
<title>Node1&#45;&gt;Node9</title>
<path fill="none" stroke="midnightblue" d="M103.95,-93.45C128.94,-86.91 162.3,-78.17 189.17,-71.13"/>
<polygon fill="midnightblue" stroke="midnightblue" points="190.33,-74.45 199.12,-68.53 188.56,-67.68 190.33,-74.45"/>
</g>
<!-- Node3 -->
<g id="node3" class="node">
<title>Node3</title>
<g id="a_node3"><a xlink:href="namespaceutil_1_1geometry.html#a423eb6ea7aec79183939c81e522057ca" target="_top" xlink:title="Get num params required for creation of object.">
<polygon fill="none" stroke="black" points="513,-121 513,-151 663,-151 663,-121 513,-121"/>
<text text-anchor="start" x="521" y="-139" font-family="Arial" font-size="10.00">util::geometry::getNumParams</text>
<text text-anchor="middle" x="588" y="-128" font-family="Arial" font-size="10.00">NRequired</text>
</a>
</g>
</g>
<!-- Node2&#45;&gt;Node3 -->
<g id="edge2" class="edge">
<title>Node2&#45;&gt;Node3</title>
<path fill="none" stroke="midnightblue" d="M470.09,-164.98C485,-161.28 501.1,-157.29 516.43,-153.49"/>
<polygon fill="midnightblue" stroke="midnightblue" points="517.52,-156.83 526.38,-151.03 515.83,-150.04 517.52,-156.83"/>
</g>
<!-- Node4&#45;&gt;Node2 -->
<g id="edge6" class="edge">
<title>Node4&#45;&gt;Node2</title>
<path fill="none" stroke="midnightblue" d="M270.23,-118.13C290.33,-127.39 316.63,-139.45 340,-150 347.81,-153.53 356.15,-157.26 364.2,-160.85"/>
<polygon fill="midnightblue" stroke="midnightblue" points="362.91,-164.1 373.47,-164.97 365.76,-157.71 362.91,-164.1"/>
</g>
<!-- Node4&#45;&gt;Node3 -->
<g id="edge7" class="edge">
<title>Node4&#45;&gt;Node3</title>
<path fill="none" stroke="midnightblue" d="M304.15,-112.68C316.07,-114.25 328.39,-115.76 340,-117 394.1,-122.77 455.05,-127.48 502.86,-130.76"/>
<polygon fill="midnightblue" stroke="midnightblue" points="502.64,-134.26 512.86,-131.44 503.12,-127.27 502.64,-134.26"/>
</g>
<!-- Node5 -->
<g id="node5" class="node">
<title>Node5</title>
<g id="a_node5"><a xlink:href="namespaceutil_1_1geometry.html#aa14cdef2f73ea184ca66f88de5d079dd" target="_top" xlink:title="Check parameter data for validity.">
<polygon fill="none" stroke="black" points="340,-77 340,-107 477,-107 477,-77 340,-77"/>
<text text-anchor="start" x="348" y="-95" font-family="Arial" font-size="10.00">util::geometry::checkParam</text>
<text text-anchor="middle" x="408.5" y="-84" font-family="Arial" font-size="10.00">ForComplexGeometry</text>
</a>
</g>
</g>
<!-- Node4&#45;&gt;Node5 -->
<g id="edge4" class="edge">
<title>Node4&#45;&gt;Node5</title>
<path fill="none" stroke="midnightblue" d="M304.2,-98.68C312.62,-98.14 321.3,-97.58 329.88,-97.02"/>
<polygon fill="midnightblue" stroke="midnightblue" points="330.12,-100.51 339.87,-96.38 329.67,-93.53 330.12,-100.51"/>
</g>
<!-- Node6 -->
<g id="node6" class="node">
<title>Node6</title>
<g id="a_node6"><a xlink:href="namespaceutil_1_1methods.html#ab21bec324f7d53e91378acc142303fb3" target="_top" xlink:title="Returns true if tag is found in the list of tags.">
<polygon fill="none" stroke="black" points="345.5,-38.5 345.5,-57.5 471.5,-57.5 471.5,-38.5 345.5,-38.5"/>
<text text-anchor="middle" x="408.5" y="-45.5" font-family="Arial" font-size="10.00">util::methods::isTagInList</text>
</a>
</g>
</g>
<!-- Node4&#45;&gt;Node6 -->
<g id="edge8" class="edge">
<title>Node4&#45;&gt;Node6</title>
<path fill="none" stroke="midnightblue" d="M280.26,-87.96C298.6,-81.63 320.29,-74.28 340,-68 347.87,-65.49 356.28,-62.92 364.4,-60.48"/>
<polygon fill="midnightblue" stroke="midnightblue" points="365.53,-63.8 374.11,-57.6 363.53,-57.09 365.53,-63.8"/>
</g>
<!-- Node7 -->
<g id="node7" class="node">
<title>Node7</title>
<g id="a_node7"><a xlink:href="namespaceutil_1_1io.html#a3e537e3bd778616255015cde6e60a30a" target="_top" xlink:title="Returns formatted string for output.">
<polygon fill="none" stroke="black" points="368.5,-0.5 368.5,-19.5 448.5,-19.5 448.5,-0.5 368.5,-0.5"/>
<text text-anchor="middle" x="408.5" y="-7.5" font-family="Arial" font-size="10.00">util::io::printStr</text>
</a>
</g>
</g>
<!-- Node4&#45;&gt;Node7 -->
<g id="edge9" class="edge">
<title>Node4&#45;&gt;Node7</title>
<path fill="none" stroke="midnightblue" d="M287.49,-87.89C293.33,-85.08 298.99,-81.8 304,-78 325.54,-61.68 317.78,-44.39 340,-29 345.65,-25.09 352.09,-21.98 358.69,-19.5"/>
<polygon fill="midnightblue" stroke="midnightblue" points="360,-22.76 368.42,-16.32 357.83,-16.11 360,-22.76"/>
</g>
<!-- Node5&#45;&gt;Node3 -->
<g id="edge5" class="edge">
<title>Node5&#45;&gt;Node3</title>
<path fill="none" stroke="midnightblue" d="M470.09,-107.02C485,-110.72 501.1,-114.71 516.43,-118.51"/>
<polygon fill="midnightblue" stroke="midnightblue" points="515.83,-121.96 526.38,-120.97 517.52,-115.17 515.83,-121.96"/>
</g>
<!-- Node8 -->
<g id="node8" class="node">
<title>Node8</title>
<g id="a_node8"><a xlink:href="namespaceutil_1_1io.html#a38afb09a152cca4061850f4123bd3aeb" target="_top" xlink:title="Returns tab spaces of given size.">
<polygon fill="none" stroke="black" points="545.5,-0.5 545.5,-19.5 630.5,-19.5 630.5,-0.5 545.5,-0.5"/>
<text text-anchor="middle" x="588" y="-7.5" font-family="Arial" font-size="10.00">util::io::getTabS</text>
</a>
</g>
</g>
<!-- Node7&#45;&gt;Node8 -->
<g id="edge10" class="edge">
<title>Node7&#45;&gt;Node8</title>
<path fill="none" stroke="midnightblue" d="M448.89,-10C474.25,-10 507.49,-10 535.01,-10"/>
<polygon fill="midnightblue" stroke="midnightblue" points="535.24,-13.5 545.24,-10 535.24,-6.5 535.24,-13.5"/>
</g>
</g>
</svg>
