<?xml version="1.0" encoding="UTF-8" standalone="no"?>
<!DOCTYPE svg PUBLIC "-//W3C//DTD SVG 1.1//EN"
 "http://www.w3.org/Graphics/SVG/1.1/DTD/svg11.dtd">
<!-- Generated by graphviz version 2.43.0 (0)
 -->
<!-- Title: fe::Mesh::createData Pages: 1 -->
<svg width="445pt" height="294pt"
 viewBox="0.00 0.00 445.00 294.00" xmlns="http://www.w3.org/2000/svg" xmlns:xlink="http://www.w3.org/1999/xlink">
<g id="graph0" class="graph" transform="scale(1 1) rotate(0) translate(4 290)">
<title>fe::Mesh::createData</title>
<!-- Node1 -->
<g id="node1" class="node">
<title>Node1</title>
<g id="a_node1"><a xlink:title="Reads mesh data from the file and populates other data.">
<polygon fill="#bfbfbf" stroke="black" points="0,-133.5 0,-152.5 109,-152.5 109,-133.5 0,-133.5"/>
<text text-anchor="middle" x="54.5" y="-140.5" font-family="Arial" font-size="10.00">fe::Mesh::createData</text>
</a>
</g>
</g>
<!-- Node2 -->
<g id="node2" class="node">
<title>Node2</title>
<g id="a_node2"><a xlink:href="namespaceutil.html#a8b3bba88e640f24c17ea3ecf5bf948f9" target="_top" xlink:title="Computes bounding box for vector nodes.">
<polygon fill="none" stroke="black" points="176,-266.5 176,-285.5 273,-285.5 273,-266.5 176,-266.5"/>
<text text-anchor="middle" x="224.5" y="-273.5" font-family="Arial" font-size="10.00">util::computeBBox</text>
</a>
</g>
</g>
<!-- Node1&#45;&gt;Node2 -->
<g id="edge1" class="edge">
<title>Node1&#45;&gt;Node2</title>
<path fill="none" stroke="midnightblue" d="M60.23,-152.74C71.55,-174.97 102.46,-229.65 145,-257 151.33,-261.07 158.44,-264.26 165.75,-266.78"/>
<polygon fill="midnightblue" stroke="midnightblue" points="165.18,-270.26 175.77,-269.79 167.2,-263.56 165.18,-270.26"/>
</g>
<!-- Node4 -->
<g id="node4" class="node">
<title>Node4</title>
<g id="a_node4"><a xlink:href="namespaceutil.html#a1129434cfbf314a6ebc498d8dfaade19" target="_top" xlink:title="Computes minimum distance between any two nodes.">
<polygon fill="none" stroke="black" points="166.5,-228.5 166.5,-247.5 282.5,-247.5 282.5,-228.5 166.5,-228.5"/>
<text text-anchor="middle" x="224.5" y="-235.5" font-family="Arial" font-size="10.00">util::computeMeshSize</text>
</a>
</g>
</g>
<!-- Node1&#45;&gt;Node4 -->
<g id="edge3" class="edge">
<title>Node1&#45;&gt;Node4</title>
<path fill="none" stroke="midnightblue" d="M63.86,-152.56C78.59,-168.78 110.85,-201.62 145,-219 149.65,-221.36 154.6,-223.44 159.67,-225.27"/>
<polygon fill="midnightblue" stroke="midnightblue" points="158.92,-228.71 169.52,-228.47 161.09,-222.05 158.92,-228.71"/>
</g>
<!-- Node5 -->
<g id="node5" class="node">
<title>Node5</title>
<g id="a_node5"><a xlink:href="namespaceutil_1_1io.html#acc310b3994931fe61f43d5a5152aebc1" target="_top" xlink:title="Global method to log the message.">
<polygon fill="none" stroke="black" points="193.5,-190.5 193.5,-209.5 255.5,-209.5 255.5,-190.5 193.5,-190.5"/>
<text text-anchor="middle" x="224.5" y="-197.5" font-family="Arial" font-size="10.00">util::io::log</text>
</a>
</g>
</g>
<!-- Node1&#45;&gt;Node5 -->
<g id="edge5" class="edge">
<title>Node1&#45;&gt;Node5</title>
<path fill="none" stroke="midnightblue" d="M75.4,-152.56C93.3,-160.9 120.48,-172.89 145,-181 157.27,-185.06 170.89,-188.66 183.28,-191.6"/>
<polygon fill="midnightblue" stroke="midnightblue" points="182.82,-195.09 193.35,-193.92 184.39,-188.27 182.82,-195.09"/>
</g>
<!-- Node7 -->
<g id="node7" class="node">
<title>Node7</title>
<g id="a_node7"><a xlink:href="namespacerw_1_1reader.html#af910f64dc70aa3d0a3af0f9bb370f8cc" target="_top" xlink:title="Reads mesh data into node file and element file.">
<polygon fill="none" stroke="black" points="165,-152.5 165,-171.5 284,-171.5 284,-152.5 165,-152.5"/>
<text text-anchor="middle" x="224.5" y="-159.5" font-family="Arial" font-size="10.00">rw::reader::readCsvFile</text>
</a>
</g>
</g>
<!-- Node1&#45;&gt;Node7 -->
<g id="edge7" class="edge">
<title>Node1&#45;&gt;Node7</title>
<path fill="none" stroke="midnightblue" d="M109.12,-149.06C123.55,-150.7 139.37,-152.49 154.51,-154.2"/>
<polygon fill="midnightblue" stroke="midnightblue" points="154.54,-157.72 164.87,-155.37 155.32,-150.77 154.54,-157.72"/>
</g>
<!-- Node8 -->
<g id="node8" class="node">
<title>Node8</title>
<g id="a_node8"><a xlink:href="namespacerw_1_1reader.html#a6af50efb480753054bbf6208921733bd" target="_top" xlink:title="Reads mesh data into node file and element file.">
<polygon fill="none" stroke="black" points="165,-114.5 165,-133.5 284,-133.5 284,-114.5 165,-114.5"/>
<text text-anchor="middle" x="224.5" y="-121.5" font-family="Arial" font-size="10.00">rw::reader::readMshFile</text>
</a>
</g>
</g>
<!-- Node1&#45;&gt;Node8 -->
<g id="edge8" class="edge">
<title>Node1&#45;&gt;Node8</title>
<path fill="none" stroke="midnightblue" d="M109.12,-136.94C123.55,-135.3 139.37,-133.51 154.51,-131.8"/>
<polygon fill="midnightblue" stroke="midnightblue" points="155.32,-135.23 164.87,-130.63 154.54,-128.28 155.32,-135.23"/>
</g>
<!-- Node9 -->
<g id="node9" class="node">
<title>Node9</title>
<g id="a_node9"><a xlink:href="namespacerw_1_1reader.html#a79098cecf3c77855498e8322ec1bf3a8" target="_top" xlink:title="Reads cell data, i.e. element&#45;node connectivity and node&#45;element connectivity.">
<polygon fill="none" stroke="black" points="155.5,-76.5 155.5,-95.5 293.5,-95.5 293.5,-76.5 155.5,-76.5"/>
<text text-anchor="middle" x="224.5" y="-83.5" font-family="Arial" font-size="10.00">rw::reader::readVtuFileCells</text>
</a>
</g>
</g>
<!-- Node1&#45;&gt;Node9 -->
<g id="edge9" class="edge">
<title>Node1&#45;&gt;Node9</title>
<path fill="none" stroke="midnightblue" d="M75.4,-133.44C93.3,-125.1 120.48,-113.11 145,-105 152.49,-102.52 160.48,-100.22 168.38,-98.13"/>
<polygon fill="midnightblue" stroke="midnightblue" points="169.48,-101.46 178.31,-95.6 167.75,-94.67 169.48,-101.46"/>
</g>
<!-- Node10 -->
<g id="node10" class="node">
<title>Node10</title>
<g id="a_node10"><a xlink:href="namespacerw_1_1reader.html#ae9f76b31b63ab4f82fe853a0e158c32f" target="_top" xlink:title="Reads nodal coordinates.">
<polygon fill="none" stroke="black" points="152.5,-38.5 152.5,-57.5 296.5,-57.5 296.5,-38.5 152.5,-38.5"/>
<text text-anchor="middle" x="224.5" y="-45.5" font-family="Arial" font-size="10.00">rw::reader::readVtuFileNodes</text>
</a>
</g>
</g>
<!-- Node1&#45;&gt;Node10 -->
<g id="edge10" class="edge">
<title>Node1&#45;&gt;Node10</title>
<path fill="none" stroke="midnightblue" d="M63.86,-133.44C78.59,-117.22 110.85,-84.38 145,-67 149.65,-64.64 154.6,-62.56 159.67,-60.73"/>
<polygon fill="midnightblue" stroke="midnightblue" points="161.09,-63.95 169.52,-57.53 158.92,-57.29 161.09,-63.95"/>
</g>
<!-- Node11 -->
<g id="node11" class="node">
<title>Node11</title>
<g id="a_node11"><a xlink:href="namespacerw_1_1reader.html#ae911e20d8494352c2de082b59dc88f11" target="_top" xlink:title="Reads data of specified tag from the vtu file.">
<polygon fill="none" stroke="black" points="145,-0.5 145,-19.5 304,-19.5 304,-0.5 145,-0.5"/>
<text text-anchor="middle" x="224.5" y="-7.5" font-family="Arial" font-size="10.00">rw::reader::readVtuFilePointData</text>
</a>
</g>
</g>
<!-- Node1&#45;&gt;Node11 -->
<g id="edge11" class="edge">
<title>Node1&#45;&gt;Node11</title>
<path fill="none" stroke="midnightblue" d="M60.23,-133.26C71.55,-111.03 102.46,-56.35 145,-29 148.2,-26.95 151.59,-25.11 155.12,-23.48"/>
<polygon fill="midnightblue" stroke="midnightblue" points="156.73,-26.6 164.68,-19.6 154.1,-20.12 156.73,-26.6"/>
</g>
<!-- Node3 -->
<g id="node3" class="node">
<title>Node3</title>
<g id="a_node3"><a xlink:href="namespaceutil.html#a868a26599b6b844d08d30063ac898319" target="_top" xlink:title="Returns true if a &lt; b.">
<polygon fill="none" stroke="black" points="356.5,-247.5 356.5,-266.5 420.5,-266.5 420.5,-247.5 356.5,-247.5"/>
<text text-anchor="middle" x="388.5" y="-254.5" font-family="Arial" font-size="10.00">util::isLess</text>
</a>
</g>
</g>
<!-- Node2&#45;&gt;Node3 -->
<g id="edge2" class="edge">
<title>Node2&#45;&gt;Node3</title>
<path fill="none" stroke="midnightblue" d="M273.23,-270.4C296.43,-267.68 324.05,-264.44 346.32,-261.83"/>
<polygon fill="midnightblue" stroke="midnightblue" points="346.93,-265.28 356.46,-260.64 346.12,-258.33 346.93,-265.28"/>
</g>
<!-- Node4&#45;&gt;Node3 -->
<g id="edge4" class="edge">
<title>Node4&#45;&gt;Node3</title>
<path fill="none" stroke="midnightblue" d="M282.62,-244.7C303.62,-247.16 326.97,-249.9 346.31,-252.17"/>
<polygon fill="midnightblue" stroke="midnightblue" points="345.96,-255.65 356.3,-253.34 346.78,-248.7 345.96,-255.65"/>
</g>
<!-- Node6 -->
<g id="node6" class="node">
<title>Node6</title>
<g id="a_node6"><a xlink:href="classutil_1_1io_1_1Logger.html#a5d4600ff2841534892839c72a7f04547" target="_top" xlink:title="Log the message.">
<polygon fill="none" stroke="black" points="340,-190.5 340,-209.5 437,-209.5 437,-190.5 340,-190.5"/>
<text text-anchor="middle" x="388.5" y="-197.5" font-family="Arial" font-size="10.00">util::io::Logger::log</text>
</a>
</g>
</g>
<!-- Node5&#45;&gt;Node6 -->
<g id="edge6" class="edge">
<title>Node5&#45;&gt;Node6</title>
<path fill="none" stroke="midnightblue" d="M255.59,-200C276.34,-200 304.58,-200 329.61,-200"/>
<polygon fill="midnightblue" stroke="midnightblue" points="329.75,-203.5 339.75,-200 329.75,-196.5 329.75,-203.5"/>
</g>
</g>
</svg>
