<?xml version="1.0" encoding="UTF-8" standalone="no"?>
<!DOCTYPE svg PUBLIC "-//W3C//DTD SVG 1.1//EN"
 "http://www.w3.org/Graphics/SVG/1.1/DTD/svg11.dtd">
<!-- Generated by graphviz version 2.43.0 (0)
 -->
<!-- Title: twoparticle_demo::Model::twoParticleTestPenetrationDist Pages: 1 -->
<svg width="549pt" height="101pt"
 viewBox="0.00 0.00 549.00 101.00" xmlns="http://www.w3.org/2000/svg" xmlns:xlink="http://www.w3.org/1999/xlink">
<g id="graph0" class="graph" transform="scale(1 1) rotate(0) translate(4 97)">
<title>twoparticle_demo::Model::twoParticleTestPenetrationDist</title>
<!-- Node1 -->
<g id="Node000001" class="node">
<title>Node1</title>
<g id="a_Node000001"><a xlink:title="Computes penetration distance of top particle into bottom particle.">
<polygon fill="#999999" stroke="#666666" points="158,-61.5 0,-61.5 0,-31.5 158,-31.5 158,-61.5"/>
<text text-anchor="start" x="8" y="-49.5" font-family="Arial" font-size="10.00">twoparticle_demo::Model</text>
<text text-anchor="middle" x="79" y="-38.5" font-family="Arial" font-size="10.00">::twoParticleTestPenetrationDist</text>
</a>
</g>
</g>
<!-- Node2 -->
<g id="Node000002" class="node">
<title>Node2</title>
<g id="a_Node000002"><a xlink:href="namespaceutil.html#a227b5f8acbd7a403a033663c8893d631" target="_top" xlink:title="Returns true if a &gt; b.">
<polygon fill="white" stroke="#666666" points="289.5,-93 214.5,-93 214.5,-74 289.5,-74 289.5,-93"/>
<text text-anchor="middle" x="252" y="-81" font-family="Arial" font-size="10.00">util::isGreater</text>
</a>
</g>
</g>
<!-- Node1&#45;&gt;Node2 -->
<g id="edge1_Node000001_Node000002" class="edge">
<title>Node1&#45;&gt;Node2</title>
<g id="a_edge1_Node000001_Node000002"><a xlink:title=" ">
<path fill="none" stroke="#63b8ff" d="M149.55,-61.55C167.93,-65.53 187.33,-69.72 204.18,-73.37"/>
<polygon fill="#63b8ff" stroke="#63b8ff" points="203.8,-76.87 214.32,-75.56 205.28,-70.03 203.8,-76.87"/>
</a>
</g>
</g>
<!-- Node3 -->
<g id="Node000003" class="node">
<title>Node3</title>
<g id="a_Node000003"><a xlink:href="namespaceutil.html#a868a26599b6b844d08d30063ac898319" target="_top" xlink:title="Returns true if a &lt; b.">
<polygon fill="white" stroke="#666666" points="284,-56 220,-56 220,-37 284,-37 284,-56"/>
<text text-anchor="middle" x="252" y="-44" font-family="Arial" font-size="10.00">util::isLess</text>
</a>
</g>
</g>
<!-- Node1&#45;&gt;Node3 -->
<g id="edge2_Node000001_Node000003" class="edge">
<title>Node1&#45;&gt;Node3</title>
<g id="a_edge2_Node000001_Node000003"><a xlink:title=" ">
<path fill="none" stroke="#63b8ff" d="M158.49,-46.5C176.18,-46.5 194.28,-46.5 209.72,-46.5"/>
<polygon fill="#63b8ff" stroke="#63b8ff" points="209.95,-50 219.95,-46.5 209.95,-43 209.95,-50"/>
</a>
</g>
</g>
<!-- Node4 -->
<g id="Node000004" class="node">
<title>Node4</title>
<g id="a_Node000004"><a xlink:href="classmodel_1_1DEMModel.html#a835b225f685b6be572c745809ecd506c" target="_top" xlink:title="Prints message if any of these two conditions are true.">
<polygon fill="white" stroke="#666666" points="310,-19 194,-19 194,0 310,0 310,-19"/>
<text text-anchor="middle" x="252" y="-7" font-family="Arial" font-size="10.00">model::DEMModel::log</text>
</a>
</g>
</g>
<!-- Node1&#45;&gt;Node4 -->
<g id="edge3_Node000001_Node000004" class="edge">
<title>Node1&#45;&gt;Node4</title>
<g id="a_edge3_Node000001_Node000004"><a xlink:title=" ">
<path fill="none" stroke="#63b8ff" d="M149.55,-31.45C165.33,-28.04 181.86,-24.46 196.88,-21.21"/>
<polygon fill="#63b8ff" stroke="#63b8ff" points="197.99,-24.55 207.02,-19.02 196.5,-17.71 197.99,-24.55"/>
</a>
</g>
</g>
<!-- Node5 -->
<g id="Node000005" class="node">
<title>Node5</title>
<g id="a_Node000005"><a xlink:href="namespaceutil_1_1io.html#acc310b3994931fe61f43d5a5152aebc1" target="_top" xlink:title="Global method to log the message.">
<polygon fill="white" stroke="#666666" points="408,-19 346,-19 346,0 408,0 408,-19"/>
<text text-anchor="middle" x="377" y="-7" font-family="Arial" font-size="10.00">util::io::log</text>
</a>
</g>
</g>
<!-- Node4&#45;&gt;Node5 -->
<g id="edge4_Node000004_Node000005" class="edge">
<title>Node4&#45;&gt;Node5</title>
<g id="a_edge4_Node000004_Node000005"><a xlink:title=" ">
<path fill="none" stroke="#63b8ff" d="M310.18,-9.5C318.82,-9.5 327.58,-9.5 335.77,-9.5"/>
<polygon fill="#63b8ff" stroke="#63b8ff" points="335.78,-13 345.78,-9.5 335.78,-6 335.78,-13"/>
</a>
</g>
</g>
<!-- Node6 -->
<g id="Node000006" class="node">
<title>Node6</title>
<g id="a_Node000006"><a xlink:href="classutil_1_1io_1_1Logger.html#a5d4600ff2841534892839c72a7f04547" target="_top" xlink:title="Log the message.">
<polygon fill="white" stroke="#666666" points="541,-19 444,-19 444,0 541,0 541,-19"/>
<text text-anchor="middle" x="492.5" y="-7" font-family="Arial" font-size="10.00">util::io::Logger::log</text>
</a>
</g>
</g>
<!-- Node5&#45;&gt;Node6 -->
<g id="edge5_Node000005_Node000006" class="edge">
<title>Node5&#45;&gt;Node6</title>
<g id="a_edge5_Node000005_Node000006"><a xlink:title=" ">
<path fill="none" stroke="#63b8ff" d="M408.12,-9.5C415.95,-9.5 424.67,-9.5 433.42,-9.5"/>
<polygon fill="#63b8ff" stroke="#63b8ff" points="433.67,-13 443.67,-9.5 433.67,-6 433.67,-13"/>
</a>
</g>
</g>
<!-- Node6&#45;&gt;Node6 -->
<g id="edge6_Node000006_Node000006" class="edge">
<title>Node6&#45;&gt;Node6</title>
<g id="a_edge6_Node000006_Node000006"><a xlink:title=" ">
<path fill="none" stroke="#63b8ff" d="M474.93,-19.08C466.38,-27.73 472.24,-37 492.5,-37 505.16,-37 512.2,-33.38 513.61,-28.55"/>
<polygon fill="#63b8ff" stroke="#63b8ff" points="516.85,-27.22 510.07,-19.08 510.29,-29.68 516.85,-27.22"/>
</a>
</g>
</g>
</g>
</svg>
