<?xml version="1.0" encoding="UTF-8" standalone="no"?>
<!DOCTYPE svg PUBLIC "-//W3C//DTD SVG 1.1//EN"
 "http://www.w3.org/Graphics/SVG/1.1/DTD/svg11.dtd">
<!-- Generated by graphviz version 2.43.0 (0)
 -->
<!-- Title: material::LinearInfluenceFn Pages: 1 -->
<svg width="136pt" height="307pt"
 viewBox="0.00 0.00 136.00 307.00" xmlns="http://www.w3.org/2000/svg" xmlns:xlink="http://www.w3.org/1999/xlink">
<g id="graph0" class="graph" transform="scale(1 1) rotate(0) translate(4 303)">
<title>material::LinearInfluenceFn</title>
<!-- Node1 -->
<g id="Node000001" class="node">
<title>Node1</title>
<g id="a_Node000001"><a xlink:title="A class to implement linear influence function.">
<polygon fill="#999999" stroke="transparent" points="128,-139 0,-139 0,0 128,0 128,-139"/>
<text text-anchor="start" x="5" y="-126.5" font-family="Arial" font-size="10.00">material::LinearInfluenceFn</text>
<text text-anchor="start" x="11.5" y="-111.5" font-family="Arial" font-size="10.00">&#45;</text>
<text text-anchor="start" x="27" y="-111.5" font-family="Arial" font-size="10.00">d_a0</text>
<text text-anchor="start" x="11.5" y="-96.5" font-family="Arial" font-size="10.00">&#45;</text>
<text text-anchor="start" x="27" y="-96.5" font-family="Arial" font-size="10.00">d_a1</text>
<text text-anchor="start" x="10" y="-81.5" font-family="Arial" font-size="10.00">+</text>
<text text-anchor="start" x="27" y="-81.5" font-family="Arial" font-size="10.00">LinearInfluenceFn()</text>
<text text-anchor="start" x="10" y="-66.5" font-family="Arial" font-size="10.00">+</text>
<text text-anchor="start" x="27" y="-66.5" font-family="Arial" font-size="10.00">getInfFn()</text>
<text text-anchor="start" x="10" y="-51.5" font-family="Arial" font-size="10.00">+</text>
<text text-anchor="start" x="27" y="-51.5" font-family="Arial" font-size="10.00">getMoment()</text>
<text text-anchor="start" x="10" y="-36.5" font-family="Arial" font-size="10.00">+</text>
<text text-anchor="start" x="27" y="-36.5" font-family="Arial" font-size="10.00">printStr()</text>
<text text-anchor="start" x="10" y="-21.5" font-family="Arial" font-size="10.00">+</text>
<text text-anchor="start" x="27" y="-21.5" font-family="Arial" font-size="10.00">print()</text>
<text text-anchor="start" x="10" y="-6.5" font-family="Arial" font-size="10.00">+</text>
<text text-anchor="start" x="27" y="-6.5" font-family="Arial" font-size="10.00">print()</text>
<polygon fill="#666666" stroke="#666666" points="0,-121.5 0,-121.5 128,-121.5 128,-121.5 0,-121.5"/>
<polygon fill="#666666" stroke="#666666" points="0,-91.5 0,-91.5 25,-91.5 25,-91.5 0,-91.5"/>
<polygon fill="#666666" stroke="#666666" points="25,-91.5 25,-91.5 128,-91.5 128,-91.5 25,-91.5"/>
<polygon fill="none" stroke="#666666" points="0,0 0,-139 128,-139 128,0 0,0"/>
</a>
</g>
</g>
<!-- Node2 -->
<g id="Node000002" class="node">
<title>Node2</title>
<g id="a_Node000002"><a xlink:href="classmaterial_1_1BaseInfluenceFn.html" target="_top" xlink:title="A base class for computing influence function.">
<polygon fill="white" stroke="transparent" points="126.5,-299 1.5,-299 1.5,-175 126.5,-175 126.5,-299"/>
<text text-anchor="start" x="7" y="-287" font-family="Arial" font-size="10.00">material::BaseInfluenceFn</text>
<text text-anchor="start" x="62.5" y="-272" font-family="Arial" font-size="10.00"> </text>
<text text-anchor="start" x="12.5" y="-257" font-family="Arial" font-size="10.00">+</text>
<text text-anchor="start" x="30" y="-257" font-family="Arial" font-size="10.00">BaseInfluenceFn()</text>
<text text-anchor="start" x="12.5" y="-242" font-family="Arial" font-size="10.00">+</text>
<text text-anchor="start" x="30" y="-242" font-family="Arial" font-size="10.00">getInfFn()</text>
<text text-anchor="start" x="12.5" y="-227" font-family="Arial" font-size="10.00">+</text>
<text text-anchor="start" x="30" y="-227" font-family="Arial" font-size="10.00">getMoment()</text>
<text text-anchor="start" x="12.5" y="-212" font-family="Arial" font-size="10.00">+</text>
<text text-anchor="start" x="30" y="-212" font-family="Arial" font-size="10.00">printStr()</text>
<text text-anchor="start" x="12.5" y="-197" font-family="Arial" font-size="10.00">+</text>
<text text-anchor="start" x="30" y="-197" font-family="Arial" font-size="10.00">print()</text>
<text text-anchor="start" x="12.5" y="-182" font-family="Arial" font-size="10.00">+</text>
<text text-anchor="start" x="30" y="-182" font-family="Arial" font-size="10.00">print()</text>
<polygon fill="#666666" stroke="#666666" points="2,-282 2,-282 127,-282 127,-282 2,-282"/>
<polygon fill="#666666" stroke="#666666" points="2,-267 2,-267 127,-267 127,-267 2,-267"/>
<polygon fill="none" stroke="#666666" points="1.5,-175 1.5,-299 126.5,-299 126.5,-175 1.5,-175"/>
</a>
</g>
</g>
<!-- Node2&#45;&gt;Node1 -->
<g id="edge1_Node000001_Node000002" class="edge">
<title>Node2&#45;&gt;Node1</title>
<g id="a_edge1_Node000001_Node000002"><a xlink:title=" ">
<path fill="none" stroke="#63b8ff" d="M64,-164.65C64,-156.22 64,-147.62 64,-139.21"/>
<polygon fill="none" stroke="#63b8ff" points="60.5,-164.84 64,-174.84 67.5,-164.84 60.5,-164.84"/>
</a>
</g>
</g>
</g>
</svg>
