<?xml version="1.0" encoding="UTF-8" standalone="no"?>
<!DOCTYPE svg PUBLIC "-//W3C//DTD SVG 1.1//EN"
 "http://www.w3.org/Graphics/SVG/1.1/DTD/svg11.dtd">
<!-- Generated by graphviz version 2.43.0 (0)
 -->
<!-- Title: geom::Triangle::isOutside Pages: 1 -->
<svg width="589pt" height="157pt"
 viewBox="0.00 0.00 589.00 157.00" xmlns="http://www.w3.org/2000/svg" xmlns:xlink="http://www.w3.org/1999/xlink">
<g id="graph0" class="graph" transform="scale(1 1) rotate(0) translate(4 153)">
<title>geom::Triangle::isOutside</title>
<!-- Node1 -->
<g id="Node000001" class="node">
<title>Node1</title>
<g id="a_Node000001"><a xlink:title="Checks if box is outside of the object.">
<polygon fill="#999999" stroke="#666666" points="128,-94 0,-94 0,-75 128,-75 128,-94"/>
<text text-anchor="middle" x="64" y="-82" font-family="Arial" font-size="10.00">geom::Triangle::isOutside</text>
</a>
</g>
</g>
<!-- Node2 -->
<g id="Node000002" class="node">
<title>Node2</title>
<g id="a_Node000002"><a xlink:href="classgeom_1_1Triangle.html#a516e5fc1a337de66499f415440797a5e" target="_top" xlink:title="Computes the bounding box of object.">
<polygon fill="white" stroke="#666666" points="276,-131 173,-131 173,-112 276,-112 276,-131"/>
<text text-anchor="middle" x="224.5" y="-119" font-family="Arial" font-size="10.00">geom::Triangle::box</text>
</a>
</g>
</g>
<!-- Node1&#45;&gt;Node2 -->
<g id="edge1_Node000001_Node000002" class="edge">
<title>Node1&#45;&gt;Node2</title>
<g id="a_edge1_Node000001_Node000002"><a xlink:title=" ">
<path fill="none" stroke="#63b8ff" d="M105.82,-94.03C126.17,-98.78 150.98,-104.57 172.56,-109.61"/>
<polygon fill="#63b8ff" stroke="#63b8ff" points="172.01,-113.07 182.55,-111.94 173.6,-106.26 172.01,-113.07"/>
</a>
</g>
</g>
<!-- Node3 -->
<g id="Node000003" class="node">
<title>Node3</title>
<g id="a_Node000003"><a xlink:href="namespacegeom.html#ad04eba131d1a40c4fe9129d2dd27f401" target="_top" xlink:title="Returns all corner points in the box.">
<polygon fill="white" stroke="#666666" points="283,-94 166,-94 166,-75 283,-75 283,-94"/>
<text text-anchor="middle" x="224.5" y="-82" font-family="Arial" font-size="10.00">geom::getCornerPoints</text>
</a>
</g>
</g>
<!-- Node1&#45;&gt;Node3 -->
<g id="edge3_Node000001_Node000003" class="edge">
<title>Node1&#45;&gt;Node3</title>
<g id="a_edge3_Node000001_Node000003"><a xlink:title=" ">
<path fill="none" stroke="#63b8ff" d="M128.1,-84.5C137.13,-84.5 146.46,-84.5 155.58,-84.5"/>
<polygon fill="#63b8ff" stroke="#63b8ff" points="155.76,-88 165.76,-84.5 155.76,-81 155.76,-88"/>
</a>
</g>
</g>
<!-- Node4 -->
<g id="Node000004" class="node">
<title>Node4</title>
<g id="a_Node000004"><a xlink:href="classgeom_1_1Triangle.html#a894d2f637bcb88f53063670081499a9c" target="_top" xlink:title="Checks if point is inside this object.">
<polygon fill="white" stroke="#666666" points="285,-57 164,-57 164,-38 285,-38 285,-57"/>
<text text-anchor="middle" x="224.5" y="-45" font-family="Arial" font-size="10.00">geom::Triangle::isInside</text>
</a>
</g>
</g>
<!-- Node1&#45;&gt;Node4 -->
<g id="edge4_Node000001_Node000004" class="edge">
<title>Node1&#45;&gt;Node4</title>
<g id="a_edge4_Node000001_Node000004"><a xlink:title=" ">
<path fill="none" stroke="#63b8ff" d="M105.82,-74.97C126.17,-70.22 150.98,-64.43 172.56,-59.39"/>
<polygon fill="#63b8ff" stroke="#63b8ff" points="173.6,-62.74 182.55,-57.06 172.01,-55.93 173.6,-62.74"/>
</a>
</g>
</g>
<!-- Node2&#45;&gt;Node2 -->
<g id="edge2_Node000002_Node000002" class="edge">
<title>Node2&#45;&gt;Node2</title>
<g id="a_edge2_Node000002_Node000002"><a xlink:title=" ">
<path fill="none" stroke="#63b8ff" d="M200.15,-131.08C188.3,-139.73 196.42,-149 224.5,-149 242.93,-149 252.76,-145.01 253.99,-139.82"/>
<polygon fill="#63b8ff" stroke="#63b8ff" points="256.94,-137.93 248.85,-131.08 250.91,-141.48 256.94,-137.93"/>
</a>
</g>
</g>
<!-- Node5 -->
<g id="Node000005" class="node">
<title>Node5</title>
<g id="a_Node000005"><a xlink:href="classgeom_1_1Triangle.html#a77cf266fe6285c2c55a7976c382ace88" target="_top" xlink:title="Computes the radius of biggest circle/sphere completely within the object.">
<polygon fill="white" stroke="#666666" points="447,-105.5 321,-105.5 321,-75.5 447,-75.5 447,-105.5"/>
<text text-anchor="start" x="329" y="-93.5" font-family="Arial" font-size="10.00">geom::Triangle::inscribed</text>
<text text-anchor="middle" x="384" y="-82.5" font-family="Arial" font-size="10.00">Radius</text>
</a>
</g>
</g>
<!-- Node4&#45;&gt;Node5 -->
<g id="edge5_Node000004_Node000005" class="edge">
<title>Node4&#45;&gt;Node5</title>
<g id="a_edge5_Node000004_Node000005"><a xlink:title=" ">
<path fill="none" stroke="#63b8ff" d="M260.45,-57.04C277.43,-61.68 298.39,-67.4 318.15,-72.79"/>
<polygon fill="#63b8ff" stroke="#63b8ff" points="317.47,-76.24 328.04,-75.49 319.31,-69.48 317.47,-76.24"/>
</a>
</g>
</g>
<!-- Node6 -->
<g id="Node000006" class="node">
<title>Node6</title>
<g id="a_Node000006"><a xlink:href="namespacegeom.html#ad0c44866910d6391d8d3d193ef1d5676" target="_top" xlink:title="Compute area of triangle.">
<polygon fill="white" stroke="#666666" points="581,-38 483,-38 483,-19 581,-19 581,-38"/>
<text text-anchor="middle" x="532" y="-26" font-family="Arial" font-size="10.00">geom::triangleArea</text>
</a>
</g>
</g>
<!-- Node4&#45;&gt;Node6 -->
<g id="edge6_Node000004_Node000006" class="edge">
<title>Node4&#45;&gt;Node6</title>
<g id="a_edge6_Node000004_Node000006"><a xlink:title=" ">
<path fill="none" stroke="#63b8ff" d="M285.13,-43.79C339.29,-40.42 418.7,-35.48 472.51,-32.14"/>
<polygon fill="#63b8ff" stroke="#63b8ff" points="472.81,-35.63 482.58,-31.51 472.38,-28.64 472.81,-35.63"/>
</a>
</g>
</g>
<!-- Node7 -->
<g id="Node000007" class="node">
<title>Node7</title>
<g id="a_Node000007"><a xlink:href="classgeom_1_1Triangle.html#ac1e80cd8d49916b2d426203eedf51edc" target="_top" xlink:title="Computes the volume (area in 2d, length in 1d) of object.">
<polygon fill="white" stroke="#666666" points="443.5,-19 324.5,-19 324.5,0 443.5,0 443.5,-19"/>
<text text-anchor="middle" x="384" y="-7" font-family="Arial" font-size="10.00">geom::Triangle::volume</text>
</a>
</g>
</g>
<!-- Node4&#45;&gt;Node7 -->
<g id="edge7_Node000004_Node000007" class="edge">
<title>Node4&#45;&gt;Node7</title>
<g id="a_edge7_Node000004_Node000007"><a xlink:title=" ">
<path fill="none" stroke="#63b8ff" d="M265.24,-37.91C286.03,-32.9 311.66,-26.71 333.7,-21.39"/>
<polygon fill="#63b8ff" stroke="#63b8ff" points="334.64,-24.77 343.54,-19.02 333,-17.96 334.64,-24.77"/>
</a>
</g>
</g>
<!-- Node7&#45;&gt;Node6 -->
<g id="edge8_Node000007_Node000006" class="edge">
<title>Node7&#45;&gt;Node6</title>
<g id="a_edge8_Node000007_Node000006"><a xlink:title=" ">
<path fill="none" stroke="#63b8ff" d="M443.54,-17.12C453.1,-18.36 463,-19.65 472.55,-20.89"/>
<polygon fill="#63b8ff" stroke="#63b8ff" points="472.38,-24.4 482.75,-22.22 473.28,-17.46 472.38,-24.4"/>
</a>
</g>
</g>
</g>
</svg>
