<?xml version="1.0" encoding="UTF-8" standalone="no"?>
<!DOCTYPE svg PUBLIC "-//W3C//DTD SVG 1.1//EN"
 "http://www.w3.org/Graphics/SVG/1.1/DTD/svg11.dtd">
<!-- Generated by graphviz version 2.43.0 (0)
 -->
<!-- Title: twop::Model::twoParticleTestPenetrationDist Pages: 1 -->
<svg width="660pt" height="39pt"
 viewBox="0.00 0.00 660.00 39.00" xmlns="http://www.w3.org/2000/svg" xmlns:xlink="http://www.w3.org/1999/xlink">
<g id="graph0" class="graph" transform="scale(1 1) rotate(0) translate(4 35)">
<title>twop::Model::twoParticleTestPenetrationDist</title>
<!-- Node1 -->
<g id="node1" class="node">
<title>Node1</title>
<g id="a_node1"><a xlink:title=" ">
<polygon fill="#bfbfbf" stroke="black" points="527,-0.5 527,-30.5 652,-30.5 652,-0.5 527,-0.5"/>
<text text-anchor="start" x="535" y="-18.5" font-family="Arial" font-size="10.00">twop::Model::twoParticle</text>
<text text-anchor="middle" x="589.5" y="-7.5" font-family="Arial" font-size="10.00">TestPenetrationDist</text>
</a>
</g>
</g>
<!-- Node2 -->
<g id="node2" class="node">
<title>Node2</title>
<g id="a_node2"><a xlink:href="classtwop_1_1Model.html#a23b0da94965bbb14e333d5518aaea9de" target="_top" xlink:title=" ">
<polygon fill="none" stroke="black" points="348,-6 348,-25 491,-25 491,-6 348,-6"/>
<text text-anchor="middle" x="419.5" y="-13" font-family="Arial" font-size="10.00">twop::Model::twoParticleTest</text>
</a>
</g>
</g>
<!-- Node1&#45;&gt;Node2 -->
<g id="edge1" class="edge">
<title>Node1&#45;&gt;Node2</title>
<path fill="none" stroke="midnightblue" d="M516.7,-15.5C508.25,-15.5 499.63,-15.5 491.19,-15.5"/>
<polygon fill="midnightblue" stroke="midnightblue" points="516.9,-19 526.9,-15.5 516.9,-12 516.9,-19"/>
</g>
<!-- Node3 -->
<g id="node3" class="node">
<title>Node3</title>
<g id="a_node3"><a xlink:href="classtwop_1_1Model.html#a5fc8693675cdd98d4e312622e003e56e" target="_top" xlink:title="Perform time integration.">
<polygon fill="none" stroke="black" points="199,-6 199,-25 312,-25 312,-6 199,-6"/>
<text text-anchor="middle" x="255.5" y="-13" font-family="Arial" font-size="10.00">twop::Model::integrate</text>
</a>
</g>
</g>
<!-- Node2&#45;&gt;Node3 -->
<g id="edge2" class="edge">
<title>Node2&#45;&gt;Node3</title>
<path fill="none" stroke="midnightblue" d="M337.79,-15.5C329.15,-15.5 320.5,-15.5 312.24,-15.5"/>
<polygon fill="midnightblue" stroke="midnightblue" points="337.92,-19 347.92,-15.5 337.92,-12 337.92,-19"/>
</g>
<!-- Node4 -->
<g id="node4" class="node">
<title>Node4</title>
<g id="a_node4"><a xlink:href="classtwop_1_1Model.html#a8e7a374cd93c0070be4c04c57d21fcc0" target="_top" xlink:title="Main driver to simulate.">
<polygon fill="none" stroke="black" points="74,-6 74,-25 163,-25 163,-6 74,-6"/>
<text text-anchor="middle" x="118.5" y="-13" font-family="Arial" font-size="10.00">twop::Model::run</text>
</a>
</g>
</g>
<!-- Node3&#45;&gt;Node4 -->
<g id="edge3" class="edge">
<title>Node3&#45;&gt;Node4</title>
<path fill="none" stroke="midnightblue" d="M188.67,-15.5C180,-15.5 171.28,-15.5 163.1,-15.5"/>
<polygon fill="midnightblue" stroke="midnightblue" points="188.81,-19 198.81,-15.5 188.81,-12 188.81,-19"/>
</g>
<!-- Node5 -->
<g id="node5" class="node">
<title>Node5</title>
<g id="a_node5"><a xlink:href="apps_2twop_2main_8cpp.html#a0ddf1224851353fc92bfbff6f499fa97" target="_top" xlink:title=" ">
<polygon fill="none" stroke="black" points="0,-6 0,-25 38,-25 38,-6 0,-6"/>
<text text-anchor="middle" x="19" y="-13" font-family="Arial" font-size="10.00">main</text>
</a>
</g>
</g>
<!-- Node4&#45;&gt;Node5 -->
<g id="edge4" class="edge">
<title>Node4&#45;&gt;Node5</title>
<path fill="none" stroke="midnightblue" d="M63.83,-15.5C54.59,-15.5 45.59,-15.5 38.17,-15.5"/>
<polygon fill="midnightblue" stroke="midnightblue" points="63.88,-19 73.88,-15.5 63.88,-12 63.88,-19"/>
</g>
</g>
</svg>
