<?xml version="1.0" encoding="UTF-8" standalone="no"?>
<!DOCTYPE svg PUBLIC "-//W3C//DTD SVG 1.1//EN"
 "http://www.w3.org/Graphics/SVG/1.1/DTD/svg11.dtd">
<!-- Generated by graphviz version 2.43.0 (0)
 -->
<!-- Title: material::GaussianInfluenceFn::printStr Pages: 1 -->
<svg width="320pt" height="76pt"
 viewBox="0.00 0.00 320.00 75.50" xmlns="http://www.w3.org/2000/svg" xmlns:xlink="http://www.w3.org/1999/xlink">
<g id="graph0" class="graph" transform="scale(1 1) rotate(0) translate(4 71.5)">
<title>material::GaussianInfluenceFn::printStr</title>
<!-- Node1 -->
<g id="Node000001" class="node">
<title>Node1</title>
<g id="a_Node000001"><a xlink:title="Returns the string containing printable information about the object.">
<polygon fill="#999999" stroke="#666666" points="138,-45.5 0,-45.5 0,-15.5 138,-15.5 138,-45.5"/>
<text text-anchor="start" x="8" y="-33.5" font-family="Arial" font-size="10.00">material::GaussianInfluence</text>
<text text-anchor="middle" x="69" y="-22.5" font-family="Arial" font-size="10.00">Fn::printStr</text>
</a>
</g>
</g>
<!-- Node2 -->
<g id="Node000002" class="node">
<title>Node2</title>
<g id="a_Node000002"><a xlink:href="classmaterial_1_1GaussianInfluenceFn.html#a6799f85229a609f2b1ac37d8a17e57ca" target="_top" xlink:title="Returns the moment of influence function.">
<polygon fill="white" stroke="#666666" points="312,-67.5 174,-67.5 174,-37.5 312,-37.5 312,-67.5"/>
<text text-anchor="start" x="182" y="-55.5" font-family="Arial" font-size="10.00">material::GaussianInfluence</text>
<text text-anchor="middle" x="243" y="-44.5" font-family="Arial" font-size="10.00">Fn::getMoment</text>
</a>
</g>
</g>
<!-- Node1&#45;&gt;Node2 -->
<g id="edge1_Node000001_Node000002" class="edge">
<title>Node1&#45;&gt;Node2</title>
<g id="a_edge1_Node000001_Node000002"><a xlink:title=" ">
<path fill="none" stroke="#63b8ff" d="M138.47,-39.26C146.73,-40.31 155.22,-41.4 163.6,-42.47"/>
<polygon fill="#63b8ff" stroke="#63b8ff" points="163.4,-45.97 173.76,-43.77 164.29,-39.03 163.4,-45.97"/>
</a>
</g>
</g>
<!-- Node3 -->
<g id="Node000003" class="node">
<title>Node3</title>
<g id="a_Node000003"><a xlink:href="namespaceutil_1_1io.html#a38afb09a152cca4061850f4123bd3aeb" target="_top" xlink:title="Returns tab spaces of given size.">
<polygon fill="white" stroke="#666666" points="285.5,-19 200.5,-19 200.5,0 285.5,0 285.5,-19"/>
<text text-anchor="middle" x="243" y="-7" font-family="Arial" font-size="10.00">util::io::getTabS</text>
</a>
</g>
</g>
<!-- Node1&#45;&gt;Node3 -->
<g id="edge2_Node000001_Node000003" class="edge">
<title>Node1&#45;&gt;Node3</title>
<g id="a_edge2_Node000001_Node000003"><a xlink:title=" ">
<path fill="none" stroke="#63b8ff" d="M138.47,-22.14C155.61,-20.05 173.72,-17.84 189.91,-15.86"/>
<polygon fill="#63b8ff" stroke="#63b8ff" points="190.75,-19.28 200.25,-14.6 189.9,-12.34 190.75,-19.28"/>
</a>
</g>
</g>
</g>
</svg>
