<?xml version="1.0" encoding="UTF-8" standalone="no"?>
<!DOCTYPE svg PUBLIC "-//W3C//DTD SVG 1.1//EN"
 "http://www.w3.org/Graphics/SVG/1.1/DTD/svg11.dtd">
<!-- Generated by graphviz version 2.43.0 (0)
 -->
<!-- Title: model::DEMModel::createWalls Pages: 1 -->
<svg width="450pt" height="66pt"
 viewBox="0.00 0.00 450.00 66.00" xmlns="http://www.w3.org/2000/svg" xmlns:xlink="http://www.w3.org/1999/xlink">
<g id="graph0" class="graph" transform="scale(1 1) rotate(0) translate(4 62)">
<title>model::DEMModel::createWalls</title>
<!-- Node1 -->
<g id="node1" class="node">
<title>Node1</title>
<g id="a_node1"><a xlink:title="Creates walls.">
<polygon fill="#bfbfbf" stroke="black" points="0,-19.5 0,-38.5 155,-38.5 155,-19.5 0,-19.5"/>
<text text-anchor="middle" x="77.5" y="-26.5" font-family="Arial" font-size="10.00">model::DEMModel::createWalls</text>
</a>
</g>
</g>
<!-- Node2 -->
<g id="node2" class="node">
<title>Node2</title>
<g id="a_node2"><a xlink:href="classfe_1_1Mesh.html#a068ec3921531230930e56ab97bf840b7" target="_top" xlink:title="Get the mesh size.">
<polygon fill="none" stroke="black" points="191,-38.5 191,-57.5 309,-57.5 309,-38.5 191,-38.5"/>
<text text-anchor="middle" x="250" y="-45.5" font-family="Arial" font-size="10.00">fe::Mesh::getMeshSize</text>
</a>
</g>
</g>
<!-- Node1&#45;&gt;Node2 -->
<g id="edge1" class="edge">
<title>Node1&#45;&gt;Node2</title>
<path fill="none" stroke="midnightblue" d="M155.27,-37.56C163.75,-38.5 172.35,-39.46 180.72,-40.39"/>
<polygon fill="midnightblue" stroke="midnightblue" points="180.47,-43.88 190.79,-41.51 181.24,-36.93 180.47,-43.88"/>
</g>
<!-- Node3 -->
<g id="node3" class="node">
<title>Node3</title>
<g id="a_node3"><a xlink:href="namespaceutil_1_1io.html#acc310b3994931fe61f43d5a5152aebc1" target="_top" xlink:title="Global method to log the message.">
<polygon fill="none" stroke="black" points="219,-0.5 219,-19.5 281,-19.5 281,-0.5 219,-0.5"/>
<text text-anchor="middle" x="250" y="-7.5" font-family="Arial" font-size="10.00">util::io::log</text>
</a>
</g>
</g>
<!-- Node1&#45;&gt;Node3 -->
<g id="edge2" class="edge">
<title>Node1&#45;&gt;Node3</title>
<path fill="none" stroke="midnightblue" d="M155.27,-20.44C173.69,-18.39 192.64,-16.28 208.64,-14.5"/>
<polygon fill="midnightblue" stroke="midnightblue" points="209.14,-17.96 218.69,-13.38 208.36,-11.01 209.14,-17.96"/>
</g>
<!-- Node4 -->
<g id="node4" class="node">
<title>Node4</title>
<g id="a_node4"><a xlink:href="classutil_1_1io_1_1Logger.html#a5d4600ff2841534892839c72a7f04547" target="_top" xlink:title="Log the message.">
<polygon fill="none" stroke="black" points="345,-0.5 345,-19.5 442,-19.5 442,-0.5 345,-0.5"/>
<text text-anchor="middle" x="393.5" y="-7.5" font-family="Arial" font-size="10.00">util::io::Logger::log</text>
</a>
</g>
</g>
<!-- Node3&#45;&gt;Node4 -->
<g id="edge3" class="edge">
<title>Node3&#45;&gt;Node4</title>
<path fill="none" stroke="midnightblue" d="M281.01,-10C296.68,-10 316.41,-10 334.89,-10"/>
<polygon fill="midnightblue" stroke="midnightblue" points="335,-13.5 345,-10 335,-6.5 335,-13.5"/>
</g>
</g>
</svg>
