<?xml version="1.0" encoding="UTF-8" standalone="no"?>
<!DOCTYPE svg PUBLIC "-//W3C//DTD SVG 1.1//EN"
 "http://www.w3.org/Graphics/SVG/1.1/DTD/svg11.dtd">
<!-- Generated by graphviz version 2.43.0 (0)
 -->
<!-- Title: util::geometry::Drum2D Pages: 1 -->
<svg width="145pt" height="424pt"
 viewBox="0.00 0.00 145.00 424.00" xmlns="http://www.w3.org/2000/svg" xmlns:xlink="http://www.w3.org/1999/xlink">
<g id="graph0" class="graph" transform="scale(1 1) rotate(0) translate(4 420)">
<title>util::geometry::Drum2D</title>
<!-- Node1 -->
<g id="node1" class="node">
<title>Node1</title>
<g id="a_node1"><a xlink:title="Defines rectangle.">
<polygon fill="#bfbfbf" stroke="black" points="9,-0.5 9,-211.5 128,-211.5 128,-0.5 9,-0.5"/>
<text text-anchor="middle" x="68.5" y="-199.5" font-family="Arial" font-size="10.00">util::geometry::Drum2D</text>
<polyline fill="none" stroke="black" points="9,-192.5 128,-192.5 "/>
<text text-anchor="start" x="17" y="-180.5" font-family="Arial" font-size="10.00">+ d_vertices</text>
<text text-anchor="start" x="17" y="-169.5" font-family="Arial" font-size="10.00">+ d_x</text>
<text text-anchor="start" x="17" y="-158.5" font-family="Arial" font-size="10.00">+ d_w</text>
<text text-anchor="start" x="17" y="-147.5" font-family="Arial" font-size="10.00">+ d_r</text>
<text text-anchor="start" x="17" y="-136.5" font-family="Arial" font-size="10.00">+ d_a</text>
<polyline fill="none" stroke="black" points="9,-129.5 128,-129.5 "/>
<text text-anchor="start" x="17" y="-117.5" font-family="Arial" font-size="10.00">+ Drum2D()</text>
<text text-anchor="start" x="17" y="-106.5" font-family="Arial" font-size="10.00">+ Drum2D()</text>
<text text-anchor="start" x="17" y="-95.5" font-family="Arial" font-size="10.00">+ volume()</text>
<text text-anchor="start" x="17" y="-84.5" font-family="Arial" font-size="10.00">+ center()</text>
<text text-anchor="start" x="17" y="-73.5" font-family="Arial" font-size="10.00">+ box()</text>
<text text-anchor="start" x="17" y="-62.5" font-family="Arial" font-size="10.00">+ box()</text>
<text text-anchor="start" x="17" y="-51.5" font-family="Arial" font-size="10.00">+ inscribedRadius()</text>
<text text-anchor="start" x="17" y="-40.5" font-family="Arial" font-size="10.00">+ boundingRadius()</text>
<text text-anchor="start" x="17" y="-29.5" font-family="Arial" font-size="10.00">+ isInside()</text>
<text text-anchor="start" x="17" y="-18.5" font-family="Arial" font-size="10.00">+ isOutside()</text>
<text text-anchor="start" x="17" y="-7.5" font-family="Arial" font-size="10.00">and 10 more...</text>
</a>
</g>
</g>
<!-- Node2 -->
<g id="node2" class="node">
<title>Node2</title>
<g id="a_node2"><a xlink:href="classutil_1_1geometry_1_1GeomObject.html" target="_top" xlink:title="Defines abstract geometrical domain.">
<polygon fill="none" stroke="black" points="0,-248.5 0,-415.5 137,-415.5 137,-248.5 0,-248.5"/>
<text text-anchor="middle" x="68.5" y="-403.5" font-family="Arial" font-size="10.00">util::geometry::GeomObject</text>
<polyline fill="none" stroke="black" points="0,-396.5 137,-396.5 "/>
<text text-anchor="start" x="8" y="-384.5" font-family="Arial" font-size="10.00">+ d_name</text>
<polyline fill="none" stroke="black" points="0,-377.5 137,-377.5 "/>
<text text-anchor="start" x="8" y="-365.5" font-family="Arial" font-size="10.00">+ GeomObject()</text>
<text text-anchor="start" x="8" y="-354.5" font-family="Arial" font-size="10.00">+ volume()</text>
<text text-anchor="start" x="8" y="-343.5" font-family="Arial" font-size="10.00">+ center()</text>
<text text-anchor="start" x="8" y="-332.5" font-family="Arial" font-size="10.00">+ box()</text>
<text text-anchor="start" x="8" y="-321.5" font-family="Arial" font-size="10.00">+ box()</text>
<text text-anchor="start" x="8" y="-310.5" font-family="Arial" font-size="10.00">+ inscribedRadius()</text>
<text text-anchor="start" x="8" y="-299.5" font-family="Arial" font-size="10.00">+ boundingRadius()</text>
<text text-anchor="start" x="8" y="-288.5" font-family="Arial" font-size="10.00">+ isInside()</text>
<text text-anchor="start" x="8" y="-277.5" font-family="Arial" font-size="10.00">+ isOutside()</text>
<text text-anchor="start" x="8" y="-266.5" font-family="Arial" font-size="10.00">+ isNear()</text>
<text text-anchor="start" x="8" y="-255.5" font-family="Arial" font-size="10.00">and 9 more...</text>
</a>
</g>
</g>
<!-- Node2&#45;&gt;Node1 -->
<g id="edge1" class="edge">
<title>Node2&#45;&gt;Node1</title>
<path fill="none" stroke="midnightblue" d="M68.5,-238.14C68.5,-229.47 68.5,-220.65 68.5,-211.88"/>
<polygon fill="none" stroke="midnightblue" points="65,-238.23 68.5,-248.23 72,-238.23 65,-238.23"/>
</g>
</g>
</svg>
