<?xml version="1.0" encoding="UTF-8" standalone="no"?>
<!DOCTYPE svg PUBLIC "-//W3C//DTD SVG 1.1//EN"
 "http://www.w3.org/Graphics/SVG/1.1/DTD/svg11.dtd">
<!-- Generated by graphviz version 2.43.0 (0)
 -->
<!-- Title: particle::BaseParticle::getNumNodes Pages: 1 -->
<svg width="282pt" height="137pt"
 viewBox="0.00 0.00 282.00 137.00" xmlns="http://www.w3.org/2000/svg" xmlns:xlink="http://www.w3.org/1999/xlink">
<g id="graph0" class="graph" transform="scale(1 1) rotate(0) translate(4 133)">
<title>particle::BaseParticle::getNumNodes</title>
<!-- Node1 -->
<g id="node1" class="node">
<title>Node1</title>
<g id="a_node1"><a xlink:title="Get the number of nodes.">
<polygon fill="#bfbfbf" stroke="black" points="164,-49.5 164,-79.5 274,-79.5 274,-49.5 164,-49.5"/>
<text text-anchor="start" x="172" y="-67.5" font-family="Arial" font-size="10.00">particle::BaseParticle</text>
<text text-anchor="middle" x="219" y="-56.5" font-family="Arial" font-size="10.00">::getNumNodes</text>
</a>
</g>
</g>
<!-- Node2 -->
<g id="node2" class="node">
<title>Node2</title>
<g id="a_node2"><a xlink:href="classloading_1_1ParticleFLoading.html#a8a1f12e4292ce9693d0339c06327fe68" target="_top" xlink:title="Applies force boundary condition.">
<polygon fill="none" stroke="black" points="1,-98.5 1,-128.5 127,-128.5 127,-98.5 1,-98.5"/>
<text text-anchor="start" x="9" y="-116.5" font-family="Arial" font-size="10.00">loading::ParticleFLoading</text>
<text text-anchor="middle" x="64" y="-105.5" font-family="Arial" font-size="10.00">::applyWall</text>
</a>
</g>
</g>
<!-- Node1&#45;&gt;Node2 -->
<g id="edge1" class="edge">
<title>Node1&#45;&gt;Node2</title>
<path fill="none" stroke="midnightblue" d="M160.99,-82.76C144.85,-87.93 127.47,-93.49 112,-98.45"/>
<polygon fill="midnightblue" stroke="midnightblue" points="162.39,-85.98 170.85,-79.6 160.26,-79.32 162.39,-85.98"/>
</g>
<!-- Node3 -->
<g id="node3" class="node">
<title>Node3</title>
<g id="a_node3"><a xlink:href="classloading_1_1ParticleULoading.html#aee7edb595807fe2516c545d8abe2d75b" target="_top" xlink:title="Applies displacement boundary condition.">
<polygon fill="none" stroke="black" points="0,-49.5 0,-79.5 128,-79.5 128,-49.5 0,-49.5"/>
<text text-anchor="start" x="8" y="-67.5" font-family="Arial" font-size="10.00">loading::ParticleULoading</text>
<text text-anchor="middle" x="64" y="-56.5" font-family="Arial" font-size="10.00">::applyWall</text>
</a>
</g>
</g>
<!-- Node1&#45;&gt;Node3 -->
<g id="edge2" class="edge">
<title>Node1&#45;&gt;Node3</title>
<path fill="none" stroke="midnightblue" d="M153.49,-64.5C145.08,-64.5 136.47,-64.5 128.08,-64.5"/>
<polygon fill="midnightblue" stroke="midnightblue" points="153.63,-68 163.63,-64.5 153.63,-61 153.63,-68"/>
</g>
<!-- Node4 -->
<g id="node4" class="node">
<title>Node4</title>
<g id="a_node4"><a xlink:href="classloading_1_1ParticleULoading.html#ad625cd13565f41d44a66c94a976b40b4" target="_top" xlink:title="Sets fixity mask.">
<polygon fill="none" stroke="black" points="0,-0.5 0,-30.5 128,-30.5 128,-0.5 0,-0.5"/>
<text text-anchor="start" x="8" y="-18.5" font-family="Arial" font-size="10.00">loading::ParticleULoading</text>
<text text-anchor="middle" x="64" y="-7.5" font-family="Arial" font-size="10.00">::setFixityWall</text>
</a>
</g>
</g>
<!-- Node1&#45;&gt;Node4 -->
<g id="edge3" class="edge">
<title>Node1&#45;&gt;Node4</title>
<path fill="none" stroke="midnightblue" d="M160.99,-46.24C144.85,-41.07 127.47,-35.51 112,-30.55"/>
<polygon fill="midnightblue" stroke="midnightblue" points="160.26,-49.68 170.85,-49.4 162.39,-43.02 160.26,-49.68"/>
</g>
</g>
</svg>
