<?xml version="1.0" encoding="UTF-8" standalone="no"?>
<!DOCTYPE svg PUBLIC "-//W3C//DTD SVG 1.1//EN"
 "http://www.w3.org/Graphics/SVG/1.1/DTD/svg11.dtd">
<!-- Generated by graphviz version 2.43.0 (0)
 -->
<!-- Title: model::DEMModel::log Pages: 1 -->
<svg width="812pt" height="97pt"
 viewBox="0.00 0.00 812.00 96.50" xmlns="http://www.w3.org/2000/svg" xmlns:xlink="http://www.w3.org/1999/xlink">
<g id="graph0" class="graph" transform="scale(1 1) rotate(0) translate(4 92.5)">
<title>model::DEMModel::log</title>
<!-- Node1 -->
<g id="node1" class="node">
<title>Node1</title>
<g id="a_node1"><a xlink:title="Prints message if any of these two conditions are true.">
<polygon fill="#bfbfbf" stroke="black" points="688,-19.5 688,-38.5 804,-38.5 804,-19.5 688,-19.5"/>
<text text-anchor="middle" x="746" y="-26.5" font-family="Arial" font-size="10.00">model::DEMModel::log</text>
</a>
</g>
</g>
<!-- Node2 -->
<g id="node2" class="node">
<title>Node2</title>
<g id="a_node2"><a xlink:href="classtwop_1_1Model.html#a5fc8693675cdd98d4e312622e003e56e" target="_top" xlink:title="Perform time integration.">
<polygon fill="none" stroke="black" points="199,-19.5 199,-38.5 312,-38.5 312,-19.5 199,-19.5"/>
<text text-anchor="middle" x="255.5" y="-26.5" font-family="Arial" font-size="10.00">twop::Model::integrate</text>
</a>
</g>
</g>
<!-- Node1&#45;&gt;Node2 -->
<g id="edge1" class="edge">
<title>Node1&#45;&gt;Node2</title>
<path fill="none" stroke="midnightblue" d="M677.51,-29C580.26,-29 402.5,-29 312.25,-29"/>
<polygon fill="midnightblue" stroke="midnightblue" points="677.53,-32.5 687.53,-29 677.53,-25.5 677.53,-32.5"/>
</g>
<!-- Node3 -->
<g id="node3" class="node">
<title>Node3</title>
<g id="a_node3"><a xlink:href="classtwop_1_1Model.html#a8e7a374cd93c0070be4c04c57d21fcc0" target="_top" xlink:title="Main driver to simulate.">
<polygon fill="none" stroke="black" points="74,-0.5 74,-19.5 163,-19.5 163,-0.5 74,-0.5"/>
<text text-anchor="middle" x="118.5" y="-7.5" font-family="Arial" font-size="10.00">twop::Model::run</text>
</a>
</g>
</g>
<!-- Node1&#45;&gt;Node3 -->
<g id="edge4" class="edge">
<title>Node1&#45;&gt;Node3</title>
<path fill="none" stroke="midnightblue" d="M677.9,-25.14C592.81,-20.46 441.58,-12.84 312,-10 260.88,-8.88 202.1,-9.1 163.08,-9.46"/>
<polygon fill="midnightblue" stroke="midnightblue" points="677.76,-28.64 687.94,-25.7 678.15,-21.65 677.76,-28.64"/>
</g>
<!-- Node5 -->
<g id="node5" class="node">
<title>Node5</title>
<g id="a_node5"><a xlink:href="classtwop_1_1Model.html#a7a169b90fc51dc80a2e882165946a260" target="_top" xlink:title=" ">
<polygon fill="none" stroke="black" points="527,-58 527,-88 652,-88 652,-58 527,-58"/>
<text text-anchor="start" x="535" y="-76" font-family="Arial" font-size="10.00">twop::Model::twoParticle</text>
<text text-anchor="middle" x="589.5" y="-65" font-family="Arial" font-size="10.00">TestPenetrationDist</text>
</a>
</g>
</g>
<!-- Node1&#45;&gt;Node5 -->
<g id="edge5" class="edge">
<title>Node1&#45;&gt;Node5</title>
<path fill="none" stroke="midnightblue" d="M701.77,-41.31C683.66,-46.47 662.43,-52.51 643.4,-57.93"/>
<polygon fill="midnightblue" stroke="midnightblue" points="702.82,-44.65 711.48,-38.55 700.9,-37.92 702.82,-44.65"/>
</g>
<!-- Node2&#45;&gt;Node3 -->
<g id="edge2" class="edge">
<title>Node2&#45;&gt;Node3</title>
<path fill="none" stroke="midnightblue" d="M188.67,-19.74C180,-18.51 171.28,-17.29 163.1,-16.14"/>
<polygon fill="midnightblue" stroke="midnightblue" points="188.42,-23.23 198.81,-21.16 189.4,-16.3 188.42,-23.23"/>
</g>
<!-- Node4 -->
<g id="node4" class="node">
<title>Node4</title>
<g id="a_node4"><a xlink:href="apps_2twop_2main_8cpp.html#a0ddf1224851353fc92bfbff6f499fa97" target="_top" xlink:title=" ">
<polygon fill="none" stroke="black" points="0,-0.5 0,-19.5 38,-19.5 38,-0.5 0,-0.5"/>
<text text-anchor="middle" x="19" y="-7.5" font-family="Arial" font-size="10.00">main</text>
</a>
</g>
</g>
<!-- Node3&#45;&gt;Node4 -->
<g id="edge3" class="edge">
<title>Node3&#45;&gt;Node4</title>
<path fill="none" stroke="midnightblue" d="M63.83,-10C54.59,-10 45.59,-10 38.17,-10"/>
<polygon fill="midnightblue" stroke="midnightblue" points="63.88,-13.5 73.88,-10 63.88,-6.5 63.88,-13.5"/>
</g>
<!-- Node6 -->
<g id="node6" class="node">
<title>Node6</title>
<g id="a_node6"><a xlink:href="classtwop_1_1Model.html#a23b0da94965bbb14e333d5518aaea9de" target="_top" xlink:title=" ">
<polygon fill="none" stroke="black" points="348,-60.5 348,-79.5 491,-79.5 491,-60.5 348,-60.5"/>
<text text-anchor="middle" x="419.5" y="-67.5" font-family="Arial" font-size="10.00">twop::Model::twoParticleTest</text>
</a>
</g>
</g>
<!-- Node5&#45;&gt;Node6 -->
<g id="edge6" class="edge">
<title>Node5&#45;&gt;Node6</title>
<path fill="none" stroke="midnightblue" d="M516.7,-71.72C508.25,-71.57 499.63,-71.41 491.19,-71.26"/>
<polygon fill="midnightblue" stroke="midnightblue" points="516.84,-75.22 526.9,-71.9 516.96,-68.22 516.84,-75.22"/>
</g>
<!-- Node6&#45;&gt;Node2 -->
<g id="edge7" class="edge">
<title>Node6&#45;&gt;Node2</title>
<path fill="none" stroke="midnightblue" d="M371.11,-58.01C346.59,-51.8 317.08,-44.33 294.15,-38.53"/>
<polygon fill="midnightblue" stroke="midnightblue" points="370.37,-61.43 380.93,-60.49 372.09,-54.64 370.37,-61.43"/>
</g>
</g>
</svg>
