<?xml version="1.0" encoding="UTF-8" standalone="no"?>
<!DOCTYPE svg PUBLIC "-//W3C//DTD SVG 1.1//EN"
 "http://www.w3.org/Graphics/SVG/1.1/DTD/svg11.dtd">
<!-- Generated by graphviz version 2.43.0 (0)
 -->
<!-- Title: twop::Model::run Pages: 1 -->
<svg width="1152pt" height="864pt"
 viewBox="0.00 0.00 1152.00 864.06" xmlns="http://www.w3.org/2000/svg" xmlns:xlink="http://www.w3.org/1999/xlink">
<g id="graph0" class="graph" transform="scale(1 1) rotate(0) translate(4 860.06)">
<title>twop::Model::run</title>
<!-- Node1 -->
<g id="node1" class="node">
<title>Node1</title>
<g id="a_node1"><a xlink:title="Main driver to simulate.">
<polygon fill="#bfbfbf" stroke="black" points="0,-114.56 0,-133.56 89,-133.56 89,-114.56 0,-114.56"/>
<text text-anchor="middle" x="44.5" y="-121.56" font-family="Arial" font-size="10.00">twop::Model::run</text>
</a>
</g>
</g>
<!-- Node2 -->
<g id="node2" class="node">
<title>Node2</title>
<g id="a_node2"><a xlink:href="classfe_1_1BaseElem.html#a96fb54d9aca45e987c163e95242ceb8f" target="_top" xlink:title="Get number of quadrature points in the data.">
<polygon fill="none" stroke="black" points="858.5,-749.06 858.5,-779.06 998.5,-779.06 998.5,-749.06 858.5,-749.06"/>
<text text-anchor="start" x="866.5" y="-767.06" font-family="Arial" font-size="10.00">fe::BaseElem::getNumQuad</text>
<text text-anchor="middle" x="928.5" y="-756.06" font-family="Arial" font-size="10.00">Points</text>
</a>
</g>
</g>
<!-- Node1&#45;&gt;Node2 -->
<g id="edge1" class="edge">
<title>Node1&#45;&gt;Node2</title>
<path fill="none" stroke="midnightblue" d="M45.34,-133.6C44.51,-215.64 49.41,-799.06 356.5,-799.06 356.5,-799.06 356.5,-799.06 550,-799.06 653.46,-799.06 772.2,-785.86 848.44,-775.68"/>
<polygon fill="midnightblue" stroke="midnightblue" points="849.01,-779.13 858.45,-774.32 848.07,-772.19 849.01,-779.13"/>
</g>
<!-- Node3 -->
<g id="node3" class="node">
<title>Node3</title>
<g id="a_node3"><a xlink:href="classmodel_1_1DEMModel.html#a934129b5f683dc4ce250b8c9a6fc9228" target="_top" xlink:title="Initialize remaining data members.">
<polygon fill="none" stroke="black" points="125,-57.56 125,-76.56 241,-76.56 241,-57.56 125,-57.56"/>
<text text-anchor="middle" x="183" y="-64.56" font-family="Arial" font-size="10.00">model::DEMModel::init</text>
</a>
</g>
</g>
<!-- Node1&#45;&gt;Node3 -->
<g id="edge2" class="edge">
<title>Node1&#45;&gt;Node3</title>
<path fill="none" stroke="midnightblue" d="M68.35,-114.52C90.59,-105.23 124.61,-91.02 149.64,-80.57"/>
<polygon fill="midnightblue" stroke="midnightblue" points="151.2,-83.71 159.08,-76.63 148.5,-77.25 151.2,-83.71"/>
</g>
<!-- Node13 -->
<g id="node13" class="node">
<title>Node13</title>
<g id="a_node13"><a xlink:href="classtwop_1_1Model.html#a5fc8693675cdd98d4e312622e003e56e" target="_top" xlink:title="Perform time integration.">
<polygon fill="none" stroke="black" points="126.5,-190.56 126.5,-209.56 239.5,-209.56 239.5,-190.56 126.5,-190.56"/>
<text text-anchor="middle" x="183" y="-197.56" font-family="Arial" font-size="10.00">twop::Model::integrate</text>
</a>
</g>
</g>
<!-- Node1&#45;&gt;Node13 -->
<g id="edge12" class="edge">
<title>Node1&#45;&gt;Node13</title>
<path fill="none" stroke="midnightblue" d="M62.79,-133.68C86.27,-146.76 128.47,-170.25 155.84,-185.5"/>
<polygon fill="midnightblue" stroke="midnightblue" points="154.41,-188.71 164.85,-190.51 157.82,-182.59 154.41,-188.71"/>
</g>
<!-- Node21 -->
<g id="node21" class="node">
<title>Node21</title>
<g id="a_node21"><a xlink:href="classmodel_1_1DEMModel.html#a835b225f685b6be572c745809ecd506c" target="_top" xlink:title="Prints message if any of these two conditions are true.">
<polygon fill="none" stroke="black" points="677,-70.56 677,-89.56 793,-89.56 793,-70.56 677,-70.56"/>
<text text-anchor="middle" x="735" y="-77.56" font-family="Arial" font-size="10.00">model::DEMModel::log</text>
</a>
</g>
</g>
<!-- Node1&#45;&gt;Node21 -->
<g id="edge76" class="edge">
<title>Node1&#45;&gt;Node21</title>
<path fill="none" stroke="midnightblue" d="M52.69,-114.49C65.43,-98.26 93.57,-65.39 125,-48.06 185.98,-14.43 207.89,-18.57 277,-10.06 348.02,-1.32 366.93,-1.77 438,-10.06 531.27,-20.94 637.78,-50.48 694.14,-67.51"/>
<polygon fill="midnightblue" stroke="midnightblue" points="693.15,-70.86 703.74,-70.43 695.19,-64.17 693.15,-70.86"/>
</g>
<!-- Node4 -->
<g id="node4" class="node">
<title>Node4</title>
<g id="a_node4"><a xlink:href="namespacematerial.html#a3d863a3738051cdc61931186eede7edd" target="_top" xlink:title="Computes the moment &#160;term in state&#45;based peridynamic formulation.">
<polygon fill="none" stroke="black" points="292,-247.56 292,-266.56 423,-266.56 423,-247.56 292,-247.56"/>
<text text-anchor="middle" x="357.5" y="-254.56" font-family="Arial" font-size="10.00">material::computeStateMx</text>
</a>
</g>
</g>
<!-- Node3&#45;&gt;Node4 -->
<g id="edge3" class="edge">
<title>Node3&#45;&gt;Node4</title>
<path fill="none" stroke="midnightblue" d="M192.79,-76.74C220.35,-107.1 305.34,-200.71 340.75,-239.71"/>
<polygon fill="midnightblue" stroke="midnightblue" points="338.21,-242.12 347.52,-247.17 343.39,-237.41 338.21,-242.12"/>
</g>
<!-- Node9 -->
<g id="node9" class="node">
<title>Node9</title>
<g id="a_node9"><a xlink:href="namespaceutil_1_1methods.html#ac8ab8ee8690f8baa3e008256f7a5351d" target="_top" xlink:title="Returns true if degree of freedom is free.">
<polygon fill="none" stroke="black" points="304.5,-19.56 304.5,-38.56 410.5,-38.56 410.5,-19.56 304.5,-19.56"/>
<text text-anchor="middle" x="357.5" y="-26.56" font-family="Arial" font-size="10.00">util::methods::isFree</text>
</a>
</g>
</g>
<!-- Node3&#45;&gt;Node9 -->
<g id="edge8" class="edge">
<title>Node3&#45;&gt;Node9</title>
<path fill="none" stroke="midnightblue" d="M227.53,-57.47C250.6,-52.39 279.13,-46.1 303.48,-40.74"/>
<polygon fill="midnightblue" stroke="midnightblue" points="304.27,-44.15 313.28,-38.58 302.77,-37.31 304.27,-44.15"/>
</g>
<!-- Node10 -->
<g id="node10" class="node">
<title>Node10</title>
<g id="a_node10"><a xlink:href="namespaceutil_1_1io.html#acc310b3994931fe61f43d5a5152aebc1" target="_top" xlink:title="Global method to log the message.">
<polygon fill="none" stroke="black" points="897.5,-152.56 897.5,-171.56 959.5,-171.56 959.5,-152.56 897.5,-152.56"/>
<text text-anchor="middle" x="928.5" y="-159.56" font-family="Arial" font-size="10.00">util::io::log</text>
</a>
</g>
</g>
<!-- Node3&#45;&gt;Node10 -->
<g id="edge9" class="edge">
<title>Node3&#45;&gt;Node10</title>
<path fill="none" stroke="midnightblue" d="M195.05,-57.42C211.54,-43.73 244.19,-19.31 277,-10.06 407.64,26.79 791.74,-52.84 810,-61.06 853.47,-80.64 893.07,-121.52 913.32,-144.82"/>
<polygon fill="midnightblue" stroke="midnightblue" points="910.74,-147.18 919.88,-152.54 916.07,-142.65 910.74,-147.18"/>
</g>
<!-- Node12 -->
<g id="node12" class="node">
<title>Node12</title>
<g id="a_node12"><a xlink:href="namespaceutil_1_1methods.html#aaf9cfac99073d034d41e10d4d17e59a2" target="_top" xlink:title="Returns difference between two times.">
<polygon fill="none" stroke="black" points="301,-57.56 301,-76.56 414,-76.56 414,-57.56 301,-57.56"/>
<text text-anchor="middle" x="357.5" y="-64.56" font-family="Arial" font-size="10.00">util::methods::timeDiff</text>
</a>
</g>
</g>
<!-- Node3&#45;&gt;Node12 -->
<g id="edge11" class="edge">
<title>Node3&#45;&gt;Node12</title>
<path fill="none" stroke="midnightblue" d="M241.44,-67.06C257.12,-67.06 274.23,-67.06 290.35,-67.06"/>
<polygon fill="midnightblue" stroke="midnightblue" points="290.78,-70.56 300.78,-67.06 290.78,-63.56 290.78,-70.56"/>
</g>
<!-- Node5 -->
<g id="node5" class="node">
<title>Node5</title>
<g id="a_node5"><a xlink:href="namespaceanonymous__namespace_02materialUtil_8cpp_03.html#ac85a6f4a272ce35fea412770e2a94f4f" target="_top" xlink:title=" ">
<polygon fill="none" stroke="black" points="488,-398.56 488,-439.56 610,-439.56 610,-398.56 488,-398.56"/>
<text text-anchor="start" x="496" y="-427.56" font-family="Arial" font-size="10.00">anonymous_namespace</text>
<text text-anchor="start" x="496" y="-416.56" font-family="Arial" font-size="10.00">{materialUtil::cpp}</text>
<text text-anchor="middle" x="549" y="-405.56" font-family="Arial" font-size="10.00">::computeStateMxI</text>
</a>
</g>
</g>
<!-- Node4&#45;&gt;Node5 -->
<g id="edge4" class="edge">
<title>Node4&#45;&gt;Node5</title>
<path fill="none" stroke="midnightblue" d="M369.4,-266.59C385.31,-280.76 415.45,-308.55 438,-335.06 455.98,-356.19 452.56,-368.45 474,-386.06 477.09,-388.6 480.41,-390.98 483.86,-393.21"/>
<polygon fill="midnightblue" stroke="midnightblue" points="482.3,-396.35 492.69,-398.44 485.87,-390.33 482.3,-396.35"/>
</g>
<!-- Node8 -->
<g id="node8" class="node">
<title>Node8</title>
<g id="a_node8"><a xlink:href="namespaceutil_1_1parallel.html#a4ad550a438091fb9cd924783e690764d" target="_top" xlink:title="Get number of threads to be used by taskflow.">
<polygon fill="none" stroke="black" points="864.5,-245.56 864.5,-264.56 992.5,-264.56 992.5,-245.56 864.5,-245.56"/>
<text text-anchor="middle" x="928.5" y="-252.56" font-family="Arial" font-size="10.00">util::parallel::getNThreads</text>
</a>
</g>
</g>
<!-- Node4&#45;&gt;Node8 -->
<g id="edge7" class="edge">
<title>Node4&#45;&gt;Node8</title>
<path fill="none" stroke="midnightblue" d="M423.22,-256.83C529.85,-256.46 741.79,-255.71 853.94,-255.32"/>
<polygon fill="midnightblue" stroke="midnightblue" points="854.16,-258.82 864.15,-255.28 854.14,-251.82 854.16,-258.82"/>
</g>
<!-- Node6 -->
<g id="node6" class="node">
<title>Node6</title>
<g id="a_node6"><a xlink:href="namespaceutil.html#a227b5f8acbd7a403a033663c8893d631" target="_top" xlink:title="Returns true if a &gt; b.">
<polygon fill="none" stroke="black" points="697.5,-409.56 697.5,-428.56 772.5,-428.56 772.5,-409.56 697.5,-409.56"/>
<text text-anchor="middle" x="735" y="-416.56" font-family="Arial" font-size="10.00">util::isGreater</text>
</a>
</g>
</g>
<!-- Node5&#45;&gt;Node6 -->
<g id="edge5" class="edge">
<title>Node5&#45;&gt;Node6</title>
<path fill="none" stroke="midnightblue" d="M610.25,-419.06C635.26,-419.06 663.85,-419.06 687.24,-419.06"/>
<polygon fill="midnightblue" stroke="midnightblue" points="687.26,-422.56 697.26,-419.06 687.26,-415.56 687.26,-422.56"/>
</g>
<!-- Node7 -->
<g id="node7" class="node">
<title>Node7</title>
<g id="a_node7"><a xlink:href="namespaceutil.html#a868a26599b6b844d08d30063ac898319" target="_top" xlink:title="Returns true if a &lt; b.">
<polygon fill="none" stroke="black" points="896.5,-463.56 896.5,-482.56 960.5,-482.56 960.5,-463.56 896.5,-463.56"/>
<text text-anchor="middle" x="928.5" y="-470.56" font-family="Arial" font-size="10.00">util::isLess</text>
</a>
</g>
</g>
<!-- Node5&#45;&gt;Node7 -->
<g id="edge6" class="edge">
<title>Node5&#45;&gt;Node7</title>
<path fill="none" stroke="midnightblue" d="M610.16,-429.91C626.32,-432.7 643.81,-435.6 660,-438.06 739.88,-450.18 833.57,-461.86 886.18,-468.19"/>
<polygon fill="midnightblue" stroke="midnightblue" points="885.8,-471.66 896.14,-469.38 886.63,-464.71 885.8,-471.66"/>
</g>
<!-- Node11 -->
<g id="node11" class="node">
<title>Node11</title>
<g id="a_node11"><a xlink:href="classutil_1_1io_1_1Logger.html#a5d4600ff2841534892839c72a7f04547" target="_top" xlink:title="Log the message.">
<polygon fill="none" stroke="black" points="1047,-152.56 1047,-171.56 1144,-171.56 1144,-152.56 1047,-152.56"/>
<text text-anchor="middle" x="1095.5" y="-159.56" font-family="Arial" font-size="10.00">util::io::Logger::log</text>
</a>
</g>
</g>
<!-- Node10&#45;&gt;Node11 -->
<g id="edge10" class="edge">
<title>Node10&#45;&gt;Node11</title>
<path fill="none" stroke="midnightblue" d="M959.76,-162.06C981.28,-162.06 1010.86,-162.06 1036.81,-162.06"/>
<polygon fill="midnightblue" stroke="midnightblue" points="1036.93,-165.56 1046.93,-162.06 1036.93,-158.56 1036.93,-165.56"/>
</g>
<!-- Node13&#45;&gt;Node12 -->
<g id="edge56" class="edge">
<title>Node13&#45;&gt;Node12</title>
<path fill="none" stroke="midnightblue" d="M189.62,-190.28C202.35,-168.98 235.56,-118.14 277,-91.06 283.78,-86.63 291.41,-82.99 299.19,-80"/>
<polygon fill="midnightblue" stroke="midnightblue" points="300.43,-83.28 308.71,-76.68 298.12,-76.67 300.43,-83.28"/>
</g>
<!-- Node14 -->
<g id="node14" class="node">
<title>Node14</title>
<g id="a_node14"><a xlink:href="classmodel_1_1DEMModel.html#a3d7f1aa3dd1f1301e33ecb8841e3d07d" target="_top" xlink:title="Applies initial condition.">
<polygon fill="none" stroke="black" points="660,-147.06 660,-177.06 810,-177.06 810,-147.06 660,-147.06"/>
<text text-anchor="start" x="668" y="-165.06" font-family="Arial" font-size="10.00">model::DEMModel::applyInitial</text>
<text text-anchor="middle" x="735" y="-154.06" font-family="Arial" font-size="10.00">Condition</text>
</a>
</g>
</g>
<!-- Node13&#45;&gt;Node14 -->
<g id="edge13" class="edge">
<title>Node13&#45;&gt;Node14</title>
<path fill="none" stroke="midnightblue" d="M239.51,-196.22C336.15,-189.55 535.83,-175.75 649.67,-167.89"/>
<polygon fill="midnightblue" stroke="midnightblue" points="650.01,-171.37 659.74,-167.19 649.52,-164.39 650.01,-171.37"/>
</g>
<!-- Node15 -->
<g id="node15" class="node">
<title>Node15</title>
<g id="a_node15"><a xlink:href="classmodel_1_1DEMModel.html#aab949bf42c6adca878ebfe1210870f55" target="_top" xlink:title="Checks if simulation should be stopped due to abnormal state of system.">
<polygon fill="none" stroke="black" points="474,-300.56 474,-319.56 624,-319.56 624,-300.56 474,-300.56"/>
<text text-anchor="middle" x="549" y="-307.56" font-family="Arial" font-size="10.00">model::DEMModel::checkStop</text>
</a>
</g>
</g>
<!-- Node13&#45;&gt;Node15 -->
<g id="edge16" class="edge">
<title>Node13&#45;&gt;Node15</title>
<path fill="none" stroke="midnightblue" d="M192.33,-209.76C207.35,-226.51 240.78,-260.53 277,-276.06 336.08,-301.39 408.58,-309.42 463.72,-311.38"/>
<polygon fill="midnightblue" stroke="midnightblue" points="463.71,-314.88 473.81,-311.68 463.92,-307.88 463.71,-314.88"/>
</g>
<!-- Node18 -->
<g id="node18" class="node">
<title>Node18</title>
<g id="a_node18"><a xlink:href="classmodel_1_1DEMModel.html#a455fa17ac1ec01a2dce5646d8f19f0be" target="_top" xlink:title="Applies displacement boundary conditions.">
<polygon fill="none" stroke="black" points="478.5,-122.06 478.5,-152.06 619.5,-152.06 619.5,-122.06 478.5,-122.06"/>
<text text-anchor="start" x="486.5" y="-140.06" font-family="Arial" font-size="10.00">model::DEMModel::compute</text>
<text text-anchor="middle" x="549" y="-129.06" font-family="Arial" font-size="10.00">ExternalDisplacementBC</text>
</a>
</g>
</g>
<!-- Node13&#45;&gt;Node18 -->
<g id="edge21" class="edge">
<title>Node13&#45;&gt;Node18</title>
<path fill="none" stroke="midnightblue" d="M206.5,-190.42C225.07,-182.87 252.29,-172.73 277,-167.06 340.39,-152.51 413.8,-144.94 468.21,-141.04"/>
<polygon fill="midnightblue" stroke="midnightblue" points="468.75,-144.51 478.49,-140.33 468.27,-137.53 468.75,-144.51"/>
</g>
<!-- Node19 -->
<g id="node19" class="node">
<title>Node19</title>
<g id="a_node19"><a xlink:href="classmodel_1_1DEMModel.html#a097676df220204cfd44cc49110375e40" target="_top" xlink:title="Computes external/boundary condition forces.">
<polygon fill="none" stroke="black" points="664.5,-196.06 664.5,-226.06 805.5,-226.06 805.5,-196.06 664.5,-196.06"/>
<text text-anchor="start" x="672.5" y="-214.06" font-family="Arial" font-size="10.00">model::DEMModel::compute</text>
<text text-anchor="middle" x="735" y="-203.06" font-family="Arial" font-size="10.00">ExternalForces</text>
</a>
</g>
</g>
<!-- Node13&#45;&gt;Node19 -->
<g id="edge23" class="edge">
<title>Node13&#45;&gt;Node19</title>
<path fill="none" stroke="midnightblue" d="M239.51,-201.17C337.37,-203.13 540.91,-207.2 653.96,-209.46"/>
<polygon fill="midnightblue" stroke="midnightblue" points="654.21,-212.96 664.28,-209.66 654.35,-205.97 654.21,-212.96"/>
</g>
<!-- Node20 -->
<g id="node20" class="node">
<title>Node20</title>
<g id="a_node20"><a xlink:href="classmodel_1_1DEMModel.html#a482cc830bfc95a67f6c3c9e22999a115" target="_top" xlink:title="Performs one time step.">
<polygon fill="none" stroke="black" points="277,-382.56 277,-401.56 438,-401.56 438,-382.56 277,-382.56"/>
<text text-anchor="middle" x="357.5" y="-389.56" font-family="Arial" font-size="10.00">model::DEMModel::integrateStep</text>
</a>
</g>
</g>
<!-- Node13&#45;&gt;Node20 -->
<g id="edge26" class="edge">
<title>Node13&#45;&gt;Node20</title>
<path fill="none" stroke="midnightblue" d="M186.22,-209.73C193.53,-239.26 219.72,-328.96 277,-373.06 279.45,-374.95 282.06,-376.65 284.79,-378.19"/>
<polygon fill="midnightblue" stroke="midnightblue" points="283.29,-381.35 293.82,-382.55 286.34,-375.05 283.29,-381.35"/>
</g>
<!-- Node13&#45;&gt;Node21 -->
<g id="edge27" class="edge">
<title>Node13&#45;&gt;Node21</title>
<path fill="none" stroke="midnightblue" d="M195.16,-190.53C211.78,-176.9 244.6,-152.15 277,-140.06 408.93,-90.84 575.41,-80.94 666.62,-79.55"/>
<polygon fill="midnightblue" stroke="midnightblue" points="666.86,-83.05 676.82,-79.43 666.78,-76.05 666.86,-83.05"/>
</g>
<!-- Node22 -->
<g id="node22" class="node">
<title>Node22</title>
<g id="a_node22"><a xlink:href="classmodel_1_1DEMModel.html#a3652826a385051497907774640ed2044" target="_top" xlink:title="Output the snapshot of data at current time step.">
<polygon fill="none" stroke="black" points="483.5,-637.56 483.5,-656.56 614.5,-656.56 614.5,-637.56 483.5,-637.56"/>
<text text-anchor="middle" x="549" y="-644.56" font-family="Arial" font-size="10.00">model::DEMModel::output</text>
</a>
</g>
</g>
<!-- Node13&#45;&gt;Node22 -->
<g id="edge29" class="edge">
<title>Node13&#45;&gt;Node22</title>
<path fill="none" stroke="midnightblue" d="M186.67,-209.6C195.68,-240.74 227.22,-341.34 277,-411.06 348.99,-511.89 472.36,-598.29 524.08,-631.98"/>
<polygon fill="midnightblue" stroke="midnightblue" points="522.29,-635 532.59,-637.47 526.08,-629.11 522.29,-635"/>
</g>
<!-- Node36 -->
<g id="node36" class="node">
<title>Node36</title>
<g id="a_node36"><a xlink:href="classtwop_1_1Model.html#a23b0da94965bbb14e333d5518aaea9de" target="_top" xlink:title=" ">
<polygon fill="none" stroke="black" points="286,-344.56 286,-363.56 429,-363.56 429,-344.56 286,-344.56"/>
<text text-anchor="middle" x="357.5" y="-351.56" font-family="Arial" font-size="10.00">twop::Model::twoParticleTest</text>
</a>
</g>
</g>
<!-- Node13&#45;&gt;Node36 -->
<g id="edge57" class="edge">
<title>Node13&#45;&gt;Node36</title>
<path fill="none" stroke="midnightblue" d="M188.96,-209.7C201.04,-232.34 234.21,-289.46 277,-322.06 287.37,-329.96 299.94,-336.2 312.01,-340.99"/>
<polygon fill="midnightblue" stroke="midnightblue" points="310.93,-344.32 321.52,-344.52 313.37,-337.76 310.93,-344.32"/>
</g>
<!-- Node14&#45;&gt;Node8 -->
<g id="edge14" class="edge">
<title>Node14&#45;&gt;Node8</title>
<path fill="none" stroke="midnightblue" d="M785.1,-177.11C793.52,-180.13 802.09,-183.48 810,-187.06 844.31,-202.59 881.56,-225.23 904.72,-240.05"/>
<polygon fill="midnightblue" stroke="midnightblue" points="902.86,-243.01 913.16,-245.5 906.66,-237.13 902.86,-243.01"/>
</g>
<!-- Node14&#45;&gt;Node10 -->
<g id="edge15" class="edge">
<title>Node14&#45;&gt;Node10</title>
<path fill="none" stroke="midnightblue" d="M810.04,-162.06C836.21,-162.06 864.66,-162.06 887.01,-162.06"/>
<polygon fill="midnightblue" stroke="midnightblue" points="887.13,-165.56 897.13,-162.06 887.13,-158.56 887.13,-165.56"/>
</g>
<!-- Node15&#45;&gt;Node6 -->
<g id="edge17" class="edge">
<title>Node15&#45;&gt;Node6</title>
<path fill="none" stroke="midnightblue" d="M582.57,-319.66C595.8,-324.14 611,-330.04 624,-337.06 633.45,-342.16 684.18,-380.77 713.33,-403.14"/>
<polygon fill="midnightblue" stroke="midnightblue" points="711.56,-406.19 721.62,-409.51 715.82,-400.64 711.56,-406.19"/>
</g>
<!-- Node15&#45;&gt;Node10 -->
<g id="edge18" class="edge">
<title>Node15&#45;&gt;Node10</title>
<path fill="none" stroke="midnightblue" d="M598.88,-300.51C652.25,-289.1 739.5,-267.52 810,-236.06 845.96,-220.02 883.86,-194.33 906.59,-177.83"/>
<polygon fill="midnightblue" stroke="midnightblue" points="908.82,-180.53 914.8,-171.78 904.67,-174.89 908.82,-180.53"/>
</g>
<!-- Node16 -->
<g id="node16" class="node">
<title>Node16</title>
<g id="a_node16"><a xlink:href="namespaceutil_1_1methods.html#ae329ac81666051b0cdcca46bde4fb0a7" target="_top" xlink:title="Returns the maximum length of point and index from list of points.">
<polygon fill="none" stroke="black" points="671.5,-322.06 671.5,-352.06 798.5,-352.06 798.5,-322.06 671.5,-322.06"/>
<text text-anchor="start" x="679.5" y="-340.06" font-family="Arial" font-size="10.00">util::methods::maxLength</text>
<text text-anchor="middle" x="735" y="-329.06" font-family="Arial" font-size="10.00">AndMaxLengthIndex</text>
</a>
</g>
</g>
<!-- Node15&#45;&gt;Node16 -->
<g id="edge19" class="edge">
<title>Node15&#45;&gt;Node16</title>
<path fill="none" stroke="midnightblue" d="M614.87,-319.58C629.89,-321.78 645.98,-324.14 661.31,-326.39"/>
<polygon fill="midnightblue" stroke="midnightblue" points="660.86,-329.86 671.26,-327.85 661.87,-322.94 660.86,-329.86"/>
</g>
<!-- Node17 -->
<g id="node17" class="node">
<title>Node17</title>
<g id="a_node17"><a xlink:href="namespaceutil_1_1methods.html#afcbb8d0d56cac1187ad2945bd187f6cf" target="_top" xlink:title="Returns the index corresponding to maximum from list of data.">
<polygon fill="none" stroke="black" points="867.5,-376.56 867.5,-395.56 989.5,-395.56 989.5,-376.56 867.5,-376.56"/>
<text text-anchor="middle" x="928.5" y="-383.56" font-family="Arial" font-size="10.00">util::methods::maxIndex</text>
</a>
</g>
</g>
<!-- Node16&#45;&gt;Node17 -->
<g id="edge20" class="edge">
<title>Node16&#45;&gt;Node17</title>
<path fill="none" stroke="midnightblue" d="M794.76,-352.09C822.23,-359.12 854.49,-367.38 880.34,-373.99"/>
<polygon fill="midnightblue" stroke="midnightblue" points="879.71,-377.44 890.26,-376.53 881.44,-370.66 879.71,-377.44"/>
</g>
<!-- Node18&#45;&gt;Node10 -->
<g id="edge22" class="edge">
<title>Node18&#45;&gt;Node10</title>
<path fill="none" stroke="midnightblue" d="M619.73,-133.11C672.2,-131.1 745.81,-130.31 810,-137.06 836.08,-139.8 864.89,-145.88 887.45,-151.36"/>
<polygon fill="midnightblue" stroke="midnightblue" points="886.8,-154.8 897.35,-153.82 888.49,-148.01 886.8,-154.8"/>
</g>
<!-- Node19&#45;&gt;Node8 -->
<g id="edge24" class="edge">
<title>Node19&#45;&gt;Node8</title>
<path fill="none" stroke="midnightblue" d="M801.37,-226.08C825.81,-231.7 853.21,-237.99 876.2,-243.27"/>
<polygon fill="midnightblue" stroke="midnightblue" points="875.57,-246.72 886.1,-245.55 877.14,-239.9 875.57,-246.72"/>
</g>
<!-- Node19&#45;&gt;Node10 -->
<g id="edge25" class="edge">
<title>Node19&#45;&gt;Node10</title>
<path fill="none" stroke="midnightblue" d="M794.76,-196.02C824.88,-188.32 860.78,-179.13 887.64,-172.26"/>
<polygon fill="midnightblue" stroke="midnightblue" points="888.65,-175.61 897.47,-169.74 886.91,-168.83 888.65,-175.61"/>
</g>
<!-- Node21&#45;&gt;Node10 -->
<g id="edge28" class="edge">
<title>Node21&#45;&gt;Node10</title>
<path fill="none" stroke="midnightblue" d="M768.79,-89.57C781.77,-93.63 796.74,-98.67 810,-104.06 842.04,-117.08 877.47,-135.1 900.96,-147.58"/>
<polygon fill="midnightblue" stroke="midnightblue" points="899.49,-150.76 909.95,-152.4 902.79,-144.59 899.49,-150.76"/>
</g>
<!-- Node22&#45;&gt;Node10 -->
<g id="edge51" class="edge">
<title>Node22&#45;&gt;Node10</title>
<path fill="none" stroke="midnightblue" d="M565.2,-637.4C580.7,-627.24 605.1,-610.33 624,-593.06 641.9,-576.7 639.32,-564.72 660,-552.06 718.66,-516.16 764.36,-565.5 810,-514.06 892.69,-420.87 788.34,-346.5 846,-236.06 858.98,-211.2 883.86,-190.52 902.74,-177.4"/>
<polygon fill="midnightblue" stroke="midnightblue" points="904.81,-180.22 911.18,-171.75 900.92,-174.4 904.81,-180.22"/>
</g>
<!-- Node23 -->
<g id="node23" class="node">
<title>Node23</title>
<g id="a_node23"><a xlink:href="namespacefe.html#aeecd141ec0e6723bdddd740903cb95f8" target="_top" xlink:title="Get current location of quadrature points of elements in the mesh. This function expects mesh has ele...">
<polygon fill="none" stroke="black" points="671,-675.56 671,-694.56 799,-694.56 799,-675.56 671,-675.56"/>
<text text-anchor="middle" x="735" y="-682.56" font-family="Arial" font-size="10.00">fe::getCurrentQuadPoints</text>
</a>
</g>
</g>
<!-- Node22&#45;&gt;Node23 -->
<g id="edge30" class="edge">
<title>Node22&#45;&gt;Node23</title>
<path fill="none" stroke="midnightblue" d="M596.43,-656.65C621.15,-661.75 651.74,-668.07 677.79,-673.45"/>
<polygon fill="midnightblue" stroke="midnightblue" points="677.4,-676.94 687.9,-675.54 678.82,-670.09 677.4,-676.94"/>
</g>
<!-- Node29 -->
<g id="node29" class="node">
<title>Node29</title>
<g id="a_node29"><a xlink:href="namespacefe.html#a7beb694686b61d7cda5b67aa4bc01104" target="_top" xlink:title="Strain and stress at quadrature points in the mesh.">
<polygon fill="none" stroke="black" points="686,-599.56 686,-618.56 784,-618.56 784,-599.56 686,-599.56"/>
<text text-anchor="middle" x="735" y="-606.56" font-family="Arial" font-size="10.00">fe::getStrainStress</text>
</a>
</g>
</g>
<!-- Node22&#45;&gt;Node29 -->
<g id="edge38" class="edge">
<title>Node22&#45;&gt;Node29</title>
<path fill="none" stroke="midnightblue" d="M596.43,-637.47C621.15,-632.37 651.74,-626.05 677.79,-620.67"/>
<polygon fill="midnightblue" stroke="midnightblue" points="678.82,-624.03 687.9,-618.58 677.4,-617.17 678.82,-624.03"/>
</g>
<!-- Node31 -->
<g id="node31" class="node">
<title>Node31</title>
<g id="a_node31"><a xlink:href="namespaceutil_1_1io.html#a38afb09a152cca4061850f4123bd3aeb" target="_top" xlink:title="Returns tab spaces of given size.">
<polygon fill="none" stroke="black" points="886,-798.56 886,-817.56 971,-817.56 971,-798.56 886,-798.56"/>
<text text-anchor="middle" x="928.5" y="-805.56" font-family="Arial" font-size="10.00">util::io::getTabS</text>
</a>
</g>
</g>
<!-- Node22&#45;&gt;Node31 -->
<g id="edge48" class="edge">
<title>Node22&#45;&gt;Node31</title>
<path fill="none" stroke="midnightblue" d="M558.33,-656.8C575.38,-676.11 616.35,-719.34 660,-742.06 729.7,-778.34 820.1,-795.24 875.93,-802.69"/>
<polygon fill="midnightblue" stroke="midnightblue" points="875.58,-806.17 885.94,-803.97 876.47,-799.23 875.58,-806.17"/>
</g>
<!-- Node32 -->
<g id="node32" class="node">
<title>Node32</title>
<g id="a_node32"><a xlink:href="namespaceutil_1_1methods.html#ab21bec324f7d53e91378acc142303fb3" target="_top" xlink:title="Returns true if tag is found in the list of tags.">
<polygon fill="none" stroke="black" points="672,-833.56 672,-852.56 798,-852.56 798,-833.56 672,-833.56"/>
<text text-anchor="middle" x="735" y="-840.56" font-family="Arial" font-size="10.00">util::methods::isTagInList</text>
</a>
</g>
</g>
<!-- Node22&#45;&gt;Node32 -->
<g id="edge49" class="edge">
<title>Node22&#45;&gt;Node32</title>
<path fill="none" stroke="midnightblue" d="M557.64,-656.71C575.04,-678.51 619.26,-732.94 660,-775.06 677.91,-793.58 699.78,-813.36 715.08,-826.78"/>
<polygon fill="midnightblue" stroke="midnightblue" points="713,-829.61 722.84,-833.54 717.6,-824.33 713,-829.61"/>
</g>
<!-- Node34 -->
<g id="node34" class="node">
<title>Node34</title>
<g id="a_node34"><a xlink:href="namespaceutil_1_1methods.html#a7ad94e441da65fc0f1cafe183fa252fe" target="_top" xlink:title="Returns the maximum from list of data.">
<polygon fill="none" stroke="black" points="686,-561.56 686,-580.56 784,-580.56 784,-561.56 686,-561.56"/>
<text text-anchor="middle" x="735" y="-568.56" font-family="Arial" font-size="10.00">util::methods::max</text>
</a>
</g>
</g>
<!-- Node22&#45;&gt;Node34 -->
<g id="edge52" class="edge">
<title>Node22&#45;&gt;Node34</title>
<path fill="none" stroke="midnightblue" d="M565.87,-637.37C586.78,-624.94 625.04,-603.41 660,-590.06 666.41,-587.61 673.25,-585.38 680.09,-583.37"/>
<polygon fill="midnightblue" stroke="midnightblue" points="681.36,-586.65 690.05,-580.59 679.48,-579.91 681.36,-586.65"/>
</g>
<!-- Node35 -->
<g id="node35" class="node">
<title>Node35</title>
<g id="a_node35"><a xlink:href="namespaceutil_1_1io.html#a3e537e3bd778616255015cde6e60a30a" target="_top" xlink:title="Returns formatted string for output.">
<polygon fill="none" stroke="black" points="695,-713.56 695,-732.56 775,-732.56 775,-713.56 695,-713.56"/>
<text text-anchor="middle" x="735" y="-720.56" font-family="Arial" font-size="10.00">util::io::printStr</text>
</a>
</g>
</g>
<!-- Node22&#45;&gt;Node35 -->
<g id="edge54" class="edge">
<title>Node22&#45;&gt;Node35</title>
<path fill="none" stroke="midnightblue" d="M565.87,-656.75C586.78,-669.18 625.04,-690.71 660,-704.06 667.93,-707.09 676.51,-709.79 684.93,-712.13"/>
<polygon fill="midnightblue" stroke="midnightblue" points="684.13,-715.54 694.69,-714.73 685.93,-708.78 684.13,-715.54"/>
</g>
<!-- Node23&#45;&gt;Node2 -->
<g id="edge36" class="edge">
<title>Node23&#45;&gt;Node2</title>
<path fill="none" stroke="midnightblue" d="M787.51,-694.57C795.31,-697.05 803.06,-700.16 810,-704.06 829.46,-714.98 826.8,-727.69 846,-739.06 849.65,-741.22 853.51,-743.21 857.48,-745.05"/>
<polygon fill="midnightblue" stroke="midnightblue" points="856.34,-748.36 866.91,-749.04 859.07,-741.92 856.34,-748.36"/>
</g>
<!-- Node23&#45;&gt;Node8 -->
<g id="edge33" class="edge">
<title>Node23&#45;&gt;Node8</title>
<path fill="none" stroke="midnightblue" d="M798.37,-675.44C802.71,-672.93 806.68,-669.85 810,-666.06 854.11,-615.73 821.52,-429.35 846,-367.06 860.83,-329.32 891.48,-292.71 910.68,-272.11"/>
<polygon fill="midnightblue" stroke="midnightblue" points="913.29,-274.44 917.65,-264.79 908.22,-269.61 913.29,-274.44"/>
</g>
<!-- Node24 -->
<g id="node24" class="node">
<title>Node24</title>
<g id="a_node24"><a xlink:href="classfe_1_1Mesh.html#a1a8e60058a620684d1d7168fbc43c9e3" target="_top" xlink:title="Get the connectivity of element.">
<polygon fill="none" stroke="black" points="846,-672.56 846,-691.56 1011,-691.56 1011,-672.56 846,-672.56"/>
<text text-anchor="middle" x="928.5" y="-679.56" font-family="Arial" font-size="10.00">fe::Mesh::getElementConnectivity</text>
</a>
</g>
</g>
<!-- Node23&#45;&gt;Node24 -->
<g id="edge31" class="edge">
<title>Node23&#45;&gt;Node24</title>
<path fill="none" stroke="midnightblue" d="M799.23,-684.07C810.9,-683.89 823.29,-683.69 835.59,-683.5"/>
<polygon fill="midnightblue" stroke="midnightblue" points="835.95,-686.99 845.89,-683.34 835.84,-679.99 835.95,-686.99"/>
</g>
<!-- Node25 -->
<g id="node25" class="node">
<title>Node25</title>
<g id="a_node25"><a xlink:href="classfe_1_1Mesh.html#a55b3e75c83f467a678b3f775a6ac0dec" target="_top" xlink:title="Get the type of element in mesh.">
<polygon fill="none" stroke="black" points="863,-634.56 863,-653.56 994,-653.56 994,-634.56 863,-634.56"/>
<text text-anchor="middle" x="928.5" y="-641.56" font-family="Arial" font-size="10.00">fe::Mesh::getElementType</text>
</a>
</g>
</g>
<!-- Node23&#45;&gt;Node25 -->
<g id="edge32" class="edge">
<title>Node23&#45;&gt;Node25</title>
<path fill="none" stroke="midnightblue" d="M780.42,-675.55C807.99,-669.65 843.63,-662.02 872.92,-655.74"/>
<polygon fill="midnightblue" stroke="midnightblue" points="873.95,-659.1 882.99,-653.59 872.48,-652.26 873.95,-659.1"/>
</g>
<!-- Node26 -->
<g id="node26" class="node">
<title>Node26</title>
<g id="a_node26"><a xlink:href="classfe_1_1Mesh.html#ab168daf41aec75099948a519d1a252ad" target="_top" xlink:title="Get the number of elements.">
<polygon fill="none" stroke="black" points="860,-596.56 860,-615.56 997,-615.56 997,-596.56 860,-596.56"/>
<text text-anchor="middle" x="928.5" y="-603.56" font-family="Arial" font-size="10.00">fe::Mesh::getNumElements</text>
</a>
</g>
</g>
<!-- Node23&#45;&gt;Node26 -->
<g id="edge34" class="edge">
<title>Node23&#45;&gt;Node26</title>
<path fill="none" stroke="midnightblue" d="M789.34,-675.51C796.57,-673.04 803.67,-669.95 810,-666.06 830.66,-653.37 825.2,-637.52 846,-625.06 849.65,-622.88 853.52,-620.94 857.53,-619.23"/>
<polygon fill="midnightblue" stroke="midnightblue" points="858.95,-622.44 867.07,-615.63 856.48,-615.89 858.95,-622.44"/>
</g>
<!-- Node27 -->
<g id="node27" class="node">
<title>Node27</title>
<g id="a_node27"><a xlink:href="classfe_1_1Mesh.html#aac3df3472139b865eda7406c1d1c3d77" target="_top" xlink:title="Get the number of nodes.">
<polygon fill="none" stroke="black" points="866.5,-558.56 866.5,-577.56 990.5,-577.56 990.5,-558.56 866.5,-558.56"/>
<text text-anchor="middle" x="928.5" y="-565.56" font-family="Arial" font-size="10.00">fe::Mesh::getNumNodes</text>
</a>
</g>
</g>
<!-- Node23&#45;&gt;Node27 -->
<g id="edge35" class="edge">
<title>Node23&#45;&gt;Node27</title>
<path fill="none" stroke="midnightblue" d="M794.62,-675.43C800.17,-672.96 805.42,-669.89 810,-666.06 839.58,-641.28 816.15,-611.5 846,-587.06 849.35,-584.32 853.03,-581.95 856.91,-579.92"/>
<polygon fill="midnightblue" stroke="midnightblue" points="858.56,-583.02 866.27,-575.75 855.71,-576.62 858.56,-583.02"/>
</g>
<!-- Node28 -->
<g id="node28" class="node">
<title>Node28</title>
<g id="a_node28"><a xlink:href="classfe_1_1BaseElem.html#aed3b89970eaa620ed616212b1811f140" target="_top" xlink:title="Get vector of quadrature data.">
<polygon fill="none" stroke="black" points="856,-710.56 856,-729.56 1001,-729.56 1001,-710.56 856,-710.56"/>
<text text-anchor="middle" x="928.5" y="-717.56" font-family="Arial" font-size="10.00">fe::BaseElem::getQuadDatas</text>
</a>
</g>
</g>
<!-- Node23&#45;&gt;Node28 -->
<g id="edge37" class="edge">
<title>Node23&#45;&gt;Node28</title>
<path fill="none" stroke="midnightblue" d="M788.08,-694.58C811.92,-698.94 840.37,-704.14 865.34,-708.7"/>
<polygon fill="midnightblue" stroke="midnightblue" points="864.97,-712.19 875.44,-710.54 866.23,-705.3 864.97,-712.19"/>
</g>
<!-- Node29&#45;&gt;Node2 -->
<g id="edge45" class="edge">
<title>Node29&#45;&gt;Node2</title>
<path fill="none" stroke="midnightblue" d="M784.18,-614.02C793.65,-616.92 802.85,-621.34 810,-628.06 847.8,-663.57 809.04,-702.68 846,-739.06 847.46,-740.5 849.01,-741.86 850.62,-743.14"/>
<polygon fill="midnightblue" stroke="midnightblue" points="848.94,-746.22 859.18,-748.91 852.85,-740.42 848.94,-746.22"/>
</g>
<!-- Node29&#45;&gt;Node7 -->
<g id="edge47" class="edge">
<title>Node29&#45;&gt;Node7</title>
<path fill="none" stroke="midnightblue" d="M784,-603.34C793.37,-600.49 802.58,-596.28 810,-590.06 839.58,-565.28 818.84,-538.46 846,-511.06 857.16,-499.8 872.3,-491.49 886.49,-485.57"/>
<polygon fill="midnightblue" stroke="midnightblue" points="888.05,-488.72 896.11,-481.84 885.52,-482.19 888.05,-488.72"/>
</g>
<!-- Node29&#45;&gt;Node8 -->
<g id="edge42" class="edge">
<title>Node29&#45;&gt;Node8</title>
<path fill="none" stroke="midnightblue" d="M784.23,-605.13C793.92,-602.2 803.2,-597.51 810,-590.06 877.68,-515.91 807.41,-459.74 846,-367.06 861.67,-329.43 892.32,-292.53 911.24,-271.89"/>
<polygon fill="midnightblue" stroke="midnightblue" points="913.82,-274.26 918.09,-264.57 908.71,-269.48 913.82,-274.26"/>
</g>
<!-- Node29&#45;&gt;Node24 -->
<g id="edge40" class="edge">
<title>Node29&#45;&gt;Node24</title>
<path fill="none" stroke="midnightblue" d="M784.38,-617.61C793.23,-620.24 802.13,-623.65 810,-628.06 829.46,-638.98 826.42,-652.36 846,-663.06 850.24,-665.38 854.75,-667.41 859.4,-669.2"/>
<polygon fill="midnightblue" stroke="midnightblue" points="858.47,-672.58 869.07,-672.53 860.75,-665.97 858.47,-672.58"/>
</g>
<!-- Node29&#45;&gt;Node25 -->
<g id="edge41" class="edge">
<title>Node29&#45;&gt;Node25</title>
<path fill="none" stroke="midnightblue" d="M784.32,-617.89C808.98,-622.4 839.26,-627.93 865.61,-632.75"/>
<polygon fill="midnightblue" stroke="midnightblue" points="865.03,-636.2 875.5,-634.55 866.29,-629.31 865.03,-636.2"/>
</g>
<!-- Node29&#45;&gt;Node26 -->
<g id="edge43" class="edge">
<title>Node29&#45;&gt;Node26</title>
<path fill="none" stroke="midnightblue" d="M784.32,-608.3C804.12,-607.99 827.53,-607.63 849.62,-607.28"/>
<polygon fill="midnightblue" stroke="midnightblue" points="849.72,-610.78 859.66,-607.12 849.61,-603.78 849.72,-610.78"/>
</g>
<!-- Node29&#45;&gt;Node27 -->
<g id="edge44" class="edge">
<title>Node29&#45;&gt;Node27</title>
<path fill="none" stroke="midnightblue" d="M780.42,-599.55C807.99,-593.65 843.63,-586.02 872.92,-579.74"/>
<polygon fill="midnightblue" stroke="midnightblue" points="873.95,-583.1 882.99,-577.59 872.48,-576.26 873.95,-583.1"/>
</g>
<!-- Node29&#45;&gt;Node28 -->
<g id="edge46" class="edge">
<title>Node29&#45;&gt;Node28</title>
<path fill="none" stroke="midnightblue" d="M784.24,-615.07C793.49,-617.9 802.59,-622.04 810,-628.06 838.08,-650.86 817.66,-678.57 846,-701.06 848.29,-702.88 850.73,-704.53 853.28,-706.03"/>
<polygon fill="midnightblue" stroke="midnightblue" points="851.78,-709.19 862.29,-710.55 854.92,-702.94 851.78,-709.19"/>
</g>
<!-- Node30 -->
<g id="node30" class="node">
<title>Node30</title>
<g id="a_node30"><a xlink:href="classfe_1_1Mesh.html#ace82526bc83fe9fd574dc5daf2a10433" target="_top" xlink:title="Get the dimension of the domain.">
<polygon fill="none" stroke="black" points="868,-520.56 868,-539.56 989,-539.56 989,-520.56 868,-520.56"/>
<text text-anchor="middle" x="928.5" y="-527.56" font-family="Arial" font-size="10.00">fe::Mesh::getDimension</text>
</a>
</g>
</g>
<!-- Node29&#45;&gt;Node30 -->
<g id="edge39" class="edge">
<title>Node29&#45;&gt;Node30</title>
<path fill="none" stroke="midnightblue" d="M784.29,-601.12C793.23,-598.44 802.2,-594.85 810,-590.06 830.66,-577.37 825.2,-561.52 846,-549.06 849.89,-546.73 854.05,-544.68 858.34,-542.89"/>
<polygon fill="midnightblue" stroke="midnightblue" points="859.75,-546.1 867.92,-539.35 857.33,-539.53 859.75,-546.1"/>
</g>
<!-- Node33 -->
<g id="node33" class="node">
<title>Node33</title>
<g id="a_node33"><a xlink:href="namespaceutil_1_1methods.html#a86460acadab9a2e99a92121c0213e444" target="_top" xlink:title="Find if data is in the list.">
<polygon fill="none" stroke="black" points="873.5,-836.56 873.5,-855.56 983.5,-855.56 983.5,-836.56 873.5,-836.56"/>
<text text-anchor="middle" x="928.5" y="-843.56" font-family="Arial" font-size="10.00">util::methods::isInList</text>
</a>
</g>
</g>
<!-- Node32&#45;&gt;Node33 -->
<g id="edge50" class="edge">
<title>Node32&#45;&gt;Node33</title>
<path fill="none" stroke="midnightblue" d="M798.17,-844.03C819.01,-844.36 842.27,-844.72 863.26,-845.05"/>
<polygon fill="midnightblue" stroke="midnightblue" points="863.31,-848.55 873.37,-845.21 863.42,-841.55 863.31,-848.55"/>
</g>
<!-- Node34&#45;&gt;Node17 -->
<g id="edge53" class="edge">
<title>Node34&#45;&gt;Node17</title>
<path fill="none" stroke="midnightblue" d="M784.01,-562.33C793.49,-558.83 802.74,-553.93 810,-547.06 842.2,-516.6 820.16,-490.07 846,-454.06 861.37,-432.64 885.01,-413.92 902.88,-401.58"/>
<polygon fill="midnightblue" stroke="midnightblue" points="905.27,-404.2 911.63,-395.72 901.37,-398.38 905.27,-404.2"/>
</g>
<!-- Node35&#45;&gt;Node31 -->
<g id="edge55" class="edge">
<title>Node35&#45;&gt;Node31</title>
<path fill="none" stroke="midnightblue" d="M775.09,-731.39C786.92,-735.02 799.55,-740.09 810,-747.06 830.46,-760.69 824.98,-776.3 846,-789.06 855.04,-794.54 865.52,-798.45 875.89,-801.22"/>
<polygon fill="midnightblue" stroke="midnightblue" points="875.22,-804.66 885.76,-803.55 876.83,-797.85 875.22,-804.66"/>
</g>
<!-- Node37 -->
<g id="node37" class="node">
<title>Node37</title>
<g id="a_node37"><a xlink:href="classtwop_1_1Model.html#a454cfb729da066399218945d86142e88" target="_top" xlink:title=" ">
<polygon fill="none" stroke="black" points="486.5,-553.06 486.5,-583.06 611.5,-583.06 611.5,-553.06 486.5,-553.06"/>
<text text-anchor="start" x="494.5" y="-571.06" font-family="Arial" font-size="10.00">twop::Model::twoParticle</text>
<text text-anchor="middle" x="549" y="-560.06" font-family="Arial" font-size="10.00">TestMaxShearStress</text>
</a>
</g>
</g>
<!-- Node36&#45;&gt;Node37 -->
<g id="edge58" class="edge">
<title>Node36&#45;&gt;Node37</title>
<path fill="none" stroke="midnightblue" d="M422.18,-363.65C427.87,-366.13 433.26,-369.22 438,-373.06 467.03,-396.6 456.1,-416.25 474,-449.06 492.51,-483 516.55,-520.65 532.13,-544.34"/>
<polygon fill="midnightblue" stroke="midnightblue" points="529.42,-546.58 537.85,-552.99 535.25,-542.72 529.42,-546.58"/>
</g>
<!-- Node40 -->
<g id="node40" class="node">
<title>Node40</title>
<g id="a_node40"><a xlink:href="classtwop_1_1Model.html#a7a169b90fc51dc80a2e882165946a260" target="_top" xlink:title=" ">
<polygon fill="none" stroke="black" points="486.5,-346.06 486.5,-376.06 611.5,-376.06 611.5,-346.06 486.5,-346.06"/>
<text text-anchor="start" x="494.5" y="-364.06" font-family="Arial" font-size="10.00">twop::Model::twoParticle</text>
<text text-anchor="middle" x="549" y="-353.06" font-family="Arial" font-size="10.00">TestPenetrationDist</text>
</a>
</g>
</g>
<!-- Node36&#45;&gt;Node40 -->
<g id="edge72" class="edge">
<title>Node36&#45;&gt;Node40</title>
<path fill="none" stroke="midnightblue" d="M429.06,-356.67C444.51,-357.24 460.89,-357.84 476.38,-358.41"/>
<polygon fill="midnightblue" stroke="midnightblue" points="476.29,-361.91 486.41,-358.78 476.55,-354.92 476.29,-361.91"/>
</g>
<!-- Node37&#45;&gt;Node6 -->
<g id="edge71" class="edge">
<title>Node37&#45;&gt;Node6</title>
<path fill="none" stroke="midnightblue" d="M567.73,-552.86C589.32,-534.43 627,-502.55 660,-476.06 677.76,-461.8 698.3,-446.03 713.23,-434.7"/>
<polygon fill="midnightblue" stroke="midnightblue" points="715.45,-437.41 721.31,-428.59 711.22,-431.83 715.45,-437.41"/>
</g>
<!-- Node37&#45;&gt;Node23 -->
<g id="edge59" class="edge">
<title>Node37&#45;&gt;Node23</title>
<path fill="none" stroke="midnightblue" d="M570.06,-583.17C585.29,-594.92 606.52,-611.88 624,-628.06 641.07,-643.86 639.95,-654.26 660,-666.06 663.83,-668.31 667.93,-670.31 672.16,-672.06"/>
<polygon fill="midnightblue" stroke="midnightblue" points="670.98,-675.36 681.57,-675.54 673.41,-668.79 670.98,-675.36"/>
</g>
<!-- Node37&#45;&gt;Node29 -->
<g id="edge70" class="edge">
<title>Node37&#45;&gt;Node29</title>
<path fill="none" stroke="midnightblue" d="M611.53,-581.77C634.07,-586.79 659.37,-592.43 681.1,-597.27"/>
<polygon fill="midnightblue" stroke="midnightblue" points="680.61,-600.75 691.13,-599.51 682.13,-593.91 680.61,-600.75"/>
</g>
<!-- Node38 -->
<g id="node38" class="node">
<title>Node38</title>
<g id="a_node38"><a xlink:href="classinp_1_1Input.html#a1a1ef18db478a641f1aa86bdd1ccd3ac" target="_top" xlink:title="Get the pointer to material deck.">
<polygon fill="none" stroke="black" points="668,-485.56 668,-504.56 802,-504.56 802,-485.56 668,-485.56"/>
<text text-anchor="middle" x="735" y="-492.56" font-family="Arial" font-size="10.00">inp::Input::getMaterialDeck</text>
</a>
</g>
</g>
<!-- Node37&#45;&gt;Node38 -->
<g id="edge60" class="edge">
<title>Node37&#45;&gt;Node38</title>
<path fill="none" stroke="midnightblue" d="M581.4,-553.01C603.2,-542.83 633.06,-529.39 660,-519.06 670.43,-515.06 681.84,-511.14 692.51,-507.66"/>
<polygon fill="midnightblue" stroke="midnightblue" points="693.6,-510.99 702.05,-504.61 691.46,-504.33 693.6,-510.99"/>
</g>
<!-- Node39 -->
<g id="node39" class="node">
<title>Node39</title>
<g id="a_node39"><a xlink:href="namespacefe.html#a09527ce4f52ec0da5f9cf970ac08f542" target="_top" xlink:title="Get location where maximum of specified component of stress occurs in this particle.">
<polygon fill="none" stroke="black" points="660,-637.56 660,-656.56 810,-656.56 810,-637.56 660,-637.56"/>
<text text-anchor="middle" x="735" y="-644.56" font-family="Arial" font-size="10.00">fe::getMaxShearStressAndLoc</text>
</a>
</g>
</g>
<!-- Node37&#45;&gt;Node39 -->
<g id="edge61" class="edge">
<title>Node37&#45;&gt;Node39</title>
<path fill="none" stroke="midnightblue" d="M573.63,-583.2C595.36,-596.56 628.83,-615.78 660,-628.06 666.22,-630.51 672.86,-632.73 679.51,-634.72"/>
<polygon fill="midnightblue" stroke="midnightblue" points="678.64,-638.11 689.21,-637.47 680.54,-631.38 678.64,-638.11"/>
</g>
<!-- Node39&#45;&gt;Node2 -->
<g id="edge67" class="edge">
<title>Node39&#45;&gt;Node2</title>
<path fill="none" stroke="midnightblue" d="M794.13,-656.68C799.84,-659.14 805.26,-662.21 810,-666.06 838.08,-688.86 818.45,-715.61 846,-739.06 847.97,-740.74 850.06,-742.3 852.23,-743.76"/>
<polygon fill="midnightblue" stroke="midnightblue" points="850.58,-746.86 860.98,-748.89 854.12,-740.82 850.58,-746.86"/>
</g>
<!-- Node39&#45;&gt;Node7 -->
<g id="edge69" class="edge">
<title>Node39&#45;&gt;Node7</title>
<path fill="none" stroke="midnightblue" d="M796.23,-637.49C801.27,-635 805.97,-631.9 810,-628.06 849.37,-590.51 810.27,-552.09 846,-511.06 856.68,-498.79 872.17,-490.22 886.78,-484.36"/>
<polygon fill="midnightblue" stroke="midnightblue" points="888.02,-487.63 896.19,-480.89 885.6,-481.06 888.02,-487.63"/>
</g>
<!-- Node39&#45;&gt;Node24 -->
<g id="edge63" class="edge">
<title>Node39&#45;&gt;Node24</title>
<path fill="none" stroke="midnightblue" d="M788.08,-656.58C811.92,-660.94 840.37,-666.14 865.34,-670.7"/>
<polygon fill="midnightblue" stroke="midnightblue" points="864.97,-674.19 875.44,-672.54 866.23,-667.3 864.97,-674.19"/>
</g>
<!-- Node39&#45;&gt;Node25 -->
<g id="edge64" class="edge">
<title>Node39&#45;&gt;Node25</title>
<path fill="none" stroke="midnightblue" d="M810.04,-645.9C824.01,-645.68 838.64,-645.45 852.64,-645.23"/>
<polygon fill="midnightblue" stroke="midnightblue" points="852.76,-648.73 862.7,-645.07 852.65,-641.73 852.76,-648.73"/>
</g>
<!-- Node39&#45;&gt;Node26 -->
<g id="edge65" class="edge">
<title>Node39&#45;&gt;Node26</title>
<path fill="none" stroke="midnightblue" d="M780.42,-637.55C807.99,-631.65 843.63,-624.02 872.92,-617.74"/>
<polygon fill="midnightblue" stroke="midnightblue" points="873.95,-621.1 882.99,-615.59 872.48,-614.26 873.95,-621.1"/>
</g>
<!-- Node39&#45;&gt;Node27 -->
<g id="edge66" class="edge">
<title>Node39&#45;&gt;Node27</title>
<path fill="none" stroke="midnightblue" d="M789.34,-637.51C796.57,-635.04 803.67,-631.95 810,-628.06 830.66,-615.37 825.2,-599.52 846,-587.06 849.65,-584.88 853.52,-582.94 857.53,-581.23"/>
<polygon fill="midnightblue" stroke="midnightblue" points="858.95,-584.44 867.07,-577.63 856.48,-577.89 858.95,-584.44"/>
</g>
<!-- Node39&#45;&gt;Node28 -->
<g id="edge68" class="edge">
<title>Node39&#45;&gt;Node28</title>
<path fill="none" stroke="midnightblue" d="M787.51,-656.57C795.31,-659.05 803.06,-662.16 810,-666.06 829.46,-676.98 826.42,-690.36 846,-701.06 850.24,-703.38 854.75,-705.41 859.4,-707.2"/>
<polygon fill="midnightblue" stroke="midnightblue" points="858.47,-710.58 869.07,-710.53 860.75,-703.97 858.47,-710.58"/>
</g>
<!-- Node39&#45;&gt;Node30 -->
<g id="edge62" class="edge">
<title>Node39&#45;&gt;Node30</title>
<path fill="none" stroke="midnightblue" d="M794.62,-637.43C800.17,-634.96 805.42,-631.89 810,-628.06 839.58,-603.28 816.15,-573.5 846,-549.06 849.8,-545.94 854.03,-543.32 858.49,-541.11"/>
<polygon fill="midnightblue" stroke="midnightblue" points="860.08,-544.24 867.94,-537.14 857.36,-537.79 860.08,-544.24"/>
</g>
<!-- Node40&#45;&gt;Node6 -->
<g id="edge73" class="edge">
<title>Node40&#45;&gt;Node6</title>
<path fill="none" stroke="midnightblue" d="M597.86,-376.15C627.77,-385.57 665.84,-397.57 694.11,-406.48"/>
<polygon fill="midnightblue" stroke="midnightblue" points="693.08,-409.83 703.67,-409.5 695.18,-403.15 693.08,-409.83"/>
</g>
<!-- Node40&#45;&gt;Node7 -->
<g id="edge74" class="edge">
<title>Node40&#45;&gt;Node7</title>
<path fill="none" stroke="midnightblue" d="M611.63,-363.28C665.43,-366.85 744.88,-376.11 810,-400.06 847.21,-413.74 885.29,-440.14 907.65,-457.16"/>
<polygon fill="midnightblue" stroke="midnightblue" points="905.63,-460.02 915.68,-463.39 909.92,-454.49 905.63,-460.02"/>
</g>
<!-- Node40&#45;&gt;Node21 -->
<g id="edge75" class="edge">
<title>Node40&#45;&gt;Node21</title>
<path fill="none" stroke="midnightblue" d="M603,-345.87C610.99,-341.56 618.41,-336.06 624,-329.06 678.19,-261.22 614.63,-211.08 660,-137.06 670.98,-119.14 689.8,-104.76 705.72,-94.93"/>
<polygon fill="midnightblue" stroke="midnightblue" points="707.82,-97.75 714.67,-89.67 704.27,-91.72 707.82,-97.75"/>
</g>
</g>
</svg>
