<?xml version="1.0" encoding="UTF-8" standalone="no"?>
<!DOCTYPE svg PUBLIC "-//W3C//DTD SVG 1.1//EN"
 "http://www.w3.org/Graphics/SVG/1.1/DTD/svg11.dtd">
<!-- Generated by graphviz version 2.43.0 (0)
 -->
<!-- Title: fe::Mesh::readElementData Pages: 1 -->
<svg width="458pt" height="142pt"
 viewBox="0.00 0.00 458.00 142.00" xmlns="http://www.w3.org/2000/svg" xmlns:xlink="http://www.w3.org/1999/xlink">
<g id="graph0" class="graph" transform="scale(1 1) rotate(0) translate(4 138)">
<title>fe::Mesh::readElementData</title>
<!-- Node1 -->
<g id="node1" class="node">
<title>Node1</title>
<g id="a_node1"><a xlink:title="Reads element&#45;node connectivity data from file. This function is meant for cases when mesh was create...">
<polygon fill="#bfbfbf" stroke="black" points="0,-57.5 0,-76.5 137,-76.5 137,-57.5 0,-57.5"/>
<text text-anchor="middle" x="68.5" y="-64.5" font-family="Arial" font-size="10.00">fe::Mesh::readElementData</text>
</a>
</g>
</g>
<!-- Node2 -->
<g id="node2" class="node">
<title>Node2</title>
<g id="a_node2"><a xlink:href="namespaceutil_1_1io.html#a6588c46813adf0cb86b795880f1a2ec7" target="_top" xlink:title="Get extension from the filename.">
<polygon fill="none" stroke="black" points="173,-114.5 173,-133.5 317,-133.5 317,-114.5 173,-114.5"/>
<text text-anchor="middle" x="245" y="-121.5" font-family="Arial" font-size="10.00">util::io::getExtensionFromFile</text>
</a>
</g>
</g>
<!-- Node1&#45;&gt;Node2 -->
<g id="edge1" class="edge">
<title>Node1&#45;&gt;Node2</title>
<path fill="none" stroke="midnightblue" d="M93.55,-76.53C114.39,-84.62 145.44,-96.27 173,-105 180.44,-107.36 188.38,-109.67 196.15,-111.83"/>
<polygon fill="midnightblue" stroke="midnightblue" points="195.3,-115.22 205.86,-114.47 197.13,-108.47 195.3,-115.22"/>
</g>
<!-- Node3 -->
<g id="node3" class="node">
<title>Node3</title>
<g id="a_node3"><a xlink:href="namespaceutil_1_1io.html#acc310b3994931fe61f43d5a5152aebc1" target="_top" xlink:title="Global method to log the message.">
<polygon fill="none" stroke="black" points="214,-76.5 214,-95.5 276,-95.5 276,-76.5 214,-76.5"/>
<text text-anchor="middle" x="245" y="-83.5" font-family="Arial" font-size="10.00">util::io::log</text>
</a>
</g>
</g>
<!-- Node1&#45;&gt;Node3 -->
<g id="edge2" class="edge">
<title>Node1&#45;&gt;Node3</title>
<path fill="none" stroke="midnightblue" d="M137.47,-74.4C159.85,-76.84 184.03,-79.47 203.68,-81.61"/>
<polygon fill="midnightblue" stroke="midnightblue" points="203.48,-85.11 213.8,-82.71 204.24,-78.15 203.48,-85.11"/>
</g>
<!-- Node5 -->
<g id="node5" class="node">
<title>Node5</title>
<g id="a_node5"><a xlink:href="namespacerw_1_1reader.html#abe0906e8d7c2ca5530b20648bbfec2fd" target="_top" xlink:title="Reads cell data, i.e. element&#45;node connectivity and node&#45;element connectivity.">
<polygon fill="none" stroke="black" points="174,-38.5 174,-57.5 316,-57.5 316,-38.5 174,-38.5"/>
<text text-anchor="middle" x="245" y="-45.5" font-family="Arial" font-size="10.00">rw::reader::readMshFileCells</text>
</a>
</g>
</g>
<!-- Node1&#45;&gt;Node5 -->
<g id="edge4" class="edge">
<title>Node1&#45;&gt;Node5</title>
<path fill="none" stroke="midnightblue" d="M137.47,-59.6C146.06,-58.66 154.92,-57.7 163.69,-56.74"/>
<polygon fill="midnightblue" stroke="midnightblue" points="164.36,-60.19 173.92,-55.63 163.6,-53.23 164.36,-60.19"/>
</g>
<!-- Node6 -->
<g id="node6" class="node">
<title>Node6</title>
<g id="a_node6"><a xlink:href="namespacerw_1_1reader.html#a79098cecf3c77855498e8322ec1bf3a8" target="_top" xlink:title="Reads cell data, i.e. element&#45;node connectivity and node&#45;element connectivity.">
<polygon fill="none" stroke="black" points="176,-0.5 176,-19.5 314,-19.5 314,-0.5 176,-0.5"/>
<text text-anchor="middle" x="245" y="-7.5" font-family="Arial" font-size="10.00">rw::reader::readVtuFileCells</text>
</a>
</g>
</g>
<!-- Node1&#45;&gt;Node6 -->
<g id="edge5" class="edge">
<title>Node1&#45;&gt;Node6</title>
<path fill="none" stroke="midnightblue" d="M93.55,-57.47C114.39,-49.38 145.44,-37.73 173,-29 180.44,-26.64 188.38,-24.33 196.15,-22.17"/>
<polygon fill="midnightblue" stroke="midnightblue" points="197.13,-25.53 205.86,-19.53 195.3,-18.78 197.13,-25.53"/>
</g>
<!-- Node4 -->
<g id="node4" class="node">
<title>Node4</title>
<g id="a_node4"><a xlink:href="classutil_1_1io_1_1Logger.html#a5d4600ff2841534892839c72a7f04547" target="_top" xlink:title="Log the message.">
<polygon fill="none" stroke="black" points="353,-76.5 353,-95.5 450,-95.5 450,-76.5 353,-76.5"/>
<text text-anchor="middle" x="401.5" y="-83.5" font-family="Arial" font-size="10.00">util::io::Logger::log</text>
</a>
</g>
</g>
<!-- Node3&#45;&gt;Node4 -->
<g id="edge3" class="edge">
<title>Node3&#45;&gt;Node4</title>
<path fill="none" stroke="midnightblue" d="M276.16,-86C295.04,-86 320,-86 342.6,-86"/>
<polygon fill="midnightblue" stroke="midnightblue" points="342.79,-89.5 352.79,-86 342.79,-82.5 342.79,-89.5"/>
</g>
</g>
</svg>
