<?xml version="1.0" encoding="UTF-8" standalone="no"?>
<!DOCTYPE svg PUBLIC "-//W3C//DTD SVG 1.1//EN"
 "http://www.w3.org/Graphics/SVG/1.1/DTD/svg11.dtd">
<!-- Generated by graphviz version 2.43.0 (0)
 -->
<!-- Title: util::geometry::Cube::print Pages: 1 -->
<svg width="509pt" height="79pt"
 viewBox="0.00 0.00 509.00 78.77" xmlns="http://www.w3.org/2000/svg" xmlns:xlink="http://www.w3.org/1999/xlink">
<g id="graph0" class="graph" transform="scale(1 1) rotate(0) translate(4 74.77)">
<title>util::geometry::Cube::print</title>
<!-- Node1 -->
<g id="node1" class="node">
<title>Node1</title>
<g id="a_node1"><a xlink:title="Prints the information about the object.">
<polygon fill="#bfbfbf" stroke="black" points="0,-33 0,-63 105,-63 105,-33 0,-33"/>
<text text-anchor="start" x="8" y="-51" font-family="Arial" font-size="10.00">util::geometry::Cube</text>
<text text-anchor="middle" x="52.5" y="-40" font-family="Arial" font-size="10.00">::print</text>
</a>
</g>
</g>
<!-- Node2 -->
<g id="node2" class="node">
<title>Node2</title>
<g id="a_node2"><a xlink:href="classutil_1_1geometry_1_1Cube.html#a456e9f6ab0916b850bbdfd725ce8e7ad" target="_top" xlink:title="Returns the string containing printable information about the object.">
<polygon fill="none" stroke="black" points="141,-33 141,-63 246,-63 246,-33 141,-33"/>
<text text-anchor="start" x="149" y="-51" font-family="Arial" font-size="10.00">util::geometry::Cube</text>
<text text-anchor="middle" x="193.5" y="-40" font-family="Arial" font-size="10.00">::printStr</text>
</a>
</g>
</g>
<!-- Node1&#45;&gt;Node2 -->
<g id="edge1" class="edge">
<title>Node1&#45;&gt;Node2</title>
<path fill="none" stroke="midnightblue" d="M105.26,-48C113.49,-48 122.08,-48 130.51,-48"/>
<polygon fill="midnightblue" stroke="midnightblue" points="130.7,-51.5 140.7,-48 130.7,-44.5 130.7,-51.5"/>
</g>
<!-- Node3 -->
<g id="node3" class="node">
<title>Node3</title>
<g id="a_node3"><a xlink:href="namespaceutil_1_1io.html#a38afb09a152cca4061850f4123bd3aeb" target="_top" xlink:title="Returns tab spaces of given size.">
<polygon fill="none" stroke="black" points="416,-38.5 416,-57.5 501,-57.5 501,-38.5 416,-38.5"/>
<text text-anchor="middle" x="458.5" y="-45.5" font-family="Arial" font-size="10.00">util::io::getTabS</text>
</a>
</g>
</g>
<!-- Node2&#45;&gt;Node3 -->
<g id="edge2" class="edge">
<title>Node2&#45;&gt;Node3</title>
<path fill="none" stroke="midnightblue" d="M246.02,-61.1C257.77,-63.55 270.25,-65.74 282,-67 325.31,-71.65 336.76,-72.22 380,-67 391.91,-65.56 404.64,-62.92 416.26,-60.06"/>
<polygon fill="midnightblue" stroke="midnightblue" points="417.34,-63.39 426.14,-57.51 415.59,-56.62 417.34,-63.39"/>
</g>
<!-- Node4 -->
<g id="node4" class="node">
<title>Node4</title>
<g id="a_node4"><a xlink:href="namespaceutil_1_1io.html#a2b2ea15e35fb349760ca1f0b521e7269" target="_top" xlink:title="Returns formatted string for output.">
<polygon fill="none" stroke="black" points="282,-38.5 282,-57.5 380,-57.5 380,-38.5 282,-38.5"/>
<text text-anchor="middle" x="331" y="-45.5" font-family="Arial" font-size="10.00">util::io::printBoxStr</text>
</a>
</g>
</g>
<!-- Node2&#45;&gt;Node4 -->
<g id="edge3" class="edge">
<title>Node2&#45;&gt;Node4</title>
<path fill="none" stroke="midnightblue" d="M246.11,-48C254.41,-48 263.05,-48 271.49,-48"/>
<polygon fill="midnightblue" stroke="midnightblue" points="271.65,-51.5 281.65,-48 271.65,-44.5 271.65,-51.5"/>
</g>
<!-- Node5 -->
<g id="node5" class="node">
<title>Node5</title>
<g id="a_node5"><a xlink:href="namespaceutil_1_1io.html#a3e537e3bd778616255015cde6e60a30a" target="_top" xlink:title="Returns formatted string for output.">
<polygon fill="none" stroke="black" points="291,-0.5 291,-19.5 371,-19.5 371,-0.5 291,-0.5"/>
<text text-anchor="middle" x="331" y="-7.5" font-family="Arial" font-size="10.00">util::io::printStr</text>
</a>
</g>
</g>
<!-- Node2&#45;&gt;Node5 -->
<g id="edge5" class="edge">
<title>Node2&#45;&gt;Node5</title>
<path fill="none" stroke="midnightblue" d="M246.11,-33.53C259.21,-29.85 273.17,-25.94 285.86,-22.38"/>
<polygon fill="midnightblue" stroke="midnightblue" points="287.05,-25.68 295.73,-19.61 285.16,-18.94 287.05,-25.68"/>
</g>
<!-- Node4&#45;&gt;Node3 -->
<g id="edge4" class="edge">
<title>Node4&#45;&gt;Node3</title>
<path fill="none" stroke="midnightblue" d="M380.16,-48C388.52,-48 397.24,-48 405.68,-48"/>
<polygon fill="midnightblue" stroke="midnightblue" points="405.81,-51.5 415.81,-48 405.81,-44.5 405.81,-51.5"/>
</g>
<!-- Node5&#45;&gt;Node3 -->
<g id="edge6" class="edge">
<title>Node5&#45;&gt;Node3</title>
<path fill="none" stroke="midnightblue" d="M363.67,-19.59C379.57,-24.4 399.04,-30.3 416.11,-35.47"/>
<polygon fill="midnightblue" stroke="midnightblue" points="415.26,-38.87 425.84,-38.41 417.28,-32.17 415.26,-38.87"/>
</g>
</g>
</svg>
