<?xml version="1.0" encoding="UTF-8" standalone="no"?>
<!DOCTYPE svg PUBLIC "-//W3C//DTD SVG 1.1//EN"
 "http://www.w3.org/Graphics/SVG/1.1/DTD/svg11.dtd">
<!-- Generated by graphviz version 2.43.0 (0)
 -->
<!-- Title: util::geometry::Drum2D::printStr Pages: 1 -->
<svg width="364pt" height="53pt"
 viewBox="0.00 0.00 364.00 52.50" xmlns="http://www.w3.org/2000/svg" xmlns:xlink="http://www.w3.org/1999/xlink">
<g id="graph0" class="graph" transform="scale(1 1) rotate(0) translate(4 48.5)">
<title>util::geometry::Drum2D::printStr</title>
<!-- Node1 -->
<g id="node1" class="node">
<title>Node1</title>
<g id="a_node1"><a xlink:title="Returns the string containing printable information about the object.">
<polygon fill="#bfbfbf" stroke="black" points="0,-14 0,-44 119,-44 119,-14 0,-14"/>
<text text-anchor="start" x="8" y="-32" font-family="Arial" font-size="10.00">util::geometry::Drum2D</text>
<text text-anchor="middle" x="59.5" y="-21" font-family="Arial" font-size="10.00">::printStr</text>
</a>
</g>
</g>
<!-- Node2 -->
<g id="node2" class="node">
<title>Node2</title>
<g id="a_node2"><a xlink:href="namespaceutil_1_1io.html#a38afb09a152cca4061850f4123bd3aeb" target="_top" xlink:title="Returns tab spaces of given size.">
<polygon fill="none" stroke="black" points="271,-19.5 271,-38.5 356,-38.5 356,-19.5 271,-19.5"/>
<text text-anchor="middle" x="313.5" y="-26.5" font-family="Arial" font-size="10.00">util::io::getTabS</text>
</a>
</g>
</g>
<!-- Node1&#45;&gt;Node2 -->
<g id="edge1" class="edge">
<title>Node1&#45;&gt;Node2</title>
<path fill="none" stroke="midnightblue" d="M119.26,-29C162.17,-29 219.78,-29 260.91,-29"/>
<polygon fill="midnightblue" stroke="midnightblue" points="260.99,-32.5 270.99,-29 260.99,-25.5 260.99,-32.5"/>
</g>
<!-- Node3 -->
<g id="node3" class="node">
<title>Node3</title>
<g id="a_node3"><a xlink:href="namespaceutil_1_1io.html#a3e537e3bd778616255015cde6e60a30a" target="_top" xlink:title="Returns formatted string for output.">
<polygon fill="none" stroke="black" points="155,-0.5 155,-19.5 235,-19.5 235,-0.5 155,-0.5"/>
<text text-anchor="middle" x="195" y="-7.5" font-family="Arial" font-size="10.00">util::io::printStr</text>
</a>
</g>
</g>
<!-- Node1&#45;&gt;Node3 -->
<g id="edge2" class="edge">
<title>Node1&#45;&gt;Node3</title>
<path fill="none" stroke="midnightblue" d="M119.06,-20.67C127.62,-19.45 136.37,-18.2 144.73,-17.01"/>
<polygon fill="midnightblue" stroke="midnightblue" points="145.28,-20.47 154.69,-15.6 144.29,-13.54 145.28,-20.47"/>
</g>
<!-- Node3&#45;&gt;Node2 -->
<g id="edge3" class="edge">
<title>Node3&#45;&gt;Node2</title>
<path fill="none" stroke="midnightblue" d="M235.12,-16.38C243.38,-17.73 252.23,-19.17 260.88,-20.58"/>
<polygon fill="midnightblue" stroke="midnightblue" points="260.46,-24.06 270.89,-22.21 261.59,-17.15 260.46,-24.06"/>
</g>
</g>
</svg>
