<?xml version="1.0" encoding="UTF-8" standalone="no"?>
<!DOCTYPE svg PUBLIC "-//W3C//DTD SVG 1.1//EN"
 "http://www.w3.org/Graphics/SVG/1.1/DTD/svg11.dtd">
<!-- Generated by graphviz version 2.43.0 (0)
 -->
<!-- Title: material::PdState::PdState Pages: 1 -->
<svg width="677pt" height="335pt"
 viewBox="0.00 0.00 677.00 335.00" xmlns="http://www.w3.org/2000/svg" xmlns:xlink="http://www.w3.org/1999/xlink">
<g id="graph0" class="graph" transform="scale(1 1) rotate(0) translate(4 331)">
<title>material::PdState::PdState</title>
<!-- Node1 -->
<g id="Node000001" class="node">
<title>Node1</title>
<g id="a_Node000001"><a xlink:title="Constructor.">
<polygon fill="#999999" stroke="#666666" points="98,-172.5 0,-172.5 0,-142.5 98,-142.5 98,-172.5"/>
<text text-anchor="start" x="8" y="-160.5" font-family="Arial" font-size="10.00">material::PdState::</text>
<text text-anchor="middle" x="49" y="-149.5" font-family="Arial" font-size="10.00">PdState</text>
</a>
</g>
</g>
<!-- Node2 -->
<g id="Node000002" class="node">
<title>Node2</title>
<g id="a_Node000002"><a xlink:href="classmaterial_1_1PdState.html#a59b68a1d3b1e1f316569ac2ea005d6c2" target="_top" xlink:title="Compute material model parameters.">
<polygon fill="white" stroke="#666666" points="238,-172.5 134,-172.5 134,-142.5 238,-142.5 238,-172.5"/>
<text text-anchor="start" x="142" y="-160.5" font-family="Arial" font-size="10.00">material::PdState::</text>
<text text-anchor="middle" x="186" y="-149.5" font-family="Arial" font-size="10.00">computeParameters</text>
</a>
</g>
</g>
<!-- Node1&#45;&gt;Node2 -->
<g id="edge1_Node000001_Node000002" class="edge">
<title>Node1&#45;&gt;Node2</title>
<g id="a_edge1_Node000001_Node000002"><a xlink:title=" ">
<path fill="none" stroke="#63b8ff" d="M98.36,-157.5C106.53,-157.5 115.12,-157.5 123.57,-157.5"/>
<polygon fill="#63b8ff" stroke="#63b8ff" points="123.79,-161 133.79,-157.5 123.79,-154 123.79,-161"/>
</a>
</g>
</g>
<!-- Node3 -->
<g id="Node000003" class="node">
<title>Node3</title>
<g id="a_Node000003"><a xlink:href="namespaceutil.html#a227b5f8acbd7a403a033663c8893d631" target="_top" xlink:title="Returns true if a &gt; b.">
<polygon fill="white" stroke="#666666" points="375.5,-327 300.5,-327 300.5,-308 375.5,-308 375.5,-327"/>
<text text-anchor="middle" x="338" y="-315" font-family="Arial" font-size="10.00">util::isGreater</text>
</a>
</g>
</g>
<!-- Node2&#45;&gt;Node3 -->
<g id="edge2_Node000002_Node000003" class="edge">
<title>Node2&#45;&gt;Node3</title>
<g id="a_edge2_Node000002_Node000003"><a xlink:title=" ">
<path fill="none" stroke="#63b8ff" d="M192.14,-172.93C202.68,-202.18 229.57,-265.74 274,-299.5 278.99,-303.29 284.76,-306.29 290.73,-308.65"/>
<polygon fill="#63b8ff" stroke="#63b8ff" points="289.61,-311.97 300.2,-311.87 291.86,-305.34 289.61,-311.97"/>
</a>
</g>
</g>
<!-- Node4 -->
<g id="Node000004" class="node">
<title>Node4</title>
<g id="a_Node000004"><a xlink:href="namespaceutil.html#a868a26599b6b844d08d30063ac898319" target="_top" xlink:title="Returns true if a &lt; b.">
<polygon fill="white" stroke="#666666" points="370,-290 306,-290 306,-271 370,-271 370,-290"/>
<text text-anchor="middle" x="338" y="-278" font-family="Arial" font-size="10.00">util::isLess</text>
</a>
</g>
</g>
<!-- Node2&#45;&gt;Node4 -->
<g id="edge3_Node000002_Node000004" class="edge">
<title>Node2&#45;&gt;Node4</title>
<g id="a_edge3_Node000002_Node000004"><a xlink:title=" ">
<path fill="none" stroke="#63b8ff" d="M195.64,-172.63C209.36,-195.29 238.25,-237.89 274,-261.5 280.7,-265.93 288.48,-269.35 296.23,-272"/>
<polygon fill="#63b8ff" stroke="#63b8ff" points="295.36,-275.39 305.95,-274.94 297.39,-268.69 295.36,-275.39"/>
</a>
</g>
</g>
<!-- Node5 -->
<g id="Node000005" class="node">
<title>Node5</title>
<g id="a_Node000005"><a xlink:href="structinp_1_1MaterialDeck.html#ab74e4a17cb7e2165b8bceb089de8a024" target="_top" xlink:title="Returns the string containing printable information about the object.">
<polygon fill="white" stroke="#666666" points="387.5,-252.5 288.5,-252.5 288.5,-222.5 387.5,-222.5 387.5,-252.5"/>
<text text-anchor="start" x="296.5" y="-240.5" font-family="Arial" font-size="10.00">inp::MaterialDeck::</text>
<text text-anchor="middle" x="338" y="-229.5" font-family="Arial" font-size="10.00">printStr</text>
</a>
</g>
</g>
<!-- Node2&#45;&gt;Node5 -->
<g id="edge4_Node000002_Node000005" class="edge">
<title>Node2&#45;&gt;Node5</title>
<g id="a_edge4_Node000002_Node000005"><a xlink:title=" ">
<path fill="none" stroke="#63b8ff" d="M208.51,-172.68C225.72,-184.44 250.75,-200.67 274,-212.5 278,-214.54 282.21,-216.52 286.47,-218.42"/>
<polygon fill="#63b8ff" stroke="#63b8ff" points="285.27,-221.72 295.84,-222.45 288.04,-215.29 285.27,-221.72"/>
</a>
</g>
</g>
<!-- Node8 -->
<g id="Node000008" class="node">
<title>Node8</title>
<g id="a_Node000008"><a xlink:href="structinp_1_1MatData.html#affdc48e3cd3c1b8d5ecd9138e48c0997" target="_top" xlink:title="Compute Young&#39;s modulus E from Bulk modulus K and Poisson&#39;s ratio nu.">
<polygon fill="white" stroke="#666666" points="385,-204 291,-204 291,-185 385,-185 385,-204"/>
<text text-anchor="middle" x="338" y="-192" font-family="Arial" font-size="10.00">inp::MatData::toE</text>
</a>
</g>
</g>
<!-- Node2&#45;&gt;Node8 -->
<g id="edge8_Node000002_Node000008" class="edge">
<title>Node2&#45;&gt;Node8</title>
<g id="a_edge8_Node000002_Node000008"><a xlink:title=" ">
<path fill="none" stroke="#63b8ff" d="M238.2,-170.13C254.51,-174.15 272.49,-178.59 288.59,-182.56"/>
<polygon fill="#63b8ff" stroke="#63b8ff" points="287.79,-185.97 298.34,-184.96 289.47,-179.17 287.79,-185.97"/>
</a>
</g>
</g>
<!-- Node9 -->
<g id="Node000009" class="node">
<title>Node9</title>
<g id="a_Node000009"><a xlink:href="structinp_1_1MatData.html#a0f3e68c535e66c2419dd85307043cb2c" target="_top" xlink:title="Compute critical energy release rate Gc from critical stress&#45;intensity factor KIc,...">
<polygon fill="white" stroke="#666666" points="388,-167 288,-167 288,-148 388,-148 388,-167"/>
<text text-anchor="middle" x="338" y="-155" font-family="Arial" font-size="10.00">inp::MatData::toGc</text>
</a>
</g>
</g>
<!-- Node2&#45;&gt;Node9 -->
<g id="edge9_Node000002_Node000009" class="edge">
<title>Node2&#45;&gt;Node9</title>
<g id="a_edge9_Node000002_Node000009"><a xlink:title=" ">
<path fill="none" stroke="#63b8ff" d="M238.2,-157.5C250.86,-157.5 264.52,-157.5 277.54,-157.5"/>
<polygon fill="#63b8ff" stroke="#63b8ff" points="277.8,-161 287.8,-157.5 277.8,-154 277.8,-161"/>
</a>
</g>
</g>
<!-- Node10 -->
<g id="Node000010" class="node">
<title>Node10</title>
<g id="a_Node000010"><a xlink:href="structinp_1_1MatData.html#a51cdc2a12304fb5fb9721ecfc06f6c03" target="_top" xlink:title="Compute shear modulus from Young&#39;s modulus E and Poisson&#39;s ratio nu.">
<polygon fill="white" stroke="#666666" points="388.5,-130 287.5,-130 287.5,-111 388.5,-111 388.5,-130"/>
<text text-anchor="middle" x="338" y="-118" font-family="Arial" font-size="10.00">inp::MatData::toGE</text>
</a>
</g>
</g>
<!-- Node2&#45;&gt;Node10 -->
<g id="edge10_Node000002_Node000010" class="edge">
<title>Node2&#45;&gt;Node10</title>
<g id="a_edge10_Node000002_Node000010"><a xlink:title=" ">
<path fill="none" stroke="#63b8ff" d="M238.2,-144.87C254.51,-140.85 272.49,-136.41 288.59,-132.44"/>
<polygon fill="#63b8ff" stroke="#63b8ff" points="289.47,-135.83 298.34,-130.04 287.79,-129.03 289.47,-135.83"/>
</a>
</g>
</g>
<!-- Node11 -->
<g id="Node000011" class="node">
<title>Node11</title>
<g id="a_Node000011"><a xlink:href="structinp_1_1MatData.html#a31efc121179610c7e9a9f97758693131" target="_top" xlink:title="Compute Bulk modulus K from Young&#39;s modulus K and Poisson&#39;s ratio nu.">
<polygon fill="white" stroke="#666666" points="385,-93 291,-93 291,-74 385,-74 385,-93"/>
<text text-anchor="middle" x="338" y="-81" font-family="Arial" font-size="10.00">inp::MatData::toK</text>
</a>
</g>
</g>
<!-- Node2&#45;&gt;Node11 -->
<g id="edge11_Node000002_Node000011" class="edge">
<title>Node2&#45;&gt;Node11</title>
<g id="a_edge11_Node000002_Node000011"><a xlink:title=" ">
<path fill="none" stroke="#63b8ff" d="M206.77,-142.36C223.8,-129.93 249.45,-112.61 274,-101.5 278.13,-99.63 282.51,-97.9 286.95,-96.32"/>
<polygon fill="#63b8ff" stroke="#63b8ff" points="288.31,-99.56 296.71,-93.1 286.12,-92.91 288.31,-99.56"/>
</a>
</g>
</g>
<!-- Node12 -->
<g id="Node000012" class="node">
<title>Node12</title>
<g id="a_Node000012"><a xlink:href="structinp_1_1MatData.html#a25dde9c5e5597dafe1b20f997bbf8be1" target="_top" xlink:title="Compute critical stress&#45;intensity factor KIc from critical energy release rate Gc,...">
<polygon fill="white" stroke="#666666" points="389,-56 287,-56 287,-37 389,-37 389,-56"/>
<text text-anchor="middle" x="338" y="-44" font-family="Arial" font-size="10.00">inp::MatData::toKIc</text>
</a>
</g>
</g>
<!-- Node2&#45;&gt;Node12 -->
<g id="edge12_Node000002_Node000012" class="edge">
<title>Node2&#45;&gt;Node12</title>
<g id="a_edge12_Node000002_Node000012"><a xlink:title=" ">
<path fill="none" stroke="#63b8ff" d="M197.2,-142.23C211.8,-121.55 240.61,-84.9 274,-64.5 276.77,-62.81 279.7,-61.27 282.72,-59.88"/>
<polygon fill="#63b8ff" stroke="#63b8ff" points="284.07,-63.11 292.01,-56.09 281.43,-56.62 284.07,-63.11"/>
</a>
</g>
</g>
<!-- Node13 -->
<g id="Node000013" class="node">
<title>Node13</title>
<g id="a_Node000013"><a xlink:href="structinp_1_1MatData.html#a0f7db5318c72dd88b8edc2a9c9c1c4e7" target="_top" xlink:title="Compute Lame first parameter lambda from Young&#39;s modulus E and Poisson&#39;s ratio nu.">
<polygon fill="white" stroke="#666666" points="402,-19 274,-19 274,0 402,0 402,-19"/>
<text text-anchor="middle" x="338" y="-7" font-family="Arial" font-size="10.00">inp::MatData::toLambdaE</text>
</a>
</g>
</g>
<!-- Node2&#45;&gt;Node13 -->
<g id="edge13_Node000002_Node000013" class="edge">
<title>Node2&#45;&gt;Node13</title>
<g id="a_edge13_Node000002_Node000013"><a xlink:title=" ">
<path fill="none" stroke="#63b8ff" d="M193.05,-142.09C204.57,-114.78 232.3,-57.88 274,-27.5 276.05,-26.01 278.22,-24.63 280.48,-23.38"/>
<polygon fill="#63b8ff" stroke="#63b8ff" points="282,-26.53 289.52,-19.07 278.99,-20.21 282,-26.53"/>
</a>
</g>
</g>
<!-- Node6 -->
<g id="Node000006" class="node">
<title>Node6</title>
<g id="a_Node000006"><a xlink:href="namespaceutil_1_1io.html#a38afb09a152cca4061850f4123bd3aeb" target="_top" xlink:title="Returns tab spaces of given size.">
<polygon fill="white" stroke="#666666" points="669,-247 584,-247 584,-228 669,-228 669,-247"/>
<text text-anchor="middle" x="626.5" y="-235" font-family="Arial" font-size="10.00">util::io::getTabS</text>
</a>
</g>
</g>
<!-- Node5&#45;&gt;Node6 -->
<g id="edge5_Node000005_Node000006" class="edge">
<title>Node5&#45;&gt;Node6</title>
<g id="a_edge5_Node000005_Node000006"><a xlink:title=" ">
<path fill="none" stroke="#63b8ff" d="M387.6,-237.5C439.24,-237.5 520.57,-237.5 573.48,-237.5"/>
<polygon fill="#63b8ff" stroke="#63b8ff" points="573.66,-241 583.66,-237.5 573.66,-234 573.66,-241"/>
</a>
</g>
</g>
<!-- Node7 -->
<g id="Node000007" class="node">
<title>Node7</title>
<g id="a_Node000007"><a xlink:href="structinp_1_1MatData.html#ad7efc5fd77177d4a15ceefc04b89f164" target="_top" xlink:title="Returns the string containing printable information about the object.">
<polygon fill="white" stroke="#666666" points="548,-228 438,-228 438,-209 548,-209 548,-228"/>
<text text-anchor="middle" x="493" y="-216" font-family="Arial" font-size="10.00">inp::MatData::printStr</text>
</a>
</g>
</g>
<!-- Node5&#45;&gt;Node7 -->
<g id="edge6_Node000005_Node000007" class="edge">
<title>Node5&#45;&gt;Node7</title>
<g id="a_edge6_Node000005_Node000007"><a xlink:title=" ">
<path fill="none" stroke="#63b8ff" d="M387.83,-231.44C400.51,-229.86 414.37,-228.14 427.72,-226.48"/>
<polygon fill="#63b8ff" stroke="#63b8ff" points="428.3,-229.94 437.8,-225.23 427.44,-222.99 428.3,-229.94"/>
</a>
</g>
</g>
<!-- Node7&#45;&gt;Node6 -->
<g id="edge7_Node000007_Node000006" class="edge">
<title>Node7&#45;&gt;Node6</title>
<g id="a_edge7_Node000007_Node000006"><a xlink:title=" ">
<path fill="none" stroke="#63b8ff" d="M548.25,-226.34C556.7,-227.56 565.41,-228.82 573.8,-230.03"/>
<polygon fill="#63b8ff" stroke="#63b8ff" points="573.44,-233.51 583.84,-231.48 574.44,-226.59 573.44,-233.51"/>
</a>
</g>
</g>
</g>
</svg>
