<?xml version="1.0" encoding="UTF-8" standalone="no"?>
<!DOCTYPE svg PUBLIC "-//W3C//DTD SVG 1.1//EN"
 "http://www.w3.org/Graphics/SVG/1.1/DTD/svg11.dtd">
<!-- Generated by graphviz version 2.43.0 (0)
 -->
<!-- Title: util::geometry::ComplexGeomObject::printStr Pages: 1 -->
<svg width="410pt" height="53pt"
 viewBox="0.00 0.00 410.00 52.50" xmlns="http://www.w3.org/2000/svg" xmlns:xlink="http://www.w3.org/1999/xlink">
<g id="graph0" class="graph" transform="scale(1 1) rotate(0) translate(4 48.5)">
<title>util::geometry::ComplexGeomObject::printStr</title>
<!-- Node1 -->
<g id="node1" class="node">
<title>Node1</title>
<g id="a_node1"><a xlink:title="Returns the string containing printable information about the object.">
<polygon fill="#bfbfbf" stroke="black" points="0,-14 0,-44 147,-44 147,-14 0,-14"/>
<text text-anchor="start" x="8" y="-32" font-family="Arial" font-size="10.00">util::geometry::ComplexGeom</text>
<text text-anchor="middle" x="73.5" y="-21" font-family="Arial" font-size="10.00">Object::printStr</text>
</a>
</g>
</g>
<!-- Node2 -->
<g id="node2" class="node">
<title>Node2</title>
<g id="a_node2"><a xlink:href="namespaceutil_1_1io.html#a38afb09a152cca4061850f4123bd3aeb" target="_top" xlink:title="Returns tab spaces of given size.">
<polygon fill="none" stroke="black" points="317,-19.5 317,-38.5 402,-38.5 402,-19.5 317,-19.5"/>
<text text-anchor="middle" x="359.5" y="-26.5" font-family="Arial" font-size="10.00">util::io::getTabS</text>
</a>
</g>
</g>
<!-- Node1&#45;&gt;Node2 -->
<g id="edge1" class="edge">
<title>Node1&#45;&gt;Node2</title>
<path fill="none" stroke="midnightblue" d="M147.27,-29C197.13,-29 262.06,-29 306.7,-29"/>
<polygon fill="midnightblue" stroke="midnightblue" points="306.74,-32.5 316.74,-29 306.74,-25.5 306.74,-32.5"/>
</g>
<!-- Node3 -->
<g id="node3" class="node">
<title>Node3</title>
<g id="a_node3"><a xlink:href="namespaceutil_1_1io.html#a2b2ea15e35fb349760ca1f0b521e7269" target="_top" xlink:title="Returns formatted string for output.">
<polygon fill="none" stroke="black" points="183,-0.5 183,-19.5 281,-19.5 281,-0.5 183,-0.5"/>
<text text-anchor="middle" x="232" y="-7.5" font-family="Arial" font-size="10.00">util::io::printBoxStr</text>
</a>
</g>
</g>
<!-- Node1&#45;&gt;Node3 -->
<g id="edge2" class="edge">
<title>Node1&#45;&gt;Node3</title>
<path fill="none" stroke="midnightblue" d="M147.25,-20.17C155.67,-19.15 164.17,-18.11 172.37,-17.12"/>
<polygon fill="midnightblue" stroke="midnightblue" points="173.06,-20.56 182.56,-15.88 172.21,-13.61 173.06,-20.56"/>
</g>
<!-- Node3&#45;&gt;Node2 -->
<g id="edge3" class="edge">
<title>Node3&#45;&gt;Node2</title>
<path fill="none" stroke="midnightblue" d="M281.16,-17.29C289.52,-18.56 298.24,-19.88 306.68,-21.16"/>
<polygon fill="midnightblue" stroke="midnightblue" points="306.4,-24.65 316.81,-22.69 307.44,-17.73 306.4,-24.65"/>
</g>
</g>
</svg>
