<?xml version="1.0" encoding="UTF-8" standalone="no"?>
<!DOCTYPE svg PUBLIC "-//W3C//DTD SVG 1.1//EN"
 "http://www.w3.org/Graphics/SVG/1.1/DTD/svg11.dtd">
<!-- Generated by graphviz version 2.43.0 (0)
 -->
<!-- Title: rw::writer::VtkParticleWriter::appendNodes Pages: 1 -->
<svg width="453pt" height="39pt"
 viewBox="0.00 0.00 453.00 39.00" xmlns="http://www.w3.org/2000/svg" xmlns:xlink="http://www.w3.org/1999/xlink">
<g id="graph0" class="graph" transform="scale(1 1) rotate(0) translate(4 35)">
<title>rw::writer::VtkParticleWriter::appendNodes</title>
<!-- Node1 -->
<g id="node1" class="node">
<title>Node1</title>
<g id="a_node1"><a xlink:title="Writes the nodes to the file.">
<polygon fill="#bfbfbf" stroke="black" points="0,-0.5 0,-30.5 137,-30.5 137,-0.5 0,-0.5"/>
<text text-anchor="start" x="8" y="-18.5" font-family="Arial" font-size="10.00">rw::writer::VtkParticleWriter</text>
<text text-anchor="middle" x="68.5" y="-7.5" font-family="Arial" font-size="10.00">::appendNodes</text>
</a>
</g>
</g>
<!-- Node2 -->
<g id="node2" class="node">
<title>Node2</title>
<g id="a_node2"><a xlink:href="namespaceutil_1_1methods.html#ab21bec324f7d53e91378acc142303fb3" target="_top" xlink:title="Returns true if tag is found in the list of tags.">
<polygon fill="none" stroke="black" points="173,-6 173,-25 299,-25 299,-6 173,-6"/>
<text text-anchor="middle" x="236" y="-13" font-family="Arial" font-size="10.00">util::methods::isTagInList</text>
</a>
</g>
</g>
<!-- Node1&#45;&gt;Node2 -->
<g id="edge1" class="edge">
<title>Node1&#45;&gt;Node2</title>
<path fill="none" stroke="midnightblue" d="M137.29,-15.5C145.67,-15.5 154.26,-15.5 162.7,-15.5"/>
<polygon fill="midnightblue" stroke="midnightblue" points="162.9,-19 172.9,-15.5 162.9,-12 162.9,-19"/>
</g>
<!-- Node3 -->
<g id="node3" class="node">
<title>Node3</title>
<g id="a_node3"><a xlink:href="namespaceutil_1_1methods.html#a86460acadab9a2e99a92121c0213e444" target="_top" xlink:title="Find if data is in the list.">
<polygon fill="none" stroke="black" points="335,-6 335,-25 445,-25 445,-6 335,-6"/>
<text text-anchor="middle" x="390" y="-13" font-family="Arial" font-size="10.00">util::methods::isInList</text>
</a>
</g>
</g>
<!-- Node2&#45;&gt;Node3 -->
<g id="edge2" class="edge">
<title>Node2&#45;&gt;Node3</title>
<path fill="none" stroke="midnightblue" d="M299.26,-15.5C307.66,-15.5 316.28,-15.5 324.71,-15.5"/>
<polygon fill="midnightblue" stroke="midnightblue" points="324.86,-19 334.86,-15.5 324.86,-12 324.86,-19"/>
</g>
</g>
</svg>
