<?xml version="1.0" encoding="UTF-8" standalone="no"?>
<!DOCTYPE svg PUBLIC "-//W3C//DTD SVG 1.1//EN"
 "http://www.w3.org/Graphics/SVG/1.1/DTD/svg11.dtd">
<!-- Generated by graphviz version 2.43.0 (0)
 -->
<!-- Title: util::geometry::Rectangle::isNear Pages: 1 -->
<svg width="577pt" height="204pt"
 viewBox="0.00 0.00 577.00 203.55" xmlns="http://www.w3.org/2000/svg" xmlns:xlink="http://www.w3.org/1999/xlink">
<g id="graph0" class="graph" transform="scale(1 1) rotate(0) translate(4 199.55)">
<title>util::geometry::Rectangle::isNear</title>
<!-- Node1 -->
<g id="node1" class="node">
<title>Node1</title>
<g id="a_node1"><a xlink:title="Checks if box is within given distance of this object.">
<polygon fill="#bfbfbf" stroke="black" points="0,-76.66 0,-106.66 126,-106.66 126,-76.66 0,-76.66"/>
<text text-anchor="start" x="8" y="-94.66" font-family="Arial" font-size="10.00">util::geometry::Rectangle</text>
<text text-anchor="middle" x="63" y="-83.66" font-family="Arial" font-size="10.00">::isNear</text>
</a>
</g>
</g>
<!-- Node2 -->
<g id="node2" class="node">
<title>Node2</title>
<g id="a_node2"><a xlink:href="namespaceutil.html#a21a4c0c512c91e3de03f432d304dd4bd" target="_top" xlink:title="Checks if given two boxes are within given distance from each other.">
<polygon fill="none" stroke="black" points="162,-82.16 162,-101.16 260,-101.16 260,-82.16 162,-82.16"/>
<text text-anchor="middle" x="211" y="-89.16" font-family="Arial" font-size="10.00">util::areBoxesNear</text>
</a>
</g>
</g>
<!-- Node1&#45;&gt;Node2 -->
<g id="edge1" class="edge">
<title>Node1&#45;&gt;Node2</title>
<path fill="none" stroke="midnightblue" d="M126.34,-91.66C134.83,-91.66 143.51,-91.66 151.91,-91.66"/>
<polygon fill="midnightblue" stroke="midnightblue" points="152,-95.16 162,-91.66 152,-88.16 152,-95.16"/>
</g>
<!-- Node3 -->
<g id="node3" class="node">
<title>Node3</title>
<g id="a_node3"><a xlink:href="namespaceutil.html#af6ab7e8072282977994d4c13e470dfc7" target="_top" xlink:title="Computes the radius of smallest circle/sphere which can have the box inside.">
<polygon fill="none" stroke="black" points="298,-139.66 298,-169.66 425,-169.66 425,-139.66 298,-139.66"/>
<text text-anchor="start" x="306" y="-157.66" font-family="Arial" font-size="10.00">util::circumscribedRadius</text>
<text text-anchor="middle" x="361.5" y="-146.66" font-family="Arial" font-size="10.00">InBox</text>
</a>
</g>
</g>
<!-- Node2&#45;&gt;Node3 -->
<g id="edge2" class="edge">
<title>Node2&#45;&gt;Node3</title>
<path fill="none" stroke="midnightblue" d="M234.55,-101.23C255.94,-110.31 288.7,-124.2 315.44,-135.55"/>
<polygon fill="midnightblue" stroke="midnightblue" points="314.42,-138.91 324.99,-139.6 317.15,-132.47 314.42,-138.91"/>
</g>
<!-- Node4 -->
<g id="node4" class="node">
<title>Node4</title>
<g id="a_node4"><a xlink:href="namespaceutil.html#a9a73e26a05894da76d4d0a922272b7cc" target="_top" xlink:title="Returns center point.">
<polygon fill="none" stroke="black" points="477,-165.16 477,-184.16 555,-184.16 555,-165.16 477,-165.16"/>
<text text-anchor="middle" x="516" y="-172.16" font-family="Arial" font-size="10.00">util::getCenter</text>
</a>
</g>
</g>
<!-- Node2&#45;&gt;Node4 -->
<g id="edge6" class="edge">
<title>Node2&#45;&gt;Node4</title>
<path fill="none" stroke="midnightblue" d="M217.41,-101.21C228.92,-120.44 257.94,-163.38 296,-179.66 351.91,-203.59 423.42,-195.67 469.23,-186.36"/>
<polygon fill="midnightblue" stroke="midnightblue" points="470.11,-189.75 479.16,-184.24 468.65,-182.9 470.11,-189.75"/>
</g>
<!-- Node5 -->
<g id="node5" class="node">
<title>Node5</title>
<g id="a_node5"><a xlink:href="namespaceutil.html#a5a54fd6f6720dd75956e3ce06b814ad6" target="_top" xlink:title="Returns all corner points in the box.">
<polygon fill="none" stroke="black" points="463,-124.16 463,-143.16 569,-143.16 569,-124.16 463,-124.16"/>
<text text-anchor="middle" x="516" y="-131.16" font-family="Arial" font-size="10.00">util::getCornerPoints</text>
</a>
</g>
</g>
<!-- Node2&#45;&gt;Node5 -->
<g id="edge7" class="edge">
<title>Node2&#45;&gt;Node5</title>
<path fill="none" stroke="midnightblue" d="M260.01,-98.32C312.2,-105.55 395.76,-117.13 452.9,-125.06"/>
<polygon fill="midnightblue" stroke="midnightblue" points="452.51,-128.53 462.9,-126.44 453.47,-121.6 452.51,-128.53"/>
</g>
<!-- Node7 -->
<g id="node7" class="node">
<title>Node7</title>
<g id="a_node7"><a xlink:href="namespaceutil.html#aa5b234685d92d1a0f48600c3a3708bfd" target="_top" xlink:title="Computes the radius of biggest circle/sphere completely within the object.">
<polygon fill="none" stroke="black" points="296,-63.16 296,-82.16 427,-82.16 427,-63.16 296,-63.16"/>
<text text-anchor="middle" x="361.5" y="-70.16" font-family="Arial" font-size="10.00">util::inscribedRadiusInBox</text>
</a>
</g>
</g>
<!-- Node2&#45;&gt;Node7 -->
<g id="edge8" class="edge">
<title>Node2&#45;&gt;Node7</title>
<path fill="none" stroke="midnightblue" d="M260.21,-85.49C268.37,-84.45 277.01,-83.35 285.65,-82.24"/>
<polygon fill="midnightblue" stroke="midnightblue" points="286.31,-85.68 295.78,-80.94 285.42,-78.74 286.31,-85.68"/>
</g>
<!-- Node8 -->
<g id="node8" class="node">
<title>Node8</title>
<g id="a_node8"><a xlink:href="namespaceutil.html#a868a26599b6b844d08d30063ac898319" target="_top" xlink:title="Returns true if a &lt; b.">
<polygon fill="none" stroke="black" points="484,-6.16 484,-25.16 548,-25.16 548,-6.16 484,-6.16"/>
<text text-anchor="middle" x="516" y="-13.16" font-family="Arial" font-size="10.00">util::isLess</text>
</a>
</g>
</g>
<!-- Node2&#45;&gt;Node8 -->
<g id="edge10" class="edge">
<title>Node2&#45;&gt;Node8</title>
<path fill="none" stroke="midnightblue" d="M218.72,-82.06C231.44,-64.83 260.95,-29.17 296,-15.66 354.59,6.91 428.72,0.36 473.96,-7.13"/>
<polygon fill="midnightblue" stroke="midnightblue" points="473.53,-10.61 483.99,-8.89 474.74,-3.72 473.53,-10.61"/>
</g>
<!-- Node9 -->
<g id="node9" class="node">
<title>Node9</title>
<g id="a_node9"><a xlink:href="namespaceutil.html#a09ac00ed5485b655c317c2fe46b1d740" target="_top" xlink:title="Returns true if point is inside box.">
<polygon fill="none" stroke="black" points="307,-25.16 307,-44.16 416,-44.16 416,-25.16 307,-25.16"/>
<text text-anchor="middle" x="361.5" y="-32.16" font-family="Arial" font-size="10.00">util::isPointInsideBox</text>
</a>
</g>
</g>
<!-- Node2&#45;&gt;Node9 -->
<g id="edge11" class="edge">
<title>Node2&#45;&gt;Node9</title>
<path fill="none" stroke="midnightblue" d="M231.03,-82.14C247.86,-73.94 273.19,-62.13 296,-53.66 302.03,-51.42 308.46,-49.27 314.83,-47.26"/>
<polygon fill="midnightblue" stroke="midnightblue" points="316.18,-50.51 324.72,-44.24 314.14,-43.81 316.18,-50.51"/>
</g>
<!-- Node3&#45;&gt;Node4 -->
<g id="edge3" class="edge">
<title>Node3&#45;&gt;Node4</title>
<path fill="none" stroke="midnightblue" d="M425.41,-162.91C439.13,-164.71 453.45,-166.59 466.51,-168.3"/>
<polygon fill="midnightblue" stroke="midnightblue" points="466.31,-171.81 476.68,-169.64 467.22,-164.87 466.31,-171.81"/>
</g>
<!-- Node3&#45;&gt;Node5 -->
<g id="edge4" class="edge">
<title>Node3&#45;&gt;Node5</title>
<path fill="none" stroke="midnightblue" d="M425.41,-146C434.47,-144.75 443.79,-143.47 452.84,-142.22"/>
<polygon fill="midnightblue" stroke="midnightblue" points="453.48,-145.67 462.9,-140.84 452.52,-138.73 453.48,-145.67"/>
</g>
<!-- Node6 -->
<g id="node6" class="node">
<title>Node6</title>
<g id="a_node6"><a xlink:href="namespaceutil.html#a227b5f8acbd7a403a033663c8893d631" target="_top" xlink:title="Returns true if a &gt; b.">
<polygon fill="none" stroke="black" points="478.5,-63.16 478.5,-82.16 553.5,-82.16 553.5,-63.16 478.5,-63.16"/>
<text text-anchor="middle" x="516" y="-70.16" font-family="Arial" font-size="10.00">util::isGreater</text>
</a>
</g>
</g>
<!-- Node3&#45;&gt;Node6 -->
<g id="edge5" class="edge">
<title>Node3&#45;&gt;Node6</title>
<path fill="none" stroke="midnightblue" d="M390.47,-139.62C418.32,-124.65 460.75,-101.83 488.18,-87.08"/>
<polygon fill="midnightblue" stroke="midnightblue" points="490.06,-90.05 497.21,-82.23 486.75,-83.88 490.06,-90.05"/>
</g>
<!-- Node7&#45;&gt;Node6 -->
<g id="edge9" class="edge">
<title>Node7&#45;&gt;Node6</title>
<path fill="none" stroke="midnightblue" d="M427.17,-72.66C441.01,-72.66 455.37,-72.66 468.36,-72.66"/>
<polygon fill="midnightblue" stroke="midnightblue" points="468.46,-76.16 478.46,-72.66 468.46,-69.16 468.46,-76.16"/>
</g>
<!-- Node9&#45;&gt;Node6 -->
<g id="edge12" class="edge">
<title>Node9&#45;&gt;Node6</title>
<path fill="none" stroke="midnightblue" d="M400.98,-44.25C421.47,-49.36 446.83,-55.68 468.43,-61.06"/>
<polygon fill="midnightblue" stroke="midnightblue" points="467.82,-64.51 478.37,-63.54 469.51,-57.72 467.82,-64.51"/>
</g>
<!-- Node9&#45;&gt;Node8 -->
<g id="edge13" class="edge">
<title>Node9&#45;&gt;Node8</title>
<path fill="none" stroke="midnightblue" d="M416.27,-27.96C435.19,-25.61 456.14,-23 473.86,-20.79"/>
<polygon fill="midnightblue" stroke="midnightblue" points="474.39,-24.25 483.88,-19.54 473.52,-17.3 474.39,-24.25"/>
</g>
</g>
</svg>
