<?xml version="1.0" encoding="UTF-8" standalone="no"?>
<!DOCTYPE svg PUBLIC "-//W3C//DTD SVG 1.1//EN"
 "http://www.w3.org/Graphics/SVG/1.1/DTD/svg11.dtd">
<!-- Generated by graphviz version 2.43.0 (0)
 -->
<!-- Title: util::geometry::AnnulusGeomObject::print Pages: 1 -->
<svg width="585pt" height="52pt"
 viewBox="0.00 0.00 585.00 51.50" xmlns="http://www.w3.org/2000/svg" xmlns:xlink="http://www.w3.org/1999/xlink">
<g id="graph0" class="graph" transform="scale(1 1) rotate(0) translate(4 47.5)">
<title>util::geometry::AnnulusGeomObject::print</title>
<!-- Node1 -->
<g id="Node000001" class="node">
<title>Node1</title>
<g id="a_Node000001"><a xlink:title="Prints the information about the object.">
<polygon fill="#999999" stroke="#666666" points="143,-43.5 0,-43.5 0,-13.5 143,-13.5 143,-43.5"/>
<text text-anchor="start" x="8" y="-31.5" font-family="Arial" font-size="10.00">util::geometry::AnnulusGeom</text>
<text text-anchor="middle" x="71.5" y="-20.5" font-family="Arial" font-size="10.00">Object::print</text>
</a>
</g>
</g>
<!-- Node2 -->
<g id="Node000002" class="node">
<title>Node2</title>
<g id="a_Node000002"><a xlink:href="classutil_1_1geometry_1_1AnnulusGeomObject.html#a5026f0d0a1410cf92f09a68093fd7255" target="_top" xlink:title="Returns the string containing printable information about the object.">
<polygon fill="white" stroke="#666666" points="322,-43.5 179,-43.5 179,-13.5 322,-13.5 322,-43.5"/>
<text text-anchor="start" x="187" y="-31.5" font-family="Arial" font-size="10.00">util::geometry::AnnulusGeom</text>
<text text-anchor="middle" x="250.5" y="-20.5" font-family="Arial" font-size="10.00">Object::printStr</text>
</a>
</g>
</g>
<!-- Node1&#45;&gt;Node2 -->
<g id="edge1_Node000001_Node000002" class="edge">
<title>Node1&#45;&gt;Node2</title>
<g id="a_edge1_Node000001_Node000002"><a xlink:title=" ">
<path fill="none" stroke="#63b8ff" d="M143.22,-28.5C151.57,-28.5 160.14,-28.5 168.62,-28.5"/>
<polygon fill="#63b8ff" stroke="#63b8ff" points="168.89,-32 178.89,-28.5 168.89,-25 168.89,-32"/>
</a>
</g>
</g>
<!-- Node3 -->
<g id="Node000003" class="node">
<title>Node3</title>
<g id="a_Node000003"><a xlink:href="namespaceutil_1_1io.html#a38afb09a152cca4061850f4123bd3aeb" target="_top" xlink:title="Returns tab spaces of given size.">
<polygon fill="white" stroke="#666666" points="577,-38 492,-38 492,-19 577,-19 577,-38"/>
<text text-anchor="middle" x="534.5" y="-26" font-family="Arial" font-size="10.00">util::io::getTabS</text>
</a>
</g>
</g>
<!-- Node2&#45;&gt;Node3 -->
<g id="edge2_Node000002_Node000003" class="edge">
<title>Node2&#45;&gt;Node3</title>
<g id="a_edge2_Node000002_Node000003"><a xlink:title=" ">
<path fill="none" stroke="#63b8ff" d="M322.3,-28.5C371.79,-28.5 436.78,-28.5 481.53,-28.5"/>
<polygon fill="#63b8ff" stroke="#63b8ff" points="481.6,-32 491.6,-28.5 481.6,-25 481.6,-32"/>
</a>
</g>
</g>
<!-- Node4 -->
<g id="Node000004" class="node">
<title>Node4</title>
<g id="a_Node000004"><a xlink:href="namespaceutil_1_1io.html#a2b2ea15e35fb349760ca1f0b521e7269" target="_top" xlink:title="Returns formatted string for output.">
<polygon fill="white" stroke="#666666" points="456,-19 358,-19 358,0 456,0 456,-19"/>
<text text-anchor="middle" x="407" y="-7" font-family="Arial" font-size="10.00">util::io::printBoxStr</text>
</a>
</g>
</g>
<!-- Node2&#45;&gt;Node4 -->
<g id="edge3_Node000002_Node000004" class="edge">
<title>Node2&#45;&gt;Node4</title>
<g id="a_edge3_Node000002_Node000004"><a xlink:title=" ">
<path fill="none" stroke="#63b8ff" d="M322.42,-19.78C330.79,-18.75 339.25,-17.71 347.42,-16.7"/>
<polygon fill="#63b8ff" stroke="#63b8ff" points="348.08,-20.15 357.58,-15.45 347.23,-13.2 348.08,-20.15"/>
</a>
</g>
</g>
<!-- Node4&#45;&gt;Node3 -->
<g id="edge4_Node000004_Node000003" class="edge">
<title>Node4&#45;&gt;Node3</title>
<g id="a_edge4_Node000004_Node000003"><a xlink:title=" ">
<path fill="none" stroke="#63b8ff" d="M456.16,-16.79C464.52,-18.06 473.24,-19.38 481.68,-20.66"/>
<polygon fill="#63b8ff" stroke="#63b8ff" points="481.4,-24.15 491.81,-22.19 482.44,-17.23 481.4,-24.15"/>
</a>
</g>
</g>
</g>
</svg>
