<?xml version="1.0" encoding="UTF-8" standalone="no"?>
<!DOCTYPE svg PUBLIC "-//W3C//DTD SVG 1.1//EN"
 "http://www.w3.org/Graphics/SVG/1.1/DTD/svg11.dtd">
<!-- Generated by graphviz version 2.43.0 (0)
 -->
<!-- Title: model::DEMModel::setupContact Pages: 1 -->
<svg width="310pt" height="64pt"
 viewBox="0.00 0.00 310.00 64.00" xmlns="http://www.w3.org/2000/svg" xmlns:xlink="http://www.w3.org/1999/xlink">
<g id="graph0" class="graph" transform="scale(1 1) rotate(0) translate(4 60)">
<title>model::DEMModel::setupContact</title>
<!-- Node1 -->
<g id="Node000001" class="node">
<title>Node1</title>
<g id="a_Node000001"><a xlink:title="Creates particles in a given container.">
<polygon fill="#999999" stroke="#666666" points="162,-37 0,-37 0,-18 162,-18 162,-37"/>
<text text-anchor="middle" x="81" y="-25" font-family="Arial" font-size="10.00">model::DEMModel::setupContact</text>
</a>
</g>
</g>
<!-- Node2 -->
<g id="Node000002" class="node">
<title>Node2</title>
<g id="a_Node000002"><a xlink:href="namespaceutil.html#a61b8040019c885bc15525802079bd9e1" target="_top" xlink:title="Compute harmonic mean of m1 and m2.">
<polygon fill="white" stroke="#666666" points="302,-56 198,-56 198,-37 302,-37 302,-56"/>
<text text-anchor="middle" x="250" y="-44" font-family="Arial" font-size="10.00">util::equivalentMass</text>
</a>
</g>
</g>
<!-- Node1&#45;&gt;Node2 -->
<g id="edge1_Node000001_Node000002" class="edge">
<title>Node1&#45;&gt;Node2</title>
<g id="a_edge1_Node000001_Node000002"><a xlink:title=" ">
<path fill="none" stroke="#63b8ff" d="M162.08,-36.61C170.76,-37.6 179.5,-38.59 187.91,-39.55"/>
<polygon fill="#63b8ff" stroke="#63b8ff" points="187.65,-43.04 197.99,-40.7 188.45,-36.09 187.65,-43.04"/>
</a>
</g>
</g>
<!-- Node3 -->
<g id="Node000003" class="node">
<title>Node3</title>
<g id="a_Node000003"><a xlink:href="namespaceutil.html#a227b5f8acbd7a403a033663c8893d631" target="_top" xlink:title="Returns true if a &gt; b.">
<polygon fill="white" stroke="#666666" points="287.5,-19 212.5,-19 212.5,0 287.5,0 287.5,-19"/>
<text text-anchor="middle" x="250" y="-7" font-family="Arial" font-size="10.00">util::isGreater</text>
</a>
</g>
</g>
<!-- Node1&#45;&gt;Node3 -->
<g id="edge2_Node000001_Node000003" class="edge">
<title>Node1&#45;&gt;Node3</title>
<g id="a_edge2_Node000001_Node000003"><a xlink:title=" ">
<path fill="none" stroke="#63b8ff" d="M162.08,-18.87C175.81,-17.39 189.67,-15.9 202.16,-14.55"/>
<polygon fill="#63b8ff" stroke="#63b8ff" points="202.73,-18.01 212.3,-13.46 201.98,-11.05 202.73,-18.01"/>
</a>
</g>
</g>
</g>
</svg>
