<?xml version="1.0" encoding="UTF-8" standalone="no"?>
<!DOCTYPE svg PUBLIC "-//W3C//DTD SVG 1.1//EN"
 "http://www.w3.org/Graphics/SVG/1.1/DTD/svg11.dtd">
<!-- Generated by graphviz version 2.43.0 (0)
 -->
<!-- Title: model::DEMModel::createParticlesFromFile Pages: 1 -->
<svg width="623pt" height="227pt"
 viewBox="0.00 0.00 623.00 227.00" xmlns="http://www.w3.org/2000/svg" xmlns:xlink="http://www.w3.org/1999/xlink">
<g id="graph0" class="graph" transform="scale(1 1) rotate(0) translate(4 223)">
<title>model::DEMModel::createParticlesFromFile</title>
<!-- Node1 -->
<g id="node1" class="node">
<title>Node1</title>
<g id="a_node1"><a xlink:title="Creates particles in a Hexagonal arrangement.">
<polygon fill="#bfbfbf" stroke="black" points="0,-112 0,-142 169,-142 169,-112 0,-112"/>
<text text-anchor="start" x="8" y="-130" font-family="Arial" font-size="10.00">model::DEMModel::createParticles</text>
<text text-anchor="middle" x="84.5" y="-119" font-family="Arial" font-size="10.00">FromFile</text>
</a>
</g>
</g>
<!-- Node2 -->
<g id="node2" class="node">
<title>Node2</title>
<g id="a_node2"><a xlink:href="namespaceutil_1_1io.html#acc310b3994931fe61f43d5a5152aebc1" target="_top" xlink:title="Global method to log the message.">
<polygon fill="none" stroke="black" points="233,-199.5 233,-218.5 295,-218.5 295,-199.5 233,-199.5"/>
<text text-anchor="middle" x="264" y="-206.5" font-family="Arial" font-size="10.00">util::io::log</text>
</a>
</g>
</g>
<!-- Node1&#45;&gt;Node2 -->
<g id="edge1" class="edge">
<title>Node1&#45;&gt;Node2</title>
<path fill="none" stroke="midnightblue" d="M111,-142.06C134.78,-155.71 171.53,-175.81 205,-190 210.83,-192.47 217.09,-194.82 223.27,-196.97"/>
<polygon fill="midnightblue" stroke="midnightblue" points="222.25,-200.32 232.84,-200.18 224.47,-193.69 222.25,-200.32"/>
</g>
<!-- Node4 -->
<g id="node4" class="node">
<title>Node4</title>
<g id="a_node4"><a xlink:href="namespaceutil_1_1io.html#a3e537e3bd778616255015cde6e60a30a" target="_top" xlink:title="Returns formatted string for output.">
<polygon fill="none" stroke="black" points="224,-161.5 224,-180.5 304,-180.5 304,-161.5 224,-161.5"/>
<text text-anchor="middle" x="264" y="-168.5" font-family="Arial" font-size="10.00">util::io::printStr</text>
</a>
</g>
</g>
<!-- Node1&#45;&gt;Node4 -->
<g id="edge3" class="edge">
<title>Node1&#45;&gt;Node4</title>
<path fill="none" stroke="midnightblue" d="M146.09,-142.02C168.54,-147.59 193.68,-153.82 214.88,-159.07"/>
<polygon fill="midnightblue" stroke="midnightblue" points="214.08,-162.48 224.63,-161.49 215.76,-155.68 214.08,-162.48"/>
</g>
<!-- Node6 -->
<g id="node6" class="node">
<title>Node6</title>
<g id="a_node6"><a xlink:href="namespacerw_1_1reader.html#abf10c43da999faa4a3c0c93cb8b09689" target="_top" xlink:title="Reads particles center location, radius, and zone id.">
<polygon fill="none" stroke="black" points="205,-112 205,-142 323,-142 323,-112 205,-112"/>
<text text-anchor="start" x="213" y="-130" font-family="Arial" font-size="10.00">rw::reader::readParticle</text>
<text text-anchor="middle" x="264" y="-119" font-family="Arial" font-size="10.00">CsvFile</text>
</a>
</g>
</g>
<!-- Node1&#45;&gt;Node6 -->
<g id="edge5" class="edge">
<title>Node1&#45;&gt;Node6</title>
<path fill="none" stroke="midnightblue" d="M169.05,-127C177.68,-127 186.38,-127 194.81,-127"/>
<polygon fill="midnightblue" stroke="midnightblue" points="194.95,-130.5 204.95,-127 194.95,-123.5 194.95,-130.5"/>
</g>
<!-- Node7 -->
<g id="node7" class="node">
<title>Node7</title>
<g id="a_node7"><a xlink:href="namespacerw_1_1reader.html#abca6027a07f02b2f2b7068b1765702de" target="_top" xlink:title="Reads particles center location, radius, and zone id. In this case, file also provides initial orient...">
<polygon fill="none" stroke="black" points="205,-63 205,-93 323,-93 323,-63 205,-63"/>
<text text-anchor="start" x="213" y="-81" font-family="Arial" font-size="10.00">rw::reader::readParticle</text>
<text text-anchor="middle" x="264" y="-70" font-family="Arial" font-size="10.00">WithOrientCsvFile</text>
</a>
</g>
</g>
<!-- Node1&#45;&gt;Node7 -->
<g id="edge6" class="edge">
<title>Node1&#45;&gt;Node7</title>
<path fill="none" stroke="midnightblue" d="M140.2,-111.9C158.68,-106.8 179.48,-101.06 198.63,-95.77"/>
<polygon fill="midnightblue" stroke="midnightblue" points="199.77,-99.09 208.48,-93.05 197.91,-92.34 199.77,-99.09"/>
</g>
<!-- Node8 -->
<g id="node8" class="node">
<title>Node8</title>
<g id="a_node8"><a xlink:href="namespaceutil.html#a663b495a76c7875a51986e259e93f63f" target="_top" xlink:title="Transform sample from U(0,1) to U(a,b)">
<polygon fill="none" stroke="black" points="219,-14 219,-44 309,-44 309,-14 219,-14"/>
<text text-anchor="start" x="227" y="-32" font-family="Arial" font-size="10.00">util::transform_to</text>
<text text-anchor="middle" x="264" y="-21" font-family="Arial" font-size="10.00">_uniform_dist</text>
</a>
</g>
</g>
<!-- Node1&#45;&gt;Node8 -->
<g id="edge7" class="edge">
<title>Node1&#45;&gt;Node8</title>
<path fill="none" stroke="midnightblue" d="M108.3,-111.74C131.94,-96.23 170.24,-71.99 205,-54 208.72,-52.07 212.63,-50.16 216.58,-48.31"/>
<polygon fill="midnightblue" stroke="midnightblue" points="218.17,-51.43 225.82,-44.1 215.26,-45.06 218.17,-51.43"/>
</g>
<!-- Node3 -->
<g id="node3" class="node">
<title>Node3</title>
<g id="a_node3"><a xlink:href="classutil_1_1io_1_1Logger.html#a5d4600ff2841534892839c72a7f04547" target="_top" xlink:title="Log the message.">
<polygon fill="none" stroke="black" points="359.5,-199.5 359.5,-218.5 456.5,-218.5 456.5,-199.5 359.5,-199.5"/>
<text text-anchor="middle" x="408" y="-206.5" font-family="Arial" font-size="10.00">util::io::Logger::log</text>
</a>
</g>
</g>
<!-- Node2&#45;&gt;Node3 -->
<g id="edge2" class="edge">
<title>Node2&#45;&gt;Node3</title>
<path fill="none" stroke="midnightblue" d="M295.11,-209C310.84,-209 330.64,-209 349.18,-209"/>
<polygon fill="midnightblue" stroke="midnightblue" points="349.33,-212.5 359.33,-209 349.33,-205.5 349.33,-212.5"/>
</g>
<!-- Node5 -->
<g id="node5" class="node">
<title>Node5</title>
<g id="a_node5"><a xlink:href="namespaceutil_1_1io.html#a38afb09a152cca4061850f4123bd3aeb" target="_top" xlink:title="Returns tab spaces of given size.">
<polygon fill="none" stroke="black" points="365.5,-161.5 365.5,-180.5 450.5,-180.5 450.5,-161.5 365.5,-161.5"/>
<text text-anchor="middle" x="408" y="-168.5" font-family="Arial" font-size="10.00">util::io::getTabS</text>
</a>
</g>
</g>
<!-- Node4&#45;&gt;Node5 -->
<g id="edge4" class="edge">
<title>Node4&#45;&gt;Node5</title>
<path fill="none" stroke="midnightblue" d="M304.18,-171C319.95,-171 338.36,-171 355.22,-171"/>
<polygon fill="midnightblue" stroke="midnightblue" points="355.47,-174.5 365.47,-171 355.47,-167.5 355.47,-174.5"/>
</g>
<!-- Node9 -->
<g id="node9" class="node">
<title>Node9</title>
<g id="a_node9"><a xlink:href="namespaceutil_1_1methods.html#a7ad94e441da65fc0f1cafe183fa252fe" target="_top" xlink:title="Returns the maximum from list of data.">
<polygon fill="none" stroke="black" points="359,-38.5 359,-57.5 457,-57.5 457,-38.5 359,-38.5"/>
<text text-anchor="middle" x="408" y="-45.5" font-family="Arial" font-size="10.00">util::methods::max</text>
</a>
</g>
</g>
<!-- Node8&#45;&gt;Node9 -->
<g id="edge8" class="edge">
<title>Node8&#45;&gt;Node9</title>
<path fill="none" stroke="midnightblue" d="M309.15,-34.91C321.74,-36.59 335.64,-38.45 348.93,-40.23"/>
<polygon fill="midnightblue" stroke="midnightblue" points="348.55,-43.71 358.93,-41.57 349.48,-36.77 348.55,-43.71"/>
</g>
<!-- Node11 -->
<g id="node11" class="node">
<title>Node11</title>
<g id="a_node11"><a xlink:href="namespaceutil_1_1methods.html#a801072603311ff11a3cade8cf979a78b" target="_top" xlink:title="Returns the minimim from list of data.">
<polygon fill="none" stroke="black" points="360.5,-0.5 360.5,-19.5 455.5,-19.5 455.5,-0.5 360.5,-0.5"/>
<text text-anchor="middle" x="408" y="-7.5" font-family="Arial" font-size="10.00">util::methods::min</text>
</a>
</g>
</g>
<!-- Node8&#45;&gt;Node11 -->
<g id="edge10" class="edge">
<title>Node8&#45;&gt;Node11</title>
<path fill="none" stroke="midnightblue" d="M309.15,-23.09C322.13,-21.36 336.51,-19.43 350.16,-17.61"/>
<polygon fill="midnightblue" stroke="midnightblue" points="350.97,-21.03 360.42,-16.23 350.04,-14.09 350.97,-21.03"/>
</g>
<!-- Node10 -->
<g id="node10" class="node">
<title>Node10</title>
<g id="a_node10"><a xlink:href="namespaceutil_1_1methods.html#afcbb8d0d56cac1187ad2945bd187f6cf" target="_top" xlink:title="Returns the index corresponding to maximum from list of data.">
<polygon fill="none" stroke="black" points="493,-38.5 493,-57.5 615,-57.5 615,-38.5 493,-38.5"/>
<text text-anchor="middle" x="554" y="-45.5" font-family="Arial" font-size="10.00">util::methods::maxIndex</text>
</a>
</g>
</g>
<!-- Node9&#45;&gt;Node10 -->
<g id="edge9" class="edge">
<title>Node9&#45;&gt;Node10</title>
<path fill="none" stroke="midnightblue" d="M457.35,-48C465.51,-48 474.13,-48 482.72,-48"/>
<polygon fill="midnightblue" stroke="midnightblue" points="482.75,-51.5 492.75,-48 482.75,-44.5 482.75,-51.5"/>
</g>
<!-- Node12 -->
<g id="node12" class="node">
<title>Node12</title>
<g id="a_node12"><a xlink:href="namespaceutil_1_1methods.html#a7fd2991e85f113b04b05191b0bf6bfe0" target="_top" xlink:title="Returns the index corresponding to minimum from list of data.">
<polygon fill="none" stroke="black" points="494.5,-0.5 494.5,-19.5 613.5,-19.5 613.5,-0.5 494.5,-0.5"/>
<text text-anchor="middle" x="554" y="-7.5" font-family="Arial" font-size="10.00">util::methods::minIndex</text>
</a>
</g>
</g>
<!-- Node11&#45;&gt;Node12 -->
<g id="edge11" class="edge">
<title>Node11&#45;&gt;Node12</title>
<path fill="none" stroke="midnightblue" d="M455.75,-10C464.9,-10 474.66,-10 484.34,-10"/>
<polygon fill="midnightblue" stroke="midnightblue" points="484.38,-13.5 494.38,-10 484.38,-6.5 484.38,-13.5"/>
</g>
</g>
</svg>
