<?xml version="1.0" encoding="UTF-8" standalone="no"?>
<!DOCTYPE svg PUBLIC "-//W3C//DTD SVG 1.1//EN"
 "http://www.w3.org/Graphics/SVG/1.1/DTD/svg11.dtd">
<!-- Generated by graphviz version 2.43.0 (0)
 -->
<!-- Title: inp::Input::Input Pages: 1 -->
<svg width="580pt" height="192pt"
 viewBox="0.00 0.00 580.00 192.00" xmlns="http://www.w3.org/2000/svg" xmlns:xlink="http://www.w3.org/1999/xlink">
<g id="graph0" class="graph" transform="scale(1 1) rotate(0) translate(4 188)">
<title>inp::Input::Input</title>
<!-- Node1 -->
<g id="Node000001" class="node">
<title>Node1</title>
<g id="a_Node000001"><a xlink:title="Constructor.">
<polygon fill="#999999" stroke="#666666" points="85,-93 0,-93 0,-74 85,-74 85,-93"/>
<text text-anchor="middle" x="42.5" y="-81" font-family="Arial" font-size="10.00">inp::Input::Input</text>
</a>
</g>
</g>
<!-- Node2 -->
<g id="Node000002" class="node">
<title>Node2</title>
<g id="a_Node000002"><a xlink:href="classinp_1_1Input.html#aad0e5ab61c49b05c8c1cc665d1c459a8" target="_top" xlink:title="Read data into particle deck and store its pointer.">
<polygon fill="white" stroke="#666666" points="255,-167 121,-167 121,-148 255,-148 255,-167"/>
<text text-anchor="middle" x="188" y="-155" font-family="Arial" font-size="10.00">inp::Input::setContactDeck</text>
</a>
</g>
</g>
<!-- Node1&#45;&gt;Node2 -->
<g id="edge1_Node000001_Node000002" class="edge">
<title>Node1&#45;&gt;Node2</title>
<g id="a_edge1_Node000001_Node000002"><a xlink:title=" ">
<path fill="none" stroke="#63b8ff" d="M54.24,-93.22C68.5,-105.65 94.94,-127.04 121,-139.5 125.03,-141.43 129.29,-143.17 133.64,-144.75"/>
<polygon fill="#63b8ff" stroke="#63b8ff" points="132.64,-148.11 143.24,-147.95 134.86,-141.47 132.64,-148.11"/>
</a>
</g>
</g>
<!-- Node6 -->
<g id="Node000006" class="node">
<title>Node6</title>
<g id="a_Node000006"><a xlink:href="classinp_1_1Input.html#a3a417813c17cc7caf490f47252120668" target="_top" xlink:title="Read data into model deck and store its pointer.">
<polygon fill="white" stroke="#666666" points="251,-130 125,-130 125,-111 251,-111 251,-130"/>
<text text-anchor="middle" x="188" y="-118" font-family="Arial" font-size="10.00">inp::Input::setModelDeck</text>
</a>
</g>
</g>
<!-- Node1&#45;&gt;Node6 -->
<g id="edge5_Node000001_Node000006" class="edge">
<title>Node1&#45;&gt;Node6</title>
<g id="a_edge5_Node000001_Node000006"><a xlink:title=" ">
<path fill="none" stroke="#63b8ff" d="M80.45,-93.03C98.56,-97.7 120.56,-103.37 139.86,-108.35"/>
<polygon fill="#63b8ff" stroke="#63b8ff" points="139.11,-111.77 149.67,-110.88 140.86,-104.99 139.11,-111.77"/>
</a>
</g>
</g>
<!-- Node7 -->
<g id="Node000007" class="node">
<title>Node7</title>
<g id="a_Node000007"><a xlink:href="classinp_1_1Input.html#a28eda38c0c63b27f3be7a5b49b5339b6" target="_top" xlink:title="Read data into output deck and store its pointer.">
<polygon fill="white" stroke="#666666" points="252.5,-93 123.5,-93 123.5,-74 252.5,-74 252.5,-93"/>
<text text-anchor="middle" x="188" y="-81" font-family="Arial" font-size="10.00">inp::Input::setOutputDeck</text>
</a>
</g>
</g>
<!-- Node1&#45;&gt;Node7 -->
<g id="edge6_Node000001_Node000007" class="edge">
<title>Node1&#45;&gt;Node7</title>
<g id="a_edge6_Node000001_Node000007"><a xlink:title=" ">
<path fill="none" stroke="#63b8ff" d="M85.01,-83.5C93.91,-83.5 103.58,-83.5 113.3,-83.5"/>
<polygon fill="#63b8ff" stroke="#63b8ff" points="113.41,-87 123.41,-83.5 113.41,-80 113.41,-87"/>
</a>
</g>
</g>
<!-- Node8 -->
<g id="Node000008" class="node">
<title>Node8</title>
<g id="a_Node000008"><a xlink:href="classinp_1_1Input.html#a5689d155dc964e648dc91dd9e5c8ade6" target="_top" xlink:title="Read data into particle deck and store its pointer.">
<polygon fill="white" stroke="#666666" points="254.5,-56 121.5,-56 121.5,-37 254.5,-37 254.5,-56"/>
<text text-anchor="middle" x="188" y="-44" font-family="Arial" font-size="10.00">inp::Input::setParticleDeck</text>
</a>
</g>
</g>
<!-- Node1&#45;&gt;Node8 -->
<g id="edge7_Node000001_Node000008" class="edge">
<title>Node1&#45;&gt;Node8</title>
<g id="a_edge7_Node000001_Node000008"><a xlink:title=" ">
<path fill="none" stroke="#63b8ff" d="M80.45,-73.97C98.56,-69.3 120.56,-63.63 139.86,-58.65"/>
<polygon fill="#63b8ff" stroke="#63b8ff" points="140.86,-62.01 149.67,-56.12 139.11,-55.23 140.86,-62.01"/>
</a>
</g>
</g>
<!-- Node12 -->
<g id="Node000012" class="node">
<title>Node12</title>
<g id="a_Node000012"><a xlink:href="classinp_1_1Input.html#a76d6d4b83ac657399204b0e839a4f3aa" target="_top" xlink:title="Read data into restart deck and store its pointer.">
<polygon fill="white" stroke="#666666" points="254,-19 122,-19 122,0 254,0 254,-19"/>
<text text-anchor="middle" x="188" y="-7" font-family="Arial" font-size="10.00">inp::Input::setRestartDeck</text>
</a>
</g>
</g>
<!-- Node1&#45;&gt;Node12 -->
<g id="edge11_Node000001_Node000012" class="edge">
<title>Node1&#45;&gt;Node12</title>
<g id="a_edge11_Node000001_Node000012"><a xlink:title=" ">
<path fill="none" stroke="#63b8ff" d="M54.24,-73.78C68.5,-61.35 94.94,-39.96 121,-27.5 125.03,-25.57 129.29,-23.83 133.64,-22.25"/>
<polygon fill="#63b8ff" stroke="#63b8ff" points="134.86,-25.53 143.24,-19.05 132.64,-18.89 134.86,-25.53"/>
</a>
</g>
</g>
<!-- Node3 -->
<g id="Node000003" class="node">
<title>Node3</title>
<g id="a_Node000003"><a xlink:href="namespaceutil.html#a868a26599b6b844d08d30063ac898319" target="_top" xlink:title="Returns true if a &lt; b.">
<polygon fill="white" stroke="#666666" points="390.5,-184 326.5,-184 326.5,-165 390.5,-165 390.5,-184"/>
<text text-anchor="middle" x="358.5" y="-172" font-family="Arial" font-size="10.00">util::isLess</text>
</a>
</g>
</g>
<!-- Node2&#45;&gt;Node3 -->
<g id="edge2_Node000002_Node000003" class="edge">
<title>Node2&#45;&gt;Node3</title>
<g id="a_edge2_Node000002_Node000003"><a xlink:title=" ">
<path fill="none" stroke="#63b8ff" d="M255.11,-164.17C275.71,-166.25 297.82,-168.48 316.21,-170.33"/>
<polygon fill="#63b8ff" stroke="#63b8ff" points="315.99,-173.83 326.29,-171.35 316.69,-166.86 315.99,-173.83"/>
</a>
</g>
</g>
<!-- Node4 -->
<g id="Node000004" class="node">
<title>Node4</title>
<g id="a_Node000004"><a xlink:href="structinp_1_1ContactPairDeck.html#ab81bbedb62aae664a6a640cab1572c13" target="_top" xlink:title="Returns the string containing printable information about the object.">
<polygon fill="white" stroke="#666666" points="413.5,-146.5 303.5,-146.5 303.5,-116.5 413.5,-116.5 413.5,-146.5"/>
<text text-anchor="start" x="311.5" y="-134.5" font-family="Arial" font-size="10.00">inp::ContactPairDeck</text>
<text text-anchor="middle" x="358.5" y="-123.5" font-family="Arial" font-size="10.00">::printStr</text>
</a>
</g>
</g>
<!-- Node2&#45;&gt;Node4 -->
<g id="edge3_Node000002_Node000004" class="edge">
<title>Node2&#45;&gt;Node4</title>
<g id="a_edge3_Node000002_Node000004"><a xlink:title=" ">
<path fill="none" stroke="#63b8ff" d="M250.79,-147.97C264.62,-145.83 279.32,-143.56 293.25,-141.41"/>
<polygon fill="#63b8ff" stroke="#63b8ff" points="293.88,-144.86 303.23,-139.87 292.81,-137.94 293.88,-144.86"/>
</a>
</g>
</g>
<!-- Node5 -->
<g id="Node000005" class="node">
<title>Node5</title>
<g id="a_Node000005"><a xlink:href="namespaceutil_1_1io.html#a38afb09a152cca4061850f4123bd3aeb" target="_top" xlink:title="Returns tab spaces of given size.">
<polygon fill="white" stroke="#666666" points="559.5,-141 474.5,-141 474.5,-122 559.5,-122 559.5,-141"/>
<text text-anchor="middle" x="517" y="-129" font-family="Arial" font-size="10.00">util::io::getTabS</text>
</a>
</g>
</g>
<!-- Node4&#45;&gt;Node5 -->
<g id="edge4_Node000004_Node000005" class="edge">
<title>Node4&#45;&gt;Node5</title>
<g id="a_edge4_Node000004_Node000005"><a xlink:title=" ">
<path fill="none" stroke="#63b8ff" d="M413.8,-131.5C430.02,-131.5 447.76,-131.5 463.84,-131.5"/>
<polygon fill="#63b8ff" stroke="#63b8ff" points="464.14,-135 474.14,-131.5 464.14,-128 464.14,-135"/>
</a>
</g>
</g>
<!-- Node9 -->
<g id="Node000009" class="node">
<title>Node9</title>
<g id="a_Node000009"><a xlink:href="namespaceutil_1_1geometry.html#ae276de197ea051002fc7c062c259537e" target="_top" xlink:title=" ">
<polygon fill="white" stroke="#666666" points="426,-88.5 291,-88.5 291,-58.5 426,-58.5 426,-88.5"/>
<text text-anchor="start" x="299" y="-76.5" font-family="Arial" font-size="10.00">util::geometry::createGeom</text>
<text text-anchor="middle" x="358.5" y="-65.5" font-family="Arial" font-size="10.00">Object</text>
</a>
</g>
</g>
<!-- Node8&#45;&gt;Node9 -->
<g id="edge8_Node000008_Node000009" class="edge">
<title>Node8&#45;&gt;Node9</title>
<g id="a_edge8_Node000008_Node000009"><a xlink:title=" ">
<path fill="none" stroke="#63b8ff" d="M248.41,-56.02C258.93,-57.7 270.01,-59.48 280.92,-61.23"/>
<polygon fill="#63b8ff" stroke="#63b8ff" points="280.45,-64.7 290.88,-62.82 281.56,-57.79 280.45,-64.7"/>
</a>
</g>
</g>
<!-- Node10 -->
<g id="Node000010" class="node">
<title>Node10</title>
<g id="a_Node000010"><a xlink:href="namespaceutil_1_1methods.html#ab21bec324f7d53e91378acc142303fb3" target="_top" xlink:title="Returns true if tag is found in the list of tags.">
<polygon fill="white" stroke="#666666" points="421.5,-40 295.5,-40 295.5,-21 421.5,-21 421.5,-40"/>
<text text-anchor="middle" x="358.5" y="-28" font-family="Arial" font-size="10.00">util::methods::isTagInList</text>
</a>
</g>
</g>
<!-- Node8&#45;&gt;Node10 -->
<g id="edge9_Node000008_Node000010" class="edge">
<title>Node8&#45;&gt;Node10</title>
<g id="a_edge9_Node000008_Node000010"><a xlink:title=" ">
<path fill="none" stroke="#63b8ff" d="M254.63,-40.27C264.68,-39.31 275.1,-38.32 285.28,-37.36"/>
<polygon fill="#63b8ff" stroke="#63b8ff" points="285.74,-40.83 295.36,-36.4 285.07,-33.86 285.74,-40.83"/>
</a>
</g>
</g>
<!-- Node11 -->
<g id="Node000011" class="node">
<title>Node11</title>
<g id="a_Node000011"><a xlink:href="namespaceutil_1_1methods.html#a86460acadab9a2e99a92121c0213e444" target="_top" xlink:title="Find if data is in the list.">
<polygon fill="white" stroke="#666666" points="572,-40 462,-40 462,-21 572,-21 572,-40"/>
<text text-anchor="middle" x="517" y="-28" font-family="Arial" font-size="10.00">util::methods::isInList</text>
</a>
</g>
</g>
<!-- Node10&#45;&gt;Node11 -->
<g id="edge10_Node000010_Node000011" class="edge">
<title>Node10&#45;&gt;Node11</title>
<g id="a_edge10_Node000010_Node000011"><a xlink:title=" ">
<path fill="none" stroke="#63b8ff" d="M421.8,-30.5C431.67,-30.5 441.89,-30.5 451.81,-30.5"/>
<polygon fill="#63b8ff" stroke="#63b8ff" points="451.99,-34 461.99,-30.5 451.99,-27 451.99,-34"/>
</a>
</g>
</g>
</g>
</svg>
