<?xml version="1.0" encoding="UTF-8" standalone="no"?>
<!DOCTYPE svg PUBLIC "-//W3C//DTD SVG 1.1//EN"
 "http://www.w3.org/Graphics/SVG/1.1/DTD/svg11.dtd">
<!-- Generated by graphviz version 2.43.0 (0)
 -->
<!-- Title: model::DEMModel::init Pages: 1 -->
<svg width="566pt" height="191pt"
 viewBox="0.00 0.00 566.00 191.00" xmlns="http://www.w3.org/2000/svg" xmlns:xlink="http://www.w3.org/1999/xlink">
<g id="graph0" class="graph" transform="scale(1 1) rotate(0) translate(4 187)">
<title>model::DEMModel::init</title>
<!-- Node1 -->
<g id="node1" class="node">
<title>Node1</title>
<g id="a_node1"><a xlink:title="Initialize remaining data members.">
<polygon fill="#bfbfbf" stroke="black" points="0,-57.5 0,-76.5 116,-76.5 116,-57.5 0,-57.5"/>
<text text-anchor="middle" x="58" y="-64.5" font-family="Arial" font-size="10.00">model::DEMModel::init</text>
</a>
</g>
</g>
<!-- Node2 -->
<g id="node2" class="node">
<title>Node2</title>
<g id="a_node2"><a xlink:href="namespacematerial.html#a3d863a3738051cdc61931186eede7edd" target="_top" xlink:title="Computes the moment &#160;term in state&#45;based peridynamic formulation.">
<polygon fill="none" stroke="black" points="152,-114.5 152,-133.5 283,-133.5 283,-114.5 152,-114.5"/>
<text text-anchor="middle" x="217.5" y="-121.5" font-family="Arial" font-size="10.00">material::computeStateMx</text>
</a>
</g>
</g>
<!-- Node1&#45;&gt;Node2 -->
<g id="edge1" class="edge">
<title>Node1&#45;&gt;Node2</title>
<path fill="none" stroke="midnightblue" d="M80.56,-76.54C99.26,-84.63 127.15,-96.29 152,-105 158.44,-107.26 165.3,-109.47 172.06,-111.55"/>
<polygon fill="midnightblue" stroke="midnightblue" points="171.23,-114.96 181.82,-114.48 173.25,-108.25 171.23,-114.96"/>
</g>
<!-- Node7 -->
<g id="node7" class="node">
<title>Node7</title>
<g id="a_node7"><a xlink:href="namespaceutil_1_1methods.html#ac8ab8ee8690f8baa3e008256f7a5351d" target="_top" xlink:title="Returns true if degree of freedom is free.">
<polygon fill="none" stroke="black" points="164.5,-76.5 164.5,-95.5 270.5,-95.5 270.5,-76.5 164.5,-76.5"/>
<text text-anchor="middle" x="217.5" y="-83.5" font-family="Arial" font-size="10.00">util::methods::isFree</text>
</a>
</g>
</g>
<!-- Node1&#45;&gt;Node7 -->
<g id="edge6" class="edge">
<title>Node1&#45;&gt;Node7</title>
<path fill="none" stroke="midnightblue" d="M116.31,-73.91C128.73,-75.41 141.92,-77 154.52,-78.52"/>
<polygon fill="midnightblue" stroke="midnightblue" points="154.12,-82 164.46,-79.72 154.95,-75.05 154.12,-82"/>
</g>
<!-- Node8 -->
<g id="node8" class="node">
<title>Node8</title>
<g id="a_node8"><a xlink:href="namespaceutil_1_1io.html#acc310b3994931fe61f43d5a5152aebc1" target="_top" xlink:title="Global method to log the message.">
<polygon fill="none" stroke="black" points="186.5,-38.5 186.5,-57.5 248.5,-57.5 248.5,-38.5 186.5,-38.5"/>
<text text-anchor="middle" x="217.5" y="-45.5" font-family="Arial" font-size="10.00">util::io::log</text>
</a>
</g>
</g>
<!-- Node1&#45;&gt;Node8 -->
<g id="edge7" class="edge">
<title>Node1&#45;&gt;Node8</title>
<path fill="none" stroke="midnightblue" d="M116.31,-60.09C136.25,-57.68 158.18,-55.04 176.43,-52.83"/>
<polygon fill="midnightblue" stroke="midnightblue" points="176.92,-56.3 186.42,-51.63 176.08,-49.35 176.92,-56.3"/>
</g>
<!-- Node10 -->
<g id="node10" class="node">
<title>Node10</title>
<g id="a_node10"><a xlink:href="namespaceutil_1_1methods.html#aaf9cfac99073d034d41e10d4d17e59a2" target="_top" xlink:title="Returns difference between two times.">
<polygon fill="none" stroke="black" points="161,-0.5 161,-19.5 274,-19.5 274,-0.5 161,-0.5"/>
<text text-anchor="middle" x="217.5" y="-7.5" font-family="Arial" font-size="10.00">util::methods::timeDiff</text>
</a>
</g>
</g>
<!-- Node1&#45;&gt;Node10 -->
<g id="edge9" class="edge">
<title>Node1&#45;&gt;Node10</title>
<path fill="none" stroke="midnightblue" d="M80.56,-57.46C99.26,-49.37 127.15,-37.71 152,-29 158.44,-26.74 165.3,-24.53 172.06,-22.45"/>
<polygon fill="midnightblue" stroke="midnightblue" points="173.25,-25.75 181.82,-19.52 171.23,-19.04 173.25,-25.75"/>
</g>
<!-- Node3 -->
<g id="node3" class="node">
<title>Node3</title>
<g id="a_node3"><a xlink:href="namespaceanonymous__namespace_02materialUtil_8cpp_03.html#ac85a6f4a272ce35fea412770e2a94f4f" target="_top" xlink:title=" ">
<polygon fill="none" stroke="black" points="322,-133.5 322,-174.5 444,-174.5 444,-133.5 322,-133.5"/>
<text text-anchor="start" x="330" y="-162.5" font-family="Arial" font-size="10.00">anonymous_namespace</text>
<text text-anchor="start" x="330" y="-151.5" font-family="Arial" font-size="10.00">{materialUtil::cpp}</text>
<text text-anchor="middle" x="383" y="-140.5" font-family="Arial" font-size="10.00">::computeStateMxI</text>
</a>
</g>
</g>
<!-- Node2&#45;&gt;Node3 -->
<g id="edge2" class="edge">
<title>Node2&#45;&gt;Node3</title>
<path fill="none" stroke="midnightblue" d="M270.68,-133.57C283.77,-135.98 298.02,-138.59 311.82,-141.12"/>
<polygon fill="midnightblue" stroke="midnightblue" points="311.31,-144.59 321.77,-142.95 312.57,-137.7 311.31,-144.59"/>
</g>
<!-- Node6 -->
<g id="node6" class="node">
<title>Node6</title>
<g id="a_node6"><a xlink:href="namespaceutil_1_1parallel.html#a4ad550a438091fb9cd924783e690764d" target="_top" xlink:title="Get number of threads to be used by taskflow.">
<polygon fill="none" stroke="black" points="319,-95.5 319,-114.5 447,-114.5 447,-95.5 319,-95.5"/>
<text text-anchor="middle" x="383" y="-102.5" font-family="Arial" font-size="10.00">util::parallel::getNThreads</text>
</a>
</g>
</g>
<!-- Node2&#45;&gt;Node6 -->
<g id="edge5" class="edge">
<title>Node2&#45;&gt;Node6</title>
<path fill="none" stroke="midnightblue" d="M283.12,-116.49C291.59,-115.51 300.31,-114.49 308.91,-113.49"/>
<polygon fill="midnightblue" stroke="midnightblue" points="309.39,-116.96 318.92,-112.33 308.58,-110.01 309.39,-116.96"/>
</g>
<!-- Node4 -->
<g id="node4" class="node">
<title>Node4</title>
<g id="a_node4"><a xlink:href="namespaceutil.html#a227b5f8acbd7a403a033663c8893d631" target="_top" xlink:title="Returns true if a &gt; b.">
<polygon fill="none" stroke="black" points="483,-163.5 483,-182.5 558,-182.5 558,-163.5 483,-163.5"/>
<text text-anchor="middle" x="520.5" y="-170.5" font-family="Arial" font-size="10.00">util::isGreater</text>
</a>
</g>
</g>
<!-- Node3&#45;&gt;Node4 -->
<g id="edge3" class="edge">
<title>Node3&#45;&gt;Node4</title>
<path fill="none" stroke="midnightblue" d="M444.22,-162.44C453.77,-163.78 463.53,-165.15 472.71,-166.44"/>
<polygon fill="midnightblue" stroke="midnightblue" points="472.41,-169.93 482.8,-167.85 473.38,-163 472.41,-169.93"/>
</g>
<!-- Node5 -->
<g id="node5" class="node">
<title>Node5</title>
<g id="a_node5"><a xlink:href="namespaceutil.html#a868a26599b6b844d08d30063ac898319" target="_top" xlink:title="Returns true if a &lt; b.">
<polygon fill="none" stroke="black" points="488.5,-125.5 488.5,-144.5 552.5,-144.5 552.5,-125.5 488.5,-125.5"/>
<text text-anchor="middle" x="520.5" y="-132.5" font-family="Arial" font-size="10.00">util::isLess</text>
</a>
</g>
</g>
<!-- Node3&#45;&gt;Node5 -->
<g id="edge4" class="edge">
<title>Node3&#45;&gt;Node5</title>
<path fill="none" stroke="midnightblue" d="M444.22,-145.56C455.79,-143.93 467.66,-142.27 478.45,-140.76"/>
<polygon fill="midnightblue" stroke="midnightblue" points="479,-144.21 488.42,-139.36 478.03,-137.28 479,-144.21"/>
</g>
<!-- Node9 -->
<g id="node9" class="node">
<title>Node9</title>
<g id="a_node9"><a xlink:href="classutil_1_1io_1_1Logger.html#a5d4600ff2841534892839c72a7f04547" target="_top" xlink:title="Log the message.">
<polygon fill="none" stroke="black" points="334.5,-38.5 334.5,-57.5 431.5,-57.5 431.5,-38.5 334.5,-38.5"/>
<text text-anchor="middle" x="383" y="-45.5" font-family="Arial" font-size="10.00">util::io::Logger::log</text>
</a>
</g>
</g>
<!-- Node8&#45;&gt;Node9 -->
<g id="edge8" class="edge">
<title>Node8&#45;&gt;Node9</title>
<path fill="none" stroke="midnightblue" d="M248.87,-48C269.97,-48 298.76,-48 324.16,-48"/>
<polygon fill="midnightblue" stroke="midnightblue" points="324.44,-51.5 334.44,-48 324.44,-44.5 324.44,-51.5"/>
</g>
</g>
</svg>
