<?xml version="1.0" encoding="UTF-8" standalone="no"?>
<!DOCTYPE svg PUBLIC "-//W3C//DTD SVG 1.1//EN"
 "http://www.w3.org/Graphics/SVG/1.1/DTD/svg11.dtd">
<!-- Generated by graphviz version 2.43.0 (0)
 -->
<!-- Title: material::RnpMaterial::RnpMaterial Pages: 1 -->
<svg width="428pt" height="335pt"
 viewBox="0.00 0.00 428.00 334.50" xmlns="http://www.w3.org/2000/svg" xmlns:xlink="http://www.w3.org/1999/xlink">
<g id="graph0" class="graph" transform="scale(1 1) rotate(0) translate(4 330.5)">
<title>material::RnpMaterial::RnpMaterial</title>
<!-- Node1 -->
<g id="Node000001" class="node">
<title>Node1</title>
<g id="a_Node000001"><a xlink:title="Constructor.">
<polygon fill="#999999" stroke="#666666" points="110,-172.5 0,-172.5 0,-142.5 110,-142.5 110,-172.5"/>
<text text-anchor="start" x="8" y="-160.5" font-family="Arial" font-size="10.00">material::RnpMaterial</text>
<text text-anchor="middle" x="55" y="-149.5" font-family="Arial" font-size="10.00">::RnpMaterial</text>
</a>
</g>
</g>
<!-- Node2 -->
<g id="Node000002" class="node">
<title>Node2</title>
<g id="a_Node000002"><a xlink:href="classmaterial_1_1RnpMaterial.html#a4b7201eea1901e36474d7d42e8f3ab08" target="_top" xlink:title="Compute material model parameters.">
<polygon fill="white" stroke="#666666" points="256,-172.5 146,-172.5 146,-142.5 256,-142.5 256,-172.5"/>
<text text-anchor="start" x="154" y="-160.5" font-family="Arial" font-size="10.00">material::RnpMaterial</text>
<text text-anchor="middle" x="201" y="-149.5" font-family="Arial" font-size="10.00">::computeParameters</text>
</a>
</g>
</g>
<!-- Node1&#45;&gt;Node2 -->
<g id="edge1_Node000001_Node000002" class="edge">
<title>Node1&#45;&gt;Node2</title>
<g id="a_edge1_Node000001_Node000002"><a xlink:title=" ">
<path fill="none" stroke="#63b8ff" d="M110.03,-157.5C118.31,-157.5 126.94,-157.5 135.42,-157.5"/>
<polygon fill="#63b8ff" stroke="#63b8ff" points="135.67,-161 145.67,-157.5 135.67,-154 135.67,-161"/>
</a>
</g>
</g>
<!-- Node3 -->
<g id="Node000003" class="node">
<title>Node3</title>
<g id="a_Node000003"><a xlink:href="classmaterial_1_1RnpMaterial.html#a7963ad7a3b63662d9752eb928c99b7cd" target="_top" xlink:title="Returns the moment of influence function.">
<polygon fill="white" stroke="#666666" points="411,-326.5 301,-326.5 301,-296.5 411,-296.5 411,-326.5"/>
<text text-anchor="start" x="309" y="-314.5" font-family="Arial" font-size="10.00">material::RnpMaterial</text>
<text text-anchor="middle" x="356" y="-303.5" font-family="Arial" font-size="10.00">::getMoment</text>
</a>
</g>
</g>
<!-- Node2&#45;&gt;Node3 -->
<g id="edge2_Node000002_Node000003" class="edge">
<title>Node2&#45;&gt;Node3</title>
<g id="a_edge2_Node000002_Node000003"><a xlink:title=" ">
<path fill="none" stroke="#63b8ff" d="M208.68,-172.55C221.26,-199.3 250.95,-255.33 292,-287.5 293.76,-288.88 295.61,-290.18 297.52,-291.42"/>
<polygon fill="#63b8ff" stroke="#63b8ff" points="295.83,-294.49 306.25,-296.41 299.31,-288.41 295.83,-294.49"/>
</a>
</g>
</g>
<!-- Node4 -->
<g id="Node000004" class="node">
<title>Node4</title>
<g id="a_Node000004"><a xlink:href="namespaceutil.html#a227b5f8acbd7a403a033663c8893d631" target="_top" xlink:title="Returns true if a &gt; b.">
<polygon fill="white" stroke="#666666" points="393.5,-278 318.5,-278 318.5,-259 393.5,-259 393.5,-278"/>
<text text-anchor="middle" x="356" y="-266" font-family="Arial" font-size="10.00">util::isGreater</text>
</a>
</g>
</g>
<!-- Node2&#45;&gt;Node4 -->
<g id="edge3_Node000002_Node000004" class="edge">
<title>Node2&#45;&gt;Node4</title>
<g id="a_edge3_Node000002_Node000004"><a xlink:title=" ">
<path fill="none" stroke="#63b8ff" d="M212.68,-172.76C227.92,-193.42 257.89,-230.05 292,-250.5 297.13,-253.57 302.8,-256.14 308.58,-258.29"/>
<polygon fill="#63b8ff" stroke="#63b8ff" points="307.75,-261.69 318.34,-261.5 309.94,-255.05 307.75,-261.69"/>
</a>
</g>
</g>
<!-- Node5 -->
<g id="Node000005" class="node">
<title>Node5</title>
<g id="a_Node000005"><a xlink:href="namespaceutil.html#a868a26599b6b844d08d30063ac898319" target="_top" xlink:title="Returns true if a &lt; b.">
<polygon fill="white" stroke="#666666" points="388,-241 324,-241 324,-222 388,-222 388,-241"/>
<text text-anchor="middle" x="356" y="-229" font-family="Arial" font-size="10.00">util::isLess</text>
</a>
</g>
</g>
<!-- Node2&#45;&gt;Node5 -->
<g id="edge4_Node000002_Node000005" class="edge">
<title>Node2&#45;&gt;Node5</title>
<g id="a_edge4_Node000002_Node000005"><a xlink:title=" ">
<path fill="none" stroke="#63b8ff" d="M222.53,-172.6C240.2,-185.01 266.77,-202.31 292,-213.5 299.01,-216.61 306.7,-219.33 314.23,-221.65"/>
<polygon fill="#63b8ff" stroke="#63b8ff" points="313.37,-225.05 323.95,-224.47 315.32,-218.33 313.37,-225.05"/>
</a>
</g>
</g>
<!-- Node6 -->
<g id="Node000006" class="node">
<title>Node6</title>
<g id="a_Node000006"><a xlink:href="structinp_1_1MatData.html#affdc48e3cd3c1b8d5ecd9138e48c0997" target="_top" xlink:title="Compute Young&#39;s modulus E from Bulk modulus K and Poisson&#39;s ratio nu.">
<polygon fill="white" stroke="#666666" points="403,-204 309,-204 309,-185 403,-185 403,-204"/>
<text text-anchor="middle" x="356" y="-192" font-family="Arial" font-size="10.00">inp::MatData::toE</text>
</a>
</g>
</g>
<!-- Node2&#45;&gt;Node6 -->
<g id="edge5_Node000002_Node000006" class="edge">
<title>Node2&#45;&gt;Node6</title>
<g id="a_edge5_Node000002_Node000006"><a xlink:title=" ">
<path fill="none" stroke="#63b8ff" d="M256.37,-170.65C272.44,-174.53 289.93,-178.76 305.65,-182.57"/>
<polygon fill="#63b8ff" stroke="#63b8ff" points="305.16,-186.05 315.7,-185 306.81,-179.24 305.16,-186.05"/>
</a>
</g>
</g>
<!-- Node7 -->
<g id="Node000007" class="node">
<title>Node7</title>
<g id="a_Node000007"><a xlink:href="structinp_1_1MatData.html#a0f3e68c535e66c2419dd85307043cb2c" target="_top" xlink:title="Compute critical energy release rate Gc from critical stress&#45;intensity factor KIc,...">
<polygon fill="white" stroke="#666666" points="406,-167 306,-167 306,-148 406,-148 406,-167"/>
<text text-anchor="middle" x="356" y="-155" font-family="Arial" font-size="10.00">inp::MatData::toGc</text>
</a>
</g>
</g>
<!-- Node2&#45;&gt;Node7 -->
<g id="edge6_Node000002_Node000007" class="edge">
<title>Node2&#45;&gt;Node7</title>
<g id="a_edge6_Node000002_Node000007"><a xlink:title=" ">
<path fill="none" stroke="#63b8ff" d="M256.37,-157.5C269.11,-157.5 282.75,-157.5 295.7,-157.5"/>
<polygon fill="#63b8ff" stroke="#63b8ff" points="295.9,-161 305.9,-157.5 295.9,-154 295.9,-161"/>
</a>
</g>
</g>
<!-- Node8 -->
<g id="Node000008" class="node">
<title>Node8</title>
<g id="a_Node000008"><a xlink:href="structinp_1_1MatData.html#a51cdc2a12304fb5fb9721ecfc06f6c03" target="_top" xlink:title="Compute shear modulus from Young&#39;s modulus E and Poisson&#39;s ratio nu.">
<polygon fill="white" stroke="#666666" points="406.5,-130 305.5,-130 305.5,-111 406.5,-111 406.5,-130"/>
<text text-anchor="middle" x="356" y="-118" font-family="Arial" font-size="10.00">inp::MatData::toGE</text>
</a>
</g>
</g>
<!-- Node2&#45;&gt;Node8 -->
<g id="edge7_Node000002_Node000008" class="edge">
<title>Node2&#45;&gt;Node8</title>
<g id="a_edge7_Node000002_Node000008"><a xlink:title=" ">
<path fill="none" stroke="#63b8ff" d="M256.37,-144.35C272.44,-140.47 289.93,-136.24 305.65,-132.43"/>
<polygon fill="#63b8ff" stroke="#63b8ff" points="306.81,-135.76 315.7,-130 305.16,-128.95 306.81,-135.76"/>
</a>
</g>
</g>
<!-- Node9 -->
<g id="Node000009" class="node">
<title>Node9</title>
<g id="a_Node000009"><a xlink:href="structinp_1_1MatData.html#a31efc121179610c7e9a9f97758693131" target="_top" xlink:title="Compute Bulk modulus K from Young&#39;s modulus K and Poisson&#39;s ratio nu.">
<polygon fill="white" stroke="#666666" points="403,-93 309,-93 309,-74 403,-74 403,-93"/>
<text text-anchor="middle" x="356" y="-81" font-family="Arial" font-size="10.00">inp::MatData::toK</text>
</a>
</g>
</g>
<!-- Node2&#45;&gt;Node9 -->
<g id="edge8_Node000002_Node000009" class="edge">
<title>Node2&#45;&gt;Node9</title>
<g id="a_edge8_Node000002_Node000009"><a xlink:title=" ">
<path fill="none" stroke="#63b8ff" d="M223.33,-142.3C241.05,-130.22 267.26,-113.57 292,-102.5 297.08,-100.23 302.52,-98.13 307.98,-96.22"/>
<polygon fill="#63b8ff" stroke="#63b8ff" points="309.37,-99.45 317.78,-93 307.19,-92.8 309.37,-99.45"/>
</a>
</g>
</g>
<!-- Node10 -->
<g id="Node000010" class="node">
<title>Node10</title>
<g id="a_Node000010"><a xlink:href="structinp_1_1MatData.html#a25dde9c5e5597dafe1b20f997bbf8be1" target="_top" xlink:title="Compute critical stress&#45;intensity factor KIc from critical energy release rate Gc,...">
<polygon fill="white" stroke="#666666" points="407,-56 305,-56 305,-37 407,-37 407,-56"/>
<text text-anchor="middle" x="356" y="-44" font-family="Arial" font-size="10.00">inp::MatData::toKIc</text>
</a>
</g>
</g>
<!-- Node2&#45;&gt;Node10 -->
<g id="edge9_Node000002_Node000010" class="edge">
<title>Node2&#45;&gt;Node10</title>
<g id="a_edge9_Node000002_Node000010"><a xlink:title=" ">
<path fill="none" stroke="#63b8ff" d="M212.76,-142.48C228.1,-122.13 258.17,-85.99 292,-65.5 295.57,-63.34 299.41,-61.4 303.36,-59.68"/>
<polygon fill="#63b8ff" stroke="#63b8ff" points="304.69,-62.92 312.73,-56.02 302.14,-56.4 304.69,-62.92"/>
</a>
</g>
</g>
<!-- Node11 -->
<g id="Node000011" class="node">
<title>Node11</title>
<g id="a_Node000011"><a xlink:href="structinp_1_1MatData.html#a0f7db5318c72dd88b8edc2a9c9c1c4e7" target="_top" xlink:title="Compute Lame first parameter lambda from Young&#39;s modulus E and Poisson&#39;s ratio nu.">
<polygon fill="white" stroke="#666666" points="420,-19 292,-19 292,0 420,0 420,-19"/>
<text text-anchor="middle" x="356" y="-7" font-family="Arial" font-size="10.00">inp::MatData::toLambdaE</text>
</a>
</g>
</g>
<!-- Node2&#45;&gt;Node11 -->
<g id="edge10_Node000002_Node000011" class="edge">
<title>Node2&#45;&gt;Node11</title>
<g id="a_edge10_Node000002_Node000011"><a xlink:title=" ">
<path fill="none" stroke="#63b8ff" d="M208.49,-142.27C220.76,-115.26 249.99,-58.95 292,-28.5 294.68,-26.56 297.57,-24.81 300.57,-23.24"/>
<polygon fill="#63b8ff" stroke="#63b8ff" points="302.19,-26.34 309.86,-19.04 299.31,-19.97 302.19,-26.34"/>
</a>
</g>
</g>
</g>
</svg>
