<?xml version="1.0" encoding="UTF-8" standalone="no"?>
<!DOCTYPE svg PUBLIC "-//W3C//DTD SVG 1.1//EN"
 "http://www.w3.org/Graphics/SVG/1.1/DTD/svg11.dtd">
<!-- Generated by graphviz version 2.43.0 (0)
 -->
<!-- Title: particle::RefParticle::print Pages: 1 -->
<svg width="371pt" height="38pt"
 viewBox="0.00 0.00 371.00 38.00" xmlns="http://www.w3.org/2000/svg" xmlns:xlink="http://www.w3.org/1999/xlink">
<g id="graph0" class="graph" transform="scale(1 1) rotate(0) translate(4 34)">
<title>particle::RefParticle::print</title>
<!-- Node1 -->
<g id="Node000001" class="node">
<title>Node1</title>
<g id="a_Node000001"><a xlink:title="Prints the information about the object.">
<polygon fill="#999999" stroke="#666666" points="103,-30 0,-30 0,0 103,0 103,-30"/>
<text text-anchor="start" x="8" y="-18" font-family="Arial" font-size="10.00">particle::RefParticle</text>
<text text-anchor="middle" x="51.5" y="-7" font-family="Arial" font-size="10.00">::print</text>
</a>
</g>
</g>
<!-- Node2 -->
<g id="Node000002" class="node">
<title>Node2</title>
<g id="a_Node000002"><a xlink:href="classparticle_1_1RefParticle.html#a15dfc15dcf65156853a43af120590fbe" target="_top" xlink:title="Returns the string containing printable information about the object.">
<polygon fill="white" stroke="#666666" points="242,-30 139,-30 139,0 242,0 242,-30"/>
<text text-anchor="start" x="147" y="-18" font-family="Arial" font-size="10.00">particle::RefParticle</text>
<text text-anchor="middle" x="190.5" y="-7" font-family="Arial" font-size="10.00">::printStr</text>
</a>
</g>
</g>
<!-- Node1&#45;&gt;Node2 -->
<g id="edge1_Node000001_Node000002" class="edge">
<title>Node1&#45;&gt;Node2</title>
<g id="a_edge1_Node000001_Node000002"><a xlink:title=" ">
<path fill="none" stroke="#63b8ff" d="M103.12,-15C111.36,-15 119.97,-15 128.42,-15"/>
<polygon fill="#63b8ff" stroke="#63b8ff" points="128.63,-18.5 138.63,-15 128.63,-11.5 128.63,-18.5"/>
</a>
</g>
</g>
<!-- Node3 -->
<g id="Node000003" class="node">
<title>Node3</title>
<g id="a_Node000003"><a xlink:href="namespaceutil_1_1io.html#a38afb09a152cca4061850f4123bd3aeb" target="_top" xlink:title="Returns tab spaces of given size.">
<polygon fill="white" stroke="#666666" points="363,-24.5 278,-24.5 278,-5.5 363,-5.5 363,-24.5"/>
<text text-anchor="middle" x="320.5" y="-12.5" font-family="Arial" font-size="10.00">util::io::getTabS</text>
</a>
</g>
</g>
<!-- Node2&#45;&gt;Node3 -->
<g id="edge2_Node000002_Node000003" class="edge">
<title>Node2&#45;&gt;Node3</title>
<g id="a_edge2_Node000002_Node000003"><a xlink:title=" ">
<path fill="none" stroke="#63b8ff" d="M242.09,-15C250.53,-15 259.31,-15 267.78,-15"/>
<polygon fill="#63b8ff" stroke="#63b8ff" points="267.93,-18.5 277.93,-15 267.93,-11.5 267.93,-18.5"/>
</a>
</g>
</g>
</g>
</svg>
