<?xml version="1.0" encoding="UTF-8" standalone="no"?>
<!DOCTYPE svg PUBLIC "-//W3C//DTD SVG 1.1//EN"
 "http://www.w3.org/Graphics/SVG/1.1/DTD/svg11.dtd">
<!-- Generated by graphviz version 2.43.0 (0)
 -->
<!-- Title: util::geometry::Cube::isNear Pages: 1 -->
<svg width="556pt" height="204pt"
 viewBox="0.00 0.00 556.00 203.55" xmlns="http://www.w3.org/2000/svg" xmlns:xlink="http://www.w3.org/1999/xlink">
<g id="graph0" class="graph" transform="scale(1 1) rotate(0) translate(4 199.55)">
<title>util::geometry::Cube::isNear</title>
<!-- Node1 -->
<g id="node1" class="node">
<title>Node1</title>
<g id="a_node1"><a xlink:title=" ">
<polygon fill="#bfbfbf" stroke="black" points="0,-76.66 0,-106.66 105,-106.66 105,-76.66 0,-76.66"/>
<text text-anchor="start" x="8" y="-94.66" font-family="Arial" font-size="10.00">util::geometry::Cube</text>
<text text-anchor="middle" x="52.5" y="-83.66" font-family="Arial" font-size="10.00">::isNear</text>
</a>
</g>
</g>
<!-- Node2 -->
<g id="node2" class="node">
<title>Node2</title>
<g id="a_node2"><a xlink:href="namespaceutil.html#a21a4c0c512c91e3de03f432d304dd4bd" target="_top" xlink:title="Checks if given two boxes are within given distance from each other.">
<polygon fill="none" stroke="black" points="141,-82.16 141,-101.16 239,-101.16 239,-82.16 141,-82.16"/>
<text text-anchor="middle" x="190" y="-89.16" font-family="Arial" font-size="10.00">util::areBoxesNear</text>
</a>
</g>
</g>
<!-- Node1&#45;&gt;Node2 -->
<g id="edge1" class="edge">
<title>Node1&#45;&gt;Node2</title>
<path fill="none" stroke="midnightblue" d="M105.11,-91.66C113.41,-91.66 122.05,-91.66 130.49,-91.66"/>
<polygon fill="midnightblue" stroke="midnightblue" points="130.65,-95.16 140.65,-91.66 130.65,-88.16 130.65,-95.16"/>
</g>
<!-- Node3 -->
<g id="node3" class="node">
<title>Node3</title>
<g id="a_node3"><a xlink:href="namespaceutil.html#af6ab7e8072282977994d4c13e470dfc7" target="_top" xlink:title="Computes the radius of smallest circle/sphere which can have the box inside.">
<polygon fill="none" stroke="black" points="277,-139.66 277,-169.66 404,-169.66 404,-139.66 277,-139.66"/>
<text text-anchor="start" x="285" y="-157.66" font-family="Arial" font-size="10.00">util::circumscribedRadius</text>
<text text-anchor="middle" x="340.5" y="-146.66" font-family="Arial" font-size="10.00">InBox</text>
</a>
</g>
</g>
<!-- Node2&#45;&gt;Node3 -->
<g id="edge2" class="edge">
<title>Node2&#45;&gt;Node3</title>
<path fill="none" stroke="midnightblue" d="M213.55,-101.23C234.94,-110.31 267.7,-124.2 294.44,-135.55"/>
<polygon fill="midnightblue" stroke="midnightblue" points="293.42,-138.91 303.99,-139.6 296.15,-132.47 293.42,-138.91"/>
</g>
<!-- Node4 -->
<g id="node4" class="node">
<title>Node4</title>
<g id="a_node4"><a xlink:href="namespaceutil.html#a9a73e26a05894da76d4d0a922272b7cc" target="_top" xlink:title="Returns center point.">
<polygon fill="none" stroke="black" points="456,-165.16 456,-184.16 534,-184.16 534,-165.16 456,-165.16"/>
<text text-anchor="middle" x="495" y="-172.16" font-family="Arial" font-size="10.00">util::getCenter</text>
</a>
</g>
</g>
<!-- Node2&#45;&gt;Node4 -->
<g id="edge6" class="edge">
<title>Node2&#45;&gt;Node4</title>
<path fill="none" stroke="midnightblue" d="M196.41,-101.21C207.92,-120.44 236.94,-163.38 275,-179.66 330.91,-203.59 402.42,-195.67 448.23,-186.36"/>
<polygon fill="midnightblue" stroke="midnightblue" points="449.11,-189.75 458.16,-184.24 447.65,-182.9 449.11,-189.75"/>
</g>
<!-- Node5 -->
<g id="node5" class="node">
<title>Node5</title>
<g id="a_node5"><a xlink:href="namespaceutil.html#a5a54fd6f6720dd75956e3ce06b814ad6" target="_top" xlink:title="Returns all corner points in the box.">
<polygon fill="none" stroke="black" points="442,-124.16 442,-143.16 548,-143.16 548,-124.16 442,-124.16"/>
<text text-anchor="middle" x="495" y="-131.16" font-family="Arial" font-size="10.00">util::getCornerPoints</text>
</a>
</g>
</g>
<!-- Node2&#45;&gt;Node5 -->
<g id="edge7" class="edge">
<title>Node2&#45;&gt;Node5</title>
<path fill="none" stroke="midnightblue" d="M239.01,-98.32C291.2,-105.55 374.76,-117.13 431.9,-125.06"/>
<polygon fill="midnightblue" stroke="midnightblue" points="431.51,-128.53 441.9,-126.44 432.47,-121.6 431.51,-128.53"/>
</g>
<!-- Node7 -->
<g id="node7" class="node">
<title>Node7</title>
<g id="a_node7"><a xlink:href="namespaceutil.html#aa5b234685d92d1a0f48600c3a3708bfd" target="_top" xlink:title="Computes the radius of biggest circle/sphere completely within the object.">
<polygon fill="none" stroke="black" points="275,-63.16 275,-82.16 406,-82.16 406,-63.16 275,-63.16"/>
<text text-anchor="middle" x="340.5" y="-70.16" font-family="Arial" font-size="10.00">util::inscribedRadiusInBox</text>
</a>
</g>
</g>
<!-- Node2&#45;&gt;Node7 -->
<g id="edge8" class="edge">
<title>Node2&#45;&gt;Node7</title>
<path fill="none" stroke="midnightblue" d="M239.21,-85.49C247.37,-84.45 256.01,-83.35 264.65,-82.24"/>
<polygon fill="midnightblue" stroke="midnightblue" points="265.31,-85.68 274.78,-80.94 264.42,-78.74 265.31,-85.68"/>
</g>
<!-- Node8 -->
<g id="node8" class="node">
<title>Node8</title>
<g id="a_node8"><a xlink:href="namespaceutil.html#a868a26599b6b844d08d30063ac898319" target="_top" xlink:title="Returns true if a &lt; b.">
<polygon fill="none" stroke="black" points="463,-6.16 463,-25.16 527,-25.16 527,-6.16 463,-6.16"/>
<text text-anchor="middle" x="495" y="-13.16" font-family="Arial" font-size="10.00">util::isLess</text>
</a>
</g>
</g>
<!-- Node2&#45;&gt;Node8 -->
<g id="edge10" class="edge">
<title>Node2&#45;&gt;Node8</title>
<path fill="none" stroke="midnightblue" d="M197.72,-82.06C210.44,-64.83 239.95,-29.17 275,-15.66 333.59,6.91 407.72,0.36 452.96,-7.13"/>
<polygon fill="midnightblue" stroke="midnightblue" points="452.53,-10.61 462.99,-8.89 453.74,-3.72 452.53,-10.61"/>
</g>
<!-- Node9 -->
<g id="node9" class="node">
<title>Node9</title>
<g id="a_node9"><a xlink:href="namespaceutil.html#a09ac00ed5485b655c317c2fe46b1d740" target="_top" xlink:title="Returns true if point is inside box.">
<polygon fill="none" stroke="black" points="286,-25.16 286,-44.16 395,-44.16 395,-25.16 286,-25.16"/>
<text text-anchor="middle" x="340.5" y="-32.16" font-family="Arial" font-size="10.00">util::isPointInsideBox</text>
</a>
</g>
</g>
<!-- Node2&#45;&gt;Node9 -->
<g id="edge11" class="edge">
<title>Node2&#45;&gt;Node9</title>
<path fill="none" stroke="midnightblue" d="M210.03,-82.14C226.86,-73.94 252.19,-62.13 275,-53.66 281.03,-51.42 287.46,-49.27 293.83,-47.26"/>
<polygon fill="midnightblue" stroke="midnightblue" points="295.18,-50.51 303.72,-44.24 293.14,-43.81 295.18,-50.51"/>
</g>
<!-- Node3&#45;&gt;Node4 -->
<g id="edge3" class="edge">
<title>Node3&#45;&gt;Node4</title>
<path fill="none" stroke="midnightblue" d="M404.41,-162.91C418.13,-164.71 432.45,-166.59 445.51,-168.3"/>
<polygon fill="midnightblue" stroke="midnightblue" points="445.31,-171.81 455.68,-169.64 446.22,-164.87 445.31,-171.81"/>
</g>
<!-- Node3&#45;&gt;Node5 -->
<g id="edge4" class="edge">
<title>Node3&#45;&gt;Node5</title>
<path fill="none" stroke="midnightblue" d="M404.41,-146C413.47,-144.75 422.79,-143.47 431.84,-142.22"/>
<polygon fill="midnightblue" stroke="midnightblue" points="432.48,-145.67 441.9,-140.84 431.52,-138.73 432.48,-145.67"/>
</g>
<!-- Node6 -->
<g id="node6" class="node">
<title>Node6</title>
<g id="a_node6"><a xlink:href="namespaceutil.html#a227b5f8acbd7a403a033663c8893d631" target="_top" xlink:title="Returns true if a &gt; b.">
<polygon fill="none" stroke="black" points="457.5,-63.16 457.5,-82.16 532.5,-82.16 532.5,-63.16 457.5,-63.16"/>
<text text-anchor="middle" x="495" y="-70.16" font-family="Arial" font-size="10.00">util::isGreater</text>
</a>
</g>
</g>
<!-- Node3&#45;&gt;Node6 -->
<g id="edge5" class="edge">
<title>Node3&#45;&gt;Node6</title>
<path fill="none" stroke="midnightblue" d="M369.47,-139.62C397.32,-124.65 439.75,-101.83 467.18,-87.08"/>
<polygon fill="midnightblue" stroke="midnightblue" points="469.06,-90.05 476.21,-82.23 465.75,-83.88 469.06,-90.05"/>
</g>
<!-- Node7&#45;&gt;Node6 -->
<g id="edge9" class="edge">
<title>Node7&#45;&gt;Node6</title>
<path fill="none" stroke="midnightblue" d="M406.17,-72.66C420.01,-72.66 434.37,-72.66 447.36,-72.66"/>
<polygon fill="midnightblue" stroke="midnightblue" points="447.46,-76.16 457.46,-72.66 447.46,-69.16 447.46,-76.16"/>
</g>
<!-- Node9&#45;&gt;Node6 -->
<g id="edge12" class="edge">
<title>Node9&#45;&gt;Node6</title>
<path fill="none" stroke="midnightblue" d="M379.98,-44.25C400.47,-49.36 425.83,-55.68 447.43,-61.06"/>
<polygon fill="midnightblue" stroke="midnightblue" points="446.82,-64.51 457.37,-63.54 448.51,-57.72 446.82,-64.51"/>
</g>
<!-- Node9&#45;&gt;Node8 -->
<g id="edge13" class="edge">
<title>Node9&#45;&gt;Node8</title>
<path fill="none" stroke="midnightblue" d="M395.27,-27.96C414.19,-25.61 435.14,-23 452.86,-20.79"/>
<polygon fill="midnightblue" stroke="midnightblue" points="453.39,-24.25 462.88,-19.54 452.52,-17.3 453.39,-24.25"/>
</g>
</g>
</svg>
