<?xml version="1.0" encoding="UTF-8" standalone="no"?>
<!DOCTYPE svg PUBLIC "-//W3C//DTD SVG 1.1//EN"
 "http://www.w3.org/Graphics/SVG/1.1/DTD/svg11.dtd">
<!-- Generated by graphviz version 2.43.0 (0)
 -->
<!-- Title: model::DEMModel::updateContactNeighborSearchParameters Pages: 1 -->
<svg width="467pt" height="120pt"
 viewBox="0.00 0.00 467.00 120.00" xmlns="http://www.w3.org/2000/svg" xmlns:xlink="http://www.w3.org/1999/xlink">
<g id="graph0" class="graph" transform="scale(1 1) rotate(0) translate(4 116)">
<title>model::DEMModel::updateContactNeighborSearchParameters</title>
<!-- Node1 -->
<g id="Node000001" class="node">
<title>Node1</title>
<g id="a_Node000001"><a xlink:title="Update contact neighbor search parameters.">
<polygon fill="#999999" stroke="#666666" points="167,-61.5 0,-61.5 0,-31.5 167,-31.5 167,-61.5"/>
<text text-anchor="start" x="8" y="-49.5" font-family="Arial" font-size="10.00">model::DEMModel::updateContact</text>
<text text-anchor="middle" x="83.5" y="-38.5" font-family="Arial" font-size="10.00">NeighborSearchParameters</text>
</a>
</g>
</g>
<!-- Node2 -->
<g id="Node000002" class="node">
<title>Node2</title>
<g id="a_Node000002"><a xlink:href="namespaceutil.html#a227b5f8acbd7a403a033663c8893d631" target="_top" xlink:title="Returns true if a &gt; b.">
<polygon fill="white" stroke="#666666" points="289.5,-112 214.5,-112 214.5,-93 289.5,-93 289.5,-112"/>
<text text-anchor="middle" x="252" y="-100" font-family="Arial" font-size="10.00">util::isGreater</text>
</a>
</g>
</g>
<!-- Node1&#45;&gt;Node2 -->
<g id="edge1_Node000001_Node000002" class="edge">
<title>Node1&#45;&gt;Node2</title>
<g id="a_edge1_Node000001_Node000002"><a xlink:title=" ">
<path fill="none" stroke="#63b8ff" d="M129.12,-61.51C155.31,-70.32 188.06,-81.33 213.01,-89.72"/>
<polygon fill="#63b8ff" stroke="#63b8ff" points="211.91,-93.04 222.5,-92.92 214.14,-86.41 211.91,-93.04"/>
</a>
</g>
</g>
<!-- Node3 -->
<g id="Node000003" class="node">
<title>Node3</title>
<g id="a_Node000003"><a xlink:href="namespaceutil.html#a868a26599b6b844d08d30063ac898319" target="_top" xlink:title="Returns true if a &lt; b.">
<polygon fill="white" stroke="#666666" points="284,-75 220,-75 220,-56 284,-56 284,-75"/>
<text text-anchor="middle" x="252" y="-63" font-family="Arial" font-size="10.00">util::isLess</text>
</a>
</g>
</g>
<!-- Node1&#45;&gt;Node3 -->
<g id="edge2_Node000001_Node000003" class="edge">
<title>Node1&#45;&gt;Node3</title>
<g id="a_edge2_Node000001_Node000003"><a xlink:title=" ">
<path fill="none" stroke="#63b8ff" d="M167.26,-55.94C182.07,-57.63 196.91,-59.33 209.88,-60.81"/>
<polygon fill="#63b8ff" stroke="#63b8ff" points="209.53,-64.29 219.86,-61.95 210.32,-57.33 209.53,-64.29"/>
</a>
</g>
</g>
<!-- Node4 -->
<g id="Node000004" class="node">
<title>Node4</title>
<g id="a_Node000004"><a xlink:href="namespaceutil_1_1methods.html#a7ad94e441da65fc0f1cafe183fa252fe" target="_top" xlink:title="Returns the maximum from list of data.">
<polygon fill="white" stroke="#666666" points="301,-38 203,-38 203,-19 301,-19 301,-38"/>
<text text-anchor="middle" x="252" y="-26" font-family="Arial" font-size="10.00">util::methods::max</text>
</a>
</g>
</g>
<!-- Node1&#45;&gt;Node4 -->
<g id="edge3_Node000001_Node000004" class="edge">
<title>Node1&#45;&gt;Node4</title>
<g id="a_edge3_Node000001_Node000004"><a xlink:title=" ">
<path fill="none" stroke="#63b8ff" d="M167.26,-37.55C175.97,-36.61 184.68,-35.67 193.01,-34.77"/>
<polygon fill="#63b8ff" stroke="#63b8ff" points="193.41,-38.25 202.97,-33.69 192.65,-31.29 193.41,-38.25"/>
</a>
</g>
</g>
<!-- Node5 -->
<g id="Node000005" class="node">
<title>Node5</title>
<g id="a_Node000005"><a xlink:href="namespaceutil_1_1methods.html#afcbb8d0d56cac1187ad2945bd187f6cf" target="_top" xlink:title="Returns the index corresponding to maximum from list of data.">
<polygon fill="white" stroke="#666666" points="459,-19 337,-19 337,0 459,0 459,-19"/>
<text text-anchor="middle" x="398" y="-7" font-family="Arial" font-size="10.00">util::methods::maxIndex</text>
</a>
</g>
</g>
<!-- Node1&#45;&gt;Node5 -->
<g id="edge5_Node000001_Node000005" class="edge">
<title>Node1&#45;&gt;Node5</title>
<g id="a_edge5_Node000001_Node000005"><a xlink:title=" ">
<path fill="none" stroke="#63b8ff" d="M123.61,-31.49C146.39,-23.54 175.89,-14.6 203,-10.5 243.64,-4.36 289.61,-3.84 326.61,-4.99"/>
<polygon fill="#63b8ff" stroke="#63b8ff" points="326.67,-8.49 336.79,-5.35 326.92,-1.5 326.67,-8.49"/>
</a>
</g>
</g>
<!-- Node4&#45;&gt;Node5 -->
<g id="edge4_Node000004_Node000005" class="edge">
<title>Node4&#45;&gt;Node5</title>
<g id="a_edge4_Node000004_Node000005"><a xlink:title=" ">
<path fill="none" stroke="#63b8ff" d="M301.35,-22.12C309.51,-21.04 318.13,-19.91 326.72,-18.77"/>
<polygon fill="#63b8ff" stroke="#63b8ff" points="327.3,-22.23 336.75,-17.45 326.38,-15.29 327.3,-22.23"/>
</a>
</g>
</g>
</g>
</svg>
