<?xml version="1.0" encoding="UTF-8" standalone="no"?>
<!DOCTYPE svg PUBLIC "-//W3C//DTD SVG 1.1//EN"
 "http://www.w3.org/Graphics/SVG/1.1/DTD/svg11.dtd">
<!-- Generated by graphviz version 2.43.0 (0)
 -->
<!-- Title: material::PdElastic::getBondEF Pages: 1 -->
<svg width="416pt" height="39pt"
 viewBox="0.00 0.00 416.00 39.00" xmlns="http://www.w3.org/2000/svg" xmlns:xlink="http://www.w3.org/1999/xlink">
<g id="graph0" class="graph" transform="scale(1 1) rotate(0) translate(4 35)">
<title>material::PdElastic::getBondEF</title>
<!-- Node1 -->
<g id="node1" class="node">
<title>Node1</title>
<g id="a_node1"><a xlink:title="Returns energy and force between bond due to pairwise interaction.">
<polygon fill="#bfbfbf" stroke="black" points="0,-0.5 0,-30.5 99,-30.5 99,-0.5 0,-0.5"/>
<text text-anchor="start" x="8" y="-18.5" font-family="Arial" font-size="10.00">material::PdElastic</text>
<text text-anchor="middle" x="49.5" y="-7.5" font-family="Arial" font-size="10.00">::getBondEF</text>
</a>
</g>
</g>
<!-- Node2 -->
<g id="node2" class="node">
<title>Node2</title>
<g id="a_node2"><a xlink:href="classmaterial_1_1PdElastic.html#aaa2253f9df64b8e3b795b8337d7a22da" target="_top" xlink:title="Returns the value of influence function.">
<polygon fill="none" stroke="black" points="135,-0.5 135,-30.5 234,-30.5 234,-0.5 135,-0.5"/>
<text text-anchor="start" x="143" y="-18.5" font-family="Arial" font-size="10.00">material::PdElastic</text>
<text text-anchor="middle" x="184.5" y="-7.5" font-family="Arial" font-size="10.00">::getInfFn</text>
</a>
</g>
</g>
<!-- Node1&#45;&gt;Node2 -->
<g id="edge1" class="edge">
<title>Node1&#45;&gt;Node2</title>
<path fill="none" stroke="midnightblue" d="M99.27,-15.5C107.49,-15.5 116.1,-15.5 124.55,-15.5"/>
<polygon fill="midnightblue" stroke="midnightblue" points="124.74,-19 134.74,-15.5 124.74,-12 124.74,-19"/>
</g>
<!-- Node3 -->
<g id="node3" class="node">
<title>Node3</title>
<g id="a_node3"><a xlink:href="namespaceanonymous__namespace_02material_8h_03.html#a3b96f3362934d0df7c36e6e59711e01a" target="_top" xlink:title="Returns the value of influence function.">
<polygon fill="none" stroke="black" points="270,-0.5 270,-30.5 408,-30.5 408,-0.5 270,-0.5"/>
<text text-anchor="start" x="278" y="-18.5" font-family="Arial" font-size="10.00">anonymous_namespace</text>
<text text-anchor="middle" x="339" y="-7.5" font-family="Arial" font-size="10.00">{material::h}::getGlobalInfFn</text>
</a>
</g>
</g>
<!-- Node2&#45;&gt;Node3 -->
<g id="edge2" class="edge">
<title>Node2&#45;&gt;Node3</title>
<path fill="none" stroke="midnightblue" d="M234.17,-15.5C242.32,-15.5 250.95,-15.5 259.61,-15.5"/>
<polygon fill="midnightblue" stroke="midnightblue" points="259.78,-19 269.78,-15.5 259.78,-12 259.78,-19"/>
</g>
</g>
</svg>
