<?xml version="1.0" encoding="UTF-8" standalone="no"?>
<!DOCTYPE svg PUBLIC "-//W3C//DTD SVG 1.1//EN"
 "http://www.w3.org/Graphics/SVG/1.1/DTD/svg11.dtd">
<!-- Generated by graphviz version 2.43.0 (0)
 -->
<!-- Title: util::geometry::Circle Pages: 1 -->
<svg width="244pt" height="1008pt"
 viewBox="0.00 0.00 243.50 1008.00" xmlns="http://www.w3.org/2000/svg" xmlns:xlink="http://www.w3.org/1999/xlink">
<g id="graph0" class="graph" transform="scale(1 1) rotate(0) translate(4 1004)">
<title>util::geometry::Circle</title>
<!-- Node1 -->
<g id="Node000001" class="node">
<title>Node1</title>
<g id="a_Node000001"><a xlink:title="Defines circle.">
<polygon fill="#999999" stroke="transparent" points="179,-469 78,-469 78,0 179,0 179,-469"/>
<text text-anchor="start" x="83.5" y="-456.5" font-family="Arial" font-size="10.00">util::geometry::Circle</text>
<text text-anchor="start" x="84" y="-441.5" font-family="Arial" font-size="10.00">+</text>
<text text-anchor="start" x="96.5" y="-441.5" font-family="Arial" font-size="10.00">d_r</text>
<text text-anchor="start" x="84" y="-426.5" font-family="Arial" font-size="10.00">+</text>
<text text-anchor="start" x="96.5" y="-426.5" font-family="Arial" font-size="10.00">Circle()</text>
<text text-anchor="start" x="84" y="-411.5" font-family="Arial" font-size="10.00">+</text>
<text text-anchor="start" x="96.5" y="-411.5" font-family="Arial" font-size="10.00">Circle()</text>
<text text-anchor="start" x="84" y="-396.5" font-family="Arial" font-size="10.00">+</text>
<text text-anchor="start" x="96.5" y="-396.5" font-family="Arial" font-size="10.00">volume()</text>
<text text-anchor="start" x="84" y="-381.5" font-family="Arial" font-size="10.00">+</text>
<text text-anchor="start" x="96.5" y="-381.5" font-family="Arial" font-size="10.00">center()</text>
<text text-anchor="start" x="84" y="-366.5" font-family="Arial" font-size="10.00">+</text>
<text text-anchor="start" x="96.5" y="-366.5" font-family="Arial" font-size="10.00">box()</text>
<text text-anchor="start" x="84" y="-351.5" font-family="Arial" font-size="10.00">+</text>
<text text-anchor="start" x="96.5" y="-351.5" font-family="Arial" font-size="10.00">box()</text>
<text text-anchor="start" x="84" y="-336.5" font-family="Arial" font-size="10.00">+</text>
<text text-anchor="start" x="96.5" y="-336.5" font-family="Arial" font-size="10.00">inscribedRadius()</text>
<text text-anchor="start" x="84" y="-321.5" font-family="Arial" font-size="10.00">+</text>
<text text-anchor="start" x="96.5" y="-321.5" font-family="Arial" font-size="10.00">boundingRadius()</text>
<text text-anchor="start" x="84" y="-306.5" font-family="Arial" font-size="10.00">+</text>
<text text-anchor="start" x="96.5" y="-306.5" font-family="Arial" font-size="10.00">printStr()</text>
<text text-anchor="start" x="84" y="-291.5" font-family="Arial" font-size="10.00">+</text>
<text text-anchor="start" x="96.5" y="-291.5" font-family="Arial" font-size="10.00">print()</text>
<text text-anchor="start" x="84" y="-276.5" font-family="Arial" font-size="10.00">+</text>
<text text-anchor="start" x="96.5" y="-276.5" font-family="Arial" font-size="10.00">print()</text>
<text text-anchor="start" x="84" y="-261.5" font-family="Arial" font-size="10.00">+</text>
<text text-anchor="start" x="96.5" y="-261.5" font-family="Arial" font-size="10.00">isInside()</text>
<text text-anchor="start" x="84" y="-246.5" font-family="Arial" font-size="10.00">+</text>
<text text-anchor="start" x="96.5" y="-246.5" font-family="Arial" font-size="10.00">isOutside()</text>
<text text-anchor="start" x="84" y="-231.5" font-family="Arial" font-size="10.00">+</text>
<text text-anchor="start" x="96.5" y="-231.5" font-family="Arial" font-size="10.00">isNear()</text>
<text text-anchor="start" x="84" y="-216.5" font-family="Arial" font-size="10.00">+</text>
<text text-anchor="start" x="96.5" y="-216.5" font-family="Arial" font-size="10.00">isNearBoundary()</text>
<text text-anchor="start" x="84" y="-201.5" font-family="Arial" font-size="10.00">+</text>
<text text-anchor="start" x="96.5" y="-201.5" font-family="Arial" font-size="10.00">doesIntersect()</text>
<text text-anchor="start" x="84" y="-186.5" font-family="Arial" font-size="10.00">+</text>
<text text-anchor="start" x="96.5" y="-186.5" font-family="Arial" font-size="10.00">isInside()</text>
<text text-anchor="start" x="84" y="-171.5" font-family="Arial" font-size="10.00">+</text>
<text text-anchor="start" x="96.5" y="-171.5" font-family="Arial" font-size="10.00">isOutside()</text>
<text text-anchor="start" x="84" y="-156.5" font-family="Arial" font-size="10.00">+</text>
<text text-anchor="start" x="96.5" y="-156.5" font-family="Arial" font-size="10.00">isNear()</text>
<text text-anchor="start" x="84" y="-141.5" font-family="Arial" font-size="10.00">+</text>
<text text-anchor="start" x="96.5" y="-141.5" font-family="Arial" font-size="10.00">doesIntersect()</text>
<text text-anchor="start" x="85.5" y="-126.5" font-family="Arial" font-size="10.00">*</text>
<text text-anchor="start" x="96.5" y="-126.5" font-family="Arial" font-size="10.00">isInside()</text>
<text text-anchor="start" x="85.5" y="-111.5" font-family="Arial" font-size="10.00">*</text>
<text text-anchor="start" x="96.5" y="-111.5" font-family="Arial" font-size="10.00">isOutside()</text>
<text text-anchor="start" x="85.5" y="-96.5" font-family="Arial" font-size="10.00">*</text>
<text text-anchor="start" x="96.5" y="-96.5" font-family="Arial" font-size="10.00">isNear()</text>
<text text-anchor="start" x="85.5" y="-81.5" font-family="Arial" font-size="10.00">*</text>
<text text-anchor="start" x="96.5" y="-81.5" font-family="Arial" font-size="10.00">isNearBoundary()</text>
<text text-anchor="start" x="85.5" y="-66.5" font-family="Arial" font-size="10.00">*</text>
<text text-anchor="start" x="96.5" y="-66.5" font-family="Arial" font-size="10.00">doesIntersect()</text>
<text text-anchor="start" x="85.5" y="-51.5" font-family="Arial" font-size="10.00">*</text>
<text text-anchor="start" x="96.5" y="-51.5" font-family="Arial" font-size="10.00">isInside()</text>
<text text-anchor="start" x="85.5" y="-36.5" font-family="Arial" font-size="10.00">*</text>
<text text-anchor="start" x="96.5" y="-36.5" font-family="Arial" font-size="10.00">isOutside()</text>
<text text-anchor="start" x="85.5" y="-21.5" font-family="Arial" font-size="10.00">*</text>
<text text-anchor="start" x="96.5" y="-21.5" font-family="Arial" font-size="10.00">isNear()</text>
<text text-anchor="start" x="85.5" y="-6.5" font-family="Arial" font-size="10.00">*</text>
<text text-anchor="start" x="96.5" y="-6.5" font-family="Arial" font-size="10.00">doesIntersect()</text>
<polygon fill="#666666" stroke="#666666" points="78.5,-451.5 78.5,-451.5 179.5,-451.5 179.5,-451.5 78.5,-451.5"/>
<polygon fill="#666666" stroke="#666666" points="78.5,-436.5 78.5,-436.5 94.5,-436.5 94.5,-436.5 78.5,-436.5"/>
<polygon fill="#666666" stroke="#666666" points="94.5,-436.5 94.5,-436.5 179.5,-436.5 179.5,-436.5 94.5,-436.5"/>
<polygon fill="none" stroke="#666666" points="78,0 78,-469 179,-469 179,0 78,0"/>
</a>
</g>
</g>
<!-- Node2 -->
<g id="Node000002" class="node">
<title>Node2</title>
<g id="a_Node000002"><a xlink:href="classutil_1_1geometry_1_1GeomObject.html" target="_top" xlink:title="Defines abstract geometrical domain.">
<polygon fill="white" stroke="transparent" points="131,-1000 0,-1000 0,-516 131,-516 131,-1000"/>
<text text-anchor="start" x="5.5" y="-988" font-family="Arial" font-size="10.00">util::geometry::GeomObject</text>
<text text-anchor="start" x="13.5" y="-973" font-family="Arial" font-size="10.00">+</text>
<text text-anchor="start" x="33.5" y="-973" font-family="Arial" font-size="10.00">d_name</text>
<text text-anchor="start" x="13.5" y="-958" font-family="Arial" font-size="10.00">+</text>
<text text-anchor="start" x="33.5" y="-958" font-family="Arial" font-size="10.00">d_description</text>
<text text-anchor="start" x="13.5" y="-943" font-family="Arial" font-size="10.00">+</text>
<text text-anchor="start" x="33.5" y="-943" font-family="Arial" font-size="10.00">d_tags</text>
<text text-anchor="start" x="13.5" y="-928" font-family="Arial" font-size="10.00">+</text>
<text text-anchor="start" x="33.5" y="-928" font-family="Arial" font-size="10.00">GeomObject()</text>
<text text-anchor="start" x="13.5" y="-913" font-family="Arial" font-size="10.00">+</text>
<text text-anchor="start" x="33.5" y="-913" font-family="Arial" font-size="10.00">volume()</text>
<text text-anchor="start" x="13.5" y="-898" font-family="Arial" font-size="10.00">+</text>
<text text-anchor="start" x="33.5" y="-898" font-family="Arial" font-size="10.00">center()</text>
<text text-anchor="start" x="13.5" y="-883" font-family="Arial" font-size="10.00">+</text>
<text text-anchor="start" x="33.5" y="-883" font-family="Arial" font-size="10.00">box()</text>
<text text-anchor="start" x="13.5" y="-868" font-family="Arial" font-size="10.00">+</text>
<text text-anchor="start" x="33.5" y="-868" font-family="Arial" font-size="10.00">box()</text>
<text text-anchor="start" x="13.5" y="-853" font-family="Arial" font-size="10.00">+</text>
<text text-anchor="start" x="33.5" y="-853" font-family="Arial" font-size="10.00">inscribedRadius()</text>
<text text-anchor="start" x="13.5" y="-838" font-family="Arial" font-size="10.00">+</text>
<text text-anchor="start" x="33.5" y="-838" font-family="Arial" font-size="10.00">boundingRadius()</text>
<text text-anchor="start" x="13.5" y="-823" font-family="Arial" font-size="10.00">+</text>
<text text-anchor="start" x="33.5" y="-823" font-family="Arial" font-size="10.00">printStr()</text>
<text text-anchor="start" x="13.5" y="-808" font-family="Arial" font-size="10.00">+</text>
<text text-anchor="start" x="33.5" y="-808" font-family="Arial" font-size="10.00">print()</text>
<text text-anchor="start" x="13.5" y="-793" font-family="Arial" font-size="10.00">+</text>
<text text-anchor="start" x="33.5" y="-793" font-family="Arial" font-size="10.00">print()</text>
<text text-anchor="start" x="13.5" y="-778" font-family="Arial" font-size="10.00">+</text>
<text text-anchor="start" x="33.5" y="-778" font-family="Arial" font-size="10.00">isInside()</text>
<text text-anchor="start" x="13.5" y="-763" font-family="Arial" font-size="10.00">+</text>
<text text-anchor="start" x="33.5" y="-763" font-family="Arial" font-size="10.00">isOutside()</text>
<text text-anchor="start" x="13.5" y="-748" font-family="Arial" font-size="10.00">+</text>
<text text-anchor="start" x="33.5" y="-748" font-family="Arial" font-size="10.00">isNear()</text>
<text text-anchor="start" x="13.5" y="-733" font-family="Arial" font-size="10.00">+</text>
<text text-anchor="start" x="33.5" y="-733" font-family="Arial" font-size="10.00">isNearBoundary()</text>
<text text-anchor="start" x="13.5" y="-718" font-family="Arial" font-size="10.00">+</text>
<text text-anchor="start" x="33.5" y="-718" font-family="Arial" font-size="10.00">doesIntersect()</text>
<text text-anchor="start" x="13.5" y="-703" font-family="Arial" font-size="10.00">+</text>
<text text-anchor="start" x="33.5" y="-703" font-family="Arial" font-size="10.00">isInside()</text>
<text text-anchor="start" x="13.5" y="-688" font-family="Arial" font-size="10.00">+</text>
<text text-anchor="start" x="33.5" y="-688" font-family="Arial" font-size="10.00">isOutside()</text>
<text text-anchor="start" x="13.5" y="-673" font-family="Arial" font-size="10.00">+</text>
<text text-anchor="start" x="33.5" y="-673" font-family="Arial" font-size="10.00">isNear()</text>
<text text-anchor="start" x="13.5" y="-658" font-family="Arial" font-size="10.00">+</text>
<text text-anchor="start" x="33.5" y="-658" font-family="Arial" font-size="10.00">doesIntersect()</text>
<text text-anchor="start" x="15" y="-643" font-family="Arial" font-size="10.00">*</text>
<text text-anchor="start" x="33.5" y="-643" font-family="Arial" font-size="10.00">isInside()</text>
<text text-anchor="start" x="15" y="-628" font-family="Arial" font-size="10.00">*</text>
<text text-anchor="start" x="33.5" y="-628" font-family="Arial" font-size="10.00">isOutside()</text>
<text text-anchor="start" x="15" y="-613" font-family="Arial" font-size="10.00">*</text>
<text text-anchor="start" x="33.5" y="-613" font-family="Arial" font-size="10.00">isNear()</text>
<text text-anchor="start" x="15" y="-598" font-family="Arial" font-size="10.00">*</text>
<text text-anchor="start" x="33.5" y="-598" font-family="Arial" font-size="10.00">isNearBoundary()</text>
<text text-anchor="start" x="15" y="-583" font-family="Arial" font-size="10.00">*</text>
<text text-anchor="start" x="33.5" y="-583" font-family="Arial" font-size="10.00">doesIntersect()</text>
<text text-anchor="start" x="15" y="-568" font-family="Arial" font-size="10.00">*</text>
<text text-anchor="start" x="33.5" y="-568" font-family="Arial" font-size="10.00">isInside()</text>
<text text-anchor="start" x="15" y="-553" font-family="Arial" font-size="10.00">*</text>
<text text-anchor="start" x="33.5" y="-553" font-family="Arial" font-size="10.00">isOutside()</text>
<text text-anchor="start" x="15" y="-538" font-family="Arial" font-size="10.00">*</text>
<text text-anchor="start" x="33.5" y="-538" font-family="Arial" font-size="10.00">isNear()</text>
<text text-anchor="start" x="15" y="-523" font-family="Arial" font-size="10.00">*</text>
<text text-anchor="start" x="33.5" y="-523" font-family="Arial" font-size="10.00">doesIntersect()</text>
<polygon fill="#666666" stroke="#666666" points="0.5,-983 0.5,-983 131.5,-983 131.5,-983 0.5,-983"/>
<polygon fill="#666666" stroke="#666666" points="0.5,-938 0.5,-938 31.5,-938 31.5,-938 0.5,-938"/>
<polygon fill="#666666" stroke="#666666" points="31.5,-938 31.5,-938 131.5,-938 131.5,-938 31.5,-938"/>
<polygon fill="none" stroke="#666666" points="0,-516 0,-1000 131,-1000 131,-516 0,-516"/>
</a>
</g>
</g>
<!-- Node2&#45;&gt;Node1 -->
<g id="edge1_Node000001_Node000002" class="edge">
<title>Node2&#45;&gt;Node1</title>
<g id="a_edge1_Node000001_Node000002"><a xlink:title=" ">
<path fill="none" stroke="#63b8ff" d="M95.88,-505.55C97.34,-493.45 98.8,-481.31 100.26,-469.26"/>
<polygon fill="none" stroke="#63b8ff" points="92.37,-505.37 94.65,-515.71 99.32,-506.21 92.37,-505.37"/>
</a>
</g>
</g>
<!-- Node3 -->
<g id="Node000003" class="node">
<title>Node3</title>
<g id="a_Node000003"><a xlink:href="structutil_1_1Point.html" target="_top" xlink:title="A structure to represent 3d vectors.">
<polygon fill="white" stroke="transparent" points="235.5,-977.5 149.5,-977.5 149.5,-538.5 235.5,-538.5 235.5,-977.5"/>
<text text-anchor="start" x="171.5" y="-965" font-family="Arial" font-size="10.00">util::Point</text>
<text text-anchor="start" x="153.5" y="-950" font-family="Arial" font-size="10.00">+</text>
<text text-anchor="start" x="164.5" y="-950" font-family="Arial" font-size="10.00">d_x</text>
<text text-anchor="start" x="153.5" y="-935" font-family="Arial" font-size="10.00">+</text>
<text text-anchor="start" x="164.5" y="-935" font-family="Arial" font-size="10.00">d_y</text>
<text text-anchor="start" x="153.5" y="-920" font-family="Arial" font-size="10.00">+</text>
<text text-anchor="start" x="164.5" y="-920" font-family="Arial" font-size="10.00">d_z</text>
<text text-anchor="start" x="153.5" y="-905" font-family="Arial" font-size="10.00">+</text>
<text text-anchor="start" x="164.5" y="-905" font-family="Arial" font-size="10.00">Point()</text>
<text text-anchor="start" x="153.5" y="-890" font-family="Arial" font-size="10.00">+</text>
<text text-anchor="start" x="164.5" y="-890" font-family="Arial" font-size="10.00">Point()</text>
<text text-anchor="start" x="153.5" y="-875" font-family="Arial" font-size="10.00">+</text>
<text text-anchor="start" x="164.5" y="-875" font-family="Arial" font-size="10.00">Point()</text>
<text text-anchor="start" x="153.5" y="-860" font-family="Arial" font-size="10.00">+</text>
<text text-anchor="start" x="164.5" y="-860" font-family="Arial" font-size="10.00">Point()</text>
<text text-anchor="start" x="153.5" y="-845" font-family="Arial" font-size="10.00">+</text>
<text text-anchor="start" x="164.5" y="-845" font-family="Arial" font-size="10.00">Point()</text>
<text text-anchor="start" x="153.5" y="-830" font-family="Arial" font-size="10.00">+</text>
<text text-anchor="start" x="164.5" y="-830" font-family="Arial" font-size="10.00">printStr()</text>
<text text-anchor="start" x="153.5" y="-815" font-family="Arial" font-size="10.00">+</text>
<text text-anchor="start" x="164.5" y="-815" font-family="Arial" font-size="10.00">print()</text>
<text text-anchor="start" x="153.5" y="-800" font-family="Arial" font-size="10.00">+</text>
<text text-anchor="start" x="164.5" y="-800" font-family="Arial" font-size="10.00">length()</text>
<text text-anchor="start" x="153.5" y="-785" font-family="Arial" font-size="10.00">+</text>
<text text-anchor="start" x="164.5" y="-785" font-family="Arial" font-size="10.00">lengthSq()</text>
<text text-anchor="start" x="153.5" y="-770" font-family="Arial" font-size="10.00">+</text>
<text text-anchor="start" x="164.5" y="-770" font-family="Arial" font-size="10.00">dot()</text>
<text text-anchor="start" x="153.5" y="-755" font-family="Arial" font-size="10.00">+</text>
<text text-anchor="start" x="164.5" y="-755" font-family="Arial" font-size="10.00">dist()</text>
<text text-anchor="start" x="153.5" y="-740" font-family="Arial" font-size="10.00">+</text>
<text text-anchor="start" x="164.5" y="-740" font-family="Arial" font-size="10.00">cross()</text>
<text text-anchor="start" x="153.5" y="-725" font-family="Arial" font-size="10.00">+</text>
<text text-anchor="start" x="164.5" y="-725" font-family="Arial" font-size="10.00">project()</text>
<text text-anchor="start" x="153.5" y="-710" font-family="Arial" font-size="10.00">+</text>
<text text-anchor="start" x="164.5" y="-710" font-family="Arial" font-size="10.00">projectNormal()</text>
<text text-anchor="start" x="155" y="-695" font-family="Arial" font-size="10.00">*</text>
<text text-anchor="start" x="164.5" y="-695" font-family="Arial" font-size="10.00">operator+=()</text>
<text text-anchor="start" x="155" y="-680" font-family="Arial" font-size="10.00">*</text>
<text text-anchor="start" x="164.5" y="-680" font-family="Arial" font-size="10.00">operator&#45;=()</text>
<text text-anchor="start" x="155" y="-665" font-family="Arial" font-size="10.00">*</text>
<text text-anchor="start" x="164.5" y="-665" font-family="Arial" font-size="10.00">operator*=()</text>
<text text-anchor="start" x="155" y="-650" font-family="Arial" font-size="10.00">*</text>
<text text-anchor="start" x="164.5" y="-650" font-family="Arial" font-size="10.00">operator+=()</text>
<text text-anchor="start" x="155" y="-635" font-family="Arial" font-size="10.00">*</text>
<text text-anchor="start" x="164.5" y="-635" font-family="Arial" font-size="10.00">operator&#45;=()</text>
<text text-anchor="start" x="155" y="-620" font-family="Arial" font-size="10.00">*</text>
<text text-anchor="start" x="164.5" y="-620" font-family="Arial" font-size="10.00">operator*=()</text>
<text text-anchor="start" x="155" y="-605" font-family="Arial" font-size="10.00">*</text>
<text text-anchor="start" x="164.5" y="-605" font-family="Arial" font-size="10.00">operator/=()</text>
<text text-anchor="start" x="155" y="-590" font-family="Arial" font-size="10.00">*</text>
<text text-anchor="start" x="164.5" y="-590" font-family="Arial" font-size="10.00">operator[]()</text>
<text text-anchor="start" x="155" y="-575" font-family="Arial" font-size="10.00">*</text>
<text text-anchor="start" x="164.5" y="-575" font-family="Arial" font-size="10.00">operator[]()</text>
<text text-anchor="start" x="155" y="-560" font-family="Arial" font-size="10.00">*</text>
<text text-anchor="start" x="164.5" y="-560" font-family="Arial" font-size="10.00">operator+</text>
<text text-anchor="start" x="164.5" y="-545" font-family="Arial" font-size="10.00">and 9 more...</text>
<polygon fill="#666666" stroke="#666666" points="149.5,-960 149.5,-960 235.5,-960 235.5,-960 149.5,-960"/>
<polygon fill="#666666" stroke="#666666" points="149.5,-915 149.5,-915 162.5,-915 162.5,-915 149.5,-915"/>
<polygon fill="#666666" stroke="#666666" points="162.5,-915 162.5,-915 235.5,-915 235.5,-915 162.5,-915"/>
<polygon fill="none" stroke="#666666" points="149.5,-538.5 149.5,-977.5 235.5,-977.5 235.5,-538.5 149.5,-538.5"/>
</a>
</g>
</g>
<!-- Node3&#45;&gt;Node1 -->
<g id="edge2_Node000001_Node000003" class="edge">
<title>Node3&#45;&gt;Node1</title>
<g id="a_edge2_Node000001_Node000003"><a xlink:title=" ">
<path fill="none" stroke="#63b8ff" d="M165.68,-538.48C163.37,-519.63 161.02,-500.48 158.68,-481.43"/>
<polygon fill="none" stroke="#63b8ff" points="158.65,-481.17 153.95,-475.7 157.19,-469.26 161.89,-474.73 158.65,-481.17"/>
</a>
</g>
<text text-anchor="middle" x="173" y="-490" font-family="Arial" font-size="10.00" fill="grey"> +d_x</text>
</g>
</g>
</svg>
