<?xml version="1.0" encoding="UTF-8" standalone="no"?>
<!DOCTYPE svg PUBLIC "-//W3C//DTD SVG 1.1//EN"
 "http://www.w3.org/Graphics/SVG/1.1/DTD/svg11.dtd">
<!-- Generated by graphviz version 2.43.0 (0)
 -->
<!-- Title: loading::ParticleULoading::applyParticle Pages: 1 -->
<svg width="300pt" height="88pt"
 viewBox="0.00 0.00 300.00 88.00" xmlns="http://www.w3.org/2000/svg" xmlns:xlink="http://www.w3.org/1999/xlink">
<g id="graph0" class="graph" transform="scale(1 1) rotate(0) translate(4 84)">
<title>loading::ParticleULoading::applyParticle</title>
<!-- Node1 -->
<g id="node1" class="node">
<title>Node1</title>
<g id="a_node1"><a xlink:title="Applies displacement boundary condition.">
<polygon fill="#bfbfbf" stroke="black" points="0,-30 0,-60 128,-60 128,-30 0,-30"/>
<text text-anchor="start" x="8" y="-48" font-family="Arial" font-size="10.00">loading::ParticleULoading</text>
<text text-anchor="middle" x="64" y="-37" font-family="Arial" font-size="10.00">::applyParticle</text>
</a>
</g>
</g>
<!-- Node2 -->
<g id="node2" class="node">
<title>Node2</title>
<g id="a_node2"><a xlink:href="namespaceutil_1_1parallel.html#a4ad550a438091fb9cd924783e690764d" target="_top" xlink:title="Get number of threads to be used by taskflow.">
<polygon fill="none" stroke="black" points="164,-60.5 164,-79.5 292,-79.5 292,-60.5 164,-60.5"/>
<text text-anchor="middle" x="228" y="-67.5" font-family="Arial" font-size="10.00">util::parallel::getNThreads</text>
</a>
</g>
</g>
<!-- Node1&#45;&gt;Node2 -->
<g id="edge1" class="edge">
<title>Node1&#45;&gt;Node2</title>
<path fill="none" stroke="midnightblue" d="M128.1,-54.74C137.01,-56.11 146.22,-57.53 155.27,-58.93"/>
<polygon fill="midnightblue" stroke="midnightblue" points="154.99,-62.43 165.4,-60.49 156.06,-55.51 154.99,-62.43"/>
</g>
<!-- Node3 -->
<g id="node3" class="node">
<title>Node3</title>
<g id="a_node3"><a xlink:href="namespaceanonymous__namespace_02particleULoading_8cpp_03.html#a638f68614523165276ec3add96f3de37" target="_top" xlink:title=" ">
<polygon fill="none" stroke="black" points="167,-0.5 167,-41.5 289,-41.5 289,-0.5 167,-0.5"/>
<text text-anchor="start" x="175" y="-29.5" font-family="Arial" font-size="10.00">anonymous_namespace</text>
<text text-anchor="start" x="175" y="-18.5" font-family="Arial" font-size="10.00">{particleULoading::cpp}</text>
<text text-anchor="middle" x="228" y="-7.5" font-family="Arial" font-size="10.00">::isInList</text>
</a>
</g>
</g>
<!-- Node1&#45;&gt;Node3 -->
<g id="edge2" class="edge">
<title>Node1&#45;&gt;Node3</title>
<path fill="none" stroke="midnightblue" d="M128.1,-35.65C137.59,-34.25 147.43,-32.79 157.06,-31.36"/>
<polygon fill="midnightblue" stroke="midnightblue" points="157.61,-34.82 166.99,-29.89 156.59,-27.89 157.61,-34.82"/>
</g>
</g>
</svg>
