<?xml version="1.0" encoding="UTF-8" standalone="no"?>
<!DOCTYPE svg PUBLIC "-//W3C//DTD SVG 1.1//EN"
 "http://www.w3.org/Graphics/SVG/1.1/DTD/svg11.dtd">
<!-- Generated by graphviz version 2.43.0 (0)
 -->
<!-- Title: nsearch::BaseNSearch Pages: 1 -->
<svg width="142pt" height="207pt"
 viewBox="0.00 0.00 142.00 207.00" xmlns="http://www.w3.org/2000/svg" xmlns:xlink="http://www.w3.org/1999/xlink">
<g id="graph0" class="graph" transform="scale(1 1) rotate(0) translate(4 203)">
<title>nsearch::BaseNSearch</title>
<!-- Node1 -->
<g id="Node000001" class="node">
<title>Node1</title>
<g id="a_Node000001"><a xlink:title="A class for nearest neighbor search.">
<polygon fill="#999999" stroke="transparent" points="134,-199 0,-199 0,0 134,0 134,-199"/>
<text text-anchor="start" x="16" y="-186.5" font-family="Arial" font-size="10.00">nsearch::BaseNSearch</text>
<text text-anchor="start" x="4" y="-171.5" font-family="Arial" font-size="10.00">+</text>
<text text-anchor="start" x="15" y="-171.5" font-family="Arial" font-size="10.00">d_debug</text>
<text text-anchor="start" x="4" y="-156.5" font-family="Arial" font-size="10.00">+</text>
<text text-anchor="start" x="15" y="-156.5" font-family="Arial" font-size="10.00">d_treeType</text>
<text text-anchor="start" x="4" y="-141.5" font-family="Arial" font-size="10.00">+</text>
<text text-anchor="start" x="15" y="-141.5" font-family="Arial" font-size="10.00">BaseNSearch()</text>
<text text-anchor="start" x="4" y="-126.5" font-family="Arial" font-size="10.00">+</text>
<text text-anchor="start" x="15" y="-126.5" font-family="Arial" font-size="10.00">updatePointCloud()</text>
<text text-anchor="start" x="4" y="-111.5" font-family="Arial" font-size="10.00">+</text>
<text text-anchor="start" x="15" y="-111.5" font-family="Arial" font-size="10.00">setInputCloud()</text>
<text text-anchor="start" x="4" y="-96.5" font-family="Arial" font-size="10.00">+</text>
<text text-anchor="start" x="15" y="-96.5" font-family="Arial" font-size="10.00">radiusSearch()</text>
<text text-anchor="start" x="4" y="-81.5" font-family="Arial" font-size="10.00">+</text>
<text text-anchor="start" x="15" y="-81.5" font-family="Arial" font-size="10.00">radiusSearch()</text>
<text text-anchor="start" x="4" y="-66.5" font-family="Arial" font-size="10.00">+</text>
<text text-anchor="start" x="15" y="-66.5" font-family="Arial" font-size="10.00">radiusSearchExcludeTag()</text>
<text text-anchor="start" x="4" y="-51.5" font-family="Arial" font-size="10.00">+</text>
<text text-anchor="start" x="15" y="-51.5" font-family="Arial" font-size="10.00">radiusSearchExcludeTag()</text>
<text text-anchor="start" x="4" y="-36.5" font-family="Arial" font-size="10.00">+</text>
<text text-anchor="start" x="15" y="-36.5" font-family="Arial" font-size="10.00">radiusSearchIncludeTag()</text>
<text text-anchor="start" x="4" y="-21.5" font-family="Arial" font-size="10.00">+</text>
<text text-anchor="start" x="15" y="-21.5" font-family="Arial" font-size="10.00">radiusSearchIncludeTag()</text>
<text text-anchor="start" x="4" y="-6.5" font-family="Arial" font-size="10.00">+</text>
<text text-anchor="start" x="15" y="-6.5" font-family="Arial" font-size="10.00">closestPoint()</text>
<polygon fill="#666666" stroke="#666666" points="0,-181.5 0,-181.5 134,-181.5 134,-181.5 0,-181.5"/>
<polygon fill="#666666" stroke="#666666" points="0,-151.5 0,-151.5 13,-151.5 13,-151.5 0,-151.5"/>
<polygon fill="#666666" stroke="#666666" points="13,-151.5 13,-151.5 134,-151.5 134,-151.5 13,-151.5"/>
<polygon fill="none" stroke="#666666" points="0,0 0,-199 134,-199 134,0 0,0"/>
</a>
</g>
</g>
</g>
</svg>
