<?xml version="1.0" encoding="UTF-8" standalone="no"?>
<!DOCTYPE svg PUBLIC "-//W3C//DTD SVG 1.1//EN"
 "http://www.w3.org/Graphics/SVG/1.1/DTD/svg11.dtd">
<!-- Generated by graphviz version 2.43.0 (0)
 -->
<!-- Title: nsearch::TreeSearchResult::TreeSearchResult Pages: 1 -->
<svg width="488pt" height="39pt"
 viewBox="0.00 0.00 488.00 39.00" xmlns="http://www.w3.org/2000/svg" xmlns:xlink="http://www.w3.org/1999/xlink">
<g id="graph0" class="graph" transform="scale(1 1) rotate(0) translate(4 35)">
<title>nsearch::TreeSearchResult::TreeSearchResult</title>
<!-- Node1 -->
<g id="node1" class="node">
<title>Node1</title>
<g id="a_node1"><a xlink:title="Constructor.">
<polygon fill="#bfbfbf" stroke="black" points="0,-0.5 0,-30.5 136,-30.5 136,-0.5 0,-0.5"/>
<text text-anchor="start" x="8" y="-18.5" font-family="Arial" font-size="10.00">nsearch::TreeSearchResult</text>
<text text-anchor="middle" x="68" y="-7.5" font-family="Arial" font-size="10.00">::TreeSearchResult</text>
</a>
</g>
</g>
<!-- Node2 -->
<g id="node2" class="node">
<title>Node2</title>
<g id="a_node2"><a xlink:href="classnsearch_1_1TreeSearchResult.html#ab6561f03c30235d4ec868047e32d64bd" target="_top" xlink:title="Initialize the data (clear)">
<polygon fill="none" stroke="black" points="172,-0.5 172,-30.5 308,-30.5 308,-0.5 172,-0.5"/>
<text text-anchor="start" x="180" y="-18.5" font-family="Arial" font-size="10.00">nsearch::TreeSearchResult</text>
<text text-anchor="middle" x="240" y="-7.5" font-family="Arial" font-size="10.00">::init</text>
</a>
</g>
</g>
<!-- Node1&#45;&gt;Node2 -->
<g id="edge1" class="edge">
<title>Node1&#45;&gt;Node2</title>
<path fill="none" stroke="midnightblue" d="M136.19,-15.5C144.5,-15.5 153.05,-15.5 161.51,-15.5"/>
<polygon fill="midnightblue" stroke="midnightblue" points="161.74,-19 171.74,-15.5 161.74,-12 161.74,-19"/>
</g>
<!-- Node3 -->
<g id="node3" class="node">
<title>Node3</title>
<g id="a_node3"><a xlink:href="classnsearch_1_1TreeSearchResult.html#a06292fc502d3700488a5fc3594c189e8" target="_top" xlink:title="Clear the data.">
<polygon fill="none" stroke="black" points="344,-0.5 344,-30.5 480,-30.5 480,-0.5 344,-0.5"/>
<text text-anchor="start" x="352" y="-18.5" font-family="Arial" font-size="10.00">nsearch::TreeSearchResult</text>
<text text-anchor="middle" x="412" y="-7.5" font-family="Arial" font-size="10.00">::clear</text>
</a>
</g>
</g>
<!-- Node2&#45;&gt;Node3 -->
<g id="edge2" class="edge">
<title>Node2&#45;&gt;Node3</title>
<path fill="none" stroke="midnightblue" d="M308.19,-15.5C316.5,-15.5 325.05,-15.5 333.51,-15.5"/>
<polygon fill="midnightblue" stroke="midnightblue" points="333.74,-19 343.74,-15.5 333.74,-12 333.74,-19"/>
</g>
</g>
</svg>
