<?xml version="1.0" encoding="UTF-8" standalone="no"?>
<!DOCTYPE svg PUBLIC "-//W3C//DTD SVG 1.1//EN"
 "http://www.w3.org/Graphics/SVG/1.1/DTD/svg11.dtd">
<!-- Generated by graphviz version 2.43.0 (0)
 -->
<!-- Title: fe::TetElem::getDerShapes Pages: 1 -->
<svg width="313pt" height="66pt"
 viewBox="0.00 0.00 313.00 66.00" xmlns="http://www.w3.org/2000/svg" xmlns:xlink="http://www.w3.org/1999/xlink">
<g id="graph0" class="graph" transform="scale(1 1) rotate(0) translate(4 62)">
<title>fe::TetElem::getDerShapes</title>
<!-- Node1 -->
<g id="node1" class="node">
<title>Node1</title>
<g id="a_node1"><a xlink:title="Returns the values of derivative of shape function at point p.">
<polygon fill="#bfbfbf" stroke="black" points="0,-19.5 0,-38.5 135,-38.5 135,-19.5 0,-19.5"/>
<text text-anchor="middle" x="67.5" y="-26.5" font-family="Arial" font-size="10.00">fe::TetElem::getDerShapes</text>
</a>
</g>
</g>
<!-- Node2 -->
<g id="node2" class="node">
<title>Node2</title>
<g id="a_node2"><a xlink:href="namespaceutil.html#af081eb7d4934835d9c45b39b025ef5c9" target="_top" xlink:title="Computes the dot product between matrix and vector.">
<polygon fill="none" stroke="black" points="171,-38.5 171,-57.5 220,-57.5 220,-38.5 171,-38.5"/>
<text text-anchor="middle" x="195.5" y="-45.5" font-family="Arial" font-size="10.00">util::dot</text>
</a>
</g>
</g>
<!-- Node1&#45;&gt;Node2 -->
<g id="edge1" class="edge">
<title>Node1&#45;&gt;Node2</title>
<path fill="none" stroke="midnightblue" d="M131.87,-38.56C141.91,-40.07 151.94,-41.58 160.94,-42.94"/>
<polygon fill="midnightblue" stroke="midnightblue" points="160.55,-46.42 170.96,-44.45 161.6,-39.5 160.55,-46.42"/>
</g>
<!-- Node3 -->
<g id="node3" class="node">
<title>Node3</title>
<g id="a_node3"><a xlink:href="namespaceutil.html#ad4f18aba6f461c113b723df12cdaf685" target="_top" xlink:title="Computes the determinant of matrix.">
<polygon fill="none" stroke="black" points="171.5,-0.5 171.5,-19.5 219.5,-19.5 219.5,-0.5 171.5,-0.5"/>
<text text-anchor="middle" x="195.5" y="-7.5" font-family="Arial" font-size="10.00">util::inv</text>
</a>
</g>
</g>
<!-- Node1&#45;&gt;Node3 -->
<g id="edge2" class="edge">
<title>Node1&#45;&gt;Node3</title>
<path fill="none" stroke="midnightblue" d="M131.87,-19.44C142,-17.92 152.12,-16.39 161.18,-15.03"/>
<polygon fill="midnightblue" stroke="midnightblue" points="161.89,-18.46 171.26,-13.5 160.85,-11.54 161.89,-18.46"/>
</g>
<!-- Node4 -->
<g id="node4" class="node">
<title>Node4</title>
<g id="a_node4"><a xlink:href="namespaceutil.html#aa3d6d22d633e7042dfbdf97782f2cf4e" target="_top" xlink:title="Computes the determinant of matrix.">
<polygon fill="none" stroke="black" points="256,-0.5 256,-19.5 305,-19.5 305,-0.5 256,-0.5"/>
<text text-anchor="middle" x="280.5" y="-7.5" font-family="Arial" font-size="10.00">util::det</text>
</a>
</g>
</g>
<!-- Node3&#45;&gt;Node4 -->
<g id="edge3" class="edge">
<title>Node3&#45;&gt;Node4</title>
<path fill="none" stroke="midnightblue" d="M219.62,-10C227.76,-10 237.07,-10 245.9,-10"/>
<polygon fill="midnightblue" stroke="midnightblue" points="245.93,-13.5 255.93,-10 245.93,-6.5 245.93,-13.5"/>
</g>
</g>
</svg>
