<?xml version="1.0" encoding="UTF-8" standalone="no"?>
<!DOCTYPE svg PUBLIC "-//W3C//DTD SVG 1.1//EN"
 "http://www.w3.org/Graphics/SVG/1.1/DTD/svg11.dtd">
<!-- Generated by graphviz version 2.43.0 (0)
 -->
<!-- Title: util::geometry::Rectangle::print Pages: 1 -->
<svg width="551pt" height="77pt"
 viewBox="0.00 0.00 551.00 77.15" xmlns="http://www.w3.org/2000/svg" xmlns:xlink="http://www.w3.org/1999/xlink">
<g id="graph0" class="graph" transform="scale(1 1) rotate(0) translate(4 73.15)">
<title>util::geometry::Rectangle::print</title>
<!-- Node1 -->
<g id="Node000001" class="node">
<title>Node1</title>
<g id="a_Node000001"><a xlink:title="Prints the information about the object.">
<polygon fill="#999999" stroke="#666666" points="126,-61.5 0,-61.5 0,-31.5 126,-31.5 126,-61.5"/>
<text text-anchor="start" x="8" y="-49.5" font-family="Arial" font-size="10.00">util::geometry::Rectangle</text>
<text text-anchor="middle" x="63" y="-38.5" font-family="Arial" font-size="10.00">::print</text>
</a>
</g>
</g>
<!-- Node2 -->
<g id="Node000002" class="node">
<title>Node2</title>
<g id="a_Node000002"><a xlink:href="classutil_1_1geometry_1_1Rectangle.html#a3d9c356274515df2e080b7ff84e99a26" target="_top" xlink:title="Returns the string containing printable information about the object.">
<polygon fill="white" stroke="#666666" points="288,-61.5 162,-61.5 162,-31.5 288,-31.5 288,-61.5"/>
<text text-anchor="start" x="170" y="-49.5" font-family="Arial" font-size="10.00">util::geometry::Rectangle</text>
<text text-anchor="middle" x="225" y="-38.5" font-family="Arial" font-size="10.00">::printStr</text>
</a>
</g>
</g>
<!-- Node1&#45;&gt;Node2 -->
<g id="edge1_Node000001_Node000002" class="edge">
<title>Node1&#45;&gt;Node2</title>
<g id="a_edge1_Node000001_Node000002"><a xlink:title=" ">
<path fill="none" stroke="#63b8ff" d="M126.32,-46.5C134.62,-46.5 143.18,-46.5 151.63,-46.5"/>
<polygon fill="#63b8ff" stroke="#63b8ff" points="151.85,-50 161.85,-46.5 151.85,-43 151.85,-50"/>
</a>
</g>
</g>
<!-- Node3 -->
<g id="Node000003" class="node">
<title>Node3</title>
<g id="a_Node000003"><a xlink:href="namespaceutil_1_1io.html#a38afb09a152cca4061850f4123bd3aeb" target="_top" xlink:title="Returns tab spaces of given size.">
<polygon fill="white" stroke="#666666" points="543,-56 458,-56 458,-37 543,-37 543,-56"/>
<text text-anchor="middle" x="500.5" y="-44" font-family="Arial" font-size="10.00">util::io::getTabS</text>
</a>
</g>
</g>
<!-- Node2&#45;&gt;Node3 -->
<g id="edge2_Node000002_Node000003" class="edge">
<title>Node2&#45;&gt;Node3</title>
<g id="a_edge2_Node000002_Node000003"><a xlink:title=" ">
<path fill="none" stroke="#63b8ff" d="M288.21,-60.41C300.04,-62.53 312.36,-64.38 324,-65.5 367.36,-69.66 378.76,-70.72 422,-65.5 433.91,-64.06 446.64,-61.42 458.26,-58.56"/>
<polygon fill="#63b8ff" stroke="#63b8ff" points="459.34,-61.89 468.14,-56.01 457.59,-55.12 459.34,-61.89"/>
</a>
</g>
</g>
<!-- Node4 -->
<g id="Node000004" class="node">
<title>Node4</title>
<g id="a_Node000004"><a xlink:href="namespaceutil_1_1io.html#a2b2ea15e35fb349760ca1f0b521e7269" target="_top" xlink:title="Returns formatted string for output.">
<polygon fill="white" stroke="#666666" points="422,-56 324,-56 324,-37 422,-37 422,-56"/>
<text text-anchor="middle" x="373" y="-44" font-family="Arial" font-size="10.00">util::io::printBoxStr</text>
</a>
</g>
</g>
<!-- Node2&#45;&gt;Node4 -->
<g id="edge3_Node000002_Node000004" class="edge">
<title>Node2&#45;&gt;Node4</title>
<g id="a_edge3_Node000002_Node000004"><a xlink:title=" ">
<path fill="none" stroke="#63b8ff" d="M288.34,-46.5C296.83,-46.5 305.51,-46.5 313.91,-46.5"/>
<polygon fill="#63b8ff" stroke="#63b8ff" points="314,-50 324,-46.5 314,-43 314,-50"/>
</a>
</g>
</g>
<!-- Node5 -->
<g id="Node000005" class="node">
<title>Node5</title>
<g id="a_Node000005"><a xlink:href="namespaceutil_1_1io.html#a3e537e3bd778616255015cde6e60a30a" target="_top" xlink:title="Returns formatted string for output.">
<polygon fill="white" stroke="#666666" points="413,-19 333,-19 333,0 413,0 413,-19"/>
<text text-anchor="middle" x="373" y="-7" font-family="Arial" font-size="10.00">util::io::printStr</text>
</a>
</g>
</g>
<!-- Node2&#45;&gt;Node5 -->
<g id="edge5_Node000002_Node000005" class="edge">
<title>Node2&#45;&gt;Node5</title>
<g id="a_edge5_Node000002_Node000005"><a xlink:title=" ">
<path fill="none" stroke="#63b8ff" d="M285.38,-31.45C298.47,-28.14 312.15,-24.67 324.68,-21.49"/>
<polygon fill="#63b8ff" stroke="#63b8ff" points="325.62,-24.87 334.45,-19.02 323.9,-18.08 325.62,-24.87"/>
</a>
</g>
</g>
<!-- Node4&#45;&gt;Node3 -->
<g id="edge4_Node000004_Node000003" class="edge">
<title>Node4&#45;&gt;Node3</title>
<g id="a_edge4_Node000004_Node000003"><a xlink:title=" ">
<path fill="none" stroke="#63b8ff" d="M422.16,-46.5C430.52,-46.5 439.24,-46.5 447.68,-46.5"/>
<polygon fill="#63b8ff" stroke="#63b8ff" points="447.81,-50 457.81,-46.5 447.81,-43 447.81,-50"/>
</a>
</g>
</g>
<!-- Node5&#45;&gt;Node3 -->
<g id="edge6_Node000005_Node000003" class="edge">
<title>Node5&#45;&gt;Node3</title>
<g id="a_edge6_Node000005_Node000003"><a xlink:title=" ">
<path fill="none" stroke="#63b8ff" d="M406.32,-19.03C421.72,-23.57 440.34,-29.06 456.87,-33.93"/>
<polygon fill="#63b8ff" stroke="#63b8ff" points="456.27,-37.4 466.85,-36.88 458.25,-30.69 456.27,-37.4"/>
</a>
</g>
</g>
</g>
</svg>
