<?xml version="1.0" encoding="UTF-8" standalone="no"?>
<!DOCTYPE svg PUBLIC "-//W3C//DTD SVG 1.1//EN"
 "http://www.w3.org/Graphics/SVG/1.1/DTD/svg11.dtd">
<!-- Generated by graphviz version 2.43.0 (0)
 -->
<!-- Title: util::geometry::Rectangle::isInside Pages: 1 -->
<svg width="417pt" height="64pt"
 viewBox="0.00 0.00 417.00 64.00" xmlns="http://www.w3.org/2000/svg" xmlns:xlink="http://www.w3.org/1999/xlink">
<g id="graph0" class="graph" transform="scale(1 1) rotate(0) translate(4 60)">
<title>util::geometry::Rectangle::isInside</title>
<!-- Node1 -->
<g id="Node000001" class="node">
<title>Node1</title>
<g id="a_Node000001"><a xlink:title="Checks if point is inside this object.">
<polygon fill="#999999" stroke="#666666" points="126,-42.5 0,-42.5 0,-12.5 126,-12.5 126,-42.5"/>
<text text-anchor="start" x="8" y="-30.5" font-family="Arial" font-size="10.00">util::geometry::Rectangle</text>
<text text-anchor="middle" x="63" y="-19.5" font-family="Arial" font-size="10.00">::isInside</text>
</a>
</g>
</g>
<!-- Node2 -->
<g id="Node000002" class="node">
<title>Node2</title>
<g id="a_Node000002"><a xlink:href="namespaceutil.html#ae95a03ba8a9adb6aac7260048c38b9db" target="_top" xlink:title="Checks if point is inside a rectangle.">
<polygon fill="white" stroke="#666666" points="298,-37 162,-37 162,-18 298,-18 298,-37"/>
<text text-anchor="middle" x="230" y="-25" font-family="Arial" font-size="10.00">util::isPointInsideRectangle</text>
</a>
</g>
</g>
<!-- Node1&#45;&gt;Node2 -->
<g id="edge1_Node000001_Node000002" class="edge">
<title>Node1&#45;&gt;Node2</title>
<g id="a_edge1_Node000001_Node000002"><a xlink:title=" ">
<path fill="none" stroke="#63b8ff" d="M126.38,-27.5C134.62,-27.5 143.14,-27.5 151.6,-27.5"/>
<polygon fill="#63b8ff" stroke="#63b8ff" points="151.85,-31 161.85,-27.5 151.85,-24 151.85,-31"/>
</a>
</g>
</g>
<!-- Node3 -->
<g id="Node000003" class="node">
<title>Node3</title>
<g id="a_Node000003"><a xlink:href="namespaceutil.html#a227b5f8acbd7a403a033663c8893d631" target="_top" xlink:title="Returns true if a &gt; b.">
<polygon fill="white" stroke="#666666" points="409,-56 334,-56 334,-37 409,-37 409,-56"/>
<text text-anchor="middle" x="371.5" y="-44" font-family="Arial" font-size="10.00">util::isGreater</text>
</a>
</g>
</g>
<!-- Node2&#45;&gt;Node3 -->
<g id="edge2_Node000002_Node000003" class="edge">
<title>Node2&#45;&gt;Node3</title>
<g id="a_edge2_Node000002_Node000003"><a xlink:title=" ">
<path fill="none" stroke="#63b8ff" d="M298.3,-36.67C306.92,-37.84 315.59,-39.02 323.79,-40.14"/>
<polygon fill="#63b8ff" stroke="#63b8ff" points="323.49,-43.63 333.87,-41.51 324.43,-36.69 323.49,-43.63"/>
</a>
</g>
</g>
<!-- Node4 -->
<g id="Node000004" class="node">
<title>Node4</title>
<g id="a_Node000004"><a xlink:href="namespaceutil.html#a868a26599b6b844d08d30063ac898319" target="_top" xlink:title="Returns true if a &lt; b.">
<polygon fill="white" stroke="#666666" points="403.5,-19 339.5,-19 339.5,0 403.5,0 403.5,-19"/>
<text text-anchor="middle" x="371.5" y="-7" font-family="Arial" font-size="10.00">util::isLess</text>
</a>
</g>
</g>
<!-- Node2&#45;&gt;Node4 -->
<g id="edge3_Node000002_Node000004" class="edge">
<title>Node2&#45;&gt;Node4</title>
<g id="a_edge3_Node000002_Node000004"><a xlink:title=" ">
<path fill="none" stroke="#63b8ff" d="M298.3,-18.82C308.84,-17.46 319.45,-16.09 329.18,-14.83"/>
<polygon fill="#63b8ff" stroke="#63b8ff" points="329.87,-18.27 339.34,-13.52 328.97,-11.33 329.87,-18.27"/>
</a>
</g>
</g>
</g>
</svg>
