<?xml version="1.0" encoding="UTF-8" standalone="no"?>
<!DOCTYPE svg PUBLIC "-//W3C//DTD SVG 1.1//EN"
 "http://www.w3.org/Graphics/SVG/1.1/DTD/svg11.dtd">
<!-- Generated by graphviz version 2.43.0 (0)
 -->
<!-- Title: loading::ParticleULoading Pages: 1 -->
<svg width="155pt" height="202pt"
 viewBox="0.00 0.00 155.00 202.00" xmlns="http://www.w3.org/2000/svg" xmlns:xlink="http://www.w3.org/1999/xlink">
<g id="graph0" class="graph" transform="scale(1 1) rotate(0) translate(4 198)">
<title>loading::ParticleULoading</title>
<!-- Node1 -->
<g id="Node000001" class="node">
<title>Node1</title>
<g id="a_Node000001"><a xlink:title="A class to apply displacement boundary condition.">
<polygon fill="#999999" stroke="transparent" points="147,-109 0,-109 0,0 147,0 147,-109"/>
<text text-anchor="start" x="18" y="-96.5" font-family="Arial" font-size="10.00">loading::ParticleULoading</text>
<text text-anchor="start" x="4.5" y="-81.5" font-family="Arial" font-size="10.00">+</text>
<text text-anchor="start" x="15.5" y="-81.5" font-family="Arial" font-size="10.00">d_pZeroDisplacementApplied</text>
<text text-anchor="start" x="4.5" y="-66.5" font-family="Arial" font-size="10.00">+</text>
<text text-anchor="start" x="15.5" y="-66.5" font-family="Arial" font-size="10.00">ParticleULoading()</text>
<text text-anchor="start" x="4.5" y="-51.5" font-family="Arial" font-size="10.00">+</text>
<text text-anchor="start" x="15.5" y="-51.5" font-family="Arial" font-size="10.00">needToProcessParticle()</text>
<text text-anchor="start" x="4.5" y="-36.5" font-family="Arial" font-size="10.00">+</text>
<text text-anchor="start" x="15.5" y="-36.5" font-family="Arial" font-size="10.00">needToComputeDof()</text>
<text text-anchor="start" x="4.5" y="-21.5" font-family="Arial" font-size="10.00">+</text>
<text text-anchor="start" x="15.5" y="-21.5" font-family="Arial" font-size="10.00">setFixity()</text>
<text text-anchor="start" x="4.5" y="-6.5" font-family="Arial" font-size="10.00">+</text>
<text text-anchor="start" x="15.5" y="-6.5" font-family="Arial" font-size="10.00">apply()</text>
<polygon fill="#666666" stroke="#666666" points="0.5,-91.5 0.5,-91.5 147.5,-91.5 147.5,-91.5 0.5,-91.5"/>
<polygon fill="#666666" stroke="#666666" points="0.5,-76.5 0.5,-76.5 13.5,-76.5 13.5,-76.5 0.5,-76.5"/>
<polygon fill="#666666" stroke="#666666" points="13.5,-76.5 13.5,-76.5 147.5,-76.5 147.5,-76.5 13.5,-76.5"/>
<polygon fill="none" stroke="#666666" points="0,0 0,-109 147,-109 147,0 0,0"/>
</a>
</g>
</g>
<!-- Node2 -->
<g id="Node000002" class="node">
<title>Node2</title>
<g id="a_Node000002"><a xlink:href="classloading_1_1ParticleLoading.html" target="_top" xlink:title="A base class to apply displacement and force boundary condition.">
<polygon fill="white" stroke="transparent" points="130.5,-194 16.5,-194 16.5,-145 130.5,-145 130.5,-194"/>
<text text-anchor="start" x="21.5" y="-181.5" font-family="Arial" font-size="10.00">loading::ParticleLoading</text>
<text text-anchor="start" x="26.5" y="-166.5" font-family="Arial" font-size="10.00">#</text>
<text text-anchor="start" x="42.5" y="-166.5" font-family="Arial" font-size="10.00">d_bcData</text>
<text text-anchor="start" x="26" y="-151.5" font-family="Arial" font-size="10.00">+</text>
<text text-anchor="start" x="42.5" y="-151.5" font-family="Arial" font-size="10.00">ParticleLoading()</text>
<polygon fill="#666666" stroke="#666666" points="16.5,-176.5 16.5,-176.5 130.5,-176.5 130.5,-176.5 16.5,-176.5"/>
<polygon fill="#666666" stroke="#666666" points="16.5,-161.5 16.5,-161.5 40.5,-161.5 40.5,-161.5 16.5,-161.5"/>
<polygon fill="#666666" stroke="#666666" points="40.5,-161.5 40.5,-161.5 130.5,-161.5 130.5,-161.5 40.5,-161.5"/>
<polygon fill="none" stroke="#666666" points="16.5,-145 16.5,-194 130.5,-194 130.5,-145 16.5,-145"/>
</a>
</g>
</g>
<!-- Node2&#45;&gt;Node1 -->
<g id="edge1_Node000001_Node000002" class="edge">
<title>Node2&#45;&gt;Node1</title>
<g id="a_edge1_Node000001_Node000002"><a xlink:title=" ">
<path fill="none" stroke="#63b8ff" d="M73.5,-134.79C73.5,-126.79 73.5,-118.06 73.5,-109.41"/>
<polygon fill="none" stroke="#63b8ff" points="70,-134.81 73.5,-144.81 77,-134.81 70,-134.81"/>
</a>
</g>
</g>
</g>
</svg>
