<?xml version="1.0" encoding="UTF-8" standalone="no"?>
<!DOCTYPE svg PUBLIC "-//W3C//DTD SVG 1.1//EN"
 "http://www.w3.org/Graphics/SVG/1.1/DTD/svg11.dtd">
<!-- Generated by graphviz version 2.43.0 (0)
 -->
<!-- Title: material::LinearInfluenceFn::getMoment Pages: 1 -->
<svg width="449pt" height="39pt"
 viewBox="0.00 0.00 449.00 39.00" xmlns="http://www.w3.org/2000/svg" xmlns:xlink="http://www.w3.org/1999/xlink">
<g id="graph0" class="graph" transform="scale(1 1) rotate(0) translate(4 35)">
<title>material::LinearInfluenceFn::getMoment</title>
<!-- Node1 -->
<g id="node1" class="node">
<title>Node1</title>
<g id="a_node1"><a xlink:title="Returns the moment of influence function.">
<polygon fill="#bfbfbf" stroke="black" points="318,-0.5 318,-30.5 441,-30.5 441,-0.5 318,-0.5"/>
<text text-anchor="start" x="326" y="-18.5" font-family="Arial" font-size="10.00">material::LinearInfluence</text>
<text text-anchor="middle" x="379.5" y="-7.5" font-family="Arial" font-size="10.00">Fn::getMoment</text>
</a>
</g>
</g>
<!-- Node2 -->
<g id="node2" class="node">
<title>Node2</title>
<g id="a_node2"><a xlink:href="classmaterial_1_1LinearInfluenceFn.html#a7183c4783d643ba5756e259a47a13b1d" target="_top" xlink:title="Returns the string containing printable information about the object.">
<polygon fill="none" stroke="black" points="159,-0.5 159,-30.5 282,-30.5 282,-0.5 159,-0.5"/>
<text text-anchor="start" x="167" y="-18.5" font-family="Arial" font-size="10.00">material::LinearInfluence</text>
<text text-anchor="middle" x="220.5" y="-7.5" font-family="Arial" font-size="10.00">Fn::printStr</text>
</a>
</g>
</g>
<!-- Node1&#45;&gt;Node2 -->
<g id="edge1" class="edge">
<title>Node1&#45;&gt;Node2</title>
<path fill="none" stroke="midnightblue" d="M307.79,-15.5C299.19,-15.5 290.47,-15.5 282.04,-15.5"/>
<polygon fill="midnightblue" stroke="midnightblue" points="307.8,-19 317.8,-15.5 307.8,-12 307.8,-19"/>
</g>
<!-- Node3 -->
<g id="node3" class="node">
<title>Node3</title>
<g id="a_node3"><a xlink:href="classmaterial_1_1LinearInfluenceFn.html#a46800e7e166c20f3a002e837df9dba96" target="_top" xlink:title="Prints the information about the object.">
<polygon fill="none" stroke="black" points="0,-0.5 0,-30.5 123,-30.5 123,-0.5 0,-0.5"/>
<text text-anchor="start" x="8" y="-18.5" font-family="Arial" font-size="10.00">material::LinearInfluence</text>
<text text-anchor="middle" x="61.5" y="-7.5" font-family="Arial" font-size="10.00">Fn::print</text>
</a>
</g>
</g>
<!-- Node2&#45;&gt;Node3 -->
<g id="edge2" class="edge">
<title>Node2&#45;&gt;Node3</title>
<path fill="none" stroke="midnightblue" d="M148.79,-15.5C140.19,-15.5 131.47,-15.5 123.04,-15.5"/>
<polygon fill="midnightblue" stroke="midnightblue" points="148.8,-19 158.8,-15.5 148.8,-12 148.8,-19"/>
</g>
</g>
</svg>
