<?xml version="1.0" encoding="UTF-8" standalone="no"?>
<!DOCTYPE svg PUBLIC "-//W3C//DTD SVG 1.1//EN"
 "http://www.w3.org/Graphics/SVG/1.1/DTD/svg11.dtd">
<!-- Generated by graphviz version 2.43.0 (0)
 -->
<!-- Title: util::io::Logger Pages: 1 -->
<svg width="111pt" height="248pt"
 viewBox="0.00 0.00 110.50 248.00" xmlns="http://www.w3.org/2000/svg" xmlns:xlink="http://www.w3.org/1999/xlink">
<g id="graph0" class="graph" transform="scale(1 1) rotate(0) translate(4 244)">
<title>util::io::Logger</title>
<!-- Node1 -->
<g id="node1" class="node">
<title>Node1</title>
<g id="a_node1"><a xlink:title="Prints log to std::cout and also write to the file.">
<polygon fill="#bfbfbf" stroke="black" points="11.5,-0.5 11.5,-90.5 89.5,-90.5 89.5,-0.5 11.5,-0.5"/>
<text text-anchor="middle" x="50.5" y="-78.5" font-family="Arial" font-size="10.00">util::io::Logger</text>
<polyline fill="none" stroke="black" points="11.5,-71.5 89.5,-71.5 "/>
<text text-anchor="start" x="19.5" y="-59.5" font-family="Arial" font-size="10.00">+ d_logFile</text>
<polyline fill="none" stroke="black" points="11.5,-52.5 89.5,-52.5 "/>
<text text-anchor="start" x="19.5" y="-40.5" font-family="Arial" font-size="10.00">+ Logger()</text>
<text text-anchor="start" x="19.5" y="-29.5" font-family="Arial" font-size="10.00">+ ~Logger()</text>
<text text-anchor="start" x="19.5" y="-18.5" font-family="Arial" font-size="10.00">+ log()</text>
<text text-anchor="start" x="19.5" y="-7.5" font-family="Arial" font-size="10.00">+ log()</text>
</a>
</g>
</g>
<!-- Node2 -->
<g id="node2" class="node">
<title>Node2</title>
<g id="a_node2"><a xlink:href="structutil_1_1io_1_1LoggerDeck.html" target="_top" xlink:title="Deck to store log parameters.">
<polygon fill="none" stroke="black" points="0,-138.5 0,-239.5 101,-239.5 101,-138.5 0,-138.5"/>
<text text-anchor="middle" x="50.5" y="-227.5" font-family="Arial" font-size="10.00">util::io::LoggerDeck</text>
<polyline fill="none" stroke="black" points="0,-220.5 101,-220.5 "/>
<text text-anchor="start" x="8" y="-208.5" font-family="Arial" font-size="10.00">+ d_debugLevel</text>
<text text-anchor="start" x="8" y="-197.5" font-family="Arial" font-size="10.00">+ d_filename</text>
<text text-anchor="start" x="8" y="-186.5" font-family="Arial" font-size="10.00">+ d_printScreen</text>
<text text-anchor="start" x="8" y="-175.5" font-family="Arial" font-size="10.00">+ d_printFile</text>
<polyline fill="none" stroke="black" points="0,-168.5 101,-168.5 "/>
<text text-anchor="start" x="8" y="-156.5" font-family="Arial" font-size="10.00">+ LoggerDeck()</text>
<text text-anchor="start" x="8" y="-145.5" font-family="Arial" font-size="10.00">+ LoggerDeck()</text>
</a>
</g>
</g>
<!-- Node2&#45;&gt;Node1 -->
<g id="edge1" class="edge">
<title>Node2&#45;&gt;Node1</title>
<path fill="none" stroke="#404040" d="M50.5,-138.11C50.5,-126.78 50.5,-114.66 50.5,-103.06"/>
<polygon fill="none" stroke="#404040" points="50.5,-102.76 46.5,-96.76 50.5,-90.76 54.5,-96.76 50.5,-102.76"/>
<text text-anchor="middle" x="76.5" y="-112" font-family="Arial" font-size="10.00"> +d_deck_p</text>
</g>
</g>
</svg>
