<?xml version="1.0" encoding="UTF-8" standalone="no"?>
<!DOCTYPE svg PUBLIC "-//W3C//DTD SVG 1.1//EN"
 "http://www.w3.org/Graphics/SVG/1.1/DTD/svg11.dtd">
<!-- Generated by graphviz version 2.43.0 (0)
 -->
<!-- Title: model::DEMModel::setupQuadratureData Pages: 1 -->
<svg width="527pt" height="76pt"
 viewBox="0.00 0.00 527.00 75.50" xmlns="http://www.w3.org/2000/svg" xmlns:xlink="http://www.w3.org/1999/xlink">
<g id="graph0" class="graph" transform="scale(1 1) rotate(0) translate(4 71.5)">
<title>model::DEMModel::setupQuadratureData</title>
<!-- Node1 -->
<g id="Node000001" class="node">
<title>Node1</title>
<g id="a_Node000001"><a xlink:title="Sets up quadrature data.">
<polygon fill="#999999" stroke="#666666" points="197,-40 0,-40 0,-21 197,-21 197,-40"/>
<text text-anchor="middle" x="98.5" y="-28" font-family="Arial" font-size="10.00">model::DEMModel::setupQuadratureData</text>
</a>
</g>
</g>
<!-- Node2 -->
<g id="Node000002" class="node">
<title>Node2</title>
<g id="a_Node000002"><a xlink:href="classfe_1_1BaseElem.html#a96fb54d9aca45e987c163e95242ceb8f" target="_top" xlink:title="Get number of quadrature points in the data.">
<polygon fill="white" stroke="#666666" points="373,-67.5 233,-67.5 233,-37.5 373,-37.5 373,-67.5"/>
<text text-anchor="start" x="241" y="-55.5" font-family="Arial" font-size="10.00">fe::BaseElem::getNumQuad</text>
<text text-anchor="middle" x="303" y="-44.5" font-family="Arial" font-size="10.00">Points</text>
</a>
</g>
</g>
<!-- Node1&#45;&gt;Node2 -->
<g id="edge1_Node000001_Node000002" class="edge">
<title>Node1&#45;&gt;Node2</title>
<g id="a_edge1_Node000001_Node000002"><a xlink:title=" ">
<path fill="none" stroke="#63b8ff" d="M187.14,-40.02C198.96,-41.31 211.04,-42.62 222.7,-43.89"/>
<polygon fill="#63b8ff" stroke="#63b8ff" points="222.51,-47.39 232.83,-44.99 223.27,-40.43 222.51,-47.39"/>
</a>
</g>
</g>
<!-- Node3 -->
<g id="Node000003" class="node">
<title>Node3</title>
<g id="a_Node000003"><a xlink:href="namespaceutil_1_1methods.html#ab21bec324f7d53e91378acc142303fb3" target="_top" xlink:title="Returns true if tag is found in the list of tags.">
<polygon fill="white" stroke="#666666" points="366,-19 240,-19 240,0 366,0 366,-19"/>
<text text-anchor="middle" x="303" y="-7" font-family="Arial" font-size="10.00">util::methods::isTagInList</text>
</a>
</g>
</g>
<!-- Node1&#45;&gt;Node3 -->
<g id="edge2_Node000001_Node000003" class="edge">
<title>Node1&#45;&gt;Node3</title>
<g id="a_edge2_Node000001_Node000003"><a xlink:title=" ">
<path fill="none" stroke="#63b8ff" d="M191.27,-20.98C204.11,-19.65 217.15,-18.3 229.56,-17.01"/>
<polygon fill="#63b8ff" stroke="#63b8ff" points="230.23,-20.46 239.82,-15.95 229.51,-13.5 230.23,-20.46"/>
</a>
</g>
</g>
<!-- Node4 -->
<g id="Node000004" class="node">
<title>Node4</title>
<g id="a_Node000004"><a xlink:href="namespaceutil_1_1methods.html#a86460acadab9a2e99a92121c0213e444" target="_top" xlink:title="Find if data is in the list.">
<polygon fill="white" stroke="#666666" points="519,-19 409,-19 409,0 519,0 519,-19"/>
<text text-anchor="middle" x="464" y="-7" font-family="Arial" font-size="10.00">util::methods::isInList</text>
</a>
</g>
</g>
<!-- Node3&#45;&gt;Node4 -->
<g id="edge3_Node000003_Node000004" class="edge">
<title>Node3&#45;&gt;Node4</title>
<g id="a_edge3_Node000003_Node000004"><a xlink:title=" ">
<path fill="none" stroke="#63b8ff" d="M366.38,-9.5C377,-9.5 388.04,-9.5 398.7,-9.5"/>
<polygon fill="#63b8ff" stroke="#63b8ff" points="398.79,-13 408.79,-9.5 398.79,-6 398.79,-13"/>
</a>
</g>
</g>
</g>
</svg>
