<?xml version="1.0" encoding="UTF-8" standalone="no"?>
<!DOCTYPE svg PUBLIC "-//W3C//DTD SVG 1.1//EN"
 "http://www.w3.org/Graphics/SVG/1.1/DTD/svg11.dtd">
<!-- Generated by graphviz version 2.43.0 (0)
 -->
<!-- Title: particle::Particle::Particle Pages: 1 -->
<svg width="486pt" height="127pt"
 viewBox="0.00 0.00 486.00 127.00" xmlns="http://www.w3.org/2000/svg" xmlns:xlink="http://www.w3.org/1999/xlink">
<g id="graph0" class="graph" transform="scale(1 1) rotate(0) translate(4 123)">
<title>particle::Particle::Particle</title>
<!-- Node1 -->
<g id="node1" class="node">
<title>Node1</title>
<g id="a_node1"><a xlink:title="Constructor.">
<polygon fill="#bfbfbf" stroke="black" points="0,-44.5 0,-74.5 87,-74.5 87,-44.5 0,-44.5"/>
<text text-anchor="start" x="8" y="-62.5" font-family="Arial" font-size="10.00">particle::Particle</text>
<text text-anchor="middle" x="43.5" y="-51.5" font-family="Arial" font-size="10.00">::Particle</text>
</a>
</g>
</g>
<!-- Node2 -->
<g id="node2" class="node">
<title>Node2</title>
<g id="a_node2"><a xlink:href="structparticle_1_1ParticleTransform.html#ac84e7ec4803c9231dfb15bc181a2dc4f" target="_top" xlink:title="Returns the transformed vector. We assume that the passed vector passes through origin.">
<polygon fill="none" stroke="black" points="123,-88.5 123,-118.5 254,-118.5 254,-88.5 123,-88.5"/>
<text text-anchor="start" x="131" y="-106.5" font-family="Arial" font-size="10.00">particle::ParticleTransform</text>
<text text-anchor="middle" x="188.5" y="-95.5" font-family="Arial" font-size="10.00">::apply</text>
</a>
</g>
</g>
<!-- Node1&#45;&gt;Node2 -->
<g id="edge1" class="edge">
<title>Node1&#45;&gt;Node2</title>
<path fill="none" stroke="midnightblue" d="M87.02,-72.58C100.2,-76.64 114.95,-81.18 129.02,-85.51"/>
<polygon fill="midnightblue" stroke="midnightblue" points="128.03,-88.86 138.61,-88.46 130.09,-82.17 128.03,-88.86"/>
</g>
<!-- Node5 -->
<g id="node5" class="node">
<title>Node5</title>
<g id="a_node5"><a xlink:href="namespaceutil.html#a1129434cfbf314a6ebc498d8dfaade19" target="_top" xlink:title="Computes minimum distance between any two nodes.">
<polygon fill="none" stroke="black" points="130.5,-50 130.5,-69 246.5,-69 246.5,-50 130.5,-50"/>
<text text-anchor="middle" x="188.5" y="-57" font-family="Arial" font-size="10.00">util::computeMeshSize</text>
</a>
</g>
</g>
<!-- Node1&#45;&gt;Node5 -->
<g id="edge4" class="edge">
<title>Node1&#45;&gt;Node5</title>
<path fill="none" stroke="midnightblue" d="M87.02,-59.5C97.42,-59.5 108.8,-59.5 120.05,-59.5"/>
<polygon fill="midnightblue" stroke="midnightblue" points="120.32,-63 130.32,-59.5 120.32,-56 120.32,-63"/>
</g>
<!-- Node7 -->
<g id="node7" class="node">
<title>Node7</title>
<g id="a_node7"><a xlink:href="classparticle_1_1BaseParticle.html#ad3bc7b2e7f6762f09ed9c8201d5af7d2" target="_top" xlink:title="Get the dimension of the domain.">
<polygon fill="none" stroke="black" points="133.5,-0.5 133.5,-30.5 243.5,-30.5 243.5,-0.5 133.5,-0.5"/>
<text text-anchor="start" x="141.5" y="-18.5" font-family="Arial" font-size="10.00">particle::BaseParticle</text>
<text text-anchor="middle" x="188.5" y="-7.5" font-family="Arial" font-size="10.00">::getDimension</text>
</a>
</g>
</g>
<!-- Node1&#45;&gt;Node7 -->
<g id="edge6" class="edge">
<title>Node1&#45;&gt;Node7</title>
<path fill="none" stroke="midnightblue" d="M87.02,-46.42C100.2,-42.36 114.95,-37.82 129.02,-33.49"/>
<polygon fill="midnightblue" stroke="midnightblue" points="130.09,-36.83 138.61,-30.54 128.03,-30.14 130.09,-36.83"/>
</g>
<!-- Node3 -->
<g id="node3" class="node">
<title>Node3</title>
<g id="a_node3"><a xlink:href="namespaceutil.html#afc570d133c5159571a48456e2440753a" target="_top" xlink:title="Returns the vector after rotating by desired angle.">
<polygon fill="none" stroke="black" points="292,-94 292,-113 352,-113 352,-94 292,-94"/>
<text text-anchor="middle" x="322" y="-101" font-family="Arial" font-size="10.00">util::rotate</text>
</a>
</g>
</g>
<!-- Node2&#45;&gt;Node3 -->
<g id="edge2" class="edge">
<title>Node2&#45;&gt;Node3</title>
<path fill="none" stroke="midnightblue" d="M254.09,-103.5C263.51,-103.5 272.97,-103.5 281.68,-103.5"/>
<polygon fill="midnightblue" stroke="midnightblue" points="281.88,-107 291.88,-103.5 281.88,-100 281.88,-107"/>
</g>
<!-- Node4 -->
<g id="node4" class="node">
<title>Node4</title>
<g id="a_node4"><a xlink:href="structutil_1_1Point.html#a8c5530ee2dac6fa26f88be0de91543f7" target="_top" xlink:title="Computes the cross product between this vector and given vector.">
<polygon fill="none" stroke="black" points="390,-94 390,-113 478,-113 478,-94 390,-94"/>
<text text-anchor="middle" x="434" y="-101" font-family="Arial" font-size="10.00">util::Point::cross</text>
</a>
</g>
</g>
<!-- Node3&#45;&gt;Node4 -->
<g id="edge3" class="edge">
<title>Node3&#45;&gt;Node4</title>
<path fill="none" stroke="midnightblue" d="M352.19,-103.5C360.7,-103.5 370.27,-103.5 379.77,-103.5"/>
<polygon fill="midnightblue" stroke="midnightblue" points="380,-107 390,-103.5 380,-100 380,-107"/>
</g>
<!-- Node6 -->
<g id="node6" class="node">
<title>Node6</title>
<g id="a_node6"><a xlink:href="namespaceutil.html#a868a26599b6b844d08d30063ac898319" target="_top" xlink:title="Returns true if a &lt; b.">
<polygon fill="none" stroke="black" points="290,-50 290,-69 354,-69 354,-50 290,-50"/>
<text text-anchor="middle" x="322" y="-57" font-family="Arial" font-size="10.00">util::isLess</text>
</a>
</g>
</g>
<!-- Node5&#45;&gt;Node6 -->
<g id="edge5" class="edge">
<title>Node5&#45;&gt;Node6</title>
<path fill="none" stroke="midnightblue" d="M246.8,-59.5C257.9,-59.5 269.34,-59.5 279.81,-59.5"/>
<polygon fill="midnightblue" stroke="midnightblue" points="279.9,-63 289.9,-59.5 279.9,-56 279.9,-63"/>
</g>
</g>
</svg>
