<?xml version="1.0" encoding="UTF-8" standalone="no"?>
<!DOCTYPE svg PUBLIC "-//W3C//DTD SVG 1.1//EN"
 "http://www.w3.org/Graphics/SVG/1.1/DTD/svg11.dtd">
<!-- Generated by graphviz version 2.43.0 (0)
 -->
<!-- Title: geom::AnnulusGeomObject::transform Pages: 1 -->
<svg width="678pt" height="151pt"
 viewBox="0.00 0.00 678.00 150.50" xmlns="http://www.w3.org/2000/svg" xmlns:xlink="http://www.w3.org/1999/xlink">
<g id="graph0" class="graph" transform="scale(1 1) rotate(0) translate(4 146.5)">
<title>geom::AnnulusGeomObject::transform</title>
<!-- Node1 -->
<g id="Node000001" class="node">
<title>Node1</title>
<g id="a_Node000001"><a xlink:title="Similarity about pivot &#160;(default: old center d_x), then rigid displacement &#160;= translation: ....">
<polygon fill="#999999" stroke="#666666" points="137,-105 0,-105 0,-75 137,-75 137,-105"/>
<text text-anchor="start" x="8" y="-93" font-family="Arial" font-size="10.00">geom::AnnulusGeomObject</text>
<text text-anchor="middle" x="68.5" y="-82" font-family="Arial" font-size="10.00">::transform</text>
</a>
</g>
</g>
<!-- Node2 -->
<g id="Node000002" class="node">
<title>Node2</title>
<g id="a_Node000002"><a xlink:href="classgeom_1_1GeomObject.html#a8ca2d7dbfccce611dee2bd6611b6e7cf" target="_top" xlink:title="Computes the center of object.">
<polygon fill="white" stroke="#666666" points="493.5,-142.5 359.5,-142.5 359.5,-123.5 493.5,-123.5 493.5,-142.5"/>
<text text-anchor="middle" x="426.5" y="-130.5" font-family="Arial" font-size="10.00">geom::GeomObject::center</text>
</a>
</g>
</g>
<!-- Node1&#45;&gt;Node2 -->
<g id="edge1_Node000001_Node000002" class="edge">
<title>Node1&#45;&gt;Node2</title>
<g id="a_edge1_Node000001_Node000002"><a xlink:title=" ">
<path fill="none" stroke="#63b8ff" d="M127.22,-105.03C142.06,-108.43 158.05,-111.72 173,-114 231.75,-122.97 298.86,-127.76 349.12,-130.29"/>
<polygon fill="#63b8ff" stroke="#63b8ff" points="349.11,-133.79 359.26,-130.78 349.44,-126.8 349.11,-133.79"/>
</a>
</g>
</g>
<!-- Node3 -->
<g id="Node000003" class="node">
<title>Node3</title>
<g id="a_Node000003"><a xlink:href="classgeom_1_1AnnulusGeomObject.html#aa74ad5c8916557a83880924e85e84417" target="_top" xlink:title="Computes the center of object.">
<polygon fill="white" stroke="#666666" points="316,-105 179,-105 179,-75 316,-75 316,-105"/>
<text text-anchor="start" x="187" y="-93" font-family="Arial" font-size="10.00">geom::AnnulusGeomObject</text>
<text text-anchor="middle" x="247.5" y="-82" font-family="Arial" font-size="10.00">::center</text>
</a>
</g>
</g>
<!-- Node1&#45;&gt;Node3 -->
<g id="edge2_Node000001_Node000003" class="edge">
<title>Node1&#45;&gt;Node3</title>
<g id="a_edge2_Node000001_Node000003"><a xlink:title=" ">
<path fill="none" stroke="#63b8ff" d="M137.17,-90C147.53,-90 158.29,-90 168.83,-90"/>
<polygon fill="#63b8ff" stroke="#63b8ff" points="168.86,-93.5 178.86,-90 168.86,-86.5 168.86,-93.5"/>
</a>
</g>
</g>
<!-- Node7 -->
<g id="Node000007" class="node">
<title>Node7</title>
<g id="a_Node000007"><a xlink:href="classgeom_1_1GeomObject.html#a508111509336368f7b167d91dadf704f" target="_top" xlink:title="Similarity about pivot &#160;(default: old center d_x), then rigid displacement &#160;= translation: ....">
<polygon fill="white" stroke="#666666" points="322,-56.5 173,-56.5 173,-37.5 322,-37.5 322,-56.5"/>
<text text-anchor="middle" x="247.5" y="-44.5" font-family="Arial" font-size="10.00">geom::GeomObject::transform</text>
</a>
</g>
</g>
<!-- Node1&#45;&gt;Node7 -->
<g id="edge8_Node000001_Node000007" class="edge">
<title>Node1&#45;&gt;Node7</title>
<g id="a_edge8_Node000001_Node000007"><a xlink:title=" ">
<path fill="none" stroke="#63b8ff" d="M131.41,-74.96C153.08,-69.7 177.1,-63.86 197.57,-58.89"/>
<polygon fill="#63b8ff" stroke="#63b8ff" points="198.41,-62.28 207.3,-56.52 196.76,-55.48 198.41,-62.28"/>
</a>
</g>
</g>
<!-- Node3&#45;&gt;Node2 -->
<g id="edge3_Node000003_Node000002" class="edge">
<title>Node3&#45;&gt;Node2</title>
<g id="a_edge3_Node000003_Node000002"><a xlink:title=" ">
<path fill="none" stroke="#63b8ff" d="M310.41,-105.04C332.08,-110.3 356.1,-116.14 376.57,-121.11"/>
<polygon fill="#63b8ff" stroke="#63b8ff" points="375.76,-124.52 386.3,-123.48 377.41,-117.72 375.76,-124.52"/>
</a>
</g>
</g>
<!-- Node4 -->
<g id="Node000004" class="node">
<title>Node4</title>
<g id="a_Node000004"><a xlink:href="namespaceutil.html#a227b5f8acbd7a403a033663c8893d631" target="_top" xlink:title="Returns true if a &gt; b.">
<polygon fill="white" stroke="#666666" points="464,-105.5 389,-105.5 389,-86.5 464,-86.5 464,-105.5"/>
<text text-anchor="middle" x="426.5" y="-93.5" font-family="Arial" font-size="10.00">util::isGreater</text>
</a>
</g>
</g>
<!-- Node3&#45;&gt;Node4 -->
<g id="edge4_Node000003_Node000004" class="edge">
<title>Node3&#45;&gt;Node4</title>
<g id="a_edge4_Node000003_Node000004"><a xlink:title=" ">
<path fill="none" stroke="#63b8ff" d="M316.17,-92.29C336.92,-93 359.29,-93.76 378.36,-94.4"/>
<polygon fill="#63b8ff" stroke="#63b8ff" points="378.47,-97.91 388.58,-94.75 378.71,-90.91 378.47,-97.91"/>
</a>
</g>
</g>
<!-- Node5 -->
<g id="Node000005" class="node">
<title>Node5</title>
<g id="a_Node000005"><a xlink:href="classgeom_1_1GeomObject.html#a8acdd66a0d214ed18aafcb995a9ad02d" target="_top" xlink:title="Computes the volume (area in 2d, length in 1d) of object.">
<polygon fill="white" stroke="#666666" points="670,-45.5 531,-45.5 531,-26.5 670,-26.5 670,-45.5"/>
<text text-anchor="middle" x="600.5" y="-33.5" font-family="Arial" font-size="10.00">geom::GeomObject::volume</text>
</a>
</g>
</g>
<!-- Node3&#45;&gt;Node5 -->
<g id="edge5_Node000003_Node000005" class="edge">
<title>Node3&#45;&gt;Node5</title>
<g id="a_edge5_Node000003_Node000005"><a xlink:title=" ">
<path fill="none" stroke="#63b8ff" d="M316.18,-79.59C376.85,-70.25 465.58,-56.6 527.53,-47.07"/>
<polygon fill="#63b8ff" stroke="#63b8ff" points="528.27,-50.5 537.62,-45.52 527.2,-43.58 528.27,-50.5"/>
</a>
</g>
</g>
<!-- Node6 -->
<g id="Node000006" class="node">
<title>Node6</title>
<g id="a_Node000006"><a xlink:href="classgeom_1_1AnnulusGeomObject.html#ac0a8814857e37565947a78d71b2533cc" target="_top" xlink:title="Computes the volume (area in 2d, length in 1d) of object.">
<polygon fill="white" stroke="#666666" points="495,-30 358,-30 358,0 495,0 495,-30"/>
<text text-anchor="start" x="366" y="-18" font-family="Arial" font-size="10.00">geom::AnnulusGeomObject</text>
<text text-anchor="middle" x="426.5" y="-7" font-family="Arial" font-size="10.00">::volume</text>
</a>
</g>
</g>
<!-- Node3&#45;&gt;Node6 -->
<g id="edge6_Node000003_Node000006" class="edge">
<title>Node3&#45;&gt;Node6</title>
<g id="a_edge6_Node000003_Node000006"><a xlink:title=" ">
<path fill="none" stroke="#63b8ff" d="M299.7,-74.99C307.29,-72.28 314.93,-69.26 322,-66 339.03,-58.15 341.34,-52.61 358,-44 364.54,-40.62 371.57,-37.28 378.53,-34.15"/>
<polygon fill="#63b8ff" stroke="#63b8ff" points="380.18,-37.25 387.92,-30.02 377.36,-30.84 380.18,-37.25"/>
</a>
</g>
</g>
<!-- Node6&#45;&gt;Node5 -->
<g id="edge7_Node000006_Node000005" class="edge">
<title>Node6&#45;&gt;Node5</title>
<g id="a_edge7_Node000006_Node000005"><a xlink:title=" ">
<path fill="none" stroke="#63b8ff" d="M495.48,-23.3C503.76,-24.31 512.27,-25.35 520.69,-26.38"/>
<polygon fill="#63b8ff" stroke="#63b8ff" points="520.54,-29.89 530.89,-27.62 521.39,-22.94 520.54,-29.89"/>
</a>
</g>
</g>
</g>
</svg>
