<?xml version="1.0" encoding="UTF-8" standalone="no"?>
<!DOCTYPE svg PUBLIC "-//W3C//DTD SVG 1.1//EN"
 "http://www.w3.org/Graphics/SVG/1.1/DTD/svg11.dtd">
<!-- Generated by graphviz version 2.43.0 (0)
 -->
<!-- Title: material::PmbMaterial Pages: 1 -->
<svg width="150pt" height="592pt"
 viewBox="0.00 0.00 150.00 592.00" xmlns="http://www.w3.org/2000/svg" xmlns:xlink="http://www.w3.org/1999/xlink">
<g id="graph0" class="graph" transform="scale(1 1) rotate(0) translate(4 588)">
<title>material::PmbMaterial</title>
<!-- Node1 -->
<g id="Node000001" class="node">
<title>Node1</title>
<g id="a_Node000001"><a xlink:title="A class providing methods to compute energy density and force of peridynamic material.">
<polygon fill="#999999" stroke="transparent" points="142,-349 0,-349 0,0 142,0 142,-349"/>
<text text-anchor="start" x="23" y="-336.5" font-family="Arial" font-size="10.00">material::PmbMaterial</text>
<text text-anchor="start" x="5.5" y="-321.5" font-family="Arial" font-size="10.00">&#45;</text>
<text text-anchor="start" x="15" y="-321.5" font-family="Arial" font-size="10.00">d_horizon</text>
<text text-anchor="start" x="5.5" y="-306.5" font-family="Arial" font-size="10.00">&#45;</text>
<text text-anchor="start" x="15" y="-306.5" font-family="Arial" font-size="10.00">d_density</text>
<text text-anchor="start" x="5.5" y="-291.5" font-family="Arial" font-size="10.00">&#45;</text>
<text text-anchor="start" x="15" y="-291.5" font-family="Arial" font-size="10.00">d_c</text>
<text text-anchor="start" x="5.5" y="-276.5" font-family="Arial" font-size="10.00">&#45;</text>
<text text-anchor="start" x="15" y="-276.5" font-family="Arial" font-size="10.00">d_s0</text>
<text text-anchor="start" x="4" y="-261.5" font-family="Arial" font-size="10.00">+</text>
<text text-anchor="start" x="15" y="-261.5" font-family="Arial" font-size="10.00">PmbMaterial()</text>
<text text-anchor="start" x="4" y="-246.5" font-family="Arial" font-size="10.00">+</text>
<text text-anchor="start" x="15" y="-246.5" font-family="Arial" font-size="10.00">isStateActive()</text>
<text text-anchor="start" x="4" y="-231.5" font-family="Arial" font-size="10.00">+</text>
<text text-anchor="start" x="15" y="-231.5" font-family="Arial" font-size="10.00">getBondEF()</text>
<text text-anchor="start" x="4" y="-216.5" font-family="Arial" font-size="10.00">+</text>
<text text-anchor="start" x="15" y="-216.5" font-family="Arial" font-size="10.00">getBondEF()</text>
<text text-anchor="start" x="4" y="-201.5" font-family="Arial" font-size="10.00">+</text>
<text text-anchor="start" x="15" y="-201.5" font-family="Arial" font-size="10.00">getBondForceDirection()</text>
<text text-anchor="start" x="4" y="-186.5" font-family="Arial" font-size="10.00">+</text>
<text text-anchor="start" x="15" y="-186.5" font-family="Arial" font-size="10.00">getS()</text>
<text text-anchor="start" x="4" y="-171.5" font-family="Arial" font-size="10.00">+</text>
<text text-anchor="start" x="15" y="-171.5" font-family="Arial" font-size="10.00">getSc()</text>
<text text-anchor="start" x="4" y="-156.5" font-family="Arial" font-size="10.00">+</text>
<text text-anchor="start" x="15" y="-156.5" font-family="Arial" font-size="10.00">getDensity()</text>
<text text-anchor="start" x="4" y="-141.5" font-family="Arial" font-size="10.00">+</text>
<text text-anchor="start" x="15" y="-141.5" font-family="Arial" font-size="10.00">getInfFn()</text>
<text text-anchor="start" x="4" y="-126.5" font-family="Arial" font-size="10.00">+</text>
<text text-anchor="start" x="15" y="-126.5" font-family="Arial" font-size="10.00">getMoment()</text>
<text text-anchor="start" x="4" y="-111.5" font-family="Arial" font-size="10.00">+</text>
<text text-anchor="start" x="15" y="-111.5" font-family="Arial" font-size="10.00">getHorizon()</text>
<text text-anchor="start" x="4" y="-96.5" font-family="Arial" font-size="10.00">+</text>
<text text-anchor="start" x="15" y="-96.5" font-family="Arial" font-size="10.00">computeMaterialProperties()</text>
<text text-anchor="start" x="4" y="-81.5" font-family="Arial" font-size="10.00">+</text>
<text text-anchor="start" x="15" y="-81.5" font-family="Arial" font-size="10.00">printStr()</text>
<text text-anchor="start" x="4" y="-66.5" font-family="Arial" font-size="10.00">+</text>
<text text-anchor="start" x="15" y="-66.5" font-family="Arial" font-size="10.00">print()</text>
<text text-anchor="start" x="4" y="-51.5" font-family="Arial" font-size="10.00">+</text>
<text text-anchor="start" x="15" y="-51.5" font-family="Arial" font-size="10.00">print()</text>
<text text-anchor="start" x="5.5" y="-36.5" font-family="Arial" font-size="10.00">&#45;</text>
<text text-anchor="start" x="15" y="-36.5" font-family="Arial" font-size="10.00">computeParameters()</text>
<text text-anchor="start" x="5.5" y="-21.5" font-family="Arial" font-size="10.00">*</text>
<text text-anchor="start" x="15" y="-21.5" font-family="Arial" font-size="10.00">d_c</text>
<text text-anchor="start" x="5.5" y="-6.5" font-family="Arial" font-size="10.00">*</text>
<text text-anchor="start" x="15" y="-6.5" font-family="Arial" font-size="10.00">d_s0</text>
<polygon fill="#666666" stroke="#666666" points="0,-331.5 0,-331.5 142,-331.5 142,-331.5 0,-331.5"/>
<polygon fill="#666666" stroke="#666666" points="0,-271.5 0,-271.5 13,-271.5 13,-271.5 0,-271.5"/>
<polygon fill="#666666" stroke="#666666" points="13,-271.5 13,-271.5 142,-271.5 142,-271.5 13,-271.5"/>
<polygon fill="none" stroke="#666666" points="0,0 0,-349 142,-349 142,0 0,0"/>
</a>
</g>
</g>
<!-- Node2 -->
<g id="Node000002" class="node">
<title>Node2</title>
<g id="a_Node000002"><a xlink:href="classmaterial_1_1Material.html" target="_top" xlink:title="Collection of methods and database related to peridynamic material.">
<polygon fill="white" stroke="transparent" points="133.5,-584 8.5,-584 8.5,-385 133.5,-385 133.5,-584"/>
<text text-anchor="start" x="33.5" y="-571.5" font-family="Arial" font-size="10.00">material::Material</text>
<text text-anchor="start" x="14.5" y="-556.5" font-family="Arial" font-size="10.00">&#45;</text>
<text text-anchor="start" x="24" y="-556.5" font-family="Arial" font-size="10.00">d_name</text>
<text text-anchor="start" x="13" y="-541.5" font-family="Arial" font-size="10.00">+</text>
<text text-anchor="start" x="24" y="-541.5" font-family="Arial" font-size="10.00">Material()</text>
<text text-anchor="start" x="13" y="-526.5" font-family="Arial" font-size="10.00">+</text>
<text text-anchor="start" x="24" y="-526.5" font-family="Arial" font-size="10.00">~Material()</text>
<text text-anchor="start" x="13" y="-511.5" font-family="Arial" font-size="10.00">+</text>
<text text-anchor="start" x="24" y="-511.5" font-family="Arial" font-size="10.00">name()</text>
<text text-anchor="start" x="13" y="-496.5" font-family="Arial" font-size="10.00">+</text>
<text text-anchor="start" x="24" y="-496.5" font-family="Arial" font-size="10.00">getDimension()</text>
<text text-anchor="start" x="13" y="-481.5" font-family="Arial" font-size="10.00">+</text>
<text text-anchor="start" x="24" y="-481.5" font-family="Arial" font-size="10.00">isPlaneStrain()</text>
<text text-anchor="start" x="13" y="-466.5" font-family="Arial" font-size="10.00">+</text>
<text text-anchor="start" x="24" y="-466.5" font-family="Arial" font-size="10.00">isStateActive()</text>
<text text-anchor="start" x="13" y="-451.5" font-family="Arial" font-size="10.00">+</text>
<text text-anchor="start" x="24" y="-451.5" font-family="Arial" font-size="10.00">getBondEF()</text>
<text text-anchor="start" x="13" y="-436.5" font-family="Arial" font-size="10.00">+</text>
<text text-anchor="start" x="24" y="-436.5" font-family="Arial" font-size="10.00">getBondEF()</text>
<text text-anchor="start" x="13" y="-421.5" font-family="Arial" font-size="10.00">+</text>
<text text-anchor="start" x="24" y="-421.5" font-family="Arial" font-size="10.00">getBondForceDirection()</text>
<text text-anchor="start" x="13" y="-406.5" font-family="Arial" font-size="10.00">+</text>
<text text-anchor="start" x="24" y="-406.5" font-family="Arial" font-size="10.00">getS()</text>
<text text-anchor="start" x="24" y="-391.5" font-family="Arial" font-size="10.00">and 9 more...</text>
<polygon fill="#666666" stroke="#666666" points="9,-566.5 9,-566.5 134,-566.5 134,-566.5 9,-566.5"/>
<polygon fill="#666666" stroke="#666666" points="9,-551.5 9,-551.5 22,-551.5 22,-551.5 9,-551.5"/>
<polygon fill="#666666" stroke="#666666" points="22,-551.5 22,-551.5 134,-551.5 134,-551.5 22,-551.5"/>
<polygon fill="none" stroke="#666666" points="8.5,-385 8.5,-584 133.5,-584 133.5,-385 8.5,-385"/>
</a>
</g>
</g>
<!-- Node2&#45;&gt;Node1 -->
<g id="edge1_Node000001_Node000002" class="edge">
<title>Node2&#45;&gt;Node1</title>
<g id="a_edge1_Node000001_Node000002"><a xlink:title=" ">
<path fill="none" stroke="#63b8ff" d="M71,-374.67C71,-366.3 71,-357.73 71,-349.08"/>
<polygon fill="none" stroke="#63b8ff" points="67.5,-374.78 71,-384.78 74.5,-374.78 67.5,-374.78"/>
</a>
</g>
</g>
</g>
</svg>
