<?xml version="1.0" encoding="UTF-8" standalone="no"?>
<!DOCTYPE svg PUBLIC "-//W3C//DTD SVG 1.1//EN"
 "http://www.w3.org/Graphics/SVG/1.1/DTD/svg11.dtd">
<!-- Generated by graphviz version 2.43.0 (0)
 -->
<!-- Title: loading::ParticleULoading::setFixityWall Pages: 1 -->
<svg width="294pt" height="247pt"
 viewBox="0.00 0.00 294.00 247.00" xmlns="http://www.w3.org/2000/svg" xmlns:xlink="http://www.w3.org/1999/xlink">
<g id="graph0" class="graph" transform="scale(1 1) rotate(0) translate(4 243)">
<title>loading::ParticleULoading::setFixityWall</title>
<!-- Node1 -->
<g id="node1" class="node">
<title>Node1</title>
<g id="a_node1"><a xlink:title="Sets fixity mask.">
<polygon fill="#bfbfbf" stroke="black" points="0,-110.5 0,-140.5 128,-140.5 128,-110.5 0,-110.5"/>
<text text-anchor="start" x="8" y="-128.5" font-family="Arial" font-size="10.00">loading::ParticleULoading</text>
<text text-anchor="middle" x="64" y="-117.5" font-family="Arial" font-size="10.00">::setFixityWall</text>
</a>
</g>
</g>
<!-- Node2 -->
<g id="node2" class="node">
<title>Node2</title>
<g id="a_node2"><a xlink:href="classparticle_1_1BaseParticle.html#a40cf9f658ae9988d90acbc6dcda9bda0" target="_top" xlink:title="Get the number of nodes.">
<polygon fill="none" stroke="black" points="170,-208.5 170,-238.5 280,-238.5 280,-208.5 170,-208.5"/>
<text text-anchor="start" x="178" y="-226.5" font-family="Arial" font-size="10.00">particle::BaseParticle</text>
<text text-anchor="middle" x="225" y="-215.5" font-family="Arial" font-size="10.00">::getNumNodes</text>
</a>
</g>
</g>
<!-- Node1&#45;&gt;Node2 -->
<g id="edge1" class="edge">
<title>Node1&#45;&gt;Node2</title>
<path fill="none" stroke="midnightblue" d="M82.28,-140.63C101.31,-156.76 133.31,-182.28 164,-199.5 166.89,-201.12 169.9,-202.68 172.99,-204.19"/>
<polygon fill="midnightblue" stroke="midnightblue" points="171.8,-207.49 182.35,-208.49 174.72,-201.13 171.8,-207.49"/>
</g>
<!-- Node3 -->
<g id="node3" class="node">
<title>Node3</title>
<g id="a_node3"><a xlink:href="classparticle_1_1BaseParticle.html#aa369eb38bfda094cdb3243a97b8075bc" target="_top" xlink:title="Get id among the group of object in the same type as this.">
<polygon fill="none" stroke="black" points="170,-159.5 170,-189.5 280,-189.5 280,-159.5 170,-159.5"/>
<text text-anchor="start" x="178" y="-177.5" font-family="Arial" font-size="10.00">particle::BaseParticle</text>
<text text-anchor="middle" x="225" y="-166.5" font-family="Arial" font-size="10.00">::getTypeId</text>
</a>
</g>
</g>
<!-- Node1&#45;&gt;Node3 -->
<g id="edge2" class="edge">
<title>Node1&#45;&gt;Node3</title>
<path fill="none" stroke="midnightblue" d="M114,-140.6C130.25,-145.61 148.5,-151.23 165.39,-156.44"/>
<polygon fill="midnightblue" stroke="midnightblue" points="164.57,-159.85 175.16,-159.45 166.63,-153.16 164.57,-159.85"/>
</g>
<!-- Node4 -->
<g id="node4" class="node">
<title>Node4</title>
<g id="a_node4"><a xlink:href="classparticle_1_1BaseParticle.html#a8cb99a2e2ea56e1d723481b43e050d7b" target="_top" xlink:title="Get reference coordinate of the node given node&#39;s local id.">
<polygon fill="none" stroke="black" points="170,-110.5 170,-140.5 280,-140.5 280,-110.5 170,-110.5"/>
<text text-anchor="start" x="178" y="-128.5" font-family="Arial" font-size="10.00">particle::BaseParticle</text>
<text text-anchor="middle" x="225" y="-117.5" font-family="Arial" font-size="10.00">::getXRefLocal</text>
</a>
</g>
</g>
<!-- Node1&#45;&gt;Node4 -->
<g id="edge3" class="edge">
<title>Node1&#45;&gt;Node4</title>
<path fill="none" stroke="midnightblue" d="M128.3,-125.5C138.63,-125.5 149.33,-125.5 159.68,-125.5"/>
<polygon fill="midnightblue" stroke="midnightblue" points="159.89,-129 169.89,-125.5 159.89,-122 159.89,-129"/>
</g>
<!-- Node5 -->
<g id="node5" class="node">
<title>Node5</title>
<g id="a_node5"><a xlink:href="namespaceanonymous__namespace_02particleULoading_8cpp_03.html#a638f68614523165276ec3add96f3de37" target="_top" xlink:title=" ">
<polygon fill="none" stroke="black" points="164,-50 164,-91 286,-91 286,-50 164,-50"/>
<text text-anchor="start" x="172" y="-79" font-family="Arial" font-size="10.00">anonymous_namespace</text>
<text text-anchor="start" x="172" y="-68" font-family="Arial" font-size="10.00">{particleULoading::cpp}</text>
<text text-anchor="middle" x="225" y="-57" font-family="Arial" font-size="10.00">::isInList</text>
</a>
</g>
</g>
<!-- Node1&#45;&gt;Node5 -->
<g id="edge4" class="edge">
<title>Node1&#45;&gt;Node5</title>
<path fill="none" stroke="midnightblue" d="M108.45,-110.47C122.76,-105.52 139.06,-99.88 154.8,-94.44"/>
<polygon fill="midnightblue" stroke="midnightblue" points="156.21,-97.65 164.51,-91.08 153.92,-91.04 156.21,-97.65"/>
</g>
<!-- Node6 -->
<g id="node6" class="node">
<title>Node6</title>
<g id="a_node6"><a xlink:href="classparticle_1_1BaseParticle.html#a09909c66edc69bc6455d854576fa99db" target="_top" xlink:title="Set fixity of the node given node&#39;s local id.">
<polygon fill="none" stroke="black" points="170,-0.5 170,-30.5 280,-30.5 280,-0.5 170,-0.5"/>
<text text-anchor="start" x="178" y="-18.5" font-family="Arial" font-size="10.00">particle::BaseParticle</text>
<text text-anchor="middle" x="225" y="-7.5" font-family="Arial" font-size="10.00">::setFixLocal</text>
</a>
</g>
</g>
<!-- Node1&#45;&gt;Node6 -->
<g id="edge5" class="edge">
<title>Node1&#45;&gt;Node6</title>
<path fill="none" stroke="midnightblue" d="M79.59,-110.33C97.93,-91.92 131.02,-60.82 164,-40.5 167.11,-38.58 170.4,-36.75 173.77,-35.01"/>
<polygon fill="midnightblue" stroke="midnightblue" points="175.33,-38.14 182.8,-30.63 172.27,-31.84 175.33,-38.14"/>
</g>
</g>
</svg>
