<?xml version="1.0" encoding="UTF-8" standalone="no"?>
<!DOCTYPE svg PUBLIC "-//W3C//DTD SVG 1.1//EN"
 "http://www.w3.org/Graphics/SVG/1.1/DTD/svg11.dtd">
<!-- Generated by graphviz version 2.43.0 (0)
 -->
<!-- Title: util::geometry::Rectangle Pages: 1 -->
<svg width="139pt" height="1072pt"
 viewBox="0.00 0.00 139.00 1072.00" xmlns="http://www.w3.org/2000/svg" xmlns:xlink="http://www.w3.org/1999/xlink">
<g id="graph0" class="graph" transform="scale(1 1) rotate(0) translate(4 1068)">
<title>util::geometry::Rectangle</title>
<!-- Node1 -->
<g id="Node000001" class="node">
<title>Node1</title>
<g id="a_Node000001"><a xlink:title="Defines Rectangle.">
<polygon fill="#999999" stroke="transparent" points="125.5,-544 5.5,-544 5.5,0 125.5,0 125.5,-544"/>
<text text-anchor="start" x="10.5" y="-532" font-family="Arial" font-size="10.00">util::geometry::Rectangle</text>
<text text-anchor="start" x="15.5" y="-517" font-family="Arial" font-size="10.00">+</text>
<text text-anchor="start" x="32.5" y="-517" font-family="Arial" font-size="10.00">d_vertices</text>
<text text-anchor="start" x="15.5" y="-502" font-family="Arial" font-size="10.00">+</text>
<text text-anchor="start" x="32.5" y="-502" font-family="Arial" font-size="10.00">d_x</text>
<text text-anchor="start" x="15.5" y="-487" font-family="Arial" font-size="10.00">+</text>
<text text-anchor="start" x="32.5" y="-487" font-family="Arial" font-size="10.00">d_Lx</text>
<text text-anchor="start" x="15.5" y="-472" font-family="Arial" font-size="10.00">+</text>
<text text-anchor="start" x="32.5" y="-472" font-family="Arial" font-size="10.00">d_Ly</text>
<text text-anchor="start" x="15.5" y="-457" font-family="Arial" font-size="10.00">+</text>
<text text-anchor="start" x="32.5" y="-457" font-family="Arial" font-size="10.00">d_r</text>
<text text-anchor="start" x="15.5" y="-442" font-family="Arial" font-size="10.00">+</text>
<text text-anchor="start" x="32.5" y="-442" font-family="Arial" font-size="10.00">Rectangle()</text>
<text text-anchor="start" x="15.5" y="-427" font-family="Arial" font-size="10.00">+</text>
<text text-anchor="start" x="32.5" y="-427" font-family="Arial" font-size="10.00">Rectangle()</text>
<text text-anchor="start" x="15.5" y="-412" font-family="Arial" font-size="10.00">+</text>
<text text-anchor="start" x="32.5" y="-412" font-family="Arial" font-size="10.00">Rectangle()</text>
<text text-anchor="start" x="15.5" y="-397" font-family="Arial" font-size="10.00">+</text>
<text text-anchor="start" x="32.5" y="-397" font-family="Arial" font-size="10.00">volume()</text>
<text text-anchor="start" x="15.5" y="-382" font-family="Arial" font-size="10.00">+</text>
<text text-anchor="start" x="32.5" y="-382" font-family="Arial" font-size="10.00">center()</text>
<text text-anchor="start" x="15.5" y="-367" font-family="Arial" font-size="10.00">+</text>
<text text-anchor="start" x="32.5" y="-367" font-family="Arial" font-size="10.00">box()</text>
<text text-anchor="start" x="15.5" y="-352" font-family="Arial" font-size="10.00">+</text>
<text text-anchor="start" x="32.5" y="-352" font-family="Arial" font-size="10.00">box()</text>
<text text-anchor="start" x="15.5" y="-337" font-family="Arial" font-size="10.00">+</text>
<text text-anchor="start" x="32.5" y="-337" font-family="Arial" font-size="10.00">inscribedRadius()</text>
<text text-anchor="start" x="15.5" y="-322" font-family="Arial" font-size="10.00">+</text>
<text text-anchor="start" x="32.5" y="-322" font-family="Arial" font-size="10.00">boundingRadius()</text>
<text text-anchor="start" x="15.5" y="-307" font-family="Arial" font-size="10.00">+</text>
<text text-anchor="start" x="32.5" y="-307" font-family="Arial" font-size="10.00">printStr()</text>
<text text-anchor="start" x="15.5" y="-292" font-family="Arial" font-size="10.00">+</text>
<text text-anchor="start" x="32.5" y="-292" font-family="Arial" font-size="10.00">print()</text>
<text text-anchor="start" x="15.5" y="-277" font-family="Arial" font-size="10.00">+</text>
<text text-anchor="start" x="32.5" y="-277" font-family="Arial" font-size="10.00">print()</text>
<text text-anchor="start" x="15.5" y="-262" font-family="Arial" font-size="10.00">+</text>
<text text-anchor="start" x="32.5" y="-262" font-family="Arial" font-size="10.00">isInside()</text>
<text text-anchor="start" x="15.5" y="-247" font-family="Arial" font-size="10.00">+</text>
<text text-anchor="start" x="32.5" y="-247" font-family="Arial" font-size="10.00">isOutside()</text>
<text text-anchor="start" x="15.5" y="-232" font-family="Arial" font-size="10.00">+</text>
<text text-anchor="start" x="32.5" y="-232" font-family="Arial" font-size="10.00">isNear()</text>
<text text-anchor="start" x="15.5" y="-217" font-family="Arial" font-size="10.00">+</text>
<text text-anchor="start" x="32.5" y="-217" font-family="Arial" font-size="10.00">isNearBoundary()</text>
<text text-anchor="start" x="15.5" y="-202" font-family="Arial" font-size="10.00">+</text>
<text text-anchor="start" x="32.5" y="-202" font-family="Arial" font-size="10.00">doesIntersect()</text>
<text text-anchor="start" x="15.5" y="-187" font-family="Arial" font-size="10.00">+</text>
<text text-anchor="start" x="32.5" y="-187" font-family="Arial" font-size="10.00">isInside()</text>
<text text-anchor="start" x="15.5" y="-172" font-family="Arial" font-size="10.00">+</text>
<text text-anchor="start" x="32.5" y="-172" font-family="Arial" font-size="10.00">isOutside()</text>
<text text-anchor="start" x="15.5" y="-157" font-family="Arial" font-size="10.00">+</text>
<text text-anchor="start" x="32.5" y="-157" font-family="Arial" font-size="10.00">isNear()</text>
<text text-anchor="start" x="15.5" y="-142" font-family="Arial" font-size="10.00">+</text>
<text text-anchor="start" x="32.5" y="-142" font-family="Arial" font-size="10.00">doesIntersect()</text>
<text text-anchor="start" x="17" y="-127" font-family="Arial" font-size="10.00">*</text>
<text text-anchor="start" x="32.5" y="-127" font-family="Arial" font-size="10.00">isInside()</text>
<text text-anchor="start" x="17" y="-112" font-family="Arial" font-size="10.00">*</text>
<text text-anchor="start" x="32.5" y="-112" font-family="Arial" font-size="10.00">isOutside()</text>
<text text-anchor="start" x="17" y="-97" font-family="Arial" font-size="10.00">*</text>
<text text-anchor="start" x="32.5" y="-97" font-family="Arial" font-size="10.00">isNear()</text>
<text text-anchor="start" x="17" y="-82" font-family="Arial" font-size="10.00">*</text>
<text text-anchor="start" x="32.5" y="-82" font-family="Arial" font-size="10.00">isNearBoundary()</text>
<text text-anchor="start" x="17" y="-67" font-family="Arial" font-size="10.00">*</text>
<text text-anchor="start" x="32.5" y="-67" font-family="Arial" font-size="10.00">doesIntersect()</text>
<text text-anchor="start" x="17" y="-52" font-family="Arial" font-size="10.00">*</text>
<text text-anchor="start" x="32.5" y="-52" font-family="Arial" font-size="10.00">isInside()</text>
<text text-anchor="start" x="17" y="-37" font-family="Arial" font-size="10.00">*</text>
<text text-anchor="start" x="32.5" y="-37" font-family="Arial" font-size="10.00">isOutside()</text>
<text text-anchor="start" x="17" y="-22" font-family="Arial" font-size="10.00">*</text>
<text text-anchor="start" x="32.5" y="-22" font-family="Arial" font-size="10.00">isNear()</text>
<text text-anchor="start" x="17" y="-7" font-family="Arial" font-size="10.00">*</text>
<text text-anchor="start" x="32.5" y="-7" font-family="Arial" font-size="10.00">doesIntersect()</text>
<polygon fill="#666666" stroke="#666666" points="5.5,-527 5.5,-527 125.5,-527 125.5,-527 5.5,-527"/>
<polygon fill="#666666" stroke="#666666" points="5.5,-452 5.5,-452 30.5,-452 30.5,-452 5.5,-452"/>
<polygon fill="#666666" stroke="#666666" points="30.5,-452 30.5,-452 125.5,-452 125.5,-452 30.5,-452"/>
<polygon fill="none" stroke="#666666" points="5.5,0 5.5,-544 125.5,-544 125.5,0 5.5,0"/>
</a>
</g>
</g>
<!-- Node2 -->
<g id="Node000002" class="node">
<title>Node2</title>
<g id="a_Node000002"><a xlink:href="classutil_1_1geometry_1_1GeomObject.html" target="_top" xlink:title="Defines abstract geometrical domain.">
<polygon fill="white" stroke="transparent" points="131,-1064 0,-1064 0,-580 131,-580 131,-1064"/>
<text text-anchor="start" x="5.5" y="-1052" font-family="Arial" font-size="10.00">util::geometry::GeomObject</text>
<text text-anchor="start" x="13.5" y="-1037" font-family="Arial" font-size="10.00">+</text>
<text text-anchor="start" x="33.5" y="-1037" font-family="Arial" font-size="10.00">d_name</text>
<text text-anchor="start" x="13.5" y="-1022" font-family="Arial" font-size="10.00">+</text>
<text text-anchor="start" x="33.5" y="-1022" font-family="Arial" font-size="10.00">d_description</text>
<text text-anchor="start" x="13.5" y="-1007" font-family="Arial" font-size="10.00">+</text>
<text text-anchor="start" x="33.5" y="-1007" font-family="Arial" font-size="10.00">d_tags</text>
<text text-anchor="start" x="13.5" y="-992" font-family="Arial" font-size="10.00">+</text>
<text text-anchor="start" x="33.5" y="-992" font-family="Arial" font-size="10.00">GeomObject()</text>
<text text-anchor="start" x="13.5" y="-977" font-family="Arial" font-size="10.00">+</text>
<text text-anchor="start" x="33.5" y="-977" font-family="Arial" font-size="10.00">volume()</text>
<text text-anchor="start" x="13.5" y="-962" font-family="Arial" font-size="10.00">+</text>
<text text-anchor="start" x="33.5" y="-962" font-family="Arial" font-size="10.00">center()</text>
<text text-anchor="start" x="13.5" y="-947" font-family="Arial" font-size="10.00">+</text>
<text text-anchor="start" x="33.5" y="-947" font-family="Arial" font-size="10.00">box()</text>
<text text-anchor="start" x="13.5" y="-932" font-family="Arial" font-size="10.00">+</text>
<text text-anchor="start" x="33.5" y="-932" font-family="Arial" font-size="10.00">box()</text>
<text text-anchor="start" x="13.5" y="-917" font-family="Arial" font-size="10.00">+</text>
<text text-anchor="start" x="33.5" y="-917" font-family="Arial" font-size="10.00">inscribedRadius()</text>
<text text-anchor="start" x="13.5" y="-902" font-family="Arial" font-size="10.00">+</text>
<text text-anchor="start" x="33.5" y="-902" font-family="Arial" font-size="10.00">boundingRadius()</text>
<text text-anchor="start" x="13.5" y="-887" font-family="Arial" font-size="10.00">+</text>
<text text-anchor="start" x="33.5" y="-887" font-family="Arial" font-size="10.00">printStr()</text>
<text text-anchor="start" x="13.5" y="-872" font-family="Arial" font-size="10.00">+</text>
<text text-anchor="start" x="33.5" y="-872" font-family="Arial" font-size="10.00">print()</text>
<text text-anchor="start" x="13.5" y="-857" font-family="Arial" font-size="10.00">+</text>
<text text-anchor="start" x="33.5" y="-857" font-family="Arial" font-size="10.00">print()</text>
<text text-anchor="start" x="13.5" y="-842" font-family="Arial" font-size="10.00">+</text>
<text text-anchor="start" x="33.5" y="-842" font-family="Arial" font-size="10.00">isInside()</text>
<text text-anchor="start" x="13.5" y="-827" font-family="Arial" font-size="10.00">+</text>
<text text-anchor="start" x="33.5" y="-827" font-family="Arial" font-size="10.00">isOutside()</text>
<text text-anchor="start" x="13.5" y="-812" font-family="Arial" font-size="10.00">+</text>
<text text-anchor="start" x="33.5" y="-812" font-family="Arial" font-size="10.00">isNear()</text>
<text text-anchor="start" x="13.5" y="-797" font-family="Arial" font-size="10.00">+</text>
<text text-anchor="start" x="33.5" y="-797" font-family="Arial" font-size="10.00">isNearBoundary()</text>
<text text-anchor="start" x="13.5" y="-782" font-family="Arial" font-size="10.00">+</text>
<text text-anchor="start" x="33.5" y="-782" font-family="Arial" font-size="10.00">doesIntersect()</text>
<text text-anchor="start" x="13.5" y="-767" font-family="Arial" font-size="10.00">+</text>
<text text-anchor="start" x="33.5" y="-767" font-family="Arial" font-size="10.00">isInside()</text>
<text text-anchor="start" x="13.5" y="-752" font-family="Arial" font-size="10.00">+</text>
<text text-anchor="start" x="33.5" y="-752" font-family="Arial" font-size="10.00">isOutside()</text>
<text text-anchor="start" x="13.5" y="-737" font-family="Arial" font-size="10.00">+</text>
<text text-anchor="start" x="33.5" y="-737" font-family="Arial" font-size="10.00">isNear()</text>
<text text-anchor="start" x="13.5" y="-722" font-family="Arial" font-size="10.00">+</text>
<text text-anchor="start" x="33.5" y="-722" font-family="Arial" font-size="10.00">doesIntersect()</text>
<text text-anchor="start" x="15" y="-707" font-family="Arial" font-size="10.00">*</text>
<text text-anchor="start" x="33.5" y="-707" font-family="Arial" font-size="10.00">isInside()</text>
<text text-anchor="start" x="15" y="-692" font-family="Arial" font-size="10.00">*</text>
<text text-anchor="start" x="33.5" y="-692" font-family="Arial" font-size="10.00">isOutside()</text>
<text text-anchor="start" x="15" y="-677" font-family="Arial" font-size="10.00">*</text>
<text text-anchor="start" x="33.5" y="-677" font-family="Arial" font-size="10.00">isNear()</text>
<text text-anchor="start" x="15" y="-662" font-family="Arial" font-size="10.00">*</text>
<text text-anchor="start" x="33.5" y="-662" font-family="Arial" font-size="10.00">isNearBoundary()</text>
<text text-anchor="start" x="15" y="-647" font-family="Arial" font-size="10.00">*</text>
<text text-anchor="start" x="33.5" y="-647" font-family="Arial" font-size="10.00">doesIntersect()</text>
<text text-anchor="start" x="15" y="-632" font-family="Arial" font-size="10.00">*</text>
<text text-anchor="start" x="33.5" y="-632" font-family="Arial" font-size="10.00">isInside()</text>
<text text-anchor="start" x="15" y="-617" font-family="Arial" font-size="10.00">*</text>
<text text-anchor="start" x="33.5" y="-617" font-family="Arial" font-size="10.00">isOutside()</text>
<text text-anchor="start" x="15" y="-602" font-family="Arial" font-size="10.00">*</text>
<text text-anchor="start" x="33.5" y="-602" font-family="Arial" font-size="10.00">isNear()</text>
<text text-anchor="start" x="15" y="-587" font-family="Arial" font-size="10.00">*</text>
<text text-anchor="start" x="33.5" y="-587" font-family="Arial" font-size="10.00">doesIntersect()</text>
<polygon fill="#666666" stroke="#666666" points="0.5,-1047 0.5,-1047 131.5,-1047 131.5,-1047 0.5,-1047"/>
<polygon fill="#666666" stroke="#666666" points="0.5,-1002 0.5,-1002 31.5,-1002 31.5,-1002 0.5,-1002"/>
<polygon fill="#666666" stroke="#666666" points="31.5,-1002 31.5,-1002 131.5,-1002 131.5,-1002 31.5,-1002"/>
<polygon fill="none" stroke="#666666" points="0,-580 0,-1064 131,-1064 131,-580 0,-580"/>
</a>
</g>
</g>
<!-- Node2&#45;&gt;Node1 -->
<g id="edge1_Node000001_Node000002" class="edge">
<title>Node2&#45;&gt;Node1</title>
<g id="a_edge1_Node000001_Node000002"><a xlink:title=" ">
<path fill="none" stroke="#63b8ff" d="M65.5,-569.61C65.5,-561.22 65.5,-552.79 65.5,-544.36"/>
<polygon fill="none" stroke="#63b8ff" points="62,-569.84 65.5,-579.84 69,-569.84 62,-569.84"/>
</a>
</g>
</g>
</g>
</svg>
