<?xml version="1.0" encoding="UTF-8" standalone="no"?>
<!DOCTYPE svg PUBLIC "-//W3C//DTD SVG 1.1//EN"
 "http://www.w3.org/Graphics/SVG/1.1/DTD/svg11.dtd">
<!-- Generated by graphviz version 2.43.0 (0)
 -->
<!-- Title: util::geometry::ComplexGeomObject::center Pages: 1 -->
<svg width="313pt" height="66pt"
 viewBox="0.00 0.00 313.00 66.00" xmlns="http://www.w3.org/2000/svg" xmlns:xlink="http://www.w3.org/1999/xlink">
<g id="graph0" class="graph" transform="scale(1 1) rotate(0) translate(4 62)">
<title>util::geometry::ComplexGeomObject::center</title>
<!-- Node1 -->
<g id="node1" class="node">
<title>Node1</title>
<g id="a_node1"><a xlink:title="Computes the center of object.">
<polygon fill="#bfbfbf" stroke="black" points="0,-14 0,-44 147,-44 147,-14 0,-14"/>
<text text-anchor="start" x="8" y="-32" font-family="Arial" font-size="10.00">util::geometry::ComplexGeom</text>
<text text-anchor="middle" x="73.5" y="-21" font-family="Arial" font-size="10.00">Object::center</text>
</a>
</g>
</g>
<!-- Node2 -->
<g id="node2" class="node">
<title>Node2</title>
<g id="a_node2"><a xlink:href="namespaceutil.html#a227b5f8acbd7a403a033663c8893d631" target="_top" xlink:title="Returns true if a &gt; b.">
<polygon fill="none" stroke="black" points="206.5,-38.5 206.5,-57.5 281.5,-57.5 281.5,-38.5 206.5,-38.5"/>
<text text-anchor="middle" x="244" y="-45.5" font-family="Arial" font-size="10.00">util::isGreater</text>
</a>
</g>
</g>
<!-- Node1&#45;&gt;Node2 -->
<g id="edge1" class="edge">
<title>Node1&#45;&gt;Node2</title>
<path fill="none" stroke="midnightblue" d="M147.43,-37.22C163.9,-39.08 180.97,-41.01 196.04,-42.7"/>
<polygon fill="midnightblue" stroke="midnightblue" points="195.79,-46.2 206.12,-43.84 196.58,-39.24 195.79,-46.2"/>
</g>
<!-- Node3 -->
<g id="node3" class="node">
<title>Node3</title>
<g id="a_node3"><a xlink:href="namespaceutil_1_1methods.html#afcbb8d0d56cac1187ad2945bd187f6cf" target="_top" xlink:title="Returns the index corresponding to maximum from list of data.">
<polygon fill="none" stroke="black" points="183,-0.5 183,-19.5 305,-19.5 305,-0.5 183,-0.5"/>
<text text-anchor="middle" x="244" y="-7.5" font-family="Arial" font-size="10.00">util::methods::maxIndex</text>
</a>
</g>
</g>
<!-- Node1&#45;&gt;Node3 -->
<g id="edge2" class="edge">
<title>Node1&#45;&gt;Node3</title>
<path fill="none" stroke="midnightblue" d="M147.43,-20.78C155.84,-19.83 164.4,-18.86 172.77,-17.92"/>
<polygon fill="midnightblue" stroke="midnightblue" points="173.32,-21.38 182.87,-16.78 172.54,-14.42 173.32,-21.38"/>
</g>
</g>
</svg>
