<?xml version="1.0" encoding="UTF-8" standalone="no"?>
<!DOCTYPE svg PUBLIC "-//W3C//DTD SVG 1.1//EN"
 "http://www.w3.org/Graphics/SVG/1.1/DTD/svg11.dtd">
<!-- Generated by graphviz version 2.43.0 (0)
 -->
<!-- Title: util::geometry::Triangle::print Pages: 1 -->
<svg width="513pt" height="52pt"
 viewBox="0.00 0.00 513.00 51.50" xmlns="http://www.w3.org/2000/svg" xmlns:xlink="http://www.w3.org/1999/xlink">
<g id="graph0" class="graph" transform="scale(1 1) rotate(0) translate(4 47.5)">
<title>util::geometry::Triangle::print</title>
<!-- Node1 -->
<g id="Node000001" class="node">
<title>Node1</title>
<g id="a_Node000001"><a xlink:title="Prints the information about the object.">
<polygon fill="#999999" stroke="#666666" points="116,-43.5 0,-43.5 0,-13.5 116,-13.5 116,-43.5"/>
<text text-anchor="start" x="8" y="-31.5" font-family="Arial" font-size="10.00">util::geometry::Triangle</text>
<text text-anchor="middle" x="58" y="-20.5" font-family="Arial" font-size="10.00">::print</text>
</a>
</g>
</g>
<!-- Node2 -->
<g id="Node000002" class="node">
<title>Node2</title>
<g id="a_Node000002"><a xlink:href="classutil_1_1geometry_1_1Triangle.html#aa7d73c74fe0d6bd6306c414f75d99f95" target="_top" xlink:title="Returns the string containing printable information about the object.">
<polygon fill="white" stroke="#666666" points="268,-43.5 152,-43.5 152,-13.5 268,-13.5 268,-43.5"/>
<text text-anchor="start" x="160" y="-31.5" font-family="Arial" font-size="10.00">util::geometry::Triangle</text>
<text text-anchor="middle" x="210" y="-20.5" font-family="Arial" font-size="10.00">::printStr</text>
</a>
</g>
</g>
<!-- Node1&#45;&gt;Node2 -->
<g id="edge1_Node000001_Node000002" class="edge">
<title>Node1&#45;&gt;Node2</title>
<g id="a_edge1_Node000001_Node000002"><a xlink:title=" ">
<path fill="none" stroke="#63b8ff" d="M116.14,-28.5C124.38,-28.5 132.92,-28.5 141.34,-28.5"/>
<polygon fill="#63b8ff" stroke="#63b8ff" points="141.53,-32 151.53,-28.5 141.53,-25 141.53,-32"/>
</a>
</g>
</g>
<!-- Node3 -->
<g id="Node000003" class="node">
<title>Node3</title>
<g id="a_Node000003"><a xlink:href="namespaceutil_1_1io.html#a38afb09a152cca4061850f4123bd3aeb" target="_top" xlink:title="Returns tab spaces of given size.">
<polygon fill="white" stroke="#666666" points="505,-38 420,-38 420,-19 505,-19 505,-38"/>
<text text-anchor="middle" x="462.5" y="-26" font-family="Arial" font-size="10.00">util::io::getTabS</text>
</a>
</g>
</g>
<!-- Node2&#45;&gt;Node3 -->
<g id="edge2_Node000002_Node000003" class="edge">
<title>Node2&#45;&gt;Node3</title>
<g id="a_edge2_Node000002_Node000003"><a xlink:title=" ">
<path fill="none" stroke="#63b8ff" d="M268.16,-28.5C310.75,-28.5 368.45,-28.5 409.7,-28.5"/>
<polygon fill="#63b8ff" stroke="#63b8ff" points="409.82,-32 419.82,-28.5 409.82,-25 409.82,-32"/>
</a>
</g>
</g>
<!-- Node4 -->
<g id="Node000004" class="node">
<title>Node4</title>
<g id="a_Node000004"><a xlink:href="namespaceutil_1_1io.html#a3e537e3bd778616255015cde6e60a30a" target="_top" xlink:title="Returns formatted string for output.">
<polygon fill="white" stroke="#666666" points="384,-19 304,-19 304,0 384,0 384,-19"/>
<text text-anchor="middle" x="344" y="-7" font-family="Arial" font-size="10.00">util::io::printStr</text>
</a>
</g>
</g>
<!-- Node2&#45;&gt;Node4 -->
<g id="edge3_Node000002_Node000004" class="edge">
<title>Node2&#45;&gt;Node4</title>
<g id="a_edge3_Node000002_Node000004"><a xlink:title=" ">
<path fill="none" stroke="#63b8ff" d="M268.13,-20.28C276.65,-19.05 285.37,-17.8 293.71,-16.59"/>
<polygon fill="#63b8ff" stroke="#63b8ff" points="294.26,-20.05 303.66,-15.16 293.26,-13.12 294.26,-20.05"/>
</a>
</g>
</g>
<!-- Node4&#45;&gt;Node3 -->
<g id="edge4_Node000004_Node000003" class="edge">
<title>Node4&#45;&gt;Node3</title>
<g id="a_edge4_Node000004_Node000003"><a xlink:title=" ">
<path fill="none" stroke="#63b8ff" d="M384.12,-15.88C392.38,-17.23 401.23,-18.67 409.88,-20.08"/>
<polygon fill="#63b8ff" stroke="#63b8ff" points="409.46,-23.56 419.89,-21.71 410.59,-16.65 409.46,-23.56"/>
</a>
</g>
</g>
</g>
</svg>
