<?xml version="1.0" encoding="UTF-8" standalone="no"?>
<!DOCTYPE svg PUBLIC "-//W3C//DTD SVG 1.1//EN"
 "http://www.w3.org/Graphics/SVG/1.1/DTD/svg11.dtd">
<!-- Generated by graphviz version 2.43.0 (0)
 -->
<!-- Title: util::geometry::Drum2D::isNear Pages: 1 -->
<svg width="570pt" height="204pt"
 viewBox="0.00 0.00 570.00 203.55" xmlns="http://www.w3.org/2000/svg" xmlns:xlink="http://www.w3.org/1999/xlink">
<g id="graph0" class="graph" transform="scale(1 1) rotate(0) translate(4 199.55)">
<title>util::geometry::Drum2D::isNear</title>
<!-- Node1 -->
<g id="node1" class="node">
<title>Node1</title>
<g id="a_node1"><a xlink:title=" ">
<polygon fill="#bfbfbf" stroke="black" points="0,-76.66 0,-106.66 119,-106.66 119,-76.66 0,-76.66"/>
<text text-anchor="start" x="8" y="-94.66" font-family="Arial" font-size="10.00">util::geometry::Drum2D</text>
<text text-anchor="middle" x="59.5" y="-83.66" font-family="Arial" font-size="10.00">::isNear</text>
</a>
</g>
</g>
<!-- Node2 -->
<g id="node2" class="node">
<title>Node2</title>
<g id="a_node2"><a xlink:href="namespaceutil.html#a21a4c0c512c91e3de03f432d304dd4bd" target="_top" xlink:title="Checks if given two boxes are within given distance from each other.">
<polygon fill="none" stroke="black" points="155,-82.16 155,-101.16 253,-101.16 253,-82.16 155,-82.16"/>
<text text-anchor="middle" x="204" y="-89.16" font-family="Arial" font-size="10.00">util::areBoxesNear</text>
</a>
</g>
</g>
<!-- Node1&#45;&gt;Node2 -->
<g id="edge1" class="edge">
<title>Node1&#45;&gt;Node2</title>
<path fill="none" stroke="midnightblue" d="M119.28,-91.66C127.68,-91.66 136.31,-91.66 144.69,-91.66"/>
<polygon fill="midnightblue" stroke="midnightblue" points="144.77,-95.16 154.77,-91.66 144.77,-88.16 144.77,-95.16"/>
</g>
<!-- Node3 -->
<g id="node3" class="node">
<title>Node3</title>
<g id="a_node3"><a xlink:href="namespaceutil.html#af6ab7e8072282977994d4c13e470dfc7" target="_top" xlink:title="Computes the radius of smallest circle/sphere which can have the box inside.">
<polygon fill="none" stroke="black" points="291,-139.66 291,-169.66 418,-169.66 418,-139.66 291,-139.66"/>
<text text-anchor="start" x="299" y="-157.66" font-family="Arial" font-size="10.00">util::circumscribedRadius</text>
<text text-anchor="middle" x="354.5" y="-146.66" font-family="Arial" font-size="10.00">InBox</text>
</a>
</g>
</g>
<!-- Node2&#45;&gt;Node3 -->
<g id="edge2" class="edge">
<title>Node2&#45;&gt;Node3</title>
<path fill="none" stroke="midnightblue" d="M227.55,-101.23C248.94,-110.31 281.7,-124.2 308.44,-135.55"/>
<polygon fill="midnightblue" stroke="midnightblue" points="307.42,-138.91 317.99,-139.6 310.15,-132.47 307.42,-138.91"/>
</g>
<!-- Node4 -->
<g id="node4" class="node">
<title>Node4</title>
<g id="a_node4"><a xlink:href="namespaceutil.html#a9a73e26a05894da76d4d0a922272b7cc" target="_top" xlink:title="Returns center point.">
<polygon fill="none" stroke="black" points="470,-165.16 470,-184.16 548,-184.16 548,-165.16 470,-165.16"/>
<text text-anchor="middle" x="509" y="-172.16" font-family="Arial" font-size="10.00">util::getCenter</text>
</a>
</g>
</g>
<!-- Node2&#45;&gt;Node4 -->
<g id="edge6" class="edge">
<title>Node2&#45;&gt;Node4</title>
<path fill="none" stroke="midnightblue" d="M210.41,-101.21C221.92,-120.44 250.94,-163.38 289,-179.66 344.91,-203.59 416.42,-195.67 462.23,-186.36"/>
<polygon fill="midnightblue" stroke="midnightblue" points="463.11,-189.75 472.16,-184.24 461.65,-182.9 463.11,-189.75"/>
</g>
<!-- Node5 -->
<g id="node5" class="node">
<title>Node5</title>
<g id="a_node5"><a xlink:href="namespaceutil.html#a5a54fd6f6720dd75956e3ce06b814ad6" target="_top" xlink:title="Returns all corner points in the box.">
<polygon fill="none" stroke="black" points="456,-124.16 456,-143.16 562,-143.16 562,-124.16 456,-124.16"/>
<text text-anchor="middle" x="509" y="-131.16" font-family="Arial" font-size="10.00">util::getCornerPoints</text>
</a>
</g>
</g>
<!-- Node2&#45;&gt;Node5 -->
<g id="edge7" class="edge">
<title>Node2&#45;&gt;Node5</title>
<path fill="none" stroke="midnightblue" d="M253.01,-98.32C305.2,-105.55 388.76,-117.13 445.9,-125.06"/>
<polygon fill="midnightblue" stroke="midnightblue" points="445.51,-128.53 455.9,-126.44 446.47,-121.6 445.51,-128.53"/>
</g>
<!-- Node7 -->
<g id="node7" class="node">
<title>Node7</title>
<g id="a_node7"><a xlink:href="namespaceutil.html#aa5b234685d92d1a0f48600c3a3708bfd" target="_top" xlink:title="Computes the radius of biggest circle/sphere completely within the object.">
<polygon fill="none" stroke="black" points="289,-63.16 289,-82.16 420,-82.16 420,-63.16 289,-63.16"/>
<text text-anchor="middle" x="354.5" y="-70.16" font-family="Arial" font-size="10.00">util::inscribedRadiusInBox</text>
</a>
</g>
</g>
<!-- Node2&#45;&gt;Node7 -->
<g id="edge8" class="edge">
<title>Node2&#45;&gt;Node7</title>
<path fill="none" stroke="midnightblue" d="M253.21,-85.49C261.37,-84.45 270.01,-83.35 278.65,-82.24"/>
<polygon fill="midnightblue" stroke="midnightblue" points="279.31,-85.68 288.78,-80.94 278.42,-78.74 279.31,-85.68"/>
</g>
<!-- Node8 -->
<g id="node8" class="node">
<title>Node8</title>
<g id="a_node8"><a xlink:href="namespaceutil.html#a868a26599b6b844d08d30063ac898319" target="_top" xlink:title="Returns true if a &lt; b.">
<polygon fill="none" stroke="black" points="477,-6.16 477,-25.16 541,-25.16 541,-6.16 477,-6.16"/>
<text text-anchor="middle" x="509" y="-13.16" font-family="Arial" font-size="10.00">util::isLess</text>
</a>
</g>
</g>
<!-- Node2&#45;&gt;Node8 -->
<g id="edge10" class="edge">
<title>Node2&#45;&gt;Node8</title>
<path fill="none" stroke="midnightblue" d="M211.72,-82.06C224.44,-64.83 253.95,-29.17 289,-15.66 347.59,6.91 421.72,0.36 466.96,-7.13"/>
<polygon fill="midnightblue" stroke="midnightblue" points="466.53,-10.61 476.99,-8.89 467.74,-3.72 466.53,-10.61"/>
</g>
<!-- Node9 -->
<g id="node9" class="node">
<title>Node9</title>
<g id="a_node9"><a xlink:href="namespaceutil.html#a09ac00ed5485b655c317c2fe46b1d740" target="_top" xlink:title="Returns true if point is inside box.">
<polygon fill="none" stroke="black" points="300,-25.16 300,-44.16 409,-44.16 409,-25.16 300,-25.16"/>
<text text-anchor="middle" x="354.5" y="-32.16" font-family="Arial" font-size="10.00">util::isPointInsideBox</text>
</a>
</g>
</g>
<!-- Node2&#45;&gt;Node9 -->
<g id="edge11" class="edge">
<title>Node2&#45;&gt;Node9</title>
<path fill="none" stroke="midnightblue" d="M224.03,-82.14C240.86,-73.94 266.19,-62.13 289,-53.66 295.03,-51.42 301.46,-49.27 307.83,-47.26"/>
<polygon fill="midnightblue" stroke="midnightblue" points="309.18,-50.51 317.72,-44.24 307.14,-43.81 309.18,-50.51"/>
</g>
<!-- Node3&#45;&gt;Node4 -->
<g id="edge3" class="edge">
<title>Node3&#45;&gt;Node4</title>
<path fill="none" stroke="midnightblue" d="M418.41,-162.91C432.13,-164.71 446.45,-166.59 459.51,-168.3"/>
<polygon fill="midnightblue" stroke="midnightblue" points="459.31,-171.81 469.68,-169.64 460.22,-164.87 459.31,-171.81"/>
</g>
<!-- Node3&#45;&gt;Node5 -->
<g id="edge4" class="edge">
<title>Node3&#45;&gt;Node5</title>
<path fill="none" stroke="midnightblue" d="M418.41,-146C427.47,-144.75 436.79,-143.47 445.84,-142.22"/>
<polygon fill="midnightblue" stroke="midnightblue" points="446.48,-145.67 455.9,-140.84 445.52,-138.73 446.48,-145.67"/>
</g>
<!-- Node6 -->
<g id="node6" class="node">
<title>Node6</title>
<g id="a_node6"><a xlink:href="namespaceutil.html#a227b5f8acbd7a403a033663c8893d631" target="_top" xlink:title="Returns true if a &gt; b.">
<polygon fill="none" stroke="black" points="471.5,-63.16 471.5,-82.16 546.5,-82.16 546.5,-63.16 471.5,-63.16"/>
<text text-anchor="middle" x="509" y="-70.16" font-family="Arial" font-size="10.00">util::isGreater</text>
</a>
</g>
</g>
<!-- Node3&#45;&gt;Node6 -->
<g id="edge5" class="edge">
<title>Node3&#45;&gt;Node6</title>
<path fill="none" stroke="midnightblue" d="M383.47,-139.62C411.32,-124.65 453.75,-101.83 481.18,-87.08"/>
<polygon fill="midnightblue" stroke="midnightblue" points="483.06,-90.05 490.21,-82.23 479.75,-83.88 483.06,-90.05"/>
</g>
<!-- Node7&#45;&gt;Node6 -->
<g id="edge9" class="edge">
<title>Node7&#45;&gt;Node6</title>
<path fill="none" stroke="midnightblue" d="M420.17,-72.66C434.01,-72.66 448.37,-72.66 461.36,-72.66"/>
<polygon fill="midnightblue" stroke="midnightblue" points="461.46,-76.16 471.46,-72.66 461.46,-69.16 461.46,-76.16"/>
</g>
<!-- Node9&#45;&gt;Node6 -->
<g id="edge12" class="edge">
<title>Node9&#45;&gt;Node6</title>
<path fill="none" stroke="midnightblue" d="M393.98,-44.25C414.47,-49.36 439.83,-55.68 461.43,-61.06"/>
<polygon fill="midnightblue" stroke="midnightblue" points="460.82,-64.51 471.37,-63.54 462.51,-57.72 460.82,-64.51"/>
</g>
<!-- Node9&#45;&gt;Node8 -->
<g id="edge13" class="edge">
<title>Node9&#45;&gt;Node8</title>
<path fill="none" stroke="midnightblue" d="M409.27,-27.96C428.19,-25.61 449.14,-23 466.86,-20.79"/>
<polygon fill="midnightblue" stroke="midnightblue" points="467.39,-24.25 476.88,-19.54 466.52,-17.3 467.39,-24.25"/>
</g>
</g>
</svg>
