<?xml version="1.0" encoding="UTF-8" standalone="no"?>
<!DOCTYPE svg PUBLIC "-//W3C//DTD SVG 1.1//EN"
 "http://www.w3.org/Graphics/SVG/1.1/DTD/svg11.dtd">
<!-- Generated by graphviz version 2.43.0 (0)
 -->
<!-- Title: fe::TriElem::mapPointToRefElem Pages: 1 -->
<svg width="280pt" height="64pt"
 viewBox="0.00 0.00 280.00 64.00" xmlns="http://www.w3.org/2000/svg" xmlns:xlink="http://www.w3.org/1999/xlink">
<g id="graph0" class="graph" transform="scale(1 1) rotate(0) translate(4 60)">
<title>fe::TriElem::mapPointToRefElem</title>
<!-- Node1 -->
<g id="Node000001" class="node">
<title>Node1</title>
<g id="a_Node000001"><a xlink:title="Maps point p in a given element to the reference element.">
<polygon fill="#999999" stroke="#666666" points="161,-37 0,-37 0,-18 161,-18 161,-37"/>
<text text-anchor="middle" x="80.5" y="-25" font-family="Arial" font-size="10.00">fe::TriElem::mapPointToRefElem</text>
</a>
</g>
</g>
<!-- Node2 -->
<g id="Node000002" class="node">
<title>Node2</title>
<g id="a_Node000002"><a xlink:href="namespaceutil.html#a227b5f8acbd7a403a033663c8893d631" target="_top" xlink:title="Returns true if a &gt; b.">
<polygon fill="white" stroke="#666666" points="272,-56 197,-56 197,-37 272,-37 272,-56"/>
<text text-anchor="middle" x="234.5" y="-44" font-family="Arial" font-size="10.00">util::isGreater</text>
</a>
</g>
</g>
<!-- Node1&#45;&gt;Node2 -->
<g id="edge1_Node000001_Node000002" class="edge">
<title>Node1&#45;&gt;Node2</title>
<g id="a_edge1_Node000001_Node000002"><a xlink:title=" ">
<path fill="none" stroke="#63b8ff" d="M157.95,-37.06C167.83,-38.29 177.7,-39.53 186.9,-40.67"/>
<polygon fill="#63b8ff" stroke="#63b8ff" points="186.6,-44.16 196.95,-41.93 187.46,-37.22 186.6,-44.16"/>
</a>
</g>
</g>
<!-- Node3 -->
<g id="Node000003" class="node">
<title>Node3</title>
<g id="a_Node000003"><a xlink:href="namespaceutil.html#a868a26599b6b844d08d30063ac898319" target="_top" xlink:title="Returns true if a &lt; b.">
<polygon fill="white" stroke="#666666" points="266.5,-19 202.5,-19 202.5,0 266.5,0 266.5,-19"/>
<text text-anchor="middle" x="234.5" y="-7" font-family="Arial" font-size="10.00">util::isLess</text>
</a>
</g>
</g>
<!-- Node1&#45;&gt;Node3 -->
<g id="edge2_Node000001_Node000003" class="edge">
<title>Node1&#45;&gt;Node3</title>
<g id="a_edge2_Node000001_Node000003"><a xlink:title=" ">
<path fill="none" stroke="#63b8ff" d="M161.06,-18.08C171.82,-16.8 182.49,-15.54 192.19,-14.39"/>
<polygon fill="#63b8ff" stroke="#63b8ff" points="192.79,-17.85 202.3,-13.19 191.96,-10.89 192.79,-17.85"/>
</a>
</g>
</g>
</g>
</svg>
