<?xml version="1.0" encoding="UTF-8" standalone="no"?>
<!DOCTYPE svg PUBLIC "-//W3C//DTD SVG 1.1//EN"
 "http://www.w3.org/Graphics/SVG/1.1/DTD/svg11.dtd">
<!-- Generated by graphviz version 2.43.0 (0)
 -->
<!-- Title: particle::RefParticle::RefParticle Pages: 1 -->
<svg width="271pt" height="142pt"
 viewBox="0.00 0.00 271.00 142.00" xmlns="http://www.w3.org/2000/svg" xmlns:xlink="http://www.w3.org/1999/xlink">
<g id="graph0" class="graph" transform="scale(1 1) rotate(0) translate(4 138)">
<title>particle::RefParticle::RefParticle</title>
<!-- Node1 -->
<g id="node1" class="node">
<title>Node1</title>
<g id="a_node1"><a xlink:title="Constructor.">
<polygon fill="#bfbfbf" stroke="black" points="0,-52 0,-82 103,-82 103,-52 0,-52"/>
<text text-anchor="start" x="8" y="-70" font-family="Arial" font-size="10.00">particle::RefParticle</text>
<text text-anchor="middle" x="51.5" y="-59" font-family="Arial" font-size="10.00">::RefParticle</text>
</a>
</g>
</g>
<!-- Node2 -->
<g id="node2" class="node">
<title>Node2</title>
<g id="a_node2"><a xlink:href="classfe_1_1Mesh.html#a5929bc5d7b95e8e9eb4af63209f3ff10" target="_top" xlink:title="Get coordinates of node i.">
<polygon fill="none" stroke="black" points="152,-114.5 152,-133.5 250,-133.5 250,-114.5 152,-114.5"/>
<text text-anchor="middle" x="201" y="-121.5" font-family="Arial" font-size="10.00">fe::Mesh::getNode</text>
</a>
</g>
</g>
<!-- Node1&#45;&gt;Node2 -->
<g id="edge1" class="edge">
<title>Node1&#45;&gt;Node2</title>
<path fill="none" stroke="midnightblue" d="M84.6,-82.13C100.74,-89.47 120.72,-98.16 139,-105 144.86,-107.19 151.11,-109.34 157.28,-111.36"/>
<polygon fill="midnightblue" stroke="midnightblue" points="156.26,-114.71 166.85,-114.41 158.38,-108.04 156.26,-114.71"/>
</g>
<!-- Node3 -->
<g id="node3" class="node">
<title>Node3</title>
<g id="a_node3"><a xlink:href="classfe_1_1Mesh.html#aac3df3472139b865eda7406c1d1c3d77" target="_top" xlink:title="Get the number of nodes.">
<polygon fill="none" stroke="black" points="139,-76.5 139,-95.5 263,-95.5 263,-76.5 139,-76.5"/>
<text text-anchor="middle" x="201" y="-83.5" font-family="Arial" font-size="10.00">fe::Mesh::getNumNodes</text>
</a>
</g>
</g>
<!-- Node1&#45;&gt;Node3 -->
<g id="edge2" class="edge">
<title>Node1&#45;&gt;Node3</title>
<path fill="none" stroke="midnightblue" d="M103.26,-73.54C111.53,-74.6 120.22,-75.72 128.87,-76.84"/>
<polygon fill="midnightblue" stroke="midnightblue" points="128.6,-80.33 138.96,-78.14 129.49,-73.39 128.6,-80.33"/>
</g>
<!-- Node4 -->
<g id="node4" class="node">
<title>Node4</title>
<g id="a_node4"><a xlink:href="namespaceutil.html#a868a26599b6b844d08d30063ac898319" target="_top" xlink:title="Returns true if a &lt; b.">
<polygon fill="none" stroke="black" points="169,-38.5 169,-57.5 233,-57.5 233,-38.5 169,-38.5"/>
<text text-anchor="middle" x="201" y="-45.5" font-family="Arial" font-size="10.00">util::isLess</text>
</a>
</g>
</g>
<!-- Node1&#45;&gt;Node4 -->
<g id="edge3" class="edge">
<title>Node1&#45;&gt;Node4</title>
<path fill="none" stroke="midnightblue" d="M103.26,-60.46C121.34,-58.13 141.47,-55.54 158.66,-53.32"/>
<polygon fill="midnightblue" stroke="midnightblue" points="159.48,-56.75 168.95,-52 158.58,-49.81 159.48,-56.75"/>
</g>
<!-- Node5 -->
<g id="node5" class="node">
<title>Node5</title>
<g id="a_node5"><a xlink:href="structutil_1_1Point.html#a7e6ec50072f4ff4d6461412cdc531b65" target="_top" xlink:title="Computes the Euclidean length of the vector.">
<polygon fill="none" stroke="black" points="156,-0.5 156,-19.5 246,-19.5 246,-0.5 156,-0.5"/>
<text text-anchor="middle" x="201" y="-7.5" font-family="Arial" font-size="10.00">util::Point::length</text>
</a>
</g>
</g>
<!-- Node1&#45;&gt;Node5 -->
<g id="edge4" class="edge">
<title>Node1&#45;&gt;Node5</title>
<path fill="none" stroke="midnightblue" d="M84.6,-51.87C100.74,-44.53 120.72,-35.84 139,-29 144.86,-26.81 151.11,-24.66 157.28,-22.64"/>
<polygon fill="midnightblue" stroke="midnightblue" points="158.38,-25.96 166.85,-19.59 156.26,-19.29 158.38,-25.96"/>
</g>
</g>
</svg>
