<?xml version="1.0" encoding="UTF-8" standalone="no"?>
<!DOCTYPE svg PUBLIC "-//W3C//DTD SVG 1.1//EN"
 "http://www.w3.org/Graphics/SVG/1.1/DTD/svg11.dtd">
<!-- Generated by graphviz version 2.43.0 (0)
 -->
<!-- Title: util::geometry::Cube::printStr Pages: 1 -->
<svg width="368pt" height="77pt"
 viewBox="0.00 0.00 368.00 77.27" xmlns="http://www.w3.org/2000/svg" xmlns:xlink="http://www.w3.org/1999/xlink">
<g id="graph0" class="graph" transform="scale(1 1) rotate(0) translate(4 73.27)">
<title>util::geometry::Cube::printStr</title>
<!-- Node1 -->
<g id="Node000001" class="node">
<title>Node1</title>
<g id="a_Node000001"><a xlink:title="Returns the string containing printable information about the object.">
<polygon fill="#999999" stroke="#666666" points="105,-61.5 0,-61.5 0,-31.5 105,-31.5 105,-61.5"/>
<text text-anchor="start" x="8" y="-49.5" font-family="Arial" font-size="10.00">util::geometry::Cube</text>
<text text-anchor="middle" x="52.5" y="-38.5" font-family="Arial" font-size="10.00">::printStr</text>
</a>
</g>
</g>
<!-- Node2 -->
<g id="Node000002" class="node">
<title>Node2</title>
<g id="a_Node000002"><a xlink:href="namespaceutil_1_1io.html#a38afb09a152cca4061850f4123bd3aeb" target="_top" xlink:title="Returns tab spaces of given size.">
<polygon fill="white" stroke="#666666" points="360,-56 275,-56 275,-37 360,-37 360,-56"/>
<text text-anchor="middle" x="317.5" y="-44" font-family="Arial" font-size="10.00">util::io::getTabS</text>
</a>
</g>
</g>
<!-- Node1&#45;&gt;Node2 -->
<g id="edge1_Node000001_Node000002" class="edge">
<title>Node1&#45;&gt;Node2</title>
<g id="a_edge1_Node000001_Node000002"><a xlink:title=" ">
<path fill="none" stroke="#63b8ff" d="M105.02,-59.6C116.77,-62.05 129.25,-64.24 141,-65.5 184.31,-70.15 195.76,-70.72 239,-65.5 250.91,-64.06 263.64,-61.42 275.26,-58.56"/>
<polygon fill="#63b8ff" stroke="#63b8ff" points="276.34,-61.89 285.14,-56.01 274.59,-55.12 276.34,-61.89"/>
</a>
</g>
</g>
<!-- Node3 -->
<g id="Node000003" class="node">
<title>Node3</title>
<g id="a_Node000003"><a xlink:href="namespaceutil_1_1io.html#a2b2ea15e35fb349760ca1f0b521e7269" target="_top" xlink:title="Returns formatted string for output.">
<polygon fill="white" stroke="#666666" points="239,-56 141,-56 141,-37 239,-37 239,-56"/>
<text text-anchor="middle" x="190" y="-44" font-family="Arial" font-size="10.00">util::io::printBoxStr</text>
</a>
</g>
</g>
<!-- Node1&#45;&gt;Node3 -->
<g id="edge2_Node000001_Node000003" class="edge">
<title>Node1&#45;&gt;Node3</title>
<g id="a_edge2_Node000001_Node000003"><a xlink:title=" ">
<path fill="none" stroke="#63b8ff" d="M105.11,-46.5C113.41,-46.5 122.05,-46.5 130.49,-46.5"/>
<polygon fill="#63b8ff" stroke="#63b8ff" points="130.65,-50 140.65,-46.5 130.65,-43 130.65,-50"/>
</a>
</g>
</g>
<!-- Node4 -->
<g id="Node000004" class="node">
<title>Node4</title>
<g id="a_Node000004"><a xlink:href="namespaceutil_1_1io.html#a3e537e3bd778616255015cde6e60a30a" target="_top" xlink:title="Returns formatted string for output.">
<polygon fill="white" stroke="#666666" points="230,-19 150,-19 150,0 230,0 230,-19"/>
<text text-anchor="middle" x="190" y="-7" font-family="Arial" font-size="10.00">util::io::printStr</text>
</a>
</g>
</g>
<!-- Node1&#45;&gt;Node4 -->
<g id="edge4_Node000001_Node000004" class="edge">
<title>Node1&#45;&gt;Node4</title>
<g id="a_edge4_Node000001_Node000004"><a xlink:title=" ">
<path fill="none" stroke="#63b8ff" d="M105.11,-32.41C117.98,-28.89 131.67,-25.16 144.17,-21.74"/>
<polygon fill="#63b8ff" stroke="#63b8ff" points="145.19,-25.09 153.91,-19.08 143.35,-18.34 145.19,-25.09"/>
</a>
</g>
</g>
<!-- Node3&#45;&gt;Node2 -->
<g id="edge3_Node000003_Node000002" class="edge">
<title>Node3&#45;&gt;Node2</title>
<g id="a_edge3_Node000003_Node000002"><a xlink:title=" ">
<path fill="none" stroke="#63b8ff" d="M239.16,-46.5C247.52,-46.5 256.24,-46.5 264.68,-46.5"/>
<polygon fill="#63b8ff" stroke="#63b8ff" points="264.81,-50 274.81,-46.5 264.81,-43 264.81,-50"/>
</a>
</g>
</g>
<!-- Node4&#45;&gt;Node2 -->
<g id="edge5_Node000004_Node000002" class="edge">
<title>Node4&#45;&gt;Node2</title>
<g id="a_edge5_Node000004_Node000002"><a xlink:title=" ">
<path fill="none" stroke="#63b8ff" d="M223.32,-19.03C238.72,-23.57 257.34,-29.06 273.87,-33.93"/>
<polygon fill="#63b8ff" stroke="#63b8ff" points="273.27,-37.4 283.85,-36.88 275.25,-30.69 273.27,-37.4"/>
</a>
</g>
</g>
</g>
</svg>
