<?xml version="1.0" encoding="UTF-8" standalone="no"?>
<!DOCTYPE svg PUBLIC "-//W3C//DTD SVG 1.1//EN"
 "http://www.w3.org/Graphics/SVG/1.1/DTD/svg11.dtd">
<!-- Generated by graphviz version 2.43.0 (0)
 -->
<!-- Title: fe::BaseElem::getQuadDatas Pages: 1 -->
<svg width="1041pt" height="138pt"
 viewBox="0.00 0.00 1041.00 138.00" xmlns="http://www.w3.org/2000/svg" xmlns:xlink="http://www.w3.org/1999/xlink">
<g id="graph0" class="graph" transform="scale(1 1) rotate(0) translate(4 134)">
<title>fe::BaseElem::getQuadDatas</title>
<!-- Node1 -->
<g id="Node000001" class="node">
<title>Node1</title>
<g id="a_Node000001"><a xlink:title="Get vector of quadrature data.">
<polygon fill="#999999" stroke="#666666" points="1033,-74 888,-74 888,-55 1033,-55 1033,-74"/>
<text text-anchor="middle" x="960.5" y="-62" font-family="Arial" font-size="10.00">fe::BaseElem::getQuadDatas</text>
</a>
</g>
</g>
<!-- Node2 -->
<g id="Node000002" class="node">
<title>Node2</title>
<g id="a_Node000002"><a xlink:href="classfe_1_1Mesh.html#ad8e7d706e7378a729c22842bfbf6af3b" target="_top" xlink:title="Compute the nodal volume.">
<polygon fill="white" stroke="#666666" points="833,-130 721,-130 721,-111 833,-111 833,-130"/>
<text text-anchor="middle" x="777" y="-118" font-family="Arial" font-size="10.00">fe::Mesh::computeVol</text>
</a>
</g>
</g>
<!-- Node1&#45;&gt;Node2 -->
<g id="edge1_Node000001_Node000002" class="edge">
<title>Node1&#45;&gt;Node2</title>
<g id="a_edge1_Node000001_Node000002"><a xlink:title=" ">
<path fill="none" stroke="#63b8ff" d="M925.11,-77.66C904.15,-85.42 876.73,-95.14 852,-102.5 841.86,-105.52 830.83,-108.41 820.46,-110.95"/>
<polygon fill="#63b8ff" stroke="#63b8ff" points="926.4,-80.91 934.54,-74.13 923.95,-74.35 926.4,-80.91"/>
</a>
</g>
</g>
<!-- Node3 -->
<g id="Node000003" class="node">
<title>Node3</title>
<g id="a_Node000003"><a xlink:href="namespacefe.html#aeecd141ec0e6723bdddd740903cb95f8" target="_top" xlink:title="Get current location of quadrature points of elements in the mesh. This function expects mesh has ele...">
<polygon fill="white" stroke="#666666" points="841,-93 713,-93 713,-74 841,-74 841,-93"/>
<text text-anchor="middle" x="777" y="-81" font-family="Arial" font-size="10.00">fe::getCurrentQuadPoints</text>
</a>
</g>
</g>
<!-- Node1&#45;&gt;Node3 -->
<g id="edge2_Node000001_Node000003" class="edge">
<title>Node1&#45;&gt;Node3</title>
<g id="a_edge2_Node000001_Node000003"><a xlink:title=" ">
<path fill="none" stroke="#63b8ff" d="M877.6,-73.07C865.41,-74.35 853,-75.65 841.28,-76.88"/>
<polygon fill="#63b8ff" stroke="#63b8ff" points="878.19,-76.53 887.77,-72.01 877.46,-69.57 878.19,-76.53"/>
</a>
</g>
</g>
<!-- Node10 -->
<g id="Node000010" class="node">
<title>Node10</title>
<g id="a_Node000010"><a xlink:href="namespacefe.html#a09527ce4f52ec0da5f9cf970ac08f542" target="_top" xlink:title="Get location where maximum of specified component of stress occurs in this particle.">
<polygon fill="white" stroke="#666666" points="852,-19 702,-19 702,0 852,0 852,-19"/>
<text text-anchor="middle" x="777" y="-7" font-family="Arial" font-size="10.00">fe::getMaxShearStressAndLoc</text>
</a>
</g>
</g>
<!-- Node1&#45;&gt;Node10 -->
<g id="edge9_Node000001_Node000010" class="edge">
<title>Node1&#45;&gt;Node10</title>
<g id="a_edge9_Node000001_Node000010"><a xlink:title=" ">
<path fill="none" stroke="#63b8ff" d="M924.24,-51.44C903.38,-43.95 876.36,-34.64 852,-27.5 841.72,-24.49 830.54,-21.58 820.05,-19.01"/>
<polygon fill="#63b8ff" stroke="#63b8ff" points="923.06,-54.73 933.65,-54.85 925.44,-48.15 923.06,-54.73"/>
</a>
</g>
</g>
<!-- Node11 -->
<g id="Node000011" class="node">
<title>Node11</title>
<g id="a_Node000011"><a xlink:href="namespacefe.html#a7beb694686b61d7cda5b67aa4bc01104" target="_top" xlink:title="Strain and stress at quadrature points in the mesh.">
<polygon fill="white" stroke="#666666" points="826,-56 728,-56 728,-37 826,-37 826,-56"/>
<text text-anchor="middle" x="777" y="-44" font-family="Arial" font-size="10.00">fe::getStrainStress</text>
</a>
</g>
</g>
<!-- Node1&#45;&gt;Node11 -->
<g id="edge11_Node000001_Node000011" class="edge">
<title>Node1&#45;&gt;Node11</title>
<g id="a_edge11_Node000001_Node000011"><a xlink:title=" ">
<path fill="none" stroke="#63b8ff" d="M877.48,-56.37C859.89,-54.62 841.86,-52.83 826.07,-51.27"/>
<polygon fill="#63b8ff" stroke="#63b8ff" points="877.47,-59.88 887.77,-57.39 878.16,-52.92 877.47,-59.88"/>
</a>
</g>
</g>
<!-- Node4 -->
<g id="Node000004" class="node">
<title>Node4</title>
<g id="a_Node000004"><a xlink:href="classmodel_1_1DEMModel.html#a3652826a385051497907774640ed2044" target="_top" xlink:title="Output the snapshot of data at current time step.">
<polygon fill="white" stroke="#666666" points="650,-93 519,-93 519,-74 650,-74 650,-93"/>
<text text-anchor="middle" x="584.5" y="-81" font-family="Arial" font-size="10.00">model::DEMModel::output</text>
</a>
</g>
</g>
<!-- Node3&#45;&gt;Node4 -->
<g id="edge3_Node000003_Node000004" class="edge">
<title>Node3&#45;&gt;Node4</title>
<g id="a_edge3_Node000003_Node000004"><a xlink:title=" ">
<path fill="none" stroke="#63b8ff" d="M702.76,-83.5C685.42,-83.5 667.05,-83.5 650.13,-83.5"/>
<polygon fill="#63b8ff" stroke="#63b8ff" points="702.83,-87 712.83,-83.5 702.83,-80 702.83,-87"/>
</a>
</g>
</g>
<!-- Node8 -->
<g id="Node000008" class="node">
<title>Node8</title>
<g id="a_Node000008"><a xlink:href="classtwoparticle__demo_1_1Model.html#ab8c38cc78c0c17a86f17dd6b477ecde0" target="_top" xlink:title="Computes maximum shear stress and its location in particle.">
<polygon fill="white" stroke="#666666" points="666,-55.5 503,-55.5 503,-25.5 666,-25.5 666,-55.5"/>
<text text-anchor="start" x="511" y="-43.5" font-family="Arial" font-size="10.00">twoparticle_demo::Model</text>
<text text-anchor="middle" x="584.5" y="-32.5" font-family="Arial" font-size="10.00">::twoParticleTestMaxShearStress</text>
</a>
</g>
</g>
<!-- Node3&#45;&gt;Node8 -->
<g id="edge6_Node000003_Node000008" class="edge">
<title>Node3&#45;&gt;Node8</title>
<g id="a_edge6_Node000003_Node000008"><a xlink:title=" ">
<path fill="none" stroke="#63b8ff" d="M723.83,-71.72C701.65,-66.72 675.52,-60.82 651.98,-55.51"/>
<polygon fill="#63b8ff" stroke="#63b8ff" points="723.2,-75.17 733.72,-73.96 724.74,-68.34 723.2,-75.17"/>
</a>
</g>
</g>
<!-- Node5 -->
<g id="Node000005" class="node">
<title>Node5</title>
<g id="a_Node000005"><a xlink:href="classtwoparticle__demo_1_1Model.html#a4edd5f54de8ea3e6e35391b134c642be" target="_top" xlink:title="Perform time step integration.">
<polygon fill="white" stroke="#666666" points="306,-76.5 181,-76.5 181,-46.5 306,-46.5 306,-76.5"/>
<text text-anchor="start" x="189" y="-64.5" font-family="Arial" font-size="10.00">twoparticle_demo::Model</text>
<text text-anchor="middle" x="243.5" y="-53.5" font-family="Arial" font-size="10.00">::integrate</text>
</a>
</g>
</g>
<!-- Node4&#45;&gt;Node5 -->
<g id="edge4_Node000004_Node000005" class="edge">
<title>Node4&#45;&gt;Node5</title>
<g id="a_edge4_Node000004_Node000005"><a xlink:title=" ">
<path fill="none" stroke="#63b8ff" d="M508.64,-78.64C447.86,-74.7 363.2,-69.2 306.25,-65.51"/>
<polygon fill="#63b8ff" stroke="#63b8ff" points="508.73,-82.16 518.94,-79.31 509.19,-75.17 508.73,-82.16"/>
</a>
</g>
</g>
<!-- Node6 -->
<g id="Node000006" class="node">
<title>Node6</title>
<g id="a_Node000006"><a xlink:href="classtwoparticle__demo_1_1Model.html#af741e660292b3c71c59277cbd1beb052" target="_top" xlink:title="Runs simulation by executing steps such as init(), integrate(), and close().">
<polygon fill="#fff0f0" stroke="red" points="145,-71 0,-71 0,-52 145,-52 145,-71"/>
<text text-anchor="middle" x="72.5" y="-59" font-family="Arial" font-size="10.00">twoparticle_demo::Model::run</text>
</a>
</g>
</g>
<!-- Node5&#45;&gt;Node6 -->
<g id="edge5_Node000005_Node000006" class="edge">
<title>Node5&#45;&gt;Node6</title>
<g id="a_edge5_Node000005_Node000006"><a xlink:title=" ">
<path fill="none" stroke="#63b8ff" d="M170.44,-61.5C162.07,-61.5 153.55,-61.5 145.19,-61.5"/>
<polygon fill="#63b8ff" stroke="#63b8ff" points="170.53,-65 180.53,-61.5 170.53,-58 170.53,-65"/>
</a>
</g>
</g>
<!-- Node9 -->
<g id="Node000009" class="node">
<title>Node9</title>
<g id="a_Node000009"><a xlink:href="classtwoparticle__demo_1_1Model.html#a200a62053eadcf3d6f08a9f4a186ad59" target="_top" xlink:title="Handles postprocessing for two&#45;particle test.">
<polygon fill="white" stroke="#666666" points="467,-55.5 342,-55.5 342,-25.5 467,-25.5 467,-55.5"/>
<text text-anchor="start" x="350" y="-43.5" font-family="Arial" font-size="10.00">twoparticle_demo::Model</text>
<text text-anchor="middle" x="404.5" y="-32.5" font-family="Arial" font-size="10.00">::twoParticleTest</text>
</a>
</g>
</g>
<!-- Node8&#45;&gt;Node9 -->
<g id="edge7_Node000008_Node000009" class="edge">
<title>Node8&#45;&gt;Node9</title>
<g id="a_edge7_Node000008_Node000009"><a xlink:title=" ">
<path fill="none" stroke="#63b8ff" d="M492.71,-40.5C484.09,-40.5 475.48,-40.5 467.23,-40.5"/>
<polygon fill="#63b8ff" stroke="#63b8ff" points="492.83,-44 502.83,-40.5 492.83,-37 492.83,-44"/>
</a>
</g>
</g>
<!-- Node9&#45;&gt;Node5 -->
<g id="edge8_Node000009_Node000005" class="edge">
<title>Node9&#45;&gt;Node5</title>
<g id="a_edge8_Node000009_Node000005"><a xlink:title=" ">
<path fill="none" stroke="#63b8ff" d="M331.41,-50.02C323.01,-51.13 314.5,-52.25 306.26,-53.34"/>
<polygon fill="#63b8ff" stroke="#63b8ff" points="332.12,-53.46 341.57,-48.68 331.2,-46.52 332.12,-53.46"/>
</a>
</g>
</g>
<!-- Node10&#45;&gt;Node8 -->
<g id="edge10_Node000010_Node000008" class="edge">
<title>Node10&#45;&gt;Node8</title>
<g id="a_edge10_Node000010_Node000008"><a xlink:title=" ">
<path fill="none" stroke="#63b8ff" d="M707.5,-20.65C694.13,-22.82 680,-25.12 666.28,-27.35"/>
<polygon fill="#63b8ff" stroke="#63b8ff" points="708.24,-24.07 717.55,-19.01 707.12,-17.16 708.24,-24.07"/>
</a>
</g>
</g>
<!-- Node11&#45;&gt;Node4 -->
<g id="edge12_Node000011_Node000004" class="edge">
<title>Node11&#45;&gt;Node4</title>
<g id="a_edge12_Node000011_Node000004"><a xlink:title=" ">
<path fill="none" stroke="#63b8ff" d="M717.96,-57.77C691.29,-62.95 660.02,-69.03 634.55,-73.97"/>
<polygon fill="#63b8ff" stroke="#63b8ff" points="718.78,-61.18 727.93,-55.84 717.44,-54.31 718.78,-61.18"/>
</a>
</g>
</g>
<!-- Node11&#45;&gt;Node8 -->
<g id="edge13_Node000011_Node000008" class="edge">
<title>Node11&#45;&gt;Node8</title>
<g id="a_edge13_Node000011_Node000008"><a xlink:title=" ">
<path fill="none" stroke="#63b8ff" d="M717.54,-44.66C701.32,-44.15 683.42,-43.58 666.17,-43.04"/>
<polygon fill="#63b8ff" stroke="#63b8ff" points="717.82,-48.17 727.93,-44.99 718.04,-41.17 717.82,-48.17"/>
</a>
</g>
</g>
</g>
</svg>
