<?xml version="1.0" encoding="UTF-8" standalone="no"?>
<!DOCTYPE svg PUBLIC "-//W3C//DTD SVG 1.1//EN"
 "http://www.w3.org/Graphics/SVG/1.1/DTD/svg11.dtd">
<!-- Generated by graphviz version 2.43.0 (0)
 -->
<!-- Title: util::geometry::NullGeomObject::print Pages: 1 -->
<svg width="415pt" height="39pt"
 viewBox="0.00 0.00 415.00 39.00" xmlns="http://www.w3.org/2000/svg" xmlns:xlink="http://www.w3.org/1999/xlink">
<g id="graph0" class="graph" transform="scale(1 1) rotate(0) translate(4 35)">
<title>util::geometry::NullGeomObject::print</title>
<!-- Node1 -->
<g id="node1" class="node">
<title>Node1</title>
<g id="a_node1"><a xlink:title="Prints the information about the object.">
<polygon fill="#bfbfbf" stroke="black" points="0,-0.5 0,-30.5 125,-30.5 125,-0.5 0,-0.5"/>
<text text-anchor="start" x="8" y="-18.5" font-family="Arial" font-size="10.00">util::geometry::NullGeom</text>
<text text-anchor="middle" x="62.5" y="-7.5" font-family="Arial" font-size="10.00">Object::print</text>
</a>
</g>
</g>
<!-- Node2 -->
<g id="node2" class="node">
<title>Node2</title>
<g id="a_node2"><a xlink:href="classutil_1_1geometry_1_1NullGeomObject.html#ad82e33d45eed7b02c878c4cdc62db894" target="_top" xlink:title="Returns the string containing printable information about the object.">
<polygon fill="none" stroke="black" points="161,-0.5 161,-30.5 286,-30.5 286,-0.5 161,-0.5"/>
<text text-anchor="start" x="169" y="-18.5" font-family="Arial" font-size="10.00">util::geometry::NullGeom</text>
<text text-anchor="middle" x="223.5" y="-7.5" font-family="Arial" font-size="10.00">Object::printStr</text>
</a>
</g>
</g>
<!-- Node1&#45;&gt;Node2 -->
<g id="edge1" class="edge">
<title>Node1&#45;&gt;Node2</title>
<path fill="none" stroke="midnightblue" d="M125.43,-15.5C133.67,-15.5 142.18,-15.5 150.58,-15.5"/>
<polygon fill="midnightblue" stroke="midnightblue" points="150.74,-19 160.74,-15.5 150.74,-12 150.74,-19"/>
</g>
<!-- Node3 -->
<g id="node3" class="node">
<title>Node3</title>
<g id="a_node3"><a xlink:href="namespaceutil_1_1io.html#a38afb09a152cca4061850f4123bd3aeb" target="_top" xlink:title="Returns tab spaces of given size.">
<polygon fill="none" stroke="black" points="322,-6 322,-25 407,-25 407,-6 322,-6"/>
<text text-anchor="middle" x="364.5" y="-13" font-family="Arial" font-size="10.00">util::io::getTabS</text>
</a>
</g>
</g>
<!-- Node2&#45;&gt;Node3 -->
<g id="edge2" class="edge">
<title>Node2&#45;&gt;Node3</title>
<path fill="none" stroke="midnightblue" d="M286.28,-15.5C294.74,-15.5 303.36,-15.5 311.62,-15.5"/>
<polygon fill="midnightblue" stroke="midnightblue" points="311.86,-19 321.86,-15.5 311.86,-12 311.86,-19"/>
</g>
</g>
</svg>
