<?xml version="1.0" encoding="UTF-8" standalone="no"?>
<!DOCTYPE svg PUBLIC "-//W3C//DTD SVG 1.1//EN"
 "http://www.w3.org/Graphics/SVG/1.1/DTD/svg11.dtd">
<!-- Generated by graphviz version 2.43.0 (0)
 -->
<!-- Title: util::geometry::Cube::isInside Pages: 1 -->
<svg width="382pt" height="66pt"
 viewBox="0.00 0.00 382.00 66.00" xmlns="http://www.w3.org/2000/svg" xmlns:xlink="http://www.w3.org/1999/xlink">
<g id="graph0" class="graph" transform="scale(1 1) rotate(0) translate(4 62)">
<title>util::geometry::Cube::isInside</title>
<!-- Node1 -->
<g id="node1" class="node">
<title>Node1</title>
<g id="a_node1"><a xlink:title="Checks if point is inside this object.">
<polygon fill="#bfbfbf" stroke="black" points="0,-14 0,-44 105,-44 105,-14 0,-14"/>
<text text-anchor="start" x="8" y="-32" font-family="Arial" font-size="10.00">util::geometry::Cube</text>
<text text-anchor="middle" x="52.5" y="-21" font-family="Arial" font-size="10.00">::isInside</text>
</a>
</g>
</g>
<!-- Node2 -->
<g id="node2" class="node">
<title>Node2</title>
<g id="a_node2"><a xlink:href="namespaceutil.html#a42dd772fb8717bc7596aa3c45b6cbed0" target="_top" xlink:title="Checks if point is inside a cuboid.">
<polygon fill="none" stroke="black" points="141,-19.5 141,-38.5 263,-38.5 263,-19.5 141,-19.5"/>
<text text-anchor="middle" x="202" y="-26.5" font-family="Arial" font-size="10.00">util::isPointInsideCuboid</text>
</a>
</g>
</g>
<!-- Node1&#45;&gt;Node2 -->
<g id="edge1" class="edge">
<title>Node1&#45;&gt;Node2</title>
<path fill="none" stroke="midnightblue" d="M105.09,-29C113.39,-29 122.1,-29 130.75,-29"/>
<polygon fill="midnightblue" stroke="midnightblue" points="130.84,-32.5 140.84,-29 130.84,-25.5 130.84,-32.5"/>
</g>
<!-- Node3 -->
<g id="node3" class="node">
<title>Node3</title>
<g id="a_node3"><a xlink:href="namespaceutil.html#a227b5f8acbd7a403a033663c8893d631" target="_top" xlink:title="Returns true if a &gt; b.">
<polygon fill="none" stroke="black" points="299,-38.5 299,-57.5 374,-57.5 374,-38.5 299,-38.5"/>
<text text-anchor="middle" x="336.5" y="-45.5" font-family="Arial" font-size="10.00">util::isGreater</text>
</a>
</g>
</g>
<!-- Node2&#45;&gt;Node3 -->
<g id="edge2" class="edge">
<title>Node2&#45;&gt;Node3</title>
<path fill="none" stroke="midnightblue" d="M263.05,-37.61C271.71,-38.85 280.52,-40.12 288.87,-41.31"/>
<polygon fill="midnightblue" stroke="midnightblue" points="288.39,-44.78 298.79,-42.74 289.39,-37.85 288.39,-44.78"/>
</g>
<!-- Node4 -->
<g id="node4" class="node">
<title>Node4</title>
<g id="a_node4"><a xlink:href="namespaceutil.html#a868a26599b6b844d08d30063ac898319" target="_top" xlink:title="Returns true if a &lt; b.">
<polygon fill="none" stroke="black" points="304.5,-0.5 304.5,-19.5 368.5,-19.5 368.5,-0.5 304.5,-0.5"/>
<text text-anchor="middle" x="336.5" y="-7.5" font-family="Arial" font-size="10.00">util::isLess</text>
</a>
</g>
</g>
<!-- Node2&#45;&gt;Node4 -->
<g id="edge3" class="edge">
<title>Node2&#45;&gt;Node4</title>
<path fill="none" stroke="midnightblue" d="M263.05,-20.39C273.62,-18.87 284.4,-17.33 294.31,-15.91"/>
<polygon fill="midnightblue" stroke="midnightblue" points="294.87,-19.36 304.27,-14.48 293.87,-12.43 294.87,-19.36"/>
</g>
</g>
</svg>
