<?xml version="1.0" encoding="UTF-8" standalone="no"?>
<!DOCTYPE svg PUBLIC "-//W3C//DTD SVG 1.1//EN"
 "http://www.w3.org/Graphics/SVG/1.1/DTD/svg11.dtd">
<!-- Generated by graphviz version 2.43.0 (0)
 -->
<!-- Title: material::RnpMaterial::computeMaterialProperties Pages: 1 -->
<svg width="480pt" height="39pt"
 viewBox="0.00 0.00 480.00 39.00" xmlns="http://www.w3.org/2000/svg" xmlns:xlink="http://www.w3.org/1999/xlink">
<g id="graph0" class="graph" transform="scale(1 1) rotate(0) translate(4 35)">
<title>material::RnpMaterial::computeMaterialProperties</title>
<!-- Node1 -->
<g id="node1" class="node">
<title>Node1</title>
<g id="a_node1"><a xlink:title="Computes elastic and fracture material properties and returns the data.">
<polygon fill="#bfbfbf" stroke="black" points="0,-0.5 0,-30.5 139,-30.5 139,-0.5 0,-0.5"/>
<text text-anchor="start" x="8" y="-18.5" font-family="Arial" font-size="10.00">material::RnpMaterial</text>
<text text-anchor="middle" x="69.5" y="-7.5" font-family="Arial" font-size="10.00">::computeMaterialProperties</text>
</a>
</g>
</g>
<!-- Node2 -->
<g id="node2" class="node">
<title>Node2</title>
<g id="a_node2"><a xlink:href="classmaterial_1_1RnpMaterial.html#a7963ad7a3b63662d9752eb928c99b7cd" target="_top" xlink:title="Returns the moment of influence function.">
<polygon fill="none" stroke="black" points="175,-0.5 175,-30.5 285,-30.5 285,-0.5 175,-0.5"/>
<text text-anchor="start" x="183" y="-18.5" font-family="Arial" font-size="10.00">material::RnpMaterial</text>
<text text-anchor="middle" x="230" y="-7.5" font-family="Arial" font-size="10.00">::getMoment</text>
</a>
</g>
</g>
<!-- Node1&#45;&gt;Node2 -->
<g id="edge1" class="edge">
<title>Node1&#45;&gt;Node2</title>
<path fill="none" stroke="midnightblue" d="M139.1,-15.5C147.54,-15.5 156.16,-15.5 164.54,-15.5"/>
<polygon fill="midnightblue" stroke="midnightblue" points="164.62,-19 174.62,-15.5 164.62,-12 164.62,-19"/>
</g>
<!-- Node3 -->
<g id="node3" class="node">
<title>Node3</title>
<g id="a_node3"><a xlink:href="namespaceanonymous__namespace_02material_8h_03.html#a51a45320d6e9bad53b871045073e376f" target="_top" xlink:title="Returns the moment of influence function.">
<polygon fill="none" stroke="black" points="321,-0.5 321,-30.5 472,-30.5 472,-0.5 321,-0.5"/>
<text text-anchor="start" x="329" y="-18.5" font-family="Arial" font-size="10.00">anonymous_namespace</text>
<text text-anchor="middle" x="396.5" y="-7.5" font-family="Arial" font-size="10.00">{material::h}::getGlobalMoment</text>
</a>
</g>
</g>
<!-- Node2&#45;&gt;Node3 -->
<g id="edge2" class="edge">
<title>Node2&#45;&gt;Node3</title>
<path fill="none" stroke="midnightblue" d="M285.32,-15.5C293.53,-15.5 302.15,-15.5 310.82,-15.5"/>
<polygon fill="midnightblue" stroke="midnightblue" points="310.98,-19 320.98,-15.5 310.98,-12 310.98,-19"/>
</g>
</g>
</svg>
