<?xml version="1.0" encoding="UTF-8" standalone="no"?>
<!DOCTYPE svg PUBLIC "-//W3C//DTD SVG 1.1//EN"
 "http://www.w3.org/Graphics/SVG/1.1/DTD/svg11.dtd">
<!-- Generated by graphviz version 2.43.0 (0)
 -->
<!-- Title: util::geometry::Circle::isNear Pages: 1 -->
<svg width="424pt" height="181pt"
 viewBox="0.00 0.00 424.00 181.00" xmlns="http://www.w3.org/2000/svg" xmlns:xlink="http://www.w3.org/1999/xlink">
<g id="graph0" class="graph" transform="scale(1 1) rotate(0) translate(4 177)">
<title>util::geometry::Circle::isNear</title>
<!-- Node1 -->
<g id="node1" class="node">
<title>Node1</title>
<g id="a_node1"><a xlink:title=" ">
<polygon fill="#bfbfbf" stroke="black" points="0,-77 0,-107 107,-107 107,-77 0,-77"/>
<text text-anchor="start" x="8" y="-95" font-family="Arial" font-size="10.00">util::geometry::Circle</text>
<text text-anchor="middle" x="53.5" y="-84" font-family="Arial" font-size="10.00">::isNear</text>
</a>
</g>
</g>
<!-- Node2 -->
<g id="node2" class="node">
<title>Node2</title>
<g id="a_node2"><a xlink:href="namespaceutil.html#af6ab7e8072282977994d4c13e470dfc7" target="_top" xlink:title="Computes the radius of smallest circle/sphere which can have the box inside.">
<polygon fill="none" stroke="black" points="145,-77 145,-107 272,-107 272,-77 145,-77"/>
<text text-anchor="start" x="153" y="-95" font-family="Arial" font-size="10.00">util::circumscribedRadius</text>
<text text-anchor="middle" x="208.5" y="-84" font-family="Arial" font-size="10.00">InBox</text>
</a>
</g>
</g>
<!-- Node1&#45;&gt;Node2 -->
<g id="edge1" class="edge">
<title>Node1&#45;&gt;Node2</title>
<path fill="none" stroke="midnightblue" d="M107.15,-92C116.1,-92 125.54,-92 134.9,-92"/>
<polygon fill="midnightblue" stroke="midnightblue" points="134.99,-95.5 144.99,-92 134.99,-88.5 134.99,-95.5"/>
</g>
<!-- Node3 -->
<g id="node3" class="node">
<title>Node3</title>
<g id="a_node3"><a xlink:href="namespaceutil.html#a9a73e26a05894da76d4d0a922272b7cc" target="_top" xlink:title="Returns center point.">
<polygon fill="none" stroke="black" points="324,-153.5 324,-172.5 402,-172.5 402,-153.5 324,-153.5"/>
<text text-anchor="middle" x="363" y="-160.5" font-family="Arial" font-size="10.00">util::getCenter</text>
</a>
</g>
</g>
<!-- Node1&#45;&gt;Node3 -->
<g id="edge5" class="edge">
<title>Node1&#45;&gt;Node3</title>
<path fill="none" stroke="midnightblue" d="M81.58,-107.12C98.69,-116.01 121.55,-126.72 143,-133 200.23,-149.77 268.67,-157.23 313.63,-160.51"/>
<polygon fill="midnightblue" stroke="midnightblue" points="313.48,-164.01 323.69,-161.2 313.96,-157.02 313.48,-164.01"/>
</g>
<!-- Node4 -->
<g id="node4" class="node">
<title>Node4</title>
<g id="a_node4"><a xlink:href="namespaceutil.html#a5a54fd6f6720dd75956e3ce06b814ad6" target="_top" xlink:title="Returns all corner points in the box.">
<polygon fill="none" stroke="black" points="310,-93.5 310,-112.5 416,-112.5 416,-93.5 310,-93.5"/>
<text text-anchor="middle" x="363" y="-100.5" font-family="Arial" font-size="10.00">util::getCornerPoints</text>
</a>
</g>
</g>
<!-- Node1&#45;&gt;Node4 -->
<g id="edge6" class="edge">
<title>Node1&#45;&gt;Node4</title>
<path fill="none" stroke="midnightblue" d="M98.56,-107.02C112.59,-111.11 128.29,-114.96 143,-117 200.67,-124.99 215.96,-121.59 274,-117 282.74,-116.31 291.92,-115.24 300.92,-113.99"/>
<polygon fill="midnightblue" stroke="midnightblue" points="301.59,-117.43 310.98,-112.51 300.57,-110.5 301.59,-117.43"/>
</g>
<!-- Node6 -->
<g id="node6" class="node">
<title>Node6</title>
<g id="a_node6"><a xlink:href="namespaceutil.html#aa5b234685d92d1a0f48600c3a3708bfd" target="_top" xlink:title="Computes the radius of biggest circle/sphere completely within the object.">
<polygon fill="none" stroke="black" points="143,-38.5 143,-57.5 274,-57.5 274,-38.5 143,-38.5"/>
<text text-anchor="middle" x="208.5" y="-45.5" font-family="Arial" font-size="10.00">util::inscribedRadiusInBox</text>
</a>
</g>
</g>
<!-- Node1&#45;&gt;Node6 -->
<g id="edge7" class="edge">
<title>Node1&#45;&gt;Node6</title>
<path fill="none" stroke="midnightblue" d="M106.73,-76.98C125.57,-71.56 146.61,-65.51 164.57,-60.35"/>
<polygon fill="midnightblue" stroke="midnightblue" points="165.55,-63.71 174.19,-57.58 163.62,-56.98 165.55,-63.71"/>
</g>
<!-- Node7 -->
<g id="node7" class="node">
<title>Node7</title>
<g id="a_node7"><a xlink:href="namespaceutil.html#a868a26599b6b844d08d30063ac898319" target="_top" xlink:title="Returns true if a &lt; b.">
<polygon fill="none" stroke="black" points="176.5,-0.5 176.5,-19.5 240.5,-19.5 240.5,-0.5 176.5,-0.5"/>
<text text-anchor="middle" x="208.5" y="-7.5" font-family="Arial" font-size="10.00">util::isLess</text>
</a>
</g>
</g>
<!-- Node1&#45;&gt;Node7 -->
<g id="edge9" class="edge">
<title>Node1&#45;&gt;Node7</title>
<path fill="none" stroke="midnightblue" d="M72.02,-76.83C89.12,-62.71 116.37,-41.95 143,-29 150.39,-25.41 158.59,-22.35 166.6,-19.81"/>
<polygon fill="midnightblue" stroke="midnightblue" points="167.61,-23.17 176.2,-16.97 165.62,-16.45 167.61,-23.17"/>
</g>
<!-- Node2&#45;&gt;Node3 -->
<g id="edge2" class="edge">
<title>Node2&#45;&gt;Node3</title>
<path fill="none" stroke="midnightblue" d="M241.84,-107.06C268.51,-119.47 306.05,-136.95 332.04,-149.05"/>
<polygon fill="midnightblue" stroke="midnightblue" points="330.85,-152.36 341.39,-153.41 333.81,-146.01 330.85,-152.36"/>
</g>
<!-- Node2&#45;&gt;Node4 -->
<g id="edge3" class="edge">
<title>Node2&#45;&gt;Node4</title>
<path fill="none" stroke="midnightblue" d="M272.41,-96.54C281.47,-97.19 290.79,-97.86 299.84,-98.52"/>
<polygon fill="midnightblue" stroke="midnightblue" points="299.68,-102.01 309.9,-99.24 300.18,-95.03 299.68,-102.01"/>
</g>
<!-- Node5 -->
<g id="node5" class="node">
<title>Node5</title>
<g id="a_node5"><a xlink:href="namespaceutil.html#a227b5f8acbd7a403a033663c8893d631" target="_top" xlink:title="Returns true if a &gt; b.">
<polygon fill="none" stroke="black" points="325.5,-52.5 325.5,-71.5 400.5,-71.5 400.5,-52.5 325.5,-52.5"/>
<text text-anchor="middle" x="363" y="-59.5" font-family="Arial" font-size="10.00">util::isGreater</text>
</a>
</g>
</g>
<!-- Node2&#45;&gt;Node5 -->
<g id="edge4" class="edge">
<title>Node2&#45;&gt;Node5</title>
<path fill="none" stroke="midnightblue" d="M272.41,-79.62C286.79,-76.8 301.83,-73.84 315.39,-71.17"/>
<polygon fill="midnightblue" stroke="midnightblue" points="316.29,-74.56 325.43,-69.19 314.94,-67.69 316.29,-74.56"/>
</g>
<!-- Node6&#45;&gt;Node5 -->
<g id="edge8" class="edge">
<title>Node6&#45;&gt;Node5</title>
<path fill="none" stroke="midnightblue" d="M274.17,-53.94C288.01,-55.21 302.37,-56.53 315.36,-57.72"/>
<polygon fill="midnightblue" stroke="midnightblue" points="315.18,-61.22 325.46,-58.65 315.82,-54.25 315.18,-61.22"/>
</g>
</g>
</svg>
