<?xml version="1.0" encoding="UTF-8" standalone="no"?>
<!DOCTYPE svg PUBLIC "-//W3C//DTD SVG 1.1//EN"
 "http://www.w3.org/Graphics/SVG/1.1/DTD/svg11.dtd">
<!-- Generated by graphviz version 2.43.0 (0)
 -->
<!-- Title: loading::ParticleLoading Pages: 1 -->
<svg width="122pt" height="57pt"
 viewBox="0.00 0.00 122.00 57.00" xmlns="http://www.w3.org/2000/svg" xmlns:xlink="http://www.w3.org/1999/xlink">
<g id="graph0" class="graph" transform="scale(1 1) rotate(0) translate(4 53)">
<title>loading::ParticleLoading</title>
<!-- Node1 -->
<g id="Node000001" class="node">
<title>Node1</title>
<g id="a_Node000001"><a xlink:title="A base class to apply displacement and force boundary condition.">
<polygon fill="#999999" stroke="transparent" points="114,-49 0,-49 0,0 114,0 114,-49"/>
<text text-anchor="start" x="5" y="-36.5" font-family="Arial" font-size="10.00">loading::ParticleLoading</text>
<text text-anchor="start" x="10" y="-21.5" font-family="Arial" font-size="10.00">#</text>
<text text-anchor="start" x="26" y="-21.5" font-family="Arial" font-size="10.00">d_bcData</text>
<text text-anchor="start" x="9.5" y="-6.5" font-family="Arial" font-size="10.00">+</text>
<text text-anchor="start" x="26" y="-6.5" font-family="Arial" font-size="10.00">ParticleLoading()</text>
<polygon fill="#666666" stroke="#666666" points="0,-31.5 0,-31.5 114,-31.5 114,-31.5 0,-31.5"/>
<polygon fill="#666666" stroke="#666666" points="0,-16.5 0,-16.5 24,-16.5 24,-16.5 0,-16.5"/>
<polygon fill="#666666" stroke="#666666" points="24,-16.5 24,-16.5 114,-16.5 114,-16.5 24,-16.5"/>
<polygon fill="none" stroke="#666666" points="0,0 0,-49 114,-49 114,0 0,0"/>
</a>
</g>
</g>
</g>
</svg>
