<?xml version="1.0" encoding="UTF-8" standalone="no"?>
<!DOCTYPE svg PUBLIC "-//W3C//DTD SVG 1.1//EN"
 "http://www.w3.org/Graphics/SVG/1.1/DTD/svg11.dtd">
<!-- Generated by graphviz version 2.43.0 (0)
 -->
<!-- Title: util::geometry::Ellipse::isNear Pages: 1 -->
<svg width="562pt" height="201pt"
 viewBox="0.00 0.00 562.00 200.70" xmlns="http://www.w3.org/2000/svg" xmlns:xlink="http://www.w3.org/1999/xlink">
<g id="graph0" class="graph" transform="scale(1 1) rotate(0) translate(4 196.7)">
<title>util::geometry::Ellipse::isNear</title>
<!-- Node1 -->
<g id="Node000001" class="node">
<title>Node1</title>
<g id="a_Node000001"><a xlink:title="Checks if box is within given distance of this object.">
<polygon fill="#999999" stroke="#666666" points="111,-105.54 0,-105.54 0,-75.54 111,-75.54 111,-105.54"/>
<text text-anchor="start" x="8" y="-93.54" font-family="Arial" font-size="10.00">util::geometry::Ellipse</text>
<text text-anchor="middle" x="55.5" y="-82.54" font-family="Arial" font-size="10.00">::isNear</text>
</a>
</g>
</g>
<!-- Node2 -->
<g id="Node000002" class="node">
<title>Node2</title>
<g id="a_Node000002"><a xlink:href="namespaceutil.html#a21a4c0c512c91e3de03f432d304dd4bd" target="_top" xlink:title="Checks if given two boxes are within given distance from each other.">
<polygon fill="white" stroke="#666666" points="245,-100.04 147,-100.04 147,-81.04 245,-81.04 245,-100.04"/>
<text text-anchor="middle" x="196" y="-88.04" font-family="Arial" font-size="10.00">util::areBoxesNear</text>
</a>
</g>
</g>
<!-- Node1&#45;&gt;Node2 -->
<g id="edge1_Node000001_Node000002" class="edge">
<title>Node1&#45;&gt;Node2</title>
<g id="a_edge1_Node000001_Node000002"><a xlink:title=" ">
<path fill="none" stroke="#63b8ff" d="M111.24,-90.54C119.62,-90.54 128.31,-90.54 136.77,-90.54"/>
<polygon fill="#63b8ff" stroke="#63b8ff" points="136.94,-94.04 146.94,-90.54 136.94,-87.04 136.94,-94.04"/>
</a>
</g>
</g>
<!-- Node3 -->
<g id="Node000003" class="node">
<title>Node3</title>
<g id="a_Node000003"><a xlink:href="namespaceutil.html#af6ab7e8072282977994d4c13e470dfc7" target="_top" xlink:title="Computes the radius of smallest circle/sphere which can have the box inside.">
<polygon fill="white" stroke="#666666" points="410,-167.54 283,-167.54 283,-137.54 410,-137.54 410,-167.54"/>
<text text-anchor="start" x="291" y="-155.54" font-family="Arial" font-size="10.00">util::circumscribedRadius</text>
<text text-anchor="middle" x="346.5" y="-144.54" font-family="Arial" font-size="10.00">InBox</text>
</a>
</g>
</g>
<!-- Node2&#45;&gt;Node3 -->
<g id="edge2_Node000002_Node000003" class="edge">
<title>Node2&#45;&gt;Node3</title>
<g id="a_edge2_Node000002_Node000003"><a xlink:title=" ">
<path fill="none" stroke="#63b8ff" d="M219.88,-100.09C241.11,-108.95 273.33,-122.41 299.82,-133.47"/>
<polygon fill="#63b8ff" stroke="#63b8ff" points="298.72,-136.8 309.3,-137.42 301.42,-130.34 298.72,-136.8"/>
</a>
</g>
</g>
<!-- Node4 -->
<g id="Node000004" class="node">
<title>Node4</title>
<g id="a_Node000004"><a xlink:href="namespaceutil.html#a9a73e26a05894da76d4d0a922272b7cc" target="_top" xlink:title="Returns center point.">
<polygon fill="white" stroke="#666666" points="540,-183.04 462,-183.04 462,-164.04 540,-164.04 540,-183.04"/>
<text text-anchor="middle" x="501" y="-171.04" font-family="Arial" font-size="10.00">util::getCenter</text>
</a>
</g>
</g>
<!-- Node2&#45;&gt;Node4 -->
<g id="edge6_Node000002_Node000004" class="edge">
<title>Node2&#45;&gt;Node4</title>
<g id="a_edge6_Node000002_Node000004"><a xlink:title=" ">
<path fill="none" stroke="#63b8ff" d="M202.65,-100.17C214.39,-119.11 243.49,-160.74 281,-176.54 336.06,-199.72 406.03,-193.32 451.86,-184.91"/>
<polygon fill="#63b8ff" stroke="#63b8ff" points="452.68,-188.32 461.83,-182.98 451.35,-181.45 452.68,-188.32"/>
</a>
</g>
</g>
<!-- Node5 -->
<g id="Node000005" class="node">
<title>Node5</title>
<g id="a_Node000005"><a xlink:href="namespaceutil.html#a5a54fd6f6720dd75956e3ce06b814ad6" target="_top" xlink:title="Returns all corner points in the box.">
<polygon fill="white" stroke="#666666" points="554,-132.04 448,-132.04 448,-113.04 554,-113.04 554,-132.04"/>
<text text-anchor="middle" x="501" y="-120.04" font-family="Arial" font-size="10.00">util::getCornerPoints</text>
</a>
</g>
</g>
<!-- Node2&#45;&gt;Node5 -->
<g id="edge7_Node000002_Node000005" class="edge">
<title>Node2&#45;&gt;Node5</title>
<g id="a_edge7_Node000002_Node000005"><a xlink:title=" ">
<path fill="none" stroke="#63b8ff" d="M245.01,-95.61C297.2,-101.12 380.76,-109.94 437.9,-115.98"/>
<polygon fill="#63b8ff" stroke="#63b8ff" points="437.58,-119.46 447.9,-117.03 438.32,-112.5 437.58,-119.46"/>
</a>
</g>
</g>
<!-- Node7 -->
<g id="Node000007" class="node">
<title>Node7</title>
<g id="a_Node000007"><a xlink:href="namespaceutil.html#aa5b234685d92d1a0f48600c3a3708bfd" target="_top" xlink:title="Computes the radius of biggest circle/sphere completely within the object.">
<polygon fill="white" stroke="#666666" points="412,-81.04 281,-81.04 281,-62.04 412,-62.04 412,-81.04"/>
<text text-anchor="middle" x="346.5" y="-69.04" font-family="Arial" font-size="10.00">util::inscribedRadiusInBox</text>
</a>
</g>
</g>
<!-- Node2&#45;&gt;Node7 -->
<g id="edge8_Node000002_Node000007" class="edge">
<title>Node2&#45;&gt;Node7</title>
<g id="a_edge8_Node000002_Node000007"><a xlink:title=" ">
<path fill="none" stroke="#63b8ff" d="M245.21,-84.37C253.37,-83.32 262.01,-82.22 270.65,-81.11"/>
<polygon fill="#63b8ff" stroke="#63b8ff" points="271.31,-84.56 280.78,-79.82 270.42,-77.61 271.31,-84.56"/>
</a>
</g>
</g>
<!-- Node8 -->
<g id="Node000008" class="node">
<title>Node8</title>
<g id="a_Node000008"><a xlink:href="namespaceutil.html#a868a26599b6b844d08d30063ac898319" target="_top" xlink:title="Returns true if a &lt; b.">
<polygon fill="white" stroke="#666666" points="533,-25.04 469,-25.04 469,-6.04 533,-6.04 533,-25.04"/>
<text text-anchor="middle" x="501" y="-13.04" font-family="Arial" font-size="10.00">util::isLess</text>
</a>
</g>
</g>
<!-- Node2&#45;&gt;Node8 -->
<g id="edge10_Node000002_Node000008" class="edge">
<title>Node2&#45;&gt;Node8</title>
<g id="a_edge10_Node000002_Node000008"><a xlink:title=" ">
<path fill="none" stroke="#63b8ff" d="M203.95,-80.79C216.83,-63.68 246.29,-28.78 281,-15.54 339.5,6.78 413.35,0.38 458.61,-7.02"/>
<polygon fill="#63b8ff" stroke="#63b8ff" points="458.19,-10.5 468.64,-8.75 459.38,-3.6 458.19,-10.5"/>
</a>
</g>
</g>
<!-- Node9 -->
<g id="Node000009" class="node">
<title>Node9</title>
<g id="a_Node000009"><a xlink:href="namespaceutil.html#a09ac00ed5485b655c317c2fe46b1d740" target="_top" xlink:title="Returns true if point is inside box.">
<polygon fill="white" stroke="#666666" points="401,-44.04 292,-44.04 292,-25.04 401,-25.04 401,-44.04"/>
<text text-anchor="middle" x="346.5" y="-32.04" font-family="Arial" font-size="10.00">util::isPointInsideBox</text>
</a>
</g>
</g>
<!-- Node2&#45;&gt;Node9 -->
<g id="edge11_Node000002_Node000009" class="edge">
<title>Node2&#45;&gt;Node9</title>
<g id="a_edge11_Node000002_Node000009"><a xlink:title=" ">
<path fill="none" stroke="#63b8ff" d="M216.73,-80.98C233.57,-73.04 258.55,-61.75 281,-53.54 287.12,-51.3 293.63,-49.14 300.07,-47.12"/>
<polygon fill="#63b8ff" stroke="#63b8ff" points="301.53,-50.33 310.08,-44.08 299.5,-43.64 301.53,-50.33"/>
</a>
</g>
</g>
<!-- Node3&#45;&gt;Node4 -->
<g id="edge3_Node000003_Node000004" class="edge">
<title>Node3&#45;&gt;Node4</title>
<g id="a_edge3_Node000003_Node000004"><a xlink:title=" ">
<path fill="none" stroke="#63b8ff" d="M410.41,-161.2C424.13,-163.09 438.45,-165.06 451.51,-166.86"/>
<polygon fill="#63b8ff" stroke="#63b8ff" points="451.3,-170.36 461.68,-168.26 452.25,-163.43 451.3,-170.36"/>
</a>
</g>
</g>
<!-- Node3&#45;&gt;Node5 -->
<g id="edge4_Node000003_Node000005" class="edge">
<title>Node3&#45;&gt;Node5</title>
<g id="a_edge4_Node000003_Node000005"><a xlink:title=" ">
<path fill="none" stroke="#63b8ff" d="M410.41,-140.16C420.75,-138.13 431.42,-136.03 441.64,-134.02"/>
<polygon fill="#63b8ff" stroke="#63b8ff" points="442.55,-137.41 451.68,-132.04 441.2,-130.54 442.55,-137.41"/>
</a>
</g>
</g>
<!-- Node6 -->
<g id="Node000006" class="node">
<title>Node6</title>
<g id="a_Node000006"><a xlink:href="namespaceutil.html#a227b5f8acbd7a403a033663c8893d631" target="_top" xlink:title="Returns true if a &gt; b.">
<polygon fill="white" stroke="#666666" points="538.5,-81.04 463.5,-81.04 463.5,-62.04 538.5,-62.04 538.5,-81.04"/>
<text text-anchor="middle" x="501" y="-69.04" font-family="Arial" font-size="10.00">util::isGreater</text>
</a>
</g>
</g>
<!-- Node3&#45;&gt;Node6 -->
<g id="edge5_Node000003_Node000006" class="edge">
<title>Node3&#45;&gt;Node6</title>
<g id="a_edge5_Node000003_Node000006"><a xlink:title=" ">
<path fill="none" stroke="#63b8ff" d="M375.83,-137.49C403.57,-122.76 445.53,-100.47 472.86,-85.95"/>
<polygon fill="#63b8ff" stroke="#63b8ff" points="474.68,-88.95 481.86,-81.17 471.39,-82.77 474.68,-88.95"/>
</a>
</g>
</g>
<!-- Node7&#45;&gt;Node6 -->
<g id="edge9_Node000007_Node000006" class="edge">
<title>Node7&#45;&gt;Node6</title>
<g id="a_edge9_Node000007_Node000006"><a xlink:title=" ">
<path fill="none" stroke="#63b8ff" d="M412.17,-71.54C426.01,-71.54 440.37,-71.54 453.36,-71.54"/>
<polygon fill="#63b8ff" stroke="#63b8ff" points="453.46,-75.04 463.46,-71.54 453.46,-68.04 453.46,-75.04"/>
</a>
</g>
</g>
<!-- Node9&#45;&gt;Node6 -->
<g id="edge12_Node000009_Node000006" class="edge">
<title>Node9&#45;&gt;Node6</title>
<g id="a_edge12_Node000009_Node000006"><a xlink:title=" ">
<path fill="none" stroke="#63b8ff" d="M386.77,-44.07C407.19,-49.02 432.28,-55.11 453.64,-60.29"/>
<polygon fill="#63b8ff" stroke="#63b8ff" points="452.94,-63.72 463.48,-62.68 454.59,-56.92 452.94,-63.72"/>
</a>
</g>
</g>
<!-- Node9&#45;&gt;Node8 -->
<g id="edge13_Node000009_Node000008" class="edge">
<title>Node9&#45;&gt;Node8</title>
<g id="a_edge13_Node000009_Node000008"><a xlink:title=" ">
<path fill="none" stroke="#63b8ff" d="M401.27,-27.84C420.19,-25.48 441.14,-22.87 458.86,-20.66"/>
<polygon fill="#63b8ff" stroke="#63b8ff" points="459.39,-24.12 468.88,-19.41 458.52,-17.18 459.39,-24.12"/>
</a>
</g>
</g>
</g>
</svg>
