<?xml version="1.0" encoding="UTF-8" standalone="no"?>
<!DOCTYPE svg PUBLIC "-//W3C//DTD SVG 1.1//EN"
 "http://www.w3.org/Graphics/SVG/1.1/DTD/svg11.dtd">
<!-- Generated by graphviz version 2.43.0 (0)
 -->
<!-- Title: material::PmbMaterial::getBondEF Pages: 1 -->
<svg width="416pt" height="76pt"
 viewBox="0.00 0.00 416.00 75.50" xmlns="http://www.w3.org/2000/svg" xmlns:xlink="http://www.w3.org/1999/xlink">
<g id="graph0" class="graph" transform="scale(1 1) rotate(0) translate(4 71.5)">
<title>material::PmbMaterial::getBondEF</title>
<!-- Node1 -->
<g id="Node000001" class="node">
<title>Node1</title>
<g id="a_Node000001"><a xlink:title="Returns energy and force between bond due to state&#45;based model.">
<polygon fill="#999999" stroke="#666666" points="112,-45.5 0,-45.5 0,-15.5 112,-15.5 112,-45.5"/>
<text text-anchor="start" x="8" y="-33.5" font-family="Arial" font-size="10.00">material::PmbMaterial</text>
<text text-anchor="middle" x="56" y="-22.5" font-family="Arial" font-size="10.00">::getBondEF</text>
</a>
</g>
</g>
<!-- Node2 -->
<g id="Node000002" class="node">
<title>Node2</title>
<g id="a_Node000002"><a xlink:href="classmaterial_1_1PmbMaterial.html#ae478ac81d2d0c4c8ff88377e3d703f1c" target="_top" xlink:title="Returns energy and force between bond due to pairwise interaction.">
<polygon fill="white" stroke="#666666" points="260,-45.5 148,-45.5 148,-15.5 260,-15.5 260,-45.5"/>
<text text-anchor="start" x="156" y="-33.5" font-family="Arial" font-size="10.00">material::PmbMaterial</text>
<text text-anchor="middle" x="204" y="-22.5" font-family="Arial" font-size="10.00">::getBondEF</text>
</a>
</g>
</g>
<!-- Node1&#45;&gt;Node2 -->
<g id="edge1_Node000001_Node000002" class="edge">
<title>Node1&#45;&gt;Node2</title>
<g id="a_edge1_Node000001_Node000002"><a xlink:title=" ">
<path fill="none" stroke="#63b8ff" d="M112.2,-30.5C120.46,-30.5 129.05,-30.5 137.51,-30.5"/>
<polygon fill="#63b8ff" stroke="#63b8ff" points="137.73,-34 147.73,-30.5 137.73,-27 137.73,-34"/>
</a>
</g>
</g>
<!-- Node3 -->
<g id="Node000003" class="node">
<title>Node3</title>
<g id="a_Node000003"><a xlink:href="classmaterial_1_1PmbMaterial.html#a3ebc069ce751d1b03693c0fc4e497968" target="_top" xlink:title="Returns the value of influence function.">
<polygon fill="white" stroke="#666666" points="408,-67.5 296,-67.5 296,-37.5 408,-37.5 408,-67.5"/>
<text text-anchor="start" x="304" y="-55.5" font-family="Arial" font-size="10.00">material::PmbMaterial</text>
<text text-anchor="middle" x="352" y="-44.5" font-family="Arial" font-size="10.00">::getInfFn</text>
</a>
</g>
</g>
<!-- Node2&#45;&gt;Node3 -->
<g id="edge2_Node000002_Node000003" class="edge">
<title>Node2&#45;&gt;Node3</title>
<g id="a_edge2_Node000002_Node000003"><a xlink:title=" ">
<path fill="none" stroke="#63b8ff" d="M260.2,-38.82C268.55,-40.08 277.24,-41.39 285.79,-42.67"/>
<polygon fill="#63b8ff" stroke="#63b8ff" points="285.32,-46.14 295.73,-44.17 286.36,-39.22 285.32,-46.14"/>
</a>
</g>
</g>
<!-- Node4 -->
<g id="Node000004" class="node">
<title>Node4</title>
<g id="a_Node000004"><a xlink:href="namespaceutil.html#a227b5f8acbd7a403a033663c8893d631" target="_top" xlink:title="Returns true if a &gt; b.">
<polygon fill="white" stroke="#666666" points="389.5,-19 314.5,-19 314.5,0 389.5,0 389.5,-19"/>
<text text-anchor="middle" x="352" y="-7" font-family="Arial" font-size="10.00">util::isGreater</text>
</a>
</g>
</g>
<!-- Node2&#45;&gt;Node4 -->
<g id="edge3_Node000002_Node000004" class="edge">
<title>Node2&#45;&gt;Node4</title>
<g id="a_edge3_Node000002_Node000004"><a xlink:title=" ">
<path fill="none" stroke="#63b8ff" d="M260.2,-22.56C274.75,-20.47 290.31,-18.23 304.37,-16.21"/>
<polygon fill="#63b8ff" stroke="#63b8ff" points="304.9,-19.67 314.3,-14.78 303.9,-12.74 304.9,-19.67"/>
</a>
</g>
</g>
</g>
</svg>
