<?xml version="1.0" encoding="UTF-8" standalone="no"?>
<!DOCTYPE svg PUBLIC "-//W3C//DTD SVG 1.1//EN"
 "http://www.w3.org/Graphics/SVG/1.1/DTD/svg11.dtd">
<!-- Generated by graphviz version 2.43.0 (0)
 -->
<!-- Title: particle::BaseParticle::getTypeId Pages: 1 -->
<svg width="282pt" height="176pt"
 viewBox="0.00 0.00 282.00 176.00" xmlns="http://www.w3.org/2000/svg" xmlns:xlink="http://www.w3.org/1999/xlink">
<g id="graph0" class="graph" transform="scale(1 1) rotate(0) translate(4 172)">
<title>particle::BaseParticle::getTypeId</title>
<!-- Node1 -->
<g id="node1" class="node">
<title>Node1</title>
<g id="a_node1"><a xlink:title="Get id among the group of object in the same type as this.">
<polygon fill="#bfbfbf" stroke="black" points="164,-66.5 164,-96.5 274,-96.5 274,-66.5 164,-66.5"/>
<text text-anchor="start" x="172" y="-84.5" font-family="Arial" font-size="10.00">particle::BaseParticle</text>
<text text-anchor="middle" x="219" y="-73.5" font-family="Arial" font-size="10.00">::getTypeId</text>
</a>
</g>
</g>
<!-- Node2 -->
<g id="node2" class="node">
<title>Node2</title>
<g id="a_node2"><a xlink:href="classloading_1_1ParticleFLoading.html#a8a1f12e4292ce9693d0339c06327fe68" target="_top" xlink:title="Applies force boundary condition.">
<polygon fill="none" stroke="black" points="1,-137.5 1,-167.5 127,-167.5 127,-137.5 1,-137.5"/>
<text text-anchor="start" x="9" y="-155.5" font-family="Arial" font-size="10.00">loading::ParticleFLoading</text>
<text text-anchor="middle" x="64" y="-144.5" font-family="Arial" font-size="10.00">::applyWall</text>
</a>
</g>
</g>
<!-- Node1&#45;&gt;Node2 -->
<g id="edge1" class="edge">
<title>Node1&#45;&gt;Node2</title>
<path fill="none" stroke="midnightblue" d="M182.07,-101.5C165.78,-110.24 146.14,-120.34 128,-128.5 121.17,-131.57 113.81,-134.61 106.63,-137.43"/>
<polygon fill="midnightblue" stroke="midnightblue" points="184.11,-104.37 191.23,-96.53 180.77,-98.22 184.11,-104.37"/>
</g>
<!-- Node3 -->
<g id="node3" class="node">
<title>Node3</title>
<g id="a_node3"><a xlink:href="classloading_1_1ParticleULoading.html#aee7edb595807fe2516c545d8abe2d75b" target="_top" xlink:title="Applies displacement boundary condition.">
<polygon fill="none" stroke="black" points="0,-88.5 0,-118.5 128,-118.5 128,-88.5 0,-88.5"/>
<text text-anchor="start" x="8" y="-106.5" font-family="Arial" font-size="10.00">loading::ParticleULoading</text>
<text text-anchor="middle" x="64" y="-95.5" font-family="Arial" font-size="10.00">::applyWall</text>
</a>
</g>
</g>
<!-- Node1&#45;&gt;Node3 -->
<g id="edge2" class="edge">
<title>Node1&#45;&gt;Node3</title>
<path fill="none" stroke="midnightblue" d="M153.49,-90.78C145.08,-91.99 136.47,-93.22 128.08,-94.43"/>
<polygon fill="midnightblue" stroke="midnightblue" points="154.23,-94.21 163.63,-89.32 153.23,-87.28 154.23,-94.21"/>
</g>
<!-- Node4 -->
<g id="node4" class="node">
<title>Node4</title>
<g id="a_node4"><a xlink:href="classparticle_1_1Wall.html#ac7a1ea8243a94d1aa17ffc17f400b89b" target="_top" xlink:title="Get id of this wall.">
<polygon fill="none" stroke="black" points="4.5,-50 4.5,-69 123.5,-69 123.5,-50 4.5,-50"/>
<text text-anchor="middle" x="64" y="-57" font-family="Arial" font-size="10.00">particle::Wall::getWallId</text>
</a>
</g>
</g>
<!-- Node1&#45;&gt;Node4 -->
<g id="edge3" class="edge">
<title>Node1&#45;&gt;Node4</title>
<path fill="none" stroke="midnightblue" d="M153.44,-72.22C143.54,-70.79 133.37,-69.33 123.61,-67.93"/>
<polygon fill="midnightblue" stroke="midnightblue" points="153.23,-75.72 163.63,-73.68 154.23,-68.79 153.23,-75.72"/>
</g>
<!-- Node5 -->
<g id="node5" class="node">
<title>Node5</title>
<g id="a_node5"><a xlink:href="classloading_1_1ParticleULoading.html#ad625cd13565f41d44a66c94a976b40b4" target="_top" xlink:title="Sets fixity mask.">
<polygon fill="none" stroke="black" points="0,-0.5 0,-30.5 128,-30.5 128,-0.5 0,-0.5"/>
<text text-anchor="start" x="8" y="-18.5" font-family="Arial" font-size="10.00">loading::ParticleULoading</text>
<text text-anchor="middle" x="64" y="-7.5" font-family="Arial" font-size="10.00">::setFixityWall</text>
</a>
</g>
</g>
<!-- Node1&#45;&gt;Node5 -->
<g id="edge4" class="edge">
<title>Node1&#45;&gt;Node5</title>
<path fill="none" stroke="midnightblue" d="M176.53,-62.09C161.34,-55.11 143.96,-47.3 128,-40.5 120.21,-37.18 111.81,-33.75 103.77,-30.53"/>
<polygon fill="midnightblue" stroke="midnightblue" points="175.13,-65.3 185.68,-66.31 178.06,-58.94 175.13,-65.3"/>
</g>
</g>
</svg>
