<?xml version="1.0" encoding="UTF-8" standalone="no"?>
<!DOCTYPE svg PUBLIC "-//W3C//DTD SVG 1.1//EN"
 "http://www.w3.org/Graphics/SVG/1.1/DTD/svg11.dtd">
<!-- Generated by graphviz version 2.43.0 (0)
 -->
<!-- Title: material::PdElastic::getInfFn Pages: 1 -->
<svg width="377pt" height="38pt"
 viewBox="0.00 0.00 377.00 38.00" xmlns="http://www.w3.org/2000/svg" xmlns:xlink="http://www.w3.org/1999/xlink">
<g id="graph0" class="graph" transform="scale(1 1) rotate(0) translate(4 34)">
<title>material::PdElastic::getInfFn</title>
<!-- Node1 -->
<g id="Node000001" class="node">
<title>Node1</title>
<g id="a_Node000001"><a xlink:title="Returns the value of influence function.">
<polygon fill="#999999" stroke="#666666" points="369,-30 270,-30 270,0 369,0 369,-30"/>
<text text-anchor="start" x="278" y="-18" font-family="Arial" font-size="10.00">material::PdElastic</text>
<text text-anchor="middle" x="319.5" y="-7" font-family="Arial" font-size="10.00">::getInfFn</text>
</a>
</g>
</g>
<!-- Node2 -->
<g id="Node000002" class="node">
<title>Node2</title>
<g id="a_Node000002"><a xlink:href="classmaterial_1_1PdElastic.html#a36e8bbcc663123e8b12812a591d8a863" target="_top" xlink:title="Returns energy and force between bond due to pairwise interaction.">
<polygon fill="white" stroke="#666666" points="234,-30 135,-30 135,0 234,0 234,-30"/>
<text text-anchor="start" x="143" y="-18" font-family="Arial" font-size="10.00">material::PdElastic</text>
<text text-anchor="middle" x="184.5" y="-7" font-family="Arial" font-size="10.00">::getBondEF</text>
</a>
</g>
</g>
<!-- Node1&#45;&gt;Node2 -->
<g id="edge1_Node000001_Node000002" class="edge">
<title>Node1&#45;&gt;Node2</title>
<g id="a_edge1_Node000001_Node000002"><a xlink:title=" ">
<path fill="none" stroke="#63b8ff" d="M259.55,-15C251.1,-15 242.49,-15 234.26,-15"/>
<polygon fill="#63b8ff" stroke="#63b8ff" points="259.73,-18.5 269.73,-15 259.73,-11.5 259.73,-18.5"/>
</a>
</g>
</g>
<!-- Node3 -->
<g id="Node000003" class="node">
<title>Node3</title>
<g id="a_Node000003"><a xlink:href="classmaterial_1_1PdElastic.html#ad85506ab7bbb5f95a18e42ca42499906" target="_top" xlink:title="Returns energy and force between bond due to state&#45;based model.">
<polygon fill="white" stroke="#666666" points="99,-30 0,-30 0,0 99,0 99,-30"/>
<text text-anchor="start" x="8" y="-18" font-family="Arial" font-size="10.00">material::PdElastic</text>
<text text-anchor="middle" x="49.5" y="-7" font-family="Arial" font-size="10.00">::getBondEF</text>
</a>
</g>
</g>
<!-- Node2&#45;&gt;Node3 -->
<g id="edge2_Node000002_Node000003" class="edge">
<title>Node2&#45;&gt;Node3</title>
<g id="a_edge2_Node000002_Node000003"><a xlink:title=" ">
<path fill="none" stroke="#63b8ff" d="M124.55,-15C116.1,-15 107.49,-15 99.26,-15"/>
<polygon fill="#63b8ff" stroke="#63b8ff" points="124.73,-18.5 134.73,-15 124.73,-11.5 124.73,-18.5"/>
</a>
</g>
</g>
</g>
</svg>
