<?xml version="1.0" encoding="UTF-8" standalone="no"?>
<!DOCTYPE svg PUBLIC "-//W3C//DTD SVG 1.1//EN"
 "http://www.w3.org/Graphics/SVG/1.1/DTD/svg11.dtd">
<!-- Generated by graphviz version 2.43.0 (0)
 -->
<!-- Title: geom::Cuboid::print Pages: 1 -->
<svg width="517pt" height="195pt"
 viewBox="0.00 0.00 517.00 195.00" xmlns="http://www.w3.org/2000/svg" xmlns:xlink="http://www.w3.org/1999/xlink">
<g id="graph0" class="graph" transform="scale(1 1) rotate(0) translate(4 191)">
<title>geom::Cuboid::print</title>
<!-- Node1 -->
<g id="Node000001" class="node">
<title>Node1</title>
<g id="a_Node000001"><a xlink:title="Prints the information about the object.">
<polygon fill="#999999" stroke="#666666" points="102,-93 0,-93 0,-74 102,-74 102,-93"/>
<text text-anchor="middle" x="51" y="-81" font-family="Arial" font-size="10.00">geom::Cuboid::print</text>
</a>
</g>
</g>
<!-- Node2 -->
<g id="Node000002" class="node">
<title>Node2</title>
<g id="a_Node000002"><a xlink:href="classgeom_1_1Cuboid.html#acbe1464cc0281e1511de46d7453cb09f" target="_top" xlink:title="Returns the string containing printable information about the object.">
<polygon fill="white" stroke="#666666" points="253,-93 138,-93 138,-74 253,-74 253,-93"/>
<text text-anchor="middle" x="195.5" y="-81" font-family="Arial" font-size="10.00">geom::Cuboid::printStr</text>
</a>
</g>
</g>
<!-- Node1&#45;&gt;Node2 -->
<g id="edge1_Node000001_Node000002" class="edge">
<title>Node1&#45;&gt;Node2</title>
<g id="a_edge1_Node000001_Node000002"><a xlink:title=" ">
<path fill="none" stroke="#63b8ff" d="M102.24,-83.5C110.53,-83.5 119.24,-83.5 127.86,-83.5"/>
<polygon fill="#63b8ff" stroke="#63b8ff" points="127.91,-87 137.91,-83.5 127.91,-80 127.91,-87"/>
</a>
</g>
</g>
<!-- Node3 -->
<g id="Node000003" class="node">
<title>Node3</title>
<g id="a_Node000003"><a xlink:href="classgeom_1_1Cuboid.html#a94d4839d09da20dadca00ac4b9cbb326" target="_top" xlink:title="Computes the bounding box of object.">
<polygon fill="white" stroke="#666666" points="388,-169 289,-169 289,-150 388,-150 388,-169"/>
<text text-anchor="middle" x="338.5" y="-157" font-family="Arial" font-size="10.00">geom::Cuboid::box</text>
</a>
</g>
</g>
<!-- Node2&#45;&gt;Node3 -->
<g id="edge2_Node000002_Node000003" class="edge">
<title>Node2&#45;&gt;Node3</title>
<g id="a_edge2_Node000002_Node000003"><a xlink:title=" ">
<path fill="none" stroke="#63b8ff" d="M213.07,-93.16C231.46,-103.81 262.12,-121.31 289,-135.5 295.25,-138.8 302.02,-142.24 308.46,-145.44"/>
<polygon fill="#63b8ff" stroke="#63b8ff" points="307.04,-148.64 317.56,-149.93 310.14,-142.36 307.04,-148.64"/>
</a>
</g>
</g>
<!-- Node4 -->
<g id="Node000004" class="node">
<title>Node4</title>
<g id="a_Node000004"><a xlink:href="namespaceutil_1_1io.html#a38afb09a152cca4061850f4123bd3aeb" target="_top" xlink:title="Returns tab spaces of a given size.">
<polygon fill="white" stroke="#666666" points="509,-93 424,-93 424,-74 509,-74 509,-93"/>
<text text-anchor="middle" x="466.5" y="-81" font-family="Arial" font-size="10.00">util::io::getTabS</text>
</a>
</g>
</g>
<!-- Node2&#45;&gt;Node4 -->
<g id="edge4_Node000002_Node000004" class="edge">
<title>Node2&#45;&gt;Node4</title>
<g id="a_edge4_Node000002_Node000004"><a xlink:title=" ">
<path fill="none" stroke="#63b8ff" d="M234.04,-93.01C250.74,-96.77 270.73,-100.64 289,-102.5 332.77,-106.95 344.32,-107.78 388,-102.5 399.91,-101.06 412.64,-98.42 424.26,-95.56"/>
<polygon fill="#63b8ff" stroke="#63b8ff" points="425.34,-98.89 434.14,-93.01 423.59,-92.12 425.34,-98.89"/>
</a>
</g>
</g>
<!-- Node5 -->
<g id="Node000005" class="node">
<title>Node5</title>
<g id="a_Node000005"><a xlink:href="namespaceutil_1_1io.html#a2b2ea15e35fb349760ca1f0b521e7269" target="_top" xlink:title="Returns formatted string for output.">
<polygon fill="white" stroke="#666666" points="387.5,-93 289.5,-93 289.5,-74 387.5,-74 387.5,-93"/>
<text text-anchor="middle" x="338.5" y="-81" font-family="Arial" font-size="10.00">util::io::printBoxStr</text>
</a>
</g>
</g>
<!-- Node2&#45;&gt;Node5 -->
<g id="edge5_Node000002_Node000005" class="edge">
<title>Node2&#45;&gt;Node5</title>
<g id="a_edge5_Node000002_Node000005"><a xlink:title=" ">
<path fill="none" stroke="#63b8ff" d="M253.04,-83.5C261.53,-83.5 270.31,-83.5 278.85,-83.5"/>
<polygon fill="#63b8ff" stroke="#63b8ff" points="279.12,-87 289.12,-83.5 279.12,-80 279.12,-87"/>
</a>
</g>
</g>
<!-- Node6 -->
<g id="Node000006" class="node">
<title>Node6</title>
<g id="a_Node000006"><a xlink:href="namespaceutil_1_1io.html#a3e537e3bd778616255015cde6e60a30a" target="_top" xlink:title="Returns formatted string for output.">
<polygon fill="white" stroke="#666666" points="378.5,-56 298.5,-56 298.5,-37 378.5,-37 378.5,-56"/>
<text text-anchor="middle" x="338.5" y="-44" font-family="Arial" font-size="10.00">util::io::printStr</text>
</a>
</g>
</g>
<!-- Node2&#45;&gt;Node6 -->
<g id="edge7_Node000002_Node000006" class="edge">
<title>Node2&#45;&gt;Node6</title>
<g id="a_edge7_Node000002_Node000006"><a xlink:title=" ">
<path fill="none" stroke="#63b8ff" d="M232.81,-73.97C250.52,-69.33 272.02,-63.68 290.92,-58.72"/>
<polygon fill="#63b8ff" stroke="#63b8ff" points="292.04,-62.05 300.82,-56.12 290.26,-55.28 292.04,-62.05"/>
</a>
</g>
</g>
<!-- Node7 -->
<g id="Node000007" class="node">
<title>Node7</title>
<g id="a_Node000007"><a xlink:href="structutil_1_1Point.html#a0b71aa71d8f84fa5b1d4b0a873a838fb" target="_top" xlink:title="Returns the string containing printable information about the object.">
<polygon fill="white" stroke="#666666" points="386,-19 291,-19 291,0 386,0 386,-19"/>
<text text-anchor="middle" x="338.5" y="-7" font-family="Arial" font-size="10.00">util::Point::printStr</text>
</a>
</g>
</g>
<!-- Node2&#45;&gt;Node7 -->
<g id="edge9_Node000002_Node000007" class="edge">
<title>Node2&#45;&gt;Node7</title>
<g id="a_edge9_Node000002_Node000007"><a xlink:title=" ">
<path fill="none" stroke="#63b8ff" d="M210.83,-73.98C228.67,-62.36 260.3,-42.54 289,-28.5 292.88,-26.6 297.01,-24.75 301.15,-22.99"/>
<polygon fill="#63b8ff" stroke="#63b8ff" points="302.79,-26.1 310.73,-19.09 300.15,-19.62 302.79,-26.1"/>
</a>
</g>
</g>
<!-- Node3&#45;&gt;Node3 -->
<g id="edge3_Node000003_Node000003" class="edge">
<title>Node3&#45;&gt;Node3</title>
<g id="a_edge3_Node000003_Node000003"><a xlink:title=" ">
<path fill="none" stroke="#63b8ff" d="M318.77,-169.08C309.17,-177.73 315.75,-187 338.5,-187 352.72,-187 360.62,-183.38 362.2,-178.55"/>
<polygon fill="#63b8ff" stroke="#63b8ff" points="365.33,-176.95 358.23,-169.08 358.87,-179.66 365.33,-176.95"/>
</a>
</g>
</g>
<!-- Node5&#45;&gt;Node4 -->
<g id="edge6_Node000005_Node000004" class="edge">
<title>Node5&#45;&gt;Node4</title>
<g id="a_edge6_Node000005_Node000004"><a xlink:title=" ">
<path fill="none" stroke="#63b8ff" d="M387.85,-83.5C396.24,-83.5 405,-83.5 413.48,-83.5"/>
<polygon fill="#63b8ff" stroke="#63b8ff" points="413.64,-87 423.64,-83.5 413.64,-80 413.64,-87"/>
</a>
</g>
</g>
<!-- Node6&#45;&gt;Node4 -->
<g id="edge8_Node000006_Node000004" class="edge">
<title>Node6&#45;&gt;Node4</title>
<g id="a_edge8_Node000006_Node000004"><a xlink:title=" ">
<path fill="none" stroke="#63b8ff" d="M371.95,-56.03C387.41,-60.57 406.1,-66.06 422.7,-70.93"/>
<polygon fill="#63b8ff" stroke="#63b8ff" points="422.14,-74.42 432.72,-73.88 424.12,-67.7 422.14,-74.42"/>
</a>
</g>
</g>
</g>
</svg>
