<?xml version="1.0" encoding="UTF-8" standalone="no"?>
<!DOCTYPE svg PUBLIC "-//W3C//DTD SVG 1.1//EN"
 "http://www.w3.org/Graphics/SVG/1.1/DTD/svg11.dtd">
<!-- Generated by graphviz version 2.43.0 (0)
 -->
<!-- Title: inp::Input::setContactDeck Pages: 1 -->
<svg width="409pt" height="78pt"
 viewBox="0.00 0.00 409.00 77.50" xmlns="http://www.w3.org/2000/svg" xmlns:xlink="http://www.w3.org/1999/xlink">
<g id="graph0" class="graph" transform="scale(1 1) rotate(0) translate(4 73.5)">
<title>inp::Input::setContactDeck</title>
<!-- Node1 -->
<g id="node1" class="node">
<title>Node1</title>
<g id="a_node1"><a xlink:title="Read data into particle deck and store its pointer.">
<polygon fill="#bfbfbf" stroke="black" points="0,-28 0,-47 134,-47 134,-28 0,-28"/>
<text text-anchor="middle" x="67" y="-35" font-family="Arial" font-size="10.00">inp::Input::setContactDeck</text>
</a>
</g>
</g>
<!-- Node2 -->
<g id="node2" class="node">
<title>Node2</title>
<g id="a_node2"><a xlink:href="namespaceutil.html#a868a26599b6b844d08d30063ac898319" target="_top" xlink:title="Returns true if a &lt; b.">
<polygon fill="none" stroke="black" points="193,-50 193,-69 257,-69 257,-50 193,-50"/>
<text text-anchor="middle" x="225" y="-57" font-family="Arial" font-size="10.00">util::isLess</text>
</a>
</g>
</g>
<!-- Node1&#45;&gt;Node2 -->
<g id="edge1" class="edge">
<title>Node1&#45;&gt;Node2</title>
<path fill="none" stroke="midnightblue" d="M134.16,-46.83C150.76,-49.17 168.09,-51.61 183.05,-53.72"/>
<polygon fill="midnightblue" stroke="midnightblue" points="182.6,-57.2 192.99,-55.13 183.58,-50.26 182.6,-57.2"/>
</g>
<!-- Node3 -->
<g id="node3" class="node">
<title>Node3</title>
<g id="a_node3"><a xlink:href="structinp_1_1ContactPairDeck.html#ab81bbedb62aae664a6a640cab1572c13" target="_top" xlink:title="Returns the string containing printable information about the object.">
<polygon fill="none" stroke="black" points="170,-0.5 170,-30.5 280,-30.5 280,-0.5 170,-0.5"/>
<text text-anchor="start" x="178" y="-18.5" font-family="Arial" font-size="10.00">inp::ContactPairDeck</text>
<text text-anchor="middle" x="225" y="-7.5" font-family="Arial" font-size="10.00">::printStr</text>
</a>
</g>
</g>
<!-- Node1&#45;&gt;Node3 -->
<g id="edge2" class="edge">
<title>Node1&#45;&gt;Node3</title>
<path fill="none" stroke="midnightblue" d="M134.16,-28.17C142.54,-26.99 151.11,-25.78 159.47,-24.6"/>
<polygon fill="midnightblue" stroke="midnightblue" points="160.12,-28.04 169.53,-23.18 159.14,-21.11 160.12,-28.04"/>
</g>
<!-- Node4 -->
<g id="node4" class="node">
<title>Node4</title>
<g id="a_node4"><a xlink:href="namespaceutil_1_1io.html#a38afb09a152cca4061850f4123bd3aeb" target="_top" xlink:title="Returns tab spaces of given size.">
<polygon fill="none" stroke="black" points="316,-6 316,-25 401,-25 401,-6 316,-6"/>
<text text-anchor="middle" x="358.5" y="-13" font-family="Arial" font-size="10.00">util::io::getTabS</text>
</a>
</g>
</g>
<!-- Node3&#45;&gt;Node4 -->
<g id="edge3" class="edge">
<title>Node3&#45;&gt;Node4</title>
<path fill="none" stroke="midnightblue" d="M280.25,-15.5C288.7,-15.5 297.41,-15.5 305.8,-15.5"/>
<polygon fill="midnightblue" stroke="midnightblue" points="305.84,-19 315.84,-15.5 305.84,-12 305.84,-19"/>
</g>
</g>
</svg>
