<?xml version="1.0" encoding="UTF-8" standalone="no"?>
<!DOCTYPE svg PUBLIC "-//W3C//DTD SVG 1.1//EN"
 "http://www.w3.org/Graphics/SVG/1.1/DTD/svg11.dtd">
<!-- Generated by graphviz version 2.43.0 (0)
 -->
<!-- Title: util::geometry::Drum2D::isInside Pages: 1 -->
<svg width="347pt" height="38pt"
 viewBox="0.00 0.00 347.00 38.00" xmlns="http://www.w3.org/2000/svg" xmlns:xlink="http://www.w3.org/1999/xlink">
<g id="graph0" class="graph" transform="scale(1 1) rotate(0) translate(4 34)">
<title>util::geometry::Drum2D::isInside</title>
<!-- Node1 -->
<g id="Node000001" class="node">
<title>Node1</title>
<g id="a_Node000001"><a xlink:title="Checks if point is inside this object.">
<polygon fill="#999999" stroke="#666666" points="119,-30 0,-30 0,0 119,0 119,-30"/>
<text text-anchor="start" x="8" y="-18" font-family="Arial" font-size="10.00">util::geometry::Drum2D</text>
<text text-anchor="middle" x="59.5" y="-7" font-family="Arial" font-size="10.00">::isInside</text>
</a>
</g>
</g>
<!-- Node2 -->
<g id="Node000002" class="node">
<title>Node2</title>
<g id="a_Node000002"><a xlink:href="namespaceutil.html#afc570d133c5159571a48456e2440753a" target="_top" xlink:title="Returns the vector after rotating by desired angle.">
<polygon fill="white" stroke="#666666" points="215,-24.5 155,-24.5 155,-5.5 215,-5.5 215,-24.5"/>
<text text-anchor="middle" x="185" y="-12.5" font-family="Arial" font-size="10.00">util::rotate</text>
</a>
</g>
</g>
<!-- Node1&#45;&gt;Node2 -->
<g id="edge1_Node000001_Node000002" class="edge">
<title>Node1&#45;&gt;Node2</title>
<g id="a_edge1_Node000001_Node000002"><a xlink:title=" ">
<path fill="none" stroke="#63b8ff" d="M119.36,-15C127.91,-15 136.54,-15 144.58,-15"/>
<polygon fill="#63b8ff" stroke="#63b8ff" points="144.76,-18.5 154.76,-15 144.76,-11.5 144.76,-18.5"/>
</a>
</g>
</g>
<!-- Node3 -->
<g id="Node000003" class="node">
<title>Node3</title>
<g id="a_Node000003"><a xlink:href="structutil_1_1Point.html#a8c5530ee2dac6fa26f88be0de91543f7" target="_top" xlink:title="Computes the cross product between this vector and given vector.">
<polygon fill="white" stroke="#666666" points="339,-24.5 251,-24.5 251,-5.5 339,-5.5 339,-24.5"/>
<text text-anchor="middle" x="295" y="-12.5" font-family="Arial" font-size="10.00">util::Point::cross</text>
</a>
</g>
</g>
<!-- Node2&#45;&gt;Node3 -->
<g id="edge2_Node000002_Node000003" class="edge">
<title>Node2&#45;&gt;Node3</title>
<g id="a_edge2_Node000002_Node000003"><a xlink:title=" ">
<path fill="none" stroke="#63b8ff" d="M215.23,-15C223.13,-15 231.93,-15 240.72,-15"/>
<polygon fill="#63b8ff" stroke="#63b8ff" points="240.96,-18.5 250.96,-15 240.96,-11.5 240.96,-18.5"/>
</a>
</g>
</g>
</g>
</svg>
