<?xml version="1.0" encoding="UTF-8" standalone="no"?>
<!DOCTYPE svg PUBLIC "-//W3C//DTD SVG 1.1//EN"
 "http://www.w3.org/Graphics/SVG/1.1/DTD/svg11.dtd">
<!-- Generated by graphviz version 2.43.0 (0)
 -->
<!-- Title: util::geometry::Hexagon::isNear Pages: 1 -->
<svg width="572pt" height="201pt"
 viewBox="0.00 0.00 572.00 200.70" xmlns="http://www.w3.org/2000/svg" xmlns:xlink="http://www.w3.org/1999/xlink">
<g id="graph0" class="graph" transform="scale(1 1) rotate(0) translate(4 196.7)">
<title>util::geometry::Hexagon::isNear</title>
<!-- Node1 -->
<g id="Node000001" class="node">
<title>Node1</title>
<g id="a_Node000001"><a xlink:title="Checks if box is within given distance of this object.">
<polygon fill="#999999" stroke="#666666" points="121,-105.54 0,-105.54 0,-75.54 121,-75.54 121,-105.54"/>
<text text-anchor="start" x="8" y="-93.54" font-family="Arial" font-size="10.00">util::geometry::Hexagon</text>
<text text-anchor="middle" x="60.5" y="-82.54" font-family="Arial" font-size="10.00">::isNear</text>
</a>
</g>
</g>
<!-- Node2 -->
<g id="Node000002" class="node">
<title>Node2</title>
<g id="a_Node000002"><a xlink:href="namespaceutil.html#a21a4c0c512c91e3de03f432d304dd4bd" target="_top" xlink:title="Checks if given two boxes are within given distance from each other.">
<polygon fill="white" stroke="#666666" points="255,-100.04 157,-100.04 157,-81.04 255,-81.04 255,-100.04"/>
<text text-anchor="middle" x="206" y="-88.04" font-family="Arial" font-size="10.00">util::areBoxesNear</text>
</a>
</g>
</g>
<!-- Node1&#45;&gt;Node2 -->
<g id="edge1_Node000001_Node000002" class="edge">
<title>Node1&#45;&gt;Node2</title>
<g id="a_edge1_Node000001_Node000002"><a xlink:title=" ">
<path fill="none" stroke="#63b8ff" d="M121.11,-90.54C129.54,-90.54 138.2,-90.54 146.61,-90.54"/>
<polygon fill="#63b8ff" stroke="#63b8ff" points="146.71,-94.04 156.71,-90.54 146.71,-87.04 146.71,-94.04"/>
</a>
</g>
</g>
<!-- Node3 -->
<g id="Node000003" class="node">
<title>Node3</title>
<g id="a_Node000003"><a xlink:href="namespaceutil.html#af6ab7e8072282977994d4c13e470dfc7" target="_top" xlink:title="Computes the radius of smallest circle/sphere which can have the box inside.">
<polygon fill="white" stroke="#666666" points="420,-167.54 293,-167.54 293,-137.54 420,-137.54 420,-167.54"/>
<text text-anchor="start" x="301" y="-155.54" font-family="Arial" font-size="10.00">util::circumscribedRadius</text>
<text text-anchor="middle" x="356.5" y="-144.54" font-family="Arial" font-size="10.00">InBox</text>
</a>
</g>
</g>
<!-- Node2&#45;&gt;Node3 -->
<g id="edge2_Node000002_Node000003" class="edge">
<title>Node2&#45;&gt;Node3</title>
<g id="a_edge2_Node000002_Node000003"><a xlink:title=" ">
<path fill="none" stroke="#63b8ff" d="M229.88,-100.09C251.11,-108.95 283.33,-122.41 309.82,-133.47"/>
<polygon fill="#63b8ff" stroke="#63b8ff" points="308.72,-136.8 319.3,-137.42 311.42,-130.34 308.72,-136.8"/>
</a>
</g>
</g>
<!-- Node4 -->
<g id="Node000004" class="node">
<title>Node4</title>
<g id="a_Node000004"><a xlink:href="namespaceutil.html#a9a73e26a05894da76d4d0a922272b7cc" target="_top" xlink:title="Returns center point.">
<polygon fill="white" stroke="#666666" points="550,-183.04 472,-183.04 472,-164.04 550,-164.04 550,-183.04"/>
<text text-anchor="middle" x="511" y="-171.04" font-family="Arial" font-size="10.00">util::getCenter</text>
</a>
</g>
</g>
<!-- Node2&#45;&gt;Node4 -->
<g id="edge6_Node000002_Node000004" class="edge">
<title>Node2&#45;&gt;Node4</title>
<g id="a_edge6_Node000002_Node000004"><a xlink:title=" ">
<path fill="none" stroke="#63b8ff" d="M212.65,-100.17C224.39,-119.11 253.49,-160.74 291,-176.54 346.06,-199.72 416.03,-193.32 461.86,-184.91"/>
<polygon fill="#63b8ff" stroke="#63b8ff" points="462.68,-188.32 471.83,-182.98 461.35,-181.45 462.68,-188.32"/>
</a>
</g>
</g>
<!-- Node5 -->
<g id="Node000005" class="node">
<title>Node5</title>
<g id="a_Node000005"><a xlink:href="namespaceutil.html#a5a54fd6f6720dd75956e3ce06b814ad6" target="_top" xlink:title="Returns all corner points in the box.">
<polygon fill="white" stroke="#666666" points="564,-132.04 458,-132.04 458,-113.04 564,-113.04 564,-132.04"/>
<text text-anchor="middle" x="511" y="-120.04" font-family="Arial" font-size="10.00">util::getCornerPoints</text>
</a>
</g>
</g>
<!-- Node2&#45;&gt;Node5 -->
<g id="edge7_Node000002_Node000005" class="edge">
<title>Node2&#45;&gt;Node5</title>
<g id="a_edge7_Node000002_Node000005"><a xlink:title=" ">
<path fill="none" stroke="#63b8ff" d="M255.01,-95.61C307.2,-101.12 390.76,-109.94 447.9,-115.98"/>
<polygon fill="#63b8ff" stroke="#63b8ff" points="447.58,-119.46 457.9,-117.03 448.32,-112.5 447.58,-119.46"/>
</a>
</g>
</g>
<!-- Node7 -->
<g id="Node000007" class="node">
<title>Node7</title>
<g id="a_Node000007"><a xlink:href="namespaceutil.html#aa5b234685d92d1a0f48600c3a3708bfd" target="_top" xlink:title="Computes the radius of biggest circle/sphere completely within the object.">
<polygon fill="white" stroke="#666666" points="422,-81.04 291,-81.04 291,-62.04 422,-62.04 422,-81.04"/>
<text text-anchor="middle" x="356.5" y="-69.04" font-family="Arial" font-size="10.00">util::inscribedRadiusInBox</text>
</a>
</g>
</g>
<!-- Node2&#45;&gt;Node7 -->
<g id="edge8_Node000002_Node000007" class="edge">
<title>Node2&#45;&gt;Node7</title>
<g id="a_edge8_Node000002_Node000007"><a xlink:title=" ">
<path fill="none" stroke="#63b8ff" d="M255.21,-84.37C263.37,-83.32 272.01,-82.22 280.65,-81.11"/>
<polygon fill="#63b8ff" stroke="#63b8ff" points="281.31,-84.56 290.78,-79.82 280.42,-77.61 281.31,-84.56"/>
</a>
</g>
</g>
<!-- Node8 -->
<g id="Node000008" class="node">
<title>Node8</title>
<g id="a_Node000008"><a xlink:href="namespaceutil.html#a868a26599b6b844d08d30063ac898319" target="_top" xlink:title="Returns true if a &lt; b.">
<polygon fill="white" stroke="#666666" points="543,-25.04 479,-25.04 479,-6.04 543,-6.04 543,-25.04"/>
<text text-anchor="middle" x="511" y="-13.04" font-family="Arial" font-size="10.00">util::isLess</text>
</a>
</g>
</g>
<!-- Node2&#45;&gt;Node8 -->
<g id="edge10_Node000002_Node000008" class="edge">
<title>Node2&#45;&gt;Node8</title>
<g id="a_edge10_Node000002_Node000008"><a xlink:title=" ">
<path fill="none" stroke="#63b8ff" d="M213.95,-80.79C226.83,-63.68 256.29,-28.78 291,-15.54 349.5,6.78 423.35,0.38 468.61,-7.02"/>
<polygon fill="#63b8ff" stroke="#63b8ff" points="468.19,-10.5 478.64,-8.75 469.38,-3.6 468.19,-10.5"/>
</a>
</g>
</g>
<!-- Node9 -->
<g id="Node000009" class="node">
<title>Node9</title>
<g id="a_Node000009"><a xlink:href="namespaceutil.html#a09ac00ed5485b655c317c2fe46b1d740" target="_top" xlink:title="Returns true if point is inside box.">
<polygon fill="white" stroke="#666666" points="411,-44.04 302,-44.04 302,-25.04 411,-25.04 411,-44.04"/>
<text text-anchor="middle" x="356.5" y="-32.04" font-family="Arial" font-size="10.00">util::isPointInsideBox</text>
</a>
</g>
</g>
<!-- Node2&#45;&gt;Node9 -->
<g id="edge11_Node000002_Node000009" class="edge">
<title>Node2&#45;&gt;Node9</title>
<g id="a_edge11_Node000002_Node000009"><a xlink:title=" ">
<path fill="none" stroke="#63b8ff" d="M226.73,-80.98C243.57,-73.04 268.55,-61.75 291,-53.54 297.12,-51.3 303.63,-49.14 310.07,-47.12"/>
<polygon fill="#63b8ff" stroke="#63b8ff" points="311.53,-50.33 320.08,-44.08 309.5,-43.64 311.53,-50.33"/>
</a>
</g>
</g>
<!-- Node3&#45;&gt;Node4 -->
<g id="edge3_Node000003_Node000004" class="edge">
<title>Node3&#45;&gt;Node4</title>
<g id="a_edge3_Node000003_Node000004"><a xlink:title=" ">
<path fill="none" stroke="#63b8ff" d="M420.41,-161.2C434.13,-163.09 448.45,-165.06 461.51,-166.86"/>
<polygon fill="#63b8ff" stroke="#63b8ff" points="461.3,-170.36 471.68,-168.26 462.25,-163.43 461.3,-170.36"/>
</a>
</g>
</g>
<!-- Node3&#45;&gt;Node5 -->
<g id="edge4_Node000003_Node000005" class="edge">
<title>Node3&#45;&gt;Node5</title>
<g id="a_edge4_Node000003_Node000005"><a xlink:title=" ">
<path fill="none" stroke="#63b8ff" d="M420.41,-140.16C430.75,-138.13 441.42,-136.03 451.64,-134.02"/>
<polygon fill="#63b8ff" stroke="#63b8ff" points="452.55,-137.41 461.68,-132.04 451.2,-130.54 452.55,-137.41"/>
</a>
</g>
</g>
<!-- Node6 -->
<g id="Node000006" class="node">
<title>Node6</title>
<g id="a_Node000006"><a xlink:href="namespaceutil.html#a227b5f8acbd7a403a033663c8893d631" target="_top" xlink:title="Returns true if a &gt; b.">
<polygon fill="white" stroke="#666666" points="548.5,-81.04 473.5,-81.04 473.5,-62.04 548.5,-62.04 548.5,-81.04"/>
<text text-anchor="middle" x="511" y="-69.04" font-family="Arial" font-size="10.00">util::isGreater</text>
</a>
</g>
</g>
<!-- Node3&#45;&gt;Node6 -->
<g id="edge5_Node000003_Node000006" class="edge">
<title>Node3&#45;&gt;Node6</title>
<g id="a_edge5_Node000003_Node000006"><a xlink:title=" ">
<path fill="none" stroke="#63b8ff" d="M385.83,-137.49C413.57,-122.76 455.53,-100.47 482.86,-85.95"/>
<polygon fill="#63b8ff" stroke="#63b8ff" points="484.68,-88.95 491.86,-81.17 481.39,-82.77 484.68,-88.95"/>
</a>
</g>
</g>
<!-- Node7&#45;&gt;Node6 -->
<g id="edge9_Node000007_Node000006" class="edge">
<title>Node7&#45;&gt;Node6</title>
<g id="a_edge9_Node000007_Node000006"><a xlink:title=" ">
<path fill="none" stroke="#63b8ff" d="M422.17,-71.54C436.01,-71.54 450.37,-71.54 463.36,-71.54"/>
<polygon fill="#63b8ff" stroke="#63b8ff" points="463.46,-75.04 473.46,-71.54 463.46,-68.04 463.46,-75.04"/>
</a>
</g>
</g>
<!-- Node9&#45;&gt;Node6 -->
<g id="edge12_Node000009_Node000006" class="edge">
<title>Node9&#45;&gt;Node6</title>
<g id="a_edge12_Node000009_Node000006"><a xlink:title=" ">
<path fill="none" stroke="#63b8ff" d="M396.77,-44.07C417.19,-49.02 442.28,-55.11 463.64,-60.29"/>
<polygon fill="#63b8ff" stroke="#63b8ff" points="462.94,-63.72 473.48,-62.68 464.59,-56.92 462.94,-63.72"/>
</a>
</g>
</g>
<!-- Node9&#45;&gt;Node8 -->
<g id="edge13_Node000009_Node000008" class="edge">
<title>Node9&#45;&gt;Node8</title>
<g id="a_edge13_Node000009_Node000008"><a xlink:title=" ">
<path fill="none" stroke="#63b8ff" d="M411.27,-27.84C430.19,-25.48 451.14,-22.87 468.86,-20.66"/>
<polygon fill="#63b8ff" stroke="#63b8ff" points="469.39,-24.12 478.88,-19.41 468.52,-17.18 469.39,-24.12"/>
</a>
</g>
</g>
</g>
</svg>
