<?xml version="1.0" encoding="UTF-8" standalone="no"?>
<!DOCTYPE svg PUBLIC "-//W3C//DTD SVG 1.1//EN"
 "http://www.w3.org/Graphics/SVG/1.1/DTD/svg11.dtd">
<!-- Generated by graphviz version 2.43.0 (0)
 -->
<!-- Title: util::geometry::Hexagon::print Pages: 1 -->
<svg width="523pt" height="53pt"
 viewBox="0.00 0.00 523.00 52.50" xmlns="http://www.w3.org/2000/svg" xmlns:xlink="http://www.w3.org/1999/xlink">
<g id="graph0" class="graph" transform="scale(1 1) rotate(0) translate(4 48.5)">
<title>util::geometry::Hexagon::print</title>
<!-- Node1 -->
<g id="node1" class="node">
<title>Node1</title>
<g id="a_node1"><a xlink:title="Prints the information about the object.">
<polygon fill="#bfbfbf" stroke="black" points="0,-14 0,-44 121,-44 121,-14 0,-14"/>
<text text-anchor="start" x="8" y="-32" font-family="Arial" font-size="10.00">util::geometry::Hexagon</text>
<text text-anchor="middle" x="60.5" y="-21" font-family="Arial" font-size="10.00">::print</text>
</a>
</g>
</g>
<!-- Node2 -->
<g id="node2" class="node">
<title>Node2</title>
<g id="a_node2"><a xlink:href="classutil_1_1geometry_1_1Hexagon.html#ac22752b42d4ab3761621788335916e23" target="_top" xlink:title="Prints the information.">
<polygon fill="none" stroke="black" points="157,-14 157,-44 278,-44 278,-14 157,-14"/>
<text text-anchor="start" x="165" y="-32" font-family="Arial" font-size="10.00">util::geometry::Hexagon</text>
<text text-anchor="middle" x="217.5" y="-21" font-family="Arial" font-size="10.00">::printStr</text>
</a>
</g>
</g>
<!-- Node1&#45;&gt;Node2 -->
<g id="edge1" class="edge">
<title>Node1&#45;&gt;Node2</title>
<path fill="none" stroke="midnightblue" d="M121.43,-29C129.72,-29 138.31,-29 146.76,-29"/>
<polygon fill="midnightblue" stroke="midnightblue" points="146.99,-32.5 156.99,-29 146.99,-25.5 146.99,-32.5"/>
</g>
<!-- Node3 -->
<g id="node3" class="node">
<title>Node3</title>
<g id="a_node3"><a xlink:href="namespaceutil_1_1io.html#a38afb09a152cca4061850f4123bd3aeb" target="_top" xlink:title="Returns tab spaces of given size.">
<polygon fill="none" stroke="black" points="430,-19.5 430,-38.5 515,-38.5 515,-19.5 430,-19.5"/>
<text text-anchor="middle" x="472.5" y="-26.5" font-family="Arial" font-size="10.00">util::io::getTabS</text>
</a>
</g>
</g>
<!-- Node2&#45;&gt;Node3 -->
<g id="edge2" class="edge">
<title>Node2&#45;&gt;Node3</title>
<path fill="none" stroke="midnightblue" d="M278.14,-29C321.1,-29 378.5,-29 419.58,-29"/>
<polygon fill="midnightblue" stroke="midnightblue" points="419.65,-32.5 429.65,-29 419.65,-25.5 419.65,-32.5"/>
</g>
<!-- Node4 -->
<g id="node4" class="node">
<title>Node4</title>
<g id="a_node4"><a xlink:href="namespaceutil_1_1io.html#a3e537e3bd778616255015cde6e60a30a" target="_top" xlink:title="Returns formatted string for output.">
<polygon fill="none" stroke="black" points="314,-0.5 314,-19.5 394,-19.5 394,-0.5 314,-0.5"/>
<text text-anchor="middle" x="354" y="-7.5" font-family="Arial" font-size="10.00">util::io::printStr</text>
</a>
</g>
</g>
<!-- Node2&#45;&gt;Node4 -->
<g id="edge3" class="edge">
<title>Node2&#45;&gt;Node4</title>
<path fill="none" stroke="midnightblue" d="M278.28,-20.56C286.86,-19.34 295.6,-18.11 303.94,-16.93"/>
<polygon fill="midnightblue" stroke="midnightblue" points="304.46,-20.39 313.87,-15.53 303.48,-13.46 304.46,-20.39"/>
</g>
<!-- Node4&#45;&gt;Node3 -->
<g id="edge4" class="edge">
<title>Node4&#45;&gt;Node3</title>
<path fill="none" stroke="midnightblue" d="M394.12,-16.38C402.38,-17.73 411.23,-19.17 419.88,-20.58"/>
<polygon fill="midnightblue" stroke="midnightblue" points="419.46,-24.06 429.89,-22.21 420.59,-17.15 419.46,-24.06"/>
</g>
</g>
</svg>
