<?xml version="1.0" encoding="UTF-8" standalone="no"?>
<!DOCTYPE svg PUBLIC "-//W3C//DTD SVG 1.1//EN"
 "http://www.w3.org/Graphics/SVG/1.1/DTD/svg11.dtd">
<!-- Generated by graphviz version 2.43.0 (0)
 -->
<!-- Title: nsearch::TreeSearchCheckIDExcludeResult::clear Pages: 1 -->
<svg width="528pt" height="49pt"
 viewBox="0.00 0.00 528.00 49.00" xmlns="http://www.w3.org/2000/svg" xmlns:xlink="http://www.w3.org/1999/xlink">
<g id="graph0" class="graph" transform="scale(1 1) rotate(0) translate(4 45)">
<title>nsearch::TreeSearchCheckIDExcludeResult::clear</title>
<!-- Node1 -->
<g id="Node000001" class="node">
<title>Node1</title>
<g id="a_Node000001"><a xlink:title="Clear the data.">
<polygon fill="#999999" stroke="#666666" points="520,-35.5 384,-35.5 384,-5.5 520,-5.5 520,-35.5"/>
<text text-anchor="start" x="392" y="-23.5" font-family="Arial" font-size="10.00">nsearch::TreeSearchCheck</text>
<text text-anchor="middle" x="452" y="-12.5" font-family="Arial" font-size="10.00">IDExcludeResult::clear</text>
</a>
</g>
</g>
<!-- Node2 -->
<g id="Node000002" class="node">
<title>Node2</title>
<g id="a_Node000002"><a xlink:href="classnsearch_1_1TreeSearchCheckIDExcludeResult.html#a2c87d98cf1a24210b36361fb440a24a1" target="_top" xlink:title="Initialize the data (clear)">
<polygon fill="white" stroke="#666666" points="348,-35.5 212,-35.5 212,-5.5 348,-5.5 348,-35.5"/>
<text text-anchor="start" x="220" y="-23.5" font-family="Arial" font-size="10.00">nsearch::TreeSearchCheck</text>
<text text-anchor="middle" x="280" y="-12.5" font-family="Arial" font-size="10.00">IDExcludeResult::init</text>
</a>
</g>
</g>
<!-- Node1&#45;&gt;Node2 -->
<g id="edge1_Node000001_Node000002" class="edge">
<title>Node1&#45;&gt;Node2</title>
<g id="a_edge1_Node000001_Node000002"><a xlink:title=" ">
<path fill="none" stroke="#63b8ff" d="M373.58,-20.5C365.12,-20.5 356.57,-20.5 348.26,-20.5"/>
<polygon fill="#63b8ff" stroke="#63b8ff" points="373.81,-24 383.81,-20.5 373.81,-17 373.81,-24"/>
</a>
</g>
</g>
<!-- Node3 -->
<g id="Node000003" class="node">
<title>Node3</title>
<g id="a_Node000003"><a xlink:href="classnsearch_1_1TreeSearchCheckIDExcludeResult.html#a9dd8a99777f0ee69fc5aafb5f8a20bf3" target="_top" xlink:title="Constructor.">
<polygon fill="white" stroke="#666666" points="176,-41 0,-41 0,0 176,0 176,-41"/>
<text text-anchor="start" x="8" y="-29" font-family="Arial" font-size="10.00">nsearch::TreeSearchCheck</text>
<text text-anchor="start" x="8" y="-18" font-family="Arial" font-size="10.00">IDExcludeResult::TreeSearchCheck</text>
<text text-anchor="middle" x="88" y="-7" font-family="Arial" font-size="10.00">IDExcludeResult</text>
</a>
</g>
</g>
<!-- Node2&#45;&gt;Node3 -->
<g id="edge2_Node000002_Node000003" class="edge">
<title>Node2&#45;&gt;Node3</title>
<g id="a_edge2_Node000002_Node000003"><a xlink:title=" ">
<path fill="none" stroke="#63b8ff" d="M201.62,-20.5C193.22,-20.5 184.63,-20.5 176.13,-20.5"/>
<polygon fill="#63b8ff" stroke="#63b8ff" points="201.75,-24 211.75,-20.5 201.75,-17 201.75,-24"/>
</a>
</g>
</g>
</g>
</svg>
