<?xml version="1.0" encoding="UTF-8" standalone="no"?>
<!DOCTYPE svg PUBLIC "-//W3C//DTD SVG 1.1//EN"
 "http://www.w3.org/Graphics/SVG/1.1/DTD/svg11.dtd">
<!-- Generated by graphviz version 2.43.0 (0)
 -->
<!-- Title: util::geometry::Line::isNearBoundary Pages: 1 -->
<svg width="219pt" height="104pt"
 viewBox="0.00 0.00 219.00 104.00" xmlns="http://www.w3.org/2000/svg" xmlns:xlink="http://www.w3.org/1999/xlink">
<g id="graph0" class="graph" transform="scale(1 1) rotate(0) translate(4 100)">
<title>util::geometry::Line::isNearBoundary</title>
<!-- Node1 -->
<g id="node1" class="node">
<title>Node1</title>
<g id="a_node1"><a xlink:title=" ">
<polygon fill="#bfbfbf" stroke="black" points="0,-33 0,-63 100,-63 100,-33 0,-33"/>
<text text-anchor="start" x="8" y="-51" font-family="Arial" font-size="10.00">util::geometry::Line</text>
<text text-anchor="middle" x="50" y="-40" font-family="Arial" font-size="10.00">::isNearBoundary</text>
</a>
</g>
</g>
<!-- Node2 -->
<g id="node2" class="node">
<title>Node2</title>
<g id="a_node2"><a xlink:href="namespaceutil.html#af081eb7d4934835d9c45b39b025ef5c9" target="_top" xlink:title="Computes the dot product between matrix and vector.">
<polygon fill="none" stroke="black" points="149,-76.5 149,-95.5 198,-95.5 198,-76.5 149,-76.5"/>
<text text-anchor="middle" x="173.5" y="-83.5" font-family="Arial" font-size="10.00">util::dot</text>
</a>
</g>
</g>
<!-- Node1&#45;&gt;Node2 -->
<g id="edge1" class="edge">
<title>Node1&#45;&gt;Node2</title>
<path fill="none" stroke="midnightblue" d="M99.02,-63.02C112.39,-67.2 126.62,-71.65 138.96,-75.51"/>
<polygon fill="midnightblue" stroke="midnightblue" points="138.24,-78.95 148.83,-78.6 140.33,-72.27 138.24,-78.95"/>
</g>
<!-- Node3 -->
<g id="node3" class="node">
<title>Node3</title>
<g id="a_node3"><a xlink:href="namespaceutil.html#a227b5f8acbd7a403a033663c8893d631" target="_top" xlink:title="Returns true if a &gt; b.">
<polygon fill="none" stroke="black" points="136,-38.5 136,-57.5 211,-57.5 211,-38.5 136,-38.5"/>
<text text-anchor="middle" x="173.5" y="-45.5" font-family="Arial" font-size="10.00">util::isGreater</text>
</a>
</g>
</g>
<!-- Node1&#45;&gt;Node3 -->
<g id="edge2" class="edge">
<title>Node1&#45;&gt;Node3</title>
<path fill="none" stroke="midnightblue" d="M100.07,-48C108.59,-48 117.43,-48 125.88,-48"/>
<polygon fill="midnightblue" stroke="midnightblue" points="125.96,-51.5 135.96,-48 125.96,-44.5 125.96,-51.5"/>
</g>
<!-- Node4 -->
<g id="node4" class="node">
<title>Node4</title>
<g id="a_node4"><a xlink:href="namespaceutil.html#a868a26599b6b844d08d30063ac898319" target="_top" xlink:title="Returns true if a &lt; b.">
<polygon fill="none" stroke="black" points="141.5,-0.5 141.5,-19.5 205.5,-19.5 205.5,-0.5 141.5,-0.5"/>
<text text-anchor="middle" x="173.5" y="-7.5" font-family="Arial" font-size="10.00">util::isLess</text>
</a>
</g>
</g>
<!-- Node1&#45;&gt;Node4 -->
<g id="edge3" class="edge">
<title>Node1&#45;&gt;Node4</title>
<path fill="none" stroke="midnightblue" d="M99.02,-32.98C109.98,-29.55 121.51,-25.95 132.12,-22.63"/>
<polygon fill="midnightblue" stroke="midnightblue" points="133.44,-25.88 141.94,-19.56 131.35,-19.2 133.44,-25.88"/>
</g>
</g>
</svg>
