<?xml version="1.0" encoding="UTF-8" standalone="no"?>
<!DOCTYPE svg PUBLIC "-//W3C//DTD SVG 1.1//EN"
 "http://www.w3.org/Graphics/SVG/1.1/DTD/svg11.dtd">
<!-- Generated by graphviz version 2.43.0 (0)
 -->
<!-- Title: model::DEMModel::init Pages: 1 -->
<svg width="566pt" height="185pt"
 viewBox="0.00 0.00 566.00 185.00" xmlns="http://www.w3.org/2000/svg" xmlns:xlink="http://www.w3.org/1999/xlink">
<g id="graph0" class="graph" transform="scale(1 1) rotate(0) translate(4 181)">
<title>model::DEMModel::init</title>
<!-- Node1 -->
<g id="Node000001" class="node">
<title>Node1</title>
<g id="a_Node000001"><a xlink:title="Initialize remaining data members.">
<polygon fill="#999999" stroke="#666666" points="116,-74 0,-74 0,-55 116,-55 116,-74"/>
<text text-anchor="middle" x="58" y="-62" font-family="Arial" font-size="10.00">model::DEMModel::init</text>
</a>
</g>
</g>
<!-- Node2 -->
<g id="Node000002" class="node">
<title>Node2</title>
<g id="a_Node000002"><a xlink:href="namespacematerial.html#a3d863a3738051cdc61931186eede7edd" target="_top" xlink:title="Computes the moment &#160;term in state&#45;based peridynamic formulation.">
<polygon fill="white" stroke="#666666" points="283,-130 152,-130 152,-111 283,-111 283,-130"/>
<text text-anchor="middle" x="217.5" y="-118" font-family="Arial" font-size="10.00">material::computeStateMx</text>
</a>
</g>
</g>
<!-- Node1&#45;&gt;Node2 -->
<g id="edge1_Node000001_Node000002" class="edge">
<title>Node1&#45;&gt;Node2</title>
<g id="a_edge1_Node000001_Node000002"><a xlink:title=" ">
<path fill="none" stroke="#63b8ff" d="M80.53,-74.13C99.21,-82.28 127.08,-93.97 152,-102.5 157.64,-104.43 163.6,-106.31 169.54,-108.08"/>
<polygon fill="#63b8ff" stroke="#63b8ff" points="168.86,-111.53 179.44,-110.95 170.8,-104.8 168.86,-111.53"/>
</a>
</g>
</g>
<!-- Node7 -->
<g id="Node000007" class="node">
<title>Node7</title>
<g id="a_Node000007"><a xlink:href="namespaceutil_1_1methods.html#ac8ab8ee8690f8baa3e008256f7a5351d" target="_top" xlink:title="Returns true if degree of freedom is free.">
<polygon fill="white" stroke="#666666" points="270.5,-93 164.5,-93 164.5,-74 270.5,-74 270.5,-93"/>
<text text-anchor="middle" x="217.5" y="-81" font-family="Arial" font-size="10.00">util::methods::isFree</text>
</a>
</g>
</g>
<!-- Node1&#45;&gt;Node7 -->
<g id="edge6_Node000001_Node000007" class="edge">
<title>Node1&#45;&gt;Node7</title>
<g id="a_edge6_Node000001_Node000007"><a xlink:title=" ">
<path fill="none" stroke="#63b8ff" d="M116.31,-71.41C128.73,-72.91 141.92,-74.5 154.52,-76.02"/>
<polygon fill="#63b8ff" stroke="#63b8ff" points="154.12,-79.5 164.46,-77.22 154.95,-72.55 154.12,-79.5"/>
</a>
</g>
</g>
<!-- Node8 -->
<g id="Node000008" class="node">
<title>Node8</title>
<g id="a_Node000008"><a xlink:href="namespaceutil_1_1methods.html#a7ad94e441da65fc0f1cafe183fa252fe" target="_top" xlink:title="Returns the maximum from list of data.">
<polygon fill="white" stroke="#666666" points="266.5,-56 168.5,-56 168.5,-37 266.5,-37 266.5,-56"/>
<text text-anchor="middle" x="217.5" y="-44" font-family="Arial" font-size="10.00">util::methods::max</text>
</a>
</g>
</g>
<!-- Node1&#45;&gt;Node8 -->
<g id="edge7_Node000001_Node000008" class="edge">
<title>Node1&#45;&gt;Node8</title>
<g id="a_edge7_Node000001_Node000008"><a xlink:title=" ">
<path fill="none" stroke="#63b8ff" d="M116.31,-57.95C129.9,-56.4 144.42,-54.74 158.07,-53.18"/>
<polygon fill="#63b8ff" stroke="#63b8ff" points="158.77,-56.62 168.31,-52.01 157.97,-49.67 158.77,-56.62"/>
</a>
</g>
</g>
<!-- Node10 -->
<g id="Node000010" class="node">
<title>Node10</title>
<g id="a_Node000010"><a xlink:href="namespaceutil_1_1methods.html#aaf9cfac99073d034d41e10d4d17e59a2" target="_top" xlink:title="Returns difference between two times.">
<polygon fill="white" stroke="#666666" points="274,-19 161,-19 161,0 274,0 274,-19"/>
<text text-anchor="middle" x="217.5" y="-7" font-family="Arial" font-size="10.00">util::methods::timeDiff</text>
</a>
</g>
</g>
<!-- Node1&#45;&gt;Node10 -->
<g id="edge9_Node000001_Node000010" class="edge">
<title>Node1&#45;&gt;Node10</title>
<g id="a_edge9_Node000001_Node000010"><a xlink:title=" ">
<path fill="none" stroke="#63b8ff" d="M81.3,-54.85C99.99,-46.95 127.47,-35.78 152,-27.5 157.72,-25.57 163.77,-23.69 169.78,-21.9"/>
<polygon fill="#63b8ff" stroke="#63b8ff" points="171.16,-25.15 179.79,-19.01 169.22,-18.42 171.16,-25.15"/>
</a>
</g>
</g>
<!-- Node3 -->
<g id="Node000003" class="node">
<title>Node3</title>
<g id="a_Node000003"><a xlink:href="namespaceanonymous__namespace_02materialUtil_8cpp_03.html#aff1913c73e8759db1524549e3c4a187e" target="_top" xlink:title=" ">
<polygon fill="white" stroke="#666666" points="444,-170 322,-170 322,-129 444,-129 444,-170"/>
<text text-anchor="start" x="330" y="-158" font-family="Arial" font-size="10.00">anonymous_namespace</text>
<text text-anchor="start" x="330" y="-147" font-family="Arial" font-size="10.00">{materialUtil::cpp}</text>
<text text-anchor="middle" x="383" y="-136" font-family="Arial" font-size="10.00">::computeStateMxI</text>
</a>
</g>
</g>
<!-- Node2&#45;&gt;Node3 -->
<g id="edge2_Node000002_Node000003" class="edge">
<title>Node2&#45;&gt;Node3</title>
<g id="a_edge2_Node000002_Node000003"><a xlink:title=" ">
<path fill="none" stroke="#63b8ff" d="M272.49,-130.08C285.09,-132.31 298.69,-134.72 311.88,-137.06"/>
<polygon fill="#63b8ff" stroke="#63b8ff" points="311.4,-140.53 321.86,-138.83 312.62,-133.64 311.4,-140.53"/>
</a>
</g>
</g>
<!-- Node6 -->
<g id="Node000006" class="node">
<title>Node6</title>
<g id="a_Node000006"><a xlink:href="namespaceutil_1_1parallel.html#a4ad550a438091fb9cd924783e690764d" target="_top" xlink:title="Get number of threads to be used by taskflow.">
<polygon fill="white" stroke="#666666" points="447,-111 319,-111 319,-92 447,-92 447,-111"/>
<text text-anchor="middle" x="383" y="-99" font-family="Arial" font-size="10.00">util::parallel::getNThreads</text>
</a>
</g>
</g>
<!-- Node2&#45;&gt;Node6 -->
<g id="edge5_Node000002_Node000006" class="edge">
<title>Node2&#45;&gt;Node6</title>
<g id="a_edge5_Node000002_Node000006"><a xlink:title=" ">
<path fill="none" stroke="#63b8ff" d="M283.12,-112.99C291.59,-112.01 300.31,-110.99 308.91,-109.99"/>
<polygon fill="#63b8ff" stroke="#63b8ff" points="309.39,-113.46 318.92,-108.83 308.58,-106.51 309.39,-113.46"/>
</a>
</g>
</g>
<!-- Node4 -->
<g id="Node000004" class="node">
<title>Node4</title>
<g id="a_Node000004"><a xlink:href="namespaceutil.html#a227b5f8acbd7a403a033663c8893d631" target="_top" xlink:title="Returns true if a &gt; b.">
<polygon fill="white" stroke="#666666" points="558,-177 483,-177 483,-158 558,-158 558,-177"/>
<text text-anchor="middle" x="520.5" y="-165" font-family="Arial" font-size="10.00">util::isGreater</text>
</a>
</g>
</g>
<!-- Node3&#45;&gt;Node4 -->
<g id="edge3_Node000003_Node000004" class="edge">
<title>Node3&#45;&gt;Node4</title>
<g id="a_edge3_Node000003_Node000004"><a xlink:title=" ">
<path fill="none" stroke="#63b8ff" d="M444.22,-157.5C453.77,-158.77 463.53,-160.06 472.71,-161.28"/>
<polygon fill="#63b8ff" stroke="#63b8ff" points="472.42,-164.78 482.8,-162.62 473.34,-157.84 472.42,-164.78"/>
</a>
</g>
</g>
<!-- Node5 -->
<g id="Node000005" class="node">
<title>Node5</title>
<g id="a_Node000005"><a xlink:href="namespaceutil.html#a868a26599b6b844d08d30063ac898319" target="_top" xlink:title="Returns true if a &lt; b.">
<polygon fill="white" stroke="#666666" points="552.5,-140 488.5,-140 488.5,-121 552.5,-121 552.5,-140"/>
<text text-anchor="middle" x="520.5" y="-128" font-family="Arial" font-size="10.00">util::isLess</text>
</a>
</g>
</g>
<!-- Node3&#45;&gt;Node5 -->
<g id="edge4_Node000003_Node000005" class="edge">
<title>Node3&#45;&gt;Node5</title>
<g id="a_edge4_Node000003_Node000005"><a xlink:title=" ">
<path fill="none" stroke="#63b8ff" d="M444.22,-141.06C455.79,-139.43 467.66,-137.77 478.45,-136.26"/>
<polygon fill="#63b8ff" stroke="#63b8ff" points="479,-139.71 488.42,-134.86 478.03,-132.78 479,-139.71"/>
</a>
</g>
</g>
<!-- Node9 -->
<g id="Node000009" class="node">
<title>Node9</title>
<g id="a_Node000009"><a xlink:href="namespaceutil_1_1methods.html#afcbb8d0d56cac1187ad2945bd187f6cf" target="_top" xlink:title="Returns the index corresponding to maximum from list of data.">
<polygon fill="white" stroke="#666666" points="444,-56 322,-56 322,-37 444,-37 444,-56"/>
<text text-anchor="middle" x="383" y="-44" font-family="Arial" font-size="10.00">util::methods::maxIndex</text>
</a>
</g>
</g>
<!-- Node8&#45;&gt;Node9 -->
<g id="edge8_Node000008_Node000009" class="edge">
<title>Node8&#45;&gt;Node9</title>
<g id="a_edge8_Node000008_Node000009"><a xlink:title=" ">
<path fill="none" stroke="#63b8ff" d="M266.67,-46.5C280.75,-46.5 296.44,-46.5 311.6,-46.5"/>
<polygon fill="#63b8ff" stroke="#63b8ff" points="311.99,-50 321.99,-46.5 311.99,-43 311.99,-50"/>
</a>
</g>
</g>
</g>
</svg>
