<?xml version="1.0" encoding="UTF-8" standalone="no"?>
<!DOCTYPE svg PUBLIC "-//W3C//DTD SVG 1.1//EN"
 "http://www.w3.org/Graphics/SVG/1.1/DTD/svg11.dtd">
<!-- Generated by graphviz version 2.43.0 (0)
 -->
<!-- Title: util::geometry::Rectangle::isNear Pages: 1 -->
<svg width="577pt" height="201pt"
 viewBox="0.00 0.00 577.00 200.70" xmlns="http://www.w3.org/2000/svg" xmlns:xlink="http://www.w3.org/1999/xlink">
<g id="graph0" class="graph" transform="scale(1 1) rotate(0) translate(4 196.7)">
<title>util::geometry::Rectangle::isNear</title>
<!-- Node1 -->
<g id="Node000001" class="node">
<title>Node1</title>
<g id="a_Node000001"><a xlink:title="Checks if box is within given distance of this object.">
<polygon fill="#999999" stroke="#666666" points="126,-105.54 0,-105.54 0,-75.54 126,-75.54 126,-105.54"/>
<text text-anchor="start" x="8" y="-93.54" font-family="Arial" font-size="10.00">util::geometry::Rectangle</text>
<text text-anchor="middle" x="63" y="-82.54" font-family="Arial" font-size="10.00">::isNear</text>
</a>
</g>
</g>
<!-- Node2 -->
<g id="Node000002" class="node">
<title>Node2</title>
<g id="a_Node000002"><a xlink:href="namespaceutil.html#a21a4c0c512c91e3de03f432d304dd4bd" target="_top" xlink:title="Checks if given two boxes are within given distance from each other.">
<polygon fill="white" stroke="#666666" points="260,-100.04 162,-100.04 162,-81.04 260,-81.04 260,-100.04"/>
<text text-anchor="middle" x="211" y="-88.04" font-family="Arial" font-size="10.00">util::areBoxesNear</text>
</a>
</g>
</g>
<!-- Node1&#45;&gt;Node2 -->
<g id="edge1_Node000001_Node000002" class="edge">
<title>Node1&#45;&gt;Node2</title>
<g id="a_edge1_Node000001_Node000002"><a xlink:title=" ">
<path fill="none" stroke="#63b8ff" d="M126.34,-90.54C134.83,-90.54 143.51,-90.54 151.91,-90.54"/>
<polygon fill="#63b8ff" stroke="#63b8ff" points="152,-94.04 162,-90.54 152,-87.04 152,-94.04"/>
</a>
</g>
</g>
<!-- Node3 -->
<g id="Node000003" class="node">
<title>Node3</title>
<g id="a_Node000003"><a xlink:href="namespaceutil.html#af6ab7e8072282977994d4c13e470dfc7" target="_top" xlink:title="Computes the radius of smallest circle/sphere which can have the box inside.">
<polygon fill="white" stroke="#666666" points="425,-167.54 298,-167.54 298,-137.54 425,-137.54 425,-167.54"/>
<text text-anchor="start" x="306" y="-155.54" font-family="Arial" font-size="10.00">util::circumscribedRadius</text>
<text text-anchor="middle" x="361.5" y="-144.54" font-family="Arial" font-size="10.00">InBox</text>
</a>
</g>
</g>
<!-- Node2&#45;&gt;Node3 -->
<g id="edge2_Node000002_Node000003" class="edge">
<title>Node2&#45;&gt;Node3</title>
<g id="a_edge2_Node000002_Node000003"><a xlink:title=" ">
<path fill="none" stroke="#63b8ff" d="M234.88,-100.09C256.11,-108.95 288.33,-122.41 314.82,-133.47"/>
<polygon fill="#63b8ff" stroke="#63b8ff" points="313.72,-136.8 324.3,-137.42 316.42,-130.34 313.72,-136.8"/>
</a>
</g>
</g>
<!-- Node4 -->
<g id="Node000004" class="node">
<title>Node4</title>
<g id="a_Node000004"><a xlink:href="namespaceutil.html#a9a73e26a05894da76d4d0a922272b7cc" target="_top" xlink:title="Returns center point.">
<polygon fill="white" stroke="#666666" points="555,-183.04 477,-183.04 477,-164.04 555,-164.04 555,-183.04"/>
<text text-anchor="middle" x="516" y="-171.04" font-family="Arial" font-size="10.00">util::getCenter</text>
</a>
</g>
</g>
<!-- Node2&#45;&gt;Node4 -->
<g id="edge6_Node000002_Node000004" class="edge">
<title>Node2&#45;&gt;Node4</title>
<g id="a_edge6_Node000002_Node000004"><a xlink:title=" ">
<path fill="none" stroke="#63b8ff" d="M217.65,-100.17C229.39,-119.11 258.49,-160.74 296,-176.54 351.06,-199.72 421.03,-193.32 466.86,-184.91"/>
<polygon fill="#63b8ff" stroke="#63b8ff" points="467.68,-188.32 476.83,-182.98 466.35,-181.45 467.68,-188.32"/>
</a>
</g>
</g>
<!-- Node5 -->
<g id="Node000005" class="node">
<title>Node5</title>
<g id="a_Node000005"><a xlink:href="namespaceutil.html#a5a54fd6f6720dd75956e3ce06b814ad6" target="_top" xlink:title="Returns all corner points in the box.">
<polygon fill="white" stroke="#666666" points="569,-132.04 463,-132.04 463,-113.04 569,-113.04 569,-132.04"/>
<text text-anchor="middle" x="516" y="-120.04" font-family="Arial" font-size="10.00">util::getCornerPoints</text>
</a>
</g>
</g>
<!-- Node2&#45;&gt;Node5 -->
<g id="edge7_Node000002_Node000005" class="edge">
<title>Node2&#45;&gt;Node5</title>
<g id="a_edge7_Node000002_Node000005"><a xlink:title=" ">
<path fill="none" stroke="#63b8ff" d="M260.01,-95.61C312.2,-101.12 395.76,-109.94 452.9,-115.98"/>
<polygon fill="#63b8ff" stroke="#63b8ff" points="452.58,-119.46 462.9,-117.03 453.32,-112.5 452.58,-119.46"/>
</a>
</g>
</g>
<!-- Node7 -->
<g id="Node000007" class="node">
<title>Node7</title>
<g id="a_Node000007"><a xlink:href="namespaceutil.html#aa5b234685d92d1a0f48600c3a3708bfd" target="_top" xlink:title="Computes the radius of biggest circle/sphere completely within the object.">
<polygon fill="white" stroke="#666666" points="427,-81.04 296,-81.04 296,-62.04 427,-62.04 427,-81.04"/>
<text text-anchor="middle" x="361.5" y="-69.04" font-family="Arial" font-size="10.00">util::inscribedRadiusInBox</text>
</a>
</g>
</g>
<!-- Node2&#45;&gt;Node7 -->
<g id="edge8_Node000002_Node000007" class="edge">
<title>Node2&#45;&gt;Node7</title>
<g id="a_edge8_Node000002_Node000007"><a xlink:title=" ">
<path fill="none" stroke="#63b8ff" d="M260.21,-84.37C268.37,-83.32 277.01,-82.22 285.65,-81.11"/>
<polygon fill="#63b8ff" stroke="#63b8ff" points="286.31,-84.56 295.78,-79.82 285.42,-77.61 286.31,-84.56"/>
</a>
</g>
</g>
<!-- Node8 -->
<g id="Node000008" class="node">
<title>Node8</title>
<g id="a_Node000008"><a xlink:href="namespaceutil.html#a868a26599b6b844d08d30063ac898319" target="_top" xlink:title="Returns true if a &lt; b.">
<polygon fill="white" stroke="#666666" points="548,-25.04 484,-25.04 484,-6.04 548,-6.04 548,-25.04"/>
<text text-anchor="middle" x="516" y="-13.04" font-family="Arial" font-size="10.00">util::isLess</text>
</a>
</g>
</g>
<!-- Node2&#45;&gt;Node8 -->
<g id="edge10_Node000002_Node000008" class="edge">
<title>Node2&#45;&gt;Node8</title>
<g id="a_edge10_Node000002_Node000008"><a xlink:title=" ">
<path fill="none" stroke="#63b8ff" d="M218.95,-80.79C231.83,-63.68 261.29,-28.78 296,-15.54 354.5,6.78 428.35,0.38 473.61,-7.02"/>
<polygon fill="#63b8ff" stroke="#63b8ff" points="473.19,-10.5 483.64,-8.75 474.38,-3.6 473.19,-10.5"/>
</a>
</g>
</g>
<!-- Node9 -->
<g id="Node000009" class="node">
<title>Node9</title>
<g id="a_Node000009"><a xlink:href="namespaceutil.html#a09ac00ed5485b655c317c2fe46b1d740" target="_top" xlink:title="Returns true if point is inside box.">
<polygon fill="white" stroke="#666666" points="416,-44.04 307,-44.04 307,-25.04 416,-25.04 416,-44.04"/>
<text text-anchor="middle" x="361.5" y="-32.04" font-family="Arial" font-size="10.00">util::isPointInsideBox</text>
</a>
</g>
</g>
<!-- Node2&#45;&gt;Node9 -->
<g id="edge11_Node000002_Node000009" class="edge">
<title>Node2&#45;&gt;Node9</title>
<g id="a_edge11_Node000002_Node000009"><a xlink:title=" ">
<path fill="none" stroke="#63b8ff" d="M231.73,-80.98C248.57,-73.04 273.55,-61.75 296,-53.54 302.12,-51.3 308.63,-49.14 315.07,-47.12"/>
<polygon fill="#63b8ff" stroke="#63b8ff" points="316.53,-50.33 325.08,-44.08 314.5,-43.64 316.53,-50.33"/>
</a>
</g>
</g>
<!-- Node3&#45;&gt;Node4 -->
<g id="edge3_Node000003_Node000004" class="edge">
<title>Node3&#45;&gt;Node4</title>
<g id="a_edge3_Node000003_Node000004"><a xlink:title=" ">
<path fill="none" stroke="#63b8ff" d="M425.41,-161.2C439.13,-163.09 453.45,-165.06 466.51,-166.86"/>
<polygon fill="#63b8ff" stroke="#63b8ff" points="466.3,-170.36 476.68,-168.26 467.25,-163.43 466.3,-170.36"/>
</a>
</g>
</g>
<!-- Node3&#45;&gt;Node5 -->
<g id="edge4_Node000003_Node000005" class="edge">
<title>Node3&#45;&gt;Node5</title>
<g id="a_edge4_Node000003_Node000005"><a xlink:title=" ">
<path fill="none" stroke="#63b8ff" d="M425.41,-140.16C435.75,-138.13 446.42,-136.03 456.64,-134.02"/>
<polygon fill="#63b8ff" stroke="#63b8ff" points="457.55,-137.41 466.68,-132.04 456.2,-130.54 457.55,-137.41"/>
</a>
</g>
</g>
<!-- Node6 -->
<g id="Node000006" class="node">
<title>Node6</title>
<g id="a_Node000006"><a xlink:href="namespaceutil.html#a227b5f8acbd7a403a033663c8893d631" target="_top" xlink:title="Returns true if a &gt; b.">
<polygon fill="white" stroke="#666666" points="553.5,-81.04 478.5,-81.04 478.5,-62.04 553.5,-62.04 553.5,-81.04"/>
<text text-anchor="middle" x="516" y="-69.04" font-family="Arial" font-size="10.00">util::isGreater</text>
</a>
</g>
</g>
<!-- Node3&#45;&gt;Node6 -->
<g id="edge5_Node000003_Node000006" class="edge">
<title>Node3&#45;&gt;Node6</title>
<g id="a_edge5_Node000003_Node000006"><a xlink:title=" ">
<path fill="none" stroke="#63b8ff" d="M390.83,-137.49C418.57,-122.76 460.53,-100.47 487.86,-85.95"/>
<polygon fill="#63b8ff" stroke="#63b8ff" points="489.68,-88.95 496.86,-81.17 486.39,-82.77 489.68,-88.95"/>
</a>
</g>
</g>
<!-- Node7&#45;&gt;Node6 -->
<g id="edge9_Node000007_Node000006" class="edge">
<title>Node7&#45;&gt;Node6</title>
<g id="a_edge9_Node000007_Node000006"><a xlink:title=" ">
<path fill="none" stroke="#63b8ff" d="M427.17,-71.54C441.01,-71.54 455.37,-71.54 468.36,-71.54"/>
<polygon fill="#63b8ff" stroke="#63b8ff" points="468.46,-75.04 478.46,-71.54 468.46,-68.04 468.46,-75.04"/>
</a>
</g>
</g>
<!-- Node9&#45;&gt;Node6 -->
<g id="edge12_Node000009_Node000006" class="edge">
<title>Node9&#45;&gt;Node6</title>
<g id="a_edge12_Node000009_Node000006"><a xlink:title=" ">
<path fill="none" stroke="#63b8ff" d="M401.77,-44.07C422.19,-49.02 447.28,-55.11 468.64,-60.29"/>
<polygon fill="#63b8ff" stroke="#63b8ff" points="467.94,-63.72 478.48,-62.68 469.59,-56.92 467.94,-63.72"/>
</a>
</g>
</g>
<!-- Node9&#45;&gt;Node8 -->
<g id="edge13_Node000009_Node000008" class="edge">
<title>Node9&#45;&gt;Node8</title>
<g id="a_edge13_Node000009_Node000008"><a xlink:title=" ">
<path fill="none" stroke="#63b8ff" d="M416.27,-27.84C435.19,-25.48 456.14,-22.87 473.86,-20.66"/>
<polygon fill="#63b8ff" stroke="#63b8ff" points="474.39,-24.12 483.88,-19.41 473.52,-17.18 474.39,-24.12"/>
</a>
</g>
</g>
</g>
</svg>
