<?xml version="1.0" encoding="UTF-8" standalone="no"?>
<!DOCTYPE svg PUBLIC "-//W3C//DTD SVG 1.1//EN"
 "http://www.w3.org/Graphics/SVG/1.1/DTD/svg11.dtd">
<!-- Generated by graphviz version 2.43.0 (0)
 -->
<!-- Title: inp::Input::setParticleData Pages: 1 -->
<svg width="475pt" height="60pt"
 viewBox="0.00 0.00 475.00 60.00" xmlns="http://www.w3.org/2000/svg" xmlns:xlink="http://www.w3.org/1999/xlink">
<g id="graph0" class="graph" transform="scale(1 1) rotate(0) translate(4 56)">
<title>inp::Input::setParticleData</title>
<!-- Node1 -->
<g id="Node000001" class="node">
<title>Node1</title>
<g id="a_Node000001"><a xlink:title="Read particle data.">
<polygon fill="#999999" stroke="#666666" points="131,-24.5 0,-24.5 0,-5.5 131,-5.5 131,-24.5"/>
<text text-anchor="middle" x="65.5" y="-12.5" font-family="Arial" font-size="10.00">inp::Input::setParticleData</text>
</a>
</g>
</g>
<!-- Node2 -->
<g id="Node000002" class="node">
<title>Node2</title>
<g id="a_Node000002"><a xlink:href="structutil_1_1geometry_1_1GeomData.html#a1018c26daed053c99bb18f99a9ffc34b" target="_top" xlink:title="Copies the geometry details.">
<polygon fill="white" stroke="#666666" points="296,-52 167,-52 167,-22 296,-22 296,-52"/>
<text text-anchor="start" x="175" y="-40" font-family="Arial" font-size="10.00">util::geometry::GeomData</text>
<text text-anchor="middle" x="231.5" y="-29" font-family="Arial" font-size="10.00">::copyGeometry</text>
</a>
</g>
</g>
<!-- Node1&#45;&gt;Node2 -->
<g id="edge1_Node000001_Node000002" class="edge">
<title>Node1&#45;&gt;Node2</title>
<g id="a_edge1_Node000001_Node000002"><a xlink:title=" ">
<path fill="none" stroke="#63b8ff" d="M131.32,-23.69C139.75,-24.83 148.43,-25.99 156.99,-27.14"/>
<polygon fill="#63b8ff" stroke="#63b8ff" points="156.58,-30.62 166.96,-28.48 157.51,-23.68 156.58,-30.62"/>
</a>
</g>
</g>
<!-- Node3 -->
<g id="Node000003" class="node">
<title>Node3</title>
<g id="a_Node000003"><a xlink:href="namespaceutil_1_1geometry.html#ae276de197ea051002fc7c062c259537e" target="_top" xlink:title=" ">
<polygon fill="white" stroke="#666666" points="467,-30 332,-30 332,0 467,0 467,-30"/>
<text text-anchor="start" x="340" y="-18" font-family="Arial" font-size="10.00">util::geometry::createGeom</text>
<text text-anchor="middle" x="399.5" y="-7" font-family="Arial" font-size="10.00">Object</text>
</a>
</g>
</g>
<!-- Node1&#45;&gt;Node3 -->
<g id="edge3_Node000001_Node000003" class="edge">
<title>Node1&#45;&gt;Node3</title>
<g id="a_edge3_Node000001_Node000003"><a xlink:title=" ">
<path fill="none" stroke="#63b8ff" d="M131.1,-13.52C143.04,-13.31 155.4,-13.12 167,-13 224.33,-12.43 238.67,-12.44 296,-13 304.31,-13.08 313.01,-13.2 321.67,-13.34"/>
<polygon fill="#63b8ff" stroke="#63b8ff" points="321.73,-16.84 331.79,-13.51 321.85,-9.84 321.73,-16.84"/>
</a>
</g>
</g>
<!-- Node2&#45;&gt;Node3 -->
<g id="edge2_Node000002_Node000003" class="edge">
<title>Node2&#45;&gt;Node3</title>
<g id="a_edge2_Node000002_Node000003"><a xlink:title=" ">
<path fill="none" stroke="#63b8ff" d="M296.21,-28.56C304.62,-27.44 313.31,-26.29 321.91,-25.15"/>
<polygon fill="#63b8ff" stroke="#63b8ff" points="322.48,-28.61 331.94,-23.82 321.56,-21.67 322.48,-28.61"/>
</a>
</g>
</g>
</g>
</svg>
