<?xml version="1.0" encoding="UTF-8" standalone="no"?>
<!DOCTYPE svg PUBLIC "-//W3C//DTD SVG 1.1//EN"
 "http://www.w3.org/Graphics/SVG/1.1/DTD/svg11.dtd">
<!-- Generated by graphviz version 2.43.0 (0)
 -->
<!-- Title: nsearch::NFlannSearchKd&lt; dim &gt; Pages: 1 -->
<svg width="294pt" height="464pt"
 viewBox="0.00 0.00 293.50 464.00" xmlns="http://www.w3.org/2000/svg" xmlns:xlink="http://www.w3.org/1999/xlink">
<g id="graph0" class="graph" transform="scale(1 1) rotate(0) translate(4 460)">
<title>nsearch::NFlannSearchKd&lt; dim &gt;</title>
<!-- Node1 -->
<g id="Node000001" class="node">
<title>Node1</title>
<g id="a_Node000001"><a xlink:title="A class for nearest neighbor search using nanoflann library.">
<polygon fill="#999999" stroke="transparent" points="210,-210 76,-210 76,0 210,0 210,-210"/>
<text text-anchor="start" x="85.5" y="-198" font-family="Arial" font-size="10.00">nsearch::NFlannSearchKd</text>
<text text-anchor="start" x="126" y="-187" font-family="Arial" font-size="10.00">&lt; dim &gt;</text>
<text text-anchor="start" x="80" y="-172" font-family="Arial" font-size="10.00">+</text>
<text text-anchor="start" x="91" y="-172" font-family="Arial" font-size="10.00">d_tree</text>
<text text-anchor="start" x="80" y="-157" font-family="Arial" font-size="10.00">+</text>
<text text-anchor="start" x="91" y="-157" font-family="Arial" font-size="10.00">d_params</text>
<text text-anchor="start" x="80" y="-142" font-family="Arial" font-size="10.00">+</text>
<text text-anchor="start" x="91" y="-142" font-family="Arial" font-size="10.00">NFlannSearchKd()</text>
<text text-anchor="start" x="80" y="-127" font-family="Arial" font-size="10.00">+</text>
<text text-anchor="start" x="91" y="-127" font-family="Arial" font-size="10.00">setInputCloud()</text>
<text text-anchor="start" x="80" y="-112" font-family="Arial" font-size="10.00">+</text>
<text text-anchor="start" x="91" y="-112" font-family="Arial" font-size="10.00">updatePointCloud()</text>
<text text-anchor="start" x="80" y="-97" font-family="Arial" font-size="10.00">+</text>
<text text-anchor="start" x="91" y="-97" font-family="Arial" font-size="10.00">radiusSearch()</text>
<text text-anchor="start" x="80" y="-82" font-family="Arial" font-size="10.00">+</text>
<text text-anchor="start" x="91" y="-82" font-family="Arial" font-size="10.00">radiusSearch()</text>
<text text-anchor="start" x="80" y="-67" font-family="Arial" font-size="10.00">+</text>
<text text-anchor="start" x="91" y="-67" font-family="Arial" font-size="10.00">radiusSearchExcludeTag()</text>
<text text-anchor="start" x="80" y="-52" font-family="Arial" font-size="10.00">+</text>
<text text-anchor="start" x="91" y="-52" font-family="Arial" font-size="10.00">radiusSearchExcludeTag()</text>
<text text-anchor="start" x="80" y="-37" font-family="Arial" font-size="10.00">+</text>
<text text-anchor="start" x="91" y="-37" font-family="Arial" font-size="10.00">radiusSearchIncludeTag()</text>
<text text-anchor="start" x="80" y="-22" font-family="Arial" font-size="10.00">+</text>
<text text-anchor="start" x="91" y="-22" font-family="Arial" font-size="10.00">radiusSearchIncludeTag()</text>
<text text-anchor="start" x="80" y="-7" font-family="Arial" font-size="10.00">+</text>
<text text-anchor="start" x="91" y="-7" font-family="Arial" font-size="10.00">closestPoint()</text>
<polygon fill="#666666" stroke="#666666" points="76,-182 76,-182 210,-182 210,-182 76,-182"/>
<polygon fill="#666666" stroke="#666666" points="76,-152 76,-152 89,-152 89,-152 76,-152"/>
<polygon fill="#666666" stroke="#666666" points="89,-152 89,-152 210,-152 210,-152 89,-152"/>
<polygon fill="none" stroke="#666666" points="76,0 76,-210 210,-210 210,0 76,0"/>
</a>
</g>
</g>
<!-- Node2 -->
<g id="Node000002" class="node">
<title>Node2</title>
<g id="a_Node000002"><a xlink:href="classnsearch_1_1BaseNSearch.html" target="_top" xlink:title="A class for nearest neighbor search.">
<polygon fill="white" stroke="transparent" points="134,-456 0,-456 0,-257 134,-257 134,-456"/>
<text text-anchor="start" x="16" y="-443.5" font-family="Arial" font-size="10.00">nsearch::BaseNSearch</text>
<text text-anchor="start" x="4" y="-428.5" font-family="Arial" font-size="10.00">+</text>
<text text-anchor="start" x="15" y="-428.5" font-family="Arial" font-size="10.00">d_debug</text>
<text text-anchor="start" x="4" y="-413.5" font-family="Arial" font-size="10.00">+</text>
<text text-anchor="start" x="15" y="-413.5" font-family="Arial" font-size="10.00">d_treeType</text>
<text text-anchor="start" x="4" y="-398.5" font-family="Arial" font-size="10.00">+</text>
<text text-anchor="start" x="15" y="-398.5" font-family="Arial" font-size="10.00">BaseNSearch()</text>
<text text-anchor="start" x="4" y="-383.5" font-family="Arial" font-size="10.00">+</text>
<text text-anchor="start" x="15" y="-383.5" font-family="Arial" font-size="10.00">updatePointCloud()</text>
<text text-anchor="start" x="4" y="-368.5" font-family="Arial" font-size="10.00">+</text>
<text text-anchor="start" x="15" y="-368.5" font-family="Arial" font-size="10.00">setInputCloud()</text>
<text text-anchor="start" x="4" y="-353.5" font-family="Arial" font-size="10.00">+</text>
<text text-anchor="start" x="15" y="-353.5" font-family="Arial" font-size="10.00">radiusSearch()</text>
<text text-anchor="start" x="4" y="-338.5" font-family="Arial" font-size="10.00">+</text>
<text text-anchor="start" x="15" y="-338.5" font-family="Arial" font-size="10.00">radiusSearch()</text>
<text text-anchor="start" x="4" y="-323.5" font-family="Arial" font-size="10.00">+</text>
<text text-anchor="start" x="15" y="-323.5" font-family="Arial" font-size="10.00">radiusSearchExcludeTag()</text>
<text text-anchor="start" x="4" y="-308.5" font-family="Arial" font-size="10.00">+</text>
<text text-anchor="start" x="15" y="-308.5" font-family="Arial" font-size="10.00">radiusSearchExcludeTag()</text>
<text text-anchor="start" x="4" y="-293.5" font-family="Arial" font-size="10.00">+</text>
<text text-anchor="start" x="15" y="-293.5" font-family="Arial" font-size="10.00">radiusSearchIncludeTag()</text>
<text text-anchor="start" x="4" y="-278.5" font-family="Arial" font-size="10.00">+</text>
<text text-anchor="start" x="15" y="-278.5" font-family="Arial" font-size="10.00">radiusSearchIncludeTag()</text>
<text text-anchor="start" x="4" y="-263.5" font-family="Arial" font-size="10.00">+</text>
<text text-anchor="start" x="15" y="-263.5" font-family="Arial" font-size="10.00">closestPoint()</text>
<polygon fill="#666666" stroke="#666666" points="0,-438.5 0,-438.5 134,-438.5 134,-438.5 0,-438.5"/>
<polygon fill="#666666" stroke="#666666" points="0,-408.5 0,-408.5 13,-408.5 13,-408.5 0,-408.5"/>
<polygon fill="#666666" stroke="#666666" points="13,-408.5 13,-408.5 134,-408.5 134,-408.5 13,-408.5"/>
<polygon fill="none" stroke="#666666" points="0,-257 0,-456 134,-456 134,-257 0,-257"/>
</a>
</g>
</g>
<!-- Node2&#45;&gt;Node1 -->
<g id="edge1_Node000001_Node000002" class="edge">
<title>Node2&#45;&gt;Node1</title>
<g id="a_edge1_Node000001_Node000002"><a xlink:title=" ">
<path fill="none" stroke="#63b8ff" d="M100.02,-247.09C103.77,-234.79 107.58,-222.28 111.31,-210.04"/>
<polygon fill="none" stroke="#63b8ff" points="96.6,-246.31 97.04,-256.89 103.3,-248.34 96.6,-246.31"/>
</a>
</g>
</g>
<!-- Node3 -->
<g id="Node000003" class="node">
<title>Node3</title>
<g id="a_Node000003"><a xlink:href="structnsearch_1_1PointCloudAdaptor.html" target="_top" xlink:title="Allows custom point cloud data structure to interface with nanoflann. See https://github....">
<polygon fill="white" stroke="transparent" points="285.5,-411 152.5,-411 152.5,-302 285.5,-302 285.5,-411"/>
<text text-anchor="start" x="158" y="-398.5" font-family="Arial" font-size="10.00">nsearch::PointCloudAdaptor</text>
<text text-anchor="start" x="158.5" y="-383.5" font-family="Arial" font-size="10.00">+</text>
<text text-anchor="start" x="171" y="-383.5" font-family="Arial" font-size="10.00">d_obj</text>
<text text-anchor="start" x="158.5" y="-368.5" font-family="Arial" font-size="10.00">+</text>
<text text-anchor="start" x="171" y="-368.5" font-family="Arial" font-size="10.00">PointCloudAdaptor()</text>
<text text-anchor="start" x="158.5" y="-353.5" font-family="Arial" font-size="10.00">+</text>
<text text-anchor="start" x="171" y="-353.5" font-family="Arial" font-size="10.00">pointCloud()</text>
<text text-anchor="start" x="158.5" y="-338.5" font-family="Arial" font-size="10.00">+</text>
<text text-anchor="start" x="171" y="-338.5" font-family="Arial" font-size="10.00">kdtree_get_point_count()</text>
<text text-anchor="start" x="158.5" y="-323.5" font-family="Arial" font-size="10.00">+</text>
<text text-anchor="start" x="171" y="-323.5" font-family="Arial" font-size="10.00">kdtree_get_pt()</text>
<text text-anchor="start" x="158.5" y="-308.5" font-family="Arial" font-size="10.00">+</text>
<text text-anchor="start" x="171" y="-308.5" font-family="Arial" font-size="10.00">kdtree_get_bbox()</text>
<polygon fill="#666666" stroke="#666666" points="153,-393.5 153,-393.5 286,-393.5 286,-393.5 153,-393.5"/>
<polygon fill="#666666" stroke="#666666" points="153,-378.5 153,-378.5 169,-378.5 169,-378.5 153,-378.5"/>
<polygon fill="#666666" stroke="#666666" points="169,-378.5 169,-378.5 286,-378.5 286,-378.5 169,-378.5"/>
<polygon fill="none" stroke="#666666" points="152.5,-302 152.5,-411 285.5,-411 285.5,-302 152.5,-302"/>
</a>
</g>
</g>
<!-- Node3&#45;&gt;Node1 -->
<g id="edge2_Node000001_Node000003" class="edge">
<title>Node3&#45;&gt;Node1</title>
<g id="a_edge2_Node000001_Node000003"><a xlink:title=" ">
<path fill="none" stroke="#63b8ff" d="M202.7,-301.98C195.51,-278.38 186.76,-249.67 178.21,-221.58"/>
<polygon fill="none" stroke="#63b8ff" points="178.18,-221.5 172.61,-216.93 174.69,-210.03 180.26,-214.6 178.18,-221.5"/>
</a>
</g>
<text text-anchor="middle" x="205.5" y="-231" font-family="Arial" font-size="10.00" fill="grey"> +d_cloud</text>
</g>
</g>
</svg>
