<?xml version="1.0" encoding="UTF-8" standalone="no"?>
<!DOCTYPE svg PUBLIC "-//W3C//DTD SVG 1.1//EN"
 "http://www.w3.org/Graphics/SVG/1.1/DTD/svg11.dtd">
<!-- Generated by graphviz version 2.43.0 (0)
 -->
<!-- Title: material::Material::print Pages: 1 -->
<svg width="349pt" height="38pt"
 viewBox="0.00 0.00 349.00 38.00" xmlns="http://www.w3.org/2000/svg" xmlns:xlink="http://www.w3.org/1999/xlink">
<g id="graph0" class="graph" transform="scale(1 1) rotate(0) translate(4 34)">
<title>material::Material::print</title>
<!-- Node1 -->
<g id="Node000001" class="node">
<title>Node1</title>
<g id="a_Node000001"><a xlink:title="Prints the information about the object.">
<polygon fill="#999999" stroke="#666666" points="92,-30 0,-30 0,0 92,0 92,-30"/>
<text text-anchor="start" x="8" y="-18" font-family="Arial" font-size="10.00">material::Material</text>
<text text-anchor="middle" x="46" y="-7" font-family="Arial" font-size="10.00">::print</text>
</a>
</g>
</g>
<!-- Node2 -->
<g id="Node000002" class="node">
<title>Node2</title>
<g id="a_Node000002"><a xlink:href="classmaterial_1_1Material.html#af07301c0c31cd2d39eb4f4e9393ca096" target="_top" xlink:title="Returns the string containing printable information about the object.">
<polygon fill="white" stroke="#666666" points="220,-30 128,-30 128,0 220,0 220,-30"/>
<text text-anchor="start" x="136" y="-18" font-family="Arial" font-size="10.00">material::Material</text>
<text text-anchor="middle" x="174" y="-7" font-family="Arial" font-size="10.00">::printStr</text>
</a>
</g>
</g>
<!-- Node1&#45;&gt;Node2 -->
<g id="edge1_Node000001_Node000002" class="edge">
<title>Node1&#45;&gt;Node2</title>
<g id="a_edge1_Node000001_Node000002"><a xlink:title=" ">
<path fill="none" stroke="#63b8ff" d="M92.13,-15C100.37,-15 109.04,-15 117.53,-15"/>
<polygon fill="#63b8ff" stroke="#63b8ff" points="117.76,-18.5 127.76,-15 117.76,-11.5 117.76,-18.5"/>
</a>
</g>
</g>
<!-- Node3 -->
<g id="Node000003" class="node">
<title>Node3</title>
<g id="a_Node000003"><a xlink:href="namespaceutil_1_1io.html#a38afb09a152cca4061850f4123bd3aeb" target="_top" xlink:title="Returns tab spaces of given size.">
<polygon fill="white" stroke="#666666" points="341,-24.5 256,-24.5 256,-5.5 341,-5.5 341,-24.5"/>
<text text-anchor="middle" x="298.5" y="-12.5" font-family="Arial" font-size="10.00">util::io::getTabS</text>
</a>
</g>
</g>
<!-- Node2&#45;&gt;Node3 -->
<g id="edge2_Node000002_Node000003" class="edge">
<title>Node2&#45;&gt;Node3</title>
<g id="a_edge2_Node000002_Node000003"><a xlink:title=" ">
<path fill="none" stroke="#63b8ff" d="M220.27,-15C228.5,-15 237.16,-15 245.57,-15"/>
<polygon fill="#63b8ff" stroke="#63b8ff" points="245.67,-18.5 255.67,-15 245.66,-11.5 245.67,-18.5"/>
</a>
</g>
</g>
</g>
</svg>
