<?xml version="1.0" encoding="UTF-8" standalone="no"?>
<!DOCTYPE svg PUBLIC "-//W3C//DTD SVG 1.1//EN"
 "http://www.w3.org/Graphics/SVG/1.1/DTD/svg11.dtd">
<!-- Generated by graphviz version 2.43.0 (0)
 -->
<!-- Title: material::PdState::getBondEF Pages: 1 -->
<svg width="414pt" height="39pt"
 viewBox="0.00 0.00 414.00 39.00" xmlns="http://www.w3.org/2000/svg" xmlns:xlink="http://www.w3.org/1999/xlink">
<g id="graph0" class="graph" transform="scale(1 1) rotate(0) translate(4 35)">
<title>material::PdState::getBondEF</title>
<!-- Node1 -->
<g id="node1" class="node">
<title>Node1</title>
<g id="a_node1"><a xlink:title="Returns energy and force between bond due to state&#45;based model.">
<polygon fill="#bfbfbf" stroke="black" points="0,-0.5 0,-30.5 98,-30.5 98,-0.5 0,-0.5"/>
<text text-anchor="start" x="8" y="-18.5" font-family="Arial" font-size="10.00">material::PdState::</text>
<text text-anchor="middle" x="49" y="-7.5" font-family="Arial" font-size="10.00">getBondEF</text>
</a>
</g>
</g>
<!-- Node2 -->
<g id="node2" class="node">
<title>Node2</title>
<g id="a_node2"><a xlink:href="classmaterial_1_1PdState.html#ade96a32da3f538f7aeb5705134b5ce41" target="_top" xlink:title="Returns the value of influence function.">
<polygon fill="none" stroke="black" points="134,-0.5 134,-30.5 232,-30.5 232,-0.5 134,-0.5"/>
<text text-anchor="start" x="142" y="-18.5" font-family="Arial" font-size="10.00">material::PdState::</text>
<text text-anchor="middle" x="183" y="-7.5" font-family="Arial" font-size="10.00">getInfFn</text>
</a>
</g>
</g>
<!-- Node1&#45;&gt;Node2 -->
<g id="edge1" class="edge">
<title>Node1&#45;&gt;Node2</title>
<path fill="none" stroke="midnightblue" d="M98.03,-15.5C106.31,-15.5 115,-15.5 123.52,-15.5"/>
<polygon fill="midnightblue" stroke="midnightblue" points="123.79,-19 133.79,-15.5 123.79,-12 123.79,-19"/>
</g>
<!-- Node3 -->
<g id="node3" class="node">
<title>Node3</title>
<g id="a_node3"><a xlink:href="namespaceanonymous__namespace_02material_8h_03.html#a3b96f3362934d0df7c36e6e59711e01a" target="_top" xlink:title="Returns the value of influence function.">
<polygon fill="none" stroke="black" points="268,-0.5 268,-30.5 406,-30.5 406,-0.5 268,-0.5"/>
<text text-anchor="start" x="276" y="-18.5" font-family="Arial" font-size="10.00">anonymous_namespace</text>
<text text-anchor="middle" x="337" y="-7.5" font-family="Arial" font-size="10.00">{material::h}::getGlobalInfFn</text>
</a>
</g>
</g>
<!-- Node2&#45;&gt;Node3 -->
<g id="edge2" class="edge">
<title>Node2&#45;&gt;Node3</title>
<path fill="none" stroke="midnightblue" d="M232.09,-15.5C240.28,-15.5 248.97,-15.5 257.71,-15.5"/>
<polygon fill="midnightblue" stroke="midnightblue" points="257.95,-19 267.95,-15.5 257.95,-12 257.95,-19"/>
</g>
</g>
</svg>
