<?xml version="1.0" encoding="UTF-8" standalone="no"?>
<!DOCTYPE svg PUBLIC "-//W3C//DTD SVG 1.1//EN"
 "http://www.w3.org/Graphics/SVG/1.1/DTD/svg11.dtd">
<!-- Generated by graphviz version 2.43.0 (0)
 -->
<!-- Title: material::PmbMaterial::PmbMaterial Pages: 1 -->
<svg width="432pt" height="294pt"
 viewBox="0.00 0.00 432.00 294.00" xmlns="http://www.w3.org/2000/svg" xmlns:xlink="http://www.w3.org/1999/xlink">
<g id="graph0" class="graph" transform="scale(1 1) rotate(0) translate(4 290)">
<title>material::PmbMaterial::PmbMaterial</title>
<!-- Node1 -->
<g id="node1" class="node">
<title>Node1</title>
<g id="a_node1"><a xlink:title="Constructor.">
<polygon fill="#bfbfbf" stroke="black" points="0,-128 0,-158 112,-158 112,-128 0,-128"/>
<text text-anchor="start" x="8" y="-146" font-family="Arial" font-size="10.00">material::PmbMaterial</text>
<text text-anchor="middle" x="56" y="-135" font-family="Arial" font-size="10.00">::PmbMaterial</text>
</a>
</g>
</g>
<!-- Node2 -->
<g id="node2" class="node">
<title>Node2</title>
<g id="a_node2"><a xlink:href="classmaterial_1_1PmbMaterial.html#a0ff6d71e84685ddfaba18d49308249c1" target="_top" xlink:title="Compute material model parameters.">
<polygon fill="none" stroke="black" points="148,-128 148,-158 260,-158 260,-128 148,-128"/>
<text text-anchor="start" x="156" y="-146" font-family="Arial" font-size="10.00">material::PmbMaterial</text>
<text text-anchor="middle" x="204" y="-135" font-family="Arial" font-size="10.00">::computeParameters</text>
</a>
</g>
</g>
<!-- Node1&#45;&gt;Node2 -->
<g id="edge1" class="edge">
<title>Node1&#45;&gt;Node2</title>
<path fill="none" stroke="midnightblue" d="M112.2,-143C120.46,-143 129.05,-143 137.51,-143"/>
<polygon fill="midnightblue" stroke="midnightblue" points="137.73,-146.5 147.73,-143 137.73,-139.5 137.73,-146.5"/>
</g>
<!-- Node3 -->
<g id="node3" class="node">
<title>Node3</title>
<g id="a_node3"><a xlink:href="namespaceutil.html#a227b5f8acbd7a403a033663c8893d631" target="_top" xlink:title="Returns true if a &gt; b.">
<polygon fill="none" stroke="black" points="322.5,-266.5 322.5,-285.5 397.5,-285.5 397.5,-266.5 322.5,-266.5"/>
<text text-anchor="middle" x="360" y="-273.5" font-family="Arial" font-size="10.00">util::isGreater</text>
</a>
</g>
</g>
<!-- Node2&#45;&gt;Node3 -->
<g id="edge2" class="edge">
<title>Node2&#45;&gt;Node3</title>
<path fill="none" stroke="midnightblue" d="M213.16,-158.38C226.96,-182.9 257.2,-230.74 296,-257 301.03,-260.4 306.69,-263.21 312.5,-265.53"/>
<polygon fill="midnightblue" stroke="midnightblue" points="311.74,-268.97 322.33,-268.98 314.05,-262.37 311.74,-268.97"/>
</g>
<!-- Node4 -->
<g id="node4" class="node">
<title>Node4</title>
<g id="a_node4"><a xlink:href="namespaceutil.html#a868a26599b6b844d08d30063ac898319" target="_top" xlink:title="Returns true if a &lt; b.">
<polygon fill="none" stroke="black" points="328,-228.5 328,-247.5 392,-247.5 392,-228.5 328,-228.5"/>
<text text-anchor="middle" x="360" y="-235.5" font-family="Arial" font-size="10.00">util::isLess</text>
</a>
</g>
</g>
<!-- Node2&#45;&gt;Node4 -->
<g id="edge3" class="edge">
<title>Node2&#45;&gt;Node4</title>
<path fill="none" stroke="midnightblue" d="M219.38,-158.26C236.24,-175.32 265.74,-202.69 296,-219 302.85,-222.69 310.52,-225.77 318.08,-228.29"/>
<polygon fill="midnightblue" stroke="midnightblue" points="317.3,-231.71 327.89,-231.29 319.35,-225.02 317.3,-231.71"/>
</g>
<!-- Node5 -->
<g id="node5" class="node">
<title>Node5</title>
<g id="a_node5"><a xlink:href="structinp_1_1MatData.html#affdc48e3cd3c1b8d5ecd9138e48c0997" target="_top" xlink:title="Compute Young&#39;s modulus E from Bulk modulus K and Poisson&#39;s ratio nu.">
<polygon fill="none" stroke="black" points="313,-190.5 313,-209.5 407,-209.5 407,-190.5 313,-190.5"/>
<text text-anchor="middle" x="360" y="-197.5" font-family="Arial" font-size="10.00">inp::MatData::toE</text>
</a>
</g>
</g>
<!-- Node2&#45;&gt;Node5 -->
<g id="edge4" class="edge">
<title>Node2&#45;&gt;Node5</title>
<path fill="none" stroke="midnightblue" d="M238.81,-158.09C255.81,-165.43 276.82,-174.12 296,-181 302.14,-183.2 308.67,-185.37 315.12,-187.4"/>
<polygon fill="midnightblue" stroke="midnightblue" points="314.53,-190.88 325.11,-190.48 316.59,-184.19 314.53,-190.88"/>
</g>
<!-- Node6 -->
<g id="node6" class="node">
<title>Node6</title>
<g id="a_node6"><a xlink:href="structinp_1_1MatData.html#a0f3e68c535e66c2419dd85307043cb2c" target="_top" xlink:title="Compute critical energy release rate Gc from critical stress&#45;intensity factor KIc,...">
<polygon fill="none" stroke="black" points="310,-152.5 310,-171.5 410,-171.5 410,-152.5 310,-152.5"/>
<text text-anchor="middle" x="360" y="-159.5" font-family="Arial" font-size="10.00">inp::MatData::toGc</text>
</a>
</g>
</g>
<!-- Node2&#45;&gt;Node6 -->
<g id="edge5" class="edge">
<title>Node2&#45;&gt;Node6</title>
<path fill="none" stroke="midnightblue" d="M260.16,-149.81C272.97,-151.39 286.65,-153.07 299.62,-154.67"/>
<polygon fill="midnightblue" stroke="midnightblue" points="299.49,-158.18 309.85,-155.94 300.35,-151.24 299.49,-158.18"/>
</g>
<!-- Node7 -->
<g id="node7" class="node">
<title>Node7</title>
<g id="a_node7"><a xlink:href="structinp_1_1MatData.html#a51cdc2a12304fb5fb9721ecfc06f6c03" target="_top" xlink:title="Compute shear modulus from Young&#39;s modulus E and Poisson&#39;s ratio nu.">
<polygon fill="none" stroke="black" points="309.5,-114.5 309.5,-133.5 410.5,-133.5 410.5,-114.5 309.5,-114.5"/>
<text text-anchor="middle" x="360" y="-121.5" font-family="Arial" font-size="10.00">inp::MatData::toGE</text>
</a>
</g>
</g>
<!-- Node2&#45;&gt;Node7 -->
<g id="edge6" class="edge">
<title>Node2&#45;&gt;Node7</title>
<path fill="none" stroke="midnightblue" d="M260.16,-136.19C272.83,-134.63 286.36,-132.96 299.21,-131.38"/>
<polygon fill="midnightblue" stroke="midnightblue" points="299.84,-134.82 309.34,-130.13 298.99,-127.88 299.84,-134.82"/>
</g>
<!-- Node8 -->
<g id="node8" class="node">
<title>Node8</title>
<g id="a_node8"><a xlink:href="structinp_1_1MatData.html#a31efc121179610c7e9a9f97758693131" target="_top" xlink:title="Compute Bulk modulus K from Young&#39;s modulus K and Poisson&#39;s ratio nu.">
<polygon fill="none" stroke="black" points="313,-76.5 313,-95.5 407,-95.5 407,-76.5 313,-76.5"/>
<text text-anchor="middle" x="360" y="-83.5" font-family="Arial" font-size="10.00">inp::MatData::toK</text>
</a>
</g>
</g>
<!-- Node2&#45;&gt;Node8 -->
<g id="edge7" class="edge">
<title>Node2&#45;&gt;Node8</title>
<path fill="none" stroke="midnightblue" d="M238.81,-127.91C255.81,-120.57 276.82,-111.88 296,-105 302.14,-102.8 308.67,-100.63 315.12,-98.6"/>
<polygon fill="midnightblue" stroke="midnightblue" points="316.59,-101.81 325.11,-95.52 314.53,-95.12 316.59,-101.81"/>
</g>
<!-- Node9 -->
<g id="node9" class="node">
<title>Node9</title>
<g id="a_node9"><a xlink:href="structinp_1_1MatData.html#a25dde9c5e5597dafe1b20f997bbf8be1" target="_top" xlink:title="Compute critical stress&#45;intensity factor KIc from critical energy release rate Gc,...">
<polygon fill="none" stroke="black" points="309,-38.5 309,-57.5 411,-57.5 411,-38.5 309,-38.5"/>
<text text-anchor="middle" x="360" y="-45.5" font-family="Arial" font-size="10.00">inp::MatData::toKIc</text>
</a>
</g>
</g>
<!-- Node2&#45;&gt;Node9 -->
<g id="edge8" class="edge">
<title>Node2&#45;&gt;Node9</title>
<path fill="none" stroke="midnightblue" d="M219.38,-127.74C236.24,-110.68 265.74,-83.31 296,-67 300.18,-64.75 304.66,-62.72 309.24,-60.92"/>
<polygon fill="midnightblue" stroke="midnightblue" points="310.48,-64.19 318.7,-57.51 308.11,-57.61 310.48,-64.19"/>
</g>
<!-- Node10 -->
<g id="node10" class="node">
<title>Node10</title>
<g id="a_node10"><a xlink:href="structinp_1_1MatData.html#a0f7db5318c72dd88b8edc2a9c9c1c4e7" target="_top" xlink:title="Compute Lame first parameter lambda from Young&#39;s modulus E and Poisson&#39;s ratio nu.">
<polygon fill="none" stroke="black" points="296,-0.5 296,-19.5 424,-19.5 424,-0.5 296,-0.5"/>
<text text-anchor="middle" x="360" y="-7.5" font-family="Arial" font-size="10.00">inp::MatData::toLambdaE</text>
</a>
</g>
</g>
<!-- Node2&#45;&gt;Node10 -->
<g id="edge9" class="edge">
<title>Node2&#45;&gt;Node10</title>
<path fill="none" stroke="midnightblue" d="M213.16,-127.62C226.96,-103.1 257.2,-55.26 296,-29 298.93,-27.02 302.07,-25.24 305.32,-23.64"/>
<polygon fill="midnightblue" stroke="midnightblue" points="306.93,-26.76 314.74,-19.6 304.17,-20.33 306.93,-26.76"/>
</g>
</g>
</svg>
