<?xml version="1.0" encoding="UTF-8" standalone="no"?>
<!DOCTYPE svg PUBLIC "-//W3C//DTD SVG 1.1//EN"
 "http://www.w3.org/Graphics/SVG/1.1/DTD/svg11.dtd">
<!-- Generated by graphviz version 2.43.0 (0)
 -->
<!-- Title: rw::reader::VtkReader::VtkReader Pages: 1 -->
<svg width="459pt" height="38pt"
 viewBox="0.00 0.00 459.00 38.00" xmlns="http://www.w3.org/2000/svg" xmlns:xlink="http://www.w3.org/1999/xlink">
<g id="graph0" class="graph" transform="scale(1 1) rotate(0) translate(4 34)">
<title>rw::reader::VtkReader::VtkReader</title>
<!-- Node1 -->
<g id="Node000001" class="node">
<title>Node1</title>
<g id="a_Node000001"><a xlink:title="Constructor.">
<polygon fill="#999999" stroke="#666666" points="113,-30 0,-30 0,0 113,0 113,-30"/>
<text text-anchor="start" x="8" y="-18" font-family="Arial" font-size="10.00">rw::reader::VtkReader</text>
<text text-anchor="middle" x="56.5" y="-7" font-family="Arial" font-size="10.00">::VtkReader</text>
</a>
</g>
</g>
<!-- Node2 -->
<g id="Node000002" class="node">
<title>Node2</title>
<g id="a_Node000002"><a xlink:href="namespaceutil_1_1io.html#a8a38ac2a0437a16aa1c311b6a075dc51" target="_top" xlink:title="Check for extension and if possible create new filename from a given filename and a given extension.">
<polygon fill="white" stroke="#666666" points="271,-30 149,-30 149,0 271,0 271,-30"/>
<text text-anchor="start" x="157" y="-18" font-family="Arial" font-size="10.00">util::io::checkAndCreate</text>
<text text-anchor="middle" x="210" y="-7" font-family="Arial" font-size="10.00">NewFilename</text>
</a>
</g>
</g>
<!-- Node1&#45;&gt;Node2 -->
<g id="edge1_Node000001_Node000002" class="edge">
<title>Node1&#45;&gt;Node2</title>
<g id="a_edge1_Node000001_Node000002"><a xlink:title=" ">
<path fill="none" stroke="#63b8ff" d="M113.05,-15C121.43,-15 130.16,-15 138.8,-15"/>
<polygon fill="#63b8ff" stroke="#63b8ff" points="138.86,-18.5 148.86,-15 138.86,-11.5 138.86,-18.5"/>
</a>
</g>
</g>
<!-- Node3 -->
<g id="Node000003" class="node">
<title>Node3</title>
<g id="a_Node000003"><a xlink:href="namespaceutil_1_1io.html#a6588c46813adf0cb86b795880f1a2ec7" target="_top" xlink:title="Get extension from the filename.">
<polygon fill="white" stroke="#666666" points="451,-24.5 307,-24.5 307,-5.5 451,-5.5 451,-24.5"/>
<text text-anchor="middle" x="379" y="-12.5" font-family="Arial" font-size="10.00">util::io::getExtensionFromFile</text>
</a>
</g>
</g>
<!-- Node2&#45;&gt;Node3 -->
<g id="edge2_Node000002_Node000003" class="edge">
<title>Node2&#45;&gt;Node3</title>
<g id="a_edge2_Node000002_Node000003"><a xlink:title=" ">
<path fill="none" stroke="#63b8ff" d="M271.29,-15C279.62,-15 288.28,-15 296.91,-15"/>
<polygon fill="#63b8ff" stroke="#63b8ff" points="297,-18.5 307,-15 297,-11.5 297,-18.5"/>
</a>
</g>
</g>
</g>
</svg>
