<?xml version="1.0" encoding="UTF-8" standalone="no"?>
<!DOCTYPE svg PUBLIC "-//W3C//DTD SVG 1.1//EN"
 "http://www.w3.org/Graphics/SVG/1.1/DTD/svg11.dtd">
<!-- Generated by graphviz version 2.43.0 (0)
 -->
<!-- Title: util::geometry::Cuboid::printStr Pages: 1 -->
<svg width="376pt" height="77pt"
 viewBox="0.00 0.00 376.00 77.22" xmlns="http://www.w3.org/2000/svg" xmlns:xlink="http://www.w3.org/1999/xlink">
<g id="graph0" class="graph" transform="scale(1 1) rotate(0) translate(4 73.22)">
<title>util::geometry::Cuboid::printStr</title>
<!-- Node1 -->
<g id="Node000001" class="node">
<title>Node1</title>
<g id="a_Node000001"><a xlink:title="Returns the string containing printable information about the object.">
<polygon fill="#999999" stroke="#666666" points="113,-61.5 0,-61.5 0,-31.5 113,-31.5 113,-61.5"/>
<text text-anchor="start" x="8" y="-49.5" font-family="Arial" font-size="10.00">util::geometry::Cuboid</text>
<text text-anchor="middle" x="56.5" y="-38.5" font-family="Arial" font-size="10.00">::printStr</text>
</a>
</g>
</g>
<!-- Node2 -->
<g id="Node000002" class="node">
<title>Node2</title>
<g id="a_Node000002"><a xlink:href="namespaceutil_1_1io.html#a38afb09a152cca4061850f4123bd3aeb" target="_top" xlink:title="Returns tab spaces of given size.">
<polygon fill="white" stroke="#666666" points="368,-56 283,-56 283,-37 368,-37 368,-56"/>
<text text-anchor="middle" x="325.5" y="-44" font-family="Arial" font-size="10.00">util::io::getTabS</text>
</a>
</g>
</g>
<!-- Node1&#45;&gt;Node2 -->
<g id="edge1_Node000001_Node000002" class="edge">
<title>Node1&#45;&gt;Node2</title>
<g id="a_edge1_Node000001_Node000002"><a xlink:title=" ">
<path fill="none" stroke="#63b8ff" d="M113.35,-59.99C125.06,-62.28 137.38,-64.31 149,-65.5 192.33,-69.95 203.76,-70.72 247,-65.5 258.91,-64.06 271.64,-61.42 283.26,-58.56"/>
<polygon fill="#63b8ff" stroke="#63b8ff" points="284.34,-61.89 293.14,-56.01 282.59,-55.12 284.34,-61.89"/>
</a>
</g>
</g>
<!-- Node3 -->
<g id="Node000003" class="node">
<title>Node3</title>
<g id="a_Node000003"><a xlink:href="namespaceutil_1_1io.html#a2b2ea15e35fb349760ca1f0b521e7269" target="_top" xlink:title="Returns formatted string for output.">
<polygon fill="white" stroke="#666666" points="247,-56 149,-56 149,-37 247,-37 247,-56"/>
<text text-anchor="middle" x="198" y="-44" font-family="Arial" font-size="10.00">util::io::printBoxStr</text>
</a>
</g>
</g>
<!-- Node1&#45;&gt;Node3 -->
<g id="edge2_Node000001_Node000003" class="edge">
<title>Node1&#45;&gt;Node3</title>
<g id="a_edge2_Node000001_Node000003"><a xlink:title=" ">
<path fill="none" stroke="#63b8ff" d="M113.03,-46.5C121.46,-46.5 130.18,-46.5 138.66,-46.5"/>
<polygon fill="#63b8ff" stroke="#63b8ff" points="138.86,-50 148.86,-46.5 138.86,-43 138.86,-50"/>
</a>
</g>
</g>
<!-- Node4 -->
<g id="Node000004" class="node">
<title>Node4</title>
<g id="a_Node000004"><a xlink:href="namespaceutil_1_1io.html#a3e537e3bd778616255015cde6e60a30a" target="_top" xlink:title="Returns formatted string for output.">
<polygon fill="white" stroke="#666666" points="238,-19 158,-19 158,0 238,0 238,-19"/>
<text text-anchor="middle" x="198" y="-7" font-family="Arial" font-size="10.00">util::io::printStr</text>
</a>
</g>
</g>
<!-- Node1&#45;&gt;Node4 -->
<g id="edge4_Node000001_Node000004" class="edge">
<title>Node1&#45;&gt;Node4</title>
<g id="a_edge4_Node000001_Node000004"><a xlink:title=" ">
<path fill="none" stroke="#63b8ff" d="M113.03,-31.77C125.62,-28.43 138.85,-24.92 150.99,-21.7"/>
<polygon fill="#63b8ff" stroke="#63b8ff" points="152.12,-25.02 160.89,-19.08 150.33,-18.26 152.12,-25.02"/>
</a>
</g>
</g>
<!-- Node3&#45;&gt;Node2 -->
<g id="edge3_Node000003_Node000002" class="edge">
<title>Node3&#45;&gt;Node2</title>
<g id="a_edge3_Node000003_Node000002"><a xlink:title=" ">
<path fill="none" stroke="#63b8ff" d="M247.16,-46.5C255.52,-46.5 264.24,-46.5 272.68,-46.5"/>
<polygon fill="#63b8ff" stroke="#63b8ff" points="272.81,-50 282.81,-46.5 272.81,-43 272.81,-50"/>
</a>
</g>
</g>
<!-- Node4&#45;&gt;Node2 -->
<g id="edge5_Node000004_Node000002" class="edge">
<title>Node4&#45;&gt;Node2</title>
<g id="a_edge5_Node000004_Node000002"><a xlink:title=" ">
<path fill="none" stroke="#63b8ff" d="M231.32,-19.03C246.72,-23.57 265.34,-29.06 281.87,-33.93"/>
<polygon fill="#63b8ff" stroke="#63b8ff" points="281.27,-37.4 291.85,-36.88 283.25,-30.69 281.27,-37.4"/>
</a>
</g>
</g>
</g>
</svg>
