<?xml version="1.0" encoding="UTF-8" standalone="no"?>
<!DOCTYPE svg PUBLIC "-//W3C//DTD SVG 1.1//EN"
 "http://www.w3.org/Graphics/SVG/1.1/DTD/svg11.dtd">
<!-- Generated by graphviz version 2.43.0 (0)
 -->
<!-- Title: util::geometry::Cylinder Pages: 1 -->
<svg width="244pt" height="1060pt"
 viewBox="0.00 0.00 243.50 1060.00" xmlns="http://www.w3.org/2000/svg" xmlns:xlink="http://www.w3.org/1999/xlink">
<g id="graph0" class="graph" transform="scale(1 1) rotate(0) translate(4 1056)">
<title>util::geometry::Cylinder</title>
<!-- Node1 -->
<g id="Node000001" class="node">
<title>Node1</title>
<g id="a_Node000001"><a xlink:title="Defines cylinder.">
<polygon fill="#999999" stroke="transparent" points="184.5,-499 72.5,-499 72.5,0 184.5,0 184.5,-499"/>
<text text-anchor="start" x="77.5" y="-486.5" font-family="Arial" font-size="10.00">util::geometry::Cylinder</text>
<text text-anchor="start" x="80.5" y="-471.5" font-family="Arial" font-size="10.00">+</text>
<text text-anchor="start" x="95.5" y="-471.5" font-family="Arial" font-size="10.00">d_r</text>
<text text-anchor="start" x="80.5" y="-456.5" font-family="Arial" font-size="10.00">+</text>
<text text-anchor="start" x="95.5" y="-456.5" font-family="Arial" font-size="10.00">d_l</text>
<text text-anchor="start" x="80.5" y="-441.5" font-family="Arial" font-size="10.00">+</text>
<text text-anchor="start" x="95.5" y="-441.5" font-family="Arial" font-size="10.00">Cylinder()</text>
<text text-anchor="start" x="80.5" y="-426.5" font-family="Arial" font-size="10.00">+</text>
<text text-anchor="start" x="95.5" y="-426.5" font-family="Arial" font-size="10.00">Cylinder()</text>
<text text-anchor="start" x="80.5" y="-411.5" font-family="Arial" font-size="10.00">+</text>
<text text-anchor="start" x="95.5" y="-411.5" font-family="Arial" font-size="10.00">Cylinder()</text>
<text text-anchor="start" x="80.5" y="-396.5" font-family="Arial" font-size="10.00">+</text>
<text text-anchor="start" x="95.5" y="-396.5" font-family="Arial" font-size="10.00">volume()</text>
<text text-anchor="start" x="80.5" y="-381.5" font-family="Arial" font-size="10.00">+</text>
<text text-anchor="start" x="95.5" y="-381.5" font-family="Arial" font-size="10.00">center()</text>
<text text-anchor="start" x="80.5" y="-366.5" font-family="Arial" font-size="10.00">+</text>
<text text-anchor="start" x="95.5" y="-366.5" font-family="Arial" font-size="10.00">box()</text>
<text text-anchor="start" x="80.5" y="-351.5" font-family="Arial" font-size="10.00">+</text>
<text text-anchor="start" x="95.5" y="-351.5" font-family="Arial" font-size="10.00">box()</text>
<text text-anchor="start" x="80.5" y="-336.5" font-family="Arial" font-size="10.00">+</text>
<text text-anchor="start" x="95.5" y="-336.5" font-family="Arial" font-size="10.00">inscribedRadius()</text>
<text text-anchor="start" x="80.5" y="-321.5" font-family="Arial" font-size="10.00">+</text>
<text text-anchor="start" x="95.5" y="-321.5" font-family="Arial" font-size="10.00">boundingRadius()</text>
<text text-anchor="start" x="80.5" y="-306.5" font-family="Arial" font-size="10.00">+</text>
<text text-anchor="start" x="95.5" y="-306.5" font-family="Arial" font-size="10.00">printStr()</text>
<text text-anchor="start" x="80.5" y="-291.5" font-family="Arial" font-size="10.00">+</text>
<text text-anchor="start" x="95.5" y="-291.5" font-family="Arial" font-size="10.00">print()</text>
<text text-anchor="start" x="80.5" y="-276.5" font-family="Arial" font-size="10.00">+</text>
<text text-anchor="start" x="95.5" y="-276.5" font-family="Arial" font-size="10.00">print()</text>
<text text-anchor="start" x="80.5" y="-261.5" font-family="Arial" font-size="10.00">+</text>
<text text-anchor="start" x="95.5" y="-261.5" font-family="Arial" font-size="10.00">isInside()</text>
<text text-anchor="start" x="80.5" y="-246.5" font-family="Arial" font-size="10.00">+</text>
<text text-anchor="start" x="95.5" y="-246.5" font-family="Arial" font-size="10.00">isOutside()</text>
<text text-anchor="start" x="80.5" y="-231.5" font-family="Arial" font-size="10.00">+</text>
<text text-anchor="start" x="95.5" y="-231.5" font-family="Arial" font-size="10.00">isNear()</text>
<text text-anchor="start" x="80.5" y="-216.5" font-family="Arial" font-size="10.00">+</text>
<text text-anchor="start" x="95.5" y="-216.5" font-family="Arial" font-size="10.00">isNearBoundary()</text>
<text text-anchor="start" x="80.5" y="-201.5" font-family="Arial" font-size="10.00">+</text>
<text text-anchor="start" x="95.5" y="-201.5" font-family="Arial" font-size="10.00">doesIntersect()</text>
<text text-anchor="start" x="80.5" y="-186.5" font-family="Arial" font-size="10.00">+</text>
<text text-anchor="start" x="95.5" y="-186.5" font-family="Arial" font-size="10.00">isInside()</text>
<text text-anchor="start" x="80.5" y="-171.5" font-family="Arial" font-size="10.00">+</text>
<text text-anchor="start" x="95.5" y="-171.5" font-family="Arial" font-size="10.00">isOutside()</text>
<text text-anchor="start" x="80.5" y="-156.5" font-family="Arial" font-size="10.00">+</text>
<text text-anchor="start" x="95.5" y="-156.5" font-family="Arial" font-size="10.00">isNear()</text>
<text text-anchor="start" x="80.5" y="-141.5" font-family="Arial" font-size="10.00">+</text>
<text text-anchor="start" x="95.5" y="-141.5" font-family="Arial" font-size="10.00">doesIntersect()</text>
<text text-anchor="start" x="82" y="-126.5" font-family="Arial" font-size="10.00">*</text>
<text text-anchor="start" x="95.5" y="-126.5" font-family="Arial" font-size="10.00">isInside()</text>
<text text-anchor="start" x="82" y="-111.5" font-family="Arial" font-size="10.00">*</text>
<text text-anchor="start" x="95.5" y="-111.5" font-family="Arial" font-size="10.00">isOutside()</text>
<text text-anchor="start" x="82" y="-96.5" font-family="Arial" font-size="10.00">*</text>
<text text-anchor="start" x="95.5" y="-96.5" font-family="Arial" font-size="10.00">isNear()</text>
<text text-anchor="start" x="82" y="-81.5" font-family="Arial" font-size="10.00">*</text>
<text text-anchor="start" x="95.5" y="-81.5" font-family="Arial" font-size="10.00">isNearBoundary()</text>
<text text-anchor="start" x="82" y="-66.5" font-family="Arial" font-size="10.00">*</text>
<text text-anchor="start" x="95.5" y="-66.5" font-family="Arial" font-size="10.00">doesIntersect()</text>
<text text-anchor="start" x="82" y="-51.5" font-family="Arial" font-size="10.00">*</text>
<text text-anchor="start" x="95.5" y="-51.5" font-family="Arial" font-size="10.00">isInside()</text>
<text text-anchor="start" x="82" y="-36.5" font-family="Arial" font-size="10.00">*</text>
<text text-anchor="start" x="95.5" y="-36.5" font-family="Arial" font-size="10.00">isOutside()</text>
<text text-anchor="start" x="82" y="-21.5" font-family="Arial" font-size="10.00">*</text>
<text text-anchor="start" x="95.5" y="-21.5" font-family="Arial" font-size="10.00">isNear()</text>
<text text-anchor="start" x="82" y="-6.5" font-family="Arial" font-size="10.00">*</text>
<text text-anchor="start" x="95.5" y="-6.5" font-family="Arial" font-size="10.00">doesIntersect()</text>
<polygon fill="#666666" stroke="#666666" points="72.5,-481.5 72.5,-481.5 184.5,-481.5 184.5,-481.5 72.5,-481.5"/>
<polygon fill="#666666" stroke="#666666" points="72.5,-451.5 72.5,-451.5 93.5,-451.5 93.5,-451.5 72.5,-451.5"/>
<polygon fill="#666666" stroke="#666666" points="93.5,-451.5 93.5,-451.5 184.5,-451.5 184.5,-451.5 93.5,-451.5"/>
<polygon fill="none" stroke="#666666" points="72.5,0 72.5,-499 184.5,-499 184.5,0 72.5,0"/>
</a>
</g>
</g>
<!-- Node2 -->
<g id="Node000002" class="node">
<title>Node2</title>
<g id="a_Node000002"><a xlink:href="classutil_1_1geometry_1_1GeomObject.html" target="_top" xlink:title="Defines abstract geometrical domain.">
<polygon fill="white" stroke="transparent" points="131,-1052 0,-1052 0,-568 131,-568 131,-1052"/>
<text text-anchor="start" x="5.5" y="-1040" font-family="Arial" font-size="10.00">util::geometry::GeomObject</text>
<text text-anchor="start" x="13.5" y="-1025" font-family="Arial" font-size="10.00">+</text>
<text text-anchor="start" x="33.5" y="-1025" font-family="Arial" font-size="10.00">d_name</text>
<text text-anchor="start" x="13.5" y="-1010" font-family="Arial" font-size="10.00">+</text>
<text text-anchor="start" x="33.5" y="-1010" font-family="Arial" font-size="10.00">d_description</text>
<text text-anchor="start" x="13.5" y="-995" font-family="Arial" font-size="10.00">+</text>
<text text-anchor="start" x="33.5" y="-995" font-family="Arial" font-size="10.00">d_tags</text>
<text text-anchor="start" x="13.5" y="-980" font-family="Arial" font-size="10.00">+</text>
<text text-anchor="start" x="33.5" y="-980" font-family="Arial" font-size="10.00">GeomObject()</text>
<text text-anchor="start" x="13.5" y="-965" font-family="Arial" font-size="10.00">+</text>
<text text-anchor="start" x="33.5" y="-965" font-family="Arial" font-size="10.00">volume()</text>
<text text-anchor="start" x="13.5" y="-950" font-family="Arial" font-size="10.00">+</text>
<text text-anchor="start" x="33.5" y="-950" font-family="Arial" font-size="10.00">center()</text>
<text text-anchor="start" x="13.5" y="-935" font-family="Arial" font-size="10.00">+</text>
<text text-anchor="start" x="33.5" y="-935" font-family="Arial" font-size="10.00">box()</text>
<text text-anchor="start" x="13.5" y="-920" font-family="Arial" font-size="10.00">+</text>
<text text-anchor="start" x="33.5" y="-920" font-family="Arial" font-size="10.00">box()</text>
<text text-anchor="start" x="13.5" y="-905" font-family="Arial" font-size="10.00">+</text>
<text text-anchor="start" x="33.5" y="-905" font-family="Arial" font-size="10.00">inscribedRadius()</text>
<text text-anchor="start" x="13.5" y="-890" font-family="Arial" font-size="10.00">+</text>
<text text-anchor="start" x="33.5" y="-890" font-family="Arial" font-size="10.00">boundingRadius()</text>
<text text-anchor="start" x="13.5" y="-875" font-family="Arial" font-size="10.00">+</text>
<text text-anchor="start" x="33.5" y="-875" font-family="Arial" font-size="10.00">printStr()</text>
<text text-anchor="start" x="13.5" y="-860" font-family="Arial" font-size="10.00">+</text>
<text text-anchor="start" x="33.5" y="-860" font-family="Arial" font-size="10.00">print()</text>
<text text-anchor="start" x="13.5" y="-845" font-family="Arial" font-size="10.00">+</text>
<text text-anchor="start" x="33.5" y="-845" font-family="Arial" font-size="10.00">print()</text>
<text text-anchor="start" x="13.5" y="-830" font-family="Arial" font-size="10.00">+</text>
<text text-anchor="start" x="33.5" y="-830" font-family="Arial" font-size="10.00">isInside()</text>
<text text-anchor="start" x="13.5" y="-815" font-family="Arial" font-size="10.00">+</text>
<text text-anchor="start" x="33.5" y="-815" font-family="Arial" font-size="10.00">isOutside()</text>
<text text-anchor="start" x="13.5" y="-800" font-family="Arial" font-size="10.00">+</text>
<text text-anchor="start" x="33.5" y="-800" font-family="Arial" font-size="10.00">isNear()</text>
<text text-anchor="start" x="13.5" y="-785" font-family="Arial" font-size="10.00">+</text>
<text text-anchor="start" x="33.5" y="-785" font-family="Arial" font-size="10.00">isNearBoundary()</text>
<text text-anchor="start" x="13.5" y="-770" font-family="Arial" font-size="10.00">+</text>
<text text-anchor="start" x="33.5" y="-770" font-family="Arial" font-size="10.00">doesIntersect()</text>
<text text-anchor="start" x="13.5" y="-755" font-family="Arial" font-size="10.00">+</text>
<text text-anchor="start" x="33.5" y="-755" font-family="Arial" font-size="10.00">isInside()</text>
<text text-anchor="start" x="13.5" y="-740" font-family="Arial" font-size="10.00">+</text>
<text text-anchor="start" x="33.5" y="-740" font-family="Arial" font-size="10.00">isOutside()</text>
<text text-anchor="start" x="13.5" y="-725" font-family="Arial" font-size="10.00">+</text>
<text text-anchor="start" x="33.5" y="-725" font-family="Arial" font-size="10.00">isNear()</text>
<text text-anchor="start" x="13.5" y="-710" font-family="Arial" font-size="10.00">+</text>
<text text-anchor="start" x="33.5" y="-710" font-family="Arial" font-size="10.00">doesIntersect()</text>
<text text-anchor="start" x="15" y="-695" font-family="Arial" font-size="10.00">*</text>
<text text-anchor="start" x="33.5" y="-695" font-family="Arial" font-size="10.00">isInside()</text>
<text text-anchor="start" x="15" y="-680" font-family="Arial" font-size="10.00">*</text>
<text text-anchor="start" x="33.5" y="-680" font-family="Arial" font-size="10.00">isOutside()</text>
<text text-anchor="start" x="15" y="-665" font-family="Arial" font-size="10.00">*</text>
<text text-anchor="start" x="33.5" y="-665" font-family="Arial" font-size="10.00">isNear()</text>
<text text-anchor="start" x="15" y="-650" font-family="Arial" font-size="10.00">*</text>
<text text-anchor="start" x="33.5" y="-650" font-family="Arial" font-size="10.00">isNearBoundary()</text>
<text text-anchor="start" x="15" y="-635" font-family="Arial" font-size="10.00">*</text>
<text text-anchor="start" x="33.5" y="-635" font-family="Arial" font-size="10.00">doesIntersect()</text>
<text text-anchor="start" x="15" y="-620" font-family="Arial" font-size="10.00">*</text>
<text text-anchor="start" x="33.5" y="-620" font-family="Arial" font-size="10.00">isInside()</text>
<text text-anchor="start" x="15" y="-605" font-family="Arial" font-size="10.00">*</text>
<text text-anchor="start" x="33.5" y="-605" font-family="Arial" font-size="10.00">isOutside()</text>
<text text-anchor="start" x="15" y="-590" font-family="Arial" font-size="10.00">*</text>
<text text-anchor="start" x="33.5" y="-590" font-family="Arial" font-size="10.00">isNear()</text>
<text text-anchor="start" x="15" y="-575" font-family="Arial" font-size="10.00">*</text>
<text text-anchor="start" x="33.5" y="-575" font-family="Arial" font-size="10.00">doesIntersect()</text>
<polygon fill="#666666" stroke="#666666" points="0.5,-1035 0.5,-1035 131.5,-1035 131.5,-1035 0.5,-1035"/>
<polygon fill="#666666" stroke="#666666" points="0.5,-990 0.5,-990 31.5,-990 31.5,-990 0.5,-990"/>
<polygon fill="#666666" stroke="#666666" points="31.5,-990 31.5,-990 131.5,-990 131.5,-990 31.5,-990"/>
<polygon fill="none" stroke="#666666" points="0,-568 0,-1052 131,-1052 131,-568 0,-568"/>
</a>
</g>
</g>
<!-- Node2&#45;&gt;Node1 -->
<g id="edge1_Node000001_Node000002" class="edge">
<title>Node2&#45;&gt;Node1</title>
<g id="a_edge1_Node000001_Node000002"><a xlink:title=" ">
<path fill="none" stroke="#63b8ff" d="M93.86,-557.55C96.05,-538.13 98.27,-518.53 100.45,-499.13"/>
<polygon fill="none" stroke="#63b8ff" points="90.36,-557.36 92.72,-567.69 97.32,-558.14 90.36,-557.36"/>
</a>
</g>
</g>
<!-- Node3 -->
<g id="Node000003" class="node">
<title>Node3</title>
<g id="a_Node000003"><a xlink:href="structutil_1_1Point.html" target="_top" xlink:title="A structure to represent 3d vectors.">
<polygon fill="white" stroke="transparent" points="235.5,-1029.5 149.5,-1029.5 149.5,-590.5 235.5,-590.5 235.5,-1029.5"/>
<text text-anchor="start" x="171.5" y="-1017" font-family="Arial" font-size="10.00">util::Point</text>
<text text-anchor="start" x="153.5" y="-1002" font-family="Arial" font-size="10.00">+</text>
<text text-anchor="start" x="164.5" y="-1002" font-family="Arial" font-size="10.00">d_x</text>
<text text-anchor="start" x="153.5" y="-987" font-family="Arial" font-size="10.00">+</text>
<text text-anchor="start" x="164.5" y="-987" font-family="Arial" font-size="10.00">d_y</text>
<text text-anchor="start" x="153.5" y="-972" font-family="Arial" font-size="10.00">+</text>
<text text-anchor="start" x="164.5" y="-972" font-family="Arial" font-size="10.00">d_z</text>
<text text-anchor="start" x="153.5" y="-957" font-family="Arial" font-size="10.00">+</text>
<text text-anchor="start" x="164.5" y="-957" font-family="Arial" font-size="10.00">Point()</text>
<text text-anchor="start" x="153.5" y="-942" font-family="Arial" font-size="10.00">+</text>
<text text-anchor="start" x="164.5" y="-942" font-family="Arial" font-size="10.00">Point()</text>
<text text-anchor="start" x="153.5" y="-927" font-family="Arial" font-size="10.00">+</text>
<text text-anchor="start" x="164.5" y="-927" font-family="Arial" font-size="10.00">Point()</text>
<text text-anchor="start" x="153.5" y="-912" font-family="Arial" font-size="10.00">+</text>
<text text-anchor="start" x="164.5" y="-912" font-family="Arial" font-size="10.00">Point()</text>
<text text-anchor="start" x="153.5" y="-897" font-family="Arial" font-size="10.00">+</text>
<text text-anchor="start" x="164.5" y="-897" font-family="Arial" font-size="10.00">Point()</text>
<text text-anchor="start" x="153.5" y="-882" font-family="Arial" font-size="10.00">+</text>
<text text-anchor="start" x="164.5" y="-882" font-family="Arial" font-size="10.00">printStr()</text>
<text text-anchor="start" x="153.5" y="-867" font-family="Arial" font-size="10.00">+</text>
<text text-anchor="start" x="164.5" y="-867" font-family="Arial" font-size="10.00">print()</text>
<text text-anchor="start" x="153.5" y="-852" font-family="Arial" font-size="10.00">+</text>
<text text-anchor="start" x="164.5" y="-852" font-family="Arial" font-size="10.00">length()</text>
<text text-anchor="start" x="153.5" y="-837" font-family="Arial" font-size="10.00">+</text>
<text text-anchor="start" x="164.5" y="-837" font-family="Arial" font-size="10.00">lengthSq()</text>
<text text-anchor="start" x="153.5" y="-822" font-family="Arial" font-size="10.00">+</text>
<text text-anchor="start" x="164.5" y="-822" font-family="Arial" font-size="10.00">dot()</text>
<text text-anchor="start" x="153.5" y="-807" font-family="Arial" font-size="10.00">+</text>
<text text-anchor="start" x="164.5" y="-807" font-family="Arial" font-size="10.00">dist()</text>
<text text-anchor="start" x="153.5" y="-792" font-family="Arial" font-size="10.00">+</text>
<text text-anchor="start" x="164.5" y="-792" font-family="Arial" font-size="10.00">cross()</text>
<text text-anchor="start" x="153.5" y="-777" font-family="Arial" font-size="10.00">+</text>
<text text-anchor="start" x="164.5" y="-777" font-family="Arial" font-size="10.00">project()</text>
<text text-anchor="start" x="153.5" y="-762" font-family="Arial" font-size="10.00">+</text>
<text text-anchor="start" x="164.5" y="-762" font-family="Arial" font-size="10.00">projectNormal()</text>
<text text-anchor="start" x="155" y="-747" font-family="Arial" font-size="10.00">*</text>
<text text-anchor="start" x="164.5" y="-747" font-family="Arial" font-size="10.00">operator+=()</text>
<text text-anchor="start" x="155" y="-732" font-family="Arial" font-size="10.00">*</text>
<text text-anchor="start" x="164.5" y="-732" font-family="Arial" font-size="10.00">operator&#45;=()</text>
<text text-anchor="start" x="155" y="-717" font-family="Arial" font-size="10.00">*</text>
<text text-anchor="start" x="164.5" y="-717" font-family="Arial" font-size="10.00">operator*=()</text>
<text text-anchor="start" x="155" y="-702" font-family="Arial" font-size="10.00">*</text>
<text text-anchor="start" x="164.5" y="-702" font-family="Arial" font-size="10.00">operator+=()</text>
<text text-anchor="start" x="155" y="-687" font-family="Arial" font-size="10.00">*</text>
<text text-anchor="start" x="164.5" y="-687" font-family="Arial" font-size="10.00">operator&#45;=()</text>
<text text-anchor="start" x="155" y="-672" font-family="Arial" font-size="10.00">*</text>
<text text-anchor="start" x="164.5" y="-672" font-family="Arial" font-size="10.00">operator*=()</text>
<text text-anchor="start" x="155" y="-657" font-family="Arial" font-size="10.00">*</text>
<text text-anchor="start" x="164.5" y="-657" font-family="Arial" font-size="10.00">operator/=()</text>
<text text-anchor="start" x="155" y="-642" font-family="Arial" font-size="10.00">*</text>
<text text-anchor="start" x="164.5" y="-642" font-family="Arial" font-size="10.00">operator[]()</text>
<text text-anchor="start" x="155" y="-627" font-family="Arial" font-size="10.00">*</text>
<text text-anchor="start" x="164.5" y="-627" font-family="Arial" font-size="10.00">operator[]()</text>
<text text-anchor="start" x="155" y="-612" font-family="Arial" font-size="10.00">*</text>
<text text-anchor="start" x="164.5" y="-612" font-family="Arial" font-size="10.00">operator+</text>
<text text-anchor="start" x="164.5" y="-597" font-family="Arial" font-size="10.00">and 9 more...</text>
<polygon fill="#666666" stroke="#666666" points="149.5,-1012 149.5,-1012 235.5,-1012 235.5,-1012 149.5,-1012"/>
<polygon fill="#666666" stroke="#666666" points="149.5,-967 149.5,-967 162.5,-967 162.5,-967 149.5,-967"/>
<polygon fill="#666666" stroke="#666666" points="162.5,-967 162.5,-967 235.5,-967 235.5,-967 162.5,-967"/>
<polygon fill="none" stroke="#666666" points="149.5,-590.5 149.5,-1029.5 235.5,-1029.5 235.5,-590.5 149.5,-590.5"/>
</a>
</g>
</g>
<!-- Node3&#45;&gt;Node1 -->
<g id="edge2_Node000001_Node000003" class="edge">
<title>Node3&#45;&gt;Node1</title>
<g id="a_edge2_Node000001_Node000003"><a xlink:title=" ">
<path fill="none" stroke="#63b8ff" d="M167.44,-590.27C164.47,-564.42 161.43,-537.84 158.41,-511.47"/>
<polygon fill="none" stroke="#63b8ff" points="158.39,-511.3 153.73,-505.8 157.02,-499.38 161.68,-504.89 158.39,-511.3"/>
</a>
</g>
<text text-anchor="middle" x="185" y="-542" font-family="Arial" font-size="10.00" fill="grey"> +d_x</text>
<text text-anchor="middle" x="185" y="-531" font-family="Arial" font-size="10.00" fill="grey">+d_xBegin</text>
<text text-anchor="middle" x="185" y="-520" font-family="Arial" font-size="10.00" fill="grey">+d_xa</text>
</g>
</g>
</svg>
