<?xml version="1.0" encoding="UTF-8" standalone="no"?>
<!DOCTYPE svg PUBLIC "-//W3C//DTD SVG 1.1//EN"
 "http://www.w3.org/Graphics/SVG/1.1/DTD/svg11.dtd">
<!-- Generated by graphviz version 2.43.0 (0)
 -->
<!-- Title: util::geometry::Triangle::print Pages: 1 -->
<svg width="513pt" height="53pt"
 viewBox="0.00 0.00 513.00 52.50" xmlns="http://www.w3.org/2000/svg" xmlns:xlink="http://www.w3.org/1999/xlink">
<g id="graph0" class="graph" transform="scale(1 1) rotate(0) translate(4 48.5)">
<title>util::geometry::Triangle::print</title>
<!-- Node1 -->
<g id="node1" class="node">
<title>Node1</title>
<g id="a_node1"><a xlink:title="Prints the information about the object.">
<polygon fill="#bfbfbf" stroke="black" points="0,-14 0,-44 116,-44 116,-14 0,-14"/>
<text text-anchor="start" x="8" y="-32" font-family="Arial" font-size="10.00">util::geometry::Triangle</text>
<text text-anchor="middle" x="58" y="-21" font-family="Arial" font-size="10.00">::print</text>
</a>
</g>
</g>
<!-- Node2 -->
<g id="node2" class="node">
<title>Node2</title>
<g id="a_node2"><a xlink:href="classutil_1_1geometry_1_1Triangle.html#aa7d73c74fe0d6bd6306c414f75d99f95" target="_top" xlink:title="Returns the string containing printable information about the object.">
<polygon fill="none" stroke="black" points="152,-14 152,-44 268,-44 268,-14 152,-14"/>
<text text-anchor="start" x="160" y="-32" font-family="Arial" font-size="10.00">util::geometry::Triangle</text>
<text text-anchor="middle" x="210" y="-21" font-family="Arial" font-size="10.00">::printStr</text>
</a>
</g>
</g>
<!-- Node1&#45;&gt;Node2 -->
<g id="edge1" class="edge">
<title>Node1&#45;&gt;Node2</title>
<path fill="none" stroke="midnightblue" d="M116.14,-29C124.38,-29 132.92,-29 141.34,-29"/>
<polygon fill="midnightblue" stroke="midnightblue" points="141.53,-32.5 151.53,-29 141.53,-25.5 141.53,-32.5"/>
</g>
<!-- Node3 -->
<g id="node3" class="node">
<title>Node3</title>
<g id="a_node3"><a xlink:href="namespaceutil_1_1io.html#a38afb09a152cca4061850f4123bd3aeb" target="_top" xlink:title="Returns tab spaces of given size.">
<polygon fill="none" stroke="black" points="420,-19.5 420,-38.5 505,-38.5 505,-19.5 420,-19.5"/>
<text text-anchor="middle" x="462.5" y="-26.5" font-family="Arial" font-size="10.00">util::io::getTabS</text>
</a>
</g>
</g>
<!-- Node2&#45;&gt;Node3 -->
<g id="edge2" class="edge">
<title>Node2&#45;&gt;Node3</title>
<path fill="none" stroke="midnightblue" d="M268.16,-29C310.75,-29 368.45,-29 409.7,-29"/>
<polygon fill="midnightblue" stroke="midnightblue" points="409.82,-32.5 419.82,-29 409.82,-25.5 409.82,-32.5"/>
</g>
<!-- Node4 -->
<g id="node4" class="node">
<title>Node4</title>
<g id="a_node4"><a xlink:href="namespaceutil_1_1io.html#a3e537e3bd778616255015cde6e60a30a" target="_top" xlink:title="Returns formatted string for output.">
<polygon fill="none" stroke="black" points="304,-0.5 304,-19.5 384,-19.5 384,-0.5 304,-0.5"/>
<text text-anchor="middle" x="344" y="-7.5" font-family="Arial" font-size="10.00">util::io::printStr</text>
</a>
</g>
</g>
<!-- Node2&#45;&gt;Node4 -->
<g id="edge3" class="edge">
<title>Node2&#45;&gt;Node4</title>
<path fill="none" stroke="midnightblue" d="M268.13,-20.78C276.65,-19.55 285.37,-18.3 293.71,-17.09"/>
<polygon fill="midnightblue" stroke="midnightblue" points="294.26,-20.55 303.66,-15.66 293.26,-13.62 294.26,-20.55"/>
</g>
<!-- Node4&#45;&gt;Node3 -->
<g id="edge4" class="edge">
<title>Node4&#45;&gt;Node3</title>
<path fill="none" stroke="midnightblue" d="M384.12,-16.38C392.38,-17.73 401.23,-19.17 409.88,-20.58"/>
<polygon fill="midnightblue" stroke="midnightblue" points="409.46,-24.06 419.89,-22.21 410.59,-17.15 409.46,-24.06"/>
</g>
</g>
</svg>
