<?xml version="1.0" encoding="UTF-8" standalone="no"?>
<!DOCTYPE svg PUBLIC "-//W3C//DTD SVG 1.1//EN"
 "http://www.w3.org/Graphics/SVG/1.1/DTD/svg11.dtd">
<!-- Generated by graphviz version 2.43.0 (0)
 -->
<!-- Title: util::geometry::Cuboid::print Pages: 1 -->
<svg width="525pt" height="53pt"
 viewBox="0.00 0.00 525.00 52.50" xmlns="http://www.w3.org/2000/svg" xmlns:xlink="http://www.w3.org/1999/xlink">
<g id="graph0" class="graph" transform="scale(1 1) rotate(0) translate(4 48.5)">
<title>util::geometry::Cuboid::print</title>
<!-- Node1 -->
<g id="node1" class="node">
<title>Node1</title>
<g id="a_node1"><a xlink:title="Prints the information about the object.">
<polygon fill="#bfbfbf" stroke="black" points="0,-14 0,-44 113,-44 113,-14 0,-14"/>
<text text-anchor="start" x="8" y="-32" font-family="Arial" font-size="10.00">util::geometry::Cuboid</text>
<text text-anchor="middle" x="56.5" y="-21" font-family="Arial" font-size="10.00">::print</text>
</a>
</g>
</g>
<!-- Node2 -->
<g id="node2" class="node">
<title>Node2</title>
<g id="a_node2"><a xlink:href="classutil_1_1geometry_1_1Cuboid.html#a7e1b246a67c55a0d5f50b68340391467" target="_top" xlink:title="Prints the information.">
<polygon fill="none" stroke="black" points="149,-14 149,-44 262,-44 262,-14 149,-14"/>
<text text-anchor="start" x="157" y="-32" font-family="Arial" font-size="10.00">util::geometry::Cuboid</text>
<text text-anchor="middle" x="205.5" y="-21" font-family="Arial" font-size="10.00">::printStr</text>
</a>
</g>
</g>
<!-- Node1&#45;&gt;Node2 -->
<g id="edge1" class="edge">
<title>Node1&#45;&gt;Node2</title>
<path fill="none" stroke="midnightblue" d="M113.07,-29C121.49,-29 130.24,-29 138.84,-29"/>
<polygon fill="midnightblue" stroke="midnightblue" points="138.85,-32.5 148.85,-29 138.85,-25.5 138.85,-32.5"/>
</g>
<!-- Node3 -->
<g id="node3" class="node">
<title>Node3</title>
<g id="a_node3"><a xlink:href="namespaceutil_1_1io.html#a38afb09a152cca4061850f4123bd3aeb" target="_top" xlink:title="Returns tab spaces of given size.">
<polygon fill="none" stroke="black" points="432,-19.5 432,-38.5 517,-38.5 517,-19.5 432,-19.5"/>
<text text-anchor="middle" x="474.5" y="-26.5" font-family="Arial" font-size="10.00">util::io::getTabS</text>
</a>
</g>
</g>
<!-- Node2&#45;&gt;Node3 -->
<g id="edge2" class="edge">
<title>Node2&#45;&gt;Node3</title>
<path fill="none" stroke="midnightblue" d="M262.15,-29C309.18,-29 376.02,-29 421.88,-29"/>
<polygon fill="midnightblue" stroke="midnightblue" points="421.9,-32.5 431.9,-29 421.9,-25.5 421.9,-32.5"/>
</g>
<!-- Node4 -->
<g id="node4" class="node">
<title>Node4</title>
<g id="a_node4"><a xlink:href="namespaceutil_1_1io.html#a2b2ea15e35fb349760ca1f0b521e7269" target="_top" xlink:title="Returns formatted string for output.">
<polygon fill="none" stroke="black" points="298,-0.5 298,-19.5 396,-19.5 396,-0.5 298,-0.5"/>
<text text-anchor="middle" x="347" y="-7.5" font-family="Arial" font-size="10.00">util::io::printBoxStr</text>
</a>
</g>
</g>
<!-- Node2&#45;&gt;Node4 -->
<g id="edge3" class="edge">
<title>Node2&#45;&gt;Node4</title>
<path fill="none" stroke="midnightblue" d="M262.03,-21.44C270.55,-20.28 279.37,-19.08 287.94,-17.91"/>
<polygon fill="midnightblue" stroke="midnightblue" points="288.42,-21.37 297.86,-16.56 287.48,-14.44 288.42,-21.37"/>
</g>
<!-- Node4&#45;&gt;Node3 -->
<g id="edge4" class="edge">
<title>Node4&#45;&gt;Node3</title>
<path fill="none" stroke="midnightblue" d="M396.16,-17.29C404.52,-18.56 413.24,-19.88 421.68,-21.16"/>
<polygon fill="midnightblue" stroke="midnightblue" points="421.4,-24.65 431.81,-22.69 422.44,-17.73 421.4,-24.65"/>
</g>
</g>
</svg>
