<?xml version="1.0" encoding="UTF-8" standalone="no"?>
<!DOCTYPE svg PUBLIC "-//W3C//DTD SVG 1.1//EN"
 "http://www.w3.org/Graphics/SVG/1.1/DTD/svg11.dtd">
<!-- Generated by graphviz version 2.43.0 (0)
 -->
<!-- Title: model::DEMModel::integrateStep Pages: 1 -->
<svg width="517pt" height="28pt"
 viewBox="0.00 0.00 517.00 28.00" xmlns="http://www.w3.org/2000/svg" xmlns:xlink="http://www.w3.org/1999/xlink">
<g id="graph0" class="graph" transform="scale(1 1) rotate(0) translate(4 24)">
<title>model::DEMModel::integrateStep</title>
<!-- Node1 -->
<g id="node1" class="node">
<title>Node1</title>
<g id="a_node1"><a xlink:title="Performs one time step.">
<polygon fill="#bfbfbf" stroke="black" points="348,-0.5 348,-19.5 509,-19.5 509,-0.5 348,-0.5"/>
<text text-anchor="middle" x="428.5" y="-7.5" font-family="Arial" font-size="10.00">model::DEMModel::integrateStep</text>
</a>
</g>
</g>
<!-- Node2 -->
<g id="node2" class="node">
<title>Node2</title>
<g id="a_node2"><a xlink:href="classtwop_1_1Model.html#a5fc8693675cdd98d4e312622e003e56e" target="_top" xlink:title="Perform time integration.">
<polygon fill="none" stroke="black" points="199,-0.5 199,-19.5 312,-19.5 312,-0.5 199,-0.5"/>
<text text-anchor="middle" x="255.5" y="-7.5" font-family="Arial" font-size="10.00">twop::Model::integrate</text>
</a>
</g>
</g>
<!-- Node1&#45;&gt;Node2 -->
<g id="edge1" class="edge">
<title>Node1&#45;&gt;Node2</title>
<path fill="none" stroke="midnightblue" d="M337.6,-10C328.96,-10 320.38,-10 312.21,-10"/>
<polygon fill="midnightblue" stroke="midnightblue" points="337.76,-13.5 347.76,-10 337.76,-6.5 337.76,-13.5"/>
</g>
<!-- Node3 -->
<g id="node3" class="node">
<title>Node3</title>
<g id="a_node3"><a xlink:href="classtwop_1_1Model.html#a8e7a374cd93c0070be4c04c57d21fcc0" target="_top" xlink:title="Main driver to simulate.">
<polygon fill="none" stroke="black" points="74,-0.5 74,-19.5 163,-19.5 163,-0.5 74,-0.5"/>
<text text-anchor="middle" x="118.5" y="-7.5" font-family="Arial" font-size="10.00">twop::Model::run</text>
</a>
</g>
</g>
<!-- Node2&#45;&gt;Node3 -->
<g id="edge2" class="edge">
<title>Node2&#45;&gt;Node3</title>
<path fill="none" stroke="midnightblue" d="M188.67,-10C180,-10 171.28,-10 163.1,-10"/>
<polygon fill="midnightblue" stroke="midnightblue" points="188.81,-13.5 198.81,-10 188.81,-6.5 188.81,-13.5"/>
</g>
<!-- Node4 -->
<g id="node4" class="node">
<title>Node4</title>
<g id="a_node4"><a xlink:href="apps_2twop_2main_8cpp.html#a0ddf1224851353fc92bfbff6f499fa97" target="_top" xlink:title=" ">
<polygon fill="none" stroke="black" points="0,-0.5 0,-19.5 38,-19.5 38,-0.5 0,-0.5"/>
<text text-anchor="middle" x="19" y="-7.5" font-family="Arial" font-size="10.00">main</text>
</a>
</g>
</g>
<!-- Node3&#45;&gt;Node4 -->
<g id="edge3" class="edge">
<title>Node3&#45;&gt;Node4</title>
<path fill="none" stroke="midnightblue" d="M63.83,-10C54.59,-10 45.59,-10 38.17,-10"/>
<polygon fill="midnightblue" stroke="midnightblue" points="63.88,-13.5 73.88,-10 63.88,-6.5 63.88,-13.5"/>
</g>
</g>
</svg>
