<?xml version="1.0" encoding="UTF-8" standalone="no"?>
<!DOCTYPE svg PUBLIC "-//W3C//DTD SVG 1.1//EN"
 "http://www.w3.org/Graphics/SVG/1.1/DTD/svg11.dtd">
<!-- Generated by graphviz version 2.43.0 (0)
 -->
<!-- Title: fe::Mesh::print Pages: 1 -->
<svg width="471pt" height="47pt"
 viewBox="0.00 0.00 471.00 47.00" xmlns="http://www.w3.org/2000/svg" xmlns:xlink="http://www.w3.org/1999/xlink">
<g id="graph0" class="graph" transform="scale(1 1) rotate(0) translate(4 43)">
<title>fe::Mesh::print</title>
<!-- Node1 -->
<g id="node1" class="node">
<title>Node1</title>
<g id="a_node1"><a xlink:title="Prints the information about the object.">
<polygon fill="#bfbfbf" stroke="black" points="0,-19.5 0,-38.5 80,-38.5 80,-19.5 0,-19.5"/>
<text text-anchor="middle" x="40" y="-26.5" font-family="Arial" font-size="10.00">fe::Mesh::print</text>
</a>
</g>
</g>
<!-- Node2 -->
<g id="node2" class="node">
<title>Node2</title>
<g id="a_node2"><a xlink:href="classfe_1_1Mesh.html#afab4cadbb9440bd19cd13dbdf236e937" target="_top" xlink:title="Returns the string containing printable information about the object.">
<polygon fill="none" stroke="black" points="116,-19.5 116,-38.5 208,-38.5 208,-19.5 116,-19.5"/>
<text text-anchor="middle" x="162" y="-26.5" font-family="Arial" font-size="10.00">fe::Mesh::printStr</text>
</a>
</g>
</g>
<!-- Node1&#45;&gt;Node2 -->
<g id="edge1" class="edge">
<title>Node1&#45;&gt;Node2</title>
<path fill="none" stroke="midnightblue" d="M80.29,-29C88.36,-29 97,-29 105.51,-29"/>
<polygon fill="midnightblue" stroke="midnightblue" points="105.79,-32.5 115.79,-29 105.79,-25.5 105.79,-32.5"/>
</g>
<!-- Node3 -->
<g id="node3" class="node">
<title>Node3</title>
<g id="a_node3"><a xlink:href="namespaceutil_1_1io.html#a38afb09a152cca4061850f4123bd3aeb" target="_top" xlink:title="Returns tab spaces of given size.">
<polygon fill="none" stroke="black" points="378,-19.5 378,-38.5 463,-38.5 463,-19.5 378,-19.5"/>
<text text-anchor="middle" x="420.5" y="-26.5" font-family="Arial" font-size="10.00">util::io::getTabS</text>
</a>
</g>
</g>
<!-- Node2&#45;&gt;Node3 -->
<g id="edge2" class="edge">
<title>Node2&#45;&gt;Node3</title>
<path fill="none" stroke="midnightblue" d="M208.27,-29C252.79,-29 320.7,-29 367.44,-29"/>
<polygon fill="midnightblue" stroke="midnightblue" points="367.66,-32.5 377.66,-29 367.66,-25.5 367.66,-32.5"/>
</g>
<!-- Node4 -->
<g id="node4" class="node">
<title>Node4</title>
<g id="a_node4"><a xlink:href="namespaceutil_1_1io.html#a2b2ea15e35fb349760ca1f0b521e7269" target="_top" xlink:title="Returns formatted string for output.">
<polygon fill="none" stroke="black" points="244,-0.5 244,-19.5 342,-19.5 342,-0.5 244,-0.5"/>
<text text-anchor="middle" x="293" y="-7.5" font-family="Arial" font-size="10.00">util::io::printBoxStr</text>
</a>
</g>
</g>
<!-- Node2&#45;&gt;Node4 -->
<g id="edge3" class="edge">
<title>Node2&#45;&gt;Node4</title>
<path fill="none" stroke="midnightblue" d="M208.12,-22.35C216.37,-21.14 225.09,-19.86 233.66,-18.59"/>
<polygon fill="midnightblue" stroke="midnightblue" points="234.23,-22.05 243.62,-17.13 233.21,-15.12 234.23,-22.05"/>
</g>
<!-- Node4&#45;&gt;Node3 -->
<g id="edge4" class="edge">
<title>Node4&#45;&gt;Node3</title>
<path fill="none" stroke="midnightblue" d="M342.16,-17.29C350.52,-18.56 359.24,-19.88 367.68,-21.16"/>
<polygon fill="midnightblue" stroke="midnightblue" points="367.4,-24.65 377.81,-22.69 368.44,-17.73 367.4,-24.65"/>
</g>
</g>
</svg>
