<?xml version="1.0" encoding="UTF-8" standalone="no"?>
<!DOCTYPE svg PUBLIC "-//W3C//DTD SVG 1.1//EN"
 "http://www.w3.org/Graphics/SVG/1.1/DTD/svg11.dtd">
<!-- Generated by graphviz version 2.43.0 (0)
 -->
<!-- Title: model::DEMModel::checkStop Pages: 1 -->
<svg width="479pt" height="116pt"
 viewBox="0.00 0.00 479.00 115.50" xmlns="http://www.w3.org/2000/svg" xmlns:xlink="http://www.w3.org/1999/xlink">
<g id="graph0" class="graph" transform="scale(1 1) rotate(0) translate(4 111.5)">
<title>model::DEMModel::checkStop</title>
<!-- Node1 -->
<g id="node1" class="node">
<title>Node1</title>
<g id="a_node1"><a xlink:title="Checks if simulation should be stopped due to abnormal state of system.">
<polygon fill="#bfbfbf" stroke="black" points="0,-50 0,-69 150,-69 150,-50 0,-50"/>
<text text-anchor="middle" x="75" y="-57" font-family="Arial" font-size="10.00">model::DEMModel::checkStop</text>
</a>
</g>
</g>
<!-- Node2 -->
<g id="node2" class="node">
<title>Node2</title>
<g id="a_node2"><a xlink:href="namespaceutil.html#a227b5f8acbd7a403a033663c8893d631" target="_top" xlink:title="Returns true if a &gt; b.">
<polygon fill="none" stroke="black" points="212,-88 212,-107 287,-107 287,-88 212,-88"/>
<text text-anchor="middle" x="249.5" y="-95" font-family="Arial" font-size="10.00">util::isGreater</text>
</a>
</g>
</g>
<!-- Node1&#45;&gt;Node2 -->
<g id="edge1" class="edge">
<title>Node1&#45;&gt;Node2</title>
<path fill="none" stroke="midnightblue" d="M119.53,-69.09C144.73,-74.64 176.44,-81.63 202.11,-87.28"/>
<polygon fill="midnightblue" stroke="midnightblue" points="201.46,-90.72 211.98,-89.46 202.97,-83.89 201.46,-90.72"/>
</g>
<!-- Node3 -->
<g id="node3" class="node">
<title>Node3</title>
<g id="a_node3"><a xlink:href="namespaceutil_1_1io.html#acc310b3994931fe61f43d5a5152aebc1" target="_top" xlink:title="Global method to log the message.">
<polygon fill="none" stroke="black" points="218.5,-50 218.5,-69 280.5,-69 280.5,-50 218.5,-50"/>
<text text-anchor="middle" x="249.5" y="-57" font-family="Arial" font-size="10.00">util::io::log</text>
</a>
</g>
</g>
<!-- Node1&#45;&gt;Node3 -->
<g id="edge2" class="edge">
<title>Node1&#45;&gt;Node3</title>
<path fill="none" stroke="midnightblue" d="M150.16,-59.5C169.97,-59.5 190.65,-59.5 207.91,-59.5"/>
<polygon fill="midnightblue" stroke="midnightblue" points="208.17,-63 218.17,-59.5 208.17,-56 208.17,-63"/>
</g>
<!-- Node5 -->
<g id="node5" class="node">
<title>Node5</title>
<g id="a_node5"><a xlink:href="namespaceutil_1_1methods.html#ae329ac81666051b0cdcca46bde4fb0a7" target="_top" xlink:title="Returns the maximum length of point and index from list of points.">
<polygon fill="none" stroke="black" points="186,-0.5 186,-30.5 313,-30.5 313,-0.5 186,-0.5"/>
<text text-anchor="start" x="194" y="-18.5" font-family="Arial" font-size="10.00">util::methods::maxLength</text>
<text text-anchor="middle" x="249.5" y="-7.5" font-family="Arial" font-size="10.00">AndMaxLengthIndex</text>
</a>
</g>
</g>
<!-- Node1&#45;&gt;Node5 -->
<g id="edge4" class="edge">
<title>Node1&#45;&gt;Node5</title>
<path fill="none" stroke="midnightblue" d="M113.43,-49.95C132.76,-45.02 156.98,-38.84 179.55,-33.09"/>
<polygon fill="midnightblue" stroke="midnightblue" points="180.61,-36.43 189.44,-30.57 178.88,-29.65 180.61,-36.43"/>
</g>
<!-- Node4 -->
<g id="node4" class="node">
<title>Node4</title>
<g id="a_node4"><a xlink:href="classutil_1_1io_1_1Logger.html#a5d4600ff2841534892839c72a7f04547" target="_top" xlink:title="Log the message.">
<polygon fill="none" stroke="black" points="361.5,-50 361.5,-69 458.5,-69 458.5,-50 361.5,-50"/>
<text text-anchor="middle" x="410" y="-57" font-family="Arial" font-size="10.00">util::io::Logger::log</text>
</a>
</g>
</g>
<!-- Node3&#45;&gt;Node4 -->
<g id="edge3" class="edge">
<title>Node3&#45;&gt;Node4</title>
<path fill="none" stroke="midnightblue" d="M280.69,-59.5C300.65,-59.5 327.46,-59.5 351.41,-59.5"/>
<polygon fill="midnightblue" stroke="midnightblue" points="351.47,-63 361.47,-59.5 351.47,-56 351.47,-63"/>
</g>
<!-- Node6 -->
<g id="node6" class="node">
<title>Node6</title>
<g id="a_node6"><a xlink:href="namespaceutil_1_1methods.html#afcbb8d0d56cac1187ad2945bd187f6cf" target="_top" xlink:title="Returns the index corresponding to maximum from list of data.">
<polygon fill="none" stroke="black" points="349,-6 349,-25 471,-25 471,-6 349,-6"/>
<text text-anchor="middle" x="410" y="-13" font-family="Arial" font-size="10.00">util::methods::maxIndex</text>
</a>
</g>
</g>
<!-- Node5&#45;&gt;Node6 -->
<g id="edge5" class="edge">
<title>Node5&#45;&gt;Node6</title>
<path fill="none" stroke="midnightblue" d="M313.14,-15.5C321.51,-15.5 330.13,-15.5 338.62,-15.5"/>
<polygon fill="midnightblue" stroke="midnightblue" points="338.88,-19 348.88,-15.5 338.88,-12 338.88,-19"/>
</g>
</g>
</svg>
