<?xml version="1.0" encoding="UTF-8" standalone="no"?>
<!DOCTYPE svg PUBLIC "-//W3C//DTD SVG 1.1//EN"
 "http://www.w3.org/Graphics/SVG/1.1/DTD/svg11.dtd">
<!-- Generated by graphviz version 2.43.0 (0)
 -->
<!-- Title: geom::AnnulusGeomObject::isOutside Pages: 1 -->
<svg width="495pt" height="38pt"
 viewBox="0.00 0.00 495.00 38.00" xmlns="http://www.w3.org/2000/svg" xmlns:xlink="http://www.w3.org/1999/xlink">
<g id="graph0" class="graph" transform="scale(1 1) rotate(0) translate(4 34)">
<title>geom::AnnulusGeomObject::isOutside</title>
<!-- Node1 -->
<g id="Node000001" class="node">
<title>Node1</title>
<g id="a_Node000001"><a xlink:title="Checks if point is outside of this object.">
<polygon fill="#999999" stroke="#666666" points="137,-30 0,-30 0,0 137,0 137,-30"/>
<text text-anchor="start" x="8" y="-18" font-family="Arial" font-size="10.00">geom::AnnulusGeomObject</text>
<text text-anchor="middle" x="68.5" y="-7" font-family="Arial" font-size="10.00">::isOutside</text>
</a>
</g>
</g>
<!-- Node2 -->
<g id="Node000002" class="node">
<title>Node2</title>
<g id="a_Node000002"><a xlink:href="classgeom_1_1AnnulusGeomObject.html#abfe0c396bd2456cca69e523f1a0b6899" target="_top" xlink:title="Checks if point is inside this object.">
<polygon fill="white" stroke="#666666" points="310,-30 173,-30 173,0 310,0 310,-30"/>
<text text-anchor="start" x="181" y="-18" font-family="Arial" font-size="10.00">geom::AnnulusGeomObject</text>
<text text-anchor="middle" x="241.5" y="-7" font-family="Arial" font-size="10.00">::isInside</text>
</a>
</g>
</g>
<!-- Node1&#45;&gt;Node2 -->
<g id="edge1_Node000001_Node000002" class="edge">
<title>Node1&#45;&gt;Node2</title>
<g id="a_edge1_Node000001_Node000002"><a xlink:title=" ">
<path fill="none" stroke="#63b8ff" d="M137.08,-15C145.54,-15 154.24,-15 162.83,-15"/>
<polygon fill="#63b8ff" stroke="#63b8ff" points="162.85,-18.5 172.85,-15 162.85,-11.5 162.85,-18.5"/>
</a>
</g>
</g>
<!-- Node3 -->
<g id="Node000003" class="node">
<title>Node3</title>
<g id="a_Node000003"><a xlink:href="classgeom_1_1GeomObject.html#a7ad182dc9086663d8667cdfd50eaa842" target="_top" xlink:title="Checks if point is inside this object.">
<polygon fill="white" stroke="#666666" points="487,-24.5 346,-24.5 346,-5.5 487,-5.5 487,-24.5"/>
<text text-anchor="middle" x="416.5" y="-12.5" font-family="Arial" font-size="10.00">geom::GeomObject::isInside</text>
</a>
</g>
</g>
<!-- Node2&#45;&gt;Node3 -->
<g id="edge2_Node000002_Node000003" class="edge">
<title>Node2&#45;&gt;Node3</title>
<g id="a_edge2_Node000002_Node000003"><a xlink:title=" ">
<path fill="none" stroke="#63b8ff" d="M310.38,-15C318.66,-15 327.17,-15 335.6,-15"/>
<polygon fill="#63b8ff" stroke="#63b8ff" points="335.83,-18.5 345.83,-15 335.83,-11.5 335.83,-18.5"/>
</a>
</g>
</g>
</g>
</svg>
