<?xml version="1.0" encoding="UTF-8" standalone="no"?>
<!DOCTYPE svg PUBLIC "-//W3C//DTD SVG 1.1//EN"
 "http://www.w3.org/Graphics/SVG/1.1/DTD/svg11.dtd">
<!-- Generated by graphviz version 2.43.0 (0)
 -->
<!-- Title: /home/user/project/src/inp/contactPairDeck.h Pages: 1 -->
<svg width="1093pt" height="313pt"
 viewBox="0.00 0.00 1093.15 313.00" xmlns="http://www.w3.org/2000/svg" xmlns:xlink="http://www.w3.org/1999/xlink">
<g id="graph0" class="graph" transform="scale(1 1) rotate(0) translate(4 309)">
<title>/home/user/project/src/inp/contactPairDeck.h</title>
<!-- Node1 -->
<g id="Node000001" class="node">
<title>Node1</title>
<g id="a_Node000001"><a xlink:title=" ">
<polygon fill="#999999" stroke="#666666" points="539.65,-305 406.65,-305 406.65,-275 539.65,-275 539.65,-305"/>
<text text-anchor="start" x="414.65" y="-293" font-family="Arial" font-size="10.00">/home/user/project</text>
<text text-anchor="middle" x="473.15" y="-282" font-family="Arial" font-size="10.00">/src/inp/contactPairDeck.h</text>
</a>
</g>
</g>
<!-- Node2 -->
<g id="Node000002" class="node">
<title>Node2</title>
<g id="a_Node000002"><a xlink:href="deckField_8h.html" target="_top" xlink:title=" ">
<polygon fill="white" stroke="#666666" points="444.65,-239 377.65,-239 377.65,-220 444.65,-220 444.65,-239"/>
<text text-anchor="middle" x="411.15" y="-227" font-family="Arial" font-size="10.00">deckField.h</text>
</a>
</g>
</g>
<!-- Node1&#45;&gt;Node2 -->
<g id="edge1_Node000001_Node000002" class="edge">
<title>Node1&#45;&gt;Node2</title>
<g id="a_edge1_Node000001_Node000002"><a xlink:title=" ">
<path fill="none" stroke="#63b8ff" d="M458.14,-274.84C448.96,-266.17 437.19,-255.08 427.73,-246.15"/>
<polygon fill="#63b8ff" stroke="#63b8ff" points="430.11,-243.58 420.44,-239.27 425.31,-248.67 430.11,-243.58"/>
</a>
</g>
</g>
<!-- Node3 -->
<g id="Node000003" class="node">
<title>Node3</title>
<g id="a_Node000003"><a xlink:href="io_8h.html" target="_top" xlink:title=" ">
<polygon fill="white" stroke="#666666" points="492.15,-184 444.15,-184 444.15,-165 492.15,-165 492.15,-184"/>
<text text-anchor="middle" x="468.15" y="-172" font-family="Arial" font-size="10.00">util/io.h</text>
</a>
</g>
</g>
<!-- Node1&#45;&gt;Node3 -->
<g id="edge43_Node000001_Node000003" class="edge">
<title>Node1&#45;&gt;Node3</title>
<g id="a_edge43_Node000001_Node000003"><a xlink:title=" ">
<path fill="none" stroke="#63b8ff" d="M472.51,-274.63C471.61,-254.21 469.97,-216.81 468.97,-194.24"/>
<polygon fill="#63b8ff" stroke="#63b8ff" points="472.47,-194.07 468.53,-184.23 465.48,-194.37 472.47,-194.07"/>
</a>
</g>
</g>
<!-- Node24 -->
<g id="Node000024" class="node">
<title>Node24</title>
<g id="a_Node000024"><a xlink:href="json_8h.html" target="_top" xlink:title=" ">
<polygon fill="white" stroke="#666666" points="1022.65,-184 963.65,-184 963.65,-165 1022.65,-165 1022.65,-184"/>
<text text-anchor="middle" x="993.15" y="-172" font-family="Arial" font-size="10.00">util/json.h</text>
</a>
</g>
</g>
<!-- Node1&#45;&gt;Node24 -->
<g id="edge44_Node000001_Node000024" class="edge">
<title>Node1&#45;&gt;Node24</title>
<g id="a_edge44_Node000001_Node000024"><a xlink:title=" ">
<path fill="none" stroke="#63b8ff" d="M537.43,-274.97C646.43,-251.18 864.35,-203.61 953.62,-184.13"/>
<polygon fill="#63b8ff" stroke="#63b8ff" points="954.58,-187.5 963.61,-181.95 953.09,-180.66 954.58,-187.5"/>
</a>
</g>
</g>
<!-- Node2&#45;&gt;Node3 -->
<g id="edge2_Node000002_Node000003" class="edge">
<title>Node2&#45;&gt;Node3</title>
<g id="a_edge2_Node000002_Node000003"><a xlink:title=" ">
<path fill="none" stroke="#63b8ff" d="M420.31,-219.98C428.65,-212.23 441.18,-200.58 451.32,-191.14"/>
<polygon fill="#63b8ff" stroke="#63b8ff" points="453.88,-193.54 458.82,-184.17 449.12,-188.42 453.88,-193.54"/>
</a>
</g>
</g>
<!-- Node7 -->
<g id="Node000007" class="node">
<title>Node7</title>
<g id="a_Node000007"><a xlink:title=" ">
<polygon fill="#e0e0e0" stroke="#999999" points="563.15,-74 511.15,-74 511.15,-55 563.15,-55 563.15,-74"/>
<text text-anchor="middle" x="537.15" y="-62" font-family="Arial" font-size="10.00">sstream</text>
</a>
</g>
</g>
<!-- Node2&#45;&gt;Node7 -->
<g id="edge38_Node000002_Node000007" class="edge">
<title>Node2&#45;&gt;Node7</title>
<g id="a_edge38_Node000002_Node000007"><a xlink:title=" ">
<path fill="none" stroke="#63b8ff" d="M444.72,-223.28C520.31,-210.77 700,-176.56 735.15,-129 797.47,-44.67 897.7,-147.8 573.71,-74.31"/>
<polygon fill="#63b8ff" stroke="#63b8ff" points="574.04,-70.79 563.51,-71.96 572.47,-77.61 574.04,-70.79"/>
</a>
</g>
</g>
<!-- Node9 -->
<g id="Node000009" class="node">
<title>Node9</title>
<g id="a_Node000009"><a xlink:title=" ">
<polygon fill="#e0e0e0" stroke="#999999" points="375.15,-19 331.15,-19 331.15,0 375.15,0 375.15,-19"/>
<text text-anchor="middle" x="353.15" y="-7" font-family="Arial" font-size="10.00">vector</text>
</a>
</g>
</g>
<!-- Node2&#45;&gt;Node9 -->
<g id="edge42_Node000002_Node000009" class="edge">
<title>Node2&#45;&gt;Node9</title>
<g id="a_edge42_Node000002_Node000009"><a xlink:title=" ">
<path fill="none" stroke="#63b8ff" d="M377.57,-226.72C302.07,-222.3 121.22,-209.33 66.15,-184 32.98,-168.75 19.98,-162.35 5.15,-129 -23.7,-64.14 79.64,-66.09 112.15,-55 184.44,-30.34 273.85,-18.39 320.82,-13.44"/>
<polygon fill="#63b8ff" stroke="#63b8ff" points="321.4,-16.9 331,-12.41 320.7,-9.94 321.4,-16.9"/>
</a>
</g>
</g>
<!-- Node10 -->
<g id="Node000010" class="node">
<title>Node10</title>
<g id="a_Node000010"><a xlink:title=" ">
<polygon fill="#e0e0e0" stroke="#999999" points="82.65,-129 23.65,-129 23.65,-110 82.65,-110 82.65,-129"/>
<text text-anchor="middle" x="53.15" y="-117" font-family="Arial" font-size="10.00">stdexcept</text>
</a>
</g>
</g>
<!-- Node2&#45;&gt;Node10 -->
<g id="edge39_Node000002_Node000010" class="edge">
<title>Node2&#45;&gt;Node10</title>
<g id="a_edge39_Node000002_Node000010"><a xlink:title=" ">
<path fill="none" stroke="#63b8ff" d="M412.1,-219.57C413.03,-205.65 412.53,-178.95 397.15,-165 347.41,-119.89 163.49,-139.37 97.15,-129 95.85,-128.8 94.53,-128.58 93.2,-128.36"/>
<polygon fill="#63b8ff" stroke="#63b8ff" points="93.37,-124.84 82.92,-126.55 92.16,-131.73 93.37,-124.84"/>
</a>
</g>
</g>
<!-- Node17 -->
<g id="Node000017" class="node">
<title>Node17</title>
<g id="a_Node000017"><a xlink:title=" ">
<polygon fill="#e0e0e0" stroke="#999999" points="917.65,-19 876.65,-19 876.65,0 917.65,0 917.65,-19"/>
<text text-anchor="middle" x="897.15" y="-7" font-family="Arial" font-size="10.00">string</text>
</a>
</g>
</g>
<!-- Node2&#45;&gt;Node17 -->
<g id="edge40_Node000002_Node000017" class="edge">
<title>Node2&#45;&gt;Node17</title>
<g id="a_edge40_Node000002_Node000017"><a xlink:title=" ">
<path fill="none" stroke="#63b8ff" d="M444.75,-225.32C516.19,-217.49 687.04,-193.04 814.15,-129 854,-108.92 876.93,-113.26 898.15,-74 905.52,-60.36 904.49,-42.54 902.07,-29.26"/>
<polygon fill="#63b8ff" stroke="#63b8ff" points="905.45,-28.35 899.85,-19.35 898.62,-29.87 905.45,-28.35"/>
</a>
</g>
</g>
<!-- Node19 -->
<g id="Node000019" class="node">
<title>Node19</title>
<g id="a_Node000019"><a xlink:title=" ">
<polygon fill="#e0e0e0" stroke="#999999" points="177.15,-74 121.15,-74 121.15,-55 177.15,-55 177.15,-74"/>
<text text-anchor="middle" x="149.15" y="-62" font-family="Arial" font-size="10.00">algorithm</text>
</a>
</g>
</g>
<!-- Node2&#45;&gt;Node19 -->
<g id="edge35_Node000002_Node000019" class="edge">
<title>Node2&#45;&gt;Node19</title>
<g id="a_edge35_Node000002_Node000019"><a xlink:title=" ">
<path fill="none" stroke="#63b8ff" d="M377.44,-225.52C289.44,-216.95 56.64,-188.91 14.15,-129 -12.36,-91.62 62.24,-75.58 110.87,-69.24"/>
<polygon fill="#63b8ff" stroke="#63b8ff" points="111.3,-72.71 120.8,-68.02 110.45,-65.76 111.3,-72.71"/>
</a>
</g>
</g>
<!-- Node2&#45;&gt;Node24 -->
<g id="edge33_Node000002_Node000024" class="edge">
<title>Node2&#45;&gt;Node24</title>
<g id="a_edge33_Node000002_Node000024"><a xlink:title=" ">
<path fill="none" stroke="#63b8ff" d="M444.65,-226.99C529.44,-222.9 759.27,-210.11 949.15,-184 950.45,-183.82 951.77,-183.63 953.1,-183.43"/>
<polygon fill="#63b8ff" stroke="#63b8ff" points="954.11,-186.8 963.4,-181.7 952.96,-179.9 954.11,-186.8"/>
</a>
</g>
</g>
<!-- Node26 -->
<g id="Node000026" class="node">
<title>Node26</title>
<g id="a_Node000026"><a xlink:title=" ">
<polygon fill="#e0e0e0" stroke="#999999" points="239.65,-184 180.65,-184 180.65,-165 239.65,-165 239.65,-184"/>
<text text-anchor="middle" x="210.15" y="-172" font-family="Arial" font-size="10.00">functional</text>
</a>
</g>
</g>
<!-- Node2&#45;&gt;Node26 -->
<g id="edge36_Node000002_Node000026" class="edge">
<title>Node2&#45;&gt;Node26</title>
<g id="a_edge36_Node000002_Node000026"><a xlink:title=" ">
<path fill="none" stroke="#63b8ff" d="M378.85,-219.98C343.76,-210.73 287.65,-195.94 249.88,-185.98"/>
<polygon fill="#63b8ff" stroke="#63b8ff" points="250.3,-182.47 239.74,-183.3 248.52,-189.24 250.3,-182.47"/>
</a>
</g>
</g>
<!-- Node27 -->
<g id="Node000027" class="node">
<title>Node27</title>
<g id="a_Node000027"><a xlink:title=" ">
<polygon fill="#e0e0e0" stroke="#999999" points="308.15,-184 258.15,-184 258.15,-165 308.15,-165 308.15,-184"/>
<text text-anchor="middle" x="283.15" y="-172" font-family="Arial" font-size="10.00">optional</text>
</a>
</g>
</g>
<!-- Node2&#45;&gt;Node27 -->
<g id="edge37_Node000002_Node000027" class="edge">
<title>Node2&#45;&gt;Node27</title>
<g id="a_edge37_Node000002_Node000027"><a xlink:title=" ">
<path fill="none" stroke="#63b8ff" d="M390.58,-219.98C369.71,-211.34 337.18,-197.87 313.37,-188.02"/>
<polygon fill="#63b8ff" stroke="#63b8ff" points="314.67,-184.76 304.09,-184.17 311.99,-191.23 314.67,-184.76"/>
</a>
</g>
</g>
<!-- Node28 -->
<g id="Node000028" class="node">
<title>Node28</title>
<g id="a_Node000028"><a xlink:title=" ">
<polygon fill="#e0e0e0" stroke="#999999" points="388.15,-184 326.15,-184 326.15,-165 388.15,-165 388.15,-184"/>
<text text-anchor="middle" x="357.15" y="-172" font-family="Arial" font-size="10.00">type_traits</text>
</a>
</g>
</g>
<!-- Node2&#45;&gt;Node28 -->
<g id="edge41_Node000002_Node000028" class="edge">
<title>Node2&#45;&gt;Node28</title>
<g id="a_edge41_Node000002_Node000028"><a xlink:title=" ">
<path fill="none" stroke="#63b8ff" d="M402.23,-219.75C394.37,-212.03 382.72,-200.6 373.23,-191.28"/>
<polygon fill="#63b8ff" stroke="#63b8ff" points="375.49,-188.6 365.9,-184.09 370.58,-193.59 375.49,-188.6"/>
</a>
</g>
</g>
<!-- Node3&#45;&gt;Node3 -->
<g id="edge9_Node000003_Node000003" class="edge">
<title>Node3&#45;&gt;Node3</title>
<g id="a_edge9_Node000003_Node000003"><a xlink:title=" ">
<path fill="none" stroke="#63b8ff" d="M488.02,-184.07C499.48,-186.02 510.15,-182.83 510.15,-174.5 510.15,-168.77 505.11,-165.47 498.23,-164.61"/>
<polygon fill="#63b8ff" stroke="#63b8ff" points="497.91,-161.12 488.02,-164.93 498.13,-168.11 497.91,-161.12"/>
</a>
</g>
</g>
<!-- Node4 -->
<g id="Node000004" class="node">
<title>Node4</title>
<g id="a_Node000004"><a xlink:href="point_8h.html" target="_top" xlink:title=" ">
<polygon fill="white" stroke="#666666" points="491.15,-129 445.15,-129 445.15,-110 491.15,-110 491.15,-129"/>
<text text-anchor="middle" x="468.15" y="-117" font-family="Arial" font-size="10.00">point.h</text>
</a>
</g>
</g>
<!-- Node3&#45;&gt;Node4 -->
<g id="edge3_Node000003_Node000004" class="edge">
<title>Node3&#45;&gt;Node4</title>
<g id="a_edge3_Node000003_Node000004"><a xlink:title=" ">
<path fill="none" stroke="#63b8ff" d="M468.15,-164.75C468.15,-157.8 468.15,-147.85 468.15,-139.13"/>
<polygon fill="#63b8ff" stroke="#63b8ff" points="471.65,-139.09 468.15,-129.09 464.65,-139.09 471.65,-139.09"/>
</a>
</g>
</g>
<!-- Node3&#45;&gt;Node7 -->
<g id="edge20_Node000003_Node000007" class="edge">
<title>Node3&#45;&gt;Node7</title>
<g id="a_edge20_Node000003_Node000007"><a xlink:title=" ">
<path fill="none" stroke="#63b8ff" d="M474.78,-164.81C481.43,-155.96 491.86,-141.77 500.15,-129 510,-113.82 520.29,-95.96 527.51,-83.06"/>
<polygon fill="#63b8ff" stroke="#63b8ff" points="530.59,-84.73 532.38,-74.29 524.47,-81.34 530.59,-84.73"/>
</a>
</g>
</g>
<!-- Node8 -->
<g id="Node000008" class="node">
<title>Node8</title>
<g id="a_Node000008"><a xlink:title=" ">
<polygon fill="#e0e0e0" stroke="#999999" points="325.15,-74 271.15,-74 271.15,-55 325.15,-55 325.15,-74"/>
<text text-anchor="middle" x="298.15" y="-62" font-family="Arial" font-size="10.00">iostream</text>
</a>
</g>
</g>
<!-- Node3&#45;&gt;Node8 -->
<g id="edge21_Node000003_Node000008" class="edge">
<title>Node3&#45;&gt;Node8</title>
<g id="a_edge21_Node000003_Node000008"><a xlink:title=" ">
<path fill="none" stroke="#63b8ff" d="M460.25,-164.74C447.99,-151.52 423.16,-126.31 398.15,-110 377.72,-96.68 352.65,-85.54 332.72,-77.73"/>
<polygon fill="#63b8ff" stroke="#63b8ff" points="333.69,-74.36 323.1,-74.06 331.2,-80.9 333.69,-74.36"/>
</a>
</g>
</g>
<!-- Node3&#45;&gt;Node9 -->
<g id="edge22_Node000003_Node000009" class="edge">
<title>Node3&#45;&gt;Node9</title>
<g id="a_edge22_Node000003_Node000009"><a xlink:title=" ">
<path fill="none" stroke="#63b8ff" d="M486.37,-164.88C534.02,-142.28 658.98,-82.42 664.15,-74 668.56,-66.8 669.68,-61.38 664.15,-55 628.38,-13.75 458.32,-9.8 385.91,-10.04"/>
<polygon fill="#63b8ff" stroke="#63b8ff" points="385.54,-6.54 375.56,-10.11 385.59,-13.54 385.54,-6.54"/>
</a>
</g>
</g>
<!-- Node3&#45;&gt;Node10 -->
<g id="edge10_Node000003_Node000010" class="edge">
<title>Node3&#45;&gt;Node10</title>
<g id="a_edge10_Node000003_Node000010"><a xlink:title=" ">
<path fill="none" stroke="#63b8ff" d="M444.1,-167.69C439.49,-166.7 434.68,-165.75 430.15,-165 283.28,-140.71 244.35,-151.14 97.15,-129 95.85,-128.8 94.53,-128.6 93.2,-128.38"/>
<polygon fill="#63b8ff" stroke="#63b8ff" points="93.36,-124.86 82.91,-126.6 92.17,-131.76 93.36,-124.86"/>
</a>
</g>
</g>
<!-- Node11 -->
<g id="Node000011" class="node">
<title>Node11</title>
<g id="a_Node000011"><a xlink:href="constants_8h.html" target="_top" xlink:title=" ">
<polygon fill="white" stroke="#666666" points="869.15,-74 801.15,-74 801.15,-55 869.15,-55 869.15,-74"/>
<text text-anchor="middle" x="835.15" y="-62" font-family="Arial" font-size="10.00">constants.h</text>
</a>
</g>
</g>
<!-- Node3&#45;&gt;Node11 -->
<g id="edge11_Node000003_Node000011" class="edge">
<title>Node3&#45;&gt;Node11</title>
<g id="a_edge11_Node000003_Node000011"><a xlink:title=" ">
<path fill="none" stroke="#63b8ff" d="M492.19,-172.68C540.01,-170.38 649.78,-161.66 735.15,-129 766.13,-117.15 797.77,-95.02 816.94,-80.27"/>
<polygon fill="#63b8ff" stroke="#63b8ff" points="819.12,-83.01 824.82,-74.08 814.79,-77.51 819.12,-83.01"/>
</a>
</g>
</g>
<!-- Node12 -->
<g id="Node000012" class="node">
<title>Node12</title>
<g id="a_Node000012"><a xlink:href="logger_8h.html" target="_top" xlink:title=" ">
<polygon fill="white" stroke="#666666" points="663.65,-129 612.65,-129 612.65,-110 663.65,-110 663.65,-129"/>
<text text-anchor="middle" x="638.15" y="-117" font-family="Arial" font-size="10.00">logger.h</text>
</a>
</g>
</g>
<!-- Node3&#45;&gt;Node12 -->
<g id="edge12_Node000003_Node000012" class="edge">
<title>Node3&#45;&gt;Node12</title>
<g id="a_edge12_Node000003_Node000012"><a xlink:title=" ">
<path fill="none" stroke="#63b8ff" d="M492.5,-165.91C521.38,-156.91 569.72,-141.83 602.73,-131.54"/>
<polygon fill="#63b8ff" stroke="#63b8ff" points="603.94,-134.83 612.44,-128.51 601.86,-128.15 603.94,-134.83"/>
</a>
</g>
</g>
<!-- Node14 -->
<g id="Node000014" class="node">
<title>Node14</title>
<g id="a_Node000014"><a xlink:title=" ">
<polygon fill="#e0e0e0" stroke="#999999" points="230.15,-19 180.15,-19 180.15,0 230.15,0 230.15,-19"/>
<text text-anchor="middle" x="205.15" y="-7" font-family="Arial" font-size="10.00">fstream</text>
</a>
</g>
</g>
<!-- Node3&#45;&gt;Node14 -->
<g id="edge19_Node000003_Node000014" class="edge">
<title>Node3&#45;&gt;Node14</title>
<g id="a_edge19_Node000003_Node000014"><a xlink:title=" ">
<path fill="none" stroke="#63b8ff" d="M444.04,-169.33C435.55,-167.9 425.93,-166.33 417.15,-165 299.62,-147.23 254.19,-189.96 152.15,-129 120.05,-109.83 92.22,-86.63 112.15,-55 124.86,-34.83 149.52,-23.6 170.25,-17.47"/>
<polygon fill="#63b8ff" stroke="#63b8ff" points="171.29,-20.82 180.05,-14.85 169.48,-14.05 171.29,-20.82"/>
</a>
</g>
</g>
<!-- Node3&#45;&gt;Node17 -->
<g id="edge25_Node000003_Node000017" class="edge">
<title>Node3&#45;&gt;Node17</title>
<g id="a_edge25_Node000003_Node000017"><a xlink:title=" ">
<path fill="none" stroke="#63b8ff" d="M492.45,-172.49C544.26,-169.78 668.97,-160.27 768.15,-129 820.28,-112.56 842.98,-115.84 878.15,-74 888.67,-61.47 893.37,-43.27 895.46,-29.57"/>
<polygon fill="#63b8ff" stroke="#63b8ff" points="898.97,-29.67 896.68,-19.33 892.02,-28.85 898.97,-29.67"/>
</a>
</g>
</g>
<!-- Node3&#45;&gt;Node19 -->
<g id="edge23_Node000003_Node000019" class="edge">
<title>Node3&#45;&gt;Node19</title>
<g id="a_edge23_Node000003_Node000019"><a xlink:title=" ">
<path fill="none" stroke="#63b8ff" d="M444.09,-167.8C439.47,-166.8 434.67,-165.82 430.15,-165 372.31,-154.58 212.78,-167.23 168.15,-129 155.32,-118.01 150.96,-98.75 149.57,-84.32"/>
<polygon fill="#63b8ff" stroke="#63b8ff" points="153.04,-83.81 148.99,-74.02 146.06,-84.21 153.04,-83.81"/>
</a>
</g>
</g>
<!-- Node20 -->
<g id="Node000020" class="node">
<title>Node20</title>
<g id="a_Node000020"><a xlink:title=" ">
<polygon fill="#e0e0e0" stroke="#999999" points="726.15,-129 682.15,-129 682.15,-110 726.15,-110 726.15,-129"/>
<text text-anchor="middle" x="704.15" y="-117" font-family="Arial" font-size="10.00">format</text>
</a>
</g>
</g>
<!-- Node3&#45;&gt;Node20 -->
<g id="edge24_Node000003_Node000020" class="edge">
<title>Node3&#45;&gt;Node20</title>
<g id="a_edge24_Node000003_Node000020"><a xlink:title=" ">
<path fill="none" stroke="#63b8ff" d="M492.41,-168.58C530.71,-160.72 607.49,-144.63 672.15,-129 672.25,-128.98 672.35,-128.95 672.45,-128.93"/>
<polygon fill="#63b8ff" stroke="#63b8ff" points="673.31,-132.32 682.15,-126.48 671.59,-125.53 673.31,-132.32"/>
</a>
</g>
</g>
<!-- Node21 -->
<g id="Node000021" class="node">
<title>Node21</title>
<g id="a_Node000021"><a xlink:title=" ">
<polygon fill="#e0e0e0" stroke="#999999" points="212.65,-129 177.65,-129 177.65,-110 212.65,-110 212.65,-129"/>
<text text-anchor="middle" x="195.15" y="-117" font-family="Arial" font-size="10.00">map</text>
</a>
</g>
</g>
<!-- Node3&#45;&gt;Node21 -->
<g id="edge26_Node000003_Node000021" class="edge">
<title>Node3&#45;&gt;Node21</title>
<g id="a_edge26_Node000003_Node000021"><a xlink:title=" ">
<path fill="none" stroke="#63b8ff" d="M444.06,-167.93C439.45,-166.91 434.66,-165.89 430.15,-165 341.18,-147.36 315.04,-150.87 222.54,-128.79"/>
<polygon fill="#63b8ff" stroke="#63b8ff" points="223.31,-125.37 212.77,-126.42 221.67,-132.18 223.31,-125.37"/>
</a>
</g>
</g>
<!-- Node22 -->
<g id="Node000022" class="node">
<title>Node22</title>
<g id="a_Node000022"><a xlink:title=" ">
<polygon fill="#e0e0e0" stroke="#999999" points="297.15,-129 231.15,-129 231.15,-110 297.15,-110 297.15,-129"/>
<text text-anchor="middle" x="264.15" y="-117" font-family="Arial" font-size="10.00">string_view</text>
</a>
</g>
</g>
<!-- Node3&#45;&gt;Node22 -->
<g id="edge27_Node000003_Node000022" class="edge">
<title>Node3&#45;&gt;Node22</title>
<g id="a_edge27_Node000003_Node000022"><a xlink:title=" ">
<path fill="none" stroke="#63b8ff" d="M443.94,-167.21C410.21,-158.45 348.52,-142.42 306.93,-131.61"/>
<polygon fill="#63b8ff" stroke="#63b8ff" points="307.63,-128.18 297.08,-129.05 305.87,-134.96 307.63,-128.18"/>
</a>
</g>
</g>
<!-- Node23 -->
<g id="Node000023" class="node">
<title>Node23</title>
<g id="a_Node000023"><a xlink:href="inputParser_8h.html" target="_top" xlink:title=" ">
<polygon fill="white" stroke="#666666" points="389.15,-129 315.15,-129 315.15,-110 389.15,-110 389.15,-129"/>
<text text-anchor="middle" x="352.15" y="-117" font-family="Arial" font-size="10.00">inputParser.h</text>
</a>
</g>
</g>
<!-- Node3&#45;&gt;Node23 -->
<g id="edge28_Node000003_Node000023" class="edge">
<title>Node3&#45;&gt;Node23</title>
<g id="a_edge28_Node000003_Node000023"><a xlink:title=" ">
<path fill="none" stroke="#63b8ff" d="M449.51,-164.98C430.85,-156.46 401.9,-143.23 380.41,-133.41"/>
<polygon fill="#63b8ff" stroke="#63b8ff" points="381.67,-130.14 371.12,-129.17 378.76,-136.51 381.67,-130.14"/>
</a>
</g>
</g>
<!-- Node5 -->
<g id="Node000005" class="node">
<title>Node5</title>
<g id="a_Node000005"><a xlink:title=" ">
<polygon fill="#e0e0e0" stroke="#999999" points="425.15,-74 381.15,-74 381.15,-55 425.15,-55 425.15,-74"/>
<text text-anchor="middle" x="403.15" y="-62" font-family="Arial" font-size="10.00">cmath</text>
</a>
</g>
</g>
<!-- Node4&#45;&gt;Node5 -->
<g id="edge4_Node000004_Node000005" class="edge">
<title>Node4&#45;&gt;Node5</title>
<g id="a_edge4_Node000004_Node000005"><a xlink:title=" ">
<path fill="none" stroke="#63b8ff" d="M457.7,-109.98C448,-102.07 433.33,-90.11 421.65,-80.58"/>
<polygon fill="#63b8ff" stroke="#63b8ff" points="423.74,-77.78 413.78,-74.17 419.32,-83.2 423.74,-77.78"/>
</a>
</g>
</g>
<!-- Node6 -->
<g id="Node000006" class="node">
<title>Node6</title>
<g id="a_Node000006"><a xlink:title=" ">
<polygon fill="#e0e0e0" stroke="#999999" points="493.15,-74 443.15,-74 443.15,-55 493.15,-55 493.15,-74"/>
<text text-anchor="middle" x="468.15" y="-62" font-family="Arial" font-size="10.00">iomanip</text>
</a>
</g>
</g>
<!-- Node4&#45;&gt;Node6 -->
<g id="edge5_Node000004_Node000006" class="edge">
<title>Node4&#45;&gt;Node6</title>
<g id="a_edge5_Node000004_Node000006"><a xlink:title=" ">
<path fill="none" stroke="#63b8ff" d="M468.15,-109.75C468.15,-102.8 468.15,-92.85 468.15,-84.13"/>
<polygon fill="#63b8ff" stroke="#63b8ff" points="471.65,-84.09 468.15,-74.09 464.65,-84.09 471.65,-84.09"/>
</a>
</g>
</g>
<!-- Node4&#45;&gt;Node7 -->
<g id="edge6_Node000004_Node000007" class="edge">
<title>Node4&#45;&gt;Node7</title>
<g id="a_edge6_Node000004_Node000007"><a xlink:title=" ">
<path fill="none" stroke="#63b8ff" d="M479.23,-109.98C489.63,-102 505.41,-89.88 517.87,-80.31"/>
<polygon fill="#63b8ff" stroke="#63b8ff" points="520.06,-83.04 525.86,-74.17 515.8,-77.49 520.06,-83.04"/>
</a>
</g>
</g>
<!-- Node4&#45;&gt;Node8 -->
<g id="edge7_Node000004_Node000008" class="edge">
<title>Node4&#45;&gt;Node8</title>
<g id="a_edge7_Node000004_Node000008"><a xlink:title=" ">
<path fill="none" stroke="#63b8ff" d="M444.87,-111.24C416.6,-102.43 368.58,-87.46 335.2,-77.05"/>
<polygon fill="#63b8ff" stroke="#63b8ff" points="335.94,-73.62 325.36,-73.98 333.86,-80.3 335.94,-73.62"/>
</a>
</g>
</g>
<!-- Node4&#45;&gt;Node9 -->
<g id="edge8_Node000004_Node000009" class="edge">
<title>Node4&#45;&gt;Node9</title>
<g id="a_edge8_Node000004_Node000009"><a xlink:title=" ">
<path fill="none" stroke="#63b8ff" d="M445.07,-113.57C423.26,-107.75 391.15,-95.94 372.15,-74 361.44,-61.63 356.76,-43.41 354.72,-29.66"/>
<polygon fill="#63b8ff" stroke="#63b8ff" points="358.16,-28.92 353.56,-19.38 351.21,-29.71 358.16,-28.92"/>
</a>
</g>
</g>
<!-- Node12&#45;&gt;Node11 -->
<g id="edge18_Node000012_Node000011" class="edge">
<title>Node12&#45;&gt;Node11</title>
<g id="a_edge18_Node000012_Node000011"><a xlink:title=" ">
<path fill="none" stroke="#63b8ff" d="M663.9,-111.57C696.91,-102.69 754.53,-87.19 793.73,-76.64"/>
<polygon fill="#63b8ff" stroke="#63b8ff" points="794.78,-79.99 803.52,-74.01 792.96,-73.23 794.78,-79.99"/>
</a>
</g>
</g>
<!-- Node13 -->
<g id="Node000013" class="node">
<title>Node13</title>
<g id="a_Node000013"><a xlink:href="loggerDeck_8h.html" target="_top" xlink:title=" ">
<polygon fill="white" stroke="#666666" points="655.15,-74 581.15,-74 581.15,-55 655.15,-55 655.15,-74"/>
<text text-anchor="middle" x="618.15" y="-62" font-family="Arial" font-size="10.00">loggerDeck.h</text>
</a>
</g>
</g>
<!-- Node12&#45;&gt;Node13 -->
<g id="edge13_Node000012_Node000013" class="edge">
<title>Node12&#45;&gt;Node13</title>
<g id="a_edge13_Node000012_Node000013"><a xlink:title=" ">
<path fill="none" stroke="#63b8ff" d="M634.84,-109.75C632.17,-102.65 628.3,-92.4 624.96,-83.56"/>
<polygon fill="#63b8ff" stroke="#63b8ff" points="628.19,-82.21 621.39,-74.09 621.64,-84.68 628.19,-82.21"/>
</a>
</g>
</g>
<!-- Node15 -->
<g id="Node000015" class="node">
<title>Node15</title>
<g id="a_Node000015"><a xlink:href="parallelUtil_8h.html" target="_top" xlink:title=" ">
<polygon fill="#fff0f0" stroke="red" points="782.65,-74 711.65,-74 711.65,-55 782.65,-55 782.65,-74"/>
<text text-anchor="middle" x="747.15" y="-62" font-family="Arial" font-size="10.00">parallelUtil.h</text>
</a>
</g>
</g>
<!-- Node12&#45;&gt;Node15 -->
<g id="edge15_Node000012_Node000015" class="edge">
<title>Node12&#45;&gt;Node15</title>
<g id="a_edge15_Node000012_Node000015"><a xlink:title=" ">
<path fill="none" stroke="#63b8ff" d="M655.66,-109.98C673.12,-101.5 700.16,-88.35 720.32,-78.54"/>
<polygon fill="#63b8ff" stroke="#63b8ff" points="721.85,-81.69 729.32,-74.17 718.79,-75.4 721.85,-81.69"/>
</a>
</g>
</g>
<!-- Node13&#45;&gt;Node14 -->
<g id="edge14_Node000013_Node000014" class="edge">
<title>Node13&#45;&gt;Node14</title>
<g id="a_edge14_Node000013_Node000014"><a xlink:title=" ">
<path fill="none" stroke="#63b8ff" d="M581.02,-56.44C578.02,-55.93 575.04,-55.44 572.15,-55 451.05,-36.49 306.51,-20.84 240.81,-14.08"/>
<polygon fill="#63b8ff" stroke="#63b8ff" points="240.89,-10.57 230.58,-13.03 240.17,-17.53 240.89,-10.57"/>
</a>
</g>
</g>
<!-- Node15&#45;&gt;Node9 -->
<g id="edge17_Node000015_Node000009" class="edge">
<title>Node15&#45;&gt;Node9</title>
<g id="a_edge17_Node000015_Node000009"><a xlink:title=" ">
<path fill="none" stroke="#63b8ff" d="M711.4,-57.24C706.61,-56.46 701.76,-55.69 697.15,-55 582.81,-37.89 446.51,-21.42 385.48,-14.25"/>
<polygon fill="#63b8ff" stroke="#63b8ff" points="385.66,-10.75 375.32,-13.06 384.85,-17.7 385.66,-10.75"/>
</a>
</g>
</g>
<!-- Node15&#45;&gt;Node17 -->
<g id="edge16_Node000015_Node000017" class="edge">
<title>Node15&#45;&gt;Node17</title>
<g id="a_edge16_Node000015_Node000017"><a xlink:title=" ">
<path fill="none" stroke="#63b8ff" d="M771.25,-54.98C797.21,-45.81 838.58,-31.19 866.76,-21.24"/>
<polygon fill="#63b8ff" stroke="#63b8ff" points="868.22,-24.43 876.49,-17.8 865.89,-17.83 868.22,-24.43"/>
</a>
</g>
</g>
<!-- Node23&#45;&gt;Node8 -->
<g id="edge30_Node000023_Node000008" class="edge">
<title>Node23&#45;&gt;Node8</title>
<g id="a_edge30_Node000023_Node000008"><a xlink:title=" ">
<path fill="none" stroke="#63b8ff" d="M343.23,-109.75C335.37,-102.03 323.72,-90.6 314.23,-81.28"/>
<polygon fill="#63b8ff" stroke="#63b8ff" points="316.49,-78.6 306.9,-74.09 311.58,-83.59 316.49,-78.6"/>
</a>
</g>
</g>
<!-- Node23&#45;&gt;Node9 -->
<g id="edge31_Node000023_Node000009" class="edge">
<title>Node23&#45;&gt;Node9</title>
<g id="a_edge31_Node000023_Node000009"><a xlink:title=" ">
<path fill="none" stroke="#63b8ff" d="M318.61,-109.92C286.64,-99.96 245.64,-81.44 262.15,-55 275.03,-34.36 300.57,-23.03 321.32,-16.98"/>
<polygon fill="#63b8ff" stroke="#63b8ff" points="322.27,-20.35 331.05,-14.41 320.48,-13.58 322.27,-20.35"/>
</a>
</g>
</g>
<!-- Node23&#45;&gt;Node14 -->
<g id="edge29_Node000023_Node000014" class="edge">
<title>Node23&#45;&gt;Node14</title>
<g id="a_edge29_Node000023_Node000014"><a xlink:title=" ">
<path fill="none" stroke="#63b8ff" d="M324.73,-109.88C304.18,-102.52 276.11,-90.5 255.15,-74 238.84,-61.16 224.69,-41.97 215.65,-28.05"/>
<polygon fill="#63b8ff" stroke="#63b8ff" points="218.5,-26.01 210.24,-19.39 212.57,-29.72 218.5,-26.01"/>
</a>
</g>
</g>
<!-- Node23&#45;&gt;Node19 -->
<g id="edge32_Node000023_Node000019" class="edge">
<title>Node23&#45;&gt;Node19</title>
<g id="a_edge32_Node000023_Node000019"><a xlink:title=" ">
<path fill="none" stroke="#63b8ff" d="M319.53,-109.98C283.42,-100.56 225.28,-85.38 187.14,-75.42"/>
<polygon fill="#63b8ff" stroke="#63b8ff" points="187.99,-72.02 177.43,-72.88 186.22,-78.8 187.99,-72.02"/>
</a>
</g>
</g>
<!-- Node25 -->
<g id="Node000025" class="node">
<title>Node25</title>
<g id="a_Node000025"><a xlink:title=" ">
<polygon fill="#e0e0e0" stroke="#999999" points="1085.15,-129 963.15,-129 963.15,-110 1085.15,-110 1085.15,-129"/>
<text text-anchor="middle" x="1024.15" y="-117" font-family="Arial" font-size="10.00">nlohmann_json/json.hpp</text>
</a>
</g>
</g>
<!-- Node24&#45;&gt;Node25 -->
<g id="edge34_Node000024_Node000025" class="edge">
<title>Node24&#45;&gt;Node25</title>
<g id="a_edge34_Node000024_Node000025"><a xlink:title=" ">
<path fill="none" stroke="#63b8ff" d="M998.27,-164.75C1002.51,-157.49 1008.67,-146.95 1013.92,-137.98"/>
<polygon fill="#63b8ff" stroke="#63b8ff" points="1017.1,-139.49 1019.12,-129.09 1011.05,-135.95 1017.1,-139.49"/>
</a>
</g>
</g>
</g>
</svg>
