<?xml version="1.0" encoding="UTF-8" standalone="no"?>
<!DOCTYPE svg PUBLIC "-//W3C//DTD SVG 1.1//EN"
 "http://www.w3.org/Graphics/SVG/1.1/DTD/svg11.dtd">
<!-- Generated by graphviz version 2.43.0 (0)
 -->
<!-- Title: /home/user/project/src/inp Pages: 1 -->
<svg width="130pt" height="303pt"
 viewBox="0.00 0.00 130.00 303.00" xmlns="http://www.w3.org/2000/svg" xmlns:xlink="http://www.w3.org/1999/xlink">
<g id="graph0" class="graph" transform="scale(1 1) rotate(0) translate(4 299)">
<title>/home/user/project/src/inp</title>
<g id="clust1" class="cluster">
<title>clusterdir_68267d1309a1af8e8297ef4c3efbcdba</title>
<g id="a_clust1"><a xlink:href="dir_68267d1309a1af8e8297ef4c3efbcdba.html" target="_top" xlink:title="src">
<polygon fill="#ddddee" stroke="black" points="8,-56 8,-287 114,-287 114,-56 8,-56"/>
<text text-anchor="middle" x="61" y="-275" font-family="Arial" font-size="10.00">src</text>
</a>
</g>
</g>
<g id="clust2" class="cluster">
<title>clusterdir_771b643e9eaf2beca0e10d87bde602a1</title>
<g id="a_clust2"><a xlink:href="dir_771b643e9eaf2beca0e10d87bde602a1.html" target="_top">
<polygon fill="#eeeeff" stroke="black" points="16,-64 16,-260 106,-260 106,-64 16,-64"/>
</a>
</g>
</g>
<!-- dir_771b643e9eaf2beca0e10d87bde602a1 -->
<g id="node1" class="node">
<title>dir_771b643e9eaf2beca0e10d87bde602a1</title>
<text text-anchor="middle" x="61" y="-231.5" font-family="Arial" font-size="10.00">inp</text>
</g>
<!-- dir_2f8182a8705fc6245951c88cd9c5edb4 -->
<g id="node2" class="node">
<title>dir_2f8182a8705fc6245951c88cd9c5edb4</title>
<g id="a_node2"><a xlink:href="dir_2f8182a8705fc6245951c88cd9c5edb4.html" target="_top" xlink:title="decks">
<polygon fill="white" stroke="black" points="78,-108 24,-108 24,-72 78,-72 78,-108"/>
<text text-anchor="middle" x="51" y="-87.5" font-family="Arial" font-size="10.00">decks</text>
</a>
</g>
</g>
<!-- dir_771b643e9eaf2beca0e10d87bde602a1&#45;&gt;dir_2f8182a8705fc6245951c88cd9c5edb4 -->
<g id="edge2" class="edge">
<title>dir_771b643e9eaf2beca0e10d87bde602a1&#45;&gt;dir_2f8182a8705fc6245951c88cd9c5edb4</title>
<path fill="none" stroke="black" d="M49.95,-215.61C44.26,-205.62 37.92,-192.58 35,-180 30.19,-159.29 34.95,-135.59 40.5,-117.85"/>
<polygon fill="black" stroke="black" points="43.88,-118.76 43.79,-108.17 37.26,-116.51 43.88,-118.76"/>
<g id="a_edge2&#45;headlabel"><a xlink:href="dir_000005_000082.html" target="_top" xlink:title="7">
<text text-anchor="middle" x="45.42" y="-120.58" font-family="Arial" font-size="10.00">7</text>
</a>
</g>
</g>
<!-- dir_e3f8896dc15412f6cb6947a9289a03fe -->
<g id="node3" class="node">
<title>dir_e3f8896dc15412f6cb6947a9289a03fe</title>
<g id="a_node3"><a xlink:href="dir_e3f8896dc15412f6cb6947a9289a03fe.html" target="_top" xlink:title="pdecks">
<polygon fill="white" stroke="black" points="98,-180 44,-180 44,-144 98,-144 98,-180"/>
<text text-anchor="middle" x="71" y="-159.5" font-family="Arial" font-size="10.00">pdecks</text>
</a>
</g>
</g>
<!-- dir_771b643e9eaf2beca0e10d87bde602a1&#45;&gt;dir_e3f8896dc15412f6cb6947a9289a03fe -->
<g id="edge3" class="edge">
<title>dir_771b643e9eaf2beca0e10d87bde602a1&#45;&gt;dir_e3f8896dc15412f6cb6947a9289a03fe</title>
<path fill="none" stroke="black" d="M63.47,-215.7C64.57,-207.98 65.9,-198.71 67.13,-190.11"/>
<polygon fill="black" stroke="black" points="70.61,-190.5 68.56,-180.1 63.68,-189.51 70.61,-190.5"/>
<g id="a_edge3&#45;headlabel"><a xlink:href="dir_000005_000083.html" target="_top" xlink:title="2">
<text text-anchor="middle" x="72.91" y="-191.96" font-family="Arial" font-size="10.00">2</text>
</a>
</g>
</g>
<!-- dir_b7878ad5ecbf2506f4125b9d34c97e45 -->
<g id="node4" class="node">
<title>dir_b7878ad5ecbf2506f4125b9d34c97e45</title>
<g id="a_node4"><a xlink:href="dir_b7878ad5ecbf2506f4125b9d34c97e45.html" target="_top" xlink:title="util">
<polygon fill="none" stroke="black" points="105,-36 51,-36 51,0 105,0 105,-36"/>
<text text-anchor="middle" x="78" y="-15.5" font-family="Arial" font-size="10.00">util</text>
</a>
</g>
</g>
<!-- dir_2f8182a8705fc6245951c88cd9c5edb4&#45;&gt;dir_b7878ad5ecbf2506f4125b9d34c97e45 -->
<g id="edge1" class="edge">
<title>dir_2f8182a8705fc6245951c88cd9c5edb4&#45;&gt;dir_b7878ad5ecbf2506f4125b9d34c97e45</title>
<path fill="none" stroke="black" d="M57.67,-71.7C60.71,-63.81 64.38,-54.3 67.76,-45.55"/>
<polygon fill="black" stroke="black" points="71.07,-46.69 71.4,-36.1 64.54,-44.17 71.07,-46.69"/>
<g id="a_edge1&#45;headlabel"><a xlink:href="dir_000082_000012.html" target="_top" xlink:title="3">
<text text-anchor="middle" x="72.42" y="-48.57" font-family="Arial" font-size="10.00">3</text>
</a>
</g>
</g>
<!-- dir_e3f8896dc15412f6cb6947a9289a03fe&#45;&gt;dir_2f8182a8705fc6245951c88cd9c5edb4 -->
<g id="edge5" class="edge">
<title>dir_e3f8896dc15412f6cb6947a9289a03fe&#45;&gt;dir_2f8182a8705fc6245951c88cd9c5edb4</title>
<path fill="none" stroke="black" d="M66.06,-143.7C63.83,-135.9 61.15,-126.51 58.67,-117.83"/>
<polygon fill="black" stroke="black" points="62,-116.76 55.89,-108.1 55.27,-118.68 62,-116.76"/>
<g id="a_edge5&#45;headlabel"><a xlink:href="dir_000083_000082.html" target="_top" xlink:title="2">
<text text-anchor="middle" x="65.72" y="-116.93" font-family="Arial" font-size="10.00">2</text>
</a>
</g>
</g>
<!-- dir_e3f8896dc15412f6cb6947a9289a03fe&#45;&gt;dir_b7878ad5ecbf2506f4125b9d34c97e45 -->
<g id="edge4" class="edge">
<title>dir_e3f8896dc15412f6cb6947a9289a03fe&#45;&gt;dir_b7878ad5ecbf2506f4125b9d34c97e45</title>
<path fill="none" stroke="black" d="M77.65,-143.63C81.2,-133.42 85.2,-120.17 87,-108 90.38,-85.14 89.75,-78.95 87,-56 86.61,-52.72 86.02,-49.31 85.34,-45.94"/>
<polygon fill="black" stroke="black" points="88.74,-45.11 83.08,-36.16 81.92,-46.69 88.74,-45.11"/>
<g id="a_edge4&#45;headlabel"><a xlink:href="dir_000083_000012.html" target="_top" xlink:title="6">
<text text-anchor="middle" x="92.32" y="-45.48" font-family="Arial" font-size="10.00">6</text>
</a>
</g>
</g>
</g>
</svg>
