<?xml version="1.0" encoding="UTF-8" standalone="no"?>
<!DOCTYPE svg PUBLIC "-//W3C//DTD SVG 1.1//EN"
 "http://www.w3.org/Graphics/SVG/1.1/DTD/svg11.dtd">
<!-- Generated by graphviz version 2.43.0 (0)
 -->
<!-- Title: /home/user/project/src/material Pages: 1 -->
<svg width="291pt" height="303pt"
 viewBox="0.00 0.00 290.84 303.00" xmlns="http://www.w3.org/2000/svg" xmlns:xlink="http://www.w3.org/1999/xlink">
<g id="graph0" class="graph" transform="scale(1 1) rotate(0) translate(4 299)">
<title>/home/user/project/src/material</title>
<g id="clust1" class="cluster">
<title>clusterdir_68267d1309a1af8e8297ef4c3efbcdba</title>
<g id="a_clust1"><a xlink:href="dir_68267d1309a1af8e8297ef4c3efbcdba.html" target="_top" xlink:title="src">
<polygon fill="#ddddee" stroke="black" points="8,-128 8,-287 96,-287 96,-128 8,-128"/>
<text text-anchor="middle" x="52" y="-275" font-family="Arial" font-size="10.00">src</text>
</a>
</g>
</g>
<g id="clust2" class="cluster">
<title>clusterdir_63845ec17d71e3b16da0b4e7f327342a</title>
<g id="a_clust2"><a xlink:href="dir_63845ec17d71e3b16da0b4e7f327342a.html" target="_top">
<polygon fill="#eeeeff" stroke="black" points="16,-136 16,-260 88,-260 88,-136 16,-136"/>
</a>
</g>
</g>
<!-- dir_63845ec17d71e3b16da0b4e7f327342a -->
<g id="node1" class="node">
<title>dir_63845ec17d71e3b16da0b4e7f327342a</title>
<text text-anchor="middle" x="53" y="-231.5" font-family="Arial" font-size="10.00">material</text>
</g>
<!-- dir_3ab02e73cc2505bc72f6b9c2b8bd701d -->
<g id="node2" class="node">
<title>dir_3ab02e73cc2505bc72f6b9c2b8bd701d</title>
<g id="a_node2"><a xlink:href="dir_3ab02e73cc2505bc72f6b9c2b8bd701d.html" target="_top" xlink:title="mparticle">
<polygon fill="white" stroke="black" points="80,-180 24,-180 24,-144 80,-144 80,-180"/>
<text text-anchor="middle" x="52" y="-159.5" font-family="Arial" font-size="10.00">mparticle</text>
</a>
</g>
</g>
<!-- dir_63845ec17d71e3b16da0b4e7f327342a&#45;&gt;dir_3ab02e73cc2505bc72f6b9c2b8bd701d -->
<g id="edge19" class="edge">
<title>dir_63845ec17d71e3b16da0b4e7f327342a&#45;&gt;dir_3ab02e73cc2505bc72f6b9c2b8bd701d</title>
<path fill="none" stroke="black" d="M52.75,-215.7C52.64,-207.98 52.51,-198.71 52.39,-190.11"/>
<polygon fill="black" stroke="black" points="55.89,-190.05 52.24,-180.1 48.89,-190.15 55.89,-190.05"/>
<g id="a_edge19&#45;headlabel"><a xlink:href="dir_000007_000077.html" target="_top" xlink:title="1">
<text text-anchor="middle" x="58.78" y="-191.11" font-family="Arial" font-size="10.00">1</text>
</a>
</g>
</g>
<!-- dir_405fd32de3649961a5f009c7a3fe84df -->
<g id="node3" class="node">
<title>dir_405fd32de3649961a5f009c7a3fe84df</title>
<g id="a_node3"><a xlink:href="dir_405fd32de3649961a5f009c7a3fe84df.html" target="_top" xlink:title="geometry">
<polygon fill="none" stroke="black" points="260.5,-108 203.5,-108 203.5,-72 260.5,-72 260.5,-108"/>
<text text-anchor="middle" x="232" y="-87.5" font-family="Arial" font-size="10.00">geometry</text>
</a>
</g>
</g>
<!-- dir_63845ec17d71e3b16da0b4e7f327342a&#45;&gt;dir_405fd32de3649961a5f009c7a3fe84df -->
<g id="edge16" class="edge">
<title>dir_63845ec17d71e3b16da0b4e7f327342a&#45;&gt;dir_405fd32de3649961a5f009c7a3fe84df</title>
<path fill="none" stroke="black" d="M68.57,-215.98C89.23,-193.98 127.5,-155.28 165,-128 174.13,-121.36 184.58,-115.05 194.47,-109.58"/>
<polygon fill="black" stroke="black" points="196.19,-112.63 203.35,-104.81 192.88,-106.47 196.19,-112.63"/>
<g id="a_edge16&#45;headlabel"><a xlink:href="dir_000007_000004.html" target="_top" xlink:title="1">
<text text-anchor="middle" x="194.37" y="-114.33" font-family="Arial" font-size="10.00">1</text>
</a>
</g>
</g>
<!-- dir_b7878ad5ecbf2506f4125b9d34c97e45 -->
<g id="node4" class="node">
<title>dir_b7878ad5ecbf2506f4125b9d34c97e45</title>
<g id="a_node4"><a xlink:href="dir_b7878ad5ecbf2506f4125b9d34c97e45.html" target="_top" xlink:title="util">
<polygon fill="none" stroke="black" points="174,-36 120,-36 120,0 174,0 174,-36"/>
<text text-anchor="middle" x="147" y="-15.5" font-family="Arial" font-size="10.00">util</text>
</a>
</g>
</g>
<!-- dir_63845ec17d71e3b16da0b4e7f327342a&#45;&gt;dir_b7878ad5ecbf2506f4125b9d34c97e45 -->
<g id="edge17" class="edge">
<title>dir_63845ec17d71e3b16da0b4e7f327342a&#45;&gt;dir_b7878ad5ecbf2506f4125b9d34c97e45</title>
<path fill="none" stroke="black" d="M36.54,-215.92C28.35,-206.22 19.3,-193.37 15,-180 7.93,-158 7.09,-149.72 15,-128 31.08,-83.84 77.66,-52.64 110.92,-35.25"/>
<polygon fill="black" stroke="black" points="112.57,-38.34 119.92,-30.71 109.41,-32.09 112.57,-38.34"/>
<g id="a_edge17&#45;headlabel"><a xlink:href="dir_000007_000012.html" target="_top" xlink:title="6">
<text text-anchor="middle" x="110.64" y="-39.99" font-family="Arial" font-size="10.00">6</text>
</a>
</g>
</g>
<!-- dir_5dd65160827af56e6353642206b80129 -->
<g id="node5" class="node">
<title>dir_5dd65160827af56e6353642206b80129</title>
<g id="a_node5"><a xlink:href="dir_5dd65160827af56e6353642206b80129.html" target="_top" xlink:title="model">
<polygon fill="none" stroke="red" points="228,-252 174,-252 174,-216 228,-216 228,-252"/>
<text text-anchor="middle" x="201" y="-231.5" font-family="Arial" font-size="10.00">model</text>
</a>
</g>
</g>
<!-- dir_63845ec17d71e3b16da0b4e7f327342a&#45;&gt;dir_5dd65160827af56e6353642206b80129 -->
<g id="edge18" class="edge">
<title>dir_63845ec17d71e3b16da0b4e7f327342a&#45;&gt;dir_5dd65160827af56e6353642206b80129</title>
<path fill="none" stroke="black" d="M80.17,-234C107.92,-234 135.66,-234 163.4,-234"/>
<polygon fill="black" stroke="black" points="163.62,-237.5 173.62,-234 163.62,-230.5 163.62,-237.5"/>
<g id="a_edge18&#45;headlabel"><a xlink:href="dir_000007_000008.html" target="_top" xlink:title="1">
<text text-anchor="middle" x="160.03" y="-237.84" font-family="Arial" font-size="10.00">1</text>
</a>
</g>
</g>
<!-- dir_ef4b772e52a9cad7a4172eb446d02024 -->
<g id="node7" class="node">
<title>dir_ef4b772e52a9cad7a4172eb446d02024</title>
<g id="a_node7"><a xlink:href="dir_ef4b772e52a9cad7a4172eb446d02024.html" target="_top" xlink:title="particle">
<polygon fill="none" stroke="black" points="228,-180 174,-180 174,-144 228,-144 228,-180"/>
<text text-anchor="middle" x="201" y="-159.5" font-family="Arial" font-size="10.00">particle</text>
</a>
</g>
</g>
<!-- dir_63845ec17d71e3b16da0b4e7f327342a&#45;&gt;dir_ef4b772e52a9cad7a4172eb446d02024 -->
<g id="edge20" class="edge">
<title>dir_63845ec17d71e3b16da0b4e7f327342a&#45;&gt;dir_ef4b772e52a9cad7a4172eb446d02024</title>
<path fill="none" stroke="black" d="M80.13,-217.46C103.9,-205.55 138.44,-189.24 164.59,-177.57"/>
<polygon fill="black" stroke="black" points="166.07,-180.74 173.81,-173.5 163.24,-174.34 166.07,-180.74"/>
<g id="a_edge20&#45;headlabel"><a xlink:href="dir_000007_000010.html" target="_top" xlink:title="1">
<text text-anchor="middle" x="163.93" y="-182.29" font-family="Arial" font-size="10.00">1</text>
</a>
</g>
</g>
<!-- dir_3ab02e73cc2505bc72f6b9c2b8bd701d&#45;&gt;dir_b7878ad5ecbf2506f4125b9d34c97e45 -->
<g id="edge8" class="edge">
<title>dir_3ab02e73cc2505bc72f6b9c2b8bd701d&#45;&gt;dir_b7878ad5ecbf2506f4125b9d34c97e45</title>
<path fill="none" stroke="black" d="M55.39,-143.69C59.7,-124.78 68.52,-94.23 84,-72 91.73,-60.89 102.37,-50.75 112.69,-42.38"/>
<polygon fill="black" stroke="black" points="115.09,-44.95 120.85,-36.06 110.8,-39.42 115.09,-44.95"/>
<g id="a_edge8&#45;headlabel"><a xlink:href="dir_000077_000012.html" target="_top" xlink:title="3">
<text text-anchor="middle" x="113.98" y="-46.9" font-family="Arial" font-size="10.00">3</text>
</a>
</g>
</g>
<!-- dir_771b643e9eaf2beca0e10d87bde602a1 -->
<g id="node6" class="node">
<title>dir_771b643e9eaf2beca0e10d87bde602a1</title>
<g id="a_node6"><a xlink:href="dir_771b643e9eaf2beca0e10d87bde602a1.html" target="_top" xlink:title="inp">
<polygon fill="none" stroke="red" points="147,-108 93,-108 93,-72 147,-72 147,-108"/>
<text text-anchor="middle" x="120" y="-87.5" font-family="Arial" font-size="10.00">inp</text>
</a>
</g>
</g>
<!-- dir_3ab02e73cc2505bc72f6b9c2b8bd701d&#45;&gt;dir_771b643e9eaf2beca0e10d87bde602a1 -->
<g id="edge9" class="edge">
<title>dir_3ab02e73cc2505bc72f6b9c2b8bd701d&#45;&gt;dir_771b643e9eaf2beca0e10d87bde602a1</title>
<path fill="none" stroke="black" d="M68.81,-143.7C77.13,-135.14 87.31,-124.66 96.39,-115.3"/>
<polygon fill="black" stroke="black" points="98.93,-117.72 103.38,-108.1 93.91,-112.84 98.93,-117.72"/>
<g id="a_edge9&#45;headlabel"><a xlink:href="dir_000077_000005.html" target="_top" xlink:title="1">
<text text-anchor="middle" x="98.46" y="-119.77" font-family="Arial" font-size="10.00">1</text>
</a>
</g>
</g>
<!-- dir_405fd32de3649961a5f009c7a3fe84df&#45;&gt;dir_b7878ad5ecbf2506f4125b9d34c97e45 -->
<g id="edge1" class="edge">
<title>dir_405fd32de3649961a5f009c7a3fe84df&#45;&gt;dir_b7878ad5ecbf2506f4125b9d34c97e45</title>
<path fill="none" stroke="black" d="M210.99,-71.7C200.28,-62.88 187.11,-52.03 175.5,-42.47"/>
<polygon fill="black" stroke="black" points="177.71,-39.76 167.77,-36.1 173.26,-45.16 177.71,-39.76"/>
<g id="a_edge1&#45;headlabel"><a xlink:href="dir_000004_000012.html" target="_top" xlink:title="4">
<text text-anchor="middle" x="182.29" y="-37.35" font-family="Arial" font-size="10.00">4</text>
</a>
</g>
</g>
<!-- dir_5dd65160827af56e6353642206b80129&#45;&gt;dir_3ab02e73cc2505bc72f6b9c2b8bd701d -->
<g id="edge5" class="edge">
<title>dir_5dd65160827af56e6353642206b80129&#45;&gt;dir_3ab02e73cc2505bc72f6b9c2b8bd701d</title>
<path fill="none" stroke="black" d="M173.67,-220.16C150.03,-209.05 115.61,-192.89 89.41,-180.58"/>
<polygon fill="black" stroke="black" points="90.71,-177.32 80.17,-176.23 87.73,-183.65 90.71,-177.32"/>
<g id="a_edge5&#45;headlabel"><a xlink:href="dir_000008_000077.html" target="_top" xlink:title="1">
<text text-anchor="middle" x="95.17" y="-173.78" font-family="Arial" font-size="10.00">1</text>
</a>
</g>
</g>
<!-- dir_5dd65160827af56e6353642206b80129&#45;&gt;dir_405fd32de3649961a5f009c7a3fe84df -->
<g id="edge2" class="edge">
<title>dir_5dd65160827af56e6353642206b80129&#45;&gt;dir_405fd32de3649961a5f009c7a3fe84df</title>
<path fill="none" stroke="black" d="M216.61,-215.77C224.37,-206.03 232.95,-193.18 237,-180 243.17,-159.94 241.4,-136.15 238.37,-118.22"/>
<polygon fill="black" stroke="black" points="241.76,-117.32 236.44,-108.16 234.88,-118.64 241.76,-117.32"/>
<g id="a_edge2&#45;headlabel"><a xlink:href="dir_000008_000004.html" target="_top" xlink:title="1">
<text text-anchor="middle" x="245.23" y="-117.81" font-family="Arial" font-size="10.00">1</text>
</a>
</g>
</g>
<!-- dir_5dd65160827af56e6353642206b80129&#45;&gt;dir_b7878ad5ecbf2506f4125b9d34c97e45 -->
<g id="edge3" class="edge">
<title>dir_5dd65160827af56e6353642206b80129&#45;&gt;dir_b7878ad5ecbf2506f4125b9d34c97e45</title>
<path fill="none" stroke="black" d="M222.59,-215.96C233.24,-206.45 245.41,-193.77 253,-180 276.46,-137.45 296.71,-112.59 270,-72 251.1,-43.28 213.01,-30.06 184.19,-24.01"/>
<polygon fill="black" stroke="black" points="184.53,-20.51 174.05,-22.09 183.23,-27.39 184.53,-20.51"/>
<g id="a_edge3&#45;headlabel"><a xlink:href="dir_000008_000012.html" target="_top" xlink:title="10">
<text text-anchor="middle" x="188.59" y="-15.89" font-family="Arial" font-size="10.00">10</text>
</a>
</g>
</g>
<!-- dir_5dd65160827af56e6353642206b80129&#45;&gt;dir_771b643e9eaf2beca0e10d87bde602a1 -->
<g id="edge4" class="edge">
<title>dir_5dd65160827af56e6353642206b80129&#45;&gt;dir_771b643e9eaf2beca0e10d87bde602a1</title>
<path fill="none" stroke="black" d="M188.42,-215.7C181.23,-205.52 172.23,-192.27 165,-180 152.91,-159.48 140.83,-135.32 132.23,-117.36"/>
<polygon fill="black" stroke="black" points="135.27,-115.62 127.83,-108.08 128.95,-118.61 135.27,-115.62"/>
<g id="a_edge4&#45;headlabel"><a xlink:href="dir_000008_000005.html" target="_top" xlink:title="6">
<text text-anchor="middle" x="139.38" y="-115.15" font-family="Arial" font-size="10.00">6</text>
</a>
</g>
</g>
<!-- dir_5dd65160827af56e6353642206b80129&#45;&gt;dir_ef4b772e52a9cad7a4172eb446d02024 -->
<g id="edge6" class="edge">
<title>dir_5dd65160827af56e6353642206b80129&#45;&gt;dir_ef4b772e52a9cad7a4172eb446d02024</title>
<path fill="none" stroke="black" d="M195.08,-215.7C194.29,-207.98 194.06,-198.71 194.4,-190.11"/>
<polygon fill="black" stroke="black" points="197.9,-190.32 195.1,-180.1 190.92,-189.84 197.9,-190.32"/>
<g id="a_edge6&#45;headlabel"><a xlink:href="dir_000008_000010.html" target="_top" xlink:title="6">
<text text-anchor="middle" x="200.48" y="-191.61" font-family="Arial" font-size="10.00">6</text>
</a>
</g>
</g>
<!-- dir_771b643e9eaf2beca0e10d87bde602a1&#45;&gt;dir_b7878ad5ecbf2506f4125b9d34c97e45 -->
<g id="edge7" class="edge">
<title>dir_771b643e9eaf2beca0e10d87bde602a1&#45;&gt;dir_b7878ad5ecbf2506f4125b9d34c97e45</title>
<path fill="none" stroke="black" d="M126.67,-71.7C129.71,-63.81 133.38,-54.3 136.76,-45.55"/>
<polygon fill="black" stroke="black" points="140.07,-46.69 140.4,-36.1 133.54,-44.17 140.07,-46.69"/>
<g id="a_edge7&#45;headlabel"><a xlink:href="dir_000005_000012.html" target="_top" xlink:title="10">
<text text-anchor="middle" x="141.42" y="-48.57" font-family="Arial" font-size="10.00">10</text>
</a>
</g>
</g>
<!-- dir_ef4b772e52a9cad7a4172eb446d02024&#45;&gt;dir_63845ec17d71e3b16da0b4e7f327342a -->
<g id="edge15" class="edge">
<title>dir_ef4b772e52a9cad7a4172eb446d02024&#45;&gt;dir_63845ec17d71e3b16da0b4e7f327342a</title>
<path fill="none" stroke="black" d="M173.98,-178.48C150.19,-190.4 115.56,-206.76 89.37,-218.45"/>
<polygon fill="black" stroke="black" points="87.87,-215.28 80.14,-222.52 90.7,-221.68 87.87,-215.28"/>
<g id="a_edge15&#45;headlabel"><a xlink:href="dir_000010_000007.html" target="_top" xlink:title="4">
<text text-anchor="middle" x="90.02" y="-208.73" font-family="Arial" font-size="10.00">4</text>
</a>
</g>
</g>
<!-- dir_ef4b772e52a9cad7a4172eb446d02024&#45;&gt;dir_3ab02e73cc2505bc72f6b9c2b8bd701d -->
<g id="edge14" class="edge">
<title>dir_ef4b772e52a9cad7a4172eb446d02024&#45;&gt;dir_3ab02e73cc2505bc72f6b9c2b8bd701d</title>
<path fill="none" stroke="black" d="M173.64,-162C145.91,-162 118.18,-162 90.45,-162"/>
<polygon fill="black" stroke="black" points="90.23,-158.5 80.23,-162 90.23,-165.5 90.23,-158.5"/>
<g id="a_edge14&#45;headlabel"><a xlink:href="dir_000010_000077.html" target="_top" xlink:title="2">
<text text-anchor="middle" x="93.82" y="-153.16" font-family="Arial" font-size="10.00">2</text>
</a>
</g>
</g>
<!-- dir_ef4b772e52a9cad7a4172eb446d02024&#45;&gt;dir_405fd32de3649961a5f009c7a3fe84df -->
<g id="edge10" class="edge">
<title>dir_ef4b772e52a9cad7a4172eb446d02024&#45;&gt;dir_405fd32de3649961a5f009c7a3fe84df</title>
<path fill="none" stroke="black" d="M208.66,-143.7C212.19,-135.73 216.46,-126.1 220.37,-117.26"/>
<polygon fill="black" stroke="black" points="223.58,-118.67 224.43,-108.1 217.18,-115.83 223.58,-118.67"/>
<g id="a_edge10&#45;headlabel"><a xlink:href="dir_000010_000004.html" target="_top" xlink:title="2">
<text text-anchor="middle" x="224.72" y="-120.6" font-family="Arial" font-size="10.00">2</text>
</a>
</g>
</g>
<!-- dir_ef4b772e52a9cad7a4172eb446d02024&#45;&gt;dir_b7878ad5ecbf2506f4125b9d34c97e45 -->
<g id="edge11" class="edge">
<title>dir_ef4b772e52a9cad7a4172eb446d02024&#45;&gt;dir_b7878ad5ecbf2506f4125b9d34c97e45</title>
<path fill="none" stroke="black" d="M194.49,-143.87C185.2,-119.46 168.08,-74.43 157.13,-45.64"/>
<polygon fill="black" stroke="black" points="160.36,-44.29 153.54,-36.19 153.82,-46.78 160.36,-44.29"/>
<g id="a_edge11&#45;headlabel"><a xlink:href="dir_000010_000012.html" target="_top" xlink:title="14">
<text text-anchor="middle" x="164.29" y="-44.14" font-family="Arial" font-size="10.00">14</text>
</a>
</g>
</g>
<!-- dir_ef4b772e52a9cad7a4172eb446d02024&#45;&gt;dir_5dd65160827af56e6353642206b80129 -->
<g id="edge12" class="edge">
<title>dir_ef4b772e52a9cad7a4172eb446d02024&#45;&gt;dir_5dd65160827af56e6353642206b80129</title>
<path fill="none" stroke="black" d="M206.9,-180.1C207.7,-187.79 207.94,-197.05 207.6,-205.67"/>
<polygon fill="black" stroke="black" points="204.11,-205.48 206.92,-215.7 211.09,-205.96 204.11,-205.48"/>
<g id="a_edge12&#45;headlabel"><a xlink:href="dir_000010_000008.html" target="_top" xlink:title="2">
<text text-anchor="middle" x="201.52" y="-199.2" font-family="Arial" font-size="10.00">2</text>
</a>
</g>
</g>
<!-- dir_ef4b772e52a9cad7a4172eb446d02024&#45;&gt;dir_771b643e9eaf2beca0e10d87bde602a1 -->
<g id="edge13" class="edge">
<title>dir_ef4b772e52a9cad7a4172eb446d02024&#45;&gt;dir_771b643e9eaf2beca0e10d87bde602a1</title>
<path fill="none" stroke="black" d="M180.98,-143.7C170.87,-134.97 158.46,-124.24 147.48,-114.75"/>
<polygon fill="black" stroke="black" points="149.65,-111.99 139.79,-108.1 145.07,-117.29 149.65,-111.99"/>
<g id="a_edge13&#45;headlabel"><a xlink:href="dir_000010_000005.html" target="_top" xlink:title="5">
<text text-anchor="middle" x="154.22" y="-109.7" font-family="Arial" font-size="10.00">5</text>
</a>
</g>
</g>
</g>
</svg>
