<?xml version="1.0" encoding="UTF-8" standalone="no"?>
<!DOCTYPE svg PUBLIC "-//W3C//DTD SVG 1.1//EN"
 "http://www.w3.org/Graphics/SVG/1.1/DTD/svg11.dtd">
<!-- Generated by graphviz version 2.43.0 (0)
 -->
<!-- Title: /home/user/project/src Pages: 1 -->
<svg width="334pt" height="652pt"
 viewBox="0.00 0.00 334.00 652.00" xmlns="http://www.w3.org/2000/svg" xmlns:xlink="http://www.w3.org/1999/xlink">
<g id="graph0" class="graph" transform="scale(1 1) rotate(0) translate(4 648)">
<title>/home/user/project/src</title>
<g id="clust1" class="cluster">
<title>clusterdir_68267d1309a1af8e8297ef4c3efbcdba</title>
<g id="a_clust1"><a xlink:href="dir_68267d1309a1af8e8297ef4c3efbcdba.html" target="_top">
<polygon fill="#eeeeff" stroke="black" points="8,-8 8,-636 318,-636 318,-8 8,-8"/>
</a>
</g>
</g>
<!-- dir_68267d1309a1af8e8297ef4c3efbcdba -->
<g id="node1" class="node">
<title>dir_68267d1309a1af8e8297ef4c3efbcdba</title>
<text text-anchor="middle" x="258" y="-607.5" font-family="Arial" font-size="10.00">src</text>
</g>
<!-- dir_506b779e870ccbd30d3b1413432200e1 -->
<g id="node2" class="node">
<title>dir_506b779e870ccbd30d3b1413432200e1</title>
<g id="a_node2"><a xlink:href="dir_506b779e870ccbd30d3b1413432200e1.html" target="_top" xlink:title="fe">
<polygon fill="white" stroke="black" points="169,-628 115,-628 115,-592 169,-592 169,-628"/>
<text text-anchor="middle" x="142" y="-607.5" font-family="Arial" font-size="10.00">fe</text>
</a>
</g>
</g>
<!-- dir_771b643e9eaf2beca0e10d87bde602a1 -->
<g id="node4" class="node">
<title>dir_771b643e9eaf2beca0e10d87bde602a1</title>
<g id="a_node4"><a xlink:href="dir_771b643e9eaf2beca0e10d87bde602a1.html" target="_top" xlink:title="inp">
<polygon fill="white" stroke="red" points="174,-196 120,-196 120,-160 174,-160 174,-196"/>
<text text-anchor="middle" x="147" y="-175.5" font-family="Arial" font-size="10.00">inp</text>
</a>
</g>
</g>
<!-- dir_506b779e870ccbd30d3b1413432200e1&#45;&gt;dir_771b643e9eaf2beca0e10d87bde602a1 -->
<g id="edge30" class="edge">
<title>dir_506b779e870ccbd30d3b1413432200e1&#45;&gt;dir_771b643e9eaf2beca0e10d87bde602a1</title>
<path fill="none" stroke="black" d="M130.14,-591.84C105.26,-553.78 51.16,-459.07 67,-376 79.25,-311.76 112.86,-242.08 132.4,-205.26"/>
<polygon fill="black" stroke="black" points="135.62,-206.67 137.27,-196.21 129.45,-203.35 135.62,-206.67"/>
<g id="a_edge30&#45;headlabel"><a xlink:href="dir_000003_000005.html" target="_top" xlink:title="2">
<text text-anchor="middle" x="136.41" y="-208.68" font-family="Arial" font-size="10.00">2</text>
</a>
</g>
</g>
<!-- dir_8ea8b48e89f468eef8e3dbfec4ad6c76 -->
<g id="node10" class="node">
<title>dir_8ea8b48e89f468eef8e3dbfec4ad6c76</title>
<g id="a_node10"><a xlink:href="dir_8ea8b48e89f468eef8e3dbfec4ad6c76.html" target="_top" xlink:title="rw">
<polygon fill="white" stroke="black" points="215,-556 161,-556 161,-520 215,-520 215,-556"/>
<text text-anchor="middle" x="188" y="-535.5" font-family="Arial" font-size="10.00">rw</text>
</a>
</g>
</g>
<!-- dir_506b779e870ccbd30d3b1413432200e1&#45;&gt;dir_8ea8b48e89f468eef8e3dbfec4ad6c76 -->
<g id="edge28" class="edge">
<title>dir_506b779e870ccbd30d3b1413432200e1&#45;&gt;dir_8ea8b48e89f468eef8e3dbfec4ad6c76</title>
<path fill="none" stroke="black" d="M147.46,-591.7C152.01,-583.47 158.37,-573.48 164.77,-564.42"/>
<polygon fill="black" stroke="black" points="167.78,-566.24 170.86,-556.1 162.13,-562.1 167.78,-566.24"/>
<g id="a_edge28&#45;headlabel"><a xlink:href="dir_000003_000011.html" target="_top" xlink:title="1">
<text text-anchor="middle" x="167.95" y="-568.32" font-family="Arial" font-size="10.00">1</text>
</a>
</g>
</g>
<!-- dir_b7878ad5ecbf2506f4125b9d34c97e45 -->
<g id="node11" class="node">
<title>dir_b7878ad5ecbf2506f4125b9d34c97e45</title>
<g id="a_node11"><a xlink:href="dir_b7878ad5ecbf2506f4125b9d34c97e45.html" target="_top" xlink:title="util">
<polygon fill="white" stroke="black" points="174,-52 120,-52 120,-16 174,-16 174,-52"/>
<text text-anchor="middle" x="147" y="-31.5" font-family="Arial" font-size="10.00">util</text>
</a>
</g>
</g>
<!-- dir_506b779e870ccbd30d3b1413432200e1&#45;&gt;dir_b7878ad5ecbf2506f4125b9d34c97e45 -->
<g id="edge29" class="edge">
<title>dir_506b779e870ccbd30d3b1413432200e1&#45;&gt;dir_b7878ad5ecbf2506f4125b9d34c97e45</title>
<path fill="none" stroke="black" d="M114.88,-594.14C78.11,-571.79 17,-525.79 17,-467 17,-467 17,-467 17,-177 17,-135.11 20.79,-119.84 48,-88 64.4,-68.81 89.54,-55.47 110.38,-46.98"/>
<polygon fill="black" stroke="black" points="111.84,-50.17 119.91,-43.3 109.32,-43.64 111.84,-50.17"/>
<g id="a_edge29&#45;headlabel"><a xlink:href="dir_000003_000012.html" target="_top" xlink:title="25">
<text text-anchor="middle" x="109.51" y="-51.61" font-family="Arial" font-size="10.00">25</text>
</a>
</g>
</g>
<!-- dir_405fd32de3649961a5f009c7a3fe84df -->
<g id="node3" class="node">
<title>dir_405fd32de3649961a5f009c7a3fe84df</title>
<g id="a_node3"><a xlink:href="dir_405fd32de3649961a5f009c7a3fe84df.html" target="_top" xlink:title="geometry">
<polygon fill="white" stroke="black" points="269.5,-196 212.5,-196 212.5,-160 269.5,-160 269.5,-196"/>
<text text-anchor="middle" x="241" y="-175.5" font-family="Arial" font-size="10.00">geometry</text>
</a>
</g>
</g>
<!-- dir_a297b050a42ecfc3c4f05de8e47befea -->
<g id="node8" class="node">
<title>dir_a297b050a42ecfc3c4f05de8e47befea</title>
<g id="a_node8"><a xlink:href="dir_a297b050a42ecfc3c4f05de8e47befea.html" target="_top" xlink:title="nsearch">
<polygon fill="white" stroke="black" points="286,-124 232,-124 232,-88 286,-88 286,-124"/>
<text text-anchor="middle" x="259" y="-103.5" font-family="Arial" font-size="10.00">nsearch</text>
</a>
</g>
</g>
<!-- dir_405fd32de3649961a5f009c7a3fe84df&#45;&gt;dir_a297b050a42ecfc3c4f05de8e47befea -->
<g id="edge6" class="edge">
<title>dir_405fd32de3649961a5f009c7a3fe84df&#45;&gt;dir_a297b050a42ecfc3c4f05de8e47befea</title>
<path fill="none" stroke="black" d="M245.45,-159.7C247.45,-151.9 249.87,-142.51 252.1,-133.83"/>
<polygon fill="black" stroke="black" points="255.5,-134.66 254.6,-124.1 248.72,-132.92 255.5,-134.66"/>
<g id="a_edge6&#45;headlabel"><a xlink:href="dir_000004_000009.html" target="_top" xlink:title="1">
<text text-anchor="middle" x="257.36" y="-136.35" font-family="Arial" font-size="10.00">1</text>
</a>
</g>
</g>
<!-- dir_405fd32de3649961a5f009c7a3fe84df&#45;&gt;dir_b7878ad5ecbf2506f4125b9d34c97e45 -->
<g id="edge7" class="edge">
<title>dir_405fd32de3649961a5f009c7a3fe84df&#45;&gt;dir_b7878ad5ecbf2506f4125b9d34c97e45</title>
<path fill="none" stroke="black" d="M234.56,-159.73C227.2,-141.13 214.08,-111.1 198,-88 191,-77.95 182.09,-67.99 173.68,-59.47"/>
<polygon fill="black" stroke="black" points="176.06,-56.9 166.48,-52.38 171.15,-61.89 176.06,-56.9"/>
<g id="a_edge7&#45;headlabel"><a xlink:href="dir_000004_000012.html" target="_top" xlink:title="4">
<text text-anchor="middle" x="180.61" y="-54.9" font-family="Arial" font-size="10.00">4</text>
</a>
</g>
</g>
<!-- dir_771b643e9eaf2beca0e10d87bde602a1&#45;&gt;dir_b7878ad5ecbf2506f4125b9d34c97e45 -->
<g id="edge21" class="edge">
<title>dir_771b643e9eaf2beca0e10d87bde602a1&#45;&gt;dir_b7878ad5ecbf2506f4125b9d34c97e45</title>
<path fill="none" stroke="black" d="M147,-159.87C147,-135.67 147,-91.21 147,-62.39"/>
<polygon fill="black" stroke="black" points="150.5,-62.19 147,-52.19 143.5,-62.19 150.5,-62.19"/>
<g id="a_edge21&#45;headlabel"><a xlink:href="dir_000005_000012.html" target="_top" xlink:title="10">
<text text-anchor="middle" x="153.34" y="-63.28" font-family="Arial" font-size="10.00">10</text>
</a>
</g>
</g>
<!-- dir_657489eb058b5740d530eb7142260224 -->
<g id="node5" class="node">
<title>dir_657489eb058b5740d530eb7142260224</title>
<g id="a_node5"><a xlink:href="dir_657489eb058b5740d530eb7142260224.html" target="_top" xlink:title="loading">
<polygon fill="white" stroke="black" points="130,-412 76,-412 76,-376 130,-376 130,-412"/>
<text text-anchor="middle" x="103" y="-391.5" font-family="Arial" font-size="10.00">loading</text>
</a>
</g>
</g>
<!-- dir_657489eb058b5740d530eb7142260224&#45;&gt;dir_506b779e870ccbd30d3b1413432200e1 -->
<g id="edge11" class="edge">
<title>dir_657489eb058b5740d530eb7142260224&#45;&gt;dir_506b779e870ccbd30d3b1413432200e1</title>
<path fill="none" stroke="black" d="M106.14,-412.23C112.91,-449.4 128.94,-537.35 137.08,-582"/>
<polygon fill="black" stroke="black" points="133.64,-582.64 138.87,-591.85 140.52,-581.38 133.64,-582.64"/>
<g id="a_edge11&#45;headlabel"><a xlink:href="dir_000006_000003.html" target="_top" xlink:title="1">
<text text-anchor="middle" x="130.2" y="-577.11" font-family="Arial" font-size="10.00">1</text>
</a>
</g>
</g>
<!-- dir_657489eb058b5740d530eb7142260224&#45;&gt;dir_771b643e9eaf2beca0e10d87bde602a1 -->
<g id="edge9" class="edge">
<title>dir_657489eb058b5740d530eb7142260224&#45;&gt;dir_771b643e9eaf2beca0e10d87bde602a1</title>
<path fill="none" stroke="black" d="M106.53,-375.85C114.15,-338.75 132.24,-250.81 141.43,-206.1"/>
<polygon fill="black" stroke="black" points="144.87,-206.73 143.46,-196.23 138.01,-205.32 144.87,-206.73"/>
<g id="a_edge9&#45;headlabel"><a xlink:href="dir_000006_000005.html" target="_top" xlink:title="3">
<text text-anchor="middle" x="146.93" y="-208.33" font-family="Arial" font-size="10.00">3</text>
</a>
</g>
</g>
<!-- dir_ef4b772e52a9cad7a4172eb446d02024 -->
<g id="node9" class="node">
<title>dir_ef4b772e52a9cad7a4172eb446d02024</title>
<g id="a_node9"><a xlink:href="dir_ef4b772e52a9cad7a4172eb446d02024.html" target="_top" xlink:title="particle">
<polygon fill="white" stroke="black" points="190,-340 136,-340 136,-304 190,-304 190,-340"/>
<text text-anchor="middle" x="163" y="-319.5" font-family="Arial" font-size="10.00">particle</text>
</a>
</g>
</g>
<!-- dir_657489eb058b5740d530eb7142260224&#45;&gt;dir_ef4b772e52a9cad7a4172eb446d02024 -->
<g id="edge10" class="edge">
<title>dir_657489eb058b5740d530eb7142260224&#45;&gt;dir_ef4b772e52a9cad7a4172eb446d02024</title>
<path fill="none" stroke="black" d="M117.83,-375.7C125.02,-367.3 133.8,-357.07 141.69,-347.86"/>
<polygon fill="black" stroke="black" points="144.49,-349.97 148.34,-340.1 139.17,-345.42 144.49,-349.97"/>
<g id="a_edge10&#45;headlabel"><a xlink:href="dir_000006_000010.html" target="_top" xlink:title="2">
<text text-anchor="middle" x="144.31" y="-352.05" font-family="Arial" font-size="10.00">2</text>
</a>
</g>
</g>
<!-- dir_657489eb058b5740d530eb7142260224&#45;&gt;dir_b7878ad5ecbf2506f4125b9d34c97e45 -->
<g id="edge8" class="edge">
<title>dir_657489eb058b5740d530eb7142260224&#45;&gt;dir_b7878ad5ecbf2506f4125b9d34c97e45</title>
<path fill="none" stroke="black" d="M97.74,-375.7C90.14,-349.14 77,-296.61 77,-251 77,-251 77,-251 77,-177 77,-132.36 105.18,-87.2 125.78,-60.16"/>
<polygon fill="black" stroke="black" points="128.73,-62.06 132.15,-52.03 123.23,-57.74 128.73,-62.06"/>
<g id="a_edge8&#45;headlabel"><a xlink:href="dir_000006_000012.html" target="_top" xlink:title="7">
<text text-anchor="middle" x="128.75" y="-64.14" font-family="Arial" font-size="10.00">7</text>
</a>
</g>
</g>
<!-- dir_63845ec17d71e3b16da0b4e7f327342a -->
<g id="node6" class="node">
<title>dir_63845ec17d71e3b16da0b4e7f327342a</title>
<g id="a_node6"><a xlink:href="dir_63845ec17d71e3b16da0b4e7f327342a.html" target="_top" xlink:title="material">
<polygon fill="white" stroke="red" points="230,-268 176,-268 176,-232 230,-232 230,-268"/>
<text text-anchor="middle" x="203" y="-247.5" font-family="Arial" font-size="10.00">material</text>
</a>
</g>
</g>
<!-- dir_63845ec17d71e3b16da0b4e7f327342a&#45;&gt;dir_405fd32de3649961a5f009c7a3fe84df -->
<g id="edge31" class="edge">
<title>dir_63845ec17d71e3b16da0b4e7f327342a&#45;&gt;dir_405fd32de3649961a5f009c7a3fe84df</title>
<path fill="none" stroke="black" d="M212.39,-231.7C216.76,-223.64 222.06,-213.89 226.9,-204.98"/>
<polygon fill="black" stroke="black" points="230.02,-206.56 231.71,-196.1 223.87,-203.22 230.02,-206.56"/>
<g id="a_edge31&#45;headlabel"><a xlink:href="dir_000007_000004.html" target="_top" xlink:title="1">
<text text-anchor="middle" x="230.8" y="-208.58" font-family="Arial" font-size="10.00">1</text>
</a>
</g>
</g>
<!-- dir_63845ec17d71e3b16da0b4e7f327342a&#45;&gt;dir_771b643e9eaf2beca0e10d87bde602a1 -->
<g id="edge34" class="edge">
<title>dir_63845ec17d71e3b16da0b4e7f327342a&#45;&gt;dir_771b643e9eaf2beca0e10d87bde602a1</title>
<path fill="none" stroke="black" d="M189.16,-231.7C182.51,-223.39 174.42,-213.28 167.11,-204.14"/>
<polygon fill="black" stroke="black" points="169.66,-201.73 160.68,-196.1 164.2,-206.1 169.66,-201.73"/>
<g id="a_edge34&#45;headlabel"><a xlink:href="dir_000007_000005.html" target="_top" xlink:title="1">
<text text-anchor="middle" x="174.13" y="-200.26" font-family="Arial" font-size="10.00">1</text>
</a>
</g>
</g>
<!-- dir_5dd65160827af56e6353642206b80129 -->
<g id="node7" class="node">
<title>dir_5dd65160827af56e6353642206b80129</title>
<g id="a_node7"><a xlink:href="dir_5dd65160827af56e6353642206b80129.html" target="_top" xlink:title="model">
<polygon fill="white" stroke="red" points="248,-484 194,-484 194,-448 248,-448 248,-484"/>
<text text-anchor="middle" x="221" y="-463.5" font-family="Arial" font-size="10.00">model</text>
</a>
</g>
</g>
<!-- dir_63845ec17d71e3b16da0b4e7f327342a&#45;&gt;dir_5dd65160827af56e6353642206b80129 -->
<g id="edge33" class="edge">
<title>dir_63845ec17d71e3b16da0b4e7f327342a&#45;&gt;dir_5dd65160827af56e6353642206b80129</title>
<path fill="none" stroke="black" d="M215.09,-268.07C218.68,-278.4 221.49,-291.88 223,-304 228.82,-350.64 230.01,-405.41 227.6,-437.54"/>
<polygon fill="black" stroke="black" points="224.12,-437.24 226.65,-447.53 231.09,-437.91 224.12,-437.24"/>
<g id="a_edge33&#45;headlabel"><a xlink:href="dir_000007_000008.html" target="_top" xlink:title="1">
<text text-anchor="middle" x="221.63" y="-430.9" font-family="Arial" font-size="10.00">1</text>
</a>
</g>
</g>
<!-- dir_63845ec17d71e3b16da0b4e7f327342a&#45;&gt;dir_ef4b772e52a9cad7a4172eb446d02024 -->
<g id="edge35" class="edge">
<title>dir_63845ec17d71e3b16da0b4e7f327342a&#45;&gt;dir_ef4b772e52a9cad7a4172eb446d02024</title>
<path fill="none" stroke="black" d="M199.12,-268.1C195.34,-276.21 189.92,-286.08 184.36,-295.08"/>
<polygon fill="black" stroke="black" points="181.28,-293.39 178.8,-303.7 187.16,-297.19 181.28,-293.39"/>
<g id="a_edge35&#45;headlabel"><a xlink:href="dir_000007_000010.html" target="_top" xlink:title="1">
<text text-anchor="middle" x="180.84" y="-286.34" font-family="Arial" font-size="10.00">1</text>
</a>
</g>
</g>
<!-- dir_63845ec17d71e3b16da0b4e7f327342a&#45;&gt;dir_b7878ad5ecbf2506f4125b9d34c97e45 -->
<g id="edge32" class="edge">
<title>dir_63845ec17d71e3b16da0b4e7f327342a&#45;&gt;dir_b7878ad5ecbf2506f4125b9d34c97e45</title>
<path fill="none" stroke="black" d="M199.47,-231.87C195.68,-213.89 189.37,-184.85 183,-160 174.28,-125.97 162.87,-87.14 155.25,-61.91"/>
<polygon fill="black" stroke="black" points="158.59,-60.85 152.34,-52.3 151.89,-62.89 158.59,-60.85"/>
<g id="a_edge32&#45;headlabel"><a xlink:href="dir_000007_000012.html" target="_top" xlink:title="6">
<text text-anchor="middle" x="162.35" y="-60.97" font-family="Arial" font-size="10.00">6</text>
</a>
</g>
</g>
<!-- dir_5dd65160827af56e6353642206b80129&#45;&gt;dir_506b779e870ccbd30d3b1413432200e1 -->
<g id="edge19" class="edge">
<title>dir_5dd65160827af56e6353642206b80129&#45;&gt;dir_506b779e870ccbd30d3b1413432200e1</title>
<path fill="none" stroke="black" d="M226.49,-484.25C231.42,-503.1 236.2,-533.6 224,-556 214.22,-573.96 195.45,-586.77 178.33,-595.28"/>
<polygon fill="black" stroke="black" points="176.65,-592.2 169.05,-599.58 179.6,-598.55 176.65,-592.2"/>
<g id="a_edge19&#45;headlabel"><a xlink:href="dir_000008_000003.html" target="_top" xlink:title="2">
<text text-anchor="middle" x="178.72" y="-585.61" font-family="Arial" font-size="10.00">2</text>
</a>
</g>
</g>
<!-- dir_5dd65160827af56e6353642206b80129&#45;&gt;dir_405fd32de3649961a5f009c7a3fe84df -->
<g id="edge14" class="edge">
<title>dir_5dd65160827af56e6353642206b80129&#45;&gt;dir_405fd32de3649961a5f009c7a3fe84df</title>
<path fill="none" stroke="black" d="M225.14,-447.81C233.96,-409.28 253.33,-313.07 248,-232 247.44,-223.53 246.39,-214.36 245.27,-206.06"/>
<polygon fill="black" stroke="black" points="248.73,-205.53 243.84,-196.13 241.8,-206.53 248.73,-205.53"/>
<g id="a_edge14&#45;headlabel"><a xlink:href="dir_000008_000004.html" target="_top" xlink:title="1">
<text text-anchor="middle" x="252.05" y="-206.18" font-family="Arial" font-size="10.00">1</text>
</a>
</g>
</g>
<!-- dir_5dd65160827af56e6353642206b80129&#45;&gt;dir_771b643e9eaf2beca0e10d87bde602a1 -->
<g id="edge17" class="edge">
<title>dir_5dd65160827af56e6353642206b80129&#45;&gt;dir_771b643e9eaf2beca0e10d87bde602a1</title>
<path fill="none" stroke="black" d="M218.95,-447.99C214.07,-407.93 201.99,-310.5 199,-304 190.05,-284.55 176.77,-287.05 167,-268 157.09,-248.68 152.06,-224.53 149.52,-206.26"/>
<polygon fill="black" stroke="black" points="152.99,-205.77 148.3,-196.27 146.04,-206.62 152.99,-205.77"/>
<g id="a_edge17&#45;headlabel"><a xlink:href="dir_000008_000005.html" target="_top" xlink:title="6">
<text text-anchor="middle" x="156.24" y="-206.49" font-family="Arial" font-size="10.00">6</text>
</a>
</g>
</g>
<!-- dir_5dd65160827af56e6353642206b80129&#45;&gt;dir_657489eb058b5740d530eb7142260224 -->
<g id="edge16" class="edge">
<title>dir_5dd65160827af56e6353642206b80129&#45;&gt;dir_657489eb058b5740d530eb7142260224</title>
<path fill="none" stroke="black" d="M193.93,-448.94C177.7,-439.32 156.87,-426.96 139.24,-416.5"/>
<polygon fill="black" stroke="black" points="140.74,-413.32 130.35,-411.23 137.17,-419.34 140.74,-413.32"/>
<g id="a_edge16&#45;headlabel"><a xlink:href="dir_000008_000006.html" target="_top" xlink:title="2">
<text text-anchor="middle" x="145.28" y="-410.21" font-family="Arial" font-size="10.00">2</text>
</a>
</g>
</g>
<!-- dir_5dd65160827af56e6353642206b80129&#45;&gt;dir_63845ec17d71e3b16da0b4e7f327342a -->
<g id="edge20" class="edge">
<title>dir_5dd65160827af56e6353642206b80129&#45;&gt;dir_63845ec17d71e3b16da0b4e7f327342a</title>
<path fill="none" stroke="black" d="M215.67,-447.53C212.22,-417.89 211.47,-355.92 205,-304 203.94,-295.48 202.23,-286.28 200.89,-277.98"/>
<polygon fill="black" stroke="black" points="204.35,-277.46 199.45,-268.07 197.42,-278.47 204.35,-277.46"/>
<g id="a_edge20&#45;headlabel"><a xlink:href="dir_000008_000007.html" target="_top" xlink:title="2">
<text text-anchor="middle" x="207.67" y="-278.12" font-family="Arial" font-size="10.00">2</text>
</a>
</g>
</g>
<!-- dir_5dd65160827af56e6353642206b80129&#45;&gt;dir_a297b050a42ecfc3c4f05de8e47befea -->
<g id="edge12" class="edge">
<title>dir_5dd65160827af56e6353642206b80129&#45;&gt;dir_a297b050a42ecfc3c4f05de8e47befea</title>
<path fill="none" stroke="black" d="M235.42,-447.89C255.38,-422.42 289,-372.2 289,-323 289,-323 289,-323 289,-249 289,-209.2 288.32,-198.7 279,-160 276.9,-151.3 273.77,-142.09 270.6,-133.83"/>
<polygon fill="black" stroke="black" points="273.76,-132.3 266.79,-124.32 267.26,-134.91 273.76,-132.3"/>
<g id="a_edge12&#45;headlabel"><a xlink:href="dir_000008_000009.html" target="_top" xlink:title="1">
<text text-anchor="middle" x="277.74" y="-132.08" font-family="Arial" font-size="10.00">1</text>
</a>
</g>
</g>
<!-- dir_5dd65160827af56e6353642206b80129&#45;&gt;dir_ef4b772e52a9cad7a4172eb446d02024 -->
<g id="edge18" class="edge">
<title>dir_5dd65160827af56e6353642206b80129&#45;&gt;dir_ef4b772e52a9cad7a4172eb446d02024</title>
<path fill="none" stroke="black" d="M209.42,-447.87C196.92,-423.56 178.36,-378.82 168.6,-350.01"/>
<polygon fill="black" stroke="black" points="171.83,-348.63 165.43,-340.19 165.17,-350.78 171.83,-348.63"/>
<g id="a_edge18&#45;headlabel"><a xlink:href="dir_000008_000010.html" target="_top" xlink:title="2">
<text text-anchor="middle" x="175.64" y="-348.68" font-family="Arial" font-size="10.00">2</text>
</a>
</g>
</g>
<!-- dir_5dd65160827af56e6353642206b80129&#45;&gt;dir_8ea8b48e89f468eef8e3dbfec4ad6c76 -->
<g id="edge13" class="edge">
<title>dir_5dd65160827af56e6353642206b80129&#45;&gt;dir_8ea8b48e89f468eef8e3dbfec4ad6c76</title>
<path fill="none" stroke="black" d="M218.83,-484.1C215.89,-492.13 211.52,-501.87 206.91,-510.8"/>
<polygon fill="black" stroke="black" points="203.77,-509.24 202.07,-519.7 209.92,-512.58 203.77,-509.24"/>
<g id="a_edge13&#45;headlabel"><a xlink:href="dir_000008_000011.html" target="_top" xlink:title="3">
<text text-anchor="middle" x="202.99" y="-502.22" font-family="Arial" font-size="10.00">3</text>
</a>
</g>
</g>
<!-- dir_5dd65160827af56e6353642206b80129&#45;&gt;dir_b7878ad5ecbf2506f4125b9d34c97e45 -->
<g id="edge15" class="edge">
<title>dir_5dd65160827af56e6353642206b80129&#45;&gt;dir_b7878ad5ecbf2506f4125b9d34c97e45</title>
<path fill="none" stroke="black" d="M241.95,-447.79C252.65,-438.15 265.23,-425.39 274,-412 297.29,-376.45 309,-365.5 309,-323 309,-323 309,-323 309,-177 309,-136.96 320.53,-118.84 295,-88 267.71,-55.04 218.34,-42.57 184.17,-37.86"/>
<polygon fill="black" stroke="black" points="184.44,-34.37 174.09,-36.63 183.59,-41.32 184.44,-34.37"/>
<g id="a_edge15&#45;headlabel"><a xlink:href="dir_000008_000012.html" target="_top" xlink:title="10">
<text text-anchor="middle" x="188.35" y="-29.48" font-family="Arial" font-size="10.00">10</text>
</a>
</g>
</g>
<!-- dir_a297b050a42ecfc3c4f05de8e47befea&#45;&gt;dir_b7878ad5ecbf2506f4125b9d34c97e45 -->
<g id="edge1" class="edge">
<title>dir_a297b050a42ecfc3c4f05de8e47befea&#45;&gt;dir_b7878ad5ecbf2506f4125b9d34c97e45</title>
<path fill="none" stroke="black" d="M231.89,-88.05C217.14,-78.84 198.71,-67.32 182.79,-57.37"/>
<polygon fill="black" stroke="black" points="184.59,-54.36 174.25,-52.03 180.88,-60.3 184.59,-54.36"/>
<g id="a_edge1&#45;headlabel"><a xlink:href="dir_000009_000012.html" target="_top" xlink:title="3">
<text text-anchor="middle" x="189.14" y="-51.36" font-family="Arial" font-size="10.00">3</text>
</a>
</g>
</g>
<!-- dir_ef4b772e52a9cad7a4172eb446d02024&#45;&gt;dir_506b779e870ccbd30d3b1413432200e1 -->
<g id="edge26" class="edge">
<title>dir_ef4b772e52a9cad7a4172eb446d02024&#45;&gt;dir_506b779e870ccbd30d3b1413432200e1</title>
<path fill="none" stroke="black" d="M161.73,-340.31C158.2,-388.31 148.28,-523.44 144,-581.7"/>
<polygon fill="black" stroke="black" points="140.49,-581.74 143.25,-591.97 147.47,-582.25 140.49,-581.74"/>
<g id="a_edge26&#45;headlabel"><a xlink:href="dir_000010_000003.html" target="_top" xlink:title="6">
<text text-anchor="middle" x="137.92" y="-575.44" font-family="Arial" font-size="10.00">6</text>
</a>
</g>
</g>
<!-- dir_ef4b772e52a9cad7a4172eb446d02024&#45;&gt;dir_405fd32de3649961a5f009c7a3fe84df -->
<g id="edge22" class="edge">
<title>dir_ef4b772e52a9cad7a4172eb446d02024&#45;&gt;dir_405fd32de3649961a5f009c7a3fe84df</title>
<path fill="none" stroke="black" d="M190.25,-309.88C207.55,-301.24 228.59,-287.42 239,-268 249.07,-249.21 248.87,-224.83 246.54,-206.34"/>
<polygon fill="black" stroke="black" points="249.97,-205.58 244.99,-196.22 243.05,-206.64 249.97,-205.58"/>
<g id="a_edge22&#45;headlabel"><a xlink:href="dir_000010_000004.html" target="_top" xlink:title="1">
<text text-anchor="middle" x="253.32" y="-206.2" font-family="Arial" font-size="10.00">1</text>
</a>
</g>
</g>
<!-- dir_ef4b772e52a9cad7a4172eb446d02024&#45;&gt;dir_771b643e9eaf2beca0e10d87bde602a1 -->
<g id="edge25" class="edge">
<title>dir_ef4b772e52a9cad7a4172eb446d02024&#45;&gt;dir_771b643e9eaf2beca0e10d87bde602a1</title>
<path fill="none" stroke="black" d="M158.78,-303.92C156.4,-293.59 153.59,-280.11 152,-268 149.3,-247.41 148.06,-223.96 147.49,-206.3"/>
<polygon fill="black" stroke="black" points="150.98,-206.03 147.21,-196.13 143.98,-206.22 150.98,-206.03"/>
<g id="a_edge25&#45;headlabel"><a xlink:href="dir_000010_000005.html" target="_top" xlink:title="2">
<text text-anchor="middle" x="153.92" y="-207.05" font-family="Arial" font-size="10.00">2</text>
</a>
</g>
</g>
<!-- dir_ef4b772e52a9cad7a4172eb446d02024&#45;&gt;dir_63845ec17d71e3b16da0b4e7f327342a -->
<g id="edge27" class="edge">
<title>dir_ef4b772e52a9cad7a4172eb446d02024&#45;&gt;dir_63845ec17d71e3b16da0b4e7f327342a</title>
<path fill="none" stroke="black" d="M166.97,-303.7C170.78,-295.56 176.22,-285.69 181.78,-276.7"/>
<polygon fill="black" stroke="black" points="184.85,-278.4 187.33,-268.1 178.97,-274.61 184.85,-278.4"/>
<g id="a_edge27&#45;headlabel"><a xlink:href="dir_000010_000007.html" target="_top" xlink:title="3">
<text text-anchor="middle" x="185.28" y="-280.46" font-family="Arial" font-size="10.00">3</text>
</a>
</g>
</g>
<!-- dir_ef4b772e52a9cad7a4172eb446d02024&#45;&gt;dir_5dd65160827af56e6353642206b80129 -->
<g id="edge24" class="edge">
<title>dir_ef4b772e52a9cad7a4172eb446d02024&#45;&gt;dir_5dd65160827af56e6353642206b80129</title>
<path fill="none" stroke="black" d="M174.61,-340.19C187.12,-364.53 205.68,-409.28 215.42,-438.06"/>
<polygon fill="black" stroke="black" points="212.19,-439.43 218.59,-447.87 218.85,-437.28 212.19,-439.43"/>
<g id="a_edge24&#45;headlabel"><a xlink:href="dir_000010_000008.html" target="_top" xlink:title="2">
<text text-anchor="middle" x="208.38" y="-434.38" font-family="Arial" font-size="10.00">2</text>
</a>
</g>
</g>
<!-- dir_ef4b772e52a9cad7a4172eb446d02024&#45;&gt;dir_b7878ad5ecbf2506f4125b9d34c97e45 -->
<g id="edge23" class="edge">
<title>dir_ef4b772e52a9cad7a4172eb446d02024&#45;&gt;dir_b7878ad5ecbf2506f4125b9d34c97e45</title>
<path fill="none" stroke="black" d="M153.31,-303.89C140.64,-280.44 119.1,-236.57 111,-196 101.54,-148.61 120.19,-93.74 134,-61.85"/>
<polygon fill="black" stroke="black" points="137.37,-62.89 138.28,-52.34 130.99,-60.02 137.37,-62.89"/>
<g id="a_edge23&#45;headlabel"><a xlink:href="dir_000010_000012.html" target="_top" xlink:title="10">
<text text-anchor="middle" x="138.49" y="-64.84" font-family="Arial" font-size="10.00">10</text>
</a>
</g>
</g>
<!-- dir_8ea8b48e89f468eef8e3dbfec4ad6c76&#45;&gt;dir_506b779e870ccbd30d3b1413432200e1 -->
<g id="edge5" class="edge">
<title>dir_8ea8b48e89f468eef8e3dbfec4ad6c76&#45;&gt;dir_506b779e870ccbd30d3b1413432200e1</title>
<path fill="none" stroke="black" d="M182.66,-556.1C178.13,-564.3 171.78,-574.28 165.38,-583.36"/>
<polygon fill="black" stroke="black" points="162.36,-581.56 159.29,-591.7 168.01,-585.69 162.36,-581.56"/>
<g id="a_edge5&#45;headlabel"><a xlink:href="dir_000011_000003.html" target="_top" xlink:title="2">
<text text-anchor="middle" x="162.19" y="-574.48" font-family="Arial" font-size="10.00">2</text>
</a>
</g>
</g>
<!-- dir_8ea8b48e89f468eef8e3dbfec4ad6c76&#45;&gt;dir_5dd65160827af56e6353642206b80129 -->
<g id="edge3" class="edge">
<title>dir_8ea8b48e89f468eef8e3dbfec4ad6c76&#45;&gt;dir_5dd65160827af56e6353642206b80129</title>
<path fill="none" stroke="black" d="M190.24,-519.7C193.21,-511.64 197.59,-501.89 202.2,-492.98"/>
<polygon fill="black" stroke="black" points="205.33,-494.56 207.04,-484.1 199.18,-491.21 205.33,-494.56"/>
<g id="a_edge3&#45;headlabel"><a xlink:href="dir_000011_000008.html" target="_top" xlink:title="2">
<text text-anchor="middle" x="206.1" y="-496.58" font-family="Arial" font-size="10.00">2</text>
</a>
</g>
</g>
<!-- dir_8ea8b48e89f468eef8e3dbfec4ad6c76&#45;&gt;dir_ef4b772e52a9cad7a4172eb446d02024 -->
<g id="edge4" class="edge">
<title>dir_8ea8b48e89f468eef8e3dbfec4ad6c76&#45;&gt;dir_ef4b772e52a9cad7a4172eb446d02024</title>
<path fill="none" stroke="black" d="M186,-519.85C181.67,-482.83 171.43,-395.18 166.2,-350.39"/>
<polygon fill="black" stroke="black" points="169.65,-349.76 165.01,-340.23 162.7,-350.57 169.65,-349.76"/>
<g id="a_edge4&#45;headlabel"><a xlink:href="dir_000011_000010.html" target="_top" xlink:title="2">
<text text-anchor="middle" x="172.89" y="-350.5" font-family="Arial" font-size="10.00">2</text>
</a>
</g>
</g>
<!-- dir_8ea8b48e89f468eef8e3dbfec4ad6c76&#45;&gt;dir_b7878ad5ecbf2506f4125b9d34c97e45 -->
<g id="edge2" class="edge">
<title>dir_8ea8b48e89f468eef8e3dbfec4ad6c76&#45;&gt;dir_b7878ad5ecbf2506f4125b9d34c97e45</title>
<path fill="none" stroke="black" d="M164.68,-519.99C136.72,-498.25 90.7,-457.89 67,-412 33.6,-347.33 37,-323.79 37,-251 37,-251 37,-251 37,-177 37,-126.76 80.56,-83.52 112.86,-58.36"/>
<polygon fill="black" stroke="black" points="115.34,-60.88 121.21,-52.06 111.12,-55.29 115.34,-60.88"/>
<g id="a_edge2&#45;headlabel"><a xlink:href="dir_000011_000012.html" target="_top" xlink:title="25">
<text text-anchor="middle" x="114.18" y="-62.81" font-family="Arial" font-size="10.00">25</text>
</a>
</g>
</g>
</g>
</svg>
