<?xml version="1.0" encoding="UTF-8" standalone="no"?>
<!DOCTYPE svg PUBLIC "-//W3C//DTD SVG 1.1//EN"
 "http://www.w3.org/Graphics/SVG/1.1/DTD/svg11.dtd">
<!-- Generated by graphviz version 2.43.0 (0)
 -->
<!-- Title: /home/user/project/src/geometry/fracture.h Pages: 1 -->
<svg width="1733pt" height="329pt"
 viewBox="0.00 0.00 1732.99 329.00" xmlns="http://www.w3.org/2000/svg" xmlns:xlink="http://www.w3.org/1999/xlink">
<g id="graph0" class="graph" transform="scale(1 1) rotate(0) translate(4 325)">
<title>/home/user/project/src/geometry/fracture.h</title>
<!-- Node1 -->
<g id="node1" class="node">
<title>Node1</title>
<g id="a_node1"><a xlink:title=" ">
<polygon fill="#bfbfbf" stroke="black" points="849,-290.5 849,-320.5 970,-320.5 970,-290.5 849,-290.5"/>
<text text-anchor="start" x="857" y="-308.5" font-family="Arial" font-size="10.00">/home/user/project</text>
<text text-anchor="middle" x="909.5" y="-297.5" font-family="Arial" font-size="10.00">/src/geometry/fracture.h</text>
</a>
</g>
</g>
<!-- Node2 -->
<g id="node2" class="node">
<title>Node2</title>
<g id="a_node2"><a xlink:href="fracture_8cpp.html" target="_top" xlink:title=" ">
<polygon fill="none" stroke="black" points="661,-223.5 661,-253.5 792,-253.5 792,-223.5 661,-223.5"/>
<text text-anchor="start" x="669" y="-241.5" font-family="Arial" font-size="10.00">/home/user/project</text>
<text text-anchor="middle" x="726.5" y="-230.5" font-family="Arial" font-size="10.00">/src/geometry/fracture.cpp</text>
</a>
</g>
</g>
<!-- Node1&#45;&gt;Node2 -->
<g id="edge1" class="edge">
<title>Node1&#45;&gt;Node2</title>
<path fill="none" stroke="midnightblue" d="M860.1,-286.96C830.63,-276.48 793.69,-263.37 766.13,-253.58"/>
<polygon fill="midnightblue" stroke="midnightblue" points="859.2,-290.35 869.79,-290.4 861.54,-283.75 859.2,-290.35"/>
</g>
<!-- Node3 -->
<g id="node3" class="node">
<title>Node3</title>
<g id="a_node3"><a xlink:href="modelData_8h.html" target="_top" xlink:title=" ">
<polygon fill="none" stroke="black" points="849,-223.5 849,-253.5 970,-253.5 970,-223.5 849,-223.5"/>
<text text-anchor="start" x="857" y="-241.5" font-family="Arial" font-size="10.00">/home/user/project</text>
<text text-anchor="middle" x="909.5" y="-230.5" font-family="Arial" font-size="10.00">/src/model/modelData.h</text>
</a>
</g>
</g>
<!-- Node1&#45;&gt;Node3 -->
<g id="edge2" class="edge">
<title>Node1&#45;&gt;Node3</title>
<path fill="none" stroke="midnightblue" d="M909.5,-280.11C909.5,-271.15 909.5,-261.32 909.5,-253.58"/>
<polygon fill="midnightblue" stroke="midnightblue" points="906,-280.4 909.5,-290.4 913,-280.4 906,-280.4"/>
</g>
<!-- Node9 -->
<g id="node9" class="node">
<title>Node9</title>
<g id="a_node9"><a xlink:href="materialUtil_8h.html" target="_top" xlink:title=" ">
<polygon fill="none" stroke="black" points="59,-156.5 59,-186.5 190,-186.5 190,-156.5 59,-156.5"/>
<text text-anchor="start" x="67" y="-174.5" font-family="Arial" font-size="10.00">/home/user/project</text>
<text text-anchor="middle" x="124.5" y="-163.5" font-family="Arial" font-size="10.00">/src/material/materialUtil.h</text>
</a>
</g>
</g>
<!-- Node1&#45;&gt;Node9 -->
<g id="edge37" class="edge">
<title>Node1&#45;&gt;Node9</title>
<path fill="none" stroke="midnightblue" d="M881.43,-284.34C868.83,-275.19 853.83,-264.17 840.5,-254 822.9,-240.57 822.16,-230.97 801.5,-223 685.56,-178.3 367.22,-198.52 243.5,-187 226.2,-185.39 207.52,-183.29 190.21,-181.18"/>
<polygon fill="midnightblue" stroke="midnightblue" points="879.56,-287.31 889.72,-290.34 883.67,-281.64 879.56,-287.31"/>
</g>
<!-- Node17 -->
<g id="node17" class="node">
<title>Node17</title>
<g id="a_node17"><a xlink:href="particle_8h.html" target="_top" xlink:title=" ">
<polygon fill="none" stroke="black" points="1235.5,-84 1235.5,-114 1345.5,-114 1345.5,-84 1235.5,-84"/>
<text text-anchor="start" x="1243.5" y="-102" font-family="Arial" font-size="10.00">/home/user/project</text>
<text text-anchor="middle" x="1290.5" y="-91" font-family="Arial" font-size="10.00">/src/particle/particle.h</text>
</a>
</g>
</g>
<!-- Node1&#45;&gt;Node17 -->
<g id="edge38" class="edge">
<title>Node1&#45;&gt;Node17</title>
<path fill="none" stroke="midnightblue" d="M944.85,-285.53C1020.71,-244.81 1197.63,-149.85 1264.38,-114.02"/>
<polygon fill="midnightblue" stroke="midnightblue" points="942.84,-282.63 935.69,-290.44 946.15,-288.8 942.84,-282.63"/>
</g>
<!-- Node22 -->
<g id="node22" class="node">
<title>Node22</title>
<g id="a_node22"><a xlink:href="refParticle_8h.html" target="_top" xlink:title=" ">
<polygon fill="none" stroke="black" points="1516,-156.5 1516,-186.5 1639,-186.5 1639,-156.5 1516,-156.5"/>
<text text-anchor="start" x="1524" y="-174.5" font-family="Arial" font-size="10.00">/home/user/project</text>
<text text-anchor="middle" x="1577.5" y="-163.5" font-family="Arial" font-size="10.00">/src/particle/refParticle.h</text>
</a>
</g>
</g>
<!-- Node1&#45;&gt;Node22 -->
<g id="edge39" class="edge">
<title>Node1&#45;&gt;Node22</title>
<path fill="none" stroke="midnightblue" d="M980.29,-292.03C1036.09,-282.08 1115.85,-267.61 1185.5,-254 1302.5,-231.14 1438.66,-202.33 1515.81,-185.8"/>
<polygon fill="midnightblue" stroke="midnightblue" points="979.38,-288.64 970.15,-293.83 980.61,-295.53 979.38,-288.64"/>
</g>
<!-- Node4 -->
<g id="node4" class="node">
<title>Node4</title>
<g id="a_node4"><a xlink:href="demModel_8h.html" target="_top" xlink:title=" ">
<polygon fill="none" stroke="black" points="252.5,-156.5 252.5,-186.5 392.5,-186.5 392.5,-156.5 252.5,-156.5"/>
<text text-anchor="start" x="260.5" y="-174.5" font-family="Arial" font-size="10.00">/home/user/project</text>
<text text-anchor="middle" x="322.5" y="-163.5" font-family="Arial" font-size="10.00">/src/model/dem/demModel.h</text>
</a>
</g>
</g>
<!-- Node3&#45;&gt;Node4 -->
<g id="edge3" class="edge">
<title>Node3&#45;&gt;Node4</title>
<path fill="none" stroke="midnightblue" d="M838.97,-223.67C837.47,-223.44 835.98,-223.22 834.5,-223 677.39,-200.12 491.62,-184.66 392.73,-177.36"/>
<polygon fill="midnightblue" stroke="midnightblue" points="838.57,-227.15 849,-225.3 839.69,-220.24 838.57,-227.15"/>
</g>
<!-- Node3&#45;&gt;Node9 -->
<g id="edge8" class="edge">
<title>Node3&#45;&gt;Node9</title>
<path fill="none" stroke="midnightblue" d="M838.42,-223.52C837.1,-223.34 835.8,-223.16 834.5,-223 573.43,-189.95 505.56,-210.93 243.5,-187 226.19,-185.42 207.52,-183.33 190.2,-181.23"/>
<polygon fill="midnightblue" stroke="midnightblue" points="838.21,-227.03 848.62,-225.04 839.25,-220.1 838.21,-227.03"/>
</g>
<!-- Node13 -->
<g id="node13" class="node">
<title>Node13</title>
<g id="a_node13"><a xlink:href="modelData_8cpp.html" target="_top" xlink:title=" ">
<polygon fill="none" stroke="black" points="1462,-6 1462,-36 1593,-36 1593,-6 1462,-6"/>
<text text-anchor="start" x="1470" y="-24" font-family="Arial" font-size="10.00">/home/user/project</text>
<text text-anchor="middle" x="1527.5" y="-13" font-family="Arial" font-size="10.00">/src/model/modelData.cpp</text>
</a>
</g>
</g>
<!-- Node3&#45;&gt;Node13 -->
<g id="edge13" class="edge">
<title>Node3&#45;&gt;Node13</title>
<path fill="none" stroke="midnightblue" d="M980.13,-235.54C1153.24,-230.35 1588.88,-214.66 1648.5,-187 1699.67,-163.26 1747.15,-123.27 1713.5,-78 1698.86,-58.31 1640.78,-42.91 1593.37,-33.29"/>
<polygon fill="midnightblue" stroke="midnightblue" points="980,-232.05 970.1,-235.84 980.2,-239.04 980,-232.05"/>
</g>
<!-- Node14 -->
<g id="node14" class="node">
<title>Node14</title>
<g id="a_node14"><a xlink:href="baseParticle_8h.html" target="_top" xlink:title=" ">
<polygon fill="none" stroke="black" points="891,-156.5 891,-186.5 1024,-186.5 1024,-156.5 891,-156.5"/>
<text text-anchor="start" x="899" y="-174.5" font-family="Arial" font-size="10.00">/home/user/project</text>
<text text-anchor="middle" x="957.5" y="-163.5" font-family="Arial" font-size="10.00">/src/particle/baseParticle.h</text>
</a>
</g>
</g>
<!-- Node3&#45;&gt;Node14 -->
<g id="edge14" class="edge">
<title>Node3&#45;&gt;Node14</title>
<path fill="none" stroke="midnightblue" d="M926,-215.16C933,-205.68 940.94,-194.92 947.11,-186.58"/>
<polygon fill="midnightblue" stroke="midnightblue" points="923.04,-213.27 919.92,-223.4 928.67,-217.43 923.04,-213.27"/>
</g>
<!-- Node18 -->
<g id="node18" class="node">
<title>Node18</title>
<g id="a_node18"><a xlink:href="vtkParticleReader_8cpp.html" target="_top" xlink:title=" ">
<polygon fill="none" stroke="black" points="776.5,-6 776.5,-36 922.5,-36 922.5,-6 776.5,-6"/>
<text text-anchor="start" x="784.5" y="-24" font-family="Arial" font-size="10.00">/home/user/project</text>
<text text-anchor="middle" x="849.5" y="-13" font-family="Arial" font-size="10.00">/src/rw/vtkParticleReader.cpp</text>
</a>
</g>
</g>
<!-- Node3&#45;&gt;Node18 -->
<g id="edge35" class="edge">
<title>Node3&#45;&gt;Node18</title>
<path fill="none" stroke="midnightblue" d="M846.25,-220.87C748.99,-194.68 572.05,-144.29 554.5,-120 543.57,-104.87 542.59,-92.38 554.5,-78 561.62,-69.4 691.22,-47.25 776.25,-33.52"/>
<polygon fill="midnightblue" stroke="midnightblue" points="845.41,-224.27 855.97,-223.48 847.22,-217.51 845.41,-224.27"/>
</g>
<!-- Node19 -->
<g id="node19" class="node">
<title>Node19</title>
<g id="a_node19"><a xlink:href="vtkParticleWriter_8cpp.html" target="_top" xlink:title=" ">
<polygon fill="none" stroke="black" points="1303.5,-6 1303.5,-36 1443.5,-36 1443.5,-6 1303.5,-6"/>
<text text-anchor="start" x="1311.5" y="-24" font-family="Arial" font-size="10.00">/home/user/project</text>
<text text-anchor="middle" x="1373.5" y="-13" font-family="Arial" font-size="10.00">/src/rw/vtkParticleWriter.cpp</text>
</a>
</g>
</g>
<!-- Node3&#45;&gt;Node19 -->
<g id="edge36" class="edge">
<title>Node3&#45;&gt;Node19</title>
<path fill="none" stroke="midnightblue" d="M980.27,-230.23C1098.73,-216.45 1329,-182.18 1377.5,-120 1396.46,-95.7 1386.61,-56.77 1379.21,-36.05"/>
<polygon fill="midnightblue" stroke="midnightblue" points="979.74,-226.77 970.21,-231.39 980.54,-233.73 979.74,-226.77"/>
</g>
<!-- Node21 -->
<g id="node21" class="node">
<title>Node21</title>
<g id="a_node21"><a xlink:href="wall_8h.html" target="_top" xlink:title=" ">
<polygon fill="none" stroke="black" points="723.5,-84 723.5,-114 821.5,-114 821.5,-84 723.5,-84"/>
<text text-anchor="start" x="731.5" y="-102" font-family="Arial" font-size="10.00">/home/user/project</text>
<text text-anchor="middle" x="772.5" y="-91" font-family="Arial" font-size="10.00">/src/particle/wall.h</text>
</a>
</g>
</g>
<!-- Node3&#45;&gt;Node21 -->
<g id="edge34" class="edge">
<title>Node3&#45;&gt;Node21</title>
<path fill="none" stroke="midnightblue" d="M887.97,-215.89C859.7,-187.52 810.86,-138.5 786.77,-114.33"/>
<polygon fill="midnightblue" stroke="midnightblue" points="885.82,-218.69 895.35,-223.3 890.78,-213.75 885.82,-218.69"/>
</g>
<!-- Node5 -->
<g id="node5" class="node">
<title>Node5</title>
<g id="a_node5"><a xlink:href="apps_2twop_2main_8cpp.html" target="_top" xlink:title=" ">
<polygon fill="none" stroke="black" points="400,-84 400,-114 507,-114 507,-84 400,-84"/>
<text text-anchor="start" x="408" y="-102" font-family="Arial" font-size="10.00">/home/user/project</text>
<text text-anchor="middle" x="453.5" y="-91" font-family="Arial" font-size="10.00">/apps/twop/main.cpp</text>
</a>
</g>
</g>
<!-- Node4&#45;&gt;Node5 -->
<g id="edge4" class="edge">
<title>Node4&#45;&gt;Node5</title>
<path fill="none" stroke="midnightblue" d="M357.7,-151.56C379.63,-139.76 407.37,-124.83 427.35,-114.07"/>
<polygon fill="midnightblue" stroke="midnightblue" points="355.84,-148.58 348.69,-156.4 359.16,-154.75 355.84,-148.58"/>
</g>
<!-- Node6 -->
<g id="node6" class="node">
<title>Node6</title>
<g id="a_node6"><a xlink:href="src_2main_8cpp.html" target="_top" xlink:title=" ">
<polygon fill="none" stroke="black" points="146.5,-84 146.5,-114 244.5,-114 244.5,-84 146.5,-84"/>
<text text-anchor="start" x="154.5" y="-102" font-family="Arial" font-size="10.00">/home/user/project</text>
<text text-anchor="middle" x="195.5" y="-91" font-family="Arial" font-size="10.00">/src/main.cpp</text>
</a>
</g>
</g>
<!-- Node4&#45;&gt;Node6 -->
<g id="edge5" class="edge">
<title>Node4&#45;&gt;Node6</title>
<path fill="none" stroke="midnightblue" d="M288.09,-151.4C266.88,-139.62 240.13,-124.78 220.85,-114.07"/>
<polygon fill="midnightblue" stroke="midnightblue" points="286.66,-154.61 297.1,-156.4 290.06,-148.49 286.66,-154.61"/>
</g>
<!-- Node7 -->
<g id="node7" class="node">
<title>Node7</title>
<g id="a_node7"><a xlink:href="demModel_8cpp.html" target="_top" xlink:title=" ">
<polygon fill="none" stroke="black" points="321,-6 321,-36 472,-36 472,-6 321,-6"/>
<text text-anchor="start" x="329" y="-24" font-family="Arial" font-size="10.00">/home/user/project</text>
<text text-anchor="middle" x="396.5" y="-13" font-family="Arial" font-size="10.00">/src/model/dem/demModel.cpp</text>
</a>
</g>
</g>
<!-- Node4&#45;&gt;Node7 -->
<g id="edge6" class="edge">
<title>Node4&#45;&gt;Node7</title>
<path fill="none" stroke="midnightblue" d="M242.34,-158.46C198.59,-150.08 150.7,-137.28 137.5,-120 126.17,-105.16 125.78,-92.53 137.5,-78 160.21,-49.85 252.75,-35.15 320.76,-28"/>
<polygon fill="midnightblue" stroke="midnightblue" points="241.7,-161.9 252.17,-160.29 242.98,-155.02 241.7,-161.9"/>
</g>
<!-- Node8 -->
<g id="node8" class="node">
<title>Node8</title>
<g id="a_node8"><a xlink:href="testPeriDEMLib_8cpp.html" target="_top" xlink:title=" ">
<polygon fill="none" stroke="black" points="263,-78.5 263,-119.5 382,-119.5 382,-78.5 263,-78.5"/>
<text text-anchor="start" x="271" y="-107.5" font-family="Arial" font-size="10.00">/home/user/project</text>
<text text-anchor="start" x="271" y="-96.5" font-family="Arial" font-size="10.00">/test/test_exec/peridem</text>
<text text-anchor="middle" x="322.5" y="-85.5" font-family="Arial" font-size="10.00">/testPeriDEMLib.cpp</text>
</a>
</g>
</g>
<!-- Node4&#45;&gt;Node8 -->
<g id="edge7" class="edge">
<title>Node4&#45;&gt;Node8</title>
<path fill="none" stroke="midnightblue" d="M322.5,-145.98C322.5,-137.35 322.5,-127.76 322.5,-119.59"/>
<polygon fill="midnightblue" stroke="midnightblue" points="319,-146.23 322.5,-156.23 326,-146.23 319,-146.23"/>
</g>
<!-- Node9&#45;&gt;Node7 -->
<g id="edge10" class="edge">
<title>Node9&#45;&gt;Node7</title>
<path fill="none" stroke="midnightblue" d="M91.88,-150.3C81.82,-142.23 71.96,-131.99 66.5,-120 58.77,-103.01 54.46,-92.26 66.5,-78 98.42,-40.21 233.83,-27.92 320.97,-23.92"/>
<polygon fill="midnightblue" stroke="midnightblue" points="89.81,-153.12 99.91,-156.29 93.99,-147.51 89.81,-153.12"/>
</g>
<!-- Node10 -->
<g id="node10" class="node">
<title>Node10</title>
<g id="a_node10"><a xlink:href="materialUtil_8cpp.html" target="_top" xlink:title=" ">
<polygon fill="none" stroke="black" points="563.5,-84 563.5,-114 705.5,-114 705.5,-84 563.5,-84"/>
<text text-anchor="start" x="571.5" y="-102" font-family="Arial" font-size="10.00">/home/user/project</text>
<text text-anchor="middle" x="634.5" y="-91" font-family="Arial" font-size="10.00">/src/material/materialUtil.cpp</text>
</a>
</g>
</g>
<!-- Node9&#45;&gt;Node10 -->
<g id="edge9" class="edge">
<title>Node9&#45;&gt;Node10</title>
<path fill="none" stroke="midnightblue" d="M200.27,-161.1C296.53,-149.1 457.26,-128.83 516.5,-120 531.71,-117.73 547.98,-115.1 563.44,-112.51"/>
<polygon fill="midnightblue" stroke="midnightblue" points="199.79,-157.64 190.3,-162.35 200.66,-164.58 199.79,-157.64"/>
</g>
<!-- Node11 -->
<g id="node11" class="node">
<title>Node11</title>
<g id="a_node11"><a xlink:href="particle_8cpp.html" target="_top" xlink:title=" ">
<polygon fill="none" stroke="black" points="588,-6 588,-36 709,-36 709,-6 588,-6"/>
<text text-anchor="start" x="596" y="-24" font-family="Arial" font-size="10.00">/home/user/project</text>
<text text-anchor="middle" x="648.5" y="-13" font-family="Arial" font-size="10.00">/src/particle/particle.cpp</text>
</a>
</g>
</g>
<!-- Node9&#45;&gt;Node11 -->
<g id="edge11" class="edge">
<title>Node9&#45;&gt;Node11</title>
<path fill="none" stroke="midnightblue" d="M120.46,-146.11C118.49,-125.02 119.62,-95.26 137.5,-78 192.8,-24.62 405.12,-50.57 481.5,-42 516.76,-38.04 556.16,-33.34 587.84,-29.49"/>
<polygon fill="midnightblue" stroke="midnightblue" points="117.01,-146.74 121.7,-156.24 123.96,-145.89 117.01,-146.74"/>
</g>
<!-- Node12 -->
<g id="node12" class="node">
<title>Node12</title>
<g id="a_node12"><a xlink:href="wall_8cpp.html" target="_top" xlink:title=" ">
<polygon fill="none" stroke="black" points="0,-6 0,-36 107,-36 107,-6 0,-6"/>
<text text-anchor="start" x="8" y="-24" font-family="Arial" font-size="10.00">/home/user/project</text>
<text text-anchor="middle" x="53.5" y="-13" font-family="Arial" font-size="10.00">/src/particle/wall.cpp</text>
</a>
</g>
</g>
<!-- Node9&#45;&gt;Node12 -->
<g id="edge12" class="edge">
<title>Node9&#45;&gt;Node12</title>
<path fill="none" stroke="midnightblue" d="M65.69,-152.07C51.02,-144.53 37.05,-134.15 28.5,-120 12.34,-93.25 30.74,-56.32 43.45,-36.3"/>
<polygon fill="midnightblue" stroke="midnightblue" points="64.34,-155.3 74.88,-156.4 67.32,-148.97 64.34,-155.3"/>
</g>
<!-- Node14&#45;&gt;Node10 -->
<g id="edge17" class="edge">
<title>Node14&#45;&gt;Node10</title>
<path fill="none" stroke="midnightblue" d="M880.83,-155.39C832.92,-145.74 769.99,-132.7 714.5,-120 706.41,-118.15 697.87,-116.11 689.52,-114.06"/>
<polygon fill="midnightblue" stroke="midnightblue" points="880.33,-158.85 890.82,-157.39 881.7,-151.99 880.33,-158.85"/>
</g>
<!-- Node14&#45;&gt;Node13 -->
<g id="edge18" class="edge">
<title>Node14&#45;&gt;Node13</title>
<path fill="none" stroke="midnightblue" d="M1034.33,-165.47C1137.85,-157.97 1316.22,-142.31 1377.5,-120 1431.28,-100.42 1485.24,-58.36 1511.34,-36.25"/>
<polygon fill="midnightblue" stroke="midnightblue" points="1033.97,-161.99 1024.24,-166.19 1034.47,-168.97 1033.97,-161.99"/>
</g>
<!-- Node15 -->
<g id="node15" class="node">
<title>Node15</title>
<g id="a_node15"><a xlink:href="particleFLoading_8cpp.html" target="_top" xlink:title=" ">
<polygon fill="none" stroke="black" points="877.5,-84 877.5,-114 1037.5,-114 1037.5,-84 877.5,-84"/>
<text text-anchor="start" x="885.5" y="-102" font-family="Arial" font-size="10.00">/home/user/project</text>
<text text-anchor="middle" x="957.5" y="-91" font-family="Arial" font-size="10.00">/src/loading/particleFLoading.cpp</text>
</a>
</g>
</g>
<!-- Node14&#45;&gt;Node15 -->
<g id="edge15" class="edge">
<title>Node14&#45;&gt;Node15</title>
<path fill="none" stroke="midnightblue" d="M957.5,-146.23C957.5,-135.57 957.5,-123.41 957.5,-114.25"/>
<polygon fill="midnightblue" stroke="midnightblue" points="954,-146.23 957.5,-156.23 961,-146.23 954,-146.23"/>
</g>
<!-- Node16 -->
<g id="node16" class="node">
<title>Node16</title>
<g id="a_node16"><a xlink:href="particleULoading_8cpp.html" target="_top" xlink:title=" ">
<polygon fill="none" stroke="black" points="1056,-84 1056,-114 1217,-114 1217,-84 1056,-84"/>
<text text-anchor="start" x="1064" y="-102" font-family="Arial" font-size="10.00">/home/user/project</text>
<text text-anchor="middle" x="1136.5" y="-91" font-family="Arial" font-size="10.00">/src/loading/particleULoading.cpp</text>
</a>
</g>
</g>
<!-- Node14&#45;&gt;Node16 -->
<g id="edge16" class="edge">
<title>Node14&#45;&gt;Node16</title>
<path fill="none" stroke="midnightblue" d="M1002.81,-152.65C1033.18,-140.69 1072.61,-125.16 1100.77,-114.07"/>
<polygon fill="midnightblue" stroke="midnightblue" points="1001.31,-149.48 993.29,-156.4 1003.88,-155.99 1001.31,-149.48"/>
</g>
<!-- Node14&#45;&gt;Node17 -->
<g id="edge19" class="edge">
<title>Node14&#45;&gt;Node17</title>
<path fill="none" stroke="midnightblue" d="M1033.89,-158.61C1088.02,-149.6 1162.15,-136.04 1226.5,-120 1233.5,-118.25 1240.87,-116.18 1248.01,-114.04"/>
<polygon fill="midnightblue" stroke="midnightblue" points="1033.32,-155.16 1024.02,-160.24 1034.46,-162.07 1033.32,-155.16"/>
</g>
<!-- Node14&#45;&gt;Node18 -->
<g id="edge32" class="edge">
<title>Node14&#45;&gt;Node18</title>
<path fill="none" stroke="midnightblue" d="M907.58,-151.82C892.96,-144.06 878.29,-133.62 868.5,-120 850.3,-94.67 848.3,-56.51 848.72,-36.09"/>
<polygon fill="midnightblue" stroke="midnightblue" points="906.12,-155 916.64,-156.3 909.23,-148.73 906.12,-155"/>
</g>
<!-- Node14&#45;&gt;Node19 -->
<g id="edge33" class="edge">
<title>Node14&#45;&gt;Node19</title>
<path fill="none" stroke="midnightblue" d="M1034.48,-171.05C1136.7,-170.11 1309.59,-162.08 1354.5,-120 1377.64,-98.31 1377.41,-57.55 1375.39,-36.07"/>
<polygon fill="midnightblue" stroke="midnightblue" points="1034.18,-167.56 1024.21,-171.13 1034.23,-174.56 1034.18,-167.56"/>
</g>
<!-- Node14&#45;&gt;Node21 -->
<g id="edge26" class="edge">
<title>Node14&#45;&gt;Node21</title>
<path fill="none" stroke="midnightblue" d="M911.08,-152.81C879.64,-140.83 838.65,-125.21 809.43,-114.07"/>
<polygon fill="midnightblue" stroke="midnightblue" points="909.92,-156.11 920.51,-156.4 912.41,-149.57 909.92,-156.11"/>
</g>
<!-- Node17&#45;&gt;Node7 -->
<g id="edge20" class="edge">
<title>Node17&#45;&gt;Node7</title>
<path fill="none" stroke="midnightblue" d="M1241.03,-81.23C1236.16,-79.97 1231.26,-78.86 1226.5,-78 943.11,-26.66 866.53,-65.65 579.5,-42 544.14,-39.09 505.04,-34.94 472.09,-31.18"/>
<polygon fill="midnightblue" stroke="midnightblue" points="1240.37,-84.67 1250.94,-83.97 1242.23,-77.93 1240.37,-84.67"/>
</g>
<!-- Node17&#45;&gt;Node11 -->
<g id="edge22" class="edge">
<title>Node17&#45;&gt;Node11</title>
<path fill="none" stroke="midnightblue" d="M1240.22,-81.13C1235.62,-79.94 1230.99,-78.87 1226.5,-78 1025.58,-39.24 970.6,-66.98 767.5,-42 748.47,-39.66 727.85,-36.44 709.19,-33.26"/>
<polygon fill="midnightblue" stroke="midnightblue" points="1239.65,-84.61 1250.22,-83.91 1241.52,-77.86 1239.65,-84.61"/>
</g>
<!-- Node17&#45;&gt;Node13 -->
<g id="edge21" class="edge">
<title>Node17&#45;&gt;Node13</title>
<path fill="none" stroke="midnightblue" d="M1343.79,-80.91C1385.95,-67.39 1444.1,-48.74 1483.61,-36.07"/>
<polygon fill="midnightblue" stroke="midnightblue" points="1342.7,-77.59 1334.25,-83.97 1344.84,-84.25 1342.7,-77.59"/>
</g>
<!-- Node17&#45;&gt;Node18 -->
<g id="edge23" class="edge">
<title>Node17&#45;&gt;Node18</title>
<path fill="none" stroke="midnightblue" d="M1238.99,-81.15C1234.79,-80 1230.58,-78.94 1226.5,-78 1122.17,-54.1 999.18,-38.05 922.75,-29.47"/>
<polygon fill="midnightblue" stroke="midnightblue" points="1238.18,-84.56 1248.75,-83.93 1240.1,-77.82 1238.18,-84.56"/>
</g>
<!-- Node17&#45;&gt;Node19 -->
<g id="edge24" class="edge">
<title>Node17&#45;&gt;Node19</title>
<path fill="none" stroke="midnightblue" d="M1313.55,-76.89C1327.71,-63.93 1345.46,-47.68 1357.96,-36.23"/>
<polygon fill="midnightblue" stroke="midnightblue" points="1311.12,-74.37 1306.11,-83.7 1315.85,-79.53 1311.12,-74.37"/>
</g>
<!-- Node20 -->
<g id="node20" class="node">
<title>Node20</title>
<g id="a_node20"><a xlink:href="testParticleLib_8cpp.html" target="_top" xlink:title=" ">
<polygon fill="none" stroke="black" points="1169.5,-0.5 1169.5,-41.5 1285.5,-41.5 1285.5,-0.5 1169.5,-0.5"/>
<text text-anchor="start" x="1177.5" y="-29.5" font-family="Arial" font-size="10.00">/home/user/project</text>
<text text-anchor="start" x="1177.5" y="-18.5" font-family="Arial" font-size="10.00">/test/test_exec/particle</text>
<text text-anchor="middle" x="1227.5" y="-7.5" font-family="Arial" font-size="10.00">/testParticleLib.cpp</text>
</a>
</g>
</g>
<!-- Node17&#45;&gt;Node20 -->
<g id="edge25" class="edge">
<title>Node17&#45;&gt;Node20</title>
<path fill="none" stroke="midnightblue" d="M1272.19,-75.91C1263.22,-65.09 1252.5,-52.16 1243.81,-41.68"/>
<polygon fill="midnightblue" stroke="midnightblue" points="1269.57,-78.24 1278.65,-83.7 1274.96,-73.77 1269.57,-78.24"/>
</g>
<!-- Node21&#45;&gt;Node7 -->
<g id="edge27" class="edge">
<title>Node21&#45;&gt;Node7</title>
<path fill="none" stroke="midnightblue" d="M724.73,-80.87C721.28,-79.84 717.85,-78.87 714.5,-78 632.69,-56.83 536.96,-41.18 472.07,-31.88"/>
<polygon fill="midnightblue" stroke="midnightblue" points="723.8,-84.24 734.39,-83.9 725.9,-77.57 723.8,-84.24"/>
</g>
<!-- Node21&#45;&gt;Node12 -->
<g id="edge29" class="edge">
<title>Node21&#45;&gt;Node12</title>
<path fill="none" stroke="midnightblue" d="M726.31,-80.94C722.35,-79.82 718.38,-78.82 714.5,-78 684.94,-71.75 259.58,-38.11 107.26,-26.19"/>
<polygon fill="midnightblue" stroke="midnightblue" points="725.48,-84.35 736.07,-83.91 727.52,-77.65 725.48,-84.35"/>
</g>
<!-- Node21&#45;&gt;Node13 -->
<g id="edge28" class="edge">
<title>Node21&#45;&gt;Node13</title>
<path fill="none" stroke="midnightblue" d="M831.63,-84.29C843.77,-81.87 856.5,-79.61 868.5,-78 1126.24,-43.39 1195.82,-83.71 1452.5,-42 1461.68,-40.51 1471.36,-38.37 1480.6,-36.04"/>
<polygon fill="midnightblue" stroke="midnightblue" points="830.69,-80.91 821.6,-86.35 832.1,-87.77 830.69,-80.91"/>
</g>
<!-- Node21&#45;&gt;Node18 -->
<g id="edge30" class="edge">
<title>Node21&#45;&gt;Node18</title>
<path fill="none" stroke="midnightblue" d="M794.25,-76.53C807.32,-63.63 823.59,-47.57 835.08,-36.23"/>
<polygon fill="midnightblue" stroke="midnightblue" points="791.64,-74.19 786.98,-83.7 796.56,-79.17 791.64,-74.19"/>
</g>
<!-- Node21&#45;&gt;Node19 -->
<g id="edge31" class="edge">
<title>Node21&#45;&gt;Node19</title>
<path fill="none" stroke="midnightblue" d="M831.66,-84.5C843.8,-82.07 856.52,-79.75 868.5,-78 1056.52,-50.57 1107.11,-73.42 1294.5,-42 1303.85,-40.43 1313.72,-38.32 1323.19,-36.04"/>
<polygon fill="midnightblue" stroke="midnightblue" points="830.72,-81.13 821.63,-86.57 832.13,-87.98 830.72,-81.13"/>
</g>
<!-- Node22&#45;&gt;Node13 -->
<g id="edge40" class="edge">
<title>Node22&#45;&gt;Node13</title>
<path fill="none" stroke="midnightblue" d="M1648.76,-155.54C1667.4,-148.04 1685.37,-136.81 1696.5,-120 1706.8,-104.43 1707.43,-93.13 1696.5,-78 1673.07,-45.55 1630.1,-31.6 1593.35,-25.74"/>
<polygon fill="midnightblue" stroke="midnightblue" points="1647.46,-152.29 1639.29,-159.03 1649.88,-158.86 1647.46,-152.29"/>
</g>
<!-- Node22&#45;&gt;Node17 -->
<g id="edge41" class="edge">
<title>Node22&#45;&gt;Node17</title>
<path fill="none" stroke="midnightblue" d="M1510.7,-154.09C1460.67,-141.8 1393.03,-125.19 1345.97,-113.63"/>
<polygon fill="midnightblue" stroke="midnightblue" points="1509.91,-157.5 1520.45,-156.49 1511.58,-150.7 1509.91,-157.5"/>
</g>
<!-- Node22&#45;&gt;Node18 -->
<g id="edge43" class="edge">
<title>Node22&#45;&gt;Node18</title>
<path fill="none" stroke="midnightblue" d="M1541.58,-151.86C1498.39,-130.35 1423.14,-95.66 1354.5,-78 1204.15,-39.32 1021.84,-27.35 922.58,-23.66"/>
<polygon fill="midnightblue" stroke="midnightblue" points="1540.05,-155.01 1550.55,-156.37 1543.19,-148.75 1540.05,-155.01"/>
</g>
<!-- Node22&#45;&gt;Node19 -->
<g id="edge44" class="edge">
<title>Node22&#45;&gt;Node19</title>
<path fill="none" stroke="midnightblue" d="M1563.36,-147.77C1549.65,-127.27 1527.2,-97.44 1501.5,-78 1476.84,-59.34 1444.99,-45.38 1419.23,-36.06"/>
<polygon fill="midnightblue" stroke="midnightblue" points="1560.46,-149.72 1568.85,-156.19 1566.32,-145.9 1560.46,-149.72"/>
</g>
<!-- Node23 -->
<g id="node23" class="node">
<title>Node23</title>
<g id="a_node23"><a xlink:href="refParticle_8cpp.html" target="_top" xlink:title=" ">
<polygon fill="none" stroke="black" points="1553.5,-84 1553.5,-114 1687.5,-114 1687.5,-84 1553.5,-84"/>
<text text-anchor="start" x="1561.5" y="-102" font-family="Arial" font-size="10.00">/home/user/project</text>
<text text-anchor="middle" x="1620.5" y="-91" font-family="Arial" font-size="10.00">/src/particle/refParticle.cpp</text>
</a>
</g>
</g>
<!-- Node22&#45;&gt;Node23 -->
<g id="edge42" class="edge">
<title>Node22&#45;&gt;Node23</title>
<path fill="none" stroke="midnightblue" d="M1591.49,-147.56C1598.19,-136.59 1605.99,-123.8 1611.81,-114.25"/>
<polygon fill="midnightblue" stroke="midnightblue" points="1588.42,-145.87 1586.2,-156.23 1594.4,-149.52 1588.42,-145.87"/>
</g>
</g>
</svg>
