<?xml version="1.0" encoding="UTF-8" standalone="no"?>
<!DOCTYPE svg PUBLIC "-//W3C//DTD SVG 1.1//EN"
 "http://www.w3.org/Graphics/SVG/1.1/DTD/svg11.dtd">
<!-- Generated by graphviz version 2.43.0 (0)
 -->
<!-- Title: /home/user/project/src/util/geomObjects.cpp Pages: 1 -->
<svg width="917pt" height="263pt"
 viewBox="0.00 0.00 917.00 263.00" xmlns="http://www.w3.org/2000/svg" xmlns:xlink="http://www.w3.org/1999/xlink">
<g id="graph0" class="graph" transform="scale(1 1) rotate(0) translate(4 259)">
<title>/home/user/project/src/util/geomObjects.cpp</title>
<!-- Node1 -->
<g id="node1" class="node">
<title>Node1</title>
<g id="a_node1"><a xlink:title=" ">
<polygon fill="#bfbfbf" stroke="black" points="508,-224.5 508,-254.5 636,-254.5 636,-224.5 508,-224.5"/>
<text text-anchor="start" x="516" y="-242.5" font-family="Arial" font-size="10.00">/home/user/project</text>
<text text-anchor="middle" x="572" y="-231.5" font-family="Arial" font-size="10.00">/src/util/geomObjects.cpp</text>
</a>
</g>
</g>
<!-- Node2 -->
<g id="node2" class="node">
<title>Node2</title>
<g id="a_node2"><a xlink:href="geomObjects_8h.html" target="_top" xlink:title=" ">
<polygon fill="none" stroke="black" points="203.5,-168.5 203.5,-187.5 286.5,-187.5 286.5,-168.5 203.5,-168.5"/>
<text text-anchor="middle" x="245" y="-175.5" font-family="Arial" font-size="10.00">geomObjects.h</text>
</a>
</g>
</g>
<!-- Node1&#45;&gt;Node2 -->
<g id="edge1" class="edge">
<title>Node1&#45;&gt;Node2</title>
<path fill="none" stroke="midnightblue" d="M507.79,-226.82C446.02,-215.58 353.84,-198.8 296.67,-188.4"/>
<polygon fill="midnightblue" stroke="midnightblue" points="297.23,-184.95 286.77,-186.6 295.98,-191.83 297.23,-184.95"/>
</g>
<!-- Node6 -->
<g id="node6" class="node">
<title>Node6</title>
<g id="a_node6"><a xlink:href="function_8h.html" target="_top" xlink:title=" ">
<polygon fill="none" stroke="black" points="493.5,-112.5 493.5,-131.5 552.5,-131.5 552.5,-112.5 493.5,-112.5"/>
<text text-anchor="middle" x="523" y="-119.5" font-family="Arial" font-size="10.00">function.h</text>
</a>
</g>
</g>
<!-- Node1&#45;&gt;Node6 -->
<g id="edge28" class="edge">
<title>Node1&#45;&gt;Node6</title>
<path fill="none" stroke="midnightblue" d="M565.99,-224.34C557.08,-203.34 540.37,-163.96 530.62,-140.96"/>
<polygon fill="midnightblue" stroke="midnightblue" points="533.81,-139.51 526.68,-131.67 527.36,-142.24 533.81,-139.51"/>
</g>
<!-- Node11 -->
<g id="node11" class="node">
<title>Node11</title>
<g id="a_node11"><a xlink:title=" ">
<polygon fill="none" stroke="#bfbfbf" points="453,-0.5 453,-19.5 497,-19.5 497,-0.5 453,-0.5"/>
<text text-anchor="middle" x="475" y="-7.5" font-family="Arial" font-size="10.00">vector</text>
</a>
</g>
</g>
<!-- Node1&#45;&gt;Node11 -->
<g id="edge40" class="edge">
<title>Node1&#45;&gt;Node11</title>
<path fill="none" stroke="midnightblue" d="M627.25,-224.46C722.65,-197.71 901.67,-135 832,-56 810.65,-31.79 591.06,-17.34 507.26,-12.67"/>
<polygon fill="midnightblue" stroke="midnightblue" points="507.22,-9.16 497.05,-12.11 506.84,-16.15 507.22,-9.16"/>
</g>
<!-- Node20 -->
<g id="node20" class="node">
<title>Node20</title>
<g id="a_node20"><a xlink:href="geom_8h.html" target="_top" xlink:title=" ">
<polygon fill="none" stroke="black" points="426.5,-112.5 426.5,-131.5 475.5,-131.5 475.5,-112.5 426.5,-112.5"/>
<text text-anchor="middle" x="451" y="-119.5" font-family="Arial" font-size="10.00">geom.h</text>
</a>
</g>
</g>
<!-- Node1&#45;&gt;Node20 -->
<g id="edge29" class="edge">
<title>Node1&#45;&gt;Node20</title>
<path fill="none" stroke="midnightblue" d="M557.16,-224.34C534.47,-202.68 491.28,-161.45 467.59,-138.83"/>
<polygon fill="midnightblue" stroke="midnightblue" points="469.73,-136.04 460.08,-131.67 464.9,-141.11 469.73,-136.04"/>
</g>
<!-- Node21 -->
<g id="node21" class="node">
<title>Node21</title>
<g id="a_node21"><a xlink:href="methods_8h.html" target="_top" xlink:title=" ">
<polygon fill="none" stroke="black" points="571,-112.5 571,-131.5 633,-131.5 633,-112.5 571,-112.5"/>
<text text-anchor="middle" x="602" y="-119.5" font-family="Arial" font-size="10.00">methods.h</text>
</a>
</g>
</g>
<!-- Node1&#45;&gt;Node21 -->
<g id="edge32" class="edge">
<title>Node1&#45;&gt;Node21</title>
<path fill="none" stroke="midnightblue" d="M575.68,-224.34C581.08,-203.53 591.18,-164.66 597.17,-141.58"/>
<polygon fill="midnightblue" stroke="midnightblue" points="600.62,-142.23 599.75,-131.67 593.85,-140.47 600.62,-142.23"/>
</g>
<!-- Node26 -->
<g id="node26" class="node">
<title>Node26</title>
<g id="a_node26"><a xlink:title=" ">
<polygon fill="none" stroke="#bfbfbf" points="879,-168.5 879,-187.5 909,-187.5 909,-168.5 879,-168.5"/>
<text text-anchor="middle" x="894" y="-175.5" font-family="Arial" font-size="10.00">set</text>
</a>
</g>
</g>
<!-- Node1&#45;&gt;Node26 -->
<g id="edge41" class="edge">
<title>Node1&#45;&gt;Node26</title>
<path fill="none" stroke="midnightblue" d="M636.22,-229.89C695.91,-221.31 787.08,-206.72 865,-188 866.27,-187.7 867.56,-187.37 868.87,-187.02"/>
<polygon fill="midnightblue" stroke="midnightblue" points="870.13,-190.3 878.75,-184.14 868.17,-183.57 870.13,-190.3"/>
</g>
<!-- Node3 -->
<g id="node3" class="node">
<title>Node3</title>
<g id="a_node3"><a xlink:title=" ">
<polygon fill="none" stroke="#bfbfbf" points="0,-0.5 0,-19.5 54,-19.5 54,-0.5 0,-0.5"/>
<text text-anchor="middle" x="27" y="-7.5" font-family="Arial" font-size="10.00">iostream</text>
</a>
</g>
</g>
<!-- Node2&#45;&gt;Node3 -->
<g id="edge2" class="edge">
<title>Node2&#45;&gt;Node3</title>
<path fill="none" stroke="midnightblue" d="M203.38,-172.6C171.26,-167.4 127.19,-156.16 96,-132 61.39,-105.18 41.22,-55.77 32.38,-29.14"/>
<polygon fill="midnightblue" stroke="midnightblue" points="35.7,-28.04 29.36,-19.55 29.02,-30.14 35.7,-28.04"/>
</g>
<!-- Node4 -->
<g id="node4" class="node">
<title>Node4</title>
<g id="a_node4"><a xlink:title=" ">
<polygon fill="none" stroke="#bfbfbf" points="193,-112.5 193,-131.5 233,-131.5 233,-112.5 193,-112.5"/>
<text text-anchor="middle" x="213" y="-119.5" font-family="Arial" font-size="10.00">utility</text>
</a>
</g>
</g>
<!-- Node2&#45;&gt;Node4 -->
<g id="edge3" class="edge">
<title>Node2&#45;&gt;Node4</title>
<path fill="none" stroke="midnightblue" d="M239.72,-168.08C235.29,-160.61 228.84,-149.72 223.38,-140.52"/>
<polygon fill="midnightblue" stroke="midnightblue" points="226.29,-138.57 218.19,-131.75 220.27,-142.14 226.29,-138.57"/>
</g>
<!-- Node5 -->
<g id="node5" class="node">
<title>Node5</title>
<g id="a_node5"><a xlink:title=" ">
<polygon fill="none" stroke="#bfbfbf" points="251,-112.5 251,-131.5 303,-131.5 303,-112.5 251,-112.5"/>
<text text-anchor="middle" x="277" y="-119.5" font-family="Arial" font-size="10.00">memory</text>
</a>
</g>
</g>
<!-- Node2&#45;&gt;Node5 -->
<g id="edge4" class="edge">
<title>Node2&#45;&gt;Node5</title>
<path fill="none" stroke="midnightblue" d="M250.28,-168.08C254.71,-160.61 261.16,-149.72 266.62,-140.52"/>
<polygon fill="midnightblue" stroke="midnightblue" points="269.73,-142.14 271.81,-131.75 263.71,-138.57 269.73,-142.14"/>
</g>
<!-- Node2&#45;&gt;Node6 -->
<g id="edge5" class="edge">
<title>Node2&#45;&gt;Node6</title>
<path fill="none" stroke="midnightblue" d="M286.74,-169.79C332.65,-161.72 408.84,-147.94 483.16,-132.32"/>
<polygon fill="midnightblue" stroke="midnightblue" points="484.1,-135.7 493.16,-130.21 482.65,-128.85 484.1,-135.7"/>
</g>
<!-- Node7 -->
<g id="node7" class="node">
<title>Node7</title>
<g id="a_node7"><a xlink:href="point_8h.html" target="_top" xlink:title=" ">
<polygon fill="none" stroke="black" points="289,-56.5 289,-75.5 335,-75.5 335,-56.5 289,-56.5"/>
<text text-anchor="middle" x="312" y="-63.5" font-family="Arial" font-size="10.00">point.h</text>
</a>
</g>
</g>
<!-- Node2&#45;&gt;Node7 -->
<g id="edge24" class="edge">
<title>Node2&#45;&gt;Node7</title>
<path fill="none" stroke="midnightblue" d="M226.24,-168.44C202.99,-156.61 168.25,-134.23 184,-112 189.73,-103.92 243.18,-87.03 279.17,-76.4"/>
<polygon fill="midnightblue" stroke="midnightblue" points="280.19,-79.75 288.81,-73.58 278.23,-73.03 280.19,-79.75"/>
</g>
<!-- Node12 -->
<g id="node12" class="node">
<title>Node12</title>
<g id="a_node12"><a xlink:href="io_8h.html" target="_top" xlink:title=" ">
<polygon fill="none" stroke="black" points="105,-112.5 105,-131.5 137,-131.5 137,-112.5 105,-112.5"/>
<text text-anchor="middle" x="121" y="-119.5" font-family="Arial" font-size="10.00">io.h</text>
</a>
</g>
</g>
<!-- Node2&#45;&gt;Node12 -->
<g id="edge13" class="edge">
<title>Node2&#45;&gt;Node12</title>
<path fill="none" stroke="midnightblue" d="M225.35,-168.44C203.96,-159.13 169.68,-144.2 146.29,-134.02"/>
<polygon fill="midnightblue" stroke="midnightblue" points="147.57,-130.75 137.01,-129.97 144.78,-137.17 147.57,-130.75"/>
</g>
<!-- Node19 -->
<g id="node19" class="node">
<title>Node19</title>
<g id="a_node19"><a xlink:href="transformation_8h.html" target="_top" xlink:title=" ">
<polygon fill="none" stroke="black" points="321.5,-112.5 321.5,-131.5 408.5,-131.5 408.5,-112.5 321.5,-112.5"/>
<text text-anchor="middle" x="365" y="-119.5" font-family="Arial" font-size="10.00">transformation.h</text>
</a>
</g>
</g>
<!-- Node2&#45;&gt;Node19 -->
<g id="edge25" class="edge">
<title>Node2&#45;&gt;Node19</title>
<path fill="none" stroke="midnightblue" d="M264.01,-168.44C283.59,-159.64 314.31,-145.81 336.73,-135.72"/>
<polygon fill="midnightblue" stroke="midnightblue" points="338.39,-138.81 346.07,-131.52 335.52,-132.43 338.39,-138.81"/>
</g>
<!-- Node6&#45;&gt;Node7 -->
<g id="edge6" class="edge">
<title>Node6&#45;&gt;Node7</title>
<path fill="none" stroke="midnightblue" d="M493.22,-113.38C454.05,-103.35 385.46,-85.8 344.83,-75.4"/>
<polygon fill="midnightblue" stroke="midnightblue" points="345.69,-72.01 335.14,-72.92 343.96,-78.79 345.69,-72.01"/>
</g>
<!-- Node6&#45;&gt;Node11 -->
<g id="edge12" class="edge">
<title>Node6&#45;&gt;Node11</title>
<path fill="none" stroke="midnightblue" d="M519.23,-112.37C511.42,-94.46 493.29,-52.92 482.83,-28.95"/>
<polygon fill="midnightblue" stroke="midnightblue" points="485.96,-27.36 478.75,-19.59 479.54,-30.16 485.96,-27.36"/>
</g>
<!-- Node7&#45;&gt;Node3 -->
<g id="edge10" class="edge">
<title>Node7&#45;&gt;Node3</title>
<path fill="none" stroke="midnightblue" d="M288.9,-61.35C246.4,-54.52 152.77,-38.96 64.04,-20.11"/>
<polygon fill="midnightblue" stroke="midnightblue" points="64.59,-16.65 54.08,-17.97 63.13,-23.49 64.59,-16.65"/>
</g>
<!-- Node8 -->
<g id="node8" class="node">
<title>Node8</title>
<g id="a_node8"><a xlink:title=" ">
<polygon fill="none" stroke="#bfbfbf" points="323,-0.5 323,-19.5 367,-19.5 367,-0.5 323,-0.5"/>
<text text-anchor="middle" x="345" y="-7.5" font-family="Arial" font-size="10.00">cmath</text>
</a>
</g>
</g>
<!-- Node7&#45;&gt;Node8 -->
<g id="edge7" class="edge">
<title>Node7&#45;&gt;Node8</title>
<path fill="none" stroke="midnightblue" d="M317.45,-56.08C322.01,-48.61 328.67,-37.72 334.29,-28.52"/>
<polygon fill="midnightblue" stroke="midnightblue" points="337.42,-30.11 339.65,-19.75 331.45,-26.46 337.42,-30.11"/>
</g>
<!-- Node9 -->
<g id="node9" class="node">
<title>Node9</title>
<g id="a_node9"><a xlink:title=" ">
<polygon fill="none" stroke="#bfbfbf" points="385,-0.5 385,-19.5 435,-19.5 435,-0.5 385,-0.5"/>
<text text-anchor="middle" x="410" y="-7.5" font-family="Arial" font-size="10.00">iomanip</text>
</a>
</g>
</g>
<!-- Node7&#45;&gt;Node9 -->
<g id="edge8" class="edge">
<title>Node7&#45;&gt;Node9</title>
<path fill="none" stroke="midnightblue" d="M327.75,-56.32C343.32,-47.74 367.38,-34.49 385.46,-24.52"/>
<polygon fill="midnightblue" stroke="midnightblue" points="387.22,-27.55 394.29,-19.65 383.85,-21.42 387.22,-27.55"/>
</g>
<!-- Node10 -->
<g id="node10" class="node">
<title>Node10</title>
<g id="a_node10"><a xlink:title=" ">
<polygon fill="none" stroke="#bfbfbf" points="253,-0.5 253,-19.5 305,-19.5 305,-0.5 253,-0.5"/>
<text text-anchor="middle" x="279" y="-7.5" font-family="Arial" font-size="10.00">sstream</text>
</a>
</g>
</g>
<!-- Node7&#45;&gt;Node10 -->
<g id="edge9" class="edge">
<title>Node7&#45;&gt;Node10</title>
<path fill="none" stroke="midnightblue" d="M306.55,-56.08C301.99,-48.61 295.33,-37.72 289.71,-28.52"/>
<polygon fill="midnightblue" stroke="midnightblue" points="292.55,-26.46 284.35,-19.75 286.58,-30.11 292.55,-26.46"/>
</g>
<!-- Node7&#45;&gt;Node11 -->
<g id="edge11" class="edge">
<title>Node7&#45;&gt;Node11</title>
<path fill="none" stroke="midnightblue" d="M335.01,-57.38C363.28,-48.01 411.39,-32.07 443.19,-21.54"/>
<polygon fill="midnightblue" stroke="midnightblue" points="444.5,-24.79 452.89,-18.32 442.3,-18.15 444.5,-24.79"/>
</g>
<!-- Node12&#45;&gt;Node3 -->
<g id="edge21" class="edge">
<title>Node12&#45;&gt;Node3</title>
<path fill="none" stroke="midnightblue" d="M113.62,-112.37C97.97,-94.05 61.22,-51.05 40.98,-27.36"/>
<polygon fill="midnightblue" stroke="midnightblue" points="43.5,-24.92 34.34,-19.59 38.18,-29.47 43.5,-24.92"/>
</g>
<!-- Node12&#45;&gt;Node7 -->
<g id="edge14" class="edge">
<title>Node12&#45;&gt;Node7</title>
<path fill="none" stroke="midnightblue" d="M137.18,-116.09C141.65,-114.74 146.51,-113.3 151,-112 195.15,-99.21 246.28,-85.02 278.87,-76.06"/>
<polygon fill="midnightblue" stroke="midnightblue" points="280.05,-79.37 288.77,-73.35 278.2,-72.62 280.05,-79.37"/>
</g>
<!-- Node12&#45;&gt;Node11 -->
<g id="edge22" class="edge">
<title>Node12&#45;&gt;Node11</title>
<path fill="none" stroke="midnightblue" d="M137.31,-115.68C160.81,-107.85 205.37,-92.37 242,-76 259.42,-68.21 262.07,-62.55 280,-56 347.08,-31.49 369.74,-37.79 442.57,-20.19"/>
<polygon fill="midnightblue" stroke="midnightblue" points="443.84,-23.48 452.7,-17.67 442.15,-16.69 443.84,-23.48"/>
</g>
<!-- Node13 -->
<g id="node13" class="node">
<title>Node13</title>
<g id="a_node13"><a xlink:href="parallelUtil_8h.html" target="_top" xlink:title=" ">
<polygon fill="none" stroke="black" points="161.5,-56.5 161.5,-75.5 232.5,-75.5 232.5,-56.5 161.5,-56.5"/>
<text text-anchor="middle" x="197" y="-63.5" font-family="Arial" font-size="10.00">parallelUtil.h</text>
</a>
</g>
</g>
<!-- Node12&#45;&gt;Node13 -->
<g id="edge15" class="edge">
<title>Node12&#45;&gt;Node13</title>
<path fill="none" stroke="midnightblue" d="M133.21,-112.32C144.78,-104.11 162.38,-91.6 176.16,-81.81"/>
<polygon fill="midnightblue" stroke="midnightblue" points="178.44,-84.48 184.57,-75.83 174.39,-78.77 178.44,-84.48"/>
</g>
<!-- Node17 -->
<g id="node17" class="node">
<title>Node17</title>
<g id="a_node17"><a xlink:title=" ">
<polygon fill="none" stroke="#bfbfbf" points="93,-56.5 93,-75.5 143,-75.5 143,-56.5 93,-56.5"/>
<text text-anchor="middle" x="118" y="-63.5" font-family="Arial" font-size="10.00">fstream</text>
</a>
</g>
</g>
<!-- Node12&#45;&gt;Node17 -->
<g id="edge20" class="edge">
<title>Node12&#45;&gt;Node17</title>
<path fill="none" stroke="midnightblue" d="M120.5,-112.08C120.11,-105.01 119.55,-94.86 119.05,-85.99"/>
<polygon fill="midnightblue" stroke="midnightblue" points="122.54,-85.54 118.49,-75.75 115.55,-85.93 122.54,-85.54"/>
</g>
<!-- Node18 -->
<g id="node18" class="node">
<title>Node18</title>
<g id="a_node18"><a xlink:title=" ">
<polygon fill="none" stroke="#bfbfbf" points="391,-56.5 391,-75.5 447,-75.5 447,-56.5 391,-56.5"/>
<text text-anchor="middle" x="419" y="-63.5" font-family="Arial" font-size="10.00">algorithm</text>
</a>
</g>
</g>
<!-- Node12&#45;&gt;Node18 -->
<g id="edge23" class="edge">
<title>Node12&#45;&gt;Node18</title>
<path fill="none" stroke="midnightblue" d="M137.02,-118.1C182.81,-109.8 315.15,-85.82 380.94,-73.9"/>
<polygon fill="midnightblue" stroke="midnightblue" points="381.69,-77.32 390.91,-72.09 380.44,-70.43 381.69,-77.32"/>
</g>
<!-- Node13&#45;&gt;Node11 -->
<g id="edge18" class="edge">
<title>Node13&#45;&gt;Node11</title>
<path fill="none" stroke="midnightblue" d="M232.54,-58.57C291.53,-47.9 406.2,-27.13 442.52,-19.91"/>
<polygon fill="midnightblue" stroke="midnightblue" points="443.66,-23.25 452.72,-17.76 442.21,-16.4 443.66,-23.25"/>
</g>
<!-- Node14 -->
<g id="node14" class="node">
<title>Node14</title>
<g id="a_node14"><a xlink:title=" ">
<polygon fill="none" stroke="#bfbfbf" points="134.5,-0.5 134.5,-19.5 175.5,-19.5 175.5,-0.5 134.5,-0.5"/>
<text text-anchor="middle" x="155" y="-7.5" font-family="Arial" font-size="10.00">mpi.h</text>
</a>
</g>
</g>
<!-- Node13&#45;&gt;Node14 -->
<g id="edge16" class="edge">
<title>Node13&#45;&gt;Node14</title>
<path fill="none" stroke="midnightblue" d="M190.06,-56.08C184.07,-48.38 175.25,-37.03 167.95,-27.65"/>
<polygon fill="midnightblue" stroke="midnightblue" points="170.71,-25.5 161.81,-19.75 165.18,-29.79 170.71,-25.5"/>
</g>
<!-- Node15 -->
<g id="node15" class="node">
<title>Node15</title>
<g id="a_node15"><a xlink:title=" ">
<polygon fill="none" stroke="#bfbfbf" points="193.5,-0.5 193.5,-19.5 234.5,-19.5 234.5,-0.5 193.5,-0.5"/>
<text text-anchor="middle" x="214" y="-7.5" font-family="Arial" font-size="10.00">string</text>
</a>
</g>
</g>
<!-- Node13&#45;&gt;Node15 -->
<g id="edge17" class="edge">
<title>Node13&#45;&gt;Node15</title>
<path fill="none" stroke="midnightblue" d="M199.81,-56.08C202.08,-48.85 205.37,-38.41 208.21,-29.4"/>
<polygon fill="midnightblue" stroke="midnightblue" points="211.58,-30.34 211.25,-19.75 204.9,-28.24 211.58,-30.34"/>
</g>
<!-- Node16 -->
<g id="node16" class="node">
<title>Node16</title>
<g id="a_node16"><a xlink:title=" ">
<polygon fill="none" stroke="#bfbfbf" points="72,-0.5 72,-19.5 116,-19.5 116,-0.5 72,-0.5"/>
<text text-anchor="middle" x="94" y="-7.5" font-family="Arial" font-size="10.00">thread</text>
</a>
</g>
</g>
<!-- Node13&#45;&gt;Node16 -->
<g id="edge19" class="edge">
<title>Node13&#45;&gt;Node16</title>
<path fill="none" stroke="midnightblue" d="M180.45,-56.32C164.01,-47.7 138.57,-34.36 119.53,-24.39"/>
<polygon fill="midnightblue" stroke="midnightblue" points="120.99,-21.2 110.51,-19.65 117.74,-27.4 120.99,-21.2"/>
</g>
<!-- Node19&#45;&gt;Node7 -->
<g id="edge26" class="edge">
<title>Node19&#45;&gt;Node7</title>
<path fill="none" stroke="midnightblue" d="M356.25,-112.08C348.53,-104.22 337.1,-92.57 327.78,-83.08"/>
<polygon fill="midnightblue" stroke="midnightblue" points="330.09,-80.44 320.59,-75.75 325.1,-85.34 330.09,-80.44"/>
</g>
<!-- Node19&#45;&gt;Node11 -->
<g id="edge27" class="edge">
<title>Node19&#45;&gt;Node11</title>
<path fill="none" stroke="midnightblue" d="M365.04,-112.4C365.55,-98.91 368.37,-72.58 382,-56 390.41,-45.77 420.06,-32.37 443.65,-22.86"/>
<polygon fill="midnightblue" stroke="midnightblue" points="444.97,-26.1 452.98,-19.17 442.39,-19.59 444.97,-26.1"/>
</g>
<!-- Node20&#45;&gt;Node7 -->
<g id="edge30" class="edge">
<title>Node20&#45;&gt;Node7</title>
<path fill="none" stroke="midnightblue" d="M428.98,-112.44C405.9,-103.48 369.44,-89.31 343.36,-79.18"/>
<polygon fill="midnightblue" stroke="midnightblue" points="344.51,-75.88 333.92,-75.52 341.98,-82.4 344.51,-75.88"/>
</g>
<!-- Node20&#45;&gt;Node11 -->
<g id="edge31" class="edge">
<title>Node20&#45;&gt;Node11</title>
<path fill="none" stroke="midnightblue" d="M452.88,-112.37C456.76,-94.62 465.69,-53.67 470.94,-29.6"/>
<polygon fill="midnightblue" stroke="midnightblue" points="474.41,-30.11 473.13,-19.59 467.57,-28.62 474.41,-30.11"/>
</g>
<!-- Node21&#45;&gt;Node7 -->
<g id="edge33" class="edge">
<title>Node21&#45;&gt;Node7</title>
<path fill="none" stroke="midnightblue" d="M570.58,-113.8C567.69,-113.17 564.79,-112.56 562,-112 484.64,-96.34 393.27,-80.58 345.28,-72.52"/>
<polygon fill="midnightblue" stroke="midnightblue" points="345.6,-69.02 335.16,-70.82 344.44,-75.93 345.6,-69.02"/>
</g>
<!-- Node21&#45;&gt;Node11 -->
<g id="edge36" class="edge">
<title>Node21&#45;&gt;Node11</title>
<path fill="none" stroke="midnightblue" d="M592.03,-112.37C570.61,-93.81 519.93,-49.91 492.82,-26.44"/>
<polygon fill="midnightblue" stroke="midnightblue" points="494.77,-23.49 484.92,-19.59 490.19,-28.78 494.77,-23.49"/>
</g>
<!-- Node21&#45;&gt;Node18 -->
<g id="edge39" class="edge">
<title>Node21&#45;&gt;Node18</title>
<path fill="none" stroke="midnightblue" d="M573,-112.44C541.63,-103.19 491.48,-88.39 456.99,-78.21"/>
<polygon fill="midnightblue" stroke="midnightblue" points="457.84,-74.81 447.26,-75.34 455.86,-81.53 457.84,-74.81"/>
</g>
<!-- Node22 -->
<g id="node22" class="node">
<title>Node22</title>
<g id="a_node22"><a xlink:title=" ">
<polygon fill="none" stroke="#bfbfbf" points="579,-56.5 579,-75.5 625,-75.5 625,-56.5 579,-56.5"/>
<text text-anchor="middle" x="602" y="-63.5" font-family="Arial" font-size="10.00">cstdint</text>
</a>
</g>
</g>
<!-- Node21&#45;&gt;Node22 -->
<g id="edge34" class="edge">
<title>Node21&#45;&gt;Node22</title>
<path fill="none" stroke="midnightblue" d="M602,-112.08C602,-105.01 602,-94.86 602,-85.99"/>
<polygon fill="midnightblue" stroke="midnightblue" points="605.5,-85.75 602,-75.75 598.5,-85.75 605.5,-85.75"/>
</g>
<!-- Node23 -->
<g id="node23" class="node">
<title>Node23</title>
<g id="a_node23"><a xlink:title=" ">
<polygon fill="none" stroke="#bfbfbf" points="643,-56.5 643,-75.5 689,-75.5 689,-56.5 643,-56.5"/>
<text text-anchor="middle" x="666" y="-63.5" font-family="Arial" font-size="10.00">cstring</text>
</a>
</g>
</g>
<!-- Node21&#45;&gt;Node23 -->
<g id="edge35" class="edge">
<title>Node21&#45;&gt;Node23</title>
<path fill="none" stroke="midnightblue" d="M612.28,-112.32C621.84,-104.26 636.28,-92.08 647.78,-82.37"/>
<polygon fill="midnightblue" stroke="midnightblue" points="650.14,-84.96 655.53,-75.83 645.63,-79.61 650.14,-84.96"/>
</g>
<!-- Node24 -->
<g id="node24" class="node">
<title>Node24</title>
<g id="a_node24"><a xlink:title=" ">
<polygon fill="none" stroke="#bfbfbf" points="707,-56.5 707,-75.5 753,-75.5 753,-56.5 707,-56.5"/>
<text text-anchor="middle" x="730" y="-63.5" font-family="Arial" font-size="10.00">chrono</text>
</a>
</g>
</g>
<!-- Node21&#45;&gt;Node24 -->
<g id="edge37" class="edge">
<title>Node21&#45;&gt;Node24</title>
<path fill="none" stroke="midnightblue" d="M622.28,-112.44C643.35,-103.56 676.52,-89.56 700.49,-79.45"/>
<polygon fill="midnightblue" stroke="midnightblue" points="701.96,-82.63 709.81,-75.52 699.24,-76.18 701.96,-82.63"/>
</g>
<!-- Node25 -->
<g id="node25" class="node">
<title>Node25</title>
<g id="a_node25"><a xlink:title=" ">
<polygon fill="none" stroke="#bfbfbf" points="771.5,-56.5 771.5,-75.5 822.5,-75.5 822.5,-56.5 771.5,-56.5"/>
<text text-anchor="middle" x="797" y="-63.5" font-family="Arial" font-size="10.00">numeric</text>
</a>
</g>
</g>
<!-- Node21&#45;&gt;Node25 -->
<g id="edge38" class="edge">
<title>Node21&#45;&gt;Node25</title>
<path fill="none" stroke="midnightblue" d="M632.9,-112.44C667.84,-102.77 724.66,-87.03 761.42,-76.85"/>
<polygon fill="midnightblue" stroke="midnightblue" points="762.52,-80.18 771.23,-74.14 760.66,-73.43 762.52,-80.18"/>
</g>
</g>
</svg>
