<?xml version="1.0" encoding="UTF-8" standalone="no"?>
<!DOCTYPE svg PUBLIC "-//W3C//DTD SVG 1.1//EN"
 "http://www.w3.org/Graphics/SVG/1.1/DTD/svg11.dtd">
<!-- Generated by graphviz version 2.43.0 (0)
 -->
<!-- Title: /home/user/project/src/util/geom.h Pages: 1 -->
<svg width="1376pt" height="117pt"
 viewBox="0.00 0.00 1375.50 117.00" xmlns="http://www.w3.org/2000/svg" xmlns:xlink="http://www.w3.org/1999/xlink">
<g id="graph0" class="graph" transform="scale(1 1) rotate(0) translate(4 113)">
<title>/home/user/project/src/util/geom.h</title>
<!-- Node1 -->
<g id="node1" class="node">
<title>Node1</title>
<g id="a_node1"><a xlink:title=" ">
<polygon fill="#bfbfbf" stroke="black" points="674.5,-78.5 674.5,-108.5 772.5,-108.5 772.5,-78.5 674.5,-78.5"/>
<text text-anchor="start" x="682.5" y="-96.5" font-family="Arial" font-size="10.00">/home/user/project</text>
<text text-anchor="middle" x="723.5" y="-85.5" font-family="Arial" font-size="10.00">/src/util/geom.h</text>
</a>
</g>
</g>
<!-- Node2 -->
<g id="node2" class="node">
<title>Node2</title>
<g id="a_node2"><a xlink:href="apps_2twop_2main_8cpp.html" target="_top" xlink:title=" ">
<polygon fill="none" stroke="black" points="0,-6 0,-36 107,-36 107,-6 0,-6"/>
<text text-anchor="start" x="8" y="-24" font-family="Arial" font-size="10.00">/home/user/project</text>
<text text-anchor="middle" x="53.5" y="-13" font-family="Arial" font-size="10.00">/apps/twop/main.cpp</text>
</a>
</g>
</g>
<!-- Node1&#45;&gt;Node2 -->
<g id="edge1" class="edge">
<title>Node1&#45;&gt;Node2</title>
<path fill="none" stroke="midnightblue" d="M664.03,-91.96C554.61,-89.99 314.48,-81.14 116.5,-42 108.84,-40.49 100.81,-38.37 93.14,-36.07"/>
<polygon fill="midnightblue" stroke="midnightblue" points="664.15,-95.46 674.2,-92.13 664.26,-88.46 664.15,-95.46"/>
</g>
<!-- Node3 -->
<g id="node3" class="node">
<title>Node3</title>
<g id="a_node3"><a xlink:href="mesh_8cpp.html" target="_top" xlink:title=" ">
<polygon fill="none" stroke="black" points="125.5,-6 125.5,-36 223.5,-36 223.5,-6 125.5,-6"/>
<text text-anchor="start" x="133.5" y="-24" font-family="Arial" font-size="10.00">/home/user/project</text>
<text text-anchor="middle" x="174.5" y="-13" font-family="Arial" font-size="10.00">/src/fe/mesh.cpp</text>
</a>
</g>
</g>
<!-- Node1&#45;&gt;Node3 -->
<g id="edge2" class="edge">
<title>Node1&#45;&gt;Node3</title>
<path fill="none" stroke="midnightblue" d="M664.42,-90.79C571.49,-87.13 385.95,-75.87 232.5,-42 225.53,-40.46 218.24,-38.36 211.27,-36.09"/>
<polygon fill="midnightblue" stroke="midnightblue" points="664.35,-94.29 674.48,-91.17 664.61,-87.3 664.35,-94.29"/>
</g>
<!-- Node4 -->
<g id="node4" class="node">
<title>Node4</title>
<g id="a_node4"><a xlink:href="particleULoading_8cpp.html" target="_top" xlink:title=" ">
<polygon fill="none" stroke="black" points="242,-6 242,-36 403,-36 403,-6 242,-6"/>
<text text-anchor="start" x="250" y="-24" font-family="Arial" font-size="10.00">/home/user/project</text>
<text text-anchor="middle" x="322.5" y="-13" font-family="Arial" font-size="10.00">/src/loading/particleULoading.cpp</text>
</a>
</g>
</g>
<!-- Node1&#45;&gt;Node4 -->
<g id="edge3" class="edge">
<title>Node1&#45;&gt;Node4</title>
<path fill="none" stroke="midnightblue" d="M664.3,-84.01C601.41,-74.73 499.15,-58.93 411.5,-42 402.17,-40.2 392.33,-38.14 382.72,-36.05"/>
<polygon fill="midnightblue" stroke="midnightblue" points="664.03,-87.51 674.43,-85.5 665.05,-80.58 664.03,-87.51"/>
</g>
<!-- Node5 -->
<g id="node5" class="node">
<title>Node5</title>
<g id="a_node5"><a xlink:href="demModel_8cpp.html" target="_top" xlink:title=" ">
<polygon fill="none" stroke="black" points="421,-6 421,-36 572,-36 572,-6 421,-6"/>
<text text-anchor="start" x="429" y="-24" font-family="Arial" font-size="10.00">/home/user/project</text>
<text text-anchor="middle" x="496.5" y="-13" font-family="Arial" font-size="10.00">/src/model/dem/demModel.cpp</text>
</a>
</g>
</g>
<!-- Node1&#45;&gt;Node5 -->
<g id="edge4" class="edge">
<title>Node1&#45;&gt;Node5</title>
<path fill="none" stroke="midnightblue" d="M668.8,-75.51C629.98,-63.46 578.48,-47.46 541.92,-36.11"/>
<polygon fill="midnightblue" stroke="midnightblue" points="667.79,-78.86 678.38,-78.49 669.87,-72.18 667.79,-78.86"/>
</g>
<!-- Node6 -->
<g id="node6" class="node">
<title>Node6</title>
<g id="a_node6"><a xlink:href="particle_8cpp.html" target="_top" xlink:title=" ">
<polygon fill="none" stroke="black" points="590,-6 590,-36 711,-36 711,-6 590,-6"/>
<text text-anchor="start" x="598" y="-24" font-family="Arial" font-size="10.00">/home/user/project</text>
<text text-anchor="middle" x="650.5" y="-13" font-family="Arial" font-size="10.00">/src/particle/particle.cpp</text>
</a>
</g>
</g>
<!-- Node1&#45;&gt;Node6 -->
<g id="edge5" class="edge">
<title>Node1&#45;&gt;Node6</title>
<path fill="none" stroke="midnightblue" d="M701.43,-71.19C689.72,-59.87 675.63,-46.27 665.25,-36.25"/>
<polygon fill="midnightblue" stroke="midnightblue" points="699.1,-73.8 708.73,-78.23 703.97,-68.77 699.1,-73.8"/>
</g>
<!-- Node7 -->
<g id="node7" class="node">
<title>Node7</title>
<g id="a_node7"><a xlink:href="refParticle_8cpp.html" target="_top" xlink:title=" ">
<polygon fill="none" stroke="black" points="729.5,-6 729.5,-36 863.5,-36 863.5,-6 729.5,-6"/>
<text text-anchor="start" x="737.5" y="-24" font-family="Arial" font-size="10.00">/home/user/project</text>
<text text-anchor="middle" x="796.5" y="-13" font-family="Arial" font-size="10.00">/src/particle/refParticle.cpp</text>
</a>
</g>
</g>
<!-- Node1&#45;&gt;Node7 -->
<g id="edge6" class="edge">
<title>Node1&#45;&gt;Node7</title>
<path fill="none" stroke="midnightblue" d="M745.57,-71.19C757.28,-59.87 771.37,-46.27 781.75,-36.25"/>
<polygon fill="midnightblue" stroke="midnightblue" points="743.03,-68.77 738.27,-78.23 747.9,-73.8 743.03,-68.77"/>
</g>
<!-- Node8 -->
<g id="node8" class="node">
<title>Node8</title>
<g id="a_node8"><a xlink:href="wall_8cpp.html" target="_top" xlink:title=" ">
<polygon fill="none" stroke="black" points="882,-6 882,-36 989,-36 989,-6 882,-6"/>
<text text-anchor="start" x="890" y="-24" font-family="Arial" font-size="10.00">/home/user/project</text>
<text text-anchor="middle" x="935.5" y="-13" font-family="Arial" font-size="10.00">/src/particle/wall.cpp</text>
</a>
</g>
</g>
<!-- Node1&#45;&gt;Node8 -->
<g id="edge7" class="edge">
<title>Node1&#45;&gt;Node8</title>
<path fill="none" stroke="midnightblue" d="M775.51,-75.2C811.65,-63.18 859.23,-47.36 893.08,-36.11"/>
<polygon fill="midnightblue" stroke="midnightblue" points="774.02,-72.01 765.64,-78.49 776.23,-78.65 774.02,-72.01"/>
</g>
<!-- Node9 -->
<g id="node9" class="node">
<title>Node9</title>
<g id="a_node9"><a xlink:href="geom_8cpp.html" target="_top" xlink:title=" ">
<polygon fill="none" stroke="black" points="1007.5,-6 1007.5,-36 1105.5,-36 1105.5,-6 1007.5,-6"/>
<text text-anchor="start" x="1015.5" y="-24" font-family="Arial" font-size="10.00">/home/user/project</text>
<text text-anchor="middle" x="1056.5" y="-13" font-family="Arial" font-size="10.00">/src/util/geom.cpp</text>
</a>
</g>
</g>
<!-- Node1&#45;&gt;Node9 -->
<g id="edge8" class="edge">
<title>Node1&#45;&gt;Node9</title>
<path fill="none" stroke="midnightblue" d="M782.78,-84.25C838.86,-75.83 925.13,-61.27 998.5,-42 1004.99,-40.3 1011.8,-38.22 1018.38,-36.06"/>
<polygon fill="midnightblue" stroke="midnightblue" points="782.05,-80.82 772.67,-85.75 783.08,-87.75 782.05,-80.82"/>
</g>
<!-- Node10 -->
<g id="node10" class="node">
<title>Node10</title>
<g id="a_node10"><a xlink:href="geomObjects_8cpp.html" target="_top" xlink:title=" ">
<polygon fill="none" stroke="black" points="1123.5,-6 1123.5,-36 1251.5,-36 1251.5,-6 1123.5,-6"/>
<text text-anchor="start" x="1131.5" y="-24" font-family="Arial" font-size="10.00">/home/user/project</text>
<text text-anchor="middle" x="1187.5" y="-13" font-family="Arial" font-size="10.00">/src/util/geomObjects.cpp</text>
</a>
</g>
</g>
<!-- Node1&#45;&gt;Node10 -->
<g id="edge9" class="edge">
<title>Node1&#45;&gt;Node10</title>
<path fill="none" stroke="midnightblue" d="M782.6,-87.45C859.54,-80.28 997.93,-65.38 1114.5,-42 1122.75,-40.35 1131.43,-38.27 1139.82,-36.08"/>
<polygon fill="midnightblue" stroke="midnightblue" points="782.26,-83.96 772.62,-88.37 782.9,-90.93 782.26,-83.96"/>
</g>
<!-- Node11 -->
<g id="node11" class="node">
<title>Node11</title>
<g id="a_node11"><a xlink:href="testUtilLib_8cpp.html" target="_top" xlink:title=" ">
<polygon fill="none" stroke="black" points="1269.5,-0.5 1269.5,-41.5 1367.5,-41.5 1367.5,-0.5 1269.5,-0.5"/>
<text text-anchor="start" x="1277.5" y="-29.5" font-family="Arial" font-size="10.00">/home/user/project</text>
<text text-anchor="start" x="1277.5" y="-18.5" font-family="Arial" font-size="10.00">/test/test_exec/util</text>
<text text-anchor="middle" x="1318.5" y="-7.5" font-family="Arial" font-size="10.00">/testUtilLib.cpp</text>
</a>
</g>
</g>
<!-- Node1&#45;&gt;Node11 -->
<g id="edge10" class="edge">
<title>Node1&#45;&gt;Node11</title>
<path fill="none" stroke="midnightblue" d="M782.77,-91.52C882.49,-88.85 1089.67,-78.93 1260.5,-42 1263.42,-41.37 1266.39,-40.64 1269.37,-39.83"/>
<polygon fill="midnightblue" stroke="midnightblue" points="782.5,-88.03 772.59,-91.78 782.68,-95.02 782.5,-88.03"/>
</g>
</g>
</svg>
