<?xml version="1.0" encoding="UTF-8" standalone="no"?>
<!DOCTYPE svg PUBLIC "-//W3C//DTD SVG 1.1//EN"
 "http://www.w3.org/Graphics/SVG/1.1/DTD/svg11.dtd">
<!-- Generated by graphviz version 2.43.0 (0)
 -->
<!-- Title: /home/user/project/src/geometry/geometryUtil.cpp Pages: 1 -->
<svg width="672pt" height="263pt"
 viewBox="0.00 0.00 671.63 263.00" xmlns="http://www.w3.org/2000/svg" xmlns:xlink="http://www.w3.org/1999/xlink">
<g id="graph0" class="graph" transform="scale(1 1) rotate(0) translate(4 259)">
<title>/home/user/project/src/geometry/geometryUtil.cpp</title>
<!-- Node1 -->
<g id="node1" class="node">
<title>Node1</title>
<g id="a_node1"><a xlink:title=" ">
<polygon fill="#bfbfbf" stroke="black" points="304.63,-224.5 304.63,-254.5 458.63,-254.5 458.63,-224.5 304.63,-224.5"/>
<text text-anchor="start" x="312.63" y="-242.5" font-family="Arial" font-size="10.00">/home/user/project</text>
<text text-anchor="middle" x="381.63" y="-231.5" font-family="Arial" font-size="10.00">/src/geometry/geometryUtil.cpp</text>
</a>
</g>
</g>
<!-- Node2 -->
<g id="node2" class="node">
<title>Node2</title>
<g id="a_node2"><a xlink:href="geometryUtil_8h.html" target="_top" xlink:title=" ">
<polygon fill="none" stroke="black" points="347.63,-112.5 347.63,-131.5 427.63,-131.5 427.63,-112.5 347.63,-112.5"/>
<text text-anchor="middle" x="387.63" y="-119.5" font-family="Arial" font-size="10.00">geometryUtil.h</text>
</a>
</g>
</g>
<!-- Node1&#45;&gt;Node2 -->
<g id="edge1" class="edge">
<title>Node1&#45;&gt;Node2</title>
<path fill="none" stroke="midnightblue" d="M382.37,-224.34C383.44,-203.62 385.45,-165.02 386.65,-141.9"/>
<polygon fill="midnightblue" stroke="midnightblue" points="390.16,-141.84 387.18,-131.67 383.17,-141.47 390.16,-141.84"/>
</g>
<!-- Node9 -->
<g id="node9" class="node">
<title>Node9</title>
<g id="a_node9"><a xlink:href="nsearch_8h.html" target="_top" xlink:title=" ">
<polygon fill="none" stroke="black" points="255.13,-168.5 255.13,-187.5 352.13,-187.5 352.13,-168.5 255.13,-168.5"/>
<text text-anchor="middle" x="303.63" y="-175.5" font-family="Arial" font-size="10.00">nsearch/nsearch.h</text>
</a>
</g>
</g>
<!-- Node1&#45;&gt;Node9 -->
<g id="edge9" class="edge">
<title>Node1&#45;&gt;Node9</title>
<path fill="none" stroke="midnightblue" d="M363.14,-224.4C351.11,-215.22 335.43,-203.26 323.19,-193.92"/>
<polygon fill="midnightblue" stroke="midnightblue" points="325.05,-190.94 314.98,-187.66 320.81,-196.51 325.05,-190.94"/>
</g>
<!-- Node19 -->
<g id="node19" class="node">
<title>Node19</title>
<g id="a_node19"><a xlink:title=" ">
<polygon fill="none" stroke="#bfbfbf" points="409.63,-168.5 409.63,-187.5 479.63,-187.5 479.63,-168.5 409.63,-168.5"/>
<text text-anchor="middle" x="444.63" y="-175.5" font-family="Arial" font-size="10.00">fmt/format.h</text>
</a>
</g>
</g>
<!-- Node1&#45;&gt;Node19 -->
<g id="edge25" class="edge">
<title>Node1&#45;&gt;Node19</title>
<path fill="none" stroke="midnightblue" d="M396.56,-224.4C406,-215.49 418.21,-203.95 427.96,-194.74"/>
<polygon fill="midnightblue" stroke="midnightblue" points="430.6,-197.07 435.46,-187.66 425.79,-191.98 430.6,-197.07"/>
</g>
<!-- Node3 -->
<g id="node3" class="node">
<title>Node3</title>
<g id="a_node3"><a xlink:href="point_8h.html" target="_top" xlink:title=" ">
<polygon fill="none" stroke="black" points="427.63,-56.5 427.63,-75.5 489.63,-75.5 489.63,-56.5 427.63,-56.5"/>
<text text-anchor="middle" x="458.63" y="-63.5" font-family="Arial" font-size="10.00">util/point.h</text>
</a>
</g>
</g>
<!-- Node2&#45;&gt;Node3 -->
<g id="edge2" class="edge">
<title>Node2&#45;&gt;Node3</title>
<path fill="none" stroke="midnightblue" d="M399.04,-112.32C409.74,-104.18 425.97,-91.84 438.79,-82.09"/>
<polygon fill="midnightblue" stroke="midnightblue" points="441.17,-84.67 447.01,-75.83 436.94,-79.1 441.17,-84.67"/>
</g>
<!-- Node8 -->
<g id="node8" class="node">
<title>Node8</title>
<g id="a_node8"><a xlink:title=" ">
<polygon fill="none" stroke="#bfbfbf" points="184.63,-0.5 184.63,-19.5 228.63,-19.5 228.63,-0.5 184.63,-0.5"/>
<text text-anchor="middle" x="206.63" y="-7.5" font-family="Arial" font-size="10.00">vector</text>
</a>
</g>
</g>
<!-- Node2&#45;&gt;Node8 -->
<g id="edge8" class="edge">
<title>Node2&#45;&gt;Node8</title>
<path fill="none" stroke="midnightblue" d="M389.36,-112.2C391.52,-98.43 393.41,-71.74 379.63,-56 361.27,-35.04 283.52,-21.34 238.75,-15.03"/>
<polygon fill="midnightblue" stroke="midnightblue" points="239.05,-11.54 228.67,-13.66 238.1,-18.47 239.05,-11.54"/>
</g>
<!-- Node4 -->
<g id="node4" class="node">
<title>Node4</title>
<g id="a_node4"><a xlink:title=" ">
<polygon fill="none" stroke="#bfbfbf" points="538.63,-0.5 538.63,-19.5 582.63,-19.5 582.63,-0.5 538.63,-0.5"/>
<text text-anchor="middle" x="560.63" y="-7.5" font-family="Arial" font-size="10.00">cmath</text>
</a>
</g>
</g>
<!-- Node3&#45;&gt;Node4 -->
<g id="edge3" class="edge">
<title>Node3&#45;&gt;Node4</title>
<path fill="none" stroke="midnightblue" d="M475.02,-56.32C491.3,-47.7 516.5,-34.36 535.35,-24.39"/>
<polygon fill="midnightblue" stroke="midnightblue" points="537.08,-27.43 544.28,-19.65 533.81,-21.24 537.08,-27.43"/>
</g>
<!-- Node5 -->
<g id="node5" class="node">
<title>Node5</title>
<g id="a_node5"><a xlink:title=" ">
<polygon fill="none" stroke="#bfbfbf" points="328.63,-0.5 328.63,-19.5 378.63,-19.5 378.63,-0.5 328.63,-0.5"/>
<text text-anchor="middle" x="353.63" y="-7.5" font-family="Arial" font-size="10.00">iomanip</text>
</a>
</g>
</g>
<!-- Node3&#45;&gt;Node5 -->
<g id="edge4" class="edge">
<title>Node3&#45;&gt;Node5</title>
<path fill="none" stroke="midnightblue" d="M441.76,-56.32C424.92,-47.66 398.82,-34.24 379.39,-24.25"/>
<polygon fill="midnightblue" stroke="midnightblue" points="380.95,-21.12 370.46,-19.65 377.75,-27.34 380.95,-21.12"/>
</g>
<!-- Node6 -->
<g id="node6" class="node">
<title>Node6</title>
<g id="a_node6"><a xlink:title=" ">
<polygon fill="none" stroke="#bfbfbf" points="396.63,-0.5 396.63,-19.5 448.63,-19.5 448.63,-0.5 396.63,-0.5"/>
<text text-anchor="middle" x="422.63" y="-7.5" font-family="Arial" font-size="10.00">sstream</text>
</a>
</g>
</g>
<!-- Node3&#45;&gt;Node6 -->
<g id="edge5" class="edge">
<title>Node3&#45;&gt;Node6</title>
<path fill="none" stroke="midnightblue" d="M452.69,-56.08C447.65,-48.53 440.29,-37.49 434.12,-28.23"/>
<polygon fill="midnightblue" stroke="midnightblue" points="436.92,-26.13 428.46,-19.75 431.1,-30.01 436.92,-26.13"/>
</g>
<!-- Node7 -->
<g id="node7" class="node">
<title>Node7</title>
<g id="a_node7"><a xlink:title=" ">
<polygon fill="none" stroke="#bfbfbf" points="466.63,-0.5 466.63,-19.5 520.63,-19.5 520.63,-0.5 466.63,-0.5"/>
<text text-anchor="middle" x="493.63" y="-7.5" font-family="Arial" font-size="10.00">iostream</text>
</a>
</g>
</g>
<!-- Node3&#45;&gt;Node7 -->
<g id="edge6" class="edge">
<title>Node3&#45;&gt;Node7</title>
<path fill="none" stroke="midnightblue" d="M464.41,-56.08C469.3,-48.53 476.46,-37.49 482.46,-28.23"/>
<polygon fill="midnightblue" stroke="midnightblue" points="485.46,-30.05 487.96,-19.75 479.58,-26.24 485.46,-30.05"/>
</g>
<!-- Node3&#45;&gt;Node8 -->
<g id="edge7" class="edge">
<title>Node3&#45;&gt;Node8</title>
<path fill="none" stroke="midnightblue" d="M427.48,-58.32C379.38,-48.02 287.54,-28.34 238.82,-17.9"/>
<polygon fill="midnightblue" stroke="midnightblue" points="239.34,-14.43 228.83,-15.76 237.88,-21.28 239.34,-14.43"/>
</g>
<!-- Node9&#45;&gt;Node3 -->
<g id="edge10" class="edge">
<title>Node9&#45;&gt;Node3</title>
<path fill="none" stroke="midnightblue" d="M352.29,-171.31C380.27,-165.66 414.22,-154.41 436.63,-132 448.86,-119.77 454.29,-100.51 456.71,-86.12"/>
<polygon fill="midnightblue" stroke="midnightblue" points="460.22,-86.23 458.07,-75.85 453.28,-85.31 460.22,-86.23"/>
</g>
<!-- Node9&#45;&gt;Node8 -->
<g id="edge21" class="edge">
<title>Node9&#45;&gt;Node8</title>
<path fill="none" stroke="midnightblue" d="M254.97,-177.58C185.02,-175.37 58.75,-159.35 6.63,-76 -31.6,-14.86 108.2,-9.37 174.09,-10.05"/>
<polygon fill="midnightblue" stroke="midnightblue" points="174.31,-13.56 184.36,-10.22 174.42,-6.56 174.31,-13.56"/>
</g>
<!-- Node10 -->
<g id="node10" class="node">
<title>Node10</title>
<g id="a_node10"><a xlink:href="methods_8h.html" target="_top" xlink:title=" ">
<polygon fill="none" stroke="black" points="177.63,-112.5 177.63,-131.5 255.63,-131.5 255.63,-112.5 177.63,-112.5"/>
<text text-anchor="middle" x="216.63" y="-119.5" font-family="Arial" font-size="10.00">util/methods.h</text>
</a>
</g>
</g>
<!-- Node9&#45;&gt;Node10 -->
<g id="edge11" class="edge">
<title>Node9&#45;&gt;Node10</title>
<path fill="none" stroke="midnightblue" d="M289.65,-168.32C276.08,-159.9 255.25,-146.97 239.3,-137.07"/>
<polygon fill="midnightblue" stroke="midnightblue" points="240.92,-133.95 230.57,-131.65 237.22,-139.9 240.92,-133.95"/>
</g>
<!-- Node11 -->
<g id="node11" class="node">
<title>Node11</title>
<g id="a_node11"><a xlink:title=" ">
<polygon fill="none" stroke="#bfbfbf" points="15.63,-56.5 15.63,-75.5 61.63,-75.5 61.63,-56.5 15.63,-56.5"/>
<text text-anchor="middle" x="38.63" y="-63.5" font-family="Arial" font-size="10.00">cstdint</text>
</a>
</g>
</g>
<!-- Node9&#45;&gt;Node11 -->
<g id="edge19" class="edge">
<title>Node9&#45;&gt;Node11</title>
<path fill="none" stroke="midnightblue" d="M273.96,-168.44C246.31,-160.15 204.12,-146.7 168.63,-132 130.8,-116.33 88.7,-94.41 62.94,-80.46"/>
<polygon fill="midnightblue" stroke="midnightblue" points="64.36,-77.25 53.91,-75.53 61.01,-83.39 64.36,-77.25"/>
</g>
<!-- Node16 -->
<g id="node16" class="node">
<title>Node16</title>
<g id="a_node16"><a xlink:title=" ">
<polygon fill="none" stroke="#bfbfbf" points="283.13,-112.5 283.13,-131.5 324.13,-131.5 324.13,-112.5 283.13,-112.5"/>
<text text-anchor="middle" x="303.63" y="-119.5" font-family="Arial" font-size="10.00">string</text>
</a>
</g>
</g>
<!-- Node9&#45;&gt;Node16 -->
<g id="edge20" class="edge">
<title>Node9&#45;&gt;Node16</title>
<path fill="none" stroke="midnightblue" d="M303.63,-168.08C303.63,-161.01 303.63,-150.86 303.63,-141.99"/>
<polygon fill="midnightblue" stroke="midnightblue" points="307.13,-141.75 303.63,-131.75 300.13,-141.75 307.13,-141.75"/>
</g>
<!-- Node17 -->
<g id="node17" class="node">
<title>Node17</title>
<g id="a_node17"><a xlink:href="nflannSetup_8h.html" target="_top" xlink:title=" ">
<polygon fill="none" stroke="black" points="484.13,-112.5 484.13,-131.5 561.13,-131.5 561.13,-112.5 484.13,-112.5"/>
<text text-anchor="middle" x="522.63" y="-119.5" font-family="Arial" font-size="10.00">nflannSetup.h</text>
</a>
</g>
</g>
<!-- Node9&#45;&gt;Node17 -->
<g id="edge22" class="edge">
<title>Node9&#45;&gt;Node17</title>
<path fill="none" stroke="midnightblue" d="M338.33,-168.44C376.21,-159.1 436.98,-144.12 478.29,-133.93"/>
<polygon fill="midnightblue" stroke="midnightblue" points="479.22,-137.31 488.09,-131.52 477.54,-130.51 479.22,-137.31"/>
</g>
<!-- Node10&#45;&gt;Node3 -->
<g id="edge12" class="edge">
<title>Node10&#45;&gt;Node3</title>
<path fill="none" stroke="midnightblue" d="M254.98,-112.44C299.33,-102.55 372.08,-86.31 417.56,-76.16"/>
<polygon fill="midnightblue" stroke="midnightblue" points="418.39,-79.56 427.39,-73.97 416.87,-72.73 418.39,-79.56"/>
</g>
<!-- Node10&#45;&gt;Node8 -->
<g id="edge15" class="edge">
<title>Node10&#45;&gt;Node8</title>
<path fill="none" stroke="midnightblue" d="M177.52,-115.7C153.26,-110.17 123.9,-98.9 108.63,-76 89.35,-47.09 139.03,-27.89 174.49,-18.27"/>
<polygon fill="midnightblue" stroke="midnightblue" points="175.68,-21.57 184.49,-15.7 173.94,-14.79 175.68,-21.57"/>
</g>
<!-- Node10&#45;&gt;Node11 -->
<g id="edge13" class="edge">
<title>Node10&#45;&gt;Node11</title>
<path fill="none" stroke="midnightblue" d="M188.43,-112.44C156.71,-102.82 105.26,-87.21 71.69,-77.03"/>
<polygon fill="midnightblue" stroke="midnightblue" points="72.47,-73.61 61.88,-74.05 70.43,-80.31 72.47,-73.61"/>
</g>
<!-- Node12 -->
<g id="node12" class="node">
<title>Node12</title>
<g id="a_node12"><a xlink:title=" ">
<polygon fill="none" stroke="#bfbfbf" points="191.63,-56.5 191.63,-75.5 237.63,-75.5 237.63,-56.5 191.63,-56.5"/>
<text text-anchor="middle" x="214.63" y="-63.5" font-family="Arial" font-size="10.00">cstring</text>
</a>
</g>
</g>
<!-- Node10&#45;&gt;Node12 -->
<g id="edge14" class="edge">
<title>Node10&#45;&gt;Node12</title>
<path fill="none" stroke="midnightblue" d="M216.3,-112.08C216.04,-105.01 215.66,-94.86 215.33,-85.99"/>
<polygon fill="midnightblue" stroke="midnightblue" points="218.82,-85.61 214.95,-75.75 211.83,-85.87 218.82,-85.61"/>
</g>
<!-- Node13 -->
<g id="node13" class="node">
<title>Node13</title>
<g id="a_node13"><a xlink:title=" ">
<polygon fill="none" stroke="#bfbfbf" points="255.63,-56.5 255.63,-75.5 301.63,-75.5 301.63,-56.5 255.63,-56.5"/>
<text text-anchor="middle" x="278.63" y="-63.5" font-family="Arial" font-size="10.00">chrono</text>
</a>
</g>
</g>
<!-- Node10&#45;&gt;Node13 -->
<g id="edge16" class="edge">
<title>Node10&#45;&gt;Node13</title>
<path fill="none" stroke="midnightblue" d="M226.59,-112.32C235.76,-104.34 249.57,-92.31 260.66,-82.65"/>
<polygon fill="midnightblue" stroke="midnightblue" points="263.24,-85.04 268.49,-75.83 258.65,-79.76 263.24,-85.04"/>
</g>
<!-- Node14 -->
<g id="node14" class="node">
<title>Node14</title>
<g id="a_node14"><a xlink:title=" ">
<polygon fill="none" stroke="#bfbfbf" points="320.13,-56.5 320.13,-75.5 371.13,-75.5 371.13,-56.5 320.13,-56.5"/>
<text text-anchor="middle" x="345.63" y="-63.5" font-family="Arial" font-size="10.00">numeric</text>
</a>
</g>
</g>
<!-- Node10&#45;&gt;Node14 -->
<g id="edge17" class="edge">
<title>Node10&#45;&gt;Node14</title>
<path fill="none" stroke="midnightblue" d="M237.07,-112.44C258.3,-103.56 291.73,-89.56 315.88,-79.45"/>
<polygon fill="midnightblue" stroke="midnightblue" points="317.41,-82.61 325.28,-75.52 314.71,-76.15 317.41,-82.61"/>
</g>
<!-- Node15 -->
<g id="node15" class="node">
<title>Node15</title>
<g id="a_node15"><a xlink:title=" ">
<polygon fill="none" stroke="#bfbfbf" points="117.63,-56.5 117.63,-75.5 173.63,-75.5 173.63,-56.5 117.63,-56.5"/>
<text text-anchor="middle" x="145.63" y="-63.5" font-family="Arial" font-size="10.00">algorithm</text>
</a>
</g>
</g>
<!-- Node10&#45;&gt;Node15 -->
<g id="edge18" class="edge">
<title>Node10&#45;&gt;Node15</title>
<path fill="none" stroke="midnightblue" d="M205.22,-112.32C194.52,-104.18 178.29,-91.84 165.47,-82.09"/>
<polygon fill="midnightblue" stroke="midnightblue" points="167.32,-79.1 157.24,-75.83 163.09,-84.67 167.32,-79.1"/>
</g>
<!-- Node17&#45;&gt;Node3 -->
<g id="edge23" class="edge">
<title>Node17&#45;&gt;Node3</title>
<path fill="none" stroke="midnightblue" d="M512.35,-112.32C502.79,-104.26 488.35,-92.08 476.85,-82.37"/>
<polygon fill="midnightblue" stroke="midnightblue" points="479,-79.61 469.1,-75.83 474.49,-84.96 479,-79.61"/>
</g>
<!-- Node18 -->
<g id="node18" class="node">
<title>Node18</title>
<g id="a_node18"><a xlink:title=" ">
<polygon fill="none" stroke="#bfbfbf" points="507.63,-56.5 507.63,-75.5 663.63,-75.5 663.63,-56.5 507.63,-56.5"/>
<text text-anchor="middle" x="585.63" y="-63.5" font-family="Arial" font-size="10.00">nanoflann/include/nanoflann.hpp</text>
</a>
</g>
</g>
<!-- Node17&#45;&gt;Node18 -->
<g id="edge24" class="edge">
<title>Node17&#45;&gt;Node18</title>
<path fill="none" stroke="midnightblue" d="M532.75,-112.32C542.16,-104.26 556.37,-92.08 567.7,-82.37"/>
<polygon fill="midnightblue" stroke="midnightblue" points="570.01,-85 575.32,-75.83 565.45,-79.68 570.01,-85"/>
</g>
</g>
</svg>
