<?xml version="1.0" encoding="UTF-8" standalone="no"?>
<!DOCTYPE svg PUBLIC "-//W3C//DTD SVG 1.1//EN"
 "http://www.w3.org/Graphics/SVG/1.1/DTD/svg11.dtd">
<!-- Generated by graphviz version 2.43.0 (0)
 -->
<!-- Title: /home/user/project/src/util/geomObjects.cpp Pages: 1 -->
<svg width="949pt" height="258pt"
 viewBox="0.00 0.00 948.50 258.00" xmlns="http://www.w3.org/2000/svg" xmlns:xlink="http://www.w3.org/1999/xlink">
<g id="graph0" class="graph" transform="scale(1 1) rotate(0) translate(4 254)">
<title>/home/user/project/src/util/geomObjects.cpp</title>
<!-- Node1 -->
<g id="Node000001" class="node">
<title>Node1</title>
<g id="a_Node000001"><a xlink:title=" ">
<polygon fill="#999999" stroke="#666666" points="621.5,-250 493.5,-250 493.5,-220 621.5,-220 621.5,-250"/>
<text text-anchor="start" x="501.5" y="-238" font-family="Arial" font-size="10.00">/home/user/project</text>
<text text-anchor="middle" x="557.5" y="-227" font-family="Arial" font-size="10.00">/src/util/geomObjects.cpp</text>
</a>
</g>
</g>
<!-- Node2 -->
<g id="Node000002" class="node">
<title>Node2</title>
<g id="a_Node000002"><a xlink:href="geomObjects_8h.html" target="_top" xlink:title=" ">
<polygon fill="white" stroke="#666666" points="309,-184 226,-184 226,-165 309,-165 309,-184"/>
<text text-anchor="middle" x="267.5" y="-172" font-family="Arial" font-size="10.00">geomObjects.h</text>
</a>
</g>
</g>
<!-- Node1&#45;&gt;Node2 -->
<g id="edge1_Node000001_Node000002" class="edge">
<title>Node1&#45;&gt;Node2</title>
<g id="a_edge1_Node000001_Node000002"><a xlink:title=" ">
<path fill="none" stroke="#63b8ff" d="M493.5,-221.09C441.18,-210.53 368.13,-195.8 319.4,-185.97"/>
<polygon fill="#63b8ff" stroke="#63b8ff" points="319.88,-182.5 309.39,-183.95 318.5,-189.36 319.88,-182.5"/>
</a>
</g>
</g>
<!-- Node6 -->
<g id="Node000006" class="node">
<title>Node6</title>
<g id="a_Node000006"><a xlink:href="function_8h.html" target="_top" xlink:title=" ">
<polygon fill="white" stroke="#666666" points="482,-129 423,-129 423,-110 482,-110 482,-129"/>
<text text-anchor="middle" x="452.5" y="-117" font-family="Arial" font-size="10.00">function.h</text>
</a>
</g>
</g>
<!-- Node1&#45;&gt;Node6 -->
<g id="edge28_Node000001_Node000006" class="edge">
<title>Node1&#45;&gt;Node6</title>
<g id="a_edge28_Node000001_Node000006"><a xlink:title=" ">
<path fill="none" stroke="#63b8ff" d="M544.2,-219.63C524.63,-198.47 488.17,-159.05 467.61,-136.83"/>
<polygon fill="#63b8ff" stroke="#63b8ff" points="469.94,-134.19 460.58,-129.23 464.8,-138.95 469.94,-134.19"/>
</a>
</g>
</g>
<!-- Node11 -->
<g id="Node000011" class="node">
<title>Node11</title>
<g id="a_Node000011"><a xlink:title=" ">
<polygon fill="#e0e0e0" stroke="#999999" points="516.5,-19 472.5,-19 472.5,0 516.5,0 516.5,-19"/>
<text text-anchor="middle" x="494.5" y="-7" font-family="Arial" font-size="10.00">vector</text>
</a>
</g>
</g>
<!-- Node1&#45;&gt;Node11 -->
<g id="edge41_Node000001_Node000011" class="edge">
<title>Node1&#45;&gt;Node11</title>
<g id="a_edge41_Node000001_Node000011"><a xlink:title=" ">
<path fill="none" stroke="#63b8ff" d="M559.77,-219.63C562.97,-196.28 567.51,-148.8 558.5,-110 550.8,-76.86 526.28,-44.95 509.92,-26.55"/>
<polygon fill="#63b8ff" stroke="#63b8ff" points="512.41,-24.09 503.07,-19.1 507.25,-28.83 512.41,-24.09"/>
</a>
</g>
</g>
<!-- Node20 -->
<g id="Node000020" class="node">
<title>Node20</title>
<g id="a_Node000020"><a xlink:href="geom_8h.html" target="_top" xlink:title=" ">
<polygon fill="white" stroke="#666666" points="549,-129 500,-129 500,-110 549,-110 549,-129"/>
<text text-anchor="middle" x="524.5" y="-117" font-family="Arial" font-size="10.00">geom.h</text>
</a>
</g>
</g>
<!-- Node1&#45;&gt;Node20 -->
<g id="edge29_Node000001_Node000020" class="edge">
<title>Node1&#45;&gt;Node20</title>
<g id="a_edge29_Node000001_Node000020"><a xlink:title=" ">
<path fill="none" stroke="#63b8ff" d="M553.32,-219.63C547.36,-199.12 536.41,-161.47 529.86,-138.93"/>
<polygon fill="#63b8ff" stroke="#63b8ff" points="533.19,-137.85 527.04,-129.23 526.47,-139.81 533.19,-137.85"/>
</a>
</g>
</g>
<!-- Node21 -->
<g id="Node000021" class="node">
<title>Node21</title>
<g id="a_Node000021"><a xlink:href="methods_8h.html" target="_top" xlink:title=" ">
<polygon fill="white" stroke="#666666" points="697.5,-129 635.5,-129 635.5,-110 697.5,-110 697.5,-129"/>
<text text-anchor="middle" x="666.5" y="-117" font-family="Arial" font-size="10.00">methods.h</text>
</a>
</g>
</g>
<!-- Node1&#45;&gt;Node21 -->
<g id="edge32_Node000001_Node000021" class="edge">
<title>Node1&#45;&gt;Node21</title>
<g id="a_edge32_Node000001_Node000021"><a xlink:title=" ">
<path fill="none" stroke="#63b8ff" d="M571.3,-219.63C591.71,-198.37 629.81,-158.71 651.1,-136.54"/>
<polygon fill="#63b8ff" stroke="#63b8ff" points="653.71,-138.87 658.12,-129.23 648.67,-134.02 653.71,-138.87"/>
</a>
</g>
</g>
<!-- Node27 -->
<g id="Node000027" class="node">
<title>Node27</title>
<g id="a_Node000027"><a xlink:title=" ">
<polygon fill="#e0e0e0" stroke="#999999" points="673.5,-184 643.5,-184 643.5,-165 673.5,-165 673.5,-184"/>
<text text-anchor="middle" x="658.5" y="-172" font-family="Arial" font-size="10.00">set</text>
</a>
</g>
</g>
<!-- Node1&#45;&gt;Node27 -->
<g id="edge42_Node000001_Node000027" class="edge">
<title>Node1&#45;&gt;Node27</title>
<g id="a_edge42_Node000001_Node000027"><a xlink:title=" ">
<path fill="none" stroke="#63b8ff" d="M581.69,-219.99C597.79,-210.66 618.84,-198.47 634.83,-189.21"/>
<polygon fill="#63b8ff" stroke="#63b8ff" points="636.69,-192.18 643.58,-184.14 633.18,-186.12 636.69,-192.18"/>
</a>
</g>
</g>
<!-- Node3 -->
<g id="Node000003" class="node">
<title>Node3</title>
<g id="a_Node000003"><a xlink:title=" ">
<polygon fill="#e0e0e0" stroke="#999999" points="241.5,-19 187.5,-19 187.5,0 241.5,0 241.5,-19"/>
<text text-anchor="middle" x="214.5" y="-7" font-family="Arial" font-size="10.00">iostream</text>
</a>
</g>
</g>
<!-- Node2&#45;&gt;Node3 -->
<g id="edge2_Node000002_Node000003" class="edge">
<title>Node2&#45;&gt;Node3</title>
<g id="a_edge2_Node000002_Node000003"><a xlink:title=" ">
<path fill="none" stroke="#63b8ff" d="M252.38,-164.88C228.02,-149.99 180.95,-116.91 162.5,-74 154.21,-54.71 172.68,-36.6 189.86,-24.69"/>
<polygon fill="#63b8ff" stroke="#63b8ff" points="192.08,-27.42 198.58,-19.05 188.28,-21.54 192.08,-27.42"/>
</a>
</g>
</g>
<!-- Node4 -->
<g id="Node000004" class="node">
<title>Node4</title>
<g id="a_Node000004"><a xlink:title=" ">
<polygon fill="#e0e0e0" stroke="#999999" points="45.5,-129 5.5,-129 5.5,-110 45.5,-110 45.5,-129"/>
<text text-anchor="middle" x="25.5" y="-117" font-family="Arial" font-size="10.00">utility</text>
</a>
</g>
</g>
<!-- Node2&#45;&gt;Node4 -->
<g id="edge3_Node000002_Node000004" class="edge">
<title>Node2&#45;&gt;Node4</title>
<g id="a_edge3_Node000002_Node000004"><a xlink:title=" ">
<path fill="none" stroke="#63b8ff" d="M225.65,-165.77C184.64,-157.97 120.18,-145.12 55.66,-129.14"/>
<polygon fill="#63b8ff" stroke="#63b8ff" points="56.28,-125.68 45.73,-126.65 54.58,-132.47 56.28,-125.68"/>
</a>
</g>
</g>
<!-- Node5 -->
<g id="Node000005" class="node">
<title>Node5</title>
<g id="a_Node000005"><a xlink:title=" ">
<polygon fill="#e0e0e0" stroke="#999999" points="115.5,-129 63.5,-129 63.5,-110 115.5,-110 115.5,-129"/>
<text text-anchor="middle" x="89.5" y="-117" font-family="Arial" font-size="10.00">memory</text>
</a>
</g>
</g>
<!-- Node2&#45;&gt;Node5 -->
<g id="edge4_Node000002_Node000005" class="edge">
<title>Node2&#45;&gt;Node5</title>
<g id="a_edge4_Node000002_Node000005"><a xlink:title=" ">
<path fill="none" stroke="#63b8ff" d="M238.9,-164.98C208.09,-155.81 158.98,-141.19 125.54,-131.23"/>
<polygon fill="#63b8ff" stroke="#63b8ff" points="126.29,-127.8 115.71,-128.3 124.29,-134.51 126.29,-127.8"/>
</a>
</g>
</g>
<!-- Node2&#45;&gt;Node6 -->
<g id="edge5_Node000002_Node000006" class="edge">
<title>Node2&#45;&gt;Node6</title>
<g id="a_edge5_Node000002_Node000006"><a xlink:title=" ">
<path fill="none" stroke="#63b8ff" d="M297.22,-164.98C328.64,-155.98 378.36,-141.74 413.05,-131.8"/>
<polygon fill="#63b8ff" stroke="#63b8ff" points="414.2,-135.11 422.85,-128.99 412.27,-128.38 414.2,-135.11"/>
</a>
</g>
</g>
<!-- Node7 -->
<g id="Node000007" class="node">
<title>Node7</title>
<g id="a_Node000007"><a xlink:href="point_8h.html" target="_top" xlink:title=" ">
<polygon fill="white" stroke="#666666" points="361.5,-74 315.5,-74 315.5,-55 361.5,-55 361.5,-74"/>
<text text-anchor="middle" x="338.5" y="-62" font-family="Arial" font-size="10.00">point.h</text>
</a>
</g>
</g>
<!-- Node2&#45;&gt;Node7 -->
<g id="edge24_Node000002_Node000007" class="edge">
<title>Node2&#45;&gt;Node7</title>
<g id="a_edge24_Node000002_Node000007"><a xlink:title=" ">
<path fill="none" stroke="#63b8ff" d="M273.31,-164.66C285.07,-146.77 311.87,-106 327.2,-82.69"/>
<polygon fill="#63b8ff" stroke="#63b8ff" points="330.24,-84.44 332.81,-74.16 324.39,-80.59 330.24,-84.44"/>
</a>
</g>
</g>
<!-- Node12 -->
<g id="Node000012" class="node">
<title>Node12</title>
<g id="a_Node000012"><a xlink:href="io_8h.html" target="_top" xlink:title=" ">
<polygon fill="white" stroke="#666666" points="261.5,-129 229.5,-129 229.5,-110 261.5,-110 261.5,-129"/>
<text text-anchor="middle" x="245.5" y="-117" font-family="Arial" font-size="10.00">io.h</text>
</a>
</g>
</g>
<!-- Node2&#45;&gt;Node12 -->
<g id="edge13_Node000002_Node000012" class="edge">
<title>Node2&#45;&gt;Node12</title>
<g id="a_edge13_Node000002_Node000012"><a xlink:title=" ">
<path fill="none" stroke="#63b8ff" d="M263.87,-164.75C260.92,-157.65 256.67,-147.4 252.99,-138.56"/>
<polygon fill="#63b8ff" stroke="#63b8ff" points="256.13,-136.98 249.07,-129.09 249.67,-139.67 256.13,-136.98"/>
</a>
</g>
</g>
<!-- Node19 -->
<g id="Node000019" class="node">
<title>Node19</title>
<g id="a_Node000019"><a xlink:href="transformation_8h.html" target="_top" xlink:title=" ">
<polygon fill="white" stroke="#666666" points="405,-129 318,-129 318,-110 405,-110 405,-129"/>
<text text-anchor="middle" x="361.5" y="-117" font-family="Arial" font-size="10.00">transformation.h</text>
</a>
</g>
</g>
<!-- Node2&#45;&gt;Node19 -->
<g id="edge25_Node000002_Node000019" class="edge">
<title>Node2&#45;&gt;Node19</title>
<g id="a_edge25_Node000002_Node000019"><a xlink:title=" ">
<path fill="none" stroke="#63b8ff" d="M282.6,-164.98C297.32,-156.69 319.92,-143.94 337.17,-134.22"/>
<polygon fill="#63b8ff" stroke="#63b8ff" points="339.13,-137.13 346.12,-129.17 335.69,-131.03 339.13,-137.13"/>
</a>
</g>
</g>
<!-- Node6&#45;&gt;Node7 -->
<g id="edge6_Node000006_Node000007" class="edge">
<title>Node6&#45;&gt;Node7</title>
<g id="a_edge6_Node000006_Node000007"><a xlink:title=" ">
<path fill="none" stroke="#63b8ff" d="M434.18,-109.98C415.84,-101.46 387.39,-88.23 366.27,-78.41"/>
<polygon fill="#63b8ff" stroke="#63b8ff" points="367.69,-75.21 357.15,-74.17 364.74,-81.56 367.69,-75.21"/>
</a>
</g>
</g>
<!-- Node6&#45;&gt;Node11 -->
<g id="edge12_Node000006_Node000011" class="edge">
<title>Node6&#45;&gt;Node11</title>
<g id="a_edge12_Node000006_Node000011"><a xlink:title=" ">
<path fill="none" stroke="#63b8ff" d="M459.86,-109.92C466.79,-101.38 476.9,-87.62 482.5,-74 488.44,-59.55 491.47,-42.04 492.99,-29.07"/>
<polygon fill="#63b8ff" stroke="#63b8ff" points="496.49,-29.32 493.99,-19.03 489.52,-28.64 496.49,-29.32"/>
</a>
</g>
</g>
<!-- Node7&#45;&gt;Node3 -->
<g id="edge10_Node000007_Node000003" class="edge">
<title>Node7&#45;&gt;Node3</title>
<g id="a_edge10_Node000007_Node000003"><a xlink:title=" ">
<path fill="none" stroke="#63b8ff" d="M318.58,-54.98C298.45,-46.38 267.12,-32.99 244.09,-23.15"/>
<polygon fill="#63b8ff" stroke="#63b8ff" points="245.36,-19.88 234.79,-19.17 242.6,-26.32 245.36,-19.88"/>
</a>
</g>
</g>
<!-- Node8 -->
<g id="Node000008" class="node">
<title>Node8</title>
<g id="a_Node000008"><a xlink:title=" ">
<polygon fill="#e0e0e0" stroke="#999999" points="441.5,-19 397.5,-19 397.5,0 441.5,0 441.5,-19"/>
<text text-anchor="middle" x="419.5" y="-7" font-family="Arial" font-size="10.00">cmath</text>
</a>
</g>
</g>
<!-- Node7&#45;&gt;Node8 -->
<g id="edge7_Node000007_Node000008" class="edge">
<title>Node7&#45;&gt;Node8</title>
<g id="a_edge7_Node000007_Node000008"><a xlink:title=" ">
<path fill="none" stroke="#63b8ff" d="M351.51,-54.98C363.96,-46.84 382.96,-34.41 397.71,-24.76"/>
<polygon fill="#63b8ff" stroke="#63b8ff" points="399.8,-27.57 406.25,-19.17 395.96,-21.72 399.8,-27.57"/>
</a>
</g>
</g>
<!-- Node9 -->
<g id="Node000009" class="node">
<title>Node9</title>
<g id="a_Node000009"><a xlink:title=" ">
<polygon fill="#e0e0e0" stroke="#999999" points="309.5,-19 259.5,-19 259.5,0 309.5,0 309.5,-19"/>
<text text-anchor="middle" x="284.5" y="-7" font-family="Arial" font-size="10.00">iomanip</text>
</a>
</g>
</g>
<!-- Node7&#45;&gt;Node9 -->
<g id="edge8_Node000007_Node000009" class="edge">
<title>Node7&#45;&gt;Node9</title>
<g id="a_edge8_Node000007_Node000009"><a xlink:title=" ">
<path fill="none" stroke="#63b8ff" d="M329.58,-54.75C321.72,-47.03 310.07,-35.6 300.58,-26.28"/>
<polygon fill="#63b8ff" stroke="#63b8ff" points="302.84,-23.6 293.25,-19.09 297.94,-28.59 302.84,-23.6"/>
</a>
</g>
</g>
<!-- Node10 -->
<g id="Node000010" class="node">
<title>Node10</title>
<g id="a_Node000010"><a xlink:title=" ">
<polygon fill="#e0e0e0" stroke="#999999" points="379.5,-19 327.5,-19 327.5,0 379.5,0 379.5,-19"/>
<text text-anchor="middle" x="353.5" y="-7" font-family="Arial" font-size="10.00">sstream</text>
</a>
</g>
</g>
<!-- Node7&#45;&gt;Node10 -->
<g id="edge9_Node000007_Node000010" class="edge">
<title>Node7&#45;&gt;Node10</title>
<g id="a_edge9_Node000007_Node000010"><a xlink:title=" ">
<path fill="none" stroke="#63b8ff" d="M340.98,-54.75C342.96,-47.72 345.82,-37.62 348.31,-28.84"/>
<polygon fill="#63b8ff" stroke="#63b8ff" points="351.71,-29.66 351.07,-19.09 344.98,-27.76 351.71,-29.66"/>
</a>
</g>
</g>
<!-- Node7&#45;&gt;Node11 -->
<g id="edge11_Node000007_Node000011" class="edge">
<title>Node7&#45;&gt;Node11</title>
<g id="a_edge11_Node000007_Node000011"><a xlink:title=" ">
<path fill="none" stroke="#63b8ff" d="M361.52,-55.68C388.32,-46.57 432.75,-31.48 462.8,-21.27"/>
<polygon fill="#63b8ff" stroke="#63b8ff" points="464.05,-24.54 472.4,-18.01 461.8,-17.91 464.05,-24.54"/>
</a>
</g>
</g>
<!-- Node12&#45;&gt;Node3 -->
<g id="edge21_Node000012_Node000003" class="edge">
<title>Node12&#45;&gt;Node3</title>
<g id="a_edge21_Node000012_Node000003"><a xlink:title=" ">
<path fill="none" stroke="#63b8ff" d="M243.77,-109.79C241.25,-97.48 236.24,-74.33 230.5,-55 227.9,-46.24 224.54,-36.69 221.57,-28.69"/>
<polygon fill="#63b8ff" stroke="#63b8ff" points="224.81,-27.37 217.99,-19.27 218.27,-29.86 224.81,-27.37"/>
</a>
</g>
</g>
<!-- Node12&#45;&gt;Node7 -->
<g id="edge14_Node000012_Node000007" class="edge">
<title>Node12&#45;&gt;Node7</title>
<g id="a_edge14_Node000012_Node000007"><a xlink:title=" ">
<path fill="none" stroke="#63b8ff" d="M260.44,-109.98C275,-101.69 297.37,-88.94 314.43,-79.22"/>
<polygon fill="#63b8ff" stroke="#63b8ff" points="316.33,-82.16 323.29,-74.17 312.86,-76.08 316.33,-82.16"/>
</a>
</g>
</g>
<!-- Node12&#45;&gt;Node11 -->
<g id="edge22_Node000012_Node000011" class="edge">
<title>Node12&#45;&gt;Node11</title>
<g id="a_edge22_Node000012_Node000011"><a xlink:title=" ">
<path fill="none" stroke="#63b8ff" d="M251.47,-109.57C261.25,-95.65 282.08,-68.95 306.5,-55 319.99,-47.29 412.47,-27.42 462.51,-17.04"/>
<polygon fill="#63b8ff" stroke="#63b8ff" points="463.41,-20.43 472.49,-14.98 461.99,-13.57 463.41,-20.43"/>
</a>
</g>
</g>
<!-- Node13 -->
<g id="Node000013" class="node">
<title>Node13</title>
<g id="a_Node000013"><a xlink:href="parallelUtil_8h.html" target="_top" xlink:title=" ">
<polygon fill="white" stroke="#666666" points="115,-74 44,-74 44,-55 115,-55 115,-74"/>
<text text-anchor="middle" x="79.5" y="-62" font-family="Arial" font-size="10.00">parallelUtil.h</text>
</a>
</g>
</g>
<!-- Node12&#45;&gt;Node13 -->
<g id="edge15_Node000012_Node000013" class="edge">
<title>Node12&#45;&gt;Node13</title>
<g id="a_edge15_Node000012_Node000013"><a xlink:title=" ">
<path fill="none" stroke="#63b8ff" d="M229.28,-113.32C203.29,-105.02 151.66,-88.54 116.36,-77.27"/>
<polygon fill="#63b8ff" stroke="#63b8ff" points="117.01,-73.8 106.42,-74.1 114.88,-80.47 117.01,-73.8"/>
</a>
</g>
</g>
<!-- Node17 -->
<g id="Node000017" class="node">
<title>Node17</title>
<g id="a_Node000017"><a xlink:title=" ">
<polygon fill="#e0e0e0" stroke="#999999" points="221.5,-74 171.5,-74 171.5,-55 221.5,-55 221.5,-74"/>
<text text-anchor="middle" x="196.5" y="-62" font-family="Arial" font-size="10.00">fstream</text>
</a>
</g>
</g>
<!-- Node12&#45;&gt;Node17 -->
<g id="edge20_Node000012_Node000017" class="edge">
<title>Node12&#45;&gt;Node17</title>
<g id="a_edge20_Node000012_Node000017"><a xlink:title=" ">
<path fill="none" stroke="#63b8ff" d="M237.41,-109.75C230.34,-102.11 219.91,-90.82 211.35,-81.56"/>
<polygon fill="#63b8ff" stroke="#63b8ff" points="213.8,-79.06 204.44,-74.09 208.66,-83.81 213.8,-79.06"/>
</a>
</g>
</g>
<!-- Node18 -->
<g id="Node000018" class="node">
<title>Node18</title>
<g id="a_Node000018"><a xlink:title=" ">
<polygon fill="#e0e0e0" stroke="#999999" points="473.5,-74 417.5,-74 417.5,-55 473.5,-55 473.5,-74"/>
<text text-anchor="middle" x="445.5" y="-62" font-family="Arial" font-size="10.00">algorithm</text>
</a>
</g>
</g>
<!-- Node12&#45;&gt;Node18 -->
<g id="edge23_Node000012_Node000018" class="edge">
<title>Node12&#45;&gt;Node18</title>
<g id="a_edge23_Node000012_Node000018"><a xlink:title=" ">
<path fill="none" stroke="#63b8ff" d="M261.53,-114.25C293,-105.91 363.64,-87.19 407.66,-75.53"/>
<polygon fill="#63b8ff" stroke="#63b8ff" points="408.66,-78.88 417.43,-72.94 406.87,-72.12 408.66,-78.88"/>
</a>
</g>
</g>
<!-- Node13&#45;&gt;Node11 -->
<g id="edge18_Node000013_Node000011" class="edge">
<title>Node13&#45;&gt;Node11</title>
<g id="a_edge18_Node000013_Node000011"><a xlink:title=" ">
<path fill="none" stroke="#63b8ff" d="M115.19,-59.55C195.07,-50.65 386.25,-29.05 450.5,-19 454.26,-18.41 458.18,-17.74 462.08,-17.04"/>
<polygon fill="#63b8ff" stroke="#63b8ff" points="462.99,-20.42 472.17,-15.13 461.7,-13.55 462.99,-20.42"/>
</a>
</g>
</g>
<!-- Node14 -->
<g id="Node000014" class="node">
<title>Node14</title>
<g id="a_Node000014"><a xlink:title=" ">
<polygon fill="#e0e0e0" stroke="#999999" points="41,-19 0,-19 0,0 41,0 41,-19"/>
<text text-anchor="middle" x="20.5" y="-7" font-family="Arial" font-size="10.00">mpi.h</text>
</a>
</g>
</g>
<!-- Node13&#45;&gt;Node14 -->
<g id="edge16_Node000013_Node000014" class="edge">
<title>Node13&#45;&gt;Node14</title>
<g id="a_edge16_Node000013_Node000014"><a xlink:title=" ">
<path fill="none" stroke="#63b8ff" d="M70.02,-54.98C61.3,-47.15 48.16,-35.34 37.6,-25.86"/>
<polygon fill="#63b8ff" stroke="#63b8ff" points="39.93,-23.25 30.15,-19.17 35.25,-28.46 39.93,-23.25"/>
</a>
</g>
</g>
<!-- Node15 -->
<g id="Node000015" class="node">
<title>Node15</title>
<g id="a_Node000015"><a xlink:title=" ">
<polygon fill="#e0e0e0" stroke="#999999" points="100,-19 59,-19 59,0 100,0 100,-19"/>
<text text-anchor="middle" x="79.5" y="-7" font-family="Arial" font-size="10.00">string</text>
</a>
</g>
</g>
<!-- Node13&#45;&gt;Node15 -->
<g id="edge17_Node000013_Node000015" class="edge">
<title>Node13&#45;&gt;Node15</title>
<g id="a_edge17_Node000013_Node000015"><a xlink:title=" ">
<path fill="none" stroke="#63b8ff" d="M79.5,-54.75C79.5,-47.8 79.5,-37.85 79.5,-29.13"/>
<polygon fill="#63b8ff" stroke="#63b8ff" points="83,-29.09 79.5,-19.09 76,-29.09 83,-29.09"/>
</a>
</g>
</g>
<!-- Node16 -->
<g id="Node000016" class="node">
<title>Node16</title>
<g id="a_Node000016"><a xlink:title=" ">
<polygon fill="#e0e0e0" stroke="#999999" points="162.5,-19 118.5,-19 118.5,0 162.5,0 162.5,-19"/>
<text text-anchor="middle" x="140.5" y="-7" font-family="Arial" font-size="10.00">thread</text>
</a>
</g>
</g>
<!-- Node13&#45;&gt;Node16 -->
<g id="edge19_Node000013_Node000016" class="edge">
<title>Node13&#45;&gt;Node16</title>
<g id="a_edge19_Node000013_Node000016"><a xlink:title=" ">
<path fill="none" stroke="#63b8ff" d="M89.3,-54.98C98.32,-47.15 111.91,-35.34 122.82,-25.86"/>
<polygon fill="#63b8ff" stroke="#63b8ff" points="125.27,-28.37 130.52,-19.17 120.68,-23.09 125.27,-28.37"/>
</a>
</g>
</g>
<!-- Node19&#45;&gt;Node7 -->
<g id="edge26_Node000019_Node000007" class="edge">
<title>Node19&#45;&gt;Node7</title>
<g id="a_edge26_Node000019_Node000007"><a xlink:title=" ">
<path fill="none" stroke="#63b8ff" d="M357.7,-109.75C354.59,-102.57 350.08,-92.18 346.21,-83.27"/>
<polygon fill="#63b8ff" stroke="#63b8ff" points="349.42,-81.87 342.23,-74.09 343,-84.66 349.42,-81.87"/>
</a>
</g>
</g>
<!-- Node19&#45;&gt;Node11 -->
<g id="edge27_Node000019_Node000011" class="edge">
<title>Node19&#45;&gt;Node11</title>
<g id="a_edge27_Node000019_Node000011"><a xlink:title=" ">
<path fill="none" stroke="#63b8ff" d="M366.25,-109.71C373.76,-96.45 389.5,-71.19 408.5,-55 424.55,-41.33 445.51,-30.38 462.72,-22.76"/>
<polygon fill="#63b8ff" stroke="#63b8ff" points="464.52,-25.79 472.35,-18.66 461.78,-19.35 464.52,-25.79"/>
</a>
</g>
</g>
<!-- Node20&#45;&gt;Node7 -->
<g id="edge30_Node000020_Node000007" class="edge">
<title>Node20&#45;&gt;Node7</title>
<g id="a_edge30_Node000020_Node000007"><a xlink:title=" ">
<path fill="none" stroke="#63b8ff" d="M499.8,-111.46C466.74,-102.04 408.02,-85.31 371.28,-74.84"/>
<polygon fill="#63b8ff" stroke="#63b8ff" points="372.12,-71.44 361.54,-72.07 370.2,-78.17 372.12,-71.44"/>
</a>
</g>
</g>
<!-- Node20&#45;&gt;Node11 -->
<g id="edge31_Node000020_Node000011" class="edge">
<title>Node20&#45;&gt;Node11</title>
<g id="a_edge31_Node000020_Node000011"><a xlink:title=" ">
<path fill="none" stroke="#63b8ff" d="M524.09,-109.7C523.31,-97.27 521.18,-73.99 515.5,-55 512.74,-45.79 508.35,-36.08 504.3,-28.09"/>
<polygon fill="#63b8ff" stroke="#63b8ff" points="507.28,-26.24 499.49,-19.06 501.1,-29.53 507.28,-26.24"/>
</a>
</g>
</g>
<!-- Node21&#45;&gt;Node7 -->
<g id="edge33_Node000021_Node000007" class="edge">
<title>Node21&#45;&gt;Node7</title>
<g id="a_edge33_Node000021_Node000007"><a xlink:title=" ">
<path fill="none" stroke="#63b8ff" d="M635.35,-113.47C573.39,-103.46 435.23,-81.13 371.66,-70.86"/>
<polygon fill="#63b8ff" stroke="#63b8ff" points="372.2,-67.4 361.77,-69.26 371.08,-74.31 372.2,-67.4"/>
</a>
</g>
</g>
<!-- Node21&#45;&gt;Node11 -->
<g id="edge36_Node000021_Node000011" class="edge">
<title>Node21&#45;&gt;Node11</title>
<g id="a_edge36_Node000021_Node000011"><a xlink:title=" ">
<path fill="none" stroke="#63b8ff" d="M657.89,-109.83C644.56,-96.73 617.7,-71.66 591.5,-55 570.77,-41.82 545.49,-30.35 525.94,-22.36"/>
<polygon fill="#63b8ff" stroke="#63b8ff" points="527.15,-19.08 516.57,-18.62 524.55,-25.58 527.15,-19.08"/>
</a>
</g>
</g>
<!-- Node21&#45;&gt;Node18 -->
<g id="edge39_Node000021_Node000018" class="edge">
<title>Node21&#45;&gt;Node18</title>
<g id="a_edge39_Node000021_Node000018"><a xlink:title=" ">
<path fill="none" stroke="#63b8ff" d="M635.3,-111.02C595.43,-101.46 526.44,-84.91 483.53,-74.62"/>
<polygon fill="#63b8ff" stroke="#63b8ff" points="484.28,-71.2 473.74,-72.27 482.65,-78.01 484.28,-71.2"/>
</a>
</g>
</g>
<!-- Node22 -->
<g id="Node000022" class="node">
<title>Node22</title>
<g id="a_Node000022"><a xlink:title=" ">
<polygon fill="#e0e0e0" stroke="#999999" points="876.5,-74 830.5,-74 830.5,-55 876.5,-55 876.5,-74"/>
<text text-anchor="middle" x="853.5" y="-62" font-family="Arial" font-size="10.00">cstdint</text>
</a>
</g>
</g>
<!-- Node21&#45;&gt;Node22 -->
<g id="edge34_Node000021_Node000022" class="edge">
<title>Node21&#45;&gt;Node22</title>
<g id="a_edge34_Node000021_Node000022"><a xlink:title=" ">
<path fill="none" stroke="#63b8ff" d="M696.54,-109.98C730.47,-100.37 785.49,-84.78 820.56,-74.84"/>
<polygon fill="#63b8ff" stroke="#63b8ff" points="821.66,-78.16 830.32,-72.07 819.75,-71.43 821.66,-78.16"/>
</a>
</g>
</g>
<!-- Node23 -->
<g id="Node000023" class="node">
<title>Node23</title>
<g id="a_Node000023"><a xlink:title=" ">
<polygon fill="#e0e0e0" stroke="#999999" points="940.5,-74 894.5,-74 894.5,-55 940.5,-55 940.5,-74"/>
<text text-anchor="middle" x="917.5" y="-62" font-family="Arial" font-size="10.00">cstring</text>
</a>
</g>
</g>
<!-- Node21&#45;&gt;Node23 -->
<g id="edge35_Node000021_Node000023" class="edge">
<title>Node21&#45;&gt;Node23</title>
<g id="a_edge35_Node000021_Node000023"><a xlink:title=" ">
<path fill="none" stroke="#63b8ff" d="M697.82,-112.74C738.6,-105.11 812.33,-90.86 884.73,-74.07"/>
<polygon fill="#63b8ff" stroke="#63b8ff" points="885.53,-77.48 894.47,-71.79 883.93,-70.66 885.53,-77.48"/>
</a>
</g>
</g>
<!-- Node24 -->
<g id="Node000024" class="node">
<title>Node24</title>
<g id="a_Node000024"><a xlink:title=" ">
<polygon fill="#e0e0e0" stroke="#999999" points="689.5,-74 643.5,-74 643.5,-55 689.5,-55 689.5,-74"/>
<text text-anchor="middle" x="666.5" y="-62" font-family="Arial" font-size="10.00">chrono</text>
</a>
</g>
</g>
<!-- Node21&#45;&gt;Node24 -->
<g id="edge37_Node000021_Node000024" class="edge">
<title>Node21&#45;&gt;Node24</title>
<g id="a_edge37_Node000021_Node000024"><a xlink:title=" ">
<path fill="none" stroke="#63b8ff" d="M666.5,-109.75C666.5,-102.8 666.5,-92.85 666.5,-84.13"/>
<polygon fill="#63b8ff" stroke="#63b8ff" points="670,-84.09 666.5,-74.09 663,-84.09 670,-84.09"/>
</a>
</g>
</g>
<!-- Node25 -->
<g id="Node000025" class="node">
<title>Node25</title>
<g id="a_Node000025"><a xlink:title=" ">
<polygon fill="#e0e0e0" stroke="#999999" points="759,-74 708,-74 708,-55 759,-55 759,-74"/>
<text text-anchor="middle" x="733.5" y="-62" font-family="Arial" font-size="10.00">numeric</text>
</a>
</g>
</g>
<!-- Node21&#45;&gt;Node25 -->
<g id="edge38_Node000021_Node000025" class="edge">
<title>Node21&#45;&gt;Node25</title>
<g id="a_edge38_Node000021_Node000025"><a xlink:title=" ">
<path fill="none" stroke="#63b8ff" d="M677.26,-109.98C687.27,-102.07 702.39,-90.11 714.43,-80.58"/>
<polygon fill="#63b8ff" stroke="#63b8ff" points="716.87,-83.12 722.54,-74.17 712.53,-77.63 716.87,-83.12"/>
</a>
</g>
</g>
<!-- Node26 -->
<g id="Node000026" class="node">
<title>Node26</title>
<g id="a_Node000026"><a xlink:title=" ">
<polygon fill="#e0e0e0" stroke="#999999" points="812,-74 777,-74 777,-55 812,-55 812,-74"/>
<text text-anchor="middle" x="794.5" y="-62" font-family="Arial" font-size="10.00">map</text>
</a>
</g>
</g>
<!-- Node21&#45;&gt;Node26 -->
<g id="edge40_Node000021_Node000026" class="edge">
<title>Node21&#45;&gt;Node26</title>
<g id="a_edge40_Node000021_Node000026"><a xlink:title=" ">
<path fill="none" stroke="#63b8ff" d="M687.07,-109.98C708.93,-100.93 743.6,-86.58 767.61,-76.63"/>
<polygon fill="#63b8ff" stroke="#63b8ff" points="768.97,-79.86 776.87,-72.8 766.29,-73.39 768.97,-79.86"/>
</a>
</g>
</g>
</g>
</svg>
