<?xml version="1.0" encoding="UTF-8" standalone="no"?>
<!DOCTYPE svg PUBLIC "-//W3C//DTD SVG 1.1//EN"
 "http://www.w3.org/Graphics/SVG/1.1/DTD/svg11.dtd">
<!-- Generated by graphviz version 2.43.0 (0)
 -->
<!-- Title: /home/user/project/src/util/geomObjects.h Pages: 1 -->
<svg width="584pt" height="203pt"
 viewBox="0.00 0.00 584.00 203.00" xmlns="http://www.w3.org/2000/svg" xmlns:xlink="http://www.w3.org/1999/xlink">
<g id="graph0" class="graph" transform="scale(1 1) rotate(0) translate(4 199)">
<title>/home/user/project/src/util/geomObjects.h</title>
<!-- Node1 -->
<g id="Node000001" class="node">
<title>Node1</title>
<g id="a_Node000001"><a xlink:title=" ">
<polygon fill="#999999" stroke="#666666" points="309,-195 191,-195 191,-165 309,-165 309,-195"/>
<text text-anchor="start" x="199" y="-183" font-family="Arial" font-size="10.00">/home/user/project</text>
<text text-anchor="middle" x="250" y="-172" font-family="Arial" font-size="10.00">/src/util/geomObjects.h</text>
</a>
</g>
</g>
<!-- Node2 -->
<g id="Node000002" class="node">
<title>Node2</title>
<g id="a_Node000002"><a xlink:title=" ">
<polygon fill="#e0e0e0" stroke="#999999" points="54,-19 0,-19 0,0 54,0 54,-19"/>
<text text-anchor="middle" x="27" y="-7" font-family="Arial" font-size="10.00">iostream</text>
</a>
</g>
</g>
<!-- Node1&#45;&gt;Node2 -->
<g id="edge1_Node000001_Node000002" class="edge">
<title>Node1&#45;&gt;Node2</title>
<g id="a_edge1_Node000001_Node000002"><a xlink:title=" ">
<path fill="none" stroke="#63b8ff" d="M190.86,-169.49C160.89,-162.32 125.36,-149.98 99,-129 65.22,-102.11 43.43,-54.72 33.41,-28.77"/>
<polygon fill="#63b8ff" stroke="#63b8ff" points="36.58,-27.25 29.84,-19.08 30.01,-29.67 36.58,-27.25"/>
</a>
</g>
</g>
<!-- Node3 -->
<g id="Node000003" class="node">
<title>Node3</title>
<g id="a_Node000003"><a xlink:title=" ">
<polygon fill="#e0e0e0" stroke="#999999" points="388,-129 348,-129 348,-110 388,-110 388,-129"/>
<text text-anchor="middle" x="368" y="-117" font-family="Arial" font-size="10.00">utility</text>
</a>
</g>
</g>
<!-- Node1&#45;&gt;Node3 -->
<g id="edge2_Node000001_Node000003" class="edge">
<title>Node1&#45;&gt;Node3</title>
<g id="a_edge2_Node000001_Node000003"><a xlink:title=" ">
<path fill="none" stroke="#63b8ff" d="M278.26,-164.99C297.42,-155.49 322.58,-143.02 341.39,-133.69"/>
<polygon fill="#63b8ff" stroke="#63b8ff" points="343.17,-136.72 350.57,-129.14 340.06,-130.45 343.17,-136.72"/>
</a>
</g>
</g>
<!-- Node4 -->
<g id="Node000004" class="node">
<title>Node4</title>
<g id="a_Node000004"><a xlink:title=" ">
<polygon fill="#e0e0e0" stroke="#999999" points="458,-129 406,-129 406,-110 458,-110 458,-129"/>
<text text-anchor="middle" x="432" y="-117" font-family="Arial" font-size="10.00">memory</text>
</a>
</g>
</g>
<!-- Node1&#45;&gt;Node4 -->
<g id="edge3_Node000001_Node000004" class="edge">
<title>Node1&#45;&gt;Node4</title>
<g id="a_edge3_Node000001_Node000004"><a xlink:title=" ">
<path fill="none" stroke="#63b8ff" d="M293.59,-164.99C324.92,-154.92 366.64,-141.51 396.06,-132.05"/>
<polygon fill="#63b8ff" stroke="#63b8ff" points="397.47,-135.28 405.92,-128.88 395.33,-128.61 397.47,-135.28"/>
</a>
</g>
</g>
<!-- Node5 -->
<g id="Node000005" class="node">
<title>Node5</title>
<g id="a_Node000005"><a xlink:href="function_8h.html" target="_top" xlink:title=" ">
<polygon fill="white" stroke="#666666" points="279.5,-129 220.5,-129 220.5,-110 279.5,-110 279.5,-129"/>
<text text-anchor="middle" x="250" y="-117" font-family="Arial" font-size="10.00">function.h</text>
</a>
</g>
</g>
<!-- Node1&#45;&gt;Node5 -->
<g id="edge4_Node000001_Node000005" class="edge">
<title>Node1&#45;&gt;Node5</title>
<g id="a_edge4_Node000001_Node000005"><a xlink:title=" ">
<path fill="none" stroke="#63b8ff" d="M250,-164.84C250,-157.21 250,-147.7 250,-139.45"/>
<polygon fill="#63b8ff" stroke="#63b8ff" points="253.5,-139.27 250,-129.27 246.5,-139.27 253.5,-139.27"/>
</a>
</g>
</g>
<!-- Node6 -->
<g id="Node000006" class="node">
<title>Node6</title>
<g id="a_Node000006"><a xlink:href="point_8h.html" target="_top" xlink:title=" ">
<polygon fill="white" stroke="#666666" points="182,-74 136,-74 136,-55 182,-55 182,-74"/>
<text text-anchor="middle" x="159" y="-62" font-family="Arial" font-size="10.00">point.h</text>
</a>
</g>
</g>
<!-- Node1&#45;&gt;Node6 -->
<g id="edge23_Node000001_Node000006" class="edge">
<title>Node1&#45;&gt;Node6</title>
<g id="a_edge23_Node000001_Node000006"><a xlink:title=" ">
<path fill="none" stroke="#63b8ff" d="M190.9,-174.37C160.24,-168.61 125.25,-156.06 106,-129 93.3,-111.14 114.58,-92.01 133.84,-79.46"/>
<polygon fill="#63b8ff" stroke="#63b8ff" points="135.73,-82.41 142.42,-74.19 132.06,-76.45 135.73,-82.41"/>
</a>
</g>
</g>
<!-- Node11 -->
<g id="Node000011" class="node">
<title>Node11</title>
<g id="a_Node000011"><a xlink:href="io_8h.html" target="_top" xlink:title=" ">
<polygon fill="white" stroke="#666666" points="330,-129 298,-129 298,-110 330,-110 330,-129"/>
<text text-anchor="middle" x="314" y="-117" font-family="Arial" font-size="10.00">io.h</text>
</a>
</g>
</g>
<!-- Node1&#45;&gt;Node11 -->
<g id="edge12_Node000001_Node000011" class="edge">
<title>Node1&#45;&gt;Node11</title>
<g id="a_edge12_Node000001_Node000011"><a xlink:title=" ">
<path fill="none" stroke="#63b8ff" d="M265.49,-164.84C274.97,-156.17 287.11,-145.08 296.88,-136.15"/>
<polygon fill="#63b8ff" stroke="#63b8ff" points="299.39,-138.6 304.41,-129.27 294.67,-133.43 299.39,-138.6"/>
</a>
</g>
</g>
<!-- Node18 -->
<g id="Node000018" class="node">
<title>Node18</title>
<g id="a_Node000018"><a xlink:href="transformation_8h.html" target="_top" xlink:title=" ">
<polygon fill="white" stroke="#666666" points="202.5,-129 115.5,-129 115.5,-110 202.5,-110 202.5,-129"/>
<text text-anchor="middle" x="159" y="-117" font-family="Arial" font-size="10.00">transformation.h</text>
</a>
</g>
</g>
<!-- Node1&#45;&gt;Node18 -->
<g id="edge24_Node000001_Node000018" class="edge">
<title>Node1&#45;&gt;Node18</title>
<g id="a_edge24_Node000001_Node000018"><a xlink:title=" ">
<path fill="none" stroke="#63b8ff" d="M227.97,-164.84C213.73,-155.68 195.27,-143.82 181.03,-134.66"/>
<polygon fill="#63b8ff" stroke="#63b8ff" points="182.67,-131.56 172.37,-129.09 178.89,-137.45 182.67,-131.56"/>
</a>
</g>
</g>
<!-- Node5&#45;&gt;Node6 -->
<g id="edge5_Node000005_Node000006" class="edge">
<title>Node5&#45;&gt;Node6</title>
<g id="a_edge5_Node000005_Node000006"><a xlink:title=" ">
<path fill="none" stroke="#63b8ff" d="M235.38,-109.98C221.14,-101.69 199.25,-88.94 182.55,-79.22"/>
<polygon fill="#63b8ff" stroke="#63b8ff" points="184.29,-76.18 173.89,-74.17 180.77,-82.23 184.29,-76.18"/>
</a>
</g>
</g>
<!-- Node10 -->
<g id="Node000010" class="node">
<title>Node10</title>
<g id="a_Node000010"><a xlink:title=" ">
<polygon fill="#e0e0e0" stroke="#999999" points="316,-19 272,-19 272,0 316,0 316,-19"/>
<text text-anchor="middle" x="294" y="-7" font-family="Arial" font-size="10.00">vector</text>
</a>
</g>
</g>
<!-- Node5&#45;&gt;Node10 -->
<g id="edge11_Node000005_Node000010" class="edge">
<title>Node5&#45;&gt;Node10</title>
<g id="a_edge11_Node000005_Node000010"><a xlink:title=" ">
<path fill="none" stroke="#63b8ff" d="M253.6,-109.66C260.79,-92.01 277.06,-52.09 286.61,-28.64"/>
<polygon fill="#63b8ff" stroke="#63b8ff" points="289.94,-29.74 290.47,-19.16 283.46,-27.1 289.94,-29.74"/>
</a>
</g>
</g>
<!-- Node6&#45;&gt;Node2 -->
<g id="edge9_Node000006_Node000002" class="edge">
<title>Node6&#45;&gt;Node2</title>
<g id="a_edge9_Node000006_Node000002"><a xlink:title=" ">
<path fill="none" stroke="#63b8ff" d="M137.79,-54.98C116.27,-46.34 82.72,-32.87 58.17,-23.02"/>
<polygon fill="#63b8ff" stroke="#63b8ff" points="59.18,-19.65 48.59,-19.17 56.57,-26.14 59.18,-19.65"/>
</a>
</g>
</g>
<!-- Node7 -->
<g id="Node000007" class="node">
<title>Node7</title>
<g id="a_Node000007"><a xlink:title=" ">
<polygon fill="#e0e0e0" stroke="#999999" points="116,-19 72,-19 72,0 116,0 116,-19"/>
<text text-anchor="middle" x="94" y="-7" font-family="Arial" font-size="10.00">cmath</text>
</a>
</g>
</g>
<!-- Node6&#45;&gt;Node7 -->
<g id="edge6_Node000006_Node000007" class="edge">
<title>Node6&#45;&gt;Node7</title>
<g id="a_edge6_Node000006_Node000007"><a xlink:title=" ">
<path fill="none" stroke="#63b8ff" d="M148.56,-54.98C138.85,-47.07 124.18,-35.11 112.5,-25.58"/>
<polygon fill="#63b8ff" stroke="#63b8ff" points="114.6,-22.78 104.63,-19.17 110.17,-28.2 114.6,-22.78"/>
</a>
</g>
</g>
<!-- Node8 -->
<g id="Node000008" class="node">
<title>Node8</title>
<g id="a_Node000008"><a xlink:title=" ">
<polygon fill="#e0e0e0" stroke="#999999" points="184,-19 134,-19 134,0 184,0 184,-19"/>
<text text-anchor="middle" x="159" y="-7" font-family="Arial" font-size="10.00">iomanip</text>
</a>
</g>
</g>
<!-- Node6&#45;&gt;Node8 -->
<g id="edge7_Node000006_Node000008" class="edge">
<title>Node6&#45;&gt;Node8</title>
<g id="a_edge7_Node000006_Node000008"><a xlink:title=" ">
<path fill="none" stroke="#63b8ff" d="M159,-54.75C159,-47.8 159,-37.85 159,-29.13"/>
<polygon fill="#63b8ff" stroke="#63b8ff" points="162.5,-29.09 159,-19.09 155.5,-29.09 162.5,-29.09"/>
</a>
</g>
</g>
<!-- Node9 -->
<g id="Node000009" class="node">
<title>Node9</title>
<g id="a_Node000009"><a xlink:title=" ">
<polygon fill="#e0e0e0" stroke="#999999" points="254,-19 202,-19 202,0 254,0 254,-19"/>
<text text-anchor="middle" x="228" y="-7" font-family="Arial" font-size="10.00">sstream</text>
</a>
</g>
</g>
<!-- Node6&#45;&gt;Node9 -->
<g id="edge8_Node000006_Node000009" class="edge">
<title>Node6&#45;&gt;Node9</title>
<g id="a_edge8_Node000006_Node000009"><a xlink:title=" ">
<path fill="none" stroke="#63b8ff" d="M170.09,-54.98C180.49,-47 196.26,-34.88 208.72,-25.31"/>
<polygon fill="#63b8ff" stroke="#63b8ff" points="210.91,-28.04 216.71,-19.17 206.65,-22.49 210.91,-28.04"/>
</a>
</g>
</g>
<!-- Node6&#45;&gt;Node10 -->
<g id="edge10_Node000006_Node000010" class="edge">
<title>Node6&#45;&gt;Node10</title>
<g id="a_edge10_Node000006_Node000010"><a xlink:title=" ">
<path fill="none" stroke="#63b8ff" d="M180.69,-54.98C202.8,-46.3 237.32,-32.75 262.45,-22.88"/>
<polygon fill="#63b8ff" stroke="#63b8ff" points="263.89,-26.08 271.92,-19.17 261.33,-19.57 263.89,-26.08"/>
</a>
</g>
</g>
<!-- Node11&#45;&gt;Node2 -->
<g id="edge20_Node000011_Node000002" class="edge">
<title>Node11&#45;&gt;Node2</title>
<g id="a_edge20_Node000011_Node000002"><a xlink:title=" ">
<path fill="none" stroke="#63b8ff" d="M297.94,-112.75C294.99,-111.78 291.91,-110.82 289,-110 217.98,-90.1 195.16,-102.19 127,-74 96.51,-61.39 64.96,-39.65 45.66,-25.17"/>
<polygon fill="#63b8ff" stroke="#63b8ff" points="47.77,-22.38 37.7,-19.09 43.52,-27.94 47.77,-22.38"/>
</a>
</g>
</g>
<!-- Node11&#45;&gt;Node6 -->
<g id="edge13_Node000011_Node000006" class="edge">
<title>Node11&#45;&gt;Node6</title>
<g id="a_edge13_Node000011_Node000006"><a xlink:title=" ">
<path fill="none" stroke="#63b8ff" d="M298,-113.03C273.04,-104.49 224.35,-87.84 191.74,-76.69"/>
<polygon fill="#63b8ff" stroke="#63b8ff" points="192.77,-73.35 182.18,-73.43 190.51,-79.97 192.77,-73.35"/>
</a>
</g>
</g>
<!-- Node11&#45;&gt;Node10 -->
<g id="edge21_Node000011_Node000010" class="edge">
<title>Node11&#45;&gt;Node10</title>
<g id="a_edge21_Node000011_Node000010"><a xlink:title=" ">
<path fill="none" stroke="#63b8ff" d="M312.36,-109.66C309.12,-92.17 301.83,-52.8 297.48,-29.27"/>
<polygon fill="#63b8ff" stroke="#63b8ff" points="300.87,-28.35 295.6,-19.16 293.98,-29.63 300.87,-28.35"/>
</a>
</g>
</g>
<!-- Node12 -->
<g id="Node000012" class="node">
<title>Node12</title>
<g id="a_Node000012"><a xlink:href="parallelUtil_8h.html" target="_top" xlink:title=" ">
<polygon fill="white" stroke="#666666" points="528.5,-74 457.5,-74 457.5,-55 528.5,-55 528.5,-74"/>
<text text-anchor="middle" x="493" y="-62" font-family="Arial" font-size="10.00">parallelUtil.h</text>
</a>
</g>
</g>
<!-- Node11&#45;&gt;Node12 -->
<g id="edge14_Node000011_Node000012" class="edge">
<title>Node11&#45;&gt;Node12</title>
<g id="a_edge14_Node000011_Node000012"><a xlink:title=" ">
<path fill="none" stroke="#63b8ff" d="M330.1,-112.9C333.05,-111.91 336.11,-110.91 339,-110 377.21,-97.99 421.13,-85.42 452.27,-76.71"/>
<polygon fill="#63b8ff" stroke="#63b8ff" points="453.21,-80.08 461.9,-74.03 451.33,-73.34 453.21,-80.08"/>
</a>
</g>
</g>
<!-- Node16 -->
<g id="Node000016" class="node">
<title>Node16</title>
<g id="a_Node000016"><a xlink:title=" ">
<polygon fill="#e0e0e0" stroke="#999999" points="365,-74 315,-74 315,-55 365,-55 365,-74"/>
<text text-anchor="middle" x="340" y="-62" font-family="Arial" font-size="10.00">fstream</text>
</a>
</g>
</g>
<!-- Node11&#45;&gt;Node16 -->
<g id="edge19_Node000011_Node000016" class="edge">
<title>Node11&#45;&gt;Node16</title>
<g id="a_edge19_Node000011_Node000016"><a xlink:title=" ">
<path fill="none" stroke="#63b8ff" d="M318.29,-109.75C321.81,-102.57 326.91,-92.18 331.28,-83.27"/>
<polygon fill="#63b8ff" stroke="#63b8ff" points="334.52,-84.61 335.79,-74.09 328.24,-81.53 334.52,-84.61"/>
</a>
</g>
</g>
<!-- Node17 -->
<g id="Node000017" class="node">
<title>Node17</title>
<g id="a_Node000017"><a xlink:title=" ">
<polygon fill="#e0e0e0" stroke="#999999" points="439,-74 383,-74 383,-55 439,-55 439,-74"/>
<text text-anchor="middle" x="411" y="-62" font-family="Arial" font-size="10.00">algorithm</text>
</a>
</g>
</g>
<!-- Node11&#45;&gt;Node17 -->
<g id="edge22_Node000011_Node000017" class="edge">
<title>Node11&#45;&gt;Node17</title>
<g id="a_edge22_Node000011_Node000017"><a xlink:title=" ">
<path fill="none" stroke="#63b8ff" d="M329.58,-109.98C344.77,-101.69 368.1,-88.94 385.9,-79.22"/>
<polygon fill="#63b8ff" stroke="#63b8ff" points="388.03,-82.04 395.13,-74.17 384.68,-75.89 388.03,-82.04"/>
</a>
</g>
</g>
<!-- Node12&#45;&gt;Node10 -->
<g id="edge17_Node000012_Node000010" class="edge">
<title>Node12&#45;&gt;Node10</title>
<g id="a_edge17_Node000012_Node000010"><a xlink:title=" ">
<path fill="none" stroke="#63b8ff" d="M461.03,-54.98C423.87,-45.09 362.92,-28.86 325.83,-18.98"/>
<polygon fill="#63b8ff" stroke="#63b8ff" points="326.6,-15.56 316.04,-16.37 324.8,-22.32 326.6,-15.56"/>
</a>
</g>
</g>
<!-- Node13 -->
<g id="Node000013" class="node">
<title>Node13</title>
<g id="a_Node000013"><a xlink:title=" ">
<polygon fill="#e0e0e0" stroke="#999999" points="454.5,-19 413.5,-19 413.5,0 454.5,0 454.5,-19"/>
<text text-anchor="middle" x="434" y="-7" font-family="Arial" font-size="10.00">mpi.h</text>
</a>
</g>
</g>
<!-- Node12&#45;&gt;Node13 -->
<g id="edge15_Node000012_Node000013" class="edge">
<title>Node12&#45;&gt;Node13</title>
<g id="a_edge15_Node000012_Node000013"><a xlink:title=" ">
<path fill="none" stroke="#63b8ff" d="M483.52,-54.98C474.8,-47.15 461.66,-35.34 451.1,-25.86"/>
<polygon fill="#63b8ff" stroke="#63b8ff" points="453.43,-23.25 443.65,-19.17 448.75,-28.46 453.43,-23.25"/>
</a>
</g>
</g>
<!-- Node14 -->
<g id="Node000014" class="node">
<title>Node14</title>
<g id="a_Node000014"><a xlink:title=" ">
<polygon fill="#e0e0e0" stroke="#999999" points="513.5,-19 472.5,-19 472.5,0 513.5,0 513.5,-19"/>
<text text-anchor="middle" x="493" y="-7" font-family="Arial" font-size="10.00">string</text>
</a>
</g>
</g>
<!-- Node12&#45;&gt;Node14 -->
<g id="edge16_Node000012_Node000014" class="edge">
<title>Node12&#45;&gt;Node14</title>
<g id="a_edge16_Node000012_Node000014"><a xlink:title=" ">
<path fill="none" stroke="#63b8ff" d="M493,-54.75C493,-47.8 493,-37.85 493,-29.13"/>
<polygon fill="#63b8ff" stroke="#63b8ff" points="496.5,-29.09 493,-19.09 489.5,-29.09 496.5,-29.09"/>
</a>
</g>
</g>
<!-- Node15 -->
<g id="Node000015" class="node">
<title>Node15</title>
<g id="a_Node000015"><a xlink:title=" ">
<polygon fill="#e0e0e0" stroke="#999999" points="576,-19 532,-19 532,0 576,0 576,-19"/>
<text text-anchor="middle" x="554" y="-7" font-family="Arial" font-size="10.00">thread</text>
</a>
</g>
</g>
<!-- Node12&#45;&gt;Node15 -->
<g id="edge18_Node000012_Node000015" class="edge">
<title>Node12&#45;&gt;Node15</title>
<g id="a_edge18_Node000012_Node000015"><a xlink:title=" ">
<path fill="none" stroke="#63b8ff" d="M502.8,-54.98C511.82,-47.15 525.41,-35.34 536.32,-25.86"/>
<polygon fill="#63b8ff" stroke="#63b8ff" points="538.77,-28.37 544.02,-19.17 534.18,-23.09 538.77,-28.37"/>
</a>
</g>
</g>
<!-- Node18&#45;&gt;Node6 -->
<g id="edge25_Node000018_Node000006" class="edge">
<title>Node18&#45;&gt;Node6</title>
<g id="a_edge25_Node000018_Node000006"><a xlink:title=" ">
<path fill="none" stroke="#63b8ff" d="M159,-109.75C159,-102.8 159,-92.85 159,-84.13"/>
<polygon fill="#63b8ff" stroke="#63b8ff" points="162.5,-84.09 159,-74.09 155.5,-84.09 162.5,-84.09"/>
</a>
</g>
</g>
<!-- Node18&#45;&gt;Node10 -->
<g id="edge26_Node000018_Node000010" class="edge">
<title>Node18&#45;&gt;Node10</title>
<g id="a_edge26_Node000018_Node000010"><a xlink:title=" ">
<path fill="none" stroke="#63b8ff" d="M170.05,-109.66C193.1,-91.22 246.57,-48.45 275.16,-25.57"/>
<polygon fill="#63b8ff" stroke="#63b8ff" points="277.55,-28.14 283.18,-19.16 273.18,-22.67 277.55,-28.14"/>
</a>
</g>
</g>
</g>
</svg>
