<?xml version="1.0" encoding="UTF-8" standalone="no"?>
<!DOCTYPE svg PUBLIC "-//W3C//DTD SVG 1.1//EN"
 "http://www.w3.org/Graphics/SVG/1.1/DTD/svg11.dtd">
<!-- Generated by graphviz version 2.43.0 (0)
 -->
<!-- Title: /home/user/project/src/material/mparticle/influenceFn.h Pages: 1 -->
<svg width="1331pt" height="407pt"
 viewBox="0.00 0.00 1331.00 407.00" xmlns="http://www.w3.org/2000/svg" xmlns:xlink="http://www.w3.org/1999/xlink">
<g id="graph0" class="graph" transform="scale(1 1) rotate(0) translate(4 403)">
<title>/home/user/project/src/material/mparticle/influenceFn.h</title>
<!-- Node1 -->
<g id="node1" class="node">
<title>Node1</title>
<g id="a_node1"><a xlink:title=" ">
<polygon fill="#bfbfbf" stroke="black" points="578.5,-357.5 578.5,-398.5 691.5,-398.5 691.5,-357.5 578.5,-357.5"/>
<text text-anchor="start" x="586.5" y="-386.5" font-family="Arial" font-size="10.00">/home/user/project</text>
<text text-anchor="start" x="586.5" y="-375.5" font-family="Arial" font-size="10.00">/src/material/mparticle</text>
<text text-anchor="middle" x="635" y="-364.5" font-family="Arial" font-size="10.00">/influenceFn.h</text>
</a>
</g>
</g>
<!-- Node2 -->
<g id="node2" class="node">
<title>Node2</title>
<g id="a_node2"><a xlink:href="material_8h.html" target="_top" xlink:title=" ">
<polygon fill="none" stroke="black" points="513.5,-279.5 513.5,-320.5 626.5,-320.5 626.5,-279.5 513.5,-279.5"/>
<text text-anchor="start" x="521.5" y="-308.5" font-family="Arial" font-size="10.00">/home/user/project</text>
<text text-anchor="start" x="521.5" y="-297.5" font-family="Arial" font-size="10.00">/src/material/mparticle</text>
<text text-anchor="middle" x="570" y="-286.5" font-family="Arial" font-size="10.00">/material.h</text>
</a>
</g>
</g>
<!-- Node1&#45;&gt;Node2 -->
<g id="edge1" class="edge">
<title>Node1&#45;&gt;Node2</title>
<path fill="none" stroke="midnightblue" d="M611.59,-349.63C603.35,-339.99 594.26,-329.36 586.68,-320.51"/>
<polygon fill="midnightblue" stroke="midnightblue" points="609.1,-352.1 618.26,-357.43 614.42,-347.55 609.1,-352.1"/>
</g>
<!-- Node21 -->
<g id="node18" class="node">
<title>Node21</title>
<g id="a_node18"><a xlink:href="influenceFn_8cpp.html" target="_top" xlink:title=" ">
<polygon fill="none" stroke="black" points="644.5,-279.5 644.5,-320.5 757.5,-320.5 757.5,-279.5 644.5,-279.5"/>
<text text-anchor="start" x="652.5" y="-308.5" font-family="Arial" font-size="10.00">/home/user/project</text>
<text text-anchor="start" x="652.5" y="-297.5" font-family="Arial" font-size="10.00">/src/material/mparticle</text>
<text text-anchor="middle" x="701" y="-286.5" font-family="Arial" font-size="10.00">/influenceFn.cpp</text>
</a>
</g>
</g>
<!-- Node1&#45;&gt;Node21 -->
<g id="edge30" class="edge">
<title>Node1&#45;&gt;Node21</title>
<path fill="none" stroke="midnightblue" d="M658.77,-349.63C667.14,-339.99 676.37,-329.36 684.06,-320.51"/>
<polygon fill="midnightblue" stroke="midnightblue" points="655.91,-347.58 652,-357.43 661.2,-352.17 655.91,-347.58"/>
</g>
<!-- Node3 -->
<g id="node3" class="node">
<title>Node3</title>
<g id="a_node3"><a xlink:href="modelData_8h.html" target="_top" xlink:title=" ">
<polygon fill="none" stroke="black" points="465.5,-212.5 465.5,-242.5 586.5,-242.5 586.5,-212.5 465.5,-212.5"/>
<text text-anchor="start" x="473.5" y="-230.5" font-family="Arial" font-size="10.00">/home/user/project</text>
<text text-anchor="middle" x="526" y="-219.5" font-family="Arial" font-size="10.00">/src/model/modelData.h</text>
</a>
</g>
</g>
<!-- Node2&#45;&gt;Node3 -->
<g id="edge2" class="edge">
<title>Node2&#45;&gt;Node3</title>
<path fill="none" stroke="midnightblue" d="M552.43,-270.85C546.45,-261.26 540.01,-250.94 534.98,-242.89"/>
<polygon fill="midnightblue" stroke="midnightblue" points="549.48,-272.73 557.74,-279.36 555.42,-269.03 549.48,-272.73"/>
</g>
<!-- Node9 -->
<g id="node9" class="node">
<title>Node9</title>
<g id="a_node9"><a xlink:href="materialUtil_8h.html" target="_top" xlink:title=" ">
<polygon fill="none" stroke="black" points="713.5,-78.5 713.5,-108.5 844.5,-108.5 844.5,-78.5 713.5,-78.5"/>
<text text-anchor="start" x="721.5" y="-96.5" font-family="Arial" font-size="10.00">/home/user/project</text>
<text text-anchor="middle" x="779" y="-85.5" font-family="Arial" font-size="10.00">/src/material/materialUtil.h</text>
</a>
</g>
</g>
<!-- Node2&#45;&gt;Node9 -->
<g id="edge27" class="edge">
<title>Node2&#45;&gt;Node9</title>
<path fill="none" stroke="midnightblue" d="M599.79,-272.6C627.13,-248.1 668.52,-210.34 703,-176 726.03,-153.06 751.56,-125.13 766.4,-108.64"/>
<polygon fill="midnightblue" stroke="midnightblue" points="597.24,-270.18 592.12,-279.46 601.91,-275.4 597.24,-270.18"/>
</g>
<!-- Node13 -->
<g id="node13" class="node">
<title>Node13</title>
<g id="a_node13"><a xlink:href="refParticle_8h.html" target="_top" xlink:title=" ">
<polygon fill="none" stroke="black" points="532.5,-145.5 532.5,-175.5 655.5,-175.5 655.5,-145.5 532.5,-145.5"/>
<text text-anchor="start" x="540.5" y="-163.5" font-family="Arial" font-size="10.00">/home/user/project</text>
<text text-anchor="middle" x="594" y="-152.5" font-family="Arial" font-size="10.00">/src/particle/refParticle.h</text>
</a>
</g>
</g>
<!-- Node2&#45;&gt;Node13 -->
<g id="edge28" class="edge">
<title>Node2&#45;&gt;Node13</title>
<path fill="none" stroke="midnightblue" d="M585.56,-270.33C589.43,-261.78 593.03,-252.23 595,-243 599.95,-219.75 597.98,-191.92 596.03,-175.53"/>
<polygon fill="midnightblue" stroke="midnightblue" points="582.34,-268.95 581.15,-279.48 588.65,-271.99 582.34,-268.95"/>
</g>
<!-- Node14 -->
<g id="node14" class="node">
<title>Node14</title>
<g id="a_node14"><a xlink:href="baseParticle_8h.html" target="_top" xlink:title=" ">
<polygon fill="none" stroke="red" points="409.5,-78.5 409.5,-108.5 542.5,-108.5 542.5,-78.5 409.5,-78.5"/>
<text text-anchor="start" x="417.5" y="-96.5" font-family="Arial" font-size="10.00">/home/user/project</text>
<text text-anchor="middle" x="476" y="-85.5" font-family="Arial" font-size="10.00">/src/particle/baseParticle.h</text>
</a>
</g>
</g>
<!-- Node2&#45;&gt;Node14 -->
<g id="edge29" class="edge">
<title>Node2&#45;&gt;Node14</title>
<path fill="none" stroke="midnightblue" d="M503.79,-281.15C485.11,-272.73 466.92,-260.53 456,-243 429.32,-200.16 454.56,-136.97 468.35,-108.87"/>
<polygon fill="midnightblue" stroke="midnightblue" points="502.69,-284.49 513.27,-285.11 505.39,-278.03 502.69,-284.49"/>
</g>
<!-- Node4 -->
<g id="node4" class="node">
<title>Node4</title>
<g id="a_node4"><a xlink:href="demModel_8h.html" target="_top" xlink:title=" ">
<polygon fill="none" stroke="black" points="946,-78.5 946,-108.5 1086,-108.5 1086,-78.5 946,-78.5"/>
<text text-anchor="start" x="954" y="-96.5" font-family="Arial" font-size="10.00">/home/user/project</text>
<text text-anchor="middle" x="1016" y="-85.5" font-family="Arial" font-size="10.00">/src/model/dem/demModel.h</text>
</a>
</g>
</g>
<!-- Node3&#45;&gt;Node4 -->
<g id="edge3" class="edge">
<title>Node3&#45;&gt;Node4</title>
<path fill="none" stroke="midnightblue" d="M587.68,-209.88C685.07,-183.65 872.71,-133.1 963.82,-108.56"/>
<polygon fill="midnightblue" stroke="midnightblue" points="586.72,-206.52 577.97,-212.5 588.54,-213.28 586.72,-206.52"/>
</g>
<!-- Node3&#45;&gt;Node9 -->
<g id="edge8" class="edge">
<title>Node3&#45;&gt;Node9</title>
<path fill="none" stroke="midnightblue" d="M584.19,-209.29C609.68,-200.77 639.52,-189.42 665,-176 702.03,-156.51 740.76,-126.42 762.19,-108.77"/>
<polygon fill="midnightblue" stroke="midnightblue" points="583.07,-205.98 574.66,-212.42 585.25,-212.63 583.07,-205.98"/>
</g>
<!-- Node12 -->
<g id="node12" class="node">
<title>Node12</title>
<g id="a_node12"><a xlink:href="modelData_8cpp.html" target="_top" xlink:title=" ">
<polygon fill="none" stroke="black" points="158.5,-6 158.5,-36 289.5,-36 289.5,-6 158.5,-6"/>
<text text-anchor="start" x="166.5" y="-24" font-family="Arial" font-size="10.00">/home/user/project</text>
<text text-anchor="middle" x="224" y="-13" font-family="Arial" font-size="10.00">/src/model/modelData.cpp</text>
</a>
</g>
</g>
<!-- Node3&#45;&gt;Node12 -->
<g id="edge13" class="edge">
<title>Node3&#45;&gt;Node12</title>
<path fill="none" stroke="midnightblue" d="M484.19,-208.08C465.34,-199.2 443.07,-187.9 424,-176 351.32,-130.64 273.01,-64.75 240.05,-36.14"/>
<polygon fill="midnightblue" stroke="midnightblue" points="482.88,-211.33 493.43,-212.37 485.83,-204.98 482.88,-211.33"/>
</g>
<!-- Node3&#45;&gt;Node13 -->
<g id="edge14" class="edge">
<title>Node3&#45;&gt;Node13</title>
<path fill="none" stroke="midnightblue" d="M548.17,-205.31C558.37,-195.56 570.19,-184.26 579.27,-175.58"/>
<polygon fill="midnightblue" stroke="midnightblue" points="545.57,-202.96 540.75,-212.4 550.4,-208.02 545.57,-202.96"/>
</g>
<!-- Node3&#45;&gt;Node14 -->
<g id="edge24" class="edge">
<title>Node3&#45;&gt;Node14</title>
<path fill="none" stroke="midnightblue" d="M517.01,-202.75C506.6,-175.29 489.82,-130.99 481.31,-108.52"/>
<polygon fill="midnightblue" stroke="midnightblue" points="513.83,-204.26 520.65,-212.37 520.38,-201.78 513.83,-204.26"/>
</g>
<!-- Node17 -->
<g id="node15" class="node">
<title>Node17</title>
<g id="a_node15"><a xlink:href="vtkParticleReader_8cpp.html" target="_top" xlink:title=" ">
<polygon fill="none" stroke="black" points="308,-6 308,-36 454,-36 454,-6 308,-6"/>
<text text-anchor="start" x="316" y="-24" font-family="Arial" font-size="10.00">/home/user/project</text>
<text text-anchor="middle" x="381" y="-13" font-family="Arial" font-size="10.00">/src/rw/vtkParticleReader.cpp</text>
</a>
</g>
</g>
<!-- Node3&#45;&gt;Node17 -->
<g id="edge25" class="edge">
<title>Node3&#45;&gt;Node17</title>
<path fill="none" stroke="midnightblue" d="M495.35,-206.32C466.22,-185.46 423.47,-150.22 400,-109 386.76,-85.76 382.74,-54.2 381.52,-36.18"/>
<polygon fill="midnightblue" stroke="midnightblue" points="493.72,-209.45 503.92,-212.32 497.74,-203.71 493.72,-209.45"/>
</g>
<!-- Node18 -->
<g id="node16" class="node">
<title>Node18</title>
<g id="a_node16"><a xlink:href="vtkParticleWriter_8cpp.html" target="_top" xlink:title=" ">
<polygon fill="none" stroke="black" points="0,-6 0,-36 140,-36 140,-6 0,-6"/>
<text text-anchor="start" x="8" y="-24" font-family="Arial" font-size="10.00">/home/user/project</text>
<text text-anchor="middle" x="70" y="-13" font-family="Arial" font-size="10.00">/src/rw/vtkParticleWriter.cpp</text>
</a>
</g>
</g>
<!-- Node3&#45;&gt;Node18 -->
<g id="edge26" class="edge">
<title>Node3&#45;&gt;Node18</title>
<path fill="none" stroke="midnightblue" d="M468.29,-209.36C439.85,-200.37 405.24,-188.61 375,-176 267.7,-131.24 145.92,-64.75 94.73,-36.04"/>
<polygon fill="midnightblue" stroke="midnightblue" points="467.49,-212.78 478.08,-212.43 469.58,-206.1 467.49,-212.78"/>
</g>
<!-- Node5 -->
<g id="node5" class="node">
<title>Node5</title>
<g id="a_node5"><a xlink:href="apps_2twop_2main_8cpp.html" target="_top" xlink:title=" ">
<polygon fill="none" stroke="black" points="962.5,-6 962.5,-36 1069.5,-36 1069.5,-6 962.5,-6"/>
<text text-anchor="start" x="970.5" y="-24" font-family="Arial" font-size="10.00">/home/user/project</text>
<text text-anchor="middle" x="1016" y="-13" font-family="Arial" font-size="10.00">/apps/twop/main.cpp</text>
</a>
</g>
</g>
<!-- Node4&#45;&gt;Node5 -->
<g id="edge4" class="edge">
<title>Node4&#45;&gt;Node5</title>
<path fill="none" stroke="midnightblue" d="M1016,-68.23C1016,-57.57 1016,-45.41 1016,-36.25"/>
<polygon fill="midnightblue" stroke="midnightblue" points="1012.5,-68.23 1016,-78.23 1019.5,-68.23 1012.5,-68.23"/>
</g>
<!-- Node6 -->
<g id="node6" class="node">
<title>Node6</title>
<g id="a_node6"><a xlink:href="src_2main_8cpp.html" target="_top" xlink:title=" ">
<polygon fill="none" stroke="black" points="1225,-6 1225,-36 1323,-36 1323,-6 1225,-6"/>
<text text-anchor="start" x="1233" y="-24" font-family="Arial" font-size="10.00">/home/user/project</text>
<text text-anchor="middle" x="1274" y="-13" font-family="Arial" font-size="10.00">/src/main.cpp</text>
</a>
</g>
</g>
<!-- Node4&#45;&gt;Node6 -->
<g id="edge5" class="edge">
<title>Node4&#45;&gt;Node6</title>
<path fill="none" stroke="midnightblue" d="M1087.24,-76.07C1125.6,-66.82 1173.63,-54.63 1216,-42 1222.12,-40.17 1228.56,-38.11 1234.83,-36.01"/>
<polygon fill="midnightblue" stroke="midnightblue" points="1086.11,-72.74 1077.2,-78.47 1087.74,-79.54 1086.11,-72.74"/>
</g>
<!-- Node7 -->
<g id="node7" class="node">
<title>Node7</title>
<g id="a_node7"><a xlink:href="demModel_8cpp.html" target="_top" xlink:title=" ">
<polygon fill="none" stroke="black" points="793.5,-6 793.5,-36 944.5,-36 944.5,-6 793.5,-6"/>
<text text-anchor="start" x="801.5" y="-24" font-family="Arial" font-size="10.00">/home/user/project</text>
<text text-anchor="middle" x="869" y="-13" font-family="Arial" font-size="10.00">/src/model/dem/demModel.cpp</text>
</a>
</g>
</g>
<!-- Node4&#45;&gt;Node7 -->
<g id="edge6" class="edge">
<title>Node4&#45;&gt;Node7</title>
<path fill="none" stroke="midnightblue" d="M977.49,-74.03C952.73,-62.16 921.06,-46.97 898.34,-36.07"/>
<polygon fill="midnightblue" stroke="midnightblue" points="976.08,-77.23 986.61,-78.4 979.1,-70.92 976.08,-77.23"/>
</g>
<!-- Node8 -->
<g id="node8" class="node">
<title>Node8</title>
<g id="a_node8"><a xlink:href="testPeriDEMLib_8cpp.html" target="_top" xlink:title=" ">
<polygon fill="none" stroke="black" points="1087.5,-0.5 1087.5,-41.5 1206.5,-41.5 1206.5,-0.5 1087.5,-0.5"/>
<text text-anchor="start" x="1095.5" y="-29.5" font-family="Arial" font-size="10.00">/home/user/project</text>
<text text-anchor="start" x="1095.5" y="-18.5" font-family="Arial" font-size="10.00">/test/test_exec/peridem</text>
<text text-anchor="middle" x="1147" y="-7.5" font-family="Arial" font-size="10.00">/testPeriDEMLib.cpp</text>
</a>
</g>
</g>
<!-- Node4&#45;&gt;Node8 -->
<g id="edge7" class="edge">
<title>Node4&#45;&gt;Node8</title>
<path fill="none" stroke="midnightblue" d="M1051.1,-73.61C1069.45,-63.74 1091.88,-51.67 1110.43,-41.68"/>
<polygon fill="midnightblue" stroke="midnightblue" points="1049.34,-70.58 1042.19,-78.4 1052.66,-76.75 1049.34,-70.58"/>
</g>
<!-- Node9&#45;&gt;Node5 -->
<g id="edge9" class="edge">
<title>Node9&#45;&gt;Node5</title>
<path fill="none" stroke="midnightblue" d="M839.03,-75.68C872.87,-66.07 915.88,-53.65 954,-42 960.17,-40.12 966.66,-38.08 973.03,-36.05"/>
<polygon fill="midnightblue" stroke="midnightblue" points="837.95,-72.34 829.29,-78.44 839.86,-79.08 837.95,-72.34"/>
</g>
<!-- Node9&#45;&gt;Node7 -->
<g id="edge11" class="edge">
<title>Node9&#45;&gt;Node7</title>
<path fill="none" stroke="midnightblue" d="M805.44,-71.79C820.15,-60.27 838.06,-46.23 851.12,-36"/>
<polygon fill="midnightblue" stroke="midnightblue" points="802.93,-69.31 797.21,-78.23 807.24,-74.82 802.93,-69.31"/>
</g>
<!-- Node10 -->
<g id="node10" class="node">
<title>Node10</title>
<g id="a_node10"><a xlink:href="materialUtil_8cpp.html" target="_top" xlink:title=" ">
<polygon fill="none" stroke="black" points="472,-6 472,-36 614,-36 614,-6 472,-6"/>
<text text-anchor="start" x="480" y="-24" font-family="Arial" font-size="10.00">/home/user/project</text>
<text text-anchor="middle" x="543" y="-13" font-family="Arial" font-size="10.00">/src/material/materialUtil.cpp</text>
</a>
</g>
</g>
<!-- Node9&#45;&gt;Node10 -->
<g id="edge10" class="edge">
<title>Node9&#45;&gt;Node10</title>
<path fill="none" stroke="midnightblue" d="M722.39,-75.59C682,-63.52 628.31,-47.48 590.22,-36.11"/>
<polygon fill="midnightblue" stroke="midnightblue" points="721.51,-78.98 732.09,-78.49 723.51,-72.27 721.51,-78.98"/>
</g>
<!-- Node11 -->
<g id="node11" class="node">
<title>Node11</title>
<g id="a_node11"><a xlink:href="baseParticle_8cpp.html" target="_top" xlink:title=" ">
<polygon fill="none" stroke="black" points="632.5,-6 632.5,-36 775.5,-36 775.5,-6 632.5,-6"/>
<text text-anchor="start" x="640.5" y="-24" font-family="Arial" font-size="10.00">/home/user/project</text>
<text text-anchor="middle" x="704" y="-13" font-family="Arial" font-size="10.00">/src/particle/baseParticle.cpp</text>
</a>
</g>
</g>
<!-- Node9&#45;&gt;Node11 -->
<g id="edge12" class="edge">
<title>Node9&#45;&gt;Node11</title>
<path fill="none" stroke="midnightblue" d="M756.28,-71.14C744.15,-59.74 729.58,-46.04 718.9,-36"/>
<polygon fill="midnightblue" stroke="midnightblue" points="754.14,-73.93 763.82,-78.23 758.93,-68.83 754.14,-73.93"/>
</g>
<!-- Node13&#45;&gt;Node14 -->
<g id="edge15" class="edge">
<title>Node13&#45;&gt;Node14</title>
<path fill="none" stroke="midnightblue" d="M559.39,-140.44C540.88,-130.24 518.48,-117.9 501.55,-108.58"/>
<polygon fill="midnightblue" stroke="midnightblue" points="557.95,-143.64 568.4,-145.4 561.33,-137.51 557.95,-143.64"/>
</g>
<!-- Node20 -->
<g id="node17" class="node">
<title>Node20</title>
<g id="a_node17"><a xlink:href="refParticle_8cpp.html" target="_top" xlink:title=" ">
<polygon fill="none" stroke="black" points="561,-78.5 561,-108.5 695,-108.5 695,-78.5 561,-78.5"/>
<text text-anchor="start" x="569" y="-96.5" font-family="Arial" font-size="10.00">/home/user/project</text>
<text text-anchor="middle" x="628" y="-85.5" font-family="Arial" font-size="10.00">/src/particle/refParticle.cpp</text>
</a>
</g>
</g>
<!-- Node13&#45;&gt;Node20 -->
<g id="edge23" class="edge">
<title>Node13&#45;&gt;Node20</title>
<path fill="none" stroke="midnightblue" d="M606.14,-136.28C610.99,-127.02 616.41,-116.66 620.64,-108.58"/>
<polygon fill="midnightblue" stroke="midnightblue" points="602.91,-134.91 601.38,-145.4 609.11,-138.16 602.91,-134.91"/>
</g>
<!-- Node14&#45;&gt;Node5 -->
<g id="edge16" class="edge">
<title>Node14&#45;&gt;Node5</title>
<path fill="none" stroke="midnightblue" d="M552.67,-78.02C731.45,-54.03 781.39,-77.11 954,-42 961.54,-40.47 969.44,-38.34 976.99,-36.04"/>
<polygon fill="midnightblue" stroke="midnightblue" points="552.1,-74.57 542.67,-79.39 553.05,-81.5 552.1,-74.57"/>
</g>
<!-- Node14&#45;&gt;Node7 -->
<g id="edge18" class="edge">
<title>Node14&#45;&gt;Node7</title>
<path fill="none" stroke="midnightblue" d="M552.7,-77.93C656.96,-60.28 685.28,-61.54 785,-42 793.97,-40.24 803.44,-38.19 812.66,-36.07"/>
<polygon fill="midnightblue" stroke="midnightblue" points="551.97,-74.5 542.7,-79.64 553.15,-81.4 551.97,-74.5"/>
</g>
<!-- Node14&#45;&gt;Node10 -->
<g id="edge17" class="edge">
<title>Node14&#45;&gt;Node10</title>
<path fill="none" stroke="midnightblue" d="M496.56,-70.86C507.25,-59.61 520.02,-46.18 529.46,-36.25"/>
<polygon fill="midnightblue" stroke="midnightblue" points="493.91,-68.57 489.56,-78.23 498.98,-73.4 493.91,-68.57"/>
</g>
<!-- Node14&#45;&gt;Node11 -->
<g id="edge20" class="edge">
<title>Node14&#45;&gt;Node11</title>
<path fill="none" stroke="midnightblue" d="M530.94,-75.51C569.93,-63.46 621.66,-47.46 658.38,-36.11"/>
<polygon fill="midnightblue" stroke="midnightblue" points="529.84,-72.19 521.32,-78.49 531.91,-78.88 529.84,-72.19"/>
</g>
<!-- Node14&#45;&gt;Node12 -->
<g id="edge19" class="edge">
<title>Node14&#45;&gt;Node12</title>
<path fill="none" stroke="midnightblue" d="M416.1,-75.74C372.91,-63.66 315.27,-47.53 274.42,-36.11"/>
<polygon fill="midnightblue" stroke="midnightblue" points="415.34,-79.16 425.91,-78.49 417.22,-72.42 415.34,-79.16"/>
</g>
<!-- Node14&#45;&gt;Node17 -->
<g id="edge21" class="edge">
<title>Node14&#45;&gt;Node17</title>
<path fill="none" stroke="midnightblue" d="M448.52,-72.11C432.92,-60.53 413.78,-46.33 399.87,-36"/>
<polygon fill="midnightblue" stroke="midnightblue" points="446.66,-75.08 456.78,-78.23 450.83,-69.46 446.66,-75.08"/>
</g>
<!-- Node14&#45;&gt;Node18 -->
<g id="edge22" class="edge">
<title>Node14&#45;&gt;Node18</title>
<path fill="none" stroke="midnightblue" d="M399.3,-82.75C332.8,-73.79 234.13,-59.31 149,-42 140.4,-40.25 131.34,-38.18 122.53,-36.04"/>
<polygon fill="midnightblue" stroke="midnightblue" points="398.91,-86.23 409.29,-84.08 399.84,-79.29 398.91,-86.23"/>
</g>
</g>
</svg>
