<?xml version="1.0" encoding="UTF-8" standalone="no"?>
<!DOCTYPE svg PUBLIC "-//W3C//DTD SVG 1.1//EN"
 "http://www.w3.org/Graphics/SVG/1.1/DTD/svg11.dtd">
<!-- Generated by graphviz version 2.43.0 (0)
 -->
<!-- Title: /home/user/project/src/material/mparticle/influenceFn.cpp Pages: 1 -->
<svg width="541pt" height="269pt"
 viewBox="0.00 0.00 541.00 269.00" xmlns="http://www.w3.org/2000/svg" xmlns:xlink="http://www.w3.org/1999/xlink">
<g id="graph0" class="graph" transform="scale(1 1) rotate(0) translate(4 265)">
<title>/home/user/project/src/material/mparticle/influenceFn.cpp</title>
<!-- Node1 -->
<g id="Node000001" class="node">
<title>Node1</title>
<g id="a_Node000001"><a xlink:title=" ">
<polygon fill="#999999" stroke="#666666" points="449.5,-261 336.5,-261 336.5,-220 449.5,-220 449.5,-261"/>
<text text-anchor="start" x="344.5" y="-249" font-family="Arial" font-size="10.00">/home/user/project</text>
<text text-anchor="start" x="344.5" y="-238" font-family="Arial" font-size="10.00">/src/material/mparticle</text>
<text text-anchor="middle" x="393" y="-227" font-family="Arial" font-size="10.00">/influenceFn.cpp</text>
</a>
</g>
</g>
<!-- Node2 -->
<g id="Node000002" class="node">
<title>Node2</title>
<g id="a_Node000002"><a xlink:href="influenceFn_8h.html" target="_top" xlink:title=" ">
<polygon fill="white" stroke="#666666" points="341.5,-184 266.5,-184 266.5,-165 341.5,-165 341.5,-184"/>
<text text-anchor="middle" x="304" y="-172" font-family="Arial" font-size="10.00">influenceFn.h</text>
</a>
</g>
</g>
<!-- Node1&#45;&gt;Node2 -->
<g id="edge1_Node000001_Node000002" class="edge">
<title>Node1&#45;&gt;Node2</title>
<g id="a_edge1_Node000001_Node000002"><a xlink:title=" ">
<path fill="none" stroke="#63b8ff" d="M365.81,-219.95C352.49,-210.37 336.7,-199.02 324.42,-190.19"/>
<polygon fill="#63b8ff" stroke="#63b8ff" points="326.34,-187.26 316.18,-184.26 322.26,-192.94 326.34,-187.26"/>
</a>
</g>
</g>
<!-- Node5 -->
<g id="Node000005" class="node">
<title>Node5</title>
<g id="a_Node000005"><a xlink:title=" ">
<polygon fill="#e0e0e0" stroke="#999999" points="533,-19 489,-19 489,0 533,0 533,-19"/>
<text text-anchor="middle" x="511" y="-7" font-family="Arial" font-size="10.00">cmath</text>
</a>
</g>
</g>
<!-- Node1&#45;&gt;Node5 -->
<g id="edge21_Node000001_Node000005" class="edge">
<title>Node1&#45;&gt;Node5</title>
<g id="a_edge21_Node000001_Node000005"><a xlink:title=" ">
<path fill="none" stroke="#63b8ff" d="M403.06,-219.98C425.61,-176.21 479.94,-70.79 501.73,-28.5"/>
<polygon fill="#63b8ff" stroke="#63b8ff" points="504.95,-29.89 506.42,-19.39 498.73,-26.68 504.95,-29.89"/>
</a>
</g>
</g>
<!-- Node3 -->
<g id="Node000003" class="node">
<title>Node3</title>
<g id="a_Node000003"><a xlink:href="io_8h.html" target="_top" xlink:title=" ">
<polygon fill="white" stroke="#666666" points="212,-129 164,-129 164,-110 212,-110 212,-129"/>
<text text-anchor="middle" x="188" y="-117" font-family="Arial" font-size="10.00">util/io.h</text>
</a>
</g>
</g>
<!-- Node2&#45;&gt;Node3 -->
<g id="edge2_Node000002_Node000003" class="edge">
<title>Node2&#45;&gt;Node3</title>
<g id="a_edge2_Node000002_Node000003"><a xlink:title=" ">
<path fill="none" stroke="#63b8ff" d="M285.36,-164.98C266.7,-156.46 237.75,-143.23 216.26,-133.41"/>
<polygon fill="#63b8ff" stroke="#63b8ff" points="217.53,-130.14 206.98,-129.17 214.62,-136.51 217.53,-130.14"/>
</a>
</g>
</g>
<!-- Node8 -->
<g id="Node000008" class="node">
<title>Node8</title>
<g id="a_Node000008"><a xlink:title=" ">
<polygon fill="#e0e0e0" stroke="#999999" points="471,-19 417,-19 417,0 471,0 471,-19"/>
<text text-anchor="middle" x="444" y="-7" font-family="Arial" font-size="10.00">iostream</text>
</a>
</g>
</g>
<!-- Node2&#45;&gt;Node8 -->
<g id="edge19_Node000002_Node000008" class="edge">
<title>Node2&#45;&gt;Node8</title>
<g id="a_edge19_Node000002_Node000008"><a xlink:title=" ">
<path fill="none" stroke="#63b8ff" d="M316.02,-164.78C337.46,-148.74 382.82,-112.66 412,-74 422.56,-60.01 431.26,-41.99 436.9,-28.73"/>
<polygon fill="#63b8ff" stroke="#63b8ff" points="440.22,-29.86 440.75,-19.28 433.74,-27.22 440.22,-29.86"/>
</a>
</g>
</g>
<!-- Node9 -->
<g id="Node000009" class="node">
<title>Node9</title>
<g id="a_Node000009"><a xlink:title=" ">
<polygon fill="#e0e0e0" stroke="#999999" points="261,-19 217,-19 217,0 261,0 261,-19"/>
<text text-anchor="middle" x="239" y="-7" font-family="Arial" font-size="10.00">vector</text>
</a>
</g>
</g>
<!-- Node2&#45;&gt;Node9 -->
<g id="edge20_Node000002_Node000009" class="edge">
<title>Node2&#45;&gt;Node9</title>
<g id="a_edge20_Node000002_Node000009"><a xlink:title=" ">
<path fill="none" stroke="#63b8ff" d="M301.8,-164.74C298.6,-152.37 292.25,-129.16 285,-110 273.87,-80.6 257.95,-47.71 248.05,-28.07"/>
<polygon fill="#63b8ff" stroke="#63b8ff" points="251.14,-26.43 243.49,-19.11 244.91,-29.61 251.14,-26.43"/>
</a>
</g>
</g>
<!-- Node16 -->
<g id="Node000016" class="node">
<title>Node16</title>
<g id="a_Node000016"><a xlink:title=" ">
<polygon fill="#e0e0e0" stroke="#999999" points="276,-129 230,-129 230,-110 276,-110 276,-129"/>
<text text-anchor="middle" x="253" y="-117" font-family="Arial" font-size="10.00">cstring</text>
</a>
</g>
</g>
<!-- Node2&#45;&gt;Node16 -->
<g id="edge18_Node000002_Node000016" class="edge">
<title>Node2&#45;&gt;Node16</title>
<g id="a_edge18_Node000002_Node000016"><a xlink:title=" ">
<path fill="none" stroke="#63b8ff" d="M295.58,-164.75C288.23,-157.11 277.37,-145.82 268.46,-136.56"/>
<polygon fill="#63b8ff" stroke="#63b8ff" points="270.72,-133.87 261.26,-129.09 265.68,-138.72 270.72,-133.87"/>
</a>
</g>
</g>
<!-- Node4 -->
<g id="Node000004" class="node">
<title>Node4</title>
<g id="a_Node000004"><a xlink:href="point_8h.html" target="_top" xlink:title=" ">
<polygon fill="white" stroke="#666666" points="378,-74 332,-74 332,-55 378,-55 378,-74"/>
<text text-anchor="middle" x="355" y="-62" font-family="Arial" font-size="10.00">point.h</text>
</a>
</g>
</g>
<!-- Node3&#45;&gt;Node4 -->
<g id="edge3_Node000003_Node000004" class="edge">
<title>Node3&#45;&gt;Node4</title>
<g id="a_edge3_Node000003_Node000004"><a xlink:title=" ">
<path fill="none" stroke="#63b8ff" d="M212.28,-110.79C241.18,-101.62 289.57,-86.27 321.88,-76.01"/>
<polygon fill="#63b8ff" stroke="#63b8ff" points="323.29,-79.24 331.76,-72.87 321.17,-72.56 323.29,-79.24"/>
</a>
</g>
</g>
<!-- Node3&#45;&gt;Node8 -->
<g id="edge15_Node000003_Node000008" class="edge">
<title>Node3&#45;&gt;Node8</title>
<g id="a_edge15_Node000003_Node000008"><a xlink:title=" ">
<path fill="none" stroke="#63b8ff" d="M212.12,-112.17C215.11,-111.42 218.12,-110.68 221,-110 294.46,-92.58 321.73,-111.93 387,-74 406.54,-62.64 423.04,-42.27 433.18,-27.66"/>
<polygon fill="#63b8ff" stroke="#63b8ff" points="436.28,-29.31 438.89,-19.04 430.45,-25.44 436.28,-29.31"/>
</a>
</g>
</g>
<!-- Node3&#45;&gt;Node9 -->
<g id="edge16_Node000003_Node000009" class="edge">
<title>Node3&#45;&gt;Node9</title>
<g id="a_edge16_Node000003_Node000009"><a xlink:title=" ">
<path fill="none" stroke="#63b8ff" d="M196.75,-109.73C204.72,-101.28 216.24,-87.76 223,-74 229.98,-59.79 234.1,-42.26 236.41,-29.22"/>
<polygon fill="#63b8ff" stroke="#63b8ff" points="239.9,-29.53 237.99,-19.11 232.98,-28.45 239.9,-29.53"/>
</a>
</g>
</g>
<!-- Node10 -->
<g id="Node000010" class="node">
<title>Node10</title>
<g id="a_Node000010"><a xlink:href="parallelUtil_8h.html" target="_top" xlink:title=" ">
<polygon fill="white" stroke="#666666" points="213.5,-74 142.5,-74 142.5,-55 213.5,-55 213.5,-74"/>
<text text-anchor="middle" x="178" y="-62" font-family="Arial" font-size="10.00">parallelUtil.h</text>
</a>
</g>
</g>
<!-- Node3&#45;&gt;Node10 -->
<g id="edge9_Node000003_Node000010" class="edge">
<title>Node3&#45;&gt;Node10</title>
<g id="a_edge9_Node000003_Node000010"><a xlink:title=" ">
<path fill="none" stroke="#63b8ff" d="M186.35,-109.75C185.04,-102.8 183.16,-92.85 181.52,-84.13"/>
<polygon fill="#63b8ff" stroke="#63b8ff" points="184.91,-83.27 179.62,-74.09 178.04,-84.56 184.91,-83.27"/>
</a>
</g>
</g>
<!-- Node14 -->
<g id="Node000014" class="node">
<title>Node14</title>
<g id="a_Node000014"><a xlink:title=" ">
<polygon fill="#e0e0e0" stroke="#999999" points="50,-74 0,-74 0,-55 50,-55 50,-74"/>
<text text-anchor="middle" x="25" y="-62" font-family="Arial" font-size="10.00">fstream</text>
</a>
</g>
</g>
<!-- Node3&#45;&gt;Node14 -->
<g id="edge14_Node000003_Node000014" class="edge">
<title>Node3&#45;&gt;Node14</title>
<g id="a_edge14_Node000003_Node000014"><a xlink:title=" ">
<path fill="none" stroke="#63b8ff" d="M163.95,-110.68C136.46,-101.74 91.23,-87.04 59.88,-76.84"/>
<polygon fill="#63b8ff" stroke="#63b8ff" points="60.82,-73.47 50.22,-73.7 58.65,-80.12 60.82,-73.47"/>
</a>
</g>
</g>
<!-- Node15 -->
<g id="Node000015" class="node">
<title>Node15</title>
<g id="a_Node000015"><a xlink:title=" ">
<polygon fill="#e0e0e0" stroke="#999999" points="124,-74 68,-74 68,-55 124,-55 124,-74"/>
<text text-anchor="middle" x="96" y="-62" font-family="Arial" font-size="10.00">algorithm</text>
</a>
</g>
</g>
<!-- Node3&#45;&gt;Node15 -->
<g id="edge17_Node000003_Node000015" class="edge">
<title>Node3&#45;&gt;Node15</title>
<g id="a_edge17_Node000003_Node000015"><a xlink:title=" ">
<path fill="none" stroke="#63b8ff" d="M173.22,-109.98C158.82,-101.69 136.69,-88.94 119.81,-79.22"/>
<polygon fill="#63b8ff" stroke="#63b8ff" points="121.46,-76.13 111.05,-74.17 117.97,-82.19 121.46,-76.13"/>
</a>
</g>
</g>
<!-- Node4&#45;&gt;Node5 -->
<g id="edge4_Node000004_Node000005" class="edge">
<title>Node4&#45;&gt;Node5</title>
<g id="a_edge4_Node000004_Node000005"><a xlink:title=" ">
<path fill="none" stroke="#63b8ff" d="M378.02,-55.68C404.82,-46.57 449.25,-31.48 479.3,-21.27"/>
<polygon fill="#63b8ff" stroke="#63b8ff" points="480.55,-24.54 488.9,-18.01 478.3,-17.91 480.55,-24.54"/>
</a>
</g>
</g>
<!-- Node6 -->
<g id="Node000006" class="node">
<title>Node6</title>
<g id="a_Node000006"><a xlink:title=" ">
<polygon fill="#e0e0e0" stroke="#999999" points="329,-19 279,-19 279,0 329,0 329,-19"/>
<text text-anchor="middle" x="304" y="-7" font-family="Arial" font-size="10.00">iomanip</text>
</a>
</g>
</g>
<!-- Node4&#45;&gt;Node6 -->
<g id="edge5_Node000004_Node000006" class="edge">
<title>Node4&#45;&gt;Node6</title>
<g id="a_edge5_Node000004_Node000006"><a xlink:title=" ">
<path fill="none" stroke="#63b8ff" d="M346.58,-54.75C339.23,-47.11 328.37,-35.82 319.46,-26.56"/>
<polygon fill="#63b8ff" stroke="#63b8ff" points="321.72,-23.87 312.26,-19.09 316.68,-28.72 321.72,-23.87"/>
</a>
</g>
</g>
<!-- Node7 -->
<g id="Node000007" class="node">
<title>Node7</title>
<g id="a_Node000007"><a xlink:title=" ">
<polygon fill="#e0e0e0" stroke="#999999" points="399,-19 347,-19 347,0 399,0 399,-19"/>
<text text-anchor="middle" x="373" y="-7" font-family="Arial" font-size="10.00">sstream</text>
</a>
</g>
</g>
<!-- Node4&#45;&gt;Node7 -->
<g id="edge6_Node000004_Node000007" class="edge">
<title>Node4&#45;&gt;Node7</title>
<g id="a_edge6_Node000004_Node000007"><a xlink:title=" ">
<path fill="none" stroke="#63b8ff" d="M357.97,-54.75C360.36,-47.72 363.79,-37.62 366.77,-28.84"/>
<polygon fill="#63b8ff" stroke="#63b8ff" points="370.18,-29.68 370.08,-19.09 363.55,-27.43 370.18,-29.68"/>
</a>
</g>
</g>
<!-- Node4&#45;&gt;Node8 -->
<g id="edge7_Node000004_Node000008" class="edge">
<title>Node4&#45;&gt;Node8</title>
<g id="a_edge7_Node000004_Node000008"><a xlink:title=" ">
<path fill="none" stroke="#63b8ff" d="M369.3,-54.98C383.1,-46.77 404.24,-34.18 420.51,-24.49"/>
<polygon fill="#63b8ff" stroke="#63b8ff" points="422.64,-27.29 429.44,-19.17 419.06,-21.28 422.64,-27.29"/>
</a>
</g>
</g>
<!-- Node4&#45;&gt;Node9 -->
<g id="edge8_Node000004_Node000009" class="edge">
<title>Node4&#45;&gt;Node9</title>
<g id="a_edge8_Node000004_Node000009"><a xlink:title=" ">
<path fill="none" stroke="#63b8ff" d="M336.36,-54.98C317.7,-46.46 288.75,-33.23 267.26,-23.41"/>
<polygon fill="#63b8ff" stroke="#63b8ff" points="268.53,-20.14 257.98,-19.17 265.62,-26.51 268.53,-20.14"/>
</a>
</g>
</g>
<!-- Node10&#45;&gt;Node9 -->
<g id="edge12_Node000010_Node000009" class="edge">
<title>Node10&#45;&gt;Node9</title>
<g id="a_edge12_Node000010_Node000009"><a xlink:title=" ">
<path fill="none" stroke="#63b8ff" d="M187.8,-54.98C196.82,-47.15 210.41,-35.34 221.32,-25.86"/>
<polygon fill="#63b8ff" stroke="#63b8ff" points="223.77,-28.37 229.02,-19.17 219.18,-23.09 223.77,-28.37"/>
</a>
</g>
</g>
<!-- Node11 -->
<g id="Node000011" class="node">
<title>Node11</title>
<g id="a_Node000011"><a xlink:title=" ">
<polygon fill="#e0e0e0" stroke="#999999" points="139.5,-19 98.5,-19 98.5,0 139.5,0 139.5,-19"/>
<text text-anchor="middle" x="119" y="-7" font-family="Arial" font-size="10.00">mpi.h</text>
</a>
</g>
</g>
<!-- Node10&#45;&gt;Node11 -->
<g id="edge10_Node000010_Node000011" class="edge">
<title>Node10&#45;&gt;Node11</title>
<g id="a_edge10_Node000010_Node000011"><a xlink:title=" ">
<path fill="none" stroke="#63b8ff" d="M168.52,-54.98C159.8,-47.15 146.66,-35.34 136.1,-25.86"/>
<polygon fill="#63b8ff" stroke="#63b8ff" points="138.43,-23.25 128.65,-19.17 133.75,-28.46 138.43,-23.25"/>
</a>
</g>
</g>
<!-- Node12 -->
<g id="Node000012" class="node">
<title>Node12</title>
<g id="a_Node000012"><a xlink:title=" ">
<polygon fill="#e0e0e0" stroke="#999999" points="198.5,-19 157.5,-19 157.5,0 198.5,0 198.5,-19"/>
<text text-anchor="middle" x="178" y="-7" font-family="Arial" font-size="10.00">string</text>
</a>
</g>
</g>
<!-- Node10&#45;&gt;Node12 -->
<g id="edge11_Node000010_Node000012" class="edge">
<title>Node10&#45;&gt;Node12</title>
<g id="a_edge11_Node000010_Node000012"><a xlink:title=" ">
<path fill="none" stroke="#63b8ff" d="M178,-54.75C178,-47.8 178,-37.85 178,-29.13"/>
<polygon fill="#63b8ff" stroke="#63b8ff" points="181.5,-29.09 178,-19.09 174.5,-29.09 181.5,-29.09"/>
</a>
</g>
</g>
<!-- Node13 -->
<g id="Node000013" class="node">
<title>Node13</title>
<g id="a_Node000013"><a xlink:title=" ">
<polygon fill="#e0e0e0" stroke="#999999" points="80,-19 36,-19 36,0 80,0 80,-19"/>
<text text-anchor="middle" x="58" y="-7" font-family="Arial" font-size="10.00">thread</text>
</a>
</g>
</g>
<!-- Node10&#45;&gt;Node13 -->
<g id="edge13_Node000010_Node000013" class="edge">
<title>Node10&#45;&gt;Node13</title>
<g id="a_edge13_Node000010_Node000013"><a xlink:title=" ">
<path fill="none" stroke="#63b8ff" d="M158.72,-54.98C139.33,-46.42 109.19,-33.11 86.93,-23.28"/>
<polygon fill="#63b8ff" stroke="#63b8ff" points="88.19,-20.01 77.63,-19.17 85.36,-26.41 88.19,-20.01"/>
</a>
</g>
</g>
</g>
</svg>
