<?xml version="1.0" encoding="UTF-8" standalone="no"?>
<!DOCTYPE svg PUBLIC "-//W3C//DTD SVG 1.1//EN"
 "http://www.w3.org/Graphics/SVG/1.1/DTD/svg11.dtd">
<!-- Generated by graphviz version 2.43.0 (0)
 -->
<!-- Title: Graphical Class Hierarchy Pages: 1 -->
<svg width="328pt" height="581pt"
 viewBox="0.00 0.00 328.00 580.50" xmlns="http://www.w3.org/2000/svg" xmlns:xlink="http://www.w3.org/1999/xlink">
<g id="graph0" class="graph" transform="scale(1 1) rotate(0) translate(4 576.5)">
<title>Graphical Class Hierarchy</title>
<!-- Node0 -->
<g id="Node000000" class="node">
<title>Node0</title>
<g id="a_Node000000"><a xlink:href="classutil_1_1geometry_1_1GeomObject.html" target="_top" xlink:title="Defines abstract geometrical domain.">
<polygon fill="white" stroke="#666666" points="137,-290 0,-290 0,-271 137,-271 137,-290"/>
<text text-anchor="middle" x="68.5" y="-278" font-family="Arial" font-size="10.00">util::geometry::GeomObject</text>
</a>
</g>
</g>
<!-- Node1 -->
<g id="Node000001" class="node">
<title>Node1</title>
<g id="a_Node000001"><a xlink:href="classutil_1_1geometry_1_1AnnulusGeomObject.html" target="_top" xlink:title="Defines annulus rectangle.">
<polygon fill="white" stroke="#666666" points="318,-572.5 175,-572.5 175,-542.5 318,-542.5 318,-572.5"/>
<text text-anchor="start" x="183" y="-560.5" font-family="Arial" font-size="10.00">util::geometry::AnnulusGeom</text>
<text text-anchor="middle" x="246.5" y="-549.5" font-family="Arial" font-size="10.00">Object</text>
</a>
</g>
</g>
<!-- Node0&#45;&gt;Node1 -->
<g id="edge18_Node000000_Node000001" class="edge">
<title>Node0&#45;&gt;Node1</title>
<g id="a_edge18_Node000000_Node000001"><a xlink:title=" ">
<path fill="none" stroke="#63b8ff" d="M71.94,-300.24C78.81,-347.45 102.66,-467.83 173,-533.5 176.68,-536.94 180.87,-539.88 185.33,-542.41"/>
<polygon fill="#63b8ff" stroke="#63b8ff" points="75.38,-299.57 70.57,-290.13 68.44,-300.51 75.38,-299.57"/>
</a>
</g>
</g>
<!-- Node2 -->
<g id="Node000002" class="node">
<title>Node2</title>
<g id="a_Node000002"><a xlink:href="classutil_1_1geometry_1_1Circle.html" target="_top" xlink:title="Defines circle.">
<polygon fill="white" stroke="#666666" points="300,-524 193,-524 193,-505 300,-505 300,-524"/>
<text text-anchor="middle" x="246.5" y="-512" font-family="Arial" font-size="10.00">util::geometry::Circle</text>
</a>
</g>
</g>
<!-- Node0&#45;&gt;Node2 -->
<g id="edge19_Node000000_Node000002" class="edge">
<title>Node0&#45;&gt;Node2</title>
<g id="a_edge19_Node000000_Node000002"><a xlink:title=" ">
<path fill="none" stroke="#63b8ff" d="M73.24,-300.39C82.32,-342.97 109.61,-443.26 173,-495.5 178.82,-500.3 185.73,-503.9 192.93,-506.6"/>
<polygon fill="#63b8ff" stroke="#63b8ff" points="76.64,-299.55 71.23,-290.44 69.78,-300.93 76.64,-299.55"/>
</a>
</g>
</g>
<!-- Node3 -->
<g id="Node000003" class="node">
<title>Node3</title>
<g id="a_Node000003"><a xlink:href="classutil_1_1geometry_1_1ComplexGeomObject.html" target="_top" xlink:title="Defines complex geometrical object.">
<polygon fill="white" stroke="#666666" points="320,-486.5 173,-486.5 173,-456.5 320,-456.5 320,-486.5"/>
<text text-anchor="start" x="181" y="-474.5" font-family="Arial" font-size="10.00">util::geometry::ComplexGeom</text>
<text text-anchor="middle" x="246.5" y="-463.5" font-family="Arial" font-size="10.00">Object</text>
</a>
</g>
</g>
<!-- Node0&#45;&gt;Node3 -->
<g id="edge20_Node000000_Node000003" class="edge">
<title>Node0&#45;&gt;Node3</title>
<g id="a_edge20_Node000000_Node000003"><a xlink:title=" ">
<path fill="none" stroke="#63b8ff" d="M76.36,-299.86C89.62,-334.51 122.01,-407.28 173,-447.5 177.37,-450.95 182.26,-453.91 187.38,-456.46"/>
<polygon fill="#63b8ff" stroke="#63b8ff" points="79.48,-298.2 72.73,-290.03 72.91,-300.63 79.48,-298.2"/>
</a>
</g>
</g>
<!-- Node4 -->
<g id="Node000004" class="node">
<title>Node4</title>
<g id="a_Node000004"><a xlink:href="classutil_1_1geometry_1_1Cube.html" target="_top" xlink:title="Defines cube.">
<polygon fill="white" stroke="#666666" points="299,-438 194,-438 194,-419 299,-419 299,-438"/>
<text text-anchor="middle" x="246.5" y="-426" font-family="Arial" font-size="10.00">util::geometry::Cube</text>
</a>
</g>
</g>
<!-- Node0&#45;&gt;Node4 -->
<g id="edge21_Node000000_Node000004" class="edge">
<title>Node0&#45;&gt;Node4</title>
<g id="a_edge21_Node000000_Node000004"><a xlink:title=" ">
<path fill="none" stroke="#63b8ff" d="M79.01,-299.05C94.64,-327.58 128.49,-381.91 173,-410.5 179.33,-414.56 186.51,-417.71 193.84,-420.15"/>
<polygon fill="#63b8ff" stroke="#63b8ff" points="82.05,-297.3 74.26,-290.12 75.87,-300.59 82.05,-297.3"/>
</a>
</g>
</g>
<!-- Node5 -->
<g id="Node000005" class="node">
<title>Node5</title>
<g id="a_Node000005"><a xlink:href="classutil_1_1geometry_1_1Cuboid.html" target="_top" xlink:title="Defines cuboid.">
<polygon fill="white" stroke="#666666" points="303,-401 190,-401 190,-382 303,-382 303,-401"/>
<text text-anchor="middle" x="246.5" y="-389" font-family="Arial" font-size="10.00">util::geometry::Cuboid</text>
</a>
</g>
</g>
<!-- Node0&#45;&gt;Node5 -->
<g id="edge22_Node000000_Node000005" class="edge">
<title>Node0&#45;&gt;Node5</title>
<g id="a_edge22_Node000000_Node000005"><a xlink:title=" ">
<path fill="none" stroke="#63b8ff" d="M83.96,-297.91C102.43,-318.99 136.42,-354.1 173,-373.5 179.42,-376.9 186.49,-379.68 193.64,-381.94"/>
<polygon fill="#63b8ff" stroke="#63b8ff" points="86.41,-295.38 77.24,-290.06 81.09,-299.94 86.41,-295.38"/>
</a>
</g>
</g>
<!-- Node6 -->
<g id="Node000006" class="node">
<title>Node6</title>
<g id="a_Node000006"><a xlink:href="classutil_1_1geometry_1_1Cylinder.html" target="_top" xlink:title="Defines cylinder.">
<polygon fill="white" stroke="#666666" points="305.5,-364 187.5,-364 187.5,-345 305.5,-345 305.5,-364"/>
<text text-anchor="middle" x="246.5" y="-352" font-family="Arial" font-size="10.00">util::geometry::Cylinder</text>
</a>
</g>
</g>
<!-- Node0&#45;&gt;Node6 -->
<g id="edge23_Node000000_Node000006" class="edge">
<title>Node0&#45;&gt;Node6</title>
<g id="a_edge23_Node000000_Node000006"><a xlink:title=" ">
<path fill="none" stroke="#63b8ff" d="M92.98,-295.44C113.44,-307.9 144.25,-325.36 173,-336.5 181.47,-339.78 190.72,-342.61 199.7,-345"/>
<polygon fill="#63b8ff" stroke="#63b8ff" points="94.7,-292.38 84.35,-290.1 91.02,-298.34 94.7,-292.38"/>
</a>
</g>
</g>
<!-- Node7 -->
<g id="Node000007" class="node">
<title>Node7</title>
<g id="a_Node000007"><a xlink:href="classutil_1_1geometry_1_1Drum2D.html" target="_top" xlink:title="Defines Drum2D.">
<polygon fill="white" stroke="#666666" points="306,-327 187,-327 187,-308 306,-308 306,-327"/>
<text text-anchor="middle" x="246.5" y="-315" font-family="Arial" font-size="10.00">util::geometry::Drum2D</text>
</a>
</g>
</g>
<!-- Node0&#45;&gt;Node7 -->
<g id="edge24_Node000000_Node000007" class="edge">
<title>Node0&#45;&gt;Node7</title>
<g id="a_edge24_Node000000_Node000007"><a xlink:title=" ">
<path fill="none" stroke="#63b8ff" d="M124.93,-292.15C149.1,-297.23 177.1,-303.12 200.02,-307.94"/>
<polygon fill="#63b8ff" stroke="#63b8ff" points="125.33,-288.66 114.82,-290.03 123.89,-295.51 125.33,-288.66"/>
</a>
</g>
</g>
<!-- Node8 -->
<g id="Node000008" class="node">
<title>Node8</title>
<g id="a_Node000008"><a xlink:href="classutil_1_1geometry_1_1Ellipse.html" target="_top" xlink:title="Defines ellipse.">
<polygon fill="white" stroke="#666666" points="302,-290 191,-290 191,-271 302,-271 302,-290"/>
<text text-anchor="middle" x="246.5" y="-278" font-family="Arial" font-size="10.00">util::geometry::Ellipse</text>
</a>
</g>
</g>
<!-- Node0&#45;&gt;Node8 -->
<g id="edge25_Node000000_Node000008" class="edge">
<title>Node0&#45;&gt;Node8</title>
<g id="a_edge25_Node000000_Node000008"><a xlink:title=" ">
<path fill="none" stroke="#63b8ff" d="M147.18,-280.5C161.94,-280.5 177.1,-280.5 190.96,-280.5"/>
<polygon fill="#63b8ff" stroke="#63b8ff" points="147.04,-277 137.04,-280.5 147.04,-284 147.04,-277"/>
</a>
</g>
</g>
<!-- Node9 -->
<g id="Node000009" class="node">
<title>Node9</title>
<g id="a_Node000009"><a xlink:href="classutil_1_1geometry_1_1Hexagon.html" target="_top" xlink:title="Defines Hexagon.">
<polygon fill="white" stroke="#666666" points="307,-253 186,-253 186,-234 307,-234 307,-253"/>
<text text-anchor="middle" x="246.5" y="-241" font-family="Arial" font-size="10.00">util::geometry::Hexagon</text>
</a>
</g>
</g>
<!-- Node0&#45;&gt;Node9 -->
<g id="edge26_Node000000_Node000009" class="edge">
<title>Node0&#45;&gt;Node9</title>
<g id="a_edge26_Node000000_Node000009"><a xlink:title=" ">
<path fill="none" stroke="#63b8ff" d="M124.93,-268.85C149.1,-263.77 177.1,-257.88 200.02,-253.06"/>
<polygon fill="#63b8ff" stroke="#63b8ff" points="123.89,-265.49 114.82,-270.97 125.33,-272.34 123.89,-265.49"/>
</a>
</g>
</g>
<!-- Node10 -->
<g id="Node000010" class="node">
<title>Node10</title>
<g id="a_Node000010"><a xlink:href="classutil_1_1geometry_1_1Line.html" target="_top" xlink:title="Defines Line.">
<polygon fill="white" stroke="#666666" points="296.5,-216 196.5,-216 196.5,-197 296.5,-197 296.5,-216"/>
<text text-anchor="middle" x="246.5" y="-204" font-family="Arial" font-size="10.00">util::geometry::Line</text>
</a>
</g>
</g>
<!-- Node0&#45;&gt;Node10 -->
<g id="edge27_Node000000_Node000010" class="edge">
<title>Node0&#45;&gt;Node10</title>
<g id="a_edge27_Node000000_Node000010"><a xlink:title=" ">
<path fill="none" stroke="#63b8ff" d="M93.41,-265.74C113.91,-253.58 144.57,-236.61 173,-225.5 182.33,-221.85 192.61,-218.68 202.42,-216.03"/>
<polygon fill="#63b8ff" stroke="#63b8ff" points="91.51,-262.79 84.74,-270.94 95.12,-268.79 91.51,-262.79"/>
</a>
</g>
</g>
<!-- Node11 -->
<g id="Node000011" class="node">
<title>Node11</title>
<g id="a_Node000011"><a xlink:href="classutil_1_1geometry_1_1NullGeomObject.html" target="_top" xlink:title="Defines null (empty) geom object.">
<polygon fill="white" stroke="#666666" points="309,-178.5 184,-178.5 184,-148.5 309,-148.5 309,-178.5"/>
<text text-anchor="start" x="192" y="-166.5" font-family="Arial" font-size="10.00">util::geometry::NullGeom</text>
<text text-anchor="middle" x="246.5" y="-155.5" font-family="Arial" font-size="10.00">Object</text>
</a>
</g>
</g>
<!-- Node0&#45;&gt;Node11 -->
<g id="edge28_Node000000_Node000011" class="edge">
<title>Node0&#45;&gt;Node11</title>
<g id="a_edge28_Node000000_Node000011"><a xlink:title=" ">
<path fill="none" stroke="#63b8ff" d="M84.87,-263.18C103.81,-242.79 137.8,-209.09 173,-188.5 179.44,-184.73 186.52,-181.42 193.67,-178.54"/>
<polygon fill="#63b8ff" stroke="#63b8ff" points="82.09,-261.04 77.94,-270.78 87.27,-265.75 82.09,-261.04"/>
</a>
</g>
</g>
<!-- Node12 -->
<g id="Node000012" class="node">
<title>Node12</title>
<g id="a_Node000012"><a xlink:href="classutil_1_1geometry_1_1Rectangle.html" target="_top" xlink:title="Defines Rectangle.">
<polygon fill="white" stroke="#666666" points="309.5,-130 183.5,-130 183.5,-111 309.5,-111 309.5,-130"/>
<text text-anchor="middle" x="246.5" y="-118" font-family="Arial" font-size="10.00">util::geometry::Rectangle</text>
</a>
</g>
</g>
<!-- Node0&#45;&gt;Node12 -->
<g id="edge29_Node000000_Node000012" class="edge">
<title>Node0&#45;&gt;Node12</title>
<g id="a_edge29_Node000000_Node000012"><a xlink:title=" ">
<path fill="none" stroke="#63b8ff" d="M78.01,-261.75C92.83,-231.28 126.29,-171.25 173,-139.5 178.7,-135.62 185.15,-132.54 191.8,-130.08"/>
<polygon fill="#63b8ff" stroke="#63b8ff" points="74.81,-260.33 73.71,-270.86 81.14,-263.31 74.81,-260.33"/>
</a>
</g>
</g>
<!-- Node13 -->
<g id="Node000013" class="node">
<title>Node13</title>
<g id="a_Node000013"><a xlink:href="classutil_1_1geometry_1_1Sphere.html" target="_top" xlink:title="Defines sphere.">
<polygon fill="white" stroke="#666666" points="303,-93 190,-93 190,-74 303,-74 303,-93"/>
<text text-anchor="middle" x="246.5" y="-81" font-family="Arial" font-size="10.00">util::geometry::Sphere</text>
</a>
</g>
</g>
<!-- Node0&#45;&gt;Node13 -->
<g id="edge30_Node000000_Node000013" class="edge">
<title>Node0&#45;&gt;Node13</title>
<g id="a_edge30_Node000000_Node000013"><a xlink:title=" ">
<path fill="none" stroke="#63b8ff" d="M75.25,-261.03C87.16,-224.19 118.1,-144.25 173,-102.5 178.07,-98.64 183.86,-95.56 189.91,-93.11"/>
<polygon fill="#63b8ff" stroke="#63b8ff" points="71.9,-260.01 72.28,-270.6 78.59,-262.09 71.9,-260.01"/>
</a>
</g>
</g>
<!-- Node14 -->
<g id="Node000014" class="node">
<title>Node14</title>
<g id="a_Node000014"><a xlink:href="classutil_1_1geometry_1_1Square.html" target="_top" xlink:title="Defines Square.">
<polygon fill="white" stroke="#666666" points="303,-56 190,-56 190,-37 303,-37 303,-56"/>
<text text-anchor="middle" x="246.5" y="-44" font-family="Arial" font-size="10.00">util::geometry::Square</text>
</a>
</g>
</g>
<!-- Node0&#45;&gt;Node14 -->
<g id="edge31_Node000000_Node000014" class="edge">
<title>Node0&#45;&gt;Node14</title>
<g id="a_edge31_Node000000_Node000014"><a xlink:title=" ">
<path fill="none" stroke="#63b8ff" d="M73.24,-260.61C82.32,-218.03 109.61,-117.74 173,-65.5 178.02,-61.36 183.85,-58.12 189.97,-55.57"/>
<polygon fill="#63b8ff" stroke="#63b8ff" points="69.78,-260.07 71.23,-270.56 76.64,-261.45 69.78,-260.07"/>
</a>
</g>
</g>
<!-- Node15 -->
<g id="Node000015" class="node">
<title>Node15</title>
<g id="a_Node000015"><a xlink:href="classutil_1_1geometry_1_1Triangle.html" target="_top" xlink:title="Defines Triangle.">
<polygon fill="white" stroke="#666666" points="304.5,-19 188.5,-19 188.5,0 304.5,0 304.5,-19"/>
<text text-anchor="middle" x="246.5" y="-7" font-family="Arial" font-size="10.00">util::geometry::Triangle</text>
</a>
</g>
</g>
<!-- Node0&#45;&gt;Node15 -->
<g id="edge32_Node000000_Node000015" class="edge">
<title>Node0&#45;&gt;Node15</title>
<g id="a_edge32_Node000000_Node000015"><a xlink:title=" ">
<path fill="none" stroke="#63b8ff" d="M71.7,-260.54C78.05,-212.87 100.81,-91.65 173,-28.5 177.51,-24.56 182.73,-21.42 188.28,-18.92"/>
<polygon fill="#63b8ff" stroke="#63b8ff" points="68.19,-260.41 70.45,-270.76 75.14,-261.26 68.19,-260.41"/>
</a>
</g>
</g>
</g>
</svg>
