<?xml version="1.0" encoding="UTF-8" standalone="no"?>
<!DOCTYPE svg PUBLIC "-//W3C//DTD SVG 1.1//EN"
 "http://www.w3.org/Graphics/SVG/1.1/DTD/svg11.dtd">
<!-- Generated by graphviz version 2.43.0 (0)
 -->
<!-- Title: Graphical Class Hierarchy Pages: 1 -->
<svg width="197pt" height="142pt"
 viewBox="0.00 0.00 197.00 142.00" xmlns="http://www.w3.org/2000/svg" xmlns:xlink="http://www.w3.org/1999/xlink">
<g id="graph0" class="graph" transform="scale(1 1) rotate(0) translate(4 138)">
<title>Graphical Class Hierarchy</title>
<!-- Node0 -->
<g id="node1" class="node">
<title>Node0</title>
<g id="a_node1"><a xlink:href="classfe_1_1BaseElem.html" target="_top" xlink:title="A base class which provides methods to map points to/from reference element and to compute quadrature...">
<polygon fill="none" stroke="black" points="0,-57.5 0,-76.5 76,-76.5 76,-57.5 0,-57.5"/>
<text text-anchor="middle" x="38" y="-64.5" font-family="Arial" font-size="10.00">fe::BaseElem</text>
</a>
</g>
</g>
<!-- Node1 -->
<g id="node2" class="node">
<title>Node1</title>
<g id="a_node2"><a xlink:href="classfe_1_1LineElem.html" target="_top" xlink:title="A class for mapping and quadrature related operations for linear 2&#45;node line element.">
<polygon fill="none" stroke="black" points="115,-114.5 115,-133.5 186,-133.5 186,-114.5 115,-114.5"/>
<text text-anchor="middle" x="150.5" y="-121.5" font-family="Arial" font-size="10.00">fe::LineElem</text>
</a>
</g>
</g>
<!-- Node0&#45;&gt;Node1 -->
<g id="edge1" class="edge">
<title>Node0&#45;&gt;Node1</title>
<path fill="none" stroke="midnightblue" d="M66.2,-81.25C79.91,-88.41 96.82,-97.2 112,-105 117.97,-108.07 124.5,-111.38 130.4,-114.37"/>
<polygon fill="midnightblue" stroke="midnightblue" points="67.76,-78.11 57.27,-76.58 64.51,-84.32 67.76,-78.11"/>
</g>
<!-- Node2 -->
<g id="node3" class="node">
<title>Node2</title>
<g id="a_node3"><a xlink:href="classfe_1_1QuadElem.html" target="_top" xlink:title="A class for mapping and quadrature related operations for bi&#45;linear quadrangle element.">
<polygon fill="none" stroke="black" points="112,-76.5 112,-95.5 189,-95.5 189,-76.5 112,-76.5"/>
<text text-anchor="middle" x="150.5" y="-83.5" font-family="Arial" font-size="10.00">fe::QuadElem</text>
</a>
</g>
</g>
<!-- Node0&#45;&gt;Node2 -->
<g id="edge2" class="edge">
<title>Node0&#45;&gt;Node2</title>
<path fill="none" stroke="midnightblue" d="M86.07,-75.09C94.7,-76.58 103.62,-78.11 111.93,-79.54"/>
<polygon fill="midnightblue" stroke="midnightblue" points="86.55,-71.62 76.1,-73.38 85.36,-78.52 86.55,-71.62"/>
</g>
<!-- Node3 -->
<g id="node4" class="node">
<title>Node3</title>
<g id="a_node4"><a xlink:href="classfe_1_1TetElem.html" target="_top" xlink:title="A class for mapping and quadrature related operations for linear tetrahedron element.">
<polygon fill="none" stroke="black" points="117,-38.5 117,-57.5 184,-57.5 184,-38.5 117,-38.5"/>
<text text-anchor="middle" x="150.5" y="-45.5" font-family="Arial" font-size="10.00">fe::TetElem</text>
</a>
</g>
</g>
<!-- Node0&#45;&gt;Node3 -->
<g id="edge3" class="edge">
<title>Node0&#45;&gt;Node3</title>
<path fill="none" stroke="midnightblue" d="M86.21,-58.88C96.5,-57.11 107.18,-55.28 116.76,-53.63"/>
<polygon fill="midnightblue" stroke="midnightblue" points="85.36,-55.48 76.1,-60.62 86.55,-62.38 85.36,-55.48"/>
</g>
<!-- Node4 -->
<g id="node5" class="node">
<title>Node4</title>
<g id="a_node5"><a xlink:href="classfe_1_1TriElem.html" target="_top" xlink:title="A class for mapping and quadrature related operations for linear triangle element.">
<polygon fill="none" stroke="black" points="118,-0.5 118,-19.5 183,-19.5 183,-0.5 118,-0.5"/>
<text text-anchor="middle" x="150.5" y="-7.5" font-family="Arial" font-size="10.00">fe::TriElem</text>
</a>
</g>
</g>
<!-- Node0&#45;&gt;Node4 -->
<g id="edge4" class="edge">
<title>Node0&#45;&gt;Node4</title>
<path fill="none" stroke="midnightblue" d="M66.2,-52.75C79.91,-45.59 96.82,-36.8 112,-29 117.97,-25.93 124.5,-22.62 130.4,-19.63"/>
<polygon fill="midnightblue" stroke="midnightblue" points="64.51,-49.68 57.27,-57.42 67.76,-55.89 64.51,-49.68"/>
</g>
</g>
</svg>
