<?xml version="1.0" encoding="UTF-8" standalone="no"?>
<!DOCTYPE svg PUBLIC "-//W3C//DTD SVG 1.1//EN"
 "http://www.w3.org/Graphics/SVG/1.1/DTD/svg11.dtd">
<!-- Generated by graphviz version 2.43.0 (0)
 -->
<!-- Title: Graphical Class Hierarchy Pages: 1 -->
<svg width="292pt" height="64pt"
 viewBox="0.00 0.00 292.00 64.00" xmlns="http://www.w3.org/2000/svg" xmlns:xlink="http://www.w3.org/1999/xlink">
<g id="graph0" class="graph" transform="scale(1 1) rotate(0) translate(4 60)">
<title>Graphical Class Hierarchy</title>
<!-- Node0 -->
<g id="Node000000" class="node">
<title>Node0</title>
<g id="a_Node000000"><a xlink:href="classloading_1_1ParticleLoading.html" target="_top" xlink:title="A base class to apply displacement and force boundary condition.">
<polygon fill="white" stroke="#666666" points="120,-37 0,-37 0,-18 120,-18 120,-37"/>
<text text-anchor="middle" x="60" y="-25" font-family="Arial" font-size="10.00">loading::ParticleLoading</text>
</a>
</g>
</g>
<!-- Node1 -->
<g id="Node000001" class="node">
<title>Node1</title>
<g id="a_Node000001"><a xlink:href="classloading_1_1ParticleFLoading.html" target="_top" xlink:title="A class to apply force boundary condition.">
<polygon fill="white" stroke="#666666" points="283,-56 157,-56 157,-37 283,-37 283,-56"/>
<text text-anchor="middle" x="220" y="-44" font-family="Arial" font-size="10.00">loading::ParticleFLoading</text>
</a>
</g>
</g>
<!-- Node0&#45;&gt;Node1 -->
<g id="edge5_Node000000_Node000001" class="edge">
<title>Node0&#45;&gt;Node1</title>
<g id="a_edge5_Node000000_Node000001"><a xlink:title=" ">
<path fill="none" stroke="#63b8ff" d="M130.46,-35.85C139.21,-36.9 148.12,-37.98 156.75,-39.01"/>
<polygon fill="#63b8ff" stroke="#63b8ff" points="130.63,-32.35 120.28,-34.63 129.79,-39.3 130.63,-32.35"/>
</a>
</g>
</g>
<!-- Node2 -->
<g id="Node000002" class="node">
<title>Node2</title>
<g id="a_Node000002"><a xlink:href="classloading_1_1ParticleULoading.html" target="_top" xlink:title="A class to apply displacement boundary condition.">
<polygon fill="white" stroke="#666666" points="284,-19 156,-19 156,0 284,0 284,-19"/>
<text text-anchor="middle" x="220" y="-7" font-family="Arial" font-size="10.00">loading::ParticleULoading</text>
</a>
</g>
</g>
<!-- Node0&#45;&gt;Node2 -->
<g id="edge6_Node000000_Node000002" class="edge">
<title>Node0&#45;&gt;Node2</title>
<g id="a_edge6_Node000000_Node000002"><a xlink:title=" ">
<path fill="none" stroke="#63b8ff" d="M130.23,-19.61C138.78,-18.64 147.49,-17.65 155.95,-16.68"/>
<polygon fill="#63b8ff" stroke="#63b8ff" points="129.82,-16.14 120.28,-20.75 130.61,-23.09 129.82,-16.14"/>
</a>
</g>
</g>
</g>
</svg>
