<?xml version="1.0" encoding="UTF-8" standalone="no"?>
<!DOCTYPE svg PUBLIC "-//W3C//DTD SVG 1.1//EN"
 "http://www.w3.org/Graphics/SVG/1.1/DTD/svg11.dtd">
<!-- Generated by graphviz version 2.43.0 (0)
 -->
<!-- Title: Graphical Class Hierarchy Pages: 1 -->
<svg width="248pt" height="138pt"
 viewBox="0.00 0.00 248.00 138.00" xmlns="http://www.w3.org/2000/svg" xmlns:xlink="http://www.w3.org/1999/xlink">
<g id="graph0" class="graph" transform="scale(1 1) rotate(0) translate(4 134)">
<title>Graphical Class Hierarchy</title>
<!-- Node0 -->
<g id="Node000000" class="node">
<title>Node0</title>
<g id="a_Node000000"><a xlink:href="classmaterial_1_1Material.html" target="_top" xlink:title="Collection of methods and database related to peridynamic material.">
<polygon fill="white" stroke="#666666" points="92,-74 0,-74 0,-55 92,-55 92,-74"/>
<text text-anchor="middle" x="46" y="-62" font-family="Arial" font-size="10.00">material::Material</text>
</a>
</g>
</g>
<!-- Node1 -->
<g id="Node000001" class="node">
<title>Node1</title>
<g id="a_Node000001"><a xlink:href="classmaterial_1_1PdElastic.html" target="_top" xlink:title="A class providing methods to compute energy density and force of peridynamic material.">
<polygon fill="white" stroke="#666666" points="233.5,-130 134.5,-130 134.5,-111 233.5,-111 233.5,-130"/>
<text text-anchor="middle" x="184" y="-118" font-family="Arial" font-size="10.00">material::PdElastic</text>
</a>
</g>
</g>
<!-- Node0&#45;&gt;Node1 -->
<g id="edge10_Node000000_Node000001" class="edge">
<title>Node0&#45;&gt;Node1</title>
<g id="a_edge10_Node000000_Node000001"><a xlink:title=" ">
<path fill="none" stroke="#63b8ff" d="M74.73,-78.54C90.2,-86.11 109.94,-95.34 128,-102.5 135.57,-105.5 143.85,-108.4 151.64,-110.97"/>
<polygon fill="#63b8ff" stroke="#63b8ff" points="76.21,-75.37 65.7,-74.07 73.11,-81.64 76.21,-75.37"/>
</a>
</g>
</g>
<!-- Node2 -->
<g id="Node000002" class="node">
<title>Node2</title>
<g id="a_Node000002"><a xlink:href="classmaterial_1_1PdState.html" target="_top" xlink:title="A class providing methods to compute energy density and force of peridynamic material.">
<polygon fill="white" stroke="#666666" points="230,-93 138,-93 138,-74 230,-74 230,-93"/>
<text text-anchor="middle" x="184" y="-81" font-family="Arial" font-size="10.00">material::PdState</text>
</a>
</g>
</g>
<!-- Node0&#45;&gt;Node2 -->
<g id="edge11_Node000000_Node000002" class="edge">
<title>Node0&#45;&gt;Node2</title>
<g id="a_edge11_Node000000_Node000002"><a xlink:title=" ">
<path fill="none" stroke="#63b8ff" d="M102.47,-72.25C114.26,-73.9 126.57,-75.62 137.91,-77.2"/>
<polygon fill="#63b8ff" stroke="#63b8ff" points="102.67,-68.74 92.29,-70.83 101.71,-75.68 102.67,-68.74"/>
</a>
</g>
</g>
<!-- Node3 -->
<g id="Node000003" class="node">
<title>Node3</title>
<g id="a_Node000003"><a xlink:href="classmaterial_1_1PmbMaterial.html" target="_top" xlink:title="A class providing methods to compute energy density and force of peridynamic material.">
<polygon fill="white" stroke="#666666" points="240,-56 128,-56 128,-37 240,-37 240,-56"/>
<text text-anchor="middle" x="184" y="-44" font-family="Arial" font-size="10.00">material::PmbMaterial</text>
</a>
</g>
</g>
<!-- Node0&#45;&gt;Node3 -->
<g id="edge12_Node000000_Node000003" class="edge">
<title>Node0&#45;&gt;Node3</title>
<g id="a_edge12_Node000000_Node000003"><a xlink:title=" ">
<path fill="none" stroke="#63b8ff" d="M102.41,-57.17C110.85,-56.05 119.55,-54.9 127.98,-53.78"/>
<polygon fill="#63b8ff" stroke="#63b8ff" points="101.74,-53.72 92.29,-58.51 102.66,-60.66 101.74,-53.72"/>
</a>
</g>
</g>
<!-- Node4 -->
<g id="Node000004" class="node">
<title>Node4</title>
<g id="a_Node000004"><a xlink:href="classmaterial_1_1RnpMaterial.html" target="_top" xlink:title="A class providing methods to compute energy density and force of peridynamic material.">
<polygon fill="white" stroke="#666666" points="239,-19 129,-19 129,0 239,0 239,-19"/>
<text text-anchor="middle" x="184" y="-7" font-family="Arial" font-size="10.00">material::RnpMaterial</text>
</a>
</g>
</g>
<!-- Node0&#45;&gt;Node4 -->
<g id="edge13_Node000000_Node000004" class="edge">
<title>Node0&#45;&gt;Node4</title>
<g id="a_edge13_Node000000_Node000004"><a xlink:title=" ">
<path fill="none" stroke="#63b8ff" d="M76.52,-50.65C91.76,-43.69 110.74,-35.3 128,-28.5 136.27,-25.24 145.35,-21.98 153.71,-19.1"/>
<polygon fill="#63b8ff" stroke="#63b8ff" points="74.72,-47.63 67.1,-54.99 77.65,-53.98 74.72,-47.63"/>
</a>
</g>
</g>
</g>
</svg>
