<?xml version="1.0" encoding="UTF-8" standalone="no"?>
<!DOCTYPE svg PUBLIC "-//W3C//DTD SVG 1.1//EN"
 "http://www.w3.org/Graphics/SVG/1.1/DTD/svg11.dtd">
<!-- Generated by graphviz version 2.43.0 (0)
 -->
<!-- Title: Graphical Class Hierarchy Pages: 1 -->
<svg width="399pt" height="64pt"
 viewBox="0.00 0.00 399.00 64.00" xmlns="http://www.w3.org/2000/svg" xmlns:xlink="http://www.w3.org/1999/xlink">
<g id="graph0" class="graph" transform="scale(1 1) rotate(0) translate(4 60)">
<title>Graphical Class Hierarchy</title>
<!-- Node0 -->
<g id="Node000000" class="node">
<title>Node0</title>
<g id="a_Node000000"><a xlink:href="classmodel_1_1ModelData.html" target="_top" xlink:title="A class to store model data.">
<polygon fill="white" stroke="#666666" points="96,-37 0,-37 0,-18 96,-18 96,-37"/>
<text text-anchor="middle" x="48" y="-25" font-family="Arial" font-size="10.00">model::ModelData</text>
</a>
</g>
</g>
<!-- Node1 -->
<g id="Node000001" class="node">
<title>Node1</title>
<g id="a_Node000001"><a xlink:href="classmodel_1_1DEMModel.html" target="_top" xlink:title="A class for discrete element particle simulation with peridynamic model">
<polygon fill="white" stroke="#666666" points="230,-37 132,-37 132,-18 230,-18 230,-37"/>
<text text-anchor="middle" x="181" y="-25" font-family="Arial" font-size="10.00">model::DEMModel</text>
</a>
</g>
</g>
<!-- Node0&#45;&gt;Node1 -->
<g id="edge14_Node000000_Node000001" class="edge">
<title>Node0&#45;&gt;Node1</title>
<g id="a_edge14_Node000000_Node000001"><a xlink:title=" ">
<path fill="none" stroke="#63b8ff" d="M106.5,-27.5C114.98,-27.5 123.64,-27.5 131.89,-27.5"/>
<polygon fill="#63b8ff" stroke="#63b8ff" points="106.29,-24 96.29,-27.5 106.29,-31 106.29,-24"/>
</a>
</g>
</g>
<!-- Node2 -->
<g id="Node000002" class="node">
<title>Node2</title>
<g id="a_Node000002"><a xlink:href="classperidynamics_1_1Model.html" target="_top" xlink:title="Main model class to simulate peridynamics deformation of single particle.">
<polygon fill="white" stroke="#666666" points="382,-56 275,-56 275,-37 382,-37 382,-56"/>
<text text-anchor="middle" x="328.5" y="-44" font-family="Arial" font-size="10.00">peridynamics::Model</text>
</a>
</g>
</g>
<!-- Node1&#45;&gt;Node2 -->
<g id="edge15_Node000001_Node000002" class="edge">
<title>Node1&#45;&gt;Node2</title>
<g id="a_edge15_Node000001_Node000002"><a xlink:title=" ">
<path fill="none" stroke="#63b8ff" d="M240.03,-35.08C251.58,-36.59 263.64,-38.16 274.99,-39.64"/>
<polygon fill="#63b8ff" stroke="#63b8ff" points="240.41,-31.6 230.05,-33.77 239.51,-38.54 240.41,-31.6"/>
</a>
</g>
</g>
<!-- Node3 -->
<g id="Node000003" class="node">
<title>Node3</title>
<g id="a_Node000003"><a xlink:href="classtwoparticle__demo_1_1Model.html" target="_top" xlink:title="Main model class to handle demo two&#45;particle test implementation. Goal is to show that it is easy to ...">
<polygon fill="white" stroke="#666666" points="391,-19 266,-19 266,0 391,0 391,-19"/>
<text text-anchor="middle" x="328.5" y="-7" font-family="Arial" font-size="10.00">twoparticle_demo::Model</text>
</a>
</g>
</g>
<!-- Node1&#45;&gt;Node3 -->
<g id="edge16_Node000001_Node000003" class="edge">
<title>Node1&#45;&gt;Node3</title>
<g id="a_edge16_Node000001_Node000003"><a xlink:title=" ">
<path fill="none" stroke="#63b8ff" d="M240.15,-20.31C248.57,-19.26 257.26,-18.19 265.75,-17.14"/>
<polygon fill="#63b8ff" stroke="#63b8ff" points="239.54,-16.85 230.05,-21.56 240.4,-23.8 239.54,-16.85"/>
</a>
</g>
</g>
</g>
</svg>
