<?xml version="1.0" encoding="UTF-8" standalone="no"?>
<!DOCTYPE svg PUBLIC "-//W3C//DTD SVG 1.1//EN"
 "http://www.w3.org/Graphics/SVG/1.1/DTD/svg11.dtd">
<!-- Generated by graphviz version 2.43.0 (0)
 -->
<!-- Title: /home/user/project/src/inp/input.cpp Pages: 1 -->
<svg width="1528pt" height="375pt"
 viewBox="0.00 0.00 1527.50 375.00" xmlns="http://www.w3.org/2000/svg" xmlns:xlink="http://www.w3.org/1999/xlink">
<g id="graph0" class="graph" transform="scale(1 1) rotate(0) translate(4 371)">
<title>/home/user/project/src/inp/input.cpp</title>
<!-- Node1 -->
<g id="node1" class="node">
<title>Node1</title>
<g id="a_node1"><a xlink:title=" ">
<polygon fill="#bfbfbf" stroke="black" points="567,-336.5 567,-366.5 665,-366.5 665,-336.5 567,-336.5"/>
<text text-anchor="start" x="575" y="-354.5" font-family="Arial" font-size="10.00">/home/user/project</text>
<text text-anchor="middle" x="616" y="-343.5" font-family="Arial" font-size="10.00">/src/inp/input.cpp</text>
</a>
</g>
</g>
<!-- Node2 -->
<g id="node2" class="node">
<title>Node2</title>
<g id="a_node2"><a xlink:href="input_8h.html" target="_top" xlink:title=" ">
<polygon fill="none" stroke="black" points="282,-168.5 282,-187.5 328,-187.5 328,-168.5 282,-168.5"/>
<text text-anchor="middle" x="305" y="-175.5" font-family="Arial" font-size="10.00">input.h</text>
</a>
</g>
</g>
<!-- Node1&#45;&gt;Node2 -->
<g id="edge1" class="edge">
<title>Node1&#45;&gt;Node2</title>
<path fill="none" stroke="midnightblue" d="M581.59,-336.48C558.91,-326.91 528.77,-313.56 503,-300 436.57,-265.04 361.94,-216.86 326.24,-193.23"/>
<polygon fill="midnightblue" stroke="midnightblue" points="327.91,-190.14 317.64,-187.51 324.03,-195.97 327.91,-190.14"/>
</g>
<!-- Node6 -->
<g id="node6" class="node">
<title>Node6</title>
<g id="a_node6"><a xlink:href="materialDeck_8h.html" target="_top" xlink:title=" ">
<polygon fill="none" stroke="black" points="482,-168.5 482,-187.5 594,-187.5 594,-168.5 482,-168.5"/>
<text text-anchor="middle" x="538" y="-175.5" font-family="Arial" font-size="10.00">decks/materialDeck.h</text>
</a>
</g>
</g>
<!-- Node1&#45;&gt;Node6 -->
<g id="edge5" class="edge">
<title>Node1&#45;&gt;Node6</title>
<path fill="none" stroke="midnightblue" d="M594.69,-336.19C569.88,-318.1 530.22,-284.39 514,-244 507.52,-227.86 516.02,-209.21 524.64,-196.04"/>
<polygon fill="midnightblue" stroke="midnightblue" points="527.49,-198.07 530.45,-187.89 521.8,-194 527.49,-198.07"/>
</g>
<!-- Node9 -->
<g id="node9" class="node">
<title>Node9</title>
<g id="a_node9"><a xlink:title=" ">
<polygon fill="none" stroke="#bfbfbf" points="920,-0.5 920,-19.5 964,-19.5 964,-0.5 920,-0.5"/>
<text text-anchor="middle" x="942" y="-7.5" font-family="Arial" font-size="10.00">cmath</text>
</a>
</g>
</g>
<!-- Node1&#45;&gt;Node9 -->
<g id="edge64" class="edge">
<title>Node1&#45;&gt;Node9</title>
<path fill="none" stroke="midnightblue" d="M665.32,-348.12C781.18,-341.17 1061,-316.01 1061,-235 1061,-235 1061,-235 1061,-177 1061,-110.6 997.32,-52.52 963.13,-26.11"/>
<polygon fill="midnightblue" stroke="midnightblue" points="964.83,-23.02 954.74,-19.81 960.63,-28.61 964.83,-23.02"/>
</g>
<!-- Node12 -->
<g id="node12" class="node">
<title>Node12</title>
<g id="a_node12"><a xlink:title=" ">
<polygon fill="none" stroke="#bfbfbf" points="989,-0.5 989,-19.5 1043,-19.5 1043,-0.5 989,-0.5"/>
<text text-anchor="middle" x="1016" y="-7.5" font-family="Arial" font-size="10.00">iostream</text>
</a>
</g>
</g>
<!-- Node1&#45;&gt;Node12 -->
<g id="edge65" class="edge">
<title>Node1&#45;&gt;Node12</title>
<path fill="none" stroke="midnightblue" d="M665.06,-350.06C753.14,-348.25 943.34,-339.61 1098,-300 1170.37,-281.47 1253,-309.7 1253,-235 1253,-235 1253,-235 1253,-121 1253,-90.9 1256.12,-76.41 1234,-56 1208.11,-32.12 1108.59,-19.44 1053.4,-14.11"/>
<polygon fill="midnightblue" stroke="midnightblue" points="1053.6,-10.61 1043.32,-13.17 1052.95,-17.58 1053.6,-10.61"/>
</g>
<!-- Node18 -->
<g id="node18" class="node">
<title>Node18</title>
<g id="a_node18"><a xlink:href="modelDeck_8h.html" target="_top" xlink:title=" ">
<polygon fill="none" stroke="black" points="0,-224.5 0,-243.5 104,-243.5 104,-224.5 0,-224.5"/>
<text text-anchor="middle" x="52" y="-231.5" font-family="Arial" font-size="10.00">decks/modelDeck.h</text>
</a>
</g>
</g>
<!-- Node1&#45;&gt;Node18 -->
<g id="edge25" class="edge">
<title>Node1&#45;&gt;Node18</title>
<path fill="none" stroke="midnightblue" d="M566.85,-347.69C465.23,-341.44 235.3,-324.96 161,-300 126.8,-288.51 91.75,-265.12 70.93,-249.76"/>
<polygon fill="midnightblue" stroke="midnightblue" points="72.77,-246.76 62.68,-243.53 68.55,-252.35 72.77,-246.76"/>
</g>
<!-- Node19 -->
<g id="node19" class="node">
<title>Node19</title>
<g id="a_node19"><a xlink:href="outputDeck_8h.html" target="_top" xlink:title=" ">
<polygon fill="none" stroke="black" points="160,-168.5 160,-187.5 264,-187.5 264,-168.5 160,-168.5"/>
<text text-anchor="middle" x="212" y="-175.5" font-family="Arial" font-size="10.00">decks/outputDeck.h</text>
</a>
</g>
</g>
<!-- Node1&#45;&gt;Node19 -->
<g id="edge27" class="edge">
<title>Node1&#45;&gt;Node19</title>
<path fill="none" stroke="midnightblue" d="M568.21,-336.49C537.74,-327.12 497.62,-313.99 463,-300 377.96,-265.64 281.22,-215.81 236.74,-192.27"/>
<polygon fill="midnightblue" stroke="midnightblue" points="238.3,-189.13 227.82,-187.53 235.01,-195.31 238.3,-189.13"/>
</g>
<!-- Node20 -->
<g id="node20" class="node">
<title>Node20</title>
<g id="a_node20"><a xlink:href="restartDeck_8h.html" target="_top" xlink:title=" ">
<polygon fill="none" stroke="black" points="169.5,-280.5 169.5,-299.5 274.5,-299.5 274.5,-280.5 169.5,-280.5"/>
<text text-anchor="middle" x="222" y="-287.5" font-family="Arial" font-size="10.00">decks/restartDeck.h</text>
</a>
</g>
</g>
<!-- Node1&#45;&gt;Node20 -->
<g id="edge31" class="edge">
<title>Node1&#45;&gt;Node20</title>
<path fill="none" stroke="midnightblue" d="M566.9,-343.08C495.53,-332.31 363.13,-312.31 284.77,-300.48"/>
<polygon fill="midnightblue" stroke="midnightblue" points="284.96,-296.97 274.55,-298.94 283.92,-303.89 284.96,-296.97"/>
</g>
<!-- Node21 -->
<g id="node21" class="node">
<title>Node21</title>
<g id="a_node21"><a xlink:href="meshDeck_8h.html" target="_top" xlink:title=" ">
<polygon fill="none" stroke="black" points="346.5,-168.5 346.5,-187.5 463.5,-187.5 463.5,-168.5 346.5,-168.5"/>
<text text-anchor="middle" x="405" y="-175.5" font-family="Arial" font-size="10.00">inp/decks/meshDeck.h</text>
</a>
</g>
</g>
<!-- Node1&#45;&gt;Node21 -->
<g id="edge33" class="edge">
<title>Node1&#45;&gt;Node21</title>
<path fill="none" stroke="midnightblue" d="M588.57,-336.3C571.4,-326.92 549.17,-313.83 531,-300 487.18,-266.64 442.13,-219.73 419.64,-195.27"/>
<polygon fill="midnightblue" stroke="midnightblue" points="421.99,-192.65 412.67,-187.62 416.81,-197.37 421.99,-192.65"/>
</g>
<!-- Node22 -->
<g id="node22" class="node">
<title>Node22</title>
<g id="a_node22"><a xlink:href="contactDeck_8h.html" target="_top" xlink:title=" ">
<polygon fill="none" stroke="black" points="1281.5,-280.5 1281.5,-299.5 1412.5,-299.5 1412.5,-280.5 1281.5,-280.5"/>
<text text-anchor="middle" x="1347" y="-287.5" font-family="Arial" font-size="10.00">inp/pdecks/contactDeck.h</text>
</a>
</g>
</g>
<!-- Node1&#45;&gt;Node22 -->
<g id="edge36" class="edge">
<title>Node1&#45;&gt;Node22</title>
<path fill="none" stroke="midnightblue" d="M665.05,-347.28C773.62,-340.02 1042.42,-321.34 1267,-300 1268.29,-299.88 1269.59,-299.75 1270.91,-299.62"/>
<polygon fill="midnightblue" stroke="midnightblue" points="1271.5,-303.08 1281.1,-298.6 1270.8,-296.12 1271.5,-303.08"/>
</g>
<!-- Node23 -->
<g id="node23" class="node">
<title>Node23</title>
<g id="a_node23"><a xlink:href="particleDeck_8h.html" target="_top" xlink:title=" ">
<polygon fill="none" stroke="black" points="625,-280.5 625,-299.5 755,-299.5 755,-280.5 625,-280.5"/>
<text text-anchor="middle" x="690" y="-287.5" font-family="Arial" font-size="10.00">inp/pdecks/particleDeck.h</text>
</a>
</g>
</g>
<!-- Node1&#45;&gt;Node23 -->
<g id="edge37" class="edge">
<title>Node1&#45;&gt;Node23</title>
<path fill="none" stroke="midnightblue" d="M633.54,-336.4C644.84,-327.31 659.54,-315.49 671.11,-306.19"/>
<polygon fill="midnightblue" stroke="midnightblue" points="673.63,-308.65 679.23,-299.66 669.25,-303.2 673.63,-308.65"/>
</g>
<!-- Node32 -->
<g id="node32" class="node">
<title>Node32</title>
<g id="a_node32"><a xlink:href="methods_8h.html" target="_top" xlink:title=" ">
<polygon fill="none" stroke="black" points="1089,-112.5 1089,-131.5 1167,-131.5 1167,-112.5 1089,-112.5"/>
<text text-anchor="middle" x="1128" y="-119.5" font-family="Arial" font-size="10.00">util/methods.h</text>
</a>
</g>
</g>
<!-- Node1&#45;&gt;Node32 -->
<g id="edge66" class="edge">
<title>Node1&#45;&gt;Node32</title>
<path fill="none" stroke="midnightblue" d="M665.33,-348.12C777.42,-342.29 1043.98,-325.85 1075,-300 1122.81,-260.16 1128.59,-179.05 1128.59,-142.1"/>
<polygon fill="midnightblue" stroke="midnightblue" points="1132.09,-141.71 1128.43,-131.77 1125.09,-141.82 1132.09,-141.71"/>
</g>
<!-- Node36 -->
<g id="node36" class="node">
<title>Node36</title>
<g id="a_node36"><a xlink:title=" ">
<polygon fill="none" stroke="#bfbfbf" points="1430.5,-280.5 1430.5,-299.5 1519.5,-299.5 1519.5,-280.5 1430.5,-280.5"/>
<text text-anchor="middle" x="1475" y="-287.5" font-family="Arial" font-size="10.00">yaml&#45;cpp/yaml.h</text>
</a>
</g>
</g>
<!-- Node1&#45;&gt;Node36 -->
<g id="edge72" class="edge">
<title>Node1&#45;&gt;Node36</title>
<path fill="none" stroke="midnightblue" d="M665.23,-349.23C789.92,-345.61 1128.43,-333.38 1419.88,-300.14"/>
<polygon fill="midnightblue" stroke="midnightblue" points="1420.69,-303.57 1430.23,-298.94 1419.89,-296.61 1420.69,-303.57"/>
</g>
<!-- Node3 -->
<g id="node3" class="node">
<title>Node3</title>
<g id="a_node3"><a xlink:title=" ">
<polygon fill="none" stroke="#bfbfbf" points="207.5,-0.5 207.5,-19.5 248.5,-19.5 248.5,-0.5 207.5,-0.5"/>
<text text-anchor="middle" x="228" y="-7.5" font-family="Arial" font-size="10.00">string</text>
</a>
</g>
</g>
<!-- Node2&#45;&gt;Node3 -->
<g id="edge2" class="edge">
<title>Node2&#45;&gt;Node3</title>
<path fill="none" stroke="midnightblue" d="M289.98,-168.27C277.79,-160.38 261.17,-147.61 252,-132 232.98,-99.64 228.76,-54.88 227.98,-29.87"/>
<polygon fill="midnightblue" stroke="midnightblue" points="231.48,-29.54 227.83,-19.59 224.48,-29.64 231.48,-29.54"/>
</g>
<!-- Node4 -->
<g id="node4" class="node">
<title>Node4</title>
<g id="a_node4"><a xlink:title=" ">
<polygon fill="none" stroke="#bfbfbf" points="666,-0.5 666,-19.5 710,-19.5 710,-0.5 666,-0.5"/>
<text text-anchor="middle" x="688" y="-7.5" font-family="Arial" font-size="10.00">vector</text>
</a>
</g>
</g>
<!-- Node2&#45;&gt;Node4 -->
<g id="edge3" class="edge">
<title>Node2&#45;&gt;Node4</title>
<path fill="none" stroke="midnightblue" d="M328.02,-170.39C365.34,-159.55 435.94,-138.57 446,-132 483.7,-107.38 474.61,-79.54 513,-56 557.79,-28.54 618.87,-17.75 655.76,-13.57"/>
<polygon fill="midnightblue" stroke="midnightblue" points="656.35,-17.03 665.94,-12.52 655.63,-10.07 656.35,-17.03"/>
</g>
<!-- Node5 -->
<g id="node5" class="node">
<title>Node5</title>
<g id="a_node5"><a xlink:title=" ">
<polygon fill="none" stroke="#bfbfbf" points="626,-112.5 626,-131.5 678,-131.5 678,-112.5 626,-112.5"/>
<text text-anchor="middle" x="652" y="-119.5" font-family="Arial" font-size="10.00">memory</text>
</a>
</g>
</g>
<!-- Node2&#45;&gt;Node5 -->
<g id="edge4" class="edge">
<title>Node2&#45;&gt;Node5</title>
<path fill="none" stroke="midnightblue" d="M328.34,-170.21C331.57,-169.39 334.86,-168.63 338,-168 457.49,-144.12 492.46,-155.02 615.88,-132"/>
<polygon fill="midnightblue" stroke="midnightblue" points="616.54,-135.44 625.71,-130.13 615.23,-128.56 616.54,-135.44"/>
</g>
<!-- Node6&#45;&gt;Node3 -->
<g id="edge23" class="edge">
<title>Node6&#45;&gt;Node3</title>
<path fill="none" stroke="midnightblue" d="M517.11,-168.42C478.19,-152.15 392.35,-114.96 324,-76 296.53,-60.34 266.61,-39.42 247.61,-25.59"/>
<polygon fill="midnightblue" stroke="midnightblue" points="249.58,-22.7 239.45,-19.61 245.44,-28.34 249.58,-22.7"/>
</g>
<!-- Node6&#45;&gt;Node4 -->
<g id="edge24" class="edge">
<title>Node6&#45;&gt;Node4</title>
<path fill="none" stroke="midnightblue" d="M533.6,-168.29C523.42,-146.76 500.99,-90.28 527,-56 542.49,-35.59 613.18,-21.93 655.57,-15.42"/>
<polygon fill="midnightblue" stroke="midnightblue" points="656.31,-18.85 665.69,-13.91 655.28,-11.92 656.31,-18.85"/>
</g>
<!-- Node7 -->
<g id="node7" class="node">
<title>Node7</title>
<g id="a_node7"><a xlink:href="io_8h.html" target="_top" xlink:title=" ">
<polygon fill="none" stroke="black" points="560,-112.5 560,-131.5 608,-131.5 608,-112.5 560,-112.5"/>
<text text-anchor="middle" x="584" y="-119.5" font-family="Arial" font-size="10.00">util/io.h</text>
</a>
</g>
</g>
<!-- Node6&#45;&gt;Node7 -->
<g id="edge6" class="edge">
<title>Node6&#45;&gt;Node7</title>
<path fill="none" stroke="midnightblue" d="M545.6,-168.08C552.23,-160.3 562.02,-148.8 570.06,-139.37"/>
<polygon fill="midnightblue" stroke="midnightblue" points="572.73,-141.63 576.55,-131.75 567.4,-137.09 572.73,-141.63"/>
</g>
<!-- Node6&#45;&gt;Node9 -->
<g id="edge22" class="edge">
<title>Node6&#45;&gt;Node9</title>
<path fill="none" stroke="midnightblue" d="M594.12,-175.21C676.67,-171.63 825.85,-161.2 870,-132 907.09,-107.47 927.83,-56.69 936.72,-29.36"/>
<polygon fill="midnightblue" stroke="midnightblue" points="940.15,-30.12 939.73,-19.53 933.46,-28.07 940.15,-30.12"/>
</g>
<!-- Node7&#45;&gt;Node4 -->
<g id="edge20" class="edge">
<title>Node7&#45;&gt;Node4</title>
<path fill="none" stroke="midnightblue" d="M608.28,-113.96C627.41,-107.2 653.38,-95.15 669,-76 679.79,-62.77 684.45,-43.64 686.47,-29.56"/>
<polygon fill="midnightblue" stroke="midnightblue" points="689.95,-29.88 687.58,-19.55 682.99,-29.11 689.95,-29.88"/>
</g>
<!-- Node8 -->
<g id="node8" class="node">
<title>Node8</title>
<g id="a_node8"><a xlink:href="point_8h.html" target="_top" xlink:title=" ">
<polygon fill="none" stroke="black" points="830,-56.5 830,-75.5 876,-75.5 876,-56.5 830,-56.5"/>
<text text-anchor="middle" x="853" y="-63.5" font-family="Arial" font-size="10.00">point.h</text>
</a>
</g>
</g>
<!-- Node7&#45;&gt;Node8 -->
<g id="edge7" class="edge">
<title>Node7&#45;&gt;Node8</title>
<path fill="none" stroke="midnightblue" d="M608.09,-114.17C611.08,-113.4 614.1,-112.66 617,-112 704.66,-92.16 728.07,-94.63 816,-76 817.27,-75.73 818.57,-75.45 819.88,-75.16"/>
<polygon fill="midnightblue" stroke="midnightblue" points="821,-78.49 829.96,-72.83 819.42,-71.67 821,-78.49"/>
</g>
<!-- Node7&#45;&gt;Node12 -->
<g id="edge19" class="edge">
<title>Node7&#45;&gt;Node12</title>
<path fill="none" stroke="midnightblue" d="M608.14,-114.03C650.9,-101.76 742.81,-75.73 821,-56 875.74,-42.18 939.54,-27.78 978.86,-19.1"/>
<polygon fill="midnightblue" stroke="midnightblue" points="979.77,-22.48 988.79,-16.91 978.27,-15.64 979.77,-22.48"/>
</g>
<!-- Node13 -->
<g id="node13" class="node">
<title>Node13</title>
<g id="a_node13"><a xlink:href="parallelUtil_8h.html" target="_top" xlink:title=" ">
<polygon fill="none" stroke="black" points="332.5,-56.5 332.5,-75.5 403.5,-75.5 403.5,-56.5 332.5,-56.5"/>
<text text-anchor="middle" x="368" y="-63.5" font-family="Arial" font-size="10.00">parallelUtil.h</text>
</a>
</g>
</g>
<!-- Node7&#45;&gt;Node13 -->
<g id="edge13" class="edge">
<title>Node7&#45;&gt;Node13</title>
<path fill="none" stroke="midnightblue" d="M559.64,-114.91C523.92,-105.98 456.74,-89.18 412.17,-78.04"/>
<polygon fill="midnightblue" stroke="midnightblue" points="412.75,-74.58 402.2,-75.55 411.05,-81.37 412.75,-74.58"/>
</g>
<!-- Node16 -->
<g id="node16" class="node">
<title>Node16</title>
<g id="a_node16"><a xlink:title=" ">
<polygon fill="none" stroke="#bfbfbf" points="536,-56.5 536,-75.5 586,-75.5 586,-56.5 536,-56.5"/>
<text text-anchor="middle" x="561" y="-63.5" font-family="Arial" font-size="10.00">fstream</text>
</a>
</g>
</g>
<!-- Node7&#45;&gt;Node16 -->
<g id="edge18" class="edge">
<title>Node7&#45;&gt;Node16</title>
<path fill="none" stroke="midnightblue" d="M580.2,-112.08C577.09,-104.77 572.58,-94.18 568.71,-85.1"/>
<polygon fill="midnightblue" stroke="midnightblue" points="571.87,-83.58 564.73,-75.75 565.43,-86.32 571.87,-83.58"/>
</g>
<!-- Node17 -->
<g id="node17" class="node">
<title>Node17</title>
<g id="a_node17"><a xlink:title=" ">
<polygon fill="none" stroke="#bfbfbf" points="604,-56.5 604,-75.5 660,-75.5 660,-56.5 604,-56.5"/>
<text text-anchor="middle" x="632" y="-63.5" font-family="Arial" font-size="10.00">algorithm</text>
</a>
</g>
</g>
<!-- Node7&#45;&gt;Node17 -->
<g id="edge21" class="edge">
<title>Node7&#45;&gt;Node17</title>
<path fill="none" stroke="midnightblue" d="M591.93,-112.08C598.85,-104.3 609.07,-92.8 617.45,-83.37"/>
<polygon fill="midnightblue" stroke="midnightblue" points="620.19,-85.55 624.22,-75.75 614.96,-80.9 620.19,-85.55"/>
</g>
<!-- Node8&#45;&gt;Node4 -->
<g id="edge12" class="edge">
<title>Node8&#45;&gt;Node4</title>
<path fill="none" stroke="midnightblue" d="M829.71,-57.38C801.01,-47.99 752.12,-31.98 719.93,-21.45"/>
<polygon fill="midnightblue" stroke="midnightblue" points="720.71,-18.02 710.12,-18.24 718.53,-24.68 720.71,-18.02"/>
</g>
<!-- Node8&#45;&gt;Node9 -->
<g id="edge8" class="edge">
<title>Node8&#45;&gt;Node9</title>
<path fill="none" stroke="midnightblue" d="M867.3,-56.32C881.18,-47.9 902.49,-34.97 918.8,-25.07"/>
<polygon fill="midnightblue" stroke="midnightblue" points="921,-27.83 927.74,-19.65 917.37,-21.85 921,-27.83"/>
</g>
<!-- Node10 -->
<g id="node10" class="node">
<title>Node10</title>
<g id="a_node10"><a xlink:title=" ">
<polygon fill="none" stroke="#bfbfbf" points="770,-0.5 770,-19.5 820,-19.5 820,-0.5 770,-0.5"/>
<text text-anchor="middle" x="795" y="-7.5" font-family="Arial" font-size="10.00">iomanip</text>
</a>
</g>
</g>
<!-- Node8&#45;&gt;Node10 -->
<g id="edge9" class="edge">
<title>Node8&#45;&gt;Node10</title>
<path fill="none" stroke="midnightblue" d="M843.68,-56.32C835.11,-48.34 822.19,-36.31 811.81,-26.65"/>
<polygon fill="midnightblue" stroke="midnightblue" points="814.19,-24.09 804.49,-19.83 809.42,-29.21 814.19,-24.09"/>
</g>
<!-- Node11 -->
<g id="node11" class="node">
<title>Node11</title>
<g id="a_node11"><a xlink:title=" ">
<polygon fill="none" stroke="#bfbfbf" points="838,-0.5 838,-19.5 890,-19.5 890,-0.5 838,-0.5"/>
<text text-anchor="middle" x="864" y="-7.5" font-family="Arial" font-size="10.00">sstream</text>
</a>
</g>
</g>
<!-- Node8&#45;&gt;Node11 -->
<g id="edge10" class="edge">
<title>Node8&#45;&gt;Node11</title>
<path fill="none" stroke="midnightblue" d="M854.82,-56.08C856.27,-48.93 858.37,-38.64 860.19,-29.69"/>
<polygon fill="midnightblue" stroke="midnightblue" points="863.65,-30.25 862.22,-19.75 856.79,-28.85 863.65,-30.25"/>
</g>
<!-- Node8&#45;&gt;Node12 -->
<g id="edge11" class="edge">
<title>Node8&#45;&gt;Node12</title>
<path fill="none" stroke="midnightblue" d="M876.01,-57.38C903.17,-48.38 948.65,-33.31 980.37,-22.8"/>
<polygon fill="midnightblue" stroke="midnightblue" points="981.76,-26.03 990.15,-19.56 979.56,-19.39 981.76,-26.03"/>
</g>
<!-- Node13&#45;&gt;Node3 -->
<g id="edge15" class="edge">
<title>Node13&#45;&gt;Node3</title>
<path fill="none" stroke="midnightblue" d="M345.82,-56.44C322.16,-47.32 284.55,-32.81 258.2,-22.65"/>
<polygon fill="midnightblue" stroke="midnightblue" points="259.3,-19.32 248.71,-18.99 256.78,-25.85 259.3,-19.32"/>
</g>
<!-- Node13&#45;&gt;Node4 -->
<g id="edge16" class="edge">
<title>Node13&#45;&gt;Node4</title>
<path fill="none" stroke="midnightblue" d="M403.77,-58.5C408.55,-57.65 413.39,-56.8 418,-56 503.9,-41.11 605.34,-24.45 655.93,-16.21"/>
<polygon fill="midnightblue" stroke="midnightblue" points="656.63,-19.64 665.93,-14.58 655.5,-12.73 656.63,-19.64"/>
</g>
<!-- Node14 -->
<g id="node14" class="node">
<title>Node14</title>
<g id="a_node14"><a xlink:title=" ">
<polygon fill="none" stroke="#bfbfbf" points="316.5,-0.5 316.5,-19.5 357.5,-19.5 357.5,-0.5 316.5,-0.5"/>
<text text-anchor="middle" x="337" y="-7.5" font-family="Arial" font-size="10.00">mpi.h</text>
</a>
</g>
</g>
<!-- Node13&#45;&gt;Node14 -->
<g id="edge14" class="edge">
<title>Node13&#45;&gt;Node14</title>
<path fill="none" stroke="midnightblue" d="M362.88,-56.08C358.59,-48.61 352.34,-37.72 347.06,-28.52"/>
<polygon fill="midnightblue" stroke="midnightblue" points="350.04,-26.68 342.02,-19.75 343.97,-30.17 350.04,-26.68"/>
</g>
<!-- Node15 -->
<g id="node15" class="node">
<title>Node15</title>
<g id="a_node15"><a xlink:title=" ">
<polygon fill="none" stroke="#bfbfbf" points="376,-0.5 376,-19.5 420,-19.5 420,-0.5 376,-0.5"/>
<text text-anchor="middle" x="398" y="-7.5" font-family="Arial" font-size="10.00">thread</text>
</a>
</g>
</g>
<!-- Node13&#45;&gt;Node15 -->
<g id="edge17" class="edge">
<title>Node13&#45;&gt;Node15</title>
<path fill="none" stroke="midnightblue" d="M372.95,-56.08C377.1,-48.61 383.15,-37.72 388.27,-28.52"/>
<polygon fill="midnightblue" stroke="midnightblue" points="391.34,-30.19 393.14,-19.75 385.22,-26.79 391.34,-30.19"/>
</g>
<!-- Node18&#45;&gt;Node3 -->
<g id="edge26" class="edge">
<title>Node18&#45;&gt;Node3</title>
<path fill="none" stroke="midnightblue" d="M52.8,-224.34C55.85,-196.22 69.16,-106.4 118,-56 139.36,-33.96 173.04,-22.34 197.5,-16.47"/>
<polygon fill="midnightblue" stroke="midnightblue" points="198.35,-19.87 207.36,-14.3 196.84,-13.03 198.35,-19.87"/>
</g>
<!-- Node19&#45;&gt;Node3 -->
<g id="edge29" class="edge">
<title>Node19&#45;&gt;Node3</title>
<path fill="none" stroke="midnightblue" d="M211.31,-168.42C209.89,-148.51 207.31,-97.7 214,-56 215.44,-47.01 218.27,-37.34 221.02,-29.27"/>
<polygon fill="midnightblue" stroke="midnightblue" points="224.34,-30.38 224.45,-19.79 217.75,-28 224.34,-30.38"/>
</g>
<!-- Node19&#45;&gt;Node4 -->
<g id="edge30" class="edge">
<title>Node19&#45;&gt;Node4</title>
<path fill="none" stroke="midnightblue" d="M228.23,-168.47C269.95,-146.85 384.73,-89.28 486,-56 544.59,-36.74 615.43,-23.08 655.75,-16.16"/>
<polygon fill="midnightblue" stroke="midnightblue" points="656.52,-19.58 665.8,-14.47 655.36,-12.68 656.52,-19.58"/>
</g>
<!-- Node19&#45;&gt;Node7 -->
<g id="edge28" class="edge">
<title>Node19&#45;&gt;Node7</title>
<path fill="none" stroke="midnightblue" d="M264.24,-169.28C267.2,-168.85 270.14,-168.42 273,-168 373.62,-153.3 492.59,-136.15 549.85,-127.91"/>
<polygon fill="midnightblue" stroke="midnightblue" points="550.4,-131.37 559.8,-126.48 549.41,-124.44 550.4,-131.37"/>
</g>
<!-- Node20&#45;&gt;Node3 -->
<g id="edge32" class="edge">
<title>Node20&#45;&gt;Node3</title>
<path fill="none" stroke="midnightblue" d="M207.54,-280.44C182.1,-264.16 132,-226.13 132,-179 132,-179 132,-179 132,-121 132,-77.54 175.06,-42.96 203.5,-24.85"/>
<polygon fill="midnightblue" stroke="midnightblue" points="205.44,-27.77 212.15,-19.56 201.79,-21.79 205.44,-27.77"/>
</g>
<!-- Node21&#45;&gt;Node3 -->
<g id="edge35" class="edge">
<title>Node21&#45;&gt;Node3</title>
<path fill="none" stroke="midnightblue" d="M363.32,-168.46C339.55,-161.83 310.51,-150.55 290,-132 273.56,-117.13 247.86,-58.93 235.35,-29"/>
<polygon fill="midnightblue" stroke="midnightblue" points="238.56,-27.61 231.51,-19.71 232.09,-30.28 238.56,-27.61"/>
</g>
<!-- Node21&#45;&gt;Node7 -->
<g id="edge34" class="edge">
<title>Node21&#45;&gt;Node7</title>
<path fill="none" stroke="midnightblue" d="M433.36,-168.44C464.99,-158.9 516.12,-143.48 549.9,-133.29"/>
<polygon fill="midnightblue" stroke="midnightblue" points="551.23,-136.54 559.79,-130.3 549.2,-129.84 551.23,-136.54"/>
</g>
<!-- Node23&#45;&gt;Node5 -->
<g id="edge63" class="edge">
<title>Node23&#45;&gt;Node5</title>
<path fill="none" stroke="midnightblue" d="M731.77,-280.42C766.53,-271.06 808.07,-253.34 793,-224 770.39,-180 718.74,-150.88 684.62,-135.66"/>
<polygon fill="midnightblue" stroke="midnightblue" points="685.65,-132.29 675.08,-131.56 682.88,-138.72 685.65,-132.29"/>
</g>
<!-- Node24 -->
<g id="node24" class="node">
<title>Node24</title>
<g id="a_node24"><a xlink:href="zoneDeck_8h.html" target="_top" xlink:title=" ">
<polygon fill="none" stroke="black" points="522.5,-224.5 522.5,-243.5 591.5,-243.5 591.5,-224.5 522.5,-224.5"/>
<text text-anchor="middle" x="557" y="-231.5" font-family="Arial" font-size="10.00">zoneDeck.h</text>
</a>
</g>
</g>
<!-- Node23&#45;&gt;Node24 -->
<g id="edge38" class="edge">
<title>Node23&#45;&gt;Node24</title>
<path fill="none" stroke="midnightblue" d="M668.93,-280.44C646.94,-271.52 612.27,-257.44 587.34,-247.32"/>
<polygon fill="midnightblue" stroke="midnightblue" points="588.56,-244.04 577.98,-243.52 585.92,-250.52 588.56,-244.04"/>
</g>
<!-- Node29 -->
<g id="node29" class="node">
<title>Node29</title>
<g id="a_node29"><a xlink:href="pNeighborDeck_8h.html" target="_top" xlink:title=" ">
<polygon fill="none" stroke="black" points="692,-224.5 692,-243.5 784,-243.5 784,-224.5 692,-224.5"/>
<text text-anchor="middle" x="738" y="-231.5" font-family="Arial" font-size="10.00">pNeighborDeck.h</text>
</a>
</g>
</g>
<!-- Node23&#45;&gt;Node29 -->
<g id="edge55" class="edge">
<title>Node23&#45;&gt;Node29</title>
<path fill="none" stroke="midnightblue" d="M697.93,-280.08C704.85,-272.3 715.07,-260.8 723.45,-251.37"/>
<polygon fill="midnightblue" stroke="midnightblue" points="726.19,-253.55 730.22,-243.75 720.96,-248.9 726.19,-253.55"/>
</g>
<!-- Node30 -->
<g id="node30" class="node">
<title>Node30</title>
<g id="a_node30"><a xlink:href="pBCData_8h.html" target="_top" xlink:title=" ">
<polygon fill="none" stroke="black" points="840.5,-224.5 840.5,-243.5 905.5,-243.5 905.5,-224.5 840.5,-224.5"/>
<text text-anchor="middle" x="873" y="-231.5" font-family="Arial" font-size="10.00">pBCData.h</text>
</a>
</g>
</g>
<!-- Node23&#45;&gt;Node30 -->
<g id="edge57" class="edge">
<title>Node23&#45;&gt;Node30</title>
<path fill="none" stroke="midnightblue" d="M719,-280.44C750.18,-271.24 799.93,-256.56 834.41,-246.39"/>
<polygon fill="midnightblue" stroke="midnightblue" points="835.54,-249.7 844.14,-243.52 833.56,-242.99 835.54,-249.7"/>
</g>
<!-- Node31 -->
<g id="node31" class="node">
<title>Node31</title>
<g id="a_node31"><a xlink:href="pICDeck_8h.html" target="_top" xlink:title=" ">
<polygon fill="none" stroke="black" points="610,-224.5 610,-243.5 674,-243.5 674,-224.5 610,-224.5"/>
<text text-anchor="middle" x="642" y="-231.5" font-family="Arial" font-size="10.00">pICDeck.h</text>
</a>
</g>
</g>
<!-- Node23&#45;&gt;Node31 -->
<g id="edge61" class="edge">
<title>Node23&#45;&gt;Node31</title>
<path fill="none" stroke="midnightblue" d="M682.07,-280.08C675.15,-272.3 664.93,-260.8 656.55,-251.37"/>
<polygon fill="midnightblue" stroke="midnightblue" points="659.04,-248.9 649.78,-243.75 653.81,-253.55 659.04,-248.9"/>
</g>
<!-- Node24&#45;&gt;Node5 -->
<g id="edge54" class="edge">
<title>Node24&#45;&gt;Node5</title>
<path fill="none" stroke="midnightblue" d="M572.31,-224.43C585.67,-216.38 604.9,-203.29 618,-188 630.02,-173.98 639.33,-154.98 645.15,-141.15"/>
<polygon fill="midnightblue" stroke="midnightblue" points="648.45,-142.33 648.9,-131.74 641.94,-139.73 648.45,-142.33"/>
</g>
<!-- Node24&#45;&gt;Node6 -->
<g id="edge39" class="edge">
<title>Node24&#45;&gt;Node6</title>
<path fill="none" stroke="midnightblue" d="M553.86,-224.08C551.32,-216.85 547.64,-206.41 544.47,-197.4"/>
<polygon fill="midnightblue" stroke="midnightblue" points="547.7,-196.02 541.08,-187.75 541.1,-198.35 547.7,-196.02"/>
</g>
<!-- Node24&#45;&gt;Node7 -->
<g id="edge53" class="edge">
<title>Node24&#45;&gt;Node7</title>
<path fill="none" stroke="midnightblue" d="M570.79,-224.19C581.83,-216.24 596.5,-203.45 603,-188 609.6,-172.3 602.65,-153.56 595.37,-140.24"/>
<polygon fill="midnightblue" stroke="midnightblue" points="598.35,-138.4 590.2,-131.63 592.34,-142 598.35,-138.4"/>
</g>
<!-- Node24&#45;&gt;Node21 -->
<g id="edge40" class="edge">
<title>Node24&#45;&gt;Node21</title>
<path fill="none" stroke="midnightblue" d="M532.92,-224.44C507.46,-215.4 467.11,-201.06 438.54,-190.92"/>
<polygon fill="midnightblue" stroke="midnightblue" points="439.57,-187.57 428.97,-187.52 437.22,-194.16 439.57,-187.57"/>
</g>
<!-- Node25 -->
<g id="node25" class="node">
<title>Node25</title>
<g id="a_node25"><a xlink:href="geomObjects_8h.html" target="_top" xlink:title=" ">
<polygon fill="none" stroke="black" points="878,-168.5 878,-187.5 976,-187.5 976,-168.5 878,-168.5"/>
<text text-anchor="middle" x="927" y="-175.5" font-family="Arial" font-size="10.00">util/geomObjects.h</text>
</a>
</g>
</g>
<!-- Node24&#45;&gt;Node25 -->
<g id="edge41" class="edge">
<title>Node24&#45;&gt;Node25</title>
<path fill="none" stroke="midnightblue" d="M591.55,-225.71C594.74,-225.11 597.93,-224.53 601,-224 693.88,-208.11 802.39,-194.02 867.84,-186"/>
<polygon fill="midnightblue" stroke="midnightblue" points="868.47,-189.45 877.97,-184.77 867.62,-182.5 868.47,-189.45"/>
</g>
<!-- Node25&#45;&gt;Node5 -->
<g id="edge44" class="edge">
<title>Node25&#45;&gt;Node5</title>
<path fill="none" stroke="midnightblue" d="M877.85,-168.62C831.59,-160.53 760.15,-147.55 688.42,-131.98"/>
<polygon fill="midnightblue" stroke="midnightblue" points="688.82,-128.48 678.3,-129.77 687.33,-135.32 688.82,-128.48"/>
</g>
<!-- Node25&#45;&gt;Node7 -->
<g id="edge48" class="edge">
<title>Node25&#45;&gt;Node7</title>
<path fill="none" stroke="midnightblue" d="M877.82,-171.74C818.45,-164.97 715.44,-151.91 618.08,-132"/>
<polygon fill="midnightblue" stroke="midnightblue" points="618.57,-128.53 608.07,-129.93 617.15,-135.39 618.57,-128.53"/>
</g>
<!-- Node25&#45;&gt;Node8 -->
<g id="edge49" class="edge">
<title>Node25&#45;&gt;Node8</title>
<path fill="none" stroke="midnightblue" d="M921.19,-168.37C908.98,-150.22 880.45,-107.8 864.43,-83.99"/>
<polygon fill="midnightblue" stroke="midnightblue" points="867.27,-81.94 858.78,-75.59 861.46,-85.84 867.27,-81.94"/>
</g>
<!-- Node25&#45;&gt;Node12 -->
<g id="edge42" class="edge">
<title>Node25&#45;&gt;Node12</title>
<path fill="none" stroke="midnightblue" d="M954.02,-168.44C971.3,-161.49 992.55,-149.85 1004,-132 1024.07,-100.72 1022.21,-55.24 1019.09,-29.89"/>
<polygon fill="midnightblue" stroke="midnightblue" points="1022.53,-29.18 1017.65,-19.77 1015.6,-30.17 1022.53,-29.18"/>
</g>
<!-- Node26 -->
<g id="node26" class="node">
<title>Node26</title>
<g id="a_node26"><a xlink:title=" ">
<polygon fill="none" stroke="#bfbfbf" points="955,-112.5 955,-131.5 995,-131.5 995,-112.5 955,-112.5"/>
<text text-anchor="middle" x="975" y="-119.5" font-family="Arial" font-size="10.00">utility</text>
</a>
</g>
</g>
<!-- Node25&#45;&gt;Node26 -->
<g id="edge43" class="edge">
<title>Node25&#45;&gt;Node26</title>
<path fill="none" stroke="midnightblue" d="M934.93,-168.08C941.85,-160.3 952.07,-148.8 960.45,-139.37"/>
<polygon fill="midnightblue" stroke="midnightblue" points="963.19,-141.55 967.22,-131.75 957.96,-136.9 963.19,-141.55"/>
</g>
<!-- Node27 -->
<g id="node27" class="node">
<title>Node27</title>
<g id="a_node27"><a xlink:href="function_8h.html" target="_top" xlink:title=" ">
<polygon fill="none" stroke="black" points="696.5,-112.5 696.5,-131.5 755.5,-131.5 755.5,-112.5 696.5,-112.5"/>
<text text-anchor="middle" x="726" y="-119.5" font-family="Arial" font-size="10.00">function.h</text>
</a>
</g>
</g>
<!-- Node25&#45;&gt;Node27 -->
<g id="edge45" class="edge">
<title>Node25&#45;&gt;Node27</title>
<path fill="none" stroke="midnightblue" d="M895.15,-168.44C859.99,-159 803.36,-143.78 765.43,-133.59"/>
<polygon fill="midnightblue" stroke="midnightblue" points="766.3,-130.2 755.73,-130.99 764.48,-136.96 766.3,-130.2"/>
</g>
<!-- Node28 -->
<g id="node28" class="node">
<title>Node28</title>
<g id="a_node28"><a xlink:href="transformation_8h.html" target="_top" xlink:title=" ">
<polygon fill="none" stroke="black" points="773.5,-112.5 773.5,-131.5 860.5,-131.5 860.5,-112.5 773.5,-112.5"/>
<text text-anchor="middle" x="817" y="-119.5" font-family="Arial" font-size="10.00">transformation.h</text>
</a>
</g>
</g>
<!-- Node25&#45;&gt;Node28 -->
<g id="edge50" class="edge">
<title>Node25&#45;&gt;Node28</title>
<path fill="none" stroke="midnightblue" d="M909.33,-168.32C891.61,-159.62 864.1,-146.12 843.71,-136.11"/>
<polygon fill="midnightblue" stroke="midnightblue" points="845.15,-132.92 834.63,-131.65 842.06,-139.2 845.15,-132.92"/>
</g>
<!-- Node27&#45;&gt;Node4 -->
<g id="edge47" class="edge">
<title>Node27&#45;&gt;Node4</title>
<path fill="none" stroke="midnightblue" d="M723.02,-112.37C716.86,-94.54 702.61,-53.3 694.31,-29.27"/>
<polygon fill="midnightblue" stroke="midnightblue" points="697.54,-27.9 690.97,-19.59 690.93,-30.19 697.54,-27.9"/>
</g>
<!-- Node27&#45;&gt;Node8 -->
<g id="edge46" class="edge">
<title>Node27&#45;&gt;Node8</title>
<path fill="none" stroke="midnightblue" d="M746.12,-112.44C767.02,-103.56 799.93,-89.56 823.72,-79.45"/>
<polygon fill="midnightblue" stroke="midnightblue" points="825.14,-82.65 832.97,-75.52 822.4,-76.21 825.14,-82.65"/>
</g>
<!-- Node28&#45;&gt;Node4 -->
<g id="edge52" class="edge">
<title>Node28&#45;&gt;Node4</title>
<path fill="none" stroke="midnightblue" d="M806.88,-112.37C785.02,-93.73 733.19,-49.53 705.75,-26.13"/>
<polygon fill="midnightblue" stroke="midnightblue" points="707.96,-23.42 698.08,-19.59 703.41,-28.74 707.96,-23.42"/>
</g>
<!-- Node28&#45;&gt;Node8 -->
<g id="edge51" class="edge">
<title>Node28&#45;&gt;Node8</title>
<path fill="none" stroke="midnightblue" d="M822.94,-112.08C827.98,-104.53 835.34,-93.49 841.51,-84.23"/>
<polygon fill="midnightblue" stroke="midnightblue" points="844.53,-86.01 847.17,-75.75 838.71,-82.13 844.53,-86.01"/>
</g>
<!-- Node29&#45;&gt;Node7 -->
<g id="edge56" class="edge">
<title>Node29&#45;&gt;Node7</title>
<path fill="none" stroke="midnightblue" d="M725.92,-224.37C699.6,-205.57 636.88,-160.77 604.35,-137.53"/>
<polygon fill="midnightblue" stroke="midnightblue" points="606.2,-134.56 596.03,-131.59 602.13,-140.25 606.2,-134.56"/>
</g>
<!-- Node30&#45;&gt;Node5 -->
<g id="edge60" class="edge">
<title>Node30&#45;&gt;Node5</title>
<path fill="none" stroke="midnightblue" d="M869.18,-224.35C862.51,-210.3 847.39,-182.6 826,-168 824.55,-167.01 738.58,-145.03 688.05,-132.16"/>
<polygon fill="midnightblue" stroke="midnightblue" points="688.7,-128.72 678.14,-129.64 686.97,-135.5 688.7,-128.72"/>
</g>
<!-- Node30&#45;&gt;Node7 -->
<g id="edge59" class="edge">
<title>Node30&#45;&gt;Node7</title>
<path fill="none" stroke="midnightblue" d="M850.32,-224.37C799.25,-204.93 675.1,-157.67 616.13,-135.23"/>
<polygon fill="midnightblue" stroke="midnightblue" points="617.16,-131.88 606.57,-131.59 614.67,-138.42 617.16,-131.88"/>
</g>
<!-- Node30&#45;&gt;Node25 -->
<g id="edge58" class="edge">
<title>Node30&#45;&gt;Node25</title>
<path fill="none" stroke="midnightblue" d="M881.92,-224.08C889.78,-216.22 901.43,-204.57 910.92,-195.08"/>
<polygon fill="midnightblue" stroke="midnightblue" points="913.65,-197.3 918.25,-187.75 908.7,-192.35 913.65,-197.3"/>
</g>
<!-- Node31&#45;&gt;Node7 -->
<g id="edge62" class="edge">
<title>Node31&#45;&gt;Node7</title>
<path fill="none" stroke="midnightblue" d="M639.66,-224.24C636.03,-211.42 628.39,-187 618,-168 612.49,-157.93 604.9,-147.64 598.28,-139.45"/>
<polygon fill="midnightblue" stroke="midnightblue" points="600.96,-137.2 591.87,-131.77 595.59,-141.69 600.96,-137.2"/>
</g>
<!-- Node32&#45;&gt;Node4 -->
<g id="edge70" class="edge">
<title>Node32&#45;&gt;Node4</title>
<path fill="none" stroke="midnightblue" d="M1097.41,-112.43C1051.43,-99.64 961.72,-75.02 885,-56 827.26,-41.69 759.59,-26.59 720.47,-18.03"/>
<polygon fill="midnightblue" stroke="midnightblue" points="720.74,-14.51 710.22,-15.8 719.24,-21.35 720.74,-14.51"/>
</g>
<!-- Node32&#45;&gt;Node8 -->
<g id="edge67" class="edge">
<title>Node32&#45;&gt;Node8</title>
<path fill="none" stroke="midnightblue" d="M1088.71,-114.21C1041.42,-105.9 959.67,-91.05 890,-76 888.73,-75.73 887.43,-75.44 886.13,-75.15"/>
<polygon fill="midnightblue" stroke="midnightblue" points="886.58,-71.66 876.05,-72.8 885,-78.48 886.58,-71.66"/>
</g>
<!-- Node33 -->
<g id="node33" class="node">
<title>Node33</title>
<g id="a_node33"><a xlink:title=" ">
<polygon fill="none" stroke="#bfbfbf" points="1051,-56.5 1051,-75.5 1097,-75.5 1097,-56.5 1051,-56.5"/>
<text text-anchor="middle" x="1074" y="-63.5" font-family="Arial" font-size="10.00">cstdint</text>
</a>
</g>
</g>
<!-- Node32&#45;&gt;Node33 -->
<g id="edge68" class="edge">
<title>Node32&#45;&gt;Node33</title>
<path fill="none" stroke="midnightblue" d="M1119.08,-112.08C1111.22,-104.22 1099.57,-92.57 1090.08,-83.08"/>
<polygon fill="midnightblue" stroke="midnightblue" points="1092.3,-80.35 1082.75,-75.75 1087.35,-85.3 1092.3,-80.35"/>
</g>
<!-- Node34 -->
<g id="node34" class="node">
<title>Node34</title>
<g id="a_node34"><a xlink:title=" ">
<polygon fill="none" stroke="#bfbfbf" points="1115,-56.5 1115,-75.5 1161,-75.5 1161,-56.5 1115,-56.5"/>
<text text-anchor="middle" x="1138" y="-63.5" font-family="Arial" font-size="10.00">cstring</text>
</a>
</g>
</g>
<!-- Node32&#45;&gt;Node34 -->
<g id="edge69" class="edge">
<title>Node32&#45;&gt;Node34</title>
<path fill="none" stroke="midnightblue" d="M1129.65,-112.08C1130.98,-104.93 1132.88,-94.64 1134.54,-85.69"/>
<polygon fill="midnightblue" stroke="midnightblue" points="1138,-86.22 1136.38,-75.75 1131.12,-84.95 1138,-86.22"/>
</g>
<!-- Node35 -->
<g id="node35" class="node">
<title>Node35</title>
<g id="a_node35"><a xlink:title=" ">
<polygon fill="none" stroke="#bfbfbf" points="1179,-56.5 1179,-75.5 1225,-75.5 1225,-56.5 1179,-56.5"/>
<text text-anchor="middle" x="1202" y="-63.5" font-family="Arial" font-size="10.00">chrono</text>
</a>
</g>
</g>
<!-- Node32&#45;&gt;Node35 -->
<g id="edge71" class="edge">
<title>Node32&#45;&gt;Node35</title>
<path fill="none" stroke="midnightblue" d="M1139.89,-112.32C1151.15,-104.11 1168.29,-91.6 1181.71,-81.81"/>
<polygon fill="midnightblue" stroke="midnightblue" points="1183.88,-84.56 1189.89,-75.83 1179.75,-78.9 1183.88,-84.56"/>
</g>
</g>
</svg>
