<?xml version="1.0" encoding="UTF-8" standalone="no"?>
<!DOCTYPE svg PUBLIC "-//W3C//DTD SVG 1.1//EN"
 "http://www.w3.org/Graphics/SVG/1.1/DTD/svg11.dtd">
<!-- Generated by graphviz version 2.43.0 (0)
 -->
<!-- Title: /home/user/project/src/inp/input.h Pages: 1 -->
<svg width="1401pt" height="329pt"
 viewBox="0.00 0.00 1400.50 329.00" xmlns="http://www.w3.org/2000/svg" xmlns:xlink="http://www.w3.org/1999/xlink">
<g id="graph0" class="graph" transform="scale(1 1) rotate(0) translate(4 325)">
<title>/home/user/project/src/inp/input.h</title>
<!-- Node1 -->
<g id="node1" class="node">
<title>Node1</title>
<g id="a_node1"><a xlink:title=" ">
<polygon fill="#bfbfbf" stroke="black" points="1178,-290.5 1178,-320.5 1276,-320.5 1276,-290.5 1178,-290.5"/>
<text text-anchor="start" x="1186" y="-308.5" font-family="Arial" font-size="10.00">/home/user/project</text>
<text text-anchor="middle" x="1227" y="-297.5" font-family="Arial" font-size="10.00">/src/inp/input.h</text>
</a>
</g>
</g>
<!-- Node2 -->
<g id="node2" class="node">
<title>Node2</title>
<g id="a_node2"><a xlink:href="apps_2twop_2main_8cpp.html" target="_top" xlink:title=" ">
<polygon fill="none" stroke="black" points="993.5,-84 993.5,-114 1100.5,-114 1100.5,-84 993.5,-84"/>
<text text-anchor="start" x="1001.5" y="-102" font-family="Arial" font-size="10.00">/home/user/project</text>
<text text-anchor="middle" x="1047" y="-91" font-family="Arial" font-size="10.00">/apps/twop/main.cpp</text>
</a>
</g>
</g>
<!-- Node1&#45;&gt;Node2 -->
<g id="edge1" class="edge">
<title>Node1&#45;&gt;Node2</title>
<path fill="none" stroke="midnightblue" d="M1177.41,-286.64C1135.33,-268.58 1077.52,-236.24 1050,-187 1037.25,-164.18 1040.36,-132.47 1043.72,-114.31"/>
<polygon fill="midnightblue" stroke="midnightblue" points="1176.1,-289.89 1186.67,-290.5 1178.78,-283.42 1176.1,-289.89"/>
</g>
<!-- Node3 -->
<g id="node3" class="node">
<title>Node3</title>
<g id="a_node3"><a xlink:href="input_8cpp.html" target="_top" xlink:title=" ">
<polygon fill="none" stroke="black" points="1293,-223.5 1293,-253.5 1391,-253.5 1391,-223.5 1293,-223.5"/>
<text text-anchor="start" x="1301" y="-241.5" font-family="Arial" font-size="10.00">/home/user/project</text>
<text text-anchor="middle" x="1342" y="-230.5" font-family="Arial" font-size="10.00">/src/inp/input.cpp</text>
</a>
</g>
</g>
<!-- Node1&#45;&gt;Node3 -->
<g id="edge2" class="edge">
<title>Node1&#45;&gt;Node3</title>
<path fill="none" stroke="midnightblue" d="M1260.98,-285.3C1278.97,-275.12 1300.68,-262.85 1317.1,-253.58"/>
<polygon fill="midnightblue" stroke="midnightblue" points="1258.94,-282.43 1251.95,-290.4 1262.38,-288.52 1258.94,-282.43"/>
</g>
<!-- Node4 -->
<g id="node4" class="node">
<title>Node4</title>
<g id="a_node4"><a xlink:href="src_2main_8cpp.html" target="_top" xlink:title=" ">
<polygon fill="none" stroke="black" points="1157,-84 1157,-114 1255,-114 1255,-84 1157,-84"/>
<text text-anchor="start" x="1165" y="-102" font-family="Arial" font-size="10.00">/home/user/project</text>
<text text-anchor="middle" x="1206" y="-91" font-family="Arial" font-size="10.00">/src/main.cpp</text>
</a>
</g>
</g>
<!-- Node1&#45;&gt;Node4 -->
<g id="edge3" class="edge">
<title>Node1&#45;&gt;Node4</title>
<path fill="none" stroke="midnightblue" d="M1224.52,-280.3C1220.09,-237.25 1210.99,-148.63 1207.45,-114.15"/>
<polygon fill="midnightblue" stroke="midnightblue" points="1221.05,-280.85 1225.56,-290.44 1228.02,-280.14 1221.05,-280.85"/>
</g>
<!-- Node5 -->
<g id="node5" class="node">
<title>Node5</title>
<g id="a_node5"><a xlink:href="modelData_8h.html" target="_top" xlink:title=" ">
<polygon fill="none" stroke="black" points="678.5,-223.5 678.5,-253.5 799.5,-253.5 799.5,-223.5 678.5,-223.5"/>
<text text-anchor="start" x="686.5" y="-241.5" font-family="Arial" font-size="10.00">/home/user/project</text>
<text text-anchor="middle" x="739" y="-230.5" font-family="Arial" font-size="10.00">/src/model/modelData.h</text>
</a>
</g>
</g>
<!-- Node1&#45;&gt;Node5 -->
<g id="edge4" class="edge">
<title>Node1&#45;&gt;Node5</title>
<path fill="none" stroke="midnightblue" d="M1167.86,-296.62C1074.53,-284.19 894.05,-260.15 799.74,-247.59"/>
<polygon fill="midnightblue" stroke="midnightblue" points="1167.6,-300.12 1177.97,-297.97 1168.52,-293.18 1167.6,-300.12"/>
</g>
<!-- Node8 -->
<g id="node8" class="node">
<title>Node8</title>
<g id="a_node8"><a xlink:href="testPeriDEMLib_8cpp.html" target="_top" xlink:title=" ">
<polygon fill="none" stroke="black" points="1273.5,-78.5 1273.5,-119.5 1392.5,-119.5 1392.5,-78.5 1273.5,-78.5"/>
<text text-anchor="start" x="1281.5" y="-107.5" font-family="Arial" font-size="10.00">/home/user/project</text>
<text text-anchor="start" x="1281.5" y="-96.5" font-family="Arial" font-size="10.00">/test/test_exec/peridem</text>
<text text-anchor="middle" x="1333" y="-85.5" font-family="Arial" font-size="10.00">/testPeriDEMLib.cpp</text>
</a>
</g>
</g>
<!-- Node1&#45;&gt;Node8 -->
<g id="edge39" class="edge">
<title>Node1&#45;&gt;Node8</title>
<path fill="none" stroke="midnightblue" d="M1239.01,-281.33C1260.02,-240.79 1303.11,-157.67 1322.79,-119.71"/>
<polygon fill="midnightblue" stroke="midnightblue" points="1235.78,-279.95 1234.29,-290.44 1242,-283.18 1235.78,-279.95"/>
</g>
<!-- Node6 -->
<g id="node6" class="node">
<title>Node6</title>
<g id="a_node6"><a xlink:href="demModel_8h.html" target="_top" xlink:title=" ">
<polygon fill="none" stroke="black" points="1059,-156.5 1059,-186.5 1199,-186.5 1199,-156.5 1059,-156.5"/>
<text text-anchor="start" x="1067" y="-174.5" font-family="Arial" font-size="10.00">/home/user/project</text>
<text text-anchor="middle" x="1129" y="-163.5" font-family="Arial" font-size="10.00">/src/model/dem/demModel.h</text>
</a>
</g>
</g>
<!-- Node5&#45;&gt;Node6 -->
<g id="edge5" class="edge">
<title>Node5&#45;&gt;Node6</title>
<path fill="none" stroke="midnightblue" d="M809.65,-225.72C880.29,-213.95 988.29,-195.95 1058.78,-184.2"/>
<polygon fill="midnightblue" stroke="midnightblue" points="808.8,-222.32 799.51,-227.42 809.95,-229.22 808.8,-222.32"/>
</g>
<!-- Node9 -->
<g id="node9" class="node">
<title>Node9</title>
<g id="a_node9"><a xlink:href="materialUtil_8h.html" target="_top" xlink:title=" ">
<polygon fill="none" stroke="black" points="805.5,-84 805.5,-114 936.5,-114 936.5,-84 805.5,-84"/>
<text text-anchor="start" x="813.5" y="-102" font-family="Arial" font-size="10.00">/home/user/project</text>
<text text-anchor="middle" x="871" y="-91" font-family="Arial" font-size="10.00">/src/material/materialUtil.h</text>
</a>
</g>
</g>
<!-- Node5&#45;&gt;Node9 -->
<g id="edge10" class="edge">
<title>Node5&#45;&gt;Node9</title>
<path fill="none" stroke="midnightblue" d="M761.59,-216.1C770.82,-207.21 781.54,-196.72 791,-187 815.47,-161.85 842.94,-131.48 858.49,-114.09"/>
<polygon fill="midnightblue" stroke="midnightblue" points="759.04,-213.69 754.24,-223.14 763.88,-218.75 759.04,-213.69"/>
</g>
<!-- Node13 -->
<g id="node13" class="node">
<title>Node13</title>
<g id="a_node13"><a xlink:href="modelData_8cpp.html" target="_top" xlink:title=" ">
<polygon fill="none" stroke="black" points="175.5,-6 175.5,-36 306.5,-36 306.5,-6 175.5,-6"/>
<text text-anchor="start" x="183.5" y="-24" font-family="Arial" font-size="10.00">/home/user/project</text>
<text text-anchor="middle" x="241" y="-13" font-family="Arial" font-size="10.00">/src/model/modelData.cpp</text>
</a>
</g>
</g>
<!-- Node5&#45;&gt;Node13 -->
<g id="edge15" class="edge">
<title>Node5&#45;&gt;Node13</title>
<path fill="none" stroke="midnightblue" d="M668.41,-235.3C518.63,-229 176.88,-205.38 106,-120 94.08,-105.64 95.63,-93.52 106,-78 121.64,-54.58 149.1,-40.94 175.19,-33"/>
<polygon fill="midnightblue" stroke="midnightblue" points="668.29,-238.8 678.42,-235.71 668.57,-231.81 668.29,-238.8"/>
</g>
<!-- Node14 -->
<g id="node14" class="node">
<title>Node14</title>
<g id="a_node14"><a xlink:href="baseParticle_8h.html" target="_top" xlink:title=" ">
<polygon fill="none" stroke="black" points="473.5,-156.5 473.5,-186.5 606.5,-186.5 606.5,-156.5 473.5,-156.5"/>
<text text-anchor="start" x="481.5" y="-174.5" font-family="Arial" font-size="10.00">/home/user/project</text>
<text text-anchor="middle" x="540" y="-163.5" font-family="Arial" font-size="10.00">/src/particle/baseParticle.h</text>
</a>
</g>
</g>
<!-- Node5&#45;&gt;Node14 -->
<g id="edge16" class="edge">
<title>Node5&#45;&gt;Node14</title>
<path fill="none" stroke="midnightblue" d="M686.12,-220.23C653.93,-209.71 613.33,-196.45 583.1,-186.58"/>
<polygon fill="midnightblue" stroke="midnightblue" points="685.23,-223.62 695.82,-223.4 687.4,-216.96 685.23,-223.62"/>
</g>
<!-- Node18 -->
<g id="node18" class="node">
<title>Node18</title>
<g id="a_node18"><a xlink:href="vtkParticleReader_8cpp.html" target="_top" xlink:title=" ">
<polygon fill="none" stroke="black" points="467,-6 467,-36 613,-36 613,-6 467,-6"/>
<text text-anchor="start" x="475" y="-24" font-family="Arial" font-size="10.00">/home/user/project</text>
<text text-anchor="middle" x="540" y="-13" font-family="Arial" font-size="10.00">/src/rw/vtkParticleReader.cpp</text>
</a>
</g>
</g>
<!-- Node5&#45;&gt;Node18 -->
<g id="edge37" class="edge">
<title>Node5&#45;&gt;Node18</title>
<path fill="none" stroke="midnightblue" d="M751.11,-214.28C766.82,-180.55 788.8,-117.71 758,-78 756.72,-76.35 660.45,-52.06 596.28,-36.02"/>
<polygon fill="midnightblue" stroke="midnightblue" points="747.92,-212.84 746.69,-223.37 754.21,-215.9 747.92,-212.84"/>
</g>
<!-- Node19 -->
<g id="node19" class="node">
<title>Node19</title>
<g id="a_node19"><a xlink:href="vtkParticleWriter_8cpp.html" target="_top" xlink:title=" ">
<polygon fill="none" stroke="black" points="0,-6 0,-36 140,-36 140,-6 0,-6"/>
<text text-anchor="start" x="8" y="-24" font-family="Arial" font-size="10.00">/home/user/project</text>
<text text-anchor="middle" x="70" y="-13" font-family="Arial" font-size="10.00">/src/rw/vtkParticleWriter.cpp</text>
</a>
</g>
</g>
<!-- Node5&#45;&gt;Node19 -->
<g id="edge38" class="edge">
<title>Node5&#45;&gt;Node19</title>
<path fill="none" stroke="midnightblue" d="M668.23,-237.52C533.66,-236.56 246.41,-229.43 158,-187 120.87,-169.18 113.79,-156.11 94,-120 79.02,-92.66 73.27,-55.96 71.15,-36.13"/>
<polygon fill="midnightblue" stroke="midnightblue" points="668.41,-241.02 678.44,-237.58 668.46,-234.02 668.41,-241.02"/>
</g>
<!-- Node21 -->
<g id="node21" class="node">
<title>Node21</title>
<g id="a_node21"><a xlink:href="wall_8h.html" target="_top" xlink:title=" ">
<polygon fill="none" stroke="black" points="651,-84 651,-114 749,-114 749,-84 651,-84"/>
<text text-anchor="start" x="659" y="-102" font-family="Arial" font-size="10.00">/home/user/project</text>
<text text-anchor="middle" x="700" y="-91" font-family="Arial" font-size="10.00">/src/particle/wall.h</text>
</a>
</g>
</g>
<!-- Node5&#45;&gt;Node21 -->
<g id="edge36" class="edge">
<title>Node5&#45;&gt;Node21</title>
<path fill="none" stroke="midnightblue" d="M732.24,-213.66C724.11,-185.02 710.74,-137.88 704.06,-114.33"/>
<polygon fill="midnightblue" stroke="midnightblue" points="728.88,-214.64 734.97,-223.3 735.61,-212.73 728.88,-214.64"/>
</g>
<!-- Node6&#45;&gt;Node2 -->
<g id="edge6" class="edge">
<title>Node6&#45;&gt;Node2</title>
<path fill="none" stroke="midnightblue" d="M1104.53,-149.46C1091.2,-138 1075.07,-124.14 1063.29,-114"/>
<polygon fill="midnightblue" stroke="midnightblue" points="1102.54,-152.37 1112.41,-156.23 1107.11,-147.06 1102.54,-152.37"/>
</g>
<!-- Node6&#45;&gt;Node4 -->
<g id="edge7" class="edge">
<title>Node6&#45;&gt;Node4</title>
<path fill="none" stroke="midnightblue" d="M1151.98,-149.46C1164.49,-138 1179.64,-124.14 1190.7,-114"/>
<polygon fill="midnightblue" stroke="midnightblue" points="1149.59,-146.9 1144.58,-156.23 1154.32,-152.06 1149.59,-146.9"/>
</g>
<!-- Node7 -->
<g id="node7" class="node">
<title>Node7</title>
<g id="a_node7"><a xlink:href="demModel_8cpp.html" target="_top" xlink:title=" ">
<polygon fill="none" stroke="black" points="770.5,-6 770.5,-36 921.5,-36 921.5,-6 770.5,-6"/>
<text text-anchor="start" x="778.5" y="-24" font-family="Arial" font-size="10.00">/home/user/project</text>
<text text-anchor="middle" x="846" y="-13" font-family="Arial" font-size="10.00">/src/model/dem/demModel.cpp</text>
</a>
</g>
</g>
<!-- Node6&#45;&gt;Node7 -->
<g id="edge8" class="edge">
<title>Node6&#45;&gt;Node7</title>
<path fill="none" stroke="midnightblue" d="M1130.59,-146.31C1130.56,-125.35 1126.94,-95.68 1109,-78 1051.21,-21.04 1009.26,-59.4 930,-42 921.51,-40.14 912.55,-38.09 903.78,-36.04"/>
<polygon fill="midnightblue" stroke="midnightblue" points="1127.09,-146.29 1130.33,-156.37 1134.08,-146.47 1127.09,-146.29"/>
</g>
<!-- Node6&#45;&gt;Node8 -->
<g id="edge9" class="edge">
<title>Node6&#45;&gt;Node8</title>
<path fill="none" stroke="midnightblue" d="M1179.45,-153.07C1208.86,-142.9 1246.04,-130.05 1276.44,-119.55"/>
<polygon fill="midnightblue" stroke="midnightblue" points="1178.1,-149.83 1169.79,-156.4 1180.39,-156.44 1178.1,-149.83"/>
</g>
<!-- Node9&#45;&gt;Node7 -->
<g id="edge12" class="edge">
<title>Node9&#45;&gt;Node7</title>
<path fill="none" stroke="midnightblue" d="M863.09,-73.96C859.01,-61.55 854.17,-46.83 850.68,-36.23"/>
<polygon fill="midnightblue" stroke="midnightblue" points="859.85,-75.3 866.3,-83.7 866.5,-73.11 859.85,-75.3"/>
</g>
<!-- Node10 -->
<g id="node10" class="node">
<title>Node10</title>
<g id="a_node10"><a xlink:href="materialUtil_8cpp.html" target="_top" xlink:title=" ">
<polygon fill="none" stroke="black" points="1065,-6 1065,-36 1207,-36 1207,-6 1065,-6"/>
<text text-anchor="start" x="1073" y="-24" font-family="Arial" font-size="10.00">/home/user/project</text>
<text text-anchor="middle" x="1136" y="-13" font-family="Arial" font-size="10.00">/src/material/materialUtil.cpp</text>
</a>
</g>
</g>
<!-- Node9&#45;&gt;Node10 -->
<g id="edge11" class="edge">
<title>Node9&#45;&gt;Node10</title>
<path fill="none" stroke="midnightblue" d="M929.7,-81.17C976.91,-67.63 1042.47,-48.82 1086.92,-36.07"/>
<polygon fill="midnightblue" stroke="midnightblue" points="928.56,-77.85 919.91,-83.97 930.49,-84.58 928.56,-77.85"/>
</g>
<!-- Node11 -->
<g id="node11" class="node">
<title>Node11</title>
<g id="a_node11"><a xlink:href="particle_8cpp.html" target="_top" xlink:title=" ">
<polygon fill="none" stroke="black" points="631.5,-6 631.5,-36 752.5,-36 752.5,-6 631.5,-6"/>
<text text-anchor="start" x="639.5" y="-24" font-family="Arial" font-size="10.00">/home/user/project</text>
<text text-anchor="middle" x="692" y="-13" font-family="Arial" font-size="10.00">/src/particle/particle.cpp</text>
</a>
</g>
</g>
<!-- Node9&#45;&gt;Node11 -->
<g id="edge13" class="edge">
<title>Node9&#45;&gt;Node11</title>
<path fill="none" stroke="midnightblue" d="M828.31,-79.87C796.66,-66.44 754.15,-48.39 725.07,-36.04"/>
<polygon fill="midnightblue" stroke="midnightblue" points="827.18,-83.2 837.75,-83.88 829.91,-76.75 827.18,-83.2"/>
</g>
<!-- Node12 -->
<g id="node12" class="node">
<title>Node12</title>
<g id="a_node12"><a xlink:href="wall_8cpp.html" target="_top" xlink:title=" ">
<polygon fill="none" stroke="black" points="939.5,-6 939.5,-36 1046.5,-36 1046.5,-6 939.5,-6"/>
<text text-anchor="start" x="947.5" y="-24" font-family="Arial" font-size="10.00">/home/user/project</text>
<text text-anchor="middle" x="993" y="-13" font-family="Arial" font-size="10.00">/src/particle/wall.cpp</text>
</a>
</g>
</g>
<!-- Node9&#45;&gt;Node12 -->
<g id="edge14" class="edge">
<title>Node9&#45;&gt;Node12</title>
<path fill="none" stroke="midnightblue" d="M902.36,-78.47C923.65,-65.2 951.32,-47.96 970.46,-36.04"/>
<polygon fill="midnightblue" stroke="midnightblue" points="900.3,-75.62 893.66,-83.88 904,-81.57 900.3,-75.62"/>
</g>
<!-- Node14&#45;&gt;Node10 -->
<g id="edge19" class="edge">
<title>Node14&#45;&gt;Node10</title>
<path fill="none" stroke="midnightblue" d="M616.91,-167.15C718.03,-161.7 889.36,-148.49 945,-120 967.67,-108.39 962.8,-92.12 984,-78 1012.79,-58.82 1049,-45.14 1078.86,-36.11"/>
<polygon fill="midnightblue" stroke="midnightblue" points="616.55,-163.67 606.75,-167.69 616.92,-170.66 616.55,-163.67"/>
</g>
<!-- Node14&#45;&gt;Node13 -->
<g id="edge20" class="edge">
<title>Node14&#45;&gt;Node13</title>
<path fill="none" stroke="midnightblue" d="M462.97,-166.73C347.47,-160.28 140.46,-145.31 118,-120 105.61,-106.04 107.9,-93.7 118,-78 131.2,-57.48 153.98,-44.39 176.37,-36.08"/>
<polygon fill="midnightblue" stroke="midnightblue" points="462.99,-170.24 473.17,-167.29 463.38,-163.25 462.99,-170.24"/>
</g>
<!-- Node15 -->
<g id="node15" class="node">
<title>Node15</title>
<g id="a_node15"><a xlink:href="particleFLoading_8cpp.html" target="_top" xlink:title=" ">
<polygon fill="none" stroke="black" points="127,-84 127,-114 287,-114 287,-84 127,-84"/>
<text text-anchor="start" x="135" y="-102" font-family="Arial" font-size="10.00">/home/user/project</text>
<text text-anchor="middle" x="207" y="-91" font-family="Arial" font-size="10.00">/src/loading/particleFLoading.cpp</text>
</a>
</g>
</g>
<!-- Node14&#45;&gt;Node15 -->
<g id="edge17" class="edge">
<title>Node14&#45;&gt;Node15</title>
<path fill="none" stroke="midnightblue" d="M463.37,-154.99C415.27,-145.16 351.96,-132.08 296,-120 287.18,-118.1 277.87,-116.05 268.73,-114.01"/>
<polygon fill="midnightblue" stroke="midnightblue" points="462.9,-158.46 473.4,-157.03 464.3,-151.6 462.9,-158.46"/>
</g>
<!-- Node16 -->
<g id="node16" class="node">
<title>Node16</title>
<g id="a_node16"><a xlink:href="particleULoading_8cpp.html" target="_top" xlink:title=" ">
<polygon fill="none" stroke="black" points="305.5,-84 305.5,-114 466.5,-114 466.5,-84 305.5,-84"/>
<text text-anchor="start" x="313.5" y="-102" font-family="Arial" font-size="10.00">/home/user/project</text>
<text text-anchor="middle" x="386" y="-91" font-family="Arial" font-size="10.00">/src/loading/particleULoading.cpp</text>
</a>
</g>
</g>
<!-- Node14&#45;&gt;Node16 -->
<g id="edge18" class="edge">
<title>Node14&#45;&gt;Node16</title>
<path fill="none" stroke="midnightblue" d="M500,-152.19C474.01,-140.29 440.65,-125.02 416.74,-114.07"/>
<polygon fill="midnightblue" stroke="midnightblue" points="498.66,-155.42 509.21,-156.4 501.57,-149.06 498.66,-155.42"/>
</g>
<!-- Node17 -->
<g id="node17" class="node">
<title>Node17</title>
<g id="a_node17"><a xlink:href="particle_8h.html" target="_top" xlink:title=" ">
<polygon fill="none" stroke="black" points="485,-84 485,-114 595,-114 595,-84 485,-84"/>
<text text-anchor="start" x="493" y="-102" font-family="Arial" font-size="10.00">/home/user/project</text>
<text text-anchor="middle" x="540" y="-91" font-family="Arial" font-size="10.00">/src/particle/particle.h</text>
</a>
</g>
</g>
<!-- Node14&#45;&gt;Node17 -->
<g id="edge21" class="edge">
<title>Node14&#45;&gt;Node17</title>
<path fill="none" stroke="midnightblue" d="M540,-146.23C540,-135.57 540,-123.41 540,-114.25"/>
<polygon fill="midnightblue" stroke="midnightblue" points="536.5,-146.23 540,-156.23 543.5,-146.23 536.5,-146.23"/>
</g>
<!-- Node14&#45;&gt;Node18 -->
<g id="edge34" class="edge">
<title>Node14&#45;&gt;Node18</title>
<path fill="none" stroke="midnightblue" d="M576.12,-150.8C587.15,-142.81 597.95,-132.48 604,-120 612.14,-103.2 611.71,-95 604,-78 595.95,-60.25 579.18,-45.92 564.83,-36.2"/>
<polygon fill="midnightblue" stroke="midnightblue" points="574.07,-147.97 567.72,-156.46 577.98,-153.78 574.07,-147.97"/>
</g>
<!-- Node14&#45;&gt;Node19 -->
<g id="edge35" class="edge">
<title>Node14&#45;&gt;Node19</title>
<path fill="none" stroke="midnightblue" d="M463.25,-170.97C353.72,-170.1 159.81,-162.39 106,-120 79.95,-99.47 72.74,-58.21 70.76,-36.35"/>
<polygon fill="midnightblue" stroke="midnightblue" points="463.24,-174.47 473.26,-171.03 463.28,-167.47 463.24,-174.47"/>
</g>
<!-- Node14&#45;&gt;Node21 -->
<g id="edge28" class="edge">
<title>Node14&#45;&gt;Node21</title>
<path fill="none" stroke="midnightblue" d="M581.21,-152.34C608.26,-140.42 643.11,-125.07 668.06,-114.07"/>
<polygon fill="midnightblue" stroke="midnightblue" points="579.73,-149.17 571.99,-156.4 582.56,-155.57 579.73,-149.17"/>
</g>
<!-- Node17&#45;&gt;Node7 -->
<g id="edge22" class="edge">
<title>Node17&#45;&gt;Node7</title>
<path fill="none" stroke="midnightblue" d="M605.01,-81.85C659.79,-68.25 737.37,-48.98 789.57,-36.02"/>
<polygon fill="midnightblue" stroke="midnightblue" points="603.92,-78.52 595.06,-84.32 605.61,-85.31 603.92,-78.52"/>
</g>
<!-- Node17&#45;&gt;Node11 -->
<g id="edge24" class="edge">
<title>Node17&#45;&gt;Node11</title>
<path fill="none" stroke="midnightblue" d="M577.3,-79.35C604.06,-65.97 639.54,-48.23 663.92,-36.04"/>
<polygon fill="midnightblue" stroke="midnightblue" points="575.61,-76.28 568.23,-83.88 578.74,-82.54 575.61,-76.28"/>
</g>
<!-- Node17&#45;&gt;Node13 -->
<g id="edge23" class="edge">
<title>Node17&#45;&gt;Node13</title>
<path fill="none" stroke="midnightblue" d="M485.93,-81.08C482.24,-80.01 478.57,-78.97 475,-78 408.44,-59.85 391.09,-58.08 324,-42 315.93,-40.07 307.42,-38.02 299.04,-36.01"/>
<polygon fill="midnightblue" stroke="midnightblue" points="485.12,-84.49 495.71,-83.95 487.1,-77.77 485.12,-84.49"/>
</g>
<!-- Node17&#45;&gt;Node18 -->
<g id="edge25" class="edge">
<title>Node17&#45;&gt;Node18</title>
<path fill="none" stroke="midnightblue" d="M540,-73.59C540,-61.26 540,-46.72 540,-36.23"/>
<polygon fill="midnightblue" stroke="midnightblue" points="536.5,-73.7 540,-83.7 543.5,-73.71 536.5,-73.7"/>
</g>
<!-- Node17&#45;&gt;Node19 -->
<g id="edge26" class="edge">
<title>Node17&#45;&gt;Node19</title>
<path fill="none" stroke="midnightblue" d="M488.48,-81.21C483.95,-80.02 479.41,-78.93 475,-78 339.7,-49.55 302.48,-64.12 166,-42 155.41,-40.28 144.22,-38.2 133.37,-36.04"/>
<polygon fill="midnightblue" stroke="midnightblue" points="487.76,-84.65 498.34,-83.95 489.64,-77.9 487.76,-84.65"/>
</g>
<!-- Node20 -->
<g id="node20" class="node">
<title>Node20</title>
<g id="a_node20"><a xlink:href="testParticleLib_8cpp.html" target="_top" xlink:title=" ">
<polygon fill="none" stroke="black" points="333,-0.5 333,-41.5 449,-41.5 449,-0.5 333,-0.5"/>
<text text-anchor="start" x="341" y="-29.5" font-family="Arial" font-size="10.00">/home/user/project</text>
<text text-anchor="start" x="341" y="-18.5" font-family="Arial" font-size="10.00">/test/test_exec/particle</text>
<text text-anchor="middle" x="391" y="-7.5" font-family="Arial" font-size="10.00">/testParticleLib.cpp</text>
</a>
</g>
</g>
<!-- Node17&#45;&gt;Node20 -->
<g id="edge27" class="edge">
<title>Node17&#45;&gt;Node20</title>
<path fill="none" stroke="midnightblue" d="M503.13,-79.2C480.73,-67.77 452.17,-53.2 429.48,-41.63"/>
<polygon fill="midnightblue" stroke="midnightblue" points="501.82,-82.46 512.32,-83.88 505.01,-76.22 501.82,-82.46"/>
</g>
<!-- Node21&#45;&gt;Node7 -->
<g id="edge29" class="edge">
<title>Node21&#45;&gt;Node7</title>
<path fill="none" stroke="midnightblue" d="M736.17,-79.17C761.83,-65.82 795.71,-48.18 819.03,-36.04"/>
<polygon fill="midnightblue" stroke="midnightblue" points="734.37,-76.16 727.12,-83.88 737.61,-82.37 734.37,-76.16"/>
</g>
<!-- Node21&#45;&gt;Node12 -->
<g id="edge31" class="edge">
<title>Node21&#45;&gt;Node12</title>
<path fill="none" stroke="midnightblue" d="M759.09,-84.79C805.72,-74.08 872.3,-58.16 930,-42 936.52,-40.17 943.38,-38.13 950.08,-36.06"/>
<polygon fill="midnightblue" stroke="midnightblue" points="758.13,-81.42 749.16,-87.06 759.69,-88.24 758.13,-81.42"/>
</g>
<!-- Node21&#45;&gt;Node13 -->
<g id="edge30" class="edge">
<title>Node21&#45;&gt;Node13</title>
<path fill="none" stroke="midnightblue" d="M640.78,-84.91C628.65,-82.44 615.94,-80.01 604,-78 480.27,-57.19 447.39,-64.73 324,-42 314.82,-40.31 305.13,-38.24 295.74,-36.08"/>
<polygon fill="midnightblue" stroke="midnightblue" points="640.31,-88.39 650.81,-86.99 641.72,-81.53 640.31,-88.39"/>
</g>
<!-- Node21&#45;&gt;Node18 -->
<g id="edge32" class="edge">
<title>Node21&#45;&gt;Node18</title>
<path fill="none" stroke="midnightblue" d="M661.1,-79.52C632.9,-66.13 595.33,-48.28 569.56,-36.04"/>
<polygon fill="midnightblue" stroke="midnightblue" points="659.75,-82.75 670.28,-83.88 662.75,-76.43 659.75,-82.75"/>
</g>
<!-- Node21&#45;&gt;Node19 -->
<g id="edge33" class="edge">
<title>Node21&#45;&gt;Node19</title>
<path fill="none" stroke="midnightblue" d="M640.85,-84.48C628.71,-82.05 615.98,-79.73 604,-78 410.69,-50.03 359.31,-69.97 166,-42 154.88,-40.39 143.11,-38.28 131.77,-36.04"/>
<polygon fill="midnightblue" stroke="midnightblue" points="640.38,-87.96 650.88,-86.55 641.79,-81.1 640.38,-87.96"/>
</g>
</g>
</svg>
