<?xml version="1.0" encoding="UTF-8" standalone="no"?>
<!DOCTYPE svg PUBLIC "-//W3C//DTD SVG 1.1//EN"
 "http://www.w3.org/Graphics/SVG/1.1/DTD/svg11.dtd">
<!-- Generated by graphviz version 2.43.0 (0)
 -->
<!-- Title: /home/user/project/src/inp/input.h Pages: 1 -->
<svg width="1746pt" height="324pt"
 viewBox="0.00 0.00 1745.50 324.00" xmlns="http://www.w3.org/2000/svg" xmlns:xlink="http://www.w3.org/1999/xlink">
<g id="graph0" class="graph" transform="scale(1 1) rotate(0) translate(4 320)">
<title>/home/user/project/src/inp/input.h</title>
<!-- Node1 -->
<g id="Node000001" class="node">
<title>Node1</title>
<g id="a_Node000001"><a xlink:title=" ">
<polygon fill="#999999" stroke="#666666" points="1187.5,-316 1089.5,-316 1089.5,-286 1187.5,-286 1187.5,-316"/>
<text text-anchor="start" x="1097.5" y="-304" font-family="Arial" font-size="10.00">/home/user/project</text>
<text text-anchor="middle" x="1138.5" y="-293" font-family="Arial" font-size="10.00">/src/inp/input.h</text>
</a>
</g>
</g>
<!-- Node2 -->
<g id="Node000002" class="node">
<title>Node2</title>
<g id="a_Node000002"><a xlink:href="input_8cpp.html" target="_top" xlink:title=" ">
<polygon fill="white" stroke="#666666" points="930.5,-250 832.5,-250 832.5,-220 930.5,-220 930.5,-250"/>
<text text-anchor="start" x="840.5" y="-238" font-family="Arial" font-size="10.00">/home/user/project</text>
<text text-anchor="middle" x="881.5" y="-227" font-family="Arial" font-size="10.00">/src/inp/input.cpp</text>
</a>
</g>
</g>
<!-- Node1&#45;&gt;Node2 -->
<g id="edge1_Node000001_Node000002" class="edge">
<title>Node1&#45;&gt;Node2</title>
<g id="a_edge1_Node000001_Node000002"><a xlink:title=" ">
<path fill="none" stroke="#63b8ff" d="M1079.32,-285.26C1034.25,-274.04 972.94,-258.77 930.58,-248.22"/>
<polygon fill="#63b8ff" stroke="#63b8ff" points="1078.7,-288.72 1089.25,-287.74 1080.39,-281.92 1078.7,-288.72"/>
</a>
</g>
</g>
<!-- Node3 -->
<g id="Node000003" class="node">
<title>Node3</title>
<g id="a_Node000003"><a xlink:href="src_2main_8cpp.html" target="_top" xlink:title=" ">
<polygon fill="white" stroke="#666666" points="1375.5,-112.5 1277.5,-112.5 1277.5,-82.5 1375.5,-82.5 1375.5,-112.5"/>
<text text-anchor="start" x="1285.5" y="-100.5" font-family="Arial" font-size="10.00">/home/user/project</text>
<text text-anchor="middle" x="1326.5" y="-89.5" font-family="Arial" font-size="10.00">/src/main.cpp</text>
</a>
</g>
</g>
<!-- Node1&#45;&gt;Node3 -->
<g id="edge2_Node000001_Node000003" class="edge">
<title>Node1&#45;&gt;Node3</title>
<g id="a_edge2_Node000001_Node000003"><a xlink:title=" ">
<path fill="none" stroke="#63b8ff" d="M1158.6,-278.45C1197.23,-237.05 1280.88,-147.39 1313.29,-112.65"/>
<polygon fill="#63b8ff" stroke="#63b8ff" points="1155.98,-276.13 1151.72,-285.83 1161.1,-280.91 1155.98,-276.13"/>
</a>
</g>
</g>
<!-- Node4 -->
<g id="Node000004" class="node">
<title>Node4</title>
<g id="a_Node000004"><a xlink:href="modelData_8h.html" target="_top" xlink:title=" ">
<polygon fill="white" stroke="#666666" points="1070,-250 949,-250 949,-220 1070,-220 1070,-250"/>
<text text-anchor="start" x="957" y="-238" font-family="Arial" font-size="10.00">/home/user/project</text>
<text text-anchor="middle" x="1009.5" y="-227" font-family="Arial" font-size="10.00">/src/model/modelData.h</text>
</a>
</g>
</g>
<!-- Node1&#45;&gt;Node4 -->
<g id="edge3_Node000001_Node000004" class="edge">
<title>Node1&#45;&gt;Node4</title>
<g id="a_edge3_Node000001_Node000004"><a xlink:title=" ">
<path fill="none" stroke="#63b8ff" d="M1100.96,-281.38C1080.78,-271.36 1056.3,-259.22 1037.74,-250.01"/>
<polygon fill="#63b8ff" stroke="#63b8ff" points="1099.68,-284.65 1110.19,-285.95 1102.79,-278.38 1099.68,-284.65"/>
</a>
</g>
</g>
<!-- Node12 -->
<g id="Node000012" class="node">
<title>Node12</title>
<g id="a_Node000012"><a xlink:href="testPeriDEMLib_8cpp.html" target="_top" xlink:title=" ">
<polygon fill="white" stroke="#666666" points="1627,-118 1508,-118 1508,-77 1627,-77 1627,-118"/>
<text text-anchor="start" x="1516" y="-106" font-family="Arial" font-size="10.00">/home/user/project</text>
<text text-anchor="start" x="1516" y="-95" font-family="Arial" font-size="10.00">/test/test_exec/peridem</text>
<text text-anchor="middle" x="1567.5" y="-84" font-family="Arial" font-size="10.00">/testPeriDEMLib.cpp</text>
</a>
</g>
</g>
<!-- Node1&#45;&gt;Node12 -->
<g id="edge34_Node000001_Node000012" class="edge">
<title>Node1&#45;&gt;Node12</title>
<g id="a_edge34_Node000001_Node000012"><a xlink:title=" ">
<path fill="none" stroke="#63b8ff" d="M1197.82,-291.63C1273.21,-278.71 1404.8,-248.35 1498.5,-184 1523.66,-166.72 1544.32,-137.64 1556.28,-118.26"/>
<polygon fill="#63b8ff" stroke="#63b8ff" points="1196.85,-288.24 1187.56,-293.34 1198,-295.15 1196.85,-288.24"/>
</a>
</g>
</g>
<!-- Node5 -->
<g id="Node000005" class="node">
<title>Node5</title>
<g id="a_Node000005"><a xlink:href="materialUtil_8h.html" target="_top" xlink:title=" ">
<polygon fill="white" stroke="#666666" points="1259,-112.5 1128,-112.5 1128,-82.5 1259,-82.5 1259,-112.5"/>
<text text-anchor="start" x="1136" y="-100.5" font-family="Arial" font-size="10.00">/home/user/project</text>
<text text-anchor="middle" x="1193.5" y="-89.5" font-family="Arial" font-size="10.00">/src/material/materialUtil.h</text>
</a>
</g>
</g>
<!-- Node4&#45;&gt;Node5 -->
<g id="edge4_Node000004_Node000005" class="edge">
<title>Node4&#45;&gt;Node5</title>
<g id="a_edge4_Node000004_Node000005"><a xlink:title=" ">
<path fill="none" stroke="#63b8ff" d="M1037.9,-213.94C1050.66,-204.87 1065.89,-193.96 1079.5,-184 1113.44,-159.16 1152.57,-129.61 1175.04,-112.55"/>
<polygon fill="#63b8ff" stroke="#63b8ff" points="1035.63,-211.26 1029.5,-219.9 1039.68,-216.97 1035.63,-211.26"/>
</a>
</g>
</g>
<!-- Node11 -->
<g id="Node000011" class="node">
<title>Node11</title>
<g id="a_Node000011"><a xlink:href="demModel_8h.html" target="_top" xlink:title=" ">
<polygon fill="white" stroke="#666666" points="1489.5,-184 1349.5,-184 1349.5,-154 1489.5,-154 1489.5,-184"/>
<text text-anchor="start" x="1357.5" y="-172" font-family="Arial" font-size="10.00">/home/user/project</text>
<text text-anchor="middle" x="1419.5" y="-161" font-family="Arial" font-size="10.00">/src/model/dem/demModel.h</text>
</a>
</g>
</g>
<!-- Node4&#45;&gt;Node11 -->
<g id="edge10_Node000004_Node000011" class="edge">
<title>Node4&#45;&gt;Node11</title>
<g id="a_edge10_Node000004_Node000011"><a xlink:title=" ">
<path fill="none" stroke="#63b8ff" d="M1080.32,-222.95C1155.67,-211.18 1274.16,-192.69 1349.28,-180.96"/>
<polygon fill="#63b8ff" stroke="#63b8ff" points="1079.78,-219.49 1070.44,-224.49 1080.86,-226.4 1079.78,-219.49"/>
</a>
</g>
</g>
<!-- Node13 -->
<g id="Node000013" class="node">
<title>Node13</title>
<g id="a_Node000013"><a xlink:href="modelData_8cpp.html" target="_top" xlink:title=" ">
<polygon fill="white" stroke="#666666" points="131,-35.5 0,-35.5 0,-5.5 131,-5.5 131,-35.5"/>
<text text-anchor="start" x="8" y="-23.5" font-family="Arial" font-size="10.00">/home/user/project</text>
<text text-anchor="middle" x="65.5" y="-12.5" font-family="Arial" font-size="10.00">/src/model/modelData.cpp</text>
</a>
</g>
</g>
<!-- Node4&#45;&gt;Node13 -->
<g id="edge16_Node000004_Node000013" class="edge">
<title>Node4&#45;&gt;Node13</title>
<g id="a_edge16_Node000004_Node000013"><a xlink:title=" ">
<path fill="none" stroke="#63b8ff" d="M938.92,-219.99C814.4,-200.1 780.19,-206.88 660.5,-184 449.88,-143.73 204.7,-67.03 107.9,-35.53"/>
<polygon fill="#63b8ff" stroke="#63b8ff" points="938.41,-223.45 948.84,-221.6 939.53,-216.54 938.41,-223.45"/>
</a>
</g>
</g>
<!-- Node14 -->
<g id="Node000014" class="node">
<title>Node14</title>
<g id="a_Node000014"><a xlink:href="baseParticle_8h.html" target="_top" xlink:title=" ">
<polygon fill="white" stroke="#666666" points="955,-112.5 822,-112.5 822,-82.5 955,-82.5 955,-112.5"/>
<text text-anchor="start" x="830" y="-100.5" font-family="Arial" font-size="10.00">/home/user/project</text>
<text text-anchor="middle" x="888.5" y="-89.5" font-family="Arial" font-size="10.00">/src/particle/baseParticle.h</text>
</a>
</g>
</g>
<!-- Node4&#45;&gt;Node14 -->
<g id="edge17_Node000004_Node000014" class="edge">
<title>Node4&#45;&gt;Node14</title>
<g id="a_edge17_Node000004_Node000014"><a xlink:title=" ">
<path fill="none" stroke="#63b8ff" d="M975.65,-214.46C963.03,-206.12 949.19,-195.63 938.5,-184 918.37,-162.1 902.61,-130.75 894.51,-112.73"/>
<polygon fill="#63b8ff" stroke="#63b8ff" points="973.82,-217.44 984.13,-219.87 977.58,-211.54 973.82,-217.44"/>
</a>
</g>
</g>
<!-- Node17 -->
<g id="Node000017" class="node">
<title>Node17</title>
<g id="a_Node000017"><a xlink:href="vtkParticleReader_8cpp.html" target="_top" xlink:title=" ">
<polygon fill="white" stroke="#666666" points="295.5,-35.5 149.5,-35.5 149.5,-5.5 295.5,-5.5 295.5,-35.5"/>
<text text-anchor="start" x="157.5" y="-23.5" font-family="Arial" font-size="10.00">/home/user/project</text>
<text text-anchor="middle" x="222.5" y="-12.5" font-family="Arial" font-size="10.00">/src/rw/vtkParticleReader.cpp</text>
</a>
</g>
</g>
<!-- Node4&#45;&gt;Node17 -->
<g id="edge32_Node000004_Node000017" class="edge">
<title>Node4&#45;&gt;Node17</title>
<g id="a_edge32_Node000004_Node000017"><a xlink:title=" ">
<path fill="none" stroke="#63b8ff" d="M938.96,-219.76C880.94,-207.93 803.43,-191.82 772.5,-184 581.85,-135.81 358.01,-65.26 265.67,-35.53"/>
<polygon fill="#63b8ff" stroke="#63b8ff" points="938.32,-223.2 948.82,-221.77 939.72,-216.34 938.32,-223.2"/>
</a>
</g>
</g>
<!-- Node18 -->
<g id="Node000018" class="node">
<title>Node18</title>
<g id="a_Node000018"><a xlink:href="vtkParticleWriter_8cpp.html" target="_top" xlink:title=" ">
<polygon fill="white" stroke="#666666" points="453.5,-35.5 313.5,-35.5 313.5,-5.5 453.5,-5.5 453.5,-35.5"/>
<text text-anchor="start" x="321.5" y="-23.5" font-family="Arial" font-size="10.00">/home/user/project</text>
<text text-anchor="middle" x="383.5" y="-12.5" font-family="Arial" font-size="10.00">/src/rw/vtkParticleWriter.cpp</text>
</a>
</g>
</g>
<!-- Node4&#45;&gt;Node18 -->
<g id="edge33_Node000004_Node000018" class="edge">
<title>Node4&#45;&gt;Node18</title>
<g id="a_edge33_Node000004_Node000018"><a xlink:title=" ">
<path fill="none" stroke="#63b8ff" d="M958.17,-216.57C837.11,-175.48 535.65,-73.15 425.04,-35.6"/>
<polygon fill="#63b8ff" stroke="#63b8ff" points="957.35,-219.99 967.94,-219.89 959.6,-213.36 957.35,-219.99"/>
</a>
</g>
</g>
<!-- Node20 -->
<g id="Node000020" class="node">
<title>Node20</title>
<g id="a_Node000020"><a xlink:href="refParticle_8h.html" target="_top" xlink:title=" ">
<polygon fill="white" stroke="#666666" points="1071,-184 948,-184 948,-154 1071,-154 1071,-184"/>
<text text-anchor="start" x="956" y="-172" font-family="Arial" font-size="10.00">/home/user/project</text>
<text text-anchor="middle" x="1009.5" y="-161" font-family="Arial" font-size="10.00">/src/particle/refParticle.h</text>
</a>
</g>
</g>
<!-- Node4&#45;&gt;Node20 -->
<g id="edge29_Node000004_Node000020" class="edge">
<title>Node4&#45;&gt;Node20</title>
<g id="a_edge29_Node000004_Node000020"><a xlink:title=" ">
<path fill="none" stroke="#63b8ff" d="M1009.5,-209.54C1009.5,-200.96 1009.5,-191.61 1009.5,-184.16"/>
<polygon fill="#63b8ff" stroke="#63b8ff" points="1006,-209.8 1009.5,-219.8 1013,-209.8 1006,-209.8"/>
</a>
</g>
</g>
<!-- Node6 -->
<g id="Node000006" class="node">
<title>Node6</title>
<g id="a_Node000006"><a xlink:href="apps_2peridynamics_2main_8cpp.html" target="_top" xlink:title=" ">
<polygon fill="white" stroke="#666666" points="1429.5,-35.5 1285.5,-35.5 1285.5,-5.5 1429.5,-5.5 1429.5,-35.5"/>
<text text-anchor="start" x="1293.5" y="-23.5" font-family="Arial" font-size="10.00">/home/user/project</text>
<text text-anchor="middle" x="1357.5" y="-12.5" font-family="Arial" font-size="10.00">/apps/peridynamics/main.cpp</text>
</a>
</g>
</g>
<!-- Node5&#45;&gt;Node6 -->
<g id="edge5_Node000005_Node000006" class="edge">
<title>Node5&#45;&gt;Node6</title>
<g id="a_edge5_Node000005_Node000006"><a xlink:title=" ">
<path fill="none" stroke="#63b8ff" d="M1233.7,-78.12C1262.42,-64.98 1300.49,-47.57 1326.79,-35.54"/>
<polygon fill="#63b8ff" stroke="#63b8ff" points="1231.99,-75.05 1224.35,-82.39 1234.9,-81.42 1231.99,-75.05"/>
</a>
</g>
</g>
<!-- Node7 -->
<g id="Node000007" class="node">
<title>Node7</title>
<g id="a_Node000007"><a xlink:href="apps_2twoparticle__demo_2main_8cpp.html" target="_top" xlink:title=" ">
<polygon fill="white" stroke="#666666" points="1737.5,-41 1617.5,-41 1617.5,0 1737.5,0 1737.5,-41"/>
<text text-anchor="start" x="1625.5" y="-29" font-family="Arial" font-size="10.00">/home/user/project</text>
<text text-anchor="start" x="1625.5" y="-18" font-family="Arial" font-size="10.00">/apps/twoparticle_demo</text>
<text text-anchor="middle" x="1677.5" y="-7" font-family="Arial" font-size="10.00">/main.cpp</text>
</a>
</g>
</g>
<!-- Node5&#45;&gt;Node7 -->
<g id="edge6_Node000005_Node000007" class="edge">
<title>Node5&#45;&gt;Node7</title>
<g id="a_edge6_Node000005_Node000007"><a xlink:title=" ">
<path fill="none" stroke="#63b8ff" d="M1253.18,-80.13C1258.34,-78.98 1263.5,-77.91 1268.5,-77 1417.56,-49.86 1458.68,-69.43 1607.5,-41 1610.72,-40.38 1614.01,-39.69 1617.32,-38.95"/>
<polygon fill="#63b8ff" stroke="#63b8ff" points="1252.23,-76.76 1243.3,-82.45 1253.83,-83.58 1252.23,-76.76"/>
</a>
</g>
</g>
<!-- Node8 -->
<g id="Node000008" class="node">
<title>Node8</title>
<g id="a_Node000008"><a xlink:href="materialUtil_8cpp.html" target="_top" xlink:title=" ">
<polygon fill="white" stroke="#666666" points="1105.5,-35.5 963.5,-35.5 963.5,-5.5 1105.5,-5.5 1105.5,-35.5"/>
<text text-anchor="start" x="971.5" y="-23.5" font-family="Arial" font-size="10.00">/home/user/project</text>
<text text-anchor="middle" x="1034.5" y="-12.5" font-family="Arial" font-size="10.00">/src/material/materialUtil.cpp</text>
</a>
</g>
</g>
<!-- Node5&#45;&gt;Node8 -->
<g id="edge7_Node000005_Node000008" class="edge">
<title>Node5&#45;&gt;Node8</title>
<g id="a_edge7_Node000005_Node000008"><a xlink:title=" ">
<path fill="none" stroke="#63b8ff" d="M1154.53,-78.12C1126.68,-64.98 1089.77,-47.57 1064.27,-35.54"/>
<polygon fill="#63b8ff" stroke="#63b8ff" points="1153.06,-81.29 1163.59,-82.39 1156.04,-74.96 1153.06,-81.29"/>
</a>
</g>
</g>
<!-- Node9 -->
<g id="Node000009" class="node">
<title>Node9</title>
<g id="a_Node000009"><a xlink:href="demModel_8cpp.html" target="_top" xlink:title=" ">
<polygon fill="white" stroke="#666666" points="1599,-35.5 1448,-35.5 1448,-5.5 1599,-5.5 1599,-35.5"/>
<text text-anchor="start" x="1456" y="-23.5" font-family="Arial" font-size="10.00">/home/user/project</text>
<text text-anchor="middle" x="1523.5" y="-12.5" font-family="Arial" font-size="10.00">/src/model/dem/demModel.cpp</text>
</a>
</g>
</g>
<!-- Node5&#45;&gt;Node9 -->
<g id="edge8_Node000005_Node000009" class="edge">
<title>Node5&#45;&gt;Node9</title>
<g id="a_edge8_Node000005_Node000009"><a xlink:title=" ">
<path fill="none" stroke="#63b8ff" d="M1256.09,-80C1260.28,-78.96 1264.45,-77.96 1268.5,-77 1343.67,-59.28 1363.08,-57.64 1438.5,-41 1446.34,-39.27 1454.57,-37.42 1462.7,-35.58"/>
<polygon fill="#63b8ff" stroke="#63b8ff" points="1255.13,-76.63 1246.28,-82.45 1256.83,-83.42 1255.13,-76.63"/>
</a>
</g>
</g>
<!-- Node10 -->
<g id="Node000010" class="node">
<title>Node10</title>
<g id="a_Node000010"><a xlink:href="baseParticle_8cpp.html" target="_top" xlink:title=" ">
<polygon fill="white" stroke="#666666" points="1267,-35.5 1124,-35.5 1124,-5.5 1267,-5.5 1267,-35.5"/>
<text text-anchor="start" x="1132" y="-23.5" font-family="Arial" font-size="10.00">/home/user/project</text>
<text text-anchor="middle" x="1195.5" y="-12.5" font-family="Arial" font-size="10.00">/src/particle/baseParticle.cpp</text>
</a>
</g>
</g>
<!-- Node5&#45;&gt;Node10 -->
<g id="edge9_Node000005_Node000010" class="edge">
<title>Node5&#45;&gt;Node10</title>
<g id="a_edge9_Node000005_Node000010"><a xlink:title=" ">
<path fill="none" stroke="#63b8ff" d="M1194.15,-72.04C1194.47,-59.95 1194.85,-45.79 1195.13,-35.54"/>
<polygon fill="#63b8ff" stroke="#63b8ff" points="1190.64,-72.3 1193.88,-82.39 1197.64,-72.49 1190.64,-72.3"/>
</a>
</g>
</g>
<!-- Node11&#45;&gt;Node3 -->
<g id="edge13_Node000011_Node000003" class="edge">
<title>Node11&#45;&gt;Node3</title>
<g id="a_edge13_Node000011_Node000003"><a xlink:title=" ">
<path fill="none" stroke="#63b8ff" d="M1392.66,-147.94C1377.49,-136.6 1358.9,-122.71 1345.29,-112.54"/>
<polygon fill="#63b8ff" stroke="#63b8ff" points="1390.57,-150.75 1400.68,-153.94 1394.76,-145.15 1390.57,-150.75"/>
</a>
</g>
</g>
<!-- Node11&#45;&gt;Node6 -->
<g id="edge11_Node000011_Node000006" class="edge">
<title>Node11&#45;&gt;Node6</title>
<g id="a_edge11_Node000011_Node000006"><a xlink:title=" ">
<path fill="none" stroke="#63b8ff" d="M1411.02,-144.32C1404.25,-125.82 1394.3,-99.56 1384.5,-77 1378.35,-62.85 1370.58,-47.06 1364.95,-35.95"/>
<polygon fill="#63b8ff" stroke="#63b8ff" points="1407.83,-145.77 1414.53,-153.97 1414.41,-143.38 1407.83,-145.77"/>
</a>
</g>
</g>
<!-- Node11&#45;&gt;Node7 -->
<g id="edge12_Node000011_Node000007" class="edge">
<title>Node11&#45;&gt;Node7</title>
<g id="a_edge12_Node000011_Node000007"><a xlink:title=" ">
<path fill="none" stroke="#63b8ff" d="M1440.05,-146.29C1448.11,-137.61 1457.37,-127.45 1465.5,-118 1480.76,-100.27 1479.15,-90.15 1498.5,-77 1508.69,-70.07 1569.51,-51.91 1617.47,-38.23"/>
<polygon fill="#63b8ff" stroke="#63b8ff" points="1437.32,-144.09 1433.04,-153.79 1442.43,-148.87 1437.32,-144.09"/>
</a>
</g>
</g>
<!-- Node11&#45;&gt;Node9 -->
<g id="edge14_Node000011_Node000009" class="edge">
<title>Node11&#45;&gt;Node9</title>
<g id="a_edge14_Node000011_Node000009"><a xlink:title=" ">
<path fill="none" stroke="#63b8ff" d="M1428.77,-144.45C1436.9,-125.3 1449.87,-98.1 1465.5,-77 1477.12,-61.32 1493.37,-46.19 1505.72,-35.7"/>
<polygon fill="#63b8ff" stroke="#63b8ff" points="1425.44,-143.33 1424.86,-153.91 1431.91,-146 1425.44,-143.33"/>
</a>
</g>
</g>
<!-- Node11&#45;&gt;Node12 -->
<g id="edge15_Node000011_Node000012" class="edge">
<title>Node11&#45;&gt;Node12</title>
<g id="a_edge15_Node000011_Node000012"><a xlink:title=" ">
<path fill="none" stroke="#63b8ff" d="M1458.6,-149.64C1479.3,-139.92 1504.74,-127.97 1525.82,-118.07"/>
<polygon fill="#63b8ff" stroke="#63b8ff" points="1457.01,-146.52 1449.45,-153.94 1459.99,-152.85 1457.01,-146.52"/>
</a>
</g>
</g>
<!-- Node14&#45;&gt;Node6 -->
<g id="edge18_Node000014_Node000006" class="edge">
<title>Node14&#45;&gt;Node6</title>
<g id="a_edge18_Node000014_Node000006"><a xlink:title=" ">
<path fill="none" stroke="#63b8ff" d="M949.24,-80.14C954.39,-78.99 959.52,-77.92 964.5,-77 1101.32,-51.65 1138.46,-65.14 1275.5,-41 1284.29,-39.45 1293.55,-37.53 1302.55,-35.51"/>
<polygon fill="#63b8ff" stroke="#63b8ff" points="948.34,-76.75 939.39,-82.43 949.92,-83.57 948.34,-76.75"/>
</a>
</g>
</g>
<!-- Node14&#45;&gt;Node7 -->
<g id="edge19_Node000014_Node000007" class="edge">
<title>Node14&#45;&gt;Node7</title>
<g id="a_edge19_Node000014_Node000007"><a xlink:title=" ">
<path fill="none" stroke="#63b8ff" d="M947.06,-80.26C952.92,-79 958.81,-77.88 964.5,-77 1247.36,-33.22 1325.11,-87.68 1607.5,-41 1610.74,-40.47 1614.04,-39.84 1617.36,-39.14"/>
<polygon fill="#63b8ff" stroke="#63b8ff" points="946.24,-76.86 937.27,-82.49 947.8,-83.68 946.24,-76.86"/>
</a>
</g>
</g>
<!-- Node14&#45;&gt;Node8 -->
<g id="edge22_Node000014_Node000008" class="edge">
<title>Node14&#45;&gt;Node8</title>
<g id="a_edge22_Node000014_Node000008"><a xlink:title=" ">
<path fill="none" stroke="#63b8ff" d="M924.96,-77.77C950.45,-64.68 983.95,-47.47 1007.16,-35.54"/>
<polygon fill="#63b8ff" stroke="#63b8ff" points="923.26,-74.71 915.96,-82.39 926.46,-80.94 923.26,-74.71"/>
</a>
</g>
</g>
<!-- Node14&#45;&gt;Node9 -->
<g id="edge23_Node000014_Node000009" class="edge">
<title>Node14&#45;&gt;Node9</title>
<g id="a_edge23_Node000014_Node000009"><a xlink:title=" ">
<path fill="none" stroke="#63b8ff" d="M948.03,-80.17C953.57,-78.97 959.12,-77.89 964.5,-77 1172.96,-42.61 1229.62,-72.71 1438.5,-41 1447.93,-39.57 1457.87,-37.66 1467.49,-35.6"/>
<polygon fill="#63b8ff" stroke="#63b8ff" points="947.08,-76.8 938.11,-82.44 948.64,-83.62 947.08,-76.8"/>
</a>
</g>
</g>
<!-- Node14&#45;&gt;Node10 -->
<g id="edge25_Node000014_Node000010" class="edge">
<title>Node14&#45;&gt;Node10</title>
<g id="a_edge25_Node000014_Node000010"><a xlink:title=" ">
<path fill="none" stroke="#63b8ff" d="M952.76,-79.94C956.73,-78.94 960.67,-77.95 964.5,-77 1031.04,-60.48 1047.84,-57.02 1114.5,-41 1121.81,-39.24 1129.5,-37.39 1137.1,-35.56"/>
<polygon fill="#63b8ff" stroke="#63b8ff" points="951.69,-76.6 942.86,-82.44 953.41,-83.38 951.69,-76.6"/>
</a>
</g>
</g>
<!-- Node14&#45;&gt;Node13 -->
<g id="edge24_Node000014_Node000013" class="edge">
<title>Node14&#45;&gt;Node13</title>
<g id="a_edge24_Node000014_Node000013"><a xlink:title=" ">
<path fill="none" stroke="#63b8ff" d="M811.67,-95.36C675.52,-92.32 383.4,-81.25 140.5,-41 132.01,-39.59 123.07,-37.67 114.45,-35.58"/>
<polygon fill="#63b8ff" stroke="#63b8ff" points="811.91,-98.86 821.98,-95.58 812.06,-91.86 811.91,-98.86"/>
</a>
</g>
</g>
<!-- Node15 -->
<g id="Node000015" class="node">
<title>Node15</title>
<g id="a_Node000015"><a xlink:href="particleFLoading_8cpp.html" target="_top" xlink:title=" ">
<polygon fill="white" stroke="#666666" points="631.5,-35.5 471.5,-35.5 471.5,-5.5 631.5,-5.5 631.5,-35.5"/>
<text text-anchor="start" x="479.5" y="-23.5" font-family="Arial" font-size="10.00">/home/user/project</text>
<text text-anchor="middle" x="551.5" y="-12.5" font-family="Arial" font-size="10.00">/src/loading/particleFLoading.cpp</text>
</a>
</g>
</g>
<!-- Node14&#45;&gt;Node15 -->
<g id="edge20_Node000014_Node000015" class="edge">
<title>Node14&#45;&gt;Node15</title>
<g id="a_edge20_Node000014_Node000015"><a xlink:title=" ">
<path fill="none" stroke="#63b8ff" d="M815.73,-80.3C755.76,-66.96 671.58,-48.22 614.47,-35.51"/>
<polygon fill="#63b8ff" stroke="#63b8ff" points="814.99,-83.73 825.51,-82.48 816.51,-76.89 814.99,-83.73"/>
</a>
</g>
</g>
<!-- Node16 -->
<g id="Node000016" class="node">
<title>Node16</title>
<g id="a_Node000016"><a xlink:href="particleULoading_8cpp.html" target="_top" xlink:title=" ">
<polygon fill="white" stroke="#666666" points="811,-35.5 650,-35.5 650,-5.5 811,-5.5 811,-35.5"/>
<text text-anchor="start" x="658" y="-23.5" font-family="Arial" font-size="10.00">/home/user/project</text>
<text text-anchor="middle" x="730.5" y="-12.5" font-family="Arial" font-size="10.00">/src/loading/particleULoading.cpp</text>
</a>
</g>
</g>
<!-- Node14&#45;&gt;Node16 -->
<g id="edge21_Node000014_Node000016" class="edge">
<title>Node14&#45;&gt;Node16</title>
<g id="a_edge21_Node000014_Node000016"><a xlink:title=" ">
<path fill="none" stroke="#63b8ff" d="M849.41,-77.94C821.78,-64.83 785.31,-47.52 760.09,-35.54"/>
<polygon fill="#63b8ff" stroke="#63b8ff" points="848.25,-81.27 858.78,-82.39 851.25,-74.94 848.25,-81.27"/>
</a>
</g>
</g>
<!-- Node14&#45;&gt;Node17 -->
<g id="edge26_Node000014_Node000017" class="edge">
<title>Node14&#45;&gt;Node17</title>
<g id="a_edge26_Node000014_Node000017"><a xlink:title=" ">
<path fill="none" stroke="#63b8ff" d="M811.8,-92.61C699.75,-86.16 485,-70.89 304.5,-41 295.55,-39.52 286.12,-37.61 276.98,-35.57"/>
<polygon fill="#63b8ff" stroke="#63b8ff" points="811.81,-96.12 821.99,-93.19 812.2,-89.13 811.81,-96.12"/>
</a>
</g>
</g>
<!-- Node14&#45;&gt;Node18 -->
<g id="edge27_Node000014_Node000018" class="edge">
<title>Node14&#45;&gt;Node18</title>
<g id="a_edge27_Node000014_Node000018"><a xlink:title=" ">
<path fill="none" stroke="#63b8ff" d="M811.57,-89.11C725.94,-80.27 583.65,-63.77 462.5,-41 454.17,-39.43 445.4,-37.53 436.87,-35.54"/>
<polygon fill="#63b8ff" stroke="#63b8ff" points="811.42,-92.61 821.72,-90.15 812.13,-85.65 811.42,-92.61"/>
</a>
</g>
</g>
<!-- Node19 -->
<g id="Node000019" class="node">
<title>Node19</title>
<g id="a_Node000019"><a xlink:href="testParticleLib_8cpp.html" target="_top" xlink:title=" ">
<polygon fill="white" stroke="#666666" points="945.5,-41 829.5,-41 829.5,0 945.5,0 945.5,-41"/>
<text text-anchor="start" x="837.5" y="-29" font-family="Arial" font-size="10.00">/home/user/project</text>
<text text-anchor="start" x="837.5" y="-18" font-family="Arial" font-size="10.00">/test/test_exec/particle</text>
<text text-anchor="middle" x="887.5" y="-7" font-family="Arial" font-size="10.00">/testParticleLib.cpp</text>
</a>
</g>
</g>
<!-- Node14&#45;&gt;Node19 -->
<g id="edge28_Node000014_Node000019" class="edge">
<title>Node14&#45;&gt;Node19</title>
<g id="a_edge28_Node000014_Node000019"><a xlink:title=" ">
<path fill="none" stroke="#63b8ff" d="M888.18,-72.23C888.04,-62.2 887.89,-50.71 887.76,-41.2"/>
<polygon fill="#63b8ff" stroke="#63b8ff" points="884.68,-72.44 888.31,-82.39 891.68,-72.35 884.68,-72.44"/>
</a>
</g>
</g>
<!-- Node20&#45;&gt;Node14 -->
<g id="edge30_Node000020_Node000014" class="edge">
<title>Node20&#45;&gt;Node14</title>
<g id="a_edge30_Node000020_Node000014"><a xlink:title=" ">
<path fill="none" stroke="#63b8ff" d="M976.21,-148.88C956.19,-137.38 931.15,-122.99 912.95,-112.54"/>
<polygon fill="#63b8ff" stroke="#63b8ff" points="974.6,-151.99 985.01,-153.94 978.09,-145.92 974.6,-151.99"/>
</a>
</g>
</g>
<!-- Node21 -->
<g id="Node000021" class="node">
<title>Node21</title>
<g id="a_Node000021"><a xlink:href="refParticle_8cpp.html" target="_top" xlink:title=" ">
<polygon fill="white" stroke="#666666" points="1107.5,-112.5 973.5,-112.5 973.5,-82.5 1107.5,-82.5 1107.5,-112.5"/>
<text text-anchor="start" x="981.5" y="-100.5" font-family="Arial" font-size="10.00">/home/user/project</text>
<text text-anchor="middle" x="1040.5" y="-89.5" font-family="Arial" font-size="10.00">/src/particle/refParticle.cpp</text>
</a>
</g>
</g>
<!-- Node20&#45;&gt;Node21 -->
<g id="edge31_Node000020_Node000021" class="edge">
<title>Node20&#45;&gt;Node21</title>
<g id="a_edge31_Node000020_Node000021"><a xlink:title=" ">
<path fill="none" stroke="#63b8ff" d="M1019.88,-144.73C1024.64,-134.06 1030.12,-121.77 1034.24,-112.54"/>
<polygon fill="#63b8ff" stroke="#63b8ff" points="1016.65,-143.38 1015.77,-153.94 1023.04,-146.23 1016.65,-143.38"/>
</a>
</g>
</g>
</g>
</svg>
