<?xml version="1.0" encoding="UTF-8" standalone="no"?>
<!DOCTYPE svg PUBLIC "-//W3C//DTD SVG 1.1//EN"
 "http://www.w3.org/Graphics/SVG/1.1/DTD/svg11.dtd">
<!-- Generated by graphviz version 2.43.0 (0)
 -->
<!-- Title: /home/user/project/src/util/io.cpp Pages: 1 -->
<svg width="541pt" height="203pt"
 viewBox="0.00 0.00 541.00 203.00" xmlns="http://www.w3.org/2000/svg" xmlns:xlink="http://www.w3.org/1999/xlink">
<g id="graph0" class="graph" transform="scale(1 1) rotate(0) translate(4 199)">
<title>/home/user/project/src/util/io.cpp</title>
<!-- Node1 -->
<g id="Node000001" class="node">
<title>Node1</title>
<g id="a_Node000001"><a xlink:title=" ">
<polygon fill="#999999" stroke="#666666" points="401,-195 303,-195 303,-165 401,-165 401,-195"/>
<text text-anchor="start" x="311" y="-183" font-family="Arial" font-size="10.00">/home/user/project</text>
<text text-anchor="middle" x="352" y="-172" font-family="Arial" font-size="10.00">/src/util/io.cpp</text>
</a>
</g>
</g>
<!-- Node2 -->
<g id="Node000002" class="node">
<title>Node2</title>
<g id="a_Node000002"><a xlink:href="io_8h.html" target="_top" xlink:title=" ">
<polygon fill="white" stroke="#666666" points="339,-129 307,-129 307,-110 339,-110 339,-129"/>
<text text-anchor="middle" x="323" y="-117" font-family="Arial" font-size="10.00">io.h</text>
</a>
</g>
</g>
<!-- Node1&#45;&gt;Node2 -->
<g id="edge1_Node000001_Node000002" class="edge">
<title>Node1&#45;&gt;Node2</title>
<g id="a_edge1_Node000001_Node000002"><a xlink:title=" ">
<path fill="none" stroke="#63b8ff" d="M344.98,-164.84C341.03,-156.87 336.06,-146.84 331.84,-138.33"/>
<polygon fill="#63b8ff" stroke="#63b8ff" points="334.92,-136.67 327.35,-129.27 328.65,-139.78 334.92,-136.67"/>
</a>
</g>
</g>
<!-- Node15 -->
<g id="Node000015" class="node">
<title>Node15</title>
<g id="a_Node000015"><a xlink:title=" ">
<polygon fill="#e0e0e0" stroke="#999999" points="406.5,-129 357.5,-129 357.5,-110 406.5,-110 406.5,-129"/>
<text text-anchor="middle" x="382" y="-117" font-family="Arial" font-size="10.00">cassert</text>
</a>
</g>
</g>
<!-- Node1&#45;&gt;Node15 -->
<g id="edge17_Node000001_Node000015" class="edge">
<title>Node1&#45;&gt;Node15</title>
<g id="a_edge17_Node000001_Node000015"><a xlink:title=" ">
<path fill="none" stroke="#63b8ff" d="M359.26,-164.84C363.35,-156.87 368.49,-146.84 372.86,-138.33"/>
<polygon fill="#63b8ff" stroke="#63b8ff" points="376.06,-139.76 377.5,-129.27 369.83,-136.57 376.06,-139.76"/>
</a>
</g>
</g>
<!-- Node3 -->
<g id="Node000003" class="node">
<title>Node3</title>
<g id="a_Node000003"><a xlink:href="point_8h.html" target="_top" xlink:title=" ">
<polygon fill="white" stroke="#666666" points="202,-74 156,-74 156,-55 202,-55 202,-74"/>
<text text-anchor="middle" x="179" y="-62" font-family="Arial" font-size="10.00">point.h</text>
</a>
</g>
</g>
<!-- Node2&#45;&gt;Node3 -->
<g id="edge2_Node000002_Node000003" class="edge">
<title>Node2&#45;&gt;Node3</title>
<g id="a_edge2_Node000002_Node000003"><a xlink:title=" ">
<path fill="none" stroke="#63b8ff" d="M306.76,-112.52C283.76,-104.06 241.21,-88.4 211.56,-77.48"/>
<polygon fill="#63b8ff" stroke="#63b8ff" points="212.64,-74.15 202.05,-73.98 210.22,-80.72 212.64,-74.15"/>
</a>
</g>
</g>
<!-- Node7 -->
<g id="Node000007" class="node">
<title>Node7</title>
<g id="a_Node000007"><a xlink:title=" ">
<polygon fill="#e0e0e0" stroke="#999999" points="254,-19 200,-19 200,0 254,0 254,-19"/>
<text text-anchor="middle" x="227" y="-7" font-family="Arial" font-size="10.00">iostream</text>
</a>
</g>
</g>
<!-- Node2&#45;&gt;Node7 -->
<g id="edge14_Node000002_Node000007" class="edge">
<title>Node2&#45;&gt;Node7</title>
<g id="a_edge14_Node000002_Node000007"><a xlink:title=" ">
<path fill="none" stroke="#63b8ff" d="M315.14,-109.66C299.03,-91.54 262.03,-49.91 241.46,-26.77"/>
<polygon fill="#63b8ff" stroke="#63b8ff" points="243.96,-24.31 234.7,-19.16 238.72,-28.96 243.96,-24.31"/>
</a>
</g>
</g>
<!-- Node8 -->
<g id="Node000008" class="node">
<title>Node8</title>
<g id="a_Node000008"><a xlink:title=" ">
<polygon fill="#e0e0e0" stroke="#999999" points="316,-19 272,-19 272,0 316,0 316,-19"/>
<text text-anchor="middle" x="294" y="-7" font-family="Arial" font-size="10.00">vector</text>
</a>
</g>
</g>
<!-- Node2&#45;&gt;Node8 -->
<g id="edge15_Node000002_Node000008" class="edge">
<title>Node2&#45;&gt;Node8</title>
<g id="a_edge15_Node000002_Node000008"><a xlink:title=" ">
<path fill="none" stroke="#63b8ff" d="M320.41,-110C317.72,-101.06 313.42,-86.58 310,-74 305.89,-58.9 301.58,-41.67 298.46,-28.98"/>
<polygon fill="#63b8ff" stroke="#63b8ff" points="301.84,-28.04 296.07,-19.15 295.04,-29.7 301.84,-28.04"/>
</a>
</g>
</g>
<!-- Node9 -->
<g id="Node000009" class="node">
<title>Node9</title>
<g id="a_Node000009"><a xlink:href="parallelUtil_8h.html" target="_top" xlink:title=" ">
<polygon fill="white" stroke="#666666" points="390.5,-74 319.5,-74 319.5,-55 390.5,-55 390.5,-74"/>
<text text-anchor="middle" x="355" y="-62" font-family="Arial" font-size="10.00">parallelUtil.h</text>
</a>
</g>
</g>
<!-- Node2&#45;&gt;Node9 -->
<g id="edge8_Node000002_Node000009" class="edge">
<title>Node2&#45;&gt;Node9</title>
<g id="a_edge8_Node000002_Node000009"><a xlink:title=" ">
<path fill="none" stroke="#63b8ff" d="M328.28,-109.75C332.71,-102.42 339.16,-91.73 344.62,-82.7"/>
<polygon fill="#63b8ff" stroke="#63b8ff" points="347.64,-84.46 349.81,-74.09 341.65,-80.84 347.64,-84.46"/>
</a>
</g>
</g>
<!-- Node13 -->
<g id="Node000013" class="node">
<title>Node13</title>
<g id="a_Node000013"><a xlink:title=" ">
<polygon fill="#e0e0e0" stroke="#999999" points="459,-74 409,-74 409,-55 459,-55 459,-74"/>
<text text-anchor="middle" x="434" y="-62" font-family="Arial" font-size="10.00">fstream</text>
</a>
</g>
</g>
<!-- Node2&#45;&gt;Node13 -->
<g id="edge13_Node000002_Node000013" class="edge">
<title>Node2&#45;&gt;Node13</title>
<g id="a_edge13_Node000002_Node000013"><a xlink:title=" ">
<path fill="none" stroke="#63b8ff" d="M339.38,-110.68C357.16,-102.19 385.84,-88.5 406.97,-78.41"/>
<polygon fill="#63b8ff" stroke="#63b8ff" points="408.57,-81.52 416.08,-74.06 405.55,-75.21 408.57,-81.52"/>
</a>
</g>
</g>
<!-- Node14 -->
<g id="Node000014" class="node">
<title>Node14</title>
<g id="a_Node000014"><a xlink:title=" ">
<polygon fill="#e0e0e0" stroke="#999999" points="533,-74 477,-74 477,-55 533,-55 533,-74"/>
<text text-anchor="middle" x="505" y="-62" font-family="Arial" font-size="10.00">algorithm</text>
</a>
</g>
</g>
<!-- Node2&#45;&gt;Node14 -->
<g id="edge16_Node000002_Node000014" class="edge">
<title>Node2&#45;&gt;Node14</title>
<g id="a_edge16_Node000002_Node000014"><a xlink:title=" ">
<path fill="none" stroke="#63b8ff" d="M339.2,-113.1C342.44,-112.05 345.82,-110.97 349,-110 389.1,-97.73 435.32,-84.68 466.98,-75.91"/>
<polygon fill="#63b8ff" stroke="#63b8ff" points="468.02,-79.25 476.72,-73.22 466.15,-72.51 468.02,-79.25"/>
</a>
</g>
</g>
<!-- Node4 -->
<g id="Node000004" class="node">
<title>Node4</title>
<g id="a_Node000004"><a xlink:title=" ">
<polygon fill="#e0e0e0" stroke="#999999" points="44,-19 0,-19 0,0 44,0 44,-19"/>
<text text-anchor="middle" x="22" y="-7" font-family="Arial" font-size="10.00">cmath</text>
</a>
</g>
</g>
<!-- Node3&#45;&gt;Node4 -->
<g id="edge3_Node000003_Node000004" class="edge">
<title>Node3&#45;&gt;Node4</title>
<g id="a_edge3_Node000003_Node000004"><a xlink:title=" ">
<path fill="none" stroke="#63b8ff" d="M155.83,-55.68C128.86,-46.57 84.15,-31.48 53.9,-21.27"/>
<polygon fill="#63b8ff" stroke="#63b8ff" points="54.84,-17.89 44.24,-18.01 52.6,-24.52 54.84,-17.89"/>
</a>
</g>
</g>
<!-- Node5 -->
<g id="Node000005" class="node">
<title>Node5</title>
<g id="a_Node000005"><a xlink:title=" ">
<polygon fill="#e0e0e0" stroke="#999999" points="112,-19 62,-19 62,0 112,0 112,-19"/>
<text text-anchor="middle" x="87" y="-7" font-family="Arial" font-size="10.00">iomanip</text>
</a>
</g>
</g>
<!-- Node3&#45;&gt;Node5 -->
<g id="edge4_Node000003_Node000005" class="edge">
<title>Node3&#45;&gt;Node5</title>
<g id="a_edge4_Node000003_Node000005"><a xlink:title=" ">
<path fill="none" stroke="#63b8ff" d="M164.22,-54.98C149.82,-46.69 127.69,-33.94 110.81,-24.22"/>
<polygon fill="#63b8ff" stroke="#63b8ff" points="112.46,-21.13 102.05,-19.17 108.97,-27.19 112.46,-21.13"/>
</a>
</g>
</g>
<!-- Node6 -->
<g id="Node000006" class="node">
<title>Node6</title>
<g id="a_Node000006"><a xlink:title=" ">
<polygon fill="#e0e0e0" stroke="#999999" points="182,-19 130,-19 130,0 182,0 182,-19"/>
<text text-anchor="middle" x="156" y="-7" font-family="Arial" font-size="10.00">sstream</text>
</a>
</g>
</g>
<!-- Node3&#45;&gt;Node6 -->
<g id="edge5_Node000003_Node000006" class="edge">
<title>Node3&#45;&gt;Node6</title>
<g id="a_edge5_Node000003_Node000006"><a xlink:title=" ">
<path fill="none" stroke="#63b8ff" d="M175.2,-54.75C172.09,-47.57 167.58,-37.18 163.71,-28.27"/>
<polygon fill="#63b8ff" stroke="#63b8ff" points="166.92,-26.87 159.73,-19.09 160.5,-29.66 166.92,-26.87"/>
</a>
</g>
</g>
<!-- Node3&#45;&gt;Node7 -->
<g id="edge6_Node000003_Node000007" class="edge">
<title>Node3&#45;&gt;Node7</title>
<g id="a_edge6_Node000003_Node000007"><a xlink:title=" ">
<path fill="none" stroke="#63b8ff" d="M186.93,-54.75C193.85,-47.11 204.07,-35.82 212.45,-26.56"/>
<polygon fill="#63b8ff" stroke="#63b8ff" points="215.1,-28.85 219.22,-19.09 209.91,-24.15 215.1,-28.85"/>
</a>
</g>
</g>
<!-- Node3&#45;&gt;Node8 -->
<g id="edge7_Node000003_Node000008" class="edge">
<title>Node3&#45;&gt;Node8</title>
<g id="a_edge7_Node000003_Node000008"><a xlink:title=" ">
<path fill="none" stroke="#63b8ff" d="M197.48,-54.98C215.98,-46.46 244.68,-33.23 265.98,-23.41"/>
<polygon fill="#63b8ff" stroke="#63b8ff" points="267.57,-26.53 275.19,-19.17 264.64,-20.18 267.57,-26.53"/>
</a>
</g>
</g>
<!-- Node9&#45;&gt;Node8 -->
<g id="edge11_Node000009_Node000008" class="edge">
<title>Node9&#45;&gt;Node8</title>
<g id="a_edge11_Node000009_Node000008"><a xlink:title=" ">
<path fill="none" stroke="#63b8ff" d="M345.2,-54.98C336.18,-47.15 322.59,-35.34 311.68,-25.86"/>
<polygon fill="#63b8ff" stroke="#63b8ff" points="313.82,-23.09 303.98,-19.17 309.23,-28.37 313.82,-23.09"/>
</a>
</g>
</g>
<!-- Node10 -->
<g id="Node000010" class="node">
<title>Node10</title>
<g id="a_Node000010"><a xlink:title=" ">
<polygon fill="#e0e0e0" stroke="#999999" points="375.5,-19 334.5,-19 334.5,0 375.5,0 375.5,-19"/>
<text text-anchor="middle" x="355" y="-7" font-family="Arial" font-size="10.00">mpi.h</text>
</a>
</g>
</g>
<!-- Node9&#45;&gt;Node10 -->
<g id="edge9_Node000009_Node000010" class="edge">
<title>Node9&#45;&gt;Node10</title>
<g id="a_edge9_Node000009_Node000010"><a xlink:title=" ">
<path fill="none" stroke="#63b8ff" d="M355,-54.75C355,-47.8 355,-37.85 355,-29.13"/>
<polygon fill="#63b8ff" stroke="#63b8ff" points="358.5,-29.09 355,-19.09 351.5,-29.09 358.5,-29.09"/>
</a>
</g>
</g>
<!-- Node11 -->
<g id="Node000011" class="node">
<title>Node11</title>
<g id="a_Node000011"><a xlink:title=" ">
<polygon fill="#e0e0e0" stroke="#999999" points="434.5,-19 393.5,-19 393.5,0 434.5,0 434.5,-19"/>
<text text-anchor="middle" x="414" y="-7" font-family="Arial" font-size="10.00">string</text>
</a>
</g>
</g>
<!-- Node9&#45;&gt;Node11 -->
<g id="edge10_Node000009_Node000011" class="edge">
<title>Node9&#45;&gt;Node11</title>
<g id="a_edge10_Node000009_Node000011"><a xlink:title=" ">
<path fill="none" stroke="#63b8ff" d="M364.48,-54.98C373.2,-47.15 386.34,-35.34 396.9,-25.86"/>
<polygon fill="#63b8ff" stroke="#63b8ff" points="399.25,-28.46 404.35,-19.17 394.57,-23.25 399.25,-28.46"/>
</a>
</g>
</g>
<!-- Node12 -->
<g id="Node000012" class="node">
<title>Node12</title>
<g id="a_Node000012"><a xlink:title=" ">
<polygon fill="#e0e0e0" stroke="#999999" points="497,-19 453,-19 453,0 497,0 497,-19"/>
<text text-anchor="middle" x="475" y="-7" font-family="Arial" font-size="10.00">thread</text>
</a>
</g>
</g>
<!-- Node9&#45;&gt;Node12 -->
<g id="edge12_Node000009_Node000012" class="edge">
<title>Node9&#45;&gt;Node12</title>
<g id="a_edge12_Node000009_Node000012"><a xlink:title=" ">
<path fill="none" stroke="#63b8ff" d="M374.28,-54.98C393.67,-46.42 423.81,-33.11 446.07,-23.28"/>
<polygon fill="#63b8ff" stroke="#63b8ff" points="447.64,-26.41 455.37,-19.17 444.81,-20.01 447.64,-26.41"/>
</a>
</g>
</g>
</g>
</svg>
