<?xml version="1.0" encoding="UTF-8" standalone="no"?>
<!DOCTYPE svg PUBLIC "-//W3C//DTD SVG 1.1//EN"
 "http://www.w3.org/Graphics/SVG/1.1/DTD/svg11.dtd">
<!-- Generated by graphviz version 2.43.0 (0)
 -->
<!-- Title: /home/user/project/src/rw/legacyVtkWriter.h Pages: 1 -->
<svg width="489pt" height="203pt"
 viewBox="0.00 0.00 489.00 203.00" xmlns="http://www.w3.org/2000/svg" xmlns:xlink="http://www.w3.org/1999/xlink">
<g id="graph0" class="graph" transform="scale(1 1) rotate(0) translate(4 199)">
<title>/home/user/project/src/rw/legacyVtkWriter.h</title>
<!-- Node1 -->
<g id="Node000001" class="node">
<title>Node1</title>
<g id="a_Node000001"><a xlink:title=" ">
<polygon fill="#999999" stroke="#666666" points="363.5,-195 236.5,-195 236.5,-165 363.5,-165 363.5,-195"/>
<text text-anchor="start" x="244.5" y="-183" font-family="Arial" font-size="10.00">/home/user/project</text>
<text text-anchor="middle" x="300" y="-172" font-family="Arial" font-size="10.00">/src/rw/legacyVtkWriter.h</text>
</a>
</g>
</g>
<!-- Node2 -->
<g id="Node000002" class="node">
<title>Node2</title>
<g id="a_Node000002"><a xlink:href="matrix_8h.html" target="_top" xlink:title=" ">
<polygon fill="white" stroke="#666666" points="209,-129 141,-129 141,-110 209,-110 209,-129"/>
<text text-anchor="middle" x="175" y="-117" font-family="Arial" font-size="10.00">util/matrix.h</text>
</a>
</g>
</g>
<!-- Node1&#45;&gt;Node2 -->
<g id="edge1_Node000001_Node000002" class="edge">
<title>Node1&#45;&gt;Node2</title>
<g id="a_edge1_Node000001_Node000002"><a xlink:title=" ">
<path fill="none" stroke="#63b8ff" d="M270.06,-164.99C249.58,-155.4 222.62,-142.79 202.65,-133.44"/>
<polygon fill="#63b8ff" stroke="#63b8ff" points="204,-130.21 193.46,-129.14 201.03,-136.55 204,-130.21"/>
</a>
</g>
</g>
<!-- Node3 -->
<g id="Node000003" class="node">
<title>Node3</title>
<g id="a_Node000003"><a xlink:href="point_8h.html" target="_top" xlink:title=" ">
<polygon fill="white" stroke="#666666" points="198,-74 152,-74 152,-55 198,-55 198,-74"/>
<text text-anchor="middle" x="175" y="-62" font-family="Arial" font-size="10.00">point.h</text>
</a>
</g>
</g>
<!-- Node1&#45;&gt;Node3 -->
<g id="edge8_Node000001_Node000003" class="edge">
<title>Node1&#45;&gt;Node3</title>
<g id="a_edge8_Node000001_Node000003"><a xlink:title=" ">
<path fill="none" stroke="#63b8ff" d="M284.42,-164.85C260.9,-143.5 216.49,-103.17 192.1,-81.03"/>
<polygon fill="#63b8ff" stroke="#63b8ff" points="194.42,-78.4 184.66,-74.27 189.71,-83.58 194.42,-78.4"/>
</a>
</g>
</g>
<!-- Node8 -->
<g id="Node000008" class="node">
<title>Node8</title>
<g id="a_Node000008"><a xlink:title=" ">
<polygon fill="#e0e0e0" stroke="#999999" points="316,-19 272,-19 272,0 316,0 316,-19"/>
<text text-anchor="middle" x="294" y="-7" font-family="Arial" font-size="10.00">vector</text>
</a>
</g>
</g>
<!-- Node1&#45;&gt;Node8 -->
<g id="edge12_Node000001_Node000008" class="edge">
<title>Node1&#45;&gt;Node8</title>
<g id="a_edge12_Node000001_Node000008"><a xlink:title=" ">
<path fill="none" stroke="#63b8ff" d="M297.81,-164.6C296.41,-154.63 294.72,-141.04 294,-129 291.9,-93.86 292.61,-52.76 293.31,-29.36"/>
<polygon fill="#63b8ff" stroke="#63b8ff" points="296.81,-29.25 293.65,-19.13 289.82,-29.01 296.81,-29.25"/>
</a>
</g>
</g>
<!-- Node9 -->
<g id="Node000009" class="node">
<title>Node9</title>
<g id="a_Node000009"><a xlink:title=" ">
<polygon fill="#e0e0e0" stroke="#999999" points="349,-129 303,-129 303,-110 349,-110 349,-129"/>
<text text-anchor="middle" x="326" y="-117" font-family="Arial" font-size="10.00">cstdint</text>
</a>
</g>
</g>
<!-- Node1&#45;&gt;Node9 -->
<g id="edge9_Node000001_Node000009" class="edge">
<title>Node1&#45;&gt;Node9</title>
<g id="a_edge9_Node000001_Node000009"><a xlink:title=" ">
<path fill="none" stroke="#63b8ff" d="M306.29,-164.84C309.8,-156.95 314.2,-147.05 317.95,-138.61"/>
<polygon fill="#63b8ff" stroke="#63b8ff" points="321.24,-139.83 322.1,-129.27 314.84,-136.98 321.24,-139.83"/>
</a>
</g>
</g>
<!-- Node10 -->
<g id="Node000010" class="node">
<title>Node10</title>
<g id="a_Node000010"><a xlink:title=" ">
<polygon fill="#e0e0e0" stroke="#999999" points="413,-129 367,-129 367,-110 413,-110 413,-129"/>
<text text-anchor="middle" x="390" y="-117" font-family="Arial" font-size="10.00">cstring</text>
</a>
</g>
</g>
<!-- Node1&#45;&gt;Node10 -->
<g id="edge10_Node000001_Node000010" class="edge">
<title>Node1&#45;&gt;Node10</title>
<g id="a_edge10_Node000001_Node000010"><a xlink:title=" ">
<path fill="none" stroke="#63b8ff" d="M321.79,-164.84C335.87,-155.68 354.13,-143.82 368.21,-134.66"/>
<polygon fill="#63b8ff" stroke="#63b8ff" points="370.3,-137.48 376.78,-129.09 366.49,-131.61 370.3,-137.48"/>
</a>
</g>
</g>
<!-- Node11 -->
<g id="Node000011" class="node">
<title>Node11</title>
<g id="a_Node000011"><a xlink:title=" ">
<polygon fill="#e0e0e0" stroke="#999999" points="481,-129 431,-129 431,-110 481,-110 481,-129"/>
<text text-anchor="middle" x="456" y="-117" font-family="Arial" font-size="10.00">fstream</text>
</a>
</g>
</g>
<!-- Node1&#45;&gt;Node11 -->
<g id="edge11_Node000001_Node000011" class="edge">
<title>Node1&#45;&gt;Node11</title>
<g id="a_edge11_Node000001_Node000011"><a xlink:title=" ">
<path fill="none" stroke="#63b8ff" d="M337.37,-164.99C363.63,-155.14 398.41,-142.1 423.52,-132.68"/>
<polygon fill="#63b8ff" stroke="#63b8ff" points="424.83,-135.93 432.96,-129.14 422.37,-129.37 424.83,-135.93"/>
</a>
</g>
</g>
<!-- Node2&#45;&gt;Node3 -->
<g id="edge2_Node000002_Node000003" class="edge">
<title>Node2&#45;&gt;Node3</title>
<g id="a_edge2_Node000002_Node000003"><a xlink:title=" ">
<path fill="none" stroke="#63b8ff" d="M175,-109.75C175,-102.8 175,-92.85 175,-84.13"/>
<polygon fill="#63b8ff" stroke="#63b8ff" points="178.5,-84.09 175,-74.09 171.5,-84.09 178.5,-84.09"/>
</a>
</g>
</g>
<!-- Node4 -->
<g id="Node000004" class="node">
<title>Node4</title>
<g id="a_Node000004"><a xlink:title=" ">
<polygon fill="#e0e0e0" stroke="#999999" points="44,-19 0,-19 0,0 44,0 44,-19"/>
<text text-anchor="middle" x="22" y="-7" font-family="Arial" font-size="10.00">cmath</text>
</a>
</g>
</g>
<!-- Node3&#45;&gt;Node4 -->
<g id="edge3_Node000003_Node000004" class="edge">
<title>Node3&#45;&gt;Node4</title>
<g id="a_edge3_Node000003_Node000004"><a xlink:title=" ">
<path fill="none" stroke="#63b8ff" d="M151.76,-55.45C125.74,-46.44 83.39,-31.77 54.19,-21.65"/>
<polygon fill="#63b8ff" stroke="#63b8ff" points="55.05,-18.25 44.46,-18.28 52.76,-24.86 55.05,-18.25"/>
</a>
</g>
</g>
<!-- Node5 -->
<g id="Node000005" class="node">
<title>Node5</title>
<g id="a_Node000005"><a xlink:title=" ">
<polygon fill="#e0e0e0" stroke="#999999" points="112,-19 62,-19 62,0 112,0 112,-19"/>
<text text-anchor="middle" x="87" y="-7" font-family="Arial" font-size="10.00">iomanip</text>
</a>
</g>
</g>
<!-- Node3&#45;&gt;Node5 -->
<g id="edge4_Node000003_Node000005" class="edge">
<title>Node3&#45;&gt;Node5</title>
<g id="a_edge4_Node000003_Node000005"><a xlink:title=" ">
<path fill="none" stroke="#63b8ff" d="M160.86,-54.98C147.21,-46.77 126.31,-34.18 110.22,-24.49"/>
<polygon fill="#63b8ff" stroke="#63b8ff" points="111.77,-21.33 101.4,-19.17 108.16,-27.33 111.77,-21.33"/>
</a>
</g>
</g>
<!-- Node6 -->
<g id="Node000006" class="node">
<title>Node6</title>
<g id="a_Node000006"><a xlink:title=" ">
<polygon fill="#e0e0e0" stroke="#999999" points="182,-19 130,-19 130,0 182,0 182,-19"/>
<text text-anchor="middle" x="156" y="-7" font-family="Arial" font-size="10.00">sstream</text>
</a>
</g>
</g>
<!-- Node3&#45;&gt;Node6 -->
<g id="edge5_Node000003_Node000006" class="edge">
<title>Node3&#45;&gt;Node6</title>
<g id="a_edge5_Node000003_Node000006"><a xlink:title=" ">
<path fill="none" stroke="#63b8ff" d="M171.86,-54.75C169.32,-47.65 165.64,-37.4 162.47,-28.56"/>
<polygon fill="#63b8ff" stroke="#63b8ff" points="165.75,-27.32 159.08,-19.09 159.16,-29.68 165.75,-27.32"/>
</a>
</g>
</g>
<!-- Node7 -->
<g id="Node000007" class="node">
<title>Node7</title>
<g id="a_Node000007"><a xlink:title=" ">
<polygon fill="#e0e0e0" stroke="#999999" points="254,-19 200,-19 200,0 254,0 254,-19"/>
<text text-anchor="middle" x="227" y="-7" font-family="Arial" font-size="10.00">iostream</text>
</a>
</g>
</g>
<!-- Node3&#45;&gt;Node7 -->
<g id="edge6_Node000003_Node000007" class="edge">
<title>Node3&#45;&gt;Node7</title>
<g id="a_edge6_Node000003_Node000007"><a xlink:title=" ">
<path fill="none" stroke="#63b8ff" d="M183.59,-54.75C191.16,-47.03 202.38,-35.6 211.51,-26.28"/>
<polygon fill="#63b8ff" stroke="#63b8ff" points="214.07,-28.68 218.57,-19.09 209.07,-23.78 214.07,-28.68"/>
</a>
</g>
</g>
<!-- Node3&#45;&gt;Node8 -->
<g id="edge7_Node000003_Node000008" class="edge">
<title>Node3&#45;&gt;Node8</title>
<g id="a_edge7_Node000003_Node000008"><a xlink:title=" ">
<path fill="none" stroke="#63b8ff" d="M194.12,-54.98C213.35,-46.42 243.23,-33.11 265.31,-23.28"/>
<polygon fill="#63b8ff" stroke="#63b8ff" points="266.82,-26.44 274.53,-19.17 263.97,-20.04 266.82,-26.44"/>
</a>
</g>
</g>
</g>
</svg>
