<?xml version="1.0" encoding="UTF-8" standalone="no"?>
<!DOCTYPE svg PUBLIC "-//W3C//DTD SVG 1.1//EN"
 "http://www.w3.org/Graphics/SVG/1.1/DTD/svg11.dtd">
<!-- Generated by graphviz version 2.43.0 (0)
 -->
<!-- Title: /home/user/project/src/rw/legacyVtkWriter.h Pages: 1 -->
<svg width="262pt" height="104pt"
 viewBox="0.00 0.00 261.50 104.00" xmlns="http://www.w3.org/2000/svg" xmlns:xlink="http://www.w3.org/1999/xlink">
<g id="graph0" class="graph" transform="scale(1 1) rotate(0) translate(4 100)">
<title>/home/user/project/src/rw/legacyVtkWriter.h</title>
<!-- Node1 -->
<g id="Node000001" class="node">
<title>Node1</title>
<g id="a_Node000001"><a xlink:title=" ">
<polygon fill="#999999" stroke="#666666" points="200,-96 73,-96 73,-66 200,-66 200,-96"/>
<text text-anchor="start" x="81" y="-84" font-family="Arial" font-size="10.00">/home/user/project</text>
<text text-anchor="middle" x="136.5" y="-73" font-family="Arial" font-size="10.00">/src/rw/legacyVtkWriter.h</text>
</a>
</g>
</g>
<!-- Node2 -->
<g id="Node000002" class="node">
<title>Node2</title>
<g id="a_Node000002"><a xlink:href="legacyVtkWriter_8cpp.html" target="_top" xlink:title=" ">
<polygon fill="white" stroke="#666666" points="137,-30 0,-30 0,0 137,0 137,-30"/>
<text text-anchor="start" x="8" y="-18" font-family="Arial" font-size="10.00">/home/user/project</text>
<text text-anchor="middle" x="68.5" y="-7" font-family="Arial" font-size="10.00">/src/rw/legacyVtkWriter.cpp</text>
</a>
</g>
</g>
<!-- Node1&#45;&gt;Node2 -->
<g id="edge1_Node000001_Node000002" class="edge">
<title>Node1&#45;&gt;Node2</title>
<g id="a_edge1_Node000001_Node000002"><a xlink:title=" ">
<path fill="none" stroke="#63b8ff" d="M114.11,-58.92C104.08,-49.49 92.52,-38.61 83.55,-30.16"/>
<polygon fill="#63b8ff" stroke="#63b8ff" points="111.73,-61.49 121.41,-65.8 116.53,-56.39 111.73,-61.49"/>
</a>
</g>
</g>
<!-- Node3 -->
<g id="Node000003" class="node">
<title>Node3</title>
<g id="a_Node000003"><a xlink:href="writer_8cpp.html" target="_top" xlink:title=" ">
<polygon fill="white" stroke="#666666" points="253.5,-30 155.5,-30 155.5,0 253.5,0 253.5,-30"/>
<text text-anchor="start" x="163.5" y="-18" font-family="Arial" font-size="10.00">/home/user/project</text>
<text text-anchor="middle" x="204.5" y="-7" font-family="Arial" font-size="10.00">/src/rw/writer.cpp</text>
</a>
</g>
</g>
<!-- Node1&#45;&gt;Node3 -->
<g id="edge2_Node000001_Node000003" class="edge">
<title>Node1&#45;&gt;Node3</title>
<g id="a_edge2_Node000001_Node000003"><a xlink:title=" ">
<path fill="none" stroke="#63b8ff" d="M158.89,-58.92C168.92,-49.49 180.48,-38.61 189.45,-30.16"/>
<polygon fill="#63b8ff" stroke="#63b8ff" points="156.47,-56.39 151.59,-65.8 161.27,-61.49 156.47,-56.39"/>
</a>
</g>
</g>
</g>
</svg>
