<?xml version="1.0" encoding="UTF-8" standalone="no"?>
<!DOCTYPE svg PUBLIC "-//W3C//DTD SVG 1.1//EN"
 "http://www.w3.org/Graphics/SVG/1.1/DTD/svg11.dtd">
<!-- Generated by graphviz version 2.43.0 (0)
 -->
<!-- Title: /home/user/project/src/material/mparticle/material.h Pages: 1 -->
<svg width="875pt" height="274pt"
 viewBox="0.00 0.00 875.00 274.00" xmlns="http://www.w3.org/2000/svg" xmlns:xlink="http://www.w3.org/1999/xlink">
<g id="graph0" class="graph" transform="scale(1 1) rotate(0) translate(4 270)">
<title>/home/user/project/src/material/mparticle/material.h</title>
<!-- Node1 -->
<g id="node1" class="node">
<title>Node1</title>
<g id="a_node1"><a xlink:title=" ">
<polygon fill="#bfbfbf" stroke="black" points="460.5,-224.5 460.5,-265.5 573.5,-265.5 573.5,-224.5 460.5,-224.5"/>
<text text-anchor="start" x="468.5" y="-253.5" font-family="Arial" font-size="10.00">/home/user/project</text>
<text text-anchor="start" x="468.5" y="-242.5" font-family="Arial" font-size="10.00">/src/material/mparticle</text>
<text text-anchor="middle" x="517" y="-231.5" font-family="Arial" font-size="10.00">/material.h</text>
</a>
</g>
</g>
<!-- Node2 -->
<g id="node2" class="node">
<title>Node2</title>
<g id="a_node2"><a xlink:href="influenceFn_8h.html" target="_top" xlink:title=" ">
<polygon fill="none" stroke="black" points="313.5,-168.5 313.5,-187.5 388.5,-187.5 388.5,-168.5 313.5,-168.5"/>
<text text-anchor="middle" x="351" y="-175.5" font-family="Arial" font-size="10.00">influenceFn.h</text>
</a>
</g>
</g>
<!-- Node1&#45;&gt;Node2 -->
<g id="edge1" class="edge">
<title>Node1&#45;&gt;Node2</title>
<path fill="none" stroke="midnightblue" d="M467.19,-224.5C439.79,-213.77 406.6,-200.77 382.72,-191.42"/>
<polygon fill="midnightblue" stroke="midnightblue" points="383.68,-188.04 373.1,-187.65 381.13,-194.56 383.68,-188.04"/>
</g>
<!-- Node4 -->
<g id="node4" class="node">
<title>Node4</title>
<g id="a_node4"><a xlink:href="point_8h.html" target="_top" xlink:title=" ">
<polygon fill="none" stroke="black" points="81,-56.5 81,-75.5 127,-75.5 127,-56.5 81,-56.5"/>
<text text-anchor="middle" x="104" y="-63.5" font-family="Arial" font-size="10.00">point.h</text>
</a>
</g>
</g>
<!-- Node1&#45;&gt;Node4 -->
<g id="edge29" class="edge">
<title>Node1&#45;&gt;Node4</title>
<path fill="none" stroke="midnightblue" d="M460.25,-236.02C360.91,-220.83 161.89,-184.51 118,-132 107.25,-119.14 104.19,-99.96 103.56,-85.76"/>
<polygon fill="midnightblue" stroke="midnightblue" points="107.06,-85.63 103.47,-75.67 100.06,-85.7 107.06,-85.63"/>
</g>
<!-- Node9 -->
<g id="node9" class="node">
<title>Node9</title>
<g id="a_node9"><a xlink:title=" ">
<polygon fill="none" stroke="#bfbfbf" points="465,-0.5 465,-19.5 509,-19.5 509,-0.5 465,-0.5"/>
<text text-anchor="middle" x="487" y="-7.5" font-family="Arial" font-size="10.00">vector</text>
</a>
</g>
</g>
<!-- Node1&#45;&gt;Node9 -->
<g id="edge33" class="edge">
<title>Node1&#45;&gt;Node9</title>
<path fill="none" stroke="midnightblue" d="M529.18,-224.33C534.9,-213.94 541.09,-200.73 544,-188 545.98,-179.33 545.09,-176.82 544,-168 537.73,-117.07 536.39,-103.08 516,-56 511.76,-46.21 505.49,-36.15 499.87,-28.03"/>
<polygon fill="midnightblue" stroke="midnightblue" points="502.62,-25.87 493.93,-19.81 496.94,-29.97 502.62,-25.87"/>
</g>
<!-- Node12 -->
<g id="node12" class="node">
<title>Node12</title>
<g id="a_node12"><a xlink:title=" ">
<polygon fill="none" stroke="#bfbfbf" points="670.5,-0.5 670.5,-19.5 711.5,-19.5 711.5,-0.5 670.5,-0.5"/>
<text text-anchor="middle" x="691" y="-7.5" font-family="Arial" font-size="10.00">string</text>
</a>
</g>
</g>
<!-- Node1&#45;&gt;Node12 -->
<g id="edge32" class="edge">
<title>Node1&#45;&gt;Node12</title>
<path fill="none" stroke="midnightblue" d="M549.97,-224.27C591.92,-197 662.37,-143.45 691,-76 697.2,-61.39 696.59,-43.22 694.78,-29.81"/>
<polygon fill="midnightblue" stroke="midnightblue" points="698.21,-29.12 693.1,-19.84 691.31,-30.28 698.21,-29.12"/>
</g>
<!-- Node17 -->
<g id="node17" class="node">
<title>Node17</title>
<g id="a_node17"><a xlink:href="materialDeck_8h.html" target="_top" xlink:title=" ">
<polygon fill="none" stroke="black" points="407,-168.5 407,-187.5 535,-187.5 535,-168.5 407,-168.5"/>
<text text-anchor="middle" x="471" y="-175.5" font-family="Arial" font-size="10.00">inp/decks/materialDeck.h</text>
</a>
</g>
</g>
<!-- Node1&#45;&gt;Node17 -->
<g id="edge21" class="edge">
<title>Node1&#45;&gt;Node17</title>
<path fill="none" stroke="midnightblue" d="M503.2,-224.5C496.76,-215.39 489.16,-204.66 482.97,-195.91"/>
<polygon fill="midnightblue" stroke="midnightblue" points="485.76,-193.79 477.12,-187.65 480.04,-197.84 485.76,-193.79"/>
</g>
<!-- Node18 -->
<g id="node18" class="node">
<title>Node18</title>
<g id="a_node18"><a xlink:href="function_8h.html" target="_top" xlink:title=" ">
<polygon fill="none" stroke="black" points="127.5,-112.5 127.5,-131.5 202.5,-131.5 202.5,-112.5 127.5,-112.5"/>
<text text-anchor="middle" x="165" y="-119.5" font-family="Arial" font-size="10.00">util/function.h</text>
</a>
</g>
</g>
<!-- Node1&#45;&gt;Node18 -->
<g id="edge26" class="edge">
<title>Node1&#45;&gt;Node18</title>
<path fill="none" stroke="midnightblue" d="M460.38,-231.91C417.19,-222.01 356.56,-206.61 305,-188 263.51,-173.02 217.5,-150.43 189.93,-136.21"/>
<polygon fill="midnightblue" stroke="midnightblue" points="191.47,-133.07 180.99,-131.56 188.24,-139.28 191.47,-133.07"/>
</g>
<!-- Node19 -->
<g id="node19" class="node">
<title>Node19</title>
<g id="a_node19"><a xlink:title=" ">
<polygon fill="none" stroke="#bfbfbf" points="757,-168.5 757,-187.5 797,-187.5 797,-168.5 757,-168.5"/>
<text text-anchor="middle" x="777" y="-175.5" font-family="Arial" font-size="10.00">limits</text>
</a>
</g>
</g>
<!-- Node1&#45;&gt;Node19 -->
<g id="edge30" class="edge">
<title>Node1&#45;&gt;Node19</title>
<path fill="none" stroke="midnightblue" d="M573.72,-230.21C619.46,-219.02 685.44,-202.75 743,-188 744.26,-187.68 745.55,-187.34 746.86,-187.01"/>
<polygon fill="midnightblue" stroke="midnightblue" points="748.09,-190.3 756.88,-184.38 746.32,-183.53 748.09,-190.3"/>
</g>
<!-- Node20 -->
<g id="node20" class="node">
<title>Node20</title>
<g id="a_node20"><a xlink:title=" ">
<polygon fill="none" stroke="#bfbfbf" points="815,-168.5 815,-187.5 867,-187.5 867,-168.5 815,-168.5"/>
<text text-anchor="middle" x="841" y="-175.5" font-family="Arial" font-size="10.00">memory</text>
</a>
</g>
</g>
<!-- Node1&#45;&gt;Node20 -->
<g id="edge31" class="edge">
<title>Node1&#45;&gt;Node20</title>
<path fill="none" stroke="midnightblue" d="M573.69,-234.06C629.95,-223.96 718.83,-207.37 804.75,-188.18"/>
<polygon fill="midnightblue" stroke="midnightblue" points="805.68,-191.56 814.67,-185.95 804.14,-184.73 805.68,-191.56"/>
</g>
<!-- Node3 -->
<g id="node3" class="node">
<title>Node3</title>
<g id="a_node3"><a xlink:href="io_8h.html" target="_top" xlink:title=" ">
<polygon fill="none" stroke="black" points="365,-112.5 365,-131.5 413,-131.5 413,-112.5 365,-112.5"/>
<text text-anchor="middle" x="389" y="-119.5" font-family="Arial" font-size="10.00">util/io.h</text>
</a>
</g>
</g>
<!-- Node2&#45;&gt;Node3 -->
<g id="edge2" class="edge">
<title>Node2&#45;&gt;Node3</title>
<path fill="none" stroke="midnightblue" d="M357.27,-168.08C362.64,-160.46 370.52,-149.26 377.08,-139.94"/>
<polygon fill="midnightblue" stroke="midnightblue" points="379.95,-141.94 382.84,-131.75 374.22,-137.91 379.95,-141.94"/>
</g>
<!-- Node8 -->
<g id="node8" class="node">
<title>Node8</title>
<g id="a_node8"><a xlink:title=" ">
<polygon fill="none" stroke="#bfbfbf" points="204,-0.5 204,-19.5 258,-19.5 258,-0.5 204,-0.5"/>
<text text-anchor="middle" x="231" y="-7.5" font-family="Arial" font-size="10.00">iostream</text>
</a>
</g>
</g>
<!-- Node2&#45;&gt;Node8 -->
<g id="edge19" class="edge">
<title>Node2&#45;&gt;Node8</title>
<path fill="none" stroke="midnightblue" d="M313.46,-169.64C291.58,-163.36 265.35,-152.04 250,-132 227.12,-102.14 226.79,-55.77 228.77,-29.96"/>
<polygon fill="midnightblue" stroke="midnightblue" points="232.28,-29.98 229.77,-19.69 225.32,-29.3 232.28,-29.98"/>
</g>
<!-- Node2&#45;&gt;Node9 -->
<g id="edge20" class="edge">
<title>Node2&#45;&gt;Node9</title>
<path fill="none" stroke="midnightblue" d="M369.77,-168.49C385.27,-160.72 407.09,-148.03 422,-132 451,-100.84 471.16,-54.31 480.71,-28.99"/>
<polygon fill="midnightblue" stroke="midnightblue" points="484.01,-30.14 484.15,-19.54 477.44,-27.74 484.01,-30.14"/>
</g>
<!-- Node16 -->
<g id="node16" class="node">
<title>Node16</title>
<g id="a_node16"><a xlink:title=" ">
<polygon fill="none" stroke="#bfbfbf" points="259,-112.5 259,-131.5 305,-131.5 305,-112.5 259,-112.5"/>
<text text-anchor="middle" x="282" y="-119.5" font-family="Arial" font-size="10.00">cstring</text>
</a>
</g>
</g>
<!-- Node2&#45;&gt;Node16 -->
<g id="edge18" class="edge">
<title>Node2&#45;&gt;Node16</title>
<path fill="none" stroke="midnightblue" d="M339.91,-168.32C329.51,-160.18 313.74,-147.84 301.28,-138.09"/>
<polygon fill="midnightblue" stroke="midnightblue" points="303.32,-135.24 293.29,-131.83 299.01,-140.75 303.32,-135.24"/>
</g>
<!-- Node3&#45;&gt;Node4 -->
<g id="edge3" class="edge">
<title>Node3&#45;&gt;Node4</title>
<path fill="none" stroke="midnightblue" d="M364.7,-116.4C313.63,-106.72 195.1,-84.26 137.13,-73.28"/>
<polygon fill="midnightblue" stroke="midnightblue" points="137.52,-69.79 127.04,-71.37 136.21,-76.67 137.52,-69.79"/>
</g>
<!-- Node3&#45;&gt;Node8 -->
<g id="edge15" class="edge">
<title>Node3&#45;&gt;Node8</title>
<path fill="none" stroke="midnightblue" d="M364.59,-113.47C343.1,-106.09 311.65,-93.42 288,-76 269.76,-62.56 253.22,-42.37 242.71,-28.07"/>
<polygon fill="midnightblue" stroke="midnightblue" points="245.36,-25.76 236.71,-19.65 239.66,-29.82 245.36,-25.76"/>
</g>
<!-- Node3&#45;&gt;Node9 -->
<g id="edge16" class="edge">
<title>Node3&#45;&gt;Node9</title>
<path fill="none" stroke="midnightblue" d="M396.91,-112.42C405.2,-103.39 418.59,-88.77 430,-76 444.61,-59.66 461.09,-40.81 472.56,-27.64"/>
<polygon fill="midnightblue" stroke="midnightblue" points="475.39,-29.72 479.31,-19.88 470.11,-25.13 475.39,-29.72"/>
</g>
<!-- Node10 -->
<g id="node10" class="node">
<title>Node10</title>
<g id="a_node10"><a xlink:href="parallelUtil_8h.html" target="_top" xlink:title=" ">
<polygon fill="none" stroke="black" points="591.5,-56.5 591.5,-75.5 662.5,-75.5 662.5,-56.5 591.5,-56.5"/>
<text text-anchor="middle" x="627" y="-63.5" font-family="Arial" font-size="10.00">parallelUtil.h</text>
</a>
</g>
</g>
<!-- Node3&#45;&gt;Node10 -->
<g id="edge9" class="edge">
<title>Node3&#45;&gt;Node10</title>
<path fill="none" stroke="midnightblue" d="M413.13,-115.53C452.49,-106.59 531.14,-88.75 581.31,-77.37"/>
<polygon fill="midnightblue" stroke="midnightblue" points="582.27,-80.74 591.25,-75.11 580.73,-73.91 582.27,-80.74"/>
</g>
<!-- Node14 -->
<g id="node14" class="node">
<title>Node14</title>
<g id="a_node14"><a xlink:title=" ">
<polygon fill="none" stroke="#bfbfbf" points="297,-56.5 297,-75.5 347,-75.5 347,-56.5 297,-56.5"/>
<text text-anchor="middle" x="322" y="-63.5" font-family="Arial" font-size="10.00">fstream</text>
</a>
</g>
</g>
<!-- Node3&#45;&gt;Node14 -->
<g id="edge14" class="edge">
<title>Node3&#45;&gt;Node14</title>
<path fill="none" stroke="midnightblue" d="M378.24,-112.32C368.23,-104.26 353.11,-92.08 341.07,-82.37"/>
<polygon fill="midnightblue" stroke="midnightblue" points="342.94,-79.38 332.96,-75.83 338.55,-84.83 342.94,-79.38"/>
</g>
<!-- Node15 -->
<g id="node15" class="node">
<title>Node15</title>
<g id="a_node15"><a xlink:title=" ">
<polygon fill="none" stroke="#bfbfbf" points="365,-56.5 365,-75.5 421,-75.5 421,-56.5 365,-56.5"/>
<text text-anchor="middle" x="393" y="-63.5" font-family="Arial" font-size="10.00">algorithm</text>
</a>
</g>
</g>
<!-- Node3&#45;&gt;Node15 -->
<g id="edge17" class="edge">
<title>Node3&#45;&gt;Node15</title>
<path fill="none" stroke="midnightblue" d="M389.66,-112.08C390.18,-105.01 390.94,-94.86 391.59,-85.99"/>
<polygon fill="midnightblue" stroke="midnightblue" points="395.1,-85.98 392.35,-75.75 388.12,-85.47 395.1,-85.98"/>
</g>
<!-- Node5 -->
<g id="node5" class="node">
<title>Node5</title>
<g id="a_node5"><a xlink:title=" ">
<polygon fill="none" stroke="#bfbfbf" points="138,-0.5 138,-19.5 182,-19.5 182,-0.5 138,-0.5"/>
<text text-anchor="middle" x="160" y="-7.5" font-family="Arial" font-size="10.00">cmath</text>
</a>
</g>
</g>
<!-- Node4&#45;&gt;Node5 -->
<g id="edge4" class="edge">
<title>Node4&#45;&gt;Node5</title>
<path fill="none" stroke="midnightblue" d="M113,-56.32C121.19,-48.42 133.51,-36.55 143.47,-26.94"/>
<polygon fill="midnightblue" stroke="midnightblue" points="146.07,-29.29 150.84,-19.83 141.21,-24.26 146.07,-29.29"/>
</g>
<!-- Node6 -->
<g id="node6" class="node">
<title>Node6</title>
<g id="a_node6"><a xlink:title=" ">
<polygon fill="none" stroke="#bfbfbf" points="70,-0.5 70,-19.5 120,-19.5 120,-0.5 70,-0.5"/>
<text text-anchor="middle" x="95" y="-7.5" font-family="Arial" font-size="10.00">iomanip</text>
</a>
</g>
</g>
<!-- Node4&#45;&gt;Node6 -->
<g id="edge5" class="edge">
<title>Node4&#45;&gt;Node6</title>
<path fill="none" stroke="midnightblue" d="M102.51,-56.08C101.32,-48.93 99.61,-38.64 98.12,-29.69"/>
<polygon fill="midnightblue" stroke="midnightblue" points="101.55,-29.04 96.46,-19.75 94.65,-30.19 101.55,-29.04"/>
</g>
<!-- Node7 -->
<g id="node7" class="node">
<title>Node7</title>
<g id="a_node7"><a xlink:title=" ">
<polygon fill="none" stroke="#bfbfbf" points="0,-0.5 0,-19.5 52,-19.5 52,-0.5 0,-0.5"/>
<text text-anchor="middle" x="26" y="-7.5" font-family="Arial" font-size="10.00">sstream</text>
</a>
</g>
</g>
<!-- Node4&#45;&gt;Node7 -->
<g id="edge6" class="edge">
<title>Node4&#45;&gt;Node7</title>
<path fill="none" stroke="midnightblue" d="M91.47,-56.32C79.41,-47.98 60.97,-35.21 46.73,-25.35"/>
<polygon fill="midnightblue" stroke="midnightblue" points="48.72,-22.47 38.5,-19.65 44.73,-28.22 48.72,-22.47"/>
</g>
<!-- Node4&#45;&gt;Node8 -->
<g id="edge7" class="edge">
<title>Node4&#45;&gt;Node8</title>
<path fill="none" stroke="midnightblue" d="M124.12,-56.44C145.02,-47.56 177.93,-33.56 201.72,-23.45"/>
<polygon fill="midnightblue" stroke="midnightblue" points="203.14,-26.65 210.97,-19.52 200.4,-20.21 203.14,-26.65"/>
</g>
<!-- Node4&#45;&gt;Node9 -->
<g id="edge8" class="edge">
<title>Node4&#45;&gt;Node9</title>
<path fill="none" stroke="midnightblue" d="M127.1,-61.74C192.45,-52.53 378.86,-26.25 454.51,-15.58"/>
<polygon fill="midnightblue" stroke="midnightblue" points="455.42,-18.99 464.84,-14.12 454.45,-12.06 455.42,-18.99"/>
</g>
<!-- Node10&#45;&gt;Node9 -->
<g id="edge12" class="edge">
<title>Node10&#45;&gt;Node9</title>
<path fill="none" stroke="midnightblue" d="M604.82,-56.44C581.57,-47.48 544.85,-33.31 518.58,-23.18"/>
<polygon fill="midnightblue" stroke="midnightblue" points="519.67,-19.85 509.08,-19.52 517.15,-26.38 519.67,-19.85"/>
</g>
<!-- Node11 -->
<g id="node11" class="node">
<title>Node11</title>
<g id="a_node11"><a xlink:title=" ">
<polygon fill="none" stroke="#bfbfbf" points="546.5,-0.5 546.5,-19.5 587.5,-19.5 587.5,-0.5 546.5,-0.5"/>
<text text-anchor="middle" x="567" y="-7.5" font-family="Arial" font-size="10.00">mpi.h</text>
</a>
</g>
</g>
<!-- Node10&#45;&gt;Node11 -->
<g id="edge10" class="edge">
<title>Node10&#45;&gt;Node11</title>
<path fill="none" stroke="midnightblue" d="M617.36,-56.32C608.49,-48.34 595.13,-36.31 584.39,-26.65"/>
<polygon fill="midnightblue" stroke="midnightblue" points="586.59,-23.92 576.82,-19.83 581.91,-29.13 586.59,-23.92"/>
</g>
<!-- Node10&#45;&gt;Node12 -->
<g id="edge11" class="edge">
<title>Node10&#45;&gt;Node12</title>
<path fill="none" stroke="midnightblue" d="M637.28,-56.32C646.84,-48.26 661.28,-36.08 672.78,-26.37"/>
<polygon fill="midnightblue" stroke="midnightblue" points="675.14,-28.96 680.53,-19.83 670.63,-23.61 675.14,-28.96"/>
</g>
<!-- Node13 -->
<g id="node13" class="node">
<title>Node13</title>
<g id="a_node13"><a xlink:title=" ">
<polygon fill="none" stroke="#bfbfbf" points="606,-0.5 606,-19.5 650,-19.5 650,-0.5 606,-0.5"/>
<text text-anchor="middle" x="628" y="-7.5" font-family="Arial" font-size="10.00">thread</text>
</a>
</g>
</g>
<!-- Node10&#45;&gt;Node13 -->
<g id="edge13" class="edge">
<title>Node10&#45;&gt;Node13</title>
<path fill="none" stroke="midnightblue" d="M627.17,-56.08C627.3,-49.01 627.48,-38.86 627.65,-29.99"/>
<polygon fill="midnightblue" stroke="midnightblue" points="631.15,-29.81 627.84,-19.75 624.15,-29.68 631.15,-29.81"/>
</g>
<!-- Node17&#45;&gt;Node3 -->
<g id="edge22" class="edge">
<title>Node17&#45;&gt;Node3</title>
<path fill="none" stroke="midnightblue" d="M457.83,-168.32C445.15,-159.98 425.77,-147.21 410.79,-137.35"/>
<polygon fill="midnightblue" stroke="midnightblue" points="412.42,-134.23 402.14,-131.65 408.57,-140.08 412.42,-134.23"/>
</g>
<!-- Node17&#45;&gt;Node5 -->
<g id="edge23" class="edge">
<title>Node17&#45;&gt;Node5</title>
<path fill="none" stroke="midnightblue" d="M445.82,-168.5C422.17,-160.2 386.04,-146.7 356,-132 288.74,-99.08 215,-49.58 180.25,-25.36"/>
<polygon fill="midnightblue" stroke="midnightblue" points="182.1,-22.39 171.91,-19.51 178.08,-28.12 182.1,-22.39"/>
</g>
<!-- Node17&#45;&gt;Node9 -->
<g id="edge25" class="edge">
<title>Node17&#45;&gt;Node9</title>
<path fill="none" stroke="midnightblue" d="M479.21,-168.18C486.54,-159.66 496.76,-146.02 501,-132 510.79,-99.67 506.07,-89.39 501,-56 499.63,-47 496.81,-37.33 494.05,-29.26"/>
<polygon fill="midnightblue" stroke="midnightblue" points="497.31,-27.98 490.6,-19.78 490.73,-30.37 497.31,-27.98"/>
</g>
<!-- Node17&#45;&gt;Node12 -->
<g id="edge24" class="edge">
<title>Node17&#45;&gt;Node12</title>
<path fill="none" stroke="midnightblue" d="M507.04,-168.4C552.16,-155.78 628.75,-127.9 672,-76 682.93,-62.89 687.57,-43.74 689.54,-29.62"/>
<polygon fill="midnightblue" stroke="midnightblue" points="693.03,-29.91 690.62,-19.59 686.07,-29.16 693.03,-29.91"/>
</g>
<!-- Node18&#45;&gt;Node4 -->
<g id="edge27" class="edge">
<title>Node18&#45;&gt;Node4</title>
<path fill="none" stroke="midnightblue" d="M155.2,-112.32C146.18,-104.34 132.59,-92.31 121.68,-82.65"/>
<polygon fill="midnightblue" stroke="midnightblue" points="123.79,-79.84 113.98,-75.83 119.15,-85.08 123.79,-79.84"/>
</g>
<!-- Node18&#45;&gt;Node9 -->
<g id="edge28" class="edge">
<title>Node18&#45;&gt;Node9</title>
<path fill="none" stroke="midnightblue" d="M178.46,-112.35C200.52,-98.54 246.09,-71.5 288,-56 345.03,-34.91 415.05,-21.87 455,-15.57"/>
<polygon fill="midnightblue" stroke="midnightblue" points="455.61,-19.01 464.96,-14.04 454.55,-12.1 455.61,-19.01"/>
</g>
</g>
</svg>
