<?xml version="1.0" encoding="UTF-8" standalone="no"?>
<!DOCTYPE svg PUBLIC "-//W3C//DTD SVG 1.1//EN"
 "http://www.w3.org/Graphics/SVG/1.1/DTD/svg11.dtd">
<!-- Generated by graphviz version 2.43.0 (0)
 -->
<!-- Title: /home/user/project/src/inp/decks/materialDeck.h Pages: 1 -->
<svg width="556pt" height="203pt"
 viewBox="0.00 0.00 556.40 203.00" xmlns="http://www.w3.org/2000/svg" xmlns:xlink="http://www.w3.org/1999/xlink">
<g id="graph0" class="graph" transform="scale(1 1) rotate(0) translate(4 199)">
<title>/home/user/project/src/inp/decks/materialDeck.h</title>
<!-- Node1 -->
<g id="Node000001" class="node">
<title>Node1</title>
<g id="a_Node000001"><a xlink:title=" ">
<polygon fill="#999999" stroke="#666666" points="354.5,-195 207.5,-195 207.5,-165 354.5,-165 354.5,-195"/>
<text text-anchor="start" x="215.5" y="-183" font-family="Arial" font-size="10.00">/home/user/project</text>
<text text-anchor="middle" x="281" y="-172" font-family="Arial" font-size="10.00">/src/inp/decks/materialDeck.h</text>
</a>
</g>
</g>
<!-- Node2 -->
<g id="Node000002" class="node">
<title>Node2</title>
<g id="a_Node000002"><a xlink:href="io_8h.html" target="_top" xlink:title=" ">
<polygon fill="white" stroke="#666666" points="331,-129 283,-129 283,-110 331,-110 331,-129"/>
<text text-anchor="middle" x="307" y="-117" font-family="Arial" font-size="10.00">util/io.h</text>
</a>
</g>
</g>
<!-- Node1&#45;&gt;Node2 -->
<g id="edge1_Node000001_Node000002" class="edge">
<title>Node1&#45;&gt;Node2</title>
<g id="a_edge1_Node000001_Node000002"><a xlink:title=" ">
<path fill="none" stroke="#63b8ff" d="M287.29,-164.84C290.8,-156.95 295.2,-147.05 298.95,-138.61"/>
<polygon fill="#63b8ff" stroke="#63b8ff" points="302.24,-139.83 303.1,-129.27 295.84,-136.98 302.24,-139.83"/>
</a>
</g>
</g>
<!-- Node4 -->
<g id="Node000004" class="node">
<title>Node4</title>
<g id="a_Node000004"><a xlink:title=" ">
<polygon fill="#e0e0e0" stroke="#999999" points="44,-19 0,-19 0,0 44,0 44,-19"/>
<text text-anchor="middle" x="22" y="-7" font-family="Arial" font-size="10.00">cmath</text>
</a>
</g>
</g>
<!-- Node1&#45;&gt;Node4 -->
<g id="edge17_Node000001_Node000004" class="edge">
<title>Node1&#45;&gt;Node4</title>
<g id="a_edge17_Node000001_Node000004"><a xlink:title=" ">
<path fill="none" stroke="#63b8ff" d="M259.36,-164.92C210.59,-133.19 92.54,-56.39 43.7,-24.62"/>
<polygon fill="#63b8ff" stroke="#63b8ff" points="45.45,-21.58 35.16,-19.06 41.64,-27.45 45.45,-21.58"/>
</a>
</g>
</g>
<!-- Node8 -->
<g id="Node000008" class="node">
<title>Node8</title>
<g id="a_Node000008"><a xlink:title=" ">
<polygon fill="#e0e0e0" stroke="#999999" points="316,-19 272,-19 272,0 316,0 316,-19"/>
<text text-anchor="middle" x="294" y="-7" font-family="Arial" font-size="10.00">vector</text>
</a>
</g>
</g>
<!-- Node1&#45;&gt;Node8 -->
<g id="edge19_Node000001_Node000008" class="edge">
<title>Node1&#45;&gt;Node8</title>
<g id="a_edge19_Node000001_Node000008"><a xlink:title=" ">
<path fill="none" stroke="#63b8ff" d="M278.45,-164.61C276.81,-154.65 274.84,-141.07 274,-129 271.51,-93.23 281.38,-52.07 288.13,-28.89"/>
<polygon fill="#63b8ff" stroke="#63b8ff" points="291.56,-29.64 291.13,-19.05 284.87,-27.6 291.56,-29.64"/>
</a>
</g>
</g>
<!-- Node11 -->
<g id="Node000011" class="node">
<title>Node11</title>
<g id="a_Node000011"><a xlink:title=" ">
<polygon fill="#e0e0e0" stroke="#999999" points="541.5,-19 500.5,-19 500.5,0 541.5,0 541.5,-19"/>
<text text-anchor="middle" x="521" y="-7" font-family="Arial" font-size="10.00">string</text>
</a>
</g>
</g>
<!-- Node1&#45;&gt;Node11 -->
<g id="edge18_Node000001_Node000011" class="edge">
<title>Node1&#45;&gt;Node11</title>
<g id="a_edge18_Node000001_Node000011"><a xlink:title=" ">
<path fill="none" stroke="#63b8ff" d="M354.58,-171.83C416.67,-161.45 501.95,-136.07 544,-74 553.71,-59.67 544.57,-40.74 535.09,-27.29"/>
<polygon fill="#63b8ff" stroke="#63b8ff" points="537.87,-25.16 529.01,-19.35 532.31,-29.41 537.87,-25.16"/>
</a>
</g>
</g>
<!-- Node3 -->
<g id="Node000003" class="node">
<title>Node3</title>
<g id="a_Node000003"><a xlink:href="point_8h.html" target="_top" xlink:title=" ">
<polygon fill="white" stroke="#666666" points="183,-74 137,-74 137,-55 183,-55 183,-74"/>
<text text-anchor="middle" x="160" y="-62" font-family="Arial" font-size="10.00">point.h</text>
</a>
</g>
</g>
<!-- Node2&#45;&gt;Node3 -->
<g id="edge2_Node000002_Node000003" class="edge">
<title>Node2&#45;&gt;Node3</title>
<g id="a_edge2_Node000002_Node000003"><a xlink:title=" ">
<path fill="none" stroke="#63b8ff" d="M283.38,-109.98C258.81,-101.12 220.14,-87.18 192.65,-77.27"/>
<polygon fill="#63b8ff" stroke="#63b8ff" points="193.67,-73.92 183.07,-73.82 191.29,-80.5 193.67,-73.92"/>
</a>
</g>
</g>
<!-- Node7 -->
<g id="Node000007" class="node">
<title>Node7</title>
<g id="a_Node000007"><a xlink:title=" ">
<polygon fill="#e0e0e0" stroke="#999999" points="254,-19 200,-19 200,0 254,0 254,-19"/>
<text text-anchor="middle" x="227" y="-7" font-family="Arial" font-size="10.00">iostream</text>
</a>
</g>
</g>
<!-- Node2&#45;&gt;Node7 -->
<g id="edge14_Node000002_Node000007" class="edge">
<title>Node2&#45;&gt;Node7</title>
<g id="a_edge14_Node000002_Node000007"><a xlink:title=" ">
<path fill="none" stroke="#63b8ff" d="M300.45,-109.66C287.14,-91.69 256.73,-50.64 239.51,-27.38"/>
<polygon fill="#63b8ff" stroke="#63b8ff" points="242.18,-25.11 233.41,-19.16 236.55,-29.28 242.18,-25.11"/>
</a>
</g>
</g>
<!-- Node2&#45;&gt;Node8 -->
<g id="edge15_Node000002_Node000008" class="edge">
<title>Node2&#45;&gt;Node8</title>
<g id="a_edge15_Node000002_Node000008"><a xlink:title=" ">
<path fill="none" stroke="#63b8ff" d="M305.94,-109.66C303.83,-92.17 299.09,-52.8 296.26,-29.27"/>
<polygon fill="#63b8ff" stroke="#63b8ff" points="299.71,-28.67 295.04,-19.16 292.76,-29.51 299.71,-28.67"/>
</a>
</g>
</g>
<!-- Node9 -->
<g id="Node000009" class="node">
<title>Node9</title>
<g id="a_Node000009"><a xlink:href="parallelUtil_8h.html" target="_top" xlink:title=" ">
<polygon fill="white" stroke="#666666" points="392.5,-74 321.5,-74 321.5,-55 392.5,-55 392.5,-74"/>
<text text-anchor="middle" x="357" y="-62" font-family="Arial" font-size="10.00">parallelUtil.h</text>
</a>
</g>
</g>
<!-- Node2&#45;&gt;Node9 -->
<g id="edge8_Node000002_Node000009" class="edge">
<title>Node2&#45;&gt;Node9</title>
<g id="a_edge8_Node000002_Node000009"><a xlink:title=" ">
<path fill="none" stroke="#63b8ff" d="M315.26,-109.75C322.46,-102.11 333.11,-90.82 341.85,-81.56"/>
<polygon fill="#63b8ff" stroke="#63b8ff" points="344.58,-83.76 348.9,-74.09 339.49,-78.96 344.58,-83.76"/>
</a>
</g>
</g>
<!-- Node13 -->
<g id="Node000013" class="node">
<title>Node13</title>
<g id="a_Node000013"><a xlink:title=" ">
<polygon fill="#e0e0e0" stroke="#999999" points="461,-74 411,-74 411,-55 461,-55 461,-74"/>
<text text-anchor="middle" x="436" y="-62" font-family="Arial" font-size="10.00">fstream</text>
</a>
</g>
</g>
<!-- Node2&#45;&gt;Node13 -->
<g id="edge13_Node000002_Node000013" class="edge">
<title>Node2&#45;&gt;Node13</title>
<g id="a_edge13_Node000002_Node000013"><a xlink:title=" ">
<path fill="none" stroke="#63b8ff" d="M327.73,-109.98C348.76,-101.34 381.55,-87.87 405.54,-78.02"/>
<polygon fill="#63b8ff" stroke="#63b8ff" points="406.98,-81.21 414.9,-74.17 404.32,-74.73 406.98,-81.21"/>
</a>
</g>
</g>
<!-- Node14 -->
<g id="Node000014" class="node">
<title>Node14</title>
<g id="a_Node000014"><a xlink:title=" ">
<polygon fill="#e0e0e0" stroke="#999999" points="535,-74 479,-74 479,-55 535,-55 535,-74"/>
<text text-anchor="middle" x="507" y="-62" font-family="Arial" font-size="10.00">algorithm</text>
</a>
</g>
</g>
<!-- Node2&#45;&gt;Node14 -->
<g id="edge16_Node000002_Node000014" class="edge">
<title>Node2&#45;&gt;Node14</title>
<g id="a_edge16_Node000002_Node000014"><a xlink:title=" ">
<path fill="none" stroke="#63b8ff" d="M331.12,-112.11C365.41,-103.02 428.57,-86.28 469.14,-75.53"/>
<polygon fill="#63b8ff" stroke="#63b8ff" points="470.16,-78.88 478.93,-72.94 468.37,-72.12 470.16,-78.88"/>
</a>
</g>
</g>
<!-- Node3&#45;&gt;Node4 -->
<g id="edge3_Node000003_Node000004" class="edge">
<title>Node3&#45;&gt;Node4</title>
<g id="a_edge3_Node000003_Node000004"><a xlink:title=" ">
<path fill="none" stroke="#63b8ff" d="M137.83,-54.98C115.09,-46.25 79.52,-32.59 53.79,-22.71"/>
<polygon fill="#63b8ff" stroke="#63b8ff" points="54.71,-19.31 44.12,-18.99 52.2,-25.85 54.71,-19.31"/>
</a>
</g>
</g>
<!-- Node5 -->
<g id="Node000005" class="node">
<title>Node5</title>
<g id="a_Node000005"><a xlink:title=" ">
<polygon fill="#e0e0e0" stroke="#999999" points="112,-19 62,-19 62,0 112,0 112,-19"/>
<text text-anchor="middle" x="87" y="-7" font-family="Arial" font-size="10.00">iomanip</text>
</a>
</g>
</g>
<!-- Node3&#45;&gt;Node5 -->
<g id="edge4_Node000003_Node000005" class="edge">
<title>Node3&#45;&gt;Node5</title>
<g id="a_edge4_Node000003_Node000005"><a xlink:title=" ">
<path fill="none" stroke="#63b8ff" d="M148.27,-54.98C137.27,-47 120.58,-34.88 107.4,-25.31"/>
<polygon fill="#63b8ff" stroke="#63b8ff" points="109.09,-22.21 98.94,-19.17 104.98,-27.88 109.09,-22.21"/>
</a>
</g>
</g>
<!-- Node6 -->
<g id="Node000006" class="node">
<title>Node6</title>
<g id="a_Node000006"><a xlink:title=" ">
<polygon fill="#e0e0e0" stroke="#999999" points="182,-19 130,-19 130,0 182,0 182,-19"/>
<text text-anchor="middle" x="156" y="-7" font-family="Arial" font-size="10.00">sstream</text>
</a>
</g>
</g>
<!-- Node3&#45;&gt;Node6 -->
<g id="edge5_Node000003_Node000006" class="edge">
<title>Node3&#45;&gt;Node6</title>
<g id="a_edge5_Node000003_Node000006"><a xlink:title=" ">
<path fill="none" stroke="#63b8ff" d="M159.34,-54.75C158.82,-47.8 158.06,-37.85 157.41,-29.13"/>
<polygon fill="#63b8ff" stroke="#63b8ff" points="160.89,-28.8 156.65,-19.09 153.91,-29.32 160.89,-28.8"/>
</a>
</g>
</g>
<!-- Node3&#45;&gt;Node7 -->
<g id="edge6_Node000003_Node000007" class="edge">
<title>Node3&#45;&gt;Node7</title>
<g id="a_edge6_Node000003_Node000007"><a xlink:title=" ">
<path fill="none" stroke="#63b8ff" d="M170.76,-54.98C180.77,-47.07 195.89,-35.11 207.93,-25.58"/>
<polygon fill="#63b8ff" stroke="#63b8ff" points="210.37,-28.12 216.04,-19.17 206.03,-22.63 210.37,-28.12"/>
</a>
</g>
</g>
<!-- Node3&#45;&gt;Node8 -->
<g id="edge7_Node000003_Node000008" class="edge">
<title>Node3&#45;&gt;Node8</title>
<g id="a_edge7_Node000003_Node000008"><a xlink:title=" ">
<path fill="none" stroke="#63b8ff" d="M181.53,-54.98C203.47,-46.3 237.74,-32.75 262.69,-22.88"/>
<polygon fill="#63b8ff" stroke="#63b8ff" points="264.07,-26.1 272.08,-19.17 261.49,-19.59 264.07,-26.1"/>
</a>
</g>
</g>
<!-- Node9&#45;&gt;Node8 -->
<g id="edge11_Node000009_Node000008" class="edge">
<title>Node9&#45;&gt;Node8</title>
<g id="a_edge11_Node000009_Node000008"><a xlink:title=" ">
<path fill="none" stroke="#63b8ff" d="M346.88,-54.98C337.56,-47.15 323.53,-35.34 312.26,-25.86"/>
<polygon fill="#63b8ff" stroke="#63b8ff" points="314.21,-22.93 304.31,-19.17 309.71,-28.29 314.21,-22.93"/>
</a>
</g>
</g>
<!-- Node10 -->
<g id="Node000010" class="node">
<title>Node10</title>
<g id="a_Node000010"><a xlink:title=" ">
<polygon fill="#e0e0e0" stroke="#999999" points="376.5,-19 335.5,-19 335.5,0 376.5,0 376.5,-19"/>
<text text-anchor="middle" x="356" y="-7" font-family="Arial" font-size="10.00">mpi.h</text>
</a>
</g>
</g>
<!-- Node9&#45;&gt;Node10 -->
<g id="edge9_Node000009_Node000010" class="edge">
<title>Node9&#45;&gt;Node10</title>
<g id="a_edge9_Node000009_Node000010"><a xlink:title=" ">
<path fill="none" stroke="#63b8ff" d="M356.83,-54.75C356.7,-47.8 356.52,-37.85 356.35,-29.13"/>
<polygon fill="#63b8ff" stroke="#63b8ff" points="359.85,-29.02 356.16,-19.09 352.85,-29.15 359.85,-29.02"/>
</a>
</g>
</g>
<!-- Node9&#45;&gt;Node11 -->
<g id="edge10_Node000009_Node000011" class="edge">
<title>Node9&#45;&gt;Node11</title>
<g id="a_edge10_Node000009_Node000011"><a xlink:title=" ">
<path fill="none" stroke="#63b8ff" d="M383.35,-54.98C412.64,-45.52 459.85,-30.26 490.66,-20.31"/>
<polygon fill="#63b8ff" stroke="#63b8ff" points="491.99,-23.55 500.43,-17.15 489.83,-16.89 491.99,-23.55"/>
</a>
</g>
</g>
<!-- Node12 -->
<g id="Node000012" class="node">
<title>Node12</title>
<g id="a_Node000012"><a xlink:title=" ">
<polygon fill="#e0e0e0" stroke="#999999" points="439,-19 395,-19 395,0 439,0 439,-19"/>
<text text-anchor="middle" x="417" y="-7" font-family="Arial" font-size="10.00">thread</text>
</a>
</g>
</g>
<!-- Node9&#45;&gt;Node12 -->
<g id="edge12_Node000009_Node000012" class="edge">
<title>Node9&#45;&gt;Node12</title>
<g id="a_edge12_Node000009_Node000012"><a xlink:title=" ">
<path fill="none" stroke="#63b8ff" d="M366.64,-54.98C375.51,-47.15 388.87,-35.34 399.61,-25.86"/>
<polygon fill="#63b8ff" stroke="#63b8ff" points="402.01,-28.41 407.18,-19.17 397.37,-23.17 402.01,-28.41"/>
</a>
</g>
</g>
</g>
</svg>
