<?xml version="1.0" encoding="UTF-8" standalone="no"?>
<!DOCTYPE svg PUBLIC "-//W3C//DTD SVG 1.1//EN"
 "http://www.w3.org/Graphics/SVG/1.1/DTD/svg11.dtd">
<!-- Generated by graphviz version 2.43.0 (0)
 -->
<!-- Title: /home/user/project/src/material/materialUtil.cpp Pages: 1 -->
<svg width="1896pt" height="442pt"
 viewBox="0.00 0.00 1896.07 442.00" xmlns="http://www.w3.org/2000/svg" xmlns:xlink="http://www.w3.org/1999/xlink">
<g id="graph0" class="graph" transform="scale(1 1) rotate(0) translate(4 438)">
<title>/home/user/project/src/material/materialUtil.cpp</title>
<!-- Node1 -->
<g id="node1" class="node">
<title>Node1</title>
<g id="a_node1"><a xlink:title=" ">
<polygon fill="#bfbfbf" stroke="black" points="1191.07,-403.5 1191.07,-433.5 1333.07,-433.5 1333.07,-403.5 1191.07,-403.5"/>
<text text-anchor="start" x="1199.07" y="-421.5" font-family="Arial" font-size="10.00">/home/user/project</text>
<text text-anchor="middle" x="1262.07" y="-410.5" font-family="Arial" font-size="10.00">/src/material/materialUtil.cpp</text>
</a>
</g>
</g>
<!-- Node2 -->
<g id="node2" class="node">
<title>Node2</title>
<g id="a_node2"><a xlink:href="materialUtil_8h.html" target="_top" xlink:title=" ">
<polygon fill="none" stroke="black" points="571.07,-342 571.07,-361 645.07,-361 645.07,-342 571.07,-342"/>
<text text-anchor="middle" x="608.07" y="-349" font-family="Arial" font-size="10.00">materialUtil.h</text>
</a>
</g>
</g>
<!-- Node1&#45;&gt;Node2 -->
<g id="edge1" class="edge">
<title>Node1&#45;&gt;Node2</title>
<path fill="none" stroke="midnightblue" d="M1190.83,-410.42C1056.48,-397.07 768.97,-368.49 655.52,-357.22"/>
<polygon fill="midnightblue" stroke="midnightblue" points="655.71,-353.72 645.41,-356.21 655.02,-360.68 655.71,-353.72"/>
</g>
<!-- Node7 -->
<g id="node7" class="node">
<title>Node7</title>
<g id="a_node7"><a xlink:title=" ">
<polygon fill="none" stroke="#bfbfbf" points="1405.07,-0.5 1405.07,-19.5 1459.07,-19.5 1459.07,-0.5 1405.07,-0.5"/>
<text text-anchor="middle" x="1432.07" y="-7.5" font-family="Arial" font-size="10.00">iostream</text>
</a>
</g>
</g>
<!-- Node1&#45;&gt;Node7 -->
<g id="edge74" class="edge">
<title>Node1&#45;&gt;Node7</title>
<path fill="none" stroke="midnightblue" d="M1333.12,-416.44C1419.56,-410.95 1554.07,-386.99 1554.07,-291 1554.07,-291 1554.07,-291 1554.07,-121 1554.07,-72.57 1500.38,-39.99 1464.23,-23.54"/>
<polygon fill="midnightblue" stroke="midnightblue" points="1465.58,-20.31 1455.01,-19.52 1462.78,-26.72 1465.58,-20.31"/>
</g>
<!-- Node12 -->
<g id="node12" class="node">
<title>Node12</title>
<g id="a_node12"><a xlink:href="parallelUtil_8h.html" target="_top" xlink:title=" ">
<polygon fill="none" stroke="red" points="234.57,-56.5 234.57,-75.5 305.57,-75.5 305.57,-56.5 234.57,-56.5"/>
<text text-anchor="middle" x="270.07" y="-63.5" font-family="Arial" font-size="10.00">parallelUtil.h</text>
</a>
</g>
</g>
<!-- Node1&#45;&gt;Node12 -->
<g id="edge73" class="edge">
<title>Node1&#45;&gt;Node12</title>
<path fill="none" stroke="midnightblue" d="M1190.66,-417.29C955.18,-415.14 208.26,-396.21 34.07,-244 6.72,-220.11 -7.22,-202.52 4.07,-168 13.65,-138.68 19.06,-128.6 45.07,-112 99.81,-77.06 176.09,-68.37 224.26,-66.67"/>
<polygon fill="midnightblue" stroke="midnightblue" points="224.49,-70.16 234.39,-66.4 224.3,-63.17 224.49,-70.16"/>
</g>
<!-- Node20 -->
<g id="node16" class="node">
<title>Node20</title>
<g id="a_node16"><a xlink:href="function_8h.html" target="_top" xlink:title=" ">
<polygon fill="none" stroke="black" points="1054.57,-112.5 1054.57,-131.5 1129.57,-131.5 1129.57,-112.5 1054.57,-112.5"/>
<text text-anchor="middle" x="1092.07" y="-119.5" font-family="Arial" font-size="10.00">util/function.h</text>
</a>
</g>
</g>
<!-- Node1&#45;&gt;Node20 -->
<g id="edge72" class="edge">
<title>Node1&#45;&gt;Node20</title>
<path fill="none" stroke="midnightblue" d="M1262.07,-403.46C1262.07,-380.12 1262.07,-331.85 1262.07,-291 1262.07,-291 1262.07,-291 1262.07,-233 1262.07,-174.34 1189.83,-145.41 1139.53,-132.38"/>
<polygon fill="midnightblue" stroke="midnightblue" points="1140.34,-128.98 1129.79,-129.99 1138.67,-135.78 1140.34,-128.98"/>
</g>
<!-- Node46 -->
<g id="node31" class="node">
<title>Node46</title>
<g id="a_node31"><a xlink:href="baseParticle_8h.html" target="_top" xlink:title=" ">
<polygon fill="none" stroke="black" points="1120.57,-342 1120.57,-361 1233.57,-361 1233.57,-342 1120.57,-342"/>
<text text-anchor="middle" x="1177.07" y="-349" font-family="Arial" font-size="10.00">particle/baseParticle.h</text>
</a>
</g>
</g>
<!-- Node1&#45;&gt;Node46 -->
<g id="edge67" class="edge">
<title>Node1&#45;&gt;Node46</title>
<path fill="none" stroke="midnightblue" d="M1243.62,-403.4C1229.71,-392.76 1210.68,-378.2 1196.53,-367.38"/>
<polygon fill="midnightblue" stroke="midnightblue" points="1198.51,-364.49 1188.44,-361.19 1194.25,-370.05 1198.51,-364.49"/>
</g>
<!-- Node47 -->
<g id="node32" class="node">
<title>Node47</title>
<g id="a_node32"><a xlink:title=" ">
<polygon fill="none" stroke="#bfbfbf" points="1582.57,-342 1582.57,-361 1733.57,-361 1733.57,-342 1582.57,-342"/>
<text text-anchor="middle" x="1658.07" y="-349" font-family="Arial" font-size="10.00">taskflow/taskflow/taskflow.hpp</text>
</a>
</g>
</g>
<!-- Node1&#45;&gt;Node47 -->
<g id="edge75" class="edge">
<title>Node1&#45;&gt;Node47</title>
<path fill="none" stroke="midnightblue" d="M1333.32,-405.8C1408.13,-393.52 1524.6,-374.41 1595.84,-362.71"/>
<polygon fill="midnightblue" stroke="midnightblue" points="1596.71,-366.12 1606.01,-361.04 1595.57,-359.21 1596.71,-366.12"/>
</g>
<!-- Node48 -->
<g id="node33" class="node">
<title>Node48</title>
<g id="a_node33"><a xlink:title=" ">
<polygon fill="none" stroke="#bfbfbf" points="1752.07,-336.5 1752.07,-366.5 1888.07,-366.5 1888.07,-336.5 1752.07,-336.5"/>
<text text-anchor="start" x="1760.07" y="-354.5" font-family="Arial" font-size="10.00">taskflow/taskflow/algorithm</text>
<text text-anchor="middle" x="1820.07" y="-343.5" font-family="Arial" font-size="10.00">/for_each.hpp</text>
</a>
</g>
</g>
<!-- Node1&#45;&gt;Node48 -->
<g id="edge76" class="edge">
<title>Node1&#45;&gt;Node48</title>
<path fill="none" stroke="midnightblue" d="M1333.2,-411.86C1425.25,-404.15 1590.79,-388.9 1741.76,-367.12"/>
<polygon fill="midnightblue" stroke="midnightblue" points="1742.29,-370.58 1751.68,-365.68 1741.28,-363.65 1742.29,-370.58"/>
</g>
<!-- Node3 -->
<g id="node3" class="node">
<title>Node3</title>
<g id="a_node3"><a xlink:href="point_8h.html" target="_top" xlink:title=" ">
<polygon fill="none" stroke="black" points="1130.07,-56.5 1130.07,-75.5 1192.07,-75.5 1192.07,-56.5 1130.07,-56.5"/>
<text text-anchor="middle" x="1161.07" y="-63.5" font-family="Arial" font-size="10.00">util/point.h</text>
</a>
</g>
</g>
<!-- Node2&#45;&gt;Node3 -->
<g id="edge2" class="edge">
<title>Node2&#45;&gt;Node3</title>
<path fill="none" stroke="midnightblue" d="M645.27,-348.26C789.01,-339.14 1300.07,-301.99 1300.07,-235 1300.07,-235 1300.07,-235 1300.07,-177 1300.07,-125.58 1240.84,-94.42 1199.71,-78.98"/>
<polygon fill="midnightblue" stroke="midnightblue" points="1200.8,-75.65 1190.2,-75.57 1198.43,-82.24 1200.8,-75.65"/>
</g>
<!-- Node8 -->
<g id="node8" class="node">
<title>Node8</title>
<g id="a_node8"><a xlink:title=" ">
<polygon fill="none" stroke="#bfbfbf" points="736.07,-0.5 736.07,-19.5 780.07,-19.5 780.07,-0.5 736.07,-0.5"/>
<text text-anchor="middle" x="758.07" y="-7.5" font-family="Arial" font-size="10.00">vector</text>
</a>
</g>
</g>
<!-- Node2&#45;&gt;Node8 -->
<g id="edge66" class="edge">
<title>Node2&#45;&gt;Node8</title>
<path fill="none" stroke="midnightblue" d="M570.99,-346.23C430.69,-329.32 -56.32,-263.21 14.07,-168 96.97,-55.86 186.42,-132.18 314.07,-76 330.11,-68.94 331.43,-61.52 348.07,-56 418.22,-32.71 641.87,-17.72 725.82,-12.79"/>
<polygon fill="midnightblue" stroke="midnightblue" points="726.25,-16.27 736.03,-12.2 725.84,-9.28 726.25,-16.27"/>
</g>
<!-- Node9 -->
<g id="node9" class="node">
<title>Node9</title>
<g id="a_node9"><a xlink:href="material_8h.html" target="_top" xlink:title=" ">
<polygon fill="none" stroke="black" points="707.07,-224.5 707.07,-243.5 809.07,-243.5 809.07,-224.5 707.07,-224.5"/>
<text text-anchor="middle" x="758.07" y="-231.5" font-family="Arial" font-size="10.00">mparticle/material.h</text>
</a>
</g>
</g>
<!-- Node2&#45;&gt;Node9 -->
<g id="edge8" class="edge">
<title>Node2&#45;&gt;Node9</title>
<path fill="none" stroke="midnightblue" d="M622.18,-341.92C637.74,-332.28 663.31,-315.89 684.07,-300 704.68,-284.21 726.88,-264.28 741.53,-250.68"/>
<polygon fill="midnightblue" stroke="midnightblue" points="743.93,-253.23 748.83,-243.84 739.14,-248.12 743.93,-253.23"/>
</g>
<!-- Node14 -->
<g id="node13" class="node">
<title>Node14</title>
<g id="a_node13"><a xlink:title=" ">
<polygon fill="none" stroke="#bfbfbf" points="147.57,-0.5 147.57,-19.5 188.57,-19.5 188.57,-0.5 147.57,-0.5"/>
<text text-anchor="middle" x="168.07" y="-7.5" font-family="Arial" font-size="10.00">string</text>
</a>
</g>
</g>
<!-- Node2&#45;&gt;Node14 -->
<g id="edge65" class="edge">
<title>Node2&#45;&gt;Node14</title>
<path fill="none" stroke="midnightblue" d="M571,-348.46C457.13,-341.46 115.16,-314.86 34.07,-244 6.72,-220.11 -7.22,-202.52 4.07,-168 26.69,-98.81 102.03,-47.73 142.25,-24.65"/>
<polygon fill="midnightblue" stroke="midnightblue" points="144.18,-27.58 151.2,-19.64 140.76,-21.47 144.18,-27.58"/>
</g>
<!-- Node21 -->
<g id="node17" class="node">
<title>Node21</title>
<g id="a_node17"><a xlink:title=" ">
<polygon fill="none" stroke="#bfbfbf" points="690.07,-168.5 690.07,-187.5 730.07,-187.5 730.07,-168.5 690.07,-168.5"/>
<text text-anchor="middle" x="710.07" y="-175.5" font-family="Arial" font-size="10.00">limits</text>
</a>
</g>
</g>
<!-- Node2&#45;&gt;Node21 -->
<g id="edge64" class="edge">
<title>Node2&#45;&gt;Node21</title>
<path fill="none" stroke="midnightblue" d="M613.26,-341.76C629.3,-314.81 678.18,-232.62 699.7,-196.42"/>
<polygon fill="midnightblue" stroke="midnightblue" points="702.9,-197.9 705,-187.52 696.88,-194.33 702.9,-197.9"/>
</g>
<!-- Node23 -->
<g id="node19" class="node">
<title>Node23</title>
<g id="a_node19"><a xlink:href="fracture_8h.html" target="_top" xlink:title=" ">
<polygon fill="none" stroke="black" points="114.57,-224.5 114.57,-243.5 215.57,-243.5 215.57,-224.5 114.57,-224.5"/>
<text text-anchor="middle" x="165.07" y="-231.5" font-family="Arial" font-size="10.00">geometry/fracture.h</text>
</a>
</g>
</g>
<!-- Node2&#45;&gt;Node23 -->
<g id="edge33" class="edge">
<title>Node2&#45;&gt;Node23</title>
<path fill="none" stroke="midnightblue" d="M575.13,-341.91C496.15,-321.32 295.98,-269.13 207.84,-246.15"/>
<polygon fill="midnightblue" stroke="midnightblue" points="208.48,-242.7 197.92,-243.56 206.71,-249.47 208.48,-242.7"/>
</g>
<!-- Node26 -->
<g id="node22" class="node">
<title>Node26</title>
<g id="a_node22"><a xlink:href="modelData_8h.html" target="_top" xlink:title=" ">
<polygon fill="none" stroke="black" points="495.57,-280.5 495.57,-299.5 596.57,-299.5 596.57,-280.5 495.57,-280.5"/>
<text text-anchor="middle" x="546.07" y="-287.5" font-family="Arial" font-size="10.00">model/modelData.h</text>
</a>
</g>
</g>
<!-- Node2&#45;&gt;Node26 -->
<g id="edge38" class="edge">
<title>Node2&#45;&gt;Node26</title>
<path fill="none" stroke="midnightblue" d="M599.18,-341.98C589.61,-332.78 574.15,-317.96 562.38,-306.66"/>
<polygon fill="midnightblue" stroke="midnightblue" points="564.57,-303.91 554.93,-299.51 559.72,-308.96 564.57,-303.91"/>
</g>
<!-- Node4 -->
<g id="node4" class="node">
<title>Node4</title>
<g id="a_node4"><a xlink:title=" ">
<polygon fill="none" stroke="#bfbfbf" points="1304.07,-0.5 1304.07,-19.5 1348.07,-19.5 1348.07,-0.5 1304.07,-0.5"/>
<text text-anchor="middle" x="1326.07" y="-7.5" font-family="Arial" font-size="10.00">cmath</text>
</a>
</g>
</g>
<!-- Node3&#45;&gt;Node4 -->
<g id="edge3" class="edge">
<title>Node3&#45;&gt;Node4</title>
<path fill="none" stroke="midnightblue" d="M1187.21,-56.44C1216.32,-46.92 1263.36,-31.52 1294.5,-21.33"/>
<polygon fill="midnightblue" stroke="midnightblue" points="1295.59,-24.66 1304,-18.22 1293.41,-18 1295.59,-24.66"/>
</g>
<!-- Node5 -->
<g id="node5" class="node">
<title>Node5</title>
<g id="a_node5"><a xlink:title=" ">
<polygon fill="none" stroke="#bfbfbf" points="1087.07,-0.5 1087.07,-19.5 1137.07,-19.5 1137.07,-0.5 1087.07,-0.5"/>
<text text-anchor="middle" x="1112.07" y="-7.5" font-family="Arial" font-size="10.00">iomanip</text>
</a>
</g>
</g>
<!-- Node3&#45;&gt;Node5 -->
<g id="edge4" class="edge">
<title>Node3&#45;&gt;Node5</title>
<path fill="none" stroke="midnightblue" d="M1152.97,-56.08C1145.91,-48.3 1135.48,-36.8 1126.92,-27.37"/>
<polygon fill="midnightblue" stroke="midnightblue" points="1129.32,-24.8 1120.01,-19.75 1124.13,-29.51 1129.32,-24.8"/>
</g>
<!-- Node6 -->
<g id="node6" class="node">
<title>Node6</title>
<g id="a_node6"><a xlink:title=" ">
<polygon fill="none" stroke="#bfbfbf" points="1155.07,-0.5 1155.07,-19.5 1207.07,-19.5 1207.07,-0.5 1155.07,-0.5"/>
<text text-anchor="middle" x="1181.07" y="-7.5" font-family="Arial" font-size="10.00">sstream</text>
</a>
</g>
</g>
<!-- Node3&#45;&gt;Node6 -->
<g id="edge5" class="edge">
<title>Node3&#45;&gt;Node6</title>
<path fill="none" stroke="midnightblue" d="M1164.37,-56.08C1167.05,-48.85 1170.91,-38.41 1174.25,-29.4"/>
<polygon fill="midnightblue" stroke="midnightblue" points="1177.63,-30.34 1177.82,-19.75 1171.07,-27.91 1177.63,-30.34"/>
</g>
<!-- Node3&#45;&gt;Node7 -->
<g id="edge6" class="edge">
<title>Node3&#45;&gt;Node7</title>
<path fill="none" stroke="midnightblue" d="M1192.15,-58.81C1242.44,-48.79 1341.4,-29.07 1395.18,-18.35"/>
<polygon fill="midnightblue" stroke="midnightblue" points="1395.86,-21.78 1404.99,-16.4 1394.49,-14.92 1395.86,-21.78"/>
</g>
<!-- Node3&#45;&gt;Node8 -->
<g id="edge7" class="edge">
<title>Node3&#45;&gt;Node8</title>
<path fill="none" stroke="midnightblue" d="M1129.65,-58.41C1125.1,-57.55 1120.47,-56.72 1116.07,-56 996.54,-36.56 853.39,-20.82 790.45,-14.28"/>
<polygon fill="midnightblue" stroke="midnightblue" points="790.66,-10.78 780.35,-13.23 789.94,-17.74 790.66,-10.78"/>
</g>
<!-- Node9&#45;&gt;Node3 -->
<g id="edge28" class="edge">
<title>Node9&#45;&gt;Node3</title>
<path fill="none" stroke="midnightblue" d="M809.22,-233.12C911.12,-232.52 1135.24,-226.69 1200.07,-188 1232.5,-168.65 1256.86,-144.75 1238.07,-112 1229.45,-96.99 1213.67,-86.5 1198.64,-79.46"/>
<polygon fill="midnightblue" stroke="midnightblue" points="1200.01,-76.24 1189.44,-75.51 1197.24,-82.67 1200.01,-76.24"/>
</g>
<!-- Node9&#45;&gt;Node8 -->
<g id="edge32" class="edge">
<title>Node9&#45;&gt;Node8</title>
<path fill="none" stroke="midnightblue" d="M758.07,-224.3C758.07,-191.63 758.07,-75.87 758.07,-29.96"/>
<polygon fill="midnightblue" stroke="midnightblue" points="761.57,-29.88 758.07,-19.88 754.57,-29.88 761.57,-29.88"/>
</g>
<!-- Node10 -->
<g id="node10" class="node">
<title>Node10</title>
<g id="a_node10"><a xlink:href="influenceFn_8h.html" target="_top" xlink:title=" ">
<polygon fill="none" stroke="black" points="1376.57,-168.5 1376.57,-187.5 1451.57,-187.5 1451.57,-168.5 1376.57,-168.5"/>
<text text-anchor="middle" x="1414.07" y="-175.5" font-family="Arial" font-size="10.00">influenceFn.h</text>
</a>
</g>
</g>
<!-- Node9&#45;&gt;Node10 -->
<g id="edge9" class="edge">
<title>Node9&#45;&gt;Node10</title>
<path fill="none" stroke="midnightblue" d="M809.27,-228.79C932.91,-218.61 1246.43,-192.8 1366.38,-182.93"/>
<polygon fill="midnightblue" stroke="midnightblue" points="1366.69,-186.41 1376.37,-182.1 1366.11,-179.44 1366.69,-186.41"/>
</g>
<!-- Node9&#45;&gt;Node14 -->
<g id="edge31" class="edge">
<title>Node9&#45;&gt;Node14</title>
<path fill="none" stroke="midnightblue" d="M706.76,-225.08C596.84,-207.71 342.03,-165.17 261.07,-132 218.86,-114.71 198.92,-114.87 175.07,-76 166.62,-62.25 165.4,-43.72 165.98,-29.96"/>
<polygon fill="midnightblue" stroke="midnightblue" points="169.49,-29.98 166.77,-19.74 162.51,-29.44 169.49,-29.98"/>
</g>
<!-- Node19 -->
<g id="node15" class="node">
<title>Node19</title>
<g id="a_node15"><a xlink:href="materialDeck_8h.html" target="_top" xlink:title=" ">
<polygon fill="none" stroke="black" points="936.07,-168.5 936.07,-187.5 1064.07,-187.5 1064.07,-168.5 936.07,-168.5"/>
<text text-anchor="middle" x="1000.07" y="-175.5" font-family="Arial" font-size="10.00">inp/decks/materialDeck.h</text>
</a>
</g>
</g>
<!-- Node9&#45;&gt;Node19 -->
<g id="edge20" class="edge">
<title>Node9&#45;&gt;Node19</title>
<path fill="none" stroke="midnightblue" d="M796.41,-224.44C838.54,-215.04 906.27,-199.93 951.94,-189.74"/>
<polygon fill="midnightblue" stroke="midnightblue" points="952.9,-193.11 961.9,-187.52 951.38,-186.28 952.9,-193.11"/>
</g>
<!-- Node9&#45;&gt;Node20 -->
<g id="edge25" class="edge">
<title>Node9&#45;&gt;Node20</title>
<path fill="none" stroke="midnightblue" d="M809.37,-232.23C888.34,-230 1034.61,-221.33 1073.07,-188 1086.23,-176.59 1090.52,-156.6 1091.8,-141.79"/>
<polygon fill="midnightblue" stroke="midnightblue" points="1095.3,-141.87 1092.29,-131.71 1088.31,-141.53 1095.3,-141.87"/>
</g>
<!-- Node9&#45;&gt;Node21 -->
<g id="edge29" class="edge">
<title>Node9&#45;&gt;Node21</title>
<path fill="none" stroke="midnightblue" d="M750.14,-224.08C743.22,-216.3 733,-204.8 724.61,-195.37"/>
<polygon fill="midnightblue" stroke="midnightblue" points="727.1,-192.9 717.84,-187.75 721.87,-197.55 727.1,-192.9"/>
</g>
<!-- Node22 -->
<g id="node18" class="node">
<title>Node22</title>
<g id="a_node18"><a xlink:title=" ">
<polygon fill="none" stroke="#bfbfbf" points="310.07,-168.5 310.07,-187.5 362.07,-187.5 362.07,-168.5 310.07,-168.5"/>
<text text-anchor="middle" x="336.07" y="-175.5" font-family="Arial" font-size="10.00">memory</text>
</a>
</g>
</g>
<!-- Node9&#45;&gt;Node22 -->
<g id="edge30" class="edge">
<title>Node9&#45;&gt;Node22</title>
<path fill="none" stroke="midnightblue" d="M706.74,-226.43C620.28,-215.37 447.66,-193.28 372.47,-183.66"/>
<polygon fill="midnightblue" stroke="midnightblue" points="372.47,-180.13 362.11,-182.33 371.58,-187.07 372.47,-180.13"/>
</g>
<!-- Node10&#45;&gt;Node7 -->
<g id="edge18" class="edge">
<title>Node10&#45;&gt;Node7</title>
<path fill="none" stroke="midnightblue" d="M1417.58,-168.21C1420.96,-159.26 1425.89,-144.91 1428.07,-132 1434.11,-96.2 1433.82,-53.62 1432.99,-29.71"/>
<polygon fill="midnightblue" stroke="midnightblue" points="1436.48,-29.43 1432.57,-19.59 1429.49,-29.73 1436.48,-29.43"/>
</g>
<!-- Node10&#45;&gt;Node8 -->
<g id="edge19" class="edge">
<title>Node10&#45;&gt;Node8</title>
<path fill="none" stroke="midnightblue" d="M1412.59,-168.37C1408.18,-145.46 1392.76,-83.04 1352.07,-56 1305.13,-24.82 907.58,-14.11 790.43,-11.62"/>
<polygon fill="midnightblue" stroke="midnightblue" points="790.37,-8.12 780.3,-11.41 790.22,-15.12 790.37,-8.12"/>
</g>
<!-- Node11 -->
<g id="node11" class="node">
<title>Node11</title>
<g id="a_node11"><a xlink:href="io_8h.html" target="_top" xlink:title=" ">
<polygon fill="none" stroke="red" points="1148.07,-112.5 1148.07,-131.5 1196.07,-131.5 1196.07,-112.5 1148.07,-112.5"/>
<text text-anchor="middle" x="1172.07" y="-119.5" font-family="Arial" font-size="10.00">util/io.h</text>
</a>
</g>
</g>
<!-- Node10&#45;&gt;Node11 -->
<g id="edge10" class="edge">
<title>Node10&#45;&gt;Node11</title>
<path fill="none" stroke="midnightblue" d="M1376.52,-168.62C1329.84,-158.21 1250.85,-140.58 1205.94,-130.56"/>
<polygon fill="midnightblue" stroke="midnightblue" points="1206.62,-127.13 1196.1,-128.36 1205.1,-133.96 1206.62,-127.13"/>
</g>
<!-- Node18 -->
<g id="node14" class="node">
<title>Node18</title>
<g id="a_node14"><a xlink:title=" ">
<polygon fill="none" stroke="#bfbfbf" points="1480.07,-112.5 1480.07,-131.5 1526.07,-131.5 1526.07,-112.5 1480.07,-112.5"/>
<text text-anchor="middle" x="1503.07" y="-119.5" font-family="Arial" font-size="10.00">cstring</text>
</a>
</g>
</g>
<!-- Node10&#45;&gt;Node18 -->
<g id="edge17" class="edge">
<title>Node10&#45;&gt;Node18</title>
<path fill="none" stroke="midnightblue" d="M1428.37,-168.32C1442.25,-159.9 1463.56,-146.97 1479.87,-137.07"/>
<polygon fill="midnightblue" stroke="midnightblue" points="1482.07,-139.83 1488.8,-131.65 1478.44,-133.85 1482.07,-139.83"/>
</g>
<!-- Node11&#45;&gt;Node3 -->
<g id="edge11" class="edge">
<title>Node11&#45;&gt;Node3</title>
<path fill="none" stroke="midnightblue" d="M1170.25,-112.08C1168.79,-104.93 1166.7,-94.64 1164.87,-85.69"/>
<polygon fill="midnightblue" stroke="midnightblue" points="1168.27,-84.85 1162.85,-75.75 1161.42,-86.25 1168.27,-84.85"/>
</g>
<!-- Node11&#45;&gt;Node7 -->
<g id="edge15" class="edge">
<title>Node11&#45;&gt;Node7</title>
<path fill="none" stroke="midnightblue" d="M1192.47,-112.37C1238.22,-93.01 1349.19,-46.06 1402.5,-23.51"/>
<polygon fill="midnightblue" stroke="midnightblue" points="1403.91,-26.71 1411.76,-19.59 1401.19,-20.26 1403.91,-26.71"/>
</g>
<!-- Node11&#45;&gt;Node8 -->
<g id="edge16" class="edge">
<title>Node11&#45;&gt;Node8</title>
<path fill="none" stroke="midnightblue" d="M1161.27,-112.38C1142.77,-98.11 1103.31,-69.77 1065.07,-56 969.37,-21.53 847.81,-13.43 790.62,-11.55"/>
<polygon fill="midnightblue" stroke="midnightblue" points="790.48,-8.04 780.38,-11.26 790.28,-15.04 790.48,-8.04"/>
</g>
<!-- Node11&#45;&gt;Node12 -->
<g id="edge12" class="edge">
<title>Node11&#45;&gt;Node12</title>
<path fill="none" stroke="midnightblue" d="M1148.05,-113.81C1145.04,-113.1 1142,-112.47 1139.07,-112 1057.7,-98.95 483.74,-75.46 316,-68.8"/>
<polygon fill="midnightblue" stroke="midnightblue" points="315.91,-65.29 305.77,-68.4 315.63,-72.29 315.91,-65.29"/>
</g>
<!-- Node12&#45;&gt;Node8 -->
<g id="edge14" class="edge">
<title>Node12&#45;&gt;Node8</title>
<path fill="none" stroke="midnightblue" d="M305.79,-58.23C310.58,-57.42 315.44,-56.65 320.07,-56 470.9,-34.71 652.3,-19.3 725.29,-13.51"/>
<polygon fill="midnightblue" stroke="midnightblue" points="725.96,-16.97 735.66,-12.7 725.41,-9.99 725.96,-16.97"/>
</g>
<!-- Node12&#45;&gt;Node14 -->
<g id="edge13" class="edge">
<title>Node12&#45;&gt;Node14</title>
<path fill="none" stroke="midnightblue" d="M253.68,-56.32C237.39,-47.7 212.2,-34.36 193.35,-24.39"/>
<polygon fill="midnightblue" stroke="midnightblue" points="194.89,-21.24 184.41,-19.65 191.61,-27.43 194.89,-21.24"/>
</g>
<!-- Node19&#45;&gt;Node4 -->
<g id="edge22" class="edge">
<title>Node19&#45;&gt;Node4</title>
<path fill="none" stroke="midnightblue" d="M1064.31,-172.29C1106.46,-167 1161.59,-155.79 1205.07,-132 1253.09,-105.72 1294.67,-54.58 1314.2,-27.98"/>
<polygon fill="midnightblue" stroke="midnightblue" points="1317.17,-29.85 1320.17,-19.68 1311.49,-25.76 1317.17,-29.85"/>
</g>
<!-- Node19&#45;&gt;Node8 -->
<g id="edge24" class="edge">
<title>Node19&#45;&gt;Node8</title>
<path fill="none" stroke="midnightblue" d="M1004.38,-168.14C1010.2,-154.76 1018.61,-129.13 1007.07,-112 957.86,-38.94 845.77,-18.71 790.33,-13.12"/>
<polygon fill="midnightblue" stroke="midnightblue" points="790.63,-9.63 780.35,-12.21 790,-16.6 790.63,-9.63"/>
</g>
<!-- Node19&#45;&gt;Node11 -->
<g id="edge21" class="edge">
<title>Node19&#45;&gt;Node11</title>
<path fill="none" stroke="midnightblue" d="M1027.32,-168.44C1057.32,-159.02 1105.59,-143.87 1138.05,-133.68"/>
<polygon fill="midnightblue" stroke="midnightblue" points="1139.5,-136.89 1147.99,-130.56 1137.4,-130.21 1139.5,-136.89"/>
</g>
<!-- Node19&#45;&gt;Node14 -->
<g id="edge23" class="edge">
<title>Node19&#45;&gt;Node14</title>
<path fill="none" stroke="midnightblue" d="M935.82,-174.65C798.89,-169.25 482.27,-154.7 377.07,-132 359.47,-128.2 239.9,-86.19 225.07,-76 206.39,-63.17 189.92,-42.88 179.55,-28.38"/>
<polygon fill="midnightblue" stroke="midnightblue" points="182.21,-26.07 173.65,-19.82 176.45,-30.04 182.21,-26.07"/>
</g>
<!-- Node20&#45;&gt;Node3 -->
<g id="edge26" class="edge">
<title>Node20&#45;&gt;Node3</title>
<path fill="none" stroke="midnightblue" d="M1103.15,-112.32C1113.55,-104.18 1129.33,-91.84 1141.79,-82.09"/>
<polygon fill="midnightblue" stroke="midnightblue" points="1144.06,-84.75 1149.78,-75.83 1139.75,-79.24 1144.06,-84.75"/>
</g>
<!-- Node20&#45;&gt;Node8 -->
<g id="edge27" class="edge">
<title>Node20&#45;&gt;Node8</title>
<path fill="none" stroke="midnightblue" d="M1087.74,-112.11C1080.22,-97.71 1063.3,-69.52 1040.07,-56 998.06,-31.55 854.96,-18.15 790.27,-13.22"/>
<polygon fill="midnightblue" stroke="midnightblue" points="790.46,-9.73 780.23,-12.48 789.94,-16.71 790.46,-9.73"/>
</g>
<!-- Node23&#45;&gt;Node3 -->
<g id="edge34" class="edge">
<title>Node23&#45;&gt;Node3</title>
<path fill="none" stroke="midnightblue" d="M215.78,-228.55C234.97,-226.96 257.01,-225.26 277.07,-224 453.79,-212.91 900.39,-227.2 1073.07,-188 1135.21,-173.89 1169.89,-185.14 1205.07,-132 1216.53,-114.68 1198.74,-94.94 1182.47,-81.8"/>
<polygon fill="midnightblue" stroke="midnightblue" points="1184.35,-78.83 1174.27,-75.58 1180.12,-84.41 1184.35,-78.83"/>
</g>
<!-- Node23&#45;&gt;Node8 -->
<g id="edge37" class="edge">
<title>Node23&#45;&gt;Node8</title>
<path fill="none" stroke="midnightblue" d="M167.28,-224.2C173.33,-201.94 192.27,-143 230.07,-112 272.46,-77.23 296.47,-94.57 348.07,-76 369.81,-68.17 373.73,-61.92 396.07,-56 514.98,-24.46 661.87,-14.88 725.81,-12.09"/>
<polygon fill="midnightblue" stroke="midnightblue" points="726.2,-15.57 736.05,-11.67 725.91,-8.58 726.2,-15.57"/>
</g>
<!-- Node24 -->
<g id="node20" class="node">
<title>Node24</title>
<g id="a_node20"><a xlink:title=" ">
<polygon fill="none" stroke="#bfbfbf" points="23.57,-168.5 23.57,-187.5 72.57,-187.5 72.57,-168.5 23.57,-168.5"/>
<text text-anchor="middle" x="48.07" y="-175.5" font-family="Arial" font-size="10.00">stdint.h</text>
</a>
</g>
</g>
<!-- Node23&#45;&gt;Node24 -->
<g id="edge35" class="edge">
<title>Node23&#45;&gt;Node24</title>
<path fill="none" stroke="midnightblue" d="M146.53,-224.44C127.44,-215.64 97.49,-201.81 75.63,-191.72"/>
<polygon fill="midnightblue" stroke="midnightblue" points="77.06,-188.53 66.52,-187.52 74.13,-194.88 77.06,-188.53"/>
</g>
<!-- Node25 -->
<g id="node21" class="node">
<title>Node25</title>
<g id="a_node21"><a xlink:title=" ">
<polygon fill="none" stroke="#bfbfbf" points="90.57,-168.5 90.57,-187.5 139.57,-187.5 139.57,-168.5 90.57,-168.5"/>
<text text-anchor="middle" x="115.07" y="-175.5" font-family="Arial" font-size="10.00">string.h</text>
</a>
</g>
</g>
<!-- Node23&#45;&gt;Node25 -->
<g id="edge36" class="edge">
<title>Node23&#45;&gt;Node25</title>
<path fill="none" stroke="midnightblue" d="M156.81,-224.08C149.6,-216.3 138.96,-204.8 130.22,-195.37"/>
<polygon fill="midnightblue" stroke="midnightblue" points="132.53,-192.71 123.17,-187.75 127.39,-197.47 132.53,-192.71"/>
</g>
<!-- Node26&#45;&gt;Node8 -->
<g id="edge63" class="edge">
<title>Node26&#45;&gt;Node8</title>
<path fill="none" stroke="midnightblue" d="M495.42,-284.05C421.43,-276.29 291.01,-260.47 277.07,-244 264.14,-228.74 281.5,-194.31 294.07,-168 307.03,-140.86 310.28,-132.74 332.07,-112 340.73,-103.75 412.79,-59.99 424.07,-56 529.95,-18.5 664.85,-11.94 725.71,-11"/>
<polygon fill="midnightblue" stroke="midnightblue" points="725.89,-14.5 735.85,-10.89 725.81,-7.5 725.89,-14.5"/>
</g>
<!-- Node26&#45;&gt;Node9 -->
<g id="edge39" class="edge">
<title>Node26&#45;&gt;Node9</title>
<path fill="none" stroke="midnightblue" d="M579.66,-280.44C616.25,-271.12 674.9,-256.18 714.89,-246"/>
<polygon fill="midnightblue" stroke="midnightblue" points="715.8,-249.38 724.63,-243.52 714.08,-242.59 715.8,-249.38"/>
</g>
<!-- Node26&#45;&gt;Node23 -->
<g id="edge62" class="edge">
<title>Node26&#45;&gt;Node23</title>
<path fill="none" stroke="midnightblue" d="M495.47,-281.83C425.87,-271.96 300.75,-254.23 226.06,-243.65"/>
<polygon fill="midnightblue" stroke="midnightblue" points="226.26,-240.14 215.87,-242.2 225.28,-247.07 226.26,-240.14"/>
</g>
<!-- Node27 -->
<g id="node23" class="node">
<title>Node27</title>
<g id="a_node23"><a xlink:href="input_8h.html" target="_top" xlink:title=" ">
<polygon fill="none" stroke="black" points="286.07,-224.5 286.07,-243.5 348.07,-243.5 348.07,-224.5 286.07,-224.5"/>
<text text-anchor="middle" x="317.07" y="-231.5" font-family="Arial" font-size="10.00">inp/input.h</text>
</a>
</g>
</g>
<!-- Node26&#45;&gt;Node27 -->
<g id="edge40" class="edge">
<title>Node26&#45;&gt;Node27</title>
<path fill="none" stroke="midnightblue" d="M509.78,-280.44C468.57,-270.72 401.45,-254.9 358.29,-244.72"/>
<polygon fill="midnightblue" stroke="midnightblue" points="358.93,-241.28 348.4,-242.39 357.33,-248.09 358.93,-241.28"/>
</g>
<!-- Node28 -->
<g id="node24" class="node">
<title>Node28</title>
<g id="a_node24"><a xlink:href="particleFLoading_8h.html" target="_top" xlink:title=" ">
<polygon fill="none" stroke="black" points="536.07,-112.5 536.07,-131.5 666.07,-131.5 666.07,-112.5 536.07,-112.5"/>
<text text-anchor="middle" x="601.07" y="-119.5" font-family="Arial" font-size="10.00">loading/particleFLoading.h</text>
</a>
</g>
</g>
<!-- Node26&#45;&gt;Node28 -->
<g id="edge44" class="edge">
<title>Node26&#45;&gt;Node28</title>
<path fill="none" stroke="midnightblue" d="M545.93,-280.37C545.93,-259.92 547.74,-207.3 565.07,-168 569.74,-157.4 577.55,-147.18 584.7,-139.17"/>
<polygon fill="midnightblue" stroke="midnightblue" points="587.44,-141.37 591.76,-131.7 582.35,-136.57 587.44,-141.37"/>
</g>
<!-- Node39 -->
<g id="node26" class="node">
<title>Node39</title>
<g id="a_node26"><a xlink:href="particleULoading_8h.html" target="_top" xlink:title=" ">
<polygon fill="none" stroke="black" points="386.57,-112.5 386.57,-131.5 517.57,-131.5 517.57,-112.5 386.57,-112.5"/>
<text text-anchor="middle" x="452.07" y="-119.5" font-family="Arial" font-size="10.00">loading/particleULoading.h</text>
</a>
</g>
</g>
<!-- Node26&#45;&gt;Node39 -->
<g id="edge49" class="edge">
<title>Node26&#45;&gt;Node39</title>
<path fill="none" stroke="midnightblue" d="M541.01,-280.08C526.09,-253.72 482.01,-175.88 462.07,-140.66"/>
<polygon fill="midnightblue" stroke="midnightblue" points="464.89,-138.55 456.92,-131.57 458.8,-141.99 464.89,-138.55"/>
</g>
<!-- Node40 -->
<g id="node27" class="node">
<title>Node40</title>
<g id="a_node27"><a xlink:href="nsearch_8h.html" target="_top" xlink:title=" ">
<polygon fill="none" stroke="black" points="574.57,-168.5 574.57,-187.5 671.57,-187.5 671.57,-168.5 574.57,-168.5"/>
<text text-anchor="middle" x="623.07" y="-175.5" font-family="Arial" font-size="10.00">nsearch/nsearch.h</text>
</a>
</g>
</g>
<!-- Node26&#45;&gt;Node40 -->
<g id="edge52" class="edge">
<title>Node26&#45;&gt;Node40</title>
<path fill="none" stroke="midnightblue" d="M552.11,-280.37C564.82,-262.22 594.5,-219.8 611.17,-195.99"/>
<polygon fill="midnightblue" stroke="midnightblue" points="614.18,-197.79 617.05,-187.59 608.45,-193.78 614.18,-197.79"/>
</g>
<!-- Node27&#45;&gt;Node8 -->
<g id="edge42" class="edge">
<title>Node27&#45;&gt;Node8</title>
<path fill="none" stroke="midnightblue" d="M311.31,-224.22C303.68,-211.37 292.14,-186.92 301.07,-168 317.78,-132.59 336.94,-134.38 369.07,-112 389.33,-97.88 441.78,-64.24 465.07,-56 555.8,-23.88 670.35,-14.67 725.48,-12.04"/>
<polygon fill="midnightblue" stroke="midnightblue" points="725.85,-15.53 735.69,-11.6 725.55,-8.54 725.85,-15.53"/>
</g>
<!-- Node27&#45;&gt;Node14 -->
<g id="edge41" class="edge">
<title>Node27&#45;&gt;Node14</title>
<path fill="none" stroke="midnightblue" d="M292.8,-224.46C243.85,-206.69 136.21,-164.66 116.07,-132 98.34,-103.25 102.02,-86.72 116.07,-56 121.84,-43.36 133.12,-32.91 143.7,-25.27"/>
<polygon fill="midnightblue" stroke="midnightblue" points="145.91,-28 152.28,-19.53 142.02,-22.18 145.91,-28"/>
</g>
<!-- Node27&#45;&gt;Node22 -->
<g id="edge43" class="edge">
<title>Node27&#45;&gt;Node22</title>
<path fill="none" stroke="midnightblue" d="M320.2,-224.08C322.75,-216.85 326.42,-206.41 329.59,-197.4"/>
<polygon fill="midnightblue" stroke="midnightblue" points="332.97,-198.35 332.99,-187.75 326.37,-196.02 332.97,-198.35"/>
</g>
<!-- Node28&#45;&gt;Node3 -->
<g id="edge48" class="edge">
<title>Node28&#45;&gt;Node3</title>
<path fill="none" stroke="midnightblue" d="M666.42,-112.95C669.34,-112.62 672.23,-112.3 675.07,-112 839.69,-94.37 1036.14,-77.44 1119.93,-70.41"/>
<polygon fill="midnightblue" stroke="midnightblue" points="1120.37,-73.88 1130.05,-69.56 1119.79,-66.91 1120.37,-73.88"/>
</g>
<!-- Node29 -->
<g id="node25" class="node">
<title>Node29</title>
<g id="a_node25"><a xlink:href="particleLoading_8h.html" target="_top" xlink:title=" ">
<polygon fill="none" stroke="red" points="535.07,-56.5 535.07,-75.5 625.07,-75.5 625.07,-56.5 535.07,-56.5"/>
<text text-anchor="middle" x="580.07" y="-63.5" font-family="Arial" font-size="10.00">particleLoading.h</text>
</a>
</g>
</g>
<!-- Node28&#45;&gt;Node29 -->
<g id="edge45" class="edge">
<title>Node28&#45;&gt;Node29</title>
<path fill="none" stroke="midnightblue" d="M597.6,-112.08C594.75,-104.77 590.64,-94.18 587.11,-85.1"/>
<polygon fill="midnightblue" stroke="midnightblue" points="590.36,-83.8 583.47,-75.75 583.83,-86.34 590.36,-83.8"/>
</g>
<!-- Node29&#45;&gt;Node8 -->
<g id="edge47" class="edge">
<title>Node29&#45;&gt;Node8</title>
<path fill="none" stroke="midnightblue" d="M608.27,-56.44C640.34,-46.71 692.59,-30.86 726.13,-20.69"/>
<polygon fill="midnightblue" stroke="midnightblue" points="727.34,-23.98 735.9,-17.73 725.31,-17.28 727.34,-23.98"/>
</g>
<!-- Node29&#45;&gt;Node14 -->
<g id="edge46" class="edge">
<title>Node29&#45;&gt;Node14</title>
<path fill="none" stroke="midnightblue" d="M534.8,-59.07C450.49,-48.02 271.46,-24.55 199.24,-15.09"/>
<polygon fill="midnightblue" stroke="midnightblue" points="199.36,-11.57 188.99,-13.74 198.45,-18.51 199.36,-11.57"/>
</g>
<!-- Node39&#45;&gt;Node3 -->
<g id="edge51" class="edge">
<title>Node39&#45;&gt;Node3</title>
<path fill="none" stroke="midnightblue" d="M517.9,-112.92C520.99,-112.59 524.06,-112.29 527.07,-112 750.39,-90.69 1018.86,-74.85 1119.92,-69.23"/>
<polygon fill="midnightblue" stroke="midnightblue" points="1120.22,-72.71 1130.02,-68.67 1119.84,-65.73 1120.22,-72.71"/>
</g>
<!-- Node39&#45;&gt;Node29 -->
<g id="edge50" class="edge">
<title>Node39&#45;&gt;Node29</title>
<path fill="none" stroke="midnightblue" d="M472.35,-112.44C493.41,-103.56 526.58,-89.56 550.55,-79.45"/>
<polygon fill="midnightblue" stroke="midnightblue" points="552.03,-82.63 559.88,-75.52 549.3,-76.18 552.03,-82.63"/>
</g>
<!-- Node40&#45;&gt;Node3 -->
<g id="edge53" class="edge">
<title>Node40&#45;&gt;Node3</title>
<path fill="none" stroke="midnightblue" d="M671.67,-169.04C738.95,-157.91 854.32,-138.34 873.07,-132 891.52,-125.76 893.61,-118.24 912.07,-112 982.96,-88.01 1069.79,-76.02 1119.93,-70.68"/>
<polygon fill="midnightblue" stroke="midnightblue" points="1120.46,-74.15 1130.06,-69.64 1119.75,-67.18 1120.46,-74.15"/>
</g>
<!-- Node40&#45;&gt;Node8 -->
<g id="edge59" class="edge">
<title>Node40&#45;&gt;Node8</title>
<path fill="none" stroke="midnightblue" d="M574.55,-175.24C510.16,-171.76 401.7,-161.56 377.07,-132 371.37,-125.17 372.01,-119.31 377.07,-112 382.1,-104.73 517.56,-58.41 526.07,-56 596.24,-36.16 680.81,-22.18 725.96,-15.48"/>
<polygon fill="midnightblue" stroke="midnightblue" points="726.64,-18.92 736.03,-14.01 725.63,-11.99 726.64,-18.92"/>
</g>
<!-- Node40&#45;&gt;Node14 -->
<g id="edge58" class="edge">
<title>Node40&#45;&gt;Node14</title>
<path fill="none" stroke="midnightblue" d="M574.44,-171.79C473.69,-160.05 246.98,-128.38 192.07,-76 179.3,-63.83 173.29,-44.27 170.48,-29.79"/>
<polygon fill="midnightblue" stroke="midnightblue" points="173.93,-29.23 168.89,-19.91 167.02,-30.34 173.93,-29.23"/>
</g>
<!-- Node41 -->
<g id="node28" class="node">
<title>Node41</title>
<g id="a_node28"><a xlink:href="methods_8h.html" target="_top" xlink:title=" ">
<polygon fill="none" stroke="red" points="786.07,-112.5 786.07,-131.5 864.07,-131.5 864.07,-112.5 786.07,-112.5"/>
<text text-anchor="middle" x="825.07" y="-119.5" font-family="Arial" font-size="10.00">util/methods.h</text>
</a>
</g>
</g>
<!-- Node40&#45;&gt;Node41 -->
<g id="edge54" class="edge">
<title>Node40&#45;&gt;Node41</title>
<path fill="none" stroke="midnightblue" d="M655.07,-168.44C689.79,-159.16 745.35,-144.31 783.44,-134.13"/>
<polygon fill="midnightblue" stroke="midnightblue" points="784.45,-137.48 793.21,-131.52 782.64,-130.72 784.45,-137.48"/>
</g>
<!-- Node43 -->
<g id="node29" class="node">
<title>Node43</title>
<g id="a_node29"><a xlink:title=" ">
<polygon fill="none" stroke="#bfbfbf" points="684.07,-112.5 684.07,-131.5 730.07,-131.5 730.07,-112.5 684.07,-112.5"/>
<text text-anchor="middle" x="707.07" y="-119.5" font-family="Arial" font-size="10.00">cstdint</text>
</a>
</g>
</g>
<!-- Node40&#45;&gt;Node43 -->
<g id="edge57" class="edge">
<title>Node40&#45;&gt;Node43</title>
<path fill="none" stroke="midnightblue" d="M636.56,-168.32C649.67,-159.9 669.78,-146.97 685.17,-137.07"/>
<polygon fill="midnightblue" stroke="midnightblue" points="687.08,-140.01 693.6,-131.65 683.3,-134.12 687.08,-140.01"/>
</g>
<!-- Node44 -->
<g id="node30" class="node">
<title>Node44</title>
<g id="a_node30"><a xlink:href="nflannSetup_8h.html" target="_top" xlink:title=" ">
<polygon fill="none" stroke="red" points="920.57,-112.5 920.57,-131.5 997.57,-131.5 997.57,-112.5 920.57,-112.5"/>
<text text-anchor="middle" x="959.07" y="-119.5" font-family="Arial" font-size="10.00">nflannSetup.h</text>
</a>
</g>
</g>
<!-- Node40&#45;&gt;Node44 -->
<g id="edge60" class="edge">
<title>Node40&#45;&gt;Node44</title>
<path fill="none" stroke="midnightblue" d="M671.67,-169.43C728.06,-160.61 823.84,-145.52 906.07,-132 907.36,-131.79 908.67,-131.57 910,-131.35"/>
<polygon fill="midnightblue" stroke="midnightblue" points="911,-134.73 920.29,-129.63 909.85,-127.83 911,-134.73"/>
</g>
<!-- Node41&#45;&gt;Node3 -->
<g id="edge55" class="edge">
<title>Node41&#45;&gt;Node3</title>
<path fill="none" stroke="midnightblue" d="M864.13,-114.32C868.83,-113.53 873.55,-112.74 878.07,-112 964.08,-97.86 1064.91,-82 1120,-73.39"/>
<polygon fill="midnightblue" stroke="midnightblue" points="1120.72,-76.82 1130.06,-71.82 1119.64,-69.91 1120.72,-76.82"/>
</g>
<!-- Node41&#45;&gt;Node8 -->
<g id="edge56" class="edge">
<title>Node41&#45;&gt;Node8</title>
<path fill="none" stroke="midnightblue" d="M819.81,-112.37C808.8,-94.3 783.15,-52.18 768.61,-28.31"/>
<polygon fill="midnightblue" stroke="midnightblue" points="771.49,-26.31 763.3,-19.59 765.51,-29.95 771.49,-26.31"/>
</g>
<!-- Node44&#45;&gt;Node3 -->
<g id="edge61" class="edge">
<title>Node44&#45;&gt;Node3</title>
<path fill="none" stroke="midnightblue" d="M991.07,-112.44C1026,-103.11 1082.01,-88.13 1120.11,-77.95"/>
<polygon fill="midnightblue" stroke="midnightblue" points="1121.12,-81.3 1129.87,-75.34 1119.31,-74.54 1121.12,-81.3"/>
</g>
<!-- Node46&#45;&gt;Node8 -->
<g id="edge71" class="edge">
<title>Node46&#45;&gt;Node8</title>
<path fill="none" stroke="midnightblue" d="M1212.8,-341.92C1260.23,-328.15 1338.07,-296.23 1338.07,-235 1338.07,-235 1338.07,-235 1338.07,-121 1338.07,-53.61 1265.98,-74.11 1201.07,-56 1051.67,-14.31 864.35,-10.33 790.3,-10.55"/>
<polygon fill="midnightblue" stroke="midnightblue" points="790.2,-7.05 780.22,-10.61 790.24,-14.05 790.2,-7.05"/>
</g>
<!-- Node46&#45;&gt;Node9 -->
<g id="edge68" class="edge">
<title>Node46&#45;&gt;Node9</title>
<path fill="none" stroke="midnightblue" d="M1145.92,-341.91C1071.28,-321.34 882.27,-269.24 798.78,-246.22"/>
<polygon fill="midnightblue" stroke="midnightblue" points="799.71,-242.85 789.14,-243.56 797.85,-249.6 799.71,-242.85"/>
</g>
<!-- Node46&#45;&gt;Node18 -->
<g id="edge70" class="edge">
<title>Node46&#45;&gt;Node18</title>
<path fill="none" stroke="midnightblue" d="M1233.25,-341.95C1269.13,-334.69 1315.59,-321.87 1352.07,-300 1420.15,-259.19 1472.69,-176.73 1493.43,-140.61"/>
<polygon fill="midnightblue" stroke="midnightblue" points="1496.57,-142.16 1498.42,-131.73 1490.47,-138.73 1496.57,-142.16"/>
</g>
<!-- Node46&#45;&gt;Node26 -->
<g id="edge69" class="edge">
<title>Node46&#45;&gt;Node26</title>
<path fill="none" stroke="midnightblue" d="M1120.51,-345.17C1002.21,-334.01 729.45,-308.29 607.24,-296.77"/>
<polygon fill="midnightblue" stroke="midnightblue" points="607.23,-293.25 596.94,-295.8 606.57,-300.22 607.23,-293.25"/>
</g>
</g>
</svg>
