<?xml version="1.0" encoding="UTF-8" standalone="no"?>
<!DOCTYPE svg PUBLIC "-//W3C//DTD SVG 1.1//EN"
 "http://www.w3.org/Graphics/SVG/1.1/DTD/svg11.dtd">
<!-- Generated by graphviz version 2.43.0 (0)
 -->
<!-- Title: /home/user/project/src/inp/decks/materialDeck.h Pages: 1 -->
<svg width="1167pt" height="597pt"
 viewBox="0.00 0.00 1167.00 597.00" xmlns="http://www.w3.org/2000/svg" xmlns:xlink="http://www.w3.org/1999/xlink">
<g id="graph0" class="graph" transform="scale(1 1) rotate(0) translate(4 593)">
<title>/home/user/project/src/inp/decks/materialDeck.h</title>
<!-- Node1 -->
<g id="node1" class="node">
<title>Node1</title>
<g id="a_node1"><a xlink:title=" ">
<polygon fill="#bfbfbf" stroke="black" points="443,-558.5 443,-588.5 590,-588.5 590,-558.5 443,-558.5"/>
<text text-anchor="start" x="451" y="-576.5" font-family="Arial" font-size="10.00">/home/user/project</text>
<text text-anchor="middle" x="516.5" y="-565.5" font-family="Arial" font-size="10.00">/src/inp/decks/materialDeck.h</text>
</a>
</g>
</g>
<!-- Node2 -->
<g id="node2" class="node">
<title>Node2</title>
<g id="a_node2"><a xlink:href="apps_2twop_2main_8cpp.html" target="_top" xlink:title=" ">
<polygon fill="none" stroke="black" points="456,-6 456,-36 563,-36 563,-6 456,-6"/>
<text text-anchor="start" x="464" y="-24" font-family="Arial" font-size="10.00">/home/user/project</text>
<text text-anchor="middle" x="509.5" y="-13" font-family="Arial" font-size="10.00">/apps/twop/main.cpp</text>
</a>
</g>
</g>
<!-- Node1&#45;&gt;Node2 -->
<g id="edge1" class="edge">
<title>Node1&#45;&gt;Node2</title>
<path fill="none" stroke="midnightblue" d="M491.75,-551.03C483.37,-542.69 474.61,-532.59 468.5,-522 449.63,-489.29 444.5,-478.26 444.5,-440.5 444.5,-440.5 444.5,-440.5 444.5,-159.5 444.5,-121.74 451.76,-111.85 468.5,-78 476.08,-62.66 487.87,-47.11 496.86,-36.3"/>
<polygon fill="midnightblue" stroke="midnightblue" points="489.58,-553.81 499.24,-558.17 494.41,-548.74 489.58,-553.81"/>
</g>
<!-- Node3 -->
<g id="node3" class="node">
<title>Node3</title>
<g id="a_node3"><a xlink:href="meshUtil_8h.html" target="_top" xlink:title=" ">
<polygon fill="none" stroke="black" points="318.5,-78.5 318.5,-108.5 416.5,-108.5 416.5,-78.5 318.5,-78.5"/>
<text text-anchor="start" x="326.5" y="-96.5" font-family="Arial" font-size="10.00">/home/user/project</text>
<text text-anchor="middle" x="367.5" y="-85.5" font-family="Arial" font-size="10.00">/src/fe/meshUtil.h</text>
</a>
</g>
</g>
<!-- Node1&#45;&gt;Node3 -->
<g id="edge2" class="edge">
<title>Node1&#45;&gt;Node3</title>
<path fill="none" stroke="midnightblue" d="M474.13,-553.69C459.05,-545.52 442.78,-534.85 430.5,-522 402.21,-492.39 387.5,-481.45 387.5,-440.5 387.5,-440.5 387.5,-440.5 387.5,-226.5 387.5,-183.16 376.83,-132.7 371.08,-108.65"/>
<polygon fill="midnightblue" stroke="midnightblue" points="472.83,-556.96 483.32,-558.45 476.05,-550.74 472.83,-556.96"/>
</g>
<!-- Node5 -->
<g id="node5" class="node">
<title>Node5</title>
<g id="a_node5"><a xlink:href="demModel_8cpp.html" target="_top" xlink:title=" ">
<polygon fill="none" stroke="black" points="581,-6 581,-36 732,-36 732,-6 581,-6"/>
<text text-anchor="start" x="589" y="-24" font-family="Arial" font-size="10.00">/home/user/project</text>
<text text-anchor="middle" x="656.5" y="-13" font-family="Arial" font-size="10.00">/src/model/dem/demModel.cpp</text>
</a>
</g>
</g>
<!-- Node1&#45;&gt;Node5 -->
<g id="edge39" class="edge">
<title>Node1&#45;&gt;Node5</title>
<path fill="none" stroke="midnightblue" d="M506.52,-548.74C496.49,-522.67 482.5,-479.36 482.5,-440.5 482.5,-440.5 482.5,-440.5 482.5,-159.5 482.5,-94.24 558.78,-55.12 610.33,-36.13"/>
<polygon fill="midnightblue" stroke="midnightblue" points="503.32,-550.16 510.26,-558.16 509.82,-547.58 503.32,-550.16"/>
</g>
<!-- Node8 -->
<g id="node8" class="node">
<title>Node8</title>
<g id="a_node8"><a xlink:href="input_8cpp.html" target="_top" xlink:title=" ">
<polygon fill="none" stroke="black" points="569.5,-357.5 569.5,-387.5 667.5,-387.5 667.5,-357.5 569.5,-357.5"/>
<text text-anchor="start" x="577.5" y="-375.5" font-family="Arial" font-size="10.00">/home/user/project</text>
<text text-anchor="middle" x="618.5" y="-364.5" font-family="Arial" font-size="10.00">/src/inp/input.cpp</text>
</a>
</g>
</g>
<!-- Node1&#45;&gt;Node8 -->
<g id="edge8" class="edge">
<title>Node1&#45;&gt;Node8</title>
<path fill="none" stroke="midnightblue" d="M528.51,-549.06C549.88,-507.38 593.88,-421.54 611.23,-387.68"/>
<polygon fill="midnightblue" stroke="midnightblue" points="525.28,-547.69 523.84,-558.19 531.51,-550.89 525.28,-547.69"/>
</g>
<!-- Node9 -->
<g id="node9" class="node">
<title>Node9</title>
<g id="a_node9"><a xlink:href="zoneDeck_8h.html" target="_top" xlink:title=" ">
<polygon fill="none" stroke="black" points="661,-491.5 661,-521.5 800,-521.5 800,-491.5 661,-491.5"/>
<text text-anchor="start" x="669" y="-509.5" font-family="Arial" font-size="10.00">/home/user/project</text>
<text text-anchor="middle" x="730.5" y="-498.5" font-family="Arial" font-size="10.00">/src/inp/pdecks/zoneDeck.h</text>
</a>
</g>
</g>
<!-- Node1&#45;&gt;Node9 -->
<g id="edge9" class="edge">
<title>Node1&#45;&gt;Node9</title>
<path fill="none" stroke="midnightblue" d="M572.65,-555.44C607.34,-544.91 651.32,-531.55 684.04,-521.61"/>
<polygon fill="midnightblue" stroke="midnightblue" points="571.22,-552.22 562.67,-558.48 573.26,-558.92 571.22,-552.22"/>
</g>
<!-- Node30 -->
<g id="node21" class="node">
<title>Node30</title>
<g id="a_node21"><a xlink:href="material_8h.html" target="_top" xlink:title=" ">
<polygon fill="none" stroke="black" points="558,-279.5 558,-320.5 671,-320.5 671,-279.5 558,-279.5"/>
<text text-anchor="start" x="566" y="-308.5" font-family="Arial" font-size="10.00">/home/user/project</text>
<text text-anchor="start" x="566" y="-297.5" font-family="Arial" font-size="10.00">/src/material/mparticle</text>
<text text-anchor="middle" x="614.5" y="-286.5" font-family="Arial" font-size="10.00">/material.h</text>
</a>
</g>
</g>
<!-- Node1&#45;&gt;Node30 -->
<g id="edge34" class="edge">
<title>Node1&#45;&gt;Node30</title>
<path fill="none" stroke="midnightblue" d="M517.1,-548.27C519.03,-506.77 527.11,-420.46 560.5,-357 567.73,-343.25 579.36,-330.56 589.98,-320.74"/>
<polygon fill="midnightblue" stroke="midnightblue" points="513.59,-548.37 516.7,-558.5 520.58,-548.64 513.59,-548.37"/>
</g>
<!-- Node3&#45;&gt;Node2 -->
<g id="edge3" class="edge">
<title>Node3&#45;&gt;Node2</title>
<path fill="none" stroke="midnightblue" d="M405.02,-73.87C428.89,-62.02 459.3,-46.92 481.15,-36.07"/>
<polygon fill="midnightblue" stroke="midnightblue" points="403.29,-70.82 395.89,-78.4 406.41,-77.09 403.29,-70.82"/>
</g>
<!-- Node4 -->
<g id="node4" class="node">
<title>Node4</title>
<g id="a_node4"><a xlink:href="meshUtil_8cpp.html" target="_top" xlink:title=" ">
<polygon fill="none" stroke="black" points="0,-6 0,-36 105,-36 105,-6 0,-6"/>
<text text-anchor="start" x="8" y="-24" font-family="Arial" font-size="10.00">/home/user/project</text>
<text text-anchor="middle" x="52.5" y="-13" font-family="Arial" font-size="10.00">/src/fe/meshUtil.cpp</text>
</a>
</g>
</g>
<!-- Node3&#45;&gt;Node4 -->
<g id="edge4" class="edge">
<title>Node3&#45;&gt;Node4</title>
<path fill="none" stroke="midnightblue" d="M308.18,-82.65C256.63,-73.62 180.13,-59.08 114.5,-42 107.71,-40.23 100.58,-38.15 93.66,-36.01"/>
<polygon fill="midnightblue" stroke="midnightblue" points="307.69,-86.12 318.15,-84.38 308.89,-79.22 307.69,-86.12"/>
</g>
<!-- Node3&#45;&gt;Node5 -->
<g id="edge5" class="edge">
<title>Node3&#45;&gt;Node5</title>
<path fill="none" stroke="midnightblue" d="M426.31,-78.15C476.74,-65.85 548.98,-48.23 599.02,-36.02"/>
<polygon fill="midnightblue" stroke="midnightblue" points="425.41,-74.77 416.52,-80.54 427.07,-81.57 425.41,-74.77"/>
</g>
<!-- Node6 -->
<g id="node6" class="node">
<title>Node6</title>
<g id="a_node6"><a xlink:href="testMeshPartitioningLib_8cpp.html" target="_top" xlink:title=" ">
<polygon fill="none" stroke="black" points="123.5,-0.5 123.5,-41.5 279.5,-41.5 279.5,-0.5 123.5,-0.5"/>
<text text-anchor="start" x="131.5" y="-29.5" font-family="Arial" font-size="10.00">/home/user/project</text>
<text text-anchor="start" x="131.5" y="-18.5" font-family="Arial" font-size="10.00">/test/test_exec/meshpartitioning</text>
<text text-anchor="middle" x="201.5" y="-7.5" font-family="Arial" font-size="10.00">/testMeshPartitioningLib.cpp</text>
</a>
</g>
</g>
<!-- Node3&#45;&gt;Node6 -->
<g id="edge6" class="edge">
<title>Node3&#45;&gt;Node6</title>
<path fill="none" stroke="midnightblue" d="M324.88,-74.4C301.2,-64.34 271.73,-51.83 247.52,-41.55"/>
<polygon fill="midnightblue" stroke="midnightblue" points="323.73,-77.72 334.31,-78.4 326.47,-71.27 323.73,-77.72"/>
</g>
<!-- Node7 -->
<g id="node7" class="node">
<title>Node7</title>
<g id="a_node7"><a xlink:href="testParallelCompLib_8cpp.html" target="_top" xlink:title=" ">
<polygon fill="none" stroke="black" points="297.5,-0.5 297.5,-41.5 437.5,-41.5 437.5,-0.5 297.5,-0.5"/>
<text text-anchor="start" x="305.5" y="-29.5" font-family="Arial" font-size="10.00">/home/user/project</text>
<text text-anchor="start" x="305.5" y="-18.5" font-family="Arial" font-size="10.00">/test/test_exec/parallelcomp</text>
<text text-anchor="middle" x="367.5" y="-7.5" font-family="Arial" font-size="10.00">/testParallelCompLib.cpp</text>
</a>
</g>
</g>
<!-- Node3&#45;&gt;Node7 -->
<g id="edge7" class="edge">
<title>Node3&#45;&gt;Node7</title>
<path fill="none" stroke="midnightblue" d="M367.5,-67.98C367.5,-59.35 367.5,-49.76 367.5,-41.59"/>
<polygon fill="midnightblue" stroke="midnightblue" points="364,-68.23 367.5,-78.23 371,-68.23 364,-68.23"/>
</g>
<!-- Node10 -->
<g id="node10" class="node">
<title>Node10</title>
<g id="a_node10"><a xlink:href="particleDeck_8h.html" target="_top" xlink:title=" ">
<polygon fill="none" stroke="black" points="814,-424.5 814,-454.5 963,-454.5 963,-424.5 814,-424.5"/>
<text text-anchor="start" x="822" y="-442.5" font-family="Arial" font-size="10.00">/home/user/project</text>
<text text-anchor="middle" x="888.5" y="-431.5" font-family="Arial" font-size="10.00">/src/inp/pdecks/particleDeck.h</text>
</a>
</g>
</g>
<!-- Node9&#45;&gt;Node10 -->
<g id="edge10" class="edge">
<title>Node9&#45;&gt;Node10</title>
<path fill="none" stroke="midnightblue" d="M774.15,-487.54C799.43,-477.14 830.8,-464.24 854.28,-454.58"/>
<polygon fill="midnightblue" stroke="midnightblue" points="772.7,-484.35 764.78,-491.4 775.36,-490.83 772.7,-484.35"/>
</g>
<!-- Node10&#45;&gt;Node8 -->
<g id="edge11" class="edge">
<title>Node10&#45;&gt;Node8</title>
<path fill="none" stroke="midnightblue" d="M820.33,-422.09C772.75,-410.63 710.35,-395.61 667.61,-385.32"/>
<polygon fill="midnightblue" stroke="midnightblue" points="819.7,-425.54 830.25,-424.48 821.34,-418.73 819.7,-425.54"/>
</g>
<!-- Node11 -->
<g id="node11" class="node">
<title>Node11</title>
<g id="a_node11"><a xlink:href="particleLoading_8h.html" target="_top" xlink:title=" ">
<polygon fill="none" stroke="black" points="817,-357.5 817,-387.5 960,-387.5 960,-357.5 817,-357.5"/>
<text text-anchor="start" x="825" y="-375.5" font-family="Arial" font-size="10.00">/home/user/project</text>
<text text-anchor="middle" x="888.5" y="-364.5" font-family="Arial" font-size="10.00">/src/loading/particleLoading.h</text>
</a>
</g>
</g>
<!-- Node10&#45;&gt;Node11 -->
<g id="edge12" class="edge">
<title>Node10&#45;&gt;Node11</title>
<path fill="none" stroke="midnightblue" d="M888.5,-414.11C888.5,-405.15 888.5,-395.32 888.5,-387.58"/>
<polygon fill="midnightblue" stroke="midnightblue" points="885,-414.4 888.5,-424.4 892,-414.4 885,-414.4"/>
</g>
<!-- Node13 -->
<g id="node13" class="node">
<title>Node13</title>
<g id="a_node13"><a xlink:href="particleFLoading_8cpp.html" target="_top" xlink:title=" ">
<polygon fill="none" stroke="black" points="808.5,-6 808.5,-36 968.5,-36 968.5,-6 808.5,-6"/>
<text text-anchor="start" x="816.5" y="-24" font-family="Arial" font-size="10.00">/home/user/project</text>
<text text-anchor="middle" x="888.5" y="-13" font-family="Arial" font-size="10.00">/src/loading/particleFLoading.cpp</text>
</a>
</g>
</g>
<!-- Node10&#45;&gt;Node13 -->
<g id="edge30" class="edge">
<title>Node10&#45;&gt;Node13</title>
<path fill="none" stroke="midnightblue" d="M973.03,-423.06C1037.92,-405.76 1116.5,-370.47 1116.5,-301 1116.5,-301 1116.5,-301 1116.5,-159.5 1116.5,-88.08 1033.46,-52.79 967.6,-36.02"/>
<polygon fill="midnightblue" stroke="midnightblue" points="971.98,-419.72 963.16,-425.59 973.71,-426.5 971.98,-419.72"/>
</g>
<!-- Node22 -->
<g id="node16" class="node">
<title>Node22</title>
<g id="a_node16"><a xlink:href="refParticle_8h.html" target="_top" xlink:title=" ">
<polygon fill="none" stroke="black" points="737,-145.5 737,-175.5 860,-175.5 860,-145.5 737,-145.5"/>
<text text-anchor="start" x="745" y="-163.5" font-family="Arial" font-size="10.00">/home/user/project</text>
<text text-anchor="middle" x="798.5" y="-152.5" font-family="Arial" font-size="10.00">/src/particle/refParticle.h</text>
</a>
</g>
</g>
<!-- Node10&#45;&gt;Node22 -->
<g id="edge32" class="edge">
<title>Node10&#45;&gt;Node22</title>
<path fill="none" stroke="midnightblue" d="M840.59,-420.29C800.24,-402.03 745.41,-369.59 721.5,-321 713.26,-304.25 711.03,-294.46 721.5,-279 745.65,-243.33 787.35,-278.67 811.5,-243 825.24,-222.71 814.82,-193.16 806.39,-175.78"/>
<polygon fill="midnightblue" stroke="midnightblue" points="839.42,-423.6 849.99,-424.41 842.23,-417.19 839.42,-423.6"/>
</g>
<!-- Node24 -->
<g id="node18" class="node">
<title>Node24</title>
<g id="a_node18"><a xlink:href="particleULoading_8cpp.html" target="_top" xlink:title=" ">
<polygon fill="none" stroke="black" points="998,-6 998,-36 1159,-36 1159,-6 998,-6"/>
<text text-anchor="start" x="1006" y="-24" font-family="Arial" font-size="10.00">/home/user/project</text>
<text text-anchor="middle" x="1078.5" y="-13" font-family="Arial" font-size="10.00">/src/loading/particleULoading.cpp</text>
</a>
</g>
</g>
<!-- Node10&#45;&gt;Node24 -->
<g id="edge31" class="edge">
<title>Node10&#45;&gt;Node24</title>
<path fill="none" stroke="midnightblue" d="M973.62,-429.92C1051.44,-416.82 1154.5,-383.84 1154.5,-301 1154.5,-301 1154.5,-301 1154.5,-159.5 1154.5,-109.04 1114.81,-59.7 1092.8,-36.22"/>
<polygon fill="midnightblue" stroke="midnightblue" points="972.63,-426.54 963.3,-431.57 973.73,-433.45 972.63,-426.54"/>
</g>
<!-- Node28 -->
<g id="node19" class="node">
<title>Node28</title>
<g id="a_node19"><a xlink:href="refParticle_8cpp.html" target="_top" xlink:title=" ">
<polygon fill="none" stroke="black" points="916.5,-78.5 916.5,-108.5 1050.5,-108.5 1050.5,-78.5 916.5,-78.5"/>
<text text-anchor="start" x="924.5" y="-96.5" font-family="Arial" font-size="10.00">/home/user/project</text>
<text text-anchor="middle" x="983.5" y="-85.5" font-family="Arial" font-size="10.00">/src/particle/refParticle.cpp</text>
</a>
</g>
</g>
<!-- Node10&#45;&gt;Node28 -->
<g id="edge33" class="edge">
<title>Node10&#45;&gt;Node28</title>
<path fill="none" stroke="midnightblue" d="M937.08,-420.4C977.88,-402.23 1033.29,-369.87 1057.5,-321 1095.24,-244.83 1024.71,-144.99 995.41,-108.57"/>
<polygon fill="midnightblue" stroke="midnightblue" points="935.63,-417.21 927.83,-424.39 938.4,-423.64 935.63,-417.21"/>
</g>
<!-- Node12 -->
<g id="node12" class="node">
<title>Node12</title>
<g id="a_node12"><a xlink:href="particleFLoading_8h.html" target="_top" xlink:title=" ">
<polygon fill="none" stroke="black" points="730,-285 730,-315 879,-315 879,-285 730,-285"/>
<text text-anchor="start" x="738" y="-303" font-family="Arial" font-size="10.00">/home/user/project</text>
<text text-anchor="middle" x="804.5" y="-292" font-family="Arial" font-size="10.00">/src/loading/particleFLoading.h</text>
</a>
</g>
</g>
<!-- Node11&#45;&gt;Node12 -->
<g id="edge13" class="edge">
<title>Node11&#45;&gt;Node12</title>
<path fill="none" stroke="midnightblue" d="M863.82,-350.79C850.09,-339.27 833.37,-325.23 821.19,-315"/>
<polygon fill="midnightblue" stroke="midnightblue" points="861.59,-353.49 871.5,-357.23 866.09,-348.12 861.59,-353.49"/>
</g>
<!-- Node29 -->
<g id="node20" class="node">
<title>Node29</title>
<g id="a_node20"><a xlink:href="particleULoading_8h.html" target="_top" xlink:title=" ">
<polygon fill="none" stroke="black" points="897,-285 897,-315 1048,-315 1048,-285 897,-285"/>
<text text-anchor="start" x="905" y="-303" font-family="Arial" font-size="10.00">/home/user/project</text>
<text text-anchor="middle" x="972.5" y="-292" font-family="Arial" font-size="10.00">/src/loading/particleULoading.h</text>
</a>
</g>
</g>
<!-- Node11&#45;&gt;Node29 -->
<g id="edge27" class="edge">
<title>Node11&#45;&gt;Node29</title>
<path fill="none" stroke="midnightblue" d="M913.18,-350.79C926.91,-339.27 943.63,-325.23 955.81,-315"/>
<polygon fill="midnightblue" stroke="midnightblue" points="910.91,-348.12 905.5,-357.23 915.41,-353.49 910.91,-348.12"/>
</g>
<!-- Node12&#45;&gt;Node13 -->
<g id="edge14" class="edge">
<title>Node12&#45;&gt;Node13</title>
<path fill="none" stroke="midnightblue" d="M822.39,-276.83C829.87,-266.87 838.25,-254.75 844.5,-243 882.24,-172.02 887.74,-72.59 888.45,-36.12"/>
<polygon fill="midnightblue" stroke="midnightblue" points="819.47,-274.89 816.13,-284.95 825.01,-279.16 819.47,-274.89"/>
</g>
<!-- Node14 -->
<g id="node14" class="node">
<title>Node14</title>
<g id="a_node14"><a xlink:href="modelData_8h.html" target="_top" xlink:title=" ">
<polygon fill="none" stroke="red" points="681,-212.5 681,-242.5 802,-242.5 802,-212.5 681,-212.5"/>
<text text-anchor="start" x="689" y="-230.5" font-family="Arial" font-size="10.00">/home/user/project</text>
<text text-anchor="middle" x="741.5" y="-219.5" font-family="Arial" font-size="10.00">/src/model/modelData.h</text>
</a>
</g>
</g>
<!-- Node12&#45;&gt;Node14 -->
<g id="edge15" class="edge">
<title>Node12&#45;&gt;Node14</title>
<path fill="none" stroke="midnightblue" d="M784.88,-277.04C774.88,-265.86 763.02,-252.58 754.23,-242.75"/>
<polygon fill="midnightblue" stroke="midnightblue" points="782.48,-279.61 791.75,-284.73 787.7,-274.94 782.48,-279.61"/>
</g>
<!-- Node18 -->
<g id="node15" class="node">
<title>Node18</title>
<g id="a_node15"><a xlink:href="materialUtil_8h.html" target="_top" xlink:title=" ">
<polygon fill="none" stroke="red" points="511,-145.5 511,-175.5 642,-175.5 642,-145.5 511,-145.5"/>
<text text-anchor="start" x="519" y="-163.5" font-family="Arial" font-size="10.00">/home/user/project</text>
<text text-anchor="middle" x="576.5" y="-152.5" font-family="Arial" font-size="10.00">/src/material/materialUtil.h</text>
</a>
</g>
</g>
<!-- Node14&#45;&gt;Node18 -->
<g id="edge16" class="edge">
<title>Node14&#45;&gt;Node18</title>
<path fill="none" stroke="midnightblue" d="M696.27,-208.68C669.81,-198.26 636.87,-185.28 612.23,-175.58"/>
<polygon fill="midnightblue" stroke="midnightblue" points="695.11,-211.99 705.7,-212.4 697.68,-205.47 695.11,-211.99"/>
</g>
<!-- Node14&#45;&gt;Node22 -->
<g id="edge19" class="edge">
<title>Node14&#45;&gt;Node22</title>
<path fill="none" stroke="midnightblue" d="M760.59,-204.74C769.02,-195.12 778.69,-184.09 786.16,-175.58"/>
<polygon fill="midnightblue" stroke="midnightblue" points="757.83,-202.57 753.87,-212.4 763.09,-207.18 757.83,-202.57"/>
</g>
<!-- Node23 -->
<g id="node17" class="node">
<title>Node23</title>
<g id="a_node17"><a xlink:href="baseParticle_8h.html" target="_top" xlink:title=" ">
<polygon fill="none" stroke="red" points="642,-78.5 642,-108.5 775,-108.5 775,-78.5 642,-78.5"/>
<text text-anchor="start" x="650" y="-96.5" font-family="Arial" font-size="10.00">/home/user/project</text>
<text text-anchor="middle" x="708.5" y="-85.5" font-family="Arial" font-size="10.00">/src/particle/baseParticle.h</text>
</a>
</g>
</g>
<!-- Node14&#45;&gt;Node23 -->
<g id="edge26" class="edge">
<title>Node14&#45;&gt;Node23</title>
<path fill="none" stroke="midnightblue" d="M735.26,-202.48C733.1,-194.11 730.67,-184.64 728.5,-176 722.57,-152.4 715.86,-124.91 711.92,-108.65"/>
<polygon fill="midnightblue" stroke="midnightblue" points="731.92,-203.56 737.81,-212.36 738.7,-201.8 731.92,-203.56"/>
</g>
<!-- Node18&#45;&gt;Node2 -->
<g id="edge17" class="edge">
<title>Node18&#45;&gt;Node2</title>
<path fill="none" stroke="midnightblue" d="M565.07,-136.04C551.13,-107.43 528.01,-59.98 516.48,-36.33"/>
<polygon fill="midnightblue" stroke="midnightblue" points="562.06,-137.85 569.58,-145.3 568.35,-134.78 562.06,-137.85"/>
</g>
<!-- Node18&#45;&gt;Node5 -->
<g id="edge18" class="edge">
<title>Node18&#45;&gt;Node5</title>
<path fill="none" stroke="midnightblue" d="M589.93,-136.41C606.55,-107.85 634.34,-60.09 648.16,-36.33"/>
<polygon fill="midnightblue" stroke="midnightblue" points="586.76,-134.9 584.76,-145.3 592.81,-138.42 586.76,-134.9"/>
</g>
<!-- Node22&#45;&gt;Node23 -->
<g id="edge20" class="edge">
<title>Node22&#45;&gt;Node23</title>
<path fill="none" stroke="midnightblue" d="M770.74,-139.45C756.89,-129.45 740.48,-117.6 727.99,-108.58"/>
<polygon fill="midnightblue" stroke="midnightblue" points="768.82,-142.38 778.97,-145.4 772.91,-136.7 768.82,-142.38"/>
</g>
<!-- Node22&#45;&gt;Node28 -->
<g id="edge25" class="edge">
<title>Node22&#45;&gt;Node28</title>
<path fill="none" stroke="midnightblue" d="M848.44,-141.96C878.24,-131.48 915.57,-118.37 943.44,-108.58"/>
<polygon fill="midnightblue" stroke="midnightblue" points="846.92,-138.78 838.64,-145.4 849.24,-145.38 846.92,-138.78"/>
</g>
<!-- Node23&#45;&gt;Node2 -->
<g id="edge21" class="edge">
<title>Node23&#45;&gt;Node2</title>
<path fill="none" stroke="midnightblue" d="M659,-74.96C625.12,-62.96 580.79,-47.26 549.22,-36.07"/>
<polygon fill="midnightblue" stroke="midnightblue" points="658.11,-78.36 668.71,-78.4 660.45,-71.76 658.11,-78.36"/>
</g>
<!-- Node23&#45;&gt;Node5 -->
<g id="edge24" class="edge">
<title>Node23&#45;&gt;Node5</title>
<path fill="none" stroke="midnightblue" d="M691.82,-69.89C683.67,-58.84 674.12,-45.89 667.01,-36.25"/>
<polygon fill="midnightblue" stroke="midnightblue" points="689.22,-72.26 697.98,-78.23 694.86,-68.11 689.22,-72.26"/>
</g>
<!-- Node23&#45;&gt;Node13 -->
<g id="edge22" class="edge">
<title>Node23&#45;&gt;Node13</title>
<path fill="none" stroke="midnightblue" d="M754.06,-74.65C784.6,-62.69 824.26,-47.16 852.57,-36.07"/>
<polygon fill="midnightblue" stroke="midnightblue" points="752.53,-71.5 744.49,-78.4 755.08,-78.01 752.53,-71.5"/>
</g>
<!-- Node23&#45;&gt;Node24 -->
<g id="edge23" class="edge">
<title>Node23&#45;&gt;Node24</title>
<path fill="none" stroke="midnightblue" d="M785.29,-78.29C839.12,-68.28 912.74,-54.49 977.5,-42 987.42,-40.09 997.88,-38.04 1008.15,-36.02"/>
<polygon fill="midnightblue" stroke="midnightblue" points="784.33,-74.91 775.14,-80.18 785.61,-81.79 784.33,-74.91"/>
</g>
<!-- Node29&#45;&gt;Node14 -->
<g id="edge29" class="edge">
<title>Node29&#45;&gt;Node14</title>
<path fill="none" stroke="midnightblue" d="M916.84,-282.01C877.33,-269.96 824.92,-253.96 787.72,-242.61"/>
<polygon fill="midnightblue" stroke="midnightblue" points="916,-285.42 926.59,-284.99 918.04,-278.72 916,-285.42"/>
</g>
<!-- Node29&#45;&gt;Node24 -->
<g id="edge28" class="edge">
<title>Node29&#45;&gt;Node24</title>
<path fill="none" stroke="midnightblue" d="M985.18,-275.66C1003.83,-240.46 1038.71,-171.28 1059.5,-109 1067.87,-83.92 1073.54,-53.53 1076.38,-36.11"/>
<polygon fill="midnightblue" stroke="midnightblue" points="982,-274.18 980.37,-284.65 988.17,-277.48 982,-274.18"/>
</g>
<!-- Node30&#45;&gt;Node14 -->
<g id="edge35" class="edge">
<title>Node30&#45;&gt;Node14</title>
<path fill="none" stroke="midnightblue" d="M658.74,-274.44C677.88,-263.82 699.59,-251.76 715.97,-242.67"/>
<polygon fill="midnightblue" stroke="midnightblue" points="656.92,-271.45 649.88,-279.36 660.32,-277.57 656.92,-271.45"/>
</g>
<!-- Node30&#45;&gt;Node18 -->
<g id="edge36" class="edge">
<title>Node30&#45;&gt;Node18</title>
<path fill="none" stroke="midnightblue" d="M606.3,-269.34C598.31,-240.42 586.5,-197.7 580.43,-175.72"/>
<polygon fill="midnightblue" stroke="midnightblue" points="603.02,-270.59 609.06,-279.3 609.77,-268.73 603.02,-270.59"/>
</g>
<!-- Node30&#45;&gt;Node22 -->
<g id="edge37" class="edge">
<title>Node30&#45;&gt;Node22</title>
<path fill="none" stroke="midnightblue" d="M627.96,-270.19C637.97,-251.45 653.21,-227.66 672.5,-212 693.08,-195.29 719.91,-183.51 743.51,-175.56"/>
<polygon fill="midnightblue" stroke="midnightblue" points="624.79,-268.7 623.34,-279.2 631.02,-271.9 624.79,-268.7"/>
</g>
<!-- Node30&#45;&gt;Node23 -->
<g id="edge38" class="edge">
<title>Node30&#45;&gt;Node23</title>
<path fill="none" stroke="midnightblue" d="M622.01,-269.24C626.74,-252.16 633.47,-230.5 641.5,-212 658.43,-173.01 684.91,-130.42 698.98,-108.81"/>
<polygon fill="midnightblue" stroke="midnightblue" points="618.54,-268.65 619.32,-279.21 625.3,-270.46 618.54,-268.65"/>
</g>
</g>
</svg>
