<?xml version="1.0" encoding="UTF-8" standalone="no"?>
<!DOCTYPE svg PUBLIC "-//W3C//DTD SVG 1.1//EN"
 "http://www.w3.org/Graphics/SVG/1.1/DTD/svg11.dtd">
<!-- Generated by graphviz version 2.43.0 (0)
 -->
<!-- Title: /home/user/project/src/material/materialUtil.h Pages: 1 -->
<svg width="1531pt" height="375pt"
 viewBox="0.00 0.00 1531.00 375.00" xmlns="http://www.w3.org/2000/svg" xmlns:xlink="http://www.w3.org/1999/xlink">
<g id="graph0" class="graph" transform="scale(1 1) rotate(0) translate(4 371)">
<title>/home/user/project/src/material/materialUtil.h</title>
<!-- Node1 -->
<g id="node1" class="node">
<title>Node1</title>
<g id="a_node1"><a xlink:title=" ">
<polygon fill="#bfbfbf" stroke="black" points="917.5,-336.5 917.5,-366.5 1048.5,-366.5 1048.5,-336.5 917.5,-336.5"/>
<text text-anchor="start" x="925.5" y="-354.5" font-family="Arial" font-size="10.00">/home/user/project</text>
<text text-anchor="middle" x="983" y="-343.5" font-family="Arial" font-size="10.00">/src/material/materialUtil.h</text>
</a>
</g>
</g>
<!-- Node2 -->
<g id="node2" class="node">
<title>Node2</title>
<g id="a_node2"><a xlink:href="point_8h.html" target="_top" xlink:title=" ">
<polygon fill="none" stroke="black" points="1020,-56.5 1020,-75.5 1082,-75.5 1082,-56.5 1020,-56.5"/>
<text text-anchor="middle" x="1051" y="-63.5" font-family="Arial" font-size="10.00">util/point.h</text>
</a>
</g>
</g>
<!-- Node1&#45;&gt;Node2 -->
<g id="edge1" class="edge">
<title>Node1&#45;&gt;Node2</title>
<path fill="none" stroke="midnightblue" d="M1005.47,-336.34C1018.11,-327.33 1033.27,-314.62 1043,-300 1071.89,-256.58 1070.13,-239.55 1078,-188 1083.63,-151.1 1069.24,-108.66 1059.37,-85.12"/>
<polygon fill="midnightblue" stroke="midnightblue" points="1062.47,-83.48 1055.24,-75.73 1056.06,-86.29 1062.47,-83.48"/>
</g>
<!-- Node7 -->
<g id="node7" class="node">
<title>Node7</title>
<g id="a_node7"><a xlink:title=" ">
<polygon fill="none" stroke="#bfbfbf" points="940,-0.5 940,-19.5 984,-19.5 984,-0.5 940,-0.5"/>
<text text-anchor="middle" x="962" y="-7.5" font-family="Arial" font-size="10.00">vector</text>
</a>
</g>
</g>
<!-- Node1&#45;&gt;Node7 -->
<g id="edge71" class="edge">
<title>Node1&#45;&gt;Node7</title>
<path fill="none" stroke="midnightblue" d="M1048.67,-350.11C1192.59,-347.48 1523,-330.99 1523,-235 1523,-235 1523,-235 1523,-121 1523,-87.76 1514.09,-73.78 1486,-56 1396.18,0.85 1114.37,-34.02 1009,-20 1004.21,-19.36 999.17,-18.55 994.24,-17.67"/>
<polygon fill="midnightblue" stroke="midnightblue" points="994.86,-14.23 984.39,-15.83 993.57,-21.11 994.86,-14.23"/>
</g>
<!-- Node8 -->
<g id="node8" class="node">
<title>Node8</title>
<g id="a_node8"><a xlink:href="material_8h.html" target="_top" xlink:title=" ">
<polygon fill="none" stroke="black" points="576,-224.5 576,-243.5 678,-243.5 678,-224.5 576,-224.5"/>
<text text-anchor="middle" x="627" y="-231.5" font-family="Arial" font-size="10.00">mparticle/material.h</text>
</a>
</g>
</g>
<!-- Node1&#45;&gt;Node8 -->
<g id="edge7" class="edge">
<title>Node1&#45;&gt;Node8</title>
<path fill="none" stroke="midnightblue" d="M939.7,-336.45C868.67,-313.41 728.72,-268 662.87,-246.64"/>
<polygon fill="midnightblue" stroke="midnightblue" points="663.92,-243.3 653.33,-243.54 661.76,-249.96 663.92,-243.3"/>
</g>
<!-- Node13 -->
<g id="node12" class="node">
<title>Node13</title>
<g id="a_node12"><a xlink:title=" ">
<polygon fill="none" stroke="#bfbfbf" points="131.5,-0.5 131.5,-19.5 172.5,-19.5 172.5,-0.5 131.5,-0.5"/>
<text text-anchor="middle" x="152" y="-7.5" font-family="Arial" font-size="10.00">string</text>
</a>
</g>
</g>
<!-- Node1&#45;&gt;Node13 -->
<g id="edge70" class="edge">
<title>Node1&#45;&gt;Node13</title>
<path fill="none" stroke="midnightblue" d="M917.36,-349.7C697.38,-346.16 0,-327.63 0,-235 0,-235 0,-235 0,-121 0,-61.62 77.08,-31.03 121.46,-18.34"/>
<polygon fill="midnightblue" stroke="midnightblue" points="122.45,-21.69 131.18,-15.69 120.62,-14.94 122.45,-21.69"/>
</g>
<!-- Node20 -->
<g id="node18" class="node">
<title>Node20</title>
<g id="a_node18"><a xlink:title=" ">
<polygon fill="none" stroke="#bfbfbf" points="28,-168.5 28,-187.5 68,-187.5 68,-168.5 28,-168.5"/>
<text text-anchor="middle" x="48" y="-175.5" font-family="Arial" font-size="10.00">limits</text>
</a>
</g>
</g>
<!-- Node1&#45;&gt;Node20 -->
<g id="edge69" class="edge">
<title>Node1&#45;&gt;Node20</title>
<path fill="none" stroke="midnightblue" d="M917.35,-340.51C768.16,-317.42 392.52,-256.98 82,-188 80.73,-187.72 79.43,-187.42 78.12,-187.11"/>
<polygon fill="midnightblue" stroke="midnightblue" points="78.62,-183.63 68.07,-184.6 76.92,-190.42 78.62,-183.63"/>
</g>
<!-- Node22 -->
<g id="node20" class="node">
<title>Node22</title>
<g id="a_node20"><a xlink:href="fracture_8h.html" target="_top" xlink:title=" ">
<polygon fill="none" stroke="black" points="1245.5,-224.5 1245.5,-243.5 1346.5,-243.5 1346.5,-224.5 1245.5,-224.5"/>
<text text-anchor="middle" x="1296" y="-231.5" font-family="Arial" font-size="10.00">geometry/fracture.h</text>
</a>
</g>
</g>
<!-- Node1&#45;&gt;Node22 -->
<g id="edge34" class="edge">
<title>Node1&#45;&gt;Node22</title>
<path fill="none" stroke="midnightblue" d="M1021.07,-336.45C1083.13,-313.55 1205.05,-268.56 1263.39,-247.03"/>
<polygon fill="midnightblue" stroke="midnightblue" points="1264.68,-250.29 1272.85,-243.54 1262.26,-243.72 1264.68,-250.29"/>
</g>
<!-- Node25 -->
<g id="node23" class="node">
<title>Node25</title>
<g id="a_node23"><a xlink:href="modelData_8h.html" target="_top" xlink:title=" ">
<polygon fill="none" stroke="black" points="932.5,-280.5 932.5,-299.5 1033.5,-299.5 1033.5,-280.5 932.5,-280.5"/>
<text text-anchor="middle" x="983" y="-287.5" font-family="Arial" font-size="10.00">model/modelData.h</text>
</a>
</g>
</g>
<!-- Node1&#45;&gt;Node25 -->
<g id="edge39" class="edge">
<title>Node1&#45;&gt;Node25</title>
<path fill="none" stroke="midnightblue" d="M983,-336.4C983,-328.47 983,-318.46 983,-309.86"/>
<polygon fill="midnightblue" stroke="midnightblue" points="986.5,-309.66 983,-299.66 979.5,-309.66 986.5,-309.66"/>
</g>
<!-- Node3 -->
<g id="node3" class="node">
<title>Node3</title>
<g id="a_node3"><a xlink:title=" ">
<polygon fill="none" stroke="#bfbfbf" points="300,-0.5 300,-19.5 344,-19.5 344,-0.5 300,-0.5"/>
<text text-anchor="middle" x="322" y="-7.5" font-family="Arial" font-size="10.00">cmath</text>
</a>
</g>
</g>
<!-- Node2&#45;&gt;Node3 -->
<g id="edge2" class="edge">
<title>Node2&#45;&gt;Node3</title>
<path fill="none" stroke="midnightblue" d="M1019.68,-62.68C900.37,-53.84 475.01,-22.33 354.2,-13.39"/>
<polygon fill="midnightblue" stroke="midnightblue" points="354.35,-9.89 344.12,-12.64 353.83,-16.87 354.35,-9.89"/>
</g>
<!-- Node4 -->
<g id="node4" class="node">
<title>Node4</title>
<g id="a_node4"><a xlink:title=" ">
<polygon fill="none" stroke="#bfbfbf" points="1018,-0.5 1018,-19.5 1068,-19.5 1068,-0.5 1018,-0.5"/>
<text text-anchor="middle" x="1043" y="-7.5" font-family="Arial" font-size="10.00">iomanip</text>
</a>
</g>
</g>
<!-- Node2&#45;&gt;Node4 -->
<g id="edge3" class="edge">
<title>Node2&#45;&gt;Node4</title>
<path fill="none" stroke="midnightblue" d="M1049.68,-56.08C1048.62,-48.93 1047.09,-38.64 1045.77,-29.69"/>
<polygon fill="midnightblue" stroke="midnightblue" points="1049.22,-29.13 1044.3,-19.75 1042.3,-30.16 1049.22,-29.13"/>
</g>
<!-- Node5 -->
<g id="node5" class="node">
<title>Node5</title>
<g id="a_node5"><a xlink:title=" ">
<polygon fill="none" stroke="#bfbfbf" points="1086,-0.5 1086,-19.5 1138,-19.5 1138,-0.5 1086,-0.5"/>
<text text-anchor="middle" x="1112" y="-7.5" font-family="Arial" font-size="10.00">sstream</text>
</a>
</g>
</g>
<!-- Node2&#45;&gt;Node5 -->
<g id="edge4" class="edge">
<title>Node2&#45;&gt;Node5</title>
<path fill="none" stroke="midnightblue" d="M1060.8,-56.32C1069.82,-48.34 1083.41,-36.31 1094.32,-26.65"/>
<polygon fill="midnightblue" stroke="midnightblue" points="1096.85,-29.08 1102.02,-19.83 1092.21,-23.84 1096.85,-29.08"/>
</g>
<!-- Node6 -->
<g id="node6" class="node">
<title>Node6</title>
<g id="a_node6"><a xlink:title=" ">
<polygon fill="none" stroke="#bfbfbf" points="471,-0.5 471,-19.5 525,-19.5 525,-0.5 471,-0.5"/>
<text text-anchor="middle" x="498" y="-7.5" font-family="Arial" font-size="10.00">iostream</text>
</a>
</g>
</g>
<!-- Node2&#45;&gt;Node6 -->
<g id="edge5" class="edge">
<title>Node2&#45;&gt;Node6</title>
<path fill="none" stroke="midnightblue" d="M1019.92,-62.72C942.24,-56.91 733.41,-40.52 560,-20 551.95,-19.05 543.33,-17.89 535.16,-16.72"/>
<polygon fill="midnightblue" stroke="midnightblue" points="535.52,-13.24 525.12,-15.25 534.51,-20.16 535.52,-13.24"/>
</g>
<!-- Node2&#45;&gt;Node7 -->
<g id="edge6" class="edge">
<title>Node2&#45;&gt;Node7</title>
<path fill="none" stroke="midnightblue" d="M1036.7,-56.32C1022.82,-47.9 1001.51,-34.97 985.2,-25.07"/>
<polygon fill="midnightblue" stroke="midnightblue" points="986.63,-21.85 976.26,-19.65 983,-27.83 986.63,-21.85"/>
</g>
<!-- Node8&#45;&gt;Node2 -->
<g id="edge29" class="edge">
<title>Node8&#45;&gt;Node2</title>
<path fill="none" stroke="midnightblue" d="M678.21,-231.35C732.73,-227.99 820.55,-217.93 890,-188 949.94,-162.16 1008.08,-109.66 1035.17,-83.12"/>
<polygon fill="midnightblue" stroke="midnightblue" points="1037.93,-85.32 1042.54,-75.78 1032.99,-80.36 1037.93,-85.32"/>
</g>
<!-- Node8&#45;&gt;Node7 -->
<g id="edge33" class="edge">
<title>Node8&#45;&gt;Node7</title>
<path fill="none" stroke="midnightblue" d="M629.82,-224.26C637.59,-201.64 661.63,-140.9 704,-112 772.84,-65.04 813.22,-112.77 888,-76 912.08,-64.16 934.45,-42.41 948.15,-27.35"/>
<polygon fill="midnightblue" stroke="midnightblue" points="950.84,-29.59 954.83,-19.77 945.59,-24.96 950.84,-29.59"/>
</g>
<!-- Node9 -->
<g id="node9" class="node">
<title>Node9</title>
<g id="a_node9"><a xlink:href="influenceFn_8h.html" target="_top" xlink:title=" ">
<polygon fill="none" stroke="black" points="482.5,-168.5 482.5,-187.5 557.5,-187.5 557.5,-168.5 482.5,-168.5"/>
<text text-anchor="middle" x="520" y="-175.5" font-family="Arial" font-size="10.00">influenceFn.h</text>
</a>
</g>
</g>
<!-- Node8&#45;&gt;Node9 -->
<g id="edge8" class="edge">
<title>Node8&#45;&gt;Node9</title>
<path fill="none" stroke="midnightblue" d="M609.81,-224.32C592.65,-215.66 566.05,-202.24 546.25,-192.25"/>
<polygon fill="midnightblue" stroke="midnightblue" points="547.65,-189.04 537.15,-187.65 544.5,-195.28 547.65,-189.04"/>
</g>
<!-- Node8&#45;&gt;Node13 -->
<g id="edge32" class="edge">
<title>Node8&#45;&gt;Node13</title>
<path fill="none" stroke="midnightblue" d="M575.81,-230.1C511.72,-225.49 399.03,-214.19 306,-188 245.84,-171.06 221.09,-176.3 177,-132 149.98,-104.85 148.49,-56.7 150.06,-30.06"/>
<polygon fill="midnightblue" stroke="midnightblue" points="153.58,-30.03 150.89,-19.78 146.6,-29.47 153.58,-30.03"/>
</g>
<!-- Node18 -->
<g id="node16" class="node">
<title>Node18</title>
<g id="a_node16"><a xlink:href="materialDeck_8h.html" target="_top" xlink:title=" ">
<polygon fill="none" stroke="black" points="315,-168.5 315,-187.5 443,-187.5 443,-168.5 315,-168.5"/>
<text text-anchor="middle" x="379" y="-175.5" font-family="Arial" font-size="10.00">inp/decks/materialDeck.h</text>
</a>
</g>
</g>
<!-- Node8&#45;&gt;Node18 -->
<g id="edge21" class="edge">
<title>Node8&#45;&gt;Node18</title>
<path fill="none" stroke="midnightblue" d="M587.7,-224.44C544.44,-215.02 474.83,-199.87 428.03,-189.68"/>
<polygon fill="midnightblue" stroke="midnightblue" points="428.63,-186.22 418.11,-187.52 427.14,-193.06 428.63,-186.22"/>
</g>
<!-- Node19 -->
<g id="node17" class="node">
<title>Node19</title>
<g id="a_node17"><a xlink:href="function_8h.html" target="_top" xlink:title=" ">
<polygon fill="none" stroke="black" points="821.5,-112.5 821.5,-131.5 896.5,-131.5 896.5,-112.5 821.5,-112.5"/>
<text text-anchor="middle" x="859" y="-119.5" font-family="Arial" font-size="10.00">util/function.h</text>
</a>
</g>
</g>
<!-- Node8&#45;&gt;Node19 -->
<g id="edge26" class="edge">
<title>Node8&#45;&gt;Node19</title>
<path fill="none" stroke="midnightblue" d="M640.81,-224.31C662.05,-211.15 704.25,-185.81 742,-168 768.87,-155.32 800.35,-143.37 823.88,-134.98"/>
<polygon fill="midnightblue" stroke="midnightblue" points="825.18,-138.23 833.44,-131.6 822.85,-131.63 825.18,-138.23"/>
</g>
<!-- Node8&#45;&gt;Node20 -->
<g id="edge30" class="edge">
<title>Node8&#45;&gt;Node20</title>
<path fill="none" stroke="midnightblue" d="M575.9,-231.78C478.95,-228.81 261.87,-218.98 82,-188 80.71,-187.78 79.41,-187.53 78.09,-187.26"/>
<polygon fill="midnightblue" stroke="midnightblue" points="78.54,-183.78 68.01,-184.92 76.96,-190.59 78.54,-183.78"/>
</g>
<!-- Node21 -->
<g id="node19" class="node">
<title>Node21</title>
<g id="a_node19"><a xlink:title=" ">
<polygon fill="none" stroke="#bfbfbf" points="569,-0.5 569,-19.5 621,-19.5 621,-0.5 569,-0.5"/>
<text text-anchor="middle" x="595" y="-7.5" font-family="Arial" font-size="10.00">memory</text>
</a>
</g>
</g>
<!-- Node8&#45;&gt;Node21 -->
<g id="edge31" class="edge">
<title>Node8&#45;&gt;Node21</title>
<path fill="none" stroke="midnightblue" d="M621.34,-224.28C606.77,-201.24 568.18,-136.35 555,-76 553.1,-67.32 551.84,-64.31 555,-56 559.34,-44.6 568.03,-34.24 576.21,-26.34"/>
<polygon fill="midnightblue" stroke="midnightblue" points="578.64,-28.86 583.73,-19.57 573.96,-23.66 578.64,-28.86"/>
</g>
<!-- Node9&#45;&gt;Node6 -->
<g id="edge19" class="edge">
<title>Node9&#45;&gt;Node6</title>
<path fill="none" stroke="midnightblue" d="M511.25,-168.29C503.44,-159.84 492.55,-146.25 488,-132 476.82,-97 485.5,-53.57 492.18,-29.41"/>
<polygon fill="midnightblue" stroke="midnightblue" points="495.55,-30.35 495.03,-19.77 488.84,-28.37 495.55,-30.35"/>
</g>
<!-- Node9&#45;&gt;Node7 -->
<g id="edge20" class="edge">
<title>Node9&#45;&gt;Node7</title>
<path fill="none" stroke="midnightblue" d="M531.51,-168.47C551.21,-154.33 593.13,-126.18 633,-112 726.76,-78.65 760.57,-110.28 854,-76 887.47,-63.72 922.07,-40.75 942.81,-25.67"/>
<polygon fill="midnightblue" stroke="midnightblue" points="945.12,-28.32 951.06,-19.55 940.95,-22.69 945.12,-28.32"/>
</g>
<!-- Node10 -->
<g id="node10" class="node">
<title>Node10</title>
<g id="a_node10"><a xlink:href="io_8h.html" target="_top" xlink:title=" ">
<polygon fill="none" stroke="black" points="355,-112.5 355,-131.5 403,-131.5 403,-112.5 355,-112.5"/>
<text text-anchor="middle" x="379" y="-119.5" font-family="Arial" font-size="10.00">util/io.h</text>
</a>
</g>
</g>
<!-- Node9&#45;&gt;Node10 -->
<g id="edge9" class="edge">
<title>Node9&#45;&gt;Node10</title>
<path fill="none" stroke="midnightblue" d="M497.66,-168.44C474.25,-159.48 437.26,-145.31 410.81,-135.18"/>
<polygon fill="midnightblue" stroke="midnightblue" points="411.83,-131.82 401.24,-131.52 409.32,-138.36 411.83,-131.82"/>
</g>
<!-- Node17 -->
<g id="node15" class="node">
<title>Node17</title>
<g id="a_node15"><a xlink:title=" ">
<polygon fill="none" stroke="#bfbfbf" points="497,-112.5 497,-131.5 543,-131.5 543,-112.5 497,-112.5"/>
<text text-anchor="middle" x="520" y="-119.5" font-family="Arial" font-size="10.00">cstring</text>
</a>
</g>
</g>
<!-- Node9&#45;&gt;Node17 -->
<g id="edge18" class="edge">
<title>Node9&#45;&gt;Node17</title>
<path fill="none" stroke="midnightblue" d="M520,-168.08C520,-161.01 520,-150.86 520,-141.99"/>
<polygon fill="midnightblue" stroke="midnightblue" points="523.5,-141.75 520,-131.75 516.5,-141.75 523.5,-141.75"/>
</g>
<!-- Node10&#45;&gt;Node2 -->
<g id="edge10" class="edge">
<title>Node10&#45;&gt;Node2</title>
<path fill="none" stroke="midnightblue" d="M403.24,-118.98C425.33,-117.14 458.85,-114.37 488,-112 683.27,-96.13 916.68,-77.62 1009.75,-70.26"/>
<polygon fill="midnightblue" stroke="midnightblue" points="1010.18,-73.74 1019.87,-69.46 1009.63,-66.76 1010.18,-73.74"/>
</g>
<!-- Node10&#45;&gt;Node6 -->
<g id="edge15" class="edge">
<title>Node10&#45;&gt;Node6</title>
<path fill="none" stroke="midnightblue" d="M370,-112.35C357.46,-99.25 337.7,-73.98 351,-56 376.03,-22.16 426,-12.94 460.69,-10.84"/>
<polygon fill="midnightblue" stroke="midnightblue" points="461.08,-14.33 470.92,-10.4 460.77,-7.34 461.08,-14.33"/>
</g>
<!-- Node10&#45;&gt;Node7 -->
<g id="edge16" class="edge">
<title>Node10&#45;&gt;Node7</title>
<path fill="none" stroke="midnightblue" d="M403.02,-117.75C458.08,-110.14 591.98,-90.7 635,-76 653.06,-69.83 654.88,-61.99 673,-56 762.94,-26.25 875.28,-15.96 929.6,-12.57"/>
<polygon fill="midnightblue" stroke="midnightblue" points="929.89,-16.06 939.67,-11.98 929.48,-9.07 929.89,-16.06"/>
</g>
<!-- Node11 -->
<g id="node11" class="node">
<title>Node11</title>
<g id="a_node11"><a xlink:href="parallelUtil_8h.html" target="_top" xlink:title=" ">
<polygon fill="none" stroke="red" points="360.5,-56.5 360.5,-75.5 431.5,-75.5 431.5,-56.5 360.5,-56.5"/>
<text text-anchor="middle" x="396" y="-63.5" font-family="Arial" font-size="10.00">parallelUtil.h</text>
</a>
</g>
</g>
<!-- Node10&#45;&gt;Node11 -->
<g id="edge11" class="edge">
<title>Node10&#45;&gt;Node11</title>
<path fill="none" stroke="midnightblue" d="M381.81,-112.08C384.08,-104.85 387.37,-94.41 390.21,-85.4"/>
<polygon fill="midnightblue" stroke="midnightblue" points="393.58,-86.34 393.25,-75.75 386.9,-84.24 393.58,-86.34"/>
</g>
<!-- Node15 -->
<g id="node13" class="node">
<title>Node15</title>
<g id="a_node13"><a xlink:title=" ">
<polygon fill="none" stroke="#bfbfbf" points="180,-56.5 180,-75.5 230,-75.5 230,-56.5 180,-56.5"/>
<text text-anchor="middle" x="205" y="-63.5" font-family="Arial" font-size="10.00">fstream</text>
</a>
</g>
</g>
<!-- Node10&#45;&gt;Node15 -->
<g id="edge14" class="edge">
<title>Node10&#45;&gt;Node15</title>
<path fill="none" stroke="midnightblue" d="M354.81,-113.49C324.89,-104.21 273.76,-88.34 239.67,-77.76"/>
<polygon fill="midnightblue" stroke="midnightblue" points="240.7,-74.42 230.12,-74.79 238.63,-81.1 240.7,-74.42"/>
</g>
<!-- Node16 -->
<g id="node14" class="node">
<title>Node16</title>
<g id="a_node14"><a xlink:title=" ">
<polygon fill="none" stroke="#bfbfbf" points="248,-56.5 248,-75.5 304,-75.5 304,-56.5 248,-56.5"/>
<text text-anchor="middle" x="276" y="-63.5" font-family="Arial" font-size="10.00">algorithm</text>
</a>
</g>
</g>
<!-- Node10&#45;&gt;Node16 -->
<g id="edge17" class="edge">
<title>Node10&#45;&gt;Node16</title>
<path fill="none" stroke="midnightblue" d="M362.45,-112.32C346.01,-103.7 320.57,-90.36 301.53,-80.39"/>
<polygon fill="midnightblue" stroke="midnightblue" points="302.99,-77.2 292.51,-75.65 299.74,-83.4 302.99,-77.2"/>
</g>
<!-- Node11&#45;&gt;Node7 -->
<g id="edge13" class="edge">
<title>Node11&#45;&gt;Node7</title>
<path fill="none" stroke="midnightblue" d="M431.84,-61.58C534.89,-51.75 830.98,-23.5 929.6,-14.09"/>
<polygon fill="midnightblue" stroke="midnightblue" points="930.22,-17.55 939.84,-13.11 929.55,-10.58 930.22,-17.55"/>
</g>
<!-- Node11&#45;&gt;Node13 -->
<g id="edge12" class="edge">
<title>Node11&#45;&gt;Node13</title>
<path fill="none" stroke="midnightblue" d="M360.26,-57.09C312.24,-46.46 227.73,-27.76 182.53,-17.76"/>
<polygon fill="midnightblue" stroke="midnightblue" points="183.24,-14.33 172.72,-15.59 181.73,-21.16 183.24,-14.33"/>
</g>
<!-- Node18&#45;&gt;Node3 -->
<g id="edge23" class="edge">
<title>Node18&#45;&gt;Node3</title>
<path fill="none" stroke="midnightblue" d="M329.42,-168.44C279.64,-156.92 205.51,-131.12 171,-76 142.52,-30.51 237.35,-16.78 289.71,-12.69"/>
<polygon fill="midnightblue" stroke="midnightblue" points="290.14,-16.17 299.87,-11.98 289.65,-9.19 290.14,-16.17"/>
</g>
<!-- Node18&#45;&gt;Node7 -->
<g id="edge25" class="edge">
<title>Node18&#45;&gt;Node7</title>
<path fill="none" stroke="midnightblue" d="M389.67,-168.46C408.35,-154.03 448.72,-125.14 488,-112 629.18,-64.79 679.99,-123.71 821,-76 837.25,-70.5 838.71,-63.76 854,-56 878.97,-43.32 908.37,-31.24 930.19,-22.8"/>
<polygon fill="midnightblue" stroke="midnightblue" points="931.55,-26.03 939.64,-19.19 929.05,-19.49 931.55,-26.03"/>
</g>
<!-- Node18&#45;&gt;Node10 -->
<g id="edge22" class="edge">
<title>Node18&#45;&gt;Node10</title>
<path fill="none" stroke="midnightblue" d="M379,-168.08C379,-161.01 379,-150.86 379,-141.99"/>
<polygon fill="midnightblue" stroke="midnightblue" points="382.5,-141.75 379,-131.75 375.5,-141.75 382.5,-141.75"/>
</g>
<!-- Node18&#45;&gt;Node13 -->
<g id="edge24" class="edge">
<title>Node18&#45;&gt;Node13</title>
<path fill="none" stroke="midnightblue" d="M314.82,-171.26C279.41,-165.6 236.05,-154.35 203,-132 177.45,-114.72 173.79,-104.5 162,-76 155.92,-61.31 153.5,-43.38 152.55,-30.07"/>
<polygon fill="midnightblue" stroke="midnightblue" points="156.03,-29.58 152.04,-19.76 149.04,-29.92 156.03,-29.58"/>
</g>
<!-- Node19&#45;&gt;Node2 -->
<g id="edge27" class="edge">
<title>Node19&#45;&gt;Node2</title>
<path fill="none" stroke="midnightblue" d="M889.42,-112.44C922.28,-103.2 974.78,-88.44 1010.97,-78.26"/>
<polygon fill="midnightblue" stroke="midnightblue" points="1012.04,-81.59 1020.72,-75.52 1010.15,-74.85 1012.04,-81.59"/>
</g>
<!-- Node19&#45;&gt;Node7 -->
<g id="edge28" class="edge">
<title>Node19&#45;&gt;Node7</title>
<path fill="none" stroke="midnightblue" d="M889.92,-112.42C918.84,-103.7 958.92,-89.57 968,-76 977.14,-62.34 974,-43.29 969.56,-29.35"/>
<polygon fill="midnightblue" stroke="midnightblue" points="972.81,-28.05 966.09,-19.86 966.23,-30.45 972.81,-28.05"/>
</g>
<!-- Node22&#45;&gt;Node2 -->
<g id="edge35" class="edge">
<title>Node22&#45;&gt;Node2</title>
<path fill="none" stroke="midnightblue" d="M1270.84,-224.38C1249.33,-216.47 1217.98,-203.62 1193,-188 1142.45,-156.39 1091.18,-107.68 1066.36,-82.8"/>
<polygon fill="midnightblue" stroke="midnightblue" points="1068.78,-80.27 1059.26,-75.61 1063.8,-85.19 1068.78,-80.27"/>
</g>
<!-- Node22&#45;&gt;Node7 -->
<g id="edge38" class="edge">
<title>Node22&#45;&gt;Node7</title>
<path fill="none" stroke="midnightblue" d="M1303.86,-224.3C1316.59,-210.67 1343.01,-184.17 1370,-168 1409.09,-144.58 1440.04,-169.45 1466,-132 1485.24,-104.24 1488.93,-80.8 1466,-56 1431.43,-18.6 1059.48,-26.8 1009,-20 1004.21,-19.35 999.17,-18.54 994.24,-17.66"/>
<polygon fill="midnightblue" stroke="midnightblue" points="994.86,-14.22 984.39,-15.81 993.57,-21.1 994.86,-14.22"/>
</g>
<!-- Node23 -->
<g id="node21" class="node">
<title>Node23</title>
<g id="a_node21"><a xlink:title=" ">
<polygon fill="none" stroke="#bfbfbf" points="1378.5,-168.5 1378.5,-187.5 1427.5,-187.5 1427.5,-168.5 1378.5,-168.5"/>
<text text-anchor="middle" x="1403" y="-175.5" font-family="Arial" font-size="10.00">stdint.h</text>
</a>
</g>
</g>
<!-- Node22&#45;&gt;Node23 -->
<g id="edge36" class="edge">
<title>Node22&#45;&gt;Node23</title>
<path fill="none" stroke="midnightblue" d="M1313.19,-224.32C1330.35,-215.66 1356.95,-202.24 1376.75,-192.25"/>
<polygon fill="midnightblue" stroke="midnightblue" points="1378.5,-195.28 1385.85,-187.65 1375.35,-189.04 1378.5,-195.28"/>
</g>
<!-- Node24 -->
<g id="node22" class="node">
<title>Node24</title>
<g id="a_node22"><a xlink:title=" ">
<polygon fill="none" stroke="#bfbfbf" points="1445.5,-168.5 1445.5,-187.5 1494.5,-187.5 1494.5,-168.5 1445.5,-168.5"/>
<text text-anchor="middle" x="1470" y="-175.5" font-family="Arial" font-size="10.00">string.h</text>
</a>
</g>
</g>
<!-- Node22&#45;&gt;Node24 -->
<g id="edge37" class="edge">
<title>Node22&#45;&gt;Node24</title>
<path fill="none" stroke="midnightblue" d="M1323.57,-224.44C1353.97,-215.01 1402.9,-199.82 1435.74,-189.63"/>
<polygon fill="midnightblue" stroke="midnightblue" points="1436.86,-192.95 1445.37,-186.64 1434.78,-186.26 1436.86,-192.95"/>
</g>
<!-- Node25&#45;&gt;Node7 -->
<g id="edge68" class="edge">
<title>Node25&#45;&gt;Node7</title>
<path fill="none" stroke="midnightblue" d="M995.17,-280.34C1016.18,-264.65 1058.82,-229.26 1078,-188 1102.85,-134.54 1125.14,-104.06 1091,-56 1079.58,-39.92 1028.56,-25.74 994.21,-17.78"/>
<polygon fill="midnightblue" stroke="midnightblue" points="994.67,-14.3 984.15,-15.51 993.13,-21.13 994.67,-14.3"/>
</g>
<!-- Node25&#45;&gt;Node8 -->
<g id="edge40" class="edge">
<title>Node25&#45;&gt;Node8</title>
<path fill="none" stroke="midnightblue" d="M932.37,-281.32C868.1,-271.57 757.3,-254.76 688.31,-244.3"/>
<polygon fill="midnightblue" stroke="midnightblue" points="688.44,-240.78 678.03,-242.74 687.39,-247.7 688.44,-240.78"/>
</g>
<!-- Node25&#45;&gt;Node22 -->
<g id="edge67" class="edge">
<title>Node25&#45;&gt;Node22</title>
<path fill="none" stroke="midnightblue" d="M1032.6,-280.44C1088,-270.89 1177.64,-255.42 1236.71,-245.23"/>
<polygon fill="midnightblue" stroke="midnightblue" points="1237.38,-248.67 1246.64,-243.52 1236.19,-241.77 1237.38,-248.67"/>
</g>
<!-- Node26 -->
<g id="node24" class="node">
<title>Node26</title>
<g id="a_node24"><a xlink:href="input_8h.html" target="_top" xlink:title=" ">
<polygon fill="none" stroke="black" points="564,-56.5 564,-75.5 626,-75.5 626,-56.5 564,-56.5"/>
<text text-anchor="middle" x="595" y="-63.5" font-family="Arial" font-size="10.00">inp/input.h</text>
</a>
</g>
</g>
<!-- Node25&#45;&gt;Node26 -->
<g id="edge41" class="edge">
<title>Node25&#45;&gt;Node26</title>
<path fill="none" stroke="midnightblue" d="M955.75,-280.49C909.75,-265.51 814.64,-231.82 742,-188 689.9,-156.57 636.72,-107.78 610.95,-82.84"/>
<polygon fill="midnightblue" stroke="midnightblue" points="613.18,-80.13 603.58,-75.64 608.29,-85.13 613.18,-80.13"/>
</g>
<!-- Node27 -->
<g id="node25" class="node">
<title>Node27</title>
<g id="a_node25"><a xlink:href="particleFLoading_8h.html" target="_top" xlink:title=" ">
<polygon fill="none" stroke="black" points="751,-168.5 751,-187.5 881,-187.5 881,-168.5 751,-168.5"/>
<text text-anchor="middle" x="816" y="-175.5" font-family="Arial" font-size="10.00">loading/particleFLoading.h</text>
</a>
</g>
</g>
<!-- Node25&#45;&gt;Node27 -->
<g id="edge45" class="edge">
<title>Node25&#45;&gt;Node27</title>
<path fill="none" stroke="midnightblue" d="M969.9,-280.37C941.24,-261.49 872.76,-216.38 837.61,-193.24"/>
<polygon fill="midnightblue" stroke="midnightblue" points="839.32,-190.17 829.04,-187.59 835.47,-196.02 839.32,-190.17"/>
</g>
<!-- Node38 -->
<g id="node28" class="node">
<title>Node38</title>
<g id="a_node28"><a xlink:href="particleULoading_8h.html" target="_top" xlink:title=" ">
<polygon fill="none" stroke="black" points="937.5,-168.5 937.5,-187.5 1068.5,-187.5 1068.5,-168.5 937.5,-168.5"/>
<text text-anchor="middle" x="1003" y="-175.5" font-family="Arial" font-size="10.00">loading/particleULoading.h</text>
</a>
</g>
</g>
<!-- Node25&#45;&gt;Node38 -->
<g id="edge52" class="edge">
<title>Node25&#45;&gt;Node38</title>
<path fill="none" stroke="midnightblue" d="M984.57,-280.37C987.8,-262.62 995.24,-221.67 999.62,-197.6"/>
<polygon fill="midnightblue" stroke="midnightblue" points="1003.09,-198.06 1001.44,-187.59 996.21,-196.8 1003.09,-198.06"/>
</g>
<!-- Node39 -->
<g id="node29" class="node">
<title>Node39</title>
<g id="a_node29"><a xlink:href="nsearch_8h.html" target="_top" xlink:title=" ">
<polygon fill="none" stroke="black" points="1201.5,-168.5 1201.5,-187.5 1298.5,-187.5 1298.5,-168.5 1201.5,-168.5"/>
<text text-anchor="middle" x="1250" y="-175.5" font-family="Arial" font-size="10.00">nsearch/nsearch.h</text>
</a>
</g>
</g>
<!-- Node25&#45;&gt;Node39 -->
<g id="edge55" class="edge">
<title>Node25&#45;&gt;Node39</title>
<path fill="none" stroke="midnightblue" d="M1003.95,-280.37C1050.94,-261.01 1164.89,-214.06 1219.64,-191.51"/>
<polygon fill="midnightblue" stroke="midnightblue" points="1221.23,-194.64 1229.15,-187.59 1218.57,-188.16 1221.23,-194.64"/>
</g>
<!-- Node26&#45;&gt;Node7 -->
<g id="edge43" class="edge">
<title>Node26&#45;&gt;Node7</title>
<path fill="none" stroke="midnightblue" d="M626.43,-58.47C630.97,-57.6 635.6,-56.75 640,-56 745.56,-38.08 871.48,-22.01 929.63,-14.89"/>
<polygon fill="midnightblue" stroke="midnightblue" points="930.18,-18.35 939.68,-13.66 929.33,-11.4 930.18,-18.35"/>
</g>
<!-- Node26&#45;&gt;Node13 -->
<g id="edge42" class="edge">
<title>Node26&#45;&gt;Node13</title>
<path fill="none" stroke="midnightblue" d="M563.85,-61.2C482.42,-51.28 263.95,-24.65 182.86,-14.76"/>
<polygon fill="midnightblue" stroke="midnightblue" points="183.14,-11.27 172.79,-13.53 182.29,-18.22 183.14,-11.27"/>
</g>
<!-- Node26&#45;&gt;Node21 -->
<g id="edge44" class="edge">
<title>Node26&#45;&gt;Node21</title>
<path fill="none" stroke="midnightblue" d="M595,-56.08C595,-49.01 595,-38.86 595,-29.99"/>
<polygon fill="midnightblue" stroke="midnightblue" points="598.5,-29.75 595,-19.75 591.5,-29.75 598.5,-29.75"/>
</g>
<!-- Node27&#45;&gt;Node2 -->
<g id="edge51" class="edge">
<title>Node27&#45;&gt;Node2</title>
<path fill="none" stroke="midnightblue" d="M833.11,-168.37C858.34,-155.71 907.05,-131.5 949,-112 973.29,-100.71 1001.11,-88.48 1021.56,-79.62"/>
<polygon fill="midnightblue" stroke="midnightblue" points="1023.17,-82.74 1030.96,-75.57 1020.39,-76.32 1023.17,-82.74"/>
</g>
<!-- Node28 -->
<g id="node26" class="node">
<title>Node28</title>
<g id="a_node26"><a xlink:href="particleLoading_8h.html" target="_top" xlink:title=" ">
<polygon fill="none" stroke="black" points="713,-112.5 713,-131.5 803,-131.5 803,-112.5 713,-112.5"/>
<text text-anchor="middle" x="758" y="-119.5" font-family="Arial" font-size="10.00">particleLoading.h</text>
</a>
</g>
</g>
<!-- Node27&#45;&gt;Node28 -->
<g id="edge46" class="edge">
<title>Node27&#45;&gt;Node28</title>
<path fill="none" stroke="midnightblue" d="M806.68,-168.32C798.11,-160.34 785.19,-148.31 774.81,-138.65"/>
<polygon fill="midnightblue" stroke="midnightblue" points="777.19,-136.09 767.49,-131.83 772.42,-141.21 777.19,-136.09"/>
</g>
<!-- Node28&#45;&gt;Node7 -->
<g id="edge48" class="edge">
<title>Node28&#45;&gt;Node7</title>
<path fill="none" stroke="midnightblue" d="M803.12,-113.57C847.29,-105.55 910.69,-91.76 930,-76 944.44,-64.21 952.89,-44.28 957.44,-29.59"/>
<polygon fill="midnightblue" stroke="midnightblue" points="960.91,-30.17 960.2,-19.6 954.16,-28.31 960.91,-30.17"/>
</g>
<!-- Node28&#45;&gt;Node13 -->
<g id="edge47" class="edge">
<title>Node28&#45;&gt;Node13</title>
<path fill="none" stroke="midnightblue" d="M718.95,-112.41C659.08,-99.37 540.93,-74.19 440,-56 346.58,-39.16 235.44,-22.84 182.7,-15.32"/>
<polygon fill="midnightblue" stroke="midnightblue" points="183.05,-11.83 172.66,-13.89 182.07,-18.76 183.05,-11.83"/>
</g>
<!-- Node29 -->
<g id="node27" class="node">
<title>Node29</title>
<g id="a_node27"><a xlink:href="particleDeck_8h.html" target="_top" xlink:title=" ">
<polygon fill="none" stroke="red" points="682,-56.5 682,-75.5 812,-75.5 812,-56.5 682,-56.5"/>
<text text-anchor="middle" x="747" y="-63.5" font-family="Arial" font-size="10.00">inp/pdecks/particleDeck.h</text>
</a>
</g>
</g>
<!-- Node28&#45;&gt;Node29 -->
<g id="edge49" class="edge">
<title>Node28&#45;&gt;Node29</title>
<path fill="none" stroke="midnightblue" d="M756.18,-112.08C754.73,-104.93 752.63,-94.64 750.81,-85.69"/>
<polygon fill="midnightblue" stroke="midnightblue" points="754.21,-84.85 748.78,-75.75 747.35,-86.25 754.21,-84.85"/>
</g>
<!-- Node29&#45;&gt;Node21 -->
<g id="edge50" class="edge">
<title>Node29&#45;&gt;Node21</title>
<path fill="none" stroke="midnightblue" d="M722.92,-56.44C697.46,-47.4 657.11,-33.06 628.54,-22.92"/>
<polygon fill="midnightblue" stroke="midnightblue" points="629.57,-19.57 618.97,-19.52 627.22,-26.16 629.57,-19.57"/>
</g>
<!-- Node38&#45;&gt;Node2 -->
<g id="edge54" class="edge">
<title>Node38&#45;&gt;Node2</title>
<path fill="none" stroke="midnightblue" d="M1005.33,-168.38C1008.87,-155.73 1016.16,-131.54 1025,-112 1029.28,-102.55 1034.96,-92.51 1039.92,-84.31"/>
<polygon fill="midnightblue" stroke="midnightblue" points="1042.98,-86.03 1045.29,-75.69 1037.03,-82.33 1042.98,-86.03"/>
</g>
<!-- Node38&#45;&gt;Node28 -->
<g id="edge53" class="edge">
<title>Node38&#45;&gt;Node28</title>
<path fill="none" stroke="midnightblue" d="M964.18,-168.44C921.44,-159.02 852.67,-143.87 806.43,-133.68"/>
<polygon fill="midnightblue" stroke="midnightblue" points="807.16,-130.25 796.64,-131.52 805.65,-137.09 807.16,-130.25"/>
</g>
<!-- Node39&#45;&gt;Node2 -->
<g id="edge56" class="edge">
<title>Node39&#45;&gt;Node2</title>
<path fill="none" stroke="midnightblue" d="M1234.38,-168.37C1199.87,-149.29 1116.89,-103.42 1075.43,-80.51"/>
<polygon fill="midnightblue" stroke="midnightblue" points="1076.99,-77.37 1066.54,-75.59 1073.6,-83.49 1076.99,-77.37"/>
</g>
<!-- Node39&#45;&gt;Node7 -->
<g id="edge63" class="edge">
<title>Node39&#45;&gt;Node7</title>
<path fill="none" stroke="midnightblue" d="M1281.81,-168.38C1299.95,-161.66 1321.16,-150.31 1332,-132 1341.36,-116.18 1343.42,-73.53 1326,-56 1276.03,-5.71 1079.09,-30.67 1009,-20 1004.22,-19.27 999.19,-18.41 994.26,-17.51"/>
<polygon fill="midnightblue" stroke="midnightblue" points="994.89,-14.07 984.41,-15.65 993.59,-20.95 994.89,-14.07"/>
</g>
<!-- Node39&#45;&gt;Node13 -->
<g id="edge62" class="edge">
<title>Node39&#45;&gt;Node13</title>
<path fill="none" stroke="midnightblue" d="M1201.44,-174.42C1166.99,-172.6 1119.66,-170.11 1078,-168 752.69,-151.49 666.5,-190.13 346,-132 265.65,-117.43 228.01,-134.47 171,-76 159.08,-63.78 154.57,-44.51 152.9,-30.12"/>
<polygon fill="midnightblue" stroke="midnightblue" points="156.36,-29.55 152.08,-19.86 149.39,-30.1 156.36,-29.55"/>
</g>
<!-- Node40 -->
<g id="node30" class="node">
<title>Node40</title>
<g id="a_node30"><a xlink:href="methods_8h.html" target="_top" xlink:title=" ">
<polygon fill="none" stroke="black" points="1379,-112.5 1379,-131.5 1457,-131.5 1457,-112.5 1379,-112.5"/>
<text text-anchor="middle" x="1418" y="-119.5" font-family="Arial" font-size="10.00">util/methods.h</text>
</a>
</g>
</g>
<!-- Node39&#45;&gt;Node40 -->
<g id="edge57" class="edge">
<title>Node39&#45;&gt;Node40</title>
<path fill="none" stroke="midnightblue" d="M1276.62,-168.44C1305.01,-159.32 1350.14,-144.81 1381.75,-134.65"/>
<polygon fill="midnightblue" stroke="midnightblue" points="1383.06,-137.91 1391.5,-131.52 1380.91,-131.24 1383.06,-137.91"/>
</g>
<!-- Node42 -->
<g id="node32" class="node">
<title>Node42</title>
<g id="a_node32"><a xlink:title=" ">
<polygon fill="none" stroke="#bfbfbf" points="1277,-112.5 1277,-131.5 1323,-131.5 1323,-112.5 1277,-112.5"/>
<text text-anchor="middle" x="1300" y="-119.5" font-family="Arial" font-size="10.00">cstdint</text>
</a>
</g>
</g>
<!-- Node39&#45;&gt;Node42 -->
<g id="edge61" class="edge">
<title>Node39&#45;&gt;Node42</title>
<path fill="none" stroke="midnightblue" d="M1258.26,-168.08C1265.46,-160.3 1276.11,-148.8 1284.85,-139.37"/>
<polygon fill="midnightblue" stroke="midnightblue" points="1287.67,-141.47 1291.9,-131.75 1282.53,-136.71 1287.67,-141.47"/>
</g>
<!-- Node43 -->
<g id="node33" class="node">
<title>Node43</title>
<g id="a_node33"><a xlink:href="nflannSetup_8h.html" target="_top" xlink:title=" ">
<polygon fill="none" stroke="black" points="1181.5,-112.5 1181.5,-131.5 1258.5,-131.5 1258.5,-112.5 1181.5,-112.5"/>
<text text-anchor="middle" x="1220" y="-119.5" font-family="Arial" font-size="10.00">nflannSetup.h</text>
</a>
</g>
</g>
<!-- Node39&#45;&gt;Node43 -->
<g id="edge64" class="edge">
<title>Node39&#45;&gt;Node43</title>
<path fill="none" stroke="midnightblue" d="M1245.05,-168.08C1240.9,-160.61 1234.85,-149.72 1229.73,-140.52"/>
<polygon fill="midnightblue" stroke="midnightblue" points="1232.78,-138.79 1224.86,-131.75 1226.66,-142.19 1232.78,-138.79"/>
</g>
<!-- Node40&#45;&gt;Node2 -->
<g id="edge58" class="edge">
<title>Node40&#45;&gt;Node2</title>
<path fill="none" stroke="midnightblue" d="M1378.72,-115.22C1308.75,-104.93 1163.21,-83.51 1092.01,-73.03"/>
<polygon fill="midnightblue" stroke="midnightblue" points="1092.47,-69.56 1082.06,-71.57 1091.45,-76.49 1092.47,-69.56"/>
</g>
<!-- Node40&#45;&gt;Node7 -->
<g id="edge59" class="edge">
<title>Node40&#45;&gt;Node7</title>
<path fill="none" stroke="midnightblue" d="M1413.14,-112.41C1404.4,-97.92 1384.57,-68.93 1359,-56 1289.22,-20.72 1086.36,-31.36 1009,-20 1004.22,-19.3 999.18,-18.45 994.25,-17.56"/>
<polygon fill="midnightblue" stroke="midnightblue" points="994.88,-14.11 984.41,-15.7 993.58,-20.99 994.88,-14.11"/>
</g>
<!-- Node41 -->
<g id="node31" class="node">
<title>Node41</title>
<g id="a_node31"><a xlink:title=" ">
<polygon fill="none" stroke="#bfbfbf" points="1411,-56.5 1411,-75.5 1457,-75.5 1457,-56.5 1411,-56.5"/>
<text text-anchor="middle" x="1434" y="-63.5" font-family="Arial" font-size="10.00">chrono</text>
</a>
</g>
</g>
<!-- Node40&#45;&gt;Node41 -->
<g id="edge60" class="edge">
<title>Node40&#45;&gt;Node41</title>
<path fill="none" stroke="midnightblue" d="M1420.64,-112.08C1422.79,-104.85 1425.88,-94.41 1428.55,-85.4"/>
<polygon fill="midnightblue" stroke="midnightblue" points="1431.92,-86.33 1431.41,-75.75 1425.21,-84.34 1431.92,-86.33"/>
</g>
<!-- Node43&#45;&gt;Node2 -->
<g id="edge65" class="edge">
<title>Node43&#45;&gt;Node2</title>
<path fill="none" stroke="midnightblue" d="M1193.22,-112.44C1164.67,-103.32 1119.27,-88.81 1087.46,-78.65"/>
<polygon fill="midnightblue" stroke="midnightblue" points="1088.24,-75.23 1077.65,-75.52 1086.11,-81.89 1088.24,-75.23"/>
</g>
<!-- Node44 -->
<g id="node34" class="node">
<title>Node44</title>
<g id="a_node34"><a xlink:title=" ">
<polygon fill="none" stroke="#bfbfbf" points="1161,-56.5 1161,-75.5 1317,-75.5 1317,-56.5 1161,-56.5"/>
<text text-anchor="middle" x="1239" y="-63.5" font-family="Arial" font-size="10.00">nanoflann/include/nanoflann.hpp</text>
</a>
</g>
</g>
<!-- Node43&#45;&gt;Node44 -->
<g id="edge66" class="edge">
<title>Node43&#45;&gt;Node44</title>
<path fill="none" stroke="midnightblue" d="M1223.14,-112.08C1225.68,-104.85 1229.36,-94.41 1232.53,-85.4"/>
<polygon fill="midnightblue" stroke="midnightblue" points="1235.9,-86.35 1235.92,-75.75 1229.3,-84.02 1235.9,-86.35"/>
</g>
</g>
</svg>
