<?xml version="1.0" encoding="UTF-8" standalone="no"?>
<!DOCTYPE svg PUBLIC "-//W3C//DTD SVG 1.1//EN"
 "http://www.w3.org/Graphics/SVG/1.1/DTD/svg11.dtd">
<!-- Generated by graphviz version 2.43.0 (0)
 -->
<!-- Title: /home/user/project/src/material/materialUtil.h Pages: 1 -->
<svg width="1747pt" height="375pt"
 viewBox="0.00 0.00 1747.00 375.00" xmlns="http://www.w3.org/2000/svg" xmlns:xlink="http://www.w3.org/1999/xlink">
<g id="graph0" class="graph" transform="scale(1 1) rotate(0) translate(4 371)">
<title>/home/user/project/src/material/materialUtil.h</title>
<!-- Node1 -->
<g id="node1" class="node">
<title>Node1</title>
<g id="a_node1"><a xlink:title=" ">
<polygon fill="#bfbfbf" stroke="black" points="633.5,-336.5 633.5,-366.5 764.5,-366.5 764.5,-336.5 633.5,-336.5"/>
<text text-anchor="start" x="641.5" y="-354.5" font-family="Arial" font-size="10.00">/home/user/project</text>
<text text-anchor="middle" x="699" y="-343.5" font-family="Arial" font-size="10.00">/src/material/materialUtil.h</text>
</a>
</g>
</g>
<!-- Node2 -->
<g id="node2" class="node">
<title>Node2</title>
<g id="a_node2"><a xlink:href="point_8h.html" target="_top" xlink:title=" ">
<polygon fill="none" stroke="black" points="657,-56.5 657,-75.5 719,-75.5 719,-56.5 657,-56.5"/>
<text text-anchor="middle" x="688" y="-63.5" font-family="Arial" font-size="10.00">util/point.h</text>
</a>
</g>
</g>
<!-- Node1&#45;&gt;Node2 -->
<g id="edge1" class="edge">
<title>Node1&#45;&gt;Node2</title>
<path fill="none" stroke="midnightblue" d="M691.86,-336.45C677.26,-306.03 646.15,-231.7 656,-168 660.62,-138.11 672.51,-104.94 680.42,-85.04"/>
<polygon fill="midnightblue" stroke="midnightblue" points="683.7,-86.28 684.24,-75.7 677.22,-83.63 683.7,-86.28"/>
</g>
<!-- Node7 -->
<g id="node7" class="node">
<title>Node7</title>
<g id="a_node7"><a xlink:title=" ">
<polygon fill="none" stroke="#bfbfbf" points="818,-0.5 818,-19.5 862,-19.5 862,-0.5 818,-0.5"/>
<text text-anchor="middle" x="840" y="-7.5" font-family="Arial" font-size="10.00">vector</text>
</a>
</g>
</g>
<!-- Node1&#45;&gt;Node7 -->
<g id="edge80" class="edge">
<title>Node1&#45;&gt;Node7</title>
<path fill="none" stroke="midnightblue" d="M633.24,-346.5C459.23,-335.06 0,-298.81 0,-235 0,-235 0,-235 0,-121 0,34.57 117.05,-70.55 756,-20 773.11,-18.65 792.12,-16.65 807.73,-14.88"/>
<polygon fill="midnightblue" stroke="midnightblue" points="808.39,-18.33 817.92,-13.7 807.59,-11.37 808.39,-18.33"/>
</g>
<!-- Node8 -->
<g id="node8" class="node">
<title>Node8</title>
<g id="a_node8"><a xlink:href="material_8h.html" target="_top" xlink:title=" ">
<polygon fill="none" stroke="black" points="1031,-224.5 1031,-243.5 1133,-243.5 1133,-224.5 1031,-224.5"/>
<text text-anchor="middle" x="1082" y="-231.5" font-family="Arial" font-size="10.00">mparticle/material.h</text>
</a>
</g>
</g>
<!-- Node1&#45;&gt;Node8 -->
<g id="edge7" class="edge">
<title>Node1&#45;&gt;Node8</title>
<path fill="none" stroke="midnightblue" d="M745.58,-336.45C822.15,-313.36 973.18,-267.82 1043.85,-246.51"/>
<polygon fill="midnightblue" stroke="midnightblue" points="1045.11,-249.78 1053.67,-243.54 1043.09,-243.08 1045.11,-249.78"/>
</g>
<!-- Node13 -->
<g id="node12" class="node">
<title>Node13</title>
<g id="a_node12"><a xlink:title=" ">
<polygon fill="none" stroke="#bfbfbf" points="1604.5,-0.5 1604.5,-19.5 1645.5,-19.5 1645.5,-0.5 1604.5,-0.5"/>
<text text-anchor="middle" x="1625" y="-7.5" font-family="Arial" font-size="10.00">string</text>
</a>
</g>
</g>
<!-- Node1&#45;&gt;Node13 -->
<g id="edge79" class="edge">
<title>Node1&#45;&gt;Node13</title>
<path fill="none" stroke="midnightblue" d="M764.85,-350.13C993.46,-347.98 1739,-333.44 1739,-235 1739,-235 1739,-235 1739,-121 1739,-74.11 1688.45,-40.89 1654.67,-23.93"/>
<polygon fill="midnightblue" stroke="midnightblue" points="1656.17,-20.77 1645.64,-19.58 1653.13,-27.07 1656.17,-20.77"/>
</g>
<!-- Node20 -->
<g id="node18" class="node">
<title>Node20</title>
<g id="a_node18"><a xlink:title=" ">
<polygon fill="none" stroke="#bfbfbf" points="1671,-168.5 1671,-187.5 1711,-187.5 1711,-168.5 1671,-168.5"/>
<text text-anchor="middle" x="1691" y="-175.5" font-family="Arial" font-size="10.00">limits</text>
</a>
</g>
</g>
<!-- Node1&#45;&gt;Node20 -->
<g id="edge78" class="edge">
<title>Node1&#45;&gt;Node20</title>
<path fill="none" stroke="midnightblue" d="M764.64,-347.92C906.77,-341.06 1252.68,-317.59 1532,-244 1580.66,-231.18 1634.25,-207.02 1665.13,-192.04"/>
<polygon fill="midnightblue" stroke="midnightblue" points="1666.89,-195.07 1674.33,-187.52 1663.81,-188.79 1666.89,-195.07"/>
</g>
<!-- Node22 -->
<g id="node20" class="node">
<title>Node22</title>
<g id="a_node20"><a xlink:href="fracture_8h.html" target="_top" xlink:title=" ">
<polygon fill="none" stroke="black" points="104.5,-112.5 104.5,-131.5 205.5,-131.5 205.5,-112.5 104.5,-112.5"/>
<text text-anchor="middle" x="155" y="-119.5" font-family="Arial" font-size="10.00">geometry/fracture.h</text>
</a>
</g>
</g>
<!-- Node1&#45;&gt;Node22 -->
<g id="edge34" class="edge">
<title>Node1&#45;&gt;Node22</title>
<path fill="none" stroke="midnightblue" d="M633.15,-348.54C537.26,-342.97 356.53,-322.01 227,-244 188.73,-220.95 168.41,-169.15 159.91,-141.39"/>
<polygon fill="midnightblue" stroke="midnightblue" points="163.26,-140.38 157.14,-131.73 156.53,-142.31 163.26,-140.38"/>
</g>
<!-- Node24 -->
<g id="node22" class="node">
<title>Node24</title>
<g id="a_node22"><a xlink:href="modelData_8h.html" target="_top" xlink:title=" ">
<polygon fill="none" stroke="black" points="517.5,-280.5 517.5,-299.5 618.5,-299.5 618.5,-280.5 517.5,-280.5"/>
<text text-anchor="middle" x="568" y="-287.5" font-family="Arial" font-size="10.00">model/modelData.h</text>
</a>
</g>
</g>
<!-- Node1&#45;&gt;Node24 -->
<g id="edge39" class="edge">
<title>Node1&#45;&gt;Node24</title>
<path fill="none" stroke="midnightblue" d="M667.95,-336.4C646.27,-326.55 617.54,-313.5 596.45,-303.92"/>
<polygon fill="midnightblue" stroke="midnightblue" points="597.61,-300.61 587.06,-299.66 594.72,-306.98 597.61,-300.61"/>
</g>
<!-- Node3 -->
<g id="node3" class="node">
<title>Node3</title>
<g id="a_node3"><a xlink:title=" ">
<polygon fill="none" stroke="#bfbfbf" points="1121,-0.5 1121,-19.5 1165,-19.5 1165,-0.5 1121,-0.5"/>
<text text-anchor="middle" x="1143" y="-7.5" font-family="Arial" font-size="10.00">cmath</text>
</a>
</g>
</g>
<!-- Node2&#45;&gt;Node3 -->
<g id="edge2" class="edge">
<title>Node2&#45;&gt;Node3</title>
<path fill="none" stroke="midnightblue" d="M719.38,-57.59C722.28,-57.01 725.19,-56.47 728,-56 869.49,-32.49 1040.24,-18.44 1110.45,-13.27"/>
<polygon fill="midnightblue" stroke="midnightblue" points="1111.11,-16.73 1120.83,-12.51 1110.61,-9.75 1111.11,-16.73"/>
</g>
<!-- Node4 -->
<g id="node4" class="node">
<title>Node4</title>
<g id="a_node4"><a xlink:title=" ">
<polygon fill="none" stroke="#bfbfbf" points="627,-0.5 627,-19.5 677,-19.5 677,-0.5 627,-0.5"/>
<text text-anchor="middle" x="652" y="-7.5" font-family="Arial" font-size="10.00">iomanip</text>
</a>
</g>
</g>
<!-- Node2&#45;&gt;Node4 -->
<g id="edge3" class="edge">
<title>Node2&#45;&gt;Node4</title>
<path fill="none" stroke="midnightblue" d="M682.06,-56.08C677.02,-48.53 669.66,-37.49 663.49,-28.23"/>
<polygon fill="midnightblue" stroke="midnightblue" points="666.29,-26.13 657.83,-19.75 660.47,-30.01 666.29,-26.13"/>
</g>
<!-- Node5 -->
<g id="node5" class="node">
<title>Node5</title>
<g id="a_node5"><a xlink:title=" ">
<polygon fill="none" stroke="#bfbfbf" points="695,-0.5 695,-19.5 747,-19.5 747,-0.5 695,-0.5"/>
<text text-anchor="middle" x="721" y="-7.5" font-family="Arial" font-size="10.00">sstream</text>
</a>
</g>
</g>
<!-- Node2&#45;&gt;Node5 -->
<g id="edge4" class="edge">
<title>Node2&#45;&gt;Node5</title>
<path fill="none" stroke="midnightblue" d="M693.45,-56.08C698.01,-48.61 704.67,-37.72 710.29,-28.52"/>
<polygon fill="midnightblue" stroke="midnightblue" points="713.42,-30.11 715.65,-19.75 707.45,-26.46 713.42,-30.11"/>
</g>
<!-- Node6 -->
<g id="node6" class="node">
<title>Node6</title>
<g id="a_node6"><a xlink:title=" ">
<polygon fill="none" stroke="#bfbfbf" points="908,-0.5 908,-19.5 962,-19.5 962,-0.5 908,-0.5"/>
<text text-anchor="middle" x="935" y="-7.5" font-family="Arial" font-size="10.00">iostream</text>
</a>
</g>
</g>
<!-- Node2&#45;&gt;Node6 -->
<g id="edge5" class="edge">
<title>Node2&#45;&gt;Node6</title>
<path fill="none" stroke="midnightblue" d="M719,-58C722.04,-57.32 725.08,-56.65 728,-56 787.42,-42.86 856.51,-27.9 897.95,-18.97"/>
<polygon fill="midnightblue" stroke="midnightblue" points="898.82,-22.36 907.86,-16.83 897.35,-15.52 898.82,-22.36"/>
</g>
<!-- Node2&#45;&gt;Node7 -->
<g id="edge6" class="edge">
<title>Node2&#45;&gt;Node7</title>
<path fill="none" stroke="midnightblue" d="M712.08,-56.44C737.99,-47.24 779.32,-32.56 807.96,-22.38"/>
<polygon fill="midnightblue" stroke="midnightblue" points="809.26,-25.63 817.51,-18.99 806.92,-19.04 809.26,-25.63"/>
</g>
<!-- Node8&#45;&gt;Node2 -->
<g id="edge29" class="edge">
<title>Node8&#45;&gt;Node2</title>
<path fill="none" stroke="midnightblue" d="M1030.71,-230.46C980.62,-226.38 903.2,-215.75 842,-188 784.19,-161.79 728.8,-109.46 703.04,-83.04"/>
<polygon fill="midnightblue" stroke="midnightblue" points="705.48,-80.53 696.03,-75.73 700.43,-85.37 705.48,-80.53"/>
</g>
<!-- Node8&#45;&gt;Node7 -->
<g id="edge33" class="edge">
<title>Node8&#45;&gt;Node7</title>
<path fill="none" stroke="midnightblue" d="M1074.57,-224.1C1063.53,-211.11 1041.84,-186.49 1021,-168 969.41,-122.21 946.61,-122.87 896,-76 879.68,-60.89 863.35,-41.3 852.57,-27.59"/>
<polygon fill="midnightblue" stroke="midnightblue" points="855.23,-25.31 846.35,-19.54 849.69,-29.59 855.23,-25.31"/>
</g>
<!-- Node9 -->
<g id="node9" class="node">
<title>Node9</title>
<g id="a_node9"><a xlink:href="influenceFn_8h.html" target="_top" xlink:title=" ">
<polygon fill="none" stroke="black" points="1077.5,-168.5 1077.5,-187.5 1152.5,-187.5 1152.5,-168.5 1077.5,-168.5"/>
<text text-anchor="middle" x="1115" y="-175.5" font-family="Arial" font-size="10.00">influenceFn.h</text>
</a>
</g>
</g>
<!-- Node8&#45;&gt;Node9 -->
<g id="edge8" class="edge">
<title>Node8&#45;&gt;Node9</title>
<path fill="none" stroke="midnightblue" d="M1087.45,-224.08C1092.01,-216.61 1098.67,-205.72 1104.29,-196.52"/>
<polygon fill="midnightblue" stroke="midnightblue" points="1107.42,-198.11 1109.65,-187.75 1101.45,-194.46 1107.42,-198.11"/>
</g>
<!-- Node8&#45;&gt;Node13 -->
<g id="edge32" class="edge">
<title>Node8&#45;&gt;Node13</title>
<path fill="none" stroke="midnightblue" d="M1133.26,-231.85C1261.16,-227.82 1589.03,-209.93 1658,-132 1680.4,-106.69 1672.19,-87.9 1661,-56 1657.21,-45.21 1649.63,-35.08 1642.4,-27.18"/>
<polygon fill="midnightblue" stroke="midnightblue" points="1644.67,-24.49 1635.16,-19.81 1639.67,-29.4 1644.67,-24.49"/>
</g>
<!-- Node18 -->
<g id="node16" class="node">
<title>Node18</title>
<g id="a_node16"><a xlink:href="materialDeck_8h.html" target="_top" xlink:title=" ">
<polygon fill="none" stroke="black" points="1171,-168.5 1171,-187.5 1299,-187.5 1299,-168.5 1171,-168.5"/>
<text text-anchor="middle" x="1235" y="-175.5" font-family="Arial" font-size="10.00">inp/decks/materialDeck.h</text>
</a>
</g>
</g>
<!-- Node8&#45;&gt;Node18 -->
<g id="edge21" class="edge">
<title>Node8&#45;&gt;Node18</title>
<path fill="none" stroke="midnightblue" d="M1106.24,-224.44C1131.87,-215.4 1172.49,-201.06 1201.24,-190.92"/>
<polygon fill="midnightblue" stroke="midnightblue" points="1202.61,-194.15 1210.87,-187.52 1200.28,-187.54 1202.61,-194.15"/>
</g>
<!-- Node19 -->
<g id="node17" class="node">
<title>Node19</title>
<g id="a_node17"><a xlink:href="function_8h.html" target="_top" xlink:title=" ">
<polygon fill="none" stroke="black" points="834.5,-112.5 834.5,-131.5 909.5,-131.5 909.5,-112.5 834.5,-112.5"/>
<text text-anchor="middle" x="872" y="-119.5" font-family="Arial" font-size="10.00">util/function.h</text>
</a>
</g>
</g>
<!-- Node8&#45;&gt;Node19 -->
<g id="edge26" class="edge">
<title>Node8&#45;&gt;Node19</title>
<path fill="none" stroke="midnightblue" d="M1072.06,-224.44C1056.08,-211 1023.26,-184.76 992,-168 966.26,-154.2 935.37,-142.72 911.38,-134.81"/>
<polygon fill="midnightblue" stroke="midnightblue" points="912.15,-131.38 901.55,-131.65 910,-138.05 912.15,-131.38"/>
</g>
<!-- Node8&#45;&gt;Node20 -->
<g id="edge30" class="edge">
<title>Node8&#45;&gt;Node20</title>
<path fill="none" stroke="midnightblue" d="M1133.14,-232.09C1234.03,-229.62 1465.49,-220.57 1657,-188 1658.29,-187.78 1659.6,-187.54 1660.91,-187.27"/>
<polygon fill="midnightblue" stroke="midnightblue" points="1662.04,-190.6 1671,-184.94 1660.46,-183.78 1662.04,-190.6"/>
</g>
<!-- Node21 -->
<g id="node19" class="node">
<title>Node21</title>
<g id="a_node19"><a xlink:title=" ">
<polygon fill="none" stroke="#bfbfbf" points="1443,-0.5 1443,-19.5 1495,-19.5 1495,-0.5 1443,-0.5"/>
<text text-anchor="middle" x="1469" y="-7.5" font-family="Arial" font-size="10.00">memory</text>
</a>
</g>
</g>
<!-- Node8&#45;&gt;Node21 -->
<g id="edge31" class="edge">
<title>Node8&#45;&gt;Node21</title>
<path fill="none" stroke="midnightblue" d="M1133.03,-229.69C1180.26,-225.06 1251.51,-214.06 1308,-188 1380.99,-154.33 1405.03,-142.63 1450,-76 1459.35,-62.14 1464.18,-43.63 1466.62,-29.9"/>
<polygon fill="midnightblue" stroke="midnightblue" points="1470.13,-30.12 1468.16,-19.71 1463.2,-29.07 1470.13,-30.12"/>
</g>
<!-- Node9&#45;&gt;Node6 -->
<g id="edge19" class="edge">
<title>Node9&#45;&gt;Node6</title>
<path fill="none" stroke="midnightblue" d="M1097.49,-168.48C1081.46,-160.27 1057.5,-146.92 1039,-132 999.99,-100.55 964.18,-53.13 946.53,-28.01"/>
<polygon fill="midnightblue" stroke="midnightblue" points="949.25,-25.79 940.68,-19.56 943.49,-29.78 949.25,-25.79"/>
</g>
<!-- Node9&#45;&gt;Node7 -->
<g id="edge20" class="edge">
<title>Node9&#45;&gt;Node7</title>
<path fill="none" stroke="midnightblue" d="M1092.75,-168.5C1071.88,-160.2 1040.09,-146.71 1014,-132 954.78,-98.61 890.41,-50.39 859.17,-26.14"/>
<polygon fill="midnightblue" stroke="midnightblue" points="860.95,-23.09 850.92,-19.69 856.64,-28.61 860.95,-23.09"/>
</g>
<!-- Node10 -->
<g id="node10" class="node">
<title>Node10</title>
<g id="a_node10"><a xlink:href="io_8h.html" target="_top" xlink:title=" ">
<polygon fill="none" stroke="black" points="1048,-112.5 1048,-131.5 1096,-131.5 1096,-112.5 1048,-112.5"/>
<text text-anchor="middle" x="1072" y="-119.5" font-family="Arial" font-size="10.00">util/io.h</text>
</a>
</g>
</g>
<!-- Node9&#45;&gt;Node10 -->
<g id="edge9" class="edge">
<title>Node9&#45;&gt;Node10</title>
<path fill="none" stroke="midnightblue" d="M1107.9,-168.08C1101.76,-160.38 1092.73,-149.03 1085.26,-139.65"/>
<polygon fill="midnightblue" stroke="midnightblue" points="1087.94,-137.39 1078.97,-131.75 1082.46,-141.75 1087.94,-137.39"/>
</g>
<!-- Node17 -->
<g id="node15" class="node">
<title>Node17</title>
<g id="a_node15"><a xlink:title=" ">
<polygon fill="none" stroke="#bfbfbf" points="209,-56.5 209,-75.5 255,-75.5 255,-56.5 209,-56.5"/>
<text text-anchor="middle" x="232" y="-63.5" font-family="Arial" font-size="10.00">cstring</text>
</a>
</g>
</g>
<!-- Node9&#45;&gt;Node17 -->
<g id="edge18" class="edge">
<title>Node9&#45;&gt;Node17</title>
<path fill="none" stroke="midnightblue" d="M1077.33,-174.06C1052.99,-172.21 1020.63,-169.82 992,-168 844.75,-158.62 468.95,-178.74 329,-132 297.77,-121.57 267.12,-98.21 248.89,-82.53"/>
<polygon fill="midnightblue" stroke="midnightblue" points="250.8,-79.54 240.99,-75.53 246.16,-84.78 250.8,-79.54"/>
</g>
<!-- Node10&#45;&gt;Node2 -->
<g id="edge10" class="edge">
<title>Node10&#45;&gt;Node2</title>
<path fill="none" stroke="midnightblue" d="M1047.69,-118.59C992.77,-112.99 854.74,-97.98 729.53,-76.14"/>
<polygon fill="midnightblue" stroke="midnightblue" points="729.84,-72.64 719.39,-74.35 728.63,-79.53 729.84,-72.64"/>
</g>
<!-- Node10&#45;&gt;Node6 -->
<g id="edge15" class="edge">
<title>Node10&#45;&gt;Node6</title>
<path fill="none" stroke="midnightblue" d="M1061.25,-112.37C1038.04,-93.73 982.99,-49.53 953.85,-26.13"/>
<polygon fill="midnightblue" stroke="midnightblue" points="955.69,-23.12 945.7,-19.59 951.31,-28.58 955.69,-23.12"/>
</g>
<!-- Node10&#45;&gt;Node7 -->
<g id="edge16" class="edge">
<title>Node10&#45;&gt;Node7</title>
<path fill="none" stroke="midnightblue" d="M1053.8,-112.37C1013.22,-93.13 915.18,-46.65 867.27,-23.93"/>
<polygon fill="midnightblue" stroke="midnightblue" points="868.66,-20.71 858.12,-19.59 865.66,-27.04 868.66,-20.71"/>
</g>
<!-- Node11 -->
<g id="node11" class="node">
<title>Node11</title>
<g id="a_node11"><a xlink:href="parallelUtil_8h.html" target="_top" xlink:title=" ">
<polygon fill="none" stroke="red" points="1039.5,-56.5 1039.5,-75.5 1110.5,-75.5 1110.5,-56.5 1039.5,-56.5"/>
<text text-anchor="middle" x="1075" y="-63.5" font-family="Arial" font-size="10.00">parallelUtil.h</text>
</a>
</g>
</g>
<!-- Node10&#45;&gt;Node11 -->
<g id="edge11" class="edge">
<title>Node10&#45;&gt;Node11</title>
<path fill="none" stroke="midnightblue" d="M1072.5,-112.08C1072.89,-105.01 1073.45,-94.86 1073.95,-85.99"/>
<polygon fill="midnightblue" stroke="midnightblue" points="1077.45,-85.93 1074.51,-75.75 1070.46,-85.54 1077.45,-85.93"/>
</g>
<!-- Node15 -->
<g id="node13" class="node">
<title>Node15</title>
<g id="a_node13"><a xlink:title=" ">
<polygon fill="none" stroke="#bfbfbf" points="1129,-56.5 1129,-75.5 1179,-75.5 1179,-56.5 1129,-56.5"/>
<text text-anchor="middle" x="1154" y="-63.5" font-family="Arial" font-size="10.00">fstream</text>
</a>
</g>
</g>
<!-- Node10&#45;&gt;Node15 -->
<g id="edge14" class="edge">
<title>Node10&#45;&gt;Node15</title>
<path fill="none" stroke="midnightblue" d="M1085.17,-112.32C1097.85,-103.98 1117.23,-91.21 1132.21,-81.35"/>
<polygon fill="midnightblue" stroke="midnightblue" points="1134.43,-84.08 1140.86,-75.65 1130.58,-78.23 1134.43,-84.08"/>
</g>
<!-- Node16 -->
<g id="node14" class="node">
<title>Node16</title>
<g id="a_node14"><a xlink:title=" ">
<polygon fill="none" stroke="#bfbfbf" points="737,-56.5 737,-75.5 793,-75.5 793,-56.5 737,-56.5"/>
<text text-anchor="middle" x="765" y="-63.5" font-family="Arial" font-size="10.00">algorithm</text>
</a>
</g>
</g>
<!-- Node10&#45;&gt;Node16 -->
<g id="edge17" class="edge">
<title>Node10&#45;&gt;Node16</title>
<path fill="none" stroke="midnightblue" d="M1047.91,-116.76C994.89,-107.44 867.7,-85.06 803.48,-73.77"/>
<polygon fill="midnightblue" stroke="midnightblue" points="803.82,-70.27 793.37,-71.99 802.61,-77.17 803.82,-70.27"/>
</g>
<!-- Node11&#45;&gt;Node7 -->
<g id="edge13" class="edge">
<title>Node11&#45;&gt;Node7</title>
<path fill="none" stroke="midnightblue" d="M1039.31,-56.8C993.78,-46.34 915.72,-28.4 872.03,-18.36"/>
<polygon fill="midnightblue" stroke="midnightblue" points="872.75,-14.93 862.22,-16.1 871.18,-21.76 872.75,-14.93"/>
</g>
<!-- Node11&#45;&gt;Node13 -->
<g id="edge12" class="edge">
<title>Node11&#45;&gt;Node13</title>
<path fill="none" stroke="midnightblue" d="M1110.8,-57.48C1113.9,-56.93 1117,-56.43 1120,-56 1212.59,-42.66 1499.57,-20.45 1594.31,-13.29"/>
<polygon fill="midnightblue" stroke="midnightblue" points="1594.67,-16.78 1604.38,-12.54 1594.15,-9.8 1594.67,-16.78"/>
</g>
<!-- Node18&#45;&gt;Node3 -->
<g id="edge23" class="edge">
<title>Node18&#45;&gt;Node3</title>
<path fill="none" stroke="midnightblue" d="M1256.48,-168.36C1271.39,-161.09 1290.11,-149.12 1299,-132 1303.1,-124.11 1302.44,-120.2 1299,-112 1277.46,-60.65 1214.07,-32.64 1175.04,-19.83"/>
<polygon fill="midnightblue" stroke="midnightblue" points="1175.8,-16.4 1165.21,-16.75 1173.71,-23.08 1175.8,-16.4"/>
</g>
<!-- Node18&#45;&gt;Node7 -->
<g id="edge25" class="edge">
<title>Node18&#45;&gt;Node7</title>
<path fill="none" stroke="midnightblue" d="M1222.37,-168.31C1211.85,-160.26 1197.57,-147.25 1191,-132 1177.62,-100.95 1210.87,-80.89 1188,-56 1144.21,-8.35 963.11,-28.88 899,-20 890.32,-18.8 880.93,-17.41 872.25,-16.08"/>
<polygon fill="midnightblue" stroke="midnightblue" points="872.53,-12.58 862.11,-14.52 871.46,-19.5 872.53,-12.58"/>
</g>
<!-- Node18&#45;&gt;Node10 -->
<g id="edge22" class="edge">
<title>Node18&#45;&gt;Node10</title>
<path fill="none" stroke="midnightblue" d="M1209.17,-168.44C1181.27,-159.2 1136.68,-144.43 1105.96,-134.25"/>
<polygon fill="midnightblue" stroke="midnightblue" points="1106.71,-130.81 1096.11,-130.99 1104.5,-137.46 1106.71,-130.81"/>
</g>
<!-- Node18&#45;&gt;Node13 -->
<g id="edge24" class="edge">
<title>Node18&#45;&gt;Node13</title>
<path fill="none" stroke="midnightblue" d="M1299.39,-174.45C1407.71,-169.5 1616.79,-156.82 1639,-132 1664.52,-103.48 1646.96,-54.81 1634.48,-28.74"/>
<polygon fill="midnightblue" stroke="midnightblue" points="1637.52,-27 1629.89,-19.65 1631.27,-30.15 1637.52,-27"/>
</g>
<!-- Node19&#45;&gt;Node2 -->
<g id="edge27" class="edge">
<title>Node19&#45;&gt;Node2</title>
<path fill="none" stroke="midnightblue" d="M842.84,-112.44C811.49,-103.24 761.47,-88.56 726.8,-78.39"/>
<polygon fill="midnightblue" stroke="midnightblue" points="727.6,-74.97 717.02,-75.52 725.63,-81.69 727.6,-74.97"/>
</g>
<!-- Node19&#45;&gt;Node7 -->
<g id="edge28" class="edge">
<title>Node19&#45;&gt;Node7</title>
<path fill="none" stroke="midnightblue" d="M865.08,-112.29C858.63,-103.64 849.37,-89.72 845,-76 840.21,-60.99 839.16,-43.08 839.18,-29.87"/>
<polygon fill="midnightblue" stroke="midnightblue" points="842.69,-29.73 839.42,-19.65 835.69,-29.57 842.69,-29.73"/>
</g>
<!-- Node22&#45;&gt;Node2 -->
<g id="edge35" class="edge">
<title>Node22&#45;&gt;Node2</title>
<path fill="none" stroke="midnightblue" d="M205.66,-118.56C293.54,-113.85 480.07,-101.75 646.7,-76.02"/>
<polygon fill="midnightblue" stroke="midnightblue" points="647.29,-79.47 656.63,-74.46 646.21,-72.55 647.29,-79.47"/>
</g>
<!-- Node22&#45;&gt;Node7 -->
<g id="edge38" class="edge">
<title>Node22&#45;&gt;Node7</title>
<path fill="none" stroke="midnightblue" d="M147.81,-112.2C137.46,-98.43 121.15,-71.73 136,-56 183.36,-5.81 687.23,-25.68 756,-20 773.1,-18.59 792.12,-16.59 807.73,-14.83"/>
<polygon fill="midnightblue" stroke="midnightblue" points="808.38,-18.28 817.92,-13.66 807.59,-11.32 808.38,-18.28"/>
</g>
<!-- Node22&#45;&gt;Node17 -->
<g id="edge37" class="edge">
<title>Node22&#45;&gt;Node17</title>
<path fill="none" stroke="midnightblue" d="M167.37,-112.32C179.16,-104.06 197.13,-91.45 211.14,-81.63"/>
<polygon fill="midnightblue" stroke="midnightblue" points="213.48,-84.26 219.66,-75.65 209.46,-78.53 213.48,-84.26"/>
</g>
<!-- Node23 -->
<g id="node21" class="node">
<title>Node23</title>
<g id="a_node21"><a xlink:title=" ">
<polygon fill="none" stroke="#bfbfbf" points="145,-56.5 145,-75.5 191,-75.5 191,-56.5 145,-56.5"/>
<text text-anchor="middle" x="168" y="-63.5" font-family="Arial" font-size="10.00">cstdint</text>
</a>
</g>
</g>
<!-- Node22&#45;&gt;Node23 -->
<g id="edge36" class="edge">
<title>Node22&#45;&gt;Node23</title>
<path fill="none" stroke="midnightblue" d="M157.15,-112.08C158.87,-104.93 161.35,-94.64 163.5,-85.69"/>
<polygon fill="midnightblue" stroke="midnightblue" points="166.96,-86.29 165.89,-75.75 160.15,-84.65 166.96,-86.29"/>
</g>
<!-- Node24&#45;&gt;Node2 -->
<g id="edge40" class="edge">
<title>Node24&#45;&gt;Node2</title>
<path fill="none" stroke="midnightblue" d="M563.73,-280.4C558.05,-267.77 549.47,-243.6 556,-224 576.9,-161.31 636.85,-107.02 668.26,-81.88"/>
<polygon fill="midnightblue" stroke="midnightblue" points="670.59,-84.5 676.31,-75.58 666.28,-78.99 670.59,-84.5"/>
</g>
<!-- Node24&#45;&gt;Node7 -->
<g id="edge77" class="edge">
<title>Node24&#45;&gt;Node7</title>
<path fill="none" stroke="midnightblue" d="M517.18,-289.14C384.53,-288.15 38,-276.26 38,-179 38,-179 38,-179 38,-121 38,-7.32 214.25,-64.5 756,-20 773.1,-18.6 792.12,-16.59 807.73,-14.84"/>
<polygon fill="midnightblue" stroke="midnightblue" points="808.38,-18.28 817.92,-13.67 807.59,-11.33 808.38,-18.28"/>
</g>
<!-- Node24&#45;&gt;Node8 -->
<g id="edge43" class="edge">
<title>Node24&#45;&gt;Node8</title>
<path fill="none" stroke="midnightblue" d="M618.69,-283.67C713.7,-273.69 918.18,-252.21 1020.73,-241.44"/>
<polygon fill="midnightblue" stroke="midnightblue" points="1021.35,-244.89 1030.93,-240.37 1020.62,-237.93 1021.35,-244.89"/>
</g>
<!-- Node24&#45;&gt;Node17 -->
<g id="edge76" class="edge">
<title>Node24&#45;&gt;Node17</title>
<path fill="none" stroke="midnightblue" d="M546.91,-280.49C497.7,-259.97 372.88,-204.11 286,-132 269.15,-118.01 253.58,-98.23 243.54,-84.17"/>
<polygon fill="midnightblue" stroke="midnightblue" points="246.36,-82.09 237.78,-75.88 240.61,-86.09 246.36,-82.09"/>
</g>
<!-- Node24&#45;&gt;Node22 -->
<g id="edge74" class="edge">
<title>Node24&#45;&gt;Node22</title>
<path fill="none" stroke="midnightblue" d="M517.38,-285.98C441.25,-280.72 301.55,-268.07 258,-244 213.49,-219.4 179.67,-167.48 164.23,-140.34"/>
<polygon fill="midnightblue" stroke="midnightblue" points="167.28,-138.63 159.38,-131.57 161.15,-142.01 167.28,-138.63"/>
</g>
<!-- Node24&#45;&gt;Node23 -->
<g id="edge75" class="edge">
<title>Node24&#45;&gt;Node23</title>
<path fill="none" stroke="midnightblue" d="M517.17,-285.82C435.2,-280.1 277.83,-266.54 227,-244 156.67,-212.81 127.32,-201.82 95,-132 84.3,-108.89 111.23,-90.54 135.35,-79.31"/>
<polygon fill="midnightblue" stroke="midnightblue" points="136.95,-82.43 144.72,-75.21 134.15,-76.01 136.95,-82.43"/>
</g>
<!-- Node25 -->
<g id="node23" class="node">
<title>Node25</title>
<g id="a_node23"><a xlink:href="matrix_8h.html" target="_top" xlink:title=" ">
<polygon fill="none" stroke="black" points="565,-224.5 565,-243.5 633,-243.5 633,-224.5 565,-224.5"/>
<text text-anchor="middle" x="599" y="-231.5" font-family="Arial" font-size="10.00">util/matrix.h</text>
</a>
</g>
</g>
<!-- Node24&#45;&gt;Node25 -->
<g id="edge41" class="edge">
<title>Node24&#45;&gt;Node25</title>
<path fill="none" stroke="midnightblue" d="M573.12,-280.08C577.41,-272.61 583.66,-261.72 588.94,-252.52"/>
<polygon fill="midnightblue" stroke="midnightblue" points="592.03,-254.17 593.98,-243.75 585.96,-250.68 592.03,-254.17"/>
</g>
<!-- Node26 -->
<g id="node24" class="node">
<title>Node26</title>
<g id="a_node24"><a xlink:href="input_8h.html" target="_top" xlink:title=" ">
<polygon fill="none" stroke="black" points="1497,-56.5 1497,-75.5 1559,-75.5 1559,-56.5 1497,-56.5"/>
<text text-anchor="middle" x="1528" y="-63.5" font-family="Arial" font-size="10.00">inp/input.h</text>
</a>
</g>
</g>
<!-- Node24&#45;&gt;Node26 -->
<g id="edge44" class="edge">
<title>Node24&#45;&gt;Node26</title>
<path fill="none" stroke="midnightblue" d="M618.71,-288.33C719.28,-286.28 950.82,-277.93 1142,-244 1232.89,-227.87 1257.9,-226.05 1342,-188 1407.77,-158.24 1476.91,-107.22 1509.25,-82.01"/>
<polygon fill="midnightblue" stroke="midnightblue" points="1511.67,-84.55 1517.36,-75.62 1507.34,-79.05 1511.67,-84.55"/>
</g>
<!-- Node27 -->
<g id="node25" class="node">
<title>Node27</title>
<g id="a_node25"><a xlink:href="particleFLoading_8h.html" target="_top" xlink:title=" ">
<polygon fill="none" stroke="black" points="665,-168.5 665,-187.5 795,-187.5 795,-168.5 665,-168.5"/>
<text text-anchor="middle" x="730" y="-175.5" font-family="Arial" font-size="10.00">loading/particleFLoading.h</text>
</a>
</g>
</g>
<!-- Node24&#45;&gt;Node27 -->
<g id="edge48" class="edge">
<title>Node24&#45;&gt;Node27</title>
<path fill="none" stroke="midnightblue" d="M582.99,-280.42C598.11,-271.64 622.03,-257.41 642,-244 666.31,-227.68 693.24,-207.45 710.83,-193.93"/>
<polygon fill="midnightblue" stroke="midnightblue" points="713.34,-196.42 719.12,-187.53 709.06,-190.88 713.34,-196.42"/>
</g>
<!-- Node38 -->
<g id="node28" class="node">
<title>Node38</title>
<g id="a_node28"><a xlink:href="particleULoading_8h.html" target="_top" xlink:title=" ">
<polygon fill="none" stroke="black" points="851.5,-168.5 851.5,-187.5 982.5,-187.5 982.5,-168.5 851.5,-168.5"/>
<text text-anchor="middle" x="917" y="-175.5" font-family="Arial" font-size="10.00">loading/particleULoading.h</text>
</a>
</g>
</g>
<!-- Node24&#45;&gt;Node38 -->
<g id="edge55" class="edge">
<title>Node24&#45;&gt;Node38</title>
<path fill="none" stroke="midnightblue" d="M595.1,-280.46C657.07,-260.93 809.25,-212.96 879.87,-190.7"/>
<polygon fill="midnightblue" stroke="midnightblue" points="881.2,-193.95 889.68,-187.61 879.09,-187.28 881.2,-193.95"/>
</g>
<!-- Node39 -->
<g id="node29" class="node">
<title>Node39</title>
<g id="a_node29"><a xlink:href="nsearch_8h.html" target="_top" xlink:title=" ">
<polygon fill="none" stroke="black" points="435.5,-168.5 435.5,-187.5 532.5,-187.5 532.5,-168.5 435.5,-168.5"/>
<text text-anchor="middle" x="484" y="-175.5" font-family="Arial" font-size="10.00">nsearch/nsearch.h</text>
</a>
</g>
</g>
<!-- Node24&#45;&gt;Node39 -->
<g id="edge58" class="edge">
<title>Node24&#45;&gt;Node39</title>
<path fill="none" stroke="midnightblue" d="M557.99,-280.31C548.37,-271.68 533.74,-257.76 523,-244 511.38,-229.12 500.54,-210.51 493.25,-197.02"/>
<polygon fill="midnightblue" stroke="midnightblue" points="496.18,-195.06 488.42,-187.85 489.98,-198.33 496.18,-195.06"/>
</g>
<!-- Node25&#45;&gt;Node2 -->
<g id="edge42" class="edge">
<title>Node25&#45;&gt;Node2</title>
<path fill="none" stroke="midnightblue" d="M601.53,-224.34C605.4,-211.64 613.33,-187.38 623,-168 638.59,-136.75 661.6,-103.16 675.65,-83.67"/>
<polygon fill="midnightblue" stroke="midnightblue" points="678.52,-85.67 681.59,-75.53 672.87,-81.55 678.52,-85.67"/>
</g>
<!-- Node26&#45;&gt;Node7 -->
<g id="edge46" class="edge">
<title>Node26&#45;&gt;Node7</title>
<path fill="none" stroke="midnightblue" d="M1496.91,-61.05C1482.64,-59.34 1465.48,-57.4 1450,-56 1205.58,-33.93 1142.97,-46.53 899,-20 890.29,-19.05 880.89,-17.75 872.21,-16.43"/>
<polygon fill="midnightblue" stroke="midnightblue" points="872.5,-12.93 862.07,-14.83 871.41,-19.84 872.5,-12.93"/>
</g>
<!-- Node26&#45;&gt;Node13 -->
<g id="edge45" class="edge">
<title>Node26&#45;&gt;Node13</title>
<path fill="none" stroke="midnightblue" d="M1543.58,-56.32C1559,-47.74 1582.81,-34.49 1600.71,-24.52"/>
<polygon fill="midnightblue" stroke="midnightblue" points="1602.42,-27.58 1609.45,-19.65 1599.01,-21.46 1602.42,-27.58"/>
</g>
<!-- Node26&#45;&gt;Node21 -->
<g id="edge47" class="edge">
<title>Node26&#45;&gt;Node21</title>
<path fill="none" stroke="midnightblue" d="M1518.52,-56.32C1509.8,-48.34 1496.66,-36.31 1486.1,-26.65"/>
<polygon fill="midnightblue" stroke="midnightblue" points="1488.39,-24 1478.65,-19.83 1483.67,-29.17 1488.39,-24"/>
</g>
<!-- Node27&#45;&gt;Node2 -->
<g id="edge54" class="edge">
<title>Node27&#45;&gt;Node2</title>
<path fill="none" stroke="midnightblue" d="M726.81,-168.14C722.29,-155.6 713.69,-131.99 706,-112 702.56,-103.05 698.62,-93.16 695.3,-84.93"/>
<polygon fill="midnightblue" stroke="midnightblue" points="698.52,-83.55 691.52,-75.6 692.03,-86.18 698.52,-83.55"/>
</g>
<!-- Node28 -->
<g id="node26" class="node">
<title>Node28</title>
<g id="a_node26"><a xlink:href="particleLoading_8h.html" target="_top" xlink:title=" ">
<polygon fill="none" stroke="black" points="1200,-112.5 1200,-131.5 1290,-131.5 1290,-112.5 1200,-112.5"/>
<text text-anchor="middle" x="1245" y="-119.5" font-family="Arial" font-size="10.00">particleLoading.h</text>
</a>
</g>
</g>
<!-- Node27&#45;&gt;Node28 -->
<g id="edge49" class="edge">
<title>Node27&#45;&gt;Node28</title>
<path fill="none" stroke="midnightblue" d="M795.23,-170.16C897.59,-159.43 1094.16,-138.82 1189.89,-128.78"/>
<polygon fill="midnightblue" stroke="midnightblue" points="1190.36,-132.25 1199.95,-127.72 1189.63,-125.29 1190.36,-132.25"/>
</g>
<!-- Node28&#45;&gt;Node7 -->
<g id="edge51" class="edge">
<title>Node28&#45;&gt;Node7</title>
<path fill="none" stroke="midnightblue" d="M1244.55,-112.17C1243.3,-97.86 1238.62,-69.79 1221,-56 1164.31,-11.62 970.38,-29.43 899,-20 890.31,-18.85 880.92,-17.48 872.24,-16.16"/>
<polygon fill="midnightblue" stroke="midnightblue" points="872.52,-12.66 862.1,-14.59 871.45,-19.58 872.52,-12.66"/>
</g>
<!-- Node28&#45;&gt;Node13 -->
<g id="edge50" class="edge">
<title>Node28&#45;&gt;Node13</title>
<path fill="none" stroke="midnightblue" d="M1290.12,-118.59C1367.3,-113.82 1520.91,-101.4 1568,-76 1588.35,-65.02 1604.84,-43.73 1614.76,-28.5"/>
<polygon fill="midnightblue" stroke="midnightblue" points="1617.76,-30.29 1620.06,-19.95 1611.81,-26.61 1617.76,-30.29"/>
</g>
<!-- Node29 -->
<g id="node27" class="node">
<title>Node29</title>
<g id="a_node27"><a xlink:href="particleDeck_8h.html" target="_top" xlink:title=" ">
<polygon fill="none" stroke="red" points="1311,-56.5 1311,-75.5 1441,-75.5 1441,-56.5 1311,-56.5"/>
<text text-anchor="middle" x="1376" y="-63.5" font-family="Arial" font-size="10.00">inp/pdecks/particleDeck.h</text>
</a>
</g>
</g>
<!-- Node28&#45;&gt;Node29 -->
<g id="edge52" class="edge">
<title>Node28&#45;&gt;Node29</title>
<path fill="none" stroke="midnightblue" d="M1265.76,-112.44C1287.32,-103.56 1321.26,-89.56 1345.79,-79.45"/>
<polygon fill="midnightblue" stroke="midnightblue" points="1347.43,-82.56 1355.34,-75.52 1344.76,-76.09 1347.43,-82.56"/>
</g>
<!-- Node29&#45;&gt;Node21 -->
<g id="edge53" class="edge">
<title>Node29&#45;&gt;Node21</title>
<path fill="none" stroke="midnightblue" d="M1390.94,-56.32C1405.59,-47.82 1428.13,-34.73 1445.24,-24.8"/>
<polygon fill="midnightblue" stroke="midnightblue" points="1447.2,-27.7 1454.1,-19.65 1443.69,-21.65 1447.2,-27.7"/>
</g>
<!-- Node38&#45;&gt;Node2 -->
<g id="edge57" class="edge">
<title>Node38&#45;&gt;Node2</title>
<path fill="none" stroke="midnightblue" d="M899.1,-168.37C873.25,-155.9 823.98,-132.15 782,-112 759.5,-101.2 733.95,-88.97 715.18,-79.99"/>
<polygon fill="midnightblue" stroke="midnightblue" points="716.56,-76.77 706.03,-75.61 713.54,-83.09 716.56,-76.77"/>
</g>
<!-- Node38&#45;&gt;Node28 -->
<g id="edge56" class="edge">
<title>Node38&#45;&gt;Node28</title>
<path fill="none" stroke="midnightblue" d="M968.97,-168.44C1029.29,-158.51 1128.33,-142.21 1189.94,-132.07"/>
<polygon fill="midnightblue" stroke="midnightblue" points="1190.57,-135.51 1199.87,-130.43 1189.43,-128.6 1190.57,-135.51"/>
</g>
<!-- Node39&#45;&gt;Node2 -->
<g id="edge59" class="edge">
<title>Node39&#45;&gt;Node2</title>
<path fill="none" stroke="midnightblue" d="M499.22,-168.48C521.64,-155.96 564.91,-131.92 602,-112 622.1,-101.2 645,-89.24 662.12,-80.36"/>
<polygon fill="midnightblue" stroke="midnightblue" points="664.19,-83.23 671.46,-75.52 660.97,-77.01 664.19,-83.23"/>
</g>
<!-- Node39&#45;&gt;Node7 -->
<g id="edge70" class="edge">
<title>Node39&#45;&gt;Node7</title>
<path fill="none" stroke="midnightblue" d="M478.62,-168.44C473.44,-159.68 465.99,-145.47 463,-132 455.61,-98.68 449.02,-79.25 474,-56 480.11,-50.31 719.65,-23.97 807.84,-14.45"/>
<polygon fill="midnightblue" stroke="midnightblue" points="808.25,-17.93 817.82,-13.37 807.5,-10.97 808.25,-17.93"/>
</g>
<!-- Node39&#45;&gt;Node13 -->
<g id="edge69" class="edge">
<title>Node39&#45;&gt;Node13</title>
<path fill="none" stroke="midnightblue" d="M532.76,-174.4C705.61,-165.15 1279.89,-134.33 1299,-132 1431.47,-115.84 1488.3,-157.47 1594,-76 1608.68,-64.69 1616.75,-44.68 1620.95,-29.85"/>
<polygon fill="midnightblue" stroke="midnightblue" points="1624.44,-30.29 1623.45,-19.74 1617.65,-28.61 1624.44,-30.29"/>
</g>
<!-- Node39&#45;&gt;Node23 -->
<g id="edge68" class="edge">
<title>Node39&#45;&gt;Node23</title>
<path fill="none" stroke="midnightblue" d="M435.17,-168.58C396.67,-161.17 341.99,-148.91 296,-132 257.63,-117.89 215.87,-95.17 190.83,-80.67"/>
<polygon fill="midnightblue" stroke="midnightblue" points="192.49,-77.59 182.09,-75.55 188.95,-83.63 192.49,-77.59"/>
</g>
<!-- Node40 -->
<g id="node30" class="node">
<title>Node40</title>
<g id="a_node30"><a xlink:href="methods_8h.html" target="_top" xlink:title=" ">
<polygon fill="none" stroke="black" points="338,-112.5 338,-131.5 416,-131.5 416,-112.5 338,-112.5"/>
<text text-anchor="middle" x="377" y="-119.5" font-family="Arial" font-size="10.00">util/methods.h</text>
</a>
</g>
</g>
<!-- Node39&#45;&gt;Node40 -->
<g id="edge60" class="edge">
<title>Node39&#45;&gt;Node40</title>
<path fill="none" stroke="midnightblue" d="M466.81,-168.32C449.65,-159.66 423.05,-146.24 403.25,-136.25"/>
<polygon fill="midnightblue" stroke="midnightblue" points="404.65,-133.04 394.15,-131.65 401.5,-139.28 404.65,-133.04"/>
</g>
<!-- Node43 -->
<g id="node33" class="node">
<title>Node43</title>
<g id="a_node33"><a xlink:href="nflannSetup_8h.html" target="_top" xlink:title=" ">
<polygon fill="none" stroke="black" points="472.5,-112.5 472.5,-131.5 549.5,-131.5 549.5,-112.5 472.5,-112.5"/>
<text text-anchor="middle" x="511" y="-119.5" font-family="Arial" font-size="10.00">nflannSetup.h</text>
</a>
</g>
</g>
<!-- Node39&#45;&gt;Node43 -->
<g id="edge71" class="edge">
<title>Node39&#45;&gt;Node43</title>
<path fill="none" stroke="midnightblue" d="M488.46,-168.08C492.15,-160.69 497.52,-149.95 502.09,-140.81"/>
<polygon fill="midnightblue" stroke="midnightblue" points="505.28,-142.26 506.62,-131.75 499.02,-139.13 505.28,-142.26"/>
</g>
<!-- Node40&#45;&gt;Node2 -->
<g id="edge61" class="edge">
<title>Node40&#45;&gt;Node2</title>
<path fill="none" stroke="midnightblue" d="M416.17,-115.21C467.07,-107.53 558.91,-93.14 646.73,-76.16"/>
<polygon fill="midnightblue" stroke="midnightblue" points="647.45,-79.59 656.59,-74.24 646.11,-72.72 647.45,-79.59"/>
</g>
<!-- Node40&#45;&gt;Node7 -->
<g id="edge64" class="edge">
<title>Node40&#45;&gt;Node7</title>
<path fill="none" stroke="midnightblue" d="M382.48,-112.43C392.26,-97.97 414.23,-69.02 441,-56 445.14,-53.99 713.8,-24.69 807.88,-14.48"/>
<polygon fill="midnightblue" stroke="midnightblue" points="808.39,-17.94 817.96,-13.39 807.64,-10.99 808.39,-17.94"/>
</g>
<!-- Node40&#45;&gt;Node16 -->
<g id="edge67" class="edge">
<title>Node40&#45;&gt;Node16</title>
<path fill="none" stroke="midnightblue" d="M416.05,-116.55C490.82,-107.94 652.67,-88.86 726.55,-76.05"/>
<polygon fill="midnightblue" stroke="midnightblue" points="727.57,-79.42 736.79,-74.2 726.33,-72.53 727.57,-79.42"/>
</g>
<!-- Node40&#45;&gt;Node17 -->
<g id="edge63" class="edge">
<title>Node40&#45;&gt;Node17</title>
<path fill="none" stroke="midnightblue" d="M354.02,-112.44C329.84,-103.44 291.58,-89.19 264.35,-79.05"/>
<polygon fill="midnightblue" stroke="midnightblue" points="265.46,-75.73 254.87,-75.52 263.02,-82.29 265.46,-75.73"/>
</g>
<!-- Node40&#45;&gt;Node23 -->
<g id="edge62" class="edge">
<title>Node40&#45;&gt;Node23</title>
<path fill="none" stroke="midnightblue" d="M342.34,-112.46C308.63,-104.1 255.73,-90.81 200.94,-76.2"/>
<polygon fill="midnightblue" stroke="midnightblue" points="201.62,-72.76 191.05,-73.56 199.81,-79.52 201.62,-72.76"/>
</g>
<!-- Node41 -->
<g id="node31" class="node">
<title>Node41</title>
<g id="a_node31"><a xlink:title=" ">
<polygon fill="none" stroke="#bfbfbf" points="343,-56.5 343,-75.5 389,-75.5 389,-56.5 343,-56.5"/>
<text text-anchor="middle" x="366" y="-63.5" font-family="Arial" font-size="10.00">chrono</text>
</a>
</g>
</g>
<!-- Node40&#45;&gt;Node41 -->
<g id="edge65" class="edge">
<title>Node40&#45;&gt;Node41</title>
<path fill="none" stroke="midnightblue" d="M375.18,-112.08C373.73,-104.93 371.63,-94.64 369.81,-85.69"/>
<polygon fill="midnightblue" stroke="midnightblue" points="373.21,-84.85 367.78,-75.75 366.35,-86.25 373.21,-84.85"/>
</g>
<!-- Node42 -->
<g id="node32" class="node">
<title>Node42</title>
<g id="a_node32"><a xlink:title=" ">
<polygon fill="none" stroke="#bfbfbf" points="273.5,-56.5 273.5,-75.5 324.5,-75.5 324.5,-56.5 273.5,-56.5"/>
<text text-anchor="middle" x="299" y="-63.5" font-family="Arial" font-size="10.00">numeric</text>
</a>
</g>
</g>
<!-- Node40&#45;&gt;Node42 -->
<g id="edge66" class="edge">
<title>Node40&#45;&gt;Node42</title>
<path fill="none" stroke="midnightblue" d="M364.47,-112.32C352.41,-103.98 333.97,-91.21 319.73,-81.35"/>
<polygon fill="midnightblue" stroke="midnightblue" points="321.72,-78.47 311.5,-75.65 317.73,-84.22 321.72,-78.47"/>
</g>
<!-- Node43&#45;&gt;Node2 -->
<g id="edge72" class="edge">
<title>Node43&#45;&gt;Node2</title>
<path fill="none" stroke="midnightblue" d="M539.05,-112.44C569.08,-103.28 616.91,-88.69 650.24,-78.52"/>
<polygon fill="midnightblue" stroke="midnightblue" points="651.54,-81.78 660.09,-75.52 649.5,-75.09 651.54,-81.78"/>
</g>
<!-- Node44 -->
<g id="node34" class="node">
<title>Node44</title>
<g id="a_node34"><a xlink:title=" ">
<polygon fill="none" stroke="#bfbfbf" points="483,-56.5 483,-75.5 639,-75.5 639,-56.5 483,-56.5"/>
<text text-anchor="middle" x="561" y="-63.5" font-family="Arial" font-size="10.00">nanoflann/include/nanoflann.hpp</text>
</a>
</g>
</g>
<!-- Node43&#45;&gt;Node44 -->
<g id="edge73" class="edge">
<title>Node43&#45;&gt;Node44</title>
<path fill="none" stroke="midnightblue" d="M519.26,-112.08C526.46,-104.3 537.11,-92.8 545.85,-83.37"/>
<polygon fill="midnightblue" stroke="midnightblue" points="548.67,-85.47 552.9,-75.75 543.53,-80.71 548.67,-85.47"/>
</g>
</g>
</svg>
