<?xml version="1.0" encoding="UTF-8" standalone="no"?>
<!DOCTYPE svg PUBLIC "-//W3C//DTD SVG 1.1//EN"
 "http://www.w3.org/Graphics/SVG/1.1/DTD/svg11.dtd">
<!-- Generated by graphviz version 2.43.0 (0)
 -->
<!-- Title: /home/user/project/src/material/mparticle/material.h Pages: 1 -->
<svg width="1823pt" height="329pt"
 viewBox="0.00 0.00 1822.50 329.00" xmlns="http://www.w3.org/2000/svg" xmlns:xlink="http://www.w3.org/1999/xlink">
<g id="graph0" class="graph" transform="scale(1 1) rotate(0) translate(4 325)">
<title>/home/user/project/src/material/mparticle/material.h</title>
<!-- Node1 -->
<g id="node1" class="node">
<title>Node1</title>
<g id="a_node1"><a xlink:title=" ">
<polygon fill="#bfbfbf" stroke="black" points="907.5,-279.5 907.5,-320.5 1020.5,-320.5 1020.5,-279.5 907.5,-279.5"/>
<text text-anchor="start" x="915.5" y="-308.5" font-family="Arial" font-size="10.00">/home/user/project</text>
<text text-anchor="start" x="915.5" y="-297.5" font-family="Arial" font-size="10.00">/src/material/mparticle</text>
<text text-anchor="middle" x="964" y="-286.5" font-family="Arial" font-size="10.00">/material.h</text>
</a>
</g>
</g>
<!-- Node2 -->
<g id="node2" class="node">
<title>Node2</title>
<g id="a_node2"><a xlink:href="modelData_8h.html" target="_top" xlink:title=" ">
<polygon fill="none" stroke="black" points="859.5,-212.5 859.5,-242.5 980.5,-242.5 980.5,-212.5 859.5,-212.5"/>
<text text-anchor="start" x="867.5" y="-230.5" font-family="Arial" font-size="10.00">/home/user/project</text>
<text text-anchor="middle" x="920" y="-219.5" font-family="Arial" font-size="10.00">/src/model/modelData.h</text>
</a>
</g>
</g>
<!-- Node1&#45;&gt;Node2 -->
<g id="edge1" class="edge">
<title>Node1&#45;&gt;Node2</title>
<path fill="none" stroke="midnightblue" d="M946.43,-270.85C940.45,-261.26 934.01,-250.94 928.98,-242.89"/>
<polygon fill="midnightblue" stroke="midnightblue" points="943.48,-272.73 951.74,-279.36 949.42,-269.03 943.48,-272.73"/>
</g>
<!-- Node8 -->
<g id="node8" class="node">
<title>Node8</title>
<g id="a_node8"><a xlink:href="materialUtil_8h.html" target="_top" xlink:title=" ">
<polygon fill="none" stroke="black" points="589.5,-78.5 589.5,-108.5 720.5,-108.5 720.5,-78.5 589.5,-78.5"/>
<text text-anchor="start" x="597.5" y="-96.5" font-family="Arial" font-size="10.00">/home/user/project</text>
<text text-anchor="middle" x="655" y="-85.5" font-family="Arial" font-size="10.00">/src/material/materialUtil.h</text>
</a>
</g>
</g>
<!-- Node1&#45;&gt;Node8 -->
<g id="edge29" class="edge">
<title>Node1&#45;&gt;Node8</title>
<path fill="none" stroke="midnightblue" d="M910.55,-275.07C891.35,-265.81 869.8,-254.64 851,-243 780.4,-199.3 703.94,-136.28 671.28,-108.53"/>
<polygon fill="midnightblue" stroke="midnightblue" points="909.24,-278.32 919.77,-279.45 912.25,-271.99 909.24,-278.32"/>
</g>
<!-- Node12 -->
<g id="node12" class="node">
<title>Node12</title>
<g id="a_node12"><a xlink:href="refParticle_8h.html" target="_top" xlink:title=" ">
<polygon fill="none" stroke="black" points="1112.5,-145.5 1112.5,-175.5 1235.5,-175.5 1235.5,-145.5 1112.5,-145.5"/>
<text text-anchor="start" x="1120.5" y="-163.5" font-family="Arial" font-size="10.00">/home/user/project</text>
<text text-anchor="middle" x="1174" y="-152.5" font-family="Arial" font-size="10.00">/src/particle/refParticle.h</text>
</a>
</g>
</g>
<!-- Node1&#45;&gt;Node12 -->
<g id="edge30" class="edge">
<title>Node1&#45;&gt;Node12</title>
<path fill="none" stroke="midnightblue" d="M1002.54,-273.77C1046.65,-244.88 1117.35,-198.59 1152.59,-175.52"/>
<polygon fill="midnightblue" stroke="midnightblue" points="1000.54,-270.89 994.09,-279.3 1004.37,-276.75 1000.54,-270.89"/>
</g>
<!-- Node13 -->
<g id="node13" class="node">
<title>Node13</title>
<g id="a_node13"><a xlink:href="baseParticle_8h.html" target="_top" xlink:title=" ">
<polygon fill="none" stroke="black" points="922.5,-78.5 922.5,-108.5 1055.5,-108.5 1055.5,-78.5 922.5,-78.5"/>
<text text-anchor="start" x="930.5" y="-96.5" font-family="Arial" font-size="10.00">/home/user/project</text>
<text text-anchor="middle" x="989" y="-85.5" font-family="Arial" font-size="10.00">/src/particle/baseParticle.h</text>
</a>
</g>
</g>
<!-- Node1&#45;&gt;Node13 -->
<g id="edge31" class="edge">
<title>Node1&#45;&gt;Node13</title>
<path fill="none" stroke="midnightblue" d="M980.28,-270.18C984.27,-261.69 987.97,-252.2 990,-243 1000.67,-194.66 994.77,-135.3 991.16,-108.64"/>
<polygon fill="midnightblue" stroke="midnightblue" points="977.07,-268.76 975.73,-279.27 983.33,-271.89 977.07,-268.76"/>
</g>
<!-- Node3 -->
<g id="node3" class="node">
<title>Node3</title>
<g id="a_node3"><a xlink:href="demModel_8h.html" target="_top" xlink:title=" ">
<polygon fill="none" stroke="black" points="259,-78.5 259,-108.5 399,-108.5 399,-78.5 259,-78.5"/>
<text text-anchor="start" x="267" y="-96.5" font-family="Arial" font-size="10.00">/home/user/project</text>
<text text-anchor="middle" x="329" y="-85.5" font-family="Arial" font-size="10.00">/src/model/dem/demModel.h</text>
</a>
</g>
</g>
<!-- Node2&#45;&gt;Node3 -->
<g id="edge2" class="edge">
<title>Node2&#45;&gt;Node3</title>
<path fill="none" stroke="midnightblue" d="M849.38,-210.73C733.08,-184.75 503.08,-133.38 391.98,-108.57"/>
<polygon fill="midnightblue" stroke="midnightblue" points="848.73,-214.17 859.25,-212.93 850.26,-207.34 848.73,-214.17"/>
</g>
<!-- Node2&#45;&gt;Node8 -->
<g id="edge7" class="edge">
<title>Node2&#45;&gt;Node8</title>
<path fill="none" stroke="midnightblue" d="M887.46,-207.21C858.01,-190.04 813.2,-164.68 773,-145 745.78,-131.67 714.18,-118.25 690.53,-108.6"/>
<polygon fill="midnightblue" stroke="midnightblue" points="886.06,-210.44 896.46,-212.47 889.6,-204.4 886.06,-210.44"/>
</g>
<!-- Node11 -->
<g id="node11" class="node">
<title>Node11</title>
<g id="a_node11"><a xlink:href="modelData_8cpp.html" target="_top" xlink:title=" ">
<polygon fill="none" stroke="black" points="1683.5,-6 1683.5,-36 1814.5,-36 1814.5,-6 1683.5,-6"/>
<text text-anchor="start" x="1691.5" y="-24" font-family="Arial" font-size="10.00">/home/user/project</text>
<text text-anchor="middle" x="1749" y="-13" font-family="Arial" font-size="10.00">/src/model/modelData.cpp</text>
</a>
</g>
</g>
<!-- Node2&#45;&gt;Node11 -->
<g id="edge12" class="edge">
<title>Node2&#45;&gt;Node11</title>
<path fill="none" stroke="midnightblue" d="M991.01,-218.42C1057.22,-210.2 1158.49,-195.83 1245,-176 1421.35,-135.57 1625.99,-65.71 1709.98,-36.01"/>
<polygon fill="midnightblue" stroke="midnightblue" points="990.19,-215 980.69,-219.69 991.04,-221.95 990.19,-215"/>
</g>
<!-- Node2&#45;&gt;Node12 -->
<g id="edge13" class="edge">
<title>Node2&#45;&gt;Node12</title>
<path fill="none" stroke="midnightblue" d="M984.54,-209.98C1026.03,-199.37 1079.36,-185.72 1118.86,-175.61"/>
<polygon fill="midnightblue" stroke="midnightblue" points="983.62,-206.61 974.8,-212.48 985.36,-213.39 983.62,-206.61"/>
</g>
<!-- Node2&#45;&gt;Node13 -->
<g id="edge26" class="edge">
<title>Node2&#45;&gt;Node13</title>
<path fill="none" stroke="midnightblue" d="M932.04,-203.48C946.36,-176.07 969.82,-131.19 981.67,-108.52"/>
<polygon fill="midnightblue" stroke="midnightblue" points="928.92,-201.89 927.38,-212.37 935.12,-205.13 928.92,-201.89"/>
</g>
<!-- Node16 -->
<g id="node16" class="node">
<title>Node16</title>
<g id="a_node16"><a xlink:href="vtkParticleReader_8cpp.html" target="_top" xlink:title=" ">
<polygon fill="none" stroke="black" points="869,-6 869,-36 1015,-36 1015,-6 869,-6"/>
<text text-anchor="start" x="877" y="-24" font-family="Arial" font-size="10.00">/home/user/project</text>
<text text-anchor="middle" x="942" y="-13" font-family="Arial" font-size="10.00">/src/rw/vtkParticleReader.cpp</text>
</a>
</g>
</g>
<!-- Node2&#45;&gt;Node16 -->
<g id="edge27" class="edge">
<title>Node2&#45;&gt;Node16</title>
<path fill="none" stroke="midnightblue" d="M915.1,-202.46C909.95,-172.77 903.86,-120.94 914,-78 917.6,-62.77 926.01,-46.95 932.68,-36.03"/>
<polygon fill="midnightblue" stroke="midnightblue" points="911.67,-203.14 916.93,-212.34 918.55,-201.87 911.67,-203.14"/>
</g>
<!-- Node17 -->
<g id="node17" class="node">
<title>Node17</title>
<g id="a_node17"><a xlink:href="vtkParticleWriter_8cpp.html" target="_top" xlink:title=" ">
<polygon fill="none" stroke="black" points="1525,-6 1525,-36 1665,-36 1665,-6 1525,-6"/>
<text text-anchor="start" x="1533" y="-24" font-family="Arial" font-size="10.00">/home/user/project</text>
<text text-anchor="middle" x="1595" y="-13" font-family="Arial" font-size="10.00">/src/rw/vtkParticleWriter.cpp</text>
</a>
</g>
</g>
<!-- Node2&#45;&gt;Node17 -->
<g id="edge28" class="edge">
<title>Node2&#45;&gt;Node17</title>
<path fill="none" stroke="midnightblue" d="M945.4,-205.96C974.36,-182.53 1023.13,-143.05 1065,-109 1081.91,-95.25 1082.8,-86.2 1103,-78 1273.72,-8.7 1334.33,-72.71 1516,-42 1525.35,-40.42 1535.21,-38.3 1544.68,-36.02"/>
<polygon fill="midnightblue" stroke="midnightblue" points="943,-203.4 937.42,-212.41 947.4,-208.84 943,-203.4"/>
</g>
<!-- Node4 -->
<g id="node4" class="node">
<title>Node4</title>
<g id="a_node4"><a xlink:href="apps_2twop_2main_8cpp.html" target="_top" xlink:title=" ">
<polygon fill="none" stroke="black" points="422.5,-6 422.5,-36 529.5,-36 529.5,-6 422.5,-6"/>
<text text-anchor="start" x="430.5" y="-24" font-family="Arial" font-size="10.00">/home/user/project</text>
<text text-anchor="middle" x="476" y="-13" font-family="Arial" font-size="10.00">/apps/twop/main.cpp</text>
</a>
</g>
</g>
<!-- Node3&#45;&gt;Node4 -->
<g id="edge3" class="edge">
<title>Node3&#45;&gt;Node4</title>
<path fill="none" stroke="midnightblue" d="M367.51,-74.03C392.27,-62.16 423.94,-46.97 446.66,-36.07"/>
<polygon fill="midnightblue" stroke="midnightblue" points="365.9,-70.92 358.39,-78.4 368.92,-77.23 365.9,-70.92"/>
</g>
<!-- Node5 -->
<g id="node5" class="node">
<title>Node5</title>
<g id="a_node5"><a xlink:href="src_2main_8cpp.html" target="_top" xlink:title=" ">
<polygon fill="none" stroke="black" points="0,-6 0,-36 98,-36 98,-6 0,-6"/>
<text text-anchor="start" x="8" y="-24" font-family="Arial" font-size="10.00">/home/user/project</text>
<text text-anchor="middle" x="49" y="-13" font-family="Arial" font-size="10.00">/src/main.cpp</text>
</a>
</g>
</g>
<!-- Node3&#45;&gt;Node5 -->
<g id="edge4" class="edge">
<title>Node3&#45;&gt;Node5</title>
<path fill="none" stroke="midnightblue" d="M248.53,-76.39C206.14,-67.36 153.45,-55.25 107,-42 100.75,-40.22 94.19,-38.15 87.81,-36.03"/>
<polygon fill="midnightblue" stroke="midnightblue" points="248.01,-79.86 258.52,-78.51 249.46,-73.01 248.01,-79.86"/>
</g>
<!-- Node6 -->
<g id="node6" class="node">
<title>Node6</title>
<g id="a_node6"><a xlink:href="demModel_8cpp.html" target="_top" xlink:title=" ">
<polygon fill="none" stroke="black" points="253.5,-6 253.5,-36 404.5,-36 404.5,-6 253.5,-6"/>
<text text-anchor="start" x="261.5" y="-24" font-family="Arial" font-size="10.00">/home/user/project</text>
<text text-anchor="middle" x="329" y="-13" font-family="Arial" font-size="10.00">/src/model/dem/demModel.cpp</text>
</a>
</g>
</g>
<!-- Node3&#45;&gt;Node6 -->
<g id="edge5" class="edge">
<title>Node3&#45;&gt;Node6</title>
<path fill="none" stroke="midnightblue" d="M329,-68.23C329,-57.57 329,-45.41 329,-36.25"/>
<polygon fill="midnightblue" stroke="midnightblue" points="325.5,-68.23 329,-78.23 332.5,-68.23 325.5,-68.23"/>
</g>
<!-- Node7 -->
<g id="node7" class="node">
<title>Node7</title>
<g id="a_node7"><a xlink:href="testPeriDEMLib_8cpp.html" target="_top" xlink:title=" ">
<polygon fill="none" stroke="black" points="116.5,-0.5 116.5,-41.5 235.5,-41.5 235.5,-0.5 116.5,-0.5"/>
<text text-anchor="start" x="124.5" y="-29.5" font-family="Arial" font-size="10.00">/home/user/project</text>
<text text-anchor="start" x="124.5" y="-18.5" font-family="Arial" font-size="10.00">/test/test_exec/peridem</text>
<text text-anchor="middle" x="176" y="-7.5" font-family="Arial" font-size="10.00">/testPeriDEMLib.cpp</text>
</a>
</g>
</g>
<!-- Node3&#45;&gt;Node7 -->
<g id="edge6" class="edge">
<title>Node3&#45;&gt;Node7</title>
<path fill="none" stroke="midnightblue" d="M289.13,-74.13C267.41,-64.12 240.53,-51.73 218.42,-41.55"/>
<polygon fill="midnightblue" stroke="midnightblue" points="287.86,-77.4 298.41,-78.4 290.79,-71.04 287.86,-77.4"/>
</g>
<!-- Node8&#45;&gt;Node4 -->
<g id="edge8" class="edge">
<title>Node8&#45;&gt;Node4</title>
<path fill="none" stroke="midnightblue" d="M609.69,-74.65C579.32,-62.69 539.89,-47.16 511.73,-36.07"/>
<polygon fill="midnightblue" stroke="midnightblue" points="608.62,-77.99 619.21,-78.4 611.19,-71.48 608.62,-77.99"/>
</g>
<!-- Node8&#45;&gt;Node6 -->
<g id="edge10" class="edge">
<title>Node8&#45;&gt;Node6</title>
<path fill="none" stroke="midnightblue" d="M579.46,-77.3C531.67,-67.55 468.63,-54.42 413,-42 404.66,-40.14 395.87,-38.11 387.24,-36.09"/>
<polygon fill="midnightblue" stroke="midnightblue" points="578.92,-80.76 589.41,-79.33 580.31,-73.91 578.92,-80.76"/>
</g>
<!-- Node9 -->
<g id="node9" class="node">
<title>Node9</title>
<g id="a_node9"><a xlink:href="materialUtil_8cpp.html" target="_top" xlink:title=" ">
<polygon fill="none" stroke="black" points="709,-6 709,-36 851,-36 851,-6 709,-6"/>
<text text-anchor="start" x="717" y="-24" font-family="Arial" font-size="10.00">/home/user/project</text>
<text text-anchor="middle" x="780" y="-13" font-family="Arial" font-size="10.00">/src/material/materialUtil.cpp</text>
</a>
</g>
</g>
<!-- Node8&#45;&gt;Node9 -->
<g id="edge9" class="edge">
<title>Node8&#45;&gt;Node9</title>
<path fill="none" stroke="midnightblue" d="M688.87,-73.4C709.75,-61.62 736.07,-46.78 755.05,-36.07"/>
<polygon fill="midnightblue" stroke="midnightblue" points="686.99,-70.44 680,-78.4 690.42,-76.54 686.99,-70.44"/>
</g>
<!-- Node10 -->
<g id="node10" class="node">
<title>Node10</title>
<g id="a_node10"><a xlink:href="baseParticle_8cpp.html" target="_top" xlink:title=" ">
<polygon fill="none" stroke="black" points="547.5,-6 547.5,-36 690.5,-36 690.5,-6 547.5,-6"/>
<text text-anchor="start" x="555.5" y="-24" font-family="Arial" font-size="10.00">/home/user/project</text>
<text text-anchor="middle" x="619" y="-13" font-family="Arial" font-size="10.00">/src/particle/baseParticle.cpp</text>
</a>
</g>
</g>
<!-- Node8&#45;&gt;Node10 -->
<g id="edge11" class="edge">
<title>Node8&#45;&gt;Node10</title>
<path fill="none" stroke="midnightblue" d="M643.12,-69.23C637.55,-58.33 631.1,-45.7 626.27,-36.25"/>
<polygon fill="midnightblue" stroke="midnightblue" points="640.05,-70.92 647.71,-78.23 646.28,-67.74 640.05,-70.92"/>
</g>
<!-- Node12&#45;&gt;Node13 -->
<g id="edge14" class="edge">
<title>Node12&#45;&gt;Node13</title>
<path fill="none" stroke="midnightblue" d="M1124.06,-141.96C1094.26,-131.48 1056.93,-118.37 1029.06,-108.58"/>
<polygon fill="midnightblue" stroke="midnightblue" points="1123.26,-145.38 1133.86,-145.4 1125.58,-138.78 1123.26,-145.38"/>
</g>
<!-- Node19 -->
<g id="node19" class="node">
<title>Node19</title>
<g id="a_node19"><a xlink:href="refParticle_8cpp.html" target="_top" xlink:title=" ">
<polygon fill="none" stroke="black" points="1112,-78.5 1112,-108.5 1246,-108.5 1246,-78.5 1112,-78.5"/>
<text text-anchor="start" x="1120" y="-96.5" font-family="Arial" font-size="10.00">/home/user/project</text>
<text text-anchor="middle" x="1179" y="-85.5" font-family="Arial" font-size="10.00">/src/particle/refParticle.cpp</text>
</a>
</g>
</g>
<!-- Node12&#45;&gt;Node19 -->
<g id="edge25" class="edge">
<title>Node12&#45;&gt;Node19</title>
<path fill="none" stroke="midnightblue" d="M1175.85,-135.4C1176.55,-126.37 1177.31,-116.41 1177.92,-108.58"/>
<polygon fill="midnightblue" stroke="midnightblue" points="1172.36,-135.16 1175.08,-145.4 1179.34,-135.69 1172.36,-135.16"/>
</g>
<!-- Node13&#45;&gt;Node4 -->
<g id="edge15" class="edge">
<title>Node13&#45;&gt;Node4</title>
<path fill="none" stroke="midnightblue" d="M912.06,-88.59C821.68,-82.92 667.61,-69.87 538,-42 530.59,-40.41 522.81,-38.28 515.37,-36"/>
<polygon fill="midnightblue" stroke="midnightblue" points="912.03,-92.09 922.22,-89.21 912.46,-85.11 912.03,-92.09"/>
</g>
<!-- Node13&#45;&gt;Node6 -->
<g id="edge19" class="edge">
<title>Node13&#45;&gt;Node6</title>
<path fill="none" stroke="midnightblue" d="M912,-89.33C801.11,-83.96 590.29,-70.72 413,-42 403.23,-40.42 392.92,-38.32 382.99,-36.08"/>
<polygon fill="midnightblue" stroke="midnightblue" points="911.93,-92.83 922.09,-89.81 912.27,-85.84 911.93,-92.83"/>
</g>
<!-- Node13&#45;&gt;Node9 -->
<g id="edge18" class="edge">
<title>Node13&#45;&gt;Node9</title>
<path fill="none" stroke="midnightblue" d="M937.73,-75.2C902.09,-63.18 855.19,-47.36 821.82,-36.11"/>
<polygon fill="midnightblue" stroke="midnightblue" points="936.86,-78.61 947.46,-78.49 939.1,-71.97 936.86,-78.61"/>
</g>
<!-- Node13&#45;&gt;Node10 -->
<g id="edge21" class="edge">
<title>Node13&#45;&gt;Node10</title>
<path fill="none" stroke="midnightblue" d="M912.57,-80.62C854.15,-71.19 771.73,-57.1 700,-42 691.5,-40.21 682.53,-38.16 673.78,-36.07"/>
<polygon fill="midnightblue" stroke="midnightblue" points="912.03,-84.08 922.46,-82.21 913.15,-77.17 912.03,-84.08"/>
</g>
<!-- Node13&#45;&gt;Node11 -->
<g id="edge20" class="edge">
<title>Node13&#45;&gt;Node11</title>
<path fill="none" stroke="midnightblue" d="M1065.48,-82.09C1078.01,-80.58 1090.85,-79.15 1103,-78 1356.14,-53.95 1423.04,-82.96 1674,-42 1683.18,-40.5 1692.86,-38.36 1702.1,-36.03"/>
<polygon fill="midnightblue" stroke="midnightblue" points="1065.03,-78.62 1055.53,-83.32 1065.88,-85.57 1065.03,-78.62"/>
</g>
<!-- Node14 -->
<g id="node14" class="node">
<title>Node14</title>
<g id="a_node14"><a xlink:href="particleFLoading_8cpp.html" target="_top" xlink:title=" ">
<polygon fill="none" stroke="black" points="1033,-6 1033,-36 1193,-36 1193,-6 1033,-6"/>
<text text-anchor="start" x="1041" y="-24" font-family="Arial" font-size="10.00">/home/user/project</text>
<text text-anchor="middle" x="1113" y="-13" font-family="Arial" font-size="10.00">/src/loading/particleFLoading.cpp</text>
</a>
</g>
</g>
<!-- Node13&#45;&gt;Node14 -->
<g id="edge16" class="edge">
<title>Node13&#45;&gt;Node14</title>
<path fill="none" stroke="midnightblue" d="M1022.6,-73.4C1043.31,-61.62 1069.42,-46.78 1088.25,-36.07"/>
<polygon fill="midnightblue" stroke="midnightblue" points="1020.76,-70.42 1013.8,-78.4 1024.22,-76.5 1020.76,-70.42"/>
</g>
<!-- Node15 -->
<g id="node15" class="node">
<title>Node15</title>
<g id="a_node15"><a xlink:href="particleULoading_8cpp.html" target="_top" xlink:title=" ">
<polygon fill="none" stroke="black" points="1211.5,-6 1211.5,-36 1372.5,-36 1372.5,-6 1211.5,-6"/>
<text text-anchor="start" x="1219.5" y="-24" font-family="Arial" font-size="10.00">/home/user/project</text>
<text text-anchor="middle" x="1292" y="-13" font-family="Arial" font-size="10.00">/src/loading/particleULoading.cpp</text>
</a>
</g>
</g>
<!-- Node13&#45;&gt;Node15 -->
<g id="edge17" class="edge">
<title>Node13&#45;&gt;Node15</title>
<path fill="none" stroke="midnightblue" d="M1059.08,-76.19C1111.31,-64.04 1181.89,-47.62 1231.63,-36.05"/>
<polygon fill="midnightblue" stroke="midnightblue" points="1058.17,-72.81 1049.23,-78.49 1059.76,-79.63 1058.17,-72.81"/>
</g>
<!-- Node13&#45;&gt;Node16 -->
<g id="edge22" class="edge">
<title>Node13&#45;&gt;Node16</title>
<path fill="none" stroke="midnightblue" d="M973.92,-69.89C966.56,-58.84 957.93,-45.89 951.5,-36.25"/>
<polygon fill="midnightblue" stroke="midnightblue" points="971.03,-71.85 979.49,-78.23 976.85,-67.97 971.03,-71.85"/>
</g>
<!-- Node13&#45;&gt;Node17 -->
<g id="edge23" class="edge">
<title>Node13&#45;&gt;Node17</title>
<path fill="none" stroke="midnightblue" d="M1065.58,-78.59C1067.06,-78.39 1068.54,-78.19 1070,-78 1267.22,-52.45 1319.81,-74.52 1516,-42 1525.35,-40.45 1535.22,-38.34 1544.69,-36.07"/>
<polygon fill="midnightblue" stroke="midnightblue" points="1065.06,-75.13 1055.67,-80.04 1066.07,-82.06 1065.06,-75.13"/>
</g>
<!-- Node18 -->
<g id="node18" class="node">
<title>Node18</title>
<g id="a_node18"><a xlink:href="testParticleLib_8cpp.html" target="_top" xlink:title=" ">
<polygon fill="none" stroke="black" points="1391,-0.5 1391,-41.5 1507,-41.5 1507,-0.5 1391,-0.5"/>
<text text-anchor="start" x="1399" y="-29.5" font-family="Arial" font-size="10.00">/home/user/project</text>
<text text-anchor="start" x="1399" y="-18.5" font-family="Arial" font-size="10.00">/test/test_exec/particle</text>
<text text-anchor="middle" x="1449" y="-7.5" font-family="Arial" font-size="10.00">/testParticleLib.cpp</text>
</a>
</g>
</g>
<!-- Node13&#45;&gt;Node18 -->
<g id="edge24" class="edge">
<title>Node13&#45;&gt;Node18</title>
<path fill="none" stroke="midnightblue" d="M1065.59,-78.66C1067.07,-78.43 1068.54,-78.21 1070,-78 1208.1,-57.69 1245.26,-70.07 1382,-42 1384.85,-41.41 1387.76,-40.76 1390.69,-40.06"/>
<polygon fill="midnightblue" stroke="midnightblue" points="1065.02,-75.21 1055.69,-80.22 1066.11,-82.12 1065.02,-75.21"/>
</g>
</g>
</svg>
