<?xml version="1.0" encoding="UTF-8" standalone="no"?>
<!DOCTYPE svg PUBLIC "-//W3C//DTD SVG 1.1//EN"
 "http://www.w3.org/Graphics/SVG/1.1/DTD/svg11.dtd">
<!-- Generated by graphviz version 2.43.0 (0)
 -->
<!-- Title: /home/user/project/src/inp/decks/materialDeck.h Pages: 1 -->
<svg width="557pt" height="207pt"
 viewBox="0.00 0.00 556.51 207.00" xmlns="http://www.w3.org/2000/svg" xmlns:xlink="http://www.w3.org/1999/xlink">
<g id="graph0" class="graph" transform="scale(1 1) rotate(0) translate(4 203)">
<title>/home/user/project/src/inp/decks/materialDeck.h</title>
<!-- Node1 -->
<g id="node1" class="node">
<title>Node1</title>
<g id="a_node1"><a xlink:title=" ">
<polygon fill="#bfbfbf" stroke="black" points="207.5,-168.5 207.5,-198.5 354.5,-198.5 354.5,-168.5 207.5,-168.5"/>
<text text-anchor="start" x="215.5" y="-186.5" font-family="Arial" font-size="10.00">/home/user/project</text>
<text text-anchor="middle" x="281" y="-175.5" font-family="Arial" font-size="10.00">/src/inp/decks/materialDeck.h</text>
</a>
</g>
</g>
<!-- Node2 -->
<g id="node2" class="node">
<title>Node2</title>
<g id="a_node2"><a xlink:href="io_8h.html" target="_top" xlink:title=" ">
<polygon fill="none" stroke="black" points="283,-112.5 283,-131.5 331,-131.5 331,-112.5 283,-112.5"/>
<text text-anchor="middle" x="307" y="-119.5" font-family="Arial" font-size="10.00">util/io.h</text>
</a>
</g>
</g>
<!-- Node1&#45;&gt;Node2 -->
<g id="edge1" class="edge">
<title>Node1&#45;&gt;Node2</title>
<path fill="none" stroke="midnightblue" d="M287.16,-168.4C290.74,-160.2 295.3,-149.78 299.14,-140.99"/>
<polygon fill="midnightblue" stroke="midnightblue" points="302.42,-142.22 303.22,-131.66 296.01,-139.42 302.42,-142.22"/>
</g>
<!-- Node4 -->
<g id="node4" class="node">
<title>Node4</title>
<g id="a_node4"><a xlink:title=" ">
<polygon fill="none" stroke="#bfbfbf" points="0,-0.5 0,-19.5 44,-19.5 44,-0.5 0,-0.5"/>
<text text-anchor="middle" x="22" y="-7.5" font-family="Arial" font-size="10.00">cmath</text>
</a>
</g>
</g>
<!-- Node1&#45;&gt;Node4 -->
<g id="edge17" class="edge">
<title>Node1&#45;&gt;Node4</title>
<path fill="none" stroke="midnightblue" d="M259.8,-168.47C211.23,-136.3 92.29,-57.54 43.46,-25.21"/>
<polygon fill="midnightblue" stroke="midnightblue" points="45.2,-22.16 34.93,-19.56 41.33,-28 45.2,-22.16"/>
</g>
<!-- Node8 -->
<g id="node8" class="node">
<title>Node8</title>
<g id="a_node8"><a xlink:title=" ">
<polygon fill="none" stroke="#bfbfbf" points="272,-0.5 272,-19.5 316,-19.5 316,-0.5 272,-0.5"/>
<text text-anchor="middle" x="294" y="-7.5" font-family="Arial" font-size="10.00">vector</text>
</a>
</g>
</g>
<!-- Node1&#45;&gt;Node8 -->
<g id="edge19" class="edge">
<title>Node1&#45;&gt;Node8</title>
<path fill="none" stroke="midnightblue" d="M278.52,-168.41C276.87,-158.31 274.85,-144.36 274,-132 271.47,-95.33 281.45,-53.08 288.22,-29.46"/>
<polygon fill="midnightblue" stroke="midnightblue" points="291.61,-30.32 291.13,-19.74 284.91,-28.31 291.61,-30.32"/>
</g>
<!-- Node11 -->
<g id="node11" class="node">
<title>Node11</title>
<g id="a_node11"><a xlink:title=" ">
<polygon fill="none" stroke="#bfbfbf" points="500.5,-0.5 500.5,-19.5 541.5,-19.5 541.5,-0.5 500.5,-0.5"/>
<text text-anchor="middle" x="521" y="-7.5" font-family="Arial" font-size="10.00">string</text>
</a>
</g>
</g>
<!-- Node1&#45;&gt;Node11 -->
<g id="edge18" class="edge">
<title>Node1&#45;&gt;Node11</title>
<path fill="none" stroke="midnightblue" d="M354.62,-174.9C416.72,-164.17 502.02,-138.3 544,-76 553.99,-61.18 544.5,-41.54 534.86,-27.74"/>
<polygon fill="midnightblue" stroke="midnightblue" points="537.54,-25.48 528.71,-19.63 531.96,-29.71 537.54,-25.48"/>
</g>
<!-- Node3 -->
<g id="node3" class="node">
<title>Node3</title>
<g id="a_node3"><a xlink:href="point_8h.html" target="_top" xlink:title=" ">
<polygon fill="none" stroke="black" points="137,-56.5 137,-75.5 183,-75.5 183,-56.5 137,-56.5"/>
<text text-anchor="middle" x="160" y="-63.5" font-family="Arial" font-size="10.00">point.h</text>
</a>
</g>
</g>
<!-- Node2&#45;&gt;Node3 -->
<g id="edge2" class="edge">
<title>Node2&#45;&gt;Node3</title>
<path fill="none" stroke="midnightblue" d="M283.71,-112.44C259.19,-103.44 220.4,-89.19 192.8,-79.05"/>
<polygon fill="midnightblue" stroke="midnightblue" points="193.78,-75.68 183.18,-75.52 191.36,-82.25 193.78,-75.68"/>
</g>
<!-- Node7 -->
<g id="node7" class="node">
<title>Node7</title>
<g id="a_node7"><a xlink:title=" ">
<polygon fill="none" stroke="#bfbfbf" points="200,-0.5 200,-19.5 254,-19.5 254,-0.5 200,-0.5"/>
<text text-anchor="middle" x="227" y="-7.5" font-family="Arial" font-size="10.00">iostream</text>
</a>
</g>
</g>
<!-- Node2&#45;&gt;Node7 -->
<g id="edge14" class="edge">
<title>Node2&#45;&gt;Node7</title>
<path fill="none" stroke="midnightblue" d="M300.72,-112.37C287.52,-94.22 256.67,-51.8 239.36,-27.99"/>
<polygon fill="midnightblue" stroke="midnightblue" points="241.96,-25.62 233.25,-19.59 236.3,-29.74 241.96,-25.62"/>
</g>
<!-- Node2&#45;&gt;Node8 -->
<g id="edge15" class="edge">
<title>Node2&#45;&gt;Node8</title>
<path fill="none" stroke="midnightblue" d="M305.98,-112.37C303.88,-94.62 299.04,-53.67 296.2,-29.6"/>
<polygon fill="midnightblue" stroke="midnightblue" points="299.66,-29.11 295.02,-19.59 292.71,-29.93 299.66,-29.11"/>
</g>
<!-- Node9 -->
<g id="node9" class="node">
<title>Node9</title>
<g id="a_node9"><a xlink:href="parallelUtil_8h.html" target="_top" xlink:title=" ">
<polygon fill="none" stroke="black" points="321.5,-56.5 321.5,-75.5 392.5,-75.5 392.5,-56.5 321.5,-56.5"/>
<text text-anchor="middle" x="357" y="-63.5" font-family="Arial" font-size="10.00">parallelUtil.h</text>
</a>
</g>
</g>
<!-- Node2&#45;&gt;Node9 -->
<g id="edge8" class="edge">
<title>Node2&#45;&gt;Node9</title>
<path fill="none" stroke="midnightblue" d="M315.26,-112.08C322.46,-104.3 333.11,-92.8 341.85,-83.37"/>
<polygon fill="midnightblue" stroke="midnightblue" points="344.67,-85.47 348.9,-75.75 339.53,-80.71 344.67,-85.47"/>
</g>
<!-- Node13 -->
<g id="node13" class="node">
<title>Node13</title>
<g id="a_node13"><a xlink:title=" ">
<polygon fill="none" stroke="#bfbfbf" points="411,-56.5 411,-75.5 461,-75.5 461,-56.5 411,-56.5"/>
<text text-anchor="middle" x="436" y="-63.5" font-family="Arial" font-size="10.00">fstream</text>
</a>
</g>
</g>
<!-- Node2&#45;&gt;Node13 -->
<g id="edge13" class="edge">
<title>Node2&#45;&gt;Node13</title>
<path fill="none" stroke="midnightblue" d="M327.44,-112.44C348.67,-103.56 382.1,-89.56 406.25,-79.45"/>
<polygon fill="midnightblue" stroke="midnightblue" points="407.78,-82.61 415.66,-75.52 405.08,-76.15 407.78,-82.61"/>
</g>
<!-- Node14 -->
<g id="node14" class="node">
<title>Node14</title>
<g id="a_node14"><a xlink:title=" ">
<polygon fill="none" stroke="#bfbfbf" points="479,-56.5 479,-75.5 535,-75.5 535,-56.5 479,-56.5"/>
<text text-anchor="middle" x="507" y="-63.5" font-family="Arial" font-size="10.00">algorithm</text>
</a>
</g>
</g>
<!-- Node2&#45;&gt;Node14 -->
<g id="edge16" class="edge">
<title>Node2&#45;&gt;Node14</title>
<path fill="none" stroke="midnightblue" d="M331.12,-114.49C365.41,-105.23 428.57,-88.18 469.14,-77.22"/>
<polygon fill="midnightblue" stroke="midnightblue" points="470.19,-80.56 478.93,-74.58 468.37,-73.81 470.19,-80.56"/>
</g>
<!-- Node3&#45;&gt;Node4 -->
<g id="edge3" class="edge">
<title>Node3&#45;&gt;Node4</title>
<path fill="none" stroke="midnightblue" d="M138.13,-56.44C115.22,-47.48 79.02,-33.31 53.13,-23.18"/>
<polygon fill="midnightblue" stroke="midnightblue" points="54.35,-19.9 43.76,-19.52 51.8,-26.42 54.35,-19.9"/>
</g>
<!-- Node5 -->
<g id="node5" class="node">
<title>Node5</title>
<g id="a_node5"><a xlink:title=" ">
<polygon fill="none" stroke="#bfbfbf" points="62,-0.5 62,-19.5 112,-19.5 112,-0.5 62,-0.5"/>
<text text-anchor="middle" x="87" y="-7.5" font-family="Arial" font-size="10.00">iomanip</text>
</a>
</g>
</g>
<!-- Node3&#45;&gt;Node5 -->
<g id="edge4" class="edge">
<title>Node3&#45;&gt;Node5</title>
<path fill="none" stroke="midnightblue" d="M148.27,-56.32C137.16,-48.11 120.26,-35.6 107.02,-25.81"/>
<polygon fill="midnightblue" stroke="midnightblue" points="109.06,-22.97 98.94,-19.83 104.9,-28.59 109.06,-22.97"/>
</g>
<!-- Node6 -->
<g id="node6" class="node">
<title>Node6</title>
<g id="a_node6"><a xlink:title=" ">
<polygon fill="none" stroke="#bfbfbf" points="130,-0.5 130,-19.5 182,-19.5 182,-0.5 130,-0.5"/>
<text text-anchor="middle" x="156" y="-7.5" font-family="Arial" font-size="10.00">sstream</text>
</a>
</g>
</g>
<!-- Node3&#45;&gt;Node6 -->
<g id="edge5" class="edge">
<title>Node3&#45;&gt;Node6</title>
<path fill="none" stroke="midnightblue" d="M159.34,-56.08C158.82,-49.01 158.06,-38.86 157.41,-29.99"/>
<polygon fill="midnightblue" stroke="midnightblue" points="160.88,-29.47 156.65,-19.75 153.9,-29.98 160.88,-29.47"/>
</g>
<!-- Node3&#45;&gt;Node7 -->
<g id="edge6" class="edge">
<title>Node3&#45;&gt;Node7</title>
<path fill="none" stroke="midnightblue" d="M170.76,-56.32C180.77,-48.26 195.89,-36.08 207.93,-26.37"/>
<polygon fill="midnightblue" stroke="midnightblue" points="210.45,-28.83 216.04,-19.83 206.06,-23.38 210.45,-28.83"/>
</g>
<!-- Node3&#45;&gt;Node8 -->
<g id="edge7" class="edge">
<title>Node3&#45;&gt;Node8</title>
<path fill="none" stroke="midnightblue" d="M181.23,-56.44C203.38,-47.52 238.32,-33.44 263.44,-23.32"/>
<polygon fill="midnightblue" stroke="midnightblue" points="264.9,-26.5 272.87,-19.52 262.28,-20.01 264.9,-26.5"/>
</g>
<!-- Node9&#45;&gt;Node8 -->
<g id="edge11" class="edge">
<title>Node9&#45;&gt;Node8</title>
<path fill="none" stroke="midnightblue" d="M346.88,-56.32C337.47,-48.26 323.26,-36.08 311.93,-26.37"/>
<polygon fill="midnightblue" stroke="midnightblue" points="314.18,-23.68 304.31,-19.83 309.62,-29 314.18,-23.68"/>
</g>
<!-- Node10 -->
<g id="node10" class="node">
<title>Node10</title>
<g id="a_node10"><a xlink:title=" ">
<polygon fill="none" stroke="#bfbfbf" points="335.5,-0.5 335.5,-19.5 376.5,-19.5 376.5,-0.5 335.5,-0.5"/>
<text text-anchor="middle" x="356" y="-7.5" font-family="Arial" font-size="10.00">mpi.h</text>
</a>
</g>
</g>
<!-- Node9&#45;&gt;Node10 -->
<g id="edge9" class="edge">
<title>Node9&#45;&gt;Node10</title>
<path fill="none" stroke="midnightblue" d="M356.83,-56.08C356.7,-49.01 356.52,-38.86 356.35,-29.99"/>
<polygon fill="midnightblue" stroke="midnightblue" points="359.85,-29.68 356.16,-19.75 352.85,-29.81 359.85,-29.68"/>
</g>
<!-- Node9&#45;&gt;Node11 -->
<g id="edge10" class="edge">
<title>Node9&#45;&gt;Node11</title>
<path fill="none" stroke="midnightblue" d="M382.99,-56.44C412.2,-46.82 459.58,-31.22 490.52,-21.04"/>
<polygon fill="midnightblue" stroke="midnightblue" points="491.92,-24.26 500.33,-17.81 489.73,-17.61 491.92,-24.26"/>
</g>
<!-- Node12 -->
<g id="node12" class="node">
<title>Node12</title>
<g id="a_node12"><a xlink:title=" ">
<polygon fill="none" stroke="#bfbfbf" points="395,-0.5 395,-19.5 439,-19.5 439,-0.5 395,-0.5"/>
<text text-anchor="middle" x="417" y="-7.5" font-family="Arial" font-size="10.00">thread</text>
</a>
</g>
</g>
<!-- Node9&#45;&gt;Node12 -->
<g id="edge12" class="edge">
<title>Node9&#45;&gt;Node12</title>
<path fill="none" stroke="midnightblue" d="M366.64,-56.32C375.51,-48.34 388.87,-36.31 399.61,-26.65"/>
<polygon fill="midnightblue" stroke="midnightblue" points="402.09,-29.13 407.18,-19.83 397.41,-23.92 402.09,-29.13"/>
</g>
</g>
</svg>
