<?xml version="1.0" encoding="UTF-8" standalone="no"?>
<!DOCTYPE svg PUBLIC "-//W3C//DTD SVG 1.1//EN"
 "http://www.w3.org/Graphics/SVG/1.1/DTD/svg11.dtd">
<!-- Generated by graphviz version 2.43.0 (0)
 -->
<!-- Title: /home/user/project/src/util/matrix.h Pages: 1 -->
<svg width="2793pt" height="340pt"
 viewBox="0.00 0.00 2793.00 340.00" xmlns="http://www.w3.org/2000/svg" xmlns:xlink="http://www.w3.org/1999/xlink">
<g id="graph0" class="graph" transform="scale(1 1) rotate(0) translate(4 336)">
<title>/home/user/project/src/util/matrix.h</title>
<!-- Node1 -->
<g id="node1" class="node">
<title>Node1</title>
<g id="a_node1"><a xlink:title=" ">
<polygon fill="#bfbfbf" stroke="black" points="1748.5,-301.5 1748.5,-331.5 1846.5,-331.5 1846.5,-301.5 1748.5,-301.5"/>
<text text-anchor="start" x="1756.5" y="-319.5" font-family="Arial" font-size="10.00">/home/user/project</text>
<text text-anchor="middle" x="1797.5" y="-308.5" font-family="Arial" font-size="10.00">/src/util/matrix.h</text>
</a>
</g>
</g>
<!-- Node2 -->
<g id="node2" class="node">
<title>Node2</title>
<g id="a_node2"><a xlink:href="apps_2twop_2main_8cpp.html" target="_top" xlink:title=" ">
<polygon fill="none" stroke="black" points="1405,-6 1405,-36 1512,-36 1512,-6 1405,-6"/>
<text text-anchor="start" x="1413" y="-24" font-family="Arial" font-size="10.00">/home/user/project</text>
<text text-anchor="middle" x="1458.5" y="-13" font-family="Arial" font-size="10.00">/apps/twop/main.cpp</text>
</a>
</g>
</g>
<!-- Node1&#45;&gt;Node2 -->
<g id="edge1" class="edge">
<title>Node1&#45;&gt;Node2</title>
<path fill="none" stroke="midnightblue" d="M1738.01,-309.99C1665.75,-299.7 1547.12,-270.34 1495.5,-187 1465.05,-137.83 1459.55,-66.63 1458.64,-36.42"/>
<polygon fill="midnightblue" stroke="midnightblue" points="1737.94,-313.52 1748.32,-311.38 1738.88,-306.58 1737.94,-313.52"/>
</g>
<!-- Node3 -->
<g id="node3" class="node">
<title>Node3</title>
<g id="a_node3"><a xlink:href="meshUtil_8h.html" target="_top" xlink:title=" ">
<polygon fill="none" stroke="black" points="1177.5,-229 1177.5,-259 1275.5,-259 1275.5,-229 1177.5,-229"/>
<text text-anchor="start" x="1185.5" y="-247" font-family="Arial" font-size="10.00">/home/user/project</text>
<text text-anchor="middle" x="1226.5" y="-236" font-family="Arial" font-size="10.00">/src/fe/meshUtil.h</text>
</a>
</g>
</g>
<!-- Node1&#45;&gt;Node3 -->
<g id="edge2" class="edge">
<title>Node1&#45;&gt;Node3</title>
<path fill="none" stroke="midnightblue" d="M1738.35,-314.16C1642.14,-310.97 1446.25,-300.34 1284.5,-265 1277.42,-263.45 1270.01,-261.32 1262.95,-259.02"/>
<polygon fill="midnightblue" stroke="midnightblue" points="1738.35,-317.66 1748.46,-314.48 1738.57,-310.66 1738.35,-317.66"/>
</g>
<!-- Node5 -->
<g id="node5" class="node">
<title>Node5</title>
<g id="a_node5"><a xlink:href="demModel_8cpp.html" target="_top" xlink:title=" ">
<polygon fill="none" stroke="black" points="1530,-6 1530,-36 1681,-36 1681,-6 1530,-6"/>
<text text-anchor="start" x="1538" y="-24" font-family="Arial" font-size="10.00">/home/user/project</text>
<text text-anchor="middle" x="1605.5" y="-13" font-family="Arial" font-size="10.00">/src/model/dem/demModel.cpp</text>
</a>
</g>
</g>
<!-- Node1&#45;&gt;Node5 -->
<g id="edge37" class="edge">
<title>Node1&#45;&gt;Node5</title>
<path fill="none" stroke="midnightblue" d="M1856.79,-309.11C1893.3,-302.75 1939.48,-290.1 1973.5,-265 2020.13,-230.6 2059.23,-191.39 2024.5,-145 1983.32,-90 1790.42,-51.22 1681.28,-33.27"/>
<polygon fill="midnightblue" stroke="midnightblue" points="1856.07,-305.68 1846.76,-310.74 1857.19,-312.59 1856.07,-305.68"/>
</g>
<!-- Node8 -->
<g id="node8" class="node">
<title>Node8</title>
<g id="a_node8"><a xlink:href="tetElem_8cpp.html" target="_top" xlink:title=" ">
<polygon fill="none" stroke="black" points="1293.5,-229 1293.5,-259 1393.5,-259 1393.5,-229 1293.5,-229"/>
<text text-anchor="start" x="1301.5" y="-247" font-family="Arial" font-size="10.00">/home/user/project</text>
<text text-anchor="middle" x="1343.5" y="-236" font-family="Arial" font-size="10.00">/src/fe/tetElem.cpp</text>
</a>
</g>
</g>
<!-- Node1&#45;&gt;Node8 -->
<g id="edge8" class="edge">
<title>Node1&#45;&gt;Node8</title>
<path fill="none" stroke="midnightblue" d="M1738.2,-311.63C1660.36,-305.7 1519.83,-292.1 1402.5,-265 1395.54,-263.39 1388.25,-261.29 1381.26,-259.04"/>
<polygon fill="midnightblue" stroke="midnightblue" points="1738.07,-315.13 1748.3,-312.38 1738.59,-308.15 1738.07,-315.13"/>
</g>
<!-- Node9 -->
<g id="node9" class="node">
<title>Node9</title>
<g id="a_node9"><a xlink:href="modelData_8h.html" target="_top" xlink:title=" ">
<polygon fill="none" stroke="black" points="647,-229 647,-259 768,-259 768,-229 647,-229"/>
<text text-anchor="start" x="655" y="-247" font-family="Arial" font-size="10.00">/home/user/project</text>
<text text-anchor="middle" x="707.5" y="-236" font-family="Arial" font-size="10.00">/src/model/modelData.h</text>
</a>
</g>
</g>
<!-- Node1&#45;&gt;Node9 -->
<g id="edge9" class="edge">
<title>Node1&#45;&gt;Node9</title>
<path fill="none" stroke="midnightblue" d="M1738.3,-312.2C1602.4,-304.56 1257.61,-284.78 969.5,-265 900.44,-260.26 821.19,-254.11 768.1,-249.89"/>
<polygon fill="midnightblue" stroke="midnightblue" points="1738.31,-315.71 1748.49,-312.77 1738.7,-308.72 1738.31,-315.71"/>
</g>
<!-- Node17 -->
<g id="node17" class="node">
<title>Node17</title>
<g id="a_node17"><a xlink:href="refParticle_8h.html" target="_top" xlink:title=" ">
<polygon fill="none" stroke="black" points="755,-151 755,-181 878,-181 878,-151 755,-151"/>
<text text-anchor="start" x="763" y="-169" font-family="Arial" font-size="10.00">/home/user/project</text>
<text text-anchor="middle" x="816.5" y="-158" font-family="Arial" font-size="10.00">/src/particle/refParticle.h</text>
</a>
</g>
</g>
<!-- Node1&#45;&gt;Node17 -->
<g id="edge38" class="edge">
<title>Node1&#45;&gt;Node17</title>
<path fill="none" stroke="midnightblue" d="M1738.06,-314.51C1625.88,-311.8 1375.6,-301.79 1168.5,-265 1053.58,-244.58 922.01,-202.89 857.1,-181.05"/>
<polygon fill="midnightblue" stroke="midnightblue" points="1738.08,-318.01 1748.16,-314.74 1738.24,-311.01 1738.08,-318.01"/>
</g>
<!-- Node23 -->
<g id="node23" class="node">
<title>Node23</title>
<g id="a_node23"><a xlink:href="testParticleLib_8cpp.html" target="_top" xlink:title=" ">
<polygon fill="none" stroke="black" points="2072.5,-0.5 2072.5,-41.5 2188.5,-41.5 2188.5,-0.5 2072.5,-0.5"/>
<text text-anchor="start" x="2080.5" y="-29.5" font-family="Arial" font-size="10.00">/home/user/project</text>
<text text-anchor="start" x="2080.5" y="-18.5" font-family="Arial" font-size="10.00">/test/test_exec/particle</text>
<text text-anchor="middle" x="2130.5" y="-7.5" font-family="Arial" font-size="10.00">/testParticleLib.cpp</text>
</a>
</g>
</g>
<!-- Node1&#45;&gt;Node23 -->
<g id="edge61" class="edge">
<title>Node1&#45;&gt;Node23</title>
<path fill="none" stroke="midnightblue" d="M1856.97,-313.69C1984.16,-309.28 2278.71,-295.95 2373.5,-265 2437.19,-244.2 2469.59,-245.36 2502.5,-187 2571.39,-64.84 2309.79,-32.92 2188.8,-24.74"/>
<polygon fill="midnightblue" stroke="midnightblue" points="1856.52,-310.21 1846.65,-314.04 1856.76,-317.2 1856.52,-310.21"/>
</g>
<!-- Node25 -->
<g id="node25" class="node">
<title>Node25</title>
<g id="a_node25"><a xlink:href="legacyVtkWriter_8h.html" target="_top" xlink:title=" ">
<polygon fill="none" stroke="black" points="1601,-229 1601,-259 1728,-259 1728,-229 1601,-229"/>
<text text-anchor="start" x="1609" y="-247" font-family="Arial" font-size="10.00">/home/user/project</text>
<text text-anchor="middle" x="1664.5" y="-236" font-family="Arial" font-size="10.00">/src/rw/legacyVtkWriter.h</text>
</a>
</g>
</g>
<!-- Node1&#45;&gt;Node25 -->
<g id="edge39" class="edge">
<title>Node1&#45;&gt;Node25</title>
<path fill="none" stroke="midnightblue" d="M1762.06,-296.72C1739.75,-284.89 1711.42,-269.87 1691.05,-259.07"/>
<polygon fill="midnightblue" stroke="midnightblue" points="1760.43,-299.81 1770.91,-301.4 1763.71,-293.63 1760.43,-299.81"/>
</g>
<!-- Node28 -->
<g id="node28" class="node">
<title>Node28</title>
<g id="a_node28"><a xlink:href="mshWriter_8h.html" target="_top" xlink:title=" ">
<polygon fill="none" stroke="black" points="1746.5,-229 1746.5,-259 1848.5,-259 1848.5,-229 1746.5,-229"/>
<text text-anchor="start" x="1754.5" y="-247" font-family="Arial" font-size="10.00">/home/user/project</text>
<text text-anchor="middle" x="1797.5" y="-236" font-family="Arial" font-size="10.00">/src/rw/mshWriter.h</text>
</a>
</g>
</g>
<!-- Node1&#45;&gt;Node28 -->
<g id="edge42" class="edge">
<title>Node1&#45;&gt;Node28</title>
<path fill="none" stroke="midnightblue" d="M1797.5,-291.23C1797.5,-280.57 1797.5,-268.41 1797.5,-259.25"/>
<polygon fill="midnightblue" stroke="midnightblue" points="1794,-291.23 1797.5,-301.23 1801,-291.23 1794,-291.23"/>
</g>
<!-- Node30 -->
<g id="node30" class="node">
<title>Node30</title>
<g id="a_node30"><a xlink:href="reader_8h.html" target="_top" xlink:title=" ">
<polygon fill="none" stroke="black" points="2109.5,-229 2109.5,-259 2207.5,-259 2207.5,-229 2109.5,-229"/>
<text text-anchor="start" x="2117.5" y="-247" font-family="Arial" font-size="10.00">/home/user/project</text>
<text text-anchor="middle" x="2158.5" y="-236" font-family="Arial" font-size="10.00">/src/rw/reader.h</text>
</a>
</g>
</g>
<!-- Node1&#45;&gt;Node30 -->
<g id="edge45" class="edge">
<title>Node1&#45;&gt;Node30</title>
<path fill="none" stroke="midnightblue" d="M1856.84,-307.93C1917.33,-299.64 2013.66,-284.82 2095.5,-265 2102.53,-263.3 2109.91,-261.22 2117.05,-259.06"/>
<polygon fill="midnightblue" stroke="midnightblue" points="1856.14,-304.49 1846.71,-309.31 1857.09,-311.43 1856.14,-304.49"/>
</g>
<!-- Node33 -->
<g id="node33" class="node">
<title>Node33</title>
<g id="a_node33"><a xlink:href="vtkReader_8h.html" target="_top" xlink:title=" ">
<polygon fill="none" stroke="black" points="2261,-229 2261,-259 2364,-259 2364,-229 2261,-229"/>
<text text-anchor="start" x="2269" y="-247" font-family="Arial" font-size="10.00">/home/user/project</text>
<text text-anchor="middle" x="2312.5" y="-236" font-family="Arial" font-size="10.00">/src/rw/vtkReader.h</text>
</a>
</g>
</g>
<!-- Node1&#45;&gt;Node33 -->
<g id="edge50" class="edge">
<title>Node1&#45;&gt;Node33</title>
<path fill="none" stroke="midnightblue" d="M1856.77,-309.97C1938.15,-302 2088.92,-285.94 2216.5,-265 2230.95,-262.63 2246.52,-259.59 2260.84,-256.61"/>
<polygon fill="midnightblue" stroke="midnightblue" points="1856.33,-306.49 1846.72,-310.94 1857.01,-313.46 1856.33,-306.49"/>
</g>
<!-- Node35 -->
<g id="node35" class="node">
<title>Node35</title>
<g id="a_node35"><a xlink:href="vtkWriter_8h.html" target="_top" xlink:title=" ">
<polygon fill="none" stroke="black" points="1866.5,-229 1866.5,-259 1964.5,-259 1964.5,-229 1866.5,-229"/>
<text text-anchor="start" x="1874.5" y="-247" font-family="Arial" font-size="10.00">/home/user/project</text>
<text text-anchor="middle" x="1915.5" y="-236" font-family="Arial" font-size="10.00">/src/rw/vtkWriter.h</text>
</a>
</g>
</g>
<!-- Node1&#45;&gt;Node35 -->
<g id="edge53" class="edge">
<title>Node1&#45;&gt;Node35</title>
<path fill="none" stroke="midnightblue" d="M1829.74,-296.24C1849.4,-284.49 1874.11,-269.73 1891.95,-259.07"/>
<polygon fill="midnightblue" stroke="midnightblue" points="1827.88,-293.27 1821.1,-301.4 1831.48,-299.28 1827.88,-293.27"/>
</g>
<!-- Node37 -->
<g id="node37" class="node">
<title>Node37</title>
<g id="a_node37"><a xlink:href="writer_8h.html" target="_top" xlink:title=" ">
<polygon fill="none" stroke="black" points="1411.5,-229 1411.5,-259 1509.5,-259 1509.5,-229 1411.5,-229"/>
<text text-anchor="start" x="1419.5" y="-247" font-family="Arial" font-size="10.00">/home/user/project</text>
<text text-anchor="middle" x="1460.5" y="-236" font-family="Arial" font-size="10.00">/src/rw/writer.h</text>
</a>
</g>
</g>
<!-- Node1&#45;&gt;Node37 -->
<g id="edge56" class="edge">
<title>Node1&#45;&gt;Node37</title>
<path fill="none" stroke="midnightblue" d="M1738.29,-306.78C1682.48,-298.05 1596.73,-283.29 1523.5,-265 1516.6,-263.28 1509.34,-261.21 1502.31,-259.08"/>
<polygon fill="midnightblue" stroke="midnightblue" points="1737.93,-310.27 1748.35,-308.34 1739.01,-303.35 1737.93,-310.27"/>
</g>
<!-- Node38 -->
<g id="node38" class="node">
<title>Node38</title>
<g id="a_node38"><a xlink:href="matrix_8cpp.html" target="_top" xlink:title=" ">
<polygon fill="none" stroke="black" points="2549.5,-229 2549.5,-259 2647.5,-259 2647.5,-229 2549.5,-229"/>
<text text-anchor="start" x="2557.5" y="-247" font-family="Arial" font-size="10.00">/home/user/project</text>
<text text-anchor="middle" x="2598.5" y="-236" font-family="Arial" font-size="10.00">/src/util/matrix.cpp</text>
</a>
</g>
</g>
<!-- Node1&#45;&gt;Node38 -->
<g id="edge59" class="edge">
<title>Node1&#45;&gt;Node38</title>
<path fill="none" stroke="midnightblue" d="M1857.03,-316.22C1983.27,-316.69 2286.69,-312.3 2535.5,-265 2543.28,-263.52 2551.44,-261.39 2559.21,-259.06"/>
<polygon fill="midnightblue" stroke="midnightblue" points="1856.82,-312.72 1846.81,-316.17 1856.79,-319.72 1856.82,-312.72"/>
</g>
<!-- Node39 -->
<g id="node39" class="node">
<title>Node39</title>
<g id="a_node39"><a xlink:href="testNSearchLib_8cpp.html" target="_top" xlink:title=" ">
<polygon fill="none" stroke="black" points="2666,-223.5 2666,-264.5 2785,-264.5 2785,-223.5 2666,-223.5"/>
<text text-anchor="start" x="2674" y="-252.5" font-family="Arial" font-size="10.00">/home/user/project</text>
<text text-anchor="start" x="2674" y="-241.5" font-family="Arial" font-size="10.00">/test/test_exec/nsearch</text>
<text text-anchor="middle" x="2725.5" y="-230.5" font-family="Arial" font-size="10.00">/testNSearchLib.cpp</text>
</a>
</g>
</g>
<!-- Node1&#45;&gt;Node39 -->
<g id="edge60" class="edge">
<title>Node1&#45;&gt;Node39</title>
<path fill="none" stroke="midnightblue" d="M1856.7,-313.74C2024.69,-308.48 2502.2,-291.55 2656.5,-265 2659.57,-264.47 2662.7,-263.85 2665.85,-263.17"/>
<polygon fill="midnightblue" stroke="midnightblue" points="1856.44,-310.25 1846.56,-314.06 1856.66,-317.24 1856.44,-310.25"/>
</g>
<!-- Node3&#45;&gt;Node2 -->
<g id="edge3" class="edge">
<title>Node3&#45;&gt;Node2</title>
<path fill="none" stroke="midnightblue" d="M1227.26,-218.74C1229.05,-197.44 1234.5,-166.56 1250.5,-145 1292.13,-88.91 1367.59,-53.75 1415.27,-36.02"/>
<polygon fill="midnightblue" stroke="midnightblue" points="1223.76,-218.71 1226.62,-228.91 1230.74,-219.15 1223.76,-218.71"/>
</g>
<!-- Node4 -->
<g id="node4" class="node">
<title>Node4</title>
<g id="a_node4"><a xlink:href="meshUtil_8cpp.html" target="_top" xlink:title=" ">
<polygon fill="none" stroke="black" points="935,-151 935,-181 1040,-181 1040,-151 935,-151"/>
<text text-anchor="start" x="943" y="-169" font-family="Arial" font-size="10.00">/home/user/project</text>
<text text-anchor="middle" x="987.5" y="-158" font-family="Arial" font-size="10.00">/src/fe/meshUtil.cpp</text>
</a>
</g>
</g>
<!-- Node3&#45;&gt;Node4 -->
<g id="edge4" class="edge">
<title>Node3&#45;&gt;Node4</title>
<path fill="none" stroke="midnightblue" d="M1172.18,-225.9C1137.15,-214.85 1090.61,-200.13 1049.5,-187 1043.47,-185.07 1037.11,-183.03 1030.85,-181.02"/>
<polygon fill="midnightblue" stroke="midnightblue" points="1171.15,-229.25 1181.74,-228.92 1173.26,-222.57 1171.15,-229.25"/>
</g>
<!-- Node3&#45;&gt;Node5 -->
<g id="edge5" class="edge">
<title>Node3&#45;&gt;Node5</title>
<path fill="none" stroke="midnightblue" d="M1237.7,-219.83C1250.39,-194.38 1270.93,-155.68 1283.5,-145 1326.13,-108.76 1478.3,-59.84 1557.22,-36.09"/>
<polygon fill="midnightblue" stroke="midnightblue" points="1234.54,-218.33 1233.26,-228.85 1240.82,-221.43 1234.54,-218.33"/>
</g>
<!-- Node6 -->
<g id="node6" class="node">
<title>Node6</title>
<g id="a_node6"><a xlink:href="testMeshPartitioningLib_8cpp.html" target="_top" xlink:title=" ">
<polygon fill="none" stroke="black" points="1292.5,-145.5 1292.5,-186.5 1448.5,-186.5 1448.5,-145.5 1292.5,-145.5"/>
<text text-anchor="start" x="1300.5" y="-174.5" font-family="Arial" font-size="10.00">/home/user/project</text>
<text text-anchor="start" x="1300.5" y="-163.5" font-family="Arial" font-size="10.00">/test/test_exec/meshpartitioning</text>
<text text-anchor="middle" x="1370.5" y="-152.5" font-family="Arial" font-size="10.00">/testMeshPartitioningLib.cpp</text>
</a>
</g>
</g>
<!-- Node3&#45;&gt;Node6 -->
<g id="edge6" class="edge">
<title>Node3&#45;&gt;Node6</title>
<path fill="none" stroke="midnightblue" d="M1262.13,-224.2C1283.78,-212.77 1311.38,-198.2 1333.31,-186.63"/>
<polygon fill="midnightblue" stroke="midnightblue" points="1260.46,-221.12 1253.25,-228.88 1263.73,-227.31 1260.46,-221.12"/>
</g>
<!-- Node7 -->
<g id="node7" class="node">
<title>Node7</title>
<g id="a_node7"><a xlink:href="testParallelCompLib_8cpp.html" target="_top" xlink:title=" ">
<polygon fill="none" stroke="black" points="1058.5,-145.5 1058.5,-186.5 1198.5,-186.5 1198.5,-145.5 1058.5,-145.5"/>
<text text-anchor="start" x="1066.5" y="-174.5" font-family="Arial" font-size="10.00">/home/user/project</text>
<text text-anchor="start" x="1066.5" y="-163.5" font-family="Arial" font-size="10.00">/test/test_exec/parallelcomp</text>
<text text-anchor="middle" x="1128.5" y="-152.5" font-family="Arial" font-size="10.00">/testParallelCompLib.cpp</text>
</a>
</g>
</g>
<!-- Node3&#45;&gt;Node7 -->
<g id="edge7" class="edge">
<title>Node3&#45;&gt;Node7</title>
<path fill="none" stroke="midnightblue" d="M1200.05,-222.49C1185.7,-211.36 1168.06,-197.68 1153.88,-186.68"/>
<polygon fill="midnightblue" stroke="midnightblue" points="1198.02,-225.34 1208.07,-228.7 1202.31,-219.81 1198.02,-225.34"/>
</g>
<!-- Node10 -->
<g id="node10" class="node">
<title>Node10</title>
<g id="a_node10"><a xlink:href="demModel_8h.html" target="_top" xlink:title=" ">
<polygon fill="none" stroke="black" points="1133.5,-78.5 1133.5,-108.5 1273.5,-108.5 1273.5,-78.5 1133.5,-78.5"/>
<text text-anchor="start" x="1141.5" y="-96.5" font-family="Arial" font-size="10.00">/home/user/project</text>
<text text-anchor="middle" x="1203.5" y="-85.5" font-family="Arial" font-size="10.00">/src/model/dem/demModel.h</text>
</a>
</g>
</g>
<!-- Node9&#45;&gt;Node10 -->
<g id="edge10" class="edge">
<title>Node9&#45;&gt;Node10</title>
<path fill="none" stroke="midnightblue" d="M778.07,-229.86C812.59,-221.28 853.66,-207.71 886.5,-187 908.04,-173.41 903.15,-157.23 925.5,-145 1004.35,-101.85 1036.08,-125.11 1124.5,-109 1127.38,-108.48 1130.32,-107.94 1133.29,-107.4"/>
<polygon fill="midnightblue" stroke="midnightblue" points="776.96,-226.53 768.05,-232.26 778.59,-233.34 776.96,-226.53"/>
</g>
<!-- Node13 -->
<g id="node13" class="node">
<title>Node13</title>
<g id="a_node13"><a xlink:href="materialUtil_8h.html" target="_top" xlink:title=" ">
<polygon fill="none" stroke="black" points="832,-78.5 832,-108.5 963,-108.5 963,-78.5 832,-78.5"/>
<text text-anchor="start" x="840" y="-96.5" font-family="Arial" font-size="10.00">/home/user/project</text>
<text text-anchor="middle" x="897.5" y="-85.5" font-family="Arial" font-size="10.00">/src/material/materialUtil.h</text>
</a>
</g>
</g>
<!-- Node9&#45;&gt;Node13 -->
<g id="edge15" class="edge">
<title>Node9&#45;&gt;Node13</title>
<path fill="none" stroke="midnightblue" d="M710.89,-218.98C715.23,-196.89 724.83,-164.68 745.5,-145 759.3,-131.87 801.86,-118.33 838.45,-108.58"/>
<polygon fill="midnightblue" stroke="midnightblue" points="707.43,-218.46 709.16,-228.91 714.33,-219.66 707.43,-218.46"/>
</g>
<!-- Node16 -->
<g id="node16" class="node">
<title>Node16</title>
<g id="a_node16"><a xlink:href="modelData_8cpp.html" target="_top" xlink:title=" ">
<polygon fill="none" stroke="black" points="0,-6 0,-36 131,-36 131,-6 0,-6"/>
<text text-anchor="start" x="8" y="-24" font-family="Arial" font-size="10.00">/home/user/project</text>
<text text-anchor="middle" x="65.5" y="-13" font-family="Arial" font-size="10.00">/src/model/modelData.cpp</text>
</a>
</g>
</g>
<!-- Node9&#45;&gt;Node16 -->
<g id="edge20" class="edge">
<title>Node9&#45;&gt;Node16</title>
<path fill="none" stroke="midnightblue" d="M636.82,-229.19C589.53,-219.22 526.17,-204.48 471.5,-187 327.29,-140.88 161.95,-66.76 95.47,-36.04"/>
<polygon fill="midnightblue" stroke="midnightblue" points="636.16,-232.62 646.66,-231.24 637.59,-225.77 636.16,-232.62"/>
</g>
<!-- Node9&#45;&gt;Node17 -->
<g id="edge21" class="edge">
<title>Node9&#45;&gt;Node17</title>
<path fill="none" stroke="midnightblue" d="M736.03,-223.11C754.98,-209.89 779.42,-192.86 796.36,-181.04"/>
<polygon fill="midnightblue" stroke="midnightblue" points="733.95,-220.29 727.75,-228.88 737.95,-226.03 733.95,-220.29"/>
</g>
<!-- Node18 -->
<g id="node18" class="node">
<title>Node18</title>
<g id="a_node18"><a xlink:href="baseParticle_8h.html" target="_top" xlink:title=" ">
<polygon fill="none" stroke="black" points="673,-78.5 673,-108.5 806,-108.5 806,-78.5 673,-78.5"/>
<text text-anchor="start" x="681" y="-96.5" font-family="Arial" font-size="10.00">/home/user/project</text>
<text text-anchor="middle" x="739.5" y="-85.5" font-family="Arial" font-size="10.00">/src/particle/baseParticle.h</text>
</a>
</g>
</g>
<!-- Node9&#45;&gt;Node18 -->
<g id="edge34" class="edge">
<title>Node9&#45;&gt;Node18</title>
<path fill="none" stroke="midnightblue" d="M705.82,-218.57C705.13,-198.45 705.73,-169.38 712.5,-145 716.12,-131.97 723.51,-118.53 729.65,-108.8"/>
<polygon fill="midnightblue" stroke="midnightblue" points="702.33,-218.91 706.31,-228.73 709.33,-218.58 702.33,-218.91"/>
</g>
<!-- Node21 -->
<g id="node21" class="node">
<title>Node21</title>
<g id="a_node21"><a xlink:href="vtkParticleReader_8cpp.html" target="_top" xlink:title=" ">
<polygon fill="none" stroke="black" points="149.5,-6 149.5,-36 295.5,-36 295.5,-6 149.5,-6"/>
<text text-anchor="start" x="157.5" y="-24" font-family="Arial" font-size="10.00">/home/user/project</text>
<text text-anchor="middle" x="222.5" y="-13" font-family="Arial" font-size="10.00">/src/rw/vtkParticleReader.cpp</text>
</a>
</g>
</g>
<!-- Node9&#45;&gt;Node21 -->
<g id="edge35" class="edge">
<title>Node9&#45;&gt;Node21</title>
<path fill="none" stroke="midnightblue" d="M658.7,-225.31C630.38,-214.76 594.16,-200.77 562.5,-187 443.97,-135.46 306.52,-65.53 249.47,-36.04"/>
<polygon fill="midnightblue" stroke="midnightblue" points="657.78,-228.7 668.37,-228.89 660.21,-222.14 657.78,-228.7"/>
</g>
<!-- Node22 -->
<g id="node22" class="node">
<title>Node22</title>
<g id="a_node22"><a xlink:href="vtkParticleWriter_8cpp.html" target="_top" xlink:title=" ">
<polygon fill="none" stroke="black" points="313.5,-6 313.5,-36 453.5,-36 453.5,-6 313.5,-6"/>
<text text-anchor="start" x="321.5" y="-24" font-family="Arial" font-size="10.00">/home/user/project</text>
<text text-anchor="middle" x="383.5" y="-13" font-family="Arial" font-size="10.00">/src/rw/vtkParticleWriter.cpp</text>
</a>
</g>
</g>
<!-- Node9&#45;&gt;Node22 -->
<g id="edge36" class="edge">
<title>Node9&#45;&gt;Node22</title>
<path fill="none" stroke="midnightblue" d="M678.22,-223.03C613.54,-178.91 459.78,-74.03 404.09,-36.04"/>
<polygon fill="midnightblue" stroke="midnightblue" points="676.51,-226.1 686.74,-228.84 680.45,-220.31 676.51,-226.1"/>
</g>
<!-- Node10&#45;&gt;Node2 -->
<g id="edge11" class="edge">
<title>Node10&#45;&gt;Node2</title>
<path fill="none" stroke="midnightblue" d="M1269.69,-75.96C1306.81,-66.47 1353.87,-54.07 1395.5,-42 1401.89,-40.15 1408.62,-38.11 1415.21,-36.06"/>
<polygon fill="midnightblue" stroke="midnightblue" points="1268.82,-72.57 1259.99,-78.44 1270.55,-79.36 1268.82,-72.57"/>
</g>
<!-- Node10&#45;&gt;Node5 -->
<g id="edge13" class="edge">
<title>Node10&#45;&gt;Node5</title>
<path fill="none" stroke="midnightblue" d="M1283.71,-81.38C1347.97,-72.07 1440.31,-57.8 1520.5,-42 1529.57,-40.21 1539.15,-38.14 1548.47,-36.02"/>
<polygon fill="midnightblue" stroke="midnightblue" points="1283.04,-77.94 1273.64,-82.83 1284.04,-84.87 1283.04,-77.94"/>
</g>
<!-- Node11 -->
<g id="node11" class="node">
<title>Node11</title>
<g id="a_node11"><a xlink:href="src_2main_8cpp.html" target="_top" xlink:title=" ">
<polygon fill="none" stroke="black" points="1151.5,-6 1151.5,-36 1249.5,-36 1249.5,-6 1151.5,-6"/>
<text text-anchor="start" x="1159.5" y="-24" font-family="Arial" font-size="10.00">/home/user/project</text>
<text text-anchor="middle" x="1200.5" y="-13" font-family="Arial" font-size="10.00">/src/main.cpp</text>
</a>
</g>
</g>
<!-- Node10&#45;&gt;Node11 -->
<g id="edge12" class="edge">
<title>Node10&#45;&gt;Node11</title>
<path fill="none" stroke="midnightblue" d="M1202.47,-68.23C1202.01,-57.57 1201.5,-45.41 1201.11,-36.25"/>
<polygon fill="midnightblue" stroke="midnightblue" points="1198.97,-68.39 1202.89,-78.23 1205.96,-68.09 1198.97,-68.39"/>
</g>
<!-- Node12 -->
<g id="node12" class="node">
<title>Node12</title>
<g id="a_node12"><a xlink:href="testPeriDEMLib_8cpp.html" target="_top" xlink:title=" ">
<polygon fill="none" stroke="black" points="1268,-0.5 1268,-41.5 1387,-41.5 1387,-0.5 1268,-0.5"/>
<text text-anchor="start" x="1276" y="-29.5" font-family="Arial" font-size="10.00">/home/user/project</text>
<text text-anchor="start" x="1276" y="-18.5" font-family="Arial" font-size="10.00">/test/test_exec/peridem</text>
<text text-anchor="middle" x="1327.5" y="-7.5" font-family="Arial" font-size="10.00">/testPeriDEMLib.cpp</text>
</a>
</g>
</g>
<!-- Node10&#45;&gt;Node12 -->
<g id="edge14" class="edge">
<title>Node10&#45;&gt;Node12</title>
<path fill="none" stroke="midnightblue" d="M1237.44,-73.2C1254.67,-63.41 1275.56,-51.53 1292.89,-41.68"/>
<polygon fill="midnightblue" stroke="midnightblue" points="1235.26,-70.42 1228.3,-78.4 1238.72,-76.5 1235.26,-70.42"/>
</g>
<!-- Node13&#45;&gt;Node2 -->
<g id="edge16" class="edge">
<title>Node13&#45;&gt;Node2</title>
<path fill="none" stroke="midnightblue" d="M973.21,-78.02C1161.17,-52.95 1213.6,-78.14 1395.5,-42 1403.15,-40.48 1411.19,-38.36 1418.86,-36.06"/>
<polygon fill="midnightblue" stroke="midnightblue" points="972.72,-74.55 963.28,-79.37 973.67,-81.49 972.72,-74.55"/>
</g>
<!-- Node13&#45;&gt;Node5 -->
<g id="edge18" class="edge">
<title>Node13&#45;&gt;Node5</title>
<path fill="none" stroke="midnightblue" d="M973.48,-78C1216.37,-47.62 1282.4,-77.58 1520.5,-42 1530.7,-40.48 1541.47,-38.35 1551.8,-36.05"/>
<polygon fill="midnightblue" stroke="midnightblue" points="972.75,-74.57 963.27,-79.3 973.64,-81.51 972.75,-74.57"/>
</g>
<!-- Node14 -->
<g id="node14" class="node">
<title>Node14</title>
<g id="a_node14"><a xlink:href="materialUtil_8cpp.html" target="_top" xlink:title=" ">
<polygon fill="none" stroke="black" points="829.5,-6 829.5,-36 971.5,-36 971.5,-6 829.5,-6"/>
<text text-anchor="start" x="837.5" y="-24" font-family="Arial" font-size="10.00">/home/user/project</text>
<text text-anchor="middle" x="900.5" y="-13" font-family="Arial" font-size="10.00">/src/material/materialUtil.cpp</text>
</a>
</g>
</g>
<!-- Node13&#45;&gt;Node14 -->
<g id="edge17" class="edge">
<title>Node13&#45;&gt;Node14</title>
<path fill="none" stroke="midnightblue" d="M898.53,-68.23C898.99,-57.57 899.5,-45.41 899.89,-36.25"/>
<polygon fill="midnightblue" stroke="midnightblue" points="895.04,-68.09 898.11,-78.23 902.03,-68.39 895.04,-68.09"/>
</g>
<!-- Node15 -->
<g id="node15" class="node">
<title>Node15</title>
<g id="a_node15"><a xlink:href="baseParticle_8cpp.html" target="_top" xlink:title=" ">
<polygon fill="none" stroke="black" points="990,-6 990,-36 1133,-36 1133,-6 990,-6"/>
<text text-anchor="start" x="998" y="-24" font-family="Arial" font-size="10.00">/home/user/project</text>
<text text-anchor="middle" x="1061.5" y="-13" font-family="Arial" font-size="10.00">/src/particle/baseParticle.cpp</text>
</a>
</g>
</g>
<!-- Node13&#45;&gt;Node15 -->
<g id="edge19" class="edge">
<title>Node13&#45;&gt;Node15</title>
<path fill="none" stroke="midnightblue" d="M939.74,-74.34C967.46,-62.42 1003.19,-47.07 1028.76,-36.07"/>
<polygon fill="midnightblue" stroke="midnightblue" points="938.1,-71.24 930.29,-78.4 940.86,-77.67 938.1,-71.24"/>
</g>
<!-- Node17&#45;&gt;Node18 -->
<g id="edge22" class="edge">
<title>Node17&#45;&gt;Node18</title>
<path fill="none" stroke="midnightblue" d="M793.52,-143.96C781.01,-132.5 765.86,-118.64 754.8,-108.5"/>
<polygon fill="midnightblue" stroke="midnightblue" points="791.18,-146.56 800.92,-150.73 795.91,-141.4 791.18,-146.56"/>
</g>
<!-- Node24 -->
<g id="node24" class="node">
<title>Node24</title>
<g id="a_node24"><a xlink:href="refParticle_8cpp.html" target="_top" xlink:title=" ">
<polygon fill="none" stroke="black" points="981.5,-78.5 981.5,-108.5 1115.5,-108.5 1115.5,-78.5 981.5,-78.5"/>
<text text-anchor="start" x="989.5" y="-96.5" font-family="Arial" font-size="10.00">/home/user/project</text>
<text text-anchor="middle" x="1048.5" y="-85.5" font-family="Arial" font-size="10.00">/src/particle/refParticle.cpp</text>
</a>
</g>
</g>
<!-- Node17&#45;&gt;Node24 -->
<g id="edge33" class="edge">
<title>Node17&#45;&gt;Node24</title>
<path fill="none" stroke="midnightblue" d="M872.4,-148.01C912.08,-135.96 964.72,-119.96 1002.08,-108.61"/>
<polygon fill="midnightblue" stroke="midnightblue" points="871.16,-144.73 862.61,-150.99 873.2,-151.43 871.16,-144.73"/>
</g>
<!-- Node18&#45;&gt;Node2 -->
<g id="edge23" class="edge">
<title>Node18&#45;&gt;Node2</title>
<path fill="none" stroke="midnightblue" d="M816.55,-78.74C818.55,-78.48 820.54,-78.23 822.5,-78 1075.9,-48 1144.69,-88.96 1395.5,-42 1403.28,-40.54 1411.45,-38.42 1419.22,-36.09"/>
<polygon fill="midnightblue" stroke="midnightblue" points="815.87,-75.3 806.45,-80.15 816.84,-82.24 815.87,-75.3"/>
</g>
<!-- Node18&#45;&gt;Node5 -->
<g id="edge27" class="edge">
<title>Node18&#45;&gt;Node5</title>
<path fill="none" stroke="midnightblue" d="M816.55,-78.71C818.55,-78.46 820.54,-78.22 822.5,-78 1131.18,-43.21 1212.96,-85.75 1520.5,-42 1530.86,-40.53 1541.8,-38.39 1552.27,-36.07"/>
<polygon fill="midnightblue" stroke="midnightblue" points="815.88,-75.27 806.44,-80.09 816.82,-82.21 815.88,-75.27"/>
</g>
<!-- Node18&#45;&gt;Node14 -->
<g id="edge26" class="edge">
<title>Node18&#45;&gt;Node14</title>
<path fill="none" stroke="midnightblue" d="M780.96,-74.34C808.18,-62.42 843.26,-47.07 868.36,-36.07"/>
<polygon fill="midnightblue" stroke="midnightblue" points="779.45,-71.19 771.69,-78.4 782.26,-77.6 779.45,-71.19"/>
</g>
<!-- Node18&#45;&gt;Node15 -->
<g id="edge29" class="edge">
<title>Node18&#45;&gt;Node15</title>
<path fill="none" stroke="midnightblue" d="M816.02,-77.19C863.47,-67.51 925.64,-54.52 980.5,-42 988.69,-40.13 997.33,-38.08 1005.79,-36.03"/>
<polygon fill="midnightblue" stroke="midnightblue" points="815.23,-73.78 806.13,-79.2 816.63,-80.64 815.23,-73.78"/>
</g>
<!-- Node18&#45;&gt;Node16 -->
<g id="edge28" class="edge">
<title>Node18&#45;&gt;Node16</title>
<path fill="none" stroke="midnightblue" d="M662.91,-90.36C548.47,-86.2 326.38,-74.36 140.5,-42 131.6,-40.45 122.23,-38.34 113.23,-36.08"/>
<polygon fill="midnightblue" stroke="midnightblue" points="662.86,-93.86 672.98,-90.72 663.11,-86.87 662.86,-93.86"/>
</g>
<!-- Node19 -->
<g id="node19" class="node">
<title>Node19</title>
<g id="a_node19"><a xlink:href="particleFLoading_8cpp.html" target="_top" xlink:title=" ">
<polygon fill="none" stroke="black" points="471.5,-6 471.5,-36 631.5,-36 631.5,-6 471.5,-6"/>
<text text-anchor="start" x="479.5" y="-24" font-family="Arial" font-size="10.00">/home/user/project</text>
<text text-anchor="middle" x="551.5" y="-13" font-family="Arial" font-size="10.00">/src/loading/particleFLoading.cpp</text>
</a>
</g>
</g>
<!-- Node18&#45;&gt;Node19 -->
<g id="edge24" class="edge">
<title>Node18&#45;&gt;Node19</title>
<path fill="none" stroke="midnightblue" d="M692.33,-74.81C660.37,-62.83 618.73,-47.21 589.03,-36.07"/>
<polygon fill="midnightblue" stroke="midnightblue" points="691.31,-78.17 701.91,-78.4 693.77,-71.61 691.31,-78.17"/>
</g>
<!-- Node20 -->
<g id="node20" class="node">
<title>Node20</title>
<g id="a_node20"><a xlink:href="particleULoading_8cpp.html" target="_top" xlink:title=" ">
<polygon fill="none" stroke="black" points="650,-6 650,-36 811,-36 811,-6 650,-6"/>
<text text-anchor="start" x="658" y="-24" font-family="Arial" font-size="10.00">/home/user/project</text>
<text text-anchor="middle" x="730.5" y="-13" font-family="Arial" font-size="10.00">/src/loading/particleULoading.cpp</text>
</a>
</g>
</g>
<!-- Node18&#45;&gt;Node20 -->
<g id="edge25" class="edge">
<title>Node18&#45;&gt;Node20</title>
<path fill="none" stroke="midnightblue" d="M736.4,-68.23C735.04,-57.57 733.49,-45.41 732.32,-36.25"/>
<polygon fill="midnightblue" stroke="midnightblue" points="732.94,-68.76 737.68,-78.23 739.88,-67.87 732.94,-68.76"/>
</g>
<!-- Node18&#45;&gt;Node21 -->
<g id="edge30" class="edge">
<title>Node18&#45;&gt;Node21</title>
<path fill="none" stroke="midnightblue" d="M662.72,-86.48C575.47,-78.97 429.03,-64.33 304.5,-42 295.27,-40.34 285.53,-38.27 276.11,-36.08"/>
<polygon fill="midnightblue" stroke="midnightblue" points="662.54,-89.98 672.8,-87.34 663.13,-83 662.54,-89.98"/>
</g>
<!-- Node18&#45;&gt;Node22 -->
<g id="edge31" class="edge">
<title>Node18&#45;&gt;Node22</title>
<path fill="none" stroke="midnightblue" d="M662.77,-79.95C607.01,-70.47 529.84,-56.64 462.5,-42 454.21,-40.2 445.46,-38.14 436.93,-36.05"/>
<polygon fill="midnightblue" stroke="midnightblue" points="662.48,-83.45 672.93,-81.66 663.65,-76.54 662.48,-83.45"/>
</g>
<!-- Node18&#45;&gt;Node23 -->
<g id="edge32" class="edge">
<title>Node18&#45;&gt;Node23</title>
<path fill="none" stroke="midnightblue" d="M816.55,-78.69C818.55,-78.44 820.54,-78.21 822.5,-78 1205.95,-36.73 1304.2,-58.74 1689.5,-42 1826.75,-36.04 1988.01,-28.62 2072.36,-24.71"/>
<polygon fill="midnightblue" stroke="midnightblue" points="815.89,-75.24 806.44,-80.03 816.81,-82.18 815.89,-75.24"/>
</g>
<!-- Node26 -->
<g id="node26" class="node">
<title>Node26</title>
<g id="a_node26"><a xlink:href="legacyVtkWriter_8cpp.html" target="_top" xlink:title=" ">
<polygon fill="none" stroke="black" points="1505,-151 1505,-181 1642,-181 1642,-151 1505,-151"/>
<text text-anchor="start" x="1513" y="-169" font-family="Arial" font-size="10.00">/home/user/project</text>
<text text-anchor="middle" x="1573.5" y="-158" font-family="Arial" font-size="10.00">/src/rw/legacyVtkWriter.cpp</text>
</a>
</g>
</g>
<!-- Node25&#45;&gt;Node26 -->
<g id="edge40" class="edge">
<title>Node25&#45;&gt;Node26</title>
<path fill="none" stroke="midnightblue" d="M1639.66,-222.25C1624.07,-209.23 1604.37,-192.78 1590.54,-181.23"/>
<polygon fill="midnightblue" stroke="midnightblue" points="1637.46,-224.98 1647.38,-228.7 1641.95,-219.61 1637.46,-224.98"/>
</g>
<!-- Node27 -->
<g id="node27" class="node">
<title>Node27</title>
<g id="a_node27"><a xlink:href="writer_8cpp.html" target="_top" xlink:title=" ">
<polygon fill="none" stroke="black" points="1660.5,-151 1660.5,-181 1758.5,-181 1758.5,-151 1660.5,-151"/>
<text text-anchor="start" x="1668.5" y="-169" font-family="Arial" font-size="10.00">/home/user/project</text>
<text text-anchor="middle" x="1709.5" y="-158" font-family="Arial" font-size="10.00">/src/rw/writer.cpp</text>
</a>
</g>
</g>
<!-- Node25&#45;&gt;Node27 -->
<g id="edge41" class="edge">
<title>Node25&#45;&gt;Node27</title>
<path fill="none" stroke="midnightblue" d="M1678.07,-220.07C1685.56,-207.44 1694.61,-192.15 1701.07,-181.23"/>
<polygon fill="midnightblue" stroke="midnightblue" points="1675.05,-218.32 1672.96,-228.7 1681.07,-221.88 1675.05,-218.32"/>
</g>
<!-- Node28&#45;&gt;Node27 -->
<g id="edge44" class="edge">
<title>Node28&#45;&gt;Node27</title>
<path fill="none" stroke="midnightblue" d="M1773.06,-221.89C1758.05,-208.93 1739.23,-192.68 1725.98,-181.23"/>
<polygon fill="midnightblue" stroke="midnightblue" points="1771.09,-224.82 1780.95,-228.7 1775.67,-219.52 1771.09,-224.82"/>
</g>
<!-- Node29 -->
<g id="node29" class="node">
<title>Node29</title>
<g id="a_node29"><a xlink:href="mshWriter_8cpp.html" target="_top" xlink:title=" ">
<polygon fill="none" stroke="black" points="1777,-151 1777,-181 1890,-181 1890,-151 1777,-151"/>
<text text-anchor="start" x="1785" y="-169" font-family="Arial" font-size="10.00">/home/user/project</text>
<text text-anchor="middle" x="1833.5" y="-158" font-family="Arial" font-size="10.00">/src/rw/mshWriter.cpp</text>
</a>
</g>
</g>
<!-- Node28&#45;&gt;Node29 -->
<g id="edge43" class="edge">
<title>Node28&#45;&gt;Node29</title>
<path fill="none" stroke="midnightblue" d="M1808.71,-219.33C1814.63,-206.85 1821.69,-191.94 1826.76,-181.23"/>
<polygon fill="midnightblue" stroke="midnightblue" points="1805.39,-218.17 1804.27,-228.7 1811.72,-221.17 1805.39,-218.17"/>
</g>
<!-- Node30&#45;&gt;Node2 -->
<g id="edge46" class="edge">
<title>Node30&#45;&gt;Node2</title>
<path fill="none" stroke="midnightblue" d="M2136.29,-222C2111.15,-199.44 2068.02,-164.26 2024.5,-145 1815.42,-52.5 1741.63,-100.07 1520.5,-42 1513.83,-40.25 1506.81,-38.19 1500,-36.08"/>
<polygon fill="midnightblue" stroke="midnightblue" points="2134.04,-224.69 2143.79,-228.84 2138.76,-219.52 2134.04,-224.69"/>
</g>
<!-- Node30&#45;&gt;Node5 -->
<g id="edge48" class="edge">
<title>Node30&#45;&gt;Node5</title>
<path fill="none" stroke="midnightblue" d="M2149.81,-219.31C2133.23,-174.21 2098.44,-80.28 2095.5,-78 2032.59,-29.18 1802.43,-21.74 1681.26,-21.32"/>
<polygon fill="midnightblue" stroke="midnightblue" points="2146.6,-220.71 2153.33,-228.89 2153.17,-218.3 2146.6,-220.71"/>
</g>
<!-- Node31 -->
<g id="node31" class="node">
<title>Node31</title>
<g id="a_node31"><a xlink:href="mesh_8cpp.html" target="_top" xlink:title=" ">
<polygon fill="none" stroke="black" points="2147.5,-151 2147.5,-181 2245.5,-181 2245.5,-151 2147.5,-151"/>
<text text-anchor="start" x="2155.5" y="-169" font-family="Arial" font-size="10.00">/home/user/project</text>
<text text-anchor="middle" x="2196.5" y="-158" font-family="Arial" font-size="10.00">/src/fe/mesh.cpp</text>
</a>
</g>
</g>
<!-- Node30&#45;&gt;Node31 -->
<g id="edge47" class="edge">
<title>Node30&#45;&gt;Node31</title>
<path fill="none" stroke="midnightblue" d="M2170.15,-219.7C2176.43,-207.14 2183.98,-192.04 2189.38,-181.23"/>
<polygon fill="midnightblue" stroke="midnightblue" points="2166.99,-218.2 2165.65,-228.7 2173.25,-221.33 2166.99,-218.2"/>
</g>
<!-- Node32 -->
<g id="node32" class="node">
<title>Node32</title>
<g id="a_node32"><a xlink:href="reader_8cpp.html" target="_top" xlink:title=" ">
<polygon fill="none" stroke="black" points="2263.5,-151 2263.5,-181 2361.5,-181 2361.5,-151 2263.5,-151"/>
<text text-anchor="start" x="2271.5" y="-169" font-family="Arial" font-size="10.00">/home/user/project</text>
<text text-anchor="middle" x="2312.5" y="-158" font-family="Arial" font-size="10.00">/src/rw/reader.cpp</text>
</a>
</g>
</g>
<!-- Node30&#45;&gt;Node32 -->
<g id="edge49" class="edge">
<title>Node30&#45;&gt;Node32</title>
<path fill="none" stroke="midnightblue" d="M2196.29,-224.35C2223.4,-210.97 2259.35,-193.23 2284.05,-181.04"/>
<polygon fill="midnightblue" stroke="midnightblue" points="2194.52,-221.32 2187.11,-228.88 2197.62,-227.6 2194.52,-221.32"/>
</g>
<!-- Node33&#45;&gt;Node32 -->
<g id="edge51" class="edge">
<title>Node33&#45;&gt;Node32</title>
<path fill="none" stroke="midnightblue" d="M2312.5,-218.59C2312.5,-206.26 2312.5,-191.72 2312.5,-181.23"/>
<polygon fill="midnightblue" stroke="midnightblue" points="2309,-218.7 2312.5,-228.7 2316,-218.71 2309,-218.7"/>
</g>
<!-- Node34 -->
<g id="node34" class="node">
<title>Node34</title>
<g id="a_node34"><a xlink:href="vtkReader_8cpp.html" target="_top" xlink:title=" ">
<polygon fill="none" stroke="black" points="2380,-151 2380,-181 2493,-181 2493,-151 2380,-151"/>
<text text-anchor="start" x="2388" y="-169" font-family="Arial" font-size="10.00">/home/user/project</text>
<text text-anchor="middle" x="2436.5" y="-158" font-family="Arial" font-size="10.00">/src/rw/vtkReader.cpp</text>
</a>
</g>
</g>
<!-- Node33&#45;&gt;Node34 -->
<g id="edge52" class="edge">
<title>Node33&#45;&gt;Node34</title>
<path fill="none" stroke="midnightblue" d="M2344.08,-223.64C2365.77,-210.35 2394.05,-193.02 2413.59,-181.04"/>
<polygon fill="midnightblue" stroke="midnightblue" points="2342.23,-220.67 2335.53,-228.88 2345.89,-226.64 2342.23,-220.67"/>
</g>
<!-- Node35&#45;&gt;Node27 -->
<g id="edge55" class="edge">
<title>Node35&#45;&gt;Node27</title>
<path fill="none" stroke="midnightblue" d="M1867.77,-225.39C1831.22,-211.9 1781.46,-193.55 1747.56,-181.04"/>
<polygon fill="midnightblue" stroke="midnightblue" points="1866.64,-228.71 1877.24,-228.88 1869.07,-222.14 1866.64,-228.71"/>
</g>
<!-- Node36 -->
<g id="node36" class="node">
<title>Node36</title>
<g id="a_node36"><a xlink:href="vtkWriter_8cpp.html" target="_top" xlink:title=" ">
<polygon fill="none" stroke="black" points="1908,-151 1908,-181 2015,-181 2015,-151 1908,-151"/>
<text text-anchor="start" x="1916" y="-169" font-family="Arial" font-size="10.00">/home/user/project</text>
<text text-anchor="middle" x="1961.5" y="-158" font-family="Arial" font-size="10.00">/src/rw/vtkWriter.cpp</text>
</a>
</g>
</g>
<!-- Node35&#45;&gt;Node36 -->
<g id="edge54" class="edge">
<title>Node35&#45;&gt;Node36</title>
<path fill="none" stroke="midnightblue" d="M1929.38,-220.07C1937.02,-207.44 1946.28,-192.15 1952.89,-181.23"/>
<polygon fill="midnightblue" stroke="midnightblue" points="1926.34,-218.34 1924.15,-228.7 1932.32,-221.96 1926.34,-218.34"/>
</g>
<!-- Node37&#45;&gt;Node6 -->
<g id="edge58" class="edge">
<title>Node37&#45;&gt;Node6</title>
<path fill="none" stroke="midnightblue" d="M1435.84,-222.18C1422.73,-211.11 1406.7,-197.57 1393.81,-186.68"/>
<polygon fill="midnightblue" stroke="midnightblue" points="1433.67,-224.93 1443.57,-228.7 1438.19,-219.58 1433.67,-224.93"/>
</g>
<!-- Node37&#45;&gt;Node27 -->
<g id="edge57" class="edge">
<title>Node37&#45;&gt;Node27</title>
<path fill="none" stroke="midnightblue" d="M1519.65,-226.23C1557.24,-215.41 1606.86,-200.82 1650.5,-187 1656.38,-185.14 1662.56,-183.11 1668.63,-181.09"/>
<polygon fill="midnightblue" stroke="midnightblue" points="1518.52,-222.91 1509.87,-229.04 1520.45,-229.64 1518.52,-222.91"/>
</g>
</g>
</svg>
