<?xml version="1.0" encoding="UTF-8" standalone="no"?>
<!DOCTYPE svg PUBLIC "-//W3C//DTD SVG 1.1//EN"
 "http://www.w3.org/Graphics/SVG/1.1/DTD/svg11.dtd">
<!-- Generated by graphviz version 2.43.0 (0)
 -->
<!-- Title: /home/user/project/src/util/matrix.cpp Pages: 1 -->
<svg width="840pt" height="258pt"
 viewBox="0.00 0.00 840.22 258.00" xmlns="http://www.w3.org/2000/svg" xmlns:xlink="http://www.w3.org/1999/xlink">
<g id="graph0" class="graph" transform="scale(1 1) rotate(0) translate(4 254)">
<title>/home/user/project/src/util/matrix.cpp</title>
<!-- Node1 -->
<g id="Node000001" class="node">
<title>Node1</title>
<g id="a_Node000001"><a xlink:title=" ">
<polygon fill="#999999" stroke="#666666" points="511,-250 413,-250 413,-220 511,-220 511,-250"/>
<text text-anchor="start" x="421" y="-238" font-family="Arial" font-size="10.00">/home/user/project</text>
<text text-anchor="middle" x="462" y="-227" font-family="Arial" font-size="10.00">/src/util/matrix.cpp</text>
</a>
</g>
</g>
<!-- Node2 -->
<g id="Node000002" class="node">
<title>Node2</title>
<g id="a_Node000002"><a xlink:href="matrix_8h.html" target="_top" xlink:title=" ">
<polygon fill="white" stroke="#666666" points="331,-184 279,-184 279,-165 331,-165 331,-184"/>
<text text-anchor="middle" x="305" y="-172" font-family="Arial" font-size="10.00">matrix.h</text>
</a>
</g>
</g>
<!-- Node1&#45;&gt;Node2 -->
<g id="edge1_Node000001_Node000002" class="edge">
<title>Node1&#45;&gt;Node2</title>
<g id="a_edge1_Node000001_Node000002"><a xlink:title=" ">
<path fill="none" stroke="#63b8ff" d="M424.39,-219.99C397.97,-210.14 362.96,-197.1 337.69,-187.68"/>
<polygon fill="#63b8ff" stroke="#63b8ff" points="338.78,-184.35 328.19,-184.14 336.33,-190.91 338.78,-184.35"/>
</a>
</g>
</g>
<!-- Node9 -->
<g id="Node000009" class="node">
<title>Node9</title>
<g id="a_Node000009"><a xlink:href="io_8h.html" target="_top" xlink:title=" ">
<polygon fill="white" stroke="#666666" points="478,-184 446,-184 446,-165 478,-165 478,-184"/>
<text text-anchor="middle" x="462" y="-172" font-family="Arial" font-size="10.00">io.h</text>
</a>
</g>
</g>
<!-- Node1&#45;&gt;Node9 -->
<g id="edge8_Node000001_Node000009" class="edge">
<title>Node1&#45;&gt;Node9</title>
<g id="a_edge8_Node000001_Node000009"><a xlink:title=" ">
<path fill="none" stroke="#63b8ff" d="M462,-219.84C462,-212.21 462,-202.7 462,-194.45"/>
<polygon fill="#63b8ff" stroke="#63b8ff" points="465.5,-194.27 462,-184.27 458.5,-194.27 465.5,-194.27"/>
</a>
</g>
</g>
<!-- Node23 -->
<g id="Node000023" class="node">
<title>Node23</title>
<g id="a_Node000023"><a xlink:title=" ">
<polygon fill="#e0e0e0" stroke="#999999" points="545.5,-184 496.5,-184 496.5,-165 545.5,-165 545.5,-184"/>
<text text-anchor="middle" x="521" y="-172" font-family="Arial" font-size="10.00">cassert</text>
</a>
</g>
</g>
<!-- Node1&#45;&gt;Node23 -->
<g id="edge33_Node000001_Node000023" class="edge">
<title>Node1&#45;&gt;Node23</title>
<g id="a_edge33_Node000001_Node000023"><a xlink:title=" ">
<path fill="none" stroke="#63b8ff" d="M476.28,-219.84C484.93,-211.26 495.99,-200.3 504.94,-191.42"/>
<polygon fill="#63b8ff" stroke="#63b8ff" points="507.52,-193.79 512.16,-184.27 502.59,-188.82 507.52,-193.79"/>
</a>
</g>
</g>
<!-- Node3 -->
<g id="Node000003" class="node">
<title>Node3</title>
<g id="a_Node000003"><a xlink:href="point_8h.html" target="_top" xlink:title=" ">
<polygon fill="white" stroke="#666666" points="218,-129 172,-129 172,-110 218,-110 218,-129"/>
<text text-anchor="middle" x="195" y="-117" font-family="Arial" font-size="10.00">point.h</text>
</a>
</g>
</g>
<!-- Node2&#45;&gt;Node3 -->
<g id="edge2_Node000002_Node000003" class="edge">
<title>Node2&#45;&gt;Node3</title>
<g id="a_edge2_Node000002_Node000003"><a xlink:title=" ">
<path fill="none" stroke="#63b8ff" d="M287.33,-164.98C269.71,-156.5 242.42,-143.35 222.07,-133.54"/>
<polygon fill="#63b8ff" stroke="#63b8ff" points="223.52,-130.36 212.99,-129.17 220.48,-136.66 223.52,-130.36"/>
</a>
</g>
</g>
<!-- Node4 -->
<g id="Node000004" class="node">
<title>Node4</title>
<g id="a_Node000004"><a xlink:title=" ">
<polygon fill="#e0e0e0" stroke="#999999" points="152,-74 108,-74 108,-55 152,-55 152,-74"/>
<text text-anchor="middle" x="130" y="-62" font-family="Arial" font-size="10.00">cmath</text>
</a>
</g>
</g>
<!-- Node3&#45;&gt;Node4 -->
<g id="edge3_Node000003_Node000004" class="edge">
<title>Node3&#45;&gt;Node4</title>
<g id="a_edge3_Node000003_Node000004"><a xlink:title=" ">
<path fill="none" stroke="#63b8ff" d="M184.56,-109.98C174.85,-102.07 160.18,-90.11 148.5,-80.58"/>
<polygon fill="#63b8ff" stroke="#63b8ff" points="150.6,-77.78 140.63,-74.17 146.17,-83.2 150.6,-77.78"/>
</a>
</g>
</g>
<!-- Node5 -->
<g id="Node000005" class="node">
<title>Node5</title>
<g id="a_Node000005"><a xlink:title=" ">
<polygon fill="#e0e0e0" stroke="#999999" points="220,-74 170,-74 170,-55 220,-55 220,-74"/>
<text text-anchor="middle" x="195" y="-62" font-family="Arial" font-size="10.00">iomanip</text>
</a>
</g>
</g>
<!-- Node3&#45;&gt;Node5 -->
<g id="edge4_Node000003_Node000005" class="edge">
<title>Node3&#45;&gt;Node5</title>
<g id="a_edge4_Node000003_Node000005"><a xlink:title=" ">
<path fill="none" stroke="#63b8ff" d="M195,-109.75C195,-102.8 195,-92.85 195,-84.13"/>
<polygon fill="#63b8ff" stroke="#63b8ff" points="198.5,-84.09 195,-74.09 191.5,-84.09 198.5,-84.09"/>
</a>
</g>
</g>
<!-- Node6 -->
<g id="Node000006" class="node">
<title>Node6</title>
<g id="a_Node000006"><a xlink:title=" ">
<polygon fill="#e0e0e0" stroke="#999999" points="52,-74 0,-74 0,-55 52,-55 52,-74"/>
<text text-anchor="middle" x="26" y="-62" font-family="Arial" font-size="10.00">sstream</text>
</a>
</g>
</g>
<!-- Node3&#45;&gt;Node6 -->
<g id="edge5_Node000003_Node000006" class="edge">
<title>Node3&#45;&gt;Node6</title>
<g id="a_edge5_Node000003_Node000006"><a xlink:title=" ">
<path fill="none" stroke="#63b8ff" d="M171.86,-111.24C143.51,-102.35 95.18,-87.19 61.97,-76.78"/>
<polygon fill="#63b8ff" stroke="#63b8ff" points="62.78,-73.37 52.19,-73.71 60.68,-80.05 62.78,-73.37"/>
</a>
</g>
</g>
<!-- Node7 -->
<g id="Node000007" class="node">
<title>Node7</title>
<g id="a_Node000007"><a xlink:title=" ">
<polygon fill="#e0e0e0" stroke="#999999" points="330,-74 276,-74 276,-55 330,-55 330,-74"/>
<text text-anchor="middle" x="303" y="-62" font-family="Arial" font-size="10.00">iostream</text>
</a>
</g>
</g>
<!-- Node3&#45;&gt;Node7 -->
<g id="edge6_Node000003_Node000007" class="edge">
<title>Node3&#45;&gt;Node7</title>
<g id="a_edge6_Node000003_Node000007"><a xlink:title=" ">
<path fill="none" stroke="#63b8ff" d="M212.35,-109.98C229.57,-101.54 256.2,-88.47 276.15,-78.68"/>
<polygon fill="#63b8ff" stroke="#63b8ff" points="277.9,-81.72 285.33,-74.17 274.81,-75.43 277.9,-81.72"/>
</a>
</g>
</g>
<!-- Node8 -->
<g id="Node000008" class="node">
<title>Node8</title>
<g id="a_Node000008"><a xlink:title=" ">
<polygon fill="#e0e0e0" stroke="#999999" points="343,-19 299,-19 299,0 343,0 343,-19"/>
<text text-anchor="middle" x="321" y="-7" font-family="Arial" font-size="10.00">vector</text>
</a>
</g>
</g>
<!-- Node3&#45;&gt;Node8 -->
<g id="edge7_Node000003_Node000008" class="edge">
<title>Node3&#45;&gt;Node8</title>
<g id="a_edge7_Node000003_Node000008"><a xlink:title=" ">
<path fill="none" stroke="#63b8ff" d="M171.82,-113.23C136.47,-104.13 75.51,-83.67 99,-55 122.64,-26.15 233.22,-15.62 288.86,-12.1"/>
<polygon fill="#63b8ff" stroke="#63b8ff" points="289.12,-15.59 298.89,-11.51 288.7,-8.6 289.12,-15.59"/>
</a>
</g>
</g>
<!-- Node9&#45;&gt;Node3 -->
<g id="edge9_Node000009_Node000003" class="edge">
<title>Node9&#45;&gt;Node3</title>
<g id="a_edge9_Node000009_Node000003"><a xlink:title=" ">
<path fill="none" stroke="#63b8ff" d="M445.94,-170.49C408.67,-163.48 313.39,-145.4 234,-129 232.07,-128.6 230.08,-128.18 228.08,-127.76"/>
<polygon fill="#63b8ff" stroke="#63b8ff" points="228.59,-124.29 218.08,-125.62 227.12,-131.14 228.59,-124.29"/>
</a>
</g>
</g>
<!-- Node9&#45;&gt;Node7 -->
<g id="edge21_Node000009_Node000007" class="edge">
<title>Node9&#45;&gt;Node7</title>
<g id="a_edge21_Node000009_Node000007"><a xlink:title=" ">
<path fill="none" stroke="#63b8ff" d="M445.89,-170.77C421.57,-165.96 375.01,-154.03 344,-129 328.88,-116.8 317.54,-97.47 310.66,-83.34"/>
<polygon fill="#63b8ff" stroke="#63b8ff" points="313.79,-81.78 306.45,-74.14 307.43,-84.69 313.79,-81.78"/>
</a>
</g>
</g>
<!-- Node9&#45;&gt;Node8 -->
<g id="edge22_Node000009_Node000008" class="edge">
<title>Node9&#45;&gt;Node8</title>
<g id="a_edge22_Node000009_Node000008"><a xlink:title=" ">
<path fill="none" stroke="#63b8ff" d="M445.76,-171.82C404.57,-166.53 297.21,-146.02 267,-74 258.8,-54.45 277.66,-36.49 295.3,-24.69"/>
<polygon fill="#63b8ff" stroke="#63b8ff" points="297.62,-27.37 304.26,-19.11 293.92,-21.42 297.62,-27.37"/>
</a>
</g>
</g>
<!-- Node10 -->
<g id="Node000010" class="node">
<title>Node10</title>
<g id="a_Node000010"><a xlink:href="constants_8h.html" target="_top" xlink:title=" ">
<polygon fill="white" stroke="#666666" points="454,-74 386,-74 386,-55 454,-55 454,-74"/>
<text text-anchor="middle" x="420" y="-62" font-family="Arial" font-size="10.00">constants.h</text>
</a>
</g>
</g>
<!-- Node9&#45;&gt;Node10 -->
<g id="edge10_Node000009_Node000010" class="edge">
<title>Node9&#45;&gt;Node10</title>
<g id="a_edge10_Node000009_Node000010"><a xlink:title=" ">
<path fill="none" stroke="#63b8ff" d="M453.12,-164.86C445.12,-156.49 433.75,-143.03 428,-129 422.13,-114.69 420.28,-97.16 419.81,-84.15"/>
<polygon fill="#63b8ff" stroke="#63b8ff" points="423.31,-84.03 419.69,-74.07 416.31,-84.12 423.31,-84.03"/>
</a>
</g>
</g>
<!-- Node11 -->
<g id="Node000011" class="node">
<title>Node11</title>
<g id="a_Node000011"><a xlink:href="logger_8h.html" target="_top" xlink:title=" ">
<polygon fill="white" stroke="#666666" points="487.5,-129 436.5,-129 436.5,-110 487.5,-110 487.5,-129"/>
<text text-anchor="middle" x="462" y="-117" font-family="Arial" font-size="10.00">logger.h</text>
</a>
</g>
</g>
<!-- Node9&#45;&gt;Node11 -->
<g id="edge11_Node000009_Node000011" class="edge">
<title>Node9&#45;&gt;Node11</title>
<g id="a_edge11_Node000009_Node000011"><a xlink:title=" ">
<path fill="none" stroke="#63b8ff" d="M462,-164.75C462,-157.8 462,-147.85 462,-139.13"/>
<polygon fill="#63b8ff" stroke="#63b8ff" points="465.5,-139.09 462,-129.09 458.5,-139.09 465.5,-139.09"/>
</a>
</g>
</g>
<!-- Node13 -->
<g id="Node000013" class="node">
<title>Node13</title>
<g id="a_Node000013"><a xlink:title=" ">
<polygon fill="#e0e0e0" stroke="#999999" points="727,-19 677,-19 677,0 727,0 727,-19"/>
<text text-anchor="middle" x="702" y="-7" font-family="Arial" font-size="10.00">fstream</text>
</a>
</g>
</g>
<!-- Node9&#45;&gt;Node13 -->
<g id="edge20_Node000009_Node000013" class="edge">
<title>Node9&#45;&gt;Node13</title>
<g id="a_edge20_Node000009_Node000013"><a xlink:title=" ">
<path fill="none" stroke="#63b8ff" d="M478.43,-168.03C507.87,-158.19 568.45,-137.7 589,-129 606.39,-121.64 609.18,-116.25 627,-110 699.06,-84.72 746.99,-133.38 795,-74 815.19,-49.02 771.17,-29.95 737.03,-19.49"/>
<polygon fill="#63b8ff" stroke="#63b8ff" points="737.86,-16.09 727.28,-16.65 735.91,-22.81 737.86,-16.09"/>
</a>
</g>
</g>
<!-- Node16 -->
<g id="Node000016" class="node">
<title>Node16</title>
<g id="a_Node000016"><a xlink:title=" ">
<polygon fill="#e0e0e0" stroke="#999999" points="426.5,-19 385.5,-19 385.5,0 426.5,0 426.5,-19"/>
<text text-anchor="middle" x="406" y="-7" font-family="Arial" font-size="10.00">string</text>
</a>
</g>
</g>
<!-- Node9&#45;&gt;Node16 -->
<g id="edge25_Node000009_Node000016" class="edge">
<title>Node9&#45;&gt;Node16</title>
<g id="a_edge25_Node000009_Node000016"><a xlink:title=" ">
<path fill="none" stroke="#63b8ff" d="M450.36,-165C430.41,-149.57 390.52,-114.76 377,-74 371.54,-57.55 381.23,-39.66 390.85,-27.08"/>
<polygon fill="#63b8ff" stroke="#63b8ff" points="393.61,-29.23 397.31,-19.3 388.23,-24.76 393.61,-29.23"/>
</a>
</g>
</g>
<!-- Node18 -->
<g id="Node000018" class="node">
<title>Node18</title>
<g id="a_Node000018"><a xlink:title=" ">
<polygon fill="#e0e0e0" stroke="#999999" points="786,-74 730,-74 730,-55 786,-55 786,-74"/>
<text text-anchor="middle" x="758" y="-62" font-family="Arial" font-size="10.00">algorithm</text>
</a>
</g>
</g>
<!-- Node9&#45;&gt;Node18 -->
<g id="edge23_Node000009_Node000018" class="edge">
<title>Node9&#45;&gt;Node18</title>
<g id="a_edge23_Node000009_Node000018"><a xlink:title=" ">
<path fill="none" stroke="#63b8ff" d="M478.08,-167.66C481.33,-166.65 484.75,-165.7 488,-165 562.08,-149.14 776.34,-185.33 827,-129 843.97,-110.13 814.7,-90.7 789.2,-78.39"/>
<polygon fill="#63b8ff" stroke="#63b8ff" points="790.62,-75.19 780.07,-74.19 787.7,-81.55 790.62,-75.19"/>
</a>
</g>
</g>
<!-- Node19 -->
<g id="Node000019" class="node">
<title>Node19</title>
<g id="a_Node000019"><a xlink:title=" ">
<polygon fill="#e0e0e0" stroke="#999999" points="680,-129 636,-129 636,-110 680,-110 680,-129"/>
<text text-anchor="middle" x="658" y="-117" font-family="Arial" font-size="10.00">format</text>
</a>
</g>
</g>
<!-- Node9&#45;&gt;Node19 -->
<g id="edge24_Node000009_Node000019" class="edge">
<title>Node9&#45;&gt;Node19</title>
<g id="a_edge24_Node000009_Node000019"><a xlink:title=" ">
<path fill="none" stroke="#63b8ff" d="M478.18,-168.04C481.42,-167 484.81,-165.94 488,-165 535.75,-150.96 591.67,-136.74 625.96,-128.28"/>
<polygon fill="#63b8ff" stroke="#63b8ff" points="627,-131.63 635.88,-125.84 625.33,-124.83 627,-131.63"/>
</a>
</g>
</g>
<!-- Node20 -->
<g id="Node000020" class="node">
<title>Node20</title>
<g id="a_Node000020"><a xlink:title=" ">
<polygon fill="#e0e0e0" stroke="#999999" points="733.5,-129 698.5,-129 698.5,-110 733.5,-110 733.5,-129"/>
<text text-anchor="middle" x="716" y="-117" font-family="Arial" font-size="10.00">map</text>
</a>
</g>
</g>
<!-- Node9&#45;&gt;Node20 -->
<g id="edge26_Node000009_Node000020" class="edge">
<title>Node9&#45;&gt;Node20</title>
<g id="a_edge26_Node000009_Node000020"><a xlink:title=" ">
<path fill="none" stroke="#63b8ff" d="M478.13,-167.84C481.37,-166.81 484.78,-165.81 488,-165 573,-143.6 599.1,-150.17 688.62,-128.78"/>
<polygon fill="#63b8ff" stroke="#63b8ff" points="689.49,-132.17 698.37,-126.4 687.83,-125.37 689.49,-132.17"/>
</a>
</g>
</g>
<!-- Node21 -->
<g id="Node000021" class="node">
<title>Node21</title>
<g id="a_Node000021"><a xlink:title=" ">
<polygon fill="#e0e0e0" stroke="#999999" points="818,-129 752,-129 752,-110 818,-110 818,-129"/>
<text text-anchor="middle" x="785" y="-117" font-family="Arial" font-size="10.00">string_view</text>
</a>
</g>
</g>
<!-- Node9&#45;&gt;Node21 -->
<g id="edge27_Node000009_Node000021" class="edge">
<title>Node9&#45;&gt;Node21</title>
<g id="a_edge27_Node000009_Node000021"><a xlink:title=" ">
<path fill="none" stroke="#63b8ff" d="M478.1,-167.75C481.35,-166.73 484.76,-165.75 488,-165 596.33,-139.85 628.39,-147.87 741.47,-129.16"/>
<polygon fill="#63b8ff" stroke="#63b8ff" points="742.29,-132.57 751.56,-127.45 741.12,-125.67 742.29,-132.57"/>
</a>
</g>
</g>
<!-- Node22 -->
<g id="Node000022" class="node">
<title>Node22</title>
<g id="a_Node000022"><a xlink:href="inputParser_8h.html" target="_top" xlink:title=" ">
<polygon fill="white" stroke="#666666" points="580,-129 506,-129 506,-110 580,-110 580,-129"/>
<text text-anchor="middle" x="543" y="-117" font-family="Arial" font-size="10.00">inputParser.h</text>
</a>
</g>
</g>
<!-- Node9&#45;&gt;Node22 -->
<g id="edge28_Node000009_Node000022" class="edge">
<title>Node9&#45;&gt;Node22</title>
<g id="a_edge28_Node000009_Node000022"><a xlink:title=" ">
<path fill="none" stroke="#63b8ff" d="M475.01,-164.98C487.46,-156.84 506.46,-144.41 521.21,-134.76"/>
<polygon fill="#63b8ff" stroke="#63b8ff" points="523.3,-137.57 529.75,-129.17 519.46,-131.72 523.3,-137.57"/>
</a>
</g>
</g>
<!-- Node11&#45;&gt;Node10 -->
<g id="edge19_Node000011_Node000010" class="edge">
<title>Node11&#45;&gt;Node10</title>
<g id="a_edge19_Node000011_Node000010"><a xlink:title=" ">
<path fill="none" stroke="#63b8ff" d="M455.06,-109.75C449.13,-102.26 440.43,-91.28 433.18,-82.13"/>
<polygon fill="#63b8ff" stroke="#63b8ff" points="435.76,-79.75 426.81,-74.09 430.27,-84.1 435.76,-79.75"/>
</a>
</g>
</g>
<!-- Node12 -->
<g id="Node000012" class="node">
<title>Node12</title>
<g id="a_Node000012"><a xlink:href="loggerDeck_8h.html" target="_top" xlink:title=" ">
<polygon fill="white" stroke="#666666" points="674,-74 600,-74 600,-55 674,-55 674,-74"/>
<text text-anchor="middle" x="637" y="-62" font-family="Arial" font-size="10.00">loggerDeck.h</text>
</a>
</g>
</g>
<!-- Node11&#45;&gt;Node12 -->
<g id="edge12_Node000011_Node000012" class="edge">
<title>Node11&#45;&gt;Node12</title>
<g id="a_edge12_Node000011_Node000012"><a xlink:title=" ">
<path fill="none" stroke="#63b8ff" d="M487.82,-110.68C517.12,-101.81 565.18,-87.25 598.81,-77.07"/>
<polygon fill="#63b8ff" stroke="#63b8ff" points="600.19,-80.3 608.75,-74.06 598.16,-73.6 600.19,-80.3"/>
</a>
</g>
</g>
<!-- Node14 -->
<g id="Node000014" class="node">
<title>Node14</title>
<g id="a_Node000014"><a xlink:href="parallelUtil_8h.html" target="_top" xlink:title=" ">
<polygon fill="white" stroke="#666666" points="581.5,-74 510.5,-74 510.5,-55 581.5,-55 581.5,-74"/>
<text text-anchor="middle" x="546" y="-62" font-family="Arial" font-size="10.00">parallelUtil.h</text>
</a>
</g>
</g>
<!-- Node11&#45;&gt;Node14 -->
<g id="edge14_Node000011_Node000014" class="edge">
<title>Node11&#45;&gt;Node14</title>
<g id="a_edge14_Node000011_Node000014"><a xlink:title=" ">
<path fill="none" stroke="#63b8ff" d="M475.5,-109.98C488.4,-101.84 508.1,-89.41 523.4,-79.76"/>
<polygon fill="#63b8ff" stroke="#63b8ff" points="525.67,-82.47 532.26,-74.17 521.93,-76.55 525.67,-82.47"/>
</a>
</g>
</g>
<!-- Node12&#45;&gt;Node13 -->
<g id="edge13_Node000012_Node000013" class="edge">
<title>Node12&#45;&gt;Node13</title>
<g id="a_edge13_Node000012_Node000013"><a xlink:title=" ">
<path fill="none" stroke="#63b8ff" d="M647.44,-54.98C657.15,-47.07 671.82,-35.11 683.5,-25.58"/>
<polygon fill="#63b8ff" stroke="#63b8ff" points="685.83,-28.2 691.37,-19.17 681.4,-22.78 685.83,-28.2"/>
</a>
</g>
</g>
<!-- Node14&#45;&gt;Node8 -->
<g id="edge17_Node000014_Node000008" class="edge">
<title>Node14&#45;&gt;Node8</title>
<g id="a_edge17_Node000014_Node000008"><a xlink:title=" ">
<path fill="none" stroke="#63b8ff" d="M510.35,-55.1C467.05,-44.9 394.67,-27.85 353.06,-18.05"/>
<polygon fill="#63b8ff" stroke="#63b8ff" points="353.72,-14.61 343.19,-15.73 352.12,-21.43 353.72,-14.61"/>
</a>
</g>
</g>
<!-- Node15 -->
<g id="Node000015" class="node">
<title>Node15</title>
<g id="a_Node000015"><a xlink:title=" ">
<polygon fill="#e0e0e0" stroke="#999999" points="596.5,-19 555.5,-19 555.5,0 596.5,0 596.5,-19"/>
<text text-anchor="middle" x="576" y="-7" font-family="Arial" font-size="10.00">mpi.h</text>
</a>
</g>
</g>
<!-- Node14&#45;&gt;Node15 -->
<g id="edge15_Node000014_Node000015" class="edge">
<title>Node14&#45;&gt;Node15</title>
<g id="a_edge15_Node000014_Node000015"><a xlink:title=" ">
<path fill="none" stroke="#63b8ff" d="M550.95,-54.75C555.06,-47.49 561.03,-36.95 566.1,-27.98"/>
<polygon fill="#63b8ff" stroke="#63b8ff" points="569.26,-29.52 571.14,-19.09 563.17,-26.07 569.26,-29.52"/>
</a>
</g>
</g>
<!-- Node14&#45;&gt;Node16 -->
<g id="edge16_Node000014_Node000016" class="edge">
<title>Node14&#45;&gt;Node16</title>
<g id="a_edge16_Node000014_Node000016"><a xlink:title=" ">
<path fill="none" stroke="#63b8ff" d="M523.51,-54.98C499.79,-46.01 462.3,-31.82 436.07,-21.88"/>
<polygon fill="#63b8ff" stroke="#63b8ff" points="437.2,-18.57 426.61,-18.3 434.73,-25.12 437.2,-18.57"/>
</a>
</g>
</g>
<!-- Node17 -->
<g id="Node000017" class="node">
<title>Node17</title>
<g id="a_Node000017"><a xlink:title=" ">
<polygon fill="#e0e0e0" stroke="#999999" points="537,-19 493,-19 493,0 537,0 537,-19"/>
<text text-anchor="middle" x="515" y="-7" font-family="Arial" font-size="10.00">thread</text>
</a>
</g>
</g>
<!-- Node14&#45;&gt;Node17 -->
<g id="edge18_Node000014_Node000017" class="edge">
<title>Node14&#45;&gt;Node17</title>
<g id="a_edge18_Node000014_Node000017"><a xlink:title=" ">
<path fill="none" stroke="#63b8ff" d="M540.88,-54.75C536.64,-47.49 530.47,-36.95 525.22,-27.98"/>
<polygon fill="#63b8ff" stroke="#63b8ff" points="528.09,-25.95 520.02,-19.09 522.05,-29.49 528.09,-25.95"/>
</a>
</g>
</g>
<!-- Node22&#45;&gt;Node7 -->
<g id="edge30_Node000022_Node000007" class="edge">
<title>Node22&#45;&gt;Node7</title>
<g id="a_edge30_Node000022_Node000007"><a xlink:title=" ">
<path fill="none" stroke="#63b8ff" d="M505.76,-110.28C460.69,-100.32 385.24,-83.66 340.19,-73.71"/>
<polygon fill="#63b8ff" stroke="#63b8ff" points="340.77,-70.26 330.25,-71.52 339.26,-77.09 340.77,-70.26"/>
</a>
</g>
</g>
<!-- Node22&#45;&gt;Node8 -->
<g id="edge31_Node000022_Node000008" class="edge">
<title>Node22&#45;&gt;Node8</title>
<g id="a_edge31_Node000022_Node000008"><a xlink:title=" ">
<path fill="none" stroke="#63b8ff" d="M534.42,-109.88C520.54,-96.4 491.83,-70.28 463,-55 427.47,-36.17 382.65,-23.79 352.97,-16.97"/>
<polygon fill="#63b8ff" stroke="#63b8ff" points="353.67,-13.54 343.15,-14.79 352.15,-20.38 353.67,-13.54"/>
</a>
</g>
</g>
<!-- Node22&#45;&gt;Node13 -->
<g id="edge29_Node000022_Node000013" class="edge">
<title>Node22&#45;&gt;Node13</title>
<g id="a_edge29_Node000022_Node000013"><a xlink:title=" ">
<path fill="none" stroke="#63b8ff" d="M580.24,-110.79C616.62,-102.55 668.56,-88.69 683,-74 694.71,-62.09 699.25,-43.26 700.99,-29.2"/>
<polygon fill="#63b8ff" stroke="#63b8ff" points="704.48,-29.43 701.86,-19.16 697.51,-28.82 704.48,-29.43"/>
</a>
</g>
</g>
<!-- Node22&#45;&gt;Node18 -->
<g id="edge32_Node000022_Node000018" class="edge">
<title>Node22&#45;&gt;Node18</title>
<g id="a_edge32_Node000022_Node000018"><a xlink:title=" ">
<path fill="none" stroke="#63b8ff" d="M577.54,-109.98C616.5,-100.38 679.66,-84.81 719.99,-74.87"/>
<polygon fill="#63b8ff" stroke="#63b8ff" points="720.85,-78.26 729.72,-72.47 719.17,-71.47 720.85,-78.26"/>
</a>
</g>
</g>
</g>
</svg>
