<?xml version="1.0" encoding="UTF-8" standalone="no"?>
<!DOCTYPE svg PUBLIC "-//W3C//DTD SVG 1.1//EN"
 "http://www.w3.org/Graphics/SVG/1.1/DTD/svg11.dtd">
<!-- Generated by graphviz version 2.43.0 (0)
 -->
<!-- Title: /home/user/project/src/inp/decks/meshDeck.h Pages: 1 -->
<svg width="667pt" height="313pt"
 viewBox="0.00 0.00 666.50 313.00" xmlns="http://www.w3.org/2000/svg" xmlns:xlink="http://www.w3.org/1999/xlink">
<g id="graph0" class="graph" transform="scale(1 1) rotate(0) translate(4 309)">
<title>/home/user/project/src/inp/decks/meshDeck.h</title>
<!-- Node1 -->
<g id="Node000001" class="node">
<title>Node1</title>
<g id="a_Node000001"><a xlink:title=" ">
<polygon fill="#999999" stroke="#666666" points="316,-305 179,-305 179,-275 316,-275 316,-305"/>
<text text-anchor="start" x="187" y="-293" font-family="Arial" font-size="10.00">/home/user/project</text>
<text text-anchor="middle" x="247.5" y="-282" font-family="Arial" font-size="10.00">/src/inp/decks/meshDeck.h</text>
</a>
</g>
</g>
<!-- Node2 -->
<g id="Node000002" class="node">
<title>Node2</title>
<g id="a_Node000002"><a xlink:href="io_8h.html" target="_top" xlink:title=" ">
<polygon fill="white" stroke="#666666" points="271.5,-129 223.5,-129 223.5,-110 271.5,-110 271.5,-129"/>
<text text-anchor="middle" x="247.5" y="-117" font-family="Arial" font-size="10.00">util/io.h</text>
</a>
</g>
</g>
<!-- Node1&#45;&gt;Node2 -->
<g id="edge1_Node000001_Node000002" class="edge">
<title>Node1&#45;&gt;Node2</title>
<g id="a_edge1_Node000001_Node000002"><a xlink:title=" ">
<path fill="none" stroke="#63b8ff" d="M247.5,-274.92C247.5,-244.65 247.5,-173.35 247.5,-139.27"/>
<polygon fill="#63b8ff" stroke="#63b8ff" points="251,-139.25 247.5,-129.25 244,-139.25 251,-139.25"/>
</a>
</g>
</g>
<!-- Node11 -->
<g id="Node000011" class="node">
<title>Node11</title>
<g id="a_Node000011"><a xlink:title=" ">
<polygon fill="#e0e0e0" stroke="#999999" points="41,-19 0,-19 0,0 41,0 41,-19"/>
<text text-anchor="middle" x="20.5" y="-7" font-family="Arial" font-size="10.00">string</text>
</a>
</g>
</g>
<!-- Node1&#45;&gt;Node11 -->
<g id="edge30_Node000001_Node000011" class="edge">
<title>Node1&#45;&gt;Node11</title>
<g id="a_edge30_Node000001_Node000011"><a xlink:title=" ">
<path fill="none" stroke="#63b8ff" d="M178.78,-283.44C111.65,-273.8 19.5,-247.46 19.5,-175.5 19.5,-175.5 19.5,-175.5 19.5,-118.5 19.5,-87.19 19.93,-50.77 20.22,-29.23"/>
<polygon fill="#63b8ff" stroke="#63b8ff" points="23.72,-29.23 20.37,-19.18 16.72,-29.13 23.72,-29.23"/>
</a>
</g>
</g>
<!-- Node15 -->
<g id="Node000015" class="node">
<title>Node15</title>
<g id="a_Node000015"><a xlink:href="geomObjectsUtil_8h.html" target="_top" xlink:title=" ">
<polygon fill="white" stroke="#666666" points="464,-239 351,-239 351,-220 464,-220 464,-239"/>
<text text-anchor="middle" x="407.5" y="-227" font-family="Arial" font-size="10.00">util/geomObjectsUtil.h</text>
</a>
</g>
</g>
<!-- Node1&#45;&gt;Node15 -->
<g id="edge17_Node000001_Node000015" class="edge">
<title>Node1&#45;&gt;Node15</title>
<g id="a_edge17_Node000001_Node000015"><a xlink:title=" ">
<path fill="none" stroke="#63b8ff" d="M285.82,-274.99C312.76,-265.14 348.43,-252.1 374.19,-242.68"/>
<polygon fill="#63b8ff" stroke="#63b8ff" points="375.68,-245.86 383.87,-239.14 373.28,-239.29 375.68,-245.86"/>
</a>
</g>
</g>
<!-- Node3 -->
<g id="Node000003" class="node">
<title>Node3</title>
<g id="a_Node000003"><a xlink:href="point_8h.html" target="_top" xlink:title=" ">
<polygon fill="white" stroke="#666666" points="439.5,-74 393.5,-74 393.5,-55 439.5,-55 439.5,-74"/>
<text text-anchor="middle" x="416.5" y="-62" font-family="Arial" font-size="10.00">point.h</text>
</a>
</g>
</g>
<!-- Node2&#45;&gt;Node3 -->
<g id="edge2_Node000002_Node000003" class="edge">
<title>Node2&#45;&gt;Node3</title>
<g id="a_edge2_Node000002_Node000003"><a xlink:title=" ">
<path fill="none" stroke="#63b8ff" d="M271.71,-110.91C301.16,-101.67 350.98,-86.05 383.81,-75.75"/>
<polygon fill="#63b8ff" stroke="#63b8ff" points="384.92,-79.07 393.42,-72.74 382.83,-72.39 384.92,-79.07"/>
</a>
</g>
</g>
<!-- Node7 -->
<g id="Node000007" class="node">
<title>Node7</title>
<g id="a_Node000007"><a xlink:title=" ">
<polygon fill="#e0e0e0" stroke="#999999" points="547.5,-19 493.5,-19 493.5,0 547.5,0 547.5,-19"/>
<text text-anchor="middle" x="520.5" y="-7" font-family="Arial" font-size="10.00">iostream</text>
</a>
</g>
</g>
<!-- Node2&#45;&gt;Node7 -->
<g id="edge14_Node000002_Node000007" class="edge">
<title>Node2&#45;&gt;Node7</title>
<g id="a_edge14_Node000002_Node000007"><a xlink:title=" ">
<path fill="none" stroke="#63b8ff" d="M271.62,-112.17C274.61,-111.42 277.62,-110.68 280.5,-110 354.82,-92.47 380.31,-108.37 448.5,-74 471.64,-62.33 493.23,-41.42 506.62,-26.79"/>
<polygon fill="#63b8ff" stroke="#63b8ff" points="509.49,-28.82 513.5,-19.02 504.25,-24.18 509.49,-28.82"/>
</a>
</g>
</g>
<!-- Node8 -->
<g id="Node000008" class="node">
<title>Node8</title>
<g id="a_Node000008"><a xlink:title=" ">
<polygon fill="#e0e0e0" stroke="#999999" points="275.5,-19 231.5,-19 231.5,0 275.5,0 275.5,-19"/>
<text text-anchor="middle" x="253.5" y="-7" font-family="Arial" font-size="10.00">vector</text>
</a>
</g>
</g>
<!-- Node2&#45;&gt;Node8 -->
<g id="edge15_Node000002_Node000008" class="edge">
<title>Node2&#45;&gt;Node8</title>
<g id="a_edge15_Node000002_Node000008"><a xlink:title=" ">
<path fill="none" stroke="#63b8ff" d="M223.4,-111.46C194.03,-101.55 150.18,-81.67 166.5,-55 178.41,-35.53 201.83,-24.23 221.38,-17.9"/>
<polygon fill="#63b8ff" stroke="#63b8ff" points="222.56,-21.2 231.16,-15.02 220.58,-14.48 222.56,-21.2"/>
</a>
</g>
</g>
<!-- Node9 -->
<g id="Node000009" class="node">
<title>Node9</title>
<g id="a_Node000009"><a xlink:href="parallelUtil_8h.html" target="_top" xlink:title=" ">
<polygon fill="white" stroke="#666666" points="119,-74 48,-74 48,-55 119,-55 119,-74"/>
<text text-anchor="middle" x="83.5" y="-62" font-family="Arial" font-size="10.00">parallelUtil.h</text>
</a>
</g>
</g>
<!-- Node2&#45;&gt;Node9 -->
<g id="edge8_Node000002_Node000009" class="edge">
<title>Node2&#45;&gt;Node9</title>
<g id="a_edge8_Node000002_Node000009"><a xlink:title=" ">
<path fill="none" stroke="#63b8ff" d="M223.3,-110.68C195.97,-101.85 151.19,-87.38 119.7,-77.2"/>
<polygon fill="#63b8ff" stroke="#63b8ff" points="120.57,-73.8 109.97,-74.06 118.41,-80.46 120.57,-73.8"/>
</a>
</g>
</g>
<!-- Node13 -->
<g id="Node000013" class="node">
<title>Node13</title>
<g id="a_Node000013"><a xlink:title=" ">
<polygon fill="#e0e0e0" stroke="#999999" points="225.5,-74 175.5,-74 175.5,-55 225.5,-55 225.5,-74"/>
<text text-anchor="middle" x="200.5" y="-62" font-family="Arial" font-size="10.00">fstream</text>
</a>
</g>
</g>
<!-- Node2&#45;&gt;Node13 -->
<g id="edge13_Node000002_Node000013" class="edge">
<title>Node2&#45;&gt;Node13</title>
<g id="a_edge13_Node000002_Node000013"><a xlink:title=" ">
<path fill="none" stroke="#63b8ff" d="M239.74,-109.75C233.03,-102.18 223.16,-91.05 214.99,-81.84"/>
<polygon fill="#63b8ff" stroke="#63b8ff" points="217.37,-79.25 208.12,-74.09 212.13,-83.89 217.37,-79.25"/>
</a>
</g>
</g>
<!-- Node14 -->
<g id="Node000014" class="node">
<title>Node14</title>
<g id="a_Node000014"><a xlink:title=" ">
<polygon fill="#e0e0e0" stroke="#999999" points="299.5,-74 243.5,-74 243.5,-55 299.5,-55 299.5,-74"/>
<text text-anchor="middle" x="271.5" y="-62" font-family="Arial" font-size="10.00">algorithm</text>
</a>
</g>
</g>
<!-- Node2&#45;&gt;Node14 -->
<g id="edge16_Node000002_Node000014" class="edge">
<title>Node2&#45;&gt;Node14</title>
<g id="a_edge16_Node000002_Node000014"><a xlink:title=" ">
<path fill="none" stroke="#63b8ff" d="M251.46,-109.75C254.71,-102.57 259.42,-92.18 263.45,-83.27"/>
<polygon fill="#63b8ff" stroke="#63b8ff" points="266.67,-84.64 267.61,-74.09 260.3,-81.75 266.67,-84.64"/>
</a>
</g>
</g>
<!-- Node4 -->
<g id="Node000004" class="node">
<title>Node4</title>
<g id="a_Node000004"><a xlink:title=" ">
<polygon fill="#e0e0e0" stroke="#999999" points="337.5,-19 293.5,-19 293.5,0 337.5,0 337.5,-19"/>
<text text-anchor="middle" x="315.5" y="-7" font-family="Arial" font-size="10.00">cmath</text>
</a>
</g>
</g>
<!-- Node3&#45;&gt;Node4 -->
<g id="edge3_Node000003_Node000004" class="edge">
<title>Node3&#45;&gt;Node4</title>
<g id="a_edge3_Node000003_Node000004"><a xlink:title=" ">
<path fill="none" stroke="#63b8ff" d="M400.27,-54.98C384.32,-46.61 359.72,-33.7 341.12,-23.95"/>
<polygon fill="#63b8ff" stroke="#63b8ff" points="342.5,-20.72 332.02,-19.17 339.25,-26.92 342.5,-20.72"/>
</a>
</g>
</g>
<!-- Node5 -->
<g id="Node000005" class="node">
<title>Node5</title>
<g id="a_Node000005"><a xlink:title=" ">
<polygon fill="#e0e0e0" stroke="#999999" points="405.5,-19 355.5,-19 355.5,0 405.5,0 405.5,-19"/>
<text text-anchor="middle" x="380.5" y="-7" font-family="Arial" font-size="10.00">iomanip</text>
</a>
</g>
</g>
<!-- Node3&#45;&gt;Node5 -->
<g id="edge4_Node000003_Node000005" class="edge">
<title>Node3&#45;&gt;Node5</title>
<g id="a_edge4_Node000003_Node000005"><a xlink:title=" ">
<path fill="none" stroke="#63b8ff" d="M410.56,-54.75C405.52,-47.34 398.16,-36.5 391.99,-27.41"/>
<polygon fill="#63b8ff" stroke="#63b8ff" points="394.85,-25.39 386.33,-19.09 389.06,-29.33 394.85,-25.39"/>
</a>
</g>
</g>
<!-- Node6 -->
<g id="Node000006" class="node">
<title>Node6</title>
<g id="a_Node000006"><a xlink:title=" ">
<polygon fill="#e0e0e0" stroke="#999999" points="475.5,-19 423.5,-19 423.5,0 475.5,0 475.5,-19"/>
<text text-anchor="middle" x="449.5" y="-7" font-family="Arial" font-size="10.00">sstream</text>
</a>
</g>
</g>
<!-- Node3&#45;&gt;Node6 -->
<g id="edge5_Node000003_Node000006" class="edge">
<title>Node3&#45;&gt;Node6</title>
<g id="a_edge5_Node000003_Node000006"><a xlink:title=" ">
<path fill="none" stroke="#63b8ff" d="M421.95,-54.75C426.51,-47.42 433.17,-36.73 438.79,-27.7"/>
<polygon fill="#63b8ff" stroke="#63b8ff" points="441.84,-29.43 444.15,-19.09 435.9,-25.73 441.84,-29.43"/>
</a>
</g>
</g>
<!-- Node3&#45;&gt;Node7 -->
<g id="edge6_Node000003_Node000007" class="edge">
<title>Node3&#45;&gt;Node7</title>
<g id="a_edge6_Node000003_Node000007"><a xlink:title=" ">
<path fill="none" stroke="#63b8ff" d="M433.21,-54.98C449.71,-46.57 475.2,-33.59 494.38,-23.81"/>
<polygon fill="#63b8ff" stroke="#63b8ff" points="496.17,-26.83 503.49,-19.17 492.99,-20.59 496.17,-26.83"/>
</a>
</g>
</g>
<!-- Node3&#45;&gt;Node8 -->
<g id="edge7_Node000003_Node000008" class="edge">
<title>Node3&#45;&gt;Node8</title>
<g id="a_edge7_Node000003_Node000008"><a xlink:title=" ">
<path fill="none" stroke="#63b8ff" d="M393.49,-56.02C365.22,-46.83 317.11,-31.18 285.31,-20.84"/>
<polygon fill="#63b8ff" stroke="#63b8ff" points="286.2,-17.45 275.61,-17.69 284.04,-24.11 286.2,-17.45"/>
</a>
</g>
</g>
<!-- Node9&#45;&gt;Node8 -->
<g id="edge11_Node000009_Node000008" class="edge">
<title>Node9&#45;&gt;Node8</title>
<g id="a_edge11_Node000009_Node000008"><a xlink:title=" ">
<path fill="none" stroke="#63b8ff" d="M110.81,-54.98C141.05,-45.56 189.72,-30.38 221.66,-20.43"/>
<polygon fill="#63b8ff" stroke="#63b8ff" points="222.89,-23.71 231.4,-17.39 220.81,-17.03 222.89,-23.71"/>
</a>
</g>
</g>
<!-- Node10 -->
<g id="Node000010" class="node">
<title>Node10</title>
<g id="a_Node000010"><a xlink:title=" ">
<polygon fill="#e0e0e0" stroke="#999999" points="164,-19 123,-19 123,0 164,0 164,-19"/>
<text text-anchor="middle" x="143.5" y="-7" font-family="Arial" font-size="10.00">mpi.h</text>
</a>
</g>
</g>
<!-- Node9&#45;&gt;Node10 -->
<g id="edge9_Node000009_Node000010" class="edge">
<title>Node9&#45;&gt;Node10</title>
<g id="a_edge9_Node000009_Node000010"><a xlink:title=" ">
<path fill="none" stroke="#63b8ff" d="M93.14,-54.98C102.01,-47.15 115.37,-35.34 126.11,-25.86"/>
<polygon fill="#63b8ff" stroke="#63b8ff" points="128.51,-28.41 133.68,-19.17 123.87,-23.17 128.51,-28.41"/>
</a>
</g>
</g>
<!-- Node9&#45;&gt;Node11 -->
<g id="edge10_Node000009_Node000011" class="edge">
<title>Node9&#45;&gt;Node11</title>
<g id="a_edge10_Node000009_Node000011"><a xlink:title=" ">
<path fill="none" stroke="#63b8ff" d="M73.38,-54.98C64.06,-47.15 50.03,-35.34 38.76,-25.86"/>
<polygon fill="#63b8ff" stroke="#63b8ff" points="40.71,-22.93 30.81,-19.17 36.21,-28.29 40.71,-22.93"/>
</a>
</g>
</g>
<!-- Node12 -->
<g id="Node000012" class="node">
<title>Node12</title>
<g id="a_Node000012"><a xlink:title=" ">
<polygon fill="#e0e0e0" stroke="#999999" points="104.5,-19 60.5,-19 60.5,0 104.5,0 104.5,-19"/>
<text text-anchor="middle" x="82.5" y="-7" font-family="Arial" font-size="10.00">thread</text>
</a>
</g>
</g>
<!-- Node9&#45;&gt;Node12 -->
<g id="edge12_Node000009_Node000012" class="edge">
<title>Node9&#45;&gt;Node12</title>
<g id="a_edge12_Node000009_Node000012"><a xlink:title=" ">
<path fill="none" stroke="#63b8ff" d="M83.33,-54.75C83.2,-47.8 83.02,-37.85 82.85,-29.13"/>
<polygon fill="#63b8ff" stroke="#63b8ff" points="86.35,-29.02 82.66,-19.09 79.35,-29.15 86.35,-29.02"/>
</a>
</g>
</g>
<!-- Node16 -->
<g id="Node000016" class="node">
<title>Node16</title>
<g id="a_Node000016"><a xlink:href="geomObjects_8h.html" target="_top" xlink:title=" ">
<polygon fill="white" stroke="#666666" points="488,-184 405,-184 405,-165 488,-165 488,-184"/>
<text text-anchor="middle" x="446.5" y="-172" font-family="Arial" font-size="10.00">geomObjects.h</text>
</a>
</g>
</g>
<!-- Node15&#45;&gt;Node16 -->
<g id="edge18_Node000015_Node000016" class="edge">
<title>Node15&#45;&gt;Node16</title>
<g id="a_edge18_Node000015_Node000016"><a xlink:title=" ">
<path fill="none" stroke="#63b8ff" d="M413.94,-219.75C419.39,-212.34 427.36,-201.5 434.06,-192.41"/>
<polygon fill="#63b8ff" stroke="#63b8ff" points="437.07,-194.22 440.18,-184.09 431.43,-190.07 437.07,-194.22"/>
</a>
</g>
</g>
<!-- Node16&#45;&gt;Node2 -->
<g id="edge25_Node000016_Node000002" class="edge">
<title>Node16&#45;&gt;Node2</title>
<g id="a_edge25_Node000016_Node000002"><a xlink:title=" ">
<path fill="none" stroke="#63b8ff" d="M414.53,-164.98C378.07,-155.28 318.72,-139.47 281.46,-129.54"/>
<polygon fill="#63b8ff" stroke="#63b8ff" points="282.13,-126.1 271.57,-126.91 280.33,-132.87 282.13,-126.1"/>
</a>
</g>
</g>
<!-- Node16&#45;&gt;Node3 -->
<g id="edge26_Node000016_Node000003" class="edge">
<title>Node16&#45;&gt;Node3</title>
<g id="a_edge26_Node000016_Node000003"><a xlink:title=" ">
<path fill="none" stroke="#63b8ff" d="M452.25,-164.6C459.58,-152.05 470.4,-128.63 462.5,-110 457.52,-98.25 447.75,-88.09 438.49,-80.45"/>
<polygon fill="#63b8ff" stroke="#63b8ff" points="440.35,-77.47 430.28,-74.18 436.1,-83.03 440.35,-77.47"/>
</a>
</g>
</g>
<!-- Node16&#45;&gt;Node7 -->
<g id="edge19_Node000016_Node000007" class="edge">
<title>Node16&#45;&gt;Node7</title>
<g id="a_edge19_Node000016_Node000007"><a xlink:title=" ">
<path fill="none" stroke="#63b8ff" d="M453.91,-164.79C460.97,-156.15 471.53,-142.32 478.5,-129 496.06,-95.44 509.11,-52.93 515.7,-29.03"/>
<polygon fill="#63b8ff" stroke="#63b8ff" points="519.13,-29.74 518.33,-19.18 512.37,-27.93 519.13,-29.74"/>
</a>
</g>
</g>
<!-- Node17 -->
<g id="Node000017" class="node">
<title>Node17</title>
<g id="a_Node000017"><a xlink:title=" ">
<polygon fill="#e0e0e0" stroke="#999999" points="588.5,-129 548.5,-129 548.5,-110 588.5,-110 588.5,-129"/>
<text text-anchor="middle" x="568.5" y="-117" font-family="Arial" font-size="10.00">utility</text>
</a>
</g>
</g>
<!-- Node16&#45;&gt;Node17 -->
<g id="edge20_Node000016_Node000017" class="edge">
<title>Node16&#45;&gt;Node17</title>
<g id="a_edge20_Node000016_Node000017"><a xlink:title=" ">
<path fill="none" stroke="#63b8ff" d="M466.1,-164.98C485.82,-156.42 516.45,-143.11 539.08,-133.28"/>
<polygon fill="#63b8ff" stroke="#63b8ff" points="540.76,-136.37 548.54,-129.17 537.98,-129.94 540.76,-136.37"/>
</a>
</g>
</g>
<!-- Node18 -->
<g id="Node000018" class="node">
<title>Node18</title>
<g id="a_Node000018"><a xlink:title=" ">
<polygon fill="#e0e0e0" stroke="#999999" points="658.5,-129 606.5,-129 606.5,-110 658.5,-110 658.5,-129"/>
<text text-anchor="middle" x="632.5" y="-117" font-family="Arial" font-size="10.00">memory</text>
</a>
</g>
</g>
<!-- Node16&#45;&gt;Node18 -->
<g id="edge21_Node000016_Node000018" class="edge">
<title>Node16&#45;&gt;Node18</title>
<g id="a_edge21_Node000016_Node000018"><a xlink:title=" ">
<path fill="none" stroke="#63b8ff" d="M476.38,-164.98C509.1,-155.66 561.54,-140.72 596.49,-130.76"/>
<polygon fill="#63b8ff" stroke="#63b8ff" points="597.64,-134.07 606.3,-127.97 595.72,-127.34 597.64,-134.07"/>
</a>
</g>
</g>
<!-- Node19 -->
<g id="Node000019" class="node">
<title>Node19</title>
<g id="a_Node000019"><a xlink:href="function_8h.html" target="_top" xlink:title=" ">
<polygon fill="white" stroke="#666666" points="349,-129 290,-129 290,-110 349,-110 349,-129"/>
<text text-anchor="middle" x="319.5" y="-117" font-family="Arial" font-size="10.00">function.h</text>
</a>
</g>
</g>
<!-- Node16&#45;&gt;Node19 -->
<g id="edge22_Node000016_Node000019" class="edge">
<title>Node16&#45;&gt;Node19</title>
<g id="a_edge22_Node000016_Node000019"><a xlink:title=" ">
<path fill="none" stroke="#63b8ff" d="M426.1,-164.98C405.48,-156.38 373.39,-142.99 349.81,-133.15"/>
<polygon fill="#63b8ff" stroke="#63b8ff" points="350.85,-129.79 340.28,-129.17 348.16,-136.25 350.85,-129.79"/>
</a>
</g>
</g>
<!-- Node20 -->
<g id="Node000020" class="node">
<title>Node20</title>
<g id="a_Node000020"><a xlink:href="transformation_8h.html" target="_top" xlink:title=" ">
<polygon fill="white" stroke="#666666" points="454,-129 367,-129 367,-110 454,-110 454,-129"/>
<text text-anchor="middle" x="410.5" y="-117" font-family="Arial" font-size="10.00">transformation.h</text>
</a>
</g>
</g>
<!-- Node16&#45;&gt;Node20 -->
<g id="edge27_Node000016_Node000020" class="edge">
<title>Node16&#45;&gt;Node20</title>
<g id="a_edge27_Node000016_Node000020"><a xlink:title=" ">
<path fill="none" stroke="#63b8ff" d="M440.56,-164.75C435.52,-157.34 428.16,-146.5 421.99,-137.41"/>
<polygon fill="#63b8ff" stroke="#63b8ff" points="424.85,-135.39 416.33,-129.09 419.06,-139.33 424.85,-135.39"/>
</a>
</g>
</g>
<!-- Node19&#45;&gt;Node3 -->
<g id="edge23_Node000019_Node000003" class="edge">
<title>Node19&#45;&gt;Node3</title>
<g id="a_edge23_Node000019_Node000003"><a xlink:title=" ">
<path fill="none" stroke="#63b8ff" d="M335.08,-109.98C350.27,-101.69 373.6,-88.94 391.4,-79.22"/>
<polygon fill="#63b8ff" stroke="#63b8ff" points="393.53,-82.04 400.63,-74.17 390.18,-75.89 393.53,-82.04"/>
</a>
</g>
</g>
<!-- Node19&#45;&gt;Node8 -->
<g id="edge24_Node000019_Node000008" class="edge">
<title>Node19&#45;&gt;Node8</title>
<g id="a_edge24_Node000019_Node000008"><a xlink:title=" ">
<path fill="none" stroke="#63b8ff" d="M319.86,-109.62C319.99,-96.7 318.7,-72.37 308.5,-55 301.19,-42.55 288.99,-32.15 277.94,-24.54"/>
<polygon fill="#63b8ff" stroke="#63b8ff" points="279.74,-21.53 269.44,-19.05 275.94,-27.42 279.74,-21.53"/>
</a>
</g>
</g>
<!-- Node20&#45;&gt;Node3 -->
<g id="edge28_Node000020_Node000003" class="edge">
<title>Node20&#45;&gt;Node3</title>
<g id="a_edge28_Node000020_Node000003"><a xlink:title=" ">
<path fill="none" stroke="#63b8ff" d="M411.49,-109.75C412.28,-102.8 413.4,-92.85 414.39,-84.13"/>
<polygon fill="#63b8ff" stroke="#63b8ff" points="417.88,-84.42 415.53,-74.09 410.92,-83.63 417.88,-84.42"/>
</a>
</g>
</g>
<!-- Node20&#45;&gt;Node8 -->
<g id="edge29_Node000020_Node000008" class="edge">
<title>Node20&#45;&gt;Node8</title>
<g id="a_edge29_Node000020_Node000008"><a xlink:title=" ">
<path fill="none" stroke="#63b8ff" d="M399.88,-109.93C384.18,-97.38 353.71,-73.51 326.5,-55 310.49,-44.11 291.85,-32.77 277.41,-24.26"/>
<polygon fill="#63b8ff" stroke="#63b8ff" points="278.99,-21.13 268.6,-19.11 275.46,-27.17 278.99,-21.13"/>
</a>
</g>
</g>
</g>
</svg>
