<?xml version="1.0" encoding="UTF-8" standalone="no"?>
<!DOCTYPE svg PUBLIC "-//W3C//DTD SVG 1.1//EN"
 "http://www.w3.org/Graphics/SVG/1.1/DTD/svg11.dtd">
<!-- Generated by graphviz version 2.43.0 (0)
 -->
<!-- Title: /home/user/project/src/fe/meshUtil.h Pages: 1 -->
<svg width="112pt" height="95pt"
 viewBox="0.00 0.00 111.50 95.00" xmlns="http://www.w3.org/2000/svg" xmlns:xlink="http://www.w3.org/1999/xlink">
<g id="graph0" class="graph" transform="scale(1 1) rotate(0) translate(4 91)">
<title>/home/user/project/src/fe/meshUtil.h</title>
<!-- Node1 -->
<g id="node1" class="node">
<title>Node1</title>
<g id="a_node1"><a xlink:title=" ">
<polygon fill="#bfbfbf" stroke="black" points="1.5,-56.5 1.5,-86.5 99.5,-86.5 99.5,-56.5 1.5,-56.5"/>
<text text-anchor="start" x="9.5" y="-74.5" font-family="Arial" font-size="10.00">/home/user/project</text>
<text text-anchor="middle" x="50.5" y="-63.5" font-family="Arial" font-size="10.00">/src/fe/meshUtil.h</text>
</a>
</g>
</g>
<!-- Node2 -->
<g id="node2" class="node">
<title>Node2</title>
<g id="a_node2"><a xlink:title=" ">
<polygon fill="none" stroke="#bfbfbf" points="0,-0.5 0,-19.5 41,-19.5 41,-0.5 0,-0.5"/>
<text text-anchor="middle" x="20.5" y="-7.5" font-family="Arial" font-size="10.00">string</text>
</a>
</g>
</g>
<!-- Node1&#45;&gt;Node2 -->
<g id="edge1" class="edge">
<title>Node1&#45;&gt;Node2</title>
<path fill="none" stroke="midnightblue" d="M43.39,-56.4C39.21,-48.11 33.89,-37.55 29.43,-28.71"/>
<polygon fill="midnightblue" stroke="midnightblue" points="32.49,-27.01 24.87,-19.66 26.24,-30.16 32.49,-27.01"/>
</g>
<!-- Node3 -->
<g id="node3" class="node">
<title>Node3</title>
<g id="a_node3"><a xlink:title=" ">
<polygon fill="none" stroke="#bfbfbf" points="59.5,-0.5 59.5,-19.5 103.5,-19.5 103.5,-0.5 59.5,-0.5"/>
<text text-anchor="middle" x="81.5" y="-7.5" font-family="Arial" font-size="10.00">vector</text>
</a>
</g>
</g>
<!-- Node1&#45;&gt;Node3 -->
<g id="edge2" class="edge">
<title>Node1&#45;&gt;Node3</title>
<path fill="none" stroke="midnightblue" d="M57.85,-56.4C62.17,-48.11 67.67,-37.55 72.27,-28.71"/>
<polygon fill="midnightblue" stroke="midnightblue" points="75.47,-30.14 76.99,-19.66 69.26,-26.91 75.47,-30.14"/>
</g>
</g>
</svg>
