<?xml version="1.0" encoding="UTF-8" standalone="no"?>
<!DOCTYPE svg PUBLIC "-//W3C//DTD SVG 1.1//EN"
 "http://www.w3.org/Graphics/SVG/1.1/DTD/svg11.dtd">
<!-- Generated by graphviz version 2.43.0 (0)
 -->
<!-- Title: /home/user/project/src/inp/decks/meshDeck.h Pages: 1 -->
<svg width="698pt" height="368pt"
 viewBox="0.00 0.00 697.50 368.00" xmlns="http://www.w3.org/2000/svg" xmlns:xlink="http://www.w3.org/1999/xlink">
<g id="graph0" class="graph" transform="scale(1 1) rotate(0) translate(4 364)">
<title>/home/user/project/src/inp/decks/meshDeck.h</title>
<!-- Node1 -->
<g id="Node000001" class="node">
<title>Node1</title>
<g id="a_Node000001"><a xlink:title=" ">
<polygon fill="#999999" stroke="#666666" points="240.5,-360 103.5,-360 103.5,-330 240.5,-330 240.5,-360"/>
<text text-anchor="start" x="111.5" y="-348" font-family="Arial" font-size="10.00">/home/user/project</text>
<text text-anchor="middle" x="172" y="-337" font-family="Arial" font-size="10.00">/src/inp/decks/meshDeck.h</text>
</a>
</g>
</g>
<!-- Node2 -->
<g id="Node000002" class="node">
<title>Node2</title>
<g id="a_Node000002"><a xlink:href="mesh_8cpp.html" target="_top" xlink:title=" ">
<polygon fill="white" stroke="#666666" points="144,-294 46,-294 46,-264 144,-264 144,-294"/>
<text text-anchor="start" x="54" y="-282" font-family="Arial" font-size="10.00">/home/user/project</text>
<text text-anchor="middle" x="95" y="-271" font-family="Arial" font-size="10.00">/src/fe/mesh.cpp</text>
</a>
</g>
</g>
<!-- Node1&#45;&gt;Node2 -->
<g id="edge1_Node000001_Node000002" class="edge">
<title>Node1&#45;&gt;Node2</title>
<g id="a_edge1_Node000001_Node000002"><a xlink:title=" ">
<path fill="none" stroke="#63b8ff" d="M146.98,-323.2C135.55,-313.7 122.3,-302.69 112.04,-294.16"/>
<polygon fill="#63b8ff" stroke="#63b8ff" points="144.98,-326.1 154.91,-329.8 149.46,-320.71 144.98,-326.1"/>
</a>
</g>
</g>
<!-- Node3 -->
<g id="Node000003" class="node">
<title>Node3</title>
<g id="a_Node000003"><a xlink:href="input_8cpp.html" target="_top" xlink:title=" ">
<polygon fill="white" stroke="#666666" points="98,-162 0,-162 0,-132 98,-132 98,-162"/>
<text text-anchor="start" x="8" y="-150" font-family="Arial" font-size="10.00">/home/user/project</text>
<text text-anchor="middle" x="49" y="-139" font-family="Arial" font-size="10.00">/src/inp/input.cpp</text>
</a>
</g>
</g>
<!-- Node1&#45;&gt;Node3 -->
<g id="edge2_Node000001_Node000003" class="edge">
<title>Node1&#45;&gt;Node3</title>
<g id="a_edge2_Node000001_Node000003"><a xlink:title=" ">
<path fill="none" stroke="#63b8ff" d="M169.47,-320.03C166.98,-303.54 162.17,-281.54 153,-264 130.81,-221.58 89.59,-182.37 66.26,-162.2"/>
<polygon fill="#63b8ff" stroke="#63b8ff" points="166,-320.51 170.78,-329.97 172.94,-319.59 166,-320.51"/>
</a>
</g>
</g>
<!-- Node4 -->
<g id="Node000004" class="node">
<title>Node4</title>
<g id="a_Node000004"><a xlink:href="zoneDeck_8h.html" target="_top" xlink:title=" ">
<polygon fill="white" stroke="#666666" points="360.5,-294 221.5,-294 221.5,-264 360.5,-264 360.5,-294"/>
<text text-anchor="start" x="229.5" y="-282" font-family="Arial" font-size="10.00">/home/user/project</text>
<text text-anchor="middle" x="291" y="-271" font-family="Arial" font-size="10.00">/src/inp/pdecks/zoneDeck.h</text>
</a>
</g>
</g>
<!-- Node1&#45;&gt;Node4 -->
<g id="edge3_Node000001_Node000004" class="edge">
<title>Node1&#45;&gt;Node4</title>
<g id="a_edge3_Node000001_Node000004"><a xlink:title=" ">
<path fill="none" stroke="#63b8ff" d="M207.13,-325.11C225.65,-315.14 247.99,-303.13 264.95,-294.01"/>
<polygon fill="#63b8ff" stroke="#63b8ff" points="205.26,-322.14 198.12,-329.95 208.58,-328.3 205.26,-322.14"/>
</a>
</g>
</g>
<!-- Node5 -->
<g id="Node000005" class="node">
<title>Node5</title>
<g id="a_Node000005"><a xlink:href="particleDeck_8h.html" target="_top" xlink:title=" ">
<polygon fill="white" stroke="#666666" points="386.5,-228 237.5,-228 237.5,-198 386.5,-198 386.5,-228"/>
<text text-anchor="start" x="245.5" y="-216" font-family="Arial" font-size="10.00">/home/user/project</text>
<text text-anchor="middle" x="312" y="-205" font-family="Arial" font-size="10.00">/src/inp/pdecks/particleDeck.h</text>
</a>
</g>
</g>
<!-- Node4&#45;&gt;Node5 -->
<g id="edge4_Node000004_Node000005" class="edge">
<title>Node4&#45;&gt;Node5</title>
<g id="a_edge4_Node000004_Node000005"><a xlink:title=" ">
<path fill="none" stroke="#63b8ff" d="M298.84,-254.11C301.7,-245.38 304.85,-235.78 307.35,-228.16"/>
<polygon fill="#63b8ff" stroke="#63b8ff" points="295.45,-253.2 295.66,-263.8 302.1,-255.39 295.45,-253.2"/>
</a>
</g>
</g>
<!-- Node5&#45;&gt;Node3 -->
<g id="edge5_Node000005_Node000003" class="edge">
<title>Node5&#45;&gt;Node3</title>
<g id="a_edge5_Node000005_Node000003"><a xlink:title=" ">
<path fill="none" stroke="#63b8ff" d="M244.46,-195.56C198.76,-184.44 139.44,-170.01 98.19,-159.97"/>
<polygon fill="#63b8ff" stroke="#63b8ff" points="243.74,-198.99 254.28,-197.95 245.39,-192.19 243.74,-198.99"/>
</a>
</g>
</g>
<!-- Node6 -->
<g id="Node000006" class="node">
<title>Node6</title>
<g id="a_Node000006"><a xlink:href="particleFLoading_8cpp.html" target="_top" xlink:title=" ">
<polygon fill="white" stroke="#666666" points="280,-30 120,-30 120,0 280,0 280,-30"/>
<text text-anchor="start" x="128" y="-18" font-family="Arial" font-size="10.00">/home/user/project</text>
<text text-anchor="middle" x="200" y="-7" font-family="Arial" font-size="10.00">/src/loading/particleFLoading.cpp</text>
</a>
</g>
</g>
<!-- Node5&#45;&gt;Node6 -->
<g id="edge6_Node000005_Node000006" class="edge">
<title>Node5&#45;&gt;Node6</title>
<g id="a_edge6_Node000005_Node000006"><a xlink:title=" ">
<path fill="none" stroke="#63b8ff" d="M263.07,-193.95C222.57,-176.03 167.93,-144.2 144,-96 138.07,-84.06 138.55,-78.17 144,-66 150.66,-51.13 164.17,-38.86 176.25,-30.2"/>
<polygon fill="#63b8ff" stroke="#63b8ff" points="261.95,-197.28 272.52,-198 264.7,-190.84 261.95,-197.28"/>
</a>
</g>
</g>
<!-- Node7 -->
<g id="Node000007" class="node">
<title>Node7</title>
<g id="a_Node000007"><a xlink:href="particleLoading_8h.html" target="_top" xlink:title=" ">
<polygon fill="white" stroke="#666666" points="383.5,-162 240.5,-162 240.5,-132 383.5,-132 383.5,-162"/>
<text text-anchor="start" x="248.5" y="-150" font-family="Arial" font-size="10.00">/home/user/project</text>
<text text-anchor="middle" x="312" y="-139" font-family="Arial" font-size="10.00">/src/loading/particleLoading.h</text>
</a>
</g>
</g>
<!-- Node5&#45;&gt;Node7 -->
<g id="edge7_Node000005_Node000007" class="edge">
<title>Node5&#45;&gt;Node7</title>
<g id="a_edge7_Node000005_Node000007"><a xlink:title=" ">
<path fill="none" stroke="#63b8ff" d="M312,-187.54C312,-178.96 312,-169.61 312,-162.16"/>
<polygon fill="#63b8ff" stroke="#63b8ff" points="308.5,-187.8 312,-197.8 315.5,-187.8 308.5,-187.8"/>
</a>
</g>
</g>
<!-- Node21 -->
<g id="Node000021" class="node">
<title>Node21</title>
<g id="a_Node000021"><a xlink:href="particleULoading_8cpp.html" target="_top" xlink:title=" ">
<polygon fill="white" stroke="#666666" points="504.5,-30 343.5,-30 343.5,0 504.5,0 504.5,-30"/>
<text text-anchor="start" x="351.5" y="-18" font-family="Arial" font-size="10.00">/home/user/project</text>
<text text-anchor="middle" x="424" y="-7" font-family="Arial" font-size="10.00">/src/loading/particleULoading.cpp</text>
</a>
</g>
</g>
<!-- Node5&#45;&gt;Node21 -->
<g id="edge12_Node000005_Node000021" class="edge">
<title>Node5&#45;&gt;Node21</title>
<g id="a_edge12_Node000005_Node000021"><a xlink:title=" ">
<path fill="none" stroke="#63b8ff" d="M360.86,-193.92C401.32,-175.97 455.93,-144.13 480,-96 485.96,-84.07 485.45,-78.17 480,-66 473.34,-51.13 459.83,-38.86 447.75,-30.2"/>
<polygon fill="#63b8ff" stroke="#63b8ff" points="359.23,-190.81 351.42,-197.97 361.99,-197.24 359.23,-190.81"/>
</a>
</g>
</g>
<!-- Node26 -->
<g id="Node000026" class="node">
<title>Node26</title>
<g id="a_Node000026"><a xlink:href="refParticle_8cpp.html" target="_top" xlink:title=" ">
<polygon fill="white" stroke="#666666" points="679,-96 545,-96 545,-66 679,-66 679,-96"/>
<text text-anchor="start" x="553" y="-84" font-family="Arial" font-size="10.00">/home/user/project</text>
<text text-anchor="middle" x="612" y="-73" font-family="Arial" font-size="10.00">/src/particle/refParticle.cpp</text>
</a>
</g>
</g>
<!-- Node5&#45;&gt;Node26 -->
<g id="edge13_Node000005_Node000026" class="edge">
<title>Node5&#45;&gt;Node26</title>
<g id="a_edge13_Node000005_Node000026"><a xlink:title=" ">
<path fill="none" stroke="#63b8ff" d="M396.58,-199.7C433.92,-192.12 477.51,-180.24 514,-162 531.78,-153.11 573.41,-116.8 596.27,-96.29"/>
<polygon fill="#63b8ff" stroke="#63b8ff" points="395.87,-196.27 386.73,-201.63 397.22,-203.14 395.87,-196.27"/>
</a>
</g>
</g>
<!-- Node25 -->
<g id="Node000025" class="node">
<title>Node25</title>
<g id="a_Node000025"><a xlink:href="refParticle_8h.html" target="_top" xlink:title=" ">
<polygon fill="#fff0f0" stroke="red" points="689.5,-162 566.5,-162 566.5,-132 689.5,-132 689.5,-162"/>
<text text-anchor="start" x="574.5" y="-150" font-family="Arial" font-size="10.00">/home/user/project</text>
<text text-anchor="middle" x="628" y="-139" font-family="Arial" font-size="10.00">/src/particle/refParticle.h</text>
</a>
</g>
</g>
<!-- Node5&#45;&gt;Node25 -->
<g id="edge14_Node000005_Node000025" class="edge">
<title>Node5&#45;&gt;Node25</title>
<g id="a_edge14_Node000005_Node000025"><a xlink:title=" ">
<path fill="none" stroke="#63b8ff" d="M391.27,-195.95C445.47,-184.97 516.29,-170.62 566.3,-160.5"/>
<polygon fill="#63b8ff" stroke="#63b8ff" points="390.45,-192.54 381.35,-197.95 391.84,-199.4 390.45,-192.54"/>
</a>
</g>
</g>
<!-- Node8 -->
<g id="Node000008" class="node">
<title>Node8</title>
<g id="a_Node000008"><a xlink:href="particleFLoading_8h.html" target="_top" xlink:title=" ">
<polygon fill="#fff0f0" stroke="red" points="302.5,-96 153.5,-96 153.5,-66 302.5,-66 302.5,-96"/>
<text text-anchor="start" x="161.5" y="-84" font-family="Arial" font-size="10.00">/home/user/project</text>
<text text-anchor="middle" x="228" y="-73" font-family="Arial" font-size="10.00">/src/loading/particleFLoading.h</text>
</a>
</g>
</g>
<!-- Node7&#45;&gt;Node8 -->
<g id="edge8_Node000007_Node000008" class="edge">
<title>Node7&#45;&gt;Node8</title>
<g id="a_edge8_Node000007_Node000008"><a xlink:title=" ">
<path fill="none" stroke="#63b8ff" d="M285.06,-125.48C272.51,-115.91 257.89,-104.77 246.59,-96.16"/>
<polygon fill="#63b8ff" stroke="#63b8ff" points="283.28,-128.52 293.36,-131.8 287.52,-122.95 283.28,-128.52"/>
</a>
</g>
</g>
<!-- Node27 -->
<g id="Node000027" class="node">
<title>Node27</title>
<g id="a_Node000027"><a xlink:href="particleULoading_8h.html" target="_top" xlink:title=" ">
<polygon fill="#fff0f0" stroke="red" points="471.5,-96 320.5,-96 320.5,-66 471.5,-66 471.5,-96"/>
<text text-anchor="start" x="328.5" y="-84" font-family="Arial" font-size="10.00">/home/user/project</text>
<text text-anchor="middle" x="396" y="-73" font-family="Arial" font-size="10.00">/src/loading/particleULoading.h</text>
</a>
</g>
</g>
<!-- Node7&#45;&gt;Node27 -->
<g id="edge10_Node000007_Node000027" class="edge">
<title>Node7&#45;&gt;Node27</title>
<g id="a_edge10_Node000007_Node000027"><a xlink:title=" ">
<path fill="none" stroke="#63b8ff" d="M338.94,-125.48C351.49,-115.91 366.11,-104.77 377.41,-96.16"/>
<polygon fill="#63b8ff" stroke="#63b8ff" points="336.48,-122.95 330.64,-131.8 340.72,-128.52 336.48,-122.95"/>
</a>
</g>
</g>
<!-- Node8&#45;&gt;Node6 -->
<g id="edge9_Node000008_Node000006" class="edge">
<title>Node8&#45;&gt;Node6</title>
<g id="a_edge9_Node000008_Node000006"><a xlink:title=" ">
<path fill="none" stroke="#63b8ff" d="M217.67,-56.39C213.82,-47.59 209.57,-37.86 206.2,-30.16"/>
<polygon fill="#63b8ff" stroke="#63b8ff" points="214.57,-58.04 221.79,-65.8 220.98,-55.23 214.57,-58.04"/>
</a>
</g>
</g>
<!-- Node27&#45;&gt;Node21 -->
<g id="edge11_Node000027_Node000021" class="edge">
<title>Node27&#45;&gt;Node21</title>
<g id="a_edge11_Node000027_Node000021"><a xlink:title=" ">
<path fill="none" stroke="#63b8ff" d="M406.33,-56.39C410.18,-47.59 414.43,-37.86 417.8,-30.16"/>
<polygon fill="#63b8ff" stroke="#63b8ff" points="403.02,-55.23 402.21,-65.8 409.43,-58.04 403.02,-55.23"/>
</a>
</g>
</g>
<!-- Node25&#45;&gt;Node26 -->
<g id="edge15_Node000025_Node000026" class="edge">
<title>Node25&#45;&gt;Node26</title>
<g id="a_edge15_Node000025_Node000026"><a xlink:title=" ">
<path fill="none" stroke="#63b8ff" d="M621.96,-121.83C619.79,-113.17 617.42,-103.7 615.54,-96.16"/>
<polygon fill="#63b8ff" stroke="#63b8ff" points="618.63,-122.94 624.45,-131.8 625.42,-121.25 618.63,-122.94"/>
</a>
</g>
</g>
</g>
</svg>
