<?xml version="1.0" encoding="UTF-8" standalone="no"?>
<!DOCTYPE svg PUBLIC "-//W3C//DTD SVG 1.1//EN"
 "http://www.w3.org/Graphics/SVG/1.1/DTD/svg11.dtd">
<!-- Generated by graphviz version 2.43.0 (0)
 -->
<!-- Title: /home/user/project/src/fe/meshUtil.h Pages: 1 -->
<svg width="633pt" height="263pt"
 viewBox="0.00 0.00 632.50 263.00" xmlns="http://www.w3.org/2000/svg" xmlns:xlink="http://www.w3.org/1999/xlink">
<g id="graph0" class="graph" transform="scale(1 1) rotate(0) translate(4 259)">
<title>/home/user/project/src/fe/meshUtil.h</title>
<!-- Node1 -->
<g id="node1" class="node">
<title>Node1</title>
<g id="a_node1"><a xlink:title=" ">
<polygon fill="#bfbfbf" stroke="black" points="326,-224.5 326,-254.5 424,-254.5 424,-224.5 326,-224.5"/>
<text text-anchor="start" x="334" y="-242.5" font-family="Arial" font-size="10.00">/home/user/project</text>
<text text-anchor="middle" x="375" y="-231.5" font-family="Arial" font-size="10.00">/src/fe/meshUtil.h</text>
</a>
</g>
</g>
<!-- Node2 -->
<g id="node2" class="node">
<title>Node2</title>
<g id="a_node2"><a xlink:href="point_8h.html" target="_top" xlink:title=" ">
<polygon fill="none" stroke="black" points="84,-56.5 84,-75.5 146,-75.5 146,-56.5 84,-56.5"/>
<text text-anchor="middle" x="115" y="-63.5" font-family="Arial" font-size="10.00">util/point.h</text>
</a>
</g>
</g>
<!-- Node1&#45;&gt;Node2 -->
<g id="edge1" class="edge">
<title>Node1&#45;&gt;Node2</title>
<path fill="none" stroke="midnightblue" d="M325.75,-237.8C255.5,-233.8 128.76,-214.77 72,-132 60.34,-114.99 77.81,-95.19 93.85,-81.96"/>
<polygon fill="midnightblue" stroke="midnightblue" points="96.19,-84.57 101.95,-75.68 91.9,-79.04 96.19,-84.57"/>
</g>
<!-- Node7 -->
<g id="node7" class="node">
<title>Node7</title>
<g id="a_node7"><a xlink:title=" ">
<polygon fill="none" stroke="#bfbfbf" points="399,-0.5 399,-19.5 443,-19.5 443,-0.5 399,-0.5"/>
<text text-anchor="middle" x="421" y="-7.5" font-family="Arial" font-size="10.00">vector</text>
</a>
</g>
</g>
<!-- Node1&#45;&gt;Node7 -->
<g id="edge25" class="edge">
<title>Node1&#45;&gt;Node7</title>
<path fill="none" stroke="midnightblue" d="M408.41,-224.34C423.39,-216.09 439.56,-204.11 448,-188 475.73,-135.11 446.63,-61.91 430.38,-28.68"/>
<polygon fill="midnightblue" stroke="midnightblue" points="433.48,-27.05 425.83,-19.72 427.24,-30.22 433.48,-27.05"/>
</g>
<!-- Node8 -->
<g id="node8" class="node">
<title>Node8</title>
<g id="a_node8"><a xlink:href="matrix_8h.html" target="_top" xlink:title=" ">
<polygon fill="none" stroke="black" points="81,-112.5 81,-131.5 149,-131.5 149,-112.5 81,-112.5"/>
<text text-anchor="middle" x="115" y="-119.5" font-family="Arial" font-size="10.00">util/matrix.h</text>
</a>
</g>
</g>
<!-- Node1&#45;&gt;Node8 -->
<g id="edge7" class="edge">
<title>Node1&#45;&gt;Node8</title>
<path fill="none" stroke="midnightblue" d="M343.38,-224.45C292.35,-201.79 192.64,-157.49 143.61,-135.71"/>
<polygon fill="midnightblue" stroke="midnightblue" points="144.79,-132.4 134.23,-131.54 141.95,-138.8 144.79,-132.4"/>
</g>
<!-- Node9 -->
<g id="node9" class="node">
<title>Node9</title>
<g id="a_node9"><a xlink:href="materialDeck_8h.html" target="_top" xlink:title=" ">
<polygon fill="none" stroke="black" points="311,-168.5 311,-187.5 439,-187.5 439,-168.5 311,-168.5"/>
<text text-anchor="middle" x="375" y="-175.5" font-family="Arial" font-size="10.00">inp/decks/materialDeck.h</text>
</a>
</g>
</g>
<!-- Node1&#45;&gt;Node9 -->
<g id="edge9" class="edge">
<title>Node1&#45;&gt;Node9</title>
<path fill="none" stroke="midnightblue" d="M375,-224.4C375,-216.47 375,-206.46 375,-197.86"/>
<polygon fill="midnightblue" stroke="midnightblue" points="378.5,-197.66 375,-187.66 371.5,-197.66 378.5,-197.66"/>
</g>
<!-- Node13 -->
<g id="node13" class="node">
<title>Node13</title>
<g id="a_node13"><a xlink:title=" ">
<polygon fill="none" stroke="#bfbfbf" points="583.5,-0.5 583.5,-19.5 624.5,-19.5 624.5,-0.5 583.5,-0.5"/>
<text text-anchor="middle" x="604" y="-7.5" font-family="Arial" font-size="10.00">string</text>
</a>
</g>
</g>
<!-- Node1&#45;&gt;Node13 -->
<g id="edge24" class="edge">
<title>Node1&#45;&gt;Node13</title>
<path fill="none" stroke="midnightblue" d="M411.01,-224.31C462.83,-201.72 556.64,-152.18 597,-76 604.56,-61.74 605.88,-43.27 605.56,-29.66"/>
<polygon fill="midnightblue" stroke="midnightblue" points="609.05,-29.37 605.01,-19.58 602.06,-29.75 609.05,-29.37"/>
</g>
<!-- Node3 -->
<g id="node3" class="node">
<title>Node3</title>
<g id="a_node3"><a xlink:title=" ">
<polygon fill="none" stroke="#bfbfbf" points="138,-0.5 138,-19.5 182,-19.5 182,-0.5 138,-0.5"/>
<text text-anchor="middle" x="160" y="-7.5" font-family="Arial" font-size="10.00">cmath</text>
</a>
</g>
</g>
<!-- Node2&#45;&gt;Node3 -->
<g id="edge2" class="edge">
<title>Node2&#45;&gt;Node3</title>
<path fill="none" stroke="midnightblue" d="M122.43,-56.08C128.85,-48.38 138.31,-37.03 146.12,-27.65"/>
<polygon fill="midnightblue" stroke="midnightblue" points="148.99,-29.67 152.71,-19.75 143.62,-25.19 148.99,-29.67"/>
</g>
<!-- Node4 -->
<g id="node4" class="node">
<title>Node4</title>
<g id="a_node4"><a xlink:title=" ">
<polygon fill="none" stroke="#bfbfbf" points="0,-0.5 0,-19.5 50,-19.5 50,-0.5 0,-0.5"/>
<text text-anchor="middle" x="25" y="-7.5" font-family="Arial" font-size="10.00">iomanip</text>
</a>
</g>
</g>
<!-- Node2&#45;&gt;Node4 -->
<g id="edge3" class="edge">
<title>Node2&#45;&gt;Node4</title>
<path fill="none" stroke="midnightblue" d="M100.54,-56.32C86.5,-47.9 64.95,-34.97 48.46,-25.07"/>
<polygon fill="midnightblue" stroke="midnightblue" points="49.8,-21.8 39.42,-19.65 46.2,-27.8 49.8,-21.8"/>
</g>
<!-- Node5 -->
<g id="node5" class="node">
<title>Node5</title>
<g id="a_node5"><a xlink:title=" ">
<polygon fill="none" stroke="#bfbfbf" points="68,-0.5 68,-19.5 120,-19.5 120,-0.5 68,-0.5"/>
<text text-anchor="middle" x="94" y="-7.5" font-family="Arial" font-size="10.00">sstream</text>
</a>
</g>
</g>
<!-- Node2&#45;&gt;Node5 -->
<g id="edge4" class="edge">
<title>Node2&#45;&gt;Node5</title>
<path fill="none" stroke="midnightblue" d="M111.53,-56.08C108.69,-48.77 104.57,-38.18 101.04,-29.1"/>
<polygon fill="midnightblue" stroke="midnightblue" points="104.29,-27.8 97.4,-19.75 97.77,-30.34 104.29,-27.8"/>
</g>
<!-- Node6 -->
<g id="node6" class="node">
<title>Node6</title>
<g id="a_node6"><a xlink:title=" ">
<polygon fill="none" stroke="#bfbfbf" points="200,-0.5 200,-19.5 254,-19.5 254,-0.5 200,-0.5"/>
<text text-anchor="middle" x="227" y="-7.5" font-family="Arial" font-size="10.00">iostream</text>
</a>
</g>
</g>
<!-- Node2&#45;&gt;Node6 -->
<g id="edge5" class="edge">
<title>Node2&#45;&gt;Node6</title>
<path fill="none" stroke="midnightblue" d="M132.99,-56.32C151.04,-47.62 179.05,-34.12 199.8,-24.11"/>
<polygon fill="midnightblue" stroke="midnightblue" points="201.56,-27.15 209.05,-19.65 198.52,-20.84 201.56,-27.15"/>
</g>
<!-- Node2&#45;&gt;Node7 -->
<g id="edge6" class="edge">
<title>Node2&#45;&gt;Node7</title>
<path fill="none" stroke="midnightblue" d="M146.02,-59.53C204.36,-49.23 329.84,-27.09 388.95,-16.66"/>
<polygon fill="midnightblue" stroke="midnightblue" points="389.61,-20.09 398.85,-14.91 388.4,-13.2 389.61,-20.09"/>
</g>
<!-- Node8&#45;&gt;Node2 -->
<g id="edge8" class="edge">
<title>Node8&#45;&gt;Node2</title>
<path fill="none" stroke="midnightblue" d="M115,-112.08C115,-105.01 115,-94.86 115,-85.99"/>
<polygon fill="midnightblue" stroke="midnightblue" points="118.5,-85.75 115,-75.75 111.5,-85.75 118.5,-85.75"/>
</g>
<!-- Node9&#45;&gt;Node3 -->
<g id="edge21" class="edge">
<title>Node9&#45;&gt;Node3</title>
<path fill="none" stroke="midnightblue" d="M358.5,-168.3C328.88,-152.26 265.45,-116 219,-76 201.76,-61.15 184.56,-41.52 173.22,-27.73"/>
<polygon fill="midnightblue" stroke="midnightblue" points="175.68,-25.2 166.67,-19.62 170.23,-29.6 175.68,-25.2"/>
</g>
<!-- Node9&#45;&gt;Node7 -->
<g id="edge23" class="edge">
<title>Node9&#45;&gt;Node7</title>
<path fill="none" stroke="midnightblue" d="M377.47,-168.08C384.71,-141.95 405.98,-65.21 415.85,-29.58"/>
<polygon fill="midnightblue" stroke="midnightblue" points="419.33,-30.14 418.63,-19.57 412.58,-28.27 419.33,-30.14"/>
</g>
<!-- Node10 -->
<g id="node10" class="node">
<title>Node10</title>
<g id="a_node10"><a xlink:href="io_8h.html" target="_top" xlink:title=" ">
<polygon fill="none" stroke="black" points="312,-112.5 312,-131.5 360,-131.5 360,-112.5 312,-112.5"/>
<text text-anchor="middle" x="336" y="-119.5" font-family="Arial" font-size="10.00">util/io.h</text>
</a>
</g>
</g>
<!-- Node9&#45;&gt;Node10 -->
<g id="edge10" class="edge">
<title>Node9&#45;&gt;Node10</title>
<path fill="none" stroke="midnightblue" d="M368.56,-168.08C363.05,-160.46 354.97,-149.26 348.24,-139.94"/>
<polygon fill="midnightblue" stroke="midnightblue" points="351.01,-137.81 342.32,-131.75 345.34,-141.91 351.01,-137.81"/>
</g>
<!-- Node9&#45;&gt;Node13 -->
<g id="edge22" class="edge">
<title>Node9&#45;&gt;Node13</title>
<path fill="none" stroke="midnightblue" d="M407.69,-168.47C451.67,-155.45 529.81,-126.62 577,-76 589.1,-63.02 596.16,-43.86 600,-29.7"/>
<polygon fill="midnightblue" stroke="midnightblue" points="603.49,-30.17 602.43,-19.63 596.69,-28.53 603.49,-30.17"/>
</g>
<!-- Node10&#45;&gt;Node2 -->
<g id="edge11" class="edge">
<title>Node10&#45;&gt;Node2</title>
<path fill="none" stroke="midnightblue" d="M311.93,-115.12C274.49,-105.97 201.85,-88.22 156.02,-77.02"/>
<polygon fill="midnightblue" stroke="midnightblue" points="156.66,-73.58 146.11,-74.6 155,-80.38 156.66,-73.58"/>
</g>
<!-- Node10&#45;&gt;Node6 -->
<g id="edge18" class="edge">
<title>Node10&#45;&gt;Node6</title>
<path fill="none" stroke="midnightblue" d="M311.87,-117.96C287.09,-113.45 249.62,-102.43 231,-76 221.65,-62.73 221.53,-43.89 223.23,-29.91"/>
<polygon fill="midnightblue" stroke="midnightblue" points="226.7,-30.37 224.84,-19.94 219.79,-29.25 226.7,-30.37"/>
</g>
<!-- Node10&#45;&gt;Node7 -->
<g id="edge19" class="edge">
<title>Node10&#45;&gt;Node7</title>
<path fill="none" stroke="midnightblue" d="M343.23,-112.48C350.79,-103.51 362.93,-88.92 373,-76 385.61,-59.82 399.48,-40.91 409.05,-27.67"/>
<polygon fill="midnightblue" stroke="midnightblue" points="411.92,-29.68 414.92,-19.52 406.24,-25.59 411.92,-29.68"/>
</g>
<!-- Node11 -->
<g id="node11" class="node">
<title>Node11</title>
<g id="a_node11"><a xlink:href="parallelUtil_8h.html" target="_top" xlink:title=" ">
<polygon fill="none" stroke="black" points="496.5,-56.5 496.5,-75.5 567.5,-75.5 567.5,-56.5 496.5,-56.5"/>
<text text-anchor="middle" x="532" y="-63.5" font-family="Arial" font-size="10.00">parallelUtil.h</text>
</a>
</g>
</g>
<!-- Node10&#45;&gt;Node11 -->
<g id="edge12" class="edge">
<title>Node10&#45;&gt;Node11</title>
<path fill="none" stroke="midnightblue" d="M360.03,-114.38C392.66,-105.39 451.45,-89.19 491.1,-78.27"/>
<polygon fill="midnightblue" stroke="midnightblue" points="492.27,-81.58 500.98,-75.55 490.41,-74.83 492.27,-81.58"/>
</g>
<!-- Node15 -->
<g id="node15" class="node">
<title>Node15</title>
<g id="a_node15"><a xlink:title=" ">
<polygon fill="none" stroke="#bfbfbf" points="240,-56.5 240,-75.5 290,-75.5 290,-56.5 240,-56.5"/>
<text text-anchor="middle" x="265" y="-63.5" font-family="Arial" font-size="10.00">fstream</text>
</a>
</g>
</g>
<!-- Node10&#45;&gt;Node15 -->
<g id="edge17" class="edge">
<title>Node10&#45;&gt;Node15</title>
<path fill="none" stroke="midnightblue" d="M324.59,-112.32C313.89,-104.18 297.66,-91.84 284.84,-82.09"/>
<polygon fill="midnightblue" stroke="midnightblue" points="286.69,-79.1 276.61,-75.83 282.46,-84.67 286.69,-79.1"/>
</g>
<!-- Node16 -->
<g id="node16" class="node">
<title>Node16</title>
<g id="a_node16"><a xlink:title=" ">
<polygon fill="none" stroke="#bfbfbf" points="308,-56.5 308,-75.5 364,-75.5 364,-56.5 308,-56.5"/>
<text text-anchor="middle" x="336" y="-63.5" font-family="Arial" font-size="10.00">algorithm</text>
</a>
</g>
</g>
<!-- Node10&#45;&gt;Node16 -->
<g id="edge20" class="edge">
<title>Node10&#45;&gt;Node16</title>
<path fill="none" stroke="midnightblue" d="M336,-112.08C336,-105.01 336,-94.86 336,-85.99"/>
<polygon fill="midnightblue" stroke="midnightblue" points="339.5,-85.75 336,-75.75 332.5,-85.75 339.5,-85.75"/>
</g>
<!-- Node11&#45;&gt;Node7 -->
<g id="edge15" class="edge">
<title>Node11&#45;&gt;Node7</title>
<path fill="none" stroke="midnightblue" d="M514.17,-56.32C496.28,-47.62 468.52,-34.12 447.95,-24.11"/>
<polygon fill="midnightblue" stroke="midnightblue" points="449.31,-20.88 438.79,-19.65 446.25,-27.18 449.31,-20.88"/>
</g>
<!-- Node12 -->
<g id="node12" class="node">
<title>Node12</title>
<g id="a_node12"><a xlink:title=" ">
<polygon fill="none" stroke="#bfbfbf" points="461.5,-0.5 461.5,-19.5 502.5,-19.5 502.5,-0.5 461.5,-0.5"/>
<text text-anchor="middle" x="482" y="-7.5" font-family="Arial" font-size="10.00">mpi.h</text>
</a>
</g>
</g>
<!-- Node11&#45;&gt;Node12 -->
<g id="edge13" class="edge">
<title>Node11&#45;&gt;Node12</title>
<path fill="none" stroke="midnightblue" d="M523.74,-56.08C516.54,-48.3 505.89,-36.8 497.15,-27.37"/>
<polygon fill="midnightblue" stroke="midnightblue" points="499.47,-24.71 490.1,-19.75 494.33,-29.47 499.47,-24.71"/>
</g>
<!-- Node11&#45;&gt;Node13 -->
<g id="edge14" class="edge">
<title>Node11&#45;&gt;Node13</title>
<path fill="none" stroke="midnightblue" d="M543.57,-56.32C554.42,-48.18 570.88,-35.84 583.88,-26.09"/>
<polygon fill="midnightblue" stroke="midnightblue" points="586.32,-28.63 592.22,-19.83 582.12,-23.03 586.32,-28.63"/>
</g>
<!-- Node14 -->
<g id="node14" class="node">
<title>Node14</title>
<g id="a_node14"><a xlink:title=" ">
<polygon fill="none" stroke="#bfbfbf" points="521,-0.5 521,-19.5 565,-19.5 565,-0.5 521,-0.5"/>
<text text-anchor="middle" x="543" y="-7.5" font-family="Arial" font-size="10.00">thread</text>
</a>
</g>
</g>
<!-- Node11&#45;&gt;Node14 -->
<g id="edge16" class="edge">
<title>Node11&#45;&gt;Node14</title>
<path fill="none" stroke="midnightblue" d="M533.82,-56.08C535.27,-48.93 537.37,-38.64 539.19,-29.69"/>
<polygon fill="midnightblue" stroke="midnightblue" points="542.65,-30.25 541.22,-19.75 535.79,-28.85 542.65,-30.25"/>
</g>
</g>
</svg>
