<?xml version="1.0" encoding="UTF-8" standalone="no"?>
<!DOCTYPE svg PUBLIC "-//W3C//DTD SVG 1.1//EN"
 "http://www.w3.org/Graphics/SVG/1.1/DTD/svg11.dtd">
<!-- Generated by graphviz version 2.43.0 (0)
 -->
<!-- Title: /home/user/project/src/fe/mesh.cpp Pages: 1 -->
<svg width="1214pt" height="386pt"
 viewBox="0.00 0.00 1214.00 386.00" xmlns="http://www.w3.org/2000/svg" xmlns:xlink="http://www.w3.org/1999/xlink">
<g id="graph0" class="graph" transform="scale(1 1) rotate(0) translate(4 382)">
<title>/home/user/project/src/fe/mesh.cpp</title>
<!-- Node1 -->
<g id="node1" class="node">
<title>Node1</title>
<g id="a_node1"><a xlink:title=" ">
<polygon fill="#bfbfbf" stroke="black" points="442,-347.5 442,-377.5 540,-377.5 540,-347.5 442,-347.5"/>
<text text-anchor="start" x="450" y="-365.5" font-family="Arial" font-size="10.00">/home/user/project</text>
<text text-anchor="middle" x="491" y="-354.5" font-family="Arial" font-size="10.00">/src/fe/mesh.cpp</text>
</a>
</g>
</g>
<!-- Node2 -->
<g id="node2" class="node">
<title>Node2</title>
<g id="a_node2"><a xlink:href="mesh_8h.html" target="_top" xlink:title=" ">
<polygon fill="none" stroke="black" points="416.5,-168.5 416.5,-187.5 465.5,-187.5 465.5,-168.5 416.5,-168.5"/>
<text text-anchor="middle" x="441" y="-175.5" font-family="Arial" font-size="10.00">mesh.h</text>
</a>
</g>
</g>
<!-- Node1&#45;&gt;Node2 -->
<g id="edge1" class="edge">
<title>Node1&#45;&gt;Node2</title>
<path fill="none" stroke="midnightblue" d="M487.16,-347.48C478.25,-314.96 456.16,-234.34 446.12,-197.68"/>
<polygon fill="midnightblue" stroke="midnightblue" points="449.43,-196.54 443.42,-187.82 442.68,-198.39 449.43,-196.54"/>
</g>
<!-- Node7 -->
<g id="node7" class="node">
<title>Node7</title>
<g id="a_node7"><a xlink:title=" ">
<polygon fill="none" stroke="#bfbfbf" points="202,-0.5 202,-19.5 256,-19.5 256,-0.5 202,-0.5"/>
<text text-anchor="middle" x="229" y="-7.5" font-family="Arial" font-size="10.00">iostream</text>
</a>
</g>
</g>
<!-- Node1&#45;&gt;Node7 -->
<g id="edge51" class="edge">
<title>Node1&#45;&gt;Node7</title>
<path fill="none" stroke="midnightblue" d="M455.1,-347.48C387.64,-318.87 243.84,-246.66 189,-132 171.99,-96.43 198.05,-51.74 215.46,-27.87"/>
<polygon fill="midnightblue" stroke="midnightblue" points="218.33,-29.88 221.6,-19.8 212.76,-25.64 218.33,-29.88"/>
</g>
<!-- Node9 -->
<g id="node9" class="node">
<title>Node9</title>
<g id="a_node9"><a xlink:title=" ">
<polygon fill="none" stroke="#bfbfbf" points="434,-112.5 434,-131.5 480,-131.5 480,-112.5 434,-112.5"/>
<text text-anchor="middle" x="457" y="-119.5" font-family="Arial" font-size="10.00">cstdint</text>
</a>
</g>
</g>
<!-- Node1&#45;&gt;Node9 -->
<g id="edge50" class="edge">
<title>Node1&#45;&gt;Node9</title>
<path fill="none" stroke="midnightblue" d="M481.43,-347.48C462.64,-318.99 421.47,-251.63 407,-188 405.03,-179.33 403.38,-176.12 407,-168 412.57,-155.5 423.52,-145.01 433.75,-137.32"/>
<polygon fill="midnightblue" stroke="midnightblue" points="435.85,-140.12 442.05,-131.53 431.84,-134.38 435.85,-140.12"/>
</g>
<!-- Node11 -->
<g id="node11" class="node">
<title>Node11</title>
<g id="a_node11"><a xlink:href="meshDeck_8h.html" target="_top" xlink:title=" ">
<polygon fill="none" stroke="black" points="28.5,-168.5 28.5,-187.5 145.5,-187.5 145.5,-168.5 28.5,-168.5"/>
<text text-anchor="middle" x="87" y="-175.5" font-family="Arial" font-size="10.00">inp/decks/meshDeck.h</text>
</a>
</g>
</g>
<!-- Node1&#45;&gt;Node11 -->
<g id="edge11" class="edge">
<title>Node1&#45;&gt;Node11</title>
<path fill="none" stroke="midnightblue" d="M441.87,-359.26C361.07,-354.73 204.66,-342.11 160,-311 120.18,-283.26 99.76,-226.5 91.51,-197.28"/>
<polygon fill="midnightblue" stroke="midnightblue" points="94.88,-196.32 88.94,-187.55 88.11,-198.11 94.88,-196.32"/>
</g>
<!-- Node13 -->
<g id="node13" class="node">
<title>Node13</title>
<g id="a_node13"><a xlink:href="parallelUtil_8h.html" target="_top" xlink:title=" ">
<polygon fill="none" stroke="black" points="70.5,-56.5 70.5,-75.5 141.5,-75.5 141.5,-56.5 70.5,-56.5"/>
<text text-anchor="middle" x="106" y="-63.5" font-family="Arial" font-size="10.00">parallelUtil.h</text>
</a>
</g>
</g>
<!-- Node1&#45;&gt;Node13 -->
<g id="edge49" class="edge">
<title>Node1&#45;&gt;Node13</title>
<path fill="none" stroke="midnightblue" d="M441.67,-359.26C317.16,-352.26 0,-325.56 0,-235 0,-235 0,-235 0,-177 0,-131.81 46.95,-98.05 78.36,-80.52"/>
<polygon fill="midnightblue" stroke="midnightblue" points="80.37,-83.41 87.54,-75.61 77.07,-77.24 80.37,-83.41"/>
</g>
<!-- Node19 -->
<g id="node19" class="node">
<title>Node19</title>
<g id="a_node19"><a xlink:href="quadElem_8h.html" target="_top" xlink:title=" ">
<polygon fill="none" stroke="black" points="538,-286 538,-305 606,-305 606,-286 538,-286"/>
<text text-anchor="middle" x="572" y="-293" font-family="Arial" font-size="10.00">quadElem.h</text>
</a>
</g>
</g>
<!-- Node1&#45;&gt;Node19 -->
<g id="edge24" class="edge">
<title>Node1&#45;&gt;Node19</title>
<path fill="none" stroke="midnightblue" d="M508.58,-347.4C521.71,-336.86 539.63,-322.48 553.07,-311.69"/>
<polygon fill="midnightblue" stroke="midnightblue" points="555.56,-314.18 561.17,-305.19 551.18,-308.72 555.56,-314.18"/>
</g>
<!-- Node22 -->
<g id="node22" class="node">
<title>Node22</title>
<g id="a_node22"><a xlink:href="reader_8h.html" target="_top" xlink:title=" ">
<polygon fill="none" stroke="black" points="483.5,-168.5 483.5,-187.5 548.5,-187.5 548.5,-168.5 483.5,-168.5"/>
<text text-anchor="middle" x="516" y="-175.5" font-family="Arial" font-size="10.00">rw/reader.h</text>
</a>
</g>
</g>
<!-- Node1&#45;&gt;Node22 -->
<g id="edge31" class="edge">
<title>Node1&#45;&gt;Node22</title>
<path fill="none" stroke="midnightblue" d="M491.29,-347.31C491.76,-331.01 492.97,-303.48 496,-280 499.75,-250.97 506.89,-217.75 511.54,-197.58"/>
<polygon fill="midnightblue" stroke="midnightblue" points="515.01,-198.12 513.89,-187.58 508.2,-196.51 515.01,-198.12"/>
</g>
<!-- Node24 -->
<g id="node24" class="node">
<title>Node24</title>
<g id="a_node24"><a xlink:href="tetElem_8h.html" target="_top" xlink:title=" ">
<polygon fill="none" stroke="black" points="748.5,-286 748.5,-305 807.5,-305 807.5,-286 748.5,-286"/>
<text text-anchor="middle" x="778" y="-293" font-family="Arial" font-size="10.00">tetElem.h</text>
</a>
</g>
</g>
<!-- Node1&#45;&gt;Node24 -->
<g id="edge38" class="edge">
<title>Node1&#45;&gt;Node24</title>
<path fill="none" stroke="midnightblue" d="M540.01,-353.83C590.43,-345.4 670.98,-330.44 739,-311 741.64,-310.24 744.36,-309.39 747.08,-308.49"/>
<polygon fill="midnightblue" stroke="midnightblue" points="748.48,-311.71 756.74,-305.08 746.15,-305.11 748.48,-311.71"/>
</g>
<!-- Node25 -->
<g id="node25" class="node">
<title>Node25</title>
<g id="a_node25"><a xlink:href="triElem_8h.html" target="_top" xlink:title=" ">
<polygon fill="none" stroke="black" points="826,-286 826,-305 882,-305 882,-286 826,-286"/>
<text text-anchor="middle" x="854" y="-293" font-family="Arial" font-size="10.00">triElem.h</text>
</a>
</g>
</g>
<!-- Node1&#45;&gt;Node25 -->
<g id="edge40" class="edge">
<title>Node1&#45;&gt;Node25</title>
<path fill="none" stroke="midnightblue" d="M540.02,-357.29C604.43,-351 720.65,-337 817,-311 819.6,-310.3 822.26,-309.48 824.91,-308.58"/>
<polygon fill="midnightblue" stroke="midnightblue" points="826.11,-311.87 834.3,-305.15 823.71,-305.3 826.11,-311.87"/>
</g>
<!-- Node26 -->
<g id="node26" class="node">
<title>Node26</title>
<g id="a_node26"><a xlink:href="feElementDefs_8h.html" target="_top" xlink:title=" ">
<polygon fill="none" stroke="black" points="624,-286 624,-305 730,-305 730,-286 624,-286"/>
<text text-anchor="middle" x="677" y="-293" font-family="Arial" font-size="10.00">util/feElementDefs.h</text>
</a>
</g>
</g>
<!-- Node1&#45;&gt;Node26 -->
<g id="edge42" class="edge">
<title>Node1&#45;&gt;Node26</title>
<path fill="none" stroke="midnightblue" d="M531.36,-347.4C564.72,-335.74 611.55,-319.37 643.02,-308.38"/>
<polygon fill="midnightblue" stroke="midnightblue" points="644.37,-311.61 652.66,-305.01 642.06,-305 644.37,-311.61"/>
</g>
<!-- Node27 -->
<g id="node27" class="node">
<title>Node27</title>
<g id="a_node27"><a xlink:href="function_8h.html" target="_top" xlink:title=" ">
<polygon fill="none" stroke="black" points="264.5,-112.5 264.5,-131.5 339.5,-131.5 339.5,-112.5 264.5,-112.5"/>
<text text-anchor="middle" x="302" y="-119.5" font-family="Arial" font-size="10.00">util/function.h</text>
</a>
</g>
</g>
<!-- Node1&#45;&gt;Node27 -->
<g id="edge43" class="edge">
<title>Node1&#45;&gt;Node27</title>
<path fill="none" stroke="midnightblue" d="M474.83,-347.13C464.19,-337.37 450.22,-323.92 439,-311 387.68,-251.88 335.52,-174.49 313.22,-140.4"/>
<polygon fill="midnightblue" stroke="midnightblue" points="315.91,-138.11 307.52,-131.63 310.04,-141.92 315.91,-138.11"/>
</g>
<!-- Node28 -->
<g id="node28" class="node">
<title>Node28</title>
<g id="a_node28"><a xlink:href="geom_8h.html" target="_top" xlink:title=" ">
<polygon fill="none" stroke="black" points="800.5,-112.5 800.5,-131.5 865.5,-131.5 865.5,-112.5 800.5,-112.5"/>
<text text-anchor="middle" x="833" y="-119.5" font-family="Arial" font-size="10.00">util/geom.h</text>
</a>
</g>
</g>
<!-- Node1&#45;&gt;Node28 -->
<g id="edge46" class="edge">
<title>Node1&#45;&gt;Node28</title>
<path fill="none" stroke="midnightblue" d="M495.34,-347.46C501.11,-330.32 512.54,-301.02 529,-280 577.92,-217.54 597.35,-204.09 668,-168 706.94,-148.11 755.68,-136.21 790.06,-129.69"/>
<polygon fill="midnightblue" stroke="midnightblue" points="791.03,-133.07 800.24,-127.84 789.78,-126.19 791.03,-133.07"/>
</g>
<!-- Node29 -->
<g id="node29" class="node">
<title>Node29</title>
<g id="a_node29"><a xlink:title=" ">
<polygon fill="none" stroke="#bfbfbf" points="900.5,-286 900.5,-305 1051.5,-305 1051.5,-286 900.5,-286"/>
<text text-anchor="middle" x="976" y="-293" font-family="Arial" font-size="10.00">taskflow/taskflow/taskflow.hpp</text>
</a>
</g>
</g>
<!-- Node1&#45;&gt;Node29 -->
<g id="edge52" class="edge">
<title>Node1&#45;&gt;Node29</title>
<path fill="none" stroke="midnightblue" d="M540.05,-356C615.57,-347.38 764.81,-329.72 891,-311 899.71,-309.71 908.91,-308.24 917.92,-306.75"/>
<polygon fill="midnightblue" stroke="midnightblue" points="918.68,-310.17 927.96,-305.07 917.52,-303.27 918.68,-310.17"/>
</g>
<!-- Node30 -->
<g id="node30" class="node">
<title>Node30</title>
<g id="a_node30"><a xlink:title=" ">
<polygon fill="none" stroke="#bfbfbf" points="1070,-280.5 1070,-310.5 1206,-310.5 1206,-280.5 1070,-280.5"/>
<text text-anchor="start" x="1078" y="-298.5" font-family="Arial" font-size="10.00">taskflow/taskflow/algorithm</text>
<text text-anchor="middle" x="1138" y="-287.5" font-family="Arial" font-size="10.00">/for_each.hpp</text>
</a>
</g>
</g>
<!-- Node1&#45;&gt;Node30 -->
<g id="edge53" class="edge">
<title>Node1&#45;&gt;Node30</title>
<path fill="none" stroke="midnightblue" d="M540.36,-358.76C637.77,-352.99 861.74,-337.98 1059.62,-311.11"/>
<polygon fill="midnightblue" stroke="midnightblue" points="1060.19,-314.56 1069.62,-309.74 1059.24,-307.63 1060.19,-314.56"/>
</g>
<!-- Node3 -->
<g id="node3" class="node">
<title>Node3</title>
<g id="a_node3"><a xlink:href="point_8h.html" target="_top" xlink:title=" ">
<polygon fill="none" stroke="black" points="602,-56.5 602,-75.5 664,-75.5 664,-56.5 602,-56.5"/>
<text text-anchor="middle" x="633" y="-63.5" font-family="Arial" font-size="10.00">util/point.h</text>
</a>
</g>
</g>
<!-- Node2&#45;&gt;Node3 -->
<g id="edge2" class="edge">
<title>Node2&#45;&gt;Node3</title>
<path fill="none" stroke="midnightblue" d="M434.73,-168.42C425.71,-154.94 411.57,-128.64 425,-112 445.54,-86.54 537.19,-74.77 591.75,-69.93"/>
<polygon fill="midnightblue" stroke="midnightblue" points="592.13,-73.41 601.8,-69.08 591.54,-66.44 592.13,-73.41"/>
</g>
<!-- Node8 -->
<g id="node8" class="node">
<title>Node8</title>
<g id="a_node8"><a xlink:title=" ">
<polygon fill="none" stroke="#bfbfbf" points="463,-0.5 463,-19.5 507,-19.5 507,-0.5 463,-0.5"/>
<text text-anchor="middle" x="485" y="-7.5" font-family="Arial" font-size="10.00">vector</text>
</a>
</g>
</g>
<!-- Node2&#45;&gt;Node8 -->
<g id="edge10" class="edge">
<title>Node2&#45;&gt;Node8</title>
<path fill="none" stroke="midnightblue" d="M433.68,-168.3C424.22,-155.95 409.65,-132.56 416,-112 426.43,-78.24 452.45,-45.7 469.39,-27.06"/>
<polygon fill="midnightblue" stroke="midnightblue" points="471.96,-29.43 476.23,-19.73 466.85,-24.65 471.96,-29.43"/>
</g>
<!-- Node2&#45;&gt;Node9 -->
<g id="edge8" class="edge">
<title>Node2&#45;&gt;Node9</title>
<path fill="none" stroke="midnightblue" d="M443.64,-168.08C445.79,-160.85 448.88,-150.41 451.55,-141.4"/>
<polygon fill="midnightblue" stroke="midnightblue" points="454.92,-142.33 454.41,-131.75 448.21,-140.34 454.92,-142.33"/>
</g>
<!-- Node10 -->
<g id="node10" class="node">
<title>Node10</title>
<g id="a_node10"><a xlink:title=" ">
<polygon fill="none" stroke="#bfbfbf" points="498,-112.5 498,-131.5 544,-131.5 544,-112.5 498,-112.5"/>
<text text-anchor="middle" x="521" y="-119.5" font-family="Arial" font-size="10.00">cstring</text>
</a>
</g>
</g>
<!-- Node2&#45;&gt;Node10 -->
<g id="edge9" class="edge">
<title>Node2&#45;&gt;Node10</title>
<path fill="none" stroke="midnightblue" d="M453.85,-168.32C466.22,-159.98 485.13,-147.21 499.74,-137.35"/>
<polygon fill="midnightblue" stroke="midnightblue" points="501.85,-140.15 508.18,-131.65 497.93,-134.35 501.85,-140.15"/>
</g>
<!-- Node4 -->
<g id="node4" class="node">
<title>Node4</title>
<g id="a_node4"><a xlink:title=" ">
<polygon fill="none" stroke="#bfbfbf" points="546,-0.5 546,-19.5 590,-19.5 590,-0.5 546,-0.5"/>
<text text-anchor="middle" x="568" y="-7.5" font-family="Arial" font-size="10.00">cmath</text>
</a>
</g>
</g>
<!-- Node3&#45;&gt;Node4 -->
<g id="edge3" class="edge">
<title>Node3&#45;&gt;Node4</title>
<path fill="none" stroke="midnightblue" d="M622.56,-56.32C612.85,-48.26 598.18,-36.08 586.5,-26.37"/>
<polygon fill="midnightblue" stroke="midnightblue" points="588.56,-23.53 578.63,-19.83 584.09,-28.92 588.56,-23.53"/>
</g>
<!-- Node5 -->
<g id="node5" class="node">
<title>Node5</title>
<g id="a_node5"><a xlink:title=" ">
<polygon fill="none" stroke="#bfbfbf" points="608,-0.5 608,-19.5 658,-19.5 658,-0.5 608,-0.5"/>
<text text-anchor="middle" x="633" y="-7.5" font-family="Arial" font-size="10.00">iomanip</text>
</a>
</g>
</g>
<!-- Node3&#45;&gt;Node5 -->
<g id="edge4" class="edge">
<title>Node3&#45;&gt;Node5</title>
<path fill="none" stroke="midnightblue" d="M633,-56.08C633,-49.01 633,-38.86 633,-29.99"/>
<polygon fill="midnightblue" stroke="midnightblue" points="636.5,-29.75 633,-19.75 629.5,-29.75 636.5,-29.75"/>
</g>
<!-- Node6 -->
<g id="node6" class="node">
<title>Node6</title>
<g id="a_node6"><a xlink:title=" ">
<polygon fill="none" stroke="#bfbfbf" points="676,-0.5 676,-19.5 728,-19.5 728,-0.5 676,-0.5"/>
<text text-anchor="middle" x="702" y="-7.5" font-family="Arial" font-size="10.00">sstream</text>
</a>
</g>
</g>
<!-- Node3&#45;&gt;Node6 -->
<g id="edge5" class="edge">
<title>Node3&#45;&gt;Node6</title>
<path fill="none" stroke="midnightblue" d="M644.09,-56.32C654.49,-48.18 670.26,-35.84 682.72,-26.09"/>
<polygon fill="midnightblue" stroke="midnightblue" points="684.99,-28.75 690.71,-19.83 680.68,-23.24 684.99,-28.75"/>
</g>
<!-- Node3&#45;&gt;Node7 -->
<g id="edge6" class="edge">
<title>Node3&#45;&gt;Node7</title>
<path fill="none" stroke="midnightblue" d="M601.97,-60.85C528.67,-51.06 345.06,-26.51 266.08,-15.96"/>
<polygon fill="midnightblue" stroke="midnightblue" points="266.47,-12.48 256.09,-14.62 265.54,-19.42 266.47,-12.48"/>
</g>
<!-- Node3&#45;&gt;Node8 -->
<g id="edge7" class="edge">
<title>Node3&#45;&gt;Node8</title>
<path fill="none" stroke="midnightblue" d="M609.55,-56.44C584.58,-47.33 544.89,-32.85 517.05,-22.69"/>
<polygon fill="midnightblue" stroke="midnightblue" points="517.97,-19.3 507.37,-19.16 515.57,-25.88 517.97,-19.3"/>
</g>
<!-- Node12 -->
<g id="node12" class="node">
<title>Node12</title>
<g id="a_node12"><a xlink:href="io_8h.html" target="_top" xlink:title=" ">
<polygon fill="none" stroke="black" points="198,-112.5 198,-131.5 246,-131.5 246,-112.5 198,-112.5"/>
<text text-anchor="middle" x="222" y="-119.5" font-family="Arial" font-size="10.00">util/io.h</text>
</a>
</g>
</g>
<!-- Node11&#45;&gt;Node12 -->
<g id="edge12" class="edge">
<title>Node11&#45;&gt;Node12</title>
<path fill="none" stroke="midnightblue" d="M108.39,-168.44C130.71,-159.52 165.9,-145.44 191.21,-135.32"/>
<polygon fill="midnightblue" stroke="midnightblue" points="192.72,-138.48 200.71,-131.52 190.12,-131.98 192.72,-138.48"/>
</g>
<!-- Node15 -->
<g id="node15" class="node">
<title>Node15</title>
<g id="a_node15"><a xlink:title=" ">
<polygon fill="none" stroke="#bfbfbf" points="21.5,-0.5 21.5,-19.5 62.5,-19.5 62.5,-0.5 21.5,-0.5"/>
<text text-anchor="middle" x="42" y="-7.5" font-family="Arial" font-size="10.00">string</text>
</a>
</g>
</g>
<!-- Node11&#45;&gt;Node15 -->
<g id="edge23" class="edge">
<title>Node11&#45;&gt;Node15</title>
<path fill="none" stroke="midnightblue" d="M84.58,-168.08C77.5,-141.95 56.7,-65.21 47.04,-29.58"/>
<polygon fill="midnightblue" stroke="midnightblue" points="50.32,-28.3 44.32,-19.57 43.56,-30.14 50.32,-28.3"/>
</g>
<!-- Node12&#45;&gt;Node3 -->
<g id="edge13" class="edge">
<title>Node12&#45;&gt;Node3</title>
<path fill="none" stroke="midnightblue" d="M246.05,-114C249.05,-113.26 252.09,-112.57 255,-112 376.24,-88.38 521.94,-75.27 591.75,-69.9"/>
<polygon fill="midnightblue" stroke="midnightblue" points="592.18,-73.38 601.89,-69.14 591.66,-66.4 592.18,-73.38"/>
</g>
<!-- Node12&#45;&gt;Node7 -->
<g id="edge20" class="edge">
<title>Node12&#45;&gt;Node7</title>
<path fill="none" stroke="midnightblue" d="M222.55,-112.37C223.68,-94.62 226.28,-53.67 227.82,-29.6"/>
<polygon fill="midnightblue" stroke="midnightblue" points="231.31,-29.79 228.45,-19.59 224.33,-29.35 231.31,-29.79"/>
</g>
<!-- Node12&#45;&gt;Node8 -->
<g id="edge21" class="edge">
<title>Node12&#45;&gt;Node8</title>
<path fill="none" stroke="midnightblue" d="M246.19,-114.38C281.89,-104.48 346.83,-85.92 369,-76 384.65,-68.99 387.12,-64.53 402,-56 421.14,-45.02 443.09,-33.15 459.61,-24.36"/>
<polygon fill="midnightblue" stroke="midnightblue" points="461.45,-27.34 468.65,-19.57 458.18,-21.16 461.45,-27.34"/>
</g>
<!-- Node12&#45;&gt;Node13 -->
<g id="edge14" class="edge">
<title>Node12&#45;&gt;Node13</title>
<path fill="none" stroke="midnightblue" d="M203.62,-112.44C184.78,-103.68 155.27,-89.94 133.62,-79.86"/>
<polygon fill="midnightblue" stroke="midnightblue" points="134.84,-76.56 124.29,-75.52 131.88,-82.91 134.84,-76.56"/>
</g>
<!-- Node17 -->
<g id="node17" class="node">
<title>Node17</title>
<g id="a_node17"><a xlink:title=" ">
<polygon fill="none" stroke="#bfbfbf" points="236,-56.5 236,-75.5 286,-75.5 286,-56.5 236,-56.5"/>
<text text-anchor="middle" x="261" y="-63.5" font-family="Arial" font-size="10.00">fstream</text>
</a>
</g>
</g>
<!-- Node12&#45;&gt;Node17 -->
<g id="edge19" class="edge">
<title>Node12&#45;&gt;Node17</title>
<path fill="none" stroke="midnightblue" d="M228.44,-112.08C233.95,-104.46 242.03,-93.26 248.76,-83.94"/>
<polygon fill="midnightblue" stroke="midnightblue" points="251.66,-85.91 254.68,-75.75 245.99,-81.81 251.66,-85.91"/>
</g>
<!-- Node18 -->
<g id="node18" class="node">
<title>Node18</title>
<g id="a_node18"><a xlink:title=" ">
<polygon fill="none" stroke="#bfbfbf" points="304,-56.5 304,-75.5 360,-75.5 360,-56.5 304,-56.5"/>
<text text-anchor="middle" x="332" y="-63.5" font-family="Arial" font-size="10.00">algorithm</text>
</a>
</g>
</g>
<!-- Node12&#45;&gt;Node18 -->
<g id="edge22" class="edge">
<title>Node12&#45;&gt;Node18</title>
<path fill="none" stroke="midnightblue" d="M239.67,-112.32C257.39,-103.62 284.9,-90.12 305.29,-80.11"/>
<polygon fill="midnightblue" stroke="midnightblue" points="306.94,-83.2 314.37,-75.65 303.85,-76.92 306.94,-83.2"/>
</g>
<!-- Node13&#45;&gt;Node8 -->
<g id="edge17" class="edge">
<title>Node13&#45;&gt;Node8</title>
<path fill="none" stroke="midnightblue" d="M141.66,-59.92C215.1,-49.46 382.24,-25.64 452.71,-15.6"/>
<polygon fill="midnightblue" stroke="midnightblue" points="453.37,-19.04 462.77,-14.17 452.38,-12.11 453.37,-19.04"/>
</g>
<!-- Node14 -->
<g id="node14" class="node">
<title>Node14</title>
<g id="a_node14"><a xlink:title=" ">
<polygon fill="none" stroke="#bfbfbf" points="80.5,-0.5 80.5,-19.5 121.5,-19.5 121.5,-0.5 80.5,-0.5"/>
<text text-anchor="middle" x="101" y="-7.5" font-family="Arial" font-size="10.00">mpi.h</text>
</a>
</g>
</g>
<!-- Node13&#45;&gt;Node14 -->
<g id="edge15" class="edge">
<title>Node13&#45;&gt;Node14</title>
<path fill="none" stroke="midnightblue" d="M105.17,-56.08C104.52,-49.01 103.58,-38.86 102.76,-29.99"/>
<polygon fill="midnightblue" stroke="midnightblue" points="106.22,-29.39 101.81,-19.75 99.25,-30.03 106.22,-29.39"/>
</g>
<!-- Node13&#45;&gt;Node15 -->
<g id="edge16" class="edge">
<title>Node13&#45;&gt;Node15</title>
<path fill="none" stroke="midnightblue" d="M95.72,-56.32C86.16,-48.26 71.72,-36.08 60.22,-26.37"/>
<polygon fill="midnightblue" stroke="midnightblue" points="62.37,-23.61 52.47,-19.83 57.86,-28.96 62.37,-23.61"/>
</g>
<!-- Node16 -->
<g id="node16" class="node">
<title>Node16</title>
<g id="a_node16"><a xlink:title=" ">
<polygon fill="none" stroke="#bfbfbf" points="140,-0.5 140,-19.5 184,-19.5 184,-0.5 140,-0.5"/>
<text text-anchor="middle" x="162" y="-7.5" font-family="Arial" font-size="10.00">thread</text>
</a>
</g>
</g>
<!-- Node13&#45;&gt;Node16 -->
<g id="edge18" class="edge">
<title>Node13&#45;&gt;Node16</title>
<path fill="none" stroke="midnightblue" d="M115,-56.32C123.19,-48.42 135.51,-36.55 145.47,-26.94"/>
<polygon fill="midnightblue" stroke="midnightblue" points="148.07,-29.29 152.84,-19.83 143.21,-24.26 148.07,-29.29"/>
</g>
<!-- Node20 -->
<g id="node20" class="node">
<title>Node20</title>
<g id="a_node20"><a xlink:href="baseElem_8h.html" target="_top" xlink:title=" ">
<polygon fill="none" stroke="black" points="738,-224.5 738,-243.5 806,-243.5 806,-224.5 738,-224.5"/>
<text text-anchor="middle" x="772" y="-231.5" font-family="Arial" font-size="10.00">baseElem.h</text>
</a>
</g>
</g>
<!-- Node19&#45;&gt;Node20 -->
<g id="edge25" class="edge">
<title>Node19&#45;&gt;Node20</title>
<path fill="none" stroke="midnightblue" d="M596.95,-285.87C602.85,-283.89 609.13,-281.83 615,-280 654.08,-267.82 699.02,-255.06 730.77,-246.26"/>
<polygon fill="midnightblue" stroke="midnightblue" points="731.89,-249.58 740.6,-243.54 730.03,-242.83 731.89,-249.58"/>
</g>
<!-- Node20&#45;&gt;Node3 -->
<g id="edge30" class="edge">
<title>Node20&#45;&gt;Node3</title>
<path fill="none" stroke="midnightblue" d="M771.13,-224.39C768.47,-202.58 758.55,-144.6 726,-112 711.07,-97.05 690.18,-86.32 671.98,-79.11"/>
<polygon fill="midnightblue" stroke="midnightblue" points="673.07,-75.78 662.48,-75.55 670.62,-82.34 673.07,-75.78"/>
</g>
<!-- Node21 -->
<g id="node21" class="node">
<title>Node21</title>
<g id="a_node21"><a xlink:href="quadData_8h.html" target="_top" xlink:title=" ">
<polygon fill="none" stroke="black" points="676.5,-168.5 676.5,-187.5 743.5,-187.5 743.5,-168.5 676.5,-168.5"/>
<text text-anchor="middle" x="710" y="-175.5" font-family="Arial" font-size="10.00">quadData.h</text>
</a>
</g>
</g>
<!-- Node20&#45;&gt;Node21 -->
<g id="edge26" class="edge">
<title>Node20&#45;&gt;Node21</title>
<path fill="none" stroke="midnightblue" d="M762.04,-224.32C752.87,-216.34 739.06,-204.31 727.97,-194.65"/>
<polygon fill="midnightblue" stroke="midnightblue" points="729.98,-191.76 720.14,-187.83 725.38,-197.04 729.98,-191.76"/>
</g>
<!-- Node21&#45;&gt;Node3 -->
<g id="edge28" class="edge">
<title>Node21&#45;&gt;Node3</title>
<path fill="none" stroke="midnightblue" d="M712.56,-168.31C715.91,-155.15 720.22,-129.81 710,-112 701.38,-96.99 685.61,-86.5 670.57,-79.46"/>
<polygon fill="midnightblue" stroke="midnightblue" points="671.94,-76.24 661.37,-75.51 669.18,-82.67 671.94,-76.24"/>
</g>
<!-- Node21&#45;&gt;Node8 -->
<g id="edge29" class="edge">
<title>Node21&#45;&gt;Node8</title>
<path fill="none" stroke="midnightblue" d="M743.56,-175.79C801.05,-172.44 909.03,-159.77 875,-112 830.8,-49.95 786.54,-75.87 713,-56 676.48,-46.14 571.15,-26.58 517.39,-16.82"/>
<polygon fill="midnightblue" stroke="midnightblue" points="517.83,-13.34 507.37,-15.01 516.58,-20.23 517.83,-13.34"/>
</g>
<!-- Node21&#45;&gt;Node12 -->
<g id="edge27" class="edge">
<title>Node21&#45;&gt;Node12</title>
<path fill="none" stroke="midnightblue" d="M676.24,-174.4C588.42,-167.52 353.41,-148.37 256.12,-131.85"/>
<polygon fill="midnightblue" stroke="midnightblue" points="256.5,-128.37 246.04,-130.06 255.27,-135.26 256.5,-128.37"/>
</g>
<!-- Node22&#45;&gt;Node3 -->
<g id="edge32" class="edge">
<title>Node22&#45;&gt;Node3</title>
<path fill="none" stroke="midnightblue" d="M548.8,-170.04C593.56,-160.22 669.15,-142.35 677,-132 689.63,-115.36 671.36,-95.34 654.67,-81.96"/>
<polygon fill="midnightblue" stroke="midnightblue" points="656.34,-78.84 646.25,-75.62 652.13,-84.43 656.34,-78.84"/>
</g>
<!-- Node22&#45;&gt;Node8 -->
<g id="edge37" class="edge">
<title>Node22&#45;&gt;Node8</title>
<path fill="none" stroke="midnightblue" d="M526.44,-168.24C535.42,-159.97 547.75,-146.66 553,-132 556,-123.63 555.6,-120.5 553,-112 542.72,-78.34 517.05,-45.74 500.35,-27.06"/>
<polygon fill="midnightblue" stroke="midnightblue" points="502.75,-24.49 493.4,-19.5 497.6,-29.23 502.75,-24.49"/>
</g>
<!-- Node22&#45;&gt;Node9 -->
<g id="edge35" class="edge">
<title>Node22&#45;&gt;Node9</title>
<path fill="none" stroke="midnightblue" d="M506.52,-168.32C497.8,-160.34 484.66,-148.31 474.1,-138.65"/>
<polygon fill="midnightblue" stroke="midnightblue" points="476.39,-136 466.65,-131.83 471.67,-141.17 476.39,-136"/>
</g>
<!-- Node22&#45;&gt;Node10 -->
<g id="edge36" class="edge">
<title>Node22&#45;&gt;Node10</title>
<path fill="none" stroke="midnightblue" d="M516.83,-168.08C517.48,-161.01 518.42,-150.86 519.24,-141.99"/>
<polygon fill="midnightblue" stroke="midnightblue" points="522.75,-142.03 520.19,-131.75 515.78,-141.39 522.75,-142.03"/>
</g>
<!-- Node23 -->
<g id="node23" class="node">
<title>Node23</title>
<g id="a_node23"><a xlink:href="matrix_8h.html" target="_top" xlink:title=" ">
<polygon fill="none" stroke="black" points="600,-112.5 600,-131.5 668,-131.5 668,-112.5 600,-112.5"/>
<text text-anchor="middle" x="634" y="-119.5" font-family="Arial" font-size="10.00">util/matrix.h</text>
</a>
</g>
</g>
<!-- Node22&#45;&gt;Node23 -->
<g id="edge33" class="edge">
<title>Node22&#45;&gt;Node23</title>
<path fill="none" stroke="midnightblue" d="M534.7,-168.44C553.94,-159.64 584.15,-145.81 606.2,-135.72"/>
<polygon fill="midnightblue" stroke="midnightblue" points="607.75,-138.86 615.39,-131.52 604.84,-132.5 607.75,-138.86"/>
</g>
<!-- Node23&#45;&gt;Node3 -->
<g id="edge34" class="edge">
<title>Node23&#45;&gt;Node3</title>
<path fill="none" stroke="midnightblue" d="M633.83,-112.08C633.7,-105.01 633.52,-94.86 633.35,-85.99"/>
<polygon fill="midnightblue" stroke="midnightblue" points="636.85,-85.68 633.16,-75.75 629.85,-85.81 636.85,-85.68"/>
</g>
<!-- Node24&#45;&gt;Node20 -->
<g id="edge39" class="edge">
<title>Node24&#45;&gt;Node20</title>
<path fill="none" stroke="midnightblue" d="M777.14,-285.98C776.29,-277.58 774.97,-264.48 773.88,-253.66"/>
<polygon fill="midnightblue" stroke="midnightblue" points="777.34,-253.11 772.86,-243.51 770.38,-253.81 777.34,-253.11"/>
</g>
<!-- Node25&#45;&gt;Node20 -->
<g id="edge41" class="edge">
<title>Node25&#45;&gt;Node20</title>
<path fill="none" stroke="midnightblue" d="M842.25,-285.98C829.22,-276.52 807.96,-261.1 792.24,-249.69"/>
<polygon fill="midnightblue" stroke="midnightblue" points="793.88,-246.55 783.73,-243.51 789.77,-252.21 793.88,-246.55"/>
</g>
<!-- Node27&#45;&gt;Node3 -->
<g id="edge44" class="edge">
<title>Node27&#45;&gt;Node3</title>
<path fill="none" stroke="midnightblue" d="M339.65,-114.86C402.09,-104.67 526.6,-84.36 591.49,-73.77"/>
<polygon fill="midnightblue" stroke="midnightblue" points="592.45,-77.16 601.76,-72.1 591.32,-70.25 592.45,-77.16"/>
</g>
<!-- Node27&#45;&gt;Node8 -->
<g id="edge45" class="edge">
<title>Node27&#45;&gt;Node8</title>
<path fill="none" stroke="midnightblue" d="M325.02,-112.48C345.82,-104.37 376.91,-91.16 402,-76 426.28,-61.33 451.58,-40.6 467.77,-26.52"/>
<polygon fill="midnightblue" stroke="midnightblue" points="470.17,-29.07 475.35,-19.83 465.54,-23.82 470.17,-29.07"/>
</g>
<!-- Node28&#45;&gt;Node3 -->
<g id="edge47" class="edge">
<title>Node28&#45;&gt;Node3</title>
<path fill="none" stroke="midnightblue" d="M801.31,-112.44C766.83,-103.13 711.6,-88.22 673.88,-78.04"/>
<polygon fill="midnightblue" stroke="midnightblue" points="674.78,-74.66 664.21,-75.43 672.96,-81.41 674.78,-74.66"/>
</g>
<!-- Node28&#45;&gt;Node8 -->
<g id="edge48" class="edge">
<title>Node28&#45;&gt;Node8</title>
<path fill="none" stroke="midnightblue" d="M814.62,-112.47C785.21,-99.06 725.53,-72.85 673,-56 619.11,-38.71 554.63,-24.67 516.91,-17.1"/>
<polygon fill="midnightblue" stroke="midnightblue" points="517.5,-13.65 507.01,-15.14 516.14,-20.52 517.5,-13.65"/>
</g>
</g>
</svg>
