<?xml version="1.0" encoding="UTF-8" standalone="no"?>
<!DOCTYPE svg PUBLIC "-//W3C//DTD SVG 1.1//EN"
 "http://www.w3.org/Graphics/SVG/1.1/DTD/svg11.dtd">
<!-- Generated by graphviz version 2.43.0 (0)
 -->
<!-- Title: /home/user/project/src/fe/mesh.h Pages: 1 -->
<svg width="1744pt" height="258pt"
 viewBox="0.00 0.00 1743.50 258.00" xmlns="http://www.w3.org/2000/svg" xmlns:xlink="http://www.w3.org/1999/xlink">
<g id="graph0" class="graph" transform="scale(1 1) rotate(0) translate(4 254)">
<title>/home/user/project/src/fe/mesh.h</title>
<!-- Node1 -->
<g id="Node000001" class="node">
<title>Node1</title>
<g id="a_Node000001"><a xlink:title=" ">
<polygon fill="#999999" stroke="#666666" points="940.5,-250 842.5,-250 842.5,-220 940.5,-220 940.5,-250"/>
<text text-anchor="start" x="850.5" y="-238" font-family="Arial" font-size="10.00">/home/user/project</text>
<text text-anchor="middle" x="891.5" y="-227" font-family="Arial" font-size="10.00">/src/fe/mesh.h</text>
</a>
</g>
</g>
<!-- Node2 -->
<g id="Node000002" class="node">
<title>Node2</title>
<g id="a_Node000002"><a xlink:href="mesh_8cpp.html" target="_top" xlink:title=" ">
<polygon fill="white" stroke="#666666" points="490.5,-178.5 392.5,-178.5 392.5,-148.5 490.5,-148.5 490.5,-178.5"/>
<text text-anchor="start" x="400.5" y="-166.5" font-family="Arial" font-size="10.00">/home/user/project</text>
<text text-anchor="middle" x="441.5" y="-155.5" font-family="Arial" font-size="10.00">/src/fe/mesh.cpp</text>
</a>
</g>
</g>
<!-- Node1&#45;&gt;Node2 -->
<g id="edge1_Node000001_Node000002" class="edge">
<title>Node1&#45;&gt;Node2</title>
<g id="a_edge1_Node000001_Node000002"><a xlink:title=" ">
<path fill="none" stroke="#63b8ff" d="M832.34,-230.11C755.04,-224.2 615.81,-210.69 499.5,-184 493.08,-182.53 486.37,-180.62 479.88,-178.58"/>
<polygon fill="#63b8ff" stroke="#63b8ff" points="832.14,-233.6 842.37,-230.86 832.66,-226.62 832.14,-233.6"/>
</a>
</g>
</g>
<!-- Node3 -->
<g id="Node000003" class="node">
<title>Node3</title>
<g id="a_Node000003"><a xlink:href="meshPartitioning_8cpp.html" target="_top" xlink:title=" ">
<polygon fill="white" stroke="#666666" points="648,-178.5 509,-178.5 509,-148.5 648,-148.5 648,-178.5"/>
<text text-anchor="start" x="517" y="-166.5" font-family="Arial" font-size="10.00">/home/user/project</text>
<text text-anchor="middle" x="578.5" y="-155.5" font-family="Arial" font-size="10.00">/src/fe/meshPartitioning.cpp</text>
</a>
</g>
</g>
<!-- Node1&#45;&gt;Node3 -->
<g id="edge2_Node000001_Node000003" class="edge">
<title>Node1&#45;&gt;Node3</title>
<g id="a_edge2_Node000001_Node000003"><a xlink:title=" ">
<path fill="none" stroke="#63b8ff" d="M832.5,-222.05C784.9,-212.26 716.26,-197.82 656.5,-184 649.16,-182.3 641.44,-180.45 633.84,-178.59"/>
<polygon fill="#63b8ff" stroke="#63b8ff" points="831.83,-225.48 842.33,-224.06 833.24,-218.63 831.83,-225.48"/>
</a>
</g>
</g>
<!-- Node4 -->
<g id="Node000004" class="node">
<title>Node4</title>
<g id="a_Node000004"><a xlink:href="meshUtil_8cpp.html" target="_top" xlink:title=" ">
<polygon fill="white" stroke="#666666" points="771,-178.5 666,-178.5 666,-148.5 771,-148.5 771,-178.5"/>
<text text-anchor="start" x="674" y="-166.5" font-family="Arial" font-size="10.00">/home/user/project</text>
<text text-anchor="middle" x="718.5" y="-155.5" font-family="Arial" font-size="10.00">/src/fe/meshUtil.cpp</text>
</a>
</g>
</g>
<!-- Node1&#45;&gt;Node4 -->
<g id="edge3_Node000001_Node000004" class="edge">
<title>Node1&#45;&gt;Node4</title>
<g id="a_edge3_Node000001_Node000004"><a xlink:title=" ">
<path fill="none" stroke="#63b8ff" d="M846.97,-216.11C817.87,-204.42 780.41,-189.37 753.46,-178.54"/>
<polygon fill="#63b8ff" stroke="#63b8ff" points="845.91,-219.46 856.49,-219.94 848.52,-212.96 845.91,-219.46"/>
</a>
</g>
</g>
<!-- Node5 -->
<g id="Node000005" class="node">
<title>Node5</title>
<g id="a_Node000005"><a xlink:href="particleULoading_8cpp.html" target="_top" xlink:title=" ">
<polygon fill="white" stroke="#666666" points="161,-35.5 0,-35.5 0,-5.5 161,-5.5 161,-35.5"/>
<text text-anchor="start" x="8" y="-23.5" font-family="Arial" font-size="10.00">/home/user/project</text>
<text text-anchor="middle" x="80.5" y="-12.5" font-family="Arial" font-size="10.00">/src/loading/particleULoading.cpp</text>
</a>
</g>
</g>
<!-- Node1&#45;&gt;Node5 -->
<g id="edge4_Node000001_Node000005" class="edge">
<title>Node1&#45;&gt;Node5</title>
<g id="a_edge4_Node000001_Node000005"><a xlink:title=" ">
<path fill="none" stroke="#63b8ff" d="M861.63,-214.17C848.93,-205.35 834.16,-194.59 821.5,-184 801.49,-167.26 802.76,-154.81 779.5,-143 534.78,-18.8 440.02,-92.74 170.5,-41 161.71,-39.31 152.46,-37.43 143.36,-35.52"/>
<polygon fill="#63b8ff" stroke="#63b8ff" points="859.82,-217.17 870.04,-219.93 863.77,-211.39 859.82,-217.17"/>
</a>
</g>
</g>
<!-- Node6 -->
<g id="Node000006" class="node">
<title>Node6</title>
<g id="a_Node000006"><a xlink:href="refParticle_8h.html" target="_top" xlink:title=" ">
<polygon fill="white" stroke="#666666" points="953,-178.5 830,-178.5 830,-148.5 953,-148.5 953,-178.5"/>
<text text-anchor="start" x="838" y="-166.5" font-family="Arial" font-size="10.00">/home/user/project</text>
<text text-anchor="middle" x="891.5" y="-155.5" font-family="Arial" font-size="10.00">/src/particle/refParticle.h</text>
</a>
</g>
</g>
<!-- Node1&#45;&gt;Node6 -->
<g id="edge5_Node000001_Node000006" class="edge">
<title>Node1&#45;&gt;Node6</title>
<g id="a_edge5_Node000001_Node000006"><a xlink:title=" ">
<path fill="none" stroke="#63b8ff" d="M891.5,-209.75C891.5,-199.31 891.5,-187.49 891.5,-178.54"/>
<polygon fill="#63b8ff" stroke="#63b8ff" points="888,-209.94 891.5,-219.94 895,-209.94 888,-209.94"/>
</a>
</g>
</g>
<!-- Node15 -->
<g id="Node000015" class="node">
<title>Node15</title>
<g id="a_Node000015"><a xlink:href="vtkParticleReader_8cpp.html" target="_top" xlink:title=" ">
<polygon fill="white" stroke="#666666" points="1577.5,-35.5 1431.5,-35.5 1431.5,-5.5 1577.5,-5.5 1577.5,-35.5"/>
<text text-anchor="start" x="1439.5" y="-23.5" font-family="Arial" font-size="10.00">/home/user/project</text>
<text text-anchor="middle" x="1504.5" y="-12.5" font-family="Arial" font-size="10.00">/src/rw/vtkParticleReader.cpp</text>
</a>
</g>
</g>
<!-- Node1&#45;&gt;Node15 -->
<g id="edge19_Node000001_Node000015" class="edge">
<title>Node1&#45;&gt;Node15</title>
<g id="a_edge19_Node000001_Node000015"><a xlink:title=" ">
<path fill="none" stroke="#63b8ff" d="M921.23,-214.03C934.12,-205.12 949.27,-194.33 962.5,-184 991.19,-161.61 1053.11,-91.49 1086.5,-77 1224.28,-17.23 1274.48,-66.42 1422.5,-41 1431.3,-39.49 1440.56,-37.59 1449.56,-35.58"/>
<polygon fill="#63b8ff" stroke="#63b8ff" points="918.98,-211.33 912.71,-219.87 922.94,-217.11 918.98,-211.33"/>
</a>
</g>
</g>
<!-- Node16 -->
<g id="Node000016" class="node">
<title>Node16</title>
<g id="a_Node000016"><a xlink:href="vtkParticleWriter_8cpp.html" target="_top" xlink:title=" ">
<polygon fill="white" stroke="#666666" points="1735.5,-35.5 1595.5,-35.5 1595.5,-5.5 1735.5,-5.5 1735.5,-35.5"/>
<text text-anchor="start" x="1603.5" y="-23.5" font-family="Arial" font-size="10.00">/home/user/project</text>
<text text-anchor="middle" x="1665.5" y="-12.5" font-family="Arial" font-size="10.00">/src/rw/vtkParticleWriter.cpp</text>
</a>
</g>
</g>
<!-- Node1&#45;&gt;Node16 -->
<g id="edge20_Node000001_Node000016" class="edge">
<title>Node1&#45;&gt;Node16</title>
<g id="a_edge20_Node000001_Node000016"><a xlink:title=" ">
<path fill="none" stroke="#63b8ff" d="M931.28,-215.79C976.22,-195.77 1051.93,-163.71 1119.5,-143 1322.62,-80.75 1379.57,-89.13 1586.5,-41 1593.93,-39.27 1601.74,-37.41 1609.44,-35.54"/>
<polygon fill="#63b8ff" stroke="#63b8ff" points="929.6,-212.71 921.9,-220 932.46,-219.1 929.6,-212.71"/>
</a>
</g>
</g>
<!-- Node19 -->
<g id="Node000019" class="node">
<title>Node19</title>
<g id="a_Node000019"><a xlink:href="testMeshPartitioningLib_8cpp.html" target="_top" xlink:title=" ">
<polygon fill="white" stroke="#666666" points="1284.5,-184 1128.5,-184 1128.5,-143 1284.5,-143 1284.5,-184"/>
<text text-anchor="start" x="1136.5" y="-172" font-family="Arial" font-size="10.00">/home/user/project</text>
<text text-anchor="start" x="1136.5" y="-161" font-family="Arial" font-size="10.00">/test/test_exec/meshpartitioning</text>
<text text-anchor="middle" x="1206.5" y="-150" font-family="Arial" font-size="10.00">/testMeshPartitioningLib.cpp</text>
</a>
</g>
</g>
<!-- Node1&#45;&gt;Node19 -->
<g id="edge21_Node000001_Node000019" class="edge">
<title>Node1&#45;&gt;Node19</title>
<g id="a_edge21_Node000001_Node000019"><a xlink:title=" ">
<path fill="none" stroke="#63b8ff" d="M950.76,-220.92C1000.95,-209.85 1073.29,-193.89 1128.23,-181.77"/>
<polygon fill="#63b8ff" stroke="#63b8ff" points="949.73,-217.57 940.72,-223.14 951.24,-224.4 949.73,-217.57"/>
</a>
</g>
</g>
<!-- Node20 -->
<g id="Node000020" class="node">
<title>Node20</title>
<g id="a_Node000020"><a xlink:href="testParallelCompLib_8cpp.html" target="_top" xlink:title=" ">
<polygon fill="white" stroke="#666666" points="1442.5,-184 1302.5,-184 1302.5,-143 1442.5,-143 1442.5,-184"/>
<text text-anchor="start" x="1310.5" y="-172" font-family="Arial" font-size="10.00">/home/user/project</text>
<text text-anchor="start" x="1310.5" y="-161" font-family="Arial" font-size="10.00">/test/test_exec/parallelcomp</text>
<text text-anchor="middle" x="1372.5" y="-150" font-family="Arial" font-size="10.00">/testParallelCompLib.cpp</text>
</a>
</g>
</g>
<!-- Node1&#45;&gt;Node20 -->
<g id="edge22_Node000001_Node000020" class="edge">
<title>Node1&#45;&gt;Node20</title>
<g id="a_edge22_Node000001_Node000020"><a xlink:title=" ">
<path fill="none" stroke="#63b8ff" d="M950.88,-228.83C1029.62,-221.47 1172.71,-206.34 1293.5,-184 1296.42,-183.46 1299.39,-182.88 1302.38,-182.26"/>
<polygon fill="#63b8ff" stroke="#63b8ff" points="950.31,-225.37 940.67,-229.77 950.95,-232.34 950.31,-225.37"/>
</a>
</g>
</g>
<!-- Node7 -->
<g id="Node000007" class="node">
<title>Node7</title>
<g id="a_Node000007"><a xlink:href="baseParticle_8h.html" target="_top" xlink:title=" ">
<polygon fill="white" stroke="#666666" points="1034,-107 901,-107 901,-77 1034,-77 1034,-107"/>
<text text-anchor="start" x="909" y="-95" font-family="Arial" font-size="10.00">/home/user/project</text>
<text text-anchor="middle" x="967.5" y="-84" font-family="Arial" font-size="10.00">/src/particle/baseParticle.h</text>
</a>
</g>
</g>
<!-- Node6&#45;&gt;Node7 -->
<g id="edge6_Node000006_Node000007" class="edge">
<title>Node6&#45;&gt;Node7</title>
<g id="a_edge6_Node000006_Node000007"><a xlink:title=" ">
<path fill="none" stroke="#63b8ff" d="M914.47,-141.49C926.67,-130.34 941.33,-116.93 952.14,-107.04"/>
<polygon fill="#63b8ff" stroke="#63b8ff" points="911.9,-139.1 906.88,-148.44 916.62,-144.27 911.9,-139.1"/>
</a>
</g>
</g>
<!-- Node18 -->
<g id="Node000018" class="node">
<title>Node18</title>
<g id="a_Node000018"><a xlink:href="refParticle_8cpp.html" target="_top" xlink:title=" ">
<polygon fill="white" stroke="#666666" points="882.5,-107 748.5,-107 748.5,-77 882.5,-77 882.5,-107"/>
<text text-anchor="start" x="756.5" y="-95" font-family="Arial" font-size="10.00">/home/user/project</text>
<text text-anchor="middle" x="815.5" y="-84" font-family="Arial" font-size="10.00">/src/particle/refParticle.cpp</text>
</a>
</g>
</g>
<!-- Node6&#45;&gt;Node18 -->
<g id="edge18_Node000006_Node000018" class="edge">
<title>Node6&#45;&gt;Node18</title>
<g id="a_edge18_Node000006_Node000018"><a xlink:title=" ">
<path fill="none" stroke="#63b8ff" d="M868.53,-141.49C856.33,-130.34 841.67,-116.93 830.86,-107.04"/>
<polygon fill="#63b8ff" stroke="#63b8ff" points="866.38,-144.27 876.12,-148.44 871.1,-139.1 866.38,-144.27"/>
</a>
</g>
</g>
<!-- Node7&#45;&gt;Node5 -->
<g id="edge10_Node000007_Node000005" class="edge">
<title>Node7&#45;&gt;Node5</title>
<g id="a_edge10_Node000007_Node000005"><a xlink:title=" ">
<path fill="none" stroke="#63b8ff" d="M890.83,-77.05C571.06,-40.73 485.31,-82.68 170.5,-41 160.2,-39.64 149.33,-37.71 138.84,-35.59"/>
<polygon fill="#63b8ff" stroke="#63b8ff" points="890.51,-80.54 900.85,-78.21 891.31,-73.58 890.51,-80.54"/>
</a>
</g>
</g>
<!-- Node8 -->
<g id="Node000008" class="node">
<title>Node8</title>
<g id="a_Node000008"><a xlink:href="apps_2peridynamics_2main_8cpp.html" target="_top" xlink:title=" ">
<polygon fill="white" stroke="#666666" points="1413.5,-35.5 1269.5,-35.5 1269.5,-5.5 1413.5,-5.5 1413.5,-35.5"/>
<text text-anchor="start" x="1277.5" y="-23.5" font-family="Arial" font-size="10.00">/home/user/project</text>
<text text-anchor="middle" x="1341.5" y="-12.5" font-family="Arial" font-size="10.00">/apps/peridynamics/main.cpp</text>
</a>
</g>
</g>
<!-- Node7&#45;&gt;Node8 -->
<g id="edge7_Node000007_Node000008" class="edge">
<title>Node7&#45;&gt;Node8</title>
<g id="a_edge7_Node000007_Node000008"><a xlink:title=" ">
<path fill="none" stroke="#63b8ff" d="M1044.11,-77.75C1045.58,-77.5 1047.05,-77.25 1048.5,-77 1142.7,-60.86 1166.88,-60.2 1260.5,-41 1268.58,-39.34 1277.07,-37.46 1285.4,-35.53"/>
<polygon fill="#63b8ff" stroke="#63b8ff" points="1043.51,-74.31 1034.24,-79.45 1044.69,-81.2 1043.51,-74.31"/>
</a>
</g>
</g>
<!-- Node9 -->
<g id="Node000009" class="node">
<title>Node9</title>
<g id="a_Node000009"><a xlink:href="apps_2twoparticle__demo_2main_8cpp.html" target="_top" xlink:title=" ">
<polygon fill="white" stroke="#666666" points="299.5,-41 179.5,-41 179.5,0 299.5,0 299.5,-41"/>
<text text-anchor="start" x="187.5" y="-29" font-family="Arial" font-size="10.00">/home/user/project</text>
<text text-anchor="start" x="187.5" y="-18" font-family="Arial" font-size="10.00">/apps/twoparticle_demo</text>
<text text-anchor="middle" x="239.5" y="-7" font-family="Arial" font-size="10.00">/main.cpp</text>
</a>
</g>
</g>
<!-- Node7&#45;&gt;Node9 -->
<g id="edge8_Node000007_Node000009" class="edge">
<title>Node7&#45;&gt;Node9</title>
<g id="a_edge8_Node000007_Node000009"><a xlink:title=" ">
<path fill="none" stroke="#63b8ff" d="M890.77,-77.04C632.03,-46.41 561.18,-84 308.5,-41 305.55,-40.5 302.56,-39.92 299.54,-39.28"/>
<polygon fill="#63b8ff" stroke="#63b8ff" points="890.49,-80.53 900.84,-78.25 891.33,-73.58 890.49,-80.53"/>
</a>
</g>
</g>
<!-- Node10 -->
<g id="Node000010" class="node">
<title>Node10</title>
<g id="a_Node000010"><a xlink:href="particleFLoading_8cpp.html" target="_top" xlink:title=" ">
<polygon fill="white" stroke="#666666" points="477.5,-35.5 317.5,-35.5 317.5,-5.5 477.5,-5.5 477.5,-35.5"/>
<text text-anchor="start" x="325.5" y="-23.5" font-family="Arial" font-size="10.00">/home/user/project</text>
<text text-anchor="middle" x="397.5" y="-12.5" font-family="Arial" font-size="10.00">/src/loading/particleFLoading.cpp</text>
</a>
</g>
</g>
<!-- Node7&#45;&gt;Node10 -->
<g id="edge9_Node000007_Node000010" class="edge">
<title>Node7&#45;&gt;Node10</title>
<g id="a_edge9_Node000007_Node000010"><a xlink:title=" ">
<path fill="none" stroke="#63b8ff" d="M890.75,-77C710.69,-53.16 661.89,-67.9 486.5,-41 476.81,-39.51 466.59,-37.6 456.67,-35.56"/>
<polygon fill="#63b8ff" stroke="#63b8ff" points="890.45,-80.49 900.83,-78.35 891.38,-73.55 890.45,-80.49"/>
</a>
</g>
</g>
<!-- Node11 -->
<g id="Node000011" class="node">
<title>Node11</title>
<g id="a_Node000011"><a xlink:href="materialUtil_8cpp.html" target="_top" xlink:title=" ">
<polygon fill="white" stroke="#666666" points="637.5,-35.5 495.5,-35.5 495.5,-5.5 637.5,-5.5 637.5,-35.5"/>
<text text-anchor="start" x="503.5" y="-23.5" font-family="Arial" font-size="10.00">/home/user/project</text>
<text text-anchor="middle" x="566.5" y="-12.5" font-family="Arial" font-size="10.00">/src/material/materialUtil.cpp</text>
</a>
</g>
</g>
<!-- Node7&#45;&gt;Node11 -->
<g id="edge11_Node000007_Node000011" class="edge">
<title>Node7&#45;&gt;Node11</title>
<g id="a_edge11_Node000007_Node000011"><a xlink:title=" ">
<path fill="none" stroke="#63b8ff" d="M890.66,-76.91C781.19,-59.18 751.36,-61.44 646.5,-41 638.22,-39.39 629.51,-37.48 621,-35.5"/>
<polygon fill="#63b8ff" stroke="#63b8ff" points="890.36,-80.41 900.8,-78.57 891.49,-73.5 890.36,-80.41"/>
</a>
</g>
</g>
<!-- Node12 -->
<g id="Node000012" class="node">
<title>Node12</title>
<g id="a_Node000012"><a xlink:href="demModel_8cpp.html" target="_top" xlink:title=" ">
<polygon fill="white" stroke="#666666" points="807,-35.5 656,-35.5 656,-5.5 807,-5.5 807,-35.5"/>
<text text-anchor="start" x="664" y="-23.5" font-family="Arial" font-size="10.00">/home/user/project</text>
<text text-anchor="middle" x="731.5" y="-12.5" font-family="Arial" font-size="10.00">/src/model/dem/demModel.cpp</text>
</a>
</g>
</g>
<!-- Node7&#45;&gt;Node12 -->
<g id="edge12_Node000007_Node000012" class="edge">
<title>Node7&#45;&gt;Node12</title>
<g id="a_edge12_Node000007_Node000012"><a xlink:title=" ">
<path fill="none" stroke="#63b8ff" d="M910.09,-74.09C869.96,-62.28 816.99,-46.68 779.19,-35.54"/>
<polygon fill="#63b8ff" stroke="#63b8ff" points="909.16,-77.47 919.74,-76.94 911.14,-70.75 909.16,-77.47"/>
</a>
</g>
</g>
<!-- Node13 -->
<g id="Node000013" class="node">
<title>Node13</title>
<g id="a_Node000013"><a xlink:href="modelData_8cpp.html" target="_top" xlink:title=" ">
<polygon fill="white" stroke="#666666" points="956,-35.5 825,-35.5 825,-5.5 956,-5.5 956,-35.5"/>
<text text-anchor="start" x="833" y="-23.5" font-family="Arial" font-size="10.00">/home/user/project</text>
<text text-anchor="middle" x="890.5" y="-12.5" font-family="Arial" font-size="10.00">/src/model/modelData.cpp</text>
</a>
</g>
</g>
<!-- Node7&#45;&gt;Node13 -->
<g id="edge13_Node000007_Node000013" class="edge">
<title>Node7&#45;&gt;Node13</title>
<g id="a_edge13_Node000007_Node000013"><a xlink:title=" ">
<path fill="none" stroke="#63b8ff" d="M944.22,-69.99C931.86,-58.84 917.01,-45.43 906.06,-35.54"/>
<polygon fill="#63b8ff" stroke="#63b8ff" points="942.15,-72.83 951.92,-76.94 946.84,-67.64 942.15,-72.83"/>
</a>
</g>
</g>
<!-- Node14 -->
<g id="Node000014" class="node">
<title>Node14</title>
<g id="a_Node000014"><a xlink:href="baseParticle_8cpp.html" target="_top" xlink:title=" ">
<polygon fill="white" stroke="#666666" points="1117,-35.5 974,-35.5 974,-5.5 1117,-5.5 1117,-35.5"/>
<text text-anchor="start" x="982" y="-23.5" font-family="Arial" font-size="10.00">/home/user/project</text>
<text text-anchor="middle" x="1045.5" y="-12.5" font-family="Arial" font-size="10.00">/src/particle/baseParticle.cpp</text>
</a>
</g>
</g>
<!-- Node7&#45;&gt;Node14 -->
<g id="edge14_Node000007_Node000014" class="edge">
<title>Node7&#45;&gt;Node14</title>
<g id="a_edge14_Node000007_Node000014"><a xlink:title=" ">
<path fill="none" stroke="#63b8ff" d="M991.08,-69.99C1003.6,-58.84 1018.64,-45.43 1029.74,-35.54"/>
<polygon fill="#63b8ff" stroke="#63b8ff" points="988.42,-67.67 983.28,-76.94 993.08,-72.9 988.42,-67.67"/>
</a>
</g>
</g>
<!-- Node7&#45;&gt;Node15 -->
<g id="edge15_Node000007_Node000015" class="edge">
<title>Node7&#45;&gt;Node15</title>
<g id="a_edge15_Node000007_Node000015"><a xlink:title=" ">
<path fill="none" stroke="#63b8ff" d="M1044.09,-77.61C1045.57,-77.4 1047.04,-77.2 1048.5,-77 1214,-54.76 1257.77,-68.38 1422.5,-41 1431.45,-39.51 1440.87,-37.6 1450.02,-35.56"/>
<polygon fill="#63b8ff" stroke="#63b8ff" points="1043.57,-74.15 1034.18,-79.07 1044.59,-81.07 1043.57,-74.15"/>
</a>
</g>
</g>
<!-- Node7&#45;&gt;Node16 -->
<g id="edge16_Node000007_Node000016" class="edge">
<title>Node7&#45;&gt;Node16</title>
<g id="a_edge16_Node000007_Node000016"><a xlink:title=" ">
<path fill="none" stroke="#63b8ff" d="M1044.27,-81.45C1058.31,-79.85 1072.84,-78.3 1086.5,-77 1308.3,-55.98 1366.44,-75.82 1586.5,-41 1595.43,-39.59 1604.83,-37.66 1613.91,-35.57"/>
<polygon fill="#63b8ff" stroke="#63b8ff" points="1043.69,-78 1034.16,-82.62 1044.49,-84.95 1043.69,-78"/>
</a>
</g>
</g>
<!-- Node17 -->
<g id="Node000017" class="node">
<title>Node17</title>
<g id="a_Node000017"><a xlink:href="testParticleLib_8cpp.html" target="_top" xlink:title=" ">
<polygon fill="white" stroke="#666666" points="1251.5,-41 1135.5,-41 1135.5,0 1251.5,0 1251.5,-41"/>
<text text-anchor="start" x="1143.5" y="-29" font-family="Arial" font-size="10.00">/home/user/project</text>
<text text-anchor="start" x="1143.5" y="-18" font-family="Arial" font-size="10.00">/test/test_exec/particle</text>
<text text-anchor="middle" x="1193.5" y="-7" font-family="Arial" font-size="10.00">/testParticleLib.cpp</text>
</a>
</g>
</g>
<!-- Node7&#45;&gt;Node17 -->
<g id="edge17_Node000007_Node000017" class="edge">
<title>Node7&#45;&gt;Node17</title>
<g id="a_edge17_Node000007_Node000017"><a xlink:title=" ">
<path fill="none" stroke="#63b8ff" d="M1023.04,-73.92C1057.15,-63.43 1100.77,-50.02 1135.35,-39.38"/>
<polygon fill="#63b8ff" stroke="#63b8ff" points="1021.76,-70.65 1013.23,-76.94 1023.82,-77.34 1021.76,-70.65"/>
</a>
</g>
</g>
</g>
</svg>
