<?xml version="1.0" encoding="UTF-8" standalone="no"?>
<!DOCTYPE svg PUBLIC "-//W3C//DTD SVG 1.1//EN"
 "http://www.w3.org/Graphics/SVG/1.1/DTD/svg11.dtd">
<!-- Generated by graphviz version 2.43.0 (0)
 -->
<!-- Title: /home/user/project/src/fe/meshUtil.cpp Pages: 1 -->
<svg width="1137pt" height="434pt"
 viewBox="0.00 0.00 1136.50 434.00" xmlns="http://www.w3.org/2000/svg" xmlns:xlink="http://www.w3.org/1999/xlink">
<g id="graph0" class="graph" transform="scale(1 1) rotate(0) translate(4 430)">
<title>/home/user/project/src/fe/meshUtil.cpp</title>
<!-- Node1 -->
<g id="Node000001" class="node">
<title>Node1</title>
<g id="a_Node000001"><a xlink:title=" ">
<polygon fill="#999999" stroke="#666666" points="721,-426 616,-426 616,-396 721,-396 721,-426"/>
<text text-anchor="start" x="624" y="-414" font-family="Arial" font-size="10.00">/home/user/project</text>
<text text-anchor="middle" x="668.5" y="-403" font-family="Arial" font-size="10.00">/src/fe/meshUtil.cpp</text>
</a>
</g>
</g>
<!-- Node2 -->
<g id="Node000002" class="node">
<title>Node2</title>
<g id="a_Node000002"><a xlink:href="meshUtil_8h.html" target="_top" xlink:title=" ">
<polygon fill="white" stroke="#666666" points="287.5,-239 223.5,-239 223.5,-220 287.5,-220 287.5,-239"/>
<text text-anchor="middle" x="255.5" y="-227" font-family="Arial" font-size="10.00">meshUtil.h</text>
</a>
</g>
</g>
<!-- Node1&#45;&gt;Node2 -->
<g id="edge1_Node000001_Node000002" class="edge">
<title>Node1&#45;&gt;Node2</title>
<g id="a_edge1_Node000001_Node000002"><a xlink:title=" ">
<path fill="none" stroke="#63b8ff" d="M615.63,-406.56C497.45,-397.58 218.38,-368.71 169.5,-294 154.39,-270.91 185.85,-253.22 214.87,-242.45"/>
<polygon fill="#63b8ff" stroke="#63b8ff" points="216.27,-245.67 224.55,-239.06 213.96,-239.06 216.27,-245.67"/>
</a>
</g>
</g>
<!-- Node12 -->
<g id="Node000012" class="node">
<title>Node12</title>
<g id="a_Node000012"><a xlink:href="parallelUtil_8h.html" target="_top" xlink:title=" ">
<polygon fill="#fff0f0" stroke="red" points="120,-74 49,-74 49,-55 120,-55 120,-74"/>
<text text-anchor="middle" x="84.5" y="-62" font-family="Arial" font-size="10.00">parallelUtil.h</text>
</a>
</g>
</g>
<!-- Node1&#45;&gt;Node12 -->
<g id="edge47_Node000001_Node000012" class="edge">
<title>Node1&#45;&gt;Node12</title>
<g id="a_edge47_Node000001_Node000012"><a xlink:title=" ">
<path fill="none" stroke="#63b8ff" d="M615.96,-410.38C468,-410.04 58.5,-398.86 58.5,-285.5 58.5,-285.5 58.5,-285.5 58.5,-173.5 58.5,-141.15 69.67,-104.82 77.36,-83.62"/>
<polygon fill="#63b8ff" stroke="#63b8ff" points="80.73,-84.6 80.99,-74.01 74.18,-82.13 80.73,-84.6"/>
</a>
</g>
</g>
<!-- Node18 -->
<g id="Node000018" class="node">
<title>Node18</title>
<g id="a_Node000018"><a xlink:href="mesh_8h.html" target="_top" xlink:title=" ">
<polygon fill="white" stroke="#666666" points="731,-129 682,-129 682,-110 731,-110 731,-129"/>
<text text-anchor="middle" x="706.5" y="-117" font-family="Arial" font-size="10.00">mesh.h</text>
</a>
</g>
</g>
<!-- Node1&#45;&gt;Node18 -->
<g id="edge25_Node000001_Node000018" class="edge">
<title>Node1&#45;&gt;Node18</title>
<g id="a_edge25_Node000001_Node000018"><a xlink:title=" ">
<path fill="none" stroke="#63b8ff" d="M675.83,-395.86C686.87,-373.21 706.5,-327.08 706.5,-285.5 706.5,-285.5 706.5,-285.5 706.5,-228.5 706.5,-197.19 706.5,-160.77 706.5,-139.23"/>
<polygon fill="#63b8ff" stroke="#63b8ff" points="710,-139.18 706.5,-129.18 703,-139.18 710,-139.18"/>
</a>
</g>
</g>
<!-- Node21 -->
<g id="Node000021" class="node">
<title>Node21</title>
<g id="a_Node000021"><a xlink:href="elemIncludes_8h.html" target="_top" xlink:title=" ">
<polygon fill="white" stroke="#666666" points="491,-354.5 408,-354.5 408,-335.5 491,-335.5 491,-354.5"/>
<text text-anchor="middle" x="449.5" y="-342.5" font-family="Arial" font-size="10.00">elemIncludes.h</text>
</a>
</g>
</g>
<!-- Node1&#45;&gt;Node21 -->
<g id="edge30_Node000001_Node000021" class="edge">
<title>Node1&#45;&gt;Node21</title>
<g id="a_edge30_Node000001_Node000021"><a xlink:title=" ">
<path fill="none" stroke="#63b8ff" d="M620.44,-395.95C580.85,-384.38 525.41,-368.18 488.53,-357.41"/>
<polygon fill="#63b8ff" stroke="#63b8ff" points="489.23,-353.96 478.65,-354.52 487.26,-360.68 489.23,-353.96"/>
</a>
</g>
</g>
<!-- Node22 -->
<g id="Node000022" class="node">
<title>Node22</title>
<g id="a_Node000022"><a xlink:href="feElementDefs_8h.html" target="_top" xlink:title=" ">
<polygon fill="white" stroke="#666666" points="284.5,-294 178.5,-294 178.5,-275 284.5,-275 284.5,-294"/>
<text text-anchor="middle" x="231.5" y="-282" font-family="Arial" font-size="10.00">util/feElementDefs.h</text>
</a>
</g>
</g>
<!-- Node1&#45;&gt;Node22 -->
<g id="edge46_Node000001_Node000022" class="edge">
<title>Node1&#45;&gt;Node22</title>
<g id="a_edge46_Node000001_Node000022"><a xlink:title=" ">
<path fill="none" stroke="#63b8ff" d="M615.81,-403.91C560.93,-396.71 472.89,-382.75 399.5,-360 347.03,-343.73 289.14,-315.65 256.86,-299"/>
<polygon fill="#63b8ff" stroke="#63b8ff" points="258.18,-295.74 247.7,-294.22 254.95,-301.95 258.18,-295.74"/>
</a>
</g>
</g>
<!-- Node29 -->
<g id="Node000029" class="node">
<title>Node29</title>
<g id="a_Node000029"><a xlink:href="function_8h.html" target="_top" xlink:title=" ">
<polygon fill="white" stroke="#666666" points="664,-129 589,-129 589,-110 664,-110 664,-129"/>
<text text-anchor="middle" x="626.5" y="-117" font-family="Arial" font-size="10.00">util/function.h</text>
</a>
</g>
</g>
<!-- Node1&#45;&gt;Node29 -->
<g id="edge48_Node000001_Node000029" class="edge">
<title>Node1&#45;&gt;Node29</title>
<g id="a_edge48_Node000001_Node000029"><a xlink:title=" ">
<path fill="none" stroke="#63b8ff" d="M668.5,-395.81C668.5,-372.7 668.5,-325.49 668.5,-285.5 668.5,-285.5 668.5,-285.5 668.5,-228.5 668.5,-194.46 650.15,-158.24 637.71,-137.59"/>
<polygon fill="#63b8ff" stroke="#63b8ff" points="640.62,-135.63 632.34,-129.02 634.69,-139.35 640.62,-135.63"/>
</a>
</g>
</g>
<!-- Node30 -->
<g id="Node000030" class="node">
<title>Node30</title>
<g id="a_Node000030"><a xlink:title=" ">
<polygon fill="#e0e0e0" stroke="#999999" points="804.5,-354.5 734.5,-354.5 734.5,-335.5 804.5,-335.5 804.5,-354.5"/>
<text text-anchor="middle" x="769.5" y="-342.5" font-family="Arial" font-size="10.00">fmt/format.h</text>
</a>
</g>
</g>
<!-- Node1&#45;&gt;Node30 -->
<g id="edge51_Node000001_Node000030" class="edge">
<title>Node1&#45;&gt;Node30</title>
<g id="a_edge51_Node000001_Node000030"><a xlink:title=" ">
<path fill="none" stroke="#63b8ff" d="M690.92,-395.8C707.69,-385.17 730.51,-370.7 747.25,-360.1"/>
<polygon fill="#63b8ff" stroke="#63b8ff" points="749.26,-362.97 755.84,-354.66 745.52,-357.05 749.26,-362.97"/>
</a>
</g>
</g>
<!-- Node31 -->
<g id="Node000031" class="node">
<title>Node31</title>
<g id="a_Node000031"><a xlink:title=" ">
<polygon fill="#e0e0e0" stroke="#999999" points="974,-354.5 823,-354.5 823,-335.5 974,-335.5 974,-354.5"/>
<text text-anchor="middle" x="898.5" y="-342.5" font-family="Arial" font-size="10.00">taskflow/taskflow/taskflow.hpp</text>
</a>
</g>
</g>
<!-- Node1&#45;&gt;Node31 -->
<g id="edge52_Node000001_Node000031" class="edge">
<title>Node1&#45;&gt;Node31</title>
<g id="a_edge52_Node000001_Node000031"><a xlink:title=" ">
<path fill="none" stroke="#63b8ff" d="M718.97,-395.95C760.73,-384.34 819.27,-368.05 858.01,-357.27"/>
<polygon fill="#63b8ff" stroke="#63b8ff" points="859.2,-360.57 867.89,-354.52 857.32,-353.83 859.2,-360.57"/>
</a>
</g>
</g>
<!-- Node32 -->
<g id="Node000032" class="node">
<title>Node32</title>
<g id="a_Node000032"><a xlink:title=" ">
<polygon fill="#e0e0e0" stroke="#999999" points="1128.5,-360 992.5,-360 992.5,-330 1128.5,-330 1128.5,-360"/>
<text text-anchor="start" x="1000.5" y="-348" font-family="Arial" font-size="10.00">taskflow/taskflow/algorithm</text>
<text text-anchor="middle" x="1060.5" y="-337" font-family="Arial" font-size="10.00">/for_each.hpp</text>
</a>
</g>
</g>
<!-- Node1&#45;&gt;Node32 -->
<g id="edge53_Node000001_Node000032" class="edge">
<title>Node1&#45;&gt;Node32</title>
<g id="a_edge53_Node000001_Node000032"><a xlink:title=" ">
<path fill="none" stroke="#63b8ff" d="M721.23,-402C781.76,-392.73 884.29,-376.79 982.4,-360.16"/>
<polygon fill="#63b8ff" stroke="#63b8ff" points="983.22,-363.58 992.49,-358.45 982.05,-356.67 983.22,-363.58"/>
</a>
</g>
</g>
<!-- Node3 -->
<g id="Node000003" class="node">
<title>Node3</title>
<g id="a_Node000003"><a xlink:href="point_8h.html" target="_top" xlink:title=" ">
<polygon fill="white" stroke="#666666" points="532.5,-74 470.5,-74 470.5,-55 532.5,-55 532.5,-74"/>
<text text-anchor="middle" x="501.5" y="-62" font-family="Arial" font-size="10.00">util/point.h</text>
</a>
</g>
</g>
<!-- Node2&#45;&gt;Node3 -->
<g id="edge2_Node000002_Node000003" class="edge">
<title>Node2&#45;&gt;Node3</title>
<g id="a_edge2_Node000002_Node000003"><a xlink:title=" ">
<path fill="none" stroke="#63b8ff" d="M287.69,-227.2C324.7,-224.24 385.72,-214.65 427.5,-184 462.74,-158.15 485.03,-109.99 495.14,-83.73"/>
<polygon fill="#63b8ff" stroke="#63b8ff" points="498.47,-84.83 498.63,-74.23 491.9,-82.41 498.47,-84.83"/>
</a>
</g>
</g>
<!-- Node8 -->
<g id="Node000008" class="node">
<title>Node8</title>
<g id="a_Node000008"><a xlink:title=" ">
<polygon fill="#e0e0e0" stroke="#999999" points="461.5,-19 417.5,-19 417.5,0 461.5,0 461.5,-19"/>
<text text-anchor="middle" x="439.5" y="-7" font-family="Arial" font-size="10.00">vector</text>
</a>
</g>
</g>
<!-- Node2&#45;&gt;Node8 -->
<g id="edge24_Node000002_Node000008" class="edge">
<title>Node2&#45;&gt;Node8</title>
<g id="a_edge24_Node000002_Node000008"><a xlink:title=" ">
<path fill="none" stroke="#63b8ff" d="M266.3,-219.96C299.94,-193.14 401.91,-110.26 423.5,-74 431.6,-60.4 435.62,-42.81 437.6,-29.6"/>
<polygon fill="#63b8ff" stroke="#63b8ff" points="441.12,-29.67 438.87,-19.32 434.17,-28.81 441.12,-29.67"/>
</a>
</g>
</g>
<!-- Node9 -->
<g id="Node000009" class="node">
<title>Node9</title>
<g id="a_Node000009"><a xlink:href="matrix_8h.html" target="_top" xlink:title=" ">
<polygon fill="white" stroke="#666666" points="418.5,-184 350.5,-184 350.5,-165 418.5,-165 418.5,-184"/>
<text text-anchor="middle" x="384.5" y="-172" font-family="Arial" font-size="10.00">util/matrix.h</text>
</a>
</g>
</g>
<!-- Node2&#45;&gt;Node9 -->
<g id="edge8_Node000002_Node000009" class="edge">
<title>Node2&#45;&gt;Node9</title>
<g id="a_edge8_Node000002_Node000009"><a xlink:title=" ">
<path fill="none" stroke="#63b8ff" d="M276.23,-219.98C297.26,-211.34 330.05,-197.87 354.04,-188.02"/>
<polygon fill="#63b8ff" stroke="#63b8ff" points="355.48,-191.21 363.4,-184.17 352.82,-184.73 355.48,-191.21"/>
</a>
</g>
</g>
<!-- Node10 -->
<g id="Node000010" class="node">
<title>Node10</title>
<g id="a_Node000010"><a xlink:href="materialDeck_8h.html" target="_top" xlink:title=" ">
<polygon fill="white" stroke="#666666" points="252.5,-184 124.5,-184 124.5,-165 252.5,-165 252.5,-184"/>
<text text-anchor="middle" x="188.5" y="-172" font-family="Arial" font-size="10.00">inp/decks/materialDeck.h</text>
</a>
</g>
</g>
<!-- Node2&#45;&gt;Node10 -->
<g id="edge10_Node000002_Node000010" class="edge">
<title>Node2&#45;&gt;Node10</title>
<g id="a_edge10_Node000002_Node000010"><a xlink:title=" ">
<path fill="none" stroke="#63b8ff" d="M244.74,-219.98C234.73,-212.07 219.61,-200.11 207.57,-190.58"/>
<polygon fill="#63b8ff" stroke="#63b8ff" points="209.47,-187.63 199.46,-184.17 205.13,-193.12 209.47,-187.63"/>
</a>
</g>
</g>
<!-- Node14 -->
<g id="Node000014" class="node">
<title>Node14</title>
<g id="a_Node000014"><a xlink:title=" ">
<polygon fill="#e0e0e0" stroke="#999999" points="41,-19 0,-19 0,0 41,0 41,-19"/>
<text text-anchor="middle" x="20.5" y="-7" font-family="Arial" font-size="10.00">string</text>
</a>
</g>
</g>
<!-- Node2&#45;&gt;Node14 -->
<g id="edge23_Node000002_Node000014" class="edge">
<title>Node2&#45;&gt;Node14</title>
<g id="a_edge23_Node000002_Node000014"><a xlink:title=" ">
<path fill="none" stroke="#63b8ff" d="M223.43,-223.76C193.44,-218.13 148.46,-206.51 115.5,-184 63.57,-148.54 50.25,-132.23 26.5,-74 20.68,-59.73 19.41,-42.2 19.47,-29.17"/>
<polygon fill="#63b8ff" stroke="#63b8ff" points="22.97,-29.19 19.78,-19.09 15.98,-28.97 22.97,-29.19"/>
</a>
</g>
</g>
<!-- Node4 -->
<g id="Node000004" class="node">
<title>Node4</title>
<g id="a_Node000004"><a xlink:title=" ">
<polygon fill="#e0e0e0" stroke="#999999" points="174.5,-19 130.5,-19 130.5,0 174.5,0 174.5,-19"/>
<text text-anchor="middle" x="152.5" y="-7" font-family="Arial" font-size="10.00">cmath</text>
</a>
</g>
</g>
<!-- Node3&#45;&gt;Node4 -->
<g id="edge3_Node000003_Node000004" class="edge">
<title>Node3&#45;&gt;Node4</title>
<g id="a_edge3_Node000003_Node000004"><a xlink:title=" ">
<path fill="none" stroke="#63b8ff" d="M470.22,-58.75C404.31,-48.74 251.75,-25.57 184.88,-15.42"/>
<polygon fill="#63b8ff" stroke="#63b8ff" points="185.33,-11.95 174.91,-13.9 184.28,-18.87 185.33,-11.95"/>
</a>
</g>
</g>
<!-- Node5 -->
<g id="Node000005" class="node">
<title>Node5</title>
<g id="a_Node000005"><a xlink:title=" ">
<polygon fill="#e0e0e0" stroke="#999999" points="529.5,-19 479.5,-19 479.5,0 529.5,0 529.5,-19"/>
<text text-anchor="middle" x="504.5" y="-7" font-family="Arial" font-size="10.00">iomanip</text>
</a>
</g>
</g>
<!-- Node3&#45;&gt;Node5 -->
<g id="edge4_Node000003_Node000005" class="edge">
<title>Node3&#45;&gt;Node5</title>
<g id="a_edge4_Node000003_Node000005"><a xlink:title=" ">
<path fill="none" stroke="#63b8ff" d="M502,-54.75C502.39,-47.8 502.95,-37.85 503.45,-29.13"/>
<polygon fill="#63b8ff" stroke="#63b8ff" points="506.94,-29.27 504.01,-19.09 499.95,-28.88 506.94,-29.27"/>
</a>
</g>
</g>
<!-- Node6 -->
<g id="Node000006" class="node">
<title>Node6</title>
<g id="a_Node000006"><a xlink:title=" ">
<polygon fill="#e0e0e0" stroke="#999999" points="599.5,-19 547.5,-19 547.5,0 599.5,0 599.5,-19"/>
<text text-anchor="middle" x="573.5" y="-7" font-family="Arial" font-size="10.00">sstream</text>
</a>
</g>
</g>
<!-- Node3&#45;&gt;Node6 -->
<g id="edge5_Node000003_Node000006" class="edge">
<title>Node3&#45;&gt;Node6</title>
<g id="a_edge5_Node000003_Node000006"><a xlink:title=" ">
<path fill="none" stroke="#63b8ff" d="M513.07,-54.98C523.92,-47 540.38,-34.88 553.38,-25.31"/>
<polygon fill="#63b8ff" stroke="#63b8ff" points="555.74,-27.92 561.72,-19.17 551.59,-22.28 555.74,-27.92"/>
</a>
</g>
</g>
<!-- Node7 -->
<g id="Node000007" class="node">
<title>Node7</title>
<g id="a_Node000007"><a xlink:title=" ">
<polygon fill="#e0e0e0" stroke="#999999" points="325.5,-19 271.5,-19 271.5,0 325.5,0 325.5,-19"/>
<text text-anchor="middle" x="298.5" y="-7" font-family="Arial" font-size="10.00">iostream</text>
</a>
</g>
</g>
<!-- Node3&#45;&gt;Node7 -->
<g id="edge6_Node000003_Node000007" class="edge">
<title>Node3&#45;&gt;Node7</title>
<g id="a_edge6_Node000003_Node000007"><a xlink:title=" ">
<path fill="none" stroke="#63b8ff" d="M470.23,-55.33C433.88,-45.85 373.97,-30.2 335.39,-20.13"/>
<polygon fill="#63b8ff" stroke="#63b8ff" points="336.14,-16.71 325.58,-17.57 334.38,-23.48 336.14,-16.71"/>
</a>
</g>
</g>
<!-- Node3&#45;&gt;Node8 -->
<g id="edge7_Node000003_Node000008" class="edge">
<title>Node3&#45;&gt;Node8</title>
<g id="a_edge7_Node000003_Node000008"><a xlink:title=" ">
<path fill="none" stroke="#63b8ff" d="M491.54,-54.98C482.37,-47.15 468.56,-35.34 457.47,-25.86"/>
<polygon fill="#63b8ff" stroke="#63b8ff" points="459.52,-23.01 449.64,-19.17 454.97,-28.33 459.52,-23.01"/>
</a>
</g>
</g>
<!-- Node9&#45;&gt;Node3 -->
<g id="edge9_Node000009_Node000003" class="edge">
<title>Node9&#45;&gt;Node3</title>
<g id="a_edge9_Node000009_Node000003"><a xlink:title=" ">
<path fill="none" stroke="#63b8ff" d="M389.59,-164.94C397.58,-151.99 414.07,-127.11 432.5,-110 445.49,-97.95 462.13,-87.1 475.82,-79.14"/>
<polygon fill="#63b8ff" stroke="#63b8ff" points="477.75,-82.07 484.74,-74.11 474.31,-75.97 477.75,-82.07"/>
</a>
</g>
</g>
<!-- Node10&#45;&gt;Node4 -->
<g id="edge20_Node000010_Node000004" class="edge">
<title>Node10&#45;&gt;Node4</title>
<g id="a_edge20_Node000010_Node000004"><a xlink:title=" ">
<path fill="none" stroke="#63b8ff" d="M184.84,-164.78C181.25,-155.91 175.83,-141.71 172.5,-129 163.41,-94.31 157.51,-52.79 154.62,-29.24"/>
<polygon fill="#63b8ff" stroke="#63b8ff" points="158.08,-28.76 153.43,-19.24 151.13,-29.58 158.08,-28.76"/>
</a>
</g>
</g>
<!-- Node10&#45;&gt;Node8 -->
<g id="edge22_Node000010_Node000008" class="edge">
<title>Node10&#45;&gt;Node8</title>
<g id="a_edge22_Node000010_Node000008"><a xlink:title=" ">
<path fill="none" stroke="#63b8ff" d="M191.81,-164.76C200.65,-142.7 226.96,-84.39 268.5,-55 310.44,-25.33 370.68,-15.43 407.34,-12.14"/>
<polygon fill="#63b8ff" stroke="#63b8ff" points="407.77,-15.62 417.46,-11.34 407.22,-8.64 407.77,-15.62"/>
</a>
</g>
</g>
<!-- Node11 -->
<g id="Node000011" class="node">
<title>Node11</title>
<g id="a_Node000011"><a xlink:href="io_8h.html" target="_top" xlink:title=" ">
<polygon fill="white" stroke="#666666" points="296.5,-129 248.5,-129 248.5,-110 296.5,-110 296.5,-129"/>
<text text-anchor="middle" x="272.5" y="-117" font-family="Arial" font-size="10.00">util/io.h</text>
</a>
</g>
</g>
<!-- Node10&#45;&gt;Node11 -->
<g id="edge11_Node000010_Node000011" class="edge">
<title>Node10&#45;&gt;Node11</title>
<g id="a_edge11_Node000010_Node000011"><a xlink:title=" ">
<path fill="none" stroke="#63b8ff" d="M202,-164.98C214.9,-156.84 234.6,-144.41 249.9,-134.76"/>
<polygon fill="#63b8ff" stroke="#63b8ff" points="252.17,-137.47 258.76,-129.17 248.43,-131.55 252.17,-137.47"/>
</a>
</g>
</g>
<!-- Node10&#45;&gt;Node14 -->
<g id="edge21_Node000010_Node000014" class="edge">
<title>Node10&#45;&gt;Node14</title>
<g id="a_edge21_Node000010_Node000014"><a xlink:title=" ">
<path fill="none" stroke="#63b8ff" d="M167.05,-164.89C134.6,-150.78 73.24,-119.66 39.5,-74 29.78,-60.84 24.99,-42.71 22.66,-29.19"/>
<polygon fill="#63b8ff" stroke="#63b8ff" points="26.1,-28.53 21.23,-19.13 19.17,-29.52 26.1,-28.53"/>
</a>
</g>
</g>
<!-- Node11&#45;&gt;Node3 -->
<g id="edge12_Node000011_Node000003" class="edge">
<title>Node11&#45;&gt;Node3</title>
<g id="a_edge12_Node000011_Node000003"><a xlink:title=" ">
<path fill="none" stroke="#63b8ff" d="M296.57,-112.93C335.41,-103.94 412.35,-86.13 460.11,-75.08"/>
<polygon fill="#63b8ff" stroke="#63b8ff" points="461.17,-78.43 470.13,-72.76 459.59,-71.61 461.17,-78.43"/>
</a>
</g>
</g>
<!-- Node11&#45;&gt;Node7 -->
<g id="edge17_Node000011_Node000007" class="edge">
<title>Node11&#45;&gt;Node7</title>
<g id="a_edge17_Node000011_Node000007"><a xlink:title=" ">
<path fill="none" stroke="#63b8ff" d="M264.78,-109.74C254.87,-97.36 239.91,-74.14 248.5,-55 254,-42.74 264.73,-32.48 274.85,-24.91"/>
<polygon fill="#63b8ff" stroke="#63b8ff" points="276.85,-27.78 283.07,-19.2 272.86,-22.03 276.85,-27.78"/>
</a>
</g>
</g>
<!-- Node11&#45;&gt;Node8 -->
<g id="edge18_Node000011_Node000008" class="edge">
<title>Node11&#45;&gt;Node8</title>
<g id="a_edge18_Node000011_Node000008"><a xlink:title=" ">
<path fill="none" stroke="#63b8ff" d="M271.03,-109.92C269.26,-96.48 268.01,-70.42 281.5,-55 312.92,-19.07 370.84,-11.11 407.15,-9.9"/>
<polygon fill="#63b8ff" stroke="#63b8ff" points="407.29,-13.39 417.23,-9.71 407.17,-6.39 407.29,-13.39"/>
</a>
</g>
</g>
<!-- Node11&#45;&gt;Node12 -->
<g id="edge13_Node000011_Node000012" class="edge">
<title>Node11&#45;&gt;Node12</title>
<g id="a_edge13_Node000011_Node000012"><a xlink:title=" ">
<path fill="none" stroke="#63b8ff" d="M248.31,-111.68C217.12,-102.89 162.46,-87.48 124.92,-76.89"/>
<polygon fill="#63b8ff" stroke="#63b8ff" points="125.39,-73.39 114.82,-74.05 123.49,-80.13 125.39,-73.39"/>
</a>
</g>
</g>
<!-- Node16 -->
<g id="Node000016" class="node">
<title>Node16</title>
<g id="a_Node000016"><a xlink:title=" ">
<polygon fill="#e0e0e0" stroke="#999999" points="414.5,-74 364.5,-74 364.5,-55 414.5,-55 414.5,-74"/>
<text text-anchor="middle" x="389.5" y="-62" font-family="Arial" font-size="10.00">fstream</text>
</a>
</g>
</g>
<!-- Node11&#45;&gt;Node16 -->
<g id="edge16_Node000011_Node000016" class="edge">
<title>Node11&#45;&gt;Node16</title>
<g id="a_edge16_Node000011_Node000016"><a xlink:title=" ">
<path fill="none" stroke="#63b8ff" d="M291.3,-109.98C310.12,-101.46 339.32,-88.23 361,-78.41"/>
<polygon fill="#63b8ff" stroke="#63b8ff" points="362.7,-81.48 370.36,-74.17 359.81,-75.11 362.7,-81.48"/>
</a>
</g>
</g>
<!-- Node17 -->
<g id="Node000017" class="node">
<title>Node17</title>
<g id="a_Node000017"><a xlink:title=" ">
<polygon fill="#e0e0e0" stroke="#999999" points="346.5,-74 290.5,-74 290.5,-55 346.5,-55 346.5,-74"/>
<text text-anchor="middle" x="318.5" y="-62" font-family="Arial" font-size="10.00">algorithm</text>
</a>
</g>
</g>
<!-- Node11&#45;&gt;Node17 -->
<g id="edge19_Node000011_Node000017" class="edge">
<title>Node11&#45;&gt;Node17</title>
<g id="a_edge19_Node000011_Node000017"><a xlink:title=" ">
<path fill="none" stroke="#63b8ff" d="M280.1,-109.75C286.66,-102.18 296.32,-91.05 304.31,-81.84"/>
<polygon fill="#63b8ff" stroke="#63b8ff" points="307.13,-83.94 311.05,-74.09 301.85,-79.35 307.13,-83.94"/>
</a>
</g>
</g>
<!-- Node12&#45;&gt;Node8 -->
<g id="edge15_Node000012_Node000008" class="edge">
<title>Node12&#45;&gt;Node8</title>
<g id="a_edge15_Node000012_Node000008"><a xlink:title=" ">
<path fill="none" stroke="#63b8ff" d="M120.16,-58.18C189.28,-47.86 340.52,-25.28 407.02,-15.35"/>
<polygon fill="#63b8ff" stroke="#63b8ff" points="407.94,-18.75 417.31,-13.81 406.91,-11.83 407.94,-18.75"/>
</a>
</g>
</g>
<!-- Node12&#45;&gt;Node14 -->
<g id="edge14_Node000012_Node000014" class="edge">
<title>Node12&#45;&gt;Node14</title>
<g id="a_edge14_Node000012_Node000014"><a xlink:title=" ">
<path fill="none" stroke="#63b8ff" d="M74.22,-54.98C64.66,-47.07 50.22,-35.11 38.72,-25.58"/>
<polygon fill="#63b8ff" stroke="#63b8ff" points="40.9,-22.85 30.97,-19.17 36.44,-28.24 40.9,-22.85"/>
</a>
</g>
</g>
<!-- Node18&#45;&gt;Node3 -->
<g id="edge26_Node000018_Node000003" class="edge">
<title>Node18&#45;&gt;Node3</title>
<g id="a_edge26_Node000018_Node000003"><a xlink:title=" ">
<path fill="none" stroke="#63b8ff" d="M681.77,-112.11C647.24,-103.18 584.14,-86.87 542.51,-76.1"/>
<polygon fill="#63b8ff" stroke="#63b8ff" points="543.24,-72.68 532.68,-73.56 541.48,-79.45 543.24,-72.68"/>
</a>
</g>
</g>
<!-- Node18&#45;&gt;Node8 -->
<g id="edge29_Node000018_Node000008" class="edge">
<title>Node18&#45;&gt;Node8</title>
<g id="a_edge29_Node000018_Node000008"><a xlink:title=" ">
<path fill="none" stroke="#63b8ff" d="M694.42,-109.97C675.01,-96.62 635.33,-70.67 598.5,-55 595.51,-53.73 517.02,-31.94 471.46,-19.33"/>
<polygon fill="#63b8ff" stroke="#63b8ff" points="472.3,-15.94 461.73,-16.64 470.44,-22.68 472.3,-15.94"/>
</a>
</g>
</g>
<!-- Node19 -->
<g id="Node000019" class="node">
<title>Node19</title>
<g id="a_Node000019"><a xlink:title=" ">
<polygon fill="#e0e0e0" stroke="#999999" points="727.5,-74 681.5,-74 681.5,-55 727.5,-55 727.5,-74"/>
<text text-anchor="middle" x="704.5" y="-62" font-family="Arial" font-size="10.00">cstdint</text>
</a>
</g>
</g>
<!-- Node18&#45;&gt;Node19 -->
<g id="edge27_Node000018_Node000019" class="edge">
<title>Node18&#45;&gt;Node19</title>
<g id="a_edge27_Node000018_Node000019"><a xlink:title=" ">
<path fill="none" stroke="#63b8ff" d="M706.17,-109.75C705.91,-102.8 705.53,-92.85 705.2,-84.13"/>
<polygon fill="#63b8ff" stroke="#63b8ff" points="708.7,-83.95 704.82,-74.09 701.7,-84.21 708.7,-83.95"/>
</a>
</g>
</g>
<!-- Node20 -->
<g id="Node000020" class="node">
<title>Node20</title>
<g id="a_Node000020"><a xlink:title=" ">
<polygon fill="#e0e0e0" stroke="#999999" points="791.5,-74 745.5,-74 745.5,-55 791.5,-55 791.5,-74"/>
<text text-anchor="middle" x="768.5" y="-62" font-family="Arial" font-size="10.00">cstring</text>
</a>
</g>
</g>
<!-- Node18&#45;&gt;Node20 -->
<g id="edge28_Node000018_Node000020" class="edge">
<title>Node18&#45;&gt;Node20</title>
<g id="a_edge28_Node000018_Node000020"><a xlink:title=" ">
<path fill="none" stroke="#63b8ff" d="M716.46,-109.98C725.63,-102.15 739.44,-90.34 750.53,-80.86"/>
<polygon fill="#63b8ff" stroke="#63b8ff" points="753.03,-83.33 758.36,-74.17 748.48,-78.01 753.03,-83.33"/>
</a>
</g>
</g>
<!-- Node21&#45;&gt;Node22 -->
<g id="edge31_Node000021_Node000022" class="edge">
<title>Node21&#45;&gt;Node22</title>
<g id="a_edge31_Node000021_Node000022"><a xlink:title=" ">
<path fill="none" stroke="#63b8ff" d="M417.8,-335.49C379.54,-325.23 315.09,-307.93 272.92,-296.62"/>
<polygon fill="#63b8ff" stroke="#63b8ff" points="273.8,-293.23 263.24,-294.02 271.99,-299.99 273.8,-293.23"/>
</a>
</g>
</g>
<!-- Node23 -->
<g id="Node000023" class="node">
<title>Node23</title>
<g id="a_Node000023"><a xlink:href="baseElem_8h.html" target="_top" xlink:title=" ">
<polygon fill="white" stroke="#666666" points="518.5,-239 450.5,-239 450.5,-220 518.5,-220 518.5,-239"/>
<text text-anchor="middle" x="484.5" y="-227" font-family="Arial" font-size="10.00">baseElem.h</text>
</a>
</g>
</g>
<!-- Node21&#45;&gt;Node23 -->
<g id="edge32_Node000021_Node000023" class="edge">
<title>Node21&#45;&gt;Node23</title>
<g id="a_edge32_Node000021_Node000023"><a xlink:title=" ">
<path fill="none" stroke="#63b8ff" d="M438.02,-335.31C422.23,-322.25 397.1,-296.78 409.5,-275 417.8,-260.43 432.95,-250.14 447.48,-243.15"/>
<polygon fill="#63b8ff" stroke="#63b8ff" points="449.11,-246.25 456.85,-239.02 446.29,-239.85 449.11,-246.25"/>
</a>
</g>
</g>
<!-- Node25 -->
<g id="Node000025" class="node">
<title>Node25</title>
<g id="a_Node000025"><a xlink:href="lineElem_8h.html" target="_top" xlink:title=" ">
<polygon fill="white" stroke="#666666" points="480.5,-294 418.5,-294 418.5,-275 480.5,-275 480.5,-294"/>
<text text-anchor="middle" x="449.5" y="-282" font-family="Arial" font-size="10.00">lineElem.h</text>
</a>
</g>
</g>
<!-- Node21&#45;&gt;Node25 -->
<g id="edge38_Node000021_Node000025" class="edge">
<title>Node21&#45;&gt;Node25</title>
<g id="a_edge38_Node000021_Node000025"><a xlink:title=" ">
<path fill="none" stroke="#63b8ff" d="M449.5,-335.37C449.5,-327.25 449.5,-314.81 449.5,-304.39"/>
<polygon fill="#63b8ff" stroke="#63b8ff" points="453,-304.17 449.5,-294.17 446,-304.17 453,-304.17"/>
</a>
</g>
</g>
<!-- Node26 -->
<g id="Node000026" class="node">
<title>Node26</title>
<g id="a_Node000026"><a xlink:href="quadElem_8h.html" target="_top" xlink:title=" ">
<polygon fill="white" stroke="#666666" points="566.5,-294 498.5,-294 498.5,-275 566.5,-275 566.5,-294"/>
<text text-anchor="middle" x="532.5" y="-282" font-family="Arial" font-size="10.00">quadElem.h</text>
</a>
</g>
</g>
<!-- Node21&#45;&gt;Node26 -->
<g id="edge40_Node000021_Node000026" class="edge">
<title>Node21&#45;&gt;Node26</title>
<g id="a_edge40_Node000021_Node000026"><a xlink:title=" ">
<path fill="none" stroke="#63b8ff" d="M461.75,-335.37C474.86,-326.12 495.92,-311.28 511.65,-300.19"/>
<polygon fill="#63b8ff" stroke="#63b8ff" points="514.05,-302.79 520.2,-294.17 510.01,-297.07 514.05,-302.79"/>
</a>
</g>
</g>
<!-- Node27 -->
<g id="Node000027" class="node">
<title>Node27</title>
<g id="a_Node000027"><a xlink:href="triElem_8h.html" target="_top" xlink:title=" ">
<polygon fill="white" stroke="#666666" points="640.5,-294 584.5,-294 584.5,-275 640.5,-275 640.5,-294"/>
<text text-anchor="middle" x="612.5" y="-282" font-family="Arial" font-size="10.00">triElem.h</text>
</a>
</g>
</g>
<!-- Node21&#45;&gt;Node27 -->
<g id="edge42_Node000021_Node000027" class="edge">
<title>Node21&#45;&gt;Node27</title>
<g id="a_edge42_Node000021_Node000027"><a xlink:title=" ">
<path fill="none" stroke="#63b8ff" d="M473.2,-335.49C501.09,-325.49 547.57,-308.8 579.1,-297.49"/>
<polygon fill="#63b8ff" stroke="#63b8ff" points="580.54,-300.69 588.77,-294.02 578.18,-294.1 580.54,-300.69"/>
</a>
</g>
</g>
<!-- Node28 -->
<g id="Node000028" class="node">
<title>Node28</title>
<g id="a_Node000028"><a xlink:href="tetElem_8h.html" target="_top" xlink:title=" ">
<polygon fill="white" stroke="#666666" points="362,-294 303,-294 303,-275 362,-275 362,-294"/>
<text text-anchor="middle" x="332.5" y="-282" font-family="Arial" font-size="10.00">tetElem.h</text>
</a>
</g>
</g>
<!-- Node21&#45;&gt;Node28 -->
<g id="edge44_Node000021_Node000028" class="edge">
<title>Node21&#45;&gt;Node28</title>
<g id="a_edge44_Node000021_Node000028"><a xlink:title=" ">
<path fill="none" stroke="#63b8ff" d="M432.49,-335.49C413.08,-325.79 381.11,-309.81 358.56,-298.53"/>
<polygon fill="#63b8ff" stroke="#63b8ff" points="360.04,-295.36 349.53,-294.02 356.91,-301.62 360.04,-295.36"/>
</a>
</g>
</g>
<!-- Node23&#45;&gt;Node3 -->
<g id="edge37_Node000023_Node000003" class="edge">
<title>Node23&#45;&gt;Node3</title>
<g id="a_edge37_Node000023_Node000003"><a xlink:title=" ">
<path fill="none" stroke="#63b8ff" d="M485.41,-219.74C488.07,-194.31 495.81,-120.08 499.5,-84.69"/>
<polygon fill="#63b8ff" stroke="#63b8ff" points="503.03,-84.62 500.58,-74.31 496.06,-83.89 503.03,-84.62"/>
</a>
</g>
</g>
<!-- Node24 -->
<g id="Node000024" class="node">
<title>Node24</title>
<g id="a_Node000024"><a xlink:href="quadData_8h.html" target="_top" xlink:title=" ">
<polygon fill="white" stroke="#666666" points="580,-184 513,-184 513,-165 580,-165 580,-184"/>
<text text-anchor="middle" x="546.5" y="-172" font-family="Arial" font-size="10.00">quadData.h</text>
</a>
</g>
</g>
<!-- Node23&#45;&gt;Node24 -->
<g id="edge33_Node000023_Node000024" class="edge">
<title>Node23&#45;&gt;Node24</title>
<g id="a_edge33_Node000023_Node000024"><a xlink:title=" ">
<path fill="none" stroke="#63b8ff" d="M494.46,-219.98C503.63,-212.15 517.44,-200.34 528.53,-190.86"/>
<polygon fill="#63b8ff" stroke="#63b8ff" points="531.03,-193.33 536.36,-184.17 526.48,-188.01 531.03,-193.33"/>
</a>
</g>
</g>
<!-- Node24&#45;&gt;Node3 -->
<g id="edge35_Node000024_Node000003" class="edge">
<title>Node24&#45;&gt;Node3</title>
<g id="a_edge35_Node000024_Node000003"><a xlink:title=" ">
<path fill="none" stroke="#63b8ff" d="M542.82,-164.66C535.46,-147.01 518.83,-107.09 509.06,-83.64"/>
<polygon fill="#63b8ff" stroke="#63b8ff" points="512.18,-82.04 505.11,-74.16 505.72,-84.74 512.18,-82.04"/>
</a>
</g>
</g>
<!-- Node24&#45;&gt;Node8 -->
<g id="edge36_Node000024_Node000008" class="edge">
<title>Node24&#45;&gt;Node8</title>
<g id="a_edge36_Node000024_Node000008"><a xlink:title=" ">
<path fill="none" stroke="#63b8ff" d="M548.98,-164.8C554.43,-143.79 565.13,-89.48 541.5,-55 533.12,-42.78 498.16,-29.22 471.48,-20.32"/>
<polygon fill="#63b8ff" stroke="#63b8ff" points="472.33,-16.92 461.73,-17.15 470.16,-23.57 472.33,-16.92"/>
</a>
</g>
</g>
<!-- Node24&#45;&gt;Node11 -->
<g id="edge34_Node000024_Node000011" class="edge">
<title>Node24&#45;&gt;Node11</title>
<g id="a_edge34_Node000024_Node000011"><a xlink:title=" ">
<path fill="none" stroke="#63b8ff" d="M512.9,-167C460.39,-156.84 359.4,-137.31 306.59,-127.09"/>
<polygon fill="#63b8ff" stroke="#63b8ff" points="307.18,-123.64 296.7,-125.18 305.85,-130.52 307.18,-123.64"/>
</a>
</g>
</g>
<!-- Node25&#45;&gt;Node23 -->
<g id="edge39_Node000025_Node000023" class="edge">
<title>Node25&#45;&gt;Node23</title>
<g id="a_edge39_Node000025_Node000023"><a xlink:title=" ">
<path fill="none" stroke="#63b8ff" d="M455.28,-274.75C460.12,-267.42 467.18,-256.73 473.14,-247.7"/>
<polygon fill="#63b8ff" stroke="#63b8ff" points="476.24,-249.36 478.83,-239.09 470.4,-245.5 476.24,-249.36"/>
</a>
</g>
</g>
<!-- Node26&#45;&gt;Node23 -->
<g id="edge41_Node000026_Node000023" class="edge">
<title>Node26&#45;&gt;Node23</title>
<g id="a_edge41_Node000026_Node000023"><a xlink:title=" ">
<path fill="none" stroke="#63b8ff" d="M524.57,-274.75C517.65,-267.11 507.43,-255.82 499.05,-246.56"/>
<polygon fill="#63b8ff" stroke="#63b8ff" points="501.59,-244.15 492.28,-239.09 496.4,-248.85 501.59,-244.15"/>
</a>
</g>
</g>
<!-- Node27&#45;&gt;Node23 -->
<g id="edge43_Node000027_Node000023" class="edge">
<title>Node27&#45;&gt;Node23</title>
<g id="a_edge43_Node000027_Node000023"><a xlink:title=" ">
<path fill="none" stroke="#63b8ff" d="M591.93,-274.98C571.07,-266.34 538.53,-252.87 514.73,-243.02"/>
<polygon fill="#63b8ff" stroke="#63b8ff" points="516.02,-239.76 505.44,-239.17 513.34,-246.23 516.02,-239.76"/>
</a>
</g>
</g>
<!-- Node28&#45;&gt;Node23 -->
<g id="edge45_Node000028_Node000023" class="edge">
<title>Node28&#45;&gt;Node23</title>
<g id="a_edge45_Node000028_Node000023"><a xlink:title=" ">
<path fill="none" stroke="#63b8ff" d="M356.92,-274.98C382.22,-266.16 421.95,-252.31 450.36,-242.41"/>
<polygon fill="#63b8ff" stroke="#63b8ff" points="451.6,-245.68 459.89,-239.08 449.29,-239.07 451.6,-245.68"/>
</a>
</g>
</g>
<!-- Node29&#45;&gt;Node3 -->
<g id="edge49_Node000029_Node000003" class="edge">
<title>Node29&#45;&gt;Node3</title>
<g id="a_edge49_Node000029_Node000003"><a xlink:title=" ">
<path fill="none" stroke="#63b8ff" d="M606.42,-109.98C586.13,-101.38 554.54,-87.99 531.33,-78.15"/>
<polygon fill="#63b8ff" stroke="#63b8ff" points="532.52,-74.85 521.95,-74.17 529.79,-81.3 532.52,-74.85"/>
</a>
</g>
</g>
<!-- Node29&#45;&gt;Node8 -->
<g id="edge50_Node000029_Node000008" class="edge">
<title>Node29&#45;&gt;Node8</title>
<g id="a_edge50_Node000029_Node000008"><a xlink:title=" ">
<path fill="none" stroke="#63b8ff" d="M621.6,-109.78C613.52,-96.15 596.12,-69.84 574.5,-55 565.81,-49.03 508.54,-31.2 471.43,-20"/>
<polygon fill="#63b8ff" stroke="#63b8ff" points="472.15,-16.56 461.56,-17.03 470.13,-23.26 472.15,-16.56"/>
</a>
</g>
</g>
</g>
</svg>
