<?xml version="1.0" encoding="UTF-8" standalone="no"?>
<!DOCTYPE svg PUBLIC "-//W3C//DTD SVG 1.1//EN"
 "http://www.w3.org/Graphics/SVG/1.1/DTD/svg11.dtd">
<!-- Generated by graphviz version 2.43.0 (0)
 -->
<!-- Title: /home/user/project/src/util/methods.h Pages: 1 -->
<svg width="676pt" height="148pt"
 viewBox="0.00 0.00 675.50 148.00" xmlns="http://www.w3.org/2000/svg" xmlns:xlink="http://www.w3.org/1999/xlink">
<g id="graph0" class="graph" transform="scale(1 1) rotate(0) translate(4 144)">
<title>/home/user/project/src/util/methods.h</title>
<!-- Node1 -->
<g id="Node000001" class="node">
<title>Node1</title>
<g id="a_Node000001"><a xlink:title=" ">
<polygon fill="#999999" stroke="#666666" points="464,-140 366,-140 366,-110 464,-110 464,-140"/>
<text text-anchor="start" x="374" y="-128" font-family="Arial" font-size="10.00">/home/user/project</text>
<text text-anchor="middle" x="415" y="-117" font-family="Arial" font-size="10.00">/src/util/methods.h</text>
</a>
</g>
</g>
<!-- Node2 -->
<g id="Node000002" class="node">
<title>Node2</title>
<g id="a_Node000002"><a xlink:href="point_8h.html" target="_top" xlink:title=" ">
<polygon fill="white" stroke="#666666" points="214,-74 168,-74 168,-55 214,-55 214,-74"/>
<text text-anchor="middle" x="191" y="-62" font-family="Arial" font-size="10.00">point.h</text>
</a>
</g>
</g>
<!-- Node1&#45;&gt;Node2 -->
<g id="edge1_Node000001_Node000002" class="edge">
<title>Node1&#45;&gt;Node2</title>
<g id="a_edge1_Node000001_Node000002"><a xlink:title=" ">
<path fill="none" stroke="#63b8ff" d="M365.84,-111.16C322.76,-99.91 261.33,-83.87 223.92,-74.1"/>
<polygon fill="#63b8ff" stroke="#63b8ff" points="224.6,-70.66 214.04,-71.52 222.84,-77.43 224.6,-70.66"/>
</a>
</g>
</g>
<!-- Node7 -->
<g id="Node000007" class="node">
<title>Node7</title>
<g id="a_Node000007"><a xlink:title=" ">
<polygon fill="#e0e0e0" stroke="#999999" points="316,-19 272,-19 272,0 316,0 316,-19"/>
<text text-anchor="middle" x="294" y="-7" font-family="Arial" font-size="10.00">vector</text>
</a>
</g>
</g>
<!-- Node1&#45;&gt;Node7 -->
<g id="edge9_Node000001_Node000007" class="edge">
<title>Node1&#45;&gt;Node7</title>
<g id="a_edge9_Node000001_Node000007"><a xlink:title=" ">
<path fill="none" stroke="#63b8ff" d="M365.86,-118.34C337.73,-112.3 304.63,-99.81 287,-74 278.02,-60.85 281.32,-42.47 285.94,-28.87"/>
<polygon fill="#63b8ff" stroke="#63b8ff" points="289.35,-29.76 289.73,-19.17 282.83,-27.21 289.35,-29.76"/>
</a>
</g>
</g>
<!-- Node8 -->
<g id="Node000008" class="node">
<title>Node8</title>
<g id="a_Node000008"><a xlink:title=" ">
<polygon fill="#e0e0e0" stroke="#999999" points="342,-74 296,-74 296,-55 342,-55 342,-74"/>
<text text-anchor="middle" x="319" y="-62" font-family="Arial" font-size="10.00">cstdint</text>
</a>
</g>
</g>
<!-- Node1&#45;&gt;Node8 -->
<g id="edge7_Node000001_Node000008" class="edge">
<title>Node1&#45;&gt;Node8</title>
<g id="a_edge7_Node000001_Node000008"><a xlink:title=" ">
<path fill="none" stroke="#63b8ff" d="M391.76,-109.84C376.6,-100.6 356.89,-88.59 341.81,-79.4"/>
<polygon fill="#63b8ff" stroke="#63b8ff" points="343.46,-76.31 333.1,-74.09 339.82,-82.29 343.46,-76.31"/>
</a>
</g>
</g>
<!-- Node9 -->
<g id="Node000009" class="node">
<title>Node9</title>
<g id="a_Node000009"><a xlink:title=" ">
<polygon fill="#e0e0e0" stroke="#999999" points="406,-74 360,-74 360,-55 406,-55 406,-74"/>
<text text-anchor="middle" x="383" y="-62" font-family="Arial" font-size="10.00">cstring</text>
</a>
</g>
</g>
<!-- Node1&#45;&gt;Node9 -->
<g id="edge8_Node000001_Node000009" class="edge">
<title>Node1&#45;&gt;Node9</title>
<g id="a_edge8_Node000001_Node000009"><a xlink:title=" ">
<path fill="none" stroke="#63b8ff" d="M407.25,-109.84C402.85,-101.78 397.29,-91.62 392.6,-83.06"/>
<polygon fill="#63b8ff" stroke="#63b8ff" points="395.66,-81.36 387.8,-74.27 389.52,-84.72 395.66,-81.36"/>
</a>
</g>
</g>
<!-- Node10 -->
<g id="Node000010" class="node">
<title>Node10</title>
<g id="a_Node000010"><a xlink:title=" ">
<polygon fill="#e0e0e0" stroke="#999999" points="470,-74 424,-74 424,-55 470,-55 470,-74"/>
<text text-anchor="middle" x="447" y="-62" font-family="Arial" font-size="10.00">chrono</text>
</a>
</g>
</g>
<!-- Node1&#45;&gt;Node10 -->
<g id="edge10_Node000001_Node000010" class="edge">
<title>Node1&#45;&gt;Node10</title>
<g id="a_edge10_Node000001_Node000010"><a xlink:title=" ">
<path fill="none" stroke="#63b8ff" d="M422.75,-109.84C427.15,-101.78 432.71,-91.62 437.4,-83.06"/>
<polygon fill="#63b8ff" stroke="#63b8ff" points="440.48,-84.72 442.2,-74.27 434.34,-81.36 440.48,-84.72"/>
</a>
</g>
</g>
<!-- Node11 -->
<g id="Node000011" class="node">
<title>Node11</title>
<g id="a_Node000011"><a xlink:title=" ">
<polygon fill="#e0e0e0" stroke="#999999" points="539.5,-74 488.5,-74 488.5,-55 539.5,-55 539.5,-74"/>
<text text-anchor="middle" x="514" y="-62" font-family="Arial" font-size="10.00">numeric</text>
</a>
</g>
</g>
<!-- Node1&#45;&gt;Node11 -->
<g id="edge11_Node000001_Node000011" class="edge">
<title>Node1&#45;&gt;Node11</title>
<g id="a_edge11_Node000001_Node000011"><a xlink:title=" ">
<path fill="none" stroke="#63b8ff" d="M438.71,-109.99C454.35,-100.75 474.74,-88.7 490.36,-79.47"/>
<polygon fill="#63b8ff" stroke="#63b8ff" points="492.55,-82.24 499.38,-74.14 488.99,-76.21 492.55,-82.24"/>
</a>
</g>
</g>
<!-- Node12 -->
<g id="Node000012" class="node">
<title>Node12</title>
<g id="a_Node000012"><a xlink:title=" ">
<polygon fill="#e0e0e0" stroke="#999999" points="614,-74 558,-74 558,-55 614,-55 614,-74"/>
<text text-anchor="middle" x="586" y="-62" font-family="Arial" font-size="10.00">algorithm</text>
</a>
</g>
</g>
<!-- Node1&#45;&gt;Node12 -->
<g id="edge12_Node000001_Node000012" class="edge">
<title>Node1&#45;&gt;Node12</title>
<g id="a_edge12_Node000001_Node000012"><a xlink:title=" ">
<path fill="none" stroke="#63b8ff" d="M455.96,-109.99C485,-100.05 523.55,-86.86 551.12,-77.43"/>
<polygon fill="#63b8ff" stroke="#63b8ff" points="552.42,-80.69 560.75,-74.14 550.15,-74.06 552.42,-80.69"/>
</a>
</g>
</g>
<!-- Node13 -->
<g id="Node000013" class="node">
<title>Node13</title>
<g id="a_Node000013"><a xlink:title=" ">
<polygon fill="#e0e0e0" stroke="#999999" points="667.5,-74 632.5,-74 632.5,-55 667.5,-55 667.5,-74"/>
<text text-anchor="middle" x="650" y="-62" font-family="Arial" font-size="10.00">map</text>
</a>
</g>
</g>
<!-- Node1&#45;&gt;Node13 -->
<g id="edge13_Node000001_Node000013" class="edge">
<title>Node1&#45;&gt;Node13</title>
<g id="a_edge13_Node000001_Node000013"><a xlink:title=" ">
<path fill="none" stroke="#63b8ff" d="M464.42,-113.13C504.49,-104.09 562.61,-90.46 622.34,-74.03"/>
<polygon fill="#63b8ff" stroke="#63b8ff" points="623.63,-77.3 632.33,-71.25 621.76,-70.55 623.63,-77.3"/>
</a>
</g>
</g>
<!-- Node3 -->
<g id="Node000003" class="node">
<title>Node3</title>
<g id="a_Node000003"><a xlink:title=" ">
<polygon fill="#e0e0e0" stroke="#999999" points="44,-19 0,-19 0,0 44,0 44,-19"/>
<text text-anchor="middle" x="22" y="-7" font-family="Arial" font-size="10.00">cmath</text>
</a>
</g>
</g>
<!-- Node2&#45;&gt;Node3 -->
<g id="edge2_Node000002_Node000003" class="edge">
<title>Node2&#45;&gt;Node3</title>
<g id="a_edge2_Node000002_Node000003"><a xlink:title=" ">
<path fill="none" stroke="#63b8ff" d="M167.86,-56.24C138.28,-46.97 86.95,-30.87 53.74,-20.45"/>
<polygon fill="#63b8ff" stroke="#63b8ff" points="54.65,-17.07 44.06,-17.42 52.56,-23.75 54.65,-17.07"/>
</a>
</g>
</g>
<!-- Node4 -->
<g id="Node000004" class="node">
<title>Node4</title>
<g id="a_Node000004"><a xlink:title=" ">
<polygon fill="#e0e0e0" stroke="#999999" points="112,-19 62,-19 62,0 112,0 112,-19"/>
<text text-anchor="middle" x="87" y="-7" font-family="Arial" font-size="10.00">iomanip</text>
</a>
</g>
</g>
<!-- Node2&#45;&gt;Node4 -->
<g id="edge3_Node000002_Node000004" class="edge">
<title>Node2&#45;&gt;Node4</title>
<g id="a_edge3_Node000002_Node000004"><a xlink:title=" ">
<path fill="none" stroke="#63b8ff" d="M174.29,-54.98C157.79,-46.57 132.3,-33.59 113.12,-23.81"/>
<polygon fill="#63b8ff" stroke="#63b8ff" points="114.51,-20.59 104.01,-19.17 111.33,-26.83 114.51,-20.59"/>
</a>
</g>
</g>
<!-- Node5 -->
<g id="Node000005" class="node">
<title>Node5</title>
<g id="a_Node000005"><a xlink:title=" ">
<polygon fill="#e0e0e0" stroke="#999999" points="182,-19 130,-19 130,0 182,0 182,-19"/>
<text text-anchor="middle" x="156" y="-7" font-family="Arial" font-size="10.00">sstream</text>
</a>
</g>
</g>
<!-- Node2&#45;&gt;Node5 -->
<g id="edge4_Node000002_Node000005" class="edge">
<title>Node2&#45;&gt;Node5</title>
<g id="a_edge4_Node000002_Node000005"><a xlink:title=" ">
<path fill="none" stroke="#63b8ff" d="M185.22,-54.75C180.38,-47.42 173.32,-36.73 167.36,-27.7"/>
<polygon fill="#63b8ff" stroke="#63b8ff" points="170.1,-25.5 161.67,-19.09 164.26,-29.36 170.1,-25.5"/>
</a>
</g>
</g>
<!-- Node6 -->
<g id="Node000006" class="node">
<title>Node6</title>
<g id="a_Node000006"><a xlink:title=" ">
<polygon fill="#e0e0e0" stroke="#999999" points="254,-19 200,-19 200,0 254,0 254,-19"/>
<text text-anchor="middle" x="227" y="-7" font-family="Arial" font-size="10.00">iostream</text>
</a>
</g>
</g>
<!-- Node2&#45;&gt;Node6 -->
<g id="edge5_Node000002_Node000006" class="edge">
<title>Node2&#45;&gt;Node6</title>
<g id="a_edge5_Node000002_Node000006"><a xlink:title=" ">
<path fill="none" stroke="#63b8ff" d="M196.94,-54.75C201.98,-47.34 209.34,-36.5 215.51,-27.41"/>
<polygon fill="#63b8ff" stroke="#63b8ff" points="218.44,-29.33 221.17,-19.09 212.65,-25.39 218.44,-29.33"/>
</a>
</g>
</g>
<!-- Node2&#45;&gt;Node7 -->
<g id="edge6_Node000002_Node000007" class="edge">
<title>Node2&#45;&gt;Node7</title>
<g id="a_edge6_Node000002_Node000007"><a xlink:title=" ">
<path fill="none" stroke="#63b8ff" d="M207.55,-54.98C223.89,-46.57 249.13,-33.59 268.13,-23.81"/>
<polygon fill="#63b8ff" stroke="#63b8ff" points="269.86,-26.86 277.15,-19.17 266.66,-20.63 269.86,-26.86"/>
</a>
</g>
</g>
</g>
</svg>
