<?xml version="1.0" encoding="UTF-8" standalone="no"?>
<!DOCTYPE svg PUBLIC "-//W3C//DTD SVG 1.1//EN"
 "http://www.w3.org/Graphics/SVG/1.1/DTD/svg11.dtd">
<!-- Generated by graphviz version 2.43.0 (0)
 -->
<!-- Title: /home/user/project/src/util/methods.h Pages: 1 -->
<svg width="2205pt" height="407pt"
 viewBox="0.00 0.00 2205.06 407.00" xmlns="http://www.w3.org/2000/svg" xmlns:xlink="http://www.w3.org/1999/xlink">
<g id="graph0" class="graph" transform="scale(1 1) rotate(0) translate(4 403)">
<title>/home/user/project/src/util/methods.h</title>
<!-- Node1 -->
<g id="node1" class="node">
<title>Node1</title>
<g id="a_node1"><a xlink:title=" ">
<polygon fill="#bfbfbf" stroke="black" points="1203.06,-368.5 1203.06,-398.5 1301.06,-398.5 1301.06,-368.5 1203.06,-368.5"/>
<text text-anchor="start" x="1211.06" y="-386.5" font-family="Arial" font-size="10.00">/home/user/project</text>
<text text-anchor="middle" x="1252.06" y="-375.5" font-family="Arial" font-size="10.00">/src/util/methods.h</text>
</a>
</g>
</g>
<!-- Node2 -->
<g id="node2" class="node">
<title>Node2</title>
<g id="a_node2"><a xlink:href="apps_2twop_2main_8cpp.html" target="_top" xlink:title=" ">
<polygon fill="none" stroke="black" points="66.56,-73 66.56,-103 173.56,-103 173.56,-73 66.56,-73"/>
<text text-anchor="start" x="74.56" y="-91" font-family="Arial" font-size="10.00">/home/user/project</text>
<text text-anchor="middle" x="120.06" y="-80" font-family="Arial" font-size="10.00">/apps/twop/main.cpp</text>
</a>
</g>
</g>
<!-- Node1&#45;&gt;Node2 -->
<g id="edge1" class="edge">
<title>Node1&#45;&gt;Node2</title>
<path fill="none" stroke="midnightblue" d="M1192.53,-382.32C1028.54,-381.29 572.95,-374.56 430.06,-332 289.81,-290.23 167.42,-148.49 131.03,-103.1"/>
<polygon fill="midnightblue" stroke="midnightblue" points="1192.88,-385.83 1202.9,-382.38 1192.92,-378.83 1192.88,-385.83"/>
</g>
<!-- Node3 -->
<g id="node3" class="node">
<title>Node3</title>
<g id="a_node3"><a xlink:href="meshPartitioning_8cpp.html" target="_top" xlink:title=" ">
<polygon fill="none" stroke="black" points="1337.56,-296 1337.56,-326 1476.56,-326 1476.56,-296 1337.56,-296"/>
<text text-anchor="start" x="1345.56" y="-314" font-family="Arial" font-size="10.00">/home/user/project</text>
<text text-anchor="middle" x="1407.06" y="-303" font-family="Arial" font-size="10.00">/src/fe/meshPartitioning.cpp</text>
</a>
</g>
</g>
<!-- Node1&#45;&gt;Node3 -->
<g id="edge2" class="edge">
<title>Node1&#45;&gt;Node3</title>
<path fill="none" stroke="midnightblue" d="M1292.32,-364.19C1318.48,-352.29 1352.06,-337.02 1376.12,-326.07"/>
<polygon fill="midnightblue" stroke="midnightblue" points="1290.71,-361.08 1283.06,-368.4 1293.61,-367.45 1290.71,-361.08"/>
</g>
<!-- Node4 -->
<g id="node4" class="node">
<title>Node4</title>
<g id="a_node4"><a xlink:href="input_8cpp.html" target="_top" xlink:title=" ">
<polygon fill="none" stroke="black" points="1495.06,-296 1495.06,-326 1593.06,-326 1593.06,-296 1495.06,-296"/>
<text text-anchor="start" x="1503.06" y="-314" font-family="Arial" font-size="10.00">/home/user/project</text>
<text text-anchor="middle" x="1544.06" y="-303" font-family="Arial" font-size="10.00">/src/inp/input.cpp</text>
</a>
</g>
</g>
<!-- Node1&#45;&gt;Node4 -->
<g id="edge3" class="edge">
<title>Node1&#45;&gt;Node4</title>
<path fill="none" stroke="midnightblue" d="M1311.16,-371.77C1358.76,-362.65 1427.2,-348.44 1486.06,-332 1492.32,-330.25 1498.89,-328.2 1505.26,-326.09"/>
<polygon fill="midnightblue" stroke="midnightblue" points="1310.5,-368.34 1301.33,-373.64 1311.81,-375.21 1310.5,-368.34"/>
</g>
<!-- Node5 -->
<g id="node5" class="node">
<title>Node5</title>
<g id="a_node5"><a xlink:href="src_2main_8cpp.html" target="_top" xlink:title=" ">
<polygon fill="none" stroke="black" points="192.06,-73 192.06,-103 290.06,-103 290.06,-73 192.06,-73"/>
<text text-anchor="start" x="200.06" y="-91" font-family="Arial" font-size="10.00">/home/user/project</text>
<text text-anchor="middle" x="241.06" y="-80" font-family="Arial" font-size="10.00">/src/main.cpp</text>
</a>
</g>
</g>
<!-- Node1&#45;&gt;Node5 -->
<g id="edge4" class="edge">
<title>Node1&#45;&gt;Node5</title>
<path fill="none" stroke="midnightblue" d="M1192.74,-380.21C1099.85,-375.78 914.8,-363.51 761.06,-332 532.6,-285.17 417.65,-347.91 260.06,-176 241.67,-155.94 239.59,-122.34 240.08,-103.3"/>
<polygon fill="midnightblue" stroke="midnightblue" points="1192.64,-383.71 1202.79,-380.68 1192.96,-376.72 1192.64,-383.71"/>
</g>
<!-- Node6 -->
<g id="node6" class="node">
<title>Node6</title>
<g id="a_node6"><a xlink:href="demModel_8cpp.html" target="_top" xlink:title=" ">
<polygon fill="none" stroke="black" points="383.56,-0.5 383.56,-30.5 534.56,-30.5 534.56,-0.5 383.56,-0.5"/>
<text text-anchor="start" x="391.56" y="-18.5" font-family="Arial" font-size="10.00">/home/user/project</text>
<text text-anchor="middle" x="459.06" y="-7.5" font-family="Arial" font-size="10.00">/src/model/dem/demModel.cpp</text>
</a>
</g>
</g>
<!-- Node1&#45;&gt;Node6 -->
<g id="edge5" class="edge">
<title>Node1&#45;&gt;Node6</title>
<path fill="none" stroke="midnightblue" d="M1192.76,-381.27C1016.94,-377.32 500.48,-363.28 335.06,-332 198.48,-306.18 38.06,-373 38.06,-234 38.06,-234 38.06,-234 38.06,-159.5 38.06,-117.53 26.09,-95.32 57.06,-67 109.39,-19.16 303.87,-40.96 374.06,-31 377.17,-30.56 380.35,-30.09 383.55,-29.61"/>
<polygon fill="midnightblue" stroke="midnightblue" points="1192.78,-384.77 1202.86,-381.5 1192.94,-377.78 1192.78,-384.77"/>
</g>
<!-- Node7 -->
<g id="node7" class="node">
<title>Node7</title>
<g id="a_node7"><a xlink:href="nsearch_8h.html" target="_top" xlink:title=" ">
<polygon fill="none" stroke="black" points="1089.06,-296 1089.06,-326 1205.06,-326 1205.06,-296 1089.06,-296"/>
<text text-anchor="start" x="1097.06" y="-314" font-family="Arial" font-size="10.00">/home/user/project</text>
<text text-anchor="middle" x="1147.06" y="-303" font-family="Arial" font-size="10.00">/src/nsearch/nsearch.h</text>
</a>
</g>
</g>
<!-- Node1&#45;&gt;Node7 -->
<g id="edge6" class="edge">
<title>Node1&#45;&gt;Node7</title>
<path fill="none" stroke="midnightblue" d="M1222.43,-362.6C1205.09,-350.96 1183.61,-336.54 1168.02,-326.07"/>
<polygon fill="midnightblue" stroke="midnightblue" points="1220.81,-365.73 1231.07,-368.4 1224.71,-359.92 1220.81,-365.73"/>
</g>
<!-- Node11 -->
<g id="node11" class="node">
<title>Node11</title>
<g id="a_node11"><a xlink:href="testPeriDEMLib_8cpp.html" target="_top" xlink:title=" ">
<polygon fill="none" stroke="black" points="346.56,-67.5 346.56,-108.5 465.56,-108.5 465.56,-67.5 346.56,-67.5"/>
<text text-anchor="start" x="354.56" y="-96.5" font-family="Arial" font-size="10.00">/home/user/project</text>
<text text-anchor="start" x="354.56" y="-85.5" font-family="Arial" font-size="10.00">/test/test_exec/peridem</text>
<text text-anchor="middle" x="406.06" y="-74.5" font-family="Arial" font-size="10.00">/testPeriDEMLib.cpp</text>
</a>
</g>
</g>
<!-- Node1&#45;&gt;Node11 -->
<g id="edge54" class="edge">
<title>Node1&#45;&gt;Node11</title>
<path fill="none" stroke="midnightblue" d="M1192.41,-381.09C1115.85,-377.83 979.73,-367.11 869.06,-332 693.19,-276.2 504.73,-155.83 434.53,-108.59"/>
<polygon fill="midnightblue" stroke="midnightblue" points="1192.67,-384.6 1202.8,-381.5 1192.95,-377.61 1192.67,-384.6"/>
</g>
<!-- Node14 -->
<g id="node14" class="node">
<title>Node14</title>
<g id="a_node14"><a xlink:href="particle_8cpp.html" target="_top" xlink:title=" ">
<polygon fill="none" stroke="black" points="244.56,-0.5 244.56,-30.5 365.56,-30.5 365.56,-0.5 244.56,-0.5"/>
<text text-anchor="start" x="252.56" y="-18.5" font-family="Arial" font-size="10.00">/home/user/project</text>
<text text-anchor="middle" x="305.06" y="-7.5" font-family="Arial" font-size="10.00">/src/particle/particle.cpp</text>
</a>
</g>
</g>
<!-- Node1&#45;&gt;Node14 -->
<g id="edge45" class="edge">
<title>Node1&#45;&gt;Node14</title>
<path fill="none" stroke="midnightblue" d="M1192.96,-381.68C957.63,-378.2 97.5,-363.36 49.06,-332 8.18,-305.54 0.06,-282.7 0.06,-234 0.06,-234 0.06,-234 0.06,-159.5 0.06,-116 -0.92,-95.37 32.06,-67 63.21,-40.21 173.97,-26.7 244.47,-20.67"/>
<polygon fill="midnightblue" stroke="midnightblue" points="1192.99,-385.18 1203.04,-381.83 1193.09,-378.18 1192.99,-385.18"/>
</g>
<!-- Node21 -->
<g id="node21" class="node">
<title>Node21</title>
<g id="a_node21"><a xlink:href="vtkParticleReader_8cpp.html" target="_top" xlink:title=" ">
<polygon fill="none" stroke="black" points="1220.06,-0.5 1220.06,-30.5 1366.06,-30.5 1366.06,-0.5 1220.06,-0.5"/>
<text text-anchor="start" x="1228.06" y="-18.5" font-family="Arial" font-size="10.00">/home/user/project</text>
<text text-anchor="middle" x="1293.06" y="-7.5" font-family="Arial" font-size="10.00">/src/rw/vtkParticleReader.cpp</text>
</a>
</g>
</g>
<!-- Node1&#45;&gt;Node21 -->
<g id="edge46" class="edge">
<title>Node1&#45;&gt;Node21</title>
<path fill="none" stroke="midnightblue" d="M1192.71,-375.44C1070.92,-358.78 811.53,-310.72 902.06,-212 964.62,-143.77 1234.79,-218.43 1317.06,-176 1365.65,-150.94 1400.59,-114.8 1374.06,-67 1364.89,-50.48 1347.83,-38.66 1331.72,-30.63"/>
<polygon fill="midnightblue" stroke="midnightblue" points="1192.26,-378.92 1202.64,-376.78 1193.19,-371.98 1192.26,-378.92"/>
</g>
<!-- Node22 -->
<g id="node22" class="node">
<title>Node22</title>
<g id="a_node22"><a xlink:href="vtkParticleWriter_8cpp.html" target="_top" xlink:title=" ">
<polygon fill="none" stroke="black" points="1384.06,-0.5 1384.06,-30.5 1524.06,-30.5 1524.06,-0.5 1384.06,-0.5"/>
<text text-anchor="start" x="1392.06" y="-18.5" font-family="Arial" font-size="10.00">/home/user/project</text>
<text text-anchor="middle" x="1454.06" y="-7.5" font-family="Arial" font-size="10.00">/src/rw/vtkParticleWriter.cpp</text>
</a>
</g>
</g>
<!-- Node1&#45;&gt;Node22 -->
<g id="edge47" class="edge">
<title>Node1&#45;&gt;Node22</title>
<path fill="none" stroke="midnightblue" d="M1270.77,-360.77C1278.36,-351.89 1287.18,-341.5 1295.06,-332 1310.4,-313.52 1308.39,-302.22 1329.06,-290 1407.19,-243.83 1471.82,-323.6 1530.06,-254 1588.13,-184.61 1500.73,-70.22 1466.68,-30.56"/>
<polygon fill="midnightblue" stroke="midnightblue" points="1268.05,-358.56 1264.2,-368.43 1273.37,-363.11 1268.05,-358.56"/>
</g>
<!-- Node26 -->
<g id="node25" class="node">
<title>Node26</title>
<g id="a_node25"><a xlink:href="testFeLib_8cpp.html" target="_top" xlink:title=" ">
<polygon fill="none" stroke="black" points="1228.56,-218 1228.56,-248 1383.56,-248 1383.56,-218 1228.56,-218"/>
<text text-anchor="start" x="1236.56" y="-236" font-family="Arial" font-size="10.00">/home/user/project</text>
<text text-anchor="middle" x="1306.06" y="-225" font-family="Arial" font-size="10.00">/test/test_exec/fe/testFeLib.cpp</text>
</a>
</g>
</g>
<!-- Node1&#45;&gt;Node26 -->
<g id="edge50" class="edge">
<title>Node1&#45;&gt;Node26</title>
<path fill="none" stroke="midnightblue" d="M1249.16,-358.37C1247.83,-339.14 1248.15,-311.89 1257.06,-290 1263.78,-273.49 1277.49,-258.5 1288.71,-248.2"/>
<polygon fill="midnightblue" stroke="midnightblue" points="1245.68,-358.76 1250.06,-368.41 1252.66,-358.14 1245.68,-358.76"/>
</g>
<!-- Node27 -->
<g id="node26" class="node">
<title>Node27</title>
<g id="a_node26"><a xlink:href="testNSearchLib_8cpp.html" target="_top" xlink:title=" ">
<polygon fill="none" stroke="black" points="1401.56,-212.5 1401.56,-253.5 1520.56,-253.5 1520.56,-212.5 1401.56,-212.5"/>
<text text-anchor="start" x="1409.56" y="-241.5" font-family="Arial" font-size="10.00">/home/user/project</text>
<text text-anchor="start" x="1409.56" y="-230.5" font-family="Arial" font-size="10.00">/test/test_exec/nsearch</text>
<text text-anchor="middle" x="1461.06" y="-219.5" font-family="Arial" font-size="10.00">/testNSearchLib.cpp</text>
</a>
</g>
</g>
<!-- Node1&#45;&gt;Node27 -->
<g id="edge52" class="edge">
<title>Node1&#45;&gt;Node27</title>
<path fill="none" stroke="midnightblue" d="M1257.53,-358.46C1263.44,-337.64 1274.86,-308.09 1295.06,-290 1303.42,-282.52 1357.25,-265.07 1401.38,-251.62"/>
<polygon fill="midnightblue" stroke="midnightblue" points="1254.13,-357.61 1254.98,-368.17 1260.9,-359.38 1254.13,-357.61"/>
</g>
<!-- Node28 -->
<g id="node27" class="node">
<title>Node28</title>
<g id="a_node27"><a xlink:href="geomObjects_8cpp.html" target="_top" xlink:title=" ">
<polygon fill="none" stroke="black" points="1611.06,-296 1611.06,-326 1739.06,-326 1739.06,-296 1611.06,-296"/>
<text text-anchor="start" x="1619.06" y="-314" font-family="Arial" font-size="10.00">/home/user/project</text>
<text text-anchor="middle" x="1675.06" y="-303" font-family="Arial" font-size="10.00">/src/util/geomObjects.cpp</text>
</a>
</g>
</g>
<!-- Node1&#45;&gt;Node28 -->
<g id="edge48" class="edge">
<title>Node1&#45;&gt;Node28</title>
<path fill="none" stroke="midnightblue" d="M1311.03,-376.26C1380.91,-368.33 1500.67,-353.12 1602.06,-332 1610.17,-330.31 1618.7,-328.24 1626.97,-326.08"/>
<polygon fill="midnightblue" stroke="midnightblue" points="1310.64,-372.78 1301.09,-377.37 1311.42,-379.73 1310.64,-372.78"/>
</g>
<!-- Node29 -->
<g id="node28" class="node">
<title>Node29</title>
<g id="a_node28"><a xlink:href="methods_8cpp.html" target="_top" xlink:title=" ">
<polygon fill="none" stroke="black" points="1757.06,-296 1757.06,-326 1865.06,-326 1865.06,-296 1757.06,-296"/>
<text text-anchor="start" x="1765.06" y="-314" font-family="Arial" font-size="10.00">/home/user/project</text>
<text text-anchor="middle" x="1811.06" y="-303" font-family="Arial" font-size="10.00">/src/util/methods.cpp</text>
</a>
</g>
</g>
<!-- Node1&#45;&gt;Node29 -->
<g id="edge49" class="edge">
<title>Node1&#45;&gt;Node29</title>
<path fill="none" stroke="midnightblue" d="M1311.27,-380.41C1404.89,-376.23 1592.44,-364.26 1748.06,-332 1755.59,-330.44 1763.49,-328.33 1771.06,-326.06"/>
<polygon fill="midnightblue" stroke="midnightblue" points="1310.99,-376.92 1301.15,-380.85 1311.29,-383.91 1310.99,-376.92"/>
</g>
<!-- Node30 -->
<g id="node29" class="node">
<title>Node30</title>
<g id="a_node29"><a xlink:href="testMeshPartitioningLib_8cpp.html" target="_top" xlink:title=" ">
<polygon fill="none" stroke="black" points="1883.06,-290.5 1883.06,-331.5 2039.06,-331.5 2039.06,-290.5 1883.06,-290.5"/>
<text text-anchor="start" x="1891.06" y="-319.5" font-family="Arial" font-size="10.00">/home/user/project</text>
<text text-anchor="start" x="1891.06" y="-308.5" font-family="Arial" font-size="10.00">/test/test_exec/meshpartitioning</text>
<text text-anchor="middle" x="1961.06" y="-297.5" font-family="Arial" font-size="10.00">/testMeshPartitioningLib.cpp</text>
</a>
</g>
</g>
<!-- Node1&#45;&gt;Node30 -->
<g id="edge51" class="edge">
<title>Node1&#45;&gt;Node30</title>
<path fill="none" stroke="midnightblue" d="M1311.45,-380.54C1422.51,-376.25 1668.95,-363.73 1874.06,-332 1876.97,-331.55 1879.93,-331.06 1882.91,-330.53"/>
<polygon fill="midnightblue" stroke="midnightblue" points="1310.99,-377.06 1301.13,-380.93 1311.26,-384.05 1310.99,-377.06"/>
</g>
<!-- Node31 -->
<g id="node30" class="node">
<title>Node31</title>
<g id="a_node30"><a xlink:href="testParallelCompLib_8cpp.html" target="_top" xlink:title=" ">
<polygon fill="none" stroke="black" points="2057.06,-290.5 2057.06,-331.5 2197.06,-331.5 2197.06,-290.5 2057.06,-290.5"/>
<text text-anchor="start" x="2065.06" y="-319.5" font-family="Arial" font-size="10.00">/home/user/project</text>
<text text-anchor="start" x="2065.06" y="-308.5" font-family="Arial" font-size="10.00">/test/test_exec/parallelcomp</text>
<text text-anchor="middle" x="2127.06" y="-297.5" font-family="Arial" font-size="10.00">/testParallelCompLib.cpp</text>
</a>
</g>
</g>
<!-- Node1&#45;&gt;Node31 -->
<g id="edge53" class="edge">
<title>Node1&#45;&gt;Node31</title>
<path fill="none" stroke="midnightblue" d="M1311.68,-382.46C1444.68,-381.56 1775.35,-374.79 2048.06,-332 2051,-331.54 2053.98,-331.02 2056.99,-330.45"/>
<polygon fill="midnightblue" stroke="midnightblue" points="1311.3,-378.96 1301.32,-382.52 1311.34,-385.96 1311.3,-378.96"/>
</g>
<!-- Node8 -->
<g id="node8" class="node">
<title>Node8</title>
<g id="a_node8"><a xlink:href="geometryUtil_8cpp.html" target="_top" xlink:title=" ">
<polygon fill="none" stroke="black" points="911.06,-218 911.06,-248 1065.06,-248 1065.06,-218 911.06,-218"/>
<text text-anchor="start" x="919.06" y="-236" font-family="Arial" font-size="10.00">/home/user/project</text>
<text text-anchor="middle" x="988.06" y="-225" font-family="Arial" font-size="10.00">/src/geometry/geometryUtil.cpp</text>
</a>
</g>
</g>
<!-- Node7&#45;&gt;Node8 -->
<g id="edge7" class="edge">
<title>Node7&#45;&gt;Node8</title>
<path fill="none" stroke="midnightblue" d="M1108.41,-291.52C1080.38,-278.13 1043.05,-260.28 1017.44,-248.04"/>
<polygon fill="midnightblue" stroke="midnightblue" points="1107,-294.73 1117.53,-295.88 1110.01,-288.41 1107,-294.73"/>
</g>
<!-- Node9 -->
<g id="node9" class="node">
<title>Node9</title>
<g id="a_node9"><a xlink:href="modelData_8h.html" target="_top" xlink:title=" ">
<polygon fill="none" stroke="black" points="733.56,-218 733.56,-248 854.56,-248 854.56,-218 733.56,-218"/>
<text text-anchor="start" x="741.56" y="-236" font-family="Arial" font-size="10.00">/home/user/project</text>
<text text-anchor="middle" x="794.06" y="-225" font-family="Arial" font-size="10.00">/src/model/modelData.h</text>
</a>
</g>
</g>
<!-- Node7&#45;&gt;Node9 -->
<g id="edge8" class="edge">
<title>Node7&#45;&gt;Node9</title>
<path fill="none" stroke="midnightblue" d="M1078.63,-295.27C1013.71,-281.29 917.07,-260.48 854.81,-247.08"/>
<polygon fill="midnightblue" stroke="midnightblue" points="1078.26,-298.77 1088.77,-297.45 1079.73,-291.92 1078.26,-298.77"/>
</g>
<!-- Node25 -->
<g id="node24" class="node">
<title>Node25</title>
<g id="a_node24"><a xlink:href="nsearch_8cpp.html" target="_top" xlink:title=" ">
<polygon fill="none" stroke="black" points="1083.56,-218 1083.56,-248 1210.56,-248 1210.56,-218 1083.56,-218"/>
<text text-anchor="start" x="1091.56" y="-236" font-family="Arial" font-size="10.00">/home/user/project</text>
<text text-anchor="middle" x="1147.06" y="-225" font-family="Arial" font-size="10.00">/src/nsearch/nsearch.cpp</text>
</a>
</g>
</g>
<!-- Node7&#45;&gt;Node25 -->
<g id="edge42" class="edge">
<title>Node7&#45;&gt;Node25</title>
<path fill="none" stroke="midnightblue" d="M1147.06,-285.59C1147.06,-273.26 1147.06,-258.72 1147.06,-248.23"/>
<polygon fill="midnightblue" stroke="midnightblue" points="1143.56,-285.7 1147.06,-295.7 1150.56,-285.71 1143.56,-285.7"/>
</g>
<!-- Node7&#45;&gt;Node26 -->
<g id="edge43" class="edge">
<title>Node7&#45;&gt;Node26</title>
<path fill="none" stroke="midnightblue" d="M1185.71,-291.52C1213.74,-278.13 1251.08,-260.28 1276.69,-248.04"/>
<polygon fill="midnightblue" stroke="midnightblue" points="1184.11,-288.41 1176.6,-295.88 1187.13,-294.73 1184.11,-288.41"/>
</g>
<!-- Node7&#45;&gt;Node27 -->
<g id="edge44" class="edge">
<title>Node7&#45;&gt;Node27</title>
<path fill="none" stroke="midnightblue" d="M1215.42,-295.63C1264.94,-284.94 1333.38,-269.55 1393.06,-254 1395.8,-253.29 1398.6,-252.54 1401.42,-251.77"/>
<polygon fill="midnightblue" stroke="midnightblue" points="1214.5,-292.25 1205.46,-297.78 1215.98,-299.09 1214.5,-292.25"/>
</g>
<!-- Node10 -->
<g id="node10" class="node">
<title>Node10</title>
<g id="a_node10"><a xlink:href="demModel_8h.html" target="_top" xlink:title=" ">
<polygon fill="none" stroke="black" points="269.06,-145.5 269.06,-175.5 409.06,-175.5 409.06,-145.5 269.06,-145.5"/>
<text text-anchor="start" x="277.06" y="-163.5" font-family="Arial" font-size="10.00">/home/user/project</text>
<text text-anchor="middle" x="339.06" y="-152.5" font-family="Arial" font-size="10.00">/src/model/dem/demModel.h</text>
</a>
</g>
</g>
<!-- Node9&#45;&gt;Node10 -->
<g id="edge9" class="edge">
<title>Node9&#45;&gt;Node10</title>
<path fill="none" stroke="midnightblue" d="M723.28,-221.03C637.72,-207.78 494.61,-185.6 409.29,-172.38"/>
<polygon fill="midnightblue" stroke="midnightblue" points="722.75,-224.49 733.17,-222.57 723.82,-217.58 722.75,-224.49"/>
</g>
<!-- Node12 -->
<g id="node12" class="node">
<title>Node12</title>
<g id="a_node12"><a xlink:href="materialUtil_8h.html" target="_top" xlink:title=" ">
<polygon fill="none" stroke="black" points="483.56,-73 483.56,-103 614.56,-103 614.56,-73 483.56,-73"/>
<text text-anchor="start" x="491.56" y="-91" font-family="Arial" font-size="10.00">/home/user/project</text>
<text text-anchor="middle" x="549.06" y="-80" font-family="Arial" font-size="10.00">/src/material/materialUtil.h</text>
</a>
</g>
</g>
<!-- Node9&#45;&gt;Node12 -->
<g id="edge14" class="edge">
<title>Node9&#45;&gt;Node12</title>
<path fill="none" stroke="midnightblue" d="M746.9,-214.11C722.45,-204.11 692.46,-190.72 667.06,-176 628.75,-153.79 588,-121.58 565.83,-103.22"/>
<polygon fill="midnightblue" stroke="midnightblue" points="745.74,-217.41 756.33,-217.9 748.36,-210.92 745.74,-217.41"/>
</g>
<!-- Node16 -->
<g id="node16" class="node">
<title>Node16</title>
<g id="a_node16"><a xlink:href="modelData_8cpp.html" target="_top" xlink:title=" ">
<polygon fill="none" stroke="black" points="838.56,-0.5 838.56,-30.5 969.56,-30.5 969.56,-0.5 838.56,-0.5"/>
<text text-anchor="start" x="846.56" y="-18.5" font-family="Arial" font-size="10.00">/home/user/project</text>
<text text-anchor="middle" x="904.06" y="-7.5" font-family="Arial" font-size="10.00">/src/model/modelData.cpp</text>
</a>
</g>
</g>
<!-- Node9&#45;&gt;Node16 -->
<g id="edge19" class="edge">
<title>Node9&#45;&gt;Node16</title>
<path fill="none" stroke="midnightblue" d="M767.01,-211.48C727.53,-179.05 662.69,-114.75 700.06,-67 704.5,-61.33 781.17,-43.42 839.22,-30.54"/>
<polygon fill="midnightblue" stroke="midnightblue" points="765.02,-214.37 775.01,-217.9 769.4,-208.91 765.02,-214.37"/>
</g>
<!-- Node17 -->
<g id="node17" class="node">
<title>Node17</title>
<g id="a_node17"><a xlink:href="baseParticle_8h.html" target="_top" xlink:title=" ">
<polygon fill="none" stroke="black" points="896.56,-145.5 896.56,-175.5 1029.56,-175.5 1029.56,-145.5 896.56,-145.5"/>
<text text-anchor="start" x="904.56" y="-163.5" font-family="Arial" font-size="10.00">/home/user/project</text>
<text text-anchor="middle" x="963.06" y="-152.5" font-family="Arial" font-size="10.00">/src/particle/baseParticle.h</text>
</a>
</g>
</g>
<!-- Node9&#45;&gt;Node17 -->
<g id="edge20" class="edge">
<title>Node9&#45;&gt;Node17</title>
<path fill="none" stroke="midnightblue" d="M837.21,-214C865.84,-202.06 902.86,-186.61 929.33,-175.57"/>
<polygon fill="midnightblue" stroke="midnightblue" points="835.74,-210.82 827.85,-217.9 838.43,-217.28 835.74,-210.82"/>
</g>
<!-- Node9&#45;&gt;Node21 -->
<g id="edge40" class="edge">
<title>Node9&#45;&gt;Node21</title>
<path fill="none" stroke="midnightblue" d="M854.97,-215.47C859.73,-214.27 864.47,-213.1 869.06,-212 1084.67,-160.54 1217.44,-281.17 1357.06,-109 1368.82,-94.5 1365.2,-83.8 1357.06,-67 1349.47,-51.33 1334.4,-39.06 1320.79,-30.54"/>
<polygon fill="midnightblue" stroke="midnightblue" points="854.02,-212.1 845.21,-217.98 855.76,-218.88 854.02,-212.1"/>
</g>
<!-- Node9&#45;&gt;Node22 -->
<g id="edge41" class="edge">
<title>Node9&#45;&gt;Node22</title>
<path fill="none" stroke="midnightblue" d="M864.6,-217.92C877.05,-215.73 889.91,-213.65 902.06,-212 993.79,-199.56 1234.69,-218.24 1317.06,-176 1382.35,-142.52 1429.57,-63.29 1446.85,-30.79"/>
<polygon fill="midnightblue" stroke="midnightblue" points="863.95,-214.49 854.73,-219.7 865.19,-221.37 863.95,-214.49"/>
</g>
<!-- Node24 -->
<g id="node23" class="node">
<title>Node24</title>
<g id="a_node23"><a xlink:href="wall_8h.html" target="_top" xlink:title=" ">
<polygon fill="none" stroke="black" points="837.06,-73 837.06,-103 935.06,-103 935.06,-73 837.06,-73"/>
<text text-anchor="start" x="845.06" y="-91" font-family="Arial" font-size="10.00">/home/user/project</text>
<text text-anchor="middle" x="886.06" y="-80" font-family="Arial" font-size="10.00">/src/particle/wall.h</text>
</a>
</g>
</g>
<!-- Node9&#45;&gt;Node24 -->
<g id="edge39" class="edge">
<title>Node9&#45;&gt;Node24</title>
<path fill="none" stroke="midnightblue" d="M808.69,-209.26C827.89,-179.43 860.99,-127.98 876.94,-103.18"/>
<polygon fill="midnightblue" stroke="midnightblue" points="805.69,-207.46 803.22,-217.77 811.57,-211.25 805.69,-207.46"/>
</g>
<!-- Node10&#45;&gt;Node2 -->
<g id="edge10" class="edge">
<title>Node10&#45;&gt;Node2</title>
<path fill="none" stroke="midnightblue" d="M285.81,-142.36C248.42,-130.32 199,-114.41 163.88,-103.11"/>
<polygon fill="midnightblue" stroke="midnightblue" points="284.94,-145.75 295.53,-145.49 287.09,-139.09 284.94,-145.75"/>
</g>
<!-- Node10&#45;&gt;Node5 -->
<g id="edge11" class="edge">
<title>Node10&#45;&gt;Node5</title>
<path fill="none" stroke="midnightblue" d="M310.72,-139.11C294.62,-127.53 274.88,-113.33 260.53,-103"/>
<polygon fill="midnightblue" stroke="midnightblue" points="309.07,-142.23 319.23,-145.23 313.16,-136.55 309.07,-142.23"/>
</g>
<!-- Node10&#45;&gt;Node6 -->
<g id="edge12" class="edge">
<title>Node10&#45;&gt;Node6</title>
<path fill="none" stroke="midnightblue" d="M331.43,-135.37C326.66,-115.36 323.67,-87.04 337.06,-67 348.78,-49.47 367.83,-38.01 387.43,-30.53"/>
<polygon fill="midnightblue" stroke="midnightblue" points="328.12,-136.52 334.09,-145.26 334.88,-134.7 328.12,-136.52"/>
</g>
<!-- Node10&#45;&gt;Node11 -->
<g id="edge13" class="edge">
<title>Node10&#45;&gt;Node11</title>
<path fill="none" stroke="midnightblue" d="M359.66,-137.82C368.53,-128.49 378.81,-117.67 387.45,-108.59"/>
<polygon fill="midnightblue" stroke="midnightblue" points="356.97,-135.57 352.62,-145.23 362.05,-140.4 356.97,-135.57"/>
</g>
<!-- Node12&#45;&gt;Node6 -->
<g id="edge16" class="edge">
<title>Node12&#45;&gt;Node6</title>
<path fill="none" stroke="midnightblue" d="M522.62,-66.29C507.91,-54.77 490,-40.73 476.94,-30.5"/>
<polygon fill="midnightblue" stroke="midnightblue" points="520.82,-69.32 530.85,-72.73 525.13,-63.81 520.82,-69.32"/>
</g>
<!-- Node13 -->
<g id="node13" class="node">
<title>Node13</title>
<g id="a_node13"><a xlink:href="materialUtil_8cpp.html" target="_top" xlink:title=" ">
<polygon fill="none" stroke="black" points="553.06,-0.5 553.06,-30.5 695.06,-30.5 695.06,-0.5 553.06,-0.5"/>
<text text-anchor="start" x="561.06" y="-18.5" font-family="Arial" font-size="10.00">/home/user/project</text>
<text text-anchor="middle" x="624.06" y="-7.5" font-family="Arial" font-size="10.00">/src/material/materialUtil.cpp</text>
</a>
</g>
</g>
<!-- Node12&#45;&gt;Node13 -->
<g id="edge15" class="edge">
<title>Node12&#45;&gt;Node13</title>
<path fill="none" stroke="midnightblue" d="M571.79,-65.64C583.91,-54.24 598.49,-40.54 609.16,-30.5"/>
<polygon fill="midnightblue" stroke="midnightblue" points="569.13,-63.33 564.24,-72.73 573.92,-68.43 569.13,-63.33"/>
</g>
<!-- Node12&#45;&gt;Node14 -->
<g id="edge17" class="edge">
<title>Node12&#45;&gt;Node14</title>
<path fill="none" stroke="midnightblue" d="M490.8,-70.16C449.01,-58.09 393.35,-42.01 353.89,-30.61"/>
<polygon fill="midnightblue" stroke="midnightblue" points="489.98,-73.57 500.56,-72.99 491.93,-66.85 489.98,-73.57"/>
</g>
<!-- Node15 -->
<g id="node15" class="node">
<title>Node15</title>
<g id="a_node15"><a xlink:href="wall_8cpp.html" target="_top" xlink:title=" ">
<polygon fill="none" stroke="black" points="713.56,-0.5 713.56,-30.5 820.56,-30.5 820.56,-0.5 713.56,-0.5"/>
<text text-anchor="start" x="721.56" y="-18.5" font-family="Arial" font-size="10.00">/home/user/project</text>
<text text-anchor="middle" x="767.06" y="-7.5" font-family="Arial" font-size="10.00">/src/particle/wall.cpp</text>
</a>
</g>
</g>
<!-- Node12&#45;&gt;Node15 -->
<g id="edge18" class="edge">
<title>Node12&#45;&gt;Node15</title>
<path fill="none" stroke="midnightblue" d="M602.07,-69.86C639.29,-57.82 688.48,-41.91 723.44,-30.61"/>
<polygon fill="midnightblue" stroke="midnightblue" points="600.83,-66.58 592.39,-72.99 602.98,-73.24 600.83,-66.58"/>
</g>
<!-- Node17&#45;&gt;Node13 -->
<g id="edge23" class="edge">
<title>Node17&#45;&gt;Node13</title>
<path fill="none" stroke="midnightblue" d="M886.44,-158.42C831.19,-154.53 756.68,-142.66 700.06,-109 667.72,-89.78 643.12,-51.5 631.48,-30.72"/>
<polygon fill="midnightblue" stroke="midnightblue" points="886.32,-161.92 896.52,-159.06 886.76,-154.93 886.32,-161.92"/>
</g>
<!-- Node17&#45;&gt;Node16 -->
<g id="edge24" class="edge">
<title>Node17&#45;&gt;Node16</title>
<path fill="none" stroke="midnightblue" d="M961.2,-135.34C959,-116.09 954.24,-88.84 944.06,-67 937.73,-53.42 927.07,-40.22 918.34,-30.72"/>
<polygon fill="midnightblue" stroke="midnightblue" points="957.72,-135.79 962.2,-145.39 964.69,-135.09 957.72,-135.79"/>
</g>
<!-- Node18 -->
<g id="node18" class="node">
<title>Node18</title>
<g id="a_node18"><a xlink:href="particleFLoading_8cpp.html" target="_top" xlink:title=" ">
<polygon fill="none" stroke="black" points="991.06,-73 991.06,-103 1151.06,-103 1151.06,-73 991.06,-73"/>
<text text-anchor="start" x="999.06" y="-91" font-family="Arial" font-size="10.00">/home/user/project</text>
<text text-anchor="middle" x="1071.06" y="-80" font-family="Arial" font-size="10.00">/src/loading/particleFLoading.cpp</text>
</a>
</g>
</g>
<!-- Node17&#45;&gt;Node18 -->
<g id="edge21" class="edge">
<title>Node17&#45;&gt;Node18</title>
<path fill="none" stroke="midnightblue" d="M993.05,-139.92C1010.97,-128.22 1033.32,-113.63 1049.5,-103.07"/>
<polygon fill="midnightblue" stroke="midnightblue" points="991.12,-137.01 984.66,-145.4 994.94,-142.87 991.12,-137.01"/>
</g>
<!-- Node19 -->
<g id="node19" class="node">
<title>Node19</title>
<g id="a_node19"><a xlink:href="particleULoading_8cpp.html" target="_top" xlink:title=" ">
<polygon fill="none" stroke="black" points="1169.56,-73 1169.56,-103 1330.56,-103 1330.56,-73 1169.56,-73"/>
<text text-anchor="start" x="1177.56" y="-91" font-family="Arial" font-size="10.00">/home/user/project</text>
<text text-anchor="middle" x="1250.06" y="-80" font-family="Arial" font-size="10.00">/src/loading/particleULoading.cpp</text>
</a>
</g>
</g>
<!-- Node17&#45;&gt;Node19 -->
<g id="edge22" class="edge">
<title>Node17&#45;&gt;Node19</title>
<path fill="none" stroke="midnightblue" d="M1030.05,-143.05C1079.37,-130.93 1145.73,-114.63 1192.63,-103.11"/>
<polygon fill="midnightblue" stroke="midnightblue" points="1028.98,-139.7 1020.11,-145.49 1030.65,-146.5 1028.98,-139.7"/>
</g>
<!-- Node20 -->
<g id="node20" class="node">
<title>Node20</title>
<g id="a_node20"><a xlink:href="particle_8h.html" target="_top" xlink:title=" ">
<polygon fill="none" stroke="red" points="709.06,-73 709.06,-103 819.06,-103 819.06,-73 709.06,-73"/>
<text text-anchor="start" x="717.06" y="-91" font-family="Arial" font-size="10.00">/home/user/project</text>
<text text-anchor="middle" x="764.06" y="-80" font-family="Arial" font-size="10.00">/src/particle/particle.h</text>
</a>
</g>
</g>
<!-- Node17&#45;&gt;Node20 -->
<g id="edge25" class="edge">
<title>Node17&#45;&gt;Node20</title>
<path fill="none" stroke="midnightblue" d="M913.56,-141.96C879.69,-129.96 835.36,-114.26 803.78,-103.07"/>
<polygon fill="midnightblue" stroke="midnightblue" points="912.67,-145.36 923.27,-145.4 915.01,-138.76 912.67,-145.36"/>
</g>
<!-- Node17&#45;&gt;Node21 -->
<g id="edge37" class="edge">
<title>Node17&#45;&gt;Node21</title>
<path fill="none" stroke="midnightblue" d="M1039.94,-154.55C1144.44,-147.03 1320.62,-131.21 1340.06,-109 1352.35,-94.95 1346.89,-84.37 1340.06,-67 1334.36,-52.51 1322.33,-39.71 1311.87,-30.63"/>
<polygon fill="midnightblue" stroke="midnightblue" points="1039.47,-151.08 1029.75,-155.28 1039.97,-158.06 1039.47,-151.08"/>
</g>
<!-- Node17&#45;&gt;Node22 -->
<g id="edge38" class="edge">
<title>Node17&#45;&gt;Node22</title>
<path fill="none" stroke="midnightblue" d="M1039.98,-155.33C1138.37,-149.03 1302.57,-134.96 1357.06,-109 1395.3,-90.79 1428.19,-51.72 1444.02,-30.65"/>
<polygon fill="midnightblue" stroke="midnightblue" points="1039.55,-151.85 1029.79,-155.97 1039.99,-158.84 1039.55,-151.85"/>
</g>
<!-- Node17&#45;&gt;Node24 -->
<g id="edge31" class="edge">
<title>Node17&#45;&gt;Node24</title>
<path fill="none" stroke="midnightblue" d="M940.09,-138.46C927.57,-127 912.42,-113.14 901.36,-103"/>
<polygon fill="midnightblue" stroke="midnightblue" points="937.74,-141.06 947.48,-145.23 942.47,-135.9 937.74,-141.06"/>
</g>
<!-- Node20&#45;&gt;Node6 -->
<g id="edge26" class="edge">
<title>Node20&#45;&gt;Node6</title>
<path fill="none" stroke="midnightblue" d="M698.84,-71.92C645.76,-59.66 571.42,-42.47 519.63,-30.5"/>
<polygon fill="midnightblue" stroke="midnightblue" points="698.3,-75.39 708.83,-74.23 699.87,-68.57 698.3,-75.39"/>
</g>
<!-- Node20&#45;&gt;Node14 -->
<g id="edge28" class="edge">
<title>Node20&#45;&gt;Node14</title>
<path fill="none" stroke="midnightblue" d="M698.87,-77.69C589.94,-62.14 382,-32.4 374.06,-31 371.29,-30.51 368.46,-29.99 365.6,-29.45"/>
<polygon fill="midnightblue" stroke="midnightblue" points="698.38,-81.16 708.77,-79.11 699.36,-74.23 698.38,-81.16"/>
</g>
<!-- Node20&#45;&gt;Node16 -->
<g id="edge27" class="edge">
<title>Node20&#45;&gt;Node16</title>
<path fill="none" stroke="midnightblue" d="M801.05,-68.37C824.58,-56.52 854.57,-41.42 876.12,-30.57"/>
<polygon fill="midnightblue" stroke="midnightblue" points="799.41,-65.28 792.06,-72.9 802.56,-71.53 799.41,-65.28"/>
</g>
<!-- Node20&#45;&gt;Node21 -->
<g id="edge29" class="edge">
<title>Node20&#45;&gt;Node21</title>
<path fill="none" stroke="midnightblue" d="M814.57,-70.22C819.1,-69.02 823.65,-67.92 828.06,-67 964.79,-38.49 1127.7,-25.5 1219.89,-20.04"/>
<polygon fill="midnightblue" stroke="midnightblue" points="813.4,-66.92 804.72,-73 815.29,-73.66 813.4,-66.92"/>
</g>
<!-- Node20&#45;&gt;Node22 -->
<g id="edge30" class="edge">
<title>Node20&#45;&gt;Node22</title>
<path fill="none" stroke="midnightblue" d="M813.75,-70.22C818.55,-68.98 823.37,-67.87 828.06,-67 1067.57,-22.35 1133.28,-61.04 1375.06,-31 1377.97,-30.64 1380.93,-30.24 1383.92,-29.81"/>
<polygon fill="midnightblue" stroke="midnightblue" points="812.68,-66.89 803.98,-72.93 814.55,-73.63 812.68,-66.89"/>
</g>
<!-- Node24&#45;&gt;Node6 -->
<g id="edge32" class="edge">
<title>Node24&#45;&gt;Node6</title>
<path fill="none" stroke="midnightblue" d="M839.15,-69.92C835.43,-68.84 831.7,-67.85 828.06,-67 704.15,-38.11 669.91,-49.7 544.06,-31 540.95,-30.54 537.78,-30.05 534.58,-29.56"/>
<polygon fill="midnightblue" stroke="midnightblue" points="838.36,-73.34 848.95,-72.94 840.43,-66.65 838.36,-73.34"/>
</g>
<!-- Node24&#45;&gt;Node15 -->
<g id="edge34" class="edge">
<title>Node24&#45;&gt;Node15</title>
<path fill="none" stroke="midnightblue" d="M853.55,-67.74C833.72,-55.99 808.8,-41.23 790.82,-30.57"/>
<polygon fill="midnightblue" stroke="midnightblue" points="851.88,-70.82 862.27,-72.9 855.45,-64.79 851.88,-70.82"/>
</g>
<!-- Node24&#45;&gt;Node16 -->
<g id="edge33" class="edge">
<title>Node24&#45;&gt;Node16</title>
<path fill="none" stroke="midnightblue" d="M892.26,-62.73C894.98,-52.07 898.08,-39.91 900.42,-30.75"/>
<polygon fill="midnightblue" stroke="midnightblue" points="888.79,-62.18 889.7,-72.73 895.57,-63.91 888.79,-62.18"/>
</g>
<!-- Node24&#45;&gt;Node21 -->
<g id="edge35" class="edge">
<title>Node24&#45;&gt;Node21</title>
<path fill="none" stroke="midnightblue" d="M945.34,-74.22C957.47,-71.73 970.16,-69.2 982.06,-67 1063.28,-51.95 1156.89,-37.09 1220.01,-27.42"/>
<polygon fill="midnightblue" stroke="midnightblue" points="944.39,-70.84 935.31,-76.3 945.81,-77.7 944.39,-70.84"/>
</g>
<!-- Node24&#45;&gt;Node22 -->
<g id="edge36" class="edge">
<title>Node24&#45;&gt;Node22</title>
<path fill="none" stroke="midnightblue" d="M945.23,-73.57C957.37,-71.13 970.09,-68.79 982.06,-67 1155.53,-41.07 1201.29,-54.86 1375.06,-31 1377.96,-30.6 1380.92,-30.17 1383.9,-29.72"/>
<polygon fill="midnightblue" stroke="midnightblue" points="944.29,-70.19 935.2,-75.64 945.7,-77.05 944.29,-70.19"/>
</g>
</g>
</svg>
