<?xml version="1.0" encoding="UTF-8" standalone="no"?>
<!DOCTYPE svg PUBLIC "-//W3C//DTD SVG 1.1//EN"
 "http://www.w3.org/Graphics/SVG/1.1/DTD/svg11.dtd">
<!-- Generated by graphviz version 2.43.0 (0)
 -->
<!-- Title: /home/user/project/src/util/methods.h Pages: 1 -->
<svg width="354pt" height="151pt"
 viewBox="0.00 0.00 354.00 151.00" xmlns="http://www.w3.org/2000/svg" xmlns:xlink="http://www.w3.org/1999/xlink">
<g id="graph0" class="graph" transform="scale(1 1) rotate(0) translate(4 147)">
<title>/home/user/project/src/util/methods.h</title>
<!-- Node1 -->
<g id="node1" class="node">
<title>Node1</title>
<g id="a_node1"><a xlink:title=" ">
<polygon fill="#bfbfbf" stroke="black" points="223,-112.5 223,-142.5 321,-142.5 321,-112.5 223,-112.5"/>
<text text-anchor="start" x="231" y="-130.5" font-family="Arial" font-size="10.00">/home/user/project</text>
<text text-anchor="middle" x="272" y="-119.5" font-family="Arial" font-size="10.00">/src/util/methods.h</text>
</a>
</g>
</g>
<!-- Node2 -->
<g id="node2" class="node">
<title>Node2</title>
<g id="a_node2"><a xlink:href="point_8h.html" target="_top" xlink:title=" ">
<polygon fill="none" stroke="black" points="155,-56.5 155,-75.5 201,-75.5 201,-56.5 155,-56.5"/>
<text text-anchor="middle" x="178" y="-63.5" font-family="Arial" font-size="10.00">point.h</text>
</a>
</g>
</g>
<!-- Node1&#45;&gt;Node2 -->
<g id="edge1" class="edge">
<title>Node1&#45;&gt;Node2</title>
<path fill="none" stroke="midnightblue" d="M249.72,-112.4C234.8,-102.95 215.22,-90.56 200.29,-81.11"/>
<polygon fill="midnightblue" stroke="midnightblue" points="202,-78.05 191.68,-75.66 198.26,-83.96 202,-78.05"/>
</g>
<!-- Node7 -->
<g id="node7" class="node">
<title>Node7</title>
<g id="a_node7"><a xlink:title=" ">
<polygon fill="none" stroke="#bfbfbf" points="272,-0.5 272,-19.5 316,-19.5 316,-0.5 272,-0.5"/>
<text text-anchor="middle" x="294" y="-7.5" font-family="Arial" font-size="10.00">vector</text>
</a>
</g>
</g>
<!-- Node1&#45;&gt;Node7 -->
<g id="edge7" class="edge">
<title>Node1&#45;&gt;Node7</title>
<path fill="none" stroke="midnightblue" d="M274.7,-112.34C278.66,-91.53 286.06,-52.66 290.46,-29.58"/>
<polygon fill="midnightblue" stroke="midnightblue" points="293.92,-30.15 292.35,-19.67 287.04,-28.84 293.92,-30.15"/>
</g>
<!-- Node8 -->
<g id="node8" class="node">
<title>Node8</title>
<g id="a_node8"><a xlink:title=" ">
<polygon fill="none" stroke="#bfbfbf" points="300,-56.5 300,-75.5 346,-75.5 346,-56.5 300,-56.5"/>
<text text-anchor="middle" x="323" y="-63.5" font-family="Arial" font-size="10.00">chrono</text>
</a>
</g>
</g>
<!-- Node1&#45;&gt;Node8 -->
<g id="edge8" class="edge">
<title>Node1&#45;&gt;Node8</title>
<path fill="none" stroke="midnightblue" d="M284.09,-112.4C291.57,-103.66 301.22,-92.41 309.03,-83.3"/>
<polygon fill="midnightblue" stroke="midnightblue" points="311.73,-85.53 315.58,-75.66 306.41,-80.97 311.73,-85.53"/>
</g>
<!-- Node3 -->
<g id="node3" class="node">
<title>Node3</title>
<g id="a_node3"><a xlink:title=" ">
<polygon fill="none" stroke="#bfbfbf" points="0,-0.5 0,-19.5 44,-19.5 44,-0.5 0,-0.5"/>
<text text-anchor="middle" x="22" y="-7.5" font-family="Arial" font-size="10.00">cmath</text>
</a>
</g>
</g>
<!-- Node2&#45;&gt;Node3 -->
<g id="edge2" class="edge">
<title>Node2&#45;&gt;Node3</title>
<path fill="none" stroke="midnightblue" d="M154.98,-57.03C128.18,-47.75 83.75,-32.38 53.7,-21.97"/>
<polygon fill="midnightblue" stroke="midnightblue" points="54.7,-18.61 44.1,-18.65 52.41,-25.23 54.7,-18.61"/>
</g>
<!-- Node4 -->
<g id="node4" class="node">
<title>Node4</title>
<g id="a_node4"><a xlink:title=" ">
<polygon fill="none" stroke="#bfbfbf" points="62,-0.5 62,-19.5 112,-19.5 112,-0.5 62,-0.5"/>
<text text-anchor="middle" x="87" y="-7.5" font-family="Arial" font-size="10.00">iomanip</text>
</a>
</g>
</g>
<!-- Node2&#45;&gt;Node4 -->
<g id="edge3" class="edge">
<title>Node2&#45;&gt;Node4</title>
<path fill="none" stroke="midnightblue" d="M163.38,-56.32C149.05,-47.82 126.99,-34.73 110.25,-24.8"/>
<polygon fill="midnightblue" stroke="midnightblue" points="111.97,-21.75 101.58,-19.65 108.4,-27.77 111.97,-21.75"/>
</g>
<!-- Node5 -->
<g id="node5" class="node">
<title>Node5</title>
<g id="a_node5"><a xlink:title=" ">
<polygon fill="none" stroke="#bfbfbf" points="130,-0.5 130,-19.5 182,-19.5 182,-0.5 130,-0.5"/>
<text text-anchor="middle" x="156" y="-7.5" font-family="Arial" font-size="10.00">sstream</text>
</a>
</g>
</g>
<!-- Node2&#45;&gt;Node5 -->
<g id="edge4" class="edge">
<title>Node2&#45;&gt;Node5</title>
<path fill="none" stroke="midnightblue" d="M174.37,-56.08C171.39,-48.77 167.07,-38.18 163.38,-29.1"/>
<polygon fill="midnightblue" stroke="midnightblue" points="166.58,-27.69 159.57,-19.75 160.1,-30.33 166.58,-27.69"/>
</g>
<!-- Node6 -->
<g id="node6" class="node">
<title>Node6</title>
<g id="a_node6"><a xlink:title=" ">
<polygon fill="none" stroke="#bfbfbf" points="200,-0.5 200,-19.5 254,-19.5 254,-0.5 200,-0.5"/>
<text text-anchor="middle" x="227" y="-7.5" font-family="Arial" font-size="10.00">iostream</text>
</a>
</g>
</g>
<!-- Node2&#45;&gt;Node6 -->
<g id="edge5" class="edge">
<title>Node2&#45;&gt;Node6</title>
<path fill="none" stroke="midnightblue" d="M186.09,-56.08C193.16,-48.3 203.59,-36.8 212.15,-27.37"/>
<polygon fill="midnightblue" stroke="midnightblue" points="214.93,-29.51 219.06,-19.75 209.75,-24.8 214.93,-29.51"/>
</g>
<!-- Node2&#45;&gt;Node7 -->
<g id="edge6" class="edge">
<title>Node2&#45;&gt;Node7</title>
<path fill="none" stroke="midnightblue" d="M196.38,-56.44C215.22,-47.68 244.73,-33.94 266.38,-23.86"/>
<polygon fill="midnightblue" stroke="midnightblue" points="268.12,-26.91 275.71,-19.52 265.16,-20.56 268.12,-26.91"/>
</g>
</g>
</svg>
