<?xml version="1.0" encoding="UTF-8" standalone="no"?>
<!DOCTYPE svg PUBLIC "-//W3C//DTD SVG 1.1//EN"
 "http://www.w3.org/Graphics/SVG/1.1/DTD/svg11.dtd">
<!-- Generated by graphviz version 2.43.0 (0)
 -->
<!-- Title: /home/user/project/src/util/methods.h Pages: 1 -->
<svg width="1770pt" height="407pt"
 viewBox="0.00 0.00 1769.58 407.00" xmlns="http://www.w3.org/2000/svg" xmlns:xlink="http://www.w3.org/1999/xlink">
<g id="graph0" class="graph" transform="scale(1 1) rotate(0) translate(4 403)">
<title>/home/user/project/src/util/methods.h</title>
<!-- Node1 -->
<g id="node1" class="node">
<title>Node1</title>
<g id="a_node1"><a xlink:title=" ">
<polygon fill="#bfbfbf" stroke="black" points="780.58,-368.5 780.58,-398.5 878.58,-398.5 878.58,-368.5 780.58,-368.5"/>
<text text-anchor="start" x="788.58" y="-386.5" font-family="Arial" font-size="10.00">/home/user/project</text>
<text text-anchor="middle" x="829.58" y="-375.5" font-family="Arial" font-size="10.00">/src/util/methods.h</text>
</a>
</g>
</g>
<!-- Node2 -->
<g id="node2" class="node">
<title>Node2</title>
<g id="a_node2"><a xlink:href="apps_2twop_2main_8cpp.html" target="_top" xlink:title=" ">
<polygon fill="none" stroke="black" points="349.08,-0.5 349.08,-30.5 456.08,-30.5 456.08,-0.5 349.08,-0.5"/>
<text text-anchor="start" x="357.08" y="-18.5" font-family="Arial" font-size="10.00">/home/user/project</text>
<text text-anchor="middle" x="402.58" y="-7.5" font-family="Arial" font-size="10.00">/apps/twop/main.cpp</text>
</a>
</g>
</g>
<!-- Node1&#45;&gt;Node2 -->
<g id="edge1" class="edge">
<title>Node1&#45;&gt;Node2</title>
<path fill="none" stroke="midnightblue" d="M770.36,-382.89C593.57,-383.51 78.38,-381.03 22.58,-332 -10.75,-302.72 3.58,-278.37 3.58,-234 3.58,-234 3.58,-234 3.58,-159.5 3.58,-87.02 239.86,-41.41 348.77,-24.24"/>
<polygon fill="midnightblue" stroke="midnightblue" points="770.53,-386.39 780.52,-382.85 770.5,-379.39 770.53,-386.39"/>
</g>
<!-- Node3 -->
<g id="node3" class="node">
<title>Node3</title>
<g id="a_node3"><a xlink:href="meshPartitioning_8cpp.html" target="_top" xlink:title=" ">
<polygon fill="none" stroke="black" points="32.08,-296 32.08,-326 171.08,-326 171.08,-296 32.08,-296"/>
<text text-anchor="start" x="40.08" y="-314" font-family="Arial" font-size="10.00">/home/user/project</text>
<text text-anchor="middle" x="101.58" y="-303" font-family="Arial" font-size="10.00">/src/fe/meshPartitioning.cpp</text>
</a>
</g>
</g>
<!-- Node1&#45;&gt;Node3 -->
<g id="edge2" class="edge">
<title>Node1&#45;&gt;Node3</title>
<path fill="none" stroke="midnightblue" d="M770.07,-381.25C655.33,-378.1 395.79,-367.35 180.58,-332 171.23,-330.46 161.36,-328.36 151.89,-326.09"/>
<polygon fill="midnightblue" stroke="midnightblue" points="770.3,-384.76 780.39,-381.53 770.49,-377.76 770.3,-384.76"/>
</g>
<!-- Node4 -->
<g id="node4" class="node">
<title>Node4</title>
<g id="a_node4"><a xlink:href="input_8cpp.html" target="_top" xlink:title=" ">
<polygon fill="none" stroke="black" points="189.58,-296 189.58,-326 287.58,-326 287.58,-296 189.58,-296"/>
<text text-anchor="start" x="197.58" y="-314" font-family="Arial" font-size="10.00">/home/user/project</text>
<text text-anchor="middle" x="238.58" y="-303" font-family="Arial" font-size="10.00">/src/inp/input.cpp</text>
</a>
</g>
</g>
<!-- Node1&#45;&gt;Node4 -->
<g id="edge3" class="edge">
<title>Node1&#45;&gt;Node4</title>
<path fill="none" stroke="midnightblue" d="M770.25,-380.92C671.91,-377.38 469.33,-366.24 301.58,-332 294.05,-330.46 286.14,-328.36 278.58,-326.09"/>
<polygon fill="midnightblue" stroke="midnightblue" points="770.18,-384.42 780.3,-381.26 770.42,-377.42 770.18,-384.42"/>
</g>
<!-- Node5 -->
<g id="node5" class="node">
<title>Node5</title>
<g id="a_node5"><a xlink:href="src_2main_8cpp.html" target="_top" xlink:title=" ">
<polygon fill="none" stroke="black" points="192.58,-73 192.58,-103 290.58,-103 290.58,-73 192.58,-73"/>
<text text-anchor="start" x="200.58" y="-91" font-family="Arial" font-size="10.00">/home/user/project</text>
<text text-anchor="middle" x="241.58" y="-80" font-family="Arial" font-size="10.00">/src/main.cpp</text>
</a>
</g>
</g>
<!-- Node1&#45;&gt;Node5 -->
<g id="edge4" class="edge">
<title>Node1&#45;&gt;Node5</title>
<path fill="none" stroke="midnightblue" d="M770.18,-379.56C649.23,-373.09 382.96,-356.27 349.58,-332 270.61,-274.58 248.41,-146.17 243.08,-103.27"/>
<polygon fill="midnightblue" stroke="midnightblue" points="770.21,-383.06 780.38,-380.1 770.57,-376.07 770.21,-383.06"/>
</g>
<!-- Node6 -->
<g id="node6" class="node">
<title>Node6</title>
<g id="a_node6"><a xlink:href="demModel_8cpp.html" target="_top" xlink:title=" ">
<polygon fill="none" stroke="black" points="474.08,-0.5 474.08,-30.5 625.08,-30.5 625.08,-0.5 474.08,-0.5"/>
<text text-anchor="start" x="482.08" y="-18.5" font-family="Arial" font-size="10.00">/home/user/project</text>
<text text-anchor="middle" x="549.58" y="-7.5" font-family="Arial" font-size="10.00">/src/model/dem/demModel.cpp</text>
</a>
</g>
</g>
<!-- Node1&#45;&gt;Node6 -->
<g id="edge5" class="edge">
<title>Node1&#45;&gt;Node6</title>
<path fill="none" stroke="midnightblue" d="M770.23,-373.35C665,-355.75 452.86,-313.56 411.58,-254 349.23,-164.02 522.54,-185.59 530.58,-176 566.06,-133.69 558.02,-61.41 552.56,-30.84"/>
<polygon fill="midnightblue" stroke="midnightblue" points="769.94,-376.85 780.38,-375.03 771.09,-369.94 769.94,-376.85"/>
</g>
<!-- Node7 -->
<g id="node7" class="node">
<title>Node7</title>
<g id="a_node7"><a xlink:href="nsearch_8h.html" target="_top" xlink:title=" ">
<polygon fill="none" stroke="black" points="771.58,-296 771.58,-326 887.58,-326 887.58,-296 771.58,-296"/>
<text text-anchor="start" x="779.58" y="-314" font-family="Arial" font-size="10.00">/home/user/project</text>
<text text-anchor="middle" x="829.58" y="-303" font-family="Arial" font-size="10.00">/src/nsearch/nsearch.h</text>
</a>
</g>
</g>
<!-- Node1&#45;&gt;Node7 -->
<g id="edge6" class="edge">
<title>Node1&#45;&gt;Node7</title>
<path fill="none" stroke="midnightblue" d="M829.58,-358.23C829.58,-347.57 829.58,-335.41 829.58,-326.25"/>
<polygon fill="midnightblue" stroke="midnightblue" points="826.08,-358.23 829.58,-368.23 833.08,-358.23 826.08,-358.23"/>
</g>
<!-- Node11 -->
<g id="node11" class="node">
<title>Node11</title>
<g id="a_node11"><a xlink:href="testPeriDEMLib_8cpp.html" target="_top" xlink:title=" ">
<polygon fill="none" stroke="black" points="309.08,-67.5 309.08,-108.5 428.08,-108.5 428.08,-67.5 309.08,-67.5"/>
<text text-anchor="start" x="317.08" y="-96.5" font-family="Arial" font-size="10.00">/home/user/project</text>
<text text-anchor="start" x="317.08" y="-85.5" font-family="Arial" font-size="10.00">/test/test_exec/peridem</text>
<text text-anchor="middle" x="368.58" y="-74.5" font-family="Arial" font-size="10.00">/testPeriDEMLib.cpp</text>
</a>
</g>
</g>
<!-- Node1&#45;&gt;Node11 -->
<g id="edge44" class="edge">
<title>Node1&#45;&gt;Node11</title>
<path fill="none" stroke="midnightblue" d="M770.35,-380.12C653.84,-374.83 403.85,-360.3 377.58,-332 319.56,-269.5 347.5,-154.34 361.87,-108.53"/>
<polygon fill="midnightblue" stroke="midnightblue" points="770.38,-383.62 780.53,-380.57 770.69,-376.63 770.38,-383.62"/>
</g>
<!-- Node14 -->
<g id="node14" class="node">
<title>Node14</title>
<g id="a_node14"><a xlink:href="baseParticle_8cpp.html" target="_top" xlink:title=" ">
<polygon fill="none" stroke="black" points="804.08,-0.5 804.08,-30.5 947.08,-30.5 947.08,-0.5 804.08,-0.5"/>
<text text-anchor="start" x="812.08" y="-18.5" font-family="Arial" font-size="10.00">/home/user/project</text>
<text text-anchor="middle" x="875.58" y="-7.5" font-family="Arial" font-size="10.00">/src/particle/baseParticle.cpp</text>
</a>
</g>
</g>
<!-- Node1&#45;&gt;Node14 -->
<g id="edge36" class="edge">
<title>Node1&#45;&gt;Node14</title>
<path fill="none" stroke="midnightblue" d="M888.8,-380.42C970.13,-373.98 1113.69,-348.96 1178.58,-254 1253.34,-144.6 1030.6,-62.21 926.3,-30.6"/>
<polygon fill="midnightblue" stroke="midnightblue" points="888.44,-376.94 878.71,-381.15 888.94,-383.92 888.44,-376.94"/>
</g>
<!-- Node20 -->
<g id="node18" class="node">
<title>Node20</title>
<g id="a_node18"><a xlink:href="vtkParticleReader_8cpp.html" target="_top" xlink:title=" ">
<polygon fill="none" stroke="black" points="1272.58,-0.5 1272.58,-30.5 1418.58,-30.5 1418.58,-0.5 1272.58,-0.5"/>
<text text-anchor="start" x="1280.58" y="-18.5" font-family="Arial" font-size="10.00">/home/user/project</text>
<text text-anchor="middle" x="1345.58" y="-7.5" font-family="Arial" font-size="10.00">/src/rw/vtkParticleReader.cpp</text>
</a>
</g>
</g>
<!-- Node1&#45;&gt;Node20 -->
<g id="edge37" class="edge">
<title>Node1&#45;&gt;Node20</title>
<path fill="none" stroke="midnightblue" d="M888.92,-377.99C972.81,-370.88 1121.26,-355.44 1169.58,-332 1226.73,-304.28 1273.58,-297.51 1273.58,-234 1273.58,-234 1273.58,-234 1273.58,-159.5 1273.58,-107.52 1312,-55.18 1332.71,-30.74"/>
<polygon fill="midnightblue" stroke="midnightblue" points="888.45,-374.51 878.77,-378.83 889.03,-381.49 888.45,-374.51"/>
</g>
<!-- Node21 -->
<g id="node19" class="node">
<title>Node21</title>
<g id="a_node19"><a xlink:href="vtkParticleWriter_8cpp.html" target="_top" xlink:title=" ">
<polygon fill="none" stroke="black" points="1114.58,-0.5 1114.58,-30.5 1254.58,-30.5 1254.58,-0.5 1114.58,-0.5"/>
<text text-anchor="start" x="1122.58" y="-18.5" font-family="Arial" font-size="10.00">/home/user/project</text>
<text text-anchor="middle" x="1184.58" y="-7.5" font-family="Arial" font-size="10.00">/src/rw/vtkParticleWriter.cpp</text>
</a>
</g>
</g>
<!-- Node1&#45;&gt;Node21 -->
<g id="edge38" class="edge">
<title>Node1&#45;&gt;Node21</title>
<path fill="none" stroke="midnightblue" d="M889.11,-377.16C964.43,-369.62 1089.2,-354.22 1129.58,-332 1170.39,-309.54 1182.93,-297.5 1199.58,-254 1230.09,-174.33 1201.62,-68.65 1189.47,-30.77"/>
<polygon fill="midnightblue" stroke="midnightblue" points="888.44,-373.71 878.83,-378.18 889.12,-380.68 888.44,-373.71"/>
</g>
<!-- Node25 -->
<g id="node22" class="node">
<title>Node25</title>
<g id="a_node22"><a xlink:href="testFeLib_8cpp.html" target="_top" xlink:title=" ">
<polygon fill="none" stroke="black" points="420.08,-218 420.08,-248 575.08,-248 575.08,-218 420.08,-218"/>
<text text-anchor="start" x="428.08" y="-236" font-family="Arial" font-size="10.00">/home/user/project</text>
<text text-anchor="middle" x="497.58" y="-225" font-family="Arial" font-size="10.00">/test/test_exec/fe/testFeLib.cpp</text>
</a>
</g>
</g>
<!-- Node1&#45;&gt;Node25 -->
<g id="edge40" class="edge">
<title>Node1&#45;&gt;Node25</title>
<path fill="none" stroke="midnightblue" d="M788.62,-364.18C721.42,-334.12 589.21,-274.99 528.9,-248.01"/>
<polygon fill="midnightblue" stroke="midnightblue" points="787.49,-367.51 798.05,-368.4 790.35,-361.12 787.49,-367.51"/>
</g>
<!-- Node26 -->
<g id="node23" class="node">
<title>Node26</title>
<g id="a_node23"><a xlink:href="testNSearchLib_8cpp.html" target="_top" xlink:title=" ">
<polygon fill="none" stroke="black" points="1050.08,-212.5 1050.08,-253.5 1169.08,-253.5 1169.08,-212.5 1050.08,-212.5"/>
<text text-anchor="start" x="1058.08" y="-241.5" font-family="Arial" font-size="10.00">/home/user/project</text>
<text text-anchor="start" x="1058.08" y="-230.5" font-family="Arial" font-size="10.00">/test/test_exec/nsearch</text>
<text text-anchor="middle" x="1109.58" y="-219.5" font-family="Arial" font-size="10.00">/testNSearchLib.cpp</text>
</a>
</g>
</g>
<!-- Node1&#45;&gt;Node26 -->
<g id="edge42" class="edge">
<title>Node1&#45;&gt;Node26</title>
<path fill="none" stroke="midnightblue" d="M865.26,-363.58C918.59,-335.3 1018.59,-282.26 1072.64,-253.59"/>
<polygon fill="midnightblue" stroke="midnightblue" points="863.37,-360.62 856.18,-368.4 866.65,-366.8 863.37,-360.62"/>
</g>
<!-- Node27 -->
<g id="node24" class="node">
<title>Node27</title>
<g id="a_node24"><a xlink:href="geomObjects_8cpp.html" target="_top" xlink:title=" ">
<polygon fill="none" stroke="black" points="1301.58,-296 1301.58,-326 1429.58,-326 1429.58,-296 1301.58,-296"/>
<text text-anchor="start" x="1309.58" y="-314" font-family="Arial" font-size="10.00">/home/user/project</text>
<text text-anchor="middle" x="1365.58" y="-303" font-family="Arial" font-size="10.00">/src/util/geomObjects.cpp</text>
</a>
</g>
</g>
<!-- Node1&#45;&gt;Node27 -->
<g id="edge39" class="edge">
<title>Node1&#45;&gt;Node27</title>
<path fill="none" stroke="midnightblue" d="M888.73,-378.66C976.37,-372.36 1145.64,-357.89 1287.58,-332 1296.52,-330.37 1305.95,-328.28 1315.04,-326.06"/>
<polygon fill="midnightblue" stroke="midnightblue" points="888.44,-375.17 878.71,-379.37 888.94,-382.15 888.44,-375.17"/>
</g>
<!-- Node28 -->
<g id="node25" class="node">
<title>Node28</title>
<g id="a_node25"><a xlink:href="testMeshPartitioningLib_8cpp.html" target="_top" xlink:title=" ">
<polygon fill="none" stroke="black" points="1447.58,-290.5 1447.58,-331.5 1603.58,-331.5 1603.58,-290.5 1447.58,-290.5"/>
<text text-anchor="start" x="1455.58" y="-319.5" font-family="Arial" font-size="10.00">/home/user/project</text>
<text text-anchor="start" x="1455.58" y="-308.5" font-family="Arial" font-size="10.00">/test/test_exec/meshpartitioning</text>
<text text-anchor="middle" x="1525.58" y="-297.5" font-family="Arial" font-size="10.00">/testMeshPartitioningLib.cpp</text>
</a>
</g>
</g>
<!-- Node1&#45;&gt;Node28 -->
<g id="edge41" class="edge">
<title>Node1&#45;&gt;Node28</title>
<path fill="none" stroke="midnightblue" d="M888.97,-380.4C998.29,-375.91 1238.52,-363.13 1438.58,-332 1441.49,-331.55 1444.45,-331.05 1447.43,-330.52"/>
<polygon fill="midnightblue" stroke="midnightblue" points="888.66,-376.91 878.81,-380.81 888.94,-383.9 888.66,-376.91"/>
</g>
<!-- Node29 -->
<g id="node26" class="node">
<title>Node29</title>
<g id="a_node26"><a xlink:href="testParallelCompLib_8cpp.html" target="_top" xlink:title=" ">
<polygon fill="none" stroke="black" points="1621.58,-290.5 1621.58,-331.5 1761.58,-331.5 1761.58,-290.5 1621.58,-290.5"/>
<text text-anchor="start" x="1629.58" y="-319.5" font-family="Arial" font-size="10.00">/home/user/project</text>
<text text-anchor="start" x="1629.58" y="-308.5" font-family="Arial" font-size="10.00">/test/test_exec/parallelcomp</text>
<text text-anchor="middle" x="1691.58" y="-297.5" font-family="Arial" font-size="10.00">/testParallelCompLib.cpp</text>
</a>
</g>
</g>
<!-- Node1&#45;&gt;Node29 -->
<g id="edge43" class="edge">
<title>Node1&#45;&gt;Node29</title>
<path fill="none" stroke="midnightblue" d="M889.19,-382.37C1020.64,-381.28 1344.99,-374.14 1612.58,-332 1615.52,-331.54 1618.5,-331.02 1621.51,-330.45"/>
<polygon fill="midnightblue" stroke="midnightblue" points="888.92,-378.87 878.94,-382.45 888.97,-385.87 888.92,-378.87"/>
</g>
<!-- Node8 -->
<g id="node8" class="node">
<title>Node8</title>
<g id="a_node8"><a xlink:href="geometryUtil_8cpp.html" target="_top" xlink:title=" ">
<polygon fill="none" stroke="black" points="593.58,-218 593.58,-248 747.58,-248 747.58,-218 593.58,-218"/>
<text text-anchor="start" x="601.58" y="-236" font-family="Arial" font-size="10.00">/home/user/project</text>
<text text-anchor="middle" x="670.58" y="-225" font-family="Arial" font-size="10.00">/src/geometry/geometryUtil.cpp</text>
</a>
</g>
</g>
<!-- Node7&#45;&gt;Node8 -->
<g id="edge7" class="edge">
<title>Node7&#45;&gt;Node8</title>
<path fill="none" stroke="midnightblue" d="M790.93,-291.52C762.9,-278.13 725.57,-260.28 699.96,-248.04"/>
<polygon fill="midnightblue" stroke="midnightblue" points="789.52,-294.73 800.05,-295.88 792.54,-288.41 789.52,-294.73"/>
</g>
<!-- Node9 -->
<g id="node9" class="node">
<title>Node9</title>
<g id="a_node9"><a xlink:href="modelData_8h.html" target="_top" xlink:title=" ">
<polygon fill="none" stroke="black" points="911.08,-218 911.08,-248 1032.08,-248 1032.08,-218 911.08,-218"/>
<text text-anchor="start" x="919.08" y="-236" font-family="Arial" font-size="10.00">/home/user/project</text>
<text text-anchor="middle" x="971.58" y="-225" font-family="Arial" font-size="10.00">/src/model/modelData.h</text>
</a>
</g>
</g>
<!-- Node7&#45;&gt;Node9 -->
<g id="edge8" class="edge">
<title>Node7&#45;&gt;Node9</title>
<path fill="none" stroke="midnightblue" d="M865.09,-291C890,-277.66 922.77,-260.12 945.35,-248.04"/>
<polygon fill="midnightblue" stroke="midnightblue" points="863.12,-288.08 855.96,-295.88 866.43,-294.25 863.12,-288.08"/>
</g>
<!-- Node24 -->
<g id="node21" class="node">
<title>Node24</title>
<g id="a_node21"><a xlink:href="nsearch_8cpp.html" target="_top" xlink:title=" ">
<polygon fill="none" stroke="black" points="766.08,-218 766.08,-248 893.08,-248 893.08,-218 766.08,-218"/>
<text text-anchor="start" x="774.08" y="-236" font-family="Arial" font-size="10.00">/home/user/project</text>
<text text-anchor="middle" x="829.58" y="-225" font-family="Arial" font-size="10.00">/src/nsearch/nsearch.cpp</text>
</a>
</g>
</g>
<!-- Node7&#45;&gt;Node24 -->
<g id="edge33" class="edge">
<title>Node7&#45;&gt;Node24</title>
<path fill="none" stroke="midnightblue" d="M829.58,-285.59C829.58,-273.26 829.58,-258.72 829.58,-248.23"/>
<polygon fill="midnightblue" stroke="midnightblue" points="826.08,-285.7 829.58,-295.7 833.08,-285.71 826.08,-285.7"/>
</g>
<!-- Node7&#45;&gt;Node25 -->
<g id="edge34" class="edge">
<title>Node7&#45;&gt;Node25</title>
<path fill="none" stroke="midnightblue" d="M761.28,-294.41C712.13,-283.19 644.26,-267.68 584.58,-254 576.27,-252.1 567.52,-250.09 558.89,-248.1"/>
<polygon fill="midnightblue" stroke="midnightblue" points="760.64,-297.86 771.16,-296.67 762.19,-291.03 760.64,-297.86"/>
</g>
<!-- Node7&#45;&gt;Node26 -->
<g id="edge35" class="edge">
<title>Node7&#45;&gt;Node26</title>
<path fill="none" stroke="midnightblue" d="M894.43,-293.37C936.47,-282.46 992.36,-267.74 1041.58,-254 1044.31,-253.24 1047.09,-252.45 1049.91,-251.65"/>
<polygon fill="midnightblue" stroke="midnightblue" points="893.41,-290.02 884.6,-295.91 895.16,-296.8 893.41,-290.02"/>
</g>
<!-- Node10 -->
<g id="node10" class="node">
<title>Node10</title>
<g id="a_node10"><a xlink:href="demModel_8h.html" target="_top" xlink:title=" ">
<polygon fill="none" stroke="black" points="381.58,-145.5 381.58,-175.5 521.58,-175.5 521.58,-145.5 381.58,-145.5"/>
<text text-anchor="start" x="389.58" y="-163.5" font-family="Arial" font-size="10.00">/home/user/project</text>
<text text-anchor="middle" x="451.58" y="-152.5" font-family="Arial" font-size="10.00">/src/model/dem/demModel.h</text>
</a>
</g>
</g>
<!-- Node9&#45;&gt;Node10 -->
<g id="edge9" class="edge">
<title>Node9&#45;&gt;Node10</title>
<path fill="none" stroke="midnightblue" d="M917.64,-215.42C912.58,-214.15 907.5,-212.98 902.58,-212 769.3,-185.42 610.86,-171.73 521.69,-165.63"/>
<polygon fill="midnightblue" stroke="midnightblue" points="916.76,-218.8 927.32,-217.96 918.54,-212.03 916.76,-218.8"/>
</g>
<!-- Node12 -->
<g id="node12" class="node">
<title>Node12</title>
<g id="a_node12"><a xlink:href="materialUtil_8h.html" target="_top" xlink:title=" ">
<polygon fill="none" stroke="black" points="578.08,-73 578.08,-103 709.08,-103 709.08,-73 578.08,-73"/>
<text text-anchor="start" x="586.08" y="-91" font-family="Arial" font-size="10.00">/home/user/project</text>
<text text-anchor="middle" x="643.58" y="-80" font-family="Arial" font-size="10.00">/src/material/materialUtil.h</text>
</a>
</g>
</g>
<!-- Node9&#45;&gt;Node12 -->
<g id="edge14" class="edge">
<title>Node9&#45;&gt;Node12</title>
<path fill="none" stroke="midnightblue" d="M916.29,-214.79C885.13,-204.55 845.72,-190.73 811.58,-176 759.11,-153.36 700.35,-121.31 668.1,-103.09"/>
<polygon fill="midnightblue" stroke="midnightblue" points="915.51,-218.21 926.1,-217.98 917.68,-211.56 915.51,-218.21"/>
</g>
<!-- Node15 -->
<g id="node15" class="node">
<title>Node15</title>
<g id="a_node15"><a xlink:href="modelData_8cpp.html" target="_top" xlink:title=" ">
<polygon fill="none" stroke="black" points="965.08,-0.5 965.08,-30.5 1096.08,-30.5 1096.08,-0.5 965.08,-0.5"/>
<text text-anchor="start" x="973.08" y="-18.5" font-family="Arial" font-size="10.00">/home/user/project</text>
<text text-anchor="middle" x="1030.58" y="-7.5" font-family="Arial" font-size="10.00">/src/model/modelData.cpp</text>
</a>
</g>
</g>
<!-- Node9&#45;&gt;Node15 -->
<g id="edge19" class="edge">
<title>Node9&#45;&gt;Node15</title>
<path fill="none" stroke="midnightblue" d="M983.83,-208.62C995.89,-184.4 1013.76,-145.12 1022.58,-109 1029.24,-81.75 1030.54,-48.81 1030.69,-30.51"/>
<polygon fill="midnightblue" stroke="midnightblue" points="980.61,-207.22 979.21,-217.72 986.85,-210.39 980.61,-207.22"/>
</g>
<!-- Node16 -->
<g id="node16" class="node">
<title>Node16</title>
<g id="a_node16"><a xlink:href="refParticle_8h.html" target="_top" xlink:title=" ">
<polygon fill="none" stroke="black" points="820.08,-145.5 820.08,-175.5 943.08,-175.5 943.08,-145.5 820.08,-145.5"/>
<text text-anchor="start" x="828.08" y="-163.5" font-family="Arial" font-size="10.00">/home/user/project</text>
<text text-anchor="middle" x="881.58" y="-152.5" font-family="Arial" font-size="10.00">/src/particle/refParticle.h</text>
</a>
</g>
</g>
<!-- Node9&#45;&gt;Node16 -->
<g id="edge20" class="edge">
<title>Node9&#45;&gt;Node16</title>
<path fill="none" stroke="midnightblue" d="M945.14,-211.29C930.43,-199.77 912.52,-185.73 899.46,-175.5"/>
<polygon fill="midnightblue" stroke="midnightblue" points="943.34,-214.32 953.37,-217.73 947.66,-208.81 943.34,-214.32"/>
</g>
<!-- Node17 -->
<g id="node17" class="node">
<title>Node17</title>
<g id="a_node17"><a xlink:href="baseParticle_8h.html" target="_top" xlink:title=" ">
<polygon fill="none" stroke="red" points="880.08,-73 880.08,-103 1013.08,-103 1013.08,-73 880.08,-73"/>
<text text-anchor="start" x="888.08" y="-91" font-family="Arial" font-size="10.00">/home/user/project</text>
<text text-anchor="middle" x="946.58" y="-80" font-family="Arial" font-size="10.00">/src/particle/baseParticle.h</text>
</a>
</g>
</g>
<!-- Node9&#45;&gt;Node17 -->
<g id="edge30" class="edge">
<title>Node9&#45;&gt;Node17</title>
<path fill="none" stroke="midnightblue" d="M967.33,-207.69C962.08,-177.66 953.32,-127.55 949.06,-103.18"/>
<polygon fill="midnightblue" stroke="midnightblue" points="963.92,-208.52 969.09,-217.77 970.82,-207.31 963.92,-208.52"/>
</g>
<!-- Node9&#45;&gt;Node20 -->
<g id="edge31" class="edge">
<title>Node9&#45;&gt;Node20</title>
<path fill="none" stroke="midnightblue" d="M1005.06,-212.71C1079.2,-169.99 1255.86,-68.2 1320.95,-30.69"/>
<polygon fill="midnightblue" stroke="midnightblue" points="1003.04,-209.84 996.12,-217.86 1006.53,-215.9 1003.04,-209.84"/>
</g>
<!-- Node9&#45;&gt;Node21 -->
<g id="edge32" class="edge">
<title>Node9&#45;&gt;Node21</title>
<path fill="none" stroke="midnightblue" d="M992.76,-210.58C1036.14,-166.69 1134.09,-67.59 1170.56,-30.69"/>
<polygon fill="midnightblue" stroke="midnightblue" points="990.1,-208.29 985.56,-217.86 995.08,-213.21 990.1,-208.29"/>
</g>
<!-- Node10&#45;&gt;Node2 -->
<g id="edge10" class="edge">
<title>Node10&#45;&gt;Node2</title>
<path fill="none" stroke="midnightblue" d="M450.9,-135.2C449.67,-116.07 446.34,-89.06 437.58,-67 432.31,-53.72 422.96,-40.5 415.26,-30.92"/>
<polygon fill="midnightblue" stroke="midnightblue" points="447.41,-135.38 451.4,-145.19 454.4,-135.03 447.41,-135.38"/>
</g>
<!-- Node10&#45;&gt;Node5 -->
<g id="edge11" class="edge">
<title>Node10&#45;&gt;Node5</title>
<path fill="none" stroke="midnightblue" d="M399.32,-142.3C369.98,-132.6 332.71,-120.21 299.58,-109 293.93,-107.09 287.98,-105.05 282.13,-103.05"/>
<polygon fill="midnightblue" stroke="midnightblue" points="398.36,-145.67 408.95,-145.48 400.55,-139.02 398.36,-145.67"/>
</g>
<!-- Node10&#45;&gt;Node6 -->
<g id="edge12" class="edge">
<title>Node10&#45;&gt;Node6</title>
<path fill="none" stroke="midnightblue" d="M467.17,-136.76C487.61,-106.93 522.87,-55.48 539.87,-30.68"/>
<polygon fill="midnightblue" stroke="midnightblue" points="464.1,-135.04 461.34,-145.27 469.88,-139 464.1,-135.04"/>
</g>
<!-- Node10&#45;&gt;Node11 -->
<g id="edge13" class="edge">
<title>Node10&#45;&gt;Node11</title>
<path fill="none" stroke="midnightblue" d="M427.04,-138.66C415.85,-129.15 402.66,-117.94 391.64,-108.59"/>
<polygon fill="midnightblue" stroke="midnightblue" points="424.9,-141.43 434.79,-145.23 429.43,-136.09 424.9,-141.43"/>
</g>
<!-- Node12&#45;&gt;Node2 -->
<g id="edge15" class="edge">
<title>Node12&#45;&gt;Node2</title>
<path fill="none" stroke="midnightblue" d="M586.03,-70.16C544.76,-58.09 489.78,-42.01 450.81,-30.61"/>
<polygon fill="midnightblue" stroke="midnightblue" points="585.1,-73.54 595.68,-72.99 587.07,-66.82 585.1,-73.54"/>
</g>
<!-- Node12&#45;&gt;Node6 -->
<g id="edge17" class="edge">
<title>Node12&#45;&gt;Node6</title>
<path fill="none" stroke="midnightblue" d="M616.4,-66.61C600.95,-55.03 582.02,-40.83 568.26,-30.5"/>
<polygon fill="midnightblue" stroke="midnightblue" points="614.46,-69.53 624.56,-72.73 618.66,-63.93 614.46,-69.53"/>
</g>
<!-- Node13 -->
<g id="node13" class="node">
<title>Node13</title>
<g id="a_node13"><a xlink:href="materialUtil_8cpp.html" target="_top" xlink:title=" ">
<polygon fill="none" stroke="black" points="643.58,-0.5 643.58,-30.5 785.58,-30.5 785.58,-0.5 643.58,-0.5"/>
<text text-anchor="start" x="651.58" y="-18.5" font-family="Arial" font-size="10.00">/home/user/project</text>
<text text-anchor="middle" x="714.58" y="-7.5" font-family="Arial" font-size="10.00">/src/material/materialUtil.cpp</text>
</a>
</g>
</g>
<!-- Node12&#45;&gt;Node13 -->
<g id="edge16" class="edge">
<title>Node12&#45;&gt;Node13</title>
<path fill="none" stroke="midnightblue" d="M665.37,-65.36C676.7,-54.11 690.23,-40.68 700.24,-30.75"/>
<polygon fill="midnightblue" stroke="midnightblue" points="662.58,-63.2 657.95,-72.73 667.51,-68.17 662.58,-63.2"/>
</g>
<!-- Node12&#45;&gt;Node14 -->
<g id="edge18" class="edge">
<title>Node12&#45;&gt;Node14</title>
<path fill="none" stroke="midnightblue" d="M699.49,-70.01C739.16,-57.96 791.8,-41.96 829.16,-30.61"/>
<polygon fill="midnightblue" stroke="midnightblue" points="698.25,-66.73 689.7,-72.99 700.28,-73.43 698.25,-66.73"/>
</g>
<!-- Node16&#45;&gt;Node17 -->
<g id="edge21" class="edge">
<title>Node16&#45;&gt;Node17</title>
<path fill="none" stroke="midnightblue" d="M901.53,-137.86C911.9,-126.61 924.29,-113.18 933.45,-103.25"/>
<polygon fill="midnightblue" stroke="midnightblue" points="898.94,-135.51 894.74,-145.23 904.09,-140.25 898.94,-135.51"/>
</g>
<!-- Node23 -->
<g id="node20" class="node">
<title>Node23</title>
<g id="a_node20"><a xlink:href="refParticle_8cpp.html" target="_top" xlink:title=" ">
<polygon fill="none" stroke="black" points="727.58,-73 727.58,-103 861.58,-103 861.58,-73 727.58,-73"/>
<text text-anchor="start" x="735.58" y="-91" font-family="Arial" font-size="10.00">/home/user/project</text>
<text text-anchor="middle" x="794.58" y="-80" font-family="Arial" font-size="10.00">/src/particle/refParticle.cpp</text>
</a>
</g>
</g>
<!-- Node16&#45;&gt;Node23 -->
<g id="edge29" class="edge">
<title>Node16&#45;&gt;Node23</title>
<path fill="none" stroke="midnightblue" d="M856.02,-138.79C841.8,-127.27 824.49,-113.23 811.86,-103"/>
<polygon fill="midnightblue" stroke="midnightblue" points="854,-141.66 863.98,-145.23 858.41,-136.22 854,-141.66"/>
</g>
<!-- Node17&#45;&gt;Node2 -->
<g id="edge22" class="edge">
<title>Node17&#45;&gt;Node2</title>
<path fill="none" stroke="midnightblue" d="M888.26,-70.59C882.32,-69.24 876.35,-68.01 870.58,-67 692.57,-35.89 644.06,-59.33 465.58,-31 462.48,-30.51 459.3,-29.95 456.1,-29.35"/>
<polygon fill="midnightblue" stroke="midnightblue" points="887.66,-74.05 898.2,-72.97 889.29,-67.24 887.66,-74.05"/>
</g>
<!-- Node17&#45;&gt;Node6 -->
<g id="edge24" class="edge">
<title>Node17&#45;&gt;Node6</title>
<path fill="none" stroke="midnightblue" d="M886.06,-70.46C880.84,-69.22 875.63,-68.05 870.58,-67 766.69,-45.47 739.33,-47.92 634.58,-31 631.48,-30.5 628.31,-29.98 625.11,-29.46"/>
<polygon fill="midnightblue" stroke="midnightblue" points="885.52,-73.93 896.07,-72.91 887.19,-67.13 885.52,-73.93"/>
</g>
<!-- Node17&#45;&gt;Node13 -->
<g id="edge23" class="edge">
<title>Node17&#45;&gt;Node13</title>
<path fill="none" stroke="midnightblue" d="M890.68,-70.01C851,-57.96 798.37,-41.96 761,-30.61"/>
<polygon fill="midnightblue" stroke="midnightblue" points="889.88,-73.43 900.47,-72.99 891.92,-66.73 889.88,-73.43"/>
</g>
<!-- Node17&#45;&gt;Node14 -->
<g id="edge26" class="edge">
<title>Node17&#45;&gt;Node14</title>
<path fill="none" stroke="midnightblue" d="M924.79,-65.36C913.46,-54.11 899.93,-40.68 889.93,-30.75"/>
<polygon fill="midnightblue" stroke="midnightblue" points="922.65,-68.17 932.21,-72.73 927.58,-63.2 922.65,-68.17"/>
</g>
<!-- Node17&#45;&gt;Node15 -->
<g id="edge25" class="edge">
<title>Node17&#45;&gt;Node15</title>
<path fill="none" stroke="midnightblue" d="M971.26,-66.29C984.99,-54.77 1001.71,-40.73 1013.9,-30.5"/>
<polygon fill="midnightblue" stroke="midnightblue" points="968.99,-63.62 963.58,-72.73 973.49,-68.99 968.99,-63.62"/>
</g>
<!-- Node17&#45;&gt;Node20 -->
<g id="edge27" class="edge">
<title>Node17&#45;&gt;Node20</title>
<path fill="none" stroke="midnightblue" d="M1023.42,-73.43C1087.61,-62.09 1181.57,-45.5 1263.58,-31 1266.43,-30.5 1269.33,-29.98 1272.26,-29.47"/>
<polygon fill="midnightblue" stroke="midnightblue" points="1022.61,-70.02 1013.37,-75.2 1023.83,-76.91 1022.61,-70.02"/>
</g>
<!-- Node17&#45;&gt;Node21 -->
<g id="edge28" class="edge">
<title>Node17&#45;&gt;Node21</title>
<path fill="none" stroke="midnightblue" d="M1003.67,-70.09C1044.41,-58.02 1098.55,-41.98 1136.96,-30.61"/>
<polygon fill="midnightblue" stroke="midnightblue" points="1002.48,-66.79 993.89,-72.99 1004.47,-73.5 1002.48,-66.79"/>
</g>
</g>
</svg>
