<?xml version="1.0" encoding="UTF-8" standalone="no"?>
<!DOCTYPE svg PUBLIC "-//W3C//DTD SVG 1.1//EN"
 "http://www.w3.org/Graphics/SVG/1.1/DTD/svg11.dtd">
<!-- Generated by graphviz version 2.43.0 (0)
 -->
<!-- Title: /home/user/project/src/util/methods.cpp Pages: 1 -->
<svg width="503pt" height="207pt"
 viewBox="0.00 0.00 502.50 207.00" xmlns="http://www.w3.org/2000/svg" xmlns:xlink="http://www.w3.org/1999/xlink">
<g id="graph0" class="graph" transform="scale(1 1) rotate(0) translate(4 203)">
<title>/home/user/project/src/util/methods.cpp</title>
<!-- Node1 -->
<g id="node1" class="node">
<title>Node1</title>
<g id="a_node1"><a xlink:title=" ">
<polygon fill="#bfbfbf" stroke="black" points="240,-168.5 240,-198.5 348,-198.5 348,-168.5 240,-168.5"/>
<text text-anchor="start" x="248" y="-186.5" font-family="Arial" font-size="10.00">/home/user/project</text>
<text text-anchor="middle" x="294" y="-175.5" font-family="Arial" font-size="10.00">/src/util/methods.cpp</text>
</a>
</g>
</g>
<!-- Node2 -->
<g id="node2" class="node">
<title>Node2</title>
<g id="a_node2"><a xlink:href="methods_8h.html" target="_top" xlink:title=" ">
<polygon fill="none" stroke="black" points="263,-112.5 263,-131.5 325,-131.5 325,-112.5 263,-112.5"/>
<text text-anchor="middle" x="294" y="-119.5" font-family="Arial" font-size="10.00">methods.h</text>
</a>
</g>
</g>
<!-- Node1&#45;&gt;Node2 -->
<g id="edge1" class="edge">
<title>Node1&#45;&gt;Node2</title>
<path fill="none" stroke="midnightblue" d="M294,-168.4C294,-160.47 294,-150.46 294,-141.86"/>
<polygon fill="midnightblue" stroke="midnightblue" points="297.5,-141.66 294,-131.66 290.5,-141.66 297.5,-141.66"/>
</g>
<!-- Node10 -->
<g id="node10" class="node">
<title>Node10</title>
<g id="a_node10"><a xlink:href="function_8h.html" target="_top" xlink:title=" ">
<polygon fill="none" stroke="black" points="185.5,-112.5 185.5,-131.5 244.5,-131.5 244.5,-112.5 185.5,-112.5"/>
<text text-anchor="middle" x="215" y="-119.5" font-family="Arial" font-size="10.00">function.h</text>
</a>
</g>
</g>
<!-- Node1&#45;&gt;Node10 -->
<g id="edge10" class="edge">
<title>Node1&#45;&gt;Node10</title>
<path fill="none" stroke="midnightblue" d="M275.28,-168.4C263.09,-159.22 247.21,-147.26 234.81,-137.92"/>
<polygon fill="midnightblue" stroke="midnightblue" points="236.59,-134.88 226.5,-131.66 232.38,-140.47 236.59,-134.88"/>
</g>
<!-- Node11 -->
<g id="node11" class="node">
<title>Node11</title>
<g id="a_node11"><a xlink:title=" ">
<polygon fill="none" stroke="#bfbfbf" points="343.5,-112.5 343.5,-131.5 494.5,-131.5 494.5,-112.5 343.5,-112.5"/>
<text text-anchor="middle" x="419" y="-119.5" font-family="Arial" font-size="10.00">taskflow/taskflow/taskflow.hpp</text>
</a>
</g>
</g>
<!-- Node1&#45;&gt;Node11 -->
<g id="edge13" class="edge">
<title>Node1&#45;&gt;Node11</title>
<path fill="none" stroke="midnightblue" d="M323.62,-168.4C344.22,-158.59 371.48,-145.62 391.58,-136.05"/>
<polygon fill="midnightblue" stroke="midnightblue" points="393.29,-139.12 400.81,-131.66 390.28,-132.8 393.29,-139.12"/>
</g>
<!-- Node3 -->
<g id="node3" class="node">
<title>Node3</title>
<g id="a_node3"><a xlink:href="point_8h.html" target="_top" xlink:title=" ">
<polygon fill="none" stroke="black" points="182,-56.5 182,-75.5 228,-75.5 228,-56.5 182,-56.5"/>
<text text-anchor="middle" x="205" y="-63.5" font-family="Arial" font-size="10.00">point.h</text>
</a>
</g>
</g>
<!-- Node2&#45;&gt;Node3 -->
<g id="edge2" class="edge">
<title>Node2&#45;&gt;Node3</title>
<path fill="none" stroke="midnightblue" d="M279.7,-112.32C265.82,-103.9 244.51,-90.97 228.2,-81.07"/>
<polygon fill="midnightblue" stroke="midnightblue" points="229.63,-77.85 219.26,-75.65 226,-83.83 229.63,-77.85"/>
</g>
<!-- Node8 -->
<g id="node8" class="node">
<title>Node8</title>
<g id="a_node8"><a xlink:title=" ">
<polygon fill="none" stroke="#bfbfbf" points="272,-0.5 272,-19.5 316,-19.5 316,-0.5 272,-0.5"/>
<text text-anchor="middle" x="294" y="-7.5" font-family="Arial" font-size="10.00">vector</text>
</a>
</g>
</g>
<!-- Node2&#45;&gt;Node8 -->
<g id="edge8" class="edge">
<title>Node2&#45;&gt;Node8</title>
<path fill="none" stroke="midnightblue" d="M294,-112.37C294,-94.62 294,-53.67 294,-29.6"/>
<polygon fill="midnightblue" stroke="midnightblue" points="297.5,-29.59 294,-19.59 290.5,-29.59 297.5,-29.59"/>
</g>
<!-- Node9 -->
<g id="node9" class="node">
<title>Node9</title>
<g id="a_node9"><a xlink:title=" ">
<polygon fill="none" stroke="#bfbfbf" points="322,-56.5 322,-75.5 368,-75.5 368,-56.5 322,-56.5"/>
<text text-anchor="middle" x="345" y="-63.5" font-family="Arial" font-size="10.00">chrono</text>
</a>
</g>
</g>
<!-- Node2&#45;&gt;Node9 -->
<g id="edge9" class="edge">
<title>Node2&#45;&gt;Node9</title>
<path fill="none" stroke="midnightblue" d="M302.42,-112.08C309.85,-104.22 320.85,-92.57 329.81,-83.08"/>
<polygon fill="midnightblue" stroke="midnightblue" points="332.41,-85.42 336.74,-75.75 327.32,-80.62 332.41,-85.42"/>
</g>
<!-- Node4 -->
<g id="node4" class="node">
<title>Node4</title>
<g id="a_node4"><a xlink:title=" ">
<polygon fill="none" stroke="#bfbfbf" points="0,-0.5 0,-19.5 44,-19.5 44,-0.5 0,-0.5"/>
<text text-anchor="middle" x="22" y="-7.5" font-family="Arial" font-size="10.00">cmath</text>
</a>
</g>
</g>
<!-- Node3&#45;&gt;Node4 -->
<g id="edge3" class="edge">
<title>Node3&#45;&gt;Node4</title>
<path fill="none" stroke="midnightblue" d="M181.82,-58.16C149.38,-48.59 90.32,-31.16 53.8,-20.38"/>
<polygon fill="midnightblue" stroke="midnightblue" points="54.71,-17 44.13,-17.53 52.73,-23.72 54.71,-17"/>
</g>
<!-- Node5 -->
<g id="node5" class="node">
<title>Node5</title>
<g id="a_node5"><a xlink:title=" ">
<polygon fill="none" stroke="#bfbfbf" points="62,-0.5 62,-19.5 112,-19.5 112,-0.5 62,-0.5"/>
<text text-anchor="middle" x="87" y="-7.5" font-family="Arial" font-size="10.00">iomanip</text>
</a>
</g>
</g>
<!-- Node3&#45;&gt;Node5 -->
<g id="edge4" class="edge">
<title>Node3&#45;&gt;Node5</title>
<path fill="none" stroke="midnightblue" d="M186.3,-56.44C167.06,-47.64 136.85,-33.81 114.8,-23.72"/>
<polygon fill="midnightblue" stroke="midnightblue" points="116.16,-20.5 105.61,-19.52 113.25,-26.86 116.16,-20.5"/>
</g>
<!-- Node6 -->
<g id="node6" class="node">
<title>Node6</title>
<g id="a_node6"><a xlink:title=" ">
<polygon fill="none" stroke="#bfbfbf" points="130,-0.5 130,-19.5 182,-19.5 182,-0.5 130,-0.5"/>
<text text-anchor="middle" x="156" y="-7.5" font-family="Arial" font-size="10.00">sstream</text>
</a>
</g>
</g>
<!-- Node3&#45;&gt;Node6 -->
<g id="edge5" class="edge">
<title>Node3&#45;&gt;Node6</title>
<path fill="none" stroke="midnightblue" d="M196.91,-56.08C189.84,-48.3 179.41,-36.8 170.85,-27.37"/>
<polygon fill="midnightblue" stroke="midnightblue" points="173.25,-24.8 163.94,-19.75 168.07,-29.51 173.25,-24.8"/>
</g>
<!-- Node7 -->
<g id="node7" class="node">
<title>Node7</title>
<g id="a_node7"><a xlink:title=" ">
<polygon fill="none" stroke="#bfbfbf" points="200,-0.5 200,-19.5 254,-19.5 254,-0.5 200,-0.5"/>
<text text-anchor="middle" x="227" y="-7.5" font-family="Arial" font-size="10.00">iostream</text>
</a>
</g>
</g>
<!-- Node3&#45;&gt;Node7 -->
<g id="edge6" class="edge">
<title>Node3&#45;&gt;Node7</title>
<path fill="none" stroke="midnightblue" d="M208.63,-56.08C211.61,-48.77 215.93,-38.18 219.62,-29.1"/>
<polygon fill="midnightblue" stroke="midnightblue" points="222.9,-30.33 223.43,-19.75 216.42,-27.69 222.9,-30.33"/>
</g>
<!-- Node3&#45;&gt;Node8 -->
<g id="edge7" class="edge">
<title>Node3&#45;&gt;Node8</title>
<path fill="none" stroke="midnightblue" d="M219.3,-56.32C233.18,-47.9 254.49,-34.97 270.8,-25.07"/>
<polygon fill="midnightblue" stroke="midnightblue" points="273,-27.83 279.74,-19.65 269.37,-21.85 273,-27.83"/>
</g>
<!-- Node10&#45;&gt;Node3 -->
<g id="edge11" class="edge">
<title>Node10&#45;&gt;Node3</title>
<path fill="none" stroke="midnightblue" d="M213.35,-112.08C212.02,-104.93 210.12,-94.64 208.46,-85.69"/>
<polygon fill="midnightblue" stroke="midnightblue" points="211.88,-84.95 206.62,-75.75 205,-86.22 211.88,-84.95"/>
</g>
<!-- Node10&#45;&gt;Node8 -->
<g id="edge12" class="edge">
<title>Node10&#45;&gt;Node8</title>
<path fill="none" stroke="midnightblue" d="M221.2,-112.37C234.24,-94.22 264.7,-51.8 281.8,-27.99"/>
<polygon fill="midnightblue" stroke="midnightblue" points="284.84,-29.76 287.83,-19.59 279.15,-25.67 284.84,-29.76"/>
</g>
</g>
</svg>
