<?xml version="1.0" encoding="UTF-8" standalone="no"?>
<!DOCTYPE svg PUBLIC "-//W3C//DTD SVG 1.1//EN"
 "http://www.w3.org/Graphics/SVG/1.1/DTD/svg11.dtd">
<!-- Generated by graphviz version 2.43.0 (0)
 -->
<!-- Title: /home/user/project/src/model/model.cpp Pages: 1 -->
<svg width="324pt" height="263pt"
 viewBox="0.00 0.00 324.00 263.00" xmlns="http://www.w3.org/2000/svg" xmlns:xlink="http://www.w3.org/1999/xlink">
<g id="graph0" class="graph" transform="scale(1 1) rotate(0) translate(4 259)">
<title>/home/user/project/src/model/model.cpp</title>
<!-- Node1 -->
<g id="node1" class="node">
<title>Node1</title>
<g id="a_node1"><a xlink:title=" ">
<polygon fill="#bfbfbf" stroke="black" points="172,-224.5 172,-254.5 282,-254.5 282,-224.5 172,-224.5"/>
<text text-anchor="start" x="180" y="-242.5" font-family="Arial" font-size="10.00">/home/user/project</text>
<text text-anchor="middle" x="227" y="-231.5" font-family="Arial" font-size="10.00">/src/model/model.cpp</text>
</a>
</g>
</g>
<!-- Node2 -->
<g id="node2" class="node">
<title>Node2</title>
<g id="a_node2"><a xlink:href="model_8h.html" target="_top" xlink:title=" ">
<polygon fill="none" stroke="black" points="201.5,-168.5 201.5,-187.5 252.5,-187.5 252.5,-168.5 201.5,-168.5"/>
<text text-anchor="middle" x="227" y="-175.5" font-family="Arial" font-size="10.00">model.h</text>
</a>
</g>
</g>
<!-- Node1&#45;&gt;Node2 -->
<g id="edge1" class="edge">
<title>Node1&#45;&gt;Node2</title>
<path fill="none" stroke="midnightblue" d="M227,-224.4C227,-216.47 227,-206.46 227,-197.86"/>
<polygon fill="midnightblue" stroke="midnightblue" points="230.5,-197.66 227,-187.66 223.5,-197.66 230.5,-197.66"/>
</g>
<!-- Node3 -->
<g id="node3" class="node">
<title>Node3</title>
<g id="a_node3"><a xlink:href="matrix_8h.html" target="_top" xlink:title=" ">
<polygon fill="none" stroke="black" points="131,-112.5 131,-131.5 199,-131.5 199,-112.5 131,-112.5"/>
<text text-anchor="middle" x="165" y="-119.5" font-family="Arial" font-size="10.00">util/matrix.h</text>
</a>
</g>
</g>
<!-- Node2&#45;&gt;Node3 -->
<g id="edge2" class="edge">
<title>Node2&#45;&gt;Node3</title>
<path fill="none" stroke="midnightblue" d="M217.04,-168.32C207.87,-160.34 194.06,-148.31 182.97,-138.65"/>
<polygon fill="midnightblue" stroke="midnightblue" points="184.98,-135.76 175.14,-131.83 180.38,-141.04 184.98,-135.76"/>
</g>
<!-- Node4 -->
<g id="node4" class="node">
<title>Node4</title>
<g id="a_node4"><a xlink:href="point_8h.html" target="_top" xlink:title=" ">
<polygon fill="none" stroke="black" points="142,-56.5 142,-75.5 188,-75.5 188,-56.5 142,-56.5"/>
<text text-anchor="middle" x="165" y="-63.5" font-family="Arial" font-size="10.00">point.h</text>
</a>
</g>
</g>
<!-- Node2&#45;&gt;Node4 -->
<g id="edge9" class="edge">
<title>Node2&#45;&gt;Node4</title>
<path fill="none" stroke="midnightblue" d="M225.84,-168.49C223.79,-155.57 218.7,-130.53 208,-112 201.61,-100.94 191.96,-90.49 183.41,-82.46"/>
<polygon fill="midnightblue" stroke="midnightblue" points="185.48,-79.62 175.7,-75.55 180.81,-84.83 185.48,-79.62"/>
</g>
<!-- Node9 -->
<g id="node9" class="node">
<title>Node9</title>
<g id="a_node9"><a xlink:title=" ">
<polygon fill="none" stroke="#bfbfbf" points="272,-0.5 272,-19.5 316,-19.5 316,-0.5 272,-0.5"/>
<text text-anchor="middle" x="294" y="-7.5" font-family="Arial" font-size="10.00">vector</text>
</a>
</g>
</g>
<!-- Node2&#45;&gt;Node9 -->
<g id="edge10" class="edge">
<title>Node2&#45;&gt;Node9</title>
<path fill="none" stroke="midnightblue" d="M230.6,-168.08C241.19,-141.83 272.39,-64.55 286.69,-29.12"/>
<polygon fill="midnightblue" stroke="midnightblue" points="290.04,-30.15 290.54,-19.57 283.55,-27.53 290.04,-30.15"/>
</g>
<!-- Node3&#45;&gt;Node4 -->
<g id="edge3" class="edge">
<title>Node3&#45;&gt;Node4</title>
<path fill="none" stroke="midnightblue" d="M165,-112.08C165,-105.01 165,-94.86 165,-85.99"/>
<polygon fill="midnightblue" stroke="midnightblue" points="168.5,-85.75 165,-75.75 161.5,-85.75 168.5,-85.75"/>
</g>
<!-- Node5 -->
<g id="node5" class="node">
<title>Node5</title>
<g id="a_node5"><a xlink:title=" ">
<polygon fill="none" stroke="#bfbfbf" points="0,-0.5 0,-19.5 44,-19.5 44,-0.5 0,-0.5"/>
<text text-anchor="middle" x="22" y="-7.5" font-family="Arial" font-size="10.00">cmath</text>
</a>
</g>
</g>
<!-- Node4&#45;&gt;Node5 -->
<g id="edge4" class="edge">
<title>Node4&#45;&gt;Node5</title>
<path fill="none" stroke="midnightblue" d="M142.34,-56.44C118.46,-47.42 80.65,-33.15 53.79,-23"/>
<polygon fill="midnightblue" stroke="midnightblue" points="54.67,-19.6 44.08,-19.34 52.2,-26.15 54.67,-19.6"/>
</g>
<!-- Node6 -->
<g id="node6" class="node">
<title>Node6</title>
<g id="a_node6"><a xlink:title=" ">
<polygon fill="none" stroke="#bfbfbf" points="62,-0.5 62,-19.5 112,-19.5 112,-0.5 62,-0.5"/>
<text text-anchor="middle" x="87" y="-7.5" font-family="Arial" font-size="10.00">iomanip</text>
</a>
</g>
</g>
<!-- Node4&#45;&gt;Node6 -->
<g id="edge5" class="edge">
<title>Node4&#45;&gt;Node6</title>
<path fill="none" stroke="midnightblue" d="M152.47,-56.32C140.41,-47.98 121.97,-35.21 107.73,-25.35"/>
<polygon fill="midnightblue" stroke="midnightblue" points="109.72,-22.47 99.5,-19.65 105.73,-28.22 109.72,-22.47"/>
</g>
<!-- Node7 -->
<g id="node7" class="node">
<title>Node7</title>
<g id="a_node7"><a xlink:title=" ">
<polygon fill="none" stroke="#bfbfbf" points="130,-0.5 130,-19.5 182,-19.5 182,-0.5 130,-0.5"/>
<text text-anchor="middle" x="156" y="-7.5" font-family="Arial" font-size="10.00">sstream</text>
</a>
</g>
</g>
<!-- Node4&#45;&gt;Node7 -->
<g id="edge6" class="edge">
<title>Node4&#45;&gt;Node7</title>
<path fill="none" stroke="midnightblue" d="M163.51,-56.08C162.32,-48.93 160.61,-38.64 159.12,-29.69"/>
<polygon fill="midnightblue" stroke="midnightblue" points="162.55,-29.04 157.46,-19.75 155.65,-30.19 162.55,-29.04"/>
</g>
<!-- Node8 -->
<g id="node8" class="node">
<title>Node8</title>
<g id="a_node8"><a xlink:title=" ">
<polygon fill="none" stroke="#bfbfbf" points="200,-0.5 200,-19.5 254,-19.5 254,-0.5 200,-0.5"/>
<text text-anchor="middle" x="227" y="-7.5" font-family="Arial" font-size="10.00">iostream</text>
</a>
</g>
</g>
<!-- Node4&#45;&gt;Node8 -->
<g id="edge7" class="edge">
<title>Node4&#45;&gt;Node8</title>
<path fill="none" stroke="midnightblue" d="M174.96,-56.32C184.13,-48.34 197.94,-36.31 209.03,-26.65"/>
<polygon fill="midnightblue" stroke="midnightblue" points="211.62,-29.04 216.86,-19.83 207.02,-23.76 211.62,-29.04"/>
</g>
<!-- Node4&#45;&gt;Node9 -->
<g id="edge8" class="edge">
<title>Node4&#45;&gt;Node9</title>
<path fill="none" stroke="midnightblue" d="M185.44,-56.44C206.67,-47.56 240.1,-33.56 264.25,-23.45"/>
<polygon fill="midnightblue" stroke="midnightblue" points="265.78,-26.61 273.66,-19.52 263.08,-20.15 265.78,-26.61"/>
</g>
</g>
</svg>
