<?xml version="1.0" encoding="UTF-8" standalone="no"?>
<!DOCTYPE svg PUBLIC "-//W3C//DTD SVG 1.1//EN"
 "http://www.w3.org/Graphics/SVG/1.1/DTD/svg11.dtd">
<!-- Generated by graphviz version 2.43.0 (0)
 -->
<!-- Title: /home/user/project/src/model/modelData.h Pages: 1 -->
<svg width="1823pt" height="251pt"
 viewBox="0.00 0.00 1823.00 251.00" xmlns="http://www.w3.org/2000/svg" xmlns:xlink="http://www.w3.org/1999/xlink">
<g id="graph0" class="graph" transform="scale(1 1) rotate(0) translate(4 247)">
<title>/home/user/project/src/model/modelData.h</title>
<!-- Node1 -->
<g id="node1" class="node">
<title>Node1</title>
<g id="a_node1"><a xlink:title=" ">
<polygon fill="#bfbfbf" stroke="black" points="940.5,-212.5 940.5,-242.5 1061.5,-242.5 1061.5,-212.5 940.5,-212.5"/>
<text text-anchor="start" x="948.5" y="-230.5" font-family="Arial" font-size="10.00">/home/user/project</text>
<text text-anchor="middle" x="1001" y="-219.5" font-family="Arial" font-size="10.00">/src/model/modelData.h</text>
</a>
</g>
</g>
<!-- Node2 -->
<g id="node2" class="node">
<title>Node2</title>
<g id="a_node2"><a xlink:href="demModel_8h.html" target="_top" xlink:title=" ">
<polygon fill="none" stroke="black" points="237,-78.5 237,-108.5 377,-108.5 377,-78.5 237,-78.5"/>
<text text-anchor="start" x="245" y="-96.5" font-family="Arial" font-size="10.00">/home/user/project</text>
<text text-anchor="middle" x="307" y="-85.5" font-family="Arial" font-size="10.00">/src/model/dem/demModel.h</text>
</a>
</g>
</g>
<!-- Node1&#45;&gt;Node2 -->
<g id="edge1" class="edge">
<title>Node1&#45;&gt;Node2</title>
<path fill="none" stroke="midnightblue" d="M930.22,-213.04C796.88,-187.68 509.94,-133.1 377.11,-107.83"/>
<polygon fill="midnightblue" stroke="midnightblue" points="929.85,-216.53 940.32,-214.96 931.15,-209.65 929.85,-216.53"/>
</g>
<!-- Node7 -->
<g id="node7" class="node">
<title>Node7</title>
<g id="a_node7"><a xlink:href="materialUtil_8h.html" target="_top" xlink:title=" ">
<polygon fill="none" stroke="black" points="553.5,-78.5 553.5,-108.5 684.5,-108.5 684.5,-78.5 553.5,-78.5"/>
<text text-anchor="start" x="561.5" y="-96.5" font-family="Arial" font-size="10.00">/home/user/project</text>
<text text-anchor="middle" x="619" y="-85.5" font-family="Arial" font-size="10.00">/src/material/materialUtil.h</text>
</a>
</g>
</g>
<!-- Node1&#45;&gt;Node7 -->
<g id="edge6" class="edge">
<title>Node1&#45;&gt;Node7</title>
<path fill="none" stroke="midnightblue" d="M950.59,-209.08C874.05,-182.63 729.99,-132.85 659.68,-108.56"/>
<polygon fill="midnightblue" stroke="midnightblue" points="949.89,-212.54 960.48,-212.5 952.17,-205.92 949.89,-212.54"/>
</g>
<!-- Node10 -->
<g id="node10" class="node">
<title>Node10</title>
<g id="a_node10"><a xlink:href="modelData_8cpp.html" target="_top" xlink:title=" ">
<polygon fill="none" stroke="black" points="869.5,-6 869.5,-36 1000.5,-36 1000.5,-6 869.5,-6"/>
<text text-anchor="start" x="877.5" y="-24" font-family="Arial" font-size="10.00">/home/user/project</text>
<text text-anchor="middle" x="935" y="-13" font-family="Arial" font-size="10.00">/src/model/modelData.cpp</text>
</a>
</g>
</g>
<!-- Node1&#45;&gt;Node10 -->
<g id="edge11" class="edge">
<title>Node1&#45;&gt;Node10</title>
<path fill="none" stroke="midnightblue" d="M990.53,-202.81C980.45,-179.33 965.25,-142.18 955,-109 947.18,-83.68 940.88,-53.37 937.56,-36.03"/>
<polygon fill="midnightblue" stroke="midnightblue" points="987.45,-204.49 994.64,-212.27 993.87,-201.7 987.45,-204.49"/>
</g>
<!-- Node11 -->
<g id="node11" class="node">
<title>Node11</title>
<g id="a_node11"><a xlink:href="refParticle_8h.html" target="_top" xlink:title=" ">
<polygon fill="none" stroke="black" points="1029.5,-145.5 1029.5,-175.5 1152.5,-175.5 1152.5,-145.5 1029.5,-145.5"/>
<text text-anchor="start" x="1037.5" y="-163.5" font-family="Arial" font-size="10.00">/home/user/project</text>
<text text-anchor="middle" x="1091" y="-152.5" font-family="Arial" font-size="10.00">/src/particle/refParticle.h</text>
</a>
</g>
</g>
<!-- Node1&#45;&gt;Node11 -->
<g id="edge12" class="edge">
<title>Node1&#45;&gt;Node11</title>
<path fill="none" stroke="midnightblue" d="M1028.76,-206.45C1042.61,-196.45 1059.02,-184.6 1071.51,-175.58"/>
<polygon fill="midnightblue" stroke="midnightblue" points="1026.59,-203.7 1020.53,-212.4 1030.68,-209.38 1026.59,-203.7"/>
</g>
<!-- Node12 -->
<g id="node12" class="node">
<title>Node12</title>
<g id="a_node12"><a xlink:href="baseParticle_8h.html" target="_top" xlink:title=" ">
<polygon fill="none" stroke="black" points="963.5,-78.5 963.5,-108.5 1096.5,-108.5 1096.5,-78.5 963.5,-78.5"/>
<text text-anchor="start" x="971.5" y="-96.5" font-family="Arial" font-size="10.00">/home/user/project</text>
<text text-anchor="middle" x="1030" y="-85.5" font-family="Arial" font-size="10.00">/src/particle/baseParticle.h</text>
</a>
</g>
</g>
<!-- Node1&#45;&gt;Node12 -->
<g id="edge25" class="edge">
<title>Node1&#45;&gt;Node12</title>
<path fill="none" stroke="midnightblue" d="M1006.3,-202.39C1012.34,-174.9 1022.01,-130.89 1026.92,-108.52"/>
<polygon fill="midnightblue" stroke="midnightblue" points="1002.83,-201.86 1004.1,-212.37 1009.67,-203.36 1002.83,-201.86"/>
</g>
<!-- Node15 -->
<g id="node15" class="node">
<title>Node15</title>
<g id="a_node15"><a xlink:href="vtkParticleReader_8cpp.html" target="_top" xlink:title=" ">
<polygon fill="none" stroke="black" points="1511,-6 1511,-36 1657,-36 1657,-6 1511,-6"/>
<text text-anchor="start" x="1519" y="-24" font-family="Arial" font-size="10.00">/home/user/project</text>
<text text-anchor="middle" x="1584" y="-13" font-family="Arial" font-size="10.00">/src/rw/vtkParticleReader.cpp</text>
</a>
</g>
</g>
<!-- Node1&#45;&gt;Node15 -->
<g id="edge26" class="edge">
<title>Node1&#45;&gt;Node15</title>
<path fill="none" stroke="midnightblue" d="M1057.44,-209.49C1088.42,-199.98 1127.45,-187.71 1162,-176 1305.47,-127.35 1474.18,-63.86 1547.23,-36.07"/>
<polygon fill="midnightblue" stroke="midnightblue" points="1056.22,-206.2 1047.68,-212.48 1058.27,-212.9 1056.22,-206.2"/>
</g>
<!-- Node16 -->
<g id="node16" class="node">
<title>Node16</title>
<g id="a_node16"><a xlink:href="vtkParticleWriter_8cpp.html" target="_top" xlink:title=" ">
<polygon fill="none" stroke="black" points="1675,-6 1675,-36 1815,-36 1815,-6 1675,-6"/>
<text text-anchor="start" x="1683" y="-24" font-family="Arial" font-size="10.00">/home/user/project</text>
<text text-anchor="middle" x="1745" y="-13" font-family="Arial" font-size="10.00">/src/rw/vtkParticleWriter.cpp</text>
</a>
</g>
</g>
<!-- Node1&#45;&gt;Node16 -->
<g id="edge27" class="edge">
<title>Node1&#45;&gt;Node16</title>
<path fill="none" stroke="midnightblue" d="M1071.66,-210.99C1113.96,-201.46 1168.72,-188.67 1217,-176 1397.1,-128.72 1609.18,-64.12 1700.03,-36.01"/>
<polygon fill="midnightblue" stroke="midnightblue" points="1070.73,-207.62 1061.74,-213.22 1072.26,-214.45 1070.73,-207.62"/>
</g>
<!-- Node3 -->
<g id="node3" class="node">
<title>Node3</title>
<g id="a_node3"><a xlink:href="apps_2twop_2main_8cpp.html" target="_top" xlink:title=" ">
<polygon fill="none" stroke="black" points="253.5,-6 253.5,-36 360.5,-36 360.5,-6 253.5,-6"/>
<text text-anchor="start" x="261.5" y="-24" font-family="Arial" font-size="10.00">/home/user/project</text>
<text text-anchor="middle" x="307" y="-13" font-family="Arial" font-size="10.00">/apps/twop/main.cpp</text>
</a>
</g>
</g>
<!-- Node2&#45;&gt;Node3 -->
<g id="edge2" class="edge">
<title>Node2&#45;&gt;Node3</title>
<path fill="none" stroke="midnightblue" d="M307,-68.23C307,-57.57 307,-45.41 307,-36.25"/>
<polygon fill="midnightblue" stroke="midnightblue" points="303.5,-68.23 307,-78.23 310.5,-68.23 303.5,-68.23"/>
</g>
<!-- Node4 -->
<g id="node4" class="node">
<title>Node4</title>
<g id="a_node4"><a xlink:href="src_2main_8cpp.html" target="_top" xlink:title=" ">
<polygon fill="none" stroke="black" points="0,-6 0,-36 98,-36 98,-6 0,-6"/>
<text text-anchor="start" x="8" y="-24" font-family="Arial" font-size="10.00">/home/user/project</text>
<text text-anchor="middle" x="49" y="-13" font-family="Arial" font-size="10.00">/src/main.cpp</text>
</a>
</g>
</g>
<!-- Node2&#45;&gt;Node4 -->
<g id="edge3" class="edge">
<title>Node2&#45;&gt;Node4</title>
<path fill="none" stroke="midnightblue" d="M235.76,-76.07C197.4,-66.82 149.37,-54.63 107,-42 100.88,-40.17 94.44,-38.11 88.17,-36.01"/>
<polygon fill="midnightblue" stroke="midnightblue" points="235.26,-79.54 245.8,-78.47 236.89,-72.74 235.26,-79.54"/>
</g>
<!-- Node5 -->
<g id="node5" class="node">
<title>Node5</title>
<g id="a_node5"><a xlink:href="demModel_8cpp.html" target="_top" xlink:title=" ">
<polygon fill="none" stroke="black" points="378.5,-6 378.5,-36 529.5,-36 529.5,-6 378.5,-6"/>
<text text-anchor="start" x="386.5" y="-24" font-family="Arial" font-size="10.00">/home/user/project</text>
<text text-anchor="middle" x="454" y="-13" font-family="Arial" font-size="10.00">/src/model/dem/demModel.cpp</text>
</a>
</g>
</g>
<!-- Node2&#45;&gt;Node5 -->
<g id="edge4" class="edge">
<title>Node2&#45;&gt;Node5</title>
<path fill="none" stroke="midnightblue" d="M345.51,-74.03C370.27,-62.16 401.94,-46.97 424.66,-36.07"/>
<polygon fill="midnightblue" stroke="midnightblue" points="343.9,-70.92 336.39,-78.4 346.92,-77.23 343.9,-70.92"/>
</g>
<!-- Node6 -->
<g id="node6" class="node">
<title>Node6</title>
<g id="a_node6"><a xlink:href="testPeriDEMLib_8cpp.html" target="_top" xlink:title=" ">
<polygon fill="none" stroke="black" points="116.5,-0.5 116.5,-41.5 235.5,-41.5 235.5,-0.5 116.5,-0.5"/>
<text text-anchor="start" x="124.5" y="-29.5" font-family="Arial" font-size="10.00">/home/user/project</text>
<text text-anchor="start" x="124.5" y="-18.5" font-family="Arial" font-size="10.00">/test/test_exec/peridem</text>
<text text-anchor="middle" x="176" y="-7.5" font-family="Arial" font-size="10.00">/testPeriDEMLib.cpp</text>
</a>
</g>
</g>
<!-- Node2&#45;&gt;Node6 -->
<g id="edge5" class="edge">
<title>Node2&#45;&gt;Node6</title>
<path fill="none" stroke="midnightblue" d="M271.9,-73.61C253.55,-63.74 231.12,-51.67 212.57,-41.68"/>
<polygon fill="midnightblue" stroke="midnightblue" points="270.34,-76.75 280.81,-78.4 273.66,-70.58 270.34,-76.75"/>
</g>
<!-- Node7&#45;&gt;Node3 -->
<g id="edge7" class="edge">
<title>Node7&#45;&gt;Node3</title>
<path fill="none" stroke="midnightblue" d="M543.21,-79.49C493.38,-70.37 426.91,-57.14 369,-42 362.33,-40.26 355.31,-38.21 348.5,-36.1"/>
<polygon fill="midnightblue" stroke="midnightblue" points="542.8,-82.97 553.27,-81.31 544.05,-76.08 542.8,-82.97"/>
</g>
<!-- Node7&#45;&gt;Node5 -->
<g id="edge9" class="edge">
<title>Node7&#45;&gt;Node5</title>
<path fill="none" stroke="midnightblue" d="M576.51,-74.34C548.61,-62.42 512.66,-47.07 486.94,-36.07"/>
<polygon fill="midnightblue" stroke="midnightblue" points="575.44,-77.69 586.01,-78.4 578.19,-71.26 575.44,-77.69"/>
</g>
<!-- Node8 -->
<g id="node8" class="node">
<title>Node8</title>
<g id="a_node8"><a xlink:href="materialUtil_8cpp.html" target="_top" xlink:title=" ">
<polygon fill="none" stroke="black" points="548,-6 548,-36 690,-36 690,-6 548,-6"/>
<text text-anchor="start" x="556" y="-24" font-family="Arial" font-size="10.00">/home/user/project</text>
<text text-anchor="middle" x="619" y="-13" font-family="Arial" font-size="10.00">/src/material/materialUtil.cpp</text>
</a>
</g>
</g>
<!-- Node7&#45;&gt;Node8 -->
<g id="edge8" class="edge">
<title>Node7&#45;&gt;Node8</title>
<path fill="none" stroke="midnightblue" d="M619,-68.23C619,-57.57 619,-45.41 619,-36.25"/>
<polygon fill="midnightblue" stroke="midnightblue" points="615.5,-68.23 619,-78.23 622.5,-68.23 615.5,-68.23"/>
</g>
<!-- Node9 -->
<g id="node9" class="node">
<title>Node9</title>
<g id="a_node9"><a xlink:href="baseParticle_8cpp.html" target="_top" xlink:title=" ">
<polygon fill="none" stroke="black" points="708.5,-6 708.5,-36 851.5,-36 851.5,-6 708.5,-6"/>
<text text-anchor="start" x="716.5" y="-24" font-family="Arial" font-size="10.00">/home/user/project</text>
<text text-anchor="middle" x="780" y="-13" font-family="Arial" font-size="10.00">/src/particle/baseParticle.cpp</text>
</a>
</g>
</g>
<!-- Node7&#45;&gt;Node9 -->
<g id="edge10" class="edge">
<title>Node7&#45;&gt;Node9</title>
<path fill="none" stroke="midnightblue" d="M660.46,-74.34C687.68,-62.42 722.76,-47.07 747.86,-36.07"/>
<polygon fill="midnightblue" stroke="midnightblue" points="658.95,-71.19 651.19,-78.4 661.76,-77.6 658.95,-71.19"/>
</g>
<!-- Node11&#45;&gt;Node12 -->
<g id="edge13" class="edge">
<title>Node11&#45;&gt;Node12</title>
<path fill="none" stroke="midnightblue" d="M1070.85,-138.02C1061.76,-128.34 1051.28,-117.17 1043.21,-108.58"/>
<polygon fill="midnightblue" stroke="midnightblue" points="1068.37,-140.5 1077.76,-145.4 1073.47,-135.71 1068.37,-140.5"/>
</g>
<!-- Node18 -->
<g id="node18" class="node">
<title>Node18</title>
<g id="a_node18"><a xlink:href="refParticle_8cpp.html" target="_top" xlink:title=" ">
<polygon fill="none" stroke="black" points="1115,-78.5 1115,-108.5 1249,-108.5 1249,-78.5 1115,-78.5"/>
<text text-anchor="start" x="1123" y="-96.5" font-family="Arial" font-size="10.00">/home/user/project</text>
<text text-anchor="middle" x="1182" y="-85.5" font-family="Arial" font-size="10.00">/src/particle/refParticle.cpp</text>
</a>
</g>
</g>
<!-- Node11&#45;&gt;Node18 -->
<g id="edge24" class="edge">
<title>Node11&#45;&gt;Node18</title>
<path fill="none" stroke="midnightblue" d="M1119.07,-139.45C1133.07,-129.45 1149.66,-117.6 1162.29,-108.58"/>
<polygon fill="midnightblue" stroke="midnightblue" points="1116.85,-136.74 1110.75,-145.4 1120.92,-142.43 1116.85,-136.74"/>
</g>
<!-- Node12&#45;&gt;Node3 -->
<g id="edge14" class="edge">
<title>Node12&#45;&gt;Node3</title>
<path fill="none" stroke="midnightblue" d="M953.25,-88.91C803.83,-81.55 478.91,-63.61 369,-42 361.34,-40.49 353.31,-38.35 345.66,-36.01"/>
<polygon fill="midnightblue" stroke="midnightblue" points="953.11,-92.41 963.27,-89.4 953.45,-85.42 953.11,-92.41"/>
</g>
<!-- Node12&#45;&gt;Node5 -->
<g id="edge18" class="edge">
<title>Node12&#45;&gt;Node5</title>
<path fill="none" stroke="midnightblue" d="M953.31,-87.68C856.34,-80.88 684.48,-66.49 539,-42 529.28,-40.36 519.02,-38.27 509.12,-36.05"/>
<polygon fill="midnightblue" stroke="midnightblue" points="953.1,-91.17 963.32,-88.37 953.59,-84.19 953.1,-91.17"/>
</g>
<!-- Node12&#45;&gt;Node8 -->
<g id="edge17" class="edge">
<title>Node12&#45;&gt;Node8</title>
<path fill="none" stroke="midnightblue" d="M953.33,-82.87C886.01,-73.93 785.6,-59.39 699,-42 690.3,-40.25 681.12,-38.18 672.2,-36.04"/>
<polygon fill="midnightblue" stroke="midnightblue" points="953.05,-86.37 963.42,-84.21 953.97,-79.43 953.05,-86.37"/>
</g>
<!-- Node12&#45;&gt;Node9 -->
<g id="edge20" class="edge">
<title>Node12&#45;&gt;Node9</title>
<path fill="none" stroke="midnightblue" d="M970.57,-75.74C927.73,-63.66 870.54,-47.53 830.02,-36.11"/>
<polygon fill="midnightblue" stroke="midnightblue" points="969.73,-79.14 980.31,-78.49 971.63,-72.4 969.73,-79.14"/>
</g>
<!-- Node12&#45;&gt;Node10 -->
<g id="edge19" class="edge">
<title>Node12&#45;&gt;Node10</title>
<path fill="none" stroke="midnightblue" d="M1002.52,-72.11C986.92,-60.53 967.78,-46.33 953.87,-36"/>
<polygon fill="midnightblue" stroke="midnightblue" points="1000.66,-75.08 1010.78,-78.23 1004.83,-69.46 1000.66,-75.08"/>
</g>
<!-- Node13 -->
<g id="node13" class="node">
<title>Node13</title>
<g id="a_node13"><a xlink:href="particleFLoading_8cpp.html" target="_top" xlink:title=" ">
<polygon fill="none" stroke="black" points="1019,-6 1019,-36 1179,-36 1179,-6 1019,-6"/>
<text text-anchor="start" x="1027" y="-24" font-family="Arial" font-size="10.00">/home/user/project</text>
<text text-anchor="middle" x="1099" y="-13" font-family="Arial" font-size="10.00">/src/loading/particleFLoading.cpp</text>
</a>
</g>
</g>
<!-- Node12&#45;&gt;Node13 -->
<g id="edge15" class="edge">
<title>Node12&#45;&gt;Node13</title>
<path fill="none" stroke="midnightblue" d="M1051.18,-70.86C1062.19,-59.61 1075.34,-46.18 1085.06,-36.25"/>
<polygon fill="midnightblue" stroke="midnightblue" points="1048.46,-68.64 1043.96,-78.23 1053.46,-73.53 1048.46,-68.64"/>
</g>
<!-- Node14 -->
<g id="node14" class="node">
<title>Node14</title>
<g id="a_node14"><a xlink:href="particleULoading_8cpp.html" target="_top" xlink:title=" ">
<polygon fill="none" stroke="black" points="1197.5,-6 1197.5,-36 1358.5,-36 1358.5,-6 1197.5,-6"/>
<text text-anchor="start" x="1205.5" y="-24" font-family="Arial" font-size="10.00">/home/user/project</text>
<text text-anchor="middle" x="1278" y="-13" font-family="Arial" font-size="10.00">/src/loading/particleULoading.cpp</text>
</a>
</g>
</g>
<!-- Node12&#45;&gt;Node14 -->
<g id="edge16" class="edge">
<title>Node12&#45;&gt;Node14</title>
<path fill="none" stroke="midnightblue" d="M1088.95,-75.74C1131.46,-63.66 1188.18,-47.53 1228.38,-36.11"/>
<polygon fill="midnightblue" stroke="midnightblue" points="1087.96,-72.39 1079.29,-78.49 1089.87,-79.12 1087.96,-72.39"/>
</g>
<!-- Node12&#45;&gt;Node15 -->
<g id="edge21" class="edge">
<title>Node12&#45;&gt;Node15</title>
<path fill="none" stroke="midnightblue" d="M1106.79,-78C1282.78,-54.05 1330.91,-70.48 1502,-42 1511.54,-40.41 1521.61,-38.31 1531.31,-36.07"/>
<polygon fill="midnightblue" stroke="midnightblue" points="1106.09,-74.56 1096.67,-79.4 1107.05,-81.49 1106.09,-74.56"/>
</g>
<!-- Node12&#45;&gt;Node16 -->
<g id="edge22" class="edge">
<title>Node12&#45;&gt;Node16</title>
<path fill="none" stroke="midnightblue" d="M1106.71,-78.04C1355.19,-47.46 1422.88,-80.26 1666,-42 1675.5,-40.5 1685.53,-38.39 1695.14,-36.1"/>
<polygon fill="midnightblue" stroke="midnightblue" points="1106.14,-74.58 1096.65,-79.3 1107.01,-81.53 1106.14,-74.58"/>
</g>
<!-- Node17 -->
<g id="node17" class="node">
<title>Node17</title>
<g id="a_node17"><a xlink:href="testParticleLib_8cpp.html" target="_top" xlink:title=" ">
<polygon fill="none" stroke="black" points="1377,-0.5 1377,-41.5 1493,-41.5 1493,-0.5 1377,-0.5"/>
<text text-anchor="start" x="1385" y="-29.5" font-family="Arial" font-size="10.00">/home/user/project</text>
<text text-anchor="start" x="1385" y="-18.5" font-family="Arial" font-size="10.00">/test/test_exec/particle</text>
<text text-anchor="middle" x="1435" y="-7.5" font-family="Arial" font-size="10.00">/testParticleLib.cpp</text>
</a>
</g>
</g>
<!-- Node12&#45;&gt;Node17 -->
<g id="edge23" class="edge">
<title>Node12&#45;&gt;Node17</title>
<path fill="none" stroke="midnightblue" d="M1106.76,-77.95C1223.75,-59.39 1256.27,-66.2 1368,-42 1370.85,-41.38 1373.75,-40.71 1376.67,-39.99"/>
<polygon fill="midnightblue" stroke="midnightblue" points="1106.01,-74.52 1096.69,-79.57 1107.12,-81.43 1106.01,-74.52"/>
</g>
</g>
</svg>
