<?xml version="1.0" encoding="UTF-8" standalone="no"?>
<!DOCTYPE svg PUBLIC "-//W3C//DTD SVG 1.1//EN"
 "http://www.w3.org/Graphics/SVG/1.1/DTD/svg11.dtd">
<!-- Generated by graphviz version 2.43.0 (0)
 -->
<!-- Title: /home/user/project/src/model/modelData.h Pages: 1 -->
<svg width="1511pt" height="498pt"
 viewBox="0.00 0.00 1511.00 498.00" xmlns="http://www.w3.org/2000/svg" xmlns:xlink="http://www.w3.org/1999/xlink">
<g id="graph0" class="graph" transform="scale(1 1) rotate(0) translate(4 494)">
<title>/home/user/project/src/model/modelData.h</title>
<!-- Node1 -->
<g id="node1" class="node">
<title>Node1</title>
<g id="a_node1"><a xlink:title=" ">
<polygon fill="#bfbfbf" stroke="black" points="1036.5,-459.5 1036.5,-489.5 1157.5,-489.5 1157.5,-459.5 1036.5,-459.5"/>
<text text-anchor="start" x="1044.5" y="-477.5" font-family="Arial" font-size="10.00">/home/user/project</text>
<text text-anchor="middle" x="1097" y="-466.5" font-family="Arial" font-size="10.00">/src/model/modelData.h</text>
</a>
</g>
</g>
<!-- Node2 -->
<g id="node2" class="node">
<title>Node2</title>
<g id="a_node2"><a xlink:href="material_8h.html" target="_top" xlink:title=" ">
<polygon fill="none" stroke="black" points="697,-224.5 697,-254.5 791,-254.5 791,-224.5 697,-224.5"/>
<text text-anchor="start" x="705" y="-242.5" font-family="Arial" font-size="10.00">material/mparticle</text>
<text text-anchor="middle" x="744" y="-231.5" font-family="Arial" font-size="10.00">/material.h</text>
</a>
</g>
</g>
<!-- Node1&#45;&gt;Node2 -->
<g id="edge1" class="edge">
<title>Node1&#45;&gt;Node2</title>
<path fill="none" stroke="midnightblue" d="M1075.71,-459.45C1015.51,-419.71 843.89,-306.43 774.08,-260.36"/>
<polygon fill="midnightblue" stroke="midnightblue" points="775.59,-257.16 765.31,-254.57 771.73,-263 775.59,-257.16"/>
</g>
<!-- Node10 -->
<g id="node8" class="node">
<title>Node10</title>
<g id="a_node8"><a xlink:title=" ">
<polygon fill="none" stroke="#bfbfbf" points="816,-0.5 816,-19.5 860,-19.5 860,-0.5 816,-0.5"/>
<text text-anchor="middle" x="838" y="-7.5" font-family="Arial" font-size="10.00">vector</text>
</a>
</g>
</g>
<!-- Node1&#45;&gt;Node10 -->
<g id="edge77" class="edge">
<title>Node1&#45;&gt;Node10</title>
<path fill="none" stroke="midnightblue" d="M1097,-459.28C1097,-437.48 1097,-394.49 1097,-358 1097,-358 1097,-358 1097,-177 1097,-123.04 1141.87,-97.18 1107,-56 1077,-20.57 935.14,-13.01 870.38,-11.42"/>
<polygon fill="midnightblue" stroke="midnightblue" points="870.38,-7.92 860.31,-11.2 870.24,-14.92 870.38,-7.92"/>
</g>
<!-- Node17 -->
<g id="node13" class="node">
<title>Node17</title>
<g id="a_node13"><a xlink:title=" ">
<polygon fill="none" stroke="#bfbfbf" points="1428,-56.5 1428,-75.5 1474,-75.5 1474,-56.5 1428,-56.5"/>
<text text-anchor="middle" x="1451" y="-63.5" font-family="Arial" font-size="10.00">cstring</text>
</a>
</g>
</g>
<!-- Node1&#45;&gt;Node17 -->
<g id="edge76" class="edge">
<title>Node1&#45;&gt;Node17</title>
<path fill="none" stroke="midnightblue" d="M1157.78,-468.89C1271.04,-458.61 1503,-428.9 1503,-358 1503,-358 1503,-358 1503,-177 1503,-141.12 1480.11,-104.42 1464.7,-83.79"/>
<polygon fill="midnightblue" stroke="midnightblue" points="1467.35,-81.5 1458.45,-75.74 1461.82,-85.79 1467.35,-81.5"/>
</g>
<!-- Node22 -->
<g id="node18" class="node">
<title>Node22</title>
<g id="a_node18"><a xlink:href="input_8h.html" target="_top" xlink:title=" ">
<polygon fill="none" stroke="black" points="405,-230 405,-249 467,-249 467,-230 405,-230"/>
<text text-anchor="middle" x="436" y="-237" font-family="Arial" font-size="10.00">inp/input.h</text>
</a>
</g>
</g>
<!-- Node1&#45;&gt;Node22 -->
<g id="edge31" class="edge">
<title>Node1&#45;&gt;Node22</title>
<path fill="none" stroke="midnightblue" d="M1036.34,-471.93C894.06,-467.73 547.71,-454.38 506,-423 452.91,-383.07 440.08,-297.5 436.99,-259.43"/>
<polygon fill="midnightblue" stroke="midnightblue" points="440.46,-258.99 436.3,-249.25 433.48,-259.46 440.46,-258.99"/>
</g>
<!-- Node23 -->
<g id="node19" class="node">
<title>Node23</title>
<g id="a_node19"><a xlink:href="particleFLoading_8h.html" target="_top" xlink:title=" ">
<polygon fill="none" stroke="black" points="515,-403.5 515,-422.5 645,-422.5 645,-403.5 515,-403.5"/>
<text text-anchor="middle" x="580" y="-410.5" font-family="Arial" font-size="10.00">loading/particleFLoading.h</text>
</a>
</g>
</g>
<!-- Node1&#45;&gt;Node23 -->
<g id="edge35" class="edge">
<title>Node1&#45;&gt;Node23</title>
<path fill="none" stroke="midnightblue" d="M1036.43,-466.74C953.11,-457.41 798.13,-439.94 655.61,-423.18"/>
<polygon fill="midnightblue" stroke="midnightblue" points="655.71,-419.67 645.37,-421.98 654.89,-426.62 655.71,-419.67"/>
</g>
<!-- Node34 -->
<g id="node26" class="node">
<title>Node34</title>
<g id="a_node26"><a xlink:href="particleULoading_8h.html" target="_top" xlink:title=" ">
<polygon fill="none" stroke="black" points="663.5,-403.5 663.5,-422.5 794.5,-422.5 794.5,-403.5 663.5,-403.5"/>
<text text-anchor="middle" x="729" y="-410.5" font-family="Arial" font-size="10.00">loading/particleULoading.h</text>
</a>
</g>
</g>
<!-- Node1&#45;&gt;Node34 -->
<g id="edge53" class="edge">
<title>Node1&#45;&gt;Node34</title>
<path fill="none" stroke="midnightblue" d="M1036.23,-463.67C968.76,-452.76 860.36,-435.24 792,-424.19"/>
<polygon fill="midnightblue" stroke="midnightblue" points="792.23,-420.68 781.8,-422.54 791.11,-427.59 792.23,-420.68"/>
</g>
<!-- Node35 -->
<g id="node27" class="node">
<title>Node35</title>
<g id="a_node27"><a xlink:href="nsearch_8h.html" target="_top" xlink:title=" ">
<polygon fill="none" stroke="black" points="1125.5,-168.5 1125.5,-187.5 1222.5,-187.5 1222.5,-168.5 1125.5,-168.5"/>
<text text-anchor="middle" x="1174" y="-175.5" font-family="Arial" font-size="10.00">nsearch/nsearch.h</text>
</a>
</g>
</g>
<!-- Node1&#45;&gt;Node35 -->
<g id="edge56" class="edge">
<title>Node1&#45;&gt;Node35</title>
<path fill="none" stroke="midnightblue" d="M1109.59,-459.34C1126.64,-438.63 1155,-398.16 1155,-358 1155,-358 1155,-358 1155,-300 1155,-263.29 1163.64,-221.06 1169.27,-197.45"/>
<polygon fill="midnightblue" stroke="midnightblue" points="1172.67,-198.28 1171.67,-187.73 1165.87,-196.6 1172.67,-198.28"/>
</g>
<!-- Node37 -->
<g id="node29" class="node">
<title>Node37</title>
<g id="a_node29"><a xlink:title=" ">
<polygon fill="none" stroke="#bfbfbf" points="1294,-56.5 1294,-75.5 1340,-75.5 1340,-56.5 1294,-56.5"/>
<text text-anchor="middle" x="1317" y="-63.5" font-family="Arial" font-size="10.00">cstdint</text>
</a>
</g>
</g>
<!-- Node1&#45;&gt;Node37 -->
<g id="edge75" class="edge">
<title>Node1&#45;&gt;Node37</title>
<path fill="none" stroke="midnightblue" d="M1157.74,-466.12C1219.76,-454.79 1307,-426.65 1307,-358 1307,-358 1307,-358 1307,-177 1307,-144.82 1311.3,-107.55 1314.26,-85.7"/>
<polygon fill="midnightblue" stroke="midnightblue" points="1317.76,-85.92 1315.69,-75.53 1310.83,-84.95 1317.76,-85.92"/>
</g>
<!-- Node41 -->
<g id="node33" class="node">
<title>Node41</title>
<g id="a_node33"><a xlink:href="fracture_8h.html" target="_top" xlink:title=" ">
<polygon fill="none" stroke="black" points="1335.5,-112.5 1335.5,-131.5 1436.5,-131.5 1436.5,-112.5 1335.5,-112.5"/>
<text text-anchor="middle" x="1386" y="-119.5" font-family="Arial" font-size="10.00">geometry/fracture.h</text>
</a>
</g>
</g>
<!-- Node1&#45;&gt;Node41 -->
<g id="edge70" class="edge">
<title>Node1&#45;&gt;Node41</title>
<path fill="none" stroke="midnightblue" d="M1157.81,-472.91C1236.88,-468.56 1365,-447.68 1365,-358 1365,-358 1365,-358 1365,-238.5 1365,-203.8 1374.29,-164.18 1380.51,-141.52"/>
<polygon fill="midnightblue" stroke="midnightblue" points="1383.96,-142.17 1383.34,-131.6 1377.23,-140.25 1383.96,-142.17"/>
</g>
<!-- Node3 -->
<g id="node3" class="node">
<title>Node3</title>
<g id="a_node3"><a xlink:href="influenceFn_8h.html" target="_top" xlink:title=" ">
<polygon fill="none" stroke="black" points="772.5,-168.5 772.5,-187.5 847.5,-187.5 847.5,-168.5 772.5,-168.5"/>
<text text-anchor="middle" x="810" y="-175.5" font-family="Arial" font-size="10.00">influenceFn.h</text>
</a>
</g>
</g>
<!-- Node2&#45;&gt;Node3 -->
<g id="edge2" class="edge">
<title>Node2&#45;&gt;Node3</title>
<path fill="none" stroke="midnightblue" d="M759.64,-224.4C769.63,-215.4 782.58,-203.72 792.85,-194.47"/>
<polygon fill="midnightblue" stroke="midnightblue" points="795.31,-196.95 800.4,-187.66 790.63,-191.75 795.31,-196.95"/>
</g>
<!-- Node5 -->
<g id="node5" class="node">
<title>Node5</title>
<g id="a_node5"><a xlink:href="point_8h.html" target="_top" xlink:title=" ">
<polygon fill="none" stroke="red" points="726,-56.5 726,-75.5 772,-75.5 772,-56.5 726,-56.5"/>
<text text-anchor="middle" x="749" y="-63.5" font-family="Arial" font-size="10.00">point.h</text>
</a>
</g>
</g>
<!-- Node2&#45;&gt;Node5 -->
<g id="edge26" class="edge">
<title>Node2&#45;&gt;Node5</title>
<path fill="none" stroke="midnightblue" d="M738.53,-224.3C730.22,-200.72 716.34,-152.11 726,-112 728.31,-102.42 733.02,-92.58 737.58,-84.56"/>
<polygon fill="midnightblue" stroke="midnightblue" points="740.69,-86.17 742.9,-75.81 734.71,-82.54 740.69,-86.17"/>
</g>
<!-- Node2&#45;&gt;Node10 -->
<g id="edge30" class="edge">
<title>Node2&#45;&gt;Node10</title>
<path fill="none" stroke="midnightblue" d="M791.01,-231.04C836.29,-222.79 900.08,-207.96 915,-188 920.32,-180.88 917.01,-176.66 915,-168 911.58,-153.27 866.86,-66.41 847.19,-28.58"/>
<polygon fill="midnightblue" stroke="midnightblue" points="850.28,-26.95 842.56,-19.7 844.08,-30.19 850.28,-26.95"/>
</g>
<!-- Node13 -->
<g id="node10" class="node">
<title>Node13</title>
<g id="a_node10"><a xlink:title=" ">
<polygon fill="none" stroke="#bfbfbf" points="160.5,-0.5 160.5,-19.5 201.5,-19.5 201.5,-0.5 160.5,-0.5"/>
<text text-anchor="middle" x="181" y="-7.5" font-family="Arial" font-size="10.00">string</text>
</a>
</g>
</g>
<!-- Node2&#45;&gt;Node13 -->
<g id="edge29" class="edge">
<title>Node2&#45;&gt;Node13</title>
<path fill="none" stroke="midnightblue" d="M696.99,-235.63C628.29,-230.59 496.89,-217.69 389,-188 326.77,-170.87 308.28,-168.43 255,-132 226.46,-112.49 218.56,-105.78 201,-76 192.47,-61.54 187.25,-43.09 184.29,-29.54"/>
<polygon fill="midnightblue" stroke="midnightblue" points="187.68,-28.65 182.31,-19.51 180.81,-30 187.68,-28.65"/>
</g>
<!-- Node18 -->
<g id="node14" class="node">
<title>Node18</title>
<g id="a_node14"><a xlink:href="materialDeck_8h.html" target="_top" xlink:title=" ">
<polygon fill="none" stroke="black" points="398,-168.5 398,-187.5 526,-187.5 526,-168.5 398,-168.5"/>
<text text-anchor="middle" x="462" y="-175.5" font-family="Arial" font-size="10.00">inp/decks/materialDeck.h</text>
</a>
</g>
</g>
<!-- Node2&#45;&gt;Node18 -->
<g id="edge18" class="edge">
<title>Node2&#45;&gt;Node18</title>
<path fill="none" stroke="midnightblue" d="M696.8,-228.54C645.79,-217.78 564.81,-200.69 512.54,-189.66"/>
<polygon fill="midnightblue" stroke="midnightblue" points="512.99,-186.18 502.49,-187.54 511.55,-193.03 512.99,-186.18"/>
</g>
<!-- Node19 -->
<g id="node15" class="node">
<title>Node19</title>
<g id="a_node15"><a xlink:href="function_8h.html" target="_top" xlink:title=" ">
<polygon fill="none" stroke="black" points="734.5,-112.5 734.5,-131.5 809.5,-131.5 809.5,-112.5 734.5,-112.5"/>
<text text-anchor="middle" x="772" y="-119.5" font-family="Arial" font-size="10.00">util/function.h</text>
</a>
</g>
</g>
<!-- Node2&#45;&gt;Node19 -->
<g id="edge23" class="edge">
<title>Node2&#45;&gt;Node19</title>
<path fill="none" stroke="midnightblue" d="M747.43,-224.34C752.48,-203.53 761.9,-164.66 767.49,-141.58"/>
<polygon fill="midnightblue" stroke="midnightblue" points="770.94,-142.21 769.9,-131.67 764.14,-140.56 770.94,-142.21"/>
</g>
<!-- Node20 -->
<g id="node16" class="node">
<title>Node20</title>
<g id="a_node16"><a xlink:title=" ">
<polygon fill="none" stroke="#bfbfbf" points="866,-168.5 866,-187.5 906,-187.5 906,-168.5 866,-168.5"/>
<text text-anchor="middle" x="886" y="-175.5" font-family="Arial" font-size="10.00">limits</text>
</a>
</g>
</g>
<!-- Node2&#45;&gt;Node20 -->
<g id="edge27" class="edge">
<title>Node2&#45;&gt;Node20</title>
<path fill="none" stroke="midnightblue" d="M777.65,-224.4C801.62,-214.36 833.53,-200.99 856.5,-191.36"/>
<polygon fill="midnightblue" stroke="midnightblue" points="857.88,-194.58 865.75,-187.48 855.18,-188.12 857.88,-194.58"/>
</g>
<!-- Node21 -->
<g id="node17" class="node">
<title>Node21</title>
<g id="a_node17"><a xlink:title=" ">
<polygon fill="none" stroke="#bfbfbf" points="214,-168.5 214,-187.5 266,-187.5 266,-168.5 214,-168.5"/>
<text text-anchor="middle" x="240" y="-175.5" font-family="Arial" font-size="10.00">memory</text>
</a>
</g>
</g>
<!-- Node2&#45;&gt;Node21 -->
<g id="edge28" class="edge">
<title>Node2&#45;&gt;Node21</title>
<path fill="none" stroke="midnightblue" d="M696.58,-232.9C596.51,-221.09 365.58,-193.83 276.23,-183.28"/>
<polygon fill="midnightblue" stroke="midnightblue" points="276.39,-179.77 266.05,-182.08 275.57,-186.72 276.39,-179.77"/>
</g>
<!-- Node4 -->
<g id="node4" class="node">
<title>Node4</title>
<g id="a_node4"><a xlink:href="io_8h.html" target="_top" xlink:title=" ">
<polygon fill="none" stroke="black" points="304,-112.5 304,-131.5 352,-131.5 352,-112.5 304,-112.5"/>
<text text-anchor="middle" x="328" y="-119.5" font-family="Arial" font-size="10.00">util/io.h</text>
</a>
</g>
</g>
<!-- Node3&#45;&gt;Node4 -->
<g id="edge3" class="edge">
<title>Node3&#45;&gt;Node4</title>
<path fill="none" stroke="midnightblue" d="M772.35,-174.86C695.54,-170.13 515.37,-157.15 366,-132 364.72,-131.78 363.42,-131.55 362.11,-131.3"/>
<polygon fill="midnightblue" stroke="midnightblue" points="362.53,-127.82 352.03,-129.19 361.1,-134.67 362.53,-127.82"/>
</g>
<!-- Node9 -->
<g id="node7" class="node">
<title>Node9</title>
<g id="a_node7"><a xlink:title=" ">
<polygon fill="none" stroke="#bfbfbf" points="557,-0.5 557,-19.5 611,-19.5 611,-0.5 557,-0.5"/>
<text text-anchor="middle" x="584" y="-7.5" font-family="Arial" font-size="10.00">iostream</text>
</a>
</g>
</g>
<!-- Node3&#45;&gt;Node9 -->
<g id="edge16" class="edge">
<title>Node3&#45;&gt;Node9</title>
<path fill="none" stroke="midnightblue" d="M791.32,-168.42C773.85,-160.07 747.32,-146.55 726,-132 676.99,-98.56 625.42,-51.03 600.04,-26.69"/>
<polygon fill="midnightblue" stroke="midnightblue" points="602.38,-24.08 592.76,-19.65 597.51,-29.11 602.38,-24.08"/>
</g>
<!-- Node3&#45;&gt;Node10 -->
<g id="edge17" class="edge">
<title>Node3&#45;&gt;Node10</title>
<path fill="none" stroke="midnightblue" d="M811.83,-168.39C813.73,-159.35 816.73,-144.71 819,-132 825.45,-95.84 831.85,-53.39 835.33,-29.6"/>
<polygon fill="midnightblue" stroke="midnightblue" points="838.81,-29.93 836.79,-19.53 831.89,-28.92 838.81,-29.93"/>
</g>
<!-- Node3&#45;&gt;Node17 -->
<g id="edge15" class="edge">
<title>Node3&#45;&gt;Node17</title>
<path fill="none" stroke="midnightblue" d="M847.64,-169.35C850.8,-168.84 853.95,-168.38 857,-168 922.05,-159.82 1399.27,-178 1446,-132 1457.95,-120.23 1457.74,-100.3 1455.44,-85.61"/>
<polygon fill="midnightblue" stroke="midnightblue" points="1458.84,-84.73 1453.45,-75.61 1451.97,-86.1 1458.84,-84.73"/>
</g>
<!-- Node4&#45;&gt;Node5 -->
<g id="edge4" class="edge">
<title>Node4&#45;&gt;Node5</title>
<path fill="none" stroke="midnightblue" d="M352.15,-117.9C423.62,-108.74 634.21,-81.72 716,-71.23"/>
<polygon fill="midnightblue" stroke="midnightblue" points="716.51,-74.7 725.99,-69.95 715.62,-67.75 716.51,-74.7"/>
</g>
<!-- Node4&#45;&gt;Node9 -->
<g id="edge12" class="edge">
<title>Node4&#45;&gt;Node9</title>
<path fill="none" stroke="midnightblue" d="M340.22,-112.37C359.84,-98.82 399.94,-72.43 437,-56 473.17,-39.96 516.74,-27.41 547.02,-19.68"/>
<polygon fill="midnightblue" stroke="midnightblue" points="547.89,-23.07 556.74,-17.25 546.19,-16.28 547.89,-23.07"/>
</g>
<!-- Node4&#45;&gt;Node10 -->
<g id="edge13" class="edge">
<title>Node4&#45;&gt;Node10</title>
<path fill="none" stroke="midnightblue" d="M352.26,-115.77C435.83,-97.74 711.84,-38.21 806.11,-17.88"/>
<polygon fill="midnightblue" stroke="midnightblue" points="806.89,-21.29 815.93,-15.76 805.41,-14.45 806.89,-21.29"/>
</g>
<!-- Node11 -->
<g id="node9" class="node">
<title>Node11</title>
<g id="a_node9"><a xlink:href="parallelUtil_8h.html" target="_top" xlink:title=" ">
<polygon fill="none" stroke="red" points="446.5,-56.5 446.5,-75.5 517.5,-75.5 517.5,-56.5 446.5,-56.5"/>
<text text-anchor="middle" x="482" y="-63.5" font-family="Arial" font-size="10.00">parallelUtil.h</text>
</a>
</g>
</g>
<!-- Node4&#45;&gt;Node11 -->
<g id="edge8" class="edge">
<title>Node4&#45;&gt;Node11</title>
<path fill="none" stroke="midnightblue" d="M352.06,-112.56C377.79,-103.54 418.8,-89.16 447.86,-78.97"/>
<polygon fill="midnightblue" stroke="midnightblue" points="449.32,-82.17 457.6,-75.56 447,-75.56 449.32,-82.17"/>
</g>
<!-- Node15 -->
<g id="node11" class="node">
<title>Node15</title>
<g id="a_node11"><a xlink:title=" ">
<polygon fill="none" stroke="#bfbfbf" points="302,-56.5 302,-75.5 352,-75.5 352,-56.5 302,-56.5"/>
<text text-anchor="middle" x="327" y="-63.5" font-family="Arial" font-size="10.00">fstream</text>
</a>
</g>
</g>
<!-- Node4&#45;&gt;Node15 -->
<g id="edge11" class="edge">
<title>Node4&#45;&gt;Node15</title>
<path fill="none" stroke="midnightblue" d="M327.83,-112.08C327.7,-105.01 327.52,-94.86 327.35,-85.99"/>
<polygon fill="midnightblue" stroke="midnightblue" points="330.85,-85.68 327.16,-75.75 323.85,-85.81 330.85,-85.68"/>
</g>
<!-- Node16 -->
<g id="node12" class="node">
<title>Node16</title>
<g id="a_node12"><a xlink:title=" ">
<polygon fill="none" stroke="#bfbfbf" points="228,-56.5 228,-75.5 284,-75.5 284,-56.5 228,-56.5"/>
<text text-anchor="middle" x="256" y="-63.5" font-family="Arial" font-size="10.00">algorithm</text>
</a>
</g>
</g>
<!-- Node4&#45;&gt;Node16 -->
<g id="edge14" class="edge">
<title>Node4&#45;&gt;Node16</title>
<path fill="none" stroke="midnightblue" d="M316.43,-112.32C305.58,-104.18 289.12,-91.84 276.12,-82.09"/>
<polygon fill="midnightblue" stroke="midnightblue" points="277.88,-79.03 267.78,-75.83 273.68,-84.63 277.88,-79.03"/>
</g>
<!-- Node6 -->
<g id="node6" class="node">
<title>Node6</title>
<g id="a_node6"><a xlink:title=" ">
<polygon fill="none" stroke="#bfbfbf" points="678,-0.5 678,-19.5 722,-19.5 722,-0.5 678,-0.5"/>
<text text-anchor="middle" x="700" y="-7.5" font-family="Arial" font-size="10.00">cmath</text>
</a>
</g>
</g>
<!-- Node5&#45;&gt;Node6 -->
<g id="edge5" class="edge">
<title>Node5&#45;&gt;Node6</title>
<path fill="none" stroke="midnightblue" d="M740.91,-56.08C733.84,-48.3 723.41,-36.8 714.85,-27.37"/>
<polygon fill="midnightblue" stroke="midnightblue" points="717.25,-24.8 707.94,-19.75 712.07,-29.51 717.25,-24.8"/>
</g>
<!-- Node5&#45;&gt;Node9 -->
<g id="edge6" class="edge">
<title>Node5&#45;&gt;Node9</title>
<path fill="none" stroke="midnightblue" d="M725.71,-57.38C698.22,-48.38 652.18,-33.31 620.06,-22.8"/>
<polygon fill="midnightblue" stroke="midnightblue" points="620.76,-19.35 610.17,-19.56 618.58,-26 620.76,-19.35"/>
</g>
<!-- Node5&#45;&gt;Node10 -->
<g id="edge7" class="edge">
<title>Node5&#45;&gt;Node10</title>
<path fill="none" stroke="midnightblue" d="M763.3,-56.32C777.18,-47.9 798.49,-34.97 814.8,-25.07"/>
<polygon fill="midnightblue" stroke="midnightblue" points="817,-27.83 823.74,-19.65 813.37,-21.85 817,-27.83"/>
</g>
<!-- Node11&#45;&gt;Node10 -->
<g id="edge10" class="edge">
<title>Node11&#45;&gt;Node10</title>
<path fill="none" stroke="midnightblue" d="M517.76,-58.42C522.54,-57.58 527.39,-56.75 532,-56 631.57,-39.72 749.82,-23.1 805.69,-15.4"/>
<polygon fill="midnightblue" stroke="midnightblue" points="806.26,-18.86 815.69,-14.03 805.31,-11.92 806.26,-18.86"/>
</g>
<!-- Node11&#45;&gt;Node13 -->
<g id="edge9" class="edge">
<title>Node11&#45;&gt;Node13</title>
<path fill="none" stroke="midnightblue" d="M446.29,-58.59C386.6,-47.89 267.6,-26.54 211.55,-16.48"/>
<polygon fill="midnightblue" stroke="midnightblue" points="211.99,-13 201.53,-14.68 210.75,-19.89 211.99,-13"/>
</g>
<!-- Node18&#45;&gt;Node4 -->
<g id="edge19" class="edge">
<title>Node18&#45;&gt;Node4</title>
<path fill="none" stroke="midnightblue" d="M440.77,-168.44C418.62,-159.52 383.68,-145.44 358.56,-135.32"/>
<polygon fill="midnightblue" stroke="midnightblue" points="359.72,-132.01 349.13,-131.52 357.1,-138.5 359.72,-132.01"/>
</g>
<!-- Node18&#45;&gt;Node6 -->
<g id="edge20" class="edge">
<title>Node18&#45;&gt;Node6</title>
<path fill="none" stroke="midnightblue" d="M465.46,-168.39C471.26,-154.88 484.09,-128.54 502,-112 551.64,-66.18 625.98,-35.79 668.03,-21.16"/>
<polygon fill="midnightblue" stroke="midnightblue" points="669.39,-24.39 677.74,-17.86 667.14,-17.77 669.39,-24.39"/>
</g>
<!-- Node18&#45;&gt;Node10 -->
<g id="edge22" class="edge">
<title>Node18&#45;&gt;Node10</title>
<path fill="none" stroke="midnightblue" d="M470.41,-168.38C483.99,-154.85 512.06,-128.48 540,-112 629.04,-59.49 749.26,-29.43 805.92,-17.31"/>
<polygon fill="midnightblue" stroke="midnightblue" points="806.67,-20.73 815.74,-15.26 805.24,-13.88 806.67,-20.73"/>
</g>
<!-- Node18&#45;&gt;Node13 -->
<g id="edge21" class="edge">
<title>Node18&#45;&gt;Node13</title>
<path fill="none" stroke="midnightblue" d="M411.31,-168.45C377.28,-161.49 332.06,-149.86 295,-132 257.2,-113.78 247.05,-107.2 219,-76 206.32,-61.9 195.81,-42.92 189.08,-29.11"/>
<polygon fill="midnightblue" stroke="midnightblue" points="192.1,-27.3 184.7,-19.72 185.76,-30.26 192.1,-27.3"/>
</g>
<!-- Node19&#45;&gt;Node5 -->
<g id="edge24" class="edge">
<title>Node19&#45;&gt;Node5</title>
<path fill="none" stroke="midnightblue" d="M768.2,-112.08C765.09,-104.77 760.58,-94.18 756.71,-85.1"/>
<polygon fill="midnightblue" stroke="midnightblue" points="759.87,-83.58 752.73,-75.75 753.43,-86.32 759.87,-83.58"/>
</g>
<!-- Node19&#45;&gt;Node10 -->
<g id="edge25" class="edge">
<title>Node19&#45;&gt;Node10</title>
<path fill="none" stroke="midnightblue" d="M777.18,-112.37C788.02,-94.3 813.29,-52.18 827.62,-28.31"/>
<polygon fill="midnightblue" stroke="midnightblue" points="830.7,-29.97 832.85,-19.59 824.7,-26.37 830.7,-29.97"/>
</g>
<!-- Node22&#45;&gt;Node10 -->
<g id="edge33" class="edge">
<title>Node22&#45;&gt;Node10</title>
<path fill="none" stroke="midnightblue" d="M457.06,-229.84C477.79,-220.85 509.9,-205.64 535,-188 575.39,-159.61 576.11,-141.08 616,-112 657.48,-81.76 670.37,-77.45 717,-56 746.53,-42.42 781.43,-29.78 806.14,-21.38"/>
<polygon fill="midnightblue" stroke="midnightblue" points="807.37,-24.66 815.74,-18.16 805.14,-18.02 807.37,-24.66"/>
</g>
<!-- Node22&#45;&gt;Node13 -->
<g id="edge32" class="edge">
<title>Node22&#45;&gt;Node13</title>
<path fill="none" stroke="midnightblue" d="M418.45,-229.87C389.21,-215.7 328.42,-187.17 275,-168 219.78,-148.19 183.38,-178.8 148,-132 127.63,-105.05 137.49,-88.1 148,-56 151.49,-45.34 158.57,-35.12 165.29,-27.12"/>
<polygon fill="midnightblue" stroke="midnightblue" points="167.9,-29.44 171.98,-19.66 162.7,-24.76 167.9,-29.44"/>
</g>
<!-- Node22&#45;&gt;Node21 -->
<g id="edge34" class="edge">
<title>Node22&#45;&gt;Node21</title>
<path fill="none" stroke="midnightblue" d="M407.92,-229.98C373.13,-219.42 313.82,-201.41 275.8,-189.87"/>
<polygon fill="midnightblue" stroke="midnightblue" points="276.74,-186.49 266.15,-186.94 274.7,-193.19 276.74,-186.49"/>
</g>
<!-- Node23&#45;&gt;Node5 -->
<g id="edge52" class="edge">
<title>Node23&#45;&gt;Node5</title>
<path fill="none" stroke="midnightblue" d="M587.32,-403.22C594.26,-394.51 604.56,-380.54 611,-367 623.92,-339.82 630,-332.1 630,-302 630,-302 630,-302 630,-177 630,-129.3 682.2,-96.53 717.46,-79.84"/>
<polygon fill="midnightblue" stroke="midnightblue" points="719.23,-82.88 726.9,-75.56 716.34,-76.5 719.23,-82.88"/>
</g>
<!-- Node24 -->
<g id="node20" class="node">
<title>Node24</title>
<g id="a_node20"><a xlink:href="particleLoading_8h.html" target="_top" xlink:title=" ">
<polygon fill="none" stroke="black" points="512,-347.5 512,-366.5 602,-366.5 602,-347.5 512,-347.5"/>
<text text-anchor="middle" x="557" y="-354.5" font-family="Arial" font-size="10.00">particleLoading.h</text>
</a>
</g>
</g>
<!-- Node23&#45;&gt;Node24 -->
<g id="edge36" class="edge">
<title>Node23&#45;&gt;Node24</title>
<path fill="none" stroke="midnightblue" d="M576.2,-403.08C573.09,-395.77 568.58,-385.18 564.71,-376.1"/>
<polygon fill="midnightblue" stroke="midnightblue" points="567.87,-374.58 560.73,-366.75 561.43,-377.32 567.87,-374.58"/>
</g>
<!-- Node24&#45;&gt;Node10 -->
<g id="edge38" class="edge">
<title>Node24&#45;&gt;Node10</title>
<path fill="none" stroke="midnightblue" d="M602.3,-351.54C685.15,-340.62 859.11,-304.28 930,-188 965.21,-130.24 893.12,-57.57 856.98,-26.37"/>
<polygon fill="midnightblue" stroke="midnightblue" points="858.96,-23.46 849.05,-19.7 854.45,-28.82 858.96,-23.46"/>
</g>
<!-- Node24&#45;&gt;Node13 -->
<g id="edge37" class="edge">
<title>Node24&#45;&gt;Node13</title>
<path fill="none" stroke="midnightblue" d="M511.89,-356.21C379.29,-355.62 0,-344.81 0,-240.5 0,-240.5 0,-240.5 0,-121 0,-51.51 98.64,-24.67 150.28,-15.38"/>
<polygon fill="midnightblue" stroke="midnightblue" points="150.96,-18.82 160.24,-13.7 149.79,-11.91 150.96,-18.82"/>
</g>
<!-- Node25 -->
<g id="node21" class="node">
<title>Node25</title>
<g id="a_node21"><a xlink:href="particleDeck_8h.html" target="_top" xlink:title=" ">
<polygon fill="none" stroke="black" points="147,-291.5 147,-310.5 277,-310.5 277,-291.5 147,-291.5"/>
<text text-anchor="middle" x="212" y="-298.5" font-family="Arial" font-size="10.00">inp/pdecks/particleDeck.h</text>
</a>
</g>
</g>
<!-- Node24&#45;&gt;Node25 -->
<g id="edge39" class="edge">
<title>Node24&#45;&gt;Node25</title>
<path fill="none" stroke="midnightblue" d="M511.9,-348.94C451.87,-339.55 345.35,-322.87 276.75,-312.13"/>
<polygon fill="midnightblue" stroke="midnightblue" points="276.92,-308.62 266.5,-310.53 275.84,-315.53 276.92,-308.62"/>
</g>
<!-- Node25&#45;&gt;Node21 -->
<g id="edge51" class="edge">
<title>Node25&#45;&gt;Node21</title>
<path fill="none" stroke="midnightblue" d="M214.01,-291.3C218.53,-271.76 229.57,-224.06 235.71,-197.55"/>
<polygon fill="midnightblue" stroke="midnightblue" points="239.16,-198.15 238,-187.62 232.34,-196.58 239.16,-198.15"/>
</g>
<!-- Node26 -->
<g id="node22" class="node">
<title>Node26</title>
<g id="a_node22"><a xlink:href="zoneDeck_8h.html" target="_top" xlink:title=" ">
<polygon fill="none" stroke="red" points="270.5,-230 270.5,-249 339.5,-249 339.5,-230 270.5,-230"/>
<text text-anchor="middle" x="305" y="-237" font-family="Arial" font-size="10.00">zoneDeck.h</text>
</a>
</g>
</g>
<!-- Node25&#45;&gt;Node26 -->
<g id="edge40" class="edge">
<title>Node25&#45;&gt;Node26</title>
<path fill="none" stroke="midnightblue" d="M225.32,-291.48C240.38,-281.84 265.12,-266.02 283.04,-254.55"/>
<polygon fill="midnightblue" stroke="midnightblue" points="285.16,-257.35 291.7,-249.01 281.39,-251.45 285.16,-257.35"/>
</g>
<!-- Node31 -->
<g id="node23" class="node">
<title>Node31</title>
<g id="a_node23"><a xlink:href="pNeighborDeck_8h.html" target="_top" xlink:title=" ">
<polygon fill="none" stroke="black" points="66,-168.5 66,-187.5 158,-187.5 158,-168.5 66,-168.5"/>
<text text-anchor="middle" x="112" y="-175.5" font-family="Arial" font-size="10.00">pNeighborDeck.h</text>
</a>
</g>
</g>
<!-- Node25&#45;&gt;Node31 -->
<g id="edge44" class="edge">
<title>Node25&#45;&gt;Node31</title>
<path fill="none" stroke="midnightblue" d="M190.38,-291.42C174.19,-283.99 152.57,-271.79 139,-255 125.55,-238.37 118.54,-214.53 115.07,-198"/>
<polygon fill="midnightblue" stroke="midnightblue" points="118.46,-197.1 113.2,-187.91 111.58,-198.38 118.46,-197.1"/>
</g>
<!-- Node32 -->
<g id="node24" class="node">
<title>Node32</title>
<g id="a_node24"><a xlink:href="pBCData_8h.html" target="_top" xlink:title=" ">
<polygon fill="none" stroke="red" points="148.5,-230 148.5,-249 213.5,-249 213.5,-230 148.5,-230"/>
<text text-anchor="middle" x="181" y="-237" font-family="Arial" font-size="10.00">pBCData.h</text>
</a>
</g>
</g>
<!-- Node25&#45;&gt;Node32 -->
<g id="edge46" class="edge">
<title>Node25&#45;&gt;Node32</title>
<path fill="none" stroke="midnightblue" d="M207.56,-291.48C203.05,-282.82 195.93,-269.15 190.19,-258.15"/>
<polygon fill="midnightblue" stroke="midnightblue" points="193.16,-256.26 185.43,-249.01 186.95,-259.49 193.16,-256.26"/>
</g>
<!-- Node33 -->
<g id="node25" class="node">
<title>Node33</title>
<g id="a_node25"><a xlink:href="pICDeck_8h.html" target="_top" xlink:title=" ">
<polygon fill="none" stroke="black" points="28,-230 28,-249 92,-249 92,-230 28,-230"/>
<text text-anchor="middle" x="60" y="-237" font-family="Arial" font-size="10.00">pICDeck.h</text>
</a>
</g>
</g>
<!-- Node25&#45;&gt;Node33 -->
<g id="edge49" class="edge">
<title>Node25&#45;&gt;Node33</title>
<path fill="none" stroke="midnightblue" d="M190.22,-291.48C164.26,-281.31 120.69,-264.26 91.17,-252.7"/>
<polygon fill="midnightblue" stroke="midnightblue" points="92.33,-249.4 81.74,-249.01 89.77,-255.91 92.33,-249.4"/>
</g>
<!-- Node26&#45;&gt;Node4 -->
<g id="edge42" class="edge">
<title>Node26&#45;&gt;Node4</title>
<path fill="none" stroke="midnightblue" d="M306.73,-229.82C310.44,-211.17 319.25,-166.94 324.29,-141.63"/>
<polygon fill="midnightblue" stroke="midnightblue" points="327.73,-142.27 326.25,-131.78 320.87,-140.91 327.73,-142.27"/>
</g>
<!-- Node26&#45;&gt;Node18 -->
<g id="edge41" class="edge">
<title>Node26&#45;&gt;Node18</title>
<path fill="none" stroke="midnightblue" d="M327.49,-229.98C354.31,-219.81 399.32,-202.76 429.81,-191.2"/>
<polygon fill="midnightblue" stroke="midnightblue" points="431.44,-194.33 439.55,-187.51 428.96,-187.78 431.44,-194.33"/>
</g>
<!-- Node26&#45;&gt;Node21 -->
<g id="edge43" class="edge">
<title>Node26&#45;&gt;Node21</title>
<path fill="none" stroke="midnightblue" d="M295.69,-229.98C285.55,-220.7 269.14,-205.67 256.75,-194.33"/>
<polygon fill="midnightblue" stroke="midnightblue" points="259.04,-191.68 249.3,-187.51 254.31,-196.84 259.04,-191.68"/>
</g>
<!-- Node31&#45;&gt;Node4 -->
<g id="edge45" class="edge">
<title>Node31&#45;&gt;Node4</title>
<path fill="none" stroke="midnightblue" d="M146.23,-168.44C186.72,-158.32 253.7,-141.57 294.07,-131.48"/>
<polygon fill="midnightblue" stroke="midnightblue" points="295.11,-134.83 303.97,-129.01 293.42,-128.04 295.11,-134.83"/>
</g>
<!-- Node32&#45;&gt;Node4 -->
<g id="edge47" class="edge">
<title>Node32&#45;&gt;Node4</title>
<path fill="none" stroke="midnightblue" d="M181.58,-229.9C183.03,-215.25 188.01,-185.38 205,-168 228.68,-143.78 266.45,-132.51 293.89,-127.32"/>
<polygon fill="midnightblue" stroke="midnightblue" points="294.59,-130.75 303.86,-125.61 293.41,-123.85 294.59,-130.75"/>
</g>
<!-- Node32&#45;&gt;Node21 -->
<g id="edge48" class="edge">
<title>Node32&#45;&gt;Node21</title>
<path fill="none" stroke="midnightblue" d="M189.45,-229.98C198.57,-220.78 213.27,-205.96 224.48,-194.66"/>
<polygon fill="midnightblue" stroke="midnightblue" points="227.01,-197.07 231.56,-187.51 222.04,-192.15 227.01,-197.07"/>
</g>
<!-- Node33&#45;&gt;Node4 -->
<g id="edge50" class="edge">
<title>Node33&#45;&gt;Node4</title>
<path fill="none" stroke="midnightblue" d="M56.33,-229.94C50.71,-215.35 42.11,-185.57 57,-168 86.94,-132.68 227.39,-125.05 293.47,-123.43"/>
<polygon fill="midnightblue" stroke="midnightblue" points="293.86,-126.92 303.78,-123.21 293.71,-119.92 293.86,-126.92"/>
</g>
<!-- Node34&#45;&gt;Node5 -->
<g id="edge55" class="edge">
<title>Node34&#45;&gt;Node5</title>
<path fill="none" stroke="midnightblue" d="M720.26,-403.49C703.39,-386.12 668,-344.58 668,-302 668,-302 668,-302 668,-177 668,-136.45 704.14,-100.99 728.14,-81.91"/>
<polygon fill="midnightblue" stroke="midnightblue" points="730.52,-84.5 736.34,-75.65 726.27,-78.94 730.52,-84.5"/>
</g>
<!-- Node34&#45;&gt;Node24 -->
<g id="edge54" class="edge">
<title>Node34&#45;&gt;Node24</title>
<path fill="none" stroke="midnightblue" d="M701.75,-403.44C672.56,-394.28 626.08,-379.69 593.69,-369.52"/>
<polygon fill="midnightblue" stroke="midnightblue" points="594.72,-366.17 584.13,-366.52 592.62,-372.85 594.72,-366.17"/>
</g>
<!-- Node35&#45;&gt;Node5 -->
<g id="edge57" class="edge">
<title>Node35&#45;&gt;Node5</title>
<path fill="none" stroke="midnightblue" d="M1132.24,-168.44C1091.46,-159.9 1027.73,-146.05 973,-132 904.56,-114.43 825.34,-90.61 781.84,-77.22"/>
<polygon fill="midnightblue" stroke="midnightblue" points="782.67,-73.82 772.09,-74.21 780.61,-80.51 782.67,-73.82"/>
</g>
<!-- Node35&#45;&gt;Node10 -->
<g id="edge66" class="edge">
<title>Node35&#45;&gt;Node10</title>
<path fill="none" stroke="midnightblue" d="M1169.38,-168.27C1164.85,-159.38 1158.04,-145.07 1154,-132 1143.84,-99.19 1164.7,-79.87 1140,-56 1102.02,-19.3 940.18,-12.47 870.32,-11.24"/>
<polygon fill="midnightblue" stroke="midnightblue" points="870.37,-7.74 860.32,-11.1 870.27,-14.74 870.37,-7.74"/>
</g>
<!-- Node35&#45;&gt;Node13 -->
<g id="edge65" class="edge">
<title>Node35&#45;&gt;Node13</title>
<path fill="none" stroke="midnightblue" d="M1125.43,-173.58C1043.01,-167.46 870.63,-153.23 726,-132 596.55,-113 564.55,-105.11 437,-76 402.95,-68.23 394.83,-64.68 361,-56 308.46,-42.52 247.17,-27.31 211.36,-18.47"/>
<polygon fill="midnightblue" stroke="midnightblue" points="212.08,-15.04 201.54,-16.05 210.41,-21.84 212.08,-15.04"/>
</g>
<!-- Node36 -->
<g id="node28" class="node">
<title>Node36</title>
<g id="a_node28"><a xlink:href="methods_8h.html" target="_top" xlink:title=" ">
<polygon fill="none" stroke="black" points="1163,-112.5 1163,-131.5 1241,-131.5 1241,-112.5 1163,-112.5"/>
<text text-anchor="middle" x="1202" y="-119.5" font-family="Arial" font-size="10.00">util/methods.h</text>
</a>
</g>
</g>
<!-- Node35&#45;&gt;Node36 -->
<g id="edge58" class="edge">
<title>Node35&#45;&gt;Node36</title>
<path fill="none" stroke="midnightblue" d="M1178.62,-168.08C1182.46,-160.69 1188.02,-149.95 1192.76,-140.81"/>
<polygon fill="midnightblue" stroke="midnightblue" points="1195.97,-142.24 1197.46,-131.75 1189.75,-139.02 1195.97,-142.24"/>
</g>
<!-- Node35&#45;&gt;Node37 -->
<g id="edge64" class="edge">
<title>Node35&#45;&gt;Node37</title>
<path fill="none" stroke="midnightblue" d="M1191.03,-168.41C1206.93,-160.06 1230.99,-146.52 1250,-132 1269.59,-117.03 1289.56,-96.9 1302.54,-83.02"/>
<polygon fill="midnightblue" stroke="midnightblue" points="1305.12,-85.39 1309.32,-75.66 1299.97,-80.65 1305.12,-85.39"/>
</g>
<!-- Node39 -->
<g id="node31" class="node">
<title>Node39</title>
<g id="a_node31"><a xlink:href="nflannSetup_8h.html" target="_top" xlink:title=" ">
<polygon fill="none" stroke="black" points="981.5,-112.5 981.5,-131.5 1058.5,-131.5 1058.5,-112.5 981.5,-112.5"/>
<text text-anchor="middle" x="1020" y="-119.5" font-family="Arial" font-size="10.00">nflannSetup.h</text>
</a>
</g>
</g>
<!-- Node35&#45;&gt;Node39 -->
<g id="edge67" class="edge">
<title>Node35&#45;&gt;Node39</title>
<path fill="none" stroke="midnightblue" d="M1149.6,-168.44C1123.8,-159.4 1082.92,-145.06 1053.98,-134.92"/>
<polygon fill="midnightblue" stroke="midnightblue" points="1054.88,-131.52 1044.29,-131.52 1052.57,-138.13 1054.88,-131.52"/>
</g>
<!-- Node36&#45;&gt;Node5 -->
<g id="edge59" class="edge">
<title>Node36&#45;&gt;Node5</title>
<path fill="none" stroke="midnightblue" d="M1162.99,-116.35C1075.3,-105.9 863.92,-80.7 782.11,-70.95"/>
<polygon fill="midnightblue" stroke="midnightblue" points="782.46,-67.46 772.12,-69.76 781.64,-74.42 782.46,-67.46"/>
</g>
<!-- Node36&#45;&gt;Node10 -->
<g id="edge62" class="edge">
<title>Node36&#45;&gt;Node10</title>
<path fill="none" stroke="midnightblue" d="M1201.52,-112.21C1200.23,-97.95 1195.48,-69.97 1178,-56 1131.01,-18.44 946.38,-12.14 870.66,-11.15"/>
<polygon fill="midnightblue" stroke="midnightblue" points="870.35,-7.65 860.31,-11.04 870.27,-14.65 870.35,-7.65"/>
</g>
<!-- Node36&#45;&gt;Node17 -->
<g id="edge61" class="edge">
<title>Node36&#45;&gt;Node17</title>
<path fill="none" stroke="midnightblue" d="M1241.18,-112.5C1289.84,-101.95 1372.02,-84.13 1417.75,-74.21"/>
<polygon fill="midnightblue" stroke="midnightblue" points="1418.71,-77.58 1427.74,-72.04 1417.23,-70.74 1418.71,-77.58"/>
</g>
<!-- Node36&#45;&gt;Node37 -->
<g id="edge60" class="edge">
<title>Node36&#45;&gt;Node37</title>
<path fill="none" stroke="midnightblue" d="M1220.22,-112.44C1238.9,-103.68 1268.16,-89.94 1289.62,-79.86"/>
<polygon fill="midnightblue" stroke="midnightblue" points="1291.3,-82.93 1298.86,-75.52 1288.32,-76.6 1291.3,-82.93"/>
</g>
<!-- Node38 -->
<g id="node30" class="node">
<title>Node38</title>
<g id="a_node30"><a xlink:title=" ">
<polygon fill="none" stroke="#bfbfbf" points="1230,-56.5 1230,-75.5 1276,-75.5 1276,-56.5 1230,-56.5"/>
<text text-anchor="middle" x="1253" y="-63.5" font-family="Arial" font-size="10.00">chrono</text>
</a>
</g>
</g>
<!-- Node36&#45;&gt;Node38 -->
<g id="edge63" class="edge">
<title>Node36&#45;&gt;Node38</title>
<path fill="none" stroke="midnightblue" d="M1210.42,-112.08C1217.85,-104.22 1228.85,-92.57 1237.81,-83.08"/>
<polygon fill="midnightblue" stroke="midnightblue" points="1240.41,-85.42 1244.74,-75.75 1235.32,-80.62 1240.41,-85.42"/>
</g>
<!-- Node39&#45;&gt;Node5 -->
<g id="edge68" class="edge">
<title>Node39&#45;&gt;Node5</title>
<path fill="none" stroke="midnightblue" d="M981.46,-113.32C928.12,-102.69 832.68,-83.67 782.28,-73.63"/>
<polygon fill="midnightblue" stroke="midnightblue" points="782.73,-70.15 772.24,-71.63 781.36,-77.02 782.73,-70.15"/>
</g>
<!-- Node40 -->
<g id="node32" class="node">
<title>Node40</title>
<g id="a_node32"><a xlink:title=" ">
<polygon fill="none" stroke="#bfbfbf" points="942,-56.5 942,-75.5 1098,-75.5 1098,-56.5 942,-56.5"/>
<text text-anchor="middle" x="1020" y="-63.5" font-family="Arial" font-size="10.00">nanoflann/include/nanoflann.hpp</text>
</a>
</g>
</g>
<!-- Node39&#45;&gt;Node40 -->
<g id="edge69" class="edge">
<title>Node39&#45;&gt;Node40</title>
<path fill="none" stroke="midnightblue" d="M1020,-112.08C1020,-105.01 1020,-94.86 1020,-85.99"/>
<polygon fill="midnightblue" stroke="midnightblue" points="1023.5,-85.75 1020,-75.75 1016.5,-85.75 1023.5,-85.75"/>
</g>
<!-- Node41&#45;&gt;Node5 -->
<g id="edge71" class="edge">
<title>Node41&#45;&gt;Node5</title>
<path fill="none" stroke="midnightblue" d="M1335.48,-116.72C1210.02,-106.08 886.82,-78.68 782.21,-69.82"/>
<polygon fill="midnightblue" stroke="midnightblue" points="782.48,-66.33 772.22,-68.97 781.89,-73.3 782.48,-66.33"/>
</g>
<!-- Node41&#45;&gt;Node10 -->
<g id="edge74" class="edge">
<title>Node41&#45;&gt;Node10</title>
<path fill="none" stroke="midnightblue" d="M1383.9,-112.47C1379.87,-98.06 1369.54,-69.19 1349,-56 1308.74,-30.16 976.07,-16 870.21,-12.11"/>
<polygon fill="midnightblue" stroke="midnightblue" points="870.25,-8.61 860.13,-11.75 870,-15.61 870.25,-8.61"/>
</g>
<!-- Node41&#45;&gt;Node17 -->
<g id="edge73" class="edge">
<title>Node41&#45;&gt;Node17</title>
<path fill="none" stroke="midnightblue" d="M1396.44,-112.32C1406.15,-104.26 1420.82,-92.08 1432.5,-82.37"/>
<polygon fill="midnightblue" stroke="midnightblue" points="1434.91,-84.92 1440.37,-75.83 1430.44,-79.53 1434.91,-84.92"/>
</g>
<!-- Node41&#45;&gt;Node37 -->
<g id="edge72" class="edge">
<title>Node41&#45;&gt;Node37</title>
<path fill="none" stroke="midnightblue" d="M1374.91,-112.32C1364.51,-104.18 1348.74,-91.84 1336.28,-82.09"/>
<polygon fill="midnightblue" stroke="midnightblue" points="1338.32,-79.24 1328.29,-75.83 1334.01,-84.75 1338.32,-79.24"/>
</g>
</g>
</svg>
