<?xml version="1.0" encoding="UTF-8" standalone="no"?>
<!DOCTYPE svg PUBLIC "-//W3C//DTD SVG 1.1//EN"
 "http://www.w3.org/Graphics/SVG/1.1/DTD/svg11.dtd">
<!-- Generated by graphviz version 2.43.0 (0)
 -->
<!-- Title: /home/user/project/src/rw/mshWriter.h Pages: 1 -->
<svg width="238pt" height="106pt"
 viewBox="0.00 0.00 237.50 106.00" xmlns="http://www.w3.org/2000/svg" xmlns:xlink="http://www.w3.org/1999/xlink">
<g id="graph0" class="graph" transform="scale(1 1) rotate(0) translate(4 102)">
<title>/home/user/project/src/rw/mshWriter.h</title>
<!-- Node1 -->
<g id="node1" class="node">
<title>Node1</title>
<g id="a_node1"><a xlink:title=" ">
<polygon fill="#bfbfbf" stroke="black" points="67.5,-67.5 67.5,-97.5 169.5,-97.5 169.5,-67.5 67.5,-67.5"/>
<text text-anchor="start" x="75.5" y="-85.5" font-family="Arial" font-size="10.00">/home/user/project</text>
<text text-anchor="middle" x="118.5" y="-74.5" font-family="Arial" font-size="10.00">/src/rw/mshWriter.h</text>
</a>
</g>
</g>
<!-- Node2 -->
<g id="node2" class="node">
<title>Node2</title>
<g id="a_node2"><a xlink:href="mshWriter_8cpp.html" target="_top" xlink:title=" ">
<polygon fill="none" stroke="black" points="0,-0.5 0,-30.5 113,-30.5 113,-0.5 0,-0.5"/>
<text text-anchor="start" x="8" y="-18.5" font-family="Arial" font-size="10.00">/home/user/project</text>
<text text-anchor="middle" x="56.5" y="-7.5" font-family="Arial" font-size="10.00">/src/rw/mshWriter.cpp</text>
</a>
</g>
</g>
<!-- Node1&#45;&gt;Node2 -->
<g id="edge1" class="edge">
<title>Node1&#45;&gt;Node2</title>
<path fill="none" stroke="midnightblue" d="M98.02,-60.02C88.78,-50.34 78.13,-39.17 69.93,-30.58"/>
<polygon fill="midnightblue" stroke="midnightblue" points="95.61,-62.58 105.05,-67.4 100.68,-57.74 95.61,-62.58"/>
</g>
<!-- Node3 -->
<g id="node3" class="node">
<title>Node3</title>
<g id="a_node3"><a xlink:href="writer_8cpp.html" target="_top" xlink:title=" ">
<polygon fill="none" stroke="black" points="131.5,-0.5 131.5,-30.5 229.5,-30.5 229.5,-0.5 131.5,-0.5"/>
<text text-anchor="start" x="139.5" y="-18.5" font-family="Arial" font-size="10.00">/home/user/project</text>
<text text-anchor="middle" x="180.5" y="-7.5" font-family="Arial" font-size="10.00">/src/rw/writer.cpp</text>
</a>
</g>
</g>
<!-- Node1&#45;&gt;Node3 -->
<g id="edge2" class="edge">
<title>Node1&#45;&gt;Node3</title>
<path fill="none" stroke="midnightblue" d="M138.98,-60.02C148.22,-50.34 158.87,-39.17 167.07,-30.58"/>
<polygon fill="midnightblue" stroke="midnightblue" points="136.32,-57.74 131.95,-67.4 141.39,-62.58 136.32,-57.74"/>
</g>
</g>
</svg>
