<?xml version="1.0" encoding="UTF-8" standalone="no"?>
<!DOCTYPE svg PUBLIC "-//W3C//DTD SVG 1.1//EN"
 "http://www.w3.org/Graphics/SVG/1.1/DTD/svg11.dtd">
<!-- Generated by graphviz version 2.43.0 (0)
 -->
<!-- Title: problem_setup.does_particle_intersect Pages: 1 -->
<svg width="269pt" height="56pt"
 viewBox="0.00 0.00 269.00 56.00" xmlns="http://www.w3.org/2000/svg" xmlns:xlink="http://www.w3.org/1999/xlink">
<g id="graph0" class="graph" transform="scale(1 1) rotate(0) translate(4 52)">
<title>problem_setup.does_particle_intersect</title>
<!-- Node1 -->
<g id="Node000001" class="node">
<title>Node1</title>
<g id="a_Node000001"><a xlink:title=" ">
<polygon fill="#999999" stroke="#666666" points="104,-30 0,-30 0,0 104,0 104,-30"/>
<text text-anchor="start" x="8" y="-18" font-family="Arial" font-size="10.00">problem_setup.does</text>
<text text-anchor="middle" x="52" y="-7" font-family="Arial" font-size="10.00">_particle_intersect</text>
</a>
</g>
</g>
<!-- Node1&#45;&gt;Node1 -->
<g id="edge1_Node000001_Node000001" class="edge">
<title>Node1&#45;&gt;Node1</title>
<g id="a_edge1_Node000001_Node000001"><a xlink:title=" ">
<path fill="none" stroke="#63b8ff" d="M25.98,-30.28C20.2,-39.41 28.88,-48 52,-48 65.73,-48 74.37,-44.97 77.91,-40.6"/>
<polygon fill="#63b8ff" stroke="#63b8ff" points="81.41,-40.31 78.02,-30.28 74.41,-40.24 81.41,-40.31"/>
</a>
</g>
</g>
<!-- Node2 -->
<g id="Node000002" class="node">
<title>Node2</title>
<g id="a_Node000002"><a xlink:href="namespaceproblem__setup.html#a994bc08b964e2a925cf8160befb6d215" target="_top" xlink:title=" ">
<polygon fill="white" stroke="#666666" points="261,-24.5 140,-24.5 140,-5.5 261,-5.5 261,-24.5"/>
<text text-anchor="middle" x="200.5" y="-12.5" font-family="Arial" font-size="10.00">problem_setup.get_max</text>
</a>
</g>
</g>
<!-- Node1&#45;&gt;Node2 -->
<g id="edge2_Node000001_Node000002" class="edge">
<title>Node1&#45;&gt;Node2</title>
<g id="a_edge2_Node000001_Node000002"><a xlink:title=" ">
<path fill="none" stroke="#63b8ff" d="M104.24,-15C112.48,-15 121.14,-15 129.73,-15"/>
<polygon fill="#63b8ff" stroke="#63b8ff" points="129.75,-18.5 139.75,-15 129.75,-11.5 129.75,-18.5"/>
</a>
</g>
</g>
</g>
</svg>
