<?xml version="1.0" encoding="UTF-8" standalone="no"?>
<!DOCTYPE svg PUBLIC "-//W3C//DTD SVG 1.1//EN"
 "http://www.w3.org/Graphics/SVG/1.1/DTD/svg11.dtd">
<!-- Generated by graphviz version 2.43.0 (0)
 -->
<!-- Title: test::testQuadElem Pages: 1 -->
<svg width="296pt" height="198pt"
 viewBox="0.00 0.00 296.00 197.50" xmlns="http://www.w3.org/2000/svg" xmlns:xlink="http://www.w3.org/1999/xlink">
<g id="graph0" class="graph" transform="scale(1 1) rotate(0) translate(4 193.5)">
<title>test::testQuadElem</title>
<!-- Node1 -->
<g id="node1" class="node">
<title>Node1</title>
<g id="a_node1"><a xlink:title="Perform test on quadrature points on quadrangle elements.">
<polygon fill="#bfbfbf" stroke="black" points="0,-79 0,-98 101,-98 101,-79 0,-79"/>
<text text-anchor="middle" x="50.5" y="-86" font-family="Arial" font-size="10.00">test::testQuadElem</text>
</a>
</g>
</g>
<!-- Node2 -->
<g id="node2" class="node">
<title>Node2</title>
<g id="a_node2"><a xlink:href="namespaceanonymous__namespace_02testFeLib_8cpp_03.html#aa92ae926fb55e90398f0e9c80eb9ef5a" target="_top" xlink:title=" ">
<polygon fill="none" stroke="black" points="146,-148 146,-189 279,-189 279,-148 146,-148"/>
<text text-anchor="start" x="154" y="-177" font-family="Arial" font-size="10.00">anonymous_namespace</text>
<text text-anchor="start" x="154" y="-166" font-family="Arial" font-size="10.00">{testFeLib::cpp}::checkRef</text>
<text text-anchor="middle" x="212.5" y="-155" font-family="Arial" font-size="10.00">Integration</text>
</a>
</g>
</g>
<!-- Node1&#45;&gt;Node2 -->
<g id="edge1" class="edge">
<title>Node1&#45;&gt;Node2</title>
<path fill="none" stroke="midnightblue" d="M66.27,-98.03C83.03,-108.64 111.37,-125.93 137,-138.5 140.73,-140.33 144.61,-142.14 148.54,-143.91"/>
<polygon fill="midnightblue" stroke="midnightblue" points="147.21,-147.15 157.77,-147.96 150.02,-140.74 147.21,-147.15"/>
</g>
<!-- Node3 -->
<g id="node3" class="node">
<title>Node3</title>
<g id="a_node3"><a xlink:href="namespacetest.html#a56b3ad312ab9aaa185b9b1507fbb1a43" target="_top" xlink:title="Computes integration of polynomial exactly over reference quadrangle.">
<polygon fill="none" stroke="black" points="150.5,-98.5 150.5,-128.5 274.5,-128.5 274.5,-98.5 150.5,-98.5"/>
<text text-anchor="start" x="158.5" y="-116.5" font-family="Arial" font-size="10.00">test::getExactIntegration</text>
<text text-anchor="middle" x="212.5" y="-105.5" font-family="Arial" font-size="10.00">RefQuad</text>
</a>
</g>
</g>
<!-- Node1&#45;&gt;Node3 -->
<g id="edge2" class="edge">
<title>Node1&#45;&gt;Node3</title>
<path fill="none" stroke="midnightblue" d="M101.25,-96.27C113.6,-98.2 127.08,-100.31 140.25,-102.37"/>
<polygon fill="midnightblue" stroke="midnightblue" points="139.81,-105.84 150.23,-103.93 140.89,-98.92 139.81,-105.84"/>
</g>
<!-- Node4 -->
<g id="node4" class="node">
<title>Node4</title>
<g id="a_node4"><a xlink:href="namespaceanonymous__namespace_02testFeLib_8cpp_03.html#a5a1fb22090fa2e6dceff4f43acc7a015" target="_top" xlink:title=" ">
<polygon fill="none" stroke="black" points="137,-49.5 137,-79.5 288,-79.5 288,-49.5 137,-49.5"/>
<text text-anchor="start" x="145" y="-67.5" font-family="Arial" font-size="10.00">anonymous_namespace</text>
<text text-anchor="middle" x="212.5" y="-56.5" font-family="Arial" font-size="10.00">{testFeLib::cpp}::readElements</text>
</a>
</g>
</g>
<!-- Node1&#45;&gt;Node4 -->
<g id="edge3" class="edge">
<title>Node1&#45;&gt;Node4</title>
<path fill="none" stroke="midnightblue" d="M101.25,-81.04C109.45,-79.81 118.14,-78.5 126.91,-77.19"/>
<polygon fill="midnightblue" stroke="midnightblue" points="127.45,-80.65 136.82,-75.7 126.41,-73.72 127.45,-80.65"/>
</g>
<!-- Node5 -->
<g id="node5" class="node">
<title>Node5</title>
<g id="a_node5"><a xlink:href="namespaceanonymous__namespace_02testFeLib_8cpp_03.html#a7d6fdb37153e1d548efc6e79d9c61138" target="_top" xlink:title=" ">
<polygon fill="none" stroke="black" points="143.5,-0.5 143.5,-30.5 281.5,-30.5 281.5,-0.5 143.5,-0.5"/>
<text text-anchor="start" x="151.5" y="-18.5" font-family="Arial" font-size="10.00">anonymous_namespace</text>
<text text-anchor="middle" x="212.5" y="-7.5" font-family="Arial" font-size="10.00">{testFeLib::cpp}::readNodes</text>
</a>
</g>
</g>
<!-- Node1&#45;&gt;Node5 -->
<g id="edge4" class="edge">
<title>Node1&#45;&gt;Node5</title>
<path fill="none" stroke="midnightblue" d="M66.5,-78.94C83.23,-68.54 111.33,-51.89 137,-40.5 141.99,-38.29 147.24,-36.15 152.54,-34.13"/>
<polygon fill="midnightblue" stroke="midnightblue" points="153.93,-37.35 162.11,-30.62 151.51,-30.78 153.93,-37.35"/>
</g>
</g>
</svg>
