<?xml version="1.0" encoding="UTF-8" standalone="no"?>
<!DOCTYPE svg PUBLIC "-//W3C//DTD SVG 1.1//EN"
 "http://www.w3.org/Graphics/SVG/1.1/DTD/svg11.dtd">
<!-- Generated by graphviz version 2.43.0 (0)
 -->
<!-- Title: problem_setup.generate_cir_particle_gmsh_input Pages: 1 -->
<svg width="846pt" height="627pt"
 viewBox="0.00 0.00 846.00 627.37" xmlns="http://www.w3.org/2000/svg" xmlns:xlink="http://www.w3.org/1999/xlink">
<g id="graph0" class="graph" transform="scale(1 1) rotate(0) translate(4 623.37)">
<title>problem_setup.generate_cir_particle_gmsh_input</title>
<!-- Node1 -->
<g id="node1" class="node">
<title>Node1</title>
<g id="a_node1"><a xlink:title=" ">
<polygon fill="#bfbfbf" stroke="black" points="713,-207.87 713,-237.87 838,-237.87 838,-207.87 713,-207.87"/>
<text text-anchor="start" x="721" y="-225.87" font-family="Arial" font-size="10.00">problem_setup.generate</text>
<text text-anchor="middle" x="775.5" y="-214.87" font-family="Arial" font-size="10.00">_cir_particle_gmsh_input</text>
</a>
</g>
</g>
<!-- Node2 -->
<g id="node2" class="node">
<title>Node2</title>
<g id="a_node2"><a xlink:href="namespaceproblem__setup.html#a64e067098e447f766d042476ef5abe85" target="_top" xlink:title=" ">
<polygon fill="none" stroke="black" points="556.5,-363.87 556.5,-393.87 666.5,-393.87 666.5,-363.87 556.5,-363.87"/>
<text text-anchor="start" x="564.5" y="-381.87" font-family="Arial" font-size="10.00">problem_setup.create</text>
<text text-anchor="middle" x="611.5" y="-370.87" font-family="Arial" font-size="10.00">_input_file</text>
</a>
</g>
</g>
<!-- Node1&#45;&gt;Node2 -->
<g id="edge1" class="edge">
<title>Node1&#45;&gt;Node2</title>
<path fill="none" stroke="midnightblue" d="M751.17,-245.33C717.65,-277.61 656.77,-336.24 628.15,-363.79"/>
<polygon fill="midnightblue" stroke="midnightblue" points="753.9,-247.57 758.67,-238.11 749.04,-242.52 753.9,-247.57"/>
</g>
<!-- Node3 -->
<g id="node3" class="node">
<title>Node3</title>
<g id="a_node3"><a xlink:href="namespaceproblem__setup.html#a2c232d3bae603961390ef3d3ee28fe81" target="_top" xlink:title=" ">
<polygon fill="none" stroke="black" points="346.5,-588.87 346.5,-618.87 489.5,-618.87 489.5,-588.87 346.5,-588.87"/>
<text text-anchor="start" x="354.5" y="-606.87" font-family="Arial" font-size="10.00">problem_setup.generate</text>
<text text-anchor="middle" x="418" y="-595.87" font-family="Arial" font-size="10.00">_cylindrical_wall_gmsh_input</text>
</a>
</g>
</g>
<!-- Node1&#45;&gt;Node3 -->
<g id="edge21" class="edge">
<title>Node1&#45;&gt;Node3</title>
<path fill="none" stroke="midnightblue" d="M769.65,-247.83C759.46,-294.97 732.08,-398.47 677,-466.87 620.79,-536.66 591.59,-542.8 510,-579.87 502.56,-583.24 494.56,-586.22 486.49,-588.82"/>
<polygon fill="midnightblue" stroke="midnightblue" points="773.11,-248.39 771.72,-237.88 766.25,-246.96 773.11,-248.39"/>
</g>
<!-- Node5 -->
<g id="node5" class="node">
<title>Node5</title>
<g id="a_node5"><a xlink:href="namespaceproblem__setup.html#ae8a464882c2862a981f40e102eddeb7d" target="_top" xlink:title=" ">
<polygon fill="none" stroke="black" points="341.5,-539.87 341.5,-569.87 494.5,-569.87 494.5,-539.87 341.5,-539.87"/>
<text text-anchor="start" x="349.5" y="-557.87" font-family="Arial" font-size="10.00">problem_setup.generate</text>
<text text-anchor="middle" x="418" y="-546.87" font-family="Arial" font-size="10.00">_moving_rect_wall_gmsh_input</text>
</a>
</g>
</g>
<!-- Node1&#45;&gt;Node5 -->
<g id="edge22" class="edge">
<title>Node1&#45;&gt;Node5</title>
<path fill="none" stroke="midnightblue" d="M765.54,-247.37C751.15,-284.35 720.05,-355.26 677,-403.87 616.74,-471.9 590.55,-479.78 510,-521.87 496.89,-528.71 482.04,-534.75 468.2,-539.73"/>
<polygon fill="midnightblue" stroke="midnightblue" points="768.87,-248.47 769.16,-237.88 762.32,-245.98 768.87,-248.47"/>
</g>
<!-- Node6 -->
<g id="node6" class="node">
<title>Node6</title>
<g id="a_node6"><a xlink:href="namespaceproblem__setup.html#a8c789550cc1b70abe559c976bcf664e4" target="_top" xlink:title=" ">
<polygon fill="none" stroke="black" points="352.5,-275.87 352.5,-305.87 483.5,-305.87 483.5,-275.87 352.5,-275.87"/>
<text text-anchor="start" x="360.5" y="-293.87" font-family="Arial" font-size="10.00">problem_setup.generate</text>
<text text-anchor="middle" x="418" y="-282.87" font-family="Arial" font-size="10.00">_moving_wall_gmsh_input</text>
</a>
</g>
</g>
<!-- Node1&#45;&gt;Node6 -->
<g id="edge23" class="edge">
<title>Node1&#45;&gt;Node6</title>
<path fill="none" stroke="midnightblue" d="M703.1,-239.37C694.32,-241.28 685.47,-243.16 677,-244.87 611.33,-258.12 535.85,-271.35 483.57,-280.19"/>
<polygon fill="midnightblue" stroke="midnightblue" points="703.94,-242.77 712.96,-237.2 702.44,-235.93 703.94,-242.77"/>
</g>
<!-- Node11 -->
<g id="node11" class="node">
<title>Node11</title>
<g id="a_node11"><a xlink:href="namespaceproblem__setup.html#a9a8d53047175304f4c44b93a2f6fa482" target="_top" xlink:title=" ">
<polygon fill="none" stroke="black" points="151,-125.87 151,-155.87 290,-155.87 290,-125.87 151,-125.87"/>
<text text-anchor="start" x="159" y="-143.87" font-family="Arial" font-size="10.00">problem_setup.generate</text>
<text text-anchor="middle" x="220.5" y="-132.87" font-family="Arial" font-size="10.00">_rect_container_gmsh_input</text>
</a>
</g>
</g>
<!-- Node1&#45;&gt;Node11 -->
<g id="edge24" class="edge">
<title>Node1&#45;&gt;Node11</title>
<path fill="none" stroke="midnightblue" d="M712.08,-205.17C700.44,-201.99 688.37,-198.77 677,-195.87 603.15,-177.02 585.45,-167.68 510,-156.87 435.27,-146.15 348.69,-142.5 290.03,-141.32"/>
<polygon fill="midnightblue" stroke="midnightblue" points="711.16,-208.55 721.73,-207.83 713.01,-201.8 711.16,-208.55"/>
</g>
<!-- Node12 -->
<g id="node12" class="node">
<title>Node12</title>
<g id="a_node12"><a xlink:href="namespaceproblem__setup.html#a5a8a494c7325b103530d3f40d4b49fe8" target="_top" xlink:title=" ">
<polygon fill="none" stroke="black" points="0,-81.87 0,-111.87 115,-111.87 115,-81.87 0,-81.87"/>
<text text-anchor="start" x="8" y="-99.87" font-family="Arial" font-size="10.00">problem_setup.particle</text>
<text text-anchor="middle" x="57.5" y="-88.87" font-family="Arial" font-size="10.00">_locations_old</text>
</a>
</g>
</g>
<!-- Node1&#45;&gt;Node12 -->
<g id="edge28" class="edge">
<title>Node1&#45;&gt;Node12</title>
<path fill="none" stroke="midnightblue" d="M768.7,-197.76C758.12,-158.44 731.54,-83.55 677,-51.87 481.97,61.44 191.93,-40.84 93,-81.74"/>
<polygon fill="midnightblue" stroke="midnightblue" points="765.36,-198.8 771.22,-207.62 772.14,-197.06 765.36,-198.8"/>
</g>
<!-- Node13 -->
<g id="node13" class="node">
<title>Node13</title>
<g id="a_node13"><a xlink:href="namespaceproblem__setup.html#ab2d86f4fe187ef9b78d1ad4ea438b98b" target="_top" xlink:title=" ">
<polygon fill="none" stroke="black" points="326,-166.37 326,-207.37 510,-207.37 510,-166.37 326,-166.37"/>
<text text-anchor="start" x="334" y="-195.37" font-family="Arial" font-size="10.00">problem_setup.generate</text>
<text text-anchor="start" x="334" y="-184.37" font-family="Arial" font-size="10.00">_rectangle_with_protrusion</text>
<text text-anchor="middle" x="418" y="-173.37" font-family="Arial" font-size="10.00">_and_opening_wall_gmsh_input_type3</text>
</a>
</g>
</g>
<!-- Node1&#45;&gt;Node13 -->
<g id="edge25" class="edge">
<title>Node1&#45;&gt;Node13</title>
<path fill="none" stroke="midnightblue" d="M702.88,-215.61C647.35,-209.99 570.02,-202.16 510.09,-196.09"/>
<polygon fill="midnightblue" stroke="midnightblue" points="702.68,-219.11 712.98,-216.64 703.39,-212.15 702.68,-219.11"/>
</g>
<!-- Node14 -->
<g id="node14" class="node">
<title>Node14</title>
<g id="a_node14"><a xlink:href="namespaceproblem__setup.html#ad0951de1e260620b256ecd25ed5d8e5a" target="_top" xlink:title=" ">
<polygon fill="none" stroke="black" points="360.5,-226.87 360.5,-256.87 475.5,-256.87 475.5,-226.87 360.5,-226.87"/>
<text text-anchor="start" x="368.5" y="-244.87" font-family="Arial" font-size="10.00">problem_setup.particle</text>
<text text-anchor="middle" x="418" y="-233.87" font-family="Arial" font-size="10.00">_locations</text>
</a>
</g>
</g>
<!-- Node1&#45;&gt;Node14 -->
<g id="edge27" class="edge">
<title>Node1&#45;&gt;Node14</title>
<path fill="none" stroke="midnightblue" d="M702.93,-226.69C635.98,-230.27 537.3,-235.54 475.66,-238.84"/>
<polygon fill="midnightblue" stroke="midnightblue" points="703.18,-230.18 712.98,-226.15 702.81,-223.19 703.18,-230.18"/>
</g>
<!-- Node15 -->
<g id="node15" class="node">
<title>Node15</title>
<g id="a_node15"><a xlink:href="namespaceproblem__setup.html#a66cf6b889081b2c318eb0110057d83c9" target="_top" xlink:title=" ">
<polygon fill="none" stroke="black" points="546,-84.87 546,-136.87 677,-136.87 677,-84.87 546,-84.87"/>
<text text-anchor="start" x="554" y="-124.87" font-family="Arial" font-size="10.00">problem_setup.does</text>
<text text-anchor="start" x="554" y="-113.87" font-family="Arial" font-size="10.00">_intersect_with_rectangle</text>
<text text-anchor="start" x="554" y="-102.87" font-family="Arial" font-size="10.00">_wall_with_protrusion_and</text>
<text text-anchor="middle" x="611.5" y="-91.87" font-family="Arial" font-size="10.00">_opening</text>
</a>
</g>
</g>
<!-- Node1&#45;&gt;Node15 -->
<g id="edge17" class="edge">
<title>Node1&#45;&gt;Node15</title>
<path fill="none" stroke="midnightblue" d="M746.52,-201.77C727.21,-187.39 700.82,-168.09 677,-151.87 669.76,-146.94 661.97,-141.82 654.39,-136.95"/>
<polygon fill="midnightblue" stroke="midnightblue" points="744.49,-204.62 754.6,-207.8 748.68,-199.01 744.49,-204.62"/>
</g>
<!-- Node16 -->
<g id="node16" class="node">
<title>Node16</title>
<g id="a_node16"><a xlink:href="namespaceproblem__setup.html#a12b4e565678c66f8f2912d548449bc8f" target="_top" xlink:title=" ">
<polygon fill="none" stroke="black" points="353.5,-88.37 353.5,-107.37 482.5,-107.37 482.5,-88.37 353.5,-88.37"/>
<text text-anchor="middle" x="418" y="-95.37" font-family="Arial" font-size="10.00">problem_setup.get_center</text>
</a>
</g>
</g>
<!-- Node1&#45;&gt;Node16 -->
<g id="edge26" class="edge">
<title>Node1&#45;&gt;Node16</title>
<path fill="none" stroke="midnightblue" d="M766.57,-198.02C753.93,-163.15 725.57,-101.03 677,-74.87 598.61,-32.64 487.14,-69.49 440.66,-88.36"/>
<polygon fill="midnightblue" stroke="midnightblue" points="763.27,-199.19 769.85,-207.49 769.88,-196.89 763.27,-199.19"/>
</g>
<!-- Node2&#45;&gt;Node3 -->
<g id="edge2" class="edge">
<title>Node2&#45;&gt;Node3</title>
<path fill="none" stroke="midnightblue" d="M605.13,-403.73C594.59,-446.4 567.08,-533.47 510,-579.87 503.91,-584.81 496.91,-588.75 489.55,-591.88"/>
<polygon fill="midnightblue" stroke="midnightblue" points="608.56,-404.42 607.45,-393.89 601.75,-402.82 608.56,-404.42"/>
</g>
<!-- Node4 -->
<g id="node4" class="node">
<title>Node4</title>
<g id="a_node4"><a xlink:href="namespaceproblem__setup.html#aff5393227de056de45cfc082e05af1ca" target="_top" xlink:title=" ">
<polygon fill="none" stroke="black" points="350,-363.87 350,-393.87 486,-393.87 486,-363.87 350,-363.87"/>
<text text-anchor="start" x="358" y="-381.87" font-family="Arial" font-size="10.00">problem_setup.generate</text>
<text text-anchor="middle" x="418" y="-370.87" font-family="Arial" font-size="10.00">_drum_particle_gmsh_input</text>
</a>
</g>
</g>
<!-- Node2&#45;&gt;Node4 -->
<g id="edge3" class="edge">
<title>Node2&#45;&gt;Node4</title>
<path fill="none" stroke="midnightblue" d="M546.21,-378.87C526.93,-378.87 505.74,-378.87 486.28,-378.87"/>
<polygon fill="midnightblue" stroke="midnightblue" points="546.39,-382.37 556.39,-378.87 546.39,-375.37 546.39,-382.37"/>
</g>
<!-- Node2&#45;&gt;Node5 -->
<g id="edge4" class="edge">
<title>Node2&#45;&gt;Node5</title>
<path fill="none" stroke="midnightblue" d="M594.54,-402.46C566.94,-443.21 512.93,-522.67 510,-524.87 501.88,-530.95 492.46,-535.84 482.83,-539.76"/>
<polygon fill="midnightblue" stroke="midnightblue" points="597.61,-404.17 600.32,-393.93 591.81,-400.25 597.61,-404.17"/>
</g>
<!-- Node2&#45;&gt;Node6 -->
<g id="edge5" class="edge">
<title>Node2&#45;&gt;Node6</title>
<path fill="none" stroke="midnightblue" d="M578.57,-358.18C559.25,-346.24 533.81,-331.53 510,-320.87 497.55,-315.29 483.74,-310.21 470.72,-305.88"/>
<polygon fill="midnightblue" stroke="midnightblue" points="576.93,-361.28 587.26,-363.62 580.64,-355.35 576.93,-361.28"/>
</g>
<!-- Node7 -->
<g id="node7" class="node">
<title>Node7</title>
<g id="a_node7"><a xlink:href="namespaceproblem__setup.html#a147f310ff74124342d15ab356739883f" target="_top" xlink:title=" ">
<polygon fill="none" stroke="black" points="357.5,-451.87 357.5,-481.87 478.5,-481.87 478.5,-451.87 357.5,-451.87"/>
<text text-anchor="start" x="365.5" y="-469.87" font-family="Arial" font-size="10.00">problem_setup.generate</text>
<text text-anchor="middle" x="418" y="-458.87" font-family="Arial" font-size="10.00">_particle_gmsh_input</text>
</a>
</g>
</g>
<!-- Node2&#45;&gt;Node7 -->
<g id="edge6" class="edge">
<title>Node2&#45;&gt;Node7</title>
<path fill="none" stroke="midnightblue" d="M578.57,-399.55C559.25,-411.49 533.81,-426.21 510,-436.87 497.55,-442.44 483.74,-447.52 470.72,-451.85"/>
<polygon fill="midnightblue" stroke="midnightblue" points="580.64,-402.38 587.26,-394.11 576.93,-396.45 580.64,-402.38"/>
</g>
<!-- Node9 -->
<g id="node9" class="node">
<title>Node9</title>
<g id="a_node9"><a xlink:href="namespaceproblem__setup.html#af51753c1e02e9634827a449ab8729d44" target="_top" xlink:title=" ">
<polygon fill="none" stroke="black" points="160,-500.87 160,-530.87 281,-530.87 281,-500.87 160,-500.87"/>
<text text-anchor="start" x="168" y="-518.87" font-family="Arial" font-size="10.00">problem_setup.generate</text>
<text text-anchor="middle" x="220.5" y="-507.87" font-family="Arial" font-size="10.00">_wall_gmsh_input</text>
</a>
</g>
</g>
<!-- Node2&#45;&gt;Node9 -->
<g id="edge14" class="edge">
<title>Node2&#45;&gt;Node9</title>
<path fill="none" stroke="midnightblue" d="M597.08,-402.67C580.47,-429.56 549.5,-472.13 510,-491.87 437.5,-528.09 341.87,-528.21 281.01,-523.33"/>
<polygon fill="midnightblue" stroke="midnightblue" points="600.21,-404.26 602.34,-393.88 594.2,-400.66 600.21,-404.26"/>
</g>
<!-- Node10 -->
<g id="node10" class="node">
<title>Node10</title>
<g id="a_node10"><a xlink:href="namespaceproblem__setup.html#a704799249dad2aafe57eedd971030266" target="_top" xlink:title=" ">
<polygon fill="none" stroke="black" points="163,-402.87 163,-432.87 278,-432.87 278,-402.87 163,-402.87"/>
<text text-anchor="start" x="171" y="-420.87" font-family="Arial" font-size="10.00">problem_setup.particle</text>
<text text-anchor="middle" x="220.5" y="-409.87" font-family="Arial" font-size="10.00">_locations_orient</text>
</a>
</g>
</g>
<!-- Node2&#45;&gt;Node10 -->
<g id="edge16" class="edge">
<title>Node2&#45;&gt;Node10</title>
<path fill="none" stroke="midnightblue" d="M548.27,-396.35C535.69,-399.32 522.49,-402.03 510,-403.87 430.13,-415.62 336.61,-418.13 278.2,-418.37"/>
<polygon fill="midnightblue" stroke="midnightblue" points="549.32,-399.7 558.21,-393.93 547.66,-392.9 549.32,-399.7"/>
</g>
<!-- Node2&#45;&gt;Node11 -->
<g id="edge10" class="edge">
<title>Node2&#45;&gt;Node11</title>
<path fill="none" stroke="midnightblue" d="M546.32,-363.28C534.27,-360.43 521.76,-357.52 510,-354.87 428.45,-336.49 394,-364.48 326,-315.87 268.14,-274.5 236.72,-190.21 225.89,-155.9"/>
<polygon fill="midnightblue" stroke="midnightblue" points="545.78,-366.75 556.32,-365.66 547.4,-359.94 545.78,-366.75"/>
</g>
<!-- Node2&#45;&gt;Node13 -->
<g id="edge12" class="edge">
<title>Node2&#45;&gt;Node13</title>
<path fill="none" stroke="midnightblue" d="M601.31,-354.06C587.04,-318.84 556.29,-254.58 510,-217.87 505.03,-213.92 499.53,-210.47 493.77,-207.45"/>
<polygon fill="midnightblue" stroke="midnightblue" points="598.13,-355.55 605.05,-363.58 604.65,-352.99 598.13,-355.55"/>
</g>
<!-- Node2&#45;&gt;Node14 -->
<g id="edge15" class="edge">
<title>Node2&#45;&gt;Node14</title>
<path fill="none" stroke="midnightblue" d="M595.48,-355.29C578,-329.75 546.77,-289.6 510,-266.87 499.69,-260.49 487.73,-255.71 475.95,-252.14"/>
<polygon fill="midnightblue" stroke="midnightblue" points="592.62,-357.3 601.08,-363.66 598.43,-353.41 592.62,-357.3"/>
</g>
<!-- Node8 -->
<g id="node8" class="node">
<title>Node8</title>
<g id="a_node8"><a xlink:href="namespaceproblem__setup.html#a94bf8e7f89d392c05bd34dfd6a513675" target="_top" xlink:title=" ">
<polygon fill="none" stroke="black" points="160,-451.87 160,-481.87 281,-481.87 281,-451.87 160,-451.87"/>
<text text-anchor="start" x="168" y="-469.87" font-family="Arial" font-size="10.00">problem_setup.generate</text>
<text text-anchor="middle" x="220.5" y="-458.87" font-family="Arial" font-size="10.00">_particle_gmsh_input</text>
</a>
</g>
</g>
<!-- Node7&#45;&gt;Node8 -->
<g id="edge7" class="edge">
<title>Node7&#45;&gt;Node8</title>
<path fill="none" stroke="midnightblue" d="M347.19,-466.87C325.6,-466.87 302.03,-466.87 281.19,-466.87"/>
<polygon fill="midnightblue" stroke="midnightblue" points="347.28,-470.37 357.28,-466.87 347.28,-463.37 347.28,-470.37"/>
</g>
<!-- Node7&#45;&gt;Node9 -->
<g id="edge8" class="edge">
<title>Node7&#45;&gt;Node9</title>
<path fill="none" stroke="midnightblue" d="M347.49,-484.29C325.82,-489.72 302.12,-495.66 281.19,-500.91"/>
<polygon fill="midnightblue" stroke="midnightblue" points="348.43,-487.66 357.28,-481.83 346.73,-480.87 348.43,-487.66"/>
</g>
<!-- Node7&#45;&gt;Node10 -->
<g id="edge9" class="edge">
<title>Node7&#45;&gt;Node10</title>
<path fill="none" stroke="midnightblue" d="M347.37,-449.41C324.69,-443.73 299.8,-437.49 278.18,-432.07"/>
<polygon fill="midnightblue" stroke="midnightblue" points="346.73,-452.86 357.28,-451.9 348.43,-446.07 346.73,-452.86"/>
</g>
<!-- Node11&#45;&gt;Node12 -->
<g id="edge11" class="edge">
<title>Node11&#45;&gt;Node12</title>
<path fill="none" stroke="midnightblue" d="M154.72,-123.16C141.05,-119.43 126.75,-115.52 113.48,-111.89"/>
<polygon fill="midnightblue" stroke="midnightblue" points="153.97,-126.59 164.54,-125.85 155.82,-119.83 153.97,-126.59"/>
</g>
<!-- Node13&#45;&gt;Node11 -->
<g id="edge13" class="edge">
<title>Node13&#45;&gt;Node11</title>
<path fill="none" stroke="midnightblue" d="M319.97,-164.04C308.22,-161.27 296.45,-158.5 285.35,-155.89"/>
<polygon fill="midnightblue" stroke="midnightblue" points="319.29,-167.47 329.83,-166.35 320.89,-160.66 319.29,-167.47"/>
</g>
<!-- Node15&#45;&gt;Node16 -->
<g id="edge18" class="edge">
<title>Node15&#45;&gt;Node16</title>
<path fill="none" stroke="midnightblue" d="M535.73,-105.79C518.18,-104.6 499.65,-103.34 482.64,-102.19"/>
<polygon fill="midnightblue" stroke="midnightblue" points="535.72,-109.3 545.93,-106.48 536.19,-102.31 535.72,-109.3"/>
</g>
<!-- Node16&#45;&gt;Node11 -->
<g id="edge19" class="edge">
<title>Node16&#45;&gt;Node11</title>
<path fill="none" stroke="midnightblue" d="M363.77,-109.57C340.94,-114.59 313.99,-120.52 289.73,-125.86"/>
<polygon fill="midnightblue" stroke="midnightblue" points="364.6,-112.98 373.61,-107.41 363.09,-106.14 364.6,-112.98"/>
</g>
<!-- Node16&#45;&gt;Node12 -->
<g id="edge20" class="edge">
<title>Node16&#45;&gt;Node12</title>
<path fill="none" stroke="midnightblue" d="M343.15,-97.66C275.48,-97.47 176.71,-97.2 115.1,-97.02"/>
<polygon fill="midnightblue" stroke="midnightblue" points="343.31,-101.16 353.32,-97.69 343.33,-94.16 343.31,-101.16"/>
</g>
</g>
</svg>
