<?xml version="1.0" encoding="UTF-8" standalone="no"?>
<!DOCTYPE svg PUBLIC "-//W3C//DTD SVG 1.1//EN"
 "http://www.w3.org/Graphics/SVG/1.1/DTD/svg11.dtd">
<!-- Generated by graphviz version 2.43.0 (0)
 -->
<!-- Title: geom_util.rotate Pages: 1 -->
<svg width="420pt" height="230pt"
 viewBox="0.00 0.00 420.00 230.00" xmlns="http://www.w3.org/2000/svg" xmlns:xlink="http://www.w3.org/1999/xlink">
<g id="graph0" class="graph" transform="scale(1 1) rotate(0) translate(4 226)">
<title>geom_util.rotate</title>
<!-- Node1 -->
<g id="Node000001" class="node">
<title>Node1</title>
<g id="a_Node000001"><a xlink:title=" ">
<polygon fill="#999999" stroke="#666666" points="412,-144.5 326,-144.5 326,-125.5 412,-125.5 412,-144.5"/>
<text text-anchor="middle" x="369" y="-132.5" font-family="Arial" font-size="10.00">geom_util.rotate</text>
</a>
</g>
</g>
<!-- Node2 -->
<g id="Node000002" class="node">
<title>Node2</title>
<g id="a_Node000002"><a xlink:href="namespacegeom__util.html#a110d13875687bf3abefe2ffe9564db4c" target="_top" xlink:title=" ">
<polygon fill="white" stroke="#666666" points="283.5,-222 164.5,-222 164.5,-192 283.5,-192 283.5,-222"/>
<text text-anchor="start" x="172.5" y="-210" font-family="Arial" font-size="10.00">geom_util.get_ref_drum</text>
<text text-anchor="middle" x="224" y="-199" font-family="Arial" font-size="10.00">_points</text>
</a>
</g>
</g>
<!-- Node1&#45;&gt;Node2 -->
<g id="edge1_Node000001_Node000002" class="edge">
<title>Node1&#45;&gt;Node2</title>
<g id="a_edge1_Node000001_Node000002"><a xlink:title=" ">
<path fill="none" stroke="#63b8ff" d="M345.68,-150.38C330.44,-160.46 309.54,-173.5 290,-183 283.51,-186.16 276.49,-189.15 269.55,-191.89"/>
<polygon fill="#63b8ff" stroke="#63b8ff" points="348.03,-153.02 354.38,-144.53 344.13,-147.2 348.03,-153.02"/>
</a>
</g>
</g>
<!-- Node4 -->
<g id="Node000004" class="node">
<title>Node4</title>
<g id="a_Node000004"><a xlink:href="namespacegeom__util.html#ac89d32108c84f9108df8ddbb2b5ea77f" target="_top" xlink:title=" ">
<polygon fill="white" stroke="#666666" points="280.5,-174 167.5,-174 167.5,-144 280.5,-144 280.5,-174"/>
<text text-anchor="start" x="175.5" y="-162" font-family="Arial" font-size="10.00">geom_util.get_ref_hex</text>
<text text-anchor="middle" x="224" y="-151" font-family="Arial" font-size="10.00">_points</text>
</a>
</g>
</g>
<!-- Node1&#45;&gt;Node4 -->
<g id="edge3_Node000001_Node000004" class="edge">
<title>Node1&#45;&gt;Node4</title>
<g id="a_edge3_Node000001_Node000004"><a xlink:title=" ">
<path fill="none" stroke="#63b8ff" d="M315.98,-143.73C304.48,-145.66 292.26,-147.71 280.62,-149.67"/>
<polygon fill="#63b8ff" stroke="#63b8ff" points="316.59,-147.18 325.87,-142.07 315.43,-140.27 316.59,-147.18"/>
</a>
</g>
</g>
<!-- Node5 -->
<g id="Node000005" class="node">
<title>Node5</title>
<g id="a_Node000005"><a xlink:href="namespacegeom__util.html#a6212d7d95d932b464e795348ccaa1fb1" target="_top" xlink:title=" ">
<polygon fill="white" stroke="#666666" points="288,-126 160,-126 160,-96 288,-96 288,-126"/>
<text text-anchor="start" x="168" y="-114" font-family="Arial" font-size="10.00">geom_util.get_ref_triangle</text>
<text text-anchor="middle" x="224" y="-103" font-family="Arial" font-size="10.00">_points</text>
</a>
</g>
</g>
<!-- Node1&#45;&gt;Node5 -->
<g id="edge4_Node000001_Node000005" class="edge">
<title>Node1&#45;&gt;Node5</title>
<g id="a_edge4_Node000001_Node000005"><a xlink:title=" ">
<path fill="none" stroke="#63b8ff" d="M315.88,-126.25C306.83,-124.73 297.34,-123.14 288.03,-121.58"/>
<polygon fill="#63b8ff" stroke="#63b8ff" points="315.43,-129.73 325.87,-127.93 316.59,-122.82 315.43,-129.73"/>
</a>
</g>
</g>
<!-- Node7 -->
<g id="Node000007" class="node">
<title>Node7</title>
<g id="a_Node000007"><a xlink:href="namespacegeom__util.html#a6e4b10f501c8203a352d2390f68b6561" target="_top" xlink:title=" ">
<polygon fill="white" stroke="#666666" points="290,-78 158,-78 158,-48 290,-48 290,-78"/>
<text text-anchor="start" x="166" y="-66" font-family="Arial" font-size="10.00">geom_util.gmsh_transform</text>
<text text-anchor="middle" x="224" y="-55" font-family="Arial" font-size="10.00">_general</text>
</a>
</g>
</g>
<!-- Node1&#45;&gt;Node7 -->
<g id="edge6_Node000001_Node000007" class="edge">
<title>Node1&#45;&gt;Node7</title>
<g id="a_edge6_Node000001_Node000007"><a xlink:title=" ">
<path fill="none" stroke="#63b8ff" d="M345.68,-119.62C330.44,-109.54 309.54,-96.5 290,-87 283.51,-83.84 276.49,-80.85 269.55,-78.11"/>
<polygon fill="#63b8ff" stroke="#63b8ff" points="344.13,-122.8 354.38,-125.47 348.03,-116.98 344.13,-122.8"/>
</a>
</g>
</g>
<!-- Node3 -->
<g id="Node000003" class="node">
<title>Node3</title>
<g id="a_Node000003"><a xlink:href="namespacegmsh__particles.html#a8909a20e19ab6af8bcc5387d26814639" target="_top" xlink:title=" ">
<polygon fill="white" stroke="#666666" points="120,-222 2,-222 2,-192 120,-192 120,-222"/>
<text text-anchor="start" x="10" y="-210" font-family="Arial" font-size="10.00">gmsh_particles.drum2d</text>
<text text-anchor="middle" x="61" y="-199" font-family="Arial" font-size="10.00">_mesh_symmetric</text>
</a>
</g>
</g>
<!-- Node2&#45;&gt;Node3 -->
<g id="edge2_Node000002_Node000003" class="edge">
<title>Node2&#45;&gt;Node3</title>
<g id="a_edge2_Node000002_Node000003"><a xlink:title=" ">
<path fill="none" stroke="#63b8ff" d="M154.16,-207C142.87,-207 131.27,-207 120.27,-207"/>
<polygon fill="#63b8ff" stroke="#63b8ff" points="154.42,-210.5 164.42,-207 154.42,-203.5 154.42,-210.5"/>
</a>
</g>
</g>
<!-- Node6 -->
<g id="Node000006" class="node">
<title>Node6</title>
<g id="a_Node000006"><a xlink:href="namespacegmsh__particles.html#a197b7b0069dfed40167af646f1345d12" target="_top" xlink:title=" ">
<polygon fill="white" stroke="#666666" points="119.5,-126 2.5,-126 2.5,-96 119.5,-96 119.5,-126"/>
<text text-anchor="start" x="10.5" y="-114" font-family="Arial" font-size="10.00">gmsh_particles.triangle</text>
<text text-anchor="middle" x="61" y="-103" font-family="Arial" font-size="10.00">_mesh_symmetric</text>
</a>
</g>
</g>
<!-- Node5&#45;&gt;Node6 -->
<g id="edge5_Node000005_Node000006" class="edge">
<title>Node5&#45;&gt;Node6</title>
<g id="a_edge5_Node000005_Node000006"><a xlink:title=" ">
<path fill="none" stroke="#63b8ff" d="M149.82,-111C139.74,-111 129.5,-111 119.74,-111"/>
<polygon fill="#63b8ff" stroke="#63b8ff" points="149.83,-114.5 159.83,-111 149.83,-107.5 149.83,-114.5"/>
</a>
</g>
</g>
<!-- Node7&#45;&gt;Node6 -->
<g id="edge9_Node000007_Node000006" class="edge">
<title>Node7&#45;&gt;Node6</title>
<g id="a_edge9_Node000007_Node000006"><a xlink:title=" ">
<path fill="none" stroke="#63b8ff" d="M162.87,-80.93C146.23,-85.89 128.34,-91.22 112.32,-96"/>
<polygon fill="#63b8ff" stroke="#63b8ff" points="163.92,-84.27 172.5,-78.06 161.92,-77.56 163.92,-84.27"/>
</a>
</g>
</g>
<!-- Node8 -->
<g id="Node000008" class="node">
<title>Node8</title>
<g id="a_Node000008"><a xlink:href="namespacegmsh__particles.html#a4ad630d57e69747a673e2191b8d68bf9" target="_top" xlink:title=" ">
<polygon fill="white" stroke="#666666" points="122,-78 0,-78 0,-48 122,-48 122,-78"/>
<text text-anchor="start" x="8" y="-66" font-family="Arial" font-size="10.00">gmsh_particles.hexagon</text>
<text text-anchor="middle" x="61" y="-55" font-family="Arial" font-size="10.00">_mesh_symmetric</text>
</a>
</g>
</g>
<!-- Node7&#45;&gt;Node8 -->
<g id="edge7_Node000007_Node000008" class="edge">
<title>Node7&#45;&gt;Node8</title>
<g id="a_edge7_Node000007_Node000008"><a xlink:title=" ">
<path fill="none" stroke="#63b8ff" d="M147.88,-63C139.22,-63 130.48,-63 122.06,-63"/>
<polygon fill="#63b8ff" stroke="#63b8ff" points="147.98,-66.5 157.98,-63 147.98,-59.5 147.98,-66.5"/>
</a>
</g>
</g>
<!-- Node9 -->
<g id="Node000009" class="node">
<title>Node9</title>
<g id="a_Node000009"><a xlink:href="namespacegmsh__particles.html#a6e6ea1a434988f51bfe21cc99e6504d6" target="_top" xlink:title=" ">
<polygon fill="white" stroke="#666666" points="120.5,-30 1.5,-30 1.5,0 120.5,0 120.5,-30"/>
<text text-anchor="start" x="9.5" y="-18" font-family="Arial" font-size="10.00">gmsh_particles.polygon</text>
<text text-anchor="middle" x="61" y="-7" font-family="Arial" font-size="10.00">_mesh_symmetric</text>
</a>
</g>
</g>
<!-- Node7&#45;&gt;Node9 -->
<g id="edge8_Node000007_Node000009" class="edge">
<title>Node7&#45;&gt;Node9</title>
<g id="a_edge8_Node000007_Node000009"><a xlink:title=" ">
<path fill="none" stroke="#63b8ff" d="M162.87,-45.07C146.23,-40.11 128.34,-34.78 112.32,-30"/>
<polygon fill="#63b8ff" stroke="#63b8ff" points="161.92,-48.44 172.5,-47.94 163.92,-41.73 161.92,-48.44"/>
</a>
</g>
</g>
</g>
</svg>
