<?xml version="1.0" encoding="UTF-8" standalone="no"?>
<!DOCTYPE svg PUBLIC "-//W3C//DTD SVG 1.1//EN"
 "http://www.w3.org/Graphics/SVG/1.1/DTD/svg11.dtd">
<!-- Generated by graphviz version 2.43.0 (0)
 -->
<!-- Title: util::parallel::initMpi Pages: 1 -->
<svg width="1241pt" height="957pt"
 viewBox="0.00 0.00 1241.00 956.57" xmlns="http://www.w3.org/2000/svg" xmlns:xlink="http://www.w3.org/1999/xlink">
<g id="graph0" class="graph" transform="scale(1 1) rotate(0) translate(4 952.57)">
<title>util::parallel::initMpi</title>
<!-- Node1 -->
<g id="node1" class="node">
<title>Node1</title>
<g id="a_node1"><a xlink:title="Initializes MPI and also creates MpiStatus struct.">
<polygon fill="#bfbfbf" stroke="black" points="1132,-247.5 1132,-266.5 1233,-266.5 1233,-247.5 1132,-247.5"/>
<text text-anchor="middle" x="1182.5" y="-254.5" font-family="Arial" font-size="10.00">util::parallel::initMpi</text>
</a>
</g>
</g>
<!-- Node2 -->
<g id="node2" class="node">
<title>Node2</title>
<g id="a_node2"><a xlink:href="namespaceutil_1_1parallel.html#a836a5bd06aa09111f66f69f97c1f093c" target="_top" xlink:title="Returns pointer to MpiStatus struct.">
<polygon fill="none" stroke="black" points="965.5,-348.5 965.5,-367.5 1095.5,-367.5 1095.5,-348.5 965.5,-348.5"/>
<text text-anchor="middle" x="1030.5" y="-355.5" font-family="Arial" font-size="10.00">util::parallel::getMpiStatus</text>
</a>
</g>
</g>
<!-- Node1&#45;&gt;Node2 -->
<g id="edge1" class="edge">
<title>Node1&#45;&gt;Node2</title>
<path fill="none" stroke="midnightblue" d="M1158.87,-272.24C1127.5,-293.36 1071.76,-330.89 1045.68,-348.45"/>
<polygon fill="midnightblue" stroke="midnightblue" points="1161.05,-274.99 1167.39,-266.5 1157.14,-269.18 1161.05,-274.99"/>
</g>
<!-- Node3 -->
<g id="node3" class="node">
<title>Node3</title>
<g id="a_node3"><a xlink:href="src_2main_8cpp.html#a0ddf1224851353fc92bfbff6f499fa97" target="_top" xlink:title=" ">
<polygon fill="none" stroke="black" points="838.5,-424.5 838.5,-443.5 876.5,-443.5 876.5,-424.5 838.5,-424.5"/>
<text text-anchor="middle" x="857.5" y="-431.5" font-family="Arial" font-size="10.00">main</text>
</a>
</g>
</g>
<!-- Node1&#45;&gt;Node3 -->
<g id="edge4" class="edge">
<title>Node1&#45;&gt;Node3</title>
<path fill="none" stroke="midnightblue" d="M1173.29,-275.99C1160.7,-302.81 1134,-351.36 1096,-377 1025.18,-424.8 918.7,-432.66 876.58,-433.85"/>
<polygon fill="midnightblue" stroke="midnightblue" points="1176.63,-277.12 1177.56,-266.57 1170.25,-274.23 1176.63,-277.12"/>
</g>
<!-- Node4 -->
<g id="node4" class="node">
<title>Node4</title>
<g id="a_node4"><a xlink:href="namespaceutil_1_1parallel.html#a4377dccc92c8b2a1896685fc54fd1a0b" target="_top" xlink:title="Function to check if MPI is enabled.">
<polygon fill="none" stroke="black" points="965,-185.5 965,-204.5 1096,-204.5 1096,-185.5 965,-185.5"/>
<text text-anchor="middle" x="1030.5" y="-192.5" font-family="Arial" font-size="10.00">util::parallel::isMpiEnabled</text>
</a>
</g>
</g>
<!-- Node1&#45;&gt;Node4 -->
<g id="edge3" class="edge">
<title>Node1&#45;&gt;Node4</title>
<path fill="none" stroke="midnightblue" d="M1155.46,-242.36C1138.8,-233.39 1116.54,-222.11 1096,-214 1087.1,-210.48 1077.28,-207.27 1068.05,-204.53"/>
<polygon fill="midnightblue" stroke="midnightblue" points="1154.11,-245.62 1164.56,-247.34 1157.46,-239.47 1154.11,-245.62"/>
</g>
<!-- Node5 -->
<g id="node5" class="node">
<title>Node5</title>
<g id="a_node5"><a xlink:href="namespaceutil_1_1parallel.html#af2fa5cf1aed1855e05ae530704c37763" target="_top" xlink:title="Get MPI comm.">
<polygon fill="none" stroke="black" points="972,-147.5 972,-166.5 1089,-166.5 1089,-147.5 972,-147.5"/>
<text text-anchor="middle" x="1030.5" y="-154.5" font-family="Arial" font-size="10.00">util::parallel::mpiComm</text>
</a>
</g>
</g>
<!-- Node1&#45;&gt;Node5 -->
<g id="edge5" class="edge">
<title>Node1&#45;&gt;Node5</title>
<path fill="none" stroke="midnightblue" d="M1167.36,-239.38C1151.74,-221.02 1124.93,-192.66 1096,-176 1089.32,-172.16 1081.8,-169.03 1074.32,-166.51"/>
<polygon fill="midnightblue" stroke="midnightblue" points="1165.02,-242.03 1174.09,-247.49 1170.4,-237.56 1165.02,-242.03"/>
</g>
<!-- Node6 -->
<g id="node6" class="node">
<title>Node6</title>
<g id="a_node6"><a xlink:href="namespaceutil_1_1parallel.html#adb80f14125b7556bb478cc3725508fa8" target="_top" xlink:title="get rank (id) of this processor">
<polygon fill="none" stroke="black" points="975,-223.5 975,-242.5 1086,-242.5 1086,-223.5 975,-223.5"/>
<text text-anchor="middle" x="1030.5" y="-230.5" font-family="Arial" font-size="10.00">util::parallel::mpiRank</text>
</a>
</g>
</g>
<!-- Node1&#45;&gt;Node6 -->
<g id="edge6" class="edge">
<title>Node1&#45;&gt;Node6</title>
<path fill="none" stroke="midnightblue" d="M1121.8,-247.45C1110.03,-245.56 1097.74,-243.6 1086.15,-241.74"/>
<polygon fill="midnightblue" stroke="midnightblue" points="1121.54,-250.95 1131.97,-249.07 1122.65,-244.04 1121.54,-250.95"/>
</g>
<!-- Node38 -->
<g id="node36" class="node">
<title>Node38</title>
<g id="a_node36"><a xlink:href="namespaceutil_1_1parallel.html#ad67dcfb56bf70d082e443e849c832c00" target="_top" xlink:title="Get size (number) of processors.">
<polygon fill="none" stroke="black" points="977,-272.5 977,-291.5 1084,-291.5 1084,-272.5 977,-272.5"/>
<text text-anchor="middle" x="1030.5" y="-279.5" font-family="Arial" font-size="10.00">util::parallel::mpiSize</text>
</a>
</g>
</g>
<!-- Node1&#45;&gt;Node38 -->
<g id="edge60" class="edge">
<title>Node1&#45;&gt;Node38</title>
<path fill="none" stroke="midnightblue" d="M1122.06,-266.91C1109.51,-269 1096.35,-271.19 1084.07,-273.24"/>
<polygon fill="midnightblue" stroke="midnightblue" points="1122.68,-270.35 1131.97,-265.26 1121.53,-263.45 1122.68,-270.35"/>
</g>
<!-- Node2&#45;&gt;Node3 -->
<g id="edge2" class="edge">
<title>Node2&#45;&gt;Node3</title>
<path fill="none" stroke="midnightblue" d="M1006.82,-373.08C986.98,-385.71 957.03,-403.49 929,-415 911.76,-422.08 891.08,-427.29 876.58,-430.45"/>
<polygon fill="midnightblue" stroke="midnightblue" points="1008.94,-375.87 1015.44,-367.5 1005.14,-370 1008.94,-375.87"/>
</g>
<!-- Node6&#45;&gt;Node3 -->
<g id="edge11" class="edge">
<title>Node6&#45;&gt;Node3</title>
<path fill="none" stroke="midnightblue" d="M985.39,-246.94C977.7,-251.06 970.44,-256.33 965,-263 921.13,-316.81 977.33,-365.16 929,-415 915.41,-429.01 892.66,-433.04 876.68,-434.03"/>
<polygon fill="midnightblue" stroke="midnightblue" points="986.99,-250.05 994.52,-242.6 983.99,-243.73 986.99,-250.05"/>
</g>
<!-- Node7 -->
<g id="node7" class="node">
<title>Node7</title>
<g id="a_node7"><a xlink:href="namespaceanonymous__namespace_02testParallelCompLib_8cpp_03.html#a55d59bfee9bce3b871923ee947a1242b" target="_top" xlink:title=" ">
<polygon fill="none" stroke="black" points="610.5,-136.5 610.5,-177.5 741.5,-177.5 741.5,-136.5 610.5,-136.5"/>
<text text-anchor="start" x="618.5" y="-165.5" font-family="Arial" font-size="10.00">anonymous_namespace</text>
<text text-anchor="start" x="618.5" y="-154.5" font-family="Arial" font-size="10.00">{testParallelCompLib</text>
<text text-anchor="middle" x="676" y="-143.5" font-family="Arial" font-size="10.00">::cpp}::exchangeDispData</text>
</a>
</g>
</g>
<!-- Node6&#45;&gt;Node7 -->
<g id="edge7" class="edge">
<title>Node6&#45;&gt;Node7</title>
<path fill="none" stroke="midnightblue" d="M970.64,-218.37C968.65,-217.04 966.76,-215.59 965,-214 933.89,-186.02 963.79,-150.25 929,-127 865.45,-84.52 772.29,-113.4 718.85,-136.43"/>
<polygon fill="midnightblue" stroke="midnightblue" points="969.41,-221.69 979.85,-223.47 972.8,-215.57 969.41,-221.69"/>
</g>
<!-- Node8 -->
<g id="node8" class="node">
<title>Node8</title>
<g id="a_node8"><a xlink:href="namespacetest.html#af0964e1ea010ded3d98df70e7d5326ca" target="_top" xlink:title="Perform parallelization test using MPI on mesh partition based on metis.">
<polygon fill="none" stroke="black" points="443.5,-147.5 443.5,-166.5 517.5,-166.5 517.5,-147.5 443.5,-147.5"/>
<text text-anchor="middle" x="480.5" y="-154.5" font-family="Arial" font-size="10.00">test::testMPI</text>
</a>
</g>
</g>
<!-- Node6&#45;&gt;Node8 -->
<g id="edge59" class="edge">
<title>Node6&#45;&gt;Node8</title>
<path fill="none" stroke="midnightblue" d="M969.71,-218C968.05,-216.77 966.47,-215.44 965,-214 927.58,-177.48 971.17,-132.92 929,-102 791.07,-0.87 562.59,-112.44 498.61,-147.29"/>
<polygon fill="midnightblue" stroke="midnightblue" points="968.21,-221.18 978.58,-223.35 971.82,-215.18 968.21,-221.18"/>
</g>
<!-- Node10 -->
<g id="node10" class="node">
<title>Node10</title>
<g id="a_node10"><a xlink:href="classutil_1_1io_1_1Logger.html#ab95e172506a16ded8973ae57cf5bd18c" target="_top" xlink:title="Log the message.">
<polygon fill="none" stroke="black" points="809,-174.5 809,-193.5 906,-193.5 906,-174.5 809,-174.5"/>
<text text-anchor="middle" x="857.5" y="-181.5" font-family="Arial" font-size="10.00">util::io::Logger::log</text>
</a>
</g>
</g>
<!-- Node6&#45;&gt;Node10 -->
<g id="edge10" class="edge">
<title>Node6&#45;&gt;Node10</title>
<path fill="none" stroke="midnightblue" d="M987.38,-220.66C979.92,-218.46 972.23,-216.17 965,-214 948.98,-209.19 945.08,-207.62 929,-203 917.91,-199.81 905.8,-196.49 894.79,-193.53"/>
<polygon fill="midnightblue" stroke="midnightblue" points="986.42,-224.02 997,-223.5 988.4,-217.31 986.42,-224.02"/>
</g>
<!-- Node11 -->
<g id="node11" class="node">
<title>Node11</title>
<g id="a_node11"><a xlink:href="namespaceutil_1_1io.html#a578a578ce41389fb01e56de7316b7054" target="_top" xlink:title="Prints formatted information.">
<polygon fill="none" stroke="black" points="823.5,-386.5 823.5,-405.5 891.5,-405.5 891.5,-386.5 823.5,-386.5"/>
<text text-anchor="middle" x="857.5" y="-393.5" font-family="Arial" font-size="10.00">util::io::print</text>
</a>
</g>
</g>
<!-- Node6&#45;&gt;Node11 -->
<g id="edge12" class="edge">
<title>Node6&#45;&gt;Node11</title>
<path fill="none" stroke="midnightblue" d="M992.58,-246.64C983.08,-251.07 973.23,-256.54 965,-263 917.53,-300.26 878.09,-362.59 864.02,-386.38"/>
<polygon fill="midnightblue" stroke="midnightblue" points="994.13,-249.78 1001.88,-242.56 991.32,-243.37 994.13,-249.78"/>
</g>
<!-- Node35 -->
<g id="node33" class="node">
<title>Node35</title>
<g id="a_node33"><a xlink:href="namespaceutil_1_1io.html#aafa73b940789a70da4253d44a4ff36d1" target="_top" xlink:title="Prints formatted string for output.">
<polygon fill="none" stroke="black" points="815,-136.5 815,-155.5 900,-155.5 900,-136.5 815,-136.5"/>
<text text-anchor="middle" x="857.5" y="-143.5" font-family="Arial" font-size="10.00">util::io::printBox</text>
</a>
</g>
</g>
<!-- Node6&#45;&gt;Node35 -->
<g id="edge54" class="edge">
<title>Node6&#45;&gt;Node35</title>
<path fill="none" stroke="midnightblue" d="M974.12,-219.41C970.93,-217.8 967.86,-216.01 965,-214 942.88,-198.48 951.3,-180.26 929,-165 920.42,-159.13 910.11,-155.07 900.05,-152.26"/>
<polygon fill="midnightblue" stroke="midnightblue" points="972.81,-222.66 983.38,-223.46 975.62,-216.25 972.81,-222.66"/>
</g>
<!-- Node36 -->
<g id="node34" class="node">
<title>Node36</title>
<g id="a_node34"><a xlink:href="namespaceanonymous__namespace_02testParallelCompLib_8cpp_03.html#a203213df0b872311cc21e15789f7a924" target="_top" xlink:title=" ">
<polygon fill="none" stroke="black" points="796.5,-0.5 796.5,-41.5 918.5,-41.5 918.5,-0.5 796.5,-0.5"/>
<text text-anchor="start" x="804.5" y="-29.5" font-family="Arial" font-size="10.00">anonymous_namespace</text>
<text text-anchor="start" x="804.5" y="-18.5" font-family="Arial" font-size="10.00">{testParallelCompLib</text>
<text text-anchor="middle" x="857.5" y="-7.5" font-family="Arial" font-size="10.00">::cpp}::printMsg</text>
</a>
</g>
</g>
<!-- Node6&#45;&gt;Node36 -->
<g id="edge55" class="edge">
<title>Node6&#45;&gt;Node36</title>
<path fill="none" stroke="midnightblue" d="M968.95,-217.69C967.56,-216.54 966.24,-215.32 965,-214 915.69,-161.51 973.56,-112.59 929,-56 924.6,-50.42 919.09,-45.66 913.08,-41.62"/>
<polygon fill="midnightblue" stroke="midnightblue" points="967.33,-220.8 977.61,-223.36 971.16,-214.95 967.33,-220.8"/>
</g>
<!-- Node37 -->
<g id="node35" class="node">
<title>Node37</title>
<g id="a_node35"><a xlink:href="namespaceanonymous__namespace_02testParallelCompLib_8cpp_03.html#adf1cc5e3fb18d6c4d4bd630c53448476" target="_top" xlink:title=" ">
<polygon fill="none" stroke="black" points="786,-212.5 786,-253.5 929,-253.5 929,-212.5 786,-212.5"/>
<text text-anchor="start" x="794" y="-241.5" font-family="Arial" font-size="10.00">anonymous_namespace</text>
<text text-anchor="start" x="794" y="-230.5" font-family="Arial" font-size="10.00">{testParallelCompLib</text>
<text text-anchor="middle" x="857.5" y="-219.5" font-family="Arial" font-size="10.00">::cpp}::setupOwnerAndGhost</text>
</a>
</g>
</g>
<!-- Node6&#45;&gt;Node37 -->
<g id="edge57" class="edge">
<title>Node6&#45;&gt;Node37</title>
<path fill="none" stroke="midnightblue" d="M964.84,-233C953.17,-233 940.95,-233 929.12,-233"/>
<polygon fill="midnightblue" stroke="midnightblue" points="964.92,-236.5 974.92,-233 964.92,-229.5 964.92,-236.5"/>
</g>
<!-- Node7&#45;&gt;Node8 -->
<g id="edge8" class="edge">
<title>Node7&#45;&gt;Node8</title>
<path fill="none" stroke="midnightblue" d="M600.01,-157C571.72,-157 540.8,-157 517.64,-157"/>
<polygon fill="midnightblue" stroke="midnightblue" points="600.3,-160.5 610.3,-157 600.3,-153.5 600.3,-160.5"/>
</g>
<!-- Node9 -->
<g id="node9" class="node">
<title>Node9</title>
<g id="a_node9"><a xlink:href="testParallelComp_8cpp.html#a0ddf1224851353fc92bfbff6f499fa97" target="_top" xlink:title=" ">
<polygon fill="none" stroke="black" points="248,-170.5 248,-189.5 286,-189.5 286,-170.5 248,-170.5"/>
<text text-anchor="middle" x="267" y="-177.5" font-family="Arial" font-size="10.00">main</text>
</a>
</g>
</g>
<!-- Node8&#45;&gt;Node9 -->
<g id="edge9" class="edge">
<title>Node8&#45;&gt;Node9</title>
<path fill="none" stroke="midnightblue" d="M433.07,-162.05C386.86,-167.07 318.32,-174.53 286.05,-178.04"/>
<polygon fill="midnightblue" stroke="midnightblue" points="433.58,-165.51 443.14,-160.95 432.82,-158.56 433.58,-165.51"/>
</g>
<!-- Node11&#45;&gt;Node7 -->
<g id="edge29" class="edge">
<title>Node11&#45;&gt;Node7</title>
<path fill="none" stroke="midnightblue" d="M843.07,-378.27C828.39,-358.6 804.49,-325.71 786,-296 768.34,-267.63 770.02,-256.75 750,-230 735.5,-210.63 716,-191.39 700.79,-177.52"/>
<polygon fill="midnightblue" stroke="midnightblue" points="840.31,-380.43 849.11,-386.32 845.9,-376.22 840.31,-380.43"/>
</g>
<!-- Node11&#45;&gt;Node8 -->
<g id="edge51" class="edge">
<title>Node11&#45;&gt;Node8</title>
<path fill="none" stroke="midnightblue" d="M834.25,-380.27C819.18,-368.76 799.61,-352.06 786,-334 763.5,-304.15 778.83,-281.79 750,-258 697.62,-214.78 660.76,-254.05 602,-220 582.15,-208.5 585.57,-194.97 566,-183 551.33,-174.03 533.33,-167.93 517.71,-163.91"/>
<polygon fill="midnightblue" stroke="midnightblue" points="832.41,-383.26 842.52,-386.41 836.58,-377.64 832.41,-383.26"/>
</g>
<!-- Node12 -->
<g id="node12" class="node">
<title>Node12</title>
<g id="a_node12"><a xlink:href="classfe_1_1Mesh.html#ad8e7d706e7378a729c22842bfbf6af3b" target="_top" xlink:title="Compute the nodal volume.">
<polygon fill="none" stroke="black" points="620,-386.5 620,-405.5 732,-405.5 732,-386.5 620,-386.5"/>
<text text-anchor="middle" x="676" y="-393.5" font-family="Arial" font-size="10.00">fe::Mesh::computeVol</text>
</a>
</g>
</g>
<!-- Node11&#45;&gt;Node12 -->
<g id="edge13" class="edge">
<title>Node11&#45;&gt;Node12</title>
<path fill="none" stroke="midnightblue" d="M813.13,-396C788.75,-396 758.08,-396 732.03,-396"/>
<polygon fill="midnightblue" stroke="midnightblue" points="813.16,-399.5 823.16,-396 813.16,-392.5 813.16,-399.5"/>
</g>
<!-- Node13 -->
<g id="node13" class="node">
<title>Node13</title>
<g id="a_node13"><a xlink:href="namespaceproblem__setup.html#a64e067098e447f766d042476ef5abe85" target="_top" xlink:title=" ">
<polygon fill="none" stroke="black" points="425.5,-573 425.5,-603 535.5,-603 535.5,-573 425.5,-573"/>
<text text-anchor="start" x="433.5" y="-591" font-family="Arial" font-size="10.00">problem_setup.create</text>
<text text-anchor="middle" x="480.5" y="-580" font-family="Arial" font-size="10.00">_input_file</text>
</a>
</g>
</g>
<!-- Node11&#45;&gt;Node13 -->
<g id="edge14" class="edge">
<title>Node11&#45;&gt;Node13</title>
<path fill="none" stroke="midnightblue" d="M813.54,-400.63C803.54,-403.47 793.6,-407.96 786,-415 750.74,-447.68 785.34,-484.41 750,-517 691.08,-571.35 595.45,-585.05 535.64,-587.98"/>
<polygon fill="midnightblue" stroke="midnightblue" points="814.54,-403.99 823.48,-398.31 812.95,-397.18 814.54,-403.99"/>
</g>
<!-- Node14 -->
<g id="node14" class="node">
<title>Node14</title>
<g id="a_node14"><a xlink:href="namespaceproblem__setup.html#a87c8571f538ea8ab692816e1388af758" target="_top" xlink:title=" ">
<polygon fill="none" stroke="black" points="195.5,-737 195.5,-767 338.5,-767 338.5,-737 195.5,-737"/>
<text text-anchor="start" x="203.5" y="-755" font-family="Arial" font-size="10.00">problem_setup.generate</text>
<text text-anchor="middle" x="267" y="-744" font-family="Arial" font-size="10.00">_cylindrical_wall_gmsh_input</text>
</a>
</g>
</g>
<!-- Node11&#45;&gt;Node14 -->
<g id="edge30" class="edge">
<title>Node11&#45;&gt;Node14</title>
<path fill="none" stroke="midnightblue" d="M813.52,-399.19C803.14,-402.01 793.02,-406.85 786,-415 694.88,-520.75 851.77,-631.46 750,-727 720.75,-754.46 465.55,-754.83 338.8,-753.27"/>
<polygon fill="midnightblue" stroke="midnightblue" points="814.43,-402.58 823.47,-397.06 812.96,-395.73 814.43,-402.58"/>
</g>
<!-- Node21 -->
<g id="node19" class="node">
<title>Node21</title>
<g id="a_node19"><a xlink:href="namespaceproblem__setup.html#aa86d439a2a3be267e8af3fe687016583" target="_top" xlink:title=" ">
<polygon fill="none" stroke="black" points="0,-408 0,-438 139,-438 139,-408 0,-408"/>
<text text-anchor="start" x="8" y="-426" font-family="Arial" font-size="10.00">problem_setup.generate</text>
<text text-anchor="middle" x="69.5" y="-415" font-family="Arial" font-size="10.00">_rect_container_gmsh_input</text>
</a>
</g>
</g>
<!-- Node11&#45;&gt;Node21 -->
<g id="edge31" class="edge">
<title>Node11&#45;&gt;Node21</title>
<path fill="none" stroke="midnightblue" d="M813.32,-400.05C803.23,-402.89 793.31,-407.52 786,-415 738.99,-463.11 788.58,-506.9 750,-562 693.58,-642.58 652.15,-637.52 566,-685 521.91,-709.3 408.24,-766.55 359,-777 279,-793.98 240.5,-825.96 175,-777 174.1,-776.33 94.77,-505.8 74.95,-438.18"/>
<polygon fill="midnightblue" stroke="midnightblue" points="814.4,-403.39 823.37,-397.76 812.85,-396.56 814.4,-403.39"/>
</g>
<!-- Node22 -->
<g id="node20" class="node">
<title>Node22</title>
<g id="a_node20"><a xlink:href="namespaceproblem__setup.html#ab2d86f4fe187ef9b78d1ad4ea438b98b" target="_top" xlink:title=" ">
<polygon fill="none" stroke="black" points="175,-402.5 175,-443.5 359,-443.5 359,-402.5 175,-402.5"/>
<text text-anchor="start" x="183" y="-431.5" font-family="Arial" font-size="10.00">problem_setup.generate</text>
<text text-anchor="start" x="183" y="-420.5" font-family="Arial" font-size="10.00">_rectangle_with_protrusion</text>
<text text-anchor="middle" x="267" y="-409.5" font-family="Arial" font-size="10.00">_and_opening_wall_gmsh_input_type3</text>
</a>
</g>
</g>
<!-- Node11&#45;&gt;Node22 -->
<g id="edge32" class="edge">
<title>Node11&#45;&gt;Node22</title>
<path fill="none" stroke="midnightblue" d="M813.14,-405.36C793.89,-409.09 770.92,-412.97 750,-415 614.43,-428.13 456.42,-427.8 359.3,-425.82"/>
<polygon fill="midnightblue" stroke="midnightblue" points="813.99,-408.76 823.11,-403.37 812.62,-401.89 813.99,-408.76"/>
</g>
<!-- Node24 -->
<g id="node22" class="node">
<title>Node24</title>
<g id="a_node22"><a xlink:href="namespacediscretize__circle.html#a696cce96441ef5fc2d3175e6900fcf9c" target="_top" xlink:title=" ">
<polygon fill="none" stroke="black" points="414.5,-895 414.5,-925 546.5,-925 546.5,-895 414.5,-895"/>
<text text-anchor="start" x="422.5" y="-913" font-family="Arial" font-size="10.00">discretize_circle.discretize</text>
<text text-anchor="middle" x="480.5" y="-902" font-family="Arial" font-size="10.00">_circle</text>
</a>
</g>
</g>
<!-- Node11&#45;&gt;Node24 -->
<g id="edge25" class="edge">
<title>Node11&#45;&gt;Node24</title>
<path fill="none" stroke="midnightblue" d="M813.29,-398.99C802.9,-401.82 792.85,-406.7 786,-415 715.39,-500.58 831.24,-837.42 750,-913 687.88,-970.79 578.38,-944.89 520.26,-925.09"/>
<polygon fill="midnightblue" stroke="midnightblue" points="814.2,-402.38 823.25,-396.88 812.74,-395.53 814.2,-402.38"/>
</g>
<!-- Node25 -->
<g id="node23" class="node">
<title>Node25</title>
<g id="a_node23"><a xlink:href="namespaceproblem__setup.html#a66cf6b889081b2c318eb0110057d83c9" target="_top" xlink:title=" ">
<polygon fill="none" stroke="black" points="415,-273 415,-325 546,-325 546,-273 415,-273"/>
<text text-anchor="start" x="423" y="-313" font-family="Arial" font-size="10.00">problem_setup.does</text>
<text text-anchor="start" x="423" y="-302" font-family="Arial" font-size="10.00">_intersect_with_rectangle</text>
<text text-anchor="start" x="423" y="-291" font-family="Arial" font-size="10.00">_wall_with_protrusion_and</text>
<text text-anchor="middle" x="480.5" y="-280" font-family="Arial" font-size="10.00">_opening</text>
</a>
</g>
</g>
<!-- Node11&#45;&gt;Node25 -->
<g id="edge26" class="edge">
<title>Node11&#45;&gt;Node25</title>
<path fill="none" stroke="midnightblue" d="M813.48,-386.13C762.76,-374.34 675.99,-353.75 602,-334 583.79,-329.14 564.13,-323.57 546.08,-318.32"/>
<polygon fill="midnightblue" stroke="midnightblue" points="812.91,-389.58 823.44,-388.43 814.49,-382.77 812.91,-389.58"/>
</g>
<!-- Node26 -->
<g id="node24" class="node">
<title>Node26</title>
<g id="a_node24"><a xlink:href="namespaceproblem__setup.html#a91bf08b893f31c7d232346b6178f0a98" target="_top" xlink:title=" ">
<polygon fill="none" stroke="black" points="202.5,-307.5 202.5,-326.5 331.5,-326.5 331.5,-307.5 202.5,-307.5"/>
<text text-anchor="middle" x="267" y="-314.5" font-family="Arial" font-size="10.00">problem_setup.get_center</text>
</a>
</g>
</g>
<!-- Node11&#45;&gt;Node26 -->
<g id="edge33" class="edge">
<title>Node11&#45;&gt;Node26</title>
<path fill="none" stroke="midnightblue" d="M834.55,-380.79C813.64,-366.9 780.86,-346.66 750,-334 687.17,-308.23 661.71,-328.36 602,-296 582.92,-285.66 586.23,-270.87 566,-263 495.17,-235.45 469.47,-247.83 395,-263 353.21,-271.52 308.14,-294.3 284.55,-307.39"/>
<polygon fill="midnightblue" stroke="midnightblue" points="832.76,-383.8 843.01,-386.49 836.67,-378 832.76,-383.8"/>
</g>
<!-- Node27 -->
<g id="node25" class="node">
<title>Node27</title>
<g id="a_node25"><a xlink:href="apps_2twop_2main_8cpp.html#a0ddf1224851353fc92bfbff6f499fa97" target="_top" xlink:title=" ">
<polygon fill="none" stroke="black" points="657,-698.5 657,-717.5 695,-717.5 695,-698.5 657,-698.5"/>
<text text-anchor="middle" x="676" y="-705.5" font-family="Arial" font-size="10.00">main</text>
</a>
</g>
</g>
<!-- Node11&#45;&gt;Node27 -->
<g id="edge34" class="edge">
<title>Node11&#45;&gt;Node27</title>
<path fill="none" stroke="midnightblue" d="M813.34,-399.36C803.06,-402.19 793.03,-406.99 786,-415 706.44,-505.66 827.07,-591.21 750,-684 736.62,-700.11 712.19,-705.49 695.3,-707.24"/>
<polygon fill="midnightblue" stroke="midnightblue" points="814.18,-402.76 823.2,-397.2 812.68,-395.92 814.18,-402.76"/>
</g>
<!-- Node28 -->
<g id="node26" class="node">
<title>Node28</title>
<g id="a_node26"><a xlink:href="namespaceproblem__setup.html#a662426f1cd2c0857864b28e98daa4d5a" target="_top" xlink:title=" ">
<polygon fill="none" stroke="black" points="618.5,-477 618.5,-507 733.5,-507 733.5,-477 618.5,-477"/>
<text text-anchor="start" x="626.5" y="-495" font-family="Arial" font-size="10.00">problem_setup.particle</text>
<text text-anchor="middle" x="676" y="-484" font-family="Arial" font-size="10.00">_locations</text>
</a>
</g>
</g>
<!-- Node11&#45;&gt;Node28 -->
<g id="edge35" class="edge">
<title>Node11&#45;&gt;Node28</title>
<path fill="none" stroke="midnightblue" d="M813.64,-404.04C804.2,-406.76 794.49,-410.33 786,-415 766.98,-425.46 767.38,-435 750,-448 735.78,-458.64 718.85,-468.97 704.88,-476.95"/>
<polygon fill="midnightblue" stroke="midnightblue" points="814.53,-407.43 823.32,-401.51 812.75,-400.65 814.53,-407.43"/>
</g>
<!-- Node29 -->
<g id="node27" class="node">
<title>Node29</title>
<g id="a_node27"><a xlink:href="namespacediscretize__circle__equidist.html#ab0d8f135d7916dc34b4c46ebdb286a6d" target="_top" xlink:title=" ">
<polygon fill="none" stroke="black" points="602,-824 602,-854 750,-854 750,-824 602,-824"/>
<text text-anchor="start" x="610" y="-842" font-family="Arial" font-size="10.00">discretize_circle_equidist.print</text>
<text text-anchor="middle" x="676" y="-831" font-family="Arial" font-size="10.00">_point</text>
</a>
</g>
</g>
<!-- Node11&#45;&gt;Node29 -->
<g id="edge45" class="edge">
<title>Node11&#45;&gt;Node29</title>
<path fill="none" stroke="midnightblue" d="M813.39,-399.08C803,-401.9 792.92,-406.76 786,-415 728.6,-483.34 805.52,-745.13 750,-815 747.26,-818.45 744.02,-821.4 740.44,-823.94"/>
<polygon fill="midnightblue" stroke="midnightblue" points="814.29,-402.46 823.34,-396.95 812.83,-395.62 814.29,-402.46"/>
</g>
<!-- Node31 -->
<g id="node29" class="node">
<title>Node31</title>
<g id="a_node29"><a xlink:href="namespacediscretize__circle.html#a928fb73bf9b364938a20bab31dbadb2c" target="_top" xlink:title=" ">
<polygon fill="none" stroke="black" points="621.5,-873 621.5,-903 730.5,-903 730.5,-873 621.5,-873"/>
<text text-anchor="start" x="629.5" y="-891" font-family="Arial" font-size="10.00">discretize_circle.print</text>
<text text-anchor="middle" x="676" y="-880" font-family="Arial" font-size="10.00">_point</text>
</a>
</g>
</g>
<!-- Node11&#45;&gt;Node31 -->
<g id="edge47" class="edge">
<title>Node11&#45;&gt;Node31</title>
<path fill="none" stroke="midnightblue" d="M813.33,-399.03C802.95,-401.85 792.88,-406.73 786,-415 721.99,-491.96 811.89,-785.33 750,-864 744.97,-870.4 738.19,-875.11 730.78,-878.57"/>
<polygon fill="midnightblue" stroke="midnightblue" points="814.24,-402.42 823.29,-396.91 812.78,-395.57 814.24,-402.42"/>
</g>
<!-- Node32 -->
<g id="node30" class="node">
<title>Node32</title>
<g id="a_node30"><a xlink:href="namespacediscretize__circle__dense.html#a87485189661519c83371b0afee042062" target="_top" xlink:title=" ">
<polygon fill="none" stroke="black" points="606,-775 606,-805 746,-805 746,-775 606,-775"/>
<text text-anchor="start" x="614" y="-793" font-family="Arial" font-size="10.00">discretize_circle_dense.print</text>
<text text-anchor="middle" x="676" y="-782" font-family="Arial" font-size="10.00">_point</text>
</a>
</g>
</g>
<!-- Node11&#45;&gt;Node32 -->
<g id="edge49" class="edge">
<title>Node11&#45;&gt;Node32</title>
<path fill="none" stroke="midnightblue" d="M813.46,-399.14C803.08,-401.96 792.98,-406.81 786,-415 686.01,-532.34 842.37,-636.57 750,-760 745.4,-766.14 739.32,-771.03 732.63,-774.93"/>
<polygon fill="midnightblue" stroke="midnightblue" points="814.37,-402.53 823.42,-397.01 812.91,-395.68 814.37,-402.53"/>
</g>
<!-- Node34 -->
<g id="node32" class="node">
<title>Node34</title>
<g id="a_node32"><a xlink:href="namespacetest.html#ad42bc7bd3da5dce5ed3624b8fca7585f" target="_top" xlink:title="Perform test on taskflow.">
<polygon fill="none" stroke="black" points="433,-192.5 433,-211.5 528,-211.5 528,-192.5 433,-192.5"/>
<text text-anchor="middle" x="480.5" y="-199.5" font-family="Arial" font-size="10.00">test::testTaskflow</text>
</a>
</g>
</g>
<!-- Node11&#45;&gt;Node34 -->
<g id="edge52" class="edge">
<title>Node11&#45;&gt;Node34</title>
<path fill="none" stroke="midnightblue" d="M837.85,-379.56C809.98,-355.09 759.68,-311.39 750,-306 689.57,-272.39 663.1,-290.38 602,-258 584.09,-248.51 583.88,-239.55 566,-230 551.55,-222.28 534.58,-216.16 519.65,-211.63"/>
<polygon fill="midnightblue" stroke="midnightblue" points="835.89,-382.49 845.71,-386.47 840.51,-377.24 835.89,-382.49"/>
</g>
<!-- Node13&#45;&gt;Node14 -->
<g id="edge15" class="edge">
<title>Node13&#45;&gt;Node14</title>
<path fill="none" stroke="midnightblue" d="M447.09,-609C430.04,-621.21 409.69,-637.77 395,-656 372.55,-683.85 386.76,-705.43 359,-728 352.91,-732.95 345.91,-736.88 338.55,-740.01"/>
<polygon fill="midnightblue" stroke="midnightblue" points="449.46,-611.61 455.66,-603.02 445.46,-605.87 449.46,-611.61"/>
</g>
<!-- Node15 -->
<g id="node15" class="node">
<title>Node15</title>
<g id="a_node15"><a xlink:href="namespaceproblem__setup.html#aff5393227de056de45cfc082e05af1ca" target="_top" xlink:title=" ">
<polygon fill="none" stroke="black" points="199,-600 199,-630 335,-630 335,-600 199,-600"/>
<text text-anchor="start" x="207" y="-618" font-family="Arial" font-size="10.00">problem_setup.generate</text>
<text text-anchor="middle" x="267" y="-607" font-family="Arial" font-size="10.00">_drum_particle_gmsh_input</text>
</a>
</g>
</g>
<!-- Node13&#45;&gt;Node15 -->
<g id="edge16" class="edge">
<title>Node13&#45;&gt;Node15</title>
<path fill="none" stroke="midnightblue" d="M415.1,-596.22C389.84,-599.45 360.84,-603.15 335.3,-606.41"/>
<polygon fill="midnightblue" stroke="midnightblue" points="415.83,-599.66 425.31,-594.92 414.95,-592.71 415.83,-599.66"/>
</g>
<!-- Node16 -->
<g id="node16" class="node">
<title>Node16</title>
<g id="a_node16"><a xlink:href="namespaceproblem__setup.html#a8c789550cc1b70abe559c976bcf664e4" target="_top" xlink:title=" ">
<polygon fill="none" stroke="red" points="201.5,-512 201.5,-542 332.5,-542 332.5,-512 201.5,-512"/>
<text text-anchor="start" x="209.5" y="-530" font-family="Arial" font-size="10.00">problem_setup.generate</text>
<text text-anchor="middle" x="267" y="-519" font-family="Arial" font-size="10.00">_moving_wall_gmsh_input</text>
</a>
</g>
</g>
<!-- Node13&#45;&gt;Node16 -->
<g id="edge17" class="edge">
<title>Node13&#45;&gt;Node16</title>
<path fill="none" stroke="midnightblue" d="M417.67,-570.17C386.72,-561.24 349.67,-550.56 320.18,-542.05"/>
<polygon fill="midnightblue" stroke="midnightblue" points="416.91,-573.59 427.49,-573 418.85,-566.87 416.91,-573.59"/>
</g>
<!-- Node18 -->
<g id="node17" class="node">
<title>Node18</title>
<g id="a_node17"><a xlink:href="namespaceproblem__setup.html#a147f310ff74124342d15ab356739883f" target="_top" xlink:title=" ">
<polygon fill="none" stroke="red" points="206.5,-688 206.5,-718 327.5,-718 327.5,-688 206.5,-688"/>
<text text-anchor="start" x="214.5" y="-706" font-family="Arial" font-size="10.00">problem_setup.generate</text>
<text text-anchor="middle" x="267" y="-695" font-family="Arial" font-size="10.00">_particle_gmsh_input</text>
</a>
</g>
</g>
<!-- Node13&#45;&gt;Node18 -->
<g id="edge18" class="edge">
<title>Node13&#45;&gt;Node18</title>
<path fill="none" stroke="midnightblue" d="M415.87,-605.4C408.44,-608.9 401.28,-613.06 395,-618 372.03,-636.05 382.17,-655.21 359,-673 349.76,-680.09 338.78,-685.55 327.68,-689.73"/>
<polygon fill="midnightblue" stroke="midnightblue" points="417.59,-608.47 425.39,-601.31 414.82,-602.04 417.59,-608.47"/>
</g>
<!-- Node20 -->
<g id="node18" class="node">
<title>Node20</title>
<g id="a_node18"><a xlink:href="namespaceproblem__setup.html#af51753c1e02e9634827a449ab8729d44" target="_top" xlink:title=" ">
<polygon fill="none" stroke="black" points="9,-666 9,-696 130,-696 130,-666 9,-666"/>
<text text-anchor="start" x="17" y="-684" font-family="Arial" font-size="10.00">problem_setup.generate</text>
<text text-anchor="middle" x="69.5" y="-673" font-family="Arial" font-size="10.00">_wall_gmsh_input</text>
</a>
</g>
</g>
<!-- Node13&#45;&gt;Node20 -->
<g id="edge23" class="edge">
<title>Node13&#45;&gt;Node20</title>
<path fill="none" stroke="midnightblue" d="M421.96,-606.61C412.81,-610.09 403.55,-613.92 395,-618 378.07,-626.07 376.65,-633.66 359,-640 283.06,-667.28 189.76,-676.48 130.2,-679.54"/>
<polygon fill="midnightblue" stroke="midnightblue" points="423.25,-609.87 431.42,-603.12 420.83,-603.3 423.25,-609.87"/>
</g>
<!-- Node13&#45;&gt;Node21 -->
<g id="edge20" class="edge">
<title>Node13&#45;&gt;Node21</title>
<path fill="none" stroke="midnightblue" d="M415.33,-586.04C338.46,-582.73 215.04,-574.07 175,-552 126.54,-525.28 91.99,-466.08 77.74,-438.15"/>
<polygon fill="midnightblue" stroke="midnightblue" points="415.25,-589.54 425.39,-586.46 415.54,-582.55 415.25,-589.54"/>
</g>
<!-- Node13&#45;&gt;Node22 -->
<g id="edge21" class="edge">
<title>Node13&#45;&gt;Node22</title>
<path fill="none" stroke="midnightblue" d="M463.99,-564.33C443.37,-534.58 404.2,-483.83 359,-454 353.15,-450.14 346.77,-446.71 340.19,-443.68"/>
<polygon fill="midnightblue" stroke="midnightblue" points="461.27,-566.54 469.79,-572.84 467.05,-562.6 461.27,-566.54"/>
</g>
<!-- Node23 -->
<g id="node21" class="node">
<title>Node23</title>
<g id="a_node21"><a xlink:href="namespaceproblem__setup.html#ad0951de1e260620b256ecd25ed5d8e5a" target="_top" xlink:title=" ">
<polygon fill="none" stroke="black" points="209.5,-463 209.5,-493 324.5,-493 324.5,-463 209.5,-463"/>
<text text-anchor="start" x="217.5" y="-481" font-family="Arial" font-size="10.00">problem_setup.particle</text>
<text text-anchor="middle" x="267" y="-470" font-family="Arial" font-size="10.00">_locations</text>
</a>
</g>
</g>
<!-- Node13&#45;&gt;Node23 -->
<g id="edge24" class="edge">
<title>Node13&#45;&gt;Node23</title>
<path fill="none" stroke="midnightblue" d="M454.37,-566.32C431.05,-547.2 394.67,-519.85 359,-503 348.33,-497.96 336.47,-493.78 324.92,-490.37"/>
<polygon fill="midnightblue" stroke="midnightblue" points="452.42,-569.25 462.34,-572.95 456.89,-563.87 452.42,-569.25"/>
</g>
<!-- Node18&#45;&gt;Node20 -->
<g id="edge19" class="edge">
<title>Node18&#45;&gt;Node20</title>
<path fill="none" stroke="midnightblue" d="M196.19,-695.14C174.6,-692.71 151.03,-690.06 130.19,-687.72"/>
<polygon fill="midnightblue" stroke="midnightblue" points="195.95,-698.64 206.28,-696.28 196.74,-691.68 195.95,-698.64"/>
</g>
<!-- Node22&#45;&gt;Node21 -->
<g id="edge22" class="edge">
<title>Node22&#45;&gt;Node21</title>
<path fill="none" stroke="midnightblue" d="M164.65,-423C155.98,-423 147.35,-423 139.03,-423"/>
<polygon fill="midnightblue" stroke="midnightblue" points="164.83,-426.5 174.83,-423 164.83,-419.5 164.83,-426.5"/>
</g>
<!-- Node25&#45;&gt;Node26 -->
<g id="edge27" class="edge">
<title>Node25&#45;&gt;Node26</title>
<path fill="none" stroke="midnightblue" d="M404.83,-305.35C381,-307.38 354.84,-309.61 331.85,-311.57"/>
<polygon fill="midnightblue" stroke="midnightblue" points="405.23,-308.83 414.89,-304.5 404.63,-301.86 405.23,-308.83"/>
</g>
<!-- Node26&#45;&gt;Node21 -->
<g id="edge28" class="edge">
<title>Node26&#45;&gt;Node21</title>
<path fill="none" stroke="midnightblue" d="M234.68,-330.85C216.95,-338.93 194.49,-349.55 175,-360 146.62,-375.21 115.1,-394.57 94.17,-407.79"/>
<polygon fill="midnightblue" stroke="midnightblue" points="236.32,-333.95 244,-326.64 233.44,-327.57 236.32,-333.95"/>
</g>
<!-- Node28&#45;&gt;Node13 -->
<g id="edge36" class="edge">
<title>Node28&#45;&gt;Node13</title>
<path fill="none" stroke="midnightblue" d="M644.57,-512.73C623.21,-526.7 593.63,-544.9 566,-558 554.47,-563.47 541.65,-568.51 529.56,-572.84"/>
<polygon fill="midnightblue" stroke="midnightblue" points="646.78,-515.46 653.19,-507.03 642.92,-509.62 646.78,-515.46"/>
</g>
<!-- Node28&#45;&gt;Node14 -->
<g id="edge38" class="edge">
<title>Node28&#45;&gt;Node14</title>
<path fill="none" stroke="midnightblue" d="M664.57,-516.46C648.53,-551.08 614.49,-613.97 566,-648 501.58,-693.21 463.69,-655.59 395,-694 375.79,-704.74 378.24,-717.31 359,-728 352.72,-731.49 345.9,-734.49 338.93,-737.07"/>
<polygon fill="midnightblue" stroke="midnightblue" points="667.88,-517.64 668.79,-507.08 661.49,-514.76 667.88,-517.64"/>
</g>
<!-- Node28&#45;&gt;Node16 -->
<g id="edge39" class="edge">
<title>Node28&#45;&gt;Node16</title>
<path fill="none" stroke="midnightblue" d="M608.44,-497.72C532.26,-504.27 408.3,-514.93 332.84,-521.42"/>
<polygon fill="midnightblue" stroke="midnightblue" points="608.75,-501.21 618.41,-496.87 608.15,-494.24 608.75,-501.21"/>
</g>
<!-- Node28&#45;&gt;Node18 -->
<g id="edge40" class="edge">
<title>Node28&#45;&gt;Node18</title>
<path fill="none" stroke="midnightblue" d="M659.94,-515.93C641.29,-543.57 606.91,-588.37 566,-613 498.86,-653.42 469.08,-630.44 395,-656 378.45,-661.71 375.3,-665.61 359,-672 344.86,-677.54 329.27,-683.06 315.05,-687.87"/>
<polygon fill="midnightblue" stroke="midnightblue" points="663.07,-517.55 665.65,-507.27 657.23,-513.69 663.07,-517.55"/>
</g>
<!-- Node28&#45;&gt;Node21 -->
<g id="edge41" class="edge">
<title>Node28&#45;&gt;Node21</title>
<path fill="none" stroke="midnightblue" d="M637.91,-472.27C617.2,-461.86 590.66,-449.52 566,-441 400.52,-383.81 348.37,-368.61 175,-393 154.07,-395.95 131.45,-402.06 112.62,-408"/>
<polygon fill="midnightblue" stroke="midnightblue" points="636.49,-475.48 646.99,-476.9 639.67,-469.24 636.49,-475.48"/>
</g>
<!-- Node28&#45;&gt;Node22 -->
<g id="edge42" class="edge">
<title>Node28&#45;&gt;Node22</title>
<path fill="none" stroke="midnightblue" d="M608.27,-480.69C540.43,-469.19 434.85,-451.29 359.29,-438.48"/>
<polygon fill="midnightblue" stroke="midnightblue" points="607.96,-484.19 618.41,-482.41 609.13,-477.28 607.96,-484.19"/>
</g>
<!-- Node28&#45;&gt;Node23 -->
<g id="edge44" class="edge">
<title>Node28&#45;&gt;Node23</title>
<path fill="none" stroke="midnightblue" d="M608.09,-489.7C529.08,-486.98 399.06,-482.51 324.77,-479.95"/>
<polygon fill="midnightblue" stroke="midnightblue" points="608.29,-493.21 618.41,-490.05 608.53,-486.21 608.29,-493.21"/>
</g>
<!-- Node28&#45;&gt;Node25 -->
<g id="edge37" class="edge">
<title>Node28&#45;&gt;Node25</title>
<path fill="none" stroke="midnightblue" d="M650.21,-469.68C635.01,-455.13 615.88,-435.15 602,-415 581.03,-384.55 592.09,-366.2 566,-340 560.25,-334.22 553.52,-329.14 546.41,-324.7"/>
<polygon fill="midnightblue" stroke="midnightblue" points="648.06,-472.47 657.75,-476.76 652.86,-467.37 648.06,-472.47"/>
</g>
<!-- Node28&#45;&gt;Node26 -->
<g id="edge43" class="edge">
<title>Node28&#45;&gt;Node26</title>
<path fill="none" stroke="midnightblue" d="M653.48,-469.33C622.11,-436.29 567.37,-378.75 566,-378 526.48,-356.16 406.79,-336.28 331.67,-325.49"/>
<polygon fill="midnightblue" stroke="midnightblue" points="651.11,-471.91 660.53,-476.76 656.19,-467.09 651.11,-471.91"/>
</g>
<!-- Node30 -->
<g id="node28" class="node">
<title>Node30</title>
<g id="a_node28"><a xlink:href="namespacediscretize__circle__equidist.html#a22f34fe206d5038c057766708d124bd1" target="_top" xlink:title=" ">
<polygon fill="none" stroke="black" points="395,-824 395,-854 566,-854 566,-824 395,-824"/>
<text text-anchor="start" x="403" y="-842" font-family="Arial" font-size="10.00">discretize_circle_equidist.discretize</text>
<text text-anchor="middle" x="480.5" y="-831" font-family="Arial" font-size="10.00">_circle</text>
</a>
</g>
</g>
<!-- Node29&#45;&gt;Node30 -->
<g id="edge46" class="edge">
<title>Node29&#45;&gt;Node30</title>
<path fill="none" stroke="midnightblue" d="M591.63,-839C583.18,-839 574.59,-839 566.12,-839"/>
<polygon fill="midnightblue" stroke="midnightblue" points="591.85,-842.5 601.85,-839 591.85,-835.5 591.85,-842.5"/>
</g>
<!-- Node31&#45;&gt;Node24 -->
<g id="edge48" class="edge">
<title>Node31&#45;&gt;Node24</title>
<path fill="none" stroke="midnightblue" d="M611.36,-895.24C590.59,-897.6 567.5,-900.22 546.61,-902.6"/>
<polygon fill="midnightblue" stroke="midnightblue" points="611.82,-898.71 621.36,-894.1 611.03,-891.75 611.82,-898.71"/>
</g>
<!-- Node33 -->
<g id="node31" class="node">
<title>Node33</title>
<g id="a_node31"><a xlink:href="namespacediscretize__circle__dense.html#a2fdbc614933bc736a1b03f8f98808a18" target="_top" xlink:title=" ">
<polygon fill="none" stroke="black" points="398.5,-775 398.5,-805 562.5,-805 562.5,-775 398.5,-775"/>
<text text-anchor="start" x="406.5" y="-793" font-family="Arial" font-size="10.00">discretize_circle_dense.discretize</text>
<text text-anchor="middle" x="480.5" y="-782" font-family="Arial" font-size="10.00">_circle</text>
</a>
</g>
</g>
<!-- Node32&#45;&gt;Node33 -->
<g id="edge50" class="edge">
<title>Node32&#45;&gt;Node33</title>
<path fill="none" stroke="midnightblue" d="M595.66,-790C584.8,-790 573.63,-790 562.74,-790"/>
<polygon fill="midnightblue" stroke="midnightblue" points="595.96,-793.5 605.96,-790 595.96,-786.5 595.96,-793.5"/>
</g>
<!-- Node34&#45;&gt;Node9 -->
<g id="edge53" class="edge">
<title>Node34&#45;&gt;Node9</title>
<path fill="none" stroke="midnightblue" d="M422.79,-196.1C377.31,-191.37 316.28,-185.02 286.25,-181.9"/>
<polygon fill="midnightblue" stroke="midnightblue" points="422.52,-199.59 432.82,-197.14 423.24,-192.63 422.52,-199.59"/>
</g>
<!-- Node36&#45;&gt;Node8 -->
<g id="edge56" class="edge">
<title>Node36&#45;&gt;Node8</title>
<path fill="none" stroke="midnightblue" d="M786.08,-20.32C733.33,-22.22 660.49,-30.08 602,-56 552.34,-78.01 507.07,-126.83 489.38,-147.48"/>
<polygon fill="midnightblue" stroke="midnightblue" points="786.46,-23.81 796.35,-20.01 786.25,-16.81 786.46,-23.81"/>
</g>
<!-- Node37&#45;&gt;Node8 -->
<g id="edge58" class="edge">
<title>Node37&#45;&gt;Node8</title>
<path fill="none" stroke="midnightblue" d="M789.92,-206.48C788.56,-205.36 787.25,-204.2 786,-203 759.05,-177.11 781.58,-146.99 750,-127 669.14,-75.83 546.65,-125.26 500.23,-147.46"/>
<polygon fill="midnightblue" stroke="midnightblue" points="787.97,-209.39 798.13,-212.41 792.07,-203.71 787.97,-209.39"/>
</g>
<!-- Node38&#45;&gt;Node3 -->
<g id="edge62" class="edge">
<title>Node38&#45;&gt;Node3</title>
<path fill="none" stroke="midnightblue" d="M1007.38,-297.86C993.86,-308.37 976.93,-323.13 965,-339 942.54,-368.87 957.69,-391.04 929,-415 914.21,-427.35 892.13,-431.73 876.63,-433.26"/>
<polygon fill="midnightblue" stroke="midnightblue" points="1009.81,-300.4 1015.68,-291.59 1005.59,-294.82 1009.81,-300.4"/>
</g>
<!-- Node38&#45;&gt;Node7 -->
<g id="edge61" class="edge">
<title>Node38&#45;&gt;Node7</title>
<path fill="none" stroke="midnightblue" d="M968.96,-292.79C916.18,-298.82 839.85,-299.03 786,-263 756.6,-243.32 775.29,-216.74 750,-192 744.37,-186.5 737.71,-181.73 730.75,-177.63"/>
<polygon fill="midnightblue" stroke="midnightblue" points="969.69,-296.23 979.18,-291.52 968.83,-289.28 969.69,-296.23"/>
</g>
<!-- Node38&#45;&gt;Node8 -->
<g id="edge64" class="edge">
<title>Node38&#45;&gt;Node8</title>
<path fill="none" stroke="midnightblue" d="M995.79,-294.94C945.81,-311.8 850.96,-334.64 786,-294 754.99,-274.6 778.7,-242.67 750,-220 697.12,-178.22 667.59,-202.48 602,-187 573.57,-180.29 541.48,-172.28 517.56,-166.22"/>
<polygon fill="midnightblue" stroke="midnightblue" points="997.17,-298.17 1005.46,-291.56 994.87,-291.56 997.17,-298.17"/>
</g>
<!-- Node38&#45;&gt;Node37 -->
<g id="edge63" class="edge">
<title>Node38&#45;&gt;Node37</title>
<path fill="none" stroke="midnightblue" d="M986.33,-269.63C969.03,-264.67 948.64,-258.83 929.29,-253.28"/>
<polygon fill="midnightblue" stroke="midnightblue" points="985.55,-273.05 996.12,-272.44 987.47,-266.32 985.55,-273.05"/>
</g>
</g>
</svg>
