<?xml version="1.0" encoding="UTF-8" standalone="no"?>
<!DOCTYPE svg PUBLIC "-//W3C//DTD SVG 1.1//EN"
 "http://www.w3.org/Graphics/SVG/1.1/DTD/svg11.dtd">
<!-- Generated by graphviz version 2.43.0 (0)
 -->
<!-- Title: util::areBoxesNear Pages: 1 -->
<svg width="268pt" height="382pt"
 viewBox="0.00 0.00 268.00 382.00" xmlns="http://www.w3.org/2000/svg" xmlns:xlink="http://www.w3.org/1999/xlink">
<g id="graph0" class="graph" transform="scale(1 1) rotate(0) translate(4 378)">
<title>util::areBoxesNear</title>
<!-- Node1 -->
<g id="node1" class="node">
<title>Node1</title>
<g id="a_node1"><a xlink:title="Checks if given two boxes are within given distance from each other.">
<polygon fill="#bfbfbf" stroke="black" points="162,-177 162,-196 260,-196 260,-177 162,-177"/>
<text text-anchor="middle" x="211" y="-184" font-family="Arial" font-size="10.00">util::areBoxesNear</text>
</a>
</g>
</g>
<!-- Node2 -->
<g id="node2" class="node">
<title>Node2</title>
<g id="a_node2"><a xlink:href="classutil_1_1geometry_1_1Triangle.html#a48ae3ed64cecfc395906a1bf68bf973d" target="_top" xlink:title=" ">
<polygon fill="none" stroke="black" points="5,-343.5 5,-373.5 121,-373.5 121,-343.5 5,-343.5"/>
<text text-anchor="start" x="13" y="-361.5" font-family="Arial" font-size="10.00">util::geometry::Triangle</text>
<text text-anchor="middle" x="63" y="-350.5" font-family="Arial" font-size="10.00">::isNear</text>
</a>
</g>
</g>
<!-- Node1&#45;&gt;Node2 -->
<g id="edge1" class="edge">
<title>Node1&#45;&gt;Node2</title>
<path fill="none" stroke="midnightblue" d="M203.78,-206.01C192.87,-237.29 167.42,-298.76 126,-334.5 122.07,-337.89 117.6,-340.84 112.91,-343.38"/>
<polygon fill="midnightblue" stroke="midnightblue" points="207.17,-206.89 207.03,-196.3 200.54,-204.67 207.17,-206.89"/>
</g>
<!-- Node3 -->
<g id="node3" class="node">
<title>Node3</title>
<g id="a_node3"><a xlink:href="classutil_1_1geometry_1_1Square.html#aeca313e91b6ebde43320b3a620df7341" target="_top" xlink:title=" ">
<polygon fill="none" stroke="black" points="6.5,-294.5 6.5,-324.5 119.5,-324.5 119.5,-294.5 6.5,-294.5"/>
<text text-anchor="start" x="14.5" y="-312.5" font-family="Arial" font-size="10.00">util::geometry::Square</text>
<text text-anchor="middle" x="63" y="-301.5" font-family="Arial" font-size="10.00">::isNear</text>
</a>
</g>
</g>
<!-- Node1&#45;&gt;Node3 -->
<g id="edge2" class="edge">
<title>Node1&#45;&gt;Node3</title>
<path fill="none" stroke="midnightblue" d="M198.69,-204.71C184.25,-226.61 157.36,-263.19 126,-285.5 121.3,-288.85 116.07,-291.8 110.69,-294.39"/>
<polygon fill="midnightblue" stroke="midnightblue" points="201.79,-206.35 204.25,-196.05 195.9,-202.57 201.79,-206.35"/>
</g>
<!-- Node4 -->
<g id="node4" class="node">
<title>Node4</title>
<g id="a_node4"><a xlink:href="classutil_1_1geometry_1_1Rectangle.html#ab9e5e172e1a2542eb606f211562892ac" target="_top" xlink:title=" ">
<polygon fill="none" stroke="black" points="0,-245.5 0,-275.5 126,-275.5 126,-245.5 0,-245.5"/>
<text text-anchor="start" x="8" y="-263.5" font-family="Arial" font-size="10.00">util::geometry::Rectangle</text>
<text text-anchor="middle" x="63" y="-252.5" font-family="Arial" font-size="10.00">::isNear</text>
</a>
</g>
</g>
<!-- Node1&#45;&gt;Node4 -->
<g id="edge3" class="edge">
<title>Node1&#45;&gt;Node4</title>
<path fill="none" stroke="midnightblue" d="M187.07,-201.57C170.5,-212.11 147.37,-226.09 126,-236.5 119.57,-239.63 112.61,-242.66 105.77,-245.44"/>
<polygon fill="midnightblue" stroke="midnightblue" points="189.03,-204.47 195.55,-196.12 185.24,-198.59 189.03,-204.47"/>
</g>
<!-- Node5 -->
<g id="node5" class="node">
<title>Node5</title>
<g id="a_node5"><a xlink:href="classutil_1_1geometry_1_1Hexagon.html#a22113f305ef928c9bf09b0817a68ea8f" target="_top" xlink:title=" ">
<polygon fill="none" stroke="black" points="2.5,-196.5 2.5,-226.5 123.5,-226.5 123.5,-196.5 2.5,-196.5"/>
<text text-anchor="start" x="10.5" y="-214.5" font-family="Arial" font-size="10.00">util::geometry::Hexagon</text>
<text text-anchor="middle" x="63" y="-203.5" font-family="Arial" font-size="10.00">::isNear</text>
</a>
</g>
</g>
<!-- Node1&#45;&gt;Node5 -->
<g id="edge4" class="edge">
<title>Node1&#45;&gt;Node5</title>
<path fill="none" stroke="midnightblue" d="M151.87,-196.45C142.58,-198.05 132.95,-199.69 123.62,-201.29"/>
<polygon fill="midnightblue" stroke="midnightblue" points="152.52,-199.89 161.79,-194.76 151.34,-192.99 152.52,-199.89"/>
</g>
<!-- Node6 -->
<g id="node6" class="node">
<title>Node6</title>
<g id="a_node6"><a xlink:href="classutil_1_1geometry_1_1Drum2D.html#a6b4a0ee14758e9354d6e3566e74edfc9" target="_top" xlink:title=" ">
<polygon fill="none" stroke="black" points="3.5,-147.5 3.5,-177.5 122.5,-177.5 122.5,-147.5 3.5,-147.5"/>
<text text-anchor="start" x="11.5" y="-165.5" font-family="Arial" font-size="10.00">util::geometry::Drum2D</text>
<text text-anchor="middle" x="63" y="-154.5" font-family="Arial" font-size="10.00">::isNear</text>
</a>
</g>
</g>
<!-- Node1&#45;&gt;Node6 -->
<g id="edge5" class="edge">
<title>Node1&#45;&gt;Node6</title>
<path fill="none" stroke="midnightblue" d="M151.9,-176.95C142.25,-175.36 132.24,-173.72 122.58,-172.13"/>
<polygon fill="midnightblue" stroke="midnightblue" points="151.35,-180.41 161.79,-178.57 152.49,-173.5 151.35,-180.41"/>
</g>
<!-- Node7 -->
<g id="node7" class="node">
<title>Node7</title>
<g id="a_node7"><a xlink:href="classutil_1_1geometry_1_1Cube.html#aac5be48370823593083e6da438bdb962" target="_top" xlink:title=" ">
<polygon fill="none" stroke="black" points="10.5,-98.5 10.5,-128.5 115.5,-128.5 115.5,-98.5 10.5,-98.5"/>
<text text-anchor="start" x="18.5" y="-116.5" font-family="Arial" font-size="10.00">util::geometry::Cube</text>
<text text-anchor="middle" x="63" y="-105.5" font-family="Arial" font-size="10.00">::isNear</text>
</a>
</g>
</g>
<!-- Node1&#45;&gt;Node7 -->
<g id="edge6" class="edge">
<title>Node1&#45;&gt;Node7</title>
<path fill="none" stroke="midnightblue" d="M185.58,-171.37C169.06,-161.43 146.6,-148.48 126,-138.5 118.9,-135.06 111.19,-131.68 103.71,-128.58"/>
<polygon fill="midnightblue" stroke="midnightblue" points="184.19,-174.62 194.55,-176.83 187.82,-168.64 184.19,-174.62"/>
</g>
<!-- Node8 -->
<g id="node8" class="node">
<title>Node8</title>
<g id="a_node8"><a xlink:href="classutil_1_1geometry_1_1Cuboid.html#ac88433cc43e94f4f1a399ba8776e4986" target="_top" xlink:title=" ">
<polygon fill="none" stroke="black" points="6.5,-49.5 6.5,-79.5 119.5,-79.5 119.5,-49.5 6.5,-49.5"/>
<text text-anchor="start" x="14.5" y="-67.5" font-family="Arial" font-size="10.00">util::geometry::Cuboid</text>
<text text-anchor="middle" x="63" y="-56.5" font-family="Arial" font-size="10.00">::isNear</text>
</a>
</g>
</g>
<!-- Node1&#45;&gt;Node8 -->
<g id="edge7" class="edge">
<title>Node1&#45;&gt;Node8</title>
<path fill="none" stroke="midnightblue" d="M198.33,-168.41C183.7,-147.01 156.79,-111.49 126,-89.5 120.71,-85.72 114.77,-82.4 108.71,-79.52"/>
<polygon fill="midnightblue" stroke="midnightblue" points="195.53,-170.52 203.99,-176.9 201.35,-166.64 195.53,-170.52"/>
</g>
<!-- Node9 -->
<g id="node9" class="node">
<title>Node9</title>
<g id="a_node9"><a xlink:href="classutil_1_1geometry_1_1Cylinder.html#a5e2547782e3c159abff3977dd872a8cc" target="_top" xlink:title=" ">
<polygon fill="none" stroke="black" points="4,-0.5 4,-30.5 122,-30.5 122,-0.5 4,-0.5"/>
<text text-anchor="start" x="12" y="-18.5" font-family="Arial" font-size="10.00">util::geometry::Cylinder</text>
<text text-anchor="middle" x="63" y="-7.5" font-family="Arial" font-size="10.00">::isNear</text>
</a>
</g>
</g>
<!-- Node1&#45;&gt;Node9 -->
<g id="edge8" class="edge">
<title>Node1&#45;&gt;Node9</title>
<path fill="none" stroke="midnightblue" d="M203.65,-167.32C192.55,-136.55 166.85,-76.04 126,-40.5 121.62,-36.69 116.59,-33.42 111.32,-30.61"/>
<polygon fill="midnightblue" stroke="midnightblue" points="200.38,-168.57 206.97,-176.87 206.99,-166.27 200.38,-168.57"/>
</g>
</g>
</svg>
