<?xml version="1.0" encoding="UTF-8" standalone="no"?>
<!DOCTYPE svg PUBLIC "-//W3C//DTD SVG 1.1//EN"
 "http://www.w3.org/Graphics/SVG/1.1/DTD/svg11.dtd">
<!-- Generated by graphviz version 2.43.0 (0)
 -->
<!-- Title: problem_setup.particle_locations Pages: 1 -->
<svg width="975pt" height="805pt"
 viewBox="0.00 0.00 975.00 804.78" xmlns="http://www.w3.org/2000/svg" xmlns:xlink="http://www.w3.org/1999/xlink">
<g id="graph0" class="graph" transform="scale(1 1) rotate(0) translate(4 800.78)">
<title>problem_setup.particle_locations</title>
<!-- Node1 -->
<g id="node1" class="node">
<title>Node1</title>
<g id="a_node1"><a xlink:title=" ">
<polygon fill="#bfbfbf" stroke="black" points="0,-387.5 0,-417.5 115,-417.5 115,-387.5 0,-387.5"/>
<text text-anchor="start" x="8" y="-405.5" font-family="Arial" font-size="10.00">problem_setup.particle</text>
<text text-anchor="middle" x="57.5" y="-394.5" font-family="Arial" font-size="10.00">_locations</text>
</a>
</g>
</g>
<!-- Node2 -->
<g id="node2" class="node">
<title>Node2</title>
<g id="a_node2"><a xlink:href="namespaceproblem__setup.html#a64e067098e447f766d042476ef5abe85" target="_top" xlink:title=" ">
<polygon fill="none" stroke="black" points="328,-453.5 328,-483.5 438,-483.5 438,-453.5 328,-453.5"/>
<text text-anchor="start" x="336" y="-471.5" font-family="Arial" font-size="10.00">problem_setup.create</text>
<text text-anchor="middle" x="383" y="-460.5" font-family="Arial" font-size="10.00">_input_file</text>
</a>
</g>
</g>
<!-- Node1&#45;&gt;Node2 -->
<g id="edge1" class="edge">
<title>Node1&#45;&gt;Node2</title>
<path fill="none" stroke="midnightblue" d="M111.13,-417.59C124.11,-421.07 138.01,-424.6 151,-427.5 206.92,-439.99 271.14,-451.14 317.65,-458.64"/>
<polygon fill="midnightblue" stroke="midnightblue" points="317.16,-462.11 327.59,-460.23 318.27,-455.2 317.16,-462.11"/>
</g>
<!-- Node10 -->
<g id="node10" class="node">
<title>Node10</title>
<g id="a_node10"><a xlink:href="namespaceproblem__setup.html#af977354e61703cd925c2511fd3ca0858" target="_top" xlink:title=" ">
<polygon fill="none" stroke="black" points="502.5,-750 502.5,-769 611.5,-769 611.5,-750 502.5,-750"/>
<text text-anchor="middle" x="557" y="-757" font-family="Arial" font-size="10.00">problem_setup.get_E</text>
</a>
</g>
</g>
<!-- Node1&#45;&gt;Node10 -->
<g id="edge43" class="edge">
<title>Node1&#45;&gt;Node10</title>
<path fill="none" stroke="midnightblue" d="M62.46,-417.65C79.67,-479.77 154.52,-714.78 318,-782.5 386.39,-810.83 474.98,-788.53 522.45,-772.39"/>
<polygon fill="midnightblue" stroke="midnightblue" points="523.65,-775.68 531.93,-769.06 521.33,-769.07 523.65,-775.68"/>
</g>
<!-- Node11 -->
<g id="node11" class="node">
<title>Node11</title>
<g id="a_node11"><a xlink:href="namespaceproblem__setup.html#a564e6017e037399c311be8b31653e45d" target="_top" xlink:title=" ">
<polygon fill="none" stroke="black" points="495.5,-261 495.5,-280 618.5,-280 618.5,-261 495.5,-261"/>
<text text-anchor="middle" x="557" y="-268" font-family="Arial" font-size="10.00">problem_setup.get_eff_k</text>
</a>
</g>
</g>
<!-- Node1&#45;&gt;Node11 -->
<g id="edge44" class="edge">
<title>Node1&#45;&gt;Node11</title>
<path fill="none" stroke="midnightblue" d="M62.33,-387.5C71.73,-353.54 99.04,-270.07 151,-222.5 210.11,-168.38 239.35,-169.9 318,-154.5 374.7,-143.4 400.51,-121.59 448,-154.5 485.45,-180.46 450.4,-219.72 484,-250.5 486.2,-252.51 488.58,-254.32 491.1,-255.96"/>
<polygon fill="midnightblue" stroke="midnightblue" points="489.64,-259.15 500.1,-260.84 492.98,-252.99 489.64,-259.15"/>
</g>
<!-- Node12 -->
<g id="node12" class="node">
<title>Node12</title>
<g id="a_node12"><a xlink:href="namespaceproblem__setup.html#adc274a492cfb30270617c3c66d64c6c4" target="_top" xlink:title=" ">
<polygon fill="none" stroke="black" points="502,-633 502,-652 612,-652 612,-633 502,-633"/>
<text text-anchor="middle" x="557" y="-640" font-family="Arial" font-size="10.00">problem_setup.get_G</text>
</a>
</g>
</g>
<!-- Node1&#45;&gt;Node12 -->
<g id="edge45" class="edge">
<title>Node1&#45;&gt;Node12</title>
<path fill="none" stroke="midnightblue" d="M67.58,-417.51C82.46,-441.07 114.1,-486.96 151,-515.5 253.35,-594.68 405.86,-624.99 491.55,-636.22"/>
<polygon fill="midnightblue" stroke="midnightblue" points="491.3,-639.71 501.66,-637.5 492.18,-632.77 491.3,-639.71"/>
</g>
<!-- Node13 -->
<g id="node13" class="node">
<title>Node13</title>
<g id="a_node13"><a xlink:href="namespaceproblem__setup.html#a662426f1cd2c0857864b28e98daa4d5a" target="_top" xlink:title=" ">
<polygon fill="none" stroke="black" points="499.5,-211.5 499.5,-241.5 614.5,-241.5 614.5,-211.5 499.5,-211.5"/>
<text text-anchor="start" x="507.5" y="-229.5" font-family="Arial" font-size="10.00">problem_setup.particle</text>
<text text-anchor="middle" x="557" y="-218.5" font-family="Arial" font-size="10.00">_locations</text>
</a>
</g>
</g>
<!-- Node1&#45;&gt;Node13 -->
<g id="edge47" class="edge">
<title>Node1&#45;&gt;Node13</title>
<path fill="none" stroke="midnightblue" d="M59.17,-387.4C61.99,-343.84 76.54,-217.26 151,-157.5 254.28,-74.61 323.85,-87.41 448,-133.5 485.39,-147.38 518.52,-180.66 537.92,-203.4"/>
<polygon fill="midnightblue" stroke="midnightblue" points="535.35,-205.78 544.43,-211.24 540.74,-201.31 535.35,-205.78"/>
</g>
<!-- Node15 -->
<g id="node15" class="node">
<title>Node15</title>
<g id="a_node15"><a xlink:href="namespaceproblem__setup.html#aa39e6862e38920798278f55a2578a6ef" target="_top" xlink:title=" ">
<polygon fill="none" stroke="black" points="682.5,-217 682.5,-236 803.5,-236 803.5,-217 682.5,-217"/>
<text text-anchor="middle" x="743" y="-224" font-family="Arial" font-size="10.00">problem_setup.get_max</text>
</a>
</g>
</g>
<!-- Node1&#45;&gt;Node15 -->
<g id="edge46" class="edge">
<title>Node1&#45;&gt;Node15</title>
<path fill="none" stroke="midnightblue" d="M60.66,-387.34C69.13,-330.45 101.95,-130.99 151,-94.5 338.95,45.3 447.27,-122.68 666,-206.5 673.52,-209.38 681.61,-212 689.61,-214.32"/>
<polygon fill="midnightblue" stroke="midnightblue" points="688.7,-217.7 699.27,-217 690.57,-210.95 688.7,-217.7"/>
</g>
<!-- Node22 -->
<g id="node19" class="node">
<title>Node22</title>
<g id="a_node19"><a xlink:href="namespaceproblem__setup.html#a9ce710367bd7258e6dd619e9ec930b36" target="_top" xlink:title=" ">
<polygon fill="none" stroke="black" points="506,-671.5 506,-701.5 608,-701.5 608,-671.5 506,-671.5"/>
<text text-anchor="start" x="514" y="-689.5" font-family="Arial" font-size="10.00">problem_setup.print</text>
<text text-anchor="middle" x="557" y="-678.5" font-family="Arial" font-size="10.00">_dbl_list</text>
</a>
</g>
</g>
<!-- Node1&#45;&gt;Node22 -->
<g id="edge48" class="edge">
<title>Node1&#45;&gt;Node22</title>
<path fill="none" stroke="midnightblue" d="M63.7,-417.9C74.99,-449.27 104.53,-521.26 151,-564.5 247.74,-654.51 408.57,-678.26 495.6,-684.43"/>
<polygon fill="midnightblue" stroke="midnightblue" points="495.64,-687.94 505.84,-685.09 496.09,-680.95 495.64,-687.94"/>
</g>
<!-- Node25 -->
<g id="node22" class="node">
<title>Node25</title>
<g id="a_node22"><a xlink:href="namespaceproblem__setup.html#ad9b50c51aa5e0de13f4c721465b63b5f" target="_top" xlink:title=" ">
<polygon fill="none" stroke="black" points="164.5,-0.5 164.5,-30.5 268.5,-30.5 268.5,-0.5 164.5,-0.5"/>
<text text-anchor="start" x="172.5" y="-18.5" font-family="Arial" font-size="10.00">problem_setup.does</text>
<text text-anchor="middle" x="216.5" y="-7.5" font-family="Arial" font-size="10.00">_intersect_rect</text>
</a>
</g>
</g>
<!-- Node1&#45;&gt;Node25 -->
<g id="edge22" class="edge">
<title>Node1&#45;&gt;Node25</title>
<path fill="none" stroke="midnightblue" d="M58.09,-387.23C57.47,-333.7 62.29,-152.01 151,-45.5 153.92,-41.99 157.35,-38.87 161.07,-36.09"/>
<polygon fill="midnightblue" stroke="midnightblue" points="163.12,-38.94 169.61,-30.56 159.32,-33.06 163.12,-38.94"/>
</g>
<!-- Node26 -->
<g id="node23" class="node">
<title>Node26</title>
<g id="a_node23"><a xlink:href="namespaceproblem__setup.html#a8c789550cc1b70abe559c976bcf664e4" target="_top" xlink:title=" ">
<polygon fill="none" stroke="black" points="151,-387.5 151,-417.5 282,-417.5 282,-387.5 151,-387.5"/>
<text text-anchor="start" x="159" y="-405.5" font-family="Arial" font-size="10.00">problem_setup.generate</text>
<text text-anchor="middle" x="216.5" y="-394.5" font-family="Arial" font-size="10.00">_moving_wall_gmsh_input</text>
</a>
</g>
</g>
<!-- Node1&#45;&gt;Node26 -->
<g id="edge23" class="edge">
<title>Node1&#45;&gt;Node26</title>
<path fill="none" stroke="midnightblue" d="M115.18,-402.5C123.51,-402.5 132.2,-402.5 140.83,-402.5"/>
<polygon fill="midnightblue" stroke="midnightblue" points="140.91,-406 150.91,-402.5 140.91,-399 140.91,-406"/>
</g>
<!-- Node29 -->
<g id="node26" class="node">
<title>Node29</title>
<g id="a_node26"><a xlink:href="namespaceproblem__setup.html#a0952cf202b7e2cd1e453eff36be36074" target="_top" xlink:title=" ">
<polygon fill="none" stroke="black" points="322.5,-164.5 322.5,-194.5 443.5,-194.5 443.5,-164.5 322.5,-164.5"/>
<text text-anchor="start" x="330.5" y="-182.5" font-family="Arial" font-size="10.00">problem_setup.generate</text>
<text text-anchor="middle" x="383" y="-171.5" font-family="Arial" font-size="10.00">_rigid_wall_gmsh_input</text>
</a>
</g>
</g>
<!-- Node1&#45;&gt;Node29 -->
<g id="edge42" class="edge">
<title>Node1&#45;&gt;Node29</title>
<path fill="none" stroke="midnightblue" d="M74.59,-387.37C113.61,-351.33 217.47,-259.27 318,-203.5 321.05,-201.81 324.24,-200.19 327.51,-198.65"/>
<polygon fill="midnightblue" stroke="midnightblue" points="329.11,-201.77 336.83,-194.51 326.27,-195.37 329.11,-201.77"/>
</g>
<!-- Node30 -->
<g id="node27" class="node">
<title>Node30</title>
<g id="a_node27"><a xlink:href="namespaceproblem__setup.html#a147f310ff74124342d15ab356739883f" target="_top" xlink:title=" ">
<polygon fill="none" stroke="black" points="156,-475.5 156,-505.5 277,-505.5 277,-475.5 156,-475.5"/>
<text text-anchor="start" x="164" y="-493.5" font-family="Arial" font-size="10.00">problem_setup.generate</text>
<text text-anchor="middle" x="216.5" y="-482.5" font-family="Arial" font-size="10.00">_particle_gmsh_input</text>
</a>
</g>
</g>
<!-- Node1&#45;&gt;Node30 -->
<g id="edge35" class="edge">
<title>Node1&#45;&gt;Node30</title>
<path fill="none" stroke="midnightblue" d="M80.84,-417.61C99.29,-429.81 126.35,-447.11 151,-460.5 157.57,-464.07 164.63,-467.62 171.59,-470.98"/>
<polygon fill="midnightblue" stroke="midnightblue" points="170.43,-474.3 180.96,-475.4 173.41,-467.97 170.43,-474.3"/>
</g>
<!-- Node3 -->
<g id="node3" class="node">
<title>Node3</title>
<g id="a_node3"><a xlink:href="namespaceproblem__setup.html#a2deb4dabdc948f0b2b009c3576518ade" target="_top" xlink:title=" ">
<polygon fill="none" stroke="black" points="494.5,-299.5 494.5,-329.5 619.5,-329.5 619.5,-299.5 494.5,-299.5"/>
<text text-anchor="start" x="502.5" y="-317.5" font-family="Arial" font-size="10.00">problem_setup.generate</text>
<text text-anchor="middle" x="557" y="-306.5" font-family="Arial" font-size="10.00">_cir_particle_gmsh_input</text>
</a>
</g>
</g>
<!-- Node2&#45;&gt;Node3 -->
<g id="edge2" class="edge">
<title>Node2&#45;&gt;Node3</title>
<path fill="none" stroke="midnightblue" d="M428.4,-453.33C435.63,-449.37 442.54,-444.48 448,-438.5 479.59,-403.95 450.65,-372.36 484,-339.5 485.61,-337.92 487.32,-336.43 489.12,-335.04"/>
<polygon fill="midnightblue" stroke="midnightblue" points="491.06,-337.95 497.48,-329.52 487.2,-332.11 491.06,-337.95"/>
</g>
<!-- Node4 -->
<g id="node4" class="node">
<title>Node4</title>
<g id="a_node4"><a xlink:href="namespaceproblem__setup.html#ae83c0d80c0947e65b98e4a2da0c07601" target="_top" xlink:title=" ">
<polygon fill="none" stroke="black" points="484,-348.5 484,-378.5 630,-378.5 630,-348.5 484,-348.5"/>
<text text-anchor="start" x="492" y="-366.5" font-family="Arial" font-size="10.00">problem_setup.generate</text>
<text text-anchor="middle" x="557" y="-355.5" font-family="Arial" font-size="10.00">_drum2d_particle_gmsh_input</text>
</a>
</g>
</g>
<!-- Node2&#45;&gt;Node4 -->
<g id="edge3" class="edge">
<title>Node2&#45;&gt;Node4</title>
<path fill="none" stroke="midnightblue" d="M423.56,-453.42C432.06,-449.26 440.67,-444.27 448,-438.5 468.12,-422.65 463.54,-408.91 484,-393.5 489.11,-389.65 494.79,-386.2 500.65,-383.13"/>
<polygon fill="midnightblue" stroke="midnightblue" points="502.48,-386.14 509.95,-378.63 499.43,-379.84 502.48,-386.14"/>
</g>
<!-- Node7 -->
<g id="node7" class="node">
<title>Node7</title>
<g id="a_node7"><a xlink:href="namespaceproblem__setup.html#a541e6c5ea41e139ea1eca83975753fbb" target="_top" xlink:title=" ">
<polygon fill="none" stroke="black" points="496,-436.5 496,-466.5 618,-466.5 618,-436.5 496,-436.5"/>
<text text-anchor="start" x="504" y="-454.5" font-family="Arial" font-size="10.00">problem_setup.generate</text>
<text text-anchor="middle" x="557" y="-443.5" font-family="Arial" font-size="10.00">_tri_particle_gmsh_input</text>
</a>
</g>
</g>
<!-- Node2&#45;&gt;Node7 -->
<g id="edge6" class="edge">
<title>Node2&#45;&gt;Node7</title>
<path fill="none" stroke="midnightblue" d="M438.42,-463.12C453.44,-461.64 469.95,-460.01 485.72,-458.45"/>
<polygon fill="midnightblue" stroke="midnightblue" points="486.36,-461.9 495.96,-457.43 485.67,-454.93 486.36,-461.9"/>
</g>
<!-- Node9 -->
<g id="node9" class="node">
<title>Node9</title>
<g id="a_node9"><a xlink:href="namespaceproblem__setup.html#ad281d5f1d41eee4b1a595ede1aff337c" target="_top" xlink:title=" ">
<polygon fill="none" stroke="black" points="496.5,-485.5 496.5,-515.5 617.5,-515.5 617.5,-485.5 496.5,-485.5"/>
<text text-anchor="start" x="504.5" y="-503.5" font-family="Arial" font-size="10.00">problem_setup.generate</text>
<text text-anchor="middle" x="557" y="-492.5" font-family="Arial" font-size="10.00">_wall_gmsh_input</text>
</a>
</g>
</g>
<!-- Node2&#45;&gt;Node9 -->
<g id="edge8" class="edge">
<title>Node2&#45;&gt;Node9</title>
<path fill="none" stroke="midnightblue" d="M438.42,-478.62C453.66,-481.46 470.44,-484.58 486.43,-487.56"/>
<polygon fill="midnightblue" stroke="midnightblue" points="485.79,-491 496.27,-489.39 487.07,-484.12 485.79,-491"/>
</g>
<!-- Node2&#45;&gt;Node10 -->
<g id="edge9" class="edge">
<title>Node2&#45;&gt;Node10</title>
<path fill="none" stroke="midnightblue" d="M387.01,-483.77C395.7,-524.66 424.14,-638.46 484,-711.5 495.41,-725.42 511.9,-736.82 526.22,-745.01"/>
<polygon fill="midnightblue" stroke="midnightblue" points="524.79,-748.22 535.25,-749.93 528.14,-742.07 524.79,-748.22"/>
</g>
<!-- Node2&#45;&gt;Node11 -->
<g id="edge10" class="edge">
<title>Node2&#45;&gt;Node11</title>
<path fill="none" stroke="midnightblue" d="M402.04,-453.43C416.3,-440.65 435.78,-421.15 448,-400.5 474.41,-355.87 446.32,-325.14 484,-289.5 485.51,-288.07 487.12,-286.74 488.81,-285.51"/>
<polygon fill="midnightblue" stroke="midnightblue" points="491.01,-288.27 497.8,-280.14 487.42,-282.26 491.01,-288.27"/>
</g>
<!-- Node2&#45;&gt;Node12 -->
<g id="edge11" class="edge">
<title>Node2&#45;&gt;Node12</title>
<path fill="none" stroke="midnightblue" d="M429.07,-483.55C436.15,-487.51 442.82,-492.43 448,-498.5 485.53,-542.48 442.66,-583.08 484,-623.5 486.7,-626.14 489.72,-628.43 492.96,-630.4"/>
<polygon fill="midnightblue" stroke="midnightblue" points="491.44,-633.56 501.94,-634.95 494.6,-627.31 491.44,-633.56"/>
</g>
<!-- Node2&#45;&gt;Node13 -->
<g id="edge12" class="edge">
<title>Node2&#45;&gt;Node13</title>
<path fill="none" stroke="midnightblue" d="M390.86,-453.19C412.77,-404.36 479.89,-255.23 484,-251.5 485.97,-249.71 488.08,-248.05 490.29,-246.5"/>
<polygon fill="midnightblue" stroke="midnightblue" points="492.48,-249.27 499.24,-241.11 488.87,-243.27 492.48,-249.27"/>
</g>
<!-- Node16 -->
<g id="node16" class="node">
<title>Node16</title>
<g id="a_node16"><a xlink:href="namespaceutil_1_1io.html#a578a578ce41389fb01e56de7316b7054" target="_top" xlink:title="Prints formatted information.">
<polygon fill="none" stroke="black" points="709,-390 709,-409 777,-409 777,-390 709,-390"/>
<text text-anchor="middle" x="743" y="-397" font-family="Arial" font-size="10.00">util::io::print</text>
</a>
</g>
</g>
<!-- Node2&#45;&gt;Node16 -->
<g id="edge18" class="edge">
<title>Node2&#45;&gt;Node16</title>
<path fill="none" stroke="midnightblue" d="M414.32,-453.45C433.77,-444.47 459.81,-433.64 484,-427.5 557.95,-408.73 646.95,-402.54 698.74,-400.5"/>
<polygon fill="midnightblue" stroke="midnightblue" points="699.03,-403.99 708.89,-400.14 698.78,-397 699.03,-403.99"/>
</g>
<!-- Node2&#45;&gt;Node22 -->
<g id="edge19" class="edge">
<title>Node2&#45;&gt;Node22</title>
<path fill="none" stroke="midnightblue" d="M394.07,-483.54C407.36,-503.72 431.04,-540.92 448,-574.5 466.87,-611.85 453.56,-632.78 484,-661.5 487.75,-665.04 492.03,-668.08 496.59,-670.7"/>
<polygon fill="midnightblue" stroke="midnightblue" points="495.13,-673.88 505.64,-675.21 498.26,-667.62 495.13,-673.88"/>
</g>
<!-- Node23 -->
<g id="node20" class="node">
<title>Node23</title>
<g id="a_node20"><a xlink:href="namespaceproblem__setup.html#ad4d4b3139613a4ea00dadf8eb7c60a88" target="_top" xlink:title=" ">
<polygon fill="none" stroke="black" points="505,-583.5 505,-613.5 609,-613.5 609,-583.5 505,-583.5"/>
<text text-anchor="start" x="513" y="-601.5" font-family="Arial" font-size="10.00">problem_setup.write</text>
<text text-anchor="middle" x="557" y="-590.5" font-family="Arial" font-size="10.00">_contact_zone_part</text>
</a>
</g>
</g>
<!-- Node2&#45;&gt;Node23 -->
<g id="edge20" class="edge">
<title>Node2&#45;&gt;Node23</title>
<path fill="none" stroke="midnightblue" d="M426.95,-483.57C434.59,-487.59 442,-492.52 448,-498.5 474.48,-524.88 456.03,-549.71 484,-574.5 487.48,-577.58 491.36,-580.27 495.48,-582.61"/>
<polygon fill="midnightblue" stroke="midnightblue" points="494.27,-585.92 504.79,-587.22 497.37,-579.65 494.27,-585.92"/>
</g>
<!-- Node24 -->
<g id="node21" class="node">
<title>Node24</title>
<g id="a_node21"><a xlink:href="namespaceproblem__setup.html#a3b2a9fc19652f44b774b4bb9a8221265" target="_top" xlink:title=" ">
<polygon fill="none" stroke="black" points="505,-534.5 505,-564.5 609,-564.5 609,-534.5 505,-534.5"/>
<text text-anchor="start" x="513" y="-552.5" font-family="Arial" font-size="10.00">problem_setup.write</text>
<text text-anchor="middle" x="557" y="-541.5" font-family="Arial" font-size="10.00">_material_zone_part</text>
</a>
</g>
</g>
<!-- Node2&#45;&gt;Node24 -->
<g id="edge21" class="edge">
<title>Node2&#45;&gt;Node24</title>
<path fill="none" stroke="midnightblue" d="M419.55,-483.58C429,-488.02 439.06,-493.13 448,-498.5 465.14,-508.8 466.28,-516.22 484,-525.5 487.68,-527.43 491.54,-529.24 495.48,-530.94"/>
<polygon fill="midnightblue" stroke="midnightblue" points="494.21,-534.21 504.8,-534.71 496.84,-527.72 494.21,-534.21"/>
</g>
<!-- Node5 -->
<g id="node5" class="node">
<title>Node5</title>
<g id="a_node5"><a xlink:href="namespaceproblem__setup.html#a700be09e5b12da02f5d11c0d21cf5d5b" target="_top" xlink:title=" ">
<polygon fill="none" stroke="black" points="686.5,-332.5 686.5,-362.5 799.5,-362.5 799.5,-332.5 686.5,-332.5"/>
<text text-anchor="start" x="694.5" y="-350.5" font-family="Arial" font-size="10.00">problem_setup.get_ref</text>
<text text-anchor="middle" x="743" y="-339.5" font-family="Arial" font-size="10.00">_drum_points</text>
</a>
</g>
</g>
<!-- Node4&#45;&gt;Node5 -->
<g id="edge4" class="edge">
<title>Node4&#45;&gt;Node5</title>
<path fill="none" stroke="midnightblue" d="M630.19,-357.22C645.33,-355.91 661.21,-354.53 676.1,-353.23"/>
<polygon fill="midnightblue" stroke="midnightblue" points="676.57,-356.7 686.23,-352.35 675.96,-349.73 676.57,-356.7"/>
</g>
<!-- Node6 -->
<g id="node6" class="node">
<title>Node6</title>
<g id="a_node6"><a xlink:href="namespaceproblem__setup.html#a192b6d085d04429814f30104aeb18493" target="_top" xlink:title=" ">
<polygon fill="none" stroke="black" points="857.5,-263 857.5,-282 965.5,-282 965.5,-263 857.5,-263"/>
<text text-anchor="middle" x="911.5" y="-270" font-family="Arial" font-size="10.00">problem_setup.rotate</text>
</a>
</g>
</g>
<!-- Node5&#45;&gt;Node6 -->
<g id="edge5" class="edge">
<title>Node5&#45;&gt;Node6</title>
<path fill="none" stroke="midnightblue" d="M777.69,-332.32C807.57,-318.86 850.85,-299.37 879.79,-286.33"/>
<polygon fill="midnightblue" stroke="midnightblue" points="881.34,-289.48 889.02,-282.18 878.46,-283.09 881.34,-289.48"/>
</g>
<!-- Node8 -->
<g id="node8" class="node">
<title>Node8</title>
<g id="a_node8"><a xlink:href="namespaceproblem__setup.html#ac4731e8b5a85713f528c4c79651768ac" target="_top" xlink:title=" ">
<polygon fill="none" stroke="black" points="686.5,-436.5 686.5,-466.5 799.5,-466.5 799.5,-436.5 686.5,-436.5"/>
<text text-anchor="start" x="694.5" y="-454.5" font-family="Arial" font-size="10.00">problem_setup.get_ref</text>
<text text-anchor="middle" x="743" y="-443.5" font-family="Arial" font-size="10.00">_triangle_points</text>
</a>
</g>
</g>
<!-- Node7&#45;&gt;Node8 -->
<g id="edge7" class="edge">
<title>Node7&#45;&gt;Node8</title>
<path fill="none" stroke="midnightblue" d="M618.25,-451.5C636.82,-451.5 657.35,-451.5 676.27,-451.5"/>
<polygon fill="midnightblue" stroke="midnightblue" points="676.29,-455 686.29,-451.5 676.29,-448 676.29,-455"/>
</g>
<!-- Node14 -->
<g id="node14" class="node">
<title>Node14</title>
<g id="a_node14"><a xlink:href="namespaceproblem__setup.html#a49682af72cdc7bca4f282619eb559d90" target="_top" xlink:title=" ">
<polygon fill="none" stroke="black" points="666,-255.5 666,-285.5 820,-285.5 820,-255.5 666,-255.5"/>
<text text-anchor="start" x="674" y="-273.5" font-family="Arial" font-size="10.00">problem_setup.does</text>
<text text-anchor="middle" x="743" y="-262.5" font-family="Arial" font-size="10.00">_intersect_with_cylindrical_wall</text>
</a>
</g>
</g>
<!-- Node13&#45;&gt;Node14 -->
<g id="edge13" class="edge">
<title>Node13&#45;&gt;Node14</title>
<path fill="none" stroke="midnightblue" d="M614.71,-240.06C631.9,-244.17 651.04,-248.75 669.14,-253.08"/>
<polygon fill="midnightblue" stroke="midnightblue" points="668.53,-256.53 679.07,-255.45 670.15,-249.72 668.53,-256.53"/>
</g>
<!-- Node13&#45;&gt;Node15 -->
<g id="edge14" class="edge">
<title>Node13&#45;&gt;Node15</title>
<path fill="none" stroke="midnightblue" d="M614.71,-226.5C632.88,-226.5 653.21,-226.5 672.2,-226.5"/>
<polygon fill="midnightblue" stroke="midnightblue" points="672.29,-230 682.29,-226.5 672.29,-223 672.29,-230"/>
</g>
<!-- Node13&#45;&gt;Node16 -->
<g id="edge15" class="edge">
<title>Node13&#45;&gt;Node16</title>
<path fill="none" stroke="midnightblue" d="M614.66,-240.1C620.34,-243.16 625.61,-246.91 630,-251.5 668.77,-292.06 627.37,-331.8 666,-372.5 674.74,-381.7 686.81,-387.78 698.77,-391.78"/>
<polygon fill="midnightblue" stroke="midnightblue" points="698.12,-395.24 708.7,-394.68 700.08,-388.52 698.12,-395.24"/>
</g>
<!-- Node17 -->
<g id="node17" class="node">
<title>Node17</title>
<g id="a_node17"><a xlink:href="namespaceutil_1_1parallel.html#adb80f14125b7556bb478cc3725508fa8" target="_top" xlink:title="get rank (id) of this processor">
<polygon fill="none" stroke="red" points="856,-371 856,-390 967,-390 967,-371 856,-371"/>
<text text-anchor="middle" x="911.5" y="-378" font-family="Arial" font-size="10.00">util::parallel::mpiRank</text>
</a>
</g>
</g>
<!-- Node16&#45;&gt;Node17 -->
<g id="edge16" class="edge">
<title>Node16&#45;&gt;Node17</title>
<path fill="none" stroke="midnightblue" d="M777.29,-395.7C796.89,-393.46 822.34,-390.56 845.73,-387.89"/>
<polygon fill="midnightblue" stroke="midnightblue" points="846.42,-391.33 855.96,-386.72 845.63,-384.38 846.42,-391.33"/>
</g>
<!-- Node20 -->
<g id="node18" class="node">
<title>Node20</title>
<g id="a_node18"><a xlink:href="namespaceutil_1_1io.html#a3e537e3bd778616255015cde6e60a30a" target="_top" xlink:title="Returns formatted string for output.">
<polygon fill="none" stroke="red" points="871.5,-409 871.5,-428 951.5,-428 951.5,-409 871.5,-409"/>
<text text-anchor="middle" x="911.5" y="-416" font-family="Arial" font-size="10.00">util::io::printStr</text>
</a>
</g>
</g>
<!-- Node16&#45;&gt;Node20 -->
<g id="edge17" class="edge">
<title>Node16&#45;&gt;Node20</title>
<path fill="none" stroke="midnightblue" d="M777.29,-403.3C801.36,-406.05 834.27,-409.8 861.35,-412.89"/>
<polygon fill="midnightblue" stroke="midnightblue" points="861.08,-416.38 871.42,-414.04 861.88,-409.43 861.08,-416.38"/>
</g>
<!-- Node26&#45;&gt;Node2 -->
<g id="edge24" class="edge">
<title>Node26&#45;&gt;Node2</title>
<path fill="none" stroke="midnightblue" d="M255.24,-417.64C278.96,-427.16 309.74,-439.51 335.04,-449.66"/>
<polygon fill="midnightblue" stroke="midnightblue" points="333.85,-452.95 344.44,-453.43 336.46,-446.46 333.85,-452.95"/>
</g>
<!-- Node26&#45;&gt;Node3 -->
<g id="edge25" class="edge">
<title>Node26&#45;&gt;Node3</title>
<path fill="none" stroke="midnightblue" d="M282.18,-398.16C329.42,-393.35 394.33,-383.33 448,-362.5 465.7,-355.63 466.91,-347.78 484,-339.5 488.57,-337.28 493.39,-335.17 498.28,-333.18"/>
<polygon fill="midnightblue" stroke="midnightblue" points="499.68,-336.39 507.73,-329.5 497.14,-329.87 499.68,-336.39"/>
</g>
<!-- Node26&#45;&gt;Node10 -->
<g id="edge30" class="edge">
<title>Node26&#45;&gt;Node10</title>
<path fill="none" stroke="midnightblue" d="M237.26,-417.63C251.53,-429.51 270.28,-447.23 282,-466.5 309.83,-512.26 287.54,-537.45 318,-581.5 373.13,-661.24 475.54,-719.82 526.13,-745.34"/>
<polygon fill="midnightblue" stroke="midnightblue" points="524.73,-748.55 535.24,-749.86 527.84,-742.28 524.73,-748.55"/>
</g>
<!-- Node26&#45;&gt;Node11 -->
<g id="edge31" class="edge">
<title>Node26&#45;&gt;Node11</title>
<path fill="none" stroke="midnightblue" d="M248.92,-387.43C298.19,-364.22 396.98,-319.26 484,-289.5 491.06,-287.09 498.6,-284.79 506.03,-282.69"/>
<polygon fill="midnightblue" stroke="midnightblue" points="506.99,-286.06 515.71,-280.05 505.14,-279.31 506.99,-286.06"/>
</g>
<!-- Node26&#45;&gt;Node12 -->
<g id="edge32" class="edge">
<title>Node26&#45;&gt;Node12</title>
<path fill="none" stroke="midnightblue" d="M232.9,-417.7C256.23,-440.49 299.73,-482.09 318,-493.5 370.78,-526.46 402.87,-502.65 448,-545.5 475.69,-571.79 454.75,-598.96 484,-623.5 486.71,-625.77 489.66,-627.77 492.76,-629.54"/>
<polygon fill="midnightblue" stroke="midnightblue" points="491.35,-632.74 501.88,-633.91 494.38,-626.43 491.35,-632.74"/>
</g>
<!-- Node26&#45;&gt;Node13 -->
<g id="edge33" class="edge">
<title>Node26&#45;&gt;Node13</title>
<path fill="none" stroke="midnightblue" d="M227.7,-387.47C244.07,-364.48 278.41,-320.72 318,-296.5 332.9,-287.39 424.43,-261.73 489.53,-244.14"/>
<polygon fill="midnightblue" stroke="midnightblue" points="490.58,-247.48 499.33,-241.5 488.76,-240.72 490.58,-247.48"/>
</g>
<!-- Node26&#45;&gt;Node22 -->
<g id="edge34" class="edge">
<title>Node26&#45;&gt;Node22</title>
<path fill="none" stroke="midnightblue" d="M235.36,-417.57C249.18,-429.82 268.22,-448.04 282,-466.5 302.22,-493.59 294.04,-509.66 318,-533.5 364.37,-579.64 400.38,-557.65 448,-602.5 470.36,-623.56 460.09,-642.22 484,-661.5 487.79,-664.56 491.98,-667.25 496.38,-669.63"/>
<polygon fill="midnightblue" stroke="midnightblue" points="495.1,-672.89 505.63,-674.06 498.12,-666.58 495.1,-672.89"/>
</g>
<!-- Node27 -->
<g id="node24" class="node">
<title>Node27</title>
<g id="a_node24"><a xlink:href="namespaceproblem__setup.html#a876a947fad9cf3729999101abe3e823f" target="_top" xlink:title=" ">
<polygon fill="none" stroke="black" points="318,-213.5 318,-243.5 448,-243.5 448,-213.5 318,-213.5"/>
<text text-anchor="start" x="326" y="-231.5" font-family="Arial" font-size="10.00">problem_setup.generate</text>
<text text-anchor="middle" x="383" y="-220.5" font-family="Arial" font-size="10.00">_hex_particle_gmsh_input</text>
</a>
</g>
</g>
<!-- Node26&#45;&gt;Node27 -->
<g id="edge26" class="edge">
<title>Node26&#45;&gt;Node27</title>
<path fill="none" stroke="midnightblue" d="M224.81,-387.07C239.08,-358.35 273.23,-296.2 318,-258.5 322.45,-254.75 327.45,-251.36 332.63,-248.33"/>
<polygon fill="midnightblue" stroke="midnightblue" points="334.34,-251.39 341.48,-243.56 331.02,-245.22 334.34,-251.39"/>
</g>
<!-- Node26&#45;&gt;Node29 -->
<g id="edge29" class="edge">
<title>Node26&#45;&gt;Node29</title>
<path fill="none" stroke="midnightblue" d="M226.18,-387.14C238.88,-364.47 263.08,-320.64 282,-282.5 299.14,-247.93 289.79,-229.83 318,-203.5 319.14,-202.44 320.33,-201.42 321.56,-200.45"/>
<polygon fill="midnightblue" stroke="midnightblue" points="323.87,-203.11 330.24,-194.64 319.98,-197.29 323.87,-203.11"/>
</g>
<!-- Node28 -->
<g id="node25" class="node">
<title>Node28</title>
<g id="a_node25"><a xlink:href="namespaceproblem__setup.html#a8e552b0e3bb3bde7c390d6906dbe88cd" target="_top" xlink:title=" ">
<polygon fill="none" stroke="black" points="686.5,-167.5 686.5,-197.5 799.5,-197.5 799.5,-167.5 686.5,-167.5"/>
<text text-anchor="start" x="694.5" y="-185.5" font-family="Arial" font-size="10.00">problem_setup.get_ref</text>
<text text-anchor="middle" x="743" y="-174.5" font-family="Arial" font-size="10.00">_hex_points</text>
</a>
</g>
</g>
<!-- Node27&#45;&gt;Node28 -->
<g id="edge27" class="edge">
<title>Node27&#45;&gt;Node28</title>
<path fill="none" stroke="midnightblue" d="M432.42,-213.44C448.66,-208.92 466.98,-204.4 484,-201.5 548.75,-190.48 623.73,-185.85 676.11,-183.9"/>
<polygon fill="midnightblue" stroke="midnightblue" points="676.4,-187.4 686.27,-183.55 676.16,-180.4 676.4,-187.4"/>
</g>
<!-- Node28&#45;&gt;Node6 -->
<g id="edge28" class="edge">
<title>Node28&#45;&gt;Node6</title>
<path fill="none" stroke="midnightblue" d="M796.77,-197.53C804.72,-200.46 812.69,-203.79 820,-207.5 846.67,-221.06 874.16,-241.97 891.73,-256.39"/>
<polygon fill="midnightblue" stroke="midnightblue" points="889.59,-259.17 899.51,-262.89 894.08,-253.79 889.59,-259.17"/>
</g>
<!-- Node30&#45;&gt;Node2 -->
<g id="edge36" class="edge">
<title>Node30&#45;&gt;Node2</title>
<path fill="none" stroke="midnightblue" d="M277.35,-482.5C290.53,-480.73 304.54,-478.86 317.88,-477.08"/>
<polygon fill="midnightblue" stroke="midnightblue" points="318.47,-480.53 327.92,-475.73 317.54,-473.59 318.47,-480.53"/>
</g>
<!-- Node30&#45;&gt;Node10 -->
<g id="edge37" class="edge">
<title>Node30&#45;&gt;Node10</title>
<path fill="none" stroke="midnightblue" d="M217.84,-505.58C219.81,-552.19 232.82,-694.46 318,-754.5 376.11,-795.46 463.6,-783.63 514.74,-771.46"/>
<polygon fill="midnightblue" stroke="midnightblue" points="515.6,-774.85 524.46,-769.04 513.91,-768.06 515.6,-774.85"/>
</g>
<!-- Node30&#45;&gt;Node11 -->
<g id="edge38" class="edge">
<title>Node30&#45;&gt;Node11</title>
<path fill="none" stroke="midnightblue" d="M249,-475.5C296.16,-451.95 386.18,-402.74 448,-342.5 468.39,-322.63 460.76,-305.95 484,-289.5 486.83,-287.5 489.86,-285.71 493.01,-284.1"/>
<polygon fill="midnightblue" stroke="midnightblue" points="494.42,-287.3 502.16,-280.07 491.6,-280.9 494.42,-287.3"/>
</g>
<!-- Node30&#45;&gt;Node12 -->
<g id="edge39" class="edge">
<title>Node30&#45;&gt;Node12</title>
<path fill="none" stroke="midnightblue" d="M243.18,-505.55C289.8,-532.37 392.07,-588.85 484,-623.5 490.42,-625.92 497.27,-628.15 504.11,-630.17"/>
<polygon fill="midnightblue" stroke="midnightblue" points="503.47,-633.63 514.04,-632.98 505.37,-626.89 503.47,-633.63"/>
</g>
<!-- Node30&#45;&gt;Node13 -->
<g id="edge40" class="edge">
<title>Node30&#45;&gt;Node13</title>
<path fill="none" stroke="midnightblue" d="M236.82,-475.38C250.87,-463.57 269.53,-446.09 282,-427.5 305.77,-392.06 287.37,-368.21 318,-338.5 362.21,-295.62 396.81,-324.74 448,-290.5 467.61,-277.38 464.27,-264.42 484,-251.5 486.97,-249.56 490.1,-247.75 493.34,-246.06"/>
<polygon fill="midnightblue" stroke="midnightblue" points="495.13,-249.09 502.67,-241.64 492.14,-242.76 495.13,-249.09"/>
</g>
<!-- Node30&#45;&gt;Node22 -->
<g id="edge41" class="edge">
<title>Node30&#45;&gt;Node22</title>
<path fill="none" stroke="midnightblue" d="M227.4,-505.74C243.62,-529.59 278.07,-575.74 318,-602.5 372.77,-639.21 445.38,-661.78 495.93,-674.16"/>
<polygon fill="midnightblue" stroke="midnightblue" points="495.2,-677.58 505.74,-676.5 496.82,-670.77 495.2,-677.58"/>
</g>
</g>
</svg>
