<?xml version="1.0" encoding="UTF-8" standalone="no"?>
<!DOCTYPE svg PUBLIC "-//W3C//DTD SVG 1.1//EN"
 "http://www.w3.org/Graphics/SVG/1.1/DTD/svg11.dtd">
<!-- Generated by graphviz version 2.43.0 (0)
 -->
<!-- Title: gmsh_particles.ellipsoid_mesh_symmetric Pages: 1 -->
<svg width="297pt" height="113pt"
 viewBox="0.00 0.00 297.00 112.50" xmlns="http://www.w3.org/2000/svg" xmlns:xlink="http://www.w3.org/1999/xlink">
<g id="graph0" class="graph" transform="scale(1 1) rotate(0) translate(4 108.5)">
<title>gmsh_particles.ellipsoid_mesh_symmetric</title>
<!-- Node1 -->
<g id="Node000001" class="node">
<title>Node1</title>
<g id="a_Node000001"><a xlink:title=" ">
<polygon fill="#999999" stroke="#666666" points="121,-61.5 0,-61.5 0,-31.5 121,-31.5 121,-61.5"/>
<text text-anchor="start" x="8" y="-49.5" font-family="Arial" font-size="10.00">gmsh_particles.ellipsoid</text>
<text text-anchor="middle" x="60.5" y="-38.5" font-family="Arial" font-size="10.00">_mesh_symmetric</text>
</a>
</g>
</g>
<!-- Node2 -->
<g id="Node000002" class="node">
<title>Node2</title>
<g id="a_Node000002"><a xlink:href="namespacegeom__util.html#a4cff2d2279e07cecdbff9c469cadc986" target="_top" xlink:title=" ">
<polygon fill="white" stroke="#666666" points="275,-104.5 171,-104.5 171,-74.5 275,-74.5 275,-104.5"/>
<text text-anchor="start" x="179" y="-92.5" font-family="Arial" font-size="10.00">geom_util.get_gmsh</text>
<text text-anchor="middle" x="223" y="-81.5" font-family="Arial" font-size="10.00">_entities</text>
</a>
</g>
</g>
<!-- Node1&#45;&gt;Node2 -->
<g id="edge1_Node000001_Node000002" class="edge">
<title>Node1&#45;&gt;Node2</title>
<g id="a_edge1_Node000001_Node000002"><a xlink:title=" ">
<path fill="none" stroke="#63b8ff" d="M117.64,-61.54C131.74,-65.32 146.93,-69.39 161.25,-73.22"/>
<polygon fill="#63b8ff" stroke="#63b8ff" points="160.43,-76.63 171,-75.84 162.24,-69.87 160.43,-76.63"/>
</a>
</g>
</g>
<!-- Node3 -->
<g id="Node000003" class="node">
<title>Node3</title>
<g id="a_Node000003"><a xlink:href="namespacegeom__util.html#a4da92e283f0d3adaeec14f498c0f2c10" target="_top" xlink:title=" ">
<polygon fill="white" stroke="#666666" points="289,-56 157,-56 157,-37 289,-37 289,-56"/>
<text text-anchor="middle" x="223" y="-44" font-family="Arial" font-size="10.00">geom_util.gmsh_transform</text>
</a>
</g>
</g>
<!-- Node1&#45;&gt;Node3 -->
<g id="edge2_Node000001_Node000003" class="edge">
<title>Node1&#45;&gt;Node3</title>
<g id="a_edge2_Node000001_Node000003"><a xlink:title=" ">
<path fill="none" stroke="#63b8ff" d="M121.26,-46.5C129.5,-46.5 138.05,-46.5 146.52,-46.5"/>
<polygon fill="#63b8ff" stroke="#63b8ff" points="146.8,-50 156.8,-46.5 146.8,-43 146.8,-50"/>
</a>
</g>
</g>
<!-- Node4 -->
<g id="Node000004" class="node">
<title>Node4</title>
<g id="a_Node000004"><a xlink:href="namespacegeom__util.html#a0402fa3ab58c62403ff40506f3453665" target="_top" xlink:title=" ">
<polygon fill="white" stroke="#666666" points="287,-19 159,-19 159,0 287,0 287,-19"/>
<text text-anchor="middle" x="223" y="-7" font-family="Arial" font-size="10.00">geom_util.gmsh_translate</text>
</a>
</g>
</g>
<!-- Node1&#45;&gt;Node4 -->
<g id="edge3_Node000001_Node000004" class="edge">
<title>Node1&#45;&gt;Node4</title>
<g id="a_edge3_Node000001_Node000004"><a xlink:title=" ">
<path fill="none" stroke="#63b8ff" d="M121.26,-32.72C137.49,-28.98 154.92,-24.96 170.65,-21.34"/>
<polygon fill="#63b8ff" stroke="#63b8ff" points="171.74,-24.68 180.7,-19.02 170.17,-17.86 171.74,-24.68"/>
</a>
</g>
</g>
</g>
</svg>
