<?xml version="1.0" encoding="UTF-8" standalone="no"?>
<!DOCTYPE svg PUBLIC "-//W3C//DTD SVG 1.1//EN"
 "http://www.w3.org/Graphics/SVG/1.1/DTD/svg11.dtd">
<!-- Generated by graphviz version 2.43.0 (0)
 -->
<!-- Title: problem_setup.particle_locations Pages: 1 -->
<svg width="603pt" height="161pt"
 viewBox="0.00 0.00 603.00 161.00" xmlns="http://www.w3.org/2000/svg" xmlns:xlink="http://www.w3.org/1999/xlink">
<g id="graph0" class="graph" transform="scale(1 1) rotate(0) translate(4 157)">
<title>problem_setup.particle_locations</title>
<!-- Node1 -->
<g id="node1" class="node">
<title>Node1</title>
<g id="a_node1"><a xlink:title=" ">
<polygon fill="#bfbfbf" stroke="black" points="480,-73.5 480,-103.5 595,-103.5 595,-73.5 480,-73.5"/>
<text text-anchor="start" x="488" y="-91.5" font-family="Arial" font-size="10.00">problem_setup.particle</text>
<text text-anchor="middle" x="537.5" y="-80.5" font-family="Arial" font-size="10.00">_locations</text>
</a>
</g>
</g>
<!-- Node2 -->
<g id="node2" class="node">
<title>Node2</title>
<g id="a_node2"><a xlink:href="namespaceproblem__setup.html#a64e067098e447f766d042476ef5abe85" target="_top" xlink:title=" ">
<polygon fill="none" stroke="black" points="331.5,-73.5 331.5,-103.5 441.5,-103.5 441.5,-73.5 331.5,-73.5"/>
<text text-anchor="start" x="339.5" y="-91.5" font-family="Arial" font-size="10.00">problem_setup.create</text>
<text text-anchor="middle" x="386.5" y="-80.5" font-family="Arial" font-size="10.00">_input_file</text>
</a>
</g>
</g>
<!-- Node1&#45;&gt;Node2 -->
<g id="edge1" class="edge">
<title>Node1&#45;&gt;Node2</title>
<path fill="none" stroke="midnightblue" d="M469.66,-88.5C460.28,-88.5 450.74,-88.5 441.64,-88.5"/>
<polygon fill="midnightblue" stroke="midnightblue" points="469.74,-92 479.74,-88.5 469.74,-85 469.74,-92"/>
</g>
<!-- Node4 -->
<g id="node4" class="node">
<title>Node4</title>
<g id="a_node4"><a xlink:href="namespaceproblem__setup.html#a147f310ff74124342d15ab356739883f" target="_top" xlink:title=" ">
<polygon fill="none" stroke="black" points="164.5,-122.5 164.5,-152.5 285.5,-152.5 285.5,-122.5 164.5,-122.5"/>
<text text-anchor="start" x="172.5" y="-140.5" font-family="Arial" font-size="10.00">problem_setup.generate</text>
<text text-anchor="middle" x="225" y="-129.5" font-family="Arial" font-size="10.00">_particle_gmsh_input</text>
</a>
</g>
</g>
<!-- Node1&#45;&gt;Node4 -->
<g id="edge9" class="edge">
<title>Node1&#45;&gt;Node4</title>
<path fill="none" stroke="midnightblue" d="M476.64,-106.12C465.84,-108.89 454.64,-111.49 444,-113.5 390.87,-123.54 329.61,-129.83 285.58,-133.43"/>
<polygon fill="midnightblue" stroke="midnightblue" points="477.64,-109.48 486.42,-103.55 475.86,-102.71 477.64,-109.48"/>
</g>
<!-- Node8 -->
<g id="node8" class="node">
<title>Node8</title>
<g id="a_node8"><a xlink:href="namespaceproblem__setup.html#afe2093a5361f65d4dbf617da0fd4b555" target="_top" xlink:title=" ">
<polygon fill="none" stroke="black" points="329,-24.5 329,-54.5 444,-54.5 444,-24.5 329,-24.5"/>
<text text-anchor="start" x="337" y="-42.5" font-family="Arial" font-size="10.00">problem_setup.particle</text>
<text text-anchor="middle" x="386.5" y="-31.5" font-family="Arial" font-size="10.00">_locations</text>
</a>
</g>
</g>
<!-- Node1&#45;&gt;Node8 -->
<g id="edge10" class="edge">
<title>Node1&#45;&gt;Node8</title>
<path fill="none" stroke="midnightblue" d="M480.98,-70.24C465.26,-65.07 448.34,-59.51 433.27,-54.55"/>
<polygon fill="midnightblue" stroke="midnightblue" points="479.99,-73.6 490.58,-73.4 482.17,-66.95 479.99,-73.6"/>
</g>
<!-- Node3 -->
<g id="node3" class="node">
<title>Node3</title>
<g id="a_node3"><a xlink:href="namespaceproblem__setup.html#aff5393227de056de45cfc082e05af1ca" target="_top" xlink:title=" ">
<polygon fill="none" stroke="black" points="157,-73.5 157,-103.5 293,-103.5 293,-73.5 157,-73.5"/>
<text text-anchor="start" x="165" y="-91.5" font-family="Arial" font-size="10.00">problem_setup.generate</text>
<text text-anchor="middle" x="225" y="-80.5" font-family="Arial" font-size="10.00">_drum_particle_gmsh_input</text>
</a>
</g>
</g>
<!-- Node2&#45;&gt;Node3 -->
<g id="edge2" class="edge">
<title>Node2&#45;&gt;Node3</title>
<path fill="none" stroke="midnightblue" d="M320.89,-88.5C311.76,-88.5 302.36,-88.5 293.18,-88.5"/>
<polygon fill="midnightblue" stroke="midnightblue" points="321.06,-92 331.06,-88.5 321.06,-85 321.06,-92"/>
</g>
<!-- Node2&#45;&gt;Node4 -->
<g id="edge3" class="edge">
<title>Node2&#45;&gt;Node4</title>
<path fill="none" stroke="midnightblue" d="M326.54,-106.61C309.58,-111.82 291.28,-117.45 274.99,-122.45"/>
<polygon fill="midnightblue" stroke="midnightblue" points="327.81,-109.88 336.34,-103.6 325.76,-103.19 327.81,-109.88"/>
</g>
<!-- Node6 -->
<g id="node6" class="node">
<title>Node6</title>
<g id="a_node6"><a xlink:href="namespaceproblem__setup.html#af51753c1e02e9634827a449ab8729d44" target="_top" xlink:title=" ">
<polygon fill="none" stroke="black" points="0,-65.5 0,-95.5 121,-95.5 121,-65.5 0,-65.5"/>
<text text-anchor="start" x="8" y="-83.5" font-family="Arial" font-size="10.00">problem_setup.generate</text>
<text text-anchor="middle" x="60.5" y="-72.5" font-family="Arial" font-size="10.00">_wall_gmsh_input</text>
</a>
</g>
</g>
<!-- Node2&#45;&gt;Node6 -->
<g id="edge7" class="edge">
<title>Node2&#45;&gt;Node6</title>
<path fill="none" stroke="midnightblue" d="M327.25,-71C315.98,-68.3 304.2,-65.93 293,-64.5 233.04,-56.85 217.24,-59.49 157,-64.5 145.36,-65.47 133,-67.09 121.17,-68.94"/>
<polygon fill="midnightblue" stroke="midnightblue" points="326.44,-74.4 336.99,-73.45 328.14,-67.61 326.44,-74.4"/>
</g>
<!-- Node7 -->
<g id="node7" class="node">
<title>Node7</title>
<g id="a_node7"><a xlink:href="namespaceproblem__setup.html#a767ffea81ffa775dc9aeb12b2e2a21a4" target="_top" xlink:title=" ">
<polygon fill="none" stroke="black" points="3,-0.5 3,-30.5 118,-30.5 118,-0.5 3,-0.5"/>
<text text-anchor="start" x="11" y="-18.5" font-family="Arial" font-size="10.00">problem_setup.particle</text>
<text text-anchor="middle" x="60.5" y="-7.5" font-family="Arial" font-size="10.00">_locations</text>
</a>
</g>
</g>
<!-- Node2&#45;&gt;Node7 -->
<g id="edge8" class="edge">
<title>Node2&#45;&gt;Node7</title>
<path fill="none" stroke="midnightblue" d="M338.07,-69.82C323.75,-64.66 307.87,-59.41 293,-55.5 234.22,-40.06 165.44,-29.04 118.22,-22.53"/>
<polygon fill="midnightblue" stroke="midnightblue" points="337.11,-73.2 347.71,-73.36 339.53,-66.63 337.11,-73.2"/>
</g>
<!-- Node5 -->
<g id="node5" class="node">
<title>Node5</title>
<g id="a_node5"><a xlink:href="namespaceproblem__setup.html#a94bf8e7f89d392c05bd34dfd6a513675" target="_top" xlink:title=" ">
<polygon fill="none" stroke="black" points="0,-122.5 0,-152.5 121,-152.5 121,-122.5 0,-122.5"/>
<text text-anchor="start" x="8" y="-140.5" font-family="Arial" font-size="10.00">problem_setup.generate</text>
<text text-anchor="middle" x="60.5" y="-129.5" font-family="Arial" font-size="10.00">_particle_gmsh_input</text>
</a>
</g>
</g>
<!-- Node4&#45;&gt;Node5 -->
<g id="edge4" class="edge">
<title>Node4&#45;&gt;Node5</title>
<path fill="none" stroke="midnightblue" d="M154.35,-137.5C143.27,-137.5 131.9,-137.5 121.08,-137.5"/>
<polygon fill="midnightblue" stroke="midnightblue" points="154.41,-141 164.41,-137.5 154.41,-134 154.41,-141"/>
</g>
<!-- Node4&#45;&gt;Node6 -->
<g id="edge5" class="edge">
<title>Node4&#45;&gt;Node6</title>
<path fill="none" stroke="midnightblue" d="M171.21,-118.98C149.63,-111.41 124.99,-102.77 104.54,-95.6"/>
<polygon fill="midnightblue" stroke="midnightblue" points="170.28,-122.37 180.88,-122.37 172.6,-115.76 170.28,-122.37"/>
</g>
<!-- Node4&#45;&gt;Node7 -->
<g id="edge6" class="edge">
<title>Node4&#45;&gt;Node7</title>
<path fill="none" stroke="midnightblue" d="M161.98,-117.13C160.25,-115.99 158.59,-114.78 157,-113.5 133.62,-94.76 141.76,-78.11 121,-56.5 111.44,-46.55 99.11,-37.58 88.16,-30.59"/>
<polygon fill="midnightblue" stroke="midnightblue" points="160.58,-120.37 170.98,-122.38 164.1,-114.32 160.58,-120.37"/>
</g>
</g>
</svg>
