<?xml version="1.0" encoding="UTF-8" standalone="no"?>
<!DOCTYPE svg PUBLIC "-//W3C//DTD SVG 1.1//EN"
 "http://www.w3.org/Graphics/SVG/1.1/DTD/svg11.dtd">
<!-- Generated by graphviz version 2.43.0 (0)
 -->
<!-- Title: anonymous_namespace{testNSearchLib::cpp}::compare_closest_point_results Pages: 1 -->
<svg width="375pt" height="60pt"
 viewBox="0.00 0.00 375.00 60.00" xmlns="http://www.w3.org/2000/svg" xmlns:xlink="http://www.w3.org/1999/xlink">
<g id="graph0" class="graph" transform="scale(1 1) rotate(0) translate(4 56)">
<title>anonymous_namespace{testNSearchLib::cpp}::compare_closest_point_results</title>
<!-- Node1 -->
<g id="Node000001" class="node">
<title>Node1</title>
<g id="a_Node000001"><a xlink:title=" ">
<polygon fill="#999999" stroke="#666666" points="367,-52 244,-52 244,0 367,0 367,-52"/>
<text text-anchor="start" x="252" y="-40" font-family="Arial" font-size="10.00">anonymous_namespace</text>
<text text-anchor="start" x="252" y="-29" font-family="Arial" font-size="10.00">{testNSearchLib::cpp}</text>
<text text-anchor="start" x="252" y="-18" font-family="Arial" font-size="10.00">::compare_closest_point</text>
<text text-anchor="middle" x="305.5" y="-7" font-family="Arial" font-size="10.00">_results</text>
</a>
</g>
</g>
<!-- Node2 -->
<g id="Node000002" class="node">
<title>Node2</title>
<g id="a_Node000002"><a xlink:href="namespacetest.html#a2abf679a9141e85f146ee0a27d7d4a76" target="_top" xlink:title="Perform test on nsearch.">
<polygon fill="white" stroke="#666666" points="208,-41 74,-41 74,-11 208,-11 208,-41"/>
<text text-anchor="start" x="82" y="-29" font-family="Arial" font-size="10.00">test::testNanoflannClosest</text>
<text text-anchor="middle" x="141" y="-18" font-family="Arial" font-size="10.00">Point</text>
</a>
</g>
</g>
<!-- Node1&#45;&gt;Node2 -->
<g id="edge1_Node000001_Node000002" class="edge">
<title>Node1&#45;&gt;Node2</title>
<g id="a_edge1_Node000001_Node000002"><a xlink:title=" ">
<path fill="none" stroke="#63b8ff" d="M233.97,-26C225.35,-26 216.57,-26 208.01,-26"/>
<polygon fill="#63b8ff" stroke="#63b8ff" points="233.99,-29.5 243.99,-26 233.99,-22.5 233.99,-29.5"/>
</a>
</g>
</g>
<!-- Node3 -->
<g id="Node000003" class="node">
<title>Node3</title>
<g id="a_Node000003"><a xlink:href="testNSearch_8cpp.html#a0ddf1224851353fc92bfbff6f499fa97" target="_top" xlink:title=" ">
<polygon fill="white" stroke="#666666" points="38,-35.5 0,-35.5 0,-16.5 38,-16.5 38,-35.5"/>
<text text-anchor="middle" x="19" y="-23.5" font-family="Arial" font-size="10.00">main</text>
</a>
</g>
</g>
<!-- Node2&#45;&gt;Node3 -->
<g id="edge2_Node000002_Node000003" class="edge">
<title>Node2&#45;&gt;Node3</title>
<g id="a_edge2_Node000002_Node000003"><a xlink:title=" ">
<path fill="none" stroke="#63b8ff" d="M63.45,-26C54.18,-26 45.48,-26 38.34,-26"/>
<polygon fill="#63b8ff" stroke="#63b8ff" points="63.68,-29.5 73.68,-26 63.68,-22.5 63.68,-29.5"/>
</a>
</g>
</g>
</g>
</svg>
