<?xml version="1.0" encoding="UTF-8" standalone="no"?>
<!DOCTYPE svg PUBLIC "-//W3C//DTD SVG 1.1//EN"
 "http://www.w3.org/Graphics/SVG/1.1/DTD/svg11.dtd">
<!-- Generated by graphviz version 2.43.0 (0)
 -->
<!-- Title: geom::mapSimilarity Pages: 1 -->
<svg width="334pt" height="27pt"
 viewBox="0.00 0.00 334.00 27.00" xmlns="http://www.w3.org/2000/svg" xmlns:xlink="http://www.w3.org/1999/xlink">
<g id="graph0" class="graph" transform="scale(1 1) rotate(0) translate(4 23)">
<title>geom::mapSimilarity</title>
<!-- Node1 -->
<g id="Node000001" class="node">
<title>Node1</title>
<g id="a_Node000001"><a xlink:title=" ">
<polygon fill="#999999" stroke="#666666" points="106,-19 0,-19 0,0 106,0 106,-19"/>
<text text-anchor="middle" x="53" y="-7" font-family="Arial" font-size="10.00">geom::mapSimilarity</text>
</a>
</g>
</g>
<!-- Node2 -->
<g id="Node000002" class="node">
<title>Node2</title>
<g id="a_Node000002"><a xlink:href="namespaceutil.html#afc570d133c5159571a48456e2440753a" target="_top" xlink:title="Returns the vector after rotating by desired angle.">
<polygon fill="white" stroke="#666666" points="202,-19 142,-19 142,0 202,0 202,-19"/>
<text text-anchor="middle" x="172" y="-7" font-family="Arial" font-size="10.00">util::rotate</text>
</a>
</g>
</g>
<!-- Node1&#45;&gt;Node2 -->
<g id="edge1_Node000001_Node000002" class="edge">
<title>Node1&#45;&gt;Node2</title>
<g id="a_edge1_Node000001_Node000002"><a xlink:title=" ">
<path fill="none" stroke="#63b8ff" d="M106.34,-9.5C114.8,-9.5 123.44,-9.5 131.53,-9.5"/>
<polygon fill="#63b8ff" stroke="#63b8ff" points="131.79,-13 141.79,-9.5 131.79,-6 131.79,-13"/>
</a>
</g>
</g>
<!-- Node3 -->
<g id="Node000003" class="node">
<title>Node3</title>
<g id="a_Node000003"><a xlink:href="structutil_1_1Point.html#a8c5530ee2dac6fa26f88be0de91543f7" target="_top" xlink:title="Computes the cross product between this vector and given vector.">
<polygon fill="white" stroke="#666666" points="326,-19 238,-19 238,0 326,0 326,-19"/>
<text text-anchor="middle" x="282" y="-7" font-family="Arial" font-size="10.00">util::Point::cross</text>
</a>
</g>
</g>
<!-- Node2&#45;&gt;Node3 -->
<g id="edge2_Node000002_Node000003" class="edge">
<title>Node2&#45;&gt;Node3</title>
<g id="a_edge2_Node000002_Node000003"><a xlink:title=" ">
<path fill="none" stroke="#63b8ff" d="M202.23,-9.5C210.13,-9.5 218.93,-9.5 227.72,-9.5"/>
<polygon fill="#63b8ff" stroke="#63b8ff" points="227.96,-13 237.96,-9.5 227.96,-6 227.96,-13"/>
</a>
</g>
</g>
</g>
</svg>
