<?xml version="1.0" encoding="UTF-8" standalone="no"?>
<!DOCTYPE svg PUBLIC "-//W3C//DTD SVG 1.1//EN"
 "http://www.w3.org/Graphics/SVG/1.1/DTD/svg11.dtd">
<!-- Generated by graphviz version 2.43.0 (0)
 -->
<!-- Title: problem_setup.get_E Pages: 1 -->
<svg width="998pt" height="855pt"
 viewBox="0.00 0.00 998.00 854.59" xmlns="http://www.w3.org/2000/svg" xmlns:xlink="http://www.w3.org/1999/xlink">
<g id="graph0" class="graph" transform="scale(1 1) rotate(0) translate(4 850.59)">
<title>problem_setup.get_E</title>
<!-- Node1 -->
<g id="node1" class="node">
<title>Node1</title>
<g id="a_node1"><a xlink:title=" ">
<polygon fill="#bfbfbf" stroke="black" points="881,-427 881,-446 990,-446 990,-427 881,-427"/>
<text text-anchor="middle" x="935.5" y="-434" font-family="Arial" font-size="10.00">problem_setup.get_E</text>
</a>
</g>
</g>
<!-- Node2 -->
<g id="node2" class="node">
<title>Node2</title>
<g id="a_node2"><a xlink:href="namespaceproblem__setup.html#ada05bf105b9c97f6a6569fdfad318130" target="_top" xlink:title=" ">
<polygon fill="none" stroke="black" points="738,-598.5 738,-628.5 842,-628.5 842,-598.5 738,-598.5"/>
<text text-anchor="start" x="746" y="-616.5" font-family="Arial" font-size="10.00">problem_setup.copy</text>
<text text-anchor="middle" x="790" y="-605.5" font-family="Arial" font-size="10.00">_contact_zone</text>
</a>
</g>
</g>
<!-- Node1&#45;&gt;Node2 -->
<g id="edge1" class="edge">
<title>Node1&#45;&gt;Node2</title>
<path fill="none" stroke="midnightblue" d="M926.14,-455.31C912.44,-484.55 882.93,-541.47 845,-579.5 837.8,-586.72 828.8,-593.14 820.23,-598.4"/>
<polygon fill="midnightblue" stroke="midnightblue" points="929.33,-456.75 930.31,-446.2 922.96,-453.84 929.33,-456.75"/>
</g>
<!-- Node3 -->
<g id="node3" class="node">
<title>Node3</title>
<g id="a_node3"><a xlink:href="namespaceproblem__setup.html#a2c232d3bae603961390ef3d3ee28fe81" target="_top" xlink:title=" ">
<polygon fill="none" stroke="black" points="551,-514.5 551,-544.5 694,-544.5 694,-514.5 551,-514.5"/>
<text text-anchor="start" x="559" y="-532.5" font-family="Arial" font-size="10.00">problem_setup.generate</text>
<text text-anchor="middle" x="622.5" y="-521.5" font-family="Arial" font-size="10.00">_cylindrical_wall_gmsh_input</text>
</a>
</g>
</g>
<!-- Node1&#45;&gt;Node3 -->
<g id="edge32" class="edge">
<title>Node1&#45;&gt;Node3</title>
<path fill="none" stroke="midnightblue" d="M902.88,-449.91C885.9,-456.84 864.5,-465.16 845,-471.5 793.21,-488.34 733.42,-503.77 689.02,-514.47"/>
<polygon fill="midnightblue" stroke="midnightblue" points="904.42,-453.06 912.33,-446.01 901.75,-446.59 904.42,-453.06"/>
</g>
<!-- Node4 -->
<g id="node4" class="node">
<title>Node4</title>
<g id="a_node4"><a xlink:href="namespaceproblem__setup.html#ae8a464882c2862a981f40e102eddeb7d" target="_top" xlink:title=" ">
<polygon fill="none" stroke="black" points="546,-563.5 546,-593.5 699,-593.5 699,-563.5 546,-563.5"/>
<text text-anchor="start" x="554" y="-581.5" font-family="Arial" font-size="10.00">problem_setup.generate</text>
<text text-anchor="middle" x="622.5" y="-570.5" font-family="Arial" font-size="10.00">_moving_rect_wall_gmsh_input</text>
</a>
</g>
</g>
<!-- Node1&#45;&gt;Node4 -->
<g id="edge34" class="edge">
<title>Node1&#45;&gt;Node4</title>
<path fill="none" stroke="midnightblue" d="M915.52,-452.37C898.04,-466.4 870.96,-486.74 845,-500.5 783.88,-532.91 764.43,-532.01 699,-554.5 690.29,-557.49 680.96,-560.57 671.94,-563.47"/>
<polygon fill="midnightblue" stroke="midnightblue" points="917.74,-455.07 923.28,-446.04 913.32,-449.65 917.74,-455.07"/>
</g>
<!-- Node5 -->
<g id="node5" class="node">
<title>Node5</title>
<g id="a_node5"><a xlink:href="namespaceproblem__setup.html#a9a8d53047175304f4c44b93a2f6fa482" target="_top" xlink:title=" ">
<polygon fill="none" stroke="black" points="151,-678.5 151,-708.5 290,-708.5 290,-678.5 151,-678.5"/>
<text text-anchor="start" x="159" y="-696.5" font-family="Arial" font-size="10.00">problem_setup.generate</text>
<text text-anchor="middle" x="220.5" y="-685.5" font-family="Arial" font-size="10.00">_rect_container_gmsh_input</text>
</a>
</g>
</g>
<!-- Node1&#45;&gt;Node5 -->
<g id="edge37" class="edge">
<title>Node1&#45;&gt;Node5</title>
<path fill="none" stroke="midnightblue" d="M933.9,-456.29C931.32,-507.66 917.61,-646.96 845,-728.5 797.88,-781.41 767.53,-774.51 699,-792.5 538.44,-834.64 477.36,-879.64 326,-811.5 278.59,-790.16 243.99,-735.5 229.3,-708.73"/>
<polygon fill="midnightblue" stroke="midnightblue" points="937.4,-456.34 934.32,-446.2 930.41,-456.05 937.4,-456.34"/>
</g>
<!-- Node7 -->
<g id="node7" class="node">
<title>Node7</title>
<g id="a_node7"><a xlink:href="namespaceproblem__setup.html#ab2d86f4fe187ef9b78d1ad4ea438b98b" target="_top" xlink:title=" ">
<polygon fill="none" stroke="black" points="326,-575 326,-616 510,-616 510,-575 326,-575"/>
<text text-anchor="start" x="334" y="-604" font-family="Arial" font-size="10.00">problem_setup.generate</text>
<text text-anchor="start" x="334" y="-593" font-family="Arial" font-size="10.00">_rectangle_with_protrusion</text>
<text text-anchor="middle" x="418" y="-582" font-family="Arial" font-size="10.00">_and_opening_wall_gmsh_input_type3</text>
</a>
</g>
</g>
<!-- Node1&#45;&gt;Node7 -->
<g id="edge38" class="edge">
<title>Node1&#45;&gt;Node7</title>
<path fill="none" stroke="midnightblue" d="M870.92,-425.6C790.93,-414.97 651.28,-406.81 546,-456.5 491.61,-482.17 449.8,-542.75 430.58,-574.79"/>
<polygon fill="midnightblue" stroke="midnightblue" points="870.47,-429.07 880.85,-426.98 871.43,-422.14 870.47,-429.07"/>
</g>
<!-- Node8 -->
<g id="node8" class="node">
<title>Node8</title>
<g id="a_node8"><a xlink:href="namespaceproblem__setup.html#ad0951de1e260620b256ecd25ed5d8e5a" target="_top" xlink:title=" ">
<polygon fill="none" stroke="black" points="565,-465.5 565,-495.5 680,-495.5 680,-465.5 565,-465.5"/>
<text text-anchor="start" x="573" y="-483.5" font-family="Arial" font-size="10.00">problem_setup.particle</text>
<text text-anchor="middle" x="622.5" y="-472.5" font-family="Arial" font-size="10.00">_locations</text>
</a>
</g>
</g>
<!-- Node1&#45;&gt;Node8 -->
<g id="edge40" class="edge">
<title>Node1&#45;&gt;Node8</title>
<path fill="none" stroke="midnightblue" d="M870.57,-446.66C861.98,-447.98 853.28,-449.29 845,-450.5 789.13,-458.65 725.22,-467.23 680.45,-473.11"/>
<polygon fill="midnightblue" stroke="midnightblue" points="871.22,-450.1 880.57,-445.12 870.16,-443.19 871.22,-450.1"/>
</g>
<!-- Node9 -->
<g id="node9" class="node">
<title>Node9</title>
<g id="a_node9"><a xlink:href="namespaceproblem__setup.html#a674f8d549ccd39c6f9059a8089b54ba9" target="_top" xlink:title=" ">
<polygon fill="none" stroke="black" points="358.5,-771.5 358.5,-801.5 477.5,-801.5 477.5,-771.5 358.5,-771.5"/>
<text text-anchor="start" x="366.5" y="-789.5" font-family="Arial" font-size="10.00">problem_setup.serialize</text>
<text text-anchor="middle" x="418" y="-778.5" font-family="Arial" font-size="10.00">_matrix_list</text>
</a>
</g>
</g>
<!-- Node1&#45;&gt;Node9 -->
<g id="edge42" class="edge">
<title>Node1&#45;&gt;Node9</title>
<path fill="none" stroke="midnightblue" d="M931.74,-456.5C924.69,-500.93 902.37,-609.33 845,-677.5 753.94,-785.7 571.6,-794.39 477.76,-790.92"/>
<polygon fill="midnightblue" stroke="midnightblue" points="935.23,-456.82 933.24,-446.42 928.3,-455.79 935.23,-456.82"/>
</g>
<!-- Node10 -->
<g id="node10" class="node">
<title>Node10</title>
<g id="a_node10"><a xlink:href="namespaceproblem__setup.html#a537cfa64f80968083b662a6a6a6174e6" target="_top" xlink:title=" ">
<polygon fill="none" stroke="black" points="570.5,-689.5 570.5,-719.5 674.5,-719.5 674.5,-689.5 570.5,-689.5"/>
<text text-anchor="start" x="578.5" y="-707.5" font-family="Arial" font-size="10.00">problem_setup.write</text>
<text text-anchor="middle" x="622.5" y="-696.5" font-family="Arial" font-size="10.00">_cir_line_geo</text>
</a>
</g>
</g>
<!-- Node1&#45;&gt;Node10 -->
<g id="edge43" class="edge">
<title>Node1&#45;&gt;Node10</title>
<path fill="none" stroke="midnightblue" d="M931.42,-456.08C924.04,-496.32 901.59,-588.7 845,-638.5 797.26,-680.52 723.72,-695.8 674.64,-701.36"/>
<polygon fill="midnightblue" stroke="midnightblue" points="934.87,-456.64 933.11,-446.19 927.97,-455.46 934.87,-456.64"/>
</g>
<!-- Node12 -->
<g id="node12" class="node">
<title>Node12</title>
<g id="a_node12"><a xlink:href="namespaceproblem__setup.html#a64e067098e447f766d042476ef5abe85" target="_top" xlink:title=" ">
<polygon fill="none" stroke="black" points="735,-345.5 735,-375.5 845,-375.5 845,-345.5 735,-345.5"/>
<text text-anchor="start" x="743" y="-363.5" font-family="Arial" font-size="10.00">problem_setup.create</text>
<text text-anchor="middle" x="790" y="-352.5" font-family="Arial" font-size="10.00">_input_file</text>
</a>
</g>
</g>
<!-- Node1&#45;&gt;Node12 -->
<g id="edge17" class="edge">
<title>Node1&#45;&gt;Node12</title>
<path fill="none" stroke="midnightblue" d="M907.33,-422.11C882.18,-408.79 844.93,-389.06 819.4,-375.54"/>
<polygon fill="midnightblue" stroke="midnightblue" points="905.85,-425.29 916.33,-426.87 909.13,-419.1 905.85,-425.29"/>
</g>
<!-- Node13 -->
<g id="node13" class="node">
<title>Node13</title>
<g id="a_node13"><a xlink:href="namespaceproblem__setup.html#aff5393227de056de45cfc082e05af1ca" target="_top" xlink:title=" ">
<polygon fill="none" stroke="black" points="554.5,-225.5 554.5,-255.5 690.5,-255.5 690.5,-225.5 554.5,-225.5"/>
<text text-anchor="start" x="562.5" y="-243.5" font-family="Arial" font-size="10.00">problem_setup.generate</text>
<text text-anchor="middle" x="622.5" y="-232.5" font-family="Arial" font-size="10.00">_drum_particle_gmsh_input</text>
</a>
</g>
</g>
<!-- Node1&#45;&gt;Node13 -->
<g id="edge33" class="edge">
<title>Node1&#45;&gt;Node13</title>
<path fill="none" stroke="midnightblue" d="M921.97,-418.4C906.14,-396.6 877.06,-360.01 845,-336.5 792.61,-298.09 722.46,-271 675.26,-255.6"/>
<polygon fill="midnightblue" stroke="midnightblue" points="919.27,-420.63 927.92,-426.75 924.97,-416.57 919.27,-420.63"/>
</g>
<!-- Node14 -->
<g id="node14" class="node">
<title>Node14</title>
<g id="a_node14"><a xlink:href="namespaceproblem__setup.html#a8c789550cc1b70abe559c976bcf664e4" target="_top" xlink:title=" ">
<polygon fill="none" stroke="black" points="557,-176.5 557,-206.5 688,-206.5 688,-176.5 557,-176.5"/>
<text text-anchor="start" x="565" y="-194.5" font-family="Arial" font-size="10.00">problem_setup.generate</text>
<text text-anchor="middle" x="622.5" y="-183.5" font-family="Arial" font-size="10.00">_moving_wall_gmsh_input</text>
</a>
</g>
</g>
<!-- Node1&#45;&gt;Node14 -->
<g id="edge35" class="edge">
<title>Node1&#45;&gt;Node14</title>
<path fill="none" stroke="midnightblue" d="M928.83,-417.38C917.93,-383.78 890.97,-313.86 845,-273.5 800.62,-234.55 736.09,-213.47 688.11,-202.48"/>
<polygon fill="midnightblue" stroke="midnightblue" points="925.49,-418.43 931.8,-426.93 932.17,-416.35 925.49,-418.43"/>
</g>
<!-- Node15 -->
<g id="node15" class="node">
<title>Node15</title>
<g id="a_node15"><a xlink:href="namespaceproblem__setup.html#a147f310ff74124342d15ab356739883f" target="_top" xlink:title=" ">
<polygon fill="none" stroke="black" points="562,-88.5 562,-118.5 683,-118.5 683,-88.5 562,-88.5"/>
<text text-anchor="start" x="570" y="-106.5" font-family="Arial" font-size="10.00">problem_setup.generate</text>
<text text-anchor="middle" x="622.5" y="-95.5" font-family="Arial" font-size="10.00">_particle_gmsh_input</text>
</a>
</g>
</g>
<!-- Node1&#45;&gt;Node15 -->
<g id="edge36" class="edge">
<title>Node1&#45;&gt;Node15</title>
<path fill="none" stroke="midnightblue" d="M931.5,-416.76C921.79,-355.67 889.29,-171.5 845,-133.5 800.82,-95.6 732.37,-91.81 683.26,-95.18"/>
<polygon fill="midnightblue" stroke="midnightblue" points="928.09,-417.63 933.09,-426.97 935.01,-416.55 928.09,-417.63"/>
</g>
<!-- Node17 -->
<g id="node17" class="node">
<title>Node17</title>
<g id="a_node17"><a xlink:href="namespaceproblem__setup.html#af51753c1e02e9634827a449ab8729d44" target="_top" xlink:title=" ">
<polygon fill="none" stroke="black" points="357.5,-88.5 357.5,-118.5 478.5,-118.5 478.5,-88.5 357.5,-88.5"/>
<text text-anchor="start" x="365.5" y="-106.5" font-family="Arial" font-size="10.00">problem_setup.generate</text>
<text text-anchor="middle" x="418" y="-95.5" font-family="Arial" font-size="10.00">_wall_gmsh_input</text>
</a>
</g>
</g>
<!-- Node1&#45;&gt;Node17 -->
<g id="edge39" class="edge">
<title>Node1&#45;&gt;Node17</title>
<path fill="none" stroke="midnightblue" d="M932.36,-417.03C924.65,-350.62 895.99,-134.7 845,-91.5 743.51,-5.52 678.39,-65.59 546,-78.5 523.86,-80.66 499.85,-84.89 478.73,-89.26"/>
<polygon fill="midnightblue" stroke="midnightblue" points="928.89,-417.45 933.49,-426.99 935.84,-416.66 928.89,-417.45"/>
</g>
<!-- Node18 -->
<g id="node18" class="node">
<title>Node18</title>
<g id="a_node18"><a xlink:href="namespaceproblem__setup.html#a704799249dad2aafe57eedd971030266" target="_top" xlink:title=" ">
<polygon fill="none" stroke="black" points="360.5,-137.5 360.5,-167.5 475.5,-167.5 475.5,-137.5 360.5,-137.5"/>
<text text-anchor="start" x="368.5" y="-155.5" font-family="Arial" font-size="10.00">problem_setup.particle</text>
<text text-anchor="middle" x="418" y="-144.5" font-family="Arial" font-size="10.00">_locations_orient</text>
</a>
</g>
</g>
<!-- Node1&#45;&gt;Node18 -->
<g id="edge41" class="edge">
<title>Node1&#45;&gt;Node18</title>
<path fill="none" stroke="midnightblue" d="M932.27,-416.69C926.33,-373.3 906.15,-269.24 845,-212.5 743.71,-118.52 566.34,-129.04 475.75,-142.1"/>
<polygon fill="midnightblue" stroke="midnightblue" points="928.82,-417.31 933.54,-426.79 935.76,-416.43 928.82,-417.31"/>
</g>
<!-- Node19 -->
<g id="node19" class="node">
<title>Node19</title>
<g id="a_node19"><a xlink:href="namespaceproblem__setup.html#a2a1eff7bae1c660880f6181ab7473cb5" target="_top" xlink:title=" ">
<polygon fill="none" stroke="black" points="738,-0.5 738,-30.5 842,-30.5 842,-0.5 738,-0.5"/>
<text text-anchor="start" x="746" y="-18.5" font-family="Arial" font-size="10.00">problem_setup.does</text>
<text text-anchor="middle" x="790" y="-7.5" font-family="Arial" font-size="10.00">_intersect</text>
</a>
</g>
</g>
<!-- Node1&#45;&gt;Node19 -->
<g id="edge31" class="edge">
<title>Node1&#45;&gt;Node19</title>
<path fill="none" stroke="midnightblue" d="M932.11,-416.64C923.26,-345.72 890.47,-106.02 845,-45.5 840.55,-39.58 834.58,-34.68 828.23,-30.67"/>
<polygon fill="midnightblue" stroke="midnightblue" points="928.67,-417.35 933.36,-426.85 935.62,-416.5 928.67,-417.35"/>
</g>
<!-- Node2&#45;&gt;Node3 -->
<g id="edge2" class="edge">
<title>Node2&#45;&gt;Node3</title>
<path fill="none" stroke="midnightblue" d="M760.72,-592.21C743.54,-579.98 720.78,-565.02 699,-554.5 691.42,-550.84 683.16,-547.5 674.98,-544.54"/>
<polygon fill="midnightblue" stroke="midnightblue" points="759.01,-595.29 769.17,-598.32 763.12,-589.62 759.01,-595.29"/>
</g>
<!-- Node2&#45;&gt;Node4 -->
<g id="edge3" class="edge">
<title>Node2&#45;&gt;Node4</title>
<path fill="none" stroke="midnightblue" d="M728.18,-600.64C717.29,-598.34 705.87,-595.92 694.72,-593.56"/>
<polygon fill="midnightblue" stroke="midnightblue" points="727.49,-604.07 737.99,-602.71 728.93,-597.22 727.49,-604.07"/>
</g>
<!-- Node2&#45;&gt;Node5 -->
<g id="edge4" class="edge">
<title>Node2&#45;&gt;Node5</title>
<path fill="none" stroke="midnightblue" d="M727.77,-618.79C620.17,-628.31 401.42,-648.72 326,-663.5 306.55,-667.31 285.48,-673.04 267.38,-678.48"/>
<polygon fill="midnightblue" stroke="midnightblue" points="728.18,-622.27 737.83,-617.91 727.56,-615.3 728.18,-622.27"/>
</g>
<!-- Node2&#45;&gt;Node7 -->
<g id="edge6" class="edge">
<title>Node2&#45;&gt;Node7</title>
<path fill="none" stroke="midnightblue" d="M727.64,-611.34C678.5,-609.53 607.8,-606.72 546,-603.5 534.42,-602.9 522.24,-602.2 510.21,-601.49"/>
<polygon fill="midnightblue" stroke="midnightblue" points="727.66,-614.85 737.79,-611.72 727.92,-607.85 727.66,-614.85"/>
</g>
<!-- Node2&#45;&gt;Node8 -->
<g id="edge8" class="edge">
<title>Node2&#45;&gt;Node8</title>
<path fill="none" stroke="midnightblue" d="M774.8,-589.63C759.13,-565.22 731.73,-527.79 699,-505.5 693.18,-501.54 686.68,-498.16 680.01,-495.29"/>
<polygon fill="midnightblue" stroke="midnightblue" points="771.95,-591.68 780.22,-598.3 777.89,-587.96 771.95,-591.68"/>
</g>
<!-- Node2&#45;&gt;Node9 -->
<g id="edge9" class="edge">
<title>Node2&#45;&gt;Node9</title>
<path fill="none" stroke="midnightblue" d="M776.92,-637.89C762.29,-664.75 735.06,-707.1 699,-729.5 662.71,-752.05 548.49,-770.06 477.64,-779.43"/>
<polygon fill="midnightblue" stroke="midnightblue" points="780.17,-639.23 781.73,-628.76 773.97,-635.97 780.17,-639.23"/>
</g>
<!-- Node2&#45;&gt;Node10 -->
<g id="edge11" class="edge">
<title>Node2&#45;&gt;Node10</title>
<path fill="none" stroke="midnightblue" d="M760.93,-634.86C743.66,-647.4 720.73,-662.99 699,-674.5 688.65,-679.98 677.08,-685.06 666.16,-689.42"/>
<polygon fill="midnightblue" stroke="midnightblue" points="763.43,-637.36 769.41,-628.62 759.28,-631.72 763.43,-637.36"/>
</g>
<!-- Node6 -->
<g id="node6" class="node">
<title>Node6</title>
<g id="a_node6"><a xlink:href="namespaceproblem__setup.html#a5a8a494c7325b103530d3f40d4b49fe8" target="_top" xlink:title=" ">
<polygon fill="none" stroke="black" points="0,-678.5 0,-708.5 115,-708.5 115,-678.5 0,-678.5"/>
<text text-anchor="start" x="8" y="-696.5" font-family="Arial" font-size="10.00">problem_setup.particle</text>
<text text-anchor="middle" x="57.5" y="-685.5" font-family="Arial" font-size="10.00">_locations_old</text>
</a>
</g>
</g>
<!-- Node5&#45;&gt;Node6 -->
<g id="edge5" class="edge">
<title>Node5&#45;&gt;Node6</title>
<path fill="none" stroke="midnightblue" d="M140.74,-693.5C132.19,-693.5 123.6,-693.5 115.38,-693.5"/>
<polygon fill="midnightblue" stroke="midnightblue" points="140.75,-697 150.75,-693.5 140.75,-690 140.75,-697"/>
</g>
<!-- Node7&#45;&gt;Node5 -->
<g id="edge7" class="edge">
<title>Node7&#45;&gt;Node5</title>
<path fill="none" stroke="midnightblue" d="M349.63,-619.88C341.58,-623.24 333.54,-626.81 326,-630.5 296.69,-644.83 264.83,-664.72 244.09,-678.29"/>
<polygon fill="midnightblue" stroke="midnightblue" points="351.13,-623.05 359.06,-616.03 348.48,-616.56 351.13,-623.05"/>
</g>
<!-- Node9&#45;&gt;Node5 -->
<g id="edge10" class="edge">
<title>Node9&#45;&gt;Node5</title>
<path fill="none" stroke="midnightblue" d="M355.28,-768.24C345.34,-764.7 335.28,-760.76 326,-756.5 295.97,-742.71 263.73,-722.33 243.13,-708.52"/>
<polygon fill="midnightblue" stroke="midnightblue" points="354.14,-771.55 364.73,-771.49 356.42,-764.93 354.14,-771.55"/>
</g>
<!-- Node10&#45;&gt;Node5 -->
<g id="edge12" class="edge">
<title>Node10&#45;&gt;Node5</title>
<path fill="none" stroke="midnightblue" d="M560.43,-716.82C544.11,-719.58 526.45,-722.11 510,-723.5 428.51,-730.39 406.98,-734.89 326,-723.5 305.07,-720.55 282.45,-714.44 263.62,-708.5"/>
<polygon fill="midnightblue" stroke="midnightblue" points="561.14,-720.25 570.39,-715.07 559.93,-713.35 561.14,-720.25"/>
</g>
<!-- Node10&#45;&gt;Node7 -->
<g id="edge15" class="edge">
<title>Node10&#45;&gt;Node7</title>
<path fill="none" stroke="midnightblue" d="M584.13,-684.39C548.05,-664.97 493.67,-635.69 457.28,-616.11"/>
<polygon fill="midnightblue" stroke="midnightblue" points="582.88,-687.69 593.34,-689.34 586.2,-681.52 582.88,-687.69"/>
</g>
<!-- Node10&#45;&gt;Node9 -->
<g id="edge16" class="edge">
<title>Node10&#45;&gt;Node9</title>
<path fill="none" stroke="midnightblue" d="M570.52,-723.38C562.22,-726.85 553.79,-730.61 546,-734.5 529.23,-742.88 527.02,-748.62 510,-756.5 497.92,-762.09 484.51,-767.12 471.77,-771.38"/>
<polygon fill="midnightblue" stroke="midnightblue" points="571.86,-726.61 579.8,-719.6 569.22,-720.13 571.86,-726.61"/>
</g>
<!-- Node11 -->
<g id="node11" class="node">
<title>Node11</title>
<g id="a_node11"><a xlink:href="namespaceproblem__setup.html#af2a3517f0f6e0d54303c7b67043b3ef6" target="_top" xlink:title=" ">
<polygon fill="none" stroke="black" points="326,-673 326,-714 510,-714 510,-673 326,-673"/>
<text text-anchor="start" x="334" y="-702" font-family="Arial" font-size="10.00">problem_setup.generate</text>
<text text-anchor="start" x="334" y="-691" font-family="Arial" font-size="10.00">_rectangle_with_protrusion</text>
<text text-anchor="middle" x="418" y="-680" font-family="Arial" font-size="10.00">_and_opening_wall_gmsh_input_type2</text>
</a>
</g>
</g>
<!-- Node10&#45;&gt;Node11 -->
<g id="edge13" class="edge">
<title>Node10&#45;&gt;Node11</title>
<path fill="none" stroke="midnightblue" d="M560.29,-701.17C544.52,-700.32 527.22,-699.38 510.29,-698.46"/>
<polygon fill="midnightblue" stroke="midnightblue" points="560.23,-704.68 570.4,-701.72 560.61,-697.69 560.23,-704.68"/>
</g>
<!-- Node11&#45;&gt;Node5 -->
<g id="edge14" class="edge">
<title>Node11&#45;&gt;Node5</title>
<path fill="none" stroke="midnightblue" d="M315.65,-693.5C306.98,-693.5 298.35,-693.5 290.03,-693.5"/>
<polygon fill="midnightblue" stroke="midnightblue" points="315.83,-697 325.83,-693.5 315.83,-690 315.83,-697"/>
</g>
<!-- Node12&#45;&gt;Node3 -->
<g id="edge18" class="edge">
<title>Node12&#45;&gt;Node3</title>
<path fill="none" stroke="midnightblue" d="M779.97,-385.27C766.96,-417.55 739.92,-473.64 699,-505.5 694.55,-508.96 689.59,-511.93 684.4,-514.48"/>
<polygon fill="midnightblue" stroke="midnightblue" points="783.34,-386.27 783.7,-375.68 776.81,-383.73 783.34,-386.27"/>
</g>
<!-- Node12&#45;&gt;Node4 -->
<g id="edge20" class="edge">
<title>Node12&#45;&gt;Node4</title>
<path fill="none" stroke="midnightblue" d="M784.17,-385.61C774.94,-426.82 750.92,-508.77 699,-554.5 695.08,-557.95 690.66,-560.91 685.97,-563.44"/>
<polygon fill="midnightblue" stroke="midnightblue" points="787.64,-386.11 786.3,-375.6 780.79,-384.65 787.64,-386.11"/>
</g>
<!-- Node12&#45;&gt;Node5 -->
<g id="edge26" class="edge">
<title>Node12&#45;&gt;Node5</title>
<path fill="none" stroke="midnightblue" d="M724.56,-353.16C674.1,-349.97 603.13,-351.27 546,-374.5 386.83,-439.23 263.89,-624.24 230.51,-678.42"/>
<polygon fill="midnightblue" stroke="midnightblue" points="724.46,-356.66 734.68,-353.87 724.96,-349.68 724.46,-356.66"/>
</g>
<!-- Node12&#45;&gt;Node7 -->
<g id="edge27" class="edge">
<title>Node12&#45;&gt;Node7</title>
<path fill="none" stroke="midnightblue" d="M724.94,-371.77C663.19,-383.53 574.97,-402.95 546,-422.5 487.32,-462.1 445.79,-538.22 428.27,-574.83"/>
<polygon fill="midnightblue" stroke="midnightblue" points="725.81,-375.17 734.99,-369.88 724.52,-368.29 725.81,-375.17"/>
</g>
<!-- Node12&#45;&gt;Node8 -->
<g id="edge29" class="edge">
<title>Node12&#45;&gt;Node8</title>
<path fill="none" stroke="midnightblue" d="M759.66,-381.77C726.52,-405.8 673.42,-444.3 644.29,-465.43"/>
<polygon fill="midnightblue" stroke="midnightblue" points="762,-384.4 768.04,-375.7 757.89,-378.73 762,-384.4"/>
</g>
<!-- Node12&#45;&gt;Node13 -->
<g id="edge19" class="edge">
<title>Node12&#45;&gt;Node13</title>
<path fill="none" stroke="midnightblue" d="M770.71,-337.51C753.85,-317.57 727.23,-289.07 699,-270.5 690.16,-264.69 680.02,-259.7 670.1,-255.57"/>
<polygon fill="midnightblue" stroke="midnightblue" points="768.02,-339.75 777.1,-345.22 773.41,-335.29 768.02,-339.75"/>
</g>
<!-- Node12&#45;&gt;Node14 -->
<g id="edge21" class="edge">
<title>Node12&#45;&gt;Node14</title>
<path fill="none" stroke="midnightblue" d="M779.87,-335.98C766.75,-304 739.58,-248.39 699,-216.5 694.11,-212.66 688.61,-209.4 682.86,-206.63"/>
<polygon fill="midnightblue" stroke="midnightblue" points="776.69,-337.47 783.63,-345.47 783.2,-334.88 776.69,-337.47"/>
</g>
<!-- Node12&#45;&gt;Node15 -->
<g id="edge22" class="edge">
<title>Node12&#45;&gt;Node15</title>
<path fill="none" stroke="midnightblue" d="M781.37,-335.49C768.67,-296.59 740.44,-220.47 699,-166.5 684.34,-147.41 662.92,-130.24 646.64,-118.66"/>
<polygon fill="midnightblue" stroke="midnightblue" points="778.17,-336.96 784.54,-345.42 784.83,-334.83 778.17,-336.96"/>
</g>
<!-- Node12&#45;&gt;Node17 -->
<g id="edge28" class="edge">
<title>Node12&#45;&gt;Node17</title>
<path fill="none" stroke="midnightblue" d="M760.71,-339.21C739.41,-323.53 711.76,-304.01 699,-298.5 635.14,-270.91 596.23,-313.63 546,-265.5 500.23,-221.65 554.76,-172.38 510,-127.5 501.46,-118.94 490.26,-113.32 478.64,-109.66"/>
<polygon fill="midnightblue" stroke="midnightblue" points="758.69,-342.07 768.81,-345.22 762.86,-336.45 758.69,-342.07"/>
</g>
<!-- Node12&#45;&gt;Node18 -->
<g id="edge30" class="edge">
<title>Node12&#45;&gt;Node18</title>
<path fill="none" stroke="midnightblue" d="M724.72,-348.61C663.26,-336.45 575.67,-316.79 546,-298.5 490.23,-264.13 445.74,-197.41 427.7,-167.56"/>
<polygon fill="midnightblue" stroke="midnightblue" points="724.25,-352.09 734.73,-350.57 725.59,-345.22 724.25,-352.09"/>
</g>
<!-- Node16 -->
<g id="node16" class="node">
<title>Node16</title>
<g id="a_node16"><a xlink:href="namespaceproblem__setup.html#a94bf8e7f89d392c05bd34dfd6a513675" target="_top" xlink:title=" ">
<polygon fill="none" stroke="black" points="357.5,-39.5 357.5,-69.5 478.5,-69.5 478.5,-39.5 357.5,-39.5"/>
<text text-anchor="start" x="365.5" y="-57.5" font-family="Arial" font-size="10.00">problem_setup.generate</text>
<text text-anchor="middle" x="418" y="-46.5" font-family="Arial" font-size="10.00">_particle_gmsh_input</text>
</a>
</g>
</g>
<!-- Node15&#45;&gt;Node16 -->
<g id="edge23" class="edge">
<title>Node15&#45;&gt;Node16</title>
<path fill="none" stroke="midnightblue" d="M551.8,-86.63C527.97,-80.87 501.55,-74.47 478.58,-68.92"/>
<polygon fill="midnightblue" stroke="midnightblue" points="551.3,-90.11 561.84,-89.06 552.94,-83.31 551.3,-90.11"/>
</g>
<!-- Node15&#45;&gt;Node17 -->
<g id="edge24" class="edge">
<title>Node15&#45;&gt;Node17</title>
<path fill="none" stroke="midnightblue" d="M551.8,-103.5C527.97,-103.5 501.55,-103.5 478.58,-103.5"/>
<polygon fill="midnightblue" stroke="midnightblue" points="551.84,-107 561.84,-103.5 551.84,-100 551.84,-107"/>
</g>
<!-- Node15&#45;&gt;Node18 -->
<g id="edge25" class="edge">
<title>Node15&#45;&gt;Node18</title>
<path fill="none" stroke="midnightblue" d="M552.1,-120.29C527.22,-126.31 499.49,-133.02 475.8,-138.76"/>
<polygon fill="midnightblue" stroke="midnightblue" points="552.94,-123.69 561.84,-117.94 551.3,-116.89 552.94,-123.69"/>
</g>
</g>
</svg>
