<?xml version="1.0" encoding="UTF-8" standalone="no"?>
<!DOCTYPE svg PUBLIC "-//W3C//DTD SVG 1.1//EN"
 "http://www.w3.org/Graphics/SVG/1.1/DTD/svg11.dtd">
<!-- Generated by graphviz version 2.43.0 (0)
 -->
<!-- Title: util::circumscribedRadiusInBox Pages: 1 -->
<svg width="446pt" height="374pt"
 viewBox="0.00 0.00 446.00 374.00" xmlns="http://www.w3.org/2000/svg" xmlns:xlink="http://www.w3.org/1999/xlink">
<g id="graph0" class="graph" transform="scale(1 1) rotate(0) translate(4 370)">
<title>util::circumscribedRadiusInBox</title>
<!-- Node1 -->
<g id="Node000001" class="node">
<title>Node1</title>
<g id="a_Node000001"><a xlink:title="Computes the radius of smallest circle/sphere which can have the box inside.">
<polygon fill="#999999" stroke="#666666" points="438,-155 311,-155 311,-125 438,-125 438,-155"/>
<text text-anchor="start" x="319" y="-143" font-family="Arial" font-size="10.00">util::circumscribedRadius</text>
<text text-anchor="middle" x="374.5" y="-132" font-family="Arial" font-size="10.00">InBox</text>
</a>
</g>
</g>
<!-- Node2 -->
<g id="Node000002" class="node">
<title>Node2</title>
<g id="a_Node000002"><a xlink:href="namespaceutil.html#a21a4c0c512c91e3de03f432d304dd4bd" target="_top" xlink:title="Checks if given two boxes are within given distance from each other.">
<polygon fill="white" stroke="#666666" points="267.5,-192.5 169.5,-192.5 169.5,-173.5 267.5,-173.5 267.5,-192.5"/>
<text text-anchor="middle" x="218.5" y="-180.5" font-family="Arial" font-size="10.00">util::areBoxesNear</text>
</a>
</g>
</g>
<!-- Node1&#45;&gt;Node2 -->
<g id="edge1_Node000001_Node000002" class="edge">
<title>Node1&#45;&gt;Node2</title>
<g id="a_edge1_Node000001_Node000002"><a xlink:title=" ">
<path fill="none" stroke="#63b8ff" d="M309.75,-157.8C290.59,-163.15 270.31,-168.81 253.83,-173.41"/>
<polygon fill="#63b8ff" stroke="#63b8ff" points="310.95,-161.1 319.64,-155.04 309.07,-154.36 310.95,-161.1"/>
</a>
</g>
</g>
<!-- Node11 -->
<g id="Node000011" class="node">
<title>Node11</title>
<g id="a_Node000011"><a xlink:href="classutil_1_1geometry_1_1Circle.html#a26974c271cfd557a362709cfadca18a4" target="_top" xlink:title="Checks if box is within given distance of this object.">
<polygon fill="white" stroke="#666666" points="272,-155 165,-155 165,-125 272,-125 272,-155"/>
<text text-anchor="start" x="173" y="-143" font-family="Arial" font-size="10.00">util::geometry::Circle</text>
<text text-anchor="middle" x="218.5" y="-132" font-family="Arial" font-size="10.00">::isNear</text>
</a>
</g>
</g>
<!-- Node1&#45;&gt;Node11 -->
<g id="edge10_Node000001_Node000011" class="edge">
<title>Node1&#45;&gt;Node11</title>
<g id="a_edge10_Node000001_Node000011"><a xlink:title=" ">
<path fill="none" stroke="#63b8ff" d="M300.86,-140C291.2,-140 281.46,-140 272.23,-140"/>
<polygon fill="#63b8ff" stroke="#63b8ff" points="300.86,-143.5 310.86,-140 300.86,-136.5 300.86,-143.5"/>
</a>
</g>
</g>
<!-- Node12 -->
<g id="Node000012" class="node">
<title>Node12</title>
<g id="a_Node000012"><a xlink:href="classutil_1_1geometry_1_1Sphere.html#af568776ec54d2ef7c99af31851ce0107" target="_top" xlink:title="Checks if box is within given distance of this object.">
<polygon fill="white" stroke="#666666" points="275,-107 162,-107 162,-77 275,-77 275,-107"/>
<text text-anchor="start" x="170" y="-95" font-family="Arial" font-size="10.00">util::geometry::Sphere</text>
<text text-anchor="middle" x="218.5" y="-84" font-family="Arial" font-size="10.00">::isNear</text>
</a>
</g>
</g>
<!-- Node1&#45;&gt;Node12 -->
<g id="edge11_Node000001_Node000012" class="edge">
<title>Node1&#45;&gt;Node12</title>
<g id="a_edge11_Node000001_Node000012"><a xlink:title=" ">
<path fill="none" stroke="#63b8ff" d="M315.54,-121.93C299.74,-117.01 282.81,-111.73 267.63,-107"/>
<polygon fill="#63b8ff" stroke="#63b8ff" points="314.61,-125.31 325.2,-124.94 316.69,-118.63 314.61,-125.31"/>
</a>
</g>
</g>
<!-- Node3 -->
<g id="Node000003" class="node">
<title>Node3</title>
<g id="a_Node000003"><a xlink:href="classutil_1_1geometry_1_1Triangle.html#a48ae3ed64cecfc395906a1bf68bf973d" target="_top" xlink:title="Checks if box is within given distance of this object.">
<polygon fill="white" stroke="#666666" points="121,-366 5,-366 5,-336 121,-336 121,-366"/>
<text text-anchor="start" x="13" y="-354" font-family="Arial" font-size="10.00">util::geometry::Triangle</text>
<text text-anchor="middle" x="63" y="-343" font-family="Arial" font-size="10.00">::isNear</text>
</a>
</g>
</g>
<!-- Node2&#45;&gt;Node3 -->
<g id="edge2_Node000002_Node000003" class="edge">
<title>Node2&#45;&gt;Node3</title>
<g id="a_edge2_Node000002_Node000003"><a xlink:title=" ">
<path fill="none" stroke="#63b8ff" d="M210.1,-201.98C197.34,-232.41 168.4,-292.21 126,-327 121.9,-330.37 117.26,-333.3 112.43,-335.84"/>
<polygon fill="#63b8ff" stroke="#63b8ff" points="213.42,-203.12 213.94,-192.53 206.93,-200.48 213.42,-203.12"/>
</a>
</g>
</g>
<!-- Node4 -->
<g id="Node000004" class="node">
<title>Node4</title>
<g id="a_Node000004"><a xlink:href="classutil_1_1geometry_1_1Square.html#aeca313e91b6ebde43320b3a620df7341" target="_top" xlink:title="Checks if box is within given distance of this object.">
<polygon fill="white" stroke="#666666" points="119.5,-318 6.5,-318 6.5,-288 119.5,-288 119.5,-318"/>
<text text-anchor="start" x="14.5" y="-306" font-family="Arial" font-size="10.00">util::geometry::Square</text>
<text text-anchor="middle" x="63" y="-295" font-family="Arial" font-size="10.00">::isNear</text>
</a>
</g>
</g>
<!-- Node2&#45;&gt;Node4 -->
<g id="edge3_Node000002_Node000004" class="edge">
<title>Node2&#45;&gt;Node4</title>
<g id="a_edge3_Node000002_Node000004"><a xlink:title=" ">
<path fill="none" stroke="#63b8ff" d="M204.65,-200.62C188.43,-221.79 158.66,-257.16 126,-279 121.01,-282.34 115.49,-285.31 109.86,-287.92"/>
<polygon fill="#63b8ff" stroke="#63b8ff" points="207.55,-202.6 210.75,-192.5 201.95,-198.4 207.55,-202.6"/>
</a>
</g>
</g>
<!-- Node5 -->
<g id="Node000005" class="node">
<title>Node5</title>
<g id="a_Node000005"><a xlink:href="classutil_1_1geometry_1_1Rectangle.html#ab9e5e172e1a2542eb606f211562892ac" target="_top" xlink:title="Checks if box is within given distance of this object.">
<polygon fill="white" stroke="#666666" points="126,-270 0,-270 0,-240 126,-240 126,-270"/>
<text text-anchor="start" x="8" y="-258" font-family="Arial" font-size="10.00">util::geometry::Rectangle</text>
<text text-anchor="middle" x="63" y="-247" font-family="Arial" font-size="10.00">::isNear</text>
</a>
</g>
</g>
<!-- Node2&#45;&gt;Node5 -->
<g id="edge4_Node000002_Node000005" class="edge">
<title>Node2&#45;&gt;Node5</title>
<g id="a_edge4_Node000002_Node000005"><a xlink:title=" ">
<path fill="none" stroke="#63b8ff" d="M191.78,-197.5C173.66,-207.46 148.67,-220.71 126,-231 119.27,-234.05 112.04,-237.08 104.96,-239.9"/>
<polygon fill="#63b8ff" stroke="#63b8ff" points="193.54,-200.52 200.59,-192.62 190.14,-194.4 193.54,-200.52"/>
</a>
</g>
</g>
<!-- Node6 -->
<g id="Node000006" class="node">
<title>Node6</title>
<g id="a_Node000006"><a xlink:href="classutil_1_1geometry_1_1Hexagon.html#a22113f305ef928c9bf09b0817a68ea8f" target="_top" xlink:title="Checks if box is within given distance of this object.">
<polygon fill="white" stroke="#666666" points="123.5,-222 2.5,-222 2.5,-192 123.5,-192 123.5,-222"/>
<text text-anchor="start" x="10.5" y="-210" font-family="Arial" font-size="10.00">util::geometry::Hexagon</text>
<text text-anchor="middle" x="63" y="-199" font-family="Arial" font-size="10.00">::isNear</text>
</a>
</g>
</g>
<!-- Node2&#45;&gt;Node6 -->
<g id="edge5_Node000002_Node000006" class="edge">
<title>Node2&#45;&gt;Node6</title>
<g id="a_edge5_Node000002_Node000006"><a xlink:title=" ">
<path fill="none" stroke="#63b8ff" d="M159.28,-192.1C147.6,-193.93 135.31,-195.85 123.59,-197.68"/>
<polygon fill="#63b8ff" stroke="#63b8ff" points="160.01,-195.53 169.35,-190.53 158.93,-188.61 160.01,-195.53"/>
</a>
</g>
</g>
<!-- Node7 -->
<g id="Node000007" class="node">
<title>Node7</title>
<g id="a_Node000007"><a xlink:href="classutil_1_1geometry_1_1Drum2D.html#a6b4a0ee14758e9354d6e3566e74edfc9" target="_top" xlink:title="Checks if box is within given distance of this object.">
<polygon fill="white" stroke="#666666" points="122.5,-174 3.5,-174 3.5,-144 122.5,-144 122.5,-174"/>
<text text-anchor="start" x="11.5" y="-162" font-family="Arial" font-size="10.00">util::geometry::Drum2D</text>
<text text-anchor="middle" x="63" y="-151" font-family="Arial" font-size="10.00">::isNear</text>
</a>
</g>
</g>
<!-- Node2&#45;&gt;Node7 -->
<g id="edge6_Node000002_Node000007" class="edge">
<title>Node2&#45;&gt;Node7</title>
<g id="a_edge6_Node000002_Node000007"><a xlink:title=" ">
<path fill="none" stroke="#63b8ff" d="M159.45,-173.92C147.45,-172.05 134.79,-170.07 122.76,-168.19"/>
<polygon fill="#63b8ff" stroke="#63b8ff" points="158.93,-177.39 169.35,-175.47 160.01,-170.47 158.93,-177.39"/>
</a>
</g>
</g>
<!-- Node8 -->
<g id="Node000008" class="node">
<title>Node8</title>
<g id="a_Node000008"><a xlink:href="classutil_1_1geometry_1_1Cube.html#aac5be48370823593083e6da438bdb962" target="_top" xlink:title="Checks if box is within given distance of this object.">
<polygon fill="white" stroke="#666666" points="115.5,-126 10.5,-126 10.5,-96 115.5,-96 115.5,-126"/>
<text text-anchor="start" x="18.5" y="-114" font-family="Arial" font-size="10.00">util::geometry::Cube</text>
<text text-anchor="middle" x="63" y="-103" font-family="Arial" font-size="10.00">::isNear</text>
</a>
</g>
</g>
<!-- Node2&#45;&gt;Node8 -->
<g id="edge7_Node000002_Node000008" class="edge">
<title>Node2&#45;&gt;Node8</title>
<g id="a_edge7_Node000002_Node000008"><a xlink:title=" ">
<path fill="none" stroke="#63b8ff" d="M173.9,-169.72C169.79,-167.98 165.76,-166.07 162,-164 144.01,-154.08 143.79,-145.28 126,-135 120.4,-131.77 114.29,-128.8 108.15,-126.14"/>
<polygon fill="#63b8ff" stroke="#63b8ff" points="172.94,-173.1 183.53,-173.47 175.48,-166.58 172.94,-173.1"/>
</a>
</g>
</g>
<!-- Node9 -->
<g id="Node000009" class="node">
<title>Node9</title>
<g id="a_Node000009"><a xlink:href="classutil_1_1geometry_1_1Cuboid.html#ac88433cc43e94f4f1a399ba8776e4986" target="_top" xlink:title="Checks if box is within given distance of this object.">
<polygon fill="white" stroke="#666666" points="119.5,-78 6.5,-78 6.5,-48 119.5,-48 119.5,-78"/>
<text text-anchor="start" x="14.5" y="-66" font-family="Arial" font-size="10.00">util::geometry::Cuboid</text>
<text text-anchor="middle" x="63" y="-55" font-family="Arial" font-size="10.00">::isNear</text>
</a>
</g>
</g>
<!-- Node2&#45;&gt;Node9 -->
<g id="edge8_Node000002_Node000009" class="edge">
<title>Node2&#45;&gt;Node9</title>
<g id="a_edge8_Node000002_Node000009"><a xlink:title=" ">
<path fill="none" stroke="#63b8ff" d="M167.64,-168.35C165.65,-167.02 163.75,-165.58 162,-164 133.89,-138.76 153.61,-112.79 126,-87 122.37,-83.61 118.22,-80.68 113.81,-78.16"/>
<polygon fill="#63b8ff" stroke="#63b8ff" points="166.41,-171.67 176.86,-173.44 169.79,-165.54 166.41,-171.67"/>
</a>
</g>
</g>
<!-- Node10 -->
<g id="Node000010" class="node">
<title>Node10</title>
<g id="a_Node000010"><a xlink:href="classutil_1_1geometry_1_1Cylinder.html#a5e2547782e3c159abff3977dd872a8cc" target="_top" xlink:title="Checks if box is within given distance of this object.">
<polygon fill="white" stroke="#666666" points="122,-30 4,-30 4,0 122,0 122,-30"/>
<text text-anchor="start" x="12" y="-18" font-family="Arial" font-size="10.00">util::geometry::Cylinder</text>
<text text-anchor="middle" x="63" y="-7" font-family="Arial" font-size="10.00">::isNear</text>
</a>
</g>
</g>
<!-- Node2&#45;&gt;Node10 -->
<g id="edge9_Node000002_Node000010" class="edge">
<title>Node2&#45;&gt;Node10</title>
<g id="a_edge9_Node000002_Node000010"><a xlink:title=" ">
<path fill="none" stroke="#63b8ff" d="M166.51,-168.07C164.91,-166.82 163.4,-165.47 162,-164 122.14,-122.12 165.02,-81.66 126,-39 122.88,-35.59 119.23,-32.67 115.28,-30.15"/>
<polygon fill="#63b8ff" stroke="#63b8ff" points="164.84,-171.15 175.17,-173.48 168.55,-165.21 164.84,-171.15"/>
</a>
</g>
</g>
</g>
</svg>
