<?xml version="1.0" encoding="UTF-8" standalone="no"?>
<!DOCTYPE svg PUBLIC "-//W3C//DTD SVG 1.1//EN"
 "http://www.w3.org/Graphics/SVG/1.1/DTD/svg11.dtd">
<!-- Generated by graphviz version 2.43.0 (0)
 -->
<!-- Title: util::io::isFileEmpty Pages: 1 -->
<svg width="261pt" height="137pt"
 viewBox="0.00 0.00 261.00 137.00" xmlns="http://www.w3.org/2000/svg" xmlns:xlink="http://www.w3.org/1999/xlink">
<g id="graph0" class="graph" transform="scale(1 1) rotate(0) translate(4 133)">
<title>util::io::isFileEmpty</title>
<!-- Node1 -->
<g id="node1" class="node">
<title>Node1</title>
<g id="a_node1"><a xlink:title="Check if file is empty or null.">
<polygon fill="#bfbfbf" stroke="black" points="152,-55 152,-74 253,-74 253,-55 152,-55"/>
<text text-anchor="middle" x="202.5" y="-62" font-family="Arial" font-size="10.00">util::io::isFileEmpty</text>
</a>
</g>
</g>
<!-- Node2 -->
<g id="node2" class="node">
<title>Node2</title>
<g id="a_node2"><a xlink:href="classrw_1_1reader_1_1MshReader.html#af9e66157e36e119739d86882a18e07ce" target="_top" xlink:title="Reads cell data, i.e. element&#45;node connectivity and node&#45;element connectivity.">
<polygon fill="none" stroke="black" points="0,-98.5 0,-128.5 116,-128.5 116,-98.5 0,-98.5"/>
<text text-anchor="start" x="8" y="-116.5" font-family="Arial" font-size="10.00">rw::reader::MshReader</text>
<text text-anchor="middle" x="58" y="-105.5" font-family="Arial" font-size="10.00">::readCells</text>
</a>
</g>
</g>
<!-- Node1&#45;&gt;Node2 -->
<g id="edge1" class="edge">
<title>Node1&#45;&gt;Node2</title>
<path fill="none" stroke="midnightblue" d="M163.99,-77.4C145.19,-83.86 122.32,-91.73 102.73,-98.46"/>
<polygon fill="midnightblue" stroke="midnightblue" points="165.37,-80.63 173.69,-74.06 163.09,-74.01 165.37,-80.63"/>
</g>
<!-- Node3 -->
<g id="node3" class="node">
<title>Node3</title>
<g id="a_node3"><a xlink:href="classrw_1_1reader_1_1MshReader.html#af0b340547fae1bcb1bb83feb14b101e6" target="_top" xlink:title="Reads mesh data into node file and element file.">
<polygon fill="none" stroke="black" points="0,-49.5 0,-79.5 116,-79.5 116,-49.5 0,-49.5"/>
<text text-anchor="start" x="8" y="-67.5" font-family="Arial" font-size="10.00">rw::reader::MshReader</text>
<text text-anchor="middle" x="58" y="-56.5" font-family="Arial" font-size="10.00">::readMesh</text>
</a>
</g>
</g>
<!-- Node1&#45;&gt;Node3 -->
<g id="edge2" class="edge">
<title>Node1&#45;&gt;Node3</title>
<path fill="none" stroke="midnightblue" d="M141.61,-64.5C133.25,-64.5 124.68,-64.5 116.38,-64.5"/>
<polygon fill="midnightblue" stroke="midnightblue" points="141.66,-68 151.66,-64.5 141.66,-61 141.66,-68"/>
</g>
<!-- Node4 -->
<g id="node4" class="node">
<title>Node4</title>
<g id="a_node4"><a xlink:href="classrw_1_1reader_1_1MshReader.html#aef54cac192a889ea1e927235290de551" target="_top" xlink:title="Reads nodal position.">
<polygon fill="none" stroke="black" points="0,-0.5 0,-30.5 116,-30.5 116,-0.5 0,-0.5"/>
<text text-anchor="start" x="8" y="-18.5" font-family="Arial" font-size="10.00">rw::reader::MshReader</text>
<text text-anchor="middle" x="58" y="-7.5" font-family="Arial" font-size="10.00">::readNodes</text>
</a>
</g>
</g>
<!-- Node1&#45;&gt;Node4 -->
<g id="edge3" class="edge">
<title>Node1&#45;&gt;Node4</title>
<path fill="none" stroke="midnightblue" d="M163.99,-51.6C145.19,-45.14 122.32,-37.27 102.73,-30.54"/>
<polygon fill="midnightblue" stroke="midnightblue" points="163.09,-54.99 173.69,-54.94 165.37,-48.37 163.09,-54.99"/>
</g>
</g>
</svg>
