<?xml version="1.0" encoding="UTF-8" standalone="no"?>
<!DOCTYPE svg PUBLIC "-//W3C//DTD SVG 1.1//EN"
 "http://www.w3.org/Graphics/SVG/1.1/DTD/svg11.dtd">
<!-- Generated by graphviz version 2.43.0 (0)
 -->
<!-- Title: test::getExactIntegrationRefTri Pages: 1 -->
<svg width="331pt" height="39pt"
 viewBox="0.00 0.00 331.00 39.00" xmlns="http://www.w3.org/2000/svg" xmlns:xlink="http://www.w3.org/1999/xlink">
<g id="graph0" class="graph" transform="scale(1 1) rotate(0) translate(4 35)">
<title>test::getExactIntegrationRefTri</title>
<!-- Node1 -->
<g id="node1" class="node">
<title>Node1</title>
<g id="a_node1"><a xlink:title="Computes integration of polynomial exactly over reference triangle.">
<polygon fill="#bfbfbf" stroke="black" points="199,-0.5 199,-30.5 323,-30.5 323,-0.5 199,-0.5"/>
<text text-anchor="start" x="207" y="-18.5" font-family="Arial" font-size="10.00">test::getExactIntegration</text>
<text text-anchor="middle" x="261" y="-7.5" font-family="Arial" font-size="10.00">RefTri</text>
</a>
</g>
</g>
<!-- Node2 -->
<g id="node2" class="node">
<title>Node2</title>
<g id="a_node2"><a xlink:href="namespacetest.html#af81978a4250caac290f7d52c1e571f04" target="_top" xlink:title="Perform test on quadrature points on triangle elements.">
<polygon fill="none" stroke="black" points="74,-6 74,-25 163,-25 163,-6 74,-6"/>
<text text-anchor="middle" x="118.5" y="-13" font-family="Arial" font-size="10.00">test::testTriElem</text>
</a>
</g>
</g>
<!-- Node1&#45;&gt;Node2 -->
<g id="edge1" class="edge">
<title>Node1&#45;&gt;Node2</title>
<path fill="none" stroke="midnightblue" d="M188.62,-15.5C179.95,-15.5 171.3,-15.5 163.2,-15.5"/>
<polygon fill="midnightblue" stroke="midnightblue" points="188.78,-19 198.78,-15.5 188.78,-12 188.78,-19"/>
</g>
<!-- Node3 -->
<g id="node3" class="node">
<title>Node3</title>
<g id="a_node3"><a xlink:href="testFe_8cpp.html#a0ddf1224851353fc92bfbff6f499fa97" target="_top" xlink:title=" ">
<polygon fill="none" stroke="black" points="0,-6 0,-25 38,-25 38,-6 0,-6"/>
<text text-anchor="middle" x="19" y="-13" font-family="Arial" font-size="10.00">main</text>
</a>
</g>
</g>
<!-- Node2&#45;&gt;Node3 -->
<g id="edge2" class="edge">
<title>Node2&#45;&gt;Node3</title>
<path fill="none" stroke="midnightblue" d="M63.83,-15.5C54.59,-15.5 45.59,-15.5 38.17,-15.5"/>
<polygon fill="midnightblue" stroke="midnightblue" points="63.88,-19 73.88,-15.5 63.88,-12 63.88,-19"/>
</g>
</g>
</svg>
