<?xml version="1.0" encoding="UTF-8" standalone="no"?>
<!DOCTYPE svg PUBLIC "-//W3C//DTD SVG 1.1//EN"
 "http://www.w3.org/Graphics/SVG/1.1/DTD/svg11.dtd">
<!-- Generated by graphviz version 2.43.0 (0)
 -->
<!-- Title: problem_setup.particle_locations Pages: 1 -->
<svg width="424pt" height="124pt"
 viewBox="0.00 0.00 424.00 124.00" xmlns="http://www.w3.org/2000/svg" xmlns:xlink="http://www.w3.org/1999/xlink">
<g id="graph0" class="graph" transform="scale(1 1) rotate(0) translate(4 120)">
<title>problem_setup.particle_locations</title>
<!-- Node1 -->
<g id="Node000001" class="node">
<title>Node1</title>
<g id="a_Node000001"><a xlink:title=" ">
<polygon fill="#999999" stroke="#666666" points="115,-73 0,-73 0,-43 115,-43 115,-73"/>
<text text-anchor="start" x="8" y="-61" font-family="Arial" font-size="10.00">problem_setup.particle</text>
<text text-anchor="middle" x="57.5" y="-50" font-family="Arial" font-size="10.00">_locations</text>
</a>
</g>
</g>
<!-- Node2 -->
<g id="Node000002" class="node">
<title>Node2</title>
<g id="a_Node000002"><a xlink:href="namespaceproblem__setup.html#ae38e0ace29264fd057dce856d44d6a6a" target="_top" xlink:title=" ">
<polygon fill="white" stroke="#666666" points="263.5,-116 159.5,-116 159.5,-86 263.5,-86 263.5,-116"/>
<text text-anchor="start" x="167.5" y="-104" font-family="Arial" font-size="10.00">problem_setup.does</text>
<text text-anchor="middle" x="211.5" y="-93" font-family="Arial" font-size="10.00">_intersect_rect</text>
</a>
</g>
</g>
<!-- Node1&#45;&gt;Node2 -->
<g id="edge1_Node000001_Node000002" class="edge">
<title>Node1&#45;&gt;Node2</title>
<g id="a_edge1_Node000001_Node000002"><a xlink:title=" ">
<path fill="none" stroke="#63b8ff" d="M111.66,-73.04C123.89,-76.5 136.99,-80.2 149.51,-83.75"/>
<polygon fill="#63b8ff" stroke="#63b8ff" points="148.84,-87.19 159.41,-86.55 150.74,-80.46 148.84,-87.19"/>
</a>
</g>
</g>
<!-- Node4 -->
<g id="Node000004" class="node">
<title>Node4</title>
<g id="a_Node000004"><a xlink:href="namespaceproblem__setup.html#a994bc08b964e2a925cf8160befb6d215" target="_top" xlink:title=" ">
<polygon fill="white" stroke="#666666" points="272,-67.5 151,-67.5 151,-48.5 272,-48.5 272,-67.5"/>
<text text-anchor="middle" x="211.5" y="-55.5" font-family="Arial" font-size="10.00">problem_setup.get_max</text>
</a>
</g>
</g>
<!-- Node1&#45;&gt;Node4 -->
<g id="edge3_Node000001_Node000004" class="edge">
<title>Node1&#45;&gt;Node4</title>
<g id="a_edge3_Node000001_Node000004"><a xlink:title=" ">
<path fill="none" stroke="#63b8ff" d="M115.1,-58C123.47,-58 132.18,-58 140.78,-58"/>
<polygon fill="#63b8ff" stroke="#63b8ff" points="140.8,-61.5 150.8,-58 140.8,-54.5 140.8,-61.5"/>
</a>
</g>
</g>
<!-- Node5 -->
<g id="Node000005" class="node">
<title>Node5</title>
<g id="a_Node000005"><a xlink:href="namespaceproblem__setup.html#afdb4a08aeffd3f2335ddf0cc8a0cad00" target="_top" xlink:title=" ">
<polygon fill="white" stroke="#666666" points="268,-30 155,-30 155,0 268,0 268,-30"/>
<text text-anchor="start" x="163" y="-18" font-family="Arial" font-size="10.00">problem_setup.get_ref</text>
<text text-anchor="middle" x="211.5" y="-7" font-family="Arial" font-size="10.00">_hex_points</text>
</a>
</g>
</g>
<!-- Node1&#45;&gt;Node5 -->
<g id="edge4_Node000001_Node000005" class="edge">
<title>Node1&#45;&gt;Node5</title>
<g id="a_edge4_Node000001_Node000005"><a xlink:title=" ">
<path fill="none" stroke="#63b8ff" d="M111.66,-42.96C123.23,-39.69 135.58,-36.19 147.49,-32.82"/>
<polygon fill="#63b8ff" stroke="#63b8ff" points="148.7,-36.12 157.37,-30.03 146.79,-29.39 148.7,-36.12"/>
</a>
</g>
</g>
<!-- Node3 -->
<g id="Node000003" class="node">
<title>Node3</title>
<g id="a_Node000003"><a xlink:href="namespaceproblem__setup.html#a985dacfd6be0ac3572b15624d629e2b7" target="_top" xlink:title=" ">
<polygon fill="white" stroke="#666666" points="416,-67.5 308,-67.5 308,-48.5 416,-48.5 416,-67.5"/>
<text text-anchor="middle" x="362" y="-55.5" font-family="Arial" font-size="10.00">problem_setup.rotate</text>
</a>
</g>
</g>
<!-- Node2&#45;&gt;Node3 -->
<g id="edge2_Node000002_Node000003" class="edge">
<title>Node2&#45;&gt;Node3</title>
<g id="a_edge2_Node000002_Node000003"><a xlink:title=" ">
<path fill="none" stroke="#63b8ff" d="M263.61,-86.2C281.42,-81.04 301.21,-75.31 318.27,-70.37"/>
<polygon fill="#63b8ff" stroke="#63b8ff" points="319.33,-73.71 327.97,-67.57 317.39,-66.99 319.33,-73.71"/>
</a>
</g>
</g>
<!-- Node5&#45;&gt;Node3 -->
<g id="edge5_Node000005_Node000003" class="edge">
<title>Node5&#45;&gt;Node3</title>
<g id="a_edge5_Node000005_Node000003"><a xlink:title=" ">
<path fill="none" stroke="#63b8ff" d="M264.44,-30.04C281.89,-35.09 301.16,-40.67 317.86,-45.51"/>
<polygon fill="#63b8ff" stroke="#63b8ff" points="317.31,-48.99 327.89,-48.41 319.26,-42.27 317.31,-48.99"/>
</a>
</g>
</g>
</g>
</svg>
