<?xml version="1.0" encoding="UTF-8" standalone="no"?>
<!DOCTYPE svg PUBLIC "-//W3C//DTD SVG 1.1//EN"
 "http://www.w3.org/Graphics/SVG/1.1/DTD/svg11.dtd">
<!-- Generated by graphviz version 2.43.0 (0)
 -->
<!-- Title: fe::metisGraphPartition Pages: 1 -->
<svg width="366pt" height="101pt"
 viewBox="0.00 0.00 366.00 101.00" xmlns="http://www.w3.org/2000/svg" xmlns:xlink="http://www.w3.org/1999/xlink">
<g id="graph0" class="graph" transform="scale(1 1) rotate(0) translate(4 97)">
<title>fe::metisGraphPartition</title>
<!-- Node1 -->
<g id="Node000001" class="node">
<title>Node1</title>
<g id="a_Node000001"><a xlink:title="Partitions the nodes based on node neighborlist supplied. Function first creates a graph with nodes a...">
<polygon fill="#999999" stroke="#666666" points="358,-56 241,-56 241,-37 358,-37 358,-56"/>
<text text-anchor="middle" x="299.5" y="-44" font-family="Arial" font-size="10.00">fe::metisGraphPartition</text>
</a>
</g>
</g>
<!-- Node2 -->
<g id="Node000002" class="node">
<title>Node2</title>
<g id="a_Node000002"><a xlink:href="namespacefe.html#a5abc576787f51dd3d0322b4d435ccac9" target="_top" xlink:title="Partitions the nodes based on node neighborlist supplied. Function first creates a graph with nodes a...">
<polygon fill="white" stroke="#666666" points="198,-93 81,-93 81,-74 198,-74 198,-93"/>
<text text-anchor="middle" x="139.5" y="-81" font-family="Arial" font-size="10.00">fe::metisGraphPartition</text>
</a>
</g>
</g>
<!-- Node1&#45;&gt;Node2 -->
<g id="edge1_Node000001_Node000002" class="edge">
<title>Node1&#45;&gt;Node2</title>
<g id="a_edge1_Node000001_Node000002"><a xlink:title=" ">
<path fill="none" stroke="#63b8ff" d="M247.87,-58.36C226.37,-63.39 201.63,-69.18 181.33,-73.94"/>
<polygon fill="#63b8ff" stroke="#63b8ff" points="248.87,-61.72 257.81,-56.03 247.28,-54.9 248.87,-61.72"/>
</a>
</g>
</g>
<!-- Node3 -->
<g id="Node000003" class="node">
<title>Node3</title>
<g id="a_Node000003"><a xlink:href="namespacetest.html#a6934db7b63923b70a56ab8e9c7159202" target="_top" xlink:title="Tests metis partitioning of graph from a 2&#45;D mesh with nonlocal interaction.">
<polygon fill="white" stroke="#666666" points="205,-56 74,-56 74,-37 205,-37 205,-56"/>
<text text-anchor="middle" x="139.5" y="-44" font-family="Arial" font-size="10.00">test::testGraphPartitioning</text>
</a>
</g>
</g>
<!-- Node1&#45;&gt;Node3 -->
<g id="edge2_Node000001_Node000003" class="edge">
<title>Node1&#45;&gt;Node3</title>
<g id="a_edge2_Node000001_Node000003"><a xlink:title=" ">
<path fill="none" stroke="#63b8ff" d="M230.42,-46.5C222.02,-46.5 213.45,-46.5 205.1,-46.5"/>
<polygon fill="#63b8ff" stroke="#63b8ff" points="230.56,-50 240.56,-46.5 230.56,-43 230.56,-50"/>
</a>
</g>
</g>
<!-- Node5 -->
<g id="Node000005" class="node">
<title>Node5</title>
<g id="a_Node000005"><a xlink:href="namespacetest.html#af0964e1ea010ded3d98df70e7d5326ca" target="_top" xlink:title="Perform parallelization test using MPI on mesh partition based on metis.">
<polygon fill="white" stroke="#666666" points="176.5,-19 102.5,-19 102.5,0 176.5,0 176.5,-19"/>
<text text-anchor="middle" x="139.5" y="-7" font-family="Arial" font-size="10.00">test::testMPI</text>
</a>
</g>
</g>
<!-- Node1&#45;&gt;Node5 -->
<g id="edge4_Node000001_Node000005" class="edge">
<title>Node1&#45;&gt;Node5</title>
<g id="a_edge4_Node000001_Node000005"><a xlink:title=" ">
<path fill="none" stroke="#63b8ff" d="M247.82,-34.63C224.68,-29.21 197.81,-22.92 176.74,-17.99"/>
<polygon fill="#63b8ff" stroke="#63b8ff" points="247.28,-38.1 257.81,-36.97 248.87,-31.28 247.28,-38.1"/>
</a>
</g>
</g>
<!-- Node4 -->
<g id="Node000004" class="node">
<title>Node4</title>
<g id="a_Node000004"><a xlink:href="testMeshPartitioning_8cpp.html#a0ddf1224851353fc92bfbff6f499fa97" target="_top" xlink:title=" ">
<polygon fill="white" stroke="#666666" points="38,-56 0,-56 0,-37 38,-37 38,-56"/>
<text text-anchor="middle" x="19" y="-44" font-family="Arial" font-size="10.00">main</text>
</a>
</g>
</g>
<!-- Node3&#45;&gt;Node4 -->
<g id="edge3_Node000003_Node000004" class="edge">
<title>Node3&#45;&gt;Node4</title>
<g id="a_edge3_Node000003_Node000004"><a xlink:title=" ">
<path fill="none" stroke="#63b8ff" d="M63.49,-46.5C54.24,-46.5 45.54,-46.5 38.39,-46.5"/>
<polygon fill="#63b8ff" stroke="#63b8ff" points="63.7,-50 73.7,-46.5 63.7,-43 63.7,-50"/>
</a>
</g>
</g>
<!-- Node6 -->
<g id="Node000006" class="node">
<title>Node6</title>
<g id="a_Node000006"><a xlink:href="testParallelComp_8cpp.html#a0ddf1224851353fc92bfbff6f499fa97" target="_top" xlink:title=" ">
<polygon fill="white" stroke="#666666" points="38,-19 0,-19 0,0 38,0 38,-19"/>
<text text-anchor="middle" x="19" y="-7" font-family="Arial" font-size="10.00">main</text>
</a>
</g>
</g>
<!-- Node5&#45;&gt;Node6 -->
<g id="edge5_Node000005_Node000006" class="edge">
<title>Node5&#45;&gt;Node6</title>
<g id="a_edge5_Node000005_Node000006"><a xlink:title=" ">
<path fill="none" stroke="#63b8ff" d="M92.06,-9.5C73.18,-9.5 52.49,-9.5 38.14,-9.5"/>
<polygon fill="#63b8ff" stroke="#63b8ff" points="92.3,-13 102.3,-9.5 92.3,-6 92.3,-13"/>
</a>
</g>
</g>
</g>
</svg>
