<?xml version="1.0" encoding="UTF-8" standalone="no"?>
<!DOCTYPE svg PUBLIC "-//W3C//DTD SVG 1.1//EN"
 "http://www.w3.org/Graphics/SVG/1.1/DTD/svg11.dtd">
<!-- Generated by graphviz version 2.43.0 (0)
 -->
<!-- Title: problem_setup.generate_wall_gmsh_input Pages: 1 -->
<svg width="951pt" height="586pt"
 viewBox="0.00 0.00 951.00 585.50" xmlns="http://www.w3.org/2000/svg" xmlns:xlink="http://www.w3.org/1999/xlink">
<g id="graph0" class="graph" transform="scale(1 1) rotate(0) translate(4 581.5)">
<title>problem_setup.generate_wall_gmsh_input</title>
<!-- Node1 -->
<g id="node1" class="node">
<title>Node1</title>
<g id="a_node1"><a xlink:title=" ">
<polygon fill="#bfbfbf" stroke="black" points="0,-241 0,-271 121,-271 121,-241 0,-241"/>
<text text-anchor="start" x="8" y="-259" font-family="Arial" font-size="10.00">problem_setup.generate</text>
<text text-anchor="middle" x="60.5" y="-248" font-family="Arial" font-size="10.00">_wall_gmsh_input</text>
</a>
</g>
</g>
<!-- Node2 -->
<g id="node2" class="node">
<title>Node2</title>
<g id="a_node2"><a xlink:href="namespaceproblem__setup.html#a64e067098e447f766d042476ef5abe85" target="_top" xlink:title=" ">
<polygon fill="none" stroke="black" points="314,-263 314,-293 424,-293 424,-263 314,-263"/>
<text text-anchor="start" x="322" y="-281" font-family="Arial" font-size="10.00">problem_setup.create</text>
<text text-anchor="middle" x="369" y="-270" font-family="Arial" font-size="10.00">_input_file</text>
</a>
</g>
</g>
<!-- Node1&#45;&gt;Node2 -->
<g id="edge1" class="edge">
<title>Node1&#45;&gt;Node2</title>
<path fill="none" stroke="midnightblue" d="M121.32,-260.29C173.86,-264.07 250.08,-269.54 303.87,-273.4"/>
<polygon fill="midnightblue" stroke="midnightblue" points="303.75,-276.9 313.97,-274.12 304.25,-269.92 303.75,-276.9"/>
</g>
<!-- Node9 -->
<g id="node9" class="node">
<title>Node9</title>
<g id="a_node9"><a xlink:href="namespaceproblem__setup.html#ad281d5f1d41eee4b1a595ede1aff337c" target="_top" xlink:title=" ">
<polygon fill="none" stroke="black" points="472.5,-498 472.5,-528 593.5,-528 593.5,-498 472.5,-498"/>
<text text-anchor="start" x="480.5" y="-516" font-family="Arial" font-size="10.00">problem_setup.generate</text>
<text text-anchor="middle" x="533" y="-505" font-family="Arial" font-size="10.00">_wall_gmsh_input</text>
</a>
</g>
</g>
<!-- Node1&#45;&gt;Node9 -->
<g id="edge29" class="edge">
<title>Node1&#45;&gt;Node9</title>
<path fill="none" stroke="midnightblue" d="M73.33,-271.34C90.1,-292.25 122.57,-329.86 157,-354 255.97,-423.4 389.97,-471.01 468.09,-494.99"/>
<polygon fill="midnightblue" stroke="midnightblue" points="467.21,-498.38 477.8,-497.93 469.25,-491.68 467.21,-498.38"/>
</g>
<!-- Node10 -->
<g id="node10" class="node">
<title>Node10</title>
<g id="a_node10"><a xlink:href="namespaceproblem__setup.html#af977354e61703cd925c2511fd3ca0858" target="_top" xlink:title=" ">
<polygon fill="none" stroke="black" points="478.5,-459.5 478.5,-478.5 587.5,-478.5 587.5,-459.5 478.5,-459.5"/>
<text text-anchor="middle" x="533" y="-466.5" font-family="Arial" font-size="10.00">problem_setup.get_E</text>
</a>
</g>
</g>
<!-- Node1&#45;&gt;Node10 -->
<g id="edge30" class="edge">
<title>Node1&#45;&gt;Node10</title>
<path fill="none" stroke="midnightblue" d="M87.76,-271.03C150.41,-306.39 314.29,-395.9 460,-450 466.43,-452.39 473.29,-454.6 480.13,-456.61"/>
<polygon fill="midnightblue" stroke="midnightblue" points="479.49,-460.07 490.07,-459.41 481.39,-453.33 479.49,-460.07"/>
</g>
<!-- Node11 -->
<g id="node11" class="node">
<title>Node11</title>
<g id="a_node11"><a xlink:href="namespaceproblem__setup.html#a564e6017e037399c311be8b31653e45d" target="_top" xlink:title=" ">
<polygon fill="none" stroke="black" points="471.5,-38.5 471.5,-57.5 594.5,-57.5 594.5,-38.5 471.5,-38.5"/>
<text text-anchor="middle" x="533" y="-45.5" font-family="Arial" font-size="10.00">problem_setup.get_eff_k</text>
</a>
</g>
</g>
<!-- Node1&#45;&gt;Node11 -->
<g id="edge31" class="edge">
<title>Node1&#45;&gt;Node11</title>
<path fill="none" stroke="midnightblue" d="M73.46,-240.75C90.12,-220.47 122.21,-184.77 157,-164 254.01,-106.07 382.67,-74.52 461.28,-59.48"/>
<polygon fill="midnightblue" stroke="midnightblue" points="462.38,-62.84 471.56,-57.55 461.09,-55.96 462.38,-62.84"/>
</g>
<!-- Node12 -->
<g id="node12" class="node">
<title>Node12</title>
<g id="a_node12"><a xlink:href="namespaceproblem__setup.html#adc274a492cfb30270617c3c66d64c6c4" target="_top" xlink:title=" ">
<polygon fill="none" stroke="black" points="478,-0.5 478,-19.5 588,-19.5 588,-0.5 478,-0.5"/>
<text text-anchor="middle" x="533" y="-7.5" font-family="Arial" font-size="10.00">problem_setup.get_G</text>
</a>
</g>
</g>
<!-- Node1&#45;&gt;Node12 -->
<g id="edge32" class="edge">
<title>Node1&#45;&gt;Node12</title>
<path fill="none" stroke="midnightblue" d="M66.9,-240.55C78.4,-209.93 108.34,-141.45 157,-106 250.44,-37.92 387.63,-17.99 467.58,-12.24"/>
<polygon fill="midnightblue" stroke="midnightblue" points="468.25,-15.7 478,-11.54 467.79,-8.72 468.25,-15.7"/>
</g>
<!-- Node22 -->
<g id="node19" class="node">
<title>Node22</title>
<g id="a_node19"><a xlink:href="namespaceproblem__setup.html#a9ce710367bd7258e6dd619e9ec930b36" target="_top" xlink:title=" ">
<polygon fill="none" stroke="black" points="482,-77 482,-107 584,-107 584,-77 482,-77"/>
<text text-anchor="start" x="490" y="-95" font-family="Arial" font-size="10.00">problem_setup.print</text>
<text text-anchor="middle" x="533" y="-84" font-family="Arial" font-size="10.00">_dbl_list</text>
</a>
</g>
</g>
<!-- Node1&#45;&gt;Node22 -->
<g id="edge36" class="edge">
<title>Node1&#45;&gt;Node22</title>
<path fill="none" stroke="midnightblue" d="M90.27,-240.8C108.98,-231.25 134.07,-219.08 157,-210 265.87,-166.91 397.22,-128.58 472.04,-107.98"/>
<polygon fill="midnightblue" stroke="midnightblue" points="473.05,-111.34 481.77,-105.32 471.2,-104.59 473.05,-111.34"/>
</g>
<!-- Node25 -->
<g id="node22" class="node">
<title>Node25</title>
<g id="a_node22"><a xlink:href="namespaceproblem__setup.html#a147f310ff74124342d15ab356739883f" target="_top" xlink:title=" ">
<polygon fill="none" stroke="black" points="157,-219 157,-249 278,-249 278,-219 157,-219"/>
<text text-anchor="start" x="165" y="-237" font-family="Arial" font-size="10.00">problem_setup.generate</text>
<text text-anchor="middle" x="217.5" y="-226" font-family="Arial" font-size="10.00">_particle_gmsh_input</text>
</a>
</g>
</g>
<!-- Node1&#45;&gt;Node25 -->
<g id="edge22" class="edge">
<title>Node1&#45;&gt;Node25</title>
<path fill="none" stroke="midnightblue" d="M121.43,-247.49C129.82,-246.3 138.49,-245.07 147.04,-243.86"/>
<polygon fill="midnightblue" stroke="midnightblue" points="147.58,-247.32 156.99,-242.45 146.6,-240.39 147.58,-247.32"/>
</g>
<!-- Node26 -->
<g id="node23" class="node">
<title>Node26</title>
<g id="a_node23"><a xlink:href="namespaceproblem__setup.html#a2b643803a88f4dba1de3a039bcf58fe2" target="_top" xlink:title=" ">
<polygon fill="none" stroke="black" points="475.5,-547 475.5,-577 590.5,-577 590.5,-547 475.5,-547"/>
<text text-anchor="start" x="483.5" y="-565" font-family="Arial" font-size="10.00">problem_setup.particle</text>
<text text-anchor="middle" x="533" y="-554" font-family="Arial" font-size="10.00">_locations_orient</text>
</a>
</g>
</g>
<!-- Node1&#45;&gt;Node26 -->
<g id="edge33" class="edge">
<title>Node1&#45;&gt;Node26</title>
<path fill="none" stroke="midnightblue" d="M67.98,-271.14C80.99,-299.94 112.85,-363.11 157,-401 248.78,-479.76 384.89,-525.07 465.41,-546.52"/>
<polygon fill="midnightblue" stroke="midnightblue" points="464.87,-550 475.43,-549.14 466.64,-543.22 464.87,-550"/>
</g>
<!-- Node3 -->
<g id="node3" class="node">
<title>Node3</title>
<g id="a_node3"><a xlink:href="namespaceproblem__setup.html#a2deb4dabdc948f0b2b009c3576518ade" target="_top" xlink:title=" ">
<polygon fill="none" stroke="black" points="470.5,-263 470.5,-293 595.5,-293 595.5,-263 470.5,-263"/>
<text text-anchor="start" x="478.5" y="-281" font-family="Arial" font-size="10.00">problem_setup.generate</text>
<text text-anchor="middle" x="533" y="-270" font-family="Arial" font-size="10.00">_cir_particle_gmsh_input</text>
</a>
</g>
</g>
<!-- Node2&#45;&gt;Node3 -->
<g id="edge2" class="edge">
<title>Node2&#45;&gt;Node3</title>
<path fill="none" stroke="midnightblue" d="M424.39,-278C435.96,-278 448.33,-278 460.42,-278"/>
<polygon fill="midnightblue" stroke="midnightblue" points="460.49,-281.5 470.49,-278 460.49,-274.5 460.49,-281.5"/>
</g>
<!-- Node4 -->
<g id="node4" class="node">
<title>Node4</title>
<g id="a_node4"><a xlink:href="namespaceproblem__setup.html#ae83c0d80c0947e65b98e4a2da0c07601" target="_top" xlink:title=" ">
<polygon fill="none" stroke="black" points="460,-361 460,-391 606,-391 606,-361 460,-361"/>
<text text-anchor="start" x="468" y="-379" font-family="Arial" font-size="10.00">problem_setup.generate</text>
<text text-anchor="middle" x="533" y="-368" font-family="Arial" font-size="10.00">_drum2d_particle_gmsh_input</text>
</a>
</g>
</g>
<!-- Node2&#45;&gt;Node4 -->
<g id="edge3" class="edge">
<title>Node2&#45;&gt;Node4</title>
<path fill="none" stroke="midnightblue" d="M384.96,-293.28C401.84,-309.78 430.79,-335.85 460,-352 463.09,-353.71 466.33,-355.32 469.64,-356.84"/>
<polygon fill="midnightblue" stroke="midnightblue" points="468.56,-360.19 479.13,-360.88 471.3,-353.75 468.56,-360.19"/>
</g>
<!-- Node7 -->
<g id="node7" class="node">
<title>Node7</title>
<g id="a_node7"><a xlink:href="namespaceproblem__setup.html#a541e6c5ea41e139ea1eca83975753fbb" target="_top" xlink:title=" ">
<polygon fill="none" stroke="black" points="472,-312 472,-342 594,-342 594,-312 472,-312"/>
<text text-anchor="start" x="480" y="-330" font-family="Arial" font-size="10.00">problem_setup.generate</text>
<text text-anchor="middle" x="533" y="-319" font-family="Arial" font-size="10.00">_tri_particle_gmsh_input</text>
</a>
</g>
</g>
<!-- Node2&#45;&gt;Node7 -->
<g id="edge6" class="edge">
<title>Node2&#45;&gt;Node7</title>
<path fill="none" stroke="midnightblue" d="M419.93,-293.1C436.48,-298.11 455.07,-303.73 472.29,-308.94"/>
<polygon fill="midnightblue" stroke="midnightblue" points="471.65,-312.4 482.24,-311.95 473.68,-305.7 471.65,-312.4"/>
</g>
<!-- Node2&#45;&gt;Node9 -->
<g id="edge8" class="edge">
<title>Node2&#45;&gt;Node9</title>
<path fill="none" stroke="midnightblue" d="M374.72,-293.15C388.49,-336.49 429.53,-459.61 460,-488 461.69,-489.58 463.49,-491.05 465.36,-492.44"/>
<polygon fill="midnightblue" stroke="midnightblue" points="463.73,-495.55 474.06,-497.93 467.48,-489.63 463.73,-495.55"/>
</g>
<!-- Node2&#45;&gt;Node10 -->
<g id="edge9" class="edge">
<title>Node2&#45;&gt;Node10</title>
<path fill="none" stroke="midnightblue" d="M386.66,-293.14C398.51,-304.7 414.04,-321.56 424,-339 449.73,-384.03 422.32,-414.36 460,-450 462.79,-452.64 465.91,-454.93 469.24,-456.9"/>
<polygon fill="midnightblue" stroke="midnightblue" points="467.94,-460.17 478.46,-461.44 471.03,-453.88 467.94,-460.17"/>
</g>
<!-- Node2&#45;&gt;Node11 -->
<g id="edge10" class="edge">
<title>Node2&#45;&gt;Node11</title>
<path fill="none" stroke="midnightblue" d="M378.56,-262.87C389.84,-242.59 409.9,-205.28 424,-172 443.24,-126.58 423.88,-100.6 460,-67 461.69,-65.43 463.5,-63.98 465.4,-62.65"/>
<polygon fill="midnightblue" stroke="midnightblue" points="467.32,-65.58 474.22,-57.54 463.81,-59.52 467.32,-65.58"/>
</g>
<!-- Node2&#45;&gt;Node12 -->
<g id="edge11" class="edge">
<title>Node2&#45;&gt;Node12</title>
<path fill="none" stroke="midnightblue" d="M374.56,-262.89C390.2,-211.5 441.69,-45.76 460,-29 462.66,-26.57 465.59,-24.44 468.7,-22.58"/>
<polygon fill="midnightblue" stroke="midnightblue" points="470.48,-25.61 477.88,-18.02 467.37,-19.34 470.48,-25.61"/>
</g>
<!-- Node13 -->
<g id="node13" class="node">
<title>Node13</title>
<g id="a_node13"><a xlink:href="namespaceproblem__setup.html#a662426f1cd2c0857864b28e98daa4d5a" target="_top" xlink:title=" ">
<polygon fill="none" stroke="black" points="475.5,-126 475.5,-156 590.5,-156 590.5,-126 475.5,-126"/>
<text text-anchor="start" x="483.5" y="-144" font-family="Arial" font-size="10.00">problem_setup.particle</text>
<text text-anchor="middle" x="533" y="-133" font-family="Arial" font-size="10.00">_locations</text>
</a>
</g>
</g>
<!-- Node2&#45;&gt;Node13 -->
<g id="edge12" class="edge">
<title>Node2&#45;&gt;Node13</title>
<path fill="none" stroke="midnightblue" d="M404.97,-262.97C411.89,-258.85 418.66,-253.87 424,-248 450.8,-218.57 430.76,-193 460,-166 461.96,-164.19 464.05,-162.52 466.25,-160.96"/>
<polygon fill="midnightblue" stroke="midnightblue" points="468.44,-163.72 475.17,-155.53 464.8,-157.74 468.44,-163.72"/>
</g>
<!-- Node16 -->
<g id="node16" class="node">
<title>Node16</title>
<g id="a_node16"><a xlink:href="namespaceutil_1_1io.html#a578a578ce41389fb01e56de7316b7054" target="_top" xlink:title="Prints formatted information.">
<polygon fill="none" stroke="black" points="685,-197.5 685,-216.5 753,-216.5 753,-197.5 685,-197.5"/>
<text text-anchor="middle" x="719" y="-204.5" font-family="Arial" font-size="10.00">util::io::print</text>
</a>
</g>
</g>
<!-- Node2&#45;&gt;Node16 -->
<g id="edge18" class="edge">
<title>Node2&#45;&gt;Node16</title>
<path fill="none" stroke="midnightblue" d="M423.6,-262.95C435.54,-259.81 448.17,-256.65 460,-254 535.02,-237.19 623.33,-222.11 674.75,-213.79"/>
<polygon fill="midnightblue" stroke="midnightblue" points="675.52,-217.21 684.84,-212.16 674.41,-210.3 675.52,-217.21"/>
</g>
<!-- Node2&#45;&gt;Node22 -->
<g id="edge19" class="edge">
<title>Node2&#45;&gt;Node22</title>
<path fill="none" stroke="midnightblue" d="M384.33,-262.77C396.15,-249.59 412.76,-229.62 424,-210 446.03,-171.54 428.11,-147.79 460,-117 463.77,-113.36 468.1,-110.25 472.72,-107.59"/>
<polygon fill="midnightblue" stroke="midnightblue" points="474.51,-110.6 481.9,-103.01 471.39,-104.34 474.51,-110.6"/>
</g>
<!-- Node23 -->
<g id="node20" class="node">
<title>Node23</title>
<g id="a_node20"><a xlink:href="namespaceproblem__setup.html#ad4d4b3139613a4ea00dadf8eb7c60a88" target="_top" xlink:title=" ">
<polygon fill="none" stroke="black" points="481,-175 481,-205 585,-205 585,-175 481,-175"/>
<text text-anchor="start" x="489" y="-193" font-family="Arial" font-size="10.00">problem_setup.write</text>
<text text-anchor="middle" x="533" y="-182" font-family="Arial" font-size="10.00">_contact_zone_part</text>
</a>
</g>
</g>
<!-- Node2&#45;&gt;Node23 -->
<g id="edge20" class="edge">
<title>Node2&#45;&gt;Node23</title>
<path fill="none" stroke="midnightblue" d="M399.07,-262.92C407.29,-258.38 416.13,-253.2 424,-248 440.91,-236.82 442.49,-230.21 460,-220 466.51,-216.2 473.6,-212.64 480.7,-209.38"/>
<polygon fill="midnightblue" stroke="midnightblue" points="482.6,-212.37 490.35,-205.14 479.78,-205.96 482.6,-212.37"/>
</g>
<!-- Node24 -->
<g id="node21" class="node">
<title>Node24</title>
<g id="a_node21"><a xlink:href="namespaceproblem__setup.html#a3b2a9fc19652f44b774b4bb9a8221265" target="_top" xlink:title=" ">
<polygon fill="none" stroke="black" points="481,-410 481,-440 585,-440 585,-410 481,-410"/>
<text text-anchor="start" x="489" y="-428" font-family="Arial" font-size="10.00">problem_setup.write</text>
<text text-anchor="middle" x="533" y="-417" font-family="Arial" font-size="10.00">_material_zone_part</text>
</a>
</g>
</g>
<!-- Node2&#45;&gt;Node24 -->
<g id="edge21" class="edge">
<title>Node2&#45;&gt;Node24</title>
<path fill="none" stroke="midnightblue" d="M385.12,-293.33C396.48,-305.25 412.08,-322.49 424,-339 442.65,-364.83 435.29,-380.88 460,-401 463.54,-403.89 467.45,-406.43 471.55,-408.67"/>
<polygon fill="midnightblue" stroke="midnightblue" points="470.26,-411.93 480.79,-413.11 473.3,-405.63 470.26,-411.93"/>
</g>
<!-- Node5 -->
<g id="node5" class="node">
<title>Node5</title>
<g id="a_node5"><a xlink:href="namespaceproblem__setup.html#a700be09e5b12da02f5d11c0d21cf5d5b" target="_top" xlink:title=" ">
<polygon fill="none" stroke="black" points="662.5,-503 662.5,-533 775.5,-533 775.5,-503 662.5,-503"/>
<text text-anchor="start" x="670.5" y="-521" font-family="Arial" font-size="10.00">problem_setup.get_ref</text>
<text text-anchor="middle" x="719" y="-510" font-family="Arial" font-size="10.00">_drum_points</text>
</a>
</g>
</g>
<!-- Node4&#45;&gt;Node5 -->
<g id="edge4" class="edge">
<title>Node4&#45;&gt;Node5</title>
<path fill="none" stroke="midnightblue" d="M586.89,-391.08C593.55,-393.92 600.1,-397.21 606,-401 645.54,-426.39 681.18,-468.48 701.17,-494.66"/>
<polygon fill="midnightblue" stroke="midnightblue" points="698.53,-496.98 707.33,-502.88 704.13,-492.78 698.53,-496.98"/>
</g>
<!-- Node6 -->
<g id="node6" class="node">
<title>Node6</title>
<g id="a_node6"><a xlink:href="namespaceproblem__setup.html#a192b6d085d04429814f30104aeb18493" target="_top" xlink:title=" ">
<polygon fill="none" stroke="black" points="833.5,-530.5 833.5,-549.5 941.5,-549.5 941.5,-530.5 833.5,-530.5"/>
<text text-anchor="middle" x="887.5" y="-537.5" font-family="Arial" font-size="10.00">problem_setup.rotate</text>
</a>
</g>
</g>
<!-- Node5&#45;&gt;Node6 -->
<g id="edge5" class="edge">
<title>Node5&#45;&gt;Node6</title>
<path fill="none" stroke="midnightblue" d="M775.91,-525.39C791.09,-527.39 807.65,-529.58 823.22,-531.64"/>
<polygon fill="midnightblue" stroke="midnightblue" points="822.91,-535.13 833.28,-532.97 823.82,-528.19 822.91,-535.13"/>
</g>
<!-- Node8 -->
<g id="node8" class="node">
<title>Node8</title>
<g id="a_node8"><a xlink:href="namespaceproblem__setup.html#ac4731e8b5a85713f528c4c79651768ac" target="_top" xlink:title=" ">
<polygon fill="none" stroke="black" points="662.5,-312 662.5,-342 775.5,-342 775.5,-312 662.5,-312"/>
<text text-anchor="start" x="670.5" y="-330" font-family="Arial" font-size="10.00">problem_setup.get_ref</text>
<text text-anchor="middle" x="719" y="-319" font-family="Arial" font-size="10.00">_triangle_points</text>
</a>
</g>
</g>
<!-- Node7&#45;&gt;Node8 -->
<g id="edge7" class="edge">
<title>Node7&#45;&gt;Node8</title>
<path fill="none" stroke="midnightblue" d="M594.25,-327C612.82,-327 633.35,-327 652.27,-327"/>
<polygon fill="midnightblue" stroke="midnightblue" points="652.29,-330.5 662.29,-327 652.29,-323.5 652.29,-330.5"/>
</g>
<!-- Node14 -->
<g id="node14" class="node">
<title>Node14</title>
<g id="a_node14"><a xlink:href="namespaceproblem__setup.html#a49682af72cdc7bca4f282619eb559d90" target="_top" xlink:title=" ">
<polygon fill="none" stroke="black" points="642,-96 642,-126 796,-126 796,-96 642,-96"/>
<text text-anchor="start" x="650" y="-114" font-family="Arial" font-size="10.00">problem_setup.does</text>
<text text-anchor="middle" x="719" y="-103" font-family="Arial" font-size="10.00">_intersect_with_cylindrical_wall</text>
</a>
</g>
</g>
<!-- Node13&#45;&gt;Node14 -->
<g id="edge13" class="edge">
<title>Node13&#45;&gt;Node14</title>
<path fill="none" stroke="midnightblue" d="M590.71,-131.75C603.71,-129.63 617.82,-127.33 631.75,-125.06"/>
<polygon fill="midnightblue" stroke="midnightblue" points="632.54,-128.48 641.84,-123.42 631.41,-121.57 632.54,-128.48"/>
</g>
<!-- Node15 -->
<g id="node15" class="node">
<title>Node15</title>
<g id="a_node15"><a xlink:href="namespaceproblem__setup.html#aa39e6862e38920798278f55a2578a6ef" target="_top" xlink:title=" ">
<polygon fill="none" stroke="black" points="658.5,-145.5 658.5,-164.5 779.5,-164.5 779.5,-145.5 658.5,-145.5"/>
<text text-anchor="middle" x="719" y="-152.5" font-family="Arial" font-size="10.00">problem_setup.get_max</text>
</a>
</g>
</g>
<!-- Node13&#45;&gt;Node15 -->
<g id="edge14" class="edge">
<title>Node13&#45;&gt;Node15</title>
<path fill="none" stroke="midnightblue" d="M590.71,-145.31C608.88,-146.7 629.21,-148.24 648.2,-149.69"/>
<polygon fill="midnightblue" stroke="midnightblue" points="648.06,-153.19 658.29,-150.46 648.59,-146.21 648.06,-153.19"/>
</g>
<!-- Node13&#45;&gt;Node16 -->
<g id="edge15" class="edge">
<title>Node13&#45;&gt;Node16</title>
<path fill="none" stroke="midnightblue" d="M577.83,-156.09C587.14,-159.33 596.9,-162.76 606,-166 631.71,-175.17 660.63,-185.76 682.65,-193.89"/>
<polygon fill="midnightblue" stroke="midnightblue" points="681.65,-197.25 692.24,-197.43 684.08,-190.68 681.65,-197.25"/>
</g>
<!-- Node17 -->
<g id="node17" class="node">
<title>Node17</title>
<g id="a_node17"><a xlink:href="namespaceutil_1_1parallel.html#adb80f14125b7556bb478cc3725508fa8" target="_top" xlink:title="get rank (id) of this processor">
<polygon fill="none" stroke="red" points="832,-178.5 832,-197.5 943,-197.5 943,-178.5 832,-178.5"/>
<text text-anchor="middle" x="887.5" y="-185.5" font-family="Arial" font-size="10.00">util::parallel::mpiRank</text>
</a>
</g>
</g>
<!-- Node16&#45;&gt;Node17 -->
<g id="edge16" class="edge">
<title>Node16&#45;&gt;Node17</title>
<path fill="none" stroke="midnightblue" d="M753.29,-203.2C772.89,-200.96 798.34,-198.06 821.73,-195.39"/>
<polygon fill="midnightblue" stroke="midnightblue" points="822.42,-198.83 831.96,-194.22 821.63,-191.88 822.42,-198.83"/>
</g>
<!-- Node20 -->
<g id="node18" class="node">
<title>Node20</title>
<g id="a_node18"><a xlink:href="namespaceutil_1_1io.html#a3e537e3bd778616255015cde6e60a30a" target="_top" xlink:title="Returns formatted string for output.">
<polygon fill="none" stroke="red" points="847.5,-216.5 847.5,-235.5 927.5,-235.5 927.5,-216.5 847.5,-216.5"/>
<text text-anchor="middle" x="887.5" y="-223.5" font-family="Arial" font-size="10.00">util::io::printStr</text>
</a>
</g>
</g>
<!-- Node16&#45;&gt;Node20 -->
<g id="edge17" class="edge">
<title>Node16&#45;&gt;Node20</title>
<path fill="none" stroke="midnightblue" d="M753.29,-210.8C777.36,-213.55 810.27,-217.3 837.35,-220.39"/>
<polygon fill="midnightblue" stroke="midnightblue" points="837.08,-223.88 847.42,-221.54 837.88,-216.93 837.08,-223.88"/>
</g>
<!-- Node25&#45;&gt;Node2 -->
<g id="edge23" class="edge">
<title>Node25&#45;&gt;Node2</title>
<path fill="none" stroke="midnightblue" d="M269.53,-249.02C281.61,-252.57 294.62,-256.4 307.09,-260.07"/>
<polygon fill="midnightblue" stroke="midnightblue" points="306.36,-263.51 316.95,-262.97 308.34,-256.79 306.36,-263.51"/>
</g>
<!-- Node25&#45;&gt;Node10 -->
<g id="edge24" class="edge">
<title>Node25&#45;&gt;Node10</title>
<path fill="none" stroke="midnightblue" d="M238.94,-249.18C287.81,-285.56 408.56,-376.02 424,-393 444.15,-415.17 435.84,-432.28 460,-450 462.85,-452.09 465.91,-453.95 469.11,-455.6"/>
<polygon fill="midnightblue" stroke="midnightblue" points="467.84,-458.87 478.4,-459.75 470.7,-452.48 467.84,-458.87"/>
</g>
<!-- Node25&#45;&gt;Node11 -->
<g id="edge25" class="edge">
<title>Node25&#45;&gt;Node11</title>
<path fill="none" stroke="midnightblue" d="M241.49,-218.93C287.64,-188.6 390.09,-120.97 424,-96 440.54,-83.82 441.66,-76.27 460,-67 464.64,-64.65 469.6,-62.58 474.66,-60.74"/>
<polygon fill="midnightblue" stroke="midnightblue" points="476.07,-63.96 484.47,-57.5 473.88,-57.31 476.07,-63.96"/>
</g>
<!-- Node25&#45;&gt;Node12 -->
<g id="edge26" class="edge">
<title>Node25&#45;&gt;Node12</title>
<path fill="none" stroke="midnightblue" d="M225.6,-218.74C239.19,-190.98 271.36,-131.76 314,-96 360.57,-56.95 427.01,-34.19 474.28,-22.01"/>
<polygon fill="midnightblue" stroke="midnightblue" points="475.21,-25.38 484.07,-19.56 473.52,-18.59 475.21,-25.38"/>
</g>
<!-- Node25&#45;&gt;Node13 -->
<g id="edge27" class="edge">
<title>Node25&#45;&gt;Node13</title>
<path fill="none" stroke="midnightblue" d="M278.3,-238.53C321.33,-239.16 379.41,-234.4 424,-210 446.17,-197.87 439.28,-180.47 460,-166 462.71,-164.11 465.58,-162.34 468.55,-160.7"/>
<polygon fill="midnightblue" stroke="midnightblue" points="470.31,-163.74 477.7,-156.15 467.19,-157.47 470.31,-163.74"/>
</g>
<!-- Node25&#45;&gt;Node22 -->
<g id="edge28" class="edge">
<title>Node25&#45;&gt;Node22</title>
<path fill="none" stroke="midnightblue" d="M275.34,-219C331.85,-203.74 411.84,-181.09 424,-172 447.4,-154.5 436.97,-134.97 460,-117 463.84,-114 468.06,-111.35 472.48,-109.01"/>
<polygon fill="midnightblue" stroke="midnightblue" points="474.22,-112.06 481.77,-104.62 471.23,-105.73 474.22,-112.06"/>
</g>
<!-- Node26&#45;&gt;Node5 -->
<g id="edge34" class="edge">
<title>Node26&#45;&gt;Node5</title>
<path fill="none" stroke="midnightblue" d="M590.71,-548.44C610.31,-543.75 632.43,-538.46 652.66,-533.62"/>
<polygon fill="midnightblue" stroke="midnightblue" points="653.52,-537.02 662.43,-531.29 651.89,-530.21 653.52,-537.02"/>
</g>
<!-- Node26&#45;&gt;Node6 -->
<g id="edge35" class="edge">
<title>Node26&#45;&gt;Node6</title>
<path fill="none" stroke="midnightblue" d="M590.64,-558.47C654.18,-554.5 757.01,-548.08 823.17,-543.95"/>
<polygon fill="midnightblue" stroke="midnightblue" points="823.7,-547.43 833.46,-543.31 823.27,-540.44 823.7,-547.43"/>
</g>
</g>
</svg>
