<?xml version="1.0" encoding="UTF-8" standalone="no"?>
<!DOCTYPE svg PUBLIC "-//W3C//DTD SVG 1.1//EN"
 "http://www.w3.org/Graphics/SVG/1.1/DTD/svg11.dtd">
<!-- Generated by graphviz version 2.43.0 (0)
 -->
<!-- Title: problem_setup.get_E Pages: 1 -->
<svg width="658pt" height="680pt"
 viewBox="0.00 0.00 658.00 679.87" xmlns="http://www.w3.org/2000/svg" xmlns:xlink="http://www.w3.org/1999/xlink">
<g id="graph0" class="graph" transform="scale(1 1) rotate(0) translate(4 675.87)">
<title>problem_setup.get_E</title>
<!-- Node1 -->
<g id="Node000001" class="node">
<title>Node1</title>
<g id="a_Node000001"><a xlink:title=" ">
<polygon fill="#999999" stroke="#666666" points="650,-353.79 541,-353.79 541,-334.79 650,-334.79 650,-353.79"/>
<text text-anchor="middle" x="595.5" y="-341.79" font-family="Arial" font-size="10.00">problem_setup.get_E</text>
</a>
</g>
</g>
<!-- Node2 -->
<g id="Node000002" class="node">
<title>Node2</title>
<g id="a_Node000002"><a xlink:href="namespaceproblem__setup.html#a8ed53bd44082cee1b5381115a87451e2" target="_top" xlink:title=" ">
<polygon fill="white" stroke="#666666" points="505,-359.29 395,-359.29 395,-329.29 505,-329.29 505,-359.29"/>
<text text-anchor="start" x="403" y="-347.29" font-family="Arial" font-size="10.00">problem_setup.create</text>
<text text-anchor="middle" x="450" y="-336.29" font-family="Arial" font-size="10.00">_input_file</text>
</a>
</g>
</g>
<!-- Node1&#45;&gt;Node2 -->
<g id="edge1_Node000001_Node000002" class="edge">
<title>Node1&#45;&gt;Node2</title>
<g id="a_edge1_Node000001_Node000002"><a xlink:title=" ">
<path fill="none" stroke="#63b8ff" d="M530.45,-344.29C522,-344.29 513.41,-344.29 505.14,-344.29"/>
<polygon fill="#63b8ff" stroke="#63b8ff" points="530.66,-347.79 540.66,-344.29 530.66,-340.79 530.66,-347.79"/>
</a>
</g>
</g>
<!-- Node3 -->
<g id="Node000003" class="node">
<title>Node3</title>
<g id="a_Node000003"><a xlink:href="namespaceproblem__setup.html#ad8435164bcbd3345621bebc22e38b3d6" target="_top" xlink:title=" ">
<polygon fill="white" stroke="#666666" points="338.5,-607.29 195.5,-607.29 195.5,-577.29 338.5,-577.29 338.5,-607.29"/>
<text text-anchor="start" x="203.5" y="-595.29" font-family="Arial" font-size="10.00">problem_setup.generate</text>
<text text-anchor="middle" x="267" y="-584.29" font-family="Arial" font-size="10.00">_cylindrical_wall_gmsh_input</text>
</a>
</g>
</g>
<!-- Node1&#45;&gt;Node3 -->
<g id="edge22_Node000001_Node000003" class="edge">
<title>Node1&#45;&gt;Node3</title>
<g id="a_edge22_Node000001_Node000003"><a xlink:title=" ">
<path fill="none" stroke="#63b8ff" d="M583.83,-362.72C568.54,-388.15 538.51,-434.57 505,-467.29 448.55,-522.41 430.67,-535.29 359,-568.29 351.73,-571.64 343.91,-574.58 336.01,-577.16"/>
<polygon fill="#63b8ff" stroke="#63b8ff" points="586.87,-364.46 588.95,-354.07 580.85,-360.9 586.87,-364.46"/>
</a>
</g>
</g>
<!-- Node4 -->
<g id="Node000004" class="node">
<title>Node4</title>
<g id="a_Node000004"><a xlink:href="namespaceproblem__setup.html#a0309e4ef640896d0611c7626b8273f19" target="_top" xlink:title=" ">
<polygon fill="white" stroke="#666666" points="335,-541.29 199,-541.29 199,-511.29 335,-511.29 335,-541.29"/>
<text text-anchor="start" x="207" y="-529.29" font-family="Arial" font-size="10.00">problem_setup.generate</text>
<text text-anchor="middle" x="267" y="-518.29" font-family="Arial" font-size="10.00">_drum_particle_gmsh_input</text>
</a>
</g>
</g>
<!-- Node1&#45;&gt;Node4 -->
<g id="edge23_Node000001_Node000004" class="edge">
<title>Node1&#45;&gt;Node4</title>
<g id="a_edge23_Node000001_Node000004"><a xlink:title=" ">
<path fill="none" stroke="#63b8ff" d="M576.92,-361.32C559.48,-377.74 531.59,-402.76 505,-421.29 444.11,-463.71 427.85,-474.61 359,-502.29 350.81,-505.58 342.03,-508.55 333.27,-511.19"/>
<polygon fill="#63b8ff" stroke="#63b8ff" points="579.76,-363.45 584.59,-354.02 574.93,-358.38 579.76,-363.45"/>
</a>
</g>
</g>
<!-- Node5 -->
<g id="Node000005" class="node">
<title>Node5</title>
<g id="a_Node000005"><a xlink:href="namespaceproblem__setup.html#a16a9d169ecf04b1a867bec4dbf274c01" target="_top" xlink:title=" ">
<polygon fill="white" stroke="#666666" points="343.5,-475.29 190.5,-475.29 190.5,-445.29 343.5,-445.29 343.5,-475.29"/>
<text text-anchor="start" x="198.5" y="-463.29" font-family="Arial" font-size="10.00">problem_setup.generate</text>
<text text-anchor="middle" x="267" y="-452.29" font-family="Arial" font-size="10.00">_moving_rect_wall_gmsh_input</text>
</a>
</g>
</g>
<!-- Node1&#45;&gt;Node5 -->
<g id="edge24_Node000001_Node000005" class="edge">
<title>Node1&#45;&gt;Node5</title>
<g id="a_edge24_Node000001_Node000005"><a xlink:title=" ">
<path fill="none" stroke="#63b8ff" d="M568.31,-358.8C550.72,-368.21 526.86,-380.33 505,-389.29 441.92,-415.12 424.43,-417.14 359,-436.29 348.65,-439.32 337.59,-442.38 326.87,-445.25"/>
<polygon fill="#63b8ff" stroke="#63b8ff" points="570.25,-361.73 577.38,-353.89 566.92,-355.58 570.25,-361.73"/>
</a>
</g>
</g>
<!-- Node6 -->
<g id="Node000006" class="node">
<title>Node6</title>
<g id="a_Node000006"><a xlink:href="namespaceproblem__setup.html#a4dd4df45d28c58aafac4fdf8aa8c554d" target="_top" xlink:title=" ">
<polygon fill="white" stroke="#666666" points="332.5,-409.29 201.5,-409.29 201.5,-379.29 332.5,-379.29 332.5,-409.29"/>
<text text-anchor="start" x="209.5" y="-397.29" font-family="Arial" font-size="10.00">problem_setup.generate</text>
<text text-anchor="middle" x="267" y="-386.29" font-family="Arial" font-size="10.00">_moving_wall_gmsh_input</text>
</a>
</g>
</g>
<!-- Node1&#45;&gt;Node6 -->
<g id="edge25_Node000001_Node000006" class="edge">
<title>Node1&#45;&gt;Node6</title>
<g id="a_edge25_Node000001_Node000006"><a xlink:title=" ">
<path fill="none" stroke="#63b8ff" d="M554.05,-356.54C538.8,-360.79 521.21,-365.24 505,-368.29 447.13,-379.15 380.4,-385.97 332.52,-389.89"/>
<polygon fill="#63b8ff" stroke="#63b8ff" points="555.04,-359.9 563.7,-353.79 553.13,-353.16 555.04,-359.9"/>
</a>
</g>
</g>
<!-- Node7 -->
<g id="Node000007" class="node">
<title>Node7</title>
<g id="a_Node000007"><a xlink:href="namespaceproblem__setup.html#a881d38782fcef7d73522d8b9bfcdb3da" target="_top" xlink:title=" ">
<polygon fill="white" stroke="#666666" points="327.5,-305.29 206.5,-305.29 206.5,-275.29 327.5,-275.29 327.5,-305.29"/>
<text text-anchor="start" x="214.5" y="-293.29" font-family="Arial" font-size="10.00">problem_setup.generate</text>
<text text-anchor="middle" x="267" y="-282.29" font-family="Arial" font-size="10.00">_particle_gmsh_input</text>
</a>
</g>
</g>
<!-- Node1&#45;&gt;Node7 -->
<g id="edge26_Node000001_Node000007" class="edge">
<title>Node1&#45;&gt;Node7</title>
<g id="a_edge26_Node000001_Node000007"><a xlink:title=" ">
<path fill="none" stroke="#63b8ff" d="M552.86,-331.86C537.87,-327.72 520.78,-323.39 505,-320.29 445.18,-308.54 375.91,-300.39 327.77,-295.58"/>
<polygon fill="#63b8ff" stroke="#63b8ff" points="552.28,-335.33 562.85,-334.67 554.17,-328.59 552.28,-335.33"/>
</a>
</g>
</g>
<!-- Node8 -->
<g id="Node000008" class="node">
<title>Node8</title>
<g id="a_Node000008"><a xlink:href="namespaceproblem__setup.html#a021c61bf44d7c968582474d32605a1ad" target="_top" xlink:title=" ">
<polygon fill="white" stroke="#666666" points="130,-262.29 9,-262.29 9,-232.29 130,-232.29 130,-262.29"/>
<text text-anchor="start" x="17" y="-250.29" font-family="Arial" font-size="10.00">problem_setup.generate</text>
<text text-anchor="middle" x="69.5" y="-239.29" font-family="Arial" font-size="10.00">_wall_gmsh_input</text>
</a>
</g>
</g>
<!-- Node1&#45;&gt;Node8 -->
<g id="edge29_Node000001_Node000008" class="edge">
<title>Node1&#45;&gt;Node8</title>
<g id="a_edge29_Node000001_Node000008"><a xlink:title=" ">
<path fill="none" stroke="#63b8ff" d="M585.95,-325.5C572.34,-297.41 543.35,-244.25 505,-211.29 450.57,-164.51 429.03,-158 359,-142.29 279.21,-124.38 250.52,-110.9 175,-142.29 130.83,-160.65 95.68,-207.76 79.76,-232.15"/>
<polygon fill="#63b8ff" stroke="#63b8ff" points="582.82,-327.08 590.25,-334.63 589.15,-324.1 582.82,-327.08"/>
</a>
</g>
</g>
<!-- Node9 -->
<g id="Node000009" class="node">
<title>Node9</title>
<g id="a_Node000009"><a xlink:href="namespaceproblem__setup.html#ac5b70eb483dcc46be564cfc382ca08ef" target="_top" xlink:title=" ">
<polygon fill="white" stroke="#666666" points="127,-366.29 12,-366.29 12,-336.29 127,-336.29 127,-366.29"/>
<text text-anchor="start" x="20" y="-354.29" font-family="Arial" font-size="10.00">problem_setup.particle</text>
<text text-anchor="middle" x="69.5" y="-343.29" font-family="Arial" font-size="10.00">_locations_orient</text>
</a>
</g>
</g>
<!-- Node1&#45;&gt;Node9 -->
<g id="edge31_Node000001_Node000009" class="edge">
<title>Node1&#45;&gt;Node9</title>
<g id="a_edge31_Node000001_Node000009"><a xlink:title=" ">
<path fill="none" stroke="#63b8ff" d="M587.98,-363.86C575.75,-398.52 546.78,-471.78 505,-522.29 406.27,-641.63 302.08,-722.83 175,-634.29 83.04,-570.21 71.8,-415.5 70.59,-366.47"/>
<polygon fill="#63b8ff" stroke="#63b8ff" points="591.41,-364.64 591.35,-354.04 584.79,-362.36 591.41,-364.64"/>
</a>
</g>
</g>
<!-- Node10 -->
<g id="Node000010" class="node">
<title>Node10</title>
<g id="a_Node000010"><a xlink:href="namespaceproblem__setup.html#ab77cd691be605123ba53961f21c8885a" target="_top" xlink:title=" ">
<polygon fill="white" stroke="#666666" points="139,-71.29 0,-71.29 0,-41.29 139,-41.29 139,-71.29"/>
<text text-anchor="start" x="8" y="-59.29" font-family="Arial" font-size="10.00">problem_setup.generate</text>
<text text-anchor="middle" x="69.5" y="-48.29" font-family="Arial" font-size="10.00">_rect_container_gmsh_input</text>
</a>
</g>
</g>
<!-- Node1&#45;&gt;Node10 -->
<g id="edge27_Node000001_Node000010" class="edge">
<title>Node1&#45;&gt;Node10</title>
<g id="a_edge27_Node000001_Node000010"><a xlink:title=" ">
<path fill="none" stroke="#63b8ff" d="M594.59,-324.5C593.69,-272.64 583.73,-131.81 505,-59.29 395.01,42.04 194.8,-11.77 110.07,-41.21"/>
<polygon fill="#63b8ff" stroke="#63b8ff" points="591.09,-324.69 594.66,-334.67 598.09,-324.64 591.09,-324.69"/>
</a>
</g>
</g>
<!-- Node11 -->
<g id="Node000011" class="node">
<title>Node11</title>
<g id="a_Node000011"><a xlink:href="namespaceproblem__setup.html#a8e72848abab104858c2a4647079140ed" target="_top" xlink:title=" ">
<polygon fill="white" stroke="#666666" points="359,-76.79 175,-76.79 175,-35.79 359,-35.79 359,-76.79"/>
<text text-anchor="start" x="183" y="-64.79" font-family="Arial" font-size="10.00">problem_setup.generate</text>
<text text-anchor="start" x="183" y="-53.79" font-family="Arial" font-size="10.00">_rectangle_with_protrusion</text>
<text text-anchor="middle" x="267" y="-42.79" font-family="Arial" font-size="10.00">_and_opening_wall_gmsh_input_type3</text>
</a>
</g>
</g>
<!-- Node1&#45;&gt;Node11 -->
<g id="edge28_Node000001_Node000011" class="edge">
<title>Node1&#45;&gt;Node11</title>
<g id="a_edge28_Node000001_Node000011"><a xlink:title=" ">
<path fill="none" stroke="#63b8ff" d="M593.07,-324.34C588.68,-278.8 571.34,-166.71 505,-109.29 465.07,-74.73 407.48,-61.3 359.07,-56.59"/>
<polygon fill="#63b8ff" stroke="#63b8ff" points="589.59,-324.74 593.93,-334.41 596.56,-324.15 589.59,-324.74"/>
</a>
</g>
</g>
<!-- Node12 -->
<g id="Node000012" class="node">
<title>Node12</title>
<g id="a_Node000012"><a xlink:href="namespaceproblem__setup.html#a38db49e0a85dd22e69cae23f7f92435f" target="_top" xlink:title=" ">
<polygon fill="white" stroke="#666666" points="324.5,-181.29 209.5,-181.29 209.5,-151.29 324.5,-151.29 324.5,-181.29"/>
<text text-anchor="start" x="217.5" y="-169.29" font-family="Arial" font-size="10.00">problem_setup.particle</text>
<text text-anchor="middle" x="267" y="-158.29" font-family="Arial" font-size="10.00">_locations</text>
</a>
</g>
</g>
<!-- Node1&#45;&gt;Node12 -->
<g id="edge30_Node000001_Node000012" class="edge">
<title>Node1&#45;&gt;Node12</title>
<g id="a_edge30_Node000001_Node000012"><a xlink:title=" ">
<path fill="none" stroke="#63b8ff" d="M573.77,-328.57C533.98,-299.03 443.39,-234.63 359,-195.29 347.73,-190.03 335.25,-185.37 323.24,-181.4"/>
<polygon fill="#63b8ff" stroke="#63b8ff" points="571.79,-331.47 581.9,-334.65 575.98,-325.86 571.79,-331.47"/>
</a>
</g>
</g>
<!-- Node2&#45;&gt;Node3 -->
<g id="edge2_Node000002_Node000003" class="edge">
<title>Node2&#45;&gt;Node3</title>
<g id="a_edge2_Node000002_Node000003"><a xlink:title=" ">
<path fill="none" stroke="#63b8ff" d="M446.21,-369.56C439.71,-416.03 419.21,-515.13 359,-568.29 353,-573.59 345.96,-577.74 338.5,-580.98"/>
<polygon fill="#63b8ff" stroke="#63b8ff" points="449.71,-369.82 447.52,-359.45 442.76,-368.92 449.71,-369.82"/>
</a>
</g>
</g>
<!-- Node2&#45;&gt;Node4 -->
<g id="edge4_Node000002_Node000004" class="edge">
<title>Node2&#45;&gt;Node4</title>
<g id="a_edge4_Node000002_Node000004"><a xlink:title=" ">
<path fill="none" stroke="#63b8ff" d="M441.54,-369.5C429.81,-404.65 403.68,-467.94 359,-502.29 351.88,-507.76 343.61,-512 335.03,-515.26"/>
<polygon fill="#63b8ff" stroke="#63b8ff" points="445.01,-370.15 444.72,-359.56 438.34,-368.01 445.01,-370.15"/>
</a>
</g>
</g>
<!-- Node2&#45;&gt;Node5 -->
<g id="edge6_Node000002_Node000005" class="edge">
<title>Node2&#45;&gt;Node5</title>
<g id="a_edge6_Node000002_Node000005"><a xlink:title=" ">
<path fill="none" stroke="#63b8ff" d="M432.18,-367.58C415.81,-388.59 389.04,-418.8 359,-436.29 353.07,-439.74 346.64,-442.7 340.02,-445.25"/>
<polygon fill="#63b8ff" stroke="#63b8ff" points="435.08,-369.56 438.34,-359.48 429.5,-365.32 435.08,-369.56"/>
</a>
</g>
</g>
<!-- Node2&#45;&gt;Node6 -->
<g id="edge8_Node000002_Node000006" class="edge">
<title>Node2&#45;&gt;Node6</title>
<g id="a_edge8_Node000002_Node000006"><a xlink:title=" ">
<path fill="none" stroke="#63b8ff" d="M384.88,-362C364.52,-367.63 342.2,-373.79 322.58,-379.21"/>
<polygon fill="#63b8ff" stroke="#63b8ff" points="385.99,-365.32 394.69,-359.29 384.12,-358.58 385.99,-365.32"/>
</a>
</g>
</g>
<!-- Node2&#45;&gt;Node7 -->
<g id="edge10_Node000002_Node000007" class="edge">
<title>Node2&#45;&gt;Node7</title>
<g id="a_edge10_Node000002_Node000007"><a xlink:title=" ">
<path fill="none" stroke="#63b8ff" d="M388.99,-326.38C366.13,-319.56 340.34,-311.87 318.46,-305.34"/>
<polygon fill="#63b8ff" stroke="#63b8ff" points="388,-329.74 398.58,-329.24 390,-323.03 388,-329.74"/>
</a>
</g>
</g>
<!-- Node2&#45;&gt;Node8 -->
<g id="edge19_Node000002_Node000008" class="edge">
<title>Node2&#45;&gt;Node8</title>
<g id="a_edge19_Node000002_Node000008"><a xlink:title=" ">
<path fill="none" stroke="#63b8ff" d="M429.96,-320.99C413.36,-302.55 387.53,-278.01 359,-266.29 284.6,-235.71 190.3,-235.97 130.16,-240.44"/>
<polygon fill="#63b8ff" stroke="#63b8ff" points="427.7,-323.73 436.91,-328.97 432.98,-319.13 427.7,-323.73"/>
</a>
</g>
</g>
<!-- Node2&#45;&gt;Node9 -->
<g id="edge21_Node000002_Node000009" class="edge">
<title>Node2&#45;&gt;Node9</title>
<g id="a_edge21_Node000002_Node000009"><a xlink:title=" ">
<path fill="none" stroke="#63b8ff" d="M384.43,-345.48C312.1,-346.82 196.01,-348.97 127.1,-350.24"/>
<polygon fill="#63b8ff" stroke="#63b8ff" points="384.84,-348.97 394.77,-345.29 384.71,-341.98 384.84,-348.97"/>
</a>
</g>
</g>
<!-- Node2&#45;&gt;Node10 -->
<g id="edge14_Node000002_Node000010" class="edge">
<title>Node2&#45;&gt;Node10</title>
<g id="a_edge14_Node000002_Node000010"><a xlink:title=" ">
<path fill="none" stroke="#63b8ff" d="M436.06,-320.31C420.97,-294.73 393.64,-254.98 359,-233.29 287.83,-188.71 245.75,-235.54 175,-190.29 127.28,-159.77 92.36,-99.65 77.88,-71.5"/>
<polygon fill="#63b8ff" stroke="#63b8ff" points="433.04,-322.09 441.05,-329.03 439.12,-318.61 433.04,-322.09"/>
</a>
</g>
</g>
<!-- Node2&#45;&gt;Node11 -->
<g id="edge16_Node000002_Node000011" class="edge">
<title>Node2&#45;&gt;Node11</title>
<g id="a_edge16_Node000002_Node000011"><a xlink:title=" ">
<path fill="none" stroke="#63b8ff" d="M441.45,-319.35C428.62,-279.5 399.95,-200.09 359,-142.29 341.03,-116.92 314.74,-93.06 295.03,-76.94"/>
<polygon fill="#63b8ff" stroke="#63b8ff" points="438.16,-320.56 444.5,-329.04 444.83,-318.45 438.16,-320.56"/>
</a>
</g>
</g>
<!-- Node2&#45;&gt;Node12 -->
<g id="edge20_Node000002_Node000012" class="edge">
<title>Node2&#45;&gt;Node12</title>
<g id="a_edge20_Node000002_Node000012"><a xlink:title=" ">
<path fill="none" stroke="#63b8ff" d="M440.35,-319.36C427.62,-286.27 400.75,-228.22 359,-195.29 348.98,-187.38 336.75,-181.6 324.55,-177.4"/>
<polygon fill="#63b8ff" stroke="#63b8ff" points="437.23,-321 443.99,-329.16 443.79,-318.56 437.23,-321"/>
</a>
</g>
</g>
<!-- Node3&#45;&gt;Node3 -->
<g id="edge3_Node000003_Node000003" class="edge">
<title>Node3&#45;&gt;Node3</title>
<g id="a_edge3_Node000003_Node000003"><a xlink:title=" ">
<path fill="none" stroke="#63b8ff" d="M298.86,-617.88C294.5,-622.26 283.88,-625.29 267,-625.29 238.56,-625.29 227.9,-616.69 235.01,-607.56"/>
<polygon fill="#63b8ff" stroke="#63b8ff" points="302.36,-617.61 298.99,-607.56 295.36,-617.52 302.36,-617.61"/>
</a>
</g>
</g>
<!-- Node4&#45;&gt;Node4 -->
<g id="edge5_Node000004_Node000004" class="edge">
<title>Node4&#45;&gt;Node4</title>
<g id="a_edge5_Node000004_Node000004"><a xlink:title=" ">
<path fill="none" stroke="#63b8ff" d="M298.86,-551.88C294.5,-556.26 283.88,-559.29 267,-559.29 238.56,-559.29 227.9,-550.69 235.01,-541.56"/>
<polygon fill="#63b8ff" stroke="#63b8ff" points="302.36,-551.61 298.99,-541.56 295.36,-551.52 302.36,-551.61"/>
</a>
</g>
</g>
<!-- Node5&#45;&gt;Node5 -->
<g id="edge7_Node000005_Node000005" class="edge">
<title>Node5&#45;&gt;Node5</title>
<g id="a_edge7_Node000005_Node000005"><a xlink:title=" ">
<path fill="none" stroke="#63b8ff" d="M298.86,-485.88C294.5,-490.26 283.88,-493.29 267,-493.29 238.56,-493.29 227.9,-484.69 235.01,-475.56"/>
<polygon fill="#63b8ff" stroke="#63b8ff" points="302.36,-485.61 298.99,-475.56 295.36,-485.52 302.36,-485.61"/>
</a>
</g>
</g>
<!-- Node6&#45;&gt;Node6 -->
<g id="edge9_Node000006_Node000006" class="edge">
<title>Node6&#45;&gt;Node6</title>
<g id="a_edge9_Node000006_Node000006"><a xlink:title=" ">
<path fill="none" stroke="#63b8ff" d="M298.86,-419.88C294.5,-424.26 283.88,-427.29 267,-427.29 238.56,-427.29 227.9,-418.69 235.01,-409.56"/>
<polygon fill="#63b8ff" stroke="#63b8ff" points="302.36,-419.61 298.99,-409.56 295.36,-419.52 302.36,-419.61"/>
</a>
</g>
</g>
<!-- Node7&#45;&gt;Node7 -->
<g id="edge11_Node000007_Node000007" class="edge">
<title>Node7&#45;&gt;Node7</title>
<g id="a_edge11_Node000007_Node000007"><a xlink:title=" ">
<path fill="none" stroke="#63b8ff" d="M298.86,-315.88C294.5,-320.26 283.88,-323.29 267,-323.29 238.56,-323.29 227.9,-314.69 235.01,-305.56"/>
<polygon fill="#63b8ff" stroke="#63b8ff" points="302.36,-315.61 298.99,-305.56 295.36,-315.52 302.36,-315.61"/>
</a>
</g>
</g>
<!-- Node7&#45;&gt;Node8 -->
<g id="edge12_Node000007_Node000008" class="edge">
<title>Node7&#45;&gt;Node8</title>
<g id="a_edge12_Node000007_Node000008"><a xlink:title=" ">
<path fill="none" stroke="#63b8ff" d="M196.49,-275C174.82,-270.23 151.12,-265.02 130.19,-260.42"/>
<polygon fill="#63b8ff" stroke="#63b8ff" points="195.76,-278.42 206.28,-277.15 197.27,-271.59 195.76,-278.42"/>
</a>
</g>
</g>
<!-- Node7&#45;&gt;Node9 -->
<g id="edge13_Node000007_Node000009" class="edge">
<title>Node7&#45;&gt;Node9</title>
<g id="a_edge13_Node000007_Node000009"><a xlink:title=" ">
<path fill="none" stroke="#63b8ff" d="M208.11,-308.35C179.65,-317.23 145.76,-327.81 118.73,-336.24"/>
<polygon fill="#63b8ff" stroke="#63b8ff" points="209.42,-311.61 217.92,-305.29 207.34,-304.92 209.42,-311.61"/>
</a>
</g>
</g>
<!-- Node10&#45;&gt;Node10 -->
<g id="edge15_Node000010_Node000010" class="edge">
<title>Node10&#45;&gt;Node10</title>
<g id="a_edge15_Node000010_Node000010"><a xlink:title=" ">
<path fill="none" stroke="#63b8ff" d="M103.81,-81.88C99.12,-86.26 87.68,-89.29 69.5,-89.29 38.88,-89.29 27.39,-80.69 35.05,-71.56"/>
<polygon fill="#63b8ff" stroke="#63b8ff" points="107.31,-81.61 103.95,-71.56 100.31,-81.51 107.31,-81.61"/>
</a>
</g>
</g>
<!-- Node11&#45;&gt;Node10 -->
<g id="edge17_Node000011_Node000010" class="edge">
<title>Node11&#45;&gt;Node10</title>
<g id="a_edge17_Node000011_Node000010"><a xlink:title=" ">
<path fill="none" stroke="#63b8ff" d="M164.65,-56.29C155.98,-56.29 147.35,-56.29 139.03,-56.29"/>
<polygon fill="#63b8ff" stroke="#63b8ff" points="164.83,-59.79 174.83,-56.29 164.83,-52.79 164.83,-59.79"/>
</a>
</g>
</g>
<!-- Node11&#45;&gt;Node11 -->
<g id="edge18_Node000011_Node000011" class="edge">
<title>Node11&#45;&gt;Node11</title>
<g id="a_edge18_Node000011_Node000011"><a xlink:title=" ">
<path fill="none" stroke="#63b8ff" d="M298.31,-86.75C293.66,-91.53 283.22,-94.79 267,-94.79 241.05,-94.79 229.9,-86.44 233.55,-76.88"/>
<polygon fill="#63b8ff" stroke="#63b8ff" points="301.75,-87.4 300.45,-76.88 294.91,-85.92 301.75,-87.4"/>
</a>
</g>
</g>
</g>
</svg>
