<?xml version="1.0" encoding="UTF-8" standalone="no"?>
<!DOCTYPE svg PUBLIC "-//W3C//DTD SVG 1.1//EN"
 "http://www.w3.org/Graphics/SVG/1.1/DTD/svg11.dtd">
<!-- Generated by graphviz version 2.43.0 (0)
 -->
<!-- Title: geom_util.gmsh_translate Pages: 1 -->
<svg width="460pt" height="662pt"
 viewBox="0.00 0.00 460.00 662.00" xmlns="http://www.w3.org/2000/svg" xmlns:xlink="http://www.w3.org/1999/xlink">
<g id="graph0" class="graph" transform="scale(1 1) rotate(0) translate(4 658)">
<title>geom_util.gmsh_translate</title>
<!-- Node1 -->
<g id="Node000001" class="node">
<title>Node1</title>
<g id="a_Node000001"><a xlink:title=" ">
<polygon fill="#999999" stroke="#666666" points="452,-336.5 324,-336.5 324,-317.5 452,-317.5 452,-336.5"/>
<text text-anchor="middle" x="388" y="-324.5" font-family="Arial" font-size="10.00">geom_util.gmsh_translate</text>
</a>
</g>
</g>
<!-- Node2 -->
<g id="Node000002" class="node">
<title>Node2</title>
<g id="a_Node000002"><a xlink:href="namespacegmsh__particles.html#a419347b5a2bf3af6a4ed71b344bcbd63" target="_top" xlink:title=" ">
<polygon fill="white" stroke="#666666" points="288,-654 163,-654 163,-624 288,-624 288,-654"/>
<text text-anchor="start" x="171" y="-642" font-family="Arial" font-size="10.00">gmsh_particles.annulus</text>
<text text-anchor="middle" x="225.5" y="-631" font-family="Arial" font-size="10.00">_circle_mesh_symmetric</text>
</a>
</g>
</g>
<!-- Node1&#45;&gt;Node2 -->
<g id="edge1_Node000001_Node000002" class="edge">
<title>Node1&#45;&gt;Node2</title>
<g id="a_edge1_Node000001_Node000002"><a xlink:title=" ">
<path fill="none" stroke="#63b8ff" d="M385.77,-346.73C381.55,-397.92 363.39,-536.45 288,-615 284.75,-618.39 280.96,-621.31 276.89,-623.82"/>
<polygon fill="#63b8ff" stroke="#63b8ff" points="389.27,-346.91 386.51,-336.68 382.29,-346.4 389.27,-346.91"/>
</a>
</g>
</g>
<!-- Node3 -->
<g id="Node000003" class="node">
<title>Node3</title>
<g id="a_Node000003"><a xlink:href="namespacegmsh__particles.html#a989db766c3af5de0f57c5fe83ab27266" target="_top" xlink:title=" ">
<polygon fill="white" stroke="#666666" points="285,-606 166,-606 166,-576 285,-576 285,-606"/>
<text text-anchor="start" x="174" y="-594" font-family="Arial" font-size="10.00">gmsh_particles.annulus</text>
<text text-anchor="middle" x="225.5" y="-583" font-family="Arial" font-size="10.00">_rectangle_mesh</text>
</a>
</g>
</g>
<!-- Node1&#45;&gt;Node3 -->
<g id="edge2_Node000001_Node000003" class="edge">
<title>Node1&#45;&gt;Node3</title>
<g id="a_edge2_Node000001_Node000003"><a xlink:title=" ">
<path fill="none" stroke="#63b8ff" d="M384.21,-346.71C376.81,-391.82 352.66,-503.57 288,-567 284.48,-570.45 280.41,-573.42 276.07,-575.97"/>
<polygon fill="#63b8ff" stroke="#63b8ff" points="387.68,-347.16 385.74,-336.75 380.76,-346.1 387.68,-347.16"/>
</a>
</g>
</g>
<!-- Node4 -->
<g id="Node000004" class="node">
<title>Node4</title>
<g id="a_Node000004"><a xlink:href="namespacegmsh__particles.html#a5fc8cc16fa3ce4d1eb69f352f5e6c586" target="_top" xlink:title=" ">
<polygon fill="white" stroke="#666666" points="280,-558 171,-558 171,-528 280,-528 280,-558"/>
<text text-anchor="start" x="179" y="-546" font-family="Arial" font-size="10.00">gmsh_particles.circle</text>
<text text-anchor="middle" x="225.5" y="-535" font-family="Arial" font-size="10.00">_mesh_symmetric</text>
</a>
</g>
</g>
<!-- Node1&#45;&gt;Node4 -->
<g id="edge3_Node000001_Node000004" class="edge">
<title>Node1&#45;&gt;Node4</title>
<g id="a_edge3_Node000001_Node000004"><a xlink:title=" ">
<path fill="none" stroke="#63b8ff" d="M381.88,-346.84C370.99,-385.27 342.01,-470.33 288,-519 284.25,-522.38 279.98,-525.3 275.47,-527.83"/>
<polygon fill="#63b8ff" stroke="#63b8ff" points="385.34,-347.47 384.58,-336.91 378.58,-345.64 385.34,-347.47"/>
</a>
</g>
</g>
<!-- Node6 -->
<g id="Node000006" class="node">
<title>Node6</title>
<g id="a_Node000006"><a xlink:href="namespacegmsh__particles.html#aa341105f1573b81a7fd2cc7c7c90c0b1" target="_top" xlink:title=" ">
<polygon fill="white" stroke="#666666" points="282.5,-510 168.5,-510 168.5,-480 282.5,-480 282.5,-510"/>
<text text-anchor="start" x="176.5" y="-498" font-family="Arial" font-size="10.00">gmsh_particles.cuboid</text>
<text text-anchor="middle" x="225.5" y="-487" font-family="Arial" font-size="10.00">_mesh_symmetric</text>
</a>
</g>
</g>
<!-- Node1&#45;&gt;Node6 -->
<g id="edge5_Node000001_Node000006" class="edge">
<title>Node1&#45;&gt;Node6</title>
<g id="a_edge5_Node000001_Node000006"><a xlink:title=" ">
<path fill="none" stroke="#63b8ff" d="M378.57,-345.96C364.16,-376.35 332.02,-436.1 288,-471 283.69,-474.42 278.83,-477.4 273.79,-479.98"/>
<polygon fill="#63b8ff" stroke="#63b8ff" points="381.91,-347.07 382.92,-336.52 375.55,-344.14 381.91,-347.07"/>
</a>
</g>
</g>
<!-- Node7 -->
<g id="Node000007" class="node">
<title>Node7</title>
<g id="a_Node000007"><a xlink:href="namespacegmsh__particles.html#a3d721b1745fe6fbb45b8edf547b2c711" target="_top" xlink:title=" ">
<polygon fill="white" stroke="#666666" points="285,-462 166,-462 166,-432 285,-432 285,-462"/>
<text text-anchor="start" x="174" y="-450" font-family="Arial" font-size="10.00">gmsh_particles.cylinder</text>
<text text-anchor="middle" x="225.5" y="-439" font-family="Arial" font-size="10.00">_mesh_symmetric</text>
</a>
</g>
</g>
<!-- Node1&#45;&gt;Node7 -->
<g id="edge6_Node000001_Node000007" class="edge">
<title>Node1&#45;&gt;Node7</title>
<g id="a_edge6_Node000001_Node000007"><a xlink:title=" ">
<path fill="none" stroke="#63b8ff" d="M372.74,-344.59C354.86,-365.68 322.35,-400.94 288,-423 282.89,-426.28 277.26,-429.24 271.54,-431.85"/>
<polygon fill="#63b8ff" stroke="#63b8ff" points="375.56,-346.67 379.27,-336.75 370.18,-342.19 375.56,-346.67"/>
</a>
</g>
</g>
<!-- Node8 -->
<g id="Node000008" class="node">
<title>Node8</title>
<g id="a_Node000008"><a xlink:href="namespacegmsh__particles.html#a8909a20e19ab6af8bcc5387d26814639" target="_top" xlink:title=" ">
<polygon fill="white" stroke="#666666" points="284.5,-414 166.5,-414 166.5,-384 284.5,-384 284.5,-414"/>
<text text-anchor="start" x="174.5" y="-402" font-family="Arial" font-size="10.00">gmsh_particles.drum2d</text>
<text text-anchor="middle" x="225.5" y="-391" font-family="Arial" font-size="10.00">_mesh_symmetric</text>
</a>
</g>
</g>
<!-- Node1&#45;&gt;Node8 -->
<g id="edge7_Node000001_Node000008" class="edge">
<title>Node1&#45;&gt;Node8</title>
<g id="a_edge7_Node000001_Node000008"><a xlink:title=" ">
<path fill="none" stroke="#63b8ff" d="M359.2,-341.21C339.51,-351.09 312.37,-364.36 288,-375 281.07,-378.03 273.62,-381.09 266.39,-383.97"/>
<polygon fill="#63b8ff" stroke="#63b8ff" points="360.88,-344.28 368.23,-336.65 357.72,-338.04 360.88,-344.28"/>
</a>
</g>
</g>
<!-- Node9 -->
<g id="Node000009" class="node">
<title>Node9</title>
<g id="a_Node000009"><a xlink:href="namespacegmsh__particles.html#af5c1ef25240c478c454be8eaa4ac9a4a" target="_top" xlink:title=" ">
<polygon fill="white" stroke="#666666" points="282,-366 169,-366 169,-336 282,-336 282,-366"/>
<text text-anchor="start" x="177" y="-354" font-family="Arial" font-size="10.00">gmsh_particles.ellipse</text>
<text text-anchor="middle" x="225.5" y="-343" font-family="Arial" font-size="10.00">_mesh_symmetric</text>
</a>
</g>
</g>
<!-- Node1&#45;&gt;Node9 -->
<g id="edge8_Node000001_Node000009" class="edge">
<title>Node1&#45;&gt;Node9</title>
<g id="a_edge8_Node000001_Node000009"><a xlink:title=" ">
<path fill="none" stroke="#63b8ff" d="M313.54,-337.98C303,-339.56 292.31,-341.16 282.2,-342.67"/>
<polygon fill="#63b8ff" stroke="#63b8ff" points="314.19,-341.43 323.57,-336.49 313.16,-334.5 314.19,-341.43"/>
</a>
</g>
</g>
<!-- Node10 -->
<g id="Node000010" class="node">
<title>Node10</title>
<g id="a_Node000010"><a xlink:href="namespacegmsh__particles.html#aafeaa93f4627014cfbc97a140bd81682" target="_top" xlink:title=" ">
<polygon fill="white" stroke="#666666" points="286,-318 165,-318 165,-288 286,-288 286,-318"/>
<text text-anchor="start" x="173" y="-306" font-family="Arial" font-size="10.00">gmsh_particles.ellipsoid</text>
<text text-anchor="middle" x="225.5" y="-295" font-family="Arial" font-size="10.00">_mesh_symmetric</text>
</a>
</g>
</g>
<!-- Node1&#45;&gt;Node10 -->
<g id="edge9_Node000001_Node000010" class="edge">
<title>Node1&#45;&gt;Node10</title>
<g id="a_edge9_Node000001_Node000010"><a xlink:title=" ">
<path fill="none" stroke="#63b8ff" d="M313.63,-316.03C304.4,-314.65 295.05,-313.25 286.08,-311.91"/>
<polygon fill="#63b8ff" stroke="#63b8ff" points="313.16,-319.5 323.57,-317.51 314.19,-312.57 313.16,-319.5"/>
</a>
</g>
</g>
<!-- Node11 -->
<g id="Node000011" class="node">
<title>Node11</title>
<g id="a_Node000011"><a xlink:href="namespacegmsh__particles.html#a4ad630d57e69747a673e2191b8d68bf9" target="_top" xlink:title=" ">
<polygon fill="white" stroke="#666666" points="286.5,-270 164.5,-270 164.5,-240 286.5,-240 286.5,-270"/>
<text text-anchor="start" x="172.5" y="-258" font-family="Arial" font-size="10.00">gmsh_particles.hexagon</text>
<text text-anchor="middle" x="225.5" y="-247" font-family="Arial" font-size="10.00">_mesh_symmetric</text>
</a>
</g>
</g>
<!-- Node1&#45;&gt;Node11 -->
<g id="edge10_Node000001_Node000011" class="edge">
<title>Node1&#45;&gt;Node11</title>
<g id="a_edge10_Node000001_Node000011"><a xlink:title=" ">
<path fill="none" stroke="#63b8ff" d="M359.2,-312.79C339.51,-302.91 312.37,-289.64 288,-279 281.07,-275.97 273.62,-272.91 266.39,-270.03"/>
<polygon fill="#63b8ff" stroke="#63b8ff" points="357.72,-315.96 368.23,-317.35 360.88,-309.72 357.72,-315.96"/>
</a>
</g>
</g>
<!-- Node12 -->
<g id="Node000012" class="node">
<title>Node12</title>
<g id="a_Node000012"><a xlink:href="namespacegmsh__particles.html#a391a8f8b2b6fc1c040dff76ae2f87b3b" target="_top" xlink:title=" ">
<polygon fill="white" stroke="#666666" points="279,-222 172,-222 172,-192 279,-192 279,-222"/>
<text text-anchor="start" x="180" y="-210" font-family="Arial" font-size="10.00">gmsh_particles.open</text>
<text text-anchor="middle" x="225.5" y="-199" font-family="Arial" font-size="10.00">_rectangle_mesh</text>
</a>
</g>
</g>
<!-- Node1&#45;&gt;Node12 -->
<g id="edge11_Node000001_Node000012" class="edge">
<title>Node1&#45;&gt;Node12</title>
<g id="a_edge11_Node000001_Node000012"><a xlink:title=" ">
<path fill="none" stroke="#63b8ff" d="M372.74,-309.41C354.86,-288.32 322.35,-253.06 288,-231 282.89,-227.72 277.26,-224.76 271.54,-222.15"/>
<polygon fill="#63b8ff" stroke="#63b8ff" points="370.18,-311.81 379.27,-317.25 375.56,-307.33 370.18,-311.81"/>
</a>
</g>
</g>
<!-- Node13 -->
<g id="Node000013" class="node">
<title>Node13</title>
<g id="a_Node000013"><a xlink:href="namespacegmsh__particles.html#a6e6ea1a434988f51bfe21cc99e6504d6" target="_top" xlink:title=" ">
<polygon fill="white" stroke="#666666" points="285,-174 166,-174 166,-144 285,-144 285,-174"/>
<text text-anchor="start" x="174" y="-162" font-family="Arial" font-size="10.00">gmsh_particles.polygon</text>
<text text-anchor="middle" x="225.5" y="-151" font-family="Arial" font-size="10.00">_mesh_symmetric</text>
</a>
</g>
</g>
<!-- Node1&#45;&gt;Node13 -->
<g id="edge12_Node000001_Node000013" class="edge">
<title>Node1&#45;&gt;Node13</title>
<g id="a_edge12_Node000001_Node000013"><a xlink:title=" ">
<path fill="none" stroke="#63b8ff" d="M378.57,-308.04C364.16,-277.65 332.02,-217.9 288,-183 283.69,-179.58 278.83,-176.6 273.79,-174.02"/>
<polygon fill="#63b8ff" stroke="#63b8ff" points="375.55,-309.86 382.92,-317.48 381.91,-306.93 375.55,-309.86"/>
</a>
</g>
</g>
<!-- Node14 -->
<g id="Node000014" class="node">
<title>Node14</title>
<g id="a_Node000014"><a xlink:href="namespacegmsh__particles.html#aa4c13c2cd9c738929f6ac653b74ca07b" target="_top" xlink:title=" ">
<polygon fill="white" stroke="#666666" points="288,-126 163,-126 163,-96 288,-96 288,-126"/>
<text text-anchor="start" x="171" y="-114" font-family="Arial" font-size="10.00">gmsh_particles.rectangle</text>
<text text-anchor="middle" x="225.5" y="-103" font-family="Arial" font-size="10.00">_mesh_symmetric</text>
</a>
</g>
</g>
<!-- Node1&#45;&gt;Node14 -->
<g id="edge13_Node000001_Node000014" class="edge">
<title>Node1&#45;&gt;Node14</title>
<g id="a_edge13_Node000001_Node000014"><a xlink:title=" ">
<path fill="none" stroke="#63b8ff" d="M381.88,-307.16C370.99,-268.73 342.01,-183.67 288,-135 284.25,-131.62 279.98,-128.7 275.47,-126.17"/>
<polygon fill="#63b8ff" stroke="#63b8ff" points="378.58,-308.36 384.58,-317.09 385.34,-306.53 378.58,-308.36"/>
</a>
</g>
</g>
<!-- Node15 -->
<g id="Node000015" class="node">
<title>Node15</title>
<g id="a_Node000015"><a xlink:href="namespacegmsh__particles.html#a3165137802620fd0b40b1d738101db94" target="_top" xlink:title=" ">
<polygon fill="white" stroke="#666666" points="283,-78 168,-78 168,-48 283,-48 283,-78"/>
<text text-anchor="start" x="176" y="-66" font-family="Arial" font-size="10.00">gmsh_particles.sphere</text>
<text text-anchor="middle" x="225.5" y="-55" font-family="Arial" font-size="10.00">_mesh_symmetric</text>
</a>
</g>
</g>
<!-- Node1&#45;&gt;Node15 -->
<g id="edge15_Node000001_Node000015" class="edge">
<title>Node1&#45;&gt;Node15</title>
<g id="a_edge15_Node000001_Node000015"><a xlink:title=" ">
<path fill="none" stroke="#63b8ff" d="M384.21,-307.29C376.81,-262.18 352.66,-150.43 288,-87 284.48,-83.55 280.41,-80.58 276.07,-78.03"/>
<polygon fill="#63b8ff" stroke="#63b8ff" points="380.76,-307.9 385.74,-317.25 387.68,-306.84 380.76,-307.9"/>
</a>
</g>
</g>
<!-- Node16 -->
<g id="Node000016" class="node">
<title>Node16</title>
<g id="a_Node000016"><a xlink:href="namespacegmsh__particles.html#a197b7b0069dfed40167af646f1345d12" target="_top" xlink:title=" ">
<polygon fill="white" stroke="#666666" points="284,-30 167,-30 167,0 284,0 284,-30"/>
<text text-anchor="start" x="175" y="-18" font-family="Arial" font-size="10.00">gmsh_particles.triangle</text>
<text text-anchor="middle" x="225.5" y="-7" font-family="Arial" font-size="10.00">_mesh_symmetric</text>
</a>
</g>
</g>
<!-- Node1&#45;&gt;Node16 -->
<g id="edge16_Node000001_Node000016" class="edge">
<title>Node1&#45;&gt;Node16</title>
<g id="a_edge16_Node000001_Node000016"><a xlink:title=" ">
<path fill="none" stroke="#63b8ff" d="M385.77,-307.27C381.55,-256.08 363.39,-117.55 288,-39 284.75,-35.61 280.96,-32.69 276.89,-30.18"/>
<polygon fill="#63b8ff" stroke="#63b8ff" points="382.29,-307.6 386.51,-317.32 389.27,-307.09 382.29,-307.6"/>
</a>
</g>
</g>
<!-- Node5 -->
<g id="Node000005" class="node">
<title>Node5</title>
<g id="a_Node000005"><a xlink:href="namespacecircle__wall__input__using__symmetric__mesh.html#af6fc8d30f4a74bb437c3b7fbd099f15e" target="_top" xlink:title=" ">
<polygon fill="white" stroke="#666666" points="127,-347.5 0,-347.5 0,-306.5 127,-306.5 127,-347.5"/>
<text text-anchor="start" x="8" y="-335.5" font-family="Arial" font-size="10.00">circle_wall_input_using</text>
<text text-anchor="start" x="8" y="-324.5" font-family="Arial" font-size="10.00">_symmetric_mesh.create</text>
<text text-anchor="middle" x="63.5" y="-313.5" font-family="Arial" font-size="10.00">_input_file</text>
</a>
</g>
</g>
<!-- Node4&#45;&gt;Node5 -->
<g id="edge4_Node000004_Node000005" class="edge">
<title>Node4&#45;&gt;Node5</title>
<g id="a_edge4_Node000004_Node000005"><a xlink:title=" ">
<path fill="none" stroke="#63b8ff" d="M167.04,-522.33C165.64,-521.27 164.29,-520.16 163,-519 109.47,-470.67 80.75,-386.46 69.79,-347.66"/>
<polygon fill="#63b8ff" stroke="#63b8ff" points="165.23,-525.33 175.53,-527.84 169.04,-519.46 165.23,-525.33"/>
</a>
</g>
</g>
<!-- Node14&#45;&gt;Node5 -->
<g id="edge14_Node000014_Node000005" class="edge">
<title>Node14&#45;&gt;Node5</title>
<g id="a_edge14_Node000014_Node000005"><a xlink:title=" ">
<path fill="none" stroke="#63b8ff" d="M167.04,-131.67C165.64,-132.73 164.29,-133.84 163,-135 109.47,-183.33 80.75,-267.54 69.79,-306.34"/>
<polygon fill="#63b8ff" stroke="#63b8ff" points="169.04,-134.54 175.53,-126.16 165.23,-128.67 169.04,-134.54"/>
</a>
</g>
</g>
</g>
</svg>
