<?xml version="1.0" encoding="UTF-8" standalone="no"?>
<!DOCTYPE svg PUBLIC "-//W3C//DTD SVG 1.1//EN"
 "http://www.w3.org/Graphics/SVG/1.1/DTD/svg11.dtd">
<!-- Generated by graphviz version 2.43.0 (0)
 -->
<!-- Title: gmsh_particles.polygon_mesh_symmetric Pages: 1 -->
<svg width="417pt" height="172pt"
 viewBox="0.00 0.00 417.00 171.50" xmlns="http://www.w3.org/2000/svg" xmlns:xlink="http://www.w3.org/1999/xlink">
<g id="graph0" class="graph" transform="scale(1 1) rotate(0) translate(4 167.5)">
<title>gmsh_particles.polygon_mesh_symmetric</title>
<!-- Node1 -->
<g id="Node000001" class="node">
<title>Node1</title>
<g id="a_Node000001"><a xlink:title=" ">
<polygon fill="#999999" stroke="#666666" points="119,-91.5 0,-91.5 0,-61.5 119,-61.5 119,-91.5"/>
<text text-anchor="start" x="8" y="-79.5" font-family="Arial" font-size="10.00">gmsh_particles.polygon</text>
<text text-anchor="middle" x="59.5" y="-68.5" font-family="Arial" font-size="10.00">_mesh_symmetric</text>
</a>
</g>
</g>
<!-- Node2 -->
<g id="Node000002" class="node">
<title>Node2</title>
<g id="a_Node000002"><a xlink:href="namespacegeom__util.html#a13f030c6d181d0210c230fc01e33331c" target="_top" xlink:title=" ">
<polygon fill="white" stroke="#666666" points="284.5,-163.5 157.5,-163.5 157.5,-133.5 284.5,-133.5 284.5,-163.5"/>
<text text-anchor="start" x="165.5" y="-151.5" font-family="Arial" font-size="10.00">geom_util.check_hanging</text>
<text text-anchor="middle" x="221" y="-140.5" font-family="Arial" font-size="10.00">_nodes</text>
</a>
</g>
</g>
<!-- Node1&#45;&gt;Node2 -->
<g id="edge1_Node000001_Node000002" class="edge">
<title>Node1&#45;&gt;Node2</title>
<g id="a_edge1_Node000001_Node000002"><a xlink:title=" ">
<path fill="none" stroke="#63b8ff" d="M88.21,-91.65C106.83,-101.56 132.07,-114.48 155,-124.5 159.08,-126.28 163.34,-128.05 167.64,-129.77"/>
<polygon fill="#63b8ff" stroke="#63b8ff" points="166.47,-133.07 177.06,-133.45 169.02,-126.55 166.47,-133.07"/>
</a>
</g>
</g>
<!-- Node3 -->
<g id="Node000003" class="node">
<title>Node3</title>
<g id="a_Node000003"><a xlink:href="namespacegeom__util.html#a4cff2d2279e07cecdbff9c469cadc986" target="_top" xlink:title=" ">
<polygon fill="white" stroke="#666666" points="273,-115.5 169,-115.5 169,-85.5 273,-85.5 273,-115.5"/>
<text text-anchor="start" x="177" y="-103.5" font-family="Arial" font-size="10.00">geom_util.get_gmsh</text>
<text text-anchor="middle" x="221" y="-92.5" font-family="Arial" font-size="10.00">_entities</text>
</a>
</g>
</g>
<!-- Node1&#45;&gt;Node3 -->
<g id="edge2_Node000001_Node000003" class="edge">
<title>Node1&#45;&gt;Node3</title>
<g id="a_edge2_Node000001_Node000003"><a xlink:title=" ">
<path fill="none" stroke="#63b8ff" d="M119.44,-85.37C132.25,-87.3 145.84,-89.34 158.74,-91.28"/>
<polygon fill="#63b8ff" stroke="#63b8ff" points="158.5,-94.79 168.91,-92.81 159.54,-87.86 158.5,-94.79"/>
</a>
</g>
</g>
<!-- Node4 -->
<g id="Node000004" class="node">
<title>Node4</title>
<g id="a_Node000004"><a xlink:href="namespacegeom__util.html#a6e4b10f501c8203a352d2390f68b6561" target="_top" xlink:title=" ">
<polygon fill="white" stroke="#666666" points="287,-67.5 155,-67.5 155,-37.5 287,-37.5 287,-67.5"/>
<text text-anchor="start" x="163" y="-55.5" font-family="Arial" font-size="10.00">geom_util.gmsh_transform</text>
<text text-anchor="middle" x="221" y="-44.5" font-family="Arial" font-size="10.00">_general</text>
</a>
</g>
</g>
<!-- Node1&#45;&gt;Node4 -->
<g id="edge3_Node000001_Node000004" class="edge">
<title>Node1&#45;&gt;Node4</title>
<g id="a_edge3_Node000001_Node000004"><a xlink:title=" ">
<path fill="none" stroke="#63b8ff" d="M119.44,-67.63C127.73,-66.38 136.35,-65.09 144.89,-63.8"/>
<polygon fill="#63b8ff" stroke="#63b8ff" points="145.49,-67.25 154.86,-62.3 144.45,-60.33 145.49,-67.25"/>
</a>
</g>
</g>
<!-- Node6 -->
<g id="Node000006" class="node">
<title>Node6</title>
<g id="a_Node000006"><a xlink:href="namespacegeom__util.html#a0402fa3ab58c62403ff40506f3453665" target="_top" xlink:title=" ">
<polygon fill="white" stroke="#666666" points="285,-19 157,-19 157,0 285,0 285,-19"/>
<text text-anchor="middle" x="221" y="-7" font-family="Arial" font-size="10.00">geom_util.gmsh_translate</text>
</a>
</g>
</g>
<!-- Node1&#45;&gt;Node6 -->
<g id="edge5_Node000001_Node000006" class="edge">
<title>Node1&#45;&gt;Node6</title>
<g id="a_edge5_Node000001_Node000006"><a xlink:title=" ">
<path fill="none" stroke="#63b8ff" d="M86.77,-61.49C105.4,-51.26 131.22,-37.92 155,-28.5 160.81,-26.2 167.01,-24.03 173.19,-22.05"/>
<polygon fill="#63b8ff" stroke="#63b8ff" points="174.29,-25.37 182.82,-19.08 172.23,-18.68 174.29,-25.37"/>
</a>
</g>
</g>
<!-- Node5 -->
<g id="Node000005" class="node">
<title>Node5</title>
<g id="a_Node000005"><a xlink:href="namespacegeom__util.html#acd65ced5bcfff51014a4b8dc6e6a935e" target="_top" xlink:title=" ">
<polygon fill="white" stroke="#666666" points="409,-62 323,-62 323,-43 409,-43 409,-62"/>
<text text-anchor="middle" x="366" y="-50" font-family="Arial" font-size="10.00">geom_util.rotate</text>
</a>
</g>
</g>
<!-- Node4&#45;&gt;Node5 -->
<g id="edge4_Node000004_Node000005" class="edge">
<title>Node4&#45;&gt;Node5</title>
<g id="a_edge4_Node000004_Node000005"><a xlink:title=" ">
<path fill="none" stroke="#63b8ff" d="M287.22,-52.5C295.72,-52.5 304.33,-52.5 312.58,-52.5"/>
<polygon fill="#63b8ff" stroke="#63b8ff" points="312.79,-56 322.79,-52.5 312.79,-49 312.79,-56"/>
</a>
</g>
</g>
</g>
</svg>
