<?xml version="1.0" encoding="UTF-8" standalone="no"?>
<!DOCTYPE svg PUBLIC "-//W3C//DTD SVG 1.1//EN"
 "http://www.w3.org/Graphics/SVG/1.1/DTD/svg11.dtd">
<!-- Generated by graphviz version 2.43.0 (0)
 -->
<!-- Title: anonymous_namespace{materialUtil::cpp}::computeStateThetaxI Pages: 1 -->
<svg width="265pt" height="78pt"
 viewBox="0.00 0.00 265.00 77.50" xmlns="http://www.w3.org/2000/svg" xmlns:xlink="http://www.w3.org/1999/xlink">
<g id="graph0" class="graph" transform="scale(1 1) rotate(0) translate(4 73.5)">
<title>anonymous_namespace{materialUtil::cpp}::computeStateThetaxI</title>
<!-- Node1 -->
<g id="node1" class="node">
<title>Node1</title>
<g id="a_node1"><a xlink:title=" ">
<polygon fill="#bfbfbf" stroke="black" points="0,-11.5 0,-52.5 122,-52.5 122,-11.5 0,-11.5"/>
<text text-anchor="start" x="8" y="-40.5" font-family="Arial" font-size="10.00">anonymous_namespace</text>
<text text-anchor="start" x="8" y="-29.5" font-family="Arial" font-size="10.00">{materialUtil::cpp}</text>
<text text-anchor="middle" x="61" y="-18.5" font-family="Arial" font-size="10.00">::computeStateThetaxI</text>
</a>
</g>
</g>
<!-- Node2 -->
<g id="node2" class="node">
<title>Node2</title>
<g id="a_node2"><a xlink:href="classgeometry_1_1Fracture.html#ac40df77d5550a91355d71614ab091a7c" target="_top" xlink:title="Read bond state.">
<polygon fill="none" stroke="black" points="158,-39 158,-69 257,-69 257,-39 158,-39"/>
<text text-anchor="start" x="166" y="-57" font-family="Arial" font-size="10.00">geometry::Fracture</text>
<text text-anchor="middle" x="207.5" y="-46" font-family="Arial" font-size="10.00">::getBondState</text>
</a>
</g>
</g>
<!-- Node1&#45;&gt;Node2 -->
<g id="edge1" class="edge">
<title>Node1&#45;&gt;Node2</title>
<path fill="none" stroke="midnightblue" d="M122.03,-41.14C130.61,-42.45 139.43,-43.79 147.98,-45.09"/>
<polygon fill="midnightblue" stroke="midnightblue" points="147.46,-48.55 157.87,-46.6 148.51,-41.63 147.46,-48.55"/>
</g>
<!-- Node3 -->
<g id="node3" class="node">
<title>Node3</title>
<g id="a_node3"><a xlink:href="namespaceutil.html#a227b5f8acbd7a403a033663c8893d631" target="_top" xlink:title="Returns true if a &gt; b.">
<polygon fill="none" stroke="black" points="170,-0.5 170,-19.5 245,-19.5 245,-0.5 170,-0.5"/>
<text text-anchor="middle" x="207.5" y="-7.5" font-family="Arial" font-size="10.00">util::isGreater</text>
</a>
</g>
</g>
<!-- Node1&#45;&gt;Node3 -->
<g id="edge2" class="edge">
<title>Node1&#45;&gt;Node3</title>
<path fill="none" stroke="midnightblue" d="M122.03,-22.86C134.62,-20.94 147.72,-18.95 159.75,-17.12"/>
<polygon fill="midnightblue" stroke="midnightblue" points="160.64,-20.52 170,-15.56 159.58,-13.6 160.64,-20.52"/>
</g>
</g>
</svg>
