<?xml version="1.0" encoding="UTF-8" standalone="no"?>
<!DOCTYPE svg PUBLIC "-//W3C//DTD SVG 1.1//EN"
 "http://www.w3.org/Graphics/SVG/1.1/DTD/svg11.dtd">
<!-- Generated by graphviz version 2.43.0 (0)
 -->
<!-- Title: util::parallel::getNThreads Pages: 1 -->
<svg width="1160pt" height="1298pt"
 viewBox="0.00 0.00 1160.00 1298.00" xmlns="http://www.w3.org/2000/svg" xmlns:xlink="http://www.w3.org/1999/xlink">
<g id="graph0" class="graph" transform="scale(1 1) rotate(0) translate(4 1294)">
<title>util::parallel::getNThreads</title>
<!-- Node1 -->
<g id="Node000001" class="node">
<title>Node1</title>
<g id="a_Node000001"><a xlink:title="Get number of threads to be used by taskflow.">
<polygon fill="#999999" stroke="#666666" points="1152,-705.5 1024,-705.5 1024,-686.5 1152,-686.5 1152,-705.5"/>
<text text-anchor="middle" x="1088" y="-693.5" font-family="Arial" font-size="10.00">util::parallel::getNThreads</text>
</a>
</g>
</g>
<!-- Node2 -->
<g id="Node000002" class="node">
<title>Node2</title>
<g id="a_Node000002"><a xlink:href="classloading_1_1ParticleFLoading.html#a2e8569d614c740abc52d65858d548d1e" target="_top" xlink:title="Applies force boundary condition.">
<polygon fill="white" stroke="#666666" points="957.5,-1290 831.5,-1290 831.5,-1260 957.5,-1260 957.5,-1290"/>
<text text-anchor="start" x="839.5" y="-1278" font-family="Arial" font-size="10.00">loading::ParticleFLoading</text>
<text text-anchor="middle" x="894.5" y="-1267" font-family="Arial" font-size="10.00">::apply</text>
</a>
</g>
</g>
<!-- Node1&#45;&gt;Node2 -->
<g id="edge1_Node000001_Node000002" class="edge">
<title>Node1&#45;&gt;Node2</title>
<g id="a_edge1_Node000001_Node000002"><a xlink:title=" ">
<path fill="none" stroke="#63b8ff" d="M1086.25,-715.87C1082.44,-805.4 1062.52,-1170.49 988,-1251 979.89,-1259.77 969.02,-1265.5 957.59,-1269.21"/>
<polygon fill="#63b8ff" stroke="#63b8ff" points="1089.75,-715.86 1086.66,-705.73 1082.75,-715.58 1089.75,-715.86"/>
</a>
</g>
</g>
<!-- Node3 -->
<g id="Node000003" class="node">
<title>Node3</title>
<g id="a_Node000003"><a xlink:href="classloading_1_1ParticleULoading.html#aa734f05394a34f72b09a52276e395d54" target="_top" xlink:title="Applies displacement boundary condition.">
<polygon fill="white" stroke="#666666" points="958.5,-1242 830.5,-1242 830.5,-1212 958.5,-1212 958.5,-1242"/>
<text text-anchor="start" x="838.5" y="-1230" font-family="Arial" font-size="10.00">loading::ParticleULoading</text>
<text text-anchor="middle" x="894.5" y="-1219" font-family="Arial" font-size="10.00">::apply</text>
</a>
</g>
</g>
<!-- Node1&#45;&gt;Node3 -->
<g id="edge2_Node000001_Node000003" class="edge">
<title>Node1&#45;&gt;Node3</title>
<g id="a_edge2_Node000001_Node000003"><a xlink:title=" ">
<path fill="none" stroke="#63b8ff" d="M1085.89,-715.74C1080.73,-800.22 1056.44,-1130.25 988,-1203 980.16,-1211.34 969.82,-1216.92 958.91,-1220.64"/>
<polygon fill="#63b8ff" stroke="#63b8ff" points="1089.39,-715.89 1086.48,-705.7 1082.4,-715.48 1089.39,-715.89"/>
</a>
</g>
</g>
<!-- Node4 -->
<g id="Node000004" class="node">
<title>Node4</title>
<g id="a_Node000004"><a xlink:href="classmodel_1_1DEMModel.html#a3d7f1aa3dd1f1301e33ecb8841e3d07d" target="_top" xlink:title="Applies initial condition.">
<polygon fill="white" stroke="#666666" points="566,-1122 416,-1122 416,-1092 566,-1092 566,-1122"/>
<text text-anchor="start" x="424" y="-1110" font-family="Arial" font-size="10.00">model::DEMModel::applyInitial</text>
<text text-anchor="middle" x="491" y="-1099" font-family="Arial" font-size="10.00">Condition</text>
</a>
</g>
</g>
<!-- Node1&#45;&gt;Node4 -->
<g id="edge3_Node000001_Node000004" class="edge">
<title>Node1&#45;&gt;Node4</title>
<g id="a_edge3_Node000001_Node000004"><a xlink:title=" ">
<path fill="none" stroke="#63b8ff" d="M1085.09,-715.95C1077.63,-789.21 1047.89,-1041.62 988,-1090 925.16,-1140.76 688.3,-1126.28 566.04,-1114.9"/>
<polygon fill="#63b8ff" stroke="#63b8ff" points="1088.59,-716.09 1086.1,-705.79 1081.63,-715.4 1088.59,-716.09"/>
</a>
</g>
</g>
<!-- Node8 -->
<g id="Node000008" class="node">
<title>Node8</title>
<g id="a_Node000008"><a xlink:href="classmodel_1_1DEMModel.html#a5f63a024b52174fed79847ce0b0f473f" target="_top" xlink:title="Computes contact forces.">
<polygon fill="white" stroke="#666666" points="965,-909 824,-909 824,-879 965,-879 965,-909"/>
<text text-anchor="start" x="832" y="-897" font-family="Arial" font-size="10.00">model::DEMModel::compute</text>
<text text-anchor="middle" x="894.5" y="-886" font-family="Arial" font-size="10.00">ContactForces</text>
</a>
</g>
</g>
<!-- Node1&#45;&gt;Node8 -->
<g id="edge7_Node000001_Node000008" class="edge">
<title>Node1&#45;&gt;Node8</title>
<g id="a_edge7_Node000001_Node000008"><a xlink:title=" ">
<path fill="none" stroke="#63b8ff" d="M1081.49,-715.51C1070.21,-751.73 1041.01,-829.39 988,-870 981.15,-875.25 973.27,-879.35 965.05,-882.56"/>
<polygon fill="#63b8ff" stroke="#63b8ff" points="1084.91,-716.27 1084.42,-705.68 1078.2,-714.27 1084.91,-716.27"/>
</a>
</g>
</g>
<!-- Node9 -->
<g id="Node000009" class="node">
<title>Node9</title>
<g id="a_Node000009"><a xlink:href="classmodel_1_1DEMModel.html#a097676df220204cfd44cc49110375e40" target="_top" xlink:title="Computes external/boundary condition forces.">
<polygon fill="white" stroke="#666666" points="965,-1081 824,-1081 824,-1051 965,-1051 965,-1081"/>
<text text-anchor="start" x="832" y="-1069" font-family="Arial" font-size="10.00">model::DEMModel::compute</text>
<text text-anchor="middle" x="894.5" y="-1058" font-family="Arial" font-size="10.00">ExternalForces</text>
</a>
</g>
</g>
<!-- Node1&#45;&gt;Node9 -->
<g id="edge8_Node000001_Node000009" class="edge">
<title>Node1&#45;&gt;Node9</title>
<g id="a_edge8_Node000001_Node000009"><a xlink:title=" ">
<path fill="none" stroke="#63b8ff" d="M1087.65,-715.83C1088.43,-774.69 1082.34,-949.97 988,-1042 981.59,-1048.26 973.76,-1052.94 965.41,-1056.44"/>
<polygon fill="#63b8ff" stroke="#63b8ff" points="1091.14,-715.59 1087.42,-705.67 1084.14,-715.75 1091.14,-715.59"/>
</a>
</g>
</g>
<!-- Node10 -->
<g id="Node000010" class="node">
<title>Node10</title>
<g id="a_Node000010"><a xlink:href="classperidynamics_1_1Model.html#a12ba5443520b3c6adff0b1ffaae58633" target="_top" xlink:title="Compute forces.">
<polygon fill="white" stroke="#666666" points="737,-998 630,-998 630,-968 737,-968 737,-998"/>
<text text-anchor="start" x="638" y="-986" font-family="Arial" font-size="10.00">peridynamics::Model</text>
<text text-anchor="middle" x="683.5" y="-975" font-family="Arial" font-size="10.00">::computeForces</text>
</a>
</g>
</g>
<!-- Node1&#45;&gt;Node10 -->
<g id="edge12_Node000001_Node000010" class="edge">
<title>Node1&#45;&gt;Node10</title>
<g id="a_edge12_Node000001_Node000010"><a xlink:title=" ">
<path fill="none" stroke="#63b8ff" d="M1086.62,-715.58C1084.44,-766.73 1070.8,-904.66 988,-966 949.57,-994.47 813.42,-991.15 737.19,-986.78"/>
<polygon fill="#63b8ff" stroke="#63b8ff" points="1090.12,-715.64 1086.94,-705.53 1083.12,-715.41 1090.12,-715.64"/>
</a>
</g>
</g>
<!-- Node11 -->
<g id="Node000011" class="node">
<title>Node11</title>
<g id="a_Node000011"><a xlink:href="classmodel_1_1DEMModel.html#aa6280fa8bb694b07e3d7867f618660ca" target="_top" xlink:title="Computes peridynamic forces and contact forces.">
<polygon fill="white" stroke="#666666" points="965,-861 824,-861 824,-831 965,-831 965,-861"/>
<text text-anchor="start" x="832" y="-849" font-family="Arial" font-size="10.00">model::DEMModel::compute</text>
<text text-anchor="middle" x="894.5" y="-838" font-family="Arial" font-size="10.00">Forces</text>
</a>
</g>
</g>
<!-- Node1&#45;&gt;Node11 -->
<g id="edge11_Node000001_Node000011" class="edge">
<title>Node1&#45;&gt;Node11</title>
<g id="a_edge11_Node000001_Node000011"><a xlink:title=" ">
<path fill="none" stroke="#63b8ff" d="M1077.51,-714.69C1062.42,-742.47 1030.3,-794.33 988,-822 981.06,-826.54 973.3,-830.22 965.31,-833.21"/>
<polygon fill="#63b8ff" stroke="#63b8ff" points="1080.71,-716.12 1082.28,-705.64 1074.52,-712.85 1080.71,-716.12"/>
</a>
</g>
</g>
<!-- Node12 -->
<g id="Node000012" class="node">
<title>Node12</title>
<g id="a_Node000012"><a xlink:href="namespacematerial.html#a51d103d2b157a839b298520c9e59e3dd" target="_top" xlink:title=" ">
<polygon fill="white" stroke="#666666" points="967,-813 822,-813 822,-783 967,-783 967,-813"/>
<text text-anchor="start" x="830" y="-801" font-family="Arial" font-size="10.00">material::computeHydrostatic</text>
<text text-anchor="middle" x="894.5" y="-790" font-family="Arial" font-size="10.00">Strain</text>
</a>
</g>
</g>
<!-- Node1&#45;&gt;Node12 -->
<g id="edge13_Node000001_Node000012" class="edge">
<title>Node1&#45;&gt;Node12</title>
<g id="a_edge13_Node000001_Node000012"><a xlink:title=" ">
<path fill="none" stroke="#63b8ff" d="M1070.21,-712.88C1051.64,-730.6 1020.1,-758.07 988,-774 981.16,-777.39 973.8,-780.34 966.31,-782.89"/>
<polygon fill="#63b8ff" stroke="#63b8ff" points="1072.84,-715.2 1077.56,-705.72 1067.95,-710.19 1072.84,-715.2"/>
</a>
</g>
</g>
<!-- Node13 -->
<g id="Node000013" class="node">
<title>Node13</title>
<g id="a_Node000013"><a xlink:href="classmodel_1_1DEMModel.html#a4c0275eddc75140b364e5012d3609df6" target="_top" xlink:title="Computes peridynamic forces.">
<polygon fill="white" stroke="#666666" points="965,-957 824,-957 824,-927 965,-927 965,-957"/>
<text text-anchor="start" x="832" y="-945" font-family="Arial" font-size="10.00">model::DEMModel::compute</text>
<text text-anchor="middle" x="894.5" y="-934" font-family="Arial" font-size="10.00">PeridynamicForces</text>
</a>
</g>
</g>
<!-- Node1&#45;&gt;Node13 -->
<g id="edge14_Node000001_Node000013" class="edge">
<title>Node1&#45;&gt;Node13</title>
<g id="a_edge14_Node000001_Node000013"><a xlink:title=" ">
<path fill="none" stroke="#63b8ff" d="M1084.06,-715.64C1076.51,-759.04 1052.29,-863.56 988,-918 981.29,-923.68 973.39,-928.04 965.09,-931.38"/>
<polygon fill="#63b8ff" stroke="#63b8ff" points="1087.52,-716.2 1085.67,-705.77 1080.61,-715.07 1087.52,-716.2"/>
</a>
</g>
</g>
<!-- Node14 -->
<g id="Node000014" class="node">
<title>Node14</title>
<g id="a_Node000014"><a xlink:href="namespacematerial.html#a3d863a3738051cdc61931186eede7edd" target="_top" xlink:title="Computes the moment &#160;term in state&#45;based peridynamic formulation.">
<polygon fill="white" stroke="#666666" points="960,-1032.5 829,-1032.5 829,-1013.5 960,-1013.5 960,-1032.5"/>
<text text-anchor="middle" x="894.5" y="-1020.5" font-family="Arial" font-size="10.00">material::computeStateMx</text>
</a>
</g>
</g>
<!-- Node1&#45;&gt;Node14 -->
<g id="edge16_Node000001_Node000014" class="edge">
<title>Node1&#45;&gt;Node14</title>
<g id="a_edge16_Node000001_Node000014"><a xlink:title=" ">
<path fill="none" stroke="#63b8ff" d="M1086.7,-715.84C1084.78,-769.76 1071.78,-920.26 988,-999 980.14,-1006.39 970.31,-1011.57 960.02,-1015.19"/>
<polygon fill="#63b8ff" stroke="#63b8ff" points="1090.21,-715.68 1086.97,-705.59 1083.21,-715.5 1090.21,-715.68"/>
</a>
</g>
</g>
<!-- Node16 -->
<g id="Node000016" class="node">
<title>Node16</title>
<g id="a_Node000016"><a xlink:href="namespacematerial.html#a3d49a122cdb6ea01d6194d46b60e4b9b" target="_top" xlink:title=" ">
<polygon fill="white" stroke="#666666" points="968.5,-764.5 820.5,-764.5 820.5,-745.5 968.5,-745.5 968.5,-764.5"/>
<text text-anchor="middle" x="894.5" y="-752.5" font-family="Arial" font-size="10.00">material::computeStateThetax</text>
</a>
</g>
</g>
<!-- Node1&#45;&gt;Node16 -->
<g id="edge19_Node000001_Node000016" class="edge">
<title>Node1&#45;&gt;Node16</title>
<g id="a_edge19_Node000001_Node000016"><a xlink:title=" ">
<path fill="none" stroke="#63b8ff" d="M1058.11,-709.77C1038.66,-718.59 1012.23,-729.71 988,-737 977.19,-740.25 965.49,-743.06 954.16,-745.43"/>
<polygon fill="#63b8ff" stroke="#63b8ff" points="1059.71,-712.89 1067.33,-705.53 1056.78,-706.53 1059.71,-712.89"/>
</a>
</g>
</g>
<!-- Node17 -->
<g id="Node000017" class="node">
<title>Node17</title>
<g id="a_Node000017"><a xlink:href="classfe_1_1Mesh.html#ad8e7d706e7378a729c22842bfbf6af3b" target="_top" xlink:title="Compute the nodal volume.">
<polygon fill="white" stroke="#666666" points="950.5,-727.5 838.5,-727.5 838.5,-708.5 950.5,-708.5 950.5,-727.5"/>
<text text-anchor="middle" x="894.5" y="-715.5" font-family="Arial" font-size="10.00">fe::Mesh::computeVol</text>
</a>
</g>
</g>
<!-- Node1&#45;&gt;Node17 -->
<g id="edge20_Node000001_Node000017" class="edge">
<title>Node1&#45;&gt;Node17</title>
<g id="a_edge20_Node000001_Node000017"><a xlink:title=" ">
<path fill="none" stroke="#63b8ff" d="M1013.63,-704.43C992.71,-706.83 970.27,-709.41 950.63,-711.67"/>
<polygon fill="#63b8ff" stroke="#63b8ff" points="1014.23,-707.88 1023.77,-703.26 1013.43,-700.93 1014.23,-707.88"/>
</a>
</g>
</g>
<!-- Node18 -->
<g id="Node000018" class="node">
<title>Node18</title>
<g id="a_Node000018"><a xlink:href="classgeometry_1_1Fracture.html#ae7d9aa19eb5b0ceb5d5016bd72b80a7d" target="_top" xlink:title="Constructor.">
<polygon fill="white" stroke="#666666" points="944,-690 845,-690 845,-660 944,-660 944,-690"/>
<text text-anchor="start" x="853" y="-678" font-family="Arial" font-size="10.00">geometry::Fracture</text>
<text text-anchor="middle" x="894.5" y="-667" font-family="Arial" font-size="10.00">::Fracture</text>
</a>
</g>
</g>
<!-- Node1&#45;&gt;Node18 -->
<g id="edge21_Node000001_Node000018" class="edge">
<title>Node1&#45;&gt;Node18</title>
<g id="a_edge21_Node000001_Node000018"><a xlink:title=" ">
<path fill="none" stroke="#63b8ff" d="M1013.58,-687.95C990.31,-685.4 965.18,-682.64 944.11,-680.33"/>
<polygon fill="#63b8ff" stroke="#63b8ff" points="1013.44,-691.45 1023.77,-689.07 1014.21,-684.5 1013.44,-691.45"/>
</a>
</g>
</g>
<!-- Node19 -->
<g id="Node000019" class="node">
<title>Node19</title>
<g id="a_Node000019"><a xlink:href="namespacefe.html#aeecd141ec0e6723bdddd740903cb95f8" target="_top" xlink:title="Get current location of quadrature points of elements in the mesh. This function expects mesh has ele...">
<polygon fill="white" stroke="#666666" points="958.5,-1156.5 830.5,-1156.5 830.5,-1137.5 958.5,-1137.5 958.5,-1156.5"/>
<text text-anchor="middle" x="894.5" y="-1144.5" font-family="Arial" font-size="10.00">fe::getCurrentQuadPoints</text>
</a>
</g>
</g>
<!-- Node1&#45;&gt;Node19 -->
<g id="edge22_Node000001_Node000019" class="edge">
<title>Node1&#45;&gt;Node19</title>
<g id="a_edge22_Node000001_Node000019"><a xlink:title=" ">
<path fill="none" stroke="#63b8ff" d="M1085.11,-715.69C1077.46,-791.48 1046.34,-1063.12 988,-1123 980.01,-1131.2 969.61,-1136.72 958.68,-1140.42"/>
<polygon fill="#63b8ff" stroke="#63b8ff" points="1088.61,-715.92 1086.11,-705.62 1081.64,-715.23 1088.61,-715.92"/>
</a>
</g>
</g>
<!-- Node23 -->
<g id="Node000023" class="node">
<title>Node23</title>
<g id="a_Node000023"><a xlink:href="namespacefe.html#a7beb694686b61d7cda5b67aa4bc01104" target="_top" xlink:title="Strain and stress at quadrature points in the mesh.">
<polygon fill="white" stroke="#666666" points="943.5,-1193.5 845.5,-1193.5 845.5,-1174.5 943.5,-1174.5 943.5,-1193.5"/>
<text text-anchor="middle" x="894.5" y="-1181.5" font-family="Arial" font-size="10.00">fe::getStrainStress</text>
</a>
</g>
</g>
<!-- Node1&#45;&gt;Node23 -->
<g id="edge28_Node000001_Node000023" class="edge">
<title>Node1&#45;&gt;Node23</title>
<g id="a_edge28_Node000001_Node000023"><a xlink:title=" ">
<path fill="none" stroke="#63b8ff" d="M1085.65,-716.19C1079.76,-797.71 1053.69,-1101.31 988,-1166 976.34,-1177.48 959.68,-1182.74 943.7,-1184.88"/>
<polygon fill="#63b8ff" stroke="#63b8ff" points="1089.16,-716.05 1086.37,-705.83 1082.18,-715.56 1089.16,-716.05"/>
</a>
</g>
</g>
<!-- Node24 -->
<g id="Node000024" class="node">
<title>Node24</title>
<g id="a_Node000024"><a xlink:href="classmodel_1_1DEMModel.html#abd7dd108a6c28579f46f4782e95d2ff6" target="_top" xlink:title="Perform time integration using central&#45;difference scheme.">
<polygon fill="white" stroke="#666666" points="972.5,-641.5 816.5,-641.5 816.5,-622.5 972.5,-622.5 972.5,-641.5"/>
<text text-anchor="middle" x="894.5" y="-629.5" font-family="Arial" font-size="10.00">model::DEMModel::integrateCD</text>
</a>
</g>
</g>
<!-- Node1&#45;&gt;Node24 -->
<g id="edge31_Node000001_Node000024" class="edge">
<title>Node1&#45;&gt;Node24</title>
<g id="a_edge31_Node000001_Node000024"><a xlink:title=" ">
<path fill="none" stroke="#63b8ff" d="M1060.31,-681.89C1040.75,-672.04 1013.3,-659.23 988,-651 976.62,-647.3 964.21,-644.16 952.28,-641.57"/>
<polygon fill="#63b8ff" stroke="#63b8ff" points="1058.74,-685.02 1069.24,-686.45 1061.93,-678.79 1058.74,-685.02"/>
</a>
</g>
</g>
<!-- Node25 -->
<g id="Node000025" class="node">
<title>Node25</title>
<g id="a_Node000025"><a xlink:href="classmodel_1_1DEMModel.html#a87c9757639ea846654f7c7e92f4a0fa6" target="_top" xlink:title="Perform time integration using velocity verlet scheme.">
<polygon fill="white" stroke="#666666" points="965,-604 824,-604 824,-574 965,-574 965,-604"/>
<text text-anchor="start" x="832" y="-592" font-family="Arial" font-size="10.00">model::DEMModel::integrate</text>
<text text-anchor="middle" x="894.5" y="-581" font-family="Arial" font-size="10.00">Verlet</text>
</a>
</g>
</g>
<!-- Node1&#45;&gt;Node25 -->
<g id="edge32_Node000001_Node000025" class="edge">
<title>Node1&#45;&gt;Node25</title>
<g id="a_edge32_Node000001_Node000025"><a xlink:title=" ">
<path fill="none" stroke="#63b8ff" d="M1071.18,-679.12C1052.85,-660.55 1020.95,-631.06 988,-614 980.61,-610.17 972.58,-606.89 964.44,-604.08"/>
<polygon fill="#63b8ff" stroke="#63b8ff" points="1068.69,-681.59 1078.16,-686.35 1073.73,-676.73 1068.69,-681.59"/>
</a>
</g>
</g>
<!-- Node26 -->
<g id="Node000026" class="node">
<title>Node26</title>
<g id="a_Node000026"><a xlink:href="apps_2peridynamics_2main_8cpp.html#a0ddf1224851353fc92bfbff6f499fa97" target="_top" xlink:title=" ">
<polygon fill="white" stroke="#666666" points="913.5,-555.5 875.5,-555.5 875.5,-536.5 913.5,-536.5 913.5,-555.5"/>
<text text-anchor="middle" x="894.5" y="-543.5" font-family="Arial" font-size="10.00">main</text>
</a>
</g>
</g>
<!-- Node1&#45;&gt;Node26 -->
<g id="edge33_Node000001_Node000026" class="edge">
<title>Node1&#45;&gt;Node26</title>
<g id="a_edge33_Node000001_Node000026"><a xlink:title=" ">
<path fill="none" stroke="#63b8ff" d="M1078.29,-677.09C1063.88,-648.05 1032.2,-592.91 988,-565 965.13,-550.56 933.31,-546.84 913.58,-546.02"/>
<polygon fill="#63b8ff" stroke="#63b8ff" points="1075.18,-678.69 1082.66,-686.19 1081.49,-675.66 1075.18,-678.69"/>
</a>
</g>
</g>
<!-- Node27 -->
<g id="Node000027" class="node">
<title>Node27</title>
<g id="a_Node000027"><a xlink:href="namespaceanonymous__namespace_02testNSearchLib_8cpp_03.html#ad14a66b26ddadc8b05b1aa044d2cf27d" target="_top" xlink:title=" ">
<polygon fill="white" stroke="#666666" points="955.5,-518.5 833.5,-518.5 833.5,-477.5 955.5,-477.5 955.5,-518.5"/>
<text text-anchor="start" x="841.5" y="-506.5" font-family="Arial" font-size="10.00">anonymous_namespace</text>
<text text-anchor="start" x="841.5" y="-495.5" font-family="Arial" font-size="10.00">{testNSearchLib::cpp}</text>
<text text-anchor="middle" x="894.5" y="-484.5" font-family="Arial" font-size="10.00">::neighSearchBrute</text>
</a>
</g>
</g>
<!-- Node1&#45;&gt;Node27 -->
<g id="edge34_Node000001_Node000027" class="edge">
<title>Node1&#45;&gt;Node27</title>
<g id="a_edge34_Node000001_Node000027"><a xlink:title=" ">
<path fill="none" stroke="#63b8ff" d="M1080.73,-676.5C1068.53,-641.6 1038.28,-568.33 988,-528 978.65,-520.5 967.37,-514.85 955.95,-510.61"/>
<polygon fill="#63b8ff" stroke="#63b8ff" points="1077.56,-678.03 1084.06,-686.39 1084.19,-675.8 1077.56,-678.03"/>
</a>
</g>
</g>
<!-- Node30 -->
<g id="Node000030" class="node">
<title>Node30</title>
<g id="a_Node000030"><a xlink:href="namespaceanonymous__namespace_02testNSearchLib_8cpp_03.html#a9fb754534a8d064e41daf02f4bc68768" target="_top" xlink:title=" ">
<polygon fill="white" stroke="#666666" points="978,-400.5 811,-400.5 811,-359.5 978,-359.5 978,-400.5"/>
<text text-anchor="start" x="819" y="-388.5" font-family="Arial" font-size="10.00">anonymous_namespace</text>
<text text-anchor="start" x="819" y="-377.5" font-family="Arial" font-size="10.00">{testNSearchLib::cpp}</text>
<text text-anchor="middle" x="894.5" y="-366.5" font-family="Arial" font-size="10.00">::neighSearchBruteExcludeInclude</text>
</a>
</g>
</g>
<!-- Node1&#45;&gt;Node30 -->
<g id="edge37_Node000001_Node000030" class="edge">
<title>Node1&#45;&gt;Node30</title>
<g id="a_edge37_Node000001_Node000030"><a xlink:title=" ">
<path fill="none" stroke="#63b8ff" d="M1085.99,-676.15C1082.28,-624.69 1065.26,-485.75 988,-410 984.38,-406.45 980.34,-403.33 976.03,-400.57"/>
<polygon fill="#63b8ff" stroke="#63b8ff" points="1082.5,-676.49 1086.62,-686.26 1089.49,-676.06 1082.5,-676.49"/>
</a>
</g>
</g>
<!-- Node31 -->
<g id="Node000031" class="node">
<title>Node31</title>
<g id="a_Node000031"><a xlink:href="namespaceanonymous__namespace_02testNSearchLib_8cpp_03.html#a3c988f3e2f2c9cb02a4370fe6ab2beb8" target="_top" xlink:title=" ">
<polygon fill="white" stroke="#666666" points="955.5,-270.5 833.5,-270.5 833.5,-229.5 955.5,-229.5 955.5,-270.5"/>
<text text-anchor="start" x="841.5" y="-258.5" font-family="Arial" font-size="10.00">anonymous_namespace</text>
<text text-anchor="start" x="841.5" y="-247.5" font-family="Arial" font-size="10.00">{testNSearchLib::cpp}</text>
<text text-anchor="middle" x="894.5" y="-236.5" font-family="Arial" font-size="10.00">::neighSearchTree</text>
</a>
</g>
</g>
<!-- Node1&#45;&gt;Node31 -->
<g id="edge39_Node000001_Node000031" class="edge">
<title>Node1&#45;&gt;Node31</title>
<g id="a_edge39_Node000001_Node000031"><a xlink:title=" ">
<path fill="none" stroke="#63b8ff" d="M1084.83,-675.98C1076.33,-601.22 1043.09,-339.68 988,-280 979.41,-270.7 967.92,-264.27 955.95,-259.83"/>
<polygon fill="#63b8ff" stroke="#63b8ff" points="1081.39,-676.76 1085.98,-686.31 1088.35,-675.99 1081.39,-676.76"/>
</a>
</g>
</g>
<!-- Node32 -->
<g id="Node000032" class="node">
<title>Node32</title>
<g id="a_Node000032"><a xlink:href="namespaceanonymous__namespace_02testNSearchLib_8cpp_03.html#a05ca86bc4c50fbb25f0dc79f76c5447d" target="_top" xlink:title=" ">
<polygon fill="white" stroke="#666666" points="982,-211.5 807,-211.5 807,-170.5 982,-170.5 982,-211.5"/>
<text text-anchor="start" x="815" y="-199.5" font-family="Arial" font-size="10.00">anonymous_namespace</text>
<text text-anchor="start" x="815" y="-188.5" font-family="Arial" font-size="10.00">{testNSearchLib::cpp}</text>
<text text-anchor="middle" x="894.5" y="-177.5" font-family="Arial" font-size="10.00">::neighSearchTreeClosestPointSizet</text>
</a>
</g>
</g>
<!-- Node1&#45;&gt;Node32 -->
<g id="edge40_Node000001_Node000032" class="edge">
<title>Node1&#45;&gt;Node32</title>
<g id="a_edge40_Node000001_Node000032"><a xlink:title=" ">
<path fill="none" stroke="#63b8ff" d="M1085.45,-675.82C1078.81,-594.28 1050.2,-290.32 988,-221 984.84,-217.48 981.27,-214.37 977.41,-211.63"/>
<polygon fill="#63b8ff" stroke="#63b8ff" points="1081.99,-676.48 1086.27,-686.18 1088.97,-675.93 1081.99,-676.48"/>
</a>
</g>
</g>
<!-- Node35 -->
<g id="Node000035" class="node">
<title>Node35</title>
<g id="a_Node000035"><a xlink:href="namespaceanonymous__namespace_02testNSearchLib_8cpp_03.html#a2c5f6131f024be97a0087b26f6f596c3" target="_top" xlink:title=" ">
<polygon fill="white" stroke="#666666" points="955.5,-459.5 833.5,-459.5 833.5,-418.5 955.5,-418.5 955.5,-459.5"/>
<text text-anchor="start" x="841.5" y="-447.5" font-family="Arial" font-size="10.00">anonymous_namespace</text>
<text text-anchor="start" x="841.5" y="-436.5" font-family="Arial" font-size="10.00">{testNSearchLib::cpp}</text>
<text text-anchor="middle" x="894.5" y="-425.5" font-family="Arial" font-size="10.00">::neighSearchTreeSizet</text>
</a>
</g>
</g>
<!-- Node1&#45;&gt;Node35 -->
<g id="edge43_Node000001_Node000035" class="edge">
<title>Node1&#45;&gt;Node35</title>
<g id="a_edge43_Node000001_Node000035"><a xlink:title=" ">
<path fill="none" stroke="#63b8ff" d="M1083.96,-676.21C1076.2,-632.42 1051.58,-526.66 988,-469 978.87,-460.72 967.43,-454.72 955.73,-450.38"/>
<polygon fill="#63b8ff" stroke="#63b8ff" points="1080.52,-676.87 1085.62,-686.16 1087.43,-675.72 1080.52,-676.87"/>
</a>
</g>
</g>
<!-- Node36 -->
<g id="Node000036" class="node">
<title>Node36</title>
<g id="a_Node000036"><a xlink:href="namespaceanonymous__namespace_02testNSearchLib_8cpp_03.html#ae482c6acc7871249ddc81c25cb8bf32a" target="_top" xlink:title=" ">
<polygon fill="white" stroke="#666666" points="971.5,-341 817.5,-341 817.5,-289 971.5,-289 971.5,-341"/>
<text text-anchor="start" x="825.5" y="-329" font-family="Arial" font-size="10.00">anonymous_namespace</text>
<text text-anchor="start" x="825.5" y="-318" font-family="Arial" font-size="10.00">{testNSearchLib::cpp}</text>
<text text-anchor="start" x="825.5" y="-307" font-family="Arial" font-size="10.00">::neighSearchTreeSizetExclude</text>
<text text-anchor="middle" x="894.5" y="-296" font-family="Arial" font-size="10.00">Include</text>
</a>
</g>
</g>
<!-- Node1&#45;&gt;Node36 -->
<g id="edge46_Node000001_Node000036" class="edge">
<title>Node1&#45;&gt;Node36</title>
<g id="a_edge46_Node000001_Node000036"><a xlink:title=" ">
<path fill="none" stroke="#63b8ff" d="M1087.1,-675.97C1086.32,-617.95 1076.2,-447.69 988,-351 983.24,-345.78 977.63,-341.31 971.57,-337.48"/>
<polygon fill="#63b8ff" stroke="#63b8ff" points="1083.6,-676.33 1087.15,-686.31 1090.6,-676.29 1083.6,-676.33"/>
</a>
</g>
</g>
<!-- Node37 -->
<g id="Node000037" class="node">
<title>Node37</title>
<g id="a_Node000037"><a xlink:href="namespacetest.html#ad42bc7bd3da5dce5ed3624b8fca7585f" target="_top" xlink:title="Perform test on taskflow.">
<polygon fill="white" stroke="#666666" points="942,-152.5 847,-152.5 847,-133.5 942,-133.5 942,-152.5"/>
<text text-anchor="middle" x="894.5" y="-140.5" font-family="Arial" font-size="10.00">test::testTaskflow</text>
</a>
</g>
</g>
<!-- Node1&#45;&gt;Node37 -->
<g id="edge48_Node000001_Node000037" class="edge">
<title>Node1&#45;&gt;Node37</title>
<g id="a_edge48_Node000001_Node000037"><a xlink:title=" ">
<path fill="none" stroke="#63b8ff" d="M1086.21,-675.91C1082.32,-587.72 1062.28,-235.97 988,-161 976.14,-149.03 958.85,-143.78 942.42,-141.78"/>
<polygon fill="#63b8ff" stroke="#63b8ff" points="1082.72,-676.3 1086.64,-686.14 1089.72,-676.01 1082.72,-676.3"/>
</a>
</g>
</g>
<!-- Node39 -->
<g id="Node000039" class="node">
<title>Node39</title>
<g id="a_Node000039"><a xlink:href="namespacematerial.html#a9445b2b230dcdea85083cc274996ebbc" target="_top" xlink:title=" ">
<polygon fill="white" stroke="#666666" points="977.5,-115.5 811.5,-115.5 811.5,-96.5 977.5,-96.5 977.5,-115.5"/>
<text text-anchor="middle" x="894.5" y="-103.5" font-family="Arial" font-size="10.00">material::updateBondFractureData</text>
</a>
</g>
</g>
<!-- Node1&#45;&gt;Node39 -->
<g id="edge50_Node000001_Node000039" class="edge">
<title>Node1&#45;&gt;Node39</title>
<g id="a_edge50_Node000001_Node000039"><a xlink:title=" ">
<path fill="none" stroke="#63b8ff" d="M1086.48,-676.29C1083.67,-585.07 1067.29,-204.96 988,-124 984.79,-120.73 981.18,-117.96 977.29,-115.61"/>
<polygon fill="#63b8ff" stroke="#63b8ff" points="1082.99,-676.47 1086.77,-686.36 1089.98,-676.26 1082.99,-676.47"/>
</a>
</g>
</g>
<!-- Node40 -->
<g id="Node000040" class="node">
<title>Node40</title>
<g id="a_Node000040"><a xlink:href="classmodel_1_1DEMModel.html#a564305aad8d3372c9d84d97f31226398" target="_top" xlink:title="Update neighborlist for contact.">
<polygon fill="white" stroke="#666666" points="978,-78 811,-78 811,-48 978,-48 978,-78"/>
<text text-anchor="start" x="819" y="-66" font-family="Arial" font-size="10.00">model::DEMModel::updateContact</text>
<text text-anchor="middle" x="894.5" y="-55" font-family="Arial" font-size="10.00">Neighborlist</text>
</a>
</g>
</g>
<!-- Node1&#45;&gt;Node40 -->
<g id="edge51_Node000001_Node000040" class="edge">
<title>Node1&#45;&gt;Node40</title>
<g id="a_edge51_Node000001_Node000040"><a xlink:title=" ">
<path fill="none" stroke="#63b8ff" d="M1086.59,-676.04C1084.21,-581.13 1069.38,-176.3 988,-87 984.87,-83.57 981.32,-80.6 977.48,-78.03"/>
<polygon fill="#63b8ff" stroke="#63b8ff" points="1083.09,-676.34 1086.82,-686.26 1090.09,-676.18 1083.09,-676.34"/>
</a>
</g>
</g>
<!-- Node41 -->
<g id="Node000041" class="node">
<title>Node41</title>
<g id="a_Node000041"><a xlink:href="classmodel_1_1DEMModel.html#a3152751c14b303b2437f310899f4fb1d" target="_top" xlink:title="Update neighborlist for peridynamics force.">
<polygon fill="white" stroke="#666666" points="988,-30 801,-30 801,0 988,0 988,-30"/>
<text text-anchor="start" x="809" y="-18" font-family="Arial" font-size="10.00">model::DEMModel::updatePeridynamic</text>
<text text-anchor="middle" x="894.5" y="-7" font-family="Arial" font-size="10.00">Neighborlist</text>
</a>
</g>
</g>
<!-- Node1&#45;&gt;Node41 -->
<g id="edge52_Node000001_Node000041" class="edge">
<title>Node1&#45;&gt;Node41</title>
<g id="a_edge52_Node000001_Node000041"><a xlink:title=" ">
<path fill="none" stroke="#63b8ff" d="M1086.85,-676.38C1085.69,-577.66 1075.63,-136.28 988,-39 985,-35.67 981.61,-32.78 977.93,-30.27"/>
<polygon fill="#63b8ff" stroke="#63b8ff" points="1083.35,-676.48 1086.95,-686.45 1090.35,-676.41 1083.35,-676.48"/>
</a>
</g>
</g>
<!-- Node5 -->
<g id="Node000005" class="node">
<title>Node5</title>
<g id="a_Node000005"><a xlink:href="classtwoparticle__demo_1_1Model.html#a4edd5f54de8ea3e6e35391b134c642be" target="_top" xlink:title="Perform time step integration.">
<polygon fill="white" stroke="#666666" points="380,-1122 255,-1122 255,-1092 380,-1092 380,-1122"/>
<text text-anchor="start" x="263" y="-1110" font-family="Arial" font-size="10.00">twoparticle_demo::Model</text>
<text text-anchor="middle" x="317.5" y="-1099" font-family="Arial" font-size="10.00">::integrate</text>
</a>
</g>
</g>
<!-- Node4&#45;&gt;Node5 -->
<g id="edge4_Node000004_Node000005" class="edge">
<title>Node4&#45;&gt;Node5</title>
<g id="a_edge4_Node000004_Node000005"><a xlink:title=" ">
<path fill="none" stroke="#63b8ff" d="M405.72,-1107C397.13,-1107 388.52,-1107 380.23,-1107"/>
<polygon fill="#63b8ff" stroke="#63b8ff" points="405.78,-1110.5 415.78,-1107 405.78,-1103.5 405.78,-1110.5"/>
</a>
</g>
</g>
<!-- Node6 -->
<g id="Node000006" class="node">
<title>Node6</title>
<g id="a_Node000006"><a xlink:href="classtwoparticle__demo_1_1Model.html#af741e660292b3c71c59277cbd1beb052" target="_top" xlink:title="Runs simulation by executing steps such as init(), integrate(), and close().">
<polygon fill="white" stroke="#666666" points="219,-1075.5 74,-1075.5 74,-1056.5 219,-1056.5 219,-1075.5"/>
<text text-anchor="middle" x="146.5" y="-1063.5" font-family="Arial" font-size="10.00">twoparticle_demo::Model::run</text>
</a>
</g>
</g>
<!-- Node5&#45;&gt;Node6 -->
<g id="edge5_Node000005_Node000006" class="edge">
<title>Node5&#45;&gt;Node6</title>
<g id="a_edge5_Node000005_Node000006"><a xlink:title=" ">
<path fill="none" stroke="#63b8ff" d="M244.6,-1089.56C224.82,-1084.76 204.08,-1079.73 186.88,-1075.55"/>
<polygon fill="#63b8ff" stroke="#63b8ff" points="243.99,-1093.01 254.53,-1091.97 245.64,-1086.21 243.99,-1093.01"/>
</a>
</g>
</g>
<!-- Node7 -->
<g id="Node000007" class="node">
<title>Node7</title>
<g id="a_Node000007"><a xlink:href="apps_2twoparticle__demo_2main_8cpp.html#a0ddf1224851353fc92bfbff6f499fa97" target="_top" xlink:title=" ">
<polygon fill="white" stroke="#666666" points="38,-1075.5 0,-1075.5 0,-1056.5 38,-1056.5 38,-1075.5"/>
<text text-anchor="middle" x="19" y="-1063.5" font-family="Arial" font-size="10.00">main</text>
</a>
</g>
</g>
<!-- Node6&#45;&gt;Node7 -->
<g id="edge6_Node000006_Node000007" class="edge">
<title>Node6&#45;&gt;Node7</title>
<g id="a_edge6_Node000006_Node000007"><a xlink:title=" ">
<path fill="none" stroke="#63b8ff" d="M63.88,-1066C54.4,-1066 45.55,-1066 38.32,-1066"/>
<polygon fill="#63b8ff" stroke="#63b8ff" points="63.95,-1069.5 73.95,-1066 63.95,-1062.5 63.95,-1069.5"/>
</a>
</g>
</g>
<!-- Node9&#45;&gt;Node5 -->
<g id="edge10_Node000009_Node000005" class="edge">
<title>Node9&#45;&gt;Node5</title>
<g id="a_edge10_Node000009_Node000005"><a xlink:title=" ">
<path fill="none" stroke="#63b8ff" d="M813.8,-1063.85C718.64,-1062.44 554.92,-1063.64 416,-1083 401.24,-1085.06 385.46,-1088.42 370.99,-1091.98"/>
<polygon fill="#63b8ff" stroke="#63b8ff" points="813.87,-1067.35 823.92,-1064.02 813.98,-1060.36 813.87,-1067.35"/>
</a>
</g>
</g>
<!-- Node9&#45;&gt;Node10 -->
<g id="edge9_Node000009_Node000010" class="edge">
<title>Node9&#45;&gt;Node10</title>
<g id="a_edge9_Node000009_Node000010"><a xlink:title=" ">
<path fill="none" stroke="#63b8ff" d="M818.29,-1047.95C812.39,-1046.09 806.57,-1044.1 801,-1042 768.55,-1029.74 733.28,-1011.06 710.14,-998.01"/>
<polygon fill="#63b8ff" stroke="#63b8ff" points="817.67,-1051.42 828.26,-1050.96 819.69,-1044.72 817.67,-1051.42"/>
</a>
</g>
</g>
<!-- Node13&#45;&gt;Node10 -->
<g id="edge15_Node000013_Node000010" class="edge">
<title>Node13&#45;&gt;Node10</title>
<g id="a_edge15_Node000013_Node000010"><a xlink:title=" ">
<path fill="none" stroke="#63b8ff" d="M813.83,-957.63C788.2,-962.66 760.46,-968.1 737.26,-972.65"/>
<polygon fill="#63b8ff" stroke="#63b8ff" points="814.77,-961.01 823.91,-955.65 813.42,-954.14 814.77,-961.01"/>
</a>
</g>
</g>
<!-- Node15 -->
<g id="Node000015" class="node">
<title>Node15</title>
<g id="a_Node000015"><a xlink:href="classmodel_1_1DEMModel.html#a934129b5f683dc4ce250b8c9a6fc9228" target="_top" xlink:title="Initialize remaining data members.">
<polygon fill="white" stroke="#666666" points="375.5,-1054.5 259.5,-1054.5 259.5,-1035.5 375.5,-1035.5 375.5,-1054.5"/>
<text text-anchor="middle" x="317.5" y="-1042.5" font-family="Arial" font-size="10.00">model::DEMModel::init</text>
</a>
</g>
</g>
<!-- Node14&#45;&gt;Node15 -->
<g id="edge17_Node000014_Node000015" class="edge">
<title>Node14&#45;&gt;Node15</title>
<g id="a_edge17_Node000014_Node000015"><a xlink:title=" ">
<path fill="none" stroke="#63b8ff" d="M818.7,-1025.86C702.34,-1030.31 480.52,-1038.8 375.87,-1042.81"/>
<polygon fill="#63b8ff" stroke="#63b8ff" points="819.08,-1029.35 828.94,-1025.47 818.81,-1022.36 819.08,-1029.35"/>
</a>
</g>
</g>
<!-- Node15&#45;&gt;Node6 -->
<g id="edge18_Node000015_Node000006" class="edge">
<title>Node15&#45;&gt;Node6</title>
<g id="a_edge18_Node000015_Node000006"><a xlink:title=" ">
<path fill="none" stroke="#63b8ff" d="M249.12,-1053.37C239.23,-1054.6 229.01,-1055.87 219.04,-1057.11"/>
<polygon fill="#63b8ff" stroke="#63b8ff" points="249.79,-1056.82 259.28,-1052.11 248.93,-1049.87 249.79,-1056.82"/>
</a>
</g>
</g>
<!-- Node20 -->
<g id="Node000020" class="node">
<title>Node20</title>
<g id="a_Node000020"><a xlink:href="classmodel_1_1DEMModel.html#a3652826a385051497907774640ed2044" target="_top" xlink:title="Output the snapshot of data at current time step.">
<polygon fill="white" stroke="#666666" points="749,-1157.5 618,-1157.5 618,-1138.5 749,-1138.5 749,-1157.5"/>
<text text-anchor="middle" x="683.5" y="-1145.5" font-family="Arial" font-size="10.00">model::DEMModel::output</text>
</a>
</g>
</g>
<!-- Node19&#45;&gt;Node20 -->
<g id="edge23_Node000019_Node000020" class="edge">
<title>Node19&#45;&gt;Node20</title>
<g id="a_edge23_Node000019_Node000020"><a xlink:title=" ">
<path fill="none" stroke="#63b8ff" d="M820.1,-1147.35C796.93,-1147.46 771.51,-1147.58 749,-1147.69"/>
<polygon fill="#63b8ff" stroke="#63b8ff" points="820.24,-1150.85 830.23,-1147.3 820.21,-1143.85 820.24,-1150.85"/>
</a>
</g>
</g>
<!-- Node21 -->
<g id="Node000021" class="node">
<title>Node21</title>
<g id="a_Node000021"><a xlink:href="classtwoparticle__demo_1_1Model.html#ab8c38cc78c0c17a86f17dd6b477ecde0" target="_top" xlink:title="Computes maximum shear stress and its location in particle.">
<polygon fill="white" stroke="#666666" points="765,-1206 602,-1206 602,-1176 765,-1176 765,-1206"/>
<text text-anchor="start" x="610" y="-1194" font-family="Arial" font-size="10.00">twoparticle_demo::Model</text>
<text text-anchor="middle" x="683.5" y="-1183" font-family="Arial" font-size="10.00">::twoParticleTestMaxShearStress</text>
</a>
</g>
</g>
<!-- Node19&#45;&gt;Node21 -->
<g id="edge25_Node000019_Node000021" class="edge">
<title>Node19&#45;&gt;Node21</title>
<g id="a_edge25_Node000019_Node000021"><a xlink:title=" ">
<path fill="none" stroke="#63b8ff" d="M836.32,-1158.66C824.63,-1161.07 812.42,-1163.6 801,-1166 785.82,-1169.19 769.53,-1172.65 754.09,-1175.96"/>
<polygon fill="#63b8ff" stroke="#63b8ff" points="837.34,-1162.03 846.43,-1156.59 835.93,-1155.17 837.34,-1162.03"/>
</a>
</g>
</g>
<!-- Node20&#45;&gt;Node5 -->
<g id="edge24_Node000020_Node000005" class="edge">
<title>Node20&#45;&gt;Node5</title>
<g id="a_edge24_Node000020_Node000005"><a xlink:title=" ">
<path fill="none" stroke="#63b8ff" d="M607.69,-1146.77C554.07,-1145.03 480.25,-1140.88 416,-1131 401.7,-1128.8 386.42,-1125.51 372.31,-1122.06"/>
<polygon fill="#63b8ff" stroke="#63b8ff" points="607.7,-1150.28 617.8,-1147.08 607.91,-1143.28 607.7,-1150.28"/>
</a>
</g>
</g>
<!-- Node22 -->
<g id="Node000022" class="node">
<title>Node22</title>
<g id="a_Node000022"><a xlink:href="classtwoparticle__demo_1_1Model.html#a200a62053eadcf3d6f08a9f4a186ad59" target="_top" xlink:title="Handles postprocessing for two&#45;particle test.">
<polygon fill="white" stroke="#666666" points="553.5,-1208 428.5,-1208 428.5,-1178 553.5,-1178 553.5,-1208"/>
<text text-anchor="start" x="436.5" y="-1196" font-family="Arial" font-size="10.00">twoparticle_demo::Model</text>
<text text-anchor="middle" x="491" y="-1185" font-family="Arial" font-size="10.00">::twoParticleTest</text>
</a>
</g>
</g>
<!-- Node21&#45;&gt;Node22 -->
<g id="edge26_Node000021_Node000022" class="edge">
<title>Node21&#45;&gt;Node22</title>
<g id="a_edge26_Node000021_Node000022"><a xlink:title=" ">
<path fill="none" stroke="#63b8ff" d="M591.71,-1191.95C578.84,-1192.09 565.87,-1192.22 553.73,-1192.35"/>
<polygon fill="#63b8ff" stroke="#63b8ff" points="592.02,-1195.45 601.99,-1191.85 591.95,-1188.45 592.02,-1195.45"/>
</a>
</g>
</g>
<!-- Node22&#45;&gt;Node5 -->
<g id="edge27_Node000022_Node000005" class="edge">
<title>Node22&#45;&gt;Node5</title>
<g id="a_edge27_Node000022_Node000005"><a xlink:title=" ">
<path fill="none" stroke="#63b8ff" d="M438.72,-1174.1C431.02,-1170.92 423.24,-1167.51 416,-1164 389.89,-1151.34 361.38,-1134.27 341.97,-1122.12"/>
<polygon fill="#63b8ff" stroke="#63b8ff" points="437.44,-1177.36 448.03,-1177.86 440.06,-1170.87 437.44,-1177.36"/>
</a>
</g>
</g>
<!-- Node23&#45;&gt;Node20 -->
<g id="edge29_Node000023_Node000020" class="edge">
<title>Node23&#45;&gt;Node20</title>
<g id="a_edge29_Node000023_Node000020"><a xlink:title=" ">
<path fill="none" stroke="#63b8ff" d="M835.42,-1174C805.55,-1168.85 769.32,-1162.61 739.85,-1157.53"/>
<polygon fill="#63b8ff" stroke="#63b8ff" points="834.84,-1177.45 845.29,-1175.7 836.03,-1170.55 834.84,-1177.45"/>
</a>
</g>
</g>
<!-- Node23&#45;&gt;Node21 -->
<g id="edge30_Node000023_Node000021" class="edge">
<title>Node23&#45;&gt;Node21</title>
<g id="a_edge30_Node000023_Node000021"><a xlink:title=" ">
<path fill="none" stroke="#63b8ff" d="M835.26,-1185.95C813.58,-1186.68 788.57,-1187.51 765.23,-1188.3"/>
<polygon fill="#63b8ff" stroke="#63b8ff" points="835.41,-1189.45 845.29,-1185.61 835.18,-1182.45 835.41,-1189.45"/>
</a>
</g>
</g>
<!-- Node28 -->
<g id="Node000028" class="node">
<title>Node28</title>
<g id="a_Node000028"><a xlink:href="namespacetest.html#a473c5d8b21be56b653930316d33eb743" target="_top" xlink:title="Perform test on nsearch.">
<polygon fill="white" stroke="#666666" points="733.5,-499.5 633.5,-499.5 633.5,-480.5 733.5,-480.5 733.5,-499.5"/>
<text text-anchor="middle" x="683.5" y="-487.5" font-family="Arial" font-size="10.00">test::testNanoflann</text>
</a>
</g>
</g>
<!-- Node27&#45;&gt;Node28 -->
<g id="edge35_Node000027_Node000028" class="edge">
<title>Node27&#45;&gt;Node28</title>
<g id="a_edge35_Node000027_Node000028"><a xlink:title=" ">
<path fill="none" stroke="#63b8ff" d="M823.13,-495.31C793.76,-494.18 760.36,-492.9 733.7,-491.88"/>
<polygon fill="#63b8ff" stroke="#63b8ff" points="823.2,-498.81 833.33,-495.7 823.47,-491.82 823.2,-498.81"/>
</a>
</g>
</g>
<!-- Node29 -->
<g id="Node000029" class="node">
<title>Node29</title>
<g id="a_Node000029"><a xlink:href="namespacetest.html#a197262de1745b522497c1d1e58066215" target="_top" xlink:title="Perform test on nsearch.">
<polygon fill="white" stroke="#666666" points="751,-425 616,-425 616,-395 751,-395 751,-425"/>
<text text-anchor="start" x="624" y="-413" font-family="Arial" font-size="10.00">test::testNanoflannExclude</text>
<text text-anchor="middle" x="683.5" y="-402" font-family="Arial" font-size="10.00">Include</text>
</a>
</g>
</g>
<!-- Node27&#45;&gt;Node29 -->
<g id="edge36_Node000027_Node000029" class="edge">
<title>Node27&#45;&gt;Node29</title>
<g id="a_edge36_Node000027_Node000029"><a xlink:title=" ">
<path fill="none" stroke="#63b8ff" d="M823.56,-477.43C815.89,-474.77 808.23,-471.94 801,-469 769.29,-456.1 734.45,-437.89 711.21,-425.12"/>
<polygon fill="#63b8ff" stroke="#63b8ff" points="822.68,-480.83 833.28,-480.7 824.92,-474.19 822.68,-480.83"/>
</a>
</g>
</g>
<!-- Node30&#45;&gt;Node29 -->
<g id="edge38_Node000030_Node000029" class="edge">
<title>Node30&#45;&gt;Node29</title>
<g id="a_edge38_Node000030_Node000029"><a xlink:title=" ">
<path fill="none" stroke="#63b8ff" d="M800.58,-393.34C783.9,-395.73 766.82,-398.18 751.07,-400.44"/>
<polygon fill="#63b8ff" stroke="#63b8ff" points="801.5,-396.74 810.9,-391.86 800.5,-389.81 801.5,-396.74"/>
</a>
</g>
</g>
<!-- Node33 -->
<g id="Node000033" class="node">
<title>Node33</title>
<g id="a_Node000033"><a xlink:href="namespacetest.html#a2abf679a9141e85f146ee0a27d7d4a76" target="_top" xlink:title="Perform test on nsearch.">
<polygon fill="white" stroke="#666666" points="750.5,-206 616.5,-206 616.5,-176 750.5,-176 750.5,-206"/>
<text text-anchor="start" x="624.5" y="-194" font-family="Arial" font-size="10.00">test::testNanoflannClosest</text>
<text text-anchor="middle" x="683.5" y="-183" font-family="Arial" font-size="10.00">Point</text>
</a>
</g>
</g>
<!-- Node32&#45;&gt;Node33 -->
<g id="edge41_Node000032_Node000033" class="edge">
<title>Node32&#45;&gt;Node33</title>
<g id="a_edge41_Node000032_Node000033"><a xlink:title=" ">
<path fill="none" stroke="#63b8ff" d="M796.75,-191C781.1,-191 765.22,-191 750.53,-191"/>
<polygon fill="#63b8ff" stroke="#63b8ff" points="796.98,-194.5 806.98,-191 796.98,-187.5 796.98,-194.5"/>
</a>
</g>
</g>
<!-- Node34 -->
<g id="Node000034" class="node">
<title>Node34</title>
<g id="a_Node000034"><a xlink:href="testNSearch_8cpp.html#a0ddf1224851353fc92bfbff6f499fa97" target="_top" xlink:title=" ">
<polygon fill="white" stroke="#666666" points="510,-200.5 472,-200.5 472,-181.5 510,-181.5 510,-200.5"/>
<text text-anchor="middle" x="491" y="-188.5" font-family="Arial" font-size="10.00">main</text>
</a>
</g>
</g>
<!-- Node33&#45;&gt;Node34 -->
<g id="edge42_Node000033_Node000034" class="edge">
<title>Node33&#45;&gt;Node34</title>
<g id="a_edge42_Node000033_Node000034"><a xlink:title=" ">
<path fill="none" stroke="#63b8ff" d="M606.13,-191C570.99,-191 532.29,-191 510.19,-191"/>
<polygon fill="#63b8ff" stroke="#63b8ff" points="606.41,-194.5 616.41,-191 606.41,-187.5 606.41,-194.5"/>
</a>
</g>
</g>
<!-- Node35&#45;&gt;Node28 -->
<g id="edge44_Node000035_Node000028" class="edge">
<title>Node35&#45;&gt;Node28</title>
<g id="a_edge44_Node000035_Node000028"><a xlink:title=" ">
<path fill="none" stroke="#63b8ff" d="M823.19,-456.16C789.93,-464.27 751.47,-473.66 723.5,-480.48"/>
<polygon fill="#63b8ff" stroke="#63b8ff" points="824.44,-459.45 833.33,-453.68 822.78,-452.65 824.44,-459.45"/>
</a>
</g>
</g>
<!-- Node35&#45;&gt;Node29 -->
<g id="edge45_Node000035_Node000029" class="edge">
<title>Node35&#45;&gt;Node29</title>
<g id="a_edge45_Node000035_Node000029"><a xlink:title=" ">
<path fill="none" stroke="#63b8ff" d="M823.19,-429.24C799.95,-426.02 774.17,-422.44 751.21,-419.26"/>
<polygon fill="#63b8ff" stroke="#63b8ff" points="822.94,-432.74 833.33,-430.65 823.9,-425.81 822.94,-432.74"/>
</a>
</g>
</g>
<!-- Node36&#45;&gt;Node29 -->
<g id="edge47_Node000036_Node000029" class="edge">
<title>Node36&#45;&gt;Node29</title>
<g id="a_edge47_Node000036_Node000029"><a xlink:title=" ">
<path fill="none" stroke="#63b8ff" d="M814.52,-345.14C809.92,-347.08 805.39,-349.04 801,-351 770.15,-364.77 735.75,-382.5 712.38,-394.91"/>
<polygon fill="#63b8ff" stroke="#63b8ff" points="816.1,-348.27 824,-341.2 813.42,-341.81 816.1,-348.27"/>
</a>
</g>
</g>
<!-- Node38 -->
<g id="Node000038" class="node">
<title>Node38</title>
<g id="a_Node000038"><a xlink:href="testParallelComp_8cpp.html#a0ddf1224851353fc92bfbff6f499fa97" target="_top" xlink:title=" ">
<polygon fill="white" stroke="#666666" points="702.5,-152.5 664.5,-152.5 664.5,-133.5 702.5,-133.5 702.5,-152.5"/>
<text text-anchor="middle" x="683.5" y="-140.5" font-family="Arial" font-size="10.00">main</text>
</a>
</g>
</g>
<!-- Node37&#45;&gt;Node38 -->
<g id="edge49_Node000037_Node000038" class="edge">
<title>Node37&#45;&gt;Node38</title>
<g id="a_edge49_Node000037_Node000038"><a xlink:title=" ">
<path fill="none" stroke="#63b8ff" d="M836.68,-143C791.91,-143 732.26,-143 702.7,-143"/>
<polygon fill="#63b8ff" stroke="#63b8ff" points="836.86,-146.5 846.86,-143 836.86,-139.5 836.86,-146.5"/>
</a>
</g>
</g>
</g>
</svg>
