<?xml version="1.0" encoding="UTF-8" standalone="no"?>
<!DOCTYPE svg PUBLIC "-//W3C//DTD SVG 1.1//EN"
 "http://www.w3.org/Graphics/SVG/1.1/DTD/svg11.dtd">
<!-- Generated by graphviz version 2.43.0 (0)
 -->
<!-- Title: problem_setup.get_ref_drum_points Pages: 1 -->
<svg width="863pt" height="874pt"
 viewBox="0.00 0.00 863.00 874.00" xmlns="http://www.w3.org/2000/svg" xmlns:xlink="http://www.w3.org/1999/xlink">
<g id="graph0" class="graph" transform="scale(1 1) rotate(0) translate(4 870)">
<title>problem_setup.get_ref_drum_points</title>
<!-- Node1 -->
<g id="Node000001" class="node">
<title>Node1</title>
<g id="a_Node000001"><a xlink:title=" ">
<polygon fill="#999999" stroke="#666666" points="855,-310 742,-310 742,-280 855,-280 855,-310"/>
<text text-anchor="start" x="750" y="-298" font-family="Arial" font-size="10.00">problem_setup.get_ref</text>
<text text-anchor="middle" x="798.5" y="-287" font-family="Arial" font-size="10.00">_drum_points</text>
</a>
</g>
</g>
<!-- Node2 -->
<g id="Node000002" class="node">
<title>Node2</title>
<g id="a_Node000002"><a xlink:href="namespaceproblem__setup.html#af9b7fe599289ca784b2fb5033b45f555" target="_top" xlink:title=" ">
<polygon fill="white" stroke="#666666" points="698.5,-522 567.5,-522 567.5,-470 698.5,-470 698.5,-522"/>
<text text-anchor="start" x="575.5" y="-510" font-family="Arial" font-size="10.00">problem_setup.does</text>
<text text-anchor="start" x="575.5" y="-499" font-family="Arial" font-size="10.00">_intersect_with_rectangle</text>
<text text-anchor="start" x="575.5" y="-488" font-family="Arial" font-size="10.00">_wall_with_protrusion_and</text>
<text text-anchor="middle" x="633" y="-477" font-family="Arial" font-size="10.00">_opening</text>
</a>
</g>
</g>
<!-- Node1&#45;&gt;Node2 -->
<g id="edge1_Node000001_Node000002" class="edge">
<title>Node1&#45;&gt;Node2</title>
<g id="a_edge1_Node000001_Node000002"><a xlink:title=" ">
<path fill="none" stroke="#63b8ff" d="M778.8,-317.99C748.17,-355.65 687.48,-430.25 655.26,-469.87"/>
<polygon fill="#63b8ff" stroke="#63b8ff" points="781.62,-320.07 785.21,-310.11 776.19,-315.66 781.62,-320.07"/>
</a>
</g>
</g>
<!-- Node3 -->
<g id="Node000003" class="node">
<title>Node3</title>
<g id="a_Node000003"><a xlink:href="namespaceproblem__setup.html#a0f7d40f23d1b185984a76d97e00f706b" target="_top" xlink:title=" ">
<polygon fill="white" stroke="#666666" points="524,-817.5 395,-817.5 395,-798.5 524,-798.5 524,-817.5"/>
<text text-anchor="middle" x="459.5" y="-805.5" font-family="Arial" font-size="10.00">problem_setup.get_center</text>
</a>
</g>
</g>
<!-- Node1&#45;&gt;Node3 -->
<g id="edge37_Node000001_Node000003" class="edge">
<title>Node1&#45;&gt;Node3</title>
<g id="a_edge37_Node000001_Node000003"><a xlink:title=" ">
<path fill="none" stroke="#63b8ff" d="M791.34,-319.87C779.15,-366.64 749.34,-470.11 706,-549 642.39,-664.78 630.23,-705.47 524,-784 515.76,-790.1 505.78,-794.82 496.2,-798.4"/>
<polygon fill="#63b8ff" stroke="#63b8ff" points="794.77,-320.56 793.86,-310.01 787.99,-318.83 794.77,-320.56"/>
</a>
</g>
</g>
<!-- Node5 -->
<g id="Node000005" class="node">
<title>Node5</title>
<g id="a_Node000005"><a xlink:href="namespaceproblem__setup.html#a1fec8dd536ff2dc0499259901333ee04" target="_top" xlink:title=" ">
<polygon fill="white" stroke="#666666" points="324.5,-866 209.5,-866 209.5,-836 324.5,-836 324.5,-866"/>
<text text-anchor="start" x="217.5" y="-854" font-family="Arial" font-size="10.00">problem_setup.particle</text>
<text text-anchor="middle" x="267" y="-843" font-family="Arial" font-size="10.00">_locations_old</text>
</a>
</g>
</g>
<!-- Node1&#45;&gt;Node5 -->
<g id="edge40_Node000001_Node000005" class="edge">
<title>Node1&#45;&gt;Node5</title>
<g id="a_edge40_Node000001_Node000005"><a xlink:title=" ">
<path fill="none" stroke="#63b8ff" d="M796.33,-320.51C792.4,-383.48 775.66,-549.56 706,-665 650.05,-757.72 623.3,-783.79 524,-827 459.84,-854.92 378.27,-857.64 324.67,-855.56"/>
<polygon fill="#63b8ff" stroke="#63b8ff" points="799.83,-320.5 796.91,-310.31 792.84,-320.1 799.83,-320.5"/>
</a>
</g>
</g>
<!-- Node6 -->
<g id="Node000006" class="node">
<title>Node6</title>
<g id="a_Node000006"><a xlink:href="namespaceproblem__setup.html#ac393fca6489747e8fce08894e6d0ebbd" target="_top" xlink:title=" ">
<polygon fill="white" stroke="#666666" points="706,-372 560,-372 560,-342 706,-342 706,-372"/>
<text text-anchor="start" x="568" y="-360" font-family="Arial" font-size="10.00">problem_setup.generate</text>
<text text-anchor="middle" x="633" y="-349" font-family="Arial" font-size="10.00">_drum2d_particle_gmsh_input</text>
</a>
</g>
</g>
<!-- Node1&#45;&gt;Node6 -->
<g id="edge7_Node000001_Node000006" class="edge">
<title>Node1&#45;&gt;Node6</title>
<g id="a_edge7_Node000001_Node000006"><a xlink:title=" ">
<path fill="none" stroke="#63b8ff" d="M748.35,-313.64C724.51,-322.68 696.24,-333.4 673.78,-341.91"/>
<polygon fill="#63b8ff" stroke="#63b8ff" points="749.81,-316.83 757.92,-310.01 747.33,-310.28 749.81,-316.83"/>
</a>
</g>
</g>
<!-- Node9 -->
<g id="Node000009" class="node">
<title>Node9</title>
<g id="a_Node000009"><a xlink:href="namespaceproblem__setup.html#a15d340f22fc959eb9bc3ebf12be02887" target="_top" xlink:title=" ">
<polygon fill="white" stroke="#666666" points="335,-202 199,-202 199,-172 335,-172 335,-202"/>
<text text-anchor="start" x="207" y="-190" font-family="Arial" font-size="10.00">problem_setup.generate</text>
<text text-anchor="middle" x="267" y="-179" font-family="Arial" font-size="10.00">_drum_particle_gmsh_input</text>
</a>
</g>
</g>
<!-- Node1&#45;&gt;Node9 -->
<g id="edge35_Node000001_Node000009" class="edge">
<title>Node1&#45;&gt;Node9</title>
<g id="a_edge35_Node000001_Node000009"><a xlink:title=" ">
<path fill="none" stroke="#63b8ff" d="M731.74,-281.59C630.49,-260.94 437.48,-221.57 335.31,-200.73"/>
<polygon fill="#63b8ff" stroke="#63b8ff" points="731.34,-285.08 741.84,-283.65 732.74,-278.22 731.34,-285.08"/>
</a>
</g>
</g>
<!-- Node16 -->
<g id="Node000016" class="node">
<title>Node16</title>
<g id="a_Node000016"><a xlink:href="namespaceproblem__setup.html#a38db49e0a85dd22e69cae23f7f92435f" target="_top" xlink:title=" ">
<polygon fill="white" stroke="#666666" points="127,-244 12,-244 12,-214 127,-214 127,-244"/>
<text text-anchor="start" x="20" y="-232" font-family="Arial" font-size="10.00">problem_setup.particle</text>
<text text-anchor="middle" x="69.5" y="-221" font-family="Arial" font-size="10.00">_locations</text>
</a>
</g>
</g>
<!-- Node1&#45;&gt;Node16 -->
<g id="edge39_Node000001_Node000016" class="edge">
<title>Node1&#45;&gt;Node16</title>
<g id="a_edge39_Node000001_Node000016"><a xlink:title=" ">
<path fill="none" stroke="#63b8ff" d="M763.74,-274.73C746.72,-264.88 725.57,-253.22 706,-244 560.58,-175.5 519.05,-156.91 359,-142 277.57,-134.42 251.9,-114.18 175,-142 135.49,-156.3 100.4,-192.77 82.69,-213.67"/>
<polygon fill="#63b8ff" stroke="#63b8ff" points="762.34,-277.97 772.74,-279.99 765.87,-271.92 762.34,-277.97"/>
</a>
</g>
</g>
<!-- Node17 -->
<g id="Node000017" class="node">
<title>Node17</title>
<g id="a_Node000017"><a xlink:href="namespaceproblem__setup.html#af506fbfffc76ecbdf9833c756777b675" target="_top" xlink:title=" ">
<polygon fill="white" stroke="#666666" points="693.5,-78 572.5,-78 572.5,-48 693.5,-48 693.5,-78"/>
<text text-anchor="start" x="580.5" y="-66" font-family="Arial" font-size="10.00">problem_setup.generate</text>
<text text-anchor="middle" x="633" y="-55" font-family="Arial" font-size="10.00">_particle_gmsh_input</text>
</a>
</g>
</g>
<!-- Node1&#45;&gt;Node17 -->
<g id="edge36_Node000001_Node000017" class="edge">
<title>Node1&#45;&gt;Node17</title>
<g id="a_edge36_Node000001_Node000017"><a xlink:title=" ">
<path fill="none" stroke="#63b8ff" d="M792.54,-269.76C782.99,-227.49 758.2,-142.12 706,-92 700.17,-86.4 693.11,-81.83 685.73,-78.12"/>
<polygon fill="#63b8ff" stroke="#63b8ff" points="789.17,-270.73 794.69,-279.76 796.01,-269.25 789.17,-270.73"/>
</a>
</g>
</g>
<!-- Node18 -->
<g id="Node000018" class="node">
<title>Node18</title>
<g id="a_Node000018"><a xlink:href="namespaceproblem__setup.html#a93f32e78adb37a28a0d66623c3e009c5" target="_top" xlink:title=" ">
<polygon fill="white" stroke="#666666" points="690.5,-30 575.5,-30 575.5,0 690.5,0 690.5,-30"/>
<text text-anchor="start" x="583.5" y="-18" font-family="Arial" font-size="10.00">problem_setup.particle</text>
<text text-anchor="middle" x="633" y="-7" font-family="Arial" font-size="10.00">_locations</text>
</a>
</g>
</g>
<!-- Node1&#45;&gt;Node18 -->
<g id="edge38_Node000001_Node000018" class="edge">
<title>Node1&#45;&gt;Node18</title>
<g id="a_edge38_Node000001_Node000018"><a xlink:title=" ">
<path fill="none" stroke="#63b8ff" d="M795.64,-269.79C790.56,-218.97 771.99,-103.59 706,-39 701.57,-34.67 696.35,-31.12 690.76,-28.21"/>
<polygon fill="#63b8ff" stroke="#63b8ff" points="792.17,-270.25 796.56,-279.89 799.14,-269.61 792.17,-270.25"/>
</a>
</g>
</g>
<!-- Node2&#45;&gt;Node2 -->
<g id="edge2_Node000002_Node000002" class="edge">
<title>Node2&#45;&gt;Node2</title>
<g id="a_edge2_Node000002_Node000002"><a xlink:title=" ">
<path fill="none" stroke="#63b8ff" d="M660.41,-531.76C655.89,-536.7 646.75,-540 633,-540 611.54,-540 601.31,-531.96 602.32,-522.2"/>
<polygon fill="#63b8ff" stroke="#63b8ff" points="663.76,-532.79 663.68,-522.2 657.14,-530.53 663.76,-532.79"/>
</a>
</g>
</g>
<!-- Node2&#45;&gt;Node3 -->
<g id="edge3_Node000002_Node000003" class="edge">
<title>Node2&#45;&gt;Node3</title>
<g id="a_edge3_Node000002_Node000003"><a xlink:title=" ">
<path fill="none" stroke="#63b8ff" d="M620.3,-532.16C596.38,-605.28 542.55,-765.4 524,-784 517.67,-790.34 509.51,-795.03 501.15,-798.5"/>
<polygon fill="#63b8ff" stroke="#63b8ff" points="623.7,-533.03 623.47,-522.44 617.04,-530.86 623.7,-533.03"/>
</a>
</g>
</g>
<!-- Node4 -->
<g id="Node000004" class="node">
<title>Node4</title>
<g id="a_Node000004"><a xlink:href="namespaceproblem__setup.html#ab77cd691be605123ba53961f21c8885a" target="_top" xlink:title=" ">
<polygon fill="white" stroke="#666666" points="139,-751 0,-751 0,-721 139,-721 139,-751"/>
<text text-anchor="start" x="8" y="-739" font-family="Arial" font-size="10.00">problem_setup.generate</text>
<text text-anchor="middle" x="69.5" y="-728" font-family="Arial" font-size="10.00">_rect_container_gmsh_input</text>
</a>
</g>
</g>
<!-- Node3&#45;&gt;Node4 -->
<g id="edge4_Node000003_Node000004" class="edge">
<title>Node3&#45;&gt;Node4</title>
<g id="a_edge4_Node000003_Node000004"><a xlink:title=" ">
<path fill="none" stroke="#63b8ff" d="M384.78,-808.68C326.86,-807.57 244.62,-802.34 175,-784 147.01,-776.63 117.2,-762.21 96.61,-751.09"/>
<polygon fill="#63b8ff" stroke="#63b8ff" points="384.89,-812.18 394.94,-808.84 385,-805.19 384.89,-812.18"/>
</a>
</g>
</g>
<!-- Node3&#45;&gt;Node5 -->
<g id="edge6_Node000003_Node000005" class="edge">
<title>Node3&#45;&gt;Node5</title>
<g id="a_edge6_Node000003_Node000005"><a xlink:title=" ">
<path fill="none" stroke="#63b8ff" d="M406.42,-819.76C381.07,-825.48 350.54,-832.37 324.62,-838.22"/>
<polygon fill="#63b8ff" stroke="#63b8ff" points="407.24,-823.16 416.22,-817.54 405.7,-816.33 407.24,-823.16"/>
</a>
</g>
</g>
<!-- Node4&#45;&gt;Node4 -->
<g id="edge5_Node000004_Node000004" class="edge">
<title>Node4&#45;&gt;Node4</title>
<g id="a_edge5_Node000004_Node000004"><a xlink:title=" ">
<path fill="none" stroke="#63b8ff" d="M103.81,-761.6C99.12,-765.97 87.68,-769 69.5,-769 38.88,-769 27.39,-760.41 35.05,-751.28"/>
<polygon fill="#63b8ff" stroke="#63b8ff" points="107.31,-761.32 103.95,-751.28 100.31,-761.22 107.31,-761.32"/>
</a>
</g>
</g>
<!-- Node6&#45;&gt;Node4 -->
<g id="edge31_Node000006_Node000004" class="edge">
<title>Node6&#45;&gt;Node4</title>
<g id="a_edge31_Node000006_Node000004"><a xlink:title=" ">
<path fill="none" stroke="#63b8ff" d="M612.68,-380.25C596.67,-400.5 574.3,-431.2 560,-461 535.73,-511.59 552.5,-533.67 524,-582 470.84,-672.15 455.51,-709.51 359,-750 280.74,-782.83 179.86,-766.13 120.47,-751.04"/>
<polygon fill="#63b8ff" stroke="#63b8ff" points="615.57,-382.23 619.11,-372.24 610.12,-377.85 615.57,-382.23"/>
</a>
</g>
</g>
<!-- Node7 -->
<g id="Node000007" class="node">
<title>Node7</title>
<g id="a_Node000007"><a xlink:href="namespaceproblem__setup.html#a8ed53bd44082cee1b5381115a87451e2" target="_top" xlink:title=" ">
<polygon fill="white" stroke="#666666" points="514.5,-438 404.5,-438 404.5,-408 514.5,-408 514.5,-438"/>
<text text-anchor="start" x="412.5" y="-426" font-family="Arial" font-size="10.00">problem_setup.create</text>
<text text-anchor="middle" x="459.5" y="-415" font-family="Arial" font-size="10.00">_input_file</text>
</a>
</g>
</g>
<!-- Node6&#45;&gt;Node7 -->
<g id="edge8_Node000006_Node000007" class="edge">
<title>Node6&#45;&gt;Node7</title>
<g id="a_edge8_Node000006_Node000007"><a xlink:title=" ">
<path fill="none" stroke="#63b8ff" d="M583.19,-375.78C556.73,-385.97 524.46,-398.38 499.66,-407.93"/>
<polygon fill="#63b8ff" stroke="#63b8ff" points="584.58,-379 592.65,-372.14 582.06,-372.47 584.58,-379"/>
</a>
</g>
</g>
<!-- Node10 -->
<g id="Node000010" class="node">
<title>Node10</title>
<g id="a_Node000010"><a xlink:href="namespaceproblem__setup.html#a16a9d169ecf04b1a867bec4dbf274c01" target="_top" xlink:title=" ">
<polygon fill="white" stroke="#666666" points="343.5,-268 190.5,-268 190.5,-238 343.5,-238 343.5,-268"/>
<text text-anchor="start" x="198.5" y="-256" font-family="Arial" font-size="10.00">problem_setup.generate</text>
<text text-anchor="middle" x="267" y="-245" font-family="Arial" font-size="10.00">_moving_rect_wall_gmsh_input</text>
</a>
</g>
</g>
<!-- Node6&#45;&gt;Node10 -->
<g id="edge30_Node000006_Node000010" class="edge">
<title>Node6&#45;&gt;Node10</title>
<g id="a_edge30_Node000006_Node000010"><a xlink:title=" ">
<path fill="none" stroke="#63b8ff" d="M569.84,-339.24C499.61,-319.17 386.52,-286.86 320.52,-268.01"/>
<polygon fill="#63b8ff" stroke="#63b8ff" points="568.88,-342.61 579.46,-341.99 570.81,-335.88 568.88,-342.61"/>
</a>
</g>
</g>
<!-- Node14 -->
<g id="Node000014" class="node">
<title>Node14</title>
<g id="a_Node000014"><a xlink:href="namespaceproblem__setup.html#a8e72848abab104858c2a4647079140ed" target="_top" xlink:title=" ">
<polygon fill="white" stroke="#666666" points="359,-723.5 175,-723.5 175,-682.5 359,-682.5 359,-723.5"/>
<text text-anchor="start" x="183" y="-711.5" font-family="Arial" font-size="10.00">problem_setup.generate</text>
<text text-anchor="start" x="183" y="-700.5" font-family="Arial" font-size="10.00">_rectangle_with_protrusion</text>
<text text-anchor="middle" x="267" y="-689.5" font-family="Arial" font-size="10.00">_and_opening_wall_gmsh_input_type3</text>
</a>
</g>
</g>
<!-- Node6&#45;&gt;Node14 -->
<g id="edge32_Node000006_Node000014" class="edge">
<title>Node6&#45;&gt;Node14</title>
<g id="a_edge32_Node000006_Node000014"><a xlink:title=" ">
<path fill="none" stroke="#63b8ff" d="M616.28,-380.47C578.08,-435.99 474.96,-577.09 359,-662 348.23,-669.88 335.71,-676.73 323.46,-682.46"/>
<polygon fill="#63b8ff" stroke="#63b8ff" points="619.3,-382.25 622.05,-372.02 613.52,-378.3 619.3,-382.25"/>
</a>
</g>
</g>
<!-- Node15 -->
<g id="Node000015" class="node">
<title>Node15</title>
<g id="a_Node000015"><a xlink:href="namespaceproblem__setup.html#afa462577a9adf91f5e2cb59a1eb7da7e" target="_top" xlink:title=" ">
<polygon fill="white" stroke="#666666" points="327.5,-372 206.5,-372 206.5,-342 327.5,-342 327.5,-372"/>
<text text-anchor="start" x="214.5" y="-360" font-family="Arial" font-size="10.00">problem_setup.generate</text>
<text text-anchor="middle" x="267" y="-349" font-family="Arial" font-size="10.00">_wall_gmsh_input</text>
</a>
</g>
</g>
<!-- Node6&#45;&gt;Node15 -->
<g id="edge33_Node000006_Node000015" class="edge">
<title>Node6&#45;&gt;Node15</title>
<g id="a_edge33_Node000006_Node000015"><a xlink:title=" ">
<path fill="none" stroke="#63b8ff" d="M549.46,-357C481.91,-357 387.98,-357 327.58,-357"/>
<polygon fill="#63b8ff" stroke="#63b8ff" points="549.65,-360.5 559.65,-357 549.65,-353.5 549.65,-360.5"/>
</a>
</g>
</g>
<!-- Node6&#45;&gt;Node16 -->
<g id="edge34_Node000006_Node000016" class="edge">
<title>Node6&#45;&gt;Node16</title>
<g id="a_edge34_Node000006_Node000016"><a xlink:title=" ">
<path fill="none" stroke="#63b8ff" d="M610.85,-334.63C568.18,-291.34 466.64,-197.35 359,-163 281.09,-138.14 253.56,-140.27 175,-163 140.78,-172.9 107,-197.71 87.48,-213.93"/>
<polygon fill="#63b8ff" stroke="#63b8ff" points="608.4,-337.14 617.88,-341.86 613.41,-332.25 608.4,-337.14"/>
</a>
</g>
</g>
<!-- Node7&#45;&gt;Node4 -->
<g id="edge20_Node000007_Node000004" class="edge">
<title>Node7&#45;&gt;Node4</title>
<g id="a_edge20_Node000007_Node000004"><a xlink:title=" ">
<path fill="none" stroke="#63b8ff" d="M449.11,-447.65C430.46,-495.43 388.03,-598.1 359,-622 293.48,-675.94 252.95,-639.45 175,-673 144.45,-686.15 112.07,-706.87 91.59,-720.92"/>
<polygon fill="#63b8ff" stroke="#63b8ff" points="452.48,-448.65 452.82,-438.07 445.95,-446.13 452.48,-448.65"/>
</a>
</g>
</g>
<!-- Node8 -->
<g id="Node000008" class="node">
<title>Node8</title>
<g id="a_Node000008"><a xlink:href="namespaceproblem__setup.html#a1e7145671d41dad41beed2d8c4f790e0" target="_top" xlink:title=" ">
<polygon fill="white" stroke="#666666" points="331,-504 203,-504 203,-474 331,-474 331,-504"/>
<text text-anchor="start" x="211" y="-492" font-family="Arial" font-size="10.00">problem_setup.generate</text>
<text text-anchor="middle" x="267" y="-481" font-family="Arial" font-size="10.00">_cuboid_wall_gmsh_input</text>
</a>
</g>
</g>
<!-- Node7&#45;&gt;Node8 -->
<g id="edge9_Node000007_Node000008" class="edge">
<title>Node7&#45;&gt;Node8</title>
<g id="a_edge9_Node000007_Node000008"><a xlink:title=" ">
<path fill="none" stroke="#63b8ff" d="M416.4,-442.33C398.87,-449.97 378.17,-458.46 359,-465 349.72,-468.16 339.79,-471.16 330.03,-473.9"/>
<polygon fill="#63b8ff" stroke="#63b8ff" points="418.05,-445.43 425.79,-438.19 415.22,-439.02 418.05,-445.43"/>
</a>
</g>
</g>
<!-- Node7&#45;&gt;Node9 -->
<g id="edge11_Node000007_Node000009" class="edge">
<title>Node7&#45;&gt;Node9</title>
<g id="a_edge11_Node000007_Node000009"><a xlink:title=" ">
<path fill="none" stroke="#63b8ff" d="M451.53,-397.98C439.13,-357.57 409.65,-277.59 359,-229 346.95,-217.44 331.14,-208.64 316.08,-202.16"/>
<polygon fill="#63b8ff" stroke="#63b8ff" points="448.25,-399.22 454.45,-407.81 454.96,-397.23 448.25,-399.22"/>
</a>
</g>
</g>
<!-- Node7&#45;&gt;Node10 -->
<g id="edge13_Node000007_Node000010" class="edge">
<title>Node7&#45;&gt;Node10</title>
<g id="a_edge13_Node000007_Node000010"><a xlink:title=" ">
<path fill="none" stroke="#63b8ff" d="M443.48,-398.95C425.83,-372.17 394.43,-328.87 359,-300 343.01,-286.97 322.83,-276.1 305.53,-268.11"/>
<polygon fill="#63b8ff" stroke="#63b8ff" points="440.76,-401.19 449.13,-407.68 446.64,-397.38 440.76,-401.19"/>
</a>
</g>
</g>
<!-- Node11 -->
<g id="Node000011" class="node">
<title>Node11</title>
<g id="a_Node000011"><a xlink:href="namespaceproblem__setup.html#a4dd4df45d28c58aafac4fdf8aa8c554d" target="_top" xlink:title=" ">
<polygon fill="white" stroke="#666666" points="332.5,-438 201.5,-438 201.5,-408 332.5,-408 332.5,-438"/>
<text text-anchor="start" x="209.5" y="-426" font-family="Arial" font-size="10.00">problem_setup.generate</text>
<text text-anchor="middle" x="267" y="-415" font-family="Arial" font-size="10.00">_moving_wall_gmsh_input</text>
</a>
</g>
</g>
<!-- Node7&#45;&gt;Node11 -->
<g id="edge15_Node000007_Node000011" class="edge">
<title>Node7&#45;&gt;Node11</title>
<g id="a_edge15_Node000007_Node000011"><a xlink:title=" ">
<path fill="none" stroke="#63b8ff" d="M394.25,-423C374.41,-423 352.56,-423 332.69,-423"/>
<polygon fill="#63b8ff" stroke="#63b8ff" points="394.42,-426.5 404.42,-423 394.42,-419.5 394.42,-426.5"/>
</a>
</g>
</g>
<!-- Node12 -->
<g id="Node000012" class="node">
<title>Node12</title>
<g id="a_Node000012"><a xlink:href="namespaceproblem__setup.html#a881d38782fcef7d73522d8b9bfcdb3da" target="_top" xlink:title=" ">
<polygon fill="white" stroke="#666666" points="327.5,-570 206.5,-570 206.5,-540 327.5,-540 327.5,-570"/>
<text text-anchor="start" x="214.5" y="-558" font-family="Arial" font-size="10.00">problem_setup.generate</text>
<text text-anchor="middle" x="267" y="-547" font-family="Arial" font-size="10.00">_particle_gmsh_input</text>
</a>
</g>
</g>
<!-- Node7&#45;&gt;Node12 -->
<g id="edge17_Node000007_Node000012" class="edge">
<title>Node7&#45;&gt;Node12</title>
<g id="a_edge17_Node000007_Node000012"><a xlink:title=" ">
<path fill="none" stroke="#63b8ff" d="M443.02,-446.52C425.53,-471.23 394.79,-509.44 359,-531 349.48,-536.73 338.6,-541.11 327.75,-544.45"/>
<polygon fill="#63b8ff" stroke="#63b8ff" points="446.05,-448.3 448.85,-438.08 440.29,-444.32 446.05,-448.3"/>
</a>
</g>
</g>
<!-- Node13 -->
<g id="Node000013" class="node">
<title>Node13</title>
<g id="a_Node000013"><a xlink:href="namespaceproblem__setup.html#a021c61bf44d7c968582474d32605a1ad" target="_top" xlink:title=" ">
<polygon fill="white" stroke="#666666" points="130,-570 9,-570 9,-540 130,-540 130,-570"/>
<text text-anchor="start" x="17" y="-558" font-family="Arial" font-size="10.00">problem_setup.generate</text>
<text text-anchor="middle" x="69.5" y="-547" font-family="Arial" font-size="10.00">_wall_gmsh_input</text>
</a>
</g>
</g>
<!-- Node7&#45;&gt;Node13 -->
<g id="edge28_Node000007_Node000013" class="edge">
<title>Node7&#45;&gt;Node13</title>
<g id="a_edge28_Node000007_Node000013"><a xlink:title=" ">
<path fill="none" stroke="#63b8ff" d="M452.71,-448C441.98,-487.86 414.82,-564.62 359,-597 274.28,-646.15 152.81,-597 98.54,-570.08"/>
<polygon fill="#63b8ff" stroke="#63b8ff" points="456.11,-448.81 455.2,-438.25 449.33,-447.07 456.11,-448.81"/>
</a>
</g>
</g>
<!-- Node7&#45;&gt;Node14 -->
<g id="edge21_Node000007_Node000014" class="edge">
<title>Node7&#45;&gt;Node14</title>
<g id="a_edge21_Node000007_Node000014"><a xlink:title=" ">
<path fill="none" stroke="#63b8ff" d="M447.58,-447.42C434.61,-476.64 412.55,-527.11 395,-571 377.93,-613.7 391.32,-635.29 359,-668 353.41,-673.66 346.8,-678.42 339.74,-682.42"/>
<polygon fill="#63b8ff" stroke="#63b8ff" points="450.89,-448.58 451.76,-438.02 444.5,-445.74 450.89,-448.58"/>
</a>
</g>
</g>
<!-- Node7&#45;&gt;Node15 -->
<g id="edge24_Node000007_Node000015" class="edge">
<title>Node7&#45;&gt;Node15</title>
<g id="a_edge24_Node000007_Node000015"><a xlink:title=" ">
<path fill="none" stroke="#63b8ff" d="M405.06,-404.48C375.52,-394.25 339.29,-381.7 311.5,-372.07"/>
<polygon fill="#63b8ff" stroke="#63b8ff" points="404.2,-407.89 414.8,-407.86 406.49,-401.28 404.2,-407.89"/>
</a>
</g>
</g>
<!-- Node7&#45;&gt;Node16 -->
<g id="edge29_Node000007_Node000016" class="edge">
<title>Node7&#45;&gt;Node16</title>
<g id="a_edge29_Node000007_Node000016"><a xlink:title=" ">
<path fill="none" stroke="#63b8ff" d="M439.74,-400.16C421.36,-379.36 391.46,-349.47 359,-333 284.53,-295.22 252.44,-326.24 175,-295 142.96,-282.07 109.89,-259.3 89.76,-244.18"/>
<polygon fill="#63b8ff" stroke="#63b8ff" points="437.24,-402.62 446.43,-407.91 442.54,-398.05 437.24,-402.62"/>
</a>
</g>
</g>
<!-- Node8&#45;&gt;Node8 -->
<g id="edge10_Node000008_Node000008" class="edge">
<title>Node8&#45;&gt;Node8</title>
<g id="a_edge10_Node000008_Node000008"><a xlink:title=" ">
<path fill="none" stroke="#63b8ff" d="M300.61,-514.6C296.01,-518.97 284.81,-522 267,-522 237,-522 225.75,-513.41 233.25,-504.28"/>
<polygon fill="#63b8ff" stroke="#63b8ff" points="304.11,-514.32 300.75,-504.28 297.11,-514.23 304.11,-514.32"/>
</a>
</g>
</g>
<!-- Node9&#45;&gt;Node9 -->
<g id="edge12_Node000009_Node000009" class="edge">
<title>Node9&#45;&gt;Node9</title>
<g id="a_edge12_Node000009_Node000009"><a xlink:title=" ">
<path fill="none" stroke="#63b8ff" d="M300.61,-212.6C296.01,-216.97 284.81,-220 267,-220 237,-220 225.75,-211.41 233.25,-202.28"/>
<polygon fill="#63b8ff" stroke="#63b8ff" points="304.11,-212.32 300.75,-202.28 297.11,-212.23 304.11,-212.32"/>
</a>
</g>
</g>
<!-- Node10&#45;&gt;Node10 -->
<g id="edge14_Node000010_Node000010" class="edge">
<title>Node10&#45;&gt;Node10</title>
<g id="a_edge14_Node000010_Node000010"><a xlink:title=" ">
<path fill="none" stroke="#63b8ff" d="M300.61,-278.6C296.01,-282.97 284.81,-286 267,-286 237,-286 225.75,-277.41 233.25,-268.28"/>
<polygon fill="#63b8ff" stroke="#63b8ff" points="304.11,-278.32 300.75,-268.28 297.11,-278.23 304.11,-278.32"/>
</a>
</g>
</g>
<!-- Node11&#45;&gt;Node11 -->
<g id="edge16_Node000011_Node000011" class="edge">
<title>Node11&#45;&gt;Node11</title>
<g id="a_edge16_Node000011_Node000011"><a xlink:title=" ">
<path fill="none" stroke="#63b8ff" d="M300.61,-448.6C296.01,-452.97 284.81,-456 267,-456 237,-456 225.75,-447.41 233.25,-438.28"/>
<polygon fill="#63b8ff" stroke="#63b8ff" points="304.11,-448.32 300.75,-438.28 297.11,-448.23 304.11,-448.32"/>
</a>
</g>
</g>
<!-- Node12&#45;&gt;Node12 -->
<g id="edge18_Node000012_Node000012" class="edge">
<title>Node12&#45;&gt;Node12</title>
<g id="a_edge18_Node000012_Node000012"><a xlink:title=" ">
<path fill="none" stroke="#63b8ff" d="M300.61,-580.6C296.01,-584.97 284.81,-588 267,-588 237,-588 225.75,-579.41 233.25,-570.28"/>
<polygon fill="#63b8ff" stroke="#63b8ff" points="304.11,-580.32 300.75,-570.28 297.11,-580.23 304.11,-580.32"/>
</a>
</g>
</g>
<!-- Node12&#45;&gt;Node13 -->
<g id="edge19_Node000012_Node000013" class="edge">
<title>Node12&#45;&gt;Node13</title>
<g id="a_edge19_Node000012_Node000013"><a xlink:title=" ">
<path fill="none" stroke="#63b8ff" d="M196.19,-555C174.6,-555 151.03,-555 130.19,-555"/>
<polygon fill="#63b8ff" stroke="#63b8ff" points="196.28,-558.5 206.28,-555 196.28,-551.5 196.28,-558.5"/>
</a>
</g>
</g>
<!-- Node14&#45;&gt;Node4 -->
<g id="edge22_Node000014_Node000004" class="edge">
<title>Node14&#45;&gt;Node4</title>
<g id="a_edge22_Node000014_Node000004"><a xlink:title=" ">
<path fill="none" stroke="#63b8ff" d="M164.94,-720.06C156.17,-721.54 147.44,-723.01 139.03,-724.43"/>
<polygon fill="#63b8ff" stroke="#63b8ff" points="165.55,-723.5 174.83,-718.39 164.39,-716.6 165.55,-723.5"/>
</a>
</g>
</g>
<!-- Node14&#45;&gt;Node14 -->
<g id="edge23_Node000014_Node000014" class="edge">
<title>Node14&#45;&gt;Node14</title>
<g id="a_edge23_Node000014_Node000014"><a xlink:title=" ">
<path fill="none" stroke="#63b8ff" d="M300.03,-733.46C295.12,-738.24 284.11,-741.5 267,-741.5 239.62,-741.5 227.86,-733.15 231.71,-723.6"/>
<polygon fill="#63b8ff" stroke="#63b8ff" points="303.47,-734.13 302.29,-723.6 296.65,-732.56 303.47,-734.13"/>
</a>
</g>
</g>
<!-- Node15&#45;&gt;Node13 -->
<g id="edge26_Node000015_Node000013" class="edge">
<title>Node15&#45;&gt;Node13</title>
<g id="a_edge26_Node000015_Node000013"><a xlink:title=" ">
<path fill="none" stroke="#63b8ff" d="M211.34,-376.34C198.6,-382.39 185.65,-389.91 175,-399 126.65,-440.27 91.32,-509.18 77.24,-539.68"/>
<polygon fill="#63b8ff" stroke="#63b8ff" points="212.87,-379.49 220.55,-372.2 210,-373.11 212.87,-379.49"/>
</a>
</g>
</g>
<!-- Node15&#45;&gt;Node15 -->
<g id="edge25_Node000015_Node000015" class="edge">
<title>Node15&#45;&gt;Node15</title>
<g id="a_edge25_Node000015_Node000015"><a xlink:title=" ">
<path fill="none" stroke="#63b8ff" d="M300.61,-382.6C296.01,-386.97 284.81,-390 267,-390 237,-390 225.75,-381.41 233.25,-372.28"/>
<polygon fill="#63b8ff" stroke="#63b8ff" points="304.11,-382.32 300.75,-372.28 297.11,-382.23 304.11,-382.32"/>
</a>
</g>
</g>
<!-- Node15&#45;&gt;Node16 -->
<g id="edge27_Node000015_Node000016" class="edge">
<title>Node15&#45;&gt;Node16</title>
<g id="a_edge27_Node000015_Node000016"><a xlink:title=" ">
<path fill="none" stroke="#63b8ff" d="M196.55,-338.52C189.06,-335.46 181.73,-331.97 175,-328 136.48,-305.25 100.74,-265.91 82.72,-244.31"/>
<polygon fill="#63b8ff" stroke="#63b8ff" points="195.49,-341.86 206.08,-342.16 197.98,-335.32 195.49,-341.86"/>
</a>
</g>
</g>
</g>
</svg>
