<?xml version="1.0" encoding="UTF-8" standalone="no"?>
<!DOCTYPE svg PUBLIC "-//W3C//DTD SVG 1.1//EN"
 "http://www.w3.org/Graphics/SVG/1.1/DTD/svg11.dtd">
<!-- Generated by graphviz version 2.43.0 (0)
 -->
<!-- Title: util::parallel::initMpiStatus Pages: 1 -->
<svg width="1367pt" height="1067pt"
 viewBox="0.00 0.00 1367.00 1067.12" xmlns="http://www.w3.org/2000/svg" xmlns:xlink="http://www.w3.org/1999/xlink">
<g id="graph0" class="graph" transform="scale(1 1) rotate(0) translate(4 1063.12)">
<title>util::parallel::initMpiStatus</title>
<!-- Node1 -->
<g id="node1" class="node">
<title>Node1</title>
<g id="a_node1"><a xlink:title="Initializes MpiStatus struct.">
<polygon fill="#bfbfbf" stroke="black" points="1230,-944.62 1230,-963.62 1359,-963.62 1359,-944.62 1230,-944.62"/>
<text text-anchor="middle" x="1294.5" y="-951.62" font-family="Arial" font-size="10.00">util::parallel::initMpiStatus</text>
</a>
</g>
</g>
<!-- Node2 -->
<g id="node2" class="node">
<title>Node2</title>
<g id="a_node2"><a xlink:href="namespaceutil_1_1parallel.html#aa0c65ae0f7fb6e0c4f3104c5bf3b1ff6" target="_top" xlink:title="Initializes MPI and also creates MpiStatus struct.">
<polygon fill="none" stroke="black" points="1093,-944.62 1093,-963.62 1194,-963.62 1194,-944.62 1093,-944.62"/>
<text text-anchor="middle" x="1143.5" y="-951.62" font-family="Arial" font-size="10.00">util::parallel::initMpi</text>
</a>
</g>
</g>
<!-- Node1&#45;&gt;Node2 -->
<g id="edge1" class="edge">
<title>Node1&#45;&gt;Node2</title>
<path fill="none" stroke="midnightblue" d="M1219.81,-954.12C1211.2,-954.12 1202.57,-954.12 1194.39,-954.12"/>
<polygon fill="midnightblue" stroke="midnightblue" points="1219.88,-957.62 1229.88,-954.12 1219.88,-950.62 1219.88,-957.62"/>
</g>
<!-- Node3 -->
<g id="node3" class="node">
<title>Node3</title>
<g id="a_node3"><a xlink:href="namespaceutil_1_1parallel.html#a836a5bd06aa09111f66f69f97c1f093c" target="_top" xlink:title="Returns pointer to MpiStatus struct.">
<polygon fill="none" stroke="black" points="926.5,-1039.62 926.5,-1058.62 1056.5,-1058.62 1056.5,-1039.62 926.5,-1039.62"/>
<text text-anchor="middle" x="991.5" y="-1046.62" font-family="Arial" font-size="10.00">util::parallel::getMpiStatus</text>
</a>
</g>
</g>
<!-- Node2&#45;&gt;Node3 -->
<g id="edge2" class="edge">
<title>Node2&#45;&gt;Node3</title>
<path fill="none" stroke="midnightblue" d="M1125.88,-970.88C1109.52,-986.6 1083.26,-1009.92 1057,-1025.12 1046.97,-1030.93 1035.28,-1035.78 1024.63,-1039.57"/>
<polygon fill="midnightblue" stroke="midnightblue" points="1128.37,-973.33 1133.06,-963.83 1123.47,-968.33 1128.37,-973.33"/>
</g>
<!-- Node4 -->
<g id="node4" class="node">
<title>Node4</title>
<g id="a_node4"><a xlink:href="src_2main_8cpp.html#a0ddf1224851353fc92bfbff6f499fa97" target="_top" xlink:title=" ">
<polygon fill="none" stroke="black" points="799.5,-1001.62 799.5,-1020.62 837.5,-1020.62 837.5,-1001.62 799.5,-1001.62"/>
<text text-anchor="middle" x="818.5" y="-1008.62" font-family="Arial" font-size="10.00">main</text>
</a>
</g>
</g>
<!-- Node2&#45;&gt;Node4 -->
<g id="edge5" class="edge">
<title>Node2&#45;&gt;Node4</title>
<path fill="none" stroke="midnightblue" d="M1116.41,-968.5C1099.89,-976.89 1077.79,-986.83 1057,-992.12 977.22,-1012.41 877.96,-1012.64 837.71,-1011.73"/>
<polygon fill="midnightblue" stroke="midnightblue" points="1118.19,-971.51 1125.44,-963.78 1114.95,-965.31 1118.19,-971.51"/>
</g>
<!-- Node5 -->
<g id="node5" class="node">
<title>Node5</title>
<g id="a_node5"><a xlink:href="namespaceutil_1_1parallel.html#a4377dccc92c8b2a1896685fc54fd1a0b" target="_top" xlink:title="Function to check if MPI is enabled.">
<polygon fill="none" stroke="black" points="926,-963.62 926,-982.62 1057,-982.62 1057,-963.62 926,-963.62"/>
<text text-anchor="middle" x="991.5" y="-970.62" font-family="Arial" font-size="10.00">util::parallel::isMpiEnabled</text>
</a>
</g>
</g>
<!-- Node2&#45;&gt;Node5 -->
<g id="edge4" class="edge">
<title>Node2&#45;&gt;Node5</title>
<path fill="none" stroke="midnightblue" d="M1082.86,-961.68C1074.43,-962.74 1065.74,-963.84 1057.23,-964.92"/>
<polygon fill="midnightblue" stroke="midnightblue" points="1083.49,-965.12 1092.97,-960.4 1082.61,-958.18 1083.49,-965.12"/>
</g>
<!-- Node6 -->
<g id="node6" class="node">
<title>Node6</title>
<g id="a_node6"><a xlink:href="namespaceutil_1_1parallel.html#af2fa5cf1aed1855e05ae530704c37763" target="_top" xlink:title="Get MPI comm.">
<polygon fill="none" stroke="black" points="933,-925.62 933,-944.62 1050,-944.62 1050,-925.62 933,-925.62"/>
<text text-anchor="middle" x="991.5" y="-932.62" font-family="Arial" font-size="10.00">util::parallel::mpiComm</text>
</a>
</g>
</g>
<!-- Node2&#45;&gt;Node6 -->
<g id="edge6" class="edge">
<title>Node2&#45;&gt;Node6</title>
<path fill="none" stroke="midnightblue" d="M1082.79,-946.56C1072,-945.19 1060.77,-943.77 1050.04,-942.41"/>
<polygon fill="midnightblue" stroke="midnightblue" points="1082.61,-950.06 1092.97,-947.85 1083.49,-943.12 1082.61,-950.06"/>
</g>
<!-- Node7 -->
<g id="node7" class="node">
<title>Node7</title>
<g id="a_node7"><a xlink:href="namespaceutil_1_1parallel.html#adb80f14125b7556bb478cc3725508fa8" target="_top" xlink:title="get rank (id) of this processor">
<polygon fill="none" stroke="black" points="936,-767.62 936,-786.62 1047,-786.62 1047,-767.62 936,-767.62"/>
<text text-anchor="middle" x="991.5" y="-774.62" font-family="Arial" font-size="10.00">util::parallel::mpiRank</text>
</a>
</g>
</g>
<!-- Node2&#45;&gt;Node7 -->
<g id="edge7" class="edge">
<title>Node2&#45;&gt;Node7</title>
<path fill="none" stroke="midnightblue" d="M1127.76,-936.73C1096.57,-899.93 1024.77,-815.2 1000.6,-786.68"/>
<polygon fill="midnightblue" stroke="midnightblue" points="1125.3,-939.24 1134.44,-944.61 1130.64,-934.71 1125.3,-939.24"/>
</g>
<!-- Node39 -->
<g id="node29" class="node">
<title>Node39</title>
<g id="a_node29"><a xlink:href="namespaceutil_1_1parallel.html#ad67dcfb56bf70d082e443e849c832c00" target="_top" xlink:title="Get size (number) of processors.">
<polygon fill="none" stroke="black" points="938,-887.62 938,-906.62 1045,-906.62 1045,-887.62 938,-887.62"/>
<text text-anchor="middle" x="991.5" y="-894.62" font-family="Arial" font-size="10.00">util::parallel::mpiSize</text>
</a>
</g>
</g>
<!-- Node2&#45;&gt;Node39 -->
<g id="edge48" class="edge">
<title>Node2&#45;&gt;Node39</title>
<path fill="none" stroke="midnightblue" d="M1114.02,-940.33C1097.58,-932.66 1076.37,-923.24 1057,-916.12 1047.69,-912.7 1037.45,-909.45 1027.92,-906.64"/>
<polygon fill="midnightblue" stroke="midnightblue" points="1112.57,-943.52 1123.11,-944.62 1115.56,-937.19 1112.57,-943.52"/>
</g>
<!-- Node3&#45;&gt;Node4 -->
<g id="edge3" class="edge">
<title>Node3&#45;&gt;Node4</title>
<path fill="none" stroke="midnightblue" d="M937.51,-1037.35C903.41,-1029.77 861.21,-1020.39 837.63,-1015.15"/>
<polygon fill="midnightblue" stroke="midnightblue" points="936.83,-1040.78 947.35,-1039.53 938.35,-1033.95 936.83,-1040.78"/>
</g>
<!-- Node7&#45;&gt;Node4 -->
<g id="edge11" class="edge">
<title>Node7&#45;&gt;Node4</title>
<path fill="none" stroke="midnightblue" d="M977.5,-795.25C958.41,-821.84 921.64,-872.93 890,-916.12 867.06,-947.44 839.57,-984.29 826.75,-1001.44"/>
<polygon fill="midnightblue" stroke="midnightblue" points="980.49,-797.09 983.47,-786.93 974.8,-793.01 980.49,-797.09"/>
</g>
<!-- Node8 -->
<g id="node8" class="node">
<title>Node8</title>
<g id="a_node8"><a xlink:href="namespaceanonymous__namespace_02testParallelCompLib_8cpp_03.html#a55d59bfee9bce3b871923ee947a1242b" target="_top" xlink:title=" ">
<polygon fill="none" stroke="black" points="571.5,-718.62 571.5,-759.62 702.5,-759.62 702.5,-718.62 571.5,-718.62"/>
<text text-anchor="start" x="579.5" y="-747.62" font-family="Arial" font-size="10.00">anonymous_namespace</text>
<text text-anchor="start" x="579.5" y="-736.62" font-family="Arial" font-size="10.00">{testParallelCompLib</text>
<text text-anchor="middle" x="637" y="-725.62" font-family="Arial" font-size="10.00">::cpp}::exchangeDispData</text>
</a>
</g>
</g>
<!-- Node7&#45;&gt;Node8 -->
<g id="edge8" class="edge">
<title>Node7&#45;&gt;Node8</title>
<path fill="none" stroke="midnightblue" d="M970.36,-761.5C950.99,-747.55 920.27,-728.11 890,-720.12 827.85,-703.72 754.31,-712.32 702.76,-722.67"/>
<polygon fill="midnightblue" stroke="midnightblue" points="968.3,-764.33 978.42,-767.47 972.46,-758.7 968.3,-764.33"/>
</g>
<!-- Node9 -->
<g id="node9" class="node">
<title>Node9</title>
<g id="a_node9"><a xlink:href="namespacetest.html#af0964e1ea010ded3d98df70e7d5326ca" target="_top" xlink:title="Perform parallelization test using MPI on mesh partition based on metis.">
<polygon fill="none" stroke="red" points="424,-797.62 424,-816.62 498,-816.62 498,-797.62 424,-797.62"/>
<text text-anchor="middle" x="461" y="-804.62" font-family="Arial" font-size="10.00">test::testMPI</text>
</a>
</g>
</g>
<!-- Node7&#45;&gt;Node9 -->
<g id="edge47" class="edge">
<title>Node7&#45;&gt;Node9</title>
<path fill="none" stroke="midnightblue" d="M925.76,-780.8C813.47,-787.17 586.19,-800.07 498.06,-805.07"/>
<polygon fill="midnightblue" stroke="midnightblue" points="926.15,-784.28 935.93,-780.22 925.75,-777.29 926.15,-784.28"/>
</g>
<!-- Node11 -->
<g id="node10" class="node">
<title>Node11</title>
<g id="a_node10"><a xlink:href="classutil_1_1io_1_1Logger.html#ab95e172506a16ded8973ae57cf5bd18c" target="_top" xlink:title="Log the message.">
<polygon fill="none" stroke="black" points="770,-729.62 770,-748.62 867,-748.62 867,-729.62 770,-729.62"/>
<text text-anchor="middle" x="818.5" y="-736.62" font-family="Arial" font-size="10.00">util::io::Logger::log</text>
</a>
</g>
</g>
<!-- Node7&#45;&gt;Node11 -->
<g id="edge10" class="edge">
<title>Node7&#45;&gt;Node11</title>
<path fill="none" stroke="midnightblue" d="M937.29,-765.3C913.18,-759.94 885.06,-753.69 862.34,-748.64"/>
<polygon fill="midnightblue" stroke="midnightblue" points="936.83,-768.78 947.35,-767.53 938.35,-761.95 936.83,-768.78"/>
</g>
<!-- Node12 -->
<g id="node11" class="node">
<title>Node12</title>
<g id="a_node11"><a xlink:href="namespaceutil_1_1io.html#a578a578ce41389fb01e56de7316b7054" target="_top" xlink:title="Prints formatted information.">
<polygon fill="none" stroke="black" points="784.5,-447.62 784.5,-466.62 852.5,-466.62 852.5,-447.62 784.5,-447.62"/>
<text text-anchor="middle" x="818.5" y="-454.62" font-family="Arial" font-size="10.00">util::io::print</text>
</a>
</g>
</g>
<!-- Node7&#45;&gt;Node12 -->
<g id="edge12" class="edge">
<title>Node7&#45;&gt;Node12</title>
<path fill="none" stroke="midnightblue" d="M980.51,-758.44C948.38,-698.3 848.35,-511.11 824.6,-466.66"/>
<polygon fill="midnightblue" stroke="midnightblue" points="977.58,-760.37 985.38,-767.54 983.76,-757.08 977.58,-760.37"/>
</g>
<!-- Node36 -->
<g id="node26" class="node">
<title>Node36</title>
<g id="a_node26"><a xlink:href="namespaceutil_1_1io.html#aafa73b940789a70da4253d44a4ff36d1" target="_top" xlink:title="Prints formatted string for output.">
<polygon fill="none" stroke="black" points="776,-409.62 776,-428.62 861,-428.62 861,-409.62 776,-409.62"/>
<text text-anchor="middle" x="818.5" y="-416.62" font-family="Arial" font-size="10.00">util::io::printBox</text>
</a>
</g>
</g>
<!-- Node7&#45;&gt;Node36 -->
<g id="edge42" class="edge">
<title>Node7&#45;&gt;Node36</title>
<path fill="none" stroke="midnightblue" d="M990.87,-757.33C990.83,-699.35 982.49,-528.33 890,-438.12 882.2,-430.51 871.68,-425.87 861.15,-423.06"/>
<polygon fill="midnightblue" stroke="midnightblue" points="987.37,-757.33 990.79,-767.36 994.37,-757.39 987.37,-757.33"/>
</g>
<!-- Node37 -->
<g id="node27" class="node">
<title>Node37</title>
<g id="a_node27"><a xlink:href="namespaceanonymous__namespace_02testParallelCompLib_8cpp_03.html#a203213df0b872311cc21e15789f7a924" target="_top" xlink:title=" ">
<polygon fill="none" stroke="black" points="757.5,-805.62 757.5,-846.62 879.5,-846.62 879.5,-805.62 757.5,-805.62"/>
<text text-anchor="start" x="765.5" y="-834.62" font-family="Arial" font-size="10.00">anonymous_namespace</text>
<text text-anchor="start" x="765.5" y="-823.62" font-family="Arial" font-size="10.00">{testParallelCompLib</text>
<text text-anchor="middle" x="818.5" y="-812.62" font-family="Arial" font-size="10.00">::cpp}::printMsg</text>
</a>
</g>
</g>
<!-- Node7&#45;&gt;Node37 -->
<g id="edge43" class="edge">
<title>Node7&#45;&gt;Node37</title>
<path fill="none" stroke="midnightblue" d="M947.45,-789.46C926.96,-795.33 902.12,-802.45 879.79,-808.85"/>
<polygon fill="midnightblue" stroke="midnightblue" points="948.47,-792.8 957.12,-786.69 946.55,-786.08 948.47,-792.8"/>
</g>
<!-- Node38 -->
<g id="node28" class="node">
<title>Node38</title>
<g id="a_node28"><a xlink:href="namespaceanonymous__namespace_02testParallelCompLib_8cpp_03.html#adf1cc5e3fb18d6c4d4bd630c53448476" target="_top" xlink:title=" ">
<polygon fill="none" stroke="black" points="747,-865.62 747,-906.62 890,-906.62 890,-865.62 747,-865.62"/>
<text text-anchor="start" x="755" y="-894.62" font-family="Arial" font-size="10.00">anonymous_namespace</text>
<text text-anchor="start" x="755" y="-883.62" font-family="Arial" font-size="10.00">{testParallelCompLib</text>
<text text-anchor="middle" x="818.5" y="-872.62" font-family="Arial" font-size="10.00">::cpp}::setupOwnerAndGhost</text>
</a>
</g>
</g>
<!-- Node7&#45;&gt;Node38 -->
<g id="edge45" class="edge">
<title>Node7&#45;&gt;Node38</title>
<path fill="none" stroke="midnightblue" d="M972.64,-793.56C953.32,-810.75 921.11,-837.71 890,-856.12 884.39,-859.44 878.35,-862.59 872.24,-865.51"/>
<polygon fill="midnightblue" stroke="midnightblue" points="975.23,-795.93 980.32,-786.64 970.55,-790.74 975.23,-795.93"/>
</g>
<!-- Node8&#45;&gt;Node9 -->
<g id="edge9" class="edge">
<title>Node8&#45;&gt;Node9</title>
<path fill="none" stroke="midnightblue" d="M573.69,-763.47C543.5,-775.27 508.99,-788.76 486.42,-797.58"/>
<polygon fill="midnightblue" stroke="midnightblue" points="575.28,-766.61 583.32,-759.71 572.73,-760.09 575.28,-766.61"/>
</g>
<!-- Node12&#45;&gt;Node8 -->
<g id="edge23" class="edge">
<title>Node12&#45;&gt;Node8</title>
<path fill="none" stroke="midnightblue" d="M813.87,-477.07C804.59,-522.81 776.02,-636.45 711,-704.12 705.64,-709.7 699.22,-714.49 692.43,-718.58"/>
<polygon fill="midnightblue" stroke="midnightblue" points="817.36,-477.46 815.82,-466.98 810.48,-476.13 817.36,-477.46"/>
</g>
<!-- Node12&#45;&gt;Node9 -->
<g id="edge40" class="edge">
<title>Node12&#45;&gt;Node9</title>
<path fill="none" stroke="midnightblue" d="M813.46,-476.96C803.74,-519.41 774.97,-619.37 711,-671.12 658.2,-713.83 622.24,-675.92 563,-709.12 521.23,-732.53 484.21,-777.54 469.16,-797.35"/>
<polygon fill="midnightblue" stroke="midnightblue" points="816.91,-477.55 815.62,-467.03 810.07,-476.06 816.91,-477.55"/>
</g>
<!-- Node13 -->
<g id="node12" class="node">
<title>Node13</title>
<g id="a_node12"><a xlink:href="classfe_1_1Mesh.html#ad8e7d706e7378a729c22842bfbf6af3b" target="_top" xlink:title="Compute the nodal volume.">
<polygon fill="none" stroke="black" points="581,-303.62 581,-322.62 693,-322.62 693,-303.62 581,-303.62"/>
<text text-anchor="middle" x="637" y="-310.62" font-family="Arial" font-size="10.00">fe::Mesh::computeVol</text>
</a>
</g>
</g>
<!-- Node12&#45;&gt;Node13 -->
<g id="edge13" class="edge">
<title>Node12&#45;&gt;Node13</title>
<path fill="none" stroke="midnightblue" d="M774.56,-452.47C764.55,-449.63 754.61,-445.15 747,-438.12 712,-405.78 745.11,-370.4 711,-337.12 704.51,-330.79 696.31,-326.12 687.78,-322.69"/>
<polygon fill="midnightblue" stroke="midnightblue" points="773.96,-455.93 784.5,-454.8 775.56,-449.11 773.96,-455.93"/>
</g>
<!-- Node14 -->
<g id="node13" class="node">
<title>Node14</title>
<g id="a_node13"><a xlink:href="namespaceproblem__setup.html#a64e067098e447f766d042476ef5abe85" target="_top" xlink:title=" ">
<polygon fill="none" stroke="red" points="406,-263.12 406,-293.12 516,-293.12 516,-263.12 406,-263.12"/>
<text text-anchor="start" x="414" y="-281.12" font-family="Arial" font-size="10.00">problem_setup.create</text>
<text text-anchor="middle" x="461" y="-270.12" font-family="Arial" font-size="10.00">_input_file</text>
</a>
</g>
</g>
<!-- Node12&#45;&gt;Node14 -->
<g id="edge14" class="edge">
<title>Node12&#45;&gt;Node14</title>
<path fill="none" stroke="midnightblue" d="M774.34,-453.05C764.25,-450.21 754.33,-445.58 747,-438.12 700.78,-391.05 761.67,-336.37 711,-294.12 657.02,-249.11 571.44,-254.73 516,-264.88"/>
<polygon fill="midnightblue" stroke="midnightblue" points="773.87,-456.53 784.4,-455.34 775.42,-449.71 773.87,-456.53"/>
</g>
<!-- Node15 -->
<g id="node14" class="node">
<title>Node15</title>
<g id="a_node14"><a xlink:href="namespaceproblem__setup.html#a87c8571f538ea8ab692816e1388af758" target="_top" xlink:title=" ">
<polygon fill="none" stroke="black" points="195.5,-216.12 195.5,-246.12 338.5,-246.12 338.5,-216.12 195.5,-216.12"/>
<text text-anchor="start" x="203.5" y="-234.12" font-family="Arial" font-size="10.00">problem_setup.generate</text>
<text text-anchor="middle" x="267" y="-223.12" font-family="Arial" font-size="10.00">_cylindrical_wall_gmsh_input</text>
</a>
</g>
</g>
<!-- Node12&#45;&gt;Node15 -->
<g id="edge24" class="edge">
<title>Node12&#45;&gt;Node15</title>
<path fill="none" stroke="midnightblue" d="M774.07,-453.31C763.99,-450.46 754.13,-445.77 747,-438.12 690.18,-377.17 773.94,-308.74 711,-254.12 683.63,-230.37 456.96,-229.11 338.91,-230.11"/>
<polygon fill="midnightblue" stroke="midnightblue" points="773.62,-456.79 784.14,-455.58 775.16,-449.97 773.62,-456.79"/>
</g>
<!-- Node22 -->
<g id="node15" class="node">
<title>Node22</title>
<g id="a_node15"><a xlink:href="namespaceproblem__setup.html#aa86d439a2a3be267e8af3fe687016583" target="_top" xlink:title=" ">
<polygon fill="none" stroke="black" points="0,-260.12 0,-290.12 139,-290.12 139,-260.12 0,-260.12"/>
<text text-anchor="start" x="8" y="-278.12" font-family="Arial" font-size="10.00">problem_setup.generate</text>
<text text-anchor="middle" x="69.5" y="-267.12" font-family="Arial" font-size="10.00">_rect_container_gmsh_input</text>
</a>
</g>
</g>
<!-- Node12&#45;&gt;Node22 -->
<g id="edge25" class="edge">
<title>Node12&#45;&gt;Node22</title>
<path fill="none" stroke="midnightblue" d="M793.55,-471.8C772.63,-483.7 741,-499.55 711,-506.12 646.75,-520.19 627.63,-518.33 563,-506.12 381.01,-471.75 336.61,-444.59 175,-354.12 141.86,-335.57 107.49,-307.6 87.59,-290.4"/>
<polygon fill="midnightblue" stroke="midnightblue" points="795.5,-474.72 802.37,-466.65 791.97,-468.67 795.5,-474.72"/>
</g>
<!-- Node23 -->
<g id="node16" class="node">
<title>Node23</title>
<g id="a_node16"><a xlink:href="namespaceproblem__setup.html#ab2d86f4fe187ef9b78d1ad4ea438b98b" target="_top" xlink:title=" ">
<polygon fill="none" stroke="black" points="175,-303.62 175,-344.62 359,-344.62 359,-303.62 175,-303.62"/>
<text text-anchor="start" x="183" y="-332.62" font-family="Arial" font-size="10.00">problem_setup.generate</text>
<text text-anchor="start" x="183" y="-321.62" font-family="Arial" font-size="10.00">_rectangle_with_protrusion</text>
<text text-anchor="middle" x="267" y="-310.62" font-family="Arial" font-size="10.00">_and_opening_wall_gmsh_input_type3</text>
</a>
</g>
</g>
<!-- Node12&#45;&gt;Node23 -->
<g id="edge26" class="edge">
<title>Node12&#45;&gt;Node23</title>
<path fill="none" stroke="midnightblue" d="M774.68,-451.52C764.84,-448.7 754.95,-444.47 747,-438.12 720.27,-416.79 739.34,-389.25 711,-370.12 682.54,-350.91 480.3,-336.21 359.14,-329.01"/>
<polygon fill="midnightblue" stroke="midnightblue" points="773.88,-454.93 784.43,-453.9 775.54,-448.13 773.88,-454.93"/>
</g>
<!-- Node25 -->
<g id="node17" class="node">
<title>Node25</title>
<g id="a_node17"><a xlink:href="namespacediscretize__circle.html#a696cce96441ef5fc2d3175e6900fcf9c" target="_top" xlink:title=" ">
<polygon fill="none" stroke="black" points="395,-574.12 395,-604.12 527,-604.12 527,-574.12 395,-574.12"/>
<text text-anchor="start" x="403" y="-592.12" font-family="Arial" font-size="10.00">discretize_circle.discretize</text>
<text text-anchor="middle" x="461" y="-581.12" font-family="Arial" font-size="10.00">_circle</text>
</a>
</g>
</g>
<!-- Node12&#45;&gt;Node25 -->
<g id="edge19" class="edge">
<title>Node12&#45;&gt;Node25</title>
<path fill="none" stroke="midnightblue" d="M801.05,-474.05C781.44,-493.18 746.8,-523.78 711,-540.12 652.18,-566.97 578.97,-579.14 527.2,-584.63"/>
<polygon fill="midnightblue" stroke="midnightblue" points="803.65,-476.4 808.27,-466.86 798.71,-471.44 803.65,-476.4"/>
</g>
<!-- Node26 -->
<g id="node18" class="node">
<title>Node26</title>
<g id="a_node18"><a xlink:href="namespaceproblem__setup.html#a66cf6b889081b2c318eb0110057d83c9" target="_top" xlink:title=" ">
<polygon fill="none" stroke="black" points="395.5,-39.12 395.5,-91.12 526.5,-91.12 526.5,-39.12 395.5,-39.12"/>
<text text-anchor="start" x="403.5" y="-79.12" font-family="Arial" font-size="10.00">problem_setup.does</text>
<text text-anchor="start" x="403.5" y="-68.12" font-family="Arial" font-size="10.00">_intersect_with_rectangle</text>
<text text-anchor="start" x="403.5" y="-57.12" font-family="Arial" font-size="10.00">_wall_with_protrusion_and</text>
<text text-anchor="middle" x="461" y="-46.12" font-family="Arial" font-size="10.00">_opening</text>
</a>
</g>
</g>
<!-- Node12&#45;&gt;Node26 -->
<g id="edge20" class="edge">
<title>Node12&#45;&gt;Node26</title>
<path fill="none" stroke="midnightblue" d="M774.33,-453.78C764.05,-450.94 754.03,-446.14 747,-438.12 666.36,-346.06 786.04,-261.8 711,-165.12 666.66,-107.99 584.52,-83.37 526.74,-72.85"/>
<polygon fill="midnightblue" stroke="midnightblue" points="773.68,-457.21 784.19,-455.93 775.17,-450.37 773.68,-457.21"/>
</g>
<!-- Node27 -->
<g id="node19" class="node">
<title>Node27</title>
<g id="a_node19"><a xlink:href="namespaceproblem__setup.html#a91bf08b893f31c7d232346b6178f0a98" target="_top" xlink:title=" ">
<polygon fill="none" stroke="black" points="202.5,-83.62 202.5,-102.62 331.5,-102.62 331.5,-83.62 202.5,-83.62"/>
<text text-anchor="middle" x="267" y="-90.62" font-family="Arial" font-size="10.00">problem_setup.get_center</text>
</a>
</g>
</g>
<!-- Node12&#45;&gt;Node27 -->
<g id="edge27" class="edge">
<title>Node12&#45;&gt;Node27</title>
<path fill="none" stroke="midnightblue" d="M774.44,-454C764.06,-451.18 753.96,-446.33 747,-438.12 642.97,-315.51 815.21,-200.58 711,-78.12 618.89,30.11 533.27,3.75 395,-29.12 350.56,-39.69 304.03,-68.4 281.63,-83.52"/>
<polygon fill="midnightblue" stroke="midnightblue" points="773.88,-457.46 784.39,-456.13 775.35,-450.61 773.88,-457.46"/>
</g>
<!-- Node28 -->
<g id="node20" class="node">
<title>Node28</title>
<g id="a_node20"><a xlink:href="apps_2twop_2main_8cpp.html#a0ddf1224851353fc92bfbff6f499fa97" target="_top" xlink:title=" ">
<polygon fill="none" stroke="black" points="618,-642.62 618,-661.62 656,-661.62 656,-642.62 618,-642.62"/>
<text text-anchor="middle" x="637" y="-649.62" font-family="Arial" font-size="10.00">main</text>
</a>
</g>
</g>
<!-- Node12&#45;&gt;Node28 -->
<g id="edge28" class="edge">
<title>Node12&#45;&gt;Node28</title>
<path fill="none" stroke="midnightblue" d="M811.11,-476.69C798.22,-513.03 765.57,-591 711,-632.12 694.94,-644.22 672,-649 656.14,-650.89"/>
<polygon fill="midnightblue" stroke="midnightblue" points="814.56,-477.43 814.48,-466.83 807.93,-475.16 814.56,-477.43"/>
</g>
<!-- Node29 -->
<g id="node21" class="node">
<title>Node29</title>
<g id="a_node21"><a xlink:href="namespaceproblem__setup.html#a662426f1cd2c0857864b28e98daa4d5a" target="_top" xlink:title=" ">
<polygon fill="none" stroke="red" points="579.5,-175.12 579.5,-205.12 694.5,-205.12 694.5,-175.12 579.5,-175.12"/>
<text text-anchor="start" x="587.5" y="-193.12" font-family="Arial" font-size="10.00">problem_setup.particle</text>
<text text-anchor="middle" x="637" y="-182.12" font-family="Arial" font-size="10.00">_locations</text>
</a>
</g>
</g>
<!-- Node12&#45;&gt;Node29 -->
<g id="edge29" class="edge">
<title>Node12&#45;&gt;Node29</title>
<path fill="none" stroke="midnightblue" d="M774.51,-453.62C764.22,-450.79 754.16,-446.03 747,-438.12 681.1,-365.31 772.16,-296.95 711,-220.12 706.14,-214.01 699.82,-209.13 692.94,-205.24"/>
<polygon fill="midnightblue" stroke="midnightblue" points="773.84,-457.06 784.36,-455.78 775.34,-450.22 773.84,-457.06"/>
</g>
<!-- Node30 -->
<g id="node22" class="node">
<title>Node30</title>
<g id="a_node22"><a xlink:href="namespacediscretize__circle__dense.html#a87485189661519c83371b0afee042062" target="_top" xlink:title=" ">
<polygon fill="none" stroke="red" points="567,-467.12 567,-497.12 707,-497.12 707,-467.12 567,-467.12"/>
<text text-anchor="start" x="575" y="-485.12" font-family="Arial" font-size="10.00">discretize_circle_dense.print</text>
<text text-anchor="middle" x="637" y="-474.12" font-family="Arial" font-size="10.00">_point</text>
</a>
</g>
</g>
<!-- Node12&#45;&gt;Node30 -->
<g id="edge36" class="edge">
<title>Node12&#45;&gt;Node30</title>
<path fill="none" stroke="midnightblue" d="M774.09,-463.17C754.03,-465.96 729.72,-469.35 707.22,-472.48"/>
<polygon fill="midnightblue" stroke="midnightblue" points="774.74,-466.61 784.16,-461.77 773.77,-459.68 774.74,-466.61"/>
</g>
<!-- Node32 -->
<g id="node23" class="node">
<title>Node32</title>
<g id="a_node23"><a xlink:href="namespacediscretize__circle.html#a928fb73bf9b364938a20bab31dbadb2c" target="_top" xlink:title=" ">
<polygon fill="none" stroke="black" points="582.5,-593.12 582.5,-623.12 691.5,-623.12 691.5,-593.12 582.5,-593.12"/>
<text text-anchor="start" x="590.5" y="-611.12" font-family="Arial" font-size="10.00">discretize_circle.print</text>
<text text-anchor="middle" x="637" y="-600.12" font-family="Arial" font-size="10.00">_point</text>
</a>
</g>
</g>
<!-- Node12&#45;&gt;Node32 -->
<g id="edge37" class="edge">
<title>Node12&#45;&gt;Node32</title>
<path fill="none" stroke="midnightblue" d="M805.47,-475.48C787.61,-501.46 751.79,-549.03 711,-578.12 702.74,-584.01 693.16,-589 683.71,-593.12"/>
<polygon fill="midnightblue" stroke="midnightblue" points="808.52,-477.2 811.21,-466.95 802.72,-473.29 808.52,-477.2"/>
</g>
<!-- Node33 -->
<g id="node24" class="node">
<title>Node33</title>
<g id="a_node24"><a xlink:href="namespacediscretize__circle__equidist.html#ab0d8f135d7916dc34b4c46ebdb286a6d" target="_top" xlink:title=" ">
<polygon fill="none" stroke="red" points="563,-418.12 563,-448.12 711,-448.12 711,-418.12 563,-418.12"/>
<text text-anchor="start" x="571" y="-436.12" font-family="Arial" font-size="10.00">discretize_circle_equidist.print</text>
<text text-anchor="middle" x="637" y="-425.12" font-family="Arial" font-size="10.00">_point</text>
</a>
</g>
</g>
<!-- Node12&#45;&gt;Node33 -->
<g id="edge39" class="edge">
<title>Node12&#45;&gt;Node33</title>
<path fill="none" stroke="midnightblue" d="M774.11,-451.32C755.26,-448.8 732.66,-445.78 711.34,-442.93"/>
<polygon fill="midnightblue" stroke="midnightblue" points="773.78,-454.81 784.16,-452.66 774.71,-447.87 773.78,-454.81"/>
</g>
<!-- Node35 -->
<g id="node25" class="node">
<title>Node35</title>
<g id="a_node25"><a xlink:href="namespacetest.html#ad42bc7bd3da5dce5ed3624b8fca7585f" target="_top" xlink:title="Perform test on taskflow.">
<polygon fill="none" stroke="red" points="589.5,-379.62 589.5,-398.62 684.5,-398.62 684.5,-379.62 589.5,-379.62"/>
<text text-anchor="middle" x="637" y="-386.62" font-family="Arial" font-size="10.00">test::testTaskflow</text>
</a>
</g>
</g>
<!-- Node12&#45;&gt;Node35 -->
<g id="edge41" class="edge">
<title>Node12&#45;&gt;Node35</title>
<path fill="none" stroke="midnightblue" d="M774.8,-448.78C765.35,-446.08 755.6,-442.59 747,-438.12 728.52,-428.52 729.52,-417.64 711,-408.12 702.85,-403.93 693.69,-400.61 684.7,-398"/>
<polygon fill="midnightblue" stroke="midnightblue" points="773.91,-452.17 784.47,-451.32 775.69,-445.4 773.91,-452.17"/>
</g>
<!-- Node14&#45;&gt;Node15 -->
<g id="edge15" class="edge">
<title>Node14&#45;&gt;Node15</title>
<path fill="none" stroke="midnightblue" d="M395.8,-262.41C374.44,-257.18 350.71,-251.37 329.56,-246.19"/>
<polygon fill="midnightblue" stroke="midnightblue" points="395.2,-265.86 405.75,-264.84 396.87,-259.06 395.2,-265.86"/>
</g>
<!-- Node14&#45;&gt;Node22 -->
<g id="edge16" class="edge">
<title>Node14&#45;&gt;Node22</title>
<path fill="none" stroke="midnightblue" d="M395.72,-277.63C325,-277.08 211.75,-276.21 139.28,-275.65"/>
<polygon fill="midnightblue" stroke="midnightblue" points="395.81,-281.13 405.84,-277.7 395.87,-274.13 395.81,-281.13"/>
</g>
<!-- Node14&#45;&gt;Node23 -->
<g id="edge17" class="edge">
<title>Node14&#45;&gt;Node23</title>
<path fill="none" stroke="midnightblue" d="M395.66,-293.54C382.2,-296.76 367.81,-300.21 353.72,-303.59"/>
<polygon fill="midnightblue" stroke="midnightblue" points="396.84,-296.85 405.75,-291.12 395.21,-290.04 396.84,-296.85"/>
</g>
<!-- Node23&#45;&gt;Node22 -->
<g id="edge18" class="edge">
<title>Node23&#45;&gt;Node22</title>
<path fill="none" stroke="midnightblue" d="M174.2,-301.11C159.3,-297.38 144.23,-293.6 130.36,-290.12"/>
<polygon fill="midnightblue" stroke="midnightblue" points="173.39,-304.52 183.94,-303.55 175.09,-297.73 173.39,-304.52"/>
</g>
<!-- Node26&#45;&gt;Node27 -->
<g id="edge21" class="edge">
<title>Node26&#45;&gt;Node27</title>
<path fill="none" stroke="midnightblue" d="M385.04,-76.05C367.44,-78.62 348.86,-81.33 331.8,-83.82"/>
<polygon fill="midnightblue" stroke="midnightblue" points="385.88,-79.47 395.27,-74.56 384.86,-72.54 385.88,-79.47"/>
</g>
<!-- Node27&#45;&gt;Node22 -->
<g id="edge22" class="edge">
<title>Node27&#45;&gt;Node22</title>
<path fill="none" stroke="midnightblue" d="M234.37,-107.06C215.93,-116.08 192.87,-128.95 175,-144.12 133.31,-179.53 96.5,-233.58 79.88,-259.8"/>
<polygon fill="midnightblue" stroke="midnightblue" points="236,-110.16 243.53,-102.71 233,-103.84 236,-110.16"/>
</g>
<!-- Node29&#45;&gt;Node14 -->
<g id="edge30" class="edge">
<title>Node29&#45;&gt;Node14</title>
<path fill="none" stroke="midnightblue" d="M597.05,-209.82C565.22,-225.92 520.87,-248.35 491.81,-263.04"/>
<polygon fill="midnightblue" stroke="midnightblue" points="598.74,-212.89 606.09,-205.25 595.59,-206.64 598.74,-212.89"/>
</g>
<!-- Node29&#45;&gt;Node15 -->
<g id="edge32" class="edge">
<title>Node29&#45;&gt;Node15</title>
<path fill="none" stroke="midnightblue" d="M569.14,-197.57C503.92,-204.84 405.1,-215.85 338.63,-223.25"/>
<polygon fill="midnightblue" stroke="midnightblue" points="569.76,-201.02 579.31,-196.44 568.98,-194.07 569.76,-201.02"/>
</g>
<!-- Node29&#45;&gt;Node22 -->
<g id="edge33" class="edge">
<title>Node29&#45;&gt;Node22</title>
<path fill="none" stroke="midnightblue" d="M569.39,-181.37C478.01,-171.82 309.74,-163.09 175,-206.12 140.41,-217.17 106.48,-243.16 87.07,-259.91"/>
<polygon fill="midnightblue" stroke="midnightblue" points="569.02,-184.85 579.34,-182.45 569.77,-177.89 569.02,-184.85"/>
</g>
<!-- Node29&#45;&gt;Node23 -->
<g id="edge34" class="edge">
<title>Node29&#45;&gt;Node23</title>
<path fill="none" stroke="midnightblue" d="M620.82,-213.81C602.27,-240.48 568.21,-282.63 527,-302.12 475.09,-326.68 410.79,-332.26 359.25,-331.66"/>
<polygon fill="midnightblue" stroke="midnightblue" points="623.8,-215.66 626.51,-205.42 618,-211.73 623.8,-215.66"/>
</g>
<!-- Node29&#45;&gt;Node26 -->
<g id="edge31" class="edge">
<title>Node29&#45;&gt;Node26</title>
<path fill="none" stroke="midnightblue" d="M609.68,-168.72C587.93,-151.31 556,-126.38 527,-106.12 519.89,-101.16 512.2,-96.07 504.68,-91.24"/>
<polygon fill="midnightblue" stroke="midnightblue" points="607.51,-171.47 617.5,-175.01 611.9,-166.01 607.51,-171.47"/>
</g>
<!-- Node29&#45;&gt;Node27 -->
<g id="edge35" class="edge">
<title>Node29&#45;&gt;Node27</title>
<path fill="none" stroke="midnightblue" d="M595.91,-170.87C575.63,-161.74 550.4,-151.28 527,-144.12 461.7,-124.15 384.68,-110.15 331.69,-101.93"/>
<polygon fill="midnightblue" stroke="midnightblue" points="594.6,-174.12 605.15,-175.1 597.51,-167.76 594.6,-174.12"/>
</g>
<!-- Node32&#45;&gt;Node25 -->
<g id="edge38" class="edge">
<title>Node32&#45;&gt;Node25</title>
<path fill="none" stroke="midnightblue" d="M572.34,-601.17C557.6,-599.56 541.89,-597.85 527.09,-596.23"/>
<polygon fill="midnightblue" stroke="midnightblue" points="572.05,-604.66 582.37,-602.27 572.81,-597.7 572.05,-604.66"/>
</g>
<!-- Node37&#45;&gt;Node9 -->
<g id="edge44" class="edge">
<title>Node37&#45;&gt;Node9</title>
<path fill="none" stroke="midnightblue" d="M746.89,-822.35C671.91,-818.34 556.35,-812.16 498.14,-809.05"/>
<polygon fill="midnightblue" stroke="midnightblue" points="747.02,-825.86 757.19,-822.9 747.4,-818.87 747.02,-825.86"/>
</g>
<!-- Node38&#45;&gt;Node9 -->
<g id="edge46" class="edge">
<title>Node38&#45;&gt;Node9</title>
<path fill="none" stroke="midnightblue" d="M737.18,-868.6C687.07,-857.64 621.25,-843.16 563,-830.12 541.59,-825.33 517.65,-819.88 498.45,-815.49"/>
<polygon fill="midnightblue" stroke="midnightblue" points="736.47,-872.03 746.98,-870.75 737.96,-865.19 736.47,-872.03"/>
</g>
<!-- Node39&#45;&gt;Node4 -->
<g id="edge50" class="edge">
<title>Node39&#45;&gt;Node4</title>
<path fill="none" stroke="midnightblue" d="M932.52,-911.47C930.23,-912.88 928.04,-914.42 926,-916.12 898.8,-938.75 916.72,-963.93 890,-987.12 875.16,-1000 853.09,-1006.05 837.6,-1008.83"/>
<polygon fill="midnightblue" stroke="midnightblue" points="934.51,-914.38 941.79,-906.69 931.3,-908.16 934.51,-914.38"/>
</g>
<!-- Node39&#45;&gt;Node8 -->
<g id="edge49" class="edge">
<title>Node39&#45;&gt;Node8</title>
<path fill="none" stroke="midnightblue" d="M939.57,-908.66C923.77,-911.72 906.24,-914.6 890,-916.12 826.72,-922.05 802.49,-947.12 747,-916.12 686.19,-882.16 655.12,-798.8 643.51,-759.83"/>
<polygon fill="midnightblue" stroke="midnightblue" points="940.56,-912.03 949.67,-906.63 939.18,-905.17 940.56,-912.03"/>
</g>
<!-- Node39&#45;&gt;Node9 -->
<g id="edge52" class="edge">
<title>Node39&#45;&gt;Node9</title>
<path fill="none" stroke="midnightblue" d="M942.82,-909.74C937.08,-911.68 931.36,-913.81 926,-916.12 908.99,-923.46 907.88,-932.29 890,-937.12 828.65,-953.71 809.31,-949.63 747,-937.12 636.1,-914.85 517.27,-842.95 476.6,-816.77"/>
<polygon fill="midnightblue" stroke="midnightblue" points="943.98,-913.05 952.44,-906.67 941.85,-906.38 943.98,-913.05"/>
</g>
<!-- Node39&#45;&gt;Node38 -->
<g id="edge51" class="edge">
<title>Node39&#45;&gt;Node38</title>
<path fill="none" stroke="midnightblue" d="M927.74,-893.08C915.55,-892.3 902.7,-891.47 890.28,-890.67"/>
<polygon fill="midnightblue" stroke="midnightblue" points="927.59,-896.58 937.8,-893.73 928.04,-889.6 927.59,-896.58"/>
</g>
</g>
</svg>
