<?xml version="1.0" encoding="UTF-8" standalone="no"?>
<!DOCTYPE svg PUBLIC "-//W3C//DTD SVG 1.1//EN"
 "http://www.w3.org/Graphics/SVG/1.1/DTD/svg11.dtd">
<!-- Generated by graphviz version 2.43.0 (0)
 -->
<!-- Title: problem_setup.generate_rect_floor_gmsh_input Pages: 1 -->
<svg width="571pt" height="176pt"
 viewBox="0.00 0.00 571.00 176.00" xmlns="http://www.w3.org/2000/svg" xmlns:xlink="http://www.w3.org/1999/xlink">
<g id="graph0" class="graph" transform="scale(1 1) rotate(0) translate(4 172)">
<title>problem_setup.generate_rect_floor_gmsh_input</title>
<!-- Node1 -->
<g id="node1" class="node">
<title>Node1</title>
<g id="a_node1"><a xlink:title=" ">
<polygon fill="#bfbfbf" stroke="black" points="0,-46.5 0,-76.5 121,-76.5 121,-46.5 0,-46.5"/>
<text text-anchor="start" x="8" y="-64.5" font-family="Arial" font-size="10.00">problem_setup.generate</text>
<text text-anchor="middle" x="60.5" y="-53.5" font-family="Arial" font-size="10.00">_rect_floor_gmsh_input</text>
</a>
</g>
</g>
<!-- Node2 -->
<g id="node2" class="node">
<title>Node2</title>
<g id="a_node2"><a xlink:href="namespaceproblem__setup.html#a58a765e10407e76320682bfd9f6462ae" target="_top" xlink:title=" ">
<polygon fill="none" stroke="black" points="157,-71.5 157,-101.5 270,-101.5 270,-71.5 157,-71.5"/>
<text text-anchor="start" x="165" y="-89.5" font-family="Arial" font-size="10.00">problem_setup.get_ref</text>
<text text-anchor="middle" x="213.5" y="-78.5" font-family="Arial" font-size="10.00">_rect_points</text>
</a>
</g>
</g>
<!-- Node1&#45;&gt;Node2 -->
<g id="edge1" class="edge">
<title>Node1&#45;&gt;Node2</title>
<path fill="none" stroke="midnightblue" d="M121.18,-71.38C129.59,-72.77 138.28,-74.21 146.8,-75.62"/>
<polygon fill="midnightblue" stroke="midnightblue" points="146.26,-79.08 156.7,-77.26 147.4,-72.17 146.26,-79.08"/>
</g>
<!-- Node7 -->
<g id="node7" class="node">
<title>Node7</title>
<g id="a_node7"><a xlink:href="namespaceproblem__setup.html#ae45ac6289b055b690701987871bc07cc" target="_top" xlink:title=" ">
<polygon fill="none" stroke="black" points="161.5,-22.5 161.5,-52.5 265.5,-52.5 265.5,-22.5 161.5,-22.5"/>
<text text-anchor="start" x="169.5" y="-40.5" font-family="Arial" font-size="10.00">problem_setup.write</text>
<text text-anchor="middle" x="213.5" y="-29.5" font-family="Arial" font-size="10.00">_point_geo</text>
</a>
</g>
</g>
<!-- Node1&#45;&gt;Node7 -->
<g id="edge8" class="edge">
<title>Node1&#45;&gt;Node7</title>
<path fill="none" stroke="midnightblue" d="M121.18,-52.01C130.97,-50.46 141.13,-48.84 150.96,-47.28"/>
<polygon fill="midnightblue" stroke="midnightblue" points="151.74,-50.7 161.06,-45.68 150.64,-43.79 151.74,-50.7"/>
</g>
<!-- Node3 -->
<g id="node3" class="node">
<title>Node3</title>
<g id="a_node3"><a xlink:href="namespaceproblem__setup.html#a700be09e5b12da02f5d11c0d21cf5d5b" target="_top" xlink:title=" ">
<polygon fill="none" stroke="black" points="306,-137.5 306,-167.5 419,-167.5 419,-137.5 306,-137.5"/>
<text text-anchor="start" x="314" y="-155.5" font-family="Arial" font-size="10.00">problem_setup.get_ref</text>
<text text-anchor="middle" x="362.5" y="-144.5" font-family="Arial" font-size="10.00">_drum_points</text>
</a>
</g>
</g>
<!-- Node2&#45;&gt;Node3 -->
<g id="edge2" class="edge">
<title>Node2&#45;&gt;Node3</title>
<path fill="none" stroke="midnightblue" d="M248.22,-101.64C269.14,-111.03 296.21,-123.18 318.63,-133.25"/>
<polygon fill="midnightblue" stroke="midnightblue" points="317.38,-136.53 327.93,-137.43 320.24,-130.14 317.38,-136.53"/>
</g>
<!-- Node4 -->
<g id="node4" class="node">
<title>Node4</title>
<g id="a_node4"><a xlink:href="namespaceproblem__setup.html#a192b6d085d04429814f30104aeb18493" target="_top" xlink:title=" ">
<polygon fill="none" stroke="black" points="455,-99 455,-118 563,-118 563,-99 455,-99"/>
<text text-anchor="middle" x="509" y="-106" font-family="Arial" font-size="10.00">problem_setup.rotate</text>
</a>
</g>
</g>
<!-- Node2&#45;&gt;Node4 -->
<g id="edge7" class="edge">
<title>Node2&#45;&gt;Node4</title>
<path fill="none" stroke="midnightblue" d="M270.05,-90.66C319.75,-94.39 392.57,-99.85 444.55,-103.74"/>
<polygon fill="midnightblue" stroke="midnightblue" points="444.42,-107.24 454.66,-104.5 444.95,-100.26 444.42,-107.24"/>
</g>
<!-- Node5 -->
<g id="node5" class="node">
<title>Node5</title>
<g id="a_node5"><a xlink:href="namespaceproblem__setup.html#a8e552b0e3bb3bde7c390d6906dbe88cd" target="_top" xlink:title=" ">
<polygon fill="none" stroke="black" points="306,-49.5 306,-79.5 419,-79.5 419,-49.5 306,-49.5"/>
<text text-anchor="start" x="314" y="-67.5" font-family="Arial" font-size="10.00">problem_setup.get_ref</text>
<text text-anchor="middle" x="362.5" y="-56.5" font-family="Arial" font-size="10.00">_hex_points</text>
</a>
</g>
</g>
<!-- Node2&#45;&gt;Node5 -->
<g id="edge4" class="edge">
<title>Node2&#45;&gt;Node5</title>
<path fill="none" stroke="midnightblue" d="M270.07,-78.18C278.49,-76.92 287.24,-75.61 295.84,-74.33"/>
<polygon fill="midnightblue" stroke="midnightblue" points="296.48,-77.77 305.85,-72.83 295.44,-70.85 296.48,-77.77"/>
</g>
<!-- Node6 -->
<g id="node6" class="node">
<title>Node6</title>
<g id="a_node6"><a xlink:href="namespaceproblem__setup.html#ac4731e8b5a85713f528c4c79651768ac" target="_top" xlink:title=" ">
<polygon fill="none" stroke="black" points="306,-0.5 306,-30.5 419,-30.5 419,-0.5 306,-0.5"/>
<text text-anchor="start" x="314" y="-18.5" font-family="Arial" font-size="10.00">problem_setup.get_ref</text>
<text text-anchor="middle" x="362.5" y="-7.5" font-family="Arial" font-size="10.00">_triangle_points</text>
</a>
</g>
</g>
<!-- Node2&#45;&gt;Node6 -->
<g id="edge6" class="edge">
<title>Node2&#45;&gt;Node6</title>
<path fill="none" stroke="midnightblue" d="M251.26,-71.47C257.58,-68.64 264.04,-65.59 270,-62.5 286.65,-53.87 289.42,-49.26 306,-40.5 309.53,-38.64 313.22,-36.78 316.95,-34.97"/>
<polygon fill="midnightblue" stroke="midnightblue" points="318.7,-38.02 326.24,-30.58 315.71,-31.69 318.7,-38.02"/>
</g>
<!-- Node3&#45;&gt;Node4 -->
<g id="edge3" class="edge">
<title>Node3&#45;&gt;Node4</title>
<path fill="none" stroke="midnightblue" d="M412.82,-137.48C430.29,-132.16 449.76,-126.24 466.51,-121.13"/>
<polygon fill="midnightblue" stroke="midnightblue" points="468,-124.34 476.54,-118.08 465.96,-117.64 468,-124.34"/>
</g>
<!-- Node5&#45;&gt;Node4 -->
<g id="edge5" class="edge">
<title>Node5&#45;&gt;Node4</title>
<path fill="none" stroke="midnightblue" d="M412.82,-79.52C430.29,-84.84 449.76,-90.76 466.51,-95.87"/>
<polygon fill="midnightblue" stroke="midnightblue" points="465.96,-99.36 476.54,-98.92 468,-92.66 465.96,-99.36"/>
</g>
</g>
</svg>
