<?xml version="1.0" encoding="UTF-8" standalone="no"?>
<!DOCTYPE svg PUBLIC "-//W3C//DTD SVG 1.1//EN"
 "http://www.w3.org/Graphics/SVG/1.1/DTD/svg11.dtd">
<!-- Generated by graphviz version 2.43.0 (0)
 -->
<!-- Title: util.generate_rectangle_gmsh_input Pages: 1 -->
<svg width="383pt" height="138pt"
 viewBox="0.00 0.00 383.00 138.00" xmlns="http://www.w3.org/2000/svg" xmlns:xlink="http://www.w3.org/1999/xlink">
<g id="graph0" class="graph" transform="scale(1 1) rotate(0) translate(4 134)">
<title>util.generate_rectangle_gmsh_input</title>
<!-- Node1 -->
<g id="Node000001" class="node">
<title>Node1</title>
<g id="a_Node000001"><a xlink:title=" ">
<polygon fill="#999999" stroke="#666666" points="115,-79.5 0,-79.5 0,-49.5 115,-49.5 115,-79.5"/>
<text text-anchor="start" x="8" y="-67.5" font-family="Arial" font-size="10.00">util.generate_rectangle</text>
<text text-anchor="middle" x="57.5" y="-56.5" font-family="Arial" font-size="10.00">_gmsh_input</text>
</a>
</g>
</g>
<!-- Node2 -->
<g id="Node000002" class="node">
<title>Node2</title>
<g id="a_Node000002"><a xlink:href="namespaceutil.html#a99247323274787b4907a50a62cc4705d" target="_top" xlink:title=" ">
<polygon fill="white" stroke="#666666" points="257,-130 164,-130 164,-111 257,-111 257,-130"/>
<text text-anchor="middle" x="210.5" y="-118" font-family="Arial" font-size="10.00">util.gmsh_file_hdr</text>
</a>
</g>
</g>
<!-- Node1&#45;&gt;Node2 -->
<g id="edge1_Node000001_Node000002" class="edge">
<title>Node1&#45;&gt;Node2</title>
<g id="a_edge1_Node000001_Node000002"><a xlink:title=" ">
<path fill="none" stroke="#63b8ff" d="M92.91,-79.51C110.2,-86.83 131.55,-95.53 151,-102.5 156.13,-104.34 161.55,-106.16 166.93,-107.9"/>
<polygon fill="#63b8ff" stroke="#63b8ff" points="165.94,-111.26 176.53,-110.93 168.05,-104.58 165.94,-111.26"/>
</a>
</g>
</g>
<!-- Node3 -->
<g id="Node000003" class="node">
<title>Node3</title>
<g id="a_Node000003"><a xlink:href="namespaceutil.html#a030bf07c9f1c34efa9a2543854fa35d0" target="_top" xlink:title=" ">
<polygon fill="white" stroke="#666666" points="261,-93 160,-93 160,-74 261,-74 261,-93"/>
<text text-anchor="middle" x="210.5" y="-81" font-family="Arial" font-size="10.00">util.print_line_gmsh</text>
</a>
</g>
</g>
<!-- Node1&#45;&gt;Node3 -->
<g id="edge2_Node000001_Node000003" class="edge">
<title>Node1&#45;&gt;Node3</title>
<g id="a_edge2_Node000001_Node000003"><a xlink:title=" ">
<path fill="none" stroke="#63b8ff" d="M115.16,-71.63C126.55,-73.06 138.55,-74.57 150.04,-76.02"/>
<polygon fill="#63b8ff" stroke="#63b8ff" points="149.61,-79.49 159.97,-77.27 150.48,-72.55 149.61,-79.49"/>
</a>
</g>
</g>
<!-- Node5 -->
<g id="Node000005" class="node">
<title>Node5</title>
<g id="a_Node000005"><a xlink:href="namespaceutil.html#ad330a2711f9cfe26b62874d934d7a299" target="_top" xlink:title=" ">
<polygon fill="white" stroke="#666666" points="270,-56 151,-56 151,-37 270,-37 270,-56"/>
<text text-anchor="middle" x="210.5" y="-44" font-family="Arial" font-size="10.00">util.print_lineloop_gmsh</text>
</a>
</g>
</g>
<!-- Node1&#45;&gt;Node5 -->
<g id="edge4_Node000001_Node000005" class="edge">
<title>Node1&#45;&gt;Node5</title>
<g id="a_edge4_Node000001_Node000005"><a xlink:title=" ">
<path fill="none" stroke="#63b8ff" d="M115.16,-57.75C123.52,-56.75 132.21,-55.71 140.78,-54.69"/>
<polygon fill="#63b8ff" stroke="#63b8ff" points="141.25,-58.16 150.76,-53.5 140.42,-51.21 141.25,-58.16"/>
</a>
</g>
</g>
<!-- Node6 -->
<g id="Node000006" class="node">
<title>Node6</title>
<g id="a_Node000006"><a xlink:href="namespaceutil.html#a19a2805176f8a96585bbec20c405765e" target="_top" xlink:title=" ">
<polygon fill="white" stroke="#666666" points="264,-19 157,-19 157,0 264,0 264,-19"/>
<text text-anchor="middle" x="210.5" y="-7" font-family="Arial" font-size="10.00">util.print_point_gmsh</text>
</a>
</g>
</g>
<!-- Node1&#45;&gt;Node6 -->
<g id="edge6_Node000001_Node000006" class="edge">
<title>Node1&#45;&gt;Node6</title>
<g id="a_edge6_Node000001_Node000006"><a xlink:title=" ">
<path fill="none" stroke="#63b8ff" d="M95.67,-49.47C112.49,-42.82 132.66,-35.04 151,-28.5 156.94,-26.38 163.25,-24.23 169.45,-22.17"/>
<polygon fill="#63b8ff" stroke="#63b8ff" points="170.61,-25.47 179.03,-19.03 168.43,-18.82 170.61,-25.47"/>
</a>
</g>
</g>
<!-- Node4 -->
<g id="Node000004" class="node">
<title>Node4</title>
<g id="a_Node000004"><a xlink:href="namespaceutil.html#a9ece00bdfa36ec661ae172119c1a2064" target="_top" xlink:title=" ">
<polygon fill="white" stroke="#666666" points="375,-56 306,-56 306,-37 375,-37 375,-56"/>
<text text-anchor="middle" x="340.5" y="-44" font-family="Arial" font-size="10.00">util.print_list</text>
</a>
</g>
</g>
<!-- Node3&#45;&gt;Node4 -->
<g id="edge3_Node000003_Node000004" class="edge">
<title>Node3&#45;&gt;Node4</title>
<g id="a_edge3_Node000003_Node000004"><a xlink:title=" ">
<path fill="none" stroke="#63b8ff" d="M244.46,-73.97C260.31,-69.39 279.52,-63.84 296.5,-58.93"/>
<polygon fill="#63b8ff" stroke="#63b8ff" points="297.57,-62.26 306.2,-56.12 295.62,-55.54 297.57,-62.26"/>
</a>
</g>
</g>
<!-- Node5&#45;&gt;Node4 -->
<g id="edge5_Node000005_Node000004" class="edge">
<title>Node5&#45;&gt;Node4</title>
<g id="a_edge5_Node000005_Node000004"><a xlink:title=" ">
<path fill="none" stroke="#63b8ff" d="M270.26,-46.5C278.85,-46.5 287.57,-46.5 295.8,-46.5"/>
<polygon fill="#63b8ff" stroke="#63b8ff" points="295.9,-50 305.9,-46.5 295.9,-43 295.9,-50"/>
</a>
</g>
</g>
<!-- Node6&#45;&gt;Node4 -->
<g id="edge7_Node000006_Node000004" class="edge">
<title>Node6&#45;&gt;Node4</title>
<g id="a_edge7_Node000006_Node000004"><a xlink:title=" ">
<path fill="none" stroke="#63b8ff" d="M244.46,-19.03C260.31,-23.61 279.52,-29.16 296.5,-34.07"/>
<polygon fill="#63b8ff" stroke="#63b8ff" points="295.62,-37.46 306.2,-36.88 297.57,-30.74 295.62,-37.46"/>
</a>
</g>
</g>
</g>
</svg>
