<?xml version="1.0" encoding="UTF-8" standalone="no"?>
<!DOCTYPE svg PUBLIC "-//W3C//DTD SVG 1.1//EN"
 "http://www.w3.org/Graphics/SVG/1.1/DTD/svg11.dtd">
<!-- Generated by graphviz version 2.43.0 (0)
 -->
<!-- Title: problem_setup.generate_particle_gmsh_input Pages: 1 -->
<svg width="804pt" height="633pt"
 viewBox="0.00 0.00 804.00 632.56" xmlns="http://www.w3.org/2000/svg" xmlns:xlink="http://www.w3.org/1999/xlink">
<g id="graph0" class="graph" transform="scale(1 1) rotate(0) translate(4 628.56)">
<title>problem_setup.generate_particle_gmsh_input</title>
<!-- Node1 -->
<g id="node1" class="node">
<title>Node1</title>
<g id="a_node1"><a xlink:title=" ">
<polygon fill="#bfbfbf" stroke="black" points="0,-507 0,-537 121,-537 121,-507 0,-507"/>
<text text-anchor="start" x="8" y="-525" font-family="Arial" font-size="10.00">problem_setup.generate</text>
<text text-anchor="middle" x="60.5" y="-514" font-family="Arial" font-size="10.00">_particle_gmsh_input</text>
</a>
</g>
</g>
<!-- Node2 -->
<g id="node2" class="node">
<title>Node2</title>
<g id="a_node2"><a xlink:href="namespaceproblem__setup.html#a147f310ff74124342d15ab356739883f" target="_top" xlink:title=" ">
<polygon fill="none" stroke="black" points="157,-444 157,-474 278,-474 278,-444 157,-444"/>
<text text-anchor="start" x="165" y="-462" font-family="Arial" font-size="10.00">problem_setup.generate</text>
<text text-anchor="middle" x="217.5" y="-451" font-family="Arial" font-size="10.00">_particle_gmsh_input</text>
</a>
</g>
</g>
<!-- Node1&#45;&gt;Node2 -->
<g id="edge1" class="edge">
<title>Node1&#45;&gt;Node2</title>
<path fill="none" stroke="midnightblue" d="M98.63,-506.91C120.02,-498.21 147.11,-487.2 169.92,-477.93"/>
<polygon fill="midnightblue" stroke="midnightblue" points="171.46,-481.08 179.41,-474.08 168.83,-474.6 171.46,-481.08"/>
</g>
<!-- Node6 -->
<g id="node6" class="node">
<title>Node6</title>
<g id="a_node6"><a xlink:href="namespaceproblem__setup.html#a700be09e5b12da02f5d11c0d21cf5d5b" target="_top" xlink:title=" ">
<polygon fill="none" stroke="red" points="662.5,-326 662.5,-356 775.5,-356 775.5,-326 662.5,-326"/>
<text text-anchor="start" x="670.5" y="-344" font-family="Arial" font-size="10.00">problem_setup.get_ref</text>
<text text-anchor="middle" x="719" y="-333" font-family="Arial" font-size="10.00">_drum_points</text>
</a>
</g>
</g>
<!-- Node1&#45;&gt;Node6 -->
<g id="edge25" class="edge">
<title>Node1&#45;&gt;Node6</title>
<path fill="none" stroke="midnightblue" d="M91.05,-537.02C180.3,-580.03 450.53,-692.74 606,-566 667.55,-515.83 597.43,-456.72 642,-391 650.2,-378.9 662.41,-369.02 674.65,-361.33"/>
<polygon fill="midnightblue" stroke="midnightblue" points="676.66,-364.2 683.51,-356.11 673.11,-358.17 676.66,-364.2"/>
</g>
<!-- Node3 -->
<g id="node3" class="node">
<title>Node3</title>
<g id="a_node3"><a xlink:href="namespaceproblem__setup.html#a64e067098e447f766d042476ef5abe85" target="_top" xlink:title=" ">
<polygon fill="none" stroke="black" points="314,-302 314,-332 424,-332 424,-302 314,-302"/>
<text text-anchor="start" x="322" y="-320" font-family="Arial" font-size="10.00">problem_setup.create</text>
<text text-anchor="middle" x="369" y="-309" font-family="Arial" font-size="10.00">_input_file</text>
</a>
</g>
</g>
<!-- Node2&#45;&gt;Node3 -->
<g id="edge2" class="edge">
<title>Node2&#45;&gt;Node3</title>
<path fill="none" stroke="midnightblue" d="M234.5,-443.8C261.03,-418.61 314.22,-368.08 344.85,-338.99"/>
<polygon fill="midnightblue" stroke="midnightblue" points="347.28,-341.51 352.12,-332.09 342.45,-336.44 347.28,-341.51"/>
</g>
<!-- Node11 -->
<g id="node10" class="node">
<title>Node11</title>
<g id="a_node10"><a xlink:href="namespaceproblem__setup.html#af977354e61703cd925c2511fd3ca0858" target="_top" xlink:title=" ">
<polygon fill="none" stroke="black" points="478.5,-487.5 478.5,-506.5 587.5,-506.5 587.5,-487.5 478.5,-487.5"/>
<text text-anchor="middle" x="533" y="-494.5" font-family="Arial" font-size="10.00">problem_setup.get_E</text>
</a>
</g>
</g>
<!-- Node2&#45;&gt;Node11 -->
<g id="edge20" class="edge">
<title>Node2&#45;&gt;Node11</title>
<path fill="none" stroke="midnightblue" d="M278.06,-468.07C289.95,-469.78 302.37,-471.51 314,-473 365.75,-479.64 424.55,-486.05 468.03,-490.57"/>
<polygon fill="midnightblue" stroke="midnightblue" points="467.88,-494.07 478.18,-491.62 468.6,-487.11 467.88,-494.07"/>
</g>
<!-- Node12 -->
<g id="node11" class="node">
<title>Node12</title>
<g id="a_node11"><a xlink:href="namespaceproblem__setup.html#a564e6017e037399c311be8b31653e45d" target="_top" xlink:title=" ">
<polygon fill="none" stroke="black" points="471.5,-449.5 471.5,-468.5 594.5,-468.5 594.5,-449.5 471.5,-449.5"/>
<text text-anchor="middle" x="533" y="-456.5" font-family="Arial" font-size="10.00">problem_setup.get_eff_k</text>
</a>
</g>
</g>
<!-- Node2&#45;&gt;Node12 -->
<g id="edge21" class="edge">
<title>Node2&#45;&gt;Node12</title>
<path fill="none" stroke="midnightblue" d="M278.2,-459C330.39,-459 406.22,-459 461.4,-459"/>
<polygon fill="midnightblue" stroke="midnightblue" points="461.45,-462.5 471.45,-459 461.45,-455.5 461.45,-462.5"/>
</g>
<!-- Node13 -->
<g id="node12" class="node">
<title>Node13</title>
<g id="a_node12"><a xlink:href="namespaceproblem__setup.html#adc274a492cfb30270617c3c66d64c6c4" target="_top" xlink:title=" ">
<polygon fill="none" stroke="black" points="478,-78.5 478,-97.5 588,-97.5 588,-78.5 478,-78.5"/>
<text text-anchor="middle" x="533" y="-85.5" font-family="Arial" font-size="10.00">problem_setup.get_G</text>
</a>
</g>
</g>
<!-- Node2&#45;&gt;Node13 -->
<g id="edge22" class="edge">
<title>Node2&#45;&gt;Node13</title>
<path fill="none" stroke="midnightblue" d="M224.63,-443.89C247.21,-390.2 331.12,-206.99 460,-115 467.82,-109.42 476.94,-104.84 486,-101.14"/>
<polygon fill="midnightblue" stroke="midnightblue" points="487.26,-104.41 495.38,-97.6 484.78,-97.86 487.26,-104.41"/>
</g>
<!-- Node14 -->
<g id="node13" class="node">
<title>Node14</title>
<g id="a_node13"><a xlink:href="namespaceproblem__setup.html#a662426f1cd2c0857864b28e98daa4d5a" target="_top" xlink:title=" ">
<polygon fill="none" stroke="black" points="475.5,-29 475.5,-59 590.5,-59 590.5,-29 475.5,-29"/>
<text text-anchor="start" x="483.5" y="-47" font-family="Arial" font-size="10.00">problem_setup.particle</text>
<text text-anchor="middle" x="533" y="-36" font-family="Arial" font-size="10.00">_locations</text>
</a>
</g>
</g>
<!-- Node2&#45;&gt;Node14 -->
<g id="edge23" class="edge">
<title>Node2&#45;&gt;Node14</title>
<path fill="none" stroke="midnightblue" d="M219.2,-443.84C222.2,-395.28 237.58,-241.28 314,-148 352.29,-101.27 416.53,-74.19 465.38,-59.46"/>
<polygon fill="midnightblue" stroke="midnightblue" points="466.62,-62.74 475.25,-56.58 464.67,-56.02 466.62,-62.74"/>
</g>
<!-- Node23 -->
<g id="node17" class="node">
<title>Node23</title>
<g id="a_node17"><a xlink:href="namespaceproblem__setup.html#a9ce710367bd7258e6dd619e9ec930b36" target="_top" xlink:title=" ">
<polygon fill="none" stroke="black" points="482,-526 482,-556 584,-556 584,-526 482,-526"/>
<text text-anchor="start" x="490" y="-544" font-family="Arial" font-size="10.00">problem_setup.print</text>
<text text-anchor="middle" x="533" y="-533" font-family="Arial" font-size="10.00">_dbl_list</text>
</a>
</g>
</g>
<!-- Node2&#45;&gt;Node23 -->
<g id="edge24" class="edge">
<title>Node2&#45;&gt;Node23</title>
<path fill="none" stroke="midnightblue" d="M257.17,-474.01C274.41,-480.38 295.05,-487.56 314,-493 366.7,-508.12 427.74,-521.19 471.79,-529.85"/>
<polygon fill="midnightblue" stroke="midnightblue" points="471.28,-533.32 481.77,-531.8 472.62,-526.45 471.28,-533.32"/>
</g>
<!-- Node4 -->
<g id="node4" class="node">
<title>Node4</title>
<g id="a_node4"><a xlink:href="namespaceproblem__setup.html#a2deb4dabdc948f0b2b009c3576518ade" target="_top" xlink:title=" ">
<polygon fill="none" stroke="black" points="470.5,-155 470.5,-185 595.5,-185 595.5,-155 470.5,-155"/>
<text text-anchor="start" x="478.5" y="-173" font-family="Arial" font-size="10.00">problem_setup.generate</text>
<text text-anchor="middle" x="533" y="-162" font-family="Arial" font-size="10.00">_cir_particle_gmsh_input</text>
</a>
</g>
</g>
<!-- Node3&#45;&gt;Node4 -->
<g id="edge3" class="edge">
<title>Node3&#45;&gt;Node4</title>
<path fill="none" stroke="midnightblue" d="M380.46,-301.64C401.85,-270.38 449.47,-201.68 460,-194 462.05,-192.5 464.2,-191.1 466.42,-189.78"/>
<polygon fill="midnightblue" stroke="midnightblue" points="468.08,-192.86 475.28,-185.09 464.81,-186.67 468.08,-192.86"/>
</g>
<!-- Node5 -->
<g id="node5" class="node">
<title>Node5</title>
<g id="a_node5"><a xlink:href="namespaceproblem__setup.html#ae83c0d80c0947e65b98e4a2da0c07601" target="_top" xlink:title=" ">
<polygon fill="none" stroke="black" points="460,-302 460,-332 606,-332 606,-302 460,-302"/>
<text text-anchor="start" x="468" y="-320" font-family="Arial" font-size="10.00">problem_setup.generate</text>
<text text-anchor="middle" x="533" y="-309" font-family="Arial" font-size="10.00">_drum2d_particle_gmsh_input</text>
</a>
</g>
</g>
<!-- Node3&#45;&gt;Node5 -->
<g id="edge4" class="edge">
<title>Node3&#45;&gt;Node5</title>
<path fill="none" stroke="midnightblue" d="M424.39,-317C432.59,-317 441.19,-317 449.81,-317"/>
<polygon fill="midnightblue" stroke="midnightblue" points="449.91,-320.5 459.91,-317 449.91,-313.5 449.91,-320.5"/>
</g>
<!-- Node8 -->
<g id="node7" class="node">
<title>Node8</title>
<g id="a_node7"><a xlink:href="namespaceproblem__setup.html#a541e6c5ea41e139ea1eca83975753fbb" target="_top" xlink:title=" ">
<polygon fill="none" stroke="black" points="472,-400 472,-430 594,-430 594,-400 472,-400"/>
<text text-anchor="start" x="480" y="-418" font-family="Arial" font-size="10.00">problem_setup.generate</text>
<text text-anchor="middle" x="533" y="-407" font-family="Arial" font-size="10.00">_tri_particle_gmsh_input</text>
</a>
</g>
</g>
<!-- Node3&#45;&gt;Node8 -->
<g id="edge6" class="edge">
<title>Node3&#45;&gt;Node8</title>
<path fill="none" stroke="midnightblue" d="M384.96,-332.28C401.84,-348.78 430.79,-374.85 460,-391 463.09,-392.71 466.33,-394.32 469.64,-395.84"/>
<polygon fill="midnightblue" stroke="midnightblue" points="468.56,-399.19 479.13,-399.88 471.3,-392.75 468.56,-399.19"/>
</g>
<!-- Node10 -->
<g id="node9" class="node">
<title>Node10</title>
<g id="a_node9"><a xlink:href="namespaceproblem__setup.html#ad281d5f1d41eee4b1a595ede1aff337c" target="_top" xlink:title=" ">
<polygon fill="none" stroke="black" points="472.5,-351 472.5,-381 593.5,-381 593.5,-351 472.5,-351"/>
<text text-anchor="start" x="480.5" y="-369" font-family="Arial" font-size="10.00">problem_setup.generate</text>
<text text-anchor="middle" x="533" y="-358" font-family="Arial" font-size="10.00">_wall_gmsh_input</text>
</a>
</g>
</g>
<!-- Node3&#45;&gt;Node10 -->
<g id="edge8" class="edge">
<title>Node3&#45;&gt;Node10</title>
<path fill="none" stroke="midnightblue" d="M419.93,-332.1C436.48,-337.11 455.07,-342.73 472.29,-347.94"/>
<polygon fill="midnightblue" stroke="midnightblue" points="471.65,-351.4 482.24,-350.95 473.68,-344.7 471.65,-351.4"/>
</g>
<!-- Node3&#45;&gt;Node11 -->
<g id="edge9" class="edge">
<title>Node3&#45;&gt;Node11</title>
<path fill="none" stroke="midnightblue" d="M374.05,-332.07C383.46,-364.08 409.89,-439.15 460,-478 462.79,-480.16 465.81,-482.08 468.97,-483.79"/>
<polygon fill="midnightblue" stroke="midnightblue" points="467.65,-487.03 478.19,-488.03 470.57,-480.67 467.65,-487.03"/>
</g>
<!-- Node3&#45;&gt;Node12 -->
<g id="edge10" class="edge">
<title>Node3&#45;&gt;Node12</title>
<path fill="none" stroke="midnightblue" d="M376.78,-332.07C389.32,-358.21 418.68,-411.82 460,-440 462.92,-441.99 466.03,-443.77 469.27,-445.37"/>
<polygon fill="midnightblue" stroke="midnightblue" points="468.09,-448.67 478.66,-449.39 470.84,-442.23 468.09,-448.67"/>
</g>
<!-- Node3&#45;&gt;Node13 -->
<g id="edge11" class="edge">
<title>Node3&#45;&gt;Node13</title>
<path fill="none" stroke="midnightblue" d="M382.8,-301.81C394.93,-286.73 412.9,-262.53 424,-239 449.04,-185.94 419.47,-154.42 460,-112 463.66,-108.17 467.95,-104.95 472.58,-102.24"/>
<polygon fill="midnightblue" stroke="midnightblue" points="474.42,-105.23 481.82,-97.65 471.3,-98.97 474.42,-105.23"/>
</g>
<!-- Node3&#45;&gt;Node14 -->
<g id="edge12" class="edge">
<title>Node3&#45;&gt;Node14</title>
<path fill="none" stroke="midnightblue" d="M371.09,-301.79C374.99,-258.98 391.84,-136.22 460,-69 462.08,-66.95 464.33,-65.07 466.71,-63.35"/>
<polygon fill="midnightblue" stroke="midnightblue" points="468.59,-66.3 475.24,-58.05 464.9,-60.35 468.59,-66.3"/>
</g>
<!-- Node17 -->
<g id="node16" class="node">
<title>Node17</title>
<g id="a_node16"><a xlink:href="namespaceutil_1_1io.html#a578a578ce41389fb01e56de7316b7054" target="_top" xlink:title="Prints formatted information.">
<polygon fill="none" stroke="red" points="685,-107.5 685,-126.5 753,-126.5 753,-107.5 685,-107.5"/>
<text text-anchor="middle" x="719" y="-114.5" font-family="Arial" font-size="10.00">util::io::print</text>
</a>
</g>
</g>
<!-- Node3&#45;&gt;Node17 -->
<g id="edge16" class="edge">
<title>Node3&#45;&gt;Node17</title>
<path fill="none" stroke="midnightblue" d="M382.12,-301.87C393.91,-286.64 411.78,-262.16 424,-239 444.88,-199.44 424.56,-172.31 460,-145 492.54,-119.93 609.62,-116.37 674.3,-116.39"/>
<polygon fill="midnightblue" stroke="midnightblue" points="674.58,-119.89 684.59,-116.43 674.61,-112.89 674.58,-119.89"/>
</g>
<!-- Node3&#45;&gt;Node23 -->
<g id="edge17" class="edge">
<title>Node3&#45;&gt;Node23</title>
<path fill="none" stroke="midnightblue" d="M372.61,-332.11C379.76,-368.91 403.02,-463.96 460,-516 463.81,-519.48 468.13,-522.48 472.72,-525.07"/>
<polygon fill="midnightblue" stroke="midnightblue" points="471.28,-528.26 481.8,-529.54 474.38,-521.98 471.28,-528.26"/>
</g>
<!-- Node24 -->
<g id="node18" class="node">
<title>Node24</title>
<g id="a_node18"><a xlink:href="namespaceproblem__setup.html#ad4d4b3139613a4ea00dadf8eb7c60a88" target="_top" xlink:title=" ">
<polygon fill="none" stroke="black" points="481,-253 481,-283 585,-283 585,-253 481,-253"/>
<text text-anchor="start" x="489" y="-271" font-family="Arial" font-size="10.00">problem_setup.write</text>
<text text-anchor="middle" x="533" y="-260" font-family="Arial" font-size="10.00">_contact_zone_part</text>
</a>
</g>
</g>
<!-- Node3&#45;&gt;Node24 -->
<g id="edge18" class="edge">
<title>Node3&#45;&gt;Node24</title>
<path fill="none" stroke="midnightblue" d="M419.93,-301.9C436.48,-296.89 455.07,-291.27 472.29,-286.06"/>
<polygon fill="midnightblue" stroke="midnightblue" points="473.68,-289.3 482.24,-283.05 471.65,-282.6 473.68,-289.3"/>
</g>
<!-- Node25 -->
<g id="node19" class="node">
<title>Node25</title>
<g id="a_node19"><a xlink:href="namespaceproblem__setup.html#a3b2a9fc19652f44b774b4bb9a8221265" target="_top" xlink:title=" ">
<polygon fill="none" stroke="black" points="481,-204 481,-234 585,-234 585,-204 481,-204"/>
<text text-anchor="start" x="489" y="-222" font-family="Arial" font-size="10.00">problem_setup.write</text>
<text text-anchor="middle" x="533" y="-211" font-family="Arial" font-size="10.00">_material_zone_part</text>
</a>
</g>
</g>
<!-- Node3&#45;&gt;Node25 -->
<g id="edge19" class="edge">
<title>Node3&#45;&gt;Node25</title>
<path fill="none" stroke="midnightblue" d="M384.96,-301.72C401.84,-285.22 430.79,-259.15 460,-243 463.63,-240.99 467.46,-239.12 471.38,-237.37"/>
<polygon fill="midnightblue" stroke="midnightblue" points="472.76,-240.59 480.65,-233.52 470.08,-234.12 472.76,-240.59"/>
</g>
<!-- Node5&#45;&gt;Node6 -->
<g id="edge5" class="edge">
<title>Node5&#45;&gt;Node6</title>
<path fill="none" stroke="midnightblue" d="M606.19,-326.42C621.33,-328.39 637.21,-330.46 652.1,-332.4"/>
<polygon fill="midnightblue" stroke="midnightblue" points="651.86,-335.9 662.23,-333.73 652.77,-328.96 651.86,-335.9"/>
</g>
<!-- Node9 -->
<g id="node8" class="node">
<title>Node9</title>
<g id="a_node8"><a xlink:href="namespaceproblem__setup.html#ac4731e8b5a85713f528c4c79651768ac" target="_top" xlink:title=" ">
<polygon fill="none" stroke="black" points="662.5,-400 662.5,-430 775.5,-430 775.5,-400 662.5,-400"/>
<text text-anchor="start" x="670.5" y="-418" font-family="Arial" font-size="10.00">problem_setup.get_ref</text>
<text text-anchor="middle" x="719" y="-407" font-family="Arial" font-size="10.00">_triangle_points</text>
</a>
</g>
</g>
<!-- Node8&#45;&gt;Node9 -->
<g id="edge7" class="edge">
<title>Node8&#45;&gt;Node9</title>
<path fill="none" stroke="midnightblue" d="M594.25,-415C612.82,-415 633.35,-415 652.27,-415"/>
<polygon fill="midnightblue" stroke="midnightblue" points="652.29,-418.5 662.29,-415 652.29,-411.5 652.29,-418.5"/>
</g>
<!-- Node15 -->
<g id="node14" class="node">
<title>Node15</title>
<g id="a_node14"><a xlink:href="namespaceproblem__setup.html#a49682af72cdc7bca4f282619eb559d90" target="_top" xlink:title=" ">
<polygon fill="none" stroke="black" points="642,-39 642,-69 796,-69 796,-39 642,-39"/>
<text text-anchor="start" x="650" y="-57" font-family="Arial" font-size="10.00">problem_setup.does</text>
<text text-anchor="middle" x="719" y="-46" font-family="Arial" font-size="10.00">_intersect_with_cylindrical_wall</text>
</a>
</g>
</g>
<!-- Node14&#45;&gt;Node15 -->
<g id="edge13" class="edge">
<title>Node14&#45;&gt;Node15</title>
<path fill="none" stroke="midnightblue" d="M590.71,-47.08C603.71,-47.79 617.82,-48.56 631.75,-49.31"/>
<polygon fill="midnightblue" stroke="midnightblue" points="631.67,-52.81 641.84,-49.86 632.05,-45.82 631.67,-52.81"/>
</g>
<!-- Node16 -->
<g id="node15" class="node">
<title>Node16</title>
<g id="a_node15"><a xlink:href="namespaceproblem__setup.html#aa39e6862e38920798278f55a2578a6ef" target="_top" xlink:title=" ">
<polygon fill="none" stroke="black" points="658.5,-0.5 658.5,-19.5 779.5,-19.5 779.5,-0.5 658.5,-0.5"/>
<text text-anchor="middle" x="719" y="-7.5" font-family="Arial" font-size="10.00">problem_setup.get_max</text>
</a>
</g>
</g>
<!-- Node14&#45;&gt;Node16 -->
<g id="edge14" class="edge">
<title>Node14&#45;&gt;Node16</title>
<path fill="none" stroke="midnightblue" d="M590.71,-33.52C611.58,-29.66 635.31,-25.28 656.59,-21.35"/>
<polygon fill="midnightblue" stroke="midnightblue" points="657.29,-24.78 666.48,-19.52 656.02,-17.89 657.29,-24.78"/>
</g>
<!-- Node14&#45;&gt;Node17 -->
<g id="edge15" class="edge">
<title>Node14&#45;&gt;Node17</title>
<path fill="none" stroke="midnightblue" d="M579.12,-59.12C588.07,-62.27 597.36,-65.65 606,-69 633.84,-79.78 665.02,-93.26 687.4,-103.19"/>
<polygon fill="midnightblue" stroke="midnightblue" points="686.16,-106.47 696.71,-107.34 689.01,-100.08 686.16,-106.47"/>
</g>
</g>
</svg>
