<?xml version="1.0" encoding="UTF-8" standalone="no"?>
<!DOCTYPE svg PUBLIC "-//W3C//DTD SVG 1.1//EN"
 "http://www.w3.org/Graphics/SVG/1.1/DTD/svg11.dtd">
<!-- Generated by graphviz version 2.43.0 (0)
 -->
<!-- Title: problem_setup.particle_locations Pages: 1 -->
<svg width="664pt" height="646pt"
 viewBox="0.00 0.00 664.00 646.37" xmlns="http://www.w3.org/2000/svg" xmlns:xlink="http://www.w3.org/1999/xlink">
<g id="graph0" class="graph" transform="scale(1 1) rotate(0) translate(4 642.37)">
<title>problem_setup.particle_locations</title>
<!-- Node1 -->
<g id="Node000001" class="node">
<title>Node1</title>
<g id="a_Node000001"><a xlink:title=" ">
<polygon fill="#999999" stroke="#666666" points="656,-280.37 541,-280.37 541,-250.37 656,-250.37 656,-280.37"/>
<text text-anchor="start" x="549" y="-268.37" font-family="Arial" font-size="10.00">problem_setup.particle</text>
<text text-anchor="middle" x="598.5" y="-257.37" font-family="Arial" font-size="10.00">_locations</text>
</a>
</g>
</g>
<!-- Node2 -->
<g id="Node000002" class="node">
<title>Node2</title>
<g id="a_Node000002"><a xlink:href="namespaceproblem__setup.html#a8ed53bd44082cee1b5381115a87451e2" target="_top" xlink:title=" ">
<polygon fill="white" stroke="#666666" points="505,-341.37 395,-341.37 395,-311.37 505,-311.37 505,-341.37"/>
<text text-anchor="start" x="403" y="-329.37" font-family="Arial" font-size="10.00">problem_setup.create</text>
<text text-anchor="middle" x="450" y="-318.37" font-family="Arial" font-size="10.00">_input_file</text>
</a>
</g>
</g>
<!-- Node1&#45;&gt;Node2 -->
<g id="edge1_Node000001_Node000002" class="edge">
<title>Node1&#45;&gt;Node2</title>
<g id="a_edge1_Node000001_Node000002"><a xlink:title=" ">
<path fill="none" stroke="#63b8ff" d="M551.96,-284.33C531.07,-293.03 506.64,-303.2 487.05,-311.36"/>
<polygon fill="#63b8ff" stroke="#63b8ff" points="553.4,-287.52 561.29,-280.45 550.71,-281.06 553.4,-287.52"/>
</a>
</g>
</g>
<!-- Node3 -->
<g id="Node000003" class="node">
<title>Node3</title>
<g id="a_Node000003"><a xlink:href="namespaceproblem__setup.html#a1e7145671d41dad41beed2d8c4f790e0" target="_top" xlink:title=" ">
<polygon fill="white" stroke="#666666" points="331,-620.37 203,-620.37 203,-590.37 331,-590.37 331,-620.37"/>
<text text-anchor="start" x="211" y="-608.37" font-family="Arial" font-size="10.00">problem_setup.generate</text>
<text text-anchor="middle" x="267" y="-597.37" font-family="Arial" font-size="10.00">_cuboid_wall_gmsh_input</text>
</a>
</g>
</g>
<!-- Node1&#45;&gt;Node3 -->
<g id="edge24_Node000001_Node000003" class="edge">
<title>Node1&#45;&gt;Node3</title>
<g id="a_edge24_Node000001_Node000003"><a xlink:title=" ">
<path fill="none" stroke="#63b8ff" d="M590.13,-290.02C577.43,-329.71 548.49,-408.92 505,-464.37 453.68,-529.79 433.26,-543.95 359,-581.37 350.39,-585.71 340.92,-589.32 331.43,-592.31"/>
<polygon fill="#63b8ff" stroke="#63b8ff" points="593.51,-290.96 593.15,-280.37 586.83,-288.87 593.51,-290.96"/>
</a>
</g>
</g>
<!-- Node5 -->
<g id="Node000005" class="node">
<title>Node5</title>
<g id="a_Node000005"><a xlink:href="namespaceproblem__setup.html#a16a9d169ecf04b1a867bec4dbf274c01" target="_top" xlink:title=" ">
<polygon fill="white" stroke="#666666" points="343.5,-554.37 190.5,-554.37 190.5,-524.37 343.5,-524.37 343.5,-554.37"/>
<text text-anchor="start" x="198.5" y="-542.37" font-family="Arial" font-size="10.00">problem_setup.generate</text>
<text text-anchor="middle" x="267" y="-531.37" font-family="Arial" font-size="10.00">_moving_rect_wall_gmsh_input</text>
</a>
</g>
</g>
<!-- Node1&#45;&gt;Node5 -->
<g id="edge25_Node000001_Node000005" class="edge">
<title>Node1&#45;&gt;Node5</title>
<g id="a_edge25_Node000001_Node000005"><a xlink:title=" ">
<path fill="none" stroke="#63b8ff" d="M584.94,-289.78C568.95,-319.42 539.25,-369.97 505,-406.37 449.5,-465.34 431.93,-480.18 359,-515.37 351.94,-518.78 344.32,-521.75 336.61,-524.33"/>
<polygon fill="#63b8ff" stroke="#63b8ff" points="588.23,-291.05 589.83,-280.57 582.05,-287.77 588.23,-291.05"/>
</a>
</g>
</g>
<!-- Node6 -->
<g id="Node000006" class="node">
<title>Node6</title>
<g id="a_Node000006"><a xlink:href="namespaceproblem__setup.html#a4dd4df45d28c58aafac4fdf8aa8c554d" target="_top" xlink:title=" ">
<polygon fill="white" stroke="#666666" points="332.5,-488.37 201.5,-488.37 201.5,-458.37 332.5,-458.37 332.5,-488.37"/>
<text text-anchor="start" x="209.5" y="-476.37" font-family="Arial" font-size="10.00">problem_setup.generate</text>
<text text-anchor="middle" x="267" y="-465.37" font-family="Arial" font-size="10.00">_moving_wall_gmsh_input</text>
</a>
</g>
</g>
<!-- Node1&#45;&gt;Node6 -->
<g id="edge26_Node000001_Node000006" class="edge">
<title>Node1&#45;&gt;Node6</title>
<g id="a_edge26_Node000001_Node000006"><a xlink:title=" ">
<path fill="none" stroke="#63b8ff" d="M576.06,-287.65C536.87,-326.93 449.37,-408.26 359,-449.37 350.67,-453.16 341.63,-456.44 332.59,-459.25"/>
<polygon fill="#63b8ff" stroke="#63b8ff" points="578.7,-289.95 583.24,-280.37 573.72,-285.03 578.7,-289.95"/>
</a>
</g>
</g>
<!-- Node7 -->
<g id="Node000007" class="node">
<title>Node7</title>
<g id="a_Node000007"><a xlink:href="namespaceproblem__setup.html#a881d38782fcef7d73522d8b9bfcdb3da" target="_top" xlink:title=" ">
<polygon fill="white" stroke="#666666" points="327.5,-280.37 206.5,-280.37 206.5,-250.37 327.5,-250.37 327.5,-280.37"/>
<text text-anchor="start" x="214.5" y="-268.37" font-family="Arial" font-size="10.00">problem_setup.generate</text>
<text text-anchor="middle" x="267" y="-257.37" font-family="Arial" font-size="10.00">_particle_gmsh_input</text>
</a>
</g>
</g>
<!-- Node1&#45;&gt;Node7 -->
<g id="edge27_Node000001_Node000007" class="edge">
<title>Node1&#45;&gt;Node7</title>
<g id="a_edge27_Node000001_Node000007"><a xlink:title=" ">
<path fill="none" stroke="#63b8ff" d="M530.8,-265.37C471.23,-265.37 384.79,-265.37 327.52,-265.37"/>
<polygon fill="#63b8ff" stroke="#63b8ff" points="530.86,-268.87 540.86,-265.37 530.86,-261.87 530.86,-268.87"/>
</a>
</g>
</g>
<!-- Node9 -->
<g id="Node000009" class="node">
<title>Node9</title>
<g id="a_Node000009"><a xlink:href="namespaceproblem__setup.html#ab77cd691be605123ba53961f21c8885a" target="_top" xlink:title=" ">
<polygon fill="white" stroke="#666666" points="139,-66.37 0,-66.37 0,-36.37 139,-36.37 139,-66.37"/>
<text text-anchor="start" x="8" y="-54.37" font-family="Arial" font-size="10.00">problem_setup.generate</text>
<text text-anchor="middle" x="69.5" y="-43.37" font-family="Arial" font-size="10.00">_rect_container_gmsh_input</text>
</a>
</g>
</g>
<!-- Node1&#45;&gt;Node9 -->
<g id="edge28_Node000001_Node000009" class="edge">
<title>Node1&#45;&gt;Node9</title>
<g id="a_edge28_Node000001_Node000009"><a xlink:title=" ">
<path fill="none" stroke="#63b8ff" d="M593.79,-240.33C585.86,-196.13 563.03,-104.4 505,-56.37 391.39,37.68 197.9,-9 112.8,-36.32"/>
<polygon fill="#63b8ff" stroke="#63b8ff" points="590.34,-240.97 595.45,-250.25 597.25,-239.81 590.34,-240.97"/>
</a>
</g>
</g>
<!-- Node10 -->
<g id="Node000010" class="node">
<title>Node10</title>
<g id="a_Node000010"><a xlink:href="namespaceproblem__setup.html#a8e72848abab104858c2a4647079140ed" target="_top" xlink:title=" ">
<polygon fill="white" stroke="#666666" points="359,-71.87 175,-71.87 175,-30.87 359,-30.87 359,-71.87"/>
<text text-anchor="start" x="183" y="-59.87" font-family="Arial" font-size="10.00">problem_setup.generate</text>
<text text-anchor="start" x="183" y="-48.87" font-family="Arial" font-size="10.00">_rectangle_with_protrusion</text>
<text text-anchor="middle" x="267" y="-37.87" font-family="Arial" font-size="10.00">_and_opening_wall_gmsh_input_type3</text>
</a>
</g>
</g>
<!-- Node1&#45;&gt;Node10 -->
<g id="edge29_Node000001_Node000010" class="edge">
<title>Node1&#45;&gt;Node10</title>
<g id="a_edge29_Node000001_Node000010"><a xlink:title=" ">
<path fill="none" stroke="#63b8ff" d="M590.28,-240.45C578.54,-204.54 551.78,-138.81 505,-104.37 463.07,-73.5 406.44,-60.08 359.05,-54.45"/>
<polygon fill="#63b8ff" stroke="#63b8ff" points="586.99,-241.65 593.32,-250.15 593.67,-239.56 586.99,-241.65"/>
</a>
</g>
</g>
<!-- Node11 -->
<g id="Node000011" class="node">
<title>Node11</title>
<g id="a_Node000011"><a xlink:href="namespaceproblem__setup.html#afa462577a9adf91f5e2cb59a1eb7da7e" target="_top" xlink:title=" ">
<polygon fill="white" stroke="#666666" points="327.5,-214.37 206.5,-214.37 206.5,-184.37 327.5,-184.37 327.5,-214.37"/>
<text text-anchor="start" x="214.5" y="-202.37" font-family="Arial" font-size="10.00">problem_setup.generate</text>
<text text-anchor="middle" x="267" y="-191.37" font-family="Arial" font-size="10.00">_wall_gmsh_input</text>
</a>
</g>
</g>
<!-- Node1&#45;&gt;Node11 -->
<g id="edge30_Node000001_Node000011" class="edge">
<title>Node1&#45;&gt;Node11</title>
<g id="a_edge30_Node000001_Node000011"><a xlink:title=" ">
<path fill="none" stroke="#63b8ff" d="M530.8,-252.01C471.23,-240.08 384.79,-222.76 327.52,-211.29"/>
<polygon fill="#63b8ff" stroke="#63b8ff" points="530.36,-255.49 540.86,-254.02 531.74,-248.63 530.36,-255.49"/>
</a>
</g>
</g>
<!-- Node12 -->
<g id="Node000012" class="node">
<title>Node12</title>
<g id="a_Node000012"><a xlink:href="namespaceproblem__setup.html#a38db49e0a85dd22e69cae23f7f92435f" target="_top" xlink:title=" ">
<polygon fill="white" stroke="#666666" points="127,-214.37 12,-214.37 12,-184.37 127,-184.37 127,-214.37"/>
<text text-anchor="start" x="20" y="-202.37" font-family="Arial" font-size="10.00">problem_setup.particle</text>
<text text-anchor="middle" x="69.5" y="-191.37" font-family="Arial" font-size="10.00">_locations</text>
</a>
</g>
</g>
<!-- Node1&#45;&gt;Node12 -->
<g id="edge31_Node000001_Node000012" class="edge">
<title>Node1&#45;&gt;Node12</title>
<g id="a_edge31_Node000001_Node000012"><a xlink:title=" ">
<path fill="none" stroke="#63b8ff" d="M560.22,-245.78C514.37,-223.01 433.44,-187.05 359,-175.37 278.21,-162.68 256.26,-166.16 175,-175.37 158.72,-177.21 141.29,-180.63 125.42,-184.31"/>
<polygon fill="#63b8ff" stroke="#63b8ff" points="558.68,-248.92 569.18,-250.29 561.82,-242.67 558.68,-248.92"/>
</a>
</g>
</g>
<!-- Node2&#45;&gt;Node3 -->
<g id="edge2_Node000002_Node000003" class="edge">
<title>Node2&#45;&gt;Node3</title>
<g id="a_edge2_Node000002_Node000003"><a xlink:title=" ">
<path fill="none" stroke="#63b8ff" d="M447.61,-351.83C443.41,-403.08 426.54,-519.12 359,-581.37 351.19,-588.57 341.48,-593.66 331.34,-597.24"/>
<polygon fill="#63b8ff" stroke="#63b8ff" points="451.12,-351.86 448.35,-341.64 444.14,-351.36 451.12,-351.86"/>
</a>
</g>
</g>
<!-- Node4 -->
<g id="Node000004" class="node">
<title>Node4</title>
<g id="a_Node000004"><a xlink:href="namespaceproblem__setup.html#a15d340f22fc959eb9bc3ebf12be02887" target="_top" xlink:title=" ">
<polygon fill="white" stroke="#666666" points="335,-422.37 199,-422.37 199,-392.37 335,-392.37 335,-422.37"/>
<text text-anchor="start" x="207" y="-410.37" font-family="Arial" font-size="10.00">problem_setup.generate</text>
<text text-anchor="middle" x="267" y="-399.37" font-family="Arial" font-size="10.00">_drum_particle_gmsh_input</text>
</a>
</g>
</g>
<!-- Node2&#45;&gt;Node4 -->
<g id="edge4_Node000002_Node000004" class="edge">
<title>Node2&#45;&gt;Node4</title>
<g id="a_edge4_Node000002_Node000004"><a xlink:title=" ">
<path fill="none" stroke="#63b8ff" d="M417.18,-347.01C400.34,-357.34 379.05,-369.5 359,-378.37 347.32,-383.53 334.44,-388.21 322.13,-392.23"/>
<polygon fill="#63b8ff" stroke="#63b8ff" points="419.4,-349.74 426.04,-341.49 415.7,-343.8 419.4,-349.74"/>
</a>
</g>
</g>
<!-- Node2&#45;&gt;Node5 -->
<g id="edge6_Node000002_Node000005" class="edge">
<title>Node2&#45;&gt;Node5</title>
<g id="a_edge6_Node000002_Node000005"><a xlink:title=" ">
<path fill="none" stroke="#63b8ff" d="M444.15,-351.43C434.94,-392.1 411.01,-472.25 359,-515.37 354.35,-519.23 349.14,-522.47 343.63,-525.2"/>
<polygon fill="#63b8ff" stroke="#63b8ff" points="447.6,-352.04 446.27,-341.53 440.75,-350.57 447.6,-352.04"/>
</a>
</g>
</g>
<!-- Node2&#45;&gt;Node6 -->
<g id="edge8_Node000002_Node000006" class="edge">
<title>Node2&#45;&gt;Node6</title>
<g id="a_edge8_Node000002_Node000006"><a xlink:title=" ">
<path fill="none" stroke="#63b8ff" d="M432.84,-350.21C409.71,-384.03 368.88,-442.63 359,-449.37 351.04,-454.8 341.91,-459 332.58,-462.25"/>
<polygon fill="#63b8ff" stroke="#63b8ff" points="435.84,-352.02 438.58,-341.79 430.05,-348.08 435.84,-352.02"/>
</a>
</g>
</g>
<!-- Node2&#45;&gt;Node7 -->
<g id="edge10_Node000002_Node000007" class="edge">
<title>Node2&#45;&gt;Node7</title>
<g id="a_edge10_Node000002_Node000007"><a xlink:title=" ">
<path fill="none" stroke="#63b8ff" d="M394.48,-307.99C368.29,-299.17 337.29,-288.72 312.54,-280.38"/>
<polygon fill="#63b8ff" stroke="#63b8ff" points="393.66,-311.41 404.26,-311.29 395.9,-304.78 393.66,-311.41"/>
</a>
</g>
</g>
<!-- Node8 -->
<g id="Node000008" class="node">
<title>Node8</title>
<g id="a_Node000008"><a xlink:href="namespaceproblem__setup.html#a021c61bf44d7c968582474d32605a1ad" target="_top" xlink:title=" ">
<polygon fill="white" stroke="#666666" points="130,-280.37 9,-280.37 9,-250.37 130,-250.37 130,-280.37"/>
<text text-anchor="start" x="17" y="-268.37" font-family="Arial" font-size="10.00">problem_setup.generate</text>
<text text-anchor="middle" x="69.5" y="-257.37" font-family="Arial" font-size="10.00">_wall_gmsh_input</text>
</a>
</g>
</g>
<!-- Node2&#45;&gt;Node8 -->
<g id="edge22_Node000002_Node000008" class="edge">
<title>Node2&#45;&gt;Node8</title>
<g id="a_edge22_Node000002_Node000008"><a xlink:title=" ">
<path fill="none" stroke="#63b8ff" d="M384.86,-342.27C328.24,-353.38 244.19,-362.63 175,-340.37 138.44,-328.6 103.83,-298.79 85.06,-280.49"/>
<polygon fill="#63b8ff" stroke="#63b8ff" points="385.65,-345.68 394.75,-340.26 384.26,-338.82 385.65,-345.68"/>
</a>
</g>
</g>
<!-- Node2&#45;&gt;Node9 -->
<g id="edge13_Node000002_Node000009" class="edge">
<title>Node2&#45;&gt;Node9</title>
<g id="a_edge13_Node000002_Node000009"><a xlink:title=" ">
<path fill="none" stroke="#63b8ff" d="M440.02,-301.61C426.93,-268.66 399.64,-210.47 359,-175.37 292.05,-117.53 256.11,-134.73 175,-99.37 150.48,-88.68 122.99,-76.03 102.37,-66.4"/>
<polygon fill="#63b8ff" stroke="#63b8ff" points="436.92,-303.28 443.78,-311.36 443.45,-300.77 436.92,-303.28"/>
</a>
</g>
</g>
<!-- Node2&#45;&gt;Node10 -->
<g id="edge15_Node000002_Node000010" class="edge">
<title>Node2&#45;&gt;Node10</title>
<g id="a_edge15_Node000002_Node000010"><a xlink:title=" ">
<path fill="none" stroke="#63b8ff" d="M439.98,-301.72C425.9,-265.03 396.4,-194.74 359,-142.37 339.78,-115.46 312.37,-89.25 292.66,-71.92"/>
<polygon fill="#63b8ff" stroke="#63b8ff" points="436.73,-303.02 443.54,-311.14 443.28,-300.55 436.73,-303.02"/>
</a>
</g>
</g>
<!-- Node2&#45;&gt;Node11 -->
<g id="edge18_Node000002_Node000011" class="edge">
<title>Node2&#45;&gt;Node11</title>
<g id="a_edge18_Node000002_Node000011"><a xlink:title=" ">
<path fill="none" stroke="#63b8ff" d="M429.09,-303.87C411.88,-285.38 385.64,-259.38 359,-241.37 343.29,-230.74 324.46,-221.55 308.02,-214.5"/>
<polygon fill="#63b8ff" stroke="#63b8ff" points="426.56,-306.28 435.89,-311.29 431.72,-301.55 426.56,-306.28"/>
</a>
</g>
</g>
<!-- Node2&#45;&gt;Node12 -->
<g id="edge23_Node000002_Node000012" class="edge">
<title>Node2&#45;&gt;Node12</title>
<g id="a_edge23_Node000002_Node000012"><a xlink:title=" ">
<path fill="none" stroke="#63b8ff" d="M384.87,-328.87C314.95,-330.4 208.52,-328.87 175,-307.37 146.88,-289.33 162.02,-265.59 139,-241.37 128.72,-230.55 115.06,-221.44 102.65,-214.49"/>
<polygon fill="#63b8ff" stroke="#63b8ff" points="385,-332.37 394.91,-328.62 384.83,-325.37 385,-332.37"/>
</a>
</g>
</g>
<!-- Node3&#45;&gt;Node3 -->
<g id="edge3_Node000003_Node000003" class="edge">
<title>Node3&#45;&gt;Node3</title>
<g id="a_edge3_Node000003_Node000003"><a xlink:title=" ">
<path fill="none" stroke="#63b8ff" d="M298.86,-630.97C294.5,-635.34 283.88,-638.37 267,-638.37 238.56,-638.37 227.9,-629.77 235.01,-620.64"/>
<polygon fill="#63b8ff" stroke="#63b8ff" points="302.36,-630.69 298.99,-620.64 295.36,-630.6 302.36,-630.69"/>
</a>
</g>
</g>
<!-- Node4&#45;&gt;Node4 -->
<g id="edge5_Node000004_Node000004" class="edge">
<title>Node4&#45;&gt;Node4</title>
<g id="a_edge5_Node000004_Node000004"><a xlink:title=" ">
<path fill="none" stroke="#63b8ff" d="M298.86,-432.97C294.5,-437.34 283.88,-440.37 267,-440.37 238.56,-440.37 227.9,-431.77 235.01,-422.64"/>
<polygon fill="#63b8ff" stroke="#63b8ff" points="302.36,-432.69 298.99,-422.64 295.36,-432.6 302.36,-432.69"/>
</a>
</g>
</g>
<!-- Node5&#45;&gt;Node5 -->
<g id="edge7_Node000005_Node000005" class="edge">
<title>Node5&#45;&gt;Node5</title>
<g id="a_edge7_Node000005_Node000005"><a xlink:title=" ">
<path fill="none" stroke="#63b8ff" d="M298.86,-564.97C294.5,-569.34 283.88,-572.37 267,-572.37 238.56,-572.37 227.9,-563.77 235.01,-554.64"/>
<polygon fill="#63b8ff" stroke="#63b8ff" points="302.36,-564.69 298.99,-554.64 295.36,-564.6 302.36,-564.69"/>
</a>
</g>
</g>
<!-- Node6&#45;&gt;Node6 -->
<g id="edge9_Node000006_Node000006" class="edge">
<title>Node6&#45;&gt;Node6</title>
<g id="a_edge9_Node000006_Node000006"><a xlink:title=" ">
<path fill="none" stroke="#63b8ff" d="M298.86,-498.97C294.5,-503.34 283.88,-506.37 267,-506.37 238.56,-506.37 227.9,-497.77 235.01,-488.64"/>
<polygon fill="#63b8ff" stroke="#63b8ff" points="302.36,-498.69 298.99,-488.64 295.36,-498.6 302.36,-498.69"/>
</a>
</g>
</g>
<!-- Node7&#45;&gt;Node7 -->
<g id="edge11_Node000007_Node000007" class="edge">
<title>Node7&#45;&gt;Node7</title>
<g id="a_edge11_Node000007_Node000007"><a xlink:title=" ">
<path fill="none" stroke="#63b8ff" d="M298.86,-290.97C294.5,-295.34 283.88,-298.37 267,-298.37 238.56,-298.37 227.9,-289.77 235.01,-280.64"/>
<polygon fill="#63b8ff" stroke="#63b8ff" points="302.36,-290.69 298.99,-280.64 295.36,-290.6 302.36,-290.69"/>
</a>
</g>
</g>
<!-- Node7&#45;&gt;Node8 -->
<g id="edge12_Node000007_Node000008" class="edge">
<title>Node7&#45;&gt;Node8</title>
<g id="a_edge12_Node000007_Node000008"><a xlink:title=" ">
<path fill="none" stroke="#63b8ff" d="M196.19,-265.37C174.6,-265.37 151.03,-265.37 130.19,-265.37"/>
<polygon fill="#63b8ff" stroke="#63b8ff" points="196.28,-268.87 206.28,-265.37 196.28,-261.87 196.28,-268.87"/>
</a>
</g>
</g>
<!-- Node9&#45;&gt;Node9 -->
<g id="edge14_Node000009_Node000009" class="edge">
<title>Node9&#45;&gt;Node9</title>
<g id="a_edge14_Node000009_Node000009"><a xlink:title=" ">
<path fill="none" stroke="#63b8ff" d="M103.81,-76.97C99.12,-81.34 87.68,-84.37 69.5,-84.37 38.88,-84.37 27.39,-75.77 35.05,-66.64"/>
<polygon fill="#63b8ff" stroke="#63b8ff" points="107.31,-76.69 103.95,-66.64 100.31,-76.59 107.31,-76.69"/>
</a>
</g>
</g>
<!-- Node10&#45;&gt;Node9 -->
<g id="edge16_Node000010_Node000009" class="edge">
<title>Node10&#45;&gt;Node9</title>
<g id="a_edge16_Node000010_Node000009"><a xlink:title=" ">
<path fill="none" stroke="#63b8ff" d="M164.65,-51.37C155.98,-51.37 147.35,-51.37 139.03,-51.37"/>
<polygon fill="#63b8ff" stroke="#63b8ff" points="164.83,-54.87 174.83,-51.37 164.83,-47.87 164.83,-54.87"/>
</a>
</g>
</g>
<!-- Node10&#45;&gt;Node10 -->
<g id="edge17_Node000010_Node000010" class="edge">
<title>Node10&#45;&gt;Node10</title>
<g id="a_edge17_Node000010_Node000010"><a xlink:title=" ">
<path fill="none" stroke="#63b8ff" d="M298.31,-81.83C293.66,-86.61 283.22,-89.87 267,-89.87 241.05,-89.87 229.9,-81.52 233.55,-71.96"/>
<polygon fill="#63b8ff" stroke="#63b8ff" points="301.75,-82.48 300.45,-71.96 294.91,-81 301.75,-82.48"/>
</a>
</g>
</g>
<!-- Node11&#45;&gt;Node8 -->
<g id="edge20_Node000011_Node000008" class="edge">
<title>Node11&#45;&gt;Node8</title>
<g id="a_edge20_Node000011_Node000008"><a xlink:title=" ">
<path fill="none" stroke="#63b8ff" d="M211.55,-217.75C181.17,-228.01 143.79,-240.63 115.14,-250.3"/>
<polygon fill="#63b8ff" stroke="#63b8ff" points="212.79,-221.02 221.15,-214.51 210.55,-214.39 212.79,-221.02"/>
</a>
</g>
</g>
<!-- Node11&#45;&gt;Node11 -->
<g id="edge19_Node000011_Node000011" class="edge">
<title>Node11&#45;&gt;Node11</title>
<g id="a_edge19_Node000011_Node000011"><a xlink:title=" ">
<path fill="none" stroke="#63b8ff" d="M298.86,-224.97C294.5,-229.34 283.88,-232.37 267,-232.37 238.56,-232.37 227.9,-223.77 235.01,-214.64"/>
<polygon fill="#63b8ff" stroke="#63b8ff" points="302.36,-224.69 298.99,-214.64 295.36,-224.6 302.36,-224.69"/>
</a>
</g>
</g>
<!-- Node11&#45;&gt;Node12 -->
<g id="edge21_Node000011_Node000012" class="edge">
<title>Node11&#45;&gt;Node12</title>
<g id="a_edge21_Node000011_Node000012"><a xlink:title=" ">
<path fill="none" stroke="#63b8ff" d="M196.07,-199.37C173.47,-199.37 148.7,-199.37 127.18,-199.37"/>
<polygon fill="#63b8ff" stroke="#63b8ff" points="196.28,-202.87 206.28,-199.37 196.28,-195.87 196.28,-202.87"/>
</a>
</g>
</g>
</g>
</svg>
