<?xml version="1.0" encoding="UTF-8" standalone="no"?>
<!DOCTYPE svg PUBLIC "-//W3C//DTD SVG 1.1//EN"
 "http://www.w3.org/Graphics/SVG/1.1/DTD/svg11.dtd">
<!-- Generated by graphviz version 2.43.0 (0)
 -->
<!-- Title: util::getCenter Pages: 1 -->
<svg width="560pt" height="382pt"
 viewBox="0.00 0.00 560.00 382.00" xmlns="http://www.w3.org/2000/svg" xmlns:xlink="http://www.w3.org/1999/xlink">
<g id="graph0" class="graph" transform="scale(1 1) rotate(0) translate(4 378)">
<title>util::getCenter</title>
<!-- Node1 -->
<g id="node1" class="node">
<title>Node1</title>
<g id="a_node1"><a xlink:title="Returns center point.">
<polygon fill="#bfbfbf" stroke="black" points="474,-99 474,-118 552,-118 552,-99 474,-99"/>
<text text-anchor="middle" x="513" y="-106" font-family="Arial" font-size="10.00">util::getCenter</text>
</a>
</g>
</g>
<!-- Node2 -->
<g id="node2" class="node">
<title>Node2</title>
<g id="a_node2"><a xlink:href="namespaceutil.html#a21a4c0c512c91e3de03f432d304dd4bd" target="_top" xlink:title="Checks if given two boxes are within given distance from each other.">
<polygon fill="none" stroke="black" points="169.5,-177 169.5,-196 267.5,-196 267.5,-177 169.5,-177"/>
<text text-anchor="middle" x="218.5" y="-184" font-family="Arial" font-size="10.00">util::areBoxesNear</text>
</a>
</g>
</g>
<!-- Node1&#45;&gt;Node2 -->
<g id="edge1" class="edge">
<title>Node1&#45;&gt;Node2</title>
<path fill="none" stroke="midnightblue" d="M490.28,-123.99C476.07,-133.39 456.71,-144.83 438,-151.5 381.55,-171.63 312.76,-180.23 267.63,-183.87"/>
<polygon fill="midnightblue" stroke="midnightblue" points="492.53,-126.7 498.83,-118.18 488.59,-120.91 492.53,-126.7"/>
</g>
<!-- Node11 -->
<g id="node11" class="node">
<title>Node11</title>
<g id="a_node11"><a xlink:href="namespaceutil.html#af6ab7e8072282977994d4c13e470dfc7" target="_top" xlink:title="Computes the radius of smallest circle/sphere which can have the box inside.">
<polygon fill="none" stroke="black" points="311,-93.5 311,-123.5 438,-123.5 438,-93.5 311,-93.5"/>
<text text-anchor="start" x="319" y="-111.5" font-family="Arial" font-size="10.00">util::circumscribedRadius</text>
<text text-anchor="middle" x="374.5" y="-100.5" font-family="Arial" font-size="10.00">InBox</text>
</a>
</g>
</g>
<!-- Node1&#45;&gt;Node11 -->
<g id="edge10" class="edge">
<title>Node1&#45;&gt;Node11</title>
<path fill="none" stroke="midnightblue" d="M463.76,-108.5C455.47,-108.5 446.76,-108.5 438.16,-108.5"/>
<polygon fill="midnightblue" stroke="midnightblue" points="463.98,-112 473.98,-108.5 463.98,-105 463.98,-112"/>
</g>
<!-- Node12 -->
<g id="node12" class="node">
<title>Node12</title>
<g id="a_node12"><a xlink:href="classutil_1_1geometry_1_1Circle.html#a26974c271cfd557a362709cfadca18a4" target="_top" xlink:title=" ">
<polygon fill="none" stroke="black" points="165,-124.5 165,-154.5 272,-154.5 272,-124.5 165,-124.5"/>
<text text-anchor="start" x="173" y="-142.5" font-family="Arial" font-size="10.00">util::geometry::Circle</text>
<text text-anchor="middle" x="218.5" y="-131.5" font-family="Arial" font-size="10.00">::isNear</text>
</a>
</g>
</g>
<!-- Node1&#45;&gt;Node12 -->
<g id="edge14" class="edge">
<title>Node1&#45;&gt;Node12</title>
<path fill="none" stroke="midnightblue" d="M479.74,-121.73C466.97,-126.35 452.01,-131 438,-133.5 381.96,-143.5 316.58,-143.84 272.04,-142.41"/>
<polygon fill="midnightblue" stroke="midnightblue" points="481.34,-124.87 489.46,-118.07 478.87,-118.32 481.34,-124.87"/>
</g>
<!-- Node13 -->
<g id="node13" class="node">
<title>Node13</title>
<g id="a_node13"><a xlink:href="classutil_1_1geometry_1_1Sphere.html#af568776ec54d2ef7c99af31851ce0107" target="_top" xlink:title=" ">
<polygon fill="none" stroke="black" points="162,-68.5 162,-98.5 275,-98.5 275,-68.5 162,-68.5"/>
<text text-anchor="start" x="170" y="-86.5" font-family="Arial" font-size="10.00">util::geometry::Sphere</text>
<text text-anchor="middle" x="218.5" y="-75.5" font-family="Arial" font-size="10.00">::isNear</text>
</a>
</g>
</g>
<!-- Node1&#45;&gt;Node13 -->
<g id="edge15" class="edge">
<title>Node1&#45;&gt;Node13</title>
<path fill="none" stroke="midnightblue" d="M479.15,-95.44C466.5,-91.05 451.78,-86.71 438,-84.5 383.13,-75.7 319.5,-76.64 275.11,-79.06"/>
<polygon fill="midnightblue" stroke="midnightblue" points="478.2,-98.82 488.8,-98.93 480.58,-92.23 478.2,-98.82"/>
</g>
<!-- Node14 -->
<g id="node14" class="node">
<title>Node14</title>
<g id="a_node14"><a xlink:href="namespacetest.html#ad3c8cad23ca76bc12534c5487df9a25f" target="_top" xlink:title="Test methods">
<polygon fill="none" stroke="black" points="320.5,-17 320.5,-36 428.5,-36 428.5,-17 320.5,-17"/>
<text text-anchor="middle" x="374.5" y="-24" font-family="Arial" font-size="10.00">test::testUtilMethods</text>
</a>
</g>
</g>
<!-- Node1&#45;&gt;Node14 -->
<g id="edge16" class="edge">
<title>Node1&#45;&gt;Node14</title>
<path fill="none" stroke="midnightblue" d="M494.08,-91.94C479.73,-79.34 458.65,-62.21 438,-50.5 427.99,-44.83 416.37,-39.95 405.89,-36.11"/>
<polygon fill="midnightblue" stroke="midnightblue" points="491.91,-94.7 501.69,-98.77 496.58,-89.49 491.91,-94.7"/>
</g>
<!-- Node3 -->
<g id="node3" class="node">
<title>Node3</title>
<g id="a_node3"><a xlink:href="classutil_1_1geometry_1_1Triangle.html#a48ae3ed64cecfc395906a1bf68bf973d" target="_top" xlink:title=" ">
<polygon fill="none" stroke="black" points="5,-343.5 5,-373.5 121,-373.5 121,-343.5 5,-343.5"/>
<text text-anchor="start" x="13" y="-361.5" font-family="Arial" font-size="10.00">util::geometry::Triangle</text>
<text text-anchor="middle" x="63" y="-350.5" font-family="Arial" font-size="10.00">::isNear</text>
</a>
</g>
</g>
<!-- Node2&#45;&gt;Node3 -->
<g id="edge2" class="edge">
<title>Node2&#45;&gt;Node3</title>
<path fill="none" stroke="midnightblue" d="M210.24,-206.01C197.68,-237.29 169.03,-298.76 126,-334.5 121.92,-337.89 117.3,-340.84 112.47,-343.4"/>
<polygon fill="midnightblue" stroke="midnightblue" points="213.66,-206.89 214.01,-196.3 207.13,-204.36 213.66,-206.89"/>
</g>
<!-- Node4 -->
<g id="node4" class="node">
<title>Node4</title>
<g id="a_node4"><a xlink:href="classutil_1_1geometry_1_1Square.html#aeca313e91b6ebde43320b3a620df7341" target="_top" xlink:title=" ">
<polygon fill="none" stroke="black" points="6.5,-294.5 6.5,-324.5 119.5,-324.5 119.5,-294.5 6.5,-294.5"/>
<text text-anchor="start" x="14.5" y="-312.5" font-family="Arial" font-size="10.00">util::geometry::Square</text>
<text text-anchor="middle" x="63" y="-301.5" font-family="Arial" font-size="10.00">::isNear</text>
</a>
</g>
</g>
<!-- Node2&#45;&gt;Node4 -->
<g id="edge3" class="edge">
<title>Node2&#45;&gt;Node4</title>
<path fill="none" stroke="midnightblue" d="M205.02,-204.36C188.98,-226.17 159.19,-262.93 126,-285.5 121.04,-288.87 115.53,-291.87 109.91,-294.5"/>
<polygon fill="midnightblue" stroke="midnightblue" points="208.03,-206.18 211.03,-196.02 202.35,-202.09 208.03,-206.18"/>
</g>
<!-- Node5 -->
<g id="node5" class="node">
<title>Node5</title>
<g id="a_node5"><a xlink:href="classutil_1_1geometry_1_1Rectangle.html#ab9e5e172e1a2542eb606f211562892ac" target="_top" xlink:title=" ">
<polygon fill="none" stroke="black" points="0,-245.5 0,-275.5 126,-275.5 126,-245.5 0,-245.5"/>
<text text-anchor="start" x="8" y="-263.5" font-family="Arial" font-size="10.00">util::geometry::Rectangle</text>
<text text-anchor="middle" x="63" y="-252.5" font-family="Arial" font-size="10.00">::isNear</text>
</a>
</g>
</g>
<!-- Node2&#45;&gt;Node5 -->
<g id="edge4" class="edge">
<title>Node2&#45;&gt;Node5</title>
<path fill="none" stroke="midnightblue" d="M192.85,-201.12C174.69,-211.6 149.21,-225.72 126,-236.5 119.3,-239.61 112.08,-242.67 105.01,-245.5"/>
<polygon fill="midnightblue" stroke="midnightblue" points="194.75,-204.06 201.63,-196 191.23,-198.01 194.75,-204.06"/>
</g>
<!-- Node6 -->
<g id="node6" class="node">
<title>Node6</title>
<g id="a_node6"><a xlink:href="classutil_1_1geometry_1_1Hexagon.html#a22113f305ef928c9bf09b0817a68ea8f" target="_top" xlink:title=" ">
<polygon fill="none" stroke="black" points="2.5,-196.5 2.5,-226.5 123.5,-226.5 123.5,-196.5 2.5,-196.5"/>
<text text-anchor="start" x="10.5" y="-214.5" font-family="Arial" font-size="10.00">util::geometry::Hexagon</text>
<text text-anchor="middle" x="63" y="-203.5" font-family="Arial" font-size="10.00">::isNear</text>
</a>
</g>
</g>
<!-- Node2&#45;&gt;Node6 -->
<g id="edge5" class="edge">
<title>Node2&#45;&gt;Node6</title>
<path fill="none" stroke="midnightblue" d="M159.28,-195.98C147.6,-197.88 135.31,-199.89 123.59,-201.79"/>
<polygon fill="midnightblue" stroke="midnightblue" points="160.05,-199.4 169.35,-194.34 158.92,-192.49 160.05,-199.4"/>
</g>
<!-- Node7 -->
<g id="node7" class="node">
<title>Node7</title>
<g id="a_node7"><a xlink:href="classutil_1_1geometry_1_1Drum2D.html#a6b4a0ee14758e9354d6e3566e74edfc9" target="_top" xlink:title=" ">
<polygon fill="none" stroke="black" points="3.5,-147.5 3.5,-177.5 122.5,-177.5 122.5,-147.5 3.5,-147.5"/>
<text text-anchor="start" x="11.5" y="-165.5" font-family="Arial" font-size="10.00">util::geometry::Drum2D</text>
<text text-anchor="middle" x="63" y="-154.5" font-family="Arial" font-size="10.00">::isNear</text>
</a>
</g>
</g>
<!-- Node2&#45;&gt;Node7 -->
<g id="edge6" class="edge">
<title>Node2&#45;&gt;Node7</title>
<path fill="none" stroke="midnightblue" d="M159.45,-177.42C147.45,-175.55 134.79,-173.57 122.76,-171.69"/>
<polygon fill="midnightblue" stroke="midnightblue" points="158.93,-180.89 169.35,-178.97 160.01,-173.97 158.93,-180.89"/>
</g>
<!-- Node8 -->
<g id="node8" class="node">
<title>Node8</title>
<g id="a_node8"><a xlink:href="classutil_1_1geometry_1_1Cube.html#aac5be48370823593083e6da438bdb962" target="_top" xlink:title=" ">
<polygon fill="none" stroke="black" points="10.5,-98.5 10.5,-128.5 115.5,-128.5 115.5,-98.5 10.5,-98.5"/>
<text text-anchor="start" x="18.5" y="-116.5" font-family="Arial" font-size="10.00">util::geometry::Cube</text>
<text text-anchor="middle" x="63" y="-105.5" font-family="Arial" font-size="10.00">::isNear</text>
</a>
</g>
</g>
<!-- Node2&#45;&gt;Node8 -->
<g id="edge7" class="edge">
<title>Node2&#45;&gt;Node8</title>
<path fill="none" stroke="midnightblue" d="M180,-173.11C173.86,-170.5 167.67,-167.61 162,-164.5 144.69,-155.01 143.28,-148.04 126,-138.5 119.5,-134.91 112.37,-131.55 105.34,-128.54"/>
<polygon fill="midnightblue" stroke="midnightblue" points="178.92,-176.45 189.5,-176.96 181.54,-169.96 178.92,-176.45"/>
</g>
<!-- Node9 -->
<g id="node9" class="node">
<title>Node9</title>
<g id="a_node9"><a xlink:href="classutil_1_1geometry_1_1Cuboid.html#ac88433cc43e94f4f1a399ba8776e4986" target="_top" xlink:title=" ">
<polygon fill="none" stroke="black" points="6.5,-49.5 6.5,-79.5 119.5,-79.5 119.5,-49.5 6.5,-49.5"/>
<text text-anchor="start" x="14.5" y="-67.5" font-family="Arial" font-size="10.00">util::geometry::Cuboid</text>
<text text-anchor="middle" x="63" y="-56.5" font-family="Arial" font-size="10.00">::isNear</text>
</a>
</g>
</g>
<!-- Node2&#45;&gt;Node9 -->
<g id="edge8" class="edge">
<title>Node2&#45;&gt;Node9</title>
<path fill="none" stroke="midnightblue" d="M172.56,-172.24C168.75,-170.01 165.16,-167.44 162,-164.5 134.95,-139.29 152.97,-114.79 126,-89.5 121.94,-85.69 117.22,-82.43 112.23,-79.65"/>
<polygon fill="midnightblue" stroke="midnightblue" points="171.23,-175.49 181.74,-176.88 174.39,-169.25 171.23,-175.49"/>
</g>
<!-- Node10 -->
<g id="node10" class="node">
<title>Node10</title>
<g id="a_node10"><a xlink:href="classutil_1_1geometry_1_1Cylinder.html#a5e2547782e3c159abff3977dd872a8cc" target="_top" xlink:title=" ">
<polygon fill="none" stroke="black" points="4,-0.5 4,-30.5 122,-30.5 122,-0.5 4,-0.5"/>
<text text-anchor="start" x="12" y="-18.5" font-family="Arial" font-size="10.00">util::geometry::Cylinder</text>
<text text-anchor="middle" x="63" y="-7.5" font-family="Arial" font-size="10.00">::isNear</text>
</a>
</g>
</g>
<!-- Node2&#45;&gt;Node10 -->
<g id="edge9" class="edge">
<title>Node2&#45;&gt;Node10</title>
<path fill="none" stroke="midnightblue" d="M170.71,-171.92C167.51,-169.77 164.55,-167.31 162,-164.5 123.15,-121.69 165.02,-82.16 126,-39.5 122.88,-36.09 119.23,-33.17 115.28,-30.65"/>
<polygon fill="midnightblue" stroke="midnightblue" points="169.18,-175.08 179.62,-176.91 172.6,-168.97 169.18,-175.08"/>
</g>
<!-- Node11&#45;&gt;Node2 -->
<g id="edge11" class="edge">
<title>Node11&#45;&gt;Node2</title>
<path fill="none" stroke="midnightblue" d="M340.53,-128.78C321.69,-139.98 297.41,-153.75 275,-164.5 265.65,-168.98 255.14,-173.32 245.8,-176.94"/>
<polygon fill="midnightblue" stroke="midnightblue" points="342.54,-131.65 349.32,-123.51 338.94,-125.65 342.54,-131.65"/>
</g>
<!-- Node11&#45;&gt;Node12 -->
<g id="edge12" class="edge">
<title>Node11&#45;&gt;Node12</title>
<path fill="none" stroke="midnightblue" d="M300.86,-123.12C291.2,-125.07 281.46,-127.03 272.23,-128.89"/>
<polygon fill="midnightblue" stroke="midnightblue" points="301.75,-126.51 310.86,-121.11 300.37,-119.65 301.75,-126.51"/>
</g>
<!-- Node11&#45;&gt;Node13 -->
<g id="edge13" class="edge">
<title>Node11&#45;&gt;Node13</title>
<path fill="none" stroke="midnightblue" d="M300.8,-96.7C292.18,-95.3 283.48,-93.89 275.15,-92.53"/>
<polygon fill="midnightblue" stroke="midnightblue" points="300.43,-100.18 310.86,-98.33 301.55,-93.27 300.43,-100.18"/>
</g>
<!-- Node15 -->
<g id="node15" class="node">
<title>Node15</title>
<g id="a_node15"><a xlink:href="testUtil_8cpp.html#a0ddf1224851353fc92bfbff6f499fa97" target="_top" xlink:title=" ">
<polygon fill="none" stroke="black" points="199.5,-17 199.5,-36 237.5,-36 237.5,-17 199.5,-17"/>
<text text-anchor="middle" x="218.5" y="-24" font-family="Arial" font-size="10.00">main</text>
</a>
</g>
</g>
<!-- Node14&#45;&gt;Node15 -->
<g id="edge17" class="edge">
<title>Node14&#45;&gt;Node15</title>
<path fill="none" stroke="midnightblue" d="M309.82,-26.5C283.74,-26.5 255.54,-26.5 237.72,-26.5"/>
<polygon fill="midnightblue" stroke="midnightblue" points="310.07,-30 320.07,-26.5 310.07,-23 310.07,-30"/>
</g>
</g>
</svg>
