<?xml version="1.0" encoding="UTF-8" standalone="no"?>
<!DOCTYPE svg PUBLIC "-//W3C//DTD SVG 1.1//EN"
 "http://www.w3.org/Graphics/SVG/1.1/DTD/svg11.dtd">
<!-- Generated by graphviz version 2.43.0 (0)
 -->
<!-- Title: util::methods::max Pages: 1 -->
<svg width="677pt" height="127pt"
 viewBox="0.00 0.00 677.00 127.00" xmlns="http://www.w3.org/2000/svg" xmlns:xlink="http://www.w3.org/1999/xlink">
<g id="graph0" class="graph" transform="scale(1 1) rotate(0) translate(4 123)">
<title>util::methods::max</title>
<!-- Node1 -->
<g id="node1" class="node">
<title>Node1</title>
<g id="a_node1"><a xlink:title="Returns the maximum from list of data.">
<polygon fill="#bfbfbf" stroke="black" points="571,-50 571,-69 669,-69 669,-50 571,-50"/>
<text text-anchor="middle" x="620" y="-57" font-family="Arial" font-size="10.00">util::methods::max</text>
</a>
</g>
</g>
<!-- Node2 -->
<g id="node2" class="node">
<title>Node2</title>
<g id="a_node2"><a xlink:href="classmaterial_1_1PdElastic.html#a742cf645789390fb6b1f232d8933f9c4" target="_top" xlink:title="Returns critical bond strain.">
<polygon fill="none" stroke="black" points="420,-88.5 420,-118.5 519,-118.5 519,-88.5 420,-88.5"/>
<text text-anchor="start" x="428" y="-106.5" font-family="Arial" font-size="10.00">material::PdElastic</text>
<text text-anchor="middle" x="469.5" y="-95.5" font-family="Arial" font-size="10.00">::getSc</text>
</a>
</g>
</g>
<!-- Node1&#45;&gt;Node2 -->
<g id="edge1" class="edge">
<title>Node1&#45;&gt;Node2</title>
<path fill="none" stroke="midnightblue" d="M577.1,-71.91C559.03,-77.27 537.79,-83.56 519.03,-89.12"/>
<polygon fill="midnightblue" stroke="midnightblue" points="578.18,-75.24 586.78,-69.05 576.2,-68.53 578.18,-75.24"/>
</g>
<!-- Node3 -->
<g id="node3" class="node">
<title>Node3</title>
<g id="a_node3"><a xlink:href="classmodel_1_1DEMModel.html#a3652826a385051497907774640ed2044" target="_top" xlink:title="Output the snapshot of data at current time step.">
<polygon fill="none" stroke="black" points="404,-50 404,-69 535,-69 535,-50 404,-50"/>
<text text-anchor="middle" x="469.5" y="-57" font-family="Arial" font-size="10.00">model::DEMModel::output</text>
</a>
</g>
</g>
<!-- Node1&#45;&gt;Node3 -->
<g id="edge2" class="edge">
<title>Node1&#45;&gt;Node3</title>
<path fill="none" stroke="midnightblue" d="M560.74,-59.5C552.37,-59.5 543.71,-59.5 535.22,-59.5"/>
<polygon fill="midnightblue" stroke="midnightblue" points="560.79,-63 570.79,-59.5 560.79,-56 560.79,-63"/>
</g>
<!-- Node7 -->
<g id="node7" class="node">
<title>Node7</title>
<g id="a_node7"><a xlink:href="namespaceutil.html#a663b495a76c7875a51986e259e93f63f" target="_top" xlink:title="Transform sample from U(0,1) to U(a,b)">
<polygon fill="none" stroke="black" points="424.5,-0.5 424.5,-30.5 514.5,-30.5 514.5,-0.5 424.5,-0.5"/>
<text text-anchor="start" x="432.5" y="-18.5" font-family="Arial" font-size="10.00">util::transform_to</text>
<text text-anchor="middle" x="469.5" y="-7.5" font-family="Arial" font-size="10.00">_uniform_dist</text>
</a>
</g>
</g>
<!-- Node1&#45;&gt;Node7 -->
<g id="edge6" class="edge">
<title>Node1&#45;&gt;Node7</title>
<path fill="none" stroke="midnightblue" d="M576.99,-47.05C557.56,-41.29 534.47,-34.45 514.77,-28.62"/>
<polygon fill="midnightblue" stroke="midnightblue" points="576.2,-50.47 586.78,-49.95 578.18,-43.76 576.2,-50.47"/>
</g>
<!-- Node4 -->
<g id="node4" class="node">
<title>Node4</title>
<g id="a_node4"><a xlink:href="classtwop_1_1Model.html#a5fc8693675cdd98d4e312622e003e56e" target="_top" xlink:title="Perform time integration.">
<polygon fill="none" stroke="black" points="227,-50 227,-69 340,-69 340,-50 227,-50"/>
<text text-anchor="middle" x="283.5" y="-57" font-family="Arial" font-size="10.00">twop::Model::integrate</text>
</a>
</g>
</g>
<!-- Node3&#45;&gt;Node4 -->
<g id="edge3" class="edge">
<title>Node3&#45;&gt;Node4</title>
<path fill="none" stroke="midnightblue" d="M393.75,-59.5C375.82,-59.5 356.98,-59.5 340.1,-59.5"/>
<polygon fill="midnightblue" stroke="midnightblue" points="393.89,-63 403.89,-59.5 393.89,-56 393.89,-63"/>
</g>
<!-- Node5 -->
<g id="node5" class="node">
<title>Node5</title>
<g id="a_node5"><a xlink:href="classtwop_1_1Model.html#a8e7a374cd93c0070be4c04c57d21fcc0" target="_top" xlink:title="Main driver to simulate.">
<polygon fill="none" stroke="black" points="74,-50 74,-69 163,-69 163,-50 74,-50"/>
<text text-anchor="middle" x="118.5" y="-57" font-family="Arial" font-size="10.00">twop::Model::run</text>
</a>
</g>
</g>
<!-- Node4&#45;&gt;Node5 -->
<g id="edge4" class="edge">
<title>Node4&#45;&gt;Node5</title>
<path fill="none" stroke="midnightblue" d="M216.68,-59.5C198.63,-59.5 179.52,-59.5 163.06,-59.5"/>
<polygon fill="midnightblue" stroke="midnightblue" points="216.86,-63 226.86,-59.5 216.86,-56 216.86,-63"/>
</g>
<!-- Node6 -->
<g id="node6" class="node">
<title>Node6</title>
<g id="a_node6"><a xlink:href="apps_2twop_2main_8cpp.html#a0ddf1224851353fc92bfbff6f499fa97" target="_top" xlink:title=" ">
<polygon fill="none" stroke="black" points="0,-50 0,-69 38,-69 38,-50 0,-50"/>
<text text-anchor="middle" x="19" y="-57" font-family="Arial" font-size="10.00">main</text>
</a>
</g>
</g>
<!-- Node5&#45;&gt;Node6 -->
<g id="edge5" class="edge">
<title>Node5&#45;&gt;Node6</title>
<path fill="none" stroke="midnightblue" d="M63.83,-59.5C54.59,-59.5 45.59,-59.5 38.17,-59.5"/>
<polygon fill="midnightblue" stroke="midnightblue" points="63.88,-63 73.88,-59.5 63.88,-56 63.88,-63"/>
</g>
<!-- Node8 -->
<g id="node8" class="node">
<title>Node8</title>
<g id="a_node8"><a xlink:href="classmodel_1_1DEMModel.html#a90df14f82a946d4f558efae30240f15e" target="_top" xlink:title="Creates particles in a Hexagonal arrangement.">
<polygon fill="none" stroke="black" points="199,-0.5 199,-30.5 368,-30.5 368,-0.5 199,-0.5"/>
<text text-anchor="start" x="207" y="-18.5" font-family="Arial" font-size="10.00">model::DEMModel::createParticles</text>
<text text-anchor="middle" x="283.5" y="-7.5" font-family="Arial" font-size="10.00">FromFile</text>
</a>
</g>
</g>
<!-- Node7&#45;&gt;Node8 -->
<g id="edge7" class="edge">
<title>Node7&#45;&gt;Node8</title>
<path fill="none" stroke="midnightblue" d="M414.21,-15.5C399.77,-15.5 383.83,-15.5 368.22,-15.5"/>
<polygon fill="midnightblue" stroke="midnightblue" points="414.43,-19 424.43,-15.5 414.43,-12 414.43,-19"/>
</g>
</g>
</svg>
