<?xml version="1.0" encoding="UTF-8" standalone="no"?>
<!DOCTYPE svg PUBLIC "-//W3C//DTD SVG 1.1//EN"
 "http://www.w3.org/Graphics/SVG/1.1/DTD/svg11.dtd">
<!-- Generated by graphviz version 2.43.0 (0)
 -->
<!-- Title: util::methods::isInList Pages: 1 -->
<svg width="863pt" height="342pt"
 viewBox="0.00 0.00 863.00 342.00" xmlns="http://www.w3.org/2000/svg" xmlns:xlink="http://www.w3.org/1999/xlink">
<g id="graph0" class="graph" transform="scale(1 1) rotate(0) translate(4 338)">
<title>util::methods::isInList</title>
<!-- Node1 -->
<g id="Node000001" class="node">
<title>Node1</title>
<g id="a_Node000001"><a xlink:title="Find if data is in the list.">
<polygon fill="#999999" stroke="#666666" points="855,-211.5 745,-211.5 745,-192.5 855,-192.5 855,-211.5"/>
<text text-anchor="middle" x="800" y="-199.5" font-family="Arial" font-size="10.00">util::methods::isInList</text>
</a>
</g>
</g>
<!-- Node2 -->
<g id="Node000002" class="node">
<title>Node2</title>
<g id="a_Node000002"><a xlink:href="namespaceutil_1_1geometry.html#a273199cba8fab80639f5479b3f01ab5d" target="_top" xlink:title="Ascertain if number of parameters are correct for the given geometry.">
<polygon fill="white" stroke="#666666" points="709,-286 575,-286 575,-256 709,-256 709,-286"/>
<text text-anchor="start" x="583" y="-274" font-family="Arial" font-size="10.00">util::geometry::isNumber</text>
<text text-anchor="middle" x="642" y="-263" font-family="Arial" font-size="10.00">OfParamForGeometryValid</text>
</a>
</g>
</g>
<!-- Node1&#45;&gt;Node2 -->
<g id="edge1_Node000001_Node000002" class="edge">
<title>Node1&#45;&gt;Node2</title>
<g id="a_edge1_Node000001_Node000002"><a xlink:title=" ">
<path fill="none" stroke="#63b8ff" d="M767.85,-215.78C741.61,-227.38 704.14,-243.96 677.1,-255.92"/>
<polygon fill="#63b8ff" stroke="#63b8ff" points="769.58,-218.84 777.31,-211.59 766.75,-212.44 769.58,-218.84"/>
</a>
</g>
</g>
<!-- Node5 -->
<g id="Node000005" class="node">
<title>Node5</title>
<g id="a_Node000005"><a xlink:href="namespaceutil_1_1methods.html#ab21bec324f7d53e91378acc142303fb3" target="_top" xlink:title="Returns true if tag is found in the list of tags.">
<polygon fill="white" stroke="#666666" points="705,-163.5 579,-163.5 579,-144.5 705,-144.5 705,-163.5"/>
<text text-anchor="middle" x="642" y="-151.5" font-family="Arial" font-size="10.00">util::methods::isTagInList</text>
</a>
</g>
</g>
<!-- Node1&#45;&gt;Node5 -->
<g id="edge4_Node000001_Node000005" class="edge">
<title>Node1&#45;&gt;Node5</title>
<g id="a_edge4_Node000001_Node000005"><a xlink:title=" ">
<path fill="none" stroke="#63b8ff" d="M758.13,-189.42C731.86,-181.34 698.25,-171 674.14,-163.58"/>
<polygon fill="#63b8ff" stroke="#63b8ff" points="757.22,-192.81 767.81,-192.4 759.28,-186.12 757.22,-192.81"/>
</a>
</g>
</g>
<!-- Node3 -->
<g id="Node000003" class="node">
<title>Node3</title>
<g id="a_Node000003"><a xlink:href="namespaceutil_1_1geometry.html#a2f43f1f68c3073656dcb3af84de93192" target="_top" xlink:title="Check parameter data for validity.">
<polygon fill="white" stroke="#666666" points="509,-334 372,-334 372,-304 509,-304 509,-334"/>
<text text-anchor="start" x="380" y="-322" font-family="Arial" font-size="10.00">util::geometry::checkParam</text>
<text text-anchor="middle" x="440.5" y="-311" font-family="Arial" font-size="10.00">ForGeometry</text>
</a>
</g>
</g>
<!-- Node2&#45;&gt;Node3 -->
<g id="edge2_Node000002_Node000003" class="edge">
<title>Node2&#45;&gt;Node3</title>
<g id="a_edge2_Node000002_Node000003"><a xlink:title=" ">
<path fill="none" stroke="#63b8ff" d="M568.51,-288.44C547.32,-293.54 524.35,-299.07 503.85,-304"/>
<polygon fill="#63b8ff" stroke="#63b8ff" points="569.52,-291.8 578.42,-286.06 567.88,-284.99 569.52,-291.8"/>
</a>
</g>
</g>
<!-- Node4 -->
<g id="Node000004" class="node">
<title>Node4</title>
<g id="a_Node000004"><a xlink:href="namespaceutil_1_1geometry.html#a44f3f0e0cc6edb964264a0cc22735209" target="_top" xlink:title="Create geometrical object from the given data.">
<polygon fill="white" stroke="#666666" points="508,-286 373,-286 373,-256 508,-256 508,-286"/>
<text text-anchor="start" x="381" y="-274" font-family="Arial" font-size="10.00">util::geometry::createGeom</text>
<text text-anchor="middle" x="440.5" y="-263" font-family="Arial" font-size="10.00">ObjectOld</text>
</a>
</g>
</g>
<!-- Node2&#45;&gt;Node4 -->
<g id="edge3_Node000002_Node000004" class="edge">
<title>Node2&#45;&gt;Node4</title>
<g id="a_edge3_Node000002_Node000004"><a xlink:title=" ">
<path fill="none" stroke="#63b8ff" d="M564.64,-271C546.03,-271 526.27,-271 508.16,-271"/>
<polygon fill="#63b8ff" stroke="#63b8ff" points="564.85,-274.5 574.85,-271 564.85,-267.5 564.85,-274.5"/>
</a>
</g>
</g>
<!-- Node5&#45;&gt;Node4 -->
<g id="edge7_Node000005_Node000004" class="edge">
<title>Node5&#45;&gt;Node4</title>
<g id="a_edge7_Node000005_Node000004"><a xlink:title=" ">
<path fill="none" stroke="#63b8ff" d="M626.81,-171.42C608.67,-192.53 575.23,-227.66 539,-247 529.47,-252.09 518.83,-256.12 508.19,-259.31"/>
<polygon fill="#63b8ff" stroke="#63b8ff" points="629.65,-173.48 633.41,-163.58 624.29,-168.98 629.65,-173.48"/>
</a>
</g>
</g>
<!-- Node6 -->
<g id="Node000006" class="node">
<title>Node6</title>
<g id="a_Node000006"><a xlink:href="classrw_1_1writer_1_1VtkParticleWriter.html#a2adbf982a587a4d4d91879c9521e0fd5" target="_top" xlink:title="Writes the nodes to the file.">
<polygon fill="white" stroke="#666666" points="509,-238 372,-238 372,-208 509,-208 509,-238"/>
<text text-anchor="start" x="380" y="-226" font-family="Arial" font-size="10.00">rw::writer::VtkParticleWriter</text>
<text text-anchor="middle" x="440.5" y="-215" font-family="Arial" font-size="10.00">::appendNodes</text>
</a>
</g>
</g>
<!-- Node5&#45;&gt;Node6 -->
<g id="edge5_Node000005_Node000006" class="edge">
<title>Node5&#45;&gt;Node6</title>
<g id="a_edge5_Node000005_Node000006"><a xlink:title=" ">
<path fill="none" stroke="#63b8ff" d="M612.61,-168.12C592.44,-177.76 564.51,-190.31 539,-199 529.43,-202.26 519.19,-205.28 509.08,-207.99"/>
<polygon fill="#63b8ff" stroke="#63b8ff" points="614.37,-171.16 621.85,-163.66 611.32,-164.86 614.37,-171.16"/>
</a>
</g>
</g>
<!-- Node7 -->
<g id="Node000007" class="node">
<title>Node7</title>
<g id="a_Node000007"><a xlink:href="classmodel_1_1DEMModel.html#a34f7f402d46ec6e47b4abcaf6aa43060" target="_top" xlink:title="Creates geometrical object for a particle given particle radius, orientation, and site location.">
<polygon fill="white" stroke="#666666" points="527,-190 354,-190 354,-160 527,-160 527,-190"/>
<text text-anchor="start" x="362" y="-178" font-family="Arial" font-size="10.00">model::DEMModel::createGeometry</text>
<text text-anchor="middle" x="440.5" y="-167" font-family="Arial" font-size="10.00">AtSite</text>
</a>
</g>
</g>
<!-- Node5&#45;&gt;Node7 -->
<g id="edge6_Node000005_Node000007" class="edge">
<title>Node5&#45;&gt;Node7</title>
<g id="a_edge6_Node000005_Node000007"><a xlink:title=" ">
<path fill="none" stroke="#63b8ff" d="M568.82,-161.6C555.35,-163.02 541.14,-164.51 527.3,-165.97"/>
<polygon fill="#63b8ff" stroke="#63b8ff" points="569.39,-165.06 578.97,-160.53 568.66,-158.1 569.39,-165.06"/>
</a>
</g>
</g>
<!-- Node8 -->
<g id="Node000008" class="node">
<title>Node8</title>
<g id="a_Node000008"><a xlink:href="classmodel_1_1DEMModel.html#a3652826a385051497907774640ed2044" target="_top" xlink:title="Output the snapshot of data at current time step.">
<polygon fill="white" stroke="#666666" points="506,-141.5 375,-141.5 375,-122.5 506,-122.5 506,-141.5"/>
<text text-anchor="middle" x="440.5" y="-129.5" font-family="Arial" font-size="10.00">model::DEMModel::output</text>
</a>
</g>
</g>
<!-- Node5&#45;&gt;Node8 -->
<g id="edge8_Node000005_Node000008" class="edge">
<title>Node5&#45;&gt;Node8</title>
<g id="a_edge8_Node000005_Node000008"><a xlink:title=" ">
<path fill="none" stroke="#63b8ff" d="M568.77,-146.04C548.33,-143.78 526.22,-141.34 506.25,-139.14"/>
<polygon fill="#63b8ff" stroke="#63b8ff" points="568.65,-149.54 578.97,-147.16 569.41,-142.58 568.65,-149.54"/>
</a>
</g>
</g>
<!-- Node12 -->
<g id="Node000012" class="node">
<title>Node12</title>
<g id="a_Node000012"><a xlink:href="classinp_1_1Input.html#a5689d155dc964e648dc91dd9e5c8ade6" target="_top" xlink:title="Read data into particle deck and store its pointer.">
<polygon fill="white" stroke="#666666" points="507,-104.5 374,-104.5 374,-85.5 507,-85.5 507,-104.5"/>
<text text-anchor="middle" x="440.5" y="-92.5" font-family="Arial" font-size="10.00">inp::Input::setParticleDeck</text>
</a>
</g>
</g>
<!-- Node5&#45;&gt;Node12 -->
<g id="edge11_Node000005_Node000012" class="edge">
<title>Node5&#45;&gt;Node12</title>
<g id="a_edge11_Node000005_Node000012"><a xlink:title=" ">
<path fill="none" stroke="#63b8ff" d="M610.67,-140.43C590.64,-131.89 563.64,-121.17 539,-114 526.42,-110.34 512.71,-107.18 499.66,-104.54"/>
<polygon fill="#63b8ff" stroke="#63b8ff" points="609.33,-143.67 619.9,-144.42 612.11,-137.24 609.33,-143.67"/>
</a>
</g>
</g>
<!-- Node14 -->
<g id="Node000014" class="node">
<title>Node14</title>
<g id="a_Node000014"><a xlink:href="classmodel_1_1DEMModel.html#affa6d0599ebdacc4fa9c5c854df7910f" target="_top" xlink:title="Sets up quadrature data.">
<polygon fill="white" stroke="#666666" points="539,-67.5 342,-67.5 342,-48.5 539,-48.5 539,-67.5"/>
<text text-anchor="middle" x="440.5" y="-55.5" font-family="Arial" font-size="10.00">model::DEMModel::setupQuadratureData</text>
</a>
</g>
</g>
<!-- Node5&#45;&gt;Node14 -->
<g id="edge13_Node000005_Node000014" class="edge">
<title>Node5&#45;&gt;Node14</title>
<g id="a_edge13_Node000005_Node000014"><a xlink:title=" ">
<path fill="none" stroke="#63b8ff" d="M624.3,-137.5C605.29,-119.72 572.51,-91.95 539,-77 530.26,-73.1 520.73,-70 511.15,-67.53"/>
<polygon fill="#63b8ff" stroke="#63b8ff" points="621.92,-140.07 631.57,-144.45 626.76,-135.01 621.92,-140.07"/>
</a>
</g>
</g>
<!-- Node15 -->
<g id="Node000015" class="node">
<title>Node15</title>
<g id="a_Node000015"><a xlink:href="classmodel_1_1DEMModel.html#a757f6695313ad8b7ac54e1437eebed26" target="_top" xlink:title="Update varioud geometry objects associated with container, particles, and reference particles.">
<polygon fill="white" stroke="#666666" points="528.5,-30 352.5,-30 352.5,0 528.5,0 528.5,-30"/>
<text text-anchor="start" x="360.5" y="-18" font-family="Arial" font-size="10.00">model::DEMModel::updateGeometry</text>
<text text-anchor="middle" x="440.5" y="-7" font-family="Arial" font-size="10.00">ObjectsPostInit</text>
</a>
</g>
</g>
<!-- Node5&#45;&gt;Node15 -->
<g id="edge14_Node000005_Node000015" class="edge">
<title>Node5&#45;&gt;Node15</title>
<g id="a_edge14_Node000005_Node000015"><a xlink:title=" ">
<path fill="none" stroke="#63b8ff" d="M629.75,-135.42C613.18,-109.68 579.72,-63.59 539,-39 533.25,-35.53 527.03,-32.56 520.61,-30.02"/>
<polygon fill="#63b8ff" stroke="#63b8ff" points="626.98,-137.58 635.26,-144.2 632.91,-133.86 626.98,-137.58"/>
</a>
</g>
</g>
<!-- Node9 -->
<g id="Node000009" class="node">
<title>Node9</title>
<g id="a_Node000009"><a xlink:href="classtwoparticle__demo_1_1Model.html#a4edd5f54de8ea3e6e35391b134c642be" target="_top" xlink:title="Perform time step integration.">
<polygon fill="white" stroke="#666666" points="306,-150 181,-150 181,-120 306,-120 306,-150"/>
<text text-anchor="start" x="189" y="-138" font-family="Arial" font-size="10.00">twoparticle_demo::Model</text>
<text text-anchor="middle" x="243.5" y="-127" font-family="Arial" font-size="10.00">::integrate</text>
</a>
</g>
</g>
<!-- Node8&#45;&gt;Node9 -->
<g id="edge9_Node000008_Node000009" class="edge">
<title>Node8&#45;&gt;Node9</title>
<g id="a_edge9_Node000008_Node000009"><a xlink:title=" ">
<path fill="none" stroke="#63b8ff" d="M364.81,-133.15C345.38,-133.45 324.67,-133.77 306.01,-134.05"/>
<polygon fill="#63b8ff" stroke="#63b8ff" points="364.89,-136.65 374.84,-132.99 364.79,-129.65 364.89,-136.65"/>
</a>
</g>
</g>
<!-- Node10 -->
<g id="Node000010" class="node">
<title>Node10</title>
<g id="a_Node000010"><a xlink:href="classtwoparticle__demo_1_1Model.html#af741e660292b3c71c59277cbd1beb052" target="_top" xlink:title="Runs simulation by executing steps such as init(), integrate(), and close().">
<polygon fill="#fff0f0" stroke="red" points="145,-144.5 0,-144.5 0,-125.5 145,-125.5 145,-144.5"/>
<text text-anchor="middle" x="72.5" y="-132.5" font-family="Arial" font-size="10.00">twoparticle_demo::Model::run</text>
</a>
</g>
</g>
<!-- Node9&#45;&gt;Node10 -->
<g id="edge10_Node000009_Node000010" class="edge">
<title>Node9&#45;&gt;Node10</title>
<g id="a_edge10_Node000009_Node000010"><a xlink:title=" ">
<path fill="none" stroke="#63b8ff" d="M170.44,-135C162.07,-135 153.55,-135 145.19,-135"/>
<polygon fill="#63b8ff" stroke="#63b8ff" points="170.53,-138.5 180.53,-135 170.53,-131.5 170.53,-138.5"/>
</a>
</g>
</g>
<!-- Node13 -->
<g id="Node000013" class="node">
<title>Node13</title>
<g id="a_Node000013"><a xlink:href="classinp_1_1Input.html#a0259771f00b712054f5f33d807990869" target="_top" xlink:title="Constructor.">
<polygon fill="white" stroke="#666666" points="286,-101.5 201,-101.5 201,-82.5 286,-82.5 286,-101.5"/>
<text text-anchor="middle" x="243.5" y="-89.5" font-family="Arial" font-size="10.00">inp::Input::Input</text>
</a>
</g>
</g>
<!-- Node12&#45;&gt;Node13 -->
<g id="edge12_Node000012_Node000013" class="edge">
<title>Node12&#45;&gt;Node13</title>
<g id="a_edge12_Node000012_Node000013"><a xlink:title=" ">
<path fill="none" stroke="#63b8ff" d="M363.42,-93.83C337.12,-93.42 308.63,-92.99 286.14,-92.64"/>
<polygon fill="#63b8ff" stroke="#63b8ff" points="363.7,-97.33 373.75,-93.99 363.81,-90.34 363.7,-97.33"/>
</a>
</g>
</g>
</g>
</svg>
