<?xml version="1.0" encoding="UTF-8" standalone="no"?>
<!DOCTYPE svg PUBLIC "-//W3C//DTD SVG 1.1//EN"
 "http://www.w3.org/Graphics/SVG/1.1/DTD/svg11.dtd">
<!-- Generated by graphviz version 2.43.0 (0)
 -->
<!-- Title: problem_setup.generate_tri_particle_gmsh_input Pages: 1 -->
<svg width="671pt" height="567pt"
 viewBox="0.00 0.00 671.00 566.55" xmlns="http://www.w3.org/2000/svg" xmlns:xlink="http://www.w3.org/1999/xlink">
<g id="graph0" class="graph" transform="scale(1 1) rotate(0) translate(4 562.55)">
<title>problem_setup.generate_tri_particle_gmsh_input</title>
<!-- Node1 -->
<g id="Node000001" class="node">
<title>Node1</title>
<g id="a_Node000001"><a xlink:title=" ">
<polygon fill="#999999" stroke="#666666" points="663,-178.55 541,-178.55 541,-148.55 663,-148.55 663,-178.55"/>
<text text-anchor="start" x="549" y="-166.55" font-family="Arial" font-size="10.00">problem_setup.generate</text>
<text text-anchor="middle" x="602" y="-155.55" font-family="Arial" font-size="10.00">_tri_particle_gmsh_input</text>
</a>
</g>
</g>
<!-- Node2 -->
<g id="Node000002" class="node">
<title>Node2</title>
<g id="a_Node000002"><a xlink:href="namespaceproblem__setup.html#a8ed53bd44082cee1b5381115a87451e2" target="_top" xlink:title=" ">
<polygon fill="white" stroke="#666666" points="505,-269.55 395,-269.55 395,-239.55 505,-239.55 505,-269.55"/>
<text text-anchor="start" x="403" y="-257.55" font-family="Arial" font-size="10.00">problem_setup.create</text>
<text text-anchor="middle" x="450" y="-246.55" font-family="Arial" font-size="10.00">_input_file</text>
</a>
</g>
</g>
<!-- Node1&#45;&gt;Node2 -->
<g id="edge1_Node000001_Node000002" class="edge">
<title>Node1&#45;&gt;Node2</title>
<g id="a_edge1_Node000001_Node000002"><a xlink:title=" ">
<path fill="none" stroke="#63b8ff" d="M567.63,-183.8C539.85,-200.66 500.9,-224.28 475.81,-239.51"/>
<polygon fill="#63b8ff" stroke="#63b8ff" points="569.5,-186.76 576.23,-178.58 565.87,-180.78 569.5,-186.76"/>
</a>
</g>
</g>
<!-- Node4 -->
<g id="Node000004" class="node">
<title>Node4</title>
<g id="a_Node000004"><a xlink:href="namespaceproblem__setup.html#a16a9d169ecf04b1a867bec4dbf274c01" target="_top" xlink:title=" ">
<polygon fill="white" stroke="#666666" points="343.5,-540.55 190.5,-540.55 190.5,-510.55 343.5,-510.55 343.5,-540.55"/>
<text text-anchor="start" x="198.5" y="-528.55" font-family="Arial" font-size="10.00">problem_setup.generate</text>
<text text-anchor="middle" x="267" y="-517.55" font-family="Arial" font-size="10.00">_moving_rect_wall_gmsh_input</text>
</a>
</g>
</g>
<!-- Node1&#45;&gt;Node4 -->
<g id="edge22_Node000001_Node000004" class="edge">
<title>Node1&#45;&gt;Node4</title>
<g id="a_edge22_Node000001_Node000004"><a xlink:title=" ">
<path fill="none" stroke="#63b8ff" d="M592.37,-188.35C577.99,-227.62 546.58,-305.5 505,-362.55 452.24,-434.96 437.22,-457.87 359,-501.55 352.87,-504.98 346.23,-507.93 339.42,-510.47"/>
<polygon fill="#63b8ff" stroke="#63b8ff" points="595.71,-189.39 595.81,-178.79 589.13,-187.02 595.71,-189.39"/>
</a>
</g>
</g>
<!-- Node8 -->
<g id="Node000008" class="node">
<title>Node8</title>
<g id="a_Node000008"><a xlink:href="namespaceproblem__setup.html#ab77cd691be605123ba53961f21c8885a" target="_top" xlink:title=" ">
<polygon fill="white" stroke="#666666" points="139,-52.55 0,-52.55 0,-22.55 139,-22.55 139,-52.55"/>
<text text-anchor="start" x="8" y="-40.55" font-family="Arial" font-size="10.00">problem_setup.generate</text>
<text text-anchor="middle" x="69.5" y="-29.55" font-family="Arial" font-size="10.00">_rect_container_gmsh_input</text>
</a>
</g>
</g>
<!-- Node1&#45;&gt;Node8 -->
<g id="edge23_Node000001_Node000008" class="edge">
<title>Node1&#45;&gt;Node8</title>
<g id="a_edge23_Node000001_Node000008"><a xlink:title=" ">
<path fill="none" stroke="#63b8ff" d="M586.61,-139.75C570.02,-114.29 540.43,-74.48 505,-51.55 448.21,-14.81 425.95,-18.21 359,-8.55 278.06,3.12 256.03,2.48 175,-8.55 154.76,-11.31 132.9,-16.94 114.44,-22.51"/>
<polygon fill="#63b8ff" stroke="#63b8ff" points="583.81,-141.86 592.12,-148.43 589.71,-138.11 583.81,-141.86"/>
</a>
</g>
</g>
<!-- Node9 -->
<g id="Node000009" class="node">
<title>Node9</title>
<g id="a_Node000009"><a xlink:href="namespaceproblem__setup.html#a8e72848abab104858c2a4647079140ed" target="_top" xlink:title=" ">
<polygon fill="white" stroke="#666666" points="359,-58.05 175,-58.05 175,-17.05 359,-17.05 359,-58.05"/>
<text text-anchor="start" x="183" y="-46.05" font-family="Arial" font-size="10.00">problem_setup.generate</text>
<text text-anchor="start" x="183" y="-35.05" font-family="Arial" font-size="10.00">_rectangle_with_protrusion</text>
<text text-anchor="middle" x="267" y="-24.05" font-family="Arial" font-size="10.00">_and_opening_wall_gmsh_input_type3</text>
</a>
</g>
</g>
<!-- Node1&#45;&gt;Node9 -->
<g id="edge24_Node000001_Node000009" class="edge">
<title>Node1&#45;&gt;Node9</title>
<g id="a_edge24_Node000001_Node000009"><a xlink:title=" ">
<path fill="none" stroke="#63b8ff" d="M577.64,-141.14C559.28,-124.76 532.33,-103.26 505,-90.55 459.21,-69.27 404.4,-56.31 359.03,-48.53"/>
<polygon fill="#63b8ff" stroke="#63b8ff" points="575.69,-144.11 585.43,-148.26 580.41,-138.94 575.69,-144.11"/>
</a>
</g>
</g>
<!-- Node10 -->
<g id="Node000010" class="node">
<title>Node10</title>
<g id="a_Node000010"><a xlink:href="namespaceproblem__setup.html#afa462577a9adf91f5e2cb59a1eb7da7e" target="_top" xlink:title=" ">
<polygon fill="white" stroke="#666666" points="327.5,-474.55 206.5,-474.55 206.5,-444.55 327.5,-444.55 327.5,-474.55"/>
<text text-anchor="start" x="214.5" y="-462.55" font-family="Arial" font-size="10.00">problem_setup.generate</text>
<text text-anchor="middle" x="267" y="-451.55" font-family="Arial" font-size="10.00">_wall_gmsh_input</text>
</a>
</g>
</g>
<!-- Node1&#45;&gt;Node10 -->
<g id="edge25_Node000001_Node000010" class="edge">
<title>Node1&#45;&gt;Node10</title>
<g id="a_edge25_Node000001_Node000010"><a xlink:title=" ">
<path fill="none" stroke="#63b8ff" d="M585.96,-187.23C551.95,-238.87 463.83,-362.3 359,-428.55 348.84,-434.97 337.2,-440.24 325.71,-444.48"/>
<polygon fill="#63b8ff" stroke="#63b8ff" points="588.97,-189.02 591.5,-178.73 583.11,-185.2 588.97,-189.02"/>
</a>
</g>
</g>
<!-- Node11 -->
<g id="Node000011" class="node">
<title>Node11</title>
<g id="a_Node000011"><a xlink:href="namespaceproblem__setup.html#a38db49e0a85dd22e69cae23f7f92435f" target="_top" xlink:title=" ">
<polygon fill="white" stroke="#666666" points="127,-195.55 12,-195.55 12,-165.55 127,-165.55 127,-195.55"/>
<text text-anchor="start" x="20" y="-183.55" font-family="Arial" font-size="10.00">problem_setup.particle</text>
<text text-anchor="middle" x="69.5" y="-172.55" font-family="Arial" font-size="10.00">_locations</text>
</a>
</g>
</g>
<!-- Node1&#45;&gt;Node11 -->
<g id="edge26_Node000001_Node000011" class="edge">
<title>Node1&#45;&gt;Node11</title>
<g id="a_edge26_Node000001_Node000011"><a xlink:title=" ">
<path fill="none" stroke="#63b8ff" d="M530.73,-163.01C446.23,-162.75 300.13,-163.55 175,-170.55 159.44,-171.43 142.62,-172.83 127.11,-174.31"/>
<polygon fill="#63b8ff" stroke="#63b8ff" points="530.97,-166.51 540.98,-163.05 530.99,-159.51 530.97,-166.51"/>
</a>
</g>
</g>
<!-- Node3 -->
<g id="Node000003" class="node">
<title>Node3</title>
<g id="a_Node000003"><a xlink:href="namespaceproblem__setup.html#a15d340f22fc959eb9bc3ebf12be02887" target="_top" xlink:title=" ">
<polygon fill="white" stroke="#666666" points="335,-304.55 199,-304.55 199,-274.55 335,-274.55 335,-304.55"/>
<text text-anchor="start" x="207" y="-292.55" font-family="Arial" font-size="10.00">problem_setup.generate</text>
<text text-anchor="middle" x="267" y="-281.55" font-family="Arial" font-size="10.00">_drum_particle_gmsh_input</text>
</a>
</g>
</g>
<!-- Node2&#45;&gt;Node3 -->
<g id="edge2_Node000002_Node000003" class="edge">
<title>Node2&#45;&gt;Node3</title>
<g id="a_edge2_Node000002_Node000003"><a xlink:title=" ">
<path fill="none" stroke="#63b8ff" d="M384.83,-266.96C368.7,-270.08 351.35,-273.44 335.08,-276.58"/>
<polygon fill="#63b8ff" stroke="#63b8ff" points="385.54,-270.39 394.69,-265.06 384.21,-263.52 385.54,-270.39"/>
</a>
</g>
</g>
<!-- Node2&#45;&gt;Node4 -->
<g id="edge4_Node000002_Node000004" class="edge">
<title>Node2&#45;&gt;Node4</title>
<g id="a_edge4_Node000002_Node000004"><a xlink:title=" ">
<path fill="none" stroke="#63b8ff" d="M447.29,-279.9C442.51,-329.92 424.67,-441.64 359,-501.55 354.41,-505.74 349.18,-509.21 343.6,-512.09"/>
<polygon fill="#63b8ff" stroke="#63b8ff" points="450.8,-279.93 448.16,-269.66 443.82,-279.33 450.8,-279.93"/>
</a>
</g>
</g>
<!-- Node5 -->
<g id="Node000005" class="node">
<title>Node5</title>
<g id="a_Node000005"><a xlink:href="namespaceproblem__setup.html#a4dd4df45d28c58aafac4fdf8aa8c554d" target="_top" xlink:title=" ">
<polygon fill="white" stroke="#666666" points="332.5,-238.55 201.5,-238.55 201.5,-208.55 332.5,-208.55 332.5,-238.55"/>
<text text-anchor="start" x="209.5" y="-226.55" font-family="Arial" font-size="10.00">problem_setup.generate</text>
<text text-anchor="middle" x="267" y="-215.55" font-family="Arial" font-size="10.00">_moving_wall_gmsh_input</text>
</a>
</g>
</g>
<!-- Node2&#45;&gt;Node5 -->
<g id="edge6_Node000002_Node000005" class="edge">
<title>Node2&#45;&gt;Node5</title>
<g id="a_edge6_Node000002_Node000005"><a xlink:title=" ">
<path fill="none" stroke="#63b8ff" d="M384.44,-243.5C367.66,-240.62 349.59,-237.53 332.8,-234.65"/>
<polygon fill="#63b8ff" stroke="#63b8ff" points="384.25,-247.02 394.69,-245.25 385.43,-240.12 384.25,-247.02"/>
</a>
</g>
</g>
<!-- Node6 -->
<g id="Node000006" class="node">
<title>Node6</title>
<g id="a_Node000006"><a xlink:href="namespaceproblem__setup.html#a881d38782fcef7d73522d8b9bfcdb3da" target="_top" xlink:title=" ">
<polygon fill="white" stroke="#666666" points="327.5,-370.55 206.5,-370.55 206.5,-340.55 327.5,-340.55 327.5,-370.55"/>
<text text-anchor="start" x="214.5" y="-358.55" font-family="Arial" font-size="10.00">problem_setup.generate</text>
<text text-anchor="middle" x="267" y="-347.55" font-family="Arial" font-size="10.00">_particle_gmsh_input</text>
</a>
</g>
</g>
<!-- Node2&#45;&gt;Node6 -->
<g id="edge8_Node000002_Node000006" class="edge">
<title>Node2&#45;&gt;Node6</title>
<g id="a_edge8_Node000002_Node000006"><a xlink:title=" ">
<path fill="none" stroke="#63b8ff" d="M428.35,-277.07C411.32,-294.36 385.69,-317.56 359,-331.55 349.3,-336.64 338.45,-340.7 327.71,-343.94"/>
<polygon fill="#63b8ff" stroke="#63b8ff" points="431.13,-279.23 435.55,-269.6 426.09,-274.37 431.13,-279.23"/>
</a>
</g>
</g>
<!-- Node7 -->
<g id="Node000007" class="node">
<title>Node7</title>
<g id="a_Node000007"><a xlink:href="namespaceproblem__setup.html#a021c61bf44d7c968582474d32605a1ad" target="_top" xlink:title=" ">
<polygon fill="white" stroke="#666666" points="130,-431.55 9,-431.55 9,-401.55 130,-401.55 130,-431.55"/>
<text text-anchor="start" x="17" y="-419.55" font-family="Arial" font-size="10.00">problem_setup.generate</text>
<text text-anchor="middle" x="69.5" y="-408.55" font-family="Arial" font-size="10.00">_wall_gmsh_input</text>
</a>
</g>
</g>
<!-- Node2&#45;&gt;Node7 -->
<g id="edge20_Node000002_Node000007" class="edge">
<title>Node2&#45;&gt;Node7</title>
<g id="a_edge20_Node000002_Node000007"><a xlink:title=" ">
<path fill="none" stroke="#63b8ff" d="M441.29,-279.49C429.51,-312.88 403.57,-371 359,-397.55 289.04,-439.25 191.87,-435.72 130.09,-427.55"/>
<polygon fill="#63b8ff" stroke="#63b8ff" points="444.75,-280.18 444.63,-269.59 438.12,-277.95 444.75,-280.18"/>
</a>
</g>
</g>
<!-- Node2&#45;&gt;Node8 -->
<g id="edge11_Node000002_Node000008" class="edge">
<title>Node2&#45;&gt;Node8</title>
<g id="a_edge11_Node000002_Node000008"><a xlink:title=" ">
<path fill="none" stroke="#63b8ff" d="M428.74,-232.01C411.5,-213.77 385.39,-188.28 359,-170.55 357.55,-169.58 178.76,-87.34 103.4,-52.68"/>
<polygon fill="#63b8ff" stroke="#63b8ff" points="426.19,-234.41 435.57,-239.34 431.32,-229.64 426.19,-234.41"/>
</a>
</g>
</g>
<!-- Node2&#45;&gt;Node9 -->
<g id="edge13_Node000002_Node000009" class="edge">
<title>Node2&#45;&gt;Node9</title>
<g id="a_edge13_Node000002_Node000009"><a xlink:title=" ">
<path fill="none" stroke="#63b8ff" d="M433.71,-230.75C416.63,-204.75 387.6,-162.32 359,-128.55 337.34,-102.98 309.82,-76.14 290.74,-58.29"/>
<polygon fill="#63b8ff" stroke="#63b8ff" points="430.84,-232.75 439.23,-239.22 436.7,-228.93 430.84,-232.75"/>
</a>
</g>
</g>
<!-- Node2&#45;&gt;Node10 -->
<g id="edge16_Node000002_Node000010" class="edge">
<title>Node2&#45;&gt;Node10</title>
<g id="a_edge16_Node000002_Node000010"><a xlink:title=" ">
<path fill="none" stroke="#63b8ff" d="M439.17,-279.24C421.5,-322.51 383.9,-409.44 359,-430.55 350.02,-438.17 339.02,-443.79 327.82,-447.94"/>
<polygon fill="#63b8ff" stroke="#63b8ff" points="442.51,-280.32 443.01,-269.74 436.02,-277.69 442.51,-280.32"/>
</a>
</g>
</g>
<!-- Node2&#45;&gt;Node11 -->
<g id="edge21_Node000002_Node000011" class="edge">
<title>Node2&#45;&gt;Node11</title>
<g id="a_edge21_Node000002_Node000011"><a xlink:title=" ">
<path fill="none" stroke="#63b8ff" d="M421.99,-233.25C404.95,-221.07 381.89,-206.82 359,-199.55 281.37,-174.93 186.25,-173.89 127,-176.43"/>
<polygon fill="#63b8ff" stroke="#63b8ff" points="420.2,-236.27 430.32,-239.38 424.34,-230.63 420.2,-236.27"/>
</a>
</g>
</g>
<!-- Node3&#45;&gt;Node3 -->
<g id="edge3_Node000003_Node000003" class="edge">
<title>Node3&#45;&gt;Node3</title>
<g id="a_edge3_Node000003_Node000003"><a xlink:title=" ">
<path fill="none" stroke="#63b8ff" d="M298.86,-315.15C294.5,-319.53 283.88,-322.55 267,-322.55 238.56,-322.55 227.9,-313.96 235.01,-304.83"/>
<polygon fill="#63b8ff" stroke="#63b8ff" points="302.36,-314.88 298.99,-304.83 295.36,-314.78 302.36,-314.88"/>
</a>
</g>
</g>
<!-- Node4&#45;&gt;Node4 -->
<g id="edge5_Node000004_Node000004" class="edge">
<title>Node4&#45;&gt;Node4</title>
<g id="a_edge5_Node000004_Node000004"><a xlink:title=" ">
<path fill="none" stroke="#63b8ff" d="M298.86,-551.15C294.5,-555.53 283.88,-558.55 267,-558.55 238.56,-558.55 227.9,-549.96 235.01,-540.83"/>
<polygon fill="#63b8ff" stroke="#63b8ff" points="302.36,-550.88 298.99,-540.83 295.36,-550.78 302.36,-550.88"/>
</a>
</g>
</g>
<!-- Node5&#45;&gt;Node5 -->
<g id="edge7_Node000005_Node000005" class="edge">
<title>Node5&#45;&gt;Node5</title>
<g id="a_edge7_Node000005_Node000005"><a xlink:title=" ">
<path fill="none" stroke="#63b8ff" d="M298.86,-249.15C294.5,-253.53 283.88,-256.55 267,-256.55 238.56,-256.55 227.9,-247.96 235.01,-238.83"/>
<polygon fill="#63b8ff" stroke="#63b8ff" points="302.36,-248.88 298.99,-238.83 295.36,-248.78 302.36,-248.88"/>
</a>
</g>
</g>
<!-- Node6&#45;&gt;Node6 -->
<g id="edge9_Node000006_Node000006" class="edge">
<title>Node6&#45;&gt;Node6</title>
<g id="a_edge9_Node000006_Node000006"><a xlink:title=" ">
<path fill="none" stroke="#63b8ff" d="M298.86,-381.15C294.5,-385.53 283.88,-388.55 267,-388.55 238.56,-388.55 227.9,-379.96 235.01,-370.83"/>
<polygon fill="#63b8ff" stroke="#63b8ff" points="302.36,-380.88 298.99,-370.83 295.36,-380.78 302.36,-380.88"/>
</a>
</g>
</g>
<!-- Node6&#45;&gt;Node7 -->
<g id="edge10_Node000006_Node000007" class="edge">
<title>Node6&#45;&gt;Node7</title>
<g id="a_edge10_Node000006_Node000007"><a xlink:title=" ">
<path fill="none" stroke="#63b8ff" d="M208.11,-373.62C179.65,-382.5 145.76,-393.07 118.73,-401.51"/>
<polygon fill="#63b8ff" stroke="#63b8ff" points="209.42,-376.87 217.92,-370.56 207.34,-370.19 209.42,-376.87"/>
</a>
</g>
</g>
<!-- Node8&#45;&gt;Node8 -->
<g id="edge12_Node000008_Node000008" class="edge">
<title>Node8&#45;&gt;Node8</title>
<g id="a_edge12_Node000008_Node000008"><a xlink:title=" ">
<path fill="none" stroke="#63b8ff" d="M103.81,-63.15C99.12,-67.53 87.68,-70.55 69.5,-70.55 38.88,-70.55 27.39,-61.96 35.05,-52.83"/>
<polygon fill="#63b8ff" stroke="#63b8ff" points="107.31,-62.88 103.95,-52.83 100.31,-62.78 107.31,-62.88"/>
</a>
</g>
</g>
<!-- Node9&#45;&gt;Node8 -->
<g id="edge14_Node000009_Node000008" class="edge">
<title>Node9&#45;&gt;Node8</title>
<g id="a_edge14_Node000009_Node000008"><a xlink:title=" ">
<path fill="none" stroke="#63b8ff" d="M164.65,-37.55C155.98,-37.55 147.35,-37.55 139.03,-37.55"/>
<polygon fill="#63b8ff" stroke="#63b8ff" points="164.83,-41.05 174.83,-37.55 164.83,-34.05 164.83,-41.05"/>
</a>
</g>
</g>
<!-- Node9&#45;&gt;Node9 -->
<g id="edge15_Node000009_Node000009" class="edge">
<title>Node9&#45;&gt;Node9</title>
<g id="a_edge15_Node000009_Node000009"><a xlink:title=" ">
<path fill="none" stroke="#63b8ff" d="M298.31,-68.02C293.66,-72.79 283.22,-76.05 267,-76.05 241.05,-76.05 229.9,-67.71 233.55,-58.15"/>
<polygon fill="#63b8ff" stroke="#63b8ff" points="301.75,-68.67 300.45,-58.15 294.91,-67.18 301.75,-68.67"/>
</a>
</g>
</g>
<!-- Node10&#45;&gt;Node7 -->
<g id="edge18_Node000010_Node000007" class="edge">
<title>Node10&#45;&gt;Node7</title>
<g id="a_edge18_Node000010_Node000007"><a xlink:title=" ">
<path fill="none" stroke="#63b8ff" d="M196.49,-444.26C174.82,-439.5 151.12,-434.29 130.19,-429.68"/>
<polygon fill="#63b8ff" stroke="#63b8ff" points="195.76,-447.69 206.28,-446.42 197.27,-440.85 195.76,-447.69"/>
</a>
</g>
</g>
<!-- Node10&#45;&gt;Node10 -->
<g id="edge17_Node000010_Node000010" class="edge">
<title>Node10&#45;&gt;Node10</title>
<g id="a_edge17_Node000010_Node000010"><a xlink:title=" ">
<path fill="none" stroke="#63b8ff" d="M298.86,-485.15C294.5,-489.53 283.88,-492.55 267,-492.55 238.56,-492.55 227.9,-483.96 235.01,-474.83"/>
<polygon fill="#63b8ff" stroke="#63b8ff" points="302.36,-484.88 298.99,-474.83 295.36,-484.78 302.36,-484.88"/>
</a>
</g>
</g>
<!-- Node10&#45;&gt;Node11 -->
<g id="edge19_Node000010_Node000011" class="edge">
<title>Node10&#45;&gt;Node11</title>
<g id="a_edge19_Node000010_Node000011"><a xlink:title=" ">
<path fill="none" stroke="#63b8ff" d="M227.02,-439.24C209.44,-428.62 189.44,-414.33 175,-397.55 119.35,-332.91 86.03,-233.49 74.79,-195.78"/>
<polygon fill="#63b8ff" stroke="#63b8ff" points="225.54,-442.43 235.94,-444.45 229.07,-436.38 225.54,-442.43"/>
</a>
</g>
</g>
</g>
</svg>
