<?xml version="1.0" encoding="UTF-8" standalone="no"?>
<!DOCTYPE svg PUBLIC "-//W3C//DTD SVG 1.1//EN"
 "http://www.w3.org/Graphics/SVG/1.1/DTD/svg11.dtd">
<!-- Generated by graphviz version 2.43.0 (0)
 -->
<!-- Title: material::computeStateMx Pages: 1 -->
<svg width="414pt" height="96pt"
 viewBox="0.00 0.00 414.00 96.00" xmlns="http://www.w3.org/2000/svg" xmlns:xlink="http://www.w3.org/1999/xlink">
<g id="graph0" class="graph" transform="scale(1 1) rotate(0) translate(4 92)">
<title>material::computeStateMx</title>
<!-- Node1 -->
<g id="node1" class="node">
<title>Node1</title>
<g id="a_node1"><a xlink:title="Computes the moment &#160;term in state&#45;based peridynamic formulation.">
<polygon fill="#bfbfbf" stroke="black" points="0,-24.5 0,-43.5 131,-43.5 131,-24.5 0,-24.5"/>
<text text-anchor="middle" x="65.5" y="-31.5" font-family="Arial" font-size="10.00">material::computeStateMx</text>
</a>
</g>
</g>
<!-- Node2 -->
<g id="node2" class="node">
<title>Node2</title>
<g id="a_node2"><a xlink:href="namespaceanonymous__namespace_02materialUtil_8cpp_03.html#ac85a6f4a272ce35fea412770e2a94f4f" target="_top" xlink:title=" ">
<polygon fill="none" stroke="black" points="170,-38.5 170,-79.5 292,-79.5 292,-38.5 170,-38.5"/>
<text text-anchor="start" x="178" y="-67.5" font-family="Arial" font-size="10.00">anonymous_namespace</text>
<text text-anchor="start" x="178" y="-56.5" font-family="Arial" font-size="10.00">{materialUtil::cpp}</text>
<text text-anchor="middle" x="231" y="-45.5" font-family="Arial" font-size="10.00">::computeStateMxI</text>
</a>
</g>
</g>
<!-- Node1&#45;&gt;Node2 -->
<g id="edge1" class="edge">
<title>Node1&#45;&gt;Node2</title>
<path fill="none" stroke="midnightblue" d="M128.78,-43.52C138.86,-45.06 149.37,-46.67 159.63,-48.24"/>
<polygon fill="midnightblue" stroke="midnightblue" points="159.37,-51.74 169.78,-49.79 160.43,-44.82 159.37,-51.74"/>
</g>
<!-- Node5 -->
<g id="node5" class="node">
<title>Node5</title>
<g id="a_node5"><a xlink:href="namespaceutil_1_1parallel.html#a4ad550a438091fb9cd924783e690764d" target="_top" xlink:title="Get number of threads to be used by taskflow.">
<polygon fill="none" stroke="black" points="167,-0.5 167,-19.5 295,-19.5 295,-0.5 167,-0.5"/>
<text text-anchor="middle" x="231" y="-7.5" font-family="Arial" font-size="10.00">util::parallel::getNThreads</text>
</a>
</g>
</g>
<!-- Node1&#45;&gt;Node5 -->
<g id="edge4" class="edge">
<title>Node1&#45;&gt;Node5</title>
<path fill="none" stroke="midnightblue" d="M131.12,-24.51C139.59,-23.27 148.31,-21.99 156.91,-20.73"/>
<polygon fill="midnightblue" stroke="midnightblue" points="157.53,-24.18 166.92,-19.26 156.52,-17.25 157.53,-24.18"/>
</g>
<!-- Node3 -->
<g id="node3" class="node">
<title>Node3</title>
<g id="a_node3"><a xlink:href="namespaceutil.html#a227b5f8acbd7a403a033663c8893d631" target="_top" xlink:title="Returns true if a &gt; b.">
<polygon fill="none" stroke="black" points="331,-68.5 331,-87.5 406,-87.5 406,-68.5 331,-68.5"/>
<text text-anchor="middle" x="368.5" y="-75.5" font-family="Arial" font-size="10.00">util::isGreater</text>
</a>
</g>
</g>
<!-- Node2&#45;&gt;Node3 -->
<g id="edge2" class="edge">
<title>Node2&#45;&gt;Node3</title>
<path fill="none" stroke="midnightblue" d="M292.22,-67.44C301.77,-68.78 311.53,-70.15 320.71,-71.44"/>
<polygon fill="midnightblue" stroke="midnightblue" points="320.41,-74.93 330.8,-72.85 321.38,-68 320.41,-74.93"/>
</g>
<!-- Node4 -->
<g id="node4" class="node">
<title>Node4</title>
<g id="a_node4"><a xlink:href="namespaceutil.html#a868a26599b6b844d08d30063ac898319" target="_top" xlink:title="Returns true if a &lt; b.">
<polygon fill="none" stroke="black" points="336.5,-30.5 336.5,-49.5 400.5,-49.5 400.5,-30.5 336.5,-30.5"/>
<text text-anchor="middle" x="368.5" y="-37.5" font-family="Arial" font-size="10.00">util::isLess</text>
</a>
</g>
</g>
<!-- Node2&#45;&gt;Node4 -->
<g id="edge3" class="edge">
<title>Node2&#45;&gt;Node4</title>
<path fill="none" stroke="midnightblue" d="M292.22,-50.56C303.79,-48.93 315.66,-47.27 326.45,-45.76"/>
<polygon fill="midnightblue" stroke="midnightblue" points="327,-49.21 336.42,-44.36 326.03,-42.28 327,-49.21"/>
</g>
</g>
</svg>
