<?xml version="1.0" encoding="UTF-8" standalone="no"?>
<!DOCTYPE svg PUBLIC "-//W3C//DTD SVG 1.1//EN"
 "http://www.w3.org/Graphics/SVG/1.1/DTD/svg11.dtd">
<!-- Generated by graphviz version 2.43.0 (0)
 -->
<!-- Title: util.print_list Pages: 1 -->
<svg width="383pt" height="261pt"
 viewBox="0.00 0.00 383.00 260.50" xmlns="http://www.w3.org/2000/svg" xmlns:xlink="http://www.w3.org/1999/xlink">
<g id="graph0" class="graph" transform="scale(1 1) rotate(0) translate(4 256.5)">
<title>util.print_list</title>
<!-- Node1 -->
<g id="Node000001" class="node">
<title>Node1</title>
<g id="a_Node000001"><a xlink:title=" ">
<polygon fill="#999999" stroke="#666666" points="375,-130 306,-130 306,-111 375,-111 375,-130"/>
<text text-anchor="middle" x="340.5" y="-118" font-family="Arial" font-size="10.00">util.print_list</text>
</a>
</g>
</g>
<!-- Node2 -->
<g id="Node000002" class="node">
<title>Node2</title>
<g id="a_Node000002"><a xlink:href="namespaceparticle__wall.html#abbfd5409a52d6d3895437e836f04ba1c" target="_top" xlink:title=" ">
<polygon fill="white" stroke="#666666" points="263,-252.5 158,-252.5 158,-222.5 263,-222.5 263,-252.5"/>
<text text-anchor="start" x="166" y="-240.5" font-family="Arial" font-size="10.00">particle_wall.particle</text>
<text text-anchor="middle" x="210.5" y="-229.5" font-family="Arial" font-size="10.00">_locations</text>
</a>
</g>
</g>
<!-- Node1&#45;&gt;Node2 -->
<g id="edge1_Node000001_Node000002" class="edge">
<title>Node1&#45;&gt;Node2</title>
<g id="a_edge1_Node000001_Node000002"><a xlink:title=" ">
<path fill="none" stroke="#63b8ff" d="M329.73,-139.03C318.01,-159.7 296.56,-192.92 270,-213.5 265.66,-216.86 260.79,-219.83 255.75,-222.42"/>
<polygon fill="#63b8ff" stroke="#63b8ff" points="332.94,-140.46 334.68,-130.01 326.8,-137.09 332.94,-140.46"/>
</a>
</g>
</g>
<!-- Node3 -->
<g id="Node000003" class="node">
<title>Node3</title>
<g id="a_Node000003"><a xlink:href="namespaceutil.html#a5ba01a5b0683418f56f4494f40e6dd90" target="_top" xlink:title=" ">
<polygon fill="white" stroke="#666666" points="258.5,-204 162.5,-204 162.5,-185 258.5,-185 258.5,-204"/>
<text text-anchor="middle" x="210.5" y="-192" font-family="Arial" font-size="10.00">util.print_cir_gmsh</text>
</a>
</g>
</g>
<!-- Node1&#45;&gt;Node3 -->
<g id="edge2_Node000001_Node000003" class="edge">
<title>Node1&#45;&gt;Node3</title>
<g id="a_edge2_Node000001_Node000003"><a xlink:title=" ">
<path fill="none" stroke="#63b8ff" d="M322.57,-137.24C309.26,-149.6 289.72,-166.02 270,-176.5 263.81,-179.79 256.92,-182.58 250.11,-184.91"/>
<polygon fill="#63b8ff" stroke="#63b8ff" points="325.18,-139.59 330,-130.16 320.35,-134.53 325.18,-139.59"/>
</a>
</g>
</g>
<!-- Node5 -->
<g id="Node000005" class="node">
<title>Node5</title>
<g id="a_Node000005"><a xlink:href="namespaceutil.html#a9e9a1fb954aa9e37391b57a7c5e4c739" target="_top" xlink:title=" ">
<polygon fill="white" stroke="#666666" points="254,-56 167,-56 167,-37 254,-37 254,-56"/>
<text text-anchor="middle" x="210.5" y="-44" font-family="Arial" font-size="10.00">util.print_dbl_list</text>
</a>
</g>
</g>
<!-- Node1&#45;&gt;Node5 -->
<g id="edge4_Node000001_Node000005" class="edge">
<title>Node1&#45;&gt;Node5</title>
<g id="a_edge4_Node000001_Node000005"><a xlink:title=" ">
<path fill="none" stroke="#63b8ff" d="M322.57,-103.76C309.26,-91.4 289.72,-74.98 270,-64.5 263.81,-61.21 256.92,-58.42 250.11,-56.09"/>
<polygon fill="#63b8ff" stroke="#63b8ff" points="320.35,-106.47 330,-110.84 325.18,-101.41 320.35,-106.47"/>
</a>
</g>
</g>
<!-- Node6 -->
<g id="Node000006" class="node">
<title>Node6</title>
<g id="a_Node000006"><a xlink:href="namespaceutil.html#a0fb244b180f7a3ae3bc4276569f6255f" target="_top" xlink:title=" ">
<polygon fill="white" stroke="#666666" points="253,-19 168,-19 168,0 253,0 253,-19"/>
<text text-anchor="middle" x="210.5" y="-7" font-family="Arial" font-size="10.00">util.print_int_list</text>
</a>
</g>
</g>
<!-- Node1&#45;&gt;Node6 -->
<g id="edge5_Node000001_Node000006" class="edge">
<title>Node1&#45;&gt;Node6</title>
<g id="a_edge5_Node000001_Node000006"><a xlink:title=" ">
<path fill="none" stroke="#63b8ff" d="M330.22,-101.8C318.83,-80.75 297.6,-46.94 270,-27.5 264.87,-23.89 259,-20.99 253.01,-18.66"/>
<polygon fill="#63b8ff" stroke="#63b8ff" points="327.15,-103.49 334.87,-110.74 333.35,-100.25 327.15,-103.49"/>
</a>
</g>
</g>
<!-- Node7 -->
<g id="Node000007" class="node">
<title>Node7</title>
<g id="a_Node000007"><a xlink:href="namespaceutil.html#a030bf07c9f1c34efa9a2543854fa35d0" target="_top" xlink:title=" ">
<polygon fill="white" stroke="#666666" points="261,-93 160,-93 160,-74 261,-74 261,-93"/>
<text text-anchor="middle" x="210.5" y="-81" font-family="Arial" font-size="10.00">util.print_line_gmsh</text>
</a>
</g>
</g>
<!-- Node1&#45;&gt;Node7 -->
<g id="edge6_Node000001_Node000007" class="edge">
<title>Node1&#45;&gt;Node7</title>
<g id="a_edge6_Node000001_Node000007"><a xlink:title=" ">
<path fill="none" stroke="#63b8ff" d="M296.86,-108.17C279.91,-103.27 260.69,-97.72 244.8,-93.12"/>
<polygon fill="#63b8ff" stroke="#63b8ff" points="295.96,-111.56 306.54,-110.97 297.9,-104.83 295.96,-111.56"/>
</a>
</g>
</g>
<!-- Node11 -->
<g id="Node000011" class="node">
<title>Node11</title>
<g id="a_Node000011"><a xlink:href="namespaceutil.html#ad330a2711f9cfe26b62874d934d7a299" target="_top" xlink:title=" ">
<polygon fill="white" stroke="#666666" points="270,-130 151,-130 151,-111 270,-111 270,-130"/>
<text text-anchor="middle" x="210.5" y="-118" font-family="Arial" font-size="10.00">util.print_lineloop_gmsh</text>
</a>
</g>
</g>
<!-- Node1&#45;&gt;Node11 -->
<g id="edge10_Node000001_Node000011" class="edge">
<title>Node1&#45;&gt;Node11</title>
<g id="a_edge10_Node000001_Node000011"><a xlink:title=" ">
<path fill="none" stroke="#63b8ff" d="M295.74,-120.5C287.5,-120.5 278.76,-120.5 270.15,-120.5"/>
<polygon fill="#63b8ff" stroke="#63b8ff" points="295.87,-124 305.87,-120.5 295.87,-117 295.87,-124"/>
</a>
</g>
</g>
<!-- Node12 -->
<g id="Node000012" class="node">
<title>Node12</title>
<g id="a_Node000012"><a xlink:href="namespaceutil.html#a19a2805176f8a96585bbec20c405765e" target="_top" xlink:title=" ">
<polygon fill="white" stroke="#666666" points="264,-167 157,-167 157,-148 264,-148 264,-167"/>
<text text-anchor="middle" x="210.5" y="-155" font-family="Arial" font-size="10.00">util.print_point_gmsh</text>
</a>
</g>
</g>
<!-- Node1&#45;&gt;Node12 -->
<g id="edge15_Node000001_Node000012" class="edge">
<title>Node1&#45;&gt;Node12</title>
<g id="a_edge15_Node000001_Node000012"><a xlink:title=" ">
<path fill="none" stroke="#63b8ff" d="M296.86,-132.83C279.91,-137.73 260.69,-143.28 244.8,-147.88"/>
<polygon fill="#63b8ff" stroke="#63b8ff" points="297.9,-136.17 306.54,-130.03 295.96,-129.44 297.9,-136.17"/>
</a>
</g>
</g>
<!-- Node4 -->
<g id="Node000004" class="node">
<title>Node4</title>
<g id="a_Node000004"><a xlink:href="namespaceutil.html#a9f5c4de5098b9f42a85fb2918df931bd" target="_top" xlink:title=" ">
<polygon fill="white" stroke="#666666" points="106.5,-214.5 8.5,-214.5 8.5,-184.5 106.5,-184.5 106.5,-214.5"/>
<text text-anchor="start" x="16.5" y="-202.5" font-family="Arial" font-size="10.00">util.generate_circle</text>
<text text-anchor="middle" x="57.5" y="-191.5" font-family="Arial" font-size="10.00">_gmsh_input</text>
</a>
</g>
</g>
<!-- Node3&#45;&gt;Node4 -->
<g id="edge3_Node000003_Node000004" class="edge">
<title>Node3&#45;&gt;Node4</title>
<g id="a_edge3_Node000003_Node000004"><a xlink:title=" ">
<path fill="none" stroke="#63b8ff" d="M151.99,-196.4C137.06,-196.9 121.13,-197.43 106.73,-197.9"/>
<polygon fill="#63b8ff" stroke="#63b8ff" points="152.26,-199.9 162.14,-196.07 152.03,-192.9 152.26,-199.9"/>
</a>
</g>
</g>
<!-- Node8 -->
<g id="Node000008" class="node">
<title>Node8</title>
<g id="a_Node000008"><a xlink:href="namespaceutil.html#afb3aed715d268f29ca19de6dafa84389" target="_top" xlink:title=" ">
<polygon fill="white" stroke="#666666" points="106,-166.5 9,-166.5 9,-136.5 106,-136.5 106,-166.5"/>
<text text-anchor="start" x="17" y="-154.5" font-family="Arial" font-size="10.00">util.generate_drum</text>
<text text-anchor="middle" x="57.5" y="-143.5" font-family="Arial" font-size="10.00">_gmsh_input</text>
</a>
</g>
</g>
<!-- Node7&#45;&gt;Node8 -->
<g id="edge7_Node000007_Node000008" class="edge">
<title>Node7&#45;&gt;Node8</title>
<g id="a_edge7_Node000007_Node000008"><a xlink:title=" ">
<path fill="none" stroke="#63b8ff" d="M162.27,-96.54C158.39,-98.06 154.59,-99.71 151,-101.5 133.33,-110.3 132.19,-117.8 115,-127.5 109.34,-130.69 103.17,-133.73 97.05,-136.5"/>
<polygon fill="#63b8ff" stroke="#63b8ff" points="163.74,-99.73 171.97,-93.05 161.37,-93.15 163.74,-99.73"/>
</a>
</g>
</g>
<!-- Node9 -->
<g id="Node000009" class="node">
<title>Node9</title>
<g id="a_Node000009"><a xlink:href="namespaceutil.html#a9f86631e8894112cf4f102929af2cfae" target="_top" xlink:title=" ">
<polygon fill="white" stroke="#666666" points="113.5,-118.5 1.5,-118.5 1.5,-88.5 113.5,-88.5 113.5,-118.5"/>
<text text-anchor="start" x="9.5" y="-106.5" font-family="Arial" font-size="10.00">util.generate_hexagon</text>
<text text-anchor="middle" x="57.5" y="-95.5" font-family="Arial" font-size="10.00">_gmsh_input</text>
</a>
</g>
</g>
<!-- Node7&#45;&gt;Node9 -->
<g id="edge8_Node000007_Node000009" class="edge">
<title>Node7&#45;&gt;Node9</title>
<g id="a_edge8_Node000007_Node000009"><a xlink:title=" ">
<path fill="none" stroke="#63b8ff" d="M149.4,-91.46C137.55,-93.03 125.18,-94.67 113.52,-96.21"/>
<polygon fill="#63b8ff" stroke="#63b8ff" points="150.18,-94.89 159.64,-90.1 149.27,-87.95 150.18,-94.89"/>
</a>
</g>
</g>
<!-- Node10 -->
<g id="Node000010" class="node">
<title>Node10</title>
<g id="a_Node000010"><a xlink:href="namespaceutil.html#a02c320c87fe2955378297463779e343c" target="_top" xlink:title=" ">
<polygon fill="white" stroke="#666666" points="115,-70.5 0,-70.5 0,-40.5 115,-40.5 115,-70.5"/>
<text text-anchor="start" x="8" y="-58.5" font-family="Arial" font-size="10.00">util.generate_rectangle</text>
<text text-anchor="middle" x="57.5" y="-47.5" font-family="Arial" font-size="10.00">_gmsh_input</text>
</a>
</g>
</g>
<!-- Node7&#45;&gt;Node10 -->
<g id="edge9_Node000007_Node000010" class="edge">
<title>Node7&#45;&gt;Node10</title>
<g id="a_edge9_Node000007_Node000010"><a xlink:title=" ">
<path fill="none" stroke="#63b8ff" d="M149.76,-72.42C138.34,-70.31 126.42,-68.09 115.1,-66"/>
<polygon fill="#63b8ff" stroke="#63b8ff" points="149.17,-75.87 159.64,-74.25 150.44,-68.99 149.17,-75.87"/>
</a>
</g>
</g>
<!-- Node11&#45;&gt;Node4 -->
<g id="edge11_Node000011_Node000004" class="edge">
<title>Node11&#45;&gt;Node4</title>
<g id="a_edge11_Node000011_Node000004"><a xlink:title=" ">
<path fill="none" stroke="#63b8ff" d="M161.77,-133.87C158.02,-135.55 154.39,-137.43 151,-139.5 131.71,-151.32 133.76,-162.84 115,-175.5 110.14,-178.78 104.76,-181.76 99.31,-184.41"/>
<polygon fill="#63b8ff" stroke="#63b8ff" points="163.25,-137.04 171.21,-130.05 160.62,-130.55 163.25,-137.04"/>
</a>
</g>
</g>
<!-- Node11&#45;&gt;Node8 -->
<g id="edge12_Node000011_Node000008" class="edge">
<title>Node11&#45;&gt;Node8</title>
<g id="a_edge12_Node000011_Node000008"><a xlink:title=" ">
<path fill="none" stroke="#63b8ff" d="M153.02,-132.09C137.61,-135.26 121.06,-138.66 106.19,-141.71"/>
<polygon fill="#63b8ff" stroke="#63b8ff" points="153.87,-135.49 162.96,-130.05 152.46,-128.64 153.87,-135.49"/>
</a>
</g>
</g>
<!-- Node11&#45;&gt;Node9 -->
<g id="edge13_Node000011_Node000009" class="edge">
<title>Node11&#45;&gt;Node9</title>
<g id="a_edge13_Node000011_Node000009"><a xlink:title=" ">
<path fill="none" stroke="#63b8ff" d="M140.66,-112.75C131.71,-111.74 122.63,-110.72 113.94,-109.74"/>
<polygon fill="#63b8ff" stroke="#63b8ff" points="140.36,-116.24 150.69,-113.88 141.14,-109.28 140.36,-116.24"/>
</a>
</g>
</g>
<!-- Node11&#45;&gt;Node10 -->
<g id="edge14_Node000011_Node000010" class="edge">
<title>Node11&#45;&gt;Node10</title>
<g id="a_edge14_Node000011_Node000010"><a xlink:title=" ">
<path fill="none" stroke="#63b8ff" d="M165.85,-107.58C160.78,-105.71 155.73,-103.68 151,-101.5 133.97,-93.66 131.67,-88.08 115,-79.5 109.03,-76.43 102.58,-73.42 96.24,-70.62"/>
<polygon fill="#63b8ff" stroke="#63b8ff" points="164.98,-110.98 175.57,-110.97 167.28,-104.37 164.98,-110.98"/>
</a>
</g>
</g>
<!-- Node12&#45;&gt;Node4 -->
<g id="edge16_Node000012_Node000004" class="edge">
<title>Node12&#45;&gt;Node4</title>
<g id="a_edge16_Node000012_Node000004"><a xlink:title=" ">
<path fill="none" stroke="#63b8ff" d="M165.35,-169.78C146.93,-174.9 125.48,-180.87 106.65,-186.11"/>
<polygon fill="#63b8ff" stroke="#63b8ff" points="166.54,-173.08 175.24,-167.03 164.66,-166.34 166.54,-173.08"/>
</a>
</g>
</g>
<!-- Node12&#45;&gt;Node8 -->
<g id="edge17_Node000012_Node000008" class="edge">
<title>Node12&#45;&gt;Node8</title>
<g id="a_edge17_Node000012_Node000008"><a xlink:title=" ">
<path fill="none" stroke="#63b8ff" d="M146.57,-155C133.17,-154.47 119.22,-153.91 106.48,-153.41"/>
<polygon fill="#63b8ff" stroke="#63b8ff" points="146.56,-158.5 156.69,-155.4 146.83,-151.51 146.56,-158.5"/>
</a>
</g>
</g>
<!-- Node12&#45;&gt;Node9 -->
<g id="edge18_Node000012_Node000009" class="edge">
<title>Node12&#45;&gt;Node9</title>
<g id="a_edge18_Node000012_Node000009"><a xlink:title=" ">
<path fill="none" stroke="#63b8ff" d="M167.16,-144.87C161.7,-143.13 156.21,-141.31 151,-139.5 132.61,-133.1 112.43,-125.34 95.63,-118.66"/>
<polygon fill="#63b8ff" stroke="#63b8ff" points="166.28,-148.27 176.87,-147.92 168.38,-141.59 166.28,-148.27"/>
</a>
</g>
</g>
<!-- Node12&#45;&gt;Node10 -->
<g id="edge19_Node000012_Node000010" class="edge">
<title>Node12&#45;&gt;Node10</title>
<g id="a_edge19_Node000012_Node000010"><a xlink:title=" ">
<path fill="none" stroke="#63b8ff" d="M156.59,-143.34C154.64,-142.16 152.77,-140.88 151,-139.5 126.52,-120.32 138.46,-99.91 115,-79.5 111.14,-76.14 106.74,-73.2 102.14,-70.64"/>
<polygon fill="#63b8ff" stroke="#63b8ff" points="155.05,-146.49 165.55,-147.92 158.23,-140.25 155.05,-146.49"/>
</a>
</g>
</g>
</g>
</svg>
