<?xml version="1.0" encoding="UTF-8" standalone="no"?>
<!DOCTYPE svg PUBLIC "-//W3C//DTD SVG 1.1//EN"
 "http://www.w3.org/Graphics/SVG/1.1/DTD/svg11.dtd">
<!-- Generated by graphviz version 2.43.0 (0)
 -->
<!-- Title: problem_setup.rotate Pages: 1 -->
<svg width="911pt" height="216pt"
 viewBox="0.00 0.00 911.00 215.69" xmlns="http://www.w3.org/2000/svg" xmlns:xlink="http://www.w3.org/1999/xlink">
<g id="graph0" class="graph" transform="scale(1 1) rotate(0) translate(4 211.69)">
<title>problem_setup.rotate</title>
<!-- Node1 -->
<g id="node1" class="node">
<title>Node1</title>
<g id="a_node1"><a xlink:title=" ">
<polygon fill="#bfbfbf" stroke="black" points="795,-105.69 795,-124.69 903,-124.69 903,-105.69 795,-105.69"/>
<text text-anchor="middle" x="849" y="-112.69" font-family="Arial" font-size="10.00">problem_setup.rotate</text>
</a>
</g>
</g>
<!-- Node2 -->
<g id="node2" class="node">
<title>Node2</title>
<g id="a_node2"><a xlink:href="namespaceproblem__setup.html#a700be09e5b12da02f5d11c0d21cf5d5b" target="_top" xlink:title=" ">
<polygon fill="none" stroke="black" points="330,-177.19 330,-207.19 443,-207.19 443,-177.19 330,-177.19"/>
<text text-anchor="start" x="338" y="-195.19" font-family="Arial" font-size="10.00">problem_setup.get_ref</text>
<text text-anchor="middle" x="386.5" y="-184.19" font-family="Arial" font-size="10.00">_drum_points</text>
</a>
</g>
</g>
<!-- Node1&#45;&gt;Node2 -->
<g id="edge1" class="edge">
<title>Node1&#45;&gt;Node2</title>
<path fill="none" stroke="midnightblue" d="M808.13,-127.63C792.87,-132.06 775.24,-136.79 759,-140.19 648.09,-163.42 516.32,-179.09 443.29,-186.75"/>
<polygon fill="midnightblue" stroke="midnightblue" points="809.17,-130.97 817.77,-124.77 807.19,-124.25 809.17,-130.97"/>
</g>
<!-- Node5 -->
<g id="node5" class="node">
<title>Node5</title>
<g id="a_node5"><a xlink:href="namespaceproblem__setup.html#a8e552b0e3bb3bde7c390d6906dbe88cd" target="_top" xlink:title=" ">
<polygon fill="none" stroke="black" points="646,-100.19 646,-130.19 759,-130.19 759,-100.19 646,-100.19"/>
<text text-anchor="start" x="654" y="-118.19" font-family="Arial" font-size="10.00">problem_setup.get_ref</text>
<text text-anchor="middle" x="702.5" y="-107.19" font-family="Arial" font-size="10.00">_hex_points</text>
</a>
</g>
</g>
<!-- Node1&#45;&gt;Node5 -->
<g id="edge4" class="edge">
<title>Node1&#45;&gt;Node5</title>
<path fill="none" stroke="midnightblue" d="M784.42,-115.19C775.98,-115.19 767.39,-115.19 759.1,-115.19"/>
<polygon fill="midnightblue" stroke="midnightblue" points="784.6,-118.69 794.6,-115.19 784.6,-111.69 784.6,-118.69"/>
</g>
<!-- Node11 -->
<g id="node11" class="node">
<title>Node11</title>
<g id="a_node11"><a xlink:href="namespaceproblem__setup.html#a2b643803a88f4dba1de3a039bcf58fe2" target="_top" xlink:title=" ">
<polygon fill="none" stroke="black" points="329,-40.19 329,-70.19 444,-70.19 444,-40.19 329,-40.19"/>
<text text-anchor="start" x="337" y="-58.19" font-family="Arial" font-size="10.00">problem_setup.particle</text>
<text text-anchor="middle" x="386.5" y="-47.19" font-family="Arial" font-size="10.00">_locations_orient</text>
</a>
</g>
</g>
<!-- Node1&#45;&gt;Node11 -->
<g id="edge15" class="edge">
<title>Node1&#45;&gt;Node11</title>
<path fill="none" stroke="midnightblue" d="M809.29,-102.68C793.8,-98.1 775.7,-93.29 759,-90.19 648.66,-69.67 517.52,-60.89 444.27,-57.36"/>
<polygon fill="midnightblue" stroke="midnightblue" points="808.46,-106.09 819.05,-105.63 810.49,-99.39 808.46,-106.09"/>
</g>
<!-- Node3 -->
<g id="node3" class="node">
<title>Node3</title>
<g id="a_node3"><a xlink:href="namespaceproblem__setup.html#aff5393227de056de45cfc082e05af1ca" target="_top" xlink:title=" ">
<polygon fill="none" stroke="black" points="157,-138.19 157,-168.19 293,-168.19 293,-138.19 157,-138.19"/>
<text text-anchor="start" x="165" y="-156.19" font-family="Arial" font-size="10.00">problem_setup.generate</text>
<text text-anchor="middle" x="225" y="-145.19" font-family="Arial" font-size="10.00">_drum_particle_gmsh_input</text>
</a>
</g>
</g>
<!-- Node2&#45;&gt;Node3 -->
<g id="edge2" class="edge">
<title>Node2&#45;&gt;Node3</title>
<path fill="none" stroke="midnightblue" d="M319.97,-176.16C309.22,-173.54 298.11,-170.82 287.47,-168.22"/>
<polygon fill="midnightblue" stroke="midnightblue" points="319.17,-179.57 329.71,-178.55 320.83,-172.77 319.17,-179.57"/>
</g>
<!-- Node4 -->
<g id="node4" class="node">
<title>Node4</title>
<g id="a_node4"><a xlink:href="namespaceproblem__setup.html#a94bf8e7f89d392c05bd34dfd6a513675" target="_top" xlink:title=" ">
<polygon fill="none" stroke="black" points="0,-151.19 0,-181.19 121,-181.19 121,-151.19 0,-151.19"/>
<text text-anchor="start" x="8" y="-169.19" font-family="Arial" font-size="10.00">problem_setup.generate</text>
<text text-anchor="middle" x="60.5" y="-158.19" font-family="Arial" font-size="10.00">_particle_gmsh_input</text>
</a>
</g>
</g>
<!-- Node2&#45;&gt;Node4 -->
<g id="edge3" class="edge">
<title>Node2&#45;&gt;Node4</title>
<path fill="none" stroke="midnightblue" d="M319.48,-189.26C273.8,-186.96 211.63,-183.29 157,-178.19 145.35,-177.1 132.94,-175.71 121.04,-174.27"/>
<polygon fill="midnightblue" stroke="midnightblue" points="319.39,-192.76 329.55,-189.76 319.73,-185.77 319.39,-192.76"/>
</g>
<!-- Node6 -->
<g id="node6" class="node">
<title>Node6</title>
<g id="a_node6"><a xlink:href="namespaceproblem__setup.html#a876a947fad9cf3729999101abe3e823f" target="_top" xlink:title=" ">
<polygon fill="none" stroke="black" points="480,-100.19 480,-130.19 610,-130.19 610,-100.19 480,-100.19"/>
<text text-anchor="start" x="488" y="-118.19" font-family="Arial" font-size="10.00">problem_setup.generate</text>
<text text-anchor="middle" x="545" y="-107.19" font-family="Arial" font-size="10.00">_hex_particle_gmsh_input</text>
</a>
</g>
</g>
<!-- Node5&#45;&gt;Node6 -->
<g id="edge5" class="edge">
<title>Node5&#45;&gt;Node6</title>
<path fill="none" stroke="midnightblue" d="M635.6,-115.19C627.13,-115.19 618.48,-115.19 610.04,-115.19"/>
<polygon fill="midnightblue" stroke="midnightblue" points="635.8,-118.69 645.8,-115.19 635.8,-111.69 635.8,-118.69"/>
</g>
<!-- Node6&#45;&gt;Node3 -->
<g id="edge14" class="edge">
<title>Node6&#45;&gt;Node3</title>
<path fill="none" stroke="midnightblue" d="M469.64,-124.98C461,-126.08 452.31,-127.17 444,-128.19 393.52,-134.36 336.4,-140.9 293.3,-145.74"/>
<polygon fill="midnightblue" stroke="midnightblue" points="470.26,-128.43 479.73,-123.69 469.37,-121.49 470.26,-128.43"/>
</g>
<!-- Node7 -->
<g id="node7" class="node">
<title>Node7</title>
<g id="a_node7"><a xlink:href="namespaceproblem__setup.html#a64e067098e447f766d042476ef5abe85" target="_top" xlink:title=" ">
<polygon fill="none" stroke="black" points="331.5,-89.19 331.5,-119.19 441.5,-119.19 441.5,-89.19 331.5,-89.19"/>
<text text-anchor="start" x="339.5" y="-107.19" font-family="Arial" font-size="10.00">problem_setup.create</text>
<text text-anchor="middle" x="386.5" y="-96.19" font-family="Arial" font-size="10.00">_input_file</text>
</a>
</g>
</g>
<!-- Node6&#45;&gt;Node7 -->
<g id="edge6" class="edge">
<title>Node6&#45;&gt;Node7</title>
<path fill="none" stroke="midnightblue" d="M469.72,-109.97C460.3,-109.31 450.79,-108.64 441.76,-108"/>
<polygon fill="midnightblue" stroke="midnightblue" points="469.67,-113.47 479.89,-110.68 470.16,-106.49 469.67,-113.47"/>
</g>
<!-- Node7&#45;&gt;Node3 -->
<g id="edge7" class="edge">
<title>Node7&#45;&gt;Node3</title>
<path fill="none" stroke="midnightblue" d="M326.54,-122.3C309.58,-127.51 291.28,-133.13 274.99,-138.14"/>
<polygon fill="midnightblue" stroke="midnightblue" points="327.81,-125.57 336.34,-119.29 325.76,-118.88 327.81,-125.57"/>
</g>
<!-- Node8 -->
<g id="node8" class="node">
<title>Node8</title>
<g id="a_node8"><a xlink:href="namespaceproblem__setup.html#a147f310ff74124342d15ab356739883f" target="_top" xlink:title=" ">
<polygon fill="none" stroke="black" points="164.5,-89.19 164.5,-119.19 285.5,-119.19 285.5,-89.19 164.5,-89.19"/>
<text text-anchor="start" x="172.5" y="-107.19" font-family="Arial" font-size="10.00">problem_setup.generate</text>
<text text-anchor="middle" x="225" y="-96.19" font-family="Arial" font-size="10.00">_particle_gmsh_input</text>
</a>
</g>
</g>
<!-- Node7&#45;&gt;Node8 -->
<g id="edge8" class="edge">
<title>Node7&#45;&gt;Node8</title>
<path fill="none" stroke="midnightblue" d="M320.95,-104.19C309.29,-104.19 297.18,-104.19 285.66,-104.19"/>
<polygon fill="midnightblue" stroke="midnightblue" points="321.06,-107.69 331.06,-104.19 321.06,-100.69 321.06,-107.69"/>
</g>
<!-- Node9 -->
<g id="node9" class="node">
<title>Node9</title>
<g id="a_node9"><a xlink:href="namespaceproblem__setup.html#af51753c1e02e9634827a449ab8729d44" target="_top" xlink:title=" ">
<polygon fill="none" stroke="black" points="0,-7.19 0,-37.19 121,-37.19 121,-7.19 0,-7.19"/>
<text text-anchor="start" x="8" y="-25.19" font-family="Arial" font-size="10.00">problem_setup.generate</text>
<text text-anchor="middle" x="60.5" y="-14.19" font-family="Arial" font-size="10.00">_wall_gmsh_input</text>
</a>
</g>
</g>
<!-- Node7&#45;&gt;Node9 -->
<g id="edge12" class="edge">
<title>Node7&#45;&gt;Node9</title>
<path fill="none" stroke="midnightblue" d="M337.2,-85.58C323.08,-80.51 307.53,-75.3 293,-71.19 235.29,-54.86 168.1,-41.22 121.03,-32.51"/>
<polygon fill="midnightblue" stroke="midnightblue" points="336.12,-88.91 346.72,-89.04 338.52,-82.33 336.12,-88.91"/>
</g>
<!-- Node10 -->
<g id="node10" class="node">
<title>Node10</title>
<g id="a_node10"><a xlink:href="namespaceproblem__setup.html#a767ffea81ffa775dc9aeb12b2e2a21a4" target="_top" xlink:title=" ">
<polygon fill="none" stroke="black" points="3,-72.19 3,-102.19 118,-102.19 118,-72.19 3,-72.19"/>
<text text-anchor="start" x="11" y="-90.19" font-family="Arial" font-size="10.00">problem_setup.particle</text>
<text text-anchor="middle" x="60.5" y="-79.19" font-family="Arial" font-size="10.00">_locations</text>
</a>
</g>
</g>
<!-- Node7&#45;&gt;Node10 -->
<g id="edge13" class="edge">
<title>Node7&#45;&gt;Node10</title>
<path fill="none" stroke="midnightblue" d="M329.56,-86.53C317.61,-83.48 304.98,-80.78 293,-79.19 233.8,-71.33 165.38,-75.28 118.36,-79.98"/>
<polygon fill="midnightblue" stroke="midnightblue" points="328.84,-89.96 339.41,-89.17 330.65,-83.2 328.84,-89.96"/>
</g>
<!-- Node8&#45;&gt;Node4 -->
<g id="edge9" class="edge">
<title>Node8&#45;&gt;Node4</title>
<path fill="none" stroke="midnightblue" d="M173.77,-122.85C168.11,-124.98 162.43,-127.12 157,-129.19 138.22,-136.33 117.41,-144.38 100.03,-151.14"/>
<polygon fill="midnightblue" stroke="midnightblue" points="175.09,-126.1 183.22,-119.31 172.63,-119.54 175.09,-126.1"/>
</g>
<!-- Node8&#45;&gt;Node9 -->
<g id="edge10" class="edge">
<title>Node8&#45;&gt;Node9</title>
<path fill="none" stroke="midnightblue" d="M185.23,-84.62C156.45,-70.1 117.79,-50.59 91.39,-37.27"/>
<polygon fill="midnightblue" stroke="midnightblue" points="183.69,-87.77 194.19,-89.15 186.84,-81.52 183.69,-87.77"/>
</g>
<!-- Node8&#45;&gt;Node10 -->
<g id="edge11" class="edge">
<title>Node8&#45;&gt;Node10</title>
<path fill="none" stroke="midnightblue" d="M154.36,-96.9C142.25,-95.64 129.8,-94.33 118.1,-93.11"/>
<polygon fill="midnightblue" stroke="midnightblue" points="154.1,-100.4 164.41,-97.95 154.83,-93.43 154.1,-100.4"/>
</g>
<!-- Node11&#45;&gt;Node3 -->
<g id="edge16" class="edge">
<title>Node11&#45;&gt;Node3</title>
<path fill="none" stroke="midnightblue" d="M334,-75.56C332.27,-76.71 330.6,-77.92 329,-79.19 307.81,-95.96 314.56,-111.9 293,-128.19 287.95,-132.01 282.25,-135.29 276.36,-138.11"/>
<polygon fill="midnightblue" stroke="midnightblue" points="336.2,-78.32 343.03,-70.22 332.64,-72.3 336.2,-78.32"/>
</g>
<!-- Node11&#45;&gt;Node9 -->
<g id="edge17" class="edge">
<title>Node11&#45;&gt;Node9</title>
<path fill="none" stroke="midnightblue" d="M354.55,-34.82C337.22,-24.64 314.78,-13.4 293,-8.19 235.83,5.5 168.57,-0.98 121.33,-9.07"/>
<polygon fill="midnightblue" stroke="midnightblue" points="352.74,-37.82 363.11,-40.01 356.37,-31.83 352.74,-37.82"/>
</g>
</g>
</svg>
