<?xml version="1.0" encoding="UTF-8" standalone="no"?>
<!DOCTYPE svg PUBLIC "-//W3C//DTD SVG 1.1//EN"
 "http://www.w3.org/Graphics/SVG/1.1/DTD/svg11.dtd">
<!-- Generated by graphviz version 2.43.0 (0)
 -->
<!-- Title: util::computeMeshSize Pages: 1 -->
<svg width="391pt" height="78pt"
 viewBox="0.00 0.00 391.00 77.50" xmlns="http://www.w3.org/2000/svg" xmlns:xlink="http://www.w3.org/1999/xlink">
<g id="graph0" class="graph" transform="scale(1 1) rotate(0) translate(4 73.5)">
<title>util::computeMeshSize</title>
<!-- Node1 -->
<g id="node1" class="node">
<title>Node1</title>
<g id="a_node1"><a xlink:title="Computes minimum distance between any two nodes.">
<polygon fill="#bfbfbf" stroke="black" points="267,-22.5 267,-41.5 383,-41.5 383,-22.5 267,-22.5"/>
<text text-anchor="middle" x="325" y="-29.5" font-family="Arial" font-size="10.00">util::computeMeshSize</text>
</a>
</g>
</g>
<!-- Node2 -->
<g id="node2" class="node">
<title>Node2</title>
<g id="a_node2"><a xlink:href="classparticle_1_1BaseParticle.html#a11031d2f24d3e51fd73466a80a45a582" target="_top" xlink:title="Constructor.">
<polygon fill="none" stroke="black" points="121,-39 121,-69 231,-69 231,-39 121,-39"/>
<text text-anchor="start" x="129" y="-57" font-family="Arial" font-size="10.00">particle::BaseParticle</text>
<text text-anchor="middle" x="176" y="-46" font-family="Arial" font-size="10.00">::BaseParticle</text>
</a>
</g>
</g>
<!-- Node1&#45;&gt;Node2 -->
<g id="edge1" class="edge">
<title>Node1&#45;&gt;Node2</title>
<path fill="none" stroke="midnightblue" d="M256.84,-42.05C248.34,-43.32 239.72,-44.61 231.45,-45.85"/>
<polygon fill="midnightblue" stroke="midnightblue" points="257.37,-45.51 266.75,-40.57 256.34,-38.59 257.37,-45.51"/>
</g>
<!-- Node3 -->
<g id="node3" class="node">
<title>Node3</title>
<g id="a_node3"><a xlink:href="classfe_1_1Mesh.html#af19a12e75facdf38b898d4b627f3e5d1" target="_top" xlink:title="Reads mesh data from the file and populates other data.">
<polygon fill="none" stroke="black" points="121.5,-0.5 121.5,-19.5 230.5,-19.5 230.5,-0.5 121.5,-0.5"/>
<text text-anchor="middle" x="176" y="-7.5" font-family="Arial" font-size="10.00">fe::Mesh::createData</text>
</a>
</g>
</g>
<!-- Node1&#45;&gt;Node3 -->
<g id="edge2" class="edge">
<title>Node1&#45;&gt;Node3</title>
<path fill="none" stroke="midnightblue" d="M256.7,-21.93C248.08,-20.64 239.34,-19.33 230.97,-18.08"/>
<polygon fill="midnightblue" stroke="midnightblue" points="256.34,-25.41 266.75,-23.43 257.37,-18.49 256.34,-25.41"/>
</g>
<!-- Node4 -->
<g id="node4" class="node">
<title>Node4</title>
<g id="a_node4"><a xlink:href="classfe_1_1Mesh.html#a0041afbb7d7e94bfb01c108e460196fb" target="_top" xlink:title="Constructor.">
<polygon fill="none" stroke="black" points="0,-0.5 0,-19.5 85,-19.5 85,-0.5 0,-0.5"/>
<text text-anchor="middle" x="42.5" y="-7.5" font-family="Arial" font-size="10.00">fe::Mesh::Mesh</text>
</a>
</g>
</g>
<!-- Node3&#45;&gt;Node4 -->
<g id="edge3" class="edge">
<title>Node3&#45;&gt;Node4</title>
<path fill="none" stroke="midnightblue" d="M110.87,-10C102.07,-10 93.24,-10 85,-10"/>
<polygon fill="midnightblue" stroke="midnightblue" points="111.13,-13.5 121.13,-10 111.13,-6.5 111.13,-13.5"/>
</g>
</g>
</svg>
