<?xml version="1.0" encoding="UTF-8" standalone="no"?>
<!DOCTYPE svg PUBLIC "-//W3C//DTD SVG 1.1//EN"
 "http://www.w3.org/Graphics/SVG/1.1/DTD/svg11.dtd">
<!-- Generated by graphviz version 2.43.0 (0)
 -->
<!-- Title: anonymous_namespace{geomObjects::cpp}::printErrMsg Pages: 1 -->
<svg width="367pt" height="50pt"
 viewBox="0.00 0.00 367.00 50.00" xmlns="http://www.w3.org/2000/svg" xmlns:xlink="http://www.w3.org/1999/xlink">
<g id="graph0" class="graph" transform="scale(1 1) rotate(0) translate(4 46)">
<title>anonymous_namespace{geomObjects::cpp}::printErrMsg</title>
<!-- Node1 -->
<g id="node1" class="node">
<title>Node1</title>
<g id="a_node1"><a xlink:title=" ">
<polygon fill="#bfbfbf" stroke="black" points="0,-0.5 0,-41.5 122,-41.5 122,-0.5 0,-0.5"/>
<text text-anchor="start" x="8" y="-29.5" font-family="Arial" font-size="10.00">anonymous_namespace</text>
<text text-anchor="start" x="8" y="-18.5" font-family="Arial" font-size="10.00">{geomObjects::cpp}::</text>
<text text-anchor="middle" x="61" y="-7.5" font-family="Arial" font-size="10.00">printErrMsg</text>
</a>
</g>
</g>
<!-- Node2 -->
<g id="node2" class="node">
<title>Node2</title>
<g id="a_node2"><a xlink:href="namespaceutil_1_1io.html#a3e537e3bd778616255015cde6e60a30a" target="_top" xlink:title="Returns formatted string for output.">
<polygon fill="none" stroke="black" points="158,-11.5 158,-30.5 238,-30.5 238,-11.5 158,-11.5"/>
<text text-anchor="middle" x="198" y="-18.5" font-family="Arial" font-size="10.00">util::io::printStr</text>
</a>
</g>
</g>
<!-- Node1&#45;&gt;Node2 -->
<g id="edge1" class="edge">
<title>Node1&#45;&gt;Node2</title>
<path fill="none" stroke="midnightblue" d="M122.39,-21C130.88,-21 139.52,-21 147.77,-21"/>
<polygon fill="midnightblue" stroke="midnightblue" points="147.97,-24.5 157.97,-21 147.97,-17.5 147.97,-24.5"/>
</g>
<!-- Node3 -->
<g id="node3" class="node">
<title>Node3</title>
<g id="a_node3"><a xlink:href="namespaceutil_1_1io.html#a38afb09a152cca4061850f4123bd3aeb" target="_top" xlink:title="Returns tab spaces of given size.">
<polygon fill="none" stroke="black" points="274,-11.5 274,-30.5 359,-30.5 359,-11.5 274,-11.5"/>
<text text-anchor="middle" x="316.5" y="-18.5" font-family="Arial" font-size="10.00">util::io::getTabS</text>
</a>
</g>
</g>
<!-- Node2&#45;&gt;Node3 -->
<g id="edge2" class="edge">
<title>Node2&#45;&gt;Node3</title>
<path fill="none" stroke="midnightblue" d="M238.12,-21C246.38,-21 255.23,-21 263.88,-21"/>
<polygon fill="midnightblue" stroke="midnightblue" points="263.89,-24.5 273.89,-21 263.89,-17.5 263.89,-24.5"/>
</g>
</g>
</svg>
