<?xml version="1.0" encoding="UTF-8" standalone="no"?>
<!DOCTYPE svg PUBLIC "-//W3C//DTD SVG 1.1//EN"
 "http://www.w3.org/Graphics/SVG/1.1/DTD/svg11.dtd">
<!-- Generated by graphviz version 2.43.0 (0)
 -->
<!-- Title: util::methods::max Pages: 1 -->
<svg width="478pt" height="127pt"
 viewBox="0.00 0.00 478.00 127.00" xmlns="http://www.w3.org/2000/svg" xmlns:xlink="http://www.w3.org/1999/xlink">
<g id="graph0" class="graph" transform="scale(1 1) rotate(0) translate(4 123)">
<title>util::methods::max</title>
<!-- Node1 -->
<g id="node1" class="node">
<title>Node1</title>
<g id="a_node1"><a xlink:title="Returns the maximum from list of data.">
<polygon fill="#bfbfbf" stroke="black" points="372,-50 372,-69 470,-69 470,-50 372,-50"/>
<text text-anchor="middle" x="421" y="-57" font-family="Arial" font-size="10.00">util::methods::max</text>
</a>
</g>
</g>
<!-- Node2 -->
<g id="node2" class="node">
<title>Node2</title>
<g id="a_node2"><a xlink:href="classmaterial_1_1PdElastic.html#a742cf645789390fb6b1f232d8933f9c4" target="_top" xlink:title="Returns critical bond strain.">
<polygon fill="none" stroke="black" points="221,-88.5 221,-118.5 320,-118.5 320,-88.5 221,-88.5"/>
<text text-anchor="start" x="229" y="-106.5" font-family="Arial" font-size="10.00">material::PdElastic</text>
<text text-anchor="middle" x="270.5" y="-95.5" font-family="Arial" font-size="10.00">::getSc</text>
</a>
</g>
</g>
<!-- Node1&#45;&gt;Node2 -->
<g id="edge1" class="edge">
<title>Node1&#45;&gt;Node2</title>
<path fill="none" stroke="midnightblue" d="M378.1,-71.91C360.03,-77.27 338.79,-83.56 320.03,-89.12"/>
<polygon fill="midnightblue" stroke="midnightblue" points="379.18,-75.24 387.78,-69.05 377.2,-68.53 379.18,-75.24"/>
</g>
<!-- Node3 -->
<g id="node3" class="node">
<title>Node3</title>
<g id="a_node3"><a xlink:href="classmodel_1_1DEMModel.html#a3652826a385051497907774640ed2044" target="_top" xlink:title="Output the snapshot of data at current time step.">
<polygon fill="none" stroke="black" points="205,-50 205,-69 336,-69 336,-50 205,-50"/>
<text text-anchor="middle" x="270.5" y="-57" font-family="Arial" font-size="10.00">model::DEMModel::output</text>
</a>
</g>
</g>
<!-- Node1&#45;&gt;Node3 -->
<g id="edge2" class="edge">
<title>Node1&#45;&gt;Node3</title>
<path fill="none" stroke="midnightblue" d="M361.74,-59.5C353.37,-59.5 344.71,-59.5 336.22,-59.5"/>
<polygon fill="midnightblue" stroke="midnightblue" points="361.79,-63 371.79,-59.5 361.79,-56 361.79,-63"/>
</g>
<!-- Node4 -->
<g id="node4" class="node">
<title>Node4</title>
<g id="a_node4"><a xlink:href="namespaceutil.html#a663b495a76c7875a51986e259e93f63f" target="_top" xlink:title="Transform sample from U(0,1) to U(a,b)">
<polygon fill="none" stroke="black" points="225.5,-0.5 225.5,-30.5 315.5,-30.5 315.5,-0.5 225.5,-0.5"/>
<text text-anchor="start" x="233.5" y="-18.5" font-family="Arial" font-size="10.00">util::transform_to</text>
<text text-anchor="middle" x="270.5" y="-7.5" font-family="Arial" font-size="10.00">_uniform_dist</text>
</a>
</g>
</g>
<!-- Node1&#45;&gt;Node4 -->
<g id="edge3" class="edge">
<title>Node1&#45;&gt;Node4</title>
<path fill="none" stroke="midnightblue" d="M377.99,-47.05C358.56,-41.29 335.47,-34.45 315.77,-28.62"/>
<polygon fill="midnightblue" stroke="midnightblue" points="377.2,-50.47 387.78,-49.95 379.18,-43.76 377.2,-50.47"/>
</g>
<!-- Node5 -->
<g id="node5" class="node">
<title>Node5</title>
<g id="a_node5"><a xlink:href="classmodel_1_1DEMModel.html#a90df14f82a946d4f558efae30240f15e" target="_top" xlink:title="Creates particles in a Hexagonal arrangement.">
<polygon fill="none" stroke="black" points="0,-0.5 0,-30.5 169,-30.5 169,-0.5 0,-0.5"/>
<text text-anchor="start" x="8" y="-18.5" font-family="Arial" font-size="10.00">model::DEMModel::createParticles</text>
<text text-anchor="middle" x="84.5" y="-7.5" font-family="Arial" font-size="10.00">FromFile</text>
</a>
</g>
</g>
<!-- Node4&#45;&gt;Node5 -->
<g id="edge4" class="edge">
<title>Node4&#45;&gt;Node5</title>
<path fill="none" stroke="midnightblue" d="M215.21,-15.5C200.77,-15.5 184.83,-15.5 169.22,-15.5"/>
<polygon fill="midnightblue" stroke="midnightblue" points="215.43,-19 225.43,-15.5 215.43,-12 215.43,-19"/>
</g>
</g>
</svg>
