<?xml version="1.0" encoding="UTF-8" standalone="no"?>
<!DOCTYPE svg PUBLIC "-//W3C//DTD SVG 1.1//EN"
 "http://www.w3.org/Graphics/SVG/1.1/DTD/svg11.dtd">
<!-- Generated by graphviz version 2.43.0 (0)
 -->
<!-- Title: problem_setup.get_ref_drum_points Pages: 1 -->
<svg width="1016pt" height="991pt"
 viewBox="0.00 0.00 1016.00 991.00" xmlns="http://www.w3.org/2000/svg" xmlns:xlink="http://www.w3.org/1999/xlink">
<g id="graph0" class="graph" transform="scale(1 1) rotate(0) translate(4 987)">
<title>problem_setup.get_ref_drum_points</title>
<!-- Node1 -->
<g id="node1" class="node">
<title>Node1</title>
<g id="a_node1"><a xlink:title=" ">
<polygon fill="#bfbfbf" stroke="black" points="895,-461 895,-491 1008,-491 1008,-461 895,-461"/>
<text text-anchor="start" x="903" y="-479" font-family="Arial" font-size="10.00">problem_setup.get_ref</text>
<text text-anchor="middle" x="951.5" y="-468" font-family="Arial" font-size="10.00">_drum_points</text>
</a>
</g>
</g>
<!-- Node2 -->
<g id="node2" class="node">
<title>Node2</title>
<g id="a_node2"><a xlink:href="namespaceproblem__setup.html#a66cf6b889081b2c318eb0110057d83c9" target="_top" xlink:title=" ">
<polygon fill="none" stroke="black" points="546,-281 546,-333 677,-333 677,-281 546,-281"/>
<text text-anchor="start" x="554" y="-321" font-family="Arial" font-size="10.00">problem_setup.does</text>
<text text-anchor="start" x="554" y="-310" font-family="Arial" font-size="10.00">_intersect_with_rectangle</text>
<text text-anchor="start" x="554" y="-299" font-family="Arial" font-size="10.00">_wall_with_protrusion_and</text>
<text text-anchor="middle" x="611.5" y="-288" font-family="Arial" font-size="10.00">_opening</text>
</a>
</g>
</g>
<!-- Node1&#45;&gt;Node2 -->
<g id="edge1" class="edge">
<title>Node1&#45;&gt;Node2</title>
<path fill="none" stroke="midnightblue" d="M910.91,-456.2C849.84,-425.67 732.66,-367.08 664.72,-333.11"/>
<polygon fill="midnightblue" stroke="midnightblue" points="909.7,-459.51 920.21,-460.85 912.83,-453.25 909.7,-459.51"/>
</g>
<!-- Node3 -->
<g id="node3" class="node">
<title>Node3</title>
<g id="a_node3"><a xlink:href="namespaceproblem__setup.html#a12b4e565678c66f8f2912d548449bc8f" target="_top" xlink:title=" ">
<polygon fill="none" stroke="black" points="353.5,-297.5 353.5,-316.5 482.5,-316.5 482.5,-297.5 353.5,-297.5"/>
<text text-anchor="middle" x="418" y="-304.5" font-family="Arial" font-size="10.00">problem_setup.get_center</text>
</a>
</g>
</g>
<!-- Node1&#45;&gt;Node3 -->
<g id="edge32" class="edge">
<title>Node1&#45;&gt;Node3</title>
<path fill="none" stroke="midnightblue" d="M936.94,-452.09C921.08,-425.9 892.67,-384.02 859,-357 789.36,-301.13 764.15,-291.35 677,-272 620.16,-259.38 603.7,-264.2 546,-272 510.64,-276.78 471.22,-288.73 445.81,-297.34"/>
<polygon fill="midnightblue" stroke="midnightblue" points="934.09,-454.16 942.2,-460.98 940.12,-450.59 934.09,-454.16"/>
</g>
<!-- Node5 -->
<g id="node5" class="node">
<title>Node5</title>
<g id="a_node5"><a xlink:href="namespaceproblem__setup.html#a5a8a494c7325b103530d3f40d4b49fe8" target="_top" xlink:title=" ">
<polygon fill="none" stroke="black" points="0,-292 0,-322 115,-322 115,-292 0,-292"/>
<text text-anchor="start" x="8" y="-310" font-family="Arial" font-size="10.00">problem_setup.particle</text>
<text text-anchor="middle" x="57.5" y="-299" font-family="Arial" font-size="10.00">_locations_old</text>
</a>
</g>
</g>
<!-- Node1&#45;&gt;Node5 -->
<g id="edge41" class="edge">
<title>Node1&#45;&gt;Node5</title>
<path fill="none" stroke="midnightblue" d="M950.9,-450.6C950.57,-387.42 941.42,-220.96 859,-120 781.94,-25.61 734.35,0 612.5,0 612.5,0 612.5,0 417,0 279.95,0 248.84,-60.02 151,-156 108.64,-197.55 77.58,-262.28 64.85,-291.62"/>
<polygon fill="midnightblue" stroke="midnightblue" points="947.4,-450.83 950.88,-460.83 954.4,-450.84 947.4,-450.83"/>
</g>
<!-- Node6 -->
<g id="node6" class="node">
<title>Node6</title>
<g id="a_node6"><a xlink:href="namespaceproblem__setup.html#ae83c0d80c0947e65b98e4a2da0c07601" target="_top" xlink:title=" ">
<polygon fill="none" stroke="black" points="713,-461 713,-491 859,-491 859,-461 713,-461"/>
<text text-anchor="start" x="721" y="-479" font-family="Arial" font-size="10.00">problem_setup.generate</text>
<text text-anchor="middle" x="786" y="-468" font-family="Arial" font-size="10.00">_drum2d_particle_gmsh_input</text>
</a>
</g>
</g>
<!-- Node1&#45;&gt;Node6 -->
<g id="edge6" class="edge">
<title>Node1&#45;&gt;Node6</title>
<path fill="none" stroke="midnightblue" d="M884.58,-476C876.17,-476 867.53,-476 859.04,-476"/>
<polygon fill="midnightblue" stroke="midnightblue" points="884.69,-479.5 894.69,-476 884.69,-472.5 884.69,-479.5"/>
</g>
<!-- Node9 -->
<g id="node9" class="node">
<title>Node9</title>
<g id="a_node9"><a xlink:href="namespaceproblem__setup.html#aff5393227de056de45cfc082e05af1ca" target="_top" xlink:title=" ">
<polygon fill="none" stroke="black" points="350,-883 350,-913 486,-913 486,-883 350,-883"/>
<text text-anchor="start" x="358" y="-901" font-family="Arial" font-size="10.00">problem_setup.generate</text>
<text text-anchor="middle" x="418" y="-890" font-family="Arial" font-size="10.00">_drum_particle_gmsh_input</text>
</a>
</g>
</g>
<!-- Node1&#45;&gt;Node9 -->
<g id="edge30" class="edge">
<title>Node1&#45;&gt;Node9</title>
<path fill="none" stroke="midnightblue" d="M941.88,-500.93C928.41,-537.3 899.64,-605.73 859,-653 739.3,-792.21 680.92,-806.97 510,-874 501.63,-877.28 492.66,-880.26 483.73,-882.92"/>
<polygon fill="midnightblue" stroke="midnightblue" points="945.31,-501.74 945.41,-491.14 938.72,-499.36 945.31,-501.74"/>
</g>
<!-- Node13 -->
<g id="node13" class="node">
<title>Node13</title>
<g id="a_node13"><a xlink:href="namespaceproblem__setup.html#a94bf8e7f89d392c05bd34dfd6a513675" target="_top" xlink:title=" ">
<polygon fill="none" stroke="black" points="160,-901 160,-931 281,-931 281,-901 160,-901"/>
<text text-anchor="start" x="168" y="-919" font-family="Arial" font-size="10.00">problem_setup.generate</text>
<text text-anchor="middle" x="220.5" y="-908" font-family="Arial" font-size="10.00">_particle_gmsh_input</text>
</a>
</g>
</g>
<!-- Node1&#45;&gt;Node13 -->
<g id="edge31" class="edge">
<title>Node1&#45;&gt;Node13</title>
<path fill="none" stroke="midnightblue" d="M948.51,-501.35C941.62,-582.58 915.97,-834.17 859,-888 692.92,-1044.93 380.65,-967.17 265.55,-931.02"/>
<polygon fill="midnightblue" stroke="midnightblue" points="952.03,-501.32 949.36,-491.06 945.05,-500.74 952.03,-501.32"/>
</g>
<!-- Node17 -->
<g id="node17" class="node">
<title>Node17</title>
<g id="a_node17"><a xlink:href="namespaceproblem__setup.html#ad0951de1e260620b256ecd25ed5d8e5a" target="_top" xlink:title=" ">
<polygon fill="none" stroke="black" points="360.5,-834 360.5,-864 475.5,-864 475.5,-834 360.5,-834"/>
<text text-anchor="start" x="368.5" y="-852" font-family="Arial" font-size="10.00">problem_setup.particle</text>
<text text-anchor="middle" x="418" y="-841" font-family="Arial" font-size="10.00">_locations</text>
</a>
</g>
</g>
<!-- Node1&#45;&gt;Node17 -->
<g id="edge40" class="edge">
<title>Node1&#45;&gt;Node17</title>
<path fill="none" stroke="midnightblue" d="M930.22,-498.56C886.91,-545.89 780.85,-657.45 677,-733 608.47,-782.85 588.67,-793.51 510,-825 499.08,-829.37 487.1,-833.18 475.53,-836.4"/>
<polygon fill="midnightblue" stroke="midnightblue" points="932.95,-500.76 937.09,-491.01 927.77,-496.05 932.95,-500.76"/>
</g>
<!-- Node18 -->
<g id="node18" class="node">
<title>Node18</title>
<g id="a_node18"><a xlink:href="namespaceproblem__setup.html#a58a765e10407e76320682bfd9f6462ae" target="_top" xlink:title=" ">
<polygon fill="none" stroke="black" points="729.5,-130 729.5,-160 842.5,-160 842.5,-130 729.5,-130"/>
<text text-anchor="start" x="737.5" y="-148" font-family="Arial" font-size="10.00">problem_setup.get_ref</text>
<text text-anchor="middle" x="786" y="-137" font-family="Arial" font-size="10.00">_rect_points</text>
</a>
</g>
</g>
<!-- Node1&#45;&gt;Node18 -->
<g id="edge33" class="edge">
<title>Node1&#45;&gt;Node18</title>
<path fill="none" stroke="midnightblue" d="M943.58,-451.16C930.62,-406.67 900.23,-311.2 859,-238 842.27,-208.29 816.73,-177.76 800.99,-160.13"/>
<polygon fill="midnightblue" stroke="midnightblue" points="940.23,-452.19 946.35,-460.84 946.96,-450.26 940.23,-452.19"/>
</g>
<!-- Node21 -->
<g id="node21" class="node">
<title>Node21</title>
<g id="a_node21"><a xlink:href="namespaceproblem__setup.html#a2b643803a88f4dba1de3a039bcf58fe2" target="_top" xlink:title=" ">
<polygon fill="none" stroke="black" points="554,-877 554,-907 669,-907 669,-877 554,-877"/>
<text text-anchor="start" x="562" y="-895" font-family="Arial" font-size="10.00">problem_setup.particle</text>
<text text-anchor="middle" x="611.5" y="-884" font-family="Arial" font-size="10.00">_locations_orient</text>
</a>
</g>
</g>
<!-- Node1&#45;&gt;Node21 -->
<g id="edge42" class="edge">
<title>Node1&#45;&gt;Node21</title>
<path fill="none" stroke="midnightblue" d="M947.87,-501.51C939.46,-577.78 910.75,-801.8 859,-850 808.17,-897.34 724.59,-901.91 669.05,-898.68"/>
<polygon fill="midnightblue" stroke="midnightblue" points="951.37,-501.68 948.96,-491.36 944.41,-500.93 951.37,-501.68"/>
</g>
<!-- Node2&#45;&gt;Node3 -->
<g id="edge2" class="edge">
<title>Node2&#45;&gt;Node3</title>
<path fill="none" stroke="midnightblue" d="M535.73,-307C518.18,-307 499.65,-307 482.64,-307"/>
<polygon fill="midnightblue" stroke="midnightblue" points="535.93,-310.5 545.93,-307 535.93,-303.5 535.93,-310.5"/>
</g>
<!-- Node4 -->
<g id="node4" class="node">
<title>Node4</title>
<g id="a_node4"><a xlink:href="namespaceproblem__setup.html#a9a8d53047175304f4c44b93a2f6fa482" target="_top" xlink:title=" ">
<polygon fill="none" stroke="black" points="151,-343 151,-373 290,-373 290,-343 151,-343"/>
<text text-anchor="start" x="159" y="-361" font-family="Arial" font-size="10.00">problem_setup.generate</text>
<text text-anchor="middle" x="220.5" y="-350" font-family="Arial" font-size="10.00">_rect_container_gmsh_input</text>
</a>
</g>
</g>
<!-- Node3&#45;&gt;Node4 -->
<g id="edge3" class="edge">
<title>Node3&#45;&gt;Node4</title>
<path fill="none" stroke="midnightblue" d="M370.51,-319.13C343.16,-326.26 308.35,-335.34 279.25,-342.94"/>
<polygon fill="midnightblue" stroke="midnightblue" points="371.44,-322.5 380.23,-316.59 369.67,-315.73 371.44,-322.5"/>
</g>
<!-- Node3&#45;&gt;Node5 -->
<g id="edge5" class="edge">
<title>Node3&#45;&gt;Node5</title>
<path fill="none" stroke="midnightblue" d="M343.15,-307C275.48,-307 176.71,-307 115.1,-307"/>
<polygon fill="midnightblue" stroke="midnightblue" points="343.32,-310.5 353.32,-307 343.32,-303.5 343.32,-310.5"/>
</g>
<!-- Node4&#45;&gt;Node5 -->
<g id="edge4" class="edge">
<title>Node4&#45;&gt;Node5</title>
<path fill="none" stroke="midnightblue" d="M162.3,-339.88C143.83,-334.03 123.56,-327.61 105.87,-322.01"/>
<polygon fill="midnightblue" stroke="midnightblue" points="161.48,-343.29 172.07,-342.97 163.59,-336.62 161.48,-343.29"/>
</g>
<!-- Node6&#45;&gt;Node2 -->
<g id="edge22" class="edge">
<title>Node6&#45;&gt;Node2</title>
<path fill="none" stroke="midnightblue" d="M766.89,-452.87C741.59,-420.88 696.6,-365.12 677,-348 671,-342.76 664.28,-337.73 657.49,-333.09"/>
<polygon fill="midnightblue" stroke="midnightblue" points="764.22,-455.15 773.16,-460.84 769.72,-450.82 764.22,-455.15"/>
</g>
<!-- Node6&#45;&gt;Node3 -->
<g id="edge27" class="edge">
<title>Node6&#45;&gt;Node3</title>
<path fill="none" stroke="midnightblue" d="M763.91,-453.28C743.5,-432.53 710.77,-402.37 677,-384 666.89,-378.5 519.56,-335.87 452.18,-316.51"/>
<polygon fill="midnightblue" stroke="midnightblue" points="761.64,-455.97 771.11,-460.73 766.68,-451.11 761.64,-455.97"/>
</g>
<!-- Node6&#45;&gt;Node4 -->
<g id="edge25" class="edge">
<title>Node6&#45;&gt;Node4</title>
<path fill="none" stroke="midnightblue" d="M702.56,-465.2C610.04,-452.18 455.89,-427.76 326,-394 304.09,-388.3 280.17,-380.21 260.76,-373.14"/>
<polygon fill="midnightblue" stroke="midnightblue" points="702.31,-468.7 712.7,-466.62 703.28,-461.77 702.31,-468.7"/>
</g>
<!-- Node6&#45;&gt;Node5 -->
<g id="edge29" class="edge">
<title>Node6&#45;&gt;Node5</title>
<path fill="none" stroke="midnightblue" d="M702.29,-480.03C576.31,-482.72 331.91,-474.23 151,-383 119.82,-367.28 89.73,-339.46 72.72,-322.19"/>
<polygon fill="midnightblue" stroke="midnightblue" points="702.72,-483.52 712.63,-479.77 702.55,-476.52 702.72,-483.52"/>
</g>
<!-- Node7 -->
<g id="node7" class="node">
<title>Node7</title>
<g id="a_node7"><a xlink:href="namespaceproblem__setup.html#a64e067098e447f766d042476ef5abe85" target="_top" xlink:title=" ">
<polygon fill="none" stroke="black" points="556.5,-621 556.5,-651 666.5,-651 666.5,-621 556.5,-621"/>
<text text-anchor="start" x="564.5" y="-639" font-family="Arial" font-size="10.00">problem_setup.create</text>
<text text-anchor="middle" x="611.5" y="-628" font-family="Arial" font-size="10.00">_input_file</text>
</a>
</g>
</g>
<!-- Node6&#45;&gt;Node7 -->
<g id="edge7" class="edge">
<title>Node6&#45;&gt;Node7</title>
<path fill="none" stroke="midnightblue" d="M761.25,-498.03C725.67,-531.03 659.44,-592.46 628.81,-620.87"/>
<polygon fill="midnightblue" stroke="midnightblue" points="763.82,-500.42 768.77,-491.05 759.06,-495.29 763.82,-500.42"/>
</g>
<!-- Node8 -->
<g id="node8" class="node">
<title>Node8</title>
<g id="a_node8"><a xlink:href="namespaceproblem__setup.html#a2c232d3bae603961390ef3d3ee28fe81" target="_top" xlink:title=" ">
<polygon fill="none" stroke="black" points="346.5,-533 346.5,-563 489.5,-563 489.5,-533 346.5,-533"/>
<text text-anchor="start" x="354.5" y="-551" font-family="Arial" font-size="10.00">problem_setup.generate</text>
<text text-anchor="middle" x="418" y="-540" font-family="Arial" font-size="10.00">_cylindrical_wall_gmsh_input</text>
</a>
</g>
</g>
<!-- Node6&#45;&gt;Node8 -->
<g id="edge23" class="edge">
<title>Node6&#45;&gt;Node8</title>
<path fill="none" stroke="midnightblue" d="M727.34,-493.96C711.16,-498.61 693.48,-503.34 677,-507 614.13,-520.96 541.63,-532.05 489.52,-539.16"/>
<polygon fill="midnightblue" stroke="midnightblue" points="728.59,-497.24 737.2,-491.08 726.62,-490.52 728.59,-497.24"/>
</g>
<!-- Node10 -->
<g id="node10" class="node">
<title>Node10</title>
<g id="a_node10"><a xlink:href="namespaceproblem__setup.html#ae8a464882c2862a981f40e102eddeb7d" target="_top" xlink:title=" ">
<polygon fill="none" stroke="black" points="341.5,-484 341.5,-514 494.5,-514 494.5,-484 341.5,-484"/>
<text text-anchor="start" x="349.5" y="-502" font-family="Arial" font-size="10.00">problem_setup.generate</text>
<text text-anchor="middle" x="418" y="-491" font-family="Arial" font-size="10.00">_moving_rect_wall_gmsh_input</text>
</a>
</g>
</g>
<!-- Node6&#45;&gt;Node10 -->
<g id="edge24" class="edge">
<title>Node6&#45;&gt;Node10</title>
<path fill="none" stroke="midnightblue" d="M702.65,-487.49C694,-488.45 685.33,-489.32 677,-490 615.8,-495.02 546.22,-497.25 494.75,-498.23"/>
<polygon fill="midnightblue" stroke="midnightblue" points="703.24,-490.94 712.77,-486.32 702.44,-483.99 703.24,-490.94"/>
</g>
<!-- Node16 -->
<g id="node16" class="node">
<title>Node16</title>
<g id="a_node16"><a xlink:href="namespaceproblem__setup.html#ab2d86f4fe187ef9b78d1ad4ea438b98b" target="_top" xlink:title=" ">
<polygon fill="none" stroke="black" points="326,-343.5 326,-384.5 510,-384.5 510,-343.5 326,-343.5"/>
<text text-anchor="start" x="334" y="-372.5" font-family="Arial" font-size="10.00">problem_setup.generate</text>
<text text-anchor="start" x="334" y="-361.5" font-family="Arial" font-size="10.00">_rectangle_with_protrusion</text>
<text text-anchor="middle" x="418" y="-350.5" font-family="Arial" font-size="10.00">_and_opening_wall_gmsh_input_type3</text>
</a>
</g>
</g>
<!-- Node6&#45;&gt;Node16 -->
<g id="edge26" class="edge">
<title>Node6&#45;&gt;Node16</title>
<path fill="none" stroke="midnightblue" d="M748.74,-456.06C728.17,-445.39 701.68,-432.69 677,-424 622.89,-404.94 560.25,-390.21 510.24,-380.11"/>
<polygon fill="midnightblue" stroke="midnightblue" points="747.27,-459.24 757.75,-460.8 750.53,-453.05 747.27,-459.24"/>
</g>
<!-- Node6&#45;&gt;Node17 -->
<g id="edge28" class="edge">
<title>Node6&#45;&gt;Node17</title>
<path fill="none" stroke="midnightblue" d="M773.61,-500.94C756,-538.04 719.7,-608.97 677,-661 627.66,-721.11 598.71,-719.82 546,-777 527.93,-796.61 532.12,-810.11 510,-825 499.84,-831.84 487.82,-836.74 475.9,-840.24"/>
<polygon fill="midnightblue" stroke="midnightblue" points="777,-501.96 778.07,-491.42 770.66,-498.99 777,-501.96"/>
</g>
<!-- Node7&#45;&gt;Node4 -->
<g id="edge16" class="edge">
<title>Node7&#45;&gt;Node4</title>
<path fill="none" stroke="midnightblue" d="M546.32,-620.42C534.27,-617.56 521.76,-614.65 510,-612 428.45,-593.62 391.85,-624.49 326,-573 258.49,-520.21 231.9,-412.69 224.14,-373.09"/>
<polygon fill="midnightblue" stroke="midnightblue" points="545.78,-623.88 556.32,-622.79 547.4,-617.07 545.78,-623.88"/>
</g>
<!-- Node7&#45;&gt;Node8 -->
<g id="edge8" class="edge">
<title>Node7&#45;&gt;Node8</title>
<path fill="none" stroke="midnightblue" d="M578.57,-615.32C559.25,-603.38 533.81,-588.66 510,-578 497.55,-572.43 483.74,-567.35 470.72,-563.01"/>
<polygon fill="midnightblue" stroke="midnightblue" points="576.93,-618.42 587.26,-620.75 580.64,-612.48 576.93,-618.42"/>
</g>
<!-- Node7&#45;&gt;Node9 -->
<g id="edge9" class="edge">
<title>Node7&#45;&gt;Node9</title>
<path fill="none" stroke="midnightblue" d="M603.07,-660.88C586.21,-715.74 543.9,-844.59 510,-874 503.09,-880 494.85,-884.52 486.19,-887.92"/>
<polygon fill="midnightblue" stroke="midnightblue" points="606.44,-661.83 606,-651.24 599.74,-659.79 606.44,-661.83"/>
</g>
<!-- Node7&#45;&gt;Node10 -->
<g id="edge10" class="edge">
<title>Node7&#45;&gt;Node10</title>
<path fill="none" stroke="midnightblue" d="M595.48,-612.43C578,-586.88 546.77,-546.74 510,-524 503.73,-520.12 496.85,-516.84 489.77,-514.05"/>
<polygon fill="midnightblue" stroke="midnightblue" points="592.62,-614.43 601.08,-620.8 598.43,-610.54 592.62,-614.43"/>
</g>
<!-- Node11 -->
<g id="node11" class="node">
<title>Node11</title>
<g id="a_node11"><a xlink:href="namespaceproblem__setup.html#a8c789550cc1b70abe559c976bcf664e4" target="_top" xlink:title=" ">
<polygon fill="none" stroke="black" points="352.5,-621 352.5,-651 483.5,-651 483.5,-621 352.5,-621"/>
<text text-anchor="start" x="360.5" y="-639" font-family="Arial" font-size="10.00">problem_setup.generate</text>
<text text-anchor="middle" x="418" y="-628" font-family="Arial" font-size="10.00">_moving_wall_gmsh_input</text>
</a>
</g>
</g>
<!-- Node7&#45;&gt;Node11 -->
<g id="edge11" class="edge">
<title>Node7&#45;&gt;Node11</title>
<path fill="none" stroke="midnightblue" d="M546.39,-636C526.26,-636 504.02,-636 483.84,-636"/>
<polygon fill="midnightblue" stroke="midnightblue" points="546.39,-639.5 556.39,-636 546.39,-632.5 546.39,-639.5"/>
</g>
<!-- Node12 -->
<g id="node12" class="node">
<title>Node12</title>
<g id="a_node12"><a xlink:href="namespaceproblem__setup.html#a147f310ff74124342d15ab356739883f" target="_top" xlink:title=" ">
<polygon fill="none" stroke="black" points="357.5,-785 357.5,-815 478.5,-815 478.5,-785 357.5,-785"/>
<text text-anchor="start" x="365.5" y="-803" font-family="Arial" font-size="10.00">problem_setup.generate</text>
<text text-anchor="middle" x="418" y="-792" font-family="Arial" font-size="10.00">_particle_gmsh_input</text>
</a>
</g>
</g>
<!-- Node7&#45;&gt;Node12 -->
<g id="edge12" class="edge">
<title>Node7&#45;&gt;Node12</title>
<path fill="none" stroke="midnightblue" d="M588.63,-658.38C568.74,-678.37 538.26,-708.09 510,-732 487.26,-751.23 459.69,-771.44 440.89,-784.77"/>
<polygon fill="midnightblue" stroke="midnightblue" points="591.16,-660.8 595.71,-651.23 586.19,-655.87 591.16,-660.8"/>
</g>
<!-- Node14 -->
<g id="node14" class="node">
<title>Node14</title>
<g id="a_node14"><a xlink:href="namespaceproblem__setup.html#af51753c1e02e9634827a449ab8729d44" target="_top" xlink:title=" ">
<polygon fill="none" stroke="black" points="160,-787 160,-817 281,-817 281,-787 160,-787"/>
<text text-anchor="start" x="168" y="-805" font-family="Arial" font-size="10.00">problem_setup.generate</text>
<text text-anchor="middle" x="220.5" y="-794" font-family="Arial" font-size="10.00">_wall_gmsh_input</text>
</a>
</g>
</g>
<!-- Node7&#45;&gt;Node14 -->
<g id="edge19" class="edge">
<title>Node7&#45;&gt;Node14</title>
<path fill="none" stroke="midnightblue" d="M579.54,-656.48C560.07,-668.85 534.15,-684.41 510,-696 428.94,-734.91 329.6,-768.52 271.16,-786.95"/>
<polygon fill="midnightblue" stroke="midnightblue" points="581.48,-659.39 588,-651.04 577.7,-653.5 581.48,-659.39"/>
</g>
<!-- Node15 -->
<g id="node15" class="node">
<title>Node15</title>
<g id="a_node15"><a xlink:href="namespaceproblem__setup.html#a704799249dad2aafe57eedd971030266" target="_top" xlink:title=" ">
<polygon fill="none" stroke="black" points="163,-738 163,-768 278,-768 278,-738 163,-738"/>
<text text-anchor="start" x="171" y="-756" font-family="Arial" font-size="10.00">problem_setup.particle</text>
<text text-anchor="middle" x="220.5" y="-745" font-family="Arial" font-size="10.00">_locations_orient</text>
</a>
</g>
</g>
<!-- Node7&#45;&gt;Node15 -->
<g id="edge21" class="edge">
<title>Node7&#45;&gt;Node15</title>
<path fill="none" stroke="midnightblue" d="M546.3,-652.12C534.24,-655.1 521.74,-658.17 510,-661 428.36,-680.69 405.34,-676.47 326,-704 299.31,-713.26 270.32,-727.19 249.66,-737.83"/>
<polygon fill="midnightblue" stroke="midnightblue" points="547.43,-655.44 556.29,-649.63 545.74,-648.65 547.43,-655.44"/>
</g>
<!-- Node7&#45;&gt;Node16 -->
<g id="edge17" class="edge">
<title>Node7&#45;&gt;Node16</title>
<path fill="none" stroke="midnightblue" d="M596.75,-611.86C578.2,-579.82 543.6,-521.83 510,-475 486.47,-442.2 456.28,-406.46 437.28,-384.64"/>
<polygon fill="midnightblue" stroke="midnightblue" points="593.95,-614.02 601.97,-620.94 600.02,-610.52 593.95,-614.02"/>
</g>
<!-- Node7&#45;&gt;Node17 -->
<g id="edge20" class="edge">
<title>Node7&#45;&gt;Node17</title>
<path fill="none" stroke="midnightblue" d="M588.06,-658.77C574.35,-673.73 557.33,-694.29 546,-715 521.32,-760.13 547.42,-789.7 510,-825 500.61,-833.86 488.35,-839.53 475.88,-843.15"/>
<polygon fill="midnightblue" stroke="midnightblue" points="590.99,-660.76 595.28,-651.08 585.89,-655.97 590.99,-660.76"/>
</g>
<!-- Node12&#45;&gt;Node13 -->
<g id="edge13" class="edge">
<title>Node12&#45;&gt;Node13</title>
<path fill="none" stroke="midnightblue" d="M347.7,-815.49C340.18,-818.2 332.8,-821.35 326,-825 288.69,-845.01 253.29,-880.52 234.81,-900.76"/>
<polygon fill="midnightblue" stroke="midnightblue" points="348.89,-818.78 357.26,-812.28 346.66,-812.14 348.89,-818.78"/>
</g>
<!-- Node12&#45;&gt;Node14 -->
<g id="edge14" class="edge">
<title>Node12&#45;&gt;Node14</title>
<path fill="none" stroke="midnightblue" d="M347.19,-800.71C325.6,-800.94 302.03,-801.18 281.19,-801.39"/>
<polygon fill="midnightblue" stroke="midnightblue" points="347.32,-804.21 357.28,-800.61 347.25,-797.21 347.32,-804.21"/>
</g>
<!-- Node12&#45;&gt;Node15 -->
<g id="edge15" class="edge">
<title>Node12&#45;&gt;Node15</title>
<path fill="none" stroke="midnightblue" d="M347.37,-783.26C324.69,-777.81 299.8,-771.82 278.18,-766.63"/>
<polygon fill="midnightblue" stroke="midnightblue" points="346.74,-786.71 357.28,-785.64 348.38,-779.9 346.74,-786.71"/>
</g>
<!-- Node16&#45;&gt;Node4 -->
<g id="edge18" class="edge">
<title>Node16&#45;&gt;Node4</title>
<path fill="none" stroke="midnightblue" d="M315.65,-360.89C306.98,-360.62 298.35,-360.36 290.03,-360.1"/>
<polygon fill="midnightblue" stroke="midnightblue" points="315.73,-364.39 325.83,-361.2 315.94,-357.4 315.73,-364.39"/>
</g>
<!-- Node18&#45;&gt;Node3 -->
<g id="edge37" class="edge">
<title>Node18&#45;&gt;Node3</title>
<path fill="none" stroke="midnightblue" d="M719.4,-144.83C669.44,-147.15 600.26,-155.74 546,-183 489.83,-211.22 442.53,-273.21 425.64,-297.22"/>
<polygon fill="midnightblue" stroke="midnightblue" points="719.58,-148.33 729.43,-144.44 719.31,-141.33 719.58,-148.33"/>
</g>
<!-- Node18&#45;&gt;Node4 -->
<g id="edge34" class="edge">
<title>Node18&#45;&gt;Node4</title>
<path fill="none" stroke="midnightblue" d="M719.02,-135.08C670.2,-130.1 602.64,-128.21 546,-145 411.29,-184.93 280.76,-301.11 236.96,-342.85"/>
<polygon fill="midnightblue" stroke="midnightblue" points="718.82,-138.58 729.14,-136.18 719.58,-131.62 718.82,-138.58"/>
</g>
<!-- Node18&#45;&gt;Node5 -->
<g id="edge39" class="edge">
<title>Node18&#45;&gt;Node5</title>
<path fill="none" stroke="midnightblue" d="M765.74,-122.11C746,-100.61 713.17,-69.87 677,-57 622.15,-37.48 602.93,-44.78 546,-57 347.92,-99.52 141.97,-244.35 78.38,-291.81"/>
<polygon fill="midnightblue" stroke="midnightblue" points="763.37,-124.71 772.64,-129.84 768.59,-120.05 763.37,-124.71"/>
</g>
<!-- Node19 -->
<g id="node19" class="node">
<title>Node19</title>
<g id="a_node19"><a xlink:href="namespaceproblem__setup.html#ac0369f72a95d7fda3b133b8bae4d91ac" target="_top" xlink:title=" ">
<polygon fill="none" stroke="black" points="551,-193 551,-223 672,-223 672,-193 551,-193"/>
<text text-anchor="start" x="559" y="-211" font-family="Arial" font-size="10.00">problem_setup.generate</text>
<text text-anchor="middle" x="611.5" y="-200" font-family="Arial" font-size="10.00">_rect_floor_gmsh_input</text>
</a>
</g>
</g>
<!-- Node18&#45;&gt;Node19 -->
<g id="edge35" class="edge">
<title>Node18&#45;&gt;Node19</title>
<path fill="none" stroke="midnightblue" d="M734.14,-163.57C708.54,-172.93 677.9,-184.11 653.78,-192.92"/>
<polygon fill="midnightblue" stroke="midnightblue" points="735.49,-166.81 743.68,-160.09 733.09,-160.23 735.49,-166.81"/>
</g>
<!-- Node20 -->
<g id="node20" class="node">
<title>Node20</title>
<g id="a_node20"><a xlink:href="namespaceproblem__setup.html#aa1d03b322b00fa4d53e8f88bce3eaee8" target="_top" xlink:title=" ">
<polygon fill="none" stroke="black" points="555,-67 555,-97 668,-97 668,-67 555,-67"/>
<text text-anchor="start" x="563" y="-85" font-family="Arial" font-size="10.00">problem_setup.get_ref</text>
<text text-anchor="middle" x="611.5" y="-74" font-family="Arial" font-size="10.00">_rect_points</text>
</a>
</g>
</g>
<!-- Node18&#45;&gt;Node20 -->
<g id="edge38" class="edge">
<title>Node18&#45;&gt;Node20</title>
<path fill="none" stroke="midnightblue" d="M734.14,-126.43C708.54,-117.07 677.9,-105.89 653.78,-97.08"/>
<polygon fill="midnightblue" stroke="midnightblue" points="733.09,-129.77 743.68,-129.91 735.49,-123.19 733.09,-129.77"/>
</g>
<!-- Node19&#45;&gt;Node16 -->
<g id="edge36" class="edge">
<title>Node19&#45;&gt;Node16</title>
<path fill="none" stroke="midnightblue" d="M585.95,-230.11C573.39,-241.98 558.2,-257.17 546,-272 527.67,-294.27 532.26,-307.66 510,-326 501.68,-332.86 491.94,-338.64 481.99,-343.47"/>
<polygon fill="midnightblue" stroke="midnightblue" points="588.46,-232.56 593.39,-223.19 583.69,-227.44 588.46,-232.56"/>
</g>
<!-- Node21&#45;&gt;Node9 -->
<g id="edge43" class="edge">
<title>Node21&#45;&gt;Node9</title>
<path fill="none" stroke="midnightblue" d="M543.64,-894.09C524.97,-894.68 504.68,-895.32 486,-895.9"/>
<polygon fill="midnightblue" stroke="midnightblue" points="543.94,-897.59 553.82,-893.78 543.72,-890.59 543.94,-897.59"/>
</g>
<!-- Node21&#45;&gt;Node14 -->
<g id="edge44" class="edge">
<title>Node21&#45;&gt;Node14</title>
<path fill="none" stroke="midnightblue" d="M565.76,-910.6C507.72,-931.75 404.58,-958.96 326,-923 301.39,-911.74 253.64,-847.43 232.28,-817.42"/>
<polygon fill="midnightblue" stroke="midnightblue" points="567.23,-913.79 575.37,-907.01 564.78,-907.23 567.23,-913.79"/>
</g>
<!-- Node21&#45;&gt;Node15 -->
<g id="edge45" class="edge">
<title>Node21&#45;&gt;Node15</title>
<path fill="none" stroke="midnightblue" d="M597.51,-867.99C581.14,-840.4 550.2,-796.33 510,-776 436.47,-738.81 338.75,-739.83 278.01,-745.37"/>
<polygon fill="midnightblue" stroke="midnightblue" points="594.67,-870.07 602.69,-876.99 600.74,-866.58 594.67,-870.07"/>
</g>
</g>
</svg>
