<?xml version="1.0" encoding="UTF-8" standalone="no"?>
<!DOCTYPE svg PUBLIC "-//W3C//DTD SVG 1.1//EN"
 "http://www.w3.org/Graphics/SVG/1.1/DTD/svg11.dtd">
<!-- Generated by graphviz version 2.43.0 (0)
 -->
<!-- Title: problem_setup.print_dbl_list Pages: 1 -->
<svg width="651pt" height="631pt"
 viewBox="0.00 0.00 651.00 631.00" xmlns="http://www.w3.org/2000/svg" xmlns:xlink="http://www.w3.org/1999/xlink">
<g id="graph0" class="graph" transform="scale(1 1) rotate(0) translate(4 627)">
<title>problem_setup.print_dbl_list</title>
<!-- Node1 -->
<g id="Node000001" class="node">
<title>Node1</title>
<g id="a_Node000001"><a xlink:title=" ">
<polygon fill="#999999" stroke="#666666" points="643,-339.36 541,-339.36 541,-309.36 643,-309.36 643,-339.36"/>
<text text-anchor="start" x="549" y="-327.36" font-family="Arial" font-size="10.00">problem_setup.print</text>
<text text-anchor="middle" x="592" y="-316.36" font-family="Arial" font-size="10.00">_dbl_list</text>
</a>
</g>
</g>
<!-- Node2 -->
<g id="Node000002" class="node">
<title>Node2</title>
<g id="a_Node000002"><a xlink:href="namespaceproblem__setup.html#a8ed53bd44082cee1b5381115a87451e2" target="_top" xlink:title=" ">
<polygon fill="white" stroke="#666666" points="505,-318.36 395,-318.36 395,-288.36 505,-288.36 505,-318.36"/>
<text text-anchor="start" x="403" y="-306.36" font-family="Arial" font-size="10.00">problem_setup.create</text>
<text text-anchor="middle" x="450" y="-295.36" font-family="Arial" font-size="10.00">_input_file</text>
</a>
</g>
</g>
<!-- Node1&#45;&gt;Node2 -->
<g id="edge1_Node000001_Node000002" class="edge">
<title>Node1&#45;&gt;Node2</title>
<g id="a_edge1_Node000001_Node000002"><a xlink:title=" ">
<path fill="none" stroke="#63b8ff" d="M530.9,-315.34C522.31,-314.05 513.52,-312.73 505.06,-311.47"/>
<polygon fill="#63b8ff" stroke="#63b8ff" points="530.44,-318.81 540.85,-316.83 531.48,-311.89 530.44,-318.81"/>
</a>
</g>
</g>
<!-- Node3 -->
<g id="Node000003" class="node">
<title>Node3</title>
<g id="a_Node000003"><a xlink:href="namespaceproblem__setup.html#a15d340f22fc959eb9bc3ebf12be02887" target="_top" xlink:title=" ">
<polygon fill="white" stroke="#666666" points="335,-559.36 199,-559.36 199,-529.36 335,-529.36 335,-559.36"/>
<text text-anchor="start" x="207" y="-547.36" font-family="Arial" font-size="10.00">problem_setup.generate</text>
<text text-anchor="middle" x="267" y="-536.36" font-family="Arial" font-size="10.00">_drum_particle_gmsh_input</text>
</a>
</g>
</g>
<!-- Node1&#45;&gt;Node3 -->
<g id="edge22_Node000001_Node000003" class="edge">
<title>Node1&#45;&gt;Node3</title>
<g id="a_edge22_Node000001_Node000003"><a xlink:title=" ">
<path fill="none" stroke="#63b8ff" d="M573.68,-347.68C557.34,-368.81 531.45,-400.11 505,-423.36 446.48,-474.78 430.07,-488.44 359,-520.36 351.55,-523.7 343.54,-526.66 335.47,-529.25"/>
<polygon fill="#63b8ff" stroke="#63b8ff" points="576.59,-349.64 579.87,-339.57 571.02,-345.39 576.59,-349.64"/>
</a>
</g>
</g>
<!-- Node4 -->
<g id="Node000004" class="node">
<title>Node4</title>
<g id="a_Node000004"><a xlink:href="namespaceproblem__setup.html#a16a9d169ecf04b1a867bec4dbf274c01" target="_top" xlink:title=" ">
<polygon fill="white" stroke="#666666" points="343.5,-493.36 190.5,-493.36 190.5,-463.36 343.5,-463.36 343.5,-493.36"/>
<text text-anchor="start" x="198.5" y="-481.36" font-family="Arial" font-size="10.00">problem_setup.generate</text>
<text text-anchor="middle" x="267" y="-470.36" font-family="Arial" font-size="10.00">_moving_rect_wall_gmsh_input</text>
</a>
</g>
</g>
<!-- Node1&#45;&gt;Node4 -->
<g id="edge23_Node000001_Node000004" class="edge">
<title>Node1&#45;&gt;Node4</title>
<g id="a_edge23_Node000001_Node000004"><a xlink:title=" ">
<path fill="none" stroke="#63b8ff" d="M560.66,-345.01C517.6,-373.46 435.47,-424.56 359,-454.36 350.63,-457.62 341.65,-460.59 332.72,-463.24"/>
<polygon fill="#63b8ff" stroke="#63b8ff" points="562.6,-347.93 568.99,-339.47 558.72,-342.1 562.6,-347.93"/>
</a>
</g>
</g>
<!-- Node5 -->
<g id="Node000005" class="node">
<title>Node5</title>
<g id="a_Node000005"><a xlink:href="namespaceproblem__setup.html#a4dd4df45d28c58aafac4fdf8aa8c554d" target="_top" xlink:title=" ">
<polygon fill="white" stroke="#666666" points="332.5,-427.36 201.5,-427.36 201.5,-397.36 332.5,-397.36 332.5,-427.36"/>
<text text-anchor="start" x="209.5" y="-415.36" font-family="Arial" font-size="10.00">problem_setup.generate</text>
<text text-anchor="middle" x="267" y="-404.36" font-family="Arial" font-size="10.00">_moving_wall_gmsh_input</text>
</a>
</g>
</g>
<!-- Node1&#45;&gt;Node5 -->
<g id="edge24_Node000001_Node000005" class="edge">
<title>Node1&#45;&gt;Node5</title>
<g id="a_edge24_Node000001_Node000005"><a xlink:title=" ">
<path fill="none" stroke="#63b8ff" d="M531.13,-341.07C484.31,-354.09 417.56,-372.56 359,-388.36 348.12,-391.29 336.49,-394.39 325.31,-397.35"/>
<polygon fill="#63b8ff" stroke="#63b8ff" points="532.12,-344.43 540.81,-338.38 530.24,-337.69 532.12,-344.43"/>
</a>
</g>
</g>
<!-- Node6 -->
<g id="Node000006" class="node">
<title>Node6</title>
<g id="a_Node000006"><a xlink:href="namespaceproblem__setup.html#a881d38782fcef7d73522d8b9bfcdb3da" target="_top" xlink:title=" ">
<polygon fill="white" stroke="#666666" points="327.5,-361.36 206.5,-361.36 206.5,-331.36 327.5,-331.36 327.5,-361.36"/>
<text text-anchor="start" x="214.5" y="-349.36" font-family="Arial" font-size="10.00">problem_setup.generate</text>
<text text-anchor="middle" x="267" y="-338.36" font-family="Arial" font-size="10.00">_particle_gmsh_input</text>
</a>
</g>
</g>
<!-- Node1&#45;&gt;Node6 -->
<g id="edge25_Node000001_Node000006" class="edge">
<title>Node1&#45;&gt;Node6</title>
<g id="a_edge25_Node000001_Node000006"><a xlink:title=" ">
<path fill="none" stroke="#63b8ff" d="M530.76,-328.46C472.71,-332.41 385.39,-338.36 327.57,-342.3"/>
<polygon fill="#63b8ff" stroke="#63b8ff" points="531.15,-331.94 540.89,-327.77 530.67,-324.96 531.15,-331.94"/>
</a>
</g>
</g>
<!-- Node7 -->
<g id="Node000007" class="node">
<title>Node7</title>
<g id="a_Node000007"><a xlink:href="namespaceproblem__setup.html#a021c61bf44d7c968582474d32605a1ad" target="_top" xlink:title=" ">
<polygon fill="white" stroke="#666666" points="130,-339.36 9,-339.36 9,-309.36 130,-309.36 130,-339.36"/>
<text text-anchor="start" x="17" y="-327.36" font-family="Arial" font-size="10.00">problem_setup.generate</text>
<text text-anchor="middle" x="69.5" y="-316.36" font-family="Arial" font-size="10.00">_wall_gmsh_input</text>
</a>
</g>
</g>
<!-- Node1&#45;&gt;Node7 -->
<g id="edge29_Node000001_Node000007" class="edge">
<title>Node1&#45;&gt;Node7</title>
<g id="a_edge29_Node000001_Node000007"><a xlink:title=" ">
<path fill="none" stroke="#63b8ff" d="M580.93,-348.86C567.06,-380.63 539.82,-436.66 505,-476.36 403.06,-592.59 302.98,-673.09 175,-586.36 88.86,-527.97 73.72,-385.99 71.06,-339.42"/>
<polygon fill="#63b8ff" stroke="#63b8ff" points="584.24,-350.02 584.95,-339.45 577.8,-347.27 584.24,-350.02"/>
</a>
</g>
</g>
<!-- Node8 -->
<g id="Node000008" class="node">
<title>Node8</title>
<g id="a_Node000008"><a xlink:href="namespaceproblem__setup.html#ab77cd691be605123ba53961f21c8885a" target="_top" xlink:title=" ">
<polygon fill="white" stroke="#666666" points="139,-71.36 0,-71.36 0,-41.36 139,-41.36 139,-71.36"/>
<text text-anchor="start" x="8" y="-59.36" font-family="Arial" font-size="10.00">problem_setup.generate</text>
<text text-anchor="middle" x="69.5" y="-48.36" font-family="Arial" font-size="10.00">_rect_container_gmsh_input</text>
</a>
</g>
</g>
<!-- Node1&#45;&gt;Node8 -->
<g id="edge26_Node000001_Node000008" class="edge">
<title>Node1&#45;&gt;Node8</title>
<g id="a_edge26_Node000001_Node000008"><a xlink:title=" ">
<path fill="none" stroke="#63b8ff" d="M590.73,-299.05C588.72,-245.95 576.18,-122.52 505,-58.36 393.93,41.78 194.31,-11.98 109.9,-41.33"/>
<polygon fill="#63b8ff" stroke="#63b8ff" points="587.24,-299.37 591.02,-309.27 594.24,-299.17 587.24,-299.37"/>
</a>
</g>
</g>
<!-- Node9 -->
<g id="Node000009" class="node">
<title>Node9</title>
<g id="a_Node000009"><a xlink:href="namespaceproblem__setup.html#a8e72848abab104858c2a4647079140ed" target="_top" xlink:title=" ">
<polygon fill="white" stroke="#666666" points="359,-76.86 175,-76.86 175,-35.86 359,-35.86 359,-76.86"/>
<text text-anchor="start" x="183" y="-64.86" font-family="Arial" font-size="10.00">problem_setup.generate</text>
<text text-anchor="start" x="183" y="-53.86" font-family="Arial" font-size="10.00">_rectangle_with_protrusion</text>
<text text-anchor="middle" x="267" y="-42.86" font-family="Arial" font-size="10.00">_and_opening_wall_gmsh_input_type3</text>
</a>
</g>
</g>
<!-- Node1&#45;&gt;Node9 -->
<g id="edge27_Node000001_Node000009" class="edge">
<title>Node1&#45;&gt;Node9</title>
<g id="a_edge27_Node000001_Node000009"><a xlink:title=" ">
<path fill="none" stroke="#63b8ff" d="M588.43,-298.95C582.43,-253.62 563.26,-158.94 505,-109.36 464.87,-75.2 407.42,-61.76 359.14,-56.95"/>
<polygon fill="#63b8ff" stroke="#63b8ff" points="584.98,-299.59 589.66,-309.1 591.93,-298.75 584.98,-299.59"/>
</a>
</g>
</g>
<!-- Node10 -->
<g id="Node000010" class="node">
<title>Node10</title>
<g id="a_Node000010"><a xlink:href="namespaceproblem__setup.html#afa462577a9adf91f5e2cb59a1eb7da7e" target="_top" xlink:title=" ">
<polygon fill="white" stroke="#666666" points="327.5,-219.36 206.5,-219.36 206.5,-189.36 327.5,-189.36 327.5,-219.36"/>
<text text-anchor="start" x="214.5" y="-207.36" font-family="Arial" font-size="10.00">problem_setup.generate</text>
<text text-anchor="middle" x="267" y="-196.36" font-family="Arial" font-size="10.00">_wall_gmsh_input</text>
</a>
</g>
</g>
<!-- Node1&#45;&gt;Node10 -->
<g id="edge28_Node000001_Node000010" class="edge">
<title>Node1&#45;&gt;Node10</title>
<g id="a_edge28_Node000001_Node000010"><a xlink:title=" ">
<path fill="none" stroke="#63b8ff" d="M556.09,-304.31C540.72,-295.95 522.26,-286.54 505,-279.36 445.03,-254.41 373.66,-232.87 325.02,-219.36"/>
<polygon fill="#63b8ff" stroke="#63b8ff" points="554.78,-307.58 565.23,-309.35 558.16,-301.45 554.78,-307.58"/>
</a>
</g>
</g>
<!-- Node11 -->
<g id="Node000011" class="node">
<title>Node11</title>
<g id="a_Node000011"><a xlink:href="namespaceproblem__setup.html#a38db49e0a85dd22e69cae23f7f92435f" target="_top" xlink:title=" ">
<polygon fill="white" stroke="#666666" points="127,-219.36 12,-219.36 12,-189.36 127,-189.36 127,-219.36"/>
<text text-anchor="start" x="20" y="-207.36" font-family="Arial" font-size="10.00">problem_setup.particle</text>
<text text-anchor="middle" x="69.5" y="-196.36" font-family="Arial" font-size="10.00">_locations</text>
</a>
</g>
</g>
<!-- Node1&#45;&gt;Node11 -->
<g id="edge30_Node000001_Node000011" class="edge">
<title>Node1&#45;&gt;Node11</title>
<g id="a_edge30_Node000001_Node000011"><a xlink:title=" ">
<path fill="none" stroke="#63b8ff" d="M573.46,-301.51C557.45,-281.96 532.18,-254.22 505,-236.36 446.93,-198.18 427.34,-193.01 359,-180.36 278.59,-165.46 256.26,-171.14 175,-180.36 158.72,-182.2 141.29,-185.61 125.42,-189.3"/>
<polygon fill="#63b8ff" stroke="#63b8ff" points="570.75,-303.73 579.74,-309.34 576.21,-299.35 570.75,-303.73"/>
</a>
</g>
</g>
<!-- Node2&#45;&gt;Node3 -->
<g id="edge2_Node000002_Node000003" class="edge">
<title>Node2&#45;&gt;Node3</title>
<g id="a_edge2_Node000002_Node000003"><a xlink:title=" ">
<path fill="none" stroke="#63b8ff" d="M445.81,-328.8C438.74,-374.24 417.47,-469.31 359,-520.36 352.11,-526.37 343.88,-530.91 335.22,-534.32"/>
<polygon fill="#63b8ff" stroke="#63b8ff" points="449.32,-329.03 447.28,-318.63 442.39,-328.03 449.32,-329.03"/>
</a>
</g>
</g>
<!-- Node2&#45;&gt;Node4 -->
<g id="edge4_Node000002_Node000004" class="edge">
<title>Node2&#45;&gt;Node4</title>
<g id="a_edge4_Node000002_Node000004"><a xlink:title=" ">
<path fill="none" stroke="#63b8ff" d="M441.03,-327.98C428.84,-361.69 402.3,-421.74 359,-454.36 354.3,-457.89 349.13,-460.91 343.7,-463.49"/>
<polygon fill="#63b8ff" stroke="#63b8ff" points="444.38,-329.02 444.36,-318.42 437.77,-326.71 444.38,-329.02"/>
</a>
</g>
</g>
<!-- Node2&#45;&gt;Node5 -->
<g id="edge6_Node000002_Node000005" class="edge">
<title>Node2&#45;&gt;Node5</title>
<g id="a_edge6_Node000002_Node000005"><a xlink:title=" ">
<path fill="none" stroke="#63b8ff" d="M430.44,-326.42C413.71,-345.72 387.44,-372.55 359,-388.36 350.86,-392.88 341.83,-396.58 332.72,-399.6"/>
<polygon fill="#63b8ff" stroke="#63b8ff" points="433.21,-328.56 437,-318.67 427.87,-324.04 433.21,-328.56"/>
</a>
</g>
</g>
<!-- Node2&#45;&gt;Node6 -->
<g id="edge8_Node000002_Node000006" class="edge">
<title>Node2&#45;&gt;Node6</title>
<g id="a_edge8_Node000002_Node000006"><a xlink:title=" ">
<path fill="none" stroke="#63b8ff" d="M384.83,-318.6C366.22,-323.02 345.97,-327.83 327.64,-332.19"/>
<polygon fill="#63b8ff" stroke="#63b8ff" points="385.77,-321.97 394.69,-316.26 384.16,-315.16 385.77,-321.97"/>
</a>
</g>
</g>
<!-- Node2&#45;&gt;Node7 -->
<g id="edge20_Node000002_Node000007" class="edge">
<title>Node2&#45;&gt;Node7</title>
<g id="a_edge20_Node000002_Node000007"><a xlink:title=" ">
<path fill="none" stroke="#63b8ff" d="M384.58,-306.93C313.36,-310.88 199.55,-317.2 130.25,-321.04"/>
<polygon fill="#63b8ff" stroke="#63b8ff" points="384.98,-310.41 394.77,-306.36 384.59,-303.42 384.98,-310.41"/>
</a>
</g>
</g>
<!-- Node2&#45;&gt;Node8 -->
<g id="edge11_Node000002_Node000008" class="edge">
<title>Node2&#45;&gt;Node8</title>
<g id="a_edge11_Node000002_Node000008"><a xlink:title=" ">
<path fill="none" stroke="#63b8ff" d="M436.61,-279.12C421.56,-251.81 393.82,-207.68 359,-180.36 289.4,-125.73 256.11,-139.72 175,-104.36 150.48,-93.66 122.99,-81.01 102.37,-71.38"/>
<polygon fill="#63b8ff" stroke="#63b8ff" points="433.58,-280.87 441.39,-288.02 439.74,-277.56 433.58,-280.87"/>
</a>
</g>
</g>
<!-- Node2&#45;&gt;Node9 -->
<g id="edge13_Node000002_Node000009" class="edge">
<title>Node2&#45;&gt;Node9</title>
<g id="a_edge13_Node000002_Node000009"><a xlink:title=" ">
<path fill="none" stroke="#63b8ff" d="M437.41,-278.88C421.79,-247.08 392.11,-190.52 359,-147.36 338.74,-120.94 311.24,-94.45 291.78,-76.92"/>
<polygon fill="#63b8ff" stroke="#63b8ff" points="434.27,-280.44 441.79,-287.91 440.57,-277.39 434.27,-280.44"/>
</a>
</g>
</g>
<!-- Node2&#45;&gt;Node10 -->
<g id="edge16_Node000002_Node000010" class="edge">
<title>Node2&#45;&gt;Node10</title>
<g id="a_edge16_Node000002_Node000010"><a xlink:title=" ">
<path fill="none" stroke="#63b8ff" d="M414.72,-283.04C398.01,-273.27 377.57,-261.51 359,-251.36 338.87,-240.35 315.92,-228.5 298.11,-219.46"/>
<polygon fill="#63b8ff" stroke="#63b8ff" points="413.18,-286.2 423.58,-288.24 416.72,-280.16 413.18,-286.2"/>
</a>
</g>
</g>
<!-- Node2&#45;&gt;Node11 -->
<g id="edge21_Node000002_Node000011" class="edge">
<title>Node2&#45;&gt;Node11</title>
<g id="a_edge21_Node000002_Node000011"><a xlink:title=" ">
<path fill="none" stroke="#63b8ff" d="M384.6,-293.28C328.56,-283.73 245.49,-267.67 175,-246.36 150.67,-239 124.1,-228.28 103.84,-219.52"/>
<polygon fill="#63b8ff" stroke="#63b8ff" points="384.3,-296.78 394.74,-294.99 385.46,-289.87 384.3,-296.78"/>
</a>
</g>
</g>
<!-- Node3&#45;&gt;Node3 -->
<g id="edge3_Node000003_Node000003" class="edge">
<title>Node3&#45;&gt;Node3</title>
<g id="a_edge3_Node000003_Node000003"><a xlink:title=" ">
<path fill="none" stroke="#63b8ff" d="M298.86,-569.95C294.5,-574.33 283.88,-577.36 267,-577.36 238.56,-577.36 227.9,-568.76 235.01,-559.63"/>
<polygon fill="#63b8ff" stroke="#63b8ff" points="302.36,-569.68 298.99,-559.63 295.36,-569.58 302.36,-569.68"/>
</a>
</g>
</g>
<!-- Node4&#45;&gt;Node4 -->
<g id="edge5_Node000004_Node000004" class="edge">
<title>Node4&#45;&gt;Node4</title>
<g id="a_edge5_Node000004_Node000004"><a xlink:title=" ">
<path fill="none" stroke="#63b8ff" d="M298.86,-503.95C294.5,-508.33 283.88,-511.36 267,-511.36 238.56,-511.36 227.9,-502.76 235.01,-493.63"/>
<polygon fill="#63b8ff" stroke="#63b8ff" points="302.36,-503.68 298.99,-493.63 295.36,-503.58 302.36,-503.68"/>
</a>
</g>
</g>
<!-- Node5&#45;&gt;Node5 -->
<g id="edge7_Node000005_Node000005" class="edge">
<title>Node5&#45;&gt;Node5</title>
<g id="a_edge7_Node000005_Node000005"><a xlink:title=" ">
<path fill="none" stroke="#63b8ff" d="M298.86,-437.95C294.5,-442.33 283.88,-445.36 267,-445.36 238.56,-445.36 227.9,-436.76 235.01,-427.63"/>
<polygon fill="#63b8ff" stroke="#63b8ff" points="302.36,-437.68 298.99,-427.63 295.36,-437.58 302.36,-437.68"/>
</a>
</g>
</g>
<!-- Node6&#45;&gt;Node6 -->
<g id="edge9_Node000006_Node000006" class="edge">
<title>Node6&#45;&gt;Node6</title>
<g id="a_edge9_Node000006_Node000006"><a xlink:title=" ">
<path fill="none" stroke="#63b8ff" d="M298.86,-371.95C294.5,-376.33 283.88,-379.36 267,-379.36 238.56,-379.36 227.9,-370.76 235.01,-361.63"/>
<polygon fill="#63b8ff" stroke="#63b8ff" points="302.36,-371.68 298.99,-361.63 295.36,-371.58 302.36,-371.68"/>
</a>
</g>
</g>
<!-- Node6&#45;&gt;Node7 -->
<g id="edge10_Node000006_Node000007" class="edge">
<title>Node6&#45;&gt;Node7</title>
<g id="a_edge10_Node000006_Node000007"><a xlink:title=" ">
<path fill="none" stroke="#63b8ff" d="M196.19,-338.5C174.6,-336.07 151.03,-333.42 130.19,-331.07"/>
<polygon fill="#63b8ff" stroke="#63b8ff" points="195.95,-342 206.28,-339.64 196.74,-335.04 195.95,-342"/>
</a>
</g>
</g>
<!-- Node8&#45;&gt;Node8 -->
<g id="edge12_Node000008_Node000008" class="edge">
<title>Node8&#45;&gt;Node8</title>
<g id="a_edge12_Node000008_Node000008"><a xlink:title=" ">
<path fill="none" stroke="#63b8ff" d="M103.81,-81.95C99.12,-86.33 87.68,-89.36 69.5,-89.36 38.88,-89.36 27.39,-80.76 35.05,-71.63"/>
<polygon fill="#63b8ff" stroke="#63b8ff" points="107.31,-81.68 103.95,-71.63 100.31,-81.58 107.31,-81.68"/>
</a>
</g>
</g>
<!-- Node9&#45;&gt;Node8 -->
<g id="edge14_Node000009_Node000008" class="edge">
<title>Node9&#45;&gt;Node8</title>
<g id="a_edge14_Node000009_Node000008"><a xlink:title=" ">
<path fill="none" stroke="#63b8ff" d="M164.65,-56.36C155.98,-56.36 147.35,-56.36 139.03,-56.36"/>
<polygon fill="#63b8ff" stroke="#63b8ff" points="164.83,-59.86 174.83,-56.36 164.83,-52.86 164.83,-59.86"/>
</a>
</g>
</g>
<!-- Node9&#45;&gt;Node9 -->
<g id="edge15_Node000009_Node000009" class="edge">
<title>Node9&#45;&gt;Node9</title>
<g id="a_edge15_Node000009_Node000009"><a xlink:title=" ">
<path fill="none" stroke="#63b8ff" d="M298.31,-86.82C293.66,-91.59 283.22,-94.86 267,-94.86 241.05,-94.86 229.9,-86.51 233.55,-76.95"/>
<polygon fill="#63b8ff" stroke="#63b8ff" points="301.75,-87.47 300.45,-76.95 294.91,-85.98 301.75,-87.47"/>
</a>
</g>
</g>
<!-- Node10&#45;&gt;Node7 -->
<g id="edge18_Node000010_Node000007" class="edge">
<title>Node10&#45;&gt;Node7</title>
<g id="a_edge18_Node000010_Node000007"><a xlink:title=" ">
<path fill="none" stroke="#63b8ff" d="M232.34,-225.02C193.27,-249 129.76,-287.98 95.06,-309.28"/>
<polygon fill="#63b8ff" stroke="#63b8ff" points="234.55,-227.77 241.24,-219.55 230.89,-221.8 234.55,-227.77"/>
</a>
</g>
</g>
<!-- Node10&#45;&gt;Node10 -->
<g id="edge17_Node000010_Node000010" class="edge">
<title>Node10&#45;&gt;Node10</title>
<g id="a_edge17_Node000010_Node000010"><a xlink:title=" ">
<path fill="none" stroke="#63b8ff" d="M298.86,-229.95C294.5,-234.33 283.88,-237.36 267,-237.36 238.56,-237.36 227.9,-228.76 235.01,-219.63"/>
<polygon fill="#63b8ff" stroke="#63b8ff" points="302.36,-229.68 298.99,-219.63 295.36,-229.58 302.36,-229.68"/>
</a>
</g>
</g>
<!-- Node10&#45;&gt;Node11 -->
<g id="edge19_Node000010_Node000011" class="edge">
<title>Node10&#45;&gt;Node11</title>
<g id="a_edge19_Node000010_Node000011"><a xlink:title=" ">
<path fill="none" stroke="#63b8ff" d="M196.07,-204.36C173.47,-204.36 148.7,-204.36 127.18,-204.36"/>
<polygon fill="#63b8ff" stroke="#63b8ff" points="196.28,-207.86 206.28,-204.36 196.28,-200.86 196.28,-207.86"/>
</a>
</g>
</g>
</g>
</svg>
