<?xml version="1.0" encoding="UTF-8" standalone="no"?>
<!DOCTYPE svg PUBLIC "-//W3C//DTD SVG 1.1//EN"
 "http://www.w3.org/Graphics/SVG/1.1/DTD/svg11.dtd">
<!-- Generated by graphviz version 2.43.0 (0)
 -->
<!-- Title: util::methods::minIndex Pages: 1 -->
<svg width="291pt" height="210pt"
 viewBox="0.00 0.00 291.00 209.50" xmlns="http://www.w3.org/2000/svg" xmlns:xlink="http://www.w3.org/1999/xlink">
<g id="graph0" class="graph" transform="scale(1 1) rotate(0) translate(4 205.5)">
<title>util::methods::minIndex</title>
<!-- Node1 -->
<g id="Node000001" class="node">
<title>Node1</title>
<g id="a_Node000001"><a xlink:title="Returns the index corresponding to minimum from list of data.">
<polygon fill="#999999" stroke="#666666" points="283,-115.5 164,-115.5 164,-96.5 283,-96.5 283,-115.5"/>
<text text-anchor="middle" x="223.5" y="-103.5" font-family="Arial" font-size="10.00">util::methods::minIndex</text>
</a>
</g>
</g>
<!-- Node2 -->
<g id="Node000002" class="node">
<title>Node2</title>
<g id="a_Node000002"><a xlink:href="namespaceutil_1_1methods.html#a801072603311ff11a3cade8cf979a78b" target="_top" xlink:title="Returns the minimim from list of data.">
<polygon fill="white" stroke="#666666" points="111.5,-201.5 16.5,-201.5 16.5,-182.5 111.5,-182.5 111.5,-201.5"/>
<text text-anchor="middle" x="64" y="-189.5" font-family="Arial" font-size="10.00">util::methods::min</text>
</a>
</g>
</g>
<!-- Node1&#45;&gt;Node2 -->
<g id="edge1_Node000001_Node000002" class="edge">
<title>Node1&#45;&gt;Node2</title>
<g id="a_edge1_Node000001_Node000002"><a xlink:title=" ">
<path fill="none" stroke="#63b8ff" d="M203.55,-122.26C185.26,-137.24 156.26,-159.18 128,-173 120.41,-176.71 111.94,-179.87 103.74,-182.48"/>
<polygon fill="#63b8ff" stroke="#63b8ff" points="206.18,-124.62 211.62,-115.53 201.7,-119.25 206.18,-124.62"/>
</a>
</g>
</g>
<!-- Node3 -->
<g id="Node000003" class="node">
<title>Node3</title>
<g id="a_Node000003"><a xlink:href="namespaceutil_1_1methods.html#a36d10e724a3c2d06b047c116ab7ecc2f" target="_top" xlink:title="Returns the minimum and index of minimum from list of data.">
<polygon fill="white" stroke="#666666" points="128,-164 0,-164 0,-134 128,-134 128,-164"/>
<text text-anchor="start" x="8" y="-152" font-family="Arial" font-size="10.00">util::methods::minAndMin</text>
<text text-anchor="middle" x="64" y="-141" font-family="Arial" font-size="10.00">Index</text>
</a>
</g>
</g>
<!-- Node1&#45;&gt;Node3 -->
<g id="edge2_Node000001_Node000003" class="edge">
<title>Node1&#45;&gt;Node3</title>
<g id="a_edge2_Node000001_Node000003"><a xlink:title=" ">
<path fill="none" stroke="#63b8ff" d="M177.88,-118.18C159.87,-123.1 138.9,-128.82 119.96,-133.99"/>
<polygon fill="#63b8ff" stroke="#63b8ff" points="178.82,-121.55 187.55,-115.54 176.98,-114.8 178.82,-121.55"/>
</a>
</g>
</g>
<!-- Node4 -->
<g id="Node000004" class="node">
<title>Node4</title>
<g id="a_Node000004"><a xlink:href="namespaceutil_1_1methods.html#a755a4295ae14f1f9adf84fa6eeb3ad29" target="_top" xlink:title="Returns the minimum length of point from list of points.">
<polygon fill="white" stroke="#666666" points="126,-115.5 2,-115.5 2,-96.5 126,-96.5 126,-115.5"/>
<text text-anchor="middle" x="64" y="-103.5" font-family="Arial" font-size="10.00">util::methods::minLength</text>
</a>
</g>
</g>
<!-- Node1&#45;&gt;Node4 -->
<g id="edge3_Node000001_Node000004" class="edge">
<title>Node1&#45;&gt;Node4</title>
<g id="a_edge3_Node000001_Node000004"><a xlink:title=" ">
<path fill="none" stroke="#63b8ff" d="M153.61,-106C144.44,-106 135.09,-106 126.07,-106"/>
<polygon fill="#63b8ff" stroke="#63b8ff" points="153.85,-109.5 163.85,-106 153.85,-102.5 153.85,-109.5"/>
</a>
</g>
</g>
<!-- Node5 -->
<g id="Node000005" class="node">
<title>Node5</title>
<g id="a_Node000005"><a xlink:href="namespaceutil_1_1methods.html#aeabd46d5107c0e612523b89614b5764e" target="_top" xlink:title="Returns the minimum length of point and index from list of points.">
<polygon fill="white" stroke="#666666" points="126,-78 2,-78 2,-48 126,-48 126,-78"/>
<text text-anchor="start" x="10" y="-66" font-family="Arial" font-size="10.00">util::methods::minLength</text>
<text text-anchor="middle" x="64" y="-55" font-family="Arial" font-size="10.00">AndMinLengthIndex</text>
</a>
</g>
</g>
<!-- Node1&#45;&gt;Node5 -->
<g id="edge4_Node000001_Node000005" class="edge">
<title>Node1&#45;&gt;Node5</title>
<g id="a_edge4_Node000001_Node000005"><a xlink:title=" ">
<path fill="none" stroke="#63b8ff" d="M177.88,-93.82C159.87,-88.9 138.9,-83.18 119.96,-78.01"/>
<polygon fill="#63b8ff" stroke="#63b8ff" points="176.98,-97.2 187.55,-96.46 178.82,-90.45 176.98,-97.2"/>
</a>
</g>
</g>
<!-- Node6 -->
<g id="Node000006" class="node">
<title>Node6</title>
<g id="a_Node000006"><a xlink:href="namespaceutil_1_1methods.html#a9fb2c7ce477dbb45e4a639d6241c5b53" target="_top" xlink:title="Returns the index that has minimum length of point from list of points.">
<polygon fill="white" stroke="#666666" points="126,-30 2,-30 2,0 126,0 126,-30"/>
<text text-anchor="start" x="10" y="-18" font-family="Arial" font-size="10.00">util::methods::minLength</text>
<text text-anchor="middle" x="64" y="-7" font-family="Arial" font-size="10.00">Index</text>
</a>
</g>
</g>
<!-- Node1&#45;&gt;Node6 -->
<g id="edge5_Node000001_Node000006" class="edge">
<title>Node1&#45;&gt;Node6</title>
<g id="a_edge5_Node000001_Node000006"><a xlink:title=" ">
<path fill="none" stroke="#63b8ff" d="M202.96,-89.91C184.49,-75.25 155.57,-53.72 128,-39 122.01,-35.8 115.5,-32.82 109.02,-30.13"/>
<polygon fill="#63b8ff" stroke="#63b8ff" points="200.92,-92.76 210.9,-96.3 205.3,-87.3 200.92,-92.76"/>
</a>
</g>
</g>
</g>
</svg>
