<?xml version="1.0" encoding="UTF-8" standalone="no"?>
<!DOCTYPE svg PUBLIC "-//W3C//DTD SVG 1.1//EN"
 "http://www.w3.org/Graphics/SVG/1.1/DTD/svg11.dtd">
<!-- Generated by graphviz version 2.43.0 (0)
 -->
<!-- Title: util::getCenter Pages: 1 -->
<svg width="560pt" height="422pt"
 viewBox="0.00 0.00 560.00 422.00" xmlns="http://www.w3.org/2000/svg" xmlns:xlink="http://www.w3.org/1999/xlink">
<g id="graph0" class="graph" transform="scale(1 1) rotate(0) translate(4 418)">
<title>util::getCenter</title>
<!-- Node1 -->
<g id="Node000001" class="node">
<title>Node1</title>
<g id="a_Node000001"><a xlink:title="Returns center point.">
<polygon fill="#999999" stroke="#666666" points="552,-139.5 474,-139.5 474,-120.5 552,-120.5 552,-139.5"/>
<text text-anchor="middle" x="513" y="-127.5" font-family="Arial" font-size="10.00">util::getCenter</text>
</a>
</g>
</g>
<!-- Node2 -->
<g id="Node000002" class="node">
<title>Node2</title>
<g id="a_Node000002"><a xlink:href="namespaceutil.html#a21a4c0c512c91e3de03f432d304dd4bd" target="_top" xlink:title="Checks if given two boxes are within given distance from each other.">
<polygon fill="white" stroke="#666666" points="267.5,-216.5 169.5,-216.5 169.5,-197.5 267.5,-197.5 267.5,-216.5"/>
<text text-anchor="middle" x="218.5" y="-204.5" font-family="Arial" font-size="10.00">util::areBoxesNear</text>
</a>
</g>
</g>
<!-- Node1&#45;&gt;Node2 -->
<g id="edge1_Node000001_Node000002" class="edge">
<title>Node1&#45;&gt;Node2</title>
<g id="a_edge1_Node000001_Node000002"><a xlink:title=" ">
<path fill="none" stroke="#63b8ff" d="M489.97,-145.29C475.76,-154.43 456.52,-165.5 438,-172 381.45,-191.85 312.68,-200.5 267.59,-204.24"/>
<polygon fill="#63b8ff" stroke="#63b8ff" points="492.12,-148.06 498.53,-139.62 488.26,-142.22 492.12,-148.06"/>
</a>
</g>
</g>
<!-- Node12 -->
<g id="Node000012" class="node">
<title>Node12</title>
<g id="a_Node000012"><a xlink:href="namespaceutil.html#af6ab7e8072282977994d4c13e470dfc7" target="_top" xlink:title="Computes the radius of smallest circle/sphere which can have the box inside.">
<polygon fill="white" stroke="#666666" points="438,-145 311,-145 311,-115 438,-115 438,-145"/>
<text text-anchor="start" x="319" y="-133" font-family="Arial" font-size="10.00">util::circumscribedRadius</text>
<text text-anchor="middle" x="374.5" y="-122" font-family="Arial" font-size="10.00">InBox</text>
</a>
</g>
</g>
<!-- Node1&#45;&gt;Node12 -->
<g id="edge11_Node000001_Node000012" class="edge">
<title>Node1&#45;&gt;Node12</title>
<g id="a_edge11_Node000001_Node000012"><a xlink:title=" ">
<path fill="none" stroke="#63b8ff" d="M463.76,-130C455.47,-130 446.76,-130 438.16,-130"/>
<polygon fill="#63b8ff" stroke="#63b8ff" points="463.98,-133.5 473.98,-130 463.98,-126.5 463.98,-133.5"/>
</a>
</g>
</g>
<!-- Node13 -->
<g id="Node000013" class="node">
<title>Node13</title>
<g id="a_Node000013"><a xlink:href="classutil_1_1geometry_1_1Circle.html#a26974c271cfd557a362709cfadca18a4" target="_top" xlink:title="Checks if box is within given distance of this object.">
<polygon fill="white" stroke="#666666" points="272,-176 165,-176 165,-146 272,-146 272,-176"/>
<text text-anchor="start" x="173" y="-164" font-family="Arial" font-size="10.00">util::geometry::Circle</text>
<text text-anchor="middle" x="218.5" y="-153" font-family="Arial" font-size="10.00">::isNear</text>
</a>
</g>
</g>
<!-- Node1&#45;&gt;Node13 -->
<g id="edge15_Node000001_Node000013" class="edge">
<title>Node1&#45;&gt;Node13</title>
<g id="a_edge15_Node000001_Node000013"><a xlink:title=" ">
<path fill="none" stroke="#63b8ff" d="M478.83,-142.96C466.24,-147.29 451.65,-151.62 438,-154 381.92,-163.79 316.54,-164.51 272.02,-163.43"/>
<polygon fill="#63b8ff" stroke="#63b8ff" points="480.2,-146.19 488.44,-139.52 477.84,-139.6 480.2,-146.19"/>
</a>
</g>
</g>
<!-- Node14 -->
<g id="Node000014" class="node">
<title>Node14</title>
<g id="a_Node000014"><a xlink:href="classutil_1_1geometry_1_1Sphere.html#af568776ec54d2ef7c99af31851ce0107" target="_top" xlink:title="Checks if box is within given distance of this object.">
<polygon fill="white" stroke="#666666" points="275,-121 162,-121 162,-91 275,-91 275,-121"/>
<text text-anchor="start" x="170" y="-109" font-family="Arial" font-size="10.00">util::geometry::Sphere</text>
<text text-anchor="middle" x="218.5" y="-98" font-family="Arial" font-size="10.00">::isNear</text>
</a>
</g>
</g>
<!-- Node1&#45;&gt;Node14 -->
<g id="edge16_Node000001_Node000014" class="edge">
<title>Node1&#45;&gt;Node14</title>
<g id="a_edge16_Node000001_Node000014"><a xlink:title=" ">
<path fill="none" stroke="#63b8ff" d="M479.16,-116.9C466.51,-112.51 451.79,-108.18 438,-106 383.11,-97.32 319.49,-98.58 275.1,-101.24"/>
<polygon fill="#63b8ff" stroke="#63b8ff" points="478.21,-120.28 488.8,-120.4 480.59,-113.7 478.21,-120.28"/>
</a>
</g>
</g>
<!-- Node15 -->
<g id="Node000015" class="node">
<title>Node15</title>
<g id="a_Node000015"><a xlink:href="namespacetest.html#ad3c8cad23ca76bc12534c5487df9a25f" target="_top" xlink:title="Test methods">
<polygon fill="white" stroke="#666666" points="428.5,-58.5 320.5,-58.5 320.5,-39.5 428.5,-39.5 428.5,-58.5"/>
<text text-anchor="middle" x="374.5" y="-46.5" font-family="Arial" font-size="10.00">test::testUtilMethods</text>
</a>
</g>
</g>
<!-- Node1&#45;&gt;Node15 -->
<g id="edge17_Node000001_Node000015" class="edge">
<title>Node1&#45;&gt;Node15</title>
<g id="a_edge17_Node000001_Node000015"><a xlink:title=" ">
<path fill="none" stroke="#63b8ff" d="M494.03,-113.75C479.65,-101.37 458.57,-84.55 438,-73 427.86,-67.31 416.11,-62.4 405.55,-58.54"/>
<polygon fill="#63b8ff" stroke="#63b8ff" points="491.84,-116.49 501.66,-120.45 496.45,-111.23 491.84,-116.49"/>
</a>
</g>
</g>
<!-- Node3 -->
<g id="Node000003" class="node">
<title>Node3</title>
<g id="a_Node000003"><a xlink:href="classutil_1_1geometry_1_1Triangle.html#a48ae3ed64cecfc395906a1bf68bf973d" target="_top" xlink:title="Checks if box is within given distance of this object.">
<polygon fill="white" stroke="#666666" points="121,-414 5,-414 5,-384 121,-384 121,-414"/>
<text text-anchor="start" x="13" y="-402" font-family="Arial" font-size="10.00">util::geometry::Triangle</text>
<text text-anchor="middle" x="63" y="-391" font-family="Arial" font-size="10.00">::isNear</text>
</a>
</g>
</g>
<!-- Node2&#45;&gt;Node3 -->
<g id="edge2_Node000002_Node000003" class="edge">
<title>Node2&#45;&gt;Node3</title>
<g id="a_edge2_Node000002_Node000003"><a xlink:title=" ">
<path fill="none" stroke="#63b8ff" d="M211.76,-226.72C200.7,-261.37 173.29,-333.47 126,-375 122.1,-378.43 117.65,-381.39 112.97,-383.95"/>
<polygon fill="#63b8ff" stroke="#63b8ff" points="215.19,-227.45 214.77,-216.87 208.5,-225.4 215.19,-227.45"/>
</a>
</g>
</g>
<!-- Node4 -->
<g id="Node000004" class="node">
<title>Node4</title>
<g id="a_Node000004"><a xlink:href="classutil_1_1geometry_1_1Square.html#aeca313e91b6ebde43320b3a620df7341" target="_top" xlink:title="Checks if box is within given distance of this object.">
<polygon fill="white" stroke="#666666" points="119.5,-366 6.5,-366 6.5,-336 119.5,-336 119.5,-366"/>
<text text-anchor="start" x="14.5" y="-354" font-family="Arial" font-size="10.00">util::geometry::Square</text>
<text text-anchor="middle" x="63" y="-343" font-family="Arial" font-size="10.00">::isNear</text>
</a>
</g>
</g>
<!-- Node2&#45;&gt;Node4 -->
<g id="edge3_Node000002_Node000004" class="edge">
<title>Node2&#45;&gt;Node4</title>
<g id="a_edge3_Node000002_Node000004"><a xlink:title=" ">
<path fill="none" stroke="#63b8ff" d="M207.85,-225.34C193.33,-251.32 163.52,-298.81 126,-327 121.48,-330.4 116.42,-333.37 111.19,-335.96"/>
<polygon fill="#63b8ff" stroke="#63b8ff" points="210.94,-226.98 212.65,-216.52 204.8,-223.63 210.94,-226.98"/>
</a>
</g>
</g>
<!-- Node5 -->
<g id="Node000005" class="node">
<title>Node5</title>
<g id="a_Node000005"><a xlink:href="classutil_1_1geometry_1_1Rectangle.html#ab9e5e172e1a2542eb606f211562892ac" target="_top" xlink:title="Checks if box is within given distance of this object.">
<polygon fill="white" stroke="#666666" points="126,-318 0,-318 0,-288 126,-288 126,-318"/>
<text text-anchor="start" x="8" y="-306" font-family="Arial" font-size="10.00">util::geometry::Rectangle</text>
<text text-anchor="middle" x="63" y="-295" font-family="Arial" font-size="10.00">::isNear</text>
</a>
</g>
</g>
<!-- Node2&#45;&gt;Node5 -->
<g id="edge4_Node000002_Node000005" class="edge">
<title>Node2&#45;&gt;Node5</title>
<g id="a_edge4_Node000002_Node000005"><a xlink:title=" ">
<path fill="none" stroke="#63b8ff" d="M199.78,-223.59C182.14,-239.43 153.77,-263.17 126,-279 120.28,-282.26 114.04,-285.25 107.79,-287.95"/>
<polygon fill="#63b8ff" stroke="#63b8ff" points="202.5,-225.84 207.53,-216.51 197.78,-220.67 202.5,-225.84"/>
</a>
</g>
</g>
<!-- Node6 -->
<g id="Node000006" class="node">
<title>Node6</title>
<g id="a_Node000006"><a xlink:href="classutil_1_1geometry_1_1Hexagon.html#a22113f305ef928c9bf09b0817a68ea8f" target="_top" xlink:title="Checks if box is within given distance of this object.">
<polygon fill="white" stroke="#666666" points="123.5,-270 2.5,-270 2.5,-240 123.5,-240 123.5,-270"/>
<text text-anchor="start" x="10.5" y="-258" font-family="Arial" font-size="10.00">util::geometry::Hexagon</text>
<text text-anchor="middle" x="63" y="-247" font-family="Arial" font-size="10.00">::isNear</text>
</a>
</g>
</g>
<!-- Node2&#45;&gt;Node6 -->
<g id="edge5_Node000002_Node000006" class="edge">
<title>Node2&#45;&gt;Node6</title>
<g id="a_edge5_Node000002_Node000006"><a xlink:title=" ">
<path fill="none" stroke="#63b8ff" d="M177.11,-219.63C157.2,-225.86 133.04,-233.41 112.17,-239.94"/>
<polygon fill="#63b8ff" stroke="#63b8ff" points="178.31,-222.92 186.81,-216.6 176.22,-216.24 178.31,-222.92"/>
</a>
</g>
</g>
<!-- Node7 -->
<g id="Node000007" class="node">
<title>Node7</title>
<g id="a_Node000007"><a xlink:href="classutil_1_1geometry_1_1Drum2D.html#a6b4a0ee14758e9354d6e3566e74edfc9" target="_top" xlink:title="Checks if box is within given distance of this object.">
<polygon fill="white" stroke="#666666" points="122.5,-222 3.5,-222 3.5,-192 122.5,-192 122.5,-222"/>
<text text-anchor="start" x="11.5" y="-210" font-family="Arial" font-size="10.00">util::geometry::Drum2D</text>
<text text-anchor="middle" x="63" y="-199" font-family="Arial" font-size="10.00">::isNear</text>
</a>
</g>
</g>
<!-- Node2&#45;&gt;Node7 -->
<g id="edge6_Node000002_Node000007" class="edge">
<title>Node2&#45;&gt;Node7</title>
<g id="a_edge6_Node000002_Node000007"><a xlink:title=" ">
<path fill="none" stroke="#63b8ff" d="M159.09,-207C147.19,-207 134.67,-207 122.76,-207"/>
<polygon fill="#63b8ff" stroke="#63b8ff" points="159.35,-210.5 169.35,-207 159.35,-203.5 159.35,-210.5"/>
</a>
</g>
</g>
<!-- Node8 -->
<g id="Node000008" class="node">
<title>Node8</title>
<g id="a_Node000008"><a xlink:href="classutil_1_1geometry_1_1Cube.html#aac5be48370823593083e6da438bdb962" target="_top" xlink:title="Checks if box is within given distance of this object.">
<polygon fill="white" stroke="#666666" points="115.5,-174 10.5,-174 10.5,-144 115.5,-144 115.5,-174"/>
<text text-anchor="start" x="18.5" y="-162" font-family="Arial" font-size="10.00">util::geometry::Cube</text>
<text text-anchor="middle" x="63" y="-151" font-family="Arial" font-size="10.00">::isNear</text>
</a>
</g>
</g>
<!-- Node2&#45;&gt;Node8 -->
<g id="edge7_Node000002_Node000008" class="edge">
<title>Node2&#45;&gt;Node8</title>
<g id="a_edge7_Node000002_Node000008"><a xlink:title=" ">
<path fill="none" stroke="#63b8ff" d="M177.11,-194.37C157.2,-188.14 133.04,-180.59 112.17,-174.06"/>
<polygon fill="#63b8ff" stroke="#63b8ff" points="176.22,-197.76 186.81,-197.4 178.31,-191.08 176.22,-197.76"/>
</a>
</g>
</g>
<!-- Node9 -->
<g id="Node000009" class="node">
<title>Node9</title>
<g id="a_Node000009"><a xlink:href="classutil_1_1geometry_1_1Cuboid.html#ac88433cc43e94f4f1a399ba8776e4986" target="_top" xlink:title="Checks if box is within given distance of this object.">
<polygon fill="white" stroke="#666666" points="119.5,-126 6.5,-126 6.5,-96 119.5,-96 119.5,-126"/>
<text text-anchor="start" x="14.5" y="-114" font-family="Arial" font-size="10.00">util::geometry::Cuboid</text>
<text text-anchor="middle" x="63" y="-103" font-family="Arial" font-size="10.00">::isNear</text>
</a>
</g>
</g>
<!-- Node2&#45;&gt;Node9 -->
<g id="edge8_Node000002_Node000009" class="edge">
<title>Node2&#45;&gt;Node9</title>
<g id="a_edge8_Node000002_Node000009"><a xlink:title=" ">
<path fill="none" stroke="#63b8ff" d="M175.28,-193.29C170.58,-190.9 166.04,-188.15 162,-185 140.4,-168.17 147.66,-151.75 126,-135 121.62,-131.61 116.7,-128.65 111.6,-126.07"/>
<polygon fill="#63b8ff" stroke="#63b8ff" points="173.88,-196.5 184.44,-197.45 176.78,-190.12 173.88,-196.5"/>
</a>
</g>
</g>
<!-- Node10 -->
<g id="Node000010" class="node">
<title>Node10</title>
<g id="a_Node000010"><a xlink:href="classutil_1_1geometry_1_1Ellipse.html#a0bf847887af9b3d3816a774e37b3f491" target="_top" xlink:title="Checks if box is within given distance of this object.">
<polygon fill="white" stroke="#666666" points="118.5,-78 7.5,-78 7.5,-48 118.5,-48 118.5,-78"/>
<text text-anchor="start" x="15.5" y="-66" font-family="Arial" font-size="10.00">util::geometry::Ellipse</text>
<text text-anchor="middle" x="63" y="-55" font-family="Arial" font-size="10.00">::isNear</text>
</a>
</g>
</g>
<!-- Node2&#45;&gt;Node10 -->
<g id="edge9_Node000002_Node000010" class="edge">
<title>Node2&#45;&gt;Node10</title>
<g id="a_edge9_Node000002_Node000010"><a xlink:title=" ">
<path fill="none" stroke="#63b8ff" d="M171.51,-192.59C168.04,-190.4 164.81,-187.88 162,-185 129.61,-151.78 158.53,-120.09 126,-87 122.6,-83.54 118.65,-80.57 114.42,-78.03"/>
<polygon fill="#63b8ff" stroke="#63b8ff" points="170.02,-195.76 180.49,-197.39 173.32,-189.59 170.02,-195.76"/>
</a>
</g>
</g>
<!-- Node11 -->
<g id="Node000011" class="node">
<title>Node11</title>
<g id="a_Node000011"><a xlink:href="classutil_1_1geometry_1_1Cylinder.html#a5e2547782e3c159abff3977dd872a8cc" target="_top" xlink:title="Checks if box is within given distance of this object.">
<polygon fill="white" stroke="#666666" points="122,-30 4,-30 4,0 122,0 122,-30"/>
<text text-anchor="start" x="12" y="-18" font-family="Arial" font-size="10.00">util::geometry::Cylinder</text>
<text text-anchor="middle" x="63" y="-7" font-family="Arial" font-size="10.00">::isNear</text>
</a>
</g>
</g>
<!-- Node2&#45;&gt;Node11 -->
<g id="edge10_Node000002_Node000011" class="edge">
<title>Node2&#45;&gt;Node11</title>
<g id="a_edge10_Node000002_Node000011"><a xlink:title=" ">
<path fill="none" stroke="#63b8ff" d="M170.45,-192.43C167.33,-190.28 164.46,-187.82 162,-185 118.05,-134.65 170.15,-89.17 126,-39 122.95,-35.53 119.34,-32.57 115.42,-30.02"/>
<polygon fill="#63b8ff" stroke="#63b8ff" points="168.75,-195.49 179.17,-197.42 172.23,-189.42 168.75,-195.49"/>
</a>
</g>
</g>
<!-- Node12&#45;&gt;Node2 -->
<g id="edge12_Node000012_Node000002" class="edge">
<title>Node12&#45;&gt;Node2</title>
<g id="a_edge12_Node000012_Node000002"><a xlink:title=" ">
<path fill="none" stroke="#63b8ff" d="M339.72,-150.32C320.97,-161.22 297.05,-174.53 275,-185 265.64,-189.45 255.12,-193.78 245.78,-197.4"/>
<polygon fill="#63b8ff" stroke="#63b8ff" points="341.62,-153.26 348.47,-145.18 338.08,-147.22 341.62,-153.26"/>
</a>
</g>
</g>
<!-- Node12&#45;&gt;Node13 -->
<g id="edge13_Node000012_Node000013" class="edge">
<title>Node12&#45;&gt;Node13</title>
<g id="a_edge13_Node000012_Node000013"><a xlink:title=" ">
<path fill="none" stroke="#63b8ff" d="M300.86,-144.62C291.2,-146.57 281.46,-148.53 272.23,-150.39"/>
<polygon fill="#63b8ff" stroke="#63b8ff" points="301.75,-148.01 310.86,-142.61 300.37,-141.15 301.75,-148.01"/>
</a>
</g>
</g>
<!-- Node12&#45;&gt;Node14 -->
<g id="edge14_Node000012_Node000014" class="edge">
<title>Node12&#45;&gt;Node14</title>
<g id="a_edge14_Node000012_Node000014"><a xlink:title=" ">
<path fill="none" stroke="#63b8ff" d="M300.8,-118.67C292.18,-117.33 283.48,-115.97 275.15,-114.67"/>
<polygon fill="#63b8ff" stroke="#63b8ff" points="300.44,-122.16 310.86,-120.24 301.52,-115.24 300.44,-122.16"/>
</a>
</g>
</g>
<!-- Node16 -->
<g id="Node000016" class="node">
<title>Node16</title>
<g id="a_Node000016"><a xlink:href="testUtil_8cpp.html#a0ddf1224851353fc92bfbff6f499fa97" target="_top" xlink:title=" ">
<polygon fill="white" stroke="#666666" points="237.5,-58.5 199.5,-58.5 199.5,-39.5 237.5,-39.5 237.5,-58.5"/>
<text text-anchor="middle" x="218.5" y="-46.5" font-family="Arial" font-size="10.00">main</text>
</a>
</g>
</g>
<!-- Node15&#45;&gt;Node16 -->
<g id="edge18_Node000015_Node000016" class="edge">
<title>Node15&#45;&gt;Node16</title>
<g id="a_edge18_Node000015_Node000016"><a xlink:title=" ">
<path fill="none" stroke="#63b8ff" d="M309.82,-49C283.74,-49 255.54,-49 237.72,-49"/>
<polygon fill="#63b8ff" stroke="#63b8ff" points="310.07,-52.5 320.07,-49 310.07,-45.5 310.07,-52.5"/>
</a>
</g>
</g>
</g>
</svg>
