<?xml version="1.0" encoding="UTF-8" standalone="no"?>
<!DOCTYPE svg PUBLIC "-//W3C//DTD SVG 1.1//EN"
 "http://www.w3.org/Graphics/SVG/1.1/DTD/svg11.dtd">
<!-- Generated by graphviz version 2.43.0 (0)
 -->
<!-- Title: problem_setup.get_ref_triangle_points Pages: 1 -->
<svg width="848pt" height="832pt"
 viewBox="0.00 0.00 848.00 831.68" xmlns="http://www.w3.org/2000/svg" xmlns:xlink="http://www.w3.org/1999/xlink">
<g id="graph0" class="graph" transform="scale(1 1) rotate(0) translate(4 827.68)">
<title>problem_setup.get_ref_triangle_points</title>
<!-- Node1 -->
<g id="Node000001" class="node">
<title>Node1</title>
<g id="a_Node000001"><a xlink:title=" ">
<polygon fill="#999999" stroke="#666666" points="840,-643 727,-643 727,-613 840,-613 840,-643"/>
<text text-anchor="start" x="735" y="-631" font-family="Arial" font-size="10.00">problem_setup.get_ref</text>
<text text-anchor="middle" x="783.5" y="-620" font-family="Arial" font-size="10.00">_triangle_points</text>
</a>
</g>
</g>
<!-- Node2 -->
<g id="Node000002" class="node">
<title>Node2</title>
<g id="a_Node000002"><a xlink:href="namespaceproblem__setup.html#af9b7fe599289ca784b2fb5033b45f555" target="_top" xlink:title=" ">
<polygon fill="white" stroke="#666666" points="691,-743 560,-743 560,-691 691,-691 691,-743"/>
<text text-anchor="start" x="568" y="-731" font-family="Arial" font-size="10.00">problem_setup.does</text>
<text text-anchor="start" x="568" y="-720" font-family="Arial" font-size="10.00">_intersect_with_rectangle</text>
<text text-anchor="start" x="568" y="-709" font-family="Arial" font-size="10.00">_wall_with_protrusion_and</text>
<text text-anchor="middle" x="625.5" y="-698" font-family="Arial" font-size="10.00">_opening</text>
</a>
</g>
</g>
<!-- Node1&#45;&gt;Node2 -->
<g id="edge1_Node000001_Node000002" class="edge">
<title>Node1&#45;&gt;Node2</title>
<g id="a_edge1_Node000001_Node000002"><a xlink:title=" ">
<path fill="none" stroke="#63b8ff" d="M747.26,-648.11C725.01,-660.8 696.06,-677.31 672.08,-691"/>
<polygon fill="#63b8ff" stroke="#63b8ff" points="749.09,-651.09 756.04,-643.1 745.62,-645.01 749.09,-651.09"/>
</a>
</g>
</g>
<!-- Node3 -->
<g id="Node000003" class="node">
<title>Node3</title>
<g id="a_Node000003"><a xlink:href="namespaceproblem__setup.html#a0f7d40f23d1b185984a76d97e00f706b" target="_top" xlink:title=" ">
<polygon fill="white" stroke="#666666" points="524,-769.5 395,-769.5 395,-750.5 524,-750.5 524,-769.5"/>
<text text-anchor="middle" x="459.5" y="-757.5" font-family="Arial" font-size="10.00">problem_setup.get_center</text>
</a>
</g>
</g>
<!-- Node1&#45;&gt;Node3 -->
<g id="edge35_Node000001_Node000003" class="edge">
<title>Node1&#45;&gt;Node3</title>
<g id="a_edge35_Node000001_Node000003"><a xlink:title=" ">
<path fill="none" stroke="#63b8ff" d="M716.55,-631.38C669.3,-636.64 606.12,-649.73 560,-682 536.37,-698.53 546.57,-718.04 524,-736 516.25,-742.16 506.75,-746.87 497.49,-750.4"/>
<polygon fill="#63b8ff" stroke="#63b8ff" points="717.09,-634.85 726.68,-630.35 716.38,-627.88 717.09,-634.85"/>
</a>
</g>
</g>
<!-- Node5 -->
<g id="Node000005" class="node">
<title>Node5</title>
<g id="a_Node000005"><a xlink:href="namespaceproblem__setup.html#a1fec8dd536ff2dc0499259901333ee04" target="_top" xlink:title=" ">
<polygon fill="white" stroke="#666666" points="324.5,-818 209.5,-818 209.5,-788 324.5,-788 324.5,-818"/>
<text text-anchor="start" x="217.5" y="-806" font-family="Arial" font-size="10.00">problem_setup.particle</text>
<text text-anchor="middle" x="267" y="-795" font-family="Arial" font-size="10.00">_locations_old</text>
</a>
</g>
</g>
<!-- Node1&#45;&gt;Node5 -->
<g id="edge38_Node000001_Node000005" class="edge">
<title>Node1&#45;&gt;Node5</title>
<g id="a_edge38_Node000001_Node000005"><a xlink:title=" ">
<path fill="none" stroke="#63b8ff" d="M774.41,-652.78C762.17,-685.88 735.5,-743.44 691,-770 575.88,-838.71 410.65,-826.4 324.74,-813.55"/>
<polygon fill="#63b8ff" stroke="#63b8ff" points="777.71,-653.95 777.75,-643.35 771.11,-651.61 777.71,-653.95"/>
</a>
</g>
</g>
<!-- Node6 -->
<g id="Node000006" class="node">
<title>Node6</title>
<g id="a_Node000006"><a xlink:href="namespaceproblem__setup.html#a87e250dde89814728e8bbb3257fa3d67" target="_top" xlink:title=" ">
<polygon fill="white" stroke="#666666" points="686.5,-598 564.5,-598 564.5,-568 686.5,-568 686.5,-598"/>
<text text-anchor="start" x="572.5" y="-586" font-family="Arial" font-size="10.00">problem_setup.generate</text>
<text text-anchor="middle" x="625.5" y="-575" font-family="Arial" font-size="10.00">_tri_particle_gmsh_input</text>
</a>
</g>
</g>
<!-- Node1&#45;&gt;Node6 -->
<g id="edge7_Node000001_Node000006" class="edge">
<title>Node1&#45;&gt;Node6</title>
<g id="a_edge7_Node000001_Node000006"><a xlink:title=" ">
<path fill="none" stroke="#63b8ff" d="M720.25,-610.04C706.49,-606.07 692.05,-601.91 678.74,-598.07"/>
<polygon fill="#63b8ff" stroke="#63b8ff" points="719.54,-613.48 730.12,-612.89 721.48,-606.76 719.54,-613.48"/>
</a>
</g>
</g>
<!-- Node16 -->
<g id="Node000016" class="node">
<title>Node16</title>
<g id="a_Node000016"><a xlink:href="namespaceproblem__setup.html#a38db49e0a85dd22e69cae23f7f92435f" target="_top" xlink:title=" ">
<polygon fill="white" stroke="#666666" points="127,-130 12,-130 12,-100 127,-100 127,-130"/>
<text text-anchor="start" x="20" y="-118" font-family="Arial" font-size="10.00">problem_setup.particle</text>
<text text-anchor="middle" x="69.5" y="-107" font-family="Arial" font-size="10.00">_locations</text>
</a>
</g>
</g>
<!-- Node1&#45;&gt;Node16 -->
<g id="edge37_Node000001_Node000016" class="edge">
<title>Node1&#45;&gt;Node16</title>
<g id="a_edge37_Node000001_Node000016"><a xlink:title=" ">
<path fill="none" stroke="#63b8ff" d="M777.64,-602.66C760.22,-519.15 692.73,-250.74 524,-124 402.16,-32.49 205.41,-74.17 116.61,-99.98"/>
<polygon fill="#63b8ff" stroke="#63b8ff" points="774.23,-603.44 779.65,-612.54 781.09,-602.05 774.23,-603.44"/>
</a>
</g>
</g>
<!-- Node17 -->
<g id="Node000017" class="node">
<title>Node17</title>
<g id="a_Node000017"><a xlink:href="namespaceproblem__setup.html#a93f32e78adb37a28a0d66623c3e009c5" target="_top" xlink:title=" ">
<polygon fill="white" stroke="#666666" points="683,-30 568,-30 568,0 683,0 683,-30"/>
<text text-anchor="start" x="576" y="-18" font-family="Arial" font-size="10.00">problem_setup.particle</text>
<text text-anchor="middle" x="625.5" y="-7" font-family="Arial" font-size="10.00">_locations</text>
</a>
</g>
</g>
<!-- Node1&#45;&gt;Node17 -->
<g id="edge36_Node000001_Node000017" class="edge">
<title>Node1&#45;&gt;Node17</title>
<g id="a_edge36_Node000001_Node000017"><a xlink:title=" ">
<path fill="none" stroke="#63b8ff" d="M781.68,-602.92C777.96,-502.96 759.71,-134.04 691,-44 686.68,-38.34 681.01,-33.75 674.82,-30.05"/>
<polygon fill="#63b8ff" stroke="#63b8ff" points="778.19,-603.13 782.04,-613 785.18,-602.88 778.19,-603.13"/>
</a>
</g>
</g>
<!-- Node2&#45;&gt;Node2 -->
<g id="edge2_Node000002_Node000002" class="edge">
<title>Node2&#45;&gt;Node2</title>
<g id="a_edge2_Node000002_Node000002"><a xlink:title=" ">
<path fill="none" stroke="#63b8ff" d="M651.91,-752.76C647.55,-757.7 638.75,-761 625.5,-761 604.82,-761 594.97,-752.96 595.94,-743.2"/>
<polygon fill="#63b8ff" stroke="#63b8ff" points="655.26,-753.79 655.06,-743.2 648.61,-751.6 655.26,-753.79"/>
</a>
</g>
</g>
<!-- Node2&#45;&gt;Node3 -->
<g id="edge3_Node000002_Node000003" class="edge">
<title>Node2&#45;&gt;Node3</title>
<g id="a_edge3_Node000002_Node000003"><a xlink:title=" ">
<path fill="none" stroke="#63b8ff" d="M549.85,-736.57C531.49,-741.39 512.64,-746.33 497.01,-750.43"/>
<polygon fill="#63b8ff" stroke="#63b8ff" points="550.9,-739.92 559.68,-733.99 549.12,-733.15 550.9,-739.92"/>
</a>
</g>
</g>
<!-- Node4 -->
<g id="Node000004" class="node">
<title>Node4</title>
<g id="a_Node000004"><a xlink:href="namespaceproblem__setup.html#ab77cd691be605123ba53961f21c8885a" target="_top" xlink:title=" ">
<polygon fill="white" stroke="#666666" points="139,-703 0,-703 0,-673 139,-673 139,-703"/>
<text text-anchor="start" x="8" y="-691" font-family="Arial" font-size="10.00">problem_setup.generate</text>
<text text-anchor="middle" x="69.5" y="-680" font-family="Arial" font-size="10.00">_rect_container_gmsh_input</text>
</a>
</g>
</g>
<!-- Node3&#45;&gt;Node4 -->
<g id="edge4_Node000003_Node000004" class="edge">
<title>Node3&#45;&gt;Node4</title>
<g id="a_edge4_Node000003_Node000004"><a xlink:title=" ">
<path fill="none" stroke="#63b8ff" d="M384.78,-760.68C326.86,-759.57 244.62,-754.34 175,-736 147.01,-728.63 117.2,-714.21 96.61,-703.09"/>
<polygon fill="#63b8ff" stroke="#63b8ff" points="384.89,-764.18 394.94,-760.84 385,-757.19 384.89,-764.18"/>
</a>
</g>
</g>
<!-- Node3&#45;&gt;Node5 -->
<g id="edge6_Node000003_Node000005" class="edge">
<title>Node3&#45;&gt;Node5</title>
<g id="a_edge6_Node000003_Node000005"><a xlink:title=" ">
<path fill="none" stroke="#63b8ff" d="M406.42,-771.76C381.07,-777.48 350.54,-784.37 324.62,-790.22"/>
<polygon fill="#63b8ff" stroke="#63b8ff" points="407.24,-775.16 416.22,-769.54 405.7,-768.33 407.24,-775.16"/>
</a>
</g>
</g>
<!-- Node4&#45;&gt;Node4 -->
<g id="edge5_Node000004_Node000004" class="edge">
<title>Node4&#45;&gt;Node4</title>
<g id="a_edge5_Node000004_Node000004"><a xlink:title=" ">
<path fill="none" stroke="#63b8ff" d="M103.81,-713.6C99.12,-717.97 87.68,-721 69.5,-721 38.88,-721 27.39,-712.41 35.05,-703.28"/>
<polygon fill="#63b8ff" stroke="#63b8ff" points="107.31,-713.32 103.95,-703.28 100.31,-713.22 107.31,-713.32"/>
</a>
</g>
</g>
<!-- Node6&#45;&gt;Node4 -->
<g id="edge31_Node000006_Node000004" class="edge">
<title>Node6&#45;&gt;Node4</title>
<g id="a_edge31_Node000006_Node000004"><a xlink:title=" ">
<path fill="none" stroke="#63b8ff" d="M591.65,-603.37C543.01,-632.19 447.96,-683.44 359,-702 285,-717.44 198.11,-709.84 139.17,-700.98"/>
<polygon fill="#63b8ff" stroke="#63b8ff" points="593.68,-606.23 600.46,-598.09 590.09,-600.23 593.68,-606.23"/>
</a>
</g>
</g>
<!-- Node7 -->
<g id="Node000007" class="node">
<title>Node7</title>
<g id="a_Node000007"><a xlink:href="namespaceproblem__setup.html#a8ed53bd44082cee1b5381115a87451e2" target="_top" xlink:title=" ">
<polygon fill="white" stroke="#666666" points="514.5,-428 404.5,-428 404.5,-398 514.5,-398 514.5,-428"/>
<text text-anchor="start" x="412.5" y="-416" font-family="Arial" font-size="10.00">problem_setup.create</text>
<text text-anchor="middle" x="459.5" y="-405" font-family="Arial" font-size="10.00">_input_file</text>
</a>
</g>
</g>
<!-- Node6&#45;&gt;Node7 -->
<g id="edge8_Node000006_Node000007" class="edge">
<title>Node6&#45;&gt;Node7</title>
<g id="a_edge8_Node000006_Node000007"><a xlink:title=" ">
<path fill="none" stroke="#63b8ff" d="M602.81,-560.52C568.92,-525.39 504.28,-458.39 475.26,-428.3"/>
<polygon fill="#63b8ff" stroke="#63b8ff" points="600.48,-563.15 609.95,-567.91 605.52,-558.29 600.48,-563.15"/>
</a>
</g>
</g>
<!-- Node10 -->
<g id="Node000010" class="node">
<title>Node10</title>
<g id="a_Node000010"><a xlink:href="namespaceproblem__setup.html#a16a9d169ecf04b1a867bec4dbf274c01" target="_top" xlink:title=" ">
<polygon fill="white" stroke="#666666" points="343.5,-598 190.5,-598 190.5,-568 343.5,-568 343.5,-598"/>
<text text-anchor="start" x="198.5" y="-586" font-family="Arial" font-size="10.00">problem_setup.generate</text>
<text text-anchor="middle" x="267" y="-575" font-family="Arial" font-size="10.00">_moving_rect_wall_gmsh_input</text>
</a>
</g>
</g>
<!-- Node6&#45;&gt;Node10 -->
<g id="edge30_Node000006_Node000010" class="edge">
<title>Node6&#45;&gt;Node10</title>
<g id="a_edge30_Node000006_Node000010"><a xlink:title=" ">
<path fill="none" stroke="#63b8ff" d="M554.16,-583C493.39,-583 405.78,-583 343.53,-583"/>
<polygon fill="#63b8ff" stroke="#63b8ff" points="554.43,-586.5 564.43,-583 554.43,-579.5 554.43,-586.5"/>
</a>
</g>
</g>
<!-- Node14 -->
<g id="Node000014" class="node">
<title>Node14</title>
<g id="a_Node000014"><a xlink:href="namespaceproblem__setup.html#a8e72848abab104858c2a4647079140ed" target="_top" xlink:title=" ">
<polygon fill="white" stroke="#666666" points="359,-675.5 175,-675.5 175,-634.5 359,-634.5 359,-675.5"/>
<text text-anchor="start" x="183" y="-663.5" font-family="Arial" font-size="10.00">problem_setup.generate</text>
<text text-anchor="start" x="183" y="-652.5" font-family="Arial" font-size="10.00">_rectangle_with_protrusion</text>
<text text-anchor="middle" x="267" y="-641.5" font-family="Arial" font-size="10.00">_and_opening_wall_gmsh_input_type3</text>
</a>
</g>
</g>
<!-- Node6&#45;&gt;Node14 -->
<g id="edge32_Node000006_Node000014" class="edge">
<title>Node6&#45;&gt;Node14</title>
<g id="a_edge32_Node000006_Node000014"><a xlink:title=" ">
<path fill="none" stroke="#63b8ff" d="M554.62,-597.11C498.75,-608.4 419.98,-624.31 359.15,-636.59"/>
<polygon fill="#63b8ff" stroke="#63b8ff" points="555.32,-600.54 564.43,-595.13 553.93,-593.68 555.32,-600.54"/>
</a>
</g>
</g>
<!-- Node15 -->
<g id="Node000015" class="node">
<title>Node15</title>
<g id="a_Node000015"><a xlink:href="namespaceproblem__setup.html#afa462577a9adf91f5e2cb59a1eb7da7e" target="_top" xlink:title=" ">
<polygon fill="white" stroke="#666666" points="327.5,-192 206.5,-192 206.5,-162 327.5,-162 327.5,-192"/>
<text text-anchor="start" x="214.5" y="-180" font-family="Arial" font-size="10.00">problem_setup.generate</text>
<text text-anchor="middle" x="267" y="-169" font-family="Arial" font-size="10.00">_wall_gmsh_input</text>
</a>
</g>
</g>
<!-- Node6&#45;&gt;Node15 -->
<g id="edge33_Node000006_Node000015" class="edge">
<title>Node6&#45;&gt;Node15</title>
<g id="a_edge33_Node000006_Node000015"><a xlink:title=" ">
<path fill="none" stroke="#63b8ff" d="M614.58,-558.5C598.54,-520.37 564.6,-445.37 524,-389 462.46,-303.56 444.92,-279.87 359,-219 343.81,-208.24 325.42,-199.13 309.16,-192.18"/>
<polygon fill="#63b8ff" stroke="#63b8ff" points="611.37,-559.9 618.44,-567.79 617.84,-557.22 611.37,-559.9"/>
</a>
</g>
</g>
<!-- Node6&#45;&gt;Node16 -->
<g id="edge34_Node000006_Node000016" class="edge">
<title>Node6&#45;&gt;Node16</title>
<g id="a_edge34_Node000006_Node000016"><a xlink:title=" ">
<path fill="none" stroke="#63b8ff" d="M622.39,-557.99C616.31,-498.37 594.41,-345.19 524,-242 471.69,-165.34 446.81,-144.07 359,-114 282,-87.63 186.51,-95.14 127.03,-104.15"/>
<polygon fill="#63b8ff" stroke="#63b8ff" points="618.91,-558.38 623.35,-568 625.88,-557.71 618.91,-558.38"/>
</a>
</g>
</g>
<!-- Node7&#45;&gt;Node4 -->
<g id="edge20_Node000007_Node000004" class="edge">
<title>Node7&#45;&gt;Node4</title>
<g id="a_edge20_Node000007_Node000004"><a xlink:title=" ">
<path fill="none" stroke="#63b8ff" d="M443.24,-436.9C425.94,-461.93 395.36,-500.42 359,-521 286.33,-562.13 246.33,-515.58 175,-559 127.98,-587.62 92.95,-645.34 78.2,-672.81"/>
<polygon fill="#63b8ff" stroke="#63b8ff" points="446.32,-438.59 449,-428.34 440.52,-434.68 446.32,-438.59"/>
</a>
</g>
</g>
<!-- Node8 -->
<g id="Node000008" class="node">
<title>Node8</title>
<g id="a_Node000008"><a xlink:href="namespaceproblem__setup.html#a1e7145671d41dad41beed2d8c4f790e0" target="_top" xlink:title=" ">
<polygon fill="white" stroke="#666666" points="331,-362 203,-362 203,-332 331,-332 331,-362"/>
<text text-anchor="start" x="211" y="-350" font-family="Arial" font-size="10.00">problem_setup.generate</text>
<text text-anchor="middle" x="267" y="-339" font-family="Arial" font-size="10.00">_cuboid_wall_gmsh_input</text>
</a>
</g>
</g>
<!-- Node7&#45;&gt;Node8 -->
<g id="edge9_Node000007_Node000008" class="edge">
<title>Node7&#45;&gt;Node8</title>
<g id="a_edge9_Node000007_Node000008"><a xlink:title=" ">
<path fill="none" stroke="#63b8ff" d="M405.06,-394.48C375.52,-384.25 339.29,-371.7 311.5,-362.07"/>
<polygon fill="#63b8ff" stroke="#63b8ff" points="404.2,-397.89 414.8,-397.86 406.49,-391.28 404.2,-397.89"/>
</a>
</g>
</g>
<!-- Node9 -->
<g id="Node000009" class="node">
<title>Node9</title>
<g id="a_Node000009"><a xlink:href="namespaceproblem__setup.html#a15d340f22fc959eb9bc3ebf12be02887" target="_top" xlink:title=" ">
<polygon fill="white" stroke="#666666" points="335,-296 199,-296 199,-266 335,-266 335,-296"/>
<text text-anchor="start" x="207" y="-284" font-family="Arial" font-size="10.00">problem_setup.generate</text>
<text text-anchor="middle" x="267" y="-273" font-family="Arial" font-size="10.00">_drum_particle_gmsh_input</text>
</a>
</g>
</g>
<!-- Node7&#45;&gt;Node9 -->
<g id="edge11_Node000007_Node000009" class="edge">
<title>Node7&#45;&gt;Node9</title>
<g id="a_edge11_Node000007_Node000009"><a xlink:title=" ">
<path fill="none" stroke="#63b8ff" d="M437.48,-390.45C418.36,-370.85 388.68,-342.61 359,-323 343.03,-312.45 323.98,-303.21 307.45,-296.11"/>
<polygon fill="#63b8ff" stroke="#63b8ff" points="435.05,-392.98 444.51,-397.76 440.1,-388.12 435.05,-392.98"/>
</a>
</g>
</g>
<!-- Node7&#45;&gt;Node10 -->
<g id="edge13_Node000007_Node000010" class="edge">
<title>Node7&#45;&gt;Node10</title>
<g id="a_edge13_Node000007_Node000010"><a xlink:title=" ">
<path fill="none" stroke="#63b8ff" d="M447.4,-437.57C431.96,-469.03 401.09,-523.16 359,-554 351.24,-559.68 342.33,-564.28 333.18,-567.99"/>
<polygon fill="#63b8ff" stroke="#63b8ff" points="450.72,-438.74 451.86,-428.21 444.4,-435.72 450.72,-438.74"/>
</a>
</g>
</g>
<!-- Node11 -->
<g id="Node000011" class="node">
<title>Node11</title>
<g id="a_Node000011"><a xlink:href="namespaceproblem__setup.html#a4dd4df45d28c58aafac4fdf8aa8c554d" target="_top" xlink:title=" ">
<polygon fill="white" stroke="#666666" points="332.5,-428 201.5,-428 201.5,-398 332.5,-398 332.5,-428"/>
<text text-anchor="start" x="209.5" y="-416" font-family="Arial" font-size="10.00">problem_setup.generate</text>
<text text-anchor="middle" x="267" y="-405" font-family="Arial" font-size="10.00">_moving_wall_gmsh_input</text>
</a>
</g>
</g>
<!-- Node7&#45;&gt;Node11 -->
<g id="edge15_Node000007_Node000011" class="edge">
<title>Node7&#45;&gt;Node11</title>
<g id="a_edge15_Node000007_Node000011"><a xlink:title=" ">
<path fill="none" stroke="#63b8ff" d="M394.25,-413C374.41,-413 352.56,-413 332.69,-413"/>
<polygon fill="#63b8ff" stroke="#63b8ff" points="394.42,-416.5 404.42,-413 394.42,-409.5 394.42,-416.5"/>
</a>
</g>
</g>
<!-- Node12 -->
<g id="Node000012" class="node">
<title>Node12</title>
<g id="a_Node000012"><a xlink:href="namespaceproblem__setup.html#a881d38782fcef7d73522d8b9bfcdb3da" target="_top" xlink:title=" ">
<polygon fill="white" stroke="#666666" points="327.5,-494 206.5,-494 206.5,-464 327.5,-464 327.5,-494"/>
<text text-anchor="start" x="214.5" y="-482" font-family="Arial" font-size="10.00">problem_setup.generate</text>
<text text-anchor="middle" x="267" y="-471" font-family="Arial" font-size="10.00">_particle_gmsh_input</text>
</a>
</g>
</g>
<!-- Node7&#45;&gt;Node12 -->
<g id="edge17_Node000007_Node000012" class="edge">
<title>Node7&#45;&gt;Node12</title>
<g id="a_edge17_Node000007_Node000012"><a xlink:title=" ">
<path fill="none" stroke="#63b8ff" d="M416.4,-432.33C398.87,-439.97 378.17,-448.46 359,-455 348.95,-458.43 338.13,-461.66 327.59,-464.58"/>
<polygon fill="#63b8ff" stroke="#63b8ff" points="418.05,-435.43 425.79,-428.19 415.22,-429.02 418.05,-435.43"/>
</a>
</g>
</g>
<!-- Node13 -->
<g id="Node000013" class="node">
<title>Node13</title>
<g id="a_Node000013"><a xlink:href="namespaceproblem__setup.html#a021c61bf44d7c968582474d32605a1ad" target="_top" xlink:title=" ">
<polygon fill="white" stroke="#666666" points="130,-253 9,-253 9,-223 130,-223 130,-253"/>
<text text-anchor="start" x="17" y="-241" font-family="Arial" font-size="10.00">problem_setup.generate</text>
<text text-anchor="middle" x="69.5" y="-230" font-family="Arial" font-size="10.00">_wall_gmsh_input</text>
</a>
</g>
</g>
<!-- Node7&#45;&gt;Node13 -->
<g id="edge28_Node000007_Node000013" class="edge">
<title>Node7&#45;&gt;Node13</title>
<g id="a_edge28_Node000007_Node000013"><a xlink:title=" ">
<path fill="none" stroke="#63b8ff" d="M446.52,-388.79C426.26,-348.92 384.92,-272.34 359,-257 288.91,-215.52 191.78,-218.99 130.04,-227.09"/>
<polygon fill="#63b8ff" stroke="#63b8ff" points="443.46,-390.49 451.08,-397.84 449.71,-387.34 443.46,-390.49"/>
</a>
</g>
</g>
<!-- Node7&#45;&gt;Node14 -->
<g id="edge21_Node000007_Node000014" class="edge">
<title>Node7&#45;&gt;Node14</title>
<g id="a_edge21_Node000007_Node000014"><a xlink:title=" ">
<path fill="none" stroke="#63b8ff" d="M453.57,-437.9C443.57,-481.95 416.76,-573.8 359,-625 355.02,-628.53 350.61,-631.65 345.94,-634.4"/>
<polygon fill="#63b8ff" stroke="#63b8ff" points="457.01,-438.54 455.71,-428.02 450.17,-437.06 457.01,-438.54"/>
</a>
</g>
</g>
<!-- Node7&#45;&gt;Node15 -->
<g id="edge24_Node000007_Node000015" class="edge">
<title>Node7&#45;&gt;Node15</title>
<g id="a_edge24_Node000007_Node000015"><a xlink:title=" ">
<path fill="none" stroke="#63b8ff" d="M446.25,-388.79C421.1,-339.27 365.49,-230.44 359,-224 345.24,-210.35 326.7,-199.8 309.95,-192.19"/>
<polygon fill="#63b8ff" stroke="#63b8ff" points="443.2,-390.53 450.84,-397.86 449.44,-387.36 443.2,-390.53"/>
</a>
</g>
</g>
<!-- Node7&#45;&gt;Node16 -->
<g id="edge29_Node000007_Node000016" class="edge">
<title>Node7&#45;&gt;Node16</title>
<g id="a_edge29_Node000007_Node000016"><a xlink:title=" ">
<path fill="none" stroke="#63b8ff" d="M457.02,-387.7C452.46,-334.72 433.91,-212.12 359,-153 324.1,-125.46 200.83,-117.83 127.19,-115.74"/>
<polygon fill="#63b8ff" stroke="#63b8ff" points="453.55,-388.2 457.8,-397.9 460.53,-387.67 453.55,-388.2"/>
</a>
</g>
</g>
<!-- Node8&#45;&gt;Node8 -->
<g id="edge10_Node000008_Node000008" class="edge">
<title>Node8&#45;&gt;Node8</title>
<g id="a_edge10_Node000008_Node000008"><a xlink:title=" ">
<path fill="none" stroke="#63b8ff" d="M300.61,-372.6C296.01,-376.97 284.81,-380 267,-380 237,-380 225.75,-371.41 233.25,-362.28"/>
<polygon fill="#63b8ff" stroke="#63b8ff" points="304.11,-372.32 300.75,-362.28 297.11,-372.23 304.11,-372.32"/>
</a>
</g>
</g>
<!-- Node9&#45;&gt;Node9 -->
<g id="edge12_Node000009_Node000009" class="edge">
<title>Node9&#45;&gt;Node9</title>
<g id="a_edge12_Node000009_Node000009"><a xlink:title=" ">
<path fill="none" stroke="#63b8ff" d="M300.61,-306.6C296.01,-310.97 284.81,-314 267,-314 237,-314 225.75,-305.41 233.25,-296.28"/>
<polygon fill="#63b8ff" stroke="#63b8ff" points="304.11,-306.32 300.75,-296.28 297.11,-306.23 304.11,-306.32"/>
</a>
</g>
</g>
<!-- Node10&#45;&gt;Node10 -->
<g id="edge14_Node000010_Node000010" class="edge">
<title>Node10&#45;&gt;Node10</title>
<g id="a_edge14_Node000010_Node000010"><a xlink:title=" ">
<path fill="none" stroke="#63b8ff" d="M300.61,-608.6C296.01,-612.97 284.81,-616 267,-616 237,-616 225.75,-607.41 233.25,-598.28"/>
<polygon fill="#63b8ff" stroke="#63b8ff" points="304.11,-608.32 300.75,-598.28 297.11,-608.23 304.11,-608.32"/>
</a>
</g>
</g>
<!-- Node11&#45;&gt;Node11 -->
<g id="edge16_Node000011_Node000011" class="edge">
<title>Node11&#45;&gt;Node11</title>
<g id="a_edge16_Node000011_Node000011"><a xlink:title=" ">
<path fill="none" stroke="#63b8ff" d="M300.61,-438.6C296.01,-442.97 284.81,-446 267,-446 237,-446 225.75,-437.41 233.25,-428.28"/>
<polygon fill="#63b8ff" stroke="#63b8ff" points="304.11,-438.32 300.75,-428.28 297.11,-438.23 304.11,-438.32"/>
</a>
</g>
</g>
<!-- Node12&#45;&gt;Node12 -->
<g id="edge18_Node000012_Node000012" class="edge">
<title>Node12&#45;&gt;Node12</title>
<g id="a_edge18_Node000012_Node000012"><a xlink:title=" ">
<path fill="none" stroke="#63b8ff" d="M300.61,-504.6C296.01,-508.97 284.81,-512 267,-512 237,-512 225.75,-503.41 233.25,-494.28"/>
<polygon fill="#63b8ff" stroke="#63b8ff" points="304.11,-504.32 300.75,-494.28 297.11,-504.23 304.11,-504.32"/>
</a>
</g>
</g>
<!-- Node12&#45;&gt;Node13 -->
<g id="edge19_Node000012_Node000013" class="edge">
<title>Node12&#45;&gt;Node13</title>
<g id="a_edge19_Node000012_Node000013"><a xlink:title=" ">
<path fill="none" stroke="#63b8ff" d="M196.52,-467.58C188.75,-464.36 181.36,-460.25 175,-455 108.4,-400.04 81.25,-292.55 73.24,-253.04"/>
<polygon fill="#63b8ff" stroke="#63b8ff" points="195.54,-470.95 206.13,-471.08 197.93,-464.37 195.54,-470.95"/>
</a>
</g>
</g>
<!-- Node14&#45;&gt;Node4 -->
<g id="edge22_Node000014_Node000004" class="edge">
<title>Node14&#45;&gt;Node4</title>
<g id="a_edge22_Node000014_Node000004"><a xlink:title=" ">
<path fill="none" stroke="#63b8ff" d="M164.94,-672.06C156.17,-673.54 147.44,-675.01 139.03,-676.43"/>
<polygon fill="#63b8ff" stroke="#63b8ff" points="165.55,-675.5 174.83,-670.39 164.39,-668.6 165.55,-675.5"/>
</a>
</g>
</g>
<!-- Node14&#45;&gt;Node14 -->
<g id="edge23_Node000014_Node000014" class="edge">
<title>Node14&#45;&gt;Node14</title>
<g id="a_edge23_Node000014_Node000014"><a xlink:title=" ">
<path fill="none" stroke="#63b8ff" d="M300.03,-685.46C295.12,-690.24 284.11,-693.5 267,-693.5 239.62,-693.5 227.86,-685.15 231.71,-675.6"/>
<polygon fill="#63b8ff" stroke="#63b8ff" points="303.47,-686.13 302.29,-675.6 296.65,-684.56 303.47,-686.13"/>
</a>
</g>
</g>
<!-- Node15&#45;&gt;Node13 -->
<g id="edge26_Node000015_Node000013" class="edge">
<title>Node15&#45;&gt;Node13</title>
<g id="a_edge26_Node000015_Node000013"><a xlink:title=" ">
<path fill="none" stroke="#63b8ff" d="M208.11,-195.06C179.65,-203.94 145.76,-214.52 118.73,-222.95"/>
<polygon fill="#63b8ff" stroke="#63b8ff" points="209.42,-198.32 217.92,-192 207.34,-191.64 209.42,-198.32"/>
</a>
</g>
</g>
<!-- Node15&#45;&gt;Node15 -->
<g id="edge25_Node000015_Node000015" class="edge">
<title>Node15&#45;&gt;Node15</title>
<g id="a_edge25_Node000015_Node000015"><a xlink:title=" ">
<path fill="none" stroke="#63b8ff" d="M300.61,-202.6C296.01,-206.97 284.81,-210 267,-210 237,-210 225.75,-201.41 233.25,-192.28"/>
<polygon fill="#63b8ff" stroke="#63b8ff" points="304.11,-202.32 300.75,-192.28 297.11,-202.23 304.11,-202.32"/>
</a>
</g>
</g>
<!-- Node15&#45;&gt;Node16 -->
<g id="edge27_Node000015_Node000016" class="edge">
<title>Node15&#45;&gt;Node16</title>
<g id="a_edge27_Node000015_Node000016"><a xlink:title=" ">
<path fill="none" stroke="#63b8ff" d="M209.12,-158.96C180.22,-149.8 145.52,-138.79 118.07,-130.09"/>
<polygon fill="#63b8ff" stroke="#63b8ff" points="208.08,-162.3 218.67,-161.99 210.2,-155.63 208.08,-162.3"/>
</a>
</g>
</g>
</g>
</svg>
