<?xml version="1.0" encoding="UTF-8" standalone="no"?>
<!DOCTYPE svg PUBLIC "-//W3C//DTD SVG 1.1//EN"
 "http://www.w3.org/Graphics/SVG/1.1/DTD/svg11.dtd">
<!-- Generated by graphviz version 2.43.0 (0)
 -->
<!-- Title: util::l2Dist Pages: 1 -->
<svg width="287pt" height="27pt"
 viewBox="0.00 0.00 287.00 27.00" xmlns="http://www.w3.org/2000/svg" xmlns:xlink="http://www.w3.org/1999/xlink">
<g id="graph0" class="graph" transform="scale(1 1) rotate(0) translate(4 23)">
<title>util::l2Dist</title>
<!-- Node1 -->
<g id="Node000001" class="node">
<title>Node1</title>
<g id="a_Node000001"><a xlink:title="Computes l2 distance between two vectors.">
<polygon fill="#999999" stroke="#666666" points="279,-19 218,-19 218,0 279,0 279,-19"/>
<text text-anchor="middle" x="248.5" y="-7" font-family="Arial" font-size="10.00">util::l2Dist</text>
</a>
</g>
</g>
<!-- Node2 -->
<g id="Node000002" class="node">
<title>Node2</title>
<g id="a_Node000002"><a xlink:href="namespacetest.html#ad3c8cad23ca76bc12534c5487df9a25f" target="_top" xlink:title="Test methods">
<polygon fill="white" stroke="#666666" points="182,-19 74,-19 74,0 182,0 182,-19"/>
<text text-anchor="middle" x="128" y="-7" font-family="Arial" font-size="10.00">test::testUtilMethods</text>
</a>
</g>
</g>
<!-- Node1&#45;&gt;Node2 -->
<g id="edge1_Node000001_Node000002" class="edge">
<title>Node1&#45;&gt;Node2</title>
<g id="a_edge1_Node000001_Node000002"><a xlink:title=" ">
<path fill="none" stroke="#63b8ff" d="M207.84,-9.5C199.61,-9.5 190.82,-9.5 182.2,-9.5"/>
<polygon fill="#63b8ff" stroke="#63b8ff" points="207.9,-13 217.9,-9.5 207.9,-6 207.9,-13"/>
</a>
</g>
</g>
<!-- Node3 -->
<g id="Node000003" class="node">
<title>Node3</title>
<g id="a_Node000003"><a xlink:href="testUtil_8cpp.html#a0ddf1224851353fc92bfbff6f499fa97" target="_top" xlink:title=" ">
<polygon fill="white" stroke="#666666" points="38,-19 0,-19 0,0 38,0 38,-19"/>
<text text-anchor="middle" x="19" y="-7" font-family="Arial" font-size="10.00">main</text>
</a>
</g>
</g>
<!-- Node2&#45;&gt;Node3 -->
<g id="edge2_Node000002_Node000003" class="edge">
<title>Node2&#45;&gt;Node3</title>
<g id="a_edge2_Node000002_Node000003"><a xlink:title=" ">
<path fill="none" stroke="#63b8ff" d="M63.67,-9.5C54.41,-9.5 45.56,-9.5 38.28,-9.5"/>
<polygon fill="#63b8ff" stroke="#63b8ff" points="63.81,-13 73.81,-9.5 63.81,-6 63.81,-13"/>
</a>
</g>
</g>
</g>
</svg>
