<?xml version="1.0" encoding="UTF-8" standalone="no"?>
<!DOCTYPE svg PUBLIC "-//W3C//DTD SVG 1.1//EN"
 "http://www.w3.org/Graphics/SVG/1.1/DTD/svg11.dtd">
<!-- Generated by graphviz version 2.43.0 (0)
 -->
<!-- Title: util::geometry::getNumParamsRequired Pages: 1 -->
<svg width="830pt" height="104pt"
 viewBox="0.00 0.00 830.00 104.19" xmlns="http://www.w3.org/2000/svg" xmlns:xlink="http://www.w3.org/1999/xlink">
<g id="graph0" class="graph" transform="scale(1 1) rotate(0) translate(4 100.19)">
<title>util::geometry::getNumParamsRequired</title>
<!-- Node1 -->
<g id="node1" class="node">
<title>Node1</title>
<g id="a_node1"><a xlink:title="Get num params required for creation of object.">
<polygon fill="#bfbfbf" stroke="black" points="672,-49.5 672,-79.5 822,-79.5 822,-49.5 672,-49.5"/>
<text text-anchor="start" x="680" y="-67.5" font-family="Arial" font-size="10.00">util::geometry::getNumParams</text>
<text text-anchor="middle" x="747" y="-56.5" font-family="Arial" font-size="10.00">Required</text>
</a>
</g>
</g>
<!-- Node2 -->
<g id="node2" class="node">
<title>Node2</title>
<g id="a_node2"><a xlink:href="namespaceutil_1_1geometry.html#a44f3f0e0cc6edb964264a0cc22735209" target="_top" xlink:title="Create geometrical object from the given data.">
<polygon fill="none" stroke="black" points="291,-49.5 291,-79.5 426,-79.5 426,-49.5 291,-49.5"/>
<text text-anchor="start" x="299" y="-67.5" font-family="Arial" font-size="10.00">util::geometry::createGeom</text>
<text text-anchor="middle" x="358.5" y="-56.5" font-family="Arial" font-size="10.00">ObjectOld</text>
</a>
</g>
</g>
<!-- Node1&#45;&gt;Node2 -->
<g id="edge1" class="edge">
<title>Node1&#45;&gt;Node2</title>
<path fill="none" stroke="midnightblue" d="M681.01,-81.79C666.31,-85 650.71,-87.85 636,-89.5 559.59,-98.07 539.35,-98.59 463,-89.5 445.93,-87.47 427.6,-83.61 411.18,-79.53"/>
<polygon fill="midnightblue" stroke="midnightblue" points="682.04,-85.15 691.02,-79.53 680.49,-78.32 682.04,-85.15"/>
</g>
<!-- Node3 -->
<g id="node3" class="node">
<title>Node3</title>
<g id="a_node3"><a xlink:href="namespaceutil_1_1geometry.html#a183aa817838c3458f52743b944634c3a" target="_top" xlink:title="Ascertain if number of parameters are correct for the given geometry.">
<polygon fill="none" stroke="black" points="463,-49.5 463,-79.5 636,-79.5 636,-49.5 463,-49.5"/>
<text text-anchor="start" x="471" y="-67.5" font-family="Arial" font-size="10.00">util::geometry::isNumber</text>
<text text-anchor="middle" x="549.5" y="-56.5" font-family="Arial" font-size="10.00">OfParamForComplexGeometryValid</text>
</a>
</g>
</g>
<!-- Node1&#45;&gt;Node3 -->
<g id="edge2" class="edge">
<title>Node1&#45;&gt;Node3</title>
<path fill="none" stroke="midnightblue" d="M661.59,-64.5C653.15,-64.5 644.56,-64.5 636.1,-64.5"/>
<polygon fill="midnightblue" stroke="midnightblue" points="661.81,-68 671.81,-64.5 661.81,-61 661.81,-68"/>
</g>
<!-- Node4 -->
<g id="node4" class="node">
<title>Node4</title>
<g id="a_node4"><a xlink:href="namespaceutil_1_1geometry.html#a273199cba8fab80639f5479b3f01ab5d" target="_top" xlink:title="Ascertain if number of parameters are correct for the given geometry.">
<polygon fill="none" stroke="black" points="482.5,-0.5 482.5,-30.5 616.5,-30.5 616.5,-0.5 482.5,-0.5"/>
<text text-anchor="start" x="490.5" y="-18.5" font-family="Arial" font-size="10.00">util::geometry::isNumber</text>
<text text-anchor="middle" x="549.5" y="-7.5" font-family="Arial" font-size="10.00">OfParamForGeometryValid</text>
</a>
</g>
</g>
<!-- Node1&#45;&gt;Node4 -->
<g id="edge4" class="edge">
<title>Node1&#45;&gt;Node4</title>
<path fill="none" stroke="midnightblue" d="M676.27,-47.02C654.72,-41.62 631.19,-35.72 610.37,-30.51"/>
<polygon fill="midnightblue" stroke="midnightblue" points="675.46,-50.43 686.01,-49.47 677.17,-43.64 675.46,-50.43"/>
</g>
<!-- Node3&#45;&gt;Node2 -->
<g id="edge3" class="edge">
<title>Node3&#45;&gt;Node2</title>
<path fill="none" stroke="midnightblue" d="M452.72,-64.5C443.75,-64.5 434.79,-64.5 426.17,-64.5"/>
<polygon fill="midnightblue" stroke="midnightblue" points="452.85,-68 462.85,-64.5 452.85,-61 452.85,-68"/>
</g>
<!-- Node4&#45;&gt;Node2 -->
<g id="edge8" class="edge">
<title>Node4&#45;&gt;Node2</title>
<path fill="none" stroke="midnightblue" d="M480.81,-33.05C460.05,-38.43 437.42,-44.3 417.38,-49.49"/>
<polygon fill="midnightblue" stroke="midnightblue" points="481.71,-36.43 490.51,-30.53 479.95,-29.66 481.71,-36.43"/>
</g>
<!-- Node5 -->
<g id="node5" class="node">
<title>Node5</title>
<g id="a_node5"><a xlink:href="namespaceutil_1_1geometry.html#a2f43f1f68c3073656dcb3af84de93192" target="_top" xlink:title="Check parameter data for validity.">
<polygon fill="none" stroke="black" points="290,-0.5 290,-30.5 427,-30.5 427,-0.5 290,-0.5"/>
<text text-anchor="start" x="298" y="-18.5" font-family="Arial" font-size="10.00">util::geometry::checkParam</text>
<text text-anchor="middle" x="358.5" y="-7.5" font-family="Arial" font-size="10.00">ForGeometry</text>
</a>
</g>
</g>
<!-- Node4&#45;&gt;Node5 -->
<g id="edge5" class="edge">
<title>Node4&#45;&gt;Node5</title>
<path fill="none" stroke="midnightblue" d="M472.2,-15.5C457.3,-15.5 441.77,-15.5 427.17,-15.5"/>
<polygon fill="midnightblue" stroke="midnightblue" points="472.4,-19 482.4,-15.5 472.4,-12 472.4,-19"/>
</g>
<!-- Node6 -->
<g id="node6" class="node">
<title>Node6</title>
<g id="a_node6"><a xlink:href="classinp_1_1Input.html#a5689d155dc964e648dc91dd9e5c8ade6" target="_top" xlink:title="Read data into particle deck and store its pointer.">
<polygon fill="none" stroke="black" points="121,-6 121,-25 254,-25 254,-6 121,-6"/>
<text text-anchor="middle" x="187.5" y="-13" font-family="Arial" font-size="10.00">inp::Input::setParticleDeck</text>
</a>
</g>
</g>
<!-- Node5&#45;&gt;Node6 -->
<g id="edge6" class="edge">
<title>Node5&#45;&gt;Node6</title>
<path fill="none" stroke="midnightblue" d="M279.73,-15.5C271.16,-15.5 262.49,-15.5 254.08,-15.5"/>
<polygon fill="midnightblue" stroke="midnightblue" points="279.74,-19 289.74,-15.5 279.73,-12 279.74,-19"/>
</g>
<!-- Node7 -->
<g id="node7" class="node">
<title>Node7</title>
<g id="a_node7"><a xlink:href="classinp_1_1Input.html#a0259771f00b712054f5f33d807990869" target="_top" xlink:title="Constructor.">
<polygon fill="none" stroke="black" points="0,-6 0,-25 85,-25 85,-6 0,-6"/>
<text text-anchor="middle" x="42.5" y="-13" font-family="Arial" font-size="10.00">inp::Input::Input</text>
</a>
</g>
</g>
<!-- Node6&#45;&gt;Node7 -->
<g id="edge7" class="edge">
<title>Node6&#45;&gt;Node7</title>
<path fill="none" stroke="midnightblue" d="M110.84,-15.5C101.97,-15.5 93.19,-15.5 85.04,-15.5"/>
<polygon fill="midnightblue" stroke="midnightblue" points="110.86,-19 120.86,-15.5 110.86,-12 110.86,-19"/>
</g>
</g>
</svg>
