<?xml version="1.0" encoding="UTF-8" standalone="no"?>
<!DOCTYPE svg PUBLIC "-//W3C//DTD SVG 1.1//EN"
 "http://www.w3.org/Graphics/SVG/1.1/DTD/svg11.dtd">
<!-- Generated by graphviz version 2.43.0 (0)
 -->
<!-- Title: util::geometry::isNumberOfParamForGeometryValid Pages: 1 -->
<svg width="328pt" height="78pt"
 viewBox="0.00 0.00 328.00 77.50" xmlns="http://www.w3.org/2000/svg" xmlns:xlink="http://www.w3.org/1999/xlink">
<g id="graph0" class="graph" transform="scale(1 1) rotate(0) translate(4 73.5)">
<title>util::geometry::isNumberOfParamForGeometryValid</title>
<!-- Node1 -->
<g id="node1" class="node">
<title>Node1</title>
<g id="a_node1"><a xlink:title="Ascertain if number of parameters are correct for the given geometry.">
<polygon fill="#bfbfbf" stroke="black" points="0,-17 0,-47 134,-47 134,-17 0,-17"/>
<text text-anchor="start" x="8" y="-35" font-family="Arial" font-size="10.00">util::geometry::isNumber</text>
<text text-anchor="middle" x="67" y="-24" font-family="Arial" font-size="10.00">OfParamForGeometryValid</text>
</a>
</g>
</g>
<!-- Node2 -->
<g id="node2" class="node">
<title>Node2</title>
<g id="a_node2"><a xlink:href="namespaceutil_1_1geometry.html#a2852c83a568ff72c000bfb1d682f9678" target="_top" xlink:title="Get num params required for creation of object.">
<polygon fill="none" stroke="black" points="170,-39 170,-69 320,-69 320,-39 170,-39"/>
<text text-anchor="start" x="178" y="-57" font-family="Arial" font-size="10.00">util::geometry::getNumParams</text>
<text text-anchor="middle" x="245" y="-46" font-family="Arial" font-size="10.00">Required</text>
</a>
</g>
</g>
<!-- Node1&#45;&gt;Node2 -->
<g id="edge1" class="edge">
<title>Node1&#45;&gt;Node2</title>
<path fill="none" stroke="midnightblue" d="M134.04,-40.25C142.45,-41.31 151.15,-42.39 159.8,-43.47"/>
<polygon fill="midnightblue" stroke="midnightblue" points="159.55,-46.97 169.91,-44.74 160.42,-40.03 159.55,-46.97"/>
</g>
<!-- Node3 -->
<g id="node3" class="node">
<title>Node3</title>
<g id="a_node3"><a xlink:href="namespaceutil_1_1methods.html#a86460acadab9a2e99a92121c0213e444" target="_top" xlink:title="Find if data is in the list.">
<polygon fill="none" stroke="black" points="190,-0.5 190,-19.5 300,-19.5 300,-0.5 190,-0.5"/>
<text text-anchor="middle" x="245" y="-7.5" font-family="Arial" font-size="10.00">util::methods::isInList</text>
</a>
</g>
</g>
<!-- Node1&#45;&gt;Node3 -->
<g id="edge2" class="edge">
<title>Node1&#45;&gt;Node3</title>
<path fill="none" stroke="midnightblue" d="M134.04,-23.75C149.02,-21.87 164.9,-19.89 179.8,-18.02"/>
<polygon fill="midnightblue" stroke="midnightblue" points="180.45,-21.47 189.94,-16.76 179.58,-14.53 180.45,-21.47"/>
</g>
</g>
</svg>
