<?xml version="1.0" encoding="UTF-8" standalone="no"?>
<!DOCTYPE svg PUBLIC "-//W3C//DTD SVG 1.1//EN"
 "http://www.w3.org/Graphics/SVG/1.1/DTD/svg11.dtd">
<!-- Generated by graphviz version 2.43.0 (0)
 -->
<!-- Title: problem_setup.write_point_geo Pages: 1 -->
<svg width="815pt" height="234pt"
 viewBox="0.00 0.00 815.00 234.35" xmlns="http://www.w3.org/2000/svg" xmlns:xlink="http://www.w3.org/1999/xlink">
<g id="graph0" class="graph" transform="scale(1 1) rotate(0) translate(4 230.35)">
<title>problem_setup.write_point_geo</title>
<!-- Node1 -->
<g id="node1" class="node">
<title>Node1</title>
<g id="a_node1"><a xlink:title=" ">
<polygon fill="#bfbfbf" stroke="black" points="703,-104 703,-134 807,-134 807,-104 703,-104"/>
<text text-anchor="start" x="711" y="-122" font-family="Arial" font-size="10.00">problem_setup.write</text>
<text text-anchor="middle" x="755" y="-111" font-family="Arial" font-size="10.00">_point_geo</text>
</a>
</g>
</g>
<!-- Node2 -->
<g id="node2" class="node">
<title>Node2</title>
<g id="a_node2"><a xlink:href="namespaceproblem__setup.html#a9a8d53047175304f4c44b93a2f6fa482" target="_top" xlink:title=" ">
<polygon fill="none" stroke="black" points="151,-129 151,-159 290,-159 290,-129 151,-129"/>
<text text-anchor="start" x="159" y="-147" font-family="Arial" font-size="10.00">problem_setup.generate</text>
<text text-anchor="middle" x="220.5" y="-136" font-family="Arial" font-size="10.00">_rect_container_gmsh_input</text>
</a>
</g>
</g>
<!-- Node1&#45;&gt;Node2 -->
<g id="edge1" class="edge">
<title>Node1&#45;&gt;Node2</title>
<path fill="none" stroke="midnightblue" d="M724.6,-139.64C708.42,-149.74 687.5,-160.82 667,-166 535.24,-199.31 374.76,-176.61 286.87,-159.04"/>
<polygon fill="midnightblue" stroke="midnightblue" points="726.57,-142.54 733.07,-134.17 722.77,-136.65 726.57,-142.54"/>
</g>
<!-- Node3 -->
<g id="node3" class="node">
<title>Node3</title>
<g id="a_node3"><a xlink:href="namespaceproblem__setup.html#a5a8a494c7325b103530d3f40d4b49fe8" target="_top" xlink:title=" ">
<polygon fill="none" stroke="black" points="0,-167 0,-197 115,-197 115,-167 0,-167"/>
<text text-anchor="start" x="8" y="-185" font-family="Arial" font-size="10.00">problem_setup.particle</text>
<text text-anchor="middle" x="57.5" y="-174" font-family="Arial" font-size="10.00">_locations_old</text>
</a>
</g>
</g>
<!-- Node1&#45;&gt;Node3 -->
<g id="edge9" class="edge">
<title>Node1&#45;&gt;Node3</title>
<path fill="none" stroke="midnightblue" d="M733.79,-141.69C717.59,-158.07 693.28,-178.84 667,-188 473.95,-255.26 225.09,-217.41 115.08,-194.93"/>
<polygon fill="midnightblue" stroke="midnightblue" points="736.69,-143.73 741.07,-134.08 731.63,-138.89 736.69,-143.73"/>
</g>
<!-- Node4 -->
<g id="node4" class="node">
<title>Node4</title>
<g id="a_node4"><a xlink:href="namespaceproblem__setup.html#ac0369f72a95d7fda3b133b8bae4d91ac" target="_top" xlink:title=" ">
<polygon fill="none" stroke="black" points="546,-38 546,-68 667,-68 667,-38 546,-38"/>
<text text-anchor="start" x="554" y="-56" font-family="Arial" font-size="10.00">problem_setup.generate</text>
<text text-anchor="middle" x="606.5" y="-45" font-family="Arial" font-size="10.00">_rect_floor_gmsh_input</text>
</a>
</g>
</g>
<!-- Node1&#45;&gt;Node4 -->
<g id="edge3" class="edge">
<title>Node1&#45;&gt;Node4</title>
<path fill="none" stroke="midnightblue" d="M711.11,-99.68C688.74,-89.6 661.77,-77.45 640.95,-68.07"/>
<polygon fill="midnightblue" stroke="midnightblue" points="709.83,-102.94 720.39,-103.86 712.71,-96.56 709.83,-102.94"/>
</g>
<!-- Node5 -->
<g id="node5" class="node">
<title>Node5</title>
<g id="a_node5"><a xlink:href="namespaceproblem__setup.html#ab2d86f4fe187ef9b78d1ad4ea438b98b" target="_top" xlink:title=" ">
<polygon fill="none" stroke="black" points="326,-74.5 326,-115.5 510,-115.5 510,-74.5 326,-74.5"/>
<text text-anchor="start" x="334" y="-103.5" font-family="Arial" font-size="10.00">problem_setup.generate</text>
<text text-anchor="start" x="334" y="-92.5" font-family="Arial" font-size="10.00">_rectangle_with_protrusion</text>
<text text-anchor="middle" x="418" y="-81.5" font-family="Arial" font-size="10.00">_and_opening_wall_gmsh_input_type3</text>
</a>
</g>
</g>
<!-- Node1&#45;&gt;Node5 -->
<g id="edge8" class="edge">
<title>Node1&#45;&gt;Node5</title>
<path fill="none" stroke="midnightblue" d="M692.53,-114.6C641.42,-110.93 567.96,-105.67 510.04,-101.52"/>
<polygon fill="midnightblue" stroke="midnightblue" points="692.53,-118.11 702.76,-115.33 693.03,-111.12 692.53,-118.11"/>
</g>
<!-- Node6 -->
<g id="node6" class="node">
<title>Node6</title>
<g id="a_node6"><a xlink:href="namespaceproblem__setup.html#af2a3517f0f6e0d54303c7b67043b3ef6" target="_top" xlink:title=" ">
<polygon fill="none" stroke="black" points="326,-0.5 326,-41.5 510,-41.5 510,-0.5 326,-0.5"/>
<text text-anchor="start" x="334" y="-29.5" font-family="Arial" font-size="10.00">problem_setup.generate</text>
<text text-anchor="start" x="334" y="-18.5" font-family="Arial" font-size="10.00">_rectangle_with_protrusion</text>
<text text-anchor="middle" x="418" y="-7.5" font-family="Arial" font-size="10.00">_and_opening_wall_gmsh_input_type2</text>
</a>
</g>
</g>
<!-- Node1&#45;&gt;Node6 -->
<g id="edge6" class="edge">
<title>Node1&#45;&gt;Node6</title>
<path fill="none" stroke="midnightblue" d="M739.12,-95.37C723.95,-73.67 698.26,-42.86 667,-29 618.27,-7.39 558.7,-4.81 510.16,-7.9"/>
<polygon fill="midnightblue" stroke="midnightblue" points="736.28,-97.42 744.77,-103.75 742.08,-93.5 736.28,-97.42"/>
</g>
<!-- Node7 -->
<g id="node7" class="node">
<title>Node7</title>
<g id="a_node7"><a xlink:href="namespaceproblem__setup.html#a674f8d549ccd39c6f9059a8089b54ba9" target="_top" xlink:title=" ">
<polygon fill="none" stroke="black" points="547,-126 547,-156 666,-156 666,-126 547,-126"/>
<text text-anchor="start" x="555" y="-144" font-family="Arial" font-size="10.00">problem_setup.serialize</text>
<text text-anchor="middle" x="606.5" y="-133" font-family="Arial" font-size="10.00">_matrix_list</text>
</a>
</g>
</g>
<!-- Node1&#45;&gt;Node7 -->
<g id="edge10" class="edge">
<title>Node1&#45;&gt;Node7</title>
<path fill="none" stroke="midnightblue" d="M692.64,-128.21C683.9,-129.53 674.92,-130.88 666.23,-132.18"/>
<polygon fill="midnightblue" stroke="midnightblue" points="693.39,-131.64 702.76,-126.69 692.35,-124.72 693.39,-131.64"/>
</g>
<!-- Node2&#45;&gt;Node3 -->
<g id="edge2" class="edge">
<title>Node2&#45;&gt;Node3</title>
<path fill="none" stroke="midnightblue" d="M146,-161.35C135.64,-163.79 125.13,-166.27 115.15,-168.63"/>
<polygon fill="midnightblue" stroke="midnightblue" points="146.94,-164.72 155.87,-159.02 145.33,-157.91 146.94,-164.72"/>
</g>
<!-- Node4&#45;&gt;Node5 -->
<g id="edge4" class="edge">
<title>Node4&#45;&gt;Node5</title>
<path fill="none" stroke="midnightblue" d="M536.19,-68.61C527.72,-70.52 518.97,-72.49 510.25,-74.45"/>
<polygon fill="midnightblue" stroke="midnightblue" points="536.99,-72.02 545.98,-66.4 535.45,-65.19 536.99,-72.02"/>
</g>
<!-- Node5&#45;&gt;Node2 -->
<g id="edge5" class="edge">
<title>Node5&#45;&gt;Node2</title>
<path fill="none" stroke="midnightblue" d="M325.2,-118.01C310.3,-121.74 295.23,-125.52 281.36,-129"/>
<polygon fill="midnightblue" stroke="midnightblue" points="326.09,-121.39 334.94,-115.57 324.39,-114.6 326.09,-121.39"/>
</g>
<!-- Node6&#45;&gt;Node2 -->
<g id="edge7" class="edge">
<title>Node6&#45;&gt;Node2</title>
<path fill="none" stroke="midnightblue" d="M360.54,-46.16C348.89,-51.94 336.87,-58.35 326,-65 293.79,-84.7 259.41,-112.07 239.22,-128.88"/>
<polygon fill="midnightblue" stroke="midnightblue" points="362.31,-49.19 369.77,-41.67 359.25,-42.89 362.31,-49.19"/>
</g>
<!-- Node7&#45;&gt;Node2 -->
<g id="edge11" class="edge">
<title>Node7&#45;&gt;Node2</title>
<path fill="none" stroke="midnightblue" d="M536.34,-141.54C466.68,-142.08 359.83,-142.92 290.3,-143.46"/>
<polygon fill="midnightblue" stroke="midnightblue" points="536.79,-145.04 546.76,-141.46 536.73,-138.04 536.79,-145.04"/>
</g>
</g>
</svg>
