<?xml version="1.0" encoding="UTF-8" standalone="no"?>
<!DOCTYPE svg PUBLIC "-//W3C//DTD SVG 1.1//EN"
 "http://www.w3.org/Graphics/SVG/1.1/DTD/svg11.dtd">
<!-- Generated by graphviz version 2.43.0 (0)
 -->
<!-- Title: anonymous_namespace{particleULoading::cpp}::isInList Pages: 1 -->
<svg width="294pt" height="186pt"
 viewBox="0.00 0.00 294.00 186.00" xmlns="http://www.w3.org/2000/svg" xmlns:xlink="http://www.w3.org/1999/xlink">
<g id="graph0" class="graph" transform="scale(1 1) rotate(0) translate(4 182)">
<title>anonymous_namespace{particleULoading::cpp}::isInList</title>
<!-- Node1 -->
<g id="node1" class="node">
<title>Node1</title>
<g id="a_node1"><a xlink:title=" ">
<polygon fill="#bfbfbf" stroke="black" points="164,-68 164,-109 286,-109 286,-68 164,-68"/>
<text text-anchor="start" x="172" y="-97" font-family="Arial" font-size="10.00">anonymous_namespace</text>
<text text-anchor="start" x="172" y="-86" font-family="Arial" font-size="10.00">{particleULoading::cpp}</text>
<text text-anchor="middle" x="225" y="-75" font-family="Arial" font-size="10.00">::isInList</text>
</a>
</g>
</g>
<!-- Node2 -->
<g id="node2" class="node">
<title>Node2</title>
<g id="a_node2"><a xlink:href="classloading_1_1ParticleULoading.html#a73a3cb3c8b70199eee0c6ee3f61ee125" target="_top" xlink:title="Applies displacement boundary condition.">
<polygon fill="none" stroke="black" points="0,-147.5 0,-177.5 128,-177.5 128,-147.5 0,-147.5"/>
<text text-anchor="start" x="8" y="-165.5" font-family="Arial" font-size="10.00">loading::ParticleULoading</text>
<text text-anchor="middle" x="64" y="-154.5" font-family="Arial" font-size="10.00">::applyParticle</text>
</a>
</g>
</g>
<!-- Node1&#45;&gt;Node2 -->
<g id="edge1" class="edge">
<title>Node1&#45;&gt;Node2</title>
<path fill="none" stroke="midnightblue" d="M177.73,-113.99C162.12,-122.21 144.48,-131.1 128,-138.5 121.17,-141.57 113.81,-144.6 106.62,-147.43"/>
<polygon fill="midnightblue" stroke="midnightblue" points="179.47,-117.02 186.65,-109.24 176.18,-110.84 179.47,-117.02"/>
</g>
<!-- Node3 -->
<g id="node3" class="node">
<title>Node3</title>
<g id="a_node3"><a xlink:href="classloading_1_1ParticleULoading.html#aee7edb595807fe2516c545d8abe2d75b" target="_top" xlink:title="Applies displacement boundary condition.">
<polygon fill="none" stroke="black" points="0,-98.5 0,-128.5 128,-128.5 128,-98.5 0,-98.5"/>
<text text-anchor="start" x="8" y="-116.5" font-family="Arial" font-size="10.00">loading::ParticleULoading</text>
<text text-anchor="middle" x="64" y="-105.5" font-family="Arial" font-size="10.00">::applyWall</text>
</a>
</g>
</g>
<!-- Node1&#45;&gt;Node3 -->
<g id="edge2" class="edge">
<title>Node1&#45;&gt;Node3</title>
<path fill="none" stroke="midnightblue" d="M153.9,-99.52C145.32,-100.87 136.58,-102.24 128.11,-103.58"/>
<polygon fill="midnightblue" stroke="midnightblue" points="154.55,-102.96 163.89,-97.95 153.47,-96.05 154.55,-102.96"/>
</g>
<!-- Node4 -->
<g id="node4" class="node">
<title>Node4</title>
<g id="a_node4"><a xlink:href="classloading_1_1ParticleULoading.html#adbf2c6ab75080fece4f4e5ce882eb584" target="_top" xlink:title="Sets fixity mask.">
<polygon fill="none" stroke="black" points="0,-49.5 0,-79.5 128,-79.5 128,-49.5 0,-49.5"/>
<text text-anchor="start" x="8" y="-67.5" font-family="Arial" font-size="10.00">loading::ParticleULoading</text>
<text text-anchor="middle" x="64" y="-56.5" font-family="Arial" font-size="10.00">::setFixityParticle</text>
</a>
</g>
</g>
<!-- Node1&#45;&gt;Node4 -->
<g id="edge3" class="edge">
<title>Node1&#45;&gt;Node4</title>
<path fill="none" stroke="midnightblue" d="M153.9,-77.92C145.32,-76.62 136.58,-75.31 128.11,-74.03"/>
<polygon fill="midnightblue" stroke="midnightblue" points="153.48,-81.39 163.89,-79.43 154.52,-74.47 153.48,-81.39"/>
</g>
<!-- Node5 -->
<g id="node5" class="node">
<title>Node5</title>
<g id="a_node5"><a xlink:href="classloading_1_1ParticleULoading.html#ad625cd13565f41d44a66c94a976b40b4" target="_top" xlink:title="Sets fixity mask.">
<polygon fill="none" stroke="black" points="0,-0.5 0,-30.5 128,-30.5 128,-0.5 0,-0.5"/>
<text text-anchor="start" x="8" y="-18.5" font-family="Arial" font-size="10.00">loading::ParticleULoading</text>
<text text-anchor="middle" x="64" y="-7.5" font-family="Arial" font-size="10.00">::setFixityWall</text>
</a>
</g>
</g>
<!-- Node1&#45;&gt;Node5 -->
<g id="edge4" class="edge">
<title>Node1&#45;&gt;Node5</title>
<path fill="none" stroke="midnightblue" d="M175.51,-63.24C160.42,-55.66 143.64,-47.5 128,-40.5 120.48,-37.14 112.36,-33.74 104.54,-30.59"/>
<polygon fill="midnightblue" stroke="midnightblue" points="174.16,-66.48 184.66,-67.88 177.32,-60.24 174.16,-66.48"/>
</g>
</g>
</svg>
