<?xml version="1.0" encoding="UTF-8" standalone="no"?>
<!DOCTYPE svg PUBLIC "-//W3C//DTD SVG 1.1//EN"
 "http://www.w3.org/Graphics/SVG/1.1/DTD/svg11.dtd">
<!-- Generated by graphviz version 2.43.0 (0)
 -->
<!-- Title: problem_setup.generate_rectangle_with_protrusion_and_opening_wall_gmsh_input_type2 Pages: 1 -->
<svg width="682pt" height="365pt"
 viewBox="0.00 0.00 682.00 364.50" xmlns="http://www.w3.org/2000/svg" xmlns:xlink="http://www.w3.org/1999/xlink">
<g id="graph0" class="graph" transform="scale(1 1) rotate(0) translate(4 360.5)">
<title>problem_setup.generate_rectangle_with_protrusion_and_opening_wall_gmsh_input_type2</title>
<!-- Node1 -->
<g id="node1" class="node">
<title>Node1</title>
<g id="a_node1"><a xlink:title=" ">
<polygon fill="#bfbfbf" stroke="black" points="0,-164 0,-205 184,-205 184,-164 0,-164"/>
<text text-anchor="start" x="8" y="-193" font-family="Arial" font-size="10.00">problem_setup.generate</text>
<text text-anchor="start" x="8" y="-182" font-family="Arial" font-size="10.00">_rectangle_with_protrusion</text>
<text text-anchor="middle" x="92" y="-171" font-family="Arial" font-size="10.00">_and_opening_wall_gmsh_input_type2</text>
</a>
</g>
</g>
<!-- Node2 -->
<g id="node2" class="node">
<title>Node2</title>
<g id="a_node2"><a xlink:href="namespaceproblem__setup.html#acd177bfd3b1c888bea6db62136e4f483" target="_top" xlink:title=" ">
<polygon fill="none" stroke="black" points="220,-289.5 220,-341.5 375,-341.5 375,-289.5 220,-289.5"/>
<text text-anchor="start" x="228" y="-329.5" font-family="Arial" font-size="10.00">problem_setup.get_circ</text>
<text text-anchor="start" x="228" y="-318.5" font-family="Arial" font-size="10.00">_protrusion_points_for</text>
<text text-anchor="start" x="228" y="-307.5" font-family="Arial" font-size="10.00">_rectangle_wall_with_protrusion</text>
<text text-anchor="middle" x="297.5" y="-296.5" font-family="Arial" font-size="10.00">_and_opening</text>
</a>
</g>
</g>
<!-- Node1&#45;&gt;Node2 -->
<g id="edge1" class="edge">
<title>Node1&#45;&gt;Node2</title>
<path fill="none" stroke="midnightblue" d="M117.16,-205.31C141.91,-226 182.03,-257.83 220,-280.5 222.33,-281.89 224.72,-283.26 227.16,-284.62"/>
<polygon fill="midnightblue" stroke="midnightblue" points="225.67,-287.78 236.14,-289.4 228.96,-281.61 225.67,-287.78"/>
</g>
<!-- Node3 -->
<g id="node3" class="node">
<title>Node3</title>
<g id="a_node3"><a xlink:href="namespaceproblem__setup.html#a6852c92ff854fb8fa9a34c4bbb63af8a" target="_top" xlink:title=" ">
<polygon fill="none" stroke="black" points="220,-218.5 220,-270.5 375,-270.5 375,-218.5 220,-218.5"/>
<text text-anchor="start" x="228" y="-258.5" font-family="Arial" font-size="10.00">problem_setup.get_tri</text>
<text text-anchor="start" x="228" y="-247.5" font-family="Arial" font-size="10.00">_protrusion_points_for</text>
<text text-anchor="start" x="228" y="-236.5" font-family="Arial" font-size="10.00">_rectangle_wall_with_protrusion</text>
<text text-anchor="middle" x="297.5" y="-225.5" font-family="Arial" font-size="10.00">_and_opening</text>
</a>
</g>
</g>
<!-- Node1&#45;&gt;Node3 -->
<g id="edge2" class="edge">
<title>Node1&#45;&gt;Node3</title>
<path fill="none" stroke="midnightblue" d="M162.75,-205.06C177.99,-209.56 194.31,-214.37 210.11,-219.03"/>
<polygon fill="midnightblue" stroke="midnightblue" points="209.29,-222.44 219.87,-221.91 211.27,-215.72 209.29,-222.44"/>
</g>
<!-- Node4 -->
<g id="node4" class="node">
<title>Node4</title>
<g id="a_node4"><a xlink:href="namespaceproblem__setup.html#a537cfa64f80968083b662a6a6a6174e6" target="_top" xlink:title=" ">
<polygon fill="none" stroke="black" points="245.5,-169.5 245.5,-199.5 349.5,-199.5 349.5,-169.5 245.5,-169.5"/>
<text text-anchor="start" x="253.5" y="-187.5" font-family="Arial" font-size="10.00">problem_setup.write</text>
<text text-anchor="middle" x="297.5" y="-176.5" font-family="Arial" font-size="10.00">_cir_line_geo</text>
</a>
</g>
</g>
<!-- Node1&#45;&gt;Node4 -->
<g id="edge3" class="edge">
<title>Node1&#45;&gt;Node4</title>
<path fill="none" stroke="midnightblue" d="M184.04,-184.5C201.31,-184.5 219,-184.5 235.09,-184.5"/>
<polygon fill="midnightblue" stroke="midnightblue" points="235.41,-188 245.41,-184.5 235.41,-181 235.41,-188"/>
</g>
<!-- Node14 -->
<g id="node14" class="node">
<title>Node14</title>
<g id="a_node14"><a xlink:href="namespaceproblem__setup.html#a1afd4fae0c6853fdedafa9abd449653e" target="_top" xlink:title=" ">
<polygon fill="none" stroke="black" points="245.5,-120.5 245.5,-150.5 349.5,-150.5 349.5,-120.5 245.5,-120.5"/>
<text text-anchor="start" x="253.5" y="-138.5" font-family="Arial" font-size="10.00">problem_setup.write</text>
<text text-anchor="middle" x="297.5" y="-127.5" font-family="Arial" font-size="10.00">_line_geo</text>
</a>
</g>
</g>
<!-- Node1&#45;&gt;Node14 -->
<g id="edge19" class="edge">
<title>Node1&#45;&gt;Node14</title>
<path fill="none" stroke="midnightblue" d="M178.42,-163.93C197.6,-159.31 217.57,-154.5 235.52,-150.18"/>
<polygon fill="midnightblue" stroke="midnightblue" points="236.36,-153.58 245.27,-147.84 234.73,-146.77 236.36,-153.58"/>
</g>
<!-- Node15 -->
<g id="node15" class="node">
<title>Node15</title>
<g id="a_node15"><a xlink:href="namespaceproblem__setup.html#ae45ac6289b055b690701987871bc07cc" target="_top" xlink:title=" ">
<polygon fill="none" stroke="black" points="245.5,-71.5 245.5,-101.5 349.5,-101.5 349.5,-71.5 245.5,-71.5"/>
<text text-anchor="start" x="253.5" y="-89.5" font-family="Arial" font-size="10.00">problem_setup.write</text>
<text text-anchor="middle" x="297.5" y="-78.5" font-family="Arial" font-size="10.00">_point_geo</text>
</a>
</g>
</g>
<!-- Node1&#45;&gt;Node15 -->
<g id="edge20" class="edge">
<title>Node1&#45;&gt;Node15</title>
<path fill="none" stroke="midnightblue" d="M123.8,-163.92C148.9,-147.8 185.68,-125.65 220,-110.5 225.01,-108.29 230.3,-106.19 235.64,-104.22"/>
<polygon fill="midnightblue" stroke="midnightblue" points="237.03,-107.44 245.3,-100.82 234.7,-100.84 237.03,-107.44"/>
</g>
<!-- Node5 -->
<g id="node5" class="node">
<title>Node5</title>
<g id="a_node5"><a xlink:href="namespaceproblem__setup.html#ada05bf105b9c97f6a6569fdfad318130" target="_top" xlink:title=" ">
<polygon fill="none" stroke="black" points="411,-213.5 411,-243.5 515,-243.5 515,-213.5 411,-213.5"/>
<text text-anchor="start" x="419" y="-231.5" font-family="Arial" font-size="10.00">problem_setup.copy</text>
<text text-anchor="middle" x="463" y="-220.5" font-family="Arial" font-size="10.00">_contact_zone</text>
</a>
</g>
</g>
<!-- Node4&#45;&gt;Node5 -->
<g id="edge4" class="edge">
<title>Node4&#45;&gt;Node5</title>
<path fill="none" stroke="midnightblue" d="M349.78,-198.3C366.07,-202.68 384.23,-207.57 401.12,-212.12"/>
<polygon fill="midnightblue" stroke="midnightblue" points="400.33,-215.53 410.9,-214.75 402.15,-208.77 400.33,-215.53"/>
</g>
<!-- Node6 -->
<g id="node6" class="node">
<title>Node6</title>
<g id="a_node6"><a xlink:href="namespaceproblem__setup.html#af977354e61703cd925c2511fd3ca0858" target="_top" xlink:title=" ">
<polygon fill="none" stroke="black" points="558,-337 558,-356 667,-356 667,-337 558,-337"/>
<text text-anchor="middle" x="612.5" y="-344" font-family="Arial" font-size="10.00">problem_setup.get_E</text>
</a>
</g>
</g>
<!-- Node4&#45;&gt;Node6 -->
<g id="edge11" class="edge">
<title>Node4&#45;&gt;Node6</title>
<path fill="none" stroke="midnightblue" d="M349.84,-194.14C359.07,-197.75 367.97,-202.7 375,-209.5 408.65,-242.06 375.33,-278.17 411,-308.5 448.48,-340.37 504.3,-348.85 547.53,-349.93"/>
<polygon fill="midnightblue" stroke="midnightblue" points="547.62,-353.43 557.66,-350.06 547.71,-346.43 547.62,-353.43"/>
</g>
<!-- Node7 -->
<g id="node7" class="node">
<title>Node7</title>
<g id="a_node7"><a xlink:href="namespaceproblem__setup.html#a564e6017e037399c311be8b31653e45d" target="_top" xlink:title=" ">
<polygon fill="none" stroke="black" points="551,-298 551,-317 674,-317 674,-298 551,-298"/>
<text text-anchor="middle" x="612.5" y="-305" font-family="Arial" font-size="10.00">problem_setup.get_eff_k</text>
</a>
</g>
</g>
<!-- Node4&#45;&gt;Node7 -->
<g id="edge12" class="edge">
<title>Node4&#45;&gt;Node7</title>
<path fill="none" stroke="midnightblue" d="M349.55,-195.05C358.7,-198.58 367.64,-203.27 375,-209.5 401.39,-231.86 382.78,-258.49 411,-278.5 448.37,-305 499.62,-312.04 540.95,-312.56"/>
<polygon fill="midnightblue" stroke="midnightblue" points="540.96,-316.06 550.96,-312.57 540.96,-309.06 540.96,-316.06"/>
</g>
<!-- Node8 -->
<g id="node8" class="node">
<title>Node8</title>
<g id="a_node8"><a xlink:href="namespaceproblem__setup.html#adc274a492cfb30270617c3c66d64c6c4" target="_top" xlink:title=" ">
<polygon fill="none" stroke="black" points="557.5,-258 557.5,-277 667.5,-277 667.5,-258 557.5,-258"/>
<text text-anchor="middle" x="612.5" y="-265" font-family="Arial" font-size="10.00">problem_setup.get_G</text>
</a>
</g>
</g>
<!-- Node4&#45;&gt;Node8 -->
<g id="edge13" class="edge">
<title>Node4&#45;&gt;Node8</title>
<path fill="none" stroke="midnightblue" d="M349.79,-196.76C358.62,-200.1 367.39,-204.29 375,-209.5 395.85,-223.78 388.56,-241.89 411,-253.5 452.71,-275.08 505.99,-277.84 547.13,-275.6"/>
<polygon fill="midnightblue" stroke="midnightblue" points="547.57,-279.08 557.32,-274.93 547.11,-272.09 547.57,-279.08"/>
</g>
<!-- Node9 -->
<g id="node9" class="node">
<title>Node9</title>
<g id="a_node9"><a xlink:href="namespaceproblem__setup.html#aa39e6862e38920798278f55a2578a6ef" target="_top" xlink:title=" ">
<polygon fill="none" stroke="black" points="552,-215 552,-234 673,-234 673,-215 552,-215"/>
<text text-anchor="middle" x="612.5" y="-222" font-family="Arial" font-size="10.00">problem_setup.get_max</text>
</a>
</g>
</g>
<!-- Node4&#45;&gt;Node9 -->
<g id="edge14" class="edge">
<title>Node4&#45;&gt;Node9</title>
<path fill="none" stroke="midnightblue" d="M349.87,-187.62C393.86,-190.67 458.81,-196.11 515,-204.5 529.85,-206.72 545.86,-209.76 560.48,-212.81"/>
<polygon fill="midnightblue" stroke="midnightblue" points="559.85,-216.26 570.36,-214.91 561.3,-209.41 559.85,-216.26"/>
</g>
<!-- Node10 -->
<g id="node10" class="node">
<title>Node10</title>
<g id="a_node10"><a xlink:href="namespaceproblem__setup.html#a55fb909469dce4448cbab6267c05d783" target="_top" xlink:title=" ">
<polygon fill="none" stroke="black" points="561.5,-161.5 561.5,-191.5 663.5,-191.5 663.5,-161.5 561.5,-161.5"/>
<text text-anchor="start" x="569.5" y="-179.5" font-family="Arial" font-size="10.00">problem_setup.print</text>
<text text-anchor="middle" x="612.5" y="-168.5" font-family="Arial" font-size="10.00">_int_list</text>
</a>
</g>
</g>
<!-- Node4&#45;&gt;Node10 -->
<g id="edge15" class="edge">
<title>Node4&#45;&gt;Node10</title>
<path fill="none" stroke="midnightblue" d="M349.62,-176.78C368.82,-174.24 390.86,-171.75 411,-170.5 457.13,-167.64 468.8,-169.07 515,-170.5 526.8,-170.87 539.39,-171.48 551.46,-172.19"/>
<polygon fill="midnightblue" stroke="midnightblue" points="551.25,-175.68 561.44,-172.79 551.67,-168.69 551.25,-175.68"/>
</g>
<!-- Node11 -->
<g id="node11" class="node">
<title>Node11</title>
<g id="a_node11"><a xlink:href="namespaceproblem__setup.html#a192b6d085d04429814f30104aeb18493" target="_top" xlink:title=" ">
<polygon fill="none" stroke="black" points="558.5,-115 558.5,-134 666.5,-134 666.5,-115 558.5,-115"/>
<text text-anchor="middle" x="612.5" y="-122" font-family="Arial" font-size="10.00">problem_setup.rotate</text>
</a>
</g>
</g>
<!-- Node4&#45;&gt;Node11 -->
<g id="edge16" class="edge">
<title>Node4&#45;&gt;Node11</title>
<path fill="none" stroke="midnightblue" d="M349.84,-174.66C405.25,-164.04 493.4,-147.14 551.86,-135.93"/>
<polygon fill="midnightblue" stroke="midnightblue" points="552.53,-139.37 561.69,-134.05 551.21,-132.49 552.53,-139.37"/>
</g>
<!-- Node12 -->
<g id="node12" class="node">
<title>Node12</title>
<g id="a_node12"><a xlink:href="namespaceproblem__setup.html#ad4d4b3139613a4ea00dadf8eb7c60a88" target="_top" xlink:title=" ">
<polygon fill="none" stroke="black" points="411,-49.5 411,-79.5 515,-79.5 515,-49.5 411,-49.5"/>
<text text-anchor="start" x="419" y="-67.5" font-family="Arial" font-size="10.00">problem_setup.write</text>
<text text-anchor="middle" x="463" y="-56.5" font-family="Arial" font-size="10.00">_contact_zone_part</text>
</a>
</g>
</g>
<!-- Node4&#45;&gt;Node12 -->
<g id="edge17" class="edge">
<title>Node4&#45;&gt;Node12</title>
<path fill="none" stroke="midnightblue" d="M349.82,-173.64C358.84,-170.15 367.67,-165.55 375,-159.5 400.46,-138.47 387.95,-118.15 411,-94.5 414.32,-91.09 418.11,-87.94 422.09,-85.05"/>
<polygon fill="midnightblue" stroke="midnightblue" points="424.03,-87.96 430.43,-79.52 420.16,-82.13 424.03,-87.96"/>
</g>
<!-- Node13 -->
<g id="node13" class="node">
<title>Node13</title>
<g id="a_node13"><a xlink:href="namespaceproblem__setup.html#a3b2a9fc19652f44b774b4bb9a8221265" target="_top" xlink:title=" ">
<polygon fill="none" stroke="black" points="411,-0.5 411,-30.5 515,-30.5 515,-0.5 411,-0.5"/>
<text text-anchor="start" x="419" y="-18.5" font-family="Arial" font-size="10.00">problem_setup.write</text>
<text text-anchor="middle" x="463" y="-7.5" font-family="Arial" font-size="10.00">_material_zone_part</text>
</a>
</g>
</g>
<!-- Node4&#45;&gt;Node13 -->
<g id="edge18" class="edge">
<title>Node4&#45;&gt;Node13</title>
<path fill="none" stroke="midnightblue" d="M349.76,-175.33C359.1,-171.68 368.07,-166.6 375,-159.5 413.89,-119.65 374.65,-81.68 411,-39.5 411.73,-38.65 412.51,-37.82 413.31,-37.03"/>
<polygon fill="midnightblue" stroke="midnightblue" points="415.71,-39.58 421.28,-30.57 411.31,-34.14 415.71,-39.58"/>
</g>
<!-- Node5&#45;&gt;Node6 -->
<g id="edge5" class="edge">
<title>Node5&#45;&gt;Node6</title>
<path fill="none" stroke="midnightblue" d="M473.64,-243.69C488,-265.12 516.98,-304.11 551,-326.5 554.74,-328.96 558.81,-331.14 563.01,-333.07"/>
<polygon fill="midnightblue" stroke="midnightblue" points="561.76,-336.35 572.34,-336.91 564.42,-329.87 561.76,-336.35"/>
</g>
<!-- Node5&#45;&gt;Node7 -->
<g id="edge6" class="edge">
<title>Node5&#45;&gt;Node7</title>
<path fill="none" stroke="midnightblue" d="M483.51,-243.61C500.59,-256.32 526.45,-274.31 551,-286.5 556.82,-289.39 563.13,-292.05 569.4,-294.44"/>
<polygon fill="midnightblue" stroke="midnightblue" points="568.57,-297.86 579.17,-297.97 570.95,-291.28 568.57,-297.86"/>
</g>
<!-- Node5&#45;&gt;Node8 -->
<g id="edge7" class="edge">
<title>Node5&#45;&gt;Node8</title>
<path fill="none" stroke="midnightblue" d="M515.17,-242.03C531.42,-246.33 549.28,-251.05 565.16,-255.25"/>
<polygon fill="midnightblue" stroke="midnightblue" points="564.72,-258.75 575.28,-257.92 566.51,-251.98 564.72,-258.75"/>
</g>
<!-- Node5&#45;&gt;Node9 -->
<g id="edge8" class="edge">
<title>Node5&#45;&gt;Node9</title>
<path fill="none" stroke="midnightblue" d="M515.17,-227.11C523.76,-226.88 532.8,-226.63 541.75,-226.39"/>
<polygon fill="midnightblue" stroke="midnightblue" points="541.9,-229.89 551.8,-226.12 541.71,-222.89 541.9,-229.89"/>
</g>
<!-- Node5&#45;&gt;Node10 -->
<g id="edge9" class="edge">
<title>Node5&#45;&gt;Node10</title>
<path fill="none" stroke="midnightblue" d="M506.66,-213.46C523.02,-207.69 541.88,-201.04 559.05,-194.99"/>
<polygon fill="midnightblue" stroke="midnightblue" points="560.67,-198.13 568.93,-191.51 558.34,-191.53 560.67,-198.13"/>
</g>
<!-- Node5&#45;&gt;Node11 -->
<g id="edge10" class="edge">
<title>Node5&#45;&gt;Node11</title>
<path fill="none" stroke="midnightblue" d="M478.64,-213.35C495.12,-196.88 523.24,-170.52 551,-152.5 559.2,-147.18 568.57,-142.32 577.45,-138.2"/>
<polygon fill="midnightblue" stroke="midnightblue" points="579.11,-141.3 586.82,-134.03 576.26,-134.9 579.11,-141.3"/>
</g>
</g>
</svg>
