<?xml version="1.0" encoding="UTF-8" standalone="no"?>
<!DOCTYPE svg PUBLIC "-//W3C//DTD SVG 1.1//EN"
 "http://www.w3.org/Graphics/SVG/1.1/DTD/svg11.dtd">
<!-- Generated by graphviz version 2.43.0 (0)
 -->
<!-- Title: util::parallel::mpiSize Pages: 1 -->
<svg width="417pt" height="27pt"
 viewBox="0.00 0.00 417.00 27.00" xmlns="http://www.w3.org/2000/svg" xmlns:xlink="http://www.w3.org/1999/xlink">
<g id="graph0" class="graph" transform="scale(1 1) rotate(0) translate(4 23)">
<title>util::parallel::mpiSize</title>
<!-- Node1 -->
<g id="Node000001" class="node">
<title>Node1</title>
<g id="a_Node000001"><a xlink:title="Get size (number) of processors.">
<polygon fill="#999999" stroke="#666666" points="107,-19 0,-19 0,0 107,0 107,-19"/>
<text text-anchor="middle" x="53.5" y="-7" font-family="Arial" font-size="10.00">util::parallel::mpiSize</text>
</a>
</g>
</g>
<!-- Node2 -->
<g id="Node000002" class="node">
<title>Node2</title>
<g id="a_Node000002"><a xlink:href="namespaceutil_1_1parallel.html#aa0c65ae0f7fb6e0c4f3104c5bf3b1ff6" target="_top" xlink:title="Initializes MPI and also creates MpiStatus struct.">
<polygon fill="white" stroke="#666666" points="244,-19 143,-19 143,0 244,0 244,-19"/>
<text text-anchor="middle" x="193.5" y="-7" font-family="Arial" font-size="10.00">util::parallel::initMpi</text>
</a>
</g>
</g>
<!-- Node1&#45;&gt;Node2 -->
<g id="edge1_Node000001_Node000002" class="edge">
<title>Node1&#45;&gt;Node2</title>
<g id="a_edge1_Node000001_Node000002"><a xlink:title=" ">
<path fill="none" stroke="#63b8ff" d="M107.07,-9.5C115.4,-9.5 124.08,-9.5 132.58,-9.5"/>
<polygon fill="#63b8ff" stroke="#63b8ff" points="132.81,-13 142.81,-9.5 132.81,-6 132.81,-13"/>
</a>
</g>
</g>
<!-- Node3 -->
<g id="Node000003" class="node">
<title>Node3</title>
<g id="a_Node000003"><a xlink:href="namespaceutil_1_1parallel.html#a47cb50d2db6de7cf2a786994f274cc9a" target="_top" xlink:title="Initializes MpiStatus struct.">
<polygon fill="white" stroke="#666666" points="409,-19 280,-19 280,0 409,0 409,-19"/>
<text text-anchor="middle" x="344.5" y="-7" font-family="Arial" font-size="10.00">util::parallel::initMpiStatus</text>
</a>
</g>
</g>
<!-- Node2&#45;&gt;Node3 -->
<g id="edge2_Node000002_Node000003" class="edge">
<title>Node2&#45;&gt;Node3</title>
<g id="a_edge2_Node000002_Node000003"><a xlink:title=" ">
<path fill="none" stroke="#63b8ff" d="M244.11,-9.5C252.33,-9.5 261,-9.5 269.66,-9.5"/>
<polygon fill="#63b8ff" stroke="#63b8ff" points="269.79,-13 279.79,-9.5 269.79,-6 269.79,-13"/>
</a>
</g>
</g>
</g>
</svg>
