<?xml version="1.0" encoding="UTF-8" standalone="no"?>
<!DOCTYPE svg PUBLIC "-//W3C//DTD SVG 1.1//EN"
 "http://www.w3.org/Graphics/SVG/1.1/DTD/svg11.dtd">
<!-- Generated by graphviz version 2.43.0 (0)
 -->
<!-- Title: anonymous_namespace{tetElem::cpp}::checkPoint Pages: 1 -->
<svg width="252pt" height="66pt"
 viewBox="0.00 0.00 252.00 66.00" xmlns="http://www.w3.org/2000/svg" xmlns:xlink="http://www.w3.org/1999/xlink">
<g id="graph0" class="graph" transform="scale(1 1) rotate(0) translate(4 62)">
<title>anonymous_namespace{tetElem::cpp}::checkPoint</title>
<!-- Node1 -->
<g id="node1" class="node">
<title>Node1</title>
<g id="a_node1"><a xlink:title=" ">
<polygon fill="#bfbfbf" stroke="black" points="0,-14 0,-44 133,-44 133,-14 0,-14"/>
<text text-anchor="start" x="8" y="-32" font-family="Arial" font-size="10.00">anonymous_namespace</text>
<text text-anchor="middle" x="66.5" y="-21" font-family="Arial" font-size="10.00">{tetElem::cpp}::checkPoint</text>
</a>
</g>
</g>
<!-- Node2 -->
<g id="node2" class="node">
<title>Node2</title>
<g id="a_node2"><a xlink:href="namespaceutil.html#a227b5f8acbd7a403a033663c8893d631" target="_top" xlink:title="Returns true if a &gt; b.">
<polygon fill="none" stroke="black" points="169,-38.5 169,-57.5 244,-57.5 244,-38.5 169,-38.5"/>
<text text-anchor="middle" x="206.5" y="-45.5" font-family="Arial" font-size="10.00">util::isGreater</text>
</a>
</g>
</g>
<!-- Node1&#45;&gt;Node2 -->
<g id="edge1" class="edge">
<title>Node1&#45;&gt;Node2</title>
<path fill="none" stroke="midnightblue" d="M133.27,-38.05C141.86,-39.24 150.52,-40.43 158.71,-41.56"/>
<polygon fill="midnightblue" stroke="midnightblue" points="158.41,-45.05 168.79,-42.95 159.36,-38.11 158.41,-45.05"/>
</g>
<!-- Node3 -->
<g id="node3" class="node">
<title>Node3</title>
<g id="a_node3"><a xlink:href="namespaceutil.html#a868a26599b6b844d08d30063ac898319" target="_top" xlink:title="Returns true if a &lt; b.">
<polygon fill="none" stroke="black" points="174.5,-0.5 174.5,-19.5 238.5,-19.5 238.5,-0.5 174.5,-0.5"/>
<text text-anchor="middle" x="206.5" y="-7.5" font-family="Arial" font-size="10.00">util::isLess</text>
</a>
</g>
</g>
<!-- Node1&#45;&gt;Node3 -->
<g id="edge2" class="edge">
<title>Node1&#45;&gt;Node3</title>
<path fill="none" stroke="midnightblue" d="M133.27,-19.95C143.77,-18.5 154.37,-17.04 164.1,-15.7"/>
<polygon fill="midnightblue" stroke="midnightblue" points="164.83,-19.13 174.26,-14.3 163.88,-12.2 164.83,-19.13"/>
</g>
</g>
</svg>
