<?xml version="1.0" encoding="UTF-8" standalone="no"?>
<!DOCTYPE svg PUBLIC "-//W3C//DTD SVG 1.1//EN"
 "http://www.w3.org/Graphics/SVG/1.1/DTD/svg11.dtd">
<!-- Generated by graphviz version 2.43.0 (0)
 -->
<!-- Title: util.print_line_gmsh Pages: 1 -->
<svg width="260pt" height="137pt"
 viewBox="0.00 0.00 260.00 137.00" xmlns="http://www.w3.org/2000/svg" xmlns:xlink="http://www.w3.org/1999/xlink">
<g id="graph0" class="graph" transform="scale(1 1) rotate(0) translate(4 133)">
<title>util.print_line_gmsh</title>
<!-- Node1 -->
<g id="node1" class="node">
<title>Node1</title>
<g id="a_node1"><a xlink:title=" ">
<polygon fill="#bfbfbf" stroke="black" points="151,-55 151,-74 252,-74 252,-55 151,-55"/>
<text text-anchor="middle" x="201.5" y="-62" font-family="Arial" font-size="10.00">util.print_line_gmsh</text>
</a>
</g>
</g>
<!-- Node2 -->
<g id="node2" class="node">
<title>Node2</title>
<g id="a_node2"><a xlink:href="namespaceutil.html#a7e15bd87271d00aa79d9fd69965cec1f" target="_top" xlink:title=" ">
<polygon fill="none" stroke="black" points="9,-98.5 9,-128.5 106,-128.5 106,-98.5 9,-98.5"/>
<text text-anchor="start" x="17" y="-116.5" font-family="Arial" font-size="10.00">util.generate_drum</text>
<text text-anchor="middle" x="57.5" y="-105.5" font-family="Arial" font-size="10.00">_gmsh_input</text>
</a>
</g>
</g>
<!-- Node1&#45;&gt;Node2 -->
<g id="edge1" class="edge">
<title>Node1&#45;&gt;Node2</title>
<path fill="none" stroke="midnightblue" d="M163.12,-77.4C144.39,-83.86 121.6,-91.73 102.08,-98.46"/>
<polygon fill="midnightblue" stroke="midnightblue" points="164.47,-80.63 172.78,-74.06 162.19,-74.02 164.47,-80.63"/>
</g>
<!-- Node3 -->
<g id="node3" class="node">
<title>Node3</title>
<g id="a_node3"><a xlink:href="namespaceutil.html#a49e20c8c2bf46de2b79f1c833602e5ba" target="_top" xlink:title=" ">
<polygon fill="none" stroke="black" points="1.5,-49.5 1.5,-79.5 113.5,-79.5 113.5,-49.5 1.5,-49.5"/>
<text text-anchor="start" x="9.5" y="-67.5" font-family="Arial" font-size="10.00">util.generate_hexagon</text>
<text text-anchor="middle" x="57.5" y="-56.5" font-family="Arial" font-size="10.00">_gmsh_input</text>
</a>
</g>
</g>
<!-- Node1&#45;&gt;Node3 -->
<g id="edge2" class="edge">
<title>Node1&#45;&gt;Node3</title>
<path fill="none" stroke="midnightblue" d="M140.83,-64.5C131.84,-64.5 122.6,-64.5 113.71,-64.5"/>
<polygon fill="midnightblue" stroke="midnightblue" points="140.84,-68 150.84,-64.5 140.84,-61 140.84,-68"/>
</g>
<!-- Node4 -->
<g id="node4" class="node">
<title>Node4</title>
<g id="a_node4"><a xlink:href="namespaceutil.html#ae5920514e167d8b6a1dbd85c88d9b33e" target="_top" xlink:title=" ">
<polygon fill="none" stroke="black" points="0,-0.5 0,-30.5 115,-30.5 115,-0.5 0,-0.5"/>
<text text-anchor="start" x="8" y="-18.5" font-family="Arial" font-size="10.00">util.generate_rectangle</text>
<text text-anchor="middle" x="57.5" y="-7.5" font-family="Arial" font-size="10.00">_gmsh_input</text>
</a>
</g>
</g>
<!-- Node1&#45;&gt;Node4 -->
<g id="edge3" class="edge">
<title>Node1&#45;&gt;Node4</title>
<path fill="none" stroke="midnightblue" d="M163.12,-51.6C144.39,-45.14 121.6,-37.27 102.08,-30.54"/>
<polygon fill="midnightblue" stroke="midnightblue" points="162.19,-54.98 172.78,-54.94 164.47,-48.37 162.19,-54.98"/>
</g>
</g>
</svg>
