<?xml version="1.0" encoding="UTF-8" standalone="no"?>
<!DOCTYPE svg PUBLIC "-//W3C//DTD SVG 1.1//EN"
 "http://www.w3.org/Graphics/SVG/1.1/DTD/svg11.dtd">
<!-- Generated by graphviz version 2.43.0 (0)
 -->
<!-- Title: problem_setup.particle_locations Pages: 1 -->
<svg width="685pt" height="422pt"
 viewBox="0.00 0.00 685.00 421.58" xmlns="http://www.w3.org/2000/svg" xmlns:xlink="http://www.w3.org/1999/xlink">
<g id="graph0" class="graph" transform="scale(1 1) rotate(0) translate(4 417.58)">
<title>problem_setup.particle_locations</title>
<!-- Node1 -->
<g id="node1" class="node">
<title>Node1</title>
<g id="a_node1"><a xlink:title=" ">
<polygon fill="#bfbfbf" stroke="black" points="562,-153.08 562,-183.08 677,-183.08 677,-153.08 562,-153.08"/>
<text text-anchor="start" x="570" y="-171.08" font-family="Arial" font-size="10.00">problem_setup.particle</text>
<text text-anchor="middle" x="619.5" y="-160.08" font-family="Arial" font-size="10.00">_locations</text>
</a>
</g>
</g>
<!-- Node2 -->
<g id="node2" class="node">
<title>Node2</title>
<g id="a_node2"><a xlink:href="namespaceproblem__setup.html#a64e067098e447f766d042476ef5abe85" target="_top" xlink:title=" ">
<polygon fill="none" stroke="black" points="405.5,-197.08 405.5,-227.08 515.5,-227.08 515.5,-197.08 405.5,-197.08"/>
<text text-anchor="start" x="413.5" y="-215.08" font-family="Arial" font-size="10.00">problem_setup.create</text>
<text text-anchor="middle" x="460.5" y="-204.08" font-family="Arial" font-size="10.00">_input_file</text>
</a>
</g>
</g>
<!-- Node1&#45;&gt;Node2 -->
<g id="edge1" class="edge">
<title>Node1&#45;&gt;Node2</title>
<path fill="none" stroke="midnightblue" d="M554.94,-185.89C541.73,-189.59 527.93,-193.46 515.12,-197.05"/>
<polygon fill="midnightblue" stroke="midnightblue" points="556.22,-189.17 564.91,-183.1 554.34,-182.42 556.22,-189.17"/>
</g>
<!-- Node3 -->
<g id="node3" class="node">
<title>Node3</title>
<g id="a_node3"><a xlink:href="namespaceproblem__setup.html#a87c8571f538ea8ab692816e1388af758" target="_top" xlink:title=" ">
<polygon fill="none" stroke="black" points="195.5,-383.08 195.5,-413.08 338.5,-413.08 338.5,-383.08 195.5,-383.08"/>
<text text-anchor="start" x="203.5" y="-401.08" font-family="Arial" font-size="10.00">problem_setup.generate</text>
<text text-anchor="middle" x="267" y="-390.08" font-family="Arial" font-size="10.00">_cylindrical_wall_gmsh_input</text>
</a>
</g>
</g>
<!-- Node1&#45;&gt;Node3 -->
<g id="edge18" class="edge">
<title>Node1&#45;&gt;Node3</title>
<path fill="none" stroke="midnightblue" d="M608.54,-192.87C594.59,-224.69 566.31,-279.63 526,-312.08 471.75,-355.74 394.36,-377.64 338.51,-388.36"/>
<polygon fill="midnightblue" stroke="midnightblue" points="611.87,-193.99 612.57,-183.42 605.43,-191.25 611.87,-193.99"/>
</g>
<!-- Node5 -->
<g id="node5" class="node">
<title>Node5</title>
<g id="a_node5"><a xlink:href="namespaceproblem__setup.html#a8c789550cc1b70abe559c976bcf664e4" target="_top" xlink:title=" ">
<polygon fill="none" stroke="black" points="201.5,-334.08 201.5,-364.08 332.5,-364.08 332.5,-334.08 201.5,-334.08"/>
<text text-anchor="start" x="209.5" y="-352.08" font-family="Arial" font-size="10.00">problem_setup.generate</text>
<text text-anchor="middle" x="267" y="-341.08" font-family="Arial" font-size="10.00">_moving_wall_gmsh_input</text>
</a>
</g>
</g>
<!-- Node1&#45;&gt;Node5 -->
<g id="edge19" class="edge">
<title>Node1&#45;&gt;Node5</title>
<path fill="none" stroke="midnightblue" d="M603.34,-191.5C586.94,-215.06 558.71,-250.85 526,-272.08 466.79,-310.5 387.67,-330.38 332.72,-340.23"/>
<polygon fill="midnightblue" stroke="midnightblue" points="606.3,-193.36 609.03,-183.12 600.51,-189.43 606.3,-193.36"/>
</g>
<!-- Node7 -->
<g id="node7" class="node">
<title>Node7</title>
<g id="a_node7"><a xlink:href="namespaceproblem__setup.html#a147f310ff74124342d15ab356739883f" target="_top" xlink:title=" ">
<polygon fill="none" stroke="black" points="206.5,-285.08 206.5,-315.08 327.5,-315.08 327.5,-285.08 206.5,-285.08"/>
<text text-anchor="start" x="214.5" y="-303.08" font-family="Arial" font-size="10.00">problem_setup.generate</text>
<text text-anchor="middle" x="267" y="-292.08" font-family="Arial" font-size="10.00">_particle_gmsh_input</text>
</a>
</g>
</g>
<!-- Node1&#45;&gt;Node7 -->
<g id="edge20" class="edge">
<title>Node1&#45;&gt;Node7</title>
<path fill="none" stroke="midnightblue" d="M594.88,-189.94C577.15,-205.23 551.62,-225.01 526,-237.08 461.76,-267.33 381.45,-283.99 327.64,-292.45"/>
<polygon fill="midnightblue" stroke="midnightblue" points="597.25,-192.51 602.44,-183.27 592.63,-187.25 597.25,-192.51"/>
</g>
<!-- Node10 -->
<g id="node10" class="node">
<title>Node10</title>
<g id="a_node10"><a xlink:href="namespaceproblem__setup.html#aa86d439a2a3be267e8af3fe687016583" target="_top" xlink:title=" ">
<polygon fill="none" stroke="black" points="0,-30.08 0,-60.08 139,-60.08 139,-30.08 0,-30.08"/>
<text text-anchor="start" x="8" y="-48.08" font-family="Arial" font-size="10.00">problem_setup.generate</text>
<text text-anchor="middle" x="69.5" y="-37.08" font-family="Arial" font-size="10.00">_rect_container_gmsh_input</text>
</a>
</g>
</g>
<!-- Node1&#45;&gt;Node10 -->
<g id="edge21" class="edge">
<title>Node1&#45;&gt;Node10</title>
<path fill="none" stroke="midnightblue" d="M612.52,-142.73C602.14,-105.07 576.82,-35.49 526,-5.08 513.29,2.53 176.73,-0.73 175,-1.08 147.6,-6.61 118.44,-19.54 97.91,-29.96"/>
<polygon fill="midnightblue" stroke="midnightblue" points="609.26,-144.1 615.17,-152.89 616.04,-142.33 609.26,-144.1"/>
</g>
<!-- Node11 -->
<g id="node11" class="node">
<title>Node11</title>
<g id="a_node11"><a xlink:href="namespaceproblem__setup.html#ab2d86f4fe187ef9b78d1ad4ea438b98b" target="_top" xlink:title=" ">
<polygon fill="none" stroke="black" points="175,-48.58 175,-89.58 359,-89.58 359,-48.58 175,-48.58"/>
<text text-anchor="start" x="183" y="-77.58" font-family="Arial" font-size="10.00">problem_setup.generate</text>
<text text-anchor="start" x="183" y="-66.58" font-family="Arial" font-size="10.00">_rectangle_with_protrusion</text>
<text text-anchor="middle" x="267" y="-55.58" font-family="Arial" font-size="10.00">_and_opening_wall_gmsh_input_type3</text>
</a>
</g>
</g>
<!-- Node1&#45;&gt;Node11 -->
<g id="edge22" class="edge">
<title>Node1&#45;&gt;Node11</title>
<path fill="none" stroke="midnightblue" d="M551.98,-150.76C543.24,-148.5 534.41,-146.23 526,-144.08 467.83,-129.2 452.65,-127.85 395,-111.08 372.7,-104.59 348.44,-96.76 327.16,-89.63"/>
<polygon fill="midnightblue" stroke="midnightblue" points="551.21,-154.17 561.77,-153.29 552.97,-147.4 551.21,-154.17"/>
</g>
<!-- Node12 -->
<g id="node12" class="node">
<title>Node12</title>
<g id="a_node12"><a xlink:href="namespaceproblem__setup.html#ad0951de1e260620b256ecd25ed5d8e5a" target="_top" xlink:title=" ">
<polygon fill="none" stroke="black" points="209.5,-109.08 209.5,-139.08 324.5,-139.08 324.5,-109.08 209.5,-109.08"/>
<text text-anchor="start" x="217.5" y="-127.08" font-family="Arial" font-size="10.00">problem_setup.particle</text>
<text text-anchor="middle" x="267" y="-116.08" font-family="Arial" font-size="10.00">_locations</text>
</a>
</g>
</g>
<!-- Node1&#45;&gt;Node12 -->
<g id="edge24" class="edge">
<title>Node1&#45;&gt;Node12</title>
<path fill="none" stroke="midnightblue" d="M551.81,-161.78C507.33,-157.37 447.58,-151.04 395,-144.08 371.99,-141.03 346.71,-137.16 324.81,-133.64"/>
<polygon fill="midnightblue" stroke="midnightblue" points="551.62,-165.28 561.92,-162.78 552.31,-158.31 551.62,-165.28"/>
</g>
<!-- Node13 -->
<g id="node13" class="node">
<title>Node13</title>
<g id="a_node13"><a xlink:href="namespaceproblem__setup.html#a66cf6b889081b2c318eb0110057d83c9" target="_top" xlink:title=" ">
<polygon fill="none" stroke="black" points="395,-49.08 395,-101.08 526,-101.08 526,-49.08 395,-49.08"/>
<text text-anchor="start" x="403" y="-89.08" font-family="Arial" font-size="10.00">problem_setup.does</text>
<text text-anchor="start" x="403" y="-78.08" font-family="Arial" font-size="10.00">_intersect_with_rectangle</text>
<text text-anchor="start" x="403" y="-67.08" font-family="Arial" font-size="10.00">_wall_with_protrusion_and</text>
<text text-anchor="middle" x="460.5" y="-56.08" font-family="Arial" font-size="10.00">_opening</text>
</a>
</g>
</g>
<!-- Node1&#45;&gt;Node13 -->
<g id="edge15" class="edge">
<title>Node1&#45;&gt;Node13</title>
<path fill="none" stroke="midnightblue" d="M584.15,-147.73C561.05,-134.04 530.37,-115.87 505.48,-101.13"/>
<polygon fill="midnightblue" stroke="midnightblue" points="582.54,-150.84 592.93,-152.93 586.11,-144.82 582.54,-150.84"/>
</g>
<!-- Node14 -->
<g id="node14" class="node">
<title>Node14</title>
<g id="a_node14"><a xlink:href="namespaceproblem__setup.html#a91bf08b893f31c7d232346b6178f0a98" target="_top" xlink:title=" ">
<polygon fill="none" stroke="black" points="202.5,-10.58 202.5,-29.58 331.5,-29.58 331.5,-10.58 202.5,-10.58"/>
<text text-anchor="middle" x="267" y="-17.58" font-family="Arial" font-size="10.00">problem_setup.get_center</text>
</a>
</g>
</g>
<!-- Node1&#45;&gt;Node14 -->
<g id="edge23" class="edge">
<title>Node1&#45;&gt;Node14</title>
<path fill="none" stroke="midnightblue" d="M608.56,-143.49C594.91,-113.29 567.25,-63.21 526,-40.08 466.44,-6.67 386.65,-5.88 331.66,-10.76"/>
<polygon fill="midnightblue" stroke="midnightblue" points="605.46,-145.13 612.66,-152.91 611.88,-142.34 605.46,-145.13"/>
</g>
<!-- Node2&#45;&gt;Node3 -->
<g id="edge2" class="edge">
<title>Node2&#45;&gt;Node3</title>
<path fill="none" stroke="midnightblue" d="M450.9,-236.94C437.2,-272.8 406.96,-338.62 359,-374.08 352.83,-378.64 345.85,-382.34 338.58,-385.34"/>
<polygon fill="midnightblue" stroke="midnightblue" points="454.3,-237.85 454.48,-227.26 447.73,-235.43 454.3,-237.85"/>
</g>
<!-- Node4 -->
<g id="node4" class="node">
<title>Node4</title>
<g id="a_node4"><a xlink:href="namespaceproblem__setup.html#aff5393227de056de45cfc082e05af1ca" target="_top" xlink:title=" ">
<polygon fill="none" stroke="black" points="199,-197.08 199,-227.08 335,-227.08 335,-197.08 199,-197.08"/>
<text text-anchor="start" x="207" y="-215.08" font-family="Arial" font-size="10.00">problem_setup.generate</text>
<text text-anchor="middle" x="267" y="-204.08" font-family="Arial" font-size="10.00">_drum_particle_gmsh_input</text>
</a>
</g>
</g>
<!-- Node2&#45;&gt;Node4 -->
<g id="edge3" class="edge">
<title>Node2&#45;&gt;Node4</title>
<path fill="none" stroke="midnightblue" d="M395.21,-212.08C375.93,-212.08 354.74,-212.08 335.28,-212.08"/>
<polygon fill="midnightblue" stroke="midnightblue" points="395.39,-215.58 405.39,-212.08 395.39,-208.58 395.39,-215.58"/>
</g>
<!-- Node2&#45;&gt;Node5 -->
<g id="edge4" class="edge">
<title>Node2&#45;&gt;Node5</title>
<path fill="none" stroke="midnightblue" d="M444.58,-235.94C427.18,-261.77 396.02,-302.34 359,-325.08 350.93,-330.04 341.84,-333.98 332.61,-337.12"/>
<polygon fill="midnightblue" stroke="midnightblue" points="447.58,-237.74 450.15,-227.46 441.73,-233.9 447.58,-237.74"/>
</g>
<!-- Node2&#45;&gt;Node7 -->
<g id="edge6" class="edge">
<title>Node2&#45;&gt;Node7</title>
<path fill="none" stroke="midnightblue" d="M427.57,-232.76C408.25,-244.7 382.81,-259.42 359,-270.08 346.55,-275.65 332.74,-280.73 319.72,-285.06"/>
<polygon fill="midnightblue" stroke="midnightblue" points="429.64,-235.59 436.26,-227.32 425.93,-229.66 429.64,-235.59"/>
</g>
<!-- Node9 -->
<g id="node9" class="node">
<title>Node9</title>
<g id="a_node9"><a xlink:href="namespaceproblem__setup.html#af51753c1e02e9634827a449ab8729d44" target="_top" xlink:title=" ">
<polygon fill="none" stroke="black" points="9,-236.08 9,-266.08 130,-266.08 130,-236.08 9,-236.08"/>
<text text-anchor="start" x="17" y="-254.08" font-family="Arial" font-size="10.00">problem_setup.generate</text>
<text text-anchor="middle" x="69.5" y="-243.08" font-family="Arial" font-size="10.00">_wall_gmsh_input</text>
</a>
</g>
</g>
<!-- Node2&#45;&gt;Node9 -->
<g id="edge13" class="edge">
<title>Node2&#45;&gt;Node9</title>
<path fill="none" stroke="midnightblue" d="M397.27,-229.56C384.69,-232.53 371.49,-235.24 359,-237.08 280.49,-248.63 188.8,-251.25 130.23,-251.57"/>
<polygon fill="midnightblue" stroke="midnightblue" points="398.32,-232.91 407.21,-227.14 396.66,-226.11 398.32,-232.91"/>
</g>
<!-- Node2&#45;&gt;Node10 -->
<g id="edge10" class="edge">
<title>Node2&#45;&gt;Node10</title>
<path fill="none" stroke="midnightblue" d="M395.32,-196.49C383.27,-193.64 370.76,-190.73 359,-188.08 277.45,-169.7 248.52,-188.86 175,-149.08 133.8,-126.79 98.1,-83.22 81.1,-60.19"/>
<polygon fill="midnightblue" stroke="midnightblue" points="394.78,-199.96 405.32,-198.87 396.4,-193.15 394.78,-199.96"/>
</g>
<!-- Node2&#45;&gt;Node11 -->
<g id="edge11" class="edge">
<title>Node2&#45;&gt;Node11</title>
<path fill="none" stroke="midnightblue" d="M437.55,-189.77C424.87,-176.68 408.76,-159.69 395,-144.08 378.29,-125.12 379.76,-114.48 359,-100.08 353.38,-96.18 347.22,-92.73 340.85,-89.69"/>
<polygon fill="midnightblue" stroke="midnightblue" points="435.09,-192.26 444.57,-196.98 440.1,-187.37 435.09,-192.26"/>
</g>
<!-- Node2&#45;&gt;Node12 -->
<g id="edge14" class="edge">
<title>Node2&#45;&gt;Node12</title>
<path fill="none" stroke="midnightblue" d="M413.87,-192.43C407.41,-189.2 400.95,-185.71 395,-182.08 377.7,-171.51 376.89,-163.61 359,-154.08 348.14,-148.29 335.95,-143.34 324.11,-139.23"/>
<polygon fill="midnightblue" stroke="midnightblue" points="412.74,-195.77 423.27,-196.97 415.78,-189.47 412.74,-195.77"/>
</g>
<!-- Node6 -->
<g id="node6" class="node">
<title>Node6</title>
<g id="a_node6"><a xlink:href="namespaceproblem__setup.html#a767ffea81ffa775dc9aeb12b2e2a21a4" target="_top" xlink:title=" ">
<polygon fill="none" stroke="black" points="12,-334.08 12,-364.08 127,-364.08 127,-334.08 12,-334.08"/>
<text text-anchor="start" x="20" y="-352.08" font-family="Arial" font-size="10.00">problem_setup.particle</text>
<text text-anchor="middle" x="69.5" y="-341.08" font-family="Arial" font-size="10.00">_locations</text>
</a>
</g>
</g>
<!-- Node5&#45;&gt;Node6 -->
<g id="edge5" class="edge">
<title>Node5&#45;&gt;Node6</title>
<path fill="none" stroke="midnightblue" d="M191.44,-349.08C170.09,-349.08 147.18,-349.08 127.1,-349.08"/>
<polygon fill="midnightblue" stroke="midnightblue" points="191.44,-352.58 201.44,-349.08 191.44,-345.58 191.44,-352.58"/>
</g>
<!-- Node7&#45;&gt;Node6 -->
<g id="edge9" class="edge">
<title>Node7&#45;&gt;Node6</title>
<path fill="none" stroke="midnightblue" d="M196.37,-317.53C173.69,-323.21 148.8,-329.45 127.18,-334.87"/>
<polygon fill="midnightblue" stroke="midnightblue" points="197.43,-320.87 206.28,-315.05 195.73,-314.08 197.43,-320.87"/>
</g>
<!-- Node8 -->
<g id="node8" class="node">
<title>Node8</title>
<g id="a_node8"><a xlink:href="namespaceproblem__setup.html#a94bf8e7f89d392c05bd34dfd6a513675" target="_top" xlink:title=" ">
<polygon fill="none" stroke="black" points="9,-285.08 9,-315.08 130,-315.08 130,-285.08 9,-285.08"/>
<text text-anchor="start" x="17" y="-303.08" font-family="Arial" font-size="10.00">problem_setup.generate</text>
<text text-anchor="middle" x="69.5" y="-292.08" font-family="Arial" font-size="10.00">_particle_gmsh_input</text>
</a>
</g>
</g>
<!-- Node7&#45;&gt;Node8 -->
<g id="edge7" class="edge">
<title>Node7&#45;&gt;Node8</title>
<path fill="none" stroke="midnightblue" d="M196.19,-300.08C174.6,-300.08 151.03,-300.08 130.19,-300.08"/>
<polygon fill="midnightblue" stroke="midnightblue" points="196.28,-303.58 206.28,-300.08 196.28,-296.58 196.28,-303.58"/>
</g>
<!-- Node7&#45;&gt;Node9 -->
<g id="edge8" class="edge">
<title>Node7&#45;&gt;Node9</title>
<path fill="none" stroke="midnightblue" d="M196.49,-282.65C174.82,-277.22 151.12,-271.28 130.19,-266.04"/>
<polygon fill="midnightblue" stroke="midnightblue" points="195.73,-286.07 206.28,-285.11 197.43,-279.28 195.73,-286.07"/>
</g>
<!-- Node11&#45;&gt;Node10 -->
<g id="edge12" class="edge">
<title>Node11&#45;&gt;Node10</title>
<path fill="none" stroke="midnightblue" d="M164.65,-56.64C155.98,-55.57 147.35,-54.51 139.03,-53.49"/>
<polygon fill="midnightblue" stroke="midnightblue" points="164.48,-60.14 174.83,-57.89 165.33,-53.19 164.48,-60.14"/>
</g>
<!-- Node13&#45;&gt;Node14 -->
<g id="edge16" class="edge">
<title>Node13&#45;&gt;Node14</title>
<path fill="none" stroke="midnightblue" d="M385.29,-47.2C376.48,-44.28 367.58,-41.5 359,-39.08 346.42,-35.53 332.69,-32.32 319.8,-29.6"/>
<polygon fill="midnightblue" stroke="midnightblue" points="384.19,-50.52 394.78,-50.42 386.43,-43.89 384.19,-50.52"/>
</g>
<!-- Node14&#45;&gt;Node10 -->
<g id="edge17" class="edge">
<title>Node14&#45;&gt;Node10</title>
<path fill="none" stroke="midnightblue" d="M192.17,-29.52C174.8,-31.74 156.35,-34.1 139.21,-36.29"/>
<polygon fill="midnightblue" stroke="midnightblue" points="192.78,-32.97 202.26,-28.23 191.89,-26.03 192.78,-32.97"/>
</g>
</g>
</svg>
