<?xml version="1.0" encoding="UTF-8" standalone="no"?>
<!DOCTYPE svg PUBLIC "-//W3C//DTD SVG 1.1//EN"
 "http://www.w3.org/Graphics/SVG/1.1/DTD/svg11.dtd">
<!-- Generated by graphviz version 2.43.0 (0)
 -->
<!-- Title: problem_setup.generate_rigid_rect_container_moving_wall_setup_gmsh_input Pages: 1 -->
<svg width="358pt" height="62pt"
 viewBox="0.00 0.00 358.00 61.50" xmlns="http://www.w3.org/2000/svg" xmlns:xlink="http://www.w3.org/1999/xlink">
<g id="graph0" class="graph" transform="scale(1 1) rotate(0) translate(4 57.5)">
<title>problem_setup.generate_rigid_rect_container_moving_wall_setup_gmsh_input</title>
<!-- Node1 -->
<g id="Node000001" class="node">
<title>Node1</title>
<g id="a_Node000001"><a xlink:title=" ">
<polygon fill="#999999" stroke="#666666" points="350,-41 189,-41 189,0 350,0 350,-41"/>
<text text-anchor="start" x="197" y="-29" font-family="Arial" font-size="10.00">problem_setup.generate</text>
<text text-anchor="start" x="197" y="-18" font-family="Arial" font-size="10.00">_rigid_rect_container</text>
<text text-anchor="middle" x="269.5" y="-7" font-family="Arial" font-size="10.00">_moving_wall_setup_gmsh_input</text>
</a>
</g>
</g>
<!-- Node2 -->
<g id="Node000002" class="node">
<title>Node2</title>
<g id="a_Node000002"><a xlink:href="namespaceproblem__setup.html#a16a9d169ecf04b1a867bec4dbf274c01" target="_top" xlink:title=" ">
<polygon fill="white" stroke="#666666" points="153,-35.5 0,-35.5 0,-5.5 153,-5.5 153,-35.5"/>
<text text-anchor="start" x="8" y="-23.5" font-family="Arial" font-size="10.00">problem_setup.generate</text>
<text text-anchor="middle" x="76.5" y="-12.5" font-family="Arial" font-size="10.00">_moving_rect_wall_gmsh_input</text>
</a>
</g>
</g>
<!-- Node1&#45;&gt;Node2 -->
<g id="edge1_Node000001_Node000002" class="edge">
<title>Node1&#45;&gt;Node2</title>
<g id="a_edge1_Node000001_Node000002"><a xlink:title=" ">
<path fill="none" stroke="#63b8ff" d="M178.8,-20.5C170.17,-20.5 161.48,-20.5 153.01,-20.5"/>
<polygon fill="#63b8ff" stroke="#63b8ff" points="178.88,-24 188.88,-20.5 178.88,-17 178.88,-24"/>
</a>
</g>
</g>
<!-- Node2&#45;&gt;Node2 -->
<g id="edge2_Node000002_Node000002" class="edge">
<title>Node2&#45;&gt;Node2</title>
<g id="a_edge2_Node000002_Node000002"><a xlink:title=" ">
<path fill="none" stroke="#63b8ff" d="M110.11,-46.1C105.51,-50.47 94.31,-53.5 76.5,-53.5 46.5,-53.5 35.25,-44.91 42.75,-35.78"/>
<polygon fill="#63b8ff" stroke="#63b8ff" points="113.61,-45.82 110.25,-35.78 106.61,-45.73 113.61,-45.82"/>
</a>
</g>
</g>
</g>
</svg>
