<?xml version="1.0" encoding="UTF-8" standalone="no"?>
<!DOCTYPE svg PUBLIC "-//W3C//DTD SVG 1.1//EN"
 "http://www.w3.org/Graphics/SVG/1.1/DTD/svg11.dtd">
<!-- Generated by graphviz version 2.43.0 (0)
 -->
<!-- Title: problem_setup.rotate Pages: 1 -->
<svg width="1009pt" height="1283pt"
 viewBox="0.00 0.00 1009.00 1282.70" xmlns="http://www.w3.org/2000/svg" xmlns:xlink="http://www.w3.org/1999/xlink">
<g id="graph0" class="graph" transform="scale(1 1) rotate(0) translate(4 1278.7)">
<title>problem_setup.rotate</title>
<!-- Node1 -->
<g id="node1" class="node">
<title>Node1</title>
<g id="a_node1"><a xlink:title=" ">
<polygon fill="#bfbfbf" stroke="black" points="893,-847.45 893,-866.45 1001,-866.45 1001,-847.45 893,-847.45"/>
<text text-anchor="middle" x="947" y="-854.45" font-family="Arial" font-size="10.00">problem_setup.rotate</text>
</a>
</g>
</g>
<!-- Node2 -->
<g id="node2" class="node">
<title>Node2</title>
<g id="a_node2"><a xlink:href="namespaceproblem__setup.html#ada05bf105b9c97f6a6569fdfad318130" target="_top" xlink:title=" ">
<polygon fill="none" stroke="black" points="583,-1168.95 583,-1198.95 687,-1198.95 687,-1168.95 583,-1168.95"/>
<text text-anchor="start" x="591" y="-1186.95" font-family="Arial" font-size="10.00">problem_setup.copy</text>
<text text-anchor="middle" x="635" y="-1175.95" font-family="Arial" font-size="10.00">_contact_zone</text>
</a>
</g>
</g>
<!-- Node1&#45;&gt;Node2 -->
<g id="edge1" class="edge">
<title>Node1&#45;&gt;Node2</title>
<path fill="none" stroke="midnightblue" d="M946.77,-876.88C947.66,-930.95 942.01,-1081.28 857,-1153.95 810.35,-1193.83 736.75,-1195.82 687.45,-1191.56"/>
<polygon fill="midnightblue" stroke="midnightblue" points="950.26,-876.5 946.49,-866.59 943.26,-876.68 950.26,-876.5"/>
</g>
<!-- Node8 -->
<g id="node8" class="node">
<title>Node8</title>
<g id="a_node8"><a xlink:href="namespaceproblem__setup.html#a537cfa64f80968083b662a6a6a6174e6" target="_top" xlink:title=" ">
<polygon fill="none" stroke="black" points="408.5,-1209.95 408.5,-1239.95 512.5,-1239.95 512.5,-1209.95 408.5,-1209.95"/>
<text text-anchor="start" x="416.5" y="-1227.95" font-family="Arial" font-size="10.00">problem_setup.write</text>
<text text-anchor="middle" x="460.5" y="-1216.95" font-family="Arial" font-size="10.00">_cir_line_geo</text>
</a>
</g>
</g>
<!-- Node1&#45;&gt;Node8 -->
<g id="edge69" class="edge">
<title>Node1&#45;&gt;Node8</title>
<path fill="none" stroke="midnightblue" d="M943.5,-876.72C934.93,-941.34 904.58,-1144.63 857,-1186.95 761.13,-1272.22 595.79,-1253.64 512.54,-1237.11"/>
<polygon fill="midnightblue" stroke="midnightblue" points="947,-877.01 944.81,-866.64 940.05,-876.11 947,-877.01"/>
</g>
<!-- Node10 -->
<g id="node10" class="node">
<title>Node10</title>
<g id="a_node10"><a xlink:href="namespaceproblem__setup.html#a2a1eff7bae1c660880f6181ab7473cb5" target="_top" xlink:title=" ">
<polygon fill="none" stroke="black" points="583,-756.95 583,-786.95 687,-786.95 687,-756.95 583,-756.95"/>
<text text-anchor="start" x="591" y="-774.95" font-family="Arial" font-size="10.00">problem_setup.does</text>
<text text-anchor="middle" x="635" y="-763.95" font-family="Arial" font-size="10.00">_intersect</text>
</a>
</g>
</g>
<!-- Node1&#45;&gt;Node10 -->
<g id="edge15" class="edge">
<title>Node1&#45;&gt;Node10</title>
<path fill="none" stroke="midnightblue" d="M929.33,-840.39C912.6,-824.91 885.31,-802.62 857,-791.95 801.67,-771.09 733.23,-768.05 687.3,-768.97"/>
<polygon fill="midnightblue" stroke="midnightblue" points="927,-843 936.66,-847.36 931.83,-837.93 927,-843"/>
</g>
<!-- Node11 -->
<g id="node11" class="node">
<title>Node11</title>
<g id="a_node11"><a xlink:href="namespaceproblem__setup.html#a91bf08b893f31c7d232346b6178f0a98" target="_top" xlink:title=" ">
<polygon fill="none" stroke="black" points="202.5,-787.45 202.5,-806.45 331.5,-806.45 331.5,-787.45 202.5,-787.45"/>
<text text-anchor="middle" x="267" y="-794.45" font-family="Arial" font-size="10.00">problem_setup.get_center</text>
</a>
</g>
</g>
<!-- Node1&#45;&gt;Node11 -->
<g id="edge16" class="edge">
<title>Node1&#45;&gt;Node11</title>
<path fill="none" stroke="midnightblue" d="M925.76,-873.02C850.76,-930.51 583.3,-1116.91 395,-1009.95 394.35,-1009.58 298.46,-848.23 273.75,-806.64"/>
<polygon fill="midnightblue" stroke="midnightblue" points="928.18,-875.57 933.93,-866.68 923.89,-870.04 928.18,-875.57"/>
</g>
<!-- Node12 -->
<g id="node12" class="node">
<title>Node12</title>
<g id="a_node12"><a xlink:href="namespaceproblem__setup.html#a700be09e5b12da02f5d11c0d21cf5d5b" target="_top" xlink:title=" ">
<polygon fill="none" stroke="black" points="744,-424.95 744,-454.95 857,-454.95 857,-424.95 744,-424.95"/>
<text text-anchor="start" x="752" y="-442.95" font-family="Arial" font-size="10.00">problem_setup.get_ref</text>
<text text-anchor="middle" x="800.5" y="-431.95" font-family="Arial" font-size="10.00">_drum_points</text>
</a>
</g>
</g>
<!-- Node1&#45;&gt;Node12 -->
<g id="edge18" class="edge">
<title>Node1&#45;&gt;Node12</title>
<path fill="none" stroke="midnightblue" d="M939.26,-837.49C914.52,-766.12 829.05,-519.46 806.82,-455.3"/>
<polygon fill="midnightblue" stroke="midnightblue" points="935.99,-838.75 942.57,-847.05 942.6,-836.46 935.99,-838.75"/>
</g>
<!-- Node22 -->
<g id="node21" class="node">
<title>Node22</title>
<g id="a_node21"><a xlink:href="namespaceproblem__setup.html#a58a765e10407e76320682bfd9f6462ae" target="_top" xlink:title=" ">
<polygon fill="none" stroke="black" points="578.5,-882.95 578.5,-912.95 691.5,-912.95 691.5,-882.95 578.5,-882.95"/>
<text text-anchor="start" x="586.5" y="-900.95" font-family="Arial" font-size="10.00">problem_setup.get_ref</text>
<text text-anchor="middle" x="635" y="-889.95" font-family="Arial" font-size="10.00">_rect_points</text>
</a>
</g>
</g>
<!-- Node1&#45;&gt;Node22 -->
<g id="edge67" class="edge">
<title>Node1&#45;&gt;Node22</title>
<path fill="none" stroke="midnightblue" d="M882.53,-865.34C826.43,-872.76 745.38,-883.48 691.73,-890.58"/>
<polygon fill="midnightblue" stroke="midnightblue" points="883.25,-868.78 892.71,-864 882.34,-861.84 883.25,-868.78"/>
</g>
<!-- Node25 -->
<g id="node24" class="node">
<title>Node25</title>
<g id="a_node24"><a xlink:href="namespaceproblem__setup.html#a2b643803a88f4dba1de3a039bcf58fe2" target="_top" xlink:title=" ">
<polygon fill="none" stroke="black" points="403,-64.95 403,-94.95 518,-94.95 518,-64.95 403,-64.95"/>
<text text-anchor="start" x="411" y="-82.95" font-family="Arial" font-size="10.00">problem_setup.particle</text>
<text text-anchor="middle" x="460.5" y="-71.95" font-family="Arial" font-size="10.00">_locations_orient</text>
</a>
</g>
</g>
<!-- Node1&#45;&gt;Node25 -->
<g id="edge68" class="edge">
<title>Node1&#45;&gt;Node25</title>
<path fill="none" stroke="midnightblue" d="M943.18,-837.01C926.94,-725.2 841.23,-178.02 708,-88.95 652.02,-51.52 571.8,-56.68 518.25,-66.23"/>
<polygon fill="midnightblue" stroke="midnightblue" points="939.76,-837.8 944.65,-847.2 946.69,-836.81 939.76,-837.8"/>
</g>
<!-- Node26 -->
<g id="node25" class="node">
<title>Node26</title>
<g id="a_node25"><a xlink:href="namespaceproblem__setup.html#a8e552b0e3bb3bde7c390d6906dbe88cd" target="_top" xlink:title=" ">
<polygon fill="none" stroke="black" points="744,-800.95 744,-830.95 857,-830.95 857,-800.95 744,-800.95"/>
<text text-anchor="start" x="752" y="-818.95" font-family="Arial" font-size="10.00">problem_setup.get_ref</text>
<text text-anchor="middle" x="800.5" y="-807.95" font-family="Arial" font-size="10.00">_hex_points</text>
</a>
</g>
</g>
<!-- Node1&#45;&gt;Node26 -->
<g id="edge52" class="edge">
<title>Node1&#45;&gt;Node26</title>
<path fill="none" stroke="midnightblue" d="M902.86,-844.71C887.71,-840.41 870.51,-835.53 854.64,-831.03"/>
<polygon fill="midnightblue" stroke="midnightblue" points="901.91,-848.08 912.49,-847.44 903.82,-841.34 901.91,-848.08"/>
</g>
<!-- Node3 -->
<g id="node3" class="node">
<title>Node3</title>
<g id="a_node3"><a xlink:href="namespaceproblem__setup.html#a87c8571f538ea8ab692816e1388af758" target="_top" xlink:title=" ">
<polygon fill="none" stroke="black" points="195.5,-462.95 195.5,-492.95 338.5,-492.95 338.5,-462.95 195.5,-462.95"/>
<text text-anchor="start" x="203.5" y="-480.95" font-family="Arial" font-size="10.00">problem_setup.generate</text>
<text text-anchor="middle" x="267" y="-469.95" font-family="Arial" font-size="10.00">_cylindrical_wall_gmsh_input</text>
</a>
</g>
</g>
<!-- Node2&#45;&gt;Node3 -->
<g id="edge2" class="edge">
<title>Node2&#45;&gt;Node3</title>
<path fill="none" stroke="midnightblue" d="M574.05,-1165.72C510.85,-1145.24 417.38,-1110.94 395,-1080.95 354.45,-1026.6 372.9,-844.32 359,-777.95 335.63,-666.34 289.57,-536.49 273.6,-493"/>
<polygon fill="midnightblue" stroke="midnightblue" points="573.33,-1169.16 583.92,-1168.88 575.47,-1162.5 573.33,-1169.16"/>
</g>
<!-- Node4 -->
<g id="node4" class="node">
<title>Node4</title>
<g id="a_node4"><a xlink:href="namespaceproblem__setup.html#aa86d439a2a3be267e8af3fe687016583" target="_top" xlink:title=" ">
<polygon fill="none" stroke="black" points="0,-988.95 0,-1018.95 139,-1018.95 139,-988.95 0,-988.95"/>
<text text-anchor="start" x="8" y="-1006.95" font-family="Arial" font-size="10.00">problem_setup.generate</text>
<text text-anchor="middle" x="69.5" y="-995.95" font-family="Arial" font-size="10.00">_rect_container_gmsh_input</text>
</a>
</g>
</g>
<!-- Node2&#45;&gt;Node4 -->
<g id="edge3" class="edge">
<title>Node2&#45;&gt;Node4</title>
<path fill="none" stroke="midnightblue" d="M613.84,-1206.51C593.88,-1227.01 561.26,-1255.85 526,-1267.95 466.43,-1288.39 182.88,-1255.64 175,-1249.95 95.81,-1192.77 76.2,-1063.3 71.73,-1019.08"/>
<polygon fill="midnightblue" stroke="midnightblue" points="616.52,-1208.78 620.85,-1199.11 611.44,-1203.96 616.52,-1208.78"/>
</g>
<!-- Node5 -->
<g id="node5" class="node">
<title>Node5</title>
<g id="a_node5"><a xlink:href="namespaceproblem__setup.html#ab2d86f4fe187ef9b78d1ad4ea438b98b" target="_top" xlink:title=" ">
<polygon fill="none" stroke="black" points="175,-959.45 175,-1000.45 359,-1000.45 359,-959.45 175,-959.45"/>
<text text-anchor="start" x="183" y="-988.45" font-family="Arial" font-size="10.00">problem_setup.generate</text>
<text text-anchor="start" x="183" y="-977.45" font-family="Arial" font-size="10.00">_rectangle_with_protrusion</text>
<text text-anchor="middle" x="267" y="-966.45" font-family="Arial" font-size="10.00">_and_opening_wall_gmsh_input_type3</text>
</a>
</g>
</g>
<!-- Node2&#45;&gt;Node5 -->
<g id="edge4" class="edge">
<title>Node2&#45;&gt;Node5</title>
<path fill="none" stroke="midnightblue" d="M572.4,-1193.49C519.86,-1198.1 445.08,-1195.86 395,-1156.95 359.34,-1129.25 384.49,-1099.22 359,-1061.95 342.43,-1037.72 317.28,-1015.79 297.62,-1000.71"/>
<polygon fill="midnightblue" stroke="midnightblue" points="572.99,-1196.95 582.6,-1192.49 572.31,-1189.99 572.99,-1196.95"/>
</g>
<!-- Node6 -->
<g id="node6" class="node">
<title>Node6</title>
<g id="a_node6"><a xlink:href="namespaceproblem__setup.html#ad0951de1e260620b256ecd25ed5d8e5a" target="_top" xlink:title=" ">
<polygon fill="none" stroke="black" points="209.5,-384.95 209.5,-414.95 324.5,-414.95 324.5,-384.95 209.5,-384.95"/>
<text text-anchor="start" x="217.5" y="-402.95" font-family="Arial" font-size="10.00">problem_setup.particle</text>
<text text-anchor="middle" x="267" y="-391.95" font-family="Arial" font-size="10.00">_locations</text>
</a>
</g>
</g>
<!-- Node2&#45;&gt;Node6 -->
<g id="edge6" class="edge">
<title>Node2&#45;&gt;Node6</title>
<path fill="none" stroke="midnightblue" d="M613.4,-1161.04C592.7,-1138.85 559.21,-1105.12 526,-1080.95 472.46,-1041.98 430.7,-1065.73 395,-1009.95 328.14,-905.48 424.25,-558.43 359,-452.95 348.32,-435.69 329.8,-423.43 312.24,-415.09"/>
<polygon fill="midnightblue" stroke="midnightblue" points="611.06,-1163.67 620.42,-1168.65 616.21,-1158.92 611.06,-1163.67"/>
</g>
<!-- Node7 -->
<g id="node7" class="node">
<title>Node7</title>
<g id="a_node7"><a xlink:href="namespaceproblem__setup.html#aecb6453b01b712d9b03efbcdf8f317e5" target="_top" xlink:title=" ">
<polygon fill="none" stroke="black" points="207.5,-1209.95 207.5,-1239.95 326.5,-1239.95 326.5,-1209.95 207.5,-1209.95"/>
<text text-anchor="start" x="215.5" y="-1227.95" font-family="Arial" font-size="10.00">problem_setup.serialize</text>
<text text-anchor="middle" x="267" y="-1216.95" font-family="Arial" font-size="10.00">_matrix_list</text>
</a>
</g>
</g>
<!-- Node2&#45;&gt;Node7 -->
<g id="edge7" class="edge">
<title>Node2&#45;&gt;Node7</title>
<path fill="none" stroke="midnightblue" d="M608.38,-1205.25C587.62,-1221.04 556.86,-1241.27 526,-1249.95 454.96,-1269.94 369.05,-1254.06 316.49,-1240.06"/>
<polygon fill="midnightblue" stroke="midnightblue" points="610.63,-1207.93 616.36,-1199.02 606.32,-1202.42 610.63,-1207.93"/>
</g>
<!-- Node2&#45;&gt;Node8 -->
<g id="edge9" class="edge">
<title>Node2&#45;&gt;Node8</title>
<path fill="none" stroke="midnightblue" d="M572.9,-1198.47C553.17,-1203.16 531.52,-1208.31 512.59,-1212.81"/>
<polygon fill="midnightblue" stroke="midnightblue" points="573.79,-1201.86 582.71,-1196.14 572.17,-1195.05 573.79,-1201.86"/>
</g>
<!-- Node5&#45;&gt;Node4 -->
<g id="edge5" class="edge">
<title>Node5&#45;&gt;Node4</title>
<path fill="none" stroke="midnightblue" d="M164.65,-992.39C155.98,-993.45 147.35,-994.51 139.03,-995.54"/>
<polygon fill="midnightblue" stroke="midnightblue" points="165.33,-995.83 174.83,-991.14 164.48,-988.89 165.33,-995.83"/>
</g>
<!-- Node7&#45;&gt;Node4 -->
<g id="edge8" class="edge">
<title>Node7&#45;&gt;Node4</title>
<path fill="none" stroke="midnightblue" d="M211.34,-1205.59C198.48,-1199.36 185.48,-1191.53 175,-1181.95 122.24,-1133.71 88.25,-1052.56 75.81,-1019.08"/>
<polygon fill="midnightblue" stroke="midnightblue" points="210.09,-1208.87 220.64,-1209.84 213,-1202.5 210.09,-1208.87"/>
</g>
<!-- Node8&#45;&gt;Node4 -->
<g id="edge10" class="edge">
<title>Node8&#45;&gt;Node4</title>
<path fill="none" stroke="midnightblue" d="M398.77,-1206.85C326.88,-1184.75 212.2,-1147.21 175,-1121.95 132.9,-1093.35 96.81,-1044.02 80.22,-1019.18"/>
<polygon fill="midnightblue" stroke="midnightblue" points="398.03,-1210.28 408.62,-1209.86 400.08,-1203.59 398.03,-1210.28"/>
</g>
<!-- Node8&#45;&gt;Node5 -->
<g id="edge13" class="edge">
<title>Node8&#45;&gt;Node5</title>
<path fill="none" stroke="midnightblue" d="M405.11,-1204.32C401.38,-1201.56 397.94,-1198.44 395,-1194.95 355.55,-1148.11 391.05,-1114.13 359,-1061.95 343.75,-1037.12 318.76,-1015.38 298.82,-1000.54"/>
<polygon fill="midnightblue" stroke="midnightblue" points="403.37,-1207.36 413.67,-1209.84 407.16,-1201.48 403.37,-1207.36"/>
</g>
<!-- Node8&#45;&gt;Node7 -->
<g id="edge14" class="edge">
<title>Node8&#45;&gt;Node7</title>
<path fill="none" stroke="midnightblue" d="M398.15,-1224.95C375.27,-1224.95 349.36,-1224.95 326.72,-1224.95"/>
<polygon fill="midnightblue" stroke="midnightblue" points="398.43,-1228.45 408.43,-1224.95 398.43,-1221.45 398.43,-1228.45"/>
</g>
<!-- Node9 -->
<g id="node9" class="node">
<title>Node9</title>
<g id="a_node9"><a xlink:href="namespaceproblem__setup.html#af2a3517f0f6e0d54303c7b67043b3ef6" target="_top" xlink:title=" ">
<polygon fill="none" stroke="black" points="175,-1071.45 175,-1112.45 359,-1112.45 359,-1071.45 175,-1071.45"/>
<text text-anchor="start" x="183" y="-1100.45" font-family="Arial" font-size="10.00">problem_setup.generate</text>
<text text-anchor="start" x="183" y="-1089.45" font-family="Arial" font-size="10.00">_rectangle_with_protrusion</text>
<text text-anchor="middle" x="267" y="-1078.45" font-family="Arial" font-size="10.00">_and_opening_wall_gmsh_input_type2</text>
</a>
</g>
</g>
<!-- Node8&#45;&gt;Node9 -->
<g id="edge11" class="edge">
<title>Node8&#45;&gt;Node9</title>
<path fill="none" stroke="midnightblue" d="M411.2,-1205.22C405.53,-1202.12 400,-1198.69 395,-1194.95 375.59,-1180.41 377.16,-1170.01 359,-1153.95 341.67,-1138.62 320.4,-1123.94 302.77,-1112.7"/>
<polygon fill="midnightblue" stroke="midnightblue" points="409.66,-1208.37 420.16,-1209.82 412.86,-1202.14 409.66,-1208.37"/>
</g>
<!-- Node9&#45;&gt;Node4 -->
<g id="edge12" class="edge">
<title>Node9&#45;&gt;Node4</title>
<path fill="none" stroke="midnightblue" d="M210.7,-1067.06C176.26,-1051.55 133.1,-1032.13 103.83,-1018.95"/>
<polygon fill="midnightblue" stroke="midnightblue" points="209.61,-1070.4 220.16,-1071.32 212.48,-1064.02 209.61,-1070.4"/>
</g>
<!-- Node11&#45;&gt;Node4 -->
<g id="edge17" class="edge">
<title>Node11&#45;&gt;Node4</title>
<path fill="none" stroke="midnightblue" d="M249.94,-813.96C212.63,-853.46 120.58,-950.92 84.93,-988.67"/>
<polygon fill="midnightblue" stroke="midnightblue" points="252.51,-816.33 256.83,-806.66 247.42,-811.52 252.51,-816.33"/>
</g>
<!-- Node12&#45;&gt;Node6 -->
<g id="edge48" class="edge">
<title>Node12&#45;&gt;Node6</title>
<path fill="none" stroke="midnightblue" d="M790.22,-415.34C777.16,-384.66 750.12,-333.61 708,-311.95 646.15,-280.13 455.65,-277.9 395,-311.95 368.21,-326.98 383.16,-351.98 359,-370.95 348.96,-378.83 336.72,-384.6 324.53,-388.81"/>
<polygon fill="midnightblue" stroke="midnightblue" points="787.1,-416.95 794.12,-424.89 793.58,-414.31 787.1,-416.95"/>
</g>
<!-- Node12&#45;&gt;Node11 -->
<g id="edge41" class="edge">
<title>Node12&#45;&gt;Node11</title>
<path fill="none" stroke="midnightblue" d="M793.31,-464.73C782.29,-504.38 755.79,-582.56 708,-630.95 603.87,-736.38 426.23,-775.76 331.65,-789.74"/>
<polygon fill="midnightblue" stroke="midnightblue" points="796.69,-465.63 795.9,-455.07 789.93,-463.82 796.69,-465.63"/>
</g>
<!-- Node13 -->
<g id="node13" class="node">
<title>Node13</title>
<g id="a_node13"><a xlink:href="namespaceproblem__setup.html#a66cf6b889081b2c318eb0110057d83c9" target="_top" xlink:title=" ">
<polygon fill="none" stroke="black" points="395,-658.95 395,-710.95 526,-710.95 526,-658.95 395,-658.95"/>
<text text-anchor="start" x="403" y="-698.95" font-family="Arial" font-size="10.00">problem_setup.does</text>
<text text-anchor="start" x="403" y="-687.95" font-family="Arial" font-size="10.00">_intersect_with_rectangle</text>
<text text-anchor="start" x="403" y="-676.95" font-family="Arial" font-size="10.00">_wall_with_protrusion_and</text>
<text text-anchor="middle" x="460.5" y="-665.95" font-family="Arial" font-size="10.00">_opening</text>
</a>
</g>
</g>
<!-- Node12&#45;&gt;Node13 -->
<g id="edge19" class="edge">
<title>Node12&#45;&gt;Node13</title>
<path fill="none" stroke="midnightblue" d="M788.84,-464.45C774.47,-494.96 746.2,-546.94 708,-578.95 654.53,-623.75 579.27,-652.41 526,-668.48"/>
<polygon fill="midnightblue" stroke="midnightblue" points="792.19,-465.54 793.18,-454.99 785.83,-462.62 792.19,-465.54"/>
</g>
<!-- Node14 -->
<g id="node14" class="node">
<title>Node14</title>
<g id="a_node14"><a xlink:href="namespaceproblem__setup.html#ae83c0d80c0947e65b98e4a2da0c07601" target="_top" xlink:title=" ">
<polygon fill="none" stroke="black" points="562,-424.95 562,-454.95 708,-454.95 708,-424.95 562,-424.95"/>
<text text-anchor="start" x="570" y="-442.95" font-family="Arial" font-size="10.00">problem_setup.generate</text>
<text text-anchor="middle" x="635" y="-431.95" font-family="Arial" font-size="10.00">_drum2d_particle_gmsh_input</text>
</a>
</g>
</g>
<!-- Node12&#45;&gt;Node14 -->
<g id="edge21" class="edge">
<title>Node12&#45;&gt;Node14</title>
<path fill="none" stroke="midnightblue" d="M733.58,-439.95C725.17,-439.95 716.53,-439.95 708.04,-439.95"/>
<polygon fill="midnightblue" stroke="midnightblue" points="733.69,-443.45 743.69,-439.95 733.69,-436.45 733.69,-443.45"/>
</g>
<!-- Node16 -->
<g id="node16" class="node">
<title>Node16</title>
<g id="a_node16"><a xlink:href="namespaceproblem__setup.html#aff5393227de056de45cfc082e05af1ca" target="_top" xlink:title=" ">
<polygon fill="none" stroke="black" points="199,-108.95 199,-138.95 335,-138.95 335,-108.95 199,-108.95"/>
<text text-anchor="start" x="207" y="-126.95" font-family="Arial" font-size="10.00">problem_setup.generate</text>
<text text-anchor="middle" x="267" y="-115.95" font-family="Arial" font-size="10.00">_drum_particle_gmsh_input</text>
</a>
</g>
</g>
<!-- Node12&#45;&gt;Node16 -->
<g id="edge39" class="edge">
<title>Node12&#45;&gt;Node16</title>
<path fill="none" stroke="midnightblue" d="M788.58,-415.41C773.46,-383.1 743.9,-325.5 708,-283.95 640.2,-205.48 622.86,-174.98 526,-137.95 464.51,-114.44 388.74,-113.29 335.26,-116.58"/>
<polygon fill="midnightblue" stroke="midnightblue" points="785.44,-416.97 792.8,-424.59 791.8,-414.04 785.44,-416.97"/>
</g>
<!-- Node20 -->
<g id="node19" class="node">
<title>Node20</title>
<g id="a_node19"><a xlink:href="namespaceproblem__setup.html#a94bf8e7f89d392c05bd34dfd6a513675" target="_top" xlink:title=" ">
<polygon fill="none" stroke="black" points="9,-64.95 9,-94.95 130,-94.95 130,-64.95 9,-64.95"/>
<text text-anchor="start" x="17" y="-82.95" font-family="Arial" font-size="10.00">problem_setup.generate</text>
<text text-anchor="middle" x="69.5" y="-71.95" font-family="Arial" font-size="10.00">_particle_gmsh_input</text>
</a>
</g>
</g>
<!-- Node12&#45;&gt;Node20 -->
<g id="edge40" class="edge">
<title>Node12&#45;&gt;Node20</title>
<path fill="none" stroke="midnightblue" d="M796.41,-414.61C787.02,-341.76 756.42,-134.08 708,-88.95 538.57,68.97 220.19,-25.26 109.56,-64.94"/>
<polygon fill="midnightblue" stroke="midnightblue" points="792.96,-415.24 797.69,-424.72 799.91,-414.36 792.96,-415.24"/>
</g>
<!-- Node12&#45;&gt;Node22 -->
<g id="edge42" class="edge">
<title>Node12&#45;&gt;Node22</title>
<path fill="none" stroke="midnightblue" d="M796.27,-465.32C787.94,-525.33 762.46,-679.79 708,-796.95 692.57,-830.15 665.88,-863.79 649.69,-882.65"/>
<polygon fill="midnightblue" stroke="midnightblue" points="799.76,-465.62 797.63,-455.24 792.82,-464.68 799.76,-465.62"/>
</g>
<!-- Node12&#45;&gt;Node25 -->
<g id="edge49" class="edge">
<title>Node12&#45;&gt;Node25</title>
<path fill="none" stroke="midnightblue" d="M799.86,-414.8C799.26,-356.57 789.2,-211.73 708,-135.95 680.89,-110.65 582.15,-94.35 518.16,-86.19"/>
<polygon fill="midnightblue" stroke="midnightblue" points="796.36,-414.94 799.88,-424.93 803.36,-414.93 796.36,-414.94"/>
</g>
<!-- Node13&#45;&gt;Node11 -->
<g id="edge20" class="edge">
<title>Node13&#45;&gt;Node11</title>
<path fill="none" stroke="midnightblue" d="M405.79,-716.36C364.76,-740.36 310.87,-771.88 284.28,-787.43"/>
<polygon fill="midnightblue" stroke="midnightblue" points="407.74,-719.28 414.6,-711.21 404.2,-713.24 407.74,-719.28"/>
</g>
<!-- Node14&#45;&gt;Node3 -->
<g id="edge34" class="edge">
<title>Node14&#45;&gt;Node3</title>
<path fill="none" stroke="midnightblue" d="M551.61,-448.5C487.51,-455.16 399.51,-464.3 338.6,-470.62"/>
<polygon fill="midnightblue" stroke="midnightblue" points="552.11,-451.97 561.69,-447.46 551.38,-445.01 552.11,-451.97"/>
</g>
<!-- Node14&#45;&gt;Node4 -->
<g id="edge35" class="edge">
<title>Node14&#45;&gt;Node4</title>
<path fill="none" stroke="midnightblue" d="M630.41,-414.94C622.02,-366.94 596.22,-262.79 526,-218.95 459.17,-177.22 228.37,-210.99 175,-268.95 73.72,-378.92 70.18,-893.22 70.41,-988.68"/>
<polygon fill="midnightblue" stroke="midnightblue" points="626.96,-415.51 632.03,-424.82 633.86,-414.38 626.96,-415.51"/>
</g>
<!-- Node14&#45;&gt;Node5 -->
<g id="edge36" class="edge">
<title>Node14&#45;&gt;Node5</title>
<path fill="none" stroke="midnightblue" d="M610.71,-462.47C594.52,-479.49 573.8,-504.25 562,-529.95 525.95,-608.45 576.91,-651.16 526,-720.95 486.97,-774.45 444.05,-747.46 395,-791.95 339.42,-842.36 296.23,-921.85 277.77,-959.23"/>
<polygon fill="midnightblue" stroke="midnightblue" points="613.31,-464.82 617.79,-455.22 608.3,-459.93 613.31,-464.82"/>
</g>
<!-- Node14&#45;&gt;Node6 -->
<g id="edge38" class="edge">
<title>Node14&#45;&gt;Node6</title>
<path fill="none" stroke="midnightblue" d="M551.69,-430.95C482.47,-423.39 385.34,-412.77 324.58,-406.13"/>
<polygon fill="midnightblue" stroke="midnightblue" points="551.37,-434.44 561.69,-432.05 552.13,-427.48 551.37,-434.44"/>
</g>
<!-- Node14&#45;&gt;Node11 -->
<g id="edge37" class="edge">
<title>Node14&#45;&gt;Node11</title>
<path fill="none" stroke="midnightblue" d="M596.43,-460.05C546.42,-488.06 457.08,-542.6 395,-605.95 335.91,-666.25 287.59,-757.66 272.73,-787.31"/>
<polygon fill="midnightblue" stroke="midnightblue" points="598.25,-463.04 605.3,-455.13 594.86,-456.92 598.25,-463.04"/>
</g>
<!-- Node14&#45;&gt;Node13 -->
<g id="edge33" class="edge">
<title>Node14&#45;&gt;Node13</title>
<path fill="none" stroke="midnightblue" d="M613.05,-463.02C597.75,-480.57 577.13,-505.74 562,-529.95 542.19,-561.64 545.97,-574.35 526,-605.95 514.18,-624.66 498.52,-643.93 485.6,-658.76"/>
<polygon fill="midnightblue" stroke="midnightblue" points="616.09,-464.87 620.09,-455.05 610.84,-460.23 616.09,-464.87"/>
</g>
<!-- Node15 -->
<g id="node15" class="node">
<title>Node15</title>
<g id="a_node15"><a xlink:href="namespaceproblem__setup.html#a64e067098e447f766d042476ef5abe85" target="_top" xlink:title=" ">
<polygon fill="none" stroke="black" points="405.5,-228.95 405.5,-258.95 515.5,-258.95 515.5,-228.95 405.5,-228.95"/>
<text text-anchor="start" x="413.5" y="-246.95" font-family="Arial" font-size="10.00">problem_setup.create</text>
<text text-anchor="middle" x="460.5" y="-235.95" font-family="Arial" font-size="10.00">_input_file</text>
</a>
</g>
</g>
<!-- Node14&#45;&gt;Node15 -->
<g id="edge22" class="edge">
<title>Node14&#45;&gt;Node15</title>
<path fill="none" stroke="midnightblue" d="M613.95,-417.17C578.32,-376.68 504.88,-293.24 474.79,-259.05"/>
<polygon fill="midnightblue" stroke="midnightblue" points="611.52,-419.7 620.75,-424.89 616.77,-415.08 611.52,-419.7"/>
</g>
<!-- Node15&#45;&gt;Node3 -->
<g id="edge23" class="edge">
<title>Node15&#45;&gt;Node3</title>
<path fill="none" stroke="midnightblue" d="M450.53,-268.74C436.04,-306.07 404.42,-377.31 359,-423.95 342.98,-440.4 320.91,-453.66 302.51,-462.92"/>
<polygon fill="midnightblue" stroke="midnightblue" points="453.89,-269.75 454.16,-259.16 447.35,-267.27 453.89,-269.75"/>
</g>
<!-- Node15&#45;&gt;Node4 -->
<g id="edge29" class="edge">
<title>Node15&#45;&gt;Node4</title>
<path fill="none" stroke="midnightblue" d="M395.42,-260.6C312.68,-282.22 178.76,-317.73 175,-321.95 82.98,-425.26 71.94,-897.43 70.66,-988.66"/>
<polygon fill="midnightblue" stroke="midnightblue" points="396.45,-263.94 405.24,-258.03 394.68,-257.17 396.45,-263.94"/>
</g>
<!-- Node15&#45;&gt;Node5 -->
<g id="edge30" class="edge">
<title>Node15&#45;&gt;Node5</title>
<path fill="none" stroke="midnightblue" d="M455.57,-269.2C439.36,-372.94 377.65,-763.28 359,-815.95 339.55,-870.89 302.81,-929.18 282.47,-959.28"/>
<polygon fill="midnightblue" stroke="midnightblue" points="459.07,-269.46 457.16,-259.04 452.16,-268.38 459.07,-269.46"/>
</g>
<!-- Node15&#45;&gt;Node6 -->
<g id="edge32" class="edge">
<title>Node15&#45;&gt;Node6</title>
<path fill="none" stroke="midnightblue" d="M406.14,-264.4C402.07,-267.22 398.28,-270.39 395,-273.95 363.81,-307.74 392.27,-339.2 359,-370.95 349.52,-379.99 337.23,-386.22 324.76,-390.5"/>
<polygon fill="midnightblue" stroke="midnightblue" points="408.09,-267.31 414.79,-259.1 404.43,-261.34 408.09,-267.31"/>
</g>
<!-- Node15&#45;&gt;Node16 -->
<g id="edge24" class="edge">
<title>Node15&#45;&gt;Node16</title>
<path fill="none" stroke="midnightblue" d="M438.55,-221.48C414.69,-196.35 376.75,-157.88 359,-147.95 351.59,-143.8 343.43,-140.35 335.14,-137.48"/>
<polygon fill="midnightblue" stroke="midnightblue" points="436.05,-223.93 445.46,-228.8 441.14,-219.12 436.05,-223.93"/>
</g>
<!-- Node17 -->
<g id="node17" class="node">
<title>Node17</title>
<g id="a_node17"><a xlink:href="namespaceproblem__setup.html#a8c789550cc1b70abe559c976bcf664e4" target="_top" xlink:title=" ">
<polygon fill="none" stroke="red" points="201.5,-331.95 201.5,-361.95 332.5,-361.95 332.5,-331.95 201.5,-331.95"/>
<text text-anchor="start" x="209.5" y="-349.95" font-family="Arial" font-size="10.00">problem_setup.generate</text>
<text text-anchor="middle" x="267" y="-338.95" font-family="Arial" font-size="10.00">_moving_wall_gmsh_input</text>
</a>
</g>
</g>
<!-- Node15&#45;&gt;Node17 -->
<g id="edge25" class="edge">
<title>Node15&#45;&gt;Node17</title>
<path fill="none" stroke="midnightblue" d="M412.15,-263.71C406.2,-266.84 400.34,-270.27 395,-273.95 376.62,-286.61 377.62,-296.66 359,-308.95 345.14,-318.1 328.72,-325.77 313.67,-331.77"/>
<polygon fill="midnightblue" stroke="midnightblue" points="414.11,-266.64 421.5,-259.04 410.99,-260.38 414.11,-266.64"/>
</g>
<!-- Node19 -->
<g id="node18" class="node">
<title>Node19</title>
<g id="a_node18"><a xlink:href="namespaceproblem__setup.html#a147f310ff74124342d15ab356739883f" target="_top" xlink:title=" ">
<polygon fill="none" stroke="red" points="206.5,-157.95 206.5,-187.95 327.5,-187.95 327.5,-157.95 206.5,-157.95"/>
<text text-anchor="start" x="214.5" y="-175.95" font-family="Arial" font-size="10.00">problem_setup.generate</text>
<text text-anchor="middle" x="267" y="-164.95" font-family="Arial" font-size="10.00">_particle_gmsh_input</text>
</a>
</g>
</g>
<!-- Node15&#45;&gt;Node19 -->
<g id="edge26" class="edge">
<title>Node15&#45;&gt;Node19</title>
<path fill="none" stroke="midnightblue" d="M415.04,-225.04C397.67,-217.86 377.5,-209.76 359,-202.95 345.11,-197.83 329.88,-192.65 315.92,-188.06"/>
<polygon fill="midnightblue" stroke="midnightblue" points="413.81,-228.32 424.38,-228.93 416.5,-221.86 413.81,-228.32"/>
</g>
<!-- Node21 -->
<g id="node20" class="node">
<title>Node21</title>
<g id="a_node20"><a xlink:href="namespaceproblem__setup.html#af51753c1e02e9634827a449ab8729d44" target="_top" xlink:title=" ">
<polygon fill="none" stroke="black" points="9,-157.95 9,-187.95 130,-187.95 130,-157.95 9,-157.95"/>
<text text-anchor="start" x="17" y="-175.95" font-family="Arial" font-size="10.00">problem_setup.generate</text>
<text text-anchor="middle" x="69.5" y="-164.95" font-family="Arial" font-size="10.00">_wall_gmsh_input</text>
</a>
</g>
</g>
<!-- Node15&#45;&gt;Node21 -->
<g id="edge31" class="edge">
<title>Node15&#45;&gt;Node21</title>
<path fill="none" stroke="midnightblue" d="M395.22,-234.5C337.43,-225.72 250.29,-211.8 175,-196.95 160.39,-194.07 144.71,-190.64 130.05,-187.3"/>
<polygon fill="midnightblue" stroke="midnightblue" points="394.9,-237.99 405.31,-236.02 395.94,-231.06 394.9,-237.99"/>
</g>
<!-- Node19&#45;&gt;Node20 -->
<g id="edge27" class="edge">
<title>Node19&#45;&gt;Node20</title>
<path fill="none" stroke="midnightblue" d="M196.33,-156.22C189.02,-153.75 181.78,-151 175,-147.95 143.22,-133.66 110.08,-110.45 89.86,-95.19"/>
<polygon fill="midnightblue" stroke="midnightblue" points="195.73,-159.7 206.32,-159.4 197.86,-153.03 195.73,-159.7"/>
</g>
<!-- Node19&#45;&gt;Node21 -->
<g id="edge28" class="edge">
<title>Node19&#45;&gt;Node21</title>
<path fill="none" stroke="midnightblue" d="M196.19,-172.95C174.6,-172.95 151.03,-172.95 130.19,-172.95"/>
<polygon fill="midnightblue" stroke="midnightblue" points="196.28,-176.45 206.28,-172.95 196.28,-169.45 196.28,-176.45"/>
</g>
<!-- Node22&#45;&gt;Node4 -->
<g id="edge43" class="edge">
<title>Node22&#45;&gt;Node4</title>
<path fill="none" stroke="midnightblue" d="M619.59,-921.82C601.59,-949.05 567.99,-992.11 526,-1009.95 392.98,-1066.47 217.75,-1039.24 128.36,-1019.02"/>
<polygon fill="midnightblue" stroke="midnightblue" points="622.63,-923.56 625.08,-913.25 616.74,-919.78 622.63,-923.56"/>
</g>
<!-- Node22&#45;&gt;Node11 -->
<g id="edge46" class="edge">
<title>Node22&#45;&gt;Node11</title>
<path fill="none" stroke="midnightblue" d="M567.98,-896.44C519.14,-893.72 451.57,-886.53 395,-867.95 350.36,-853.29 303.55,-822.45 281.28,-806.68"/>
<polygon fill="midnightblue" stroke="midnightblue" points="567.94,-899.95 578.1,-896.96 568.29,-892.96 567.94,-899.95"/>
</g>
<!-- Node23 -->
<g id="node22" class="node">
<title>Node23</title>
<g id="a_node22"><a xlink:href="namespaceproblem__setup.html#ac0369f72a95d7fda3b133b8bae4d91ac" target="_top" xlink:title=" ">
<polygon fill="none" stroke="black" points="400,-969.95 400,-999.95 521,-999.95 521,-969.95 400,-969.95"/>
<text text-anchor="start" x="408" y="-987.95" font-family="Arial" font-size="10.00">problem_setup.generate</text>
<text text-anchor="middle" x="460.5" y="-976.95" font-family="Arial" font-size="10.00">_rect_floor_gmsh_input</text>
</a>
</g>
</g>
<!-- Node22&#45;&gt;Node23 -->
<g id="edge44" class="edge">
<title>Node22&#45;&gt;Node23</title>
<path fill="none" stroke="midnightblue" d="M602.06,-918.54C580.97,-931.64 552.44,-948.43 526,-960.95 519.41,-964.07 512.3,-967.06 505.29,-969.82"/>
<polygon fill="midnightblue" stroke="midnightblue" points="604,-921.45 610.62,-913.17 600.28,-915.52 604,-921.45"/>
</g>
<!-- Node24 -->
<g id="node23" class="node">
<title>Node24</title>
<g id="a_node23"><a xlink:href="namespaceproblem__setup.html#aa1d03b322b00fa4d53e8f88bce3eaee8" target="_top" xlink:title=" ">
<polygon fill="none" stroke="black" points="404,-920.95 404,-950.95 517,-950.95 517,-920.95 404,-920.95"/>
<text text-anchor="start" x="412" y="-938.95" font-family="Arial" font-size="10.00">problem_setup.get_ref</text>
<text text-anchor="middle" x="460.5" y="-927.95" font-family="Arial" font-size="10.00">_rect_points</text>
</a>
</g>
</g>
<!-- Node22&#45;&gt;Node24 -->
<g id="edge47" class="edge">
<title>Node22&#45;&gt;Node24</title>
<path fill="none" stroke="midnightblue" d="M568.65,-912.35C551.71,-916.08 533.62,-920.06 517.22,-923.67"/>
<polygon fill="midnightblue" stroke="midnightblue" points="569.46,-915.75 578.47,-910.18 567.95,-908.91 569.46,-915.75"/>
</g>
<!-- Node23&#45;&gt;Node5 -->
<g id="edge45" class="edge">
<title>Node23&#45;&gt;Node5</title>
<path fill="none" stroke="midnightblue" d="M389.75,-983.13C379.8,-982.87 369.43,-982.6 359.14,-982.33"/>
<polygon fill="midnightblue" stroke="midnightblue" points="389.87,-986.63 399.96,-983.39 390.05,-979.63 389.87,-986.63"/>
</g>
<!-- Node25&#45;&gt;Node16 -->
<g id="edge50" class="edge">
<title>Node25&#45;&gt;Node16</title>
<path fill="none" stroke="midnightblue" d="M392.9,-95.25C373.58,-99.69 352.52,-104.53 333.29,-108.95"/>
<polygon fill="midnightblue" stroke="midnightblue" points="393.86,-98.62 402.82,-92.97 392.29,-91.8 393.86,-98.62"/>
</g>
<!-- Node25&#45;&gt;Node21 -->
<g id="edge51" class="edge">
<title>Node25&#45;&gt;Node21</title>
<path fill="none" stroke="midnightblue" d="M392.58,-74.36C333.58,-71.77 246.17,-73.66 175,-98.95 139.39,-111.6 104.99,-140.08 85.9,-157.79"/>
<polygon fill="midnightblue" stroke="midnightblue" points="392.73,-77.88 402.89,-74.88 393.07,-70.88 392.73,-77.88"/>
</g>
<!-- Node26&#45;&gt;Node6 -->
<g id="edge66" class="edge">
<title>Node26&#45;&gt;Node6</title>
<path fill="none" stroke="midnightblue" d="M797.63,-790.43C791.15,-709.88 766.77,-463.48 708,-414.95 594.7,-321.38 403.42,-359.89 315.19,-384.87"/>
<polygon fill="midnightblue" stroke="midnightblue" points="794.16,-790.96 798.43,-800.66 801.14,-790.42 794.16,-790.96"/>
</g>
<!-- Node26&#45;&gt;Node10 -->
<g id="edge53" class="edge">
<title>Node26&#45;&gt;Node10</title>
<path fill="none" stroke="midnightblue" d="M733.65,-798.23C718.17,-794.06 701.89,-789.68 687.16,-785.72"/>
<polygon fill="midnightblue" stroke="midnightblue" points="733.12,-801.71 743.69,-800.93 734.94,-794.95 733.12,-801.71"/>
</g>
<!-- Node26&#45;&gt;Node11 -->
<g id="edge64" class="edge">
<title>Node26&#45;&gt;Node11</title>
<path fill="none" stroke="midnightblue" d="M733.81,-822.39C725.13,-823.03 716.36,-823.58 708,-823.95 643.17,-826.78 626.82,-826.92 562,-823.95 482.38,-820.3 391.01,-811.12 331.54,-804.48"/>
<polygon fill="midnightblue" stroke="midnightblue" points="734.21,-825.87 743.91,-821.59 733.66,-818.89 734.21,-825.87"/>
</g>
<!-- Node26&#45;&gt;Node13 -->
<g id="edge54" class="edge">
<title>Node26&#45;&gt;Node13</title>
<path fill="none" stroke="midnightblue" d="M733.63,-823.39C683.93,-826.09 615.41,-823.39 562,-796.95 523.84,-778.06 493.53,-737.82 476.54,-711.07"/>
<polygon fill="midnightblue" stroke="midnightblue" points="733.86,-826.88 743.62,-822.76 733.42,-819.9 733.86,-826.88"/>
</g>
<!-- Node26&#45;&gt;Node22 -->
<g id="edge65" class="edge">
<title>Node26&#45;&gt;Node22</title>
<path fill="none" stroke="midnightblue" d="M765.69,-836.47C748.66,-846.48 727.52,-858.38 708,-867.95 697.3,-873.19 685.45,-878.38 674.5,-882.92"/>
<polygon fill="midnightblue" stroke="midnightblue" points="767.88,-839.24 774.7,-831.14 764.31,-833.22 767.88,-839.24"/>
</g>
<!-- Node27 -->
<g id="node26" class="node">
<title>Node27</title>
<g id="a_node26"><a xlink:href="namespaceproblem__setup.html#a876a947fad9cf3729999101abe3e823f" target="_top" xlink:title=" ">
<polygon fill="none" stroke="black" points="570,-538.95 570,-568.95 700,-568.95 700,-538.95 570,-538.95"/>
<text text-anchor="start" x="578" y="-556.95" font-family="Arial" font-size="10.00">problem_setup.generate</text>
<text text-anchor="middle" x="635" y="-545.95" font-family="Arial" font-size="10.00">_hex_particle_gmsh_input</text>
</a>
</g>
</g>
<!-- Node26&#45;&gt;Node27 -->
<g id="edge55" class="edge">
<title>Node26&#45;&gt;Node27</title>
<path fill="none" stroke="midnightblue" d="M784.56,-792C751.47,-738.99 672.82,-612.95 645.52,-569.21"/>
<polygon fill="midnightblue" stroke="midnightblue" points="781.74,-794.1 790,-800.73 787.68,-790.39 781.74,-794.1"/>
</g>
<!-- Node27&#45;&gt;Node3 -->
<g id="edge57" class="edge">
<title>Node27&#45;&gt;Node3</title>
<path fill="none" stroke="midnightblue" d="M559.71,-538.52C495.12,-525.11 402.17,-505.81 338.67,-492.62"/>
<polygon fill="midnightblue" stroke="midnightblue" points="559.33,-542.02 569.83,-540.62 560.75,-535.16 559.33,-542.02"/>
</g>
<!-- Node27&#45;&gt;Node4 -->
<g id="edge60" class="edge">
<title>Node27&#45;&gt;Node4</title>
<path fill="none" stroke="midnightblue" d="M559.65,-559.71C510.98,-565.66 447.01,-577.69 395,-601.95 281.52,-654.88 252.22,-679.38 175,-777.95 120.35,-847.71 86.21,-950.67 74.78,-988.92"/>
<polygon fill="midnightblue" stroke="midnightblue" points="560.26,-563.17 569.79,-558.54 559.45,-556.21 560.26,-563.17"/>
</g>
<!-- Node27&#45;&gt;Node5 -->
<g id="edge61" class="edge">
<title>Node27&#45;&gt;Node5</title>
<path fill="none" stroke="midnightblue" d="M627.35,-578.77C614.11,-624.74 580.9,-724.55 526,-791.95 463.87,-868.22 363.87,-929.11 308.38,-959.27"/>
<polygon fill="midnightblue" stroke="midnightblue" points="630.75,-579.63 630.09,-569.05 624.01,-577.73 630.75,-579.63"/>
</g>
<!-- Node27&#45;&gt;Node6 -->
<g id="edge63" class="edge">
<title>Node27&#45;&gt;Node6</title>
<path fill="none" stroke="midnightblue" d="M595.95,-534.31C575.42,-523.97 549.54,-511.31 526,-500.95 450.72,-467.81 360.89,-433.88 309.54,-415"/>
<polygon fill="midnightblue" stroke="midnightblue" points="594.47,-537.49 604.97,-538.89 597.64,-531.25 594.47,-537.49"/>
</g>
<!-- Node27&#45;&gt;Node11 -->
<g id="edge62" class="edge">
<title>Node27&#45;&gt;Node11</title>
<path fill="none" stroke="midnightblue" d="M596.11,-573.63C575.63,-583.89 549.74,-596.29 526,-605.95 469.11,-629.09 446,-615.72 395,-649.95 337.03,-688.86 289.77,-760.96 273.81,-787.13"/>
<polygon fill="midnightblue" stroke="midnightblue" points="597.76,-576.71 605.11,-569.08 594.6,-570.46 597.76,-576.71"/>
</g>
<!-- Node27&#45;&gt;Node13 -->
<g id="edge56" class="edge">
<title>Node27&#45;&gt;Node13</title>
<path fill="none" stroke="midnightblue" d="M609.69,-575.75C588.26,-594.59 555.89,-622.13 526,-643.95 519.14,-648.96 511.68,-654.02 504.35,-658.8"/>
<polygon fill="midnightblue" stroke="midnightblue" points="612.16,-578.23 617.34,-568.99 607.53,-572.99 612.16,-578.23"/>
</g>
<!-- Node27&#45;&gt;Node16 -->
<g id="edge58" class="edge">
<title>Node27&#45;&gt;Node16</title>
<path fill="none" stroke="midnightblue" d="M610.4,-531.57C594.06,-514.62 573.28,-489.89 562,-463.95 518.1,-363.03 593.25,-306.07 526,-218.95 480.65,-160.19 395.2,-137.76 335.1,-129.21"/>
<polygon fill="midnightblue" stroke="midnightblue" points="608.03,-534.15 617.55,-538.79 613,-529.22 608.03,-534.15"/>
</g>
<!-- Node27&#45;&gt;Node17 -->
<g id="edge59" class="edge">
<title>Node27&#45;&gt;Node17</title>
<path fill="none" stroke="midnightblue" d="M615.71,-531.03C595.73,-507.21 561.78,-470.1 526,-445.95 464.86,-404.68 384.1,-377.28 329.34,-361.96"/>
<polygon fill="midnightblue" stroke="midnightblue" points="613.11,-533.38 622.17,-538.86 618.5,-528.92 613.11,-533.38"/>
</g>
</g>
</svg>
