<?xml version="1.0" encoding="UTF-8" standalone="no"?>
<!DOCTYPE svg PUBLIC "-//W3C//DTD SVG 1.1//EN"
 "http://www.w3.org/Graphics/SVG/1.1/DTD/svg11.dtd">
<!-- Generated by graphviz version 2.43.0 (0)
 -->
<!-- Title: test::testTriElem Pages: 1 -->
<svg width="421pt" height="198pt"
 viewBox="0.00 0.00 421.00 197.50" xmlns="http://www.w3.org/2000/svg" xmlns:xlink="http://www.w3.org/1999/xlink">
<g id="graph0" class="graph" transform="scale(1 1) rotate(0) translate(4 193.5)">
<title>test::testTriElem</title>
<!-- Node1 -->
<g id="node1" class="node">
<title>Node1</title>
<g id="a_node1"><a xlink:title="Perform test on quadrature points on triangle elements.">
<polygon fill="#bfbfbf" stroke="black" points="0,-79 0,-98 89,-98 89,-79 0,-79"/>
<text text-anchor="middle" x="44.5" y="-86" font-family="Arial" font-size="10.00">test::testTriElem</text>
</a>
</g>
</g>
<!-- Node2 -->
<g id="node2" class="node">
<title>Node2</title>
<g id="a_node2"><a xlink:href="namespaceanonymous__namespace_02testFeLib_8cpp_03.html#aa92ae926fb55e90398f0e9c80eb9ef5a" target="_top" xlink:title=" ">
<polygon fill="none" stroke="black" points="134,-148 134,-189 267,-189 267,-148 134,-148"/>
<text text-anchor="start" x="142" y="-177" font-family="Arial" font-size="10.00">anonymous_namespace</text>
<text text-anchor="start" x="142" y="-166" font-family="Arial" font-size="10.00">{testFeLib::cpp}::checkRef</text>
<text text-anchor="middle" x="200.5" y="-155" font-family="Arial" font-size="10.00">Integration</text>
</a>
</g>
</g>
<!-- Node1&#45;&gt;Node2 -->
<g id="edge1" class="edge">
<title>Node1&#45;&gt;Node2</title>
<path fill="none" stroke="midnightblue" d="M59.13,-98.13C74.62,-108.82 100.89,-126.19 125,-138.5 128.53,-140.3 132.2,-142.08 135.92,-143.8"/>
<polygon fill="midnightblue" stroke="midnightblue" points="134.72,-147.1 145.27,-147.99 137.58,-140.71 134.72,-147.1"/>
</g>
<!-- Node3 -->
<g id="node3" class="node">
<title>Node3</title>
<g id="a_node3"><a xlink:href="namespacetest.html#a437c18b50b59ae2f9cd10e1cb51fba64" target="_top" xlink:title="Computes integration of polynomial exactly over reference triangle.">
<polygon fill="none" stroke="black" points="138.5,-98.5 138.5,-128.5 262.5,-128.5 262.5,-98.5 138.5,-98.5"/>
<text text-anchor="start" x="146.5" y="-116.5" font-family="Arial" font-size="10.00">test::getExactIntegration</text>
<text text-anchor="middle" x="200.5" y="-105.5" font-family="Arial" font-size="10.00">RefTri</text>
</a>
</g>
</g>
<!-- Node1&#45;&gt;Node3 -->
<g id="edge2" class="edge">
<title>Node1&#45;&gt;Node3</title>
<path fill="none" stroke="midnightblue" d="M89.22,-95.6C101.41,-97.58 114.97,-99.78 128.3,-101.94"/>
<polygon fill="midnightblue" stroke="midnightblue" points="128,-105.44 138.43,-103.59 129.12,-98.53 128,-105.44"/>
</g>
<!-- Node5 -->
<g id="node5" class="node">
<title>Node5</title>
<g id="a_node5"><a xlink:href="namespaceanonymous__namespace_02testFeLib_8cpp_03.html#a5a1fb22090fa2e6dceff4f43acc7a015" target="_top" xlink:title=" ">
<polygon fill="none" stroke="black" points="125,-49.5 125,-79.5 276,-79.5 276,-49.5 125,-49.5"/>
<text text-anchor="start" x="133" y="-67.5" font-family="Arial" font-size="10.00">anonymous_namespace</text>
<text text-anchor="middle" x="200.5" y="-56.5" font-family="Arial" font-size="10.00">{testFeLib::cpp}::readElements</text>
</a>
</g>
</g>
<!-- Node1&#45;&gt;Node5 -->
<g id="edge4" class="edge">
<title>Node1&#45;&gt;Node5</title>
<path fill="none" stroke="midnightblue" d="M89.22,-81.69C97.29,-80.43 105.98,-79.08 114.79,-77.7"/>
<polygon fill="midnightblue" stroke="midnightblue" points="115.44,-81.14 124.78,-76.14 114.36,-74.23 115.44,-81.14"/>
</g>
<!-- Node6 -->
<g id="node6" class="node">
<title>Node6</title>
<g id="a_node6"><a xlink:href="namespaceanonymous__namespace_02testFeLib_8cpp_03.html#a7d6fdb37153e1d548efc6e79d9c61138" target="_top" xlink:title=" ">
<polygon fill="none" stroke="black" points="131.5,-0.5 131.5,-30.5 269.5,-30.5 269.5,-0.5 131.5,-0.5"/>
<text text-anchor="start" x="139.5" y="-18.5" font-family="Arial" font-size="10.00">anonymous_namespace</text>
<text text-anchor="middle" x="200.5" y="-7.5" font-family="Arial" font-size="10.00">{testFeLib::cpp}::readNodes</text>
</a>
</g>
</g>
<!-- Node1&#45;&gt;Node6 -->
<g id="edge5" class="edge">
<title>Node1&#45;&gt;Node6</title>
<path fill="none" stroke="midnightblue" d="M59.34,-78.85C74.81,-68.38 100.86,-51.67 125,-40.5 129.88,-38.24 135.01,-36.09 140.22,-34.06"/>
<polygon fill="midnightblue" stroke="midnightblue" points="141.47,-37.33 149.61,-30.55 139.02,-30.77 141.47,-37.33"/>
</g>
<!-- Node4 -->
<g id="node4" class="node">
<title>Node4</title>
<g id="a_node4"><a xlink:href="namespacetest.html#a44d761477bf0e6293198849c53cb8abc" target="_top" xlink:title="Computes &#160;&quot;n choose r&quot;.">
<polygon fill="none" stroke="black" points="312,-104 312,-123 413,-123 413,-104 312,-104"/>
<text text-anchor="middle" x="362.5" y="-111" font-family="Arial" font-size="10.00">test::getNChooseR</text>
</a>
</g>
</g>
<!-- Node3&#45;&gt;Node4 -->
<g id="edge3" class="edge">
<title>Node3&#45;&gt;Node4</title>
<path fill="none" stroke="midnightblue" d="M262.9,-113.5C275.7,-113.5 289.16,-113.5 301.89,-113.5"/>
<polygon fill="midnightblue" stroke="midnightblue" points="301.92,-117 311.92,-113.5 301.92,-110 301.92,-117"/>
</g>
</g>
</svg>
