<?xml version="1.0" encoding="UTF-8" standalone="no"?>
<!DOCTYPE svg PUBLIC "-//W3C//DTD SVG 1.1//EN"
 "http://www.w3.org/Graphics/SVG/1.1/DTD/svg11.dtd">
<!-- Generated by graphviz version 2.43.0 (0)
 -->
<!-- Title: util::get_rd_gen Pages: 1 -->
<svg width="420pt" height="198pt"
 viewBox="0.00 0.00 420.00 198.00" xmlns="http://www.w3.org/2000/svg" xmlns:xlink="http://www.w3.org/1999/xlink">
<g id="graph0" class="graph" transform="scale(1 1) rotate(0) translate(4 194)">
<title>util::get_rd_gen</title>
<!-- Node1 -->
<g id="node1" class="node">
<title>Node1</title>
<g id="a_node1"><a xlink:title="Return random number generator.">
<polygon fill="#bfbfbf" stroke="black" points="329,-76.5 329,-95.5 412,-95.5 412,-76.5 329,-76.5"/>
<text text-anchor="middle" x="370.5" y="-83.5" font-family="Arial" font-size="10.00">util::get_rd_gen</text>
</a>
</g>
</g>
<!-- Node2 -->
<g id="node2" class="node">
<title>Node2</title>
<g id="a_node2"><a xlink:href="namespaceanonymous__namespace_02testNSearchLib_8cpp_03.html#a4f487e31f282be89df8c00e4d8ac9101" target="_top" xlink:title=" ">
<polygon fill="none" stroke="black" points="171,-148.5 171,-189.5 293,-189.5 293,-148.5 171,-148.5"/>
<text text-anchor="start" x="179" y="-177.5" font-family="Arial" font-size="10.00">anonymous_namespace</text>
<text text-anchor="start" x="179" y="-166.5" font-family="Arial" font-size="10.00">{testNSearchLib::cpp}</text>
<text text-anchor="middle" x="232" y="-155.5" font-family="Arial" font-size="10.00">::assignRandomTags</text>
</a>
</g>
</g>
<!-- Node1&#45;&gt;Node2 -->
<g id="edge1" class="edge">
<title>Node1&#45;&gt;Node2</title>
<path fill="none" stroke="midnightblue" d="M348.74,-101.58C333.65,-112.61 312.52,-127.44 293,-139 287.59,-142.21 281.79,-145.39 276.01,-148.43"/>
<polygon fill="midnightblue" stroke="midnightblue" points="350.91,-104.33 356.88,-95.58 346.75,-98.7 350.91,-104.33"/>
</g>
<!-- Node4 -->
<g id="node4" class="node">
<title>Node4</title>
<g id="a_node4"><a xlink:href="classutil_1_1DistributionSample.html#ac65ff326920140c9725476c93b9d5585" target="_top" xlink:title="Initialize the distribution.">
<polygon fill="none" stroke="black" points="173,-99 173,-129 291,-129 291,-99 173,-99"/>
<text text-anchor="start" x="181" y="-117" font-family="Arial" font-size="10.00">util::DistributionSample</text>
<text text-anchor="middle" x="232" y="-106" font-family="Arial" font-size="10.00">::init</text>
</a>
</g>
</g>
<!-- Node1&#45;&gt;Node4 -->
<g id="edge3" class="edge">
<title>Node1&#45;&gt;Node4</title>
<path fill="none" stroke="midnightblue" d="M318.92,-96.38C309.86,-98.23 300.36,-100.18 291.11,-102.08"/>
<polygon fill="midnightblue" stroke="midnightblue" points="319.82,-99.76 328.92,-94.33 318.42,-92.91 319.82,-99.76"/>
</g>
<!-- Node5 -->
<g id="node5" class="node">
<title>Node5</title>
<g id="a_node5"><a xlink:href="namespaceanonymous__namespace_02testNSearchLib_8cpp_03.html#a842f06817313f305bf05286d9f13b7d1" target="_top" xlink:title=" ">
<polygon fill="none" stroke="black" points="171,-38.5 171,-79.5 293,-79.5 293,-38.5 171,-38.5"/>
<text text-anchor="start" x="179" y="-67.5" font-family="Arial" font-size="10.00">anonymous_namespace</text>
<text text-anchor="start" x="179" y="-56.5" font-family="Arial" font-size="10.00">{testNSearchLib::cpp}</text>
<text text-anchor="middle" x="232" y="-45.5" font-family="Arial" font-size="10.00">::lattice</text>
</a>
</g>
</g>
<!-- Node1&#45;&gt;Node5 -->
<g id="edge4" class="edge">
<title>Node1&#45;&gt;Node5</title>
<path fill="none" stroke="midnightblue" d="M318.91,-75.99C310.51,-74.33 301.74,-72.6 293.14,-70.9"/>
<polygon fill="midnightblue" stroke="midnightblue" points="318.43,-79.47 328.92,-77.97 319.78,-72.6 318.43,-79.47"/>
</g>
<!-- Node7 -->
<g id="node7" class="node">
<title>Node7</title>
<g id="a_node7"><a xlink:href="namespacetest.html#ad42bc7bd3da5dce5ed3624b8fca7585f" target="_top" xlink:title="Perform test on taskflow.">
<polygon fill="none" stroke="black" points="184.5,-0.5 184.5,-19.5 279.5,-19.5 279.5,-0.5 184.5,-0.5"/>
<text text-anchor="middle" x="232" y="-7.5" font-family="Arial" font-size="10.00">test::testTaskflow</text>
</a>
</g>
</g>
<!-- Node1&#45;&gt;Node7 -->
<g id="edge7" class="edge">
<title>Node1&#45;&gt;Node7</title>
<path fill="none" stroke="midnightblue" d="M351.02,-69.44C336.21,-56.89 314.44,-39.99 293,-29 285.8,-25.31 277.75,-22.17 269.95,-19.56"/>
<polygon fill="midnightblue" stroke="midnightblue" points="349.03,-72.34 358.88,-76.25 353.61,-67.05 349.03,-72.34"/>
</g>
<!-- Node3 -->
<g id="node3" class="node">
<title>Node3</title>
<g id="a_node3"><a xlink:href="namespacetest.html#a197262de1745b522497c1d1e58066215" target="_top" xlink:title="Perform test on nsearch.">
<polygon fill="none" stroke="black" points="0,-121 0,-151 135,-151 135,-121 0,-121"/>
<text text-anchor="start" x="8" y="-139" font-family="Arial" font-size="10.00">test::testNanoflannExclude</text>
<text text-anchor="middle" x="67.5" y="-128" font-family="Arial" font-size="10.00">Include</text>
</a>
</g>
</g>
<!-- Node2&#45;&gt;Node3 -->
<g id="edge2" class="edge">
<title>Node2&#45;&gt;Node3</title>
<path fill="none" stroke="midnightblue" d="M160.99,-154.78C152.41,-153.04 143.66,-151.26 135.14,-149.53"/>
<polygon fill="midnightblue" stroke="midnightblue" points="160.46,-158.25 170.95,-156.81 161.85,-151.39 160.46,-158.25"/>
</g>
<!-- Node5&#45;&gt;Node3 -->
<g id="edge6" class="edge">
<title>Node5&#45;&gt;Node3</title>
<path fill="none" stroke="midnightblue" d="M178.2,-84.02C152.5,-96.2 122.45,-110.44 100.31,-120.93"/>
<polygon fill="midnightblue" stroke="midnightblue" points="179.91,-87.08 187.45,-79.63 176.92,-80.75 179.91,-87.08"/>
</g>
<!-- Node6 -->
<g id="node6" class="node">
<title>Node6</title>
<g id="a_node6"><a xlink:href="namespacetest.html#a473c5d8b21be56b653930316d33eb743" target="_top" xlink:title="Perform test on nsearch.">
<polygon fill="none" stroke="black" points="17.5,-49.5 17.5,-68.5 117.5,-68.5 117.5,-49.5 17.5,-49.5"/>
<text text-anchor="middle" x="67.5" y="-56.5" font-family="Arial" font-size="10.00">test::testNanoflann</text>
</a>
</g>
</g>
<!-- Node5&#45;&gt;Node6 -->
<g id="edge5" class="edge">
<title>Node5&#45;&gt;Node6</title>
<path fill="none" stroke="midnightblue" d="M160.54,-59C146.09,-59 131.18,-59 117.67,-59"/>
<polygon fill="midnightblue" stroke="midnightblue" points="160.95,-62.5 170.95,-59 160.95,-55.5 160.95,-62.5"/>
</g>
<!-- Node8 -->
<g id="node8" class="node">
<title>Node8</title>
<g id="a_node8"><a xlink:href="testParallelComp_8cpp.html#a0ddf1224851353fc92bfbff6f499fa97" target="_top" xlink:title=" ">
<polygon fill="none" stroke="black" points="48.5,-0.5 48.5,-19.5 86.5,-19.5 86.5,-0.5 48.5,-0.5"/>
<text text-anchor="middle" x="67.5" y="-7.5" font-family="Arial" font-size="10.00">main</text>
</a>
</g>
</g>
<!-- Node7&#45;&gt;Node8 -->
<g id="edge8" class="edge">
<title>Node7&#45;&gt;Node8</title>
<path fill="none" stroke="midnightblue" d="M174.23,-10C143.49,-10 107.59,-10 86.52,-10"/>
<polygon fill="midnightblue" stroke="midnightblue" points="174.43,-13.5 184.43,-10 174.43,-6.5 174.43,-13.5"/>
</g>
</g>
</svg>
