<?xml version="1.0" encoding="UTF-8" standalone="no"?>
<!DOCTYPE svg PUBLIC "-//W3C//DTD SVG 1.1//EN"
 "http://www.w3.org/Graphics/SVG/1.1/DTD/svg11.dtd">
<!-- Generated by graphviz version 2.43.0 (0)
 -->
<!-- Title: problem_setup.generate_wall_gmsh_input Pages: 1 -->
<svg width="670pt" height="618pt"
 viewBox="0.00 0.00 670.00 618.36" xmlns="http://www.w3.org/2000/svg" xmlns:xlink="http://www.w3.org/1999/xlink">
<g id="graph0" class="graph" transform="scale(1 1) rotate(0) translate(4 614.36)">
<title>problem_setup.generate_wall_gmsh_input</title>
<!-- Node1 -->
<g id="Node000001" class="node">
<title>Node1</title>
<g id="a_Node000001"><a xlink:title=" ">
<polygon fill="#999999" stroke="#666666" points="662,-231.4 541,-231.4 541,-201.4 662,-201.4 662,-231.4"/>
<text text-anchor="start" x="549" y="-219.4" font-family="Arial" font-size="10.00">problem_setup.generate</text>
<text text-anchor="middle" x="601.5" y="-208.4" font-family="Arial" font-size="10.00">_wall_gmsh_input</text>
</a>
</g>
</g>
<!-- Node2 -->
<g id="Node000002" class="node">
<title>Node2</title>
<g id="a_Node000002"><a xlink:href="namespaceproblem__setup.html#a8ed53bd44082cee1b5381115a87451e2" target="_top" xlink:title=" ">
<polygon fill="white" stroke="#666666" points="505,-289.4 395,-289.4 395,-259.4 505,-259.4 505,-289.4"/>
<text text-anchor="start" x="403" y="-277.4" font-family="Arial" font-size="10.00">problem_setup.create</text>
<text text-anchor="middle" x="450" y="-266.4" font-family="Arial" font-size="10.00">_input_file</text>
</a>
</g>
</g>
<!-- Node1&#45;&gt;Node2 -->
<g id="edge1_Node000001_Node000002" class="edge">
<title>Node1&#45;&gt;Node2</title>
<g id="a_edge1_Node000001_Node000002"><a xlink:title=" ">
<path fill="none" stroke="#63b8ff" d="M552.25,-235.12C532.01,-242.97 508.79,-251.98 489.69,-259.39"/>
<polygon fill="#63b8ff" stroke="#63b8ff" points="553.55,-238.37 561.61,-231.49 551.02,-231.84 553.55,-238.37"/>
</a>
</g>
</g>
<!-- Node8 -->
<g id="Node000008" class="node">
<title>Node8</title>
<g id="a_Node000008"><a xlink:href="namespaceproblem__setup.html#a021c61bf44d7c968582474d32605a1ad" target="_top" xlink:title=" ">
<polygon fill="white" stroke="#666666" points="130,-586.4 9,-586.4 9,-556.4 130,-556.4 130,-586.4"/>
<text text-anchor="start" x="17" y="-574.4" font-family="Arial" font-size="10.00">problem_setup.generate</text>
<text text-anchor="middle" x="69.5" y="-563.4" font-family="Arial" font-size="10.00">_wall_gmsh_input</text>
</a>
</g>
</g>
<!-- Node1&#45;&gt;Node8 -->
<g id="edge22_Node000001_Node000008" class="edge">
<title>Node1&#45;&gt;Node8</title>
<g id="a_edge22_Node000001_Node000008"><a xlink:title=" ">
<path fill="none" stroke="#63b8ff" d="M593.4,-241.26C571.91,-311.27 500.15,-509.97 359,-586.4 280.27,-629.03 171.07,-604.92 112.17,-586.41"/>
<polygon fill="#63b8ff" stroke="#63b8ff" points="596.8,-242.11 596.32,-231.53 590.1,-240.1 596.8,-242.11"/>
</a>
</g>
</g>
<!-- Node9 -->
<g id="Node000009" class="node">
<title>Node9</title>
<g id="a_Node000009"><a xlink:href="namespaceproblem__setup.html#ac5b70eb483dcc46be564cfc382ca08ef" target="_top" xlink:title=" ">
<polygon fill="white" stroke="#666666" points="127,-168.4 12,-168.4 12,-138.4 127,-138.4 127,-168.4"/>
<text text-anchor="start" x="20" y="-156.4" font-family="Arial" font-size="10.00">problem_setup.particle</text>
<text text-anchor="middle" x="69.5" y="-145.4" font-family="Arial" font-size="10.00">_locations_orient</text>
</a>
</g>
</g>
<!-- Node1&#45;&gt;Node9 -->
<g id="edge24_Node000001_Node000009" class="edge">
<title>Node1&#45;&gt;Node9</title>
<g id="a_edge24_Node000001_Node000009"><a xlink:title=" ">
<path fill="none" stroke="#63b8ff" d="M588.35,-192.08C572.65,-162.81 542.8,-113.83 505,-83.4 449.95,-39.09 428.21,-34.7 359,-20.4 278.91,-3.86 248.55,15.35 175,-20.4 123.76,-45.3 90.17,-108.84 76.9,-138.16"/>
<polygon fill="#63b8ff" stroke="#63b8ff" points="585.38,-193.96 593.12,-201.19 591.58,-190.71 585.38,-193.96"/>
</a>
</g>
</g>
<!-- Node12 -->
<g id="Node000012" class="node">
<title>Node12</title>
<g id="a_Node000012"><a xlink:href="namespaceproblem__setup.html#a38db49e0a85dd22e69cae23f7f92435f" target="_top" xlink:title=" ">
<polygon fill="white" stroke="#666666" points="324.5,-59.4 209.5,-59.4 209.5,-29.4 324.5,-29.4 324.5,-59.4"/>
<text text-anchor="start" x="217.5" y="-47.4" font-family="Arial" font-size="10.00">problem_setup.particle</text>
<text text-anchor="middle" x="267" y="-36.4" font-family="Arial" font-size="10.00">_locations</text>
</a>
</g>
</g>
<!-- Node1&#45;&gt;Node12 -->
<g id="edge23_Node000001_Node000012" class="edge">
<title>Node1&#45;&gt;Node12</title>
<g id="a_edge23_Node000001_Node000012"><a xlink:title=" ">
<path fill="none" stroke="#63b8ff" d="M572.51,-195.45C528.97,-163.76 441.45,-103.63 359,-68.4 348.18,-63.78 336.25,-59.86 324.69,-56.61"/>
<polygon fill="#63b8ff" stroke="#63b8ff" points="570.48,-198.3 580.61,-201.39 574.61,-192.65 570.48,-198.3"/>
</a>
</g>
</g>
<!-- Node3 -->
<g id="Node000003" class="node">
<title>Node3</title>
<g id="a_Node000003"><a xlink:href="namespaceproblem__setup.html#ad8435164bcbd3345621bebc22e38b3d6" target="_top" xlink:title=" ">
<polygon fill="white" stroke="#666666" points="338.5,-107.4 195.5,-107.4 195.5,-77.4 338.5,-77.4 338.5,-107.4"/>
<text text-anchor="start" x="203.5" y="-95.4" font-family="Arial" font-size="10.00">problem_setup.generate</text>
<text text-anchor="middle" x="267" y="-84.4" font-family="Arial" font-size="10.00">_cylindrical_wall_gmsh_input</text>
</a>
</g>
</g>
<!-- Node2&#45;&gt;Node3 -->
<g id="edge2_Node000002_Node000003" class="edge">
<title>Node2&#45;&gt;Node3</title>
<g id="a_edge2_Node000002_Node000003"><a xlink:title=" ">
<path fill="none" stroke="#63b8ff" d="M437.62,-250.1C422.9,-220.79 394.84,-171.46 359,-139.4 344.02,-126 324.54,-115.28 307.44,-107.47"/>
<polygon fill="#63b8ff" stroke="#63b8ff" points="434.55,-251.79 442.09,-259.22 440.83,-248.7 434.55,-251.79"/>
</a>
</g>
</g>
<!-- Node4 -->
<g id="Node000004" class="node">
<title>Node4</title>
<g id="a_Node000004"><a xlink:href="namespaceproblem__setup.html#a0309e4ef640896d0611c7626b8273f19" target="_top" xlink:title=" ">
<polygon fill="white" stroke="#666666" points="335,-525.4 199,-525.4 199,-495.4 335,-495.4 335,-525.4"/>
<text text-anchor="start" x="207" y="-513.4" font-family="Arial" font-size="10.00">problem_setup.generate</text>
<text text-anchor="middle" x="267" y="-502.4" font-family="Arial" font-size="10.00">_drum_particle_gmsh_input</text>
</a>
</g>
</g>
<!-- Node2&#45;&gt;Node4 -->
<g id="edge4_Node000002_Node000004" class="edge">
<title>Node2&#45;&gt;Node4</title>
<g id="a_edge4_Node000002_Node000004"><a xlink:title=" ">
<path fill="none" stroke="#63b8ff" d="M445.57,-299.6C438.16,-344.13 416.39,-436.71 359,-486.4 352.08,-492.39 343.84,-496.91 335.18,-500.31"/>
<polygon fill="#63b8ff" stroke="#63b8ff" points="449.05,-300.04 447.13,-289.62 442.13,-298.96 449.05,-300.04"/>
</a>
</g>
</g>
<!-- Node5 -->
<g id="Node000005" class="node">
<title>Node5</title>
<g id="a_Node000005"><a xlink:href="namespaceproblem__setup.html#a16a9d169ecf04b1a867bec4dbf274c01" target="_top" xlink:title=" ">
<polygon fill="white" stroke="#666666" points="343.5,-459.4 190.5,-459.4 190.5,-429.4 343.5,-429.4 343.5,-459.4"/>
<text text-anchor="start" x="198.5" y="-447.4" font-family="Arial" font-size="10.00">problem_setup.generate</text>
<text text-anchor="middle" x="267" y="-436.4" font-family="Arial" font-size="10.00">_moving_rect_wall_gmsh_input</text>
</a>
</g>
</g>
<!-- Node2&#45;&gt;Node5 -->
<g id="edge6_Node000002_Node000005" class="edge">
<title>Node2&#45;&gt;Node5</title>
<g id="a_edge6_Node000002_Node000005"><a xlink:title=" ">
<path fill="none" stroke="#63b8ff" d="M439.58,-298.97C426.29,-330.43 399.09,-384.57 359,-415.4 351.64,-421.06 343.14,-425.63 334.36,-429.32"/>
<polygon fill="#63b8ff" stroke="#63b8ff" points="442.86,-300.19 443.4,-289.61 436.38,-297.54 442.86,-300.19"/>
</a>
</g>
</g>
<!-- Node6 -->
<g id="Node000006" class="node">
<title>Node6</title>
<g id="a_Node000006"><a xlink:href="namespaceproblem__setup.html#a4dd4df45d28c58aafac4fdf8aa8c554d" target="_top" xlink:title=" ">
<polygon fill="white" stroke="#666666" points="332.5,-289.4 201.5,-289.4 201.5,-259.4 332.5,-259.4 332.5,-289.4"/>
<text text-anchor="start" x="209.5" y="-277.4" font-family="Arial" font-size="10.00">problem_setup.generate</text>
<text text-anchor="middle" x="267" y="-266.4" font-family="Arial" font-size="10.00">_moving_wall_gmsh_input</text>
</a>
</g>
</g>
<!-- Node2&#45;&gt;Node6 -->
<g id="edge8_Node000002_Node000006" class="edge">
<title>Node2&#45;&gt;Node6</title>
<g id="a_edge8_Node000002_Node000006"><a xlink:title=" ">
<path fill="none" stroke="#63b8ff" d="M384.44,-274.4C367.66,-274.4 349.59,-274.4 332.8,-274.4"/>
<polygon fill="#63b8ff" stroke="#63b8ff" points="384.69,-277.9 394.69,-274.4 384.69,-270.9 384.69,-277.9"/>
</a>
</g>
</g>
<!-- Node7 -->
<g id="Node000007" class="node">
<title>Node7</title>
<g id="a_Node000007"><a xlink:href="namespaceproblem__setup.html#a881d38782fcef7d73522d8b9bfcdb3da" target="_top" xlink:title=" ">
<polygon fill="white" stroke="#666666" points="327.5,-355.4 206.5,-355.4 206.5,-325.4 327.5,-325.4 327.5,-355.4"/>
<text text-anchor="start" x="214.5" y="-343.4" font-family="Arial" font-size="10.00">problem_setup.generate</text>
<text text-anchor="middle" x="267" y="-332.4" font-family="Arial" font-size="10.00">_particle_gmsh_input</text>
</a>
</g>
</g>
<!-- Node2&#45;&gt;Node7 -->
<g id="edge10_Node000002_Node000007" class="edge">
<title>Node2&#45;&gt;Node7</title>
<g id="a_edge10_Node000002_Node000007"><a xlink:title=" ">
<path fill="none" stroke="#63b8ff" d="M410.58,-294.18C394.86,-301.78 376.32,-310.13 359,-316.4 349.01,-320.01 338.23,-323.34 327.7,-326.29"/>
<polygon fill="#63b8ff" stroke="#63b8ff" points="412.54,-297.12 419.97,-289.57 409.45,-290.83 412.54,-297.12"/>
</a>
</g>
</g>
<!-- Node2&#45;&gt;Node8 -->
<g id="edge19_Node000002_Node000008" class="edge">
<title>Node2&#45;&gt;Node8</title>
<g id="a_edge19_Node000002_Node000008"><a xlink:title=" ">
<path fill="none" stroke="#63b8ff" d="M449.45,-299.8C448.92,-355.87 438.92,-490.15 359,-552.4 293.96,-603.06 193.62,-596.54 130.05,-585.35"/>
<polygon fill="#63b8ff" stroke="#63b8ff" points="452.95,-299.68 449.45,-289.68 445.95,-299.68 452.95,-299.68"/>
</a>
</g>
</g>
<!-- Node2&#45;&gt;Node9 -->
<g id="edge21_Node000002_Node000009" class="edge">
<title>Node2&#45;&gt;Node9</title>
<g id="a_edge21_Node000002_Node000009"><a xlink:title=" ">
<path fill="none" stroke="#63b8ff" d="M435.4,-250.45C420.22,-226.27 393.22,-190.19 359,-173.4 285.19,-137.19 187.76,-139.12 127.13,-145.21"/>
<polygon fill="#63b8ff" stroke="#63b8ff" points="432.45,-252.33 440.63,-259.06 438.43,-248.7 432.45,-252.33"/>
</a>
</g>
</g>
<!-- Node10 -->
<g id="Node000010" class="node">
<title>Node10</title>
<g id="a_Node000010"><a xlink:href="namespaceproblem__setup.html#ab77cd691be605123ba53961f21c8885a" target="_top" xlink:title=" ">
<polygon fill="white" stroke="#666666" points="139,-316.4 0,-316.4 0,-286.4 139,-286.4 139,-316.4"/>
<text text-anchor="start" x="8" y="-304.4" font-family="Arial" font-size="10.00">problem_setup.generate</text>
<text text-anchor="middle" x="69.5" y="-293.4" font-family="Arial" font-size="10.00">_rect_container_gmsh_input</text>
</a>
</g>
</g>
<!-- Node2&#45;&gt;Node10 -->
<g id="edge14_Node000002_Node000010" class="edge">
<title>Node2&#45;&gt;Node10</title>
<g id="a_edge14_Node000002_Node000010"><a xlink:title=" ">
<path fill="none" stroke="#63b8ff" d="M437.2,-298.43C422.82,-324.64 395.81,-365.16 359,-382.4 284.94,-417.09 252.37,-408.88 175,-382.4 136.99,-369.4 102.12,-336.32 83.85,-316.69"/>
<polygon fill="#63b8ff" stroke="#63b8ff" points="440.34,-299.97 441.92,-289.49 434.15,-296.7 440.34,-299.97"/>
</a>
</g>
</g>
<!-- Node11 -->
<g id="Node000011" class="node">
<title>Node11</title>
<g id="a_Node000011"><a xlink:href="namespaceproblem__setup.html#a8e72848abab104858c2a4647079140ed" target="_top" xlink:title=" ">
<polygon fill="white" stroke="#666666" points="359,-222.9 175,-222.9 175,-181.9 359,-181.9 359,-222.9"/>
<text text-anchor="start" x="183" y="-210.9" font-family="Arial" font-size="10.00">problem_setup.generate</text>
<text text-anchor="start" x="183" y="-199.9" font-family="Arial" font-size="10.00">_rectangle_with_protrusion</text>
<text text-anchor="middle" x="267" y="-188.9" font-family="Arial" font-size="10.00">_and_opening_wall_gmsh_input_type3</text>
</a>
</g>
</g>
<!-- Node2&#45;&gt;Node11 -->
<g id="edge16_Node000002_Node000011" class="edge">
<title>Node2&#45;&gt;Node11</title>
<g id="a_edge16_Node000002_Node000011"><a xlink:title=" ">
<path fill="none" stroke="#63b8ff" d="M401.71,-255.59C376.5,-245.56 345.45,-233.21 319.63,-222.94"/>
<polygon fill="#63b8ff" stroke="#63b8ff" points="400.47,-258.86 411.06,-259.31 403.06,-252.36 400.47,-258.86"/>
</a>
</g>
</g>
<!-- Node2&#45;&gt;Node12 -->
<g id="edge20_Node000002_Node000012" class="edge">
<title>Node2&#45;&gt;Node12</title>
<g id="a_edge20_Node000002_Node000012"><a xlink:title=" ">
<path fill="none" stroke="#63b8ff" d="M441.17,-249.55C425.21,-200.37 387.98,-93.23 359,-68.4 349.32,-60.11 337.09,-54.64 324.77,-51.05"/>
<polygon fill="#63b8ff" stroke="#63b8ff" points="437.85,-250.66 444.24,-259.11 444.52,-248.52 437.85,-250.66"/>
</a>
</g>
</g>
<!-- Node3&#45;&gt;Node3 -->
<g id="edge3_Node000003_Node000003" class="edge">
<title>Node3&#45;&gt;Node3</title>
<g id="a_edge3_Node000003_Node000003"><a xlink:title=" ">
<path fill="none" stroke="#63b8ff" d="M298.86,-118C294.5,-122.37 283.88,-125.4 267,-125.4 238.56,-125.4 227.9,-116.81 235.01,-107.68"/>
<polygon fill="#63b8ff" stroke="#63b8ff" points="302.36,-117.72 298.99,-107.68 295.36,-117.63 302.36,-117.72"/>
</a>
</g>
</g>
<!-- Node4&#45;&gt;Node4 -->
<g id="edge5_Node000004_Node000004" class="edge">
<title>Node4&#45;&gt;Node4</title>
<g id="a_edge5_Node000004_Node000004"><a xlink:title=" ">
<path fill="none" stroke="#63b8ff" d="M298.86,-536C294.5,-540.37 283.88,-543.4 267,-543.4 238.56,-543.4 227.9,-534.81 235.01,-525.68"/>
<polygon fill="#63b8ff" stroke="#63b8ff" points="302.36,-535.72 298.99,-525.68 295.36,-535.63 302.36,-535.72"/>
</a>
</g>
</g>
<!-- Node5&#45;&gt;Node5 -->
<g id="edge7_Node000005_Node000005" class="edge">
<title>Node5&#45;&gt;Node5</title>
<g id="a_edge7_Node000005_Node000005"><a xlink:title=" ">
<path fill="none" stroke="#63b8ff" d="M298.86,-470C294.5,-474.37 283.88,-477.4 267,-477.4 238.56,-477.4 227.9,-468.81 235.01,-459.68"/>
<polygon fill="#63b8ff" stroke="#63b8ff" points="302.36,-469.72 298.99,-459.68 295.36,-469.63 302.36,-469.72"/>
</a>
</g>
</g>
<!-- Node6&#45;&gt;Node6 -->
<g id="edge9_Node000006_Node000006" class="edge">
<title>Node6&#45;&gt;Node6</title>
<g id="a_edge9_Node000006_Node000006"><a xlink:title=" ">
<path fill="none" stroke="#63b8ff" d="M298.86,-300C294.5,-304.37 283.88,-307.4 267,-307.4 238.56,-307.4 227.9,-298.81 235.01,-289.68"/>
<polygon fill="#63b8ff" stroke="#63b8ff" points="302.36,-299.72 298.99,-289.68 295.36,-299.63 302.36,-299.72"/>
</a>
</g>
</g>
<!-- Node7&#45;&gt;Node7 -->
<g id="edge11_Node000007_Node000007" class="edge">
<title>Node7&#45;&gt;Node7</title>
<g id="a_edge11_Node000007_Node000007"><a xlink:title=" ">
<path fill="none" stroke="#63b8ff" d="M298.86,-366C294.5,-370.37 283.88,-373.4 267,-373.4 238.56,-373.4 227.9,-364.81 235.01,-355.68"/>
<polygon fill="#63b8ff" stroke="#63b8ff" points="302.36,-365.72 298.99,-355.68 295.36,-365.63 302.36,-365.72"/>
</a>
</g>
</g>
<!-- Node7&#45;&gt;Node8 -->
<g id="edge12_Node000007_Node000008" class="edge">
<title>Node7&#45;&gt;Node8</title>
<g id="a_edge12_Node000007_Node000008"><a xlink:title=" ">
<path fill="none" stroke="#63b8ff" d="M237.97,-362.03C219.11,-377.28 194.25,-398.78 175,-420.4 134.29,-466.12 95.87,-528.2 79.2,-556.38"/>
<polygon fill="#63b8ff" stroke="#63b8ff" points="240.29,-364.66 245.92,-355.68 235.92,-359.19 240.29,-364.66"/>
</a>
</g>
</g>
<!-- Node7&#45;&gt;Node9 -->
<g id="edge13_Node000007_Node000009" class="edge">
<title>Node7&#45;&gt;Node9</title>
<g id="a_edge13_Node000007_Node000009"><a xlink:title=" ">
<path fill="none" stroke="#63b8ff" d="M196.78,-328.09C189.03,-325.02 181.57,-321.19 175,-316.4 147.35,-296.27 97.62,-205.14 78.39,-168.61"/>
<polygon fill="#63b8ff" stroke="#63b8ff" points="195.74,-331.43 206.33,-331.46 198.07,-324.83 195.74,-331.43"/>
</a>
</g>
</g>
<!-- Node10&#45;&gt;Node10 -->
<g id="edge15_Node000010_Node000010" class="edge">
<title>Node10&#45;&gt;Node10</title>
<g id="a_edge15_Node000010_Node000010"><a xlink:title=" ">
<path fill="none" stroke="#63b8ff" d="M103.81,-327C99.12,-331.37 87.68,-334.4 69.5,-334.4 38.88,-334.4 27.39,-325.81 35.05,-316.68"/>
<polygon fill="#63b8ff" stroke="#63b8ff" points="107.31,-326.72 103.95,-316.68 100.31,-326.63 107.31,-326.72"/>
</a>
</g>
</g>
<!-- Node11&#45;&gt;Node10 -->
<g id="edge17_Node000011_Node000010" class="edge">
<title>Node11&#45;&gt;Node10</title>
<g id="a_edge17_Node000011_Node000010"><a xlink:title=" ">
<path fill="none" stroke="#63b8ff" d="M216.44,-227.5C179.74,-246.08 130.95,-270.79 100.13,-286.4"/>
<polygon fill="#63b8ff" stroke="#63b8ff" points="218.15,-230.55 225.49,-222.91 214.99,-224.31 218.15,-230.55"/>
</a>
</g>
</g>
<!-- Node11&#45;&gt;Node11 -->
<g id="edge18_Node000011_Node000011" class="edge">
<title>Node11&#45;&gt;Node11</title>
<g id="a_edge18_Node000011_Node000011"><a xlink:title=" ">
<path fill="none" stroke="#63b8ff" d="M298.31,-232.86C293.66,-237.64 283.22,-240.9 267,-240.9 241.05,-240.9 229.9,-232.55 233.55,-223"/>
<polygon fill="#63b8ff" stroke="#63b8ff" points="301.75,-233.51 300.45,-223 294.91,-232.03 301.75,-233.51"/>
</a>
</g>
</g>
</g>
</svg>
