<?xml version="1.0" encoding="UTF-8" standalone="no"?>
<!DOCTYPE svg PUBLIC "-//W3C//DTD SVG 1.1//EN"
 "http://www.w3.org/Graphics/SVG/1.1/DTD/svg11.dtd">
<!-- Generated by graphviz version 2.43.0 (0)
 -->
<!-- Title: util::doLinesIntersect Pages: 1 -->
<svg width="379pt" height="64pt"
 viewBox="0.00 0.00 379.00 64.00" xmlns="http://www.w3.org/2000/svg" xmlns:xlink="http://www.w3.org/1999/xlink">
<g id="graph0" class="graph" transform="scale(1 1) rotate(0) translate(4 60)">
<title>util::doLinesIntersect</title>
<!-- Node1 -->
<g id="Node000001" class="node">
<title>Node1</title>
<g id="a_Node000001"><a xlink:title="Do lines intersect.">
<polygon fill="#999999" stroke="#666666" points="107,-37 0,-37 0,-18 107,-18 107,-37"/>
<text text-anchor="middle" x="53.5" y="-25" font-family="Arial" font-size="10.00">util::doLinesIntersect</text>
</a>
</g>
</g>
<!-- Node2 -->
<g id="Node000002" class="node">
<title>Node2</title>
<g id="a_Node000002"><a xlink:href="namespaceutil.html#a4989349bbfea16310a439c896e8222bf" target="_top" xlink:title="Computes angle between two vectors.">
<polygon fill="white" stroke="#666666" points="223.5,-56 164.5,-56 164.5,-37 223.5,-37 223.5,-56"/>
<text text-anchor="middle" x="194" y="-44" font-family="Arial" font-size="10.00">util::angle</text>
</a>
</g>
</g>
<!-- Node1&#45;&gt;Node2 -->
<g id="edge1_Node000001_Node000002" class="edge">
<title>Node1&#45;&gt;Node2</title>
<g id="a_edge1_Node000001_Node000002"><a xlink:title=" ">
<path fill="none" stroke="#63b8ff" d="M107.26,-34.74C122.88,-36.88 139.69,-39.19 154.26,-41.19"/>
<polygon fill="#63b8ff" stroke="#63b8ff" points="154.03,-44.69 164.42,-42.58 154.99,-37.75 154.03,-44.69"/>
</a>
</g>
</g>
<!-- Node4 -->
<g id="Node000004" class="node">
<title>Node4</title>
<g id="a_Node000004"><a xlink:href="structutil_1_1Point.html#abc4f3f285687df8b5522fc1b42178d3c" target="_top" xlink:title="Computes the Euclidean length of the vector.">
<polygon fill="white" stroke="#666666" points="245,-19 143,-19 143,0 245,0 245,-19"/>
<text text-anchor="middle" x="194" y="-7" font-family="Arial" font-size="10.00">util::Point::lengthSq</text>
</a>
</g>
</g>
<!-- Node1&#45;&gt;Node4 -->
<g id="edge3_Node000001_Node000004" class="edge">
<title>Node1&#45;&gt;Node4</title>
<g id="a_edge3_Node000001_Node000004"><a xlink:title=" ">
<path fill="none" stroke="#63b8ff" d="M107.26,-20.64C115.52,-19.57 124.11,-18.45 132.53,-17.36"/>
<polygon fill="#63b8ff" stroke="#63b8ff" points="133.21,-20.8 142.67,-16.04 132.31,-13.86 133.21,-20.8"/>
</a>
</g>
</g>
<!-- Node3 -->
<g id="Node000003" class="node">
<title>Node3</title>
<g id="a_Node000003"><a xlink:href="structutil_1_1Point.html#a7e6ec50072f4ff4d6461412cdc531b65" target="_top" xlink:title="Computes the Euclidean length of the vector.">
<polygon fill="white" stroke="#666666" points="371,-56 281,-56 281,-37 371,-37 371,-56"/>
<text text-anchor="middle" x="326" y="-44" font-family="Arial" font-size="10.00">util::Point::length</text>
</a>
</g>
</g>
<!-- Node2&#45;&gt;Node3 -->
<g id="edge2_Node000002_Node000003" class="edge">
<title>Node2&#45;&gt;Node3</title>
<g id="a_edge2_Node000002_Node000003"><a xlink:title=" ">
<path fill="none" stroke="#63b8ff" d="M223.53,-46.5C237.32,-46.5 254.36,-46.5 270.51,-46.5"/>
<polygon fill="#63b8ff" stroke="#63b8ff" points="270.95,-50 280.95,-46.5 270.95,-43 270.95,-50"/>
</a>
</g>
</g>
</g>
</svg>
