<?xml version="1.0" encoding="UTF-8" standalone="no"?>
<!DOCTYPE svg PUBLIC "-//W3C//DTD SVG 1.1//EN"
 "http://www.w3.org/Graphics/SVG/1.1/DTD/svg11.dtd">
<!-- Generated by graphviz version 2.43.0 (0)
 -->
<!-- Title: util::geometry::getNumParamsRequired Pages: 1 -->
<svg width="540pt" height="101pt"
 viewBox="0.00 0.00 540.00 101.43" xmlns="http://www.w3.org/2000/svg" xmlns:xlink="http://www.w3.org/1999/xlink">
<g id="graph0" class="graph" transform="scale(1 1) rotate(0) translate(4 97.43)">
<title>util::geometry::getNumParamsRequired</title>
<!-- Node1 -->
<g id="Node000001" class="node">
<title>Node1</title>
<g id="a_Node000001"><a xlink:title="Get num params required for creation of object.">
<polygon fill="#999999" stroke="#666666" points="532,-78 382,-78 382,-48 532,-48 532,-78"/>
<text text-anchor="start" x="390" y="-66" font-family="Arial" font-size="10.00">util::geometry::getNumParams</text>
<text text-anchor="middle" x="457" y="-55" font-family="Arial" font-size="10.00">Required</text>
</a>
</g>
</g>
<!-- Node2 -->
<g id="Node000002" class="node">
<title>Node2</title>
<g id="a_Node000002"><a xlink:href="namespaceutil_1_1geometry.html#a44f3f0e0cc6edb964264a0cc22735209" target="_top" xlink:title="Create geometrical object from the given data.">
<polygon fill="white" stroke="#666666" points="136,-78 1,-78 1,-48 136,-48 136,-78"/>
<text text-anchor="start" x="9" y="-66" font-family="Arial" font-size="10.00">util::geometry::createGeom</text>
<text text-anchor="middle" x="68.5" y="-55" font-family="Arial" font-size="10.00">ObjectOld</text>
</a>
</g>
</g>
<!-- Node1&#45;&gt;Node2 -->
<g id="edge1_Node000001_Node000002" class="edge">
<title>Node1&#45;&gt;Node2</title>
<g id="a_edge1_Node000001_Node000002"><a xlink:title=" ">
<path fill="none" stroke="#63b8ff" d="M388.2,-80.18C374.33,-83.02 359.76,-85.52 346,-87 269.55,-95.24 249.39,-95.74 173,-87 156.87,-85.15 139.6,-81.74 123.88,-78.06"/>
<polygon fill="#63b8ff" stroke="#63b8ff" points="389.1,-83.56 398.15,-78.06 387.64,-76.72 389.1,-83.56"/>
</a>
</g>
</g>
<!-- Node3 -->
<g id="Node000003" class="node">
<title>Node3</title>
<g id="a_Node000003"><a xlink:href="namespaceutil_1_1geometry.html#a183aa817838c3458f52743b944634c3a" target="_top" xlink:title="Ascertain if number of parameters are correct for the given geometry.">
<polygon fill="white" stroke="#666666" points="346,-78 173,-78 173,-48 346,-48 346,-78"/>
<text text-anchor="start" x="181" y="-66" font-family="Arial" font-size="10.00">util::geometry::isNumber</text>
<text text-anchor="middle" x="259.5" y="-55" font-family="Arial" font-size="10.00">OfParamForComplexGeometryValid</text>
</a>
</g>
</g>
<!-- Node1&#45;&gt;Node3 -->
<g id="edge2_Node000001_Node000003" class="edge">
<title>Node1&#45;&gt;Node3</title>
<g id="a_edge2_Node000001_Node000003"><a xlink:title=" ">
<path fill="none" stroke="#63b8ff" d="M371.59,-63C363.15,-63 354.56,-63 346.1,-63"/>
<polygon fill="#63b8ff" stroke="#63b8ff" points="371.81,-66.5 381.81,-63 371.81,-59.5 371.81,-66.5"/>
</a>
</g>
</g>
<!-- Node4 -->
<g id="Node000004" class="node">
<title>Node4</title>
<g id="a_Node000004"><a xlink:href="namespaceutil_1_1geometry.html#a273199cba8fab80639f5479b3f01ab5d" target="_top" xlink:title="Ascertain if number of parameters are correct for the given geometry.">
<polygon fill="white" stroke="#666666" points="326.5,-30 192.5,-30 192.5,0 326.5,0 326.5,-30"/>
<text text-anchor="start" x="200.5" y="-18" font-family="Arial" font-size="10.00">util::geometry::isNumber</text>
<text text-anchor="middle" x="259.5" y="-7" font-family="Arial" font-size="10.00">OfParamForGeometryValid</text>
</a>
</g>
</g>
<!-- Node1&#45;&gt;Node4 -->
<g id="edge4_Node000001_Node000004" class="edge">
<title>Node1&#45;&gt;Node4</title>
<g id="a_edge4_Node000001_Node000004"><a xlink:title=" ">
<path fill="none" stroke="#63b8ff" d="M384.96,-45.56C364.2,-40.46 341.69,-34.93 321.6,-30"/>
<polygon fill="#63b8ff" stroke="#63b8ff" points="384.13,-48.96 394.68,-47.94 385.8,-42.16 384.13,-48.96"/>
</a>
</g>
</g>
<!-- Node3&#45;&gt;Node2 -->
<g id="edge3_Node000003_Node000002" class="edge">
<title>Node3&#45;&gt;Node2</title>
<g id="a_edge3_Node000003_Node000002"><a xlink:title=" ">
<path fill="none" stroke="#63b8ff" d="M162.72,-63C153.75,-63 144.79,-63 136.17,-63"/>
<polygon fill="#63b8ff" stroke="#63b8ff" points="162.85,-66.5 172.85,-63 162.85,-59.5 162.85,-66.5"/>
</a>
</g>
</g>
<!-- Node4&#45;&gt;Node2 -->
<g id="edge6_Node000004_Node000002" class="edge">
<title>Node4&#45;&gt;Node2</title>
<g id="a_edge6_Node000004_Node000002"><a xlink:title=" ">
<path fill="none" stroke="#63b8ff" d="M189.28,-32.58C169.36,-37.64 147.82,-43.11 128.57,-48"/>
<polygon fill="#63b8ff" stroke="#63b8ff" points="190.39,-35.91 199.22,-30.06 188.66,-29.13 190.39,-35.91"/>
</a>
</g>
</g>
<!-- Node5 -->
<g id="Node000005" class="node">
<title>Node5</title>
<g id="a_Node000005"><a xlink:href="namespaceutil_1_1geometry.html#a2f43f1f68c3073656dcb3af84de93192" target="_top" xlink:title="Check parameter data for validity.">
<polygon fill="white" stroke="#666666" points="137,-30 0,-30 0,0 137,0 137,-30"/>
<text text-anchor="start" x="8" y="-18" font-family="Arial" font-size="10.00">util::geometry::checkParam</text>
<text text-anchor="middle" x="68.5" y="-7" font-family="Arial" font-size="10.00">ForGeometry</text>
</a>
</g>
</g>
<!-- Node4&#45;&gt;Node5 -->
<g id="edge5_Node000004_Node000005" class="edge">
<title>Node4&#45;&gt;Node5</title>
<g id="a_edge5_Node000004_Node000005"><a xlink:title=" ">
<path fill="none" stroke="#63b8ff" d="M182.2,-15C167.3,-15 151.77,-15 137.17,-15"/>
<polygon fill="#63b8ff" stroke="#63b8ff" points="182.4,-18.5 192.4,-15 182.4,-11.5 182.4,-18.5"/>
</a>
</g>
</g>
</g>
</svg>
