<?xml version="1.0" encoding="UTF-8" standalone="no"?>
<!DOCTYPE svg PUBLIC "-//W3C//DTD SVG 1.1//EN"
 "http://www.w3.org/Graphics/SVG/1.1/DTD/svg11.dtd">
<!-- Generated by graphviz version 2.43.0 (0)
 -->
<!-- Title: problem_setup.does_particle_intersect Pages: 1 -->
<svg width="737pt" height="135pt"
 viewBox="0.00 0.00 737.00 135.00" xmlns="http://www.w3.org/2000/svg" xmlns:xlink="http://www.w3.org/1999/xlink">
<g id="graph0" class="graph" transform="scale(1 1) rotate(0) translate(4 131)">
<title>problem_setup.does_particle_intersect</title>
<!-- Node1 -->
<g id="node1" class="node">
<title>Node1</title>
<g id="a_node1"><a xlink:title=" ">
<polygon fill="#bfbfbf" stroke="black" points="0,-58 0,-88 104,-88 104,-58 0,-58"/>
<text text-anchor="start" x="8" y="-76" font-family="Arial" font-size="10.00">problem_setup.does</text>
<text text-anchor="middle" x="52" y="-65" font-family="Arial" font-size="10.00">_particle_intersect</text>
</a>
</g>
</g>
<!-- Node2 -->
<g id="node2" class="node">
<title>Node2</title>
<g id="a_node2"><a xlink:href="namespaceproblem__setup.html#aa39e6862e38920798278f55a2578a6ef" target="_top" xlink:title=" ">
<polygon fill="none" stroke="black" points="307.5,-107.5 307.5,-126.5 428.5,-126.5 428.5,-107.5 307.5,-107.5"/>
<text text-anchor="middle" x="368" y="-114.5" font-family="Arial" font-size="10.00">problem_setup.get_max</text>
</a>
</g>
</g>
<!-- Node1&#45;&gt;Node2 -->
<g id="edge1" class="edge">
<title>Node1&#45;&gt;Node2</title>
<path fill="none" stroke="midnightblue" d="M99.1,-88.07C112.2,-91.85 126.55,-95.53 140,-98 192.14,-107.58 251.92,-112.34 297.05,-114.69"/>
<polygon fill="midnightblue" stroke="midnightblue" points="297.15,-118.2 307.31,-115.2 297.5,-111.21 297.15,-118.2"/>
</g>
<!-- Node3 -->
<g id="node3" class="node">
<title>Node3</title>
<g id="a_node3"><a xlink:href="namespaceproblem__setup.html#a662426f1cd2c0857864b28e98daa4d5a" target="_top" xlink:title=" ">
<polygon fill="none" stroke="black" points="140,-58 140,-88 255,-88 255,-58 140,-58"/>
<text text-anchor="start" x="148" y="-76" font-family="Arial" font-size="10.00">problem_setup.particle</text>
<text text-anchor="middle" x="197.5" y="-65" font-family="Arial" font-size="10.00">_locations</text>
</a>
</g>
</g>
<!-- Node1&#45;&gt;Node3 -->
<g id="edge2" class="edge">
<title>Node1&#45;&gt;Node3</title>
<path fill="none" stroke="midnightblue" d="M104.4,-73C112.52,-73 121.02,-73 129.43,-73"/>
<polygon fill="midnightblue" stroke="midnightblue" points="129.62,-76.5 139.62,-73 129.62,-69.5 129.62,-76.5"/>
</g>
<!-- Node5 -->
<g id="node5" class="node">
<title>Node5</title>
<g id="a_node5"><a xlink:href="namespaceutil_1_1io.html#a578a578ce41389fb01e56de7316b7054" target="_top" xlink:title="Prints formatted information.">
<polygon fill="none" stroke="black" points="334,-19.5 334,-38.5 402,-38.5 402,-19.5 334,-19.5"/>
<text text-anchor="middle" x="368" y="-26.5" font-family="Arial" font-size="10.00">util::io::print</text>
</a>
</g>
</g>
<!-- Node1&#45;&gt;Node5 -->
<g id="edge10" class="edge">
<title>Node1&#45;&gt;Node5</title>
<path fill="none" stroke="midnightblue" d="M99.1,-57.93C112.2,-54.15 126.55,-50.47 140,-48 203.15,-36.4 277.5,-31.87 323.45,-30.11"/>
<polygon fill="midnightblue" stroke="midnightblue" points="323.78,-33.6 333.65,-29.75 323.53,-26.61 323.78,-33.6"/>
</g>
<!-- Node3&#45;&gt;Node2 -->
<g id="edge4" class="edge">
<title>Node3&#45;&gt;Node2</title>
<path fill="none" stroke="midnightblue" d="M253.73,-88.11C265.99,-91.41 278.93,-94.86 291,-98 299.89,-100.31 309.39,-102.73 318.54,-105.03"/>
<polygon fill="midnightblue" stroke="midnightblue" points="317.75,-108.44 328.3,-107.48 319.45,-101.65 317.75,-108.44"/>
</g>
<!-- Node4 -->
<g id="node4" class="node">
<title>Node4</title>
<g id="a_node4"><a xlink:href="namespaceproblem__setup.html#a49682af72cdc7bca4f282619eb559d90" target="_top" xlink:title=" ">
<polygon fill="none" stroke="black" points="291,-58 291,-88 445,-88 445,-58 291,-58"/>
<text text-anchor="start" x="299" y="-76" font-family="Arial" font-size="10.00">problem_setup.does</text>
<text text-anchor="middle" x="368" y="-65" font-family="Arial" font-size="10.00">_intersect_with_cylindrical_wall</text>
</a>
</g>
</g>
<!-- Node3&#45;&gt;Node4 -->
<g id="edge3" class="edge">
<title>Node3&#45;&gt;Node4</title>
<path fill="none" stroke="midnightblue" d="M255.08,-73C263.32,-73 271.97,-73 280.64,-73"/>
<polygon fill="midnightblue" stroke="midnightblue" points="280.81,-76.5 290.81,-73 280.81,-69.5 280.81,-76.5"/>
</g>
<!-- Node3&#45;&gt;Node5 -->
<g id="edge5" class="edge">
<title>Node3&#45;&gt;Node5</title>
<path fill="none" stroke="midnightblue" d="M253.73,-57.89C265.99,-54.59 278.93,-51.14 291,-48 301.57,-45.25 312.99,-42.35 323.69,-39.68"/>
<polygon fill="midnightblue" stroke="midnightblue" points="324.81,-43 333.67,-37.19 323.12,-36.21 324.81,-43"/>
</g>
<!-- Node6 -->
<g id="node6" class="node">
<title>Node6</title>
<g id="a_node6"><a xlink:href="namespaceutil_1_1parallel.html#adb80f14125b7556bb478cc3725508fa8" target="_top" xlink:title="get rank (id) of this processor">
<polygon fill="none" stroke="black" points="481,-38.5 481,-57.5 592,-57.5 592,-38.5 481,-38.5"/>
<text text-anchor="middle" x="536.5" y="-45.5" font-family="Arial" font-size="10.00">util::parallel::mpiRank</text>
</a>
</g>
</g>
<!-- Node5&#45;&gt;Node6 -->
<g id="edge6" class="edge">
<title>Node5&#45;&gt;Node6</title>
<path fill="none" stroke="midnightblue" d="M402.29,-32.8C421.89,-35.04 447.34,-37.94 470.73,-40.61"/>
<polygon fill="midnightblue" stroke="midnightblue" points="470.63,-44.12 480.96,-41.78 471.42,-37.17 470.63,-44.12"/>
</g>
<!-- Node9 -->
<g id="node8" class="node">
<title>Node9</title>
<g id="a_node8"><a xlink:href="namespaceutil_1_1io.html#a3e537e3bd778616255015cde6e60a30a" target="_top" xlink:title="Returns formatted string for output.">
<polygon fill="none" stroke="black" points="496.5,-0.5 496.5,-19.5 576.5,-19.5 576.5,-0.5 496.5,-0.5"/>
<text text-anchor="middle" x="536.5" y="-7.5" font-family="Arial" font-size="10.00">util::io::printStr</text>
</a>
</g>
</g>
<!-- Node5&#45;&gt;Node9 -->
<g id="edge8" class="edge">
<title>Node5&#45;&gt;Node9</title>
<path fill="none" stroke="midnightblue" d="M402.29,-25.2C426.36,-22.45 459.27,-18.7 486.35,-15.61"/>
<polygon fill="midnightblue" stroke="midnightblue" points="486.88,-19.07 496.42,-14.46 486.08,-12.12 486.88,-19.07"/>
</g>
<!-- Node7 -->
<g id="node7" class="node">
<title>Node7</title>
<g id="a_node7"><a xlink:href="namespaceutil_1_1parallel.html#aa0c65ae0f7fb6e0c4f3104c5bf3b1ff6" target="_top" xlink:title="Initializes MPI and also creates MpiStatus struct.">
<polygon fill="none" stroke="red" points="628,-38.5 628,-57.5 729,-57.5 729,-38.5 628,-38.5"/>
<text text-anchor="middle" x="678.5" y="-45.5" font-family="Arial" font-size="10.00">util::parallel::initMpi</text>
</a>
</g>
</g>
<!-- Node6&#45;&gt;Node7 -->
<g id="edge7" class="edge">
<title>Node6&#45;&gt;Node7</title>
<path fill="none" stroke="midnightblue" d="M592.03,-48C600.43,-48 609.15,-48 617.67,-48"/>
<polygon fill="midnightblue" stroke="midnightblue" points="617.92,-51.5 627.92,-48 617.92,-44.5 617.92,-51.5"/>
</g>
<!-- Node10 -->
<g id="node9" class="node">
<title>Node10</title>
<g id="a_node9"><a xlink:href="namespaceutil_1_1io.html#a38afb09a152cca4061850f4123bd3aeb" target="_top" xlink:title="Returns tab spaces of given size.">
<polygon fill="none" stroke="black" points="636,-0.5 636,-19.5 721,-19.5 721,-0.5 636,-0.5"/>
<text text-anchor="middle" x="678.5" y="-7.5" font-family="Arial" font-size="10.00">util::io::getTabS</text>
</a>
</g>
</g>
<!-- Node9&#45;&gt;Node10 -->
<g id="edge9" class="edge">
<title>Node9&#45;&gt;Node10</title>
<path fill="none" stroke="midnightblue" d="M576.87,-10C592,-10 609.5,-10 625.63,-10"/>
<polygon fill="midnightblue" stroke="midnightblue" points="625.98,-13.5 635.98,-10 625.98,-6.5 625.98,-13.5"/>
</g>
</g>
</svg>
