<?xml version="1.0" encoding="UTF-8" standalone="no"?>
<!DOCTYPE svg PUBLIC "-//W3C//DTD SVG 1.1//EN"
 "http://www.w3.org/Graphics/SVG/1.1/DTD/svg11.dtd">
<!-- Generated by graphviz version 2.43.0 (0)
 -->
<!-- Title: test::getExactIntegrationRefQuad Pages: 1 -->
<svg width="343pt" height="39pt"
 viewBox="0.00 0.00 343.00 39.00" xmlns="http://www.w3.org/2000/svg" xmlns:xlink="http://www.w3.org/1999/xlink">
<g id="graph0" class="graph" transform="scale(1 1) rotate(0) translate(4 35)">
<title>test::getExactIntegrationRefQuad</title>
<!-- Node1 -->
<g id="node1" class="node">
<title>Node1</title>
<g id="a_node1"><a xlink:title="Computes integration of polynomial exactly over reference quadrangle.">
<polygon fill="#bfbfbf" stroke="black" points="211,-0.5 211,-30.5 335,-30.5 335,-0.5 211,-0.5"/>
<text text-anchor="start" x="219" y="-18.5" font-family="Arial" font-size="10.00">test::getExactIntegration</text>
<text text-anchor="middle" x="273" y="-7.5" font-family="Arial" font-size="10.00">RefQuad</text>
</a>
</g>
</g>
<!-- Node2 -->
<g id="node2" class="node">
<title>Node2</title>
<g id="a_node2"><a xlink:href="namespacetest.html#aa82d825f0f2554452df66da03aee4a65" target="_top" xlink:title="Perform test on quadrature points on quadrangle elements.">
<polygon fill="none" stroke="black" points="74,-6 74,-25 175,-25 175,-6 74,-6"/>
<text text-anchor="middle" x="124.5" y="-13" font-family="Arial" font-size="10.00">test::testQuadElem</text>
</a>
</g>
</g>
<!-- Node1&#45;&gt;Node2 -->
<g id="edge1" class="edge">
<title>Node1&#45;&gt;Node2</title>
<path fill="none" stroke="midnightblue" d="M200.44,-15.5C191.98,-15.5 183.49,-15.5 175.42,-15.5"/>
<polygon fill="midnightblue" stroke="midnightblue" points="200.72,-19 210.72,-15.5 200.72,-12 200.72,-19"/>
</g>
<!-- Node3 -->
<g id="node3" class="node">
<title>Node3</title>
<g id="a_node3"><a xlink:href="testFe_8cpp.html#a0ddf1224851353fc92bfbff6f499fa97" target="_top" xlink:title=" ">
<polygon fill="none" stroke="black" points="0,-6 0,-25 38,-25 38,-6 0,-6"/>
<text text-anchor="middle" x="19" y="-13" font-family="Arial" font-size="10.00">main</text>
</a>
</g>
</g>
<!-- Node2&#45;&gt;Node3 -->
<g id="edge2" class="edge">
<title>Node2&#45;&gt;Node3</title>
<path fill="none" stroke="midnightblue" d="M63.81,-15.5C54.6,-15.5 45.74,-15.5 38.42,-15.5"/>
<polygon fill="midnightblue" stroke="midnightblue" points="63.87,-19 73.87,-15.5 63.87,-12 63.87,-19"/>
</g>
</g>
</svg>
