<?xml version="1.0" encoding="UTF-8" standalone="no"?>
<!DOCTYPE svg PUBLIC "-//W3C//DTD SVG 1.1//EN"
 "http://www.w3.org/Graphics/SVG/1.1/DTD/svg11.dtd">
<!-- Generated by graphviz version 2.43.0 (0)
 -->
<!-- Title: test::testGraphPartitioning Pages: 1 -->
<svg width="469pt" height="236pt"
 viewBox="0.00 0.00 469.00 236.00" xmlns="http://www.w3.org/2000/svg" xmlns:xlink="http://www.w3.org/1999/xlink">
<g id="graph0" class="graph" transform="scale(1 1) rotate(0) translate(4 232)">
<title>test::testGraphPartitioning</title>
<!-- Node1 -->
<g id="Node000001" class="node">
<title>Node1</title>
<g id="a_Node000001"><a xlink:title="Tests metis partitioning of graph from a 2&#45;D mesh with nonlocal interaction.">
<polygon fill="#999999" stroke="#666666" points="131,-123.5 0,-123.5 0,-104.5 131,-104.5 131,-123.5"/>
<text text-anchor="middle" x="65.5" y="-111.5" font-family="Arial" font-size="10.00">test::testGraphPartitioning</text>
</a>
</g>
</g>
<!-- Node2 -->
<g id="Node000002" class="node">
<title>Node2</title>
<g id="a_Node000002"><a xlink:href="namespacegeometry.html#aa6be622d915e92b3547e0dbb35c4b156" target="_top" xlink:title="Partitions the nodes based on node neighborlist supplied. Function first creates a graph with nodes a...">
<polygon fill="white" stroke="#666666" points="309,-228 170,-228 170,-198 309,-198 309,-228"/>
<text text-anchor="start" x="178" y="-216" font-family="Arial" font-size="10.00">geometry::computeNonlocal</text>
<text text-anchor="middle" x="239.5" y="-205" font-family="Arial" font-size="10.00">Neighborhood</text>
</a>
</g>
</g>
<!-- Node1&#45;&gt;Node2 -->
<g id="edge1_Node000001_Node000002" class="edge">
<title>Node1&#45;&gt;Node2</title>
<g id="a_edge1_Node000001_Node000002"><a xlink:title=" ">
<path fill="none" stroke="#63b8ff" d="M76.89,-123.54C94.33,-139.13 131.13,-170.21 167,-189 170.33,-190.74 173.81,-192.4 177.36,-193.96"/>
<polygon fill="#63b8ff" stroke="#63b8ff" points="176.32,-197.32 186.9,-197.88 178.98,-190.84 176.32,-197.32"/>
</a>
</g>
</g>
<!-- Node3 -->
<g id="Node000003" class="node">
<title>Node3</title>
<g id="a_Node000003"><a xlink:href="namespacefe.html#abe6bbc09314c74619abaa8c13f489335" target="_top" xlink:title="Creates uniform mesh for rectangle/cuboid domain.">
<polygon fill="white" stroke="#666666" points="297.5,-179.5 181.5,-179.5 181.5,-160.5 297.5,-160.5 297.5,-179.5"/>
<text text-anchor="middle" x="239.5" y="-167.5" font-family="Arial" font-size="10.00">fe::createUniformMesh</text>
</a>
</g>
</g>
<!-- Node1&#45;&gt;Node3 -->
<g id="edge2_Node000001_Node000003" class="edge">
<title>Node1&#45;&gt;Node3</title>
<g id="a_edge2_Node000001_Node000003"><a xlink:title=" ">
<path fill="none" stroke="#63b8ff" d="M89.39,-123.52C109.59,-131.71 139.95,-143.51 167,-152 173.48,-154.03 180.35,-156 187.17,-157.83"/>
<polygon fill="#63b8ff" stroke="#63b8ff" points="186.5,-161.28 197.06,-160.43 188.27,-154.51 186.5,-161.28"/>
</a>
</g>
</g>
<!-- Node4 -->
<g id="Node000004" class="node">
<title>Node4</title>
<g id="a_Node000004"><a xlink:href="namespaceutil_1_1io.html#af88549ade477a5034a8f720753d9f2f9" target="_top" xlink:title="Get filename removing path from the string Source &#45; https://stackoverflow.com/a/24386991.">
<polygon fill="white" stroke="#666666" points="312,-142.5 167,-142.5 167,-123.5 312,-123.5 312,-142.5"/>
<text text-anchor="middle" x="239.5" y="-130.5" font-family="Arial" font-size="10.00">util::io::getFilenameFromPath</text>
</a>
</g>
</g>
<!-- Node1&#45;&gt;Node4 -->
<g id="edge3_Node000001_Node000004" class="edge">
<title>Node1&#45;&gt;Node4</title>
<g id="a_edge3_Node000001_Node000004"><a xlink:title=" ">
<path fill="none" stroke="#63b8ff" d="M131.04,-121.13C139.46,-122.06 148.18,-123.02 156.85,-123.98"/>
<polygon fill="#63b8ff" stroke="#63b8ff" points="156.64,-127.48 166.97,-125.1 157.41,-120.52 156.64,-127.48"/>
</a>
</g>
</g>
<!-- Node5 -->
<g id="Node000005" class="node">
<title>Node5</title>
<g id="a_Node000005"><a xlink:href="namespacefe.html#abf9d43e85d09aafbc240f14cd9508ab4" target="_top" xlink:title="Partitions the nodes based on node neighborlist supplied. Function first creates a graph with nodes a...">
<polygon fill="white" stroke="#666666" points="298,-105.5 181,-105.5 181,-86.5 298,-86.5 298,-105.5"/>
<text text-anchor="middle" x="239.5" y="-93.5" font-family="Arial" font-size="10.00">fe::metisGraphPartition</text>
</a>
</g>
</g>
<!-- Node1&#45;&gt;Node5 -->
<g id="edge4_Node000001_Node000005" class="edge">
<title>Node1&#45;&gt;Node5</title>
<g id="a_edge4_Node000001_Node000005"><a xlink:title=" ">
<path fill="none" stroke="#63b8ff" d="M131.04,-107.25C143.97,-105.89 157.6,-104.47 170.65,-103.1"/>
<polygon fill="#63b8ff" stroke="#63b8ff" points="171.38,-106.54 180.96,-102.02 170.65,-99.58 171.38,-106.54"/>
</a>
</g>
</g>
<!-- Node6 -->
<g id="Node000006" class="node">
<title>Node6</title>
<g id="a_Node000006"><a xlink:href="namespaceutil_1_1methods.html#aaf9cfac99073d034d41e10d4d17e59a2" target="_top" xlink:title="Returns difference between two times.">
<polygon fill="white" stroke="#666666" points="461,-86.5 348,-86.5 348,-67.5 461,-67.5 461,-86.5"/>
<text text-anchor="middle" x="404.5" y="-74.5" font-family="Arial" font-size="10.00">util::methods::timeDiff</text>
</a>
</g>
</g>
<!-- Node1&#45;&gt;Node6 -->
<g id="edge7_Node000001_Node000006" class="edge">
<title>Node1&#45;&gt;Node6</title>
<g id="a_edge7_Node000001_Node000006"><a xlink:title=" ">
<path fill="none" stroke="#63b8ff" d="M86.73,-104.44C106.64,-95.6 138.16,-83.07 167,-78 223.89,-67.99 289.67,-68.68 337.39,-71.33"/>
<polygon fill="#63b8ff" stroke="#63b8ff" points="337.4,-74.84 347.6,-71.95 337.82,-67.85 337.4,-74.84"/>
</a>
</g>
</g>
<!-- Node7 -->
<g id="Node000007" class="node">
<title>Node7</title>
<g id="a_Node000007"><a xlink:href="namespaceutil_1_1io.html#ab41cbd366c1550587cc6d0bf1a088c5a" target="_top" xlink:title="Remove extension from the filename Source &#45; https://stackoverflow.com/a/24386991.">
<polygon fill="white" stroke="#666666" points="302,-30 177,-30 177,0 302,0 302,-30"/>
<text text-anchor="start" x="185" y="-18" font-family="Arial" font-size="10.00">util::io::removeExtension</text>
<text text-anchor="middle" x="239.5" y="-7" font-family="Arial" font-size="10.00">FromFile</text>
</a>
</g>
</g>
<!-- Node1&#45;&gt;Node7 -->
<g id="edge6_Node000001_Node000007" class="edge">
<title>Node1&#45;&gt;Node7</title>
<g id="a_edge6_Node000001_Node000007"><a xlink:title=" ">
<path fill="none" stroke="#63b8ff" d="M78.31,-104.46C96.54,-90.04 132.98,-62.45 167,-44 173.48,-40.49 180.47,-37.15 187.46,-34.06"/>
<polygon fill="#63b8ff" stroke="#63b8ff" points="189.11,-37.17 196.94,-30.03 186.37,-30.73 189.11,-37.17"/>
</a>
</g>
</g>
<!-- Node5&#45;&gt;Node6 -->
<g id="edge5_Node000005_Node000006" class="edge">
<title>Node5&#45;&gt;Node6</title>
<g id="a_edge5_Node000005_Node000006"><a xlink:title=" ">
<path fill="none" stroke="#63b8ff" d="M298.43,-89.25C311.13,-87.77 324.68,-86.19 337.67,-84.67"/>
<polygon fill="#63b8ff" stroke="#63b8ff" points="338.42,-88.11 347.95,-83.48 337.61,-81.16 338.42,-88.11"/>
</a>
</g>
</g>
</g>
</svg>
