<?xml version="1.0" encoding="UTF-8" standalone="no"?>
<!DOCTYPE svg PUBLIC "-//W3C//DTD SVG 1.1//EN"
 "http://www.w3.org/Graphics/SVG/1.1/DTD/svg11.dtd">
<!-- Generated by graphviz version 2.43.0 (0)
 -->
<!-- Title: problem_setup.copy_contact_zone Pages: 1 -->
<svg width="686pt" height="279pt"
 viewBox="0.00 0.00 686.00 279.19" xmlns="http://www.w3.org/2000/svg" xmlns:xlink="http://www.w3.org/1999/xlink">
<g id="graph0" class="graph" transform="scale(1 1) rotate(0) translate(4 275.19)">
<title>problem_setup.copy_contact_zone</title>
<!-- Node1 -->
<g id="node1" class="node">
<title>Node1</title>
<g id="a_node1"><a xlink:title=" ">
<polygon fill="#bfbfbf" stroke="black" points="574,-133.69 574,-163.69 678,-163.69 678,-133.69 574,-133.69"/>
<text text-anchor="start" x="582" y="-151.69" font-family="Arial" font-size="10.00">problem_setup.copy</text>
<text text-anchor="middle" x="626" y="-140.69" font-family="Arial" font-size="10.00">_contact_zone</text>
</a>
</g>
</g>
<!-- Node2 -->
<g id="node2" class="node">
<title>Node2</title>
<g id="a_node2"><a xlink:href="namespaceproblem__setup.html#a87c8571f538ea8ab692816e1388af758" target="_top" xlink:title=" ">
<polygon fill="none" stroke="black" points="395,-240.69 395,-270.69 538,-270.69 538,-240.69 395,-240.69"/>
<text text-anchor="start" x="403" y="-258.69" font-family="Arial" font-size="10.00">problem_setup.generate</text>
<text text-anchor="middle" x="466.5" y="-247.69" font-family="Arial" font-size="10.00">_cylindrical_wall_gmsh_input</text>
</a>
</g>
</g>
<!-- Node1&#45;&gt;Node2 -->
<g id="edge1" class="edge">
<title>Node1&#45;&gt;Node2</title>
<path fill="none" stroke="midnightblue" d="M603.7,-171.12C587,-187.77 562.55,-210.19 538,-225.69 529.12,-231.31 519,-236.31 509.26,-240.55"/>
<polygon fill="midnightblue" stroke="midnightblue" points="606.27,-173.5 610.8,-163.92 601.28,-168.58 606.27,-173.5"/>
</g>
<!-- Node3 -->
<g id="node3" class="node">
<title>Node3</title>
<g id="a_node3"><a xlink:href="namespaceproblem__setup.html#aa86d439a2a3be267e8af3fe687016583" target="_top" xlink:title=" ">
<polygon fill="none" stroke="black" points="0,-92.69 0,-122.69 139,-122.69 139,-92.69 0,-92.69"/>
<text text-anchor="start" x="8" y="-110.69" font-family="Arial" font-size="10.00">problem_setup.generate</text>
<text text-anchor="middle" x="69.5" y="-99.69" font-family="Arial" font-size="10.00">_rect_container_gmsh_input</text>
</a>
</g>
</g>
<!-- Node1&#45;&gt;Node3 -->
<g id="edge2" class="edge">
<title>Node1&#45;&gt;Node3</title>
<path fill="none" stroke="midnightblue" d="M575.47,-167.01C490.76,-195.43 313.74,-241.99 175,-192.69 136,-178.83 100.97,-143.51 83.07,-123.02"/>
<polygon fill="midnightblue" stroke="midnightblue" points="576.76,-170.27 585.09,-163.73 574.5,-163.65 576.76,-170.27"/>
</g>
<!-- Node4 -->
<g id="node4" class="node">
<title>Node4</title>
<g id="a_node4"><a xlink:href="namespaceproblem__setup.html#ab2d86f4fe187ef9b78d1ad4ea438b98b" target="_top" xlink:title=" ">
<polygon fill="none" stroke="black" points="175,-142.19 175,-183.19 359,-183.19 359,-142.19 175,-142.19"/>
<text text-anchor="start" x="183" y="-171.19" font-family="Arial" font-size="10.00">problem_setup.generate</text>
<text text-anchor="start" x="183" y="-160.19" font-family="Arial" font-size="10.00">_rectangle_with_protrusion</text>
<text text-anchor="middle" x="267" y="-149.19" font-family="Arial" font-size="10.00">_and_opening_wall_gmsh_input_type3</text>
</a>
</g>
</g>
<!-- Node1&#45;&gt;Node4 -->
<g id="edge3" class="edge">
<title>Node1&#45;&gt;Node4</title>
<path fill="none" stroke="midnightblue" d="M563.68,-151.1C507.39,-153.31 423.25,-156.61 359.1,-159.12"/>
<polygon fill="midnightblue" stroke="midnightblue" points="564,-154.59 573.85,-150.7 563.72,-147.59 564,-154.59"/>
</g>
<!-- Node5 -->
<g id="node5" class="node">
<title>Node5</title>
<g id="a_node5"><a xlink:href="namespaceproblem__setup.html#ad0951de1e260620b256ecd25ed5d8e5a" target="_top" xlink:title=" ">
<polygon fill="none" stroke="black" points="409,-21.69 409,-51.69 524,-51.69 524,-21.69 409,-21.69"/>
<text text-anchor="start" x="417" y="-39.69" font-family="Arial" font-size="10.00">problem_setup.particle</text>
<text text-anchor="middle" x="466.5" y="-28.69" font-family="Arial" font-size="10.00">_locations</text>
</a>
</g>
</g>
<!-- Node1&#45;&gt;Node5 -->
<g id="edge5" class="edge">
<title>Node1&#45;&gt;Node5</title>
<path fill="none" stroke="midnightblue" d="M607.37,-125.6C591.24,-105.89 565.72,-78.06 538,-60.69 532.63,-57.33 526.73,-54.38 520.71,-51.8"/>
<polygon fill="midnightblue" stroke="midnightblue" points="604.71,-127.88 613.69,-133.5 610.18,-123.5 604.71,-127.88"/>
</g>
<!-- Node6 -->
<g id="node6" class="node">
<title>Node6</title>
<g id="a_node6"><a xlink:href="namespaceproblem__setup.html#aecb6453b01b712d9b03efbcdf8f317e5" target="_top" xlink:title=" ">
<polygon fill="none" stroke="black" points="207.5,-92.69 207.5,-122.69 326.5,-122.69 326.5,-92.69 207.5,-92.69"/>
<text text-anchor="start" x="215.5" y="-110.69" font-family="Arial" font-size="10.00">problem_setup.serialize</text>
<text text-anchor="middle" x="267" y="-99.69" font-family="Arial" font-size="10.00">_matrix_list</text>
</a>
</g>
</g>
<!-- Node1&#45;&gt;Node6 -->
<g id="edge6" class="edge">
<title>Node1&#45;&gt;Node6</title>
<path fill="none" stroke="midnightblue" d="M563.54,-141.64C497.14,-134.01 392.11,-121.95 326.77,-114.44"/>
<polygon fill="midnightblue" stroke="midnightblue" points="563.52,-145.16 573.85,-142.82 564.32,-138.2 563.52,-145.16"/>
</g>
<!-- Node7 -->
<g id="node7" class="node">
<title>Node7</title>
<g id="a_node7"><a xlink:href="namespaceproblem__setup.html#a537cfa64f80968083b662a6a6a6174e6" target="_top" xlink:title=" ">
<polygon fill="none" stroke="black" points="414.5,-70.69 414.5,-100.69 518.5,-100.69 518.5,-70.69 414.5,-70.69"/>
<text text-anchor="start" x="422.5" y="-88.69" font-family="Arial" font-size="10.00">problem_setup.write</text>
<text text-anchor="middle" x="466.5" y="-77.69" font-family="Arial" font-size="10.00">_cir_line_geo</text>
</a>
</g>
</g>
<!-- Node1&#45;&gt;Node7 -->
<g id="edge8" class="edge">
<title>Node1&#45;&gt;Node7</title>
<path fill="none" stroke="midnightblue" d="M577.94,-129.87C554.69,-120.57 527.02,-109.5 505.19,-100.77"/>
<polygon fill="midnightblue" stroke="midnightblue" points="576.69,-133.14 587.27,-133.6 579.29,-126.64 576.69,-133.14"/>
</g>
<!-- Node4&#45;&gt;Node3 -->
<g id="edge4" class="edge">
<title>Node4&#45;&gt;Node3</title>
<path fill="none" stroke="midnightblue" d="M183.17,-139.39C163.13,-133.75 142.24,-127.88 123.96,-122.73"/>
<polygon fill="midnightblue" stroke="midnightblue" points="182.35,-142.8 192.93,-142.14 184.25,-136.06 182.35,-142.8"/>
</g>
<!-- Node6&#45;&gt;Node3 -->
<g id="edge7" class="edge">
<title>Node6&#45;&gt;Node3</title>
<path fill="none" stroke="midnightblue" d="M197.33,-107.69C178.45,-107.69 157.97,-107.69 139.09,-107.69"/>
<polygon fill="midnightblue" stroke="midnightblue" points="197.34,-111.19 207.34,-107.69 197.34,-104.19 197.34,-111.19"/>
</g>
<!-- Node7&#45;&gt;Node3 -->
<g id="edge9" class="edge">
<title>Node7&#45;&gt;Node3</title>
<path fill="none" stroke="midnightblue" d="M405.34,-66.62C401.75,-64.8 398.27,-62.82 395,-60.69 375.5,-48.01 380.37,-31.89 359,-22.69 283.88,9.62 252.06,4.69 175,-22.69 136,-36.55 100.97,-71.88 83.07,-92.37"/>
<polygon fill="midnightblue" stroke="midnightblue" points="403.9,-69.81 414.44,-70.86 406.85,-63.47 403.9,-69.81"/>
</g>
<!-- Node7&#45;&gt;Node4 -->
<g id="edge12" class="edge">
<title>Node7&#45;&gt;Node4</title>
<path fill="none" stroke="midnightblue" d="M423.03,-104.95C403.65,-113.51 380.32,-123.47 359,-131.69 349.81,-135.24 340.03,-138.79 330.4,-142.17"/>
<polygon fill="midnightblue" stroke="midnightblue" points="424.48,-108.14 432.2,-100.88 421.64,-101.74 424.48,-108.14"/>
</g>
<!-- Node7&#45;&gt;Node6 -->
<g id="edge13" class="edge">
<title>Node7&#45;&gt;Node6</title>
<path fill="none" stroke="midnightblue" d="M404.37,-92.5C379.6,-95.26 351.1,-98.44 326.59,-101.17"/>
<polygon fill="midnightblue" stroke="midnightblue" points="404.83,-95.97 414.38,-91.39 404.06,-89.02 404.83,-95.97"/>
</g>
<!-- Node8 -->
<g id="node8" class="node">
<title>Node8</title>
<g id="a_node8"><a xlink:href="namespaceproblem__setup.html#af2a3517f0f6e0d54303c7b67043b3ef6" target="_top" xlink:title=" ">
<polygon fill="none" stroke="black" points="175,-32.19 175,-73.19 359,-73.19 359,-32.19 175,-32.19"/>
<text text-anchor="start" x="183" y="-61.19" font-family="Arial" font-size="10.00">problem_setup.generate</text>
<text text-anchor="start" x="183" y="-50.19" font-family="Arial" font-size="10.00">_rectangle_with_protrusion</text>
<text text-anchor="middle" x="267" y="-39.19" font-family="Arial" font-size="10.00">_and_opening_wall_gmsh_input_type2</text>
</a>
</g>
</g>
<!-- Node7&#45;&gt;Node8 -->
<g id="edge10" class="edge">
<title>Node7&#45;&gt;Node8</title>
<path fill="none" stroke="midnightblue" d="M404.21,-75.45C389.92,-73.06 374.39,-70.47 359.11,-67.92"/>
<polygon fill="midnightblue" stroke="midnightblue" points="403.94,-78.96 414.38,-77.15 405.1,-72.05 403.94,-78.96"/>
</g>
<!-- Node8&#45;&gt;Node3 -->
<g id="edge11" class="edge">
<title>Node8&#45;&gt;Node3</title>
<path fill="none" stroke="midnightblue" d="M183.17,-76C163.13,-81.63 142.24,-87.51 123.96,-92.65"/>
<polygon fill="midnightblue" stroke="midnightblue" points="184.25,-79.33 192.93,-73.25 182.35,-72.59 184.25,-79.33"/>
</g>
</g>
</svg>
