<?xml version="1.0" encoding="UTF-8" standalone="no"?>
<!DOCTYPE svg PUBLIC "-//W3C//DTD SVG 1.1//EN"
 "http://www.w3.org/Graphics/SVG/1.1/DTD/svg11.dtd">
<!-- Generated by graphviz version 2.43.0 (0)
 -->
<!-- Title: util::getCenter Pages: 1 -->
<svg width="560pt" height="374pt"
 viewBox="0.00 0.00 560.00 374.00" xmlns="http://www.w3.org/2000/svg" xmlns:xlink="http://www.w3.org/1999/xlink">
<g id="graph0" class="graph" transform="scale(1 1) rotate(0) translate(4 370)">
<title>util::getCenter</title>
<!-- Node1 -->
<g id="Node000001" class="node">
<title>Node1</title>
<g id="a_Node000001"><a xlink:title="Returns center point.">
<polygon fill="#999999" stroke="#666666" points="552,-115.5 474,-115.5 474,-96.5 552,-96.5 552,-115.5"/>
<text text-anchor="middle" x="513" y="-103.5" font-family="Arial" font-size="10.00">util::getCenter</text>
</a>
</g>
</g>
<!-- Node2 -->
<g id="Node000002" class="node">
<title>Node2</title>
<g id="a_Node000002"><a xlink:href="namespaceutil.html#a21a4c0c512c91e3de03f432d304dd4bd" target="_top" xlink:title="Checks if given two boxes are within given distance from each other.">
<polygon fill="white" stroke="#666666" points="267.5,-192.5 169.5,-192.5 169.5,-173.5 267.5,-173.5 267.5,-192.5"/>
<text text-anchor="middle" x="218.5" y="-180.5" font-family="Arial" font-size="10.00">util::areBoxesNear</text>
</a>
</g>
</g>
<!-- Node1&#45;&gt;Node2 -->
<g id="edge1_Node000001_Node000002" class="edge">
<title>Node1&#45;&gt;Node2</title>
<g id="a_edge1_Node000001_Node000002"><a xlink:title=" ">
<path fill="none" stroke="#63b8ff" d="M489.97,-121.29C475.76,-130.43 456.52,-141.5 438,-148 381.45,-167.85 312.68,-176.5 267.59,-180.24"/>
<polygon fill="#63b8ff" stroke="#63b8ff" points="492.12,-124.06 498.53,-115.62 488.26,-118.22 492.12,-124.06"/>
</a>
</g>
</g>
<!-- Node11 -->
<g id="Node000011" class="node">
<title>Node11</title>
<g id="a_Node000011"><a xlink:href="namespaceutil.html#af6ab7e8072282977994d4c13e470dfc7" target="_top" xlink:title="Computes the radius of smallest circle/sphere which can have the box inside.">
<polygon fill="white" stroke="#666666" points="438,-121 311,-121 311,-91 438,-91 438,-121"/>
<text text-anchor="start" x="319" y="-109" font-family="Arial" font-size="10.00">util::circumscribedRadius</text>
<text text-anchor="middle" x="374.5" y="-98" font-family="Arial" font-size="10.00">InBox</text>
</a>
</g>
</g>
<!-- Node1&#45;&gt;Node11 -->
<g id="edge10_Node000001_Node000011" class="edge">
<title>Node1&#45;&gt;Node11</title>
<g id="a_edge10_Node000001_Node000011"><a xlink:title=" ">
<path fill="none" stroke="#63b8ff" d="M463.76,-106C455.47,-106 446.76,-106 438.16,-106"/>
<polygon fill="#63b8ff" stroke="#63b8ff" points="463.98,-109.5 473.98,-106 463.98,-102.5 463.98,-109.5"/>
</a>
</g>
</g>
<!-- Node12 -->
<g id="Node000012" class="node">
<title>Node12</title>
<g id="a_Node000012"><a xlink:href="classutil_1_1geometry_1_1Circle.html#a26974c271cfd557a362709cfadca18a4" target="_top" xlink:title="Checks if box is within given distance of this object.">
<polygon fill="white" stroke="#666666" points="272,-152 165,-152 165,-122 272,-122 272,-152"/>
<text text-anchor="start" x="173" y="-140" font-family="Arial" font-size="10.00">util::geometry::Circle</text>
<text text-anchor="middle" x="218.5" y="-129" font-family="Arial" font-size="10.00">::isNear</text>
</a>
</g>
</g>
<!-- Node1&#45;&gt;Node12 -->
<g id="edge14_Node000001_Node000012" class="edge">
<title>Node1&#45;&gt;Node12</title>
<g id="a_edge14_Node000001_Node000012"><a xlink:title=" ">
<path fill="none" stroke="#63b8ff" d="M478.83,-118.96C466.24,-123.29 451.65,-127.62 438,-130 381.92,-139.79 316.54,-140.51 272.02,-139.43"/>
<polygon fill="#63b8ff" stroke="#63b8ff" points="480.2,-122.19 488.44,-115.52 477.84,-115.6 480.2,-122.19"/>
</a>
</g>
</g>
<!-- Node13 -->
<g id="Node000013" class="node">
<title>Node13</title>
<g id="a_Node000013"><a xlink:href="classutil_1_1geometry_1_1Sphere.html#af568776ec54d2ef7c99af31851ce0107" target="_top" xlink:title="Checks if box is within given distance of this object.">
<polygon fill="white" stroke="#666666" points="275,-97 162,-97 162,-67 275,-67 275,-97"/>
<text text-anchor="start" x="170" y="-85" font-family="Arial" font-size="10.00">util::geometry::Sphere</text>
<text text-anchor="middle" x="218.5" y="-74" font-family="Arial" font-size="10.00">::isNear</text>
</a>
</g>
</g>
<!-- Node1&#45;&gt;Node13 -->
<g id="edge15_Node000001_Node000013" class="edge">
<title>Node1&#45;&gt;Node13</title>
<g id="a_edge15_Node000001_Node000013"><a xlink:title=" ">
<path fill="none" stroke="#63b8ff" d="M479.16,-92.9C466.51,-88.51 451.79,-84.18 438,-82 383.11,-73.32 319.49,-74.58 275.1,-77.24"/>
<polygon fill="#63b8ff" stroke="#63b8ff" points="478.21,-96.28 488.8,-96.4 480.59,-89.7 478.21,-96.28"/>
</a>
</g>
</g>
<!-- Node14 -->
<g id="Node000014" class="node">
<title>Node14</title>
<g id="a_Node000014"><a xlink:href="namespacetest.html#ad3c8cad23ca76bc12534c5487df9a25f" target="_top" xlink:title="Test methods">
<polygon fill="white" stroke="#666666" points="428.5,-34.5 320.5,-34.5 320.5,-15.5 428.5,-15.5 428.5,-34.5"/>
<text text-anchor="middle" x="374.5" y="-22.5" font-family="Arial" font-size="10.00">test::testUtilMethods</text>
</a>
</g>
</g>
<!-- Node1&#45;&gt;Node14 -->
<g id="edge16_Node000001_Node000014" class="edge">
<title>Node1&#45;&gt;Node14</title>
<g id="a_edge16_Node000001_Node000014"><a xlink:title=" ">
<path fill="none" stroke="#63b8ff" d="M494.03,-89.75C479.65,-77.37 458.57,-60.55 438,-49 427.86,-43.31 416.11,-38.4 405.55,-34.54"/>
<polygon fill="#63b8ff" stroke="#63b8ff" points="491.84,-92.49 501.66,-96.45 496.45,-87.23 491.84,-92.49"/>
</a>
</g>
</g>
<!-- Node3 -->
<g id="Node000003" class="node">
<title>Node3</title>
<g id="a_Node000003"><a xlink:href="classutil_1_1geometry_1_1Triangle.html#a48ae3ed64cecfc395906a1bf68bf973d" target="_top" xlink:title="Checks if box is within given distance of this object.">
<polygon fill="white" stroke="#666666" points="121,-366 5,-366 5,-336 121,-336 121,-366"/>
<text text-anchor="start" x="13" y="-354" font-family="Arial" font-size="10.00">util::geometry::Triangle</text>
<text text-anchor="middle" x="63" y="-343" font-family="Arial" font-size="10.00">::isNear</text>
</a>
</g>
</g>
<!-- Node2&#45;&gt;Node3 -->
<g id="edge2_Node000002_Node000003" class="edge">
<title>Node2&#45;&gt;Node3</title>
<g id="a_edge2_Node000002_Node000003"><a xlink:title=" ">
<path fill="none" stroke="#63b8ff" d="M210.1,-201.98C197.34,-232.41 168.4,-292.21 126,-327 121.9,-330.37 117.26,-333.3 112.43,-335.84"/>
<polygon fill="#63b8ff" stroke="#63b8ff" points="213.42,-203.12 213.94,-192.53 206.93,-200.48 213.42,-203.12"/>
</a>
</g>
</g>
<!-- Node4 -->
<g id="Node000004" class="node">
<title>Node4</title>
<g id="a_Node000004"><a xlink:href="classutil_1_1geometry_1_1Square.html#aeca313e91b6ebde43320b3a620df7341" target="_top" xlink:title="Checks if box is within given distance of this object.">
<polygon fill="white" stroke="#666666" points="119.5,-318 6.5,-318 6.5,-288 119.5,-288 119.5,-318"/>
<text text-anchor="start" x="14.5" y="-306" font-family="Arial" font-size="10.00">util::geometry::Square</text>
<text text-anchor="middle" x="63" y="-295" font-family="Arial" font-size="10.00">::isNear</text>
</a>
</g>
</g>
<!-- Node2&#45;&gt;Node4 -->
<g id="edge3_Node000002_Node000004" class="edge">
<title>Node2&#45;&gt;Node4</title>
<g id="a_edge3_Node000002_Node000004"><a xlink:title=" ">
<path fill="none" stroke="#63b8ff" d="M204.65,-200.62C188.43,-221.79 158.66,-257.16 126,-279 121.01,-282.34 115.49,-285.31 109.86,-287.92"/>
<polygon fill="#63b8ff" stroke="#63b8ff" points="207.55,-202.6 210.75,-192.5 201.95,-198.4 207.55,-202.6"/>
</a>
</g>
</g>
<!-- Node5 -->
<g id="Node000005" class="node">
<title>Node5</title>
<g id="a_Node000005"><a xlink:href="classutil_1_1geometry_1_1Rectangle.html#ab9e5e172e1a2542eb606f211562892ac" target="_top" xlink:title="Checks if box is within given distance of this object.">
<polygon fill="white" stroke="#666666" points="126,-270 0,-270 0,-240 126,-240 126,-270"/>
<text text-anchor="start" x="8" y="-258" font-family="Arial" font-size="10.00">util::geometry::Rectangle</text>
<text text-anchor="middle" x="63" y="-247" font-family="Arial" font-size="10.00">::isNear</text>
</a>
</g>
</g>
<!-- Node2&#45;&gt;Node5 -->
<g id="edge4_Node000002_Node000005" class="edge">
<title>Node2&#45;&gt;Node5</title>
<g id="a_edge4_Node000002_Node000005"><a xlink:title=" ">
<path fill="none" stroke="#63b8ff" d="M191.78,-197.5C173.66,-207.46 148.67,-220.71 126,-231 119.27,-234.05 112.04,-237.08 104.96,-239.9"/>
<polygon fill="#63b8ff" stroke="#63b8ff" points="193.54,-200.52 200.59,-192.62 190.14,-194.4 193.54,-200.52"/>
</a>
</g>
</g>
<!-- Node6 -->
<g id="Node000006" class="node">
<title>Node6</title>
<g id="a_Node000006"><a xlink:href="classutil_1_1geometry_1_1Hexagon.html#a22113f305ef928c9bf09b0817a68ea8f" target="_top" xlink:title="Checks if box is within given distance of this object.">
<polygon fill="white" stroke="#666666" points="123.5,-222 2.5,-222 2.5,-192 123.5,-192 123.5,-222"/>
<text text-anchor="start" x="10.5" y="-210" font-family="Arial" font-size="10.00">util::geometry::Hexagon</text>
<text text-anchor="middle" x="63" y="-199" font-family="Arial" font-size="10.00">::isNear</text>
</a>
</g>
</g>
<!-- Node2&#45;&gt;Node6 -->
<g id="edge5_Node000002_Node000006" class="edge">
<title>Node2&#45;&gt;Node6</title>
<g id="a_edge5_Node000002_Node000006"><a xlink:title=" ">
<path fill="none" stroke="#63b8ff" d="M159.28,-192.1C147.6,-193.93 135.31,-195.85 123.59,-197.68"/>
<polygon fill="#63b8ff" stroke="#63b8ff" points="160.01,-195.53 169.35,-190.53 158.93,-188.61 160.01,-195.53"/>
</a>
</g>
</g>
<!-- Node7 -->
<g id="Node000007" class="node">
<title>Node7</title>
<g id="a_Node000007"><a xlink:href="classutil_1_1geometry_1_1Drum2D.html#a6b4a0ee14758e9354d6e3566e74edfc9" target="_top" xlink:title="Checks if box is within given distance of this object.">
<polygon fill="white" stroke="#666666" points="122.5,-174 3.5,-174 3.5,-144 122.5,-144 122.5,-174"/>
<text text-anchor="start" x="11.5" y="-162" font-family="Arial" font-size="10.00">util::geometry::Drum2D</text>
<text text-anchor="middle" x="63" y="-151" font-family="Arial" font-size="10.00">::isNear</text>
</a>
</g>
</g>
<!-- Node2&#45;&gt;Node7 -->
<g id="edge6_Node000002_Node000007" class="edge">
<title>Node2&#45;&gt;Node7</title>
<g id="a_edge6_Node000002_Node000007"><a xlink:title=" ">
<path fill="none" stroke="#63b8ff" d="M159.45,-173.92C147.45,-172.05 134.79,-170.07 122.76,-168.19"/>
<polygon fill="#63b8ff" stroke="#63b8ff" points="158.93,-177.39 169.35,-175.47 160.01,-170.47 158.93,-177.39"/>
</a>
</g>
</g>
<!-- Node8 -->
<g id="Node000008" class="node">
<title>Node8</title>
<g id="a_Node000008"><a xlink:href="classutil_1_1geometry_1_1Cube.html#aac5be48370823593083e6da438bdb962" target="_top" xlink:title="Checks if box is within given distance of this object.">
<polygon fill="white" stroke="#666666" points="115.5,-126 10.5,-126 10.5,-96 115.5,-96 115.5,-126"/>
<text text-anchor="start" x="18.5" y="-114" font-family="Arial" font-size="10.00">util::geometry::Cube</text>
<text text-anchor="middle" x="63" y="-103" font-family="Arial" font-size="10.00">::isNear</text>
</a>
</g>
</g>
<!-- Node2&#45;&gt;Node8 -->
<g id="edge7_Node000002_Node000008" class="edge">
<title>Node2&#45;&gt;Node8</title>
<g id="a_edge7_Node000002_Node000008"><a xlink:title=" ">
<path fill="none" stroke="#63b8ff" d="M180,-169.61C173.86,-167 167.67,-164.11 162,-161 144.69,-151.51 143.34,-144.42 126,-135 120.12,-131.81 113.72,-128.83 107.34,-126.13"/>
<polygon fill="#63b8ff" stroke="#63b8ff" points="178.92,-172.95 189.5,-173.46 181.54,-166.46 178.92,-172.95"/>
</a>
</g>
</g>
<!-- Node9 -->
<g id="Node000009" class="node">
<title>Node9</title>
<g id="a_Node000009"><a xlink:href="classutil_1_1geometry_1_1Cuboid.html#ac88433cc43e94f4f1a399ba8776e4986" target="_top" xlink:title="Checks if box is within given distance of this object.">
<polygon fill="white" stroke="#666666" points="119.5,-78 6.5,-78 6.5,-48 119.5,-48 119.5,-78"/>
<text text-anchor="start" x="14.5" y="-66" font-family="Arial" font-size="10.00">util::geometry::Cuboid</text>
<text text-anchor="middle" x="63" y="-55" font-family="Arial" font-size="10.00">::isNear</text>
</a>
</g>
</g>
<!-- Node2&#45;&gt;Node9 -->
<g id="edge8_Node000002_Node000009" class="edge">
<title>Node2&#45;&gt;Node9</title>
<g id="a_edge8_Node000002_Node000009"><a xlink:title=" ">
<path fill="none" stroke="#63b8ff" d="M173.06,-169C169.07,-166.71 165.3,-164.06 162,-161 135.18,-136.13 152.92,-111.76 126,-87 122.26,-83.56 117.98,-80.6 113.45,-78.04"/>
<polygon fill="#63b8ff" stroke="#63b8ff" points="171.54,-172.16 182.05,-173.49 174.66,-165.89 171.54,-172.16"/>
</a>
</g>
</g>
<!-- Node10 -->
<g id="Node000010" class="node">
<title>Node10</title>
<g id="a_Node000010"><a xlink:href="classutil_1_1geometry_1_1Cylinder.html#a5e2547782e3c159abff3977dd872a8cc" target="_top" xlink:title="Checks if box is within given distance of this object.">
<polygon fill="white" stroke="#666666" points="122,-30 4,-30 4,0 122,0 122,-30"/>
<text text-anchor="start" x="12" y="-18" font-family="Arial" font-size="10.00">util::geometry::Cylinder</text>
<text text-anchor="middle" x="63" y="-7" font-family="Arial" font-size="10.00">::isNear</text>
</a>
</g>
</g>
<!-- Node2&#45;&gt;Node10 -->
<g id="edge9_Node000002_Node000010" class="edge">
<title>Node2&#45;&gt;Node10</title>
<g id="a_edge9_Node000002_Node000010"><a xlink:title=" ">
<path fill="none" stroke="#63b8ff" d="M170.73,-168.4C167.53,-166.26 164.56,-163.81 162,-161 123.87,-119.26 164.29,-80.59 126,-39 122.87,-35.6 119.21,-32.68 115.25,-30.17"/>
<polygon fill="#63b8ff" stroke="#63b8ff" points="169.21,-171.56 179.64,-173.39 172.62,-165.45 169.21,-171.56"/>
</a>
</g>
</g>
<!-- Node11&#45;&gt;Node2 -->
<g id="edge11_Node000011_Node000002" class="edge">
<title>Node11&#45;&gt;Node2</title>
<g id="a_edge11_Node000011_Node000002"><a xlink:title=" ">
<path fill="none" stroke="#63b8ff" d="M339.72,-126.32C320.97,-137.22 297.05,-150.53 275,-161 265.64,-165.45 255.12,-169.78 245.78,-173.4"/>
<polygon fill="#63b8ff" stroke="#63b8ff" points="341.62,-129.26 348.47,-121.18 338.08,-123.22 341.62,-129.26"/>
</a>
</g>
</g>
<!-- Node11&#45;&gt;Node12 -->
<g id="edge12_Node000011_Node000012" class="edge">
<title>Node11&#45;&gt;Node12</title>
<g id="a_edge12_Node000011_Node000012"><a xlink:title=" ">
<path fill="none" stroke="#63b8ff" d="M300.86,-120.62C291.2,-122.57 281.46,-124.53 272.23,-126.39"/>
<polygon fill="#63b8ff" stroke="#63b8ff" points="301.75,-124.01 310.86,-118.61 300.37,-117.15 301.75,-124.01"/>
</a>
</g>
</g>
<!-- Node11&#45;&gt;Node13 -->
<g id="edge13_Node000011_Node000013" class="edge">
<title>Node11&#45;&gt;Node13</title>
<g id="a_edge13_Node000011_Node000013"><a xlink:title=" ">
<path fill="none" stroke="#63b8ff" d="M300.8,-94.67C292.18,-93.33 283.48,-91.97 275.15,-90.67"/>
<polygon fill="#63b8ff" stroke="#63b8ff" points="300.44,-98.16 310.86,-96.24 301.52,-91.24 300.44,-98.16"/>
</a>
</g>
</g>
<!-- Node15 -->
<g id="Node000015" class="node">
<title>Node15</title>
<g id="a_Node000015"><a xlink:href="testUtil_8cpp.html#a0ddf1224851353fc92bfbff6f499fa97" target="_top" xlink:title=" ">
<polygon fill="white" stroke="#666666" points="237.5,-34.5 199.5,-34.5 199.5,-15.5 237.5,-15.5 237.5,-34.5"/>
<text text-anchor="middle" x="218.5" y="-22.5" font-family="Arial" font-size="10.00">main</text>
</a>
</g>
</g>
<!-- Node14&#45;&gt;Node15 -->
<g id="edge17_Node000014_Node000015" class="edge">
<title>Node14&#45;&gt;Node15</title>
<g id="a_edge17_Node000014_Node000015"><a xlink:title=" ">
<path fill="none" stroke="#63b8ff" d="M309.82,-25C283.74,-25 255.54,-25 237.72,-25"/>
<polygon fill="#63b8ff" stroke="#63b8ff" points="310.07,-28.5 320.07,-25 310.07,-21.5 310.07,-28.5"/>
</a>
</g>
</g>
</g>
</svg>
