<?xml version="1.0" encoding="UTF-8" standalone="no"?>
<!DOCTYPE svg PUBLIC "-//W3C//DTD SVG 1.1//EN"
 "http://www.w3.org/Graphics/SVG/1.1/DTD/svg11.dtd">
<!-- Generated by graphviz version 2.43.0 (0)
 -->
<!-- Title: problem_setup.generate_moving_rect_wall_gmsh_input Pages: 1 -->
<svg width="877pt" height="782pt"
 viewBox="0.00 0.00 877.00 781.50" xmlns="http://www.w3.org/2000/svg" xmlns:xlink="http://www.w3.org/1999/xlink">
<g id="graph0" class="graph" transform="scale(1 1) rotate(0) translate(4 777.5)">
<title>problem_setup.generate_moving_rect_wall_gmsh_input</title>
<!-- Node1 -->
<g id="node1" class="node">
<title>Node1</title>
<g id="a_node1"><a xlink:title=" ">
<polygon fill="#bfbfbf" stroke="black" points="0,-383 0,-413 153,-413 153,-383 0,-383"/>
<text text-anchor="start" x="8" y="-401" font-family="Arial" font-size="10.00">problem_setup.generate</text>
<text text-anchor="middle" x="76.5" y="-390" font-family="Arial" font-size="10.00">_moving_rect_wall_gmsh_input</text>
</a>
</g>
</g>
<!-- Node2 -->
<g id="node2" class="node">
<title>Node2</title>
<g id="a_node2"><a xlink:href="namespaceproblem__setup.html#ada05bf105b9c97f6a6569fdfad318130" target="_top" xlink:title=" ">
<polygon fill="none" stroke="black" points="217.5,-617 217.5,-647 321.5,-647 321.5,-617 217.5,-617"/>
<text text-anchor="start" x="225.5" y="-635" font-family="Arial" font-size="10.00">problem_setup.copy</text>
<text text-anchor="middle" x="269.5" y="-624" font-family="Arial" font-size="10.00">_contact_zone</text>
</a>
</g>
</g>
<!-- Node1&#45;&gt;Node2 -->
<g id="edge1" class="edge">
<title>Node1&#45;&gt;Node2</title>
<path fill="none" stroke="midnightblue" d="M81.74,-413.14C92.95,-450.51 126.87,-547.97 189,-602 194.59,-606.86 201.04,-610.96 207.8,-614.43"/>
<polygon fill="midnightblue" stroke="midnightblue" points="206.62,-617.74 217.16,-618.76 209.56,-611.38 206.62,-617.74"/>
</g>
<!-- Node3 -->
<g id="node3" class="node">
<title>Node3</title>
<g id="a_node3"><a xlink:href="namespaceproblem__setup.html#af977354e61703cd925c2511fd3ca0858" target="_top" xlink:title=" ">
<polygon fill="none" stroke="black" points="404.5,-606.5 404.5,-625.5 513.5,-625.5 513.5,-606.5 404.5,-606.5"/>
<text text-anchor="middle" x="459" y="-613.5" font-family="Arial" font-size="10.00">problem_setup.get_E</text>
</a>
</g>
</g>
<!-- Node1&#45;&gt;Node3 -->
<g id="edge36" class="edge">
<title>Node1&#45;&gt;Node3</title>
<path fill="none" stroke="midnightblue" d="M84.29,-413.03C98.86,-443.5 136.14,-512.64 189,-548 251.04,-589.5 336.52,-605.67 394.35,-611.98"/>
<polygon fill="midnightblue" stroke="midnightblue" points="394.15,-615.48 404.45,-613.01 394.86,-608.51 394.15,-615.48"/>
</g>
<!-- Node4 -->
<g id="node4" class="node">
<title>Node4</title>
<g id="a_node4"><a xlink:href="namespaceproblem__setup.html#a564e6017e037399c311be8b31653e45d" target="_top" xlink:title=" ">
<polygon fill="none" stroke="black" points="397.5,-568.5 397.5,-587.5 520.5,-587.5 520.5,-568.5 397.5,-568.5"/>
<text text-anchor="middle" x="459" y="-575.5" font-family="Arial" font-size="10.00">problem_setup.get_eff_k</text>
</a>
</g>
</g>
<!-- Node1&#45;&gt;Node4 -->
<g id="edge37" class="edge">
<title>Node1&#45;&gt;Node4</title>
<path fill="none" stroke="midnightblue" d="M88.72,-413.18C107.03,-436.86 145.68,-482.42 189,-507 251.02,-542.19 330.97,-560.4 387.55,-569.52"/>
<polygon fill="midnightblue" stroke="midnightblue" points="387.06,-572.99 397.47,-571.07 388.13,-566.07 387.06,-572.99"/>
</g>
<!-- Node5 -->
<g id="node5" class="node">
<title>Node5</title>
<g id="a_node5"><a xlink:href="namespaceproblem__setup.html#adc274a492cfb30270617c3c66d64c6c4" target="_top" xlink:title=" ">
<polygon fill="none" stroke="black" points="404,-530.5 404,-549.5 514,-549.5 514,-530.5 404,-530.5"/>
<text text-anchor="middle" x="459" y="-537.5" font-family="Arial" font-size="10.00">problem_setup.get_G</text>
</a>
</g>
</g>
<!-- Node1&#45;&gt;Node5 -->
<g id="edge38" class="edge">
<title>Node1&#45;&gt;Node5</title>
<path fill="none" stroke="midnightblue" d="M96.99,-413.07C118.46,-429.02 154.52,-453.91 189,-469 256.07,-498.35 338.01,-517.84 393.71,-528.85"/>
<polygon fill="midnightblue" stroke="midnightblue" points="393.31,-532.34 403.79,-530.81 394.64,-525.46 393.31,-532.34"/>
</g>
<!-- Node9 -->
<g id="node9" class="node">
<title>Node9</title>
<g id="a_node9"><a xlink:href="namespaceproblem__setup.html#a64e067098e447f766d042476ef5abe85" target="_top" xlink:title=" ">
<polygon fill="none" stroke="black" points="214.5,-339 214.5,-369 324.5,-369 324.5,-339 214.5,-339"/>
<text text-anchor="start" x="222.5" y="-357" font-family="Arial" font-size="10.00">problem_setup.create</text>
<text text-anchor="middle" x="269.5" y="-346" font-family="Arial" font-size="10.00">_input_file</text>
</a>
</g>
</g>
<!-- Node1&#45;&gt;Node9 -->
<g id="edge8" class="edge">
<title>Node1&#45;&gt;Node9</title>
<path fill="none" stroke="midnightblue" d="M142.7,-382.98C162.67,-378.38 184.61,-373.33 204.5,-368.74"/>
<polygon fill="midnightblue" stroke="midnightblue" points="205.42,-372.12 214.38,-366.47 203.85,-365.3 205.42,-372.12"/>
</g>
<!-- Node10 -->
<g id="node10" class="node">
<title>Node10</title>
<g id="a_node10"><a xlink:href="namespaceproblem__setup.html#a2deb4dabdc948f0b2b009c3576518ade" target="_top" xlink:title=" ">
<polygon fill="none" stroke="black" points="396.5,-432 396.5,-462 521.5,-462 521.5,-432 396.5,-432"/>
<text text-anchor="start" x="404.5" y="-450" font-family="Arial" font-size="10.00">problem_setup.generate</text>
<text text-anchor="middle" x="459" y="-439" font-family="Arial" font-size="10.00">_cir_particle_gmsh_input</text>
</a>
</g>
</g>
<!-- Node1&#45;&gt;Node10 -->
<g id="edge29" class="edge">
<title>Node1&#45;&gt;Node10</title>
<path fill="none" stroke="midnightblue" d="M153.13,-407.74C220.95,-416.47 319.76,-429.2 386.34,-437.77"/>
<polygon fill="midnightblue" stroke="midnightblue" points="385.96,-441.25 396.33,-439.06 386.86,-434.31 385.96,-441.25"/>
</g>
<!-- Node11 -->
<g id="node11" class="node">
<title>Node11</title>
<g id="a_node11"><a xlink:href="namespaceproblem__setup.html#ae83c0d80c0947e65b98e4a2da0c07601" target="_top" xlink:title=" ">
<polygon fill="none" stroke="black" points="386,-481 386,-511 532,-511 532,-481 386,-481"/>
<text text-anchor="start" x="394" y="-499" font-family="Arial" font-size="10.00">problem_setup.generate</text>
<text text-anchor="middle" x="459" y="-488" font-family="Arial" font-size="10.00">_drum2d_particle_gmsh_input</text>
</a>
</g>
</g>
<!-- Node1&#45;&gt;Node11 -->
<g id="edge30" class="edge">
<title>Node1&#45;&gt;Node11</title>
<path fill="none" stroke="midnightblue" d="M118.2,-413.06C139.18,-420.52 165.28,-429.33 189,-436 250.99,-453.42 322.15,-469.11 375.7,-480.07"/>
<polygon fill="midnightblue" stroke="midnightblue" points="375.33,-483.56 385.82,-482.13 376.72,-476.7 375.33,-483.56"/>
</g>
<!-- Node13 -->
<g id="node13" class="node">
<title>Node13</title>
<g id="a_node13"><a xlink:href="namespaceproblem__setup.html#a541e6c5ea41e139ea1eca83975753fbb" target="_top" xlink:title=" ">
<polygon fill="none" stroke="black" points="398,-383 398,-413 520,-413 520,-383 398,-383"/>
<text text-anchor="start" x="406" y="-401" font-family="Arial" font-size="10.00">problem_setup.generate</text>
<text text-anchor="middle" x="459" y="-390" font-family="Arial" font-size="10.00">_tri_particle_gmsh_input</text>
</a>
</g>
</g>
<!-- Node1&#45;&gt;Node13 -->
<g id="edge35" class="edge">
<title>Node1&#45;&gt;Node13</title>
<path fill="none" stroke="midnightblue" d="M153.13,-398C221.33,-398 320.85,-398 387.44,-398"/>
<polygon fill="midnightblue" stroke="midnightblue" points="387.83,-401.5 397.83,-398 387.83,-394.5 387.83,-401.5"/>
</g>
<!-- Node16 -->
<g id="node16" class="node">
<title>Node16</title>
<g id="a_node16"><a xlink:href="namespaceproblem__setup.html#a662426f1cd2c0857864b28e98daa4d5a" target="_top" xlink:title=" ">
<polygon fill="none" stroke="black" points="401.5,-285 401.5,-315 516.5,-315 516.5,-285 401.5,-285"/>
<text text-anchor="start" x="409.5" y="-303" font-family="Arial" font-size="10.00">problem_setup.particle</text>
<text text-anchor="middle" x="459" y="-292" font-family="Arial" font-size="10.00">_locations</text>
</a>
</g>
</g>
<!-- Node1&#45;&gt;Node16 -->
<g id="edge39" class="edge">
<title>Node1&#45;&gt;Node16</title>
<path fill="none" stroke="midnightblue" d="M96.33,-382.92C117.51,-366.85 153.6,-342.1 189,-330 255.35,-307.32 335.74,-300.89 391.26,-299.47"/>
<polygon fill="midnightblue" stroke="midnightblue" points="391.41,-302.97 401.33,-299.26 391.26,-295.97 391.41,-302.97"/>
</g>
<!-- Node18 -->
<g id="node18" class="node">
<title>Node18</title>
<g id="a_node18"><a xlink:href="namespaceutil_1_1io.html#a578a578ce41389fb01e56de7316b7054" target="_top" xlink:title="Prints formatted information.">
<polygon fill="none" stroke="black" points="611,-246.5 611,-265.5 679,-265.5 679,-246.5 611,-246.5"/>
<text text-anchor="middle" x="645" y="-253.5" font-family="Arial" font-size="10.00">util::io::print</text>
</a>
</g>
</g>
<!-- Node1&#45;&gt;Node18 -->
<g id="edge40" class="edge">
<title>Node1&#45;&gt;Node18</title>
<path fill="none" stroke="midnightblue" d="M78.2,-382.99C81.33,-334.44 98.33,-180.75 189,-111 249.54,-64.43 464.61,-53.05 532,-89 591.71,-120.85 625.22,-200.23 637.96,-236.89"/>
<polygon fill="midnightblue" stroke="midnightblue" points="634.65,-238.03 641.13,-246.41 641.29,-235.82 634.65,-238.03"/>
</g>
<!-- Node24 -->
<g id="node21" class="node">
<title>Node24</title>
<g id="a_node21"><a xlink:href="namespaceproblem__setup.html#a9ce710367bd7258e6dd619e9ec930b36" target="_top" xlink:title=" ">
<polygon fill="none" stroke="black" points="408,-197 408,-227 510,-227 510,-197 408,-197"/>
<text text-anchor="start" x="416" y="-215" font-family="Arial" font-size="10.00">problem_setup.print</text>
<text text-anchor="middle" x="459" y="-204" font-family="Arial" font-size="10.00">_dbl_list</text>
</a>
</g>
</g>
<!-- Node1&#45;&gt;Node24 -->
<g id="edge41" class="edge">
<title>Node1&#45;&gt;Node24</title>
<path fill="none" stroke="midnightblue" d="M90.37,-382.77C109.67,-360.83 148.23,-320.4 189,-297 255.52,-258.82 341.31,-235.55 397.91,-223.23"/>
<polygon fill="midnightblue" stroke="midnightblue" points="398.73,-226.63 407.78,-221.12 397.27,-219.78 398.73,-226.63"/>
</g>
<!-- Node25 -->
<g id="node22" class="node">
<title>Node25</title>
<g id="a_node22"><a xlink:href="namespaceproblem__setup.html#ad4d4b3139613a4ea00dadf8eb7c60a88" target="_top" xlink:title=" ">
<polygon fill="none" stroke="black" points="407,-148 407,-178 511,-178 511,-148 407,-148"/>
<text text-anchor="start" x="415" y="-166" font-family="Arial" font-size="10.00">problem_setup.write</text>
<text text-anchor="middle" x="459" y="-155" font-family="Arial" font-size="10.00">_contact_zone_part</text>
</a>
</g>
</g>
<!-- Node1&#45;&gt;Node25 -->
<g id="edge42" class="edge">
<title>Node1&#45;&gt;Node25</title>
<path fill="none" stroke="midnightblue" d="M83.23,-382.91C96.5,-350.06 132.58,-271.87 189,-232 251.03,-188.16 338.59,-172.15 396.76,-166.32"/>
<polygon fill="midnightblue" stroke="midnightblue" points="397.28,-169.78 406.91,-165.37 396.63,-162.81 397.28,-169.78"/>
</g>
<!-- Node26 -->
<g id="node23" class="node">
<title>Node26</title>
<g id="a_node23"><a xlink:href="namespaceproblem__setup.html#a3b2a9fc19652f44b774b4bb9a8221265" target="_top" xlink:title=" ">
<polygon fill="none" stroke="black" points="407,-99 407,-129 511,-129 511,-99 407,-99"/>
<text text-anchor="start" x="415" y="-117" font-family="Arial" font-size="10.00">problem_setup.write</text>
<text text-anchor="middle" x="459" y="-106" font-family="Arial" font-size="10.00">_material_zone_part</text>
</a>
</g>
</g>
<!-- Node1&#45;&gt;Node26 -->
<g id="edge43" class="edge">
<title>Node1&#45;&gt;Node26</title>
<path fill="none" stroke="midnightblue" d="M80.09,-382.73C88.02,-341.02 116.01,-224.5 189,-168 248.69,-121.79 337.57,-112.1 396.63,-111.42"/>
<polygon fill="midnightblue" stroke="midnightblue" points="396.94,-114.92 406.93,-111.39 396.92,-107.92 396.94,-114.92"/>
</g>
<!-- Node27 -->
<g id="node24" class="node">
<title>Node27</title>
<g id="a_node24"><a xlink:href="namespaceproblem__setup.html#a876a947fad9cf3729999101abe3e823f" target="_top" xlink:title=" ">
<polygon fill="none" stroke="black" points="204.5,-715 204.5,-745 334.5,-745 334.5,-715 204.5,-715"/>
<text text-anchor="start" x="212.5" y="-733" font-family="Arial" font-size="10.00">problem_setup.generate</text>
<text text-anchor="middle" x="269.5" y="-722" font-family="Arial" font-size="10.00">_hex_particle_gmsh_input</text>
</a>
</g>
</g>
<!-- Node1&#45;&gt;Node27 -->
<g id="edge31" class="edge">
<title>Node1&#45;&gt;Node27</title>
<path fill="none" stroke="midnightblue" d="M81.57,-413.14C93.29,-454.88 130.06,-573.96 189,-657 202.95,-676.65 222.94,-694.98 239.39,-708.35"/>
<polygon fill="midnightblue" stroke="midnightblue" points="237.6,-711.41 247.61,-714.88 241.95,-705.92 237.6,-711.41"/>
</g>
<!-- Node29 -->
<g id="node26" class="node">
<title>Node29</title>
<g id="a_node26"><a xlink:href="namespaceproblem__setup.html#a2f3067d9b700cbb11ebcf398041956c4" target="_top" xlink:title=" ">
<polygon fill="none" stroke="black" points="189,-0.5 189,-41.5 350,-41.5 350,-0.5 189,-0.5"/>
<text text-anchor="start" x="197" y="-29.5" font-family="Arial" font-size="10.00">problem_setup.generate</text>
<text text-anchor="start" x="197" y="-18.5" font-family="Arial" font-size="10.00">_rigid_rect_container</text>
<text text-anchor="middle" x="269.5" y="-7.5" font-family="Arial" font-size="10.00">_moving_wall_setup_gmsh_input</text>
</a>
</g>
</g>
<!-- Node1&#45;&gt;Node29 -->
<g id="edge34" class="edge">
<title>Node1&#45;&gt;Node29</title>
<path fill="none" stroke="midnightblue" d="M78.19,-382.89C81.33,-330.73 98.48,-156.01 189,-56 191.85,-52.86 195.03,-49.98 198.43,-47.35"/>
<polygon fill="midnightblue" stroke="midnightblue" points="200.47,-50.2 206.74,-41.66 196.52,-44.42 200.47,-50.2"/>
</g>
<!-- Node2&#45;&gt;Node3 -->
<g id="edge2" class="edge">
<title>Node2&#45;&gt;Node3</title>
<path fill="none" stroke="midnightblue" d="M321.74,-627.63C344.03,-625.73 370.38,-623.48 393.95,-621.47"/>
<polygon fill="midnightblue" stroke="midnightblue" points="394.54,-624.93 404.21,-620.59 393.95,-617.95 394.54,-624.93"/>
</g>
<!-- Node2&#45;&gt;Node4 -->
<g id="edge3" class="edge">
<title>Node2&#45;&gt;Node4</title>
<path fill="none" stroke="midnightblue" d="M318.71,-616.96C339.38,-610.63 363.83,-603.28 386,-597 394.14,-594.69 402.81,-592.33 411.23,-590.08"/>
<polygon fill="midnightblue" stroke="midnightblue" points="412.16,-593.45 420.93,-587.51 410.37,-586.69 412.16,-593.45"/>
</g>
<!-- Node2&#45;&gt;Node5 -->
<g id="edge4" class="edge">
<title>Node2&#45;&gt;Node5</title>
<path fill="none" stroke="midnightblue" d="M290.3,-616.81C312.51,-600.44 350.12,-574.63 386,-559 391.47,-556.62 397.3,-554.48 403.19,-552.57"/>
<polygon fill="midnightblue" stroke="midnightblue" points="404.55,-555.82 413.11,-549.58 402.52,-549.12 404.55,-555.82"/>
</g>
<!-- Node6 -->
<g id="node6" class="node">
<title>Node6</title>
<g id="a_node6"><a xlink:href="namespaceproblem__setup.html#aa39e6862e38920798278f55a2578a6ef" target="_top" xlink:title=" ">
<polygon fill="none" stroke="black" points="584.5,-473.5 584.5,-492.5 705.5,-492.5 705.5,-473.5 584.5,-473.5"/>
<text text-anchor="middle" x="645" y="-480.5" font-family="Arial" font-size="10.00">problem_setup.get_max</text>
</a>
</g>
</g>
<!-- Node2&#45;&gt;Node6 -->
<g id="edge5" class="edge">
<title>Node2&#45;&gt;Node6</title>
<path fill="none" stroke="midnightblue" d="M321.68,-646.1C376.89,-658.36 465.79,-669.31 532,-635 556.63,-622.24 551.66,-606.42 568,-584 589.51,-554.5 615.16,-520.68 630.49,-500.62"/>
<polygon fill="midnightblue" stroke="midnightblue" points="633.27,-502.75 636.56,-492.68 627.71,-498.49 633.27,-502.75"/>
</g>
<!-- Node7 -->
<g id="node7" class="node">
<title>Node7</title>
<g id="a_node7"><a xlink:href="namespaceproblem__setup.html#a55fb909469dce4448cbab6267c05d783" target="_top" xlink:title=" ">
<polygon fill="none" stroke="black" points="408,-721 408,-751 510,-751 510,-721 408,-721"/>
<text text-anchor="start" x="416" y="-739" font-family="Arial" font-size="10.00">problem_setup.print</text>
<text text-anchor="middle" x="459" y="-728" font-family="Arial" font-size="10.00">_int_list</text>
</a>
</g>
</g>
<!-- Node2&#45;&gt;Node7 -->
<g id="edge6" class="edge">
<title>Node2&#45;&gt;Node7</title>
<path fill="none" stroke="midnightblue" d="M291.54,-647.07C314.19,-662.92 351.61,-688 386,-706 393.25,-709.8 401.09,-713.47 408.83,-716.87"/>
<polygon fill="midnightblue" stroke="midnightblue" points="407.62,-720.16 418.19,-720.87 410.37,-713.72 407.62,-720.16"/>
</g>
<!-- Node8 -->
<g id="node8" class="node">
<title>Node8</title>
<g id="a_node8"><a xlink:href="namespaceproblem__setup.html#a192b6d085d04429814f30104aeb18493" target="_top" xlink:title=" ">
<polygon fill="none" stroke="black" points="759.5,-682.5 759.5,-701.5 867.5,-701.5 867.5,-682.5 759.5,-682.5"/>
<text text-anchor="middle" x="813.5" y="-689.5" font-family="Arial" font-size="10.00">problem_setup.rotate</text>
</a>
</g>
</g>
<!-- Node2&#45;&gt;Node8 -->
<g id="edge7" class="edge">
<title>Node2&#45;&gt;Node8</title>
<path fill="none" stroke="midnightblue" d="M321.6,-646.28C341.55,-651.36 364.7,-656.64 386,-660 513.97,-680.17 665.61,-687.71 749.22,-690.47"/>
<polygon fill="midnightblue" stroke="midnightblue" points="749.21,-693.97 759.32,-690.79 749.44,-686.97 749.21,-693.97"/>
</g>
<!-- Node9&#45;&gt;Node3 -->
<g id="edge16" class="edge">
<title>Node9&#45;&gt;Node3</title>
<path fill="none" stroke="midnightblue" d="M273.15,-369.26C281.43,-412.15 310.87,-534.67 386,-597 388.77,-599.3 391.79,-601.32 394.97,-603.1"/>
<polygon fill="midnightblue" stroke="midnightblue" points="393.76,-606.4 404.29,-607.51 396.75,-600.07 393.76,-606.4"/>
</g>
<!-- Node9&#45;&gt;Node4 -->
<g id="edge17" class="edge">
<title>Node9&#45;&gt;Node4</title>
<path fill="none" stroke="midnightblue" d="M274.54,-369.07C285.53,-407.14 319.73,-507.8 386,-559 388.35,-560.82 390.86,-562.46 393.48,-563.94"/>
<polygon fill="midnightblue" stroke="midnightblue" points="392.21,-567.22 402.74,-568.42 395.25,-560.92 392.21,-567.22"/>
</g>
<!-- Node9&#45;&gt;Node5 -->
<g id="edge18" class="edge">
<title>Node9&#45;&gt;Node5</title>
<path fill="none" stroke="midnightblue" d="M276.59,-369.16C290.64,-402.14 328.58,-480.71 386,-521 388.84,-522.99 391.87,-524.77 395.03,-526.37"/>
<polygon fill="midnightblue" stroke="midnightblue" points="393.62,-529.58 404.19,-530.39 396.44,-523.17 393.62,-529.58"/>
</g>
<!-- Node9&#45;&gt;Node10 -->
<g id="edge9" class="edge">
<title>Node9&#45;&gt;Node10</title>
<path fill="none" stroke="midnightblue" d="M292.71,-369.26C315.41,-384.36 352.03,-407.42 386,-423 390.08,-424.87 394.36,-426.67 398.7,-428.39"/>
<polygon fill="midnightblue" stroke="midnightblue" points="397.67,-431.74 408.26,-432 400.14,-425.19 397.67,-431.74"/>
</g>
<!-- Node9&#45;&gt;Node11 -->
<g id="edge10" class="edge">
<title>Node9&#45;&gt;Node11</title>
<path fill="none" stroke="midnightblue" d="M281.54,-369.3C300.31,-394.25 340.79,-443.73 386,-472 388.6,-473.62 391.32,-475.15 394.11,-476.59"/>
<polygon fill="midnightblue" stroke="midnightblue" points="392.72,-479.8 403.26,-480.86 395.68,-473.46 392.72,-479.8"/>
</g>
<!-- Node9&#45;&gt;Node13 -->
<g id="edge13" class="edge">
<title>Node9&#45;&gt;Node13</title>
<path fill="none" stroke="midnightblue" d="M324.73,-366.73C344.53,-371.37 367.2,-376.69 388.16,-381.61"/>
<polygon fill="midnightblue" stroke="midnightblue" points="387.44,-385.04 397.97,-383.91 389.04,-378.22 387.44,-385.04"/>
</g>
<!-- Node15 -->
<g id="node15" class="node">
<title>Node15</title>
<g id="a_node15"><a xlink:href="namespaceproblem__setup.html#ad281d5f1d41eee4b1a595ede1aff337c" target="_top" xlink:title=" ">
<polygon fill="none" stroke="black" points="398.5,-334 398.5,-364 519.5,-364 519.5,-334 398.5,-334"/>
<text text-anchor="start" x="406.5" y="-352" font-family="Arial" font-size="10.00">problem_setup.generate</text>
<text text-anchor="middle" x="459" y="-341" font-family="Arial" font-size="10.00">_wall_gmsh_input</text>
</a>
</g>
</g>
<!-- Node9&#45;&gt;Node15 -->
<g id="edge15" class="edge">
<title>Node9&#45;&gt;Node15</title>
<path fill="none" stroke="midnightblue" d="M324.73,-352.55C344.53,-352.03 367.21,-351.42 388.17,-350.86"/>
<polygon fill="midnightblue" stroke="midnightblue" points="388.4,-354.36 398.31,-350.59 388.22,-347.36 388.4,-354.36"/>
</g>
<!-- Node9&#45;&gt;Node16 -->
<g id="edge19" class="edge">
<title>Node9&#45;&gt;Node16</title>
<path fill="none" stroke="midnightblue" d="M322.73,-338.96C345.49,-332.4 372.34,-324.67 396.1,-317.83"/>
<polygon fill="midnightblue" stroke="midnightblue" points="397.09,-321.19 405.73,-315.05 395.15,-314.46 397.09,-321.19"/>
</g>
<!-- Node9&#45;&gt;Node18 -->
<g id="edge25" class="edge">
<title>Node9&#45;&gt;Node18</title>
<path fill="none" stroke="midnightblue" d="M286.95,-338.75C308.07,-320.21 346.7,-289.71 386,-276 458.03,-250.87 548.01,-250.28 600.44,-252.73"/>
<polygon fill="midnightblue" stroke="midnightblue" points="600.56,-256.24 610.73,-253.27 600.93,-249.25 600.56,-256.24"/>
</g>
<!-- Node9&#45;&gt;Node24 -->
<g id="edge26" class="edge">
<title>Node9&#45;&gt;Node24</title>
<path fill="none" stroke="midnightblue" d="M284.75,-338.84C310.39,-311.8 363.72,-256.67 386,-242 391.99,-238.06 398.58,-234.46 405.26,-231.24"/>
<polygon fill="midnightblue" stroke="midnightblue" points="406.75,-234.41 414.4,-227.08 403.84,-228.04 406.75,-234.41"/>
</g>
<!-- Node9&#45;&gt;Node25 -->
<g id="edge27" class="edge">
<title>Node9&#45;&gt;Node25</title>
<path fill="none" stroke="midnightblue" d="M277.07,-338.76C291.8,-306.33 330.6,-229.99 386,-188 389.6,-185.27 393.51,-182.83 397.6,-180.64"/>
<polygon fill="midnightblue" stroke="midnightblue" points="399.26,-183.73 406.76,-176.25 396.23,-177.42 399.26,-183.73"/>
</g>
<!-- Node9&#45;&gt;Node26 -->
<g id="edge28" class="edge">
<title>Node9&#45;&gt;Node26</title>
<path fill="none" stroke="midnightblue" d="M274.48,-338.8C285.43,-299.83 319.74,-195.49 386,-139 389.49,-136.02 393.36,-133.39 397.44,-131.07"/>
<polygon fill="midnightblue" stroke="midnightblue" points="399.26,-134.07 406.64,-126.47 396.13,-127.81 399.26,-134.07"/>
</g>
<!-- Node12 -->
<g id="node12" class="node">
<title>Node12</title>
<g id="a_node12"><a xlink:href="namespaceproblem__setup.html#a700be09e5b12da02f5d11c0d21cf5d5b" target="_top" xlink:title=" ">
<polygon fill="none" stroke="black" points="588.5,-593 588.5,-623 701.5,-623 701.5,-593 588.5,-593"/>
<text text-anchor="start" x="596.5" y="-611" font-family="Arial" font-size="10.00">problem_setup.get_ref</text>
<text text-anchor="middle" x="645" y="-600" font-family="Arial" font-size="10.00">_drum_points</text>
</a>
</g>
</g>
<!-- Node11&#45;&gt;Node12 -->
<g id="edge11" class="edge">
<title>Node11&#45;&gt;Node12</title>
<path fill="none" stroke="midnightblue" d="M510.1,-511.01C517.62,-513.94 525.14,-517.28 532,-521 565.19,-539.02 598.82,-566.68 620.45,-585.96"/>
<polygon fill="midnightblue" stroke="midnightblue" points="618.36,-588.79 628.12,-592.9 623.05,-583.6 618.36,-588.79"/>
</g>
<!-- Node12&#45;&gt;Node8 -->
<g id="edge12" class="edge">
<title>Node12&#45;&gt;Node8</title>
<path fill="none" stroke="midnightblue" d="M675.77,-623.02C706.49,-638.52 754.06,-662.52 784.23,-677.74"/>
<polygon fill="midnightblue" stroke="midnightblue" points="782.86,-680.97 793.36,-682.35 786.01,-674.72 782.86,-680.97"/>
</g>
<!-- Node14 -->
<g id="node14" class="node">
<title>Node14</title>
<g id="a_node14"><a xlink:href="namespaceproblem__setup.html#ac4731e8b5a85713f528c4c79651768ac" target="_top" xlink:title=" ">
<polygon fill="none" stroke="black" points="588.5,-383 588.5,-413 701.5,-413 701.5,-383 588.5,-383"/>
<text text-anchor="start" x="596.5" y="-401" font-family="Arial" font-size="10.00">problem_setup.get_ref</text>
<text text-anchor="middle" x="645" y="-390" font-family="Arial" font-size="10.00">_triangle_points</text>
</a>
</g>
</g>
<!-- Node13&#45;&gt;Node14 -->
<g id="edge14" class="edge">
<title>Node13&#45;&gt;Node14</title>
<path fill="none" stroke="midnightblue" d="M520.25,-398C538.82,-398 559.35,-398 578.27,-398"/>
<polygon fill="midnightblue" stroke="midnightblue" points="578.29,-401.5 588.29,-398 578.29,-394.5 578.29,-401.5"/>
</g>
<!-- Node16&#45;&gt;Node6 -->
<g id="edge21" class="edge">
<title>Node16&#45;&gt;Node6</title>
<path fill="none" stroke="midnightblue" d="M516.74,-314.07C522.33,-317.04 527.56,-320.64 532,-325 565.1,-357.52 540.77,-385.43 568,-423 581.4,-441.49 601.98,-457.25 618.35,-467.97"/>
<polygon fill="midnightblue" stroke="midnightblue" points="616.61,-471.02 626.93,-473.4 620.35,-465.1 616.61,-471.02"/>
</g>
<!-- Node17 -->
<g id="node17" class="node">
<title>Node17</title>
<g id="a_node17"><a xlink:href="namespaceproblem__setup.html#a49682af72cdc7bca4f282619eb559d90" target="_top" xlink:title=" ">
<polygon fill="none" stroke="black" points="568,-285 568,-315 722,-315 722,-285 568,-285"/>
<text text-anchor="start" x="576" y="-303" font-family="Arial" font-size="10.00">problem_setup.does</text>
<text text-anchor="middle" x="645" y="-292" font-family="Arial" font-size="10.00">_intersect_with_cylindrical_wall</text>
</a>
</g>
</g>
<!-- Node16&#45;&gt;Node17 -->
<g id="edge20" class="edge">
<title>Node16&#45;&gt;Node17</title>
<path fill="none" stroke="midnightblue" d="M516.71,-300C529.71,-300 543.82,-300 557.75,-300"/>
<polygon fill="midnightblue" stroke="midnightblue" points="557.84,-303.5 567.84,-300 557.84,-296.5 557.84,-303.5"/>
</g>
<!-- Node16&#45;&gt;Node18 -->
<g id="edge22" class="edge">
<title>Node16&#45;&gt;Node18</title>
<path fill="none" stroke="midnightblue" d="M516.71,-286.44C543.81,-279.96 575.72,-272.33 600.82,-266.33"/>
<polygon fill="midnightblue" stroke="midnightblue" points="601.86,-269.68 610.77,-263.95 600.23,-262.87 601.86,-269.68"/>
</g>
<!-- Node19 -->
<g id="node19" class="node">
<title>Node19</title>
<g id="a_node19"><a xlink:href="namespaceutil_1_1parallel.html#adb80f14125b7556bb478cc3725508fa8" target="_top" xlink:title="get rank (id) of this processor">
<polygon fill="none" stroke="red" points="758,-265.5 758,-284.5 869,-284.5 869,-265.5 758,-265.5"/>
<text text-anchor="middle" x="813.5" y="-272.5" font-family="Arial" font-size="10.00">util::parallel::mpiRank</text>
</a>
</g>
</g>
<!-- Node18&#45;&gt;Node19 -->
<g id="edge23" class="edge">
<title>Node18&#45;&gt;Node19</title>
<path fill="none" stroke="midnightblue" d="M679.29,-259.8C698.89,-262.04 724.34,-264.94 747.73,-267.61"/>
<polygon fill="midnightblue" stroke="midnightblue" points="747.63,-271.12 757.96,-268.78 748.42,-264.17 747.63,-271.12"/>
</g>
<!-- Node22 -->
<g id="node20" class="node">
<title>Node22</title>
<g id="a_node20"><a xlink:href="namespaceutil_1_1io.html#a3e537e3bd778616255015cde6e60a30a" target="_top" xlink:title="Returns formatted string for output.">
<polygon fill="none" stroke="red" points="773.5,-227.5 773.5,-246.5 853.5,-246.5 853.5,-227.5 773.5,-227.5"/>
<text text-anchor="middle" x="813.5" y="-234.5" font-family="Arial" font-size="10.00">util::io::printStr</text>
</a>
</g>
</g>
<!-- Node18&#45;&gt;Node22 -->
<g id="edge24" class="edge">
<title>Node18&#45;&gt;Node22</title>
<path fill="none" stroke="midnightblue" d="M679.29,-252.2C703.36,-249.45 736.27,-245.7 763.35,-242.61"/>
<polygon fill="midnightblue" stroke="midnightblue" points="763.88,-246.07 773.42,-241.46 763.08,-239.12 763.88,-246.07"/>
</g>
<!-- Node28 -->
<g id="node25" class="node">
<title>Node28</title>
<g id="a_node25"><a xlink:href="namespaceproblem__setup.html#a8e552b0e3bb3bde7c390d6906dbe88cd" target="_top" xlink:title=" ">
<polygon fill="none" stroke="black" points="588.5,-743 588.5,-773 701.5,-773 701.5,-743 588.5,-743"/>
<text text-anchor="start" x="596.5" y="-761" font-family="Arial" font-size="10.00">problem_setup.get_ref</text>
<text text-anchor="middle" x="645" y="-750" font-family="Arial" font-size="10.00">_hex_points</text>
</a>
</g>
</g>
<!-- Node27&#45;&gt;Node28 -->
<g id="edge32" class="edge">
<title>Node27&#45;&gt;Node28</title>
<path fill="none" stroke="midnightblue" d="M315.47,-745.01C336.62,-751.31 362.33,-757.88 386,-761 450.95,-769.56 525.89,-767.36 578.21,-763.9"/>
<polygon fill="midnightblue" stroke="midnightblue" points="578.63,-767.38 588.37,-763.2 578.15,-760.4 578.63,-767.38"/>
</g>
<!-- Node28&#45;&gt;Node8 -->
<g id="edge33" class="edge">
<title>Node28&#45;&gt;Node8</title>
<path fill="none" stroke="midnightblue" d="M684.2,-742.86C712.76,-731.54 751.44,-716.2 778.84,-705.34"/>
<polygon fill="midnightblue" stroke="midnightblue" points="780.38,-708.5 788.39,-701.56 777.8,-701.99 780.38,-708.5"/>
</g>
</g>
</svg>
