<?xml version="1.0" encoding="UTF-8" standalone="no"?>
<!DOCTYPE svg PUBLIC "-//W3C//DTD SVG 1.1//EN"
 "http://www.w3.org/Graphics/SVG/1.1/DTD/svg11.dtd">
<!-- Generated by graphviz version 2.43.0 (0)
 -->
<!-- Title: anonymous_namespace{testNSearchLib::cpp}::neighSearchTreeClosestPointSizet Pages: 1 -->
<svg width="347pt" height="64pt"
 viewBox="0.00 0.00 347.00 64.00" xmlns="http://www.w3.org/2000/svg" xmlns:xlink="http://www.w3.org/1999/xlink">
<g id="graph0" class="graph" transform="scale(1 1) rotate(0) translate(4 60)">
<title>anonymous_namespace{testNSearchLib::cpp}::neighSearchTreeClosestPointSizet</title>
<!-- Node1 -->
<g id="Node000001" class="node">
<title>Node1</title>
<g id="a_Node000001"><a xlink:title=" ">
<polygon fill="#999999" stroke="#666666" points="175,-48 0,-48 0,-7 175,-7 175,-48"/>
<text text-anchor="start" x="8" y="-36" font-family="Arial" font-size="10.00">anonymous_namespace</text>
<text text-anchor="start" x="8" y="-25" font-family="Arial" font-size="10.00">{testNSearchLib::cpp}</text>
<text text-anchor="middle" x="87.5" y="-14" font-family="Arial" font-size="10.00">::neighSearchTreeClosestPointSizet</text>
</a>
</g>
</g>
<!-- Node2 -->
<g id="Node000002" class="node">
<title>Node2</title>
<g id="a_Node000002"><a xlink:href="namespaceutil.html#afcff5a3416f12b7e3c727dae52c5523a" target="_top" xlink:title="Return random number generator.">
<polygon fill="white" stroke="#666666" points="316.5,-56 233.5,-56 233.5,-37 316.5,-37 316.5,-56"/>
<text text-anchor="middle" x="275" y="-44" font-family="Arial" font-size="10.00">util::get_rd_gen</text>
</a>
</g>
</g>
<!-- Node1&#45;&gt;Node2 -->
<g id="edge1_Node000001_Node000002" class="edge">
<title>Node1&#45;&gt;Node2</title>
<g id="a_edge1_Node000001_Node000002"><a xlink:title=" ">
<path fill="none" stroke="#63b8ff" d="M175,-36.36C191.58,-38.06 208.43,-39.78 223.41,-41.32"/>
<polygon fill="#63b8ff" stroke="#63b8ff" points="223.15,-44.81 233.45,-42.35 223.86,-37.85 223.15,-44.81"/>
</a>
</g>
</g>
<!-- Node3 -->
<g id="Node000003" class="node">
<title>Node3</title>
<g id="a_Node000003"><a xlink:href="namespaceutil_1_1parallel.html#a4ad550a438091fb9cd924783e690764d" target="_top" xlink:title="Get number of threads to be used by taskflow.">
<polygon fill="white" stroke="#666666" points="339,-19 211,-19 211,0 339,0 339,-19"/>
<text text-anchor="middle" x="275" y="-7" font-family="Arial" font-size="10.00">util::parallel::getNThreads</text>
</a>
</g>
</g>
<!-- Node1&#45;&gt;Node3 -->
<g id="edge2_Node000001_Node000003" class="edge">
<title>Node1&#45;&gt;Node3</title>
<g id="a_edge2_Node000001_Node000003"><a xlink:title=" ">
<path fill="none" stroke="#63b8ff" d="M175,-19.11C183.6,-18.27 192.27,-17.43 200.71,-16.61"/>
<polygon fill="#63b8ff" stroke="#63b8ff" points="201.26,-20.07 210.87,-15.63 200.58,-13.11 201.26,-20.07"/>
</a>
</g>
</g>
</g>
</svg>
