<?xml version="1.0" encoding="UTF-8" standalone="no"?>
<!DOCTYPE svg PUBLIC "-//W3C//DTD SVG 1.1//EN"
 "http://www.w3.org/Graphics/SVG/1.1/DTD/svg11.dtd">
<!-- Generated by graphviz version 2.43.0 (0)
 -->
<!-- Title: util::parallel::mpiRank Pages: 1 -->
<svg width="1018pt" height="605pt"
 viewBox="0.00 0.00 1018.00 605.13" xmlns="http://www.w3.org/2000/svg" xmlns:xlink="http://www.w3.org/1999/xlink">
<g id="graph0" class="graph" transform="scale(1 1) rotate(0) translate(4 601.13)">
<title>util::parallel::mpiRank</title>
<!-- Node1 -->
<g id="node1" class="node">
<title>Node1</title>
<g id="a_node1"><a xlink:title="get rank (id) of this processor">
<polygon fill="#bfbfbf" stroke="black" points="899,-372 899,-391 1010,-391 1010,-372 899,-372"/>
<text text-anchor="middle" x="954.5" y="-379" font-family="Arial" font-size="10.00">util::parallel::mpiRank</text>
</a>
</g>
</g>
<!-- Node2 -->
<g id="node2" class="node">
<title>Node2</title>
<g id="a_node2"><a xlink:href="namespaceanonymous__namespace_02testParallelCompLib_8cpp_03.html#a55d59bfee9bce3b871923ee947a1242b" target="_top" xlink:title=" ">
<polygon fill="none" stroke="black" points="544.5,-443 544.5,-484 675.5,-484 675.5,-443 544.5,-443"/>
<text text-anchor="start" x="552.5" y="-472" font-family="Arial" font-size="10.00">anonymous_namespace</text>
<text text-anchor="start" x="552.5" y="-461" font-family="Arial" font-size="10.00">{testParallelCompLib</text>
<text text-anchor="middle" x="610" y="-450" font-family="Arial" font-size="10.00">::cpp}::exchangeDispData</text>
</a>
</g>
</g>
<!-- Node1&#45;&gt;Node2 -->
<g id="edge1" class="edge">
<title>Node1&#45;&gt;Node2</title>
<path fill="none" stroke="midnightblue" d="M893.52,-393.06C846.18,-402.49 778.59,-416.65 720,-431.5 705.57,-435.16 690.17,-439.44 675.62,-443.66"/>
<polygon fill="midnightblue" stroke="midnightblue" points="894.47,-396.44 903.6,-391.06 893.11,-389.58 894.47,-396.44"/>
</g>
<!-- Node3 -->
<g id="node3" class="node">
<title>Node3</title>
<g id="a_node3"><a xlink:href="namespacetest.html#af0964e1ea010ded3d98df70e7d5326ca" target="_top" xlink:title="Perform parallelization test using MPI on mesh partition based on metis.">
<polygon fill="none" stroke="black" points="377.5,-478 377.5,-497 451.5,-497 451.5,-478 377.5,-478"/>
<text text-anchor="middle" x="414.5" y="-485" font-family="Arial" font-size="10.00">test::testMPI</text>
</a>
</g>
</g>
<!-- Node1&#45;&gt;Node3 -->
<g id="edge35" class="edge">
<title>Node1&#45;&gt;Node3</title>
<path fill="none" stroke="midnightblue" d="M950.52,-401.29C943.43,-440.46 921.55,-527.22 863,-563.5 715.63,-654.81 491.06,-533.05 430.82,-497"/>
<polygon fill="midnightblue" stroke="midnightblue" points="953.98,-401.82 952.18,-391.38 947.07,-400.66 953.98,-401.82"/>
</g>
<!-- Node5 -->
<g id="node5" class="node">
<title>Node5</title>
<g id="a_node5"><a xlink:href="classutil_1_1io_1_1Logger.html#ab95e172506a16ded8973ae57cf5bd18c" target="_top" xlink:title="Log the message.">
<polygon fill="none" stroke="black" points="743,-247 743,-266 840,-266 840,-247 743,-247"/>
<text text-anchor="middle" x="791.5" y="-254" font-family="Arial" font-size="10.00">util::io::Logger::log</text>
</a>
</g>
</g>
<!-- Node1&#45;&gt;Node5 -->
<g id="edge4" class="edge">
<title>Node1&#45;&gt;Node5</title>
<path fill="none" stroke="midnightblue" d="M941.68,-363.37C926.15,-340.91 896.85,-302.88 863,-280.5 853.72,-274.37 842.72,-269.65 832.21,-266.08"/>
<polygon fill="midnightblue" stroke="midnightblue" points="938.97,-365.62 947.46,-371.95 944.77,-361.71 938.97,-365.62"/>
</g>
<!-- Node6 -->
<g id="node6" class="node">
<title>Node6</title>
<g id="a_node6"><a xlink:href="src_2main_8cpp.html#a0ddf1224851353fc92bfbff6f499fa97" target="_top" xlink:title=" ">
<polygon fill="none" stroke="black" points="591,-55 591,-74 629,-74 629,-55 591,-55"/>
<text text-anchor="middle" x="610" y="-62" font-family="Arial" font-size="10.00">main</text>
</a>
</g>
</g>
<!-- Node1&#45;&gt;Node6 -->
<g id="edge5" class="edge">
<title>Node1&#45;&gt;Node6</title>
<path fill="none" stroke="midnightblue" d="M935.91,-364.98C918.6,-349.58 890.8,-327 863,-313.5 803.84,-284.77 764.74,-323.7 720,-275.5 660.93,-211.87 743.23,-146.98 684,-83.5 669.97,-68.47 645.7,-64.73 629.02,-64.08"/>
<polygon fill="midnightblue" stroke="midnightblue" points="933.76,-367.76 943.51,-371.9 938.47,-362.58 933.76,-367.76"/>
</g>
<!-- Node7 -->
<g id="node7" class="node">
<title>Node7</title>
<g id="a_node7"><a xlink:href="namespaceutil_1_1io.html#a578a578ce41389fb01e56de7316b7054" target="_top" xlink:title="Prints formatted information.">
<polygon fill="none" stroke="black" points="757.5,-323 757.5,-342 825.5,-342 825.5,-323 757.5,-323"/>
<text text-anchor="middle" x="791.5" y="-330" font-family="Arial" font-size="10.00">util::io::print</text>
</a>
</g>
</g>
<!-- Node1&#45;&gt;Node7 -->
<g id="edge6" class="edge">
<title>Node1&#45;&gt;Node7</title>
<path fill="none" stroke="midnightblue" d="M912.33,-368.97C884.78,-360.59 849.09,-349.72 823.85,-342.04"/>
<polygon fill="midnightblue" stroke="midnightblue" points="911.49,-372.37 922.08,-371.94 913.53,-365.68 911.49,-372.37"/>
</g>
<!-- Node24 -->
<g id="node23" class="node">
<title>Node24</title>
<g id="a_node23"><a xlink:href="namespaceutil_1_1io.html#aafa73b940789a70da4253d44a4ff36d1" target="_top" xlink:title="Prints formatted string for output.">
<polygon fill="none" stroke="black" points="749,-209 749,-228 834,-228 834,-209 749,-209"/>
<text text-anchor="middle" x="791.5" y="-216" font-family="Arial" font-size="10.00">util::io::printBox</text>
</a>
</g>
</g>
<!-- Node1&#45;&gt;Node24 -->
<g id="edge30" class="edge">
<title>Node1&#45;&gt;Node24</title>
<path fill="none" stroke="midnightblue" d="M946.65,-361.99C934.68,-330.82 906.97,-270 863,-237.5 854.64,-231.32 844.4,-227.15 834.35,-224.34"/>
<polygon fill="midnightblue" stroke="midnightblue" points="943.48,-363.52 950.22,-371.69 950.05,-361.09 943.48,-363.52"/>
</g>
<!-- Node25 -->
<g id="node24" class="node">
<title>Node25</title>
<g id="a_node24"><a xlink:href="namespaceanonymous__namespace_02testParallelCompLib_8cpp_03.html#a203213df0b872311cc21e15789f7a924" target="_top" xlink:title=" ">
<polygon fill="none" stroke="black" points="730.5,-513 730.5,-554 852.5,-554 852.5,-513 730.5,-513"/>
<text text-anchor="start" x="738.5" y="-542" font-family="Arial" font-size="10.00">anonymous_namespace</text>
<text text-anchor="start" x="738.5" y="-531" font-family="Arial" font-size="10.00">{testParallelCompLib</text>
<text text-anchor="middle" x="791.5" y="-520" font-family="Arial" font-size="10.00">::cpp}::printMsg</text>
</a>
</g>
</g>
<!-- Node1&#45;&gt;Node25 -->
<g id="edge31" class="edge">
<title>Node1&#45;&gt;Node25</title>
<path fill="none" stroke="midnightblue" d="M941.4,-399.84C925.42,-423.12 895.48,-463.6 863,-491.5 853.81,-499.39 842.96,-506.67 832.55,-512.88"/>
<polygon fill="midnightblue" stroke="midnightblue" points="944.49,-401.52 947.18,-391.28 938.69,-397.61 944.49,-401.52"/>
</g>
<!-- Node26 -->
<g id="node25" class="node">
<title>Node26</title>
<g id="a_node25"><a xlink:href="namespaceanonymous__namespace_02testParallelCompLib_8cpp_03.html#adf1cc5e3fb18d6c4d4bd630c53448476" target="_top" xlink:title=" ">
<polygon fill="none" stroke="black" points="720,-441 720,-482 863,-482 863,-441 720,-441"/>
<text text-anchor="start" x="728" y="-470" font-family="Arial" font-size="10.00">anonymous_namespace</text>
<text text-anchor="start" x="728" y="-459" font-family="Arial" font-size="10.00">{testParallelCompLib</text>
<text text-anchor="middle" x="791.5" y="-448" font-family="Arial" font-size="10.00">::cpp}::setupOwnerAndGhost</text>
</a>
</g>
</g>
<!-- Node1&#45;&gt;Node26 -->
<g id="edge33" class="edge">
<title>Node1&#45;&gt;Node26</title>
<path fill="none" stroke="midnightblue" d="M925.02,-395.65C899.75,-408.21 862.52,-426.71 833.94,-440.91"/>
<polygon fill="midnightblue" stroke="midnightblue" points="926.68,-398.73 934.08,-391.15 923.57,-392.47 926.68,-398.73"/>
</g>
<!-- Node2&#45;&gt;Node3 -->
<g id="edge2" class="edge">
<title>Node2&#45;&gt;Node3</title>
<path fill="none" stroke="midnightblue" d="M534.01,-472.8C505.72,-476.31 474.8,-480.14 451.64,-483.02"/>
<polygon fill="midnightblue" stroke="midnightblue" points="534.81,-476.23 544.3,-471.53 533.94,-469.28 534.81,-476.23"/>
</g>
<!-- Node4 -->
<g id="node4" class="node">
<title>Node4</title>
<g id="a_node4"><a xlink:href="testParallelComp_8cpp.html#a0ddf1224851353fc92bfbff6f499fa97" target="_top" xlink:title=" ">
<polygon fill="none" stroke="black" points="206,-329 206,-348 244,-348 244,-329 206,-329"/>
<text text-anchor="middle" x="225" y="-336" font-family="Arial" font-size="10.00">main</text>
</a>
</g>
</g>
<!-- Node3&#45;&gt;Node4 -->
<g id="edge3" class="edge">
<title>Node3&#45;&gt;Node4</title>
<path fill="none" stroke="midnightblue" d="M393.49,-471.6C354.56,-440.67 269.73,-373.25 238.16,-348.16"/>
<polygon fill="midnightblue" stroke="midnightblue" points="391.48,-474.47 401.49,-477.95 395.83,-468.99 391.48,-474.47"/>
</g>
<!-- Node7&#45;&gt;Node2 -->
<g id="edge9" class="edge">
<title>Node7&#45;&gt;Node2</title>
<path fill="none" stroke="midnightblue" d="M759.88,-346.86C746.68,-353.98 731.63,-363.44 720,-374.5 699.09,-394.37 705.78,-409.59 684,-428.5 677.74,-433.94 670.49,-438.73 663.03,-442.88"/>
<polygon fill="midnightblue" stroke="midnightblue" points="761.82,-349.79 769.1,-342.09 758.61,-343.58 761.82,-349.79"/>
</g>
<!-- Node7&#45;&gt;Node3 -->
<g id="edge27" class="edge">
<title>Node7&#45;&gt;Node3</title>
<path fill="none" stroke="midnightblue" d="M768.59,-347.98C747.7,-362.1 714.95,-382.68 684,-395.5 621.26,-421.49 600.11,-411.09 536,-433.5 498.99,-446.44 457.66,-466.18 434.29,-477.87"/>
<polygon fill="midnightblue" stroke="midnightblue" points="770.77,-350.72 777.03,-342.18 766.81,-344.95 770.77,-350.72"/>
</g>
<!-- Node7&#45;&gt;Node6 -->
<g id="edge10" class="edge">
<title>Node7&#45;&gt;Node6</title>
<path fill="none" stroke="midnightblue" d="M747.32,-325.81C737.03,-322.26 727.01,-316.81 720,-308.5 654.71,-231.09 752.09,-158.46 684,-83.5 670.18,-68.28 645.85,-64.58 629.11,-64"/>
<polygon fill="midnightblue" stroke="midnightblue" points="746.59,-329.25 757.17,-328.68 748.55,-322.53 746.59,-329.25"/>
</g>
<!-- Node8 -->
<g id="node8" class="node">
<title>Node8</title>
<g id="a_node8"><a xlink:href="classfe_1_1Mesh.html#ad8e7d706e7378a729c22842bfbf6af3b" target="_top" xlink:title="Compute the nodal volume.">
<polygon fill="none" stroke="black" points="554,-367 554,-386 666,-386 666,-367 554,-367"/>
<text text-anchor="middle" x="610" y="-374" font-family="Arial" font-size="10.00">fe::Mesh::computeVol</text>
</a>
</g>
</g>
<!-- Node7&#45;&gt;Node8 -->
<g id="edge7" class="edge">
<title>Node7&#45;&gt;Node8</title>
<path fill="none" stroke="midnightblue" d="M747.08,-343.14C717.4,-350.42 678.41,-359.98 649.78,-366.99"/>
<polygon fill="midnightblue" stroke="midnightblue" points="748.28,-346.45 757.16,-340.67 746.61,-339.65 748.28,-346.45"/>
</g>
<!-- Node9 -->
<g id="node9" class="node">
<title>Node9</title>
<g id="a_node9"><a xlink:href="namespacediscretize__circle.html#a696cce96441ef5fc2d3175e6900fcf9c" target="_top" xlink:title=" ">
<polygon fill="none" stroke="black" points="348.5,-219.5 348.5,-249.5 480.5,-249.5 480.5,-219.5 348.5,-219.5"/>
<text text-anchor="start" x="356.5" y="-237.5" font-family="Arial" font-size="10.00">discretize_circle.discretize</text>
<text text-anchor="middle" x="414.5" y="-226.5" font-family="Arial" font-size="10.00">_circle</text>
</a>
</g>
</g>
<!-- Node7&#45;&gt;Node9 -->
<g id="edge8" class="edge">
<title>Node7&#45;&gt;Node9</title>
<path fill="none" stroke="midnightblue" d="M747.78,-324.67C737.68,-321.12 727.63,-315.97 720,-308.5 686.55,-275.74 722.35,-236.36 684,-209.5 651.93,-187.04 547.16,-204.6 478.37,-219.47"/>
<polygon fill="midnightblue" stroke="midnightblue" points="746.83,-328.04 757.42,-327.6 748.87,-321.34 746.83,-328.04"/>
</g>
<!-- Node10 -->
<g id="node10" class="node">
<title>Node10</title>
<g id="a_node10"><a xlink:href="namespaceproblem__setup.html#ac6b230cd1c6ef5a92bda85a4ea213f7b" target="_top" xlink:title=" ">
<polygon fill="none" stroke="black" points="552.5,-93.5 552.5,-123.5 667.5,-123.5 667.5,-93.5 552.5,-93.5"/>
<text text-anchor="start" x="560.5" y="-111.5" font-family="Arial" font-size="10.00">problem_setup.particle</text>
<text text-anchor="middle" x="610" y="-100.5" font-family="Arial" font-size="10.00">_locations</text>
</a>
</g>
</g>
<!-- Node7&#45;&gt;Node10 -->
<g id="edge11" class="edge">
<title>Node7&#45;&gt;Node10</title>
<path fill="none" stroke="midnightblue" d="M747.59,-325.57C737.3,-322.02 727.22,-316.64 720,-308.5 668.75,-250.73 733.44,-197.83 684,-138.5 678.91,-132.39 672.38,-127.52 665.33,-123.62"/>
<polygon fill="midnightblue" stroke="midnightblue" points="746.85,-329 757.44,-328.46 748.82,-322.29 746.85,-329"/>
</g>
<!-- Node18 -->
<g id="node17" class="node">
<title>Node18</title>
<g id="a_node17"><a xlink:href="namespacediscretize__circle__dense.html#a87485189661519c83371b0afee042062" target="_top" xlink:title=" ">
<polygon fill="none" stroke="black" points="540,-317.5 540,-347.5 680,-347.5 680,-317.5 540,-317.5"/>
<text text-anchor="start" x="548" y="-335.5" font-family="Arial" font-size="10.00">discretize_circle_dense.print</text>
<text text-anchor="middle" x="610" y="-324.5" font-family="Arial" font-size="10.00">_point</text>
</a>
</g>
</g>
<!-- Node7&#45;&gt;Node18 -->
<g id="edge21" class="edge">
<title>Node7&#45;&gt;Node18</title>
<path fill="none" stroke="midnightblue" d="M747.09,-332.5C727.03,-332.5 702.72,-332.5 680.22,-332.5"/>
<polygon fill="midnightblue" stroke="midnightblue" points="747.16,-336 757.16,-332.5 747.16,-329 747.16,-336"/>
</g>
<!-- Node20 -->
<g id="node19" class="node">
<title>Node20</title>
<g id="a_node19"><a xlink:href="namespacediscretize__circle__equidist.html#ab0d8f135d7916dc34b4c46ebdb286a6d" target="_top" xlink:title=" ">
<polygon fill="none" stroke="black" points="536,-268.5 536,-298.5 684,-298.5 684,-268.5 536,-268.5"/>
<text text-anchor="start" x="544" y="-286.5" font-family="Arial" font-size="10.00">discretize_circle_equidist.print</text>
<text text-anchor="middle" x="610" y="-275.5" font-family="Arial" font-size="10.00">_point</text>
</a>
</g>
</g>
<!-- Node7&#45;&gt;Node20 -->
<g id="edge23" class="edge">
<title>Node7&#45;&gt;Node20</title>
<path fill="none" stroke="midnightblue" d="M747.45,-320.75C723.03,-314.08 692.2,-305.67 666.03,-298.52"/>
<polygon fill="midnightblue" stroke="midnightblue" points="746.59,-324.14 757.16,-323.4 748.43,-317.39 746.59,-324.14"/>
</g>
<!-- Node22 -->
<g id="node21" class="node">
<title>Node22</title>
<g id="a_node21"><a xlink:href="namespacediscretize__circle.html#a928fb73bf9b364938a20bab31dbadb2c" target="_top" xlink:title=" ">
<polygon fill="none" stroke="black" points="555.5,-219.5 555.5,-249.5 664.5,-249.5 664.5,-219.5 555.5,-219.5"/>
<text text-anchor="start" x="563.5" y="-237.5" font-family="Arial" font-size="10.00">discretize_circle.print</text>
<text text-anchor="middle" x="610" y="-226.5" font-family="Arial" font-size="10.00">_point</text>
</a>
</g>
</g>
<!-- Node7&#45;&gt;Node22 -->
<g id="edge25" class="edge">
<title>Node7&#45;&gt;Node22</title>
<path fill="none" stroke="midnightblue" d="M747.68,-322.63C738,-319.16 728.18,-314.56 720,-308.5 697.99,-292.2 706.09,-274.68 684,-258.5 678.19,-254.24 671.58,-250.71 664.77,-247.8"/>
<polygon fill="midnightblue" stroke="midnightblue" points="746.65,-325.98 757.24,-325.73 748.81,-319.32 746.65,-325.98"/>
</g>
<!-- Node23 -->
<g id="node22" class="node">
<title>Node23</title>
<g id="a_node22"><a xlink:href="namespacetest.html#ad42bc7bd3da5dce5ed3624b8fca7585f" target="_top" xlink:title="Perform test on taskflow.">
<polygon fill="none" stroke="black" points="367,-181 367,-200 462,-200 462,-181 367,-181"/>
<text text-anchor="middle" x="414.5" y="-188" font-family="Arial" font-size="10.00">test::testTaskflow</text>
</a>
</g>
</g>
<!-- Node7&#45;&gt;Node23 -->
<g id="edge28" class="edge">
<title>Node7&#45;&gt;Node23</title>
<path fill="none" stroke="midnightblue" d="M747.57,-324.88C737.47,-321.33 727.48,-316.13 720,-308.5 683.1,-270.86 726.26,-227 684,-195.5 612.79,-142.42 498.88,-165.57 445.25,-180.89"/>
<polygon fill="midnightblue" stroke="midnightblue" points="746.63,-328.25 757.22,-327.8 748.66,-321.55 746.63,-328.25"/>
</g>
<!-- Node11 -->
<g id="node11" class="node">
<title>Node11</title>
<g id="a_node11"><a xlink:href="namespaceproblem__setup.html#a64e067098e447f766d042476ef5abe85" target="_top" xlink:title=" ">
<polygon fill="none" stroke="black" points="359.5,-44.5 359.5,-74.5 469.5,-74.5 469.5,-44.5 359.5,-44.5"/>
<text text-anchor="start" x="367.5" y="-62.5" font-family="Arial" font-size="10.00">problem_setup.create</text>
<text text-anchor="middle" x="414.5" y="-51.5" font-family="Arial" font-size="10.00">_input_file</text>
</a>
</g>
</g>
<!-- Node10&#45;&gt;Node11 -->
<g id="edge12" class="edge">
<title>Node10&#45;&gt;Node11</title>
<path fill="none" stroke="midnightblue" d="M542.26,-91.6C518.53,-85.59 492.13,-78.9 469.59,-73.2"/>
<polygon fill="midnightblue" stroke="midnightblue" points="541.7,-95.07 552.25,-94.13 543.42,-88.28 541.7,-95.07"/>
</g>
<!-- Node13 -->
<g id="node13" class="node">
<title>Node13</title>
<g id="a_node13"><a xlink:href="namespaceproblem__setup.html#a147f310ff74124342d15ab356739883f" target="_top" xlink:title=" ">
<polygon fill="none" stroke="red" points="164.5,-126.5 164.5,-156.5 285.5,-156.5 285.5,-126.5 164.5,-126.5"/>
<text text-anchor="start" x="172.5" y="-144.5" font-family="Arial" font-size="10.00">problem_setup.generate</text>
<text text-anchor="middle" x="225" y="-133.5" font-family="Arial" font-size="10.00">_particle_gmsh_input</text>
</a>
</g>
</g>
<!-- Node10&#45;&gt;Node13 -->
<g id="edge19" class="edge">
<title>Node10&#45;&gt;Node13</title>
<path fill="none" stroke="midnightblue" d="M542.48,-125.18C528.53,-128.1 513.85,-130.76 500,-132.5 426.57,-141.71 341.25,-143.05 285.58,-142.69"/>
<polygon fill="midnightblue" stroke="midnightblue" points="543.46,-128.55 552.49,-123.01 541.98,-121.71 543.46,-128.55"/>
</g>
<!-- Node17 -->
<g id="node16" class="node">
<title>Node17</title>
<g id="a_node16"><a xlink:href="namespaceproblem__setup.html#afe2093a5361f65d4dbf617da0fd4b555" target="_top" xlink:title=" ">
<polygon fill="none" stroke="black" points="357,-93.5 357,-123.5 472,-123.5 472,-93.5 357,-93.5"/>
<text text-anchor="start" x="365" y="-111.5" font-family="Arial" font-size="10.00">problem_setup.particle</text>
<text text-anchor="middle" x="414.5" y="-100.5" font-family="Arial" font-size="10.00">_locations</text>
</a>
</g>
</g>
<!-- Node10&#45;&gt;Node17 -->
<g id="edge20" class="edge">
<title>Node10&#45;&gt;Node17</title>
<path fill="none" stroke="midnightblue" d="M542,-108.5C519.26,-108.5 494.1,-108.5 472.25,-108.5"/>
<polygon fill="midnightblue" stroke="midnightblue" points="542.25,-112 552.25,-108.5 542.25,-105 542.25,-112"/>
</g>
<!-- Node12 -->
<g id="node12" class="node">
<title>Node12</title>
<g id="a_node12"><a xlink:href="namespaceproblem__setup.html#aff5393227de056de45cfc082e05af1ca" target="_top" xlink:title=" ">
<polygon fill="none" stroke="black" points="157,-0.5 157,-30.5 293,-30.5 293,-0.5 157,-0.5"/>
<text text-anchor="start" x="165" y="-18.5" font-family="Arial" font-size="10.00">problem_setup.generate</text>
<text text-anchor="middle" x="225" y="-7.5" font-family="Arial" font-size="10.00">_drum_particle_gmsh_input</text>
</a>
</g>
</g>
<!-- Node11&#45;&gt;Node12 -->
<g id="edge13" class="edge">
<title>Node11&#45;&gt;Node12</title>
<path fill="none" stroke="midnightblue" d="M349.43,-44.46C330.25,-39.96 309.23,-35.03 290.05,-30.53"/>
<polygon fill="midnightblue" stroke="midnightblue" points="348.73,-47.9 359.27,-46.77 350.33,-41.08 348.73,-47.9"/>
</g>
<!-- Node11&#45;&gt;Node13 -->
<g id="edge14" class="edge">
<title>Node11&#45;&gt;Node13</title>
<path fill="none" stroke="midnightblue" d="M349.48,-74.82C342.42,-77.35 335.45,-80.23 329,-83.5 310.92,-92.66 310.37,-101.06 293,-111.5 283.93,-116.95 273.7,-122.02 264.02,-126.38"/>
<polygon fill="midnightblue" stroke="midnightblue" points="350.76,-78.09 359.13,-71.6 348.54,-71.45 350.76,-78.09"/>
</g>
<!-- Node15 -->
<g id="node14" class="node">
<title>Node15</title>
<g id="a_node14"><a xlink:href="namespaceproblem__setup.html#af51753c1e02e9634827a449ab8729d44" target="_top" xlink:title=" ">
<polygon fill="none" stroke="black" points="0,-60.5 0,-90.5 121,-90.5 121,-60.5 0,-60.5"/>
<text text-anchor="start" x="8" y="-78.5" font-family="Arial" font-size="10.00">problem_setup.generate</text>
<text text-anchor="middle" x="60.5" y="-67.5" font-family="Arial" font-size="10.00">_wall_gmsh_input</text>
</a>
</g>
</g>
<!-- Node11&#45;&gt;Node15 -->
<g id="edge17" class="edge">
<title>Node11&#45;&gt;Node15</title>
<path fill="none" stroke="midnightblue" d="M349.14,-62.43C284.09,-65.38 184.38,-69.91 121.09,-72.79"/>
<polygon fill="midnightblue" stroke="midnightblue" points="349.44,-65.92 359.27,-61.96 349.12,-58.92 349.44,-65.92"/>
</g>
<!-- Node16 -->
<g id="node15" class="node">
<title>Node16</title>
<g id="a_node15"><a xlink:href="namespaceproblem__setup.html#a767ffea81ffa775dc9aeb12b2e2a21a4" target="_top" xlink:title=" ">
<polygon fill="none" stroke="black" points="3,-117.5 3,-147.5 118,-147.5 118,-117.5 3,-117.5"/>
<text text-anchor="start" x="11" y="-135.5" font-family="Arial" font-size="10.00">problem_setup.particle</text>
<text text-anchor="middle" x="60.5" y="-124.5" font-family="Arial" font-size="10.00">_locations</text>
</a>
</g>
</g>
<!-- Node11&#45;&gt;Node16 -->
<g id="edge18" class="edge">
<title>Node11&#45;&gt;Node16</title>
<path fill="none" stroke="midnightblue" d="M349.39,-72.8C283.32,-86.5 181.31,-107.65 118.12,-120.76"/>
<polygon fill="midnightblue" stroke="midnightblue" points="350.19,-76.2 359.27,-70.75 348.77,-69.35 350.19,-76.2"/>
</g>
<!-- Node13&#45;&gt;Node15 -->
<g id="edge15" class="edge">
<title>Node13&#45;&gt;Node15</title>
<path fill="none" stroke="midnightblue" d="M177.42,-122.58C152.41,-112.42 122,-100.07 98.61,-90.57"/>
<polygon fill="midnightblue" stroke="midnightblue" points="176.14,-125.84 186.72,-126.36 178.77,-119.35 176.14,-125.84"/>
</g>
<!-- Node13&#45;&gt;Node16 -->
<g id="edge16" class="edge">
<title>Node13&#45;&gt;Node16</title>
<path fill="none" stroke="midnightblue" d="M154.36,-137.64C142.25,-136.97 129.8,-136.28 118.1,-135.64"/>
<polygon fill="midnightblue" stroke="midnightblue" points="154.24,-141.14 164.41,-138.2 154.62,-134.15 154.24,-141.14"/>
</g>
<!-- Node19 -->
<g id="node18" class="node">
<title>Node19</title>
<g id="a_node18"><a xlink:href="namespacediscretize__circle__dense.html#a2fdbc614933bc736a1b03f8f98808a18" target="_top" xlink:title=" ">
<polygon fill="none" stroke="black" points="332.5,-317.5 332.5,-347.5 496.5,-347.5 496.5,-317.5 332.5,-317.5"/>
<text text-anchor="start" x="340.5" y="-335.5" font-family="Arial" font-size="10.00">discretize_circle_dense.discretize</text>
<text text-anchor="middle" x="414.5" y="-324.5" font-family="Arial" font-size="10.00">_circle</text>
</a>
</g>
</g>
<!-- Node18&#45;&gt;Node19 -->
<g id="edge22" class="edge">
<title>Node18&#45;&gt;Node19</title>
<path fill="none" stroke="midnightblue" d="M529.66,-332.5C518.8,-332.5 507.63,-332.5 496.74,-332.5"/>
<polygon fill="midnightblue" stroke="midnightblue" points="529.96,-336 539.96,-332.5 529.96,-329 529.96,-336"/>
</g>
<!-- Node21 -->
<g id="node20" class="node">
<title>Node21</title>
<g id="a_node20"><a xlink:href="namespacediscretize__circle__equidist.html#a22f34fe206d5038c057766708d124bd1" target="_top" xlink:title=" ">
<polygon fill="none" stroke="black" points="329,-268.5 329,-298.5 500,-298.5 500,-268.5 329,-268.5"/>
<text text-anchor="start" x="337" y="-286.5" font-family="Arial" font-size="10.00">discretize_circle_equidist.discretize</text>
<text text-anchor="middle" x="414.5" y="-275.5" font-family="Arial" font-size="10.00">_circle</text>
</a>
</g>
</g>
<!-- Node20&#45;&gt;Node21 -->
<g id="edge24" class="edge">
<title>Node20&#45;&gt;Node21</title>
<path fill="none" stroke="midnightblue" d="M525.63,-283.5C517.18,-283.5 508.59,-283.5 500.12,-283.5"/>
<polygon fill="midnightblue" stroke="midnightblue" points="525.85,-287 535.85,-283.5 525.85,-280 525.85,-287"/>
</g>
<!-- Node22&#45;&gt;Node9 -->
<g id="edge26" class="edge">
<title>Node22&#45;&gt;Node9</title>
<path fill="none" stroke="midnightblue" d="M545.08,-234.5C524.38,-234.5 501.4,-234.5 480.61,-234.5"/>
<polygon fill="midnightblue" stroke="midnightblue" points="545.36,-238 555.36,-234.5 545.36,-231 545.36,-238"/>
</g>
<!-- Node23&#45;&gt;Node4 -->
<g id="edge29" class="edge">
<title>Node23&#45;&gt;Node4</title>
<path fill="none" stroke="midnightblue" d="M356.86,-197.66C347.1,-200.42 337.41,-204.24 329,-209.5 279.19,-240.66 243.11,-304.64 230.7,-328.89"/>
<polygon fill="midnightblue" stroke="midnightblue" points="357.73,-201.05 366.58,-195.24 356.03,-194.26 357.73,-201.05"/>
</g>
<!-- Node25&#45;&gt;Node3 -->
<g id="edge32" class="edge">
<title>Node25&#45;&gt;Node3</title>
<path fill="none" stroke="midnightblue" d="M720.08,-529.51C668.86,-526.09 597.92,-520.32 536,-511.5 507.49,-507.44 475.54,-500.99 451.71,-495.8"/>
<polygon fill="midnightblue" stroke="midnightblue" points="720.17,-533.02 730.38,-530.18 720.63,-526.04 720.17,-533.02"/>
</g>
<!-- Node26&#45;&gt;Node3 -->
<g id="edge34" class="edge">
<title>Node26&#45;&gt;Node3</title>
<path fill="none" stroke="midnightblue" d="M723.41,-484.88C710.49,-488.46 696.94,-491.6 684,-493.5 601.66,-505.6 503.6,-497.91 451.78,-492.14"/>
<polygon fill="midnightblue" stroke="midnightblue" points="724.52,-488.2 733.16,-482.06 722.58,-481.48 724.52,-488.2"/>
</g>
</g>
</svg>
