<?xml version="1.0" encoding="UTF-8" standalone="no"?>
<!DOCTYPE svg PUBLIC "-//W3C//DTD SVG 1.1//EN"
 "http://www.w3.org/Graphics/SVG/1.1/DTD/svg11.dtd">
<!-- Generated by graphviz version 2.43.0 (0)
 -->
<!-- Title: util::doubleGaussian2d Pages: 1 -->
<svg width="240pt" height="64pt"
 viewBox="0.00 0.00 240.00 64.00" xmlns="http://www.w3.org/2000/svg" xmlns:xlink="http://www.w3.org/1999/xlink">
<g id="graph0" class="graph" transform="scale(1 1) rotate(0) translate(4 60)">
<title>util::doubleGaussian2d</title>
<!-- Node1 -->
<g id="Node000001" class="node">
<title>Node1</title>
<g id="a_Node000001"><a xlink:title="Compute sum of two gaussian function in 2&#45;d.">
<polygon fill="#999999" stroke="#666666" points="116,-37 0,-37 0,-18 116,-18 116,-37"/>
<text text-anchor="middle" x="58" y="-25" font-family="Arial" font-size="10.00">util::doubleGaussian2d</text>
</a>
</g>
</g>
<!-- Node2 -->
<g id="Node000002" class="node">
<title>Node2</title>
<g id="a_Node000002"><a xlink:href="structutil_1_1Point.html#a131469f79fbf47c5c0e8ef0e3701f036" target="_top" xlink:title="Computes the distance between a given point from this point.">
<polygon fill="white" stroke="#666666" points="232,-56 152,-56 152,-37 232,-37 232,-56"/>
<text text-anchor="middle" x="192" y="-44" font-family="Arial" font-size="10.00">util::Point::dist</text>
</a>
</g>
</g>
<!-- Node1&#45;&gt;Node2 -->
<g id="edge1_Node000001_Node000002" class="edge">
<title>Node1&#45;&gt;Node2</title>
<g id="a_edge1_Node000001_Node000002"><a xlink:title=" ">
<path fill="none" stroke="#63b8ff" d="M116.13,-35.72C124.65,-36.95 133.37,-38.2 141.71,-39.41"/>
<polygon fill="#63b8ff" stroke="#63b8ff" points="141.26,-42.88 151.66,-40.84 142.26,-35.95 141.26,-42.88"/>
</a>
</g>
</g>
<!-- Node3 -->
<g id="Node000003" class="node">
<title>Node3</title>
<g id="a_Node000003"><a xlink:href="namespaceutil.html#a7d9f908b6b6183c833c54a85578d54a9" target="_top" xlink:title="Compute gaussian function in 1&#45;d.">
<polygon fill="white" stroke="#666666" points="229,-19 155,-19 155,0 229,0 229,-19"/>
<text text-anchor="middle" x="192" y="-7" font-family="Arial" font-size="10.00">util::gaussian</text>
</a>
</g>
</g>
<!-- Node1&#45;&gt;Node3 -->
<g id="edge2_Node000001_Node000003" class="edge">
<title>Node1&#45;&gt;Node3</title>
<g id="a_edge2_Node000001_Node000003"><a xlink:title=" ">
<path fill="none" stroke="#63b8ff" d="M116.13,-19.71C125.65,-18.41 135.41,-17.08 144.62,-15.82"/>
<polygon fill="#63b8ff" stroke="#63b8ff" points="145.3,-19.26 154.74,-14.44 144.36,-12.33 145.3,-19.26"/>
</a>
</g>
</g>
</g>
</svg>
