<?xml version="1.0" encoding="UTF-8" standalone="no"?>
<!DOCTYPE svg PUBLIC "-//W3C//DTD SVG 1.1//EN"
 "http://www.w3.org/Graphics/SVG/1.1/DTD/svg11.dtd">
<!-- Generated by graphviz version 2.43.0 (0)
 -->
<!-- Title: problem_setup.get_tri_protrusion_points_for_rectangle_wall_with_protrusion_and_opening Pages: 1 -->
<svg width="725pt" height="289pt"
 viewBox="0.00 0.00 725.00 289.00" xmlns="http://www.w3.org/2000/svg" xmlns:xlink="http://www.w3.org/1999/xlink">
<g id="graph0" class="graph" transform="scale(1 1) rotate(0) translate(4 285)">
<title>problem_setup.get_tri_protrusion_points_for_rectangle_wall_with_protrusion_and_opening</title>
<!-- Node1 -->
<g id="node1" class="node">
<title>Node1</title>
<g id="a_node1"><a xlink:title=" ">
<polygon fill="#bfbfbf" stroke="black" points="562,-115.5 562,-167.5 717,-167.5 717,-115.5 562,-115.5"/>
<text text-anchor="start" x="570" y="-155.5" font-family="Arial" font-size="10.00">problem_setup.get_tri</text>
<text text-anchor="start" x="570" y="-144.5" font-family="Arial" font-size="10.00">_protrusion_points_for</text>
<text text-anchor="start" x="570" y="-133.5" font-family="Arial" font-size="10.00">_rectangle_wall_with_protrusion</text>
<text text-anchor="middle" x="639.5" y="-122.5" font-family="Arial" font-size="10.00">_and_opening</text>
</a>
</g>
</g>
<!-- Node2 -->
<g id="node2" class="node">
<title>Node2</title>
<g id="a_node2"><a xlink:href="namespaceproblem__setup.html#a66cf6b889081b2c318eb0110057d83c9" target="_top" xlink:title=" ">
<polygon fill="none" stroke="black" points="395,-228.5 395,-280.5 526,-280.5 526,-228.5 395,-228.5"/>
<text text-anchor="start" x="403" y="-268.5" font-family="Arial" font-size="10.00">problem_setup.does</text>
<text text-anchor="start" x="403" y="-257.5" font-family="Arial" font-size="10.00">_intersect_with_rectangle</text>
<text text-anchor="start" x="403" y="-246.5" font-family="Arial" font-size="10.00">_wall_with_protrusion_and</text>
<text text-anchor="middle" x="460.5" y="-235.5" font-family="Arial" font-size="10.00">_opening</text>
</a>
</g>
</g>
<!-- Node1&#45;&gt;Node2 -->
<g id="edge1" class="edge">
<title>Node1&#45;&gt;Node2</title>
<path fill="none" stroke="midnightblue" d="M589.39,-172.98C569.69,-185.59 546.78,-200.25 526,-213.5 518.39,-218.35 510.28,-223.52 502.46,-228.49"/>
<polygon fill="midnightblue" stroke="midnightblue" points="591.37,-175.87 597.9,-167.52 587.59,-169.97 591.37,-175.87"/>
</g>
<!-- Node3 -->
<g id="node3" class="node">
<title>Node3</title>
<g id="a_node3"><a xlink:href="namespaceproblem__setup.html#a91bf08b893f31c7d232346b6178f0a98" target="_top" xlink:title=" ">
<polygon fill="none" stroke="black" points="202.5,-190 202.5,-209 331.5,-209 331.5,-190 202.5,-190"/>
<text text-anchor="middle" x="267" y="-197" font-family="Arial" font-size="10.00">problem_setup.get_center</text>
</a>
</g>
</g>
<!-- Node1&#45;&gt;Node3 -->
<g id="edge9" class="edge">
<title>Node1&#45;&gt;Node3</title>
<path fill="none" stroke="midnightblue" d="M552.03,-169.53C543.3,-171.79 534.51,-173.84 526,-175.5 460.44,-188.32 384.12,-194.34 331.59,-197.14"/>
<polygon fill="midnightblue" stroke="midnightblue" points="553.1,-172.86 561.86,-166.89 551.29,-166.1 553.1,-172.86"/>
</g>
<!-- Node4 -->
<g id="node4" class="node">
<title>Node4</title>
<g id="a_node4"><a xlink:href="namespaceproblem__setup.html#aa86d439a2a3be267e8af3fe687016583" target="_top" xlink:title=" ">
<polygon fill="none" stroke="black" points="0,-97.5 0,-127.5 139,-127.5 139,-97.5 0,-97.5"/>
<text text-anchor="start" x="8" y="-115.5" font-family="Arial" font-size="10.00">problem_setup.generate</text>
<text text-anchor="middle" x="69.5" y="-104.5" font-family="Arial" font-size="10.00">_rect_container_gmsh_input</text>
</a>
</g>
</g>
<!-- Node1&#45;&gt;Node4 -->
<g id="edge4" class="edge">
<title>Node1&#45;&gt;Node4</title>
<path fill="none" stroke="midnightblue" d="M551.79,-148.97C458.29,-155.34 305.32,-160.84 175,-142.5 154.07,-139.55 131.45,-133.44 112.62,-127.5"/>
<polygon fill="midnightblue" stroke="midnightblue" points="552.04,-152.46 561.77,-148.27 551.55,-145.48 552.04,-152.46"/>
</g>
<!-- Node5 -->
<g id="node5" class="node">
<title>Node5</title>
<g id="a_node5"><a xlink:href="namespaceproblem__setup.html#af2a3517f0f6e0d54303c7b67043b3ef6" target="_top" xlink:title=" ">
<polygon fill="none" stroke="black" points="175,-92 175,-133 359,-133 359,-92 175,-92"/>
<text text-anchor="start" x="183" y="-121" font-family="Arial" font-size="10.00">problem_setup.generate</text>
<text text-anchor="start" x="183" y="-110" font-family="Arial" font-size="10.00">_rectangle_with_protrusion</text>
<text text-anchor="middle" x="267" y="-99" font-family="Arial" font-size="10.00">_and_opening_wall_gmsh_input_type2</text>
</a>
</g>
</g>
<!-- Node1&#45;&gt;Node5 -->
<g id="edge5" class="edge">
<title>Node1&#45;&gt;Node5</title>
<path fill="none" stroke="midnightblue" d="M551.51,-134.69C493.63,-130.16 417.75,-124.22 359.06,-119.63"/>
<polygon fill="midnightblue" stroke="midnightblue" points="551.49,-138.2 561.73,-135.49 552.04,-131.22 551.49,-138.2"/>
</g>
<!-- Node6 -->
<g id="node6" class="node">
<title>Node6</title>
<g id="a_node6"><a xlink:href="namespaceproblem__setup.html#ab2d86f4fe187ef9b78d1ad4ea438b98b" target="_top" xlink:title=" ">
<polygon fill="none" stroke="black" points="175,-32 175,-73 359,-73 359,-32 175,-32"/>
<text text-anchor="start" x="183" y="-61" font-family="Arial" font-size="10.00">problem_setup.generate</text>
<text text-anchor="start" x="183" y="-50" font-family="Arial" font-size="10.00">_rectangle_with_protrusion</text>
<text text-anchor="middle" x="267" y="-39" font-family="Arial" font-size="10.00">_and_opening_wall_gmsh_input_type3</text>
</a>
</g>
</g>
<!-- Node1&#45;&gt;Node6 -->
<g id="edge7" class="edge">
<title>Node1&#45;&gt;Node6</title>
<path fill="none" stroke="midnightblue" d="M551.93,-120.7C492.13,-106.34 412.95,-87.32 353.41,-73.02"/>
<polygon fill="midnightblue" stroke="midnightblue" points="551.19,-124.13 561.73,-123.06 552.83,-117.32 551.19,-124.13"/>
</g>
<!-- Node7 -->
<g id="node7" class="node">
<title>Node7</title>
<g id="a_node7"><a xlink:href="namespaceproblem__setup.html#aecb6453b01b712d9b03efbcdf8f317e5" target="_top" xlink:title=" ">
<polygon fill="none" stroke="black" points="401,-0.5 401,-30.5 520,-30.5 520,-0.5 401,-0.5"/>
<text text-anchor="start" x="409" y="-18.5" font-family="Arial" font-size="10.00">problem_setup.serialize</text>
<text text-anchor="middle" x="460.5" y="-7.5" font-family="Arial" font-size="10.00">_matrix_list</text>
</a>
</g>
</g>
<!-- Node1&#45;&gt;Node7 -->
<g id="edge10" class="edge">
<title>Node1&#45;&gt;Node7</title>
<path fill="none" stroke="midnightblue" d="M595.8,-109.25C574.92,-93.68 549.33,-74.87 526,-58.5 512.45,-48.99 497.03,-38.69 484.67,-30.56"/>
<polygon fill="midnightblue" stroke="midnightblue" points="593.74,-112.09 603.85,-115.27 597.93,-106.48 593.74,-112.09"/>
</g>
<!-- Node2&#45;&gt;Node3 -->
<g id="edge2" class="edge">
<title>Node2&#45;&gt;Node3</title>
<path fill="none" stroke="midnightblue" d="M385.2,-233.16C356.13,-224.81 324.29,-215.67 301.14,-209.02"/>
<polygon fill="midnightblue" stroke="midnightblue" points="384.36,-236.56 394.93,-235.96 386.29,-229.83 384.36,-236.56"/>
</g>
<!-- Node3&#45;&gt;Node4 -->
<g id="edge3" class="edge">
<title>Node3&#45;&gt;Node4</title>
<path fill="none" stroke="midnightblue" d="M209.65,-187.32C197.99,-184.06 185.93,-180.12 175,-175.5 144.37,-162.54 112,-141.78 91.55,-127.66"/>
<polygon fill="midnightblue" stroke="midnightblue" points="208.76,-190.7 219.32,-189.9 210.56,-183.94 208.76,-190.7"/>
</g>
<!-- Node5&#45;&gt;Node4 -->
<g id="edge6" class="edge">
<title>Node5&#45;&gt;Node4</title>
<path fill="none" stroke="midnightblue" d="M164.65,-112.5C155.98,-112.5 147.35,-112.5 139.03,-112.5"/>
<polygon fill="midnightblue" stroke="midnightblue" points="164.83,-116 174.83,-112.5 164.83,-109 164.83,-116"/>
</g>
<!-- Node6&#45;&gt;Node4 -->
<g id="edge8" class="edge">
<title>Node6&#45;&gt;Node4</title>
<path fill="none" stroke="midnightblue" d="M189.39,-76.01C165.88,-83.23 140.66,-90.97 119.52,-97.46"/>
<polygon fill="midnightblue" stroke="midnightblue" points="190.46,-79.34 198.99,-73.06 188.41,-72.65 190.46,-79.34"/>
</g>
<!-- Node7&#45;&gt;Node4 -->
<g id="edge11" class="edge">
<title>Node7&#45;&gt;Node4</title>
<path fill="none" stroke="midnightblue" d="M390.88,-4.59C331.65,1.92 244.84,4.41 175,-22.5 135.01,-37.91 99.85,-75.77 82.32,-97.15"/>
<polygon fill="midnightblue" stroke="midnightblue" points="390.54,-8.08 400.88,-5.76 391.35,-1.12 390.54,-8.08"/>
</g>
</g>
</svg>
