<?xml version="1.0" encoding="UTF-8" standalone="no"?>
<!DOCTYPE svg PUBLIC "-//W3C//DTD SVG 1.1//EN"
 "http://www.w3.org/Graphics/SVG/1.1/DTD/svg11.dtd">
<!-- Generated by graphviz version 2.43.0 (0)
 -->
<!-- Title: problem_setup.get_ref_drum_points Pages: 1 -->
<svg width="863pt" height="867pt"
 viewBox="0.00 0.00 863.00 867.00" xmlns="http://www.w3.org/2000/svg" xmlns:xlink="http://www.w3.org/1999/xlink">
<g id="graph0" class="graph" transform="scale(1 1) rotate(0) translate(4 863)">
<title>problem_setup.get_ref_drum_points</title>
<!-- Node1 -->
<g id="Node000001" class="node">
<title>Node1</title>
<g id="a_Node000001"><a xlink:title=" ">
<polygon fill="#999999" stroke="#666666" points="855,-197 742,-197 742,-167 855,-167 855,-197"/>
<text text-anchor="start" x="750" y="-185" font-family="Arial" font-size="10.00">problem_setup.get_ref</text>
<text text-anchor="middle" x="798.5" y="-174" font-family="Arial" font-size="10.00">_drum_points</text>
</a>
</g>
</g>
<!-- Node2 -->
<g id="Node000002" class="node">
<title>Node2</title>
<g id="a_Node000002"><a xlink:href="namespaceproblem__setup.html#af9b7fe599289ca784b2fb5033b45f555" target="_top" xlink:title=" ">
<polygon fill="white" stroke="#666666" points="698.5,-841 567.5,-841 567.5,-789 698.5,-789 698.5,-841"/>
<text text-anchor="start" x="575.5" y="-829" font-family="Arial" font-size="10.00">problem_setup.does</text>
<text text-anchor="start" x="575.5" y="-818" font-family="Arial" font-size="10.00">_intersect_with_rectangle</text>
<text text-anchor="start" x="575.5" y="-807" font-family="Arial" font-size="10.00">_wall_with_protrusion_and</text>
<text text-anchor="middle" x="633" y="-796" font-family="Arial" font-size="10.00">_opening</text>
</a>
</g>
</g>
<!-- Node1&#45;&gt;Node2 -->
<g id="edge1_Node000001_Node000002" class="edge">
<title>Node1&#45;&gt;Node2</title>
<g id="a_edge1_Node000001_Node000002"><a xlink:title=" ">
<path fill="none" stroke="#63b8ff" d="M796.51,-207.3C792.13,-308.16 771.71,-680.66 706,-775 702.4,-780.16 697.92,-784.73 692.95,-788.76"/>
<polygon fill="#63b8ff" stroke="#63b8ff" points="800.01,-207.27 796.94,-197.13 793.02,-206.98 800.01,-207.27"/>
</a>
</g>
</g>
<!-- Node3 -->
<g id="Node000003" class="node">
<title>Node3</title>
<g id="a_Node000003"><a xlink:href="namespaceproblem__setup.html#a0f7d40f23d1b185984a76d97e00f706b" target="_top" xlink:title=" ">
<polygon fill="white" stroke="#666666" points="524,-775.5 395,-775.5 395,-756.5 524,-756.5 524,-775.5"/>
<text text-anchor="middle" x="459.5" y="-763.5" font-family="Arial" font-size="10.00">problem_setup.get_center</text>
</a>
</g>
</g>
<!-- Node1&#45;&gt;Node3 -->
<g id="edge35_Node000001_Node000003" class="edge">
<title>Node1&#45;&gt;Node3</title>
<g id="a_edge35_Node000001_Node000003"><a xlink:title=" ">
<path fill="none" stroke="#63b8ff" d="M797.19,-207.41C795.42,-306.18 783.68,-662.8 706,-737 680.71,-761.16 588.09,-766.31 524.14,-766.86"/>
<polygon fill="#63b8ff" stroke="#63b8ff" points="800.69,-207.22 797.35,-197.17 793.69,-207.11 800.69,-207.22"/>
</a>
</g>
</g>
<!-- Node5 -->
<g id="Node000005" class="node">
<title>Node5</title>
<g id="a_Node000005"><a xlink:href="namespaceproblem__setup.html#a1fec8dd536ff2dc0499259901333ee04" target="_top" xlink:title=" ">
<polygon fill="white" stroke="#666666" points="324.5,-743 209.5,-743 209.5,-713 324.5,-713 324.5,-743"/>
<text text-anchor="start" x="217.5" y="-731" font-family="Arial" font-size="10.00">problem_setup.particle</text>
<text text-anchor="middle" x="267" y="-720" font-family="Arial" font-size="10.00">_locations_old</text>
</a>
</g>
</g>
<!-- Node1&#45;&gt;Node5 -->
<g id="edge38_Node000001_Node000005" class="edge">
<title>Node1&#45;&gt;Node5</title>
<g id="a_edge38_Node000001_Node000005"><a xlink:title=" ">
<path fill="none" stroke="#63b8ff" d="M790.13,-206.79C776.95,-249.13 746.81,-337.29 706,-404 641.02,-510.22 624.05,-542.88 524,-617 460.94,-663.71 375.18,-695.76 320.69,-712.99"/>
<polygon fill="#63b8ff" stroke="#63b8ff" points="793.54,-207.64 793.12,-197.05 786.84,-205.59 793.54,-207.64"/>
</a>
</g>
</g>
<!-- Node6 -->
<g id="Node000006" class="node">
<title>Node6</title>
<g id="a_Node000006"><a xlink:href="namespaceproblem__setup.html#ac393fca6489747e8fce08894e6d0ebbd" target="_top" xlink:title=" ">
<polygon fill="white" stroke="#666666" points="706,-395 560,-395 560,-365 706,-365 706,-395"/>
<text text-anchor="start" x="568" y="-383" font-family="Arial" font-size="10.00">problem_setup.generate</text>
<text text-anchor="middle" x="633" y="-372" font-family="Arial" font-size="10.00">_drum2d_particle_gmsh_input</text>
</a>
</g>
</g>
<!-- Node1&#45;&gt;Node6 -->
<g id="edge7_Node000001_Node000006" class="edge">
<title>Node1&#45;&gt;Node6</title>
<g id="a_edge7_Node000001_Node000006"><a xlink:title=" ">
<path fill="none" stroke="#63b8ff" d="M778.5,-205.01C744.72,-245.91 675.11,-330.21 646.6,-364.74"/>
<polygon fill="#63b8ff" stroke="#63b8ff" points="781.27,-207.15 784.94,-197.21 775.88,-202.69 781.27,-207.15"/>
</a>
</g>
</g>
<!-- Node9 -->
<g id="Node000009" class="node">
<title>Node9</title>
<g id="a_Node000009"><a xlink:href="namespaceproblem__setup.html#a0309e4ef640896d0611c7626b8273f19" target="_top" xlink:title=" ">
<polygon fill="white" stroke="#666666" points="335,-183 199,-183 199,-153 335,-153 335,-183"/>
<text text-anchor="start" x="207" y="-171" font-family="Arial" font-size="10.00">problem_setup.generate</text>
<text text-anchor="middle" x="267" y="-160" font-family="Arial" font-size="10.00">_drum_particle_gmsh_input</text>
</a>
</g>
</g>
<!-- Node1&#45;&gt;Node9 -->
<g id="edge33_Node000001_Node000009" class="edge">
<title>Node1&#45;&gt;Node9</title>
<g id="a_edge33_Node000001_Node000009"><a xlink:title=" ">
<path fill="none" stroke="#63b8ff" d="M731.74,-180.26C630.49,-177.58 437.48,-172.48 335.31,-169.78"/>
<polygon fill="#63b8ff" stroke="#63b8ff" points="731.75,-183.76 741.84,-180.53 731.93,-176.77 731.75,-183.76"/>
</a>
</g>
</g>
<!-- Node14 -->
<g id="Node000014" class="node">
<title>Node14</title>
<g id="a_Node000014"><a xlink:href="namespaceproblem__setup.html#ac5b70eb483dcc46be564cfc382ca08ef" target="_top" xlink:title=" ">
<polygon fill="white" stroke="#666666" points="127,-322 12,-322 12,-292 127,-292 127,-322"/>
<text text-anchor="start" x="20" y="-310" font-family="Arial" font-size="10.00">problem_setup.particle</text>
<text text-anchor="middle" x="69.5" y="-299" font-family="Arial" font-size="10.00">_locations_orient</text>
</a>
</g>
</g>
<!-- Node1&#45;&gt;Node14 -->
<g id="edge39_Node000001_Node000014" class="edge">
<title>Node1&#45;&gt;Node14</title>
<g id="a_edge39_Node000001_Node000014"><a xlink:title=" ">
<path fill="none" stroke="#63b8ff" d="M737.49,-164.06C600.29,-124.56 268.37,-38.05 175,-96 102.93,-140.73 79.04,-251.57 72.57,-291.97"/>
<polygon fill="#63b8ff" stroke="#63b8ff" points="736.83,-167.52 747.41,-166.93 738.78,-160.79 736.83,-167.52"/>
</a>
</g>
</g>
<!-- Node16 -->
<g id="Node000016" class="node">
<title>Node16</title>
<g id="a_Node000016"><a xlink:href="namespaceproblem__setup.html#a38db49e0a85dd22e69cae23f7f92435f" target="_top" xlink:title=" ">
<polygon fill="white" stroke="#666666" points="324.5,-135 209.5,-135 209.5,-105 324.5,-105 324.5,-135"/>
<text text-anchor="start" x="217.5" y="-123" font-family="Arial" font-size="10.00">problem_setup.particle</text>
<text text-anchor="middle" x="267" y="-112" font-family="Arial" font-size="10.00">_locations</text>
</a>
</g>
</g>
<!-- Node1&#45;&gt;Node16 -->
<g id="edge37_Node000001_Node000016" class="edge">
<title>Node1&#45;&gt;Node16</title>
<g id="a_edge37_Node000001_Node000016"><a xlink:title=" ">
<path fill="none" stroke="#63b8ff" d="M731.69,-174.29C626.74,-162.01 423.28,-138.18 324.51,-126.62"/>
<polygon fill="#63b8ff" stroke="#63b8ff" points="731.5,-177.8 741.84,-175.48 732.31,-170.84 731.5,-177.8"/>
</a>
</g>
</g>
<!-- Node17 -->
<g id="Node000017" class="node">
<title>Node17</title>
<g id="a_Node000017"><a xlink:href="namespaceproblem__setup.html#af506fbfffc76ecbdf9833c756777b675" target="_top" xlink:title=" ">
<polygon fill="white" stroke="#666666" points="693.5,-78 572.5,-78 572.5,-48 693.5,-48 693.5,-78"/>
<text text-anchor="start" x="580.5" y="-66" font-family="Arial" font-size="10.00">problem_setup.generate</text>
<text text-anchor="middle" x="633" y="-55" font-family="Arial" font-size="10.00">_particle_gmsh_input</text>
</a>
</g>
</g>
<!-- Node1&#45;&gt;Node17 -->
<g id="edge34_Node000001_Node000017" class="edge">
<title>Node1&#45;&gt;Node17</title>
<g id="a_edge34_Node000001_Node000017"><a xlink:title=" ">
<path fill="none" stroke="#63b8ff" d="M778.81,-159.06C761.6,-139.16 734.5,-110.67 706,-92 697.77,-86.61 688.38,-81.93 679.16,-78.01"/>
<polygon fill="#63b8ff" stroke="#63b8ff" points="776.19,-161.39 785.33,-166.75 781.53,-156.86 776.19,-161.39"/>
</a>
</g>
</g>
<!-- Node18 -->
<g id="Node000018" class="node">
<title>Node18</title>
<g id="a_Node000018"><a xlink:href="namespaceproblem__setup.html#aea678eaa9149fe7e9246bc2776c4213b" target="_top" xlink:title=" ">
<polygon fill="white" stroke="#666666" points="690.5,-30 575.5,-30 575.5,0 690.5,0 690.5,-30"/>
<text text-anchor="start" x="583.5" y="-18" font-family="Arial" font-size="10.00">problem_setup.particle</text>
<text text-anchor="middle" x="633" y="-7" font-family="Arial" font-size="10.00">_locations</text>
</a>
</g>
</g>
<!-- Node1&#45;&gt;Node18 -->
<g id="edge36_Node000001_Node000018" class="edge">
<title>Node1&#45;&gt;Node18</title>
<g id="a_edge36_Node000001_Node000018"><a xlink:title=" ">
<path fill="none" stroke="#63b8ff" d="M787.84,-157.17C774.24,-125.34 746.5,-70.54 706,-39 701.32,-35.36 696.06,-32.25 690.57,-29.61"/>
<polygon fill="#63b8ff" stroke="#63b8ff" points="784.7,-158.73 791.76,-166.63 791.17,-156.05 784.7,-158.73"/>
</a>
</g>
</g>
<!-- Node2&#45;&gt;Node2 -->
<g id="edge2_Node000002_Node000002" class="edge">
<title>Node2&#45;&gt;Node2</title>
<g id="a_edge2_Node000002_Node000002"><a xlink:title=" ">
<path fill="none" stroke="#63b8ff" d="M660.41,-850.76C655.89,-855.7 646.75,-859 633,-859 611.54,-859 601.31,-850.96 602.32,-841.2"/>
<polygon fill="#63b8ff" stroke="#63b8ff" points="663.76,-851.79 663.68,-841.2 657.14,-849.53 663.76,-851.79"/>
</a>
</g>
</g>
<!-- Node2&#45;&gt;Node3 -->
<g id="edge3_Node000002_Node000003" class="edge">
<title>Node2&#45;&gt;Node3</title>
<g id="a_edge3_Node000002_Node000003"><a xlink:title=" ">
<path fill="none" stroke="#63b8ff" d="M557.45,-793.7C535.37,-787.39 512.28,-780.8 494.18,-775.62"/>
<polygon fill="#63b8ff" stroke="#63b8ff" points="556.59,-797.09 567.16,-796.48 558.51,-790.36 556.59,-797.09"/>
</a>
</g>
</g>
<!-- Node4 -->
<g id="Node000004" class="node">
<title>Node4</title>
<g id="a_Node000004"><a xlink:href="namespaceproblem__setup.html#ab77cd691be605123ba53961f21c8885a" target="_top" xlink:title=" ">
<polygon fill="white" stroke="#666666" points="139,-615 0,-615 0,-585 139,-585 139,-615"/>
<text text-anchor="start" x="8" y="-603" font-family="Arial" font-size="10.00">problem_setup.generate</text>
<text text-anchor="middle" x="69.5" y="-592" font-family="Arial" font-size="10.00">_rect_container_gmsh_input</text>
</a>
</g>
</g>
<!-- Node3&#45;&gt;Node4 -->
<g id="edge4_Node000003_Node000004" class="edge">
<title>Node3&#45;&gt;Node4</title>
<g id="a_edge4_Node000003_Node000004"><a xlink:title=" ">
<path fill="none" stroke="#63b8ff" d="M402.59,-777.09C342.37,-786.03 245.68,-791.44 175,-752 119.63,-721.11 87.4,-647.07 75.63,-615.11"/>
<polygon fill="#63b8ff" stroke="#63b8ff" points="403.33,-780.52 412.67,-775.51 402.24,-773.6 403.33,-780.52"/>
</a>
</g>
</g>
<!-- Node3&#45;&gt;Node5 -->
<g id="edge6_Node000003_Node000005" class="edge">
<title>Node3&#45;&gt;Node5</title>
<g id="a_edge6_Node000003_Node000005"><a xlink:title=" ">
<path fill="none" stroke="#63b8ff" d="M400.36,-754.4C376.27,-749.6 348.43,-744.04 324.52,-739.27"/>
<polygon fill="#63b8ff" stroke="#63b8ff" points="399.94,-757.89 410.43,-756.41 401.31,-751.02 399.94,-757.89"/>
</a>
</g>
</g>
<!-- Node4&#45;&gt;Node4 -->
<g id="edge5_Node000004_Node000004" class="edge">
<title>Node4&#45;&gt;Node4</title>
<g id="a_edge5_Node000004_Node000004"><a xlink:title=" ">
<path fill="none" stroke="#63b8ff" d="M103.81,-625.6C99.12,-629.97 87.68,-633 69.5,-633 38.88,-633 27.39,-624.41 35.05,-615.28"/>
<polygon fill="#63b8ff" stroke="#63b8ff" points="107.31,-625.32 103.95,-615.28 100.31,-625.22 107.31,-625.32"/>
</a>
</g>
</g>
<!-- Node6&#45;&gt;Node4 -->
<g id="edge30_Node000006_Node000004" class="edge">
<title>Node6&#45;&gt;Node4</title>
<g id="a_edge30_Node000006_Node000004"><a xlink:title=" ">
<path fill="none" stroke="#63b8ff" d="M620.72,-404.31C603.48,-439.69 567.9,-506.13 524,-552 462.37,-616.4 444.09,-639.46 359,-666 280.93,-690.35 253.56,-688.73 175,-666 140.78,-656.1 107,-631.29 87.48,-615.07"/>
<polygon fill="#63b8ff" stroke="#63b8ff" points="623.92,-405.73 625.09,-395.2 617.61,-402.7 623.92,-405.73"/>
</a>
</g>
</g>
<!-- Node7 -->
<g id="Node000007" class="node">
<title>Node7</title>
<g id="a_Node000007"><a xlink:href="namespaceproblem__setup.html#a8ed53bd44082cee1b5381115a87451e2" target="_top" xlink:title=" ">
<polygon fill="white" stroke="#666666" points="514.5,-395 404.5,-395 404.5,-365 514.5,-365 514.5,-395"/>
<text text-anchor="start" x="412.5" y="-383" font-family="Arial" font-size="10.00">problem_setup.create</text>
<text text-anchor="middle" x="459.5" y="-372" font-family="Arial" font-size="10.00">_input_file</text>
</a>
</g>
</g>
<!-- Node6&#45;&gt;Node7 -->
<g id="edge8_Node000006_Node000007" class="edge">
<title>Node6&#45;&gt;Node7</title>
<g id="a_edge8_Node000006_Node000007"><a xlink:title=" ">
<path fill="none" stroke="#63b8ff" d="M549.43,-380C537.63,-380 525.74,-380 514.67,-380"/>
<polygon fill="#63b8ff" stroke="#63b8ff" points="549.77,-383.5 559.77,-380 549.77,-376.5 549.77,-383.5"/>
</a>
</g>
</g>
<!-- Node8 -->
<g id="Node000008" class="node">
<title>Node8</title>
<g id="a_Node000008"><a xlink:href="namespaceproblem__setup.html#ad8435164bcbd3345621bebc22e38b3d6" target="_top" xlink:title=" ">
<polygon fill="white" stroke="#666666" points="338.5,-639 195.5,-639 195.5,-609 338.5,-609 338.5,-639"/>
<text text-anchor="start" x="203.5" y="-627" font-family="Arial" font-size="10.00">problem_setup.generate</text>
<text text-anchor="middle" x="267" y="-616" font-family="Arial" font-size="10.00">_cylindrical_wall_gmsh_input</text>
</a>
</g>
</g>
<!-- Node6&#45;&gt;Node8 -->
<g id="edge28_Node000006_Node000008" class="edge">
<title>Node6&#45;&gt;Node8</title>
<g id="a_edge28_Node000006_Node000008"><a xlink:title=" ">
<path fill="none" stroke="#63b8ff" d="M612.67,-403.22C592.08,-427.2 557.84,-464.98 524,-493 456.68,-548.75 438.93,-564.63 359,-600 351.38,-603.37 343.18,-606.35 334.94,-608.96"/>
<polygon fill="#63b8ff" stroke="#63b8ff" points="615.55,-405.23 619.36,-395.35 610.22,-400.7 615.55,-405.23"/>
</a>
</g>
</g>
<!-- Node10 -->
<g id="Node000010" class="node">
<title>Node10</title>
<g id="a_Node000010"><a xlink:href="namespaceproblem__setup.html#a16a9d169ecf04b1a867bec4dbf274c01" target="_top" xlink:title=" ">
<polygon fill="white" stroke="#666666" points="343.5,-573 190.5,-573 190.5,-543 343.5,-543 343.5,-573"/>
<text text-anchor="start" x="198.5" y="-561" font-family="Arial" font-size="10.00">problem_setup.generate</text>
<text text-anchor="middle" x="267" y="-550" font-family="Arial" font-size="10.00">_moving_rect_wall_gmsh_input</text>
</a>
</g>
</g>
<!-- Node6&#45;&gt;Node10 -->
<g id="edge29_Node000006_Node000010" class="edge">
<title>Node6&#45;&gt;Node10</title>
<g id="a_edge29_Node000006_Node000010"><a xlink:title=" ">
<path fill="none" stroke="#63b8ff" d="M599.15,-400.62C548.88,-431.55 449.21,-490.43 359,-529 346.96,-534.15 333.68,-538.88 321.08,-542.97"/>
<polygon fill="#63b8ff" stroke="#63b8ff" points="601.28,-403.42 607.95,-395.19 597.6,-397.47 601.28,-403.42"/>
</a>
</g>
</g>
<!-- Node15 -->
<g id="Node000015" class="node">
<title>Node15</title>
<g id="a_Node000015"><a xlink:href="namespaceproblem__setup.html#a8e72848abab104858c2a4647079140ed" target="_top" xlink:title=" ">
<polygon fill="white" stroke="#666666" points="359,-260.5 175,-260.5 175,-219.5 359,-219.5 359,-260.5"/>
<text text-anchor="start" x="183" y="-248.5" font-family="Arial" font-size="10.00">problem_setup.generate</text>
<text text-anchor="start" x="183" y="-237.5" font-family="Arial" font-size="10.00">_rectangle_with_protrusion</text>
<text text-anchor="middle" x="267" y="-226.5" font-family="Arial" font-size="10.00">_and_opening_wall_gmsh_input_type3</text>
</a>
</g>
</g>
<!-- Node6&#45;&gt;Node15 -->
<g id="edge31_Node000006_Node000015" class="edge">
<title>Node6&#45;&gt;Node15</title>
<g id="a_edge31_Node000006_Node000015"><a xlink:title=" ">
<path fill="none" stroke="#63b8ff" d="M583.06,-361.18C514.94,-334.98 392,-287.69 321.52,-260.59"/>
<polygon fill="#63b8ff" stroke="#63b8ff" points="582.11,-364.56 592.7,-364.88 584.62,-358.03 582.11,-364.56"/>
</a>
</g>
</g>
<!-- Node6&#45;&gt;Node16 -->
<g id="edge32_Node000006_Node000016" class="edge">
<title>Node6&#45;&gt;Node16</title>
<g id="a_edge32_Node000006_Node000016"><a xlink:title=" ">
<path fill="none" stroke="#63b8ff" d="M612.38,-357.12C570.66,-309.95 468,-201.49 359,-144 348.45,-138.44 336.52,-134.09 324.85,-130.73"/>
<polygon fill="#63b8ff" stroke="#63b8ff" points="610,-359.72 619.22,-364.93 615.27,-355.11 610,-359.72"/>
</a>
</g>
</g>
<!-- Node7&#45;&gt;Node4 -->
<g id="edge21_Node000007_Node000004" class="edge">
<title>Node7&#45;&gt;Node4</title>
<g id="a_edge21_Node000007_Node000004"><a xlink:title=" ">
<path fill="none" stroke="#63b8ff" d="M433.45,-402.16C421.24,-413.51 406.7,-427.9 395,-442 376.58,-464.2 382.92,-479.87 359,-496 289.76,-542.68 252.44,-502.76 175,-534 142.96,-546.93 109.89,-569.7 89.76,-584.82"/>
<polygon fill="#63b8ff" stroke="#63b8ff" points="436.07,-404.5 441.08,-395.16 431.35,-399.34 436.07,-404.5"/>
</a>
</g>
</g>
<!-- Node7&#45;&gt;Node8 -->
<g id="edge9_Node000007_Node000008" class="edge">
<title>Node7&#45;&gt;Node8</title>
<g id="a_edge9_Node000007_Node000008"><a xlink:title=" ">
<path fill="none" stroke="#63b8ff" d="M450.34,-404.74C432.82,-456.41 390.67,-573.22 359,-600 353.01,-605.06 346.07,-609.07 338.74,-612.24"/>
<polygon fill="#63b8ff" stroke="#63b8ff" points="453.73,-405.63 453.59,-395.04 447.09,-403.4 453.73,-405.63"/>
</a>
</g>
</g>
<!-- Node7&#45;&gt;Node9 -->
<g id="edge11_Node000007_Node000009" class="edge">
<title>Node7&#45;&gt;Node9</title>
<g id="a_edge11_Node000007_Node000009"><a xlink:title=" ">
<path fill="none" stroke="#63b8ff" d="M440.78,-356.36C427.39,-337.96 408.98,-311.52 395,-287 376.29,-254.18 385.78,-236.65 359,-210 347.28,-198.34 331.73,-189.55 316.8,-183.11"/>
<polygon fill="#63b8ff" stroke="#63b8ff" points="438.17,-358.72 446.92,-364.7 443.81,-354.57 438.17,-358.72"/>
</a>
</g>
</g>
<!-- Node7&#45;&gt;Node10 -->
<g id="edge13_Node000007_Node000010" class="edge">
<title>Node7&#45;&gt;Node10</title>
<g id="a_edge13_Node000007_Node000010"><a xlink:title=" ">
<path fill="none" stroke="#63b8ff" d="M439.08,-402.94C425.92,-418.98 408.53,-441.17 395,-462 376.59,-490.35 385,-507.4 359,-529 352.24,-534.62 344.38,-539.15 336.16,-542.81"/>
<polygon fill="#63b8ff" stroke="#63b8ff" points="441.84,-405.09 445.53,-395.15 436.45,-400.62 441.84,-405.09"/>
</a>
</g>
</g>
<!-- Node11 -->
<g id="Node000011" class="node">
<title>Node11</title>
<g id="a_Node000011"><a xlink:href="namespaceproblem__setup.html#a4dd4df45d28c58aafac4fdf8aa8c554d" target="_top" xlink:title=" ">
<polygon fill="white" stroke="#666666" points="332.5,-469 201.5,-469 201.5,-439 332.5,-439 332.5,-469"/>
<text text-anchor="start" x="209.5" y="-457" font-family="Arial" font-size="10.00">problem_setup.generate</text>
<text text-anchor="middle" x="267" y="-446" font-family="Arial" font-size="10.00">_moving_wall_gmsh_input</text>
</a>
</g>
</g>
<!-- Node7&#45;&gt;Node11 -->
<g id="edge15_Node000007_Node000011" class="edge">
<title>Node7&#45;&gt;Node11</title>
<g id="a_edge15_Node000007_Node000011"><a xlink:title=" ">
<path fill="none" stroke="#63b8ff" d="M417.99,-399.61C400.11,-407.93 378.71,-417.43 359,-425 346.15,-429.93 332.07,-434.72 318.9,-438.93"/>
<polygon fill="#63b8ff" stroke="#63b8ff" points="419.96,-402.55 427.53,-395.13 416.99,-396.21 419.96,-402.55"/>
</a>
</g>
</g>
<!-- Node12 -->
<g id="Node000012" class="node">
<title>Node12</title>
<g id="a_Node000012"><a xlink:href="namespaceproblem__setup.html#a881d38782fcef7d73522d8b9bfcdb3da" target="_top" xlink:title=" ">
<polygon fill="white" stroke="#666666" points="327.5,-365 206.5,-365 206.5,-335 327.5,-335 327.5,-365"/>
<text text-anchor="start" x="214.5" y="-353" font-family="Arial" font-size="10.00">problem_setup.generate</text>
<text text-anchor="middle" x="267" y="-342" font-family="Arial" font-size="10.00">_particle_gmsh_input</text>
</a>
</g>
</g>
<!-- Node7&#45;&gt;Node12 -->
<g id="edge17_Node000007_Node000012" class="edge">
<title>Node7&#45;&gt;Node12</title>
<g id="a_edge17_Node000007_Node000012"><a xlink:title=" ">
<path fill="none" stroke="#63b8ff" d="M394.36,-369.9C372.77,-366.5 348.79,-362.72 327.57,-359.38"/>
<polygon fill="#63b8ff" stroke="#63b8ff" points="394,-373.39 404.42,-371.48 395.09,-366.47 394,-373.39"/>
</a>
</g>
</g>
<!-- Node13 -->
<g id="Node000013" class="node">
<title>Node13</title>
<g id="a_Node000013"><a xlink:href="namespaceproblem__setup.html#a021c61bf44d7c968582474d32605a1ad" target="_top" xlink:title=" ">
<polygon fill="white" stroke="#666666" points="130,-398 9,-398 9,-368 130,-368 130,-398"/>
<text text-anchor="start" x="17" y="-386" font-family="Arial" font-size="10.00">problem_setup.generate</text>
<text text-anchor="middle" x="69.5" y="-375" font-family="Arial" font-size="10.00">_wall_gmsh_input</text>
</a>
</g>
</g>
<!-- Node7&#45;&gt;Node13 -->
<g id="edge25_Node000007_Node000013" class="edge">
<title>Node7&#45;&gt;Node13</title>
<g id="a_edge25_Node000007_Node000013"><a xlink:title=" ">
<path fill="none" stroke="#63b8ff" d="M394.24,-388.9C382.53,-390.19 370.42,-391.31 359,-392 277.37,-396.9 256.7,-395.51 175,-392 160.45,-391.37 144.78,-390.26 130.13,-389.03"/>
<polygon fill="#63b8ff" stroke="#63b8ff" points="394.85,-392.35 404.38,-387.72 394.05,-385.39 394.85,-392.35"/>
</a>
</g>
</g>
<!-- Node7&#45;&gt;Node14 -->
<g id="edge27_Node000007_Node000014" class="edge">
<title>Node7&#45;&gt;Node14</title>
<g id="a_edge27_Node000007_Node000014"><a xlink:title=" ">
<path fill="none" stroke="#63b8ff" d="M424.48,-359.5C401.25,-345.9 372.33,-329.86 359,-326 280.88,-303.41 186.1,-301.8 127.03,-303.67"/>
<polygon fill="#63b8ff" stroke="#63b8ff" points="423,-362.69 433.39,-364.76 426.56,-356.66 423,-362.69"/>
</a>
</g>
</g>
<!-- Node7&#45;&gt;Node15 -->
<g id="edge22_Node000007_Node000015" class="edge">
<title>Node7&#45;&gt;Node15</title>
<g id="a_edge22_Node000007_Node000015"><a xlink:title=" ">
<path fill="none" stroke="#63b8ff" d="M419.08,-359.74C410.69,-354.54 402.19,-348.55 395,-342 375.01,-323.81 379.1,-311.07 359,-293 345,-280.41 327.53,-269.37 311.65,-260.67"/>
<polygon fill="#63b8ff" stroke="#63b8ff" points="417.34,-362.78 427.73,-364.86 420.91,-356.76 417.34,-362.78"/>
</a>
</g>
</g>
<!-- Node7&#45;&gt;Node16 -->
<g id="edge26_Node000007_Node000016" class="edge">
<title>Node7&#45;&gt;Node16</title>
<g id="a_edge26_Node000007_Node000016"><a xlink:title=" ">
<path fill="none" stroke="#63b8ff" d="M439.16,-356.73C425.08,-338.71 406.51,-312.59 395,-287 368.11,-227.23 405.08,-190.6 359,-144 349.81,-134.71 337.48,-128.88 324.86,-125.25"/>
<polygon fill="#63b8ff" stroke="#63b8ff" points="436.7,-359.25 445.67,-364.89 442.17,-354.89 436.7,-359.25"/>
</a>
</g>
</g>
<!-- Node8&#45;&gt;Node8 -->
<g id="edge10_Node000008_Node000008" class="edge">
<title>Node8&#45;&gt;Node8</title>
<g id="a_edge10_Node000008_Node000008"><a xlink:title=" ">
<path fill="none" stroke="#63b8ff" d="M300.61,-649.6C296.01,-653.97 284.81,-657 267,-657 237,-657 225.75,-648.41 233.25,-639.28"/>
<polygon fill="#63b8ff" stroke="#63b8ff" points="304.11,-649.32 300.75,-639.28 297.11,-649.23 304.11,-649.32"/>
</a>
</g>
</g>
<!-- Node9&#45;&gt;Node9 -->
<g id="edge12_Node000009_Node000009" class="edge">
<title>Node9&#45;&gt;Node9</title>
<g id="a_edge12_Node000009_Node000009"><a xlink:title=" ">
<path fill="none" stroke="#63b8ff" d="M300.61,-193.6C296.01,-197.97 284.81,-201 267,-201 237,-201 225.75,-192.41 233.25,-183.28"/>
<polygon fill="#63b8ff" stroke="#63b8ff" points="304.11,-193.32 300.75,-183.28 297.11,-193.23 304.11,-193.32"/>
</a>
</g>
</g>
<!-- Node10&#45;&gt;Node10 -->
<g id="edge14_Node000010_Node000010" class="edge">
<title>Node10&#45;&gt;Node10</title>
<g id="a_edge14_Node000010_Node000010"><a xlink:title=" ">
<path fill="none" stroke="#63b8ff" d="M300.61,-583.6C296.01,-587.97 284.81,-591 267,-591 237,-591 225.75,-582.41 233.25,-573.28"/>
<polygon fill="#63b8ff" stroke="#63b8ff" points="304.11,-583.32 300.75,-573.28 297.11,-583.23 304.11,-583.32"/>
</a>
</g>
</g>
<!-- Node11&#45;&gt;Node11 -->
<g id="edge16_Node000011_Node000011" class="edge">
<title>Node11&#45;&gt;Node11</title>
<g id="a_edge16_Node000011_Node000011"><a xlink:title=" ">
<path fill="none" stroke="#63b8ff" d="M300.61,-479.6C296.01,-483.97 284.81,-487 267,-487 237,-487 225.75,-478.41 233.25,-469.28"/>
<polygon fill="#63b8ff" stroke="#63b8ff" points="304.11,-479.32 300.75,-469.28 297.11,-479.23 304.11,-479.32"/>
</a>
</g>
</g>
<!-- Node12&#45;&gt;Node12 -->
<g id="edge18_Node000012_Node000012" class="edge">
<title>Node12&#45;&gt;Node12</title>
<g id="a_edge18_Node000012_Node000012"><a xlink:title=" ">
<path fill="none" stroke="#63b8ff" d="M300.61,-375.6C296.01,-379.97 284.81,-383 267,-383 237,-383 225.75,-374.41 233.25,-365.28"/>
<polygon fill="#63b8ff" stroke="#63b8ff" points="304.11,-375.32 300.75,-365.28 297.11,-375.23 304.11,-375.32"/>
</a>
</g>
</g>
<!-- Node12&#45;&gt;Node13 -->
<g id="edge19_Node000012_Node000013" class="edge">
<title>Node12&#45;&gt;Node13</title>
<g id="a_edge19_Node000012_Node000013"><a xlink:title=" ">
<path fill="none" stroke="#63b8ff" d="M196.19,-361.78C174.6,-365.43 151.03,-369.41 130.19,-372.92"/>
<polygon fill="#63b8ff" stroke="#63b8ff" points="197,-365.2 206.28,-360.08 195.84,-358.29 197,-365.2"/>
</a>
</g>
</g>
<!-- Node12&#45;&gt;Node14 -->
<g id="edge20_Node000012_Node000014" class="edge">
<title>Node12&#45;&gt;Node14</title>
<g id="a_edge20_Node000012_Node000014"><a xlink:title=" ">
<path fill="none" stroke="#63b8ff" d="M196.37,-334.69C173.69,-329.7 148.8,-324.22 127.18,-319.47"/>
<polygon fill="#63b8ff" stroke="#63b8ff" points="195.76,-338.14 206.28,-336.86 197.27,-331.3 195.76,-338.14"/>
</a>
</g>
</g>
<!-- Node15&#45;&gt;Node4 -->
<g id="edge23_Node000015_Node000004" class="edge">
<title>Node15&#45;&gt;Node4</title>
<g id="a_edge23_Node000015_Node000004"><a xlink:title=" ">
<path fill="none" stroke="#63b8ff" d="M229.93,-267.46C211.49,-283 189.87,-303.74 175,-326 159.62,-349.02 94.94,-530.71 75.84,-584.83"/>
<polygon fill="#63b8ff" stroke="#63b8ff" points="232.64,-269.76 238.14,-260.7 228.19,-264.36 232.64,-269.76"/>
</a>
</g>
</g>
<!-- Node15&#45;&gt;Node15 -->
<g id="edge24_Node000015_Node000015" class="edge">
<title>Node15&#45;&gt;Node15</title>
<g id="a_edge24_Node000015_Node000015"><a xlink:title=" ">
<path fill="none" stroke="#63b8ff" d="M300.03,-270.46C295.12,-275.24 284.11,-278.5 267,-278.5 239.62,-278.5 227.86,-270.15 231.71,-260.6"/>
<polygon fill="#63b8ff" stroke="#63b8ff" points="303.47,-271.13 302.29,-260.6 296.65,-269.56 303.47,-271.13"/>
</a>
</g>
</g>
</g>
</svg>
