<?xml version="1.0" encoding="UTF-8" standalone="no"?>
<!DOCTYPE svg PUBLIC "-//W3C//DTD SVG 1.1//EN"
 "http://www.w3.org/Graphics/SVG/1.1/DTD/svg11.dtd">
<!-- Generated by graphviz version 2.43.0 (0)
 -->
<!-- Title: problem_setup.generate_hex_particle_gmsh_input Pages: 1 -->
<svg width="712pt" height="373pt"
 viewBox="0.00 0.00 712.00 373.00" xmlns="http://www.w3.org/2000/svg" xmlns:xlink="http://www.w3.org/1999/xlink">
<g id="graph0" class="graph" transform="scale(1 1) rotate(0) translate(4 369)">
<title>problem_setup.generate_hex_particle_gmsh_input</title>
<!-- Node1 -->
<g id="node1" class="node">
<title>Node1</title>
<g id="a_node1"><a xlink:title=" ">
<polygon fill="#bfbfbf" stroke="black" points="574,-161.5 574,-191.5 704,-191.5 704,-161.5 574,-161.5"/>
<text text-anchor="start" x="582" y="-179.5" font-family="Arial" font-size="10.00">problem_setup.generate</text>
<text text-anchor="middle" x="639" y="-168.5" font-family="Arial" font-size="10.00">_hex_particle_gmsh_input</text>
</a>
</g>
</g>
<!-- Node2 -->
<g id="node2" class="node">
<title>Node2</title>
<g id="a_node2"><a xlink:href="namespaceproblem__setup.html#a66cf6b889081b2c318eb0110057d83c9" target="_top" xlink:title=" ">
<polygon fill="none" stroke="black" points="401,-312.5 401,-364.5 532,-364.5 532,-312.5 401,-312.5"/>
<text text-anchor="start" x="409" y="-352.5" font-family="Arial" font-size="10.00">problem_setup.does</text>
<text text-anchor="start" x="409" y="-341.5" font-family="Arial" font-size="10.00">_intersect_with_rectangle</text>
<text text-anchor="start" x="409" y="-330.5" font-family="Arial" font-size="10.00">_wall_with_protrusion_and</text>
<text text-anchor="middle" x="466.5" y="-319.5" font-family="Arial" font-size="10.00">_opening</text>
</a>
</g>
</g>
<!-- Node1&#45;&gt;Node2 -->
<g id="edge1" class="edge">
<title>Node1&#45;&gt;Node2</title>
<path fill="none" stroke="midnightblue" d="M622.24,-200.24C604.11,-226.31 572.39,-268.33 538,-297.5 531.74,-302.81 524.69,-307.82 517.54,-312.39"/>
<polygon fill="midnightblue" stroke="midnightblue" points="625.3,-201.96 628.06,-191.73 619.52,-198.01 625.3,-201.96"/>
</g>
<!-- Node3 -->
<g id="node3" class="node">
<title>Node3</title>
<g id="a_node3"><a xlink:href="namespaceproblem__setup.html#a91bf08b893f31c7d232346b6178f0a98" target="_top" xlink:title=" ">
<polygon fill="none" stroke="black" points="202.5,-274 202.5,-293 331.5,-293 331.5,-274 202.5,-274"/>
<text text-anchor="middle" x="267" y="-281" font-family="Arial" font-size="10.00">problem_setup.get_center</text>
</a>
</g>
</g>
<!-- Node1&#45;&gt;Node3 -->
<g id="edge11" class="edge">
<title>Node1&#45;&gt;Node3</title>
<path fill="none" stroke="midnightblue" d="M618.5,-199.04C599.98,-218.74 570.23,-246.22 538,-259.5 471.42,-286.92 387.99,-290.14 331.62,-288.29"/>
<polygon fill="midnightblue" stroke="midnightblue" points="621.09,-201.39 625.27,-191.65 615.93,-196.66 621.09,-201.39"/>
</g>
<!-- Node4 -->
<g id="node4" class="node">
<title>Node4</title>
<g id="a_node4"><a xlink:href="namespaceproblem__setup.html#aa86d439a2a3be267e8af3fe687016583" target="_top" xlink:title=" ">
<polygon fill="none" stroke="black" points="0,-230.5 0,-260.5 139,-260.5 139,-230.5 0,-230.5"/>
<text text-anchor="start" x="8" y="-248.5" font-family="Arial" font-size="10.00">problem_setup.generate</text>
<text text-anchor="middle" x="69.5" y="-237.5" font-family="Arial" font-size="10.00">_rect_container_gmsh_input</text>
</a>
</g>
</g>
<!-- Node1&#45;&gt;Node4 -->
<g id="edge8" class="edge">
<title>Node1&#45;&gt;Node4</title>
<path fill="none" stroke="midnightblue" d="M606.07,-196.84C587.08,-207.79 562.07,-220.3 538,-226.5 399.95,-262.06 231.47,-257.8 139.16,-251.6"/>
<polygon fill="midnightblue" stroke="midnightblue" points="608.05,-199.73 614.87,-191.62 604.49,-193.71 608.05,-199.73"/>
</g>
<!-- Node5 -->
<g id="node5" class="node">
<title>Node5</title>
<g id="a_node5"><a xlink:href="namespaceproblem__setup.html#a87c8571f538ea8ab692816e1388af758" target="_top" xlink:title=" ">
<polygon fill="none" stroke="black" points="395,-186.5 395,-216.5 538,-216.5 538,-186.5 395,-186.5"/>
<text text-anchor="start" x="403" y="-204.5" font-family="Arial" font-size="10.00">problem_setup.generate</text>
<text text-anchor="middle" x="466.5" y="-193.5" font-family="Arial" font-size="10.00">_cylindrical_wall_gmsh_input</text>
</a>
</g>
</g>
<!-- Node1&#45;&gt;Node5 -->
<g id="edge4" class="edge">
<title>Node1&#45;&gt;Node5</title>
<path fill="none" stroke="midnightblue" d="M563.65,-187.4C555.14,-188.65 546.49,-189.92 538.04,-191.16"/>
<polygon fill="midnightblue" stroke="midnightblue" points="564.15,-190.87 573.54,-185.95 563.14,-183.94 564.15,-190.87"/>
</g>
<!-- Node6 -->
<g id="node6" class="node">
<title>Node6</title>
<g id="a_node6"><a xlink:href="namespaceproblem__setup.html#aff5393227de056de45cfc082e05af1ca" target="_top" xlink:title=" ">
<polygon fill="none" stroke="black" points="398.5,-137.5 398.5,-167.5 534.5,-167.5 534.5,-137.5 398.5,-137.5"/>
<text text-anchor="start" x="406.5" y="-155.5" font-family="Arial" font-size="10.00">problem_setup.generate</text>
<text text-anchor="middle" x="466.5" y="-144.5" font-family="Arial" font-size="10.00">_drum_particle_gmsh_input</text>
</a>
</g>
</g>
<!-- Node1&#45;&gt;Node6 -->
<g id="edge5" class="edge">
<title>Node1&#45;&gt;Node6</title>
<path fill="none" stroke="midnightblue" d="M563.58,-166.03C553.94,-164.67 544.12,-163.28 534.61,-161.95"/>
<polygon fill="midnightblue" stroke="midnightblue" points="563.15,-169.5 573.54,-167.43 564.13,-162.57 563.15,-169.5"/>
</g>
<!-- Node7 -->
<g id="node7" class="node">
<title>Node7</title>
<g id="a_node7"><a xlink:href="namespaceproblem__setup.html#a8c789550cc1b70abe559c976bcf664e4" target="_top" xlink:title=" ">
<polygon fill="none" stroke="black" points="401,-88.5 401,-118.5 532,-118.5 532,-88.5 401,-88.5"/>
<text text-anchor="start" x="409" y="-106.5" font-family="Arial" font-size="10.00">problem_setup.generate</text>
<text text-anchor="middle" x="466.5" y="-95.5" font-family="Arial" font-size="10.00">_moving_wall_gmsh_input</text>
</a>
</g>
</g>
<!-- Node1&#45;&gt;Node7 -->
<g id="edge6" class="edge">
<title>Node1&#45;&gt;Node7</title>
<path fill="none" stroke="midnightblue" d="M600.56,-156.74C582,-147.31 559.09,-136.22 538,-127.5 530.47,-124.39 522.38,-121.36 514.46,-118.55"/>
<polygon fill="midnightblue" stroke="midnightblue" points="599.07,-159.91 609.56,-161.36 602.26,-153.68 599.07,-159.91"/>
</g>
<!-- Node9 -->
<g id="node9" class="node">
<title>Node9</title>
<g id="a_node9"><a xlink:href="namespaceproblem__setup.html#ab2d86f4fe187ef9b78d1ad4ea438b98b" target="_top" xlink:title=" ">
<polygon fill="none" stroke="black" points="175,-39 175,-80 359,-80 359,-39 175,-39"/>
<text text-anchor="start" x="183" y="-68" font-family="Arial" font-size="10.00">problem_setup.generate</text>
<text text-anchor="start" x="183" y="-57" font-family="Arial" font-size="10.00">_rectangle_with_protrusion</text>
<text text-anchor="middle" x="267" y="-46" font-family="Arial" font-size="10.00">_and_opening_wall_gmsh_input_type3</text>
</a>
</g>
</g>
<!-- Node1&#45;&gt;Node9 -->
<g id="edge9" class="edge">
<title>Node1&#45;&gt;Node9</title>
<path fill="none" stroke="midnightblue" d="M621.78,-152.83C604.19,-129.34 573.78,-94.6 538,-78.5 482.18,-53.39 413.27,-48.91 359.04,-50.57"/>
<polygon fill="midnightblue" stroke="midnightblue" points="619.17,-155.19 627.88,-161.22 624.83,-151.07 619.17,-155.19"/>
</g>
<!-- Node10 -->
<g id="node10" class="node">
<title>Node10</title>
<g id="a_node10"><a xlink:href="namespaceproblem__setup.html#ad0951de1e260620b256ecd25ed5d8e5a" target="_top" xlink:title=" ">
<polygon fill="none" stroke="black" points="409,-0.5 409,-30.5 524,-30.5 524,-0.5 409,-0.5"/>
<text text-anchor="start" x="417" y="-18.5" font-family="Arial" font-size="10.00">problem_setup.particle</text>
<text text-anchor="middle" x="466.5" y="-7.5" font-family="Arial" font-size="10.00">_locations</text>
</a>
</g>
</g>
<!-- Node1&#45;&gt;Node10 -->
<g id="edge12" class="edge">
<title>Node1&#45;&gt;Node10</title>
<path fill="none" stroke="midnightblue" d="M624.67,-152.09C607.83,-123.21 576.36,-75.31 538,-45.5 530.44,-39.62 521.55,-34.68 512.69,-30.61"/>
<polygon fill="midnightblue" stroke="midnightblue" points="621.82,-154.14 629.81,-161.1 627.9,-150.68 621.82,-154.14"/>
</g>
<!-- Node2&#45;&gt;Node3 -->
<g id="edge2" class="edge">
<title>Node2&#45;&gt;Node3</title>
<path fill="none" stroke="midnightblue" d="M391.06,-317.77C360.56,-309.27 326.75,-299.86 302.3,-293.05"/>
<polygon fill="midnightblue" stroke="midnightblue" points="390.26,-321.18 400.83,-320.49 392.14,-314.44 390.26,-321.18"/>
</g>
<!-- Node3&#45;&gt;Node4 -->
<g id="edge3" class="edge">
<title>Node3&#45;&gt;Node4</title>
<path fill="none" stroke="midnightblue" d="M207.01,-272.03C185.63,-267.88 161.31,-263.15 139.18,-258.85"/>
<polygon fill="midnightblue" stroke="midnightblue" points="206.44,-275.49 216.92,-273.96 207.77,-268.62 206.44,-275.49"/>
</g>
<!-- Node8 -->
<g id="node8" class="node">
<title>Node8</title>
<g id="a_node8"><a xlink:href="namespaceproblem__setup.html#a767ffea81ffa775dc9aeb12b2e2a21a4" target="_top" xlink:title=" ">
<polygon fill="none" stroke="black" points="209.5,-99.5 209.5,-129.5 324.5,-129.5 324.5,-99.5 209.5,-99.5"/>
<text text-anchor="start" x="217.5" y="-117.5" font-family="Arial" font-size="10.00">problem_setup.particle</text>
<text text-anchor="middle" x="267" y="-106.5" font-family="Arial" font-size="10.00">_locations</text>
</a>
</g>
</g>
<!-- Node7&#45;&gt;Node8 -->
<g id="edge7" class="edge">
<title>Node7&#45;&gt;Node8</title>
<path fill="none" stroke="midnightblue" d="M390.56,-107.67C368.65,-108.89 345.07,-110.21 324.51,-111.35"/>
<polygon fill="midnightblue" stroke="midnightblue" points="391.04,-111.15 400.83,-107.1 390.65,-104.16 391.04,-111.15"/>
</g>
<!-- Node9&#45;&gt;Node4 -->
<g id="edge10" class="edge">
<title>Node9&#45;&gt;Node4</title>
<path fill="none" stroke="midnightblue" d="M181.32,-85.11C179.14,-86.5 177.03,-87.96 175,-89.5 124.12,-128.14 89.89,-199.06 76.65,-230.18"/>
<polygon fill="midnightblue" stroke="midnightblue" points="183.09,-88.12 190,-80.1 179.59,-82.06 183.09,-88.12"/>
</g>
</g>
</svg>
