<?xml version="1.0" encoding="UTF-8" standalone="no"?>
<!DOCTYPE svg PUBLIC "-//W3C//DTD SVG 1.1//EN"
 "http://www.w3.org/Graphics/SVG/1.1/DTD/svg11.dtd">
<!-- Generated by graphviz version 2.43.0 (0)
 -->
<!-- Title: util::areBoxesNear Pages: 1 -->
<svg width="415pt" height="201pt"
 viewBox="0.00 0.00 415.00 200.70" xmlns="http://www.w3.org/2000/svg" xmlns:xlink="http://www.w3.org/1999/xlink">
<g id="graph0" class="graph" transform="scale(1 1) rotate(0) translate(4 196.7)">
<title>util::areBoxesNear</title>
<!-- Node1 -->
<g id="Node000001" class="node">
<title>Node1</title>
<g id="a_Node000001"><a xlink:title="Checks if given two boxes are within given distance from each other.">
<polygon fill="#999999" stroke="#666666" points="98,-100.04 0,-100.04 0,-81.04 98,-81.04 98,-100.04"/>
<text text-anchor="middle" x="49" y="-88.04" font-family="Arial" font-size="10.00">util::areBoxesNear</text>
</a>
</g>
</g>
<!-- Node2 -->
<g id="Node000002" class="node">
<title>Node2</title>
<g id="a_Node000002"><a xlink:href="namespaceutil.html#af6ab7e8072282977994d4c13e470dfc7" target="_top" xlink:title="Computes the radius of smallest circle/sphere which can have the box inside.">
<polygon fill="white" stroke="#666666" points="263,-167.54 136,-167.54 136,-137.54 263,-137.54 263,-167.54"/>
<text text-anchor="start" x="144" y="-155.54" font-family="Arial" font-size="10.00">util::circumscribedRadius</text>
<text text-anchor="middle" x="199.5" y="-144.54" font-family="Arial" font-size="10.00">InBox</text>
</a>
</g>
</g>
<!-- Node1&#45;&gt;Node2 -->
<g id="edge1_Node000001_Node000002" class="edge">
<title>Node1&#45;&gt;Node2</title>
<g id="a_edge1_Node000001_Node000002"><a xlink:title=" ">
<path fill="none" stroke="#63b8ff" d="M72.88,-100.09C94.11,-108.95 126.33,-122.41 152.82,-133.47"/>
<polygon fill="#63b8ff" stroke="#63b8ff" points="151.72,-136.8 162.3,-137.42 154.42,-130.34 151.72,-136.8"/>
</a>
</g>
</g>
<!-- Node3 -->
<g id="Node000003" class="node">
<title>Node3</title>
<g id="a_Node000003"><a xlink:href="namespaceutil.html#a9a73e26a05894da76d4d0a922272b7cc" target="_top" xlink:title="Returns center point.">
<polygon fill="white" stroke="#666666" points="393,-183.04 315,-183.04 315,-164.04 393,-164.04 393,-183.04"/>
<text text-anchor="middle" x="354" y="-171.04" font-family="Arial" font-size="10.00">util::getCenter</text>
</a>
</g>
</g>
<!-- Node1&#45;&gt;Node3 -->
<g id="edge5_Node000001_Node000003" class="edge">
<title>Node1&#45;&gt;Node3</title>
<g id="a_edge5_Node000001_Node000003"><a xlink:title=" ">
<path fill="none" stroke="#63b8ff" d="M55.65,-100.17C67.39,-119.11 96.49,-160.74 134,-176.54 189.06,-199.72 259.03,-193.32 304.86,-184.91"/>
<polygon fill="#63b8ff" stroke="#63b8ff" points="305.68,-188.32 314.83,-182.98 304.35,-181.45 305.68,-188.32"/>
</a>
</g>
</g>
<!-- Node4 -->
<g id="Node000004" class="node">
<title>Node4</title>
<g id="a_Node000004"><a xlink:href="namespaceutil.html#a5a54fd6f6720dd75956e3ce06b814ad6" target="_top" xlink:title="Returns all corner points in the box.">
<polygon fill="white" stroke="#666666" points="407,-132.04 301,-132.04 301,-113.04 407,-113.04 407,-132.04"/>
<text text-anchor="middle" x="354" y="-120.04" font-family="Arial" font-size="10.00">util::getCornerPoints</text>
</a>
</g>
</g>
<!-- Node1&#45;&gt;Node4 -->
<g id="edge6_Node000001_Node000004" class="edge">
<title>Node1&#45;&gt;Node4</title>
<g id="a_edge6_Node000001_Node000004"><a xlink:title=" ">
<path fill="none" stroke="#63b8ff" d="M98.01,-95.61C150.2,-101.12 233.76,-109.94 290.9,-115.98"/>
<polygon fill="#63b8ff" stroke="#63b8ff" points="290.58,-119.46 300.9,-117.03 291.32,-112.5 290.58,-119.46"/>
</a>
</g>
</g>
<!-- Node6 -->
<g id="Node000006" class="node">
<title>Node6</title>
<g id="a_Node000006"><a xlink:href="namespaceutil.html#aa5b234685d92d1a0f48600c3a3708bfd" target="_top" xlink:title="Computes the radius of biggest circle/sphere completely within the object.">
<polygon fill="white" stroke="#666666" points="265,-81.04 134,-81.04 134,-62.04 265,-62.04 265,-81.04"/>
<text text-anchor="middle" x="199.5" y="-69.04" font-family="Arial" font-size="10.00">util::inscribedRadiusInBox</text>
</a>
</g>
</g>
<!-- Node1&#45;&gt;Node6 -->
<g id="edge7_Node000001_Node000006" class="edge">
<title>Node1&#45;&gt;Node6</title>
<g id="a_edge7_Node000001_Node000006"><a xlink:title=" ">
<path fill="none" stroke="#63b8ff" d="M98.21,-84.37C106.37,-83.32 115.01,-82.22 123.65,-81.11"/>
<polygon fill="#63b8ff" stroke="#63b8ff" points="124.31,-84.56 133.78,-79.82 123.42,-77.61 124.31,-84.56"/>
</a>
</g>
</g>
<!-- Node7 -->
<g id="Node000007" class="node">
<title>Node7</title>
<g id="a_Node000007"><a xlink:href="namespaceutil.html#a868a26599b6b844d08d30063ac898319" target="_top" xlink:title="Returns true if a &lt; b.">
<polygon fill="white" stroke="#666666" points="386,-25.04 322,-25.04 322,-6.04 386,-6.04 386,-25.04"/>
<text text-anchor="middle" x="354" y="-13.04" font-family="Arial" font-size="10.00">util::isLess</text>
</a>
</g>
</g>
<!-- Node1&#45;&gt;Node7 -->
<g id="edge9_Node000001_Node000007" class="edge">
<title>Node1&#45;&gt;Node7</title>
<g id="a_edge9_Node000001_Node000007"><a xlink:title=" ">
<path fill="none" stroke="#63b8ff" d="M56.95,-80.79C69.83,-63.68 99.29,-28.78 134,-15.54 192.5,6.78 266.35,0.38 311.61,-7.02"/>
<polygon fill="#63b8ff" stroke="#63b8ff" points="311.19,-10.5 321.64,-8.75 312.38,-3.6 311.19,-10.5"/>
</a>
</g>
</g>
<!-- Node8 -->
<g id="Node000008" class="node">
<title>Node8</title>
<g id="a_Node000008"><a xlink:href="namespaceutil.html#a09ac00ed5485b655c317c2fe46b1d740" target="_top" xlink:title="Returns true if point is inside box.">
<polygon fill="white" stroke="#666666" points="254,-44.04 145,-44.04 145,-25.04 254,-25.04 254,-44.04"/>
<text text-anchor="middle" x="199.5" y="-32.04" font-family="Arial" font-size="10.00">util::isPointInsideBox</text>
</a>
</g>
</g>
<!-- Node1&#45;&gt;Node8 -->
<g id="edge10_Node000001_Node000008" class="edge">
<title>Node1&#45;&gt;Node8</title>
<g id="a_edge10_Node000001_Node000008"><a xlink:title=" ">
<path fill="none" stroke="#63b8ff" d="M69.73,-80.98C86.57,-73.04 111.55,-61.75 134,-53.54 140.12,-51.3 146.63,-49.14 153.07,-47.12"/>
<polygon fill="#63b8ff" stroke="#63b8ff" points="154.53,-50.33 163.08,-44.08 152.5,-43.64 154.53,-50.33"/>
</a>
</g>
</g>
<!-- Node2&#45;&gt;Node3 -->
<g id="edge2_Node000002_Node000003" class="edge">
<title>Node2&#45;&gt;Node3</title>
<g id="a_edge2_Node000002_Node000003"><a xlink:title=" ">
<path fill="none" stroke="#63b8ff" d="M263.41,-161.2C277.13,-163.09 291.45,-165.06 304.51,-166.86"/>
<polygon fill="#63b8ff" stroke="#63b8ff" points="304.3,-170.36 314.68,-168.26 305.25,-163.43 304.3,-170.36"/>
</a>
</g>
</g>
<!-- Node2&#45;&gt;Node4 -->
<g id="edge3_Node000002_Node000004" class="edge">
<title>Node2&#45;&gt;Node4</title>
<g id="a_edge3_Node000002_Node000004"><a xlink:title=" ">
<path fill="none" stroke="#63b8ff" d="M263.41,-140.16C273.75,-138.13 284.42,-136.03 294.64,-134.02"/>
<polygon fill="#63b8ff" stroke="#63b8ff" points="295.55,-137.41 304.68,-132.04 294.2,-130.54 295.55,-137.41"/>
</a>
</g>
</g>
<!-- Node5 -->
<g id="Node000005" class="node">
<title>Node5</title>
<g id="a_Node000005"><a xlink:href="namespaceutil.html#a227b5f8acbd7a403a033663c8893d631" target="_top" xlink:title="Returns true if a &gt; b.">
<polygon fill="white" stroke="#666666" points="391.5,-81.04 316.5,-81.04 316.5,-62.04 391.5,-62.04 391.5,-81.04"/>
<text text-anchor="middle" x="354" y="-69.04" font-family="Arial" font-size="10.00">util::isGreater</text>
</a>
</g>
</g>
<!-- Node2&#45;&gt;Node5 -->
<g id="edge4_Node000002_Node000005" class="edge">
<title>Node2&#45;&gt;Node5</title>
<g id="a_edge4_Node000002_Node000005"><a xlink:title=" ">
<path fill="none" stroke="#63b8ff" d="M228.83,-137.49C256.57,-122.76 298.53,-100.47 325.86,-85.95"/>
<polygon fill="#63b8ff" stroke="#63b8ff" points="327.68,-88.95 334.86,-81.17 324.39,-82.77 327.68,-88.95"/>
</a>
</g>
</g>
<!-- Node6&#45;&gt;Node5 -->
<g id="edge8_Node000006_Node000005" class="edge">
<title>Node6&#45;&gt;Node5</title>
<g id="a_edge8_Node000006_Node000005"><a xlink:title=" ">
<path fill="none" stroke="#63b8ff" d="M265.17,-71.54C279.01,-71.54 293.37,-71.54 306.36,-71.54"/>
<polygon fill="#63b8ff" stroke="#63b8ff" points="306.46,-75.04 316.46,-71.54 306.46,-68.04 306.46,-75.04"/>
</a>
</g>
</g>
<!-- Node8&#45;&gt;Node5 -->
<g id="edge11_Node000008_Node000005" class="edge">
<title>Node8&#45;&gt;Node5</title>
<g id="a_edge11_Node000008_Node000005"><a xlink:title=" ">
<path fill="none" stroke="#63b8ff" d="M239.77,-44.07C260.19,-49.02 285.28,-55.11 306.64,-60.29"/>
<polygon fill="#63b8ff" stroke="#63b8ff" points="305.94,-63.72 316.48,-62.68 307.59,-56.92 305.94,-63.72"/>
</a>
</g>
</g>
<!-- Node8&#45;&gt;Node7 -->
<g id="edge12_Node000008_Node000007" class="edge">
<title>Node8&#45;&gt;Node7</title>
<g id="a_edge12_Node000008_Node000007"><a xlink:title=" ">
<path fill="none" stroke="#63b8ff" d="M254.27,-27.84C273.19,-25.48 294.14,-22.87 311.86,-20.66"/>
<polygon fill="#63b8ff" stroke="#63b8ff" points="312.39,-24.12 321.88,-19.41 311.52,-17.18 312.39,-24.12"/>
</a>
</g>
</g>
</g>
</svg>
