<?xml version="1.0" encoding="UTF-8" standalone="no"?>
<!DOCTYPE svg PUBLIC "-//W3C//DTD SVG 1.1//EN"
 "http://www.w3.org/Graphics/SVG/1.1/DTD/svg11.dtd">
<!-- Generated by graphviz version 2.43.0 (0)
 -->
<!-- Title: problem_setup.generate_rigid_wall_gmsh_input Pages: 1 -->
<svg width="604pt" height="200pt"
 viewBox="0.00 0.00 604.00 199.75" xmlns="http://www.w3.org/2000/svg" xmlns:xlink="http://www.w3.org/1999/xlink">
<g id="graph0" class="graph" transform="scale(1 1) rotate(0) translate(4 195.75)">
<title>problem_setup.generate_rigid_wall_gmsh_input</title>
<!-- Node1 -->
<g id="node1" class="node">
<title>Node1</title>
<g id="a_node1"><a xlink:title=" ">
<polygon fill="#bfbfbf" stroke="black" points="475,-135.5 475,-165.5 596,-165.5 596,-135.5 475,-135.5"/>
<text text-anchor="start" x="483" y="-153.5" font-family="Arial" font-size="10.00">problem_setup.generate</text>
<text text-anchor="middle" x="535.5" y="-142.5" font-family="Arial" font-size="10.00">_rigid_wall_gmsh_input</text>
</a>
</g>
</g>
<!-- Node2 -->
<g id="node2" class="node">
<title>Node2</title>
<g id="a_node2"><a xlink:href="namespaceproblem__setup.html#a64e067098e447f766d042476ef5abe85" target="_top" xlink:title=" ">
<polygon fill="none" stroke="black" points="329,-91.5 329,-121.5 439,-121.5 439,-91.5 329,-91.5"/>
<text text-anchor="start" x="337" y="-109.5" font-family="Arial" font-size="10.00">problem_setup.create</text>
<text text-anchor="middle" x="384" y="-98.5" font-family="Arial" font-size="10.00">_input_file</text>
</a>
</g>
</g>
<!-- Node1&#45;&gt;Node2 -->
<g id="edge1" class="edge">
<title>Node1&#45;&gt;Node2</title>
<path fill="none" stroke="midnightblue" d="M473.61,-132.58C461.14,-128.91 448.14,-125.08 436.05,-121.53"/>
<polygon fill="midnightblue" stroke="midnightblue" points="472.89,-136.01 483.47,-135.48 474.86,-129.3 472.89,-136.01"/>
</g>
<!-- Node7 -->
<g id="node7" class="node">
<title>Node7</title>
<g id="a_node7"><a xlink:href="namespaceproblem__setup.html#a767ffea81ffa775dc9aeb12b2e2a21a4" target="_top" xlink:title=" ">
<polygon fill="none" stroke="black" points="3,-98.5 3,-128.5 118,-128.5 118,-98.5 3,-98.5"/>
<text text-anchor="start" x="11" y="-116.5" font-family="Arial" font-size="10.00">problem_setup.particle</text>
<text text-anchor="middle" x="60.5" y="-105.5" font-family="Arial" font-size="10.00">_locations</text>
</a>
</g>
</g>
<!-- Node1&#45;&gt;Node7 -->
<g id="edge9" class="edge">
<title>Node1&#45;&gt;Node7</title>
<path fill="none" stroke="midnightblue" d="M471.07,-167.92C394.84,-185.87 263.83,-207.14 157,-175.5 126.29,-166.41 96.21,-143.99 78.25,-128.76"/>
<polygon fill="midnightblue" stroke="midnightblue" points="472.1,-171.27 481,-165.53 470.46,-164.47 472.1,-171.27"/>
</g>
<!-- Node3 -->
<g id="node3" class="node">
<title>Node3</title>
<g id="a_node3"><a xlink:href="namespaceproblem__setup.html#aff5393227de056de45cfc082e05af1ca" target="_top" xlink:title=" ">
<polygon fill="none" stroke="black" points="157,-135.5 157,-165.5 293,-165.5 293,-135.5 157,-135.5"/>
<text text-anchor="start" x="165" y="-153.5" font-family="Arial" font-size="10.00">problem_setup.generate</text>
<text text-anchor="middle" x="225" y="-142.5" font-family="Arial" font-size="10.00">_drum_particle_gmsh_input</text>
</a>
</g>
</g>
<!-- Node2&#45;&gt;Node3 -->
<g id="edge2" class="edge">
<title>Node2&#45;&gt;Node3</title>
<path fill="none" stroke="midnightblue" d="M319.44,-124.31C306.23,-128.02 292.43,-131.88 279.62,-135.47"/>
<polygon fill="midnightblue" stroke="midnightblue" points="320.72,-127.59 329.41,-121.52 318.84,-120.85 320.72,-127.59"/>
</g>
<!-- Node4 -->
<g id="node4" class="node">
<title>Node4</title>
<g id="a_node4"><a xlink:href="namespaceproblem__setup.html#a147f310ff74124342d15ab356739883f" target="_top" xlink:title=" ">
<polygon fill="none" stroke="black" points="164.5,-47.5 164.5,-77.5 285.5,-77.5 285.5,-47.5 164.5,-47.5"/>
<text text-anchor="start" x="172.5" y="-65.5" font-family="Arial" font-size="10.00">problem_setup.generate</text>
<text text-anchor="middle" x="225" y="-54.5" font-family="Arial" font-size="10.00">_particle_gmsh_input</text>
</a>
</g>
</g>
<!-- Node2&#45;&gt;Node4 -->
<g id="edge3" class="edge">
<title>Node2&#45;&gt;Node4</title>
<path fill="none" stroke="midnightblue" d="M319.44,-88.69C306.23,-84.98 292.43,-81.12 279.62,-77.53"/>
<polygon fill="midnightblue" stroke="midnightblue" points="318.84,-92.15 329.41,-91.48 320.72,-85.41 318.84,-92.15"/>
</g>
<!-- Node6 -->
<g id="node6" class="node">
<title>Node6</title>
<g id="a_node6"><a xlink:href="namespaceproblem__setup.html#af51753c1e02e9634827a449ab8729d44" target="_top" xlink:title=" ">
<polygon fill="none" stroke="black" points="0,-0.5 0,-30.5 121,-30.5 121,-0.5 0,-0.5"/>
<text text-anchor="start" x="8" y="-18.5" font-family="Arial" font-size="10.00">problem_setup.generate</text>
<text text-anchor="middle" x="60.5" y="-7.5" font-family="Arial" font-size="10.00">_wall_gmsh_input</text>
</a>
</g>
</g>
<!-- Node2&#45;&gt;Node6 -->
<g id="edge7" class="edge">
<title>Node2&#45;&gt;Node6</title>
<path fill="none" stroke="midnightblue" d="M361.53,-84.37C344.55,-68.39 319.38,-47.87 293,-37.5 237.58,-15.72 169.17,-11.74 121.14,-12.27"/>
<polygon fill="midnightblue" stroke="midnightblue" points="359.11,-86.9 368.73,-91.34 363.98,-81.87 359.11,-86.9"/>
</g>
<!-- Node2&#45;&gt;Node7 -->
<g id="edge8" class="edge">
<title>Node2&#45;&gt;Node7</title>
<path fill="none" stroke="midnightblue" d="M318.56,-107.9C259.9,-109.18 174.13,-111.05 118.06,-112.27"/>
<polygon fill="midnightblue" stroke="midnightblue" points="318.9,-111.4 328.83,-107.68 318.75,-104.4 318.9,-111.4"/>
</g>
<!-- Node5 -->
<g id="node5" class="node">
<title>Node5</title>
<g id="a_node5"><a xlink:href="namespaceproblem__setup.html#a94bf8e7f89d392c05bd34dfd6a513675" target="_top" xlink:title=" ">
<polygon fill="none" stroke="black" points="0,-49.5 0,-79.5 121,-79.5 121,-49.5 0,-49.5"/>
<text text-anchor="start" x="8" y="-67.5" font-family="Arial" font-size="10.00">problem_setup.generate</text>
<text text-anchor="middle" x="60.5" y="-56.5" font-family="Arial" font-size="10.00">_particle_gmsh_input</text>
</a>
</g>
</g>
<!-- Node4&#45;&gt;Node5 -->
<g id="edge4" class="edge">
<title>Node4&#45;&gt;Node5</title>
<path fill="none" stroke="midnightblue" d="M154.35,-63.36C143.27,-63.49 131.9,-63.63 121.08,-63.77"/>
<polygon fill="midnightblue" stroke="midnightblue" points="154.46,-66.86 164.41,-63.23 154.37,-59.86 154.46,-66.86"/>
</g>
<!-- Node4&#45;&gt;Node6 -->
<g id="edge5" class="edge">
<title>Node4&#45;&gt;Node6</title>
<path fill="none" stroke="midnightblue" d="M162.27,-44.65C146.17,-39.99 128.97,-35.01 113.43,-30.52"/>
<polygon fill="midnightblue" stroke="midnightblue" points="161.56,-48.08 172.14,-47.5 163.5,-41.36 161.56,-48.08"/>
</g>
<!-- Node4&#45;&gt;Node7 -->
<g id="edge6" class="edge">
<title>Node4&#45;&gt;Node7</title>
<path fill="none" stroke="midnightblue" d="M166.53,-80.54C147.81,-86.41 127.25,-92.87 109.31,-98.49"/>
<polygon fill="midnightblue" stroke="midnightblue" points="167.63,-83.86 176.12,-77.53 165.53,-77.18 167.63,-83.86"/>
</g>
</g>
</svg>
