<?xml version="1.0" encoding="UTF-8" standalone="no"?>
<!DOCTYPE svg PUBLIC "-//W3C//DTD SVG 1.1//EN"
 "http://www.w3.org/Graphics/SVG/1.1/DTD/svg11.dtd">
<!-- Generated by graphviz version 2.43.0 (0)
 -->
<!-- Title: problem_setup.print_int_list Pages: 1 -->
<svg width="824pt" height="268pt"
 viewBox="0.00 0.00 824.00 268.39" xmlns="http://www.w3.org/2000/svg" xmlns:xlink="http://www.w3.org/1999/xlink">
<g id="graph0" class="graph" transform="scale(1 1) rotate(0) translate(4 264.39)">
<title>problem_setup.print_int_list</title>
<!-- Node1 -->
<g id="node1" class="node">
<title>Node1</title>
<g id="a_node1"><a xlink:title=" ">
<polygon fill="#bfbfbf" stroke="black" points="714,-68.5 714,-98.5 816,-98.5 816,-68.5 714,-68.5"/>
<text text-anchor="start" x="722" y="-86.5" font-family="Arial" font-size="10.00">problem_setup.print</text>
<text text-anchor="middle" x="765" y="-75.5" font-family="Arial" font-size="10.00">_int_list</text>
</a>
</g>
</g>
<!-- Node2 -->
<g id="node2" class="node">
<title>Node2</title>
<g id="a_node2"><a xlink:href="namespaceproblem__setup.html#ada05bf105b9c97f6a6569fdfad318130" target="_top" xlink:title=" ">
<polygon fill="none" stroke="black" points="574,-112.5 574,-142.5 678,-142.5 678,-112.5 574,-112.5"/>
<text text-anchor="start" x="582" y="-130.5" font-family="Arial" font-size="10.00">problem_setup.copy</text>
<text text-anchor="middle" x="626" y="-119.5" font-family="Arial" font-size="10.00">_contact_zone</text>
</a>
</g>
</g>
<!-- Node1&#45;&gt;Node2 -->
<g id="edge1" class="edge">
<title>Node1&#45;&gt;Node2</title>
<path fill="none" stroke="midnightblue" d="M707.58,-101.62C696.42,-105.2 684.82,-108.93 674.02,-112.4"/>
<polygon fill="midnightblue" stroke="midnightblue" points="708.78,-104.91 717.24,-98.52 706.64,-98.24 708.78,-104.91"/>
</g>
<!-- Node7 -->
<g id="node7" class="node">
<title>Node7</title>
<g id="a_node7"><a xlink:href="namespaceproblem__setup.html#aecb6453b01b712d9b03efbcdf8f317e5" target="_top" xlink:title=" ">
<polygon fill="none" stroke="black" points="207.5,-0.5 207.5,-30.5 326.5,-30.5 326.5,-0.5 207.5,-0.5"/>
<text text-anchor="start" x="215.5" y="-18.5" font-family="Arial" font-size="10.00">problem_setup.serialize</text>
<text text-anchor="middle" x="267" y="-7.5" font-family="Arial" font-size="10.00">_matrix_list</text>
</a>
</g>
</g>
<!-- Node1&#45;&gt;Node7 -->
<g id="edge15" class="edge">
<title>Node1&#45;&gt;Node7</title>
<path fill="none" stroke="midnightblue" d="M712.61,-65.15C667.32,-49.95 599.2,-29.45 538,-20.5 465.75,-9.94 381.47,-10.38 326.55,-12.34"/>
<polygon fill="midnightblue" stroke="midnightblue" points="711.61,-68.5 722.2,-68.4 713.86,-61.87 711.61,-68.5"/>
</g>
<!-- Node8 -->
<g id="node8" class="node">
<title>Node8</title>
<g id="a_node8"><a xlink:href="namespaceproblem__setup.html#a537cfa64f80968083b662a6a6a6174e6" target="_top" xlink:title=" ">
<polygon fill="none" stroke="black" points="414.5,-68.5 414.5,-98.5 518.5,-98.5 518.5,-68.5 414.5,-68.5"/>
<text text-anchor="start" x="422.5" y="-86.5" font-family="Arial" font-size="10.00">problem_setup.write</text>
<text text-anchor="middle" x="466.5" y="-75.5" font-family="Arial" font-size="10.00">_cir_line_geo</text>
</a>
</g>
</g>
<!-- Node1&#45;&gt;Node8 -->
<g id="edge16" class="edge">
<title>Node1&#45;&gt;Node8</title>
<path fill="none" stroke="midnightblue" d="M703.49,-83.5C649.03,-83.5 569.88,-83.5 518.54,-83.5"/>
<polygon fill="midnightblue" stroke="midnightblue" points="703.7,-87 713.7,-83.5 703.7,-80 703.7,-87"/>
</g>
<!-- Node3 -->
<g id="node3" class="node">
<title>Node3</title>
<g id="a_node3"><a xlink:href="namespaceproblem__setup.html#a87c8571f538ea8ab692816e1388af758" target="_top" xlink:title=" ">
<polygon fill="none" stroke="black" points="395,-156.5 395,-186.5 538,-186.5 538,-156.5 395,-156.5"/>
<text text-anchor="start" x="403" y="-174.5" font-family="Arial" font-size="10.00">problem_setup.generate</text>
<text text-anchor="middle" x="466.5" y="-163.5" font-family="Arial" font-size="10.00">_cylindrical_wall_gmsh_input</text>
</a>
</g>
</g>
<!-- Node2&#45;&gt;Node3 -->
<g id="edge2" class="edge">
<title>Node2&#45;&gt;Node3</title>
<path fill="none" stroke="midnightblue" d="M563.83,-144.59C549.82,-148.5 535.03,-152.63 521.36,-156.45"/>
<polygon fill="midnightblue" stroke="midnightblue" points="565.17,-147.85 573.86,-141.79 563.29,-141.11 565.17,-147.85"/>
</g>
<!-- Node4 -->
<g id="node4" class="node">
<title>Node4</title>
<g id="a_node4"><a xlink:href="namespaceproblem__setup.html#aa86d439a2a3be267e8af3fe687016583" target="_top" xlink:title=" ">
<polygon fill="none" stroke="black" points="0,-104.5 0,-134.5 139,-134.5 139,-104.5 0,-104.5"/>
<text text-anchor="start" x="8" y="-122.5" font-family="Arial" font-size="10.00">problem_setup.generate</text>
<text text-anchor="middle" x="69.5" y="-111.5" font-family="Arial" font-size="10.00">_rect_container_gmsh_input</text>
</a>
</g>
</g>
<!-- Node2&#45;&gt;Node4 -->
<g id="edge3" class="edge">
<title>Node2&#45;&gt;Node4</title>
<path fill="none" stroke="midnightblue" d="M615.21,-151.92C602.3,-180.38 576.61,-226 538,-245.5 481.27,-274.16 458.2,-252.18 395,-245.5 295.57,-235 265.93,-240.08 175,-198.5 139.84,-182.42 105.29,-152.86 86.05,-134.81"/>
<polygon fill="midnightblue" stroke="midnightblue" points="618.47,-153.2 619.24,-142.64 612.05,-150.41 618.47,-153.2"/>
</g>
<!-- Node5 -->
<g id="node5" class="node">
<title>Node5</title>
<g id="a_node5"><a xlink:href="namespaceproblem__setup.html#ab2d86f4fe187ef9b78d1ad4ea438b98b" target="_top" xlink:title=" ">
<polygon fill="none" stroke="black" points="175,-148 175,-189 359,-189 359,-148 175,-148"/>
<text text-anchor="start" x="183" y="-177" font-family="Arial" font-size="10.00">problem_setup.generate</text>
<text text-anchor="start" x="183" y="-166" font-family="Arial" font-size="10.00">_rectangle_with_protrusion</text>
<text text-anchor="middle" x="267" y="-155" font-family="Arial" font-size="10.00">_and_opening_wall_gmsh_input_type3</text>
</a>
</g>
</g>
<!-- Node2&#45;&gt;Node5 -->
<g id="edge4" class="edge">
<title>Node2&#45;&gt;Node5</title>
<path fill="none" stroke="midnightblue" d="M563.53,-131.55C517.13,-134.92 451.94,-140.33 395,-147.5 383.36,-148.97 371.15,-150.71 359.1,-152.57"/>
<polygon fill="midnightblue" stroke="midnightblue" points="564,-135.03 573.72,-130.82 563.5,-128.04 564,-135.03"/>
</g>
<!-- Node6 -->
<g id="node6" class="node">
<title>Node6</title>
<g id="a_node6"><a xlink:href="namespaceproblem__setup.html#ad0951de1e260620b256ecd25ed5d8e5a" target="_top" xlink:title=" ">
<polygon fill="none" stroke="black" points="409,-205.5 409,-235.5 524,-235.5 524,-205.5 409,-205.5"/>
<text text-anchor="start" x="417" y="-223.5" font-family="Arial" font-size="10.00">problem_setup.particle</text>
<text text-anchor="middle" x="466.5" y="-212.5" font-family="Arial" font-size="10.00">_locations</text>
</a>
</g>
</g>
<!-- Node2&#45;&gt;Node6 -->
<g id="edge6" class="edge">
<title>Node2&#45;&gt;Node6</title>
<path fill="none" stroke="midnightblue" d="M601.91,-149.45C585.23,-164.37 561.56,-183.65 538,-196.5 531.87,-199.84 525.19,-202.84 518.46,-205.5"/>
<polygon fill="midnightblue" stroke="midnightblue" points="604.48,-151.85 609.51,-142.53 599.76,-146.68 604.48,-151.85"/>
</g>
<!-- Node2&#45;&gt;Node7 -->
<g id="edge7" class="edge">
<title>Node2&#45;&gt;Node7</title>
<path fill="none" stroke="midnightblue" d="M603.07,-105.2C586.62,-89.85 562.75,-70.33 538,-59.5 469.47,-29.51 383.07,-19.77 326.72,-16.71"/>
<polygon fill="midnightblue" stroke="midnightblue" points="600.89,-107.95 610.53,-112.35 605.73,-102.9 600.89,-107.95"/>
</g>
<!-- Node2&#45;&gt;Node8 -->
<g id="edge9" class="edge">
<title>Node2&#45;&gt;Node8</title>
<path fill="none" stroke="midnightblue" d="M564.14,-110.5C549.11,-106.3 533.16,-101.84 518.65,-97.79"/>
<polygon fill="midnightblue" stroke="midnightblue" points="563.29,-113.89 573.86,-113.21 565.17,-107.15 563.29,-113.89"/>
</g>
<!-- Node5&#45;&gt;Node4 -->
<g id="edge5" class="edge">
<title>Node5&#45;&gt;Node4</title>
<path fill="none" stroke="midnightblue" d="M174.2,-145.49C159.3,-141.76 144.23,-137.98 130.36,-134.5"/>
<polygon fill="midnightblue" stroke="midnightblue" points="173.39,-148.9 183.94,-147.93 175.09,-142.11 173.39,-148.9"/>
</g>
<!-- Node7&#45;&gt;Node4 -->
<g id="edge8" class="edge">
<title>Node7&#45;&gt;Node4</title>
<path fill="none" stroke="midnightblue" d="M197.28,-31.34C189.6,-34 182.03,-37.04 175,-40.5 140.52,-57.48 106.02,-86.47 86.56,-104.21"/>
<polygon fill="midnightblue" stroke="midnightblue" points="198.59,-34.6 207.02,-28.18 196.43,-27.94 198.59,-34.6"/>
</g>
<!-- Node8&#45;&gt;Node4 -->
<g id="edge10" class="edge">
<title>Node8&#45;&gt;Node4</title>
<path fill="none" stroke="midnightblue" d="M404.37,-94.25C389.56,-96.58 373.74,-98.84 359,-100.5 284.05,-108.93 197.7,-114.01 139.15,-116.77"/>
<polygon fill="midnightblue" stroke="midnightblue" points="405.12,-97.68 414.44,-92.63 404.01,-90.76 405.12,-97.68"/>
</g>
<!-- Node8&#45;&gt;Node5 -->
<g id="edge13" class="edge">
<title>Node8&#45;&gt;Node5</title>
<path fill="none" stroke="midnightblue" d="M418.91,-102.51C410.87,-106.02 402.64,-109.76 395,-113.5 378.56,-121.54 375.58,-125.75 359,-133.5 348.27,-138.52 336.6,-143.41 325.31,-147.86"/>
<polygon fill="midnightblue" stroke="midnightblue" points="420.41,-105.67 428.22,-98.51 417.65,-99.24 420.41,-105.67"/>
</g>
<!-- Node8&#45;&gt;Node7 -->
<g id="edge14" class="edge">
<title>Node8&#45;&gt;Node7</title>
<path fill="none" stroke="midnightblue" d="M421.55,-64.42C402.51,-56.51 379.85,-47.55 359,-40.5 348.6,-36.99 337.41,-33.6 326.56,-30.51"/>
<polygon fill="midnightblue" stroke="midnightblue" points="420.29,-67.69 430.87,-68.33 423,-61.24 420.29,-67.69"/>
</g>
<!-- Node9 -->
<g id="node9" class="node">
<title>Node9</title>
<g id="a_node9"><a xlink:href="namespaceproblem__setup.html#af2a3517f0f6e0d54303c7b67043b3ef6" target="_top" xlink:title=" ">
<polygon fill="none" stroke="black" points="175,-50 175,-91 359,-91 359,-50 175,-50"/>
<text text-anchor="start" x="183" y="-79" font-family="Arial" font-size="10.00">problem_setup.generate</text>
<text text-anchor="start" x="183" y="-68" font-family="Arial" font-size="10.00">_rectangle_with_protrusion</text>
<text text-anchor="middle" x="267" y="-57" font-family="Arial" font-size="10.00">_and_opening_wall_gmsh_input_type2</text>
</a>
</g>
</g>
<!-- Node8&#45;&gt;Node9 -->
<g id="edge11" class="edge">
<title>Node8&#45;&gt;Node9</title>
<path fill="none" stroke="midnightblue" d="M404.21,-79.47C389.92,-78.52 374.39,-77.5 359.11,-76.5"/>
<polygon fill="midnightblue" stroke="midnightblue" points="404.17,-82.97 414.38,-80.14 404.63,-75.99 404.17,-82.97"/>
</g>
<!-- Node9&#45;&gt;Node4 -->
<g id="edge12" class="edge">
<title>Node9&#45;&gt;Node4</title>
<path fill="none" stroke="midnightblue" d="M174.2,-93.51C159.3,-97.24 144.23,-101.02 130.36,-104.5"/>
<polygon fill="midnightblue" stroke="midnightblue" points="175.09,-96.89 183.94,-91.07 173.39,-90.1 175.09,-96.89"/>
</g>
</g>
</svg>
