<?xml version="1.0" encoding="UTF-8" standalone="no"?>
<!DOCTYPE svg PUBLIC "-//W3C//DTD SVG 1.1//EN"
 "http://www.w3.org/Graphics/SVG/1.1/DTD/svg11.dtd">
<!-- Generated by graphviz version 2.43.0 (0)
 -->
<!-- Title: util::isPointInsideAngledRectangle Pages: 1 -->
<svg width="256pt" height="101pt"
 viewBox="0.00 0.00 256.00 101.00" xmlns="http://www.w3.org/2000/svg" xmlns:xlink="http://www.w3.org/1999/xlink">
<g id="graph0" class="graph" transform="scale(1 1) rotate(0) translate(4 97)">
<title>util::isPointInsideAngledRectangle</title>
<!-- Node1 -->
<g id="Node000001" class="node">
<title>Node1</title>
<g id="a_Node000001"><a xlink:title="Checks if point is inside an angled rectangle.">
<polygon fill="#999999" stroke="#666666" points="122,-61.5 0,-61.5 0,-31.5 122,-31.5 122,-61.5"/>
<text text-anchor="start" x="8" y="-49.5" font-family="Arial" font-size="10.00">util::isPointInsideAngled</text>
<text text-anchor="middle" x="61" y="-38.5" font-family="Arial" font-size="10.00">Rectangle</text>
</a>
</g>
</g>
<!-- Node2 -->
<g id="Node000002" class="node">
<title>Node2</title>
<g id="a_Node000002"><a xlink:href="namespaceutil.html#a227b5f8acbd7a403a033663c8893d631" target="_top" xlink:title="Returns true if a &gt; b.">
<polygon fill="white" stroke="#666666" points="240.5,-93 165.5,-93 165.5,-74 240.5,-74 240.5,-93"/>
<text text-anchor="middle" x="203" y="-81" font-family="Arial" font-size="10.00">util::isGreater</text>
</a>
</g>
</g>
<!-- Node1&#45;&gt;Node2 -->
<g id="edge1_Node000001_Node000002" class="edge">
<title>Node1&#45;&gt;Node2</title>
<g id="a_edge1_Node000001_Node000002"><a xlink:title=" ">
<path fill="none" stroke="#63b8ff" d="M118.94,-61.55C131.36,-64.83 144.35,-68.26 156.27,-71.41"/>
<polygon fill="#63b8ff" stroke="#63b8ff" points="155.43,-74.81 165.99,-73.98 157.22,-68.04 155.43,-74.81"/>
</a>
</g>
</g>
<!-- Node3 -->
<g id="Node000003" class="node">
<title>Node3</title>
<g id="a_Node000003"><a xlink:href="namespaceutil.html#a868a26599b6b844d08d30063ac898319" target="_top" xlink:title="Returns true if a &lt; b.">
<polygon fill="white" stroke="#666666" points="235,-56 171,-56 171,-37 235,-37 235,-56"/>
<text text-anchor="middle" x="203" y="-44" font-family="Arial" font-size="10.00">util::isLess</text>
</a>
</g>
</g>
<!-- Node1&#45;&gt;Node3 -->
<g id="edge2_Node000001_Node000003" class="edge">
<title>Node1&#45;&gt;Node3</title>
<g id="a_edge2_Node000001_Node000003"><a xlink:title=" ">
<path fill="none" stroke="#63b8ff" d="M122.19,-46.5C135.14,-46.5 148.55,-46.5 160.6,-46.5"/>
<polygon fill="#63b8ff" stroke="#63b8ff" points="160.79,-50 170.79,-46.5 160.79,-43 160.79,-50"/>
</a>
</g>
</g>
<!-- Node4 -->
<g id="Node000004" class="node">
<title>Node4</title>
<g id="a_Node000004"><a xlink:href="namespaceutil.html#ac37c77bce2370e83008c6436dcec26c0" target="_top" xlink:title="Rotates a vector in xy&#45;plane in clockwise direction.">
<polygon fill="white" stroke="#666666" points="248,-19 158,-19 158,0 248,0 248,-19"/>
<text text-anchor="middle" x="203" y="-7" font-family="Arial" font-size="10.00">util::rotateCW2D</text>
</a>
</g>
</g>
<!-- Node1&#45;&gt;Node4 -->
<g id="edge3_Node000001_Node000004" class="edge">
<title>Node1&#45;&gt;Node4</title>
<g id="a_edge3_Node000001_Node000004"><a xlink:title=" ">
<path fill="none" stroke="#63b8ff" d="M118.94,-31.45C131.36,-28.17 144.35,-24.74 156.27,-21.59"/>
<polygon fill="#63b8ff" stroke="#63b8ff" points="157.22,-24.96 165.99,-19.02 155.43,-18.19 157.22,-24.96"/>
</a>
</g>
</g>
</g>
</svg>
