<?xml version="1.0" encoding="UTF-8" standalone="no"?>
<!DOCTYPE svg PUBLIC "-//W3C//DTD SVG 1.1//EN"
 "http://www.w3.org/Graphics/SVG/1.1/DTD/svg11.dtd">
<!-- Generated by graphviz version 2.43.0 (0)
 -->
<!-- Title: util::dot Pages: 1 -->
<svg width="256pt" height="252pt"
 viewBox="0.00 0.00 256.00 252.00" xmlns="http://www.w3.org/2000/svg" xmlns:xlink="http://www.w3.org/1999/xlink">
<g id="graph0" class="graph" transform="scale(1 1) rotate(0) translate(4 248)">
<title>util::dot</title>
<!-- Node1 -->
<g id="node1" class="node">
<title>Node1</title>
<g id="a_node1"><a xlink:title="Computes the dot product between matrix and vector.">
<polygon fill="#bfbfbf" stroke="black" points="199,-117.5 199,-136.5 248,-136.5 248,-117.5 199,-117.5"/>
<text text-anchor="middle" x="223.5" y="-124.5" font-family="Arial" font-size="10.00">util::dot</text>
</a>
</g>
</g>
<!-- Node2 -->
<g id="node2" class="node">
<title>Node2</title>
<g id="a_node2"><a xlink:href="classfe_1_1TetElem.html#a093bba69d7db17b0e5dcc7a8f00fb268" target="_top" xlink:title="Returns the values of derivative of shape function at point p.">
<polygon fill="none" stroke="black" points="14,-224.5 14,-243.5 149,-243.5 149,-224.5 14,-224.5"/>
<text text-anchor="middle" x="81.5" y="-231.5" font-family="Arial" font-size="10.00">fe::TetElem::getDerShapes</text>
</a>
</g>
</g>
<!-- Node1&#45;&gt;Node2 -->
<g id="edge1" class="edge">
<title>Node1&#45;&gt;Node2</title>
<path fill="none" stroke="midnightblue" d="M214.67,-146.14C205.39,-166.4 187.95,-197.79 163,-215 157.45,-218.83 151.22,-221.9 144.75,-224.35"/>
<polygon fill="midnightblue" stroke="midnightblue" points="218.01,-147.26 218.79,-136.69 211.59,-144.47 218.01,-147.26"/>
</g>
<!-- Node3 -->
<g id="node3" class="node">
<title>Node3</title>
<g id="a_node3"><a xlink:href="classfe_1_1TetElem.html#a1e53cb40204c661265b6780d4c9c688a" target="_top" xlink:title="Get vector of quadrature data.">
<polygon fill="none" stroke="black" points="13.5,-186.5 13.5,-205.5 149.5,-205.5 149.5,-186.5 13.5,-186.5"/>
<text text-anchor="middle" x="81.5" y="-193.5" font-family="Arial" font-size="10.00">fe::TetElem::getQuadDatas</text>
</a>
</g>
</g>
<!-- Node1&#45;&gt;Node3 -->
<g id="edge2" class="edge">
<title>Node1&#45;&gt;Node3</title>
<path fill="none" stroke="midnightblue" d="M206.54,-144.04C195.35,-155.01 179.5,-168.72 163,-177 155.3,-180.87 146.79,-183.96 138.27,-186.44"/>
<polygon fill="midnightblue" stroke="midnightblue" points="209.29,-146.24 213.81,-136.65 204.3,-141.33 209.29,-146.24"/>
</g>
<!-- Node4 -->
<g id="node4" class="node">
<title>Node4</title>
<g id="a_node4"><a xlink:href="classutil_1_1geometry_1_1Line.html#af3222bd1791a4d8fa102f4096dc2ca3c" target="_top" xlink:title="Checks if point is inside this object.">
<polygon fill="none" stroke="black" points="31.5,-137 31.5,-167 131.5,-167 131.5,-137 31.5,-137"/>
<text text-anchor="start" x="39.5" y="-155" font-family="Arial" font-size="10.00">util::geometry::Line</text>
<text text-anchor="middle" x="81.5" y="-144" font-family="Arial" font-size="10.00">::isInside</text>
</a>
</g>
</g>
<!-- Node1&#45;&gt;Node4 -->
<g id="edge3" class="edge">
<title>Node1&#45;&gt;Node4</title>
<path fill="none" stroke="midnightblue" d="M188.67,-133.04C171.58,-136.09 150.51,-139.86 131.66,-143.22"/>
<polygon fill="midnightblue" stroke="midnightblue" points="189.52,-136.44 198.75,-131.24 188.29,-129.55 189.52,-136.44"/>
</g>
<!-- Node5 -->
<g id="node5" class="node">
<title>Node5</title>
<g id="a_node5"><a xlink:href="classutil_1_1geometry_1_1Line.html#a7c3409e5d8a1025bdbf72d664ded6d03" target="_top" xlink:title="Checks if point is within given distance of this object.">
<polygon fill="none" stroke="black" points="31.5,-88 31.5,-118 131.5,-118 131.5,-88 31.5,-88"/>
<text text-anchor="start" x="39.5" y="-106" font-family="Arial" font-size="10.00">util::geometry::Line</text>
<text text-anchor="middle" x="81.5" y="-95" font-family="Arial" font-size="10.00">::isNear</text>
</a>
</g>
</g>
<!-- Node1&#45;&gt;Node5 -->
<g id="edge4" class="edge">
<title>Node1&#45;&gt;Node5</title>
<path fill="none" stroke="midnightblue" d="M188.67,-121.2C171.58,-118.27 150.51,-114.66 131.66,-111.43"/>
<polygon fill="midnightblue" stroke="midnightblue" points="188.3,-124.69 198.75,-122.93 189.49,-117.79 188.3,-124.69"/>
</g>
<!-- Node6 -->
<g id="node6" class="node">
<title>Node6</title>
<g id="a_node6"><a xlink:href="classutil_1_1geometry_1_1Line.html#a3eca2640ef36978ada44a3bb2926a56d" target="_top" xlink:title="Checks if point is within given distance of this object.">
<polygon fill="none" stroke="black" points="31.5,-39 31.5,-69 131.5,-69 131.5,-39 31.5,-39"/>
<text text-anchor="start" x="39.5" y="-57" font-family="Arial" font-size="10.00">util::geometry::Line</text>
<text text-anchor="middle" x="81.5" y="-46" font-family="Arial" font-size="10.00">::isNearBoundary</text>
</a>
</g>
</g>
<!-- Node1&#45;&gt;Node6 -->
<g id="edge5" class="edge">
<title>Node1&#45;&gt;Node6</title>
<path fill="none" stroke="midnightblue" d="M205.43,-110.29C194.16,-100.05 178.64,-87.34 163,-79 153.32,-73.83 142.4,-69.55 131.8,-66.07"/>
<polygon fill="midnightblue" stroke="midnightblue" points="203.13,-112.93 212.82,-117.22 207.91,-107.83 203.13,-112.93"/>
</g>
<!-- Node7 -->
<g id="node7" class="node">
<title>Node7</title>
<g id="a_node7"><a xlink:href="classfe_1_1TetElem.html#ab608ed3b2fc3948fabcbec3734d34f45" target="_top" xlink:title="Maps point p in a given element to the reference element.">
<polygon fill="none" stroke="black" points="0,-0.5 0,-19.5 163,-19.5 163,-0.5 0,-0.5"/>
<text text-anchor="middle" x="81.5" y="-7.5" font-family="Arial" font-size="10.00">fe::TetElem::mapPointToRefElem</text>
</a>
</g>
</g>
<!-- Node1&#45;&gt;Node7 -->
<g id="edge6" class="edge">
<title>Node1&#45;&gt;Node7</title>
<path fill="none" stroke="midnightblue" d="M215.8,-107.62C207.12,-85.44 189.85,-49.66 163,-30 157.07,-25.66 150.32,-22.26 143.29,-19.59"/>
<polygon fill="midnightblue" stroke="midnightblue" points="212.62,-109.12 219.38,-117.28 219.19,-106.69 212.62,-109.12"/>
</g>
</g>
</svg>
