<?xml version="1.0" encoding="UTF-8" standalone="no"?>
<!DOCTYPE svg PUBLIC "-//W3C//DTD SVG 1.1//EN"
 "http://www.w3.org/Graphics/SVG/1.1/DTD/svg11.dtd">
<!-- Generated by graphviz version 2.43.0 (0)
 -->
<!-- Title: util::isPointInsideBox Pages: 1 -->
<svg width="441pt" height="537pt"
 viewBox="0.00 0.00 441.00 537.00" xmlns="http://www.w3.org/2000/svg" xmlns:xlink="http://www.w3.org/1999/xlink">
<g id="graph0" class="graph" transform="scale(1 1) rotate(0) translate(4 533)">
<title>util::isPointInsideBox</title>
<!-- Node1 -->
<g id="Node000001" class="node">
<title>Node1</title>
<g id="a_Node000001"><a xlink:title="Returns true if point is inside box.">
<polygon fill="#999999" stroke="#666666" points="433,-192.5 324,-192.5 324,-173.5 433,-173.5 433,-192.5"/>
<text text-anchor="middle" x="378.5" y="-180.5" font-family="Arial" font-size="10.00">util::isPointInsideBox</text>
</a>
</g>
</g>
<!-- Node2 -->
<g id="Node000002" class="node">
<title>Node2</title>
<g id="a_Node000002"><a xlink:href="namespaceutil.html#a21a4c0c512c91e3de03f432d304dd4bd" target="_top" xlink:title="Checks if given two boxes are within given distance from each other.">
<polygon fill="white" stroke="#666666" points="274,-355.5 176,-355.5 176,-336.5 274,-336.5 274,-355.5"/>
<text text-anchor="middle" x="225" y="-343.5" font-family="Arial" font-size="10.00">util::areBoxesNear</text>
</a>
</g>
</g>
<!-- Node1&#45;&gt;Node2 -->
<g id="edge1_Node000001_Node000002" class="edge">
<title>Node1&#45;&gt;Node2</title>
<g id="a_edge1_Node000001_Node000002"><a xlink:title=" ">
<path fill="none" stroke="#63b8ff" d="M370.66,-202.34C358.73,-233.26 331.19,-293.75 288,-327 283,-330.85 277.23,-333.92 271.25,-336.37"/>
<polygon fill="#63b8ff" stroke="#63b8ff" points="374.03,-203.32 374.23,-192.72 367.46,-200.88 374.03,-203.32"/>
</a>
</g>
</g>
<!-- Node11 -->
<g id="Node000011" class="node">
<title>Node11</title>
<g id="a_Node000011"><a xlink:href="classutil_1_1geometry_1_1Triangle.html#aabf62b4005848ff687ed90e55835b1cc" target="_top" xlink:title="Checks if point is within given distance of this object.">
<polygon fill="white" stroke="#666666" points="283,-318 167,-318 167,-288 283,-288 283,-318"/>
<text text-anchor="start" x="175" y="-306" font-family="Arial" font-size="10.00">util::geometry::Triangle</text>
<text text-anchor="middle" x="225" y="-295" font-family="Arial" font-size="10.00">::isNear</text>
</a>
</g>
</g>
<!-- Node1&#45;&gt;Node11 -->
<g id="edge10_Node000001_Node000011" class="edge">
<title>Node1&#45;&gt;Node11</title>
<g id="a_edge10_Node000001_Node000011"><a xlink:title=" ">
<path fill="none" stroke="#63b8ff" d="M365.02,-200.64C349.24,-221.82 320.2,-257.21 288,-279 283.03,-282.36 277.52,-285.35 271.9,-287.98"/>
<polygon fill="#63b8ff" stroke="#63b8ff" points="367.88,-202.66 370.95,-192.51 362.23,-198.53 367.88,-202.66"/>
</a>
</g>
</g>
<!-- Node12 -->
<g id="Node000012" class="node">
<title>Node12</title>
<g id="a_Node000012"><a xlink:href="classutil_1_1geometry_1_1Square.html#a92690fc0666b29e0ddebd560719152e4" target="_top" xlink:title="Checks if point is within given distance of this object.">
<polygon fill="white" stroke="#666666" points="281.5,-270 168.5,-270 168.5,-240 281.5,-240 281.5,-270"/>
<text text-anchor="start" x="176.5" y="-258" font-family="Arial" font-size="10.00">util::geometry::Square</text>
<text text-anchor="middle" x="225" y="-247" font-family="Arial" font-size="10.00">::isNear</text>
</a>
</g>
</g>
<!-- Node1&#45;&gt;Node12 -->
<g id="edge11_Node000001_Node000012" class="edge">
<title>Node1&#45;&gt;Node12</title>
<g id="a_edge11_Node000001_Node000012"><a xlink:title=" ">
<path fill="none" stroke="#63b8ff" d="M351.89,-197.82C334.22,-207.77 310.03,-220.87 288,-231 281.29,-234.08 274.06,-237.13 266.99,-239.96"/>
<polygon fill="#63b8ff" stroke="#63b8ff" points="354.02,-200.63 360.99,-192.65 350.56,-194.55 354.02,-200.63"/>
</a>
</g>
</g>
<!-- Node13 -->
<g id="Node000013" class="node">
<title>Node13</title>
<g id="a_Node000013"><a xlink:href="classutil_1_1geometry_1_1Rectangle.html#a02f0fadb10ff4ec0d68fa29d4644370f" target="_top" xlink:title="Checks if point is within given distance of this object.">
<polygon fill="white" stroke="#666666" points="288,-222 162,-222 162,-192 288,-192 288,-222"/>
<text text-anchor="start" x="170" y="-210" font-family="Arial" font-size="10.00">util::geometry::Rectangle</text>
<text text-anchor="middle" x="225" y="-199" font-family="Arial" font-size="10.00">::isNear</text>
</a>
</g>
</g>
<!-- Node1&#45;&gt;Node13 -->
<g id="edge12_Node000001_Node000013" class="edge">
<title>Node1&#45;&gt;Node13</title>
<g id="a_edge12_Node000001_Node000013"><a xlink:title=" ">
<path fill="none" stroke="#63b8ff" d="M313.55,-193.13C305.15,-194.46 296.56,-195.82 288.2,-197.15"/>
<polygon fill="#63b8ff" stroke="#63b8ff" points="314.33,-196.55 323.66,-191.53 313.24,-189.64 314.33,-196.55"/>
</a>
</g>
</g>
<!-- Node14 -->
<g id="Node000014" class="node">
<title>Node14</title>
<g id="a_Node000014"><a xlink:href="classutil_1_1geometry_1_1Hexagon.html#a2f7a97f1d019fe56f11e268206a242a5" target="_top" xlink:title="Checks if point is within given distance of this object.">
<polygon fill="white" stroke="#666666" points="285.5,-174 164.5,-174 164.5,-144 285.5,-144 285.5,-174"/>
<text text-anchor="start" x="172.5" y="-162" font-family="Arial" font-size="10.00">util::geometry::Hexagon</text>
<text text-anchor="middle" x="225" y="-151" font-family="Arial" font-size="10.00">::isNear</text>
</a>
</g>
</g>
<!-- Node1&#45;&gt;Node14 -->
<g id="edge13_Node000001_Node000014" class="edge">
<title>Node1&#45;&gt;Node14</title>
<g id="a_edge13_Node000001_Node000014"><a xlink:title=" ">
<path fill="none" stroke="#63b8ff" d="M313.68,-172.89C304.37,-171.42 294.81,-169.9 285.59,-168.44"/>
<polygon fill="#63b8ff" stroke="#63b8ff" points="313.24,-176.36 323.66,-174.47 314.33,-169.45 313.24,-176.36"/>
</a>
</g>
</g>
<!-- Node15 -->
<g id="Node000015" class="node">
<title>Node15</title>
<g id="a_Node000015"><a xlink:href="classutil_1_1geometry_1_1Drum2D.html#afc1ecad6f440986b987c3c6ce99196d8" target="_top" xlink:title="Checks if point is within given distance of this object.">
<polygon fill="white" stroke="#666666" points="284.5,-126 165.5,-126 165.5,-96 284.5,-96 284.5,-126"/>
<text text-anchor="start" x="173.5" y="-114" font-family="Arial" font-size="10.00">util::geometry::Drum2D</text>
<text text-anchor="middle" x="225" y="-103" font-family="Arial" font-size="10.00">::isNear</text>
</a>
</g>
</g>
<!-- Node1&#45;&gt;Node15 -->
<g id="edge14_Node000001_Node000015" class="edge">
<title>Node1&#45;&gt;Node15</title>
<g id="a_edge14_Node000001_Node000015"><a xlink:title=" ">
<path fill="none" stroke="#63b8ff" d="M351.89,-168.18C334.22,-158.23 310.03,-145.13 288,-135 281.29,-131.92 274.06,-128.87 266.99,-126.04"/>
<polygon fill="#63b8ff" stroke="#63b8ff" points="350.56,-171.45 360.99,-173.35 354.02,-165.37 350.56,-171.45"/>
</a>
</g>
</g>
<!-- Node16 -->
<g id="Node000016" class="node">
<title>Node16</title>
<g id="a_Node000016"><a xlink:href="classutil_1_1geometry_1_1Cube.html#a864f130a45230d4b55926048c4b6fd4c" target="_top" xlink:title="Checks if point is within given distance of this object.">
<polygon fill="white" stroke="#666666" points="277.5,-78 172.5,-78 172.5,-48 277.5,-48 277.5,-78"/>
<text text-anchor="start" x="180.5" y="-66" font-family="Arial" font-size="10.00">util::geometry::Cube</text>
<text text-anchor="middle" x="225" y="-55" font-family="Arial" font-size="10.00">::isNear</text>
</a>
</g>
</g>
<!-- Node1&#45;&gt;Node16 -->
<g id="edge15_Node000001_Node000016" class="edge">
<title>Node1&#45;&gt;Node16</title>
<g id="a_edge15_Node000001_Node000016"><a xlink:title=" ">
<path fill="none" stroke="#63b8ff" d="M365.02,-165.36C349.24,-144.18 320.2,-108.79 288,-87 283.03,-83.64 277.52,-80.65 271.9,-78.02"/>
<polygon fill="#63b8ff" stroke="#63b8ff" points="362.23,-167.47 370.95,-173.49 367.88,-163.34 362.23,-167.47"/>
</a>
</g>
</g>
<!-- Node17 -->
<g id="Node000017" class="node">
<title>Node17</title>
<g id="a_Node000017"><a xlink:href="classutil_1_1geometry_1_1Cuboid.html#a464c548fd7b0683cfd5a114022ce9f68" target="_top" xlink:title="Checks if point is within given distance of this object.">
<polygon fill="white" stroke="#666666" points="281.5,-30 168.5,-30 168.5,0 281.5,0 281.5,-30"/>
<text text-anchor="start" x="176.5" y="-18" font-family="Arial" font-size="10.00">util::geometry::Cuboid</text>
<text text-anchor="middle" x="225" y="-7" font-family="Arial" font-size="10.00">::isNear</text>
</a>
</g>
</g>
<!-- Node1&#45;&gt;Node17 -->
<g id="edge16_Node000001_Node000017" class="edge">
<title>Node1&#45;&gt;Node17</title>
<g id="a_edge16_Node000001_Node000017"><a xlink:title=" ">
<path fill="none" stroke="#63b8ff" d="M370.37,-164.02C358.05,-133.58 329.97,-73.78 288,-39 283.91,-35.61 279.29,-32.67 274.46,-30.11"/>
<polygon fill="#63b8ff" stroke="#63b8ff" points="367.17,-165.43 374.07,-173.47 373.69,-162.88 367.17,-165.43"/>
</a>
</g>
</g>
<!-- Node3 -->
<g id="Node000003" class="node">
<title>Node3</title>
<g id="a_Node000003"><a xlink:href="classutil_1_1geometry_1_1Triangle.html#a48ae3ed64cecfc395906a1bf68bf973d" target="_top" xlink:title="Checks if box is within given distance of this object.">
<polygon fill="white" stroke="#666666" points="121,-529 5,-529 5,-499 121,-499 121,-529"/>
<text text-anchor="start" x="13" y="-517" font-family="Arial" font-size="10.00">util::geometry::Triangle</text>
<text text-anchor="middle" x="63" y="-506" font-family="Arial" font-size="10.00">::isNear</text>
</a>
</g>
</g>
<!-- Node2&#45;&gt;Node3 -->
<g id="edge2_Node000002_Node000003" class="edge">
<title>Node2&#45;&gt;Node3</title>
<g id="a_edge2_Node000002_Node000003"><a xlink:title=" ">
<path fill="none" stroke="#63b8ff" d="M215.71,-364.97C201.53,-395.39 169.85,-455.17 126,-490 121.75,-493.37 116.97,-496.32 112,-498.88"/>
<polygon fill="#63b8ff" stroke="#63b8ff" points="219.05,-366.08 219.99,-355.53 212.68,-363.19 219.05,-366.08"/>
</a>
</g>
</g>
<!-- Node4 -->
<g id="Node000004" class="node">
<title>Node4</title>
<g id="a_Node000004"><a xlink:href="classutil_1_1geometry_1_1Square.html#aeca313e91b6ebde43320b3a620df7341" target="_top" xlink:title="Checks if box is within given distance of this object.">
<polygon fill="white" stroke="#666666" points="119.5,-481 6.5,-481 6.5,-451 119.5,-451 119.5,-481"/>
<text text-anchor="start" x="14.5" y="-469" font-family="Arial" font-size="10.00">util::geometry::Square</text>
<text text-anchor="middle" x="63" y="-458" font-family="Arial" font-size="10.00">::isNear</text>
</a>
</g>
</g>
<!-- Node2&#45;&gt;Node4 -->
<g id="edge3_Node000002_Node000004" class="edge">
<title>Node2&#45;&gt;Node4</title>
<g id="a_edge3_Node000002_Node000004"><a xlink:title=" ">
<path fill="none" stroke="#63b8ff" d="M209.93,-363.61C192.28,-384.73 160.14,-420.01 126,-442 120.86,-445.31 115.19,-448.28 109.43,-450.91"/>
<polygon fill="#63b8ff" stroke="#63b8ff" points="212.74,-365.71 216.38,-355.76 207.33,-361.27 212.74,-365.71"/>
</a>
</g>
</g>
<!-- Node5 -->
<g id="Node000005" class="node">
<title>Node5</title>
<g id="a_Node000005"><a xlink:href="classutil_1_1geometry_1_1Rectangle.html#ab9e5e172e1a2542eb606f211562892ac" target="_top" xlink:title="Checks if box is within given distance of this object.">
<polygon fill="white" stroke="#666666" points="126,-433 0,-433 0,-403 126,-403 126,-433"/>
<text text-anchor="start" x="8" y="-421" font-family="Arial" font-size="10.00">util::geometry::Rectangle</text>
<text text-anchor="middle" x="63" y="-410" font-family="Arial" font-size="10.00">::isNear</text>
</a>
</g>
</g>
<!-- Node2&#45;&gt;Node5 -->
<g id="edge4_Node000002_Node000005" class="edge">
<title>Node2&#45;&gt;Node5</title>
<g id="a_edge4_Node000002_Node000005"><a xlink:title=" ">
<path fill="none" stroke="#63b8ff" d="M196.87,-360.07C177.36,-370 150.31,-383.36 126,-394 119.13,-397.01 111.75,-400.03 104.56,-402.88"/>
<polygon fill="#63b8ff" stroke="#63b8ff" points="198.49,-363.17 205.8,-355.5 195.3,-356.94 198.49,-363.17"/>
</a>
</g>
</g>
<!-- Node6 -->
<g id="Node000006" class="node">
<title>Node6</title>
<g id="a_Node000006"><a xlink:href="classutil_1_1geometry_1_1Hexagon.html#a22113f305ef928c9bf09b0817a68ea8f" target="_top" xlink:title="Checks if box is within given distance of this object.">
<polygon fill="white" stroke="#666666" points="123.5,-385 2.5,-385 2.5,-355 123.5,-355 123.5,-385"/>
<text text-anchor="start" x="10.5" y="-373" font-family="Arial" font-size="10.00">util::geometry::Hexagon</text>
<text text-anchor="middle" x="63" y="-362" font-family="Arial" font-size="10.00">::isNear</text>
</a>
</g>
</g>
<!-- Node2&#45;&gt;Node6 -->
<g id="edge5_Node000002_Node000006" class="edge">
<title>Node2&#45;&gt;Node6</title>
<g id="a_edge5_Node000002_Node000006"><a xlink:title=" ">
<path fill="none" stroke="#63b8ff" d="M165.72,-354.74C152,-356.8 137.36,-359 123.59,-361.06"/>
<polygon fill="#63b8ff" stroke="#63b8ff" points="166.62,-358.15 175.99,-353.2 165.59,-351.22 166.62,-358.15"/>
</a>
</g>
</g>
<!-- Node7 -->
<g id="Node000007" class="node">
<title>Node7</title>
<g id="a_Node000007"><a xlink:href="classutil_1_1geometry_1_1Drum2D.html#a6b4a0ee14758e9354d6e3566e74edfc9" target="_top" xlink:title="Checks if box is within given distance of this object.">
<polygon fill="white" stroke="#666666" points="122.5,-337 3.5,-337 3.5,-307 122.5,-307 122.5,-337"/>
<text text-anchor="start" x="11.5" y="-325" font-family="Arial" font-size="10.00">util::geometry::Drum2D</text>
<text text-anchor="middle" x="63" y="-314" font-family="Arial" font-size="10.00">::isNear</text>
</a>
</g>
</g>
<!-- Node2&#45;&gt;Node7 -->
<g id="edge6_Node000002_Node000007" class="edge">
<title>Node2&#45;&gt;Node7</title>
<g id="a_edge6_Node000002_Node000007"><a xlink:title=" ">
<path fill="none" stroke="#63b8ff" d="M165.95,-337.29C151.88,-335.18 136.82,-332.92 122.72,-330.81"/>
<polygon fill="#63b8ff" stroke="#63b8ff" points="165.59,-340.78 175.99,-338.8 166.62,-333.85 165.59,-340.78"/>
</a>
</g>
</g>
<!-- Node8 -->
<g id="Node000008" class="node">
<title>Node8</title>
<g id="a_Node000008"><a xlink:href="classutil_1_1geometry_1_1Cube.html#aac5be48370823593083e6da438bdb962" target="_top" xlink:title="Checks if box is within given distance of this object.">
<polygon fill="white" stroke="#666666" points="115.5,-289 10.5,-289 10.5,-259 115.5,-259 115.5,-289"/>
<text text-anchor="start" x="18.5" y="-277" font-family="Arial" font-size="10.00">util::geometry::Cube</text>
<text text-anchor="middle" x="63" y="-266" font-family="Arial" font-size="10.00">::isNear</text>
</a>
</g>
</g>
<!-- Node2&#45;&gt;Node8 -->
<g id="edge7_Node000002_Node000008" class="edge">
<title>Node2&#45;&gt;Node8</title>
<g id="a_edge7_Node000002_Node000008"><a xlink:title=" ">
<path fill="none" stroke="#63b8ff" d="M175.27,-333.03C170.69,-331.23 166.19,-329.22 162,-327 143.85,-317.37 143.79,-308.28 126,-298 120.4,-294.77 114.29,-291.8 108.15,-289.14"/>
<polygon fill="#63b8ff" stroke="#63b8ff" points="174.13,-336.34 184.72,-336.44 176.5,-329.76 174.13,-336.34"/>
</a>
</g>
</g>
<!-- Node9 -->
<g id="Node000009" class="node">
<title>Node9</title>
<g id="a_Node000009"><a xlink:href="classutil_1_1geometry_1_1Cuboid.html#ac88433cc43e94f4f1a399ba8776e4986" target="_top" xlink:title="Checks if box is within given distance of this object.">
<polygon fill="white" stroke="#666666" points="119.5,-241 6.5,-241 6.5,-211 119.5,-211 119.5,-241"/>
<text text-anchor="start" x="14.5" y="-229" font-family="Arial" font-size="10.00">util::geometry::Cuboid</text>
<text text-anchor="middle" x="63" y="-218" font-family="Arial" font-size="10.00">::isNear</text>
</a>
</g>
</g>
<!-- Node2&#45;&gt;Node9 -->
<g id="edge8_Node000002_Node000009" class="edge">
<title>Node2&#45;&gt;Node9</title>
<g id="a_edge8_Node000002_Node000009"><a xlink:title=" ">
<path fill="none" stroke="#63b8ff" d="M168.32,-331.69C166.09,-330.27 163.97,-328.71 162,-327 133.48,-302.22 153.61,-275.79 126,-250 122.37,-246.61 118.22,-243.68 113.81,-241.16"/>
<polygon fill="#63b8ff" stroke="#63b8ff" points="166.89,-334.89 177.37,-336.49 170.18,-328.71 166.89,-334.89"/>
</a>
</g>
</g>
<!-- Node10 -->
<g id="Node000010" class="node">
<title>Node10</title>
<g id="a_Node000010"><a xlink:href="classutil_1_1geometry_1_1Cylinder.html#a5e2547782e3c159abff3977dd872a8cc" target="_top" xlink:title="Checks if box is within given distance of this object.">
<polygon fill="white" stroke="#666666" points="122,-193 4,-193 4,-163 122,-163 122,-193"/>
<text text-anchor="start" x="12" y="-181" font-family="Arial" font-size="10.00">util::geometry::Cylinder</text>
<text text-anchor="middle" x="63" y="-170" font-family="Arial" font-size="10.00">::isNear</text>
</a>
</g>
</g>
<!-- Node2&#45;&gt;Node10 -->
<g id="edge9_Node000002_Node000010" class="edge">
<title>Node2&#45;&gt;Node10</title>
<g id="a_edge9_Node000002_Node000010"><a xlink:title=" ">
<path fill="none" stroke="#63b8ff" d="M167.19,-331.49C165.34,-330.12 163.6,-328.63 162,-327 121.47,-285.77 165.02,-244.66 126,-202 122.88,-198.59 119.23,-195.67 115.28,-193.15"/>
<polygon fill="#63b8ff" stroke="#63b8ff" points="165.46,-334.53 175.84,-336.69 169.07,-328.54 165.46,-334.53"/>
</a>
</g>
</g>
</g>
</svg>
