<?xml version="1.0" encoding="UTF-8" standalone="no"?>
<!DOCTYPE svg PUBLIC "-//W3C//DTD SVG 1.1//EN"
 "http://www.w3.org/Graphics/SVG/1.1/DTD/svg11.dtd">
<!-- Generated by graphviz version 2.43.0 (0)
 -->
<!-- Title: problem_setup.get_max Pages: 1 -->
<svg width="842pt" height="666pt"
 viewBox="0.00 0.00 842.00 665.84" xmlns="http://www.w3.org/2000/svg" xmlns:xlink="http://www.w3.org/1999/xlink">
<g id="graph0" class="graph" transform="scale(1 1) rotate(0) translate(4 661.84)">
<title>problem_setup.get_max</title>
<!-- Node1 -->
<g id="node1" class="node">
<title>Node1</title>
<g id="a_node1"><a xlink:title=" ">
<polygon fill="#bfbfbf" stroke="black" points="713,-491.84 713,-510.84 834,-510.84 834,-491.84 713,-491.84"/>
<text text-anchor="middle" x="773.5" y="-498.84" font-family="Arial" font-size="10.00">problem_setup.get_max</text>
</a>
</g>
</g>
<!-- Node2 -->
<g id="node2" class="node">
<title>Node2</title>
<g id="a_node2"><a xlink:href="namespaceproblem__setup.html#ada05bf105b9c97f6a6569fdfad318130" target="_top" xlink:title=" ">
<polygon fill="none" stroke="black" points="567.5,-486.34 567.5,-516.34 671.5,-516.34 671.5,-486.34 567.5,-486.34"/>
<text text-anchor="start" x="575.5" y="-504.34" font-family="Arial" font-size="10.00">problem_setup.copy</text>
<text text-anchor="middle" x="619.5" y="-493.34" font-family="Arial" font-size="10.00">_contact_zone</text>
</a>
</g>
</g>
<!-- Node1&#45;&gt;Node2 -->
<g id="edge1" class="edge">
<title>Node1&#45;&gt;Node2</title>
<path fill="none" stroke="midnightblue" d="M702.85,-501.34C692.32,-501.34 681.64,-501.34 671.6,-501.34"/>
<polygon fill="midnightblue" stroke="midnightblue" points="702.86,-504.84 712.86,-501.34 702.86,-497.84 702.86,-504.84"/>
</g>
<!-- Node7 -->
<g id="node7" class="node">
<title>Node7</title>
<g id="a_node7"><a xlink:href="namespaceproblem__setup.html#aecb6453b01b712d9b03efbcdf8f317e5" target="_top" xlink:title=" ">
<polygon fill="none" stroke="black" points="207.5,-627.34 207.5,-657.34 326.5,-657.34 326.5,-627.34 207.5,-627.34"/>
<text text-anchor="start" x="215.5" y="-645.34" font-family="Arial" font-size="10.00">problem_setup.serialize</text>
<text text-anchor="middle" x="267" y="-634.34" font-family="Arial" font-size="10.00">_matrix_list</text>
</a>
</g>
</g>
<!-- Node1&#45;&gt;Node7 -->
<g id="edge40" class="edge">
<title>Node1&#45;&gt;Node7</title>
<path fill="none" stroke="midnightblue" d="M751.09,-516.93C709.95,-545.89 615.92,-607.19 526,-631.34 459.43,-649.21 379.76,-649.58 326.74,-647.03"/>
<polygon fill="midnightblue" stroke="midnightblue" points="753.38,-519.6 759.5,-510.95 749.32,-513.9 753.38,-519.6"/>
</g>
<!-- Node8 -->
<g id="node8" class="node">
<title>Node8</title>
<g id="a_node8"><a xlink:href="namespaceproblem__setup.html#a537cfa64f80968083b662a6a6a6174e6" target="_top" xlink:title=" ">
<polygon fill="none" stroke="black" points="408.5,-559.34 408.5,-589.34 512.5,-589.34 512.5,-559.34 408.5,-559.34"/>
<text text-anchor="start" x="416.5" y="-577.34" font-family="Arial" font-size="10.00">problem_setup.write</text>
<text text-anchor="middle" x="460.5" y="-566.34" font-family="Arial" font-size="10.00">_cir_line_geo</text>
</a>
</g>
</g>
<!-- Node1&#45;&gt;Node8 -->
<g id="edge41" class="edge">
<title>Node1&#45;&gt;Node8</title>
<path fill="none" stroke="midnightblue" d="M727.14,-513.58C711.3,-517.75 693.4,-522.37 677,-526.34 620.93,-539.92 556.31,-554.12 512.57,-563.52"/>
<polygon fill="midnightblue" stroke="midnightblue" points="728.43,-516.86 737.2,-510.91 726.64,-510.09 728.43,-516.86"/>
</g>
<!-- Node10 -->
<g id="node10" class="node">
<title>Node10</title>
<g id="a_node10"><a xlink:href="namespaceproblem__setup.html#a2a1eff7bae1c660880f6181ab7473cb5" target="_top" xlink:title=" ">
<polygon fill="none" stroke="black" points="567.5,-200.34 567.5,-230.34 671.5,-230.34 671.5,-200.34 567.5,-200.34"/>
<text text-anchor="start" x="575.5" y="-218.34" font-family="Arial" font-size="10.00">problem_setup.does</text>
<text text-anchor="middle" x="619.5" y="-207.34" font-family="Arial" font-size="10.00">_intersect</text>
</a>
</g>
</g>
<!-- Node1&#45;&gt;Node10 -->
<g id="edge15" class="edge">
<title>Node1&#45;&gt;Node10</title>
<path fill="none" stroke="midnightblue" d="M770.5,-481.45C764.72,-433.8 743.87,-311.76 677,-240.34 673.41,-236.5 669.12,-233.22 664.54,-230.42"/>
<polygon fill="midnightblue" stroke="midnightblue" points="767.06,-482.1 771.64,-491.65 774.01,-481.32 767.06,-482.1"/>
</g>
<!-- Node11 -->
<g id="node11" class="node">
<title>Node11</title>
<g id="a_node11"><a xlink:href="namespaceproblem__setup.html#a662426f1cd2c0857864b28e98daa4d5a" target="_top" xlink:title=" ">
<polygon fill="none" stroke="black" points="562,-249.34 562,-279.34 677,-279.34 677,-249.34 562,-249.34"/>
<text text-anchor="start" x="570" y="-267.34" font-family="Arial" font-size="10.00">problem_setup.particle</text>
<text text-anchor="middle" x="619.5" y="-256.34" font-family="Arial" font-size="10.00">_locations</text>
</a>
</g>
</g>
<!-- Node1&#45;&gt;Node11 -->
<g id="edge16" class="edge">
<title>Node1&#45;&gt;Node11</title>
<path fill="none" stroke="midnightblue" d="M760.92,-483.28C732.02,-438.22 657.12,-321.44 630.26,-279.56"/>
<polygon fill="midnightblue" stroke="midnightblue" points="758.01,-485.23 766.35,-491.75 763.9,-481.45 758.01,-485.23"/>
</g>
<!-- Node3 -->
<g id="node3" class="node">
<title>Node3</title>
<g id="a_node3"><a xlink:href="namespaceproblem__setup.html#a87c8571f538ea8ab692816e1388af758" target="_top" xlink:title=" ">
<polygon fill="none" stroke="black" points="195.5,-314.34 195.5,-344.34 338.5,-344.34 338.5,-314.34 195.5,-314.34"/>
<text text-anchor="start" x="203.5" y="-332.34" font-family="Arial" font-size="10.00">problem_setup.generate</text>
<text text-anchor="middle" x="267" y="-321.34" font-family="Arial" font-size="10.00">_cylindrical_wall_gmsh_input</text>
</a>
</g>
</g>
<!-- Node2&#45;&gt;Node3 -->
<g id="edge2" class="edge">
<title>Node2&#45;&gt;Node3</title>
<path fill="none" stroke="midnightblue" d="M578.65,-481.78C507.95,-447.09 362.06,-375.5 298.6,-344.36"/>
<polygon fill="midnightblue" stroke="midnightblue" points="577.18,-484.96 587.7,-486.22 580.27,-478.68 577.18,-484.96"/>
</g>
<!-- Node4 -->
<g id="node4" class="node">
<title>Node4</title>
<g id="a_node4"><a xlink:href="namespaceproblem__setup.html#aa86d439a2a3be267e8af3fe687016583" target="_top" xlink:title=" ">
<polygon fill="none" stroke="black" points="0,-460.34 0,-490.34 139,-490.34 139,-460.34 0,-460.34"/>
<text text-anchor="start" x="8" y="-478.34" font-family="Arial" font-size="10.00">problem_setup.generate</text>
<text text-anchor="middle" x="69.5" y="-467.34" font-family="Arial" font-size="10.00">_rect_container_gmsh_input</text>
</a>
</g>
</g>
<!-- Node2&#45;&gt;Node4 -->
<g id="edge3" class="edge">
<title>Node2&#45;&gt;Node4</title>
<path fill="none" stroke="midnightblue" d="M557.29,-499.03C512.37,-497.3 449.89,-494.82 395,-492.34 297.2,-487.92 272.76,-486.59 175,-481.34 163.39,-480.71 151.05,-480.03 139.07,-479.35"/>
<polygon fill="midnightblue" stroke="midnightblue" points="557.33,-502.54 567.45,-499.42 557.59,-495.54 557.33,-502.54"/>
</g>
<!-- Node5 -->
<g id="node5" class="node">
<title>Node5</title>
<g id="a_node5"><a xlink:href="namespaceproblem__setup.html#ab2d86f4fe187ef9b78d1ad4ea438b98b" target="_top" xlink:title=" ">
<polygon fill="none" stroke="black" points="175,-430.84 175,-471.84 359,-471.84 359,-430.84 175,-430.84"/>
<text text-anchor="start" x="183" y="-459.84" font-family="Arial" font-size="10.00">problem_setup.generate</text>
<text text-anchor="start" x="183" y="-448.84" font-family="Arial" font-size="10.00">_rectangle_with_protrusion</text>
<text text-anchor="middle" x="267" y="-437.84" font-family="Arial" font-size="10.00">_and_opening_wall_gmsh_input_type3</text>
</a>
</g>
</g>
<!-- Node2&#45;&gt;Node5 -->
<g id="edge4" class="edge">
<title>Node2&#45;&gt;Node5</title>
<path fill="none" stroke="midnightblue" d="M557.26,-492.6C502.54,-484.8 421.62,-473.25 359.27,-464.36"/>
<polygon fill="midnightblue" stroke="midnightblue" points="556.76,-496.07 567.16,-494.01 557.75,-489.14 556.76,-496.07"/>
</g>
<!-- Node6 -->
<g id="node6" class="node">
<title>Node6</title>
<g id="a_node6"><a xlink:href="namespaceproblem__setup.html#ad0951de1e260620b256ecd25ed5d8e5a" target="_top" xlink:title=" ">
<polygon fill="none" stroke="black" points="209.5,-265.34 209.5,-295.34 324.5,-295.34 324.5,-265.34 209.5,-265.34"/>
<text text-anchor="start" x="217.5" y="-283.34" font-family="Arial" font-size="10.00">problem_setup.particle</text>
<text text-anchor="middle" x="267" y="-272.34" font-family="Arial" font-size="10.00">_locations</text>
</a>
</g>
</g>
<!-- Node2&#45;&gt;Node6 -->
<g id="edge6" class="edge">
<title>Node2&#45;&gt;Node6</title>
<path fill="none" stroke="midnightblue" d="M603.12,-477.72C586.4,-453.44 557.78,-415.7 526,-390.34 460.9,-338.4 436.66,-335.41 359,-305.34 348.15,-301.14 336.32,-297.34 324.89,-294.05"/>
<polygon fill="midnightblue" stroke="midnightblue" points="600.23,-479.69 608.73,-486.01 606.02,-475.77 600.23,-479.69"/>
</g>
<!-- Node2&#45;&gt;Node7 -->
<g id="edge7" class="edge">
<title>Node2&#45;&gt;Node7</title>
<path fill="none" stroke="midnightblue" d="M603.1,-525.01C586.83,-547.94 558.99,-581.75 526,-599.34 463.49,-632.66 381.36,-641.34 326.73,-643.03"/>
<polygon fill="midnightblue" stroke="midnightblue" points="606.16,-526.74 608.96,-516.51 600.4,-522.76 606.16,-526.74"/>
</g>
<!-- Node2&#45;&gt;Node8 -->
<g id="edge9" class="edge">
<title>Node2&#45;&gt;Node8</title>
<path fill="none" stroke="midnightblue" d="M576.76,-520.75C550.82,-532.81 517.98,-548.08 493.99,-559.23"/>
<polygon fill="midnightblue" stroke="midnightblue" points="578.38,-523.85 585.97,-516.46 575.43,-517.51 578.38,-523.85"/>
</g>
<!-- Node5&#45;&gt;Node4 -->
<g id="edge5" class="edge">
<title>Node5&#45;&gt;Node4</title>
<path fill="none" stroke="midnightblue" d="M164.65,-463.78C155.98,-464.84 147.35,-465.9 139.03,-466.92"/>
<polygon fill="midnightblue" stroke="midnightblue" points="165.33,-467.22 174.83,-462.53 164.48,-460.27 165.33,-467.22"/>
</g>
<!-- Node7&#45;&gt;Node4 -->
<g id="edge8" class="edge">
<title>Node7&#45;&gt;Node4</title>
<path fill="none" stroke="midnightblue" d="M197.66,-629.03C189.65,-625.92 181.89,-622.07 175,-617.34 126.07,-583.7 91.29,-519.5 77.31,-490.37"/>
<polygon fill="midnightblue" stroke="midnightblue" points="196.54,-632.35 207.13,-632.36 198.86,-625.74 196.54,-632.35"/>
</g>
<!-- Node8&#45;&gt;Node4 -->
<g id="edge10" class="edge">
<title>Node8&#45;&gt;Node4</title>
<path fill="none" stroke="midnightblue" d="M398.2,-564.15C340.14,-553.85 250.8,-536.34 175,-514.34 151.94,-507.64 126.7,-498.28 106.81,-490.41"/>
<polygon fill="midnightblue" stroke="midnightblue" points="397.86,-567.64 408.31,-565.92 399.07,-560.74 397.86,-567.64"/>
</g>
<!-- Node8&#45;&gt;Node5 -->
<g id="edge13" class="edge">
<title>Node8&#45;&gt;Node5</title>
<path fill="none" stroke="midnightblue" d="M427.5,-553.79C392.09,-531.04 335.37,-494.61 299.97,-471.87"/>
<polygon fill="midnightblue" stroke="midnightblue" points="425.71,-556.8 436.02,-559.26 429.5,-550.91 425.71,-556.8"/>
</g>
<!-- Node8&#45;&gt;Node7 -->
<g id="edge14" class="edge">
<title>Node8&#45;&gt;Node7</title>
<path fill="none" stroke="midnightblue" d="M417.8,-593.69C399.91,-601.59 378.65,-610.47 359,-617.34 348.64,-620.96 337.47,-624.4 326.62,-627.5"/>
<polygon fill="midnightblue" stroke="midnightblue" points="419.65,-596.7 427.35,-589.42 416.8,-590.3 419.65,-596.7"/>
</g>
<!-- Node9 -->
<g id="node9" class="node">
<title>Node9</title>
<g id="a_node9"><a xlink:href="namespaceproblem__setup.html#af2a3517f0f6e0d54303c7b67043b3ef6" target="_top" xlink:title=" ">
<polygon fill="none" stroke="black" points="175,-566.84 175,-607.84 359,-607.84 359,-566.84 175,-566.84"/>
<text text-anchor="start" x="183" y="-595.84" font-family="Arial" font-size="10.00">problem_setup.generate</text>
<text text-anchor="start" x="183" y="-584.84" font-family="Arial" font-size="10.00">_rectangle_with_protrusion</text>
<text text-anchor="middle" x="267" y="-573.84" font-family="Arial" font-size="10.00">_and_opening_wall_gmsh_input_type2</text>
</a>
</g>
</g>
<!-- Node8&#45;&gt;Node9 -->
<g id="edge11" class="edge">
<title>Node8&#45;&gt;Node9</title>
<path fill="none" stroke="midnightblue" d="M398.22,-578.5C385.78,-579.34 372.44,-580.25 359.22,-581.15"/>
<polygon fill="midnightblue" stroke="midnightblue" points="398.69,-581.97 408.43,-577.8 398.22,-574.99 398.69,-581.97"/>
</g>
<!-- Node9&#45;&gt;Node4 -->
<g id="edge12" class="edge">
<title>Node9&#45;&gt;Node4</title>
<path fill="none" stroke="midnightblue" d="M196.4,-562.81C189.05,-559.56 181.78,-556.05 175,-552.34 142.19,-534.37 107.99,-507.33 88,-490.53"/>
<polygon fill="midnightblue" stroke="midnightblue" points="195.16,-566.09 205.74,-566.79 197.91,-559.65 195.16,-566.09"/>
</g>
<!-- Node11&#45;&gt;Node3 -->
<g id="edge33" class="edge">
<title>Node11&#45;&gt;Node3</title>
<path fill="none" stroke="midnightblue" d="M552.06,-279.88C543.31,-281.79 534.45,-283.66 526,-285.34 462.83,-297.89 390.51,-310.03 338.55,-318.37"/>
<polygon fill="midnightblue" stroke="midnightblue" points="552.85,-283.29 561.86,-277.71 551.34,-276.45 552.85,-283.29"/>
</g>
<!-- Node11&#45;&gt;Node4 -->
<g id="edge36" class="edge">
<title>Node11&#45;&gt;Node4</title>
<path fill="none" stroke="midnightblue" d="M582.15,-284.05C565.34,-292.74 544.94,-302.69 526,-310.34 374.29,-371.62 326.23,-358.89 175,-421.34 147.44,-432.72 117.33,-448.68 96.54,-460.3"/>
<polygon fill="midnightblue" stroke="midnightblue" points="583.85,-287.11 591.09,-279.38 580.6,-280.91 583.85,-287.11"/>
</g>
<!-- Node11&#45;&gt;Node5 -->
<g id="edge37" class="edge">
<title>Node11&#45;&gt;Node5</title>
<path fill="none" stroke="midnightblue" d="M607.53,-288.89C593.13,-318.2 565.02,-366.5 526,-392.34 476.58,-425.06 411.46,-439.79 359,-446.35"/>
<polygon fill="midnightblue" stroke="midnightblue" points="610.75,-290.27 611.89,-279.74 604.43,-287.27 610.75,-290.27"/>
</g>
<!-- Node11&#45;&gt;Node6 -->
<g id="edge39" class="edge">
<title>Node11&#45;&gt;Node6</title>
<path fill="none" stroke="midnightblue" d="M551.54,-267.39C485.78,-270.4 386.57,-274.93 324.62,-277.75"/>
<polygon fill="midnightblue" stroke="midnightblue" points="551.97,-270.88 561.8,-266.93 551.65,-263.89 551.97,-270.88"/>
</g>
<!-- Node12 -->
<g id="node12" class="node">
<title>Node12</title>
<g id="a_node12"><a xlink:href="namespaceproblem__setup.html#a64e067098e447f766d042476ef5abe85" target="_top" xlink:title=" ">
<polygon fill="none" stroke="black" points="405.5,-95.34 405.5,-125.34 515.5,-125.34 515.5,-95.34 405.5,-95.34"/>
<text text-anchor="start" x="413.5" y="-113.34" font-family="Arial" font-size="10.00">problem_setup.create</text>
<text text-anchor="middle" x="460.5" y="-102.34" font-family="Arial" font-size="10.00">_input_file</text>
</a>
</g>
</g>
<!-- Node11&#45;&gt;Node12 -->
<g id="edge17" class="edge">
<title>Node11&#45;&gt;Node12</title>
<path fill="none" stroke="midnightblue" d="M564.84,-243.1C563.86,-242.22 562.91,-241.3 562,-240.34 529.55,-206.01 557.87,-175.2 526,-140.34 520.5,-134.32 513.55,-129.41 506.26,-125.44"/>
<polygon fill="midnightblue" stroke="midnightblue" points="562.95,-246.06 573.06,-249.23 567.14,-240.45 562.95,-246.06"/>
</g>
<!-- Node14 -->
<g id="node14" class="node">
<title>Node14</title>
<g id="a_node14"><a xlink:href="namespaceproblem__setup.html#a8c789550cc1b70abe559c976bcf664e4" target="_top" xlink:title=" ">
<polygon fill="none" stroke="black" points="201.5,-2.34 201.5,-32.34 332.5,-32.34 332.5,-2.34 201.5,-2.34"/>
<text text-anchor="start" x="209.5" y="-20.34" font-family="Arial" font-size="10.00">problem_setup.generate</text>
<text text-anchor="middle" x="267" y="-9.34" font-family="Arial" font-size="10.00">_moving_wall_gmsh_input</text>
</a>
</g>
</g>
<!-- Node11&#45;&gt;Node14 -->
<g id="edge34" class="edge">
<title>Node11&#45;&gt;Node14</title>
<path fill="none" stroke="midnightblue" d="M563.87,-242.51C563.22,-241.81 562.6,-241.08 562,-240.34 506.39,-170.85 591.41,-103.7 526,-43.34 474.64,4.06 390.68,3.53 332.56,-4.23"/>
<polygon fill="midnightblue" stroke="midnightblue" points="561.8,-245.34 571.66,-249.21 566.36,-240.03 561.8,-245.34"/>
</g>
<!-- Node16 -->
<g id="node16" class="node">
<title>Node16</title>
<g id="a_node16"><a xlink:href="namespaceproblem__setup.html#a147f310ff74124342d15ab356739883f" target="_top" xlink:title=" ">
<polygon fill="none" stroke="black" points="206.5,-51.34 206.5,-81.34 327.5,-81.34 327.5,-51.34 206.5,-51.34"/>
<text text-anchor="start" x="214.5" y="-69.34" font-family="Arial" font-size="10.00">problem_setup.generate</text>
<text text-anchor="middle" x="267" y="-58.34" font-family="Arial" font-size="10.00">_particle_gmsh_input</text>
</a>
</g>
</g>
<!-- Node11&#45;&gt;Node16 -->
<g id="edge35" class="edge">
<title>Node11&#45;&gt;Node16</title>
<path fill="none" stroke="midnightblue" d="M564.26,-242.82C563.48,-242.02 562.72,-241.19 562,-240.34 516.51,-186.19 579.72,-131.33 526,-85.34 471.75,-38.9 385.37,-42.81 327.69,-52.45"/>
<polygon fill="midnightblue" stroke="midnightblue" points="562.15,-245.61 572.1,-249.25 566.59,-240.2 562.15,-245.61"/>
</g>
<!-- Node19 -->
<g id="node19" class="node">
<title>Node19</title>
<g id="a_node19"><a xlink:href="namespaceproblem__setup.html#a66cf6b889081b2c318eb0110057d83c9" target="_top" xlink:title=" ">
<polygon fill="none" stroke="black" points="395,-183.34 395,-235.34 526,-235.34 526,-183.34 395,-183.34"/>
<text text-anchor="start" x="403" y="-223.34" font-family="Arial" font-size="10.00">problem_setup.does</text>
<text text-anchor="start" x="403" y="-212.34" font-family="Arial" font-size="10.00">_intersect_with_rectangle</text>
<text text-anchor="start" x="403" y="-201.34" font-family="Arial" font-size="10.00">_wall_with_protrusion_and</text>
<text text-anchor="middle" x="460.5" y="-190.34" font-family="Arial" font-size="10.00">_opening</text>
</a>
</g>
</g>
<!-- Node11&#45;&gt;Node19 -->
<g id="edge30" class="edge">
<title>Node11&#45;&gt;Node19</title>
<path fill="none" stroke="midnightblue" d="M566.05,-245.96C553.26,-241.48 539.43,-236.64 526.15,-231.99"/>
<polygon fill="midnightblue" stroke="midnightblue" points="565,-249.31 575.6,-249.31 567.32,-242.7 565,-249.31"/>
</g>
<!-- Node20 -->
<g id="node20" class="node">
<title>Node20</title>
<g id="a_node20"><a xlink:href="namespaceproblem__setup.html#a91bf08b893f31c7d232346b6178f0a98" target="_top" xlink:title=" ">
<polygon fill="none" stroke="black" points="202.5,-226.84 202.5,-245.84 331.5,-245.84 331.5,-226.84 202.5,-226.84"/>
<text text-anchor="middle" x="267" y="-233.84" font-family="Arial" font-size="10.00">problem_setup.get_center</text>
</a>
</g>
</g>
<!-- Node11&#45;&gt;Node20 -->
<g id="edge38" class="edge">
<title>Node11&#45;&gt;Node20</title>
<path fill="none" stroke="midnightblue" d="M566.01,-243.66C564.62,-242.6 563.28,-241.49 562,-240.34 537.25,-217.89 554.73,-191.39 526,-174.34 475.93,-144.62 448.48,-151.33 395,-174.34 373.63,-183.53 379.01,-200.47 359,-212.34 348.32,-218.67 335.96,-223.36 323.86,-226.82"/>
<polygon fill="midnightblue" stroke="midnightblue" points="564.15,-246.63 574.43,-249.2 568,-240.78 564.15,-246.63"/>
</g>
<!-- Node12&#45;&gt;Node3 -->
<g id="edge18" class="edge">
<title>Node12&#45;&gt;Node3</title>
<path fill="none" stroke="midnightblue" d="M431.8,-131.95C418.93,-143.31 404.42,-158.21 395,-174.34 364.54,-226.47 401.92,-262.86 359,-305.34 353.19,-311.08 346.18,-315.5 338.66,-318.89"/>
<polygon fill="midnightblue" stroke="midnightblue" points="434.2,-134.5 439.54,-125.35 429.66,-129.17 434.2,-134.5"/>
</g>
<!-- Node12&#45;&gt;Node4 -->
<g id="edge26" class="edge">
<title>Node12&#45;&gt;Node4</title>
<path fill="none" stroke="midnightblue" d="M424.86,-130.73C415.05,-136.8 404.46,-143.63 395,-150.34 378.24,-162.22 377.58,-170.57 359,-179.34 283.48,-214.97 239.15,-163.88 175,-217.34 96.67,-282.62 76.47,-415.56 71.79,-460.28"/>
<polygon fill="midnightblue" stroke="midnightblue" points="426.89,-133.6 433.6,-125.4 423.25,-127.62 426.89,-133.6"/>
</g>
<!-- Node12&#45;&gt;Node5 -->
<g id="edge27" class="edge">
<title>Node12&#45;&gt;Node5</title>
<path fill="none" stroke="midnightblue" d="M431.03,-131.9C418.11,-143.17 403.78,-158 395,-174.34 356.36,-246.19 396.34,-281.8 359,-354.34 343.25,-384.93 315.01,-412.77 294.15,-430.7"/>
<polygon fill="midnightblue" stroke="midnightblue" points="433.41,-134.48 438.83,-125.37 428.92,-129.11 433.41,-134.48"/>
</g>
<!-- Node12&#45;&gt;Node6 -->
<g id="edge29" class="edge">
<title>Node12&#45;&gt;Node6</title>
<path fill="none" stroke="midnightblue" d="M433.35,-132.12C420.61,-143.7 405.75,-158.74 395,-174.34 372.63,-206.77 388.87,-229.65 359,-255.34 349.31,-263.67 337.08,-269.25 324.75,-272.97"/>
<polygon fill="midnightblue" stroke="midnightblue" points="435.8,-134.63 440.96,-125.38 431.15,-129.39 435.8,-134.63"/>
</g>
<!-- Node13 -->
<g id="node13" class="node">
<title>Node13</title>
<g id="a_node13"><a xlink:href="namespaceproblem__setup.html#aff5393227de056de45cfc082e05af1ca" target="_top" xlink:title=" ">
<polygon fill="none" stroke="black" points="199,-139.34 199,-169.34 335,-169.34 335,-139.34 199,-139.34"/>
<text text-anchor="start" x="207" y="-157.34" font-family="Arial" font-size="10.00">problem_setup.generate</text>
<text text-anchor="middle" x="267" y="-146.34" font-family="Arial" font-size="10.00">_drum_particle_gmsh_input</text>
</a>
</g>
</g>
<!-- Node12&#45;&gt;Node13 -->
<g id="edge19" class="edge">
<title>Node12&#45;&gt;Node13</title>
<path fill="none" stroke="midnightblue" d="M395.49,-125.05C375.56,-129.62 353.57,-134.68 333.54,-139.28"/>
<polygon fill="midnightblue" stroke="midnightblue" points="396.43,-128.42 405.39,-122.77 394.86,-121.6 396.43,-128.42"/>
</g>
<!-- Node12&#45;&gt;Node14 -->
<g id="edge20" class="edge">
<title>Node12&#45;&gt;Node14</title>
<path fill="none" stroke="midnightblue" d="M433.71,-88.92C414.25,-73.72 386.32,-53.86 359,-41.34 350.68,-37.53 341.65,-34.23 332.61,-31.41"/>
<polygon fill="midnightblue" stroke="midnightblue" points="431.76,-91.84 441.76,-95.33 436.12,-86.36 431.76,-91.84"/>
</g>
<!-- Node12&#45;&gt;Node16 -->
<g id="edge22" class="edge">
<title>Node12&#45;&gt;Node16</title>
<path fill="none" stroke="midnightblue" d="M395.53,-95.64C373.63,-90.61 349.23,-85 327.69,-80.05"/>
<polygon fill="midnightblue" stroke="midnightblue" points="394.86,-99.08 405.39,-97.91 396.43,-92.26 394.86,-99.08"/>
</g>
<!-- Node18 -->
<g id="node18" class="node">
<title>Node18</title>
<g id="a_node18"><a xlink:href="namespaceproblem__setup.html#af51753c1e02e9634827a449ab8729d44" target="_top" xlink:title=" ">
<polygon fill="none" stroke="black" points="9,-100.34 9,-130.34 130,-130.34 130,-100.34 9,-100.34"/>
<text text-anchor="start" x="17" y="-118.34" font-family="Arial" font-size="10.00">problem_setup.generate</text>
<text text-anchor="middle" x="69.5" y="-107.34" font-family="Arial" font-size="10.00">_wall_gmsh_input</text>
</a>
</g>
</g>
<!-- Node12&#45;&gt;Node18 -->
<g id="edge28" class="edge">
<title>Node12&#45;&gt;Node18</title>
<path fill="none" stroke="midnightblue" d="M395.34,-111.16C321.7,-112.11 201.88,-113.65 130.18,-114.57"/>
<polygon fill="midnightblue" stroke="midnightblue" points="395.46,-114.66 405.41,-111.03 395.37,-107.66 395.46,-114.66"/>
</g>
<!-- Node15 -->
<g id="node15" class="node">
<title>Node15</title>
<g id="a_node15"><a xlink:href="namespaceproblem__setup.html#a767ffea81ffa775dc9aeb12b2e2a21a4" target="_top" xlink:title=" ">
<polygon fill="none" stroke="black" points="12,-2.34 12,-32.34 127,-32.34 127,-2.34 12,-2.34"/>
<text text-anchor="start" x="20" y="-20.34" font-family="Arial" font-size="10.00">problem_setup.particle</text>
<text text-anchor="middle" x="69.5" y="-9.34" font-family="Arial" font-size="10.00">_locations</text>
</a>
</g>
</g>
<!-- Node14&#45;&gt;Node15 -->
<g id="edge21" class="edge">
<title>Node14&#45;&gt;Node15</title>
<path fill="none" stroke="midnightblue" d="M191.44,-17.34C170.09,-17.34 147.18,-17.34 127.1,-17.34"/>
<polygon fill="midnightblue" stroke="midnightblue" points="191.44,-20.84 201.44,-17.34 191.44,-13.84 191.44,-20.84"/>
</g>
<!-- Node16&#45;&gt;Node15 -->
<g id="edge25" class="edge">
<title>Node16&#45;&gt;Node15</title>
<path fill="none" stroke="midnightblue" d="M196.37,-48.89C173.69,-43.2 148.8,-36.96 127.18,-31.54"/>
<polygon fill="midnightblue" stroke="midnightblue" points="195.73,-52.33 206.28,-51.37 197.43,-45.54 195.73,-52.33"/>
</g>
<!-- Node17 -->
<g id="node17" class="node">
<title>Node17</title>
<g id="a_node17"><a xlink:href="namespaceproblem__setup.html#a94bf8e7f89d392c05bd34dfd6a513675" target="_top" xlink:title=" ">
<polygon fill="none" stroke="black" points="9,-51.34 9,-81.34 130,-81.34 130,-51.34 9,-51.34"/>
<text text-anchor="start" x="17" y="-69.34" font-family="Arial" font-size="10.00">problem_setup.generate</text>
<text text-anchor="middle" x="69.5" y="-58.34" font-family="Arial" font-size="10.00">_particle_gmsh_input</text>
</a>
</g>
</g>
<!-- Node16&#45;&gt;Node17 -->
<g id="edge23" class="edge">
<title>Node16&#45;&gt;Node17</title>
<path fill="none" stroke="midnightblue" d="M196.19,-66.34C174.6,-66.34 151.03,-66.34 130.19,-66.34"/>
<polygon fill="midnightblue" stroke="midnightblue" points="196.28,-69.84 206.28,-66.34 196.28,-62.84 196.28,-69.84"/>
</g>
<!-- Node16&#45;&gt;Node18 -->
<g id="edge24" class="edge">
<title>Node16&#45;&gt;Node18</title>
<path fill="none" stroke="midnightblue" d="M196.49,-83.76C174.82,-89.19 151.12,-95.13 130.19,-100.38"/>
<polygon fill="midnightblue" stroke="midnightblue" points="197.43,-87.13 206.28,-81.31 195.73,-80.34 197.43,-87.13"/>
</g>
<!-- Node19&#45;&gt;Node20 -->
<g id="edge31" class="edge">
<title>Node19&#45;&gt;Node20</title>
<path fill="none" stroke="midnightblue" d="M384.73,-219.88C367.18,-222.35 348.65,-224.97 331.64,-227.37"/>
<polygon fill="midnightblue" stroke="midnightblue" points="385.52,-223.3 394.93,-218.44 384.54,-216.37 385.52,-223.3"/>
</g>
<!-- Node20&#45;&gt;Node4 -->
<g id="edge32" class="edge">
<title>Node20&#45;&gt;Node4</title>
<path fill="none" stroke="midnightblue" d="M192.85,-245.98C186.44,-248.68 180.36,-252.08 175,-256.34 106.7,-310.56 80.53,-420.28 73.01,-460.3"/>
<polygon fill="midnightblue" stroke="midnightblue" points="194.23,-249.2 202.43,-242.5 191.84,-242.63 194.23,-249.2"/>
</g>
</g>
</svg>
