<?xml version="1.0" encoding="UTF-8" standalone="no"?>
<!DOCTYPE svg PUBLIC "-//W3C//DTD SVG 1.1//EN"
 "http://www.w3.org/Graphics/SVG/1.1/DTD/svg11.dtd">
<!-- Generated by graphviz version 2.43.0 (0)
 -->
<!-- Title: problem_setup.particle_locations Pages: 1 -->
<svg width="808pt" height="943pt"
 viewBox="0.00 0.00 808.00 942.90" xmlns="http://www.w3.org/2000/svg" xmlns:xlink="http://www.w3.org/1999/xlink">
<g id="graph0" class="graph" transform="scale(1 1) rotate(0) translate(4 938.9)">
<title>problem_setup.particle_locations</title>
<!-- Node1 -->
<g id="node1" class="node">
<title>Node1</title>
<g id="a_node1"><a xlink:title=" ">
<polygon fill="#bfbfbf" stroke="black" points="0,-429.13 0,-459.13 115,-459.13 115,-429.13 0,-429.13"/>
<text text-anchor="start" x="8" y="-447.13" font-family="Arial" font-size="10.00">problem_setup.particle</text>
<text text-anchor="middle" x="57.5" y="-436.13" font-family="Arial" font-size="10.00">_locations</text>
</a>
</g>
</g>
<!-- Node2 -->
<g id="node2" class="node">
<title>Node2</title>
<g id="a_node2"><a xlink:href="namespaceproblem__setup.html#ada05bf105b9c97f6a6569fdfad318130" target="_top" xlink:title=" ">
<polygon fill="none" stroke="black" points="164,-606.13 164,-636.13 268,-636.13 268,-606.13 164,-606.13"/>
<text text-anchor="start" x="172" y="-624.13" font-family="Arial" font-size="10.00">problem_setup.copy</text>
<text text-anchor="middle" x="216" y="-613.13" font-family="Arial" font-size="10.00">_contact_zone</text>
</a>
</g>
</g>
<!-- Node1&#45;&gt;Node2 -->
<g id="edge1" class="edge">
<title>Node1&#45;&gt;Node2</title>
<path fill="none" stroke="midnightblue" d="M64.63,-459.46C76.96,-488.61 107.39,-552.6 151,-591.13 155.14,-594.79 159.8,-598.09 164.67,-601.04"/>
<polygon fill="midnightblue" stroke="midnightblue" points="163.16,-604.2 173.6,-605.98 166.55,-598.08 163.16,-604.2"/>
</g>
<!-- Node3 -->
<g id="node3" class="node">
<title>Node3</title>
<g id="a_node3"><a xlink:href="namespaceproblem__setup.html#af977354e61703cd925c2511fd3ca0858" target="_top" xlink:title=" ">
<polygon fill="none" stroke="black" points="335.5,-579.63 335.5,-598.63 444.5,-598.63 444.5,-579.63 335.5,-579.63"/>
<text text-anchor="middle" x="390" y="-586.63" font-family="Arial" font-size="10.00">problem_setup.get_E</text>
</a>
</g>
</g>
<!-- Node1&#45;&gt;Node3 -->
<g id="edge37" class="edge">
<title>Node1&#45;&gt;Node3</title>
<path fill="none" stroke="midnightblue" d="M71.28,-459.4C87.79,-478.14 118.31,-509.57 151,-527.13 205.89,-556.63 275.55,-572.65 325.3,-580.96"/>
<polygon fill="midnightblue" stroke="midnightblue" points="324.85,-584.44 335.28,-582.58 325.97,-577.53 324.85,-584.44"/>
</g>
<!-- Node4 -->
<g id="node4" class="node">
<title>Node4</title>
<g id="a_node4"><a xlink:href="namespaceproblem__setup.html#a564e6017e037399c311be8b31653e45d" target="_top" xlink:title=" ">
<polygon fill="none" stroke="black" points="328.5,-541.63 328.5,-560.63 451.5,-560.63 451.5,-541.63 328.5,-541.63"/>
<text text-anchor="middle" x="390" y="-548.63" font-family="Arial" font-size="10.00">problem_setup.get_eff_k</text>
</a>
</g>
</g>
<!-- Node1&#45;&gt;Node4 -->
<g id="edge38" class="edge">
<title>Node1&#45;&gt;Node4</title>
<path fill="none" stroke="midnightblue" d="M81.59,-459.19C99.81,-470.49 126.18,-485.58 151,-495.13 205.55,-516.13 270.28,-530.74 318.45,-539.76"/>
<polygon fill="midnightblue" stroke="midnightblue" points="318,-543.24 328.47,-541.6 319.27,-536.35 318,-543.24"/>
</g>
<!-- Node5 -->
<g id="node5" class="node">
<title>Node5</title>
<g id="a_node5"><a xlink:href="namespaceproblem__setup.html#adc274a492cfb30270617c3c66d64c6c4" target="_top" xlink:title=" ">
<polygon fill="none" stroke="black" points="335,-503.63 335,-522.63 445,-522.63 445,-503.63 335,-503.63"/>
<text text-anchor="middle" x="390" y="-510.63" font-family="Arial" font-size="10.00">problem_setup.get_G</text>
</a>
</g>
</g>
<!-- Node1&#45;&gt;Node5 -->
<g id="edge39" class="edge">
<title>Node1&#45;&gt;Node5</title>
<path fill="none" stroke="midnightblue" d="M111.14,-459.15C124.12,-462.64 138.02,-466.18 151,-469.13 209.53,-482.43 276.84,-494.59 324.91,-502.74"/>
<polygon fill="midnightblue" stroke="midnightblue" points="324.42,-506.2 334.87,-504.41 325.59,-499.3 324.42,-506.2"/>
</g>
<!-- Node6 -->
<g id="node6" class="node">
<title>Node6</title>
<g id="a_node6"><a xlink:href="namespaceproblem__setup.html#aa39e6862e38920798278f55a2578a6ef" target="_top" xlink:title=" ">
<polygon fill="none" stroke="black" points="515.5,-278.63 515.5,-297.63 636.5,-297.63 636.5,-278.63 515.5,-278.63"/>
<text text-anchor="middle" x="576" y="-285.63" font-family="Arial" font-size="10.00">problem_setup.get_max</text>
</a>
</g>
</g>
<!-- Node1&#45;&gt;Node6 -->
<g id="edge40" class="edge">
<title>Node1&#45;&gt;Node6</title>
<path fill="none" stroke="midnightblue" d="M65.3,-428.87C77.94,-402.54 107.74,-349.11 151,-325.13 262.75,-263.2 416.96,-268.05 505.3,-277.72"/>
<polygon fill="midnightblue" stroke="midnightblue" points="505.15,-281.23 515.48,-278.89 505.94,-274.27 505.15,-281.23"/>
</g>
<!-- Node9 -->
<g id="node9" class="node">
<title>Node9</title>
<g id="a_node9"><a xlink:href="namespaceproblem__setup.html#a64e067098e447f766d042476ef5abe85" target="_top" xlink:title=" ">
<polygon fill="none" stroke="black" points="161,-366.13 161,-396.13 271,-396.13 271,-366.13 161,-366.13"/>
<text text-anchor="start" x="169" y="-384.13" font-family="Arial" font-size="10.00">problem_setup.create</text>
<text text-anchor="middle" x="216" y="-373.13" font-family="Arial" font-size="10.00">_input_file</text>
</a>
</g>
</g>
<!-- Node1&#45;&gt;Node9 -->
<g id="edge8" class="edge">
<title>Node1&#45;&gt;Node9</title>
<path fill="none" stroke="midnightblue" d="M95.99,-429.04C117.59,-420.35 144.94,-409.34 167.97,-400.06"/>
<polygon fill="midnightblue" stroke="midnightblue" points="169.58,-403.19 177.55,-396.21 166.97,-396.7 169.58,-403.19"/>
</g>
<!-- Node10 -->
<g id="node10" class="node">
<title>Node10</title>
<g id="a_node10"><a xlink:href="namespaceproblem__setup.html#a2deb4dabdc948f0b2b009c3576518ade" target="_top" xlink:title=" ">
<polygon fill="none" stroke="black" points="327.5,-405.13 327.5,-435.13 452.5,-435.13 452.5,-405.13 327.5,-405.13"/>
<text text-anchor="start" x="335.5" y="-423.13" font-family="Arial" font-size="10.00">problem_setup.generate</text>
<text text-anchor="middle" x="390" y="-412.13" font-family="Arial" font-size="10.00">_cir_particle_gmsh_input</text>
</a>
</g>
</g>
<!-- Node1&#45;&gt;Node10 -->
<g id="edge30" class="edge">
<title>Node1&#45;&gt;Node10</title>
<path fill="none" stroke="midnightblue" d="M115.31,-440.01C171.14,-435.95 256.54,-429.75 317.07,-425.36"/>
<polygon fill="midnightblue" stroke="midnightblue" points="317.6,-428.83 327.32,-424.61 317.09,-421.85 317.6,-428.83"/>
</g>
<!-- Node11 -->
<g id="node11" class="node">
<title>Node11</title>
<g id="a_node11"><a xlink:href="namespaceproblem__setup.html#ae83c0d80c0947e65b98e4a2da0c07601" target="_top" xlink:title=" ">
<polygon fill="none" stroke="black" points="317,-782.13 317,-812.13 463,-812.13 463,-782.13 317,-782.13"/>
<text text-anchor="start" x="325" y="-800.13" font-family="Arial" font-size="10.00">problem_setup.generate</text>
<text text-anchor="middle" x="390" y="-789.13" font-family="Arial" font-size="10.00">_drum2d_particle_gmsh_input</text>
</a>
</g>
</g>
<!-- Node1&#45;&gt;Node11 -->
<g id="edge31" class="edge">
<title>Node1&#45;&gt;Node11</title>
<path fill="none" stroke="midnightblue" d="M60.64,-459.42C69.14,-517.79 102.39,-725.47 151,-767.13 193.23,-803.33 256.17,-809.92 306.72,-807.95"/>
<polygon fill="midnightblue" stroke="midnightblue" points="307.17,-811.43 316.98,-807.43 306.81,-804.44 307.17,-811.43"/>
</g>
<!-- Node12 -->
<g id="node12" class="node">
<title>Node12</title>
<g id="a_node12"><a xlink:href="namespaceproblem__setup.html#a700be09e5b12da02f5d11c0d21cf5d5b" target="_top" xlink:title=" ">
<polygon fill="none" stroke="black" points="519.5,-793.13 519.5,-823.13 632.5,-823.13 632.5,-793.13 519.5,-793.13"/>
<text text-anchor="start" x="527.5" y="-811.13" font-family="Arial" font-size="10.00">problem_setup.get_ref</text>
<text text-anchor="middle" x="576" y="-800.13" font-family="Arial" font-size="10.00">_drum_points</text>
</a>
</g>
</g>
<!-- Node1&#45;&gt;Node12 -->
<g id="edge41" class="edge">
<title>Node1&#45;&gt;Node12</title>
<path fill="none" stroke="midnightblue" d="M60.19,-459.28C67.4,-521.25 97.76,-754.29 151,-801.13 255.34,-892.94 324.29,-830.77 463,-822.13 477.94,-821.2 493.93,-819.58 509.02,-817.76"/>
<polygon fill="midnightblue" stroke="midnightblue" points="509.81,-821.19 519.3,-816.48 508.94,-814.25 509.81,-821.19"/>
</g>
<!-- Node13 -->
<g id="node13" class="node">
<title>Node13</title>
<g id="a_node13"><a xlink:href="namespaceproblem__setup.html#a541e6c5ea41e139ea1eca83975753fbb" target="_top" xlink:title=" ">
<polygon fill="none" stroke="black" points="329,-454.13 329,-484.13 451,-484.13 451,-454.13 329,-454.13"/>
<text text-anchor="start" x="337" y="-472.13" font-family="Arial" font-size="10.00">problem_setup.generate</text>
<text text-anchor="middle" x="390" y="-461.13" font-family="Arial" font-size="10.00">_tri_particle_gmsh_input</text>
</a>
</g>
</g>
<!-- Node1&#45;&gt;Node13 -->
<g id="edge35" class="edge">
<title>Node1&#45;&gt;Node13</title>
<path fill="none" stroke="midnightblue" d="M115.31,-448.43C171.58,-452.69 257.87,-459.21 318.49,-463.8"/>
<polygon fill="midnightblue" stroke="midnightblue" points="318.5,-467.31 328.74,-464.57 319.03,-460.33 318.5,-467.31"/>
</g>
<!-- Node14 -->
<g id="node14" class="node">
<title>Node14</title>
<g id="a_node14"><a xlink:href="namespaceproblem__setup.html#ac4731e8b5a85713f528c4c79651768ac" target="_top" xlink:title=" ">
<polygon fill="none" stroke="black" points="519.5,-530.13 519.5,-560.13 632.5,-560.13 632.5,-530.13 519.5,-530.13"/>
<text text-anchor="start" x="527.5" y="-548.13" font-family="Arial" font-size="10.00">problem_setup.get_ref</text>
<text text-anchor="middle" x="576" y="-537.13" font-family="Arial" font-size="10.00">_triangle_points</text>
</a>
</g>
</g>
<!-- Node1&#45;&gt;Node14 -->
<g id="edge43" class="edge">
<title>Node1&#45;&gt;Node14</title>
<path fill="none" stroke="midnightblue" d="M61.84,-459.2C70.59,-495.53 97.26,-589.18 151,-646.13 208.31,-706.87 235.96,-713.98 317,-734.13 379.97,-749.79 406.62,-766.26 463,-734.13 525.47,-698.53 556.67,-612.87 568.78,-570.18"/>
<polygon fill="midnightblue" stroke="midnightblue" points="572.22,-570.88 571.45,-560.31 565.46,-569.05 572.22,-570.88"/>
</g>
<!-- Node15 -->
<g id="node15" class="node">
<title>Node15</title>
<g id="a_node15"><a xlink:href="namespaceproblem__setup.html#ad281d5f1d41eee4b1a595ede1aff337c" target="_top" xlink:title=" ">
<polygon fill="none" stroke="black" points="329.5,-317.13 329.5,-347.13 450.5,-347.13 450.5,-317.13 329.5,-317.13"/>
<text text-anchor="start" x="337.5" y="-335.13" font-family="Arial" font-size="10.00">problem_setup.generate</text>
<text text-anchor="middle" x="390" y="-324.13" font-family="Arial" font-size="10.00">_wall_gmsh_input</text>
</a>
</g>
</g>
<!-- Node1&#45;&gt;Node15 -->
<g id="edge36" class="edge">
<title>Node1&#45;&gt;Node15</title>
<path fill="none" stroke="midnightblue" d="M69.36,-429.04C84.89,-408.76 115.53,-373.39 151,-357.13 203.8,-332.93 269.92,-327.71 319.05,-327.95"/>
<polygon fill="midnightblue" stroke="midnightblue" points="319.22,-331.46 329.27,-328.08 319.31,-324.46 319.22,-331.46"/>
</g>
<!-- Node16 -->
<g id="node16" class="node">
<title>Node16</title>
<g id="a_node16"><a xlink:href="namespaceproblem__setup.html#a662426f1cd2c0857864b28e98daa4d5a" target="_top" xlink:title=" ">
<polygon fill="none" stroke="black" points="332.5,-229.13 332.5,-259.13 447.5,-259.13 447.5,-229.13 332.5,-229.13"/>
<text text-anchor="start" x="340.5" y="-247.13" font-family="Arial" font-size="10.00">problem_setup.particle</text>
<text text-anchor="middle" x="390" y="-236.13" font-family="Arial" font-size="10.00">_locations</text>
</a>
</g>
</g>
<!-- Node1&#45;&gt;Node16 -->
<g id="edge44" class="edge">
<title>Node1&#45;&gt;Node16</title>
<path fill="none" stroke="midnightblue" d="M61.81,-428.98C70.13,-394.88 95.36,-312.11 151,-274.13 201.04,-239.98 271.07,-234.95 322.2,-236.98"/>
<polygon fill="midnightblue" stroke="midnightblue" points="322.33,-240.49 332.49,-237.49 322.68,-233.5 322.33,-240.49"/>
</g>
<!-- Node17 -->
<g id="node17" class="node">
<title>Node17</title>
<g id="a_node17"><a xlink:href="namespaceproblem__setup.html#a49682af72cdc7bca4f282619eb559d90" target="_top" xlink:title=" ">
<polygon fill="none" stroke="black" points="499,-93.13 499,-123.13 653,-123.13 653,-93.13 499,-93.13"/>
<text text-anchor="start" x="507" y="-111.13" font-family="Arial" font-size="10.00">problem_setup.does</text>
<text text-anchor="middle" x="576" y="-100.13" font-family="Arial" font-size="10.00">_intersect_with_cylindrical_wall</text>
</a>
</g>
</g>
<!-- Node1&#45;&gt;Node17 -->
<g id="edge29" class="edge">
<title>Node1&#45;&gt;Node17</title>
<path fill="none" stroke="midnightblue" d="M59.63,-429.04C64.95,-362.76 89.77,-98.59 151,-49.13 258.88,38 328.73,-11.45 463,-46.13 493.83,-54.1 525.23,-72.56 546.9,-87.28"/>
<polygon fill="midnightblue" stroke="midnightblue" points="545.08,-90.28 555.28,-93.12 549.08,-84.53 545.08,-90.28"/>
</g>
<!-- Node18 -->
<g id="node18" class="node">
<title>Node18</title>
<g id="a_node18"><a xlink:href="namespaceutil_1_1io.html#a578a578ce41389fb01e56de7316b7054" target="_top" xlink:title="Prints formatted information.">
<polygon fill="none" stroke="black" points="542,-234.63 542,-253.63 610,-253.63 610,-234.63 542,-234.63"/>
<text text-anchor="middle" x="576" y="-241.63" font-family="Arial" font-size="10.00">util::io::print</text>
</a>
</g>
</g>
<!-- Node1&#45;&gt;Node18 -->
<g id="edge45" class="edge">
<title>Node1&#45;&gt;Node18</title>
<path fill="none" stroke="midnightblue" d="M60.16,-428.98C67.25,-367.02 97.2,-134.04 151,-88.13 203.81,-43.07 402.59,-37.93 463,-72.13 490.06,-87.45 482.26,-105.92 499,-132.13 520.47,-165.75 546.88,-204.03 562.24,-226.01"/>
<polygon fill="midnightblue" stroke="midnightblue" points="559.5,-228.19 568.1,-234.37 565.23,-224.17 559.5,-228.19"/>
</g>
<!-- Node24 -->
<g id="node21" class="node">
<title>Node24</title>
<g id="a_node21"><a xlink:href="namespaceproblem__setup.html#a9ce710367bd7258e6dd619e9ec930b36" target="_top" xlink:title=" ">
<polygon fill="none" stroke="black" points="339,-180.13 339,-210.13 441,-210.13 441,-180.13 339,-180.13"/>
<text text-anchor="start" x="347" y="-198.13" font-family="Arial" font-size="10.00">problem_setup.print</text>
<text text-anchor="middle" x="390" y="-187.13" font-family="Arial" font-size="10.00">_dbl_list</text>
</a>
</g>
</g>
<!-- Node1&#45;&gt;Node24 -->
<g id="edge46" class="edge">
<title>Node1&#45;&gt;Node24</title>
<path fill="none" stroke="midnightblue" d="M60.25,-428.9C65.64,-389.44 85.81,-283.52 151,-233.13 201.59,-194.03 276.59,-188.07 328.83,-189.62"/>
<polygon fill="midnightblue" stroke="midnightblue" points="328.83,-193.12 338.96,-190.02 329.1,-186.13 328.83,-193.12"/>
</g>
<!-- Node25 -->
<g id="node22" class="node">
<title>Node25</title>
<g id="a_node22"><a xlink:href="namespaceproblem__setup.html#ad4d4b3139613a4ea00dadf8eb7c60a88" target="_top" xlink:title=" ">
<polygon fill="none" stroke="black" points="338,-131.13 338,-161.13 442,-161.13 442,-131.13 338,-131.13"/>
<text text-anchor="start" x="346" y="-149.13" font-family="Arial" font-size="10.00">problem_setup.write</text>
<text text-anchor="middle" x="390" y="-138.13" font-family="Arial" font-size="10.00">_contact_zone_part</text>
</a>
</g>
</g>
<!-- Node1&#45;&gt;Node25 -->
<g id="edge47" class="edge">
<title>Node1&#45;&gt;Node25</title>
<path fill="none" stroke="midnightblue" d="M58.93,-428.99C61.09,-384.05 73.98,-250.55 151,-186.13 199.96,-145.18 274.93,-138.8 327.62,-140.35"/>
<polygon fill="midnightblue" stroke="midnightblue" points="327.72,-143.86 337.85,-140.76 327.99,-136.87 327.72,-143.86"/>
</g>
<!-- Node26 -->
<g id="node23" class="node">
<title>Node26</title>
<g id="a_node23"><a xlink:href="namespaceproblem__setup.html#a3b2a9fc19652f44b774b4bb9a8221265" target="_top" xlink:title=" ">
<polygon fill="none" stroke="black" points="338,-82.13 338,-112.13 442,-112.13 442,-82.13 338,-82.13"/>
<text text-anchor="start" x="346" y="-100.13" font-family="Arial" font-size="10.00">problem_setup.write</text>
<text text-anchor="middle" x="390" y="-89.13" font-family="Arial" font-size="10.00">_material_zone_part</text>
</a>
</g>
</g>
<!-- Node1&#45;&gt;Node26 -->
<g id="edge48" class="edge">
<title>Node1&#45;&gt;Node26</title>
<path fill="none" stroke="midnightblue" d="M57.95,-429.12C56.99,-379.02 61.21,-216.26 151,-137.13 199.04,-94.8 274.53,-88.76 327.58,-90.76"/>
<polygon fill="midnightblue" stroke="midnightblue" points="327.72,-94.27 337.88,-91.26 328.06,-87.28 327.72,-94.27"/>
</g>
<!-- Node27 -->
<g id="node24" class="node">
<title>Node27</title>
<g id="a_node24"><a xlink:href="namespaceproblem__setup.html#a876a947fad9cf3729999101abe3e823f" target="_top" xlink:title=" ">
<polygon fill="none" stroke="black" points="151,-870.13 151,-900.13 281,-900.13 281,-870.13 151,-870.13"/>
<text text-anchor="start" x="159" y="-888.13" font-family="Arial" font-size="10.00">problem_setup.generate</text>
<text text-anchor="middle" x="216" y="-877.13" font-family="Arial" font-size="10.00">_hex_particle_gmsh_input</text>
</a>
</g>
</g>
<!-- Node1&#45;&gt;Node27 -->
<g id="edge32" class="edge">
<title>Node1&#45;&gt;Node27</title>
<path fill="none" stroke="midnightblue" d="M60.12,-459.24C67.5,-525.69 99.8,-791.42 151,-855.13 153.72,-858.52 156.92,-861.55 160.41,-864.25"/>
<polygon fill="midnightblue" stroke="midnightblue" points="158.72,-867.33 168.98,-869.96 162.6,-861.5 158.72,-867.33"/>
</g>
<!-- Node28 -->
<g id="node25" class="node">
<title>Node28</title>
<g id="a_node25"><a xlink:href="namespaceproblem__setup.html#a8e552b0e3bb3bde7c390d6906dbe88cd" target="_top" xlink:title=" ">
<polygon fill="none" stroke="black" points="333.5,-870.13 333.5,-900.13 446.5,-900.13 446.5,-870.13 333.5,-870.13"/>
<text text-anchor="start" x="341.5" y="-888.13" font-family="Arial" font-size="10.00">problem_setup.get_ref</text>
<text text-anchor="middle" x="390" y="-877.13" font-family="Arial" font-size="10.00">_hex_points</text>
</a>
</g>
</g>
<!-- Node1&#45;&gt;Node28 -->
<g id="edge42" class="edge">
<title>Node1&#45;&gt;Node28</title>
<path fill="none" stroke="midnightblue" d="M59.05,-459.39C62.03,-533.09 78.96,-850.99 151,-910.13 207.68,-956.67 299.35,-927.14 350.81,-904.33"/>
<polygon fill="midnightblue" stroke="midnightblue" points="352.29,-907.5 359.93,-900.16 349.38,-901.13 352.29,-907.5"/>
</g>
<!-- Node2&#45;&gt;Node3 -->
<g id="edge2" class="edge">
<title>Node2&#45;&gt;Node3</title>
<path fill="none" stroke="midnightblue" d="M268.14,-611.62C286.86,-608.14 308.23,-604.16 327.75,-600.53"/>
<polygon fill="midnightblue" stroke="midnightblue" points="328.57,-603.94 337.76,-598.67 327.29,-597.05 328.57,-603.94"/>
</g>
<!-- Node2&#45;&gt;Node4 -->
<g id="edge3" class="edge">
<title>Node2&#45;&gt;Node4</title>
<path fill="none" stroke="midnightblue" d="M243.03,-605.91C262.81,-594.82 290.97,-580.08 317,-570.13 323.33,-567.72 330.08,-565.49 336.83,-563.48"/>
<polygon fill="midnightblue" stroke="midnightblue" points="337.98,-566.8 346.64,-560.7 336.07,-560.06 337.98,-566.8"/>
</g>
<!-- Node2&#45;&gt;Node5 -->
<g id="edge4" class="edge">
<title>Node2&#45;&gt;Node5</title>
<path fill="none" stroke="midnightblue" d="M229.94,-605.82C247.59,-585.9 281.16,-551.37 317,-532.13 321.26,-529.85 325.81,-527.82 330.48,-526.03"/>
<polygon fill="midnightblue" stroke="midnightblue" points="331.87,-529.26 340.17,-522.68 329.58,-522.64 331.87,-529.26"/>
</g>
<!-- Node2&#45;&gt;Node6 -->
<g id="edge5" class="edge">
<title>Node2&#45;&gt;Node6</title>
<path fill="none" stroke="midnightblue" d="M268.23,-633.7C322.23,-643.75 407.06,-650.09 463,-608.13 475.77,-598.56 547.32,-375.44 568.86,-307.55"/>
<polygon fill="midnightblue" stroke="midnightblue" points="572.29,-308.31 571.98,-297.72 565.62,-306.2 572.29,-308.31"/>
</g>
<!-- Node7 -->
<g id="node7" class="node">
<title>Node7</title>
<g id="a_node7"><a xlink:href="namespaceproblem__setup.html#a55fb909469dce4448cbab6267c05d783" target="_top" xlink:title=" ">
<polygon fill="none" stroke="black" points="339,-694.13 339,-724.13 441,-724.13 441,-694.13 339,-694.13"/>
<text text-anchor="start" x="347" y="-712.13" font-family="Arial" font-size="10.00">problem_setup.print</text>
<text text-anchor="middle" x="390" y="-701.13" font-family="Arial" font-size="10.00">_int_list</text>
</a>
</g>
</g>
<!-- Node2&#45;&gt;Node7 -->
<g id="edge6" class="edge">
<title>Node2&#45;&gt;Node7</title>
<path fill="none" stroke="midnightblue" d="M241.17,-636.35C261.12,-648.62 290.39,-665.94 317,-679.13 324.59,-682.89 332.76,-686.61 340.79,-690.07"/>
<polygon fill="midnightblue" stroke="midnightblue" points="339.52,-693.34 350.1,-694.01 342.25,-686.89 339.52,-693.34"/>
</g>
<!-- Node8 -->
<g id="node8" class="node">
<title>Node8</title>
<g id="a_node8"><a xlink:href="namespaceproblem__setup.html#a192b6d085d04429814f30104aeb18493" target="_top" xlink:title=" ">
<polygon fill="none" stroke="black" points="690.5,-798.63 690.5,-817.63 798.5,-817.63 798.5,-798.63 690.5,-798.63"/>
<text text-anchor="middle" x="744.5" y="-805.63" font-family="Arial" font-size="10.00">problem_setup.rotate</text>
</a>
</g>
</g>
<!-- Node2&#45;&gt;Node8 -->
<g id="edge7" class="edge">
<title>Node2&#45;&gt;Node8</title>
<path fill="none" stroke="midnightblue" d="M268.11,-631.94C318.36,-643.14 396.92,-662.21 463,-685.13 557.9,-718.05 665.48,-769.36 715.35,-794"/>
<polygon fill="midnightblue" stroke="midnightblue" points="714.02,-797.25 724.54,-798.56 717.14,-790.98 714.02,-797.25"/>
</g>
<!-- Node9&#45;&gt;Node3 -->
<g id="edge16" class="edge">
<title>Node9&#45;&gt;Node3</title>
<path fill="none" stroke="midnightblue" d="M220.56,-396.32C229.82,-432.34 258.13,-523.39 317,-570.13 319.9,-572.44 323.06,-574.47 326.38,-576.25"/>
<polygon fill="midnightblue" stroke="midnightblue" points="324.92,-579.43 335.47,-580.42 327.84,-573.07 324.92,-579.43"/>
</g>
<!-- Node9&#45;&gt;Node4 -->
<g id="edge17" class="edge">
<title>Node9&#45;&gt;Node4</title>
<path fill="none" stroke="midnightblue" d="M222.65,-396.21C234.9,-426.79 266.91,-496.23 317,-532.13 319.73,-534.09 322.65,-535.85 325.69,-537.42"/>
<polygon fill="midnightblue" stroke="midnightblue" points="324.56,-540.75 335.11,-541.63 327.41,-534.36 324.56,-540.75"/>
</g>
<!-- Node9&#45;&gt;Node5 -->
<g id="edge18" class="edge">
<title>Node9&#45;&gt;Node5</title>
<path fill="none" stroke="midnightblue" d="M226.29,-396.52C241.89,-421.02 275.74,-468.71 317,-494.13 320.43,-496.25 324.09,-498.13 327.88,-499.8"/>
<polygon fill="midnightblue" stroke="midnightblue" points="326.9,-503.18 337.49,-503.55 329.45,-496.65 326.9,-503.18"/>
</g>
<!-- Node9&#45;&gt;Node10 -->
<g id="edge9" class="edge">
<title>Node9&#45;&gt;Node10</title>
<path fill="none" stroke="midnightblue" d="M271.42,-393.47C286.03,-396.79 302.06,-400.42 317.45,-403.91"/>
<polygon fill="midnightblue" stroke="midnightblue" points="316.92,-407.38 327.45,-406.18 318.47,-400.55 316.92,-407.38"/>
</g>
<!-- Node9&#45;&gt;Node11 -->
<g id="edge10" class="edge">
<title>Node9&#45;&gt;Node11</title>
<path fill="none" stroke="midnightblue" d="M221.66,-396.27C232.45,-431.44 259.84,-521.42 281,-597.13 297.94,-657.77 283.85,-680.61 317,-734.13 327.16,-750.54 342.93,-765.03 357.13,-775.97"/>
<polygon fill="midnightblue" stroke="midnightblue" points="355.13,-778.84 365.25,-781.98 359.29,-773.22 355.13,-778.84"/>
</g>
<!-- Node9&#45;&gt;Node13 -->
<g id="edge13" class="edge">
<title>Node9&#45;&gt;Node13</title>
<path fill="none" stroke="midnightblue" d="M237.2,-396.19C256.8,-410.28 287.8,-431.19 317,-445.13 320.81,-446.95 324.8,-448.69 328.86,-450.35"/>
<polygon fill="midnightblue" stroke="midnightblue" points="327.82,-453.7 338.4,-454.04 330.34,-447.17 327.82,-453.7"/>
</g>
<!-- Node9&#45;&gt;Node15 -->
<g id="edge15" class="edge">
<title>Node9&#45;&gt;Node15</title>
<path fill="none" stroke="midnightblue" d="M270.01,-366.03C287.83,-360.95 307.88,-355.24 326.37,-349.98"/>
<polygon fill="midnightblue" stroke="midnightblue" points="327.51,-353.29 336.17,-347.18 325.59,-346.56 327.51,-353.29"/>
</g>
<!-- Node9&#45;&gt;Node16 -->
<g id="edge19" class="edge">
<title>Node9&#45;&gt;Node16</title>
<path fill="none" stroke="midnightblue" d="M236.06,-365.95C266.75,-341.5 327.2,-293.35 362.21,-265.47"/>
<polygon fill="midnightblue" stroke="midnightblue" points="364.47,-268.14 370.11,-259.18 360.11,-262.67 364.47,-268.14"/>
</g>
<!-- Node9&#45;&gt;Node18 -->
<g id="edge25" class="edge">
<title>Node9&#45;&gt;Node18</title>
<path fill="none" stroke="midnightblue" d="M271.1,-390.77C325.08,-397.25 407.75,-398.26 463,-357.13 496.9,-331.9 468.08,-297.94 499,-269.13 508.13,-260.63 520.21,-255.01 532.05,-251.3"/>
<polygon fill="midnightblue" stroke="midnightblue" points="533.14,-254.63 541.87,-248.62 531.3,-247.88 533.14,-254.63"/>
</g>
<!-- Node9&#45;&gt;Node24 -->
<g id="edge26" class="edge">
<title>Node9&#45;&gt;Node24</title>
<path fill="none" stroke="midnightblue" d="M222.42,-365.87C234.45,-334.14 266.38,-260.62 317,-220.13 320.8,-217.09 325,-214.41 329.4,-212.04"/>
<polygon fill="midnightblue" stroke="midnightblue" points="331.15,-215.09 338.66,-207.62 328.13,-208.77 331.15,-215.09"/>
</g>
<!-- Node9&#45;&gt;Node25 -->
<g id="edge27" class="edge">
<title>Node9&#45;&gt;Node25</title>
<path fill="none" stroke="midnightblue" d="M219.98,-366.03C228.3,-327.8 255.33,-226.35 317,-171.13 320.57,-167.94 324.57,-165.14 328.81,-162.7"/>
<polygon fill="midnightblue" stroke="midnightblue" points="330.43,-165.81 337.78,-158.18 327.28,-159.56 330.43,-165.81"/>
</g>
<!-- Node9&#45;&gt;Node26 -->
<g id="edge28" class="edge">
<title>Node9&#45;&gt;Node26</title>
<path fill="none" stroke="midnightblue" d="M218.48,-365.86C223.55,-321.69 244.21,-192.47 317,-122.13 320.5,-118.75 324.49,-115.82 328.74,-113.29"/>
<polygon fill="midnightblue" stroke="midnightblue" points="330.5,-116.32 337.79,-108.62 327.3,-110.09 330.5,-116.32"/>
</g>
<!-- Node11&#45;&gt;Node12 -->
<g id="edge11" class="edge">
<title>Node11&#45;&gt;Node12</title>
<path fill="none" stroke="midnightblue" d="M463.19,-801.45C478.33,-802.35 494.21,-803.3 509.1,-804.19"/>
<polygon fill="midnightblue" stroke="midnightblue" points="509.04,-807.7 519.23,-804.8 509.46,-800.71 509.04,-807.7"/>
</g>
<!-- Node12&#45;&gt;Node8 -->
<g id="edge12" class="edge">
<title>Node12&#45;&gt;Node8</title>
<path fill="none" stroke="midnightblue" d="M632.91,-808.13C648.09,-808.13 664.65,-808.13 680.22,-808.13"/>
<polygon fill="midnightblue" stroke="midnightblue" points="680.28,-811.63 690.28,-808.13 680.28,-804.63 680.28,-811.63"/>
</g>
<!-- Node13&#45;&gt;Node14 -->
<g id="edge14" class="edge">
<title>Node13&#45;&gt;Node14</title>
<path fill="none" stroke="midnightblue" d="M436.56,-484.23C445.39,-487.36 454.52,-490.74 463,-494.13 487.08,-503.77 513.51,-515.74 534.65,-525.66"/>
<polygon fill="midnightblue" stroke="midnightblue" points="533.42,-528.95 543.96,-530.06 536.41,-522.62 533.42,-528.95"/>
</g>
<!-- Node16&#45;&gt;Node6 -->
<g id="edge21" class="edge">
<title>Node16&#45;&gt;Node6</title>
<path fill="none" stroke="midnightblue" d="M447.71,-257.69C472.47,-263.61 501.25,-270.5 525.18,-276.22"/>
<polygon fill="midnightblue" stroke="midnightblue" points="524.57,-279.67 535.11,-278.59 526.19,-272.86 524.57,-279.67"/>
</g>
<!-- Node16&#45;&gt;Node17 -->
<g id="edge20" class="edge">
<title>Node16&#45;&gt;Node17</title>
<path fill="none" stroke="midnightblue" d="M445.32,-229.09C451.48,-226.5 457.51,-223.53 463,-220.13 501.67,-196.23 537.1,-156.5 557.35,-131.34"/>
<polygon fill="midnightblue" stroke="midnightblue" points="560.16,-133.43 563.62,-123.42 554.67,-129.09 560.16,-133.43"/>
</g>
<!-- Node16&#45;&gt;Node18 -->
<g id="edge22" class="edge">
<title>Node16&#45;&gt;Node18</title>
<path fill="none" stroke="midnightblue" d="M447.71,-244.13C474.69,-244.13 506.44,-244.13 531.48,-244.13"/>
<polygon fill="midnightblue" stroke="midnightblue" points="531.77,-247.63 541.77,-244.13 531.77,-240.63 531.77,-247.63"/>
</g>
<!-- Node19 -->
<g id="node19" class="node">
<title>Node19</title>
<g id="a_node19"><a xlink:href="namespaceutil_1_1parallel.html#adb80f14125b7556bb478cc3725508fa8" target="_top" xlink:title="get rank (id) of this processor">
<polygon fill="none" stroke="red" points="689,-253.63 689,-272.63 800,-272.63 800,-253.63 689,-253.63"/>
<text text-anchor="middle" x="744.5" y="-260.63" font-family="Arial" font-size="10.00">util::parallel::mpiRank</text>
</a>
</g>
</g>
<!-- Node18&#45;&gt;Node19 -->
<g id="edge23" class="edge">
<title>Node18&#45;&gt;Node19</title>
<path fill="none" stroke="midnightblue" d="M610.29,-247.93C629.89,-250.17 655.34,-253.07 678.73,-255.74"/>
<polygon fill="midnightblue" stroke="midnightblue" points="678.63,-259.25 688.96,-256.91 679.42,-252.3 678.63,-259.25"/>
</g>
<!-- Node22 -->
<g id="node20" class="node">
<title>Node22</title>
<g id="a_node20"><a xlink:href="namespaceutil_1_1io.html#a3e537e3bd778616255015cde6e60a30a" target="_top" xlink:title="Returns formatted string for output.">
<polygon fill="none" stroke="red" points="704.5,-215.63 704.5,-234.63 784.5,-234.63 784.5,-215.63 704.5,-215.63"/>
<text text-anchor="middle" x="744.5" y="-222.63" font-family="Arial" font-size="10.00">util::io::printStr</text>
</a>
</g>
</g>
<!-- Node18&#45;&gt;Node22 -->
<g id="edge24" class="edge">
<title>Node18&#45;&gt;Node22</title>
<path fill="none" stroke="midnightblue" d="M610.29,-240.33C634.36,-237.59 667.27,-233.83 694.35,-230.74"/>
<polygon fill="midnightblue" stroke="midnightblue" points="694.88,-234.2 704.42,-229.59 694.08,-227.25 694.88,-234.2"/>
</g>
<!-- Node27&#45;&gt;Node28 -->
<g id="edge33" class="edge">
<title>Node27&#45;&gt;Node28</title>
<path fill="none" stroke="midnightblue" d="M281.05,-885.13C294.75,-885.13 309.24,-885.13 323.01,-885.13"/>
<polygon fill="midnightblue" stroke="midnightblue" points="323.38,-888.63 333.38,-885.13 323.38,-881.63 323.38,-888.63"/>
</g>
<!-- Node28&#45;&gt;Node8 -->
<g id="edge34" class="edge">
<title>Node28&#45;&gt;Node8</title>
<path fill="none" stroke="midnightblue" d="M446.71,-875.3C499.93,-865.63 582.27,-849.9 653,-833.13 668.87,-829.37 686.17,-824.73 701.34,-820.47"/>
<polygon fill="midnightblue" stroke="midnightblue" points="702.31,-823.84 710.98,-817.74 700.4,-817.1 702.31,-823.84"/>
</g>
</g>
</svg>
