<?xml version="1.0" encoding="UTF-8" standalone="no"?>
<!DOCTYPE svg PUBLIC "-//W3C//DTD SVG 1.1//EN"
 "http://www.w3.org/Graphics/SVG/1.1/DTD/svg11.dtd">
<!-- Generated by graphviz version 2.43.0 (0)
 -->
<!-- Title: util::geometry::createGeomObjectOld Pages: 1 -->
<svg width="538pt" height="247pt"
 viewBox="0.00 0.00 538.00 246.50" xmlns="http://www.w3.org/2000/svg" xmlns:xlink="http://www.w3.org/1999/xlink">
<g id="graph0" class="graph" transform="scale(1 1) rotate(0) translate(4 242.5)">
<title>util::geometry::createGeomObjectOld</title>
<!-- Node1 -->
<g id="Node000001" class="node">
<title>Node1</title>
<g id="a_Node000001"><a xlink:title="Create geometrical object from the given data.">
<polygon fill="#999999" stroke="#666666" points="135,-128.5 0,-128.5 0,-98.5 135,-98.5 135,-128.5"/>
<text text-anchor="start" x="8" y="-116.5" font-family="Arial" font-size="10.00">util::geometry::createGeom</text>
<text text-anchor="middle" x="67.5" y="-105.5" font-family="Arial" font-size="10.00">ObjectOld</text>
</a>
</g>
</g>
<!-- Node2 -->
<g id="Node000002" class="node">
<title>Node2</title>
<g id="a_Node000002"><a xlink:href="namespaceutil_1_1geometry.html#ae276de197ea051002fc7c062c259537e" target="_top" xlink:title=" ">
<polygon fill="white" stroke="#666666" points="325,-238.5 190,-238.5 190,-208.5 325,-208.5 325,-238.5"/>
<text text-anchor="start" x="198" y="-226.5" font-family="Arial" font-size="10.00">util::geometry::createGeom</text>
<text text-anchor="middle" x="257.5" y="-215.5" font-family="Arial" font-size="10.00">Object</text>
</a>
</g>
</g>
<!-- Node1&#45;&gt;Node2 -->
<g id="edge1_Node000001_Node000002" class="edge">
<title>Node1&#45;&gt;Node2</title>
<g id="a_edge1_Node000001_Node000002"><a xlink:title=" ">
<path fill="none" stroke="#63b8ff" d="M83.96,-128.55C103.04,-146.41 137.12,-176.09 171,-194.5 178.05,-198.33 185.7,-201.79 193.42,-204.87"/>
<polygon fill="#63b8ff" stroke="#63b8ff" points="192.26,-208.17 202.85,-208.44 194.74,-201.63 192.26,-208.17"/>
</a>
</g>
</g>
<!-- Node3 -->
<g id="Node000003" class="node">
<title>Node3</title>
<g id="a_Node000003"><a xlink:href="namespaceutil_1_1geometry.html#a2852c83a568ff72c000bfb1d682f9678" target="_top" xlink:title="Get num params required for creation of object.">
<polygon fill="white" stroke="#666666" points="530,-152.5 380,-152.5 380,-122.5 530,-122.5 530,-152.5"/>
<text text-anchor="start" x="388" y="-140.5" font-family="Arial" font-size="10.00">util::geometry::getNumParams</text>
<text text-anchor="middle" x="455" y="-129.5" font-family="Arial" font-size="10.00">Required</text>
</a>
</g>
</g>
<!-- Node1&#45;&gt;Node3 -->
<g id="edge2_Node000001_Node000003" class="edge">
<title>Node1&#45;&gt;Node3</title>
<g id="a_edge2_Node000001_Node000003"><a xlink:title=" ">
<path fill="none" stroke="#63b8ff" d="M92.68,-128.55C112.79,-140.13 142.61,-155.18 171,-161.5 243.31,-177.59 328.21,-166.53 386.02,-154.65"/>
<polygon fill="#63b8ff" stroke="#63b8ff" points="387.08,-158 396.13,-152.5 385.62,-151.15 387.08,-158"/>
</a>
</g>
</g>
<!-- Node4 -->
<g id="Node000004" class="node">
<title>Node4</title>
<g id="a_Node000004"><a xlink:href="namespaceutil_1_1geometry.html#a183aa817838c3458f52743b944634c3a" target="_top" xlink:title="Ascertain if number of parameters are correct for the given geometry.">
<polygon fill="white" stroke="#666666" points="344,-152.5 171,-152.5 171,-122.5 344,-122.5 344,-152.5"/>
<text text-anchor="start" x="179" y="-140.5" font-family="Arial" font-size="10.00">util::geometry::isNumber</text>
<text text-anchor="middle" x="257.5" y="-129.5" font-family="Arial" font-size="10.00">OfParamForComplexGeometryValid</text>
</a>
</g>
</g>
<!-- Node1&#45;&gt;Node4 -->
<g id="edge3_Node000001_Node000004" class="edge">
<title>Node1&#45;&gt;Node4</title>
<g id="a_edge3_Node000001_Node000004"><a xlink:title=" ">
<path fill="none" stroke="#63b8ff" d="M135.05,-122C143.4,-123.06 152.07,-124.17 160.75,-125.28"/>
<polygon fill="#63b8ff" stroke="#63b8ff" points="160.58,-128.78 170.94,-126.58 161.47,-121.84 160.58,-128.78"/>
</a>
</g>
</g>
<!-- Node5 -->
<g id="Node000005" class="node">
<title>Node5</title>
<g id="a_Node000005"><a xlink:href="namespaceutil_1_1geometry.html#a273199cba8fab80639f5479b3f01ab5d" target="_top" xlink:title="Ascertain if number of parameters are correct for the given geometry.">
<polygon fill="white" stroke="#666666" points="324.5,-104.5 190.5,-104.5 190.5,-74.5 324.5,-74.5 324.5,-104.5"/>
<text text-anchor="start" x="198.5" y="-92.5" font-family="Arial" font-size="10.00">util::geometry::isNumber</text>
<text text-anchor="middle" x="257.5" y="-81.5" font-family="Arial" font-size="10.00">OfParamForGeometryValid</text>
</a>
</g>
</g>
<!-- Node1&#45;&gt;Node5 -->
<g id="edge5_Node000001_Node000005" class="edge">
<title>Node1&#45;&gt;Node5</title>
<g id="a_edge5_Node000001_Node000005"><a xlink:title=" ">
<path fill="none" stroke="#63b8ff" d="M135.05,-105C149.64,-103.14 165.19,-101.16 180.13,-99.25"/>
<polygon fill="#63b8ff" stroke="#63b8ff" points="180.88,-102.68 190.36,-97.94 180,-95.74 180.88,-102.68"/>
</a>
</g>
</g>
<!-- Node7 -->
<g id="Node000007" class="node">
<title>Node7</title>
<g id="a_Node000007"><a xlink:href="namespaceutil_1_1methods.html#ab21bec324f7d53e91378acc142303fb3" target="_top" xlink:title="Returns true if tag is found in the list of tags.">
<polygon fill="white" stroke="#666666" points="320.5,-56 194.5,-56 194.5,-37 320.5,-37 320.5,-56"/>
<text text-anchor="middle" x="257.5" y="-44" font-family="Arial" font-size="10.00">util::methods::isTagInList</text>
</a>
</g>
</g>
<!-- Node1&#45;&gt;Node7 -->
<g id="edge8_Node000001_Node000007" class="edge">
<title>Node1&#45;&gt;Node7</title>
<g id="a_edge8_Node000001_Node000007"><a xlink:title=" ">
<path fill="none" stroke="#63b8ff" d="M96.52,-98.33C116.75,-87.89 144.96,-74.37 171,-65.5 178.67,-62.89 186.86,-60.54 195.01,-58.45"/>
<polygon fill="#63b8ff" stroke="#63b8ff" points="196.02,-61.81 204.91,-56.05 194.36,-55.01 196.02,-61.81"/>
</a>
</g>
</g>
<!-- Node8 -->
<g id="Node000008" class="node">
<title>Node8</title>
<g id="a_Node000008"><a xlink:href="namespaceutil_1_1io.html#a3e537e3bd778616255015cde6e60a30a" target="_top" xlink:title="Returns formatted string for output.">
<polygon fill="white" stroke="#666666" points="297.5,-19 217.5,-19 217.5,0 297.5,0 297.5,-19"/>
<text text-anchor="middle" x="257.5" y="-7" font-family="Arial" font-size="10.00">util::io::printStr</text>
</a>
</g>
</g>
<!-- Node1&#45;&gt;Node8 -->
<g id="edge10_Node000001_Node000008" class="edge">
<title>Node1&#45;&gt;Node8</title>
<g id="a_edge10_Node000001_Node000008"><a xlink:title=" ">
<path fill="none" stroke="#63b8ff" d="M81.81,-98.46C99.97,-78.94 134.45,-45.28 171,-27.5 182.19,-22.06 194.99,-18.25 207.21,-15.6"/>
<polygon fill="#63b8ff" stroke="#63b8ff" points="208.16,-18.98 217.3,-13.63 206.82,-12.11 208.16,-18.98"/>
</a>
</g>
</g>
<!-- Node4&#45;&gt;Node3 -->
<g id="edge4_Node000004_Node000003" class="edge">
<title>Node4&#45;&gt;Node3</title>
<g id="a_edge4_Node000004_Node000003"><a xlink:title=" ">
<path fill="none" stroke="#63b8ff" d="M344.25,-137.5C352.71,-137.5 361.29,-137.5 369.74,-137.5"/>
<polygon fill="#63b8ff" stroke="#63b8ff" points="369.95,-141 379.95,-137.5 369.95,-134 369.95,-141"/>
</a>
</g>
</g>
<!-- Node5&#45;&gt;Node3 -->
<g id="edge6_Node000005_Node000003" class="edge">
<title>Node5&#45;&gt;Node3</title>
<g id="a_edge6_Node000005_Node000003"><a xlink:title=" ">
<path fill="none" stroke="#63b8ff" d="M319.82,-104.56C339.84,-109.47 362.23,-114.97 382.9,-120.04"/>
<polygon fill="#63b8ff" stroke="#63b8ff" points="382.35,-123.51 392.9,-122.5 384.02,-116.71 382.35,-123.51"/>
</a>
</g>
</g>
<!-- Node6 -->
<g id="Node000006" class="node">
<title>Node6</title>
<g id="a_Node000006"><a xlink:href="namespaceutil_1_1methods.html#a86460acadab9a2e99a92121c0213e444" target="_top" xlink:title="Find if data is in the list.">
<polygon fill="white" stroke="#666666" points="510,-78 400,-78 400,-59 510,-59 510,-78"/>
<text text-anchor="middle" x="455" y="-66" font-family="Arial" font-size="10.00">util::methods::isInList</text>
</a>
</g>
</g>
<!-- Node5&#45;&gt;Node6 -->
<g id="edge7_Node000005_Node000006" class="edge">
<title>Node5&#45;&gt;Node6</title>
<g id="a_edge7_Node000005_Node000006"><a xlink:title=" ">
<path fill="none" stroke="#63b8ff" d="M324.69,-82.39C345.73,-80.13 368.95,-77.64 389.84,-75.39"/>
<polygon fill="#63b8ff" stroke="#63b8ff" points="390.32,-78.86 399.89,-74.31 389.57,-71.9 390.32,-78.86"/>
</a>
</g>
</g>
<!-- Node7&#45;&gt;Node6 -->
<g id="edge9_Node000007_Node000006" class="edge">
<title>Node7&#45;&gt;Node6</title>
<g id="a_edge9_Node000007_Node000006"><a xlink:title=" ">
<path fill="none" stroke="#63b8ff" d="M320.63,-53.49C342.73,-55.98 367.65,-58.78 389.92,-61.29"/>
<polygon fill="#63b8ff" stroke="#63b8ff" points="389.62,-64.78 399.95,-62.42 390.4,-57.82 389.62,-64.78"/>
</a>
</g>
</g>
<!-- Node9 -->
<g id="Node000009" class="node">
<title>Node9</title>
<g id="a_Node000009"><a xlink:href="namespaceutil_1_1io.html#a38afb09a152cca4061850f4123bd3aeb" target="_top" xlink:title="Returns tab spaces of given size.">
<polygon fill="white" stroke="#666666" points="497.5,-19 412.5,-19 412.5,0 497.5,0 497.5,-19"/>
<text text-anchor="middle" x="455" y="-7" font-family="Arial" font-size="10.00">util::io::getTabS</text>
</a>
</g>
</g>
<!-- Node8&#45;&gt;Node9 -->
<g id="edge11_Node000008_Node000009" class="edge">
<title>Node8&#45;&gt;Node9</title>
<g id="a_edge11_Node000008_Node000009"><a xlink:title=" ">
<path fill="none" stroke="#63b8ff" d="M297.59,-9.5C327.56,-9.5 369.19,-9.5 401.97,-9.5"/>
<polygon fill="#63b8ff" stroke="#63b8ff" points="402.27,-13 412.27,-9.5 402.27,-6 402.27,-13"/>
</a>
</g>
</g>
</g>
</svg>
