<?xml version="1.0" encoding="UTF-8" standalone="no"?>
<!DOCTYPE svg PUBLIC "-//W3C//DTD SVG 1.1//EN"
 "http://www.w3.org/Graphics/SVG/1.1/DTD/svg11.dtd">
<!-- Generated by graphviz version 2.43.0 (0)
 -->
<!-- Title: problem_setup.generate_cir_particle_gmsh_input Pages: 1 -->
<svg width="674pt" height="644pt"
 viewBox="0.00 0.00 674.00 643.69" xmlns="http://www.w3.org/2000/svg" xmlns:xlink="http://www.w3.org/1999/xlink">
<g id="graph0" class="graph" transform="scale(1 1) rotate(0) translate(4 639.69)">
<title>problem_setup.generate_cir_particle_gmsh_input</title>
<!-- Node1 -->
<g id="Node000001" class="node">
<title>Node1</title>
<g id="a_Node000001"><a xlink:title=" ">
<polygon fill="#999999" stroke="#666666" points="666,-211.69 541,-211.69 541,-181.69 666,-181.69 666,-211.69"/>
<text text-anchor="start" x="549" y="-199.69" font-family="Arial" font-size="10.00">problem_setup.generate</text>
<text text-anchor="middle" x="603.5" y="-188.69" font-family="Arial" font-size="10.00">_cir_particle_gmsh_input</text>
</a>
</g>
</g>
<!-- Node2 -->
<g id="Node000002" class="node">
<title>Node2</title>
<g id="a_Node000002"><a xlink:href="namespaceproblem__setup.html#a8ed53bd44082cee1b5381115a87451e2" target="_top" xlink:title=" ">
<polygon fill="white" stroke="#666666" points="505,-315.69 395,-315.69 395,-285.69 505,-285.69 505,-315.69"/>
<text text-anchor="start" x="403" y="-303.69" font-family="Arial" font-size="10.00">problem_setup.create</text>
<text text-anchor="middle" x="450" y="-292.69" font-family="Arial" font-size="10.00">_input_file</text>
</a>
</g>
</g>
<!-- Node1&#45;&gt;Node2 -->
<g id="edge1_Node000001_Node000002" class="edge">
<title>Node1&#45;&gt;Node2</title>
<g id="a_edge1_Node000001_Node000002"><a xlink:title=" ">
<path fill="none" stroke="#63b8ff" d="M571.87,-217.71C542.57,-237.83 499.1,-267.67 473.06,-285.55"/>
<polygon fill="#63b8ff" stroke="#63b8ff" points="574.21,-220.35 580.47,-211.81 570.25,-214.58 574.21,-220.35"/>
</a>
</g>
</g>
<!-- Node5 -->
<g id="Node000005" class="node">
<title>Node5</title>
<g id="a_Node000005"><a xlink:href="namespaceproblem__setup.html#a16a9d169ecf04b1a867bec4dbf274c01" target="_top" xlink:title=" ">
<polygon fill="white" stroke="#666666" points="343.5,-617.69 190.5,-617.69 190.5,-587.69 343.5,-587.69 343.5,-617.69"/>
<text text-anchor="start" x="198.5" y="-605.69" font-family="Arial" font-size="10.00">problem_setup.generate</text>
<text text-anchor="middle" x="267" y="-594.69" font-family="Arial" font-size="10.00">_moving_rect_wall_gmsh_input</text>
</a>
</g>
</g>
<!-- Node1&#45;&gt;Node5 -->
<g id="edge24_Node000001_Node000005" class="edge">
<title>Node1&#45;&gt;Node5</title>
<g id="a_edge24_Node000001_Node000005"><a xlink:title=" ">
<path fill="none" stroke="#63b8ff" d="M596.1,-221.79C583.67,-267.54 553.15,-366.34 505,-437.69 454.54,-512.46 437.6,-534.42 359,-578.69 352.88,-582.13 346.25,-585.1 339.45,-587.65"/>
<polygon fill="#63b8ff" stroke="#63b8ff" points="599.56,-222.42 598.75,-211.85 592.8,-220.62 599.56,-222.42"/>
</a>
</g>
</g>
<!-- Node6 -->
<g id="Node000006" class="node">
<title>Node6</title>
<g id="a_Node000006"><a xlink:href="namespaceproblem__setup.html#a4dd4df45d28c58aafac4fdf8aa8c554d" target="_top" xlink:title=" ">
<polygon fill="white" stroke="#666666" points="332.5,-551.69 201.5,-551.69 201.5,-521.69 332.5,-521.69 332.5,-551.69"/>
<text text-anchor="start" x="209.5" y="-539.69" font-family="Arial" font-size="10.00">problem_setup.generate</text>
<text text-anchor="middle" x="267" y="-528.69" font-family="Arial" font-size="10.00">_moving_wall_gmsh_input</text>
</a>
</g>
</g>
<!-- Node1&#45;&gt;Node6 -->
<g id="edge25_Node000001_Node000006" class="edge">
<title>Node1&#45;&gt;Node6</title>
<g id="a_edge25_Node000001_Node000006"><a xlink:title=" ">
<path fill="none" stroke="#63b8ff" d="M591.09,-220.74C561.62,-280.16 476.94,-434.71 359,-512.69 351.1,-517.91 342.1,-522 332.92,-525.2"/>
<polygon fill="#63b8ff" stroke="#63b8ff" points="594.25,-222.25 595.49,-211.73 587.96,-219.18 594.25,-222.25"/>
</a>
</g>
</g>
<!-- Node9 -->
<g id="Node000009" class="node">
<title>Node9</title>
<g id="a_Node000009"><a xlink:href="namespaceproblem__setup.html#ab77cd691be605123ba53961f21c8885a" target="_top" xlink:title=" ">
<polygon fill="white" stroke="#666666" points="139,-63.69 0,-63.69 0,-33.69 139,-33.69 139,-63.69"/>
<text text-anchor="start" x="8" y="-51.69" font-family="Arial" font-size="10.00">problem_setup.generate</text>
<text text-anchor="middle" x="69.5" y="-40.69" font-family="Arial" font-size="10.00">_rect_container_gmsh_input</text>
</a>
</g>
</g>
<!-- Node1&#45;&gt;Node9 -->
<g id="edge26_Node000001_Node000009" class="edge">
<title>Node1&#45;&gt;Node9</title>
<g id="a_edge26_Node000001_Node000009"><a xlink:title=" ">
<path fill="none" stroke="#63b8ff" d="M591.52,-172.08C576.46,-141.16 546.46,-88.65 505,-59.69 383.89,24.93 321.39,0.25 175,-19.69 154.76,-22.44 132.9,-28.07 114.44,-33.64"/>
<polygon fill="#63b8ff" stroke="#63b8ff" points="588.44,-173.75 595.88,-181.3 594.77,-170.76 588.44,-173.75"/>
</a>
</g>
</g>
<!-- Node10 -->
<g id="Node000010" class="node">
<title>Node10</title>
<g id="a_Node000010"><a xlink:href="namespaceproblem__setup.html#a8e72848abab104858c2a4647079140ed" target="_top" xlink:title=" ">
<polygon fill="white" stroke="#666666" points="359,-69.19 175,-69.19 175,-28.19 359,-28.19 359,-69.19"/>
<text text-anchor="start" x="183" y="-57.19" font-family="Arial" font-size="10.00">problem_setup.generate</text>
<text text-anchor="start" x="183" y="-46.19" font-family="Arial" font-size="10.00">_rectangle_with_protrusion</text>
<text text-anchor="middle" x="267" y="-35.19" font-family="Arial" font-size="10.00">_and_opening_wall_gmsh_input_type3</text>
</a>
</g>
</g>
<!-- Node1&#45;&gt;Node10 -->
<g id="edge27_Node000001_Node000010" class="edge">
<title>Node1&#45;&gt;Node10</title>
<g id="a_edge27_Node000001_Node000010"><a xlink:title=" ">
<path fill="none" stroke="#63b8ff" d="M585.02,-173.4C567.29,-151.49 537.84,-119.47 505,-101.69 460.23,-77.45 404.97,-64.28 359.07,-57.14"/>
<polygon fill="#63b8ff" stroke="#63b8ff" points="582.5,-175.86 591.44,-181.54 587.99,-171.52 582.5,-175.86"/>
</a>
</g>
</g>
<!-- Node11 -->
<g id="Node000011" class="node">
<title>Node11</title>
<g id="a_Node000011"><a xlink:href="namespaceproblem__setup.html#afa462577a9adf91f5e2cb59a1eb7da7e" target="_top" xlink:title=" ">
<polygon fill="white" stroke="#666666" points="327.5,-211.69 206.5,-211.69 206.5,-181.69 327.5,-181.69 327.5,-211.69"/>
<text text-anchor="start" x="214.5" y="-199.69" font-family="Arial" font-size="10.00">problem_setup.generate</text>
<text text-anchor="middle" x="267" y="-188.69" font-family="Arial" font-size="10.00">_wall_gmsh_input</text>
</a>
</g>
</g>
<!-- Node1&#45;&gt;Node11 -->
<g id="edge28_Node000001_Node000011" class="edge">
<title>Node1&#45;&gt;Node11</title>
<g id="a_edge28_Node000001_Node000011"><a xlink:title=" ">
<path fill="none" stroke="#63b8ff" d="M530.51,-196.69C469.98,-196.69 384.48,-196.69 327.69,-196.69"/>
<polygon fill="#63b8ff" stroke="#63b8ff" points="530.76,-200.19 540.76,-196.69 530.76,-193.19 530.76,-200.19"/>
</a>
</g>
</g>
<!-- Node12 -->
<g id="Node000012" class="node">
<title>Node12</title>
<g id="a_Node000012"><a xlink:href="namespaceproblem__setup.html#a38db49e0a85dd22e69cae23f7f92435f" target="_top" xlink:title=" ">
<polygon fill="white" stroke="#666666" points="127,-211.69 12,-211.69 12,-181.69 127,-181.69 127,-211.69"/>
<text text-anchor="start" x="20" y="-199.69" font-family="Arial" font-size="10.00">problem_setup.particle</text>
<text text-anchor="middle" x="69.5" y="-188.69" font-family="Arial" font-size="10.00">_locations</text>
</a>
</g>
</g>
<!-- Node1&#45;&gt;Node12 -->
<g id="edge29_Node000001_Node000012" class="edge">
<title>Node1&#45;&gt;Node12</title>
<g id="a_edge29_Node000001_Node000012"><a xlink:title=" ">
<path fill="none" stroke="#63b8ff" d="M530.65,-185.28C445.54,-173.46 299.57,-158.57 175,-172.69 158.72,-174.53 141.29,-177.94 125.42,-181.63"/>
<polygon fill="#63b8ff" stroke="#63b8ff" points="530.33,-188.77 540.72,-186.7 531.31,-181.84 530.33,-188.77"/>
</a>
</g>
</g>
<!-- Node3 -->
<g id="Node000003" class="node">
<title>Node3</title>
<g id="a_Node000003"><a xlink:href="namespaceproblem__setup.html#a1e7145671d41dad41beed2d8c4f790e0" target="_top" xlink:title=" ">
<polygon fill="white" stroke="#666666" points="331,-485.69 203,-485.69 203,-455.69 331,-455.69 331,-485.69"/>
<text text-anchor="start" x="211" y="-473.69" font-family="Arial" font-size="10.00">problem_setup.generate</text>
<text text-anchor="middle" x="267" y="-462.69" font-family="Arial" font-size="10.00">_cuboid_wall_gmsh_input</text>
</a>
</g>
</g>
<!-- Node2&#45;&gt;Node3 -->
<g id="edge2_Node000002_Node000003" class="edge">
<title>Node2&#45;&gt;Node3</title>
<g id="a_edge2_Node000002_Node000003"><a xlink:title=" ">
<path fill="none" stroke="#63b8ff" d="M440.45,-325.43C427.83,-358.19 401.08,-415.48 359,-446.69 350.73,-452.82 341.02,-457.38 331.08,-460.79"/>
<polygon fill="#63b8ff" stroke="#63b8ff" points="443.86,-326.31 444.05,-315.71 437.29,-323.87 443.86,-326.31"/>
</a>
</g>
</g>
<!-- Node4 -->
<g id="Node000004" class="node">
<title>Node4</title>
<g id="a_Node000004"><a xlink:href="namespaceproblem__setup.html#a15d340f22fc959eb9bc3ebf12be02887" target="_top" xlink:title=" ">
<polygon fill="white" stroke="#666666" points="335,-419.69 199,-419.69 199,-389.69 335,-389.69 335,-419.69"/>
<text text-anchor="start" x="207" y="-407.69" font-family="Arial" font-size="10.00">problem_setup.generate</text>
<text text-anchor="middle" x="267" y="-396.69" font-family="Arial" font-size="10.00">_drum_particle_gmsh_input</text>
</a>
</g>
</g>
<!-- Node2&#45;&gt;Node4 -->
<g id="edge4_Node000002_Node000004" class="edge">
<title>Node2&#45;&gt;Node4</title>
<g id="a_edge4_Node000002_Node000004"><a xlink:title=" ">
<path fill="none" stroke="#63b8ff" d="M427.12,-323.12C409.93,-339.65 384.67,-361.61 359,-375.69 348.97,-381.19 337.73,-385.83 326.67,-389.68"/>
<polygon fill="#63b8ff" stroke="#63b8ff" points="429.74,-325.46 434.43,-315.96 424.84,-320.46 429.74,-325.46"/>
</a>
</g>
</g>
<!-- Node2&#45;&gt;Node5 -->
<g id="edge6_Node000002_Node000005" class="edge">
<title>Node2&#45;&gt;Node5</title>
<g id="a_edge6_Node000002_Node000005"><a xlink:title=" ">
<path fill="none" stroke="#63b8ff" d="M444.06,-325.82C431.5,-387.34 396.63,-543.08 359,-578.69 354.49,-582.95 349.31,-586.48 343.77,-589.4"/>
<polygon fill="#63b8ff" stroke="#63b8ff" points="447.54,-326.3 446.08,-315.8 440.68,-324.92 447.54,-326.3"/>
</a>
</g>
</g>
<!-- Node2&#45;&gt;Node6 -->
<g id="edge8_Node000002_Node000006" class="edge">
<title>Node2&#45;&gt;Node6</title>
<g id="a_edge8_Node000002_Node000006"><a xlink:title=" ">
<path fill="none" stroke="#63b8ff" d="M438.27,-325.22C427.29,-350.39 409.79,-390.7 395,-425.69 378.7,-464.23 390.51,-485.15 359,-512.69 351.49,-519.24 342.4,-524.04 332.9,-527.54"/>
<polygon fill="#63b8ff" stroke="#63b8ff" points="441.48,-326.61 442.27,-316.05 435.06,-323.81 441.48,-326.61"/>
</a>
</g>
</g>
<!-- Node7 -->
<g id="Node000007" class="node">
<title>Node7</title>
<g id="a_Node000007"><a xlink:href="namespaceproblem__setup.html#a881d38782fcef7d73522d8b9bfcdb3da" target="_top" xlink:title=" ">
<polygon fill="white" stroke="#666666" points="327.5,-315.69 206.5,-315.69 206.5,-285.69 327.5,-285.69 327.5,-315.69"/>
<text text-anchor="start" x="214.5" y="-303.69" font-family="Arial" font-size="10.00">problem_setup.generate</text>
<text text-anchor="middle" x="267" y="-292.69" font-family="Arial" font-size="10.00">_particle_gmsh_input</text>
</a>
</g>
</g>
<!-- Node2&#45;&gt;Node7 -->
<g id="edge10_Node000002_Node000007" class="edge">
<title>Node2&#45;&gt;Node7</title>
<g id="a_edge10_Node000002_Node000007"><a xlink:title=" ">
<path fill="none" stroke="#63b8ff" d="M384.58,-300.69C366.03,-300.69 345.88,-300.69 327.64,-300.69"/>
<polygon fill="#63b8ff" stroke="#63b8ff" points="384.69,-304.19 394.69,-300.69 384.69,-297.19 384.69,-304.19"/>
</a>
</g>
</g>
<!-- Node8 -->
<g id="Node000008" class="node">
<title>Node8</title>
<g id="a_Node000008"><a xlink:href="namespaceproblem__setup.html#a021c61bf44d7c968582474d32605a1ad" target="_top" xlink:title=" ">
<polygon fill="white" stroke="#666666" points="130,-315.69 9,-315.69 9,-285.69 130,-285.69 130,-315.69"/>
<text text-anchor="start" x="17" y="-303.69" font-family="Arial" font-size="10.00">problem_setup.generate</text>
<text text-anchor="middle" x="69.5" y="-292.69" font-family="Arial" font-size="10.00">_wall_gmsh_input</text>
</a>
</g>
</g>
<!-- Node2&#45;&gt;Node8 -->
<g id="edge22_Node000002_Node000008" class="edge">
<title>Node2&#45;&gt;Node8</title>
<g id="a_edge22_Node000002_Node000008"><a xlink:title=" ">
<path fill="none" stroke="#63b8ff" d="M415.29,-320.7C398.9,-329.29 378.56,-338.35 359,-342.69 279.16,-360.4 255.29,-358.22 175,-342.69 148.32,-337.52 119.8,-325.59 99.31,-315.75"/>
<polygon fill="#63b8ff" stroke="#63b8ff" points="417.33,-323.58 424.45,-315.73 413.99,-317.43 417.33,-323.58"/>
</a>
</g>
</g>
<!-- Node2&#45;&gt;Node9 -->
<g id="edge13_Node000002_Node000009" class="edge">
<title>Node2&#45;&gt;Node9</title>
<g id="a_edge13_Node000002_Node000009"><a xlink:title=" ">
<path fill="none" stroke="#63b8ff" d="M437.32,-276.36C422.61,-248 394.86,-201.38 359,-172.69 289.91,-117.41 256.11,-132.05 175,-96.69 150.48,-85.99 122.99,-73.34 102.37,-63.71"/>
<polygon fill="#63b8ff" stroke="#63b8ff" points="434.34,-278.22 441.97,-285.56 440.59,-275.06 434.34,-278.22"/>
</a>
</g>
</g>
<!-- Node2&#45;&gt;Node10 -->
<g id="edge15_Node000002_Node000010" class="edge">
<title>Node2&#45;&gt;Node10</title>
<g id="a_edge15_Node000002_Node000010"><a xlink:title=" ">
<path fill="none" stroke="#63b8ff" d="M438.04,-276.41C422.72,-243.75 392.96,-184.59 359,-139.69 339.05,-113.31 311.75,-87.02 292.27,-69.53"/>
<polygon fill="#63b8ff" stroke="#63b8ff" points="434.94,-278.04 442.31,-285.65 441.29,-275.1 434.94,-278.04"/>
</a>
</g>
</g>
<!-- Node2&#45;&gt;Node11 -->
<g id="edge18_Node000002_Node000011" class="edge">
<title>Node2&#45;&gt;Node11</title>
<g id="a_edge18_Node000002_Node000011"><a xlink:title=" ">
<path fill="none" stroke="#63b8ff" d="M417.9,-280.04C400.75,-268.9 378.95,-255.12 359,-243.69 339.26,-232.36 316.51,-220.61 298.69,-211.69"/>
<polygon fill="#63b8ff" stroke="#63b8ff" points="416.12,-283.06 426.4,-285.6 419.95,-277.2 416.12,-283.06"/>
</a>
</g>
</g>
<!-- Node2&#45;&gt;Node12 -->
<g id="edge23_Node000002_Node000012" class="edge">
<title>Node2&#45;&gt;Node12</title>
<g id="a_edge23_Node000002_Node000012"><a xlink:title=" ">
<path fill="none" stroke="#63b8ff" d="M385.08,-283.16C376.34,-280.9 367.46,-278.69 359,-276.69 277.74,-257.48 254.95,-262.8 175,-238.69 150.66,-231.35 124.1,-220.63 103.84,-211.86"/>
<polygon fill="#63b8ff" stroke="#63b8ff" points="384.31,-286.58 394.87,-285.72 386.08,-279.8 384.31,-286.58"/>
</a>
</g>
</g>
<!-- Node3&#45;&gt;Node3 -->
<g id="edge3_Node000003_Node000003" class="edge">
<title>Node3&#45;&gt;Node3</title>
<g id="a_edge3_Node000003_Node000003"><a xlink:title=" ">
<path fill="none" stroke="#63b8ff" d="M298.86,-496.28C294.5,-500.66 283.88,-503.69 267,-503.69 238.56,-503.69 227.9,-495.09 235.01,-485.96"/>
<polygon fill="#63b8ff" stroke="#63b8ff" points="302.36,-496.01 298.99,-485.96 295.36,-495.91 302.36,-496.01"/>
</a>
</g>
</g>
<!-- Node4&#45;&gt;Node4 -->
<g id="edge5_Node000004_Node000004" class="edge">
<title>Node4&#45;&gt;Node4</title>
<g id="a_edge5_Node000004_Node000004"><a xlink:title=" ">
<path fill="none" stroke="#63b8ff" d="M298.86,-430.28C294.5,-434.66 283.88,-437.69 267,-437.69 238.56,-437.69 227.9,-429.09 235.01,-419.96"/>
<polygon fill="#63b8ff" stroke="#63b8ff" points="302.36,-430.01 298.99,-419.96 295.36,-429.91 302.36,-430.01"/>
</a>
</g>
</g>
<!-- Node5&#45;&gt;Node5 -->
<g id="edge7_Node000005_Node000005" class="edge">
<title>Node5&#45;&gt;Node5</title>
<g id="a_edge7_Node000005_Node000005"><a xlink:title=" ">
<path fill="none" stroke="#63b8ff" d="M298.86,-628.28C294.5,-632.66 283.88,-635.69 267,-635.69 238.56,-635.69 227.9,-627.09 235.01,-617.96"/>
<polygon fill="#63b8ff" stroke="#63b8ff" points="302.36,-628.01 298.99,-617.96 295.36,-627.91 302.36,-628.01"/>
</a>
</g>
</g>
<!-- Node6&#45;&gt;Node6 -->
<g id="edge9_Node000006_Node000006" class="edge">
<title>Node6&#45;&gt;Node6</title>
<g id="a_edge9_Node000006_Node000006"><a xlink:title=" ">
<path fill="none" stroke="#63b8ff" d="M298.86,-562.28C294.5,-566.66 283.88,-569.69 267,-569.69 238.56,-569.69 227.9,-561.09 235.01,-551.96"/>
<polygon fill="#63b8ff" stroke="#63b8ff" points="302.36,-562.01 298.99,-551.96 295.36,-561.91 302.36,-562.01"/>
</a>
</g>
</g>
<!-- Node7&#45;&gt;Node7 -->
<g id="edge11_Node000007_Node000007" class="edge">
<title>Node7&#45;&gt;Node7</title>
<g id="a_edge11_Node000007_Node000007"><a xlink:title=" ">
<path fill="none" stroke="#63b8ff" d="M298.86,-326.28C294.5,-330.66 283.88,-333.69 267,-333.69 238.56,-333.69 227.9,-325.09 235.01,-315.96"/>
<polygon fill="#63b8ff" stroke="#63b8ff" points="302.36,-326.01 298.99,-315.96 295.36,-325.91 302.36,-326.01"/>
</a>
</g>
</g>
<!-- Node7&#45;&gt;Node8 -->
<g id="edge12_Node000007_Node000008" class="edge">
<title>Node7&#45;&gt;Node8</title>
<g id="a_edge12_Node000007_Node000008"><a xlink:title=" ">
<path fill="none" stroke="#63b8ff" d="M196.19,-300.69C174.6,-300.69 151.03,-300.69 130.19,-300.69"/>
<polygon fill="#63b8ff" stroke="#63b8ff" points="196.28,-304.19 206.28,-300.69 196.28,-297.19 196.28,-304.19"/>
</a>
</g>
</g>
<!-- Node9&#45;&gt;Node9 -->
<g id="edge14_Node000009_Node000009" class="edge">
<title>Node9&#45;&gt;Node9</title>
<g id="a_edge14_Node000009_Node000009"><a xlink:title=" ">
<path fill="none" stroke="#63b8ff" d="M103.81,-74.28C99.12,-78.66 87.68,-81.69 69.5,-81.69 38.88,-81.69 27.39,-73.09 35.05,-63.96"/>
<polygon fill="#63b8ff" stroke="#63b8ff" points="107.31,-74.01 103.95,-63.96 100.31,-73.91 107.31,-74.01"/>
</a>
</g>
</g>
<!-- Node10&#45;&gt;Node9 -->
<g id="edge16_Node000010_Node000009" class="edge">
<title>Node10&#45;&gt;Node9</title>
<g id="a_edge16_Node000010_Node000009"><a xlink:title=" ">
<path fill="none" stroke="#63b8ff" d="M164.65,-48.69C155.98,-48.69 147.35,-48.69 139.03,-48.69"/>
<polygon fill="#63b8ff" stroke="#63b8ff" points="164.83,-52.19 174.83,-48.69 164.83,-45.19 164.83,-52.19"/>
</a>
</g>
</g>
<!-- Node10&#45;&gt;Node10 -->
<g id="edge17_Node000010_Node000010" class="edge">
<title>Node10&#45;&gt;Node10</title>
<g id="a_edge17_Node000010_Node000010"><a xlink:title=" ">
<path fill="none" stroke="#63b8ff" d="M298.31,-79.15C293.66,-83.92 283.22,-87.19 267,-87.19 241.05,-87.19 229.9,-78.84 233.55,-69.28"/>
<polygon fill="#63b8ff" stroke="#63b8ff" points="301.75,-79.8 300.45,-69.28 294.91,-78.31 301.75,-79.8"/>
</a>
</g>
</g>
<!-- Node11&#45;&gt;Node8 -->
<g id="edge20_Node000011_Node000008" class="edge">
<title>Node11&#45;&gt;Node8</title>
<g id="a_edge20_Node000011_Node000008"><a xlink:title=" ">
<path fill="none" stroke="#63b8ff" d="M228.41,-216.68C190.6,-236.8 133.15,-267.36 98.96,-285.55"/>
<polygon fill="#63b8ff" stroke="#63b8ff" points="230.39,-219.59 237.57,-211.81 227.1,-213.41 230.39,-219.59"/>
</a>
</g>
</g>
<!-- Node11&#45;&gt;Node11 -->
<g id="edge19_Node000011_Node000011" class="edge">
<title>Node11&#45;&gt;Node11</title>
<g id="a_edge19_Node000011_Node000011"><a xlink:title=" ">
<path fill="none" stroke="#63b8ff" d="M298.86,-222.28C294.5,-226.66 283.88,-229.69 267,-229.69 238.56,-229.69 227.9,-221.09 235.01,-211.96"/>
<polygon fill="#63b8ff" stroke="#63b8ff" points="302.36,-222.01 298.99,-211.96 295.36,-221.91 302.36,-222.01"/>
</a>
</g>
</g>
<!-- Node11&#45;&gt;Node12 -->
<g id="edge21_Node000011_Node000012" class="edge">
<title>Node11&#45;&gt;Node12</title>
<g id="a_edge21_Node000011_Node000012"><a xlink:title=" ">
<path fill="none" stroke="#63b8ff" d="M196.07,-196.69C173.47,-196.69 148.7,-196.69 127.18,-196.69"/>
<polygon fill="#63b8ff" stroke="#63b8ff" points="196.28,-200.19 206.28,-196.69 196.28,-193.19 196.28,-200.19"/>
</a>
</g>
</g>
</g>
</svg>
