<?xml version="1.0" encoding="UTF-8" standalone="no"?>
<!DOCTYPE svg PUBLIC "-//W3C//DTD SVG 1.1//EN"
 "http://www.w3.org/Graphics/SVG/1.1/DTD/svg11.dtd">
<!-- Generated by graphviz version 2.43.0 (0)
 -->
<!-- Title: gmsh_particles.drum2d_mesh_symmetric Pages: 1 -->
<svg width="416pt" height="209pt"
 viewBox="0.00 0.00 416.00 208.50" xmlns="http://www.w3.org/2000/svg" xmlns:xlink="http://www.w3.org/1999/xlink">
<g id="graph0" class="graph" transform="scale(1 1) rotate(0) translate(4 204.5)">
<title>gmsh_particles.drum2d_mesh_symmetric</title>
<!-- Node1 -->
<g id="Node000001" class="node">
<title>Node1</title>
<g id="a_Node000001"><a xlink:title=" ">
<polygon fill="#999999" stroke="#666666" points="118,-104.5 0,-104.5 0,-74.5 118,-74.5 118,-104.5"/>
<text text-anchor="start" x="8" y="-92.5" font-family="Arial" font-size="10.00">gmsh_particles.drum2d</text>
<text text-anchor="middle" x="59" y="-81.5" font-family="Arial" font-size="10.00">_mesh_symmetric</text>
</a>
</g>
</g>
<!-- Node2 -->
<g id="Node000002" class="node">
<title>Node2</title>
<g id="a_Node000002"><a xlink:href="namespacegeom__util.html#a13f030c6d181d0210c230fc01e33331c" target="_top" xlink:title=" ">
<polygon fill="white" stroke="#666666" points="283.5,-200.5 156.5,-200.5 156.5,-170.5 283.5,-170.5 283.5,-200.5"/>
<text text-anchor="start" x="164.5" y="-188.5" font-family="Arial" font-size="10.00">geom_util.check_hanging</text>
<text text-anchor="middle" x="220" y="-177.5" font-family="Arial" font-size="10.00">_nodes</text>
</a>
</g>
</g>
<!-- Node1&#45;&gt;Node2 -->
<g id="edge1_Node000001_Node000002" class="edge">
<title>Node1&#45;&gt;Node2</title>
<g id="a_edge1_Node000001_Node000002"><a xlink:title=" ">
<path fill="none" stroke="#63b8ff" d="M76.58,-104.7C94.57,-120.56 124.65,-145.33 154,-161.5 157.04,-163.18 160.22,-164.78 163.48,-166.31"/>
<polygon fill="#63b8ff" stroke="#63b8ff" points="162.21,-169.57 172.77,-170.4 165.03,-163.16 162.21,-169.57"/>
</a>
</g>
</g>
<!-- Node3 -->
<g id="Node000003" class="node">
<title>Node3</title>
<g id="a_Node000003"><a xlink:href="namespacegeom__util.html#a4cff2d2279e07cecdbff9c469cadc986" target="_top" xlink:title=" ">
<polygon fill="white" stroke="#666666" points="272,-152.5 168,-152.5 168,-122.5 272,-122.5 272,-152.5"/>
<text text-anchor="start" x="176" y="-140.5" font-family="Arial" font-size="10.00">geom_util.get_gmsh</text>
<text text-anchor="middle" x="220" y="-129.5" font-family="Arial" font-size="10.00">_entities</text>
</a>
</g>
</g>
<!-- Node1&#45;&gt;Node3 -->
<g id="edge2_Node000001_Node000003" class="edge">
<title>Node1&#45;&gt;Node3</title>
<g id="a_edge2_Node000001_Node000003"><a xlink:title=" ">
<path fill="none" stroke="#63b8ff" d="M109.87,-104.56C125.56,-109.29 143.04,-114.57 159.34,-119.49"/>
<polygon fill="#63b8ff" stroke="#63b8ff" points="158.72,-122.96 169.3,-122.5 160.74,-116.26 158.72,-122.96"/>
</a>
</g>
</g>
<!-- Node4 -->
<g id="Node000004" class="node">
<title>Node4</title>
<g id="a_Node000004"><a xlink:href="namespacegeom__util.html#a110d13875687bf3abefe2ffe9564db4c" target="_top" xlink:title=" ">
<polygon fill="white" stroke="#666666" points="279.5,-104.5 160.5,-104.5 160.5,-74.5 279.5,-74.5 279.5,-104.5"/>
<text text-anchor="start" x="168.5" y="-92.5" font-family="Arial" font-size="10.00">geom_util.get_ref_drum</text>
<text text-anchor="middle" x="220" y="-81.5" font-family="Arial" font-size="10.00">_points</text>
</a>
</g>
</g>
<!-- Node1&#45;&gt;Node4 -->
<g id="edge3_Node000001_Node000004" class="edge">
<title>Node1&#45;&gt;Node4</title>
<g id="a_edge3_Node000001_Node000004"><a xlink:title=" ">
<path fill="none" stroke="#63b8ff" d="M118.3,-89.5C128.71,-89.5 139.65,-89.5 150.32,-89.5"/>
<polygon fill="#63b8ff" stroke="#63b8ff" points="150.44,-93 160.44,-89.5 150.44,-86 150.44,-93"/>
</a>
</g>
</g>
<!-- Node6 -->
<g id="Node000006" class="node">
<title>Node6</title>
<g id="a_Node000006"><a xlink:href="namespacegeom__util.html#a4da92e283f0d3adaeec14f498c0f2c10" target="_top" xlink:title=" ">
<polygon fill="white" stroke="#666666" points="286,-56 154,-56 154,-37 286,-37 286,-56"/>
<text text-anchor="middle" x="220" y="-44" font-family="Arial" font-size="10.00">geom_util.gmsh_transform</text>
</a>
</g>
</g>
<!-- Node1&#45;&gt;Node6 -->
<g id="edge5_Node000001_Node000006" class="edge">
<title>Node1&#45;&gt;Node6</title>
<g id="a_edge5_Node000001_Node000006"><a xlink:title=" ">
<path fill="none" stroke="#63b8ff" d="M115.61,-74.46C134.65,-69.31 155.71,-63.62 173.82,-58.72"/>
<polygon fill="#63b8ff" stroke="#63b8ff" points="174.81,-62.08 183.55,-56.09 172.99,-55.32 174.81,-62.08"/>
</a>
</g>
</g>
<!-- Node7 -->
<g id="Node000007" class="node">
<title>Node7</title>
<g id="a_Node000007"><a xlink:href="namespacegeom__util.html#a0402fa3ab58c62403ff40506f3453665" target="_top" xlink:title=" ">
<polygon fill="white" stroke="#666666" points="284,-19 156,-19 156,0 284,0 284,-19"/>
<text text-anchor="middle" x="220" y="-7" font-family="Arial" font-size="10.00">geom_util.gmsh_translate</text>
</a>
</g>
</g>
<!-- Node1&#45;&gt;Node7 -->
<g id="edge6_Node000001_Node000007" class="edge">
<title>Node1&#45;&gt;Node7</title>
<g id="a_edge6_Node000001_Node000007"><a xlink:title=" ">
<path fill="none" stroke="#63b8ff" d="M79.55,-74.38C97.91,-60.78 126.59,-41.07 154,-28.5 159.01,-26.2 164.36,-24.11 169.77,-22.22"/>
<polygon fill="#63b8ff" stroke="#63b8ff" points="171.07,-25.48 179.49,-19.05 168.9,-18.83 171.07,-25.48"/>
</a>
</g>
</g>
<!-- Node5 -->
<g id="Node000005" class="node">
<title>Node5</title>
<g id="a_Node000005"><a xlink:href="namespacegeom__util.html#acd65ced5bcfff51014a4b8dc6e6a935e" target="_top" xlink:title=" ">
<polygon fill="white" stroke="#666666" points="408,-99 322,-99 322,-80 408,-80 408,-99"/>
<text text-anchor="middle" x="365" y="-87" font-family="Arial" font-size="10.00">geom_util.rotate</text>
</a>
</g>
</g>
<!-- Node4&#45;&gt;Node5 -->
<g id="edge4_Node000004_Node000005" class="edge">
<title>Node4&#45;&gt;Node5</title>
<g id="a_edge4_Node000004_Node000005"><a xlink:title=" ">
<path fill="none" stroke="#63b8ff" d="M279.58,-89.5C290.22,-89.5 301.26,-89.5 311.71,-89.5"/>
<polygon fill="#63b8ff" stroke="#63b8ff" points="311.92,-93 321.92,-89.5 311.92,-86 311.92,-93"/>
</a>
</g>
</g>
</g>
</svg>
