<?xml version="1.0" encoding="UTF-8" standalone="no"?>
<!DOCTYPE svg PUBLIC "-//W3C//DTD SVG 1.1//EN"
 "http://www.w3.org/Graphics/SVG/1.1/DTD/svg11.dtd">
<!-- Generated by graphviz version 2.43.0 (0)
 -->
<!-- Title: gmsh_particles.sphere_mesh_symmetric Pages: 1 -->
<svg width="291pt" height="161pt"
 viewBox="0.00 0.00 291.00 160.50" xmlns="http://www.w3.org/2000/svg" xmlns:xlink="http://www.w3.org/1999/xlink">
<g id="graph0" class="graph" transform="scale(1 1) rotate(0) translate(4 156.5)">
<title>gmsh_particles.sphere_mesh_symmetric</title>
<!-- Node1 -->
<g id="Node000001" class="node">
<title>Node1</title>
<g id="a_Node000001"><a xlink:title=" ">
<polygon fill="#999999" stroke="#666666" points="115,-82.5 0,-82.5 0,-52.5 115,-52.5 115,-82.5"/>
<text text-anchor="start" x="8" y="-70.5" font-family="Arial" font-size="10.00">gmsh_particles.sphere</text>
<text text-anchor="middle" x="57.5" y="-59.5" font-family="Arial" font-size="10.00">_mesh_symmetric</text>
</a>
</g>
</g>
<!-- Node2 -->
<g id="Node000002" class="node">
<title>Node2</title>
<g id="a_Node000002"><a xlink:href="namespacegeom__util.html#a13f030c6d181d0210c230fc01e33331c" target="_top" xlink:title=" ">
<polygon fill="white" stroke="#666666" points="280.5,-152.5 153.5,-152.5 153.5,-122.5 280.5,-122.5 280.5,-152.5"/>
<text text-anchor="start" x="161.5" y="-140.5" font-family="Arial" font-size="10.00">geom_util.check_hanging</text>
<text text-anchor="middle" x="217" y="-129.5" font-family="Arial" font-size="10.00">_nodes</text>
</a>
</g>
</g>
<!-- Node1&#45;&gt;Node2 -->
<g id="edge1_Node000001_Node000002" class="edge">
<title>Node1&#45;&gt;Node2</title>
<g id="a_edge1_Node000001_Node000002"><a xlink:title=" ">
<path fill="none" stroke="#63b8ff" d="M86.87,-82.6C104.99,-92 129.1,-104.04 151,-113.5 155.09,-115.26 159.35,-117.02 163.65,-118.73"/>
<polygon fill="#63b8ff" stroke="#63b8ff" points="162.5,-122.04 173.08,-122.4 165.03,-115.51 162.5,-122.04"/>
</a>
</g>
</g>
<!-- Node3 -->
<g id="Node000003" class="node">
<title>Node3</title>
<g id="a_Node000003"><a xlink:href="namespacegeom__util.html#a4cff2d2279e07cecdbff9c469cadc986" target="_top" xlink:title=" ">
<polygon fill="white" stroke="#666666" points="269,-104.5 165,-104.5 165,-74.5 269,-74.5 269,-104.5"/>
<text text-anchor="start" x="173" y="-92.5" font-family="Arial" font-size="10.00">geom_util.get_gmsh</text>
<text text-anchor="middle" x="217" y="-81.5" font-family="Arial" font-size="10.00">_entities</text>
</a>
</g>
</g>
<!-- Node1&#45;&gt;Node3 -->
<g id="edge2_Node000001_Node000003" class="edge">
<title>Node1&#45;&gt;Node3</title>
<g id="a_edge2_Node000001_Node000003"><a xlink:title=" ">
<path fill="none" stroke="#63b8ff" d="M115.36,-75.44C128.15,-77.23 141.78,-79.13 154.75,-80.94"/>
<polygon fill="#63b8ff" stroke="#63b8ff" points="154.58,-84.46 164.97,-82.37 155.55,-77.52 154.58,-84.46"/>
</a>
</g>
</g>
<!-- Node4 -->
<g id="Node000004" class="node">
<title>Node4</title>
<g id="a_Node000004"><a xlink:href="namespacegeom__util.html#a4da92e283f0d3adaeec14f498c0f2c10" target="_top" xlink:title=" ">
<polygon fill="white" stroke="#666666" points="283,-56 151,-56 151,-37 283,-37 283,-56"/>
<text text-anchor="middle" x="217" y="-44" font-family="Arial" font-size="10.00">geom_util.gmsh_transform</text>
</a>
</g>
</g>
<!-- Node1&#45;&gt;Node4 -->
<g id="edge3_Node000001_Node000004" class="edge">
<title>Node1&#45;&gt;Node4</title>
<g id="a_edge3_Node000001_Node000004"><a xlink:title=" ">
<path fill="none" stroke="#63b8ff" d="M115.36,-59.92C123.66,-58.81 132.31,-57.66 140.9,-56.51"/>
<polygon fill="#63b8ff" stroke="#63b8ff" points="141.48,-59.97 150.93,-55.18 140.55,-53.03 141.48,-59.97"/>
</a>
</g>
</g>
<!-- Node5 -->
<g id="Node000005" class="node">
<title>Node5</title>
<g id="a_Node000005"><a xlink:href="namespacegeom__util.html#a0402fa3ab58c62403ff40506f3453665" target="_top" xlink:title=" ">
<polygon fill="white" stroke="#666666" points="281,-19 153,-19 153,0 281,0 281,-19"/>
<text text-anchor="middle" x="217" y="-7" font-family="Arial" font-size="10.00">geom_util.gmsh_translate</text>
</a>
</g>
</g>
<!-- Node1&#45;&gt;Node5 -->
<g id="edge4_Node000001_Node000005" class="edge">
<title>Node1&#45;&gt;Node5</title>
<g id="a_edge4_Node000001_Node000005"><a xlink:title=" ">
<path fill="none" stroke="#63b8ff" d="M91.53,-52.49C109.02,-44.82 130.97,-35.62 151,-28.5 157.4,-26.22 164.22,-24.01 170.95,-21.94"/>
<polygon fill="#63b8ff" stroke="#63b8ff" points="172.1,-25.25 180.68,-19.03 170.1,-18.54 172.1,-25.25"/>
</a>
</g>
</g>
</g>
</svg>
