<?xml version="1.0" encoding="UTF-8" standalone="no"?>
<!DOCTYPE svg PUBLIC "-//W3C//DTD SVG 1.1//EN"
 "http://www.w3.org/Graphics/SVG/1.1/DTD/svg11.dtd">
<!-- Generated by graphviz version 2.43.0 (0)
 -->
<!-- Title: anonymous_namespace{testMeshGen::cpp}::meshDimForBuiltin Pages: 1 -->
<svg width="302pt" height="67pt"
 viewBox="0.00 0.00 302.00 67.00" xmlns="http://www.w3.org/2000/svg" xmlns:xlink="http://www.w3.org/1999/xlink">
<g id="graph0" class="graph" transform="scale(1 1) rotate(0) translate(4 63)">
<title>anonymous_namespace{testMeshGen::cpp}::meshDimForBuiltin</title>
<!-- Node1 -->
<g id="Node000001" class="node">
<title>Node1</title>
<g id="a_Node000001"><a xlink:title="Model dimension for mesh deck (annulus deck names map to annulus_object with d_dim set).">
<polygon fill="#999999" stroke="#666666" points="122,-41 0,-41 0,0 122,0 122,-41"/>
<text text-anchor="start" x="8" y="-29" font-family="Arial" font-size="10.00">anonymous_namespace</text>
<text text-anchor="start" x="8" y="-18" font-family="Arial" font-size="10.00">{testMeshGen::cpp}::</text>
<text text-anchor="middle" x="61" y="-7" font-family="Arial" font-size="10.00">meshDimForBuiltin</text>
</a>
</g>
</g>
<!-- Node1&#45;&gt;Node1 -->
<g id="edge2_Node000001_Node000001" class="edge">
<title>Node1&#45;&gt;Node1</title>
<g id="a_edge2_Node000001_Node000001"><a xlink:title=" ">
<path fill="none" stroke="#63b8ff" d="M30.86,-41.1C27.57,-50.65 37.62,-59 61,-59 75.61,-59 85.02,-55.74 89.22,-50.96"/>
<polygon fill="#63b8ff" stroke="#63b8ff" points="92.66,-51.58 91.14,-41.1 85.79,-50.24 92.66,-51.58"/>
</a>
</g>
</g>
<!-- Node2 -->
<g id="Node000002" class="node">
<title>Node2</title>
<g id="a_Node000002"><a xlink:href="namespacegeom.html#ab2929fa1e14b38f234ebf6bbd9e02a9c" target="_top" xlink:title="Returns list of acceptable geometries for PeriDEM simulation.">
<polygon fill="white" stroke="#666666" points="294,-30 158,-30 158,-11 294,-11 294,-30"/>
<text text-anchor="middle" x="226" y="-18" font-family="Arial" font-size="10.00">geom::getGeomTypeToDim</text>
</a>
</g>
</g>
<!-- Node1&#45;&gt;Node2 -->
<g id="edge1_Node000001_Node000002" class="edge">
<title>Node1&#45;&gt;Node2</title>
<g id="a_edge1_Node000001_Node000002"><a xlink:title=" ">
<path fill="none" stroke="#63b8ff" d="M122.23,-20.5C130.58,-20.5 139.24,-20.5 147.84,-20.5"/>
<polygon fill="#63b8ff" stroke="#63b8ff" points="147.88,-24 157.88,-20.5 147.88,-17 147.88,-24"/>
</a>
</g>
</g>
</g>
</svg>
