<?xml version="1.0" encoding="UTF-8" standalone="no"?>
<!DOCTYPE svg PUBLIC "-//W3C//DTD SVG 1.1//EN"
 "http://www.w3.org/Graphics/SVG/1.1/DTD/svg11.dtd">
<!-- Generated by graphviz version 2.43.0 (0)
 -->
<!-- Title: problem_setup.generate_moving_wall_gmsh_input Pages: 1 -->
<svg width="824pt" height="573pt"
 viewBox="0.00 0.00 824.00 573.00" xmlns="http://www.w3.org/2000/svg" xmlns:xlink="http://www.w3.org/1999/xlink">
<g id="graph0" class="graph" transform="scale(1 1) rotate(0) translate(4 569)">
<title>problem_setup.generate_moving_wall_gmsh_input</title>
<!-- Node1 -->
<g id="node1" class="node">
<title>Node1</title>
<g id="a_node1"><a xlink:title=" ">
<polygon fill="#bfbfbf" stroke="black" points="0,-274.5 0,-304.5 131,-304.5 131,-274.5 0,-274.5"/>
<text text-anchor="start" x="8" y="-292.5" font-family="Arial" font-size="10.00">problem_setup.generate</text>
<text text-anchor="middle" x="65.5" y="-281.5" font-family="Arial" font-size="10.00">_moving_wall_gmsh_input</text>
</a>
</g>
</g>
<!-- Node2 -->
<g id="node2" class="node">
<title>Node2</title>
<g id="a_node2"><a xlink:href="namespaceproblem__setup.html#a64e067098e447f766d042476ef5abe85" target="_top" xlink:title=" ">
<polygon fill="none" stroke="black" points="177,-274.5 177,-304.5 287,-304.5 287,-274.5 177,-274.5"/>
<text text-anchor="start" x="185" y="-292.5" font-family="Arial" font-size="10.00">problem_setup.create</text>
<text text-anchor="middle" x="232" y="-281.5" font-family="Arial" font-size="10.00">_input_file</text>
</a>
</g>
</g>
<!-- Node1&#45;&gt;Node2 -->
<g id="edge1" class="edge">
<title>Node1&#45;&gt;Node2</title>
<path fill="none" stroke="midnightblue" d="M131.04,-289.5C142.74,-289.5 154.94,-289.5 166.63,-289.5"/>
<polygon fill="midnightblue" stroke="midnightblue" points="166.74,-293 176.74,-289.5 166.74,-286 166.74,-293"/>
</g>
<!-- Node3 -->
<g id="node3" class="node">
<title>Node3</title>
<g id="a_node3"><a xlink:href="namespaceproblem__setup.html#a2deb4dabdc948f0b2b009c3576518ade" target="_top" xlink:title=" ">
<polygon fill="none" stroke="black" points="343.5,-498.5 343.5,-528.5 468.5,-528.5 468.5,-498.5 343.5,-498.5"/>
<text text-anchor="start" x="351.5" y="-516.5" font-family="Arial" font-size="10.00">problem_setup.generate</text>
<text text-anchor="middle" x="406" y="-505.5" font-family="Arial" font-size="10.00">_cir_particle_gmsh_input</text>
</a>
</g>
</g>
<!-- Node1&#45;&gt;Node3 -->
<g id="edge22" class="edge">
<title>Node1&#45;&gt;Node3</title>
<path fill="none" stroke="midnightblue" d="M73.96,-304.94C88.24,-332.98 122.07,-392.51 167,-426.5 216.34,-463.83 283.29,-486.4 333.61,-499.16"/>
<polygon fill="midnightblue" stroke="midnightblue" points="332.9,-502.59 343.45,-501.58 334.57,-495.79 332.9,-502.59"/>
</g>
<!-- Node10 -->
<g id="node10" class="node">
<title>Node10</title>
<g id="a_node10"><a xlink:href="namespaceproblem__setup.html#af977354e61703cd925c2511fd3ca0858" target="_top" xlink:title=" ">
<polygon fill="none" stroke="black" points="351.5,-460 351.5,-479 460.5,-479 460.5,-460 351.5,-460"/>
<text text-anchor="middle" x="406" y="-467" font-family="Arial" font-size="10.00">problem_setup.get_E</text>
</a>
</g>
</g>
<!-- Node1&#45;&gt;Node10 -->
<g id="edge27" class="edge">
<title>Node1&#45;&gt;Node10</title>
<path fill="none" stroke="midnightblue" d="M79.07,-304.53C96.84,-324.98 131.17,-361.64 167,-384.5 224.57,-421.22 300.1,-444.71 350.48,-457.48"/>
<polygon fill="midnightblue" stroke="midnightblue" points="349.65,-460.88 360.2,-459.89 351.34,-454.09 349.65,-460.88"/>
</g>
<!-- Node11 -->
<g id="node11" class="node">
<title>Node11</title>
<g id="a_node11"><a xlink:href="namespaceproblem__setup.html#a564e6017e037399c311be8b31653e45d" target="_top" xlink:title=" ">
<polygon fill="none" stroke="black" points="344.5,-422 344.5,-441 467.5,-441 467.5,-422 344.5,-422"/>
<text text-anchor="middle" x="406" y="-429" font-family="Arial" font-size="10.00">problem_setup.get_eff_k</text>
</a>
</g>
</g>
<!-- Node1&#45;&gt;Node11 -->
<g id="edge28" class="edge">
<title>Node1&#45;&gt;Node11</title>
<path fill="none" stroke="midnightblue" d="M94.99,-304.66C143,-329.76 243.57,-380.34 333,-412.5 339.77,-414.94 347.01,-417.21 354.18,-419.28"/>
<polygon fill="midnightblue" stroke="midnightblue" points="353.31,-422.67 363.88,-421.97 355.18,-415.92 353.31,-422.67"/>
</g>
<!-- Node12 -->
<g id="node12" class="node">
<title>Node12</title>
<g id="a_node12"><a xlink:href="namespaceproblem__setup.html#adc274a492cfb30270617c3c66d64c6c4" target="_top" xlink:title=" ">
<polygon fill="none" stroke="black" points="351,-99 351,-118 461,-118 461,-99 351,-99"/>
<text text-anchor="middle" x="406" y="-106" font-family="Arial" font-size="10.00">problem_setup.get_G</text>
</a>
</g>
</g>
<!-- Node1&#45;&gt;Node12 -->
<g id="edge29" class="edge">
<title>Node1&#45;&gt;Node12</title>
<path fill="none" stroke="midnightblue" d="M127.5,-274.47C191.41,-258.26 284.28,-233.21 297,-221.5 329.61,-191.48 300.16,-158.26 333,-128.5 335.68,-126.07 338.62,-123.94 341.75,-122.06"/>
<polygon fill="midnightblue" stroke="midnightblue" points="343.6,-125.05 350.96,-117.42 340.45,-118.8 343.6,-125.05"/>
</g>
<!-- Node13 -->
<g id="node13" class="node">
<title>Node13</title>
<g id="a_node13"><a xlink:href="namespaceproblem__setup.html#a662426f1cd2c0857864b28e98daa4d5a" target="_top" xlink:title=" ">
<polygon fill="none" stroke="black" points="348.5,-49.5 348.5,-79.5 463.5,-79.5 463.5,-49.5 348.5,-49.5"/>
<text text-anchor="start" x="356.5" y="-67.5" font-family="Arial" font-size="10.00">problem_setup.particle</text>
<text text-anchor="middle" x="406" y="-56.5" font-family="Arial" font-size="10.00">_locations</text>
</a>
</g>
</g>
<!-- Node1&#45;&gt;Node13 -->
<g id="edge30" class="edge">
<title>Node1&#45;&gt;Node13</title>
<path fill="none" stroke="midnightblue" d="M85.07,-274.32C104.47,-259.11 136.31,-235.94 167,-221.5 221.47,-195.88 252.74,-224.3 297,-183.5 329.89,-153.18 300.87,-120.63 333,-89.5 335.09,-87.47 337.36,-85.61 339.75,-83.89"/>
<polygon fill="midnightblue" stroke="midnightblue" points="341.63,-86.85 348.32,-78.63 337.97,-80.88 341.63,-86.85"/>
</g>
<!-- Node22 -->
<g id="node19" class="node">
<title>Node22</title>
<g id="a_node19"><a xlink:href="namespaceproblem__setup.html#a9ce710367bd7258e6dd619e9ec930b36" target="_top" xlink:title=" ">
<polygon fill="none" stroke="black" points="355,-0.5 355,-30.5 457,-30.5 457,-0.5 355,-0.5"/>
<text text-anchor="start" x="363" y="-18.5" font-family="Arial" font-size="10.00">problem_setup.print</text>
<text text-anchor="middle" x="406" y="-7.5" font-family="Arial" font-size="10.00">_dbl_list</text>
</a>
</g>
</g>
<!-- Node1&#45;&gt;Node22 -->
<g id="edge31" class="edge">
<title>Node1&#45;&gt;Node22</title>
<path fill="none" stroke="midnightblue" d="M76.59,-274.28C92.81,-251.05 126.97,-206.97 167,-183.5 218.42,-153.35 253.45,-191.2 297,-150.5 334.58,-115.38 296.95,-77.2 333,-40.5 336.67,-36.76 340.93,-33.58 345.51,-30.88"/>
<polygon fill="midnightblue" stroke="midnightblue" points="347.31,-33.89 354.63,-26.24 344.13,-27.65 347.31,-33.89"/>
</g>
<!-- Node25 -->
<g id="node22" class="node">
<title>Node25</title>
<g id="a_node22"><a xlink:href="namespaceproblem__setup.html#a876a947fad9cf3729999101abe3e823f" target="_top" xlink:title=" ">
<polygon fill="none" stroke="black" points="167,-534.5 167,-564.5 297,-564.5 297,-534.5 167,-534.5"/>
<text text-anchor="start" x="175" y="-552.5" font-family="Arial" font-size="10.00">problem_setup.generate</text>
<text text-anchor="middle" x="232" y="-541.5" font-family="Arial" font-size="10.00">_hex_particle_gmsh_input</text>
</a>
</g>
</g>
<!-- Node1&#45;&gt;Node25 -->
<g id="edge23" class="edge">
<title>Node1&#45;&gt;Node25</title>
<path fill="none" stroke="midnightblue" d="M69.99,-304.73C79.51,-343.39 109.16,-446.87 167,-511.5 172.95,-518.14 180.34,-523.97 187.96,-528.93"/>
<polygon fill="midnightblue" stroke="midnightblue" points="186.58,-532.18 196.94,-534.36 190.19,-526.19 186.58,-532.18"/>
</g>
<!-- Node27 -->
<g id="node24" class="node">
<title>Node27</title>
<g id="a_node24"><a xlink:href="namespaceproblem__setup.html#a0952cf202b7e2cd1e453eff36be36074" target="_top" xlink:title=" ">
<polygon fill="none" stroke="black" points="171.5,-110.5 171.5,-140.5 292.5,-140.5 292.5,-110.5 171.5,-110.5"/>
<text text-anchor="start" x="179.5" y="-128.5" font-family="Arial" font-size="10.00">problem_setup.generate</text>
<text text-anchor="middle" x="232" y="-117.5" font-family="Arial" font-size="10.00">_rigid_wall_gmsh_input</text>
</a>
</g>
</g>
<!-- Node1&#45;&gt;Node27 -->
<g id="edge26" class="edge">
<title>Node1&#45;&gt;Node27</title>
<path fill="none" stroke="midnightblue" d="M74.55,-274.32C89.54,-247.29 124.14,-190.36 167,-155.5 171.57,-151.78 176.69,-148.4 181.97,-145.36"/>
<polygon fill="midnightblue" stroke="midnightblue" points="183.78,-148.36 190.97,-140.58 180.5,-142.18 183.78,-148.36"/>
</g>
<!-- Node2&#45;&gt;Node3 -->
<g id="edge2" class="edge">
<title>Node2&#45;&gt;Node3</title>
<path fill="none" stroke="midnightblue" d="M236.43,-304.63C245.54,-341.48 273.83,-436.64 333,-488.5 334.92,-490.18 336.95,-491.75 339.07,-493.21"/>
<polygon fill="midnightblue" stroke="midnightblue" points="337.28,-496.22 347.66,-498.36 340.88,-490.21 337.28,-496.22"/>
</g>
<!-- Node4 -->
<g id="node4" class="node">
<title>Node4</title>
<g id="a_node4"><a xlink:href="namespaceproblem__setup.html#ae83c0d80c0947e65b98e4a2da0c07601" target="_top" xlink:title=" ">
<polygon fill="none" stroke="black" points="333,-323.5 333,-353.5 479,-353.5 479,-323.5 333,-323.5"/>
<text text-anchor="start" x="341" y="-341.5" font-family="Arial" font-size="10.00">problem_setup.generate</text>
<text text-anchor="middle" x="406" y="-330.5" font-family="Arial" font-size="10.00">_drum2d_particle_gmsh_input</text>
</a>
</g>
</g>
<!-- Node2&#45;&gt;Node4 -->
<g id="edge3" class="edge">
<title>Node2&#45;&gt;Node4</title>
<path fill="none" stroke="midnightblue" d="M286.01,-304.6C303.83,-309.68 323.88,-315.39 342.37,-320.66"/>
<polygon fill="midnightblue" stroke="midnightblue" points="341.59,-324.07 352.17,-323.45 343.51,-317.34 341.59,-324.07"/>
</g>
<!-- Node7 -->
<g id="node7" class="node">
<title>Node7</title>
<g id="a_node7"><a xlink:href="namespaceproblem__setup.html#a541e6c5ea41e139ea1eca83975753fbb" target="_top" xlink:title=" ">
<polygon fill="none" stroke="black" points="345,-372.5 345,-402.5 467,-402.5 467,-372.5 345,-372.5"/>
<text text-anchor="start" x="353" y="-390.5" font-family="Arial" font-size="10.00">problem_setup.generate</text>
<text text-anchor="middle" x="406" y="-379.5" font-family="Arial" font-size="10.00">_tri_particle_gmsh_input</text>
</a>
</g>
</g>
<!-- Node2&#45;&gt;Node7 -->
<g id="edge6" class="edge">
<title>Node2&#45;&gt;Node7</title>
<path fill="none" stroke="midnightblue" d="M249.94,-304.67C268.98,-321.07 301.38,-347.06 333,-363.5 336.45,-365.29 340.07,-366.99 343.76,-368.6"/>
<polygon fill="midnightblue" stroke="midnightblue" points="342.47,-371.85 353.05,-372.38 345.11,-365.37 342.47,-371.85"/>
</g>
<!-- Node9 -->
<g id="node9" class="node">
<title>Node9</title>
<g id="a_node9"><a xlink:href="namespaceproblem__setup.html#ad281d5f1d41eee4b1a595ede1aff337c" target="_top" xlink:title=" ">
<polygon fill="none" stroke="black" points="345.5,-137.5 345.5,-167.5 466.5,-167.5 466.5,-137.5 345.5,-137.5"/>
<text text-anchor="start" x="353.5" y="-155.5" font-family="Arial" font-size="10.00">problem_setup.generate</text>
<text text-anchor="middle" x="406" y="-144.5" font-family="Arial" font-size="10.00">_wall_gmsh_input</text>
</a>
</g>
</g>
<!-- Node2&#45;&gt;Node9 -->
<g id="edge8" class="edge">
<title>Node2&#45;&gt;Node9</title>
<path fill="none" stroke="midnightblue" d="M275.98,-274.45C283.61,-270.43 291.02,-265.49 297,-259.5 323.7,-232.77 305.72,-208.64 333,-182.5 336.97,-178.69 341.5,-175.34 346.3,-172.39"/>
<polygon fill="midnightblue" stroke="midnightblue" points="348.1,-175.39 355.18,-167.51 344.73,-169.26 348.1,-175.39"/>
</g>
<!-- Node2&#45;&gt;Node10 -->
<g id="edge9" class="edge">
<title>Node2&#45;&gt;Node10</title>
<path fill="none" stroke="midnightblue" d="M238.01,-304.58C249.44,-336.64 280.61,-411.78 333,-450.5 335.84,-452.6 338.9,-454.47 342.09,-456.13"/>
<polygon fill="midnightblue" stroke="midnightblue" points="340.82,-459.4 351.37,-460.29 343.68,-453.01 340.82,-459.4"/>
</g>
<!-- Node2&#45;&gt;Node11 -->
<g id="edge10" class="edge">
<title>Node2&#45;&gt;Node11</title>
<path fill="none" stroke="midnightblue" d="M245.16,-304.52C271.65,-337.22 332.28,-412.03 333,-412.5 336.17,-414.55 339.56,-416.38 343.07,-418.01"/>
<polygon fill="midnightblue" stroke="midnightblue" points="342.01,-421.35 352.59,-421.88 344.65,-414.87 342.01,-421.35"/>
</g>
<!-- Node2&#45;&gt;Node12 -->
<g id="edge11" class="edge">
<title>Node2&#45;&gt;Node12</title>
<path fill="none" stroke="midnightblue" d="M278.46,-274.32C285.41,-270.38 291.94,-265.51 297,-259.5 335.91,-213.33 290.36,-171.25 333,-128.5 335.68,-125.82 338.68,-123.48 341.9,-121.46"/>
<polygon fill="midnightblue" stroke="midnightblue" points="343.61,-124.51 350.86,-116.78 340.38,-118.31 343.61,-124.51"/>
</g>
<!-- Node2&#45;&gt;Node13 -->
<g id="edge12" class="edge">
<title>Node2&#45;&gt;Node13</title>
<path fill="none" stroke="midnightblue" d="M251.59,-274.32C265.98,-261.63 285.35,-242.29 297,-221.5 326.72,-168.45 291.49,-133.93 333,-89.5 335.03,-87.32 337.26,-85.34 339.64,-83.52"/>
<polygon fill="midnightblue" stroke="midnightblue" points="341.71,-86.35 348.23,-78 337.93,-80.47 341.71,-86.35"/>
</g>
<!-- Node16 -->
<g id="node16" class="node">
<title>Node16</title>
<g id="a_node16"><a xlink:href="namespaceutil_1_1io.html#a578a578ce41389fb01e56de7316b7054" target="_top" xlink:title="Prints formatted information.">
<polygon fill="none" stroke="black" points="558,-162 558,-181 626,-181 626,-162 558,-162"/>
<text text-anchor="middle" x="592" y="-169" font-family="Arial" font-size="10.00">util::io::print</text>
</a>
</g>
</g>
<!-- Node2&#45;&gt;Node16 -->
<g id="edge18" class="edge">
<title>Node2&#45;&gt;Node16</title>
<path fill="none" stroke="midnightblue" d="M272.13,-274.46C280.74,-270.27 289.51,-265.26 297,-259.5 316.75,-244.3 311.41,-228.95 333,-216.5 368.82,-195.84 483.96,-181.82 547.64,-175.44"/>
<polygon fill="midnightblue" stroke="midnightblue" points="548.17,-178.9 557.78,-174.44 547.48,-171.94 548.17,-178.9"/>
</g>
<!-- Node2&#45;&gt;Node22 -->
<g id="edge19" class="edge">
<title>Node2&#45;&gt;Node22</title>
<path fill="none" stroke="midnightblue" d="M244.06,-274.47C258.21,-254.59 282.61,-218.03 297,-183.5 322.21,-123.01 288.73,-88.83 333,-40.5 336.59,-36.58 340.84,-33.27 345.43,-30.48"/>
<polygon fill="midnightblue" stroke="midnightblue" points="347.36,-33.43 354.64,-25.73 344.15,-27.21 347.36,-33.43"/>
</g>
<!-- Node23 -->
<g id="node20" class="node">
<title>Node23</title>
<g id="a_node20"><a xlink:href="namespaceproblem__setup.html#ad4d4b3139613a4ea00dadf8eb7c60a88" target="_top" xlink:title=" ">
<polygon fill="none" stroke="black" points="354,-274.5 354,-304.5 458,-304.5 458,-274.5 354,-274.5"/>
<text text-anchor="start" x="362" y="-292.5" font-family="Arial" font-size="10.00">problem_setup.write</text>
<text text-anchor="middle" x="406" y="-281.5" font-family="Arial" font-size="10.00">_contact_zone_part</text>
</a>
</g>
</g>
<!-- Node2&#45;&gt;Node23 -->
<g id="edge20" class="edge">
<title>Node2&#45;&gt;Node23</title>
<path fill="none" stroke="midnightblue" d="M287.42,-289.5C305.36,-289.5 325.42,-289.5 343.83,-289.5"/>
<polygon fill="midnightblue" stroke="midnightblue" points="343.86,-293 353.86,-289.5 343.86,-286 343.86,-293"/>
</g>
<!-- Node24 -->
<g id="node21" class="node">
<title>Node24</title>
<g id="a_node21"><a xlink:href="namespaceproblem__setup.html#a3b2a9fc19652f44b774b4bb9a8221265" target="_top" xlink:title=" ">
<polygon fill="none" stroke="black" points="354,-225.5 354,-255.5 458,-255.5 458,-225.5 354,-225.5"/>
<text text-anchor="start" x="362" y="-243.5" font-family="Arial" font-size="10.00">problem_setup.write</text>
<text text-anchor="middle" x="406" y="-232.5" font-family="Arial" font-size="10.00">_material_zone_part</text>
</a>
</g>
</g>
<!-- Node2&#45;&gt;Node24 -->
<g id="edge21" class="edge">
<title>Node2&#45;&gt;Node24</title>
<path fill="none" stroke="midnightblue" d="M286.01,-274.4C304.42,-269.15 325.2,-263.23 344.19,-257.82"/>
<polygon fill="midnightblue" stroke="midnightblue" points="345.28,-261.15 353.93,-255.05 343.36,-254.42 345.28,-261.15"/>
</g>
<!-- Node5 -->
<g id="node5" class="node">
<title>Node5</title>
<g id="a_node5"><a xlink:href="namespaceproblem__setup.html#a700be09e5b12da02f5d11c0d21cf5d5b" target="_top" xlink:title=" ">
<polygon fill="none" stroke="black" points="535.5,-323.5 535.5,-353.5 648.5,-353.5 648.5,-323.5 535.5,-323.5"/>
<text text-anchor="start" x="543.5" y="-341.5" font-family="Arial" font-size="10.00">problem_setup.get_ref</text>
<text text-anchor="middle" x="592" y="-330.5" font-family="Arial" font-size="10.00">_drum_points</text>
</a>
</g>
</g>
<!-- Node4&#45;&gt;Node5 -->
<g id="edge4" class="edge">
<title>Node4&#45;&gt;Node5</title>
<path fill="none" stroke="midnightblue" d="M479.19,-338.5C494.33,-338.5 510.21,-338.5 525.1,-338.5"/>
<polygon fill="midnightblue" stroke="midnightblue" points="525.23,-342 535.23,-338.5 525.23,-335 525.23,-342"/>
</g>
<!-- Node6 -->
<g id="node6" class="node">
<title>Node6</title>
<g id="a_node6"><a xlink:href="namespaceproblem__setup.html#a192b6d085d04429814f30104aeb18493" target="_top" xlink:title=" ">
<polygon fill="none" stroke="black" points="706.5,-408 706.5,-427 814.5,-427 814.5,-408 706.5,-408"/>
<text text-anchor="middle" x="760.5" y="-415" font-family="Arial" font-size="10.00">problem_setup.rotate</text>
</a>
</g>
</g>
<!-- Node5&#45;&gt;Node6 -->
<g id="edge5" class="edge">
<title>Node5&#45;&gt;Node6</title>
<path fill="none" stroke="midnightblue" d="M643.88,-353.51C652.39,-356.51 661.04,-359.87 669,-363.5 693.24,-374.56 719.19,-390.51 737.05,-402.21"/>
<polygon fill="midnightblue" stroke="midnightblue" points="735.34,-405.27 745.61,-407.89 739.21,-399.44 735.34,-405.27"/>
</g>
<!-- Node8 -->
<g id="node8" class="node">
<title>Node8</title>
<g id="a_node8"><a xlink:href="namespaceproblem__setup.html#ac4731e8b5a85713f528c4c79651768ac" target="_top" xlink:title=" ">
<polygon fill="none" stroke="black" points="535.5,-372.5 535.5,-402.5 648.5,-402.5 648.5,-372.5 535.5,-372.5"/>
<text text-anchor="start" x="543.5" y="-390.5" font-family="Arial" font-size="10.00">problem_setup.get_ref</text>
<text text-anchor="middle" x="592" y="-379.5" font-family="Arial" font-size="10.00">_triangle_points</text>
</a>
</g>
</g>
<!-- Node7&#45;&gt;Node8 -->
<g id="edge7" class="edge">
<title>Node7&#45;&gt;Node8</title>
<path fill="none" stroke="midnightblue" d="M467.25,-387.5C485.82,-387.5 506.35,-387.5 525.27,-387.5"/>
<polygon fill="midnightblue" stroke="midnightblue" points="525.29,-391 535.29,-387.5 525.29,-384 525.29,-391"/>
</g>
<!-- Node14 -->
<g id="node14" class="node">
<title>Node14</title>
<g id="a_node14"><a xlink:href="namespaceproblem__setup.html#a49682af72cdc7bca4f282619eb559d90" target="_top" xlink:title=" ">
<polygon fill="none" stroke="black" points="515,-27.5 515,-57.5 669,-57.5 669,-27.5 515,-27.5"/>
<text text-anchor="start" x="523" y="-45.5" font-family="Arial" font-size="10.00">problem_setup.does</text>
<text text-anchor="middle" x="592" y="-34.5" font-family="Arial" font-size="10.00">_intersect_with_cylindrical_wall</text>
</a>
</g>
</g>
<!-- Node13&#45;&gt;Node14 -->
<g id="edge13" class="edge">
<title>Node13&#45;&gt;Node14</title>
<path fill="none" stroke="midnightblue" d="M463.71,-57.72C476.71,-56.17 490.82,-54.48 504.75,-52.81"/>
<polygon fill="midnightblue" stroke="midnightblue" points="505.33,-56.27 514.84,-51.61 504.5,-49.32 505.33,-56.27"/>
</g>
<!-- Node15 -->
<g id="node15" class="node">
<title>Node15</title>
<g id="a_node15"><a xlink:href="namespaceproblem__setup.html#aa39e6862e38920798278f55a2578a6ef" target="_top" xlink:title=" ">
<polygon fill="none" stroke="black" points="531.5,-77 531.5,-96 652.5,-96 652.5,-77 531.5,-77"/>
<text text-anchor="middle" x="592" y="-84" font-family="Arial" font-size="10.00">problem_setup.get_max</text>
</a>
</g>
</g>
<!-- Node13&#45;&gt;Node15 -->
<g id="edge14" class="edge">
<title>Node13&#45;&gt;Node15</title>
<path fill="none" stroke="midnightblue" d="M463.71,-71.28C481.88,-73.45 502.21,-75.88 521.2,-78.15"/>
<polygon fill="midnightblue" stroke="midnightblue" points="520.95,-81.65 531.29,-79.36 521.78,-74.7 520.95,-81.65"/>
</g>
<!-- Node13&#45;&gt;Node16 -->
<g id="edge15" class="edge">
<title>Node13&#45;&gt;Node16</title>
<path fill="none" stroke="midnightblue" d="M456.62,-79.54C464.28,-82.48 471.97,-85.81 479,-89.5 514.61,-108.18 551.38,-137.34 572.67,-155.39"/>
<polygon fill="midnightblue" stroke="midnightblue" points="570.42,-158.07 580.29,-161.94 574.99,-152.77 570.42,-158.07"/>
</g>
<!-- Node17 -->
<g id="node17" class="node">
<title>Node17</title>
<g id="a_node17"><a xlink:href="namespaceutil_1_1parallel.html#adb80f14125b7556bb478cc3725508fa8" target="_top" xlink:title="get rank (id) of this processor">
<polygon fill="none" stroke="red" points="705,-143 705,-162 816,-162 816,-143 705,-143"/>
<text text-anchor="middle" x="760.5" y="-150" font-family="Arial" font-size="10.00">util::parallel::mpiRank</text>
</a>
</g>
</g>
<!-- Node16&#45;&gt;Node17 -->
<g id="edge16" class="edge">
<title>Node16&#45;&gt;Node17</title>
<path fill="none" stroke="midnightblue" d="M626.29,-167.7C645.89,-165.46 671.34,-162.56 694.73,-159.89"/>
<polygon fill="midnightblue" stroke="midnightblue" points="695.42,-163.33 704.96,-158.72 694.63,-156.38 695.42,-163.33"/>
</g>
<!-- Node20 -->
<g id="node18" class="node">
<title>Node20</title>
<g id="a_node18"><a xlink:href="namespaceutil_1_1io.html#a3e537e3bd778616255015cde6e60a30a" target="_top" xlink:title="Returns formatted string for output.">
<polygon fill="none" stroke="red" points="720.5,-181 720.5,-200 800.5,-200 800.5,-181 720.5,-181"/>
<text text-anchor="middle" x="760.5" y="-188" font-family="Arial" font-size="10.00">util::io::printStr</text>
</a>
</g>
</g>
<!-- Node16&#45;&gt;Node20 -->
<g id="edge17" class="edge">
<title>Node16&#45;&gt;Node20</title>
<path fill="none" stroke="midnightblue" d="M626.29,-175.3C650.36,-178.05 683.27,-181.8 710.35,-184.89"/>
<polygon fill="midnightblue" stroke="midnightblue" points="710.08,-188.38 720.42,-186.04 710.88,-181.43 710.08,-188.38"/>
</g>
<!-- Node26 -->
<g id="node23" class="node">
<title>Node26</title>
<g id="a_node23"><a xlink:href="namespaceproblem__setup.html#a8e552b0e3bb3bde7c390d6906dbe88cd" target="_top" xlink:title=" ">
<polygon fill="none" stroke="black" points="535.5,-481.5 535.5,-511.5 648.5,-511.5 648.5,-481.5 535.5,-481.5"/>
<text text-anchor="start" x="543.5" y="-499.5" font-family="Arial" font-size="10.00">problem_setup.get_ref</text>
<text text-anchor="middle" x="592" y="-488.5" font-family="Arial" font-size="10.00">_hex_points</text>
</a>
</g>
</g>
<!-- Node25&#45;&gt;Node26 -->
<g id="edge24" class="edge">
<title>Node25&#45;&gt;Node26</title>
<path fill="none" stroke="midnightblue" d="M297.13,-552.09C347.17,-552.81 418.16,-550.94 479,-538.5 503.06,-533.58 528.8,-524.24 549.52,-515.62"/>
<polygon fill="midnightblue" stroke="midnightblue" points="551.14,-518.73 558.97,-511.59 548.39,-512.29 551.14,-518.73"/>
</g>
<!-- Node26&#45;&gt;Node6 -->
<g id="edge25" class="edge">
<title>Node26&#45;&gt;Node6</title>
<path fill="none" stroke="midnightblue" d="M624.71,-481.45C655.06,-467.06 700.47,-445.51 730.04,-431.48"/>
<polygon fill="midnightblue" stroke="midnightblue" points="731.89,-434.48 739.42,-427.03 728.89,-428.15 731.89,-434.48"/>
</g>
</g>
</svg>
