<?xml version="1.0" encoding="UTF-8" standalone="no"?>
<!DOCTYPE svg PUBLIC "-//W3C//DTD SVG 1.1//EN"
 "http://www.w3.org/Graphics/SVG/1.1/DTD/svg11.dtd">
<!-- Generated by graphviz version 2.43.0 (0)
 -->
<!-- Title: gmsh_particles.open_rectangle_mesh Pages: 1 -->
<svg width="283pt" height="161pt"
 viewBox="0.00 0.00 283.00 160.50" xmlns="http://www.w3.org/2000/svg" xmlns:xlink="http://www.w3.org/1999/xlink">
<g id="graph0" class="graph" transform="scale(1 1) rotate(0) translate(4 156.5)">
<title>gmsh_particles.open_rectangle_mesh</title>
<!-- Node1 -->
<g id="Node000001" class="node">
<title>Node1</title>
<g id="a_Node000001"><a xlink:title=" ">
<polygon fill="#999999" stroke="#666666" points="107,-82.5 0,-82.5 0,-52.5 107,-52.5 107,-82.5"/>
<text text-anchor="start" x="8" y="-70.5" font-family="Arial" font-size="10.00">gmsh_particles.open</text>
<text text-anchor="middle" x="53.5" y="-59.5" font-family="Arial" font-size="10.00">_rectangle_mesh</text>
</a>
</g>
</g>
<!-- Node2 -->
<g id="Node000002" class="node">
<title>Node2</title>
<g id="a_Node000002"><a xlink:href="namespacegeom__util.html#a13f030c6d181d0210c230fc01e33331c" target="_top" xlink:title=" ">
<polygon fill="white" stroke="#666666" points="272.5,-152.5 145.5,-152.5 145.5,-122.5 272.5,-122.5 272.5,-152.5"/>
<text text-anchor="start" x="153.5" y="-140.5" font-family="Arial" font-size="10.00">geom_util.check_hanging</text>
<text text-anchor="middle" x="209" y="-129.5" font-family="Arial" font-size="10.00">_nodes</text>
</a>
</g>
</g>
<!-- Node1&#45;&gt;Node2 -->
<g id="edge1_Node000001_Node000002" class="edge">
<title>Node1&#45;&gt;Node2</title>
<g id="a_edge1_Node000001_Node000002"><a xlink:title=" ">
<path fill="none" stroke="#63b8ff" d="M81.57,-82.7C98.87,-92.13 121.94,-104.18 143,-113.5 146.9,-115.22 150.96,-116.93 155.07,-118.59"/>
<polygon fill="#63b8ff" stroke="#63b8ff" points="154.1,-121.97 164.69,-122.37 156.66,-115.46 154.1,-121.97"/>
</a>
</g>
</g>
<!-- Node3 -->
<g id="Node000003" class="node">
<title>Node3</title>
<g id="a_Node000003"><a xlink:href="namespacegeom__util.html#a4cff2d2279e07cecdbff9c469cadc986" target="_top" xlink:title=" ">
<polygon fill="white" stroke="#666666" points="261,-104.5 157,-104.5 157,-74.5 261,-74.5 261,-104.5"/>
<text text-anchor="start" x="165" y="-92.5" font-family="Arial" font-size="10.00">geom_util.get_gmsh</text>
<text text-anchor="middle" x="209" y="-81.5" font-family="Arial" font-size="10.00">_entities</text>
</a>
</g>
</g>
<!-- Node1&#45;&gt;Node3 -->
<g id="edge2_Node000001_Node000003" class="edge">
<title>Node1&#45;&gt;Node3</title>
<g id="a_edge2_Node000001_Node000003"><a xlink:title=" ">
<path fill="none" stroke="#63b8ff" d="M107.33,-75.07C119.99,-76.89 133.61,-78.84 146.62,-80.7"/>
<polygon fill="#63b8ff" stroke="#63b8ff" points="146.5,-84.22 156.89,-82.18 147.49,-77.29 146.5,-84.22"/>
</a>
</g>
</g>
<!-- Node4 -->
<g id="Node000004" class="node">
<title>Node4</title>
<g id="a_Node000004"><a xlink:href="namespacegeom__util.html#a4da92e283f0d3adaeec14f498c0f2c10" target="_top" xlink:title=" ">
<polygon fill="white" stroke="#666666" points="275,-56 143,-56 143,-37 275,-37 275,-56"/>
<text text-anchor="middle" x="209" y="-44" font-family="Arial" font-size="10.00">geom_util.gmsh_transform</text>
</a>
</g>
</g>
<!-- Node1&#45;&gt;Node4 -->
<g id="edge3_Node000001_Node000004" class="edge">
<title>Node1&#45;&gt;Node4</title>
<g id="a_edge3_Node000001_Node000004"><a xlink:title=" ">
<path fill="none" stroke="#63b8ff" d="M107.33,-60.27C115.55,-59.15 124.19,-57.97 132.8,-56.79"/>
<polygon fill="#63b8ff" stroke="#63b8ff" points="133.43,-60.23 142.87,-55.41 132.49,-53.3 133.43,-60.23"/>
</a>
</g>
</g>
<!-- Node5 -->
<g id="Node000005" class="node">
<title>Node5</title>
<g id="a_Node000005"><a xlink:href="namespacegeom__util.html#a0402fa3ab58c62403ff40506f3453665" target="_top" xlink:title=" ">
<polygon fill="white" stroke="#666666" points="273,-19 145,-19 145,0 273,0 273,-19"/>
<text text-anchor="middle" x="209" y="-7" font-family="Arial" font-size="10.00">geom_util.gmsh_translate</text>
</a>
</g>
</g>
<!-- Node1&#45;&gt;Node5 -->
<g id="edge4_Node000001_Node000005" class="edge">
<title>Node1&#45;&gt;Node5</title>
<g id="a_edge4_Node000001_Node000005"><a xlink:title=" ">
<path fill="none" stroke="#63b8ff" d="M86.04,-52.4C102.75,-44.71 123.76,-35.52 143,-28.5 149.31,-26.2 156.04,-23.98 162.68,-21.92"/>
<polygon fill="#63b8ff" stroke="#63b8ff" points="163.74,-25.26 172.31,-19.02 161.72,-18.55 163.74,-25.26"/>
</a>
</g>
</g>
</g>
</svg>
