<?xml version="1.0" encoding="UTF-8" standalone="no"?>
<!DOCTYPE svg PUBLIC "-//W3C//DTD SVG 1.1//EN"
 "http://www.w3.org/Graphics/SVG/1.1/DTD/svg11.dtd">
<!-- Generated by graphviz version 2.43.0 (0)
 -->
<!-- Title: util.generate_drum_gmsh_input Pages: 1 -->
<svg width="491pt" height="175pt"
 viewBox="0.00 0.00 491.00 175.00" xmlns="http://www.w3.org/2000/svg" xmlns:xlink="http://www.w3.org/1999/xlink">
<g id="graph0" class="graph" transform="scale(1 1) rotate(0) translate(4 171)">
<title>util.generate_drum_gmsh_input</title>
<!-- Node1 -->
<g id="Node000001" class="node">
<title>Node1</title>
<g id="a_Node000001"><a xlink:title=" ">
<polygon fill="#999999" stroke="#666666" points="97,-98.5 0,-98.5 0,-68.5 97,-68.5 97,-98.5"/>
<text text-anchor="start" x="8" y="-86.5" font-family="Arial" font-size="10.00">util.generate_drum</text>
<text text-anchor="middle" x="48.5" y="-75.5" font-family="Arial" font-size="10.00">_gmsh_input</text>
</a>
</g>
</g>
<!-- Node2 -->
<g id="Node000002" class="node">
<title>Node2</title>
<g id="a_Node000002"><a xlink:href="namespaceutil.html#a49cf9c01906d3b382dcf78354ee99d38" target="_top" xlink:title=" ">
<polygon fill="white" stroke="#666666" points="254,-167 133,-167 133,-148 254,-148 254,-167"/>
<text text-anchor="middle" x="193.5" y="-155" font-family="Arial" font-size="10.00">util.get_ref_drum_points</text>
</a>
</g>
</g>
<!-- Node1&#45;&gt;Node2 -->
<g id="edge1_Node000001_Node000002" class="edge">
<title>Node1&#45;&gt;Node2</title>
<g id="a_edge1_Node000001_Node000002"><a xlink:title=" ">
<path fill="none" stroke="#63b8ff" d="M68.42,-98.59C84.74,-110.99 109.34,-128.29 133,-139.5 136.84,-141.32 140.91,-143 145.04,-144.55"/>
<polygon fill="#63b8ff" stroke="#63b8ff" points="144.13,-147.94 154.73,-147.92 146.43,-141.33 144.13,-147.94"/>
</a>
</g>
</g>
<!-- Node5 -->
<g id="Node000005" class="node">
<title>Node5</title>
<g id="a_Node000005"><a xlink:href="namespaceutil.html#a99247323274787b4907a50a62cc4705d" target="_top" xlink:title=" ">
<polygon fill="white" stroke="#666666" points="240,-130 147,-130 147,-111 240,-111 240,-130"/>
<text text-anchor="middle" x="193.5" y="-118" font-family="Arial" font-size="10.00">util.gmsh_file_hdr</text>
</a>
</g>
</g>
<!-- Node1&#45;&gt;Node5 -->
<g id="edge4_Node000001_Node000005" class="edge">
<title>Node1&#45;&gt;Node5</title>
<g id="a_edge4_Node000001_Node000005"><a xlink:title=" ">
<path fill="none" stroke="#63b8ff" d="M97.12,-95.82C112.71,-99.86 130.02,-104.33 145.57,-108.36"/>
<polygon fill="#63b8ff" stroke="#63b8ff" points="144.93,-111.81 155.49,-110.92 146.69,-105.03 144.93,-111.81"/>
</a>
</g>
</g>
<!-- Node6 -->
<g id="Node000006" class="node">
<title>Node6</title>
<g id="a_Node000006"><a xlink:href="namespaceutil.html#a030bf07c9f1c34efa9a2543854fa35d0" target="_top" xlink:title=" ">
<polygon fill="white" stroke="#666666" points="244,-93 143,-93 143,-74 244,-74 244,-93"/>
<text text-anchor="middle" x="193.5" y="-81" font-family="Arial" font-size="10.00">util.print_line_gmsh</text>
</a>
</g>
</g>
<!-- Node1&#45;&gt;Node6 -->
<g id="edge5_Node000001_Node000006" class="edge">
<title>Node1&#45;&gt;Node6</title>
<g id="a_edge5_Node000001_Node000006"><a xlink:title=" ">
<path fill="none" stroke="#63b8ff" d="M97.12,-83.5C108.43,-83.5 120.64,-83.5 132.43,-83.5"/>
<polygon fill="#63b8ff" stroke="#63b8ff" points="132.64,-87 142.64,-83.5 132.64,-80 132.64,-87"/>
</a>
</g>
</g>
<!-- Node8 -->
<g id="Node000008" class="node">
<title>Node8</title>
<g id="a_Node000008"><a xlink:href="namespaceutil.html#ad330a2711f9cfe26b62874d934d7a299" target="_top" xlink:title=" ">
<polygon fill="white" stroke="#666666" points="253,-56 134,-56 134,-37 253,-37 253,-56"/>
<text text-anchor="middle" x="193.5" y="-44" font-family="Arial" font-size="10.00">util.print_lineloop_gmsh</text>
</a>
</g>
</g>
<!-- Node1&#45;&gt;Node8 -->
<g id="edge7_Node000001_Node000008" class="edge">
<title>Node1&#45;&gt;Node8</title>
<g id="a_edge7_Node000001_Node000008"><a xlink:title=" ">
<path fill="none" stroke="#63b8ff" d="M97.12,-71.18C112.71,-67.14 130.02,-62.67 145.57,-58.64"/>
<polygon fill="#63b8ff" stroke="#63b8ff" points="146.69,-61.97 155.49,-56.08 144.93,-55.19 146.69,-61.97"/>
</a>
</g>
</g>
<!-- Node9 -->
<g id="Node000009" class="node">
<title>Node9</title>
<g id="a_Node000009"><a xlink:href="namespaceutil.html#a19a2805176f8a96585bbec20c405765e" target="_top" xlink:title=" ">
<polygon fill="white" stroke="#666666" points="247,-19 140,-19 140,0 247,0 247,-19"/>
<text text-anchor="middle" x="193.5" y="-7" font-family="Arial" font-size="10.00">util.print_point_gmsh</text>
</a>
</g>
</g>
<!-- Node1&#45;&gt;Node9 -->
<g id="edge9_Node000001_Node000009" class="edge">
<title>Node1&#45;&gt;Node9</title>
<g id="a_edge9_Node000001_Node000009"><a xlink:title=" ">
<path fill="none" stroke="#63b8ff" d="M68.42,-68.41C84.74,-56.01 109.34,-38.71 133,-27.5 136.84,-25.68 140.91,-24 145.04,-22.45"/>
<polygon fill="#63b8ff" stroke="#63b8ff" points="146.43,-25.67 154.73,-19.08 144.13,-19.06 146.43,-25.67"/>
</a>
</g>
</g>
<!-- Node3 -->
<g id="Node000003" class="node">
<title>Node3</title>
<g id="a_Node000003"><a xlink:href="namespaceutil.html#afc570d133c5159571a48456e2440753a" target="_top" xlink:title="Returns the vector after rotating by desired angle.">
<polygon fill="white" stroke="#666666" points="354.5,-167 294.5,-167 294.5,-148 354.5,-148 354.5,-167"/>
<text text-anchor="middle" x="324.5" y="-155" font-family="Arial" font-size="10.00">util::rotate</text>
</a>
</g>
</g>
<!-- Node2&#45;&gt;Node3 -->
<g id="edge2_Node000002_Node000003" class="edge">
<title>Node2&#45;&gt;Node3</title>
<g id="a_edge2_Node000002_Node000003"><a xlink:title=" ">
<path fill="none" stroke="#63b8ff" d="M254.09,-157.5C264.26,-157.5 274.59,-157.5 284.07,-157.5"/>
<polygon fill="#63b8ff" stroke="#63b8ff" points="284.35,-161 294.35,-157.5 284.35,-154 284.35,-161"/>
</a>
</g>
</g>
<!-- Node4 -->
<g id="Node000004" class="node">
<title>Node4</title>
<g id="a_Node000004"><a xlink:href="structutil_1_1Point.html#a8c5530ee2dac6fa26f88be0de91543f7" target="_top" xlink:title="Computes the cross product between this vector and given vector.">
<polygon fill="white" stroke="#666666" points="483,-167 395,-167 395,-148 483,-148 483,-167"/>
<text text-anchor="middle" x="439" y="-155" font-family="Arial" font-size="10.00">util::Point::cross</text>
</a>
</g>
</g>
<!-- Node3&#45;&gt;Node4 -->
<g id="edge3_Node000003_Node000004" class="edge">
<title>Node3&#45;&gt;Node4</title>
<g id="a_edge3_Node000003_Node000004"><a xlink:title=" ">
<path fill="none" stroke="#63b8ff" d="M354.76,-157.5C363.94,-157.5 374.38,-157.5 384.68,-157.5"/>
<polygon fill="#63b8ff" stroke="#63b8ff" points="384.89,-161 394.89,-157.5 384.89,-154 384.89,-161"/>
</a>
</g>
</g>
<!-- Node7 -->
<g id="Node000007" class="node">
<title>Node7</title>
<g id="a_Node000007"><a xlink:href="namespaceutil.html#a9ece00bdfa36ec661ae172119c1a2064" target="_top" xlink:title=" ">
<polygon fill="white" stroke="#666666" points="359,-56 290,-56 290,-37 359,-37 359,-56"/>
<text text-anchor="middle" x="324.5" y="-44" font-family="Arial" font-size="10.00">util.print_list</text>
</a>
</g>
</g>
<!-- Node6&#45;&gt;Node7 -->
<g id="edge6_Node000006_Node000007" class="edge">
<title>Node6&#45;&gt;Node7</title>
<g id="a_edge6_Node000006_Node000007"><a xlink:title=" ">
<path fill="none" stroke="#63b8ff" d="M227.72,-73.97C243.7,-69.39 263.05,-63.84 280.17,-58.93"/>
<polygon fill="#63b8ff" stroke="#63b8ff" points="281.3,-62.25 289.94,-56.12 279.37,-55.52 281.3,-62.25"/>
</a>
</g>
</g>
<!-- Node8&#45;&gt;Node7 -->
<g id="edge8_Node000008_Node000007" class="edge">
<title>Node8&#45;&gt;Node7</title>
<g id="a_edge8_Node000008_Node000007"><a xlink:title=" ">
<path fill="none" stroke="#63b8ff" d="M253.34,-46.5C262.22,-46.5 271.24,-46.5 279.73,-46.5"/>
<polygon fill="#63b8ff" stroke="#63b8ff" points="279.78,-50 289.78,-46.5 279.78,-43 279.78,-50"/>
</a>
</g>
</g>
<!-- Node9&#45;&gt;Node7 -->
<g id="edge10_Node000009_Node000007" class="edge">
<title>Node9&#45;&gt;Node7</title>
<g id="a_edge10_Node000009_Node000007"><a xlink:title=" ">
<path fill="none" stroke="#63b8ff" d="M227.72,-19.03C243.7,-23.61 263.05,-29.16 280.17,-34.07"/>
<polygon fill="#63b8ff" stroke="#63b8ff" points="279.37,-37.48 289.94,-36.88 281.3,-30.75 279.37,-37.48"/>
</a>
</g>
</g>
</g>
</svg>
