<?xml version="1.0" encoding="UTF-8" standalone="no"?>
<!DOCTYPE svg PUBLIC "-//W3C//DTD SVG 1.1//EN"
 "http://www.w3.org/Graphics/SVG/1.1/DTD/svg11.dtd">
<!-- Generated by graphviz version 2.43.0 (0)
 -->
<!-- Title: anonymous_namespace{particleULoading::cpp}::isInList Pages: 1 -->
<svg width="294pt" height="88pt"
 viewBox="0.00 0.00 294.00 88.00" xmlns="http://www.w3.org/2000/svg" xmlns:xlink="http://www.w3.org/1999/xlink">
<g id="graph0" class="graph" transform="scale(1 1) rotate(0) translate(4 84)">
<title>anonymous_namespace{particleULoading::cpp}::isInList</title>
<!-- Node1 -->
<g id="node1" class="node">
<title>Node1</title>
<g id="a_node1"><a xlink:title=" ">
<polygon fill="#bfbfbf" stroke="black" points="164,-19 164,-60 286,-60 286,-19 164,-19"/>
<text text-anchor="start" x="172" y="-48" font-family="Arial" font-size="10.00">anonymous_namespace</text>
<text text-anchor="start" x="172" y="-37" font-family="Arial" font-size="10.00">{particleULoading::cpp}</text>
<text text-anchor="middle" x="225" y="-26" font-family="Arial" font-size="10.00">::isInList</text>
</a>
</g>
</g>
<!-- Node2 -->
<g id="node2" class="node">
<title>Node2</title>
<g id="a_node2"><a xlink:href="classloading_1_1ParticleULoading.html#a663961c0c7f54351ff66e90b9efe9e19" target="_top" xlink:title="Function that checks if we need to do computation at a given point x within a particle with id = id.">
<polygon fill="none" stroke="black" points="0,-49.5 0,-79.5 128,-79.5 128,-49.5 0,-49.5"/>
<text text-anchor="start" x="8" y="-67.5" font-family="Arial" font-size="10.00">loading::ParticleULoading</text>
<text text-anchor="middle" x="64" y="-56.5" font-family="Arial" font-size="10.00">::needToComputeDof</text>
</a>
</g>
</g>
<!-- Node1&#45;&gt;Node2 -->
<g id="edge1" class="edge">
<title>Node1&#45;&gt;Node2</title>
<path fill="none" stroke="midnightblue" d="M153.9,-50.52C145.32,-51.87 136.58,-53.24 128.11,-54.58"/>
<polygon fill="midnightblue" stroke="midnightblue" points="154.55,-53.96 163.89,-48.95 153.47,-47.05 154.55,-53.96"/>
</g>
<!-- Node3 -->
<g id="node3" class="node">
<title>Node3</title>
<g id="a_node3"><a xlink:href="classloading_1_1ParticleULoading.html#a0493b74f633500f4635f46f396e4da22" target="_top" xlink:title="Function that checks if given particle with id = id needs to be processed within boundary condition d...">
<polygon fill="none" stroke="black" points="0,-0.5 0,-30.5 128,-30.5 128,-0.5 0,-0.5"/>
<text text-anchor="start" x="8" y="-18.5" font-family="Arial" font-size="10.00">loading::ParticleULoading</text>
<text text-anchor="middle" x="64" y="-7.5" font-family="Arial" font-size="10.00">::needToProcessParticle</text>
</a>
</g>
</g>
<!-- Node1&#45;&gt;Node3 -->
<g id="edge2" class="edge">
<title>Node1&#45;&gt;Node3</title>
<path fill="none" stroke="midnightblue" d="M153.9,-28.92C145.32,-27.62 136.58,-26.31 128.11,-25.03"/>
<polygon fill="midnightblue" stroke="midnightblue" points="153.48,-32.39 163.89,-30.43 154.52,-25.47 153.48,-32.39"/>
</g>
</g>
</svg>
