<?xml version="1.0" encoding="UTF-8" standalone="no"?>
<!DOCTYPE svg PUBLIC "-//W3C//DTD SVG 1.1//EN"
 "http://www.w3.org/Graphics/SVG/1.1/DTD/svg11.dtd">
<!-- Generated by graphviz version 2.43.0 (0)
 -->
<!-- Title: anonymous_namespace{main::cpp}::generateParticleLocations Pages: 1 -->
<svg width="350pt" height="86pt"
 viewBox="0.00 0.00 350.00 86.00" xmlns="http://www.w3.org/2000/svg" xmlns:xlink="http://www.w3.org/1999/xlink">
<g id="graph0" class="graph" transform="scale(1 1) rotate(0) translate(4 82)">
<title>anonymous_namespace{main::cpp}::generateParticleLocations</title>
<!-- Node1 -->
<g id="Node000001" class="node">
<title>Node1</title>
<g id="a_Node000001"><a xlink:title=" ">
<polygon fill="#999999" stroke="#666666" points="142,-59.5 0,-59.5 0,-18.5 142,-18.5 142,-59.5"/>
<text text-anchor="start" x="8" y="-47.5" font-family="Arial" font-size="10.00">anonymous_namespace</text>
<text text-anchor="start" x="8" y="-36.5" font-family="Arial" font-size="10.00">{main::cpp}::generateParticle</text>
<text text-anchor="middle" x="71" y="-25.5" font-family="Arial" font-size="10.00">Locations</text>
</a>
</g>
</g>
<!-- Node2 -->
<g id="Node000002" class="node">
<title>Node2</title>
<g id="a_Node000002"><a xlink:href="namespaceanonymous__namespace_02main_8cpp_03.html#a5ffa1ad7459dd9c7114a879beb41eeb6" target="_top" xlink:title=" ">
<polygon fill="white" stroke="#666666" points="342,-78 178,-78 178,-48 342,-48 342,-78"/>
<text text-anchor="start" x="186" y="-66" font-family="Arial" font-size="10.00">anonymous_namespace</text>
<text text-anchor="middle" x="260" y="-55" font-family="Arial" font-size="10.00">{main::cpp}::doesParticleIntersect</text>
</a>
</g>
</g>
<!-- Node1&#45;&gt;Node2 -->
<g id="edge1_Node000001_Node000002" class="edge">
<title>Node1&#45;&gt;Node2</title>
<g id="a_edge1_Node000001_Node000002"><a xlink:title=" ">
<path fill="none" stroke="#63b8ff" d="M142.16,-48C150.51,-49.08 159.11,-50.18 167.7,-51.28"/>
<polygon fill="#63b8ff" stroke="#63b8ff" points="167.38,-54.77 177.74,-52.57 168.27,-47.83 167.38,-54.77"/>
</a>
</g>
</g>
<!-- Node3 -->
<g id="Node000003" class="node">
<title>Node3</title>
<g id="a_Node000003"><a xlink:href="namespaceanonymous__namespace_02main_8cpp_03.html#ade049f1b5a2c4a380f26e344b79d9476" target="_top" xlink:title=" ">
<polygon fill="white" stroke="#666666" points="321,-30 199,-30 199,0 321,0 321,-30"/>
<text text-anchor="start" x="207" y="-18" font-family="Arial" font-size="10.00">anonymous_namespace</text>
<text text-anchor="middle" x="260" y="-7" font-family="Arial" font-size="10.00">{main::cpp}::maxElem</text>
</a>
</g>
</g>
<!-- Node1&#45;&gt;Node3 -->
<g id="edge2_Node000001_Node000003" class="edge">
<title>Node1&#45;&gt;Node3</title>
<g id="a_edge2_Node000001_Node000003"><a xlink:title=" ">
<path fill="none" stroke="#63b8ff" d="M142.16,-30C157.32,-28.05 173.35,-25.99 188.52,-24.05"/>
<polygon fill="#63b8ff" stroke="#63b8ff" points="189.39,-27.46 198.86,-22.72 188.5,-20.52 189.39,-27.46"/>
</a>
</g>
</g>
</g>
</svg>
