<?xml version="1.0" encoding="UTF-8" standalone="no"?>
<!DOCTYPE svg PUBLIC "-//W3C//DTD SVG 1.1//EN"
 "http://www.w3.org/Graphics/SVG/1.1/DTD/svg11.dtd">
<!-- Generated by graphviz version 2.43.0 (0)
 -->
<!-- Title: test::getNChooseR Pages: 1 -->
<svg width="471pt" height="88pt"
 viewBox="0.00 0.00 471.00 88.00" xmlns="http://www.w3.org/2000/svg" xmlns:xlink="http://www.w3.org/1999/xlink">
<g id="graph0" class="graph" transform="scale(1 1) rotate(0) translate(4 84)">
<title>test::getNChooseR</title>
<!-- Node1 -->
<g id="node1" class="node">
<title>Node1</title>
<g id="a_node1"><a xlink:title="Computes &#160;&quot;n choose r&quot;.">
<polygon fill="#bfbfbf" stroke="black" points="362,-30 362,-49 463,-49 463,-30 362,-30"/>
<text text-anchor="middle" x="412.5" y="-37" font-family="Arial" font-size="10.00">test::getNChooseR</text>
</a>
</g>
</g>
<!-- Node2 -->
<g id="node2" class="node">
<title>Node2</title>
<g id="a_node2"><a xlink:href="namespacetest.html#af43e065c49520ee624134a11bdfe3643" target="_top" xlink:title="Computes integration of polynomial exactly over reference tetrahedral.">
<polygon fill="none" stroke="black" points="202,-49.5 202,-79.5 326,-79.5 326,-49.5 202,-49.5"/>
<text text-anchor="start" x="210" y="-67.5" font-family="Arial" font-size="10.00">test::getExactIntegration</text>
<text text-anchor="middle" x="264" y="-56.5" font-family="Arial" font-size="10.00">RefTet</text>
</a>
</g>
</g>
<!-- Node1&#45;&gt;Node2 -->
<g id="edge1" class="edge">
<title>Node1&#45;&gt;Node2</title>
<path fill="none" stroke="midnightblue" d="M351.78,-49.69C343.36,-51.13 334.69,-52.61 326.24,-54.05"/>
<polygon fill="midnightblue" stroke="midnightblue" points="352.63,-53.1 361.9,-47.96 351.46,-46.2 352.63,-53.1"/>
</g>
<!-- Node5 -->
<g id="node5" class="node">
<title>Node5</title>
<g id="a_node5"><a xlink:href="namespacetest.html#a437c18b50b59ae2f9cd10e1cb51fba64" target="_top" xlink:title="Computes integration of polynomial exactly over reference triangle.">
<polygon fill="none" stroke="black" points="202,-0.5 202,-30.5 326,-30.5 326,-0.5 202,-0.5"/>
<text text-anchor="start" x="210" y="-18.5" font-family="Arial" font-size="10.00">test::getExactIntegration</text>
<text text-anchor="middle" x="264" y="-7.5" font-family="Arial" font-size="10.00">RefTri</text>
</a>
</g>
</g>
<!-- Node1&#45;&gt;Node5 -->
<g id="edge4" class="edge">
<title>Node1&#45;&gt;Node5</title>
<path fill="none" stroke="midnightblue" d="M351.78,-29.72C343.36,-28.34 334.69,-26.92 326.24,-25.53"/>
<polygon fill="midnightblue" stroke="midnightblue" points="351.47,-33.21 361.9,-31.37 352.6,-26.3 351.47,-33.21"/>
</g>
<!-- Node3 -->
<g id="node3" class="node">
<title>Node3</title>
<g id="a_node3"><a xlink:href="namespacetest.html#aa7c71a77ba3a1a442ebad77cbb0bc242" target="_top" xlink:title="Perform test on quadrature points on tetrahedral elements.">
<polygon fill="none" stroke="black" points="74,-52 74,-71 166,-71 166,-52 74,-52"/>
<text text-anchor="middle" x="120" y="-59" font-family="Arial" font-size="10.00">test::testTetElem</text>
</a>
</g>
</g>
<!-- Node2&#45;&gt;Node3 -->
<g id="edge2" class="edge">
<title>Node2&#45;&gt;Node3</title>
<path fill="none" stroke="midnightblue" d="M191.75,-62.99C183.03,-62.81 174.31,-62.63 166.12,-62.45"/>
<polygon fill="midnightblue" stroke="midnightblue" points="191.88,-66.5 201.96,-63.21 192.03,-59.5 191.88,-66.5"/>
</g>
<!-- Node4 -->
<g id="node4" class="node">
<title>Node4</title>
<g id="a_node4"><a xlink:href="testFe_8cpp.html#a0ddf1224851353fc92bfbff6f499fa97" target="_top" xlink:title=" ">
<polygon fill="none" stroke="black" points="0,-30 0,-49 38,-49 38,-30 0,-30"/>
<text text-anchor="middle" x="19" y="-37" font-family="Arial" font-size="10.00">main</text>
</a>
</g>
</g>
<!-- Node3&#45;&gt;Node4 -->
<g id="edge3" class="edge">
<title>Node3&#45;&gt;Node4</title>
<path fill="none" stroke="midnightblue" d="M66.37,-49.81C56.17,-47.54 46.15,-45.31 38.04,-43.51"/>
<polygon fill="midnightblue" stroke="midnightblue" points="65.63,-53.23 76.15,-51.98 67.15,-46.39 65.63,-53.23"/>
</g>
<!-- Node6 -->
<g id="node6" class="node">
<title>Node6</title>
<g id="a_node6"><a xlink:href="namespacetest.html#af81978a4250caac290f7d52c1e571f04" target="_top" xlink:title="Perform test on quadrature points on triangle elements.">
<polygon fill="none" stroke="black" points="75.5,-11 75.5,-30 164.5,-30 164.5,-11 75.5,-11"/>
<text text-anchor="middle" x="120" y="-18" font-family="Arial" font-size="10.00">test::testTriElem</text>
</a>
</g>
</g>
<!-- Node5&#45;&gt;Node6 -->
<g id="edge5" class="edge">
<title>Node5&#45;&gt;Node6</title>
<path fill="none" stroke="midnightblue" d="M191.95,-18C182.71,-18.33 173.46,-18.65 164.85,-18.96"/>
<polygon fill="midnightblue" stroke="midnightblue" points="192.08,-21.5 201.96,-17.65 191.84,-14.5 192.08,-21.5"/>
</g>
<!-- Node6&#45;&gt;Node4 -->
<g id="edge6" class="edge">
<title>Node6&#45;&gt;Node4</title>
<path fill="none" stroke="midnightblue" d="M65.45,-30.78C55.63,-32.66 46.03,-34.5 38.19,-36.01"/>
<polygon fill="midnightblue" stroke="midnightblue" points="66.13,-34.21 75.29,-28.89 64.81,-27.34 66.13,-34.21"/>
</g>
</g>
</svg>
