<?xml version="1.0" encoding="UTF-8" standalone="no"?>
<!DOCTYPE svg PUBLIC "-//W3C//DTD SVG 1.1//EN"
 "http://www.w3.org/Graphics/SVG/1.1/DTD/svg11.dtd">
<!-- Generated by graphviz version 2.43.0 (0)
 -->
<!-- Title: fe::getMaxShearStressAndLoc Pages: 1 -->
<svg width="860pt" height="38pt"
 viewBox="0.00 0.00 860.00 38.00" xmlns="http://www.w3.org/2000/svg" xmlns:xlink="http://www.w3.org/1999/xlink">
<g id="graph0" class="graph" transform="scale(1 1) rotate(0) translate(4 34)">
<title>fe::getMaxShearStressAndLoc</title>
<!-- Node1 -->
<g id="Node000001" class="node">
<title>Node1</title>
<g id="a_Node000001"><a xlink:title="Get location where maximum of specified component of stress occurs in this particle.">
<polygon fill="#999999" stroke="#666666" points="852,-24.5 702,-24.5 702,-5.5 852,-5.5 852,-24.5"/>
<text text-anchor="middle" x="777" y="-12.5" font-family="Arial" font-size="10.00">fe::getMaxShearStressAndLoc</text>
</a>
</g>
</g>
<!-- Node2 -->
<g id="Node000002" class="node">
<title>Node2</title>
<g id="a_Node000002"><a xlink:href="classtwoparticle__demo_1_1Model.html#ab8c38cc78c0c17a86f17dd6b477ecde0" target="_top" xlink:title="Computes maximum shear stress and its location in particle.">
<polygon fill="white" stroke="#666666" points="666,-30 503,-30 503,0 666,0 666,-30"/>
<text text-anchor="start" x="511" y="-18" font-family="Arial" font-size="10.00">twoparticle_demo::Model</text>
<text text-anchor="middle" x="584.5" y="-7" font-family="Arial" font-size="10.00">::twoParticleTestMaxShearStress</text>
</a>
</g>
</g>
<!-- Node1&#45;&gt;Node2 -->
<g id="edge1_Node000001_Node000002" class="edge">
<title>Node1&#45;&gt;Node2</title>
<g id="a_edge1_Node000001_Node000002"><a xlink:title=" ">
<path fill="none" stroke="#63b8ff" d="M691.56,-15C683.1,-15 674.53,-15 666.12,-15"/>
<polygon fill="#63b8ff" stroke="#63b8ff" points="691.8,-18.5 701.8,-15 691.8,-11.5 691.8,-18.5"/>
</a>
</g>
</g>
<!-- Node3 -->
<g id="Node000003" class="node">
<title>Node3</title>
<g id="a_Node000003"><a xlink:href="classtwoparticle__demo_1_1Model.html#a200a62053eadcf3d6f08a9f4a186ad59" target="_top" xlink:title="Handles postprocessing for two&#45;particle test.">
<polygon fill="white" stroke="#666666" points="467,-30 342,-30 342,0 467,0 467,-30"/>
<text text-anchor="start" x="350" y="-18" font-family="Arial" font-size="10.00">twoparticle_demo::Model</text>
<text text-anchor="middle" x="404.5" y="-7" font-family="Arial" font-size="10.00">::twoParticleTest</text>
</a>
</g>
</g>
<!-- Node2&#45;&gt;Node3 -->
<g id="edge2_Node000002_Node000003" class="edge">
<title>Node2&#45;&gt;Node3</title>
<g id="a_edge2_Node000002_Node000003"><a xlink:title=" ">
<path fill="none" stroke="#63b8ff" d="M492.71,-15C484.09,-15 475.48,-15 467.23,-15"/>
<polygon fill="#63b8ff" stroke="#63b8ff" points="492.83,-18.5 502.83,-15 492.83,-11.5 492.83,-18.5"/>
</a>
</g>
</g>
<!-- Node4 -->
<g id="Node000004" class="node">
<title>Node4</title>
<g id="a_Node000004"><a xlink:href="classtwoparticle__demo_1_1Model.html#a4edd5f54de8ea3e6e35391b134c642be" target="_top" xlink:title="Perform time step integration.">
<polygon fill="white" stroke="#666666" points="306,-30 181,-30 181,0 306,0 306,-30"/>
<text text-anchor="start" x="189" y="-18" font-family="Arial" font-size="10.00">twoparticle_demo::Model</text>
<text text-anchor="middle" x="243.5" y="-7" font-family="Arial" font-size="10.00">::integrate</text>
</a>
</g>
</g>
<!-- Node3&#45;&gt;Node4 -->
<g id="edge3_Node000003_Node000004" class="edge">
<title>Node3&#45;&gt;Node4</title>
<g id="a_edge3_Node000003_Node000004"><a xlink:title=" ">
<path fill="none" stroke="#63b8ff" d="M331.41,-15C323.01,-15 314.5,-15 306.26,-15"/>
<polygon fill="#63b8ff" stroke="#63b8ff" points="331.57,-18.5 341.57,-15 331.57,-11.5 331.57,-18.5"/>
</a>
</g>
</g>
<!-- Node5 -->
<g id="Node000005" class="node">
<title>Node5</title>
<g id="a_Node000005"><a xlink:href="classtwoparticle__demo_1_1Model.html#af741e660292b3c71c59277cbd1beb052" target="_top" xlink:title="Runs simulation by executing steps such as init(), integrate(), and close().">
<polygon fill="#fff0f0" stroke="red" points="145,-24.5 0,-24.5 0,-5.5 145,-5.5 145,-24.5"/>
<text text-anchor="middle" x="72.5" y="-12.5" font-family="Arial" font-size="10.00">twoparticle_demo::Model::run</text>
</a>
</g>
</g>
<!-- Node4&#45;&gt;Node5 -->
<g id="edge4_Node000004_Node000005" class="edge">
<title>Node4&#45;&gt;Node5</title>
<g id="a_edge4_Node000004_Node000005"><a xlink:title=" ">
<path fill="none" stroke="#63b8ff" d="M170.44,-15C162.07,-15 153.55,-15 145.19,-15"/>
<polygon fill="#63b8ff" stroke="#63b8ff" points="170.53,-18.5 180.53,-15 170.53,-11.5 170.53,-18.5"/>
</a>
</g>
</g>
</g>
</svg>
