<?xml version="1.0" encoding="UTF-8" standalone="no"?>
<!DOCTYPE svg PUBLIC "-//W3C//DTD SVG 1.1//EN"
 "http://www.w3.org/Graphics/SVG/1.1/DTD/svg11.dtd">
<!-- Generated by graphviz version 2.43.0 (0)
 -->
<!-- Title: problem_setup.get_ref_hex_points Pages: 1 -->
<svg width="762pt" height="176pt"
 viewBox="0.00 0.00 762.00 176.00" xmlns="http://www.w3.org/2000/svg" xmlns:xlink="http://www.w3.org/1999/xlink">
<g id="graph0" class="graph" transform="scale(1 1) rotate(0) translate(4 172)">
<title>problem_setup.get_ref_hex_points</title>
<!-- Node1 -->
<g id="node1" class="node">
<title>Node1</title>
<g id="a_node1"><a xlink:title=" ">
<polygon fill="#bfbfbf" stroke="black" points="641,-115.5 641,-145.5 754,-145.5 754,-115.5 641,-115.5"/>
<text text-anchor="start" x="649" y="-133.5" font-family="Arial" font-size="10.00">problem_setup.get_ref</text>
<text text-anchor="middle" x="697.5" y="-122.5" font-family="Arial" font-size="10.00">_hex_points</text>
</a>
</g>
</g>
<!-- Node2 -->
<g id="node2" class="node">
<title>Node2</title>
<g id="a_node2"><a xlink:href="namespaceproblem__setup.html#a876a947fad9cf3729999101abe3e823f" target="_top" xlink:title=" ">
<polygon fill="none" stroke="black" points="475,-115.5 475,-145.5 605,-145.5 605,-115.5 475,-115.5"/>
<text text-anchor="start" x="483" y="-133.5" font-family="Arial" font-size="10.00">problem_setup.generate</text>
<text text-anchor="middle" x="540" y="-122.5" font-family="Arial" font-size="10.00">_hex_particle_gmsh_input</text>
</a>
</g>
</g>
<!-- Node1&#45;&gt;Node2 -->
<g id="edge1" class="edge">
<title>Node1&#45;&gt;Node2</title>
<path fill="none" stroke="midnightblue" d="M630.6,-130.5C622.13,-130.5 613.48,-130.5 605.04,-130.5"/>
<polygon fill="midnightblue" stroke="midnightblue" points="630.8,-134 640.8,-130.5 630.8,-127 630.8,-134"/>
</g>
<!-- Node3 -->
<g id="node3" class="node">
<title>Node3</title>
<g id="a_node3"><a xlink:href="namespaceproblem__setup.html#a64e067098e447f766d042476ef5abe85" target="_top" xlink:title=" ">
<polygon fill="none" stroke="black" points="329,-93.5 329,-123.5 439,-123.5 439,-93.5 329,-93.5"/>
<text text-anchor="start" x="337" y="-111.5" font-family="Arial" font-size="10.00">problem_setup.create</text>
<text text-anchor="middle" x="384" y="-100.5" font-family="Arial" font-size="10.00">_input_file</text>
</a>
</g>
</g>
<!-- Node2&#45;&gt;Node3 -->
<g id="edge2" class="edge">
<title>Node2&#45;&gt;Node3</title>
<path fill="none" stroke="midnightblue" d="M464.64,-119.88C456.13,-118.66 447.58,-117.44 439.4,-116.27"/>
<polygon fill="midnightblue" stroke="midnightblue" points="464.19,-123.35 474.58,-121.3 465.18,-116.42 464.19,-123.35"/>
</g>
<!-- Node4 -->
<g id="node4" class="node">
<title>Node4</title>
<g id="a_node4"><a xlink:href="namespaceproblem__setup.html#aff5393227de056de45cfc082e05af1ca" target="_top" xlink:title=" ">
<polygon fill="none" stroke="black" points="157,-137.5 157,-167.5 293,-167.5 293,-137.5 157,-137.5"/>
<text text-anchor="start" x="165" y="-155.5" font-family="Arial" font-size="10.00">problem_setup.generate</text>
<text text-anchor="middle" x="225" y="-144.5" font-family="Arial" font-size="10.00">_drum_particle_gmsh_input</text>
</a>
</g>
</g>
<!-- Node2&#45;&gt;Node4 -->
<g id="edge10" class="edge">
<title>Node2&#45;&gt;Node4</title>
<path fill="none" stroke="midnightblue" d="M464.73,-135.72C412.68,-139.38 343.68,-144.23 293.25,-147.77"/>
<polygon fill="midnightblue" stroke="midnightblue" points="465.17,-139.2 474.9,-135.01 464.68,-132.21 465.17,-139.2"/>
</g>
<!-- Node3&#45;&gt;Node4 -->
<g id="edge3" class="edge">
<title>Node3&#45;&gt;Node4</title>
<path fill="none" stroke="midnightblue" d="M319.44,-126.31C306.23,-130.02 292.43,-133.88 279.62,-137.47"/>
<polygon fill="midnightblue" stroke="midnightblue" points="320.72,-129.59 329.41,-123.52 318.84,-122.85 320.72,-129.59"/>
</g>
<!-- Node5 -->
<g id="node5" class="node">
<title>Node5</title>
<g id="a_node5"><a xlink:href="namespaceproblem__setup.html#a147f310ff74124342d15ab356739883f" target="_top" xlink:title=" ">
<polygon fill="none" stroke="black" points="164.5,-49.5 164.5,-79.5 285.5,-79.5 285.5,-49.5 164.5,-49.5"/>
<text text-anchor="start" x="172.5" y="-67.5" font-family="Arial" font-size="10.00">problem_setup.generate</text>
<text text-anchor="middle" x="225" y="-56.5" font-family="Arial" font-size="10.00">_particle_gmsh_input</text>
</a>
</g>
</g>
<!-- Node3&#45;&gt;Node5 -->
<g id="edge4" class="edge">
<title>Node3&#45;&gt;Node5</title>
<path fill="none" stroke="midnightblue" d="M319.44,-90.69C306.23,-86.98 292.43,-83.12 279.62,-79.53"/>
<polygon fill="midnightblue" stroke="midnightblue" points="318.84,-94.15 329.41,-93.48 320.72,-87.41 318.84,-94.15"/>
</g>
<!-- Node7 -->
<g id="node7" class="node">
<title>Node7</title>
<g id="a_node7"><a xlink:href="namespaceproblem__setup.html#af51753c1e02e9634827a449ab8729d44" target="_top" xlink:title=" ">
<polygon fill="none" stroke="black" points="0,-0.5 0,-30.5 121,-30.5 121,-0.5 0,-0.5"/>
<text text-anchor="start" x="8" y="-18.5" font-family="Arial" font-size="10.00">problem_setup.generate</text>
<text text-anchor="middle" x="60.5" y="-7.5" font-family="Arial" font-size="10.00">_wall_gmsh_input</text>
</a>
</g>
</g>
<!-- Node3&#45;&gt;Node7 -->
<g id="edge8" class="edge">
<title>Node3&#45;&gt;Node7</title>
<path fill="none" stroke="midnightblue" d="M360.66,-86.08C343.64,-70.49 318.82,-50.73 293,-40.5 237.57,-18.53 169.16,-13.58 121.13,-13.33"/>
<polygon fill="midnightblue" stroke="midnightblue" points="358.68,-89.03 368.36,-93.34 363.48,-83.94 358.68,-89.03"/>
</g>
<!-- Node8 -->
<g id="node8" class="node">
<title>Node8</title>
<g id="a_node8"><a xlink:href="namespaceproblem__setup.html#a767ffea81ffa775dc9aeb12b2e2a21a4" target="_top" xlink:title=" ">
<polygon fill="none" stroke="black" points="3,-98.5 3,-128.5 118,-128.5 118,-98.5 3,-98.5"/>
<text text-anchor="start" x="11" y="-116.5" font-family="Arial" font-size="10.00">problem_setup.particle</text>
<text text-anchor="middle" x="60.5" y="-105.5" font-family="Arial" font-size="10.00">_locations</text>
</a>
</g>
</g>
<!-- Node3&#45;&gt;Node8 -->
<g id="edge9" class="edge">
<title>Node3&#45;&gt;Node8</title>
<path fill="none" stroke="midnightblue" d="M318.56,-109.5C259.9,-110.41 174.13,-111.75 118.06,-112.62"/>
<polygon fill="midnightblue" stroke="midnightblue" points="318.88,-113 328.83,-109.34 318.77,-106 318.88,-113"/>
</g>
<!-- Node6 -->
<g id="node6" class="node">
<title>Node6</title>
<g id="a_node6"><a xlink:href="namespaceproblem__setup.html#a94bf8e7f89d392c05bd34dfd6a513675" target="_top" xlink:title=" ">
<polygon fill="none" stroke="black" points="0,-49.5 0,-79.5 121,-79.5 121,-49.5 0,-49.5"/>
<text text-anchor="start" x="8" y="-67.5" font-family="Arial" font-size="10.00">problem_setup.generate</text>
<text text-anchor="middle" x="60.5" y="-56.5" font-family="Arial" font-size="10.00">_particle_gmsh_input</text>
</a>
</g>
</g>
<!-- Node5&#45;&gt;Node6 -->
<g id="edge5" class="edge">
<title>Node5&#45;&gt;Node6</title>
<path fill="none" stroke="midnightblue" d="M154.35,-64.5C143.27,-64.5 131.9,-64.5 121.08,-64.5"/>
<polygon fill="midnightblue" stroke="midnightblue" points="154.41,-68 164.41,-64.5 154.41,-61 154.41,-68"/>
</g>
<!-- Node5&#45;&gt;Node7 -->
<g id="edge6" class="edge">
<title>Node5&#45;&gt;Node7</title>
<path fill="none" stroke="midnightblue" d="M163.93,-46.39C146.66,-41.18 128.01,-35.55 111.42,-30.55"/>
<polygon fill="midnightblue" stroke="midnightblue" points="163.33,-49.86 173.92,-49.4 165.35,-43.16 163.33,-49.86"/>
</g>
<!-- Node5&#45;&gt;Node8 -->
<g id="edge7" class="edge">
<title>Node5&#45;&gt;Node8</title>
<path fill="none" stroke="midnightblue" d="M163.93,-82.61C146.66,-87.82 128.01,-93.45 111.42,-98.45"/>
<polygon fill="midnightblue" stroke="midnightblue" points="165.35,-85.84 173.92,-79.6 163.33,-79.14 165.35,-85.84"/>
</g>
</g>
</svg>
