<?xml version="1.0" encoding="UTF-8" standalone="no"?>
<!DOCTYPE svg PUBLIC "-//W3C//DTD SVG 1.1//EN"
 "http://www.w3.org/Graphics/SVG/1.1/DTD/svg11.dtd">
<!-- Generated by graphviz version 2.43.0 (0)
 -->
<!-- Title: problem_setup.particle_locations_orient Pages: 1 -->
<svg width="416pt" height="61pt"
 viewBox="0.00 0.00 416.00 61.00" xmlns="http://www.w3.org/2000/svg" xmlns:xlink="http://www.w3.org/1999/xlink">
<g id="graph0" class="graph" transform="scale(1 1) rotate(0) translate(4 57)">
<title>problem_setup.particle_locations_orient</title>
<!-- Node1 -->
<g id="node1" class="node">
<title>Node1</title>
<g id="a_node1"><a xlink:title=" ">
<polygon fill="#bfbfbf" stroke="black" points="0,-0.5 0,-30.5 115,-30.5 115,-0.5 0,-0.5"/>
<text text-anchor="start" x="8" y="-18.5" font-family="Arial" font-size="10.00">problem_setup.particle</text>
<text text-anchor="middle" x="57.5" y="-7.5" font-family="Arial" font-size="10.00">_locations_orient</text>
</a>
</g>
</g>
<!-- Node2 -->
<g id="node2" class="node">
<title>Node2</title>
<g id="a_node2"><a xlink:href="namespaceproblem__setup.html#a700be09e5b12da02f5d11c0d21cf5d5b" target="_top" xlink:title=" ">
<polygon fill="none" stroke="black" points="151,-22.5 151,-52.5 264,-52.5 264,-22.5 151,-22.5"/>
<text text-anchor="start" x="159" y="-40.5" font-family="Arial" font-size="10.00">problem_setup.get_ref</text>
<text text-anchor="middle" x="207.5" y="-29.5" font-family="Arial" font-size="10.00">_drum_points</text>
</a>
</g>
</g>
<!-- Node1&#45;&gt;Node2 -->
<g id="edge1" class="edge">
<title>Node1&#45;&gt;Node2</title>
<path fill="none" stroke="midnightblue" d="M115.3,-23.94C123.53,-25.17 132.06,-26.43 140.45,-27.68"/>
<polygon fill="midnightblue" stroke="midnightblue" points="140.18,-31.18 150.59,-29.19 141.21,-24.26 140.18,-31.18"/>
</g>
<!-- Node3 -->
<g id="node3" class="node">
<title>Node3</title>
<g id="a_node3"><a xlink:href="namespaceproblem__setup.html#a192b6d085d04429814f30104aeb18493" target="_top" xlink:title=" ">
<polygon fill="none" stroke="black" points="300,-6 300,-25 408,-25 408,-6 300,-6"/>
<text text-anchor="middle" x="354" y="-13" font-family="Arial" font-size="10.00">problem_setup.rotate</text>
</a>
</g>
</g>
<!-- Node1&#45;&gt;Node3 -->
<g id="edge3" class="edge">
<title>Node1&#45;&gt;Node3</title>
<path fill="none" stroke="midnightblue" d="M115.24,-14.08C127.06,-13.84 139.44,-13.63 151,-13.5 201.22,-12.96 213.78,-12.94 264,-13.5 272.33,-13.59 281.1,-13.74 289.75,-13.9"/>
<polygon fill="midnightblue" stroke="midnightblue" points="289.75,-17.4 299.82,-14.11 289.9,-10.41 289.75,-17.4"/>
</g>
<!-- Node2&#45;&gt;Node3 -->
<g id="edge2" class="edge">
<title>Node2&#45;&gt;Node3</title>
<path fill="none" stroke="midnightblue" d="M264.37,-28.99C272.61,-27.74 281.15,-26.44 289.54,-25.16"/>
<polygon fill="midnightblue" stroke="midnightblue" points="290.29,-28.59 299.65,-23.62 289.24,-21.67 290.29,-28.59"/>
</g>
</g>
</svg>
