<?xml version="1.0" encoding="UTF-8" standalone="no"?>
<!DOCTYPE svg PUBLIC "-//W3C//DTD SVG 1.1//EN"
 "http://www.w3.org/Graphics/SVG/1.1/DTD/svg11.dtd">
<!-- Generated by graphviz version 2.43.0 (0)
 -->
<!-- Title: util::geometry::createGeomObject Pages: 1 -->
<svg width="473pt" height="203pt"
 viewBox="0.00 0.00 473.00 202.50" xmlns="http://www.w3.org/2000/svg" xmlns:xlink="http://www.w3.org/1999/xlink">
<g id="graph0" class="graph" transform="scale(1 1) rotate(0) translate(4 198.5)">
<title>util::geometry::createGeomObject</title>
<!-- Node1 -->
<g id="node1" class="node">
<title>Node1</title>
<g id="a_node1"><a xlink:title=" ">
<polygon fill="#bfbfbf" stroke="black" points="330,-71 330,-101 465,-101 465,-71 330,-71"/>
<text text-anchor="start" x="338" y="-89" font-family="Arial" font-size="10.00">util::geometry::createGeom</text>
<text text-anchor="middle" x="397.5" y="-78" font-family="Arial" font-size="10.00">Object</text>
</a>
</g>
</g>
<!-- Node2 -->
<g id="node2" class="node">
<title>Node2</title>
<g id="a_node2"><a xlink:href="classmodel_1_1DEMModel.html#a34f7f402d46ec6e47b4abcaf6aa43060" target="_top" xlink:title="Creates geometrical object for a particle given particle radius, orientation, and site location.">
<polygon fill="none" stroke="black" points="121,-164 121,-194 294,-194 294,-164 121,-164"/>
<text text-anchor="start" x="129" y="-182" font-family="Arial" font-size="10.00">model::DEMModel::createGeometry</text>
<text text-anchor="middle" x="207.5" y="-171" font-family="Arial" font-size="10.00">AtSite</text>
</a>
</g>
</g>
<!-- Node1&#45;&gt;Node2 -->
<g id="edge1" class="edge">
<title>Node1&#45;&gt;Node2</title>
<path fill="none" stroke="midnightblue" d="M369.97,-107.34C350.06,-122.45 321.6,-142.24 294,-155 286.72,-158.36 278.87,-161.35 270.99,-163.98"/>
<polygon fill="midnightblue" stroke="midnightblue" points="372.17,-110.06 377.95,-101.18 367.89,-104.52 372.17,-110.06"/>
</g>
<!-- Node3 -->
<g id="node3" class="node">
<title>Node3</title>
<g id="a_node3"><a xlink:href="namespaceutil_1_1geometry.html#a44f3f0e0cc6edb964264a0cc22735209" target="_top" xlink:title="Create geometrical object from the given data.">
<polygon fill="none" stroke="black" points="140,-115 140,-145 275,-145 275,-115 140,-115"/>
<text text-anchor="start" x="148" y="-133" font-family="Arial" font-size="10.00">util::geometry::createGeom</text>
<text text-anchor="middle" x="207.5" y="-122" font-family="Arial" font-size="10.00">ObjectOld</text>
</a>
</g>
</g>
<!-- Node1&#45;&gt;Node3 -->
<g id="edge2" class="edge">
<title>Node1&#45;&gt;Node3</title>
<path fill="none" stroke="midnightblue" d="M322.25,-103.38C305.87,-107.21 288.65,-111.24 272.7,-114.97"/>
<polygon fill="midnightblue" stroke="midnightblue" points="323.39,-106.71 332.33,-101.02 321.79,-99.89 323.39,-106.71"/>
</g>
<!-- Node4 -->
<g id="node4" class="node">
<title>Node4</title>
<g id="a_node4"><a xlink:href="classinp_1_1Input.html#a0377ad737c8149617579d8bc30776e33" target="_top" xlink:title="Read particle data.">
<polygon fill="none" stroke="black" points="142,-76.5 142,-95.5 273,-95.5 273,-76.5 142,-76.5"/>
<text text-anchor="middle" x="207.5" y="-83.5" font-family="Arial" font-size="10.00">inp::Input::setParticleData</text>
</a>
</g>
</g>
<!-- Node1&#45;&gt;Node4 -->
<g id="edge3" class="edge">
<title>Node1&#45;&gt;Node4</title>
<path fill="none" stroke="midnightblue" d="M319.86,-86C304.32,-86 288.13,-86 273.06,-86"/>
<polygon fill="midnightblue" stroke="midnightblue" points="319.95,-89.5 329.95,-86 319.95,-82.5 319.95,-89.5"/>
</g>
<!-- Node5 -->
<g id="node5" class="node">
<title>Node5</title>
<g id="a_node5"><a xlink:href="classinp_1_1Input.html#a5689d155dc964e648dc91dd9e5c8ade6" target="_top" xlink:title="Read data into particle deck and store its pointer.">
<polygon fill="none" stroke="black" points="141,-38.5 141,-57.5 274,-57.5 274,-38.5 141,-38.5"/>
<text text-anchor="middle" x="207.5" y="-45.5" font-family="Arial" font-size="10.00">inp::Input::setParticleDeck</text>
</a>
</g>
</g>
<!-- Node1&#45;&gt;Node5 -->
<g id="edge4" class="edge">
<title>Node1&#45;&gt;Node5</title>
<path fill="none" stroke="midnightblue" d="M320.06,-70.55C298.3,-66.15 275.23,-61.49 255.75,-57.55"/>
<polygon fill="midnightblue" stroke="midnightblue" points="319.46,-74 329.95,-72.55 320.85,-67.14 319.46,-74"/>
</g>
<!-- Node7 -->
<g id="node7" class="node">
<title>Node7</title>
<g id="a_node7"><a xlink:href="classinp_1_1Input.html#a86a17e43ca26f7e1b3e0ac933a4499d1" target="_top" xlink:title="Read zone data.">
<polygon fill="none" stroke="black" points="148,-0.5 148,-19.5 267,-19.5 267,-0.5 148,-0.5"/>
<text text-anchor="middle" x="207.5" y="-7.5" font-family="Arial" font-size="10.00">inp::Input::setZoneData</text>
</a>
</g>
</g>
<!-- Node1&#45;&gt;Node7 -->
<g id="edge6" class="edge">
<title>Node1&#45;&gt;Node7</title>
<path fill="none" stroke="midnightblue" d="M365.25,-65.5C345.52,-53.36 319.09,-38.53 294,-29 284.05,-25.22 273.15,-22.09 262.56,-19.53"/>
<polygon fill="midnightblue" stroke="midnightblue" points="363.49,-68.53 373.82,-70.86 367.2,-62.59 363.49,-68.53"/>
</g>
<!-- Node6 -->
<g id="node6" class="node">
<title>Node6</title>
<g id="a_node6"><a xlink:href="classinp_1_1Input.html#a0259771f00b712054f5f33d807990869" target="_top" xlink:title="Constructor.">
<polygon fill="none" stroke="black" points="0,-38.5 0,-57.5 85,-57.5 85,-38.5 0,-38.5"/>
<text text-anchor="middle" x="42.5" y="-45.5" font-family="Arial" font-size="10.00">inp::Input::Input</text>
</a>
</g>
</g>
<!-- Node5&#45;&gt;Node6 -->
<g id="edge5" class="edge">
<title>Node5&#45;&gt;Node6</title>
<path fill="none" stroke="midnightblue" d="M130.49,-48C114.89,-48 99.03,-48 85.2,-48"/>
<polygon fill="midnightblue" stroke="midnightblue" points="130.67,-51.5 140.67,-48 130.67,-44.5 130.67,-51.5"/>
</g>
</g>
</svg>
