<?xml version="1.0" encoding="UTF-8" standalone="no"?>
<!DOCTYPE svg PUBLIC "-//W3C//DTD SVG 1.1//EN"
 "http://www.w3.org/Graphics/SVG/1.1/DTD/svg11.dtd">
<!-- Generated by graphviz version 2.43.0 (0)
 -->
<!-- Title: problem_setup.generate_drum_particle_gmsh_input Pages: 1 -->
<svg width="766pt" height="463pt"
 viewBox="0.00 0.00 766.00 463.00" xmlns="http://www.w3.org/2000/svg" xmlns:xlink="http://www.w3.org/1999/xlink">
<g id="graph0" class="graph" transform="scale(1 1) rotate(0) translate(4 459)">
<title>problem_setup.generate_drum_particle_gmsh_input</title>
<!-- Node1 -->
<g id="node1" class="node">
<title>Node1</title>
<g id="a_node1"><a xlink:title=" ">
<polygon fill="#bfbfbf" stroke="black" points="0,-142.5 0,-172.5 136,-172.5 136,-142.5 0,-142.5"/>
<text text-anchor="start" x="8" y="-160.5" font-family="Arial" font-size="10.00">problem_setup.generate</text>
<text text-anchor="middle" x="68" y="-149.5" font-family="Arial" font-size="10.00">_drum_particle_gmsh_input</text>
</a>
</g>
</g>
<!-- Node2 -->
<g id="node2" class="node">
<title>Node2</title>
<g id="a_node2"><a xlink:href="namespaceproblem__setup.html#a64e067098e447f766d042476ef5abe85" target="_top" xlink:title=" ">
<polygon fill="none" stroke="black" points="174.5,-164.5 174.5,-194.5 284.5,-194.5 284.5,-164.5 174.5,-164.5"/>
<text text-anchor="start" x="182.5" y="-182.5" font-family="Arial" font-size="10.00">problem_setup.create</text>
<text text-anchor="middle" x="229.5" y="-171.5" font-family="Arial" font-size="10.00">_input_file</text>
</a>
</g>
</g>
<!-- Node1&#45;&gt;Node2 -->
<g id="edge1" class="edge">
<title>Node1&#45;&gt;Node2</title>
<path fill="none" stroke="midnightblue" d="M136.18,-166.77C145.56,-168.06 155.17,-169.39 164.49,-170.67"/>
<polygon fill="midnightblue" stroke="midnightblue" points="164.08,-174.15 174.46,-172.05 165.03,-167.21 164.08,-174.15"/>
</g>
<!-- Node4 -->
<g id="node4" class="node">
<title>Node4</title>
<g id="a_node4"><a xlink:href="namespaceproblem__setup.html#a876a947fad9cf3729999101abe3e823f" target="_top" xlink:title=" ">
<polygon fill="none" stroke="black" points="323.5,-360.5 323.5,-390.5 453.5,-390.5 453.5,-360.5 323.5,-360.5"/>
<text text-anchor="start" x="331.5" y="-378.5" font-family="Arial" font-size="10.00">problem_setup.generate</text>
<text text-anchor="middle" x="388.5" y="-367.5" font-family="Arial" font-size="10.00">_hex_particle_gmsh_input</text>
</a>
</g>
</g>
<!-- Node1&#45;&gt;Node4 -->
<g id="edge18" class="edge">
<title>Node1&#45;&gt;Node4</title>
<path fill="none" stroke="midnightblue" d="M85.04,-172.53C123.45,-207.87 224.86,-297.35 323,-351.5 326.02,-353.17 329.18,-354.76 332.41,-356.28"/>
<polygon fill="midnightblue" stroke="midnightblue" points="331.07,-359.52 341.64,-360.36 333.9,-353.12 331.07,-359.52"/>
</g>
<!-- Node9 -->
<g id="node9" class="node">
<title>Node9</title>
<g id="a_node9"><a xlink:href="namespaceproblem__setup.html#af977354e61703cd925c2511fd3ca0858" target="_top" xlink:title=" ">
<polygon fill="none" stroke="black" points="334,-126 334,-145 443,-145 443,-126 334,-126"/>
<text text-anchor="middle" x="388.5" y="-133" font-family="Arial" font-size="10.00">problem_setup.get_E</text>
</a>
</g>
</g>
<!-- Node1&#45;&gt;Node9 -->
<g id="edge19" class="edge">
<title>Node1&#45;&gt;Node9</title>
<path fill="none" stroke="midnightblue" d="M136.16,-152.86C191.45,-149.04 269.32,-143.66 323.68,-139.91"/>
<polygon fill="midnightblue" stroke="midnightblue" points="324.15,-143.38 333.88,-139.2 323.67,-136.4 324.15,-143.38"/>
</g>
<!-- Node10 -->
<g id="node10" class="node">
<title>Node10</title>
<g id="a_node10"><a xlink:href="namespaceproblem__setup.html#a564e6017e037399c311be8b31653e45d" target="_top" xlink:title=" ">
<polygon fill="none" stroke="black" points="327,-88 327,-107 450,-107 450,-88 327,-88"/>
<text text-anchor="middle" x="388.5" y="-95" font-family="Arial" font-size="10.00">problem_setup.get_eff_k</text>
</a>
</g>
</g>
<!-- Node1&#45;&gt;Node10 -->
<g id="edge20" class="edge">
<title>Node1&#45;&gt;Node10</title>
<path fill="none" stroke="midnightblue" d="M136.16,-144.85C192.51,-134.23 272.31,-119.2 326.78,-108.94"/>
<polygon fill="midnightblue" stroke="midnightblue" points="327.46,-112.37 336.64,-107.08 326.17,-105.49 327.46,-112.37"/>
</g>
<!-- Node11 -->
<g id="node11" class="node">
<title>Node11</title>
<g id="a_node11"><a xlink:href="namespaceproblem__setup.html#adc274a492cfb30270617c3c66d64c6c4" target="_top" xlink:title=" ">
<polygon fill="none" stroke="black" points="333.5,-50 333.5,-69 443.5,-69 443.5,-50 333.5,-50"/>
<text text-anchor="middle" x="388.5" y="-57" font-family="Arial" font-size="10.00">problem_setup.get_G</text>
</a>
</g>
</g>
<!-- Node1&#45;&gt;Node11 -->
<g id="edge21" class="edge">
<title>Node1&#45;&gt;Node11</title>
<path fill="none" stroke="midnightblue" d="M100.01,-142.3C120.17,-132.82 147.23,-120.89 172,-112.5 223.97,-94.9 284.8,-80.48 328.56,-71.15"/>
<polygon fill="midnightblue" stroke="midnightblue" points="329.4,-74.55 338.46,-69.06 327.96,-67.7 329.4,-74.55"/>
</g>
<!-- Node21 -->
<g id="node18" class="node">
<title>Node21</title>
<g id="a_node18"><a xlink:href="namespaceproblem__setup.html#a9ce710367bd7258e6dd619e9ec930b36" target="_top" xlink:title=" ">
<polygon fill="none" stroke="black" points="337.5,-0.5 337.5,-30.5 439.5,-30.5 439.5,-0.5 337.5,-0.5"/>
<text text-anchor="start" x="345.5" y="-18.5" font-family="Arial" font-size="10.00">problem_setup.print</text>
<text text-anchor="middle" x="388.5" y="-7.5" font-family="Arial" font-size="10.00">_dbl_list</text>
</a>
</g>
</g>
<!-- Node1&#45;&gt;Node21 -->
<g id="edge26" class="edge">
<title>Node1&#45;&gt;Node21</title>
<path fill="none" stroke="midnightblue" d="M84.44,-142.39C103.52,-124.5 137.69,-94.94 172,-77.5 221.53,-52.33 282.8,-35.95 327.34,-26.39"/>
<polygon fill="midnightblue" stroke="midnightblue" points="328.07,-29.81 337.14,-24.34 326.64,-22.96 328.07,-29.81"/>
</g>
<!-- Node22 -->
<g id="node19" class="node">
<title>Node22</title>
<g id="a_node19"><a xlink:href="namespaceproblem__setup.html#a700be09e5b12da02f5d11c0d21cf5d5b" target="_top" xlink:title=" ">
<polygon fill="none" stroke="black" points="173,-424.5 173,-454.5 286,-454.5 286,-424.5 173,-424.5"/>
<text text-anchor="start" x="181" y="-442.5" font-family="Arial" font-size="10.00">problem_setup.get_ref</text>
<text text-anchor="middle" x="229.5" y="-431.5" font-family="Arial" font-size="10.00">_drum_points</text>
</a>
</g>
</g>
<!-- Node1&#45;&gt;Node22 -->
<g id="edge22" class="edge">
<title>Node1&#45;&gt;Node22</title>
<path fill="none" stroke="midnightblue" d="M72.55,-172.71C82.54,-212.92 113.97,-324.02 172,-397.5 178.18,-405.33 186.17,-412.44 194.18,-418.49"/>
<polygon fill="midnightblue" stroke="midnightblue" points="192.29,-421.44 202.46,-424.39 196.35,-415.74 192.29,-421.44"/>
</g>
<!-- Node23 -->
<g id="node20" class="node">
<title>Node23</title>
<g id="a_node20"><a xlink:href="namespaceproblem__setup.html#a2b643803a88f4dba1de3a039bcf58fe2" target="_top" xlink:title=" ">
<polygon fill="none" stroke="black" points="172,-357.5 172,-387.5 287,-387.5 287,-357.5 172,-357.5"/>
<text text-anchor="start" x="180" y="-375.5" font-family="Arial" font-size="10.00">problem_setup.particle</text>
<text text-anchor="middle" x="229.5" y="-364.5" font-family="Arial" font-size="10.00">_locations_orient</text>
</a>
</g>
</g>
<!-- Node1&#45;&gt;Node23 -->
<g id="edge24" class="edge">
<title>Node1&#45;&gt;Node23</title>
<path fill="none" stroke="midnightblue" d="M78.68,-172.8C96.32,-200.4 135.26,-260.03 172,-307.5 183.26,-322.05 196.75,-337.63 207.72,-349.89"/>
<polygon fill="midnightblue" stroke="midnightblue" points="205.22,-352.34 214.52,-357.42 210.42,-347.65 205.22,-352.34"/>
</g>
<!-- Node3 -->
<g id="node3" class="node">
<title>Node3</title>
<g id="a_node3"><a xlink:href="namespaceproblem__setup.html#a2deb4dabdc948f0b2b009c3576518ade" target="_top" xlink:title=" ">
<polygon fill="none" stroke="black" points="326,-311.5 326,-341.5 451,-341.5 451,-311.5 326,-311.5"/>
<text text-anchor="start" x="334" y="-329.5" font-family="Arial" font-size="10.00">problem_setup.generate</text>
<text text-anchor="middle" x="388.5" y="-318.5" font-family="Arial" font-size="10.00">_cir_particle_gmsh_input</text>
</a>
</g>
</g>
<!-- Node2&#45;&gt;Node3 -->
<g id="edge2" class="edge">
<title>Node2&#45;&gt;Node3</title>
<path fill="none" stroke="midnightblue" d="M238.09,-194.57C251.73,-220.21 282.74,-272.46 323,-302.5 324.83,-303.86 326.74,-305.16 328.72,-306.39"/>
<polygon fill="midnightblue" stroke="midnightblue" points="327.28,-309.59 337.72,-311.35 330.65,-303.45 327.28,-309.59"/>
</g>
<!-- Node2&#45;&gt;Node4 -->
<g id="edge3" class="edge">
<title>Node2&#45;&gt;Node4</title>
<path fill="none" stroke="midnightblue" d="M239.36,-194.62C250.69,-214.08 270.8,-249.05 287,-279.5 303.81,-311.08 296.38,-327.6 323,-351.5 324.31,-352.68 325.69,-353.8 327.12,-354.87"/>
<polygon fill="midnightblue" stroke="midnightblue" points="325.48,-357.98 335.79,-360.43 329.26,-352.09 325.48,-357.98"/>
</g>
<!-- Node7 -->
<g id="node7" class="node">
<title>Node7</title>
<g id="a_node7"><a xlink:href="namespaceproblem__setup.html#a8c789550cc1b70abe559c976bcf664e4" target="_top" xlink:title=" ">
<polygon fill="none" stroke="black" points="323,-262.5 323,-292.5 454,-292.5 454,-262.5 323,-262.5"/>
<text text-anchor="start" x="331" y="-280.5" font-family="Arial" font-size="10.00">problem_setup.generate</text>
<text text-anchor="middle" x="388.5" y="-269.5" font-family="Arial" font-size="10.00">_moving_wall_gmsh_input</text>
</a>
</g>
</g>
<!-- Node2&#45;&gt;Node7 -->
<g id="edge6" class="edge">
<title>Node2&#45;&gt;Node7</title>
<path fill="none" stroke="midnightblue" d="M246.06,-194.56C263.58,-210.87 293.48,-236.77 323,-253.5 326,-255.2 329.15,-256.82 332.36,-258.36"/>
<polygon fill="midnightblue" stroke="midnightblue" points="331.01,-261.59 341.57,-262.48 333.87,-255.2 331.01,-261.59"/>
</g>
<!-- Node8 -->
<g id="node8" class="node">
<title>Node8</title>
<g id="a_node8"><a xlink:href="namespaceproblem__setup.html#a0952cf202b7e2cd1e453eff36be36074" target="_top" xlink:title=" ">
<polygon fill="none" stroke="black" points="328,-213.5 328,-243.5 449,-243.5 449,-213.5 328,-213.5"/>
<text text-anchor="start" x="336" y="-231.5" font-family="Arial" font-size="10.00">problem_setup.generate</text>
<text text-anchor="middle" x="388.5" y="-220.5" font-family="Arial" font-size="10.00">_rigid_wall_gmsh_input</text>
</a>
</g>
</g>
<!-- Node2&#45;&gt;Node8 -->
<g id="edge7" class="edge">
<title>Node2&#45;&gt;Node8</title>
<path fill="none" stroke="midnightblue" d="M278.89,-194.6C294.93,-199.61 312.95,-205.23 329.63,-210.44"/>
<polygon fill="midnightblue" stroke="midnightblue" points="328.68,-213.81 339.27,-213.45 330.77,-207.13 328.68,-213.81"/>
</g>
<!-- Node2&#45;&gt;Node9 -->
<g id="edge8" class="edge">
<title>Node2&#45;&gt;Node9</title>
<path fill="none" stroke="midnightblue" d="M284.09,-164.48C303.43,-159.06 325.02,-153.01 343.44,-147.85"/>
<polygon fill="midnightblue" stroke="midnightblue" points="344.64,-151.15 353.32,-145.08 342.75,-144.41 344.64,-151.15"/>
</g>
<!-- Node2&#45;&gt;Node10 -->
<g id="edge9" class="edge">
<title>Node2&#45;&gt;Node10</title>
<path fill="none" stroke="midnightblue" d="M248.93,-164.38C266.89,-150.29 295.43,-129.55 323,-116.5 327.88,-114.19 333.1,-112.09 338.38,-110.21"/>
<polygon fill="midnightblue" stroke="midnightblue" points="339.51,-113.53 347.89,-107.05 337.3,-106.88 339.51,-113.53"/>
</g>
<!-- Node2&#45;&gt;Node11 -->
<g id="edge10" class="edge">
<title>Node2&#45;&gt;Node11</title>
<path fill="none" stroke="midnightblue" d="M240.26,-164.44C255.37,-142.34 286.49,-101.28 323,-78.5 326.36,-76.4 329.96,-74.53 333.68,-72.86"/>
<polygon fill="midnightblue" stroke="midnightblue" points="335.11,-76.05 343.1,-69.1 332.51,-69.55 335.11,-76.05"/>
</g>
<!-- Node12 -->
<g id="node12" class="node">
<title>Node12</title>
<g id="a_node12"><a xlink:href="namespaceproblem__setup.html#ac6b230cd1c6ef5a92bda85a4ea213f7b" target="_top" xlink:title=" ">
<polygon fill="none" stroke="black" points="331,-164.5 331,-194.5 446,-194.5 446,-164.5 331,-164.5"/>
<text text-anchor="start" x="339" y="-182.5" font-family="Arial" font-size="10.00">problem_setup.particle</text>
<text text-anchor="middle" x="388.5" y="-171.5" font-family="Arial" font-size="10.00">_locations</text>
</a>
</g>
</g>
<!-- Node2&#45;&gt;Node12 -->
<g id="edge11" class="edge">
<title>Node2&#45;&gt;Node12</title>
<path fill="none" stroke="midnightblue" d="M284.53,-179.5C296.24,-179.5 308.76,-179.5 320.89,-179.5"/>
<polygon fill="midnightblue" stroke="midnightblue" points="320.96,-183 330.96,-179.5 320.96,-176 320.96,-183"/>
</g>
<!-- Node2&#45;&gt;Node21 -->
<g id="edge17" class="edge">
<title>Node2&#45;&gt;Node21</title>
<path fill="none" stroke="midnightblue" d="M236.82,-164.32C249.27,-136.11 279.61,-75.35 323,-40.5 325.24,-38.7 327.62,-37.02 330.1,-35.45"/>
<polygon fill="midnightblue" stroke="midnightblue" points="331.84,-38.49 338.85,-30.54 328.41,-32.39 331.84,-38.49"/>
</g>
<!-- Node5 -->
<g id="node5" class="node">
<title>Node5</title>
<g id="a_node5"><a xlink:href="namespaceproblem__setup.html#a8e552b0e3bb3bde7c390d6906dbe88cd" target="_top" xlink:title=" ">
<polygon fill="none" stroke="black" points="494,-360.5 494,-390.5 607,-390.5 607,-360.5 494,-360.5"/>
<text text-anchor="start" x="502" y="-378.5" font-family="Arial" font-size="10.00">problem_setup.get_ref</text>
<text text-anchor="middle" x="550.5" y="-367.5" font-family="Arial" font-size="10.00">_hex_points</text>
</a>
</g>
</g>
<!-- Node4&#45;&gt;Node5 -->
<g id="edge4" class="edge">
<title>Node4&#45;&gt;Node5</title>
<path fill="none" stroke="midnightblue" d="M453.66,-375.5C463.53,-375.5 473.74,-375.5 483.65,-375.5"/>
<polygon fill="midnightblue" stroke="midnightblue" points="483.84,-379 493.84,-375.5 483.84,-372 483.84,-379"/>
</g>
<!-- Node6 -->
<g id="node6" class="node">
<title>Node6</title>
<g id="a_node6"><a xlink:href="namespaceproblem__setup.html#a192b6d085d04429814f30104aeb18493" target="_top" xlink:title=" ">
<polygon fill="none" stroke="black" points="648.5,-410 648.5,-429 756.5,-429 756.5,-410 648.5,-410"/>
<text text-anchor="middle" x="702.5" y="-417" font-family="Arial" font-size="10.00">problem_setup.rotate</text>
</a>
</g>
</g>
<!-- Node5&#45;&gt;Node6 -->
<g id="edge5" class="edge">
<title>Node5&#45;&gt;Node6</title>
<path fill="none" stroke="midnightblue" d="M602.7,-390.52C621.01,-395.89 641.42,-401.88 658.92,-407.01"/>
<polygon fill="midnightblue" stroke="midnightblue" points="658.27,-410.47 668.85,-409.92 660.24,-403.75 658.27,-410.47"/>
</g>
<!-- Node13 -->
<g id="node13" class="node">
<title>Node13</title>
<g id="a_node13"><a xlink:href="namespaceproblem__setup.html#ad9b50c51aa5e0de13f4c721465b63b5f" target="_top" xlink:title=" ">
<polygon fill="none" stroke="black" points="498.5,-208.5 498.5,-238.5 602.5,-238.5 602.5,-208.5 498.5,-208.5"/>
<text text-anchor="start" x="506.5" y="-226.5" font-family="Arial" font-size="10.00">problem_setup.does</text>
<text text-anchor="middle" x="550.5" y="-215.5" font-family="Arial" font-size="10.00">_intersect_rect</text>
</a>
</g>
</g>
<!-- Node12&#45;&gt;Node13 -->
<g id="edge12" class="edge">
<title>Node12&#45;&gt;Node13</title>
<path fill="none" stroke="midnightblue" d="M444.12,-194.52C458.39,-198.44 473.86,-202.7 488.44,-206.71"/>
<polygon fill="midnightblue" stroke="midnightblue" points="487.79,-210.16 498.36,-209.44 489.65,-203.41 487.79,-210.16"/>
</g>
<!-- Node14 -->
<g id="node14" class="node">
<title>Node14</title>
<g id="a_node14"><a xlink:href="namespaceproblem__setup.html#aa39e6862e38920798278f55a2578a6ef" target="_top" xlink:title=" ">
<polygon fill="none" stroke="black" points="490,-170 490,-189 611,-189 611,-170 490,-170"/>
<text text-anchor="middle" x="550.5" y="-177" font-family="Arial" font-size="10.00">problem_setup.get_max</text>
</a>
</g>
</g>
<!-- Node12&#45;&gt;Node14 -->
<g id="edge13" class="edge">
<title>Node12&#45;&gt;Node14</title>
<path fill="none" stroke="midnightblue" d="M446.36,-179.5C457.16,-179.5 468.57,-179.5 479.71,-179.5"/>
<polygon fill="midnightblue" stroke="midnightblue" points="479.85,-183 489.85,-179.5 479.85,-176 479.85,-183"/>
</g>
<!-- Node15 -->
<g id="node15" class="node">
<title>Node15</title>
<g id="a_node15"><a xlink:href="namespaceutil_1_1io.html#a578a578ce41389fb01e56de7316b7054" target="_top" xlink:title="Prints formatted information.">
<polygon fill="none" stroke="black" points="516.5,-132 516.5,-151 584.5,-151 584.5,-132 516.5,-132"/>
<text text-anchor="middle" x="550.5" y="-139" font-family="Arial" font-size="10.00">util::io::print</text>
</a>
</g>
</g>
<!-- Node12&#45;&gt;Node15 -->
<g id="edge14" class="edge">
<title>Node12&#45;&gt;Node15</title>
<path fill="none" stroke="midnightblue" d="M446.36,-166C466.07,-161.32 487.82,-156.15 506.25,-151.77"/>
<polygon fill="midnightblue" stroke="midnightblue" points="507.19,-155.15 516.11,-149.43 505.57,-148.34 507.19,-155.15"/>
</g>
<!-- Node16 -->
<g id="node16" class="node">
<title>Node16</title>
<g id="a_node16"><a xlink:href="namespaceutil_1_1parallel.html#adb80f14125b7556bb478cc3725508fa8" target="_top" xlink:title="get rank (id) of this processor">
<polygon fill="none" stroke="red" points="647,-151 647,-170 758,-170 758,-151 647,-151"/>
<text text-anchor="middle" x="702.5" y="-158" font-family="Arial" font-size="10.00">util::parallel::mpiRank</text>
</a>
</g>
</g>
<!-- Node15&#45;&gt;Node16 -->
<g id="edge15" class="edge">
<title>Node15&#45;&gt;Node16</title>
<path fill="none" stroke="midnightblue" d="M584.79,-145.72C600.01,-147.65 618.6,-150 636.42,-152.26"/>
<polygon fill="midnightblue" stroke="midnightblue" points="636.44,-155.79 646.8,-153.57 637.32,-148.84 636.44,-155.79"/>
</g>
<!-- Node19 -->
<g id="node17" class="node">
<title>Node19</title>
<g id="a_node17"><a xlink:href="namespaceutil_1_1io.html#a3e537e3bd778616255015cde6e60a30a" target="_top" xlink:title="Returns formatted string for output.">
<polygon fill="none" stroke="red" points="662.5,-113 662.5,-132 742.5,-132 742.5,-113 662.5,-113"/>
<text text-anchor="middle" x="702.5" y="-120" font-family="Arial" font-size="10.00">util::io::printStr</text>
</a>
</g>
</g>
<!-- Node15&#45;&gt;Node19 -->
<g id="edge16" class="edge">
<title>Node15&#45;&gt;Node19</title>
<path fill="none" stroke="midnightblue" d="M584.79,-137.28C604.61,-134.77 630.13,-131.54 652.25,-128.74"/>
<polygon fill="midnightblue" stroke="midnightblue" points="652.98,-132.17 662.46,-127.44 652.1,-125.23 652.98,-132.17"/>
</g>
<!-- Node22&#45;&gt;Node6 -->
<g id="edge23" class="edge">
<title>Node22&#45;&gt;Node6</title>
<path fill="none" stroke="midnightblue" d="M286.07,-441.01C360.29,-442.49 495.8,-443.27 611,-433.5 619.75,-432.76 628.93,-431.68 637.96,-430.46"/>
<polygon fill="midnightblue" stroke="midnightblue" points="638.64,-433.9 648.05,-429.02 637.66,-426.97 638.64,-433.9"/>
</g>
<!-- Node23&#45;&gt;Node6 -->
<g id="edge25" class="edge">
<title>Node23&#45;&gt;Node6</title>
<path fill="none" stroke="midnightblue" d="M272.34,-387.53C288.03,-392.53 306.14,-397.57 323,-400.5 432.58,-419.54 562.49,-421.72 638.09,-421"/>
<polygon fill="midnightblue" stroke="midnightblue" points="638.43,-424.5 648.39,-420.88 638.35,-417.5 638.43,-424.5"/>
</g>
</g>
</svg>
