<?xml version="1.0" encoding="UTF-8" standalone="no"?>
<!DOCTYPE svg PUBLIC "-//W3C//DTD SVG 1.1//EN"
 "http://www.w3.org/Graphics/SVG/1.1/DTD/svg11.dtd">
<!-- Generated by graphviz version 2.43.0 (0)
 -->
<!-- Title: problem_setup.does_intersect_with_rectangle_wall_with_protrusion_and_opening Pages: 1 -->
<svg width="630pt" height="72pt"
 viewBox="0.00 0.00 630.00 72.00" xmlns="http://www.w3.org/2000/svg" xmlns:xlink="http://www.w3.org/1999/xlink">
<g id="graph0" class="graph" transform="scale(1 1) rotate(0) translate(4 68)">
<title>problem_setup.does_intersect_with_rectangle_wall_with_protrusion_and_opening</title>
<!-- Node1 -->
<g id="node1" class="node">
<title>Node1</title>
<g id="a_node1"><a xlink:title=" ">
<polygon fill="#bfbfbf" stroke="black" points="491,-0.5 491,-52.5 622,-52.5 622,-0.5 491,-0.5"/>
<text text-anchor="start" x="499" y="-40.5" font-family="Arial" font-size="10.00">problem_setup.does</text>
<text text-anchor="start" x="499" y="-29.5" font-family="Arial" font-size="10.00">_intersect_with_rectangle</text>
<text text-anchor="start" x="499" y="-18.5" font-family="Arial" font-size="10.00">_wall_with_protrusion_and</text>
<text text-anchor="middle" x="556.5" y="-7.5" font-family="Arial" font-size="10.00">_opening</text>
</a>
</g>
</g>
<!-- Node2 -->
<g id="node2" class="node">
<title>Node2</title>
<g id="a_node2"><a xlink:href="namespaceproblem__setup.html#a12b4e565678c66f8f2912d548449bc8f" target="_top" xlink:title=" ">
<polygon fill="none" stroke="black" points="326,-17 326,-36 455,-36 455,-17 326,-17"/>
<text text-anchor="middle" x="390.5" y="-24" font-family="Arial" font-size="10.00">problem_setup.get_center</text>
</a>
</g>
</g>
<!-- Node1&#45;&gt;Node2 -->
<g id="edge1" class="edge">
<title>Node1&#45;&gt;Node2</title>
<path fill="none" stroke="midnightblue" d="M480.41,-26.5C471.93,-26.5 463.35,-26.5 455.04,-26.5"/>
<polygon fill="midnightblue" stroke="midnightblue" points="480.68,-30 490.68,-26.5 480.68,-23 480.68,-30"/>
</g>
<!-- Node3 -->
<g id="node3" class="node">
<title>Node3</title>
<g id="a_node3"><a xlink:href="namespaceproblem__setup.html#a9a8d53047175304f4c44b93a2f6fa482" target="_top" xlink:title=" ">
<polygon fill="none" stroke="black" points="151,-33.5 151,-63.5 290,-63.5 290,-33.5 151,-33.5"/>
<text text-anchor="start" x="159" y="-51.5" font-family="Arial" font-size="10.00">problem_setup.generate</text>
<text text-anchor="middle" x="220.5" y="-40.5" font-family="Arial" font-size="10.00">_rect_container_gmsh_input</text>
</a>
</g>
</g>
<!-- Node2&#45;&gt;Node3 -->
<g id="edge2" class="edge">
<title>Node2&#45;&gt;Node3</title>
<path fill="none" stroke="midnightblue" d="M316,-36.13C307.41,-37.25 298.67,-38.39 290.15,-39.51"/>
<polygon fill="midnightblue" stroke="midnightblue" points="316.53,-39.59 325.99,-34.82 315.62,-32.65 316.53,-39.59"/>
</g>
<!-- Node4 -->
<g id="node4" class="node">
<title>Node4</title>
<g id="a_node4"><a xlink:href="namespaceproblem__setup.html#a5a8a494c7325b103530d3f40d4b49fe8" target="_top" xlink:title=" ">
<polygon fill="none" stroke="black" points="0,-11.5 0,-41.5 115,-41.5 115,-11.5 0,-11.5"/>
<text text-anchor="start" x="8" y="-29.5" font-family="Arial" font-size="10.00">problem_setup.particle</text>
<text text-anchor="middle" x="57.5" y="-18.5" font-family="Arial" font-size="10.00">_locations_old</text>
</a>
</g>
</g>
<!-- Node2&#45;&gt;Node4 -->
<g id="edge4" class="edge">
<title>Node2&#45;&gt;Node4</title>
<path fill="none" stroke="midnightblue" d="M315.69,-24.85C307.03,-24.71 298.32,-24.58 290,-24.5 228.23,-23.88 212.77,-23.83 151,-24.5 139.44,-24.63 127.06,-24.84 115.24,-25.08"/>
<polygon fill="midnightblue" stroke="midnightblue" points="315.75,-28.35 325.81,-25.03 315.87,-21.35 315.75,-28.35"/>
</g>
<!-- Node3&#45;&gt;Node4 -->
<g id="edge3" class="edge">
<title>Node3&#45;&gt;Node4</title>
<path fill="none" stroke="midnightblue" d="M140.74,-37.74C132.19,-36.57 123.6,-35.4 115.38,-34.27"/>
<polygon fill="midnightblue" stroke="midnightblue" points="140.37,-41.22 150.75,-39.11 141.32,-34.28 140.37,-41.22"/>
</g>
</g>
</svg>
