<?xml version="1.0" encoding="UTF-8" standalone="no"?>
<!DOCTYPE svg PUBLIC "-//W3C//DTD SVG 1.1//EN"
 "http://www.w3.org/Graphics/SVG/1.1/DTD/svg11.dtd">
<!-- Generated by graphviz version 2.43.0 (0)
 -->
<!-- Title: util::io::getFilenameFromPath Pages: 1 -->
<svg width="394pt" height="66pt"
 viewBox="0.00 0.00 394.00 66.00" xmlns="http://www.w3.org/2000/svg" xmlns:xlink="http://www.w3.org/1999/xlink">
<g id="graph0" class="graph" transform="scale(1 1) rotate(0) translate(4 62)">
<title>util::io::getFilenameFromPath</title>
<!-- Node1 -->
<g id="node1" class="node">
<title>Node1</title>
<g id="a_node1"><a xlink:title="Get filename removing path from the string Source &#45; https://stackoverflow.com/a/24386991.">
<polygon fill="#bfbfbf" stroke="black" points="241,-19.5 241,-38.5 386,-38.5 386,-19.5 241,-19.5"/>
<text text-anchor="middle" x="313.5" y="-26.5" font-family="Arial" font-size="10.00">util::io::getFilenameFromPath</text>
</a>
</g>
</g>
<!-- Node2 -->
<g id="node2" class="node">
<title>Node2</title>
<g id="a_node2"><a xlink:href="namespacetest.html#a6934db7b63923b70a56ab8e9c7159202" target="_top" xlink:title="Tests metis partitioning of graph from a 2&#45;D mesh with nonlocal interaction.">
<polygon fill="none" stroke="black" points="74,-38.5 74,-57.5 205,-57.5 205,-38.5 74,-38.5"/>
<text text-anchor="middle" x="139.5" y="-45.5" font-family="Arial" font-size="10.00">test::testGraphPartitioning</text>
</a>
</g>
</g>
<!-- Node1&#45;&gt;Node2 -->
<g id="edge1" class="edge">
<title>Node1&#45;&gt;Node2</title>
<path fill="none" stroke="midnightblue" d="M230.55,-38.05C221.98,-39 213.37,-39.95 205.04,-40.87"/>
<polygon fill="midnightblue" stroke="midnightblue" points="231,-41.52 240.55,-36.95 230.23,-34.57 231,-41.52"/>
</g>
<!-- Node4 -->
<g id="node4" class="node">
<title>Node4</title>
<g id="a_node4"><a xlink:href="namespacetest.html#af0964e1ea010ded3d98df70e7d5326ca" target="_top" xlink:title="Perform parallelization test using MPI on mesh partition based on metis.">
<polygon fill="none" stroke="black" points="102.5,-0.5 102.5,-19.5 176.5,-19.5 176.5,-0.5 102.5,-0.5"/>
<text text-anchor="middle" x="139.5" y="-7.5" font-family="Arial" font-size="10.00">test::testMPI</text>
</a>
</g>
</g>
<!-- Node1&#45;&gt;Node4 -->
<g id="edge3" class="edge">
<title>Node1&#45;&gt;Node4</title>
<path fill="none" stroke="midnightblue" d="M230.39,-19.93C211.45,-17.84 192.26,-15.72 176.5,-13.98"/>
<polygon fill="midnightblue" stroke="midnightblue" points="230.23,-23.43 240.55,-21.05 231,-16.48 230.23,-23.43"/>
</g>
<!-- Node3 -->
<g id="node3" class="node">
<title>Node3</title>
<g id="a_node3"><a xlink:href="testMeshPartitioning_8cpp.html#a0ddf1224851353fc92bfbff6f499fa97" target="_top" xlink:title=" ">
<polygon fill="none" stroke="black" points="0,-38.5 0,-57.5 38,-57.5 38,-38.5 0,-38.5"/>
<text text-anchor="middle" x="19" y="-45.5" font-family="Arial" font-size="10.00">main</text>
</a>
</g>
</g>
<!-- Node2&#45;&gt;Node3 -->
<g id="edge2" class="edge">
<title>Node2&#45;&gt;Node3</title>
<path fill="none" stroke="midnightblue" d="M63.49,-48C54.24,-48 45.54,-48 38.39,-48"/>
<polygon fill="midnightblue" stroke="midnightblue" points="63.7,-51.5 73.7,-48 63.7,-44.5 63.7,-51.5"/>
</g>
<!-- Node5 -->
<g id="node5" class="node">
<title>Node5</title>
<g id="a_node5"><a xlink:href="testParallelComp_8cpp.html#a0ddf1224851353fc92bfbff6f499fa97" target="_top" xlink:title=" ">
<polygon fill="none" stroke="black" points="0,-0.5 0,-19.5 38,-19.5 38,-0.5 0,-0.5"/>
<text text-anchor="middle" x="19" y="-7.5" font-family="Arial" font-size="10.00">main</text>
</a>
</g>
</g>
<!-- Node4&#45;&gt;Node5 -->
<g id="edge4" class="edge">
<title>Node4&#45;&gt;Node5</title>
<path fill="none" stroke="midnightblue" d="M92.06,-10C73.18,-10 52.49,-10 38.14,-10"/>
<polygon fill="midnightblue" stroke="midnightblue" points="92.3,-13.5 102.3,-10 92.3,-6.5 92.3,-13.5"/>
</g>
</g>
</svg>
