<?xml version="1.0" encoding="UTF-8" standalone="no"?>
<!DOCTYPE svg PUBLIC "-//W3C//DTD SVG 1.1//EN"
 "http://www.w3.org/Graphics/SVG/1.1/DTD/svg11.dtd">
<!-- Generated by graphviz version 2.43.0 (0)
 -->
<!-- Title: problem_setup.create_input_file Pages: 1 -->
<svg width="634pt" height="486pt"
 viewBox="0.00 0.00 634.00 486.00" xmlns="http://www.w3.org/2000/svg" xmlns:xlink="http://www.w3.org/1999/xlink">
<g id="graph0" class="graph" transform="scale(1 1) rotate(0) translate(4 482)">
<title>problem_setup.create_input_file</title>
<!-- Node1 -->
<g id="Node000001" class="node">
<title>Node1</title>
<g id="a_Node000001"><a xlink:title=" ">
<polygon fill="#999999" stroke="#666666" points="110,-254 0,-254 0,-224 110,-224 110,-254"/>
<text text-anchor="start" x="8" y="-242" font-family="Arial" font-size="10.00">problem_setup.create</text>
<text text-anchor="middle" x="55" y="-231" font-family="Arial" font-size="10.00">_input_file</text>
</a>
</g>
</g>
<!-- Node2 -->
<g id="Node000002" class="node">
<title>Node2</title>
<g id="a_Node000002"><a xlink:href="namespaceproblem__setup.html#ab4f0de7eee97ab686bdd1cf19e98c38e" target="_top" xlink:title=" ">
<polygon fill="white" stroke="#666666" points="281.5,-478 156.5,-478 156.5,-448 281.5,-448 281.5,-478"/>
<text text-anchor="start" x="164.5" y="-466" font-family="Arial" font-size="10.00">problem_setup.generate</text>
<text text-anchor="middle" x="219" y="-455" font-family="Arial" font-size="10.00">_cir_particle_gmsh_input</text>
</a>
</g>
</g>
<!-- Node1&#45;&gt;Node2 -->
<g id="edge1_Node000001_Node000002" class="edge">
<title>Node1&#45;&gt;Node2</title>
<g id="a_edge1_Node000001_Node000002"><a xlink:title=" ">
<path fill="none" stroke="#63b8ff" d="M58.55,-254.23C65.55,-291.31 88.51,-387.05 146,-439 147.31,-440.18 148.68,-441.31 150.1,-442.38"/>
<polygon fill="#63b8ff" stroke="#63b8ff" points="148.42,-445.46 158.72,-447.93 152.21,-439.57 148.42,-445.46"/>
</a>
</g>
</g>
<!-- Node3 -->
<g id="Node000003" class="node">
<title>Node3</title>
<g id="a_Node000003"><a xlink:href="namespaceproblem__setup.html#ac393fca6489747e8fce08894e6d0ebbd" target="_top" xlink:title=" ">
<polygon fill="white" stroke="#666666" points="292,-430 146,-430 146,-400 292,-400 292,-430"/>
<text text-anchor="start" x="154" y="-418" font-family="Arial" font-size="10.00">problem_setup.generate</text>
<text text-anchor="middle" x="219" y="-407" font-family="Arial" font-size="10.00">_drum2d_particle_gmsh_input</text>
</a>
</g>
</g>
<!-- Node1&#45;&gt;Node3 -->
<g id="edge2_Node000001_Node000003" class="edge">
<title>Node1&#45;&gt;Node3</title>
<g id="a_edge2_Node000001_Node000003"><a xlink:title=" ">
<path fill="none" stroke="#63b8ff" d="M60.97,-254.38C71.6,-284.91 99.46,-353.44 146,-391 147.58,-392.27 149.22,-393.48 150.93,-394.62"/>
<polygon fill="#63b8ff" stroke="#63b8ff" points="149.44,-397.81 159.84,-399.83 152.97,-391.76 149.44,-397.81"/>
</a>
</g>
</g>
<!-- Node6 -->
<g id="Node000006" class="node">
<title>Node6</title>
<g id="a_Node000006"><a xlink:href="namespaceproblem__setup.html#a87e250dde89814728e8bbb3257fa3d67" target="_top" xlink:title=" ">
<polygon fill="white" stroke="#666666" points="280,-382 158,-382 158,-352 280,-352 280,-382"/>
<text text-anchor="start" x="166" y="-370" font-family="Arial" font-size="10.00">problem_setup.generate</text>
<text text-anchor="middle" x="219" y="-359" font-family="Arial" font-size="10.00">_tri_particle_gmsh_input</text>
</a>
</g>
</g>
<!-- Node1&#45;&gt;Node6 -->
<g id="edge5_Node000001_Node000006" class="edge">
<title>Node1&#45;&gt;Node6</title>
<g id="a_edge5_Node000001_Node000006"><a xlink:title=" ">
<path fill="none" stroke="#63b8ff" d="M65.4,-254.36C79.96,-276.93 110.08,-318.97 146,-343 148.28,-344.53 150.67,-345.96 153.13,-347.32"/>
<polygon fill="#63b8ff" stroke="#63b8ff" points="151.79,-350.56 162.31,-351.85 154.89,-344.28 151.79,-350.56"/>
</a>
</g>
</g>
<!-- Node8 -->
<g id="Node000008" class="node">
<title>Node8</title>
<g id="a_Node000008"><a xlink:href="namespaceproblem__setup.html#afa462577a9adf91f5e2cb59a1eb7da7e" target="_top" xlink:title=" ">
<polygon fill="white" stroke="#666666" points="279.5,-334 158.5,-334 158.5,-304 279.5,-304 279.5,-334"/>
<text text-anchor="start" x="166.5" y="-322" font-family="Arial" font-size="10.00">problem_setup.generate</text>
<text text-anchor="middle" x="219" y="-311" font-family="Arial" font-size="10.00">_wall_gmsh_input</text>
</a>
</g>
</g>
<!-- Node1&#45;&gt;Node8 -->
<g id="edge7_Node000001_Node000008" class="edge">
<title>Node1&#45;&gt;Node8</title>
<g id="a_edge7_Node000001_Node000008"><a xlink:title=" ">
<path fill="none" stroke="#63b8ff" d="M77.02,-254.06C94.77,-266.28 121.18,-283.34 146,-295 150,-296.88 154.19,-298.68 158.44,-300.38"/>
<polygon fill="#63b8ff" stroke="#63b8ff" points="157.24,-303.67 167.83,-303.97 159.73,-297.13 157.24,-303.67"/>
</a>
</g>
</g>
<!-- Node9 -->
<g id="Node000009" class="node">
<title>Node9</title>
<g id="a_Node000009"><a xlink:href="namespaceproblem__setup.html#a2a53c540550c26e19c548550f31d6628" target="_top" xlink:title=" ">
<polygon fill="white" stroke="#666666" points="273.5,-285.5 164.5,-285.5 164.5,-266.5 273.5,-266.5 273.5,-285.5"/>
<text text-anchor="middle" x="219" y="-273.5" font-family="Arial" font-size="10.00">problem_setup.get_E</text>
</a>
</g>
</g>
<!-- Node1&#45;&gt;Node9 -->
<g id="edge8_Node000001_Node000009" class="edge">
<title>Node1&#45;&gt;Node9</title>
<g id="a_edge8_Node000001_Node000009"><a xlink:title=" ">
<path fill="none" stroke="#63b8ff" d="M110.39,-251.42C128.37,-255.53 148.32,-260.09 166.11,-264.15"/>
<polygon fill="#63b8ff" stroke="#63b8ff" points="165.77,-267.66 176.3,-266.48 167.33,-260.84 165.77,-267.66"/>
</a>
</g>
</g>
<!-- Node10 -->
<g id="Node000010" class="node">
<title>Node10</title>
<g id="a_Node000010"><a xlink:href="namespaceproblem__setup.html#a5f9a17f86bff40ee84f1875b739f9f2d" target="_top" xlink:title=" ">
<polygon fill="white" stroke="#666666" points="280.5,-248.5 157.5,-248.5 157.5,-229.5 280.5,-229.5 280.5,-248.5"/>
<text text-anchor="middle" x="219" y="-236.5" font-family="Arial" font-size="10.00">problem_setup.get_eff_k</text>
</a>
</g>
</g>
<!-- Node1&#45;&gt;Node10 -->
<g id="edge9_Node000001_Node000010" class="edge">
<title>Node1&#45;&gt;Node10</title>
<g id="a_edge9_Node000001_Node000010"><a xlink:title=" ">
<path fill="none" stroke="#63b8ff" d="M110.39,-239C122.17,-239 134.79,-239 147.1,-239"/>
<polygon fill="#63b8ff" stroke="#63b8ff" points="147.34,-242.5 157.34,-239 147.34,-235.5 147.34,-242.5"/>
</a>
</g>
</g>
<!-- Node11 -->
<g id="Node000011" class="node">
<title>Node11</title>
<g id="a_Node000011"><a xlink:href="namespaceproblem__setup.html#afeeaf5a5c51df8a35ce6053532d8e8bf" target="_top" xlink:title=" ">
<polygon fill="white" stroke="#666666" points="274,-211.5 164,-211.5 164,-192.5 274,-192.5 274,-211.5"/>
<text text-anchor="middle" x="219" y="-199.5" font-family="Arial" font-size="10.00">problem_setup.get_G</text>
</a>
</g>
</g>
<!-- Node1&#45;&gt;Node11 -->
<g id="edge10_Node000001_Node000011" class="edge">
<title>Node1&#45;&gt;Node11</title>
<g id="a_edge10_Node000001_Node000011"><a xlink:title=" ">
<path fill="none" stroke="#63b8ff" d="M110.39,-226.58C128.37,-222.47 148.32,-217.91 166.11,-213.85"/>
<polygon fill="#63b8ff" stroke="#63b8ff" points="167.33,-217.16 176.3,-211.52 165.77,-210.34 167.33,-217.16"/>
</a>
</g>
</g>
<!-- Node12 -->
<g id="Node000012" class="node">
<title>Node12</title>
<g id="a_Node000012"><a xlink:href="namespaceproblem__setup.html#a93f32e78adb37a28a0d66623c3e009c5" target="_top" xlink:title=" ">
<polygon fill="white" stroke="#666666" points="276.5,-174 161.5,-174 161.5,-144 276.5,-144 276.5,-174"/>
<text text-anchor="start" x="169.5" y="-162" font-family="Arial" font-size="10.00">problem_setup.particle</text>
<text text-anchor="middle" x="219" y="-151" font-family="Arial" font-size="10.00">_locations</text>
</a>
</g>
</g>
<!-- Node1&#45;&gt;Node12 -->
<g id="edge11_Node000001_Node000012" class="edge">
<title>Node1&#45;&gt;Node12</title>
<g id="a_edge11_Node000001_Node000012"><a xlink:title=" ">
<path fill="none" stroke="#63b8ff" d="M77.02,-223.94C94.77,-211.72 121.18,-194.66 146,-183 150,-181.12 154.19,-179.32 158.44,-177.62"/>
<polygon fill="#63b8ff" stroke="#63b8ff" points="159.73,-180.87 167.83,-174.03 157.24,-174.33 159.73,-180.87"/>
</a>
</g>
</g>
<!-- Node15 -->
<g id="Node000015" class="node">
<title>Node15</title>
<g id="a_Node000015"><a xlink:href="namespaceproblem__setup.html#af39694203c8069262bab1bf246cc6bd9" target="_top" xlink:title=" ">
<polygon fill="white" stroke="#666666" points="270,-126 168,-126 168,-96 270,-96 270,-126"/>
<text text-anchor="start" x="176" y="-114" font-family="Arial" font-size="10.00">problem_setup.print</text>
<text text-anchor="middle" x="219" y="-103" font-family="Arial" font-size="10.00">_dbl_list</text>
</a>
</g>
</g>
<!-- Node1&#45;&gt;Node15 -->
<g id="edge14_Node000001_Node000015" class="edge">
<title>Node1&#45;&gt;Node15</title>
<g id="a_edge14_Node000001_Node000015"><a xlink:title=" ">
<path fill="none" stroke="#63b8ff" d="M65.4,-223.64C79.96,-201.07 110.08,-159.03 146,-135 149.97,-132.35 154.25,-129.96 158.69,-127.83"/>
<polygon fill="#63b8ff" stroke="#63b8ff" points="160.18,-130.99 167.94,-123.78 157.38,-124.58 160.18,-130.99"/>
</a>
</g>
</g>
<!-- Node16 -->
<g id="Node000016" class="node">
<title>Node16</title>
<g id="a_Node000016"><a xlink:href="namespaceproblem__setup.html#a4ddf3a3d37d5d2f916a55269590bd90c" target="_top" xlink:title=" ">
<polygon fill="white" stroke="#666666" points="271,-78 167,-78 167,-48 271,-48 271,-78"/>
<text text-anchor="start" x="175" y="-66" font-family="Arial" font-size="10.00">problem_setup.write</text>
<text text-anchor="middle" x="219" y="-55" font-family="Arial" font-size="10.00">_contact_zone_part</text>
</a>
</g>
</g>
<!-- Node1&#45;&gt;Node16 -->
<g id="edge15_Node000001_Node000016" class="edge">
<title>Node1&#45;&gt;Node16</title>
<g id="a_edge15_Node000001_Node000016"><a xlink:title=" ">
<path fill="none" stroke="#63b8ff" d="M60.97,-223.62C71.6,-193.09 99.46,-124.56 146,-87 149.56,-84.13 153.47,-81.6 157.58,-79.36"/>
<polygon fill="#63b8ff" stroke="#63b8ff" points="159.32,-82.41 166.83,-74.93 156.3,-76.1 159.32,-82.41"/>
</a>
</g>
</g>
<!-- Node17 -->
<g id="Node000017" class="node">
<title>Node17</title>
<g id="a_Node000017"><a xlink:href="namespaceproblem__setup.html#a4488d007c2f58e7f002b3a1c91fc828f" target="_top" xlink:title=" ">
<polygon fill="white" stroke="#666666" points="271,-30 167,-30 167,0 271,0 271,-30"/>
<text text-anchor="start" x="175" y="-18" font-family="Arial" font-size="10.00">problem_setup.write</text>
<text text-anchor="middle" x="219" y="-7" font-family="Arial" font-size="10.00">_material_zone_part</text>
</a>
</g>
</g>
<!-- Node1&#45;&gt;Node17 -->
<g id="edge16_Node000001_Node000017" class="edge">
<title>Node1&#45;&gt;Node17</title>
<g id="a_edge16_Node000001_Node000017"><a xlink:title=" ">
<path fill="none" stroke="#63b8ff" d="M58.55,-223.77C65.55,-186.69 88.51,-90.95 146,-39 149.45,-35.88 153.31,-33.17 157.41,-30.81"/>
<polygon fill="#63b8ff" stroke="#63b8ff" points="159.31,-33.78 166.7,-26.18 156.18,-27.51 159.31,-33.78"/>
</a>
</g>
</g>
<!-- Node4 -->
<g id="Node000004" class="node">
<title>Node4</title>
<g id="a_Node000004"><a xlink:href="namespaceproblem__setup.html#aff4594201e815ccb4330bbe21584f3a9" target="_top" xlink:title=" ">
<polygon fill="white" stroke="#666666" points="461.5,-430 348.5,-430 348.5,-400 461.5,-400 461.5,-430"/>
<text text-anchor="start" x="356.5" y="-418" font-family="Arial" font-size="10.00">problem_setup.get_ref</text>
<text text-anchor="middle" x="405" y="-407" font-family="Arial" font-size="10.00">_drum_points</text>
</a>
</g>
</g>
<!-- Node3&#45;&gt;Node4 -->
<g id="edge3_Node000003_Node000004" class="edge">
<title>Node3&#45;&gt;Node4</title>
<g id="a_edge3_Node000003_Node000004"><a xlink:title=" ">
<path fill="none" stroke="#63b8ff" d="M292.19,-415C307.33,-415 323.21,-415 338.1,-415"/>
<polygon fill="#63b8ff" stroke="#63b8ff" points="338.23,-418.5 348.23,-415 338.23,-411.5 338.23,-418.5"/>
</a>
</g>
</g>
<!-- Node5 -->
<g id="Node000005" class="node">
<title>Node5</title>
<g id="a_Node000005"><a xlink:href="namespaceproblem__setup.html#a985dacfd6be0ac3572b15624d629e2b7" target="_top" xlink:title=" ">
<polygon fill="white" stroke="#666666" points="626,-424.5 518,-424.5 518,-405.5 626,-405.5 626,-424.5"/>
<text text-anchor="middle" x="572" y="-412.5" font-family="Arial" font-size="10.00">problem_setup.rotate</text>
</a>
</g>
</g>
<!-- Node4&#45;&gt;Node5 -->
<g id="edge4_Node000004_Node000005" class="edge">
<title>Node4&#45;&gt;Node5</title>
<g id="a_edge4_Node000004_Node000005"><a xlink:title=" ">
<path fill="none" stroke="#63b8ff" d="M461.86,-415C476.6,-415 492.61,-415 507.7,-415"/>
<polygon fill="#63b8ff" stroke="#63b8ff" points="507.98,-418.5 517.98,-415 507.98,-411.5 507.98,-418.5"/>
</a>
</g>
</g>
<!-- Node7 -->
<g id="Node000007" class="node">
<title>Node7</title>
<g id="a_Node000007"><a xlink:href="namespaceproblem__setup.html#acb67d3097eb783b92c758558193b6de3" target="_top" xlink:title=" ">
<polygon fill="white" stroke="#666666" points="461.5,-382 348.5,-382 348.5,-352 461.5,-352 461.5,-382"/>
<text text-anchor="start" x="356.5" y="-370" font-family="Arial" font-size="10.00">problem_setup.get_ref</text>
<text text-anchor="middle" x="405" y="-359" font-family="Arial" font-size="10.00">_triangle_points</text>
</a>
</g>
</g>
<!-- Node6&#45;&gt;Node7 -->
<g id="edge6_Node000006_Node000007" class="edge">
<title>Node6&#45;&gt;Node7</title>
<g id="a_edge6_Node000006_Node000007"><a xlink:title=" ">
<path fill="none" stroke="#63b8ff" d="M280.25,-367C298.82,-367 319.35,-367 338.27,-367"/>
<polygon fill="#63b8ff" stroke="#63b8ff" points="338.29,-370.5 348.29,-367 338.29,-363.5 338.29,-370.5"/>
</a>
</g>
</g>
<!-- Node13 -->
<g id="Node000013" class="node">
<title>Node13</title>
<g id="a_Node000013"><a xlink:href="namespaceproblem__setup.html#a940f98fd749d846836ab2cb4c62cc8be" target="_top" xlink:title=" ">
<polygon fill="white" stroke="#666666" points="482,-195 328,-195 328,-165 482,-165 482,-195"/>
<text text-anchor="start" x="336" y="-183" font-family="Arial" font-size="10.00">problem_setup.does</text>
<text text-anchor="middle" x="405" y="-172" font-family="Arial" font-size="10.00">_intersect_with_cylindrical_wall</text>
</a>
</g>
</g>
<!-- Node12&#45;&gt;Node13 -->
<g id="edge12_Node000012_Node000013" class="edge">
<title>Node12&#45;&gt;Node13</title>
<g id="a_edge12_Node000012_Node000013"><a xlink:title=" ">
<path fill="none" stroke="#63b8ff" d="M276.71,-165.47C289.71,-166.96 303.82,-168.57 317.75,-170.16"/>
<polygon fill="#63b8ff" stroke="#63b8ff" points="317.51,-173.65 327.84,-171.31 318.3,-166.7 317.51,-173.65"/>
</a>
</g>
</g>
<!-- Node14 -->
<g id="Node000014" class="node">
<title>Node14</title>
<g id="a_Node000014"><a xlink:href="namespaceproblem__setup.html#a994bc08b964e2a925cf8160befb6d215" target="_top" xlink:title=" ">
<polygon fill="white" stroke="#666666" points="465.5,-146.5 344.5,-146.5 344.5,-127.5 465.5,-127.5 465.5,-146.5"/>
<text text-anchor="middle" x="405" y="-134.5" font-family="Arial" font-size="10.00">problem_setup.get_max</text>
</a>
</g>
</g>
<!-- Node12&#45;&gt;Node14 -->
<g id="edge13_Node000012_Node000014" class="edge">
<title>Node12&#45;&gt;Node14</title>
<g id="a_edge13_Node000012_Node000014"><a xlink:title=" ">
<path fill="none" stroke="#63b8ff" d="M276.71,-152.22C294.88,-150.05 315.21,-147.62 334.2,-145.35"/>
<polygon fill="#63b8ff" stroke="#63b8ff" points="334.78,-148.8 344.29,-144.14 333.95,-141.85 334.78,-148.8"/>
</a>
</g>
</g>
</g>
</svg>
