<?xml version="1.0" encoding="UTF-8" standalone="no"?>
<!DOCTYPE svg PUBLIC "-//W3C//DTD SVG 1.1//EN"
 "http://www.w3.org/Graphics/SVG/1.1/DTD/svg11.dtd">
<!-- Generated by graphviz version 2.43.0 (0)
 -->
<!-- Title: test::testMPI Pages: 1 -->
<svg width="696pt" height="415pt"
 viewBox="0.00 0.00 696.00 414.50" xmlns="http://www.w3.org/2000/svg" xmlns:xlink="http://www.w3.org/1999/xlink">
<g id="graph0" class="graph" transform="scale(1 1) rotate(0) translate(4 410.5)">
<title>test::testMPI</title>
<!-- Node1 -->
<g id="Node000001" class="node">
<title>Node1</title>
<g id="a_Node000001"><a xlink:title="Perform parallelization test using MPI on mesh partition based on metis.">
<polygon fill="#999999" stroke="#666666" points="74,-223 0,-223 0,-204 74,-204 74,-223"/>
<text text-anchor="middle" x="37" y="-211" font-family="Arial" font-size="10.00">test::testMPI</text>
</a>
</g>
</g>
<!-- Node2 -->
<g id="Node000002" class="node">
<title>Node2</title>
<g id="a_Node000002"><a xlink:href="namespacegeometry.html#aa6be622d915e92b3547e0dbb35c4b156" target="_top" xlink:title="Partitions the nodes based on node neighborlist supplied. Function first creates a graph with nodes a...">
<polygon fill="white" stroke="#666666" points="252,-406.5 113,-406.5 113,-376.5 252,-376.5 252,-406.5"/>
<text text-anchor="start" x="121" y="-394.5" font-family="Arial" font-size="10.00">geometry::computeNonlocal</text>
<text text-anchor="middle" x="182.5" y="-383.5" font-family="Arial" font-size="10.00">Neighborhood</text>
</a>
</g>
</g>
<!-- Node1&#45;&gt;Node2 -->
<g id="edge1_Node000001_Node000002" class="edge">
<title>Node1&#45;&gt;Node2</title>
<g id="a_edge1_Node000001_Node000002"><a xlink:title=" ">
<path fill="none" stroke="#63b8ff" d="M39.74,-223.01C45.11,-249.77 63.98,-326.43 110,-367.5 111.31,-368.67 112.68,-369.78 114.1,-370.84"/>
<polygon fill="#63b8ff" stroke="#63b8ff" points="112.37,-373.89 122.69,-376.33 116.15,-368 112.37,-373.89"/>
</a>
</g>
</g>
<!-- Node3 -->
<g id="Node000003" class="node">
<title>Node3</title>
<g id="a_Node000003"><a xlink:href="namespacefe.html#abe6bbc09314c74619abaa8c13f489335" target="_top" xlink:title="Creates uniform mesh for rectangle/cuboid domain.">
<polygon fill="white" stroke="#666666" points="240.5,-358 124.5,-358 124.5,-339 240.5,-339 240.5,-358"/>
<text text-anchor="middle" x="182.5" y="-346" font-family="Arial" font-size="10.00">fe::createUniformMesh</text>
</a>
</g>
</g>
<!-- Node1&#45;&gt;Node3 -->
<g id="edge2_Node000001_Node000003" class="edge">
<title>Node1&#45;&gt;Node3</title>
<g id="a_edge2_Node000001_Node000003"><a xlink:title=" ">
<path fill="none" stroke="#63b8ff" d="M41.07,-223.12C48.78,-245.63 71.15,-302 110,-330.5 111.89,-331.88 113.87,-333.16 115.92,-334.34"/>
<polygon fill="#63b8ff" stroke="#63b8ff" points="114.79,-337.69 125.32,-338.92 117.86,-331.39 114.79,-337.69"/>
</a>
</g>
</g>
<!-- Node4 -->
<g id="Node000004" class="node">
<title>Node4</title>
<g id="a_Node000004"><a xlink:href="namespaceanonymous__namespace_02testParallelCompLib_8cpp_03.html#a4d39e968562ef414dc37d135b277b056" target="_top" xlink:title=" ">
<polygon fill="white" stroke="#666666" points="248,-321 117,-321 117,-280 248,-280 248,-321"/>
<text text-anchor="start" x="125" y="-309" font-family="Arial" font-size="10.00">anonymous_namespace</text>
<text text-anchor="start" x="125" y="-298" font-family="Arial" font-size="10.00">{testParallelCompLib</text>
<text text-anchor="middle" x="182.5" y="-287" font-family="Arial" font-size="10.00">::cpp}::exchangeDispData</text>
</a>
</g>
</g>
<!-- Node1&#45;&gt;Node4 -->
<g id="edge3_Node000001_Node000004" class="edge">
<title>Node1&#45;&gt;Node4</title>
<g id="a_edge3_Node000001_Node000004"><a xlink:title=" ">
<path fill="none" stroke="#63b8ff" d="M50.05,-223.18C64.01,-234.16 87.92,-252.25 110,-265.5 115.52,-268.81 121.4,-272.08 127.33,-275.21"/>
<polygon fill="#63b8ff" stroke="#63b8ff" points="126.14,-278.53 136.63,-279.99 129.34,-272.31 126.14,-278.53"/>
</a>
</g>
</g>
<!-- Node5 -->
<g id="Node000005" class="node">
<title>Node5</title>
<g id="a_Node000005"><a xlink:href="namespaceutil_1_1io.html#a578a578ce41389fb01e56de7316b7054" target="_top" xlink:title="Prints formatted information.">
<polygon fill="white" stroke="#666666" points="381.5,-285 313.5,-285 313.5,-266 381.5,-266 381.5,-285"/>
<text text-anchor="middle" x="347.5" y="-273" font-family="Arial" font-size="10.00">util::io::print</text>
</a>
</g>
</g>
<!-- Node1&#45;&gt;Node5 -->
<g id="edge12_Node000001_Node000005" class="edge">
<title>Node1&#45;&gt;Node5</title>
<g id="a_edge12_Node000001_Node000005"><a xlink:title=" ">
<path fill="none" stroke="#63b8ff" d="M71.93,-223.04C83.91,-226.25 97.51,-229.72 110,-232.5 177.17,-247.45 255.94,-260.98 303.49,-268.72"/>
<polygon fill="#63b8ff" stroke="#63b8ff" points="303,-272.18 313.43,-270.33 304.12,-265.27 303,-272.18"/>
</a>
</g>
</g>
<!-- Node11 -->
<g id="Node000011" class="node">
<title>Node11</title>
<g id="a_Node000011"><a xlink:href="namespaceutil_1_1io.html#af88549ade477a5034a8f720753d9f2f9" target="_top" xlink:title="Get filename removing path from the string Source &#45; https://stackoverflow.com/a/24386991.">
<polygon fill="white" stroke="#666666" points="255,-223 110,-223 110,-204 255,-204 255,-223"/>
<text text-anchor="middle" x="182.5" y="-211" font-family="Arial" font-size="10.00">util::io::getFilenameFromPath</text>
</a>
</g>
</g>
<!-- Node1&#45;&gt;Node11 -->
<g id="edge9_Node000001_Node000011" class="edge">
<title>Node1&#45;&gt;Node11</title>
<g id="a_edge9_Node000001_Node000011"><a xlink:title=" ">
<path fill="none" stroke="#63b8ff" d="M74.21,-213.5C82.11,-213.5 90.79,-213.5 99.67,-213.5"/>
<polygon fill="#63b8ff" stroke="#63b8ff" points="99.76,-217 109.76,-213.5 99.76,-210 99.76,-217"/>
</a>
</g>
</g>
<!-- Node12 -->
<g id="Node000012" class="node">
<title>Node12</title>
<g id="a_Node000012"><a xlink:href="namespacefe.html#abf9d43e85d09aafbc240f14cd9508ab4" target="_top" xlink:title="Partitions the nodes based on node neighborlist supplied. Function first creates a graph with nodes a...">
<polygon fill="white" stroke="#666666" points="241,-186 124,-186 124,-167 241,-167 241,-186"/>
<text text-anchor="middle" x="182.5" y="-174" font-family="Arial" font-size="10.00">fe::metisGraphPartition</text>
</a>
</g>
</g>
<!-- Node1&#45;&gt;Node12 -->
<g id="edge10_Node000001_Node000012" class="edge">
<title>Node1&#45;&gt;Node12</title>
<g id="a_edge10_Node000001_Node000012"><a xlink:title=" ">
<path fill="none" stroke="#63b8ff" d="M73.87,-203.95C85.4,-200.9 98.23,-197.53 110,-194.5 117.58,-192.55 125.62,-190.5 133.47,-188.51"/>
<polygon fill="#63b8ff" stroke="#63b8ff" points="134.42,-191.88 143.26,-186.04 132.71,-185.09 134.42,-191.88"/>
</a>
</g>
</g>
<!-- Node14 -->
<g id="Node000014" class="node">
<title>Node14</title>
<g id="a_Node000014"><a xlink:href="namespaceanonymous__namespace_02testParallelCompLib_8cpp_03.html#a203213df0b872311cc21e15789f7a924" target="_top" xlink:title=" ">
<polygon fill="white" stroke="#666666" points="243.5,-149 121.5,-149 121.5,-108 243.5,-108 243.5,-149"/>
<text text-anchor="start" x="129.5" y="-137" font-family="Arial" font-size="10.00">anonymous_namespace</text>
<text text-anchor="start" x="129.5" y="-126" font-family="Arial" font-size="10.00">{testParallelCompLib</text>
<text text-anchor="middle" x="182.5" y="-115" font-family="Arial" font-size="10.00">::cpp}::printMsg</text>
</a>
</g>
</g>
<!-- Node1&#45;&gt;Node14 -->
<g id="edge13_Node000001_Node000014" class="edge">
<title>Node1&#45;&gt;Node14</title>
<g id="a_edge13_Node000001_Node000014"><a xlink:title=" ">
<path fill="none" stroke="#63b8ff" d="M48.55,-203.76C62.01,-191.71 86.41,-171.11 110,-157.5 112.31,-156.17 114.7,-154.86 117.13,-153.6"/>
<polygon fill="#63b8ff" stroke="#63b8ff" points="118.7,-156.73 126.11,-149.17 115.6,-150.45 118.7,-156.73"/>
</a>
</g>
</g>
<!-- Node15 -->
<g id="Node000015" class="node">
<title>Node15</title>
<g id="a_Node000015"><a xlink:href="namespaceutil_1_1io.html#ab41cbd366c1550587cc6d0bf1a088c5a" target="_top" xlink:title="Remove extension from the filename Source &#45; https://stackoverflow.com/a/24386991.">
<polygon fill="white" stroke="#666666" points="245,-89.5 120,-89.5 120,-59.5 245,-59.5 245,-89.5"/>
<text text-anchor="start" x="128" y="-77.5" font-family="Arial" font-size="10.00">util::io::removeExtension</text>
<text text-anchor="middle" x="182.5" y="-66.5" font-family="Arial" font-size="10.00">FromFile</text>
</a>
</g>
</g>
<!-- Node1&#45;&gt;Node15 -->
<g id="edge14_Node000001_Node000015" class="edge">
<title>Node1&#45;&gt;Node15</title>
<g id="a_edge14_Node000001_Node000015"><a xlink:title=" ">
<path fill="none" stroke="#63b8ff" d="M41.39,-203.92C49.64,-181.99 72.82,-127.81 110,-98.5 111.75,-97.12 113.59,-95.81 115.5,-94.58"/>
<polygon fill="#63b8ff" stroke="#63b8ff" points="117.23,-97.62 124.2,-89.64 113.77,-91.53 117.23,-97.62"/>
</a>
</g>
</g>
<!-- Node16 -->
<g id="Node000016" class="node">
<title>Node16</title>
<g id="a_Node000016"><a xlink:href="namespaceanonymous__namespace_02testParallelCompLib_8cpp_03.html#aac5392db88c3cc94a19e5eb4ab013d18" target="_top" xlink:title=" ">
<polygon fill="white" stroke="#666666" points="254,-41 111,-41 111,0 254,0 254,-41"/>
<text text-anchor="start" x="119" y="-29" font-family="Arial" font-size="10.00">anonymous_namespace</text>
<text text-anchor="start" x="119" y="-18" font-family="Arial" font-size="10.00">{testParallelCompLib</text>
<text text-anchor="middle" x="182.5" y="-7" font-family="Arial" font-size="10.00">::cpp}::setupOwnerAndGhost</text>
</a>
</g>
</g>
<!-- Node1&#45;&gt;Node16 -->
<g id="edge15_Node000001_Node000016" class="edge">
<title>Node1&#45;&gt;Node16</title>
<g id="a_edge15_Node000001_Node000016"><a xlink:title=" ">
<path fill="none" stroke="#63b8ff" d="M39.72,-203.61C45.07,-175.77 63.86,-95.79 110,-50.5 111.11,-49.41 112.27,-48.36 113.46,-47.34"/>
<polygon fill="#63b8ff" stroke="#63b8ff" points="115.89,-49.9 121.85,-41.14 111.73,-44.27 115.89,-49.9"/>
</a>
</g>
</g>
<!-- Node4&#45;&gt;Node5 -->
<g id="edge4_Node000004_Node000005" class="edge">
<title>Node4&#45;&gt;Node5</title>
<g id="a_edge4_Node000004_Node000005"><a xlink:title=" ">
<path fill="none" stroke="#63b8ff" d="M248.39,-290.55C266.77,-287.73 286.33,-284.73 303.11,-282.16"/>
<polygon fill="#63b8ff" stroke="#63b8ff" points="303.8,-285.59 313.16,-280.61 302.74,-278.67 303.8,-285.59"/>
</a>
</g>
</g>
<!-- Node6 -->
<g id="Node000006" class="node">
<title>Node6</title>
<g id="a_Node000006"><a xlink:href="namespaceutil_1_1parallel.html#adb80f14125b7556bb478cc3725508fa8" target="_top" xlink:title="get rank (id) of this processor">
<polygon fill="white" stroke="#666666" points="551,-304 440,-304 440,-285 551,-285 551,-304"/>
<text text-anchor="middle" x="495.5" y="-292" font-family="Arial" font-size="10.00">util::parallel::mpiRank</text>
</a>
</g>
</g>
<!-- Node5&#45;&gt;Node6 -->
<g id="edge5_Node000005_Node000006" class="edge">
<title>Node5&#45;&gt;Node6</title>
<g id="a_edge5_Node000005_Node000006"><a xlink:title=" ">
<path fill="none" stroke="#63b8ff" d="M381.63,-279.81C395.84,-281.66 412.96,-283.89 429.53,-286.04"/>
<polygon fill="#63b8ff" stroke="#63b8ff" points="429.37,-289.55 439.74,-287.37 430.27,-282.61 429.37,-289.55"/>
</a>
</g>
</g>
<!-- Node9 -->
<g id="Node000009" class="node">
<title>Node9</title>
<g id="a_Node000009"><a xlink:href="namespaceutil_1_1io.html#a3e537e3bd778616255015cde6e60a30a" target="_top" xlink:title="Returns formatted string for output.">
<polygon fill="white" stroke="#666666" points="535.5,-267 455.5,-267 455.5,-248 535.5,-248 535.5,-267"/>
<text text-anchor="middle" x="495.5" y="-255" font-family="Arial" font-size="10.00">util::io::printStr</text>
</a>
</g>
</g>
<!-- Node5&#45;&gt;Node9 -->
<g id="edge7_Node000005_Node000009" class="edge">
<title>Node5&#45;&gt;Node9</title>
<g id="a_edge7_Node000005_Node000009"><a xlink:title=" ">
<path fill="none" stroke="#63b8ff" d="M381.63,-271.42C400.43,-269.1 424.31,-266.15 445.27,-263.57"/>
<polygon fill="#63b8ff" stroke="#63b8ff" points="445.79,-267.03 455.28,-262.33 444.93,-260.08 445.79,-267.03"/>
</a>
</g>
</g>
<!-- Node7 -->
<g id="Node000007" class="node">
<title>Node7</title>
<g id="a_Node000007"><a xlink:href="namespaceutil_1_1parallel.html#aa0c65ae0f7fb6e0c4f3104c5bf3b1ff6" target="_top" xlink:title="Initializes MPI and also creates MpiStatus struct.">
<polygon fill="#fff0f0" stroke="red" points="688,-304 587,-304 587,-285 688,-285 688,-304"/>
<text text-anchor="middle" x="637.5" y="-292" font-family="Arial" font-size="10.00">util::parallel::initMpi</text>
</a>
</g>
</g>
<!-- Node6&#45;&gt;Node7 -->
<g id="edge6_Node000006_Node000007" class="edge">
<title>Node6&#45;&gt;Node7</title>
<g id="a_edge6_Node000006_Node000007"><a xlink:title=" ">
<path fill="none" stroke="#63b8ff" d="M551.03,-294.5C559.43,-294.5 568.15,-294.5 576.67,-294.5"/>
<polygon fill="#63b8ff" stroke="#63b8ff" points="576.92,-298 586.92,-294.5 576.92,-291 576.92,-298"/>
</a>
</g>
</g>
<!-- Node10 -->
<g id="Node000010" class="node">
<title>Node10</title>
<g id="a_Node000010"><a xlink:href="namespaceutil_1_1io.html#a38afb09a152cca4061850f4123bd3aeb" target="_top" xlink:title="Returns tab spaces of given size.">
<polygon fill="white" stroke="#666666" points="680,-267 595,-267 595,-248 680,-248 680,-267"/>
<text text-anchor="middle" x="637.5" y="-255" font-family="Arial" font-size="10.00">util::io::getTabS</text>
</a>
</g>
</g>
<!-- Node9&#45;&gt;Node10 -->
<g id="edge8_Node000009_Node000010" class="edge">
<title>Node9&#45;&gt;Node10</title>
<g id="a_edge8_Node000009_Node000010"><a xlink:title=" ">
<path fill="none" stroke="#63b8ff" d="M535.87,-257.5C551,-257.5 568.5,-257.5 584.63,-257.5"/>
<polygon fill="#63b8ff" stroke="#63b8ff" points="584.98,-261 594.98,-257.5 584.98,-254 584.98,-261"/>
</a>
</g>
</g>
<!-- Node13 -->
<g id="Node000013" class="node">
<title>Node13</title>
<g id="a_Node000013"><a xlink:href="namespaceutil_1_1methods.html#aaf9cfac99073d034d41e10d4d17e59a2" target="_top" xlink:title="Returns difference between two times.">
<polygon fill="white" stroke="#666666" points="404,-186 291,-186 291,-167 404,-167 404,-186"/>
<text text-anchor="middle" x="347.5" y="-174" font-family="Arial" font-size="10.00">util::methods::timeDiff</text>
</a>
</g>
</g>
<!-- Node12&#45;&gt;Node13 -->
<g id="edge11_Node000012_Node000013" class="edge">
<title>Node12&#45;&gt;Node13</title>
<g id="a_edge11_Node000012_Node000013"><a xlink:title=" ">
<path fill="none" stroke="#63b8ff" d="M241.43,-176.5C254.13,-176.5 267.68,-176.5 280.67,-176.5"/>
<polygon fill="#63b8ff" stroke="#63b8ff" points="280.95,-180 290.95,-176.5 280.95,-173 280.95,-180"/>
</a>
</g>
</g>
</g>
</svg>
