<?xml version="1.0" encoding="UTF-8" standalone="no"?>
<!DOCTYPE svg PUBLIC "-//W3C//DTD SVG 1.1//EN"
 "http://www.w3.org/Graphics/SVG/1.1/DTD/svg11.dtd">
<!-- Generated by graphviz version 2.43.0 (0)
 -->
<!-- Title: util::getCornerPoints Pages: 1 -->
<svg width="608pt" height="1825pt"
 viewBox="0.00 0.00 608.00 1825.00" xmlns="http://www.w3.org/2000/svg" xmlns:xlink="http://www.w3.org/1999/xlink">
<g id="graph0" class="graph" transform="scale(1 1) rotate(0) translate(4 1821)">
<title>util::getCornerPoints</title>
<!-- Node1 -->
<g id="node1" class="node">
<title>Node1</title>
<g id="a_node1"><a xlink:title="Returns all corner points in the box.">
<polygon fill="#bfbfbf" stroke="black" points="494,-863 494,-882 600,-882 600,-863 494,-863"/>
<text text-anchor="middle" x="547" y="-870" font-family="Arial" font-size="10.00">util::getCornerPoints</text>
</a>
</g>
</g>
<!-- Node2 -->
<g id="node2" class="node">
<title>Node2</title>
<g id="a_node2"><a xlink:href="namespaceutil.html#a21a4c0c512c91e3de03f432d304dd4bd" target="_top" xlink:title="Checks if given two boxes are within given distance from each other.">
<polygon fill="none" stroke="black" points="169.5,-1669 169.5,-1688 267.5,-1688 267.5,-1669 169.5,-1669"/>
<text text-anchor="middle" x="218.5" y="-1676" font-family="Arial" font-size="10.00">util::areBoxesNear</text>
</a>
</g>
</g>
<!-- Node1&#45;&gt;Node2 -->
<g id="edge1" class="edge">
<title>Node1&#45;&gt;Node2</title>
<path fill="none" stroke="midnightblue" d="M545.31,-892.03C540.98,-1008.6 515.96,-1609.48 458,-1664.5 402.35,-1717.33 302.58,-1701.11 251.52,-1688.06"/>
<polygon fill="midnightblue" stroke="midnightblue" points="548.8,-892.15 545.67,-882.03 541.81,-891.9 548.8,-892.15"/>
</g>
<!-- Node9 -->
<g id="node9" class="node">
<title>Node9</title>
<g id="a_node9"><a xlink:href="namespaceutil.html#af6ab7e8072282977994d4c13e470dfc7" target="_top" xlink:title="Computes the radius of smallest circle/sphere which can have the box inside.">
<polygon fill="none" stroke="black" points="321,-1624.5 321,-1654.5 448,-1654.5 448,-1624.5 321,-1624.5"/>
<text text-anchor="start" x="329" y="-1642.5" font-family="Arial" font-size="10.00">util::circumscribedRadius</text>
<text text-anchor="middle" x="384.5" y="-1631.5" font-family="Arial" font-size="10.00">InBox</text>
</a>
</g>
</g>
<!-- Node1&#45;&gt;Node9 -->
<g id="edge8" class="edge">
<title>Node1&#45;&gt;Node9</title>
<path fill="none" stroke="midnightblue" d="M546.25,-892.21C547.22,-997.4 546.91,-1492.21 458,-1609.5 453.39,-1615.58 447.33,-1620.43 440.67,-1624.31"/>
<polygon fill="midnightblue" stroke="midnightblue" points="549.75,-892.03 546.14,-882.07 542.75,-892.1 549.75,-892.03"/>
</g>
<!-- Node10 -->
<g id="node10" class="node">
<title>Node10</title>
<g id="a_node10"><a xlink:href="classutil_1_1geometry_1_1Circle.html#a26974c271cfd557a362709cfadca18a4" target="_top" xlink:title="Checks if box is within given distance of this object.">
<polygon fill="none" stroke="black" points="165,-1611.5 165,-1641.5 272,-1641.5 272,-1611.5 165,-1611.5"/>
<text text-anchor="start" x="173" y="-1629.5" font-family="Arial" font-size="10.00">util::geometry::Circle</text>
<text text-anchor="middle" x="218.5" y="-1618.5" font-family="Arial" font-size="10.00">::isNear</text>
</a>
</g>
</g>
<!-- Node1&#45;&gt;Node10 -->
<g id="edge35" class="edge">
<title>Node1&#45;&gt;Node10</title>
<path fill="none" stroke="midnightblue" d="M544.85,-892.27C538.4,-1000.73 505.14,-1520.52 458,-1572.5 445.52,-1586.26 338.65,-1606.44 272.27,-1617.84"/>
<polygon fill="midnightblue" stroke="midnightblue" points="548.36,-892.28 545.45,-882.09 541.37,-891.87 548.36,-892.28"/>
</g>
<!-- Node11 -->
<g id="node11" class="node">
<title>Node11</title>
<g id="a_node11"><a xlink:href="classutil_1_1geometry_1_1Sphere.html#af568776ec54d2ef7c99af31851ce0107" target="_top" xlink:title="Checks if box is within given distance of this object.">
<polygon fill="none" stroke="black" points="162,-1546.5 162,-1576.5 275,-1576.5 275,-1546.5 162,-1546.5"/>
<text text-anchor="start" x="170" y="-1564.5" font-family="Arial" font-size="10.00">util::geometry::Sphere</text>
<text text-anchor="middle" x="218.5" y="-1553.5" font-family="Arial" font-size="10.00">::isNear</text>
</a>
</g>
</g>
<!-- Node1&#45;&gt;Node11 -->
<g id="edge36" class="edge">
<title>Node1&#45;&gt;Node11</title>
<path fill="none" stroke="midnightblue" d="M544.83,-892.39C538.39,-998.23 505.92,-1492.24 458,-1538.5 410.19,-1584.65 329.18,-1582.16 275.02,-1573.76"/>
<polygon fill="midnightblue" stroke="midnightblue" points="548.33,-892.36 545.44,-882.17 541.35,-891.94 548.33,-892.36"/>
</g>
<!-- Node12 -->
<g id="node12" class="node">
<title>Node12</title>
<g id="a_node12"><a xlink:href="classutil_1_1geometry_1_1Triangle.html#ab336b566e145a206185bf467ceb6ee4b" target="_top" xlink:title="Checks if box intersects this object.">
<polygon fill="none" stroke="black" points="326.5,-1498.5 326.5,-1528.5 442.5,-1528.5 442.5,-1498.5 326.5,-1498.5"/>
<text text-anchor="start" x="334.5" y="-1516.5" font-family="Arial" font-size="10.00">util::geometry::Triangle</text>
<text text-anchor="middle" x="384.5" y="-1505.5" font-family="Arial" font-size="10.00">::doesIntersect</text>
</a>
</g>
</g>
<!-- Node1&#45;&gt;Node12 -->
<g id="edge12" class="edge">
<title>Node1&#45;&gt;Node12</title>
<path fill="none" stroke="midnightblue" d="M545.88,-892.59C544.93,-988.13 536.29,-1395.87 458,-1489.5 453.75,-1494.59 448.39,-1498.6 442.52,-1501.77"/>
<polygon fill="midnightblue" stroke="midnightblue" points="549.39,-892.33 545.97,-882.31 542.39,-892.28 549.39,-892.33"/>
</g>
<!-- Node13 -->
<g id="node13" class="node">
<title>Node13</title>
<g id="a_node13"><a xlink:href="classutil_1_1geometry_1_1Rectangle.html#a724fa34b45f8754fde600ab3d9df8e0e" target="_top" xlink:title="Checks if box intersects this object.">
<polygon fill="none" stroke="black" points="321.5,-1449.5 321.5,-1479.5 447.5,-1479.5 447.5,-1449.5 321.5,-1449.5"/>
<text text-anchor="start" x="329.5" y="-1467.5" font-family="Arial" font-size="10.00">util::geometry::Rectangle</text>
<text text-anchor="middle" x="384.5" y="-1456.5" font-family="Arial" font-size="10.00">::doesIntersect</text>
</a>
</g>
</g>
<!-- Node1&#45;&gt;Node13 -->
<g id="edge13" class="edge">
<title>Node1&#45;&gt;Node13</title>
<path fill="none" stroke="midnightblue" d="M545.61,-892.42C543.47,-982.97 530.33,-1355.04 458,-1440.5 455,-1444.04 451.47,-1447.06 447.6,-1449.64"/>
<polygon fill="midnightblue" stroke="midnightblue" points="549.11,-892.46 545.83,-882.39 542.12,-892.31 549.11,-892.46"/>
</g>
<!-- Node14 -->
<g id="node14" class="node">
<title>Node14</title>
<g id="a_node14"><a xlink:href="classutil_1_1geometry_1_1Hexagon.html#a2f1cf0bef5883401f5b63a517168ffa6" target="_top" xlink:title="Checks if box intersects this object.">
<polygon fill="none" stroke="black" points="324,-1400.5 324,-1430.5 445,-1430.5 445,-1400.5 324,-1400.5"/>
<text text-anchor="start" x="332" y="-1418.5" font-family="Arial" font-size="10.00">util::geometry::Hexagon</text>
<text text-anchor="middle" x="384.5" y="-1407.5" font-family="Arial" font-size="10.00">::doesIntersect</text>
</a>
</g>
</g>
<!-- Node1&#45;&gt;Node14 -->
<g id="edge14" class="edge">
<title>Node1&#45;&gt;Node14</title>
<path fill="none" stroke="midnightblue" d="M545.29,-892.57C541.85,-978.47 524.31,-1314.28 458,-1391.5 454.37,-1395.72 449.98,-1399.21 445.18,-1402.08"/>
<polygon fill="midnightblue" stroke="midnightblue" points="548.79,-892.48 545.68,-882.36 541.8,-892.22 548.79,-892.48"/>
</g>
<!-- Node15 -->
<g id="node15" class="node">
<title>Node15</title>
<g id="a_node15"><a xlink:href="classutil_1_1geometry_1_1Drum2D.html#a2a0fe6b9a648b051ddadb3dc4dd82cef" target="_top" xlink:title="Checks if box intersects this object.">
<polygon fill="none" stroke="black" points="325,-1351.5 325,-1381.5 444,-1381.5 444,-1351.5 325,-1351.5"/>
<text text-anchor="start" x="333" y="-1369.5" font-family="Arial" font-size="10.00">util::geometry::Drum2D</text>
<text text-anchor="middle" x="384.5" y="-1358.5" font-family="Arial" font-size="10.00">::doesIntersect</text>
</a>
</g>
</g>
<!-- Node1&#45;&gt;Node15 -->
<g id="edge15" class="edge">
<title>Node1&#45;&gt;Node15</title>
<path fill="none" stroke="midnightblue" d="M544.91,-892.44C540.11,-973 518.39,-1273.38 458,-1342.5 454.07,-1346.99 449.29,-1350.65 444.07,-1353.62"/>
<polygon fill="midnightblue" stroke="midnightblue" points="548.42,-892.39 545.5,-882.21 541.43,-891.99 548.42,-892.39"/>
</g>
<!-- Node16 -->
<g id="node16" class="node">
<title>Node16</title>
<g id="a_node16"><a xlink:href="classutil_1_1geometry_1_1Cuboid.html#a3c5ba8f887168ff7b4744323ae43f98a" target="_top" xlink:title="Checks if box intersects this object.">
<polygon fill="none" stroke="black" points="328,-1302.5 328,-1332.5 441,-1332.5 441,-1302.5 328,-1302.5"/>
<text text-anchor="start" x="336" y="-1320.5" font-family="Arial" font-size="10.00">util::geometry::Cuboid</text>
<text text-anchor="middle" x="384.5" y="-1309.5" font-family="Arial" font-size="10.00">::doesIntersect</text>
</a>
</g>
</g>
<!-- Node1&#45;&gt;Node16 -->
<g id="edge16" class="edge">
<title>Node1&#45;&gt;Node16</title>
<path fill="none" stroke="midnightblue" d="M544.45,-892.27C538.19,-967.17 512.5,-1232.43 458,-1293.5 453.32,-1298.74 447.47,-1302.84 441.14,-1306.05"/>
<polygon fill="midnightblue" stroke="midnightblue" points="547.94,-892.54 545.26,-882.29 540.96,-891.97 547.94,-892.54"/>
</g>
<!-- Node17 -->
<g id="node17" class="node">
<title>Node17</title>
<g id="a_node17"><a xlink:href="classutil_1_1geometry_1_1Circle.html#adbc338349dd5a7b81f7761055a19106e" target="_top" xlink:title="Checks if box intersects this object.">
<polygon fill="none" stroke="black" points="331,-1253.5 331,-1283.5 438,-1283.5 438,-1253.5 331,-1253.5"/>
<text text-anchor="start" x="339" y="-1271.5" font-family="Arial" font-size="10.00">util::geometry::Circle</text>
<text text-anchor="middle" x="384.5" y="-1260.5" font-family="Arial" font-size="10.00">::doesIntersect</text>
</a>
</g>
</g>
<!-- Node1&#45;&gt;Node17 -->
<g id="edge17" class="edge">
<title>Node1&#45;&gt;Node17</title>
<path fill="none" stroke="midnightblue" d="M543.87,-892.15C536.03,-961.2 506.63,-1191.43 458,-1244.5 452.54,-1250.46 445.56,-1254.95 438.1,-1258.32"/>
<polygon fill="midnightblue" stroke="midnightblue" points="547.36,-892.5 544.98,-882.17 540.4,-891.72 547.36,-892.5"/>
</g>
<!-- Node18 -->
<g id="node18" class="node">
<title>Node18</title>
<g id="a_node18"><a xlink:href="classutil_1_1geometry_1_1Cylinder.html#af0d78ed9af0e4513a4e2cf96862ef232" target="_top" xlink:title="Checks if box intersects this object.">
<polygon fill="none" stroke="black" points="325.5,-1204.5 325.5,-1234.5 443.5,-1234.5 443.5,-1204.5 325.5,-1204.5"/>
<text text-anchor="start" x="333.5" y="-1222.5" font-family="Arial" font-size="10.00">util::geometry::Cylinder</text>
<text text-anchor="middle" x="384.5" y="-1211.5" font-family="Arial" font-size="10.00">::doesIntersect</text>
</a>
</g>
</g>
<!-- Node1&#45;&gt;Node18 -->
<g id="edge18" class="edge">
<title>Node1&#45;&gt;Node18</title>
<path fill="none" stroke="midnightblue" d="M546.64,-892.52C547.32,-948.36 541.42,-1107.48 458,-1195.5 453.9,-1199.83 448.99,-1203.38 443.7,-1206.29"/>
<polygon fill="midnightblue" stroke="midnightblue" points="550.14,-892.16 546.43,-882.24 543.14,-892.31 550.14,-892.16"/>
</g>
<!-- Node19 -->
<g id="node19" class="node">
<title>Node19</title>
<g id="a_node19"><a xlink:href="classutil_1_1geometry_1_1Sphere.html#a9a2f43face7b6ea785ae009527d49a3d" target="_top" xlink:title="Checks if box intersects this object.">
<polygon fill="none" stroke="black" points="328,-1155.5 328,-1185.5 441,-1185.5 441,-1155.5 328,-1155.5"/>
<text text-anchor="start" x="336" y="-1173.5" font-family="Arial" font-size="10.00">util::geometry::Sphere</text>
<text text-anchor="middle" x="384.5" y="-1162.5" font-family="Arial" font-size="10.00">::doesIntersect</text>
</a>
</g>
</g>
<!-- Node1&#45;&gt;Node19 -->
<g id="edge19" class="edge">
<title>Node1&#45;&gt;Node19</title>
<path fill="none" stroke="midnightblue" d="M545.5,-892.11C543.16,-941.77 530.11,-1073.74 458,-1146.5 453.24,-1151.3 447.5,-1155.14 441.36,-1158.22"/>
<polygon fill="midnightblue" stroke="midnightblue" points="549,-892.19 545.87,-882.07 542,-891.93 549,-892.19"/>
</g>
<!-- Node20 -->
<g id="node20" class="node">
<title>Node20</title>
<g id="a_node20"><a xlink:href="classutil_1_1geometry_1_1AnnulusGeomObject.html#a28f16ee14996fe9579a2aa05ad62f09d" target="_top" xlink:title="Checks if box intersects this object.">
<polygon fill="none" stroke="black" points="313,-1106.5 313,-1136.5 456,-1136.5 456,-1106.5 313,-1106.5"/>
<text text-anchor="start" x="321" y="-1124.5" font-family="Arial" font-size="10.00">util::geometry::AnnulusGeom</text>
<text text-anchor="middle" x="384.5" y="-1113.5" font-family="Arial" font-size="10.00">Object::doesIntersect</text>
</a>
</g>
</g>
<!-- Node1&#45;&gt;Node20 -->
<g id="edge20" class="edge">
<title>Node1&#45;&gt;Node20</title>
<path fill="none" stroke="midnightblue" d="M543.88,-892.32C538.19,-935.76 518.63,-1040.01 458,-1097.5 454.34,-1100.97 450.18,-1103.93 445.73,-1106.47"/>
<polygon fill="midnightblue" stroke="midnightblue" points="547.38,-892.56 545.09,-882.21 540.43,-891.73 547.38,-892.56"/>
</g>
<!-- Node21 -->
<g id="node21" class="node">
<title>Node21</title>
<g id="a_node21"><a xlink:href="classutil_1_1geometry_1_1ComplexGeomObject.html#a98eb3e920ddff46b4913cfcdce1f96e6" target="_top" xlink:title="Checks if box intersects this object.">
<polygon fill="none" stroke="black" points="311,-1057.5 311,-1087.5 458,-1087.5 458,-1057.5 311,-1057.5"/>
<text text-anchor="start" x="319" y="-1075.5" font-family="Arial" font-size="10.00">util::geometry::ComplexGeom</text>
<text text-anchor="middle" x="384.5" y="-1064.5" font-family="Arial" font-size="10.00">Object::doesIntersect</text>
</a>
</g>
</g>
<!-- Node1&#45;&gt;Node21 -->
<g id="edge21" class="edge">
<title>Node1&#45;&gt;Node21</title>
<path fill="none" stroke="midnightblue" d="M540.81,-891.84C530.57,-926.53 504.61,-999.71 458,-1042.5 451.48,-1048.49 443.59,-1053.37 435.46,-1057.32"/>
<polygon fill="midnightblue" stroke="midnightblue" points="544.23,-892.59 543.59,-882.02 537.5,-890.69 544.23,-892.59"/>
</g>
<!-- Node22 -->
<g id="node22" class="node">
<title>Node22</title>
<g id="a_node22"><a xlink:href="namespaceutil.html#a46e3d78e899424dbb8144526b92fecf5" target="_top" xlink:title="Returns all corner points in the box.">
<polygon fill="none" stroke="black" points="346,-981 346,-1000 423,-1000 423,-981 346,-981"/>
<text text-anchor="middle" x="384.5" y="-988" font-family="Arial" font-size="10.00">util::getEdges</text>
</a>
</g>
</g>
<!-- Node1&#45;&gt;Node22 -->
<g id="edge22" class="edge">
<title>Node1&#45;&gt;Node22</title>
<path fill="none" stroke="midnightblue" d="M534.47,-890.74C519.51,-912.9 491.35,-949.86 458,-970.5 447.56,-976.96 435.02,-981.37 423.32,-984.37"/>
<polygon fill="midnightblue" stroke="midnightblue" points="537.48,-892.52 540.04,-882.24 531.63,-888.68 537.48,-892.52"/>
</g>
<!-- Node23 -->
<g id="node23" class="node">
<title>Node23</title>
<g id="a_node23"><a xlink:href="namespacetest.html#ad3c8cad23ca76bc12534c5487df9a25f" target="_top" xlink:title="Test methods">
<polygon fill="none" stroke="black" points="164.5,-1000 164.5,-1019 272.5,-1019 272.5,-1000 164.5,-1000"/>
<text text-anchor="middle" x="218.5" y="-1007" font-family="Arial" font-size="10.00">test::testUtilMethods</text>
</a>
</g>
</g>
<!-- Node1&#45;&gt;Node23 -->
<g id="edge47" class="edge">
<title>Node1&#45;&gt;Node23</title>
<path fill="none" stroke="midnightblue" d="M540.22,-891.94C529.71,-923.35 504.16,-984.29 458,-1009.5 392.77,-1045.13 301.76,-1030.79 253.19,-1019.04"/>
<polygon fill="midnightblue" stroke="midnightblue" points="543.63,-892.76 543.32,-882.17 536.96,-890.64 543.63,-892.76"/>
</g>
<!-- Node25 -->
<g id="node25" class="node">
<title>Node25</title>
<g id="a_node25"><a xlink:href="classutil_1_1geometry_1_1Triangle.html#a657a6acda31803b615f7cbe8c9dbca75" target="_top" xlink:title="Checks if box is completely inside.">
<polygon fill="none" stroke="black" points="326.5,-931.5 326.5,-961.5 442.5,-961.5 442.5,-931.5 326.5,-931.5"/>
<text text-anchor="start" x="334.5" y="-949.5" font-family="Arial" font-size="10.00">util::geometry::Triangle</text>
<text text-anchor="middle" x="384.5" y="-938.5" font-family="Arial" font-size="10.00">::isInside</text>
</a>
</g>
</g>
<!-- Node1&#45;&gt;Node25 -->
<g id="edge25" class="edge">
<title>Node1&#45;&gt;Node25</title>
<path fill="none" stroke="midnightblue" d="M521.96,-887.4C504.6,-897.79 480.36,-911.51 458,-921.5 450.1,-925.03 441.54,-928.38 433.16,-931.41"/>
<polygon fill="midnightblue" stroke="midnightblue" points="524.1,-890.19 530.85,-882.02 520.48,-884.21 524.1,-890.19"/>
</g>
<!-- Node26 -->
<g id="node26" class="node">
<title>Node26</title>
<g id="a_node26"><a xlink:href="classutil_1_1geometry_1_1Rectangle.html#a75c59ae79702a69b68bb9a77a6c3d228" target="_top" xlink:title="Checks if box is completely inside.">
<polygon fill="none" stroke="black" points="321.5,-882.5 321.5,-912.5 447.5,-912.5 447.5,-882.5 321.5,-882.5"/>
<text text-anchor="start" x="329.5" y="-900.5" font-family="Arial" font-size="10.00">util::geometry::Rectangle</text>
<text text-anchor="middle" x="384.5" y="-889.5" font-family="Arial" font-size="10.00">::isInside</text>
</a>
</g>
</g>
<!-- Node1&#45;&gt;Node26 -->
<g id="edge26" class="edge">
<title>Node1&#45;&gt;Node26</title>
<path fill="none" stroke="midnightblue" d="M483.68,-882.21C471.87,-884.05 459.51,-885.97 447.7,-887.81"/>
<polygon fill="midnightblue" stroke="midnightblue" points="484.55,-885.61 493.89,-880.62 483.47,-878.7 484.55,-885.61"/>
</g>
<!-- Node27 -->
<g id="node27" class="node">
<title>Node27</title>
<g id="a_node27"><a xlink:href="classutil_1_1geometry_1_1Hexagon.html#a090774f7ef43cd9cad2d70008aa0882f" target="_top" xlink:title="Checks if box is completely inside.">
<polygon fill="none" stroke="black" points="324,-833.5 324,-863.5 445,-863.5 445,-833.5 324,-833.5"/>
<text text-anchor="start" x="332" y="-851.5" font-family="Arial" font-size="10.00">util::geometry::Hexagon</text>
<text text-anchor="middle" x="384.5" y="-840.5" font-family="Arial" font-size="10.00">::isInside</text>
</a>
</g>
</g>
<!-- Node1&#45;&gt;Node27 -->
<g id="edge27" class="edge">
<title>Node1&#45;&gt;Node27</title>
<path fill="none" stroke="midnightblue" d="M483.85,-863.21C471.14,-861.31 457.78,-859.31 445.15,-857.42"/>
<polygon fill="midnightblue" stroke="midnightblue" points="483.48,-866.69 493.89,-864.71 484.52,-859.77 483.48,-866.69"/>
</g>
<!-- Node28 -->
<g id="node28" class="node">
<title>Node28</title>
<g id="a_node28"><a xlink:href="classutil_1_1geometry_1_1Drum2D.html#aa093f77301f351236427249fab32a4d5" target="_top" xlink:title="Checks if box is completely inside.">
<polygon fill="none" stroke="black" points="325,-784.5 325,-814.5 444,-814.5 444,-784.5 325,-784.5"/>
<text text-anchor="start" x="333" y="-802.5" font-family="Arial" font-size="10.00">util::geometry::Drum2D</text>
<text text-anchor="middle" x="384.5" y="-791.5" font-family="Arial" font-size="10.00">::isInside</text>
</a>
</g>
</g>
<!-- Node1&#45;&gt;Node28 -->
<g id="edge28" class="edge">
<title>Node1&#45;&gt;Node28</title>
<path fill="none" stroke="midnightblue" d="M522,-857.51C504.65,-847.09 480.42,-833.35 458,-823.5 450.72,-820.3 442.86,-817.28 435.11,-814.54"/>
<polygon fill="midnightblue" stroke="midnightblue" points="520.51,-860.71 530.87,-862.92 524.15,-854.73 520.51,-860.71"/>
</g>
<!-- Node29 -->
<g id="node29" class="node">
<title>Node29</title>
<g id="a_node29"><a xlink:href="classutil_1_1geometry_1_1Cuboid.html#aabfb6fb8ce91e729d9d009ebbb6efd18" target="_top" xlink:title="Checks if box is completely inside.">
<polygon fill="none" stroke="black" points="328,-735.5 328,-765.5 441,-765.5 441,-735.5 328,-735.5"/>
<text text-anchor="start" x="336" y="-753.5" font-family="Arial" font-size="10.00">util::geometry::Cuboid</text>
<text text-anchor="middle" x="384.5" y="-742.5" font-family="Arial" font-size="10.00">::isInside</text>
</a>
</g>
</g>
<!-- Node1&#45;&gt;Node29 -->
<g id="edge29" class="edge">
<title>Node1&#45;&gt;Node29</title>
<path fill="none" stroke="midnightblue" d="M534.29,-854.53C519.16,-832.66 490.82,-795.97 458,-774.5 452.79,-771.09 447.04,-768.12 441.14,-765.55"/>
<polygon fill="midnightblue" stroke="midnightblue" points="531.45,-856.58 539.94,-862.92 537.26,-852.67 531.45,-856.58"/>
</g>
<!-- Node30 -->
<g id="node30" class="node">
<title>Node30</title>
<g id="a_node30"><a xlink:href="classutil_1_1geometry_1_1Circle.html#aa862c874bf925581bdc810a461b3c50e" target="_top" xlink:title="Checks if box is completely inside.">
<polygon fill="none" stroke="black" points="331,-686.5 331,-716.5 438,-716.5 438,-686.5 331,-686.5"/>
<text text-anchor="start" x="339" y="-704.5" font-family="Arial" font-size="10.00">util::geometry::Circle</text>
<text text-anchor="middle" x="384.5" y="-693.5" font-family="Arial" font-size="10.00">::isInside</text>
</a>
</g>
</g>
<!-- Node1&#45;&gt;Node30 -->
<g id="edge30" class="edge">
<title>Node1&#45;&gt;Node30</title>
<path fill="none" stroke="midnightblue" d="M539.39,-852.88C527.82,-821.47 500.98,-759.94 458,-725.5 452.1,-720.77 445.24,-716.96 438.13,-713.89"/>
<polygon fill="midnightblue" stroke="midnightblue" points="536.21,-854.38 542.84,-862.64 542.81,-852.04 536.21,-854.38"/>
</g>
<!-- Node31 -->
<g id="node31" class="node">
<title>Node31</title>
<g id="a_node31"><a xlink:href="classutil_1_1geometry_1_1Cylinder.html#a479419fd2f08bcd66f3a226ae3a050d3" target="_top" xlink:title="Checks if box is completely inside.">
<polygon fill="none" stroke="black" points="325.5,-637.5 325.5,-667.5 443.5,-667.5 443.5,-637.5 325.5,-637.5"/>
<text text-anchor="start" x="333.5" y="-655.5" font-family="Arial" font-size="10.00">util::geometry::Cylinder</text>
<text text-anchor="middle" x="384.5" y="-644.5" font-family="Arial" font-size="10.00">::isInside</text>
</a>
</g>
</g>
<!-- Node1&#45;&gt;Node31 -->
<g id="edge31" class="edge">
<title>Node1&#45;&gt;Node31</title>
<path fill="none" stroke="midnightblue" d="M542.61,-852.83C534.84,-813.62 512.05,-725.28 458,-676.5 453.77,-672.68 448.91,-669.47 443.76,-666.76"/>
<polygon fill="midnightblue" stroke="midnightblue" points="539.18,-853.53 544.46,-862.72 546.06,-852.25 539.18,-853.53"/>
</g>
<!-- Node32 -->
<g id="node32" class="node">
<title>Node32</title>
<g id="a_node32"><a xlink:href="classutil_1_1geometry_1_1Sphere.html#a5109af3cdcaa98e879be6e79a51f7278" target="_top" xlink:title="Checks if box is completely inside.">
<polygon fill="none" stroke="black" points="328,-588.5 328,-618.5 441,-618.5 441,-588.5 328,-588.5"/>
<text text-anchor="start" x="336" y="-606.5" font-family="Arial" font-size="10.00">util::geometry::Sphere</text>
<text text-anchor="middle" x="384.5" y="-595.5" font-family="Arial" font-size="10.00">::isInside</text>
</a>
</g>
</g>
<!-- Node1&#45;&gt;Node32 -->
<g id="edge32" class="edge">
<title>Node1&#45;&gt;Node32</title>
<path fill="none" stroke="midnightblue" d="M544.62,-852.83C540.35,-806.81 523.33,-691.2 458,-627.5 453.16,-622.78 447.37,-618.99 441.2,-615.94"/>
<polygon fill="midnightblue" stroke="midnightblue" points="541.15,-853.28 545.46,-862.96 548.12,-852.7 541.15,-853.28"/>
</g>
<!-- Node33 -->
<g id="node33" class="node">
<title>Node33</title>
<g id="a_node33"><a xlink:href="classutil_1_1geometry_1_1AnnulusGeomObject.html#a49d30c1b21a8f859a44fa72fd7c1efda" target="_top" xlink:title="Checks if box is completely inside.">
<polygon fill="none" stroke="black" points="313,-539.5 313,-569.5 456,-569.5 456,-539.5 313,-539.5"/>
<text text-anchor="start" x="321" y="-557.5" font-family="Arial" font-size="10.00">util::geometry::AnnulusGeom</text>
<text text-anchor="middle" x="384.5" y="-546.5" font-family="Arial" font-size="10.00">Object::isInside</text>
</a>
</g>
</g>
<!-- Node1&#45;&gt;Node33 -->
<g id="edge33" class="edge">
<title>Node1&#45;&gt;Node33</title>
<path fill="none" stroke="midnightblue" d="M546,-852.54C544.9,-800.16 534.63,-657.37 458,-578.5 454.67,-575.08 450.85,-572.14 446.73,-569.62"/>
<polygon fill="midnightblue" stroke="midnightblue" points="542.5,-852.85 546.12,-862.81 549.5,-852.77 542.5,-852.85"/>
</g>
<!-- Node34 -->
<g id="node34" class="node">
<title>Node34</title>
<g id="a_node34"><a xlink:href="classutil_1_1geometry_1_1ComplexGeomObject.html#a571648b966d735daba34f56f772e930d" target="_top" xlink:title="Checks if box is completely inside.">
<polygon fill="none" stroke="black" points="311,-490.5 311,-520.5 458,-520.5 458,-490.5 311,-490.5"/>
<text text-anchor="start" x="319" y="-508.5" font-family="Arial" font-size="10.00">util::geometry::ComplexGeom</text>
<text text-anchor="middle" x="384.5" y="-497.5" font-family="Arial" font-size="10.00">Object::isInside</text>
</a>
</g>
</g>
<!-- Node1&#45;&gt;Node34 -->
<g id="edge34" class="edge">
<title>Node1&#45;&gt;Node34</title>
<path fill="none" stroke="midnightblue" d="M543.43,-852.72C534.54,-787.07 503.12,-577.82 458,-529.5 454.83,-526.11 451.18,-523.2 447.22,-520.69"/>
<polygon fill="midnightblue" stroke="midnightblue" points="540,-853.47 544.79,-862.93 546.94,-852.55 540,-853.47"/>
</g>
<!-- Node35 -->
<g id="node35" class="node">
<title>Node35</title>
<g id="a_node35"><a xlink:href="classutil_1_1geometry_1_1Triangle.html#a72685ff9c183f7432f28093b6f1b435d" target="_top" xlink:title="Checks if box is outside of the object.">
<polygon fill="none" stroke="black" points="326.5,-441.5 326.5,-471.5 442.5,-471.5 442.5,-441.5 326.5,-441.5"/>
<text text-anchor="start" x="334.5" y="-459.5" font-family="Arial" font-size="10.00">util::geometry::Triangle</text>
<text text-anchor="middle" x="384.5" y="-448.5" font-family="Arial" font-size="10.00">::isOutside</text>
</a>
</g>
</g>
<!-- Node1&#45;&gt;Node35 -->
<g id="edge37" class="edge">
<title>Node1&#45;&gt;Node35</title>
<path fill="none" stroke="midnightblue" d="M544.07,-852.28C536.81,-780.14 508.9,-536.69 458,-480.5 453.73,-475.78 448.51,-471.99 442.85,-468.94"/>
<polygon fill="midnightblue" stroke="midnightblue" points="540.63,-853.07 545.09,-862.68 547.6,-852.38 540.63,-853.07"/>
</g>
<!-- Node36 -->
<g id="node36" class="node">
<title>Node36</title>
<g id="a_node36"><a xlink:href="classutil_1_1geometry_1_1Rectangle.html#a3197df882f6bb720d75f8a04345dea44" target="_top" xlink:title="Checks if box is outside of the object.">
<polygon fill="none" stroke="black" points="321.5,-392.5 321.5,-422.5 447.5,-422.5 447.5,-392.5 321.5,-392.5"/>
<text text-anchor="start" x="329.5" y="-410.5" font-family="Arial" font-size="10.00">util::geometry::Rectangle</text>
<text text-anchor="middle" x="384.5" y="-399.5" font-family="Arial" font-size="10.00">::isOutside</text>
</a>
</g>
</g>
<!-- Node1&#45;&gt;Node36 -->
<g id="edge38" class="edge">
<title>Node1&#45;&gt;Node36</title>
<path fill="none" stroke="midnightblue" d="M544.62,-852.31C538.93,-774.57 514.82,-495.75 458,-431.5 454.93,-428.02 451.34,-425.05 447.43,-422.5"/>
<polygon fill="midnightblue" stroke="midnightblue" points="541.16,-852.91 545.36,-862.64 548.14,-852.41 541.16,-852.91"/>
</g>
<!-- Node37 -->
<g id="node37" class="node">
<title>Node37</title>
<g id="a_node37"><a xlink:href="classutil_1_1geometry_1_1Hexagon.html#a423ba0124bd5d63fe8649665b797e963" target="_top" xlink:title="Checks if box is outside of the object.">
<polygon fill="none" stroke="black" points="324,-343.5 324,-373.5 445,-373.5 445,-343.5 324,-343.5"/>
<text text-anchor="start" x="332" y="-361.5" font-family="Arial" font-size="10.00">util::geometry::Hexagon</text>
<text text-anchor="middle" x="384.5" y="-350.5" font-family="Arial" font-size="10.00">::isOutside</text>
</a>
</g>
</g>
<!-- Node1&#45;&gt;Node37 -->
<g id="edge39" class="edge">
<title>Node1&#45;&gt;Node37</title>
<path fill="none" stroke="midnightblue" d="M545.08,-852.76C540.88,-770.4 520.87,-455 458,-382.5 454.35,-378.29 449.95,-374.82 445.14,-371.95"/>
<polygon fill="midnightblue" stroke="midnightblue" points="541.59,-852.97 545.58,-862.79 548.58,-852.63 541.59,-852.97"/>
</g>
<!-- Node38 -->
<g id="node38" class="node">
<title>Node38</title>
<g id="a_node38"><a xlink:href="classutil_1_1geometry_1_1Drum2D.html#a5a8beef3ac922cc6c5d4e1ff055ff517" target="_top" xlink:title="Checks if box is outside of the object.">
<polygon fill="none" stroke="black" points="325,-294.5 325,-324.5 444,-324.5 444,-294.5 325,-294.5"/>
<text text-anchor="start" x="333" y="-312.5" font-family="Arial" font-size="10.00">util::geometry::Drum2D</text>
<text text-anchor="middle" x="384.5" y="-301.5" font-family="Arial" font-size="10.00">::isOutside</text>
</a>
</g>
</g>
<!-- Node1&#45;&gt;Node38 -->
<g id="edge40" class="edge">
<title>Node1&#45;&gt;Node38</title>
<path fill="none" stroke="midnightblue" d="M545.43,-852.5C542.53,-764.69 526.77,-414.08 458,-333.5 454.13,-328.96 449.38,-325.28 444.17,-322.29"/>
<polygon fill="midnightblue" stroke="midnightblue" points="541.94,-852.81 545.75,-862.69 548.93,-852.59 541.94,-852.81"/>
</g>
<!-- Node39 -->
<g id="node39" class="node">
<title>Node39</title>
<g id="a_node39"><a xlink:href="classutil_1_1geometry_1_1Cuboid.html#a5803fa107e54872e451ce4dab92d6068" target="_top" xlink:title="Checks if box is outside of the object.">
<polygon fill="none" stroke="black" points="328,-245.5 328,-275.5 441,-275.5 441,-245.5 328,-245.5"/>
<text text-anchor="start" x="336" y="-263.5" font-family="Arial" font-size="10.00">util::geometry::Cuboid</text>
<text text-anchor="middle" x="384.5" y="-252.5" font-family="Arial" font-size="10.00">::isOutside</text>
</a>
</g>
</g>
<!-- Node1&#45;&gt;Node39 -->
<g id="edge41" class="edge">
<title>Node1&#45;&gt;Node39</title>
<path fill="none" stroke="midnightblue" d="M545.73,-852.48C544.08,-759.82 532.75,-373.28 458,-284.5 453.39,-279.02 447.5,-274.79 441.07,-271.52"/>
<polygon fill="midnightblue" stroke="midnightblue" points="542.23,-852.77 545.89,-862.71 549.23,-852.66 542.23,-852.77"/>
</g>
<!-- Node40 -->
<g id="node40" class="node">
<title>Node40</title>
<g id="a_node40"><a xlink:href="classutil_1_1geometry_1_1Circle.html#a9661a4efaef65665710a9a41113825ed" target="_top" xlink:title="Checks if box is outside of the object.">
<polygon fill="none" stroke="black" points="331,-196.5 331,-226.5 438,-226.5 438,-196.5 331,-196.5"/>
<text text-anchor="start" x="339" y="-214.5" font-family="Arial" font-size="10.00">util::geometry::Circle</text>
<text text-anchor="middle" x="384.5" y="-203.5" font-family="Arial" font-size="10.00">::isOutside</text>
</a>
</g>
</g>
<!-- Node1&#45;&gt;Node40 -->
<g id="edge42" class="edge">
<title>Node1&#45;&gt;Node40</title>
<path fill="none" stroke="midnightblue" d="M545.98,-852.69C545.52,-755.8 538.82,-332.59 458,-235.5 452.74,-229.18 445.78,-224.52 438.24,-221.07"/>
<polygon fill="midnightblue" stroke="midnightblue" points="542.49,-852.85 546.02,-862.84 549.49,-852.83 542.49,-852.85"/>
</g>
<!-- Node41 -->
<g id="node41" class="node">
<title>Node41</title>
<g id="a_node41"><a xlink:href="classutil_1_1geometry_1_1Cylinder.html#a7bdbce69276f7d9a6db49d115a6d2db2" target="_top" xlink:title="Checks if box is outside of the object.">
<polygon fill="none" stroke="black" points="325.5,-147.5 325.5,-177.5 443.5,-177.5 443.5,-147.5 325.5,-147.5"/>
<text text-anchor="start" x="333.5" y="-165.5" font-family="Arial" font-size="10.00">util::geometry::Cylinder</text>
<text text-anchor="middle" x="384.5" y="-154.5" font-family="Arial" font-size="10.00">::isOutside</text>
</a>
</g>
</g>
<!-- Node1&#45;&gt;Node41 -->
<g id="edge43" class="edge">
<title>Node1&#45;&gt;Node41</title>
<path fill="none" stroke="midnightblue" d="M546.2,-852.46C546.83,-750.69 544.77,-291.78 458,-186.5 454.04,-181.69 449.08,-177.84 443.64,-174.76"/>
<polygon fill="midnightblue" stroke="midnightblue" points="542.7,-852.57 546.12,-862.6 549.7,-852.62 542.7,-852.57"/>
</g>
<!-- Node42 -->
<g id="node42" class="node">
<title>Node42</title>
<g id="a_node42"><a xlink:href="classutil_1_1geometry_1_1Sphere.html#a89c14b81a0f17cf1b5c8231d0f9173e4" target="_top" xlink:title="Checks if box is outside of the object.">
<polygon fill="none" stroke="black" points="328,-98.5 328,-128.5 441,-128.5 441,-98.5 328,-98.5"/>
<text text-anchor="start" x="336" y="-116.5" font-family="Arial" font-size="10.00">util::geometry::Sphere</text>
<text text-anchor="middle" x="384.5" y="-105.5" font-family="Arial" font-size="10.00">::isOutside</text>
</a>
</g>
</g>
<!-- Node1&#45;&gt;Node42 -->
<g id="edge44" class="edge">
<title>Node1&#45;&gt;Node42</title>
<path fill="none" stroke="midnightblue" d="M546.39,-852.73C548.07,-747.22 550.88,-251.16 458,-137.5 453.47,-131.96 447.62,-127.68 441.22,-124.39"/>
<polygon fill="midnightblue" stroke="midnightblue" points="542.89,-852.84 546.21,-862.9 549.89,-852.97 542.89,-852.84"/>
</g>
<!-- Node43 -->
<g id="node43" class="node">
<title>Node43</title>
<g id="a_node43"><a xlink:href="classutil_1_1geometry_1_1AnnulusGeomObject.html#aa2f78ef2978e66ea0b57c3edc3eac6cb" target="_top" xlink:title="Checks if box is outside of the object.">
<polygon fill="none" stroke="black" points="313,-49.5 313,-79.5 456,-79.5 456,-49.5 313,-49.5"/>
<text text-anchor="start" x="321" y="-67.5" font-family="Arial" font-size="10.00">util::geometry::AnnulusGeom</text>
<text text-anchor="middle" x="384.5" y="-56.5" font-family="Arial" font-size="10.00">Object::isOutside</text>
</a>
</g>
</g>
<!-- Node1&#45;&gt;Node43 -->
<g id="edge45" class="edge">
<title>Node1&#45;&gt;Node43</title>
<path fill="none" stroke="midnightblue" d="M545.04,-852.66C539.27,-736.72 507.73,-149.82 458,-88.5 455.24,-85.1 451.99,-82.18 448.42,-79.67"/>
<polygon fill="midnightblue" stroke="midnightblue" points="541.56,-853.08 545.54,-862.9 548.55,-852.74 541.56,-853.08"/>
</g>
<!-- Node44 -->
<g id="node44" class="node">
<title>Node44</title>
<g id="a_node44"><a xlink:href="classutil_1_1geometry_1_1ComplexGeomObject.html#aa4b67349660b2bd4e34cca2f7f433af4" target="_top" xlink:title="Checks if box is outside of the object.">
<polygon fill="none" stroke="black" points="311,-0.5 311,-30.5 458,-30.5 458,-0.5 311,-0.5"/>
<text text-anchor="start" x="319" y="-18.5" font-family="Arial" font-size="10.00">util::geometry::ComplexGeom</text>
<text text-anchor="middle" x="384.5" y="-7.5" font-family="Arial" font-size="10.00">Object::isOutside</text>
</a>
</g>
</g>
<!-- Node1&#45;&gt;Node44 -->
<g id="edge46" class="edge">
<title>Node1&#45;&gt;Node44</title>
<path fill="none" stroke="midnightblue" d="M545.17,-852.56C540.02,-732.14 510.76,-104.98 458,-39.5 455.26,-36.09 452.01,-33.17 448.45,-30.65"/>
<polygon fill="midnightblue" stroke="midnightblue" points="541.69,-853.02 545.61,-862.86 548.68,-852.72 541.69,-853.02"/>
</g>
<!-- Node3 -->
<g id="node3" class="node">
<title>Node3</title>
<g id="a_node3"><a xlink:href="classutil_1_1geometry_1_1Triangle.html#a48ae3ed64cecfc395906a1bf68bf973d" target="_top" xlink:title="Checks if box is within given distance of this object.">
<polygon fill="none" stroke="black" points="5,-1639.5 5,-1669.5 121,-1669.5 121,-1639.5 5,-1639.5"/>
<text text-anchor="start" x="13" y="-1657.5" font-family="Arial" font-size="10.00">util::geometry::Triangle</text>
<text text-anchor="middle" x="63" y="-1646.5" font-family="Arial" font-size="10.00">::isNear</text>
</a>
</g>
</g>
<!-- Node2&#45;&gt;Node3 -->
<g id="edge2" class="edge">
<title>Node2&#45;&gt;Node3</title>
<path fill="none" stroke="midnightblue" d="M159.46,-1669.43C146.91,-1667.46 133.64,-1665.39 121.12,-1663.43"/>
<polygon fill="midnightblue" stroke="midnightblue" points="158.93,-1672.89 169.35,-1670.97 160.01,-1665.97 158.93,-1672.89"/>
</g>
<!-- Node4 -->
<g id="node4" class="node">
<title>Node4</title>
<g id="a_node4"><a xlink:href="classutil_1_1geometry_1_1Rectangle.html#ab9e5e172e1a2542eb606f211562892ac" target="_top" xlink:title="Checks if box is within given distance of this object.">
<polygon fill="none" stroke="black" points="0,-1590.5 0,-1620.5 126,-1620.5 126,-1590.5 0,-1590.5"/>
<text text-anchor="start" x="8" y="-1608.5" font-family="Arial" font-size="10.00">util::geometry::Rectangle</text>
<text text-anchor="middle" x="63" y="-1597.5" font-family="Arial" font-size="10.00">::isNear</text>
</a>
</g>
</g>
<!-- Node2&#45;&gt;Node4 -->
<g id="edge3" class="edge">
<title>Node2&#45;&gt;Node4</title>
<path fill="none" stroke="midnightblue" d="M187.89,-1664.6C179.46,-1660.51 170.31,-1655.94 162,-1651.5 145.66,-1642.78 142.63,-1638.65 126,-1630.5 118.91,-1627.03 111.22,-1623.63 103.73,-1620.53"/>
<polygon fill="midnightblue" stroke="midnightblue" points="186.49,-1667.81 197.02,-1668.99 189.52,-1661.5 186.49,-1667.81"/>
</g>
<!-- Node5 -->
<g id="node5" class="node">
<title>Node5</title>
<g id="a_node5"><a xlink:href="classutil_1_1geometry_1_1Hexagon.html#a22113f305ef928c9bf09b0817a68ea8f" target="_top" xlink:title="Checks if box is within given distance of this object.">
<polygon fill="none" stroke="black" points="2.5,-1541.5 2.5,-1571.5 123.5,-1571.5 123.5,-1541.5 2.5,-1541.5"/>
<text text-anchor="start" x="10.5" y="-1559.5" font-family="Arial" font-size="10.00">util::geometry::Hexagon</text>
<text text-anchor="middle" x="63" y="-1548.5" font-family="Arial" font-size="10.00">::isNear</text>
</a>
</g>
</g>
<!-- Node2&#45;&gt;Node5 -->
<g id="edge4" class="edge">
<title>Node2&#45;&gt;Node5</title>
<path fill="none" stroke="midnightblue" d="M180.31,-1664.56C173.71,-1660.98 167.27,-1656.65 162,-1651.5 136.99,-1627.04 151.85,-1605.08 126,-1581.5 121.8,-1577.67 116.93,-1574.39 111.81,-1571.59"/>
<polygon fill="midnightblue" stroke="midnightblue" points="178.8,-1667.72 189.32,-1668.99 181.89,-1661.44 178.8,-1667.72"/>
</g>
<!-- Node6 -->
<g id="node6" class="node">
<title>Node6</title>
<g id="a_node6"><a xlink:href="classutil_1_1geometry_1_1Drum2D.html#a6b4a0ee14758e9354d6e3566e74edfc9" target="_top" xlink:title="Checks if box is within given distance of this object.">
<polygon fill="none" stroke="black" points="3.5,-1786.5 3.5,-1816.5 122.5,-1816.5 122.5,-1786.5 3.5,-1786.5"/>
<text text-anchor="start" x="11.5" y="-1804.5" font-family="Arial" font-size="10.00">util::geometry::Drum2D</text>
<text text-anchor="middle" x="63" y="-1793.5" font-family="Arial" font-size="10.00">::isNear</text>
</a>
</g>
</g>
<!-- Node2&#45;&gt;Node6 -->
<g id="edge5" class="edge">
<title>Node2&#45;&gt;Node6</title>
<path fill="none" stroke="midnightblue" d="M205.02,-1696.36C188.98,-1718.17 159.19,-1754.93 126,-1777.5 121.04,-1780.87 115.53,-1783.87 109.91,-1786.5"/>
<polygon fill="midnightblue" stroke="midnightblue" points="208.03,-1698.18 211.03,-1688.02 202.35,-1694.09 208.03,-1698.18"/>
</g>
<!-- Node7 -->
<g id="node7" class="node">
<title>Node7</title>
<g id="a_node7"><a xlink:href="classutil_1_1geometry_1_1Cuboid.html#ac88433cc43e94f4f1a399ba8776e4986" target="_top" xlink:title="Checks if box is within given distance of this object.">
<polygon fill="none" stroke="black" points="6.5,-1737.5 6.5,-1767.5 119.5,-1767.5 119.5,-1737.5 6.5,-1737.5"/>
<text text-anchor="start" x="14.5" y="-1755.5" font-family="Arial" font-size="10.00">util::geometry::Cuboid</text>
<text text-anchor="middle" x="63" y="-1744.5" font-family="Arial" font-size="10.00">::isNear</text>
</a>
</g>
</g>
<!-- Node2&#45;&gt;Node7 -->
<g id="edge6" class="edge">
<title>Node2&#45;&gt;Node7</title>
<path fill="none" stroke="midnightblue" d="M192.85,-1693.12C174.69,-1703.6 149.21,-1717.72 126,-1728.5 119.3,-1731.61 112.08,-1734.67 105.01,-1737.5"/>
<polygon fill="midnightblue" stroke="midnightblue" points="194.75,-1696.06 201.63,-1688 191.23,-1690.01 194.75,-1696.06"/>
</g>
<!-- Node8 -->
<g id="node8" class="node">
<title>Node8</title>
<g id="a_node8"><a xlink:href="classutil_1_1geometry_1_1Cylinder.html#a5e2547782e3c159abff3977dd872a8cc" target="_top" xlink:title="Checks if box is within given distance of this object.">
<polygon fill="none" stroke="black" points="4,-1688.5 4,-1718.5 122,-1718.5 122,-1688.5 4,-1688.5"/>
<text text-anchor="start" x="12" y="-1706.5" font-family="Arial" font-size="10.00">util::geometry::Cylinder</text>
<text text-anchor="middle" x="63" y="-1695.5" font-family="Arial" font-size="10.00">::isNear</text>
</a>
</g>
</g>
<!-- Node2&#45;&gt;Node8 -->
<g id="edge7" class="edge">
<title>Node2&#45;&gt;Node8</title>
<path fill="none" stroke="midnightblue" d="M159.33,-1687.97C147.18,-1689.95 134.37,-1692.04 122.21,-1694.02"/>
<polygon fill="midnightblue" stroke="midnightblue" points="160.05,-1691.4 169.35,-1686.34 158.92,-1684.49 160.05,-1691.4"/>
</g>
<!-- Node9&#45;&gt;Node2 -->
<g id="edge9" class="edge">
<title>Node9&#45;&gt;Node2</title>
<path fill="none" stroke="midnightblue" d="M310.4,-1656.88C293,-1661.02 275.06,-1665.29 259.76,-1668.93"/>
<polygon fill="midnightblue" stroke="midnightblue" points="311.64,-1660.19 320.56,-1654.47 310.02,-1653.38 311.64,-1660.19"/>
</g>
<!-- Node9&#45;&gt;Node10 -->
<g id="edge10" class="edge">
<title>Node9&#45;&gt;Node10</title>
<path fill="none" stroke="midnightblue" d="M310.33,-1633.7C297.47,-1632.68 284.31,-1631.64 272.15,-1630.67"/>
<polygon fill="midnightblue" stroke="midnightblue" points="310.32,-1637.21 320.56,-1634.51 310.87,-1630.23 310.32,-1637.21"/>
</g>
<!-- Node9&#45;&gt;Node11 -->
<g id="edge11" class="edge">
<title>Node9&#45;&gt;Node11</title>
<path fill="none" stroke="midnightblue" d="M342.66,-1620.08C314.41,-1606.64 277.36,-1589.02 251.3,-1576.63"/>
<polygon fill="midnightblue" stroke="midnightblue" points="341.35,-1623.33 351.88,-1624.46 344.35,-1617 341.35,-1623.33"/>
</g>
<!-- Node22&#45;&gt;Node23 -->
<g id="edge23" class="edge">
<title>Node22&#45;&gt;Node23</title>
<path fill="none" stroke="midnightblue" d="M335.87,-996.02C316.12,-998.31 293.11,-1000.97 272.8,-1003.33"/>
<polygon fill="midnightblue" stroke="midnightblue" points="336.34,-999.49 345.88,-994.86 335.54,-992.53 336.34,-999.49"/>
</g>
<!-- Node24 -->
<g id="node24" class="node">
<title>Node24</title>
<g id="a_node24"><a xlink:href="testUtil_8cpp.html#a0ddf1224851353fc92bfbff6f499fa97" target="_top" xlink:title=" ">
<polygon fill="none" stroke="black" points="44,-1000 44,-1019 82,-1019 82,-1000 44,-1000"/>
<text text-anchor="middle" x="63" y="-1007" font-family="Arial" font-size="10.00">main</text>
</a>
</g>
</g>
<!-- Node23&#45;&gt;Node24 -->
<g id="edge24" class="edge">
<title>Node23&#45;&gt;Node24</title>
<path fill="none" stroke="midnightblue" d="M154.03,-1009.5C128.03,-1009.5 99.93,-1009.5 82.16,-1009.5"/>
<polygon fill="midnightblue" stroke="midnightblue" points="154.24,-1013 164.24,-1009.5 154.24,-1006 154.24,-1013"/>
</g>
</g>
</svg>
