<?xml version="1.0" encoding="UTF-8" standalone="no"?>
<!DOCTYPE svg PUBLIC "-//W3C//DTD SVG 1.1//EN"
 "http://www.w3.org/Graphics/SVG/1.1/DTD/svg11.dtd">
<!-- Generated by graphviz version 2.43.0 (0)
 -->
<!-- Title: problem_setup.print_dbl_list Pages: 1 -->
<svg width="802pt" height="573pt"
 viewBox="0.00 0.00 802.00 573.08" xmlns="http://www.w3.org/2000/svg" xmlns:xlink="http://www.w3.org/1999/xlink">
<g id="graph0" class="graph" transform="scale(1 1) rotate(0) translate(4 569.08)">
<title>problem_setup.print_dbl_list</title>
<!-- Node1 -->
<g id="node1" class="node">
<title>Node1</title>
<g id="a_node1"><a xlink:title=" ">
<polygon fill="#bfbfbf" stroke="black" points="692,-310.16 692,-340.16 794,-340.16 794,-310.16 692,-310.16"/>
<text text-anchor="start" x="700" y="-328.16" font-family="Arial" font-size="10.00">problem_setup.print</text>
<text text-anchor="middle" x="743" y="-317.16" font-family="Arial" font-size="10.00">_dbl_list</text>
</a>
</g>
</g>
<!-- Node2 -->
<g id="node2" class="node">
<title>Node2</title>
<g id="a_node2"><a xlink:href="namespaceproblem__setup.html#a64e067098e447f766d042476ef5abe85" target="_top" xlink:title=" ">
<polygon fill="none" stroke="black" points="546,-310.16 546,-340.16 656,-340.16 656,-310.16 546,-310.16"/>
<text text-anchor="start" x="554" y="-328.16" font-family="Arial" font-size="10.00">problem_setup.create</text>
<text text-anchor="middle" x="601" y="-317.16" font-family="Arial" font-size="10.00">_input_file</text>
</a>
</g>
</g>
<!-- Node1&#45;&gt;Node2 -->
<g id="edge1" class="edge">
<title>Node1&#45;&gt;Node2</title>
<path fill="none" stroke="midnightblue" d="M681.62,-325.16C673.12,-325.16 664.43,-325.16 656.06,-325.16"/>
<polygon fill="midnightblue" stroke="midnightblue" points="681.85,-328.66 691.85,-325.16 681.85,-321.66 681.85,-328.66"/>
</g>
<!-- Node3 -->
<g id="node3" class="node">
<title>Node3</title>
<g id="a_node3"><a xlink:href="namespaceproblem__setup.html#a2c232d3bae603961390ef3d3ee28fe81" target="_top" xlink:title=" ">
<polygon fill="none" stroke="black" points="346.5,-501.16 346.5,-531.16 489.5,-531.16 489.5,-501.16 346.5,-501.16"/>
<text text-anchor="start" x="354.5" y="-519.16" font-family="Arial" font-size="10.00">problem_setup.generate</text>
<text text-anchor="middle" x="418" y="-508.16" font-family="Arial" font-size="10.00">_cylindrical_wall_gmsh_input</text>
</a>
</g>
</g>
<!-- Node1&#45;&gt;Node3 -->
<g id="edge17" class="edge">
<title>Node1&#45;&gt;Node3</title>
<path fill="none" stroke="midnightblue" d="M727.87,-349.08C712.72,-372.94 686.67,-409.23 656,-432.16 606.7,-469.01 539.81,-490.75 489.66,-502.84"/>
<polygon fill="midnightblue" stroke="midnightblue" points="731.01,-350.65 733.31,-340.3 725.06,-346.96 731.01,-350.65"/>
</g>
<!-- Node4 -->
<g id="node4" class="node">
<title>Node4</title>
<g id="a_node4"><a xlink:href="namespaceproblem__setup.html#aff5393227de056de45cfc082e05af1ca" target="_top" xlink:title=" ">
<polygon fill="none" stroke="black" points="350,-452.16 350,-482.16 486,-482.16 486,-452.16 350,-452.16"/>
<text text-anchor="start" x="358" y="-470.16" font-family="Arial" font-size="10.00">problem_setup.generate</text>
<text text-anchor="middle" x="418" y="-459.16" font-family="Arial" font-size="10.00">_drum_particle_gmsh_input</text>
</a>
</g>
</g>
<!-- Node1&#45;&gt;Node4 -->
<g id="edge18" class="edge">
<title>Node1&#45;&gt;Node4</title>
<path fill="none" stroke="midnightblue" d="M720.46,-347.81C704.11,-363.85 680.35,-384.81 656,-398.16 602.54,-427.46 535.32,-445.5 486.13,-455.75"/>
<polygon fill="midnightblue" stroke="midnightblue" points="723.29,-349.94 727.87,-340.38 718.33,-345 723.29,-349.94"/>
</g>
<!-- Node5 -->
<g id="node5" class="node">
<title>Node5</title>
<g id="a_node5"><a xlink:href="namespaceproblem__setup.html#ae8a464882c2862a981f40e102eddeb7d" target="_top" xlink:title=" ">
<polygon fill="none" stroke="black" points="341.5,-403.16 341.5,-433.16 494.5,-433.16 494.5,-403.16 341.5,-403.16"/>
<text text-anchor="start" x="349.5" y="-421.16" font-family="Arial" font-size="10.00">problem_setup.generate</text>
<text text-anchor="middle" x="418" y="-410.16" font-family="Arial" font-size="10.00">_moving_rect_wall_gmsh_input</text>
</a>
</g>
</g>
<!-- Node1&#45;&gt;Node5 -->
<g id="edge19" class="edge">
<title>Node1&#45;&gt;Node5</title>
<path fill="none" stroke="midnightblue" d="M708.9,-345.29C693.31,-354.02 674.19,-363.7 656,-370.16 603.58,-388.76 541.93,-400.96 494.65,-408.41"/>
<polygon fill="midnightblue" stroke="midnightblue" points="710.69,-348.29 717.63,-340.28 707.21,-342.22 710.69,-348.29"/>
</g>
<!-- Node6 -->
<g id="node6" class="node">
<title>Node6</title>
<g id="a_node6"><a xlink:href="namespaceproblem__setup.html#a8c789550cc1b70abe559c976bcf664e4" target="_top" xlink:title=" ">
<polygon fill="none" stroke="black" points="352.5,-354.16 352.5,-384.16 483.5,-384.16 483.5,-354.16 352.5,-354.16"/>
<text text-anchor="start" x="360.5" y="-372.16" font-family="Arial" font-size="10.00">problem_setup.generate</text>
<text text-anchor="middle" x="418" y="-361.16" font-family="Arial" font-size="10.00">_moving_wall_gmsh_input</text>
</a>
</g>
</g>
<!-- Node1&#45;&gt;Node6 -->
<g id="edge20" class="edge">
<title>Node1&#45;&gt;Node6</title>
<path fill="none" stroke="midnightblue" d="M686.53,-343.06C676.46,-345.81 665.98,-348.33 656,-350.16 598.25,-360.75 531.5,-365.44 483.59,-367.51"/>
<polygon fill="midnightblue" stroke="midnightblue" points="687.77,-346.35 696.44,-340.27 685.87,-339.62 687.77,-346.35"/>
</g>
<!-- Node7 -->
<g id="node7" class="node">
<title>Node7</title>
<g id="a_node7"><a xlink:href="namespaceproblem__setup.html#a147f310ff74124342d15ab356739883f" target="_top" xlink:title=" ">
<polygon fill="none" stroke="black" points="357.5,-266.16 357.5,-296.16 478.5,-296.16 478.5,-266.16 357.5,-266.16"/>
<text text-anchor="start" x="365.5" y="-284.16" font-family="Arial" font-size="10.00">problem_setup.generate</text>
<text text-anchor="middle" x="418" y="-273.16" font-family="Arial" font-size="10.00">_particle_gmsh_input</text>
</a>
</g>
</g>
<!-- Node1&#45;&gt;Node7 -->
<g id="edge21" class="edge">
<title>Node1&#45;&gt;Node7</title>
<path fill="none" stroke="midnightblue" d="M684.45,-307.5C675.01,-305.06 665.28,-302.83 656,-301.16 596.26,-290.4 526.98,-285.4 478.82,-283.1"/>
<polygon fill="midnightblue" stroke="midnightblue" points="683.59,-310.89 694.16,-310.09 685.4,-304.13 683.59,-310.89"/>
</g>
<!-- Node9 -->
<g id="node9" class="node">
<title>Node9</title>
<g id="a_node9"><a xlink:href="namespaceproblem__setup.html#af51753c1e02e9634827a449ab8729d44" target="_top" xlink:title=" ">
<polygon fill="none" stroke="black" points="160,-217.16 160,-247.16 281,-247.16 281,-217.16 160,-217.16"/>
<text text-anchor="start" x="168" y="-235.16" font-family="Arial" font-size="10.00">problem_setup.generate</text>
<text text-anchor="middle" x="220.5" y="-224.16" font-family="Arial" font-size="10.00">_wall_gmsh_input</text>
</a>
</g>
</g>
<!-- Node1&#45;&gt;Node9 -->
<g id="edge24" class="edge">
<title>Node1&#45;&gt;Node9</title>
<path fill="none" stroke="midnightblue" d="M730.27,-300.81C715.98,-273.32 689.56,-228.71 656,-200.16 601.33,-153.66 580.03,-146.87 510,-131.16 430.21,-113.25 401.82,-100.51 326,-131.16 282.96,-148.56 247.8,-193.12 231.43,-216.81"/>
<polygon fill="midnightblue" stroke="midnightblue" points="727.16,-302.43 734.8,-309.77 733.41,-299.26 727.16,-302.43"/>
</g>
<!-- Node10 -->
<g id="node10" class="node">
<title>Node10</title>
<g id="a_node10"><a xlink:href="namespaceproblem__setup.html#a704799249dad2aafe57eedd971030266" target="_top" xlink:title=" ">
<polygon fill="none" stroke="black" points="163,-315.16 163,-345.16 278,-345.16 278,-315.16 163,-315.16"/>
<text text-anchor="start" x="171" y="-333.16" font-family="Arial" font-size="10.00">problem_setup.particle</text>
<text text-anchor="middle" x="220.5" y="-322.16" font-family="Arial" font-size="10.00">_locations_orient</text>
</a>
</g>
</g>
<!-- Node1&#45;&gt;Node10 -->
<g id="edge26" class="edge">
<title>Node1&#45;&gt;Node10</title>
<path fill="none" stroke="midnightblue" d="M732.97,-350.17C720.23,-382.35 694.21,-438.26 656,-473.16 603.15,-521.43 579.89,-525.68 510,-541.16 430.16,-558.84 395.48,-584.28 326,-541.16 253.93,-496.43 230.04,-385.59 223.57,-345.19"/>
<polygon fill="midnightblue" stroke="midnightblue" points="736.32,-351.2 736.63,-340.61 729.78,-348.69 736.32,-351.2"/>
</g>
<!-- Node11 -->
<g id="node11" class="node">
<title>Node11</title>
<g id="a_node11"><a xlink:href="namespaceproblem__setup.html#a9a8d53047175304f4c44b93a2f6fa482" target="_top" xlink:title=" ">
<polygon fill="none" stroke="black" points="151,-47.16 151,-77.16 290,-77.16 290,-47.16 151,-47.16"/>
<text text-anchor="start" x="159" y="-65.16" font-family="Arial" font-size="10.00">problem_setup.generate</text>
<text text-anchor="middle" x="220.5" y="-54.16" font-family="Arial" font-size="10.00">_rect_container_gmsh_input</text>
</a>
</g>
</g>
<!-- Node1&#45;&gt;Node11 -->
<g id="edge22" class="edge">
<title>Node1&#45;&gt;Node11</title>
<path fill="none" stroke="midnightblue" d="M742.21,-299.78C741.17,-245.45 730.46,-117.71 656,-54.16 541.23,43.8 340.59,-16.18 258.3,-47.11"/>
<polygon fill="midnightblue" stroke="midnightblue" points="738.71,-299.95 742.31,-309.91 745.71,-299.88 738.71,-299.95"/>
</g>
<!-- Node13 -->
<g id="node13" class="node">
<title>Node13</title>
<g id="a_node13"><a xlink:href="namespaceproblem__setup.html#ab2d86f4fe187ef9b78d1ad4ea438b98b" target="_top" xlink:title=" ">
<polygon fill="none" stroke="black" points="326,-41.66 326,-82.66 510,-82.66 510,-41.66 326,-41.66"/>
<text text-anchor="start" x="334" y="-70.66" font-family="Arial" font-size="10.00">problem_setup.generate</text>
<text text-anchor="start" x="334" y="-59.66" font-family="Arial" font-size="10.00">_rectangle_with_protrusion</text>
<text text-anchor="middle" x="418" y="-48.66" font-family="Arial" font-size="10.00">_and_opening_wall_gmsh_input_type3</text>
</a>
</g>
</g>
<!-- Node1&#45;&gt;Node13 -->
<g id="edge23" class="edge">
<title>Node1&#45;&gt;Node13</title>
<path fill="none" stroke="midnightblue" d="M740.49,-299.82C736.16,-251.93 719.56,-148.39 656,-97.16 615.6,-64.6 558.3,-55.46 510.16,-54.65"/>
<polygon fill="midnightblue" stroke="midnightblue" points="737.01,-300.25 741.29,-309.94 743.99,-299.7 737.01,-300.25"/>
</g>
<!-- Node14 -->
<g id="node14" class="node">
<title>Node14</title>
<g id="a_node14"><a xlink:href="namespaceproblem__setup.html#ad0951de1e260620b256ecd25ed5d8e5a" target="_top" xlink:title=" ">
<polygon fill="none" stroke="black" points="360.5,-140.16 360.5,-170.16 475.5,-170.16 475.5,-140.16 360.5,-140.16"/>
<text text-anchor="start" x="368.5" y="-158.16" font-family="Arial" font-size="10.00">problem_setup.particle</text>
<text text-anchor="middle" x="418" y="-147.16" font-family="Arial" font-size="10.00">_locations</text>
</a>
</g>
</g>
<!-- Node1&#45;&gt;Node14 -->
<g id="edge25" class="edge">
<title>Node1&#45;&gt;Node14</title>
<path fill="none" stroke="midnightblue" d="M712.54,-304.4C669.6,-274.85 586.58,-220.35 510,-185.16 497.76,-179.53 484.15,-174.46 471.27,-170.16"/>
<polygon fill="midnightblue" stroke="midnightblue" points="710.61,-307.32 720.83,-310.14 714.6,-301.57 710.61,-307.32"/>
</g>
<!-- Node2&#45;&gt;Node3 -->
<g id="edge2" class="edge">
<title>Node2&#45;&gt;Node3</title>
<path fill="none" stroke="midnightblue" d="M593.43,-350.19C582.46,-386.97 556.86,-455.25 510,-492.16 503.97,-496.91 497.08,-500.73 489.86,-503.79"/>
<polygon fill="midnightblue" stroke="midnightblue" points="596.88,-350.85 596.26,-340.28 590.15,-348.93 596.88,-350.85"/>
</g>
<!-- Node2&#45;&gt;Node4 -->
<g id="edge3" class="edge">
<title>Node2&#45;&gt;Node4</title>
<path fill="none" stroke="midnightblue" d="M587.79,-349.59C573.03,-376.57 545.69,-419.34 510,-443.16 502.8,-447.97 494.68,-451.81 486.33,-454.89"/>
<polygon fill="midnightblue" stroke="midnightblue" points="591.05,-350.9 592.64,-340.42 584.87,-347.62 591.05,-350.9"/>
</g>
<!-- Node2&#45;&gt;Node5 -->
<g id="edge4" class="edge">
<title>Node2&#45;&gt;Node5</title>
<path fill="none" stroke="midnightblue" d="M576.58,-347.32C559.37,-362.5 534.76,-382.01 510,-394.16 503.11,-397.54 495.67,-400.49 488.14,-403.05"/>
<polygon fill="midnightblue" stroke="midnightblue" points="579.32,-349.56 584.4,-340.27 574.63,-344.36 579.32,-349.56"/>
</g>
<!-- Node2&#45;&gt;Node6 -->
<g id="edge5" class="edge">
<title>Node2&#45;&gt;Node6</title>
<path fill="none" stroke="midnightblue" d="M535.93,-340.73C518.04,-345.08 498.65,-349.8 480.89,-354.11"/>
<polygon fill="midnightblue" stroke="midnightblue" points="536.8,-344.12 545.69,-338.36 535.15,-337.32 536.8,-344.12"/>
</g>
<!-- Node2&#45;&gt;Node7 -->
<g id="edge6" class="edge">
<title>Node2&#45;&gt;Node7</title>
<path fill="none" stroke="midnightblue" d="M535.83,-309.56C517.22,-305.03 496.97,-300.11 478.64,-295.66"/>
<polygon fill="midnightblue" stroke="midnightblue" points="535.15,-313 545.69,-311.96 536.8,-306.19 535.15,-313"/>
</g>
<!-- Node2&#45;&gt;Node9 -->
<g id="edge14" class="edge">
<title>Node2&#45;&gt;Node9</title>
<path fill="none" stroke="midnightblue" d="M577.72,-302.58C560.74,-286.9 535.92,-267.12 510,-257.16 434.91,-228.31 340.99,-225.76 281.1,-227.9"/>
<polygon fill="midnightblue" stroke="midnightblue" points="575.74,-305.53 585.4,-309.88 580.57,-300.45 575.74,-305.53"/>
</g>
<!-- Node2&#45;&gt;Node10 -->
<g id="edge16" class="edge">
<title>Node2&#45;&gt;Node10</title>
<path fill="none" stroke="midnightblue" d="M535.43,-326.01C463.1,-326.97 347.01,-328.5 278.1,-329.41"/>
<polygon fill="midnightblue" stroke="midnightblue" points="535.82,-329.51 545.77,-325.87 535.72,-322.51 535.82,-329.51"/>
</g>
<!-- Node2&#45;&gt;Node11 -->
<g id="edge10" class="edge">
<title>Node2&#45;&gt;Node11</title>
<path fill="none" stroke="midnightblue" d="M585.4,-301.36C569.71,-277.83 542.57,-242.62 510,-223.16 437.91,-180.07 398.13,-223.18 326,-180.16 282.05,-153.95 246.55,-103.06 230.6,-77.54"/>
<polygon fill="midnightblue" stroke="midnightblue" points="582.66,-303.56 591.04,-310.04 588.53,-299.75 582.66,-303.56"/>
</g>
<!-- Node2&#45;&gt;Node13 -->
<g id="edge12" class="edge">
<title>Node2&#45;&gt;Node13</title>
<path fill="none" stroke="midnightblue" d="M592.75,-300.16C580.5,-261.02 552.78,-184.26 510,-131.16 494.45,-111.86 472.39,-94.96 453.88,-82.71"/>
<polygon fill="midnightblue" stroke="midnightblue" points="589.47,-301.39 595.73,-309.93 596.16,-299.34 589.47,-301.39"/>
</g>
<!-- Node2&#45;&gt;Node14 -->
<g id="edge15" class="edge">
<title>Node2&#45;&gt;Node14</title>
<path fill="none" stroke="midnightblue" d="M590.48,-300.83C577.09,-269.65 549.79,-215.97 510,-185.16 500,-177.42 487.92,-171.63 475.88,-167.31"/>
<polygon fill="midnightblue" stroke="midnightblue" points="587.27,-302.21 594.34,-310.1 593.73,-299.52 587.27,-302.21"/>
</g>
<!-- Node8 -->
<g id="node8" class="node">
<title>Node8</title>
<g id="a_node8"><a xlink:href="namespaceproblem__setup.html#a94bf8e7f89d392c05bd34dfd6a513675" target="_top" xlink:title=" ">
<polygon fill="none" stroke="black" points="160,-266.16 160,-296.16 281,-296.16 281,-266.16 160,-266.16"/>
<text text-anchor="start" x="168" y="-284.16" font-family="Arial" font-size="10.00">problem_setup.generate</text>
<text text-anchor="middle" x="220.5" y="-273.16" font-family="Arial" font-size="10.00">_particle_gmsh_input</text>
</a>
</g>
</g>
<!-- Node7&#45;&gt;Node8 -->
<g id="edge7" class="edge">
<title>Node7&#45;&gt;Node8</title>
<path fill="none" stroke="midnightblue" d="M347.19,-281.16C325.6,-281.16 302.03,-281.16 281.19,-281.16"/>
<polygon fill="midnightblue" stroke="midnightblue" points="347.28,-284.66 357.28,-281.16 347.28,-277.66 347.28,-284.66"/>
</g>
<!-- Node7&#45;&gt;Node9 -->
<g id="edge8" class="edge">
<title>Node7&#45;&gt;Node9</title>
<path fill="none" stroke="midnightblue" d="M347.49,-263.73C325.82,-258.3 302.12,-252.37 281.19,-247.12"/>
<polygon fill="midnightblue" stroke="midnightblue" points="346.73,-267.15 357.28,-266.19 348.43,-260.36 346.73,-267.15"/>
</g>
<!-- Node7&#45;&gt;Node10 -->
<g id="edge9" class="edge">
<title>Node7&#45;&gt;Node10</title>
<path fill="none" stroke="midnightblue" d="M347.37,-298.61C324.69,-304.29 299.8,-310.53 278.18,-315.95"/>
<polygon fill="midnightblue" stroke="midnightblue" points="348.43,-301.95 357.28,-296.13 346.73,-295.16 348.43,-301.95"/>
</g>
<!-- Node12 -->
<g id="node12" class="node">
<title>Node12</title>
<g id="a_node12"><a xlink:href="namespaceproblem__setup.html#a5a8a494c7325b103530d3f40d4b49fe8" target="_top" xlink:title=" ">
<polygon fill="none" stroke="black" points="0,-47.16 0,-77.16 115,-77.16 115,-47.16 0,-47.16"/>
<text text-anchor="start" x="8" y="-65.16" font-family="Arial" font-size="10.00">problem_setup.particle</text>
<text text-anchor="middle" x="57.5" y="-54.16" font-family="Arial" font-size="10.00">_locations_old</text>
</a>
</g>
</g>
<!-- Node11&#45;&gt;Node12 -->
<g id="edge11" class="edge">
<title>Node11&#45;&gt;Node12</title>
<path fill="none" stroke="midnightblue" d="M140.74,-62.16C132.19,-62.16 123.6,-62.16 115.38,-62.16"/>
<polygon fill="midnightblue" stroke="midnightblue" points="140.75,-65.66 150.75,-62.16 140.75,-58.66 140.75,-65.66"/>
</g>
<!-- Node13&#45;&gt;Node11 -->
<g id="edge13" class="edge">
<title>Node13&#45;&gt;Node11</title>
<path fill="none" stroke="midnightblue" d="M315.65,-62.16C306.98,-62.16 298.35,-62.16 290.03,-62.16"/>
<polygon fill="midnightblue" stroke="midnightblue" points="315.83,-65.66 325.83,-62.16 315.83,-58.66 315.83,-65.66"/>
</g>
</g>
</svg>
