<?xml version="1.0" encoding="UTF-8" standalone="no"?>
<!DOCTYPE svg PUBLIC "-//W3C//DTD SVG 1.1//EN"
 "http://www.w3.org/Graphics/SVG/1.1/DTD/svg11.dtd">
<!-- Generated by graphviz version 2.43.0 (0)
 -->
<!-- Title: util::methods::maxLengthAndMaxLengthIndex Pages: 1 -->
<svg width="737pt" height="38pt"
 viewBox="0.00 0.00 737.00 38.00" xmlns="http://www.w3.org/2000/svg" xmlns:xlink="http://www.w3.org/1999/xlink">
<g id="graph0" class="graph" transform="scale(1 1) rotate(0) translate(4 34)">
<title>util::methods::maxLengthAndMaxLengthIndex</title>
<!-- Node1 -->
<g id="Node000001" class="node">
<title>Node1</title>
<g id="a_Node000001"><a xlink:title="Returns the maximum length of point and index from list of points.">
<polygon fill="#999999" stroke="#666666" points="729,-30 602,-30 602,0 729,0 729,-30"/>
<text text-anchor="start" x="610" y="-18" font-family="Arial" font-size="10.00">util::methods::maxLength</text>
<text text-anchor="middle" x="665.5" y="-7" font-family="Arial" font-size="10.00">AndMaxLengthIndex</text>
</a>
</g>
</g>
<!-- Node2 -->
<g id="Node000002" class="node">
<title>Node2</title>
<g id="a_Node000002"><a xlink:href="classmodel_1_1DEMModel.html#aab949bf42c6adca878ebfe1210870f55" target="_top" xlink:title="Checks if simulation should be stopped due to abnormal state of system.">
<polygon fill="white" stroke="#666666" points="566,-24.5 416,-24.5 416,-5.5 566,-5.5 566,-24.5"/>
<text text-anchor="middle" x="491" y="-12.5" font-family="Arial" font-size="10.00">model::DEMModel::checkStop</text>
</a>
</g>
</g>
<!-- Node1&#45;&gt;Node2 -->
<g id="edge1_Node000001_Node000002" class="edge">
<title>Node1&#45;&gt;Node2</title>
<g id="a_edge1_Node000001_Node000002"><a xlink:title=" ">
<path fill="none" stroke="#63b8ff" d="M591.58,-15C583.17,-15 574.58,-15 566.15,-15"/>
<polygon fill="#63b8ff" stroke="#63b8ff" points="591.74,-18.5 601.74,-15 591.74,-11.5 591.74,-18.5"/>
</a>
</g>
</g>
<!-- Node3 -->
<g id="Node000003" class="node">
<title>Node3</title>
<g id="a_Node000003"><a xlink:href="classtwoparticle__demo_1_1Model.html#a4edd5f54de8ea3e6e35391b134c642be" target="_top" xlink:title="Perform time step integration.">
<polygon fill="white" stroke="#666666" points="380,-30 255,-30 255,0 380,0 380,-30"/>
<text text-anchor="start" x="263" y="-18" font-family="Arial" font-size="10.00">twoparticle_demo::Model</text>
<text text-anchor="middle" x="317.5" y="-7" font-family="Arial" font-size="10.00">::integrate</text>
</a>
</g>
</g>
<!-- Node2&#45;&gt;Node3 -->
<g id="edge2_Node000002_Node000003" class="edge">
<title>Node2&#45;&gt;Node3</title>
<g id="a_edge2_Node000002_Node000003"><a xlink:title=" ">
<path fill="none" stroke="#63b8ff" d="M405.72,-15C397.13,-15 388.52,-15 380.23,-15"/>
<polygon fill="#63b8ff" stroke="#63b8ff" points="405.78,-18.5 415.78,-15 405.78,-11.5 405.78,-18.5"/>
</a>
</g>
</g>
<!-- Node4 -->
<g id="Node000004" class="node">
<title>Node4</title>
<g id="a_Node000004"><a xlink:href="classtwoparticle__demo_1_1Model.html#af741e660292b3c71c59277cbd1beb052" target="_top" xlink:title="Runs simulation by executing steps such as init(), integrate(), and close().">
<polygon fill="white" stroke="#666666" points="219,-24.5 74,-24.5 74,-5.5 219,-5.5 219,-24.5"/>
<text text-anchor="middle" x="146.5" y="-12.5" font-family="Arial" font-size="10.00">twoparticle_demo::Model::run</text>
</a>
</g>
</g>
<!-- Node3&#45;&gt;Node4 -->
<g id="edge3_Node000003_Node000004" class="edge">
<title>Node3&#45;&gt;Node4</title>
<g id="a_edge3_Node000003_Node000004"><a xlink:title=" ">
<path fill="none" stroke="#63b8ff" d="M244.44,-15C236.07,-15 227.55,-15 219.19,-15"/>
<polygon fill="#63b8ff" stroke="#63b8ff" points="244.53,-18.5 254.53,-15 244.53,-11.5 244.53,-18.5"/>
</a>
</g>
</g>
<!-- Node5 -->
<g id="Node000005" class="node">
<title>Node5</title>
<g id="a_Node000005"><a xlink:href="apps_2twoparticle__demo_2main_8cpp.html#a0ddf1224851353fc92bfbff6f499fa97" target="_top" xlink:title=" ">
<polygon fill="white" stroke="#666666" points="38,-24.5 0,-24.5 0,-5.5 38,-5.5 38,-24.5"/>
<text text-anchor="middle" x="19" y="-12.5" font-family="Arial" font-size="10.00">main</text>
</a>
</g>
</g>
<!-- Node4&#45;&gt;Node5 -->
<g id="edge4_Node000004_Node000005" class="edge">
<title>Node4&#45;&gt;Node5</title>
<g id="a_edge4_Node000004_Node000005"><a xlink:title=" ">
<path fill="none" stroke="#63b8ff" d="M63.88,-15C54.4,-15 45.55,-15 38.32,-15"/>
<polygon fill="#63b8ff" stroke="#63b8ff" points="63.95,-18.5 73.95,-15 63.95,-11.5 63.95,-18.5"/>
</a>
</g>
</g>
</g>
</svg>
