<?xml version="1.0" encoding="UTF-8" standalone="no"?>
<!DOCTYPE svg PUBLIC "-//W3C//DTD SVG 1.1//EN"
 "http://www.w3.org/Graphics/SVG/1.1/DTD/svg11.dtd">
<!-- Generated by graphviz version 2.43.0 (0)
 -->
<!-- Title: problem_setup.does_intersect Pages: 1 -->
<svg width="415pt" height="267pt"
 viewBox="0.00 0.00 415.00 267.07" xmlns="http://www.w3.org/2000/svg" xmlns:xlink="http://www.w3.org/1999/xlink">
<g id="graph0" class="graph" transform="scale(1 1) rotate(0) translate(4 263.07)">
<title>problem_setup.does_intersect</title>
<!-- Node1 -->
<g id="node1" class="node">
<title>Node1</title>
<g id="a_node1"><a xlink:title=" ">
<polygon fill="#bfbfbf" stroke="black" points="0,-108.57 0,-138.57 104,-138.57 104,-108.57 0,-108.57"/>
<text text-anchor="start" x="8" y="-126.57" font-family="Arial" font-size="10.00">problem_setup.does</text>
<text text-anchor="middle" x="52" y="-115.57" font-family="Arial" font-size="10.00">_intersect</text>
</a>
</g>
</g>
<!-- Node2 -->
<g id="node2" class="node">
<title>Node2</title>
<g id="a_node2"><a xlink:href="namespaceproblem__setup.html#ad9b50c51aa5e0de13f4c721465b63b5f" target="_top" xlink:title=" ">
<polygon fill="none" stroke="black" points="149.5,-228.57 149.5,-258.57 253.5,-258.57 253.5,-228.57 149.5,-228.57"/>
<text text-anchor="start" x="157.5" y="-246.57" font-family="Arial" font-size="10.00">problem_setup.does</text>
<text text-anchor="middle" x="201.5" y="-235.57" font-family="Arial" font-size="10.00">_intersect_rect</text>
</a>
</g>
</g>
<!-- Node1&#45;&gt;Node2 -->
<g id="edge1" class="edge">
<title>Node1&#45;&gt;Node2</title>
<path fill="none" stroke="midnightblue" d="M63.48,-138.64C78.39,-159.15 107.57,-195.87 140,-218.57 142.65,-220.42 145.47,-222.18 148.37,-223.83"/>
<polygon fill="midnightblue" stroke="midnightblue" points="146.8,-226.95 157.28,-228.47 150.03,-220.75 146.8,-226.95"/>
</g>
<!-- Node3 -->
<g id="node3" class="node">
<title>Node3</title>
<g id="a_node3"><a xlink:href="namespaceproblem__setup.html#af977354e61703cd925c2511fd3ca0858" target="_top" xlink:title=" ">
<polygon fill="none" stroke="black" points="147,-190.07 147,-209.07 256,-209.07 256,-190.07 147,-190.07"/>
<text text-anchor="middle" x="201.5" y="-197.07" font-family="Arial" font-size="10.00">problem_setup.get_E</text>
</a>
</g>
</g>
<!-- Node1&#45;&gt;Node3 -->
<g id="edge2" class="edge">
<title>Node1&#45;&gt;Node3</title>
<path fill="none" stroke="midnightblue" d="M72.46,-138.58C89.52,-151.17 115.36,-168.9 140,-180.57 144.67,-182.78 149.66,-184.82 154.7,-186.67"/>
<polygon fill="midnightblue" stroke="midnightblue" points="153.77,-190.05 164.37,-190.01 156.06,-183.44 153.77,-190.05"/>
</g>
<!-- Node4 -->
<g id="node4" class="node">
<title>Node4</title>
<g id="a_node4"><a xlink:href="namespaceproblem__setup.html#a564e6017e037399c311be8b31653e45d" target="_top" xlink:title=" ">
<polygon fill="none" stroke="black" points="140,-152.07 140,-171.07 263,-171.07 263,-152.07 140,-152.07"/>
<text text-anchor="middle" x="201.5" y="-159.07" font-family="Arial" font-size="10.00">problem_setup.get_eff_k</text>
</a>
</g>
</g>
<!-- Node1&#45;&gt;Node4 -->
<g id="edge3" class="edge">
<title>Node1&#45;&gt;Node4</title>
<path fill="none" stroke="midnightblue" d="M104.17,-136.75C120.15,-140.87 137.68,-145.38 153.36,-149.42"/>
<polygon fill="midnightblue" stroke="midnightblue" points="152.81,-152.89 163.36,-152 154.55,-146.12 152.81,-152.89"/>
</g>
<!-- Node5 -->
<g id="node5" class="node">
<title>Node5</title>
<g id="a_node5"><a xlink:href="namespaceproblem__setup.html#adc274a492cfb30270617c3c66d64c6c4" target="_top" xlink:title=" ">
<polygon fill="none" stroke="black" points="146.5,-114.07 146.5,-133.07 256.5,-133.07 256.5,-114.07 146.5,-114.07"/>
<text text-anchor="middle" x="201.5" y="-121.07" font-family="Arial" font-size="10.00">problem_setup.get_G</text>
</a>
</g>
</g>
<!-- Node1&#45;&gt;Node5 -->
<g id="edge4" class="edge">
<title>Node1&#45;&gt;Node5</title>
<path fill="none" stroke="midnightblue" d="M104.17,-123.57C114.52,-123.57 125.51,-123.57 136.24,-123.57"/>
<polygon fill="midnightblue" stroke="midnightblue" points="136.4,-127.07 146.4,-123.57 136.4,-120.07 136.4,-127.07"/>
</g>
<!-- Node6 -->
<g id="node6" class="node">
<title>Node6</title>
<g id="a_node6"><a xlink:href="namespaceproblem__setup.html#aa39e6862e38920798278f55a2578a6ef" target="_top" xlink:title=" ">
<polygon fill="none" stroke="black" points="141,-76.07 141,-95.07 262,-95.07 262,-76.07 141,-76.07"/>
<text text-anchor="middle" x="201.5" y="-83.07" font-family="Arial" font-size="10.00">problem_setup.get_max</text>
</a>
</g>
</g>
<!-- Node1&#45;&gt;Node6 -->
<g id="edge5" class="edge">
<title>Node1&#45;&gt;Node6</title>
<path fill="none" stroke="midnightblue" d="M104.17,-110.38C120.15,-106.27 137.68,-101.75 153.36,-97.71"/>
<polygon fill="midnightblue" stroke="midnightblue" points="154.55,-101.02 163.36,-95.13 152.81,-94.24 154.55,-101.02"/>
</g>
<!-- Node7 -->
<g id="node7" class="node">
<title>Node7</title>
<g id="a_node7"><a xlink:href="namespaceproblem__setup.html#a8e552b0e3bb3bde7c390d6906dbe88cd" target="_top" xlink:title=" ">
<polygon fill="none" stroke="black" points="145,-26.57 145,-56.57 258,-56.57 258,-26.57 145,-26.57"/>
<text text-anchor="start" x="153" y="-44.57" font-family="Arial" font-size="10.00">problem_setup.get_ref</text>
<text text-anchor="middle" x="201.5" y="-33.57" font-family="Arial" font-size="10.00">_hex_points</text>
</a>
</g>
</g>
<!-- Node1&#45;&gt;Node7 -->
<g id="edge6" class="edge">
<title>Node1&#45;&gt;Node7</title>
<path fill="none" stroke="midnightblue" d="M73.77,-108.36C90.98,-96.15 116.37,-79.05 140,-66.57 143.73,-64.6 147.65,-62.67 151.63,-60.82"/>
<polygon fill="midnightblue" stroke="midnightblue" points="153.25,-63.93 160.95,-56.65 150.39,-57.54 153.25,-63.93"/>
</g>
<!-- Node8 -->
<g id="node8" class="node">
<title>Node8</title>
<g id="a_node8"><a xlink:href="namespaceproblem__setup.html#a192b6d085d04429814f30104aeb18493" target="_top" xlink:title=" ">
<polygon fill="none" stroke="black" points="299,-10.07 299,-29.07 407,-29.07 407,-10.07 299,-10.07"/>
<text text-anchor="middle" x="353" y="-17.07" font-family="Arial" font-size="10.00">problem_setup.rotate</text>
</a>
</g>
</g>
<!-- Node1&#45;&gt;Node8 -->
<g id="edge8" class="edge">
<title>Node1&#45;&gt;Node8</title>
<path fill="none" stroke="midnightblue" d="M59.98,-108.37C72.18,-83.88 99.97,-36.5 140,-17.57 192.48,7.25 260.76,0.73 305.45,-7.93"/>
<polygon fill="midnightblue" stroke="midnightblue" points="304.95,-11.4 315.45,-9.98 306.36,-4.55 304.95,-11.4"/>
</g>
<!-- Node7&#45;&gt;Node8 -->
<g id="edge7" class="edge">
<title>Node7&#45;&gt;Node8</title>
<path fill="none" stroke="midnightblue" d="M258.17,-33.38C268.13,-31.91 278.58,-30.37 288.73,-28.88"/>
<polygon fill="midnightblue" stroke="midnightblue" points="289.38,-32.32 298.77,-27.4 288.36,-25.39 289.38,-32.32"/>
</g>
</g>
</svg>
