<?xml version="1.0" encoding="UTF-8" standalone="no"?>
<!DOCTYPE svg PUBLIC "-//W3C//DTD SVG 1.1//EN"
 "http://www.w3.org/Graphics/SVG/1.1/DTD/svg11.dtd">
<!-- Generated by graphviz version 2.43.0 (0)
 -->
<!-- Title: problem_setup.create_input_file Pages: 1 -->
<svg width="664pt" height="460pt"
 viewBox="0.00 0.00 664.00 460.00" xmlns="http://www.w3.org/2000/svg" xmlns:xlink="http://www.w3.org/1999/xlink">
<g id="graph0" class="graph" transform="scale(1 1) rotate(0) translate(4 456)">
<title>problem_setup.create_input_file</title>
<!-- Node1 -->
<g id="node1" class="node">
<title>Node1</title>
<g id="a_node1"><a xlink:title=" ">
<polygon fill="#bfbfbf" stroke="black" points="546,-208.5 546,-238.5 656,-238.5 656,-208.5 546,-208.5"/>
<text text-anchor="start" x="554" y="-226.5" font-family="Arial" font-size="10.00">problem_setup.create</text>
<text text-anchor="middle" x="601" y="-215.5" font-family="Arial" font-size="10.00">_input_file</text>
</a>
</g>
</g>
<!-- Node2 -->
<g id="node2" class="node">
<title>Node2</title>
<g id="a_node2"><a xlink:href="namespaceproblem__setup.html#a2c232d3bae603961390ef3d3ee28fe81" target="_top" xlink:title=" ">
<polygon fill="none" stroke="black" points="346.5,-421.5 346.5,-451.5 489.5,-451.5 489.5,-421.5 346.5,-421.5"/>
<text text-anchor="start" x="354.5" y="-439.5" font-family="Arial" font-size="10.00">problem_setup.generate</text>
<text text-anchor="middle" x="418" y="-428.5" font-family="Arial" font-size="10.00">_cylindrical_wall_gmsh_input</text>
</a>
</g>
</g>
<!-- Node1&#45;&gt;Node2 -->
<g id="edge1" class="edge">
<title>Node1&#45;&gt;Node2</title>
<path fill="none" stroke="midnightblue" d="M595.15,-248.56C585.94,-289.23 562.01,-369.39 510,-412.5 503.96,-417.5 496.99,-421.48 489.64,-424.63"/>
<polygon fill="midnightblue" stroke="midnightblue" points="598.6,-249.17 597.27,-238.66 591.75,-247.7 598.6,-249.17"/>
</g>
<!-- Node3 -->
<g id="node3" class="node">
<title>Node3</title>
<g id="a_node3"><a xlink:href="namespaceproblem__setup.html#aff5393227de056de45cfc082e05af1ca" target="_top" xlink:title=" ">
<polygon fill="none" stroke="black" points="350,-372.5 350,-402.5 486,-402.5 486,-372.5 350,-372.5"/>
<text text-anchor="start" x="358" y="-390.5" font-family="Arial" font-size="10.00">problem_setup.generate</text>
<text text-anchor="middle" x="418" y="-379.5" font-family="Arial" font-size="10.00">_drum_particle_gmsh_input</text>
</a>
</g>
</g>
<!-- Node1&#45;&gt;Node3 -->
<g id="edge2" class="edge">
<title>Node1&#45;&gt;Node3</title>
<path fill="none" stroke="midnightblue" d="M590.76,-248.21C577.68,-279.79 550.7,-333.91 510,-363.5 502.86,-368.69 494.69,-372.76 486.23,-375.94"/>
<polygon fill="midnightblue" stroke="midnightblue" points="594.06,-249.39 594.53,-238.8 587.56,-246.79 594.06,-249.39"/>
</g>
<!-- Node4 -->
<g id="node4" class="node">
<title>Node4</title>
<g id="a_node4"><a xlink:href="namespaceproblem__setup.html#ae8a464882c2862a981f40e102eddeb7d" target="_top" xlink:title=" ">
<polygon fill="none" stroke="black" points="341.5,-323.5 341.5,-353.5 494.5,-353.5 494.5,-323.5 341.5,-323.5"/>
<text text-anchor="start" x="349.5" y="-341.5" font-family="Arial" font-size="10.00">problem_setup.generate</text>
<text text-anchor="middle" x="418" y="-330.5" font-family="Arial" font-size="10.00">_moving_rect_wall_gmsh_input</text>
</a>
</g>
</g>
<!-- Node1&#45;&gt;Node4 -->
<g id="edge3" class="edge">
<title>Node1&#45;&gt;Node4</title>
<path fill="none" stroke="midnightblue" d="M583.13,-246.54C566.71,-267.32 539.92,-297.19 510,-314.5 504.06,-317.94 497.62,-320.89 491,-323.43"/>
<polygon fill="midnightblue" stroke="midnightblue" points="585.97,-248.58 589.3,-238.52 580.43,-244.31 585.97,-248.58"/>
</g>
<!-- Node5 -->
<g id="node5" class="node">
<title>Node5</title>
<g id="a_node5"><a xlink:href="namespaceproblem__setup.html#a8c789550cc1b70abe559c976bcf664e4" target="_top" xlink:title=" ">
<polygon fill="none" stroke="black" points="352.5,-274.5 352.5,-304.5 483.5,-304.5 483.5,-274.5 352.5,-274.5"/>
<text text-anchor="start" x="360.5" y="-292.5" font-family="Arial" font-size="10.00">problem_setup.generate</text>
<text text-anchor="middle" x="418" y="-281.5" font-family="Arial" font-size="10.00">_moving_wall_gmsh_input</text>
</a>
</g>
</g>
<!-- Node1&#45;&gt;Node5 -->
<g id="edge4" class="edge">
<title>Node1&#45;&gt;Node5</title>
<path fill="none" stroke="midnightblue" d="M554.34,-242.4C540.2,-248.08 524.52,-254.21 510,-259.5 495.93,-264.63 480.51,-269.86 466.42,-274.48"/>
<polygon fill="midnightblue" stroke="midnightblue" points="555.89,-245.55 563.85,-238.55 553.27,-239.06 555.89,-245.55"/>
</g>
<!-- Node6 -->
<g id="node6" class="node">
<title>Node6</title>
<g id="a_node6"><a xlink:href="namespaceproblem__setup.html#a147f310ff74124342d15ab356739883f" target="_top" xlink:title=" ">
<polygon fill="none" stroke="black" points="357.5,-186.5 357.5,-216.5 478.5,-216.5 478.5,-186.5 357.5,-186.5"/>
<text text-anchor="start" x="365.5" y="-204.5" font-family="Arial" font-size="10.00">problem_setup.generate</text>
<text text-anchor="middle" x="418" y="-193.5" font-family="Arial" font-size="10.00">_particle_gmsh_input</text>
</a>
</g>
</g>
<!-- Node1&#45;&gt;Node6 -->
<g id="edge5" class="edge">
<title>Node1&#45;&gt;Node6</title>
<path fill="none" stroke="midnightblue" d="M535.58,-215.67C517.03,-213.42 496.88,-210.97 478.64,-208.75"/>
<polygon fill="midnightblue" stroke="midnightblue" points="535.34,-219.17 545.69,-216.9 536.19,-212.22 535.34,-219.17"/>
</g>
<!-- Node8 -->
<g id="node8" class="node">
<title>Node8</title>
<g id="a_node8"><a xlink:href="namespaceproblem__setup.html#af51753c1e02e9634827a449ab8729d44" target="_top" xlink:title=" ">
<polygon fill="none" stroke="black" points="160,-235.5 160,-265.5 281,-265.5 281,-235.5 160,-235.5"/>
<text text-anchor="start" x="168" y="-253.5" font-family="Arial" font-size="10.00">problem_setup.generate</text>
<text text-anchor="middle" x="220.5" y="-242.5" font-family="Arial" font-size="10.00">_wall_gmsh_input</text>
</a>
</g>
</g>
<!-- Node1&#45;&gt;Node8 -->
<g id="edge13" class="edge">
<title>Node1&#45;&gt;Node8</title>
<path fill="none" stroke="midnightblue" d="M535.58,-228.1C464.36,-233.18 350.55,-241.29 281.25,-246.24"/>
<polygon fill="midnightblue" stroke="midnightblue" points="536.04,-231.57 545.77,-227.37 535.55,-224.59 536.04,-231.57"/>
</g>
<!-- Node9 -->
<g id="node9" class="node">
<title>Node9</title>
<g id="a_node9"><a xlink:href="namespaceproblem__setup.html#a704799249dad2aafe57eedd971030266" target="_top" xlink:title=" ">
<polygon fill="none" stroke="black" points="163,-137.5 163,-167.5 278,-167.5 278,-137.5 163,-137.5"/>
<text text-anchor="start" x="171" y="-155.5" font-family="Arial" font-size="10.00">problem_setup.particle</text>
<text text-anchor="middle" x="220.5" y="-144.5" font-family="Arial" font-size="10.00">_locations_orient</text>
</a>
</g>
</g>
<!-- Node1&#45;&gt;Node9 -->
<g id="edge15" class="edge">
<title>Node1&#45;&gt;Node9</title>
<path fill="none" stroke="midnightblue" d="M567.85,-203.22C551.21,-193.75 530.21,-183.3 510,-177.5 431.84,-155.07 337.27,-151 278.24,-151.05"/>
<polygon fill="midnightblue" stroke="midnightblue" points="566.2,-206.31 576.6,-208.35 569.74,-200.27 566.2,-206.31"/>
</g>
<!-- Node10 -->
<g id="node10" class="node">
<title>Node10</title>
<g id="a_node10"><a xlink:href="namespaceproblem__setup.html#a9a8d53047175304f4c44b93a2f6fa482" target="_top" xlink:title=" ">
<polygon fill="none" stroke="black" points="151,-72.5 151,-102.5 290,-102.5 290,-72.5 151,-72.5"/>
<text text-anchor="start" x="159" y="-90.5" font-family="Arial" font-size="10.00">problem_setup.generate</text>
<text text-anchor="middle" x="220.5" y="-79.5" font-family="Arial" font-size="10.00">_rect_container_gmsh_input</text>
</a>
</g>
</g>
<!-- Node1&#45;&gt;Node10 -->
<g id="edge9" class="edge">
<title>Node1&#45;&gt;Node10</title>
<path fill="none" stroke="midnightblue" d="M579.49,-200.9C562.54,-183.63 536.95,-160.62 510,-147.5 472,-128.99 362.84,-109.38 290.23,-97.8"/>
<polygon fill="midnightblue" stroke="midnightblue" points="577.2,-203.57 586.65,-208.38 582.26,-198.73 577.2,-203.57"/>
</g>
<!-- Node12 -->
<g id="node12" class="node">
<title>Node12</title>
<g id="a_node12"><a xlink:href="namespaceproblem__setup.html#ab2d86f4fe187ef9b78d1ad4ea438b98b" target="_top" xlink:title=" ">
<polygon fill="none" stroke="black" points="326,-50 326,-91 510,-91 510,-50 326,-50"/>
<text text-anchor="start" x="334" y="-79" font-family="Arial" font-size="10.00">problem_setup.generate</text>
<text text-anchor="start" x="334" y="-68" font-family="Arial" font-size="10.00">_rectangle_with_protrusion</text>
<text text-anchor="middle" x="418" y="-57" font-family="Arial" font-size="10.00">_and_opening_wall_gmsh_input_type3</text>
</a>
</g>
</g>
<!-- Node1&#45;&gt;Node12 -->
<g id="edge11" class="edge">
<title>Node1&#45;&gt;Node12</title>
<path fill="none" stroke="midnightblue" d="M587.05,-199.35C571.79,-172.98 544.15,-131.1 510,-105.5 502.55,-99.92 494.1,-95.12 485.43,-91.02"/>
<polygon fill="midnightblue" stroke="midnightblue" points="584.13,-201.31 592.09,-208.3 590.23,-197.87 584.13,-201.31"/>
</g>
<!-- Node13 -->
<g id="node13" class="node">
<title>Node13</title>
<g id="a_node13"><a xlink:href="namespaceproblem__setup.html#ad0951de1e260620b256ecd25ed5d8e5a" target="_top" xlink:title=" ">
<polygon fill="none" stroke="black" points="360.5,-0.5 360.5,-30.5 475.5,-30.5 475.5,-0.5 360.5,-0.5"/>
<text text-anchor="start" x="368.5" y="-18.5" font-family="Arial" font-size="10.00">problem_setup.particle</text>
<text text-anchor="middle" x="418" y="-7.5" font-family="Arial" font-size="10.00">_locations</text>
</a>
</g>
</g>
<!-- Node1&#45;&gt;Node13 -->
<g id="edge14" class="edge">
<title>Node1&#45;&gt;Node13</title>
<path fill="none" stroke="midnightblue" d="M594.65,-198.44C584.89,-158.87 560.36,-82.14 510,-40.5 500.15,-32.36 487.86,-26.85 475.52,-23.14"/>
<polygon fill="midnightblue" stroke="midnightblue" points="591.28,-199.4 596.98,-208.33 598.1,-197.8 591.28,-199.4"/>
</g>
<!-- Node7 -->
<g id="node7" class="node">
<title>Node7</title>
<g id="a_node7"><a xlink:href="namespaceproblem__setup.html#a94bf8e7f89d392c05bd34dfd6a513675" target="_top" xlink:title=" ">
<polygon fill="none" stroke="black" points="160,-186.5 160,-216.5 281,-216.5 281,-186.5 160,-186.5"/>
<text text-anchor="start" x="168" y="-204.5" font-family="Arial" font-size="10.00">problem_setup.generate</text>
<text text-anchor="middle" x="220.5" y="-193.5" font-family="Arial" font-size="10.00">_particle_gmsh_input</text>
</a>
</g>
</g>
<!-- Node6&#45;&gt;Node7 -->
<g id="edge6" class="edge">
<title>Node6&#45;&gt;Node7</title>
<path fill="none" stroke="midnightblue" d="M347.19,-201.5C325.6,-201.5 302.03,-201.5 281.19,-201.5"/>
<polygon fill="midnightblue" stroke="midnightblue" points="347.28,-205 357.28,-201.5 347.28,-198 347.28,-205"/>
</g>
<!-- Node6&#45;&gt;Node8 -->
<g id="edge7" class="edge">
<title>Node6&#45;&gt;Node8</title>
<path fill="none" stroke="midnightblue" d="M347.49,-218.92C325.82,-224.35 302.12,-230.29 281.19,-235.54"/>
<polygon fill="midnightblue" stroke="midnightblue" points="348.43,-222.29 357.28,-216.47 346.73,-215.5 348.43,-222.29"/>
</g>
<!-- Node6&#45;&gt;Node9 -->
<g id="edge8" class="edge">
<title>Node6&#45;&gt;Node9</title>
<path fill="none" stroke="midnightblue" d="M347.37,-184.05C324.69,-178.36 299.8,-172.12 278.18,-166.71"/>
<polygon fill="midnightblue" stroke="midnightblue" points="346.73,-187.5 357.28,-186.53 348.43,-180.71 346.73,-187.5"/>
</g>
<!-- Node11 -->
<g id="node11" class="node">
<title>Node11</title>
<g id="a_node11"><a xlink:href="namespaceproblem__setup.html#a5a8a494c7325b103530d3f40d4b49fe8" target="_top" xlink:title=" ">
<polygon fill="none" stroke="black" points="0,-72.5 0,-102.5 115,-102.5 115,-72.5 0,-72.5"/>
<text text-anchor="start" x="8" y="-90.5" font-family="Arial" font-size="10.00">problem_setup.particle</text>
<text text-anchor="middle" x="57.5" y="-79.5" font-family="Arial" font-size="10.00">_locations_old</text>
</a>
</g>
</g>
<!-- Node10&#45;&gt;Node11 -->
<g id="edge10" class="edge">
<title>Node10&#45;&gt;Node11</title>
<path fill="none" stroke="midnightblue" d="M140.74,-87.5C132.19,-87.5 123.6,-87.5 115.38,-87.5"/>
<polygon fill="midnightblue" stroke="midnightblue" points="140.75,-91 150.75,-87.5 140.75,-84 140.75,-91"/>
</g>
<!-- Node12&#45;&gt;Node10 -->
<g id="edge12" class="edge">
<title>Node12&#45;&gt;Node10</title>
<path fill="none" stroke="midnightblue" d="M315.65,-79.31C306.98,-80.07 298.35,-80.82 290.03,-81.54"/>
<polygon fill="midnightblue" stroke="midnightblue" points="316.17,-82.78 325.83,-78.43 315.57,-75.81 316.17,-82.78"/>
</g>
</g>
</svg>
