<?xml version="1.0" encoding="UTF-8" standalone="no"?>
<!DOCTYPE svg PUBLIC "-//W3C//DTD SVG 1.1//EN"
 "http://www.w3.org/Graphics/SVG/1.1/DTD/svg11.dtd">
<!-- Generated by graphviz version 2.43.0 (0)
 -->
<!-- Title: rw::reader::readVtuFileCells Pages: 1 -->
<svg width="440pt" height="64pt"
 viewBox="0.00 0.00 440.00 64.00" xmlns="http://www.w3.org/2000/svg" xmlns:xlink="http://www.w3.org/1999/xlink">
<g id="graph0" class="graph" transform="scale(1 1) rotate(0) translate(4 60)">
<title>rw::reader::readVtuFileCells</title>
<!-- Node1 -->
<g id="Node000001" class="node">
<title>Node1</title>
<g id="a_Node000001"><a xlink:title="Reads cell data, i.e. element&#45;node connectivity and node&#45;element connectivity.">
<polygon fill="#999999" stroke="#666666" points="432,-37 294,-37 294,-18 432,-18 432,-37"/>
<text text-anchor="middle" x="363" y="-25" font-family="Arial" font-size="10.00">rw::reader::readVtuFileCells</text>
</a>
</g>
</g>
<!-- Node2 -->
<g id="Node000002" class="node">
<title>Node2</title>
<g id="a_Node000002"><a xlink:href="classfe_1_1Mesh.html#af19a12e75facdf38b898d4b627f3e5d1" target="_top" xlink:title="Reads mesh data from the file and populates other data.">
<polygon fill="white" stroke="#666666" points="244,-56 135,-56 135,-37 244,-37 244,-56"/>
<text text-anchor="middle" x="189.5" y="-44" font-family="Arial" font-size="10.00">fe::Mesh::createData</text>
</a>
</g>
</g>
<!-- Node1&#45;&gt;Node2 -->
<g id="edge1_Node000001_Node000002" class="edge">
<title>Node1&#45;&gt;Node2</title>
<g id="a_edge1_Node000001_Node000002"><a xlink:title=" ">
<path fill="none" stroke="#63b8ff" d="M283.56,-36.19C270.18,-37.67 256.56,-39.18 244.01,-40.57"/>
<polygon fill="#63b8ff" stroke="#63b8ff" points="284.17,-39.64 293.73,-35.06 283.4,-32.69 284.17,-39.64"/>
</a>
</g>
</g>
<!-- Node4 -->
<g id="Node000004" class="node">
<title>Node4</title>
<g id="a_Node000004"><a xlink:href="classfe_1_1Mesh.html#a1fc63a979a642992882c047238aaa3d4" target="_top" xlink:title="Reads element&#45;node connectivity data from file. This function is meant for cases when mesh was create...">
<polygon fill="white" stroke="#666666" points="258,-19 121,-19 121,0 258,0 258,-19"/>
<text text-anchor="middle" x="189.5" y="-7" font-family="Arial" font-size="10.00">fe::Mesh::readElementData</text>
</a>
</g>
</g>
<!-- Node1&#45;&gt;Node4 -->
<g id="edge3_Node000001_Node000004" class="edge">
<title>Node1&#45;&gt;Node4</title>
<g id="a_edge3_Node000001_Node000004"><a xlink:title=" ">
<path fill="none" stroke="#63b8ff" d="M283.51,-19.26C275.08,-18.38 266.55,-17.48 258.26,-16.61"/>
<polygon fill="#63b8ff" stroke="#63b8ff" points="283.42,-22.77 293.73,-20.33 284.15,-15.81 283.42,-22.77"/>
</a>
</g>
</g>
<!-- Node3 -->
<g id="Node000003" class="node">
<title>Node3</title>
<g id="a_Node000003"><a xlink:href="classfe_1_1Mesh.html#a0041afbb7d7e94bfb01c108e460196fb" target="_top" xlink:title="Constructor.">
<polygon fill="white" stroke="#666666" points="85,-56 0,-56 0,-37 85,-37 85,-56"/>
<text text-anchor="middle" x="42.5" y="-44" font-family="Arial" font-size="10.00">fe::Mesh::Mesh</text>
</a>
</g>
</g>
<!-- Node2&#45;&gt;Node3 -->
<g id="edge2_Node000002_Node000003" class="edge">
<title>Node2&#45;&gt;Node3</title>
<g id="a_edge2_Node000002_Node000003"><a xlink:title=" ">
<path fill="none" stroke="#63b8ff" d="M124.75,-46.5C111.3,-46.5 97.45,-46.5 85.08,-46.5"/>
<polygon fill="#63b8ff" stroke="#63b8ff" points="124.92,-50 134.92,-46.5 124.92,-43 124.92,-50"/>
</a>
</g>
</g>
</g>
</svg>
