<?xml version="1.0" encoding="UTF-8" standalone="no"?>
<!DOCTYPE svg PUBLIC "-//W3C//DTD SVG 1.1//EN"
 "http://www.w3.org/Graphics/SVG/1.1/DTD/svg11.dtd">
<!-- Generated by graphviz version 2.43.0 (0)
 -->
<!-- Title: problem_setup.generate_wall_gmsh_input Pages: 1 -->
<svg width="821pt" height="487pt"
 viewBox="0.00 0.00 821.00 486.91" xmlns="http://www.w3.org/2000/svg" xmlns:xlink="http://www.w3.org/1999/xlink">
<g id="graph0" class="graph" transform="scale(1 1) rotate(0) translate(4 482.91)">
<title>problem_setup.generate_wall_gmsh_input</title>
<!-- Node1 -->
<g id="node1" class="node">
<title>Node1</title>
<g id="a_node1"><a xlink:title=" ">
<polygon fill="#bfbfbf" stroke="black" points="692,-160.4 692,-190.4 813,-190.4 813,-160.4 692,-160.4"/>
<text text-anchor="start" x="700" y="-178.4" font-family="Arial" font-size="10.00">problem_setup.generate</text>
<text text-anchor="middle" x="752.5" y="-167.4" font-family="Arial" font-size="10.00">_wall_gmsh_input</text>
</a>
</g>
</g>
<!-- Node2 -->
<g id="node2" class="node">
<title>Node2</title>
<g id="a_node2"><a xlink:href="namespaceproblem__setup.html#a64e067098e447f766d042476ef5abe85" target="_top" xlink:title=" ">
<polygon fill="none" stroke="black" points="546,-206.4 546,-236.4 656,-236.4 656,-206.4 546,-206.4"/>
<text text-anchor="start" x="554" y="-224.4" font-family="Arial" font-size="10.00">problem_setup.create</text>
<text text-anchor="middle" x="601" y="-213.4" font-family="Arial" font-size="10.00">_input_file</text>
</a>
</g>
</g>
<!-- Node1&#45;&gt;Node2 -->
<g id="edge1" class="edge">
<title>Node1&#45;&gt;Node2</title>
<path fill="none" stroke="midnightblue" d="M692.63,-193.51C678.77,-197.78 664.16,-202.27 650.81,-206.38"/>
<polygon fill="midnightblue" stroke="midnightblue" points="694.02,-196.75 702.55,-190.46 691.96,-190.06 694.02,-196.75"/>
</g>
<!-- Node9 -->
<g id="node9" class="node">
<title>Node9</title>
<g id="a_node9"><a xlink:href="namespaceproblem__setup.html#af51753c1e02e9634827a449ab8729d44" target="_top" xlink:title=" ">
<polygon fill="none" stroke="black" points="160,-206.4 160,-236.4 281,-236.4 281,-206.4 160,-206.4"/>
<text text-anchor="start" x="168" y="-224.4" font-family="Arial" font-size="10.00">problem_setup.generate</text>
<text text-anchor="middle" x="220.5" y="-213.4" font-family="Arial" font-size="10.00">_wall_gmsh_input</text>
</a>
</g>
</g>
<!-- Node1&#45;&gt;Node9 -->
<g id="edge17" class="edge">
<title>Node1&#45;&gt;Node9</title>
<path fill="none" stroke="midnightblue" d="M739.51,-199.54C709.85,-256.15 626.91,-396.6 510,-449.4 435.47,-483.06 394.83,-493.57 326,-449.4 286.97,-424.35 240.55,-283.15 226.05,-236.42"/>
<polygon fill="midnightblue" stroke="midnightblue" points="742.65,-201.09 744.12,-190.6 736.43,-197.88 742.65,-201.09"/>
</g>
<!-- Node10 -->
<g id="node10" class="node">
<title>Node10</title>
<g id="a_node10"><a xlink:href="namespaceproblem__setup.html#a704799249dad2aafe57eedd971030266" target="_top" xlink:title=" ">
<polygon fill="none" stroke="black" points="163,-66.4 163,-96.4 278,-96.4 278,-66.4 163,-66.4"/>
<text text-anchor="start" x="171" y="-84.4" font-family="Arial" font-size="10.00">problem_setup.particle</text>
<text text-anchor="middle" x="220.5" y="-73.4" font-family="Arial" font-size="10.00">_locations_orient</text>
</a>
</g>
</g>
<!-- Node1&#45;&gt;Node10 -->
<g id="edge19" class="edge">
<title>Node1&#45;&gt;Node10</title>
<path fill="none" stroke="midnightblue" d="M732.27,-152.67C714.16,-132.31 685.48,-102.62 656,-82.4 597.12,-42.02 579.75,-30.64 510,-15.4 430.11,2.06 404.56,7.33 326,-15.4 291.78,-25.3 258,-50.11 238.48,-66.33"/>
<polygon fill="midnightblue" stroke="midnightblue" points="729.68,-155.02 738.9,-160.24 734.94,-150.41 729.68,-155.02"/>
</g>
<!-- Node14 -->
<g id="node14" class="node">
<title>Node14</title>
<g id="a_node14"><a xlink:href="namespaceproblem__setup.html#ad0951de1e260620b256ecd25ed5d8e5a" target="_top" xlink:title=" ">
<polygon fill="none" stroke="black" points="360.5,-25.4 360.5,-55.4 475.5,-55.4 475.5,-25.4 360.5,-25.4"/>
<text text-anchor="start" x="368.5" y="-43.4" font-family="Arial" font-size="10.00">problem_setup.particle</text>
<text text-anchor="middle" x="418" y="-32.4" font-family="Arial" font-size="10.00">_locations</text>
</a>
</g>
</g>
<!-- Node1&#45;&gt;Node14 -->
<g id="edge18" class="edge">
<title>Node1&#45;&gt;Node14</title>
<path fill="none" stroke="midnightblue" d="M710.39,-156.15C662.71,-134.15 581.49,-97.66 510,-70.4 496.32,-65.18 481.29,-60.01 467.46,-55.46"/>
<polygon fill="midnightblue" stroke="midnightblue" points="708.92,-159.33 719.47,-160.35 711.86,-152.97 708.92,-159.33"/>
</g>
<!-- Node3 -->
<g id="node3" class="node">
<title>Node3</title>
<g id="a_node3"><a xlink:href="namespaceproblem__setup.html#a2c232d3bae603961390ef3d3ee28fe81" target="_top" xlink:title=" ">
<polygon fill="none" stroke="black" points="346.5,-409.4 346.5,-439.4 489.5,-439.4 489.5,-409.4 346.5,-409.4"/>
<text text-anchor="start" x="354.5" y="-427.4" font-family="Arial" font-size="10.00">problem_setup.generate</text>
<text text-anchor="middle" x="418" y="-416.4" font-family="Arial" font-size="10.00">_cylindrical_wall_gmsh_input</text>
</a>
</g>
</g>
<!-- Node2&#45;&gt;Node3 -->
<g id="edge2" class="edge">
<title>Node2&#45;&gt;Node3</title>
<path fill="none" stroke="midnightblue" d="M594.31,-246.32C584.17,-284.98 559.25,-359.13 510,-399.4 503.91,-404.38 496.91,-408.37 489.54,-411.57"/>
<polygon fill="midnightblue" stroke="midnightblue" points="597.75,-246.97 596.78,-236.42 590.96,-245.27 597.75,-246.97"/>
</g>
<!-- Node4 -->
<g id="node4" class="node">
<title>Node4</title>
<g id="a_node4"><a xlink:href="namespaceproblem__setup.html#aff5393227de056de45cfc082e05af1ca" target="_top" xlink:title=" ">
<polygon fill="none" stroke="black" points="350,-299.4 350,-329.4 486,-329.4 486,-299.4 350,-299.4"/>
<text text-anchor="start" x="358" y="-317.4" font-family="Arial" font-size="10.00">problem_setup.generate</text>
<text text-anchor="middle" x="418" y="-306.4" font-family="Arial" font-size="10.00">_drum_particle_gmsh_input</text>
</a>
</g>
</g>
<!-- Node2&#45;&gt;Node4 -->
<g id="edge3" class="edge">
<title>Node2&#45;&gt;Node4</title>
<path fill="none" stroke="midnightblue" d="M576.58,-243.56C559.37,-258.74 534.76,-278.26 510,-290.4 502.52,-294.07 494.41,-297.23 486.21,-299.94"/>
<polygon fill="midnightblue" stroke="midnightblue" points="579.32,-245.8 584.4,-236.51 574.63,-240.6 579.32,-245.8"/>
</g>
<!-- Node5 -->
<g id="node5" class="node">
<title>Node5</title>
<g id="a_node5"><a xlink:href="namespaceproblem__setup.html#ae8a464882c2862a981f40e102eddeb7d" target="_top" xlink:title=" ">
<polygon fill="none" stroke="black" points="341.5,-250.4 341.5,-280.4 494.5,-280.4 494.5,-250.4 341.5,-250.4"/>
<text text-anchor="start" x="349.5" y="-268.4" font-family="Arial" font-size="10.00">problem_setup.generate</text>
<text text-anchor="middle" x="418" y="-257.4" font-family="Arial" font-size="10.00">_moving_rect_wall_gmsh_input</text>
</a>
</g>
</g>
<!-- Node2&#45;&gt;Node5 -->
<g id="edge4" class="edge">
<title>Node2&#45;&gt;Node5</title>
<path fill="none" stroke="midnightblue" d="M535.93,-236.97C518.04,-241.32 498.65,-246.04 480.89,-250.36"/>
<polygon fill="midnightblue" stroke="midnightblue" points="536.8,-240.36 545.69,-234.6 535.15,-233.56 536.8,-240.36"/>
</g>
<!-- Node6 -->
<g id="node6" class="node">
<title>Node6</title>
<g id="a_node6"><a xlink:href="namespaceproblem__setup.html#a8c789550cc1b70abe559c976bcf664e4" target="_top" xlink:title=" ">
<polygon fill="none" stroke="black" points="352.5,-162.4 352.5,-192.4 483.5,-192.4 483.5,-162.4 352.5,-162.4"/>
<text text-anchor="start" x="360.5" y="-180.4" font-family="Arial" font-size="10.00">problem_setup.generate</text>
<text text-anchor="middle" x="418" y="-169.4" font-family="Arial" font-size="10.00">_moving_wall_gmsh_input</text>
</a>
</g>
</g>
<!-- Node2&#45;&gt;Node6 -->
<g id="edge5" class="edge">
<title>Node2&#45;&gt;Node6</title>
<path fill="none" stroke="midnightblue" d="M535.93,-205.82C518.04,-201.48 498.65,-196.76 480.89,-192.44"/>
<polygon fill="midnightblue" stroke="midnightblue" points="535.15,-209.24 545.69,-208.2 536.8,-202.43 535.15,-209.24"/>
</g>
<!-- Node7 -->
<g id="node7" class="node">
<title>Node7</title>
<g id="a_node7"><a xlink:href="namespaceproblem__setup.html#a147f310ff74124342d15ab356739883f" target="_top" xlink:title=" ">
<polygon fill="none" stroke="black" points="357.5,-113.4 357.5,-143.4 478.5,-143.4 478.5,-113.4 357.5,-113.4"/>
<text text-anchor="start" x="365.5" y="-131.4" font-family="Arial" font-size="10.00">problem_setup.generate</text>
<text text-anchor="middle" x="418" y="-120.4" font-family="Arial" font-size="10.00">_particle_gmsh_input</text>
</a>
</g>
</g>
<!-- Node2&#45;&gt;Node7 -->
<g id="edge6" class="edge">
<title>Node2&#45;&gt;Node7</title>
<path fill="none" stroke="midnightblue" d="M576.17,-199.38C558.93,-184.5 534.46,-165.44 510,-153.4 500.3,-148.62 489.55,-144.65 478.94,-141.38"/>
<polygon fill="midnightblue" stroke="midnightblue" points="574.2,-202.31 584.02,-206.3 578.83,-197.06 574.2,-202.31"/>
</g>
<!-- Node2&#45;&gt;Node9 -->
<g id="edge14" class="edge">
<title>Node2&#45;&gt;Node9</title>
<path fill="none" stroke="midnightblue" d="M535.58,-221.4C464.36,-221.4 350.55,-221.4 281.25,-221.4"/>
<polygon fill="midnightblue" stroke="midnightblue" points="535.77,-224.9 545.77,-221.4 535.77,-217.9 535.77,-224.9"/>
</g>
<!-- Node2&#45;&gt;Node10 -->
<g id="edge16" class="edge">
<title>Node2&#45;&gt;Node10</title>
<path fill="none" stroke="midnightblue" d="M589.15,-197.01C575.25,-168.99 548.28,-124.19 510,-103.4 437.5,-64.01 339.27,-66.11 278.17,-72.67"/>
<polygon fill="midnightblue" stroke="midnightblue" points="586.06,-198.65 593.53,-206.16 592.37,-195.63 586.06,-198.65"/>
</g>
<!-- Node11 -->
<g id="node11" class="node">
<title>Node11</title>
<g id="a_node11"><a xlink:href="namespaceproblem__setup.html#a9a8d53047175304f4c44b93a2f6fa482" target="_top" xlink:title=" ">
<polygon fill="none" stroke="black" points="151,-422.4 151,-452.4 290,-452.4 290,-422.4 151,-422.4"/>
<text text-anchor="start" x="159" y="-440.4" font-family="Arial" font-size="10.00">problem_setup.generate</text>
<text text-anchor="middle" x="220.5" y="-429.4" font-family="Arial" font-size="10.00">_rect_container_gmsh_input</text>
</a>
</g>
</g>
<!-- Node2&#45;&gt;Node11 -->
<g id="edge10" class="edge">
<title>Node2&#45;&gt;Node11</title>
<path fill="none" stroke="midnightblue" d="M598.75,-246.64C594.8,-295.63 578.37,-402.89 510,-449.4 434.36,-500.86 319.95,-472.85 260.48,-452.53"/>
<polygon fill="midnightblue" stroke="midnightblue" points="602.25,-246.79 599.45,-236.57 595.26,-246.31 602.25,-246.79"/>
</g>
<!-- Node13 -->
<g id="node13" class="node">
<title>Node13</title>
<g id="a_node13"><a xlink:href="namespaceproblem__setup.html#ab2d86f4fe187ef9b78d1ad4ea438b98b" target="_top" xlink:title=" ">
<polygon fill="none" stroke="black" points="326,-348.9 326,-389.9 510,-389.9 510,-348.9 326,-348.9"/>
<text text-anchor="start" x="334" y="-377.9" font-family="Arial" font-size="10.00">problem_setup.generate</text>
<text text-anchor="start" x="334" y="-366.9" font-family="Arial" font-size="10.00">_rectangle_with_protrusion</text>
<text text-anchor="middle" x="418" y="-355.9" font-family="Arial" font-size="10.00">_and_opening_wall_gmsh_input_type3</text>
</a>
</g>
</g>
<!-- Node2&#45;&gt;Node13 -->
<g id="edge12" class="edge">
<title>Node2&#45;&gt;Node13</title>
<path fill="none" stroke="midnightblue" d="M587.52,-245.44C572.52,-272.06 544.95,-314.51 510,-339.4 505.12,-342.87 499.82,-345.96 494.3,-348.71"/>
<polygon fill="midnightblue" stroke="midnightblue" points="590.73,-246.86 592.46,-236.4 584.59,-243.49 590.73,-246.86"/>
</g>
<!-- Node2&#45;&gt;Node14 -->
<g id="edge15" class="edge">
<title>Node2&#45;&gt;Node14</title>
<path fill="none" stroke="midnightblue" d="M591.56,-196.63C578.95,-163.25 552.08,-104.14 510,-70.4 500.01,-62.39 487.79,-56.48 475.6,-52.14"/>
<polygon fill="midnightblue" stroke="midnightblue" points="588.3,-197.91 595.01,-206.11 594.87,-195.51 588.3,-197.91"/>
</g>
<!-- Node8 -->
<g id="node8" class="node">
<title>Node8</title>
<g id="a_node8"><a xlink:href="namespaceproblem__setup.html#a94bf8e7f89d392c05bd34dfd6a513675" target="_top" xlink:title=" ">
<polygon fill="none" stroke="black" points="160,-115.4 160,-145.4 281,-145.4 281,-115.4 160,-115.4"/>
<text text-anchor="start" x="168" y="-133.4" font-family="Arial" font-size="10.00">problem_setup.generate</text>
<text text-anchor="middle" x="220.5" y="-122.4" font-family="Arial" font-size="10.00">_particle_gmsh_input</text>
</a>
</g>
</g>
<!-- Node7&#45;&gt;Node8 -->
<g id="edge7" class="edge">
<title>Node7&#45;&gt;Node8</title>
<path fill="none" stroke="midnightblue" d="M347.19,-129.11C325.6,-129.33 302.03,-129.58 281.19,-129.79"/>
<polygon fill="midnightblue" stroke="midnightblue" points="347.32,-132.61 357.28,-129.01 347.25,-125.61 347.32,-132.61"/>
</g>
<!-- Node7&#45;&gt;Node9 -->
<g id="edge8" class="edge">
<title>Node7&#45;&gt;Node9</title>
<path fill="none" stroke="midnightblue" d="M347.33,-145.13C340.02,-147.6 332.78,-150.35 326,-153.4 294.22,-167.69 261.08,-190.9 240.86,-206.16"/>
<polygon fill="midnightblue" stroke="midnightblue" points="348.86,-148.32 357.32,-141.94 346.73,-141.65 348.86,-148.32"/>
</g>
<!-- Node7&#45;&gt;Node10 -->
<g id="edge9" class="edge">
<title>Node7&#45;&gt;Node10</title>
<path fill="none" stroke="midnightblue" d="M347.37,-111.66C324.69,-106.21 299.8,-100.22 278.18,-95.03"/>
<polygon fill="midnightblue" stroke="midnightblue" points="346.74,-115.11 357.28,-114.04 348.38,-108.3 346.74,-115.11"/>
</g>
<!-- Node12 -->
<g id="node12" class="node">
<title>Node12</title>
<g id="a_node12"><a xlink:href="namespaceproblem__setup.html#a5a8a494c7325b103530d3f40d4b49fe8" target="_top" xlink:title=" ">
<polygon fill="none" stroke="black" points="0,-422.4 0,-452.4 115,-452.4 115,-422.4 0,-422.4"/>
<text text-anchor="start" x="8" y="-440.4" font-family="Arial" font-size="10.00">problem_setup.particle</text>
<text text-anchor="middle" x="57.5" y="-429.4" font-family="Arial" font-size="10.00">_locations_old</text>
</a>
</g>
</g>
<!-- Node11&#45;&gt;Node12 -->
<g id="edge11" class="edge">
<title>Node11&#45;&gt;Node12</title>
<path fill="none" stroke="midnightblue" d="M140.74,-437.4C132.19,-437.4 123.6,-437.4 115.38,-437.4"/>
<polygon fill="midnightblue" stroke="midnightblue" points="140.75,-440.9 150.75,-437.4 140.75,-433.9 140.75,-440.9"/>
</g>
<!-- Node13&#45;&gt;Node11 -->
<g id="edge13" class="edge">
<title>Node13&#45;&gt;Node11</title>
<path fill="none" stroke="midnightblue" d="M346.73,-393.24C339.73,-395.65 332.72,-398.07 326,-400.4 305.46,-407.54 282.69,-415.58 263.66,-422.34"/>
<polygon fill="midnightblue" stroke="midnightblue" points="347.94,-396.53 356.27,-389.98 345.67,-389.91 347.94,-396.53"/>
</g>
</g>
</svg>
