<?xml version="1.0" encoding="UTF-8" standalone="no"?>
<!DOCTYPE svg PUBLIC "-//W3C//DTD SVG 1.1//EN"
 "http://www.w3.org/Graphics/SVG/1.1/DTD/svg11.dtd">
<!-- Generated by graphviz version 2.43.0 (0)
 -->
<!-- Title: util.generate_circle_gmsh_input Pages: 1 -->
<svg width="366pt" height="142pt"
 viewBox="0.00 0.00 366.00 142.00" xmlns="http://www.w3.org/2000/svg" xmlns:xlink="http://www.w3.org/1999/xlink">
<g id="graph0" class="graph" transform="scale(1 1) rotate(0) translate(4 138)">
<title>util.generate_circle_gmsh_input</title>
<!-- Node1 -->
<g id="node1" class="node">
<title>Node1</title>
<g id="a_node1"><a xlink:title=" ">
<polygon fill="#bfbfbf" stroke="black" points="0,-52 0,-82 98,-82 98,-52 0,-52"/>
<text text-anchor="start" x="8" y="-70" font-family="Arial" font-size="10.00">util.generate_circle</text>
<text text-anchor="middle" x="49" y="-59" font-family="Arial" font-size="10.00">_gmsh_input</text>
</a>
</g>
</g>
<!-- Node2 -->
<g id="node2" class="node">
<title>Node2</title>
<g id="a_node2"><a xlink:href="namespaceutil.html#a2c611a7877a2954aa772b1070588254d" target="_top" xlink:title=" ">
<polygon fill="none" stroke="black" points="147,-114.5 147,-133.5 240,-133.5 240,-114.5 147,-114.5"/>
<text text-anchor="middle" x="193.5" y="-121.5" font-family="Arial" font-size="10.00">util.gmsh_file_hdr</text>
</a>
</g>
</g>
<!-- Node1&#45;&gt;Node2 -->
<g id="edge1" class="edge">
<title>Node1&#45;&gt;Node2</title>
<path fill="none" stroke="midnightblue" d="M81.16,-82.09C96.84,-89.43 116.24,-98.12 134,-105 139.55,-107.15 145.46,-109.26 151.3,-111.26"/>
<polygon fill="midnightblue" stroke="midnightblue" points="150.41,-114.65 161,-114.48 152.62,-108 150.41,-114.65"/>
</g>
<!-- Node3 -->
<g id="node3" class="node">
<title>Node3</title>
<g id="a_node3"><a xlink:href="namespaceutil.html#a6b6fcdb8cecbf1a465e07b7d80dc7103" target="_top" xlink:title=" ">
<polygon fill="none" stroke="black" points="145.5,-76.5 145.5,-95.5 241.5,-95.5 241.5,-76.5 145.5,-76.5"/>
<text text-anchor="middle" x="193.5" y="-83.5" font-family="Arial" font-size="10.00">util.print_cir_gmsh</text>
</a>
</g>
</g>
<!-- Node1&#45;&gt;Node3 -->
<g id="edge2" class="edge">
<title>Node1&#45;&gt;Node3</title>
<path fill="none" stroke="midnightblue" d="M98.24,-73.43C110.1,-75.01 122.91,-76.72 135.16,-78.35"/>
<polygon fill="midnightblue" stroke="midnightblue" points="134.9,-81.85 145.27,-79.7 135.82,-74.91 134.9,-81.85"/>
</g>
<!-- Node5 -->
<g id="node5" class="node">
<title>Node5</title>
<g id="a_node5"><a xlink:href="namespaceutil.html#a72d82fa53f65276aebeab8f94d9bc0a2" target="_top" xlink:title=" ">
<polygon fill="none" stroke="black" points="134,-38.5 134,-57.5 253,-57.5 253,-38.5 134,-38.5"/>
<text text-anchor="middle" x="193.5" y="-45.5" font-family="Arial" font-size="10.00">util.print_lineloop_gmsh</text>
</a>
</g>
</g>
<!-- Node1&#45;&gt;Node5 -->
<g id="edge4" class="edge">
<title>Node1&#45;&gt;Node5</title>
<path fill="none" stroke="midnightblue" d="M98.24,-60.57C106.48,-59.47 115.19,-58.31 123.84,-57.16"/>
<polygon fill="midnightblue" stroke="midnightblue" points="124.49,-60.6 133.94,-55.81 123.56,-53.66 124.49,-60.6"/>
</g>
<!-- Node6 -->
<g id="node6" class="node">
<title>Node6</title>
<g id="a_node6"><a xlink:href="namespaceutil.html#ad685ebb414a7eaa15ce837239da99cc2" target="_top" xlink:title=" ">
<polygon fill="none" stroke="black" points="140,-0.5 140,-19.5 247,-19.5 247,-0.5 140,-0.5"/>
<text text-anchor="middle" x="193.5" y="-7.5" font-family="Arial" font-size="10.00">util.print_point_gmsh</text>
</a>
</g>
</g>
<!-- Node1&#45;&gt;Node6 -->
<g id="edge6" class="edge">
<title>Node1&#45;&gt;Node6</title>
<path fill="none" stroke="midnightblue" d="M81.16,-51.91C96.84,-44.57 116.24,-35.88 134,-29 139.55,-26.85 145.46,-24.74 151.3,-22.74"/>
<polygon fill="midnightblue" stroke="midnightblue" points="152.62,-26 161,-19.52 150.41,-19.35 152.62,-26"/>
</g>
<!-- Node4 -->
<g id="node4" class="node">
<title>Node4</title>
<g id="a_node4"><a xlink:href="namespaceutil.html#aa3e4b03d30366bd4eb0ce3af6fec29f4" target="_top" xlink:title=" ">
<polygon fill="none" stroke="black" points="289,-38.5 289,-57.5 358,-57.5 358,-38.5 289,-38.5"/>
<text text-anchor="middle" x="323.5" y="-45.5" font-family="Arial" font-size="10.00">util.print_list</text>
</a>
</g>
</g>
<!-- Node3&#45;&gt;Node4 -->
<g id="edge3" class="edge">
<title>Node3&#45;&gt;Node4</title>
<path fill="none" stroke="midnightblue" d="M226.8,-76.41C243.02,-71.6 262.88,-65.7 280.29,-60.53"/>
<polygon fill="midnightblue" stroke="midnightblue" points="281.62,-63.79 290.21,-57.59 279.63,-57.08 281.62,-63.79"/>
</g>
<!-- Node5&#45;&gt;Node4 -->
<g id="edge5" class="edge">
<title>Node5&#45;&gt;Node4</title>
<path fill="none" stroke="midnightblue" d="M253.26,-48C261.85,-48 270.57,-48 278.8,-48"/>
<polygon fill="midnightblue" stroke="midnightblue" points="278.9,-51.5 288.9,-48 278.9,-44.5 278.9,-51.5"/>
</g>
<!-- Node6&#45;&gt;Node4 -->
<g id="edge7" class="edge">
<title>Node6&#45;&gt;Node4</title>
<path fill="none" stroke="midnightblue" d="M226.8,-19.59C243.02,-24.4 262.88,-30.3 280.29,-35.47"/>
<polygon fill="midnightblue" stroke="midnightblue" points="279.63,-38.92 290.21,-38.41 281.62,-32.21 279.63,-38.92"/>
</g>
</g>
</svg>
