<?xml version="1.0" encoding="UTF-8" standalone="no"?>
<!DOCTYPE svg PUBLIC "-//W3C//DTD SVG 1.1//EN"
 "http://www.w3.org/Graphics/SVG/1.1/DTD/svg11.dtd">
<!-- Generated by graphviz version 2.43.0 (0)
 -->
<!-- Title: material::computeStateMx Pages: 1 -->
<svg width="414pt" height="93pt"
 viewBox="0.00 0.00 414.00 93.00" xmlns="http://www.w3.org/2000/svg" xmlns:xlink="http://www.w3.org/1999/xlink">
<g id="graph0" class="graph" transform="scale(1 1) rotate(0) translate(4 89)">
<title>material::computeStateMx</title>
<!-- Node1 -->
<g id="Node000001" class="node">
<title>Node1</title>
<g id="a_Node000001"><a xlink:title="Computes the moment &#160;term in state&#45;based peridynamic formulation.">
<polygon fill="#999999" stroke="#666666" points="131,-43 0,-43 0,-24 131,-24 131,-43"/>
<text text-anchor="middle" x="65.5" y="-31" font-family="Arial" font-size="10.00">material::computeStateMx</text>
</a>
</g>
</g>
<!-- Node2 -->
<g id="Node000002" class="node">
<title>Node2</title>
<g id="a_Node000002"><a xlink:href="namespaceanonymous__namespace_02materialUtil_8cpp_03.html#aff1913c73e8759db1524549e3c4a187e" target="_top" xlink:title=" ">
<polygon fill="white" stroke="#666666" points="292,-78 170,-78 170,-37 292,-37 292,-78"/>
<text text-anchor="start" x="178" y="-66" font-family="Arial" font-size="10.00">anonymous_namespace</text>
<text text-anchor="start" x="178" y="-55" font-family="Arial" font-size="10.00">{materialUtil::cpp}</text>
<text text-anchor="middle" x="231" y="-44" font-family="Arial" font-size="10.00">::computeStateMxI</text>
</a>
</g>
</g>
<!-- Node1&#45;&gt;Node2 -->
<g id="edge1_Node000001_Node000002" class="edge">
<title>Node1&#45;&gt;Node2</title>
<g id="a_edge1_Node000001_Node000002"><a xlink:title=" ">
<path fill="none" stroke="#63b8ff" d="M131.12,-42.99C140.49,-44.36 150.18,-45.78 159.66,-47.18"/>
<polygon fill="#63b8ff" stroke="#63b8ff" points="159.44,-50.68 169.84,-48.67 160.45,-43.75 159.44,-50.68"/>
</a>
</g>
</g>
<!-- Node5 -->
<g id="Node000005" class="node">
<title>Node5</title>
<g id="a_Node000005"><a xlink:href="namespaceutil_1_1parallel.html#a4ad550a438091fb9cd924783e690764d" target="_top" xlink:title="Get number of threads to be used by taskflow.">
<polygon fill="white" stroke="#666666" points="295,-19 167,-19 167,0 295,0 295,-19"/>
<text text-anchor="middle" x="231" y="-7" font-family="Arial" font-size="10.00">util::parallel::getNThreads</text>
</a>
</g>
</g>
<!-- Node1&#45;&gt;Node5 -->
<g id="edge4_Node000001_Node000005" class="edge">
<title>Node1&#45;&gt;Node5</title>
<g id="a_edge4_Node000001_Node000005"><a xlink:title=" ">
<path fill="none" stroke="#63b8ff" d="M131.12,-24.01C139.59,-22.77 148.31,-21.49 156.91,-20.23"/>
<polygon fill="#63b8ff" stroke="#63b8ff" points="157.53,-23.68 166.92,-18.76 156.52,-16.75 157.53,-23.68"/>
</a>
</g>
</g>
<!-- Node3 -->
<g id="Node000003" class="node">
<title>Node3</title>
<g id="a_Node000003"><a xlink:href="namespaceutil.html#a227b5f8acbd7a403a033663c8893d631" target="_top" xlink:title="Returns true if a &gt; b.">
<polygon fill="white" stroke="#666666" points="406,-85 331,-85 331,-66 406,-66 406,-85"/>
<text text-anchor="middle" x="368.5" y="-73" font-family="Arial" font-size="10.00">util::isGreater</text>
</a>
</g>
</g>
<!-- Node2&#45;&gt;Node3 -->
<g id="edge2_Node000002_Node000003" class="edge">
<title>Node2&#45;&gt;Node3</title>
<g id="a_edge2_Node000002_Node000003"><a xlink:title=" ">
<path fill="none" stroke="#63b8ff" d="M292.22,-65.5C301.77,-66.77 311.53,-68.06 320.71,-69.28"/>
<polygon fill="#63b8ff" stroke="#63b8ff" points="320.42,-72.78 330.8,-70.62 321.34,-65.84 320.42,-72.78"/>
</a>
</g>
</g>
<!-- Node4 -->
<g id="Node000004" class="node">
<title>Node4</title>
<g id="a_Node000004"><a xlink:href="namespaceutil.html#a868a26599b6b844d08d30063ac898319" target="_top" xlink:title="Returns true if a &lt; b.">
<polygon fill="white" stroke="#666666" points="400.5,-48 336.5,-48 336.5,-29 400.5,-29 400.5,-48"/>
<text text-anchor="middle" x="368.5" y="-36" font-family="Arial" font-size="10.00">util::isLess</text>
</a>
</g>
</g>
<!-- Node2&#45;&gt;Node4 -->
<g id="edge3_Node000002_Node000004" class="edge">
<title>Node2&#45;&gt;Node4</title>
<g id="a_edge3_Node000002_Node000004"><a xlink:title=" ">
<path fill="none" stroke="#63b8ff" d="M292.22,-49.06C303.79,-47.43 315.66,-45.77 326.45,-44.26"/>
<polygon fill="#63b8ff" stroke="#63b8ff" points="327,-47.71 336.42,-42.86 326.03,-40.78 327,-47.71"/>
</a>
</g>
</g>
</g>
</svg>
