<?xml version="1.0" encoding="UTF-8" standalone="no"?>
<!DOCTYPE svg PUBLIC "-//W3C//DTD SVG 1.1//EN"
 "http://www.w3.org/Graphics/SVG/1.1/DTD/svg11.dtd">
<!-- Generated by graphviz version 2.43.0 (0)
 -->
<!-- Title: util::parallel::mpiComm Pages: 1 -->
<svg width="427pt" height="27pt"
 viewBox="0.00 0.00 427.00 27.00" xmlns="http://www.w3.org/2000/svg" xmlns:xlink="http://www.w3.org/1999/xlink">
<g id="graph0" class="graph" transform="scale(1 1) rotate(0) translate(4 23)">
<title>util::parallel::mpiComm</title>
<!-- Node1 -->
<g id="Node000001" class="node">
<title>Node1</title>
<g id="a_Node000001"><a xlink:title="Get MPI comm.">
<polygon fill="#999999" stroke="#666666" points="117,-19 0,-19 0,0 117,0 117,-19"/>
<text text-anchor="middle" x="58.5" y="-7" font-family="Arial" font-size="10.00">util::parallel::mpiComm</text>
</a>
</g>
</g>
<!-- Node2 -->
<g id="Node000002" class="node">
<title>Node2</title>
<g id="a_Node000002"><a xlink:href="namespaceutil_1_1parallel.html#aa0c65ae0f7fb6e0c4f3104c5bf3b1ff6" target="_top" xlink:title="Initializes MPI and also creates MpiStatus struct.">
<polygon fill="white" stroke="#666666" points="254,-19 153,-19 153,0 254,0 254,-19"/>
<text text-anchor="middle" x="203.5" y="-7" font-family="Arial" font-size="10.00">util::parallel::initMpi</text>
</a>
</g>
</g>
<!-- Node1&#45;&gt;Node2 -->
<g id="edge1_Node000001_Node000002" class="edge">
<title>Node1&#45;&gt;Node2</title>
<g id="a_edge1_Node000001_Node000002"><a xlink:title=" ">
<path fill="none" stroke="#63b8ff" d="M117.25,-9.5C125.63,-9.5 134.27,-9.5 142.68,-9.5"/>
<polygon fill="#63b8ff" stroke="#63b8ff" points="142.81,-13 152.81,-9.5 142.81,-6 142.81,-13"/>
</a>
</g>
</g>
<!-- Node3 -->
<g id="Node000003" class="node">
<title>Node3</title>
<g id="a_Node000003"><a xlink:href="namespaceutil_1_1parallel.html#a47cb50d2db6de7cf2a786994f274cc9a" target="_top" xlink:title="Initializes MpiStatus struct.">
<polygon fill="white" stroke="#666666" points="419,-19 290,-19 290,0 419,0 419,-19"/>
<text text-anchor="middle" x="354.5" y="-7" font-family="Arial" font-size="10.00">util::parallel::initMpiStatus</text>
</a>
</g>
</g>
<!-- Node2&#45;&gt;Node3 -->
<g id="edge2_Node000002_Node000003" class="edge">
<title>Node2&#45;&gt;Node3</title>
<g id="a_edge2_Node000002_Node000003"><a xlink:title=" ">
<path fill="none" stroke="#63b8ff" d="M254.11,-9.5C262.33,-9.5 271,-9.5 279.66,-9.5"/>
<polygon fill="#63b8ff" stroke="#63b8ff" points="279.79,-13 289.79,-9.5 279.79,-6 279.79,-13"/>
</a>
</g>
</g>
</g>
</svg>
