<?xml version="1.0" encoding="UTF-8" standalone="no"?>
<!DOCTYPE svg PUBLIC "-//W3C//DTD SVG 1.1//EN"
 "http://www.w3.org/Graphics/SVG/1.1/DTD/svg11.dtd">
<!-- Generated by graphviz version 2.43.0 (0)
 -->
<!-- Title: util.rotate Pages: 1 -->
<svg width="285pt" height="28pt"
 viewBox="0.00 0.00 285.00 28.00" xmlns="http://www.w3.org/2000/svg" xmlns:xlink="http://www.w3.org/1999/xlink">
<g id="graph0" class="graph" transform="scale(1 1) rotate(0) translate(4 24)">
<title>util.rotate</title>
<!-- Node1 -->
<g id="node1" class="node">
<title>Node1</title>
<g id="a_node1"><a xlink:title=" ">
<polygon fill="#bfbfbf" stroke="black" points="0,-0.5 0,-19.5 57,-19.5 57,-0.5 0,-0.5"/>
<text text-anchor="middle" x="28.5" y="-7.5" font-family="Arial" font-size="10.00">util.rotate</text>
</a>
</g>
</g>
<!-- Node2 -->
<g id="node2" class="node">
<title>Node2</title>
<g id="a_node2"><a xlink:href="namespaceutil.html#afc570d133c5159571a48456e2440753a" target="_top" xlink:title="Returns the vector after rotating by desired angle.">
<polygon fill="none" stroke="black" points="93,-0.5 93,-19.5 153,-19.5 153,-0.5 93,-0.5"/>
<text text-anchor="middle" x="123" y="-7.5" font-family="Arial" font-size="10.00">util::rotate</text>
</a>
</g>
</g>
<!-- Node1&#45;&gt;Node2 -->
<g id="edge1" class="edge">
<title>Node1&#45;&gt;Node2</title>
<path fill="none" stroke="midnightblue" d="M57,-10C65.03,-10 73.96,-10 82.57,-10"/>
<polygon fill="midnightblue" stroke="midnightblue" points="82.83,-13.5 92.83,-10 82.83,-6.5 82.83,-13.5"/>
</g>
<!-- Node3 -->
<g id="node3" class="node">
<title>Node3</title>
<g id="a_node3"><a xlink:href="structutil_1_1Point.html#a8c5530ee2dac6fa26f88be0de91543f7" target="_top" xlink:title="Computes the cross product between this vector and given vector.">
<polygon fill="none" stroke="black" points="189,-0.5 189,-19.5 277,-19.5 277,-0.5 189,-0.5"/>
<text text-anchor="middle" x="233" y="-7.5" font-family="Arial" font-size="10.00">util::Point::cross</text>
</a>
</g>
</g>
<!-- Node2&#45;&gt;Node3 -->
<g id="edge2" class="edge">
<title>Node2&#45;&gt;Node3</title>
<path fill="none" stroke="midnightblue" d="M153.23,-10C161.13,-10 169.93,-10 178.72,-10"/>
<polygon fill="midnightblue" stroke="midnightblue" points="178.96,-13.5 188.96,-10 178.96,-6.5 178.96,-13.5"/>
</g>
</g>
</svg>
