<?xml version="1.0" encoding="UTF-8" standalone="no"?>
<!DOCTYPE svg PUBLIC "-//W3C//DTD SVG 1.1//EN"
 "http://www.w3.org/Graphics/SVG/1.1/DTD/svg11.dtd">
<!-- Generated by graphviz version 2.43.0 (0)
 -->
<!-- Title: test::testPeriDEM Pages: 1 -->
<svg width="256pt" height="66pt"
 viewBox="0.00 0.00 256.00 66.00" xmlns="http://www.w3.org/2000/svg" xmlns:xlink="http://www.w3.org/1999/xlink">
<g id="graph0" class="graph" transform="scale(1 1) rotate(0) translate(4 62)">
<title>test::testPeriDEM</title>
<!-- Node1 -->
<g id="node1" class="node">
<title>Node1</title>
<g id="a_node1"><a xlink:title="Tests PeriDEM model class.">
<polygon fill="#bfbfbf" stroke="black" points="0,-19.5 0,-38.5 95,-38.5 95,-19.5 0,-19.5"/>
<text text-anchor="middle" x="47.5" y="-26.5" font-family="Arial" font-size="10.00">test::testPeriDEM</text>
</a>
</g>
</g>
<!-- Node2 -->
<g id="node2" class="node">
<title>Node2</title>
<g id="a_node2"><a xlink:href="classmodel_1_1DEMModel.html#ae8eba7a12449983fa10d07e3b7374512" target="_top" xlink:title="Main driver to simulate.">
<polygon fill="none" stroke="black" points="131,-38.5 131,-57.5 248,-57.5 248,-38.5 131,-38.5"/>
<text text-anchor="middle" x="189.5" y="-45.5" font-family="Arial" font-size="10.00">model::DEMModel::run</text>
</a>
</g>
</g>
<!-- Node1&#45;&gt;Node2 -->
<g id="edge1" class="edge">
<title>Node1&#45;&gt;Node2</title>
<path fill="none" stroke="midnightblue" d="M95.12,-35.33C103.35,-36.44 112.07,-37.63 120.75,-38.8"/>
<polygon fill="midnightblue" stroke="midnightblue" points="120.49,-42.3 130.87,-40.18 121.44,-35.37 120.49,-42.3"/>
</g>
<!-- Node3 -->
<g id="node3" class="node">
<title>Node3</title>
<g id="a_node3"><a xlink:href="namespaceutil_1_1methods.html#aaf9cfac99073d034d41e10d4d17e59a2" target="_top" xlink:title="Returns difference between two times.">
<polygon fill="none" stroke="black" points="133,-0.5 133,-19.5 246,-19.5 246,-0.5 133,-0.5"/>
<text text-anchor="middle" x="189.5" y="-7.5" font-family="Arial" font-size="10.00">util::methods::timeDiff</text>
</a>
</g>
</g>
<!-- Node1&#45;&gt;Node3 -->
<g id="edge2" class="edge">
<title>Node1&#45;&gt;Node3</title>
<path fill="none" stroke="midnightblue" d="M95.12,-22.67C104,-21.47 113.44,-20.19 122.79,-18.92"/>
<polygon fill="midnightblue" stroke="midnightblue" points="123.42,-22.37 132.85,-17.55 122.47,-15.43 123.42,-22.37"/>
</g>
</g>
</svg>
