<?xml version="1.0" encoding="UTF-8" standalone="no"?>
<!DOCTYPE svg PUBLIC "-//W3C//DTD SVG 1.1//EN"
 "http://www.w3.org/Graphics/SVG/1.1/DTD/svg11.dtd">
<!-- Generated by graphviz version 2.43.0 (0)
 -->
<!-- Title: test::getExactIntegrationRefTet Pages: 1 -->
<svg width="334pt" height="38pt"
 viewBox="0.00 0.00 334.00 38.00" xmlns="http://www.w3.org/2000/svg" xmlns:xlink="http://www.w3.org/1999/xlink">
<g id="graph0" class="graph" transform="scale(1 1) rotate(0) translate(4 34)">
<title>test::getExactIntegrationRefTet</title>
<!-- Node1 -->
<g id="Node000001" class="node">
<title>Node1</title>
<g id="a_Node000001"><a xlink:title="Computes integration of polynomial exactly over reference tetrahedral.">
<polygon fill="#999999" stroke="#666666" points="326,-30 202,-30 202,0 326,0 326,-30"/>
<text text-anchor="start" x="210" y="-18" font-family="Arial" font-size="10.00">test::getExactIntegration</text>
<text text-anchor="middle" x="264" y="-7" font-family="Arial" font-size="10.00">RefTet</text>
</a>
</g>
</g>
<!-- Node2 -->
<g id="Node000002" class="node">
<title>Node2</title>
<g id="a_Node000002"><a xlink:href="namespacetest.html#aa7c71a77ba3a1a442ebad77cbb0bc242" target="_top" xlink:title="Perform test on quadrature points on tetrahedral elements.">
<polygon fill="white" stroke="#666666" points="166,-24.5 74,-24.5 74,-5.5 166,-5.5 166,-24.5"/>
<text text-anchor="middle" x="120" y="-12.5" font-family="Arial" font-size="10.00">test::testTetElem</text>
</a>
</g>
</g>
<!-- Node1&#45;&gt;Node2 -->
<g id="edge1_Node000001_Node000002" class="edge">
<title>Node1&#45;&gt;Node2</title>
<g id="a_edge1_Node000001_Node000002"><a xlink:title=" ">
<path fill="none" stroke="#63b8ff" d="M191.75,-15C183.03,-15 174.31,-15 166.12,-15"/>
<polygon fill="#63b8ff" stroke="#63b8ff" points="191.96,-18.5 201.96,-15 191.96,-11.5 191.96,-18.5"/>
</a>
</g>
</g>
<!-- Node3 -->
<g id="Node000003" class="node">
<title>Node3</title>
<g id="a_Node000003"><a xlink:href="testFe_8cpp.html#a0ddf1224851353fc92bfbff6f499fa97" target="_top" xlink:title=" ">
<polygon fill="white" stroke="#666666" points="38,-24.5 0,-24.5 0,-5.5 38,-5.5 38,-24.5"/>
<text text-anchor="middle" x="19" y="-12.5" font-family="Arial" font-size="10.00">main</text>
</a>
</g>
</g>
<!-- Node2&#45;&gt;Node3 -->
<g id="edge2_Node000002_Node000003" class="edge">
<title>Node2&#45;&gt;Node3</title>
<g id="a_edge2_Node000002_Node000003"><a xlink:title=" ">
<path fill="none" stroke="#63b8ff" d="M63.75,-15C54.49,-15 45.49,-15 38.1,-15"/>
<polygon fill="#63b8ff" stroke="#63b8ff" points="63.85,-18.5 73.85,-15 63.85,-11.5 63.85,-18.5"/>
</a>
</g>
</g>
</g>
</svg>
