<?xml version="1.0" encoding="UTF-8" standalone="no"?>
<!DOCTYPE svg PUBLIC "-//W3C//DTD SVG 1.1//EN"
 "http://www.w3.org/Graphics/SVG/1.1/DTD/svg11.dtd">
<!-- Generated by graphviz version 2.43.0 (0)
 -->
<!-- Title: gmsh_particles.polygon_mesh_symmetric Pages: 1 -->
<svg width="417pt" height="124pt"
 viewBox="0.00 0.00 417.00 123.50" xmlns="http://www.w3.org/2000/svg" xmlns:xlink="http://www.w3.org/1999/xlink">
<g id="graph0" class="graph" transform="scale(1 1) rotate(0) translate(4 119.5)">
<title>gmsh_particles.polygon_mesh_symmetric</title>
<!-- Node1 -->
<g id="Node000001" class="node">
<title>Node1</title>
<g id="a_Node000001"><a xlink:title=" ">
<polygon fill="#999999" stroke="#666666" points="119,-67.5 0,-67.5 0,-37.5 119,-37.5 119,-67.5"/>
<text text-anchor="start" x="8" y="-55.5" font-family="Arial" font-size="10.00">gmsh_particles.polygon</text>
<text text-anchor="middle" x="59.5" y="-44.5" font-family="Arial" font-size="10.00">_mesh_symmetric</text>
</a>
</g>
</g>
<!-- Node2 -->
<g id="Node000002" class="node">
<title>Node2</title>
<g id="a_Node000002"><a xlink:href="namespacegeom__util.html#a4cff2d2279e07cecdbff9c469cadc986" target="_top" xlink:title=" ">
<polygon fill="white" stroke="#666666" points="273,-115.5 169,-115.5 169,-85.5 273,-85.5 273,-115.5"/>
<text text-anchor="start" x="177" y="-103.5" font-family="Arial" font-size="10.00">geom_util.get_gmsh</text>
<text text-anchor="middle" x="221" y="-92.5" font-family="Arial" font-size="10.00">_entities</text>
</a>
</g>
</g>
<!-- Node1&#45;&gt;Node2 -->
<g id="edge1_Node000001_Node000002" class="edge">
<title>Node1&#45;&gt;Node2</title>
<g id="a_edge1_Node000001_Node000002"><a xlink:title=" ">
<path fill="none" stroke="#63b8ff" d="M110.53,-67.56C126.27,-72.29 143.8,-77.57 160.15,-82.49"/>
<polygon fill="#63b8ff" stroke="#63b8ff" points="159.56,-85.97 170.15,-85.5 161.58,-79.26 159.56,-85.97"/>
</a>
</g>
</g>
<!-- Node3 -->
<g id="Node000003" class="node">
<title>Node3</title>
<g id="a_Node000003"><a xlink:href="namespacegeom__util.html#a6e4b10f501c8203a352d2390f68b6561" target="_top" xlink:title=" ">
<polygon fill="white" stroke="#666666" points="287,-67.5 155,-67.5 155,-37.5 287,-37.5 287,-67.5"/>
<text text-anchor="start" x="163" y="-55.5" font-family="Arial" font-size="10.00">geom_util.gmsh_transform</text>
<text text-anchor="middle" x="221" y="-44.5" font-family="Arial" font-size="10.00">_general</text>
</a>
</g>
</g>
<!-- Node1&#45;&gt;Node3 -->
<g id="edge2_Node000001_Node000003" class="edge">
<title>Node1&#45;&gt;Node3</title>
<g id="a_edge2_Node000001_Node000003"><a xlink:title=" ">
<path fill="none" stroke="#63b8ff" d="M119.44,-52.5C127.64,-52.5 136.16,-52.5 144.61,-52.5"/>
<polygon fill="#63b8ff" stroke="#63b8ff" points="144.86,-56 154.86,-52.5 144.86,-49 144.86,-56"/>
</a>
</g>
</g>
<!-- Node5 -->
<g id="Node000005" class="node">
<title>Node5</title>
<g id="a_Node000005"><a xlink:href="namespacegeom__util.html#a0402fa3ab58c62403ff40506f3453665" target="_top" xlink:title=" ">
<polygon fill="white" stroke="#666666" points="285,-19 157,-19 157,0 285,0 285,-19"/>
<text text-anchor="middle" x="221" y="-7" font-family="Arial" font-size="10.00">geom_util.gmsh_translate</text>
</a>
</g>
</g>
<!-- Node1&#45;&gt;Node5 -->
<g id="edge4_Node000001_Node000005" class="edge">
<title>Node1&#45;&gt;Node5</title>
<g id="a_edge4_Node000001_Node000005"><a xlink:title=" ">
<path fill="none" stroke="#63b8ff" d="M116.29,-37.46C135.39,-32.31 156.51,-26.62 174.68,-21.72"/>
<polygon fill="#63b8ff" stroke="#63b8ff" points="175.7,-25.07 184.44,-19.09 173.87,-18.31 175.7,-25.07"/>
</a>
</g>
</g>
<!-- Node4 -->
<g id="Node000004" class="node">
<title>Node4</title>
<g id="a_Node000004"><a xlink:href="namespacegeom__util.html#acd65ced5bcfff51014a4b8dc6e6a935e" target="_top" xlink:title=" ">
<polygon fill="white" stroke="#666666" points="409,-62 323,-62 323,-43 409,-43 409,-62"/>
<text text-anchor="middle" x="366" y="-50" font-family="Arial" font-size="10.00">geom_util.rotate</text>
</a>
</g>
</g>
<!-- Node3&#45;&gt;Node4 -->
<g id="edge3_Node000003_Node000004" class="edge">
<title>Node3&#45;&gt;Node4</title>
<g id="a_edge3_Node000003_Node000004"><a xlink:title=" ">
<path fill="none" stroke="#63b8ff" d="M287.22,-52.5C295.72,-52.5 304.33,-52.5 312.58,-52.5"/>
<polygon fill="#63b8ff" stroke="#63b8ff" points="312.79,-56 322.79,-52.5 312.79,-49 312.79,-56"/>
</a>
</g>
</g>
</g>
</svg>
