<?xml version="1.0" encoding="UTF-8" standalone="no"?>
<!DOCTYPE svg PUBLIC "-//W3C//DTD SVG 1.1//EN"
 "http://www.w3.org/Graphics/SVG/1.1/DTD/svg11.dtd">
<!-- Generated by graphviz version 2.43.0 (0)
 -->
<!-- Title: util::io::removeExtensionFromFile Pages: 1 -->
<svg width="374pt" height="64pt"
 viewBox="0.00 0.00 374.00 64.00" xmlns="http://www.w3.org/2000/svg" xmlns:xlink="http://www.w3.org/1999/xlink">
<g id="graph0" class="graph" transform="scale(1 1) rotate(0) translate(4 60)">
<title>util::io::removeExtensionFromFile</title>
<!-- Node1 -->
<g id="Node000001" class="node">
<title>Node1</title>
<g id="a_Node000001"><a xlink:title="Remove extension from the filename Source &#45; https://stackoverflow.com/a/24386991.">
<polygon fill="#999999" stroke="#666666" points="366,-42.5 241,-42.5 241,-12.5 366,-12.5 366,-42.5"/>
<text text-anchor="start" x="249" y="-30.5" font-family="Arial" font-size="10.00">util::io::removeExtension</text>
<text text-anchor="middle" x="303.5" y="-19.5" font-family="Arial" font-size="10.00">FromFile</text>
</a>
</g>
</g>
<!-- Node2 -->
<g id="Node000002" class="node">
<title>Node2</title>
<g id="a_Node000002"><a xlink:href="namespacetest.html#a6934db7b63923b70a56ab8e9c7159202" target="_top" xlink:title="Tests metis partitioning of graph from a 2&#45;D mesh with nonlocal interaction.">
<polygon fill="white" stroke="#666666" points="205,-56 74,-56 74,-37 205,-37 205,-56"/>
<text text-anchor="middle" x="139.5" y="-44" font-family="Arial" font-size="10.00">test::testGraphPartitioning</text>
</a>
</g>
</g>
<!-- Node1&#45;&gt;Node2 -->
<g id="edge1_Node000001_Node000002" class="edge">
<title>Node1&#45;&gt;Node2</title>
<g id="a_edge1_Node000001_Node000002"><a xlink:title=" ">
<path fill="none" stroke="#63b8ff" d="M230.6,-35.93C222.16,-36.92 213.6,-37.93 205.27,-38.9"/>
<polygon fill="#63b8ff" stroke="#63b8ff" points="231.27,-39.38 240.79,-34.74 230.45,-32.43 231.27,-39.38"/>
</a>
</g>
</g>
<!-- Node4 -->
<g id="Node000004" class="node">
<title>Node4</title>
<g id="a_Node000004"><a xlink:href="namespacetest.html#af0964e1ea010ded3d98df70e7d5326ca" target="_top" xlink:title="Perform parallelization test using MPI on mesh partition based on metis.">
<polygon fill="white" stroke="#666666" points="176.5,-19 102.5,-19 102.5,0 176.5,0 176.5,-19"/>
<text text-anchor="middle" x="139.5" y="-7" font-family="Arial" font-size="10.00">test::testMPI</text>
</a>
</g>
</g>
<!-- Node1&#45;&gt;Node4 -->
<g id="edge3_Node000001_Node000004" class="edge">
<title>Node1&#45;&gt;Node4</title>
<g id="a_edge3_Node000001_Node000004"><a xlink:title=" ">
<path fill="none" stroke="#63b8ff" d="M230.79,-19.53C212.08,-17.45 192.69,-15.3 176.7,-13.52"/>
<polygon fill="#63b8ff" stroke="#63b8ff" points="230.47,-23.02 240.79,-20.64 231.24,-16.06 230.47,-23.02"/>
</a>
</g>
</g>
<!-- Node3 -->
<g id="Node000003" class="node">
<title>Node3</title>
<g id="a_Node000003"><a xlink:href="testMeshPartitioning_8cpp.html#a0ddf1224851353fc92bfbff6f499fa97" target="_top" xlink:title=" ">
<polygon fill="white" stroke="#666666" points="38,-56 0,-56 0,-37 38,-37 38,-56"/>
<text text-anchor="middle" x="19" y="-44" font-family="Arial" font-size="10.00">main</text>
</a>
</g>
</g>
<!-- Node2&#45;&gt;Node3 -->
<g id="edge2_Node000002_Node000003" class="edge">
<title>Node2&#45;&gt;Node3</title>
<g id="a_edge2_Node000002_Node000003"><a xlink:title=" ">
<path fill="none" stroke="#63b8ff" d="M63.49,-46.5C54.24,-46.5 45.54,-46.5 38.39,-46.5"/>
<polygon fill="#63b8ff" stroke="#63b8ff" points="63.7,-50 73.7,-46.5 63.7,-43 63.7,-50"/>
</a>
</g>
</g>
<!-- Node5 -->
<g id="Node000005" class="node">
<title>Node5</title>
<g id="a_Node000005"><a xlink:href="testParallelComp_8cpp.html#a0ddf1224851353fc92bfbff6f499fa97" target="_top" xlink:title=" ">
<polygon fill="white" stroke="#666666" points="38,-19 0,-19 0,0 38,0 38,-19"/>
<text text-anchor="middle" x="19" y="-7" font-family="Arial" font-size="10.00">main</text>
</a>
</g>
</g>
<!-- Node4&#45;&gt;Node5 -->
<g id="edge4_Node000004_Node000005" class="edge">
<title>Node4&#45;&gt;Node5</title>
<g id="a_edge4_Node000004_Node000005"><a xlink:title=" ">
<path fill="none" stroke="#63b8ff" d="M92.06,-9.5C73.18,-9.5 52.49,-9.5 38.14,-9.5"/>
<polygon fill="#63b8ff" stroke="#63b8ff" points="92.3,-13 102.3,-9.5 92.3,-6 92.3,-13"/>
</a>
</g>
</g>
</g>
</svg>
