<?xml version="1.0" encoding="UTF-8" standalone="no"?>
<!DOCTYPE svg PUBLIC "-//W3C//DTD SVG 1.1//EN"
 "http://www.w3.org/Graphics/SVG/1.1/DTD/svg11.dtd">
<!-- Generated by graphviz version 2.43.0 (0)
 -->
<!-- Title: util::io::initLogger Pages: 1 -->
<svg width="287pt" height="64pt"
 viewBox="0.00 0.00 287.00 64.00" xmlns="http://www.w3.org/2000/svg" xmlns:xlink="http://www.w3.org/1999/xlink">
<g id="graph0" class="graph" transform="scale(1 1) rotate(0) translate(4 60)">
<title>util::io::initLogger</title>
<!-- Node1 -->
<g id="Node000001" class="node">
<title>Node1</title>
<g id="a_Node000001"><a xlink:title="Initializes the logger.">
<polygon fill="#999999" stroke="#666666" points="279,-37 188,-37 188,-18 279,-18 279,-37"/>
<text text-anchor="middle" x="233.5" y="-25" font-family="Arial" font-size="10.00">util::io::initLogger</text>
</a>
</g>
</g>
<!-- Node2 -->
<g id="Node000002" class="node">
<title>Node2</title>
<g id="a_Node000002"><a xlink:href="classmodel_1_1DEMModel.html#a1baac4ac6fa032c7779f00da838472ea" target="_top" xlink:title="Constructor.">
<polygon fill="white" stroke="#666666" points="152,-56 0,-56 0,-37 152,-37 152,-56"/>
<text text-anchor="middle" x="76" y="-44" font-family="Arial" font-size="10.00">model::DEMModel::DEMModel</text>
</a>
</g>
</g>
<!-- Node1&#45;&gt;Node2 -->
<g id="edge1_Node000001_Node000002" class="edge">
<title>Node1&#45;&gt;Node2</title>
<g id="a_edge1_Node000001_Node000002"><a xlink:title=" ">
<path fill="none" stroke="#63b8ff" d="M177.96,-34.16C169.59,-35.19 160.82,-36.26 152.1,-37.32"/>
<polygon fill="#63b8ff" stroke="#63b8ff" points="178.44,-37.63 187.94,-32.94 177.59,-30.68 178.44,-37.63"/>
</a>
</g>
</g>
<!-- Node3 -->
<g id="Node000003" class="node">
<title>Node3</title>
<g id="a_Node000003"><a xlink:href="testParallelComp_8cpp.html#a0ddf1224851353fc92bfbff6f499fa97" target="_top" xlink:title=" ">
<polygon fill="white" stroke="#666666" points="95,-19 57,-19 57,0 95,0 95,-19"/>
<text text-anchor="middle" x="76" y="-7" font-family="Arial" font-size="10.00">main</text>
</a>
</g>
</g>
<!-- Node1&#45;&gt;Node3 -->
<g id="edge2_Node000001_Node000003" class="edge">
<title>Node1&#45;&gt;Node3</title>
<g id="a_edge2_Node000001_Node000003"><a xlink:title=" ">
<path fill="none" stroke="#63b8ff" d="M177.91,-21.18C148.93,-17.83 115.22,-13.92 95.02,-11.59"/>
<polygon fill="#63b8ff" stroke="#63b8ff" points="177.6,-24.67 187.94,-22.34 178.41,-17.72 177.6,-24.67"/>
</a>
</g>
</g>
</g>
</svg>
