<?xml version="1.0" encoding="UTF-8" standalone="no"?>
<!DOCTYPE svg PUBLIC "-//W3C//DTD SVG 1.1//EN"
 "http://www.w3.org/Graphics/SVG/1.1/DTD/svg11.dtd">
<!-- Generated by graphviz version 2.43.0 (0)
 -->
<!-- Title: util::dot Pages: 1 -->
<svg width="256pt" height="246pt"
 viewBox="0.00 0.00 256.00 246.00" xmlns="http://www.w3.org/2000/svg" xmlns:xlink="http://www.w3.org/1999/xlink">
<g id="graph0" class="graph" transform="scale(1 1) rotate(0) translate(4 242)">
<title>util::dot</title>
<!-- Node1 -->
<g id="Node000001" class="node">
<title>Node1</title>
<g id="a_Node000001"><a xlink:title="Computes the dot product between matrix and vector.">
<polygon fill="#999999" stroke="#666666" points="248,-134 199,-134 199,-115 248,-115 248,-134"/>
<text text-anchor="middle" x="223.5" y="-122" font-family="Arial" font-size="10.00">util::dot</text>
</a>
</g>
</g>
<!-- Node2 -->
<g id="Node000002" class="node">
<title>Node2</title>
<g id="a_Node000002"><a xlink:href="classfe_1_1TetElem.html#a093bba69d7db17b0e5dcc7a8f00fb268" target="_top" xlink:title="Returns the values of derivative of shape function at point p.">
<polygon fill="white" stroke="#666666" points="149,-238 14,-238 14,-219 149,-219 149,-238"/>
<text text-anchor="middle" x="81.5" y="-226" font-family="Arial" font-size="10.00">fe::TetElem::getDerShapes</text>
</a>
</g>
</g>
<!-- Node1&#45;&gt;Node2 -->
<g id="edge1_Node000001_Node000002" class="edge">
<title>Node1&#45;&gt;Node2</title>
<g id="a_edge1_Node000001_Node000002"><a xlink:title=" ">
<path fill="none" stroke="#63b8ff" d="M214.6,-143.27C205.24,-163.12 187.75,-193.83 163,-210.5 157.89,-213.94 152.23,-216.73 146.34,-219"/>
<polygon fill="#63b8ff" stroke="#63b8ff" points="217.85,-144.56 218.74,-134 211.46,-141.7 217.85,-144.56"/>
</a>
</g>
</g>
<!-- Node3 -->
<g id="Node000003" class="node">
<title>Node3</title>
<g id="a_Node000003"><a xlink:href="classfe_1_1TetElem.html#a1e53cb40204c661265b6780d4c9c688a" target="_top" xlink:title="Get vector of quadrature data.">
<polygon fill="white" stroke="#666666" points="149.5,-201 13.5,-201 13.5,-182 149.5,-182 149.5,-201"/>
<text text-anchor="middle" x="81.5" y="-189" font-family="Arial" font-size="10.00">fe::TetElem::getQuadDatas</text>
</a>
</g>
</g>
<!-- Node1&#45;&gt;Node3 -->
<g id="edge2_Node000001_Node000003" class="edge">
<title>Node1&#45;&gt;Node3</title>
<g id="a_edge2_Node000001_Node000003"><a xlink:title=" ">
<path fill="none" stroke="#63b8ff" d="M206.02,-141.21C194.8,-151.67 179.11,-164.61 163,-172.5 155.13,-176.35 146.44,-179.45 137.77,-181.93"/>
<polygon fill="#63b8ff" stroke="#63b8ff" points="208.58,-143.6 213.34,-134.14 203.72,-138.57 208.58,-143.6"/>
</a>
</g>
</g>
<!-- Node4 -->
<g id="Node000004" class="node">
<title>Node4</title>
<g id="a_Node000004"><a xlink:href="classutil_1_1geometry_1_1Line.html#af3222bd1791a4d8fa102f4096dc2ca3c" target="_top" xlink:title="Checks if point is inside this object.">
<polygon fill="white" stroke="#666666" points="131.5,-163.5 31.5,-163.5 31.5,-133.5 131.5,-133.5 131.5,-163.5"/>
<text text-anchor="start" x="39.5" y="-151.5" font-family="Arial" font-size="10.00">util::geometry::Line</text>
<text text-anchor="middle" x="81.5" y="-140.5" font-family="Arial" font-size="10.00">::isInside</text>
</a>
</g>
</g>
<!-- Node1&#45;&gt;Node4 -->
<g id="edge3_Node000001_Node000004" class="edge">
<title>Node1&#45;&gt;Node4</title>
<g id="a_edge3_Node000001_Node000004"><a xlink:title=" ">
<path fill="none" stroke="#63b8ff" d="M188.67,-130.3C171.58,-133.23 150.51,-136.84 131.66,-140.07"/>
<polygon fill="#63b8ff" stroke="#63b8ff" points="189.49,-133.71 198.75,-128.57 188.3,-126.81 189.49,-133.71"/>
</a>
</g>
</g>
<!-- Node5 -->
<g id="Node000005" class="node">
<title>Node5</title>
<g id="a_Node000005"><a xlink:href="classutil_1_1geometry_1_1Line.html#a7c3409e5d8a1025bdbf72d664ded6d03" target="_top" xlink:title="Checks if point is within given distance of this object.">
<polygon fill="white" stroke="#666666" points="131.5,-115.5 31.5,-115.5 31.5,-85.5 131.5,-85.5 131.5,-115.5"/>
<text text-anchor="start" x="39.5" y="-103.5" font-family="Arial" font-size="10.00">util::geometry::Line</text>
<text text-anchor="middle" x="81.5" y="-92.5" font-family="Arial" font-size="10.00">::isNear</text>
</a>
</g>
</g>
<!-- Node1&#45;&gt;Node5 -->
<g id="edge4_Node000001_Node000005" class="edge">
<title>Node1&#45;&gt;Node5</title>
<g id="a_edge4_Node000001_Node000005"><a xlink:title=" ">
<path fill="none" stroke="#63b8ff" d="M188.67,-118.7C171.58,-115.77 150.51,-112.16 131.66,-108.93"/>
<polygon fill="#63b8ff" stroke="#63b8ff" points="188.3,-122.19 198.75,-120.43 189.49,-115.29 188.3,-122.19"/>
</a>
</g>
</g>
<!-- Node6 -->
<g id="Node000006" class="node">
<title>Node6</title>
<g id="a_Node000006"><a xlink:href="classutil_1_1geometry_1_1Line.html#a3eca2640ef36978ada44a3bb2926a56d" target="_top" xlink:title="cons">
<polygon fill="white" stroke="#666666" points="131.5,-67.5 31.5,-67.5 31.5,-37.5 131.5,-37.5 131.5,-67.5"/>
<text text-anchor="start" x="39.5" y="-55.5" font-family="Arial" font-size="10.00">util::geometry::Line</text>
<text text-anchor="middle" x="81.5" y="-44.5" font-family="Arial" font-size="10.00">::isNearBoundary</text>
</a>
</g>
</g>
<!-- Node1&#45;&gt;Node6 -->
<g id="edge5_Node000001_Node000006" class="edge">
<title>Node1&#45;&gt;Node6</title>
<g id="a_edge5_Node000001_Node000006"><a xlink:title=" ">
<path fill="none" stroke="#63b8ff" d="M205.46,-107.73C194.21,-97.46 178.69,-84.75 163,-76.5 153.32,-71.41 142.4,-67.24 131.8,-63.89"/>
<polygon fill="#63b8ff" stroke="#63b8ff" points="203.16,-110.37 212.84,-114.68 207.96,-105.27 203.16,-110.37"/>
</a>
</g>
</g>
<!-- Node7 -->
<g id="Node000007" class="node">
<title>Node7</title>
<g id="a_Node000007"><a xlink:href="classfe_1_1TetElem.html#ab608ed3b2fc3948fabcbec3734d34f45" target="_top" xlink:title="Maps point p in a given element to the reference element.">
<polygon fill="white" stroke="#666666" points="163,-19 0,-19 0,0 163,0 163,-19"/>
<text text-anchor="middle" x="81.5" y="-7" font-family="Arial" font-size="10.00">fe::TetElem::mapPointToRefElem</text>
</a>
</g>
</g>
<!-- Node1&#45;&gt;Node7 -->
<g id="edge6_Node000001_Node000007" class="edge">
<title>Node1&#45;&gt;Node7</title>
<g id="a_edge6_Node000001_Node000007"><a xlink:title=" ">
<path fill="none" stroke="#63b8ff" d="M215.79,-105.26C207.1,-83.26 189.81,-47.79 163,-28.5 157.64,-24.64 151.61,-21.56 145.31,-19.09"/>
<polygon fill="#63b8ff" stroke="#63b8ff" points="212.59,-106.71 219.37,-114.85 219.15,-104.26 212.59,-106.71"/>
</a>
</g>
</g>
</g>
</svg>
