<?xml version="1.0" encoding="UTF-8" standalone="no"?>
<!DOCTYPE svg PUBLIC "-//W3C//DTD SVG 1.1//EN"
 "http://www.w3.org/Graphics/SVG/1.1/DTD/svg11.dtd">
<!-- Generated by graphviz version 2.43.0 (0)
 -->
<!-- Title: util.gmsh_file_hdr Pages: 1 -->
<svg width="252pt" height="182pt"
 viewBox="0.00 0.00 252.00 182.00" xmlns="http://www.w3.org/2000/svg" xmlns:xlink="http://www.w3.org/1999/xlink">
<g id="graph0" class="graph" transform="scale(1 1) rotate(0) translate(4 178)">
<title>util.gmsh_file_hdr</title>
<!-- Node1 -->
<g id="Node000001" class="node">
<title>Node1</title>
<g id="a_Node000001"><a xlink:title=" ">
<polygon fill="#999999" stroke="#666666" points="244,-96.5 151,-96.5 151,-77.5 244,-77.5 244,-96.5"/>
<text text-anchor="middle" x="197.5" y="-84.5" font-family="Arial" font-size="10.00">util.gmsh_file_hdr</text>
</a>
</g>
</g>
<!-- Node2 -->
<g id="Node000002" class="node">
<title>Node2</title>
<g id="a_Node000002"><a xlink:href="namespaceutil.html#a9f5c4de5098b9f42a85fb2918df931bd" target="_top" xlink:title=" ">
<polygon fill="white" stroke="#666666" points="106.5,-174 8.5,-174 8.5,-144 106.5,-144 106.5,-174"/>
<text text-anchor="start" x="16.5" y="-162" font-family="Arial" font-size="10.00">util.generate_circle</text>
<text text-anchor="middle" x="57.5" y="-151" font-family="Arial" font-size="10.00">_gmsh_input</text>
</a>
</g>
</g>
<!-- Node1&#45;&gt;Node2 -->
<g id="edge1_Node000001_Node000002" class="edge">
<title>Node1&#45;&gt;Node2</title>
<g id="a_edge1_Node000001_Node000002"><a xlink:title=" ">
<path fill="none" stroke="#63b8ff" d="M172.8,-102.07C156.78,-111.98 134.98,-124.93 115,-135 108.91,-138.07 102.33,-141.11 95.89,-143.93"/>
<polygon fill="#63b8ff" stroke="#63b8ff" points="174.88,-104.9 181.51,-96.63 171.17,-98.96 174.88,-104.9"/>
</a>
</g>
</g>
<!-- Node3 -->
<g id="Node000003" class="node">
<title>Node3</title>
<g id="a_Node000003"><a xlink:href="namespaceutil.html#afb3aed715d268f29ca19de6dafa84389" target="_top" xlink:title=" ">
<polygon fill="white" stroke="#666666" points="106,-126 9,-126 9,-96 106,-96 106,-126"/>
<text text-anchor="start" x="17" y="-114" font-family="Arial" font-size="10.00">util.generate_drum</text>
<text text-anchor="middle" x="57.5" y="-103" font-family="Arial" font-size="10.00">_gmsh_input</text>
</a>
</g>
</g>
<!-- Node1&#45;&gt;Node3 -->
<g id="edge2_Node000001_Node000003" class="edge">
<title>Node1&#45;&gt;Node3</title>
<g id="a_edge2_Node000001_Node000003"><a xlink:title=" ">
<path fill="none" stroke="#63b8ff" d="M141.02,-96.65C129.55,-98.64 117.56,-100.73 106.39,-102.67"/>
<polygon fill="#63b8ff" stroke="#63b8ff" points="141.68,-100.09 150.93,-94.93 140.48,-93.19 141.68,-100.09"/>
</a>
</g>
</g>
<!-- Node4 -->
<g id="Node000004" class="node">
<title>Node4</title>
<g id="a_Node000004"><a xlink:href="namespaceutil.html#a9f86631e8894112cf4f102929af2cfae" target="_top" xlink:title=" ">
<polygon fill="white" stroke="#666666" points="113.5,-78 1.5,-78 1.5,-48 113.5,-48 113.5,-78"/>
<text text-anchor="start" x="9.5" y="-66" font-family="Arial" font-size="10.00">util.generate_hexagon</text>
<text text-anchor="middle" x="57.5" y="-55" font-family="Arial" font-size="10.00">_gmsh_input</text>
</a>
</g>
</g>
<!-- Node1&#45;&gt;Node4 -->
<g id="edge3_Node000001_Node000004" class="edge">
<title>Node1&#45;&gt;Node4</title>
<g id="a_edge3_Node000001_Node000004"><a xlink:title=" ">
<path fill="none" stroke="#63b8ff" d="M140.94,-77.34C131.94,-75.77 122.62,-74.15 113.63,-72.59"/>
<polygon fill="#63b8ff" stroke="#63b8ff" points="140.48,-80.81 150.93,-79.07 141.68,-73.91 140.48,-80.81"/>
</a>
</g>
</g>
<!-- Node5 -->
<g id="Node000005" class="node">
<title>Node5</title>
<g id="a_Node000005"><a xlink:href="namespaceutil.html#a02c320c87fe2955378297463779e343c" target="_top" xlink:title=" ">
<polygon fill="white" stroke="#666666" points="115,-30 0,-30 0,0 115,0 115,-30"/>
<text text-anchor="start" x="8" y="-18" font-family="Arial" font-size="10.00">util.generate_rectangle</text>
<text text-anchor="middle" x="57.5" y="-7" font-family="Arial" font-size="10.00">_gmsh_input</text>
</a>
</g>
</g>
<!-- Node1&#45;&gt;Node5 -->
<g id="edge4_Node000001_Node000005" class="edge">
<title>Node1&#45;&gt;Node5</title>
<g id="a_edge4_Node000001_Node000005"><a xlink:title=" ">
<path fill="none" stroke="#63b8ff" d="M172.8,-71.93C156.78,-62.02 134.98,-49.07 115,-39 108.91,-35.93 102.33,-32.89 95.89,-30.07"/>
<polygon fill="#63b8ff" stroke="#63b8ff" points="171.17,-75.04 181.51,-77.37 174.88,-69.1 171.17,-75.04"/>
</a>
</g>
</g>
</g>
</svg>
