<?xml version="1.0" encoding="UTF-8" standalone="no"?>
<!DOCTYPE svg PUBLIC "-//W3C//DTD SVG 1.1//EN"
 "http://www.w3.org/Graphics/SVG/1.1/DTD/svg11.dtd">
<!-- Generated by graphviz version 2.43.0 (0)
 -->
<!-- Title: util::methods::isTagInList Pages: 1 -->
<svg width="783pt" height="294pt"
 viewBox="0.00 0.00 783.00 294.00" xmlns="http://www.w3.org/2000/svg" xmlns:xlink="http://www.w3.org/1999/xlink">
<g id="graph0" class="graph" transform="scale(1 1) rotate(0) translate(4 290)">
<title>util::methods::isTagInList</title>
<!-- Node1 -->
<g id="Node000001" class="node">
<title>Node1</title>
<g id="a_Node000001"><a xlink:title="Returns true if tag is found in the list of tags.">
<polygon fill="#999999" stroke="#666666" points="775,-141.5 649,-141.5 649,-122.5 775,-122.5 775,-141.5"/>
<text text-anchor="middle" x="712" y="-129.5" font-family="Arial" font-size="10.00">util::methods::isTagInList</text>
</a>
</g>
</g>
<!-- Node2 -->
<g id="Node000002" class="node">
<title>Node2</title>
<g id="a_Node000002"><a xlink:href="classrw_1_1writer_1_1VtkParticleWriter.html#a2adbf982a587a4d4d91879c9521e0fd5" target="_top" xlink:title="Writes the nodes to the file.">
<polygon fill="white" stroke="#666666" points="583,-286 446,-286 446,-256 583,-256 583,-286"/>
<text text-anchor="start" x="454" y="-274" font-family="Arial" font-size="10.00">rw::writer::VtkParticleWriter</text>
<text text-anchor="middle" x="514.5" y="-263" font-family="Arial" font-size="10.00">::appendNodes</text>
</a>
</g>
</g>
<!-- Node1&#45;&gt;Node2 -->
<g id="edge1_Node000001_Node000002" class="edge">
<title>Node1&#45;&gt;Node2</title>
<g id="a_edge1_Node000001_Node000002"><a xlink:title=" ">
<path fill="none" stroke="#63b8ff" d="M700.38,-150.59C684.67,-176.33 652.78,-222.44 613,-247 603.88,-252.63 593.51,-256.94 583.03,-260.24"/>
<polygon fill="#63b8ff" stroke="#63b8ff" points="703.49,-152.19 705.59,-141.81 697.47,-148.62 703.49,-152.19"/>
</a>
</g>
</g>
<!-- Node3 -->
<g id="Node000003" class="node">
<title>Node3</title>
<g id="a_Node000003"><a xlink:href="classmodel_1_1DEMModel.html#a34f7f402d46ec6e47b4abcaf6aa43060" target="_top" xlink:title="Creates geometrical object for a particle given particle radius, orientation, and site location.">
<polygon fill="white" stroke="#666666" points="601,-238 428,-238 428,-208 601,-208 601,-238"/>
<text text-anchor="start" x="436" y="-226" font-family="Arial" font-size="10.00">model::DEMModel::createGeometry</text>
<text text-anchor="middle" x="514.5" y="-215" font-family="Arial" font-size="10.00">AtSite</text>
</a>
</g>
</g>
<!-- Node1&#45;&gt;Node3 -->
<g id="edge2_Node000001_Node000003" class="edge">
<title>Node1&#45;&gt;Node3</title>
<g id="a_edge2_Node000001_Node000003"><a xlink:title=" ">
<path fill="none" stroke="#63b8ff" d="M691.92,-148.14C673.02,-163.35 642.69,-185.72 613,-199 605.36,-202.42 597.16,-205.39 588.87,-207.98"/>
<polygon fill="#63b8ff" stroke="#63b8ff" points="694.24,-150.77 699.75,-141.72 689.8,-145.35 694.24,-150.77"/>
</a>
</g>
</g>
<!-- Node4 -->
<g id="Node000004" class="node">
<title>Node4</title>
<g id="a_Node000004"><a xlink:href="namespaceutil_1_1geometry.html#a44f3f0e0cc6edb964264a0cc22735209" target="_top" xlink:title="Create geometrical object from the given data.">
<polygon fill="white" stroke="#666666" points="582,-190 447,-190 447,-160 582,-160 582,-190"/>
<text text-anchor="start" x="455" y="-178" font-family="Arial" font-size="10.00">util::geometry::createGeom</text>
<text text-anchor="middle" x="514.5" y="-167" font-family="Arial" font-size="10.00">ObjectOld</text>
</a>
</g>
</g>
<!-- Node1&#45;&gt;Node4 -->
<g id="edge3_Node000001_Node000004" class="edge">
<title>Node1&#45;&gt;Node4</title>
<g id="a_edge3_Node000001_Node000004"><a xlink:title=" ">
<path fill="none" stroke="#63b8ff" d="M657.59,-143.75C634.32,-148.87 606.8,-154.92 582.2,-160.33"/>
<polygon fill="#63b8ff" stroke="#63b8ff" points="658.6,-147.11 667.61,-141.54 657.09,-140.27 658.6,-147.11"/>
</a>
</g>
</g>
<!-- Node5 -->
<g id="Node000005" class="node">
<title>Node5</title>
<g id="a_Node000005"><a xlink:href="classmodel_1_1DEMModel.html#a3652826a385051497907774640ed2044" target="_top" xlink:title="Output the snapshot of data at current time step.">
<polygon fill="white" stroke="#666666" points="580,-141.5 449,-141.5 449,-122.5 580,-122.5 580,-141.5"/>
<text text-anchor="middle" x="514.5" y="-129.5" font-family="Arial" font-size="10.00">model::DEMModel::output</text>
</a>
</g>
</g>
<!-- Node1&#45;&gt;Node5 -->
<g id="edge4_Node000001_Node000005" class="edge">
<title>Node1&#45;&gt;Node5</title>
<g id="a_edge4_Node000001_Node000005"><a xlink:title=" ">
<path fill="none" stroke="#63b8ff" d="M638.68,-132C619.5,-132 598.91,-132 580.16,-132"/>
<polygon fill="#63b8ff" stroke="#63b8ff" points="638.87,-135.5 648.87,-132 638.87,-128.5 638.87,-135.5"/>
</a>
</g>
</g>
<!-- Node9 -->
<g id="Node000009" class="node">
<title>Node9</title>
<g id="a_Node000009"><a xlink:href="classinp_1_1Input.html#a5689d155dc964e648dc91dd9e5c8ade6" target="_top" xlink:title="Read data into particle deck and store its pointer.">
<polygon fill="white" stroke="#666666" points="581,-104.5 448,-104.5 448,-85.5 581,-85.5 581,-104.5"/>
<text text-anchor="middle" x="514.5" y="-92.5" font-family="Arial" font-size="10.00">inp::Input::setParticleDeck</text>
</a>
</g>
</g>
<!-- Node1&#45;&gt;Node9 -->
<g id="edge8_Node000001_Node000009" class="edge">
<title>Node1&#45;&gt;Node9</title>
<g id="a_edge8_Node000001_Node000009"><a xlink:title=" ">
<path fill="none" stroke="#63b8ff" d="M652.23,-120.52C639.31,-118.02 625.7,-115.4 613,-113 598.29,-110.22 582.31,-107.24 567.63,-104.54"/>
<polygon fill="#63b8ff" stroke="#63b8ff" points="651.93,-124.02 662.42,-122.49 653.26,-117.15 651.93,-124.02"/>
</a>
</g>
</g>
<!-- Node11 -->
<g id="Node000011" class="node">
<title>Node11</title>
<g id="a_Node000011"><a xlink:href="classmodel_1_1DEMModel.html#affa6d0599ebdacc4fa9c5c854df7910f" target="_top" xlink:title="Sets up quadrature data.">
<polygon fill="white" stroke="#666666" points="613,-67.5 416,-67.5 416,-48.5 613,-48.5 613,-67.5"/>
<text text-anchor="middle" x="514.5" y="-55.5" font-family="Arial" font-size="10.00">model::DEMModel::setupQuadratureData</text>
</a>
</g>
</g>
<!-- Node1&#45;&gt;Node11 -->
<g id="edge10_Node000001_Node000011" class="edge">
<title>Node1&#45;&gt;Node11</title>
<g id="a_edge10_Node000001_Node000011"><a xlink:title=" ">
<path fill="none" stroke="#63b8ff" d="M689.45,-116.84C670.25,-104.05 640.96,-86.23 613,-76 603.71,-72.6 593.67,-69.82 583.69,-67.55"/>
<polygon fill="#63b8ff" stroke="#63b8ff" points="687.52,-119.76 697.76,-122.48 691.45,-113.97 687.52,-119.76"/>
</a>
</g>
</g>
<!-- Node12 -->
<g id="Node000012" class="node">
<title>Node12</title>
<g id="a_Node000012"><a xlink:href="classmodel_1_1DEMModel.html#a757f6695313ad8b7ac54e1437eebed26" target="_top" xlink:title="Update varioud geometry objects associated with container, particles, and reference particles.">
<polygon fill="white" stroke="#666666" points="602.5,-30 426.5,-30 426.5,0 602.5,0 602.5,-30"/>
<text text-anchor="start" x="434.5" y="-18" font-family="Arial" font-size="10.00">model::DEMModel::updateGeometry</text>
<text text-anchor="middle" x="514.5" y="-7" font-family="Arial" font-size="10.00">ObjectsPostInit</text>
</a>
</g>
</g>
<!-- Node1&#45;&gt;Node12 -->
<g id="edge11_Node000001_Node000012" class="edge">
<title>Node1&#45;&gt;Node12</title>
<g id="a_edge11_Node000001_Node000012"><a xlink:title=" ">
<path fill="none" stroke="#63b8ff" d="M697.52,-114.56C680.24,-93.43 648.27,-58.28 613,-39 606.65,-35.53 599.8,-32.55 592.77,-30"/>
<polygon fill="#63b8ff" stroke="#63b8ff" points="694.82,-116.78 703.79,-122.41 700.29,-112.41 694.82,-116.78"/>
</a>
</g>
</g>
<!-- Node6 -->
<g id="Node000006" class="node">
<title>Node6</title>
<g id="a_Node000006"><a xlink:href="classtwoparticle__demo_1_1Model.html#a4edd5f54de8ea3e6e35391b134c642be" target="_top" xlink:title="Perform time step integration.">
<polygon fill="white" stroke="#666666" points="380,-150 255,-150 255,-120 380,-120 380,-150"/>
<text text-anchor="start" x="263" y="-138" font-family="Arial" font-size="10.00">twoparticle_demo::Model</text>
<text text-anchor="middle" x="317.5" y="-127" font-family="Arial" font-size="10.00">::integrate</text>
</a>
</g>
</g>
<!-- Node5&#45;&gt;Node6 -->
<g id="edge5_Node000005_Node000006" class="edge">
<title>Node5&#45;&gt;Node6</title>
<g id="a_edge5_Node000005_Node000006"><a xlink:title=" ">
<path fill="none" stroke="#63b8ff" d="M438.81,-133.15C419.38,-133.45 398.67,-133.77 380.01,-134.05"/>
<polygon fill="#63b8ff" stroke="#63b8ff" points="438.89,-136.65 448.84,-132.99 438.79,-129.65 438.89,-136.65"/>
</a>
</g>
</g>
<!-- Node7 -->
<g id="Node000007" class="node">
<title>Node7</title>
<g id="a_Node000007"><a xlink:href="classtwoparticle__demo_1_1Model.html#af741e660292b3c71c59277cbd1beb052" target="_top" xlink:title="Runs simulation by executing steps such as init(), integrate(), and close().">
<polygon fill="white" stroke="#666666" points="219,-144.5 74,-144.5 74,-125.5 219,-125.5 219,-144.5"/>
<text text-anchor="middle" x="146.5" y="-132.5" font-family="Arial" font-size="10.00">twoparticle_demo::Model::run</text>
</a>
</g>
</g>
<!-- Node6&#45;&gt;Node7 -->
<g id="edge6_Node000006_Node000007" class="edge">
<title>Node6&#45;&gt;Node7</title>
<g id="a_edge6_Node000006_Node000007"><a xlink:title=" ">
<path fill="none" stroke="#63b8ff" d="M244.44,-135C236.07,-135 227.55,-135 219.19,-135"/>
<polygon fill="#63b8ff" stroke="#63b8ff" points="244.53,-138.5 254.53,-135 244.53,-131.5 244.53,-138.5"/>
</a>
</g>
</g>
<!-- Node8 -->
<g id="Node000008" class="node">
<title>Node8</title>
<g id="a_Node000008"><a xlink:href="apps_2twoparticle__demo_2main_8cpp.html#a0ddf1224851353fc92bfbff6f499fa97" target="_top" xlink:title=" ">
<polygon fill="white" stroke="#666666" points="38,-144.5 0,-144.5 0,-125.5 38,-125.5 38,-144.5"/>
<text text-anchor="middle" x="19" y="-132.5" font-family="Arial" font-size="10.00">main</text>
</a>
</g>
</g>
<!-- Node7&#45;&gt;Node8 -->
<g id="edge7_Node000007_Node000008" class="edge">
<title>Node7&#45;&gt;Node8</title>
<g id="a_edge7_Node000007_Node000008"><a xlink:title=" ">
<path fill="none" stroke="#63b8ff" d="M63.88,-135C54.4,-135 45.55,-135 38.32,-135"/>
<polygon fill="#63b8ff" stroke="#63b8ff" points="63.95,-138.5 73.95,-135 63.95,-131.5 63.95,-138.5"/>
</a>
</g>
</g>
<!-- Node10 -->
<g id="Node000010" class="node">
<title>Node10</title>
<g id="a_Node000010"><a xlink:href="classinp_1_1Input.html#a0259771f00b712054f5f33d807990869" target="_top" xlink:title="Constructor.">
<polygon fill="white" stroke="#666666" points="360,-101.5 275,-101.5 275,-82.5 360,-82.5 360,-101.5"/>
<text text-anchor="middle" x="317.5" y="-89.5" font-family="Arial" font-size="10.00">inp::Input::Input</text>
</a>
</g>
</g>
<!-- Node9&#45;&gt;Node10 -->
<g id="edge9_Node000009_Node000010" class="edge">
<title>Node9&#45;&gt;Node10</title>
<g id="a_edge9_Node000009_Node000010"><a xlink:title=" ">
<path fill="none" stroke="#63b8ff" d="M437.42,-93.83C411.12,-93.42 382.63,-92.99 360.14,-92.64"/>
<polygon fill="#63b8ff" stroke="#63b8ff" points="437.7,-97.33 447.75,-93.99 437.81,-90.34 437.7,-97.33"/>
</a>
</g>
</g>
</g>
</svg>
