<?xml version="1.0" encoding="UTF-8" standalone="no"?>
<!DOCTYPE svg PUBLIC "-//W3C//DTD SVG 1.1//EN"
 "http://www.w3.org/Graphics/SVG/1.1/DTD/svg11.dtd">
<!-- Generated by graphviz version 2.43.0 (0)
 -->
<!-- Title: problem_setup.particle_locations Pages: 1 -->
<svg width="897pt" height="576pt"
 viewBox="0.00 0.00 897.00 575.50" xmlns="http://www.w3.org/2000/svg" xmlns:xlink="http://www.w3.org/1999/xlink">
<g id="graph0" class="graph" transform="scale(1 1) rotate(0) translate(4 571.5)">
<title>problem_setup.particle_locations</title>
<!-- Node1 -->
<g id="node1" class="node">
<title>Node1</title>
<g id="a_node1"><a xlink:title=" ">
<polygon fill="#bfbfbf" stroke="black" points="0,-277 0,-307 115,-307 115,-277 0,-277"/>
<text text-anchor="start" x="8" y="-295" font-family="Arial" font-size="10.00">problem_setup.particle</text>
<text text-anchor="middle" x="57.5" y="-284" font-family="Arial" font-size="10.00">_locations</text>
</a>
</g>
</g>
<!-- Node2 -->
<g id="node2" class="node">
<title>Node2</title>
<g id="a_node2"><a xlink:href="namespaceproblem__setup.html#a64e067098e447f766d042476ef5abe85" target="_top" xlink:title=" ">
<polygon fill="none" stroke="black" points="308,-381 308,-411 418,-411 418,-381 308,-381"/>
<text text-anchor="start" x="316" y="-399" font-family="Arial" font-size="10.00">problem_setup.create</text>
<text text-anchor="middle" x="363" y="-388" font-family="Arial" font-size="10.00">_input_file</text>
</a>
</g>
</g>
<!-- Node1&#45;&gt;Node2 -->
<g id="edge1" class="edge">
<title>Node1&#45;&gt;Node2</title>
<path fill="none" stroke="midnightblue" d="M72.23,-307.05C89,-324.38 119.1,-352.21 151,-366 197.54,-386.11 254.7,-393.29 297.79,-395.62"/>
<polygon fill="midnightblue" stroke="midnightblue" points="297.71,-399.12 307.86,-396.09 298.04,-392.13 297.71,-399.12"/>
</g>
<!-- Node7 -->
<g id="node7" class="node">
<title>Node7</title>
<g id="a_node7"><a xlink:href="namespaceproblem__setup.html#a8c789550cc1b70abe559c976bcf664e4" target="_top" xlink:title=" ">
<polygon fill="none" stroke="black" points="454,-537 454,-567 585,-567 585,-537 454,-537"/>
<text text-anchor="start" x="462" y="-555" font-family="Arial" font-size="10.00">problem_setup.generate</text>
<text text-anchor="middle" x="519.5" y="-544" font-family="Arial" font-size="10.00">_moving_wall_gmsh_input</text>
</a>
</g>
</g>
<!-- Node1&#45;&gt;Node7 -->
<g id="edge19" class="edge">
<title>Node1&#45;&gt;Node7</title>
<path fill="none" stroke="midnightblue" d="M61.87,-307.16C70.38,-341.78 96.09,-427.08 151,-471 235.03,-538.21 363.06,-552.47 443.68,-554.09"/>
<polygon fill="midnightblue" stroke="midnightblue" points="443.71,-557.59 453.76,-554.23 443.81,-550.59 443.71,-557.59"/>
</g>
<!-- Node8 -->
<g id="node8" class="node">
<title>Node8</title>
<g id="a_node8"><a xlink:href="namespaceproblem__setup.html#a0952cf202b7e2cd1e453eff36be36074" target="_top" xlink:title=" ">
<polygon fill="none" stroke="black" points="459,-486 459,-516 580,-516 580,-486 459,-486"/>
<text text-anchor="start" x="467" y="-504" font-family="Arial" font-size="10.00">problem_setup.generate</text>
<text text-anchor="middle" x="519.5" y="-493" font-family="Arial" font-size="10.00">_rigid_wall_gmsh_input</text>
</a>
</g>
</g>
<!-- Node1&#45;&gt;Node8 -->
<g id="edge27" class="edge">
<title>Node1&#45;&gt;Node8</title>
<path fill="none" stroke="midnightblue" d="M63.96,-307.02C75.33,-336.07 104.46,-399.94 151,-432 240.28,-493.49 369.47,-504.12 448.51,-504.08"/>
<polygon fill="midnightblue" stroke="midnightblue" points="448.86,-507.57 458.84,-504.01 448.82,-500.57 448.86,-507.57"/>
</g>
<!-- Node9 -->
<g id="node9" class="node">
<title>Node9</title>
<g id="a_node9"><a xlink:href="namespaceproblem__setup.html#af977354e61703cd925c2511fd3ca0858" target="_top" xlink:title=" ">
<polygon fill="none" stroke="black" points="465,-442.5 465,-461.5 574,-461.5 574,-442.5 465,-442.5"/>
<text text-anchor="middle" x="519.5" y="-449.5" font-family="Arial" font-size="10.00">problem_setup.get_E</text>
</a>
</g>
</g>
<!-- Node1&#45;&gt;Node9 -->
<g id="edge28" class="edge">
<title>Node1&#45;&gt;Node9</title>
<path fill="none" stroke="midnightblue" d="M68.71,-307.14C84.14,-328.95 115.41,-369.23 151,-393 212.73,-434.23 234.95,-436.79 308,-450 356.67,-458.8 412.72,-458.86 454.73,-456.95"/>
<polygon fill="midnightblue" stroke="midnightblue" points="455.02,-460.44 464.83,-456.44 454.66,-453.45 455.02,-460.44"/>
</g>
<!-- Node10 -->
<g id="node10" class="node">
<title>Node10</title>
<g id="a_node10"><a xlink:href="namespaceproblem__setup.html#a564e6017e037399c311be8b31653e45d" target="_top" xlink:title=" ">
<polygon fill="none" stroke="black" points="458,-305.5 458,-324.5 581,-324.5 581,-305.5 458,-305.5"/>
<text text-anchor="middle" x="519.5" y="-312.5" font-family="Arial" font-size="10.00">problem_setup.get_eff_k</text>
</a>
</g>
</g>
<!-- Node1&#45;&gt;Node10 -->
<g id="edge29" class="edge">
<title>Node1&#45;&gt;Node10</title>
<path fill="none" stroke="midnightblue" d="M104.59,-307.02C119.26,-311.11 135.66,-314.96 151,-317 253.39,-330.59 373.24,-326.19 447.53,-321.12"/>
<polygon fill="midnightblue" stroke="midnightblue" points="447.97,-324.6 457.7,-320.41 447.48,-317.62 447.97,-324.6"/>
</g>
<!-- Node11 -->
<g id="node11" class="node">
<title>Node11</title>
<g id="a_node11"><a xlink:href="namespaceproblem__setup.html#adc274a492cfb30270617c3c66d64c6c4" target="_top" xlink:title=" ">
<polygon fill="none" stroke="black" points="464.5,-266.5 464.5,-285.5 574.5,-285.5 574.5,-266.5 464.5,-266.5"/>
<text text-anchor="middle" x="519.5" y="-273.5" font-family="Arial" font-size="10.00">problem_setup.get_G</text>
</a>
</g>
</g>
<!-- Node1&#45;&gt;Node11 -->
<g id="edge30" class="edge">
<title>Node1&#45;&gt;Node11</title>
<path fill="none" stroke="midnightblue" d="M107.01,-276.95C121.06,-273.26 136.52,-269.85 151,-268 256.65,-254.52 380.75,-262.01 454.33,-268.87"/>
<polygon fill="midnightblue" stroke="midnightblue" points="454.08,-272.36 464.37,-269.83 454.75,-265.39 454.08,-272.36"/>
</g>
<!-- Node12 -->
<g id="node12" class="node">
<title>Node12</title>
<g id="a_node12"><a xlink:href="namespaceproblem__setup.html#ac6b230cd1c6ef5a92bda85a4ea213f7b" target="_top" xlink:title=" ">
<polygon fill="none" stroke="black" points="462,-80 462,-110 577,-110 577,-80 462,-80"/>
<text text-anchor="start" x="470" y="-98" font-family="Arial" font-size="10.00">problem_setup.particle</text>
<text text-anchor="middle" x="519.5" y="-87" font-family="Arial" font-size="10.00">_locations</text>
</a>
</g>
</g>
<!-- Node1&#45;&gt;Node12 -->
<g id="edge32" class="edge">
<title>Node1&#45;&gt;Node12</title>
<path fill="none" stroke="midnightblue" d="M79.85,-276.91C98.15,-264.38 125.53,-246.64 151,-234 256.25,-181.75 386.26,-136.88 460.05,-113.11"/>
<polygon fill="midnightblue" stroke="midnightblue" points="461.18,-116.42 469.64,-110.04 459.05,-109.76 461.18,-116.42"/>
</g>
<!-- Node13 -->
<g id="node13" class="node">
<title>Node13</title>
<g id="a_node13"><a xlink:href="namespaceproblem__setup.html#ad9b50c51aa5e0de13f4c721465b63b5f" target="_top" xlink:title=" ">
<polygon fill="none" stroke="black" points="629.5,-39 629.5,-69 733.5,-69 733.5,-39 629.5,-39"/>
<text text-anchor="start" x="637.5" y="-57" font-family="Arial" font-size="10.00">problem_setup.does</text>
<text text-anchor="middle" x="681.5" y="-46" font-family="Arial" font-size="10.00">_intersect_rect</text>
</a>
</g>
</g>
<!-- Node1&#45;&gt;Node13 -->
<g id="edge18" class="edge">
<title>Node1&#45;&gt;Node13</title>
<path fill="none" stroke="midnightblue" d="M66.7,-276.94C80.8,-252.4 111.93,-203.72 151,-176 295.82,-73.25 513.94,-55.64 619.27,-53.52"/>
<polygon fill="midnightblue" stroke="midnightblue" points="619.47,-57.02 629.42,-53.36 619.36,-50.02 619.47,-57.02"/>
</g>
<!-- Node14 -->
<g id="node14" class="node">
<title>Node14</title>
<g id="a_node14"><a xlink:href="namespaceproblem__setup.html#aa39e6862e38920798278f55a2578a6ef" target="_top" xlink:title=" ">
<polygon fill="none" stroke="black" points="621,-0.5 621,-19.5 742,-19.5 742,-0.5 621,-0.5"/>
<text text-anchor="middle" x="681.5" y="-7.5" font-family="Arial" font-size="10.00">problem_setup.get_max</text>
</a>
</g>
</g>
<!-- Node1&#45;&gt;Node14 -->
<g id="edge31" class="edge">
<title>Node1&#45;&gt;Node14</title>
<path fill="none" stroke="midnightblue" d="M61.84,-276.76C70.3,-241.95 95.9,-156.17 151,-112 285.58,-4.11 500.72,1.32 610.75,-4.12"/>
<polygon fill="midnightblue" stroke="midnightblue" points="610.56,-7.62 620.74,-4.66 610.94,-0.63 610.56,-7.62"/>
</g>
<!-- Node21 -->
<g id="node18" class="node">
<title>Node21</title>
<g id="a_node18"><a xlink:href="namespaceproblem__setup.html#a9ce710367bd7258e6dd619e9ec930b36" target="_top" xlink:title=" ">
<polygon fill="none" stroke="black" points="468.5,-217 468.5,-247 570.5,-247 570.5,-217 468.5,-217"/>
<text text-anchor="start" x="476.5" y="-235" font-family="Arial" font-size="10.00">problem_setup.print</text>
<text text-anchor="middle" x="519.5" y="-224" font-family="Arial" font-size="10.00">_dbl_list</text>
</a>
</g>
</g>
<!-- Node1&#45;&gt;Node21 -->
<g id="edge33" class="edge">
<title>Node1&#45;&gt;Node21</title>
<path fill="none" stroke="midnightblue" d="M90.28,-276.85C107.78,-269.22 130.14,-260.63 151,-256 257.2,-232.45 384.56,-229.6 458.04,-230.34"/>
<polygon fill="midnightblue" stroke="midnightblue" points="458.44,-233.85 468.49,-230.47 458.53,-226.85 458.44,-233.85"/>
</g>
<!-- Node22 -->
<g id="node19" class="node">
<title>Node22</title>
<g id="a_node19"><a xlink:href="namespaceproblem__setup.html#a147f310ff74124342d15ab356739883f" target="_top" xlink:title=" ">
<polygon fill="none" stroke="black" points="151,-277 151,-307 272,-307 272,-277 151,-277"/>
<text text-anchor="start" x="159" y="-295" font-family="Arial" font-size="10.00">problem_setup.generate</text>
<text text-anchor="middle" x="211.5" y="-284" font-family="Arial" font-size="10.00">_particle_gmsh_input</text>
</a>
</g>
</g>
<!-- Node1&#45;&gt;Node22 -->
<g id="edge20" class="edge">
<title>Node1&#45;&gt;Node22</title>
<path fill="none" stroke="midnightblue" d="M115.1,-292C123.47,-292 132.18,-292 140.78,-292"/>
<polygon fill="midnightblue" stroke="midnightblue" points="140.8,-295.5 150.8,-292 140.8,-288.5 140.8,-295.5"/>
</g>
<!-- Node3 -->
<g id="node3" class="node">
<title>Node3</title>
<g id="a_node3"><a xlink:href="namespaceproblem__setup.html#a2deb4dabdc948f0b2b009c3576518ade" target="_top" xlink:title=" ">
<polygon fill="none" stroke="black" points="457,-344 457,-374 582,-374 582,-344 457,-344"/>
<text text-anchor="start" x="465" y="-362" font-family="Arial" font-size="10.00">problem_setup.generate</text>
<text text-anchor="middle" x="519.5" y="-351" font-family="Arial" font-size="10.00">_cir_particle_gmsh_input</text>
</a>
</g>
</g>
<!-- Node2&#45;&gt;Node3 -->
<g id="edge2" class="edge">
<title>Node2&#45;&gt;Node3</title>
<path fill="none" stroke="midnightblue" d="M418.04,-383.06C427.34,-380.83 437.13,-378.49 446.81,-376.17"/>
<polygon fill="midnightblue" stroke="midnightblue" points="447.92,-379.5 456.83,-373.77 446.29,-372.69 447.92,-379.5"/>
</g>
<!-- Node4 -->
<g id="node4" class="node">
<title>Node4</title>
<g id="a_node4"><a xlink:href="namespaceproblem__setup.html#a876a947fad9cf3729999101abe3e823f" target="_top" xlink:title=" ">
<polygon fill="none" stroke="black" points="454.5,-393 454.5,-423 584.5,-423 584.5,-393 454.5,-393"/>
<text text-anchor="start" x="462.5" y="-411" font-family="Arial" font-size="10.00">problem_setup.generate</text>
<text text-anchor="middle" x="519.5" y="-400" font-family="Arial" font-size="10.00">_hex_particle_gmsh_input</text>
</a>
</g>
</g>
<!-- Node2&#45;&gt;Node4 -->
<g id="edge3" class="edge">
<title>Node2&#45;&gt;Node4</title>
<path fill="none" stroke="midnightblue" d="M418.04,-400.2C426.57,-400.86 435.52,-401.56 444.42,-402.25"/>
<polygon fill="midnightblue" stroke="midnightblue" points="444.17,-405.74 454.41,-403.02 444.72,-398.76 444.17,-405.74"/>
</g>
<!-- Node2&#45;&gt;Node7 -->
<g id="edge6" class="edge">
<title>Node2&#45;&gt;Node7</title>
<path fill="none" stroke="midnightblue" d="M370.94,-411.4C383.73,-438.19 413.47,-493.61 454,-526 456.72,-528.18 459.65,-530.19 462.71,-532.06"/>
<polygon fill="midnightblue" stroke="midnightblue" points="461.13,-535.18 471.58,-536.92 464.49,-529.04 461.13,-535.18"/>
</g>
<!-- Node2&#45;&gt;Node8 -->
<g id="edge7" class="edge">
<title>Node2&#45;&gt;Node8</title>
<path fill="none" stroke="midnightblue" d="M379.6,-411.18C396.82,-427.38 425.83,-453.14 454,-471 459.82,-474.69 466.16,-478.19 472.52,-481.42"/>
<polygon fill="midnightblue" stroke="midnightblue" points="471.28,-484.71 481.8,-485.94 474.34,-478.41 471.28,-484.71"/>
</g>
<!-- Node2&#45;&gt;Node9 -->
<g id="edge8" class="edge">
<title>Node2&#45;&gt;Node9</title>
<path fill="none" stroke="midnightblue" d="M398.3,-411.08C414.95,-418.15 435.35,-426.44 454,-433 460.44,-435.26 467.3,-437.49 474.05,-439.56"/>
<polygon fill="midnightblue" stroke="midnightblue" points="473.23,-442.97 483.81,-442.5 475.24,-436.27 473.23,-442.97"/>
</g>
<!-- Node2&#45;&gt;Node10 -->
<g id="edge9" class="edge">
<title>Node2&#45;&gt;Node10</title>
<path fill="none" stroke="midnightblue" d="M393.8,-380.86C401.86,-376.39 410.43,-371.28 418,-366 435.32,-353.92 435.53,-345.23 454,-335 458.74,-332.37 463.88,-330.04 469.11,-327.99"/>
<polygon fill="midnightblue" stroke="midnightblue" points="470.34,-331.26 478.56,-324.58 467.97,-324.68 470.34,-331.26"/>
</g>
<!-- Node2&#45;&gt;Node11 -->
<g id="edge10" class="edge">
<title>Node2&#45;&gt;Node11</title>
<path fill="none" stroke="midnightblue" d="M373.72,-380.78C388.48,-358.9 418.59,-318.66 454,-296 457.99,-293.45 462.32,-291.2 466.79,-289.23"/>
<polygon fill="midnightblue" stroke="midnightblue" points="468.08,-292.49 476.1,-285.56 465.51,-285.98 468.08,-292.49"/>
</g>
<!-- Node2&#45;&gt;Node12 -->
<g id="edge11" class="edge">
<title>Node2&#45;&gt;Node12</title>
<path fill="none" stroke="midnightblue" d="M370.87,-380.71C385.46,-348.44 420.92,-271.15 454,-208 470.4,-176.7 490.84,-141.45 504.26,-118.77"/>
<polygon fill="midnightblue" stroke="midnightblue" points="507.28,-120.54 509.38,-110.16 501.27,-116.97 507.28,-120.54"/>
</g>
<!-- Node2&#45;&gt;Node21 -->
<g id="edge17" class="edge">
<title>Node2&#45;&gt;Node21</title>
<path fill="none" stroke="midnightblue" d="M370.03,-380.81C381.97,-352.61 411.18,-291.84 454,-257 456.04,-255.34 458.2,-253.78 460.45,-252.32"/>
<polygon fill="midnightblue" stroke="midnightblue" points="462.53,-255.16 469.47,-247.15 459.05,-249.09 462.53,-255.16"/>
</g>
<!-- Node5 -->
<g id="node5" class="node">
<title>Node5</title>
<g id="a_node5"><a xlink:href="namespaceproblem__setup.html#a8e552b0e3bb3bde7c390d6906dbe88cd" target="_top" xlink:title=" ">
<polygon fill="none" stroke="black" points="625,-393 625,-423 738,-423 738,-393 625,-393"/>
<text text-anchor="start" x="633" y="-411" font-family="Arial" font-size="10.00">problem_setup.get_ref</text>
<text text-anchor="middle" x="681.5" y="-400" font-family="Arial" font-size="10.00">_hex_points</text>
</a>
</g>
</g>
<!-- Node4&#45;&gt;Node5 -->
<g id="edge4" class="edge">
<title>Node4&#45;&gt;Node5</title>
<path fill="none" stroke="midnightblue" d="M584.66,-408C594.53,-408 604.74,-408 614.65,-408"/>
<polygon fill="midnightblue" stroke="midnightblue" points="614.84,-411.5 624.84,-408 614.84,-404.5 614.84,-411.5"/>
</g>
<!-- Node6 -->
<g id="node6" class="node">
<title>Node6</title>
<g id="a_node6"><a xlink:href="namespaceproblem__setup.html#a192b6d085d04429814f30104aeb18493" target="_top" xlink:title=" ">
<polygon fill="none" stroke="black" points="779.5,-398.5 779.5,-417.5 887.5,-417.5 887.5,-398.5 779.5,-398.5"/>
<text text-anchor="middle" x="833.5" y="-405.5" font-family="Arial" font-size="10.00">problem_setup.rotate</text>
</a>
</g>
</g>
<!-- Node5&#45;&gt;Node6 -->
<g id="edge5" class="edge">
<title>Node5&#45;&gt;Node6</title>
<path fill="none" stroke="midnightblue" d="M738.35,-408C748.35,-408 758.83,-408 769.02,-408"/>
<polygon fill="midnightblue" stroke="midnightblue" points="769.09,-411.5 779.09,-408 769.09,-404.5 769.09,-411.5"/>
</g>
<!-- Node12&#45;&gt;Node13 -->
<g id="edge12" class="edge">
<title>Node12&#45;&gt;Node13</title>
<path fill="none" stroke="midnightblue" d="M577.36,-80.43C591.02,-76.93 605.67,-73.18 619.51,-69.63"/>
<polygon fill="midnightblue" stroke="midnightblue" points="620.6,-72.96 629.42,-67.09 618.86,-66.18 620.6,-72.96"/>
</g>
<!-- Node12&#45;&gt;Node14 -->
<g id="edge13" class="edge">
<title>Node12&#45;&gt;Node14</title>
<path fill="none" stroke="midnightblue" d="M539.95,-79.91C559.53,-65.29 591.04,-43.29 621,-29 625.65,-26.78 630.63,-24.73 635.65,-22.86"/>
<polygon fill="midnightblue" stroke="midnightblue" points="636.99,-26.1 645.28,-19.5 634.68,-19.49 636.99,-26.1"/>
</g>
<!-- Node15 -->
<g id="node15" class="node">
<title>Node15</title>
<g id="a_node15"><a xlink:href="namespaceutil_1_1io.html#a578a578ce41389fb01e56de7316b7054" target="_top" xlink:title="Prints formatted information.">
<polygon fill="none" stroke="black" points="647.5,-88.5 647.5,-107.5 715.5,-107.5 715.5,-88.5 647.5,-88.5"/>
<text text-anchor="middle" x="681.5" y="-95.5" font-family="Arial" font-size="10.00">util::io::print</text>
</a>
</g>
</g>
<!-- Node12&#45;&gt;Node15 -->
<g id="edge14" class="edge">
<title>Node12&#45;&gt;Node15</title>
<path fill="none" stroke="midnightblue" d="M577.36,-96.07C596.97,-96.43 618.62,-96.84 636.99,-97.18"/>
<polygon fill="midnightblue" stroke="midnightblue" points="637.05,-100.69 647.11,-97.37 637.18,-93.69 637.05,-100.69"/>
</g>
<!-- Node16 -->
<g id="node16" class="node">
<title>Node16</title>
<g id="a_node16"><a xlink:href="namespaceutil_1_1parallel.html#adb80f14125b7556bb478cc3725508fa8" target="_top" xlink:title="get rank (id) of this processor">
<polygon fill="none" stroke="red" points="778,-69.5 778,-88.5 889,-88.5 889,-69.5 778,-69.5"/>
<text text-anchor="middle" x="833.5" y="-76.5" font-family="Arial" font-size="10.00">util::parallel::mpiRank</text>
</a>
</g>
</g>
<!-- Node15&#45;&gt;Node16 -->
<g id="edge15" class="edge">
<title>Node15&#45;&gt;Node16</title>
<path fill="none" stroke="midnightblue" d="M715.79,-93.78C731.01,-91.85 749.6,-89.5 767.42,-87.24"/>
<polygon fill="midnightblue" stroke="midnightblue" points="768.32,-90.66 777.8,-85.93 767.44,-83.71 768.32,-90.66"/>
</g>
<!-- Node19 -->
<g id="node17" class="node">
<title>Node19</title>
<g id="a_node17"><a xlink:href="namespaceutil_1_1io.html#a3e537e3bd778616255015cde6e60a30a" target="_top" xlink:title="Returns formatted string for output.">
<polygon fill="none" stroke="red" points="793.5,-107.5 793.5,-126.5 873.5,-126.5 873.5,-107.5 793.5,-107.5"/>
<text text-anchor="middle" x="833.5" y="-114.5" font-family="Arial" font-size="10.00">util::io::printStr</text>
</a>
</g>
</g>
<!-- Node15&#45;&gt;Node19 -->
<g id="edge16" class="edge">
<title>Node15&#45;&gt;Node19</title>
<path fill="none" stroke="midnightblue" d="M715.79,-102.22C735.61,-104.73 761.13,-107.96 783.25,-110.76"/>
<polygon fill="midnightblue" stroke="midnightblue" points="783.1,-114.27 793.46,-112.06 783.98,-107.33 783.1,-114.27"/>
</g>
<!-- Node22&#45;&gt;Node2 -->
<g id="edge21" class="edge">
<title>Node22&#45;&gt;Node2</title>
<path fill="none" stroke="midnightblue" d="M234.24,-307.12C259.93,-324.99 302.82,-354.83 331.74,-374.95"/>
<polygon fill="midnightblue" stroke="midnightblue" points="330.03,-378.02 340.24,-380.86 334.02,-372.28 330.03,-378.02"/>
</g>
<!-- Node22&#45;&gt;Node9 -->
<g id="edge22" class="edge">
<title>Node22&#45;&gt;Node9</title>
<path fill="none" stroke="midnightblue" d="M219.01,-307.43C231.66,-335.3 262.35,-393.64 308,-421 352.09,-447.42 410.45,-454.28 454.54,-455.03"/>
<polygon fill="midnightblue" stroke="midnightblue" points="454.54,-458.53 464.56,-455.11 454.59,-451.53 454.54,-458.53"/>
</g>
<!-- Node22&#45;&gt;Node10 -->
<g id="edge23" class="edge">
<title>Node22&#45;&gt;Node10</title>
<path fill="none" stroke="midnightblue" d="M272.23,-296.49C322.55,-300.27 394.65,-305.69 447.84,-309.69"/>
<polygon fill="midnightblue" stroke="midnightblue" points="447.64,-313.18 457.88,-310.44 448.17,-306.2 447.64,-313.18"/>
</g>
<!-- Node22&#45;&gt;Node11 -->
<g id="edge24" class="edge">
<title>Node22&#45;&gt;Node11</title>
<path fill="none" stroke="midnightblue" d="M272.23,-288.88C324.6,-286.14 400.54,-282.17 454.22,-279.36"/>
<polygon fill="midnightblue" stroke="midnightblue" points="454.51,-282.85 464.31,-278.83 454.14,-275.86 454.51,-282.85"/>
</g>
<!-- Node22&#45;&gt;Node12 -->
<g id="edge25" class="edge">
<title>Node22&#45;&gt;Node12</title>
<path fill="none" stroke="midnightblue" d="M236,-276.87C290.29,-241.92 424.48,-155.53 486.33,-115.71"/>
<polygon fill="midnightblue" stroke="midnightblue" points="488.4,-118.54 494.92,-110.18 484.61,-112.65 488.4,-118.54"/>
</g>
<!-- Node22&#45;&gt;Node21 -->
<g id="edge26" class="edge">
<title>Node22&#45;&gt;Node21</title>
<path fill="none" stroke="midnightblue" d="M272.23,-280.29C325.82,-269.78 404.11,-254.43 457.95,-243.87"/>
<polygon fill="midnightblue" stroke="midnightblue" points="458.91,-247.25 468.05,-241.89 457.56,-240.38 458.91,-247.25"/>
</g>
</g>
</svg>
