<?xml version="1.0" encoding="UTF-8" standalone="no"?>
<!DOCTYPE svg PUBLIC "-//W3C//DTD SVG 1.1//EN"
 "http://www.w3.org/Graphics/SVG/1.1/DTD/svg11.dtd">
<!-- Generated by graphviz version 2.43.0 (0)
 -->
<!-- Title: problem_setup.particle_locations_orient Pages: 1 -->
<svg width="945pt" height="748pt"
 viewBox="0.00 0.00 945.00 747.88" xmlns="http://www.w3.org/2000/svg" xmlns:xlink="http://www.w3.org/1999/xlink">
<g id="graph0" class="graph" transform="scale(1 1) rotate(0) translate(4 743.88)">
<title>problem_setup.particle_locations_orient</title>
<!-- Node1 -->
<g id="node1" class="node">
<title>Node1</title>
<g id="a_node1"><a xlink:title=" ">
<polygon fill="#bfbfbf" stroke="black" points="0,-418.5 0,-448.5 115,-448.5 115,-418.5 0,-418.5"/>
<text text-anchor="start" x="8" y="-436.5" font-family="Arial" font-size="10.00">problem_setup.particle</text>
<text text-anchor="middle" x="57.5" y="-425.5" font-family="Arial" font-size="10.00">_locations_orient</text>
</a>
</g>
</g>
<!-- Node2 -->
<g id="node2" class="node">
<title>Node2</title>
<g id="a_node2"><a xlink:href="namespaceproblem__setup.html#a64e067098e447f766d042476ef5abe85" target="_top" xlink:title=" ">
<polygon fill="none" stroke="black" points="308,-316.5 308,-346.5 418,-346.5 418,-316.5 308,-316.5"/>
<text text-anchor="start" x="316" y="-334.5" font-family="Arial" font-size="10.00">problem_setup.create</text>
<text text-anchor="middle" x="363" y="-323.5" font-family="Arial" font-size="10.00">_input_file</text>
</a>
</g>
</g>
<!-- Node1&#45;&gt;Node2 -->
<g id="edge1" class="edge">
<title>Node1&#45;&gt;Node2</title>
<path fill="none" stroke="midnightblue" d="M103.28,-418.45C157.53,-400.22 248.87,-369.52 307.25,-349.9"/>
<polygon fill="midnightblue" stroke="midnightblue" points="308.67,-353.12 317.03,-346.61 306.44,-346.48 308.67,-353.12"/>
</g>
<!-- Node5 -->
<g id="node5" class="node">
<title>Node5</title>
<g id="a_node5"><a xlink:href="namespaceproblem__setup.html#a700be09e5b12da02f5d11c0d21cf5d5b" target="_top" xlink:title=" ">
<polygon fill="none" stroke="black" points="656.5,-631.5 656.5,-661.5 769.5,-661.5 769.5,-631.5 656.5,-631.5"/>
<text text-anchor="start" x="664.5" y="-649.5" font-family="Arial" font-size="10.00">problem_setup.get_ref</text>
<text text-anchor="middle" x="713" y="-638.5" font-family="Arial" font-size="10.00">_drum_points</text>
</a>
</g>
</g>
<!-- Node1&#45;&gt;Node5 -->
<g id="edge33" class="edge">
<title>Node1&#45;&gt;Node5</title>
<path fill="none" stroke="midnightblue" d="M67.35,-448.54C81.92,-472.06 113.14,-517.52 151,-543.5 304.2,-648.64 534.22,-654.99 646.13,-650.88"/>
<polygon fill="midnightblue" stroke="midnightblue" points="646.41,-654.37 656.26,-650.47 646.13,-647.38 646.41,-654.37"/>
</g>
<!-- Node6 -->
<g id="node6" class="node">
<title>Node6</title>
<g id="a_node6"><a xlink:href="namespaceproblem__setup.html#a192b6d085d04429814f30104aeb18493" target="_top" xlink:title=" ">
<polygon fill="none" stroke="black" points="827.5,-681 827.5,-700 935.5,-700 935.5,-681 827.5,-681"/>
<text text-anchor="middle" x="881.5" y="-688" font-family="Arial" font-size="10.00">problem_setup.rotate</text>
</a>
</g>
</g>
<!-- Node1&#45;&gt;Node6 -->
<g id="edge40" class="edge">
<title>Node1&#45;&gt;Node6</title>
<path fill="none" stroke="midnightblue" d="M58.81,-448.63C60.64,-494.2 72.68,-631.04 151,-697.5 223.59,-759.1 266.79,-734.5 362,-734.5 362,-734.5 362,-734.5 528,-734.5 633.22,-734.5 754.76,-714.96 824.13,-701.92"/>
<polygon fill="midnightblue" stroke="midnightblue" points="824.8,-705.35 833.97,-700.05 823.5,-698.48 824.8,-705.35"/>
</g>
<!-- Node9 -->
<g id="node9" class="node">
<title>Node9</title>
<g id="a_node9"><a xlink:href="namespaceproblem__setup.html#ad281d5f1d41eee4b1a595ede1aff337c" target="_top" xlink:title=" ">
<polygon fill="none" stroke="black" points="466.5,-549.5 466.5,-579.5 587.5,-579.5 587.5,-549.5 466.5,-549.5"/>
<text text-anchor="start" x="474.5" y="-567.5" font-family="Arial" font-size="10.00">problem_setup.generate</text>
<text text-anchor="middle" x="527" y="-556.5" font-family="Arial" font-size="10.00">_wall_gmsh_input</text>
</a>
</g>
</g>
<!-- Node1&#45;&gt;Node9 -->
<g id="edge29" class="edge">
<title>Node1&#45;&gt;Node9</title>
<path fill="none" stroke="midnightblue" d="M88.78,-448.59C106.58,-457.04 129.7,-467.29 151,-474.5 255.24,-509.78 380.22,-536.86 456.33,-551.72"/>
<polygon fill="midnightblue" stroke="midnightblue" points="455.79,-555.19 466.28,-553.65 457.13,-548.31 455.79,-555.19"/>
</g>
<!-- Node10 -->
<g id="node10" class="node">
<title>Node10</title>
<g id="a_node10"><a xlink:href="namespaceproblem__setup.html#af977354e61703cd925c2511fd3ca0858" target="_top" xlink:title=" ">
<polygon fill="none" stroke="black" points="472.5,-511 472.5,-530 581.5,-530 581.5,-511 472.5,-511"/>
<text text-anchor="middle" x="527" y="-518" font-family="Arial" font-size="10.00">problem_setup.get_E</text>
</a>
</g>
</g>
<!-- Node1&#45;&gt;Node10 -->
<g id="edge30" class="edge">
<title>Node1&#45;&gt;Node10</title>
<path fill="none" stroke="midnightblue" d="M115.36,-444.08C203.9,-460.56 373.99,-492.21 465,-509.15"/>
<polygon fill="midnightblue" stroke="midnightblue" points="464.42,-512.6 474.89,-510.99 465.7,-505.72 464.42,-512.6"/>
</g>
<!-- Node11 -->
<g id="node11" class="node">
<title>Node11</title>
<g id="a_node11"><a xlink:href="namespaceproblem__setup.html#a564e6017e037399c311be8b31653e45d" target="_top" xlink:title=" ">
<polygon fill="none" stroke="black" points="465.5,-90 465.5,-109 588.5,-109 588.5,-90 465.5,-90"/>
<text text-anchor="middle" x="527" y="-97" font-family="Arial" font-size="10.00">problem_setup.get_eff_k</text>
</a>
</g>
</g>
<!-- Node1&#45;&gt;Node11 -->
<g id="edge31" class="edge">
<title>Node1&#45;&gt;Node11</title>
<path fill="none" stroke="midnightblue" d="M61.06,-418.34C68.31,-379.93 92.33,-277.63 151,-218.5 232.74,-136.12 371.18,-110.67 455.03,-102.87"/>
<polygon fill="midnightblue" stroke="midnightblue" points="455.57,-106.34 465.23,-101.99 454.97,-99.36 455.57,-106.34"/>
</g>
<!-- Node12 -->
<g id="node12" class="node">
<title>Node12</title>
<g id="a_node12"><a xlink:href="namespaceproblem__setup.html#adc274a492cfb30270617c3c66d64c6c4" target="_top" xlink:title=" ">
<polygon fill="none" stroke="black" points="472,-52 472,-71 582,-71 582,-52 472,-52"/>
<text text-anchor="middle" x="527" y="-59" font-family="Arial" font-size="10.00">problem_setup.get_G</text>
</a>
</g>
</g>
<!-- Node1&#45;&gt;Node12 -->
<g id="edge32" class="edge">
<title>Node1&#45;&gt;Node12</title>
<path fill="none" stroke="midnightblue" d="M58.77,-418.46C60.46,-371.09 72.1,-223.28 151,-142.5 232.42,-59.14 377.7,-51.89 461.52,-55.65"/>
<polygon fill="midnightblue" stroke="midnightblue" points="461.52,-59.15 471.68,-56.17 461.88,-52.16 461.52,-59.15"/>
</g>
<!-- Node16 -->
<g id="node16" class="node">
<title>Node16</title>
<g id="a_node16"><a xlink:href="namespaceutil_1_1io.html#a578a578ce41389fb01e56de7316b7054" target="_top" xlink:title="Prints formatted information.">
<polygon fill="none" stroke="black" points="679,-227 679,-246 747,-246 747,-227 679,-227"/>
<text text-anchor="middle" x="713" y="-234" font-family="Arial" font-size="10.00">util::io::print</text>
</a>
</g>
</g>
<!-- Node1&#45;&gt;Node16 -->
<g id="edge37" class="edge">
<title>Node1&#45;&gt;Node16</title>
<path fill="none" stroke="midnightblue" d="M73.88,-448.61C91.25,-464.87 121,-490.41 151,-505.5 241.69,-551.1 521.7,-654.1 600,-589.5 664.95,-535.92 610.38,-483.71 636,-403.5 653.85,-347.61 685.35,-285.7 701.63,-255.36"/>
<polygon fill="midnightblue" stroke="midnightblue" points="704.83,-256.8 706.52,-246.34 698.68,-253.46 704.83,-256.8"/>
</g>
<!-- Node22 -->
<g id="node19" class="node">
<title>Node22</title>
<g id="a_node19"><a xlink:href="namespaceproblem__setup.html#a9ce710367bd7258e6dd619e9ec930b36" target="_top" xlink:title=" ">
<polygon fill="none" stroke="black" points="476,-177.5 476,-207.5 578,-207.5 578,-177.5 476,-177.5"/>
<text text-anchor="start" x="484" y="-195.5" font-family="Arial" font-size="10.00">problem_setup.print</text>
<text text-anchor="middle" x="527" y="-184.5" font-family="Arial" font-size="10.00">_dbl_list</text>
</a>
</g>
</g>
<!-- Node1&#45;&gt;Node22 -->
<g id="edge38" class="edge">
<title>Node1&#45;&gt;Node22</title>
<path fill="none" stroke="midnightblue" d="M74.53,-418.39C92.22,-402.28 122.03,-376.77 151,-359.5 261.68,-293.52 305.15,-308.69 418,-246.5 435.06,-237.1 436.86,-230.75 454,-221.5 460.52,-217.98 467.57,-214.63 474.6,-211.55"/>
<polygon fill="midnightblue" stroke="midnightblue" points="476.3,-214.63 484.15,-207.51 473.58,-208.18 476.3,-214.63"/>
</g>
<!-- Node25 -->
<g id="node22" class="node">
<title>Node25</title>
<g id="a_node22"><a xlink:href="namespaceproblem__setup.html#a147f310ff74124342d15ab356739883f" target="_top" xlink:title=" ">
<polygon fill="none" stroke="black" points="151,-228.5 151,-258.5 272,-258.5 272,-228.5 151,-228.5"/>
<text text-anchor="start" x="159" y="-246.5" font-family="Arial" font-size="10.00">problem_setup.generate</text>
<text text-anchor="middle" x="211.5" y="-235.5" font-family="Arial" font-size="10.00">_particle_gmsh_input</text>
</a>
</g>
</g>
<!-- Node1&#45;&gt;Node25 -->
<g id="edge22" class="edge">
<title>Node1&#45;&gt;Node25</title>
<path fill="none" stroke="midnightblue" d="M63.83,-418.37C75.35,-387.53 105.28,-316.68 151,-273.5 154.79,-269.92 159.1,-266.67 163.61,-263.74"/>
<polygon fill="midnightblue" stroke="midnightblue" points="165.64,-266.61 172.48,-258.52 162.09,-260.58 165.64,-266.61"/>
</g>
<!-- Node26 -->
<g id="node23" class="node">
<title>Node26</title>
<g id="a_node23"><a xlink:href="namespaceproblem__setup.html#a2b643803a88f4dba1de3a039bcf58fe2" target="_top" xlink:title=" ">
<polygon fill="none" stroke="black" points="469.5,-675.5 469.5,-705.5 584.5,-705.5 584.5,-675.5 469.5,-675.5"/>
<text text-anchor="start" x="477.5" y="-693.5" font-family="Arial" font-size="10.00">problem_setup.particle</text>
<text text-anchor="middle" x="527" y="-682.5" font-family="Arial" font-size="10.00">_locations_orient</text>
</a>
</g>
</g>
<!-- Node1&#45;&gt;Node26 -->
<g id="edge34" class="edge">
<title>Node1&#45;&gt;Node26</title>
<path fill="none" stroke="midnightblue" d="M59.48,-448.63C63.07,-490.48 79.4,-608.09 151,-660.5 241.09,-726.44 378.07,-717.7 459.15,-704.6"/>
<polygon fill="midnightblue" stroke="midnightblue" points="459.96,-708.02 469.24,-702.91 458.79,-701.12 459.96,-708.02"/>
</g>
<!-- Node27 -->
<g id="node24" class="node">
<title>Node27</title>
<g id="a_node24"><a xlink:href="namespaceproblem__setup.html#aedcbe8beb574c3255f563db299cd52ed" target="_top" xlink:title=" ">
<polygon fill="none" stroke="black" points="161.5,-0.5 161.5,-30.5 261.5,-30.5 261.5,-0.5 161.5,-0.5"/>
<text text-anchor="start" x="169.5" y="-18.5" font-family="Arial" font-size="10.00">problem_setup.rect</text>
<text text-anchor="middle" x="211.5" y="-7.5" font-family="Arial" font-size="10.00">_to_five_param</text>
</a>
</g>
</g>
<!-- Node1&#45;&gt;Node27 -->
<g id="edge39" class="edge">
<title>Node1&#45;&gt;Node27</title>
<path fill="none" stroke="midnightblue" d="M60.38,-418.41C68.62,-354.41 103.23,-105.94 151,-45.5 153.66,-42.13 156.81,-39.11 160.23,-36.4"/>
<polygon fill="midnightblue" stroke="midnightblue" points="162.37,-39.18 168.65,-30.65 158.42,-33.4 162.37,-39.18"/>
</g>
<!-- Node3 -->
<g id="node3" class="node">
<title>Node3</title>
<g id="a_node3"><a xlink:href="namespaceproblem__setup.html#a2deb4dabdc948f0b2b009c3576518ade" target="_top" xlink:title=" ">
<polygon fill="none" stroke="black" points="464.5,-363.5 464.5,-393.5 589.5,-393.5 589.5,-363.5 464.5,-363.5"/>
<text text-anchor="start" x="472.5" y="-381.5" font-family="Arial" font-size="10.00">problem_setup.generate</text>
<text text-anchor="middle" x="527" y="-370.5" font-family="Arial" font-size="10.00">_cir_particle_gmsh_input</text>
</a>
</g>
</g>
<!-- Node2&#45;&gt;Node3 -->
<g id="edge2" class="edge">
<title>Node2&#45;&gt;Node3</title>
<path fill="none" stroke="midnightblue" d="M415.7,-346.5C431.19,-350.99 448.34,-355.97 464.4,-360.63"/>
<polygon fill="midnightblue" stroke="midnightblue" points="463.65,-364.06 474.23,-363.48 465.6,-357.33 463.65,-364.06"/>
</g>
<!-- Node4 -->
<g id="node4" class="node">
<title>Node4</title>
<g id="a_node4"><a xlink:href="namespaceproblem__setup.html#ae83c0d80c0947e65b98e4a2da0c07601" target="_top" xlink:title=" ">
<polygon fill="none" stroke="black" points="454,-461.5 454,-491.5 600,-491.5 600,-461.5 454,-461.5"/>
<text text-anchor="start" x="462" y="-479.5" font-family="Arial" font-size="10.00">problem_setup.generate</text>
<text text-anchor="middle" x="527" y="-468.5" font-family="Arial" font-size="10.00">_drum2d_particle_gmsh_input</text>
</a>
</g>
</g>
<!-- Node2&#45;&gt;Node4 -->
<g id="edge3" class="edge">
<title>Node2&#45;&gt;Node4</title>
<path fill="none" stroke="midnightblue" d="M380.24,-346.54C391.59,-357.53 406.67,-373.14 418,-388.5 437.37,-414.77 428.83,-431.72 454,-452.5 455.56,-453.79 457.2,-455.01 458.89,-456.17"/>
<polygon fill="midnightblue" stroke="midnightblue" points="457.38,-459.34 467.76,-461.43 460.95,-453.32 457.38,-459.34"/>
</g>
<!-- Node7 -->
<g id="node7" class="node">
<title>Node7</title>
<g id="a_node7"><a xlink:href="namespaceproblem__setup.html#a541e6c5ea41e139ea1eca83975753fbb" target="_top" xlink:title=" ">
<polygon fill="none" stroke="black" points="466,-412.5 466,-442.5 588,-442.5 588,-412.5 466,-412.5"/>
<text text-anchor="start" x="474" y="-430.5" font-family="Arial" font-size="10.00">problem_setup.generate</text>
<text text-anchor="middle" x="527" y="-419.5" font-family="Arial" font-size="10.00">_tri_particle_gmsh_input</text>
</a>
</g>
</g>
<!-- Node2&#45;&gt;Node7 -->
<g id="edge6" class="edge">
<title>Node2&#45;&gt;Node7</title>
<path fill="none" stroke="midnightblue" d="M379.35,-346.64C396.35,-362.68 425.17,-387.82 454,-403.5 457.26,-405.27 460.67,-406.95 464.17,-408.52"/>
<polygon fill="midnightblue" stroke="midnightblue" points="462.98,-411.82 473.55,-412.46 465.68,-405.36 462.98,-411.82"/>
</g>
<!-- Node2&#45;&gt;Node9 -->
<g id="edge8" class="edge">
<title>Node2&#45;&gt;Node9</title>
<path fill="none" stroke="midnightblue" d="M366.3,-346.72C372.84,-384.74 395.03,-484.75 454,-539.5 455.69,-541.07 457.49,-542.55 459.37,-543.93"/>
<polygon fill="midnightblue" stroke="midnightblue" points="457.75,-547.04 468.07,-549.42 461.48,-541.12 457.75,-547.04"/>
</g>
<!-- Node2&#45;&gt;Node10 -->
<g id="edge9" class="edge">
<title>Node2&#45;&gt;Node10</title>
<path fill="none" stroke="midnightblue" d="M382,-346.57C393.71,-357.23 408.5,-372.42 418,-388.5 444.8,-433.89 415.8,-465.18 454,-501.5 456.79,-504.15 459.9,-506.44 463.22,-508.42"/>
<polygon fill="midnightblue" stroke="midnightblue" points="461.92,-511.68 472.44,-512.96 465.02,-505.4 461.92,-511.68"/>
</g>
<!-- Node2&#45;&gt;Node11 -->
<g id="edge10" class="edge">
<title>Node2&#45;&gt;Node11</title>
<path fill="none" stroke="midnightblue" d="M369.52,-316.35C386.51,-270.01 437.89,-132.47 454,-118.5 455.97,-116.8 458.07,-115.24 460.27,-113.82"/>
<polygon fill="midnightblue" stroke="midnightblue" points="462.06,-116.84 469.21,-109.01 458.74,-110.67 462.06,-116.84"/>
</g>
<!-- Node2&#45;&gt;Node12 -->
<g id="edge11" class="edge">
<title>Node2&#45;&gt;Node12</title>
<path fill="none" stroke="midnightblue" d="M364.73,-316.47C367.69,-273.02 382.36,-146.21 454,-80.5 456.65,-78.07 459.58,-75.94 462.69,-74.08"/>
<polygon fill="midnightblue" stroke="midnightblue" points="464.48,-77.1 471.87,-69.51 461.36,-70.83 464.48,-77.1"/>
</g>
<!-- Node13 -->
<g id="node13" class="node">
<title>Node13</title>
<g id="a_node13"><a xlink:href="namespaceproblem__setup.html#a662426f1cd2c0857864b28e98daa4d5a" target="_top" xlink:title=" ">
<polygon fill="none" stroke="black" points="469.5,-128.5 469.5,-158.5 584.5,-158.5 584.5,-128.5 469.5,-128.5"/>
<text text-anchor="start" x="477.5" y="-146.5" font-family="Arial" font-size="10.00">problem_setup.particle</text>
<text text-anchor="middle" x="527" y="-135.5" font-family="Arial" font-size="10.00">_locations</text>
</a>
</g>
</g>
<!-- Node2&#45;&gt;Node13 -->
<g id="edge12" class="edge">
<title>Node2&#45;&gt;Node13</title>
<path fill="none" stroke="midnightblue" d="M371.49,-316.4C390.71,-277.88 441.16,-178.22 454,-167.5 455.99,-165.84 458.1,-164.29 460.3,-162.85"/>
<polygon fill="midnightblue" stroke="midnightblue" points="462.22,-165.79 469.17,-157.79 458.75,-159.71 462.22,-165.79"/>
</g>
<!-- Node2&#45;&gt;Node16 -->
<g id="edge18" class="edge">
<title>Node2&#45;&gt;Node16</title>
<path fill="none" stroke="midnightblue" d="M396.23,-316.36C403.76,-312.09 411.48,-307.07 418,-301.5 437.74,-284.64 431.1,-267.72 454,-255.5 521.98,-219.23 614.72,-223.04 668.5,-229.5"/>
<polygon fill="midnightblue" stroke="midnightblue" points="668.35,-233.01 678.72,-230.82 669.25,-226.07 668.35,-233.01"/>
</g>
<!-- Node2&#45;&gt;Node22 -->
<g id="edge19" class="edge">
<title>Node2&#45;&gt;Node22</title>
<path fill="none" stroke="midnightblue" d="M398.91,-316.41C405.83,-312.3 412.62,-307.33 418,-301.5 444.18,-273.15 426.27,-249.33 454,-222.5 457.8,-218.83 462.1,-215.58 466.68,-212.71"/>
<polygon fill="midnightblue" stroke="midnightblue" points="468.73,-215.57 475.76,-207.64 465.32,-209.46 468.73,-215.57"/>
</g>
<!-- Node23 -->
<g id="node20" class="node">
<title>Node23</title>
<g id="a_node20"><a xlink:href="namespaceproblem__setup.html#ad4d4b3139613a4ea00dadf8eb7c60a88" target="_top" xlink:title=" ">
<polygon fill="none" stroke="black" points="475,-314.5 475,-344.5 579,-344.5 579,-314.5 475,-314.5"/>
<text text-anchor="start" x="483" y="-332.5" font-family="Arial" font-size="10.00">problem_setup.write</text>
<text text-anchor="middle" x="527" y="-321.5" font-family="Arial" font-size="10.00">_contact_zone_part</text>
</a>
</g>
</g>
<!-- Node2&#45;&gt;Node23 -->
<g id="edge20" class="edge">
<title>Node2&#45;&gt;Node23</title>
<path fill="none" stroke="midnightblue" d="M418.39,-330.83C433.18,-330.65 449.3,-330.45 464.45,-330.26"/>
<polygon fill="midnightblue" stroke="midnightblue" points="464.81,-333.76 474.76,-330.13 464.72,-326.76 464.81,-333.76"/>
</g>
<!-- Node24 -->
<g id="node21" class="node">
<title>Node24</title>
<g id="a_node21"><a xlink:href="namespaceproblem__setup.html#a3b2a9fc19652f44b774b4bb9a8221265" target="_top" xlink:title=" ">
<polygon fill="none" stroke="black" points="475,-265.5 475,-295.5 579,-295.5 579,-265.5 475,-265.5"/>
<text text-anchor="start" x="483" y="-283.5" font-family="Arial" font-size="10.00">problem_setup.write</text>
<text text-anchor="middle" x="527" y="-272.5" font-family="Arial" font-size="10.00">_material_zone_part</text>
</a>
</g>
</g>
<!-- Node2&#45;&gt;Node24 -->
<g id="edge21" class="edge">
<title>Node2&#45;&gt;Node24</title>
<path fill="none" stroke="midnightblue" d="M411.73,-316.47C429.61,-310.84 450.11,-304.39 468.77,-298.52"/>
<polygon fill="midnightblue" stroke="midnightblue" points="469.84,-301.85 478.33,-295.51 467.74,-295.17 469.84,-301.85"/>
</g>
<!-- Node4&#45;&gt;Node5 -->
<g id="edge4" class="edge">
<title>Node4&#45;&gt;Node5</title>
<path fill="none" stroke="midnightblue" d="M582.4,-491.51C588.61,-494.33 594.63,-497.64 600,-501.5 645.4,-534.16 681.26,-590.35 699.28,-622.35"/>
<polygon fill="midnightblue" stroke="midnightblue" points="696.4,-624.37 704.29,-631.45 702.53,-621 696.4,-624.37"/>
</g>
<!-- Node5&#45;&gt;Node6 -->
<g id="edge5" class="edge">
<title>Node5&#45;&gt;Node6</title>
<path fill="none" stroke="midnightblue" d="M769.91,-661.27C790.92,-666.83 814.55,-673.07 834.55,-678.36"/>
<polygon fill="midnightblue" stroke="midnightblue" points="833.79,-681.78 844.35,-680.95 835.58,-675.01 833.79,-681.78"/>
</g>
<!-- Node8 -->
<g id="node8" class="node">
<title>Node8</title>
<g id="a_node8"><a xlink:href="namespaceproblem__setup.html#ac4731e8b5a85713f528c4c79651768ac" target="_top" xlink:title=" ">
<polygon fill="none" stroke="black" points="656.5,-412.5 656.5,-442.5 769.5,-442.5 769.5,-412.5 656.5,-412.5"/>
<text text-anchor="start" x="664.5" y="-430.5" font-family="Arial" font-size="10.00">problem_setup.get_ref</text>
<text text-anchor="middle" x="713" y="-419.5" font-family="Arial" font-size="10.00">_triangle_points</text>
</a>
</g>
</g>
<!-- Node7&#45;&gt;Node8 -->
<g id="edge7" class="edge">
<title>Node7&#45;&gt;Node8</title>
<path fill="none" stroke="midnightblue" d="M588.25,-427.5C606.82,-427.5 627.35,-427.5 646.27,-427.5"/>
<polygon fill="midnightblue" stroke="midnightblue" points="646.29,-431 656.29,-427.5 646.29,-424 646.29,-431"/>
</g>
<!-- Node14 -->
<g id="node14" class="node">
<title>Node14</title>
<g id="a_node14"><a xlink:href="namespaceproblem__setup.html#a49682af72cdc7bca4f282619eb559d90" target="_top" xlink:title=" ">
<polygon fill="none" stroke="black" points="636,-150.5 636,-180.5 790,-180.5 790,-150.5 636,-150.5"/>
<text text-anchor="start" x="644" y="-168.5" font-family="Arial" font-size="10.00">problem_setup.does</text>
<text text-anchor="middle" x="713" y="-157.5" font-family="Arial" font-size="10.00">_intersect_with_cylindrical_wall</text>
</a>
</g>
</g>
<!-- Node13&#45;&gt;Node14 -->
<g id="edge13" class="edge">
<title>Node13&#45;&gt;Node14</title>
<path fill="none" stroke="midnightblue" d="M584.71,-150.28C597.71,-151.83 611.82,-153.52 625.75,-155.19"/>
<polygon fill="midnightblue" stroke="midnightblue" points="625.5,-158.68 635.84,-156.39 626.33,-151.73 625.5,-158.68"/>
</g>
<!-- Node15 -->
<g id="node15" class="node">
<title>Node15</title>
<g id="a_node15"><a xlink:href="namespaceproblem__setup.html#aa39e6862e38920798278f55a2578a6ef" target="_top" xlink:title=" ">
<polygon fill="none" stroke="black" points="652.5,-112 652.5,-131 773.5,-131 773.5,-112 652.5,-112"/>
<text text-anchor="middle" x="713" y="-119" font-family="Arial" font-size="10.00">problem_setup.get_max</text>
</a>
</g>
</g>
<!-- Node13&#45;&gt;Node15 -->
<g id="edge14" class="edge">
<title>Node13&#45;&gt;Node15</title>
<path fill="none" stroke="midnightblue" d="M584.71,-136.72C602.88,-134.55 623.21,-132.12 642.2,-129.85"/>
<polygon fill="midnightblue" stroke="midnightblue" points="642.78,-133.3 652.29,-128.64 641.95,-126.35 642.78,-133.3"/>
</g>
<!-- Node13&#45;&gt;Node16 -->
<g id="edge15" class="edge">
<title>Node13&#45;&gt;Node16</title>
<path fill="none" stroke="midnightblue" d="M578.16,-158.56C585.59,-161.27 593.08,-164.27 600,-167.5 601.15,-168.04 655,-201.28 687.6,-221.42"/>
<polygon fill="midnightblue" stroke="midnightblue" points="685.82,-224.44 696.17,-226.71 689.5,-218.48 685.82,-224.44"/>
</g>
<!-- Node17 -->
<g id="node17" class="node">
<title>Node17</title>
<g id="a_node17"><a xlink:href="namespaceutil_1_1parallel.html#adb80f14125b7556bb478cc3725508fa8" target="_top" xlink:title="get rank (id) of this processor">
<polygon fill="none" stroke="red" points="826,-208 826,-227 937,-227 937,-208 826,-208"/>
<text text-anchor="middle" x="881.5" y="-215" font-family="Arial" font-size="10.00">util::parallel::mpiRank</text>
</a>
</g>
</g>
<!-- Node16&#45;&gt;Node17 -->
<g id="edge16" class="edge">
<title>Node16&#45;&gt;Node17</title>
<path fill="none" stroke="midnightblue" d="M747.29,-232.7C766.89,-230.46 792.34,-227.56 815.73,-224.89"/>
<polygon fill="midnightblue" stroke="midnightblue" points="816.42,-228.33 825.96,-223.72 815.63,-221.38 816.42,-228.33"/>
</g>
<!-- Node20 -->
<g id="node18" class="node">
<title>Node20</title>
<g id="a_node18"><a xlink:href="namespaceutil_1_1io.html#a3e537e3bd778616255015cde6e60a30a" target="_top" xlink:title="Returns formatted string for output.">
<polygon fill="none" stroke="red" points="841.5,-246 841.5,-265 921.5,-265 921.5,-246 841.5,-246"/>
<text text-anchor="middle" x="881.5" y="-253" font-family="Arial" font-size="10.00">util::io::printStr</text>
</a>
</g>
</g>
<!-- Node16&#45;&gt;Node20 -->
<g id="edge17" class="edge">
<title>Node16&#45;&gt;Node20</title>
<path fill="none" stroke="midnightblue" d="M747.29,-240.3C771.36,-243.05 804.27,-246.8 831.35,-249.89"/>
<polygon fill="midnightblue" stroke="midnightblue" points="831.08,-253.38 841.42,-251.04 831.88,-246.43 831.08,-253.38"/>
</g>
<!-- Node25&#45;&gt;Node2 -->
<g id="edge23" class="edge">
<title>Node25&#45;&gt;Node2</title>
<path fill="none" stroke="midnightblue" d="M238.2,-258.63C262.8,-273.11 300.1,-295.06 327.32,-311.09"/>
<polygon fill="midnightblue" stroke="midnightblue" points="325.74,-314.22 336.14,-316.28 329.29,-308.19 325.74,-314.22"/>
</g>
<!-- Node25&#45;&gt;Node10 -->
<g id="edge24" class="edge">
<title>Node25&#45;&gt;Node10</title>
<path fill="none" stroke="midnightblue" d="M224.2,-258.73C241.58,-281.02 275.65,-323.47 308,-356.5 353.6,-403.07 373.77,-405.62 418,-453.5 436.1,-473.09 431.88,-486.61 454,-501.5 457.08,-503.57 460.37,-505.42 463.79,-507.06"/>
<polygon fill="midnightblue" stroke="midnightblue" points="462.5,-510.32 473.08,-510.96 465.21,-503.86 462.5,-510.32"/>
</g>
<!-- Node25&#45;&gt;Node11 -->
<g id="edge25" class="edge">
<title>Node25&#45;&gt;Node11</title>
<path fill="none" stroke="midnightblue" d="M235.35,-228.36C254.28,-216.25 282.16,-199.4 308,-187.5 354.98,-165.87 373.16,-175.28 418,-149.5 436.31,-138.98 435.32,-128.33 454,-118.5 458.46,-116.15 463.23,-114.08 468.12,-112.25"/>
<polygon fill="midnightblue" stroke="midnightblue" points="469.26,-115.56 477.61,-109.03 467.01,-108.93 469.26,-115.56"/>
</g>
<!-- Node25&#45;&gt;Node12 -->
<g id="edge26" class="edge">
<title>Node25&#45;&gt;Node12</title>
<path fill="none" stroke="midnightblue" d="M224.03,-228.48C240.69,-207.61 273.31,-169.68 308,-145.5 359.46,-109.64 428.31,-86.45 474.75,-73.71"/>
<polygon fill="midnightblue" stroke="midnightblue" points="475.84,-77.04 484.6,-71.07 474.03,-70.28 475.84,-77.04"/>
</g>
<!-- Node25&#45;&gt;Node13 -->
<g id="edge27" class="edge">
<title>Node25&#45;&gt;Node13</title>
<path fill="none" stroke="midnightblue" d="M272.21,-231.24C313.9,-221.72 370.39,-206.88 418,-187.5 434.95,-180.6 437.25,-174.87 454,-167.5 458.3,-165.61 462.79,-163.78 467.35,-162.03"/>
<polygon fill="midnightblue" stroke="midnightblue" points="468.57,-165.31 476.74,-158.56 466.14,-158.75 468.57,-165.31"/>
</g>
<!-- Node25&#45;&gt;Node22 -->
<g id="edge28" class="edge">
<title>Node25&#45;&gt;Node22</title>
<path fill="none" stroke="midnightblue" d="M272.31,-241.56C313.56,-239.42 369.48,-234.93 418,-225.5 436.76,-221.85 456.88,-216.2 474.62,-210.6"/>
<polygon fill="midnightblue" stroke="midnightblue" points="475.76,-213.91 484.2,-207.51 473.61,-207.25 475.76,-213.91"/>
</g>
<!-- Node26&#45;&gt;Node5 -->
<g id="edge35" class="edge">
<title>Node26&#45;&gt;Node5</title>
<path fill="none" stroke="midnightblue" d="M584.71,-676.94C604.31,-672.25 626.43,-666.96 646.66,-662.12"/>
<polygon fill="midnightblue" stroke="midnightblue" points="647.52,-665.52 656.43,-659.79 645.89,-658.71 647.52,-665.52"/>
</g>
<!-- Node26&#45;&gt;Node6 -->
<g id="edge36" class="edge">
<title>Node26&#45;&gt;Node6</title>
<path fill="none" stroke="midnightblue" d="M584.64,-690.5C648.18,-690.5 751.01,-690.5 817.17,-690.5"/>
<polygon fill="midnightblue" stroke="midnightblue" points="817.46,-694 827.46,-690.5 817.46,-687 817.46,-694"/>
</g>
</g>
</svg>
