<?xml version="1.0" encoding="UTF-8" standalone="no"?>
<!DOCTYPE svg PUBLIC "-//W3C//DTD SVG 1.1//EN"
 "http://www.w3.org/Graphics/SVG/1.1/DTD/svg11.dtd">
<!-- Generated by graphviz version 2.43.0 (0)
 -->
<!-- Title: problem_setup.does_intersect_with_cylindrical_wall Pages: 1 -->
<svg width="854pt" height="738pt"
 viewBox="0.00 0.00 854.00 738.35" xmlns="http://www.w3.org/2000/svg" xmlns:xlink="http://www.w3.org/1999/xlink">
<g id="graph0" class="graph" transform="scale(1 1) rotate(0) translate(4 734.35)">
<title>problem_setup.does_intersect_with_cylindrical_wall</title>
<!-- Node1 -->
<g id="Node000001" class="node">
<title>Node1</title>
<g id="a_Node000001"><a xlink:title=" ">
<polygon fill="#999999" stroke="#666666" points="846,-73 692,-73 692,-43 846,-43 846,-73"/>
<text text-anchor="start" x="700" y="-61" font-family="Arial" font-size="10.00">problem_setup.does</text>
<text text-anchor="middle" x="769" y="-50" font-family="Arial" font-size="10.00">_intersect_with_cylindrical_wall</text>
</a>
</g>
</g>
<!-- Node2 -->
<g id="Node000002" class="node">
<title>Node2</title>
<g id="a_Node000002"><a xlink:href="namespaceproblem__setup.html#aea678eaa9149fe7e9246bc2776c4213b" target="_top" xlink:title=" ">
<polygon fill="white" stroke="#666666" points="656,-446 541,-446 541,-416 656,-416 656,-446"/>
<text text-anchor="start" x="549" y="-434" font-family="Arial" font-size="10.00">problem_setup.particle</text>
<text text-anchor="middle" x="598.5" y="-423" font-family="Arial" font-size="10.00">_locations</text>
</a>
</g>
</g>
<!-- Node1&#45;&gt;Node2 -->
<g id="edge1_Node000001_Node000002" class="edge">
<title>Node1&#45;&gt;Node2</title>
<g id="a_edge1_Node000001_Node000002"><a xlink:title=" ">
<path fill="none" stroke="#63b8ff" d="M756.9,-82.57C724.79,-153.66 632.42,-358.12 606.4,-415.73"/>
<polygon fill="#63b8ff" stroke="#63b8ff" points="760.26,-83.64 761.19,-73.08 753.88,-80.76 760.26,-83.64"/>
</a>
</g>
</g>
<!-- Node13 -->
<g id="Node000013" class="node">
<title>Node13</title>
<g id="a_Node000013"><a xlink:href="namespaceproblem__setup.html#a38db49e0a85dd22e69cae23f7f92435f" target="_top" xlink:title=" ">
<polygon fill="white" stroke="#666666" points="127,-133 12,-133 12,-103 127,-103 127,-133"/>
<text text-anchor="start" x="20" y="-121" font-family="Arial" font-size="10.00">problem_setup.particle</text>
<text text-anchor="middle" x="69.5" y="-110" font-family="Arial" font-size="10.00">_locations</text>
</a>
</g>
</g>
<!-- Node1&#45;&gt;Node13 -->
<g id="edge34_Node000001_Node000013" class="edge">
<title>Node1&#45;&gt;Node13</title>
<g id="a_edge34_Node000001_Node000013"><a xlink:title=" ">
<path fill="none" stroke="#63b8ff" d="M681.64,-60.09C565.88,-63.71 354.2,-73.21 175,-97 159.41,-99.07 142.65,-102.08 127.22,-105.18"/>
<polygon fill="#63b8ff" stroke="#63b8ff" points="681.97,-63.58 691.86,-59.78 681.76,-56.59 681.97,-63.58"/>
</a>
</g>
</g>
<!-- Node14 -->
<g id="Node000014" class="node">
<title>Node14</title>
<g id="a_Node000014"><a xlink:href="namespaceproblem__setup.html#a93f32e78adb37a28a0d66623c3e009c5" target="_top" xlink:title=" ">
<polygon fill="white" stroke="#666666" points="656,-30 541,-30 541,0 656,0 656,-30"/>
<text text-anchor="start" x="549" y="-18" font-family="Arial" font-size="10.00">problem_setup.particle</text>
<text text-anchor="middle" x="598.5" y="-7" font-family="Arial" font-size="10.00">_locations</text>
</a>
</g>
</g>
<!-- Node1&#45;&gt;Node14 -->
<g id="edge33_Node000001_Node000014" class="edge">
<title>Node1&#45;&gt;Node14</title>
<g id="a_edge33_Node000001_Node000014"><a xlink:title=" ">
<path fill="none" stroke="#63b8ff" d="M699.26,-40.46C684.93,-36.8 669.97,-32.98 656.13,-29.45"/>
<polygon fill="#63b8ff" stroke="#63b8ff" points="698.51,-43.88 709.07,-42.96 700.24,-37.1 698.51,-43.88"/>
</a>
</g>
</g>
<!-- Node3 -->
<g id="Node000003" class="node">
<title>Node3</title>
<g id="a_Node000003"><a xlink:href="namespaceproblem__setup.html#a8ed53bd44082cee1b5381115a87451e2" target="_top" xlink:title=" ">
<polygon fill="white" stroke="#666666" points="505,-423 395,-423 395,-393 505,-393 505,-423"/>
<text text-anchor="start" x="403" y="-411" font-family="Arial" font-size="10.00">problem_setup.create</text>
<text text-anchor="middle" x="450" y="-400" font-family="Arial" font-size="10.00">_input_file</text>
</a>
</g>
</g>
<!-- Node2&#45;&gt;Node3 -->
<g id="edge2_Node000002_Node000003" class="edge">
<title>Node2&#45;&gt;Node3</title>
<g id="a_edge2_Node000002_Node000003"><a xlink:title=" ">
<path fill="none" stroke="#63b8ff" d="M530.83,-420.53C522.21,-419.18 513.47,-417.81 505.08,-416.49"/>
<polygon fill="#63b8ff" stroke="#63b8ff" points="530.44,-424.01 540.86,-422.11 531.52,-417.1 530.44,-424.01"/>
</a>
</g>
</g>
<!-- Node4 -->
<g id="Node000004" class="node">
<title>Node4</title>
<g id="a_Node000004"><a xlink:href="namespaceproblem__setup.html#a1e7145671d41dad41beed2d8c4f790e0" target="_top" xlink:title=" ">
<polygon fill="white" stroke="#666666" points="331,-676 203,-676 203,-646 331,-646 331,-676"/>
<text text-anchor="start" x="211" y="-664" font-family="Arial" font-size="10.00">problem_setup.generate</text>
<text text-anchor="middle" x="267" y="-653" font-family="Arial" font-size="10.00">_cuboid_wall_gmsh_input</text>
</a>
</g>
</g>
<!-- Node2&#45;&gt;Node4 -->
<g id="edge25_Node000002_Node000004" class="edge">
<title>Node2&#45;&gt;Node4</title>
<g id="a_edge25_Node000002_Node000004"><a xlink:title=" ">
<path fill="none" stroke="#63b8ff" d="M580.13,-454.12C562.57,-476.67 533.97,-511.24 505,-537 446.23,-589.27 430.52,-604.27 359,-637 350.23,-641.01 340.68,-644.45 331.16,-647.36"/>
<polygon fill="#63b8ff" stroke="#63b8ff" points="582.97,-456.17 586.3,-446.11 577.42,-451.9 582.97,-456.17"/>
</a>
</g>
</g>
<!-- Node6 -->
<g id="Node000006" class="node">
<title>Node6</title>
<g id="a_Node000006"><a xlink:href="namespaceproblem__setup.html#a16a9d169ecf04b1a867bec4dbf274c01" target="_top" xlink:title=" ">
<polygon fill="white" stroke="#666666" points="343.5,-610 190.5,-610 190.5,-580 343.5,-580 343.5,-610"/>
<text text-anchor="start" x="198.5" y="-598" font-family="Arial" font-size="10.00">problem_setup.generate</text>
<text text-anchor="middle" x="267" y="-587" font-family="Arial" font-size="10.00">_moving_rect_wall_gmsh_input</text>
</a>
</g>
</g>
<!-- Node2&#45;&gt;Node6 -->
<g id="edge26_Node000002_Node000006" class="edge">
<title>Node2&#45;&gt;Node6</title>
<g id="a_edge26_Node000002_Node000006"><a xlink:title=" ">
<path fill="none" stroke="#63b8ff" d="M568.55,-451.94C525.1,-482.42 439.52,-538.88 359,-571 350.8,-574.27 342.02,-577.23 333.25,-579.86"/>
<polygon fill="#63b8ff" stroke="#63b8ff" points="570.77,-454.66 576.91,-446.02 566.73,-448.94 570.77,-454.66"/>
</a>
</g>
</g>
<!-- Node7 -->
<g id="Node000007" class="node">
<title>Node7</title>
<g id="a_Node000007"><a xlink:href="namespaceproblem__setup.html#a4dd4df45d28c58aafac4fdf8aa8c554d" target="_top" xlink:title=" ">
<polygon fill="white" stroke="#666666" points="332.5,-544 201.5,-544 201.5,-514 332.5,-514 332.5,-544"/>
<text text-anchor="start" x="209.5" y="-532" font-family="Arial" font-size="10.00">problem_setup.generate</text>
<text text-anchor="middle" x="267" y="-521" font-family="Arial" font-size="10.00">_moving_wall_gmsh_input</text>
</a>
</g>
</g>
<!-- Node2&#45;&gt;Node7 -->
<g id="edge27_Node000002_Node000007" class="edge">
<title>Node2&#45;&gt;Node7</title>
<g id="a_edge27_Node000002_Node000007"><a xlink:title=" ">
<path fill="none" stroke="#63b8ff" d="M541.44,-449.14C493.24,-464.56 421.77,-486.99 359,-505 348.63,-507.97 337.57,-511.01 326.84,-513.88"/>
<polygon fill="#63b8ff" stroke="#63b8ff" points="542.61,-452.44 551.06,-446.06 540.47,-445.78 542.61,-452.44"/>
</a>
</g>
</g>
<!-- Node8 -->
<g id="Node000008" class="node">
<title>Node8</title>
<g id="a_Node000008"><a xlink:href="namespaceproblem__setup.html#a881d38782fcef7d73522d8b9bfcdb3da" target="_top" xlink:title=" ">
<polygon fill="white" stroke="#666666" points="327.5,-220 206.5,-220 206.5,-190 327.5,-190 327.5,-220"/>
<text text-anchor="start" x="214.5" y="-208" font-family="Arial" font-size="10.00">problem_setup.generate</text>
<text text-anchor="middle" x="267" y="-197" font-family="Arial" font-size="10.00">_particle_gmsh_input</text>
</a>
</g>
</g>
<!-- Node2&#45;&gt;Node8 -->
<g id="edge28_Node000002_Node000008" class="edge">
<title>Node2&#45;&gt;Node8</title>
<g id="a_edge28_Node000002_Node000008"><a xlink:title=" ">
<path fill="none" stroke="#63b8ff" d="M571.79,-409.43C529.15,-374.19 440.41,-303.07 359,-252 340.17,-240.19 318.03,-228.71 300.31,-220.05"/>
<polygon fill="#63b8ff" stroke="#63b8ff" points="569.76,-412.3 579.69,-415.99 574.23,-406.91 569.76,-412.3"/>
</a>
</g>
</g>
<!-- Node10 -->
<g id="Node000010" class="node">
<title>Node10</title>
<g id="a_Node000010"><a xlink:href="namespaceproblem__setup.html#ab77cd691be605123ba53961f21c8885a" target="_top" xlink:title=" ">
<polygon fill="white" stroke="#666666" points="139,-472 0,-472 0,-442 139,-442 139,-472"/>
<text text-anchor="start" x="8" y="-460" font-family="Arial" font-size="10.00">problem_setup.generate</text>
<text text-anchor="middle" x="69.5" y="-449" font-family="Arial" font-size="10.00">_rect_container_gmsh_input</text>
</a>
</g>
</g>
<!-- Node2&#45;&gt;Node10 -->
<g id="edge29_Node000002_Node000010" class="edge">
<title>Node2&#45;&gt;Node10</title>
<g id="a_edge29_Node000002_Node000010"><a xlink:title=" ">
<path fill="none" stroke="#63b8ff" d="M587.2,-455.45C572.37,-488.78 542.61,-549.21 505,-592 451.18,-653.22 436.25,-676.97 359,-703 281.5,-729.11 243.2,-748.13 175,-703 93.35,-648.97 75.3,-516.89 71.48,-472.12"/>
<polygon fill="#63b8ff" stroke="#63b8ff" points="590.52,-456.59 591.32,-446.03 584.11,-453.79 590.52,-456.59"/>
</a>
</g>
</g>
<!-- Node11 -->
<g id="Node000011" class="node">
<title>Node11</title>
<g id="a_Node000011"><a xlink:href="namespaceproblem__setup.html#a8e72848abab104858c2a4647079140ed" target="_top" xlink:title=" ">
<polygon fill="white" stroke="#666666" points="359,-477.5 175,-477.5 175,-436.5 359,-436.5 359,-477.5"/>
<text text-anchor="start" x="183" y="-465.5" font-family="Arial" font-size="10.00">problem_setup.generate</text>
<text text-anchor="start" x="183" y="-454.5" font-family="Arial" font-size="10.00">_rectangle_with_protrusion</text>
<text text-anchor="middle" x="267" y="-443.5" font-family="Arial" font-size="10.00">_and_opening_wall_gmsh_input_type3</text>
</a>
</g>
</g>
<!-- Node2&#45;&gt;Node11 -->
<g id="edge30_Node000002_Node000011" class="edge">
<title>Node2&#45;&gt;Node11</title>
<g id="a_edge30_Node000002_Node000011"><a xlink:title=" ">
<path fill="none" stroke="#63b8ff" d="M530.62,-436.28C481.3,-440.17 413.61,-445.51 359.31,-449.8"/>
<polygon fill="#63b8ff" stroke="#63b8ff" points="531.16,-439.75 540.86,-435.47 530.61,-432.77 531.16,-439.75"/>
</a>
</g>
</g>
<!-- Node12 -->
<g id="Node000012" class="node">
<title>Node12</title>
<g id="a_Node000012"><a xlink:href="namespaceproblem__setup.html#afa462577a9adf91f5e2cb59a1eb7da7e" target="_top" xlink:title=" ">
<polygon fill="white" stroke="#666666" points="327.5,-154 206.5,-154 206.5,-124 327.5,-124 327.5,-154"/>
<text text-anchor="start" x="214.5" y="-142" font-family="Arial" font-size="10.00">problem_setup.generate</text>
<text text-anchor="middle" x="267" y="-131" font-family="Arial" font-size="10.00">_wall_gmsh_input</text>
</a>
</g>
</g>
<!-- Node2&#45;&gt;Node12 -->
<g id="edge31_Node000002_Node000012" class="edge">
<title>Node2&#45;&gt;Node12</title>
<g id="a_edge31_Node000002_Node000012"><a xlink:title=" ">
<path fill="none" stroke="#63b8ff" d="M587.27,-406.4C572.69,-373.55 543.42,-314.86 505,-275 448.21,-216.08 360.35,-174.81 309.07,-154.16"/>
<polygon fill="#63b8ff" stroke="#63b8ff" points="584.12,-407.94 591.31,-415.72 590.54,-405.15 584.12,-407.94"/>
</a>
</g>
</g>
<!-- Node2&#45;&gt;Node13 -->
<g id="edge32_Node000002_Node000013" class="edge">
<title>Node2&#45;&gt;Node13</title>
<g id="a_edge32_Node000002_Node000013"><a xlink:title=" ">
<path fill="none" stroke="#63b8ff" d="M593.64,-405.78C585.28,-358.76 561.48,-256.7 505,-193 409.9,-85.75 221.46,-95.27 127.1,-108.12"/>
<polygon fill="#63b8ff" stroke="#63b8ff" points="590.2,-406.45 595.32,-415.73 597.1,-405.28 590.2,-406.45"/>
</a>
</g>
</g>
<!-- Node3&#45;&gt;Node4 -->
<g id="edge3_Node000003_Node000004" class="edge">
<title>Node3&#45;&gt;Node4</title>
<g id="a_edge3_Node000003_Node000004"><a xlink:title=" ">
<path fill="none" stroke="#63b8ff" d="M446.47,-433.19C440.37,-480.39 420.44,-582.34 359,-637 351.07,-644.06 341.29,-649.08 331.13,-652.64"/>
<polygon fill="#63b8ff" stroke="#63b8ff" points="449.96,-433.54 447.66,-423.2 443.01,-432.72 449.96,-433.54"/>
</a>
</g>
</g>
<!-- Node5 -->
<g id="Node000005" class="node">
<title>Node5</title>
<g id="a_Node000005"><a xlink:href="namespaceproblem__setup.html#a15d340f22fc959eb9bc3ebf12be02887" target="_top" xlink:title=" ">
<polygon fill="white" stroke="#666666" points="335,-362 199,-362 199,-332 335,-332 335,-362"/>
<text text-anchor="start" x="207" y="-350" font-family="Arial" font-size="10.00">problem_setup.generate</text>
<text text-anchor="middle" x="267" y="-339" font-family="Arial" font-size="10.00">_drum_particle_gmsh_input</text>
</a>
</g>
</g>
<!-- Node3&#45;&gt;Node5 -->
<g id="edge5_Node000003_Node000005" class="edge">
<title>Node3&#45;&gt;Node5</title>
<g id="a_edge5_Node000003_Node000005"><a xlink:title=" ">
<path fill="none" stroke="#63b8ff" d="M394.48,-389.63C368.29,-380.8 337.29,-370.35 312.54,-362.01"/>
<polygon fill="#63b8ff" stroke="#63b8ff" points="393.66,-393.04 404.26,-392.92 395.9,-386.41 393.66,-393.04"/>
</a>
</g>
</g>
<!-- Node3&#45;&gt;Node6 -->
<g id="edge7_Node000003_Node000006" class="edge">
<title>Node3&#45;&gt;Node6</title>
<g id="a_edge7_Node000003_Node000006"><a xlink:title=" ">
<path fill="none" stroke="#63b8ff" d="M442.09,-432.98C430.8,-469.02 404.95,-535.19 359,-571 354.36,-574.62 349.23,-577.69 343.83,-580.3"/>
<polygon fill="#63b8ff" stroke="#63b8ff" points="445.49,-433.83 445.01,-423.25 438.78,-431.82 445.49,-433.83"/>
</a>
</g>
</g>
<!-- Node3&#45;&gt;Node7 -->
<g id="edge9_Node000003_Node000007" class="edge">
<title>Node3&#45;&gt;Node7</title>
<g id="a_edge9_Node000003_Node000007"><a xlink:title=" ">
<path fill="none" stroke="#63b8ff" d="M433.22,-431.54C417.12,-453.75 390.13,-486.33 359,-505 350.87,-509.87 341.76,-513.77 332.52,-516.89"/>
<polygon fill="#63b8ff" stroke="#63b8ff" points="436.13,-433.49 439.04,-423.31 430.41,-429.45 436.13,-433.49"/>
</a>
</g>
</g>
<!-- Node3&#45;&gt;Node8 -->
<g id="edge11_Node000003_Node000008" class="edge">
<title>Node3&#45;&gt;Node8</title>
<g id="a_edge11_Node000003_Node000008"><a xlink:title=" ">
<path fill="none" stroke="#63b8ff" d="M437.14,-383.74C417.91,-345.14 380.01,-272.05 359,-252 344.72,-238.37 325.72,-227.73 308.77,-220.04"/>
<polygon fill="#63b8ff" stroke="#63b8ff" points="434.03,-385.35 441.6,-392.76 440.3,-382.24 434.03,-385.35"/>
</a>
</g>
</g>
<!-- Node9 -->
<g id="Node000009" class="node">
<title>Node9</title>
<g id="a_Node000009"><a xlink:href="namespaceproblem__setup.html#a021c61bf44d7c968582474d32605a1ad" target="_top" xlink:title=" ">
<polygon fill="white" stroke="#666666" points="130,-220 9,-220 9,-190 130,-190 130,-220"/>
<text text-anchor="start" x="17" y="-208" font-family="Arial" font-size="10.00">problem_setup.generate</text>
<text text-anchor="middle" x="69.5" y="-197" font-family="Arial" font-size="10.00">_wall_gmsh_input</text>
</a>
</g>
</g>
<!-- Node3&#45;&gt;Node9 -->
<g id="edge23_Node000003_Node000009" class="edge">
<title>Node3&#45;&gt;Node9</title>
<g id="a_edge23_Node000003_Node000009"><a xlink:title=" ">
<path fill="none" stroke="#63b8ff" d="M430.84,-385.07C414.19,-365.62 387.82,-338.49 359,-323 285.03,-283.24 251.47,-314.71 175,-280 141.04,-264.59 106.92,-237.37 87.3,-220.3"/>
<polygon fill="#63b8ff" stroke="#63b8ff" points="428.26,-387.44 437.35,-392.87 433.63,-382.95 428.26,-387.44"/>
</a>
</g>
</g>
<!-- Node3&#45;&gt;Node10 -->
<g id="edge14_Node000003_Node000010" class="edge">
<title>Node3&#45;&gt;Node10</title>
<g id="a_edge14_Node000003_Node000010"><a xlink:title=" ">
<path fill="none" stroke="#63b8ff" d="M384.71,-409.11C328.9,-410.92 246.12,-415.66 175,-428 155.8,-431.33 135.04,-436.71 117.13,-441.93"/>
<polygon fill="#63b8ff" stroke="#63b8ff" points="384.92,-412.6 394.81,-408.8 384.7,-405.61 384.92,-412.6"/>
</a>
</g>
</g>
<!-- Node3&#45;&gt;Node11 -->
<g id="edge16_Node000003_Node000011" class="edge">
<title>Node3&#45;&gt;Node11</title>
<g id="a_edge16_Node000003_Node000011"><a xlink:title=" ">
<path fill="none" stroke="#63b8ff" d="M384.78,-425.38C371.59,-428.96 357.58,-432.75 344.02,-436.42"/>
<polygon fill="#63b8ff" stroke="#63b8ff" points="385.96,-428.69 394.69,-422.7 384.13,-421.94 385.96,-428.69"/>
</a>
</g>
</g>
<!-- Node3&#45;&gt;Node12 -->
<g id="edge19_Node000003_Node000012" class="edge">
<title>Node3&#45;&gt;Node12</title>
<g id="a_edge19_Node000003_Node000012"><a xlink:title=" ">
<path fill="none" stroke="#63b8ff" d="M445.33,-383.03C437.41,-337.4 414.71,-239.86 359,-181 347.88,-169.25 332.82,-160.49 318.17,-154.1"/>
<polygon fill="#63b8ff" stroke="#63b8ff" points="441.88,-383.65 446.96,-392.95 448.79,-382.52 441.88,-383.65"/>
</a>
</g>
</g>
<!-- Node3&#45;&gt;Node13 -->
<g id="edge24_Node000003_Node000013" class="edge">
<title>Node3&#45;&gt;Node13</title>
<g id="a_edge24_Node000003_Node000013"><a xlink:title=" ">
<path fill="none" stroke="#63b8ff" d="M432.6,-384.62C406.73,-347.75 359.33,-280.21 359,-280 288.95,-235.33 242.4,-295.57 175,-247 147.89,-227.46 159.57,-207.33 139,-181 124.67,-162.67 104.79,-145.02 90.14,-133.1"/>
<polygon fill="#63b8ff" stroke="#63b8ff" points="429.76,-386.67 438.37,-392.85 435.49,-382.65 429.76,-386.67"/>
</a>
</g>
</g>
<!-- Node4&#45;&gt;Node4 -->
<g id="edge4_Node000004_Node000004" class="edge">
<title>Node4&#45;&gt;Node4</title>
<g id="a_edge4_Node000004_Node000004"><a xlink:title=" ">
<path fill="none" stroke="#63b8ff" d="M298.86,-686.6C294.5,-690.97 283.88,-694 267,-694 238.56,-694 227.9,-685.41 235.01,-676.28"/>
<polygon fill="#63b8ff" stroke="#63b8ff" points="302.36,-686.32 298.99,-676.28 295.36,-686.23 302.36,-686.32"/>
</a>
</g>
</g>
<!-- Node5&#45;&gt;Node5 -->
<g id="edge6_Node000005_Node000005" class="edge">
<title>Node5&#45;&gt;Node5</title>
<g id="a_edge6_Node000005_Node000005"><a xlink:title=" ">
<path fill="none" stroke="#63b8ff" d="M298.86,-372.6C294.5,-376.97 283.88,-380 267,-380 238.56,-380 227.9,-371.41 235.01,-362.28"/>
<polygon fill="#63b8ff" stroke="#63b8ff" points="302.36,-372.32 298.99,-362.28 295.36,-372.23 302.36,-372.32"/>
</a>
</g>
</g>
<!-- Node6&#45;&gt;Node6 -->
<g id="edge8_Node000006_Node000006" class="edge">
<title>Node6&#45;&gt;Node6</title>
<g id="a_edge8_Node000006_Node000006"><a xlink:title=" ">
<path fill="none" stroke="#63b8ff" d="M298.86,-620.6C294.5,-624.97 283.88,-628 267,-628 238.56,-628 227.9,-619.41 235.01,-610.28"/>
<polygon fill="#63b8ff" stroke="#63b8ff" points="302.36,-620.32 298.99,-610.28 295.36,-620.23 302.36,-620.32"/>
</a>
</g>
</g>
<!-- Node7&#45;&gt;Node7 -->
<g id="edge10_Node000007_Node000007" class="edge">
<title>Node7&#45;&gt;Node7</title>
<g id="a_edge10_Node000007_Node000007"><a xlink:title=" ">
<path fill="none" stroke="#63b8ff" d="M298.86,-554.6C294.5,-558.97 283.88,-562 267,-562 238.56,-562 227.9,-553.41 235.01,-544.28"/>
<polygon fill="#63b8ff" stroke="#63b8ff" points="302.36,-554.32 298.99,-544.28 295.36,-554.23 302.36,-554.32"/>
</a>
</g>
</g>
<!-- Node8&#45;&gt;Node8 -->
<g id="edge12_Node000008_Node000008" class="edge">
<title>Node8&#45;&gt;Node8</title>
<g id="a_edge12_Node000008_Node000008"><a xlink:title=" ">
<path fill="none" stroke="#63b8ff" d="M298.86,-230.6C294.5,-234.97 283.88,-238 267,-238 238.56,-238 227.9,-229.41 235.01,-220.28"/>
<polygon fill="#63b8ff" stroke="#63b8ff" points="302.36,-230.32 298.99,-220.28 295.36,-230.23 302.36,-230.32"/>
</a>
</g>
</g>
<!-- Node8&#45;&gt;Node9 -->
<g id="edge13_Node000008_Node000009" class="edge">
<title>Node8&#45;&gt;Node9</title>
<g id="a_edge13_Node000008_Node000009"><a xlink:title=" ">
<path fill="none" stroke="#63b8ff" d="M196.19,-205C174.6,-205 151.03,-205 130.19,-205"/>
<polygon fill="#63b8ff" stroke="#63b8ff" points="196.28,-208.5 206.28,-205 196.28,-201.5 196.28,-208.5"/>
</a>
</g>
</g>
<!-- Node10&#45;&gt;Node10 -->
<g id="edge15_Node000010_Node000010" class="edge">
<title>Node10&#45;&gt;Node10</title>
<g id="a_edge15_Node000010_Node000010"><a xlink:title=" ">
<path fill="none" stroke="#63b8ff" d="M103.81,-482.6C99.12,-486.97 87.68,-490 69.5,-490 38.88,-490 27.39,-481.41 35.05,-472.28"/>
<polygon fill="#63b8ff" stroke="#63b8ff" points="107.31,-482.32 103.95,-472.28 100.31,-482.22 107.31,-482.32"/>
</a>
</g>
</g>
<!-- Node11&#45;&gt;Node10 -->
<g id="edge17_Node000011_Node000010" class="edge">
<title>Node11&#45;&gt;Node10</title>
<g id="a_edge17_Node000011_Node000010"><a xlink:title=" ">
<path fill="none" stroke="#63b8ff" d="M164.65,-457C155.98,-457 147.35,-457 139.03,-457"/>
<polygon fill="#63b8ff" stroke="#63b8ff" points="164.83,-460.5 174.83,-457 164.83,-453.5 164.83,-460.5"/>
</a>
</g>
</g>
<!-- Node11&#45;&gt;Node11 -->
<g id="edge18_Node000011_Node000011" class="edge">
<title>Node11&#45;&gt;Node11</title>
<g id="a_edge18_Node000011_Node000011"><a xlink:title=" ">
<path fill="none" stroke="#63b8ff" d="M298.31,-487.46C293.66,-492.24 283.22,-495.5 267,-495.5 241.05,-495.5 229.9,-487.15 233.55,-477.6"/>
<polygon fill="#63b8ff" stroke="#63b8ff" points="301.75,-488.11 300.45,-477.6 294.91,-486.63 301.75,-488.11"/>
</a>
</g>
</g>
<!-- Node12&#45;&gt;Node9 -->
<g id="edge21_Node000012_Node000009" class="edge">
<title>Node12&#45;&gt;Node9</title>
<g id="a_edge21_Node000012_Node000009"><a xlink:title=" ">
<path fill="none" stroke="#63b8ff" d="M211.55,-157.38C181.17,-167.64 143.79,-180.26 115.14,-189.93"/>
<polygon fill="#63b8ff" stroke="#63b8ff" points="212.79,-160.66 221.15,-154.14 210.55,-154.02 212.79,-160.66"/>
</a>
</g>
</g>
<!-- Node12&#45;&gt;Node12 -->
<g id="edge20_Node000012_Node000012" class="edge">
<title>Node12&#45;&gt;Node12</title>
<g id="a_edge20_Node000012_Node000012"><a xlink:title=" ">
<path fill="none" stroke="#63b8ff" d="M298.86,-164.6C294.5,-168.97 283.88,-172 267,-172 238.56,-172 227.9,-163.41 235.01,-154.28"/>
<polygon fill="#63b8ff" stroke="#63b8ff" points="302.36,-164.32 298.99,-154.28 295.36,-164.23 302.36,-164.32"/>
</a>
</g>
</g>
<!-- Node12&#45;&gt;Node13 -->
<g id="edge22_Node000012_Node000013" class="edge">
<title>Node12&#45;&gt;Node13</title>
<g id="a_edge22_Node000012_Node000013"><a xlink:title=" ">
<path fill="none" stroke="#63b8ff" d="M196.07,-131.49C173.47,-129.06 148.7,-126.4 127.18,-124.09"/>
<polygon fill="#63b8ff" stroke="#63b8ff" points="195.96,-135 206.28,-132.59 196.71,-128.04 195.96,-135"/>
</a>
</g>
</g>
</g>
</svg>
