<?xml version="1.0" encoding="UTF-8" standalone="no"?>
<!DOCTYPE svg PUBLIC "-//W3C//DTD SVG 1.1//EN"
 "http://www.w3.org/Graphics/SVG/1.1/DTD/svg11.dtd">
<!-- Generated by graphviz version 2.43.0 (0)
 -->
<!-- Title: util::gaussian Pages: 1 -->
<svg width="234pt" height="64pt"
 viewBox="0.00 0.00 234.00 64.00" xmlns="http://www.w3.org/2000/svg" xmlns:xlink="http://www.w3.org/1999/xlink">
<g id="graph0" class="graph" transform="scale(1 1) rotate(0) translate(4 60)">
<title>util::gaussian</title>
<!-- Node1 -->
<g id="Node000001" class="node">
<title>Node1</title>
<g id="a_Node000001"><a xlink:title="Compute gaussian function in 1&#45;d.">
<polygon fill="#999999" stroke="#666666" points="226,-37 152,-37 152,-18 226,-18 226,-37"/>
<text text-anchor="middle" x="189" y="-25" font-family="Arial" font-size="10.00">util::gaussian</text>
</a>
</g>
</g>
<!-- Node2 -->
<g id="Node000002" class="node">
<title>Node2</title>
<g id="a_Node000002"><a xlink:href="namespaceutil.html#a58e32fb4508d62369fbccfcc89c425ef" target="_top" xlink:title="Compute sum of two gaussian function in 2&#45;d.">
<polygon fill="white" stroke="#666666" points="116,-56 0,-56 0,-37 116,-37 116,-56"/>
<text text-anchor="middle" x="58" y="-44" font-family="Arial" font-size="10.00">util::doubleGaussian2d</text>
</a>
</g>
</g>
<!-- Node1&#45;&gt;Node2 -->
<g id="edge1_Node000001_Node000002" class="edge">
<title>Node1&#45;&gt;Node2</title>
<g id="a_edge1_Node000001_Node000002"><a xlink:title=" ">
<path fill="none" stroke="#63b8ff" d="M141.58,-34.34C133.36,-35.55 124.71,-36.82 116.24,-38.07"/>
<polygon fill="#63b8ff" stroke="#63b8ff" points="142.34,-37.76 151.72,-32.84 141.32,-30.84 142.34,-37.76"/>
</a>
</g>
</g>
<!-- Node3 -->
<g id="Node000003" class="node">
<title>Node3</title>
<g id="a_Node000003"><a xlink:href="namespaceutil.html#a88b51abc3e98d9abcee326e275c4bd22" target="_top" xlink:title="Compute gaussian function in 2&#45;d.">
<polygon fill="white" stroke="#666666" points="100.5,-19 15.5,-19 15.5,0 100.5,0 100.5,-19"/>
<text text-anchor="middle" x="58" y="-7" font-family="Arial" font-size="10.00">util::gaussian2d</text>
</a>
</g>
</g>
<!-- Node1&#45;&gt;Node3 -->
<g id="edge2_Node000001_Node000003" class="edge">
<title>Node1&#45;&gt;Node3</title>
<g id="a_edge2_Node000001_Node000003"><a xlink:title=" ">
<path fill="none" stroke="#63b8ff" d="M141.79,-21.05C128.45,-19.19 113.98,-17.17 100.92,-15.35"/>
<polygon fill="#63b8ff" stroke="#63b8ff" points="141.34,-24.52 151.72,-22.44 142.3,-17.59 141.34,-24.52"/>
</a>
</g>
</g>
</g>
</svg>
