<?xml version="1.0" encoding="UTF-8" standalone="no"?>
<!DOCTYPE svg PUBLIC "-//W3C//DTD SVG 1.1//EN"
 "http://www.w3.org/Graphics/SVG/1.1/DTD/svg11.dtd">
<!-- Generated by graphviz version 2.43.0 (0)
 -->
<!-- Title: problem_setup.get_ref_triangle_points Pages: 1 -->
<svg width="848pt" height="819pt"
 viewBox="0.00 0.00 848.00 819.10" xmlns="http://www.w3.org/2000/svg" xmlns:xlink="http://www.w3.org/1999/xlink">
<g id="graph0" class="graph" transform="scale(1 1) rotate(0) translate(4 815.1)">
<title>problem_setup.get_ref_triangle_points</title>
<!-- Node1 -->
<g id="Node000001" class="node">
<title>Node1</title>
<g id="a_Node000001"><a xlink:title=" ">
<polygon fill="#999999" stroke="#666666" points="840,-617 727,-617 727,-587 840,-587 840,-617"/>
<text text-anchor="start" x="735" y="-605" font-family="Arial" font-size="10.00">problem_setup.get_ref</text>
<text text-anchor="middle" x="783.5" y="-594" font-family="Arial" font-size="10.00">_triangle_points</text>
</a>
</g>
</g>
<!-- Node2 -->
<g id="Node000002" class="node">
<title>Node2</title>
<g id="a_Node000002"><a xlink:href="namespaceproblem__setup.html#af9b7fe599289ca784b2fb5033b45f555" target="_top" xlink:title=" ">
<polygon fill="white" stroke="#666666" points="691,-768 560,-768 560,-716 691,-716 691,-768"/>
<text text-anchor="start" x="568" y="-756" font-family="Arial" font-size="10.00">problem_setup.does</text>
<text text-anchor="start" x="568" y="-745" font-family="Arial" font-size="10.00">_intersect_with_rectangle</text>
<text text-anchor="start" x="568" y="-734" font-family="Arial" font-size="10.00">_wall_with_protrusion_and</text>
<text text-anchor="middle" x="625.5" y="-723" font-family="Arial" font-size="10.00">_opening</text>
</a>
</g>
</g>
<!-- Node1&#45;&gt;Node2 -->
<g id="edge1_Node000001_Node000002" class="edge">
<title>Node1&#45;&gt;Node2</title>
<g id="a_edge1_Node000001_Node000002"><a xlink:title=" ">
<path fill="none" stroke="#63b8ff" d="M764.54,-625.02C747.14,-646.45 719.3,-678.53 691,-702 685.12,-706.88 678.59,-711.6 672.01,-715.99"/>
<polygon fill="#63b8ff" stroke="#63b8ff" points="767.37,-627.09 770.9,-617.09 761.91,-622.71 767.37,-627.09"/>
</a>
</g>
</g>
<!-- Node3 -->
<g id="Node000003" class="node">
<title>Node3</title>
<g id="a_Node000003"><a xlink:href="namespaceproblem__setup.html#a0f7d40f23d1b185984a76d97e00f706b" target="_top" xlink:title=" ">
<polygon fill="white" stroke="#666666" points="524,-751.5 395,-751.5 395,-732.5 524,-732.5 524,-751.5"/>
<text text-anchor="middle" x="459.5" y="-739.5" font-family="Arial" font-size="10.00">problem_setup.get_center</text>
</a>
</g>
</g>
<!-- Node1&#45;&gt;Node3 -->
<g id="edge33_Node000001_Node000003" class="edge">
<title>Node1&#45;&gt;Node3</title>
<g id="a_edge33_Node000001_Node000003"><a xlink:title=" ">
<path fill="none" stroke="#63b8ff" d="M779.15,-627.05C771.87,-670.21 750.22,-757.54 691,-795 618.65,-840.77 511.25,-776.83 473.89,-751.52"/>
<polygon fill="#63b8ff" stroke="#63b8ff" points="782.62,-627.51 780.7,-617.09 775.7,-626.43 782.62,-627.51"/>
</a>
</g>
</g>
<!-- Node5 -->
<g id="Node000005" class="node">
<title>Node5</title>
<g id="a_Node000005"><a xlink:href="namespaceproblem__setup.html#a1fec8dd536ff2dc0499259901333ee04" target="_top" xlink:title=" ">
<polygon fill="white" stroke="#666666" points="324.5,-714 209.5,-714 209.5,-684 324.5,-684 324.5,-714"/>
<text text-anchor="start" x="217.5" y="-702" font-family="Arial" font-size="10.00">problem_setup.particle</text>
<text text-anchor="middle" x="267" y="-691" font-family="Arial" font-size="10.00">_locations_old</text>
</a>
</g>
</g>
<!-- Node1&#45;&gt;Node5 -->
<g id="edge36_Node000001_Node000005" class="edge">
<title>Node1&#45;&gt;Node5</title>
<g id="a_edge36_Node000001_Node000005"><a xlink:title=" ">
<path fill="none" stroke="#63b8ff" d="M720.68,-619.81C668.6,-634.26 591.94,-654.26 524,-667 455.98,-679.75 376.82,-688.77 324.74,-693.91"/>
<polygon fill="#63b8ff" stroke="#63b8ff" points="721.74,-623.14 730.43,-617.08 719.86,-616.4 721.74,-623.14"/>
</a>
</g>
</g>
<!-- Node6 -->
<g id="Node000006" class="node">
<title>Node6</title>
<g id="a_Node000006"><a xlink:href="namespaceproblem__setup.html#a87e250dde89814728e8bbb3257fa3d67" target="_top" xlink:title=" ">
<polygon fill="white" stroke="#666666" points="686.5,-532 564.5,-532 564.5,-502 686.5,-502 686.5,-532"/>
<text text-anchor="start" x="572.5" y="-520" font-family="Arial" font-size="10.00">problem_setup.generate</text>
<text text-anchor="middle" x="625.5" y="-509" font-family="Arial" font-size="10.00">_tri_particle_gmsh_input</text>
</a>
</g>
</g>
<!-- Node1&#45;&gt;Node6 -->
<g id="edge7_Node000001_Node000006" class="edge">
<title>Node1&#45;&gt;Node6</title>
<g id="a_edge7_Node000001_Node000006"><a xlink:title=" ">
<path fill="none" stroke="#63b8ff" d="M745.89,-582.05C717.87,-566.78 679.82,-546.05 654.28,-532.14"/>
<polygon fill="#63b8ff" stroke="#63b8ff" points="744.51,-585.29 754.97,-587 747.86,-579.14 744.51,-585.29"/>
</a>
</g>
</g>
<!-- Node15 -->
<g id="Node000015" class="node">
<title>Node15</title>
<g id="a_Node000015"><a xlink:href="namespaceproblem__setup.html#a38db49e0a85dd22e69cae23f7f92435f" target="_top" xlink:title=" ">
<polygon fill="white" stroke="#666666" points="127,-133 12,-133 12,-103 127,-103 127,-133"/>
<text text-anchor="start" x="20" y="-121" font-family="Arial" font-size="10.00">problem_setup.particle</text>
<text text-anchor="middle" x="69.5" y="-110" font-family="Arial" font-size="10.00">_locations</text>
</a>
</g>
</g>
<!-- Node1&#45;&gt;Node15 -->
<g id="edge35_Node000001_Node000015" class="edge">
<title>Node1&#45;&gt;Node15</title>
<g id="a_edge35_Node000001_Node000015"><a xlink:title=" ">
<path fill="none" stroke="#63b8ff" d="M777.9,-576.77C761.3,-493.8 696.06,-228.38 524,-118 396.27,-36.06 203.79,-77.51 116.48,-102.99"/>
<polygon fill="#63b8ff" stroke="#63b8ff" points="774.47,-577.45 779.81,-586.6 781.34,-576.12 774.47,-577.45"/>
</a>
</g>
</g>
<!-- Node16 -->
<g id="Node000016" class="node">
<title>Node16</title>
<g id="a_Node000016"><a xlink:href="namespaceproblem__setup.html#a93f32e78adb37a28a0d66623c3e009c5" target="_top" xlink:title=" ">
<polygon fill="white" stroke="#666666" points="683,-30 568,-30 568,0 683,0 683,-30"/>
<text text-anchor="start" x="576" y="-18" font-family="Arial" font-size="10.00">problem_setup.particle</text>
<text text-anchor="middle" x="625.5" y="-7" font-family="Arial" font-size="10.00">_locations</text>
</a>
</g>
</g>
<!-- Node1&#45;&gt;Node16 -->
<g id="edge34_Node000001_Node000016" class="edge">
<title>Node1&#45;&gt;Node16</title>
<g id="a_edge34_Node000001_Node000016"><a xlink:title=" ">
<path fill="none" stroke="#63b8ff" d="M781.47,-576.79C777.04,-479.47 756.75,-129.53 691,-44 686.66,-38.35 680.98,-33.78 674.78,-30.08"/>
<polygon fill="#63b8ff" stroke="#63b8ff" points="777.98,-577.05 781.91,-586.88 784.97,-576.74 777.98,-577.05"/>
</a>
</g>
</g>
<!-- Node2&#45;&gt;Node2 -->
<g id="edge2_Node000002_Node000002" class="edge">
<title>Node2&#45;&gt;Node2</title>
<g id="a_edge2_Node000002_Node000002"><a xlink:title=" ">
<path fill="none" stroke="#63b8ff" d="M651.91,-777.76C647.55,-782.7 638.75,-786 625.5,-786 604.82,-786 594.97,-777.96 595.94,-768.2"/>
<polygon fill="#63b8ff" stroke="#63b8ff" points="655.26,-778.79 655.06,-768.2 648.61,-776.6 655.26,-778.79"/>
</a>
</g>
</g>
<!-- Node2&#45;&gt;Node3 -->
<g id="edge3_Node000002_Node000003" class="edge">
<title>Node2&#45;&gt;Node3</title>
<g id="a_edge3_Node000002_Node000003"><a xlink:title=" ">
<path fill="none" stroke="#63b8ff" d="M549.41,-742C540.93,-742 532.35,-742 524.04,-742"/>
<polygon fill="#63b8ff" stroke="#63b8ff" points="549.68,-745.5 559.68,-742 549.68,-738.5 549.68,-745.5"/>
</a>
</g>
</g>
<!-- Node4 -->
<g id="Node000004" class="node">
<title>Node4</title>
<g id="a_Node000004"><a xlink:href="namespaceproblem__setup.html#ab77cd691be605123ba53961f21c8885a" target="_top" xlink:title=" ">
<polygon fill="white" stroke="#666666" points="139,-637 0,-637 0,-607 139,-607 139,-637"/>
<text text-anchor="start" x="8" y="-625" font-family="Arial" font-size="10.00">problem_setup.generate</text>
<text text-anchor="middle" x="69.5" y="-614" font-family="Arial" font-size="10.00">_rect_container_gmsh_input</text>
</a>
</g>
</g>
<!-- Node3&#45;&gt;Node4 -->
<g id="edge4_Node000003_Node000004" class="edge">
<title>Node3&#45;&gt;Node4</title>
<g id="a_edge4_Node000003_Node000004"><a xlink:title=" ">
<path fill="none" stroke="#63b8ff" d="M384.69,-750.56C325.45,-754.32 241.49,-752.51 175,-723 132.57,-704.17 97.15,-660.23 80.58,-637.01"/>
<polygon fill="#63b8ff" stroke="#63b8ff" points="384.99,-754.05 394.72,-749.86 384.5,-747.07 384.99,-754.05"/>
</a>
</g>
</g>
<!-- Node3&#45;&gt;Node5 -->
<g id="edge6_Node000003_Node000005" class="edge">
<title>Node3&#45;&gt;Node5</title>
<g id="a_edge6_Node000003_Node000005"><a xlink:title=" ">
<path fill="none" stroke="#63b8ff" d="M406.42,-730.24C381.07,-724.52 350.54,-717.63 324.62,-711.78"/>
<polygon fill="#63b8ff" stroke="#63b8ff" points="405.7,-733.67 416.22,-732.46 407.24,-726.84 405.7,-733.67"/>
</a>
</g>
</g>
<!-- Node4&#45;&gt;Node4 -->
<g id="edge5_Node000004_Node000004" class="edge">
<title>Node4&#45;&gt;Node4</title>
<g id="a_edge5_Node000004_Node000004"><a xlink:title=" ">
<path fill="none" stroke="#63b8ff" d="M103.81,-647.6C99.12,-651.97 87.68,-655 69.5,-655 38.88,-655 27.39,-646.41 35.05,-637.28"/>
<polygon fill="#63b8ff" stroke="#63b8ff" points="107.31,-647.32 103.95,-637.28 100.31,-647.22 107.31,-647.32"/>
</a>
</g>
</g>
<!-- Node6&#45;&gt;Node4 -->
<g id="edge29_Node000006_Node000004" class="edge">
<title>Node6&#45;&gt;Node4</title>
<g id="a_edge29_Node000006_Node000004"><a xlink:title=" ">
<path fill="none" stroke="#63b8ff" d="M591.67,-537.52C543.05,-566.55 448.04,-618.18 359,-637 285.03,-652.63 198.13,-644.65 139.19,-635.45"/>
<polygon fill="#63b8ff" stroke="#63b8ff" points="593.73,-540.36 600.48,-532.2 590.11,-534.37 593.73,-540.36"/>
</a>
</g>
</g>
<!-- Node7 -->
<g id="Node000007" class="node">
<title>Node7</title>
<g id="a_Node000007"><a xlink:href="namespaceproblem__setup.html#a8ed53bd44082cee1b5381115a87451e2" target="_top" xlink:title=" ">
<polygon fill="white" stroke="#666666" points="514.5,-420 404.5,-420 404.5,-390 514.5,-390 514.5,-420"/>
<text text-anchor="start" x="412.5" y="-408" font-family="Arial" font-size="10.00">problem_setup.create</text>
<text text-anchor="middle" x="459.5" y="-397" font-family="Arial" font-size="10.00">_input_file</text>
</a>
</g>
</g>
<!-- Node6&#45;&gt;Node7 -->
<g id="edge8_Node000006_Node000007" class="edge">
<title>Node6&#45;&gt;Node7</title>
<g id="a_edge8_Node000006_Node000007"><a xlink:title=" ">
<path fill="none" stroke="#63b8ff" d="M593.75,-496C561.37,-473.88 511.17,-439.61 482.53,-420.04"/>
<polygon fill="#63b8ff" stroke="#63b8ff" points="592.15,-499.15 602.38,-501.9 596.1,-493.37 592.15,-499.15"/>
</a>
</g>
</g>
<!-- Node9 -->
<g id="Node000009" class="node">
<title>Node9</title>
<g id="a_Node000009"><a xlink:href="namespaceproblem__setup.html#a16a9d169ecf04b1a867bec4dbf274c01" target="_top" xlink:title=" ">
<polygon fill="white" stroke="#666666" points="343.5,-532 190.5,-532 190.5,-502 343.5,-502 343.5,-532"/>
<text text-anchor="start" x="198.5" y="-520" font-family="Arial" font-size="10.00">problem_setup.generate</text>
<text text-anchor="middle" x="267" y="-509" font-family="Arial" font-size="10.00">_moving_rect_wall_gmsh_input</text>
</a>
</g>
</g>
<!-- Node6&#45;&gt;Node9 -->
<g id="edge28_Node000006_Node000009" class="edge">
<title>Node6&#45;&gt;Node9</title>
<g id="a_edge28_Node000006_Node000009"><a xlink:title=" ">
<path fill="none" stroke="#63b8ff" d="M554.16,-517C493.39,-517 405.78,-517 343.53,-517"/>
<polygon fill="#63b8ff" stroke="#63b8ff" points="554.43,-520.5 564.43,-517 554.43,-513.5 554.43,-520.5"/>
</a>
</g>
</g>
<!-- Node13 -->
<g id="Node000013" class="node">
<title>Node13</title>
<g id="a_Node000013"><a xlink:href="namespaceproblem__setup.html#a8e72848abab104858c2a4647079140ed" target="_top" xlink:title=" ">
<polygon fill="white" stroke="#666666" points="359,-609.5 175,-609.5 175,-568.5 359,-568.5 359,-609.5"/>
<text text-anchor="start" x="183" y="-597.5" font-family="Arial" font-size="10.00">problem_setup.generate</text>
<text text-anchor="start" x="183" y="-586.5" font-family="Arial" font-size="10.00">_rectangle_with_protrusion</text>
<text text-anchor="middle" x="267" y="-575.5" font-family="Arial" font-size="10.00">_and_opening_wall_gmsh_input_type3</text>
</a>
</g>
</g>
<!-- Node6&#45;&gt;Node13 -->
<g id="edge30_Node000006_Node000013" class="edge">
<title>Node6&#45;&gt;Node13</title>
<g id="a_edge30_Node000006_Node000013"><a xlink:title=" ">
<path fill="none" stroke="#63b8ff" d="M554.62,-531.11C498.75,-542.4 419.98,-558.31 359.15,-570.59"/>
<polygon fill="#63b8ff" stroke="#63b8ff" points="555.32,-534.54 564.43,-529.13 553.93,-527.68 555.32,-534.54"/>
</a>
</g>
</g>
<!-- Node14 -->
<g id="Node000014" class="node">
<title>Node14</title>
<g id="a_Node000014"><a xlink:href="namespaceproblem__setup.html#afa462577a9adf91f5e2cb59a1eb7da7e" target="_top" xlink:title=" ">
<polygon fill="white" stroke="#666666" points="327.5,-154 206.5,-154 206.5,-124 327.5,-124 327.5,-154"/>
<text text-anchor="start" x="214.5" y="-142" font-family="Arial" font-size="10.00">problem_setup.generate</text>
<text text-anchor="middle" x="267" y="-131" font-family="Arial" font-size="10.00">_wall_gmsh_input</text>
</a>
</g>
</g>
<!-- Node6&#45;&gt;Node14 -->
<g id="edge31_Node000006_Node000014" class="edge">
<title>Node6&#45;&gt;Node14</title>
<g id="a_edge31_Node000006_Node000014"><a xlink:title=" ">
<path fill="none" stroke="#63b8ff" d="M611.73,-492.89C578.23,-431.76 481.88,-269.09 359,-177 346.4,-167.55 331.1,-159.99 316.67,-154.17"/>
<polygon fill="#63b8ff" stroke="#63b8ff" points="608.72,-494.67 616.56,-501.8 614.87,-491.34 608.72,-494.67"/>
</a>
</g>
</g>
<!-- Node6&#45;&gt;Node15 -->
<g id="edge32_Node000006_Node000015" class="edge">
<title>Node6&#45;&gt;Node15</title>
<g id="a_edge32_Node000006_Node000015"><a xlink:title=" ">
<path fill="none" stroke="#63b8ff" d="M622.25,-491.69C616.06,-435.36 594.26,-297.78 524,-211 422.77,-85.97 335.86,-112.69 175,-115 159.48,-115.22 142.68,-115.63 127.17,-116.08"/>
<polygon fill="#63b8ff" stroke="#63b8ff" points="618.79,-492.24 623.29,-501.84 625.75,-491.53 618.79,-492.24"/>
</a>
</g>
</g>
<!-- Node7&#45;&gt;Node4 -->
<g id="edge18_Node000007_Node000004" class="edge">
<title>Node7&#45;&gt;Node4</title>
<g id="a_edge18_Node000007_Node000004"><a xlink:title=" ">
<path fill="none" stroke="#63b8ff" d="M409.35,-423.57C393.37,-429.4 375.51,-435.69 359,-441 278.1,-467.03 245.96,-446.24 175,-493 129.27,-523.13 93.86,-579.6 78.64,-606.71"/>
<polygon fill="#63b8ff" stroke="#63b8ff" points="410.84,-426.75 419.02,-420.02 408.43,-420.18 410.84,-426.75"/>
</a>
</g>
</g>
<!-- Node8 -->
<g id="Node000008" class="node">
<title>Node8</title>
<g id="a_Node000008"><a xlink:href="namespaceproblem__setup.html#a15d340f22fc959eb9bc3ebf12be02887" target="_top" xlink:title=" ">
<polygon fill="white" stroke="#666666" points="335,-258 199,-258 199,-228 335,-228 335,-258"/>
<text text-anchor="start" x="207" y="-246" font-family="Arial" font-size="10.00">problem_setup.generate</text>
<text text-anchor="middle" x="267" y="-235" font-family="Arial" font-size="10.00">_drum_particle_gmsh_input</text>
</a>
</g>
</g>
<!-- Node7&#45;&gt;Node8 -->
<g id="edge9_Node000007_Node000008" class="edge">
<title>Node7&#45;&gt;Node8</title>
<g id="a_edge9_Node000007_Node000008"><a xlink:title=" ">
<path fill="none" stroke="#63b8ff" d="M443.58,-381.27C426.02,-354.91 394.7,-312.45 359,-285 344.65,-273.97 326.95,-264.97 310.97,-258.17"/>
<polygon fill="#63b8ff" stroke="#63b8ff" points="440.8,-383.42 449.2,-389.87 446.66,-379.59 440.8,-383.42"/>
</a>
</g>
</g>
<!-- Node7&#45;&gt;Node9 -->
<g id="edge11_Node000007_Node000009" class="edge">
<title>Node7&#45;&gt;Node9</title>
<g id="a_edge11_Node000007_Node000009"><a xlink:title=" ">
<path fill="none" stroke="#63b8ff" d="M436.78,-427.45C417.77,-445.96 388.64,-471.74 359,-488 348.97,-493.5 337.74,-498.15 326.67,-502"/>
<polygon fill="#63b8ff" stroke="#63b8ff" points="439.39,-429.78 444.03,-420.25 434.47,-424.81 439.39,-429.78"/>
</a>
</g>
</g>
<!-- Node10 -->
<g id="Node000010" class="node">
<title>Node10</title>
<g id="a_Node000010"><a xlink:href="namespaceproblem__setup.html#a4dd4df45d28c58aafac4fdf8aa8c554d" target="_top" xlink:title=" ">
<polygon fill="white" stroke="#666666" points="332.5,-390 201.5,-390 201.5,-360 332.5,-360 332.5,-390"/>
<text text-anchor="start" x="209.5" y="-378" font-family="Arial" font-size="10.00">problem_setup.generate</text>
<text text-anchor="middle" x="267" y="-367" font-family="Arial" font-size="10.00">_moving_wall_gmsh_input</text>
</a>
</g>
</g>
<!-- Node7&#45;&gt;Node10 -->
<g id="edge13_Node000007_Node000010" class="edge">
<title>Node7&#45;&gt;Node10</title>
<g id="a_edge13_Node000007_Node000010"><a xlink:title=" ">
<path fill="none" stroke="#63b8ff" d="M394.52,-394.92C374.61,-391.79 352.65,-388.33 332.69,-385.19"/>
<polygon fill="#63b8ff" stroke="#63b8ff" points="394,-398.39 404.42,-396.48 395.09,-391.47 394,-398.39"/>
</a>
</g>
</g>
<!-- Node11 -->
<g id="Node000011" class="node">
<title>Node11</title>
<g id="a_Node000011"><a xlink:href="namespaceproblem__setup.html#a881d38782fcef7d73522d8b9bfcdb3da" target="_top" xlink:title=" ">
<polygon fill="white" stroke="#666666" points="327.5,-324 206.5,-324 206.5,-294 327.5,-294 327.5,-324"/>
<text text-anchor="start" x="214.5" y="-312" font-family="Arial" font-size="10.00">problem_setup.generate</text>
<text text-anchor="middle" x="267" y="-301" font-family="Arial" font-size="10.00">_particle_gmsh_input</text>
</a>
</g>
</g>
<!-- Node7&#45;&gt;Node11 -->
<g id="edge15_Node000007_Node000011" class="edge">
<title>Node7&#45;&gt;Node11</title>
<g id="a_edge15_Node000007_Node000011"><a xlink:title=" ">
<path fill="none" stroke="#63b8ff" d="M422.89,-384.95C404.05,-374.52 380.44,-361.75 359,-351 340.34,-341.64 319.17,-331.83 301.96,-324.04"/>
<polygon fill="#63b8ff" stroke="#63b8ff" points="421.28,-388.06 431.72,-389.85 424.68,-381.94 421.28,-388.06"/>
</a>
</g>
</g>
<!-- Node12 -->
<g id="Node000012" class="node">
<title>Node12</title>
<g id="a_Node000012"><a xlink:href="namespaceproblem__setup.html#a021c61bf44d7c968582474d32605a1ad" target="_top" xlink:title=" ">
<polygon fill="white" stroke="#666666" points="130,-324 9,-324 9,-294 130,-294 130,-324"/>
<text text-anchor="start" x="17" y="-312" font-family="Arial" font-size="10.00">problem_setup.generate</text>
<text text-anchor="middle" x="69.5" y="-301" font-family="Arial" font-size="10.00">_wall_gmsh_input</text>
</a>
</g>
</g>
<!-- Node7&#45;&gt;Node12 -->
<g id="edge26_Node000007_Node000012" class="edge">
<title>Node7&#45;&gt;Node12</title>
<g id="a_edge26_Node000007_Node000012"><a xlink:title=" ">
<path fill="none" stroke="#63b8ff" d="M396.76,-422.38C337.43,-435.74 246.5,-447.31 175,-417 130.08,-397.96 95.03,-349.11 79.39,-324.16"/>
<polygon fill="#63b8ff" stroke="#63b8ff" points="397.79,-425.73 406.73,-420.05 396.2,-418.92 397.79,-425.73"/>
</a>
</g>
</g>
<!-- Node7&#45;&gt;Node13 -->
<g id="edge19_Node000007_Node000013" class="edge">
<title>Node7&#45;&gt;Node13</title>
<g id="a_edge19_Node000007_Node000013"><a xlink:title=" ">
<path fill="none" stroke="#63b8ff" d="M448.81,-429.74C434.3,-463.69 403.74,-524.43 359,-559 354.39,-562.56 349.34,-565.71 344.06,-568.49"/>
<polygon fill="#63b8ff" stroke="#63b8ff" points="452.2,-430.71 452.8,-420.13 445.74,-428.02 452.2,-430.71"/>
</a>
</g>
</g>
<!-- Node7&#45;&gt;Node14 -->
<g id="edge22_Node000007_Node000014" class="edge">
<title>Node7&#45;&gt;Node14</title>
<g id="a_edge22_Node000007_Node000014"><a xlink:title=" ">
<path fill="none" stroke="#63b8ff" d="M445.24,-380.78C431.83,-355.86 410.87,-315.74 395,-280 376.84,-239.11 388.83,-219.34 359,-186 346.43,-171.95 328.67,-161.48 312.17,-154.03"/>
<polygon fill="#63b8ff" stroke="#63b8ff" points="442.32,-382.73 450.16,-389.85 448.47,-379.39 442.32,-382.73"/>
</a>
</g>
</g>
<!-- Node7&#45;&gt;Node15 -->
<g id="edge27_Node000007_Node000015" class="edge">
<title>Node7&#45;&gt;Node15</title>
<g id="a_edge27_Node000007_Node000015"><a xlink:title=" ">
<path fill="none" stroke="#63b8ff" d="M446.18,-380.68C421.18,-331.5 366.22,-224.39 359,-219 292.1,-169.02 252.76,-211.44 175,-181 143.83,-168.8 111.33,-147.66 91.01,-133.26"/>
<polygon fill="#63b8ff" stroke="#63b8ff" points="443.11,-382.37 450.76,-389.7 449.36,-379.2 443.11,-382.37"/>
</a>
</g>
</g>
<!-- Node8&#45;&gt;Node8 -->
<g id="edge10_Node000008_Node000008" class="edge">
<title>Node8&#45;&gt;Node8</title>
<g id="a_edge10_Node000008_Node000008"><a xlink:title=" ">
<path fill="none" stroke="#63b8ff" d="M300.61,-268.6C296.01,-272.97 284.81,-276 267,-276 237,-276 225.75,-267.41 233.25,-258.28"/>
<polygon fill="#63b8ff" stroke="#63b8ff" points="304.11,-268.32 300.75,-258.28 297.11,-268.23 304.11,-268.32"/>
</a>
</g>
</g>
<!-- Node9&#45;&gt;Node9 -->
<g id="edge12_Node000009_Node000009" class="edge">
<title>Node9&#45;&gt;Node9</title>
<g id="a_edge12_Node000009_Node000009"><a xlink:title=" ">
<path fill="none" stroke="#63b8ff" d="M300.61,-542.6C296.01,-546.97 284.81,-550 267,-550 237,-550 225.75,-541.41 233.25,-532.28"/>
<polygon fill="#63b8ff" stroke="#63b8ff" points="304.11,-542.32 300.75,-532.28 297.11,-542.23 304.11,-542.32"/>
</a>
</g>
</g>
<!-- Node10&#45;&gt;Node10 -->
<g id="edge14_Node000010_Node000010" class="edge">
<title>Node10&#45;&gt;Node10</title>
<g id="a_edge14_Node000010_Node000010"><a xlink:title=" ">
<path fill="none" stroke="#63b8ff" d="M300.61,-400.6C296.01,-404.97 284.81,-408 267,-408 237,-408 225.75,-399.41 233.25,-390.28"/>
<polygon fill="#63b8ff" stroke="#63b8ff" points="304.11,-400.32 300.75,-390.28 297.11,-400.23 304.11,-400.32"/>
</a>
</g>
</g>
<!-- Node11&#45;&gt;Node11 -->
<g id="edge16_Node000011_Node000011" class="edge">
<title>Node11&#45;&gt;Node11</title>
<g id="a_edge16_Node000011_Node000011"><a xlink:title=" ">
<path fill="none" stroke="#63b8ff" d="M300.61,-334.6C296.01,-338.97 284.81,-342 267,-342 237,-342 225.75,-333.41 233.25,-324.28"/>
<polygon fill="#63b8ff" stroke="#63b8ff" points="304.11,-334.32 300.75,-324.28 297.11,-334.23 304.11,-334.32"/>
</a>
</g>
</g>
<!-- Node11&#45;&gt;Node12 -->
<g id="edge17_Node000011_Node000012" class="edge">
<title>Node11&#45;&gt;Node12</title>
<g id="a_edge17_Node000011_Node000012"><a xlink:title=" ">
<path fill="none" stroke="#63b8ff" d="M196.19,-309C174.6,-309 151.03,-309 130.19,-309"/>
<polygon fill="#63b8ff" stroke="#63b8ff" points="196.28,-312.5 206.28,-309 196.28,-305.5 196.28,-312.5"/>
</a>
</g>
</g>
<!-- Node13&#45;&gt;Node4 -->
<g id="edge20_Node000013_Node000004" class="edge">
<title>Node13&#45;&gt;Node4</title>
<g id="a_edge20_Node000013_Node000004"><a xlink:title=" ">
<path fill="none" stroke="#63b8ff" d="M164.94,-606.06C156.17,-607.54 147.44,-609.01 139.03,-610.43"/>
<polygon fill="#63b8ff" stroke="#63b8ff" points="165.55,-609.5 174.83,-604.39 164.39,-602.6 165.55,-609.5"/>
</a>
</g>
</g>
<!-- Node13&#45;&gt;Node13 -->
<g id="edge21_Node000013_Node000013" class="edge">
<title>Node13&#45;&gt;Node13</title>
<g id="a_edge21_Node000013_Node000013"><a xlink:title=" ">
<path fill="none" stroke="#63b8ff" d="M300.03,-619.46C295.12,-624.24 284.11,-627.5 267,-627.5 239.62,-627.5 227.86,-619.15 231.71,-609.6"/>
<polygon fill="#63b8ff" stroke="#63b8ff" points="303.47,-620.13 302.29,-609.6 296.65,-618.56 303.47,-620.13"/>
</a>
</g>
</g>
<!-- Node14&#45;&gt;Node12 -->
<g id="edge24_Node000014_Node000012" class="edge">
<title>Node14&#45;&gt;Node12</title>
<g id="a_edge24_Node000014_Node000012"><a xlink:title=" ">
<path fill="none" stroke="#63b8ff" d="M240.89,-160.84C200.58,-195.88 122.49,-263.79 87.81,-293.95"/>
<polygon fill="#63b8ff" stroke="#63b8ff" points="243.4,-163.29 248.65,-154.09 238.81,-158.01 243.4,-163.29"/>
</a>
</g>
</g>
<!-- Node14&#45;&gt;Node14 -->
<g id="edge23_Node000014_Node000014" class="edge">
<title>Node14&#45;&gt;Node14</title>
<g id="a_edge23_Node000014_Node000014"><a xlink:title=" ">
<path fill="none" stroke="#63b8ff" d="M300.61,-164.6C296.01,-168.97 284.81,-172 267,-172 237,-172 225.75,-163.41 233.25,-154.28"/>
<polygon fill="#63b8ff" stroke="#63b8ff" points="304.11,-164.32 300.75,-154.28 297.11,-164.23 304.11,-164.32"/>
</a>
</g>
</g>
<!-- Node14&#45;&gt;Node15 -->
<g id="edge25_Node000014_Node000015" class="edge">
<title>Node14&#45;&gt;Node15</title>
<g id="a_edge25_Node000014_Node000015"><a xlink:title=" ">
<path fill="none" stroke="#63b8ff" d="M196.07,-131.49C173.47,-129.06 148.7,-126.4 127.18,-124.09"/>
<polygon fill="#63b8ff" stroke="#63b8ff" points="195.96,-135 206.28,-132.59 196.71,-128.04 195.96,-135"/>
</a>
</g>
</g>
</g>
</svg>
