<?xml version="1.0" encoding="UTF-8" standalone="no"?>
<!DOCTYPE svg PUBLIC "-//W3C//DTD SVG 1.1//EN"
 "http://www.w3.org/Graphics/SVG/1.1/DTD/svg11.dtd">
<!-- Generated by graphviz version 2.43.0 (0)
 -->
<!-- Title: test::testNanoflann Pages: 1 -->
<svg width="430pt" height="230pt"
 viewBox="0.00 0.00 430.00 230.00" xmlns="http://www.w3.org/2000/svg" xmlns:xlink="http://www.w3.org/1999/xlink">
<g id="graph0" class="graph" transform="scale(1 1) rotate(0) translate(4 226)">
<title>test::testNanoflann</title>
<!-- Node1 -->
<g id="node1" class="node">
<title>Node1</title>
<g id="a_node1"><a xlink:title="Perform test on nsearch.">
<polygon fill="#bfbfbf" stroke="black" points="0,-101.5 0,-120.5 100,-120.5 100,-101.5 0,-101.5"/>
<text text-anchor="middle" x="50" y="-108.5" font-family="Arial" font-size="10.00">test::testNanoflann</text>
</a>
</g>
</g>
<!-- Node2 -->
<g id="node2" class="node">
<title>Node2</title>
<g id="a_node2"><a xlink:href="namespaceanonymous__namespace_02testNSearchLib_8cpp_03.html#a173da3cb745ff29c1d8b5b63b27bea3a" target="_top" xlink:title=" ">
<polygon fill="none" stroke="black" points="136,-180.5 136,-221.5 258,-221.5 258,-180.5 136,-180.5"/>
<text text-anchor="start" x="144" y="-209.5" font-family="Arial" font-size="10.00">anonymous_namespace</text>
<text text-anchor="start" x="144" y="-198.5" font-family="Arial" font-size="10.00">{testNSearchLib::cpp}</text>
<text text-anchor="middle" x="197" y="-187.5" font-family="Arial" font-size="10.00">::compare_results</text>
</a>
</g>
</g>
<!-- Node1&#45;&gt;Node2 -->
<g id="edge1" class="edge">
<title>Node1&#45;&gt;Node2</title>
<path fill="none" stroke="midnightblue" d="M63.27,-120.56C79.45,-132.94 109.03,-154.86 136,-171 138.61,-172.56 141.32,-174.12 144.07,-175.66"/>
<polygon fill="midnightblue" stroke="midnightblue" points="142.5,-178.79 152.96,-180.47 145.84,-172.63 142.5,-178.79"/>
</g>
<!-- Node4 -->
<g id="node4" class="node">
<title>Node4</title>
<g id="a_node4"><a xlink:href="namespaceanonymous__namespace_02testNSearchLib_8cpp_03.html#a2080861dcadbca56c7769a3e9c5c0ee1" target="_top" xlink:title=" ">
<polygon fill="none" stroke="black" points="136,-120.5 136,-161.5 258,-161.5 258,-120.5 136,-120.5"/>
<text text-anchor="start" x="144" y="-149.5" font-family="Arial" font-size="10.00">anonymous_namespace</text>
<text text-anchor="start" x="144" y="-138.5" font-family="Arial" font-size="10.00">{testNSearchLib::cpp}</text>
<text text-anchor="middle" x="197" y="-127.5" font-family="Arial" font-size="10.00">::lattice</text>
</a>
</g>
</g>
<!-- Node1&#45;&gt;Node4 -->
<g id="edge3" class="edge">
<title>Node1&#45;&gt;Node4</title>
<path fill="none" stroke="midnightblue" d="M97.28,-120.57C106.38,-122.46 116.12,-124.47 125.81,-126.48"/>
<polygon fill="midnightblue" stroke="midnightblue" points="125.35,-129.96 135.86,-128.56 126.77,-123.1 125.35,-129.96"/>
</g>
<!-- Node6 -->
<g id="node6" class="node">
<title>Node6</title>
<g id="a_node6"><a xlink:href="namespaceanonymous__namespace_02testNSearchLib_8cpp_03.html#a6c1f6b199d5abe1167e1cedf23d6e123" target="_top" xlink:title=" ">
<polygon fill="none" stroke="black" points="136,-60.5 136,-101.5 258,-101.5 258,-60.5 136,-60.5"/>
<text text-anchor="start" x="144" y="-89.5" font-family="Arial" font-size="10.00">anonymous_namespace</text>
<text text-anchor="start" x="144" y="-78.5" font-family="Arial" font-size="10.00">{testNSearchLib::cpp}</text>
<text text-anchor="middle" x="197" y="-67.5" font-family="Arial" font-size="10.00">::neighSearchBrute</text>
</a>
</g>
</g>
<!-- Node1&#45;&gt;Node6 -->
<g id="edge5" class="edge">
<title>Node1&#45;&gt;Node6</title>
<path fill="none" stroke="midnightblue" d="M97.28,-101.43C106.38,-99.54 116.12,-97.53 125.81,-95.52"/>
<polygon fill="midnightblue" stroke="midnightblue" points="126.77,-98.9 135.86,-93.44 125.35,-92.04 126.77,-98.9"/>
</g>
<!-- Node8 -->
<g id="node8" class="node">
<title>Node8</title>
<g id="a_node8"><a xlink:href="namespaceanonymous__namespace_02testNSearchLib_8cpp_03.html#abb735936b62eed5803dfe27fa3f4c0e7" target="_top" xlink:title=" ">
<polygon fill="none" stroke="black" points="136,-0.5 136,-41.5 258,-41.5 258,-0.5 136,-0.5"/>
<text text-anchor="start" x="144" y="-29.5" font-family="Arial" font-size="10.00">anonymous_namespace</text>
<text text-anchor="start" x="144" y="-18.5" font-family="Arial" font-size="10.00">{testNSearchLib::cpp}</text>
<text text-anchor="middle" x="197" y="-7.5" font-family="Arial" font-size="10.00">::neighSearchTreeSizet</text>
</a>
</g>
</g>
<!-- Node1&#45;&gt;Node8 -->
<g id="edge7" class="edge">
<title>Node1&#45;&gt;Node8</title>
<path fill="none" stroke="midnightblue" d="M63.27,-101.44C79.45,-89.06 109.03,-67.14 136,-51 138.61,-49.44 141.32,-47.88 144.07,-46.34"/>
<polygon fill="midnightblue" stroke="midnightblue" points="145.84,-49.37 152.96,-41.53 142.5,-43.21 145.84,-49.37"/>
</g>
<!-- Node3 -->
<g id="node3" class="node">
<title>Node3</title>
<g id="a_node3"><a xlink:href="namespaceanonymous__namespace_02testNSearchLib_8cpp_03.html#a9535c1acb31521d7d029ddf9a56bb3c2" target="_top" xlink:title=" ">
<polygon fill="none" stroke="black" points="297,-180.5 297,-221.5 419,-221.5 419,-180.5 297,-180.5"/>
<text text-anchor="start" x="305" y="-209.5" font-family="Arial" font-size="10.00">anonymous_namespace</text>
<text text-anchor="start" x="305" y="-198.5" font-family="Arial" font-size="10.00">{testNSearchLib::cpp}</text>
<text text-anchor="middle" x="358" y="-187.5" font-family="Arial" font-size="10.00">::isInList</text>
</a>
</g>
</g>
<!-- Node2&#45;&gt;Node3 -->
<g id="edge2" class="edge">
<title>Node2&#45;&gt;Node3</title>
<path fill="none" stroke="midnightblue" d="M258.11,-201C267.41,-201 277.09,-201 286.59,-201"/>
<polygon fill="midnightblue" stroke="midnightblue" points="286.8,-204.5 296.8,-201 286.8,-197.5 286.8,-204.5"/>
</g>
<!-- Node5 -->
<g id="node5" class="node">
<title>Node5</title>
<g id="a_node5"><a xlink:href="namespaceutil.html#afcff5a3416f12b7e3c727dae52c5523a" target="_top" xlink:title="Return random number generator.">
<polygon fill="none" stroke="black" points="316.5,-131.5 316.5,-150.5 399.5,-150.5 399.5,-131.5 316.5,-131.5"/>
<text text-anchor="middle" x="358" y="-138.5" font-family="Arial" font-size="10.00">util::get_rd_gen</text>
</a>
</g>
</g>
<!-- Node4&#45;&gt;Node5 -->
<g id="edge4" class="edge">
<title>Node4&#45;&gt;Node5</title>
<path fill="none" stroke="midnightblue" d="M258.11,-141C273.83,-141 290.63,-141 305.83,-141"/>
<polygon fill="midnightblue" stroke="midnightblue" points="306.07,-144.5 316.07,-141 306.07,-137.5 306.07,-144.5"/>
</g>
<!-- Node7 -->
<g id="node7" class="node">
<title>Node7</title>
<g id="a_node7"><a xlink:href="namespaceutil_1_1parallel.html#a4ad550a438091fb9cd924783e690764d" target="_top" xlink:title="Get number of threads to be used by taskflow.">
<polygon fill="none" stroke="black" points="294,-41.5 294,-60.5 422,-60.5 422,-41.5 294,-41.5"/>
<text text-anchor="middle" x="358" y="-48.5" font-family="Arial" font-size="10.00">util::parallel::getNThreads</text>
</a>
</g>
</g>
<!-- Node6&#45;&gt;Node7 -->
<g id="edge6" class="edge">
<title>Node6&#45;&gt;Node7</title>
<path fill="none" stroke="midnightblue" d="M258.11,-69.66C270.67,-67.29 283.92,-64.79 296.49,-62.42"/>
<polygon fill="midnightblue" stroke="midnightblue" points="297.23,-65.84 306.41,-60.55 295.93,-58.96 297.23,-65.84"/>
</g>
<!-- Node8&#45;&gt;Node7 -->
<g id="edge8" class="edge">
<title>Node8&#45;&gt;Node7</title>
<path fill="none" stroke="midnightblue" d="M258.11,-32.34C270.67,-34.71 283.92,-37.21 296.49,-39.58"/>
<polygon fill="midnightblue" stroke="midnightblue" points="295.93,-43.04 306.41,-41.45 297.23,-36.16 295.93,-43.04"/>
</g>
</g>
</svg>
