<?xml version="1.0" encoding="UTF-8" standalone="no"?>
<!DOCTYPE svg PUBLIC "-//W3C//DTD SVG 1.1//EN"
 "http://www.w3.org/Graphics/SVG/1.1/DTD/svg11.dtd">
<!-- Generated by graphviz version 2.43.0 (0)
 -->
<!-- Title: gmsh_particles.cuboid_mesh_symmetric Pages: 1 -->
<svg width="290pt" height="113pt"
 viewBox="0.00 0.00 290.00 112.50" xmlns="http://www.w3.org/2000/svg" xmlns:xlink="http://www.w3.org/1999/xlink">
<g id="graph0" class="graph" transform="scale(1 1) rotate(0) translate(4 108.5)">
<title>gmsh_particles.cuboid_mesh_symmetric</title>
<!-- Node1 -->
<g id="Node000001" class="node">
<title>Node1</title>
<g id="a_Node000001"><a xlink:title=" ">
<polygon fill="#999999" stroke="#666666" points="114,-61.5 0,-61.5 0,-31.5 114,-31.5 114,-61.5"/>
<text text-anchor="start" x="8" y="-49.5" font-family="Arial" font-size="10.00">gmsh_particles.cuboid</text>
<text text-anchor="middle" x="57" y="-38.5" font-family="Arial" font-size="10.00">_mesh_symmetric</text>
</a>
</g>
</g>
<!-- Node2 -->
<g id="Node000002" class="node">
<title>Node2</title>
<g id="a_Node000002"><a xlink:href="namespacegeom__util.html#a4cff2d2279e07cecdbff9c469cadc986" target="_top" xlink:title=" ">
<polygon fill="white" stroke="#666666" points="268,-104.5 164,-104.5 164,-74.5 268,-74.5 268,-104.5"/>
<text text-anchor="start" x="172" y="-92.5" font-family="Arial" font-size="10.00">geom_util.get_gmsh</text>
<text text-anchor="middle" x="216" y="-81.5" font-family="Arial" font-size="10.00">_entities</text>
</a>
</g>
</g>
<!-- Node1&#45;&gt;Node2 -->
<g id="edge1_Node000001_Node000002" class="edge">
<title>Node1&#45;&gt;Node2</title>
<g id="a_edge1_Node000001_Node000002"><a xlink:title=" ">
<path fill="none" stroke="#63b8ff" d="M112.91,-61.54C126.22,-65.18 140.52,-69.1 154.08,-72.82"/>
<polygon fill="#63b8ff" stroke="#63b8ff" points="153.24,-76.21 163.81,-75.48 155.09,-69.46 153.24,-76.21"/>
</a>
</g>
</g>
<!-- Node3 -->
<g id="Node000003" class="node">
<title>Node3</title>
<g id="a_Node000003"><a xlink:href="namespacegeom__util.html#a4da92e283f0d3adaeec14f498c0f2c10" target="_top" xlink:title=" ">
<polygon fill="white" stroke="#666666" points="282,-56 150,-56 150,-37 282,-37 282,-56"/>
<text text-anchor="middle" x="216" y="-44" font-family="Arial" font-size="10.00">geom_util.gmsh_transform</text>
</a>
</g>
</g>
<!-- Node1&#45;&gt;Node3 -->
<g id="edge2_Node000001_Node000003" class="edge">
<title>Node1&#45;&gt;Node3</title>
<g id="a_edge2_Node000001_Node000003"><a xlink:title=" ">
<path fill="none" stroke="#63b8ff" d="M114.24,-46.5C122.52,-46.5 131.17,-46.5 139.76,-46.5"/>
<polygon fill="#63b8ff" stroke="#63b8ff" points="139.8,-50 149.8,-46.5 139.8,-43 139.8,-50"/>
</a>
</g>
</g>
<!-- Node4 -->
<g id="Node000004" class="node">
<title>Node4</title>
<g id="a_Node000004"><a xlink:href="namespacegeom__util.html#a0402fa3ab58c62403ff40506f3453665" target="_top" xlink:title=" ">
<polygon fill="white" stroke="#666666" points="280,-19 152,-19 152,0 280,0 280,-19"/>
<text text-anchor="middle" x="216" y="-7" font-family="Arial" font-size="10.00">geom_util.gmsh_translate</text>
</a>
</g>
</g>
<!-- Node1&#45;&gt;Node4 -->
<g id="edge3_Node000001_Node000004" class="edge">
<title>Node1&#45;&gt;Node4</title>
<g id="a_edge3_Node000001_Node000004"><a xlink:title=" ">
<path fill="none" stroke="#63b8ff" d="M114.24,-33.25C130.7,-29.37 148.6,-25.15 164.67,-21.36"/>
<polygon fill="#63b8ff" stroke="#63b8ff" points="165.49,-24.76 174.42,-19.06 163.88,-17.95 165.49,-24.76"/>
</a>
</g>
</g>
</g>
</svg>
