<?xml version="1.0" encoding="UTF-8" standalone="no"?>
<!DOCTYPE svg PUBLIC "-//W3C//DTD SVG 1.1//EN"
 "http://www.w3.org/Graphics/SVG/1.1/DTD/svg11.dtd">
<!-- Generated by graphviz version 2.43.0 (0)
 -->
<!-- Title: discretize_circle_equidist.discretize_circle Pages: 1 -->
<svg width="363pt" height="76pt"
 viewBox="0.00 0.00 363.00 75.50" xmlns="http://www.w3.org/2000/svg" xmlns:xlink="http://www.w3.org/1999/xlink">
<g id="graph0" class="graph" transform="scale(1 1) rotate(0) translate(4 71.5)">
<title>discretize_circle_equidist.discretize_circle</title>
<!-- Node1 -->
<g id="Node000001" class="node">
<title>Node1</title>
<g id="a_Node000001"><a xlink:title=" ">
<polygon fill="#999999" stroke="#666666" points="171,-51 0,-51 0,-21 171,-21 171,-51"/>
<text text-anchor="start" x="8" y="-39" font-family="Arial" font-size="10.00">discretize_circle_equidist.discretize</text>
<text text-anchor="middle" x="85.5" y="-28" font-family="Arial" font-size="10.00">_circle</text>
</a>
</g>
</g>
<!-- Node2 -->
<g id="Node000002" class="node">
<title>Node2</title>
<g id="a_Node000002"><a xlink:href="namespacediscretize__circle__equidist.html#a6ad10d7c8fe12bc5e4d7f9f8fd9fb650" target="_top" xlink:title=" ">
<polygon fill="white" stroke="#666666" points="355,-67.5 207,-67.5 207,-48.5 355,-48.5 355,-67.5"/>
<text text-anchor="middle" x="281" y="-55.5" font-family="Arial" font-size="10.00">discretize_circle_equidist.mult</text>
</a>
</g>
</g>
<!-- Node1&#45;&gt;Node2 -->
<g id="edge1_Node000001_Node000002" class="edge">
<title>Node1&#45;&gt;Node2</title>
<g id="a_edge1_Node000001_Node000002"><a xlink:title=" ">
<path fill="none" stroke="#63b8ff" d="M171.09,-45.62C179.64,-46.59 188.32,-47.58 196.86,-48.55"/>
<polygon fill="#63b8ff" stroke="#63b8ff" points="196.47,-52.03 206.8,-49.68 197.26,-45.07 196.47,-52.03"/>
</a>
</g>
</g>
<!-- Node3 -->
<g id="Node000003" class="node">
<title>Node3</title>
<g id="a_Node000003"><a xlink:href="namespacediscretize__circle__equidist.html#a84bb2b07029e8a3fb1b1f7f7f93db3bd" target="_top" xlink:title=" ">
<polygon fill="white" stroke="#666666" points="355,-30 207,-30 207,0 355,0 355,-30"/>
<text text-anchor="start" x="215" y="-18" font-family="Arial" font-size="10.00">discretize_circle_equidist.print</text>
<text text-anchor="middle" x="281" y="-7" font-family="Arial" font-size="10.00">_point</text>
</a>
</g>
</g>
<!-- Node1&#45;&gt;Node3 -->
<g id="edge2_Node000001_Node000003" class="edge">
<title>Node1&#45;&gt;Node3</title>
<g id="a_edge2_Node000001_Node000003"><a xlink:title=" ">
<path fill="none" stroke="#63b8ff" d="M171.09,-26.82C179.55,-25.9 188.13,-24.97 196.58,-24.05"/>
<polygon fill="#63b8ff" stroke="#63b8ff" points="197.23,-27.5 206.8,-22.94 196.48,-20.54 197.23,-27.5"/>
</a>
</g>
</g>
</g>
</svg>
