<?xml version="1.0" encoding="UTF-8" standalone="no"?>
<!DOCTYPE svg PUBLIC "-//W3C//DTD SVG 1.1//EN"
 "http://www.w3.org/Graphics/SVG/1.1/DTD/svg11.dtd">
<!-- Generated by graphviz version 2.43.0 (0)
 -->
<!-- Title: problem_setup.get_ref_hex_points Pages: 1 -->
<svg width="683pt" height="507pt"
 viewBox="0.00 0.00 683.00 507.19" xmlns="http://www.w3.org/2000/svg" xmlns:xlink="http://www.w3.org/1999/xlink">
<g id="graph0" class="graph" transform="scale(1 1) rotate(0) translate(4 503.19)">
<title>problem_setup.get_ref_hex_points</title>
<!-- Node1 -->
<g id="Node000001" class="node">
<title>Node1</title>
<g id="a_Node000001"><a xlink:title=" ">
<polygon fill="#999999" stroke="#666666" points="675,-283 562,-283 562,-253 675,-253 675,-283"/>
<text text-anchor="start" x="570" y="-271" font-family="Arial" font-size="10.00">problem_setup.get_ref</text>
<text text-anchor="middle" x="618.5" y="-260" font-family="Arial" font-size="10.00">_hex_points</text>
</a>
</g>
</g>
<!-- Node2 -->
<g id="Node000002" class="node">
<title>Node2</title>
<g id="a_Node000002"><a xlink:href="namespaceproblem__setup.html#af9b7fe599289ca784b2fb5033b45f555" target="_top" xlink:title=" ">
<polygon fill="white" stroke="#666666" points="526,-420 395,-420 395,-368 526,-368 526,-420"/>
<text text-anchor="start" x="403" y="-408" font-family="Arial" font-size="10.00">problem_setup.does</text>
<text text-anchor="start" x="403" y="-397" font-family="Arial" font-size="10.00">_intersect_with_rectangle</text>
<text text-anchor="start" x="403" y="-386" font-family="Arial" font-size="10.00">_wall_with_protrusion_and</text>
<text text-anchor="middle" x="460.5" y="-375" font-family="Arial" font-size="10.00">_opening</text>
</a>
</g>
</g>
<!-- Node1&#45;&gt;Node2 -->
<g id="edge1_Node000001_Node000002" class="edge">
<title>Node1&#45;&gt;Node2</title>
<g id="a_edge1_Node000001_Node000002"><a xlink:title=" ">
<path fill="none" stroke="#63b8ff" d="M590.86,-289.52C564.05,-311.17 522.68,-344.59 493.97,-367.78"/>
<polygon fill="#63b8ff" stroke="#63b8ff" points="593.1,-292.2 598.68,-283.2 588.7,-286.76 593.1,-292.2"/>
</a>
</g>
</g>
<!-- Node3 -->
<g id="Node000003" class="node">
<title>Node3</title>
<g id="a_Node000003"><a xlink:href="namespaceproblem__setup.html#a0f7d40f23d1b185984a76d97e00f706b" target="_top" xlink:title=" ">
<polygon fill="white" stroke="#666666" points="331.5,-447.5 202.5,-447.5 202.5,-428.5 331.5,-428.5 331.5,-447.5"/>
<text text-anchor="middle" x="267" y="-435.5" font-family="Arial" font-size="10.00">problem_setup.get_center</text>
</a>
</g>
</g>
<!-- Node1&#45;&gt;Node3 -->
<g id="edge21_Node000001_Node000003" class="edge">
<title>Node1&#45;&gt;Node3</title>
<g id="a_edge21_Node000001_Node000003"><a xlink:title=" ">
<path fill="none" stroke="#63b8ff" d="M561.53,-286.34C504.51,-305.81 420.9,-336.77 395,-359 371.4,-379.25 384.34,-400.98 359,-419 350.85,-424.8 341.3,-428.9 331.52,-431.79"/>
<polygon fill="#63b8ff" stroke="#63b8ff" points="562.79,-289.61 571.14,-283.08 560.54,-282.98 562.79,-289.61"/>
</a>
</g>
</g>
<!-- Node5 -->
<g id="Node000005" class="node">
<title>Node5</title>
<g id="a_Node000005"><a xlink:href="namespaceproblem__setup.html#a1fec8dd536ff2dc0499259901333ee04" target="_top" xlink:title=" ">
<polygon fill="white" stroke="#666666" points="127,-472 12,-472 12,-442 127,-442 127,-472"/>
<text text-anchor="start" x="20" y="-460" font-family="Arial" font-size="10.00">problem_setup.particle</text>
<text text-anchor="middle" x="69.5" y="-449" font-family="Arial" font-size="10.00">_locations_old</text>
</a>
</g>
</g>
<!-- Node1&#45;&gt;Node5 -->
<g id="edge25_Node000001_Node000005" class="edge">
<title>Node1&#45;&gt;Node5</title>
<g id="a_edge25_Node000001_Node000005"><a xlink:title=" ">
<path fill="none" stroke="#63b8ff" d="M612.89,-292.94C603.99,-333.17 580.3,-411.5 526,-447 400.71,-528.91 211.73,-495.18 121.7,-472.02"/>
<polygon fill="#63b8ff" stroke="#63b8ff" points="616.32,-293.62 614.93,-283.12 609.47,-292.2 616.32,-293.62"/>
</a>
</g>
</g>
<!-- Node6 -->
<g id="Node000006" class="node">
<title>Node6</title>
<g id="a_Node000006"><a xlink:href="namespaceproblem__setup.html#a748a6e71c72a7802eefaef31ff9f4382" target="_top" xlink:title=" ">
<polygon fill="white" stroke="#666666" points="525.5,-283 395.5,-283 395.5,-253 525.5,-253 525.5,-283"/>
<text text-anchor="start" x="403.5" y="-271" font-family="Arial" font-size="10.00">problem_setup.generate</text>
<text text-anchor="middle" x="460.5" y="-260" font-family="Arial" font-size="10.00">_hex_particle_gmsh_input</text>
</a>
</g>
</g>
<!-- Node1&#45;&gt;Node6 -->
<g id="edge7_Node000001_Node000006" class="edge">
<title>Node1&#45;&gt;Node6</title>
<g id="a_edge7_Node000001_Node000006"><a xlink:title=" ">
<path fill="none" stroke="#63b8ff" d="M551.39,-268C542.89,-268 534.21,-268 525.75,-268"/>
<polygon fill="#63b8ff" stroke="#63b8ff" points="551.62,-271.5 561.62,-268 551.62,-264.5 551.62,-271.5"/>
</a>
</g>
</g>
<!-- Node12 -->
<g id="Node000012" class="node">
<title>Node12</title>
<g id="a_Node000012"><a xlink:href="namespaceproblem__setup.html#a38db49e0a85dd22e69cae23f7f92435f" target="_top" xlink:title=" ">
<polygon fill="white" stroke="#666666" points="324.5,-30 209.5,-30 209.5,0 324.5,0 324.5,-30"/>
<text text-anchor="start" x="217.5" y="-18" font-family="Arial" font-size="10.00">problem_setup.particle</text>
<text text-anchor="middle" x="267" y="-7" font-family="Arial" font-size="10.00">_locations</text>
</a>
</g>
</g>
<!-- Node1&#45;&gt;Node12 -->
<g id="edge23_Node000001_Node000012" class="edge">
<title>Node1&#45;&gt;Node12</title>
<g id="a_edge23_Node000001_Node000012"><a xlink:title=" ">
<path fill="none" stroke="#63b8ff" d="M552,-250.62C487.38,-233.33 397.8,-208.98 395,-206 342.93,-150.74 411.45,-93.9 359,-39 349.86,-29.43 337.39,-23.51 324.62,-19.9"/>
<polygon fill="#63b8ff" stroke="#63b8ff" points="551.18,-254.02 561.74,-253.22 552.98,-247.25 551.18,-254.02"/>
</a>
</g>
</g>
<!-- Node13 -->
<g id="Node000013" class="node">
<title>Node13</title>
<g id="a_Node000013"><a xlink:href="namespaceproblem__setup.html#aea678eaa9149fe7e9246bc2776c4213b" target="_top" xlink:title=" ">
<polygon fill="white" stroke="#666666" points="518,-197 403,-197 403,-167 518,-167 518,-197"/>
<text text-anchor="start" x="411" y="-185" font-family="Arial" font-size="10.00">problem_setup.particle</text>
<text text-anchor="middle" x="460.5" y="-174" font-family="Arial" font-size="10.00">_locations</text>
</a>
</g>
</g>
<!-- Node1&#45;&gt;Node13 -->
<g id="edge22_Node000001_Node000013" class="edge">
<title>Node1&#45;&gt;Node13</title>
<g id="a_edge22_Node000001_Node000013"><a xlink:title=" ">
<path fill="none" stroke="#63b8ff" d="M586.43,-247.19C569.01,-235.89 546.67,-222.02 526,-211 516.9,-206.15 506.83,-201.36 497.4,-197.11"/>
<polygon fill="#63b8ff" stroke="#63b8ff" points="584.78,-250.29 595.07,-252.84 588.61,-244.44 584.78,-250.29"/>
</a>
</g>
</g>
<!-- Node14 -->
<g id="Node000014" class="node">
<title>Node14</title>
<g id="a_Node000014"><a xlink:href="namespaceproblem__setup.html#ac4138f23e18d28db81ccf467dfcf80e8" target="_top" xlink:title=" ">
<polygon fill="white" stroke="#666666" points="518,-149 403,-149 403,-119 518,-119 518,-149"/>
<text text-anchor="start" x="411" y="-137" font-family="Arial" font-size="10.00">problem_setup.particle</text>
<text text-anchor="middle" x="460.5" y="-126" font-family="Arial" font-size="10.00">_locations</text>
</a>
</g>
</g>
<!-- Node1&#45;&gt;Node14 -->
<g id="edge24_Node000001_Node000014" class="edge">
<title>Node1&#45;&gt;Node14</title>
<g id="a_edge24_Node000001_Node000014"><a xlink:title=" ">
<path fill="none" stroke="#63b8ff" d="M602.91,-243.93C586.84,-219.26 558.89,-181.31 526,-158 521.22,-154.61 515.91,-151.65 510.45,-149.06"/>
<polygon fill="#63b8ff" stroke="#63b8ff" points="600.15,-246.12 608.47,-252.68 606.06,-242.36 600.15,-246.12"/>
</a>
</g>
</g>
<!-- Node2&#45;&gt;Node2 -->
<g id="edge2_Node000002_Node000002" class="edge">
<title>Node2&#45;&gt;Node2</title>
<g id="a_edge2_Node000002_Node000002"><a xlink:title=" ">
<path fill="none" stroke="#63b8ff" d="M486.91,-429.76C482.55,-434.7 473.75,-438 460.5,-438 439.82,-438 429.97,-429.96 430.94,-420.2"/>
<polygon fill="#63b8ff" stroke="#63b8ff" points="490.26,-430.79 490.06,-420.2 483.61,-428.6 490.26,-430.79"/>
</a>
</g>
</g>
<!-- Node2&#45;&gt;Node3 -->
<g id="edge3_Node000002_Node000003" class="edge">
<title>Node2&#45;&gt;Node3</title>
<g id="a_edge3_Node000002_Node000003"><a xlink:title=" ">
<path fill="none" stroke="#63b8ff" d="M385.11,-412.84C376.32,-414.97 367.47,-417.06 359,-419 344.84,-422.24 329.39,-425.55 315.31,-428.48"/>
<polygon fill="#63b8ff" stroke="#63b8ff" points="386.09,-416.2 394.98,-410.43 384.44,-409.4 386.09,-416.2"/>
</a>
</g>
</g>
<!-- Node4 -->
<g id="Node000004" class="node">
<title>Node4</title>
<g id="a_Node000004"><a xlink:href="namespaceproblem__setup.html#ab77cd691be605123ba53961f21c8885a" target="_top" xlink:title=" ">
<polygon fill="white" stroke="#666666" points="139,-283 0,-283 0,-253 139,-253 139,-283"/>
<text text-anchor="start" x="8" y="-271" font-family="Arial" font-size="10.00">problem_setup.generate</text>
<text text-anchor="middle" x="69.5" y="-260" font-family="Arial" font-size="10.00">_rect_container_gmsh_input</text>
</a>
</g>
</g>
<!-- Node3&#45;&gt;Node4 -->
<g id="edge4_Node000003_Node000004" class="edge">
<title>Node3&#45;&gt;Node4</title>
<g id="a_edge4_Node000003_Node000004"><a xlink:title=" ">
<path fill="none" stroke="#63b8ff" d="M192.48,-427.87C186.31,-425.49 180.38,-422.57 175,-419 122.93,-384.46 89.33,-314.3 76.45,-283.3"/>
<polygon fill="#63b8ff" stroke="#63b8ff" points="191.72,-431.31 202.32,-431.19 193.96,-424.68 191.72,-431.31"/>
</a>
</g>
</g>
<!-- Node3&#45;&gt;Node5 -->
<g id="edge6_Node000003_Node000005" class="edge">
<title>Node3&#45;&gt;Node5</title>
<g id="a_edge6_Node000003_Node000005"><a xlink:title=" ">
<path fill="none" stroke="#63b8ff" d="M192.18,-445.17C170.67,-447.26 147.51,-449.52 127.23,-451.49"/>
<polygon fill="#63b8ff" stroke="#63b8ff" points="192.64,-448.65 202.26,-444.2 191.96,-441.68 192.64,-448.65"/>
</a>
</g>
</g>
<!-- Node4&#45;&gt;Node4 -->
<g id="edge5_Node000004_Node000004" class="edge">
<title>Node4&#45;&gt;Node4</title>
<g id="a_edge5_Node000004_Node000004"><a xlink:title=" ">
<path fill="none" stroke="#63b8ff" d="M103.81,-293.6C99.12,-297.97 87.68,-301 69.5,-301 38.88,-301 27.39,-292.41 35.05,-283.28"/>
<polygon fill="#63b8ff" stroke="#63b8ff" points="107.31,-293.32 103.95,-283.28 100.31,-293.22 107.31,-293.32"/>
</a>
</g>
</g>
<!-- Node6&#45;&gt;Node4 -->
<g id="edge16_Node000006_Node000004" class="edge">
<title>Node6&#45;&gt;Node4</title>
<g id="a_edge16_Node000006_Node000004"><a xlink:title=" ">
<path fill="none" stroke="#63b8ff" d="M385.05,-268C314.07,-268 208.06,-268 139.09,-268"/>
<polygon fill="#63b8ff" stroke="#63b8ff" points="385.26,-271.5 395.26,-268 385.26,-264.5 385.26,-271.5"/>
</a>
</g>
</g>
<!-- Node7 -->
<g id="Node000007" class="node">
<title>Node7</title>
<g id="a_Node000007"><a xlink:href="namespaceproblem__setup.html#ad8435164bcbd3345621bebc22e38b3d6" target="_top" xlink:title=" ">
<polygon fill="white" stroke="#666666" points="338.5,-144 195.5,-144 195.5,-114 338.5,-114 338.5,-144"/>
<text text-anchor="start" x="203.5" y="-132" font-family="Arial" font-size="10.00">problem_setup.generate</text>
<text text-anchor="middle" x="267" y="-121" font-family="Arial" font-size="10.00">_cylindrical_wall_gmsh_input</text>
</a>
</g>
</g>
<!-- Node6&#45;&gt;Node7 -->
<g id="edge8_Node000006_Node000007" class="edge">
<title>Node6&#45;&gt;Node7</title>
<g id="a_edge8_Node000006_Node000007"><a xlink:title=" ">
<path fill="none" stroke="#63b8ff" d="M406.62,-247.91C402.46,-245.25 398.51,-242.29 395,-239 370.05,-215.61 383.83,-194.51 359,-171 346.74,-159.39 330.71,-150.55 315.52,-144.05"/>
<polygon fill="#63b8ff" stroke="#63b8ff" points="405,-251.02 415.42,-252.95 408.48,-244.94 405,-251.02"/>
</a>
</g>
</g>
<!-- Node8 -->
<g id="Node000008" class="node">
<title>Node8</title>
<g id="a_Node000008"><a xlink:href="namespaceproblem__setup.html#a0309e4ef640896d0611c7626b8273f19" target="_top" xlink:title=" ">
<polygon fill="white" stroke="#666666" points="335,-78 199,-78 199,-48 335,-48 335,-78"/>
<text text-anchor="start" x="207" y="-66" font-family="Arial" font-size="10.00">problem_setup.generate</text>
<text text-anchor="middle" x="267" y="-55" font-family="Arial" font-size="10.00">_drum_particle_gmsh_input</text>
</a>
</g>
</g>
<!-- Node6&#45;&gt;Node8 -->
<g id="edge10_Node000006_Node000008" class="edge">
<title>Node6&#45;&gt;Node8</title>
<g id="a_edge10_Node000006_Node000008"><a xlink:title=" ">
<path fill="none" stroke="#63b8ff" d="M403.86,-247.3C400.61,-244.82 397.61,-242.07 395,-239 355.02,-192.05 398.75,-152.15 359,-105 349.02,-93.16 334.98,-84.48 320.91,-78.18"/>
<polygon fill="#63b8ff" stroke="#63b8ff" points="402.09,-250.32 412.37,-252.9 405.94,-244.48 402.09,-250.32"/>
</a>
</g>
</g>
<!-- Node9 -->
<g id="Node000009" class="node">
<title>Node9</title>
<g id="a_Node000009"><a xlink:href="namespaceproblem__setup.html#a16a9d169ecf04b1a867bec4dbf274c01" target="_top" xlink:title=" ">
<polygon fill="white" stroke="#666666" points="343.5,-392 190.5,-392 190.5,-362 343.5,-362 343.5,-392"/>
<text text-anchor="start" x="198.5" y="-380" font-family="Arial" font-size="10.00">problem_setup.generate</text>
<text text-anchor="middle" x="267" y="-369" font-family="Arial" font-size="10.00">_moving_rect_wall_gmsh_input</text>
</a>
</g>
</g>
<!-- Node6&#45;&gt;Node9 -->
<g id="edge12_Node000006_Node000009" class="edge">
<title>Node6&#45;&gt;Node9</title>
<g id="a_edge12_Node000006_Node000009"><a xlink:title=" ">
<path fill="none" stroke="#63b8ff" d="M420.9,-288.21C411.95,-293.72 402.78,-300.1 395,-307 375.57,-324.22 380.68,-338.72 359,-353 353.81,-356.41 348.16,-359.34 342.3,-361.86"/>
<polygon fill="#63b8ff" stroke="#63b8ff" points="422.88,-291.1 429.71,-283 419.32,-285.08 422.88,-291.1"/>
</a>
</g>
</g>
<!-- Node10 -->
<g id="Node000010" class="node">
<title>Node10</title>
<g id="a_Node000010"><a xlink:href="namespaceproblem__setup.html#a4dd4df45d28c58aafac4fdf8aa8c554d" target="_top" xlink:title=" ">
<polygon fill="white" stroke="#666666" points="332.5,-326 201.5,-326 201.5,-296 332.5,-296 332.5,-326"/>
<text text-anchor="start" x="209.5" y="-314" font-family="Arial" font-size="10.00">problem_setup.generate</text>
<text text-anchor="middle" x="267" y="-303" font-family="Arial" font-size="10.00">_moving_wall_gmsh_input</text>
</a>
</g>
</g>
<!-- Node6&#45;&gt;Node10 -->
<g id="edge14_Node000006_Node000010" class="edge">
<title>Node6&#45;&gt;Node10</title>
<g id="a_edge14_Node000006_Node000010"><a xlink:title=" ">
<path fill="none" stroke="#63b8ff" d="M385.36,-284.65C367.96,-288.55 349.57,-292.68 332.63,-296.49"/>
<polygon fill="#63b8ff" stroke="#63b8ff" points="386.48,-287.98 395.47,-282.38 384.94,-281.15 386.48,-287.98"/>
</a>
</g>
</g>
<!-- Node11 -->
<g id="Node000011" class="node">
<title>Node11</title>
<g id="a_Node000011"><a xlink:href="namespaceproblem__setup.html#a8e72848abab104858c2a4647079140ed" target="_top" xlink:title=" ">
<polygon fill="white" stroke="#666666" points="359,-221.5 175,-221.5 175,-180.5 359,-180.5 359,-221.5"/>
<text text-anchor="start" x="183" y="-209.5" font-family="Arial" font-size="10.00">problem_setup.generate</text>
<text text-anchor="start" x="183" y="-198.5" font-family="Arial" font-size="10.00">_rectangle_with_protrusion</text>
<text text-anchor="middle" x="267" y="-187.5" font-family="Arial" font-size="10.00">_and_opening_wall_gmsh_input_type3</text>
</a>
</g>
</g>
<!-- Node6&#45;&gt;Node11 -->
<g id="edge17_Node000006_Node000011" class="edge">
<title>Node6&#45;&gt;Node11</title>
<g id="a_edge17_Node000006_Node000011"><a xlink:title=" ">
<path fill="none" stroke="#63b8ff" d="M406.92,-249.6C382.09,-240.92 352.38,-230.52 326.81,-221.57"/>
<polygon fill="#63b8ff" stroke="#63b8ff" points="405.93,-252.97 416.52,-252.96 408.24,-246.36 405.93,-252.97"/>
</a>
</g>
</g>
<!-- Node6&#45;&gt;Node12 -->
<g id="edge20_Node000006_Node000012" class="edge">
<title>Node6&#45;&gt;Node12</title>
<g id="a_edge20_Node000006_Node000012"><a xlink:title=" ">
<path fill="none" stroke="#63b8ff" d="M402.98,-247.08C400.03,-244.66 397.33,-241.98 395,-239 339.4,-167.83 420.27,-105.36 359,-39 350.02,-29.28 337.62,-23.3 324.85,-19.68"/>
<polygon fill="#63b8ff" stroke="#63b8ff" points="401.09,-250.03 411.3,-252.86 405.09,-244.28 401.09,-250.03"/>
</a>
</g>
</g>
<!-- Node7&#45;&gt;Node7 -->
<g id="edge9_Node000007_Node000007" class="edge">
<title>Node7&#45;&gt;Node7</title>
<g id="a_edge9_Node000007_Node000007"><a xlink:title=" ">
<path fill="none" stroke="#63b8ff" d="M300.61,-154.6C296.01,-158.97 284.81,-162 267,-162 237,-162 225.75,-153.41 233.25,-144.28"/>
<polygon fill="#63b8ff" stroke="#63b8ff" points="304.11,-154.32 300.75,-144.28 297.11,-154.23 304.11,-154.32"/>
</a>
</g>
</g>
<!-- Node8&#45;&gt;Node8 -->
<g id="edge11_Node000008_Node000008" class="edge">
<title>Node8&#45;&gt;Node8</title>
<g id="a_edge11_Node000008_Node000008"><a xlink:title=" ">
<path fill="none" stroke="#63b8ff" d="M300.61,-88.6C296.01,-92.97 284.81,-96 267,-96 237,-96 225.75,-87.41 233.25,-78.28"/>
<polygon fill="#63b8ff" stroke="#63b8ff" points="304.11,-88.32 300.75,-78.28 297.11,-88.23 304.11,-88.32"/>
</a>
</g>
</g>
<!-- Node9&#45;&gt;Node9 -->
<g id="edge13_Node000009_Node000009" class="edge">
<title>Node9&#45;&gt;Node9</title>
<g id="a_edge13_Node000009_Node000009"><a xlink:title=" ">
<path fill="none" stroke="#63b8ff" d="M300.61,-402.6C296.01,-406.97 284.81,-410 267,-410 237,-410 225.75,-401.41 233.25,-392.28"/>
<polygon fill="#63b8ff" stroke="#63b8ff" points="304.11,-402.32 300.75,-392.28 297.11,-402.23 304.11,-402.32"/>
</a>
</g>
</g>
<!-- Node10&#45;&gt;Node10 -->
<g id="edge15_Node000010_Node000010" class="edge">
<title>Node10&#45;&gt;Node10</title>
<g id="a_edge15_Node000010_Node000010"><a xlink:title=" ">
<path fill="none" stroke="#63b8ff" d="M300.61,-336.6C296.01,-340.97 284.81,-344 267,-344 237,-344 225.75,-335.41 233.25,-326.28"/>
<polygon fill="#63b8ff" stroke="#63b8ff" points="304.11,-336.32 300.75,-326.28 297.11,-336.23 304.11,-336.32"/>
</a>
</g>
</g>
<!-- Node11&#45;&gt;Node4 -->
<g id="edge18_Node000011_Node000004" class="edge">
<title>Node11&#45;&gt;Node4</title>
<g id="a_edge18_Node000011_Node000004"><a xlink:title=" ">
<path fill="none" stroke="#63b8ff" d="M196.51,-224.82C169.21,-234.17 138.7,-244.63 114.53,-252.91"/>
<polygon fill="#63b8ff" stroke="#63b8ff" points="197.69,-228.11 206.01,-221.56 195.42,-221.49 197.69,-228.11"/>
</a>
</g>
</g>
<!-- Node11&#45;&gt;Node11 -->
<g id="edge19_Node000011_Node000011" class="edge">
<title>Node11&#45;&gt;Node11</title>
<g id="a_edge19_Node000011_Node000011"><a xlink:title=" ">
<path fill="none" stroke="#63b8ff" d="M300.03,-231.46C295.12,-236.24 284.11,-239.5 267,-239.5 239.62,-239.5 227.86,-231.15 231.71,-221.6"/>
<polygon fill="#63b8ff" stroke="#63b8ff" points="303.47,-232.13 302.29,-221.6 296.65,-230.56 303.47,-232.13"/>
</a>
</g>
</g>
</g>
</svg>
