<?xml version="1.0" encoding="UTF-8" standalone="no"?>
<!DOCTYPE svg PUBLIC "-//W3C//DTD SVG 1.1//EN"
 "http://www.w3.org/Graphics/SVG/1.1/DTD/svg11.dtd">
<!-- Generated by graphviz version 2.43.0 (0)
 -->
<!-- Title: test::getExactIntegrationRefTri Pages: 1 -->
<svg width="331pt" height="38pt"
 viewBox="0.00 0.00 331.00 38.00" xmlns="http://www.w3.org/2000/svg" xmlns:xlink="http://www.w3.org/1999/xlink">
<g id="graph0" class="graph" transform="scale(1 1) rotate(0) translate(4 34)">
<title>test::getExactIntegrationRefTri</title>
<!-- Node1 -->
<g id="Node000001" class="node">
<title>Node1</title>
<g id="a_Node000001"><a xlink:title="Computes integration of polynomial exactly over reference triangle.">
<polygon fill="#999999" stroke="#666666" points="323,-30 199,-30 199,0 323,0 323,-30"/>
<text text-anchor="start" x="207" y="-18" font-family="Arial" font-size="10.00">test::getExactIntegration</text>
<text text-anchor="middle" x="261" y="-7" font-family="Arial" font-size="10.00">RefTri</text>
</a>
</g>
</g>
<!-- Node2 -->
<g id="Node000002" class="node">
<title>Node2</title>
<g id="a_Node000002"><a xlink:href="namespacetest.html#af81978a4250caac290f7d52c1e571f04" target="_top" xlink:title="Perform test on quadrature points on triangle elements.">
<polygon fill="white" stroke="#666666" points="163,-24.5 74,-24.5 74,-5.5 163,-5.5 163,-24.5"/>
<text text-anchor="middle" x="118.5" y="-12.5" font-family="Arial" font-size="10.00">test::testTriElem</text>
</a>
</g>
</g>
<!-- Node1&#45;&gt;Node2 -->
<g id="edge1_Node000001_Node000002" class="edge">
<title>Node1&#45;&gt;Node2</title>
<g id="a_edge1_Node000001_Node000002"><a xlink:title=" ">
<path fill="none" stroke="#63b8ff" d="M188.62,-15C179.95,-15 171.3,-15 163.2,-15"/>
<polygon fill="#63b8ff" stroke="#63b8ff" points="188.78,-18.5 198.78,-15 188.78,-11.5 188.78,-18.5"/>
</a>
</g>
</g>
<!-- Node3 -->
<g id="Node000003" class="node">
<title>Node3</title>
<g id="a_Node000003"><a xlink:href="testFe_8cpp.html#a0ddf1224851353fc92bfbff6f499fa97" target="_top" xlink:title=" ">
<polygon fill="white" stroke="#666666" points="38,-24.5 0,-24.5 0,-5.5 38,-5.5 38,-24.5"/>
<text text-anchor="middle" x="19" y="-12.5" font-family="Arial" font-size="10.00">main</text>
</a>
</g>
</g>
<!-- Node2&#45;&gt;Node3 -->
<g id="edge2_Node000002_Node000003" class="edge">
<title>Node2&#45;&gt;Node3</title>
<g id="a_edge2_Node000002_Node000003"><a xlink:title=" ">
<path fill="none" stroke="#63b8ff" d="M63.83,-15C54.59,-15 45.59,-15 38.17,-15"/>
<polygon fill="#63b8ff" stroke="#63b8ff" points="63.88,-18.5 73.88,-15 63.88,-11.5 63.88,-18.5"/>
</a>
</g>
</g>
</g>
</svg>
