<?xml version="1.0" encoding="UTF-8" standalone="no"?>
<!DOCTYPE svg PUBLIC "-//W3C//DTD SVG 1.1//EN"
 "http://www.w3.org/Graphics/SVG/1.1/DTD/svg11.dtd">
<!-- Generated by graphviz version 2.43.0 (0)
 -->
<!-- Title: problem_setup.particle_locations Pages: 1 -->
<svg width="729pt" height="135pt"
 viewBox="0.00 0.00 729.00 134.50" xmlns="http://www.w3.org/2000/svg" xmlns:xlink="http://www.w3.org/1999/xlink">
<g id="graph0" class="graph" transform="scale(1 1) rotate(0) translate(4 130.5)">
<title>problem_setup.particle_locations</title>
<!-- Node1 -->
<g id="node1" class="node">
<title>Node1</title>
<g id="a_node1"><a xlink:title=" ">
<polygon fill="#bfbfbf" stroke="black" points="0,-52 0,-82 115,-82 115,-52 0,-52"/>
<text text-anchor="start" x="8" y="-70" font-family="Arial" font-size="10.00">problem_setup.particle</text>
<text text-anchor="middle" x="57.5" y="-59" font-family="Arial" font-size="10.00">_locations</text>
</a>
</g>
</g>
<!-- Node2 -->
<g id="node2" class="node">
<title>Node2</title>
<g id="a_node2"><a xlink:href="namespaceproblem__setup.html#ad9b50c51aa5e0de13f4c721465b63b5f" target="_top" xlink:title=" ">
<polygon fill="none" stroke="black" points="159.5,-96 159.5,-126 263.5,-126 263.5,-96 159.5,-96"/>
<text text-anchor="start" x="167.5" y="-114" font-family="Arial" font-size="10.00">problem_setup.does</text>
<text text-anchor="middle" x="211.5" y="-103" font-family="Arial" font-size="10.00">_intersect_rect</text>
</a>
</g>
</g>
<!-- Node1&#45;&gt;Node2 -->
<g id="edge1" class="edge">
<title>Node1&#45;&gt;Node2</title>
<path fill="none" stroke="midnightblue" d="M110.38,-82.02C122.99,-85.67 136.59,-89.61 149.58,-93.37"/>
<polygon fill="midnightblue" stroke="midnightblue" points="148.79,-96.78 159.36,-96.2 150.73,-90.05 148.79,-96.78"/>
</g>
<!-- Node3 -->
<g id="node3" class="node">
<title>Node3</title>
<g id="a_node3"><a xlink:href="namespaceproblem__setup.html#aa39e6862e38920798278f55a2578a6ef" target="_top" xlink:title=" ">
<polygon fill="none" stroke="black" points="151,-57.5 151,-76.5 272,-76.5 272,-57.5 151,-57.5"/>
<text text-anchor="middle" x="211.5" y="-64.5" font-family="Arial" font-size="10.00">problem_setup.get_max</text>
</a>
</g>
</g>
<!-- Node1&#45;&gt;Node3 -->
<g id="edge2" class="edge">
<title>Node1&#45;&gt;Node3</title>
<path fill="none" stroke="midnightblue" d="M115.1,-67C123.47,-67 132.18,-67 140.78,-67"/>
<polygon fill="midnightblue" stroke="midnightblue" points="140.8,-70.5 150.8,-67 140.8,-63.5 140.8,-70.5"/>
</g>
<!-- Node4 -->
<g id="node4" class="node">
<title>Node4</title>
<g id="a_node4"><a xlink:href="namespaceutil_1_1io.html#a578a578ce41389fb01e56de7316b7054" target="_top" xlink:title="Prints formatted information.">
<polygon fill="none" stroke="black" points="177.5,-19.5 177.5,-38.5 245.5,-38.5 245.5,-19.5 177.5,-19.5"/>
<text text-anchor="middle" x="211.5" y="-26.5" font-family="Arial" font-size="10.00">util::io::print</text>
</a>
</g>
</g>
<!-- Node1&#45;&gt;Node4 -->
<g id="edge3" class="edge">
<title>Node1&#45;&gt;Node4</title>
<path fill="none" stroke="midnightblue" d="M115.1,-52.85C132.43,-48.52 151.21,-43.82 167.49,-39.75"/>
<polygon fill="midnightblue" stroke="midnightblue" points="168.41,-43.13 177.26,-37.31 166.71,-36.34 168.41,-43.13"/>
</g>
<!-- Node5 -->
<g id="node5" class="node">
<title>Node5</title>
<g id="a_node5"><a xlink:href="namespaceutil_1_1parallel.html#adb80f14125b7556bb478cc3725508fa8" target="_top" xlink:title="get rank (id) of this processor">
<polygon fill="none" stroke="black" points="308,-38.5 308,-57.5 419,-57.5 419,-38.5 308,-38.5"/>
<text text-anchor="middle" x="363.5" y="-45.5" font-family="Arial" font-size="10.00">util::parallel::mpiRank</text>
</a>
</g>
</g>
<!-- Node4&#45;&gt;Node5 -->
<g id="edge4" class="edge">
<title>Node4&#45;&gt;Node5</title>
<path fill="none" stroke="midnightblue" d="M245.79,-33.22C261.01,-35.15 279.6,-37.5 297.42,-39.76"/>
<polygon fill="midnightblue" stroke="midnightblue" points="297.44,-43.29 307.8,-41.07 298.32,-36.34 297.44,-43.29"/>
</g>
<!-- Node8 -->
<g id="node8" class="node">
<title>Node8</title>
<g id="a_node8"><a xlink:href="namespaceutil_1_1io.html#a3e537e3bd778616255015cde6e60a30a" target="_top" xlink:title="Returns formatted string for output.">
<polygon fill="none" stroke="black" points="323.5,-0.5 323.5,-19.5 403.5,-19.5 403.5,-0.5 323.5,-0.5"/>
<text text-anchor="middle" x="363.5" y="-7.5" font-family="Arial" font-size="10.00">util::io::printStr</text>
</a>
</g>
</g>
<!-- Node4&#45;&gt;Node8 -->
<g id="edge7" class="edge">
<title>Node4&#45;&gt;Node8</title>
<path fill="none" stroke="midnightblue" d="M245.79,-24.78C265.61,-22.27 291.13,-19.04 313.25,-16.24"/>
<polygon fill="midnightblue" stroke="midnightblue" points="313.98,-19.67 323.46,-14.94 313.1,-12.73 313.98,-19.67"/>
</g>
<!-- Node6 -->
<g id="node6" class="node">
<title>Node6</title>
<g id="a_node6"><a xlink:href="namespaceutil_1_1parallel.html#aa0c65ae0f7fb6e0c4f3104c5bf3b1ff6" target="_top" xlink:title="Initializes MPI and also creates MpiStatus struct.">
<polygon fill="none" stroke="black" points="455,-38.5 455,-57.5 556,-57.5 556,-38.5 455,-38.5"/>
<text text-anchor="middle" x="505.5" y="-45.5" font-family="Arial" font-size="10.00">util::parallel::initMpi</text>
</a>
</g>
</g>
<!-- Node5&#45;&gt;Node6 -->
<g id="edge5" class="edge">
<title>Node5&#45;&gt;Node6</title>
<path fill="none" stroke="midnightblue" d="M419.03,-48C427.43,-48 436.15,-48 444.67,-48"/>
<polygon fill="midnightblue" stroke="midnightblue" points="444.92,-51.5 454.92,-48 444.92,-44.5 444.92,-51.5"/>
</g>
<!-- Node7 -->
<g id="node7" class="node">
<title>Node7</title>
<g id="a_node7"><a xlink:href="namespaceutil_1_1parallel.html#a47cb50d2db6de7cf2a786994f274cc9a" target="_top" xlink:title="Initializes MpiStatus struct.">
<polygon fill="none" stroke="black" points="592,-38.5 592,-57.5 721,-57.5 721,-38.5 592,-38.5"/>
<text text-anchor="middle" x="656.5" y="-45.5" font-family="Arial" font-size="10.00">util::parallel::initMpiStatus</text>
</a>
</g>
</g>
<!-- Node6&#45;&gt;Node7 -->
<g id="edge6" class="edge">
<title>Node6&#45;&gt;Node7</title>
<path fill="none" stroke="midnightblue" d="M556.11,-48C564.33,-48 573,-48 581.66,-48"/>
<polygon fill="midnightblue" stroke="midnightblue" points="581.79,-51.5 591.79,-48 581.79,-44.5 581.79,-51.5"/>
</g>
<!-- Node9 -->
<g id="node9" class="node">
<title>Node9</title>
<g id="a_node9"><a xlink:href="namespaceutil_1_1io.html#a38afb09a152cca4061850f4123bd3aeb" target="_top" xlink:title="Returns tab spaces of given size.">
<polygon fill="none" stroke="black" points="463,-0.5 463,-19.5 548,-19.5 548,-0.5 463,-0.5"/>
<text text-anchor="middle" x="505.5" y="-7.5" font-family="Arial" font-size="10.00">util::io::getTabS</text>
</a>
</g>
</g>
<!-- Node8&#45;&gt;Node9 -->
<g id="edge8" class="edge">
<title>Node8&#45;&gt;Node9</title>
<path fill="none" stroke="midnightblue" d="M403.87,-10C419,-10 436.5,-10 452.63,-10"/>
<polygon fill="midnightblue" stroke="midnightblue" points="452.98,-13.5 462.98,-10 452.98,-6.5 452.98,-13.5"/>
</g>
</g>
</svg>
