<?xml version="1.0" encoding="UTF-8" standalone="no"?>
<!DOCTYPE svg PUBLIC "-//W3C//DTD SVG 1.1//EN"
 "http://www.w3.org/Graphics/SVG/1.1/DTD/svg11.dtd">
<!-- Generated by graphviz version 2.43.0 (0)
 -->
<!-- Title: util::rotate Pages: 1 -->
<svg width="383pt" height="389pt"
 viewBox="0.00 0.00 383.00 389.00" xmlns="http://www.w3.org/2000/svg" xmlns:xlink="http://www.w3.org/1999/xlink">
<g id="graph0" class="graph" transform="scale(1 1) rotate(0) translate(4 385)">
<title>util::rotate</title>
<!-- Node1 -->
<g id="node1" class="node">
<title>Node1</title>
<g id="a_node1"><a xlink:title="Returns the vector after rotating by desired angle.">
<polygon fill="#bfbfbf" stroke="black" points="315,-181 315,-200 375,-200 375,-181 315,-181"/>
<text text-anchor="middle" x="345" y="-188" font-family="Arial" font-size="10.00">util::rotate</text>
</a>
</g>
</g>
<!-- Node2 -->
<g id="node2" class="node">
<title>Node2</title>
<g id="a_node2"><a xlink:href="structparticle_1_1ParticleTransform.html#ac84e7ec4803c9231dfb15bc181a2dc4f" target="_top" xlink:title="Returns the transformed vector. We assume that the passed vector passes through origin.">
<polygon fill="none" stroke="black" points="148,-350.5 148,-380.5 279,-380.5 279,-350.5 148,-350.5"/>
<text text-anchor="start" x="156" y="-368.5" font-family="Arial" font-size="10.00">particle::ParticleTransform</text>
<text text-anchor="middle" x="213.5" y="-357.5" font-family="Arial" font-size="10.00">::apply</text>
</a>
</g>
</g>
<!-- Node1&#45;&gt;Node2 -->
<g id="edge1" class="edge">
<title>Node1&#45;&gt;Node2</title>
<path fill="none" stroke="midnightblue" d="M340.71,-209.96C334.36,-241.74 317.48,-304.91 279,-341.5 275.36,-344.96 271.18,-347.93 266.74,-350.48"/>
<polygon fill="midnightblue" stroke="midnightblue" points="344.16,-210.59 342.54,-200.12 337.27,-209.31 344.16,-210.59"/>
</g>
<!-- Node4 -->
<g id="node4" class="node">
<title>Node4</title>
<g id="a_node4"><a xlink:href="classutil_1_1geometry_1_1Drum2D.html#ad9b0c988bf94ffb127b48e78d87d8cc6" target="_top" xlink:title="Constructor.">
<polygon fill="none" stroke="black" points="154,-301.5 154,-331.5 273,-331.5 273,-301.5 154,-301.5"/>
<text text-anchor="start" x="162" y="-319.5" font-family="Arial" font-size="10.00">util::geometry::Drum2D</text>
<text text-anchor="middle" x="213.5" y="-308.5" font-family="Arial" font-size="10.00">::Drum2D</text>
</a>
</g>
</g>
<!-- Node1&#45;&gt;Node4 -->
<g id="edge3" class="edge">
<title>Node1&#45;&gt;Node4</title>
<path fill="none" stroke="midnightblue" d="M336.08,-209.77C325.93,-232.25 306.34,-269.2 279,-291.5 274.35,-295.3 269.05,-298.56 263.54,-301.36"/>
<polygon fill="midnightblue" stroke="midnightblue" points="339.42,-210.85 340.18,-200.29 333,-208.07 339.42,-210.85"/>
</g>
<!-- Node5 -->
<g id="node5" class="node">
<title>Node5</title>
<g id="a_node5"><a xlink:href="namespaceutil.html#a5d24f7c5bb99a1ac5be5e1111660630e" target="_top" xlink:title=" ">
<polygon fill="none" stroke="black" points="153,-263 153,-282 274,-282 274,-263 153,-263"/>
<text text-anchor="middle" x="213.5" y="-270" font-family="Arial" font-size="10.00">util.get_ref_drum_points</text>
</a>
</g>
</g>
<!-- Node1&#45;&gt;Node5 -->
<g id="edge4" class="edge">
<title>Node1&#45;&gt;Node5</title>
<path fill="none" stroke="midnightblue" d="M330.04,-208.12C317.94,-222.28 299.23,-241.7 279,-253.5 272.45,-257.32 265.06,-260.43 257.69,-262.94"/>
<polygon fill="midnightblue" stroke="midnightblue" points="333,-210.03 336.68,-200.09 327.61,-205.57 333,-210.03"/>
</g>
<!-- Node7 -->
<g id="node7" class="node">
<title>Node7</title>
<g id="a_node7"><a xlink:href="namespaceutil.html#ae01097cd6b997f9618069ecb9a9bd961" target="_top" xlink:title=" ">
<polygon fill="none" stroke="black" points="156,-225 156,-244 271,-244 271,-225 156,-225"/>
<text text-anchor="middle" x="213.5" y="-232" font-family="Arial" font-size="10.00">util.get_ref_hex_points</text>
</a>
</g>
</g>
<!-- Node1&#45;&gt;Node7 -->
<g id="edge6" class="edge">
<title>Node1&#45;&gt;Node7</title>
<path fill="none" stroke="midnightblue" d="M311.02,-203.78C300.82,-207.72 289.5,-211.94 279,-215.5 269.27,-218.8 258.61,-222.07 248.81,-224.95"/>
<polygon fill="midnightblue" stroke="midnightblue" points="312.36,-207.01 320.4,-200.11 309.81,-200.49 312.36,-207.01"/>
</g>
<!-- Node9 -->
<g id="node9" class="node">
<title>Node9</title>
<g id="a_node9"><a xlink:href="classutil_1_1geometry_1_1Hexagon.html#a863ab95e2b0aa910ef6133e821341abe" target="_top" xlink:title="Constructor.">
<polygon fill="none" stroke="black" points="153,-175.5 153,-205.5 274,-205.5 274,-175.5 153,-175.5"/>
<text text-anchor="start" x="161" y="-193.5" font-family="Arial" font-size="10.00">util::geometry::Hexagon</text>
<text text-anchor="middle" x="213.5" y="-182.5" font-family="Arial" font-size="10.00">::Hexagon</text>
</a>
</g>
</g>
<!-- Node1&#45;&gt;Node9 -->
<g id="edge8" class="edge">
<title>Node1&#45;&gt;Node9</title>
<path fill="none" stroke="midnightblue" d="M304.85,-190.5C295.18,-190.5 284.6,-190.5 274.2,-190.5"/>
<polygon fill="midnightblue" stroke="midnightblue" points="304.94,-194 314.94,-190.5 304.94,-187 304.94,-194"/>
</g>
<!-- Node10 -->
<g id="node10" class="node">
<title>Node10</title>
<g id="a_node10"><a xlink:href="classutil_1_1geometry_1_1Drum2D.html#a3e79daf6f2dd929bf236004a72ad5b70" target="_top" xlink:title="Checks if point is inside this object.">
<polygon fill="none" stroke="black" points="154,-126.5 154,-156.5 273,-156.5 273,-126.5 154,-126.5"/>
<text text-anchor="start" x="162" y="-144.5" font-family="Arial" font-size="10.00">util::geometry::Drum2D</text>
<text text-anchor="middle" x="213.5" y="-133.5" font-family="Arial" font-size="10.00">::isInside</text>
</a>
</g>
</g>
<!-- Node1&#45;&gt;Node10 -->
<g id="edge9" class="edge">
<title>Node1&#45;&gt;Node10</title>
<path fill="none" stroke="midnightblue" d="M309.2,-177.33C292.25,-170.92 271.8,-163.18 254.24,-156.54"/>
<polygon fill="midnightblue" stroke="midnightblue" points="308.13,-180.67 318.72,-180.94 310.61,-174.12 308.13,-180.67"/>
</g>
<!-- Node11 -->
<g id="node11" class="node">
<title>Node11</title>
<g id="a_node11"><a xlink:href="namespaceutil.html#a2eb26fb8210f1e876857a6650cc7fbfe" target="_top" xlink:title=" ">
<polygon fill="none" stroke="black" points="185,-88 185,-107 242,-107 242,-88 185,-88"/>
<text text-anchor="middle" x="213.5" y="-95" font-family="Arial" font-size="10.00">util.rotate</text>
</a>
</g>
</g>
<!-- Node1&#45;&gt;Node11 -->
<g id="edge10" class="edge">
<title>Node1&#45;&gt;Node11</title>
<path fill="none" stroke="midnightblue" d="M332.39,-172.64C320.76,-156.09 301.39,-131.92 279,-117.5 267.96,-110.39 254.23,-105.68 242.29,-102.62"/>
<polygon fill="midnightblue" stroke="midnightblue" points="329.52,-174.64 338.03,-180.94 335.31,-170.7 329.52,-174.64"/>
</g>
<!-- Node12 -->
<g id="node12" class="node">
<title>Node12</title>
<g id="a_node12"><a xlink:href="namespacetest.html#ad3c8cad23ca76bc12534c5487df9a25f" target="_top" xlink:title="Test methods">
<polygon fill="none" stroke="black" points="159.5,-50 159.5,-69 267.5,-69 267.5,-50 159.5,-50"/>
<text text-anchor="middle" x="213.5" y="-57" font-family="Arial" font-size="10.00">test::testUtilMethods</text>
</a>
</g>
</g>
<!-- Node1&#45;&gt;Node12 -->
<g id="edge11" class="edge">
<title>Node1&#45;&gt;Node12</title>
<path fill="none" stroke="midnightblue" d="M337.89,-171.26C328.96,-146.21 309.94,-102.8 279,-78.5 274.04,-74.61 268.31,-71.51 262.34,-69.05"/>
<polygon fill="midnightblue" stroke="midnightblue" points="334.58,-172.4 341.11,-180.75 341.21,-170.16 334.58,-172.4"/>
</g>
<!-- Node14 -->
<g id="node14" class="node">
<title>Node14</title>
<g id="a_node14"><a xlink:href="classutil_1_1geometry_1_1Triangle.html#ad1e951f93e9d6422a967363c9199fa6b" target="_top" xlink:title="Constructor.">
<polygon fill="none" stroke="black" points="155.5,-0.5 155.5,-30.5 271.5,-30.5 271.5,-0.5 155.5,-0.5"/>
<text text-anchor="start" x="163.5" y="-18.5" font-family="Arial" font-size="10.00">util::geometry::Triangle</text>
<text text-anchor="middle" x="213.5" y="-7.5" font-family="Arial" font-size="10.00">::Triangle</text>
</a>
</g>
</g>
<!-- Node1&#45;&gt;Node14 -->
<g id="edge13" class="edge">
<title>Node1&#45;&gt;Node14</title>
<path fill="none" stroke="midnightblue" d="M340.53,-170.81C333.98,-139.19 316.9,-76.94 279,-40.5 275.02,-36.67 270.38,-33.41 265.46,-30.64"/>
<polygon fill="midnightblue" stroke="midnightblue" points="337.16,-171.81 342.49,-180.97 344.04,-170.49 337.16,-171.81"/>
</g>
<!-- Node3 -->
<g id="node3" class="node">
<title>Node3</title>
<g id="a_node3"><a xlink:href="classparticle_1_1Particle.html#a420f9e3bb2b356a937b2447064494ca1" target="_top" xlink:title="Constructor.">
<polygon fill="none" stroke="black" points="12.5,-350.5 12.5,-380.5 99.5,-380.5 99.5,-350.5 12.5,-350.5"/>
<text text-anchor="start" x="20.5" y="-368.5" font-family="Arial" font-size="10.00">particle::Particle</text>
<text text-anchor="middle" x="56" y="-357.5" font-family="Arial" font-size="10.00">::Particle</text>
</a>
</g>
</g>
<!-- Node2&#45;&gt;Node3 -->
<g id="edge2" class="edge">
<title>Node2&#45;&gt;Node3</title>
<path fill="none" stroke="midnightblue" d="M137.58,-365.5C124.65,-365.5 111.62,-365.5 99.91,-365.5"/>
<polygon fill="midnightblue" stroke="midnightblue" points="137.9,-369 147.9,-365.5 137.9,-362 137.9,-369"/>
</g>
<!-- Node6 -->
<g id="node6" class="node">
<title>Node6</title>
<g id="a_node6"><a xlink:href="namespaceutil.html#a7e15bd87271d00aa79d9fd69965cec1f" target="_top" xlink:title=" ">
<polygon fill="none" stroke="black" points="7.5,-262.5 7.5,-292.5 104.5,-292.5 104.5,-262.5 7.5,-262.5"/>
<text text-anchor="start" x="15.5" y="-280.5" font-family="Arial" font-size="10.00">util.generate_drum</text>
<text text-anchor="middle" x="56" y="-269.5" font-family="Arial" font-size="10.00">_gmsh_input</text>
</a>
</g>
</g>
<!-- Node5&#45;&gt;Node6 -->
<g id="edge5" class="edge">
<title>Node5&#45;&gt;Node6</title>
<path fill="none" stroke="midnightblue" d="M142.63,-274.75C129.8,-275.16 116.69,-275.58 104.7,-275.97"/>
<polygon fill="midnightblue" stroke="midnightblue" points="142.94,-278.24 152.82,-274.42 142.72,-271.24 142.94,-278.24"/>
</g>
<!-- Node8 -->
<g id="node8" class="node">
<title>Node8</title>
<g id="a_node8"><a xlink:href="namespaceutil.html#a49e20c8c2bf46de2b79f1c833602e5ba" target="_top" xlink:title=" ">
<polygon fill="none" stroke="black" points="0,-213.5 0,-243.5 112,-243.5 112,-213.5 0,-213.5"/>
<text text-anchor="start" x="8" y="-231.5" font-family="Arial" font-size="10.00">util.generate_hexagon</text>
<text text-anchor="middle" x="56" y="-220.5" font-family="Arial" font-size="10.00">_gmsh_input</text>
</a>
</g>
</g>
<!-- Node7&#45;&gt;Node8 -->
<g id="edge7" class="edge">
<title>Node7&#45;&gt;Node8</title>
<path fill="none" stroke="midnightblue" d="M145.77,-231.93C134.58,-231.49 123.09,-231.05 112.24,-230.63"/>
<polygon fill="midnightblue" stroke="midnightblue" points="145.79,-235.43 155.92,-232.32 146.06,-228.43 145.79,-235.43"/>
</g>
<!-- Node13 -->
<g id="node13" class="node">
<title>Node13</title>
<g id="a_node13"><a xlink:href="testUtil_8cpp.html#a0ddf1224851353fc92bfbff6f499fa97" target="_top" xlink:title=" ">
<polygon fill="none" stroke="black" points="37,-50 37,-69 75,-69 75,-50 37,-50"/>
<text text-anchor="middle" x="56" y="-57" font-family="Arial" font-size="10.00">main</text>
</a>
</g>
</g>
<!-- Node12&#45;&gt;Node13 -->
<g id="edge12" class="edge">
<title>Node12&#45;&gt;Node13</title>
<path fill="none" stroke="midnightblue" d="M149.32,-59.5C122.6,-59.5 93.49,-59.5 75.24,-59.5"/>
<polygon fill="midnightblue" stroke="midnightblue" points="149.42,-63 159.42,-59.5 149.42,-56 149.42,-63"/>
</g>
</g>
</svg>
