<?xml version="1.0" encoding="UTF-8" standalone="no"?>
<!DOCTYPE svg PUBLIC "-//W3C//DTD SVG 1.1//EN"
 "http://www.w3.org/Graphics/SVG/1.1/DTD/svg11.dtd">
<!-- Generated by graphviz version 2.43.0 (0)
 -->
<!-- Title: /home/user/project/src/nsearch/nflannSetup.h Pages: 1 -->
<svg width="1417pt" height="396pt"
 viewBox="0.00 0.00 1416.50 396.00" xmlns="http://www.w3.org/2000/svg" xmlns:xlink="http://www.w3.org/1999/xlink">
<g id="graph0" class="graph" transform="scale(1 1) rotate(0) translate(4 392)">
<title>/home/user/project/src/nsearch/nflannSetup.h</title>
<!-- Node1 -->
<g id="node1" class="node">
<title>Node1</title>
<g id="a_node1"><a xlink:title=" ">
<polygon fill="#bfbfbf" stroke="black" points="767.5,-357.5 767.5,-387.5 901.5,-387.5 901.5,-357.5 767.5,-357.5"/>
<text text-anchor="start" x="775.5" y="-375.5" font-family="Arial" font-size="10.00">/home/user/project</text>
<text text-anchor="middle" x="834.5" y="-364.5" font-family="Arial" font-size="10.00">/src/nsearch/nflannSetup.h</text>
</a>
</g>
</g>
<!-- Node2 -->
<g id="node2" class="node">
<title>Node2</title>
<g id="a_node2"><a xlink:href="nsearch_8h.html" target="_top" xlink:title=" ">
<polygon fill="none" stroke="black" points="776.5,-290.5 776.5,-320.5 892.5,-320.5 892.5,-290.5 776.5,-290.5"/>
<text text-anchor="start" x="784.5" y="-308.5" font-family="Arial" font-size="10.00">/home/user/project</text>
<text text-anchor="middle" x="834.5" y="-297.5" font-family="Arial" font-size="10.00">/src/nsearch/nsearch.h</text>
</a>
</g>
</g>
<!-- Node1&#45;&gt;Node2 -->
<g id="edge1" class="edge">
<title>Node1&#45;&gt;Node2</title>
<path fill="none" stroke="midnightblue" d="M834.5,-347.11C834.5,-338.15 834.5,-328.32 834.5,-320.58"/>
<polygon fill="midnightblue" stroke="midnightblue" points="831,-347.4 834.5,-357.4 838,-347.4 831,-347.4"/>
</g>
<!-- Node3 -->
<g id="node3" class="node">
<title>Node3</title>
<g id="a_node3"><a xlink:href="geometryUtil_8cpp.html" target="_top" xlink:title=" ">
<polygon fill="none" stroke="black" points="459.5,-218 459.5,-248 613.5,-248 613.5,-218 459.5,-218"/>
<text text-anchor="start" x="467.5" y="-236" font-family="Arial" font-size="10.00">/home/user/project</text>
<text text-anchor="middle" x="536.5" y="-225" font-family="Arial" font-size="10.00">/src/geometry/geometryUtil.cpp</text>
</a>
</g>
</g>
<!-- Node2&#45;&gt;Node3 -->
<g id="edge2" class="edge">
<title>Node2&#45;&gt;Node3</title>
<path fill="none" stroke="midnightblue" d="M766.3,-288.37C714.84,-276.19 644.94,-259.65 595.79,-248.03"/>
<polygon fill="midnightblue" stroke="midnightblue" points="765.8,-291.84 776.34,-290.74 767.41,-285.03 765.8,-291.84"/>
</g>
<!-- Node4 -->
<g id="node4" class="node">
<title>Node4</title>
<g id="a_node4"><a xlink:href="modelData_8h.html" target="_top" xlink:title=" ">
<polygon fill="none" stroke="black" points="632,-218 632,-248 753,-248 753,-218 632,-218"/>
<text text-anchor="start" x="640" y="-236" font-family="Arial" font-size="10.00">/home/user/project</text>
<text text-anchor="middle" x="692.5" y="-225" font-family="Arial" font-size="10.00">/src/model/modelData.h</text>
</a>
</g>
</g>
<!-- Node2&#45;&gt;Node4 -->
<g id="edge3" class="edge">
<title>Node2&#45;&gt;Node4</title>
<path fill="none" stroke="midnightblue" d="M796.98,-285.87C773.11,-274.02 742.7,-258.92 720.85,-248.07"/>
<polygon fill="midnightblue" stroke="midnightblue" points="795.59,-289.09 806.11,-290.4 798.71,-282.82 795.59,-289.09"/>
</g>
<!-- Node23 -->
<g id="node22" class="node">
<title>Node23</title>
<g id="a_node22"><a xlink:href="nsearch_8cpp.html" target="_top" xlink:title=" ">
<polygon fill="none" stroke="black" points="771,-218 771,-248 898,-248 898,-218 771,-218"/>
<text text-anchor="start" x="779" y="-236" font-family="Arial" font-size="10.00">/home/user/project</text>
<text text-anchor="middle" x="834.5" y="-225" font-family="Arial" font-size="10.00">/src/nsearch/nsearch.cpp</text>
</a>
</g>
</g>
<!-- Node2&#45;&gt;Node23 -->
<g id="edge37" class="edge">
<title>Node2&#45;&gt;Node23</title>
<path fill="none" stroke="midnightblue" d="M834.5,-280.23C834.5,-269.57 834.5,-257.41 834.5,-248.25"/>
<polygon fill="midnightblue" stroke="midnightblue" points="831,-280.23 834.5,-290.23 838,-280.23 831,-280.23"/>
</g>
<!-- Node24 -->
<g id="node23" class="node">
<title>Node24</title>
<g id="a_node23"><a xlink:href="testFeLib_8cpp.html" target="_top" xlink:title=" ">
<polygon fill="none" stroke="black" points="916,-218 916,-248 1071,-248 1071,-218 916,-218"/>
<text text-anchor="start" x="924" y="-236" font-family="Arial" font-size="10.00">/home/user/project</text>
<text text-anchor="middle" x="993.5" y="-225" font-family="Arial" font-size="10.00">/test/test_exec/fe/testFeLib.cpp</text>
</a>
</g>
</g>
<!-- Node2&#45;&gt;Node24 -->
<g id="edge38" class="edge">
<title>Node2&#45;&gt;Node24</title>
<path fill="none" stroke="midnightblue" d="M875.45,-286.34C902.33,-274.42 936.97,-259.07 961.76,-248.07"/>
<polygon fill="midnightblue" stroke="midnightblue" points="874.02,-283.15 866.29,-290.4 876.85,-289.55 874.02,-283.15"/>
</g>
<!-- Node25 -->
<g id="node24" class="node">
<title>Node25</title>
<g id="a_node24"><a xlink:href="testNSearchLib_8cpp.html" target="_top" xlink:title=" ">
<polygon fill="none" stroke="black" points="1089,-212.5 1089,-253.5 1208,-253.5 1208,-212.5 1089,-212.5"/>
<text text-anchor="start" x="1097" y="-241.5" font-family="Arial" font-size="10.00">/home/user/project</text>
<text text-anchor="start" x="1097" y="-230.5" font-family="Arial" font-size="10.00">/test/test_exec/nsearch</text>
<text text-anchor="middle" x="1148.5" y="-219.5" font-family="Arial" font-size="10.00">/testNSearchLib.cpp</text>
</a>
</g>
</g>
<!-- Node2&#45;&gt;Node25 -->
<g id="edge39" class="edge">
<title>Node2&#45;&gt;Node25</title>
<path fill="none" stroke="midnightblue" d="M902.93,-292.04C952.48,-282.64 1020.93,-268.85 1080.5,-254 1083.25,-253.32 1086.05,-252.59 1088.87,-251.84"/>
<polygon fill="midnightblue" stroke="midnightblue" points="902.14,-288.63 892.96,-293.92 903.44,-295.51 902.14,-288.63"/>
</g>
<!-- Node5 -->
<g id="node5" class="node">
<title>Node5</title>
<g id="a_node5"><a xlink:href="demModel_8h.html" target="_top" xlink:title=" ">
<polygon fill="none" stroke="black" points="159.5,-145.5 159.5,-175.5 299.5,-175.5 299.5,-145.5 159.5,-145.5"/>
<text text-anchor="start" x="167.5" y="-163.5" font-family="Arial" font-size="10.00">/home/user/project</text>
<text text-anchor="middle" x="229.5" y="-152.5" font-family="Arial" font-size="10.00">/src/model/dem/demModel.h</text>
</a>
</g>
</g>
<!-- Node4&#45;&gt;Node5 -->
<g id="edge4" class="edge">
<title>Node4&#45;&gt;Node5</title>
<path fill="none" stroke="midnightblue" d="M637.13,-215.35C632.21,-214.13 627.28,-212.98 622.5,-212 510.65,-188.97 378.61,-174.57 299.6,-167.3"/>
<polygon fill="midnightblue" stroke="midnightblue" points="636.62,-218.84 647.18,-217.98 638.39,-212.07 636.62,-218.84"/>
</g>
<!-- Node10 -->
<g id="node10" class="node">
<title>Node10</title>
<g id="a_node10"><a xlink:href="materialUtil_8h.html" target="_top" xlink:title=" ">
<polygon fill="none" stroke="black" points="456,-73 456,-103 587,-103 587,-73 456,-73"/>
<text text-anchor="start" x="464" y="-91" font-family="Arial" font-size="10.00">/home/user/project</text>
<text text-anchor="middle" x="521.5" y="-80" font-family="Arial" font-size="10.00">/src/material/materialUtil.h</text>
</a>
</g>
</g>
<!-- Node4&#45;&gt;Node10 -->
<g id="edge9" class="edge">
<title>Node4&#45;&gt;Node10</title>
<path fill="none" stroke="midnightblue" d="M656.56,-212.96C639.17,-202.99 618.44,-189.97 601.5,-176 573.95,-153.29 546.89,-121.26 532.39,-103.07"/>
<polygon fill="midnightblue" stroke="midnightblue" points="654.89,-216.03 665.32,-217.88 658.32,-209.93 654.89,-216.03"/>
</g>
<!-- Node14 -->
<g id="node14" class="node">
<title>Node14</title>
<g id="a_node14"><a xlink:href="modelData_8cpp.html" target="_top" xlink:title=" ">
<polygon fill="none" stroke="black" points="913,-0.5 913,-30.5 1044,-30.5 1044,-0.5 913,-0.5"/>
<text text-anchor="start" x="921" y="-18.5" font-family="Arial" font-size="10.00">/home/user/project</text>
<text text-anchor="middle" x="978.5" y="-7.5" font-family="Arial" font-size="10.00">/src/model/modelData.cpp</text>
</a>
</g>
</g>
<!-- Node4&#45;&gt;Node14 -->
<g id="edge14" class="edge">
<title>Node4&#45;&gt;Node14</title>
<path fill="none" stroke="midnightblue" d="M672.69,-210.29C643.88,-176.05 597.65,-109.09 634.5,-67 674.37,-21.46 844.77,-40.82 904.5,-31 907.21,-30.55 909.98,-30.08 912.77,-29.6"/>
<polygon fill="midnightblue" stroke="midnightblue" points="670.05,-212.58 679.23,-217.86 675.35,-208.01 670.05,-212.58"/>
</g>
<!-- Node15 -->
<g id="node15" class="node">
<title>Node15</title>
<g id="a_node15"><a xlink:href="baseParticle_8h.html" target="_top" xlink:title=" ">
<polygon fill="none" stroke="black" points="928,-145.5 928,-175.5 1061,-175.5 1061,-145.5 928,-145.5"/>
<text text-anchor="start" x="936" y="-163.5" font-family="Arial" font-size="10.00">/home/user/project</text>
<text text-anchor="middle" x="994.5" y="-152.5" font-family="Arial" font-size="10.00">/src/particle/baseParticle.h</text>
</a>
</g>
</g>
<!-- Node4&#45;&gt;Node15 -->
<g id="edge15" class="edge">
<title>Node4&#45;&gt;Node15</title>
<path fill="none" stroke="midnightblue" d="M750.03,-215.25C754.24,-214.12 758.43,-213.02 762.5,-212 817.97,-198.05 881.46,-184.39 927.99,-174.8"/>
<polygon fill="midnightblue" stroke="midnightblue" points="748.94,-211.92 740.21,-217.93 750.78,-218.67 748.94,-211.92"/>
</g>
<!-- Node19 -->
<g id="node19" class="node">
<title>Node19</title>
<g id="a_node19"><a xlink:href="vtkParticleReader_8cpp.html" target="_top" xlink:title=" ">
<polygon fill="none" stroke="black" points="1062.5,-0.5 1062.5,-30.5 1208.5,-30.5 1208.5,-0.5 1062.5,-0.5"/>
<text text-anchor="start" x="1070.5" y="-18.5" font-family="Arial" font-size="10.00">/home/user/project</text>
<text text-anchor="middle" x="1135.5" y="-7.5" font-family="Arial" font-size="10.00">/src/rw/vtkParticleReader.cpp</text>
</a>
</g>
</g>
<!-- Node4&#45;&gt;Node19 -->
<g id="edge35" class="edge">
<title>Node4&#45;&gt;Node19</title>
<path fill="none" stroke="midnightblue" d="M747.86,-215.3C752.78,-214.08 757.72,-212.96 762.5,-212 884.43,-187.62 1237.21,-207.96 1312.5,-109 1323.8,-94.14 1323.74,-81.9 1312.5,-67 1299.56,-49.85 1251.35,-36.78 1208.52,-28.24"/>
<polygon fill="midnightblue" stroke="midnightblue" points="746.6,-212.01 737.8,-217.9 748.36,-218.78 746.6,-212.01"/>
</g>
<!-- Node20 -->
<g id="node20" class="node">
<title>Node20</title>
<g id="a_node20"><a xlink:href="vtkParticleWriter_8cpp.html" target="_top" xlink:title=" ">
<polygon fill="none" stroke="black" points="1268.5,-0.5 1268.5,-30.5 1408.5,-30.5 1408.5,-0.5 1268.5,-0.5"/>
<text text-anchor="start" x="1276.5" y="-18.5" font-family="Arial" font-size="10.00">/home/user/project</text>
<text text-anchor="middle" x="1338.5" y="-7.5" font-family="Arial" font-size="10.00">/src/rw/vtkParticleWriter.cpp</text>
</a>
</g>
</g>
<!-- Node4&#45;&gt;Node20 -->
<g id="edge36" class="edge">
<title>Node4&#45;&gt;Node20</title>
<path fill="none" stroke="midnightblue" d="M746.32,-215.46C751.75,-214.14 757.21,-212.95 762.5,-212 963.88,-175.71 1026.19,-237.04 1221.5,-176 1277.96,-158.36 1306.47,-159.96 1336.5,-109 1350.85,-84.64 1346.41,-50.06 1342.24,-30.82"/>
<polygon fill="midnightblue" stroke="midnightblue" points="745.44,-212.07 736.62,-217.95 747.18,-218.85 745.44,-212.07"/>
</g>
<!-- Node22 -->
<g id="node21" class="node">
<title>Node22</title>
<g id="a_node21"><a xlink:href="wall_8h.html" target="_top" xlink:title=" ">
<polygon fill="none" stroke="black" points="643.5,-73 643.5,-103 741.5,-103 741.5,-73 643.5,-73"/>
<text text-anchor="start" x="651.5" y="-91" font-family="Arial" font-size="10.00">/home/user/project</text>
<text text-anchor="middle" x="692.5" y="-80" font-family="Arial" font-size="10.00">/src/particle/wall.h</text>
</a>
</g>
</g>
<!-- Node4&#45;&gt;Node22 -->
<g id="edge34" class="edge">
<title>Node4&#45;&gt;Node22</title>
<path fill="none" stroke="midnightblue" d="M692.5,-207.69C692.5,-177.66 692.5,-127.55 692.5,-103.18"/>
<polygon fill="midnightblue" stroke="midnightblue" points="689,-207.77 692.5,-217.77 696,-207.77 689,-207.77"/>
</g>
<!-- Node6 -->
<g id="node6" class="node">
<title>Node6</title>
<g id="a_node6"><a xlink:href="apps_2twop_2main_8cpp.html" target="_top" xlink:title=" ">
<polygon fill="none" stroke="black" points="176,-73 176,-103 283,-103 283,-73 176,-73"/>
<text text-anchor="start" x="184" y="-91" font-family="Arial" font-size="10.00">/home/user/project</text>
<text text-anchor="middle" x="229.5" y="-80" font-family="Arial" font-size="10.00">/apps/twop/main.cpp</text>
</a>
</g>
</g>
<!-- Node5&#45;&gt;Node6 -->
<g id="edge5" class="edge">
<title>Node5&#45;&gt;Node6</title>
<path fill="none" stroke="midnightblue" d="M229.5,-135.23C229.5,-124.57 229.5,-112.41 229.5,-103.25"/>
<polygon fill="midnightblue" stroke="midnightblue" points="226,-135.23 229.5,-145.23 233,-135.23 226,-135.23"/>
</g>
<!-- Node7 -->
<g id="node7" class="node">
<title>Node7</title>
<g id="a_node7"><a xlink:href="src_2main_8cpp.html" target="_top" xlink:title=" ">
<polygon fill="none" stroke="black" points="301.5,-73 301.5,-103 399.5,-103 399.5,-73 301.5,-73"/>
<text text-anchor="start" x="309.5" y="-91" font-family="Arial" font-size="10.00">/home/user/project</text>
<text text-anchor="middle" x="350.5" y="-80" font-family="Arial" font-size="10.00">/src/main.cpp</text>
</a>
</g>
</g>
<!-- Node5&#45;&gt;Node7 -->
<g id="edge6" class="edge">
<title>Node5&#45;&gt;Node7</title>
<path fill="none" stroke="midnightblue" d="M262.55,-140.24C282.72,-128.49 308.06,-113.73 326.35,-103.07"/>
<polygon fill="midnightblue" stroke="midnightblue" points="260.57,-137.34 253.7,-145.4 264.1,-143.39 260.57,-137.34"/>
</g>
<!-- Node8 -->
<g id="node8" class="node">
<title>Node8</title>
<g id="a_node8"><a xlink:href="demModel_8cpp.html" target="_top" xlink:title=" ">
<polygon fill="none" stroke="black" points="605,-0.5 605,-30.5 756,-30.5 756,-0.5 605,-0.5"/>
<text text-anchor="start" x="613" y="-18.5" font-family="Arial" font-size="10.00">/home/user/project</text>
<text text-anchor="middle" x="680.5" y="-7.5" font-family="Arial" font-size="10.00">/src/model/dem/demModel.cpp</text>
</a>
</g>
</g>
<!-- Node5&#45;&gt;Node8 -->
<g id="edge7" class="edge">
<title>Node5&#45;&gt;Node8</title>
<path fill="none" stroke="midnightblue" d="M193.93,-139.69C183.07,-131.69 172.45,-121.39 166.5,-109 158.42,-92.17 153.86,-80.74 166.5,-67 198.88,-31.79 548.05,-37.03 595.5,-31 598.47,-30.62 601.5,-30.22 604.55,-29.79"/>
<polygon fill="midnightblue" stroke="midnightblue" points="191.97,-142.59 202.2,-145.36 195.93,-136.82 191.97,-142.59"/>
</g>
<!-- Node9 -->
<g id="node9" class="node">
<title>Node9</title>
<g id="a_node9"><a xlink:href="testPeriDEMLib_8cpp.html" target="_top" xlink:title=" ">
<polygon fill="none" stroke="black" points="0,-67.5 0,-108.5 119,-108.5 119,-67.5 0,-67.5"/>
<text text-anchor="start" x="8" y="-96.5" font-family="Arial" font-size="10.00">/home/user/project</text>
<text text-anchor="start" x="8" y="-85.5" font-family="Arial" font-size="10.00">/test/test_exec/peridem</text>
<text text-anchor="middle" x="59.5" y="-74.5" font-family="Arial" font-size="10.00">/testPeriDEMLib.cpp</text>
</a>
</g>
</g>
<!-- Node5&#45;&gt;Node9 -->
<g id="edge8" class="edge">
<title>Node5&#45;&gt;Node9</title>
<path fill="none" stroke="midnightblue" d="M186.17,-141.53C161.87,-131.45 131.53,-118.87 106.63,-108.55"/>
<polygon fill="midnightblue" stroke="midnightblue" points="184.93,-144.8 195.51,-145.4 187.61,-138.34 184.93,-144.8"/>
</g>
<!-- Node10&#45;&gt;Node8 -->
<g id="edge11" class="edge">
<title>Node10&#45;&gt;Node8</title>
<path fill="none" stroke="midnightblue" d="M562.45,-68.84C589.33,-56.92 623.97,-41.57 648.76,-30.57"/>
<polygon fill="midnightblue" stroke="midnightblue" points="561.02,-65.65 553.29,-72.9 563.85,-72.05 561.02,-65.65"/>
</g>
<!-- Node11 -->
<g id="node11" class="node">
<title>Node11</title>
<g id="a_node11"><a xlink:href="materialUtil_8cpp.html" target="_top" xlink:title=" ">
<polygon fill="none" stroke="black" points="319.5,-0.5 319.5,-30.5 461.5,-30.5 461.5,-0.5 319.5,-0.5"/>
<text text-anchor="start" x="327.5" y="-18.5" font-family="Arial" font-size="10.00">/home/user/project</text>
<text text-anchor="middle" x="390.5" y="-7.5" font-family="Arial" font-size="10.00">/src/material/materialUtil.cpp</text>
</a>
</g>
</g>
<!-- Node10&#45;&gt;Node11 -->
<g id="edge10" class="edge">
<title>Node10&#45;&gt;Node11</title>
<path fill="none" stroke="midnightblue" d="M486.3,-68.06C464.37,-56.26 436.63,-41.33 416.65,-30.57"/>
<polygon fill="midnightblue" stroke="midnightblue" points="484.84,-71.25 495.31,-72.9 488.16,-65.08 484.84,-71.25"/>
</g>
<!-- Node12 -->
<g id="node12" class="node">
<title>Node12</title>
<g id="a_node12"><a xlink:href="particle_8cpp.html" target="_top" xlink:title=" ">
<polygon fill="none" stroke="black" points="774,-0.5 774,-30.5 895,-30.5 895,-0.5 774,-0.5"/>
<text text-anchor="start" x="782" y="-18.5" font-family="Arial" font-size="10.00">/home/user/project</text>
<text text-anchor="middle" x="834.5" y="-7.5" font-family="Arial" font-size="10.00">/src/particle/particle.cpp</text>
</a>
</g>
</g>
<!-- Node10&#45;&gt;Node12 -->
<g id="edge12" class="edge">
<title>Node10&#45;&gt;Node12</title>
<path fill="none" stroke="midnightblue" d="M587.02,-70.44C591.91,-69.26 596.78,-68.1 601.5,-67 633.65,-59.5 716.18,-41.74 773.84,-29.42"/>
<polygon fill="midnightblue" stroke="midnightblue" points="585.85,-67.13 576.96,-72.89 587.51,-73.93 585.85,-67.13"/>
</g>
<!-- Node13 -->
<g id="node13" class="node">
<title>Node13</title>
<g id="a_node13"><a xlink:href="wall_8cpp.html" target="_top" xlink:title=" ">
<polygon fill="none" stroke="black" points="480,-0.5 480,-30.5 587,-30.5 587,-0.5 480,-0.5"/>
<text text-anchor="start" x="488" y="-18.5" font-family="Arial" font-size="10.00">/home/user/project</text>
<text text-anchor="middle" x="533.5" y="-7.5" font-family="Arial" font-size="10.00">/src/particle/wall.cpp</text>
</a>
</g>
</g>
<!-- Node10&#45;&gt;Node13 -->
<g id="edge13" class="edge">
<title>Node10&#45;&gt;Node13</title>
<path fill="none" stroke="midnightblue" d="M525.63,-62.73C527.45,-52.07 529.51,-39.91 531.08,-30.75"/>
<polygon fill="midnightblue" stroke="midnightblue" points="522.16,-62.29 523.93,-72.73 529.06,-63.46 522.16,-62.29"/>
</g>
<!-- Node15&#45;&gt;Node11 -->
<g id="edge18" class="edge">
<title>Node15&#45;&gt;Node11</title>
<path fill="none" stroke="midnightblue" d="M917.66,-156.24C776.23,-149.68 485.51,-133.41 446.5,-109 417.54,-90.88 401.45,-51.77 394.57,-30.68"/>
<polygon fill="midnightblue" stroke="midnightblue" points="917.84,-159.75 927.99,-156.71 918.17,-152.76 917.84,-159.75"/>
</g>
<!-- Node15&#45;&gt;Node14 -->
<g id="edge19" class="edge">
<title>Node15&#45;&gt;Node14</title>
<path fill="none" stroke="midnightblue" d="M1030.62,-139.8C1041.65,-131.81 1052.45,-121.48 1058.5,-109 1066.64,-92.2 1067.51,-83.35 1058.5,-67 1049.38,-50.46 1032.31,-38.59 1016.27,-30.53"/>
<polygon fill="midnightblue" stroke="midnightblue" points="1028.57,-136.97 1022.22,-145.46 1032.48,-142.78 1028.57,-136.97"/>
</g>
<!-- Node16 -->
<g id="node16" class="node">
<title>Node16</title>
<g id="a_node16"><a xlink:href="particleFLoading_8cpp.html" target="_top" xlink:title=" ">
<polygon fill="none" stroke="black" points="1143.5,-73 1143.5,-103 1303.5,-103 1303.5,-73 1143.5,-73"/>
<text text-anchor="start" x="1151.5" y="-91" font-family="Arial" font-size="10.00">/home/user/project</text>
<text text-anchor="middle" x="1223.5" y="-80" font-family="Arial" font-size="10.00">/src/loading/particleFLoading.cpp</text>
</a>
</g>
</g>
<!-- Node15&#45;&gt;Node16 -->
<g id="edge16" class="edge">
<title>Node15&#45;&gt;Node16</title>
<path fill="none" stroke="midnightblue" d="M1049.68,-142.51C1088.84,-130.46 1140.8,-114.46 1177.68,-103.11"/>
<polygon fill="midnightblue" stroke="midnightblue" points="1048.54,-139.2 1040.02,-145.49 1050.6,-145.89 1048.54,-139.2"/>
</g>
<!-- Node17 -->
<g id="node17" class="node">
<title>Node17</title>
<g id="a_node17"><a xlink:href="particleULoading_8cpp.html" target="_top" xlink:title=" ">
<polygon fill="none" stroke="black" points="760,-73 760,-103 921,-103 921,-73 760,-73"/>
<text text-anchor="start" x="768" y="-91" font-family="Arial" font-size="10.00">/home/user/project</text>
<text text-anchor="middle" x="840.5" y="-80" font-family="Arial" font-size="10.00">/src/loading/particleULoading.cpp</text>
</a>
</g>
</g>
<!-- Node15&#45;&gt;Node17 -->
<g id="edge17" class="edge">
<title>Node15&#45;&gt;Node17</title>
<path fill="none" stroke="midnightblue" d="M954.5,-141.19C928.51,-129.29 895.15,-114.02 871.24,-103.07"/>
<polygon fill="midnightblue" stroke="midnightblue" points="953.16,-144.42 963.71,-145.4 956.07,-138.06 953.16,-144.42"/>
</g>
<!-- Node18 -->
<g id="node18" class="node">
<title>Node18</title>
<g id="a_node18"><a xlink:href="particle_8h.html" target="_top" xlink:title=" ">
<polygon fill="none" stroke="red" points="939.5,-73 939.5,-103 1049.5,-103 1049.5,-73 939.5,-73"/>
<text text-anchor="start" x="947.5" y="-91" font-family="Arial" font-size="10.00">/home/user/project</text>
<text text-anchor="middle" x="994.5" y="-80" font-family="Arial" font-size="10.00">/src/particle/particle.h</text>
</a>
</g>
</g>
<!-- Node15&#45;&gt;Node18 -->
<g id="edge20" class="edge">
<title>Node15&#45;&gt;Node18</title>
<path fill="none" stroke="midnightblue" d="M994.5,-135.23C994.5,-124.57 994.5,-112.41 994.5,-103.25"/>
<polygon fill="midnightblue" stroke="midnightblue" points="991,-135.23 994.5,-145.23 998,-135.23 991,-135.23"/>
</g>
<!-- Node15&#45;&gt;Node19 -->
<g id="edge32" class="edge">
<title>Node15&#45;&gt;Node19</title>
<path fill="none" stroke="midnightblue" d="M1032.43,-140.48C1046.93,-132.08 1062.97,-121.31 1075.5,-109 1099.67,-85.26 1119.1,-50.13 1128.79,-30.71"/>
<polygon fill="midnightblue" stroke="midnightblue" points="1030.67,-137.46 1023.65,-145.4 1034.09,-143.57 1030.67,-137.46"/>
</g>
<!-- Node15&#45;&gt;Node20 -->
<g id="edge33" class="edge">
<title>Node15&#45;&gt;Node20</title>
<path fill="none" stroke="midnightblue" d="M1071.1,-156.65C1153.59,-152 1277.72,-139.94 1312.5,-109 1334.93,-89.04 1338.67,-51.42 1338.92,-30.84"/>
<polygon fill="midnightblue" stroke="midnightblue" points="1070.8,-153.16 1061,-157.19 1071.18,-160.15 1070.8,-153.16"/>
</g>
<!-- Node15&#45;&gt;Node22 -->
<g id="edge26" class="edge">
<title>Node15&#45;&gt;Node22</title>
<path fill="none" stroke="midnightblue" d="M917.94,-146.07C869.81,-137.02 806.62,-124.01 751.5,-109 745.03,-107.24 738.23,-105.16 731.65,-103.01"/>
<polygon fill="midnightblue" stroke="midnightblue" points="917.5,-149.55 927.98,-147.94 918.79,-142.67 917.5,-149.55"/>
</g>
<!-- Node18&#45;&gt;Node8 -->
<g id="edge21" class="edge">
<title>Node18&#45;&gt;Node8</title>
<path fill="none" stroke="midnightblue" d="M942.01,-70.12C938.13,-69.02 934.26,-67.96 930.5,-67 872.49,-52.12 806,-38.87 756.17,-29.68"/>
<polygon fill="midnightblue" stroke="midnightblue" points="941.06,-73.49 951.64,-72.94 943.03,-66.77 941.06,-73.49"/>
</g>
<!-- Node18&#45;&gt;Node12 -->
<g id="edge23" class="edge">
<title>Node18&#45;&gt;Node12</title>
<path fill="none" stroke="midnightblue" d="M953.29,-68.84C926.24,-56.92 891.39,-41.57 866.44,-30.57"/>
<polygon fill="midnightblue" stroke="midnightblue" points="951.94,-72.07 962.51,-72.9 954.77,-65.67 951.94,-72.07"/>
</g>
<!-- Node18&#45;&gt;Node14 -->
<g id="edge22" class="edge">
<title>Node18&#45;&gt;Node14</title>
<path fill="none" stroke="midnightblue" d="M988.99,-62.73C986.57,-52.07 983.81,-39.91 981.73,-30.75"/>
<polygon fill="midnightblue" stroke="midnightblue" points="985.64,-63.76 991.26,-72.73 992.46,-62.21 985.64,-63.76"/>
</g>
<!-- Node18&#45;&gt;Node19 -->
<g id="edge24" class="edge">
<title>Node18&#45;&gt;Node19</title>
<path fill="none" stroke="midnightblue" d="M1031.75,-68.37C1055.45,-56.52 1085.66,-41.42 1107.35,-30.57"/>
<polygon fill="midnightblue" stroke="midnightblue" points="1030.07,-65.3 1022.69,-72.9 1033.2,-71.56 1030.07,-65.3"/>
</g>
<!-- Node18&#45;&gt;Node20 -->
<g id="edge25" class="edge">
<title>Node18&#45;&gt;Node20</title>
<path fill="none" stroke="midnightblue" d="M1059.91,-73.59C1120.07,-61.27 1208.93,-43.05 1270.04,-30.53"/>
<polygon fill="midnightblue" stroke="midnightblue" points="1058.86,-70.24 1049.77,-75.67 1060.27,-77.09 1058.86,-70.24"/>
</g>
<!-- Node22&#45;&gt;Node8 -->
<g id="edge27" class="edge">
<title>Node22&#45;&gt;Node8</title>
<path fill="none" stroke="midnightblue" d="M688.37,-62.73C686.55,-52.07 684.49,-39.91 682.92,-30.75"/>
<polygon fill="midnightblue" stroke="midnightblue" points="684.94,-63.46 690.07,-72.73 691.84,-62.29 684.94,-63.46"/>
</g>
<!-- Node22&#45;&gt;Node13 -->
<g id="edge29" class="edge">
<title>Node22&#45;&gt;Node13</title>
<path fill="none" stroke="midnightblue" d="M651.55,-68.84C624.67,-56.92 590.03,-41.57 565.24,-30.57"/>
<polygon fill="midnightblue" stroke="midnightblue" points="650.15,-72.05 660.71,-72.9 652.98,-65.65 650.15,-72.05"/>
</g>
<!-- Node22&#45;&gt;Node14 -->
<g id="edge28" class="edge">
<title>Node22&#45;&gt;Node14</title>
<path fill="none" stroke="midnightblue" d="M741.79,-69.85C745.07,-68.85 748.32,-67.89 751.5,-67 781.34,-58.65 857.01,-42.16 912.82,-30.29"/>
<polygon fill="midnightblue" stroke="midnightblue" points="740.46,-66.6 731.99,-72.96 742.58,-73.28 740.46,-66.6"/>
</g>
<!-- Node22&#45;&gt;Node19 -->
<g id="edge30" class="edge">
<title>Node22&#45;&gt;Node19</title>
<path fill="none" stroke="midnightblue" d="M739.88,-69.99C743.79,-68.88 747.69,-67.86 751.5,-67 883.33,-37.14 919.78,-50.78 1053.5,-31 1056.36,-30.58 1059.27,-30.13 1062.22,-29.67"/>
<polygon fill="midnightblue" stroke="midnightblue" points="738.81,-66.66 730.25,-72.91 740.84,-73.36 738.81,-66.66"/>
</g>
<!-- Node22&#45;&gt;Node20 -->
<g id="edge31" class="edge">
<title>Node22&#45;&gt;Node20</title>
<path fill="none" stroke="midnightblue" d="M738.96,-70.06C743.17,-68.89 747.39,-67.84 751.5,-67 955.01,-25.33 1010.77,-51.36 1217.5,-31 1234.03,-29.37 1251.8,-27.38 1268.49,-25.4"/>
<polygon fill="midnightblue" stroke="midnightblue" points="737.82,-66.75 729.25,-72.97 739.83,-73.45 737.82,-66.75"/>
</g>
</g>
</svg>
