<?xml version="1.0" encoding="UTF-8" standalone="no"?>
<!DOCTYPE svg PUBLIC "-//W3C//DTD SVG 1.1//EN"
 "http://www.w3.org/Graphics/SVG/1.1/DTD/svg11.dtd">
<!-- Generated by graphviz version 2.43.0 (0)
 -->
<!-- Title: /home/user/project/src/nsearch/nsearch.cpp Pages: 1 -->
<svg width="508pt" height="263pt"
 viewBox="0.00 0.00 507.50 263.00" xmlns="http://www.w3.org/2000/svg" xmlns:xlink="http://www.w3.org/1999/xlink">
<g id="graph0" class="graph" transform="scale(1 1) rotate(0) translate(4 259)">
<title>/home/user/project/src/nsearch/nsearch.cpp</title>
<!-- Node1 -->
<g id="node1" class="node">
<title>Node1</title>
<g id="a_node1"><a xlink:title=" ">
<polygon fill="#bfbfbf" stroke="black" points="268.5,-224.5 268.5,-254.5 395.5,-254.5 395.5,-224.5 268.5,-224.5"/>
<text text-anchor="start" x="276.5" y="-242.5" font-family="Arial" font-size="10.00">/home/user/project</text>
<text text-anchor="middle" x="332" y="-231.5" font-family="Arial" font-size="10.00">/src/nsearch/nsearch.cpp</text>
</a>
</g>
</g>
<!-- Node2 -->
<g id="node2" class="node">
<title>Node2</title>
<g id="a_node2"><a xlink:href="nsearch_8h.html" target="_top" xlink:title=" ">
<polygon fill="none" stroke="black" points="302.5,-168.5 302.5,-187.5 361.5,-187.5 361.5,-168.5 302.5,-168.5"/>
<text text-anchor="middle" x="332" y="-175.5" font-family="Arial" font-size="10.00">nsearch.h</text>
</a>
</g>
</g>
<!-- Node1&#45;&gt;Node2 -->
<g id="edge1" class="edge">
<title>Node1&#45;&gt;Node2</title>
<path fill="none" stroke="midnightblue" d="M332,-224.4C332,-216.47 332,-206.46 332,-197.86"/>
<polygon fill="midnightblue" stroke="midnightblue" points="335.5,-197.66 332,-187.66 328.5,-197.66 335.5,-197.66"/>
</g>
<!-- Node3 -->
<g id="node3" class="node">
<title>Node3</title>
<g id="a_node3"><a xlink:href="point_8h.html" target="_top" xlink:title=" ">
<polygon fill="none" stroke="black" points="174,-56.5 174,-75.5 236,-75.5 236,-56.5 174,-56.5"/>
<text text-anchor="middle" x="205" y="-63.5" font-family="Arial" font-size="10.00">util/point.h</text>
</a>
</g>
</g>
<!-- Node2&#45;&gt;Node3 -->
<g id="edge2" class="edge">
<title>Node2&#45;&gt;Node3</title>
<path fill="none" stroke="midnightblue" d="M310.73,-168.37C293.36,-160.62 268.85,-148 251,-132 235.61,-118.2 222.51,-98.35 214.27,-84.22"/>
<polygon fill="midnightblue" stroke="midnightblue" points="217.32,-82.51 209.38,-75.5 211.22,-85.94 217.32,-82.51"/>
</g>
<!-- Node8 -->
<g id="node8" class="node">
<title>Node8</title>
<g id="a_node8"><a xlink:title=" ">
<polygon fill="none" stroke="#bfbfbf" points="313,-0.5 313,-19.5 357,-19.5 357,-0.5 313,-0.5"/>
<text text-anchor="middle" x="335" y="-7.5" font-family="Arial" font-size="10.00">vector</text>
</a>
</g>
</g>
<!-- Node2&#45;&gt;Node8 -->
<g id="edge14" class="edge">
<title>Node2&#45;&gt;Node8</title>
<path fill="none" stroke="midnightblue" d="M335.86,-168.25C339.56,-159.33 344.89,-145.01 347,-132 352.41,-98.66 351.39,-89.49 347,-56 345.84,-47.18 343.47,-37.63 341.13,-29.61"/>
<polygon fill="midnightblue" stroke="midnightblue" points="344.4,-28.34 338.09,-19.83 337.71,-30.42 344.4,-28.34"/>
</g>
<!-- Node9 -->
<g id="node9" class="node">
<title>Node9</title>
<g id="a_node9"><a xlink:href="methods_8h.html" target="_top" xlink:title=" ">
<polygon fill="none" stroke="black" points="260,-112.5 260,-131.5 338,-131.5 338,-112.5 260,-112.5"/>
<text text-anchor="middle" x="299" y="-119.5" font-family="Arial" font-size="10.00">util/methods.h</text>
</a>
</g>
</g>
<!-- Node2&#45;&gt;Node9 -->
<g id="edge8" class="edge">
<title>Node2&#45;&gt;Node9</title>
<path fill="none" stroke="midnightblue" d="M326.55,-168.08C321.99,-160.61 315.33,-149.72 309.71,-140.52"/>
<polygon fill="midnightblue" stroke="midnightblue" points="312.55,-138.46 304.35,-131.75 306.58,-142.11 312.55,-138.46"/>
</g>
<!-- Node11 -->
<g id="node11" class="node">
<title>Node11</title>
<g id="a_node11"><a xlink:title=" ">
<polygon fill="none" stroke="#bfbfbf" points="394,-112.5 394,-131.5 440,-131.5 440,-112.5 394,-112.5"/>
<text text-anchor="middle" x="417" y="-119.5" font-family="Arial" font-size="10.00">cstdint</text>
</a>
</g>
</g>
<!-- Node2&#45;&gt;Node11 -->
<g id="edge12" class="edge">
<title>Node2&#45;&gt;Node11</title>
<path fill="none" stroke="midnightblue" d="M345.66,-168.32C358.92,-159.9 379.27,-146.97 394.85,-137.07"/>
<polygon fill="midnightblue" stroke="midnightblue" points="396.81,-139.97 403.38,-131.65 393.06,-134.06 396.81,-139.97"/>
</g>
<!-- Node12 -->
<g id="node12" class="node">
<title>Node12</title>
<g id="a_node12"><a xlink:title=" ">
<polygon fill="none" stroke="#bfbfbf" points="458.5,-112.5 458.5,-131.5 499.5,-131.5 499.5,-112.5 458.5,-112.5"/>
<text text-anchor="middle" x="479" y="-119.5" font-family="Arial" font-size="10.00">string</text>
</a>
</g>
</g>
<!-- Node2&#45;&gt;Node12 -->
<g id="edge13" class="edge">
<title>Node2&#45;&gt;Node12</title>
<path fill="none" stroke="midnightblue" d="M355.29,-168.44C380.53,-159.17 420.89,-144.35 448.61,-134.17"/>
<polygon fill="midnightblue" stroke="midnightblue" points="450.01,-137.38 458.19,-130.64 447.6,-130.81 450.01,-137.38"/>
</g>
<!-- Node13 -->
<g id="node13" class="node">
<title>Node13</title>
<g id="a_node13"><a xlink:href="nflannSetup_8h.html" target="_top" xlink:title=" ">
<polygon fill="none" stroke="black" points="126.5,-112.5 126.5,-131.5 203.5,-131.5 203.5,-112.5 126.5,-112.5"/>
<text text-anchor="middle" x="165" y="-119.5" font-family="Arial" font-size="10.00">nflannSetup.h</text>
</a>
</g>
</g>
<!-- Node2&#45;&gt;Node13 -->
<g id="edge15" class="edge">
<title>Node2&#45;&gt;Node13</title>
<path fill="none" stroke="midnightblue" d="M305.54,-168.44C277.32,-159.32 232.46,-144.81 201.03,-134.65"/>
<polygon fill="midnightblue" stroke="midnightblue" points="201.93,-131.26 191.34,-131.52 199.78,-137.92 201.93,-131.26"/>
</g>
<!-- Node4 -->
<g id="node4" class="node">
<title>Node4</title>
<g id="a_node4"><a xlink:title=" ">
<polygon fill="none" stroke="#bfbfbf" points="183,-0.5 183,-19.5 227,-19.5 227,-0.5 183,-0.5"/>
<text text-anchor="middle" x="205" y="-7.5" font-family="Arial" font-size="10.00">cmath</text>
</a>
</g>
</g>
<!-- Node3&#45;&gt;Node4 -->
<g id="edge3" class="edge">
<title>Node3&#45;&gt;Node4</title>
<path fill="none" stroke="midnightblue" d="M205,-56.08C205,-49.01 205,-38.86 205,-29.99"/>
<polygon fill="midnightblue" stroke="midnightblue" points="208.5,-29.75 205,-19.75 201.5,-29.75 208.5,-29.75"/>
</g>
<!-- Node5 -->
<g id="node5" class="node">
<title>Node5</title>
<g id="a_node5"><a xlink:title=" ">
<polygon fill="none" stroke="#bfbfbf" points="245,-0.5 245,-19.5 295,-19.5 295,-0.5 245,-0.5"/>
<text text-anchor="middle" x="270" y="-7.5" font-family="Arial" font-size="10.00">iomanip</text>
</a>
</g>
</g>
<!-- Node3&#45;&gt;Node5 -->
<g id="edge4" class="edge">
<title>Node3&#45;&gt;Node5</title>
<path fill="none" stroke="midnightblue" d="M215.44,-56.32C225.15,-48.26 239.82,-36.08 251.5,-26.37"/>
<polygon fill="midnightblue" stroke="midnightblue" points="253.91,-28.92 259.37,-19.83 249.44,-23.53 253.91,-28.92"/>
</g>
<!-- Node6 -->
<g id="node6" class="node">
<title>Node6</title>
<g id="a_node6"><a xlink:title=" ">
<polygon fill="none" stroke="#bfbfbf" points="41,-0.5 41,-19.5 93,-19.5 93,-0.5 41,-0.5"/>
<text text-anchor="middle" x="67" y="-7.5" font-family="Arial" font-size="10.00">sstream</text>
</a>
</g>
</g>
<!-- Node3&#45;&gt;Node6 -->
<g id="edge5" class="edge">
<title>Node3&#45;&gt;Node6</title>
<path fill="none" stroke="midnightblue" d="M183.13,-56.44C160.22,-47.48 124.02,-33.31 98.13,-23.18"/>
<polygon fill="midnightblue" stroke="midnightblue" points="99.35,-19.9 88.76,-19.52 96.8,-26.42 99.35,-19.9"/>
</g>
<!-- Node7 -->
<g id="node7" class="node">
<title>Node7</title>
<g id="a_node7"><a xlink:title=" ">
<polygon fill="none" stroke="#bfbfbf" points="111,-0.5 111,-19.5 165,-19.5 165,-0.5 111,-0.5"/>
<text text-anchor="middle" x="138" y="-7.5" font-family="Arial" font-size="10.00">iostream</text>
</a>
</g>
</g>
<!-- Node3&#45;&gt;Node7 -->
<g id="edge6" class="edge">
<title>Node3&#45;&gt;Node7</title>
<path fill="none" stroke="midnightblue" d="M194.24,-56.32C184.23,-48.26 169.11,-36.08 157.07,-26.37"/>
<polygon fill="midnightblue" stroke="midnightblue" points="158.94,-23.38 148.96,-19.83 154.55,-28.83 158.94,-23.38"/>
</g>
<!-- Node3&#45;&gt;Node8 -->
<g id="edge7" class="edge">
<title>Node3&#45;&gt;Node8</title>
<path fill="none" stroke="midnightblue" d="M225.6,-56.44C246.99,-47.56 280.68,-33.56 305.02,-23.45"/>
<polygon fill="midnightblue" stroke="midnightblue" points="306.61,-26.58 314.5,-19.52 303.92,-20.12 306.61,-26.58"/>
</g>
<!-- Node9&#45;&gt;Node3 -->
<g id="edge9" class="edge">
<title>Node9&#45;&gt;Node3</title>
<path fill="none" stroke="midnightblue" d="M283.9,-112.32C269.1,-103.82 246.31,-90.73 229.02,-80.8"/>
<polygon fill="midnightblue" stroke="midnightblue" points="230.48,-77.6 220.07,-75.65 226.99,-83.67 230.48,-77.6"/>
</g>
<!-- Node9&#45;&gt;Node8 -->
<g id="edge10" class="edge">
<title>Node9&#45;&gt;Node8</title>
<path fill="none" stroke="midnightblue" d="M293.31,-112.25C285.75,-99.43 274.3,-75.03 283,-56 288.78,-43.36 300.05,-32.91 310.63,-25.27"/>
<polygon fill="midnightblue" stroke="midnightblue" points="312.85,-28 319.22,-19.53 308.96,-22.18 312.85,-28"/>
</g>
<!-- Node10 -->
<g id="node10" class="node">
<title>Node10</title>
<g id="a_node10"><a xlink:title=" ">
<polygon fill="none" stroke="#bfbfbf" points="292,-56.5 292,-75.5 338,-75.5 338,-56.5 292,-56.5"/>
<text text-anchor="middle" x="315" y="-63.5" font-family="Arial" font-size="10.00">chrono</text>
</a>
</g>
</g>
<!-- Node9&#45;&gt;Node10 -->
<g id="edge11" class="edge">
<title>Node9&#45;&gt;Node10</title>
<path fill="none" stroke="midnightblue" d="M301.64,-112.08C303.79,-104.85 306.88,-94.41 309.55,-85.4"/>
<polygon fill="midnightblue" stroke="midnightblue" points="312.92,-86.33 312.41,-75.75 306.21,-84.34 312.92,-86.33"/>
</g>
<!-- Node13&#45;&gt;Node3 -->
<g id="edge16" class="edge">
<title>Node13&#45;&gt;Node3</title>
<path fill="none" stroke="midnightblue" d="M171.61,-112.08C177.26,-104.46 185.54,-93.26 192.45,-83.94"/>
<polygon fill="midnightblue" stroke="midnightblue" points="195.38,-85.87 198.52,-75.75 189.75,-81.7 195.38,-85.87"/>
</g>
<!-- Node14 -->
<g id="node14" class="node">
<title>Node14</title>
<g id="a_node14"><a xlink:title=" ">
<polygon fill="none" stroke="#bfbfbf" points="0,-56.5 0,-75.5 156,-75.5 156,-56.5 0,-56.5"/>
<text text-anchor="middle" x="78" y="-63.5" font-family="Arial" font-size="10.00">nanoflann/include/nanoflann.hpp</text>
</a>
</g>
</g>
<!-- Node13&#45;&gt;Node14 -->
<g id="edge17" class="edge">
<title>Node13&#45;&gt;Node14</title>
<path fill="none" stroke="midnightblue" d="M151.02,-112.32C137.45,-103.9 116.62,-90.97 100.68,-81.07"/>
<polygon fill="midnightblue" stroke="midnightblue" points="102.29,-77.95 91.94,-75.65 98.59,-83.9 102.29,-77.95"/>
</g>
</g>
</svg>
