<?xml version="1.0" encoding="UTF-8" standalone="no"?>
<!DOCTYPE svg PUBLIC "-//W3C//DTD SVG 1.1//EN"
 "http://www.w3.org/Graphics/SVG/1.1/DTD/svg11.dtd">
<!-- Generated by graphviz version 2.43.0 (0)
 -->
<!-- Title: /home/user/project/src/nsearch/nsearch.h Pages: 1 -->
<svg width="572pt" height="207pt"
 viewBox="0.00 0.00 571.50 207.00" xmlns="http://www.w3.org/2000/svg" xmlns:xlink="http://www.w3.org/1999/xlink">
<g id="graph0" class="graph" transform="scale(1 1) rotate(0) translate(4 203)">
<title>/home/user/project/src/nsearch/nsearch.h</title>
<!-- Node1 -->
<g id="node1" class="node">
<title>Node1</title>
<g id="a_node1"><a xlink:title=" ">
<polygon fill="#bfbfbf" stroke="black" points="328,-168.5 328,-198.5 444,-198.5 444,-168.5 328,-168.5"/>
<text text-anchor="start" x="336" y="-186.5" font-family="Arial" font-size="10.00">/home/user/project</text>
<text text-anchor="middle" x="386" y="-175.5" font-family="Arial" font-size="10.00">/src/nsearch/nsearch.h</text>
</a>
</g>
</g>
<!-- Node2 -->
<g id="node2" class="node">
<title>Node2</title>
<g id="a_node2"><a xlink:href="point_8h.html" target="_top" xlink:title=" ">
<polygon fill="none" stroke="black" points="174,-56.5 174,-75.5 236,-75.5 236,-56.5 174,-56.5"/>
<text text-anchor="middle" x="205" y="-63.5" font-family="Arial" font-size="10.00">util/point.h</text>
</a>
</g>
</g>
<!-- Node1&#45;&gt;Node2 -->
<g id="edge1" class="edge">
<title>Node1&#45;&gt;Node2</title>
<path fill="none" stroke="midnightblue" d="M363.23,-168.47C346.96,-158.39 324.57,-144.46 305,-132 277.89,-114.74 246.89,-94.51 226.68,-81.26"/>
<polygon fill="midnightblue" stroke="midnightblue" points="228.49,-78.26 218.21,-75.7 224.65,-84.12 228.49,-78.26"/>
</g>
<!-- Node7 -->
<g id="node7" class="node">
<title>Node7</title>
<g id="a_node7"><a xlink:title=" ">
<polygon fill="none" stroke="#bfbfbf" points="313,-0.5 313,-19.5 357,-19.5 357,-0.5 313,-0.5"/>
<text text-anchor="middle" x="335" y="-7.5" font-family="Arial" font-size="10.00">vector</text>
</a>
</g>
</g>
<!-- Node1&#45;&gt;Node7 -->
<g id="edge15" class="edge">
<title>Node1&#45;&gt;Node7</title>
<path fill="none" stroke="midnightblue" d="M408.92,-168.35C444.11,-144.85 504.42,-96.36 475,-56 450.51,-22.4 400.51,-13.34 367.38,-11.19"/>
<polygon fill="midnightblue" stroke="midnightblue" points="367.42,-7.69 357.27,-10.72 367.09,-14.68 367.42,-7.69"/>
</g>
<!-- Node8 -->
<g id="node8" class="node">
<title>Node8</title>
<g id="a_node8"><a xlink:href="methods_8h.html" target="_top" xlink:title=" ">
<polygon fill="none" stroke="black" points="314,-112.5 314,-131.5 392,-131.5 392,-112.5 314,-112.5"/>
<text text-anchor="middle" x="353" y="-119.5" font-family="Arial" font-size="10.00">util/methods.h</text>
</a>
</g>
</g>
<!-- Node1&#45;&gt;Node8 -->
<g id="edge7" class="edge">
<title>Node1&#45;&gt;Node8</title>
<path fill="none" stroke="midnightblue" d="M378.18,-168.4C373.53,-160.02 367.6,-149.33 362.66,-140.42"/>
<polygon fill="midnightblue" stroke="midnightblue" points="365.71,-138.71 357.8,-131.66 359.59,-142.1 365.71,-138.71"/>
</g>
<!-- Node9 -->
<g id="node9" class="node">
<title>Node9</title>
<g id="a_node9"><a xlink:title=" ">
<polygon fill="none" stroke="#bfbfbf" points="420,-56.5 420,-75.5 466,-75.5 466,-56.5 420,-56.5"/>
<text text-anchor="middle" x="443" y="-63.5" font-family="Arial" font-size="10.00">cstdint</text>
</a>
</g>
</g>
<!-- Node1&#45;&gt;Node9 -->
<g id="edge13" class="edge">
<title>Node1&#45;&gt;Node9</title>
<path fill="none" stroke="midnightblue" d="M392.99,-168.34C403.4,-147.24 422.96,-107.6 434.29,-84.65"/>
<polygon fill="midnightblue" stroke="midnightblue" points="437.43,-86.19 438.72,-75.67 431.16,-83.09 437.43,-86.19"/>
</g>
<!-- Node12 -->
<g id="node12" class="node">
<title>Node12</title>
<g id="a_node12"><a xlink:title=" ">
<polygon fill="none" stroke="#bfbfbf" points="522.5,-112.5 522.5,-131.5 563.5,-131.5 563.5,-112.5 522.5,-112.5"/>
<text text-anchor="middle" x="543" y="-119.5" font-family="Arial" font-size="10.00">string</text>
</a>
</g>
</g>
<!-- Node1&#45;&gt;Node12 -->
<g id="edge14" class="edge">
<title>Node1&#45;&gt;Node12</title>
<path fill="none" stroke="midnightblue" d="M423.21,-168.4C450.58,-158.02 487.33,-144.1 512.87,-134.42"/>
<polygon fill="midnightblue" stroke="midnightblue" points="514.3,-137.62 522.41,-130.8 511.82,-131.08 514.3,-137.62"/>
</g>
<!-- Node13 -->
<g id="node13" class="node">
<title>Node13</title>
<g id="a_node13"><a xlink:href="nflannSetup_8h.html" target="_top" xlink:title=" ">
<polygon fill="none" stroke="black" points="166.5,-112.5 166.5,-131.5 243.5,-131.5 243.5,-112.5 166.5,-112.5"/>
<text text-anchor="middle" x="205" y="-119.5" font-family="Arial" font-size="10.00">nflannSetup.h</text>
</a>
</g>
</g>
<!-- Node1&#45;&gt;Node13 -->
<g id="edge16" class="edge">
<title>Node1&#45;&gt;Node13</title>
<path fill="none" stroke="midnightblue" d="M343.11,-168.4C311.97,-158.16 270.31,-144.47 240.92,-134.81"/>
<polygon fill="midnightblue" stroke="midnightblue" points="241.67,-131.37 231.07,-131.57 239.48,-138.02 241.67,-131.37"/>
</g>
<!-- Node3 -->
<g id="node3" class="node">
<title>Node3</title>
<g id="a_node3"><a xlink:title=" ">
<polygon fill="none" stroke="#bfbfbf" points="183,-0.5 183,-19.5 227,-19.5 227,-0.5 183,-0.5"/>
<text text-anchor="middle" x="205" y="-7.5" font-family="Arial" font-size="10.00">cmath</text>
</a>
</g>
</g>
<!-- Node2&#45;&gt;Node3 -->
<g id="edge2" class="edge">
<title>Node2&#45;&gt;Node3</title>
<path fill="none" stroke="midnightblue" d="M205,-56.08C205,-49.01 205,-38.86 205,-29.99"/>
<polygon fill="midnightblue" stroke="midnightblue" points="208.5,-29.75 205,-19.75 201.5,-29.75 208.5,-29.75"/>
</g>
<!-- Node4 -->
<g id="node4" class="node">
<title>Node4</title>
<g id="a_node4"><a xlink:title=" ">
<polygon fill="none" stroke="#bfbfbf" points="245,-0.5 245,-19.5 295,-19.5 295,-0.5 245,-0.5"/>
<text text-anchor="middle" x="270" y="-7.5" font-family="Arial" font-size="10.00">iomanip</text>
</a>
</g>
</g>
<!-- Node2&#45;&gt;Node4 -->
<g id="edge3" class="edge">
<title>Node2&#45;&gt;Node4</title>
<path fill="none" stroke="midnightblue" d="M215.44,-56.32C225.15,-48.26 239.82,-36.08 251.5,-26.37"/>
<polygon fill="midnightblue" stroke="midnightblue" points="253.91,-28.92 259.37,-19.83 249.44,-23.53 253.91,-28.92"/>
</g>
<!-- Node5 -->
<g id="node5" class="node">
<title>Node5</title>
<g id="a_node5"><a xlink:title=" ">
<polygon fill="none" stroke="#bfbfbf" points="41,-0.5 41,-19.5 93,-19.5 93,-0.5 41,-0.5"/>
<text text-anchor="middle" x="67" y="-7.5" font-family="Arial" font-size="10.00">sstream</text>
</a>
</g>
</g>
<!-- Node2&#45;&gt;Node5 -->
<g id="edge4" class="edge">
<title>Node2&#45;&gt;Node5</title>
<path fill="none" stroke="midnightblue" d="M183.13,-56.44C160.22,-47.48 124.02,-33.31 98.13,-23.18"/>
<polygon fill="midnightblue" stroke="midnightblue" points="99.35,-19.9 88.76,-19.52 96.8,-26.42 99.35,-19.9"/>
</g>
<!-- Node6 -->
<g id="node6" class="node">
<title>Node6</title>
<g id="a_node6"><a xlink:title=" ">
<polygon fill="none" stroke="#bfbfbf" points="111,-0.5 111,-19.5 165,-19.5 165,-0.5 111,-0.5"/>
<text text-anchor="middle" x="138" y="-7.5" font-family="Arial" font-size="10.00">iostream</text>
</a>
</g>
</g>
<!-- Node2&#45;&gt;Node6 -->
<g id="edge5" class="edge">
<title>Node2&#45;&gt;Node6</title>
<path fill="none" stroke="midnightblue" d="M194.24,-56.32C184.23,-48.26 169.11,-36.08 157.07,-26.37"/>
<polygon fill="midnightblue" stroke="midnightblue" points="158.94,-23.38 148.96,-19.83 154.55,-28.83 158.94,-23.38"/>
</g>
<!-- Node2&#45;&gt;Node7 -->
<g id="edge6" class="edge">
<title>Node2&#45;&gt;Node7</title>
<path fill="none" stroke="midnightblue" d="M225.6,-56.44C246.99,-47.56 280.68,-33.56 305.02,-23.45"/>
<polygon fill="midnightblue" stroke="midnightblue" points="306.61,-26.58 314.5,-19.52 303.92,-20.12 306.61,-26.58"/>
</g>
<!-- Node8&#45;&gt;Node2 -->
<g id="edge8" class="edge">
<title>Node8&#45;&gt;Node2</title>
<path fill="none" stroke="midnightblue" d="M329.55,-112.44C304.87,-103.44 265.81,-89.19 238.02,-79.05"/>
<polygon fill="midnightblue" stroke="midnightblue" points="238.94,-75.66 228.34,-75.52 236.54,-82.23 238.94,-75.66"/>
</g>
<!-- Node8&#45;&gt;Node7 -->
<g id="edge11" class="edge">
<title>Node8&#45;&gt;Node7</title>
<path fill="none" stroke="midnightblue" d="M328.53,-112.44C312.43,-105.38 292.62,-93.63 283,-76 272.53,-56.82 292.58,-37.61 310.75,-25.11"/>
<polygon fill="midnightblue" stroke="midnightblue" points="312.87,-27.9 319.37,-19.54 309.07,-22.02 312.87,-27.9"/>
</g>
<!-- Node8&#45;&gt;Node9 -->
<g id="edge9" class="edge">
<title>Node8&#45;&gt;Node9</title>
<path fill="none" stroke="midnightblue" d="M367.46,-112.32C381.5,-103.9 403.05,-90.97 419.54,-81.07"/>
<polygon fill="midnightblue" stroke="midnightblue" points="421.8,-83.8 428.58,-75.65 418.2,-77.8 421.8,-83.8"/>
</g>
<!-- Node10 -->
<g id="node10" class="node">
<title>Node10</title>
<g id="a_node10"><a xlink:title=" ">
<polygon fill="none" stroke="#bfbfbf" points="292,-56.5 292,-75.5 338,-75.5 338,-56.5 292,-56.5"/>
<text text-anchor="middle" x="315" y="-63.5" font-family="Arial" font-size="10.00">cstring</text>
</a>
</g>
</g>
<!-- Node8&#45;&gt;Node10 -->
<g id="edge10" class="edge">
<title>Node8&#45;&gt;Node10</title>
<path fill="none" stroke="midnightblue" d="M346.73,-112.08C341.36,-104.46 333.48,-93.26 326.92,-83.94"/>
<polygon fill="midnightblue" stroke="midnightblue" points="329.78,-81.91 321.16,-75.75 324.05,-85.94 329.78,-81.91"/>
</g>
<!-- Node11 -->
<g id="node11" class="node">
<title>Node11</title>
<g id="a_node11"><a xlink:title=" ">
<polygon fill="none" stroke="#bfbfbf" points="356,-56.5 356,-75.5 402,-75.5 402,-56.5 356,-56.5"/>
<text text-anchor="middle" x="379" y="-63.5" font-family="Arial" font-size="10.00">chrono</text>
</a>
</g>
</g>
<!-- Node8&#45;&gt;Node11 -->
<g id="edge12" class="edge">
<title>Node8&#45;&gt;Node11</title>
<path fill="none" stroke="midnightblue" d="M357.29,-112.08C360.85,-104.69 366.02,-93.95 370.42,-84.81"/>
<polygon fill="midnightblue" stroke="midnightblue" points="373.6,-86.28 374.79,-75.75 367.29,-83.24 373.6,-86.28"/>
</g>
<!-- Node13&#45;&gt;Node2 -->
<g id="edge17" class="edge">
<title>Node13&#45;&gt;Node2</title>
<path fill="none" stroke="midnightblue" d="M205,-112.08C205,-105.01 205,-94.86 205,-85.99"/>
<polygon fill="midnightblue" stroke="midnightblue" points="208.5,-85.75 205,-75.75 201.5,-85.75 208.5,-85.75"/>
</g>
<!-- Node14 -->
<g id="node14" class="node">
<title>Node14</title>
<g id="a_node14"><a xlink:title=" ">
<polygon fill="none" stroke="#bfbfbf" points="0,-56.5 0,-75.5 156,-75.5 156,-56.5 0,-56.5"/>
<text text-anchor="middle" x="78" y="-63.5" font-family="Arial" font-size="10.00">nanoflann/include/nanoflann.hpp</text>
</a>
</g>
</g>
<!-- Node13&#45;&gt;Node14 -->
<g id="edge18" class="edge">
<title>Node13&#45;&gt;Node14</title>
<path fill="none" stroke="midnightblue" d="M184.88,-112.44C163.98,-103.56 131.07,-89.56 107.28,-79.45"/>
<polygon fill="midnightblue" stroke="midnightblue" points="108.6,-76.21 98.03,-75.52 105.86,-82.65 108.6,-76.21"/>
</g>
</g>
</svg>
