<?xml version="1.0" encoding="UTF-8" standalone="no"?>
<!DOCTYPE svg PUBLIC "-//W3C//DTD SVG 1.1//EN"
 "http://www.w3.org/Graphics/SVG/1.1/DTD/svg11.dtd">
<!-- Generated by graphviz version 2.43.0 (0)
 -->
<!-- Title: /home/user/project/src/inp/decks/outputDeck.h Pages: 1 -->
<svg width="506pt" height="203pt"
 viewBox="0.00 0.00 505.50 203.00" xmlns="http://www.w3.org/2000/svg" xmlns:xlink="http://www.w3.org/1999/xlink">
<g id="graph0" class="graph" transform="scale(1 1) rotate(0) translate(4 199)">
<title>/home/user/project/src/inp/decks/outputDeck.h</title>
<!-- Node1 -->
<g id="Node000001" class="node">
<title>Node1</title>
<g id="a_Node000001"><a xlink:title=" ">
<polygon fill="#999999" stroke="#666666" points="387,-195 247,-195 247,-165 387,-165 387,-195"/>
<text text-anchor="start" x="255" y="-183" font-family="Arial" font-size="10.00">/home/user/project</text>
<text text-anchor="middle" x="317" y="-172" font-family="Arial" font-size="10.00">/src/inp/decks/outputDeck.h</text>
</a>
</g>
</g>
<!-- Node2 -->
<g id="Node000002" class="node">
<title>Node2</title>
<g id="a_Node000002"><a xlink:href="io_8h.html" target="_top" xlink:title=" ">
<polygon fill="white" stroke="#666666" points="235,-129 187,-129 187,-110 235,-110 235,-129"/>
<text text-anchor="middle" x="211" y="-117" font-family="Arial" font-size="10.00">util/io.h</text>
</a>
</g>
</g>
<!-- Node1&#45;&gt;Node2 -->
<g id="edge1_Node000001_Node000002" class="edge">
<title>Node1&#45;&gt;Node2</title>
<g id="a_edge1_Node000001_Node000002"><a xlink:title=" ">
<path fill="none" stroke="#63b8ff" d="M291.61,-164.99C274.71,-155.66 252.62,-143.47 235.84,-134.21"/>
<polygon fill="#63b8ff" stroke="#63b8ff" points="237.1,-130.91 226.65,-129.14 233.72,-137.04 237.1,-130.91"/>
</a>
</g>
</g>
<!-- Node8 -->
<g id="Node000008" class="node">
<title>Node8</title>
<g id="a_Node000008"><a xlink:title=" ">
<polygon fill="#e0e0e0" stroke="#999999" points="316,-19 272,-19 272,0 316,0 316,-19"/>
<text text-anchor="middle" x="294" y="-7" font-family="Arial" font-size="10.00">vector</text>
</a>
</g>
</g>
<!-- Node1&#45;&gt;Node8 -->
<g id="edge18_Node000001_Node000008" class="edge">
<title>Node1&#45;&gt;Node8</title>
<g id="a_edge18_Node000001_Node000008"><a xlink:title=" ">
<path fill="none" stroke="#63b8ff" d="M315.08,-164.92C310.95,-134.65 301.21,-63.35 296.56,-29.27"/>
<polygon fill="#63b8ff" stroke="#63b8ff" points="300.02,-28.69 295.2,-19.25 293.08,-29.64 300.02,-28.69"/>
</a>
</g>
</g>
<!-- Node11 -->
<g id="Node000011" class="node">
<title>Node11</title>
<g id="a_Node000011"><a xlink:title=" ">
<polygon fill="#e0e0e0" stroke="#999999" points="497.5,-19 456.5,-19 456.5,0 497.5,0 497.5,-19"/>
<text text-anchor="middle" x="477" y="-7" font-family="Arial" font-size="10.00">string</text>
</a>
</g>
</g>
<!-- Node1&#45;&gt;Node11 -->
<g id="edge17_Node000001_Node000011" class="edge">
<title>Node1&#45;&gt;Node11</title>
<g id="a_edge17_Node000001_Node000011"><a xlink:title=" ">
<path fill="none" stroke="#63b8ff" d="M332.56,-164.91C354.05,-145.24 393.69,-108.09 425,-74 438.94,-58.82 453.72,-40.53 463.95,-27.48"/>
<polygon fill="#63b8ff" stroke="#63b8ff" points="466.87,-29.43 470.24,-19.39 461.34,-25.14 466.87,-29.43"/>
</a>
</g>
</g>
<!-- Node3 -->
<g id="Node000003" class="node">
<title>Node3</title>
<g id="a_Node000003"><a xlink:href="point_8h.html" target="_top" xlink:title=" ">
<polygon fill="white" stroke="#666666" points="183,-74 137,-74 137,-55 183,-55 183,-74"/>
<text text-anchor="middle" x="160" y="-62" font-family="Arial" font-size="10.00">point.h</text>
</a>
</g>
</g>
<!-- Node2&#45;&gt;Node3 -->
<g id="edge2_Node000002_Node000003" class="edge">
<title>Node2&#45;&gt;Node3</title>
<g id="a_edge2_Node000002_Node000003"><a xlink:title=" ">
<path fill="none" stroke="#63b8ff" d="M202.58,-109.75C195.23,-102.11 184.37,-90.82 175.46,-81.56"/>
<polygon fill="#63b8ff" stroke="#63b8ff" points="177.72,-78.87 168.26,-74.09 172.68,-83.72 177.72,-78.87"/>
</a>
</g>
</g>
<!-- Node7 -->
<g id="Node000007" class="node">
<title>Node7</title>
<g id="a_Node000007"><a xlink:title=" ">
<polygon fill="#e0e0e0" stroke="#999999" points="54,-19 0,-19 0,0 54,0 54,-19"/>
<text text-anchor="middle" x="27" y="-7" font-family="Arial" font-size="10.00">iostream</text>
</a>
</g>
</g>
<!-- Node2&#45;&gt;Node7 -->
<g id="edge14_Node000002_Node000007" class="edge">
<title>Node2&#45;&gt;Node7</title>
<g id="a_edge14_Node000002_Node000007"><a xlink:title=" ">
<path fill="none" stroke="#63b8ff" d="M186.98,-117.93C153.3,-115.88 91.94,-107.44 54,-74 40.95,-62.5 34.02,-43.62 30.46,-29.43"/>
<polygon fill="#63b8ff" stroke="#63b8ff" points="33.81,-28.33 28.28,-19.28 26.96,-29.8 33.81,-28.33"/>
</a>
</g>
</g>
<!-- Node2&#45;&gt;Node8 -->
<g id="edge15_Node000002_Node000008" class="edge">
<title>Node2&#45;&gt;Node8</title>
<g id="a_edge15_Node000002_Node000008"><a xlink:title=" ">
<path fill="none" stroke="#63b8ff" d="M211.76,-109.9C213.29,-96.9 217.71,-71.96 230,-55 239.39,-42.04 253.77,-31.55 266.52,-24.02"/>
<polygon fill="#63b8ff" stroke="#63b8ff" points="268.38,-26.99 275.42,-19.07 264.98,-20.87 268.38,-26.99"/>
</a>
</g>
</g>
<!-- Node9 -->
<g id="Node000009" class="node">
<title>Node9</title>
<g id="a_Node000009"><a xlink:href="parallelUtil_8h.html" target="_top" xlink:title=" ">
<polygon fill="white" stroke="#666666" points="416.5,-74 345.5,-74 345.5,-55 416.5,-55 416.5,-74"/>
<text text-anchor="middle" x="381" y="-62" font-family="Arial" font-size="10.00">parallelUtil.h</text>
</a>
</g>
</g>
<!-- Node2&#45;&gt;Node9 -->
<g id="edge8_Node000002_Node000009" class="edge">
<title>Node2&#45;&gt;Node9</title>
<g id="a_edge8_Node000002_Node000009"><a xlink:title=" ">
<path fill="none" stroke="#63b8ff" d="M235.36,-110.91C263.73,-102.06 310.91,-87.35 343.86,-77.08"/>
<polygon fill="#63b8ff" stroke="#63b8ff" points="345.09,-80.36 353.59,-74.05 343,-73.68 345.09,-80.36"/>
</a>
</g>
</g>
<!-- Node13 -->
<g id="Node000013" class="node">
<title>Node13</title>
<g id="a_Node000013"><a xlink:title=" ">
<polygon fill="#e0e0e0" stroke="#999999" points="289,-74 239,-74 239,-55 289,-55 289,-74"/>
<text text-anchor="middle" x="264" y="-62" font-family="Arial" font-size="10.00">fstream</text>
</a>
</g>
</g>
<!-- Node2&#45;&gt;Node13 -->
<g id="edge13_Node000002_Node000013" class="edge">
<title>Node2&#45;&gt;Node13</title>
<g id="a_edge13_Node000002_Node000013"><a xlink:title=" ">
<path fill="none" stroke="#63b8ff" d="M219.75,-109.75C227.47,-102.03 238.9,-90.6 248.22,-81.28"/>
<polygon fill="#63b8ff" stroke="#63b8ff" points="250.81,-83.64 255.41,-74.09 245.86,-78.69 250.81,-83.64"/>
</a>
</g>
</g>
<!-- Node14 -->
<g id="Node000014" class="node">
<title>Node14</title>
<g id="a_Node000014"><a xlink:title=" ">
<polygon fill="#e0e0e0" stroke="#999999" points="119,-74 63,-74 63,-55 119,-55 119,-74"/>
<text text-anchor="middle" x="91" y="-62" font-family="Arial" font-size="10.00">algorithm</text>
</a>
</g>
</g>
<!-- Node2&#45;&gt;Node14 -->
<g id="edge16_Node000002_Node000014" class="edge">
<title>Node2&#45;&gt;Node14</title>
<g id="a_edge16_Node000002_Node000014"><a xlink:title=" ">
<path fill="none" stroke="#63b8ff" d="M191.72,-109.98C172.33,-101.42 142.19,-88.11 119.93,-78.28"/>
<polygon fill="#63b8ff" stroke="#63b8ff" points="121.19,-75.01 110.63,-74.17 118.36,-81.41 121.19,-75.01"/>
</a>
</g>
</g>
<!-- Node4 -->
<g id="Node000004" class="node">
<title>Node4</title>
<g id="a_Node000004"><a xlink:title=" ">
<polygon fill="#e0e0e0" stroke="#999999" points="116,-19 72,-19 72,0 116,0 116,-19"/>
<text text-anchor="middle" x="94" y="-7" font-family="Arial" font-size="10.00">cmath</text>
</a>
</g>
</g>
<!-- Node3&#45;&gt;Node4 -->
<g id="edge3_Node000003_Node000004" class="edge">
<title>Node3&#45;&gt;Node4</title>
<g id="a_edge3_Node000003_Node000004"><a xlink:title=" ">
<path fill="none" stroke="#63b8ff" d="M149.4,-54.98C139.54,-47.07 124.65,-35.11 112.78,-25.58"/>
<polygon fill="#63b8ff" stroke="#63b8ff" points="114.79,-22.7 104.8,-19.17 110.4,-28.16 114.79,-22.7"/>
</a>
</g>
</g>
<!-- Node5 -->
<g id="Node000005" class="node">
<title>Node5</title>
<g id="a_Node000005"><a xlink:title=" ">
<polygon fill="#e0e0e0" stroke="#999999" points="254,-19 204,-19 204,0 254,0 254,-19"/>
<text text-anchor="middle" x="229" y="-7" font-family="Arial" font-size="10.00">iomanip</text>
</a>
</g>
</g>
<!-- Node3&#45;&gt;Node5 -->
<g id="edge4_Node000003_Node000005" class="edge">
<title>Node3&#45;&gt;Node5</title>
<g id="a_edge4_Node000003_Node000005"><a xlink:title=" ">
<path fill="none" stroke="#63b8ff" d="M171.09,-54.98C181.49,-47 197.26,-34.88 209.72,-25.31"/>
<polygon fill="#63b8ff" stroke="#63b8ff" points="211.91,-28.04 217.71,-19.17 207.65,-22.49 211.91,-28.04"/>
</a>
</g>
</g>
<!-- Node6 -->
<g id="Node000006" class="node">
<title>Node6</title>
<g id="a_Node000006"><a xlink:title=" ">
<polygon fill="#e0e0e0" stroke="#999999" points="186,-19 134,-19 134,0 186,0 186,-19"/>
<text text-anchor="middle" x="160" y="-7" font-family="Arial" font-size="10.00">sstream</text>
</a>
</g>
</g>
<!-- Node3&#45;&gt;Node6 -->
<g id="edge5_Node000003_Node000006" class="edge">
<title>Node3&#45;&gt;Node6</title>
<g id="a_edge5_Node000003_Node000006"><a xlink:title=" ">
<path fill="none" stroke="#63b8ff" d="M160,-54.75C160,-47.8 160,-37.85 160,-29.13"/>
<polygon fill="#63b8ff" stroke="#63b8ff" points="163.5,-29.09 160,-19.09 156.5,-29.09 163.5,-29.09"/>
</a>
</g>
</g>
<!-- Node3&#45;&gt;Node7 -->
<g id="edge6_Node000003_Node000007" class="edge">
<title>Node3&#45;&gt;Node7</title>
<g id="a_edge6_Node000003_Node000007"><a xlink:title=" ">
<path fill="none" stroke="#63b8ff" d="M138.63,-54.98C116.85,-46.3 82.84,-32.75 58.08,-22.88"/>
<polygon fill="#63b8ff" stroke="#63b8ff" points="59.34,-19.62 48.76,-19.17 56.75,-26.12 59.34,-19.62"/>
</a>
</g>
</g>
<!-- Node3&#45;&gt;Node8 -->
<g id="edge7_Node000003_Node000008" class="edge">
<title>Node3&#45;&gt;Node8</title>
<g id="a_edge7_Node000003_Node000008"><a xlink:title=" ">
<path fill="none" stroke="#63b8ff" d="M181.53,-54.98C203.47,-46.3 237.74,-32.75 262.69,-22.88"/>
<polygon fill="#63b8ff" stroke="#63b8ff" points="264.07,-26.1 272.08,-19.17 261.49,-19.59 264.07,-26.1"/>
</a>
</g>
</g>
<!-- Node9&#45;&gt;Node8 -->
<g id="edge11_Node000009_Node000008" class="edge">
<title>Node9&#45;&gt;Node8</title>
<g id="a_edge11_Node000009_Node000008"><a xlink:title=" ">
<path fill="none" stroke="#63b8ff" d="M367.02,-54.98C353.53,-46.77 332.87,-34.18 316.96,-24.49"/>
<polygon fill="#63b8ff" stroke="#63b8ff" points="318.59,-21.38 308.23,-19.17 314.95,-27.36 318.59,-21.38"/>
</a>
</g>
</g>
<!-- Node10 -->
<g id="Node000010" class="node">
<title>Node10</title>
<g id="a_Node000010"><a xlink:title=" ">
<polygon fill="#e0e0e0" stroke="#999999" points="375.5,-19 334.5,-19 334.5,0 375.5,0 375.5,-19"/>
<text text-anchor="middle" x="355" y="-7" font-family="Arial" font-size="10.00">mpi.h</text>
</a>
</g>
</g>
<!-- Node9&#45;&gt;Node10 -->
<g id="edge9_Node000009_Node000010" class="edge">
<title>Node9&#45;&gt;Node10</title>
<g id="a_edge9_Node000009_Node000010"><a xlink:title=" ">
<path fill="none" stroke="#63b8ff" d="M376.71,-54.75C373.19,-47.57 368.09,-37.18 363.72,-28.27"/>
<polygon fill="#63b8ff" stroke="#63b8ff" points="366.76,-26.53 359.21,-19.09 360.48,-29.61 366.76,-26.53"/>
</a>
</g>
</g>
<!-- Node9&#45;&gt;Node11 -->
<g id="edge10_Node000009_Node000011" class="edge">
<title>Node9&#45;&gt;Node11</title>
<g id="a_edge10_Node000009_Node000011"><a xlink:title=" ">
<path fill="none" stroke="#63b8ff" d="M396.42,-54.98C411.45,-46.69 434.54,-33.94 452.16,-24.22"/>
<polygon fill="#63b8ff" stroke="#63b8ff" points="454.23,-27.07 461.3,-19.17 450.85,-20.94 454.23,-27.07"/>
</a>
</g>
</g>
<!-- Node12 -->
<g id="Node000012" class="node">
<title>Node12</title>
<g id="a_Node000012"><a xlink:title=" ">
<polygon fill="#e0e0e0" stroke="#999999" points="438,-19 394,-19 394,0 438,0 438,-19"/>
<text text-anchor="middle" x="416" y="-7" font-family="Arial" font-size="10.00">thread</text>
</a>
</g>
</g>
<!-- Node9&#45;&gt;Node12 -->
<g id="edge12_Node000009_Node000012" class="edge">
<title>Node9&#45;&gt;Node12</title>
<g id="a_edge12_Node000009_Node000012"><a xlink:title=" ">
<path fill="none" stroke="#63b8ff" d="M386.78,-54.75C391.62,-47.42 398.68,-36.73 404.64,-27.7"/>
<polygon fill="#63b8ff" stroke="#63b8ff" points="407.74,-29.36 410.33,-19.09 401.9,-25.5 407.74,-29.36"/>
</a>
</g>
</g>
</g>
</svg>
