<?xml version="1.0" encoding="UTF-8" standalone="no"?>
<!DOCTYPE svg PUBLIC "-//W3C//DTD SVG 1.1//EN"
 "http://www.w3.org/Graphics/SVG/1.1/DTD/svg11.dtd">
<!-- Generated by graphviz version 2.43.0 (0)
 -->
<!-- Title: /home/user/project/src/util/parallelUtil.cpp Pages: 1 -->
<svg width="296pt" height="151pt"
 viewBox="0.00 0.00 295.50 151.00" xmlns="http://www.w3.org/2000/svg" xmlns:xlink="http://www.w3.org/1999/xlink">
<g id="graph0" class="graph" transform="scale(1 1) rotate(0) translate(4 147)">
<title>/home/user/project/src/util/parallelUtil.cpp</title>
<!-- Node1 -->
<g id="node1" class="node">
<title>Node1</title>
<g id="a_node1"><a xlink:title=" ">
<polygon fill="#bfbfbf" stroke="black" points="132.5,-112.5 132.5,-142.5 248.5,-142.5 248.5,-112.5 132.5,-112.5"/>
<text text-anchor="start" x="140.5" y="-130.5" font-family="Arial" font-size="10.00">/home/user/project</text>
<text text-anchor="middle" x="190.5" y="-119.5" font-family="Arial" font-size="10.00">/src/util/parallelUtil.cpp</text>
</a>
</g>
</g>
<!-- Node2 -->
<g id="node2" class="node">
<title>Node2</title>
<g id="a_node2"><a xlink:href="parallelUtil_8h.html" target="_top" xlink:title=" ">
<polygon fill="none" stroke="black" points="74,-56.5 74,-75.5 145,-75.5 145,-56.5 74,-56.5"/>
<text text-anchor="middle" x="109.5" y="-63.5" font-family="Arial" font-size="10.00">parallelUtil.h</text>
</a>
</g>
</g>
<!-- Node1&#45;&gt;Node2 -->
<g id="edge1" class="edge">
<title>Node1&#45;&gt;Node2</title>
<path fill="none" stroke="midnightblue" d="M171.3,-112.4C158.68,-103.13 142.21,-91.03 129.44,-81.65"/>
<polygon fill="midnightblue" stroke="midnightblue" points="131.42,-78.76 121.29,-75.66 127.27,-84.4 131.42,-78.76"/>
</g>
<!-- Node7 -->
<g id="node7" class="node">
<title>Node7</title>
<g id="a_node7"><a xlink:title=" ">
<polygon fill="none" stroke="#bfbfbf" points="163.5,-56.5 163.5,-75.5 217.5,-75.5 217.5,-56.5 163.5,-56.5"/>
<text text-anchor="middle" x="190.5" y="-63.5" font-family="Arial" font-size="10.00">iostream</text>
</a>
</g>
</g>
<!-- Node1&#45;&gt;Node7 -->
<g id="edge6" class="edge">
<title>Node1&#45;&gt;Node7</title>
<path fill="none" stroke="midnightblue" d="M190.5,-112.4C190.5,-104.47 190.5,-94.46 190.5,-85.86"/>
<polygon fill="midnightblue" stroke="midnightblue" points="194,-85.66 190.5,-75.66 187,-85.66 194,-85.66"/>
</g>
<!-- Node8 -->
<g id="node8" class="node">
<title>Node8</title>
<g id="a_node8"><a xlink:title=" ">
<polygon fill="none" stroke="#bfbfbf" points="235.5,-56.5 235.5,-75.5 287.5,-75.5 287.5,-56.5 235.5,-56.5"/>
<text text-anchor="middle" x="261.5" y="-63.5" font-family="Arial" font-size="10.00">sstream</text>
</a>
</g>
</g>
<!-- Node1&#45;&gt;Node8 -->
<g id="edge7" class="edge">
<title>Node1&#45;&gt;Node8</title>
<path fill="none" stroke="midnightblue" d="M207.33,-112.4C218.17,-103.31 232.28,-91.49 243.37,-82.19"/>
<polygon fill="midnightblue" stroke="midnightblue" points="245.75,-84.76 251.17,-75.66 241.26,-79.4 245.75,-84.76"/>
</g>
<!-- Node3 -->
<g id="node3" class="node">
<title>Node3</title>
<g id="a_node3"><a xlink:title=" ">
<polygon fill="none" stroke="#bfbfbf" points="0,-0.5 0,-19.5 41,-19.5 41,-0.5 0,-0.5"/>
<text text-anchor="middle" x="20.5" y="-7.5" font-family="Arial" font-size="10.00">mpi.h</text>
</a>
</g>
</g>
<!-- Node2&#45;&gt;Node3 -->
<g id="edge2" class="edge">
<title>Node2&#45;&gt;Node3</title>
<path fill="none" stroke="midnightblue" d="M95.2,-56.32C81.32,-47.9 60.01,-34.97 43.7,-25.07"/>
<polygon fill="midnightblue" stroke="midnightblue" points="45.13,-21.85 34.76,-19.65 41.5,-27.83 45.13,-21.85"/>
</g>
<!-- Node4 -->
<g id="node4" class="node">
<title>Node4</title>
<g id="a_node4"><a xlink:title=" ">
<polygon fill="none" stroke="#bfbfbf" points="59,-0.5 59,-19.5 100,-19.5 100,-0.5 59,-0.5"/>
<text text-anchor="middle" x="79.5" y="-7.5" font-family="Arial" font-size="10.00">string</text>
</a>
</g>
</g>
<!-- Node2&#45;&gt;Node4 -->
<g id="edge3" class="edge">
<title>Node2&#45;&gt;Node4</title>
<path fill="none" stroke="midnightblue" d="M104.55,-56.08C100.4,-48.61 94.35,-37.72 89.23,-28.52"/>
<polygon fill="midnightblue" stroke="midnightblue" points="92.28,-26.79 84.36,-19.75 86.16,-30.19 92.28,-26.79"/>
</g>
<!-- Node5 -->
<g id="node5" class="node">
<title>Node5</title>
<g id="a_node5"><a xlink:title=" ">
<polygon fill="none" stroke="#bfbfbf" points="118.5,-0.5 118.5,-19.5 162.5,-19.5 162.5,-0.5 118.5,-0.5"/>
<text text-anchor="middle" x="140.5" y="-7.5" font-family="Arial" font-size="10.00">vector</text>
</a>
</g>
</g>
<!-- Node2&#45;&gt;Node5 -->
<g id="edge4" class="edge">
<title>Node2&#45;&gt;Node5</title>
<path fill="none" stroke="midnightblue" d="M114.62,-56.08C118.91,-48.61 125.16,-37.72 130.44,-28.52"/>
<polygon fill="midnightblue" stroke="midnightblue" points="133.53,-30.17 135.48,-19.75 127.46,-26.68 133.53,-30.17"/>
</g>
<!-- Node6 -->
<g id="node6" class="node">
<title>Node6</title>
<g id="a_node6"><a xlink:title=" ">
<polygon fill="none" stroke="#bfbfbf" points="180.5,-0.5 180.5,-19.5 224.5,-19.5 224.5,-0.5 180.5,-0.5"/>
<text text-anchor="middle" x="202.5" y="-7.5" font-family="Arial" font-size="10.00">thread</text>
</a>
</g>
</g>
<!-- Node2&#45;&gt;Node6 -->
<g id="edge5" class="edge">
<title>Node2&#45;&gt;Node6</title>
<path fill="none" stroke="midnightblue" d="M124.44,-56.32C139.09,-47.82 161.63,-34.73 178.74,-24.8"/>
<polygon fill="midnightblue" stroke="midnightblue" points="180.7,-27.7 187.6,-19.65 177.19,-21.65 180.7,-27.7"/>
</g>
</g>
</svg>
