<?xml version="1.0" encoding="UTF-8" standalone="no"?>
<!DOCTYPE svg PUBLIC "-//W3C//DTD SVG 1.1//EN"
 "http://www.w3.org/Graphics/SVG/1.1/DTD/svg11.dtd">
<!-- Generated by graphviz version 2.43.0 (0)
 -->
<!-- Title: /home/user/project/src/util/parallelUtil.h Pages: 1 -->
<svg width="233pt" height="95pt"
 viewBox="0.00 0.00 232.50 95.00" xmlns="http://www.w3.org/2000/svg" xmlns:xlink="http://www.w3.org/1999/xlink">
<g id="graph0" class="graph" transform="scale(1 1) rotate(0) translate(4 91)">
<title>/home/user/project/src/util/parallelUtil.h</title>
<!-- Node1 -->
<g id="node1" class="node">
<title>Node1</title>
<g id="a_node1"><a xlink:title=" ">
<polygon fill="#bfbfbf" stroke="black" points="56.5,-56.5 56.5,-86.5 162.5,-86.5 162.5,-56.5 56.5,-56.5"/>
<text text-anchor="start" x="64.5" y="-74.5" font-family="Arial" font-size="10.00">/home/user/project</text>
<text text-anchor="middle" x="109.5" y="-63.5" font-family="Arial" font-size="10.00">/src/util/parallelUtil.h</text>
</a>
</g>
</g>
<!-- Node2 -->
<g id="node2" class="node">
<title>Node2</title>
<g id="a_node2"><a xlink:title=" ">
<polygon fill="none" stroke="#bfbfbf" points="0,-0.5 0,-19.5 41,-19.5 41,-0.5 0,-0.5"/>
<text text-anchor="middle" x="20.5" y="-7.5" font-family="Arial" font-size="10.00">mpi.h</text>
</a>
</g>
</g>
<!-- Node1&#45;&gt;Node2 -->
<g id="edge1" class="edge">
<title>Node1&#45;&gt;Node2</title>
<path fill="none" stroke="midnightblue" d="M88.41,-56.4C74.41,-47.04 56.09,-34.79 42.01,-25.38"/>
<polygon fill="midnightblue" stroke="midnightblue" points="43.71,-22.31 33.45,-19.66 39.82,-28.13 43.71,-22.31"/>
</g>
<!-- Node3 -->
<g id="node3" class="node">
<title>Node3</title>
<g id="a_node3"><a xlink:title=" ">
<polygon fill="none" stroke="#bfbfbf" points="59,-0.5 59,-19.5 100,-19.5 100,-0.5 59,-0.5"/>
<text text-anchor="middle" x="79.5" y="-7.5" font-family="Arial" font-size="10.00">string</text>
</a>
</g>
</g>
<!-- Node1&#45;&gt;Node3 -->
<g id="edge2" class="edge">
<title>Node1&#45;&gt;Node3</title>
<path fill="none" stroke="midnightblue" d="M102.39,-56.4C98.21,-48.11 92.89,-37.55 88.43,-28.71"/>
<polygon fill="midnightblue" stroke="midnightblue" points="91.49,-27.01 83.87,-19.66 85.24,-30.16 91.49,-27.01"/>
</g>
<!-- Node4 -->
<g id="node4" class="node">
<title>Node4</title>
<g id="a_node4"><a xlink:title=" ">
<polygon fill="none" stroke="#bfbfbf" points="118.5,-0.5 118.5,-19.5 162.5,-19.5 162.5,-0.5 118.5,-0.5"/>
<text text-anchor="middle" x="140.5" y="-7.5" font-family="Arial" font-size="10.00">vector</text>
</a>
</g>
</g>
<!-- Node1&#45;&gt;Node4 -->
<g id="edge3" class="edge">
<title>Node1&#45;&gt;Node4</title>
<path fill="none" stroke="midnightblue" d="M116.85,-56.4C121.17,-48.11 126.67,-37.55 131.27,-28.71"/>
<polygon fill="midnightblue" stroke="midnightblue" points="134.47,-30.14 135.99,-19.66 128.26,-26.91 134.47,-30.14"/>
</g>
<!-- Node5 -->
<g id="node5" class="node">
<title>Node5</title>
<g id="a_node5"><a xlink:title=" ">
<polygon fill="none" stroke="#bfbfbf" points="180.5,-0.5 180.5,-19.5 224.5,-19.5 224.5,-0.5 180.5,-0.5"/>
<text text-anchor="middle" x="202.5" y="-7.5" font-family="Arial" font-size="10.00">thread</text>
</a>
</g>
</g>
<!-- Node1&#45;&gt;Node5 -->
<g id="edge4" class="edge">
<title>Node1&#45;&gt;Node5</title>
<path fill="none" stroke="midnightblue" d="M131.54,-56.4C146.31,-46.95 165.68,-34.56 180.45,-25.11"/>
<polygon fill="midnightblue" stroke="midnightblue" points="182.43,-28 188.97,-19.66 178.66,-22.1 182.43,-28"/>
</g>
</g>
</svg>
