<?xml version="1.0" encoding="UTF-8" standalone="no"?>
<!DOCTYPE svg PUBLIC "-//W3C//DTD SVG 1.1//EN"
 "http://www.w3.org/Graphics/SVG/1.1/DTD/svg11.dtd">
<!-- Generated by graphviz version 2.43.0 (0)
 -->
<!-- Title: /home/user/project/src/inp/pdecks/particleDeck.h Pages: 1 -->
<svg width="931pt" height="434pt"
 viewBox="0.00 0.00 930.50 434.00" xmlns="http://www.w3.org/2000/svg" xmlns:xlink="http://www.w3.org/1999/xlink">
<g id="graph0" class="graph" transform="scale(1 1) rotate(0) translate(4 430)">
<title>/home/user/project/src/inp/pdecks/particleDeck.h</title>
<!-- Node1 -->
<g id="Node000001" class="node">
<title>Node1</title>
<g id="a_Node000001"><a xlink:title=" ">
<polygon fill="#999999" stroke="#666666" points="719.5,-426 570.5,-426 570.5,-396 719.5,-396 719.5,-426"/>
<text text-anchor="start" x="578.5" y="-414" font-family="Arial" font-size="10.00">/home/user/project</text>
<text text-anchor="middle" x="645" y="-403" font-family="Arial" font-size="10.00">/src/inp/pdecks/particleDeck.h</text>
</a>
</g>
</g>
<!-- Node2 -->
<g id="Node000002" class="node">
<title>Node2</title>
<g id="a_Node000002"><a xlink:href="input_8cpp.html" target="_top" xlink:title=" ">
<polygon fill="white" stroke="#666666" points="98,-360 0,-360 0,-330 98,-330 98,-360"/>
<text text-anchor="start" x="8" y="-348" font-family="Arial" font-size="10.00">/home/user/project</text>
<text text-anchor="middle" x="49" y="-337" font-family="Arial" font-size="10.00">/src/inp/input.cpp</text>
</a>
</g>
</g>
<!-- Node1&#45;&gt;Node2 -->
<g id="edge1_Node000001_Node000002" class="edge">
<title>Node1&#45;&gt;Node2</title>
<g id="a_edge1_Node000001_Node000002"><a xlink:title=" ">
<path fill="none" stroke="#63b8ff" d="M560.21,-405.33C454.71,-398.77 269.27,-384.75 112,-360 107.46,-359.29 102.76,-358.44 98.07,-357.53"/>
<polygon fill="#63b8ff" stroke="#63b8ff" points="560.28,-408.84 570.48,-405.96 560.71,-401.85 560.28,-408.84"/>
</a>
</g>
</g>
<!-- Node3 -->
<g id="Node000003" class="node">
<title>Node3</title>
<g id="a_Node000003"><a xlink:href="particleFLoading_8cpp.html" target="_top" xlink:title=" ">
<polygon fill="white" stroke="#666666" points="209,-30 49,-30 49,0 209,0 209,-30"/>
<text text-anchor="start" x="57" y="-18" font-family="Arial" font-size="10.00">/home/user/project</text>
<text text-anchor="middle" x="129" y="-7" font-family="Arial" font-size="10.00">/src/loading/particleFLoading.cpp</text>
</a>
</g>
</g>
<!-- Node1&#45;&gt;Node3 -->
<g id="edge2_Node000001_Node000003" class="edge">
<title>Node1&#45;&gt;Node3</title>
<g id="a_edge2_Node000001_Node000003"><a xlink:title=" ">
<path fill="none" stroke="#63b8ff" d="M560.01,-406.17C412.81,-397.2 126,-368.39 126,-280 126,-280 126,-280 126,-146 126,-103.78 127.6,-53.88 128.46,-30.04"/>
<polygon fill="#63b8ff" stroke="#63b8ff" points="560.17,-409.69 570.36,-406.78 560.59,-402.7 560.17,-409.69"/>
</a>
</g>
</g>
<!-- Node4 -->
<g id="Node000004" class="node">
<title>Node4</title>
<g id="a_Node000004"><a xlink:href="particleLoading_8h.html" target="_top" xlink:title=" ">
<polygon fill="white" stroke="#666666" points="655.5,-360 512.5,-360 512.5,-330 655.5,-330 655.5,-360"/>
<text text-anchor="start" x="520.5" y="-348" font-family="Arial" font-size="10.00">/home/user/project</text>
<text text-anchor="middle" x="584" y="-337" font-family="Arial" font-size="10.00">/src/loading/particleLoading.h</text>
</a>
</g>
</g>
<!-- Node1&#45;&gt;Node4 -->
<g id="edge3_Node000001_Node000004" class="edge">
<title>Node1&#45;&gt;Node4</title>
<g id="a_edge3_Node000001_Node000004"><a xlink:title=" ">
<path fill="none" stroke="#63b8ff" d="M624.38,-388.37C615.51,-379.06 605.39,-368.44 597.5,-360.16"/>
<polygon fill="#63b8ff" stroke="#63b8ff" points="622.03,-390.97 631.46,-395.8 627.1,-386.14 622.03,-390.97"/>
</a>
</g>
</g>
<!-- Node18 -->
<g id="Node000018" class="node">
<title>Node18</title>
<g id="a_Node000018"><a xlink:href="particleULoading_8cpp.html" target="_top" xlink:title=" ">
<polygon fill="white" stroke="#666666" points="922.5,-30 761.5,-30 761.5,0 922.5,0 922.5,-30"/>
<text text-anchor="start" x="769.5" y="-18" font-family="Arial" font-size="10.00">/home/user/project</text>
<text text-anchor="middle" x="842" y="-7" font-family="Arial" font-size="10.00">/src/loading/particleULoading.cpp</text>
</a>
</g>
</g>
<!-- Node1&#45;&gt;Node18 -->
<g id="edge24_Node000001_Node000018" class="edge">
<title>Node1&#45;&gt;Node18</title>
<g id="a_edge24_Node000001_Node000018"><a xlink:title=" ">
<path fill="none" stroke="#63b8ff" d="M729.49,-398.23C796.87,-383.52 880,-350.99 880,-280 880,-280 880,-280 880,-146 880,-102.26 859.94,-53.46 848.97,-30.03"/>
<polygon fill="#63b8ff" stroke="#63b8ff" points="728.76,-394.81 719.68,-400.28 730.18,-401.66 728.76,-394.81"/>
</a>
</g>
</g>
<!-- Node22 -->
<g id="Node000022" class="node">
<title>Node22</title>
<g id="a_Node000022"><a xlink:href="refParticle_8h.html" target="_top" xlink:title=" ">
<polygon fill="white" stroke="#666666" points="775.5,-162 652.5,-162 652.5,-132 775.5,-132 775.5,-162"/>
<text text-anchor="start" x="660.5" y="-150" font-family="Arial" font-size="10.00">/home/user/project</text>
<text text-anchor="middle" x="714" y="-139" font-family="Arial" font-size="10.00">/src/particle/refParticle.h</text>
</a>
</g>
</g>
<!-- Node1&#45;&gt;Node22 -->
<g id="edge26_Node000001_Node000022" class="edge">
<title>Node1&#45;&gt;Node22</title>
<g id="a_edge26_Node000001_Node000022"><a xlink:title=" ">
<path fill="none" stroke="#63b8ff" d="M654.72,-386.34C657.92,-378.09 661.33,-368.71 664,-360 686.49,-286.6 704.75,-196.3 711.35,-162.06"/>
<polygon fill="#63b8ff" stroke="#63b8ff" points="651.43,-385.15 651,-395.73 657.94,-387.73 651.43,-385.15"/>
</a>
</g>
</g>
<!-- Node23 -->
<g id="Node000023" class="node">
<title>Node23</title>
<g id="a_Node000023"><a xlink:href="refParticle_8cpp.html" target="_top" xlink:title=" ">
<polygon fill="white" stroke="#666666" points="800,-96 666,-96 666,-66 800,-66 800,-96"/>
<text text-anchor="start" x="674" y="-84" font-family="Arial" font-size="10.00">/home/user/project</text>
<text text-anchor="middle" x="733" y="-73" font-family="Arial" font-size="10.00">/src/particle/refParticle.cpp</text>
</a>
</g>
</g>
<!-- Node1&#45;&gt;Node23 -->
<g id="edge25_Node000001_Node000023" class="edge">
<title>Node1&#45;&gt;Node23</title>
<g id="a_edge25_Node000001_Node000023"><a xlink:title=" ">
<path fill="none" stroke="#63b8ff" d="M697.38,-392.07C743.71,-372.49 804,-336.21 804,-280 804,-280 804,-280 804,-212 804,-175.46 803.13,-163.73 785,-132 776.92,-117.86 763.64,-105.19 752.52,-96.14"/>
<polygon fill="#63b8ff" stroke="#63b8ff" points="695.97,-388.86 688.03,-395.88 698.61,-395.35 695.97,-388.86"/>
</a>
</g>
</g>
<!-- Node5 -->
<g id="Node000005" class="node">
<title>Node5</title>
<g id="a_Node000005"><a xlink:href="particleFLoading_8h.html" target="_top" xlink:title=" ">
<polygon fill="white" stroke="#666666" points="455.5,-294 306.5,-294 306.5,-264 455.5,-264 455.5,-294"/>
<text text-anchor="start" x="314.5" y="-282" font-family="Arial" font-size="10.00">/home/user/project</text>
<text text-anchor="middle" x="381" y="-271" font-family="Arial" font-size="10.00">/src/loading/particleFLoading.h</text>
</a>
</g>
</g>
<!-- Node4&#45;&gt;Node5 -->
<g id="edge4_Node000004_Node000005" class="edge">
<title>Node4&#45;&gt;Node5</title>
<g id="a_edge4_Node000004_Node000005"><a xlink:title=" ">
<path fill="none" stroke="#63b8ff" d="M529.62,-326.86C497.03,-316.58 456.1,-303.68 425.45,-294.01"/>
<polygon fill="#63b8ff" stroke="#63b8ff" points="528.86,-330.29 539.45,-329.95 530.97,-323.61 528.86,-330.29"/>
</a>
</g>
</g>
<!-- Node24 -->
<g id="Node000024" class="node">
<title>Node24</title>
<g id="a_Node000024"><a xlink:href="particleULoading_8h.html" target="_top" xlink:title=" ">
<polygon fill="white" stroke="#666666" points="659.5,-294 508.5,-294 508.5,-264 659.5,-264 659.5,-294"/>
<text text-anchor="start" x="516.5" y="-282" font-family="Arial" font-size="10.00">/home/user/project</text>
<text text-anchor="middle" x="584" y="-271" font-family="Arial" font-size="10.00">/src/loading/particleULoading.h</text>
</a>
</g>
</g>
<!-- Node4&#45;&gt;Node24 -->
<g id="edge21_Node000004_Node000024" class="edge">
<title>Node4&#45;&gt;Node24</title>
<g id="a_edge21_Node000004_Node000024"><a xlink:title=" ">
<path fill="none" stroke="#63b8ff" d="M584,-319.54C584,-310.96 584,-301.61 584,-294.16"/>
<polygon fill="#63b8ff" stroke="#63b8ff" points="580.5,-319.8 584,-329.8 587.5,-319.8 580.5,-319.8"/>
</a>
</g>
</g>
<!-- Node5&#45;&gt;Node3 -->
<g id="edge5_Node000005_Node000003" class="edge">
<title>Node5&#45;&gt;Node3</title>
<g id="a_edge5_Node000005_Node000003"><a xlink:title=" ">
<path fill="none" stroke="#63b8ff" d="M350.1,-258.31C337.45,-249.66 323,-238.97 311,-228 237.8,-161.05 165.41,-65.78 139.25,-30.16"/>
<polygon fill="#63b8ff" stroke="#63b8ff" points="348.27,-261.29 358.52,-263.96 352.17,-255.48 348.27,-261.29"/>
</a>
</g>
</g>
<!-- Node6 -->
<g id="Node000006" class="node">
<title>Node6</title>
<g id="a_Node000006"><a xlink:href="modelData_8h.html" target="_top" xlink:title=" ">
<polygon fill="white" stroke="#666666" points="441.5,-228 320.5,-228 320.5,-198 441.5,-198 441.5,-228"/>
<text text-anchor="start" x="328.5" y="-216" font-family="Arial" font-size="10.00">/home/user/project</text>
<text text-anchor="middle" x="381" y="-205" font-family="Arial" font-size="10.00">/src/model/modelData.h</text>
</a>
</g>
</g>
<!-- Node5&#45;&gt;Node6 -->
<g id="edge6_Node000005_Node000006" class="edge">
<title>Node5&#45;&gt;Node6</title>
<g id="a_edge6_Node000005_Node000006"><a xlink:title=" ">
<path fill="none" stroke="#63b8ff" d="M381,-253.54C381,-244.96 381,-235.61 381,-228.16"/>
<polygon fill="#63b8ff" stroke="#63b8ff" points="377.5,-253.8 381,-263.8 384.5,-253.8 377.5,-253.8"/>
</a>
</g>
</g>
<!-- Node7 -->
<g id="Node000007" class="node">
<title>Node7</title>
<g id="a_Node000007"><a xlink:href="materialUtil_8h.html" target="_top" xlink:title=" ">
<polygon fill="#fff0f0" stroke="red" points="437.5,-162 306.5,-162 306.5,-132 437.5,-132 437.5,-162"/>
<text text-anchor="start" x="314.5" y="-150" font-family="Arial" font-size="10.00">/home/user/project</text>
<text text-anchor="middle" x="372" y="-139" font-family="Arial" font-size="10.00">/src/material/materialUtil.h</text>
</a>
</g>
</g>
<!-- Node6&#45;&gt;Node7 -->
<g id="edge7_Node000006_Node000007" class="edge">
<title>Node6&#45;&gt;Node7</title>
<g id="a_edge7_Node000006_Node000007"><a xlink:title=" ">
<path fill="none" stroke="#63b8ff" d="M377.6,-187.83C376.38,-179.17 375.05,-169.7 373.99,-162.16"/>
<polygon fill="#63b8ff" stroke="#63b8ff" points="374.14,-188.38 379,-197.8 381.08,-187.41 374.14,-188.38"/>
</a>
</g>
</g>
<!-- Node13 -->
<g id="Node000013" class="node">
<title>Node13</title>
<g id="a_Node000013"><a xlink:href="demModel_8h.html" target="_top" xlink:title=" ">
<polygon fill="#fff0f0" stroke="red" points="596,-162 456,-162 456,-132 596,-132 596,-162"/>
<text text-anchor="start" x="464" y="-150" font-family="Arial" font-size="10.00">/home/user/project</text>
<text text-anchor="middle" x="526" y="-139" font-family="Arial" font-size="10.00">/src/model/dem/demModel.h</text>
</a>
</g>
</g>
<!-- Node6&#45;&gt;Node13 -->
<g id="edge8_Node000006_Node000013" class="edge">
<title>Node6&#45;&gt;Node13</title>
<g id="a_edge8_Node000006_Node000013"><a xlink:title=" ">
<path fill="none" stroke="#63b8ff" d="M422.27,-193.78C445.13,-183.69 473.12,-171.34 494.25,-162.01"/>
<polygon fill="#63b8ff" stroke="#63b8ff" points="420.56,-190.71 412.82,-197.95 423.38,-197.12 420.56,-190.71"/>
</a>
</g>
</g>
<!-- Node16 -->
<g id="Node000016" class="node">
<title>Node16</title>
<g id="a_Node000016"><a xlink:href="modelData_8cpp.html" target="_top" xlink:title=" ">
<polygon fill="white" stroke="#666666" points="686.5,-30 555.5,-30 555.5,0 686.5,0 686.5,-30"/>
<text text-anchor="start" x="563.5" y="-18" font-family="Arial" font-size="10.00">/home/user/project</text>
<text text-anchor="middle" x="621" y="-7" font-family="Arial" font-size="10.00">/src/model/modelData.cpp</text>
</a>
</g>
</g>
<!-- Node6&#45;&gt;Node16 -->
<g id="edge9_Node000006_Node000016" class="edge">
<title>Node6&#45;&gt;Node16</title>
<g id="a_edge9_Node000006_Node000016"><a xlink:title=" ">
<path fill="none" stroke="#63b8ff" d="M451.74,-205.14C509.5,-197.98 584.79,-184.58 605,-162 638.34,-124.76 630,-58.96 624.27,-30.16"/>
<polygon fill="#63b8ff" stroke="#63b8ff" points="451.05,-201.69 441.54,-206.36 451.88,-208.64 451.05,-201.69"/>
</a>
</g>
</g>
<!-- Node17 -->
<g id="Node000017" class="node">
<title>Node17</title>
<g id="a_Node000017"><a xlink:href="baseParticle_8h.html" target="_top" xlink:title=" ">
<polygon fill="#fff0f0" stroke="red" points="527.5,-96 394.5,-96 394.5,-66 527.5,-66 527.5,-96"/>
<text text-anchor="start" x="402.5" y="-84" font-family="Arial" font-size="10.00">/home/user/project</text>
<text text-anchor="middle" x="461" y="-73" font-family="Arial" font-size="10.00">/src/particle/baseParticle.h</text>
</a>
</g>
</g>
<!-- Node6&#45;&gt;Node17 -->
<g id="edge10_Node000006_Node000017" class="edge">
<title>Node6&#45;&gt;Node17</title>
<g id="a_edge10_Node000006_Node000017"><a xlink:title=" ">
<path fill="none" stroke="#63b8ff" d="M330.45,-192.99C317.22,-185.44 304.56,-175.31 297,-162 290.41,-150.41 289.06,-142.71 297,-132 319.32,-101.86 359.4,-89.28 394.35,-84.27"/>
<polygon fill="#63b8ff" stroke="#63b8ff" points="329.16,-196.27 339.64,-197.81 332.41,-190.07 329.16,-196.27"/>
</a>
</g>
</g>
<!-- Node19 -->
<g id="Node000019" class="node">
<title>Node19</title>
<g id="a_Node000019"><a xlink:href="vtkParticleReader_8cpp.html" target="_top" xlink:title=" ">
<polygon fill="white" stroke="#666666" points="373,-30 227,-30 227,0 373,0 373,-30"/>
<text text-anchor="start" x="235" y="-18" font-family="Arial" font-size="10.00">/home/user/project</text>
<text text-anchor="middle" x="300" y="-7" font-family="Arial" font-size="10.00">/src/rw/vtkParticleReader.cpp</text>
</a>
</g>
</g>
<!-- Node6&#45;&gt;Node19 -->
<g id="edge19_Node000006_Node000019" class="edge">
<title>Node6&#45;&gt;Node19</title>
<g id="a_edge19_Node000006_Node000019"><a xlink:title=" ">
<path fill="none" stroke="#63b8ff" d="M317.47,-193.65C302.68,-186.26 288.72,-176.04 280,-162 253.82,-119.83 278.81,-57.73 292.44,-30.12"/>
<polygon fill="#63b8ff" stroke="#63b8ff" points="316.2,-196.92 326.75,-197.9 319.11,-190.55 316.2,-196.92"/>
</a>
</g>
</g>
<!-- Node20 -->
<g id="Node000020" class="node">
<title>Node20</title>
<g id="a_Node000020"><a xlink:href="vtkParticleWriter_8cpp.html" target="_top" xlink:title=" ">
<polygon fill="white" stroke="#666666" points="531,-30 391,-30 391,0 531,0 531,-30"/>
<text text-anchor="start" x="399" y="-18" font-family="Arial" font-size="10.00">/home/user/project</text>
<text text-anchor="middle" x="461" y="-7" font-family="Arial" font-size="10.00">/src/rw/vtkParticleWriter.cpp</text>
</a>
</g>
</g>
<!-- Node6&#45;&gt;Node20 -->
<g id="edge20_Node000006_Node000020" class="edge">
<title>Node6&#45;&gt;Node20</title>
<g id="a_edge20_Node000006_Node000020"><a xlink:title=" ">
<path fill="none" stroke="#63b8ff" d="M323.6,-193.28C309.53,-185.84 296.18,-175.68 288,-162 281.16,-150.56 281.76,-143.79 288,-132 315.65,-79.74 378.55,-46.92 420.39,-30.02"/>
<polygon fill="#63b8ff" stroke="#63b8ff" points="322.37,-196.58 332.9,-197.8 325.43,-190.28 322.37,-196.58"/>
</a>
</g>
</g>
<!-- Node6&#45;&gt;Node22 -->
<g id="edge16_Node000006_Node000022" class="edge">
<title>Node6&#45;&gt;Node22</title>
<g id="a_edge16_Node000006_Node000022"><a xlink:title=" ">
<path fill="none" stroke="#63b8ff" d="M451.76,-198.4C511.28,-186.96 595.51,-170.77 652.32,-159.85"/>
<polygon fill="#63b8ff" stroke="#63b8ff" points="450.85,-195.01 441.69,-200.34 452.17,-201.89 450.85,-195.01"/>
</a>
</g>
</g>
<!-- Node17&#45;&gt;Node3 -->
<g id="edge11_Node000017_Node000003" class="edge">
<title>Node17&#45;&gt;Node3</title>
<g id="a_edge11_Node000017_Node000003"><a xlink:title=" ">
<path fill="none" stroke="#63b8ff" d="M384.18,-65.19C329.22,-54.6 255.73,-40.43 201.73,-30.02"/>
<polygon fill="#63b8ff" stroke="#63b8ff" points="383.73,-68.67 394.21,-67.13 385.06,-61.8 383.73,-68.67"/>
</a>
</g>
</g>
<!-- Node17&#45;&gt;Node16 -->
<g id="edge13_Node000017_Node000016" class="edge">
<title>Node17&#45;&gt;Node16</title>
<g id="a_edge13_Node000017_Node000016"><a xlink:title=" ">
<path fill="none" stroke="#63b8ff" d="M505.53,-62.19C530.94,-52.02 562.33,-39.47 585.97,-30.01"/>
<polygon fill="#63b8ff" stroke="#63b8ff" points="504.1,-58.99 496.11,-65.95 506.7,-65.49 504.1,-58.99"/>
</a>
</g>
</g>
<!-- Node17&#45;&gt;Node18 -->
<g id="edge12_Node000017_Node000018" class="edge">
<title>Node17&#45;&gt;Node18</title>
<g id="a_edge12_Node000017_Node000018"><a xlink:title=" ">
<path fill="none" stroke="#63b8ff" d="M537.97,-67.07C602.88,-56.17 695.46,-40.62 761.37,-29.54"/>
<polygon fill="#63b8ff" stroke="#63b8ff" points="537.08,-63.67 527.8,-68.78 538.24,-70.57 537.08,-63.67"/>
</a>
</g>
</g>
<!-- Node17&#45;&gt;Node19 -->
<g id="edge14_Node000017_Node000019" class="edge">
<title>Node17&#45;&gt;Node19</title>
<g id="a_edge14_Node000017_Node000019"><a xlink:title=" ">
<path fill="none" stroke="#63b8ff" d="M416.19,-62.19C390.63,-52.02 359.03,-39.47 335.25,-30.01"/>
<polygon fill="#63b8ff" stroke="#63b8ff" points="415.08,-65.51 425.67,-65.95 417.67,-59.01 415.08,-65.51"/>
</a>
</g>
</g>
<!-- Node17&#45;&gt;Node20 -->
<g id="edge15_Node000017_Node000020" class="edge">
<title>Node17&#45;&gt;Node20</title>
<g id="a_edge15_Node000017_Node000020"><a xlink:title=" ">
<path fill="none" stroke="#63b8ff" d="M461,-55.54C461,-46.96 461,-37.61 461,-30.16"/>
<polygon fill="#63b8ff" stroke="#63b8ff" points="457.5,-55.8 461,-65.8 464.5,-55.8 457.5,-55.8"/>
</a>
</g>
</g>
<!-- Node22&#45;&gt;Node17 -->
<g id="edge17_Node000022_Node000017" class="edge">
<title>Node22&#45;&gt;Node17</title>
<g id="a_edge17_Node000022_Node000017"><a xlink:title=" ">
<path fill="none" stroke="#63b8ff" d="M648.58,-129.45C607.59,-119.08 555.33,-105.86 516.39,-96.01"/>
<polygon fill="#63b8ff" stroke="#63b8ff" points="647.93,-132.9 658.48,-131.95 649.64,-126.11 647.93,-132.9"/>
</a>
</g>
</g>
<!-- Node22&#45;&gt;Node23 -->
<g id="edge18_Node000022_Node000023" class="edge">
<title>Node22&#45;&gt;Node23</title>
<g id="a_edge18_Node000022_Node000023"><a xlink:title=" ">
<path fill="none" stroke="#63b8ff" d="M721.09,-122.11C723.69,-113.38 726.53,-103.78 728.8,-96.16"/>
<polygon fill="#63b8ff" stroke="#63b8ff" points="717.71,-121.21 718.22,-131.8 724.42,-123.21 717.71,-121.21"/>
</a>
</g>
</g>
<!-- Node24&#45;&gt;Node6 -->
<g id="edge23_Node000024_Node000006" class="edge">
<title>Node24&#45;&gt;Node6</title>
<g id="a_edge23_Node000024_Node000006"><a xlink:title=" ">
<path fill="none" stroke="#63b8ff" d="M529.62,-260.86C497.03,-250.58 456.1,-237.68 425.45,-228.01"/>
<polygon fill="#63b8ff" stroke="#63b8ff" points="528.86,-264.29 539.45,-263.95 530.97,-257.61 528.86,-264.29"/>
</a>
</g>
</g>
<!-- Node24&#45;&gt;Node18 -->
<g id="edge22_Node000024_Node000018" class="edge">
<title>Node24&#45;&gt;Node18</title>
<g id="a_edge22_Node000024_Node000018"><a xlink:title=" ">
<path fill="none" stroke="#63b8ff" d="M634.47,-260.08C679.49,-241.75 744.39,-209.26 785,-162 819.58,-121.75 834.55,-58.11 839.72,-30.06"/>
<polygon fill="#63b8ff" stroke="#63b8ff" points="632.9,-256.93 624.9,-263.88 635.49,-263.44 632.9,-256.93"/>
</a>
</g>
</g>
</g>
</svg>
