<?xml version="1.0" encoding="UTF-8" standalone="no"?>
<!DOCTYPE svg PUBLIC "-//W3C//DTD SVG 1.1//EN"
 "http://www.w3.org/Graphics/SVG/1.1/DTD/svg11.dtd">
<!-- Generated by graphviz version 2.43.0 (0)
 -->
<!-- Title: /home/user/project/src/particle/particle.h Pages: 1 -->
<svg width="904pt" height="117pt"
 viewBox="0.00 0.00 903.50 117.00" xmlns="http://www.w3.org/2000/svg" xmlns:xlink="http://www.w3.org/1999/xlink">
<g id="graph0" class="graph" transform="scale(1 1) rotate(0) translate(4 113)">
<title>/home/user/project/src/particle/particle.h</title>
<!-- Node1 -->
<g id="node1" class="node">
<title>Node1</title>
<g id="a_node1"><a xlink:title=" ">
<polygon fill="#bfbfbf" stroke="black" points="399.5,-78.5 399.5,-108.5 509.5,-108.5 509.5,-78.5 399.5,-78.5"/>
<text text-anchor="start" x="407.5" y="-96.5" font-family="Arial" font-size="10.00">/home/user/project</text>
<text text-anchor="middle" x="454.5" y="-85.5" font-family="Arial" font-size="10.00">/src/particle/particle.h</text>
</a>
</g>
</g>
<!-- Node2 -->
<g id="node2" class="node">
<title>Node2</title>
<g id="a_node2"><a xlink:href="demModel_8cpp.html" target="_top" xlink:title=" ">
<polygon fill="none" stroke="black" points="0,-6 0,-36 151,-36 151,-6 0,-6"/>
<text text-anchor="start" x="8" y="-24" font-family="Arial" font-size="10.00">/home/user/project</text>
<text text-anchor="middle" x="75.5" y="-13" font-family="Arial" font-size="10.00">/src/model/dem/demModel.cpp</text>
</a>
</g>
</g>
<!-- Node1&#45;&gt;Node2 -->
<g id="edge1" class="edge">
<title>Node1&#45;&gt;Node2</title>
<path fill="none" stroke="midnightblue" d="M389.31,-82.57C329.39,-73.15 238.18,-58.08 159.5,-42 150.69,-40.2 141.39,-38.14 132.32,-36.05"/>
<polygon fill="midnightblue" stroke="midnightblue" points="388.97,-86.06 399.39,-84.15 390.05,-79.15 388.97,-86.06"/>
</g>
<!-- Node3 -->
<g id="node3" class="node">
<title>Node3</title>
<g id="a_node3"><a xlink:href="modelData_8cpp.html" target="_top" xlink:title=" ">
<polygon fill="none" stroke="black" points="169,-6 169,-36 300,-36 300,-6 169,-6"/>
<text text-anchor="start" x="177" y="-24" font-family="Arial" font-size="10.00">/home/user/project</text>
<text text-anchor="middle" x="234.5" y="-13" font-family="Arial" font-size="10.00">/src/model/modelData.cpp</text>
</a>
</g>
</g>
<!-- Node1&#45;&gt;Node3 -->
<g id="edge2" class="edge">
<title>Node1&#45;&gt;Node3</title>
<path fill="none" stroke="midnightblue" d="M401.01,-75.36C363.44,-63.32 313.8,-47.41 278.52,-36.11"/>
<polygon fill="midnightblue" stroke="midnightblue" points="400.18,-78.77 410.77,-78.49 402.32,-72.1 400.18,-78.77"/>
</g>
<!-- Node4 -->
<g id="node4" class="node">
<title>Node4</title>
<g id="a_node4"><a xlink:href="particle_8cpp.html" target="_top" xlink:title=" ">
<polygon fill="none" stroke="black" points="318,-6 318,-36 439,-36 439,-6 318,-6"/>
<text text-anchor="start" x="326" y="-24" font-family="Arial" font-size="10.00">/home/user/project</text>
<text text-anchor="middle" x="378.5" y="-13" font-family="Arial" font-size="10.00">/src/particle/particle.cpp</text>
</a>
</g>
</g>
<!-- Node1&#45;&gt;Node4 -->
<g id="edge3" class="edge">
<title>Node1&#45;&gt;Node4</title>
<path fill="none" stroke="midnightblue" d="M431.47,-71.14C419.19,-59.74 404.42,-46.04 393.6,-36"/>
<polygon fill="midnightblue" stroke="midnightblue" points="429.41,-74 439.12,-78.23 434.17,-68.87 429.41,-74"/>
</g>
<!-- Node5 -->
<g id="node5" class="node">
<title>Node5</title>
<g id="a_node5"><a xlink:href="vtkParticleReader_8cpp.html" target="_top" xlink:title=" ">
<polygon fill="none" stroke="black" points="457.5,-6 457.5,-36 603.5,-36 603.5,-6 457.5,-6"/>
<text text-anchor="start" x="465.5" y="-24" font-family="Arial" font-size="10.00">/home/user/project</text>
<text text-anchor="middle" x="530.5" y="-13" font-family="Arial" font-size="10.00">/src/rw/vtkParticleReader.cpp</text>
</a>
</g>
</g>
<!-- Node1&#45;&gt;Node5 -->
<g id="edge4" class="edge">
<title>Node1&#45;&gt;Node5</title>
<path fill="none" stroke="midnightblue" d="M477.53,-71.14C489.81,-59.74 504.58,-46.04 515.4,-36"/>
<polygon fill="midnightblue" stroke="midnightblue" points="474.83,-68.87 469.88,-78.23 479.59,-74 474.83,-68.87"/>
</g>
<!-- Node6 -->
<g id="node6" class="node">
<title>Node6</title>
<g id="a_node6"><a xlink:href="vtkParticleWriter_8cpp.html" target="_top" xlink:title=" ">
<polygon fill="none" stroke="black" points="621.5,-6 621.5,-36 761.5,-36 761.5,-6 621.5,-6"/>
<text text-anchor="start" x="629.5" y="-24" font-family="Arial" font-size="10.00">/home/user/project</text>
<text text-anchor="middle" x="691.5" y="-13" font-family="Arial" font-size="10.00">/src/rw/vtkParticleWriter.cpp</text>
</a>
</g>
</g>
<!-- Node1&#45;&gt;Node6 -->
<g id="edge5" class="edge">
<title>Node1&#45;&gt;Node6</title>
<path fill="none" stroke="midnightblue" d="M511.35,-75.59C551.91,-63.52 605.83,-47.48 644.08,-36.11"/>
<polygon fill="midnightblue" stroke="midnightblue" points="510.19,-72.28 501.61,-78.49 512.19,-78.99 510.19,-72.28"/>
</g>
<!-- Node7 -->
<g id="node7" class="node">
<title>Node7</title>
<g id="a_node7"><a xlink:href="testParticleLib_8cpp.html" target="_top" xlink:title=" ">
<polygon fill="none" stroke="black" points="779.5,-0.5 779.5,-41.5 895.5,-41.5 895.5,-0.5 779.5,-0.5"/>
<text text-anchor="start" x="787.5" y="-29.5" font-family="Arial" font-size="10.00">/home/user/project</text>
<text text-anchor="start" x="787.5" y="-18.5" font-family="Arial" font-size="10.00">/test/test_exec/particle</text>
<text text-anchor="middle" x="837.5" y="-7.5" font-family="Arial" font-size="10.00">/testParticleLib.cpp</text>
</a>
</g>
</g>
<!-- Node1&#45;&gt;Node7 -->
<g id="edge6" class="edge">
<title>Node1&#45;&gt;Node7</title>
<path fill="none" stroke="midnightblue" d="M519.71,-84.63C583.95,-76.28 684.64,-61.59 770.5,-42 773.34,-41.35 776.24,-40.65 779.15,-39.91"/>
<polygon fill="midnightblue" stroke="midnightblue" points="519.2,-81.17 509.72,-85.91 520.09,-88.11 519.2,-81.17"/>
</g>
</g>
</svg>
