<?xml version="1.0" encoding="UTF-8" standalone="no"?>
<!DOCTYPE svg PUBLIC "-//W3C//DTD SVG 1.1//EN"
 "http://www.w3.org/Graphics/SVG/1.1/DTD/svg11.dtd">
<!-- Generated by graphviz version 2.43.0 (0)
 -->
<!-- Title: /home/user/project/src/particle/particle.h Pages: 1 -->
<svg width="1967pt" height="442pt"
 viewBox="0.00 0.00 1966.55 442.00" xmlns="http://www.w3.org/2000/svg" xmlns:xlink="http://www.w3.org/1999/xlink">
<g id="graph0" class="graph" transform="scale(1 1) rotate(0) translate(4 438)">
<title>/home/user/project/src/particle/particle.h</title>
<!-- Node1 -->
<g id="node1" class="node">
<title>Node1</title>
<g id="a_node1"><a xlink:title=" ">
<polygon fill="#bfbfbf" stroke="black" points="407.55,-403.5 407.55,-433.5 517.55,-433.5 517.55,-403.5 407.55,-403.5"/>
<text text-anchor="start" x="415.55" y="-421.5" font-family="Arial" font-size="10.00">/home/user/project</text>
<text text-anchor="middle" x="462.55" y="-410.5" font-family="Arial" font-size="10.00">/src/particle/particle.h</text>
</a>
</g>
</g>
<!-- Node2 -->
<g id="node2" class="node">
<title>Node2</title>
<g id="a_node2"><a xlink:href="baseParticle_8h.html" target="_top" xlink:title=" ">
<polygon fill="none" stroke="black" points="718.05,-347.5 718.05,-366.5 797.05,-366.5 797.05,-347.5 718.05,-347.5"/>
<text text-anchor="middle" x="757.55" y="-354.5" font-family="Arial" font-size="10.00">baseParticle.h</text>
</a>
</g>
</g>
<!-- Node1&#45;&gt;Node2 -->
<g id="edge1" class="edge">
<title>Node1&#45;&gt;Node2</title>
<path fill="none" stroke="midnightblue" d="M517.69,-406.38C572.26,-395.37 655.04,-378.68 707.69,-368.06"/>
<polygon fill="midnightblue" stroke="midnightblue" points="708.69,-371.43 717.8,-366.02 707.3,-364.56 708.69,-371.43"/>
</g>
<!-- Node6 -->
<g id="node6" class="node">
<title>Node6</title>
<g id="a_node6"><a xlink:href="point_8h.html" target="_top" xlink:title=" ">
<polygon fill="none" stroke="red" points="725.55,-56.5 725.55,-75.5 771.55,-75.5 771.55,-56.5 725.55,-56.5"/>
<text text-anchor="middle" x="748.55" y="-63.5" font-family="Arial" font-size="10.00">point.h</text>
</a>
</g>
</g>
<!-- Node1&#45;&gt;Node6 -->
<g id="edge96" class="edge">
<title>Node1&#45;&gt;Node6</title>
<path fill="none" stroke="midnightblue" d="M407.49,-417.44C274.76,-414.68 -48.03,-390.96 6.55,-224 25.72,-165.36 34.51,-141.76 88.55,-112 143.72,-81.61 588.93,-70.26 715.25,-67.63"/>
<polygon fill="midnightblue" stroke="midnightblue" points="715.54,-71.13 725.46,-67.43 715.39,-64.13 715.54,-71.13"/>
</g>
<!-- Node11 -->
<g id="node9" class="node">
<title>Node11</title>
<g id="a_node9"><a xlink:title=" ">
<polygon fill="none" stroke="#bfbfbf" points="1257.55,-0.5 1257.55,-19.5 1301.55,-19.5 1301.55,-0.5 1257.55,-0.5"/>
<text text-anchor="middle" x="1279.55" y="-7.5" font-family="Arial" font-size="10.00">vector</text>
</a>
</g>
</g>
<!-- Node1&#45;&gt;Node11 -->
<g id="edge99" class="edge">
<title>Node1&#45;&gt;Node11</title>
<path fill="none" stroke="midnightblue" d="M517.57,-416.19C787.47,-409.41 1958.55,-375.75 1958.55,-302 1958.55,-302 1958.55,-302 1958.55,-121 1958.55,-73.44 1917.99,-72.94 1873.55,-56 1769.5,-16.33 1420.16,-11.56 1311.85,-11.04"/>
<polygon fill="midnightblue" stroke="midnightblue" points="1311.58,-7.54 1301.56,-11 1311.55,-14.54 1311.58,-7.54"/>
</g>
<!-- Node18 -->
<g id="node10" class="node">
<title>Node18</title>
<g id="a_node10"><a xlink:title=" ">
<polygon fill="none" stroke="#bfbfbf" points="470.55,-112.5 470.55,-131.5 516.55,-131.5 516.55,-112.5 470.55,-112.5"/>
<text text-anchor="middle" x="493.55" y="-119.5" font-family="Arial" font-size="10.00">cstring</text>
</a>
</g>
</g>
<!-- Node1&#45;&gt;Node18 -->
<g id="edge98" class="edge">
<title>Node1&#45;&gt;Node18</title>
<path fill="none" stroke="midnightblue" d="M462.55,-403.28C462.55,-381.48 462.55,-338.49 462.55,-302 462.55,-302 462.55,-302 462.55,-238.5 462.55,-203.01 476.37,-163.42 485.56,-141.03"/>
<polygon fill="midnightblue" stroke="midnightblue" points="488.8,-142.34 489.5,-131.77 482.36,-139.6 488.8,-142.34"/>
</g>
<!-- Node27 -->
<g id="node20" class="node">
<title>Node27</title>
<g id="a_node20"><a xlink:href="particleDeck_8h.html" target="_top" xlink:title=" ">
<polygon fill="none" stroke="red" points="1421.55,-112.5 1421.55,-131.5 1551.55,-131.5 1551.55,-112.5 1421.55,-112.5"/>
<text text-anchor="middle" x="1486.55" y="-119.5" font-family="Arial" font-size="10.00">inp/pdecks/particleDeck.h</text>
</a>
</g>
</g>
<!-- Node1&#45;&gt;Node27 -->
<g id="edge72" class="edge">
<title>Node1&#45;&gt;Node27</title>
<path fill="none" stroke="midnightblue" d="M517.59,-417.46C737.68,-416.56 1542.55,-406.18 1542.55,-302 1542.55,-302 1542.55,-302 1542.55,-238.5 1542.55,-200.09 1517.16,-161.04 1500.58,-139.63"/>
<polygon fill="midnightblue" stroke="midnightblue" points="1503.1,-137.18 1494.11,-131.58 1497.65,-141.57 1503.1,-137.18"/>
</g>
<!-- Node43 -->
<g id="node26" class="node">
<title>Node43</title>
<g id="a_node26"><a xlink:href="fracture_8h.html" target="_top" xlink:title=" ">
<polygon fill="none" stroke="black" points="181.05,-168.5 181.05,-187.5 282.05,-187.5 282.05,-168.5 181.05,-168.5"/>
<text text-anchor="middle" x="231.55" y="-175.5" font-family="Arial" font-size="10.00">geometry/fracture.h</text>
</a>
</g>
</g>
<!-- Node1&#45;&gt;Node43 -->
<g id="edge71" class="edge">
<title>Node1&#45;&gt;Node43</title>
<path fill="none" stroke="midnightblue" d="M435.49,-403.36C402.15,-385.08 344.97,-350.81 304.55,-311 282.94,-289.72 280.48,-281.4 265.55,-255 254.8,-235.98 244.9,-212.93 238.58,-197.24"/>
<polygon fill="midnightblue" stroke="midnightblue" points="241.74,-195.71 234.82,-187.69 235.23,-198.28 241.74,-195.71"/>
</g>
<!-- Node44 -->
<g id="node27" class="node">
<title>Node44</title>
<g id="a_node27"><a xlink:href="mesh_8h.html" target="_top" xlink:title=" ">
<polygon fill="none" stroke="black" points="102.55,-168.5 102.55,-187.5 162.55,-187.5 162.55,-168.5 102.55,-168.5"/>
<text text-anchor="middle" x="132.55" y="-175.5" font-family="Arial" font-size="10.00">fe/mesh.h</text>
</a>
</g>
</g>
<!-- Node1&#45;&gt;Node44 -->
<g id="edge66" class="edge">
<title>Node1&#45;&gt;Node44</title>
<path fill="none" stroke="midnightblue" d="M407.35,-414.34C349.29,-409.48 256.18,-397.3 181.55,-367 99.09,-333.52 57.33,-333.59 15.55,-255 9.09,-242.83 7.75,-235.36 15.55,-224 32.68,-199.06 65.72,-187.93 92.33,-182.98"/>
<polygon fill="midnightblue" stroke="midnightblue" points="93.23,-186.38 102.54,-181.31 92.1,-179.47 93.23,-186.38"/>
</g>
<!-- Node45 -->
<g id="node28" class="node">
<title>Node45</title>
<g id="a_node28"><a xlink:href="refParticle_8h.html" target="_top" xlink:title=" ">
<polygon fill="none" stroke="black" points="314.05,-291.5 314.05,-310.5 383.05,-310.5 383.05,-291.5 314.05,-291.5"/>
<text text-anchor="middle" x="348.55" y="-298.5" font-family="Arial" font-size="10.00">refParticle.h</text>
</a>
</g>
</g>
<!-- Node1&#45;&gt;Node45 -->
<g id="edge73" class="edge">
<title>Node1&#45;&gt;Node45</title>
<path fill="none" stroke="midnightblue" d="M448.57,-403.34C427.19,-381.68 386.51,-340.45 364.18,-317.83"/>
<polygon fill="midnightblue" stroke="midnightblue" points="366.63,-315.33 357.11,-310.67 361.64,-320.25 366.63,-315.33"/>
</g>
<!-- Node30 -->
<g id="node29" class="node">
<title>Node30</title>
<g id="a_node29"><a xlink:href="geomObjects_8h.html" target="_top" xlink:title=" ">
<polygon fill="none" stroke="red" points="966.55,-168.5 966.55,-187.5 1064.55,-187.5 1064.55,-168.5 966.55,-168.5"/>
<text text-anchor="middle" x="1015.55" y="-175.5" font-family="Arial" font-size="10.00">util/geomObjects.h</text>
</a>
</g>
</g>
<!-- Node1&#45;&gt;Node30 -->
<g id="edge94" class="edge">
<title>Node1&#45;&gt;Node30</title>
<path fill="none" stroke="midnightblue" d="M517.71,-414.27C674.63,-403.8 1117.57,-364.85 1200.55,-255 1208.86,-244.01 1209.07,-234.83 1200.55,-224 1192.53,-213.8 1124.74,-199.18 1073.53,-189.4"/>
<polygon fill="midnightblue" stroke="midnightblue" points="1074,-185.93 1063.53,-187.51 1072.7,-192.81 1074,-185.93"/>
</g>
<!-- Node32 -->
<g id="node30" class="node">
<title>Node32</title>
<g id="a_node30"><a xlink:href="transformation_8h.html" target="_top" xlink:title=" ">
<polygon fill="none" stroke="black" points="1005.05,-112.5 1005.05,-131.5 1092.05,-131.5 1092.05,-112.5 1005.05,-112.5"/>
<text text-anchor="middle" x="1048.55" y="-119.5" font-family="Arial" font-size="10.00">transformation.h</text>
</a>
</g>
</g>
<!-- Node1&#45;&gt;Node32 -->
<g id="edge97" class="edge">
<title>Node1&#45;&gt;Node32</title>
<path fill="none" stroke="midnightblue" d="M517.61,-416.75C722.41,-413.24 1428.55,-394.42 1428.55,-302 1428.55,-302 1428.55,-302 1428.55,-238.5 1428.55,-206.05 1434.12,-189.2 1409.55,-168 1359.52,-124.83 1184.93,-140.34 1102.28,-131.83"/>
<polygon fill="midnightblue" stroke="midnightblue" points="1102.55,-128.33 1092.2,-130.6 1101.7,-135.28 1102.55,-128.33"/>
</g>
<!-- Node46 -->
<g id="node31" class="node">
<title>Node46</title>
<g id="a_node31"><a xlink:href="matrix_8h.html" target="_top" xlink:title=" ">
<polygon fill="none" stroke="black" points="24.55,-230 24.55,-249 92.55,-249 92.55,-230 24.55,-230"/>
<text text-anchor="middle" x="58.55" y="-237" font-family="Arial" font-size="10.00">util/matrix.h</text>
</a>
</g>
</g>
<!-- Node1&#45;&gt;Node46 -->
<g id="edge95" class="edge">
<title>Node1&#45;&gt;Node46</title>
<path fill="none" stroke="midnightblue" d="M407.45,-413.19C356.89,-407.6 280.9,-394.99 220.55,-367 159.57,-338.71 100.6,-283.54 73.72,-256.38"/>
<polygon fill="midnightblue" stroke="midnightblue" points="76.21,-253.93 66.72,-249.21 71.2,-258.82 76.21,-253.93"/>
</g>
<!-- Node3 -->
<g id="node3" class="node">
<title>Node3</title>
<g id="a_node3"><a xlink:href="material_8h.html" target="_top" xlink:title=" ">
<polygon fill="none" stroke="black" points="1268.55,-224.5 1268.55,-254.5 1362.55,-254.5 1362.55,-224.5 1268.55,-224.5"/>
<text text-anchor="start" x="1276.55" y="-242.5" font-family="Arial" font-size="10.00">material/mparticle</text>
<text text-anchor="middle" x="1315.55" y="-231.5" font-family="Arial" font-size="10.00">/material.h</text>
</a>
</g>
</g>
<!-- Node2&#45;&gt;Node3 -->
<g id="edge2" class="edge">
<title>Node2&#45;&gt;Node3</title>
<path fill="none" stroke="midnightblue" d="M797.43,-348.53C843.69,-339.81 922.23,-324.81 989.55,-311 1083.91,-291.65 1193.3,-267.68 1258.33,-253.26"/>
<polygon fill="midnightblue" stroke="midnightblue" points="1259.38,-256.62 1268.38,-251.03 1257.86,-249.78 1259.38,-256.62"/>
</g>
<!-- Node2&#45;&gt;Node11 -->
<g id="edge65" class="edge">
<title>Node2&#45;&gt;Node11</title>
<path fill="none" stroke="midnightblue" d="M797.25,-356.31C1001.08,-357.41 1920.55,-355.96 1920.55,-240.5 1920.55,-240.5 1920.55,-240.5 1920.55,-121 1920.55,-71.3 1876.23,-73.09 1829.55,-56 1733.43,-20.81 1414.56,-13.01 1311.78,-11.4"/>
<polygon fill="midnightblue" stroke="midnightblue" points="1311.75,-7.9 1301.7,-11.25 1311.65,-14.9 1311.75,-7.9"/>
</g>
<!-- Node2&#45;&gt;Node18 -->
<g id="edge64" class="edge">
<title>Node2&#45;&gt;Node18</title>
<path fill="none" stroke="midnightblue" d="M746.36,-347.29C715.43,-323.05 626.48,-252.39 557.55,-188 540.3,-171.88 521.44,-152.5 508.7,-139.11"/>
<polygon fill="midnightblue" stroke="midnightblue" points="511.03,-136.49 501.62,-131.64 505.95,-141.31 511.03,-136.49"/>
</g>
<!-- Node23 -->
<g id="node16" class="node">
<title>Node23</title>
<g id="a_node16"><a xlink:href="modelData_8h.html" target="_top" xlink:title=" ">
<polygon fill="none" stroke="black" points="879.05,-291.5 879.05,-310.5 980.05,-310.5 980.05,-291.5 879.05,-291.5"/>
<text text-anchor="middle" x="929.55" y="-298.5" font-family="Arial" font-size="10.00">model/modelData.h</text>
</a>
</g>
</g>
<!-- Node2&#45;&gt;Node23 -->
<g id="edge27" class="edge">
<title>Node2&#45;&gt;Node23</title>
<path fill="none" stroke="midnightblue" d="M784.81,-347.44C813.99,-338.28 860.47,-323.69 892.86,-313.52"/>
<polygon fill="midnightblue" stroke="midnightblue" points="893.93,-316.85 902.43,-310.52 891.84,-310.17 893.93,-316.85"/>
</g>
<!-- Node39 -->
<g id="node24" class="node">
<title>Node39</title>
<g id="a_node24"><a xlink:title=" ">
<polygon fill="none" stroke="#bfbfbf" points="325.55,-112.5 325.55,-131.5 371.55,-131.5 371.55,-112.5 325.55,-112.5"/>
<text text-anchor="middle" x="348.55" y="-119.5" font-family="Arial" font-size="10.00">cstdint</text>
</a>
</g>
</g>
<!-- Node2&#45;&gt;Node39 -->
<g id="edge63" class="edge">
<title>Node2&#45;&gt;Node39</title>
<path fill="none" stroke="midnightblue" d="M739.59,-347.48C690.54,-324.02 550.65,-255.69 440.55,-188 414.64,-172.07 386.25,-151.5 367.96,-137.81"/>
<polygon fill="midnightblue" stroke="midnightblue" points="369.94,-134.92 359.85,-131.69 365.73,-140.51 369.94,-134.92"/>
</g>
<!-- Node4 -->
<g id="node4" class="node">
<title>Node4</title>
<g id="a_node4"><a xlink:href="influenceFn_8h.html" target="_top" xlink:title=" ">
<polygon fill="none" stroke="black" points="1083.05,-168.5 1083.05,-187.5 1158.05,-187.5 1158.05,-168.5 1083.05,-168.5"/>
<text text-anchor="middle" x="1120.55" y="-175.5" font-family="Arial" font-size="10.00">influenceFn.h</text>
</a>
</g>
</g>
<!-- Node3&#45;&gt;Node4 -->
<g id="edge3" class="edge">
<title>Node3&#45;&gt;Node4</title>
<path fill="none" stroke="midnightblue" d="M1269.34,-224.4C1235.5,-214.07 1190.13,-200.23 1158.43,-190.56"/>
<polygon fill="midnightblue" stroke="midnightblue" points="1159.23,-187.14 1148.64,-187.57 1157.19,-193.84 1159.23,-187.14"/>
</g>
<!-- Node3&#45;&gt;Node6 -->
<g id="edge22" class="edge">
<title>Node3&#45;&gt;Node6</title>
<path fill="none" stroke="midnightblue" d="M1268.5,-232.44C1174.64,-220.28 971.91,-193.57 957.55,-188 929.68,-177.18 872.56,-126.73 846.55,-112 824.81,-99.68 799.11,-87.98 779.48,-79.6"/>
<polygon fill="midnightblue" stroke="midnightblue" points="780.67,-76.3 770.1,-75.65 777.96,-82.75 780.67,-76.3"/>
</g>
<!-- Node3&#45;&gt;Node11 -->
<g id="edge26" class="edge">
<title>Node3&#45;&gt;Node11</title>
<path fill="none" stroke="midnightblue" d="M1362.7,-234.67C1487.55,-224.42 1817.81,-196.55 1825.55,-188 1974.71,-23.34 1449.89,-11.24 1311.94,-10.86"/>
<polygon fill="midnightblue" stroke="midnightblue" points="1311.61,-7.36 1301.6,-10.85 1311.6,-14.36 1311.61,-7.36"/>
</g>
<!-- Node19 -->
<g id="node11" class="node">
<title>Node19</title>
<g id="a_node11"><a xlink:href="materialDeck_8h.html" target="_top" xlink:title=" ">
<polygon fill="none" stroke="black" points="1570.55,-168.5 1570.55,-187.5 1698.55,-187.5 1698.55,-168.5 1570.55,-168.5"/>
<text text-anchor="middle" x="1634.55" y="-175.5" font-family="Arial" font-size="10.00">inp/decks/materialDeck.h</text>
</a>
</g>
</g>
<!-- Node3&#45;&gt;Node19 -->
<g id="edge14" class="edge">
<title>Node3&#45;&gt;Node19</title>
<path fill="none" stroke="midnightblue" d="M1362.78,-226.98C1367.42,-225.93 1372.07,-224.92 1376.55,-224 1442.1,-210.51 1517.56,-197.65 1569.87,-189.16"/>
<polygon fill="midnightblue" stroke="midnightblue" points="1570.7,-192.58 1580.01,-187.53 1569.58,-185.67 1570.7,-192.58"/>
</g>
<!-- Node14 -->
<g id="node12" class="node">
<title>Node14</title>
<g id="a_node12"><a xlink:title=" ">
<polygon fill="none" stroke="#bfbfbf" points="1570.05,-112.5 1570.05,-131.5 1611.05,-131.5 1611.05,-112.5 1570.05,-112.5"/>
<text text-anchor="middle" x="1590.55" y="-119.5" font-family="Arial" font-size="10.00">string</text>
</a>
</g>
</g>
<!-- Node3&#45;&gt;Node14 -->
<g id="edge25" class="edge">
<title>Node3&#45;&gt;Node14</title>
<path fill="none" stroke="midnightblue" d="M1349,-224.45C1403.19,-201.69 1509.32,-157.12 1560.94,-135.44"/>
<polygon fill="midnightblue" stroke="midnightblue" points="1562.35,-138.64 1570.21,-131.54 1559.64,-132.19 1562.35,-138.64"/>
</g>
<!-- Node20 -->
<g id="node13" class="node">
<title>Node20</title>
<g id="a_node13"><a xlink:href="function_8h.html" target="_top" xlink:title=" ">
<polygon fill="none" stroke="black" points="1110.05,-112.5 1110.05,-131.5 1185.05,-131.5 1185.05,-112.5 1110.05,-112.5"/>
<text text-anchor="middle" x="1147.55" y="-119.5" font-family="Arial" font-size="10.00">util/function.h</text>
</a>
</g>
</g>
<!-- Node3&#45;&gt;Node20 -->
<g id="edge19" class="edge">
<title>Node3&#45;&gt;Node20</title>
<path fill="none" stroke="midnightblue" d="M1360.37,-224.41C1393.37,-211.71 1429.34,-191.47 1409.55,-168 1395.91,-151.81 1267.24,-135.71 1195.44,-127.89"/>
<polygon fill="midnightblue" stroke="midnightblue" points="1195.59,-124.39 1185.27,-126.8 1194.84,-131.35 1195.59,-124.39"/>
</g>
<!-- Node21 -->
<g id="node14" class="node">
<title>Node21</title>
<g id="a_node14"><a xlink:title=" ">
<polygon fill="none" stroke="#bfbfbf" points="1360.55,-168.5 1360.55,-187.5 1400.55,-187.5 1400.55,-168.5 1360.55,-168.5"/>
<text text-anchor="middle" x="1380.55" y="-175.5" font-family="Arial" font-size="10.00">limits</text>
</a>
</g>
</g>
<!-- Node3&#45;&gt;Node21 -->
<g id="edge23" class="edge">
<title>Node3&#45;&gt;Node21</title>
<path fill="none" stroke="midnightblue" d="M1330.96,-224.4C1340.79,-215.4 1353.55,-203.72 1363.66,-194.47"/>
<polygon fill="midnightblue" stroke="midnightblue" points="1366.08,-196.99 1371.09,-187.66 1361.36,-191.83 1366.08,-196.99"/>
</g>
<!-- Node22 -->
<g id="node15" class="node">
<title>Node22</title>
<g id="a_node15"><a xlink:title=" ">
<polygon fill="none" stroke="#bfbfbf" points="1555.55,-56.5 1555.55,-75.5 1607.55,-75.5 1607.55,-56.5 1555.55,-56.5"/>
<text text-anchor="middle" x="1581.55" y="-63.5" font-family="Arial" font-size="10.00">memory</text>
</a>
</g>
</g>
<!-- Node3&#45;&gt;Node22 -->
<g id="edge24" class="edge">
<title>Node3&#45;&gt;Node22</title>
<path fill="none" stroke="midnightblue" d="M1362.8,-224.96C1364.4,-224.62 1365.99,-224.3 1367.55,-224 1442.18,-209.75 1656.74,-244.48 1707.55,-188 1713.5,-181.39 1710.88,-176.24 1707.55,-168 1690.25,-125.12 1642.94,-95.57 1611.47,-79.97"/>
<polygon fill="midnightblue" stroke="midnightblue" points="1612.8,-76.73 1602.26,-75.58 1609.78,-83.04 1612.8,-76.73"/>
</g>
<!-- Node5 -->
<g id="node5" class="node">
<title>Node5</title>
<g id="a_node5"><a xlink:href="io_8h.html" target="_top" xlink:title=" ">
<polygon fill="none" stroke="red" points="1241.55,-112.5 1241.55,-131.5 1289.55,-131.5 1289.55,-112.5 1241.55,-112.5"/>
<text text-anchor="middle" x="1265.55" y="-119.5" font-family="Arial" font-size="10.00">util/io.h</text>
</a>
</g>
</g>
<!-- Node4&#45;&gt;Node5 -->
<g id="edge4" class="edge">
<title>Node4&#45;&gt;Node5</title>
<path fill="none" stroke="midnightblue" d="M1143.53,-168.44C1167.71,-159.44 1205.97,-145.19 1233.2,-135.05"/>
<polygon fill="midnightblue" stroke="midnightblue" points="1234.53,-138.29 1242.68,-131.52 1232.09,-131.73 1234.53,-138.29"/>
</g>
<!-- Node10 -->
<g id="node8" class="node">
<title>Node10</title>
<g id="a_node8"><a xlink:title=" ">
<polygon fill="none" stroke="#bfbfbf" points="1036.55,-0.5 1036.55,-19.5 1090.55,-19.5 1090.55,-0.5 1036.55,-0.5"/>
<text text-anchor="middle" x="1063.55" y="-7.5" font-family="Arial" font-size="10.00">iostream</text>
</a>
</g>
</g>
<!-- Node4&#45;&gt;Node10 -->
<g id="edge12" class="edge">
<title>Node4&#45;&gt;Node10</title>
<path fill="none" stroke="midnightblue" d="M1145.27,-168.38C1171.4,-157.72 1207.23,-137.78 1194.55,-112 1173.59,-69.38 1125.04,-39.67 1093.29,-23.98"/>
<polygon fill="midnightblue" stroke="midnightblue" points="1094.56,-20.71 1084.03,-19.57 1091.55,-27.03 1094.56,-20.71"/>
</g>
<!-- Node4&#45;&gt;Node11 -->
<g id="edge13" class="edge">
<title>Node4&#45;&gt;Node11</title>
<path fill="none" stroke="midnightblue" d="M1158.47,-169.97C1208.11,-160.38 1289.89,-143.13 1298.55,-132 1322.08,-101.78 1303.1,-54.2 1289.78,-28.64"/>
<polygon fill="midnightblue" stroke="midnightblue" points="1292.76,-26.8 1284.88,-19.71 1286.62,-30.16 1292.76,-26.8"/>
</g>
<!-- Node4&#45;&gt;Node18 -->
<g id="edge11" class="edge">
<title>Node4&#45;&gt;Node18</title>
<path fill="none" stroke="midnightblue" d="M1082.9,-169.41C1079.75,-168.89 1076.6,-168.41 1073.55,-168 966.49,-153.64 633.41,-131.86 526.76,-125.09"/>
<polygon fill="midnightblue" stroke="midnightblue" points="526.79,-121.58 516.59,-124.44 526.35,-128.57 526.79,-121.58"/>
</g>
<!-- Node5&#45;&gt;Node6 -->
<g id="edge5" class="edge">
<title>Node5&#45;&gt;Node6</title>
<path fill="none" stroke="midnightblue" d="M1241.25,-117.76C1227.55,-115.98 1210.11,-113.77 1194.55,-112 1040.52,-94.47 856.15,-76.97 781.93,-70.07"/>
<polygon fill="midnightblue" stroke="midnightblue" points="782.07,-66.57 771.79,-69.13 781.42,-73.54 782.07,-66.57"/>
</g>
<!-- Node5&#45;&gt;Node10 -->
<g id="edge9" class="edge">
<title>Node5&#45;&gt;Node10</title>
<path fill="none" stroke="midnightblue" d="M1256.11,-112.45C1240.9,-99.01 1209.63,-72.77 1179.55,-56 1154.3,-41.92 1123.73,-30.26 1100.32,-22.34"/>
<polygon fill="midnightblue" stroke="midnightblue" points="1101.35,-18.99 1090.76,-19.18 1099.15,-25.64 1101.35,-18.99"/>
</g>
<!-- Node5&#45;&gt;Node11 -->
<g id="edge10" class="edge">
<title>Node5&#45;&gt;Node11</title>
<path fill="none" stroke="midnightblue" d="M1266.65,-112.37C1268.91,-94.62 1274.12,-53.67 1277.19,-29.6"/>
<polygon fill="midnightblue" stroke="midnightblue" points="1280.67,-29.95 1278.46,-19.59 1273.72,-29.07 1280.67,-29.95"/>
</g>
<!-- Node7 -->
<g id="node7" class="node">
<title>Node7</title>
<g id="a_node7"><a xlink:title=" ">
<polygon fill="none" stroke="#bfbfbf" points="1151.55,-0.5 1151.55,-19.5 1195.55,-19.5 1195.55,-0.5 1151.55,-0.5"/>
<text text-anchor="middle" x="1173.55" y="-7.5" font-family="Arial" font-size="10.00">cmath</text>
</a>
</g>
</g>
<!-- Node6&#45;&gt;Node7 -->
<g id="edge6" class="edge">
<title>Node6&#45;&gt;Node7</title>
<path fill="none" stroke="midnightblue" d="M771.95,-58.84C776.44,-57.79 781.13,-56.79 785.55,-56 923.84,-31.35 960.05,-36.48 1099.55,-20 1113.21,-18.39 1128.28,-16.56 1141.23,-14.98"/>
<polygon fill="midnightblue" stroke="midnightblue" points="1142.04,-18.41 1151.54,-13.72 1141.19,-11.46 1142.04,-18.41"/>
</g>
<!-- Node6&#45;&gt;Node10 -->
<g id="edge7" class="edge">
<title>Node6&#45;&gt;Node10</title>
<path fill="none" stroke="midnightblue" d="M771.58,-59.1C776.2,-58.01 781.02,-56.92 785.55,-56 871.14,-38.69 972.61,-23.63 1026.15,-16.11"/>
<polygon fill="midnightblue" stroke="midnightblue" points="1026.78,-19.55 1036.2,-14.7 1025.81,-12.62 1026.78,-19.55"/>
</g>
<!-- Node6&#45;&gt;Node11 -->
<g id="edge8" class="edge">
<title>Node6&#45;&gt;Node11</title>
<path fill="none" stroke="midnightblue" d="M771.93,-58.74C776.43,-57.7 781.12,-56.73 785.55,-56 970.01,-25.82 1018.63,-39.14 1204.55,-20 1218.55,-18.56 1233.99,-16.74 1247.21,-15.12"/>
<polygon fill="midnightblue" stroke="midnightblue" points="1247.77,-18.58 1257.26,-13.87 1246.9,-11.63 1247.77,-18.58"/>
</g>
<!-- Node19&#45;&gt;Node5 -->
<g id="edge15" class="edge">
<title>Node19&#45;&gt;Node5</title>
<path fill="none" stroke="midnightblue" d="M1576.08,-168.44C1498.28,-157.06 1363.2,-137.29 1300.01,-128.04"/>
<polygon fill="midnightblue" stroke="midnightblue" points="1300.19,-124.53 1289.79,-126.55 1299.18,-131.46 1300.19,-124.53"/>
</g>
<!-- Node19&#45;&gt;Node7 -->
<g id="edge16" class="edge">
<title>Node19&#45;&gt;Node7</title>
<path fill="none" stroke="midnightblue" d="M1635.4,-168.05C1636.19,-154.07 1635.5,-127.09 1620.55,-112 1590.85,-82 1303.09,-32.31 1205.63,-16.21"/>
<polygon fill="midnightblue" stroke="midnightblue" points="1206.19,-12.75 1195.76,-14.59 1205.06,-19.66 1206.19,-12.75"/>
</g>
<!-- Node19&#45;&gt;Node11 -->
<g id="edge18" class="edge">
<title>Node19&#45;&gt;Node11</title>
<path fill="none" stroke="midnightblue" d="M1640.45,-168.16C1648.04,-155.64 1659.58,-132.04 1653.55,-112 1644.97,-83.43 1641.83,-71.84 1616.55,-56 1566.14,-24.41 1386.16,-14.67 1311.92,-11.95"/>
<polygon fill="midnightblue" stroke="midnightblue" points="1311.88,-8.45 1301.77,-11.6 1311.64,-15.45 1311.88,-8.45"/>
</g>
<!-- Node19&#45;&gt;Node14 -->
<g id="edge17" class="edge">
<title>Node19&#45;&gt;Node14</title>
<path fill="none" stroke="midnightblue" d="M1627.29,-168.08C1621.01,-160.38 1611.77,-149.03 1604.12,-139.65"/>
<polygon fill="midnightblue" stroke="midnightblue" points="1606.71,-137.29 1597.68,-131.75 1601.29,-141.71 1606.71,-137.29"/>
</g>
<!-- Node20&#45;&gt;Node6 -->
<g id="edge20" class="edge">
<title>Node20&#45;&gt;Node6</title>
<path fill="none" stroke="midnightblue" d="M1109.93,-113.43C1107.1,-112.92 1104.28,-112.44 1101.55,-112 984.51,-93.11 844.59,-77.26 781.85,-70.5"/>
<polygon fill="midnightblue" stroke="midnightblue" points="782.07,-67 771.76,-69.42 781.33,-73.96 782.07,-67"/>
</g>
<!-- Node20&#45;&gt;Node11 -->
<g id="edge21" class="edge">
<title>Node20&#45;&gt;Node11</title>
<path fill="none" stroke="midnightblue" d="M1157.91,-112.37C1180.27,-93.73 1233.31,-49.53 1261.39,-26.13"/>
<polygon fill="midnightblue" stroke="midnightblue" points="1263.8,-28.68 1269.24,-19.59 1259.32,-23.3 1263.8,-28.68"/>
</g>
<!-- Node23&#45;&gt;Node3 -->
<g id="edge28" class="edge">
<title>Node23&#45;&gt;Node3</title>
<path fill="none" stroke="midnightblue" d="M980.41,-292.16C1052.27,-281.08 1183.1,-260.92 1258.29,-249.33"/>
<polygon fill="midnightblue" stroke="midnightblue" points="1259.16,-252.73 1268.51,-247.75 1258.1,-245.82 1259.16,-252.73"/>
</g>
<!-- Node23&#45;&gt;Node11 -->
<g id="edge62" class="edge">
<title>Node23&#45;&gt;Node11</title>
<path fill="none" stroke="midnightblue" d="M980.17,-297.16C1162.93,-286.45 1781.39,-246.18 1846.55,-188 1872.3,-165.01 1877.17,-143.27 1862.55,-112 1846.12,-76.84 1831.42,-70.81 1795.55,-56 1707.33,-19.57 1410.58,-12.61 1311.83,-11.3"/>
<polygon fill="midnightblue" stroke="midnightblue" points="1311.62,-7.8 1301.58,-11.18 1311.53,-14.8 1311.62,-7.8"/>
</g>
<!-- Node23&#45;&gt;Node18 -->
<g id="edge61" class="edge">
<title>Node23&#45;&gt;Node18</title>
<path fill="none" stroke="midnightblue" d="M914.1,-291.44C872.83,-268.84 756.2,-206.65 653.55,-168 610.67,-151.85 559.41,-138.42 526.68,-130.55"/>
<polygon fill="midnightblue" stroke="midnightblue" points="527.28,-127.09 516.74,-128.19 525.66,-133.91 527.28,-127.09"/>
</g>
<!-- Node24 -->
<g id="node17" class="node">
<title>Node24</title>
<g id="a_node17"><a xlink:href="input_8h.html" target="_top" xlink:title=" ">
<polygon fill="none" stroke="black" points="1754.55,-168.5 1754.55,-187.5 1816.55,-187.5 1816.55,-168.5 1754.55,-168.5"/>
<text text-anchor="middle" x="1785.55" y="-175.5" font-family="Arial" font-size="10.00">inp/input.h</text>
</a>
</g>
</g>
<!-- Node23&#45;&gt;Node24 -->
<g id="edge29" class="edge">
<title>Node23&#45;&gt;Node24</title>
<path fill="none" stroke="midnightblue" d="M980.28,-297.37C1062.83,-292.53 1231.12,-280.29 1371.55,-255 1425.34,-245.31 1436.98,-234.8 1490.55,-224 1600.6,-201.82 1629.92,-207.01 1740.55,-188 1741.65,-187.81 1742.77,-187.62 1743.89,-187.42"/>
<polygon fill="midnightblue" stroke="midnightblue" points="1744.93,-190.78 1754.12,-185.51 1743.65,-183.9 1744.93,-190.78"/>
</g>
<!-- Node25 -->
<g id="node18" class="node">
<title>Node25</title>
<g id="a_node18"><a xlink:href="particleFLoading_8h.html" target="_top" xlink:title=" ">
<polygon fill="none" stroke="black" points="911.55,-230 911.55,-249 1041.55,-249 1041.55,-230 911.55,-230"/>
<text text-anchor="middle" x="976.55" y="-237" font-family="Arial" font-size="10.00">loading/particleFLoading.h</text>
</a>
</g>
</g>
<!-- Node23&#45;&gt;Node25 -->
<g id="edge33" class="edge">
<title>Node23&#45;&gt;Node25</title>
<path fill="none" stroke="midnightblue" d="M936.29,-291.48C943.34,-282.55 954.59,-268.31 963.41,-257.14"/>
<polygon fill="midnightblue" stroke="midnightblue" points="966.38,-259.03 969.83,-249.01 960.89,-254.69 966.38,-259.03"/>
</g>
<!-- Node36 -->
<g id="node21" class="node">
<title>Node36</title>
<g id="a_node21"><a xlink:href="particleULoading_8h.html" target="_top" xlink:title=" ">
<polygon fill="none" stroke="black" points="1060.05,-230 1060.05,-249 1191.05,-249 1191.05,-230 1060.05,-230"/>
<text text-anchor="middle" x="1125.55" y="-237" font-family="Arial" font-size="10.00">loading/particleULoading.h</text>
</a>
</g>
</g>
<!-- Node23&#45;&gt;Node36 -->
<g id="edge40" class="edge">
<title>Node23&#45;&gt;Node36</title>
<path fill="none" stroke="midnightblue" d="M957.63,-291.48C991.84,-281.09 1049.75,-263.51 1087.82,-251.95"/>
<polygon fill="midnightblue" stroke="midnightblue" points="1088.97,-255.26 1097.52,-249.01 1086.94,-248.56 1088.97,-255.26"/>
</g>
<!-- Node37 -->
<g id="node22" class="node">
<title>Node37</title>
<g id="a_node22"><a xlink:href="nsearch_8h.html" target="_top" xlink:title=" ">
<polygon fill="none" stroke="black" points="644.05,-230 644.05,-249 741.05,-249 741.05,-230 644.05,-230"/>
<text text-anchor="middle" x="692.55" y="-237" font-family="Arial" font-size="10.00">nsearch/nsearch.h</text>
</a>
</g>
</g>
<!-- Node23&#45;&gt;Node37 -->
<g id="edge43" class="edge">
<title>Node23&#45;&gt;Node37</title>
<path fill="none" stroke="midnightblue" d="M895.6,-291.48C853.71,-280.96 782.42,-263.06 736.42,-251.51"/>
<polygon fill="midnightblue" stroke="midnightblue" points="737,-248.05 726.45,-249.01 735.29,-254.84 737,-248.05"/>
</g>
<!-- Node23&#45;&gt;Node39 -->
<g id="edge60" class="edge">
<title>Node23&#45;&gt;Node39</title>
<path fill="none" stroke="midnightblue" d="M878.98,-296.4C819.68,-291.24 718.9,-279.51 635.55,-255 565.5,-234.4 551.87,-218.54 485.55,-188 447.22,-170.35 403.17,-149.31 375.6,-136.06"/>
<polygon fill="midnightblue" stroke="midnightblue" points="376.75,-132.73 366.23,-131.54 373.72,-139.04 376.75,-132.73"/>
</g>
<!-- Node23&#45;&gt;Node43 -->
<g id="edge55" class="edge">
<title>Node23&#45;&gt;Node43</title>
<path fill="none" stroke="midnightblue" d="M878.85,-295.46C807.81,-288.72 674.78,-274.71 562.55,-255 457.76,-236.6 336.24,-206.37 273.64,-190.14"/>
<polygon fill="midnightblue" stroke="midnightblue" points="274.3,-186.7 263.74,-187.56 272.54,-193.47 274.3,-186.7"/>
</g>
<!-- Node24&#45;&gt;Node11 -->
<g id="edge31" class="edge">
<title>Node24&#45;&gt;Node11</title>
<path fill="none" stroke="midnightblue" d="M1778.56,-168.37C1759.42,-145.46 1703.51,-83.02 1641.55,-56 1582.64,-30.31 1389.62,-17.07 1312.15,-12.69"/>
<polygon fill="midnightblue" stroke="midnightblue" points="1312.19,-9.18 1302.01,-12.13 1311.81,-16.17 1312.19,-9.18"/>
</g>
<!-- Node24&#45;&gt;Node14 -->
<g id="edge30" class="edge">
<title>Node24&#45;&gt;Node14</title>
<path fill="none" stroke="midnightblue" d="M1754.65,-168.44C1718.1,-158.32 1657.62,-141.57 1621.18,-131.48"/>
<polygon fill="midnightblue" stroke="midnightblue" points="1621.71,-128 1611.14,-128.7 1619.84,-134.74 1621.71,-128"/>
</g>
<!-- Node24&#45;&gt;Node22 -->
<g id="edge32" class="edge">
<title>Node24&#45;&gt;Node22</title>
<path fill="none" stroke="midnightblue" d="M1774.77,-168.38C1757.79,-155.08 1723.48,-129.3 1691.55,-112 1667.33,-98.87 1638.44,-87.19 1616.35,-79.03"/>
<polygon fill="midnightblue" stroke="midnightblue" points="1617.31,-75.65 1606.72,-75.53 1614.92,-82.23 1617.31,-75.65"/>
</g>
<!-- Node25&#45;&gt;Node6 -->
<g id="edge39" class="edge">
<title>Node25&#45;&gt;Node6</title>
<path fill="none" stroke="midnightblue" d="M958.65,-229.85C940,-220.53 910.25,-204.76 886.55,-188 839.11,-154.44 789.22,-107.29 764.45,-82.94"/>
<polygon fill="midnightblue" stroke="midnightblue" points="766.62,-80.16 757.06,-75.61 761.7,-85.13 766.62,-80.16"/>
</g>
<!-- Node26 -->
<g id="node19" class="node">
<title>Node26</title>
<g id="a_node19"><a xlink:href="particleLoading_8h.html" target="_top" xlink:title=" ">
<polygon fill="none" stroke="black" points="1214.55,-168.5 1214.55,-187.5 1304.55,-187.5 1304.55,-168.5 1214.55,-168.5"/>
<text text-anchor="middle" x="1259.55" y="-175.5" font-family="Arial" font-size="10.00">particleLoading.h</text>
</a>
</g>
</g>
<!-- Node25&#45;&gt;Node26 -->
<g id="edge34" class="edge">
<title>Node25&#45;&gt;Node26</title>
<path fill="none" stroke="midnightblue" d="M1017.1,-229.98C1067.75,-219.33 1154.39,-201.11 1209.23,-189.58"/>
<polygon fill="midnightblue" stroke="midnightblue" points="1210.02,-192.99 1219.08,-187.51 1208.57,-186.14 1210.02,-192.99"/>
</g>
<!-- Node26&#45;&gt;Node11 -->
<g id="edge36" class="edge">
<title>Node26&#45;&gt;Node11</title>
<path fill="none" stroke="midnightblue" d="M1285.06,-168.47C1301.54,-161.48 1321.69,-149.79 1331.55,-132 1347.93,-102.46 1345.59,-86.72 1331.55,-56 1325.78,-43.36 1314.5,-32.91 1303.92,-25.27"/>
<polygon fill="midnightblue" stroke="midnightblue" points="1305.59,-22.18 1295.34,-19.53 1301.7,-28 1305.59,-22.18"/>
</g>
<!-- Node26&#45;&gt;Node14 -->
<g id="edge35" class="edge">
<title>Node26&#45;&gt;Node14</title>
<path fill="none" stroke="midnightblue" d="M1304.65,-170.1C1309.34,-169.39 1314.04,-168.68 1318.55,-168 1422.93,-152.28 1452.7,-155.47 1560.06,-131.81"/>
<polygon fill="midnightblue" stroke="midnightblue" points="1561,-135.18 1570,-129.59 1559.48,-128.35 1561,-135.18"/>
</g>
<!-- Node26&#45;&gt;Node27 -->
<g id="edge37" class="edge">
<title>Node26&#45;&gt;Node27</title>
<path fill="none" stroke="midnightblue" d="M1295.52,-168.44C1334.87,-159.08 1398.04,-144.06 1440.87,-133.87"/>
<polygon fill="midnightblue" stroke="midnightblue" points="1441.83,-137.24 1450.75,-131.52 1440.21,-130.43 1441.83,-137.24"/>
</g>
<!-- Node27&#45;&gt;Node22 -->
<g id="edge38" class="edge">
<title>Node27&#45;&gt;Node22</title>
<path fill="none" stroke="midnightblue" d="M1501.82,-112.32C1516.77,-103.82 1539.81,-90.73 1557.28,-80.8"/>
<polygon fill="midnightblue" stroke="midnightblue" points="1559.36,-83.64 1566.33,-75.65 1555.9,-77.55 1559.36,-83.64"/>
</g>
<!-- Node36&#45;&gt;Node6 -->
<g id="edge42" class="edge">
<title>Node36&#45;&gt;Node6</title>
<path fill="none" stroke="midnightblue" d="M1083.44,-229.91C1033.2,-219.31 952.49,-201.1 924.55,-188 872.72,-163.69 867.97,-144.08 820.55,-112 804.53,-101.16 786.01,-89.61 771.77,-80.92"/>
<polygon fill="midnightblue" stroke="midnightblue" points="773.46,-77.85 763.09,-75.66 769.83,-83.84 773.46,-77.85"/>
</g>
<!-- Node36&#45;&gt;Node26 -->
<g id="edge41" class="edge">
<title>Node36&#45;&gt;Node26</title>
<path fill="none" stroke="midnightblue" d="M1144.75,-229.98C1167.34,-219.95 1205.05,-203.2 1231.05,-191.65"/>
<polygon fill="midnightblue" stroke="midnightblue" points="1232.67,-194.77 1240.39,-187.51 1229.83,-188.37 1232.67,-194.77"/>
</g>
<!-- Node37&#45;&gt;Node6 -->
<g id="edge44" class="edge">
<title>Node37&#45;&gt;Node6</title>
<path fill="none" stroke="midnightblue" d="M695.67,-229.99C702.23,-212 717.81,-168.73 729.55,-132 734.53,-116.43 739.71,-98.59 743.4,-85.55"/>
<polygon fill="midnightblue" stroke="midnightblue" points="746.78,-86.45 746.11,-75.87 740.04,-84.56 746.78,-86.45"/>
</g>
<!-- Node37&#45;&gt;Node11 -->
<g id="edge52" class="edge">
<title>Node37&#45;&gt;Node11</title>
<path fill="none" stroke="midnightblue" d="M710.53,-229.9C739.26,-216.25 797.39,-189.04 847.55,-168 975.35,-114.4 1007.82,-101.98 1138.55,-56 1175.69,-42.94 1218.87,-29.4 1247.56,-20.63"/>
<polygon fill="midnightblue" stroke="midnightblue" points="1248.89,-23.88 1257.44,-17.62 1246.85,-17.18 1248.89,-23.88"/>
</g>
<!-- Node37&#45;&gt;Node14 -->
<g id="edge51" class="edge">
<title>Node37&#45;&gt;Node14</title>
<path fill="none" stroke="midnightblue" d="M741.08,-235.09C882.53,-225.07 1286.17,-195.96 1313.55,-188 1331.88,-182.67 1333.48,-174.14 1351.55,-168 1437.84,-138.68 1466.87,-152.58 1560.14,-131.79"/>
<polygon fill="midnightblue" stroke="midnightblue" points="1561.03,-135.18 1569.98,-129.53 1559.45,-128.36 1561.03,-135.18"/>
</g>
<!-- Node38 -->
<g id="node23" class="node">
<title>Node38</title>
<g id="a_node23"><a xlink:href="methods_8h.html" target="_top" xlink:title=" ">
<polygon fill="none" stroke="red" points="566.55,-168.5 566.55,-187.5 644.55,-187.5 644.55,-168.5 566.55,-168.5"/>
<text text-anchor="middle" x="605.55" y="-175.5" font-family="Arial" font-size="10.00">util/methods.h</text>
</a>
</g>
</g>
<!-- Node37&#45;&gt;Node38 -->
<g id="edge45" class="edge">
<title>Node37&#45;&gt;Node38</title>
<path fill="none" stroke="midnightblue" d="M680.09,-229.98C666.13,-220.43 643.29,-204.81 626.56,-193.37"/>
<polygon fill="midnightblue" stroke="midnightblue" points="628.22,-190.27 617.99,-187.51 624.27,-196.04 628.22,-190.27"/>
</g>
<!-- Node37&#45;&gt;Node39 -->
<g id="edge50" class="edge">
<title>Node37&#45;&gt;Node39</title>
<path fill="none" stroke="midnightblue" d="M666.98,-229.91C605.66,-209.33 450.3,-157.16 381.83,-134.17"/>
<polygon fill="midnightblue" stroke="midnightblue" points="382.59,-130.74 372,-130.87 380.37,-137.37 382.59,-130.74"/>
</g>
<!-- Node41 -->
<g id="node25" class="node">
<title>Node41</title>
<g id="a_node25"><a xlink:href="nflannSetup_8h.html" target="_top" xlink:title=" ">
<polygon fill="none" stroke="red" points="643.05,-112.5 643.05,-131.5 720.05,-131.5 720.05,-112.5 643.05,-112.5"/>
<text text-anchor="middle" x="681.55" y="-119.5" font-family="Arial" font-size="10.00">nflannSetup.h</text>
</a>
</g>
</g>
<!-- Node37&#45;&gt;Node41 -->
<g id="edge53" class="edge">
<title>Node37&#45;&gt;Node41</title>
<path fill="none" stroke="midnightblue" d="M691.73,-229.82C689.96,-211.26 685.78,-167.34 683.36,-141.97"/>
<polygon fill="midnightblue" stroke="midnightblue" points="686.82,-141.41 682.39,-131.78 679.85,-142.07 686.82,-141.41"/>
</g>
<!-- Node38&#45;&gt;Node6 -->
<g id="edge46" class="edge">
<title>Node38&#45;&gt;Node6</title>
<path fill="none" stroke="midnightblue" d="M607.25,-168.2C610.33,-154.42 618.13,-127.72 634.55,-112 656.84,-90.66 690.46,-79.06 715.42,-73.01"/>
<polygon fill="midnightblue" stroke="midnightblue" points="716.2,-76.42 725.19,-70.81 714.67,-69.59 716.2,-76.42"/>
</g>
<!-- Node38&#45;&gt;Node11 -->
<g id="edge49" class="edge">
<title>Node38&#45;&gt;Node11</title>
<path fill="none" stroke="midnightblue" d="M604.77,-168.11C604.06,-154.7 604.55,-129.03 616.55,-112 645.9,-70.36 667.77,-70.67 716.55,-56 924.82,6.62 988.09,-40.96 1204.55,-20 1218.56,-18.64 1234,-16.84 1247.22,-15.21"/>
<polygon fill="midnightblue" stroke="midnightblue" points="1247.78,-18.67 1257.27,-13.95 1246.91,-11.72 1247.78,-18.67"/>
</g>
<!-- Node38&#45;&gt;Node18 -->
<g id="edge48" class="edge">
<title>Node38&#45;&gt;Node18</title>
<path fill="none" stroke="midnightblue" d="M587.56,-168.32C569.52,-159.62 541.51,-146.12 520.75,-136.11"/>
<polygon fill="midnightblue" stroke="midnightblue" points="522.03,-132.84 511.5,-131.65 518.99,-139.15 522.03,-132.84"/>
</g>
<!-- Node38&#45;&gt;Node39 -->
<g id="edge47" class="edge">
<title>Node38&#45;&gt;Node39</title>
<path fill="none" stroke="midnightblue" d="M566.52,-168.8C516.13,-158.21 429.3,-139.97 381.86,-130"/>
<polygon fill="midnightblue" stroke="midnightblue" points="382.32,-126.52 371.81,-127.89 380.88,-133.37 382.32,-126.52"/>
</g>
<!-- Node41&#45;&gt;Node6 -->
<g id="edge54" class="edge">
<title>Node41&#45;&gt;Node6</title>
<path fill="none" stroke="midnightblue" d="M692.32,-112.32C702.32,-104.26 717.44,-92.08 729.48,-82.37"/>
<polygon fill="midnightblue" stroke="midnightblue" points="732,-84.83 737.59,-75.83 727.61,-79.38 732,-84.83"/>
</g>
<!-- Node43&#45;&gt;Node6 -->
<g id="edge56" class="edge">
<title>Node43&#45;&gt;Node6</title>
<path fill="none" stroke="midnightblue" d="M239.49,-168.41C253.47,-153.91 284.1,-124.9 316.55,-112 389.12,-83.16 627.02,-71.53 715.24,-68.14"/>
<polygon fill="midnightblue" stroke="midnightblue" points="715.62,-71.63 725.48,-67.76 715.36,-64.63 715.62,-71.63"/>
</g>
<!-- Node43&#45;&gt;Node11 -->
<g id="edge59" class="edge">
<title>Node43&#45;&gt;Node11</title>
<path fill="none" stroke="midnightblue" d="M235.34,-168.1C241.99,-153.68 257.2,-125.47 279.55,-112 397.2,-41.12 1190.77,-21.27 1204.55,-20 1218.57,-18.7 1234.01,-16.91 1247.22,-15.27"/>
<polygon fill="midnightblue" stroke="midnightblue" points="1247.79,-18.73 1257.27,-14 1246.91,-11.78 1247.79,-18.73"/>
</g>
<!-- Node43&#45;&gt;Node18 -->
<g id="edge58" class="edge">
<title>Node43&#45;&gt;Node18</title>
<path fill="none" stroke="midnightblue" d="M273.07,-168.44C324.98,-157.74 412.81,-139.64 460.44,-129.82"/>
<polygon fill="midnightblue" stroke="midnightblue" points="461.44,-133.19 470.53,-127.75 460.03,-126.34 461.44,-133.19"/>
</g>
<!-- Node43&#45;&gt;Node39 -->
<g id="edge57" class="edge">
<title>Node43&#45;&gt;Node39</title>
<path fill="none" stroke="midnightblue" d="M250.09,-168.44C269.18,-159.64 299.13,-145.81 320.99,-135.72"/>
<polygon fill="midnightblue" stroke="midnightblue" points="322.49,-138.88 330.1,-131.52 319.55,-132.53 322.49,-138.88"/>
</g>
<!-- Node44&#45;&gt;Node6 -->
<g id="edge67" class="edge">
<title>Node44&#45;&gt;Node6</title>
<path fill="none" stroke="midnightblue" d="M147.42,-168.49C173.31,-154.11 228.8,-125.28 279.55,-112 438.64,-70.36 637.11,-66.37 714.99,-66.57"/>
<polygon fill="midnightblue" stroke="midnightblue" points="715.14,-70.07 725.16,-66.63 715.18,-63.08 715.14,-70.07"/>
</g>
<!-- Node44&#45;&gt;Node11 -->
<g id="edge70" class="edge">
<title>Node44&#45;&gt;Node11</title>
<path fill="none" stroke="midnightblue" d="M146.58,-168.4C186.66,-144.4 305.89,-77.11 415.55,-56 760.26,10.35 854.72,-48.93 1204.55,-20 1218.58,-18.84 1234.02,-17.07 1247.23,-15.41"/>
<polygon fill="midnightblue" stroke="midnightblue" points="1247.81,-18.86 1257.28,-14.11 1246.91,-11.92 1247.81,-18.86"/>
</g>
<!-- Node44&#45;&gt;Node18 -->
<g id="edge69" class="edge">
<title>Node44&#45;&gt;Node18</title>
<path fill="none" stroke="midnightblue" d="M162.73,-169.76C165.7,-169.13 168.68,-168.53 171.55,-168 276.32,-148.63 401.64,-133.36 460.26,-126.67"/>
<polygon fill="midnightblue" stroke="midnightblue" points="460.86,-130.13 470.4,-125.53 460.07,-123.17 460.86,-130.13"/>
</g>
<!-- Node44&#45;&gt;Node39 -->
<g id="edge68" class="edge">
<title>Node44&#45;&gt;Node39</title>
<path fill="none" stroke="midnightblue" d="M162.59,-169.49C202.77,-159.45 273.78,-141.69 315.46,-131.27"/>
<polygon fill="midnightblue" stroke="midnightblue" points="316.53,-134.61 325.39,-128.79 314.84,-127.82 316.53,-134.61"/>
</g>
<!-- Node45&#45;&gt;Node3 -->
<g id="edge77" class="edge">
<title>Node45&#45;&gt;Node3</title>
<path fill="none" stroke="midnightblue" d="M383.11,-299.08C498.9,-295.79 883.72,-283.3 1200.55,-255 1219.41,-253.32 1239.94,-250.91 1258.36,-248.54"/>
<polygon fill="midnightblue" stroke="midnightblue" points="1258.9,-252 1268.36,-247.24 1257.99,-245.06 1258.9,-252"/>
</g>
<!-- Node45&#45;&gt;Node6 -->
<g id="edge89" class="edge">
<title>Node45&#45;&gt;Node6</title>
<path fill="none" stroke="midnightblue" d="M317.97,-291.46C255.57,-273.32 117.44,-229.2 93.55,-188 89.09,-180.31 88.69,-175.44 93.55,-168 127.54,-116.03 161.37,-127.29 221.55,-112 315.79,-88.06 614.78,-72.93 715.25,-68.42"/>
<polygon fill="midnightblue" stroke="midnightblue" points="715.59,-71.91 725.43,-67.97 715.28,-64.92 715.59,-71.91"/>
</g>
<!-- Node45&#45;&gt;Node11 -->
<g id="edge93" class="edge">
<title>Node45&#45;&gt;Node11</title>
<path fill="none" stroke="midnightblue" d="M314.04,-299.83C269.84,-298.1 192.43,-289.8 137.55,-255 105.95,-234.96 98.51,-223.46 86.55,-188 83.71,-179.58 81.72,-175.46 86.55,-168 153.85,-64.11 220.87,-83.52 341.55,-56 528.69,-13.32 1013.23,-35.45 1204.55,-20 1218.58,-18.87 1234.03,-17.1 1247.24,-15.44"/>
<polygon fill="midnightblue" stroke="midnightblue" points="1247.82,-18.89 1257.28,-14.13 1246.92,-11.95 1247.82,-18.89"/>
</g>
<!-- Node45&#45;&gt;Node18 -->
<g id="edge92" class="edge">
<title>Node45&#45;&gt;Node18</title>
<path fill="none" stroke="midnightblue" d="M354.48,-291.35C369.4,-269.78 410.02,-212.21 448.55,-168 457.45,-157.8 468.13,-147.05 476.86,-138.63"/>
<polygon fill="midnightblue" stroke="midnightblue" points="479.39,-141.05 484.21,-131.62 474.56,-135.98 479.39,-141.05"/>
</g>
<!-- Node45&#45;&gt;Node27 -->
<g id="edge76" class="edge">
<title>Node45&#45;&gt;Node27</title>
<path fill="none" stroke="midnightblue" d="M383.2,-299.89C462.09,-298.95 660.73,-292.69 821.55,-255 859.08,-246.21 865.21,-233.55 902.55,-224 1017.71,-194.56 1054.35,-224.23 1167.55,-188 1185.73,-182.18 1187.45,-174.03 1205.55,-168 1273.21,-145.46 1353.9,-134.03 1411.42,-128.35"/>
<polygon fill="midnightblue" stroke="midnightblue" points="1411.9,-131.82 1421.52,-127.39 1411.23,-124.85 1411.9,-131.82"/>
</g>
<!-- Node45&#45;&gt;Node39 -->
<g id="edge91" class="edge">
<title>Node45&#45;&gt;Node39</title>
<path fill="none" stroke="midnightblue" d="M344.95,-291.22C341.5,-282.28 336.52,-267.94 334.55,-255 328.74,-216.77 328.74,-206.23 334.55,-168 335.92,-159 338.74,-149.33 341.5,-141.26"/>
<polygon fill="midnightblue" stroke="midnightblue" points="344.82,-142.37 344.95,-131.78 338.24,-139.98 344.82,-142.37"/>
</g>
<!-- Node45&#45;&gt;Node43 -->
<g id="edge75" class="edge">
<title>Node45&#45;&gt;Node43</title>
<path fill="none" stroke="midnightblue" d="M337.78,-291.48C326.97,-282.74 310.02,-268.55 296.55,-255 277.34,-235.68 257.26,-211.48 244.59,-195.65"/>
<polygon fill="midnightblue" stroke="midnightblue" points="247.32,-193.47 238.37,-187.8 241.84,-197.81 247.32,-193.47"/>
</g>
<!-- Node45&#45;&gt;Node44 -->
<g id="edge74" class="edge">
<title>Node45&#45;&gt;Node44</title>
<path fill="none" stroke="midnightblue" d="M332.58,-291.48C315.83,-282.51 288.75,-267.92 265.55,-255 227.06,-233.57 182.69,-208.05 156.17,-192.71"/>
<polygon fill="midnightblue" stroke="midnightblue" points="157.66,-189.53 147.25,-187.54 154.15,-195.58 157.66,-189.53"/>
</g>
<!-- Node45&#45;&gt;Node30 -->
<g id="edge78" class="edge">
<title>Node45&#45;&gt;Node30</title>
<path fill="none" stroke="midnightblue" d="M383.08,-298.51C472.49,-294.31 709.69,-280.98 783.55,-255 807.51,-246.57 808.23,-234.04 831.55,-224 871.58,-206.76 919.49,-195.31 956.38,-188.27"/>
<polygon fill="midnightblue" stroke="midnightblue" points="957.28,-191.67 966.47,-186.41 956,-184.78 957.28,-191.67"/>
</g>
<!-- Node45&#45;&gt;Node32 -->
<g id="edge90" class="edge">
<title>Node45&#45;&gt;Node32</title>
<path fill="none" stroke="midnightblue" d="M383.21,-298.91C468.33,-295.81 685.45,-285.08 750.55,-255 768.82,-246.56 766.49,-234.67 783.55,-224 855.06,-179.25 949.56,-149.16 1004.24,-134.15"/>
<polygon fill="midnightblue" stroke="midnightblue" points="1005.23,-137.51 1013.97,-131.52 1003.4,-130.75 1005.23,-137.51"/>
</g>
<!-- Node45&#45;&gt;Node46 -->
<g id="edge87" class="edge">
<title>Node45&#45;&gt;Node46</title>
<path fill="none" stroke="midnightblue" d="M313.84,-294.77C266.61,-287.38 179.63,-272.78 106.55,-255 102.67,-254.05 98.63,-252.98 94.62,-251.86"/>
<polygon fill="midnightblue" stroke="midnightblue" points="95.4,-248.44 84.82,-249 93.44,-255.16 95.4,-248.44"/>
</g>
<!-- Node30&#45;&gt;Node5 -->
<g id="edge82" class="edge">
<title>Node30&#45;&gt;Node5</title>
<path fill="none" stroke="midnightblue" d="M1055.17,-168.44C1103.81,-157.94 1185.49,-140.29 1231.46,-130.36"/>
<polygon fill="midnightblue" stroke="midnightblue" points="1232.21,-133.78 1241.24,-128.25 1230.73,-126.94 1232.21,-133.78"/>
</g>
<!-- Node30&#45;&gt;Node6 -->
<g id="edge83" class="edge">
<title>Node30&#45;&gt;Node6</title>
<path fill="none" stroke="midnightblue" d="M1004.69,-168.39C986.85,-154.64 949.8,-127.67 914.55,-112 870.41,-92.38 815.78,-79.59 781.53,-72.83"/>
<polygon fill="midnightblue" stroke="midnightblue" points="782.07,-69.37 771.59,-70.92 780.75,-76.24 782.07,-69.37"/>
</g>
<!-- Node30&#45;&gt;Node10 -->
<g id="edge79" class="edge">
<title>Node30&#45;&gt;Node10</title>
<path fill="none" stroke="midnightblue" d="M1009.65,-168.15C1002.06,-155.63 990.51,-132.04 996.55,-112 1006.67,-78.46 1031.97,-45.82 1048.42,-27.1"/>
<polygon fill="midnightblue" stroke="midnightblue" points="1051.16,-29.29 1055.27,-19.53 1045.97,-24.6 1051.16,-29.29"/>
</g>
<!-- Node30&#45;&gt;Node20 -->
<g id="edge81" class="edge">
<title>Node30&#45;&gt;Node20</title>
<path fill="none" stroke="midnightblue" d="M1036.47,-168.44C1058.29,-159.52 1092.7,-145.44 1117.44,-135.32"/>
<polygon fill="midnightblue" stroke="midnightblue" points="1118.8,-138.54 1126.73,-131.52 1116.15,-132.06 1118.8,-138.54"/>
</g>
<!-- Node30&#45;&gt;Node22 -->
<g id="edge80" class="edge">
<title>Node30&#45;&gt;Node22</title>
<path fill="none" stroke="midnightblue" d="M1064.79,-169.36C1139.72,-157.7 1276.09,-136.36 1298.55,-132 1387.86,-114.66 1491.89,-89.47 1545.51,-76.11"/>
<polygon fill="midnightblue" stroke="midnightblue" points="1546.69,-79.42 1555.54,-73.6 1544.99,-72.63 1546.69,-79.42"/>
</g>
<!-- Node30&#45;&gt;Node32 -->
<g id="edge84" class="edge">
<title>Node30&#45;&gt;Node32</title>
<path fill="none" stroke="midnightblue" d="M1021,-168.08C1025.57,-160.61 1032.22,-149.72 1037.85,-140.52"/>
<polygon fill="midnightblue" stroke="midnightblue" points="1040.98,-142.11 1043.2,-131.75 1035,-138.46 1040.98,-142.11"/>
</g>
<!-- Node32&#45;&gt;Node6 -->
<g id="edge85" class="edge">
<title>Node32&#45;&gt;Node6</title>
<path fill="none" stroke="midnightblue" d="M1004.93,-113.15C944.45,-102.26 836.42,-82.82 781.93,-73.01"/>
<polygon fill="midnightblue" stroke="midnightblue" points="782.24,-69.51 771.78,-71.18 781,-76.4 782.24,-69.51"/>
</g>
<!-- Node32&#45;&gt;Node11 -->
<g id="edge86" class="edge">
<title>Node32&#45;&gt;Node11</title>
<path fill="none" stroke="midnightblue" d="M1066.68,-112.37C1107.08,-93.13 1204.69,-46.65 1252.4,-23.93"/>
<polygon fill="midnightblue" stroke="midnightblue" points="1253.99,-27.05 1261.51,-19.59 1250.98,-20.73 1253.99,-27.05"/>
</g>
<!-- Node46&#45;&gt;Node6 -->
<g id="edge88" class="edge">
<title>Node46&#45;&gt;Node6</title>
<path fill="none" stroke="midnightblue" d="M56.39,-229.61C53.48,-215.56 49.81,-187.8 60.55,-168 81.42,-129.53 100.28,-126.57 141.55,-112 248.71,-74.16 604.29,-68.14 715.21,-67.18"/>
<polygon fill="midnightblue" stroke="midnightblue" points="715.49,-70.68 725.46,-67.1 715.43,-63.68 715.49,-70.68"/>
</g>
</g>
</svg>
