<?xml version="1.0" encoding="UTF-8" standalone="no"?>
<!DOCTYPE svg PUBLIC "-//W3C//DTD SVG 1.1//EN"
 "http://www.w3.org/Graphics/SVG/1.1/DTD/svg11.dtd">
<!-- Generated by graphviz version 2.43.0 (0)
 -->
<!-- Title: /home/user/project/src/particle/particle.h Pages: 1 -->
<svg width="1803pt" height="442pt"
 viewBox="0.00 0.00 1803.00 442.00" xmlns="http://www.w3.org/2000/svg" xmlns:xlink="http://www.w3.org/1999/xlink">
<g id="graph0" class="graph" transform="scale(1 1) rotate(0) translate(4 438)">
<title>/home/user/project/src/particle/particle.h</title>
<!-- Node1 -->
<g id="node1" class="node">
<title>Node1</title>
<g id="a_node1"><a xlink:title=" ">
<polygon fill="#bfbfbf" stroke="black" points="1260,-403.5 1260,-433.5 1370,-433.5 1370,-403.5 1260,-403.5"/>
<text text-anchor="start" x="1268" y="-421.5" font-family="Arial" font-size="10.00">/home/user/project</text>
<text text-anchor="middle" x="1315" y="-410.5" font-family="Arial" font-size="10.00">/src/particle/particle.h</text>
</a>
</g>
</g>
<!-- Node2 -->
<g id="node2" class="node">
<title>Node2</title>
<g id="a_node2"><a xlink:href="baseParticle_8h.html" target="_top" xlink:title=" ">
<polygon fill="none" stroke="black" points="613.5,-347.5 613.5,-366.5 692.5,-366.5 692.5,-347.5 613.5,-347.5"/>
<text text-anchor="middle" x="653" y="-354.5" font-family="Arial" font-size="10.00">baseParticle.h</text>
</a>
</g>
</g>
<!-- Node1&#45;&gt;Node2 -->
<g id="edge1" class="edge">
<title>Node1&#45;&gt;Node2</title>
<path fill="none" stroke="midnightblue" d="M1259.98,-412.55C1133.51,-401.19 823.69,-373.34 702.63,-362.46"/>
<polygon fill="midnightblue" stroke="midnightblue" points="702.8,-358.96 692.53,-361.55 702.18,-365.93 702.8,-358.96"/>
</g>
<!-- Node6 -->
<g id="node6" class="node">
<title>Node6</title>
<g id="a_node6"><a xlink:href="point_8h.html" target="_top" xlink:title=" ">
<polygon fill="none" stroke="red" points="1064,-56.5 1064,-75.5 1110,-75.5 1110,-56.5 1064,-56.5"/>
<text text-anchor="middle" x="1087" y="-63.5" font-family="Arial" font-size="10.00">point.h</text>
</a>
</g>
</g>
<!-- Node1&#45;&gt;Node6 -->
<g id="edge89" class="edge">
<title>Node1&#45;&gt;Node6</title>
<path fill="none" stroke="midnightblue" d="M1370.06,-415.81C1496.14,-410.43 1795,-388.57 1795,-302 1795,-302 1795,-302 1795,-177 1795,-120.98 1740.38,-129 1687,-112 1580.08,-77.95 1230.03,-69.36 1120.24,-67.47"/>
<polygon fill="midnightblue" stroke="midnightblue" points="1120.15,-63.97 1110.09,-67.31 1120.03,-70.97 1120.15,-63.97"/>
</g>
<!-- Node11 -->
<g id="node9" class="node">
<title>Node11</title>
<g id="a_node9"><a xlink:title=" ">
<polygon fill="none" stroke="#bfbfbf" points="668,-0.5 668,-19.5 712,-19.5 712,-0.5 668,-0.5"/>
<text text-anchor="middle" x="690" y="-7.5" font-family="Arial" font-size="10.00">vector</text>
</a>
</g>
</g>
<!-- Node1&#45;&gt;Node11 -->
<g id="edge92" class="edge">
<title>Node1&#45;&gt;Node11</title>
<path fill="none" stroke="midnightblue" d="M1259.75,-415.59C1010.17,-406.61 0,-366.28 0,-302 0,-302 0,-302 0,-121 0,-81.98 23.91,-73.06 59,-56 113.11,-29.7 536.94,-15.45 657.88,-11.89"/>
<polygon fill="midnightblue" stroke="midnightblue" points="658.09,-15.39 667.99,-11.6 657.89,-8.39 658.09,-15.39"/>
</g>
<!-- Node18 -->
<g id="node10" class="node">
<title>Node18</title>
<g id="a_node10"><a xlink:title=" ">
<polygon fill="none" stroke="#bfbfbf" points="1242,-112.5 1242,-131.5 1288,-131.5 1288,-112.5 1242,-112.5"/>
<text text-anchor="middle" x="1265" y="-119.5" font-family="Arial" font-size="10.00">cstring</text>
</a>
</g>
</g>
<!-- Node1&#45;&gt;Node18 -->
<g id="edge91" class="edge">
<title>Node1&#45;&gt;Node18</title>
<path fill="none" stroke="midnightblue" d="M1307.35,-403.19C1297.11,-383.21 1279.37,-345.51 1272,-311 1259.06,-250.43 1261.45,-176.43 1263.56,-142.14"/>
<polygon fill="midnightblue" stroke="midnightblue" points="1267.08,-141.97 1264.27,-131.75 1260.09,-141.49 1267.08,-141.97"/>
</g>
<!-- Node27 -->
<g id="node20" class="node">
<title>Node27</title>
<g id="a_node20"><a xlink:href="particleDeck_8h.html" target="_top" xlink:title=" ">
<polygon fill="none" stroke="red" points="392,-112.5 392,-131.5 522,-131.5 522,-112.5 392,-112.5"/>
<text text-anchor="middle" x="457" y="-119.5" font-family="Arial" font-size="10.00">inp/pdecks/particleDeck.h</text>
</a>
</g>
</g>
<!-- Node1&#45;&gt;Node27 -->
<g id="edge66" class="edge">
<title>Node1&#45;&gt;Node27</title>
<path fill="none" stroke="midnightblue" d="M1259.78,-416.25C1064.18,-411.08 416,-387.51 416,-302 416,-302 416,-302 416,-238.5 416,-201.97 434.44,-162.48 446.59,-140.44"/>
<polygon fill="midnightblue" stroke="midnightblue" points="449.71,-142.03 451.64,-131.61 443.64,-138.55 449.71,-142.03"/>
</g>
<!-- Node43 -->
<g id="node26" class="node">
<title>Node43</title>
<g id="a_node26"><a xlink:href="fracture_8h.html" target="_top" xlink:title=" ">
<polygon fill="none" stroke="black" points="1430.5,-230 1430.5,-249 1531.5,-249 1531.5,-230 1430.5,-230"/>
<text text-anchor="middle" x="1481" y="-237" font-family="Arial" font-size="10.00">geometry/fracture.h</text>
</a>
</g>
</g>
<!-- Node1&#45;&gt;Node43 -->
<g id="edge65" class="edge">
<title>Node1&#45;&gt;Node43</title>
<path fill="none" stroke="midnightblue" d="M1328.3,-403.31C1358.79,-370.81 1433.54,-291.1 1465.79,-256.72"/>
<polygon fill="midnightblue" stroke="midnightblue" points="1468.39,-259.06 1472.68,-249.37 1463.28,-254.27 1468.39,-259.06"/>
</g>
<!-- Node46 -->
<g id="node29" class="node">
<title>Node46</title>
<g id="a_node29"><a xlink:href="mesh_8h.html" target="_top" xlink:title=" ">
<polygon fill="none" stroke="black" points="906,-168.5 906,-187.5 966,-187.5 966,-168.5 906,-168.5"/>
<text text-anchor="middle" x="936" y="-175.5" font-family="Arial" font-size="10.00">fe/mesh.h</text>
</a>
</g>
</g>
<!-- Node1&#45;&gt;Node46 -->
<g id="edge61" class="edge">
<title>Node1&#45;&gt;Node46</title>
<path fill="none" stroke="midnightblue" d="M1259.91,-406.81C1226.67,-398.9 1184.27,-386.12 1150,-367 1063.64,-318.82 981.62,-231.2 949.86,-195.15"/>
<polygon fill="midnightblue" stroke="midnightblue" points="952.42,-192.76 943.21,-187.52 947.14,-197.36 952.42,-192.76"/>
</g>
<!-- Node47 -->
<g id="node30" class="node">
<title>Node47</title>
<g id="a_node30"><a xlink:href="refParticle_8h.html" target="_top" xlink:title=" ">
<polygon fill="none" stroke="black" points="1280.5,-291.5 1280.5,-310.5 1349.5,-310.5 1349.5,-291.5 1280.5,-291.5"/>
<text text-anchor="middle" x="1315" y="-298.5" font-family="Arial" font-size="10.00">refParticle.h</text>
</a>
</g>
</g>
<!-- Node1&#45;&gt;Node47 -->
<g id="edge67" class="edge">
<title>Node1&#45;&gt;Node47</title>
<path fill="none" stroke="midnightblue" d="M1315,-403.34C1315,-382.62 1315,-344.02 1315,-320.9"/>
<polygon fill="midnightblue" stroke="midnightblue" points="1318.5,-320.67 1315,-310.67 1311.5,-320.67 1318.5,-320.67"/>
</g>
<!-- Node30 -->
<g id="node31" class="node">
<title>Node30</title>
<g id="a_node31"><a xlink:href="geomObjects_8h.html" target="_top" xlink:title=" ">
<polygon fill="none" stroke="red" points="1555,-168.5 1555,-187.5 1653,-187.5 1653,-168.5 1555,-168.5"/>
<text text-anchor="middle" x="1604" y="-175.5" font-family="Arial" font-size="10.00">util/geomObjects.h</text>
</a>
</g>
</g>
<!-- Node1&#45;&gt;Node30 -->
<g id="edge87" class="edge">
<title>Node1&#45;&gt;Node30</title>
<path fill="none" stroke="midnightblue" d="M1349.86,-403.45C1403.91,-380.08 1508.22,-328.42 1571,-255 1585.28,-238.3 1594.27,-214.47 1599.19,-197.97"/>
<polygon fill="midnightblue" stroke="midnightblue" points="1602.69,-198.46 1601.97,-187.89 1595.94,-196.6 1602.69,-198.46"/>
</g>
<!-- Node32 -->
<g id="node32" class="node">
<title>Node32</title>
<g id="a_node32"><a xlink:href="transformation_8h.html" target="_top" xlink:title=" ">
<polygon fill="none" stroke="black" points="1590.5,-112.5 1590.5,-131.5 1677.5,-131.5 1677.5,-112.5 1590.5,-112.5"/>
<text text-anchor="middle" x="1634" y="-119.5" font-family="Arial" font-size="10.00">transformation.h</text>
</a>
</g>
</g>
<!-- Node1&#45;&gt;Node32 -->
<g id="edge90" class="edge">
<title>Node1&#45;&gt;Node32</title>
<path fill="none" stroke="midnightblue" d="M1370.09,-414.67C1488.57,-407.07 1757,-381.11 1757,-302 1757,-302 1757,-302 1757,-238.5 1757,-188.08 1701.4,-153.25 1664.96,-135.84"/>
<polygon fill="midnightblue" stroke="midnightblue" points="1666.26,-132.58 1655.71,-131.59 1663.33,-138.94 1666.26,-132.58"/>
</g>
<!-- Node48 -->
<g id="node33" class="node">
<title>Node48</title>
<g id="a_node33"><a xlink:href="matrix_8h.html" target="_top" xlink:title=" ">
<polygon fill="none" stroke="black" points="1344,-230 1344,-249 1412,-249 1412,-230 1344,-230"/>
<text text-anchor="middle" x="1378" y="-237" font-family="Arial" font-size="10.00">util/matrix.h</text>
</a>
</g>
</g>
<!-- Node1&#45;&gt;Node48 -->
<g id="edge88" class="edge">
<title>Node1&#45;&gt;Node48</title>
<path fill="none" stroke="midnightblue" d="M1321.57,-403.25C1330.75,-383.03 1347.54,-344.72 1359,-311 1364.86,-293.76 1370.12,-273.68 1373.62,-259.37"/>
<polygon fill="midnightblue" stroke="midnightblue" points="1377.1,-259.83 1376.02,-249.29 1370.29,-258.21 1377.1,-259.83"/>
</g>
<!-- Node3 -->
<g id="node3" class="node">
<title>Node3</title>
<g id="a_node3"><a xlink:href="material_8h.html" target="_top" xlink:title=" ">
<polygon fill="none" stroke="black" points="476,-224.5 476,-254.5 570,-254.5 570,-224.5 476,-224.5"/>
<text text-anchor="start" x="484" y="-242.5" font-family="Arial" font-size="10.00">material/mparticle</text>
<text text-anchor="middle" x="523" y="-231.5" font-family="Arial" font-size="10.00">/material.h</text>
</a>
</g>
</g>
<!-- Node2&#45;&gt;Node3 -->
<g id="edge2" class="edge">
<title>Node2&#45;&gt;Node3</title>
<path fill="none" stroke="midnightblue" d="M640.18,-347.2C627.74,-338.48 608.52,-324.51 593,-311 575.22,-295.52 556.47,-276.47 542.85,-262.08"/>
<polygon fill="midnightblue" stroke="midnightblue" points="545.25,-259.52 535.86,-254.62 540.14,-264.31 545.25,-259.52"/>
</g>
<!-- Node2&#45;&gt;Node11 -->
<g id="edge60" class="edge">
<title>Node2&#45;&gt;Node11</title>
<path fill="none" stroke="midnightblue" d="M613.12,-353.21C476.84,-342.61 38,-299.13 38,-179 38,-179 38,-179 38,-121 38,-80.46 65.23,-73.08 102,-56 201.87,-9.62 549.07,-9.41 657.44,-10.53"/>
<polygon fill="midnightblue" stroke="midnightblue" points="657.7,-14.03 667.74,-10.65 657.78,-7.03 657.7,-14.03"/>
</g>
<!-- Node2&#45;&gt;Node18 -->
<g id="edge59" class="edge">
<title>Node2&#45;&gt;Node18</title>
<path fill="none" stroke="midnightblue" d="M688.29,-347.45C772.51,-326.39 990.94,-267.85 1161,-188 1191.89,-173.5 1224.87,-151.67 1245.21,-137.38"/>
<polygon fill="midnightblue" stroke="midnightblue" points="1247.24,-140.23 1253.36,-131.58 1243.19,-134.53 1247.24,-140.23"/>
</g>
<!-- Node23 -->
<g id="node16" class="node">
<title>Node23</title>
<g id="a_node16"><a xlink:href="modelData_8h.html" target="_top" xlink:title=" ">
<polygon fill="none" stroke="black" points="602.5,-291.5 602.5,-310.5 703.5,-310.5 703.5,-291.5 602.5,-291.5"/>
<text text-anchor="middle" x="653" y="-298.5" font-family="Arial" font-size="10.00">model/modelData.h</text>
</a>
</g>
</g>
<!-- Node2&#45;&gt;Node23 -->
<g id="edge27" class="edge">
<title>Node2&#45;&gt;Node23</title>
<path fill="none" stroke="midnightblue" d="M653,-347.08C653,-340.01 653,-329.86 653,-320.99"/>
<polygon fill="midnightblue" stroke="midnightblue" points="656.5,-320.75 653,-310.75 649.5,-320.75 656.5,-320.75"/>
</g>
<!-- Node4 -->
<g id="node4" class="node">
<title>Node4</title>
<g id="a_node4"><a xlink:href="influenceFn_8h.html" target="_top" xlink:title=" ">
<polygon fill="none" stroke="black" points="984.5,-168.5 984.5,-187.5 1059.5,-187.5 1059.5,-168.5 984.5,-168.5"/>
<text text-anchor="middle" x="1022" y="-175.5" font-family="Arial" font-size="10.00">influenceFn.h</text>
</a>
</g>
</g>
<!-- Node3&#45;&gt;Node4 -->
<g id="edge3" class="edge">
<title>Node3&#45;&gt;Node4</title>
<path fill="none" stroke="midnightblue" d="M570.24,-225.69C573.19,-225.07 576.13,-224.5 579,-224 749.89,-194.31 798.22,-211.96 974.22,-187.96"/>
<polygon fill="midnightblue" stroke="midnightblue" points="974.92,-191.39 984.34,-186.55 973.96,-184.46 974.92,-191.39"/>
</g>
<!-- Node3&#45;&gt;Node6 -->
<g id="edge22" class="edge">
<title>Node3&#45;&gt;Node6</title>
<path fill="none" stroke="midnightblue" d="M570.27,-225.85C573.22,-225.19 576.14,-224.57 579,-224 692.56,-201.45 724.28,-214.42 837,-188 864.37,-181.59 870.06,-176.02 897,-168 957.34,-150.04 981.06,-166.07 1034,-132 1052.68,-119.98 1067.92,-99.2 1077.19,-84.37"/>
<polygon fill="midnightblue" stroke="midnightblue" points="1080.28,-86.02 1082.39,-75.63 1074.26,-82.43 1080.28,-86.02"/>
</g>
<!-- Node3&#45;&gt;Node11 -->
<g id="edge26" class="edge">
<title>Node3&#45;&gt;Node11</title>
<path fill="none" stroke="midnightblue" d="M475.82,-235.83C376.97,-229.75 155.34,-213.42 133,-188 127.13,-181.32 130.31,-176.47 133,-168 151.42,-109.94 159.29,-86.54 212,-56 288.04,-11.94 563.14,-9.93 657.77,-10.59"/>
<polygon fill="midnightblue" stroke="midnightblue" points="657.85,-14.1 667.88,-10.68 657.91,-7.1 657.85,-14.1"/>
</g>
<!-- Node19 -->
<g id="node11" class="node">
<title>Node19</title>
<g id="a_node11"><a xlink:href="materialDeck_8h.html" target="_top" xlink:title=" ">
<polygon fill="none" stroke="black" points="222,-168.5 222,-187.5 350,-187.5 350,-168.5 222,-168.5"/>
<text text-anchor="middle" x="286" y="-175.5" font-family="Arial" font-size="10.00">inp/decks/materialDeck.h</text>
</a>
</g>
</g>
<!-- Node3&#45;&gt;Node19 -->
<g id="edge14" class="edge">
<title>Node3&#45;&gt;Node19</title>
<path fill="none" stroke="midnightblue" d="M475.89,-226.67C433.37,-216 371.28,-200.41 329.81,-190"/>
<polygon fill="midnightblue" stroke="midnightblue" points="330.54,-186.57 319.99,-187.53 328.84,-193.36 330.54,-186.57"/>
</g>
<!-- Node14 -->
<g id="node12" class="node">
<title>Node14</title>
<g id="a_node12"><a xlink:title=" ">
<polygon fill="none" stroke="#bfbfbf" points="294.5,-112.5 294.5,-131.5 335.5,-131.5 335.5,-112.5 294.5,-112.5"/>
<text text-anchor="middle" x="315" y="-119.5" font-family="Arial" font-size="10.00">string</text>
</a>
</g>
</g>
<!-- Node3&#45;&gt;Node14 -->
<g id="edge25" class="edge">
<title>Node3&#45;&gt;Node14</title>
<path fill="none" stroke="midnightblue" d="M497.5,-224.34C457.19,-201.96 379.29,-158.7 339.58,-136.65"/>
<polygon fill="midnightblue" stroke="midnightblue" points="340.79,-133.32 330.35,-131.52 337.39,-139.44 340.79,-133.32"/>
</g>
<!-- Node20 -->
<g id="node13" class="node">
<title>Node20</title>
<g id="a_node13"><a xlink:href="function_8h.html" target="_top" xlink:title=" ">
<polygon fill="none" stroke="black" points="1458.5,-112.5 1458.5,-131.5 1533.5,-131.5 1533.5,-112.5 1458.5,-112.5"/>
<text text-anchor="middle" x="1496" y="-119.5" font-family="Arial" font-size="10.00">util/function.h</text>
</a>
</g>
</g>
<!-- Node3&#45;&gt;Node20 -->
<g id="edge19" class="edge">
<title>Node3&#45;&gt;Node20</title>
<path fill="none" stroke="midnightblue" d="M570.23,-225.63C573.19,-225.03 576.13,-224.47 579,-224 794.46,-188.49 852.01,-212.45 1069,-188 1207.35,-172.41 1369.62,-145.25 1448.34,-131.49"/>
<polygon fill="midnightblue" stroke="midnightblue" points="1449.19,-134.9 1458.43,-129.72 1447.98,-128 1449.19,-134.9"/>
</g>
<!-- Node21 -->
<g id="node14" class="node">
<title>Node21</title>
<g id="a_node14"><a xlink:title=" ">
<polygon fill="none" stroke="#bfbfbf" points="444,-168.5 444,-187.5 484,-187.5 484,-168.5 444,-168.5"/>
<text text-anchor="middle" x="464" y="-175.5" font-family="Arial" font-size="10.00">limits</text>
</a>
</g>
</g>
<!-- Node3&#45;&gt;Node21 -->
<g id="edge23" class="edge">
<title>Node3&#45;&gt;Node21</title>
<path fill="none" stroke="midnightblue" d="M509.02,-224.4C500.27,-215.58 488.97,-204.18 479.88,-195.02"/>
<polygon fill="midnightblue" stroke="midnightblue" points="482.11,-192.29 472.59,-187.66 477.14,-197.22 482.11,-192.29"/>
</g>
<!-- Node22 -->
<g id="node15" class="node">
<title>Node22</title>
<g id="a_node15"><a xlink:title=" ">
<polygon fill="none" stroke="#bfbfbf" points="384,-56.5 384,-75.5 436,-75.5 436,-56.5 384,-56.5"/>
<text text-anchor="middle" x="410" y="-63.5" font-family="Arial" font-size="10.00">memory</text>
</a>
</g>
</g>
<!-- Node3&#45;&gt;Node22 -->
<g id="edge24" class="edge">
<title>Node3&#45;&gt;Node22</title>
<path fill="none" stroke="midnightblue" d="M520.58,-224.31C517.15,-208.44 509.37,-183.02 493,-168 455.1,-133.22 413.19,-173.65 383,-132 372.19,-117.09 383.47,-97.2 394.57,-83.37"/>
<polygon fill="midnightblue" stroke="midnightblue" points="397.37,-85.49 401.26,-75.64 392.07,-80.91 397.37,-85.49"/>
</g>
<!-- Node5 -->
<g id="node5" class="node">
<title>Node5</title>
<g id="a_node5"><a xlink:href="io_8h.html" target="_top" xlink:title=" ">
<polygon fill="none" stroke="red" points="852,-112.5 852,-131.5 900,-131.5 900,-112.5 852,-112.5"/>
<text text-anchor="middle" x="876" y="-119.5" font-family="Arial" font-size="10.00">util/io.h</text>
</a>
</g>
</g>
<!-- Node4&#45;&gt;Node5 -->
<g id="edge4" class="edge">
<title>Node4&#45;&gt;Node5</title>
<path fill="none" stroke="midnightblue" d="M998.87,-168.44C974.52,-159.44 935.99,-145.19 908.58,-135.05"/>
<polygon fill="midnightblue" stroke="midnightblue" points="909.62,-131.7 899.03,-131.52 907.19,-138.27 909.62,-131.7"/>
</g>
<!-- Node10 -->
<g id="node8" class="node">
<title>Node10</title>
<g id="a_node8"><a xlink:title=" ">
<polygon fill="none" stroke="#bfbfbf" points="1104,-0.5 1104,-19.5 1158,-19.5 1158,-0.5 1104,-0.5"/>
<text text-anchor="middle" x="1131" y="-7.5" font-family="Arial" font-size="10.00">iostream</text>
</a>
</g>
</g>
<!-- Node4&#45;&gt;Node10 -->
<g id="edge12" class="edge">
<title>Node4&#45;&gt;Node10</title>
<path fill="none" stroke="midnightblue" d="M1042.31,-168.36C1058.15,-160.76 1079.78,-148.35 1094,-132 1119.62,-102.55 1127.5,-55.68 1129.92,-29.77"/>
<polygon fill="midnightblue" stroke="midnightblue" points="1133.42,-30 1130.68,-19.76 1126.44,-29.47 1133.42,-30"/>
</g>
<!-- Node4&#45;&gt;Node11 -->
<g id="edge13" class="edge">
<title>Node4&#45;&gt;Node11</title>
<path fill="none" stroke="midnightblue" d="M984.32,-169.6C981.17,-169.04 978.03,-168.5 975,-168 916.13,-158.39 751.62,-173.73 709,-132 681.61,-105.19 683.37,-56.15 686.81,-29.47"/>
<polygon fill="midnightblue" stroke="midnightblue" points="690.28,-29.95 688.31,-19.54 683.36,-28.9 690.28,-29.95"/>
</g>
<!-- Node4&#45;&gt;Node18 -->
<g id="edge11" class="edge">
<title>Node4&#45;&gt;Node18</title>
<path fill="none" stroke="midnightblue" d="M1059.7,-168.62C1106.95,-158.12 1187.15,-140.3 1232.05,-130.32"/>
<polygon fill="midnightblue" stroke="midnightblue" points="1232.86,-133.73 1241.86,-128.14 1231.34,-126.89 1232.86,-133.73"/>
</g>
<!-- Node5&#45;&gt;Node6 -->
<g id="edge5" class="edge">
<title>Node5&#45;&gt;Node6</title>
<path fill="none" stroke="midnightblue" d="M900.14,-114.58C903.45,-113.71 906.81,-112.83 910,-112 960.14,-98.99 1018.37,-84.26 1053.94,-75.3"/>
<polygon fill="midnightblue" stroke="midnightblue" points="1054.94,-78.66 1063.79,-72.82 1053.24,-71.87 1054.94,-78.66"/>
</g>
<!-- Node5&#45;&gt;Node10 -->
<g id="edge9" class="edge">
<title>Node5&#45;&gt;Node10</title>
<path fill="none" stroke="midnightblue" d="M896.01,-112.37C940.79,-93.05 1049.26,-46.26 1101.68,-23.65"/>
<polygon fill="midnightblue" stroke="midnightblue" points="1103.29,-26.77 1111.08,-19.59 1100.52,-20.34 1103.29,-26.77"/>
</g>
<!-- Node5&#45;&gt;Node11 -->
<g id="edge10" class="edge">
<title>Node5&#45;&gt;Node11</title>
<path fill="none" stroke="midnightblue" d="M873.31,-112.46C868.49,-98.55 857.08,-71.07 838,-56 804.2,-29.31 754.67,-18.4 722.38,-13.97"/>
<polygon fill="midnightblue" stroke="midnightblue" points="722.49,-10.46 712.14,-12.71 721.63,-17.41 722.49,-10.46"/>
</g>
<!-- Node7 -->
<g id="node7" class="node">
<title>Node7</title>
<g id="a_node7"><a xlink:title=" ">
<polygon fill="none" stroke="#bfbfbf" points="908,-0.5 908,-19.5 952,-19.5 952,-0.5 908,-0.5"/>
<text text-anchor="middle" x="930" y="-7.5" font-family="Arial" font-size="10.00">cmath</text>
</a>
</g>
</g>
<!-- Node6&#45;&gt;Node7 -->
<g id="edge6" class="edge">
<title>Node6&#45;&gt;Node7</title>
<path fill="none" stroke="midnightblue" d="M1063.83,-57.03C1036.86,-47.75 992.15,-32.38 961.9,-21.97"/>
<polygon fill="midnightblue" stroke="midnightblue" points="962.84,-18.59 952.24,-18.65 960.56,-25.21 962.84,-18.59"/>
</g>
<!-- Node6&#45;&gt;Node10 -->
<g id="edge7" class="edge">
<title>Node6&#45;&gt;Node10</title>
<path fill="none" stroke="midnightblue" d="M1094.27,-56.08C1100.54,-48.38 1109.79,-37.03 1117.43,-27.65"/>
<polygon fill="midnightblue" stroke="midnightblue" points="1120.27,-29.71 1123.87,-19.75 1114.84,-25.29 1120.27,-29.71"/>
</g>
<!-- Node6&#45;&gt;Node11 -->
<g id="edge8" class="edge">
<title>Node6&#45;&gt;Node11</title>
<path fill="none" stroke="midnightblue" d="M1063.94,-61.86C996.61,-52.7 800.15,-25.98 722.31,-15.39"/>
<polygon fill="midnightblue" stroke="midnightblue" points="722.52,-11.89 712.14,-14.01 721.58,-18.83 722.52,-11.89"/>
</g>
<!-- Node19&#45;&gt;Node5 -->
<g id="edge15" class="edge">
<title>Node19&#45;&gt;Node5</title>
<path fill="none" stroke="midnightblue" d="M350.4,-172.24C448.59,-164.8 641.55,-149.44 805,-132 816.92,-130.73 829.94,-129.14 841.53,-127.65"/>
<polygon fill="midnightblue" stroke="midnightblue" points="842.25,-131.08 851.71,-126.32 841.34,-124.14 842.25,-131.08"/>
</g>
<!-- Node19&#45;&gt;Node7 -->
<g id="edge16" class="edge">
<title>Node19&#45;&gt;Node7</title>
<path fill="none" stroke="midnightblue" d="M283.3,-168.35C279.74,-155.23 275.02,-129.96 285,-112 307.88,-70.82 330.26,-70.76 375,-56 424.64,-39.62 786.6,-18.79 897.68,-12.73"/>
<polygon fill="midnightblue" stroke="midnightblue" points="898.12,-16.21 907.92,-12.17 897.74,-9.22 898.12,-16.21"/>
</g>
<!-- Node19&#45;&gt;Node11 -->
<g id="edge18" class="edge">
<title>Node19&#45;&gt;Node11</title>
<path fill="none" stroke="midnightblue" d="M276.71,-168.39C268.42,-160.02 256.86,-146.48 252,-132 241.26,-99.97 229.37,-81.08 252,-56 279.12,-25.95 561.2,-14.82 657.78,-11.87"/>
<polygon fill="midnightblue" stroke="midnightblue" points="657.94,-15.37 667.83,-11.58 657.73,-8.37 657.94,-15.37"/>
</g>
<!-- Node19&#45;&gt;Node14 -->
<g id="edge17" class="edge">
<title>Node19&#45;&gt;Node14</title>
<path fill="none" stroke="midnightblue" d="M290.79,-168.08C294.76,-160.69 300.53,-149.95 305.43,-140.81"/>
<polygon fill="midnightblue" stroke="midnightblue" points="308.65,-142.22 310.3,-131.75 302.49,-138.91 308.65,-142.22"/>
</g>
<!-- Node20&#45;&gt;Node6 -->
<g id="edge20" class="edge">
<title>Node20&#45;&gt;Node6</title>
<path fill="none" stroke="midnightblue" d="M1458.27,-114.2C1453.47,-113.41 1448.63,-112.66 1444,-112 1302.32,-91.79 1264.93,-100.96 1124,-76 1122.76,-75.78 1121.49,-75.54 1120.21,-75.29"/>
<polygon fill="midnightblue" stroke="midnightblue" points="1120.91,-71.86 1110.39,-73.16 1119.43,-78.7 1120.91,-71.86"/>
</g>
<!-- Node20&#45;&gt;Node11 -->
<g id="edge21" class="edge">
<title>Node20&#45;&gt;Node11</title>
<path fill="none" stroke="midnightblue" d="M1458.23,-114.46C1453.44,-113.63 1448.6,-112.8 1444,-112 1299.56,-87.06 1264.19,-76.1 1119,-56 971.53,-35.58 794.4,-19.74 722.6,-13.68"/>
<polygon fill="midnightblue" stroke="midnightblue" points="722.65,-10.17 712.39,-12.82 722.07,-17.15 722.65,-10.17"/>
</g>
<!-- Node23&#45;&gt;Node3 -->
<g id="edge28" class="edge">
<title>Node23&#45;&gt;Node3</title>
<path fill="none" stroke="midnightblue" d="M634.37,-291.48C615.78,-282.96 586.62,-269.62 562.8,-258.72"/>
<polygon fill="midnightblue" stroke="midnightblue" points="564.19,-255.5 553.64,-254.52 561.27,-261.87 564.19,-255.5"/>
</g>
<!-- Node23&#45;&gt;Node11 -->
<g id="edge58" class="edge">
<title>Node23&#45;&gt;Node11</title>
<path fill="none" stroke="midnightblue" d="M602.3,-294.72C461.5,-279.4 76,-232.54 76,-179 76,-179 76,-179 76,-121 76,-66.87 127.71,-73.3 179,-56 268.37,-25.85 559.66,-14.79 657.57,-11.86"/>
<polygon fill="midnightblue" stroke="midnightblue" points="657.85,-15.36 667.74,-11.57 657.64,-8.36 657.85,-15.36"/>
</g>
<!-- Node24 -->
<g id="node17" class="node">
<title>Node24</title>
<g id="a_node17"><a xlink:href="input_8h.html" target="_top" xlink:title=" ">
<polygon fill="none" stroke="black" points="142,-168.5 142,-187.5 204,-187.5 204,-168.5 142,-168.5"/>
<text text-anchor="middle" x="173" y="-175.5" font-family="Arial" font-size="10.00">inp/input.h</text>
</a>
</g>
</g>
<!-- Node23&#45;&gt;Node24 -->
<g id="edge29" class="edge">
<title>Node23&#45;&gt;Node24</title>
<path fill="none" stroke="midnightblue" d="M616.95,-291.46C579.45,-282.52 519.05,-268.02 467,-255 376.54,-232.37 270.73,-204.73 213.97,-189.81"/>
<polygon fill="midnightblue" stroke="midnightblue" points="214.85,-186.42 204.29,-187.26 213.07,-193.19 214.85,-186.42"/>
</g>
<!-- Node25 -->
<g id="node18" class="node">
<title>Node25</title>
<g id="a_node18"><a xlink:href="particleFLoading_8h.html" target="_top" xlink:title=" ">
<polygon fill="none" stroke="black" points="588,-230 588,-249 718,-249 718,-230 588,-230"/>
<text text-anchor="middle" x="653" y="-237" font-family="Arial" font-size="10.00">loading/particleFLoading.h</text>
</a>
</g>
</g>
<!-- Node23&#45;&gt;Node25 -->
<g id="edge33" class="edge">
<title>Node23&#45;&gt;Node25</title>
<path fill="none" stroke="midnightblue" d="M653,-291.48C653,-283.08 653,-269.98 653,-259.16"/>
<polygon fill="midnightblue" stroke="midnightblue" points="656.5,-259.01 653,-249.01 649.5,-259.01 656.5,-259.01"/>
</g>
<!-- Node36 -->
<g id="node21" class="node">
<title>Node36</title>
<g id="a_node21"><a xlink:href="particleULoading_8h.html" target="_top" xlink:title=" ">
<polygon fill="none" stroke="black" points="774.5,-230 774.5,-249 905.5,-249 905.5,-230 774.5,-230"/>
<text text-anchor="middle" x="840" y="-237" font-family="Arial" font-size="10.00">loading/particleULoading.h</text>
</a>
</g>
</g>
<!-- Node23&#45;&gt;Node36 -->
<g id="edge40" class="edge">
<title>Node23&#45;&gt;Node36</title>
<path fill="none" stroke="midnightblue" d="M679.79,-291.48C712.29,-281.14 767.21,-263.66 803.54,-252.1"/>
<polygon fill="midnightblue" stroke="midnightblue" points="804.79,-255.38 813.26,-249.01 802.67,-248.71 804.79,-255.38"/>
</g>
<!-- Node37 -->
<g id="node22" class="node">
<title>Node37</title>
<g id="a_node22"><a xlink:href="nsearch_8h.html" target="_top" xlink:title=" ">
<polygon fill="none" stroke="black" points="730.5,-168.5 730.5,-187.5 827.5,-187.5 827.5,-168.5 730.5,-168.5"/>
<text text-anchor="middle" x="779" y="-175.5" font-family="Arial" font-size="10.00">nsearch/nsearch.h</text>
</a>
</g>
</g>
<!-- Node23&#45;&gt;Node37 -->
<g id="edge43" class="edge">
<title>Node23&#45;&gt;Node37</title>
<path fill="none" stroke="midnightblue" d="M671.82,-291.38C687.74,-283.47 710.52,-270.62 727,-255 745.07,-237.88 760.39,-213.47 769.63,-196.98"/>
<polygon fill="midnightblue" stroke="midnightblue" points="772.88,-198.32 774.56,-187.86 766.72,-194.99 772.88,-198.32"/>
</g>
<!-- Node23&#45;&gt;Node43 -->
<g id="edge53" class="edge">
<title>Node23&#45;&gt;Node43</title>
<path fill="none" stroke="midnightblue" d="M703.64,-300.15C827.04,-299.83 1152.83,-294.93 1421,-255 1427.33,-254.06 1433.97,-252.77 1440.44,-251.34"/>
<polygon fill="midnightblue" stroke="midnightblue" points="1441.43,-254.7 1450.38,-249.02 1439.84,-247.88 1441.43,-254.7"/>
</g>
<!-- Node24&#45;&gt;Node11 -->
<g id="edge31" class="edge">
<title>Node24&#45;&gt;Node11</title>
<path fill="none" stroke="midnightblue" d="M174.65,-168.41C179.52,-145.62 196.17,-83.44 237,-56 305.78,-9.78 565.83,-9.09 657.65,-10.35"/>
<polygon fill="midnightblue" stroke="midnightblue" points="657.69,-13.85 667.75,-10.5 657.8,-6.85 657.69,-13.85"/>
</g>
<!-- Node24&#45;&gt;Node14 -->
<g id="edge30" class="edge">
<title>Node24&#45;&gt;Node14</title>
<path fill="none" stroke="midnightblue" d="M195.5,-168.44C219.63,-159.27 258.08,-144.64 284.83,-134.47"/>
<polygon fill="midnightblue" stroke="midnightblue" points="286.35,-137.64 294.45,-130.82 283.86,-131.1 286.35,-137.64"/>
</g>
<!-- Node24&#45;&gt;Node22 -->
<g id="edge32" class="edge">
<title>Node24&#45;&gt;Node22</title>
<path fill="none" stroke="midnightblue" d="M186.03,-168.39C206.5,-155.12 247.7,-129.36 285,-112 314.17,-98.42 348.66,-86.28 374.01,-78.04"/>
<polygon fill="midnightblue" stroke="midnightblue" points="375.14,-81.36 383.59,-74.97 373,-74.69 375.14,-81.36"/>
</g>
<!-- Node25&#45;&gt;Node6 -->
<g id="edge39" class="edge">
<title>Node25&#45;&gt;Node6</title>
<path fill="none" stroke="midnightblue" d="M718.12,-230.04C733.8,-228.03 750.49,-225.92 766,-224 833.3,-215.68 1014.39,-228.2 1069,-188 1100.12,-165.09 1096.1,-113.63 1091.17,-85.77"/>
<polygon fill="midnightblue" stroke="midnightblue" points="1094.55,-84.86 1089.17,-75.74 1087.69,-86.23 1094.55,-84.86"/>
</g>
<!-- Node26 -->
<g id="node19" class="node">
<title>Node26</title>
<g id="a_node19"><a xlink:href="particleLoading_8h.html" target="_top" xlink:title=" ">
<polygon fill="none" stroke="black" points="540,-168.5 540,-187.5 630,-187.5 630,-168.5 540,-168.5"/>
<text text-anchor="middle" x="585" y="-175.5" font-family="Arial" font-size="10.00">particleLoading.h</text>
</a>
</g>
</g>
<!-- Node25&#45;&gt;Node26 -->
<g id="edge34" class="edge">
<title>Node25&#45;&gt;Node26</title>
<path fill="none" stroke="midnightblue" d="M643.26,-229.98C632.65,-220.7 615.48,-205.67 602.52,-194.33"/>
<polygon fill="midnightblue" stroke="midnightblue" points="604.56,-191.46 594.72,-187.51 599.95,-196.73 604.56,-191.46"/>
</g>
<!-- Node26&#45;&gt;Node11 -->
<g id="edge36" class="edge">
<title>Node26&#45;&gt;Node11</title>
<path fill="none" stroke="midnightblue" d="M584.39,-168.36C583.34,-146.97 583.46,-90.79 610,-56 622.12,-40.11 641.56,-28.99 658.24,-21.78"/>
<polygon fill="midnightblue" stroke="midnightblue" points="659.7,-24.97 667.67,-17.98 657.08,-18.47 659.7,-24.97"/>
</g>
<!-- Node26&#45;&gt;Node14 -->
<g id="edge35" class="edge">
<title>Node26&#45;&gt;Node14</title>
<path fill="none" stroke="midnightblue" d="M542.22,-168.44C487.36,-157.47 393.58,-138.72 345.46,-129.09"/>
<polygon fill="midnightblue" stroke="midnightblue" points="346.13,-125.66 335.64,-127.13 344.76,-132.52 346.13,-125.66"/>
</g>
<!-- Node26&#45;&gt;Node27 -->
<g id="edge37" class="edge">
<title>Node26&#45;&gt;Node27</title>
<path fill="none" stroke="midnightblue" d="M564.72,-168.44C543.65,-159.56 510.48,-145.56 486.51,-135.45"/>
<polygon fill="midnightblue" stroke="midnightblue" points="487.76,-132.18 477.19,-131.52 485.04,-138.63 487.76,-132.18"/>
</g>
<!-- Node27&#45;&gt;Node22 -->
<g id="edge38" class="edge">
<title>Node27&#45;&gt;Node22</title>
<path fill="none" stroke="midnightblue" d="M449.24,-112.08C442.46,-104.3 432.46,-92.8 424.24,-83.37"/>
<polygon fill="midnightblue" stroke="midnightblue" points="426.82,-81 417.62,-75.75 421.54,-85.59 426.82,-81"/>
</g>
<!-- Node36&#45;&gt;Node6 -->
<g id="edge42" class="edge">
<title>Node36&#45;&gt;Node6</title>
<path fill="none" stroke="midnightblue" d="M905.78,-235.86C983.76,-231.33 1107.27,-219.31 1140,-188 1164.71,-164.36 1167.87,-142.29 1152,-112 1144.72,-98.11 1130.99,-87.65 1118.02,-80.33"/>
<polygon fill="midnightblue" stroke="midnightblue" points="1119.3,-77.05 1108.81,-75.55 1116.07,-83.27 1119.3,-77.05"/>
</g>
<!-- Node36&#45;&gt;Node26 -->
<g id="edge41" class="edge">
<title>Node36&#45;&gt;Node26</title>
<path fill="none" stroke="midnightblue" d="M803.46,-229.98C758.11,-219.39 680.72,-201.34 631.27,-189.8"/>
<polygon fill="midnightblue" stroke="midnightblue" points="632,-186.37 621.47,-187.51 630.41,-193.19 632,-186.37"/>
</g>
<!-- Node37&#45;&gt;Node6 -->
<g id="edge44" class="edge">
<title>Node37&#45;&gt;Node6</title>
<path fill="none" stroke="midnightblue" d="M827.93,-170.01C884.6,-161.44 974.14,-146.28 1005,-132 1031.11,-119.92 1056.3,-97.9 1071.72,-82.87"/>
<polygon fill="midnightblue" stroke="midnightblue" points="1074.25,-85.29 1078.84,-75.74 1069.3,-80.34 1074.25,-85.29"/>
</g>
<!-- Node37&#45;&gt;Node11 -->
<g id="edge50" class="edge">
<title>Node37&#45;&gt;Node11</title>
<path fill="none" stroke="midnightblue" d="M735.24,-168.43C686.95,-158.53 614.95,-142.29 607,-132 578.28,-94.79 634.07,-48.36 667.48,-25.33"/>
<polygon fill="midnightblue" stroke="midnightblue" points="669.46,-28.22 675.82,-19.74 665.56,-22.4 669.46,-28.22"/>
</g>
<!-- Node37&#45;&gt;Node14 -->
<g id="edge49" class="edge">
<title>Node37&#45;&gt;Node14</title>
<path fill="none" stroke="midnightblue" d="M730.19,-171.75C655.41,-163.63 507.99,-147.37 383,-132 370.78,-130.5 357.35,-128.74 345.67,-127.18"/>
<polygon fill="midnightblue" stroke="midnightblue" points="345.9,-123.68 335.52,-125.82 344.96,-130.62 345.9,-123.68"/>
</g>
<!-- Node38 -->
<g id="node23" class="node">
<title>Node38</title>
<g id="a_node23"><a xlink:href="methods_8h.html" target="_top" xlink:title=" ">
<polygon fill="none" stroke="red" points="718,-112.5 718,-131.5 796,-131.5 796,-112.5 718,-112.5"/>
<text text-anchor="middle" x="757" y="-119.5" font-family="Arial" font-size="10.00">util/methods.h</text>
</a>
</g>
</g>
<!-- Node37&#45;&gt;Node38 -->
<g id="edge45" class="edge">
<title>Node37&#45;&gt;Node38</title>
<path fill="none" stroke="midnightblue" d="M775.37,-168.08C772.39,-160.77 768.07,-150.18 764.38,-141.1"/>
<polygon fill="midnightblue" stroke="midnightblue" points="767.58,-139.69 760.57,-131.75 761.1,-142.33 767.58,-139.69"/>
</g>
<!-- Node40 -->
<g id="node24" class="node">
<title>Node40</title>
<g id="a_node24"><a xlink:title=" ">
<polygon fill="none" stroke="#bfbfbf" points="616,-112.5 616,-131.5 662,-131.5 662,-112.5 616,-112.5"/>
<text text-anchor="middle" x="639" y="-119.5" font-family="Arial" font-size="10.00">cstdint</text>
</a>
</g>
</g>
<!-- Node37&#45;&gt;Node40 -->
<g id="edge48" class="edge">
<title>Node37&#45;&gt;Node40</title>
<path fill="none" stroke="midnightblue" d="M756.82,-168.44C733.57,-159.48 696.85,-145.31 670.58,-135.18"/>
<polygon fill="midnightblue" stroke="midnightblue" points="671.67,-131.85 661.08,-131.52 669.15,-138.38 671.67,-131.85"/>
</g>
<!-- Node41 -->
<g id="node25" class="node">
<title>Node41</title>
<g id="a_node25"><a xlink:href="nflannSetup_8h.html" target="_top" xlink:title=" ">
<polygon fill="none" stroke="red" points="918.5,-112.5 918.5,-131.5 995.5,-131.5 995.5,-112.5 918.5,-112.5"/>
<text text-anchor="middle" x="957" y="-119.5" font-family="Arial" font-size="10.00">nflannSetup.h</text>
</a>
</g>
</g>
<!-- Node37&#45;&gt;Node41 -->
<g id="edge51" class="edge">
<title>Node37&#45;&gt;Node41</title>
<path fill="none" stroke="midnightblue" d="M807.2,-168.44C837.41,-159.28 885.51,-144.69 919.03,-134.52"/>
<polygon fill="midnightblue" stroke="midnightblue" points="920.37,-137.77 928.93,-131.52 918.34,-131.07 920.37,-137.77"/>
</g>
<!-- Node38&#45;&gt;Node6 -->
<g id="edge46" class="edge">
<title>Node38&#45;&gt;Node6</title>
<path fill="none" stroke="midnightblue" d="M796.15,-114.59C861.68,-103.87 992.4,-82.48 1053.75,-72.44"/>
<polygon fill="midnightblue" stroke="midnightblue" points="1054.37,-75.89 1063.68,-70.82 1053.24,-68.98 1054.37,-75.89"/>
</g>
<!-- Node38&#45;&gt;Node11 -->
<g id="edge47" class="edge">
<title>Node38&#45;&gt;Node11</title>
<path fill="none" stroke="midnightblue" d="M751.74,-112.37C740.73,-94.3 715.08,-52.18 700.54,-28.31"/>
<polygon fill="midnightblue" stroke="midnightblue" points="703.42,-26.31 695.23,-19.59 697.45,-29.95 703.42,-26.31"/>
</g>
<!-- Node41&#45;&gt;Node6 -->
<g id="edge52" class="edge">
<title>Node41&#45;&gt;Node6</title>
<path fill="none" stroke="midnightblue" d="M977.6,-112.44C998.99,-103.56 1032.68,-89.56 1057.02,-79.45"/>
<polygon fill="midnightblue" stroke="midnightblue" points="1058.61,-82.58 1066.5,-75.52 1055.92,-76.12 1058.61,-82.58"/>
</g>
<!-- Node43&#45;&gt;Node6 -->
<g id="edge54" class="edge">
<title>Node43&#45;&gt;Node6</title>
<path fill="none" stroke="midnightblue" d="M1467.19,-230C1452.63,-220.68 1429.42,-204.79 1412,-188 1381.02,-158.13 1389.2,-133.63 1352,-112 1262.77,-60.12 1221.34,-97.85 1120.13,-76.96"/>
<polygon fill="midnightblue" stroke="midnightblue" points="1120.66,-73.5 1110.14,-74.75 1119.15,-80.33 1120.66,-73.5"/>
</g>
<!-- Node43&#45;&gt;Node11 -->
<g id="edge57" class="edge">
<title>Node43&#45;&gt;Node11</title>
<path fill="none" stroke="midnightblue" d="M1531.74,-235.86C1571.39,-231.32 1625.68,-219.31 1662,-188 1688.93,-164.78 1710.36,-138.81 1687,-112 1654.46,-74.66 890.72,-23.82 722.56,-13.05"/>
<polygon fill="midnightblue" stroke="midnightblue" points="722.56,-9.55 712.35,-12.4 722.11,-16.53 722.56,-9.55"/>
</g>
<!-- Node44 -->
<g id="node27" class="node">
<title>Node44</title>
<g id="a_node27"><a xlink:title=" ">
<polygon fill="none" stroke="#bfbfbf" points="1420.5,-168.5 1420.5,-187.5 1469.5,-187.5 1469.5,-168.5 1420.5,-168.5"/>
<text text-anchor="middle" x="1445" y="-175.5" font-family="Arial" font-size="10.00">stdint.h</text>
</a>
</g>
</g>
<!-- Node43&#45;&gt;Node44 -->
<g id="edge55" class="edge">
<title>Node43&#45;&gt;Node44</title>
<path fill="none" stroke="midnightblue" d="M1475.84,-229.98C1470.55,-221.23 1462.16,-207.37 1455.47,-196.31"/>
<polygon fill="midnightblue" stroke="midnightblue" points="1458.32,-194.25 1450.15,-187.51 1452.33,-197.88 1458.32,-194.25"/>
</g>
<!-- Node45 -->
<g id="node28" class="node">
<title>Node45</title>
<g id="a_node28"><a xlink:title=" ">
<polygon fill="none" stroke="#bfbfbf" points="1487.5,-168.5 1487.5,-187.5 1536.5,-187.5 1536.5,-168.5 1487.5,-168.5"/>
<text text-anchor="middle" x="1512" y="-175.5" font-family="Arial" font-size="10.00">string.h</text>
</a>
</g>
</g>
<!-- Node43&#45;&gt;Node45 -->
<g id="edge56" class="edge">
<title>Node43&#45;&gt;Node45</title>
<path fill="none" stroke="midnightblue" d="M1485.44,-229.98C1489.95,-221.32 1497.07,-207.65 1502.81,-196.65"/>
<polygon fill="midnightblue" stroke="midnightblue" points="1506.05,-197.99 1507.57,-187.51 1499.84,-194.76 1506.05,-197.99"/>
</g>
<!-- Node46&#45;&gt;Node6 -->
<g id="edge62" class="edge">
<title>Node46&#45;&gt;Node6</title>
<path fill="none" stroke="midnightblue" d="M966.32,-169.05C1005.23,-158.58 1068.65,-140.49 1076,-132 1086.88,-119.44 1088.96,-100.22 1088.72,-85.93"/>
<polygon fill="midnightblue" stroke="midnightblue" points="1092.2,-85.55 1088.15,-75.75 1085.21,-85.93 1092.2,-85.55"/>
</g>
<!-- Node46&#45;&gt;Node11 -->
<g id="edge64" class="edge">
<title>Node46&#45;&gt;Node11</title>
<path fill="none" stroke="midnightblue" d="M914.99,-168.41C895.68,-160.15 866.56,-146.77 843,-132 790.21,-98.91 734.28,-50.89 706.98,-26.49"/>
<polygon fill="midnightblue" stroke="midnightblue" points="709.24,-23.81 699.47,-19.72 704.55,-29.01 709.24,-23.81"/>
</g>
<!-- Node46&#45;&gt;Node14 -->
<g id="edge63" class="edge">
<title>Node46&#45;&gt;Node14</title>
<path fill="none" stroke="midnightblue" d="M905.68,-174.15C886.09,-172.33 860.04,-169.96 837,-168 635.32,-150.84 584.29,-153.29 383,-132 370.85,-130.72 357.52,-129.01 345.9,-127.44"/>
<polygon fill="midnightblue" stroke="midnightblue" points="346.18,-123.94 335.8,-126.04 345.23,-130.88 346.18,-123.94"/>
</g>
<!-- Node47&#45;&gt;Node3 -->
<g id="edge71" class="edge">
<title>Node47&#45;&gt;Node3</title>
<path fill="none" stroke="midnightblue" d="M1280.26,-300.24C1175.63,-300.45 854.39,-297.47 580.36,-255"/>
<polygon fill="midnightblue" stroke="midnightblue" points="580.64,-251.5 570.22,-253.41 579.56,-258.42 580.64,-251.5"/>
</g>
<!-- Node47&#45;&gt;Node6 -->
<g id="edge83" class="edge">
<title>Node47&#45;&gt;Node6</title>
<path fill="none" stroke="midnightblue" d="M1317.4,-291.1C1324.85,-261.35 1344.3,-164.27 1297,-112 1243.84,-53.25 1198.5,-93.24 1119.91,-76.95"/>
<polygon fill="midnightblue" stroke="midnightblue" points="1120.7,-73.54 1110.16,-74.67 1119.11,-80.35 1120.7,-73.54"/>
</g>
<!-- Node47&#45;&gt;Node11 -->
<g id="edge86" class="edge">
<title>Node47&#45;&gt;Node11</title>
<path fill="none" stroke="midnightblue" d="M1349.72,-297.46C1418.54,-291.99 1569.63,-277.74 1616,-255 1683.21,-222.04 1752.8,-169.61 1705,-112 1618.96,-8.28 1540.72,-72.7 1407,-56 1271.55,-39.09 843.52,-18.2 722.29,-12.5"/>
<polygon fill="midnightblue" stroke="midnightblue" points="722.32,-8.99 712.17,-12.02 721.99,-15.99 722.32,-8.99"/>
</g>
<!-- Node47&#45;&gt;Node18 -->
<g id="edge85" class="edge">
<title>Node47&#45;&gt;Node18</title>
<path fill="none" stroke="midnightblue" d="M1312.49,-291.38C1309.85,-282.33 1305.61,-267.67 1302,-255 1290.48,-214.52 1277.22,-166.98 1270.12,-141.45"/>
<polygon fill="midnightblue" stroke="midnightblue" points="1273.45,-140.35 1267.4,-131.66 1266.71,-142.23 1273.45,-140.35"/>
</g>
<!-- Node47&#45;&gt;Node27 -->
<g id="edge70" class="edge">
<title>Node47&#45;&gt;Node27</title>
<path fill="none" stroke="midnightblue" d="M1280.5,-293.4C1211.23,-280.17 1050.29,-249.47 915,-224 829.25,-207.86 807.3,-206.4 722,-188 711.14,-185.66 573.78,-151.82 501.23,-133.92"/>
<polygon fill="midnightblue" stroke="midnightblue" points="502,-130.5 491.45,-131.5 500.32,-137.3 502,-130.5"/>
</g>
<!-- Node47&#45;&gt;Node43 -->
<g id="edge69" class="edge">
<title>Node47&#45;&gt;Node43</title>
<path fill="none" stroke="midnightblue" d="M1338.78,-291.48C1367.38,-281.22 1415.55,-263.96 1447.8,-252.4"/>
<polygon fill="midnightblue" stroke="midnightblue" points="1449.03,-255.68 1457.26,-249.01 1446.67,-249.09 1449.03,-255.68"/>
</g>
<!-- Node47&#45;&gt;Node46 -->
<g id="edge68" class="edge">
<title>Node47&#45;&gt;Node46</title>
<path fill="none" stroke="midnightblue" d="M1305.1,-291.36C1284.17,-273.26 1235.74,-232.39 1216,-224 1116.73,-181.82 1082.02,-207.85 976,-188 975.9,-187.98 975.8,-187.96 975.7,-187.94"/>
<polygon fill="midnightblue" stroke="midnightblue" points="976.59,-184.55 966.09,-186.02 975.21,-191.41 976.59,-184.55"/>
</g>
<!-- Node47&#45;&gt;Node30 -->
<g id="edge72" class="edge">
<title>Node47&#45;&gt;Node30</title>
<path fill="none" stroke="midnightblue" d="M1349.7,-300.13C1396.38,-298.8 1480.52,-291.06 1541,-255 1564.85,-240.78 1583.74,-214.12 1594.4,-196.46"/>
<polygon fill="midnightblue" stroke="midnightblue" points="1597.48,-198.13 1599.46,-187.72 1591.42,-194.62 1597.48,-198.13"/>
</g>
<!-- Node47&#45;&gt;Node32 -->
<g id="edge84" class="edge">
<title>Node47&#45;&gt;Node32</title>
<path fill="none" stroke="midnightblue" d="M1349.55,-298.91C1400.1,-296.22 1496.32,-286.95 1571,-255 1617.17,-235.24 1639.34,-232.82 1662,-188 1670.19,-171.81 1659.61,-152.67 1649.2,-139.37"/>
<polygon fill="midnightblue" stroke="midnightblue" points="1651.71,-136.93 1642.58,-131.57 1646.38,-141.46 1651.71,-136.93"/>
</g>
<!-- Node47&#45;&gt;Node48 -->
<g id="edge81" class="edge">
<title>Node47&#45;&gt;Node48</title>
<path fill="none" stroke="midnightblue" d="M1324.03,-291.48C1333.76,-282.28 1349.46,-267.46 1361.42,-256.16"/>
<polygon fill="midnightblue" stroke="midnightblue" points="1364.12,-258.42 1368.99,-249.01 1359.32,-253.33 1364.12,-258.42"/>
</g>
<!-- Node30&#45;&gt;Node5 -->
<g id="edge76" class="edge">
<title>Node30&#45;&gt;Node5</title>
<path fill="none" stroke="midnightblue" d="M1555,-169.05C1551.96,-168.67 1548.94,-168.31 1546,-168 1264.45,-138.26 1189.61,-176.45 910,-132 909.9,-131.98 909.8,-131.97 909.69,-131.95"/>
<polygon fill="midnightblue" stroke="midnightblue" points="910.51,-128.55 900.02,-130 909.13,-135.41 910.51,-128.55"/>
</g>
<!-- Node30&#45;&gt;Node6 -->
<g id="edge77" class="edge">
<title>Node30&#45;&gt;Node6</title>
<path fill="none" stroke="midnightblue" d="M1598.9,-168.4C1589.76,-153.89 1569.1,-124.86 1543,-112 1468.52,-75.31 1212.34,-68.53 1120.28,-67.28"/>
<polygon fill="midnightblue" stroke="midnightblue" points="1120.18,-63.78 1110.13,-67.16 1120.09,-70.78 1120.18,-63.78"/>
</g>
<!-- Node30&#45;&gt;Node10 -->
<g id="edge73" class="edge">
<title>Node30&#45;&gt;Node10</title>
<path fill="none" stroke="midnightblue" d="M1631.46,-168.4C1662.77,-157.2 1707.17,-136.17 1687,-112 1620.31,-32.1 1282.29,-15.27 1168.47,-11.84"/>
<polygon fill="midnightblue" stroke="midnightblue" points="1168.27,-8.34 1158.17,-11.55 1168.07,-15.33 1168.27,-8.34"/>
</g>
<!-- Node30&#45;&gt;Node20 -->
<g id="edge75" class="edge">
<title>Node30&#45;&gt;Node20</title>
<path fill="none" stroke="midnightblue" d="M1586.65,-168.32C1569.33,-159.66 1542.48,-146.24 1522.5,-136.25"/>
<polygon fill="midnightblue" stroke="midnightblue" points="1523.82,-133 1513.31,-131.65 1520.69,-139.26 1523.82,-133"/>
</g>
<!-- Node30&#45;&gt;Node22 -->
<g id="edge74" class="edge">
<title>Node30&#45;&gt;Node22</title>
<path fill="none" stroke="midnightblue" d="M1572.02,-168.48C1516.52,-154.09 1398.56,-125.24 1297,-112 969,-69.23 567.85,-66.54 446.47,-66.79"/>
<polygon fill="midnightblue" stroke="midnightblue" points="446.25,-63.29 436.26,-66.82 446.27,-70.29 446.25,-63.29"/>
</g>
<!-- Node30&#45;&gt;Node32 -->
<g id="edge78" class="edge">
<title>Node30&#45;&gt;Node32</title>
<path fill="none" stroke="midnightblue" d="M1608.95,-168.08C1613.1,-160.61 1619.15,-149.72 1624.27,-140.52"/>
<polygon fill="midnightblue" stroke="midnightblue" points="1627.34,-142.19 1629.14,-131.75 1621.22,-138.79 1627.34,-142.19"/>
</g>
<!-- Node32&#45;&gt;Node6 -->
<g id="edge79" class="edge">
<title>Node32&#45;&gt;Node6</title>
<path fill="none" stroke="midnightblue" d="M1590.34,-113.93C1585.5,-113.23 1580.65,-112.57 1576,-112 1405.49,-90.95 1200.41,-75.15 1120.84,-69.39"/>
<polygon fill="midnightblue" stroke="midnightblue" points="1120.69,-65.87 1110.47,-68.64 1120.19,-72.85 1120.69,-65.87"/>
</g>
<!-- Node32&#45;&gt;Node11 -->
<g id="edge80" class="edge">
<title>Node32&#45;&gt;Node11</title>
<path fill="none" stroke="midnightblue" d="M1590.5,-113.7C1511.78,-100.69 1340.37,-73.22 1195,-56 1017.18,-34.93 803.08,-18.93 722.64,-13.25"/>
<polygon fill="midnightblue" stroke="midnightblue" points="722.42,-9.72 712.2,-12.52 721.93,-16.71 722.42,-9.72"/>
</g>
<!-- Node48&#45;&gt;Node6 -->
<g id="edge82" class="edge">
<title>Node48&#45;&gt;Node6</title>
<path fill="none" stroke="midnightblue" d="M1377.53,-229.76C1375.77,-206.51 1367.59,-142.84 1330,-112 1257.65,-52.65 1212.32,-95.71 1120.12,-76.96"/>
<polygon fill="midnightblue" stroke="midnightblue" points="1120.67,-73.49 1110.15,-74.73 1119.14,-80.33 1120.67,-73.49"/>
</g>
</g>
</svg>
