<?xml version="1.0" encoding="UTF-8" standalone="no"?>
<!DOCTYPE svg PUBLIC "-//W3C//DTD SVG 1.1//EN"
 "http://www.w3.org/Graphics/SVG/1.1/DTD/svg11.dtd">
<!-- Generated by graphviz version 2.43.0 (0)
 -->
<!-- Title: /home/user/project/src/inp/pdecks/particleDeck.h Pages: 1 -->
<svg width="941pt" height="441pt"
 viewBox="0.00 0.00 940.50 441.00" xmlns="http://www.w3.org/2000/svg" xmlns:xlink="http://www.w3.org/1999/xlink">
<g id="graph0" class="graph" transform="scale(1 1) rotate(0) translate(4 437)">
<title>/home/user/project/src/inp/pdecks/particleDeck.h</title>
<!-- Node1 -->
<g id="node1" class="node">
<title>Node1</title>
<g id="a_node1"><a xlink:title=" ">
<polygon fill="#bfbfbf" stroke="black" points="604.5,-402.5 604.5,-432.5 753.5,-432.5 753.5,-402.5 604.5,-402.5"/>
<text text-anchor="start" x="612.5" y="-420.5" font-family="Arial" font-size="10.00">/home/user/project</text>
<text text-anchor="middle" x="679" y="-409.5" font-family="Arial" font-size="10.00">/src/inp/pdecks/particleDeck.h</text>
</a>
</g>
</g>
<!-- Node2 -->
<g id="node2" class="node">
<title>Node2</title>
<g id="a_node2"><a xlink:href="input_8cpp.html" target="_top" xlink:title=" ">
<polygon fill="none" stroke="black" points="49,-335.5 49,-365.5 147,-365.5 147,-335.5 49,-335.5"/>
<text text-anchor="start" x="57" y="-353.5" font-family="Arial" font-size="10.00">/home/user/project</text>
<text text-anchor="middle" x="98" y="-342.5" font-family="Arial" font-size="10.00">/src/inp/input.cpp</text>
</a>
</g>
</g>
<!-- Node1&#45;&gt;Node2 -->
<g id="edge1" class="edge">
<title>Node1&#45;&gt;Node2</title>
<path fill="none" stroke="midnightblue" d="M594.39,-411.61C491.47,-404.9 312.68,-390.74 161,-366 156.46,-365.26 151.76,-364.38 147.06,-363.44"/>
<polygon fill="midnightblue" stroke="midnightblue" points="594.21,-415.11 604.41,-412.26 594.66,-408.12 594.21,-415.11"/>
</g>
<!-- Node3 -->
<g id="node3" class="node">
<title>Node3</title>
<g id="a_node3"><a xlink:href="particleLoading_8h.html" target="_top" xlink:title=" ">
<polygon fill="none" stroke="black" points="539.5,-335.5 539.5,-365.5 682.5,-365.5 682.5,-335.5 539.5,-335.5"/>
<text text-anchor="start" x="547.5" y="-353.5" font-family="Arial" font-size="10.00">/home/user/project</text>
<text text-anchor="middle" x="611" y="-342.5" font-family="Arial" font-size="10.00">/src/loading/particleLoading.h</text>
</a>
</g>
</g>
<!-- Node1&#45;&gt;Node3 -->
<g id="edge2" class="edge">
<title>Node1&#45;&gt;Node3</title>
<path fill="none" stroke="midnightblue" d="M656.83,-395.31C646.63,-385.56 634.81,-374.26 625.73,-365.58"/>
<polygon fill="midnightblue" stroke="midnightblue" points="654.6,-398.02 664.25,-402.4 659.43,-392.96 654.6,-398.02"/>
</g>
<!-- Node5 -->
<g id="node5" class="node">
<title>Node5</title>
<g id="a_node5"><a xlink:href="particleFLoading_8cpp.html" target="_top" xlink:title=" ">
<polygon fill="none" stroke="black" points="0,-0.5 0,-30.5 160,-30.5 160,-0.5 0,-0.5"/>
<text text-anchor="start" x="8" y="-18.5" font-family="Arial" font-size="10.00">/home/user/project</text>
<text text-anchor="middle" x="80" y="-7.5" font-family="Arial" font-size="10.00">/src/loading/particleFLoading.cpp</text>
</a>
</g>
</g>
<!-- Node1&#45;&gt;Node5 -->
<g id="edge23" class="edge">
<title>Node1&#45;&gt;Node5</title>
<path fill="none" stroke="midnightblue" d="M594.26,-411.73C450.67,-401.3 175,-370.13 175,-284.5 175,-284.5 175,-284.5 175,-148.5 175,-97.4 127.51,-52.57 99.68,-30.69"/>
<polygon fill="midnightblue" stroke="midnightblue" points="594.14,-415.23 604.36,-412.44 594.63,-408.25 594.14,-415.23"/>
</g>
<!-- Node16 -->
<g id="node10" class="node">
<title>Node16</title>
<g id="a_node10"><a xlink:href="refParticle_8h.html" target="_top" xlink:title=" ">
<polygon fill="none" stroke="black" points="700.5,-134.5 700.5,-164.5 823.5,-164.5 823.5,-134.5 700.5,-134.5"/>
<text text-anchor="start" x="708.5" y="-152.5" font-family="Arial" font-size="10.00">/home/user/project</text>
<text text-anchor="middle" x="762" y="-141.5" font-family="Arial" font-size="10.00">/src/particle/refParticle.h</text>
</a>
</g>
</g>
<!-- Node1&#45;&gt;Node16 -->
<g id="edge25" class="edge">
<title>Node1&#45;&gt;Node16</title>
<path fill="none" stroke="midnightblue" d="M686.52,-392.41C703.46,-338.12 744.18,-207.61 757.62,-164.55"/>
<polygon fill="midnightblue" stroke="midnightblue" points="683.1,-391.61 683.46,-402.2 689.78,-393.7 683.1,-391.61"/>
</g>
<!-- Node18 -->
<g id="node12" class="node">
<title>Node18</title>
<g id="a_node12"><a xlink:href="particleULoading_8cpp.html" target="_top" xlink:title=" ">
<polygon fill="none" stroke="black" points="771.5,-0.5 771.5,-30.5 932.5,-30.5 932.5,-0.5 771.5,-0.5"/>
<text text-anchor="start" x="779.5" y="-18.5" font-family="Arial" font-size="10.00">/home/user/project</text>
<text text-anchor="middle" x="852" y="-7.5" font-family="Arial" font-size="10.00">/src/loading/particleULoading.cpp</text>
</a>
</g>
</g>
<!-- Node1&#45;&gt;Node18 -->
<g id="edge24" class="edge">
<title>Node1&#45;&gt;Node18</title>
<path fill="none" stroke="midnightblue" d="M763.75,-406.67C835.92,-393.01 928,-360.67 928,-284.5 928,-284.5 928,-284.5 928,-148.5 928,-100.11 889.16,-53.45 867.02,-30.77"/>
<polygon fill="midnightblue" stroke="midnightblue" points="762.93,-403.26 753.71,-408.47 764.17,-410.15 762.93,-403.26"/>
</g>
<!-- Node22 -->
<g id="node15" class="node">
<title>Node22</title>
<g id="a_node15"><a xlink:href="refParticle_8cpp.html" target="_top" xlink:title=" ">
<polygon fill="none" stroke="black" points="690,-67.5 690,-97.5 824,-97.5 824,-67.5 690,-67.5"/>
<text text-anchor="start" x="698" y="-85.5" font-family="Arial" font-size="10.00">/home/user/project</text>
<text text-anchor="middle" x="757" y="-74.5" font-family="Arial" font-size="10.00">/src/particle/refParticle.cpp</text>
</a>
</g>
</g>
<!-- Node1&#45;&gt;Node22 -->
<g id="edge26" class="edge">
<title>Node1&#45;&gt;Node22</title>
<path fill="none" stroke="midnightblue" d="M761.11,-399.66C820.37,-382.14 890,-348.05 890,-284.5 890,-284.5 890,-284.5 890,-215.5 890,-158.41 827.49,-117.56 788.18,-97.51"/>
<polygon fill="midnightblue" stroke="midnightblue" points="759.99,-396.33 751.32,-402.43 761.89,-403.07 759.99,-396.33"/>
</g>
<!-- Node4 -->
<g id="node4" class="node">
<title>Node4</title>
<g id="a_node4"><a xlink:href="particleFLoading_8h.html" target="_top" xlink:title=" ">
<polygon fill="none" stroke="black" points="306.5,-268.5 306.5,-298.5 455.5,-298.5 455.5,-268.5 306.5,-268.5"/>
<text text-anchor="start" x="314.5" y="-286.5" font-family="Arial" font-size="10.00">/home/user/project</text>
<text text-anchor="middle" x="381" y="-275.5" font-family="Arial" font-size="10.00">/src/loading/particleFLoading.h</text>
</a>
</g>
</g>
<!-- Node3&#45;&gt;Node4 -->
<g id="edge3" class="edge">
<title>Node3&#45;&gt;Node4</title>
<path fill="none" stroke="midnightblue" d="M551.61,-332.71C514.18,-322.14 466.4,-308.63 430.93,-298.61"/>
<polygon fill="midnightblue" stroke="midnightblue" points="550.8,-336.12 561.38,-335.48 552.71,-329.39 550.8,-336.12"/>
</g>
<!-- Node23 -->
<g id="node16" class="node">
<title>Node23</title>
<g id="a_node16"><a xlink:href="particleULoading_8h.html" target="_top" xlink:title=" ">
<polygon fill="none" stroke="black" points="535.5,-268.5 535.5,-298.5 686.5,-298.5 686.5,-268.5 535.5,-268.5"/>
<text text-anchor="start" x="543.5" y="-286.5" font-family="Arial" font-size="10.00">/home/user/project</text>
<text text-anchor="middle" x="611" y="-275.5" font-family="Arial" font-size="10.00">/src/loading/particleULoading.h</text>
</a>
</g>
</g>
<!-- Node3&#45;&gt;Node23 -->
<g id="edge20" class="edge">
<title>Node3&#45;&gt;Node23</title>
<path fill="none" stroke="midnightblue" d="M611,-325.11C611,-316.15 611,-306.32 611,-298.58"/>
<polygon fill="midnightblue" stroke="midnightblue" points="607.5,-325.4 611,-335.4 614.5,-325.4 607.5,-325.4"/>
</g>
<!-- Node4&#45;&gt;Node5 -->
<g id="edge4" class="edge">
<title>Node4&#45;&gt;Node5</title>
<path fill="none" stroke="midnightblue" d="M349.43,-262.8C336.78,-254.15 322.52,-243.38 311,-232 246.13,-167.89 259.69,-124.63 189,-67 169.44,-51.05 144.02,-38.9 122.65,-30.52"/>
<polygon fill="midnightblue" stroke="midnightblue" points="347.61,-265.79 357.87,-268.43 351.49,-259.97 347.61,-265.79"/>
</g>
<!-- Node6 -->
<g id="node6" class="node">
<title>Node6</title>
<g id="a_node6"><a xlink:href="modelData_8h.html" target="_top" xlink:title=" ">
<polygon fill="none" stroke="black" points="320.5,-201.5 320.5,-231.5 441.5,-231.5 441.5,-201.5 320.5,-201.5"/>
<text text-anchor="start" x="328.5" y="-219.5" font-family="Arial" font-size="10.00">/home/user/project</text>
<text text-anchor="middle" x="381" y="-208.5" font-family="Arial" font-size="10.00">/src/model/modelData.h</text>
</a>
</g>
</g>
<!-- Node4&#45;&gt;Node6 -->
<g id="edge5" class="edge">
<title>Node4&#45;&gt;Node6</title>
<path fill="none" stroke="midnightblue" d="M381,-258.11C381,-249.15 381,-239.32 381,-231.58"/>
<polygon fill="midnightblue" stroke="midnightblue" points="377.5,-258.4 381,-268.4 384.5,-258.4 377.5,-258.4"/>
</g>
<!-- Node7 -->
<g id="node7" class="node">
<title>Node7</title>
<g id="a_node7"><a xlink:href="demModel_8h.html" target="_top" xlink:title=" ">
<polygon fill="none" stroke="red" points="393,-134.5 393,-164.5 533,-164.5 533,-134.5 393,-134.5"/>
<text text-anchor="start" x="401" y="-152.5" font-family="Arial" font-size="10.00">/home/user/project</text>
<text text-anchor="middle" x="463" y="-141.5" font-family="Arial" font-size="10.00">/src/model/dem/demModel.h</text>
</a>
</g>
</g>
<!-- Node6&#45;&gt;Node7 -->
<g id="edge6" class="edge">
<title>Node6&#45;&gt;Node7</title>
<path fill="none" stroke="midnightblue" d="M406.65,-195.17C419.19,-185.23 433.97,-173.51 445.24,-164.58"/>
<polygon fill="midnightblue" stroke="midnightblue" points="404.46,-192.44 398.79,-201.4 408.8,-197.93 404.46,-192.44"/>
</g>
<!-- Node12 -->
<g id="node8" class="node">
<title>Node12</title>
<g id="a_node8"><a xlink:href="materialUtil_8h.html" target="_top" xlink:title=" ">
<polygon fill="none" stroke="red" points="551.5,-134.5 551.5,-164.5 682.5,-164.5 682.5,-134.5 551.5,-134.5"/>
<text text-anchor="start" x="559.5" y="-152.5" font-family="Arial" font-size="10.00">/home/user/project</text>
<text text-anchor="middle" x="617" y="-141.5" font-family="Arial" font-size="10.00">/src/material/materialUtil.h</text>
</a>
</g>
</g>
<!-- Node6&#45;&gt;Node12 -->
<g id="edge7" class="edge">
<title>Node6&#45;&gt;Node12</title>
<path fill="none" stroke="midnightblue" d="M441.94,-198.71C480.35,-188.14 529.37,-174.63 565.77,-164.61"/>
<polygon fill="midnightblue" stroke="midnightblue" points="440.63,-195.45 431.92,-201.48 442.49,-202.19 440.63,-195.45"/>
</g>
<!-- Node15 -->
<g id="node9" class="node">
<title>Node15</title>
<g id="a_node9"><a xlink:href="modelData_8cpp.html" target="_top" xlink:title=" ">
<polygon fill="none" stroke="black" points="500.5,-0.5 500.5,-30.5 631.5,-30.5 631.5,-0.5 500.5,-0.5"/>
<text text-anchor="start" x="508.5" y="-18.5" font-family="Arial" font-size="10.00">/home/user/project</text>
<text text-anchor="middle" x="566" y="-7.5" font-family="Arial" font-size="10.00">/src/model/modelData.cpp</text>
</a>
</g>
</g>
<!-- Node6&#45;&gt;Node15 -->
<g id="edge8" class="edge">
<title>Node6&#45;&gt;Node15</title>
<path fill="none" stroke="midnightblue" d="M375.68,-191.27C373.26,-173.93 373.01,-150.77 384,-134 404.26,-103.07 427.46,-117.3 459,-98 493.06,-77.15 529.36,-47.79 549.71,-30.59"/>
<polygon fill="midnightblue" stroke="midnightblue" points="372.24,-191.95 377.38,-201.21 379.14,-190.76 372.24,-191.95"/>
</g>
<!-- Node6&#45;&gt;Node16 -->
<g id="edge9" class="edge">
<title>Node6&#45;&gt;Node16</title>
<path fill="none" stroke="midnightblue" d="M451.92,-204.77C514.84,-195.06 609.2,-180.01 691,-165 694.09,-164.43 697.26,-163.84 700.46,-163.23"/>
<polygon fill="midnightblue" stroke="midnightblue" points="451.06,-201.36 441.71,-206.34 452.13,-208.28 451.06,-201.36"/>
</g>
<!-- Node17 -->
<g id="node11" class="node">
<title>Node17</title>
<g id="a_node11"><a xlink:href="baseParticle_8h.html" target="_top" xlink:title=" ">
<polygon fill="none" stroke="red" points="317.5,-67.5 317.5,-97.5 450.5,-97.5 450.5,-67.5 317.5,-67.5"/>
<text text-anchor="start" x="325.5" y="-85.5" font-family="Arial" font-size="10.00">/home/user/project</text>
<text text-anchor="middle" x="384" y="-74.5" font-family="Arial" font-size="10.00">/src/particle/baseParticle.h</text>
</a>
</g>
</g>
<!-- Node6&#45;&gt;Node17 -->
<g id="edge17" class="edge">
<title>Node6&#45;&gt;Node17</title>
<path fill="none" stroke="midnightblue" d="M364.15,-193.02C358.86,-184.67 353.7,-174.82 351,-165 347.35,-151.71 347.07,-147.2 351,-134 355.01,-120.55 363.86,-107.34 371.39,-97.81"/>
<polygon fill="midnightblue" stroke="midnightblue" points="361.33,-195.1 369.83,-201.43 367.13,-191.18 361.33,-195.1"/>
</g>
<!-- Node19 -->
<g id="node13" class="node">
<title>Node19</title>
<g id="a_node13"><a xlink:href="vtkParticleReader_8cpp.html" target="_top" xlink:title=" ">
<polygon fill="none" stroke="black" points="178,-0.5 178,-30.5 324,-30.5 324,-0.5 178,-0.5"/>
<text text-anchor="start" x="186" y="-18.5" font-family="Arial" font-size="10.00">/home/user/project</text>
<text text-anchor="middle" x="251" y="-7.5" font-family="Arial" font-size="10.00">/src/rw/vtkParticleReader.cpp</text>
</a>
</g>
</g>
<!-- Node6&#45;&gt;Node19 -->
<g id="edge18" class="edge">
<title>Node6&#45;&gt;Node19</title>
<path fill="none" stroke="midnightblue" d="M343.36,-196.1C330.43,-187.93 316.76,-177.42 307,-165 273.79,-122.76 258.68,-58.71 253.37,-30.58"/>
<polygon fill="midnightblue" stroke="midnightblue" points="341.76,-199.22 352.14,-201.37 345.37,-193.22 341.76,-199.22"/>
</g>
<!-- Node20 -->
<g id="node14" class="node">
<title>Node20</title>
<g id="a_node14"><a xlink:href="vtkParticleWriter_8cpp.html" target="_top" xlink:title=" ">
<polygon fill="none" stroke="black" points="342,-0.5 342,-30.5 482,-30.5 482,-0.5 342,-0.5"/>
<text text-anchor="start" x="350" y="-18.5" font-family="Arial" font-size="10.00">/home/user/project</text>
<text text-anchor="middle" x="412" y="-7.5" font-family="Arial" font-size="10.00">/src/rw/vtkParticleWriter.cpp</text>
</a>
</g>
</g>
<!-- Node6&#45;&gt;Node20 -->
<g id="edge19" class="edge">
<title>Node6&#45;&gt;Node20</title>
<path fill="none" stroke="midnightblue" d="M357.2,-194.58C326.72,-165.16 280.88,-110.32 308,-67 318.81,-49.73 337.4,-38.22 355.9,-30.61"/>
<polygon fill="midnightblue" stroke="midnightblue" points="354.88,-197.2 364.57,-201.48 359.67,-192.09 354.88,-197.2"/>
</g>
<!-- Node16&#45;&gt;Node17 -->
<g id="edge10" class="edge">
<title>Node16&#45;&gt;Node17</title>
<path fill="none" stroke="midnightblue" d="M690.46,-133.94C601.54,-117.67 510.62,-103.06 450.6,-93.7"/>
<polygon fill="midnightblue" stroke="midnightblue" points="689.99,-137.41 700.45,-135.78 691.25,-130.53 689.99,-137.41"/>
</g>
<!-- Node16&#45;&gt;Node22 -->
<g id="edge16" class="edge">
<title>Node16&#45;&gt;Node22</title>
<path fill="none" stroke="midnightblue" d="M760.15,-124.4C759.45,-115.37 758.69,-105.41 758.08,-97.58"/>
<polygon fill="midnightblue" stroke="midnightblue" points="756.66,-124.69 760.92,-134.4 763.64,-124.16 756.66,-124.69"/>
</g>
<!-- Node17&#45;&gt;Node5 -->
<g id="edge11" class="edge">
<title>Node17&#45;&gt;Node5</title>
<path fill="none" stroke="midnightblue" d="M308.62,-65.38C258.62,-54.69 193.63,-40.8 145.73,-30.55"/>
<polygon fill="midnightblue" stroke="midnightblue" points="307.9,-68.81 318.41,-67.48 309.36,-61.96 307.9,-68.81"/>
</g>
<!-- Node17&#45;&gt;Node15 -->
<g id="edge13" class="edge">
<title>Node17&#45;&gt;Node15</title>
<path fill="none" stroke="midnightblue" d="M433.13,-63.96C462.44,-53.48 499.18,-40.37 526.59,-30.58"/>
<polygon fill="midnightblue" stroke="midnightblue" points="431.73,-60.74 423.49,-67.4 434.09,-67.33 431.73,-60.74"/>
</g>
<!-- Node17&#45;&gt;Node18 -->
<g id="edge12" class="edge">
<title>Node17&#45;&gt;Node18</title>
<path fill="none" stroke="midnightblue" d="M460.72,-70.84C546.25,-58.97 683.98,-39.84 771.14,-27.73"/>
<polygon fill="midnightblue" stroke="midnightblue" points="459.98,-67.41 450.56,-72.26 460.94,-74.35 459.98,-67.41"/>
</g>
<!-- Node17&#45;&gt;Node19 -->
<g id="edge14" class="edge">
<title>Node17&#45;&gt;Node19</title>
<path fill="none" stroke="midnightblue" d="M346.13,-62.99C325.05,-52.69 299.22,-40.07 279.8,-30.58"/>
<polygon fill="midnightblue" stroke="midnightblue" points="344.62,-66.15 355.14,-67.4 347.69,-59.86 344.62,-66.15"/>
</g>
<!-- Node17&#45;&gt;Node20 -->
<g id="edge15" class="edge">
<title>Node17&#45;&gt;Node20</title>
<path fill="none" stroke="midnightblue" d="M394.13,-57.99C398.08,-48.8 402.49,-38.58 405.94,-30.58"/>
<polygon fill="midnightblue" stroke="midnightblue" points="390.82,-56.83 390.08,-67.4 397.25,-59.6 390.82,-56.83"/>
</g>
<!-- Node23&#45;&gt;Node6 -->
<g id="edge22" class="edge">
<title>Node23&#45;&gt;Node6</title>
<path fill="none" stroke="midnightblue" d="M551.61,-265.71C514.18,-255.14 466.4,-241.63 430.93,-231.61"/>
<polygon fill="midnightblue" stroke="midnightblue" points="550.8,-269.12 561.38,-268.48 552.71,-262.39 550.8,-269.12"/>
</g>
<!-- Node23&#45;&gt;Node18 -->
<g id="edge21" class="edge">
<title>Node23&#45;&gt;Node18</title>
<path fill="none" stroke="midnightblue" d="M676.72,-265.42C727.6,-248.6 795.39,-217.61 832,-165 860.98,-123.36 857.41,-59 854.07,-30.68"/>
<polygon fill="midnightblue" stroke="midnightblue" points="675.56,-262.12 667.11,-268.5 677.7,-268.78 675.56,-262.12"/>
</g>
</g>
</svg>
