<?xml version="1.0" encoding="UTF-8" standalone="no"?>
<!DOCTYPE svg PUBLIC "-//W3C//DTD SVG 1.1//EN"
 "http://www.w3.org/Graphics/SVG/1.1/DTD/svg11.dtd">
<!-- Generated by graphviz version 2.43.0 (0)
 -->
<!-- Title: /home/user/project/src/loading/particleLoading.h Pages: 1 -->
<svg width="767pt" height="375pt"
 viewBox="0.00 0.00 767.12 375.00" xmlns="http://www.w3.org/2000/svg" xmlns:xlink="http://www.w3.org/1999/xlink">
<g id="graph0" class="graph" transform="scale(1 1) rotate(0) translate(4 371)">
<title>/home/user/project/src/loading/particleLoading.h</title>
<!-- Node1 -->
<g id="node1" class="node">
<title>Node1</title>
<g id="a_node1"><a xlink:title=" ">
<polygon fill="#bfbfbf" stroke="black" points="234.5,-336.5 234.5,-366.5 377.5,-366.5 377.5,-336.5 234.5,-336.5"/>
<text text-anchor="start" x="242.5" y="-354.5" font-family="Arial" font-size="10.00">/home/user/project</text>
<text text-anchor="middle" x="306" y="-343.5" font-family="Arial" font-size="10.00">/src/loading/particleLoading.h</text>
</a>
</g>
</g>
<!-- Node2 -->
<g id="node2" class="node">
<title>Node2</title>
<g id="a_node2"><a xlink:title=" ">
<polygon fill="none" stroke="#bfbfbf" points="493.5,-112.5 493.5,-131.5 534.5,-131.5 534.5,-112.5 493.5,-112.5"/>
<text text-anchor="middle" x="514" y="-119.5" font-family="Arial" font-size="10.00">string</text>
</a>
</g>
</g>
<!-- Node1&#45;&gt;Node2 -->
<g id="edge1" class="edge">
<title>Node1&#45;&gt;Node2</title>
<path fill="none" stroke="midnightblue" d="M377.7,-348.4C481.1,-341.04 669.06,-310.49 755,-188 760.11,-180.72 760.68,-174.84 755,-168 728.63,-136.25 603.91,-126.78 544.98,-124.05"/>
<polygon fill="midnightblue" stroke="midnightblue" points="544.92,-120.55 534.78,-123.62 544.63,-127.54 544.92,-120.55"/>
</g>
<!-- Node3 -->
<g id="node3" class="node">
<title>Node3</title>
<g id="a_node3"><a xlink:title=" ">
<polygon fill="none" stroke="#bfbfbf" points="267,-0.5 267,-19.5 311,-19.5 311,-0.5 267,-0.5"/>
<text text-anchor="middle" x="289" y="-7.5" font-family="Arial" font-size="10.00">vector</text>
</a>
</g>
</g>
<!-- Node1&#45;&gt;Node3 -->
<g id="edge2" class="edge">
<title>Node1&#45;&gt;Node3</title>
<path fill="none" stroke="midnightblue" d="M234.26,-338.2C143.81,-320.62 0,-284.83 0,-235 0,-235 0,-235 0,-121 0,-66.52 181.64,-29.29 256.92,-16.19"/>
<polygon fill="midnightblue" stroke="midnightblue" points="257.53,-19.64 266.8,-14.51 256.36,-12.74 257.53,-19.64"/>
</g>
<!-- Node4 -->
<g id="node4" class="node">
<title>Node4</title>
<g id="a_node4"><a xlink:href="particleDeck_8h.html" target="_top" xlink:title=" ">
<polygon fill="none" stroke="black" points="241,-280.5 241,-299.5 371,-299.5 371,-280.5 241,-280.5"/>
<text text-anchor="middle" x="306" y="-287.5" font-family="Arial" font-size="10.00">inp/pdecks/particleDeck.h</text>
</a>
</g>
</g>
<!-- Node1&#45;&gt;Node4 -->
<g id="edge3" class="edge">
<title>Node1&#45;&gt;Node4</title>
<path fill="none" stroke="midnightblue" d="M306,-336.4C306,-328.47 306,-318.46 306,-309.86"/>
<polygon fill="midnightblue" stroke="midnightblue" points="309.5,-309.66 306,-299.66 302.5,-309.66 309.5,-309.66"/>
</g>
<!-- Node5 -->
<g id="node5" class="node">
<title>Node5</title>
<g id="a_node5"><a xlink:href="zoneDeck_8h.html" target="_top" xlink:title=" ">
<polygon fill="none" stroke="black" points="271.5,-224.5 271.5,-243.5 340.5,-243.5 340.5,-224.5 271.5,-224.5"/>
<text text-anchor="middle" x="306" y="-231.5" font-family="Arial" font-size="10.00">zoneDeck.h</text>
</a>
</g>
</g>
<!-- Node4&#45;&gt;Node5 -->
<g id="edge4" class="edge">
<title>Node4&#45;&gt;Node5</title>
<path fill="none" stroke="midnightblue" d="M306,-280.08C306,-273.01 306,-262.86 306,-253.99"/>
<polygon fill="midnightblue" stroke="midnightblue" points="309.5,-253.75 306,-243.75 302.5,-253.75 309.5,-253.75"/>
</g>
<!-- Node21 -->
<g id="node14" class="node">
<title>Node21</title>
<g id="a_node14"><a xlink:title=" ">
<polygon fill="none" stroke="#bfbfbf" points="39,-112.5 39,-131.5 91,-131.5 91,-112.5 39,-112.5"/>
<text text-anchor="middle" x="65" y="-119.5" font-family="Arial" font-size="10.00">memory</text>
</a>
</g>
</g>
<!-- Node4&#45;&gt;Node21 -->
<g id="edge41" class="edge">
<title>Node4&#45;&gt;Node21</title>
<path fill="none" stroke="midnightblue" d="M250.1,-280.48C197.08,-269.19 119.9,-243.74 81,-188 71.54,-174.45 67.66,-155.9 66.07,-142.08"/>
<polygon fill="midnightblue" stroke="midnightblue" points="69.53,-141.48 65.2,-131.81 62.55,-142.06 69.53,-141.48"/>
</g>
<!-- Node24 -->
<g id="node17" class="node">
<title>Node24</title>
<g id="a_node17"><a xlink:href="pNeighborDeck_8h.html" target="_top" xlink:title=" ">
<polygon fill="none" stroke="black" points="470,-168.5 470,-187.5 562,-187.5 562,-168.5 470,-168.5"/>
<text text-anchor="middle" x="516" y="-175.5" font-family="Arial" font-size="10.00">pNeighborDeck.h</text>
</a>
</g>
</g>
<!-- Node4&#45;&gt;Node24 -->
<g id="edge33" class="edge">
<title>Node4&#45;&gt;Node24</title>
<path fill="none" stroke="midnightblue" d="M322.48,-280.37C358.97,-261.25 446.84,-215.23 490.49,-192.36"/>
<polygon fill="midnightblue" stroke="midnightblue" points="492.36,-195.33 499.6,-187.59 489.12,-189.13 492.36,-195.33"/>
</g>
<!-- Node25 -->
<g id="node18" class="node">
<title>Node25</title>
<g id="a_node18"><a xlink:href="pBCData_8h.html" target="_top" xlink:title=" ">
<polygon fill="none" stroke="black" points="173.5,-224.5 173.5,-243.5 238.5,-243.5 238.5,-224.5 173.5,-224.5"/>
<text text-anchor="middle" x="206" y="-231.5" font-family="Arial" font-size="10.00">pBCData.h</text>
</a>
</g>
</g>
<!-- Node4&#45;&gt;Node25 -->
<g id="edge35" class="edge">
<title>Node4&#45;&gt;Node25</title>
<path fill="none" stroke="midnightblue" d="M289.93,-280.32C274.04,-271.74 249.49,-258.49 231.04,-248.52"/>
<polygon fill="midnightblue" stroke="midnightblue" points="232.49,-245.33 222.03,-243.65 229.16,-251.49 232.49,-245.33"/>
</g>
<!-- Node26 -->
<g id="node19" class="node">
<title>Node26</title>
<g id="a_node19"><a xlink:href="pICDeck_8h.html" target="_top" xlink:title=" ">
<polygon fill="none" stroke="black" points="515,-224.5 515,-243.5 579,-243.5 579,-224.5 515,-224.5"/>
<text text-anchor="middle" x="547" y="-231.5" font-family="Arial" font-size="10.00">pICDeck.h</text>
</a>
</g>
</g>
<!-- Node4&#45;&gt;Node26 -->
<g id="edge39" class="edge">
<title>Node4&#45;&gt;Node26</title>
<path fill="none" stroke="midnightblue" d="M344.19,-280.44C387.99,-270.63 459.6,-254.58 504.96,-244.42"/>
<polygon fill="midnightblue" stroke="midnightblue" points="505.78,-247.82 514.78,-242.22 504.25,-240.99 505.78,-247.82"/>
</g>
<!-- Node6 -->
<g id="node6" class="node">
<title>Node6</title>
<g id="a_node6"><a xlink:href="materialDeck_8h.html" target="_top" xlink:title=" ">
<polygon fill="none" stroke="black" points="618,-168.5 618,-187.5 746,-187.5 746,-168.5 618,-168.5"/>
<text text-anchor="middle" x="682" y="-175.5" font-family="Arial" font-size="10.00">inp/decks/materialDeck.h</text>
</a>
</g>
</g>
<!-- Node5&#45;&gt;Node6 -->
<g id="edge5" class="edge">
<title>Node5&#45;&gt;Node6</title>
<path fill="none" stroke="midnightblue" d="M340.7,-228.02C402.33,-219.17 531.97,-200.55 612.54,-188.98"/>
<polygon fill="midnightblue" stroke="midnightblue" points="613.2,-192.42 622.6,-187.53 612.21,-185.49 613.2,-192.42"/>
</g>
<!-- Node7 -->
<g id="node7" class="node">
<title>Node7</title>
<g id="a_node7"><a xlink:href="io_8h.html" target="_top" xlink:title=" ">
<polygon fill="none" stroke="red" points="427,-112.5 427,-131.5 475,-131.5 475,-112.5 427,-112.5"/>
<text text-anchor="middle" x="451" y="-119.5" font-family="Arial" font-size="10.00">util/io.h</text>
</a>
</g>
</g>
<!-- Node5&#45;&gt;Node7 -->
<g id="edge31" class="edge">
<title>Node5&#45;&gt;Node7</title>
<path fill="none" stroke="midnightblue" d="M306.14,-224.2C306.84,-210.43 310.16,-183.74 325,-168 337.8,-154.43 384.14,-140.17 416.89,-131.43"/>
<polygon fill="midnightblue" stroke="midnightblue" points="418.19,-134.71 426.99,-128.8 416.43,-127.94 418.19,-134.71"/>
</g>
<!-- Node18 -->
<g id="node11" class="node">
<title>Node18</title>
<g id="a_node11"><a xlink:href="meshDeck_8h.html" target="_top" xlink:title=" ">
<polygon fill="none" stroke="black" points="334.5,-168.5 334.5,-187.5 451.5,-187.5 451.5,-168.5 334.5,-168.5"/>
<text text-anchor="middle" x="393" y="-175.5" font-family="Arial" font-size="10.00">inp/decks/meshDeck.h</text>
</a>
</g>
</g>
<!-- Node5&#45;&gt;Node18 -->
<g id="edge16" class="edge">
<title>Node5&#45;&gt;Node18</title>
<path fill="none" stroke="midnightblue" d="M319.98,-224.32C333.55,-215.9 354.38,-202.97 370.32,-193.07"/>
<polygon fill="midnightblue" stroke="midnightblue" points="372.41,-195.9 379.06,-187.65 368.71,-189.95 372.41,-195.9"/>
</g>
<!-- Node19 -->
<g id="node12" class="node">
<title>Node19</title>
<g id="a_node12"><a xlink:href="geomObjects_8h.html" target="_top" xlink:title=" ">
<polygon fill="none" stroke="black" points="142,-168.5 142,-187.5 240,-187.5 240,-168.5 142,-168.5"/>
<text text-anchor="middle" x="191" y="-175.5" font-family="Arial" font-size="10.00">util/geomObjects.h</text>
</a>
</g>
</g>
<!-- Node5&#45;&gt;Node19 -->
<g id="edge19" class="edge">
<title>Node5&#45;&gt;Node19</title>
<path fill="none" stroke="midnightblue" d="M287.78,-224.44C269.1,-215.68 239.84,-201.94 218.38,-191.86"/>
<polygon fill="midnightblue" stroke="midnightblue" points="219.68,-188.6 209.14,-187.52 216.7,-194.93 219.68,-188.6"/>
</g>
<!-- Node5&#45;&gt;Node21 -->
<g id="edge32" class="edge">
<title>Node5&#45;&gt;Node21</title>
<path fill="none" stroke="midnightblue" d="M271.38,-226.15C228.03,-217.21 156.58,-201.15 133,-188 110.82,-175.63 90.5,-154.31 77.96,-139.47"/>
<polygon fill="midnightblue" stroke="midnightblue" points="80.56,-137.13 71.52,-131.6 75.14,-141.56 80.56,-137.13"/>
</g>
<!-- Node6&#45;&gt;Node2 -->
<g id="edge14" class="edge">
<title>Node6&#45;&gt;Node2</title>
<path fill="none" stroke="midnightblue" d="M655.38,-168.44C625.16,-158.73 575.95,-142.91 544.29,-132.74"/>
<polygon fill="midnightblue" stroke="midnightblue" points="545.26,-129.37 534.67,-129.64 543.12,-136.04 545.26,-129.37"/>
</g>
<!-- Node6&#45;&gt;Node3 -->
<g id="edge15" class="edge">
<title>Node6&#45;&gt;Node3</title>
<path fill="none" stroke="midnightblue" d="M664.73,-168.44C638.76,-155.65 587.99,-131.05 544,-112 464.45,-77.55 369.09,-41.02 320.63,-22.79"/>
<polygon fill="midnightblue" stroke="midnightblue" points="321.61,-19.42 311.02,-19.19 319.15,-25.98 321.61,-19.42"/>
</g>
<!-- Node6&#45;&gt;Node7 -->
<g id="edge6" class="edge">
<title>Node6&#45;&gt;Node7</title>
<path fill="none" stroke="midnightblue" d="M642.66,-168.43C602.83,-159.65 539.5,-145.43 485,-132 484.9,-131.98 484.8,-131.95 484.7,-131.93"/>
<polygon fill="midnightblue" stroke="midnightblue" points="485.67,-128.56 475.12,-129.49 483.95,-135.35 485.67,-128.56"/>
</g>
<!-- Node9 -->
<g id="node9" class="node">
<title>Node9</title>
<g id="a_node9"><a xlink:title=" ">
<polygon fill="none" stroke="#bfbfbf" points="565,-0.5 565,-19.5 609,-19.5 609,-0.5 565,-0.5"/>
<text text-anchor="middle" x="587" y="-7.5" font-family="Arial" font-size="10.00">cmath</text>
</a>
</g>
</g>
<!-- Node6&#45;&gt;Node9 -->
<g id="edge13" class="edge">
<title>Node6&#45;&gt;Node9</title>
<path fill="none" stroke="midnightblue" d="M676.89,-168.08C661.81,-141.72 617.26,-63.88 597.11,-28.66"/>
<polygon fill="midnightblue" stroke="midnightblue" points="599.91,-26.51 591.9,-19.57 593.83,-29.99 599.91,-26.51"/>
</g>
<!-- Node7&#45;&gt;Node3 -->
<g id="edge12" class="edge">
<title>Node7&#45;&gt;Node3</title>
<path fill="none" stroke="midnightblue" d="M438.29,-112.37C410.49,-93.49 344.06,-48.38 309.97,-25.24"/>
<polygon fill="midnightblue" stroke="midnightblue" points="311.89,-22.31 301.65,-19.59 307.96,-28.1 311.89,-22.31"/>
</g>
<!-- Node8 -->
<g id="node8" class="node">
<title>Node8</title>
<g id="a_node8"><a xlink:href="point_8h.html" target="_top" xlink:title=" ">
<polygon fill="none" stroke="red" points="291,-56.5 291,-75.5 337,-75.5 337,-56.5 291,-56.5"/>
<text text-anchor="middle" x="314" y="-63.5" font-family="Arial" font-size="10.00">point.h</text>
</a>
</g>
</g>
<!-- Node7&#45;&gt;Node8 -->
<g id="edge7" class="edge">
<title>Node7&#45;&gt;Node8</title>
<path fill="none" stroke="midnightblue" d="M429.29,-112.44C406.65,-103.52 370.93,-89.44 345.25,-79.32"/>
<polygon fill="midnightblue" stroke="midnightblue" points="346.19,-75.93 335.61,-75.52 343.63,-82.44 346.19,-75.93"/>
</g>
<!-- Node12 -->
<g id="node10" class="node">
<title>Node12</title>
<g id="a_node10"><a xlink:title=" ">
<polygon fill="none" stroke="#bfbfbf" points="414,-0.5 414,-19.5 468,-19.5 468,-0.5 414,-0.5"/>
<text text-anchor="middle" x="441" y="-7.5" font-family="Arial" font-size="10.00">iostream</text>
</a>
</g>
</g>
<!-- Node7&#45;&gt;Node12 -->
<g id="edge11" class="edge">
<title>Node7&#45;&gt;Node12</title>
<path fill="none" stroke="midnightblue" d="M452.73,-112.12C454.91,-99.55 458.02,-75.9 455,-56 453.63,-47 450.81,-37.33 448.05,-29.26"/>
<polygon fill="midnightblue" stroke="midnightblue" points="451.31,-27.98 444.6,-19.78 444.73,-30.37 451.31,-27.98"/>
</g>
<!-- Node8&#45;&gt;Node3 -->
<g id="edge10" class="edge">
<title>Node8&#45;&gt;Node3</title>
<path fill="none" stroke="midnightblue" d="M309.87,-56.08C306.49,-48.77 301.58,-38.18 297.38,-29.1"/>
<polygon fill="midnightblue" stroke="midnightblue" points="300.43,-27.36 293.05,-19.75 294.08,-30.3 300.43,-27.36"/>
</g>
<!-- Node8&#45;&gt;Node9 -->
<g id="edge8" class="edge">
<title>Node8&#45;&gt;Node9</title>
<path fill="none" stroke="midnightblue" d="M337.28,-60.4C386.09,-50.74 499.26,-28.35 554.92,-17.35"/>
<polygon fill="midnightblue" stroke="midnightblue" points="555.8,-20.74 564.93,-15.37 554.44,-13.87 555.8,-20.74"/>
</g>
<!-- Node8&#45;&gt;Node12 -->
<g id="edge9" class="edge">
<title>Node8&#45;&gt;Node12</title>
<path fill="none" stroke="midnightblue" d="M334.12,-56.44C355.02,-47.56 387.93,-33.56 411.72,-23.45"/>
<polygon fill="midnightblue" stroke="midnightblue" points="413.14,-26.65 420.97,-19.52 410.4,-20.21 413.14,-26.65"/>
</g>
<!-- Node18&#45;&gt;Node2 -->
<g id="edge18" class="edge">
<title>Node18&#45;&gt;Node2</title>
<path fill="none" stroke="midnightblue" d="M412.17,-168.44C431.91,-159.64 462.89,-145.81 485.49,-135.72"/>
<polygon fill="midnightblue" stroke="midnightblue" points="487.21,-138.79 494.92,-131.52 484.36,-132.4 487.21,-138.79"/>
</g>
<!-- Node18&#45;&gt;Node7 -->
<g id="edge17" class="edge">
<title>Node18&#45;&gt;Node7</title>
<path fill="none" stroke="midnightblue" d="M402.32,-168.32C410.89,-160.34 423.81,-148.31 434.19,-138.65"/>
<polygon fill="midnightblue" stroke="midnightblue" points="436.58,-141.21 441.51,-131.83 431.81,-136.09 436.58,-141.21"/>
</g>
<!-- Node19&#45;&gt;Node7 -->
<g id="edge26" class="edge">
<title>Node19&#45;&gt;Node7</title>
<path fill="none" stroke="midnightblue" d="M235.32,-168.46C280.19,-159.7 351.55,-145.5 413,-132 414.27,-131.72 415.56,-131.43 416.86,-131.14"/>
<polygon fill="midnightblue" stroke="midnightblue" points="417.94,-134.48 426.9,-128.83 416.37,-127.66 417.94,-134.48"/>
</g>
<!-- Node19&#45;&gt;Node8 -->
<g id="edge27" class="edge">
<title>Node19&#45;&gt;Node8</title>
<path fill="none" stroke="midnightblue" d="M240.21,-168.73C279.09,-161.08 328.79,-148.41 341,-132 351.99,-117.22 340.68,-97.32 329.52,-83.44"/>
<polygon fill="midnightblue" stroke="midnightblue" points="331.99,-80.94 322.79,-75.68 326.7,-85.53 331.99,-80.94"/>
</g>
<!-- Node19&#45;&gt;Node12 -->
<g id="edge20" class="edge">
<title>Node19&#45;&gt;Node12</title>
<path fill="none" stroke="midnightblue" d="M240.16,-172.84C275.63,-167.8 323.21,-156.65 358,-132 395.8,-105.22 421.78,-55.42 433.66,-28.83"/>
<polygon fill="midnightblue" stroke="midnightblue" points="436.9,-30.14 437.64,-19.57 430.47,-27.38 436.9,-30.14"/>
</g>
<!-- Node20 -->
<g id="node13" class="node">
<title>Node20</title>
<g id="a_node13"><a xlink:title=" ">
<polygon fill="none" stroke="#bfbfbf" points="187,-112.5 187,-131.5 227,-131.5 227,-112.5 187,-112.5"/>
<text text-anchor="middle" x="207" y="-119.5" font-family="Arial" font-size="10.00">utility</text>
</a>
</g>
</g>
<!-- Node19&#45;&gt;Node20 -->
<g id="edge21" class="edge">
<title>Node19&#45;&gt;Node20</title>
<path fill="none" stroke="midnightblue" d="M193.64,-168.08C195.79,-160.85 198.88,-150.41 201.55,-141.4"/>
<polygon fill="midnightblue" stroke="midnightblue" points="204.92,-142.33 204.41,-131.75 198.21,-140.34 204.92,-142.33"/>
</g>
<!-- Node19&#45;&gt;Node21 -->
<g id="edge22" class="edge">
<title>Node19&#45;&gt;Node21</title>
<path fill="none" stroke="midnightblue" d="M171.03,-168.44C150.39,-159.6 117.94,-145.69 94.37,-135.59"/>
<polygon fill="midnightblue" stroke="midnightblue" points="95.44,-132.24 84.87,-131.52 92.68,-138.67 95.44,-132.24"/>
</g>
<!-- Node22 -->
<g id="node15" class="node">
<title>Node22</title>
<g id="a_node15"><a xlink:href="function_8h.html" target="_top" xlink:title=" ">
<polygon fill="none" stroke="black" points="109.5,-112.5 109.5,-131.5 168.5,-131.5 168.5,-112.5 109.5,-112.5"/>
<text text-anchor="middle" x="139" y="-119.5" font-family="Arial" font-size="10.00">function.h</text>
</a>
</g>
</g>
<!-- Node19&#45;&gt;Node22 -->
<g id="edge23" class="edge">
<title>Node19&#45;&gt;Node22</title>
<path fill="none" stroke="midnightblue" d="M182.41,-168.08C174.84,-160.22 163.62,-148.57 154.49,-139.08"/>
<polygon fill="midnightblue" stroke="midnightblue" points="156.88,-136.53 147.43,-131.75 151.84,-141.38 156.88,-136.53"/>
</g>
<!-- Node23 -->
<g id="node16" class="node">
<title>Node23</title>
<g id="a_node16"><a xlink:href="transformation_8h.html" target="_top" xlink:title=" ">
<polygon fill="none" stroke="black" points="245.5,-112.5 245.5,-131.5 332.5,-131.5 332.5,-112.5 245.5,-112.5"/>
<text text-anchor="middle" x="289" y="-119.5" font-family="Arial" font-size="10.00">transformation.h</text>
</a>
</g>
</g>
<!-- Node19&#45;&gt;Node23 -->
<g id="edge28" class="edge">
<title>Node19&#45;&gt;Node23</title>
<path fill="none" stroke="midnightblue" d="M206.75,-168.32C222.32,-159.74 246.38,-146.49 264.46,-136.52"/>
<polygon fill="midnightblue" stroke="midnightblue" points="266.22,-139.55 273.29,-131.65 262.85,-133.42 266.22,-139.55"/>
</g>
<!-- Node22&#45;&gt;Node3 -->
<g id="edge25" class="edge">
<title>Node22&#45;&gt;Node3</title>
<path fill="none" stroke="midnightblue" d="M150.77,-112.37C176.4,-93.57 237.5,-48.77 269.18,-25.53"/>
<polygon fill="midnightblue" stroke="midnightblue" points="271.29,-28.33 277.28,-19.59 267.15,-22.68 271.29,-28.33"/>
</g>
<!-- Node22&#45;&gt;Node8 -->
<g id="edge24" class="edge">
<title>Node22&#45;&gt;Node8</title>
<path fill="none" stroke="midnightblue" d="M166.73,-112.44C197.82,-102.85 248.21,-87.3 281.22,-77.11"/>
<polygon fill="midnightblue" stroke="midnightblue" points="282.35,-80.43 290.87,-74.14 280.28,-73.74 282.35,-80.43"/>
</g>
<!-- Node23&#45;&gt;Node3 -->
<g id="edge30" class="edge">
<title>Node23&#45;&gt;Node3</title>
<path fill="none" stroke="midnightblue" d="M287.01,-112.18C284.44,-99.7 280.44,-76.14 282,-56 282.68,-47.22 284.09,-37.56 285.47,-29.45"/>
<polygon fill="midnightblue" stroke="midnightblue" points="288.92,-30.04 287.26,-19.58 282.03,-28.8 288.92,-30.04"/>
</g>
<!-- Node23&#45;&gt;Node8 -->
<g id="edge29" class="edge">
<title>Node23&#45;&gt;Node8</title>
<path fill="none" stroke="midnightblue" d="M293.13,-112.08C296.51,-104.77 301.42,-94.18 305.62,-85.1"/>
<polygon fill="midnightblue" stroke="midnightblue" points="308.92,-86.3 309.95,-75.75 302.57,-83.36 308.92,-86.3"/>
</g>
<!-- Node24&#45;&gt;Node7 -->
<g id="edge34" class="edge">
<title>Node24&#45;&gt;Node7</title>
<path fill="none" stroke="midnightblue" d="M505.56,-168.32C495.85,-160.26 481.18,-148.08 469.5,-138.37"/>
<polygon fill="midnightblue" stroke="midnightblue" points="471.56,-135.53 461.63,-131.83 467.09,-140.92 471.56,-135.53"/>
</g>
<!-- Node25&#45;&gt;Node7 -->
<g id="edge37" class="edge">
<title>Node25&#45;&gt;Node7</title>
<path fill="none" stroke="midnightblue" d="M217.62,-224.37C236.28,-210.84 274.45,-184.47 310,-168 345.25,-151.67 388.04,-138.94 417.17,-131.24"/>
<polygon fill="midnightblue" stroke="midnightblue" points="418.06,-134.63 426.87,-128.74 416.31,-127.85 418.06,-134.63"/>
</g>
<!-- Node25&#45;&gt;Node19 -->
<g id="edge36" class="edge">
<title>Node25&#45;&gt;Node19</title>
<path fill="none" stroke="midnightblue" d="M203.52,-224.08C201.51,-216.85 198.61,-206.41 196.11,-197.4"/>
<polygon fill="midnightblue" stroke="midnightblue" points="199.48,-196.45 193.43,-187.75 192.74,-198.32 199.48,-196.45"/>
</g>
<!-- Node25&#45;&gt;Node21 -->
<g id="edge38" class="edge">
<title>Node25&#45;&gt;Node21</title>
<path fill="none" stroke="midnightblue" d="M173.17,-225.27C150.45,-218.55 120.69,-206.86 100,-188 86.11,-175.34 76.65,-155.86 71.1,-141.52"/>
<polygon fill="midnightblue" stroke="midnightblue" points="74.27,-140 67.61,-131.76 67.68,-142.36 74.27,-140"/>
</g>
<!-- Node26&#45;&gt;Node7 -->
<g id="edge40" class="edge">
<title>Node26&#45;&gt;Node7</title>
<path fill="none" stroke="midnightblue" d="M554.98,-224.36C566.08,-211.26 583.47,-185.99 571,-168 565.85,-160.56 518.79,-144.41 485.16,-133.62"/>
<polygon fill="midnightblue" stroke="midnightblue" points="485.81,-130.15 475.22,-130.46 483.69,-136.82 485.81,-130.15"/>
</g>
</g>
</svg>
