<?xml version="1.0" encoding="UTF-8" standalone="no"?>
<!DOCTYPE svg PUBLIC "-//W3C//DTD SVG 1.1//EN"
 "http://www.w3.org/Graphics/SVG/1.1/DTD/svg11.dtd">
<!-- Generated by graphviz version 2.43.0 (0)
 -->
<!-- Title: /home/user/project/src/loading/particleFLoading.h Pages: 1 -->
<svg width="1999pt" height="313pt"
 viewBox="0.00 0.00 1999.00 313.00" xmlns="http://www.w3.org/2000/svg" xmlns:xlink="http://www.w3.org/1999/xlink">
<g id="graph0" class="graph" transform="scale(1 1) rotate(0) translate(4 309)">
<title>/home/user/project/src/loading/particleFLoading.h</title>
<!-- Node1 -->
<g id="Node000001" class="node">
<title>Node1</title>
<g id="a_Node000001"><a xlink:title=" ">
<polygon fill="#999999" stroke="#666666" points="756.5,-305 607.5,-305 607.5,-275 756.5,-275 756.5,-305"/>
<text text-anchor="start" x="615.5" y="-293" font-family="Arial" font-size="10.00">/home/user/project</text>
<text text-anchor="middle" x="682" y="-282" font-family="Arial" font-size="10.00">/src/loading/particleFLoading.h</text>
</a>
</g>
</g>
<!-- Node2 -->
<g id="Node000002" class="node">
<title>Node2</title>
<g id="a_Node000002"><a xlink:href="particleFLoading_8cpp.html" target="_top" xlink:title=" ">
<polygon fill="white" stroke="#666666" points="160,-35.5 0,-35.5 0,-5.5 160,-5.5 160,-35.5"/>
<text text-anchor="start" x="8" y="-23.5" font-family="Arial" font-size="10.00">/home/user/project</text>
<text text-anchor="middle" x="80" y="-12.5" font-family="Arial" font-size="10.00">/src/loading/particleFLoading.cpp</text>
</a>
</g>
</g>
<!-- Node1&#45;&gt;Node2 -->
<g id="edge1_Node000001_Node000002" class="edge">
<title>Node1&#45;&gt;Node2</title>
<g id="a_edge1_Node000001_Node000002"><a xlink:title=" ">
<path fill="none" stroke="#63b8ff" d="M641.12,-270.83C528.01,-220.57 212.6,-80.42 111.57,-35.53"/>
<polygon fill="#63b8ff" stroke="#63b8ff" points="639.92,-274.13 650.48,-274.99 642.76,-267.74 639.92,-274.13"/>
</a>
</g>
</g>
<!-- Node3 -->
<g id="Node000003" class="node">
<title>Node3</title>
<g id="a_Node000003"><a xlink:href="modelData_8h.html" target="_top" xlink:title=" ">
<polygon fill="white" stroke="#666666" points="1239.5,-239 1118.5,-239 1118.5,-209 1239.5,-209 1239.5,-239"/>
<text text-anchor="start" x="1126.5" y="-227" font-family="Arial" font-size="10.00">/home/user/project</text>
<text text-anchor="middle" x="1179" y="-216" font-family="Arial" font-size="10.00">/src/model/modelData.h</text>
</a>
</g>
</g>
<!-- Node1&#45;&gt;Node3 -->
<g id="edge2_Node000001_Node000003" class="edge">
<title>Node1&#45;&gt;Node3</title>
<g id="a_edge2_Node000001_Node000003"><a xlink:title=" ">
<path fill="none" stroke="#63b8ff" d="M766.74,-278.09C866.64,-265.22 1030.18,-244.16 1118.26,-232.82"/>
<polygon fill="#63b8ff" stroke="#63b8ff" points="766.15,-274.64 756.67,-279.38 767.04,-281.58 766.15,-274.64"/>
</a>
</g>
</g>
<!-- Node4 -->
<g id="Node000004" class="node">
<title>Node4</title>
<g id="a_Node000004"><a xlink:href="materialUtil_8h.html" target="_top" xlink:title=" ">
<polygon fill="white" stroke="#666666" points="945.5,-107 814.5,-107 814.5,-77 945.5,-77 945.5,-107"/>
<text text-anchor="start" x="822.5" y="-95" font-family="Arial" font-size="10.00">/home/user/project</text>
<text text-anchor="middle" x="880" y="-84" font-family="Arial" font-size="10.00">/src/material/materialUtil.h</text>
</a>
</g>
</g>
<!-- Node3&#45;&gt;Node4 -->
<g id="edge3_Node000003_Node000004" class="edge">
<title>Node3&#45;&gt;Node4</title>
<g id="a_edge3_Node000003_Node000004"><a xlink:title=" ">
<path fill="none" stroke="#63b8ff" d="M1137.51,-204.96C1077.4,-178.82 967.29,-130.95 912.6,-107.17"/>
<polygon fill="#63b8ff" stroke="#63b8ff" points="1136.15,-208.19 1146.72,-208.96 1138.94,-201.77 1136.15,-208.19"/>
</a>
</g>
</g>
<!-- Node10 -->
<g id="Node000010" class="node">
<title>Node10</title>
<g id="a_Node000010"><a xlink:href="demModel_8h.html" target="_top" xlink:title=" ">
<polygon fill="white" stroke="#666666" points="649,-107 509,-107 509,-77 649,-77 649,-107"/>
<text text-anchor="start" x="517" y="-95" font-family="Arial" font-size="10.00">/home/user/project</text>
<text text-anchor="middle" x="579" y="-84" font-family="Arial" font-size="10.00">/src/model/dem/demModel.h</text>
</a>
</g>
</g>
<!-- Node3&#45;&gt;Node10 -->
<g id="edge9_Node000003_Node000010" class="edge">
<title>Node3&#45;&gt;Node10</title>
<g id="a_edge9_Node000003_Node000010"><a xlink:title=" ">
<path fill="none" stroke="#63b8ff" d="M1108.48,-207.72C991.04,-182.28 757.13,-131.6 643.69,-107.02"/>
<polygon fill="#63b8ff" stroke="#63b8ff" points="1107.93,-211.18 1118.44,-209.88 1109.41,-204.34 1107.93,-211.18"/>
</a>
</g>
</g>
<!-- Node13 -->
<g id="Node000013" class="node">
<title>Node13</title>
<g id="a_Node000013"><a xlink:href="modelData_8cpp.html" target="_top" xlink:title=" ">
<polygon fill="white" stroke="#666666" points="1668.5,-35.5 1537.5,-35.5 1537.5,-5.5 1668.5,-5.5 1668.5,-35.5"/>
<text text-anchor="start" x="1545.5" y="-23.5" font-family="Arial" font-size="10.00">/home/user/project</text>
<text text-anchor="middle" x="1603" y="-12.5" font-family="Arial" font-size="10.00">/src/model/modelData.cpp</text>
</a>
</g>
</g>
<!-- Node3&#45;&gt;Node13 -->
<g id="edge15_Node000003_Node000013" class="edge">
<title>Node3&#45;&gt;Node13</title>
<g id="a_edge15_Node000003_Node000013"><a xlink:title=" ">
<path fill="none" stroke="#63b8ff" d="M1222.32,-204.94C1244.22,-195.65 1271.15,-184 1295,-173 1399.71,-124.72 1522.1,-62.87 1575.61,-35.55"/>
<polygon fill="#63b8ff" stroke="#63b8ff" points="1220.8,-201.78 1212.95,-208.89 1223.53,-208.23 1220.8,-201.78"/>
</a>
</g>
</g>
<!-- Node14 -->
<g id="Node000014" class="node">
<title>Node14</title>
<g id="a_Node000014"><a xlink:href="baseParticle_8h.html" target="_top" xlink:title=" ">
<polygon fill="white" stroke="#666666" points="1200.5,-107 1067.5,-107 1067.5,-77 1200.5,-77 1200.5,-107"/>
<text text-anchor="start" x="1075.5" y="-95" font-family="Arial" font-size="10.00">/home/user/project</text>
<text text-anchor="middle" x="1134" y="-84" font-family="Arial" font-size="10.00">/src/particle/baseParticle.h</text>
</a>
</g>
</g>
<!-- Node3&#45;&gt;Node14 -->
<g id="edge16_Node000003_Node000014" class="edge">
<title>Node3&#45;&gt;Node14</title>
<g id="a_edge16_Node000003_Node000014"><a xlink:title=" ">
<path fill="none" stroke="#63b8ff" d="M1165.64,-200.21C1161.15,-191.86 1156.42,-182.19 1153,-173 1144.68,-150.66 1139.13,-123.42 1136.28,-107.18"/>
<polygon fill="#63b8ff" stroke="#63b8ff" points="1162.6,-201.95 1170.52,-208.99 1168.72,-198.55 1162.6,-201.95"/>
</a>
</g>
</g>
<!-- Node16 -->
<g id="Node000016" class="node">
<title>Node16</title>
<g id="a_Node000016"><a xlink:href="vtkParticleReader_8cpp.html" target="_top" xlink:title=" ">
<polygon fill="white" stroke="#666666" points="1833,-35.5 1687,-35.5 1687,-5.5 1833,-5.5 1833,-35.5"/>
<text text-anchor="start" x="1695" y="-23.5" font-family="Arial" font-size="10.00">/home/user/project</text>
<text text-anchor="middle" x="1760" y="-12.5" font-family="Arial" font-size="10.00">/src/rw/vtkParticleReader.cpp</text>
</a>
</g>
</g>
<!-- Node3&#45;&gt;Node16 -->
<g id="edge31_Node000003_Node000016" class="edge">
<title>Node3&#45;&gt;Node16</title>
<g id="a_edge31_Node000003_Node000016"><a xlink:title=" ">
<path fill="none" stroke="#63b8ff" d="M1235.41,-206.01C1266.14,-196.6 1304.77,-184.5 1339,-173 1481.66,-125.06 1649.53,-62.91 1722.73,-35.51"/>
<polygon fill="#63b8ff" stroke="#63b8ff" points="1234.27,-202.7 1225.73,-208.97 1236.31,-209.4 1234.27,-202.7"/>
</a>
</g>
</g>
<!-- Node17 -->
<g id="Node000017" class="node">
<title>Node17</title>
<g id="a_Node000017"><a xlink:href="vtkParticleWriter_8cpp.html" target="_top" xlink:title=" ">
<polygon fill="white" stroke="#666666" points="1991,-35.5 1851,-35.5 1851,-5.5 1991,-5.5 1991,-35.5"/>
<text text-anchor="start" x="1859" y="-23.5" font-family="Arial" font-size="10.00">/home/user/project</text>
<text text-anchor="middle" x="1921" y="-12.5" font-family="Arial" font-size="10.00">/src/rw/vtkParticleWriter.cpp</text>
</a>
</g>
</g>
<!-- Node3&#45;&gt;Node17 -->
<g id="edge32_Node000003_Node000017" class="edge">
<title>Node3&#45;&gt;Node17</title>
<g id="a_edge32_Node000003_Node000017"><a xlink:title=" ">
<path fill="none" stroke="#63b8ff" d="M1249.77,-207.5C1291.81,-198.06 1346.1,-185.45 1394,-173 1572.98,-126.49 1783.77,-63.34 1875.05,-35.57"/>
<polygon fill="#63b8ff" stroke="#63b8ff" points="1248.9,-204.11 1239.91,-209.71 1250.43,-210.94 1248.9,-204.11"/>
</a>
</g>
</g>
<!-- Node19 -->
<g id="Node000019" class="node">
<title>Node19</title>
<g id="a_Node000019"><a xlink:href="refParticle_8h.html" target="_top" xlink:title=" ">
<polygon fill="white" stroke="#666666" points="1285.5,-173 1162.5,-173 1162.5,-143 1285.5,-143 1285.5,-173"/>
<text text-anchor="start" x="1170.5" y="-161" font-family="Arial" font-size="10.00">/home/user/project</text>
<text text-anchor="middle" x="1224" y="-150" font-family="Arial" font-size="10.00">/src/particle/refParticle.h</text>
</a>
</g>
</g>
<!-- Node3&#45;&gt;Node19 -->
<g id="edge28_Node000003_Node000019" class="edge">
<title>Node3&#45;&gt;Node19</title>
<g id="a_edge28_Node000003_Node000019"><a xlink:title=" ">
<path fill="none" stroke="#63b8ff" d="M1194.8,-200.53C1201.2,-191.43 1208.39,-181.19 1214.04,-173.16"/>
<polygon fill="#63b8ff" stroke="#63b8ff" points="1191.88,-198.6 1188.99,-208.8 1197.6,-202.63 1191.88,-198.6"/>
</a>
</g>
</g>
<!-- Node5 -->
<g id="Node000005" class="node">
<title>Node5</title>
<g id="a_Node000005"><a xlink:href="apps_2peridynamics_2main_8cpp.html" target="_top" xlink:title=" ">
<polygon fill="white" stroke="#666666" points="576,-35.5 432,-35.5 432,-5.5 576,-5.5 576,-35.5"/>
<text text-anchor="start" x="440" y="-23.5" font-family="Arial" font-size="10.00">/home/user/project</text>
<text text-anchor="middle" x="504" y="-12.5" font-family="Arial" font-size="10.00">/apps/peridynamics/main.cpp</text>
</a>
</g>
</g>
<!-- Node4&#45;&gt;Node5 -->
<g id="edge4_Node000004_Node000005" class="edge">
<title>Node4&#45;&gt;Node5</title>
<g id="a_edge4_Node000004_Node000005"><a xlink:title=" ">
<path fill="none" stroke="#63b8ff" d="M804.33,-79.63C744.58,-70.31 659.2,-56.2 585,-41 576.92,-39.35 568.43,-37.46 560.1,-35.53"/>
<polygon fill="#63b8ff" stroke="#63b8ff" points="804.02,-83.13 814.44,-81.2 805.09,-76.21 804.02,-83.13"/>
</a>
</g>
</g>
<!-- Node6 -->
<g id="Node000006" class="node">
<title>Node6</title>
<g id="a_Node000006"><a xlink:href="apps_2twoparticle__demo_2main_8cpp.html" target="_top" xlink:title=" ">
<polygon fill="white" stroke="#666666" points="714,-41 594,-41 594,0 714,0 714,-41"/>
<text text-anchor="start" x="602" y="-29" font-family="Arial" font-size="10.00">/home/user/project</text>
<text text-anchor="start" x="602" y="-18" font-family="Arial" font-size="10.00">/apps/twoparticle_demo</text>
<text text-anchor="middle" x="654" y="-7" font-family="Arial" font-size="10.00">/main.cpp</text>
</a>
</g>
</g>
<!-- Node4&#45;&gt;Node6 -->
<g id="edge5_Node000004_Node000006" class="edge">
<title>Node4&#45;&gt;Node6</title>
<g id="a_edge5_Node000004_Node000006"><a xlink:title=" ">
<path fill="none" stroke="#63b8ff" d="M824.65,-73.98C791.2,-63.69 748.54,-50.57 714.25,-40.03"/>
<polygon fill="#63b8ff" stroke="#63b8ff" points="823.68,-77.34 834.27,-76.94 825.74,-70.65 823.68,-77.34"/>
</a>
</g>
</g>
<!-- Node7 -->
<g id="Node000007" class="node">
<title>Node7</title>
<g id="a_Node000007"><a xlink:href="materialUtil_8cpp.html" target="_top" xlink:title=" ">
<polygon fill="white" stroke="#666666" points="1044,-35.5 902,-35.5 902,-5.5 1044,-5.5 1044,-35.5"/>
<text text-anchor="start" x="910" y="-23.5" font-family="Arial" font-size="10.00">/home/user/project</text>
<text text-anchor="middle" x="973" y="-12.5" font-family="Arial" font-size="10.00">/src/material/materialUtil.cpp</text>
</a>
</g>
</g>
<!-- Node4&#45;&gt;Node7 -->
<g id="edge6_Node000004_Node000007" class="edge">
<title>Node4&#45;&gt;Node7</title>
<g id="a_edge6_Node000004_Node000007"><a xlink:title=" ">
<path fill="none" stroke="#63b8ff" d="M906.84,-70.94C922.01,-59.6 940.6,-45.71 954.21,-35.54"/>
<polygon fill="#63b8ff" stroke="#63b8ff" points="904.74,-68.15 898.82,-76.94 908.93,-73.75 904.74,-68.15"/>
</a>
</g>
</g>
<!-- Node8 -->
<g id="Node000008" class="node">
<title>Node8</title>
<g id="a_Node000008"><a xlink:href="demModel_8cpp.html" target="_top" xlink:title=" ">
<polygon fill="white" stroke="#666666" points="883.5,-35.5 732.5,-35.5 732.5,-5.5 883.5,-5.5 883.5,-35.5"/>
<text text-anchor="start" x="740.5" y="-23.5" font-family="Arial" font-size="10.00">/home/user/project</text>
<text text-anchor="middle" x="808" y="-12.5" font-family="Arial" font-size="10.00">/src/model/dem/demModel.cpp</text>
</a>
</g>
</g>
<!-- Node4&#45;&gt;Node8 -->
<g id="edge7_Node000004_Node000008" class="edge">
<title>Node4&#45;&gt;Node8</title>
<g id="a_edge7_Node000004_Node000008"><a xlink:title=" ">
<path fill="none" stroke="#63b8ff" d="M858.23,-69.99C846.68,-58.84 832.79,-45.43 822.55,-35.54"/>
<polygon fill="#63b8ff" stroke="#63b8ff" points="855.8,-72.51 865.43,-76.94 860.67,-67.47 855.8,-72.51"/>
</a>
</g>
</g>
<!-- Node9 -->
<g id="Node000009" class="node">
<title>Node9</title>
<g id="a_Node000009"><a xlink:href="baseParticle_8cpp.html" target="_top" xlink:title=" ">
<polygon fill="white" stroke="#666666" points="1205.5,-35.5 1062.5,-35.5 1062.5,-5.5 1205.5,-5.5 1205.5,-35.5"/>
<text text-anchor="start" x="1070.5" y="-23.5" font-family="Arial" font-size="10.00">/home/user/project</text>
<text text-anchor="middle" x="1134" y="-12.5" font-family="Arial" font-size="10.00">/src/particle/baseParticle.cpp</text>
</a>
</g>
</g>
<!-- Node4&#45;&gt;Node9 -->
<g id="edge8_Node000004_Node000009" class="edge">
<title>Node4&#45;&gt;Node9</title>
<g id="a_edge8_Node000004_Node000009"><a xlink:title=" ">
<path fill="none" stroke="#63b8ff" d="M941.24,-74.24C984.5,-62.41 1041.81,-46.72 1082.68,-35.54"/>
<polygon fill="#63b8ff" stroke="#63b8ff" points="940.12,-70.92 931.4,-76.94 941.97,-77.67 940.12,-70.92"/>
</a>
</g>
</g>
<!-- Node10&#45;&gt;Node5 -->
<g id="edge10_Node000010_Node000005" class="edge">
<title>Node10&#45;&gt;Node5</title>
<g id="a_edge10_Node000010_Node000005"><a xlink:title=" ">
<path fill="none" stroke="#63b8ff" d="M556.33,-69.99C544.29,-58.84 529.82,-45.43 519.15,-35.54"/>
<polygon fill="#63b8ff" stroke="#63b8ff" points="554.11,-72.71 563.82,-76.94 558.87,-67.57 554.11,-72.71"/>
</a>
</g>
</g>
<!-- Node10&#45;&gt;Node6 -->
<g id="edge11_Node000010_Node000006" class="edge">
<title>Node10&#45;&gt;Node6</title>
<g id="a_edge11_Node000010_Node000006"><a xlink:title=" ">
<path fill="none" stroke="#63b8ff" d="M601.7,-69.96C611.61,-60.78 623.16,-50.08 632.88,-41.07"/>
<polygon fill="#63b8ff" stroke="#63b8ff" points="599.13,-67.57 594.18,-76.94 603.89,-72.71 599.13,-67.57"/>
</a>
</g>
</g>
<!-- Node10&#45;&gt;Node8 -->
<g id="edge13_Node000010_Node000008" class="edge">
<title>Node10&#45;&gt;Node8</title>
<g id="a_edge13_Node000010_Node000008"><a xlink:title=" ">
<path fill="none" stroke="#63b8ff" d="M634.95,-74.02C673.86,-62.21 725.12,-46.65 761.73,-35.54"/>
<polygon fill="#63b8ff" stroke="#63b8ff" points="633.89,-70.68 625.34,-76.94 635.93,-77.38 633.89,-70.68"/>
</a>
</g>
</g>
<!-- Node11 -->
<g id="Node000011" class="node">
<title>Node11</title>
<g id="a_Node000011"><a xlink:href="src_2main_8cpp.html" target="_top" xlink:title=" ">
<polygon fill="white" stroke="#666666" points="276,-35.5 178,-35.5 178,-5.5 276,-5.5 276,-35.5"/>
<text text-anchor="start" x="186" y="-23.5" font-family="Arial" font-size="10.00">/home/user/project</text>
<text text-anchor="middle" x="227" y="-12.5" font-family="Arial" font-size="10.00">/src/main.cpp</text>
</a>
</g>
</g>
<!-- Node10&#45;&gt;Node11 -->
<g id="edge12_Node000010_Node000011" class="edge">
<title>Node10&#45;&gt;Node11</title>
<g id="a_edge12_Node000010_Node000011"><a xlink:title=" ">
<path fill="none" stroke="#63b8ff" d="M498.78,-80.8C439.27,-72.41 356.43,-58.97 285,-41 278.82,-39.45 272.35,-37.55 266.06,-35.55"/>
<polygon fill="#63b8ff" stroke="#63b8ff" points="498.47,-84.29 508.86,-82.21 499.44,-77.36 498.47,-84.29"/>
</a>
</g>
</g>
<!-- Node12 -->
<g id="Node000012" class="node">
<title>Node12</title>
<g id="a_Node000012"><a xlink:href="testPeriDEMLib_8cpp.html" target="_top" xlink:title=" ">
<polygon fill="white" stroke="#666666" points="413.5,-41 294.5,-41 294.5,0 413.5,0 413.5,-41"/>
<text text-anchor="start" x="302.5" y="-29" font-family="Arial" font-size="10.00">/home/user/project</text>
<text text-anchor="start" x="302.5" y="-18" font-family="Arial" font-size="10.00">/test/test_exec/peridem</text>
<text text-anchor="middle" x="354" y="-7" font-family="Arial" font-size="10.00">/testPeriDEMLib.cpp</text>
</a>
</g>
</g>
<!-- Node10&#45;&gt;Node12 -->
<g id="edge14_Node000010_Node000012" class="edge">
<title>Node10&#45;&gt;Node12</title>
<g id="a_edge14_Node000010_Node000012"><a xlink:title=" ">
<path fill="none" stroke="#63b8ff" d="M523.85,-73.97C490.42,-63.64 447.76,-50.46 413.56,-39.9"/>
<polygon fill="#63b8ff" stroke="#63b8ff" points="522.88,-77.33 533.47,-76.94 524.95,-70.64 522.88,-77.33"/>
</a>
</g>
</g>
<!-- Node14&#45;&gt;Node2 -->
<g id="edge19_Node000014_Node000002" class="edge">
<title>Node14&#45;&gt;Node2</title>
<g id="a_edge19_Node000014_Node000002"><a xlink:title=" ">
<path fill="none" stroke="#63b8ff" d="M1057.2,-84.49C1025.3,-81.92 987.88,-79.09 954,-77 605.41,-55.46 515.27,-86.54 169,-41 158.65,-39.64 147.72,-37.68 137.2,-35.53"/>
<polygon fill="#63b8ff" stroke="#63b8ff" points="1057.11,-87.99 1067.36,-85.31 1057.67,-81.01 1057.11,-87.99"/>
</a>
</g>
</g>
<!-- Node14&#45;&gt;Node5 -->
<g id="edge17_Node000014_Node000005" class="edge">
<title>Node14&#45;&gt;Node5</title>
<g id="a_edge17_Node000014_Node000005"><a xlink:title=" ">
<path fill="none" stroke="#63b8ff" d="M1057.13,-84.62C917.04,-72.91 630.37,-48.49 585,-41 576.01,-39.52 566.54,-37.58 557.37,-35.51"/>
<polygon fill="#63b8ff" stroke="#63b8ff" points="1057.11,-88.14 1067.37,-85.48 1057.7,-81.16 1057.11,-88.14"/>
</a>
</g>
</g>
<!-- Node14&#45;&gt;Node6 -->
<g id="edge18_Node000014_Node000006" class="edge">
<title>Node14&#45;&gt;Node6</title>
<g id="a_edge18_Node000014_Node000006"><a xlink:title=" ">
<path fill="none" stroke="#63b8ff" d="M1057.19,-85.22C974.2,-78.15 838.34,-64.17 723,-41 720.07,-40.41 717.08,-39.76 714.08,-39.07"/>
<polygon fill="#63b8ff" stroke="#63b8ff" points="1057.04,-88.72 1067.3,-86.07 1057.62,-81.75 1057.04,-88.72"/>
</a>
</g>
</g>
<!-- Node14&#45;&gt;Node7 -->
<g id="edge21_Node000014_Node000007" class="edge">
<title>Node14&#45;&gt;Node7</title>
<g id="a_edge21_Node000014_Node000007"><a xlink:title=" ">
<path fill="none" stroke="#63b8ff" d="M1092.21,-72.96C1065.18,-61.29 1030.51,-46.32 1005.53,-35.54"/>
<polygon fill="#63b8ff" stroke="#63b8ff" points="1090.85,-76.19 1101.42,-76.94 1093.63,-69.76 1090.85,-76.19"/>
</a>
</g>
</g>
<!-- Node14&#45;&gt;Node8 -->
<g id="edge22_Node000014_Node000008" class="edge">
<title>Node14&#45;&gt;Node8</title>
<g id="a_edge22_Node000014_Node000008"><a xlink:title=" ">
<path fill="none" stroke="#63b8ff" d="M1057.54,-75.56C1010.12,-65.88 947.95,-53 893,-41 885.01,-39.26 876.61,-37.38 868.33,-35.5"/>
<polygon fill="#63b8ff" stroke="#63b8ff" points="1056.93,-79.01 1067.43,-77.58 1058.33,-72.15 1056.93,-79.01"/>
</a>
</g>
</g>
<!-- Node14&#45;&gt;Node9 -->
<g id="edge24_Node000014_Node000009" class="edge">
<title>Node14&#45;&gt;Node9</title>
<g id="a_edge24_Node000014_Node000009"><a xlink:title=" ">
<path fill="none" stroke="#63b8ff" d="M1134,-66.75C1134,-56.31 1134,-44.49 1134,-35.54"/>
<polygon fill="#63b8ff" stroke="#63b8ff" points="1130.5,-66.94 1134,-76.94 1137.5,-66.94 1130.5,-66.94"/>
</a>
</g>
</g>
<!-- Node14&#45;&gt;Node13 -->
<g id="edge23_Node000014_Node000013" class="edge">
<title>Node14&#45;&gt;Node13</title>
<g id="a_edge23_Node000014_Node000013"><a xlink:title=" ">
<path fill="none" stroke="#63b8ff" d="M1210.62,-76.99C1352.43,-56.57 1391.29,-66.38 1528,-41 1536.07,-39.5 1544.55,-37.61 1552.79,-35.6"/>
<polygon fill="#63b8ff" stroke="#63b8ff" points="1210.07,-73.53 1200.68,-78.45 1211.09,-80.46 1210.07,-73.53"/>
</a>
</g>
</g>
<!-- Node15 -->
<g id="Node000015" class="node">
<title>Node15</title>
<g id="a_Node000015"><a xlink:href="particleULoading_8cpp.html" target="_top" xlink:title=" ">
<polygon fill="white" stroke="#666666" points="1384.5,-35.5 1223.5,-35.5 1223.5,-5.5 1384.5,-5.5 1384.5,-35.5"/>
<text text-anchor="start" x="1231.5" y="-23.5" font-family="Arial" font-size="10.00">/home/user/project</text>
<text text-anchor="middle" x="1304" y="-12.5" font-family="Arial" font-size="10.00">/src/loading/particleULoading.cpp</text>
</a>
</g>
</g>
<!-- Node14&#45;&gt;Node15 -->
<g id="edge20_Node000014_Node000015" class="edge">
<title>Node14&#45;&gt;Node15</title>
<g id="a_edge20_Node000014_Node000015"><a xlink:title=" ">
<path fill="none" stroke="#63b8ff" d="M1177.76,-73.11C1206.35,-61.42 1243.16,-46.37 1269.65,-35.54"/>
<polygon fill="#63b8ff" stroke="#63b8ff" points="1176.33,-69.91 1168.4,-76.94 1178.98,-76.39 1176.33,-69.91"/>
</a>
</g>
</g>
<!-- Node14&#45;&gt;Node16 -->
<g id="edge25_Node000014_Node000016" class="edge">
<title>Node14&#45;&gt;Node16</title>
<g id="a_edge25_Node000014_Node000016"><a xlink:title=" ">
<path fill="none" stroke="#63b8ff" d="M1210.68,-77.02C1418.62,-50.78 1475.11,-72.73 1678,-41 1687.25,-39.55 1697,-37.61 1706.43,-35.51"/>
<polygon fill="#63b8ff" stroke="#63b8ff" points="1210.14,-73.56 1200.67,-78.31 1211.03,-80.51 1210.14,-73.56"/>
</a>
</g>
</g>
<!-- Node14&#45;&gt;Node17 -->
<g id="edge26_Node000014_Node000017" class="edge">
<title>Node14&#45;&gt;Node17</title>
<g id="a_edge26_Node000014_Node000017"><a xlink:title=" ">
<path fill="none" stroke="#63b8ff" d="M1210.72,-77.04C1491.11,-44.36 1567.05,-82.4 1842,-41 1851.08,-39.63 1860.64,-37.7 1869.86,-35.58"/>
<polygon fill="#63b8ff" stroke="#63b8ff" points="1210.17,-73.58 1200.66,-78.23 1211,-80.53 1210.17,-73.58"/>
</a>
</g>
</g>
<!-- Node18 -->
<g id="Node000018" class="node">
<title>Node18</title>
<g id="a_Node000018"><a xlink:href="testParticleLib_8cpp.html" target="_top" xlink:title=" ">
<polygon fill="white" stroke="#666666" points="1519,-41 1403,-41 1403,0 1519,0 1519,-41"/>
<text text-anchor="start" x="1411" y="-29" font-family="Arial" font-size="10.00">/home/user/project</text>
<text text-anchor="start" x="1411" y="-18" font-family="Arial" font-size="10.00">/test/test_exec/particle</text>
<text text-anchor="middle" x="1461" y="-7" font-family="Arial" font-size="10.00">/testParticleLib.cpp</text>
</a>
</g>
</g>
<!-- Node14&#45;&gt;Node18 -->
<g id="edge27_Node000014_Node000018" class="edge">
<title>Node14&#45;&gt;Node18</title>
<g id="a_edge27_Node000014_Node000018"><a xlink:title=" ">
<path fill="none" stroke="#63b8ff" d="M1210.77,-76.61C1280.9,-63.41 1376.3,-45.27 1394,-41 1396.94,-40.29 1399.95,-39.53 1402.98,-38.74"/>
<polygon fill="#63b8ff" stroke="#63b8ff" points="1209.8,-73.23 1200.61,-78.52 1211.09,-80.11 1209.8,-73.23"/>
</a>
</g>
</g>
<!-- Node19&#45;&gt;Node14 -->
<g id="edge29_Node000019_Node000014" class="edge">
<title>Node19&#45;&gt;Node14</title>
<g id="a_edge29_Node000019_Node000014"><a xlink:title=" ">
<path fill="none" stroke="#63b8ff" d="M1195.53,-136.75C1181.99,-127.13 1166.14,-115.86 1153.92,-107.16"/>
<polygon fill="#63b8ff" stroke="#63b8ff" points="1193.85,-139.85 1204.03,-142.8 1197.9,-134.15 1193.85,-139.85"/>
</a>
</g>
</g>
<!-- Node20 -->
<g id="Node000020" class="node">
<title>Node20</title>
<g id="a_Node000020"><a xlink:href="refParticle_8cpp.html" target="_top" xlink:title=" ">
<polygon fill="white" stroke="#666666" points="1353,-107 1219,-107 1219,-77 1353,-77 1353,-107"/>
<text text-anchor="start" x="1227" y="-95" font-family="Arial" font-size="10.00">/home/user/project</text>
<text text-anchor="middle" x="1286" y="-84" font-family="Arial" font-size="10.00">/src/particle/refParticle.cpp</text>
</a>
</g>
</g>
<!-- Node19&#45;&gt;Node20 -->
<g id="edge30_Node000019_Node000020" class="edge">
<title>Node19&#45;&gt;Node20</title>
<g id="a_edge30_Node000019_Node000020"><a xlink:title=" ">
<path fill="none" stroke="#63b8ff" d="M1244.96,-135.37C1253.97,-126.06 1264.26,-115.44 1272.28,-107.16"/>
<polygon fill="#63b8ff" stroke="#63b8ff" points="1242.2,-133.18 1237.76,-142.8 1247.23,-138.05 1242.2,-133.18"/>
</a>
</g>
</g>
</g>
</svg>
