<?xml version="1.0" encoding="UTF-8" standalone="no"?>
<!DOCTYPE svg PUBLIC "-//W3C//DTD SVG 1.1//EN"
 "http://www.w3.org/Graphics/SVG/1.1/DTD/svg11.dtd">
<!-- Generated by graphviz version 2.43.0 (0)
 -->
<!-- Title: /home/user/project/src/inp/pdecks/pBCData.h Pages: 1 -->
<svg width="472pt" height="313pt"
 viewBox="0.00 0.00 471.50 313.00" xmlns="http://www.w3.org/2000/svg" xmlns:xlink="http://www.w3.org/1999/xlink">
<g id="graph0" class="graph" transform="scale(1 1) rotate(0) translate(4 309)">
<title>/home/user/project/src/inp/pdecks/pBCData.h</title>
<!-- Node1 -->
<g id="Node000001" class="node">
<title>Node1</title>
<g id="a_Node000001"><a xlink:title=" ">
<polygon fill="#999999" stroke="#666666" points="277.5,-305 142.5,-305 142.5,-275 277.5,-275 277.5,-305"/>
<text text-anchor="start" x="150.5" y="-293" font-family="Arial" font-size="10.00">/home/user/project</text>
<text text-anchor="middle" x="210" y="-282" font-family="Arial" font-size="10.00">/src/inp/pdecks/pBCData.h</text>
</a>
</g>
</g>
<!-- Node2 -->
<g id="Node000002" class="node">
<title>Node2</title>
<g id="a_Node000002"><a xlink:href="geomObjectsUtil_8h.html" target="_top" xlink:title=" ">
<polygon fill="white" stroke="#666666" points="266.5,-239 153.5,-239 153.5,-220 266.5,-220 266.5,-239"/>
<text text-anchor="middle" x="210" y="-227" font-family="Arial" font-size="10.00">util/geomObjectsUtil.h</text>
</a>
</g>
</g>
<!-- Node1&#45;&gt;Node2 -->
<g id="edge1_Node000001_Node000002" class="edge">
<title>Node1&#45;&gt;Node2</title>
<g id="a_edge1_Node000001_Node000002"><a xlink:title=" ">
<path fill="none" stroke="#63b8ff" d="M210,-274.84C210,-267.21 210,-257.7 210,-249.45"/>
<polygon fill="#63b8ff" stroke="#63b8ff" points="213.5,-249.27 210,-239.27 206.5,-249.27 213.5,-249.27"/>
</a>
</g>
</g>
<!-- Node3 -->
<g id="Node000003" class="node">
<title>Node3</title>
<g id="a_Node000003"><a xlink:href="geomObjects_8h.html" target="_top" xlink:title=" ">
<polygon fill="white" stroke="#666666" points="251.5,-184 168.5,-184 168.5,-165 251.5,-165 251.5,-184"/>
<text text-anchor="middle" x="210" y="-172" font-family="Arial" font-size="10.00">geomObjects.h</text>
</a>
</g>
</g>
<!-- Node2&#45;&gt;Node3 -->
<g id="edge2_Node000002_Node000003" class="edge">
<title>Node2&#45;&gt;Node3</title>
<g id="a_edge2_Node000002_Node000003"><a xlink:title=" ">
<path fill="none" stroke="#63b8ff" d="M210,-219.75C210,-212.8 210,-202.85 210,-194.13"/>
<polygon fill="#63b8ff" stroke="#63b8ff" points="213.5,-194.09 210,-184.09 206.5,-194.09 213.5,-194.09"/>
</a>
</g>
</g>
<!-- Node4 -->
<g id="Node000004" class="node">
<title>Node4</title>
<g id="a_Node000004"><a xlink:title=" ">
<polygon fill="#e0e0e0" stroke="#999999" points="54,-19 0,-19 0,0 54,0 54,-19"/>
<text text-anchor="middle" x="27" y="-7" font-family="Arial" font-size="10.00">iostream</text>
</a>
</g>
</g>
<!-- Node3&#45;&gt;Node4 -->
<g id="edge3_Node000003_Node000004" class="edge">
<title>Node3&#45;&gt;Node4</title>
<g id="a_edge3_Node000003_Node000004"><a xlink:title=" ">
<path fill="none" stroke="#63b8ff" d="M168.26,-170.65C134.73,-166.36 88.26,-155.66 57,-129 28.02,-104.29 24.93,-56 25.67,-29.32"/>
<polygon fill="#63b8ff" stroke="#63b8ff" points="29.18,-29.21 26.18,-19.05 22.19,-28.86 29.18,-29.21"/>
</a>
</g>
</g>
<!-- Node5 -->
<g id="Node000005" class="node">
<title>Node5</title>
<g id="a_Node000005"><a xlink:title=" ">
<polygon fill="#e0e0e0" stroke="#999999" points="106,-129 66,-129 66,-110 106,-110 106,-129"/>
<text text-anchor="middle" x="86" y="-117" font-family="Arial" font-size="10.00">utility</text>
</a>
</g>
</g>
<!-- Node3&#45;&gt;Node5 -->
<g id="edge4_Node000003_Node000005" class="edge">
<title>Node3&#45;&gt;Node5</title>
<g id="a_edge4_Node000003_Node000005"><a xlink:title=" ">
<path fill="none" stroke="#63b8ff" d="M190.08,-164.98C169.95,-156.38 138.62,-142.99 115.59,-133.15"/>
<polygon fill="#63b8ff" stroke="#63b8ff" points="116.86,-129.88 106.29,-129.17 114.1,-136.32 116.86,-129.88"/>
</a>
</g>
</g>
<!-- Node6 -->
<g id="Node000006" class="node">
<title>Node6</title>
<g id="a_Node000006"><a xlink:title=" ">
<polygon fill="#e0e0e0" stroke="#999999" points="176,-129 124,-129 124,-110 176,-110 176,-129"/>
<text text-anchor="middle" x="150" y="-117" font-family="Arial" font-size="10.00">memory</text>
</a>
</g>
</g>
<!-- Node3&#45;&gt;Node6 -->
<g id="edge5_Node000003_Node000006" class="edge">
<title>Node3&#45;&gt;Node6</title>
<g id="a_edge5_Node000003_Node000006"><a xlink:title=" ">
<path fill="none" stroke="#63b8ff" d="M200.36,-164.98C191.49,-157.15 178.13,-145.34 167.39,-135.86"/>
<polygon fill="#63b8ff" stroke="#63b8ff" points="169.63,-133.17 159.82,-129.17 164.99,-138.41 169.63,-133.17"/>
</a>
</g>
</g>
<!-- Node7 -->
<g id="Node000007" class="node">
<title>Node7</title>
<g id="a_Node000007"><a xlink:href="function_8h.html" target="_top" xlink:title=" ">
<polygon fill="white" stroke="#666666" points="463.5,-129 404.5,-129 404.5,-110 463.5,-110 463.5,-129"/>
<text text-anchor="middle" x="434" y="-117" font-family="Arial" font-size="10.00">function.h</text>
</a>
</g>
</g>
<!-- Node3&#45;&gt;Node7 -->
<g id="edge6_Node000003_Node000007" class="edge">
<title>Node3&#45;&gt;Node7</title>
<g id="a_edge6_Node000003_Node000007"><a xlink:title=" ">
<path fill="none" stroke="#63b8ff" d="M245.99,-164.98C286.55,-155.39 352.29,-139.83 394.31,-129.89"/>
<polygon fill="#63b8ff" stroke="#63b8ff" points="395.27,-133.26 404.19,-127.55 393.65,-126.45 395.27,-133.26"/>
</a>
</g>
</g>
<!-- Node8 -->
<g id="Node000008" class="node">
<title>Node8</title>
<g id="a_Node000008"><a xlink:href="point_8h.html" target="_top" xlink:title=" ">
<polygon fill="#fff0f0" stroke="red" points="371,-74 325,-74 325,-55 371,-55 371,-74"/>
<text text-anchor="middle" x="348" y="-62" font-family="Arial" font-size="10.00">point.h</text>
</a>
</g>
</g>
<!-- Node3&#45;&gt;Node8 -->
<g id="edge19_Node000003_Node000008" class="edge">
<title>Node3&#45;&gt;Node8</title>
<g id="a_edge19_Node000003_Node000008"><a xlink:title=" ">
<path fill="none" stroke="#63b8ff" d="M220.82,-164.82C236.16,-152.53 265.12,-129.42 290,-110 302.63,-100.14 316.91,-89.18 328.14,-80.61"/>
<polygon fill="#63b8ff" stroke="#63b8ff" points="330.57,-83.16 336.4,-74.31 326.33,-77.59 330.57,-83.16"/>
</a>
</g>
</g>
<!-- Node13 -->
<g id="Node000013" class="node">
<title>Node13</title>
<g id="a_Node000013"><a xlink:href="io_8h.html" target="_top" xlink:title=" ">
<polygon fill="white" stroke="#666666" points="226,-129 194,-129 194,-110 226,-110 226,-129"/>
<text text-anchor="middle" x="210" y="-117" font-family="Arial" font-size="10.00">io.h</text>
</a>
</g>
</g>
<!-- Node3&#45;&gt;Node13 -->
<g id="edge11_Node000003_Node000013" class="edge">
<title>Node3&#45;&gt;Node13</title>
<g id="a_edge11_Node000003_Node000013"><a xlink:title=" ">
<path fill="none" stroke="#63b8ff" d="M210,-164.75C210,-157.8 210,-147.85 210,-139.13"/>
<polygon fill="#63b8ff" stroke="#63b8ff" points="213.5,-139.09 210,-129.09 206.5,-139.09 213.5,-139.09"/>
</a>
</g>
</g>
<!-- Node20 -->
<g id="Node000020" class="node">
<title>Node20</title>
<g id="a_Node000020"><a xlink:href="transformation_8h.html" target="_top" xlink:title=" ">
<polygon fill="white" stroke="#666666" points="386.5,-129 299.5,-129 299.5,-110 386.5,-110 386.5,-129"/>
<text text-anchor="middle" x="343" y="-117" font-family="Arial" font-size="10.00">transformation.h</text>
</a>
</g>
</g>
<!-- Node3&#45;&gt;Node20 -->
<g id="edge20_Node000003_Node000020" class="edge">
<title>Node3&#45;&gt;Node20</title>
<g id="a_edge20_Node000003_Node000020"><a xlink:title=" ">
<path fill="none" stroke="#63b8ff" d="M231.37,-164.98C253.15,-156.3 287.16,-142.75 311.92,-132.88"/>
<polygon fill="#63b8ff" stroke="#63b8ff" points="313.25,-136.12 321.24,-129.17 310.66,-129.62 313.25,-136.12"/>
</a>
</g>
</g>
<!-- Node7&#45;&gt;Node8 -->
<g id="edge7_Node000007_Node000008" class="edge">
<title>Node7&#45;&gt;Node8</title>
<g id="a_edge7_Node000007_Node000008"><a xlink:title=" ">
<path fill="none" stroke="#63b8ff" d="M420.18,-109.98C406.85,-101.77 386.42,-89.18 370.69,-79.49"/>
<polygon fill="#63b8ff" stroke="#63b8ff" points="372.42,-76.44 362.07,-74.17 368.75,-82.4 372.42,-76.44"/>
</a>
</g>
</g>
<!-- Node12 -->
<g id="Node000012" class="node">
<title>Node12</title>
<g id="a_Node000012"><a xlink:title=" ">
<polygon fill="#e0e0e0" stroke="#999999" points="370,-19 326,-19 326,0 370,0 370,-19"/>
<text text-anchor="middle" x="348" y="-7" font-family="Arial" font-size="10.00">vector</text>
</a>
</g>
</g>
<!-- Node7&#45;&gt;Node12 -->
<g id="edge10_Node000007_Node000012" class="edge">
<title>Node7&#45;&gt;Node12</title>
<g id="a_edge10_Node000007_Node000012"><a xlink:title=" ">
<path fill="none" stroke="#63b8ff" d="M429.43,-109.85C422.55,-97.2 408.78,-73.21 394,-55 385.53,-44.57 374.79,-34.06 365.82,-25.87"/>
<polygon fill="#63b8ff" stroke="#63b8ff" points="367.99,-23.12 358.2,-19.08 363.33,-28.34 367.99,-23.12"/>
</a>
</g>
</g>
<!-- Node8&#45;&gt;Node4 -->
<g id="edge8_Node000008_Node000004" class="edge">
<title>Node8&#45;&gt;Node4</title>
<g id="a_edge8_Node000008_Node000004"><a xlink:title=" ">
<path fill="none" stroke="#63b8ff" d="M324.99,-57.26C321.65,-56.45 318.25,-55.67 315,-55 225.61,-36.63 119.21,-22.05 64.15,-15.05"/>
<polygon fill="#63b8ff" stroke="#63b8ff" points="64.52,-11.57 54.16,-13.79 63.64,-18.51 64.52,-11.57"/>
</a>
</g>
</g>
<!-- Node8&#45;&gt;Node12 -->
<g id="edge9_Node000008_Node000012" class="edge">
<title>Node8&#45;&gt;Node12</title>
<g id="a_edge9_Node000008_Node000012"><a xlink:title=" ">
<path fill="none" stroke="#63b8ff" d="M348,-54.75C348,-47.8 348,-37.85 348,-29.13"/>
<polygon fill="#63b8ff" stroke="#63b8ff" points="351.5,-29.09 348,-19.09 344.5,-29.09 351.5,-29.09"/>
</a>
</g>
</g>
<!-- Node13&#45;&gt;Node4 -->
<g id="edge16_Node000013_Node000004" class="edge">
<title>Node13&#45;&gt;Node4</title>
<g id="a_edge16_Node000013_Node000004"><a xlink:title=" ">
<path fill="none" stroke="#63b8ff" d="M193.92,-112.84C190.96,-111.85 187.9,-110.87 185,-110 123.86,-91.72 91.96,-118.28 46,-74 33.97,-62.41 29.47,-43.54 27.83,-29.38"/>
<polygon fill="#63b8ff" stroke="#63b8ff" points="31.31,-28.95 27.04,-19.26 24.33,-29.5 31.31,-28.95"/>
</a>
</g>
</g>
<!-- Node13&#45;&gt;Node8 -->
<g id="edge12_Node000013_Node000008" class="edge">
<title>Node13&#45;&gt;Node8</title>
<g id="a_edge12_Node000013_Node000008"><a xlink:title=" ">
<path fill="none" stroke="#63b8ff" d="M226.1,-112.32C248.11,-103.86 288.05,-88.52 316.21,-77.71"/>
<polygon fill="#63b8ff" stroke="#63b8ff" points="317.54,-80.95 325.63,-74.09 315.04,-74.41 317.54,-80.95"/>
</a>
</g>
</g>
<!-- Node13&#45;&gt;Node12 -->
<g id="edge17_Node000013_Node000012" class="edge">
<title>Node13&#45;&gt;Node12</title>
<g id="a_edge17_Node000013_Node000012"><a xlink:title=" ">
<path fill="none" stroke="#63b8ff" d="M209.76,-109.94C209.85,-96.54 211.99,-70.53 226,-55 249.03,-29.47 287.92,-18.56 315.6,-13.92"/>
<polygon fill="#63b8ff" stroke="#63b8ff" points="316.23,-17.36 325.6,-12.43 315.2,-10.44 316.23,-17.36"/>
</a>
</g>
</g>
<!-- Node14 -->
<g id="Node000014" class="node">
<title>Node14</title>
<g id="a_Node000014"><a xlink:href="parallelUtil_8h.html" target="_top" xlink:title=" ">
<polygon fill="#fff0f0" stroke="red" points="306.5,-74 235.5,-74 235.5,-55 306.5,-55 306.5,-74"/>
<text text-anchor="middle" x="271" y="-62" font-family="Arial" font-size="10.00">parallelUtil.h</text>
</a>
</g>
</g>
<!-- Node13&#45;&gt;Node14 -->
<g id="edge13_Node000013_Node000014" class="edge">
<title>Node13&#45;&gt;Node14</title>
<g id="a_edge13_Node000013_Node000014"><a xlink:title=" ">
<path fill="none" stroke="#63b8ff" d="M219.8,-109.98C228.82,-102.15 242.41,-90.34 253.32,-80.86"/>
<polygon fill="#63b8ff" stroke="#63b8ff" points="255.77,-83.37 261.02,-74.17 251.18,-78.09 255.77,-83.37"/>
</a>
</g>
</g>
<!-- Node18 -->
<g id="Node000018" class="node">
<title>Node18</title>
<g id="a_Node000018"><a xlink:title=" ">
<polygon fill="#e0e0e0" stroke="#999999" points="179,-74 129,-74 129,-55 179,-55 179,-74"/>
<text text-anchor="middle" x="154" y="-62" font-family="Arial" font-size="10.00">fstream</text>
</a>
</g>
</g>
<!-- Node13&#45;&gt;Node18 -->
<g id="edge15_Node000013_Node000018" class="edge">
<title>Node13&#45;&gt;Node18</title>
<g id="a_edge15_Node000013_Node000018"><a xlink:title=" ">
<path fill="none" stroke="#63b8ff" d="M201,-109.98C192.81,-102.23 180.49,-90.58 170.53,-81.14"/>
<polygon fill="#63b8ff" stroke="#63b8ff" points="172.83,-78.5 163.16,-74.17 168.02,-83.59 172.83,-78.5"/>
</a>
</g>
</g>
<!-- Node19 -->
<g id="Node000019" class="node">
<title>Node19</title>
<g id="a_Node000019"><a xlink:title=" ">
<polygon fill="#e0e0e0" stroke="#999999" points="111,-74 55,-74 55,-55 111,-55 111,-74"/>
<text text-anchor="middle" x="83" y="-62" font-family="Arial" font-size="10.00">algorithm</text>
</a>
</g>
</g>
<!-- Node13&#45;&gt;Node19 -->
<g id="edge18_Node000013_Node000019" class="edge">
<title>Node13&#45;&gt;Node19</title>
<g id="a_edge18_Node000013_Node000019"><a xlink:title=" ">
<path fill="none" stroke="#63b8ff" d="M193.92,-111.79C173.65,-103.33 138.4,-88.62 113.07,-78.05"/>
<polygon fill="#63b8ff" stroke="#63b8ff" points="114.15,-74.71 103.57,-74.09 111.45,-81.17 114.15,-74.71"/>
</a>
</g>
</g>
<!-- Node14&#45;&gt;Node12 -->
<g id="edge14_Node000014_Node000012" class="edge">
<title>Node14&#45;&gt;Node12</title>
<g id="a_edge14_Node000014_Node000012"><a xlink:title=" ">
<path fill="none" stroke="#63b8ff" d="M283.37,-54.98C295.09,-46.92 312.92,-34.65 326.89,-25.03"/>
<polygon fill="#63b8ff" stroke="#63b8ff" points="329.15,-27.72 335.4,-19.17 325.18,-21.96 329.15,-27.72"/>
</a>
</g>
</g>
<!-- Node20&#45;&gt;Node8 -->
<g id="edge21_Node000020_Node000008" class="edge">
<title>Node20&#45;&gt;Node8</title>
<g id="a_edge21_Node000020_Node000008"><a xlink:title=" ">
<path fill="none" stroke="#63b8ff" d="M343.83,-109.75C344.48,-102.8 345.42,-92.85 346.24,-84.13"/>
<polygon fill="#63b8ff" stroke="#63b8ff" points="349.73,-84.37 347.19,-74.09 342.77,-83.72 349.73,-84.37"/>
</a>
</g>
</g>
<!-- Node20&#45;&gt;Node12 -->
<g id="edge22_Node000020_Node000012" class="edge">
<title>Node20&#45;&gt;Node12</title>
<g id="a_edge22_Node000020_Node000012"><a xlink:title=" ">
<path fill="none" stroke="#63b8ff" d="M353.44,-109.87C362.42,-101.7 374.74,-88.55 380,-74 386.06,-57.24 375.11,-39.19 364.4,-26.63"/>
<polygon fill="#63b8ff" stroke="#63b8ff" points="366.94,-24.22 357.59,-19.24 361.79,-28.96 366.94,-24.22"/>
</a>
</g>
</g>
</g>
</svg>
