<?xml version="1.0" encoding="UTF-8" standalone="no"?>
<!DOCTYPE svg PUBLIC "-//W3C//DTD SVG 1.1//EN"
 "http://www.w3.org/Graphics/SVG/1.1/DTD/svg11.dtd">
<!-- Generated by graphviz version 2.43.0 (0)
 -->
<!-- Title: /home/user/project/src/inp/pdecks/pICDeck.h Pages: 1 -->
<svg width="679pt" height="441pt"
 viewBox="0.00 0.00 678.50 441.00" xmlns="http://www.w3.org/2000/svg" xmlns:xlink="http://www.w3.org/1999/xlink">
<g id="graph0" class="graph" transform="scale(1 1) rotate(0) translate(4 437)">
<title>/home/user/project/src/inp/pdecks/pICDeck.h</title>
<!-- Node1 -->
<g id="node1" class="node">
<title>Node1</title>
<g id="a_node1"><a xlink:title=" ">
<polygon fill="#bfbfbf" stroke="black" points="116,-402.5 116,-432.5 250,-432.5 250,-402.5 116,-402.5"/>
<text text-anchor="start" x="124" y="-420.5" font-family="Arial" font-size="10.00">/home/user/project</text>
<text text-anchor="middle" x="183" y="-409.5" font-family="Arial" font-size="10.00">/src/inp/pdecks/pICDeck.h</text>
</a>
</g>
</g>
<!-- Node2 -->
<g id="node2" class="node">
<title>Node2</title>
<g id="a_node2"><a xlink:href="particleDeck_8h.html" target="_top" xlink:title=" ">
<polygon fill="none" stroke="black" points="108.5,-335.5 108.5,-365.5 257.5,-365.5 257.5,-335.5 108.5,-335.5"/>
<text text-anchor="start" x="116.5" y="-353.5" font-family="Arial" font-size="10.00">/home/user/project</text>
<text text-anchor="middle" x="183" y="-342.5" font-family="Arial" font-size="10.00">/src/inp/pdecks/particleDeck.h</text>
</a>
</g>
</g>
<!-- Node1&#45;&gt;Node2 -->
<g id="edge1" class="edge">
<title>Node1&#45;&gt;Node2</title>
<path fill="none" stroke="midnightblue" d="M183,-392.11C183,-383.15 183,-373.32 183,-365.58"/>
<polygon fill="midnightblue" stroke="midnightblue" points="179.5,-392.4 183,-402.4 186.5,-392.4 179.5,-392.4"/>
</g>
<!-- Node3 -->
<g id="node3" class="node">
<title>Node3</title>
<g id="a_node3"><a xlink:href="input_8cpp.html" target="_top" xlink:title=" ">
<polygon fill="none" stroke="black" points="0,-268.5 0,-298.5 98,-298.5 98,-268.5 0,-268.5"/>
<text text-anchor="start" x="8" y="-286.5" font-family="Arial" font-size="10.00">/home/user/project</text>
<text text-anchor="middle" x="49" y="-275.5" font-family="Arial" font-size="10.00">/src/inp/input.cpp</text>
</a>
</g>
</g>
<!-- Node2&#45;&gt;Node3 -->
<g id="edge2" class="edge">
<title>Node2&#45;&gt;Node3</title>
<path fill="none" stroke="midnightblue" d="M144.85,-330.99C123.61,-320.69 97.59,-308.07 78.02,-298.58"/>
<polygon fill="midnightblue" stroke="midnightblue" points="143.4,-334.18 153.92,-335.4 146.45,-327.88 143.4,-334.18"/>
</g>
<!-- Node4 -->
<g id="node4" class="node">
<title>Node4</title>
<g id="a_node4"><a xlink:href="particleLoading_8h.html" target="_top" xlink:title=" ">
<polygon fill="none" stroke="black" points="232.5,-268.5 232.5,-298.5 375.5,-298.5 375.5,-268.5 232.5,-268.5"/>
<text text-anchor="start" x="240.5" y="-286.5" font-family="Arial" font-size="10.00">/home/user/project</text>
<text text-anchor="middle" x="304" y="-275.5" font-family="Arial" font-size="10.00">/src/loading/particleLoading.h</text>
</a>
</g>
</g>
<!-- Node2&#45;&gt;Node4 -->
<g id="edge3" class="edge">
<title>Node2&#45;&gt;Node4</title>
<path fill="none" stroke="midnightblue" d="M218.23,-330.57C237.26,-320.35 260.37,-307.94 277.8,-298.58"/>
<polygon fill="midnightblue" stroke="midnightblue" points="216.41,-327.58 209.26,-335.4 219.72,-333.75 216.41,-327.58"/>
</g>
<!-- Node6 -->
<g id="node6" class="node">
<title>Node6</title>
<g id="a_node6"><a xlink:href="particleFLoading_8cpp.html" target="_top" xlink:title=" ">
<polygon fill="none" stroke="black" points="192,-134.5 192,-164.5 352,-164.5 352,-134.5 192,-134.5"/>
<text text-anchor="start" x="200" y="-152.5" font-family="Arial" font-size="10.00">/home/user/project</text>
<text text-anchor="middle" x="272" y="-141.5" font-family="Arial" font-size="10.00">/src/loading/particleFLoading.cpp</text>
</a>
</g>
</g>
<!-- Node2&#45;&gt;Node6 -->
<g id="edge12" class="edge">
<title>Node2&#45;&gt;Node6</title>
<path fill="none" stroke="midnightblue" d="M184.93,-325.24C188.26,-294.52 197.11,-240.79 220,-201 228.22,-186.71 241.65,-173.82 252.79,-164.64"/>
<polygon fill="midnightblue" stroke="midnightblue" points="181.42,-325.16 183.94,-335.45 188.39,-325.84 181.42,-325.16"/>
</g>
<!-- Node17 -->
<g id="node8" class="node">
<title>Node17</title>
<g id="a_node8"><a xlink:href="refParticle_8h.html" target="_top" xlink:title=" ">
<polygon fill="none" stroke="red" points="154.5,-67.5 154.5,-97.5 277.5,-97.5 277.5,-67.5 154.5,-67.5"/>
<text text-anchor="start" x="162.5" y="-85.5" font-family="Arial" font-size="10.00">/home/user/project</text>
<text text-anchor="middle" x="216" y="-74.5" font-family="Arial" font-size="10.00">/src/particle/refParticle.h</text>
</a>
</g>
</g>
<!-- Node2&#45;&gt;Node17 -->
<g id="edge14" class="edge">
<title>Node2&#45;&gt;Node17</title>
<path fill="none" stroke="midnightblue" d="M178.63,-325.5C172.22,-285.01 163.05,-201.01 183,-134 187.01,-120.55 195.86,-107.34 203.39,-97.81"/>
<polygon fill="midnightblue" stroke="midnightblue" points="175.2,-326.21 180.3,-335.49 182.11,-325.05 175.2,-326.21"/>
</g>
<!-- Node23 -->
<g id="node9" class="node">
<title>Node23</title>
<g id="a_node9"><a xlink:href="refParticle_8cpp.html" target="_top" xlink:title=" ">
<polygon fill="none" stroke="black" points="104,-0.5 104,-30.5 238,-30.5 238,-0.5 104,-0.5"/>
<text text-anchor="start" x="112" y="-18.5" font-family="Arial" font-size="10.00">/home/user/project</text>
<text text-anchor="middle" x="171" y="-7.5" font-family="Arial" font-size="10.00">/src/particle/refParticle.cpp</text>
</a>
</g>
</g>
<!-- Node2&#45;&gt;Node23 -->
<g id="edge15" class="edge">
<title>Node2&#45;&gt;Node23</title>
<path fill="none" stroke="midnightblue" d="M166.44,-326.83C149.61,-301.5 126,-258.63 126,-217.5 126,-217.5 126,-217.5 126,-148.5 126,-111.31 132.17,-101.91 145,-67 149.7,-54.23 156.88,-40.55 162.51,-30.66"/>
<polygon fill="midnightblue" stroke="midnightblue" points="163.73,-329.06 172.28,-335.33 169.5,-325.1 163.73,-329.06"/>
</g>
<!-- Node19 -->
<g id="node11" class="node">
<title>Node19</title>
<g id="a_node11"><a xlink:href="particleULoading_8cpp.html" target="_top" xlink:title=" ">
<polygon fill="none" stroke="black" points="509.5,-134.5 509.5,-164.5 670.5,-164.5 670.5,-134.5 509.5,-134.5"/>
<text text-anchor="start" x="517.5" y="-152.5" font-family="Arial" font-size="10.00">/home/user/project</text>
<text text-anchor="middle" x="590" y="-141.5" font-family="Arial" font-size="10.00">/src/loading/particleULoading.cpp</text>
</a>
</g>
</g>
<!-- Node2&#45;&gt;Node19 -->
<g id="edge13" class="edge">
<title>Node2&#45;&gt;Node19</title>
<path fill="none" stroke="midnightblue" d="M267.86,-344.38C351.63,-334.9 478.16,-308.01 556,-232 574.98,-213.47 583.83,-182.76 587.58,-164.8"/>
<polygon fill="midnightblue" stroke="midnightblue" points="267.43,-340.91 257.86,-345.45 268.18,-347.87 267.43,-340.91"/>
</g>
<!-- Node5 -->
<g id="node5" class="node">
<title>Node5</title>
<g id="a_node5"><a xlink:href="particleFLoading_8h.html" target="_top" xlink:title=" ">
<polygon fill="none" stroke="black" points="229.5,-201.5 229.5,-231.5 378.5,-231.5 378.5,-201.5 229.5,-201.5"/>
<text text-anchor="start" x="237.5" y="-219.5" font-family="Arial" font-size="10.00">/home/user/project</text>
<text text-anchor="middle" x="304" y="-208.5" font-family="Arial" font-size="10.00">/src/loading/particleFLoading.h</text>
</a>
</g>
</g>
<!-- Node4&#45;&gt;Node5 -->
<g id="edge4" class="edge">
<title>Node4&#45;&gt;Node5</title>
<path fill="none" stroke="midnightblue" d="M304,-258.11C304,-249.15 304,-239.32 304,-231.58"/>
<polygon fill="midnightblue" stroke="midnightblue" points="300.5,-258.4 304,-268.4 307.5,-258.4 300.5,-258.4"/>
</g>
<!-- Node24 -->
<g id="node10" class="node">
<title>Node24</title>
<g id="a_node10"><a xlink:href="particleULoading_8h.html" target="_top" xlink:title=" ">
<polygon fill="none" stroke="black" points="396.5,-201.5 396.5,-231.5 547.5,-231.5 547.5,-201.5 396.5,-201.5"/>
<text text-anchor="start" x="404.5" y="-219.5" font-family="Arial" font-size="10.00">/home/user/project</text>
<text text-anchor="middle" x="472" y="-208.5" font-family="Arial" font-size="10.00">/src/loading/particleULoading.h</text>
</a>
</g>
</g>
<!-- Node4&#45;&gt;Node24 -->
<g id="edge9" class="edge">
<title>Node4&#45;&gt;Node24</title>
<path fill="none" stroke="midnightblue" d="M350.05,-264.68C377,-254.26 410.54,-241.28 435.62,-231.58"/>
<polygon fill="midnightblue" stroke="midnightblue" points="348.52,-261.52 340.45,-268.4 351.04,-268.05 348.52,-261.52"/>
</g>
<!-- Node5&#45;&gt;Node6 -->
<g id="edge5" class="edge">
<title>Node5&#45;&gt;Node6</title>
<path fill="none" stroke="midnightblue" d="M292.57,-192.28C288.01,-183.02 282.91,-172.66 278.93,-164.58"/>
<polygon fill="midnightblue" stroke="midnightblue" points="289.5,-193.97 297.06,-201.4 295.78,-190.88 289.5,-193.97"/>
</g>
<!-- Node7 -->
<g id="node7" class="node">
<title>Node7</title>
<g id="a_node7"><a xlink:href="modelData_8h.html" target="_top" xlink:title=" ">
<polygon fill="none" stroke="red" points="370.5,-134.5 370.5,-164.5 491.5,-164.5 491.5,-134.5 370.5,-134.5"/>
<text text-anchor="start" x="378.5" y="-152.5" font-family="Arial" font-size="10.00">/home/user/project</text>
<text text-anchor="middle" x="431" y="-141.5" font-family="Arial" font-size="10.00">/src/model/modelData.h</text>
</a>
</g>
</g>
<!-- Node5&#45;&gt;Node7 -->
<g id="edge6" class="edge">
<title>Node5&#45;&gt;Node7</title>
<path fill="none" stroke="midnightblue" d="M340.7,-196.71C360.73,-186.46 385.12,-173.98 403.5,-164.58"/>
<polygon fill="midnightblue" stroke="midnightblue" points="338.86,-193.72 331.56,-201.4 342.05,-199.96 338.86,-193.72"/>
</g>
<!-- Node7&#45;&gt;Node17 -->
<g id="edge7" class="edge">
<title>Node7&#45;&gt;Node17</title>
<path fill="none" stroke="midnightblue" d="M375.03,-131.58C340.11,-121.02 295.69,-107.59 262.67,-97.61"/>
<polygon fill="midnightblue" stroke="midnightblue" points="374.03,-134.93 384.61,-134.48 376.05,-128.23 374.03,-134.93"/>
</g>
<!-- Node17&#45;&gt;Node23 -->
<g id="edge8" class="edge">
<title>Node17&#45;&gt;Node23</title>
<path fill="none" stroke="midnightblue" d="M200.53,-59.16C193.97,-49.68 186.52,-38.92 180.75,-30.58"/>
<polygon fill="midnightblue" stroke="midnightblue" points="197.67,-61.17 206.24,-67.4 203.42,-57.18 197.67,-61.17"/>
</g>
<!-- Node24&#45;&gt;Node7 -->
<g id="edge11" class="edge">
<title>Node24&#45;&gt;Node7</title>
<path fill="none" stroke="midnightblue" d="M457.72,-192.87C451.79,-183.46 445.09,-172.83 439.88,-164.58"/>
<polygon fill="midnightblue" stroke="midnightblue" points="454.81,-194.81 463.1,-201.4 460.73,-191.07 454.81,-194.81"/>
</g>
<!-- Node24&#45;&gt;Node19 -->
<g id="edge10" class="edge">
<title>Node24&#45;&gt;Node19</title>
<path fill="none" stroke="midnightblue" d="M506.61,-196.44C525.12,-186.24 547.52,-173.9 564.45,-164.58"/>
<polygon fill="midnightblue" stroke="midnightblue" points="504.67,-193.51 497.6,-201.4 508.05,-199.64 504.67,-193.51"/>
</g>
</g>
</svg>
