<?xml version="1.0" encoding="UTF-8" standalone="no"?>
<!DOCTYPE svg PUBLIC "-//W3C//DTD SVG 1.1//EN"
 "http://www.w3.org/Graphics/SVG/1.1/DTD/svg11.dtd">
<!-- Generated by graphviz version 2.43.0 (0)
 -->
<!-- Title: /home/user/project/src/util/point.h Pages: 1 -->
<svg width="324pt" height="93pt"
 viewBox="0.00 0.00 324.00 93.00" xmlns="http://www.w3.org/2000/svg" xmlns:xlink="http://www.w3.org/1999/xlink">
<g id="graph0" class="graph" transform="scale(1 1) rotate(0) translate(4 89)">
<title>/home/user/project/src/util/point.h</title>
<!-- Node1 -->
<g id="Node000001" class="node">
<title>Node1</title>
<g id="a_Node000001"><a xlink:title=" ">
<polygon fill="#999999" stroke="#666666" points="205,-85 107,-85 107,-55 205,-55 205,-85"/>
<text text-anchor="start" x="115" y="-73" font-family="Arial" font-size="10.00">/home/user/project</text>
<text text-anchor="middle" x="156" y="-62" font-family="Arial" font-size="10.00">/src/util/point.h</text>
</a>
</g>
</g>
<!-- Node2 -->
<g id="Node000002" class="node">
<title>Node2</title>
<g id="a_Node000002"><a xlink:title=" ">
<polygon fill="#e0e0e0" stroke="#999999" points="44,-19 0,-19 0,0 44,0 44,-19"/>
<text text-anchor="middle" x="22" y="-7" font-family="Arial" font-size="10.00">cmath</text>
</a>
</g>
</g>
<!-- Node1&#45;&gt;Node2 -->
<g id="edge1_Node000001_Node000002" class="edge">
<title>Node1&#45;&gt;Node2</title>
<g id="a_edge1_Node000001_Node000002"><a xlink:title=" ">
<path fill="none" stroke="#63b8ff" d="M123.9,-54.99C101.75,-45.31 72.52,-32.56 51.05,-23.18"/>
<polygon fill="#63b8ff" stroke="#63b8ff" points="52.35,-19.93 41.79,-19.14 49.55,-26.35 52.35,-19.93"/>
</a>
</g>
</g>
<!-- Node3 -->
<g id="Node000003" class="node">
<title>Node3</title>
<g id="a_Node000003"><a xlink:title=" ">
<polygon fill="#e0e0e0" stroke="#999999" points="112,-19 62,-19 62,0 112,0 112,-19"/>
<text text-anchor="middle" x="87" y="-7" font-family="Arial" font-size="10.00">iomanip</text>
</a>
</g>
</g>
<!-- Node1&#45;&gt;Node3 -->
<g id="edge2_Node000001_Node000003" class="edge">
<title>Node1&#45;&gt;Node3</title>
<g id="a_edge2_Node000001_Node000003"><a xlink:title=" ">
<path fill="none" stroke="#63b8ff" d="M139.3,-54.84C128.97,-46.09 115.72,-34.85 105.14,-25.88"/>
<polygon fill="#63b8ff" stroke="#63b8ff" points="107.23,-23.06 97.34,-19.27 102.7,-28.4 107.23,-23.06"/>
</a>
</g>
</g>
<!-- Node4 -->
<g id="Node000004" class="node">
<title>Node4</title>
<g id="a_Node000004"><a xlink:title=" ">
<polygon fill="#e0e0e0" stroke="#999999" points="182,-19 130,-19 130,0 182,0 182,-19"/>
<text text-anchor="middle" x="156" y="-7" font-family="Arial" font-size="10.00">sstream</text>
</a>
</g>
</g>
<!-- Node1&#45;&gt;Node4 -->
<g id="edge3_Node000001_Node000004" class="edge">
<title>Node1&#45;&gt;Node4</title>
<g id="a_edge3_Node000001_Node000004"><a xlink:title=" ">
<path fill="none" stroke="#63b8ff" d="M156,-54.84C156,-47.21 156,-37.7 156,-29.45"/>
<polygon fill="#63b8ff" stroke="#63b8ff" points="159.5,-29.27 156,-19.27 152.5,-29.27 159.5,-29.27"/>
</a>
</g>
</g>
<!-- Node5 -->
<g id="Node000005" class="node">
<title>Node5</title>
<g id="a_Node000005"><a xlink:title=" ">
<polygon fill="#e0e0e0" stroke="#999999" points="254,-19 200,-19 200,0 254,0 254,-19"/>
<text text-anchor="middle" x="227" y="-7" font-family="Arial" font-size="10.00">iostream</text>
</a>
</g>
</g>
<!-- Node1&#45;&gt;Node5 -->
<g id="edge4_Node000001_Node000005" class="edge">
<title>Node1&#45;&gt;Node5</title>
<g id="a_edge4_Node000001_Node000005"><a xlink:title=" ">
<path fill="none" stroke="#63b8ff" d="M173.19,-54.84C183.81,-46.09 197.44,-34.85 208.33,-25.88"/>
<polygon fill="#63b8ff" stroke="#63b8ff" points="210.87,-28.33 216.36,-19.27 206.42,-22.92 210.87,-28.33"/>
</a>
</g>
</g>
<!-- Node6 -->
<g id="Node000006" class="node">
<title>Node6</title>
<g id="a_Node000006"><a xlink:title=" ">
<polygon fill="#e0e0e0" stroke="#999999" points="316,-19 272,-19 272,0 316,0 316,-19"/>
<text text-anchor="middle" x="294" y="-7" font-family="Arial" font-size="10.00">vector</text>
</a>
</g>
</g>
<!-- Node1&#45;&gt;Node6 -->
<g id="edge5_Node000001_Node000006" class="edge">
<title>Node1&#45;&gt;Node6</title>
<g id="a_edge5_Node000001_Node000006"><a xlink:title=" ">
<path fill="none" stroke="#63b8ff" d="M189.05,-54.99C211.98,-45.27 242.24,-32.44 264.38,-23.06"/>
<polygon fill="#63b8ff" stroke="#63b8ff" points="265.78,-26.26 273.62,-19.14 263.05,-19.82 265.78,-26.26"/>
</a>
</g>
</g>
</g>
</svg>
