<?xml version="1.0" encoding="UTF-8" standalone="no"?>
<!DOCTYPE svg PUBLIC "-//W3C//DTD SVG 1.1//EN"
 "http://www.w3.org/Graphics/SVG/1.1/DTD/svg11.dtd">
<!-- Generated by graphviz version 2.43.0 (0)
 -->
<!-- Title: /home/user/project/src/util/randomDist.h Pages: 1 -->
<svg width="755pt" height="115pt"
 viewBox="0.00 0.00 755.00 115.00" xmlns="http://www.w3.org/2000/svg" xmlns:xlink="http://www.w3.org/1999/xlink">
<g id="graph0" class="graph" transform="scale(1 1) rotate(0) translate(4 111)">
<title>/home/user/project/src/util/randomDist.h</title>
<!-- Node1 -->
<g id="Node000001" class="node">
<title>Node1</title>
<g id="a_Node000001"><a xlink:title=" ">
<polygon fill="#999999" stroke="#666666" points="431,-107 321,-107 321,-77 431,-77 431,-107"/>
<text text-anchor="start" x="329" y="-95" font-family="Arial" font-size="10.00">/home/user/project</text>
<text text-anchor="middle" x="376" y="-84" font-family="Arial" font-size="10.00">/src/util/randomDist.h</text>
</a>
</g>
</g>
<!-- Node2 -->
<g id="Node000002" class="node">
<title>Node2</title>
<g id="a_Node000002"><a xlink:href="apps_2peridynamics_2main_8cpp.html" target="_top" xlink:title=" ">
<polygon fill="white" stroke="#666666" points="144,-35.5 0,-35.5 0,-5.5 144,-5.5 144,-35.5"/>
<text text-anchor="start" x="8" y="-23.5" font-family="Arial" font-size="10.00">/home/user/project</text>
<text text-anchor="middle" x="72" y="-12.5" font-family="Arial" font-size="10.00">/apps/peridynamics/main.cpp</text>
</a>
</g>
</g>
<!-- Node1&#45;&gt;Node2 -->
<g id="edge1_Node000001_Node000002" class="edge">
<title>Node1&#45;&gt;Node2</title>
<g id="a_edge1_Node000001_Node000002"><a xlink:title=" ">
<path fill="none" stroke="#63b8ff" d="M311.14,-76.74C266.61,-66.88 206.17,-53.36 153,-41 145.53,-39.26 137.69,-37.41 129.94,-35.56"/>
<polygon fill="#63b8ff" stroke="#63b8ff" points="310.44,-80.17 320.96,-78.91 311.95,-73.33 310.44,-80.17"/>
</a>
</g>
</g>
<!-- Node3 -->
<g id="Node000003" class="node">
<title>Node3</title>
<g id="a_Node000003"><a xlink:href="apps_2twoparticle__demo_2main_8cpp.html" target="_top" xlink:title=" ">
<polygon fill="white" stroke="#666666" points="282,-41 162,-41 162,0 282,0 282,-41"/>
<text text-anchor="start" x="170" y="-29" font-family="Arial" font-size="10.00">/home/user/project</text>
<text text-anchor="start" x="170" y="-18" font-family="Arial" font-size="10.00">/apps/twoparticle_demo</text>
<text text-anchor="middle" x="222" y="-7" font-family="Arial" font-size="10.00">/main.cpp</text>
</a>
</g>
</g>
<!-- Node1&#45;&gt;Node3 -->
<g id="edge2_Node000001_Node000003" class="edge">
<title>Node1&#45;&gt;Node3</title>
<g id="a_edge2_Node000001_Node000003"><a xlink:title=" ">
<path fill="none" stroke="#63b8ff" d="M335.61,-72.77C314.01,-63.02 287.41,-51.02 265.37,-41.07"/>
<polygon fill="#63b8ff" stroke="#63b8ff" points="334.28,-76.01 344.84,-76.94 337.16,-69.63 334.28,-76.01"/>
</a>
</g>
</g>
<!-- Node4 -->
<g id="Node000004" class="node">
<title>Node4</title>
<g id="a_Node000004"><a xlink:href="demModel_8cpp.html" target="_top" xlink:title=" ">
<polygon fill="white" stroke="#666666" points="451.5,-35.5 300.5,-35.5 300.5,-5.5 451.5,-5.5 451.5,-35.5"/>
<text text-anchor="start" x="308.5" y="-23.5" font-family="Arial" font-size="10.00">/home/user/project</text>
<text text-anchor="middle" x="376" y="-12.5" font-family="Arial" font-size="10.00">/src/model/dem/demModel.cpp</text>
</a>
</g>
</g>
<!-- Node1&#45;&gt;Node4 -->
<g id="edge3_Node000001_Node000004" class="edge">
<title>Node1&#45;&gt;Node4</title>
<g id="a_edge3_Node000001_Node000004"><a xlink:title=" ">
<path fill="none" stroke="#63b8ff" d="M376,-66.75C376,-56.31 376,-44.49 376,-35.54"/>
<polygon fill="#63b8ff" stroke="#63b8ff" points="372.5,-66.94 376,-76.94 379.5,-66.94 372.5,-66.94"/>
</a>
</g>
</g>
<!-- Node5 -->
<g id="Node000005" class="node">
<title>Node5</title>
<g id="a_Node000005"><a xlink:href="testNSearchLib_8cpp.html" target="_top" xlink:title=" ">
<polygon fill="white" stroke="#666666" points="588.5,-41 469.5,-41 469.5,0 588.5,0 588.5,-41"/>
<text text-anchor="start" x="477.5" y="-29" font-family="Arial" font-size="10.00">/home/user/project</text>
<text text-anchor="start" x="477.5" y="-18" font-family="Arial" font-size="10.00">/test/test_exec/nsearch</text>
<text text-anchor="middle" x="529" y="-7" font-family="Arial" font-size="10.00">/testNSearchLib.cpp</text>
</a>
</g>
</g>
<!-- Node1&#45;&gt;Node5 -->
<g id="edge4_Node000001_Node000005" class="edge">
<title>Node1&#45;&gt;Node5</title>
<g id="a_edge4_Node000001_Node000005"><a xlink:title=" ">
<path fill="none" stroke="#63b8ff" d="M416.13,-72.77C437.59,-63.02 464.02,-51.02 485.91,-41.07"/>
<polygon fill="#63b8ff" stroke="#63b8ff" points="414.62,-69.61 406.96,-76.94 417.51,-75.99 414.62,-69.61"/>
</a>
</g>
</g>
<!-- Node6 -->
<g id="Node000006" class="node">
<title>Node6</title>
<g id="a_Node000006"><a xlink:href="testParallelCompLib_8cpp.html" target="_top" xlink:title=" ">
<polygon fill="white" stroke="#666666" points="747,-41 607,-41 607,0 747,0 747,-41"/>
<text text-anchor="start" x="615" y="-29" font-family="Arial" font-size="10.00">/home/user/project</text>
<text text-anchor="start" x="615" y="-18" font-family="Arial" font-size="10.00">/test/test_exec/parallelcomp</text>
<text text-anchor="middle" x="677" y="-7" font-family="Arial" font-size="10.00">/testParallelCompLib.cpp</text>
</a>
</g>
</g>
<!-- Node1&#45;&gt;Node6 -->
<g id="edge5_Node000001_Node000006" class="edge">
<title>Node1&#45;&gt;Node6</title>
<g id="a_edge5_Node000001_Node000006"><a xlink:title=" ">
<path fill="none" stroke="#63b8ff" d="M441.04,-76.72C485.33,-66.9 545.27,-53.44 598,-41 600.89,-40.32 603.83,-39.62 606.81,-38.91"/>
<polygon fill="#63b8ff" stroke="#63b8ff" points="440.28,-73.3 431.27,-78.88 441.79,-80.14 440.28,-73.3"/>
</a>
</g>
</g>
</g>
</svg>
