<?xml version="1.0" encoding="UTF-8" standalone="no"?>
<!DOCTYPE svg PUBLIC "-//W3C//DTD SVG 1.1//EN"
 "http://www.w3.org/Graphics/SVG/1.1/DTD/svg11.dtd">
<!-- Generated by graphviz version 2.43.0 (0)
 -->
<!-- Title: /home/user/project/src/rw/reader.cpp Pages: 1 -->
<svg width="911pt" height="263pt"
 viewBox="0.00 0.00 910.50 263.00" xmlns="http://www.w3.org/2000/svg" xmlns:xlink="http://www.w3.org/1999/xlink">
<g id="graph0" class="graph" transform="scale(1 1) rotate(0) translate(4 259)">
<title>/home/user/project/src/rw/reader.cpp</title>
<!-- Node1 -->
<g id="node1" class="node">
<title>Node1</title>
<g id="a_node1"><a xlink:title=" ">
<polygon fill="#bfbfbf" stroke="black" points="325.5,-224.5 325.5,-254.5 423.5,-254.5 423.5,-224.5 325.5,-224.5"/>
<text text-anchor="start" x="333.5" y="-242.5" font-family="Arial" font-size="10.00">/home/user/project</text>
<text text-anchor="middle" x="374.5" y="-231.5" font-family="Arial" font-size="10.00">/src/rw/reader.cpp</text>
</a>
</g>
</g>
<!-- Node2 -->
<g id="node2" class="node">
<title>Node2</title>
<g id="a_node2"><a xlink:href="reader_8h.html" target="_top" xlink:title=" ">
<polygon fill="none" stroke="black" points="273.5,-168.5 273.5,-187.5 325.5,-187.5 325.5,-168.5 273.5,-168.5"/>
<text text-anchor="middle" x="299.5" y="-175.5" font-family="Arial" font-size="10.00">reader.h</text>
</a>
</g>
</g>
<!-- Node1&#45;&gt;Node2 -->
<g id="edge1" class="edge">
<title>Node1&#45;&gt;Node2</title>
<path fill="none" stroke="midnightblue" d="M356.73,-224.4C345.15,-215.22 330.08,-203.26 318.3,-193.92"/>
<polygon fill="midnightblue" stroke="midnightblue" points="320.42,-191.13 310.41,-187.66 316.07,-196.61 320.42,-191.13"/>
</g>
<!-- Node12 -->
<g id="node12" class="node">
<title>Node12</title>
<g id="a_node12"><a xlink:href="mshReader_8h.html" target="_top" xlink:title=" ">
<polygon fill="none" stroke="black" points="72,-112.5 72,-131.5 147,-131.5 147,-112.5 72,-112.5"/>
<text text-anchor="middle" x="109.5" y="-119.5" font-family="Arial" font-size="10.00">mshReader.h</text>
</a>
</g>
</g>
<!-- Node1&#45;&gt;Node12 -->
<g id="edge13" class="edge">
<title>Node1&#45;&gt;Node12</title>
<path fill="none" stroke="midnightblue" d="M342.27,-224.45C290.16,-201.74 188.21,-157.3 138.35,-135.57"/>
<polygon fill="midnightblue" stroke="midnightblue" points="139.66,-132.33 129.1,-131.54 136.87,-138.75 139.66,-132.33"/>
</g>
<!-- Node15 -->
<g id="node15" class="node">
<title>Node15</title>
<g id="a_node15"><a xlink:href="vtkReader_8h.html" target="_top" xlink:title=" ">
<polygon fill="none" stroke="black" points="379.5,-168.5 379.5,-187.5 449.5,-187.5 449.5,-168.5 379.5,-168.5"/>
<text text-anchor="middle" x="414.5" y="-175.5" font-family="Arial" font-size="10.00">vtkReader.h</text>
</a>
</g>
</g>
<!-- Node1&#45;&gt;Node15 -->
<g id="edge18" class="edge">
<title>Node1&#45;&gt;Node15</title>
<path fill="none" stroke="midnightblue" d="M383.98,-224.4C389.67,-215.93 396.95,-205.1 402.98,-196.14"/>
<polygon fill="midnightblue" stroke="midnightblue" points="406.01,-197.91 408.68,-187.66 400.2,-194 406.01,-197.91"/>
</g>
<!-- Node19 -->
<g id="node19" class="node">
<title>Node19</title>
<g id="a_node19"><a xlink:title=" ">
<polygon fill="none" stroke="#bfbfbf" points="468,-168.5 468,-187.5 527,-187.5 527,-168.5 468,-168.5"/>
<text text-anchor="middle" x="497.5" y="-175.5" font-family="Arial" font-size="10.00">csv/csv.h</text>
</a>
</g>
</g>
<!-- Node1&#45;&gt;Node19 -->
<g id="edge26" class="edge">
<title>Node1&#45;&gt;Node19</title>
<path fill="none" stroke="midnightblue" d="M403.65,-224.4C423.92,-214.59 450.74,-201.62 470.52,-192.05"/>
<polygon fill="midnightblue" stroke="midnightblue" points="472.12,-195.16 479.6,-187.66 469.08,-188.86 472.12,-195.16"/>
</g>
<!-- Node3 -->
<g id="node3" class="node">
<title>Node3</title>
<g id="a_node3"><a xlink:href="point_8h.html" target="_top" xlink:title=" ">
<polygon fill="none" stroke="black" points="259.5,-56.5 259.5,-75.5 321.5,-75.5 321.5,-56.5 259.5,-56.5"/>
<text text-anchor="middle" x="290.5" y="-63.5" font-family="Arial" font-size="10.00">util/point.h</text>
</a>
</g>
</g>
<!-- Node2&#45;&gt;Node3 -->
<g id="edge2" class="edge">
<title>Node2&#45;&gt;Node3</title>
<path fill="none" stroke="midnightblue" d="M276.71,-168.47C261.17,-161.32 241.79,-149.44 232.5,-132 221.77,-111.86 243.84,-92.88 263.77,-80.69"/>
<polygon fill="midnightblue" stroke="midnightblue" points="265.72,-83.6 272.65,-75.59 262.24,-77.53 265.72,-83.6"/>
</g>
<!-- Node8 -->
<g id="node8" class="node">
<title>Node8</title>
<g id="a_node8"><a xlink:title=" ">
<polygon fill="none" stroke="#bfbfbf" points="134.5,-0.5 134.5,-19.5 178.5,-19.5 178.5,-0.5 134.5,-0.5"/>
<text text-anchor="middle" x="156.5" y="-7.5" font-family="Arial" font-size="10.00">vector</text>
</a>
</g>
</g>
<!-- Node2&#45;&gt;Node8 -->
<g id="edge12" class="edge">
<title>Node2&#45;&gt;Node8</title>
<path fill="none" stroke="midnightblue" d="M279.71,-168.41C263.62,-160.67 241.12,-148.06 225.5,-132 195.41,-101.05 173.73,-54.43 163.37,-29.04"/>
<polygon fill="midnightblue" stroke="midnightblue" points="166.56,-27.59 159.63,-19.57 160.05,-30.16 166.56,-27.59"/>
</g>
<!-- Node9 -->
<g id="node9" class="node">
<title>Node9</title>
<g id="a_node9"><a xlink:href="matrix_8h.html" target="_top" xlink:title=" ">
<polygon fill="none" stroke="black" points="305.5,-112.5 305.5,-131.5 373.5,-131.5 373.5,-112.5 305.5,-112.5"/>
<text text-anchor="middle" x="339.5" y="-119.5" font-family="Arial" font-size="10.00">util/matrix.h</text>
</a>
</g>
</g>
<!-- Node2&#45;&gt;Node9 -->
<g id="edge8" class="edge">
<title>Node2&#45;&gt;Node9</title>
<path fill="none" stroke="midnightblue" d="M306.11,-168.08C311.76,-160.46 320.04,-149.26 326.95,-139.94"/>
<polygon fill="midnightblue" stroke="midnightblue" points="329.88,-141.87 333.02,-131.75 324.25,-137.7 329.88,-141.87"/>
</g>
<!-- Node10 -->
<g id="node10" class="node">
<title>Node10</title>
<g id="a_node10"><a xlink:title=" ">
<polygon fill="none" stroke="#bfbfbf" points="391.5,-112.5 391.5,-131.5 437.5,-131.5 437.5,-112.5 391.5,-112.5"/>
<text text-anchor="middle" x="414.5" y="-119.5" font-family="Arial" font-size="10.00">cstdint</text>
</a>
</g>
</g>
<!-- Node2&#45;&gt;Node10 -->
<g id="edge10" class="edge">
<title>Node2&#45;&gt;Node10</title>
<path fill="none" stroke="midnightblue" d="M317.72,-168.44C336.4,-159.68 365.66,-145.94 387.12,-135.86"/>
<polygon fill="midnightblue" stroke="midnightblue" points="388.8,-138.93 396.36,-131.52 385.82,-132.6 388.8,-138.93"/>
</g>
<!-- Node11 -->
<g id="node11" class="node">
<title>Node11</title>
<g id="a_node11"><a xlink:title=" ">
<polygon fill="none" stroke="#bfbfbf" points="241.5,-112.5 241.5,-131.5 287.5,-131.5 287.5,-112.5 241.5,-112.5"/>
<text text-anchor="middle" x="264.5" y="-119.5" font-family="Arial" font-size="10.00">cstring</text>
</a>
</g>
</g>
<!-- Node2&#45;&gt;Node11 -->
<g id="edge11" class="edge">
<title>Node2&#45;&gt;Node11</title>
<path fill="none" stroke="midnightblue" d="M293.72,-168.08C288.83,-160.53 281.67,-149.49 275.67,-140.23"/>
<polygon fill="midnightblue" stroke="midnightblue" points="278.55,-138.24 270.17,-131.75 272.67,-142.05 278.55,-138.24"/>
</g>
<!-- Node4 -->
<g id="node4" class="node">
<title>Node4</title>
<g id="a_node4"><a xlink:title=" ">
<polygon fill="none" stroke="#bfbfbf" points="268.5,-0.5 268.5,-19.5 312.5,-19.5 312.5,-0.5 268.5,-0.5"/>
<text text-anchor="middle" x="290.5" y="-7.5" font-family="Arial" font-size="10.00">cmath</text>
</a>
</g>
</g>
<!-- Node3&#45;&gt;Node4 -->
<g id="edge3" class="edge">
<title>Node3&#45;&gt;Node4</title>
<path fill="none" stroke="midnightblue" d="M290.5,-56.08C290.5,-49.01 290.5,-38.86 290.5,-29.99"/>
<polygon fill="midnightblue" stroke="midnightblue" points="294,-29.75 290.5,-19.75 287,-29.75 294,-29.75"/>
</g>
<!-- Node5 -->
<g id="node5" class="node">
<title>Node5</title>
<g id="a_node5"><a xlink:title=" ">
<polygon fill="none" stroke="#bfbfbf" points="330.5,-0.5 330.5,-19.5 380.5,-19.5 380.5,-0.5 330.5,-0.5"/>
<text text-anchor="middle" x="355.5" y="-7.5" font-family="Arial" font-size="10.00">iomanip</text>
</a>
</g>
</g>
<!-- Node3&#45;&gt;Node5 -->
<g id="edge4" class="edge">
<title>Node3&#45;&gt;Node5</title>
<path fill="none" stroke="midnightblue" d="M300.94,-56.32C310.65,-48.26 325.32,-36.08 337,-26.37"/>
<polygon fill="midnightblue" stroke="midnightblue" points="339.41,-28.92 344.87,-19.83 334.94,-23.53 339.41,-28.92"/>
</g>
<!-- Node6 -->
<g id="node6" class="node">
<title>Node6</title>
<g id="a_node6"><a xlink:title=" ">
<polygon fill="none" stroke="#bfbfbf" points="398.5,-0.5 398.5,-19.5 450.5,-19.5 450.5,-0.5 398.5,-0.5"/>
<text text-anchor="middle" x="424.5" y="-7.5" font-family="Arial" font-size="10.00">sstream</text>
</a>
</g>
</g>
<!-- Node3&#45;&gt;Node6 -->
<g id="edge5" class="edge">
<title>Node3&#45;&gt;Node6</title>
<path fill="none" stroke="midnightblue" d="M311.73,-56.44C333.88,-47.52 368.82,-33.44 393.94,-23.32"/>
<polygon fill="midnightblue" stroke="midnightblue" points="395.4,-26.5 403.37,-19.52 392.78,-20.01 395.4,-26.5"/>
</g>
<!-- Node7 -->
<g id="node7" class="node">
<title>Node7</title>
<g id="a_node7"><a xlink:title=" ">
<polygon fill="none" stroke="#bfbfbf" points="196.5,-0.5 196.5,-19.5 250.5,-19.5 250.5,-0.5 196.5,-0.5"/>
<text text-anchor="middle" x="223.5" y="-7.5" font-family="Arial" font-size="10.00">iostream</text>
</a>
</g>
</g>
<!-- Node3&#45;&gt;Node7 -->
<g id="edge6" class="edge">
<title>Node3&#45;&gt;Node7</title>
<path fill="none" stroke="midnightblue" d="M279.74,-56.32C269.73,-48.26 254.61,-36.08 242.57,-26.37"/>
<polygon fill="midnightblue" stroke="midnightblue" points="244.44,-23.38 234.46,-19.83 240.05,-28.83 244.44,-23.38"/>
</g>
<!-- Node3&#45;&gt;Node8 -->
<g id="edge7" class="edge">
<title>Node3&#45;&gt;Node8</title>
<path fill="none" stroke="midnightblue" d="M269.27,-56.44C247.12,-47.52 212.18,-33.44 187.06,-23.32"/>
<polygon fill="midnightblue" stroke="midnightblue" points="188.22,-20.01 177.63,-19.52 185.6,-26.5 188.22,-20.01"/>
</g>
<!-- Node9&#45;&gt;Node3 -->
<g id="edge9" class="edge">
<title>Node9&#45;&gt;Node3</title>
<path fill="none" stroke="midnightblue" d="M331.41,-112.08C324.34,-104.3 313.91,-92.8 305.35,-83.37"/>
<polygon fill="midnightblue" stroke="midnightblue" points="307.75,-80.8 298.44,-75.75 302.57,-85.51 307.75,-80.8"/>
</g>
<!-- Node12&#45;&gt;Node3 -->
<g id="edge14" class="edge">
<title>Node12&#45;&gt;Node3</title>
<path fill="none" stroke="midnightblue" d="M138.18,-112.44C169.03,-103.24 218.23,-88.56 252.33,-78.39"/>
<polygon fill="midnightblue" stroke="midnightblue" points="253.37,-81.73 261.95,-75.52 251.37,-75.02 253.37,-81.73"/>
</g>
<!-- Node12&#45;&gt;Node8 -->
<g id="edge17" class="edge">
<title>Node12&#45;&gt;Node8</title>
<path fill="none" stroke="midnightblue" d="M113.19,-112.37C120.84,-94.46 138.59,-52.92 148.83,-28.95"/>
<polygon fill="midnightblue" stroke="midnightblue" points="152.12,-30.16 152.83,-19.59 145.68,-27.41 152.12,-30.16"/>
</g>
<!-- Node13 -->
<g id="node13" class="node">
<title>Node13</title>
<g id="a_node13"><a xlink:title=" ">
<polygon fill="none" stroke="#bfbfbf" points="59.5,-56.5 59.5,-75.5 109.5,-75.5 109.5,-56.5 59.5,-56.5"/>
<text text-anchor="middle" x="84.5" y="-63.5" font-family="Arial" font-size="10.00">fstream</text>
</a>
</g>
</g>
<!-- Node12&#45;&gt;Node13 -->
<g id="edge15" class="edge">
<title>Node12&#45;&gt;Node13</title>
<path fill="none" stroke="midnightblue" d="M105.37,-112.08C101.99,-104.77 97.08,-94.18 92.88,-85.1"/>
<polygon fill="midnightblue" stroke="midnightblue" points="95.93,-83.36 88.55,-75.75 89.58,-86.3 95.93,-83.36"/>
</g>
<!-- Node14 -->
<g id="node14" class="node">
<title>Node14</title>
<g id="a_node14"><a xlink:title=" ">
<polygon fill="none" stroke="#bfbfbf" points="0,-56.5 0,-75.5 41,-75.5 41,-56.5 0,-56.5"/>
<text text-anchor="middle" x="20.5" y="-63.5" font-family="Arial" font-size="10.00">string</text>
</a>
</g>
</g>
<!-- Node12&#45;&gt;Node14 -->
<g id="edge16" class="edge">
<title>Node12&#45;&gt;Node14</title>
<path fill="none" stroke="midnightblue" d="M95.2,-112.32C81.32,-103.9 60.01,-90.97 43.7,-81.07"/>
<polygon fill="midnightblue" stroke="midnightblue" points="45.13,-77.85 34.76,-75.65 41.5,-83.83 45.13,-77.85"/>
</g>
<!-- Node15&#45;&gt;Node3 -->
<g id="edge22" class="edge">
<title>Node15&#45;&gt;Node3</title>
<path fill="none" stroke="midnightblue" d="M424.43,-168.43C438.28,-155.43 460.26,-130.29 446.5,-112 432.67,-93.62 373.1,-80.39 331.71,-73.21"/>
<polygon fill="midnightblue" stroke="midnightblue" points="332.06,-69.72 321.61,-71.52 330.9,-76.62 332.06,-69.72"/>
</g>
<!-- Node15&#45;&gt;Node9 -->
<g id="edge23" class="edge">
<title>Node15&#45;&gt;Node9</title>
<path fill="none" stroke="midnightblue" d="M402.45,-168.32C391.04,-160.11 373.67,-147.6 360.07,-137.81"/>
<polygon fill="midnightblue" stroke="midnightblue" points="361.93,-134.84 351.77,-131.83 357.84,-140.52 361.93,-134.84"/>
</g>
<!-- Node15&#45;&gt;Node10 -->
<g id="edge24" class="edge">
<title>Node15&#45;&gt;Node10</title>
<path fill="none" stroke="midnightblue" d="M414.5,-168.08C414.5,-161.01 414.5,-150.86 414.5,-141.99"/>
<polygon fill="midnightblue" stroke="midnightblue" points="418,-141.75 414.5,-131.75 411,-141.75 418,-141.75"/>
</g>
<!-- Node15&#45;&gt;Node11 -->
<g id="edge25" class="edge">
<title>Node15&#45;&gt;Node11</title>
<path fill="none" stroke="midnightblue" d="M390.73,-168.44C365.46,-159.35 325.32,-144.9 297.1,-134.74"/>
<polygon fill="midnightblue" stroke="midnightblue" points="298.26,-131.43 287.66,-131.34 295.89,-138.02 298.26,-131.43"/>
</g>
<!-- Node16 -->
<g id="node16" class="node">
<title>Node16</title>
<g id="a_node16"><a xlink:title=" ">
<polygon fill="none" stroke="#bfbfbf" points="494,-112.5 494,-131.5 589,-131.5 589,-112.5 494,-112.5"/>
<text text-anchor="middle" x="541.5" y="-119.5" font-family="Arial" font-size="10.00">vtkSmartPointer.h</text>
</a>
</g>
</g>
<!-- Node15&#45;&gt;Node16 -->
<g id="edge19" class="edge">
<title>Node15&#45;&gt;Node16</title>
<path fill="none" stroke="midnightblue" d="M434.62,-168.44C455.52,-159.56 488.43,-145.56 512.22,-135.45"/>
<polygon fill="midnightblue" stroke="midnightblue" points="513.64,-138.65 521.47,-131.52 510.9,-132.21 513.64,-138.65"/>
</g>
<!-- Node17 -->
<g id="node17" class="node">
<title>Node17</title>
<g id="a_node17"><a xlink:title=" ">
<polygon fill="none" stroke="#bfbfbf" points="607,-112.5 607,-131.5 720,-131.5 720,-112.5 607,-112.5"/>
<text text-anchor="middle" x="663.5" y="-119.5" font-family="Arial" font-size="10.00">vtkUnstructuredGrid.h</text>
</a>
</g>
</g>
<!-- Node15&#45;&gt;Node17 -->
<g id="edge20" class="edge">
<title>Node15&#45;&gt;Node17</title>
<path fill="none" stroke="midnightblue" d="M449.65,-169.38C492.58,-160.07 565.46,-144.26 614.03,-133.73"/>
<polygon fill="midnightblue" stroke="midnightblue" points="614.98,-137.1 624.01,-131.56 613.5,-130.26 614.98,-137.1"/>
</g>
<!-- Node18 -->
<g id="node18" class="node">
<title>Node18</title>
<g id="a_node18"><a xlink:title=" ">
<polygon fill="none" stroke="#bfbfbf" points="738.5,-112.5 738.5,-131.5 902.5,-131.5 902.5,-112.5 738.5,-112.5"/>
<text text-anchor="middle" x="820.5" y="-119.5" font-family="Arial" font-size="10.00">vtkXMLUnstructuredGridReader.h</text>
</a>
</g>
</g>
<!-- Node15&#45;&gt;Node18 -->
<g id="edge21" class="edge">
<title>Node15&#45;&gt;Node18</title>
<path fill="none" stroke="midnightblue" d="M449.83,-169.68C453.09,-169.08 456.35,-168.51 459.5,-168 550.45,-153.26 654.98,-140.7 728.07,-132.63"/>
<polygon fill="midnightblue" stroke="midnightblue" points="728.61,-136.09 738.17,-131.52 727.85,-129.13 728.61,-136.09"/>
</g>
</g>
</svg>
