<?xml version="1.0" encoding="UTF-8" standalone="no"?>
<!DOCTYPE svg PUBLIC "-//W3C//DTD SVG 1.1//EN"
 "http://www.w3.org/Graphics/SVG/1.1/DTD/svg11.dtd">
<!-- Generated by graphviz version 2.43.0 (0)
 -->
<!-- Title: /home/user/project/src/particle/refParticle.h Pages: 1 -->
<svg width="1461pt" height="386pt"
 viewBox="0.00 0.00 1461.45 386.00" xmlns="http://www.w3.org/2000/svg" xmlns:xlink="http://www.w3.org/1999/xlink">
<g id="graph0" class="graph" transform="scale(1 1) rotate(0) translate(4 382)">
<title>/home/user/project/src/particle/refParticle.h</title>
<!-- Node1 -->
<g id="node1" class="node">
<title>Node1</title>
<g id="a_node1"><a xlink:title=" ">
<polygon fill="#bfbfbf" stroke="black" points="535.95,-347.5 535.95,-377.5 658.95,-377.5 658.95,-347.5 535.95,-347.5"/>
<text text-anchor="start" x="543.95" y="-365.5" font-family="Arial" font-size="10.00">/home/user/project</text>
<text text-anchor="middle" x="597.45" y="-354.5" font-family="Arial" font-size="10.00">/src/particle/refParticle.h</text>
</a>
</g>
</g>
<!-- Node2 -->
<g id="node2" class="node">
<title>Node2</title>
<g id="a_node2"><a xlink:href="mesh_8h.html" target="_top" xlink:title=" ">
<polygon fill="none" stroke="black" points="225.45,-168.5 225.45,-187.5 285.45,-187.5 285.45,-168.5 225.45,-168.5"/>
<text text-anchor="middle" x="255.45" y="-175.5" font-family="Arial" font-size="10.00">fe/mesh.h</text>
</a>
</g>
</g>
<!-- Node1&#45;&gt;Node2 -->
<g id="edge1" class="edge">
<title>Node1&#45;&gt;Node2</title>
<path fill="none" stroke="midnightblue" d="M535.89,-355.26C469.47,-347.55 368.97,-332.72 337.45,-311 296.48,-282.77 271.98,-226.7 261.49,-197.56"/>
<polygon fill="midnightblue" stroke="midnightblue" points="264.7,-196.15 258.15,-187.82 258.08,-198.42 264.7,-196.15"/>
</g>
<!-- Node3 -->
<g id="node3" class="node">
<title>Node3</title>
<g id="a_node3"><a xlink:href="point_8h.html" target="_top" xlink:title=" ">
<polygon fill="none" stroke="black" points="557.45,-56.5 557.45,-75.5 619.45,-75.5 619.45,-56.5 557.45,-56.5"/>
<text text-anchor="middle" x="588.45" y="-63.5" font-family="Arial" font-size="10.00">util/point.h</text>
</a>
</g>
</g>
<!-- Node1&#45;&gt;Node3 -->
<g id="edge67" class="edge">
<title>Node1&#45;&gt;Node3</title>
<path fill="none" stroke="midnightblue" d="M659.06,-359.86C746.93,-356.34 912.76,-345.34 1049.45,-311 1131.18,-290.47 1225.45,-324.76 1225.45,-240.5 1225.45,-240.5 1225.45,-240.5 1225.45,-177 1225.45,-117.51 1165.34,-129.39 1108.45,-112 1019.14,-84.69 736.5,-72.19 629.79,-68.35"/>
<polygon fill="midnightblue" stroke="midnightblue" points="629.84,-64.85 619.73,-67.99 629.6,-71.84 629.84,-64.85"/>
</g>
<!-- Node8 -->
<g id="node8" class="node">
<title>Node8</title>
<g id="a_node8"><a xlink:title=" ">
<polygon fill="none" stroke="#bfbfbf" points="377.45,-0.5 377.45,-19.5 421.45,-19.5 421.45,-0.5 377.45,-0.5"/>
<text text-anchor="middle" x="399.45" y="-7.5" font-family="Arial" font-size="10.00">vector</text>
</a>
</g>
</g>
<!-- Node1&#45;&gt;Node8 -->
<g id="edge70" class="edge">
<title>Node1&#45;&gt;Node8</title>
<path fill="none" stroke="midnightblue" d="M535.63,-357.34C414.89,-347.52 159.45,-317.61 159.45,-240.5 159.45,-240.5 159.45,-240.5 159.45,-121 159.45,-30.69 301.62,-14.24 367.12,-11.45"/>
<polygon fill="midnightblue" stroke="midnightblue" points="367.43,-14.94 377.3,-11.1 367.19,-7.94 367.43,-14.94"/>
</g>
<!-- Node10 -->
<g id="node10" class="node">
<title>Node10</title>
<g id="a_node10"><a xlink:href="fracture_8h.html" target="_top" xlink:title=" ">
<polygon fill="none" stroke="black" points="29.95,-112.5 29.95,-131.5 130.95,-131.5 130.95,-112.5 29.95,-112.5"/>
<text text-anchor="middle" x="80.45" y="-119.5" font-family="Arial" font-size="10.00">geometry/fracture.h</text>
</a>
</g>
</g>
<!-- Node1&#45;&gt;Node10 -->
<g id="edge10" class="edge">
<title>Node1&#45;&gt;Node10</title>
<path fill="none" stroke="midnightblue" d="M535.57,-358.23C418.88,-351.54 175.32,-334.89 145.45,-311 92.41,-268.58 82.51,-180.39 80.76,-141.79"/>
<polygon fill="midnightblue" stroke="midnightblue" points="84.25,-141.39 80.44,-131.5 77.25,-141.6 84.25,-141.39"/>
</g>
<!-- Node13 -->
<g id="node13" class="node">
<title>Node13</title>
<g id="a_node13"><a xlink:href="particleDeck_8h.html" target="_top" xlink:title=" ">
<polygon fill="none" stroke="black" points="910.45,-291.5 910.45,-310.5 1040.45,-310.5 1040.45,-291.5 910.45,-291.5"/>
<text text-anchor="middle" x="975.45" y="-298.5" font-family="Arial" font-size="10.00">inp/pdecks/particleDeck.h</text>
</a>
</g>
</g>
<!-- Node1&#45;&gt;Node13 -->
<g id="edge15" class="edge">
<title>Node1&#45;&gt;Node13</title>
<path fill="none" stroke="midnightblue" d="M659.03,-351.81C728.42,-340.89 840.7,-323.21 911.18,-312.12"/>
<polygon fill="midnightblue" stroke="midnightblue" points="911.93,-315.54 921.26,-310.53 910.84,-308.63 911.93,-315.54"/>
</g>
<!-- Node23 -->
<g id="node18" class="node">
<title>Node23</title>
<g id="a_node18"><a xlink:href="geomObjects_8h.html" target="_top" xlink:title=" ">
<polygon fill="none" stroke="black" points="795.45,-168.5 795.45,-187.5 893.45,-187.5 893.45,-168.5 795.45,-168.5"/>
<text text-anchor="middle" x="844.45" y="-175.5" font-family="Arial" font-size="10.00">util/geomObjects.h</text>
</a>
</g>
</g>
<!-- Node1&#45;&gt;Node23 -->
<g id="edge64" class="edge">
<title>Node1&#45;&gt;Node23</title>
<path fill="none" stroke="midnightblue" d="M616.42,-347.48C662.16,-313.69 778.17,-227.97 824.7,-193.59"/>
<polygon fill="midnightblue" stroke="midnightblue" points="826.83,-196.37 832.79,-187.62 822.67,-190.74 826.83,-196.37"/>
</g>
<!-- Node27 -->
<g id="node22" class="node">
<title>Node27</title>
<g id="a_node22"><a xlink:href="transformation_8h.html" target="_top" xlink:title=" ">
<polygon fill="none" stroke="black" points="399.95,-112.5 399.95,-131.5 486.95,-131.5 486.95,-112.5 399.95,-112.5"/>
<text text-anchor="middle" x="443.45" y="-119.5" font-family="Arial" font-size="10.00">transformation.h</text>
</a>
</g>
</g>
<!-- Node1&#45;&gt;Node27 -->
<g id="edge68" class="edge">
<title>Node1&#45;&gt;Node27</title>
<path fill="none" stroke="midnightblue" d="M563.57,-347.43C526.28,-330.42 466.69,-298.58 429.45,-255 402.97,-224.01 385.28,-205.83 400.45,-168 405.13,-156.33 414.44,-145.97 423.21,-138.14"/>
<polygon fill="midnightblue" stroke="midnightblue" points="425.5,-140.78 430.95,-131.7 421.03,-135.4 425.5,-140.78"/>
</g>
<!-- Node31 -->
<g id="node26" class="node">
<title>Node31</title>
<g id="a_node26"><a xlink:href="material_8h.html" target="_top" xlink:title=" ">
<polygon fill="none" stroke="black" points="438.45,-224.5 438.45,-254.5 532.45,-254.5 532.45,-224.5 438.45,-224.5"/>
<text text-anchor="start" x="446.45" y="-242.5" font-family="Arial" font-size="10.00">material/mparticle</text>
<text text-anchor="middle" x="485.45" y="-231.5" font-family="Arial" font-size="10.00">/material.h</text>
</a>
</g>
</g>
<!-- Node1&#45;&gt;Node31 -->
<g id="edge51" class="edge">
<title>Node1&#45;&gt;Node31</title>
<path fill="none" stroke="midnightblue" d="M584.16,-347.14C564.71,-326.13 528.34,-286.83 505.59,-262.26"/>
<polygon fill="midnightblue" stroke="midnightblue" points="508.08,-259.8 498.72,-254.84 502.95,-264.55 508.08,-259.8"/>
</g>
<!-- Node33 -->
<g id="node28" class="node">
<title>Node33</title>
<g id="a_node28"><a xlink:title=" ">
<polygon fill="none" stroke="#bfbfbf" points="1332.45,-112.5 1332.45,-131.5 1378.45,-131.5 1378.45,-112.5 1332.45,-112.5"/>
<text text-anchor="middle" x="1355.45" y="-119.5" font-family="Arial" font-size="10.00">cstring</text>
</a>
</g>
</g>
<!-- Node1&#45;&gt;Node33 -->
<g id="edge69" class="edge">
<title>Node1&#45;&gt;Node33</title>
<path fill="none" stroke="midnightblue" d="M659.09,-359.44C809.93,-353.99 1189,-337.8 1239.45,-311 1301.18,-278.21 1305.71,-250.27 1337.45,-188 1344.93,-173.33 1349.62,-155.16 1352.34,-141.77"/>
<polygon fill="midnightblue" stroke="midnightblue" points="1355.8,-142.29 1354.17,-131.82 1348.92,-141.02 1355.8,-142.29"/>
</g>
<!-- Node35 -->
<g id="node30" class="node">
<title>Node35</title>
<g id="a_node30"><a xlink:href="matrix_8h.html" target="_top" xlink:title=" ">
<polygon fill="none" stroke="black" points="1385.45,-291.5 1385.45,-310.5 1453.45,-310.5 1453.45,-291.5 1385.45,-291.5"/>
<text text-anchor="middle" x="1419.45" y="-298.5" font-family="Arial" font-size="10.00">util/matrix.h</text>
</a>
</g>
</g>
<!-- Node1&#45;&gt;Node35 -->
<g id="edge65" class="edge">
<title>Node1&#45;&gt;Node35</title>
<path fill="none" stroke="midnightblue" d="M659.4,-359.98C790.98,-356.21 1107.91,-344.18 1371.45,-311 1372.73,-310.84 1374.02,-310.67 1375.33,-310.48"/>
<polygon fill="midnightblue" stroke="midnightblue" points="1376.1,-313.9 1385.44,-308.9 1375.02,-306.99 1376.1,-313.9"/>
</g>
<!-- Node2&#45;&gt;Node3 -->
<g id="edge2" class="edge">
<title>Node2&#45;&gt;Node3</title>
<path fill="none" stroke="midnightblue" d="M257.77,-168.15C262.03,-153.79 272.55,-125.68 292.45,-112 333,-84.14 475.41,-72.88 546.88,-68.9"/>
<polygon fill="midnightblue" stroke="midnightblue" points="547.5,-72.37 557.3,-68.34 547.13,-65.38 547.5,-72.37"/>
</g>
<!-- Node2&#45;&gt;Node8 -->
<g id="edge9" class="edge">
<title>Node2&#45;&gt;Node8</title>
<path fill="none" stroke="midnightblue" d="M255.82,-168.3C256.75,-155.13 260,-129.78 271.45,-112 297.17,-72.05 344.19,-41.07 373.52,-24.47"/>
<polygon fill="midnightblue" stroke="midnightblue" points="375.3,-27.49 382.37,-19.6 371.92,-21.36 375.3,-27.49"/>
</g>
<!-- Node9 -->
<g id="node9" class="node">
<title>Node9</title>
<g id="a_node9"><a xlink:title=" ">
<polygon fill="none" stroke="#bfbfbf" points="301.95,-112.5 301.95,-131.5 342.95,-131.5 342.95,-112.5 301.95,-112.5"/>
<text text-anchor="middle" x="322.45" y="-119.5" font-family="Arial" font-size="10.00">string</text>
</a>
</g>
</g>
<!-- Node2&#45;&gt;Node9 -->
<g id="edge8" class="edge">
<title>Node2&#45;&gt;Node9</title>
<path fill="none" stroke="midnightblue" d="M266.22,-168.32C276.22,-160.26 291.34,-148.08 303.38,-138.37"/>
<polygon fill="midnightblue" stroke="midnightblue" points="305.9,-140.83 311.49,-131.83 301.51,-135.38 305.9,-140.83"/>
</g>
<!-- Node4 -->
<g id="node4" class="node">
<title>Node4</title>
<g id="a_node4"><a xlink:title=" ">
<polygon fill="none" stroke="#bfbfbf" points="628.45,-0.5 628.45,-19.5 672.45,-19.5 672.45,-0.5 628.45,-0.5"/>
<text text-anchor="middle" x="650.45" y="-7.5" font-family="Arial" font-size="10.00">cmath</text>
</a>
</g>
</g>
<!-- Node3&#45;&gt;Node4 -->
<g id="edge3" class="edge">
<title>Node3&#45;&gt;Node4</title>
<path fill="none" stroke="midnightblue" d="M598.41,-56.32C607.58,-48.34 621.39,-36.31 632.48,-26.65"/>
<polygon fill="midnightblue" stroke="midnightblue" points="635.07,-29.04 640.31,-19.83 630.47,-23.76 635.07,-29.04"/>
</g>
<!-- Node5 -->
<g id="node5" class="node">
<title>Node5</title>
<g id="a_node5"><a xlink:title=" ">
<polygon fill="none" stroke="#bfbfbf" points="560.45,-0.5 560.45,-19.5 610.45,-19.5 610.45,-0.5 560.45,-0.5"/>
<text text-anchor="middle" x="585.45" y="-7.5" font-family="Arial" font-size="10.00">iomanip</text>
</a>
</g>
</g>
<!-- Node3&#45;&gt;Node5 -->
<g id="edge4" class="edge">
<title>Node3&#45;&gt;Node5</title>
<path fill="none" stroke="midnightblue" d="M587.96,-56.08C587.56,-49.01 587,-38.86 586.51,-29.99"/>
<polygon fill="midnightblue" stroke="midnightblue" points="589.99,-29.54 585.94,-19.75 583,-29.93 589.99,-29.54"/>
</g>
<!-- Node6 -->
<g id="node6" class="node">
<title>Node6</title>
<g id="a_node6"><a xlink:title=" ">
<polygon fill="none" stroke="#bfbfbf" points="490.45,-0.5 490.45,-19.5 542.45,-19.5 542.45,-0.5 490.45,-0.5"/>
<text text-anchor="middle" x="516.45" y="-7.5" font-family="Arial" font-size="10.00">sstream</text>
</a>
</g>
</g>
<!-- Node3&#45;&gt;Node6 -->
<g id="edge5" class="edge">
<title>Node3&#45;&gt;Node6</title>
<path fill="none" stroke="midnightblue" d="M576.88,-56.32C566.03,-48.18 549.57,-35.84 536.57,-26.09"/>
<polygon fill="midnightblue" stroke="midnightblue" points="538.33,-23.03 528.23,-19.83 534.13,-28.63 538.33,-23.03"/>
</g>
<!-- Node7 -->
<g id="node7" class="node">
<title>Node7</title>
<g id="a_node7"><a xlink:title=" ">
<polygon fill="none" stroke="#bfbfbf" points="851.45,-0.5 851.45,-19.5 905.45,-19.5 905.45,-0.5 851.45,-0.5"/>
<text text-anchor="middle" x="878.45" y="-7.5" font-family="Arial" font-size="10.00">iostream</text>
</a>
</g>
</g>
<!-- Node3&#45;&gt;Node7 -->
<g id="edge6" class="edge">
<title>Node3&#45;&gt;Node7</title>
<path fill="none" stroke="midnightblue" d="M619.49,-59.22C673.13,-49.23 783.01,-28.77 840.88,-18"/>
<polygon fill="midnightblue" stroke="midnightblue" points="841.87,-21.37 851.06,-16.1 840.58,-14.49 841.87,-21.37"/>
</g>
<!-- Node3&#45;&gt;Node8 -->
<g id="edge7" class="edge">
<title>Node3&#45;&gt;Node8</title>
<path fill="none" stroke="midnightblue" d="M558.5,-56.44C523.83,-46.54 466.95,-30.28 431.43,-20.14"/>
<polygon fill="midnightblue" stroke="midnightblue" points="432.16,-16.7 421.58,-17.32 430.24,-23.44 432.16,-16.7"/>
</g>
<!-- Node10&#45;&gt;Node3 -->
<g id="edge11" class="edge">
<title>Node10&#45;&gt;Node3</title>
<path fill="none" stroke="midnightblue" d="M131.02,-115.62C231.54,-104.94 454.76,-81.21 547.16,-71.39"/>
<polygon fill="midnightblue" stroke="midnightblue" points="547.68,-74.85 557.25,-70.32 546.94,-67.89 547.68,-74.85"/>
</g>
<!-- Node10&#45;&gt;Node8 -->
<g id="edge14" class="edge">
<title>Node10&#45;&gt;Node8</title>
<path fill="none" stroke="midnightblue" d="M56.65,-112.35C27.8,-100.61 -14.62,-78.5 5.45,-56 29.43,-29.13 277.43,-16.12 367.22,-12.27"/>
<polygon fill="midnightblue" stroke="midnightblue" points="367.52,-15.76 377.36,-11.84 367.23,-8.76 367.52,-15.76"/>
</g>
<!-- Node11 -->
<g id="node11" class="node">
<title>Node11</title>
<g id="a_node11"><a xlink:title=" ">
<polygon fill="none" stroke="#bfbfbf" points="14.95,-56.5 14.95,-75.5 63.95,-75.5 63.95,-56.5 14.95,-56.5"/>
<text text-anchor="middle" x="39.45" y="-63.5" font-family="Arial" font-size="10.00">stdint.h</text>
</a>
</g>
</g>
<!-- Node10&#45;&gt;Node11 -->
<g id="edge12" class="edge">
<title>Node10&#45;&gt;Node11</title>
<path fill="none" stroke="midnightblue" d="M73.68,-112.08C67.89,-104.46 59.39,-93.26 52.31,-83.94"/>
<polygon fill="midnightblue" stroke="midnightblue" points="54.93,-81.6 46.1,-75.75 49.36,-85.83 54.93,-81.6"/>
</g>
<!-- Node12 -->
<g id="node12" class="node">
<title>Node12</title>
<g id="a_node12"><a xlink:title=" ">
<polygon fill="none" stroke="#bfbfbf" points="81.95,-56.5 81.95,-75.5 130.95,-75.5 130.95,-56.5 81.95,-56.5"/>
<text text-anchor="middle" x="106.45" y="-63.5" font-family="Arial" font-size="10.00">string.h</text>
</a>
</g>
</g>
<!-- Node10&#45;&gt;Node12 -->
<g id="edge13" class="edge">
<title>Node10&#45;&gt;Node12</title>
<path fill="none" stroke="midnightblue" d="M84.75,-112.08C88.3,-104.69 93.47,-93.95 97.88,-84.81"/>
<polygon fill="midnightblue" stroke="midnightblue" points="101.05,-86.28 102.24,-75.75 94.75,-83.24 101.05,-86.28"/>
</g>
<!-- Node14 -->
<g id="node14" class="node">
<title>Node14</title>
<g id="a_node14"><a xlink:href="zoneDeck_8h.html" target="_top" xlink:title=" ">
<polygon fill="none" stroke="black" points="812.95,-230 812.95,-249 881.95,-249 881.95,-230 812.95,-230"/>
<text text-anchor="middle" x="847.45" y="-237" font-family="Arial" font-size="10.00">zoneDeck.h</text>
</a>
</g>
</g>
<!-- Node13&#45;&gt;Node14 -->
<g id="edge16" class="edge">
<title>Node13&#45;&gt;Node14</title>
<path fill="none" stroke="midnightblue" d="M957.11,-291.48C935.63,-281.49 899.83,-264.85 875,-253.31"/>
<polygon fill="midnightblue" stroke="midnightblue" points="876.3,-250.05 865.76,-249.01 873.35,-256.4 876.3,-250.05"/>
</g>
<!-- Node25 -->
<g id="node20" class="node">
<title>Node25</title>
<g id="a_node20"><a xlink:title=" ">
<polygon fill="none" stroke="#bfbfbf" points="1047.45,-112.5 1047.45,-131.5 1099.45,-131.5 1099.45,-112.5 1047.45,-112.5"/>
<text text-anchor="middle" x="1073.45" y="-119.5" font-family="Arial" font-size="10.00">memory</text>
</a>
</g>
</g>
<!-- Node13&#45;&gt;Node25 -->
<g id="edge50" class="edge">
<title>Node13&#45;&gt;Node25</title>
<path fill="none" stroke="midnightblue" d="M1040.57,-293.44C1090.17,-286.95 1152.57,-275.01 1168.45,-255 1201.46,-213.41 1134.7,-161.69 1096.95,-137.17"/>
<polygon fill="midnightblue" stroke="midnightblue" points="1098.37,-133.93 1088.05,-131.54 1094.63,-139.84 1098.37,-133.93"/>
</g>
<!-- Node28 -->
<g id="node23" class="node">
<title>Node28</title>
<g id="a_node23"><a xlink:href="pNeighborDeck_8h.html" target="_top" xlink:title=" ">
<polygon fill="none" stroke="black" points="1067.45,-230 1067.45,-249 1159.45,-249 1159.45,-230 1067.45,-230"/>
<text text-anchor="middle" x="1113.45" y="-237" font-family="Arial" font-size="10.00">pNeighborDeck.h</text>
</a>
</g>
</g>
<!-- Node13&#45;&gt;Node28 -->
<g id="edge42" class="edge">
<title>Node13&#45;&gt;Node28</title>
<path fill="none" stroke="midnightblue" d="M995.22,-291.48C1018.59,-281.4 1057.67,-264.55 1084.46,-253"/>
<polygon fill="midnightblue" stroke="midnightblue" points="1085.92,-256.18 1093.72,-249.01 1083.15,-249.75 1085.92,-256.18"/>
</g>
<!-- Node29 -->
<g id="node24" class="node">
<title>Node29</title>
<g id="a_node24"><a xlink:href="pBCData_8h.html" target="_top" xlink:title=" ">
<polygon fill="none" stroke="black" points="901.95,-230 901.95,-249 966.95,-249 966.95,-230 901.95,-230"/>
<text text-anchor="middle" x="934.45" y="-237" font-family="Arial" font-size="10.00">pBCData.h</text>
</a>
</g>
</g>
<!-- Node13&#45;&gt;Node29 -->
<g id="edge44" class="edge">
<title>Node13&#45;&gt;Node29</title>
<path fill="none" stroke="midnightblue" d="M969.58,-291.48C963.49,-282.64 953.81,-268.59 946.15,-257.48"/>
<polygon fill="midnightblue" stroke="midnightblue" points="948.87,-255.26 940.32,-249.01 943.11,-259.23 948.87,-255.26"/>
</g>
<!-- Node30 -->
<g id="node25" class="node">
<title>Node30</title>
<g id="a_node25"><a xlink:href="pICDeck_8h.html" target="_top" xlink:title=" ">
<polygon fill="none" stroke="black" points="985.45,-230 985.45,-249 1049.45,-249 1049.45,-230 985.45,-230"/>
<text text-anchor="middle" x="1017.45" y="-237" font-family="Arial" font-size="10.00">pICDeck.h</text>
</a>
</g>
</g>
<!-- Node13&#45;&gt;Node30 -->
<g id="edge48" class="edge">
<title>Node13&#45;&gt;Node30</title>
<path fill="none" stroke="midnightblue" d="M981.47,-291.48C987.71,-282.64 997.63,-268.59 1005.47,-257.48"/>
<polygon fill="midnightblue" stroke="midnightblue" points="1008.54,-259.2 1011.45,-249.01 1002.82,-255.16 1008.54,-259.2"/>
</g>
<!-- Node15 -->
<g id="node15" class="node">
<title>Node15</title>
<g id="a_node15"><a xlink:href="materialDeck_8h.html" target="_top" xlink:title=" ">
<polygon fill="none" stroke="black" points="513.45,-168.5 513.45,-187.5 641.45,-187.5 641.45,-168.5 513.45,-168.5"/>
<text text-anchor="middle" x="577.45" y="-175.5" font-family="Arial" font-size="10.00">inp/decks/materialDeck.h</text>
</a>
</g>
</g>
<!-- Node14&#45;&gt;Node15 -->
<g id="edge17" class="edge">
<title>Node14&#45;&gt;Node15</title>
<path fill="none" stroke="midnightblue" d="M812.71,-230.84C765.34,-220.41 680.25,-201.65 626.43,-189.79"/>
<polygon fill="midnightblue" stroke="midnightblue" points="626.95,-186.32 616.43,-187.59 625.44,-193.16 626.95,-186.32"/>
</g>
<!-- Node16 -->
<g id="node16" class="node">
<title>Node16</title>
<g id="a_node16"><a xlink:href="io_8h.html" target="_top" xlink:title=" ">
<polygon fill="none" stroke="red" points="884.45,-112.5 884.45,-131.5 932.45,-131.5 932.45,-112.5 884.45,-112.5"/>
<text text-anchor="middle" x="908.45" y="-119.5" font-family="Arial" font-size="10.00">util/io.h</text>
</a>
</g>
</g>
<!-- Node14&#45;&gt;Node16 -->
<g id="edge40" class="edge">
<title>Node14&#45;&gt;Node16</title>
<path fill="none" stroke="midnightblue" d="M861.96,-229.7C875.01,-220.91 893.47,-206.12 902.45,-188 909.61,-173.56 910.66,-155.11 910.19,-141.56"/>
<polygon fill="midnightblue" stroke="midnightblue" points="913.68,-141.27 909.53,-131.52 906.7,-141.73 913.68,-141.27"/>
</g>
<!-- Node22 -->
<g id="node17" class="node">
<title>Node22</title>
<g id="a_node17"><a xlink:href="meshDeck_8h.html" target="_top" xlink:title=" ">
<polygon fill="none" stroke="black" points="659.95,-168.5 659.95,-187.5 776.95,-187.5 776.95,-168.5 659.95,-168.5"/>
<text text-anchor="middle" x="718.45" y="-175.5" font-family="Arial" font-size="10.00">inp/decks/meshDeck.h</text>
</a>
</g>
</g>
<!-- Node14&#45;&gt;Node22 -->
<g id="edge25" class="edge">
<title>Node14&#45;&gt;Node22</title>
<path fill="none" stroke="midnightblue" d="M828.97,-229.98C807.32,-219.99 771.24,-203.35 746.22,-191.81"/>
<polygon fill="midnightblue" stroke="midnightblue" points="747.45,-188.52 736.9,-187.51 744.52,-194.88 747.45,-188.52"/>
</g>
<!-- Node14&#45;&gt;Node23 -->
<g id="edge28" class="edge">
<title>Node14&#45;&gt;Node23</title>
<path fill="none" stroke="midnightblue" d="M847.02,-229.98C846.6,-221.58 845.94,-208.48 845.39,-197.66"/>
<polygon fill="midnightblue" stroke="midnightblue" points="848.88,-197.32 844.88,-187.51 841.89,-197.67 848.88,-197.32"/>
</g>
<!-- Node14&#45;&gt;Node25 -->
<g id="edge41" class="edge">
<title>Node14&#45;&gt;Node25</title>
<path fill="none" stroke="midnightblue" d="M873.2,-229.85C899.13,-220.76 939.99,-205.37 973.45,-188 1002.62,-172.86 1034.05,-151.51 1053.73,-137.47"/>
<polygon fill="midnightblue" stroke="midnightblue" points="1055.84,-140.27 1061.9,-131.58 1051.74,-134.59 1055.84,-140.27"/>
</g>
<!-- Node15&#45;&gt;Node4 -->
<g id="edge22" class="edge">
<title>Node15&#45;&gt;Node4</title>
<path fill="none" stroke="midnightblue" d="M583.77,-168.35C590.04,-159.5 599.67,-145.24 606.45,-132 624.3,-97.15 638.33,-53.34 645.4,-29.15"/>
<polygon fill="midnightblue" stroke="midnightblue" points="648.77,-30.09 648.15,-19.52 642.04,-28.17 648.77,-30.09"/>
</g>
<!-- Node15&#45;&gt;Node8 -->
<g id="edge24" class="edge">
<title>Node15&#45;&gt;Node8</title>
<path fill="none" stroke="midnightblue" d="M513.37,-170.03C465.45,-163.34 405.69,-151.34 390.45,-132 367.08,-102.33 380.86,-54.87 391.22,-29.09"/>
<polygon fill="midnightblue" stroke="midnightblue" points="394.49,-30.34 395.2,-19.77 388.05,-27.59 394.49,-30.34"/>
</g>
<!-- Node15&#45;&gt;Node9 -->
<g id="edge23" class="edge">
<title>Node15&#45;&gt;Node9</title>
<path fill="none" stroke="midnightblue" d="M532.23,-168.43C487.65,-159.83 417.66,-145.89 357.45,-132 356,-131.67 354.52,-131.31 353.02,-130.95"/>
<polygon fill="midnightblue" stroke="midnightblue" points="353.69,-127.51 343.14,-128.5 352,-134.31 353.69,-127.51"/>
</g>
<!-- Node15&#45;&gt;Node16 -->
<g id="edge18" class="edge">
<title>Node15&#45;&gt;Node16</title>
<path fill="none" stroke="midnightblue" d="M629.9,-168.44C698.37,-157.27 816.3,-138.03 874.27,-128.58"/>
<polygon fill="midnightblue" stroke="midnightblue" points="875.06,-131.99 884.37,-126.93 873.93,-125.09 875.06,-131.99"/>
</g>
<!-- Node16&#45;&gt;Node3 -->
<g id="edge19" class="edge">
<title>Node16&#45;&gt;Node3</title>
<path fill="none" stroke="midnightblue" d="M884.4,-116.94C830.07,-107.77 697.32,-85.37 629.62,-73.95"/>
<polygon fill="midnightblue" stroke="midnightblue" points="630.17,-70.49 619.72,-72.28 629,-77.39 630.17,-70.49"/>
</g>
<!-- Node16&#45;&gt;Node7 -->
<g id="edge20" class="edge">
<title>Node16&#45;&gt;Node7</title>
<path fill="none" stroke="midnightblue" d="M906.1,-112.37C901.24,-94.54 889.99,-53.3 883.44,-29.27"/>
<polygon fill="midnightblue" stroke="midnightblue" points="886.8,-28.32 880.8,-19.59 880.05,-30.16 886.8,-28.32"/>
</g>
<!-- Node16&#45;&gt;Node8 -->
<g id="edge21" class="edge">
<title>Node16&#45;&gt;Node8</title>
<path fill="none" stroke="midnightblue" d="M884.44,-118.9C814.58,-112.66 612.38,-93.55 548.45,-76 502.73,-63.45 452.84,-39.38 423.95,-24.31"/>
<polygon fill="midnightblue" stroke="midnightblue" points="425.48,-21.16 415,-19.58 422.2,-27.34 425.48,-21.16"/>
</g>
<!-- Node22&#45;&gt;Node9 -->
<g id="edge27" class="edge">
<title>Node22&#45;&gt;Node9</title>
<path fill="none" stroke="midnightblue" d="M659.59,-168.97C574.28,-157.34 419.29,-136.2 353.41,-127.22"/>
<polygon fill="midnightblue" stroke="midnightblue" points="353.65,-123.72 343.26,-125.84 352.7,-130.66 353.65,-123.72"/>
</g>
<!-- Node22&#45;&gt;Node16 -->
<g id="edge26" class="edge">
<title>Node22&#45;&gt;Node16</title>
<path fill="none" stroke="midnightblue" d="M748.56,-168.44C782.75,-158.73 838.42,-142.9 874.23,-132.73"/>
<polygon fill="midnightblue" stroke="midnightblue" points="875.55,-135.99 884.21,-129.89 873.64,-129.26 875.55,-135.99"/>
</g>
<!-- Node23&#45;&gt;Node3 -->
<g id="edge36" class="edge">
<title>Node23&#45;&gt;Node3</title>
<path fill="none" stroke="midnightblue" d="M840.96,-168.25C834.83,-154.05 820.7,-126.15 799.45,-112 747.83,-77.61 674.7,-68.88 629.49,-67.01"/>
<polygon fill="midnightblue" stroke="midnightblue" points="629.57,-63.51 619.46,-66.68 629.34,-70.5 629.57,-63.51"/>
</g>
<!-- Node23&#45;&gt;Node7 -->
<g id="edge29" class="edge">
<title>Node23&#45;&gt;Node7</title>
<path fill="none" stroke="midnightblue" d="M846.28,-168.08C851.63,-141.95 867.35,-65.21 874.65,-29.58"/>
<polygon fill="midnightblue" stroke="midnightblue" points="878.12,-30.07 876.7,-19.57 871.26,-28.66 878.12,-30.07"/>
</g>
<!-- Node23&#45;&gt;Node16 -->
<g id="edge35" class="edge">
<title>Node23&#45;&gt;Node16</title>
<path fill="none" stroke="midnightblue" d="M854.74,-168.32C864.29,-160.26 878.73,-148.08 890.24,-138.37"/>
<polygon fill="midnightblue" stroke="midnightblue" points="892.6,-140.96 897.98,-131.83 888.08,-135.61 892.6,-140.96"/>
</g>
<!-- Node24 -->
<g id="node19" class="node">
<title>Node24</title>
<g id="a_node19"><a xlink:title=" ">
<polygon fill="none" stroke="#bfbfbf" points="750.45,-112.5 750.45,-131.5 790.45,-131.5 790.45,-112.5 750.45,-112.5"/>
<text text-anchor="middle" x="770.45" y="-119.5" font-family="Arial" font-size="10.00">utility</text>
</a>
</g>
</g>
<!-- Node23&#45;&gt;Node24 -->
<g id="edge30" class="edge">
<title>Node23&#45;&gt;Node24</title>
<path fill="none" stroke="midnightblue" d="M832.56,-168.32C821.3,-160.11 804.17,-147.6 790.74,-137.81"/>
<polygon fill="midnightblue" stroke="midnightblue" points="792.7,-134.9 782.56,-131.83 788.57,-140.56 792.7,-134.9"/>
</g>
<!-- Node23&#45;&gt;Node25 -->
<g id="edge31" class="edge">
<title>Node23&#45;&gt;Node25</title>
<path fill="none" stroke="midnightblue" d="M880.74,-168.44C923.61,-158.33 994.52,-141.61 1037.32,-131.52"/>
<polygon fill="midnightblue" stroke="midnightblue" points="1038.38,-134.87 1047.31,-129.16 1036.77,-128.05 1038.38,-134.87"/>
</g>
<!-- Node26 -->
<g id="node21" class="node">
<title>Node26</title>
<g id="a_node21"><a xlink:href="function_8h.html" target="_top" xlink:title=" ">
<polygon fill="none" stroke="black" points="504.95,-112.5 504.95,-131.5 563.95,-131.5 563.95,-112.5 504.95,-112.5"/>
<text text-anchor="middle" x="534.45" y="-119.5" font-family="Arial" font-size="10.00">function.h</text>
</a>
</g>
</g>
<!-- Node23&#45;&gt;Node26 -->
<g id="edge32" class="edge">
<title>Node23&#45;&gt;Node26</title>
<path fill="none" stroke="midnightblue" d="M795.33,-168.44C734.1,-157.78 630.63,-139.75 574.15,-129.92"/>
<polygon fill="midnightblue" stroke="midnightblue" points="574.63,-126.45 564.17,-128.18 573.42,-133.34 574.63,-126.45"/>
</g>
<!-- Node23&#45;&gt;Node27 -->
<g id="edge37" class="edge">
<title>Node23&#45;&gt;Node27</title>
<path fill="none" stroke="midnightblue" d="M795.21,-169.38C791.91,-168.91 788.63,-168.44 785.45,-168 660.07,-150.66 625.65,-151.05 497.34,-132.22"/>
<polygon fill="midnightblue" stroke="midnightblue" points="497.53,-128.71 487.12,-130.71 496.5,-135.64 497.53,-128.71"/>
</g>
<!-- Node26&#45;&gt;Node3 -->
<g id="edge33" class="edge">
<title>Node26&#45;&gt;Node3</title>
<path fill="none" stroke="midnightblue" d="M543.37,-112.08C551.23,-104.22 562.88,-92.57 572.37,-83.08"/>
<polygon fill="midnightblue" stroke="midnightblue" points="575.11,-85.3 579.7,-75.75 570.16,-80.35 575.11,-85.3"/>
</g>
<!-- Node26&#45;&gt;Node8 -->
<g id="edge34" class="edge">
<title>Node26&#45;&gt;Node8</title>
<path fill="none" stroke="midnightblue" d="M523.86,-112.37C500.99,-93.73 446.74,-49.53 418.03,-26.13"/>
<polygon fill="midnightblue" stroke="midnightblue" points="419.96,-23.19 410,-19.59 415.54,-28.62 419.96,-23.19"/>
</g>
<!-- Node27&#45;&gt;Node3 -->
<g id="edge38" class="edge">
<title>Node27&#45;&gt;Node3</title>
<path fill="none" stroke="midnightblue" d="M466.43,-112.44C490.61,-103.44 528.87,-89.19 556.1,-79.05"/>
<polygon fill="midnightblue" stroke="midnightblue" points="557.43,-82.29 565.58,-75.52 554.99,-75.73 557.43,-82.29"/>
</g>
<!-- Node27&#45;&gt;Node8 -->
<g id="edge39" class="edge">
<title>Node27&#45;&gt;Node8</title>
<path fill="none" stroke="midnightblue" d="M440,-112.37C432.83,-94.46 416.22,-52.92 406.63,-28.95"/>
<polygon fill="midnightblue" stroke="midnightblue" points="409.85,-27.58 402.89,-19.59 403.35,-30.18 409.85,-27.58"/>
</g>
<!-- Node28&#45;&gt;Node16 -->
<g id="edge43" class="edge">
<title>Node28&#45;&gt;Node16</title>
<path fill="none" stroke="midnightblue" d="M1098.04,-229.82C1062.64,-209.87 975.25,-160.64 932.62,-136.62"/>
<polygon fill="midnightblue" stroke="midnightblue" points="934.19,-133.48 923.76,-131.62 930.75,-139.58 934.19,-133.48"/>
</g>
<!-- Node29&#45;&gt;Node16 -->
<g id="edge46" class="edge">
<title>Node29&#45;&gt;Node16</title>
<path fill="none" stroke="midnightblue" d="M936.15,-229.62C938.39,-216.05 941.4,-189.47 935.45,-168 932.66,-157.92 926.94,-147.83 921.49,-139.77"/>
<polygon fill="midnightblue" stroke="midnightblue" points="924.3,-137.69 915.6,-131.64 918.63,-141.79 924.3,-137.69"/>
</g>
<!-- Node29&#45;&gt;Node23 -->
<g id="edge45" class="edge">
<title>Node29&#45;&gt;Node23</title>
<path fill="none" stroke="midnightblue" d="M921.56,-229.98C906.99,-220.34 883.05,-204.52 865.71,-193.05"/>
<polygon fill="midnightblue" stroke="midnightblue" points="867.6,-190.1 857.32,-187.51 863.73,-195.94 867.6,-190.1"/>
</g>
<!-- Node29&#45;&gt;Node25 -->
<g id="edge47" class="edge">
<title>Node29&#45;&gt;Node25</title>
<path fill="none" stroke="midnightblue" d="M958.86,-229.99C964.62,-228 970.75,-225.91 976.45,-224 1025.63,-207.54 1056.96,-229.95 1087.45,-188 1097.39,-174.33 1091.38,-155.02 1084.41,-141.01"/>
<polygon fill="midnightblue" stroke="midnightblue" points="1087.28,-138.96 1079.38,-131.89 1081.15,-142.34 1087.28,-138.96"/>
</g>
<!-- Node30&#45;&gt;Node16 -->
<g id="edge49" class="edge">
<title>Node30&#45;&gt;Node16</title>
<path fill="none" stroke="midnightblue" d="M1009.35,-229.79C996.93,-216.45 972.42,-190.17 951.45,-168 942.34,-158.36 932.08,-147.62 923.86,-139.05"/>
<polygon fill="midnightblue" stroke="midnightblue" points="926.17,-136.4 916.72,-131.6 921.12,-141.24 926.17,-136.4"/>
</g>
<!-- Node31&#45;&gt;Node3 -->
<g id="edge59" class="edge">
<title>Node31&#45;&gt;Node3</title>
<path fill="none" stroke="midnightblue" d="M486,-224.31C487.28,-208.91 491.41,-184.35 504.45,-168 525.78,-141.27 551.42,-158.96 572.45,-132 582.83,-118.7 586.59,-99.58 587.89,-85.52"/>
<polygon fill="midnightblue" stroke="midnightblue" points="591.38,-85.72 588.49,-75.53 584.4,-85.3 591.38,-85.72"/>
</g>
<!-- Node31&#45;&gt;Node8 -->
<g id="edge63" class="edge">
<title>Node31&#45;&gt;Node8</title>
<path fill="none" stroke="midnightblue" d="M438.22,-236.64C368.72,-232.79 244.1,-221.32 216.45,-188 177.13,-140.6 140.09,-183.8 298.45,-56 318.96,-39.45 346.51,-27.71 367.66,-20.38"/>
<polygon fill="midnightblue" stroke="midnightblue" points="368.78,-23.7 377.17,-17.23 366.58,-17.05 368.78,-23.7"/>
</g>
<!-- Node31&#45;&gt;Node9 -->
<g id="edge62" class="edge">
<title>Node31&#45;&gt;Node9</title>
<path fill="none" stroke="midnightblue" d="M459.5,-224.5C442.31,-214.89 419.51,-201.48 400.45,-188 378.35,-172.37 354.7,-152.11 339.31,-138.39"/>
<polygon fill="midnightblue" stroke="midnightblue" points="341.44,-135.6 331.67,-131.51 336.76,-140.8 341.44,-135.6"/>
</g>
<!-- Node31&#45;&gt;Node15 -->
<g id="edge57" class="edge">
<title>Node31&#45;&gt;Node15</title>
<path fill="none" stroke="midnightblue" d="M507.26,-224.4C521.86,-214.95 541.03,-202.56 555.64,-193.11"/>
<polygon fill="midnightblue" stroke="midnightblue" points="557.57,-196.03 564.07,-187.66 553.77,-190.15 557.57,-196.03"/>
</g>
<!-- Node31&#45;&gt;Node25 -->
<g id="edge61" class="edge">
<title>Node31&#45;&gt;Node25</title>
<path fill="none" stroke="midnightblue" d="M532.71,-236.51C610.73,-232.39 770.94,-220.45 902.45,-188 954.71,-175.11 1012.72,-150.8 1045.96,-135.84"/>
<polygon fill="midnightblue" stroke="midnightblue" points="1047.8,-138.85 1055.45,-131.52 1044.9,-132.48 1047.8,-138.85"/>
</g>
<!-- Node31&#45;&gt;Node26 -->
<g id="edge58" class="edge">
<title>Node31&#45;&gt;Node26</title>
<path fill="none" stroke="midnightblue" d="M450.33,-224.45C423.1,-211.42 392.48,-190.67 408.45,-168 413.72,-160.53 460.17,-145.22 495.16,-134.55"/>
<polygon fill="midnightblue" stroke="midnightblue" points="496.57,-137.78 505.13,-131.53 494.55,-131.08 496.57,-137.78"/>
</g>
<!-- Node32 -->
<g id="node27" class="node">
<title>Node32</title>
<g id="a_node27"><a xlink:href="influenceFn_8h.html" target="_top" xlink:title=" ">
<polygon fill="none" stroke="black" points="1253.95,-168.5 1253.95,-187.5 1328.95,-187.5 1328.95,-168.5 1253.95,-168.5"/>
<text text-anchor="middle" x="1291.45" y="-175.5" font-family="Arial" font-size="10.00">influenceFn.h</text>
</a>
</g>
</g>
<!-- Node31&#45;&gt;Node32 -->
<g id="edge52" class="edge">
<title>Node31&#45;&gt;Node32</title>
<path fill="none" stroke="midnightblue" d="M532.57,-235.02C674.97,-224.51 1099.9,-193.14 1243.46,-182.54"/>
<polygon fill="midnightblue" stroke="midnightblue" points="1243.98,-186.01 1253.7,-181.79 1243.47,-179.03 1243.98,-186.01"/>
</g>
<!-- Node34 -->
<g id="node29" class="node">
<title>Node34</title>
<g id="a_node29"><a xlink:title=" ">
<polygon fill="none" stroke="#bfbfbf" points="417.45,-168.5 417.45,-187.5 457.45,-187.5 457.45,-168.5 417.45,-168.5"/>
<text text-anchor="middle" x="437.45" y="-175.5" font-family="Arial" font-size="10.00">limits</text>
</a>
</g>
</g>
<!-- Node31&#45;&gt;Node34 -->
<g id="edge60" class="edge">
<title>Node31&#45;&gt;Node34</title>
<path fill="none" stroke="midnightblue" d="M474.08,-224.4C467.1,-215.75 458.14,-204.64 450.82,-195.58"/>
<polygon fill="midnightblue" stroke="midnightblue" points="453.44,-193.24 444.44,-187.66 447.99,-197.64 453.44,-193.24"/>
</g>
<!-- Node32&#45;&gt;Node7 -->
<g id="edge55" class="edge">
<title>Node32&#45;&gt;Node7</title>
<path fill="none" stroke="midnightblue" d="M1293.59,-168.48C1298.57,-146.37 1308.3,-86.76 1277.45,-56 1252.08,-30.7 1010.16,-17.02 915.84,-12.61"/>
<polygon fill="midnightblue" stroke="midnightblue" points="915.76,-9.1 905.61,-12.14 915.44,-16.09 915.76,-9.1"/>
</g>
<!-- Node32&#45;&gt;Node8 -->
<g id="edge56" class="edge">
<title>Node32&#45;&gt;Node8</title>
<path fill="none" stroke="midnightblue" d="M1287.42,-168.47C1280.11,-154.07 1263.19,-125.21 1239.45,-112 1221.38,-101.94 584.27,-31.33 431.93,-14.57"/>
<polygon fill="midnightblue" stroke="midnightblue" points="432.14,-11.07 421.82,-13.45 431.37,-18.03 432.14,-11.07"/>
</g>
<!-- Node32&#45;&gt;Node16 -->
<g id="edge53" class="edge">
<title>Node32&#45;&gt;Node16</title>
<path fill="none" stroke="midnightblue" d="M1253.68,-171.67C1179.19,-161.17 1014.36,-137.93 942.76,-127.84"/>
<polygon fill="midnightblue" stroke="midnightblue" points="942.89,-124.32 932.5,-126.39 941.91,-131.25 942.89,-124.32"/>
</g>
<!-- Node32&#45;&gt;Node33 -->
<g id="edge54" class="edge">
<title>Node32&#45;&gt;Node33</title>
<path fill="none" stroke="midnightblue" d="M1301.74,-168.32C1311.29,-160.26 1325.73,-148.08 1337.24,-138.37"/>
<polygon fill="midnightblue" stroke="midnightblue" points="1339.6,-140.96 1344.98,-131.83 1335.08,-135.61 1339.6,-140.96"/>
</g>
<!-- Node35&#45;&gt;Node3 -->
<g id="edge66" class="edge">
<title>Node35&#45;&gt;Node3</title>
<path fill="none" stroke="midnightblue" d="M1421.26,-291.15C1426.9,-260.73 1440.78,-159.65 1387.45,-112 1358.97,-86.55 789.64,-71.61 629.84,-67.91"/>
<polygon fill="midnightblue" stroke="midnightblue" points="629.56,-64.4 619.48,-67.67 629.4,-71.4 629.56,-64.4"/>
</g>
</g>
</svg>
