<?xml version="1.0" encoding="UTF-8" standalone="no"?>
<!DOCTYPE svg PUBLIC "-//W3C//DTD SVG 1.1//EN"
 "http://www.w3.org/Graphics/SVG/1.1/DTD/svg11.dtd">
<!-- Generated by graphviz version 2.43.0 (0)
 -->
<!-- Title: /home/user/project/src/particle/refParticle.h Pages: 1 -->
<svg width="904pt" height="184pt"
 viewBox="0.00 0.00 903.50 184.00" xmlns="http://www.w3.org/2000/svg" xmlns:xlink="http://www.w3.org/1999/xlink">
<g id="graph0" class="graph" transform="scale(1 1) rotate(0) translate(4 180)">
<title>/home/user/project/src/particle/refParticle.h</title>
<!-- Node1 -->
<g id="node1" class="node">
<title>Node1</title>
<g id="a_node1"><a xlink:title=" ">
<polygon fill="#bfbfbf" stroke="black" points="570,-145.5 570,-175.5 693,-175.5 693,-145.5 570,-145.5"/>
<text text-anchor="start" x="578" y="-163.5" font-family="Arial" font-size="10.00">/home/user/project</text>
<text text-anchor="middle" x="631.5" y="-152.5" font-family="Arial" font-size="10.00">/src/particle/refParticle.h</text>
</a>
</g>
</g>
<!-- Node2 -->
<g id="node2" class="node">
<title>Node2</title>
<g id="a_node2"><a xlink:href="modelData_8cpp.html" target="_top" xlink:title=" ">
<polygon fill="none" stroke="black" points="0,-6 0,-36 131,-36 131,-6 0,-6"/>
<text text-anchor="start" x="8" y="-24" font-family="Arial" font-size="10.00">/home/user/project</text>
<text text-anchor="middle" x="65.5" y="-13" font-family="Arial" font-size="10.00">/src/model/modelData.cpp</text>
</a>
</g>
</g>
<!-- Node1&#45;&gt;Node2 -->
<g id="edge1" class="edge">
<title>Node1&#45;&gt;Node2</title>
<path fill="none" stroke="midnightblue" d="M560.12,-143.15C464.25,-121.03 288.69,-79.97 139.5,-42 132.15,-40.13 124.4,-38.1 116.8,-36.08"/>
<polygon fill="midnightblue" stroke="midnightblue" points="559.46,-146.59 569.99,-145.43 561.04,-139.77 559.46,-146.59"/>
</g>
<!-- Node3 -->
<g id="node3" class="node">
<title>Node3</title>
<g id="a_node3"><a xlink:href="particle_8h.html" target="_top" xlink:title=" ">
<polygon fill="none" stroke="black" points="460.5,-78.5 460.5,-108.5 570.5,-108.5 570.5,-78.5 460.5,-78.5"/>
<text text-anchor="start" x="468.5" y="-96.5" font-family="Arial" font-size="10.00">/home/user/project</text>
<text text-anchor="middle" x="515.5" y="-85.5" font-family="Arial" font-size="10.00">/src/particle/particle.h</text>
</a>
</g>
</g>
<!-- Node1&#45;&gt;Node3 -->
<g id="edge2" class="edge">
<title>Node1&#45;&gt;Node3</title>
<path fill="none" stroke="midnightblue" d="M597.23,-140.3C579.08,-130.12 557.18,-117.85 540.62,-108.58"/>
<polygon fill="midnightblue" stroke="midnightblue" points="595.9,-143.56 606.33,-145.4 599.32,-137.45 595.9,-143.56"/>
</g>
<!-- Node6 -->
<g id="node6" class="node">
<title>Node6</title>
<g id="a_node6"><a xlink:href="vtkParticleReader_8cpp.html" target="_top" xlink:title=" ">
<polygon fill="none" stroke="black" points="591.5,-6 591.5,-36 737.5,-36 737.5,-6 591.5,-6"/>
<text text-anchor="start" x="599.5" y="-24" font-family="Arial" font-size="10.00">/home/user/project</text>
<text text-anchor="middle" x="664.5" y="-13" font-family="Arial" font-size="10.00">/src/rw/vtkParticleReader.cpp</text>
</a>
</g>
</g>
<!-- Node1&#45;&gt;Node6 -->
<g id="edge10" class="edge">
<title>Node1&#45;&gt;Node6</title>
<path fill="none" stroke="midnightblue" d="M637.31,-135.29C644.19,-106.61 655.43,-59.78 661.06,-36.33"/>
<polygon fill="midnightblue" stroke="midnightblue" points="633.84,-134.76 634.91,-145.3 640.64,-136.4 633.84,-134.76"/>
</g>
<!-- Node7 -->
<g id="node7" class="node">
<title>Node7</title>
<g id="a_node7"><a xlink:href="vtkParticleWriter_8cpp.html" target="_top" xlink:title=" ">
<polygon fill="none" stroke="black" points="755.5,-6 755.5,-36 895.5,-36 895.5,-6 755.5,-6"/>
<text text-anchor="start" x="763.5" y="-24" font-family="Arial" font-size="10.00">/home/user/project</text>
<text text-anchor="middle" x="825.5" y="-13" font-family="Arial" font-size="10.00">/src/rw/vtkParticleWriter.cpp</text>
</a>
</g>
</g>
<!-- Node1&#45;&gt;Node7 -->
<g id="edge11" class="edge">
<title>Node1&#45;&gt;Node7</title>
<path fill="none" stroke="midnightblue" d="M643.13,-135.99C653.04,-118.02 668.81,-93.74 688.5,-78 712.79,-58.59 744.72,-45.02 771.65,-36.1"/>
<polygon fill="midnightblue" stroke="midnightblue" points="639.82,-134.76 638.23,-145.23 646.01,-138.04 639.82,-134.76"/>
</g>
<!-- Node9 -->
<g id="node9" class="node">
<title>Node9</title>
<g id="a_node9"><a xlink:href="refParticle_8cpp.html" target="_top" xlink:title=" ">
<polygon fill="none" stroke="black" points="697.5,-78.5 697.5,-108.5 831.5,-108.5 831.5,-78.5 697.5,-78.5"/>
<text text-anchor="start" x="705.5" y="-96.5" font-family="Arial" font-size="10.00">/home/user/project</text>
<text text-anchor="middle" x="764.5" y="-85.5" font-family="Arial" font-size="10.00">/src/particle/refParticle.cpp</text>
</a>
</g>
</g>
<!-- Node1&#45;&gt;Node9 -->
<g id="edge9" class="edge">
<title>Node1&#45;&gt;Node9</title>
<path fill="none" stroke="midnightblue" d="M669.37,-140.99C690.45,-130.69 716.28,-118.07 735.7,-108.58"/>
<polygon fill="midnightblue" stroke="midnightblue" points="667.81,-137.86 660.36,-145.4 670.88,-144.15 667.81,-137.86"/>
</g>
<!-- Node3&#45;&gt;Node2 -->
<g id="edge4" class="edge">
<title>Node3&#45;&gt;Node2</title>
<path fill="none" stroke="midnightblue" d="M450.05,-86.33C374.69,-78.61 247.42,-63.73 139.5,-42 131.15,-40.32 122.35,-38.23 113.85,-36.04"/>
<polygon fill="midnightblue" stroke="midnightblue" points="450.03,-89.84 460.33,-87.37 450.73,-82.88 450.03,-89.84"/>
</g>
<!-- Node4 -->
<g id="node4" class="node">
<title>Node4</title>
<g id="a_node4"><a xlink:href="demModel_8cpp.html" target="_top" xlink:title=" ">
<polygon fill="none" stroke="black" points="149,-6 149,-36 300,-36 300,-6 149,-6"/>
<text text-anchor="start" x="157" y="-24" font-family="Arial" font-size="10.00">/home/user/project</text>
<text text-anchor="middle" x="224.5" y="-13" font-family="Arial" font-size="10.00">/src/model/dem/demModel.cpp</text>
</a>
</g>
</g>
<!-- Node3&#45;&gt;Node4 -->
<g id="edge3" class="edge">
<title>Node3&#45;&gt;Node4</title>
<path fill="none" stroke="midnightblue" d="M450.6,-76.78C400.18,-64.56 330.88,-47.77 282.34,-36.01"/>
<polygon fill="midnightblue" stroke="midnightblue" points="449.88,-80.2 460.42,-79.16 451.53,-73.4 449.88,-80.2"/>
</g>
<!-- Node5 -->
<g id="node5" class="node">
<title>Node5</title>
<g id="a_node5"><a xlink:href="particle_8cpp.html" target="_top" xlink:title=" ">
<polygon fill="none" stroke="black" points="318,-6 318,-36 439,-36 439,-6 318,-6"/>
<text text-anchor="start" x="326" y="-24" font-family="Arial" font-size="10.00">/home/user/project</text>
<text text-anchor="middle" x="378.5" y="-13" font-family="Arial" font-size="10.00">/src/particle/particle.cpp</text>
</a>
</g>
</g>
<!-- Node3&#45;&gt;Node5 -->
<g id="edge5" class="edge">
<title>Node3&#45;&gt;Node5</title>
<path fill="none" stroke="midnightblue" d="M479,-73.72C456.01,-61.89 426.84,-46.87 405.85,-36.07"/>
<polygon fill="midnightblue" stroke="midnightblue" points="477.61,-76.94 488.11,-78.4 480.82,-70.71 477.61,-76.94"/>
</g>
<!-- Node3&#45;&gt;Node6 -->
<g id="edge6" class="edge">
<title>Node3&#45;&gt;Node6</title>
<path fill="none" stroke="midnightblue" d="M554.54,-74.03C579.63,-62.16 611.73,-46.97 634.76,-36.07"/>
<polygon fill="midnightblue" stroke="midnightblue" points="552.84,-70.96 545.29,-78.4 555.83,-77.29 552.84,-70.96"/>
</g>
<!-- Node3&#45;&gt;Node7 -->
<g id="edge7" class="edge">
<title>Node3&#45;&gt;Node7</title>
<path fill="none" stroke="midnightblue" d="M580.6,-78.86C626.95,-69.01 690.66,-55.17 746.5,-42 754.49,-40.12 762.91,-38.06 771.16,-36.01"/>
<polygon fill="midnightblue" stroke="midnightblue" points="579.75,-75.47 570.69,-80.97 581.2,-82.31 579.75,-75.47"/>
</g>
<!-- Node8 -->
<g id="node8" class="node">
<title>Node8</title>
<g id="a_node8"><a xlink:href="testParticleLib_8cpp.html" target="_top" xlink:title=" ">
<polygon fill="none" stroke="black" points="457.5,-0.5 457.5,-41.5 573.5,-41.5 573.5,-0.5 457.5,-0.5"/>
<text text-anchor="start" x="465.5" y="-29.5" font-family="Arial" font-size="10.00">/home/user/project</text>
<text text-anchor="start" x="465.5" y="-18.5" font-family="Arial" font-size="10.00">/test/test_exec/particle</text>
<text text-anchor="middle" x="515.5" y="-7.5" font-family="Arial" font-size="10.00">/testParticleLib.cpp</text>
</a>
</g>
</g>
<!-- Node3&#45;&gt;Node8 -->
<g id="edge8" class="edge">
<title>Node3&#45;&gt;Node8</title>
<path fill="none" stroke="midnightblue" d="M515.5,-67.98C515.5,-59.35 515.5,-49.76 515.5,-41.59"/>
<polygon fill="midnightblue" stroke="midnightblue" points="512,-68.23 515.5,-78.23 519,-68.23 512,-68.23"/>
</g>
</g>
</svg>
