<?xml version="1.0" encoding="UTF-8" standalone="no"?>
<!DOCTYPE svg PUBLIC "-//W3C//DTD SVG 1.1//EN"
 "http://www.w3.org/Graphics/SVG/1.1/DTD/svg11.dtd">
<!-- Generated by graphviz version 2.43.0 (0)
 -->
<!-- Title: /home/user/project/src/particle/refParticle.cpp Pages: 1 -->
<svg width="1623pt" height="442pt"
 viewBox="0.00 0.00 1622.50 442.00" xmlns="http://www.w3.org/2000/svg" xmlns:xlink="http://www.w3.org/1999/xlink">
<g id="graph0" class="graph" transform="scale(1 1) rotate(0) translate(4 438)">
<title>/home/user/project/src/particle/refParticle.cpp</title>
<!-- Node1 -->
<g id="node1" class="node">
<title>Node1</title>
<g id="a_node1"><a xlink:title=" ">
<polygon fill="#bfbfbf" stroke="black" points="1046,-403.5 1046,-433.5 1180,-433.5 1180,-403.5 1046,-403.5"/>
<text text-anchor="start" x="1054" y="-421.5" font-family="Arial" font-size="10.00">/home/user/project</text>
<text text-anchor="middle" x="1113" y="-410.5" font-family="Arial" font-size="10.00">/src/particle/refParticle.cpp</text>
</a>
</g>
</g>
<!-- Node2 -->
<g id="node2" class="node">
<title>Node2</title>
<g id="a_node2"><a xlink:href="refParticle_8h.html" target="_top" xlink:title=" ">
<polygon fill="none" stroke="black" points="1078.5,-347.5 1078.5,-366.5 1147.5,-366.5 1147.5,-347.5 1078.5,-347.5"/>
<text text-anchor="middle" x="1113" y="-354.5" font-family="Arial" font-size="10.00">refParticle.h</text>
</a>
</g>
</g>
<!-- Node1&#45;&gt;Node2 -->
<g id="edge1" class="edge">
<title>Node1&#45;&gt;Node2</title>
<path fill="none" stroke="midnightblue" d="M1113,-403.4C1113,-395.47 1113,-385.46 1113,-376.86"/>
<polygon fill="midnightblue" stroke="midnightblue" points="1116.5,-376.66 1113,-366.66 1109.5,-376.66 1116.5,-376.66"/>
</g>
<!-- Node8 -->
<g id="node8" class="node">
<title>Node8</title>
<g id="a_node8"><a xlink:title=" ">
<polygon fill="none" stroke="#bfbfbf" points="405,-0.5 405,-19.5 459,-19.5 459,-0.5 405,-0.5"/>
<text text-anchor="middle" x="432" y="-7.5" font-family="Arial" font-size="10.00">iostream</text>
</a>
</g>
</g>
<!-- Node1&#45;&gt;Node8 -->
<g id="edge81" class="edge">
<title>Node1&#45;&gt;Node8</title>
<path fill="none" stroke="midnightblue" d="M1045.88,-417.62C805.25,-417.17 0,-407.75 0,-302 0,-302 0,-302 0,-121 0,-39.82 290.13,-17.82 394.86,-12.52"/>
<polygon fill="midnightblue" stroke="midnightblue" points="395.16,-16.01 404.98,-12.03 394.82,-9.02 395.16,-16.01"/>
</g>
<!-- Node14 -->
<g id="node14" class="node">
<title>Node14</title>
<g id="a_node14"><a xlink:href="particleDeck_8h.html" target="_top" xlink:title=" ">
<polygon fill="none" stroke="black" points="231,-291.5 231,-310.5 361,-310.5 361,-291.5 231,-291.5"/>
<text text-anchor="middle" x="296" y="-298.5" font-family="Arial" font-size="10.00">inp/pdecks/particleDeck.h</text>
</a>
</g>
</g>
<!-- Node1&#45;&gt;Node14 -->
<g id="edge71" class="edge">
<title>Node1&#45;&gt;Node14</title>
<path fill="none" stroke="midnightblue" d="M1045.79,-408C893.12,-386.42 521.42,-333.87 366.06,-311.9"/>
<polygon fill="midnightblue" stroke="midnightblue" points="366.53,-308.44 356.14,-310.5 365.55,-315.37 366.53,-308.44"/>
</g>
<!-- Node37 -->
<g id="node31" class="node">
<title>Node37</title>
<g id="a_node31"><a xlink:href="baseElem_8h.html" target="_top" xlink:title=" ">
<polygon fill="none" stroke="black" points="1290,-230 1290,-249 1370,-249 1370,-230 1290,-230"/>
<text text-anchor="middle" x="1330" y="-237" font-family="Arial" font-size="10.00">fe/baseElem.h</text>
</a>
</g>
</g>
<!-- Node1&#45;&gt;Node37 -->
<g id="edge72" class="edge">
<title>Node1&#45;&gt;Node37</title>
<path fill="none" stroke="midnightblue" d="M1130.39,-403.31C1170.58,-370.54 1269.61,-289.76 1311.17,-255.86"/>
<polygon fill="midnightblue" stroke="midnightblue" points="1313.58,-258.41 1319.12,-249.37 1309.16,-252.98 1313.58,-258.41"/>
</g>
<!-- Node39 -->
<g id="node33" class="node">
<title>Node39</title>
<g id="a_node33"><a xlink:href="geom_8h.html" target="_top" xlink:title=" ">
<polygon fill="none" stroke="black" points="1549.5,-112.5 1549.5,-131.5 1614.5,-131.5 1614.5,-112.5 1549.5,-112.5"/>
<text text-anchor="middle" x="1582" y="-119.5" font-family="Arial" font-size="10.00">util/geom.h</text>
</a>
</g>
</g>
<!-- Node1&#45;&gt;Node39 -->
<g id="edge78" class="edge">
<title>Node1&#45;&gt;Node39</title>
<path fill="none" stroke="midnightblue" d="M1180.16,-412.85C1298.32,-402.81 1531,-373.9 1531,-302 1531,-302 1531,-302 1531,-238.5 1531,-200.72 1554.12,-161.45 1569.23,-139.83"/>
<polygon fill="midnightblue" stroke="midnightblue" points="1572.09,-141.85 1575.12,-131.7 1566.42,-137.74 1572.09,-141.85"/>
</g>
<!-- Node3 -->
<g id="node3" class="node">
<title>Node3</title>
<g id="a_node3"><a xlink:href="mesh_8h.html" target="_top" xlink:title=" ">
<polygon fill="none" stroke="black" points="1186,-168.5 1186,-187.5 1246,-187.5 1246,-168.5 1186,-168.5"/>
<text text-anchor="middle" x="1216" y="-175.5" font-family="Arial" font-size="10.00">fe/mesh.h</text>
</a>
</g>
</g>
<!-- Node2&#45;&gt;Node3 -->
<g id="edge2" class="edge">
<title>Node2&#45;&gt;Node3</title>
<path fill="none" stroke="midnightblue" d="M1147.56,-351.52C1172.32,-346.31 1204,-335.09 1220,-311 1242.97,-276.42 1231.45,-224.73 1222.73,-197.43"/>
<polygon fill="midnightblue" stroke="midnightblue" points="1225.93,-195.97 1219.39,-187.64 1219.31,-198.23 1225.93,-195.97"/>
</g>
<!-- Node4 -->
<g id="node4" class="node">
<title>Node4</title>
<g id="a_node4"><a xlink:href="point_8h.html" target="_top" xlink:title=" ">
<polygon fill="none" stroke="black" points="1051,-56.5 1051,-75.5 1113,-75.5 1113,-56.5 1051,-56.5"/>
<text text-anchor="middle" x="1082" y="-63.5" font-family="Arial" font-size="10.00">util/point.h</text>
</a>
</g>
</g>
<!-- Node2&#45;&gt;Node4 -->
<g id="edge67" class="edge">
<title>Node2&#45;&gt;Node4</title>
<path fill="none" stroke="midnightblue" d="M1139.93,-347.36C1156.72,-340.41 1176.98,-328.82 1187,-311 1191.36,-303.25 1188.77,-299.71 1187,-291 1169.76,-206.31 1151.45,-188.38 1111,-112 1105.94,-102.45 1099.5,-92.3 1093.97,-84.05"/>
<polygon fill="midnightblue" stroke="midnightblue" points="1096.78,-81.96 1088.24,-75.69 1091.01,-85.92 1096.78,-81.96"/>
</g>
<!-- Node9 -->
<g id="node9" class="node">
<title>Node9</title>
<g id="a_node9"><a xlink:title=" ">
<polygon fill="none" stroke="#bfbfbf" points="950,-0.5 950,-19.5 994,-19.5 994,-0.5 950,-0.5"/>
<text text-anchor="middle" x="972" y="-7.5" font-family="Arial" font-size="10.00">vector</text>
</a>
</g>
</g>
<!-- Node2&#45;&gt;Node9 -->
<g id="edge70" class="edge">
<title>Node2&#45;&gt;Node9</title>
<path fill="none" stroke="midnightblue" d="M1137.73,-347.48C1163.2,-338.62 1204.02,-324.24 1239,-311 1301.68,-287.28 1341.43,-310.49 1379,-255 1386.72,-243.59 1381.56,-237.54 1379,-224 1368.08,-166.32 1357.27,-145.41 1309,-112 1249.12,-70.55 1224.68,-77.17 1155,-56 1126.97,-47.49 1048.63,-28.87 1004.06,-18.44"/>
<polygon fill="midnightblue" stroke="midnightblue" points="1004.84,-15.03 994.31,-16.17 1003.25,-21.85 1004.84,-15.03"/>
</g>
<!-- Node11 -->
<g id="node11" class="node">
<title>Node11</title>
<g id="a_node11"><a xlink:href="fracture_8h.html" target="_top" xlink:title=" ">
<polygon fill="none" stroke="black" points="1391.5,-112.5 1391.5,-131.5 1492.5,-131.5 1492.5,-112.5 1391.5,-112.5"/>
<text text-anchor="middle" x="1442" y="-119.5" font-family="Arial" font-size="10.00">geometry/fracture.h</text>
</a>
</g>
</g>
<!-- Node2&#45;&gt;Node11 -->
<g id="edge11" class="edge">
<title>Node2&#45;&gt;Node11</title>
<path fill="none" stroke="midnightblue" d="M1147.78,-353.81C1211.31,-349.23 1342.99,-336.83 1380,-311 1435.66,-272.15 1442.34,-181.35 1442.49,-141.88"/>
<polygon fill="midnightblue" stroke="midnightblue" points="1445.99,-141.75 1442.38,-131.79 1438.99,-141.83 1445.99,-141.75"/>
</g>
<!-- Node2&#45;&gt;Node14 -->
<g id="edge16" class="edge">
<title>Node2&#45;&gt;Node14</title>
<path fill="none" stroke="midnightblue" d="M1078.42,-353.71C956.16,-345.63 542.53,-318.29 371.25,-306.97"/>
<polygon fill="midnightblue" stroke="midnightblue" points="371.26,-303.47 361.06,-306.3 370.8,-310.45 371.26,-303.47"/>
</g>
<!-- Node24 -->
<g id="node19" class="node">
<title>Node24</title>
<g id="a_node19"><a xlink:href="geomObjects_8h.html" target="_top" xlink:title=" ">
<polygon fill="none" stroke="red" points="332,-168.5 332,-187.5 430,-187.5 430,-168.5 332,-168.5"/>
<text text-anchor="middle" x="381" y="-175.5" font-family="Arial" font-size="10.00">util/geomObjects.h</text>
</a>
</g>
</g>
<!-- Node2&#45;&gt;Node24 -->
<g id="edge64" class="edge">
<title>Node2&#45;&gt;Node24</title>
<path fill="none" stroke="midnightblue" d="M1078.19,-347.58C958.15,-318.56 561.48,-222.64 426.47,-189.99"/>
<polygon fill="midnightblue" stroke="midnightblue" points="427,-186.52 416.46,-187.57 425.35,-193.33 427,-186.52"/>
</g>
<!-- Node28 -->
<g id="node22" class="node">
<title>Node28</title>
<g id="a_node22"><a xlink:href="transformation_8h.html" target="_top" xlink:title=" ">
<polygon fill="none" stroke="black" points="902.5,-112.5 902.5,-131.5 989.5,-131.5 989.5,-112.5 902.5,-112.5"/>
<text text-anchor="middle" x="946" y="-119.5" font-family="Arial" font-size="10.00">transformation.h</text>
</a>
</g>
</g>
<!-- Node2&#45;&gt;Node28 -->
<g id="edge68" class="edge">
<title>Node2&#45;&gt;Node28</title>
<path fill="none" stroke="midnightblue" d="M1106.86,-347.43C1082.36,-313.26 991.38,-186.31 958.2,-140.03"/>
<polygon fill="midnightblue" stroke="midnightblue" points="961.05,-137.98 952.38,-131.9 955.36,-142.06 961.05,-137.98"/>
</g>
<!-- Node32 -->
<g id="node26" class="node">
<title>Node32</title>
<g id="a_node26"><a xlink:href="material_8h.html" target="_top" xlink:title=" ">
<polygon fill="none" stroke="black" points="835,-224.5 835,-254.5 929,-254.5 929,-224.5 835,-224.5"/>
<text text-anchor="start" x="843" y="-242.5" font-family="Arial" font-size="10.00">material/mparticle</text>
<text text-anchor="middle" x="882" y="-231.5" font-family="Arial" font-size="10.00">/material.h</text>
</a>
</g>
</g>
<!-- Node2&#45;&gt;Node32 -->
<g id="edge51" class="edge">
<title>Node2&#45;&gt;Node32</title>
<path fill="none" stroke="midnightblue" d="M1095.64,-347.32C1058.3,-328.65 969.66,-284.33 919.07,-259.04"/>
<polygon fill="midnightblue" stroke="midnightblue" points="920.6,-255.89 910.09,-254.55 917.47,-262.15 920.6,-255.89"/>
</g>
<!-- Node34 -->
<g id="node28" class="node">
<title>Node34</title>
<g id="a_node28"><a xlink:title=" ">
<polygon fill="none" stroke="#bfbfbf" points="1008,-112.5 1008,-131.5 1054,-131.5 1054,-112.5 1008,-112.5"/>
<text text-anchor="middle" x="1031" y="-119.5" font-family="Arial" font-size="10.00">cstring</text>
</a>
</g>
</g>
<!-- Node2&#45;&gt;Node34 -->
<g id="edge69" class="edge">
<title>Node2&#45;&gt;Node34</title>
<path fill="none" stroke="midnightblue" d="M1110.62,-347.38C1101.05,-312.81 1065.53,-185.21 1058,-168 1053.8,-158.4 1047.92,-148.35 1042.73,-140.18"/>
<polygon fill="midnightblue" stroke="midnightblue" points="1045.5,-138.03 1037.08,-131.6 1039.66,-141.88 1045.5,-138.03"/>
</g>
<!-- Node36 -->
<g id="node30" class="node">
<title>Node36</title>
<g id="a_node30"><a xlink:href="matrix_8h.html" target="_top" xlink:title=" ">
<polygon fill="none" stroke="black" points="1110,-291.5 1110,-310.5 1178,-310.5 1178,-291.5 1110,-291.5"/>
<text text-anchor="middle" x="1144" y="-298.5" font-family="Arial" font-size="10.00">util/matrix.h</text>
</a>
</g>
</g>
<!-- Node2&#45;&gt;Node36 -->
<g id="edge65" class="edge">
<title>Node2&#45;&gt;Node36</title>
<path fill="none" stroke="midnightblue" d="M1118.12,-347.08C1122.41,-339.61 1128.66,-328.72 1133.94,-319.52"/>
<polygon fill="midnightblue" stroke="midnightblue" points="1137.03,-321.17 1138.98,-310.75 1130.96,-317.68 1137.03,-321.17"/>
</g>
<!-- Node3&#45;&gt;Node4 -->
<g id="edge3" class="edge">
<title>Node3&#45;&gt;Node4</title>
<path fill="none" stroke="midnightblue" d="M1211.99,-168.39C1205.34,-154.88 1190.86,-128.53 1172,-112 1155.93,-97.91 1134.66,-87.01 1116.84,-79.47"/>
<polygon fill="midnightblue" stroke="midnightblue" points="1117.93,-76.14 1107.34,-75.63 1115.3,-82.62 1117.93,-76.14"/>
</g>
<!-- Node3&#45;&gt;Node9 -->
<g id="edge10" class="edge">
<title>Node3&#45;&gt;Node9</title>
<path fill="none" stroke="midnightblue" d="M1214.87,-168.27C1212.81,-155.05 1207.44,-129.64 1195,-112 1171.43,-78.59 1158.4,-74.63 1122,-56 1101.37,-45.44 1041.7,-28.99 1004.13,-19.18"/>
<polygon fill="midnightblue" stroke="midnightblue" points="1004.73,-15.72 994.17,-16.6 1002.97,-22.49 1004.73,-15.72"/>
</g>
<!-- Node10 -->
<g id="node10" class="node">
<title>Node10</title>
<g id="a_node10"><a xlink:title=" ">
<polygon fill="none" stroke="#bfbfbf" points="766.5,-112.5 766.5,-131.5 807.5,-131.5 807.5,-112.5 766.5,-112.5"/>
<text text-anchor="middle" x="787" y="-119.5" font-family="Arial" font-size="10.00">string</text>
</a>
</g>
</g>
<!-- Node3&#45;&gt;Node10 -->
<g id="edge9" class="edge">
<title>Node3&#45;&gt;Node10</title>
<path fill="none" stroke="midnightblue" d="M1185.83,-173.2C1107.33,-163.32 897.25,-136.88 817.92,-126.89"/>
<polygon fill="midnightblue" stroke="midnightblue" points="817.97,-123.37 807.62,-125.6 817.1,-130.32 817.97,-123.37"/>
</g>
<!-- Node5 -->
<g id="node5" class="node">
<title>Node5</title>
<g id="a_node5"><a xlink:title=" ">
<polygon fill="none" stroke="#bfbfbf" points="693,-0.5 693,-19.5 737,-19.5 737,-0.5 693,-0.5"/>
<text text-anchor="middle" x="715" y="-7.5" font-family="Arial" font-size="10.00">cmath</text>
</a>
</g>
</g>
<!-- Node4&#45;&gt;Node5 -->
<g id="edge4" class="edge">
<title>Node4&#45;&gt;Node5</title>
<path fill="none" stroke="midnightblue" d="M1050.71,-60.4C981.63,-50.23 816.68,-25.96 746.97,-15.7"/>
<polygon fill="midnightblue" stroke="midnightblue" points="747.42,-12.23 737.02,-14.24 746.4,-19.16 747.42,-12.23"/>
</g>
<!-- Node6 -->
<g id="node6" class="node">
<title>Node6</title>
<g id="a_node6"><a xlink:title=" ">
<polygon fill="none" stroke="#bfbfbf" points="1091,-0.5 1091,-19.5 1141,-19.5 1141,-0.5 1091,-0.5"/>
<text text-anchor="middle" x="1116" y="-7.5" font-family="Arial" font-size="10.00">iomanip</text>
</a>
</g>
</g>
<!-- Node4&#45;&gt;Node6 -->
<g id="edge5" class="edge">
<title>Node4&#45;&gt;Node6</title>
<path fill="none" stroke="midnightblue" d="M1087.61,-56.08C1092.37,-48.53 1099.32,-37.49 1105.15,-28.23"/>
<polygon fill="midnightblue" stroke="midnightblue" points="1108.12,-30.08 1110.49,-19.75 1102.2,-26.35 1108.12,-30.08"/>
</g>
<!-- Node7 -->
<g id="node7" class="node">
<title>Node7</title>
<g id="a_node7"><a xlink:title=" ">
<polygon fill="none" stroke="#bfbfbf" points="1021,-0.5 1021,-19.5 1073,-19.5 1073,-0.5 1021,-0.5"/>
<text text-anchor="middle" x="1047" y="-7.5" font-family="Arial" font-size="10.00">sstream</text>
</a>
</g>
</g>
<!-- Node4&#45;&gt;Node7 -->
<g id="edge6" class="edge">
<title>Node4&#45;&gt;Node7</title>
<path fill="none" stroke="midnightblue" d="M1076.22,-56.08C1071.33,-48.53 1064.17,-37.49 1058.17,-28.23"/>
<polygon fill="midnightblue" stroke="midnightblue" points="1061.05,-26.24 1052.67,-19.75 1055.17,-30.05 1061.05,-26.24"/>
</g>
<!-- Node4&#45;&gt;Node8 -->
<g id="edge7" class="edge">
<title>Node4&#45;&gt;Node8</title>
<path fill="none" stroke="midnightblue" d="M1050.65,-62.4C942.69,-53.43 586.57,-23.84 469.59,-14.12"/>
<polygon fill="midnightblue" stroke="midnightblue" points="469.61,-10.61 459.35,-13.27 469.03,-17.59 469.61,-10.61"/>
</g>
<!-- Node4&#45;&gt;Node9 -->
<g id="edge8" class="edge">
<title>Node4&#45;&gt;Node9</title>
<path fill="none" stroke="midnightblue" d="M1064.33,-56.32C1046.61,-47.62 1019.1,-34.12 998.71,-24.11"/>
<polygon fill="midnightblue" stroke="midnightblue" points="1000.15,-20.92 989.63,-19.65 997.06,-27.2 1000.15,-20.92"/>
</g>
<!-- Node11&#45;&gt;Node4 -->
<g id="edge12" class="edge">
<title>Node11&#45;&gt;Node4</title>
<path fill="none" stroke="midnightblue" d="M1391.18,-113.38C1319.43,-102.62 1189.8,-83.17 1123.5,-73.23"/>
<polygon fill="midnightblue" stroke="midnightblue" points="1123.83,-69.74 1113.42,-71.71 1122.79,-76.66 1123.83,-69.74"/>
</g>
<!-- Node11&#45;&gt;Node9 -->
<g id="edge15" class="edge">
<title>Node11&#45;&gt;Node9</title>
<path fill="none" stroke="midnightblue" d="M1427.98,-112.38C1401.65,-96.32 1345.5,-62.87 1324,-56 1191.03,-13.53 1149.62,-43.35 1012,-20 1009.48,-19.57 1006.88,-19.09 1004.28,-18.57"/>
<polygon fill="midnightblue" stroke="midnightblue" points="1004.85,-15.11 994.34,-16.47 1003.4,-21.96 1004.85,-15.11"/>
</g>
<!-- Node12 -->
<g id="node12" class="node">
<title>Node12</title>
<g id="a_node12"><a xlink:title=" ">
<polygon fill="none" stroke="#bfbfbf" points="1443.5,-56.5 1443.5,-75.5 1492.5,-75.5 1492.5,-56.5 1443.5,-56.5"/>
<text text-anchor="middle" x="1468" y="-63.5" font-family="Arial" font-size="10.00">stdint.h</text>
</a>
</g>
</g>
<!-- Node11&#45;&gt;Node12 -->
<g id="edge13" class="edge">
<title>Node11&#45;&gt;Node12</title>
<path fill="none" stroke="midnightblue" d="M1446.29,-112.08C1449.85,-104.69 1455.02,-93.95 1459.42,-84.81"/>
<polygon fill="midnightblue" stroke="midnightblue" points="1462.6,-86.28 1463.79,-75.75 1456.29,-83.24 1462.6,-86.28"/>
</g>
<!-- Node13 -->
<g id="node13" class="node">
<title>Node13</title>
<g id="a_node13"><a xlink:title=" ">
<polygon fill="none" stroke="#bfbfbf" points="1376.5,-56.5 1376.5,-75.5 1425.5,-75.5 1425.5,-56.5 1376.5,-56.5"/>
<text text-anchor="middle" x="1401" y="-63.5" font-family="Arial" font-size="10.00">string.h</text>
</a>
</g>
</g>
<!-- Node11&#45;&gt;Node13 -->
<g id="edge14" class="edge">
<title>Node11&#45;&gt;Node13</title>
<path fill="none" stroke="midnightblue" d="M1435.23,-112.08C1429.44,-104.46 1420.94,-93.26 1413.86,-83.94"/>
<polygon fill="midnightblue" stroke="midnightblue" points="1416.48,-81.6 1407.64,-75.75 1410.9,-85.83 1416.48,-81.6"/>
</g>
<!-- Node15 -->
<g id="node15" class="node">
<title>Node15</title>
<g id="a_node15"><a xlink:href="zoneDeck_8h.html" target="_top" xlink:title=" ">
<polygon fill="none" stroke="black" points="346.5,-230 346.5,-249 415.5,-249 415.5,-230 346.5,-230"/>
<text text-anchor="middle" x="381" y="-237" font-family="Arial" font-size="10.00">zoneDeck.h</text>
</a>
</g>
</g>
<!-- Node14&#45;&gt;Node15 -->
<g id="edge17" class="edge">
<title>Node14&#45;&gt;Node15</title>
<path fill="none" stroke="midnightblue" d="M308.18,-291.48C321.81,-281.93 344.13,-266.31 360.47,-254.87"/>
<polygon fill="midnightblue" stroke="midnightblue" points="362.66,-257.61 368.84,-249.01 358.64,-251.88 362.66,-257.61"/>
</g>
<!-- Node26 -->
<g id="node20" class="node">
<title>Node26</title>
<g id="a_node20"><a xlink:title=" ">
<polygon fill="none" stroke="#bfbfbf" points="164,-112.5 164,-131.5 216,-131.5 216,-112.5 164,-112.5"/>
<text text-anchor="middle" x="190" y="-119.5" font-family="Arial" font-size="10.00">memory</text>
</a>
</g>
</g>
<!-- Node14&#45;&gt;Node26 -->
<g id="edge50" class="edge">
<title>Node14&#45;&gt;Node26</title>
<path fill="none" stroke="midnightblue" d="M230.87,-296.59C168.95,-291.82 82.21,-280.65 61,-255 35.03,-223.59 60.4,-196.02 90,-168 107.94,-151.02 133.39,-139.69 154.12,-132.65"/>
<polygon fill="midnightblue" stroke="midnightblue" points="155.41,-135.91 163.87,-129.53 153.28,-129.24 155.41,-135.91"/>
</g>
<!-- Node29 -->
<g id="node23" class="node">
<title>Node29</title>
<g id="a_node23"><a xlink:href="pNeighborDeck_8h.html" target="_top" xlink:title=" ">
<polygon fill="none" stroke="black" points="154,-230 154,-249 246,-249 246,-230 154,-230"/>
<text text-anchor="middle" x="200" y="-237" font-family="Arial" font-size="10.00">pNeighborDeck.h</text>
</a>
</g>
</g>
<!-- Node14&#45;&gt;Node29 -->
<g id="edge42" class="edge">
<title>Node14&#45;&gt;Node29</title>
<path fill="none" stroke="midnightblue" d="M282.25,-291.48C266.63,-281.8 240.94,-265.87 222.42,-254.39"/>
<polygon fill="midnightblue" stroke="midnightblue" points="224.07,-251.3 213.73,-249.01 220.38,-257.25 224.07,-251.3"/>
</g>
<!-- Node30 -->
<g id="node24" class="node">
<title>Node30</title>
<g id="a_node24"><a xlink:href="pBCData_8h.html" target="_top" xlink:title=" ">
<polygon fill="none" stroke="black" points="70.5,-230 70.5,-249 135.5,-249 135.5,-230 70.5,-230"/>
<text text-anchor="middle" x="103" y="-237" font-family="Arial" font-size="10.00">pBCData.h</text>
</a>
</g>
</g>
<!-- Node14&#45;&gt;Node30 -->
<g id="edge44" class="edge">
<title>Node14&#45;&gt;Node30</title>
<path fill="none" stroke="midnightblue" d="M266.09,-291.49C235.54,-282.71 186.8,-268.44 145,-255 142.4,-254.17 139.72,-253.29 137.03,-252.39"/>
<polygon fill="midnightblue" stroke="midnightblue" points="137.97,-249.01 127.37,-249.11 135.72,-255.64 137.97,-249.01"/>
</g>
<!-- Node31 -->
<g id="node25" class="node">
<title>Node31</title>
<g id="a_node25"><a xlink:href="pICDeck_8h.html" target="_top" xlink:title=" ">
<polygon fill="none" stroke="black" points="264,-230 264,-249 328,-249 328,-230 264,-230"/>
<text text-anchor="middle" x="296" y="-237" font-family="Arial" font-size="10.00">pICDeck.h</text>
</a>
</g>
</g>
<!-- Node14&#45;&gt;Node31 -->
<g id="edge48" class="edge">
<title>Node14&#45;&gt;Node31</title>
<path fill="none" stroke="midnightblue" d="M296,-291.48C296,-283.08 296,-269.98 296,-259.16"/>
<polygon fill="midnightblue" stroke="midnightblue" points="299.5,-259.01 296,-249.01 292.5,-259.01 299.5,-259.01"/>
</g>
<!-- Node16 -->
<g id="node16" class="node">
<title>Node16</title>
<g id="a_node16"><a xlink:href="materialDeck_8h.html" target="_top" xlink:title=" ">
<polygon fill="none" stroke="black" points="584,-168.5 584,-187.5 712,-187.5 712,-168.5 584,-168.5"/>
<text text-anchor="middle" x="648" y="-175.5" font-family="Arial" font-size="10.00">inp/decks/materialDeck.h</text>
</a>
</g>
</g>
<!-- Node15&#45;&gt;Node16 -->
<g id="edge18" class="edge">
<title>Node15&#45;&gt;Node16</title>
<path fill="none" stroke="midnightblue" d="M415.63,-230.78C462.56,-220.33 546.56,-201.61 599.68,-189.77"/>
<polygon fill="midnightblue" stroke="midnightblue" points="600.54,-193.16 609.54,-187.57 599.02,-186.33 600.54,-193.16"/>
</g>
<!-- Node17 -->
<g id="node17" class="node">
<title>Node17</title>
<g id="a_node17"><a xlink:href="io_8h.html" target="_top" xlink:title=" ">
<polygon fill="none" stroke="red" points="431,-112.5 431,-131.5 479,-131.5 479,-112.5 431,-112.5"/>
<text text-anchor="middle" x="455" y="-119.5" font-family="Arial" font-size="10.00">util/io.h</text>
</a>
</g>
</g>
<!-- Node15&#45;&gt;Node17 -->
<g id="edge40" class="edge">
<title>Node15&#45;&gt;Node17</title>
<path fill="none" stroke="midnightblue" d="M364.68,-229.9C342.21,-216.91 306.31,-191.33 323,-168 345.09,-137.13 389.63,-127.19 420.84,-124.13"/>
<polygon fill="midnightblue" stroke="midnightblue" points="421.17,-127.61 430.86,-123.33 420.61,-120.64 421.17,-127.61"/>
</g>
<!-- Node23 -->
<g id="node18" class="node">
<title>Node23</title>
<g id="a_node18"><a xlink:href="meshDeck_8h.html" target="_top" xlink:title=" ">
<polygon fill="none" stroke="black" points="448.5,-168.5 448.5,-187.5 565.5,-187.5 565.5,-168.5 448.5,-168.5"/>
<text text-anchor="middle" x="507" y="-175.5" font-family="Arial" font-size="10.00">inp/decks/meshDeck.h</text>
</a>
</g>
</g>
<!-- Node15&#45;&gt;Node23 -->
<g id="edge26" class="edge">
<title>Node15&#45;&gt;Node23</title>
<path fill="none" stroke="midnightblue" d="M399.05,-229.98C420.2,-219.99 455.44,-203.35 479.88,-191.81"/>
<polygon fill="midnightblue" stroke="midnightblue" points="481.43,-194.94 488.98,-187.51 478.44,-188.61 481.43,-194.94"/>
</g>
<!-- Node15&#45;&gt;Node24 -->
<g id="edge29" class="edge">
<title>Node15&#45;&gt;Node24</title>
<path fill="none" stroke="midnightblue" d="M381,-229.98C381,-221.58 381,-208.48 381,-197.66"/>
<polygon fill="midnightblue" stroke="midnightblue" points="384.5,-197.51 381,-187.51 377.5,-197.51 384.5,-197.51"/>
</g>
<!-- Node15&#45;&gt;Node26 -->
<g id="edge41" class="edge">
<title>Node15&#45;&gt;Node26</title>
<path fill="none" stroke="midnightblue" d="M366.64,-229.82C333.79,-209.95 252.92,-161.05 213.02,-136.92"/>
<polygon fill="midnightblue" stroke="midnightblue" points="214.63,-133.8 204.26,-131.62 211.01,-139.79 214.63,-133.8"/>
</g>
<!-- Node16&#45;&gt;Node5 -->
<g id="edge23" class="edge">
<title>Node16&#45;&gt;Node5</title>
<path fill="none" stroke="midnightblue" d="M618.88,-168.44C601.36,-161.62 580.48,-150.14 570,-132 553.11,-102.75 549.97,-83.19 570,-56 595.67,-21.15 648.08,-12.49 682.36,-10.77"/>
<polygon fill="midnightblue" stroke="midnightblue" points="682.91,-14.25 692.79,-10.42 682.68,-7.25 682.91,-14.25"/>
</g>
<!-- Node16&#45;&gt;Node9 -->
<g id="edge25" class="edge">
<title>Node16&#45;&gt;Node9</title>
<path fill="none" stroke="midnightblue" d="M643.74,-168.17C637.97,-154.83 629.64,-129.26 641,-112 674.52,-61.07 862.93,-27.41 939.57,-15.65"/>
<polygon fill="midnightblue" stroke="midnightblue" points="940.25,-19.09 949.62,-14.14 939.21,-12.17 940.25,-19.09"/>
</g>
<!-- Node16&#45;&gt;Node10 -->
<g id="edge24" class="edge">
<title>Node16&#45;&gt;Node10</title>
<path fill="none" stroke="midnightblue" d="M670.02,-168.44C693.51,-159.32 730.85,-144.81 757.01,-134.65"/>
<polygon fill="midnightblue" stroke="midnightblue" points="758.38,-137.87 766.44,-130.99 755.85,-131.35 758.38,-137.87"/>
</g>
<!-- Node16&#45;&gt;Node17 -->
<g id="edge19" class="edge">
<title>Node16&#45;&gt;Node17</title>
<path fill="none" stroke="midnightblue" d="M617.42,-168.44C582.35,-158.63 525.02,-142.59 488.69,-132.43"/>
<polygon fill="midnightblue" stroke="midnightblue" points="489.61,-129.05 479.04,-129.73 487.72,-135.79 489.61,-129.05"/>
</g>
<!-- Node17&#45;&gt;Node4 -->
<g id="edge20" class="edge">
<title>Node17&#45;&gt;Node4</title>
<path fill="none" stroke="midnightblue" d="M479.19,-118.92C573.9,-110.76 920.11,-80.94 1040.45,-70.58"/>
<polygon fill="midnightblue" stroke="midnightblue" points="1041.05,-74.04 1050.71,-69.69 1040.45,-67.07 1041.05,-74.04"/>
</g>
<!-- Node17&#45;&gt;Node8 -->
<g id="edge21" class="edge">
<title>Node17&#45;&gt;Node8</title>
<path fill="none" stroke="midnightblue" d="M453.2,-112.37C449.48,-94.62 440.92,-53.67 435.89,-29.6"/>
<polygon fill="midnightblue" stroke="midnightblue" points="439.27,-28.66 433.8,-19.59 432.42,-30.1 439.27,-28.66"/>
</g>
<!-- Node17&#45;&gt;Node9 -->
<g id="edge22" class="edge">
<title>Node17&#45;&gt;Node9</title>
<path fill="none" stroke="midnightblue" d="M466.35,-112.49C486.19,-98.11 528.98,-69.27 570,-56 701.92,-13.31 869.47,-9.7 939.22,-10.29"/>
<polygon fill="midnightblue" stroke="midnightblue" points="939.52,-13.79 949.56,-10.41 939.6,-6.79 939.52,-13.79"/>
</g>
<!-- Node23&#45;&gt;Node10 -->
<g id="edge28" class="edge">
<title>Node23&#45;&gt;Node10</title>
<path fill="none" stroke="midnightblue" d="M559.31,-168.48C609.06,-160.13 685.9,-146.55 752,-132 753.46,-131.68 754.94,-131.34 756.44,-130.99"/>
<polygon fill="midnightblue" stroke="midnightblue" points="757.45,-134.35 766.33,-128.57 755.78,-127.55 757.45,-134.35"/>
</g>
<!-- Node23&#45;&gt;Node17 -->
<g id="edge27" class="edge">
<title>Node23&#45;&gt;Node17</title>
<path fill="none" stroke="midnightblue" d="M498.41,-168.08C490.84,-160.22 479.62,-148.57 470.49,-139.08"/>
<polygon fill="midnightblue" stroke="midnightblue" points="472.88,-136.53 463.43,-131.75 467.84,-141.38 472.88,-136.53"/>
</g>
<!-- Node24&#45;&gt;Node4 -->
<g id="edge36" class="edge">
<title>Node24&#45;&gt;Node4</title>
<path fill="none" stroke="midnightblue" d="M430.03,-169.3C433.07,-168.85 436.07,-168.42 439,-168 562.78,-150.41 598.6,-169.08 718,-132 736.6,-126.22 738.42,-117.86 757,-112 855.59,-80.88 977.75,-71.27 1040.5,-68.31"/>
<polygon fill="midnightblue" stroke="midnightblue" points="1040.94,-71.79 1050.77,-67.86 1040.63,-64.8 1040.94,-71.79"/>
</g>
<!-- Node24&#45;&gt;Node8 -->
<g id="edge30" class="edge">
<title>Node24&#45;&gt;Node8</title>
<path fill="none" stroke="midnightblue" d="M383.74,-168.08C391.77,-141.95 415.34,-65.21 426.29,-29.58"/>
<polygon fill="midnightblue" stroke="midnightblue" points="429.78,-30.16 429.37,-19.57 423.09,-28.1 429.78,-30.16"/>
</g>
<!-- Node24&#45;&gt;Node17 -->
<g id="edge35" class="edge">
<title>Node24&#45;&gt;Node17</title>
<path fill="none" stroke="midnightblue" d="M392.89,-168.32C404.15,-160.11 421.29,-147.6 434.71,-137.81"/>
<polygon fill="midnightblue" stroke="midnightblue" points="436.88,-140.56 442.89,-131.83 432.75,-134.9 436.88,-140.56"/>
</g>
<!-- Node24&#45;&gt;Node26 -->
<g id="edge31" class="edge">
<title>Node24&#45;&gt;Node26</title>
<path fill="none" stroke="midnightblue" d="M350.74,-168.44C316.79,-158.85 261.8,-143.3 225.76,-133.11"/>
<polygon fill="midnightblue" stroke="midnightblue" points="226.71,-129.74 216.13,-130.39 224.8,-136.48 226.71,-129.74"/>
</g>
<!-- Node27 -->
<g id="node21" class="node">
<title>Node27</title>
<g id="a_node21"><a xlink:href="function_8h.html" target="_top" xlink:title=" ">
<polygon fill="none" stroke="black" points="650.5,-112.5 650.5,-131.5 709.5,-131.5 709.5,-112.5 650.5,-112.5"/>
<text text-anchor="middle" x="680" y="-119.5" font-family="Arial" font-size="10.00">function.h</text>
</a>
</g>
</g>
<!-- Node24&#45;&gt;Node27 -->
<g id="edge32" class="edge">
<title>Node24&#45;&gt;Node27</title>
<path fill="none" stroke="midnightblue" d="M428.38,-168.44C486.85,-157.88 585.26,-140.11 640.07,-130.21"/>
<polygon fill="midnightblue" stroke="midnightblue" points="640.89,-133.62 650.11,-128.4 639.64,-126.73 640.89,-133.62"/>
</g>
<!-- Node24&#45;&gt;Node28 -->
<g id="edge37" class="edge">
<title>Node24&#45;&gt;Node28</title>
<path fill="none" stroke="midnightblue" d="M430.02,-169.16C433.05,-168.75 436.07,-168.36 439,-168 603.7,-147.93 799.54,-133.09 892.24,-126.61"/>
<polygon fill="midnightblue" stroke="midnightblue" points="892.76,-130.08 902.49,-125.9 892.28,-123.1 892.76,-130.08"/>
</g>
<!-- Node27&#45;&gt;Node4 -->
<g id="edge33" class="edge">
<title>Node27&#45;&gt;Node4</title>
<path fill="none" stroke="midnightblue" d="M709.76,-114.59C714.51,-113.66 719.38,-112.76 724,-112 838.11,-93.19 973.83,-78.1 1040.64,-71.16"/>
<polygon fill="midnightblue" stroke="midnightblue" points="1041.17,-74.62 1050.76,-70.11 1040.45,-67.66 1041.17,-74.62"/>
</g>
<!-- Node27&#45;&gt;Node9 -->
<g id="edge34" class="edge">
<title>Node27&#45;&gt;Node9</title>
<path fill="none" stroke="midnightblue" d="M696.73,-112.43C722.96,-99.19 775.57,-73.5 822,-56 862,-40.93 909.45,-27.39 940.11,-19.2"/>
<polygon fill="midnightblue" stroke="midnightblue" points="941.05,-22.57 949.82,-16.63 939.26,-15.8 941.05,-22.57"/>
</g>
<!-- Node28&#45;&gt;Node4 -->
<g id="edge38" class="edge">
<title>Node28&#45;&gt;Node4</title>
<path fill="none" stroke="midnightblue" d="M967.55,-112.44C990.03,-103.52 1025.49,-89.44 1050.98,-79.32"/>
<polygon fill="midnightblue" stroke="midnightblue" points="1052.55,-82.46 1060.55,-75.52 1049.97,-75.95 1052.55,-82.46"/>
</g>
<!-- Node28&#45;&gt;Node9 -->
<g id="edge39" class="edge">
<title>Node28&#45;&gt;Node9</title>
<path fill="none" stroke="midnightblue" d="M948.04,-112.37C952.24,-94.62 961.92,-53.67 967.6,-29.6"/>
<polygon fill="midnightblue" stroke="midnightblue" points="971.08,-30.13 969.97,-19.59 964.26,-28.52 971.08,-30.13"/>
</g>
<!-- Node29&#45;&gt;Node17 -->
<g id="edge43" class="edge">
<title>Node29&#45;&gt;Node17</title>
<path fill="none" stroke="midnightblue" d="M209.8,-229.88C226.95,-215.22 264.01,-185.31 300,-168 339.53,-148.99 388.68,-136.4 420.9,-129.49"/>
<polygon fill="midnightblue" stroke="midnightblue" points="421.66,-132.91 430.73,-127.44 420.23,-126.05 421.66,-132.91"/>
</g>
<!-- Node30&#45;&gt;Node17 -->
<g id="edge46" class="edge">
<title>Node30&#45;&gt;Node17</title>
<path fill="none" stroke="midnightblue" d="M119.99,-229.83C148.92,-215.35 209.87,-186.06 264,-168 317.61,-150.11 381.95,-136.51 420.6,-129.15"/>
<polygon fill="midnightblue" stroke="midnightblue" points="421.6,-132.52 430.79,-127.24 420.32,-125.64 421.6,-132.52"/>
</g>
<!-- Node30&#45;&gt;Node24 -->
<g id="edge45" class="edge">
<title>Node30&#45;&gt;Node24</title>
<path fill="none" stroke="midnightblue" d="M125.92,-229.92C132.06,-227.8 138.74,-225.67 145,-224 204.45,-208.16 273.75,-195.63 321.8,-187.86"/>
<polygon fill="midnightblue" stroke="midnightblue" points="322.4,-191.31 331.72,-186.27 321.29,-184.4 322.4,-191.31"/>
</g>
<!-- Node30&#45;&gt;Node26 -->
<g id="edge47" class="edge">
<title>Node30&#45;&gt;Node26</title>
<path fill="none" stroke="midnightblue" d="M99.76,-229.92C95.03,-215.82 88.02,-187.38 100,-168 111.86,-148.8 134.67,-137.52 154.36,-131.06"/>
<polygon fill="midnightblue" stroke="midnightblue" points="155.42,-134.39 164,-128.18 153.41,-127.68 155.42,-134.39"/>
</g>
<!-- Node31&#45;&gt;Node17 -->
<g id="edge49" class="edge">
<title>Node31&#45;&gt;Node17</title>
<path fill="none" stroke="midnightblue" d="M295.83,-229.87C296.02,-215.18 298.56,-185.25 315,-168 342.62,-139.03 388.92,-128.67 420.66,-124.98"/>
<polygon fill="midnightblue" stroke="midnightblue" points="421.21,-128.45 430.81,-123.97 420.52,-121.48 421.21,-128.45"/>
</g>
<!-- Node32&#45;&gt;Node4 -->
<g id="edge59" class="edge">
<title>Node32&#45;&gt;Node4</title>
<path fill="none" stroke="midnightblue" d="M925.65,-224.46C967.47,-208.71 1029.07,-179.01 1063,-132 1072.78,-118.44 1077.56,-99.9 1079.87,-86.08"/>
<polygon fill="midnightblue" stroke="midnightblue" points="1083.39,-86.19 1081.29,-75.8 1076.46,-85.23 1083.39,-86.19"/>
</g>
<!-- Node32&#45;&gt;Node9 -->
<g id="edge63" class="edge">
<title>Node32&#45;&gt;Node9</title>
<path fill="none" stroke="midnightblue" d="M900.42,-224.29C910.66,-215.18 922.43,-202.38 928,-188 931.21,-179.71 931.34,-176.24 928,-168 919.61,-147.32 901.39,-152.68 893,-132 889.66,-123.76 890.1,-120.4 893,-112 905.06,-77.01 934.77,-44.87 954.13,-26.64"/>
<polygon fill="midnightblue" stroke="midnightblue" points="956.69,-29.04 961.7,-19.7 951.96,-23.87 956.69,-29.04"/>
</g>
<!-- Node32&#45;&gt;Node10 -->
<g id="edge62" class="edge">
<title>Node32&#45;&gt;Node10</title>
<path fill="none" stroke="midnightblue" d="M895.6,-224.34C908.24,-209.42 923.38,-185.67 911,-168 890.04,-138.1 847.1,-127.99 817.68,-124.62"/>
<polygon fill="midnightblue" stroke="midnightblue" points="817.81,-121.11 807.52,-123.65 817.15,-128.08 817.81,-121.11"/>
</g>
<!-- Node32&#45;&gt;Node16 -->
<g id="edge57" class="edge">
<title>Node32&#45;&gt;Node16</title>
<path fill="none" stroke="midnightblue" d="M834.93,-226.53C793.1,-215.89 732.43,-200.47 691.66,-190.1"/>
<polygon fill="midnightblue" stroke="midnightblue" points="692.3,-186.65 681.75,-187.58 690.58,-193.44 692.3,-186.65"/>
</g>
<!-- Node32&#45;&gt;Node26 -->
<g id="edge61" class="edge">
<title>Node32&#45;&gt;Node26</title>
<path fill="none" stroke="midnightblue" d="M834.73,-236.97C717.8,-232.74 417.66,-219.1 323,-188 306.71,-182.65 305.18,-175.98 290,-168 267.12,-155.97 240.38,-144.05 220.31,-135.5"/>
<polygon fill="midnightblue" stroke="midnightblue" points="221.61,-132.25 211.04,-131.58 218.89,-138.7 221.61,-132.25"/>
</g>
<!-- Node32&#45;&gt;Node27 -->
<g id="edge58" class="edge">
<title>Node32&#45;&gt;Node27</title>
<path fill="none" stroke="midnightblue" d="M838.95,-224.42C814.63,-215.59 784.16,-203.05 759,-188 735.34,-173.85 711.32,-152.95 696.08,-138.7"/>
<polygon fill="midnightblue" stroke="midnightblue" points="698.23,-135.92 688.58,-131.55 693.4,-140.98 698.23,-135.92"/>
</g>
<!-- Node33 -->
<g id="node27" class="node">
<title>Node33</title>
<g id="a_node27"><a xlink:href="influenceFn_8h.html" target="_top" xlink:title=" ">
<polygon fill="none" stroke="black" points="768.5,-168.5 768.5,-187.5 843.5,-187.5 843.5,-168.5 768.5,-168.5"/>
<text text-anchor="middle" x="806" y="-175.5" font-family="Arial" font-size="10.00">influenceFn.h</text>
</a>
</g>
</g>
<!-- Node32&#45;&gt;Node33 -->
<g id="edge52" class="edge">
<title>Node32&#45;&gt;Node33</title>
<path fill="none" stroke="midnightblue" d="M863.99,-224.4C852.26,-215.22 836.98,-203.26 825.06,-193.92"/>
<polygon fill="midnightblue" stroke="midnightblue" points="827.09,-191.07 817.06,-187.66 822.78,-196.58 827.09,-191.07"/>
</g>
<!-- Node35 -->
<g id="node29" class="node">
<title>Node35</title>
<g id="a_node29"><a xlink:title=" ">
<polygon fill="none" stroke="#bfbfbf" points="862,-168.5 862,-187.5 902,-187.5 902,-168.5 862,-168.5"/>
<text text-anchor="middle" x="882" y="-175.5" font-family="Arial" font-size="10.00">limits</text>
</a>
</g>
</g>
<!-- Node32&#45;&gt;Node35 -->
<g id="edge60" class="edge">
<title>Node32&#45;&gt;Node35</title>
<path fill="none" stroke="midnightblue" d="M882,-224.4C882,-216.47 882,-206.46 882,-197.86"/>
<polygon fill="midnightblue" stroke="midnightblue" points="885.5,-197.66 882,-187.66 878.5,-197.66 885.5,-197.66"/>
</g>
<!-- Node33&#45;&gt;Node8 -->
<g id="edge55" class="edge">
<title>Node33&#45;&gt;Node8</title>
<path fill="none" stroke="midnightblue" d="M768.39,-169.65C734.33,-162.32 683.2,-149.62 641,-132 567.88,-101.47 488.82,-50.08 452.44,-25.26"/>
<polygon fill="midnightblue" stroke="midnightblue" points="454.36,-22.33 444.14,-19.55 450.39,-28.1 454.36,-22.33"/>
</g>
<!-- Node33&#45;&gt;Node9 -->
<g id="edge56" class="edge">
<title>Node33&#45;&gt;Node9</title>
<path fill="none" stroke="midnightblue" d="M807.53,-168.4C811.84,-146.62 826.03,-88.71 860,-56 882.06,-34.76 915.42,-23.11 940,-17.01"/>
<polygon fill="midnightblue" stroke="midnightblue" points="940.98,-20.38 949.94,-14.73 939.41,-13.56 940.98,-20.38"/>
</g>
<!-- Node33&#45;&gt;Node17 -->
<g id="edge53" class="edge">
<title>Node33&#45;&gt;Node17</title>
<path fill="none" stroke="midnightblue" d="M768.44,-171.22C699.78,-160.66 555.03,-138.39 489.06,-128.24"/>
<polygon fill="midnightblue" stroke="midnightblue" points="489.58,-124.78 479.17,-126.72 488.52,-131.7 489.58,-124.78"/>
</g>
<!-- Node33&#45;&gt;Node34 -->
<g id="edge54" class="edge">
<title>Node33&#45;&gt;Node34</title>
<path fill="none" stroke="midnightblue" d="M843.62,-168.6C882.4,-159.85 944.57,-145.54 998,-132 998.1,-131.97 998.2,-131.95 998.3,-131.92"/>
<polygon fill="midnightblue" stroke="midnightblue" points="999.16,-135.32 1007.95,-129.4 997.39,-128.54 999.16,-135.32"/>
</g>
<!-- Node36&#45;&gt;Node4 -->
<g id="edge66" class="edge">
<title>Node36&#45;&gt;Node4</title>
<path fill="none" stroke="midnightblue" d="M1141.72,-291.43C1132.74,-257.68 1099.69,-133.47 1087,-85.8"/>
<polygon fill="midnightblue" stroke="midnightblue" points="1090.32,-84.66 1084.37,-75.9 1083.56,-86.46 1090.32,-84.66"/>
</g>
<!-- Node37&#45;&gt;Node4 -->
<g id="edge77" class="edge">
<title>Node37&#45;&gt;Node4</title>
<path fill="none" stroke="midnightblue" d="M1334.55,-229.95C1341.35,-215.9 1352.12,-187.54 1340,-168 1294.06,-93.97 1183.98,-74.14 1123.51,-68.87"/>
<polygon fill="midnightblue" stroke="midnightblue" points="1123.42,-65.35 1113.18,-68.07 1122.88,-72.33 1123.42,-65.35"/>
</g>
<!-- Node38 -->
<g id="node32" class="node">
<title>Node38</title>
<g id="a_node32"><a xlink:href="quadData_8h.html" target="_top" xlink:title=" ">
<polygon fill="none" stroke="black" points="1264.5,-168.5 1264.5,-187.5 1331.5,-187.5 1331.5,-168.5 1264.5,-168.5"/>
<text text-anchor="middle" x="1298" y="-175.5" font-family="Arial" font-size="10.00">quadData.h</text>
</a>
</g>
</g>
<!-- Node37&#45;&gt;Node38 -->
<g id="edge73" class="edge">
<title>Node37&#45;&gt;Node38</title>
<path fill="none" stroke="midnightblue" d="M1325.42,-229.98C1320.76,-221.32 1313.41,-207.65 1307.49,-196.65"/>
<polygon fill="midnightblue" stroke="midnightblue" points="1310.4,-194.66 1302.58,-187.51 1304.23,-197.97 1310.4,-194.66"/>
</g>
<!-- Node38&#45;&gt;Node4 -->
<g id="edge75" class="edge">
<title>Node38&#45;&gt;Node4</title>
<path fill="none" stroke="midnightblue" d="M1286.06,-168.44C1267.3,-155.23 1229.48,-129.56 1195,-112 1169.59,-99.06 1139.55,-87.25 1116.83,-78.98"/>
<polygon fill="midnightblue" stroke="midnightblue" points="1117.86,-75.63 1107.27,-75.55 1115.5,-82.22 1117.86,-75.63"/>
</g>
<!-- Node38&#45;&gt;Node9 -->
<g id="edge76" class="edge">
<title>Node38&#45;&gt;Node9</title>
<path fill="none" stroke="midnightblue" d="M1331.52,-174.57C1383.81,-170.01 1480.99,-158.15 1502,-132 1523.16,-105.67 1524.99,-80.74 1502,-56 1464.84,-16.01 1066,-28.01 1012,-20 1009.47,-19.63 1006.87,-19.18 1004.26,-18.69"/>
<polygon fill="midnightblue" stroke="midnightblue" points="1004.82,-15.23 994.32,-16.63 1003.4,-22.08 1004.82,-15.23"/>
</g>
<!-- Node38&#45;&gt;Node17 -->
<g id="edge74" class="edge">
<title>Node38&#45;&gt;Node17</title>
<path fill="none" stroke="midnightblue" d="M1264.28,-169.44C1261.15,-168.89 1258.02,-168.4 1255,-168 1216.57,-162.93 638.45,-132.57 489.69,-124.81"/>
<polygon fill="midnightblue" stroke="midnightblue" points="489.52,-121.29 479.35,-124.27 489.15,-128.28 489.52,-121.29"/>
</g>
<!-- Node39&#45;&gt;Node4 -->
<g id="edge79" class="edge">
<title>Node39&#45;&gt;Node4</title>
<path fill="none" stroke="midnightblue" d="M1549.31,-117.28C1534.82,-115.65 1517.56,-113.71 1502,-112 1363.11,-96.75 1198.3,-79.27 1123.1,-71.33"/>
<polygon fill="midnightblue" stroke="midnightblue" points="1123.41,-67.84 1113.09,-70.27 1122.67,-74.8 1123.41,-67.84"/>
</g>
<!-- Node39&#45;&gt;Node9 -->
<g id="edge80" class="edge">
<title>Node39&#45;&gt;Node9</title>
<path fill="none" stroke="midnightblue" d="M1578.66,-112.37C1572.51,-97.81 1557.89,-68.71 1535,-56 1433.14,0.54 1127.27,-36.84 1012,-20 1009.47,-19.63 1006.87,-19.19 1004.26,-18.7"/>
<polygon fill="midnightblue" stroke="midnightblue" points="1004.81,-15.24 994.31,-16.65 1003.4,-22.1 1004.81,-15.24"/>
</g>
</g>
</svg>
