<?xml version="1.0" encoding="UTF-8" standalone="no"?>
<!DOCTYPE svg PUBLIC "-//W3C//DTD SVG 1.1//EN"
 "http://www.w3.org/Graphics/SVG/1.1/DTD/svg11.dtd">
<!-- Generated by graphviz version 2.43.0 (0)
 -->
<!-- Title: /home/user/project/src/main.cpp Pages: 1 -->
<svg width="1522pt" height="442pt"
 viewBox="0.00 0.00 1522.00 442.00" xmlns="http://www.w3.org/2000/svg" xmlns:xlink="http://www.w3.org/1999/xlink">
<g id="graph0" class="graph" transform="scale(1 1) rotate(0) translate(4 438)">
<title>/home/user/project/src/main.cpp</title>
<!-- Node1 -->
<g id="node1" class="node">
<title>Node1</title>
<g id="a_node1"><a xlink:title=" ">
<polygon fill="#bfbfbf" stroke="black" points="227.5,-403.5 227.5,-433.5 325.5,-433.5 325.5,-403.5 227.5,-403.5"/>
<text text-anchor="start" x="235.5" y="-421.5" font-family="Arial" font-size="10.00">/home/user/project</text>
<text text-anchor="middle" x="276.5" y="-410.5" font-family="Arial" font-size="10.00">/src/main.cpp</text>
</a>
</g>
</g>
<!-- Node2 -->
<g id="node2" class="node">
<title>Node2</title>
<g id="a_node2"><a xlink:href="PeriDEMConfig_8h.html" target="_top" xlink:title=" ">
<polygon fill="none" stroke="black" points="0,-347.5 0,-366.5 93,-366.5 93,-347.5 0,-347.5"/>
<text text-anchor="middle" x="46.5" y="-354.5" font-family="Arial" font-size="10.00">PeriDEMConfig.h</text>
</a>
</g>
</g>
<!-- Node1&#45;&gt;Node2 -->
<g id="edge1" class="edge">
<title>Node1&#45;&gt;Node2</title>
<path fill="none" stroke="midnightblue" d="M227.44,-404.81C186.42,-394.2 128.49,-379.21 89.32,-369.08"/>
<polygon fill="midnightblue" stroke="midnightblue" points="90.1,-365.66 79.54,-366.55 88.34,-372.44 90.1,-365.66"/>
</g>
<!-- Node4 -->
<g id="node4" class="node">
<title>Node4</title>
<g id="a_node4"><a xlink:title=" ">
<polygon fill="none" stroke="#bfbfbf" points="513.5,-0.5 513.5,-19.5 567.5,-19.5 567.5,-0.5 513.5,-0.5"/>
<text text-anchor="middle" x="540.5" y="-7.5" font-family="Arial" font-size="10.00">iostream</text>
</a>
</g>
</g>
<!-- Node1&#45;&gt;Node4 -->
<g id="edge3" class="edge">
<title>Node1&#45;&gt;Node4</title>
<path fill="none" stroke="midnightblue" d="M227.46,-403.61C182.05,-387.39 121.5,-355.69 121.5,-302 121.5,-302 121.5,-302 121.5,-121 121.5,-90.9 117.46,-75.37 140.5,-56 167.99,-32.88 409.27,-17.87 503.26,-12.86"/>
<polygon fill="midnightblue" stroke="midnightblue" points="503.64,-16.34 513.45,-12.32 503.28,-9.35 503.64,-16.34"/>
</g>
<!-- Node5 -->
<g id="node5" class="node">
<title>Node5</title>
<g id="a_node5"><a xlink:title=" ">
<polygon fill="none" stroke="#bfbfbf" points="149.5,-56.5 149.5,-75.5 205.5,-75.5 205.5,-56.5 149.5,-56.5"/>
<text text-anchor="middle" x="177.5" y="-63.5" font-family="Arial" font-size="10.00">algorithm</text>
</a>
</g>
</g>
<!-- Node1&#45;&gt;Node5 -->
<g id="edge4" class="edge">
<title>Node1&#45;&gt;Node5</title>
<path fill="none" stroke="midnightblue" d="M231.81,-403.45C212.97,-395.48 192.26,-383.69 178.5,-367 159.35,-343.78 159.5,-332.1 159.5,-302 159.5,-302 159.5,-302 159.5,-177 159.5,-144.54 167.23,-107.38 172.56,-85.63"/>
<polygon fill="midnightblue" stroke="midnightblue" points="175.99,-86.32 175.07,-75.76 169.21,-84.59 175.99,-86.32"/>
</g>
<!-- Node6 -->
<g id="node6" class="node">
<title>Node6</title>
<g id="a_node6"><a xlink:title=" ">
<polygon fill="none" stroke="#bfbfbf" points="188,-347.5 188,-366.5 229,-366.5 229,-347.5 188,-347.5"/>
<text text-anchor="middle" x="208.5" y="-354.5" font-family="Arial" font-size="10.00">ctime</text>
</a>
</g>
</g>
<!-- Node1&#45;&gt;Node6 -->
<g id="edge5" class="edge">
<title>Node1&#45;&gt;Node6</title>
<path fill="none" stroke="midnightblue" d="M260.38,-403.4C250.1,-394.4 236.75,-382.72 226.17,-373.47"/>
<polygon fill="midnightblue" stroke="midnightblue" points="228.23,-370.61 218.39,-366.66 223.62,-375.88 228.23,-370.61"/>
</g>
<!-- Node7 -->
<g id="node7" class="node">
<title>Node7</title>
<g id="a_node7"><a xlink:href="input_8h.html" target="_top" xlink:title=" ">
<polygon fill="none" stroke="black" points="320.5,-230 320.5,-249 382.5,-249 382.5,-230 320.5,-230"/>
<text text-anchor="middle" x="351.5" y="-237" font-family="Arial" font-size="10.00">inp/input.h</text>
</a>
</g>
</g>
<!-- Node1&#45;&gt;Node7 -->
<g id="edge6" class="edge">
<title>Node1&#45;&gt;Node7</title>
<path fill="none" stroke="midnightblue" d="M287.07,-403.5C294.12,-393.67 303.22,-380.02 309.5,-367 327.21,-330.31 340.42,-284.26 346.95,-259.08"/>
<polygon fill="midnightblue" stroke="midnightblue" points="350.42,-259.63 349.47,-249.08 343.63,-257.92 350.42,-259.63"/>
</g>
<!-- Node11 -->
<g id="node11" class="node">
<title>Node11</title>
<g id="a_node11"><a xlink:href="demModel_8h.html" target="_top" xlink:title=" ">
<polygon fill="none" stroke="black" points="523,-347.5 523,-366.5 644,-366.5 644,-347.5 523,-347.5"/>
<text text-anchor="middle" x="583.5" y="-354.5" font-family="Arial" font-size="10.00">model/dem/demModel.h</text>
</a>
</g>
</g>
<!-- Node1&#45;&gt;Node11 -->
<g id="edge10" class="edge">
<title>Node1&#45;&gt;Node11</title>
<path fill="none" stroke="midnightblue" d="M325.82,-407.94C381.47,-397.16 471.69,-379.67 529.28,-368.51"/>
<polygon fill="midnightblue" stroke="midnightblue" points="530.13,-371.91 539.28,-366.57 528.8,-365.04 530.13,-371.91"/>
</g>
<!-- Node15 -->
<g id="node15" class="node">
<title>Node15</title>
<g id="a_node15"><a xlink:href="io_8h.html" target="_top" xlink:title=" ">
<polygon fill="none" stroke="red" points="266.5,-112.5 266.5,-131.5 314.5,-131.5 314.5,-112.5 266.5,-112.5"/>
<text text-anchor="middle" x="290.5" y="-119.5" font-family="Arial" font-size="10.00">util/io.h</text>
</a>
</g>
</g>
<!-- Node1&#45;&gt;Node15 -->
<g id="edge63" class="edge">
<title>Node1&#45;&gt;Node15</title>
<path fill="none" stroke="midnightblue" d="M277.18,-403.3C279.48,-354.91 287.01,-196.51 289.61,-141.79"/>
<polygon fill="midnightblue" stroke="midnightblue" points="293.12,-141.66 290.1,-131.51 286.12,-141.33 293.12,-141.66"/>
</g>
<!-- Node20 -->
<g id="node17" class="node">
<title>Node20</title>
<g id="a_node17"><a xlink:href="parallelUtil_8h.html" target="_top" xlink:title=" ">
<polygon fill="none" stroke="red" points="262,-56.5 262,-75.5 333,-75.5 333,-56.5 262,-56.5"/>
<text text-anchor="middle" x="297.5" y="-63.5" font-family="Arial" font-size="10.00">parallelUtil.h</text>
</a>
</g>
</g>
<!-- Node1&#45;&gt;Node20 -->
<g id="edge64" class="edge">
<title>Node1&#45;&gt;Node20</title>
<path fill="none" stroke="midnightblue" d="M275.22,-403.26C271.53,-361.59 260.97,-236.26 257.5,-132 257.2,-123.12 254.34,-120.31 257.5,-112 261.84,-100.6 270.53,-90.24 278.71,-82.34"/>
<polygon fill="midnightblue" stroke="midnightblue" points="281.14,-84.86 286.23,-75.57 276.46,-79.66 281.14,-84.86"/>
</g>
<!-- Node41 -->
<g id="node25" class="node">
<title>Node41</title>
<g id="a_node25"><a xlink:href="methods_8h.html" target="_top" xlink:title=" ">
<polygon fill="none" stroke="red" points="1187.5,-112.5 1187.5,-131.5 1265.5,-131.5 1265.5,-112.5 1187.5,-112.5"/>
<text text-anchor="middle" x="1226.5" y="-119.5" font-family="Arial" font-size="10.00">util/methods.h</text>
</a>
</g>
</g>
<!-- Node1&#45;&gt;Node41 -->
<g id="edge65" class="edge">
<title>Node1&#45;&gt;Node41</title>
<path fill="none" stroke="midnightblue" d="M325.77,-415.71C501.7,-408.69 1088.5,-379.47 1088.5,-302 1088.5,-302 1088.5,-302 1088.5,-238.5 1088.5,-185.14 1149.93,-151.56 1190.82,-135.13"/>
<polygon fill="midnightblue" stroke="midnightblue" points="1192.15,-138.37 1200.22,-131.51 1189.63,-131.84 1192.15,-138.37"/>
</g>
<!-- Node49 -->
<g id="node31" class="node">
<title>Node49</title>
<g id="a_node31"><a xlink:title=" ">
<polygon fill="none" stroke="#bfbfbf" points="1116.5,-347.5 1116.5,-366.5 1186.5,-366.5 1186.5,-347.5 1116.5,-347.5"/>
<text text-anchor="middle" x="1151.5" y="-354.5" font-family="Arial" font-size="10.00">fmt/format.h</text>
</a>
</g>
</g>
<!-- Node1&#45;&gt;Node49 -->
<g id="edge66" class="edge">
<title>Node1&#45;&gt;Node49</title>
<path fill="none" stroke="midnightblue" d="M325.57,-416.56C453.75,-413.67 809.07,-402.78 1102.5,-367 1103.76,-366.85 1105.03,-366.68 1106.31,-366.51"/>
<polygon fill="midnightblue" stroke="midnightblue" points="1106.89,-369.96 1116.25,-365 1105.84,-363.04 1106.89,-369.96"/>
</g>
<!-- Node3 -->
<g id="node3" class="node">
<title>Node3</title>
<g id="a_node3"><a xlink:title=" ">
<polygon fill="none" stroke="#bfbfbf" points="22,-291.5 22,-310.5 71,-310.5 71,-291.5 22,-291.5"/>
<text text-anchor="middle" x="46.5" y="-298.5" font-family="Arial" font-size="10.00">cstddef</text>
</a>
</g>
</g>
<!-- Node2&#45;&gt;Node3 -->
<g id="edge2" class="edge">
<title>Node2&#45;&gt;Node3</title>
<path fill="none" stroke="midnightblue" d="M46.5,-347.08C46.5,-340.01 46.5,-329.86 46.5,-320.99"/>
<polygon fill="midnightblue" stroke="midnightblue" points="50,-320.75 46.5,-310.75 43,-320.75 50,-320.75"/>
</g>
<!-- Node8 -->
<g id="node8" class="node">
<title>Node8</title>
<g id="a_node8"><a xlink:title=" ">
<polygon fill="none" stroke="#bfbfbf" points="245,-0.5 245,-19.5 286,-19.5 286,-0.5 245,-0.5"/>
<text text-anchor="middle" x="265.5" y="-7.5" font-family="Arial" font-size="10.00">string</text>
</a>
</g>
</g>
<!-- Node7&#45;&gt;Node8 -->
<g id="edge7" class="edge">
<title>Node7&#45;&gt;Node8</title>
<path fill="none" stroke="midnightblue" d="M320.05,-237.48C259.41,-233.61 127.23,-215.51 69.5,-132 50.29,-104.21 48.46,-82.42 69.5,-56 89.81,-30.49 184.84,-18.25 234.73,-13.5"/>
<polygon fill="midnightblue" stroke="midnightblue" points="235.29,-16.96 244.93,-12.57 234.66,-9.99 235.29,-16.96"/>
</g>
<!-- Node9 -->
<g id="node9" class="node">
<title>Node9</title>
<g id="a_node9"><a xlink:title=" ">
<polygon fill="none" stroke="#bfbfbf" points="861.5,-0.5 861.5,-19.5 905.5,-19.5 905.5,-0.5 861.5,-0.5"/>
<text text-anchor="middle" x="883.5" y="-7.5" font-family="Arial" font-size="10.00">vector</text>
</a>
</g>
</g>
<!-- Node7&#45;&gt;Node9 -->
<g id="edge8" class="edge">
<title>Node7&#45;&gt;Node9</title>
<path fill="none" stroke="midnightblue" d="M349.18,-229.89C345.96,-216.24 341.37,-189.01 349.5,-168 361.65,-136.61 373.06,-131.51 400.5,-112 452.11,-75.31 470.4,-72.62 531.5,-56 646.42,-24.74 788.5,-15.03 851.19,-12.15"/>
<polygon fill="midnightblue" stroke="midnightblue" points="851.42,-15.64 861.26,-11.72 851.11,-8.65 851.42,-15.64"/>
</g>
<!-- Node10 -->
<g id="node10" class="node">
<title>Node10</title>
<g id="a_node10"><a xlink:title=" ">
<polygon fill="none" stroke="#bfbfbf" points="358.5,-168.5 358.5,-187.5 410.5,-187.5 410.5,-168.5 358.5,-168.5"/>
<text text-anchor="middle" x="384.5" y="-175.5" font-family="Arial" font-size="10.00">memory</text>
</a>
</g>
</g>
<!-- Node7&#45;&gt;Node10 -->
<g id="edge9" class="edge">
<title>Node7&#45;&gt;Node10</title>
<path fill="none" stroke="midnightblue" d="M356.23,-229.98C361.08,-221.23 368.77,-207.37 374.9,-196.31"/>
<polygon fill="midnightblue" stroke="midnightblue" points="377.99,-197.95 379.78,-187.51 371.87,-194.56 377.99,-197.95"/>
</g>
<!-- Node12 -->
<g id="node12" class="node">
<title>Node12</title>
<g id="a_node12"><a xlink:href="modelData_8h.html" target="_top" xlink:title=" ">
<polygon fill="none" stroke="black" points="657,-291.5 657,-310.5 738,-310.5 738,-291.5 657,-291.5"/>
<text text-anchor="middle" x="697.5" y="-298.5" font-family="Arial" font-size="10.00">../modelData.h</text>
</a>
</g>
</g>
<!-- Node11&#45;&gt;Node12 -->
<g id="edge11" class="edge">
<title>Node11&#45;&gt;Node12</title>
<path fill="none" stroke="midnightblue" d="M601.56,-347.44C620.07,-338.68 649.08,-324.94 670.36,-314.86"/>
<polygon fill="midnightblue" stroke="midnightblue" points="671.98,-317.96 679.52,-310.52 668.99,-311.63 671.98,-317.96"/>
</g>
<!-- Node12&#45;&gt;Node7 -->
<g id="edge38" class="edge">
<title>Node12&#45;&gt;Node7</title>
<path fill="none" stroke="midnightblue" d="M656.73,-293.71C603.3,-285.36 506.74,-269.94 424.5,-255 414.2,-253.13 403.11,-250.99 392.76,-248.94"/>
<polygon fill="midnightblue" stroke="midnightblue" points="393.21,-245.46 382.72,-246.93 391.84,-252.33 393.21,-245.46"/>
</g>
<!-- Node12&#45;&gt;Node9 -->
<g id="edge62" class="edge">
<title>Node12&#45;&gt;Node9</title>
<path fill="none" stroke="midnightblue" d="M738.12,-296.58C878.05,-284.26 1331.5,-239.65 1331.5,-179 1331.5,-179 1331.5,-179 1331.5,-121 1331.5,-35.33 1018.65,-16.03 915.82,-12"/>
<polygon fill="midnightblue" stroke="midnightblue" points="915.84,-8.49 905.72,-11.62 915.58,-15.49 915.84,-8.49"/>
</g>
<!-- Node13 -->
<g id="node13" class="node">
<title>Node13</title>
<g id="a_node13"><a xlink:href="material_8h.html" target="_top" xlink:title=" ">
<polygon fill="none" stroke="black" points="688.5,-224.5 688.5,-254.5 782.5,-254.5 782.5,-224.5 688.5,-224.5"/>
<text text-anchor="start" x="696.5" y="-242.5" font-family="Arial" font-size="10.00">material/mparticle</text>
<text text-anchor="middle" x="735.5" y="-231.5" font-family="Arial" font-size="10.00">/material.h</text>
</a>
</g>
</g>
<!-- Node12&#45;&gt;Node13 -->
<g id="edge12" class="edge">
<title>Node12&#45;&gt;Node13</title>
<path fill="none" stroke="midnightblue" d="M702.94,-291.48C707.66,-284.09 714.69,-273.08 721.02,-263.17"/>
<polygon fill="midnightblue" stroke="midnightblue" points="724.11,-264.83 726.54,-254.52 718.21,-261.07 724.11,-264.83"/>
</g>
<!-- Node28 -->
<g id="node21" class="node">
<title>Node28</title>
<g id="a_node21"><a xlink:href="particleFLoading_8h.html" target="_top" xlink:title=" ">
<polygon fill="none" stroke="black" points="558.5,-112.5 558.5,-131.5 688.5,-131.5 688.5,-112.5 558.5,-112.5"/>
<text text-anchor="middle" x="623.5" y="-119.5" font-family="Arial" font-size="10.00">loading/particleFLoading.h</text>
</a>
</g>
</g>
<!-- Node12&#45;&gt;Node28 -->
<g id="edge39" class="edge">
<title>Node12&#45;&gt;Node28</title>
<path fill="none" stroke="midnightblue" d="M693.93,-291.46C682.53,-264.19 646.82,-178.78 631.08,-141.13"/>
<polygon fill="midnightblue" stroke="midnightblue" points="634.29,-139.74 627.21,-131.87 627.84,-142.44 634.29,-139.74"/>
</g>
<!-- Node39 -->
<g id="node23" class="node">
<title>Node39</title>
<g id="a_node23"><a xlink:href="particleULoading_8h.html" target="_top" xlink:title=" ">
<polygon fill="none" stroke="black" points="409,-112.5 409,-131.5 540,-131.5 540,-112.5 409,-112.5"/>
<text text-anchor="middle" x="474.5" y="-119.5" font-family="Arial" font-size="10.00">loading/particleULoading.h</text>
</a>
</g>
</g>
<!-- Node12&#45;&gt;Node39 -->
<g id="edge44" class="edge">
<title>Node12&#45;&gt;Node39</title>
<path fill="none" stroke="midnightblue" d="M668.25,-291.46C624.41,-277.19 541.87,-244.35 495.5,-188 484.56,-174.7 479.27,-155.58 476.75,-141.52"/>
<polygon fill="midnightblue" stroke="midnightblue" points="480.2,-140.91 475.26,-131.53 473.27,-141.94 480.2,-140.91"/>
</g>
<!-- Node40 -->
<g id="node24" class="node">
<title>Node40</title>
<g id="a_node24"><a xlink:href="nsearch_8h.html" target="_top" xlink:title=" ">
<polygon fill="none" stroke="black" points="963,-168.5 963,-187.5 1060,-187.5 1060,-168.5 963,-168.5"/>
<text text-anchor="middle" x="1011.5" y="-175.5" font-family="Arial" font-size="10.00">nsearch/nsearch.h</text>
</a>
</g>
</g>
<!-- Node12&#45;&gt;Node40 -->
<g id="edge47" class="edge">
<title>Node12&#45;&gt;Node40</title>
<path fill="none" stroke="midnightblue" d="M719.58,-291.49C774.17,-270.45 915.68,-215.92 979.48,-191.34"/>
<polygon fill="midnightblue" stroke="midnightblue" points="980.95,-194.52 989.02,-187.66 978.43,-187.99 980.95,-194.52"/>
</g>
<!-- Node46 -->
<g id="node28" class="node">
<title>Node46</title>
<g id="a_node28"><a xlink:href="fracture_8h.html" target="_top" xlink:title=" ">
<polygon fill="none" stroke="black" points="1360,-112.5 1360,-131.5 1461,-131.5 1461,-112.5 1360,-112.5"/>
<text text-anchor="middle" x="1410.5" y="-119.5" font-family="Arial" font-size="10.00">geometry/fracture.h</text>
</a>
</g>
</g>
<!-- Node12&#45;&gt;Node46 -->
<g id="edge57" class="edge">
<title>Node12&#45;&gt;Node46</title>
<path fill="none" stroke="midnightblue" d="M738.17,-299.51C872.32,-297.56 1295.18,-288.79 1345.5,-255 1384.8,-228.61 1401.27,-171.25 1407.36,-141.59"/>
<polygon fill="midnightblue" stroke="midnightblue" points="1410.81,-142.18 1409.21,-131.7 1403.93,-140.89 1410.81,-142.18"/>
</g>
<!-- Node13&#45;&gt;Node8 -->
<g id="edge36" class="edge">
<title>Node13&#45;&gt;Node8</title>
<path fill="none" stroke="midnightblue" d="M688.44,-229.32C639.94,-219.69 562.21,-203.79 495.5,-188 461.51,-179.96 453.52,-175.93 419.5,-168 341.32,-149.78 317.87,-159.63 242.5,-132 193.94,-114.2 166.84,-120.51 140.5,-76 117.78,-37.61 190.88,-20.93 234.8,-14.51"/>
<polygon fill="midnightblue" stroke="midnightblue" points="235.29,-17.97 244.73,-13.16 234.35,-11.04 235.29,-17.97"/>
</g>
<!-- Node13&#45;&gt;Node9 -->
<g id="edge37" class="edge">
<title>Node13&#45;&gt;Node9</title>
<path fill="none" stroke="midnightblue" d="M782.77,-236.82C902.96,-231.41 1214.95,-210 1274.5,-132 1310.04,-85.45 1257.76,-80.25 1198.5,-56 1101.28,-16.21 974.68,-10.7 915.99,-10.5"/>
<polygon fill="midnightblue" stroke="midnightblue" points="915.84,-7 905.85,-10.52 915.85,-14 915.84,-7"/>
</g>
<!-- Node13&#45;&gt;Node10 -->
<g id="edge35" class="edge">
<title>Node13&#45;&gt;Node10</title>
<path fill="none" stroke="midnightblue" d="M688.16,-230.48C617.08,-218.43 484.33,-195.92 420.54,-185.11"/>
<polygon fill="midnightblue" stroke="midnightblue" points="420.99,-181.64 410.55,-183.42 419.82,-188.54 420.99,-181.64"/>
</g>
<!-- Node14 -->
<g id="node14" class="node">
<title>Node14</title>
<g id="a_node14"><a xlink:href="influenceFn_8h.html" target="_top" xlink:title=" ">
<polygon fill="none" stroke="red" points="689,-168.5 689,-187.5 764,-187.5 764,-168.5 689,-168.5"/>
<text text-anchor="middle" x="726.5" y="-175.5" font-family="Arial" font-size="10.00">influenceFn.h</text>
</a>
</g>
</g>
<!-- Node13&#45;&gt;Node14 -->
<g id="edge13" class="edge">
<title>Node13&#45;&gt;Node14</title>
<path fill="none" stroke="midnightblue" d="M733.37,-224.4C732.15,-216.38 730.62,-206.23 729.31,-197.57"/>
<polygon fill="midnightblue" stroke="midnightblue" points="732.77,-197.02 727.81,-187.66 725.84,-198.07 732.77,-197.02"/>
</g>
<!-- Node16 -->
<g id="node16" class="node">
<title>Node16</title>
<g id="a_node16"><a xlink:href="point_8h.html" target="_top" xlink:title=" ">
<polygon fill="none" stroke="red" points="809.5,-56.5 809.5,-75.5 855.5,-75.5 855.5,-56.5 809.5,-56.5"/>
<text text-anchor="middle" x="832.5" y="-63.5" font-family="Arial" font-size="10.00">point.h</text>
</a>
</g>
</g>
<!-- Node13&#45;&gt;Node16 -->
<g id="edge33" class="edge">
<title>Node13&#45;&gt;Node16</title>
<path fill="none" stroke="midnightblue" d="M747.24,-224.43C755.17,-214.58 765.59,-200.91 773.5,-188 784.86,-169.45 810.89,-113.9 824.25,-84.97"/>
<polygon fill="midnightblue" stroke="midnightblue" points="827.55,-86.18 828.55,-75.63 821.19,-83.25 827.55,-86.18"/>
</g>
<!-- Node25 -->
<g id="node18" class="node">
<title>Node25</title>
<g id="a_node18"><a xlink:href="materialDeck_8h.html" target="_top" xlink:title=" ">
<polygon fill="none" stroke="red" points="504.5,-168.5 504.5,-187.5 632.5,-187.5 632.5,-168.5 504.5,-168.5"/>
<text text-anchor="middle" x="568.5" y="-175.5" font-family="Arial" font-size="10.00">inp/decks/materialDeck.h</text>
</a>
</g>
</g>
<!-- Node13&#45;&gt;Node25 -->
<g id="edge26" class="edge">
<title>Node13&#45;&gt;Node25</title>
<path fill="none" stroke="midnightblue" d="M695.92,-224.4C667.4,-214.24 629.33,-200.67 602.24,-191.02"/>
<polygon fill="midnightblue" stroke="midnightblue" points="603.39,-187.72 592.8,-187.66 601.05,-194.31 603.39,-187.72"/>
</g>
<!-- Node26 -->
<g id="node19" class="node">
<title>Node26</title>
<g id="a_node19"><a xlink:href="function_8h.html" target="_top" xlink:title=" ">
<polygon fill="none" stroke="black" points="821,-112.5 821,-131.5 896,-131.5 896,-112.5 821,-112.5"/>
<text text-anchor="middle" x="858.5" y="-119.5" font-family="Arial" font-size="10.00">util/function.h</text>
</a>
</g>
</g>
<!-- Node13&#45;&gt;Node26 -->
<g id="edge30" class="edge">
<title>Node13&#45;&gt;Node26</title>
<path fill="none" stroke="midnightblue" d="M758.79,-224.3C773.29,-214.91 791.88,-201.82 806.5,-188 822.03,-173.32 836.97,-153.91 846.82,-140.14"/>
<polygon fill="midnightblue" stroke="midnightblue" points="849.91,-141.83 852.77,-131.63 844.17,-137.82 849.91,-141.83"/>
</g>
<!-- Node27 -->
<g id="node20" class="node">
<title>Node27</title>
<g id="a_node20"><a xlink:title=" ">
<polygon fill="none" stroke="#bfbfbf" points="858.5,-168.5 858.5,-187.5 898.5,-187.5 898.5,-168.5 858.5,-168.5"/>
<text text-anchor="middle" x="878.5" y="-175.5" font-family="Arial" font-size="10.00">limits</text>
</a>
</g>
</g>
<!-- Node13&#45;&gt;Node27 -->
<g id="edge34" class="edge">
<title>Node13&#45;&gt;Node27</title>
<path fill="none" stroke="midnightblue" d="M769.39,-224.4C793.53,-214.36 825.66,-200.99 848.79,-191.36"/>
<polygon fill="midnightblue" stroke="midnightblue" points="850.22,-194.56 858.11,-187.48 847.53,-188.09 850.22,-194.56"/>
</g>
<!-- Node14&#45;&gt;Node4 -->
<g id="edge24" class="edge">
<title>Node14&#45;&gt;Node4</title>
<path fill="none" stroke="midnightblue" d="M723.87,-168.46C719.62,-155.5 710.41,-130.42 697.5,-112 676.93,-82.66 669.13,-76.15 639.5,-56 619.47,-42.38 594.64,-31.1 574.86,-23.25"/>
<polygon fill="midnightblue" stroke="midnightblue" points="575.91,-19.9 565.32,-19.56 573.39,-26.43 575.91,-19.9"/>
</g>
<!-- Node14&#45;&gt;Node9 -->
<g id="edge25" class="edge">
<title>Node14&#45;&gt;Node9</title>
<path fill="none" stroke="midnightblue" d="M729.91,-168.33C738.71,-146.89 764.07,-90.58 800.5,-56 815.31,-41.94 835.35,-30.91 852.04,-23.29"/>
<polygon fill="midnightblue" stroke="midnightblue" points="853.64,-26.41 861.4,-19.2 850.84,-19.99 853.64,-26.41"/>
</g>
<!-- Node14&#45;&gt;Node15 -->
<g id="edge14" class="edge">
<title>Node14&#45;&gt;Node15</title>
<path fill="none" stroke="midnightblue" d="M688.91,-173.01C596.57,-163.17 363.52,-138.1 328.5,-132 327.22,-131.78 325.92,-131.54 324.61,-131.28"/>
<polygon fill="midnightblue" stroke="midnightblue" points="325.04,-127.8 314.53,-129.15 323.59,-134.65 325.04,-127.8"/>
</g>
<!-- Node15&#45;&gt;Node4 -->
<g id="edge21" class="edge">
<title>Node15&#45;&gt;Node4</title>
<path fill="none" stroke="midnightblue" d="M307.08,-112.32C332.03,-99.38 380.85,-74.58 423.5,-56 451.26,-43.91 483.4,-31.67 506.96,-23.01"/>
<polygon fill="midnightblue" stroke="midnightblue" points="508.31,-26.25 516.5,-19.53 505.91,-19.67 508.31,-26.25"/>
</g>
<!-- Node15&#45;&gt;Node5 -->
<g id="edge23" class="edge">
<title>Node15&#45;&gt;Node5</title>
<path fill="none" stroke="midnightblue" d="M272.59,-112.44C254.25,-103.68 225.49,-89.94 204.41,-79.86"/>
<polygon fill="midnightblue" stroke="midnightblue" points="205.85,-76.67 195.32,-75.52 202.83,-82.99 205.85,-76.67"/>
</g>
<!-- Node15&#45;&gt;Node9 -->
<g id="edge22" class="edge">
<title>Node15&#45;&gt;Node9</title>
<path fill="none" stroke="midnightblue" d="M314.86,-112.91C340.39,-104.29 381.56,-89.98 416.5,-76 436.82,-67.87 440.36,-61.67 461.5,-56 602.96,-18.03 779.2,-11.89 850.89,-11.05"/>
<polygon fill="midnightblue" stroke="midnightblue" points="851.12,-14.55 861.09,-10.96 851.06,-7.55 851.12,-14.55"/>
</g>
<!-- Node15&#45;&gt;Node16 -->
<g id="edge15" class="edge">
<title>Node15&#45;&gt;Node16</title>
<path fill="none" stroke="midnightblue" d="M314.84,-118.57C402.09,-109.88 699.26,-80.27 799.31,-70.31"/>
<polygon fill="midnightblue" stroke="midnightblue" points="799.84,-73.77 809.45,-69.3 799.15,-66.81 799.84,-73.77"/>
</g>
<!-- Node15&#45;&gt;Node20 -->
<g id="edge18" class="edge">
<title>Node15&#45;&gt;Node20</title>
<path fill="none" stroke="midnightblue" d="M291.66,-112.08C292.58,-104.93 293.92,-94.64 295.08,-85.69"/>
<polygon fill="midnightblue" stroke="midnightblue" points="298.55,-86.12 296.37,-75.75 291.61,-85.22 298.55,-86.12"/>
</g>
<!-- Node16&#45;&gt;Node4 -->
<g id="edge16" class="edge">
<title>Node16&#45;&gt;Node4</title>
<path fill="none" stroke="midnightblue" d="M809.1,-60.67C758.56,-51.33 638.88,-29.19 577.78,-17.89"/>
<polygon fill="midnightblue" stroke="midnightblue" points="578.26,-14.42 567.79,-16.05 576.99,-21.31 578.26,-14.42"/>
</g>
<!-- Node16&#45;&gt;Node9 -->
<g id="edge17" class="edge">
<title>Node16&#45;&gt;Node9</title>
<path fill="none" stroke="midnightblue" d="M840.92,-56.08C848.35,-48.22 859.35,-36.57 868.31,-27.08"/>
<polygon fill="midnightblue" stroke="midnightblue" points="870.91,-29.42 875.24,-19.75 865.82,-24.62 870.91,-29.42"/>
</g>
<!-- Node20&#45;&gt;Node8 -->
<g id="edge19" class="edge">
<title>Node20&#45;&gt;Node8</title>
<path fill="none" stroke="midnightblue" d="M292.22,-56.08C287.79,-48.61 281.34,-37.72 275.88,-28.52"/>
<polygon fill="midnightblue" stroke="midnightblue" points="278.79,-26.57 270.69,-19.75 272.77,-30.14 278.79,-26.57"/>
</g>
<!-- Node20&#45;&gt;Node9 -->
<g id="edge20" class="edge">
<title>Node20&#45;&gt;Node9</title>
<path fill="none" stroke="midnightblue" d="M333.27,-61.7C439.13,-51.95 749.71,-23.33 851.09,-13.99"/>
<polygon fill="midnightblue" stroke="midnightblue" points="851.68,-17.45 861.32,-13.04 851.04,-10.48 851.68,-17.45"/>
</g>
<!-- Node25&#45;&gt;Node8 -->
<g id="edge28" class="edge">
<title>Node25&#45;&gt;Node8</title>
<path fill="none" stroke="midnightblue" d="M504.41,-168.73C414.6,-157.01 261.73,-136.47 257.5,-132 231.3,-104.33 246.14,-55.31 257.09,-28.96"/>
<polygon fill="midnightblue" stroke="midnightblue" points="260.31,-30.32 261.14,-19.76 253.91,-27.5 260.31,-30.32"/>
</g>
<!-- Node25&#45;&gt;Node9 -->
<g id="edge29" class="edge">
<title>Node25&#45;&gt;Node9</title>
<path fill="none" stroke="midnightblue" d="M632.54,-171.43C751.34,-160.96 994.4,-138.77 1000.5,-132 1037.03,-91.47 958.03,-45.69 912.6,-23.88"/>
<polygon fill="midnightblue" stroke="midnightblue" points="914,-20.68 903.46,-19.6 911.03,-27.02 914,-20.68"/>
</g>
<!-- Node25&#45;&gt;Node15 -->
<g id="edge27" class="edge">
<title>Node25&#45;&gt;Node15</title>
<path fill="none" stroke="midnightblue" d="M519.18,-168.46C470.57,-159.87 394.23,-145.94 328.5,-132 327.23,-131.73 325.94,-131.45 324.64,-131.17"/>
<polygon fill="midnightblue" stroke="midnightblue" points="325.11,-127.68 314.58,-128.89 323.56,-134.51 325.11,-127.68"/>
</g>
<!-- Node26&#45;&gt;Node9 -->
<g id="edge32" class="edge">
<title>Node26&#45;&gt;Node9</title>
<path fill="none" stroke="midnightblue" d="M860.46,-112.37C864.5,-94.62 873.8,-53.67 879.27,-29.6"/>
<polygon fill="midnightblue" stroke="midnightblue" points="882.74,-30.12 881.55,-19.59 875.92,-28.57 882.74,-30.12"/>
</g>
<!-- Node26&#45;&gt;Node16 -->
<g id="edge31" class="edge">
<title>Node26&#45;&gt;Node16</title>
<path fill="none" stroke="midnightblue" d="M854.21,-112.08C850.65,-104.69 845.48,-93.95 841.08,-84.81"/>
<polygon fill="midnightblue" stroke="midnightblue" points="844.21,-83.24 836.71,-75.75 837.9,-86.28 844.21,-83.24"/>
</g>
<!-- Node28&#45;&gt;Node16 -->
<g id="edge43" class="edge">
<title>Node28&#45;&gt;Node16</title>
<path fill="none" stroke="midnightblue" d="M656.62,-112.44C695.71,-102.34 760.34,-85.64 799.42,-75.55"/>
<polygon fill="midnightblue" stroke="midnightblue" points="800.44,-78.9 809.25,-73.01 798.69,-72.12 800.44,-78.9"/>
</g>
<!-- Node29 -->
<g id="node22" class="node">
<title>Node29</title>
<g id="a_node22"><a xlink:href="particleLoading_8h.html" target="_top" xlink:title=" ">
<polygon fill="none" stroke="red" points="540.5,-56.5 540.5,-75.5 630.5,-75.5 630.5,-56.5 540.5,-56.5"/>
<text text-anchor="middle" x="585.5" y="-63.5" font-family="Arial" font-size="10.00">particleLoading.h</text>
</a>
</g>
</g>
<!-- Node28&#45;&gt;Node29 -->
<g id="edge40" class="edge">
<title>Node28&#45;&gt;Node29</title>
<path fill="none" stroke="midnightblue" d="M617.23,-112.08C611.86,-104.46 603.98,-93.26 597.42,-83.94"/>
<polygon fill="midnightblue" stroke="midnightblue" points="600.28,-81.91 591.66,-75.75 594.55,-85.94 600.28,-81.91"/>
</g>
<!-- Node29&#45;&gt;Node8 -->
<g id="edge41" class="edge">
<title>Node29&#45;&gt;Node8</title>
<path fill="none" stroke="midnightblue" d="M540.33,-57.38C474.3,-46.23 353.11,-25.78 296.35,-16.21"/>
<polygon fill="midnightblue" stroke="midnightblue" points="296.65,-12.71 286.21,-14.5 295.49,-19.61 296.65,-12.71"/>
</g>
<!-- Node29&#45;&gt;Node9 -->
<g id="edge42" class="edge">
<title>Node29&#45;&gt;Node9</title>
<path fill="none" stroke="midnightblue" d="M630.76,-56.8C691.67,-45.76 798.48,-26.41 851.61,-16.78"/>
<polygon fill="midnightblue" stroke="midnightblue" points="852.28,-20.21 861.49,-14.99 851.03,-13.33 852.28,-20.21"/>
</g>
<!-- Node39&#45;&gt;Node16 -->
<g id="edge46" class="edge">
<title>Node39&#45;&gt;Node16</title>
<path fill="none" stroke="midnightblue" d="M531.23,-112.44C606.74,-101.05 737.87,-81.27 799.14,-72.03"/>
<polygon fill="midnightblue" stroke="midnightblue" points="800.03,-75.44 809.4,-70.48 798.99,-68.52 800.03,-75.44"/>
</g>
<!-- Node39&#45;&gt;Node29 -->
<g id="edge45" class="edge">
<title>Node39&#45;&gt;Node29</title>
<path fill="none" stroke="midnightblue" d="M492.33,-112.32C510.22,-103.62 537.98,-90.12 558.55,-80.11"/>
<polygon fill="midnightblue" stroke="midnightblue" points="560.25,-83.18 567.71,-75.65 557.19,-76.88 560.25,-83.18"/>
</g>
<!-- Node40&#45;&gt;Node8 -->
<g id="edge53" class="edge">
<title>Node40&#45;&gt;Node8</title>
<path fill="none" stroke="midnightblue" d="M962.84,-172.63C945.39,-171.11 925.57,-169.42 907.5,-168 794.9,-159.13 499.9,-185.65 400.5,-132 363.11,-111.82 374.33,-84.14 342.5,-56 327.9,-43.09 309.04,-32 293.64,-24.05"/>
<polygon fill="midnightblue" stroke="midnightblue" points="295.08,-20.86 284.57,-19.53 291.95,-27.12 295.08,-20.86"/>
</g>
<!-- Node40&#45;&gt;Node9 -->
<g id="edge54" class="edge">
<title>Node40&#45;&gt;Node9</title>
<path fill="none" stroke="midnightblue" d="M1051.25,-168.43C1085.1,-160.24 1129.89,-146.94 1140.5,-132 1145.65,-124.75 1145.1,-119.6 1140.5,-112 1093.06,-33.62 973.23,-15.98 915.53,-12.07"/>
<polygon fill="midnightblue" stroke="midnightblue" points="915.69,-8.57 905.51,-11.49 915.29,-15.56 915.69,-8.57"/>
</g>
<!-- Node40&#45;&gt;Node16 -->
<g id="edge48" class="edge">
<title>Node40&#45;&gt;Node16</title>
<path fill="none" stroke="midnightblue" d="M1012.74,-168.16C1014.16,-154.34 1014.67,-127.57 1000.5,-112 982.57,-92.3 909.54,-78.38 865.89,-71.63"/>
<polygon fill="midnightblue" stroke="midnightblue" points="866.15,-68.13 855.74,-70.11 865.11,-75.05 866.15,-68.13"/>
</g>
<!-- Node40&#45;&gt;Node41 -->
<g id="edge49" class="edge">
<title>Node40&#45;&gt;Node41</title>
<path fill="none" stroke="midnightblue" d="M1045.57,-168.44C1082.68,-159.12 1142.16,-144.18 1182.71,-134"/>
<polygon fill="midnightblue" stroke="midnightblue" points="1183.75,-137.35 1192.59,-131.52 1182.04,-130.56 1183.75,-137.35"/>
</g>
<!-- Node43 -->
<g id="node26" class="node">
<title>Node43</title>
<g id="a_node26"><a xlink:title=" ">
<polygon fill="none" stroke="#bfbfbf" points="1085.5,-112.5 1085.5,-131.5 1131.5,-131.5 1131.5,-112.5 1085.5,-112.5"/>
<text text-anchor="middle" x="1108.5" y="-119.5" font-family="Arial" font-size="10.00">cstdint</text>
</a>
</g>
</g>
<!-- Node40&#45;&gt;Node43 -->
<g id="edge52" class="edge">
<title>Node40&#45;&gt;Node43</title>
<path fill="none" stroke="midnightblue" d="M1027.08,-168.32C1042.5,-159.74 1066.31,-146.49 1084.21,-136.52"/>
<polygon fill="midnightblue" stroke="midnightblue" points="1085.92,-139.58 1092.95,-131.65 1082.51,-133.46 1085.92,-139.58"/>
</g>
<!-- Node44 -->
<g id="node27" class="node">
<title>Node44</title>
<g id="a_node27"><a xlink:href="nflannSetup_8h.html" target="_top" xlink:title=" ">
<polygon fill="none" stroke="red" points="914,-112.5 914,-131.5 991,-131.5 991,-112.5 914,-112.5"/>
<text text-anchor="middle" x="952.5" y="-119.5" font-family="Arial" font-size="10.00">nflannSetup.h</text>
</a>
</g>
</g>
<!-- Node40&#45;&gt;Node44 -->
<g id="edge55" class="edge">
<title>Node40&#45;&gt;Node44</title>
<path fill="none" stroke="midnightblue" d="M1002.02,-168.32C993.3,-160.34 980.16,-148.31 969.6,-138.65"/>
<polygon fill="midnightblue" stroke="midnightblue" points="971.89,-136 962.15,-131.83 967.17,-141.17 971.89,-136"/>
</g>
<!-- Node41&#45;&gt;Node9 -->
<g id="edge51" class="edge">
<title>Node41&#45;&gt;Node9</title>
<path fill="none" stroke="midnightblue" d="M1222.05,-112.1C1214.33,-97.68 1197,-69.46 1173.5,-56 1130.05,-31.1 982.36,-17.91 916.12,-13.13"/>
<polygon fill="midnightblue" stroke="midnightblue" points="916.06,-9.61 905.84,-12.4 915.57,-16.6 916.06,-9.61"/>
</g>
<!-- Node41&#45;&gt;Node16 -->
<g id="edge50" class="edge">
<title>Node41&#45;&gt;Node16</title>
<path fill="none" stroke="midnightblue" d="M1187.28,-115.62C1109.73,-105 938.05,-81.47 865.69,-71.55"/>
<polygon fill="midnightblue" stroke="midnightblue" points="866.14,-68.08 855.76,-70.19 865.19,-75.01 866.14,-68.08"/>
</g>
<!-- Node44&#45;&gt;Node16 -->
<g id="edge56" class="edge">
<title>Node44&#45;&gt;Node16</title>
<path fill="none" stroke="midnightblue" d="M933.49,-112.44C913.91,-103.64 883.19,-89.81 860.77,-79.72"/>
<polygon fill="midnightblue" stroke="midnightblue" points="861.98,-76.43 851.43,-75.52 859.11,-82.81 861.98,-76.43"/>
</g>
<!-- Node46&#45;&gt;Node9 -->
<g id="edge61" class="edge">
<title>Node46&#45;&gt;Node9</title>
<path fill="none" stroke="midnightblue" d="M1404.92,-112.39C1394.97,-97.86 1372.63,-68.81 1345.5,-56 1269.1,-19.91 1007.87,-12.75 915.88,-11.34"/>
<polygon fill="midnightblue" stroke="midnightblue" points="915.81,-7.84 905.77,-11.2 915.72,-14.84 915.81,-7.84"/>
</g>
<!-- Node46&#45;&gt;Node16 -->
<g id="edge58" class="edge">
<title>Node46&#45;&gt;Node16</title>
<path fill="none" stroke="midnightblue" d="M1359.97,-116.28C1244.24,-105.47 962.54,-79.15 865.78,-70.11"/>
<polygon fill="midnightblue" stroke="midnightblue" points="865.98,-66.61 855.69,-69.17 865.32,-73.58 865.98,-66.61"/>
</g>
<!-- Node47 -->
<g id="node29" class="node">
<title>Node47</title>
<g id="a_node29"><a xlink:title=" ">
<polygon fill="none" stroke="#bfbfbf" points="1398,-56.5 1398,-75.5 1447,-75.5 1447,-56.5 1398,-56.5"/>
<text text-anchor="middle" x="1422.5" y="-63.5" font-family="Arial" font-size="10.00">stdint.h</text>
</a>
</g>
</g>
<!-- Node46&#45;&gt;Node47 -->
<g id="edge59" class="edge">
<title>Node46&#45;&gt;Node47</title>
<path fill="none" stroke="midnightblue" d="M1412.48,-112.08C1414.07,-104.93 1416.36,-94.64 1418.35,-85.69"/>
<polygon fill="midnightblue" stroke="midnightblue" points="1421.8,-86.27 1420.56,-75.75 1414.97,-84.75 1421.8,-86.27"/>
</g>
<!-- Node48 -->
<g id="node30" class="node">
<title>Node48</title>
<g id="a_node30"><a xlink:title=" ">
<polygon fill="none" stroke="#bfbfbf" points="1465,-56.5 1465,-75.5 1514,-75.5 1514,-56.5 1465,-56.5"/>
<text text-anchor="middle" x="1489.5" y="-63.5" font-family="Arial" font-size="10.00">string.h</text>
</a>
</g>
</g>
<!-- Node46&#45;&gt;Node48 -->
<g id="edge60" class="edge">
<title>Node46&#45;&gt;Node48</title>
<path fill="none" stroke="midnightblue" d="M1423.19,-112.32C1435.4,-103.98 1454.08,-91.21 1468.5,-81.35"/>
<polygon fill="midnightblue" stroke="midnightblue" points="1470.56,-84.19 1476.84,-75.65 1466.61,-78.41 1470.56,-84.19"/>
</g>
</g>
</svg>
