<?xml version="1.0" encoding="UTF-8" standalone="no"?>
<!DOCTYPE svg PUBLIC "-//W3C//DTD SVG 1.1//EN"
 "http://www.w3.org/Graphics/SVG/1.1/DTD/svg11.dtd">
<!-- Generated by graphviz version 2.43.0 (0)
 -->
<!-- Title: /home/user/project/src/main.cpp Pages: 1 -->
<svg width="1722pt" height="442pt"
 viewBox="0.00 0.00 1721.50 442.00" xmlns="http://www.w3.org/2000/svg" xmlns:xlink="http://www.w3.org/1999/xlink">
<g id="graph0" class="graph" transform="scale(1 1) rotate(0) translate(4 438)">
<title>/home/user/project/src/main.cpp</title>
<!-- Node1 -->
<g id="node1" class="node">
<title>Node1</title>
<g id="a_node1"><a xlink:title=" ">
<polygon fill="#bfbfbf" stroke="black" points="550.5,-403.5 550.5,-433.5 648.5,-433.5 648.5,-403.5 550.5,-403.5"/>
<text text-anchor="start" x="558.5" y="-421.5" font-family="Arial" font-size="10.00">/home/user/project</text>
<text text-anchor="middle" x="599.5" y="-410.5" font-family="Arial" font-size="10.00">/src/main.cpp</text>
</a>
</g>
</g>
<!-- Node2 -->
<g id="node2" class="node">
<title>Node2</title>
<g id="a_node2"><a xlink:href="PeriDEMConfig_8h.html" target="_top" xlink:title=" ">
<polygon fill="none" stroke="black" points="0,-347.5 0,-366.5 93,-366.5 93,-347.5 0,-347.5"/>
<text text-anchor="middle" x="46.5" y="-354.5" font-family="Arial" font-size="10.00">PeriDEMConfig.h</text>
</a>
</g>
</g>
<!-- Node1&#45;&gt;Node2 -->
<g id="edge1" class="edge">
<title>Node1&#45;&gt;Node2</title>
<path fill="none" stroke="midnightblue" d="M550.19,-413.17C461.48,-405.21 269.17,-387.21 107.5,-367 106.04,-366.82 104.56,-366.63 103.07,-366.43"/>
<polygon fill="midnightblue" stroke="midnightblue" points="103.48,-362.96 93.1,-365.09 102.54,-369.9 103.48,-362.96"/>
</g>
<!-- Node4 -->
<g id="node4" class="node">
<title>Node4</title>
<g id="a_node4"><a xlink:title=" ">
<polygon fill="none" stroke="#bfbfbf" points="188.5,-0.5 188.5,-19.5 242.5,-19.5 242.5,-0.5 188.5,-0.5"/>
<text text-anchor="middle" x="215.5" y="-7.5" font-family="Arial" font-size="10.00">iostream</text>
</a>
</g>
</g>
<!-- Node1&#45;&gt;Node4 -->
<g id="edge3" class="edge">
<title>Node1&#45;&gt;Node4</title>
<path fill="none" stroke="midnightblue" d="M550.15,-415.99C428.02,-410.93 121.5,-389.51 121.5,-302 121.5,-302 121.5,-302 121.5,-121 121.5,-77.93 163.66,-43.21 191.51,-24.98"/>
<polygon fill="midnightblue" stroke="midnightblue" points="193.38,-27.94 199.98,-19.65 189.65,-22.01 193.38,-27.94"/>
</g>
<!-- Node5 -->
<g id="node5" class="node">
<title>Node5</title>
<g id="a_node5"><a xlink:title=" ">
<polygon fill="none" stroke="#bfbfbf" points="187.5,-56.5 187.5,-75.5 243.5,-75.5 243.5,-56.5 187.5,-56.5"/>
<text text-anchor="middle" x="215.5" y="-63.5" font-family="Arial" font-size="10.00">algorithm</text>
</a>
</g>
</g>
<!-- Node1&#45;&gt;Node5 -->
<g id="edge4" class="edge">
<title>Node1&#45;&gt;Node5</title>
<path fill="none" stroke="midnightblue" d="M550.5,-417.12C462.11,-415.42 280.87,-407.02 234.5,-367 211.71,-347.34 215.5,-332.1 215.5,-302 215.5,-302 215.5,-302 215.5,-177 215.5,-144.95 215.5,-107.64 215.5,-85.75"/>
<polygon fill="midnightblue" stroke="midnightblue" points="219,-85.56 215.5,-75.56 212,-85.56 219,-85.56"/>
</g>
<!-- Node6 -->
<g id="node6" class="node">
<title>Node6</title>
<g id="a_node6"><a xlink:title=" ">
<polygon fill="none" stroke="#bfbfbf" points="244,-347.5 244,-366.5 285,-366.5 285,-347.5 244,-347.5"/>
<text text-anchor="middle" x="264.5" y="-354.5" font-family="Arial" font-size="10.00">ctime</text>
</a>
</g>
</g>
<!-- Node1&#45;&gt;Node6 -->
<g id="edge5" class="edge">
<title>Node1&#45;&gt;Node6</title>
<path fill="none" stroke="midnightblue" d="M550.41,-410.55C490.8,-401.8 387.33,-385.65 299.5,-367 298.04,-366.69 296.55,-366.36 295.05,-366.02"/>
<polygon fill="midnightblue" stroke="midnightblue" points="295.7,-362.57 285.16,-363.62 294.06,-369.38 295.7,-362.57"/>
</g>
<!-- Node7 -->
<g id="node7" class="node">
<title>Node7</title>
<g id="a_node7"><a xlink:href="input_8h.html" target="_top" xlink:title=" ">
<polygon fill="none" stroke="black" points="1491.5,-230 1491.5,-249 1553.5,-249 1553.5,-230 1491.5,-230"/>
<text text-anchor="middle" x="1522.5" y="-237" font-family="Arial" font-size="10.00">inp/input.h</text>
</a>
</g>
</g>
<!-- Node1&#45;&gt;Node7 -->
<g id="edge6" class="edge">
<title>Node1&#45;&gt;Node7</title>
<path fill="none" stroke="midnightblue" d="M648.63,-416.46C743.37,-413.65 957.51,-403.47 1133.5,-367 1270.79,-338.55 1427.7,-278.74 1492.3,-252.86"/>
<polygon fill="midnightblue" stroke="midnightblue" points="1493.89,-256 1501.86,-249.01 1491.27,-249.5 1493.89,-256"/>
</g>
<!-- Node11 -->
<g id="node11" class="node">
<title>Node11</title>
<g id="a_node11"><a xlink:href="demModel_8h.html" target="_top" xlink:title=" ">
<polygon fill="none" stroke="black" points="1004,-347.5 1004,-366.5 1125,-366.5 1125,-347.5 1004,-347.5"/>
<text text-anchor="middle" x="1064.5" y="-354.5" font-family="Arial" font-size="10.00">model/dem/demModel.h</text>
</a>
</g>
</g>
<!-- Node1&#45;&gt;Node11 -->
<g id="edge10" class="edge">
<title>Node1&#45;&gt;Node11</title>
<path fill="none" stroke="midnightblue" d="M648.82,-411.19C731.48,-400.61 898.24,-379.27 993.5,-367.08"/>
<polygon fill="midnightblue" stroke="midnightblue" points="994.15,-370.53 1003.63,-365.79 993.26,-363.59 994.15,-370.53"/>
</g>
<!-- Node15 -->
<g id="node15" class="node">
<title>Node15</title>
<g id="a_node15"><a xlink:href="io_8h.html" target="_top" xlink:title=" ">
<polygon fill="none" stroke="red" points="303.5,-112.5 303.5,-131.5 351.5,-131.5 351.5,-112.5 303.5,-112.5"/>
<text text-anchor="middle" x="327.5" y="-119.5" font-family="Arial" font-size="10.00">util/io.h</text>
</a>
</g>
</g>
<!-- Node1&#45;&gt;Node15 -->
<g id="edge68" class="edge">
<title>Node1&#45;&gt;Node15</title>
<path fill="none" stroke="midnightblue" d="M550.33,-408.17C468.56,-391.24 313.5,-352.47 313.5,-302 313.5,-302 313.5,-302 313.5,-238.5 313.5,-204.11 319.69,-164.38 323.84,-141.63"/>
<polygon fill="midnightblue" stroke="midnightblue" points="327.31,-142.13 325.73,-131.65 320.43,-140.82 327.31,-142.13"/>
</g>
<!-- Node20 -->
<g id="node17" class="node">
<title>Node20</title>
<g id="a_node17"><a xlink:href="parallelUtil_8h.html" target="_top" xlink:title=" ">
<polygon fill="none" stroke="red" points="1364,-56.5 1364,-75.5 1435,-75.5 1435,-56.5 1364,-56.5"/>
<text text-anchor="middle" x="1399.5" y="-63.5" font-family="Arial" font-size="10.00">parallelUtil.h</text>
</a>
</g>
</g>
<!-- Node1&#45;&gt;Node20 -->
<g id="edge69" class="edge">
<title>Node1&#45;&gt;Node20</title>
<path fill="none" stroke="midnightblue" d="M648.5,-417.14C851.45,-415.03 1615.5,-400.53 1615.5,-302 1615.5,-302 1615.5,-302 1615.5,-177 1615.5,-101.26 1508.74,-77.65 1445.33,-70.3"/>
<polygon fill="midnightblue" stroke="midnightblue" points="1445.48,-66.8 1435.17,-69.22 1444.74,-73.76 1445.48,-66.8"/>
</g>
<!-- Node41 -->
<g id="node26" class="node">
<title>Node41</title>
<g id="a_node26"><a xlink:href="methods_8h.html" target="_top" xlink:title=" ">
<polygon fill="none" stroke="red" points="1085.5,-112.5 1085.5,-131.5 1163.5,-131.5 1163.5,-112.5 1085.5,-112.5"/>
<text text-anchor="middle" x="1124.5" y="-119.5" font-family="Arial" font-size="10.00">util/methods.h</text>
</a>
</g>
</g>
<!-- Node1&#45;&gt;Node41 -->
<g id="edge70" class="edge">
<title>Node1&#45;&gt;Node41</title>
<path fill="none" stroke="midnightblue" d="M636.65,-403.43C717.47,-371.89 913.55,-290.2 1057.5,-188 1077.6,-173.73 1097.48,-153.46 1110.29,-139.37"/>
<polygon fill="midnightblue" stroke="midnightblue" points="1112.93,-141.67 1116.97,-131.87 1107.7,-137.01 1112.93,-141.67"/>
</g>
<!-- Node47 -->
<g id="node30" class="node">
<title>Node47</title>
<g id="a_node30"><a xlink:title=" ">
<polygon fill="none" stroke="#bfbfbf" points="1643.5,-347.5 1643.5,-366.5 1713.5,-366.5 1713.5,-347.5 1643.5,-347.5"/>
<text text-anchor="middle" x="1678.5" y="-354.5" font-family="Arial" font-size="10.00">fmt/format.h</text>
</a>
</g>
</g>
<!-- Node1&#45;&gt;Node47 -->
<g id="edge71" class="edge">
<title>Node1&#45;&gt;Node47</title>
<path fill="none" stroke="midnightblue" d="M648.74,-417.4C797.32,-416.6 1254.02,-410.49 1629.5,-367 1630.76,-366.85 1632.03,-366.7 1633.31,-366.53"/>
<polygon fill="midnightblue" stroke="midnightblue" points="1633.88,-369.98 1643.26,-365.05 1632.85,-363.06 1633.88,-369.98"/>
</g>
<!-- Node3 -->
<g id="node3" class="node">
<title>Node3</title>
<g id="a_node3"><a xlink:title=" ">
<polygon fill="none" stroke="#bfbfbf" points="22,-291.5 22,-310.5 71,-310.5 71,-291.5 22,-291.5"/>
<text text-anchor="middle" x="46.5" y="-298.5" font-family="Arial" font-size="10.00">cstddef</text>
</a>
</g>
</g>
<!-- Node2&#45;&gt;Node3 -->
<g id="edge2" class="edge">
<title>Node2&#45;&gt;Node3</title>
<path fill="none" stroke="midnightblue" d="M46.5,-347.08C46.5,-340.01 46.5,-329.86 46.5,-320.99"/>
<polygon fill="midnightblue" stroke="midnightblue" points="50,-320.75 46.5,-310.75 43,-320.75 50,-320.75"/>
</g>
<!-- Node8 -->
<g id="node8" class="node">
<title>Node8</title>
<g id="a_node8"><a xlink:title=" ">
<polygon fill="none" stroke="#bfbfbf" points="1462,-0.5 1462,-19.5 1503,-19.5 1503,-0.5 1462,-0.5"/>
<text text-anchor="middle" x="1482.5" y="-7.5" font-family="Arial" font-size="10.00">string</text>
</a>
</g>
</g>
<!-- Node7&#45;&gt;Node8 -->
<g id="edge7" class="edge">
<title>Node7&#45;&gt;Node8</title>
<path fill="none" stroke="midnightblue" d="M1543.01,-229.91C1559.47,-221.78 1581.43,-207.86 1591.5,-188 1606.78,-157.88 1601.42,-144.29 1591.5,-112 1582.67,-83.25 1575.1,-76.93 1553.5,-56 1540.43,-43.34 1523.25,-32.33 1509.06,-24.38"/>
<polygon fill="midnightblue" stroke="midnightblue" points="1510.71,-21.29 1500.25,-19.6 1507.37,-27.44 1510.71,-21.29"/>
</g>
<!-- Node9 -->
<g id="node9" class="node">
<title>Node9</title>
<g id="a_node9"><a xlink:title=" ">
<polygon fill="none" stroke="#bfbfbf" points="885.5,-0.5 885.5,-19.5 929.5,-19.5 929.5,-0.5 885.5,-0.5"/>
<text text-anchor="middle" x="907.5" y="-7.5" font-family="Arial" font-size="10.00">vector</text>
</a>
</g>
</g>
<!-- Node7&#45;&gt;Node9 -->
<g id="edge8" class="edge">
<title>Node7&#45;&gt;Node9</title>
<path fill="none" stroke="midnightblue" d="M1522.02,-229.68C1520.27,-206.79 1512.41,-144.97 1477.5,-112 1436.09,-72.89 1407.81,-96.07 1354.5,-76 1334.77,-68.57 1331.8,-61.69 1311.5,-56 1177.33,-18.41 1009.81,-12.04 940.19,-11.09"/>
<polygon fill="midnightblue" stroke="midnightblue" points="939.91,-7.58 929.88,-10.98 939.84,-14.58 939.91,-7.58"/>
</g>
<!-- Node10 -->
<g id="node10" class="node">
<title>Node10</title>
<g id="a_node10"><a xlink:title=" ">
<polygon fill="none" stroke="#bfbfbf" points="1383.5,-168.5 1383.5,-187.5 1435.5,-187.5 1435.5,-168.5 1383.5,-168.5"/>
<text text-anchor="middle" x="1409.5" y="-175.5" font-family="Arial" font-size="10.00">memory</text>
</a>
</g>
</g>
<!-- Node7&#45;&gt;Node10 -->
<g id="edge9" class="edge">
<title>Node7&#45;&gt;Node10</title>
<path fill="none" stroke="midnightblue" d="M1506.31,-229.98C1487.6,-220.12 1456.58,-203.79 1434.7,-192.27"/>
<polygon fill="midnightblue" stroke="midnightblue" points="1436.14,-189.07 1425.66,-187.51 1432.88,-195.27 1436.14,-189.07"/>
</g>
<!-- Node12 -->
<g id="node12" class="node">
<title>Node12</title>
<g id="a_node12"><a xlink:href="modelData_8h.html" target="_top" xlink:title=" ">
<polygon fill="none" stroke="black" points="1113,-291.5 1113,-310.5 1194,-310.5 1194,-291.5 1113,-291.5"/>
<text text-anchor="middle" x="1153.5" y="-298.5" font-family="Arial" font-size="10.00">../modelData.h</text>
</a>
</g>
</g>
<!-- Node11&#45;&gt;Node12 -->
<g id="edge11" class="edge">
<title>Node11&#45;&gt;Node12</title>
<path fill="none" stroke="midnightblue" d="M1078.8,-347.32C1092.68,-338.9 1113.99,-325.97 1130.3,-316.07"/>
<polygon fill="midnightblue" stroke="midnightblue" points="1132.5,-318.83 1139.24,-310.65 1128.87,-312.85 1132.5,-318.83"/>
</g>
<!-- Node12&#45;&gt;Node7 -->
<g id="edge39" class="edge">
<title>Node12&#45;&gt;Node7</title>
<path fill="none" stroke="midnightblue" d="M1194.06,-296.65C1255.82,-291.03 1376.88,-278.01 1477.5,-255 1481.16,-254.16 1484.94,-253.16 1488.69,-252.09"/>
<polygon fill="midnightblue" stroke="midnightblue" points="1489.89,-255.38 1498.43,-249.11 1487.84,-248.69 1489.89,-255.38"/>
</g>
<!-- Node12&#45;&gt;Node9 -->
<g id="edge67" class="edge">
<title>Node12&#45;&gt;Node9</title>
<path fill="none" stroke="midnightblue" d="M1194.21,-298.06C1285.91,-291.93 1496.76,-266.97 1444.5,-168 1441.9,-163.08 1283.72,-57.93 1278.5,-56 1216.61,-33.1 1018.8,-18.18 940.18,-13.02"/>
<polygon fill="midnightblue" stroke="midnightblue" points="940.1,-9.5 929.9,-12.35 939.65,-16.49 940.1,-9.5"/>
</g>
<!-- Node13 -->
<g id="node13" class="node">
<title>Node13</title>
<g id="a_node13"><a xlink:href="material_8h.html" target="_top" xlink:title=" ">
<polygon fill="none" stroke="black" points="582.5,-224.5 582.5,-254.5 676.5,-254.5 676.5,-224.5 582.5,-224.5"/>
<text text-anchor="start" x="590.5" y="-242.5" font-family="Arial" font-size="10.00">material/mparticle</text>
<text text-anchor="middle" x="629.5" y="-231.5" font-family="Arial" font-size="10.00">/material.h</text>
</a>
</g>
</g>
<!-- Node12&#45;&gt;Node13 -->
<g id="edge12" class="edge">
<title>Node12&#45;&gt;Node13</title>
<path fill="none" stroke="midnightblue" d="M1112.82,-295.38C1020.22,-284.87 793.51,-259.12 686.81,-247.01"/>
<polygon fill="midnightblue" stroke="midnightblue" points="687.19,-243.53 676.86,-245.88 686.4,-250.48 687.19,-243.53"/>
</g>
<!-- Node24 -->
<g id="node18" class="node">
<title>Node24</title>
<g id="a_node18"><a xlink:title=" ">
<polygon fill="none" stroke="#bfbfbf" points="1110.5,-56.5 1110.5,-75.5 1156.5,-75.5 1156.5,-56.5 1110.5,-56.5"/>
<text text-anchor="middle" x="1133.5" y="-63.5" font-family="Arial" font-size="10.00">cstring</text>
</a>
</g>
</g>
<!-- Node12&#45;&gt;Node24 -->
<g id="edge66" class="edge">
<title>Node12&#45;&gt;Node24</title>
<path fill="none" stroke="midnightblue" d="M1157,-291.41C1167.55,-264.14 1196.92,-177.47 1172.5,-112 1168.33,-100.81 1159.98,-90.56 1152.08,-82.68"/>
<polygon fill="midnightblue" stroke="midnightblue" points="1154.2,-79.87 1144.49,-75.63 1149.44,-85 1154.2,-79.87"/>
</g>
<!-- Node28 -->
<g id="node22" class="node">
<title>Node28</title>
<g id="a_node22"><a xlink:href="particleFLoading_8h.html" target="_top" xlink:title=" ">
<polygon fill="none" stroke="black" points="615.5,-112.5 615.5,-131.5 745.5,-131.5 745.5,-112.5 615.5,-112.5"/>
<text text-anchor="middle" x="680.5" y="-119.5" font-family="Arial" font-size="10.00">loading/particleFLoading.h</text>
</a>
</g>
</g>
<!-- Node12&#45;&gt;Node28 -->
<g id="edge40" class="edge">
<title>Node12&#45;&gt;Node28</title>
<path fill="none" stroke="midnightblue" d="M1130.69,-291.46C1053.58,-262.61 802.5,-168.65 712.76,-135.07"/>
<polygon fill="midnightblue" stroke="midnightblue" points="713.95,-131.78 703.36,-131.55 711.5,-138.34 713.95,-131.78"/>
</g>
<!-- Node39 -->
<g id="node24" class="node">
<title>Node39</title>
<g id="a_node24"><a xlink:href="particleULoading_8h.html" target="_top" xlink:title=" ">
<polygon fill="none" stroke="black" points="936,-112.5 936,-131.5 1067,-131.5 1067,-112.5 936,-112.5"/>
<text text-anchor="middle" x="1001.5" y="-119.5" font-family="Arial" font-size="10.00">loading/particleULoading.h</text>
</a>
</g>
</g>
<!-- Node12&#45;&gt;Node39 -->
<g id="edge45" class="edge">
<title>Node12&#45;&gt;Node39</title>
<path fill="none" stroke="midnightblue" d="M1148.36,-291.38C1135.03,-269.4 1097.58,-210.05 1057.5,-168 1046.91,-156.89 1033.56,-146.06 1022.54,-137.81"/>
<polygon fill="midnightblue" stroke="midnightblue" points="1024.45,-134.87 1014.31,-131.79 1020.32,-140.52 1024.45,-134.87"/>
</g>
<!-- Node40 -->
<g id="node25" class="node">
<title>Node40</title>
<g id="a_node25"><a xlink:href="nsearch_8h.html" target="_top" xlink:title=" ">
<polygon fill="none" stroke="black" points="952,-168.5 952,-187.5 1049,-187.5 1049,-168.5 952,-168.5"/>
<text text-anchor="middle" x="1000.5" y="-175.5" font-family="Arial" font-size="10.00">nsearch/nsearch.h</text>
</a>
</g>
</g>
<!-- Node12&#45;&gt;Node40 -->
<g id="edge48" class="edge">
<title>Node12&#45;&gt;Node40</title>
<path fill="none" stroke="midnightblue" d="M1142.5,-291.3C1116.69,-270.89 1052.03,-219.75 1019.63,-194.13"/>
<polygon fill="midnightblue" stroke="midnightblue" points="1021.42,-191.08 1011.4,-187.62 1017.08,-196.57 1021.42,-191.08"/>
</g>
<!-- Node42 -->
<g id="node27" class="node">
<title>Node42</title>
<g id="a_node27"><a xlink:title=" ">
<polygon fill="none" stroke="#bfbfbf" points="1223.5,-56.5 1223.5,-75.5 1269.5,-75.5 1269.5,-56.5 1223.5,-56.5"/>
<text text-anchor="middle" x="1246.5" y="-63.5" font-family="Arial" font-size="10.00">cstdint</text>
</a>
</g>
</g>
<!-- Node12&#45;&gt;Node42 -->
<g id="edge65" class="edge">
<title>Node12&#45;&gt;Node42</title>
<path fill="none" stroke="midnightblue" d="M1172.12,-291.4C1213.78,-270.91 1313.45,-214.71 1346.5,-132 1349.8,-123.75 1351.33,-119.46 1346.5,-112 1338.71,-99.95 1305.42,-86.49 1279.36,-77.46"/>
<polygon fill="midnightblue" stroke="midnightblue" points="1280.39,-74.11 1269.8,-74.22 1278.15,-80.74 1280.39,-74.11"/>
</g>
<!-- Node46 -->
<g id="node29" class="node">
<title>Node46</title>
<g id="a_node29"><a xlink:href="fracture_8h.html" target="_top" xlink:title=" ">
<polygon fill="none" stroke="black" points="1220,-112.5 1220,-131.5 1321,-131.5 1321,-112.5 1220,-112.5"/>
<text text-anchor="middle" x="1270.5" y="-119.5" font-family="Arial" font-size="10.00">geometry/fracture.h</text>
</a>
</g>
</g>
<!-- Node12&#45;&gt;Node46 -->
<g id="edge60" class="edge">
<title>Node12&#45;&gt;Node46</title>
<path fill="none" stroke="midnightblue" d="M1166.34,-291.19C1177.73,-282.88 1194.26,-269.55 1205.5,-255 1233.63,-218.57 1254.36,-168.03 1264.17,-141.29"/>
<polygon fill="midnightblue" stroke="midnightblue" points="1267.53,-142.29 1267.6,-131.69 1260.94,-139.94 1267.53,-142.29"/>
</g>
<!-- Node13&#45;&gt;Node8 -->
<g id="edge37" class="edge">
<title>Node13&#45;&gt;Node8</title>
<path fill="none" stroke="midnightblue" d="M676.65,-235.07C843.52,-222.56 1399.66,-177.78 1464.5,-132 1494.03,-111.15 1497.82,-91.89 1493.5,-56 1492.43,-47.11 1490.21,-37.43 1488.04,-29.34"/>
<polygon fill="midnightblue" stroke="midnightblue" points="1491.34,-28.17 1485.23,-19.51 1484.61,-30.09 1491.34,-28.17"/>
</g>
<!-- Node13&#45;&gt;Node9 -->
<g id="edge38" class="edge">
<title>Node13&#45;&gt;Node9</title>
<path fill="none" stroke="midnightblue" d="M582.43,-234.99C509.43,-228.81 373.08,-214.1 332.5,-188 300.74,-167.57 280.53,-147.09 294.5,-112 307.18,-80.16 316.59,-70.8 347.5,-56 441.7,-10.89 770.23,-9.76 875.08,-10.6"/>
<polygon fill="midnightblue" stroke="midnightblue" points="875.32,-14.1 885.35,-10.69 875.38,-7.1 875.32,-14.1"/>
</g>
<!-- Node13&#45;&gt;Node10 -->
<g id="edge36" class="edge">
<title>Node13&#45;&gt;Node10</title>
<path fill="none" stroke="midnightblue" d="M676.54,-234.91C819.42,-224.01 1246.36,-191.44 1373.43,-181.75"/>
<polygon fill="midnightblue" stroke="midnightblue" points="1373.72,-185.24 1383.42,-180.99 1373.19,-178.26 1373.72,-185.24"/>
</g>
<!-- Node14 -->
<g id="node14" class="node">
<title>Node14</title>
<g id="a_node14"><a xlink:href="influenceFn_8h.html" target="_top" xlink:title=" ">
<polygon fill="none" stroke="black" points="342,-168.5 342,-187.5 417,-187.5 417,-168.5 342,-168.5"/>
<text text-anchor="middle" x="379.5" y="-175.5" font-family="Arial" font-size="10.00">influenceFn.h</text>
</a>
</g>
</g>
<!-- Node13&#45;&gt;Node14 -->
<g id="edge13" class="edge">
<title>Node13&#45;&gt;Node14</title>
<path fill="none" stroke="midnightblue" d="M582.48,-227.31C537.47,-216.6 470,-200.54 425.38,-189.92"/>
<polygon fill="midnightblue" stroke="midnightblue" points="425.93,-186.45 415.39,-187.54 424.31,-193.26 425.93,-186.45"/>
</g>
<!-- Node16 -->
<g id="node16" class="node">
<title>Node16</title>
<g id="a_node16"><a xlink:href="point_8h.html" target="_top" xlink:title=" ">
<polygon fill="none" stroke="red" points="657.5,-56.5 657.5,-75.5 703.5,-75.5 703.5,-56.5 657.5,-56.5"/>
<text text-anchor="middle" x="680.5" y="-63.5" font-family="Arial" font-size="10.00">point.h</text>
</a>
</g>
</g>
<!-- Node13&#45;&gt;Node16 -->
<g id="edge34" class="edge">
<title>Node13&#45;&gt;Node16</title>
<path fill="none" stroke="midnightblue" d="M626.06,-224.36C622.49,-210.05 616.59,-187.35 610.5,-168 605.39,-151.77 600.43,-148.76 597.5,-132 595.97,-123.24 592.95,-119.64 597.5,-112 608.32,-93.82 629.34,-82.53 647.51,-75.81"/>
<polygon fill="midnightblue" stroke="midnightblue" points="648.88,-79.04 657.23,-72.53 646.64,-72.41 648.88,-79.04"/>
</g>
<!-- Node25 -->
<g id="node19" class="node">
<title>Node25</title>
<g id="a_node19"><a xlink:href="materialDeck_8h.html" target="_top" xlink:title=" ">
<polygon fill="none" stroke="red" points="473.5,-168.5 473.5,-187.5 601.5,-187.5 601.5,-168.5 473.5,-168.5"/>
<text text-anchor="middle" x="537.5" y="-175.5" font-family="Arial" font-size="10.00">inp/decks/materialDeck.h</text>
</a>
</g>
</g>
<!-- Node13&#45;&gt;Node25 -->
<g id="edge27" class="edge">
<title>Node13&#45;&gt;Node25</title>
<path fill="none" stroke="midnightblue" d="M607.7,-224.4C593.09,-214.95 573.93,-202.56 559.32,-193.11"/>
<polygon fill="midnightblue" stroke="midnightblue" points="561.18,-190.15 550.89,-187.66 557.38,-196.03 561.18,-190.15"/>
</g>
<!-- Node26 -->
<g id="node20" class="node">
<title>Node26</title>
<g id="a_node20"><a xlink:href="function_8h.html" target="_top" xlink:title=" ">
<polygon fill="none" stroke="black" points="408,-112.5 408,-131.5 483,-131.5 483,-112.5 408,-112.5"/>
<text text-anchor="middle" x="445.5" y="-119.5" font-family="Arial" font-size="10.00">util/function.h</text>
</a>
</g>
</g>
<!-- Node13&#45;&gt;Node26 -->
<g id="edge31" class="edge">
<title>Node13&#45;&gt;Node26</title>
<path fill="none" stroke="midnightblue" d="M582.44,-235.92C545.59,-231.42 495.55,-219.44 464.5,-188 452.51,-175.85 448.01,-156.58 446.36,-142.17"/>
<polygon fill="midnightblue" stroke="midnightblue" points="449.82,-141.58 445.56,-131.88 442.84,-142.12 449.82,-141.58"/>
</g>
<!-- Node27 -->
<g id="node21" class="node">
<title>Node27</title>
<g id="a_node21"><a xlink:title=" ">
<polygon fill="none" stroke="#bfbfbf" points="657.5,-168.5 657.5,-187.5 697.5,-187.5 697.5,-168.5 657.5,-168.5"/>
<text text-anchor="middle" x="677.5" y="-175.5" font-family="Arial" font-size="10.00">limits</text>
</a>
</g>
</g>
<!-- Node13&#45;&gt;Node27 -->
<g id="edge35" class="edge">
<title>Node13&#45;&gt;Node27</title>
<path fill="none" stroke="midnightblue" d="M640.88,-224.4C647.85,-215.75 656.81,-204.64 664.13,-195.58"/>
<polygon fill="midnightblue" stroke="midnightblue" points="666.96,-197.64 670.52,-187.66 661.51,-193.24 666.96,-197.64"/>
</g>
<!-- Node14&#45;&gt;Node4 -->
<g id="edge25" class="edge">
<title>Node14&#45;&gt;Node4</title>
<path fill="none" stroke="midnightblue" d="M341.82,-170.35C294.21,-159.71 214.17,-133.84 178.5,-76 168.24,-59.37 182.83,-39.83 196.59,-26.55"/>
<polygon fill="midnightblue" stroke="midnightblue" points="199.31,-28.81 204.41,-19.52 194.63,-23.61 199.31,-28.81"/>
</g>
<!-- Node14&#45;&gt;Node9 -->
<g id="edge26" class="edge">
<title>Node14&#45;&gt;Node9</title>
<path fill="none" stroke="midnightblue" d="M380.31,-168.27C381.91,-155.06 386.41,-129.66 398.5,-112 421.6,-78.26 433.5,-71.11 471.5,-56 545.06,-26.74 787.07,-15.32 875.11,-12.06"/>
<polygon fill="midnightblue" stroke="midnightblue" points="875.43,-15.56 885.3,-11.7 875.18,-8.56 875.43,-15.56"/>
</g>
<!-- Node14&#45;&gt;Node15 -->
<g id="edge14" class="edge">
<title>Node14&#45;&gt;Node15</title>
<path fill="none" stroke="midnightblue" d="M370.91,-168.08C363.34,-160.22 352.12,-148.57 342.99,-139.08"/>
<polygon fill="midnightblue" stroke="midnightblue" points="345.38,-136.53 335.93,-131.75 340.34,-141.38 345.38,-136.53"/>
</g>
<!-- Node14&#45;&gt;Node24 -->
<g id="edge24" class="edge">
<title>Node14&#45;&gt;Node24</title>
<path fill="none" stroke="midnightblue" d="M417.32,-172.84C509.33,-162.66 738.52,-136.98 754.5,-132 772.72,-126.32 774.31,-117.78 792.5,-112 821.5,-102.78 1020.53,-79.71 1100.42,-70.69"/>
<polygon fill="midnightblue" stroke="midnightblue" points="1100.89,-74.16 1110.43,-69.57 1100.11,-67.21 1100.89,-74.16"/>
</g>
<!-- Node15&#45;&gt;Node4 -->
<g id="edge21" class="edge">
<title>Node15&#45;&gt;Node4</title>
<path fill="none" stroke="midnightblue" d="M318.71,-112.37C299.9,-93.89 255.51,-50.29 231.53,-26.74"/>
<polygon fill="midnightblue" stroke="midnightblue" points="233.83,-24.1 224.25,-19.59 228.93,-29.1 233.83,-24.1"/>
</g>
<!-- Node15&#45;&gt;Node5 -->
<g id="edge23" class="edge">
<title>Node15&#45;&gt;Node5</title>
<path fill="none" stroke="midnightblue" d="M309.51,-112.32C291.46,-103.62 263.45,-90.12 242.7,-80.11"/>
<polygon fill="midnightblue" stroke="midnightblue" points="243.98,-76.84 233.45,-75.65 240.94,-83.15 243.98,-76.84"/>
</g>
<!-- Node15&#45;&gt;Node9 -->
<g id="edge22" class="edge">
<title>Node15&#45;&gt;Node9</title>
<path fill="none" stroke="midnightblue" d="M330.48,-112.42C336.03,-97.93 349.39,-68.95 371.5,-56 414.98,-30.54 766.08,-16.03 875.24,-12.1"/>
<polygon fill="midnightblue" stroke="midnightblue" points="875.45,-15.59 885.32,-11.74 875.2,-8.6 875.45,-15.59"/>
</g>
<!-- Node15&#45;&gt;Node16 -->
<g id="edge15" class="edge">
<title>Node15&#45;&gt;Node16</title>
<path fill="none" stroke="midnightblue" d="M351.76,-117.29C413.55,-107.84 576.89,-82.85 647.36,-72.07"/>
<polygon fill="midnightblue" stroke="midnightblue" points="648.1,-75.5 657.46,-70.53 647.04,-68.58 648.1,-75.5"/>
</g>
<!-- Node15&#45;&gt;Node20 -->
<g id="edge18" class="edge">
<title>Node15&#45;&gt;Node20</title>
<path fill="none" stroke="midnightblue" d="M351.76,-117.4C365.46,-115.51 382.9,-113.31 398.5,-112 788.57,-79.36 887.71,-98.52 1278.5,-76 1303.39,-74.57 1331.14,-72.53 1353.77,-70.76"/>
<polygon fill="midnightblue" stroke="midnightblue" points="1354.09,-74.25 1363.78,-69.97 1353.54,-67.27 1354.09,-74.25"/>
</g>
<!-- Node16&#45;&gt;Node4 -->
<g id="edge16" class="edge">
<title>Node16&#45;&gt;Node4</title>
<path fill="none" stroke="midnightblue" d="M657.44,-62.32C582.45,-53.61 345.01,-26.04 252.71,-15.32"/>
<polygon fill="midnightblue" stroke="midnightblue" points="253.04,-11.84 242.7,-14.16 252.23,-18.79 253.04,-11.84"/>
</g>
<!-- Node16&#45;&gt;Node9 -->
<g id="edge17" class="edge">
<title>Node16&#45;&gt;Node9</title>
<path fill="none" stroke="midnightblue" d="M703.52,-59.53C744.28,-49.83 829.23,-29.62 875.61,-18.59"/>
<polygon fill="midnightblue" stroke="midnightblue" points="876.51,-21.97 885.43,-16.25 874.89,-15.16 876.51,-21.97"/>
</g>
<!-- Node20&#45;&gt;Node8 -->
<g id="edge19" class="edge">
<title>Node20&#45;&gt;Node8</title>
<path fill="none" stroke="midnightblue" d="M1412.84,-56.32C1425.66,-47.98 1445.28,-35.21 1460.44,-25.35"/>
<polygon fill="midnightblue" stroke="midnightblue" points="1462.72,-28.04 1469.2,-19.65 1458.91,-22.17 1462.72,-28.04"/>
</g>
<!-- Node20&#45;&gt;Node9 -->
<g id="edge20" class="edge">
<title>Node20&#45;&gt;Node9</title>
<path fill="none" stroke="midnightblue" d="M1363.77,-58.23C1358.98,-57.42 1354.13,-56.65 1349.5,-56 1196.93,-34.53 1013.36,-19.17 940.05,-13.45"/>
<polygon fill="midnightblue" stroke="midnightblue" points="939.89,-9.93 929.65,-12.65 939.35,-16.91 939.89,-9.93"/>
</g>
<!-- Node25&#45;&gt;Node8 -->
<g id="edge29" class="edge">
<title>Node25&#45;&gt;Node8</title>
<path fill="none" stroke="midnightblue" d="M601.75,-171.48C617.06,-170.25 633.36,-169.01 648.5,-168 799.71,-157.88 1182.78,-169.93 1329.5,-132 1384.54,-117.77 1402.81,-114.64 1444.5,-76 1458.69,-62.84 1469.18,-43.16 1475.5,-28.9"/>
<polygon fill="midnightblue" stroke="midnightblue" points="1478.74,-30.23 1479.36,-19.65 1472.28,-27.54 1478.74,-30.23"/>
</g>
<!-- Node25&#45;&gt;Node9 -->
<g id="edge30" class="edge">
<title>Node25&#45;&gt;Node9</title>
<path fill="none" stroke="midnightblue" d="M542.37,-168.36C555.83,-145.43 596,-82.95 648.5,-56 723.17,-17.66 824.23,-11.19 875.22,-10.58"/>
<polygon fill="midnightblue" stroke="midnightblue" points="875.33,-14.08 885.32,-10.53 875.3,-7.08 875.33,-14.08"/>
</g>
<!-- Node25&#45;&gt;Node15 -->
<g id="edge28" class="edge">
<title>Node25&#45;&gt;Node15</title>
<path fill="none" stroke="midnightblue" d="M504.22,-168.44C465.26,-158.42 401.06,-141.92 361.7,-131.79"/>
<polygon fill="midnightblue" stroke="midnightblue" points="362.34,-128.34 351.78,-129.24 360.59,-135.12 362.34,-128.34"/>
</g>
<!-- Node26&#45;&gt;Node9 -->
<g id="edge33" class="edge">
<title>Node26&#45;&gt;Node9</title>
<path fill="none" stroke="midnightblue" d="M449.52,-112.45C456.81,-98.01 473.69,-69.09 497.5,-56 562.41,-20.31 790.21,-12.92 875.2,-11.39"/>
<polygon fill="midnightblue" stroke="midnightblue" points="875.36,-14.89 885.3,-11.23 875.25,-7.89 875.36,-14.89"/>
</g>
<!-- Node26&#45;&gt;Node16 -->
<g id="edge32" class="edge">
<title>Node26&#45;&gt;Node16</title>
<path fill="none" stroke="midnightblue" d="M482.74,-112.44C528.15,-102.01 604.19,-84.53 647.56,-74.57"/>
<polygon fill="midnightblue" stroke="midnightblue" points="648.37,-77.98 657.33,-72.32 646.8,-71.15 648.37,-77.98"/>
</g>
<!-- Node28&#45;&gt;Node16 -->
<g id="edge44" class="edge">
<title>Node28&#45;&gt;Node16</title>
<path fill="none" stroke="midnightblue" d="M680.5,-112.08C680.5,-105.01 680.5,-94.86 680.5,-85.99"/>
<polygon fill="midnightblue" stroke="midnightblue" points="684,-85.75 680.5,-75.75 677,-85.75 684,-85.75"/>
</g>
<!-- Node29 -->
<g id="node23" class="node">
<title>Node29</title>
<g id="a_node23"><a xlink:href="particleLoading_8h.html" target="_top" xlink:title=" ">
<polygon fill="none" stroke="red" points="946.5,-56.5 946.5,-75.5 1036.5,-75.5 1036.5,-56.5 946.5,-56.5"/>
<text text-anchor="middle" x="991.5" y="-63.5" font-family="Arial" font-size="10.00">particleLoading.h</text>
</a>
</g>
</g>
<!-- Node28&#45;&gt;Node29 -->
<g id="edge41" class="edge">
<title>Node28&#45;&gt;Node29</title>
<path fill="none" stroke="midnightblue" d="M729.78,-112.44C786.01,-102.68 877.73,-86.75 936.31,-76.58"/>
<polygon fill="midnightblue" stroke="midnightblue" points="937.24,-79.97 946.49,-74.82 936.04,-73.08 937.24,-79.97"/>
</g>
<!-- Node29&#45;&gt;Node8 -->
<g id="edge42" class="edge">
<title>Node29&#45;&gt;Node8</title>
<path fill="none" stroke="midnightblue" d="M1036.81,-60.02C1135.52,-49.16 1367.82,-23.61 1451.65,-14.39"/>
<polygon fill="midnightblue" stroke="midnightblue" points="1452.24,-17.85 1461.79,-13.28 1451.47,-10.89 1452.24,-17.85"/>
</g>
<!-- Node29&#45;&gt;Node9 -->
<g id="edge43" class="edge">
<title>Node29&#45;&gt;Node9</title>
<path fill="none" stroke="midnightblue" d="M978,-56.32C964.9,-47.9 944.79,-34.97 929.39,-25.07"/>
<polygon fill="midnightblue" stroke="midnightblue" points="931.27,-22.12 920.96,-19.65 927.48,-28.01 931.27,-22.12"/>
</g>
<!-- Node39&#45;&gt;Node16 -->
<g id="edge47" class="edge">
<title>Node39&#45;&gt;Node16</title>
<path fill="none" stroke="midnightblue" d="M950.64,-112.44C884.37,-101.3 770.34,-82.11 714,-72.64"/>
<polygon fill="midnightblue" stroke="midnightblue" points="714.3,-69.14 703.86,-70.93 713.14,-76.04 714.3,-69.14"/>
</g>
<!-- Node39&#45;&gt;Node29 -->
<g id="edge46" class="edge">
<title>Node39&#45;&gt;Node29</title>
<path fill="none" stroke="midnightblue" d="M999.85,-112.08C998.52,-104.93 996.62,-94.64 994.96,-85.69"/>
<polygon fill="midnightblue" stroke="midnightblue" points="998.38,-84.95 993.12,-75.75 991.5,-86.22 998.38,-84.95"/>
</g>
<!-- Node40&#45;&gt;Node8 -->
<g id="edge56" class="edge">
<title>Node40&#45;&gt;Node8</title>
<path fill="none" stroke="midnightblue" d="M1049.31,-169.8C1054.1,-169.16 1058.89,-168.55 1063.5,-168 1146.85,-158.06 1367.29,-174.8 1439.5,-132 1465.37,-116.66 1467.57,-104.39 1477.5,-76 1482.7,-61.13 1483.73,-43.21 1483.58,-29.95"/>
<polygon fill="midnightblue" stroke="midnightblue" points="1487.06,-29.57 1483.22,-19.7 1480.07,-29.82 1487.06,-29.57"/>
</g>
<!-- Node40&#45;&gt;Node9 -->
<g id="edge57" class="edge">
<title>Node40&#45;&gt;Node9</title>
<path fill="none" stroke="midnightblue" d="M975.9,-168.43C959.25,-161.31 938.21,-149.49 926.5,-132 905.67,-100.9 904.5,-55.35 905.81,-29.94"/>
<polygon fill="midnightblue" stroke="midnightblue" points="909.31,-30.02 906.52,-19.8 902.33,-29.53 909.31,-30.02"/>
</g>
<!-- Node40&#45;&gt;Node16 -->
<g id="edge49" class="edge">
<title>Node40&#45;&gt;Node16</title>
<path fill="none" stroke="midnightblue" d="M951.73,-175C851.35,-170.38 629.13,-157.36 606.5,-132 588.58,-111.91 620.69,-91.95 648.07,-79.55"/>
<polygon fill="midnightblue" stroke="midnightblue" points="649.67,-82.67 657.47,-75.5 646.9,-76.25 649.67,-82.67"/>
</g>
<!-- Node40&#45;&gt;Node41 -->
<g id="edge50" class="edge">
<title>Node40&#45;&gt;Node41</title>
<path fill="none" stroke="midnightblue" d="M1020.15,-168.44C1040.46,-159.6 1072.4,-145.69 1095.6,-135.59"/>
<polygon fill="midnightblue" stroke="midnightblue" points="1097.17,-138.72 1104.94,-131.52 1094.38,-132.3 1097.17,-138.72"/>
</g>
<!-- Node40&#45;&gt;Node42 -->
<g id="edge55" class="edge">
<title>Node40&#45;&gt;Node42</title>
<path fill="none" stroke="midnightblue" d="M1049.33,-169.99C1054.12,-169.31 1058.9,-168.64 1063.5,-168 1122.58,-159.78 1290.25,-176.92 1329.5,-132 1349.11,-109.55 1310.17,-89.36 1279.25,-77.64"/>
<polygon fill="midnightblue" stroke="midnightblue" points="1280.17,-74.25 1269.57,-74.13 1277.78,-80.83 1280.17,-74.25"/>
</g>
<!-- Node44 -->
<g id="node28" class="node">
<title>Node44</title>
<g id="a_node28"><a xlink:href="nflannSetup_8h.html" target="_top" xlink:title=" ">
<polygon fill="none" stroke="red" points="802,-112.5 802,-131.5 879,-131.5 879,-112.5 802,-112.5"/>
<text text-anchor="middle" x="840.5" y="-119.5" font-family="Arial" font-size="10.00">nflannSetup.h</text>
</a>
</g>
</g>
<!-- Node40&#45;&gt;Node44 -->
<g id="edge58" class="edge">
<title>Node40&#45;&gt;Node44</title>
<path fill="none" stroke="midnightblue" d="M975.15,-168.44C948.23,-159.36 905.5,-144.94 875.41,-134.78"/>
<polygon fill="midnightblue" stroke="midnightblue" points="876.33,-131.4 865.73,-131.52 874.09,-138.03 876.33,-131.4"/>
</g>
<!-- Node41&#45;&gt;Node9 -->
<g id="edge54" class="edge">
<title>Node41&#45;&gt;Node9</title>
<path fill="none" stroke="midnightblue" d="M1116.07,-112.2C1102.43,-98.42 1074.15,-71.72 1045.5,-56 1011.46,-37.32 968.41,-24.83 939.52,-17.84"/>
<polygon fill="midnightblue" stroke="midnightblue" points="940.09,-14.38 929.56,-15.51 938.5,-21.19 940.09,-14.38"/>
</g>
<!-- Node41&#45;&gt;Node16 -->
<g id="edge51" class="edge">
<title>Node41&#45;&gt;Node16</title>
<path fill="none" stroke="midnightblue" d="M1085.49,-113.59C1082.12,-113.02 1078.75,-112.48 1075.5,-112 942.01,-92.16 781.99,-76.37 713.85,-70.02"/>
<polygon fill="midnightblue" stroke="midnightblue" points="714,-66.52 703.72,-69.09 713.36,-73.49 714,-66.52"/>
</g>
<!-- Node41&#45;&gt;Node24 -->
<g id="edge53" class="edge">
<title>Node41&#45;&gt;Node24</title>
<path fill="none" stroke="midnightblue" d="M1125.99,-112.08C1127.18,-104.93 1128.89,-94.64 1130.38,-85.69"/>
<polygon fill="midnightblue" stroke="midnightblue" points="1133.85,-86.19 1132.04,-75.75 1126.95,-85.04 1133.85,-86.19"/>
</g>
<!-- Node41&#45;&gt;Node42 -->
<g id="edge52" class="edge">
<title>Node41&#45;&gt;Node42</title>
<path fill="none" stroke="midnightblue" d="M1143.83,-112.44C1163.82,-103.6 1195.24,-89.69 1218.06,-79.59"/>
<polygon fill="midnightblue" stroke="midnightblue" points="1219.53,-82.76 1227.26,-75.52 1216.7,-76.36 1219.53,-82.76"/>
</g>
<!-- Node44&#45;&gt;Node16 -->
<g id="edge59" class="edge">
<title>Node44&#45;&gt;Node16</title>
<path fill="none" stroke="midnightblue" d="M815.15,-112.44C787.6,-103.15 743.48,-88.26 713.31,-78.07"/>
<polygon fill="midnightblue" stroke="midnightblue" points="714.25,-74.7 703.66,-74.82 712.01,-81.33 714.25,-74.7"/>
</g>
<!-- Node46&#45;&gt;Node9 -->
<g id="edge64" class="edge">
<title>Node46&#45;&gt;Node9</title>
<path fill="none" stroke="midnightblue" d="M1259.89,-112.49C1241.73,-98.37 1202.97,-70.25 1165.5,-56 1087.9,-26.48 989.74,-16.18 939.83,-12.7"/>
<polygon fill="midnightblue" stroke="midnightblue" points="939.85,-9.19 929.65,-12.04 939.4,-16.18 939.85,-9.19"/>
</g>
<!-- Node46&#45;&gt;Node16 -->
<g id="edge61" class="edge">
<title>Node46&#45;&gt;Node16</title>
<path fill="none" stroke="midnightblue" d="M1219.89,-116.35C1204.66,-114.95 1187.9,-113.41 1172.5,-112 999.96,-96.19 793.38,-77.31 713.91,-70.05"/>
<polygon fill="midnightblue" stroke="midnightblue" points="713.83,-66.53 703.55,-69.11 713.19,-73.5 713.83,-66.53"/>
</g>
<!-- Node46&#45;&gt;Node24 -->
<g id="edge63" class="edge">
<title>Node46&#45;&gt;Node24</title>
<path fill="none" stroke="midnightblue" d="M1248.79,-112.44C1226.15,-103.52 1190.43,-89.44 1164.75,-79.32"/>
<polygon fill="midnightblue" stroke="midnightblue" points="1165.69,-75.93 1155.11,-75.52 1163.13,-82.44 1165.69,-75.93"/>
</g>
<!-- Node46&#45;&gt;Node42 -->
<g id="edge62" class="edge">
<title>Node46&#45;&gt;Node42</title>
<path fill="none" stroke="midnightblue" d="M1266.54,-112.08C1263.29,-104.77 1258.58,-94.18 1254.55,-85.1"/>
<polygon fill="midnightblue" stroke="midnightblue" points="1257.65,-83.47 1250.39,-75.75 1251.25,-86.31 1257.65,-83.47"/>
</g>
</g>
</svg>
