<?xml version="1.0" encoding="UTF-8" standalone="no"?>
<!DOCTYPE svg PUBLIC "-//W3C//DTD SVG 1.1//EN"
 "http://www.w3.org/Graphics/SVG/1.1/DTD/svg11.dtd">
<!-- Generated by graphviz version 2.43.0 (0)
 -->
<!-- Title: inp::MatData::toKIc Pages: 1 -->
<svg width="406pt" height="134pt"
 viewBox="0.00 0.00 406.00 134.00" xmlns="http://www.w3.org/2000/svg" xmlns:xlink="http://www.w3.org/1999/xlink">
<g id="graph0" class="graph" transform="scale(1 1) rotate(0) translate(4 130)">
<title>inp::MatData::toKIc</title>
<!-- Node1 -->
<g id="Node000001" class="node">
<title>Node1</title>
<g id="a_Node000001"><a xlink:title="Compute critical stress&#45;intensity factor KIc from critical energy release rate Gc,...">
<polygon fill="#999999" stroke="#666666" points="398,-72.5 296,-72.5 296,-53.5 398,-53.5 398,-72.5"/>
<text text-anchor="middle" x="347" y="-60.5" font-family="Arial" font-size="10.00">inp::MatData::toKIc</text>
</a>
</g>
</g>
<!-- Node2 -->
<g id="Node000002" class="node">
<title>Node2</title>
<g id="a_Node000002"><a xlink:href="classmaterial_1_1RnpMaterial.html#a4b7201eea1901e36474d7d42e8f3ab08" target="_top" xlink:title="Compute material model parameters.">
<polygon fill="white" stroke="#666666" points="259,-126 149,-126 149,-96 259,-96 259,-126"/>
<text text-anchor="start" x="157" y="-114" font-family="Arial" font-size="10.00">material::RnpMaterial</text>
<text text-anchor="middle" x="204" y="-103" font-family="Arial" font-size="10.00">::computeParameters</text>
</a>
</g>
</g>
<!-- Node1&#45;&gt;Node2 -->
<g id="edge1_Node000001_Node000002" class="edge">
<title>Node1&#45;&gt;Node2</title>
<g id="a_edge1_Node000001_Node000002"><a xlink:title=" ">
<path fill="none" stroke="#63b8ff" d="M308.15,-75.89C290,-82.06 268.16,-89.5 249.25,-95.94"/>
<polygon fill="#63b8ff" stroke="#63b8ff" points="309.47,-79.13 317.81,-72.6 307.21,-72.51 309.47,-79.13"/>
</a>
</g>
</g>
<!-- Node4 -->
<g id="Node000004" class="node">
<title>Node4</title>
<g id="a_Node000004"><a xlink:href="classmaterial_1_1PmbMaterial.html#a0ff6d71e84685ddfaba18d49308249c1" target="_top" xlink:title="Compute material model parameters.">
<polygon fill="white" stroke="#666666" points="260,-78 148,-78 148,-48 260,-48 260,-78"/>
<text text-anchor="start" x="156" y="-66" font-family="Arial" font-size="10.00">material::PmbMaterial</text>
<text text-anchor="middle" x="204" y="-55" font-family="Arial" font-size="10.00">::computeParameters</text>
</a>
</g>
</g>
<!-- Node1&#45;&gt;Node4 -->
<g id="edge3_Node000001_Node000004" class="edge">
<title>Node1&#45;&gt;Node4</title>
<g id="a_edge3_Node000001_Node000004"><a xlink:title=" ">
<path fill="none" stroke="#63b8ff" d="M285.7,-63C277.24,-63 268.58,-63 260.22,-63"/>
<polygon fill="#63b8ff" stroke="#63b8ff" points="285.89,-66.5 295.89,-63 285.89,-59.5 285.89,-66.5"/>
</a>
</g>
</g>
<!-- Node6 -->
<g id="Node000006" class="node">
<title>Node6</title>
<g id="a_Node000006"><a xlink:href="classmaterial_1_1PdState.html#a59b68a1d3b1e1f316569ac2ea005d6c2" target="_top" xlink:title="Compute material model parameters.">
<polygon fill="white" stroke="#666666" points="256,-30 152,-30 152,0 256,0 256,-30"/>
<text text-anchor="start" x="160" y="-18" font-family="Arial" font-size="10.00">material::PdState::</text>
<text text-anchor="middle" x="204" y="-7" font-family="Arial" font-size="10.00">computeParameters</text>
</a>
</g>
</g>
<!-- Node1&#45;&gt;Node6 -->
<g id="edge5_Node000001_Node000006" class="edge">
<title>Node1&#45;&gt;Node6</title>
<g id="a_edge5_Node000001_Node000006"><a xlink:title=" ">
<path fill="none" stroke="#63b8ff" d="M308.15,-50.11C290,-43.94 268.16,-36.5 249.25,-30.06"/>
<polygon fill="#63b8ff" stroke="#63b8ff" points="307.21,-53.49 317.81,-53.4 309.47,-46.87 307.21,-53.49"/>
</a>
</g>
</g>
<!-- Node3 -->
<g id="Node000003" class="node">
<title>Node3</title>
<g id="a_Node000003"><a xlink:href="classmaterial_1_1RnpMaterial.html#a321ba1364a77aade859d616a87b38583" target="_top" xlink:title="Constructor.">
<polygon fill="white" stroke="#666666" points="111,-126 1,-126 1,-96 111,-96 111,-126"/>
<text text-anchor="start" x="9" y="-114" font-family="Arial" font-size="10.00">material::RnpMaterial</text>
<text text-anchor="middle" x="56" y="-103" font-family="Arial" font-size="10.00">::RnpMaterial</text>
</a>
</g>
</g>
<!-- Node2&#45;&gt;Node3 -->
<g id="edge2_Node000002_Node000003" class="edge">
<title>Node2&#45;&gt;Node3</title>
<g id="a_edge2_Node000002_Node000003"><a xlink:title=" ">
<path fill="none" stroke="#63b8ff" d="M138.52,-111C129.47,-111 120.25,-111 111.41,-111"/>
<polygon fill="#63b8ff" stroke="#63b8ff" points="138.64,-114.5 148.63,-111 138.63,-107.5 138.64,-114.5"/>
</a>
</g>
</g>
<!-- Node5 -->
<g id="Node000005" class="node">
<title>Node5</title>
<g id="a_Node000005"><a xlink:href="classmaterial_1_1PmbMaterial.html#a68a22787744fee0d6320f99425ff9fb5" target="_top" xlink:title="Constructor.">
<polygon fill="white" stroke="#666666" points="112,-78 0,-78 0,-48 112,-48 112,-78"/>
<text text-anchor="start" x="8" y="-66" font-family="Arial" font-size="10.00">material::PmbMaterial</text>
<text text-anchor="middle" x="56" y="-55" font-family="Arial" font-size="10.00">::PmbMaterial</text>
</a>
</g>
</g>
<!-- Node4&#45;&gt;Node5 -->
<g id="edge4_Node000004_Node000005" class="edge">
<title>Node4&#45;&gt;Node5</title>
<g id="a_edge4_Node000004_Node000005"><a xlink:title=" ">
<path fill="none" stroke="#63b8ff" d="M137.59,-63C129.14,-63 120.54,-63 112.27,-63"/>
<polygon fill="#63b8ff" stroke="#63b8ff" points="137.8,-66.5 147.8,-63 137.8,-59.5 137.8,-66.5"/>
</a>
</g>
</g>
<!-- Node7 -->
<g id="Node000007" class="node">
<title>Node7</title>
<g id="a_Node000007"><a xlink:href="classmaterial_1_1PdState.html#ada28f28c6544a0050fb242e4d5086703" target="_top" xlink:title="Constructor.">
<polygon fill="white" stroke="#666666" points="105,-30 7,-30 7,0 105,0 105,-30"/>
<text text-anchor="start" x="15" y="-18" font-family="Arial" font-size="10.00">material::PdState::</text>
<text text-anchor="middle" x="56" y="-7" font-family="Arial" font-size="10.00">PdState</text>
</a>
</g>
</g>
<!-- Node6&#45;&gt;Node7 -->
<g id="edge6_Node000006_Node000007" class="edge">
<title>Node6&#45;&gt;Node7</title>
<g id="a_edge6_Node000006_Node000007"><a xlink:title=" ">
<path fill="none" stroke="#63b8ff" d="M141.84,-15C129.65,-15 117.02,-15 105.34,-15"/>
<polygon fill="#63b8ff" stroke="#63b8ff" points="141.94,-18.5 151.94,-15 141.94,-11.5 141.94,-18.5"/>
</a>
</g>
</g>
</g>
</svg>
