<?xml version="1.0" encoding="UTF-8" standalone="no"?>
<!DOCTYPE svg PUBLIC "-//W3C//DTD SVG 1.1//EN"
 "http://www.w3.org/Graphics/SVG/1.1/DTD/svg11.dtd">
<!-- Generated by graphviz version 2.43.0 (0)
 -->
<!-- Title: util::Point::dot Pages: 1 -->
<svg width="246pt" height="113pt"
 viewBox="0.00 0.00 246.00 112.50" xmlns="http://www.w3.org/2000/svg" xmlns:xlink="http://www.w3.org/1999/xlink">
<g id="graph0" class="graph" transform="scale(1 1) rotate(0) translate(4 108.5)">
<title>util::Point::dot</title>
<!-- Node1 -->
<g id="Node000001" class="node">
<title>Node1</title>
<g id="a_Node000001"><a xlink:title="Computes the dot product of this vector with another point.">
<polygon fill="#999999" stroke="#666666" points="238,-56 161,-56 161,-37 238,-37 238,-56"/>
<text text-anchor="middle" x="199.5" y="-44" font-family="Arial" font-size="10.00">util::Point::dot</text>
</a>
</g>
</g>
<!-- Node2 -->
<g id="Node000002" class="node">
<title>Node2</title>
<g id="a_Node000002"><a xlink:href="classmaterial_1_1RnpMaterial.html#a48afe3504638e5ecc8044b3bcf6eaaba" target="_top" xlink:title="Returns the bond strain.">
<polygon fill="white" stroke="#666666" points="117.5,-104.5 7.5,-104.5 7.5,-74.5 117.5,-74.5 117.5,-104.5"/>
<text text-anchor="start" x="15.5" y="-92.5" font-family="Arial" font-size="10.00">material::RnpMaterial</text>
<text text-anchor="middle" x="62.5" y="-81.5" font-family="Arial" font-size="10.00">::getS</text>
</a>
</g>
</g>
<!-- Node1&#45;&gt;Node2 -->
<g id="edge1_Node000001_Node000002" class="edge">
<title>Node1&#45;&gt;Node2</title>
<g id="a_edge1_Node000001_Node000002"><a xlink:title=" ">
<path fill="none" stroke="#63b8ff" d="M158.96,-59.09C143.82,-63.92 126.39,-69.47 110.61,-74.49"/>
<polygon fill="#63b8ff" stroke="#63b8ff" points="160.07,-62.41 168.54,-56.04 157.95,-55.74 160.07,-62.41"/>
</a>
</g>
</g>
<!-- Node3 -->
<g id="Node000003" class="node">
<title>Node3</title>
<g id="a_Node000003"><a xlink:href="structutil_1_1Point.html#a803dcd2affeab37724dbbf88162b8519" target="_top" xlink:title="Computes projection of vector on this vector.">
<polygon fill="white" stroke="#666666" points="109,-56 16,-56 16,-37 109,-37 109,-56"/>
<text text-anchor="middle" x="62.5" y="-44" font-family="Arial" font-size="10.00">util::Point::project</text>
</a>
</g>
</g>
<!-- Node1&#45;&gt;Node3 -->
<g id="edge2_Node000001_Node000003" class="edge">
<title>Node1&#45;&gt;Node3</title>
<g id="a_edge2_Node000001_Node000003"><a xlink:title=" ">
<path fill="none" stroke="#63b8ff" d="M150.79,-46.5C137.23,-46.5 122.49,-46.5 109.06,-46.5"/>
<polygon fill="#63b8ff" stroke="#63b8ff" points="150.9,-50 160.89,-46.5 150.89,-43 150.9,-50"/>
</a>
</g>
</g>
<!-- Node4 -->
<g id="Node000004" class="node">
<title>Node4</title>
<g id="a_Node000004"><a xlink:href="structutil_1_1Point.html#abf4765b20357baee854adc75f6bdf5ed" target="_top" xlink:title="Computes projection of vector on plane with normal as this vector.">
<polygon fill="white" stroke="#666666" points="125,-19 0,-19 0,0 125,0 125,-19"/>
<text text-anchor="middle" x="62.5" y="-7" font-family="Arial" font-size="10.00">util::Point::projectNormal</text>
</a>
</g>
</g>
<!-- Node1&#45;&gt;Node4 -->
<g id="edge3_Node000001_Node000004" class="edge">
<title>Node1&#45;&gt;Node4</title>
<g id="a_edge3_Node000001_Node000004"><a xlink:title=" ">
<path fill="none" stroke="#63b8ff" d="M154.03,-34.31C136.03,-29.38 115.54,-23.76 98.62,-19.12"/>
<polygon fill="#63b8ff" stroke="#63b8ff" points="153.16,-37.7 163.73,-36.97 155.01,-30.95 153.16,-37.7"/>
</a>
</g>
</g>
</g>
</svg>
