<?xml version="1.0" encoding="UTF-8" standalone="no"?>
<!DOCTYPE svg PUBLIC "-//W3C//DTD SVG 1.1//EN"
 "http://www.w3.org/Graphics/SVG/1.1/DTD/svg11.dtd">
<!-- Generated by graphviz version 2.43.0 (0)
 -->
<!-- Title: util::Point::length Pages: 1 -->
<svg width="519pt" height="473pt"
 viewBox="0.00 0.00 519.00 473.00" xmlns="http://www.w3.org/2000/svg" xmlns:xlink="http://www.w3.org/1999/xlink">
<g id="graph0" class="graph" transform="scale(1 1) rotate(0) translate(4 469)">
<title>util::Point::length</title>
<!-- Node1 -->
<g id="node1" class="node">
<title>Node1</title>
<g id="a_node1"><a xlink:title="Computes the Euclidean length of the vector.">
<polygon fill="#bfbfbf" stroke="black" points="421,-180.5 421,-199.5 511,-199.5 511,-180.5 421,-180.5"/>
<text text-anchor="middle" x="466" y="-187.5" font-family="Arial" font-size="10.00">util::Point::length</text>
</a>
</g>
</g>
<!-- Node2 -->
<g id="node2" class="node">
<title>Node2</title>
<g id="a_node2"><a xlink:href="namespaceutil.html#a4989349bbfea16310a439c896e8222bf" target="_top" xlink:title="Computes angle between two vectors.">
<polygon fill="none" stroke="black" points="288,-388.5 288,-407.5 347,-407.5 347,-388.5 288,-388.5"/>
<text text-anchor="middle" x="317.5" y="-395.5" font-family="Arial" font-size="10.00">util::angle</text>
</a>
</g>
</g>
<!-- Node1&#45;&gt;Node2 -->
<g id="edge1" class="edge">
<title>Node1&#45;&gt;Node2</title>
<path fill="none" stroke="midnightblue" d="M462.12,-210.24C455.58,-248.64 436.01,-332.32 385,-378 374.58,-387.33 359.95,-392.31 347.06,-394.97"/>
<polygon fill="midnightblue" stroke="midnightblue" points="465.65,-210.29 463.75,-199.86 458.74,-209.2 465.65,-210.29"/>
</g>
<!-- Node8 -->
<g id="node8" class="node">
<title>Node8</title>
<g id="a_node8"><a xlink:href="classmaterial_1_1RnpMaterial.html#a18dafc4c7ecc5df6468eec42ea1f1a69" target="_top" xlink:title="Returns the unit vector along which bond&#45;force acts.">
<polygon fill="none" stroke="black" points="256.5,-339 256.5,-369 378.5,-369 378.5,-339 256.5,-339"/>
<text text-anchor="start" x="264.5" y="-357" font-family="Arial" font-size="10.00">material::RnpMaterial</text>
<text text-anchor="middle" x="317.5" y="-346" font-family="Arial" font-size="10.00">::getBondForceDirection</text>
</a>
</g>
</g>
<!-- Node1&#45;&gt;Node8 -->
<g id="edge7" class="edge">
<title>Node1&#45;&gt;Node8</title>
<path fill="none" stroke="midnightblue" d="M458.75,-209.19C448.15,-238.87 423.94,-295.93 385,-329 380.49,-332.83 375.33,-336.11 369.93,-338.9"/>
<polygon fill="midnightblue" stroke="midnightblue" points="462.11,-210.18 462.04,-199.59 455.49,-207.91 462.11,-210.18"/>
</g>
<!-- Node9 -->
<g id="node9" class="node">
<title>Node9</title>
<g id="a_node9"><a xlink:href="classmaterial_1_1PmbMaterial.html#a3da3f69c8a9e02ae9d972569fd5dbfb4" target="_top" xlink:title="Returns the bond strain.">
<polygon fill="none" stroke="black" points="261.5,-290 261.5,-320 373.5,-320 373.5,-290 261.5,-290"/>
<text text-anchor="start" x="269.5" y="-308" font-family="Arial" font-size="10.00">material::PmbMaterial</text>
<text text-anchor="middle" x="317.5" y="-297" font-family="Arial" font-size="10.00">::getS</text>
</a>
</g>
</g>
<!-- Node1&#45;&gt;Node9 -->
<g id="edge8" class="edge">
<title>Node1&#45;&gt;Node9</title>
<path fill="none" stroke="midnightblue" d="M453.24,-207.77C439.16,-227.81 413.84,-260.19 385,-280 379.51,-283.77 373.38,-287.06 367.12,-289.91"/>
<polygon fill="midnightblue" stroke="midnightblue" points="456.13,-209.75 458.89,-199.52 450.36,-205.79 456.13,-209.75"/>
</g>
<!-- Node10 -->
<g id="node10" class="node">
<title>Node10</title>
<g id="a_node10"><a xlink:href="classmaterial_1_1PdElastic.html#a5ffbda5185cb6a3e6cf4489e751204fc" target="_top" xlink:title="Returns the bond strain.">
<polygon fill="none" stroke="black" points="268,-241 268,-271 367,-271 367,-241 268,-241"/>
<text text-anchor="start" x="276" y="-259" font-family="Arial" font-size="10.00">material::PdElastic</text>
<text text-anchor="middle" x="317.5" y="-248" font-family="Arial" font-size="10.00">::getS</text>
</a>
</g>
</g>
<!-- Node1&#45;&gt;Node10 -->
<g id="edge9" class="edge">
<title>Node1&#45;&gt;Node10</title>
<path fill="none" stroke="midnightblue" d="M438.83,-204.37C423.38,-212.61 403.32,-222.89 385,-231 377.22,-234.44 368.8,-237.85 360.65,-240.98"/>
<polygon fill="midnightblue" stroke="midnightblue" points="440.65,-207.36 447.8,-199.54 437.33,-201.2 440.65,-207.36"/>
</g>
<!-- Node11 -->
<g id="node11" class="node">
<title>Node11</title>
<g id="a_node11"><a xlink:href="classmaterial_1_1PdState.html#a09d327556065d3d68327bd2ee2474dfd" target="_top" xlink:title="Returns the bond strain.">
<polygon fill="none" stroke="black" points="258,-202.5 258,-221.5 377,-221.5 377,-202.5 258,-202.5"/>
<text text-anchor="middle" x="317.5" y="-209.5" font-family="Arial" font-size="10.00">material::PdState::getS</text>
</a>
</g>
</g>
<!-- Node1&#45;&gt;Node11 -->
<g id="edge10" class="edge">
<title>Node1&#45;&gt;Node11</title>
<path fill="none" stroke="midnightblue" d="M410.42,-198.2C399.54,-199.83 388.06,-201.55 377.05,-203.21"/>
<polygon fill="midnightblue" stroke="midnightblue" points="411.28,-201.61 420.65,-196.66 410.24,-194.68 411.28,-201.61"/>
</g>
<!-- Node12 -->
<g id="node12" class="node">
<title>Node12</title>
<g id="a_node12"><a xlink:href="structutil_1_1geometry_1_1BoxPartition.html#abad135b92ab68a0129f7bfd482f25584" target="_top" xlink:title=" ">
<polygon fill="none" stroke="black" points="250,-153 250,-183 385,-183 385,-153 250,-153"/>
<text text-anchor="start" x="258" y="-171" font-family="Arial" font-size="10.00">util::geometry::BoxPartition</text>
<text text-anchor="middle" x="317.5" y="-160" font-family="Arial" font-size="10.00">::isNear</text>
</a>
</g>
</g>
<!-- Node1&#45;&gt;Node12 -->
<g id="edge11" class="edge">
<title>Node1&#45;&gt;Node12</title>
<path fill="none" stroke="midnightblue" d="M410.7,-181.85C402.37,-180.59 393.69,-179.29 385.14,-178.01"/>
<polygon fill="midnightblue" stroke="midnightblue" points="410.24,-185.32 420.65,-183.34 411.28,-178.39 410.24,-185.32"/>
</g>
<!-- Node13 -->
<g id="node13" class="node">
<title>Node13</title>
<g id="a_node13"><a xlink:href="namespaceutil.html#a1e84d26277984ae46cda8629334d37c4" target="_top" xlink:title="Compute distance between point and plane.">
<polygon fill="none" stroke="black" points="257.5,-114.5 257.5,-133.5 377.5,-133.5 377.5,-114.5 257.5,-114.5"/>
<text text-anchor="middle" x="317.5" y="-121.5" font-family="Arial" font-size="10.00">util::pointDistancePlane</text>
</a>
</g>
</g>
<!-- Node1&#45;&gt;Node13 -->
<g id="edge12" class="edge">
<title>Node1&#45;&gt;Node13</title>
<path fill="none" stroke="midnightblue" d="M442.68,-174.81C427.06,-164.71 405.42,-151.75 385,-143 376.5,-139.36 367.1,-136.19 358.11,-133.54"/>
<polygon fill="midnightblue" stroke="midnightblue" points="440.85,-177.8 451.12,-180.37 444.7,-171.95 440.85,-177.8"/>
</g>
<!-- Node14 -->
<g id="node14" class="node">
<title>Node14</title>
<g id="a_node14"><a xlink:href="namespaceutil.html#aaa7a3f1e6fd452569c6dcc6a880a55bd" target="_top" xlink:title="Compute distance between point and line.">
<polygon fill="none" stroke="black" points="250.5,-76.5 250.5,-95.5 384.5,-95.5 384.5,-76.5 250.5,-76.5"/>
<text text-anchor="middle" x="317.5" y="-83.5" font-family="Arial" font-size="10.00">util::pointDistanceSegment</text>
</a>
</g>
</g>
<!-- Node1&#45;&gt;Node14 -->
<g id="edge13" class="edge">
<title>Node1&#45;&gt;Node14</title>
<path fill="none" stroke="midnightblue" d="M452.66,-171.97C438.5,-152.63 413.54,-122.38 385,-105 378.64,-101.13 371.46,-98.02 364.23,-95.53"/>
<polygon fill="midnightblue" stroke="midnightblue" points="449.89,-174.12 458.54,-180.24 455.6,-170.06 449.89,-174.12"/>
</g>
<!-- Node15 -->
<g id="node15" class="node">
<title>Node15</title>
<g id="a_node15"><a xlink:href="structutil_1_1Point.html#a803dcd2affeab37724dbbf88162b8519" target="_top" xlink:title="Computes projection of vector on this vector.">
<polygon fill="none" stroke="black" points="271,-38.5 271,-57.5 364,-57.5 364,-38.5 271,-38.5"/>
<text text-anchor="middle" x="317.5" y="-45.5" font-family="Arial" font-size="10.00">util::Point::project</text>
</a>
</g>
</g>
<!-- Node1&#45;&gt;Node15 -->
<g id="edge14" class="edge">
<title>Node1&#45;&gt;Node15</title>
<path fill="none" stroke="midnightblue" d="M457.64,-170.76C446.23,-143.55 421.72,-94.12 385,-67 378.82,-62.43 371.57,-58.96 364.18,-56.33"/>
<polygon fill="midnightblue" stroke="midnightblue" points="454.5,-172.35 461.48,-180.32 461,-169.73 454.5,-172.35"/>
</g>
<!-- Node16 -->
<g id="node16" class="node">
<title>Node16</title>
<g id="a_node16"><a xlink:href="structutil_1_1Point.html#abf4765b20357baee854adc75f6bdf5ed" target="_top" xlink:title="Computes projection of vector on plane with normal as this vector.">
<polygon fill="none" stroke="black" points="255,-0.5 255,-19.5 380,-19.5 380,-0.5 255,-0.5"/>
<text text-anchor="middle" x="317.5" y="-7.5" font-family="Arial" font-size="10.00">util::Point::projectNormal</text>
</a>
</g>
</g>
<!-- Node1&#45;&gt;Node16 -->
<g id="edge15" class="edge">
<title>Node1&#45;&gt;Node16</title>
<path fill="none" stroke="midnightblue" d="M460.7,-170.26C452.26,-136.26 430.27,-66.66 385,-29 380.29,-25.08 374.82,-21.97 369.08,-19.5"/>
<polygon fill="midnightblue" stroke="midnightblue" points="457.37,-171.39 463.06,-180.33 464.19,-169.8 457.37,-171.39"/>
</g>
<!-- Node3 -->
<g id="node3" class="node">
<title>Node3</title>
<g id="a_node3"><a xlink:href="namespaceutil.html#a61e14a30b244c6b3764234fd024a35c8" target="_top" xlink:title="Computes angle between two vectors.">
<polygon fill="none" stroke="black" points="114.5,-445.5 114.5,-464.5 173.5,-464.5 173.5,-445.5 114.5,-445.5"/>
<text text-anchor="middle" x="144" y="-452.5" font-family="Arial" font-size="10.00">util::angle</text>
</a>
</g>
</g>
<!-- Node2&#45;&gt;Node3 -->
<g id="edge2" class="edge">
<title>Node2&#45;&gt;Node3</title>
<path fill="none" stroke="midnightblue" d="M282.74,-411.35C262.87,-419 237.18,-428.53 214,-436 200.87,-440.23 186.16,-444.37 173.7,-447.69"/>
<polygon fill="midnightblue" stroke="midnightblue" points="284.21,-414.54 292.27,-407.66 281.68,-408.01 284.21,-414.54"/>
</g>
<!-- Node4 -->
<g id="node4" class="node">
<title>Node4</title>
<g id="a_node4"><a xlink:href="namespaceutil.html#a40d4628247bdf3fdd57b068d4a322c95" target="_top" xlink:title="Compute distance between planes.">
<polygon fill="none" stroke="black" points="74,-407.5 74,-426.5 214,-426.5 214,-407.5 74,-407.5"/>
<text text-anchor="middle" x="144" y="-414.5" font-family="Arial" font-size="10.00">util::distanceBetweenPlanes</text>
</a>
</g>
</g>
<!-- Node2&#45;&gt;Node4 -->
<g id="edge3" class="edge">
<title>Node2&#45;&gt;Node4</title>
<path fill="none" stroke="midnightblue" d="M277.84,-402.28C259.04,-404.37 235.87,-406.93 214.17,-409.34"/>
<polygon fill="midnightblue" stroke="midnightblue" points="278.24,-405.76 287.79,-401.18 277.47,-398.8 278.24,-405.76"/>
</g>
<!-- Node5 -->
<g id="node5" class="node">
<title>Node5</title>
<g id="a_node5"><a xlink:href="namespaceutil.html#a250e0cd1a3e9c62d9ebad16c69e63635" target="_top" xlink:title="Do lines intersect.">
<polygon fill="none" stroke="black" points="90.5,-369.5 90.5,-388.5 197.5,-388.5 197.5,-369.5 90.5,-369.5"/>
<text text-anchor="middle" x="144" y="-376.5" font-family="Arial" font-size="10.00">util::doLinesIntersect</text>
</a>
</g>
</g>
<!-- Node2&#45;&gt;Node5 -->
<g id="edge4" class="edge">
<title>Node2&#45;&gt;Node5</title>
<path fill="none" stroke="midnightblue" d="M277.79,-393.71C254.14,-391.09 223.58,-387.71 197.74,-384.84"/>
<polygon fill="midnightblue" stroke="midnightblue" points="277.47,-397.2 287.79,-394.82 278.24,-390.24 277.47,-397.2"/>
</g>
<!-- Node6 -->
<g id="node6" class="node">
<title>Node6</title>
<g id="a_node6"><a xlink:href="namespacetest.html#ad3c8cad23ca76bc12534c5487df9a25f" target="_top" xlink:title="Test methods">
<polygon fill="none" stroke="black" points="90,-331.5 90,-350.5 198,-350.5 198,-331.5 90,-331.5"/>
<text text-anchor="middle" x="144" y="-338.5" font-family="Arial" font-size="10.00">test::testUtilMethods</text>
</a>
</g>
</g>
<!-- Node2&#45;&gt;Node6 -->
<g id="edge5" class="edge">
<title>Node2&#45;&gt;Node6</title>
<path fill="none" stroke="midnightblue" d="M278.15,-387.69C268.83,-384.85 258.97,-381.56 250,-378 233.37,-371.4 230.7,-366.4 214,-360 204.72,-356.44 194.5,-353.25 184.84,-350.55"/>
<polygon fill="midnightblue" stroke="midnightblue" points="277.4,-391.12 287.98,-390.59 279.38,-384.4 277.4,-391.12"/>
</g>
<!-- Node7 -->
<g id="node7" class="node">
<title>Node7</title>
<g id="a_node7"><a xlink:href="testUtil_8cpp.html#a0ddf1224851353fc92bfbff6f499fa97" target="_top" xlink:title=" ">
<polygon fill="none" stroke="black" points="0,-331.5 0,-350.5 38,-350.5 38,-331.5 0,-331.5"/>
<text text-anchor="middle" x="19" y="-338.5" font-family="Arial" font-size="10.00">main</text>
</a>
</g>
</g>
<!-- Node6&#45;&gt;Node7 -->
<g id="edge6" class="edge">
<title>Node6&#45;&gt;Node7</title>
<path fill="none" stroke="midnightblue" d="M79.33,-341C64.24,-341 49.32,-341 38.21,-341"/>
<polygon fill="midnightblue" stroke="midnightblue" points="79.77,-344.5 89.77,-341 79.77,-337.5 79.77,-344.5"/>
</g>
</g>
</svg>
