<?xml version="1.0" encoding="UTF-8" standalone="no"?>
<!DOCTYPE svg PUBLIC "-//W3C//DTD SVG 1.1//EN"
 "http://www.w3.org/Graphics/SVG/1.1/DTD/svg11.dtd">
<!-- Generated by graphviz version 2.43.0 (0)
 -->
<!-- Title: util::geometry::GeomData::print Pages: 1 -->
<svg width="539pt" height="52pt"
 viewBox="0.00 0.00 539.00 51.50" xmlns="http://www.w3.org/2000/svg" xmlns:xlink="http://www.w3.org/1999/xlink">
<g id="graph0" class="graph" transform="scale(1 1) rotate(0) translate(4 47.5)">
<title>util::geometry::GeomData::print</title>
<!-- Node1 -->
<g id="Node000001" class="node">
<title>Node1</title>
<g id="a_Node000001"><a xlink:title="Prints the information about the object.">
<polygon fill="#999999" stroke="#666666" points="129,-43.5 0,-43.5 0,-13.5 129,-13.5 129,-43.5"/>
<text text-anchor="start" x="8" y="-31.5" font-family="Arial" font-size="10.00">util::geometry::GeomData</text>
<text text-anchor="middle" x="64.5" y="-20.5" font-family="Arial" font-size="10.00">::print</text>
</a>
</g>
</g>
<!-- Node2 -->
<g id="Node000002" class="node">
<title>Node2</title>
<g id="a_Node000002"><a xlink:href="structutil_1_1geometry_1_1GeomData.html#a7575a3b47ff2eba1e7c22c0ce942e4b4" target="_top" xlink:title="Returns the string containing printable information about the object.">
<polygon fill="white" stroke="#666666" points="294,-43.5 165,-43.5 165,-13.5 294,-13.5 294,-43.5"/>
<text text-anchor="start" x="173" y="-31.5" font-family="Arial" font-size="10.00">util::geometry::GeomData</text>
<text text-anchor="middle" x="229.5" y="-20.5" font-family="Arial" font-size="10.00">::printStr</text>
</a>
</g>
</g>
<!-- Node1&#45;&gt;Node2 -->
<g id="edge1_Node000001_Node000002" class="edge">
<title>Node1&#45;&gt;Node2</title>
<g id="a_edge1_Node000001_Node000002"><a xlink:title=" ">
<path fill="none" stroke="#63b8ff" d="M129.45,-28.5C137.76,-28.5 146.32,-28.5 154.77,-28.5"/>
<polygon fill="#63b8ff" stroke="#63b8ff" points="155,-32 165,-28.5 155,-25 155,-32"/>
</a>
</g>
</g>
<!-- Node3 -->
<g id="Node000003" class="node">
<title>Node3</title>
<g id="a_Node000003"><a xlink:href="namespaceutil_1_1io.html#a38afb09a152cca4061850f4123bd3aeb" target="_top" xlink:title="Returns tab spaces of given size.">
<polygon fill="white" stroke="#666666" points="531,-38 446,-38 446,-19 531,-19 531,-38"/>
<text text-anchor="middle" x="488.5" y="-26" font-family="Arial" font-size="10.00">util::io::getTabS</text>
</a>
</g>
</g>
<!-- Node2&#45;&gt;Node3 -->
<g id="edge2_Node000002_Node000003" class="edge">
<title>Node2&#45;&gt;Node3</title>
<g id="a_edge2_Node000002_Node000003"><a xlink:title=" ">
<path fill="none" stroke="#63b8ff" d="M294.03,-28.5C337.74,-28.5 395.07,-28.5 435.94,-28.5"/>
<polygon fill="#63b8ff" stroke="#63b8ff" points="435.97,-32 445.97,-28.5 435.97,-25 435.97,-32"/>
</a>
</g>
</g>
<!-- Node4 -->
<g id="Node000004" class="node">
<title>Node4</title>
<g id="a_Node000004"><a xlink:href="namespaceutil_1_1io.html#a3e537e3bd778616255015cde6e60a30a" target="_top" xlink:title="Returns formatted string for output.">
<polygon fill="white" stroke="#666666" points="410,-19 330,-19 330,0 410,0 410,-19"/>
<text text-anchor="middle" x="370" y="-7" font-family="Arial" font-size="10.00">util::io::printStr</text>
</a>
</g>
</g>
<!-- Node2&#45;&gt;Node4 -->
<g id="edge3_Node000002_Node000004" class="edge">
<title>Node2&#45;&gt;Node4</title>
<g id="a_edge3_Node000002_Node000004"><a xlink:title=" ">
<path fill="none" stroke="#63b8ff" d="M294.07,-19.78C302.77,-18.59 311.59,-17.38 319.97,-16.23"/>
<polygon fill="#63b8ff" stroke="#63b8ff" points="320.51,-19.68 329.94,-14.86 319.56,-12.75 320.51,-19.68"/>
</a>
</g>
</g>
<!-- Node4&#45;&gt;Node3 -->
<g id="edge4_Node000004_Node000003" class="edge">
<title>Node4&#45;&gt;Node3</title>
<g id="a_edge4_Node000004_Node000003"><a xlink:title=" ">
<path fill="none" stroke="#63b8ff" d="M410.12,-15.88C418.38,-17.23 427.23,-18.67 435.88,-20.08"/>
<polygon fill="#63b8ff" stroke="#63b8ff" points="435.46,-23.56 445.89,-21.71 436.59,-16.65 435.46,-23.56"/>
</a>
</g>
</g>
</g>
</svg>
