<?xml version="1.0" encoding="UTF-8" standalone="no"?>
<!DOCTYPE svg PUBLIC "-//W3C//DTD SVG 1.1//EN"
 "http://www.w3.org/Graphics/SVG/1.1/DTD/svg11.dtd">
<!-- Generated by graphviz version 2.43.0 (0)
 -->
<!-- Title: inp::PICDeck::print Pages: 1 -->
<svg width="389pt" height="66pt"
 viewBox="0.00 0.00 389.00 66.00" xmlns="http://www.w3.org/2000/svg" xmlns:xlink="http://www.w3.org/1999/xlink">
<g id="graph0" class="graph" transform="scale(1 1) rotate(0) translate(4 62)">
<title>inp::PICDeck::print</title>
<!-- Node1 -->
<g id="node1" class="node">
<title>Node1</title>
<g id="a_node1"><a xlink:title="Prints the information about the object.">
<polygon fill="#bfbfbf" stroke="black" points="0,-19.5 0,-38.5 101,-38.5 101,-19.5 0,-19.5"/>
<text text-anchor="middle" x="50.5" y="-26.5" font-family="Arial" font-size="10.00">inp::PICDeck::print</text>
</a>
</g>
</g>
<!-- Node2 -->
<g id="node2" class="node">
<title>Node2</title>
<g id="a_node2"><a xlink:href="structinp_1_1PICDeck.html#a0bbc0d684f9fd0ddd7d8b46e99f22014" target="_top" xlink:title="Returns the string containing printable information about the object.">
<polygon fill="none" stroke="black" points="137,-19.5 137,-38.5 250,-38.5 250,-19.5 137,-19.5"/>
<text text-anchor="middle" x="193.5" y="-26.5" font-family="Arial" font-size="10.00">inp::PICDeck::printStr</text>
</a>
</g>
</g>
<!-- Node1&#45;&gt;Node2 -->
<g id="edge1" class="edge">
<title>Node1&#45;&gt;Node2</title>
<path fill="none" stroke="midnightblue" d="M101.21,-29C109.53,-29 118.28,-29 126.92,-29"/>
<polygon fill="midnightblue" stroke="midnightblue" points="126.99,-32.5 136.99,-29 126.99,-25.5 126.99,-32.5"/>
</g>
<!-- Node3 -->
<g id="node3" class="node">
<title>Node3</title>
<g id="a_node3"><a xlink:href="namespaceutil_1_1io.html#a38afb09a152cca4061850f4123bd3aeb" target="_top" xlink:title="Returns tab spaces of given size.">
<polygon fill="none" stroke="black" points="291,-38.5 291,-57.5 376,-57.5 376,-38.5 291,-38.5"/>
<text text-anchor="middle" x="333.5" y="-45.5" font-family="Arial" font-size="10.00">util::io::getTabS</text>
</a>
</g>
</g>
<!-- Node2&#45;&gt;Node3 -->
<g id="edge2" class="edge">
<title>Node2&#45;&gt;Node3</title>
<path fill="none" stroke="midnightblue" d="M250.23,-36.67C260.34,-38.06 270.84,-39.51 280.82,-40.88"/>
<polygon fill="midnightblue" stroke="midnightblue" points="280.61,-44.39 290.99,-42.29 281.57,-37.45 280.61,-44.39"/>
</g>
<!-- Node4 -->
<g id="node4" class="node">
<title>Node4</title>
<g id="a_node4"><a xlink:href="structutil_1_1Point.html#a0b71aa71d8f84fa5b1d4b0a873a838fb" target="_top" xlink:title="Returns the string containing printable information about the object.">
<polygon fill="none" stroke="black" points="286,-0.5 286,-19.5 381,-19.5 381,-0.5 286,-0.5"/>
<text text-anchor="middle" x="333.5" y="-7.5" font-family="Arial" font-size="10.00">util::Point::printStr</text>
</a>
</g>
</g>
<!-- Node2&#45;&gt;Node4 -->
<g id="edge3" class="edge">
<title>Node2&#45;&gt;Node4</title>
<path fill="none" stroke="midnightblue" d="M250.23,-21.33C258.63,-20.17 267.31,-18.98 275.73,-17.82"/>
<polygon fill="midnightblue" stroke="midnightblue" points="276.42,-21.25 285.85,-16.42 275.47,-14.32 276.42,-21.25"/>
</g>
</g>
</svg>
