<?xml version="1.0" encoding="UTF-8" standalone="no"?>
<!DOCTYPE svg PUBLIC "-//W3C//DTD SVG 1.1//EN"
 "http://www.w3.org/Graphics/SVG/1.1/DTD/svg11.dtd">
<!-- Generated by graphviz version 2.43.0 (0)
 -->
<!-- Title: inp::PICDeck::printStr Pages: 1 -->
<svg width="252pt" height="64pt"
 viewBox="0.00 0.00 252.00 64.00" xmlns="http://www.w3.org/2000/svg" xmlns:xlink="http://www.w3.org/1999/xlink">
<g id="graph0" class="graph" transform="scale(1 1) rotate(0) translate(4 60)">
<title>inp::PICDeck::printStr</title>
<!-- Node1 -->
<g id="Node000001" class="node">
<title>Node1</title>
<g id="a_Node000001"><a xlink:title="Returns the string containing printable information about the object.">
<polygon fill="#999999" stroke="#666666" points="113,-37 0,-37 0,-18 113,-18 113,-37"/>
<text text-anchor="middle" x="56.5" y="-25" font-family="Arial" font-size="10.00">inp::PICDeck::printStr</text>
</a>
</g>
</g>
<!-- Node2 -->
<g id="Node000002" class="node">
<title>Node2</title>
<g id="a_Node000002"><a xlink:href="namespaceutil_1_1io.html#a38afb09a152cca4061850f4123bd3aeb" target="_top" xlink:title="Returns tab spaces of given size.">
<polygon fill="white" stroke="#666666" points="239,-56 154,-56 154,-37 239,-37 239,-56"/>
<text text-anchor="middle" x="196.5" y="-44" font-family="Arial" font-size="10.00">util::io::getTabS</text>
</a>
</g>
</g>
<!-- Node1&#45;&gt;Node2 -->
<g id="edge1_Node000001_Node000002" class="edge">
<title>Node1&#45;&gt;Node2</title>
<g id="a_edge1_Node000001_Node000002"><a xlink:title=" ">
<path fill="none" stroke="#63b8ff" d="M113.23,-35.17C123.34,-36.56 133.84,-38.01 143.82,-39.38"/>
<polygon fill="#63b8ff" stroke="#63b8ff" points="143.61,-42.89 153.99,-40.79 144.57,-35.95 143.61,-42.89"/>
</a>
</g>
</g>
<!-- Node3 -->
<g id="Node000003" class="node">
<title>Node3</title>
<g id="a_Node000003"><a xlink:href="structutil_1_1Point.html#a0b71aa71d8f84fa5b1d4b0a873a838fb" target="_top" xlink:title="Returns the string containing printable information about the object.">
<polygon fill="white" stroke="#666666" points="244,-19 149,-19 149,0 244,0 244,-19"/>
<text text-anchor="middle" x="196.5" y="-7" font-family="Arial" font-size="10.00">util::Point::printStr</text>
</a>
</g>
</g>
<!-- Node1&#45;&gt;Node3 -->
<g id="edge2_Node000001_Node000003" class="edge">
<title>Node1&#45;&gt;Node3</title>
<g id="a_edge2_Node000001_Node000003"><a xlink:title=" ">
<path fill="none" stroke="#63b8ff" d="M113.23,-20.23C121.63,-19.13 130.31,-18 138.73,-16.9"/>
<polygon fill="#63b8ff" stroke="#63b8ff" points="139.39,-20.35 148.85,-15.58 138.48,-13.41 139.39,-20.35"/>
</a>
</g>
</g>
</g>
</svg>
