<?xml version="1.0" encoding="UTF-8" standalone="no"?>
<!DOCTYPE svg PUBLIC "-//W3C//DTD SVG 1.1//EN"
 "http://www.w3.org/Graphics/SVG/1.1/DTD/svg11.dtd">
<!-- Generated by graphviz version 2.43.0 (0)
 -->
<!-- Title: inp::Zone::printStr Pages: 1 -->
<svg width="367pt" height="76pt"
 viewBox="0.00 0.00 367.00 75.50" xmlns="http://www.w3.org/2000/svg" xmlns:xlink="http://www.w3.org/1999/xlink">
<g id="graph0" class="graph" transform="scale(1 1) rotate(0) translate(4 71.5)">
<title>inp::Zone::printStr</title>
<!-- Node1 -->
<g id="Node000001" class="node">
<title>Node1</title>
<g id="a_Node000001"><a xlink:title="Returns the string containing printable information about the object.">
<polygon fill="#999999" stroke="#666666" points="359,-45.5 264,-45.5 264,-26.5 359,-26.5 359,-45.5"/>
<text text-anchor="middle" x="311.5" y="-33.5" font-family="Arial" font-size="10.00">inp::Zone::printStr</text>
</a>
</g>
</g>
<!-- Node2 -->
<g id="Node000002" class="node">
<title>Node2</title>
<g id="a_Node000002"><a xlink:href="structinp_1_1Zone.html#ae8fdce634cb5ecc9845555953441f720" target="_top" xlink:title="Prints the information about the object.">
<polygon fill="white" stroke="#666666" points="221,-67.5 139,-67.5 139,-48.5 221,-48.5 221,-67.5"/>
<text text-anchor="middle" x="180" y="-55.5" font-family="Arial" font-size="10.00">inp::Zone::print</text>
</a>
</g>
</g>
<!-- Node1&#45;&gt;Node2 -->
<g id="edge1_Node000001_Node000002" class="edge">
<title>Node1&#45;&gt;Node2</title>
<g id="a_edge1_Node000001_Node000002"><a xlink:title=" ">
<path fill="none" stroke="#63b8ff" d="M253.81,-45.63C242.84,-47.49 231.57,-49.41 221.26,-51.16"/>
<polygon fill="#63b8ff" stroke="#63b8ff" points="254.48,-49.07 263.75,-43.94 253.3,-42.17 254.48,-49.07"/>
</a>
</g>
</g>
<!-- Node3 -->
<g id="Node000003" class="node">
<title>Node3</title>
<g id="a_Node000003"><a xlink:href="structinp_1_1ParticleZone.html#a8e17f5dad0559571e5a39985127f62d9" target="_top" xlink:title="Returns the string containing printable information about the object.">
<polygon fill="white" stroke="#666666" points="228,-30 132,-30 132,0 228,0 228,-30"/>
<text text-anchor="start" x="140" y="-18" font-family="Arial" font-size="10.00">inp::ParticleZone::</text>
<text text-anchor="middle" x="180" y="-7" font-family="Arial" font-size="10.00">printStr</text>
</a>
</g>
</g>
<!-- Node1&#45;&gt;Node3 -->
<g id="edge2_Node000001_Node000003" class="edge">
<title>Node1&#45;&gt;Node3</title>
<g id="a_edge2_Node000001_Node000003"><a xlink:title=" ">
<path fill="none" stroke="#63b8ff" d="M253.81,-26.81C245.23,-25.42 236.46,-23.99 228.12,-22.64"/>
<polygon fill="#63b8ff" stroke="#63b8ff" points="253.32,-30.27 263.75,-28.42 254.44,-23.36 253.32,-30.27"/>
</a>
</g>
</g>
<!-- Node4 -->
<g id="Node000004" class="node">
<title>Node4</title>
<g id="a_Node000004"><a xlink:href="structinp_1_1ParticleZone.html#a12bfb6cae7040783161b3b0897e3cd92" target="_top" xlink:title="Prints the information about the object.">
<polygon fill="white" stroke="#666666" points="96,-30 0,-30 0,0 96,0 96,-30"/>
<text text-anchor="start" x="8" y="-18" font-family="Arial" font-size="10.00">inp::ParticleZone::</text>
<text text-anchor="middle" x="48" y="-7" font-family="Arial" font-size="10.00">print</text>
</a>
</g>
</g>
<!-- Node3&#45;&gt;Node4 -->
<g id="edge3_Node000003_Node000004" class="edge">
<title>Node3&#45;&gt;Node4</title>
<g id="a_edge3_Node000003_Node000004"><a xlink:title=" ">
<path fill="none" stroke="#63b8ff" d="M121.46,-15C112.97,-15 104.3,-15 96.05,-15"/>
<polygon fill="#63b8ff" stroke="#63b8ff" points="121.7,-18.5 131.7,-15 121.7,-11.5 121.7,-18.5"/>
</a>
</g>
</g>
</g>
</svg>
