<?xml version="1.0" encoding="UTF-8" standalone="no"?>
<!DOCTYPE svg PUBLIC "-//W3C//DTD SVG 1.1//EN"
 "http://www.w3.org/Graphics/SVG/1.1/DTD/svg11.dtd">
<!-- Generated by graphviz version 2.43.0 (0)
 -->
<!-- Title: inp::PICDeck::printStr Pages: 1 -->
<svg width="392pt" height="78pt"
 viewBox="0.00 0.00 392.00 77.50" xmlns="http://www.w3.org/2000/svg" xmlns:xlink="http://www.w3.org/1999/xlink">
<g id="graph0" class="graph" transform="scale(1 1) rotate(0) translate(4 73.5)">
<title>inp::PICDeck::printStr</title>
<!-- Node1 -->
<g id="node1" class="node">
<title>Node1</title>
<g id="a_node1"><a xlink:title="Returns the string containing printable information about the object.">
<polygon fill="#bfbfbf" stroke="black" points="271,-28 271,-47 384,-47 384,-28 271,-28"/>
<text text-anchor="middle" x="327.5" y="-35" font-family="Arial" font-size="10.00">inp::PICDeck::printStr</text>
</a>
</g>
</g>
<!-- Node2 -->
<g id="node2" class="node">
<title>Node2</title>
<g id="a_node2"><a xlink:href="structinp_1_1PICDeck.html#ad999695221e335c9d9978c65510d6ab2" target="_top" xlink:title="Prints the information about the object.">
<polygon fill="none" stroke="black" points="134,-50 134,-69 235,-69 235,-50 134,-50"/>
<text text-anchor="middle" x="184.5" y="-57" font-family="Arial" font-size="10.00">inp::PICDeck::print</text>
</a>
</g>
</g>
<!-- Node1&#45;&gt;Node2 -->
<g id="edge1" class="edge">
<title>Node1&#45;&gt;Node2</title>
<path fill="none" stroke="midnightblue" d="M260.8,-47.75C252.23,-49.09 243.58,-50.44 235.34,-51.72"/>
<polygon fill="midnightblue" stroke="midnightblue" points="261.43,-51.19 270.77,-46.19 260.35,-44.28 261.43,-51.19"/>
</g>
<!-- Node3 -->
<g id="node3" class="node">
<title>Node3</title>
<g id="a_node3"><a xlink:href="structinp_1_1ParticleDeck.html#a8c108509288e78450218a3e2612bf40e" target="_top" xlink:title="Returns the string containing printable information about the object.">
<polygon fill="none" stroke="black" points="135.5,-0.5 135.5,-30.5 233.5,-30.5 233.5,-0.5 135.5,-0.5"/>
<text text-anchor="start" x="143.5" y="-18.5" font-family="Arial" font-size="10.00">inp::ParticleDeck::</text>
<text text-anchor="middle" x="184.5" y="-7.5" font-family="Arial" font-size="10.00">printStr</text>
</a>
</g>
</g>
<!-- Node1&#45;&gt;Node3 -->
<g id="edge2" class="edge">
<title>Node1&#45;&gt;Node3</title>
<path fill="none" stroke="midnightblue" d="M260.86,-27.26C251.65,-25.82 242.33,-24.37 233.53,-22.99"/>
<polygon fill="midnightblue" stroke="midnightblue" points="260.35,-30.72 270.77,-28.81 261.43,-23.81 260.35,-30.72"/>
</g>
<!-- Node4 -->
<g id="node4" class="node">
<title>Node4</title>
<g id="a_node4"><a xlink:href="structinp_1_1ParticleDeck.html#a012adaafebbdc4aee9fd7b32cb2e2f0f" target="_top" xlink:title="Prints the information about the object.">
<polygon fill="none" stroke="black" points="0,-0.5 0,-30.5 98,-30.5 98,-0.5 0,-0.5"/>
<text text-anchor="start" x="8" y="-18.5" font-family="Arial" font-size="10.00">inp::ParticleDeck::</text>
<text text-anchor="middle" x="49" y="-7.5" font-family="Arial" font-size="10.00">print</text>
</a>
</g>
</g>
<!-- Node3&#45;&gt;Node4 -->
<g id="edge3" class="edge">
<title>Node3&#45;&gt;Node4</title>
<path fill="none" stroke="midnightblue" d="M125.22,-15.5C116.17,-15.5 106.91,-15.5 98.13,-15.5"/>
<polygon fill="midnightblue" stroke="midnightblue" points="125.3,-19 135.3,-15.5 125.3,-12 125.3,-19"/>
</g>
</g>
</svg>
