<?xml version="1.0" encoding="UTF-8" standalone="no"?>
<!DOCTYPE svg PUBLIC "-//W3C//DTD SVG 1.1//EN"
 "http://www.w3.org/Graphics/SVG/1.1/DTD/svg11.dtd">
<!-- Generated by graphviz version 2.43.0 (0)
 -->
<!-- Title: inp::PBCData Pages: 1 -->
<svg width="165pt" height="453pt"
 viewBox="0.00 0.00 164.50 453.00" xmlns="http://www.w3.org/2000/svg" xmlns:xlink="http://www.w3.org/1999/xlink">
<g id="graph0" class="graph" transform="scale(1 1) rotate(0) translate(4 449)">
<title>inp::PBCData</title>
<!-- Node1 -->
<g id="Node000001" class="node">
<title>Node1</title>
<g id="a_Node000001"><a xlink:title="User&#45;input data for particle neighbor search.">
<polygon fill="#999999" stroke="transparent" points="121,-214 4,-214 4,0 121,0 121,-214"/>
<text text-anchor="start" x="32.5" y="-202" font-family="Arial" font-size="10.00">inp::PBCData</text>
<text text-anchor="start" x="8.5" y="-187" font-family="Arial" font-size="10.00">+</text>
<text text-anchor="start" x="19.5" y="-187" font-family="Arial" font-size="10.00">d_selectionType</text>
<text text-anchor="start" x="8.5" y="-172" font-family="Arial" font-size="10.00">+</text>
<text text-anchor="start" x="19.5" y="-172" font-family="Arial" font-size="10.00">d_isRegionActive</text>
<text text-anchor="start" x="8.5" y="-157" font-family="Arial" font-size="10.00">+</text>
<text text-anchor="start" x="19.5" y="-157" font-family="Arial" font-size="10.00">d_pList</text>
<text text-anchor="start" x="8.5" y="-142" font-family="Arial" font-size="10.00">+</text>
<text text-anchor="start" x="19.5" y="-142" font-family="Arial" font-size="10.00">d_pNotList</text>
<text text-anchor="start" x="8.5" y="-127" font-family="Arial" font-size="10.00">+</text>
<text text-anchor="start" x="19.5" y="-127" font-family="Arial" font-size="10.00">d_timeFnType</text>
<text text-anchor="start" x="8.5" y="-112" font-family="Arial" font-size="10.00">+</text>
<text text-anchor="start" x="19.5" y="-112" font-family="Arial" font-size="10.00">d_spatialFnType</text>
<text text-anchor="start" x="8.5" y="-97" font-family="Arial" font-size="10.00">+</text>
<text text-anchor="start" x="19.5" y="-97" font-family="Arial" font-size="10.00">d_direction</text>
<text text-anchor="start" x="8.5" y="-82" font-family="Arial" font-size="10.00">+</text>
<text text-anchor="start" x="19.5" y="-82" font-family="Arial" font-size="10.00">d_timeFnParams</text>
<text text-anchor="start" x="8.5" y="-67" font-family="Arial" font-size="10.00">+</text>
<text text-anchor="start" x="19.5" y="-67" font-family="Arial" font-size="10.00">d_spatialFnParams</text>
<text text-anchor="start" x="8.5" y="-52" font-family="Arial" font-size="10.00">+</text>
<text text-anchor="start" x="19.5" y="-52" font-family="Arial" font-size="10.00">d_isDisplacementZero</text>
<text text-anchor="start" x="8.5" y="-37" font-family="Arial" font-size="10.00">+</text>
<text text-anchor="start" x="19.5" y="-37" font-family="Arial" font-size="10.00">PBCData()</text>
<text text-anchor="start" x="8.5" y="-22" font-family="Arial" font-size="10.00">+</text>
<text text-anchor="start" x="19.5" y="-22" font-family="Arial" font-size="10.00">printStr()</text>
<text text-anchor="start" x="8.5" y="-7" font-family="Arial" font-size="10.00">+</text>
<text text-anchor="start" x="19.5" y="-7" font-family="Arial" font-size="10.00">print()</text>
<polygon fill="#666666" stroke="#666666" points="4.5,-197 4.5,-197 121.5,-197 121.5,-197 4.5,-197"/>
<polygon fill="#666666" stroke="#666666" points="4.5,-47 4.5,-47 17.5,-47 17.5,-47 4.5,-47"/>
<polygon fill="#666666" stroke="#666666" points="17.5,-47 17.5,-47 121.5,-47 121.5,-47 17.5,-47"/>
<polygon fill="none" stroke="#666666" points="4,0 4,-214 121,-214 121,0 4,0"/>
</a>
</g>
</g>
<!-- Node2 -->
<g id="Node000002" class="node">
<title>Node2</title>
<g id="a_Node000002"><a xlink:href="structutil_1_1geometry_1_1GeomData.html" target="_top" xlink:title="Input data for geometrical objects.">
<polygon fill="white" stroke="transparent" points="125,-445 0,-445 0,-261 125,-261 125,-445"/>
<text text-anchor="start" x="6.5" y="-433" font-family="Arial" font-size="10.00">util::geometry::GeomData</text>
<text text-anchor="start" x="4.5" y="-418" font-family="Arial" font-size="10.00">+</text>
<text text-anchor="start" x="15.5" y="-418" font-family="Arial" font-size="10.00">d_geomName</text>
<text text-anchor="start" x="4.5" y="-403" font-family="Arial" font-size="10.00">+</text>
<text text-anchor="start" x="15.5" y="-403" font-family="Arial" font-size="10.00">d_geomParams</text>
<text text-anchor="start" x="4.5" y="-388" font-family="Arial" font-size="10.00">+</text>
<text text-anchor="start" x="15.5" y="-388" font-family="Arial" font-size="10.00">d_geom_p</text>
<text text-anchor="start" x="4.5" y="-373" font-family="Arial" font-size="10.00">+</text>
<text text-anchor="start" x="15.5" y="-373" font-family="Arial" font-size="10.00">d_geomComplexInfo</text>
<text text-anchor="start" x="4.5" y="-358" font-family="Arial" font-size="10.00">+</text>
<text text-anchor="start" x="15.5" y="-358" font-family="Arial" font-size="10.00">GeomData()</text>
<text text-anchor="start" x="4.5" y="-343" font-family="Arial" font-size="10.00">+</text>
<text text-anchor="start" x="15.5" y="-343" font-family="Arial" font-size="10.00">GeomData()</text>
<text text-anchor="start" x="4.5" y="-328" font-family="Arial" font-size="10.00">+</text>
<text text-anchor="start" x="15.5" y="-328" font-family="Arial" font-size="10.00">createNullGeomObject()</text>
<text text-anchor="start" x="4.5" y="-313" font-family="Arial" font-size="10.00">+</text>
<text text-anchor="start" x="15.5" y="-313" font-family="Arial" font-size="10.00">copyGeometry()</text>
<text text-anchor="start" x="4.5" y="-298" font-family="Arial" font-size="10.00">+</text>
<text text-anchor="start" x="15.5" y="-298" font-family="Arial" font-size="10.00">copyGeometry()</text>
<text text-anchor="start" x="4.5" y="-283" font-family="Arial" font-size="10.00">+</text>
<text text-anchor="start" x="15.5" y="-283" font-family="Arial" font-size="10.00">printStr()</text>
<text text-anchor="start" x="4.5" y="-268" font-family="Arial" font-size="10.00">+</text>
<text text-anchor="start" x="15.5" y="-268" font-family="Arial" font-size="10.00">print()</text>
<polygon fill="#666666" stroke="#666666" points="0.5,-428 0.5,-428 125.5,-428 125.5,-428 0.5,-428"/>
<polygon fill="#666666" stroke="#666666" points="0.5,-368 0.5,-368 13.5,-368 13.5,-368 0.5,-368"/>
<polygon fill="#666666" stroke="#666666" points="13.5,-368 13.5,-368 125.5,-368 125.5,-368 13.5,-368"/>
<polygon fill="none" stroke="#666666" points="0,-261 0,-445 125,-445 125,-261 0,-261"/>
</a>
</g>
</g>
<!-- Node2&#45;&gt;Node1 -->
<g id="edge1_Node000001_Node000002" class="edge">
<title>Node2&#45;&gt;Node1</title>
<g id="a_edge1_Node000001_Node000002"><a xlink:title=" ">
<path fill="none" stroke="#63b8ff" d="M62.5,-260.8C62.5,-249.54 62.5,-237.92 62.5,-226.34"/>
<polygon fill="none" stroke="#63b8ff" points="62.5,-226.3 58.5,-220.3 62.5,-214.3 66.5,-220.3 62.5,-226.3"/>
</a>
</g>
<text text-anchor="middle" x="109.5" y="-235" font-family="Arial" font-size="10.00" fill="grey"> +d_regionGeomData</text>
</g>
</g>
</svg>
