<?xml version="1.0" encoding="UTF-8" standalone="no"?>
<!DOCTYPE svg PUBLIC "-//W3C//DTD SVG 1.1//EN"
 "http://www.w3.org/Graphics/SVG/1.1/DTD/svg11.dtd">
<!-- Generated by graphviz version 2.43.0 (0)
 -->
<!-- Title: util::Point::project Pages: 1 -->
<svg width="227pt" height="64pt"
 viewBox="0.00 0.00 227.00 64.00" xmlns="http://www.w3.org/2000/svg" xmlns:xlink="http://www.w3.org/1999/xlink">
<g id="graph0" class="graph" transform="scale(1 1) rotate(0) translate(4 60)">
<title>util::Point::project</title>
<!-- Node1 -->
<g id="Node000001" class="node">
<title>Node1</title>
<g id="a_Node000001"><a xlink:title="Computes projection of vector on this vector.">
<polygon fill="#999999" stroke="#666666" points="93,-37 0,-37 0,-18 93,-18 93,-37"/>
<text text-anchor="middle" x="46.5" y="-25" font-family="Arial" font-size="10.00">util::Point::project</text>
</a>
</g>
</g>
<!-- Node2 -->
<g id="Node000002" class="node">
<title>Node2</title>
<g id="a_Node000002"><a xlink:href="structutil_1_1Point.html#a6ad3b0b8f16fd06c5452607176af84da" target="_top" xlink:title="Computes the dot product of this vector with another point.">
<polygon fill="white" stroke="#666666" points="212.5,-56 135.5,-56 135.5,-37 212.5,-37 212.5,-56"/>
<text text-anchor="middle" x="174" y="-44" font-family="Arial" font-size="10.00">util::Point::dot</text>
</a>
</g>
</g>
<!-- Node1&#45;&gt;Node2 -->
<g id="edge1_Node000001_Node000002" class="edge">
<title>Node1&#45;&gt;Node2</title>
<g id="a_edge1_Node000001_Node000002"><a xlink:title=" ">
<path fill="none" stroke="#63b8ff" d="M93.16,-34.41C103.68,-36.01 114.89,-37.7 125.48,-39.31"/>
<polygon fill="#63b8ff" stroke="#63b8ff" points="124.99,-42.77 135.41,-40.81 126.04,-35.85 124.99,-42.77"/>
</a>
</g>
</g>
<!-- Node3 -->
<g id="Node000003" class="node">
<title>Node3</title>
<g id="a_Node000003"><a xlink:href="structutil_1_1Point.html#a7e6ec50072f4ff4d6461412cdc531b65" target="_top" xlink:title="Computes the Euclidean length of the vector.">
<polygon fill="white" stroke="#666666" points="219,-19 129,-19 129,0 219,0 219,-19"/>
<text text-anchor="middle" x="174" y="-7" font-family="Arial" font-size="10.00">util::Point::length</text>
</a>
</g>
</g>
<!-- Node1&#45;&gt;Node3 -->
<g id="edge2_Node000001_Node000003" class="edge">
<title>Node1&#45;&gt;Node3</title>
<g id="a_edge2_Node000001_Node000003"><a xlink:title=" ">
<path fill="none" stroke="#63b8ff" d="M93.16,-20.95C101.53,-19.75 110.33,-18.49 118.91,-17.26"/>
<polygon fill="#63b8ff" stroke="#63b8ff" points="119.44,-20.72 128.84,-15.83 118.44,-13.79 119.44,-20.72"/>
</a>
</g>
</g>
</g>
</svg>
