<?xml version="1.0" encoding="UTF-8" standalone="no"?>
<!DOCTYPE svg PUBLIC "-//W3C//DTD SVG 1.1//EN"
 "http://www.w3.org/Graphics/SVG/1.1/DTD/svg11.dtd">
<!-- Generated by graphviz version 2.43.0 (0)
 -->
<!-- Title: util::geometry::GeomData::printStr Pages: 1 -->
<svg width="577pt" height="241pt"
 viewBox="0.00 0.00 577.00 240.50" xmlns="http://www.w3.org/2000/svg" xmlns:xlink="http://www.w3.org/1999/xlink">
<g id="graph0" class="graph" transform="scale(1 1) rotate(0) translate(4 236.5)">
<title>util::geometry::GeomData::printStr</title>
<!-- Node1 -->
<g id="Node000001" class="node">
<title>Node1</title>
<g id="a_Node000001"><a xlink:title="Returns the string containing printable information about the object.">
<polygon fill="#999999" stroke="#666666" points="569,-132.5 440,-132.5 440,-102.5 569,-102.5 569,-132.5"/>
<text text-anchor="start" x="448" y="-120.5" font-family="Arial" font-size="10.00">util::geometry::GeomData</text>
<text text-anchor="middle" x="504.5" y="-109.5" font-family="Arial" font-size="10.00">::printStr</text>
</a>
</g>
</g>
<!-- Node2 -->
<g id="Node000002" class="node">
<title>Node2</title>
<g id="a_Node000002"><a xlink:href="structutil_1_1geometry_1_1GeomData.html#ad1668ce43bdc752e37e45e7286472949" target="_top" xlink:title="Prints the information about the object.">
<polygon fill="white" stroke="#666666" points="404,-232.5 275,-232.5 275,-202.5 404,-202.5 404,-232.5"/>
<text text-anchor="start" x="283" y="-220.5" font-family="Arial" font-size="10.00">util::geometry::GeomData</text>
<text text-anchor="middle" x="339.5" y="-209.5" font-family="Arial" font-size="10.00">::print</text>
</a>
</g>
</g>
<!-- Node1&#45;&gt;Node2 -->
<g id="edge1_Node000001_Node000002" class="edge">
<title>Node1&#45;&gt;Node2</title>
<g id="a_edge1_Node000001_Node000002"><a xlink:title=" ">
<path fill="none" stroke="#63b8ff" d="M479.24,-139.26C459.92,-155.77 431.6,-178.17 404,-193.5 398.13,-196.76 391.72,-199.76 385.31,-202.45"/>
<polygon fill="#63b8ff" stroke="#63b8ff" points="481.69,-141.78 486.95,-132.58 477.1,-136.49 481.69,-141.78"/>
</a>
</g>
</g>
<!-- Node3 -->
<g id="Node000003" class="node">
<title>Node3</title>
<g id="a_Node000003"><a xlink:href="structinp_1_1MeshDeck.html#adf0249e67b8d4460afbb6235bb7ee55a" target="_top" xlink:title="Returns the string containing printable information about the object.">
<polygon fill="white" stroke="#666666" points="399.5,-184 279.5,-184 279.5,-165 399.5,-165 399.5,-184"/>
<text text-anchor="middle" x="339.5" y="-172" font-family="Arial" font-size="10.00">inp::MeshDeck::printStr</text>
</a>
</g>
</g>
<!-- Node1&#45;&gt;Node3 -->
<g id="edge2_Node000001_Node000003" class="edge">
<title>Node1&#45;&gt;Node3</title>
<g id="a_edge2_Node000001_Node000003"><a xlink:title=" ">
<path fill="none" stroke="#63b8ff" d="M450.74,-135.95C423.19,-145.58 390.62,-156.97 368.06,-164.86"/>
<polygon fill="#63b8ff" stroke="#63b8ff" points="451.96,-139.23 460.25,-132.63 449.65,-132.62 451.96,-139.23"/>
</a>
</g>
</g>
<!-- Node6 -->
<g id="Node000006" class="node">
<title>Node6</title>
<g id="a_Node000006"><a xlink:href="structinp_1_1ParticleZone.html#a8e17f5dad0559571e5a39985127f62d9" target="_top" xlink:title="Returns the string containing printable information about the object.">
<polygon fill="white" stroke="#666666" points="233.5,-153.5 137.5,-153.5 137.5,-123.5 233.5,-123.5 233.5,-153.5"/>
<text text-anchor="start" x="145.5" y="-141.5" font-family="Arial" font-size="10.00">inp::ParticleZone::</text>
<text text-anchor="middle" x="185.5" y="-130.5" font-family="Arial" font-size="10.00">printStr</text>
</a>
</g>
</g>
<!-- Node1&#45;&gt;Node6 -->
<g id="edge14_Node000001_Node000006" class="edge">
<title>Node1&#45;&gt;Node6</title>
<g id="a_edge14_Node000001_Node000006"><a xlink:title=" ">
<path fill="none" stroke="#63b8ff" d="M429.48,-122.4C369.02,-126.41 285.38,-131.95 233.67,-135.37"/>
<polygon fill="#63b8ff" stroke="#63b8ff" points="429.98,-125.88 439.73,-121.72 429.52,-118.89 429.98,-125.88"/>
</a>
</g>
</g>
<!-- Node8 -->
<g id="Node000008" class="node">
<title>Node8</title>
<g id="a_Node000008"><a xlink:href="structinp_1_1ParticleDeck.html#a8c108509288e78450218a3e2612bf40e" target="_top" xlink:title="Returns the string containing printable information about the object.">
<polygon fill="white" stroke="#666666" points="388.5,-68.5 290.5,-68.5 290.5,-38.5 388.5,-38.5 388.5,-68.5"/>
<text text-anchor="start" x="298.5" y="-56.5" font-family="Arial" font-size="10.00">inp::ParticleDeck::</text>
<text text-anchor="middle" x="339.5" y="-45.5" font-family="Arial" font-size="10.00">printStr</text>
</a>
</g>
</g>
<!-- Node1&#45;&gt;Node8 -->
<g id="edge7_Node000001_Node000008" class="edge">
<title>Node1&#45;&gt;Node8</title>
<g id="a_edge7_Node000001_Node000008"><a xlink:title=" ">
<path fill="none" stroke="#63b8ff" d="M455.8,-98.77C431.27,-89.14 401.78,-77.56 378.76,-68.52"/>
<polygon fill="#63b8ff" stroke="#63b8ff" points="454.7,-102.1 465.28,-102.49 457.25,-95.58 454.7,-102.1"/>
</a>
</g>
</g>
<!-- Node10 -->
<g id="Node000010" class="node">
<title>Node10</title>
<g id="a_Node000010"><a xlink:href="structinp_1_1PBCData.html#a22f266c6844df9da79ce450db2edee41" target="_top" xlink:title="Returns the string containing printable information about the object.">
<polygon fill="white" stroke="#666666" points="397,-20 282,-20 282,-1 397,-1 397,-20"/>
<text text-anchor="middle" x="339.5" y="-8" font-family="Arial" font-size="10.00">inp::PBCData::printStr</text>
</a>
</g>
</g>
<!-- Node1&#45;&gt;Node10 -->
<g id="edge9_Node000001_Node000010" class="edge">
<title>Node1&#45;&gt;Node10</title>
<g id="a_edge9_Node000001_Node000010"><a xlink:title=" ">
<path fill="none" stroke="#63b8ff" d="M483.34,-94.79C464.59,-74.95 434.96,-46.71 404,-29.5 397.16,-25.7 389.48,-22.57 381.87,-20.04"/>
<polygon fill="#63b8ff" stroke="#63b8ff" points="480.84,-97.25 490.21,-102.2 485.98,-92.49 480.84,-97.25"/>
</a>
</g>
</g>
<!-- Node12 -->
<g id="Node000012" class="node">
<title>Node12</title>
<g id="a_Node000012"><a xlink:href="structinp_1_1Zone.html#aad051408209401d54a0a186f190d2ac3" target="_top" xlink:title="Returns the string containing printable information about the object.">
<polygon fill="white" stroke="#666666" points="387,-108 292,-108 292,-89 387,-89 387,-108"/>
<text text-anchor="middle" x="339.5" y="-96" font-family="Arial" font-size="10.00">inp::Zone::printStr</text>
</a>
</g>
</g>
<!-- Node1&#45;&gt;Node12 -->
<g id="edge11_Node000001_Node000012" class="edge">
<title>Node1&#45;&gt;Node12</title>
<g id="a_edge11_Node000001_Node000012"><a xlink:title=" ">
<path fill="none" stroke="#63b8ff" d="M429.2,-108.84C414.88,-107.17 400.27,-105.47 387.14,-103.94"/>
<polygon fill="#63b8ff" stroke="#63b8ff" points="429.21,-112.36 439.55,-110.05 430.02,-105.41 429.21,-112.36"/>
</a>
</g>
</g>
<!-- Node4 -->
<g id="Node000004" class="node">
<title>Node4</title>
<g id="a_Node000004"><a xlink:href="classfe_1_1Mesh.html#a0041afbb7d7e94bfb01c108e460196fb" target="_top" xlink:title="Constructor.">
<polygon fill="white" stroke="#666666" points="228,-228 143,-228 143,-209 228,-209 228,-228"/>
<text text-anchor="middle" x="185.5" y="-216" font-family="Arial" font-size="10.00">fe::Mesh::Mesh</text>
</a>
</g>
</g>
<!-- Node3&#45;&gt;Node4 -->
<g id="edge3_Node000003_Node000004" class="edge">
<title>Node3&#45;&gt;Node4</title>
<g id="a_edge3_Node000003_Node000004"><a xlink:title=" ">
<path fill="none" stroke="#63b8ff" d="M295.87,-186.84C271.66,-193.85 241.81,-202.49 219.42,-208.97"/>
<polygon fill="#63b8ff" stroke="#63b8ff" points="296.89,-190.19 305.52,-184.05 294.94,-183.47 296.89,-190.19"/>
</a>
</g>
</g>
<!-- Node5 -->
<g id="Node000005" class="node">
<title>Node5</title>
<g id="a_Node000005"><a xlink:href="structinp_1_1MeshDeck.html#aa00ff74d241c5569af82134db5248e28" target="_top" xlink:title="Prints the information about the object.">
<polygon fill="white" stroke="#666666" points="239,-191 132,-191 132,-172 239,-172 239,-191"/>
<text text-anchor="middle" x="185.5" y="-179" font-family="Arial" font-size="10.00">inp::MeshDeck::print</text>
</a>
</g>
</g>
<!-- Node3&#45;&gt;Node5 -->
<g id="edge4_Node000003_Node000005" class="edge">
<title>Node3&#45;&gt;Node5</title>
<g id="a_edge4_Node000003_Node000005"><a xlink:title=" ">
<path fill="none" stroke="#63b8ff" d="M269,-177.7C259.04,-178.16 248.92,-178.63 239.35,-179.07"/>
<polygon fill="#63b8ff" stroke="#63b8ff" points="269.47,-181.18 279.3,-177.23 269.15,-174.19 269.47,-181.18"/>
</a>
</g>
</g>
<!-- Node3&#45;&gt;Node6 -->
<g id="edge5_Node000003_Node000006" class="edge">
<title>Node3&#45;&gt;Node6</title>
<g id="a_edge5_Node000003_Node000006"><a xlink:title=" ">
<path fill="none" stroke="#63b8ff" d="M288.12,-162.57C270.6,-158.42 251.03,-153.78 233.77,-149.7"/>
<polygon fill="#63b8ff" stroke="#63b8ff" points="287.63,-166.05 298.17,-164.95 289.24,-159.24 287.63,-166.05"/>
</a>
</g>
</g>
<!-- Node7 -->
<g id="Node000007" class="node">
<title>Node7</title>
<g id="a_Node000007"><a xlink:href="structinp_1_1ParticleZone.html#a12bfb6cae7040783161b3b0897e3cd92" target="_top" xlink:title="Prints the information about the object.">
<polygon fill="white" stroke="#666666" points="96,-153.5 0,-153.5 0,-123.5 96,-123.5 96,-153.5"/>
<text text-anchor="start" x="8" y="-141.5" font-family="Arial" font-size="10.00">inp::ParticleZone::</text>
<text text-anchor="middle" x="48" y="-130.5" font-family="Arial" font-size="10.00">print</text>
</a>
</g>
</g>
<!-- Node6&#45;&gt;Node7 -->
<g id="edge6_Node000006_Node000007" class="edge">
<title>Node6&#45;&gt;Node7</title>
<g id="a_edge6_Node000006_Node000007"><a xlink:title=" ">
<path fill="none" stroke="#63b8ff" d="M127.33,-138.5C117.02,-138.5 106.38,-138.5 96.39,-138.5"/>
<polygon fill="#63b8ff" stroke="#63b8ff" points="127.49,-142 137.49,-138.5 127.49,-135 127.49,-142"/>
</a>
</g>
</g>
<!-- Node9 -->
<g id="Node000009" class="node">
<title>Node9</title>
<g id="a_Node000009"><a xlink:href="structinp_1_1ParticleDeck.html#a012adaafebbdc4aee9fd7b32cb2e2f0f" target="_top" xlink:title="Prints the information about the object.">
<polygon fill="white" stroke="#666666" points="234.5,-67.5 136.5,-67.5 136.5,-37.5 234.5,-37.5 234.5,-67.5"/>
<text text-anchor="start" x="144.5" y="-55.5" font-family="Arial" font-size="10.00">inp::ParticleDeck::</text>
<text text-anchor="middle" x="185.5" y="-44.5" font-family="Arial" font-size="10.00">print</text>
</a>
</g>
</g>
<!-- Node8&#45;&gt;Node9 -->
<g id="edge8_Node000008_Node000009" class="edge">
<title>Node8&#45;&gt;Node9</title>
<g id="a_edge8_Node000008_Node000009"><a xlink:title=" ">
<path fill="none" stroke="#63b8ff" d="M280.16,-53.12C265.08,-53.02 249.02,-52.91 234.54,-52.82"/>
<polygon fill="#63b8ff" stroke="#63b8ff" points="280.38,-56.62 290.41,-53.18 280.43,-49.62 280.38,-56.62"/>
</a>
</g>
</g>
<!-- Node11 -->
<g id="Node000011" class="node">
<title>Node11</title>
<g id="a_Node000011"><a xlink:href="structinp_1_1PBCData.html#a9ea2acc89b05ecd9fcc7eab46ca944fa" target="_top" xlink:title="Prints the information about the object.">
<polygon fill="white" stroke="#666666" points="236.5,-19 134.5,-19 134.5,0 236.5,0 236.5,-19"/>
<text text-anchor="middle" x="185.5" y="-7" font-family="Arial" font-size="10.00">inp::PBCData::print</text>
</a>
</g>
</g>
<!-- Node10&#45;&gt;Node11 -->
<g id="edge10_Node000010_Node000011" class="edge">
<title>Node10&#45;&gt;Node11</title>
<g id="a_edge10_Node000010_Node000011"><a xlink:title=" ">
<path fill="none" stroke="#63b8ff" d="M271.67,-10.06C259.91,-9.98 247.85,-9.9 236.64,-9.83"/>
<polygon fill="#63b8ff" stroke="#63b8ff" points="271.88,-13.56 281.9,-10.13 271.92,-6.56 271.88,-13.56"/>
</a>
</g>
</g>
<!-- Node12&#45;&gt;Node6 -->
<g id="edge13_Node000012_Node000006" class="edge">
<title>Node12&#45;&gt;Node6</title>
<g id="a_edge13_Node000012_Node000006"><a xlink:title=" ">
<path fill="none" stroke="#63b8ff" d="M292.36,-110.64C273.73,-115.54 252.27,-121.19 233.55,-126.12"/>
<polygon fill="#63b8ff" stroke="#63b8ff" points="293.31,-114.01 302.09,-108.08 291.53,-107.24 293.31,-114.01"/>
</a>
</g>
</g>
<!-- Node13 -->
<g id="Node000013" class="node">
<title>Node13</title>
<g id="a_Node000013"><a xlink:href="structinp_1_1Zone.html#ae8fdce634cb5ecc9845555953441f720" target="_top" xlink:title="Prints the information about the object.">
<polygon fill="white" stroke="#666666" points="226.5,-105 144.5,-105 144.5,-86 226.5,-86 226.5,-105"/>
<text text-anchor="middle" x="185.5" y="-93" font-family="Arial" font-size="10.00">inp::Zone::print</text>
</a>
</g>
</g>
<!-- Node12&#45;&gt;Node13 -->
<g id="edge12_Node000012_Node000013" class="edge">
<title>Node12&#45;&gt;Node13</title>
<g id="a_edge12_Node000012_Node000013"><a xlink:title=" ">
<path fill="none" stroke="#63b8ff" d="M281.4,-97.37C263.13,-97.01 243.31,-96.62 226.53,-96.29"/>
<polygon fill="#63b8ff" stroke="#63b8ff" points="281.59,-100.88 291.65,-97.58 281.73,-93.88 281.59,-100.88"/>
</a>
</g>
</g>
</g>
</svg>
