<?xml version="1.0" encoding="UTF-8" standalone="no"?>
<!DOCTYPE svg PUBLIC "-//W3C//DTD SVG 1.1//EN"
 "http://www.w3.org/Graphics/SVG/1.1/DTD/svg11.dtd">
<!-- Generated by graphviz version 2.43.0 (0)
 -->
<!-- Title: inp::MaterialDeck::print Pages: 1 -->
<svg width="509pt" height="53pt"
 viewBox="0.00 0.00 509.00 52.50" xmlns="http://www.w3.org/2000/svg" xmlns:xlink="http://www.w3.org/1999/xlink">
<g id="graph0" class="graph" transform="scale(1 1) rotate(0) translate(4 48.5)">
<title>inp::MaterialDeck::print</title>
<!-- Node1 -->
<g id="node1" class="node">
<title>Node1</title>
<g id="a_node1"><a xlink:title="Prints the information about the object.">
<polygon fill="#bfbfbf" stroke="black" points="0,-14 0,-44 99,-44 99,-14 0,-14"/>
<text text-anchor="start" x="8" y="-32" font-family="Arial" font-size="10.00">inp::MaterialDeck::</text>
<text text-anchor="middle" x="49.5" y="-21" font-family="Arial" font-size="10.00">print</text>
</a>
</g>
</g>
<!-- Node2 -->
<g id="node2" class="node">
<title>Node2</title>
<g id="a_node2"><a xlink:href="structinp_1_1MaterialDeck.html#ab74e4a17cb7e2165b8bceb089de8a024" target="_top" xlink:title="Returns the string containing printable information about the object.">
<polygon fill="none" stroke="black" points="135,-14 135,-44 234,-44 234,-14 135,-14"/>
<text text-anchor="start" x="143" y="-32" font-family="Arial" font-size="10.00">inp::MaterialDeck::</text>
<text text-anchor="middle" x="184.5" y="-21" font-family="Arial" font-size="10.00">printStr</text>
</a>
</g>
</g>
<!-- Node1&#45;&gt;Node2 -->
<g id="edge1" class="edge">
<title>Node1&#45;&gt;Node2</title>
<path fill="none" stroke="midnightblue" d="M99.27,-29C107.49,-29 116.1,-29 124.55,-29"/>
<polygon fill="midnightblue" stroke="midnightblue" points="124.74,-32.5 134.74,-29 124.74,-25.5 124.74,-32.5"/>
</g>
<!-- Node3 -->
<g id="node3" class="node">
<title>Node3</title>
<g id="a_node3"><a xlink:href="namespaceutil_1_1io.html#a38afb09a152cca4061850f4123bd3aeb" target="_top" xlink:title="Returns tab spaces of given size.">
<polygon fill="none" stroke="black" points="416,-19.5 416,-38.5 501,-38.5 501,-19.5 416,-19.5"/>
<text text-anchor="middle" x="458.5" y="-26.5" font-family="Arial" font-size="10.00">util::io::getTabS</text>
</a>
</g>
</g>
<!-- Node2&#45;&gt;Node3 -->
<g id="edge2" class="edge">
<title>Node2&#45;&gt;Node3</title>
<path fill="none" stroke="midnightblue" d="M234.13,-29C282.49,-29 356.41,-29 405.82,-29"/>
<polygon fill="midnightblue" stroke="midnightblue" points="405.97,-32.5 415.97,-29 405.97,-25.5 405.97,-32.5"/>
</g>
<!-- Node4 -->
<g id="node4" class="node">
<title>Node4</title>
<g id="a_node4"><a xlink:href="structinp_1_1MatData.html#ad7efc5fd77177d4a15ceefc04b89f164" target="_top" xlink:title="Returns the string containing printable information about the object.">
<polygon fill="none" stroke="black" points="270,-0.5 270,-19.5 380,-19.5 380,-0.5 270,-0.5"/>
<text text-anchor="middle" x="325" y="-7.5" font-family="Arial" font-size="10.00">inp::MatData::printStr</text>
</a>
</g>
</g>
<!-- Node2&#45;&gt;Node4 -->
<g id="edge3" class="edge">
<title>Node2&#45;&gt;Node4</title>
<path fill="none" stroke="midnightblue" d="M234.33,-22.3C242.61,-21.16 251.33,-19.97 259.93,-18.79"/>
<polygon fill="midnightblue" stroke="midnightblue" points="260.52,-22.24 269.95,-17.41 259.57,-15.31 260.52,-22.24"/>
</g>
<!-- Node4&#45;&gt;Node3 -->
<g id="edge4" class="edge">
<title>Node4&#45;&gt;Node3</title>
<path fill="none" stroke="midnightblue" d="M380.25,-17.84C388.7,-19.06 397.41,-20.32 405.8,-21.53"/>
<polygon fill="midnightblue" stroke="midnightblue" points="405.44,-25.01 415.84,-22.98 406.44,-18.09 405.44,-25.01"/>
</g>
</g>
</svg>
