<?xml version="1.0" encoding="UTF-8" standalone="no"?>
<!DOCTYPE svg PUBLIC "-//W3C//DTD SVG 1.1//EN"
 "http://www.w3.org/Graphics/SVG/1.1/DTD/svg11.dtd">
<!-- Generated by graphviz version 2.43.0 (0)
 -->
<!-- Title: inp::MeshDeck::printStr Pages: 1 -->
<svg width="530pt" height="81pt"
 viewBox="0.00 0.00 530.00 81.00" xmlns="http://www.w3.org/2000/svg" xmlns:xlink="http://www.w3.org/1999/xlink">
<g id="graph0" class="graph" transform="scale(1 1) rotate(0) translate(4 77)">
<title>inp::MeshDeck::printStr</title>
<!-- Node1 -->
<g id="Node000001" class="node">
<title>Node1</title>
<g id="a_Node000001"><a xlink:title="Returns the string containing printable information about the object.">
<polygon fill="#999999" stroke="#666666" points="120,-73 0,-73 0,-54 120,-54 120,-73"/>
<text text-anchor="middle" x="60" y="-61" font-family="Arial" font-size="10.00">inp::MeshDeck::printStr</text>
</a>
</g>
</g>
<!-- Node2 -->
<g id="Node000002" class="node">
<title>Node2</title>
<g id="a_Node000002"><a xlink:href="namespaceutil_1_1io.html#a38afb09a152cca4061850f4123bd3aeb" target="_top" xlink:title="Returns tab spaces of given size.">
<polygon fill="white" stroke="#666666" points="522,-57 437,-57 437,-38 522,-38 522,-57"/>
<text text-anchor="middle" x="479.5" y="-45" font-family="Arial" font-size="10.00">util::io::getTabS</text>
</a>
</g>
</g>
<!-- Node1&#45;&gt;Node2 -->
<g id="edge1_Node000001_Node000002" class="edge">
<title>Node1&#45;&gt;Node2</title>
<g id="a_edge1_Node000001_Node000002"><a xlink:title=" ">
<path fill="none" stroke="#63b8ff" d="M120.03,-65.65C131.94,-66.01 144.37,-66.32 156,-66.5 264.92,-68.22 292.69,-71.13 401,-59.5 409.37,-58.6 418.21,-57.44 426.82,-56.19"/>
<polygon fill="#63b8ff" stroke="#63b8ff" points="427.4,-59.64 436.76,-54.69 426.35,-52.72 427.4,-59.64"/>
</a>
</g>
</g>
<!-- Node3 -->
<g id="Node000003" class="node">
<title>Node3</title>
<g id="a_Node000003"><a xlink:href="structutil_1_1geometry_1_1GeomData.html#a7575a3b47ff2eba1e7c22c0ce942e4b4" target="_top" xlink:title="Returns the string containing printable information about the object.">
<polygon fill="white" stroke="#666666" points="285,-57.5 156,-57.5 156,-27.5 285,-27.5 285,-57.5"/>
<text text-anchor="start" x="164" y="-45.5" font-family="Arial" font-size="10.00">util::geometry::GeomData</text>
<text text-anchor="middle" x="220.5" y="-34.5" font-family="Arial" font-size="10.00">::printStr</text>
</a>
</g>
</g>
<!-- Node1&#45;&gt;Node3 -->
<g id="edge2_Node000001_Node000003" class="edge">
<title>Node1&#45;&gt;Node3</title>
<g id="a_edge2_Node000001_Node000003"><a xlink:title=" ">
<path fill="none" stroke="#63b8ff" d="M120.02,-55.68C128.43,-54.57 137.17,-53.41 145.82,-52.26"/>
<polygon fill="#63b8ff" stroke="#63b8ff" points="146.46,-55.71 155.91,-50.92 145.54,-48.77 146.46,-55.71"/>
</a>
</g>
</g>
<!-- Node3&#45;&gt;Node2 -->
<g id="edge3_Node000003_Node000002" class="edge">
<title>Node3&#45;&gt;Node2</title>
<g id="a_edge3_Node000003_Node000002"><a xlink:title=" ">
<path fill="none" stroke="#63b8ff" d="M285.03,-43.74C328.74,-44.59 386.07,-45.7 426.94,-46.5"/>
<polygon fill="#63b8ff" stroke="#63b8ff" points="426.9,-50 436.97,-46.69 427.04,-43 426.9,-50"/>
</a>
</g>
</g>
<!-- Node4 -->
<g id="Node000004" class="node">
<title>Node4</title>
<g id="a_Node000004"><a xlink:href="namespaceutil_1_1io.html#a3e537e3bd778616255015cde6e60a30a" target="_top" xlink:title="Returns formatted string for output.">
<polygon fill="white" stroke="#666666" points="401,-19 321,-19 321,0 401,0 401,-19"/>
<text text-anchor="middle" x="361" y="-7" font-family="Arial" font-size="10.00">util::io::printStr</text>
</a>
</g>
</g>
<!-- Node3&#45;&gt;Node4 -->
<g id="edge4_Node000003_Node000004" class="edge">
<title>Node3&#45;&gt;Node4</title>
<g id="a_edge4_Node000003_Node000004"><a xlink:title=" ">
<path fill="none" stroke="#63b8ff" d="M284.67,-27.45C293.49,-25.35 302.44,-23.21 310.95,-21.19"/>
<polygon fill="#63b8ff" stroke="#63b8ff" points="311.78,-24.59 320.7,-18.86 310.16,-17.78 311.78,-24.59"/>
</a>
</g>
</g>
<!-- Node4&#45;&gt;Node2 -->
<g id="edge5_Node000004_Node000002" class="edge">
<title>Node4&#45;&gt;Node2</title>
<g id="a_edge5_Node000004_Node000002"><a xlink:title=" ">
<path fill="none" stroke="#63b8ff" d="M391.4,-19.09C405.89,-23.81 423.56,-29.58 439.19,-34.68"/>
<polygon fill="#63b8ff" stroke="#63b8ff" points="438.52,-38.14 449.11,-37.91 440.69,-31.49 438.52,-38.14"/>
</a>
</g>
</g>
</g>
</svg>
