<?xml version="1.0" encoding="UTF-8" standalone="no"?>
<!DOCTYPE svg PUBLIC "-//W3C//DTD SVG 1.1//EN"
 "http://www.w3.org/Graphics/SVG/1.1/DTD/svg11.dtd">
<!-- Generated by graphviz version 2.43.0 (0)
 -->
<!-- Title: inp::MatData::printStr Pages: 1 -->
<svg width="527pt" height="137pt"
 viewBox="0.00 0.00 527.00 137.00" xmlns="http://www.w3.org/2000/svg" xmlns:xlink="http://www.w3.org/1999/xlink">
<g id="graph0" class="graph" transform="scale(1 1) rotate(0) translate(4 133)">
<title>inp::MatData::printStr</title>
<!-- Node1 -->
<g id="node1" class="node">
<title>Node1</title>
<g id="a_node1"><a xlink:title="Returns the string containing printable information about the object.">
<polygon fill="#bfbfbf" stroke="black" points="409,-77 409,-96 519,-96 519,-77 409,-77"/>
<text text-anchor="middle" x="464" y="-84" font-family="Arial" font-size="10.00">inp::MatData::printStr</text>
</a>
</g>
</g>
<!-- Node2 -->
<g id="node2" class="node">
<title>Node2</title>
<g id="a_node2"><a xlink:href="structinp_1_1MatData.html#a1a47cfd954d39146f7490f1f1afcda6a" target="_top" xlink:title="Prints the information about the object.">
<polygon fill="none" stroke="black" points="274.5,-99 274.5,-118 372.5,-118 372.5,-99 274.5,-99"/>
<text text-anchor="middle" x="323.5" y="-106" font-family="Arial" font-size="10.00">inp::MatData::print</text>
</a>
</g>
</g>
<!-- Node1&#45;&gt;Node2 -->
<g id="edge1" class="edge">
<title>Node1&#45;&gt;Node2</title>
<path fill="none" stroke="midnightblue" d="M398.57,-96.73C389.91,-98.11 381.15,-99.5 372.83,-100.82"/>
<polygon fill="midnightblue" stroke="midnightblue" points="399.33,-100.16 408.66,-95.13 398.23,-93.24 399.33,-100.16"/>
</g>
<!-- Node3 -->
<g id="node3" class="node">
<title>Node3</title>
<g id="a_node3"><a xlink:href="structinp_1_1MaterialDeck.html#ab74e4a17cb7e2165b8bceb089de8a024" target="_top" xlink:title="Returns the string containing printable information about the object.">
<polygon fill="none" stroke="black" points="274,-49.5 274,-79.5 373,-79.5 373,-49.5 274,-49.5"/>
<text text-anchor="start" x="282" y="-67.5" font-family="Arial" font-size="10.00">inp::MaterialDeck::</text>
<text text-anchor="middle" x="323.5" y="-56.5" font-family="Arial" font-size="10.00">printStr</text>
</a>
</g>
</g>
<!-- Node1&#45;&gt;Node3 -->
<g id="edge2" class="edge">
<title>Node1&#45;&gt;Node3</title>
<path fill="none" stroke="midnightblue" d="M398.7,-76.29C390.15,-74.93 381.51,-73.55 373.28,-72.25"/>
<polygon fill="midnightblue" stroke="midnightblue" points="398.23,-79.76 408.66,-77.87 399.33,-72.84 398.23,-79.76"/>
</g>
<!-- Node4 -->
<g id="node4" class="node">
<title>Node4</title>
<g id="a_node4"><a xlink:href="classmaterial_1_1PdState.html#a59b68a1d3b1e1f316569ac2ea005d6c2" target="_top" xlink:title="Compute material model parameters.">
<polygon fill="none" stroke="black" points="134,-98.5 134,-128.5 238,-128.5 238,-98.5 134,-98.5"/>
<text text-anchor="start" x="142" y="-116.5" font-family="Arial" font-size="10.00">material::PdState::</text>
<text text-anchor="middle" x="186" y="-105.5" font-family="Arial" font-size="10.00">computeParameters</text>
</a>
</g>
</g>
<!-- Node3&#45;&gt;Node4 -->
<g id="edge3" class="edge">
<title>Node3&#45;&gt;Node4</title>
<path fill="none" stroke="midnightblue" d="M271.24,-83.04C257.25,-88.1 242.26,-93.52 228.86,-98.36"/>
<polygon fill="midnightblue" stroke="midnightblue" points="272.53,-86.29 280.74,-79.6 270.15,-79.71 272.53,-86.29"/>
</g>
<!-- Node6 -->
<g id="node6" class="node">
<title>Node6</title>
<g id="a_node6"><a xlink:href="structinp_1_1MaterialDeck.html#ac1ee02b7ca6f5a860c85450dc9db7328" target="_top" xlink:title="Prints the information about the object.">
<polygon fill="none" stroke="black" points="136.5,-49.5 136.5,-79.5 235.5,-79.5 235.5,-49.5 136.5,-49.5"/>
<text text-anchor="start" x="144.5" y="-67.5" font-family="Arial" font-size="10.00">inp::MaterialDeck::</text>
<text text-anchor="middle" x="186" y="-56.5" font-family="Arial" font-size="10.00">print</text>
</a>
</g>
</g>
<!-- Node3&#45;&gt;Node6 -->
<g id="edge5" class="edge">
<title>Node3&#45;&gt;Node6</title>
<path fill="none" stroke="midnightblue" d="M263.88,-64.5C254.46,-64.5 244.8,-64.5 235.65,-64.5"/>
<polygon fill="midnightblue" stroke="midnightblue" points="263.96,-68 273.96,-64.5 263.96,-61 263.96,-68"/>
</g>
<!-- Node7 -->
<g id="node7" class="node">
<title>Node7</title>
<g id="a_node7"><a xlink:href="structinp_1_1ParticleZone.html#a8e17f5dad0559571e5a39985127f62d9" target="_top" xlink:title="Returns the string containing printable information about the object.">
<polygon fill="none" stroke="black" points="138,-0.5 138,-30.5 234,-30.5 234,-0.5 138,-0.5"/>
<text text-anchor="start" x="146" y="-18.5" font-family="Arial" font-size="10.00">inp::ParticleZone::</text>
<text text-anchor="middle" x="186" y="-7.5" font-family="Arial" font-size="10.00">printStr</text>
</a>
</g>
</g>
<!-- Node3&#45;&gt;Node7 -->
<g id="edge6" class="edge">
<title>Node3&#45;&gt;Node7</title>
<path fill="none" stroke="midnightblue" d="M271.24,-45.96C257.25,-40.9 242.26,-35.48 228.86,-30.64"/>
<polygon fill="midnightblue" stroke="midnightblue" points="270.15,-49.29 280.74,-49.4 272.53,-42.71 270.15,-49.29"/>
</g>
<!-- Node5 -->
<g id="node5" class="node">
<title>Node5</title>
<g id="a_node5"><a xlink:href="classmaterial_1_1PdState.html#ada28f28c6544a0050fb242e4d5086703" target="_top" xlink:title="Constructor.">
<polygon fill="none" stroke="black" points="0,-98.5 0,-128.5 98,-128.5 98,-98.5 0,-98.5"/>
<text text-anchor="start" x="8" y="-116.5" font-family="Arial" font-size="10.00">material::PdState::</text>
<text text-anchor="middle" x="49" y="-105.5" font-family="Arial" font-size="10.00">PdState</text>
</a>
</g>
</g>
<!-- Node4&#45;&gt;Node5 -->
<g id="edge4" class="edge">
<title>Node4&#45;&gt;Node5</title>
<path fill="none" stroke="midnightblue" d="M123.72,-113.5C115.25,-113.5 106.64,-113.5 98.43,-113.5"/>
<polygon fill="midnightblue" stroke="midnightblue" points="123.96,-117 133.96,-113.5 123.96,-110 123.96,-117"/>
</g>
<!-- Node8 -->
<g id="node8" class="node">
<title>Node8</title>
<g id="a_node8"><a xlink:href="structinp_1_1ParticleZone.html#a12bfb6cae7040783161b3b0897e3cd92" target="_top" xlink:title="Prints the information about the object.">
<polygon fill="none" stroke="black" points="1,-0.5 1,-30.5 97,-30.5 97,-0.5 1,-0.5"/>
<text text-anchor="start" x="9" y="-18.5" font-family="Arial" font-size="10.00">inp::ParticleZone::</text>
<text text-anchor="middle" x="49" y="-7.5" font-family="Arial" font-size="10.00">print</text>
</a>
</g>
</g>
<!-- Node7&#45;&gt;Node8 -->
<g id="edge7" class="edge">
<title>Node7&#45;&gt;Node8</title>
<path fill="none" stroke="midnightblue" d="M127.48,-15.5C117.46,-15.5 107.13,-15.5 97.42,-15.5"/>
<polygon fill="midnightblue" stroke="midnightblue" points="127.78,-19 137.78,-15.5 127.78,-12 127.78,-19"/>
</g>
</g>
</svg>
