<?xml version="1.0" encoding="UTF-8" standalone="no"?>
<!DOCTYPE svg PUBLIC "-//W3C//DTD SVG 1.1//EN"
 "http://www.w3.org/Graphics/SVG/1.1/DTD/svg11.dtd">
<!-- Generated by graphviz version 2.43.0 (0)
 -->
<!-- Title: inp::PICDeck::printStr Pages: 1 -->
<svg width="392pt" height="76pt"
 viewBox="0.00 0.00 392.00 75.50" xmlns="http://www.w3.org/2000/svg" xmlns:xlink="http://www.w3.org/1999/xlink">
<g id="graph0" class="graph" transform="scale(1 1) rotate(0) translate(4 71.5)">
<title>inp::PICDeck::printStr</title>
<!-- Node1 -->
<g id="Node000001" class="node">
<title>Node1</title>
<g id="a_Node000001"><a xlink:title="Returns the string containing printable information about the object.">
<polygon fill="#999999" stroke="#666666" points="384,-45.5 271,-45.5 271,-26.5 384,-26.5 384,-45.5"/>
<text text-anchor="middle" x="327.5" y="-33.5" font-family="Arial" font-size="10.00">inp::PICDeck::printStr</text>
</a>
</g>
</g>
<!-- Node2 -->
<g id="Node000002" class="node">
<title>Node2</title>
<g id="a_Node000002"><a xlink:href="structinp_1_1PICDeck.html#ad999695221e335c9d9978c65510d6ab2" target="_top" xlink:title="Prints the information about the object.">
<polygon fill="white" stroke="#666666" points="235,-67.5 134,-67.5 134,-48.5 235,-48.5 235,-67.5"/>
<text text-anchor="middle" x="184.5" y="-55.5" font-family="Arial" font-size="10.00">inp::PICDeck::print</text>
</a>
</g>
</g>
<!-- Node1&#45;&gt;Node2 -->
<g id="edge1_Node000001_Node000002" class="edge">
<title>Node1&#45;&gt;Node2</title>
<g id="a_edge1_Node000001_Node000002"><a xlink:title=" ">
<path fill="none" stroke="#63b8ff" d="M260.8,-46.25C252.23,-47.59 243.58,-48.94 235.34,-50.22"/>
<polygon fill="#63b8ff" stroke="#63b8ff" points="261.43,-49.69 270.77,-44.69 260.35,-42.78 261.43,-49.69"/>
</a>
</g>
</g>
<!-- Node3 -->
<g id="Node000003" class="node">
<title>Node3</title>
<g id="a_Node000003"><a xlink:href="structinp_1_1ParticleDeck.html#a8c108509288e78450218a3e2612bf40e" target="_top" xlink:title="Returns the string containing printable information about the object.">
<polygon fill="white" stroke="#666666" points="233.5,-30 135.5,-30 135.5,0 233.5,0 233.5,-30"/>
<text text-anchor="start" x="143.5" y="-18" font-family="Arial" font-size="10.00">inp::ParticleDeck::</text>
<text text-anchor="middle" x="184.5" y="-7" font-family="Arial" font-size="10.00">printStr</text>
</a>
</g>
</g>
<!-- Node1&#45;&gt;Node3 -->
<g id="edge2_Node000001_Node000003" class="edge">
<title>Node1&#45;&gt;Node3</title>
<g id="a_edge2_Node000001_Node000003"><a xlink:title=" ">
<path fill="none" stroke="#63b8ff" d="M260.86,-26.22C251.65,-24.85 242.33,-23.46 233.53,-22.15"/>
<polygon fill="#63b8ff" stroke="#63b8ff" points="260.37,-29.69 270.77,-27.7 261.4,-22.77 260.37,-29.69"/>
</a>
</g>
</g>
<!-- Node4 -->
<g id="Node000004" class="node">
<title>Node4</title>
<g id="a_Node000004"><a xlink:href="structinp_1_1ParticleDeck.html#a012adaafebbdc4aee9fd7b32cb2e2f0f" target="_top" xlink:title="Prints the information about the object.">
<polygon fill="white" stroke="#666666" points="98,-30 0,-30 0,0 98,0 98,-30"/>
<text text-anchor="start" x="8" y="-18" font-family="Arial" font-size="10.00">inp::ParticleDeck::</text>
<text text-anchor="middle" x="49" y="-7" font-family="Arial" font-size="10.00">print</text>
</a>
</g>
</g>
<!-- Node3&#45;&gt;Node4 -->
<g id="edge3_Node000003_Node000004" class="edge">
<title>Node3&#45;&gt;Node4</title>
<g id="a_edge3_Node000003_Node000004"><a xlink:title=" ">
<path fill="none" stroke="#63b8ff" d="M125.22,-15C116.17,-15 106.91,-15 98.13,-15"/>
<polygon fill="#63b8ff" stroke="#63b8ff" points="125.3,-18.5 135.3,-15 125.3,-11.5 125.3,-18.5"/>
</a>
</g>
</g>
</g>
</svg>
