<?xml version="1.0" encoding="UTF-8" standalone="no"?>
<!DOCTYPE svg PUBLIC "-//W3C//DTD SVG 1.1//EN"
 "http://www.w3.org/Graphics/SVG/1.1/DTD/svg11.dtd">
<!-- Generated by graphviz version 2.43.0 (0)
 -->
<!-- Title: inp::MatData::print Pages: 1 -->
<svg width="373pt" height="28pt"
 viewBox="0.00 0.00 373.00 28.00" xmlns="http://www.w3.org/2000/svg" xmlns:xlink="http://www.w3.org/1999/xlink">
<g id="graph0" class="graph" transform="scale(1 1) rotate(0) translate(4 24)">
<title>inp::MatData::print</title>
<!-- Node1 -->
<g id="node1" class="node">
<title>Node1</title>
<g id="a_node1"><a xlink:title="Prints the information about the object.">
<polygon fill="#bfbfbf" stroke="black" points="0,-0.5 0,-19.5 98,-19.5 98,-0.5 0,-0.5"/>
<text text-anchor="middle" x="49" y="-7.5" font-family="Arial" font-size="10.00">inp::MatData::print</text>
</a>
</g>
</g>
<!-- Node2 -->
<g id="node2" class="node">
<title>Node2</title>
<g id="a_node2"><a xlink:href="structinp_1_1MatData.html#ad7efc5fd77177d4a15ceefc04b89f164" target="_top" xlink:title="Returns the string containing printable information about the object.">
<polygon fill="none" stroke="black" points="134,-0.5 134,-19.5 244,-19.5 244,-0.5 134,-0.5"/>
<text text-anchor="middle" x="189" y="-7.5" font-family="Arial" font-size="10.00">inp::MatData::printStr</text>
</a>
</g>
</g>
<!-- Node1&#45;&gt;Node2 -->
<g id="edge1" class="edge">
<title>Node1&#45;&gt;Node2</title>
<path fill="none" stroke="midnightblue" d="M98.27,-10C106.53,-10 115.24,-10 123.84,-10"/>
<polygon fill="midnightblue" stroke="midnightblue" points="123.87,-13.5 133.87,-10 123.87,-6.5 123.87,-13.5"/>
</g>
<!-- Node3 -->
<g id="node3" class="node">
<title>Node3</title>
<g id="a_node3"><a xlink:href="namespaceutil_1_1io.html#a38afb09a152cca4061850f4123bd3aeb" target="_top" xlink:title="Returns tab spaces of given size.">
<polygon fill="none" stroke="black" points="280,-0.5 280,-19.5 365,-19.5 365,-0.5 280,-0.5"/>
<text text-anchor="middle" x="322.5" y="-7.5" font-family="Arial" font-size="10.00">util::io::getTabS</text>
</a>
</g>
</g>
<!-- Node2&#45;&gt;Node3 -->
<g id="edge2" class="edge">
<title>Node2&#45;&gt;Node3</title>
<path fill="none" stroke="midnightblue" d="M244.25,-10C252.7,-10 261.41,-10 269.8,-10"/>
<polygon fill="midnightblue" stroke="midnightblue" points="269.84,-13.5 279.84,-10 269.84,-6.5 269.84,-13.5"/>
</g>
</g>
</svg>
