<?xml version="1.0" encoding="UTF-8" standalone="no"?>
<!DOCTYPE svg PUBLIC "-//W3C//DTD SVG 1.1//EN"
 "http://www.w3.org/Graphics/SVG/1.1/DTD/svg11.dtd">
<!-- Generated by graphviz version 2.43.0 (0)
 -->
<!-- Title: fe::QuadData::print Pages: 1 -->
<svg width="509pt" height="85pt"
 viewBox="0.00 0.00 509.00 85.00" xmlns="http://www.w3.org/2000/svg" xmlns:xlink="http://www.w3.org/1999/xlink">
<g id="graph0" class="graph" transform="scale(1 1) rotate(0) translate(4 81)">
<title>fe::QuadData::print</title>
<!-- Node1 -->
<g id="node1" class="node">
<title>Node1</title>
<g id="a_node1"><a xlink:title="Prints the information about the object.">
<polygon fill="#bfbfbf" stroke="black" points="0,-38.5 0,-57.5 100,-57.5 100,-38.5 0,-38.5"/>
<text text-anchor="middle" x="50" y="-45.5" font-family="Arial" font-size="10.00">fe::QuadData::print</text>
</a>
</g>
</g>
<!-- Node2 -->
<g id="node2" class="node">
<title>Node2</title>
<g id="a_node2"><a xlink:href="structfe_1_1QuadData.html#af187dfd9b92ce0c656bc48a76befa1a7" target="_top" xlink:title="Returns the string containing printable information about the object.">
<polygon fill="none" stroke="black" points="136,-38.5 136,-57.5 249,-57.5 249,-38.5 136,-38.5"/>
<text text-anchor="middle" x="192.5" y="-45.5" font-family="Arial" font-size="10.00">fe::QuadData::printStr</text>
</a>
</g>
</g>
<!-- Node1&#45;&gt;Node2 -->
<g id="edge1" class="edge">
<title>Node1&#45;&gt;Node2</title>
<path fill="none" stroke="midnightblue" d="M100.14,-48C108.44,-48 117.18,-48 125.83,-48"/>
<polygon fill="midnightblue" stroke="midnightblue" points="125.9,-51.5 135.9,-48 125.9,-44.5 125.9,-51.5"/>
</g>
<!-- Node3 -->
<g id="node3" class="node">
<title>Node3</title>
<g id="a_node3"><a xlink:href="namespaceutil_1_1io.html#a38afb09a152cca4061850f4123bd3aeb" target="_top" xlink:title="Returns tab spaces of given size.">
<polygon fill="none" stroke="black" points="416,-57.5 416,-76.5 501,-76.5 501,-57.5 416,-57.5"/>
<text text-anchor="middle" x="458.5" y="-64.5" font-family="Arial" font-size="10.00">util::io::getTabS</text>
</a>
</g>
</g>
<!-- Node2&#45;&gt;Node3 -->
<g id="edge2" class="edge">
<title>Node2&#45;&gt;Node3</title>
<path fill="none" stroke="midnightblue" d="M230.63,-57.51C247.15,-61.27 266.92,-65.14 285,-67 325.36,-71.15 371.32,-70.9 405.64,-69.76"/>
<polygon fill="midnightblue" stroke="midnightblue" points="406.04,-73.24 415.9,-69.38 405.78,-66.25 406.04,-73.24"/>
</g>
<!-- Node4 -->
<g id="node4" class="node">
<title>Node4</title>
<g id="a_node4"><a xlink:href="namespaceutil_1_1io.html#a3e537e3bd778616255015cde6e60a30a" target="_top" xlink:title="Returns formatted string for output.">
<polygon fill="none" stroke="black" points="292.5,-38.5 292.5,-57.5 372.5,-57.5 372.5,-38.5 292.5,-38.5"/>
<text text-anchor="middle" x="332.5" y="-45.5" font-family="Arial" font-size="10.00">util::io::printStr</text>
</a>
</g>
</g>
<!-- Node2&#45;&gt;Node4 -->
<g id="edge3" class="edge">
<title>Node2&#45;&gt;Node4</title>
<path fill="none" stroke="midnightblue" d="M249.23,-48C260,-48 271.22,-48 281.79,-48"/>
<polygon fill="midnightblue" stroke="midnightblue" points="282.09,-51.5 292.09,-48 282.09,-44.5 282.09,-51.5"/>
</g>
<!-- Node5 -->
<g id="node5" class="node">
<title>Node5</title>
<g id="a_node5"><a xlink:href="structutil_1_1Point.html#a0b71aa71d8f84fa5b1d4b0a873a838fb" target="_top" xlink:title="Returns the string containing printable information about the object.">
<polygon fill="none" stroke="black" points="285,-0.5 285,-19.5 380,-19.5 380,-0.5 285,-0.5"/>
<text text-anchor="middle" x="332.5" y="-7.5" font-family="Arial" font-size="10.00">util::Point::printStr</text>
</a>
</g>
</g>
<!-- Node2&#45;&gt;Node5 -->
<g id="edge5" class="edge">
<title>Node2&#45;&gt;Node5</title>
<path fill="none" stroke="midnightblue" d="M228.32,-38.41C246.14,-33.51 268.02,-27.48 287.04,-22.24"/>
<polygon fill="midnightblue" stroke="midnightblue" points="287.98,-25.62 296.69,-19.59 286.12,-18.87 287.98,-25.62"/>
</g>
<!-- Node4&#45;&gt;Node3 -->
<g id="edge4" class="edge">
<title>Node4&#45;&gt;Node3</title>
<path fill="none" stroke="midnightblue" d="M372.73,-54.01C383.27,-55.63 394.83,-57.4 405.93,-59.1"/>
<polygon fill="midnightblue" stroke="midnightblue" points="405.54,-62.58 415.95,-60.63 406.6,-55.66 405.54,-62.58"/>
</g>
</g>
</svg>
