<?xml version="1.0" encoding="UTF-8" standalone="no"?>
<!DOCTYPE svg PUBLIC "-//W3C//DTD SVG 1.1//EN"
 "http://www.w3.org/Graphics/SVG/1.1/DTD/svg11.dtd">
<!-- Generated by graphviz version 2.43.0 (0)
 -->
<!-- Title: inp::MeshDeck::printStr Pages: 1 -->
<svg width="414pt" height="154pt"
 viewBox="0.00 0.00 414.00 154.00" xmlns="http://www.w3.org/2000/svg" xmlns:xlink="http://www.w3.org/1999/xlink">
<g id="graph0" class="graph" transform="scale(1 1) rotate(0) translate(4 150)">
<title>inp::MeshDeck::printStr</title>
<!-- Node1 -->
<g id="node1" class="node">
<title>Node1</title>
<g id="a_node1"><a xlink:title="Returns the string containing printable information about the object.">
<polygon fill="#bfbfbf" stroke="black" points="286,-66.5 286,-85.5 406,-85.5 406,-66.5 286,-66.5"/>
<text text-anchor="middle" x="346" y="-73.5" font-family="Arial" font-size="10.00">inp::MeshDeck::printStr</text>
</a>
</g>
</g>
<!-- Node2 -->
<g id="node2" class="node">
<title>Node2</title>
<g id="a_node2"><a xlink:href="classfe_1_1Mesh.html#a0041afbb7d7e94bfb01c108e460196fb" target="_top" xlink:title="Constructor.">
<polygon fill="none" stroke="black" points="151,-126.5 151,-145.5 236,-145.5 236,-126.5 151,-126.5"/>
<text text-anchor="middle" x="193.5" y="-133.5" font-family="Arial" font-size="10.00">fe::Mesh::Mesh</text>
</a>
</g>
</g>
<!-- Node1&#45;&gt;Node2 -->
<g id="edge1" class="edge">
<title>Node1&#45;&gt;Node2</title>
<path fill="none" stroke="midnightblue" d="M314.93,-89.69C296.37,-97.96 271.97,-108.51 250,-117 241.54,-120.27 232.26,-123.56 223.75,-126.46"/>
<polygon fill="midnightblue" stroke="midnightblue" points="316.37,-92.88 324.06,-85.59 313.51,-86.49 316.37,-92.88"/>
</g>
<!-- Node3 -->
<g id="node3" class="node">
<title>Node3</title>
<g id="a_node3"><a xlink:href="structinp_1_1MeshDeck.html#aa00ff74d241c5569af82134db5248e28" target="_top" xlink:title="Prints the information about the object.">
<polygon fill="none" stroke="black" points="140,-88.5 140,-107.5 247,-107.5 247,-88.5 140,-88.5"/>
<text text-anchor="middle" x="193.5" y="-95.5" font-family="Arial" font-size="10.00">inp::MeshDeck::print</text>
</a>
</g>
</g>
<!-- Node1&#45;&gt;Node3 -->
<g id="edge2" class="edge">
<title>Node1&#45;&gt;Node3</title>
<path fill="none" stroke="midnightblue" d="M275.91,-86.1C266.2,-87.52 256.35,-88.96 247.02,-90.32"/>
<polygon fill="midnightblue" stroke="midnightblue" points="276.56,-89.54 285.95,-84.63 275.55,-82.62 276.56,-89.54"/>
</g>
<!-- Node4 -->
<g id="node4" class="node">
<title>Node4</title>
<g id="a_node4"><a xlink:href="structinp_1_1ParticleZone.html#a8e17f5dad0559571e5a39985127f62d9" target="_top" xlink:title="Returns the string containing printable information about the object.">
<polygon fill="none" stroke="black" points="145.5,-39 145.5,-69 241.5,-69 241.5,-39 145.5,-39"/>
<text text-anchor="start" x="153.5" y="-57" font-family="Arial" font-size="10.00">inp::ParticleZone::</text>
<text text-anchor="middle" x="193.5" y="-46" font-family="Arial" font-size="10.00">printStr</text>
</a>
</g>
</g>
<!-- Node1&#45;&gt;Node4 -->
<g id="edge3" class="edge">
<title>Node1&#45;&gt;Node4</title>
<path fill="none" stroke="midnightblue" d="M275.88,-65.9C264.34,-64.21 252.6,-62.49 241.76,-60.91"/>
<polygon fill="midnightblue" stroke="midnightblue" points="275.55,-69.38 285.95,-67.37 276.56,-62.46 275.55,-69.38"/>
</g>
<!-- Node6 -->
<g id="node6" class="node">
<title>Node6</title>
<g id="a_node6"><a xlink:href="structinp_1_1WallZone.html#ab0ee12019ba72b9f90fbb48cc58fe942" target="_top" xlink:title="Returns the string containing printable information about the object.">
<polygon fill="none" stroke="black" points="137,-0.5 137,-19.5 250,-19.5 250,-0.5 137,-0.5"/>
<text text-anchor="middle" x="193.5" y="-7.5" font-family="Arial" font-size="10.00">inp::WallZone::printStr</text>
</a>
</g>
</g>
<!-- Node1&#45;&gt;Node6 -->
<g id="edge5" class="edge">
<title>Node1&#45;&gt;Node6</title>
<path fill="none" stroke="midnightblue" d="M318.58,-61.78C299.75,-51.93 273.69,-38.87 250,-29 241.91,-25.63 233,-22.38 224.72,-19.55"/>
<polygon fill="midnightblue" stroke="midnightblue" points="316.98,-64.89 327.46,-66.46 320.25,-58.7 316.98,-64.89"/>
</g>
<!-- Node5 -->
<g id="node5" class="node">
<title>Node5</title>
<g id="a_node5"><a xlink:href="structinp_1_1ParticleZone.html#a12bfb6cae7040783161b3b0897e3cd92" target="_top" xlink:title="Prints the information about the object.">
<polygon fill="none" stroke="black" points="2.5,-39 2.5,-69 98.5,-69 98.5,-39 2.5,-39"/>
<text text-anchor="start" x="10.5" y="-57" font-family="Arial" font-size="10.00">inp::ParticleZone::</text>
<text text-anchor="middle" x="50.5" y="-46" font-family="Arial" font-size="10.00">print</text>
</a>
</g>
</g>
<!-- Node4&#45;&gt;Node5 -->
<g id="edge4" class="edge">
<title>Node4&#45;&gt;Node5</title>
<path fill="none" stroke="midnightblue" d="M134.84,-54C122.91,-54 110.47,-54 98.96,-54"/>
<polygon fill="midnightblue" stroke="midnightblue" points="135.16,-57.5 145.16,-54 135.16,-50.5 135.16,-57.5"/>
</g>
<!-- Node7 -->
<g id="node7" class="node">
<title>Node7</title>
<g id="a_node7"><a xlink:href="structinp_1_1WallZone.html#aa25c90211cd63756525d406c89af8c27" target="_top" xlink:title="Prints the information about the object.">
<polygon fill="none" stroke="black" points="0,-0.5 0,-19.5 101,-19.5 101,-0.5 0,-0.5"/>
<text text-anchor="middle" x="50.5" y="-7.5" font-family="Arial" font-size="10.00">inp::WallZone::print</text>
</a>
</g>
</g>
<!-- Node6&#45;&gt;Node7 -->
<g id="edge6" class="edge">
<title>Node6&#45;&gt;Node7</title>
<path fill="none" stroke="midnightblue" d="M126.52,-10C118.05,-10 109.49,-10 101.34,-10"/>
<polygon fill="midnightblue" stroke="midnightblue" points="126.77,-13.5 136.77,-10 126.77,-6.5 126.77,-13.5"/>
</g>
</g>
</svg>
