<?xml version="1.0" encoding="UTF-8" standalone="no"?>
<!DOCTYPE svg PUBLIC "-//W3C//DTD SVG 1.1//EN"
 "http://www.w3.org/Graphics/SVG/1.1/DTD/svg11.dtd">
<!-- Generated by graphviz version 2.43.0 (0)
 -->
<!-- Title: inp::Zone::print Pages: 1 -->
<svg width="623pt" height="81pt"
 viewBox="0.00 0.00 623.00 81.00" xmlns="http://www.w3.org/2000/svg" xmlns:xlink="http://www.w3.org/1999/xlink">
<g id="graph0" class="graph" transform="scale(1 1) rotate(0) translate(4 77)">
<title>inp::Zone::print</title>
<!-- Node1 -->
<g id="Node000001" class="node">
<title>Node1</title>
<g id="a_Node000001"><a xlink:title="Prints the information about the object.">
<polygon fill="#999999" stroke="#666666" points="82,-73 0,-73 0,-54 82,-54 82,-73"/>
<text text-anchor="middle" x="41" y="-61" font-family="Arial" font-size="10.00">inp::Zone::print</text>
</a>
</g>
</g>
<!-- Node2 -->
<g id="Node000002" class="node">
<title>Node2</title>
<g id="a_Node000002"><a xlink:href="structinp_1_1Zone.html#aad051408209401d54a0a186f190d2ac3" target="_top" xlink:title="Returns the string containing printable information about the object.">
<polygon fill="white" stroke="#666666" points="213,-73 118,-73 118,-54 213,-54 213,-73"/>
<text text-anchor="middle" x="165.5" y="-61" font-family="Arial" font-size="10.00">inp::Zone::printStr</text>
</a>
</g>
</g>
<!-- Node1&#45;&gt;Node2 -->
<g id="edge1_Node000001_Node000002" class="edge">
<title>Node1&#45;&gt;Node2</title>
<g id="a_edge1_Node000001_Node000002"><a xlink:title=" ">
<path fill="none" stroke="#63b8ff" d="M82.11,-63.5C90.34,-63.5 99.14,-63.5 107.82,-63.5"/>
<polygon fill="#63b8ff" stroke="#63b8ff" points="107.92,-67 117.92,-63.5 107.91,-60 107.92,-67"/>
</a>
</g>
</g>
<!-- Node3 -->
<g id="Node000003" class="node">
<title>Node3</title>
<g id="a_Node000003"><a xlink:href="namespaceutil_1_1io.html#a38afb09a152cca4061850f4123bd3aeb" target="_top" xlink:title="Returns tab spaces of given size.">
<polygon fill="white" stroke="#666666" points="615,-57 530,-57 530,-38 615,-38 615,-57"/>
<text text-anchor="middle" x="572.5" y="-45" font-family="Arial" font-size="10.00">util::io::getTabS</text>
</a>
</g>
</g>
<!-- Node2&#45;&gt;Node3 -->
<g id="edge2_Node000002_Node000003" class="edge">
<title>Node2&#45;&gt;Node3</title>
<g id="a_edge2_Node000002_Node000003"><a xlink:title=" ">
<path fill="none" stroke="#63b8ff" d="M213.04,-65.69C276.68,-68.06 394.35,-70.2 494,-59.5 502.37,-58.6 511.21,-57.44 519.82,-56.19"/>
<polygon fill="#63b8ff" stroke="#63b8ff" points="520.4,-59.64 529.76,-54.69 519.35,-52.72 520.4,-59.64"/>
</a>
</g>
</g>
<!-- Node4 -->
<g id="Node000004" class="node">
<title>Node4</title>
<g id="a_Node000004"><a xlink:href="structutil_1_1geometry_1_1GeomData.html#a7575a3b47ff2eba1e7c22c0ce942e4b4" target="_top" xlink:title="Returns the string containing printable information about the object.">
<polygon fill="white" stroke="#666666" points="378,-57.5 249,-57.5 249,-27.5 378,-27.5 378,-57.5"/>
<text text-anchor="start" x="257" y="-45.5" font-family="Arial" font-size="10.00">util::geometry::GeomData</text>
<text text-anchor="middle" x="313.5" y="-34.5" font-family="Arial" font-size="10.00">::printStr</text>
</a>
</g>
</g>
<!-- Node2&#45;&gt;Node4 -->
<g id="edge3_Node000002_Node000004" class="edge">
<title>Node2&#45;&gt;Node4</title>
<g id="a_edge3_Node000002_Node000004"><a xlink:title=" ">
<path fill="none" stroke="#63b8ff" d="M213.1,-56.8C221.25,-55.62 229.92,-54.38 238.6,-53.13"/>
<polygon fill="#63b8ff" stroke="#63b8ff" points="239.37,-56.55 248.77,-51.67 238.38,-49.63 239.37,-56.55"/>
</a>
</g>
</g>
<!-- Node4&#45;&gt;Node3 -->
<g id="edge4_Node000004_Node000003" class="edge">
<title>Node4&#45;&gt;Node3</title>
<g id="a_edge4_Node000004_Node000003"><a xlink:title=" ">
<path fill="none" stroke="#63b8ff" d="M378.03,-43.74C421.74,-44.59 479.07,-45.7 519.94,-46.5"/>
<polygon fill="#63b8ff" stroke="#63b8ff" points="519.9,-50 529.97,-46.69 520.04,-43 519.9,-50"/>
</a>
</g>
</g>
<!-- Node5 -->
<g id="Node000005" class="node">
<title>Node5</title>
<g id="a_Node000005"><a xlink:href="namespaceutil_1_1io.html#a3e537e3bd778616255015cde6e60a30a" target="_top" xlink:title="Returns formatted string for output.">
<polygon fill="white" stroke="#666666" points="494,-19 414,-19 414,0 494,0 494,-19"/>
<text text-anchor="middle" x="454" y="-7" font-family="Arial" font-size="10.00">util::io::printStr</text>
</a>
</g>
</g>
<!-- Node4&#45;&gt;Node5 -->
<g id="edge5_Node000004_Node000005" class="edge">
<title>Node4&#45;&gt;Node5</title>
<g id="a_edge5_Node000004_Node000005"><a xlink:title=" ">
<path fill="none" stroke="#63b8ff" d="M377.67,-27.45C386.49,-25.35 395.44,-23.21 403.95,-21.19"/>
<polygon fill="#63b8ff" stroke="#63b8ff" points="404.78,-24.59 413.7,-18.86 403.16,-17.78 404.78,-24.59"/>
</a>
</g>
</g>
<!-- Node5&#45;&gt;Node3 -->
<g id="edge6_Node000005_Node000003" class="edge">
<title>Node5&#45;&gt;Node3</title>
<g id="a_edge6_Node000005_Node000003"><a xlink:title=" ">
<path fill="none" stroke="#63b8ff" d="M484.4,-19.09C498.89,-23.81 516.56,-29.58 532.19,-34.68"/>
<polygon fill="#63b8ff" stroke="#63b8ff" points="531.52,-38.14 542.11,-37.91 533.69,-31.49 531.52,-38.14"/>
</a>
</g>
</g>
</g>
</svg>
