<?xml version="1.0" encoding="UTF-8" standalone="no"?>
<!DOCTYPE svg PUBLIC "-//W3C//DTD SVG 1.1//EN"
 "http://www.w3.org/Graphics/SVG/1.1/DTD/svg11.dtd">
<!-- Generated by graphviz version 2.43.0 (0)
 -->
<!-- Title: inp::MeshDeck::printStr Pages: 1 -->
<svg width="403pt" height="116pt"
 viewBox="0.00 0.00 403.00 115.50" xmlns="http://www.w3.org/2000/svg" xmlns:xlink="http://www.w3.org/1999/xlink">
<g id="graph0" class="graph" transform="scale(1 1) rotate(0) translate(4 111.5)">
<title>inp::MeshDeck::printStr</title>
<!-- Node1 -->
<g id="node1" class="node">
<title>Node1</title>
<g id="a_node1"><a xlink:title="Returns the string containing printable information about the object.">
<polygon fill="#bfbfbf" stroke="black" points="275,-50 275,-69 395,-69 395,-50 275,-50"/>
<text text-anchor="middle" x="335" y="-57" font-family="Arial" font-size="10.00">inp::MeshDeck::printStr</text>
</a>
</g>
</g>
<!-- Node2 -->
<g id="node2" class="node">
<title>Node2</title>
<g id="a_node2"><a xlink:href="classfe_1_1Mesh.html#a0041afbb7d7e94bfb01c108e460196fb" target="_top" xlink:title="Constructor.">
<polygon fill="none" stroke="black" points="143,-88 143,-107 228,-107 228,-88 143,-88"/>
<text text-anchor="middle" x="185.5" y="-95" font-family="Arial" font-size="10.00">fe::Mesh::Mesh</text>
</a>
</g>
</g>
<!-- Node1&#45;&gt;Node2 -->
<g id="edge1" class="edge">
<title>Node1&#45;&gt;Node2</title>
<path fill="none" stroke="midnightblue" d="M286.99,-71.61C266.44,-76.9 242.7,-83.02 223.45,-87.98"/>
<polygon fill="midnightblue" stroke="midnightblue" points="287.97,-74.97 296.78,-69.09 286.22,-68.19 287.97,-74.97"/>
</g>
<!-- Node3 -->
<g id="node3" class="node">
<title>Node3</title>
<g id="a_node3"><a xlink:href="structinp_1_1MeshDeck.html#aa00ff74d241c5569af82134db5248e28" target="_top" xlink:title="Prints the information about the object.">
<polygon fill="none" stroke="black" points="132,-50 132,-69 239,-69 239,-50 132,-50"/>
<text text-anchor="middle" x="185.5" y="-57" font-family="Arial" font-size="10.00">inp::MeshDeck::print</text>
</a>
</g>
</g>
<!-- Node1&#45;&gt;Node3 -->
<g id="edge2" class="edge">
<title>Node1&#45;&gt;Node3</title>
<path fill="none" stroke="midnightblue" d="M264.61,-59.5C256.16,-59.5 247.62,-59.5 239.46,-59.5"/>
<polygon fill="midnightblue" stroke="midnightblue" points="264.86,-63 274.86,-59.5 264.86,-56 264.86,-63"/>
</g>
<!-- Node4 -->
<g id="node4" class="node">
<title>Node4</title>
<g id="a_node4"><a xlink:href="structinp_1_1ParticleZone.html#a8e17f5dad0559571e5a39985127f62d9" target="_top" xlink:title="Returns the string containing printable information about the object.">
<polygon fill="none" stroke="black" points="137.5,-0.5 137.5,-30.5 233.5,-30.5 233.5,-0.5 137.5,-0.5"/>
<text text-anchor="start" x="145.5" y="-18.5" font-family="Arial" font-size="10.00">inp::ParticleZone::</text>
<text text-anchor="middle" x="185.5" y="-7.5" font-family="Arial" font-size="10.00">printStr</text>
</a>
</g>
</g>
<!-- Node1&#45;&gt;Node4 -->
<g id="edge3" class="edge">
<title>Node1&#45;&gt;Node4</title>
<path fill="none" stroke="midnightblue" d="M292.21,-47.03C273.93,-41.58 252.41,-35.16 233.57,-29.54"/>
<polygon fill="midnightblue" stroke="midnightblue" points="291.41,-50.45 301.99,-49.95 293.41,-43.74 291.41,-50.45"/>
</g>
<!-- Node5 -->
<g id="node5" class="node">
<title>Node5</title>
<g id="a_node5"><a xlink:href="structinp_1_1ParticleZone.html#a12bfb6cae7040783161b3b0897e3cd92" target="_top" xlink:title="Prints the information about the object.">
<polygon fill="none" stroke="black" points="0,-0.5 0,-30.5 96,-30.5 96,-0.5 0,-0.5"/>
<text text-anchor="start" x="8" y="-18.5" font-family="Arial" font-size="10.00">inp::ParticleZone::</text>
<text text-anchor="middle" x="48" y="-7.5" font-family="Arial" font-size="10.00">print</text>
</a>
</g>
</g>
<!-- Node4&#45;&gt;Node5 -->
<g id="edge4" class="edge">
<title>Node4&#45;&gt;Node5</title>
<path fill="none" stroke="midnightblue" d="M127.33,-15.5C117.02,-15.5 106.38,-15.5 96.39,-15.5"/>
<polygon fill="midnightblue" stroke="midnightblue" points="127.49,-19 137.49,-15.5 127.49,-12 127.49,-19"/>
</g>
</g>
</svg>
