<?xml version="1.0" encoding="UTF-8" standalone="no"?>
<!DOCTYPE svg PUBLIC "-//W3C//DTD SVG 1.1//EN"
 "http://www.w3.org/Graphics/SVG/1.1/DTD/svg11.dtd">
<!-- Generated by graphviz version 2.43.0 (0)
 -->
<!-- Title: inp::Zone::print Pages: 1 -->
<svg width="458pt" height="47pt"
 viewBox="0.00 0.00 458.00 47.00" xmlns="http://www.w3.org/2000/svg" xmlns:xlink="http://www.w3.org/1999/xlink">
<g id="graph0" class="graph" transform="scale(1 1) rotate(0) translate(4 43)">
<title>inp::Zone::print</title>
<!-- Node1 -->
<g id="node1" class="node">
<title>Node1</title>
<g id="a_node1"><a xlink:title="Prints the information about the object.">
<polygon fill="#bfbfbf" stroke="black" points="0,-19.5 0,-38.5 82,-38.5 82,-19.5 0,-19.5"/>
<text text-anchor="middle" x="41" y="-26.5" font-family="Arial" font-size="10.00">inp::Zone::print</text>
</a>
</g>
</g>
<!-- Node2 -->
<g id="node2" class="node">
<title>Node2</title>
<g id="a_node2"><a xlink:href="structinp_1_1Zone.html#aad051408209401d54a0a186f190d2ac3" target="_top" xlink:title="Returns the string containing printable information about the object.">
<polygon fill="none" stroke="black" points="118,-19.5 118,-38.5 213,-38.5 213,-19.5 118,-19.5"/>
<text text-anchor="middle" x="165.5" y="-26.5" font-family="Arial" font-size="10.00">inp::Zone::printStr</text>
</a>
</g>
</g>
<!-- Node1&#45;&gt;Node2 -->
<g id="edge1" class="edge">
<title>Node1&#45;&gt;Node2</title>
<path fill="none" stroke="midnightblue" d="M82.11,-29C90.34,-29 99.14,-29 107.82,-29"/>
<polygon fill="midnightblue" stroke="midnightblue" points="107.92,-32.5 117.92,-29 107.91,-25.5 107.92,-32.5"/>
</g>
<!-- Node3 -->
<g id="node3" class="node">
<title>Node3</title>
<g id="a_node3"><a xlink:href="namespaceutil_1_1io.html#a38afb09a152cca4061850f4123bd3aeb" target="_top" xlink:title="Returns tab spaces of given size.">
<polygon fill="none" stroke="black" points="365,-19.5 365,-38.5 450,-38.5 450,-19.5 365,-19.5"/>
<text text-anchor="middle" x="407.5" y="-26.5" font-family="Arial" font-size="10.00">util::io::getTabS</text>
</a>
</g>
</g>
<!-- Node2&#45;&gt;Node3 -->
<g id="edge2" class="edge">
<title>Node2&#45;&gt;Node3</title>
<path fill="none" stroke="midnightblue" d="M213.06,-29C253.73,-29 312.7,-29 354.83,-29"/>
<polygon fill="midnightblue" stroke="midnightblue" points="354.88,-32.5 364.88,-29 354.88,-25.5 354.88,-32.5"/>
</g>
<!-- Node4 -->
<g id="node4" class="node">
<title>Node4</title>
<g id="a_node4"><a xlink:href="namespaceutil_1_1io.html#a3e537e3bd778616255015cde6e60a30a" target="_top" xlink:title="Returns formatted string for output.">
<polygon fill="none" stroke="black" points="249,-0.5 249,-19.5 329,-19.5 329,-0.5 249,-0.5"/>
<text text-anchor="middle" x="289" y="-7.5" font-family="Arial" font-size="10.00">util::io::printStr</text>
</a>
</g>
</g>
<!-- Node2&#45;&gt;Node4 -->
<g id="edge3" class="edge">
<title>Node2&#45;&gt;Node4</title>
<path fill="none" stroke="midnightblue" d="M213.13,-21.71C221.5,-20.4 230.25,-19.03 238.7,-17.71"/>
<polygon fill="midnightblue" stroke="midnightblue" points="239.46,-21.13 248.8,-16.13 238.38,-14.22 239.46,-21.13"/>
</g>
<!-- Node4&#45;&gt;Node3 -->
<g id="edge4" class="edge">
<title>Node4&#45;&gt;Node3</title>
<path fill="none" stroke="midnightblue" d="M329.12,-16.38C337.38,-17.73 346.23,-19.17 354.88,-20.58"/>
<polygon fill="midnightblue" stroke="midnightblue" points="354.46,-24.06 364.89,-22.21 355.59,-17.15 354.46,-24.06"/>
</g>
</g>
</svg>
