<?xml version="1.0" encoding="UTF-8" standalone="no"?>
<!DOCTYPE svg PUBLIC "-//W3C//DTD SVG 1.1//EN"
 "http://www.w3.org/Graphics/SVG/1.1/DTD/svg11.dtd">
<!-- Generated by graphviz version 2.43.0 (0)
 -->
<!-- Title: inp::BCBaseDeck::BCBaseDeck Pages: 1 -->
<svg width="523pt" height="45pt"
 viewBox="0.00 0.00 523.00 45.00" xmlns="http://www.w3.org/2000/svg" xmlns:xlink="http://www.w3.org/1999/xlink">
<g id="graph0" class="graph" transform="scale(1 1) rotate(0) translate(4 41)">
<title>inp::BCBaseDeck::BCBaseDeck</title>
<!-- Node1 -->
<g id="Node000001" class="node">
<title>Node1</title>
<g id="a_Node000001"><a xlink:title="Constructor.">
<polygon fill="#999999" stroke="#666666" points="161,-19 0,-19 0,0 161,0 161,-19"/>
<text text-anchor="middle" x="80.5" y="-7" font-family="Arial" font-size="10.00">inp::BCBaseDeck::BCBaseDeck</text>
</a>
</g>
</g>
<!-- Node2 -->
<g id="Node000002" class="node">
<title>Node2</title>
<g id="a_Node000002"><a xlink:href="namespacegeom.html#a0d3372c6903cbab2d7506192ba067ab3" target="_top" xlink:title=" ">
<polygon fill="white" stroke="#666666" points="325,-19 197,-19 197,0 325,0 325,-19"/>
<text text-anchor="middle" x="261" y="-7" font-family="Arial" font-size="10.00">geom::createGeomObject</text>
</a>
</g>
</g>
<!-- Node1&#45;&gt;Node2 -->
<g id="edge1_Node000001_Node000002" class="edge">
<title>Node1&#45;&gt;Node2</title>
<g id="a_edge1_Node000001_Node000002"><a xlink:title=" ">
<path fill="none" stroke="#63b8ff" d="M161.09,-9.5C169.62,-9.5 178.26,-9.5 186.71,-9.5"/>
<polygon fill="#63b8ff" stroke="#63b8ff" points="186.9,-13 196.9,-9.5 186.9,-6 186.9,-13"/>
</a>
</g>
</g>
<!-- Node2&#45;&gt;Node2 -->
<g id="edge2_Node000002_Node000002" class="edge">
<title>Node2&#45;&gt;Node2</title>
<g id="a_edge2_Node000002_Node000002"><a xlink:title=" ">
<path fill="none" stroke="#63b8ff" d="M233.87,-19.08C220.68,-27.73 229.72,-37 261,-37 282.02,-37 293,-32.82 293.93,-27.45"/>
<polygon fill="#63b8ff" stroke="#63b8ff" points="296.7,-25.3 288.13,-19.08 290.95,-29.29 296.7,-25.3"/>
</a>
</g>
</g>
<!-- Node3 -->
<g id="Node000003" class="node">
<title>Node3</title>
<g id="a_Node000003"><a xlink:href="namespacegeom.html#ad72f3599a20927cdb1cb4d86f641908a" target="_top" xlink:title="Get num params required for creation of object.">
<polygon fill="white" stroke="#666666" points="515,-19 361,-19 361,0 515,0 515,-19"/>
<text text-anchor="middle" x="438" y="-7" font-family="Arial" font-size="10.00">geom::getNumParamsRequired</text>
</a>
</g>
</g>
<!-- Node2&#45;&gt;Node3 -->
<g id="edge3_Node000002_Node000003" class="edge">
<title>Node2&#45;&gt;Node3</title>
<g id="a_edge3_Node000002_Node000003"><a xlink:title=" ">
<path fill="none" stroke="#63b8ff" d="M325.18,-9.5C333.48,-9.5 342.1,-9.5 350.71,-9.5"/>
<polygon fill="#63b8ff" stroke="#63b8ff" points="350.78,-13 360.78,-9.5 350.78,-6 350.78,-13"/>
</a>
</g>
</g>
</g>
</svg>
