<?xml version="1.0" encoding="UTF-8" standalone="no"?>
<!DOCTYPE svg PUBLIC "-//W3C//DTD SVG 1.1//EN"
 "http://www.w3.org/Graphics/SVG/1.1/DTD/svg11.dtd">
<!-- Generated by graphviz version 2.43.0 (0)
 -->
<!-- Title: inp::PNeighborDeck::readFromJson Pages: 1 -->
<svg width="433pt" height="38pt"
 viewBox="0.00 0.00 433.00 38.00" xmlns="http://www.w3.org/2000/svg" xmlns:xlink="http://www.w3.org/1999/xlink">
<g id="graph0" class="graph" transform="scale(1 1) rotate(0) translate(4 34)">
<title>inp::PNeighborDeck::readFromJson</title>
<!-- Node1 -->
<g id="Node000001" class="node">
<title>Node1</title>
<g id="a_Node000001"><a xlink:title="Reads from json object.">
<polygon fill="#999999" stroke="#666666" points="425,-30 321,-30 321,0 425,0 425,-30"/>
<text text-anchor="start" x="329" y="-18" font-family="Arial" font-size="10.00">inp::PNeighborDeck</text>
<text text-anchor="middle" x="373" y="-7" font-family="Arial" font-size="10.00">::readFromJson</text>
</a>
</g>
</g>
<!-- Node2 -->
<g id="Node000002" class="node">
<title>Node2</title>
<g id="a_Node000002"><a xlink:href="structinp_1_1ParticleDeck.html#ab29dc4e8a679c1b3c23dd9b3d26db9ef" target="_top" xlink:title=" ">
<polygon fill="white" stroke="#666666" points="285,-30 134,-30 134,0 285,0 285,-30"/>
<text text-anchor="start" x="142" y="-18" font-family="Arial" font-size="10.00">inp::ParticleDeck::</text>
<text text-anchor="middle" x="209.5" y="-7" font-family="Arial" font-size="10.00">readParticleNeighborFromJson</text>
</a>
</g>
</g>
<!-- Node1&#45;&gt;Node2 -->
<g id="edge1_Node000001_Node000002" class="edge">
<title>Node1&#45;&gt;Node2</title>
<g id="a_edge1_Node000001_Node000002"><a xlink:title=" ">
<path fill="none" stroke="#63b8ff" d="M310.84,-15C302.45,-15 293.76,-15 285.16,-15"/>
<polygon fill="#63b8ff" stroke="#63b8ff" points="310.9,-18.5 320.9,-15 310.9,-11.5 310.9,-18.5"/>
</a>
</g>
</g>
<!-- Node3 -->
<g id="Node000003" class="node">
<title>Node3</title>
<g id="a_Node000003"><a xlink:href="structinp_1_1ParticleDeck.html#ae9810f456ee39dbae63e4d71b96fe046" target="_top" xlink:title=" ">
<polygon fill="white" stroke="#666666" points="98,-30 0,-30 0,0 98,0 98,-30"/>
<text text-anchor="start" x="8" y="-18" font-family="Arial" font-size="10.00">inp::ParticleDeck::</text>
<text text-anchor="middle" x="49" y="-7" font-family="Arial" font-size="10.00">readFromJson</text>
</a>
</g>
</g>
<!-- Node2&#45;&gt;Node3 -->
<g id="edge2_Node000002_Node000003" class="edge">
<title>Node2&#45;&gt;Node3</title>
<g id="a_edge2_Node000002_Node000003"><a xlink:title=" ">
<path fill="none" stroke="#63b8ff" d="M123.72,-15C115.07,-15 106.51,-15 98.45,-15"/>
<polygon fill="#63b8ff" stroke="#63b8ff" points="123.89,-18.5 133.89,-15 123.89,-11.5 123.89,-18.5"/>
</a>
</g>
</g>
</g>
</svg>
