<?xml version="1.0" encoding="UTF-8" standalone="no"?>
<!DOCTYPE svg PUBLIC "-//W3C//DTD SVG 1.1//EN"
 "http://www.w3.org/Graphics/SVG/1.1/DTD/svg11.dtd">
<!-- Generated by graphviz version 2.43.0 (0)
 -->
<!-- Title: inp::ModelDeck::print Pages: 1 -->
<svg width="397pt" height="27pt"
 viewBox="0.00 0.00 397.00 27.00" xmlns="http://www.w3.org/2000/svg" xmlns:xlink="http://www.w3.org/1999/xlink">
<g id="graph0" class="graph" transform="scale(1 1) rotate(0) translate(4 23)">
<title>inp::ModelDeck::print</title>
<!-- Node1 -->
<g id="Node000001" class="node">
<title>Node1</title>
<g id="a_Node000001"><a xlink:title="Prints the information about the object.">
<polygon fill="#999999" stroke="#666666" points="110,-19 0,-19 0,0 110,0 110,-19"/>
<text text-anchor="middle" x="55" y="-7" font-family="Arial" font-size="10.00">inp::ModelDeck::print</text>
</a>
</g>
</g>
<!-- Node2 -->
<g id="Node000002" class="node">
<title>Node2</title>
<g id="a_Node000002"><a xlink:href="structinp_1_1ModelDeck.html#ac1a00dba713cd20ffe92bac659af6646" target="_top" xlink:title="Returns the string containing printable information about the object.">
<polygon fill="white" stroke="#666666" points="268,-19 146,-19 146,0 268,0 268,-19"/>
<text text-anchor="middle" x="207" y="-7" font-family="Arial" font-size="10.00">inp::ModelDeck::printStr</text>
</a>
</g>
</g>
<!-- Node1&#45;&gt;Node2 -->
<g id="edge1_Node000001_Node000002" class="edge">
<title>Node1&#45;&gt;Node2</title>
<g id="a_edge1_Node000001_Node000002"><a xlink:title=" ">
<path fill="none" stroke="#63b8ff" d="M110.15,-9.5C118.48,-9.5 127.17,-9.5 135.78,-9.5"/>
<polygon fill="#63b8ff" stroke="#63b8ff" points="135.83,-13 145.83,-9.5 135.83,-6 135.83,-13"/>
</a>
</g>
</g>
<!-- Node3 -->
<g id="Node000003" class="node">
<title>Node3</title>
<g id="a_Node000003"><a xlink:href="namespaceutil_1_1io.html#a38afb09a152cca4061850f4123bd3aeb" target="_top" xlink:title="Returns tab spaces of given size.">
<polygon fill="white" stroke="#666666" points="389,-19 304,-19 304,0 389,0 389,-19"/>
<text text-anchor="middle" x="346.5" y="-7" font-family="Arial" font-size="10.00">util::io::getTabS</text>
</a>
</g>
</g>
<!-- Node2&#45;&gt;Node3 -->
<g id="edge2_Node000002_Node000003" class="edge">
<title>Node2&#45;&gt;Node3</title>
<g id="a_edge2_Node000002_Node000003"><a xlink:title=" ">
<path fill="none" stroke="#63b8ff" d="M268.31,-9.5C276.73,-9.5 285.33,-9.5 293.57,-9.5"/>
<polygon fill="#63b8ff" stroke="#63b8ff" points="293.8,-13 303.8,-9.5 293.8,-6 293.8,-13"/>
</a>
</g>
</g>
</g>
</svg>
