<?xml version="1.0" encoding="UTF-8" standalone="no"?>
<!DOCTYPE svg PUBLIC "-//W3C//DTD SVG 1.1//EN"
 "http://www.w3.org/Graphics/SVG/1.1/DTD/svg11.dtd">
<!-- Generated by graphviz version 2.43.0 (0)
 -->
<!-- Title: inp::PBCData::print Pages: 1 -->
<svg width="382pt" height="28pt"
 viewBox="0.00 0.00 382.00 28.00" xmlns="http://www.w3.org/2000/svg" xmlns:xlink="http://www.w3.org/1999/xlink">
<g id="graph0" class="graph" transform="scale(1 1) rotate(0) translate(4 24)">
<title>inp::PBCData::print</title>
<!-- Node1 -->
<g id="node1" class="node">
<title>Node1</title>
<g id="a_node1"><a xlink:title="Prints the information about the object.">
<polygon fill="#bfbfbf" stroke="black" points="0,-0.5 0,-19.5 102,-19.5 102,-0.5 0,-0.5"/>
<text text-anchor="middle" x="51" y="-7.5" font-family="Arial" font-size="10.00">inp::PBCData::print</text>
</a>
</g>
</g>
<!-- Node2 -->
<g id="node2" class="node">
<title>Node2</title>
<g id="a_node2"><a xlink:href="structinp_1_1PBCData.html#a22f266c6844df9da79ce450db2edee41" target="_top" xlink:title="Returns the string containing printable information about the object.">
<polygon fill="none" stroke="black" points="138,-0.5 138,-19.5 253,-19.5 253,-0.5 138,-0.5"/>
<text text-anchor="middle" x="195.5" y="-7.5" font-family="Arial" font-size="10.00">inp::PBCData::printStr</text>
</a>
</g>
</g>
<!-- Node1&#45;&gt;Node2 -->
<g id="edge1" class="edge">
<title>Node1&#45;&gt;Node2</title>
<path fill="none" stroke="midnightblue" d="M102.24,-10C110.53,-10 119.24,-10 127.86,-10"/>
<polygon fill="midnightblue" stroke="midnightblue" points="127.91,-13.5 137.91,-10 127.91,-6.5 127.91,-13.5"/>
</g>
<!-- Node3 -->
<g id="node3" class="node">
<title>Node3</title>
<g id="a_node3"><a xlink:href="namespaceutil_1_1io.html#a38afb09a152cca4061850f4123bd3aeb" target="_top" xlink:title="Returns tab spaces of given size.">
<polygon fill="none" stroke="black" points="289,-0.5 289,-19.5 374,-19.5 374,-0.5 289,-0.5"/>
<text text-anchor="middle" x="331.5" y="-7.5" font-family="Arial" font-size="10.00">util::io::getTabS</text>
</a>
</g>
</g>
<!-- Node2&#45;&gt;Node3 -->
<g id="edge2" class="edge">
<title>Node2&#45;&gt;Node3</title>
<path fill="none" stroke="midnightblue" d="M253.33,-10C261.65,-10 270.19,-10 278.42,-10"/>
<polygon fill="midnightblue" stroke="midnightblue" points="278.63,-13.5 288.63,-10 278.63,-6.5 278.63,-13.5"/>
</g>
</g>
</svg>
