<?xml version="1.0" encoding="UTF-8" standalone="no"?>
<!DOCTYPE svg PUBLIC "-//W3C//DTD SVG 1.1//EN"
 "http://www.w3.org/Graphics/SVG/1.1/DTD/svg11.dtd">
<!-- Generated by graphviz version 2.43.0 (0)
 -->
<!-- Title: /home/user/project/test/test_exec/peridem/testPeriDEMLib.cpp Pages: 1 -->
<svg width="1637pt" height="453pt"
 viewBox="0.00 0.00 1637.00 453.00" xmlns="http://www.w3.org/2000/svg" xmlns:xlink="http://www.w3.org/1999/xlink">
<g id="graph0" class="graph" transform="scale(1 1) rotate(0) translate(4 449)">
<title>/home/user/project/test/test_exec/peridem/testPeriDEMLib.cpp</title>
<!-- Node1 -->
<g id="node1" class="node">
<title>Node1</title>
<g id="a_node1"><a xlink:title=" ">
<polygon fill="#bfbfbf" stroke="black" points="1231.5,-403.5 1231.5,-444.5 1350.5,-444.5 1350.5,-403.5 1231.5,-403.5"/>
<text text-anchor="start" x="1239.5" y="-432.5" font-family="Arial" font-size="10.00">/home/user/project</text>
<text text-anchor="start" x="1239.5" y="-421.5" font-family="Arial" font-size="10.00">/test/test_exec/peridem</text>
<text text-anchor="middle" x="1291" y="-410.5" font-family="Arial" font-size="10.00">/testPeriDEMLib.cpp</text>
</a>
</g>
</g>
<!-- Node2 -->
<g id="node2" class="node">
<title>Node2</title>
<g id="a_node2"><a xlink:href="testPeriDEMLib_8h.html" target="_top" xlink:title=" ">
<polygon fill="none" stroke="black" points="1521,-168.5 1521,-187.5 1615,-187.5 1615,-168.5 1521,-168.5"/>
<text text-anchor="middle" x="1568" y="-175.5" font-family="Arial" font-size="10.00">testPeriDEMLib.h</text>
</a>
</g>
</g>
<!-- Node1&#45;&gt;Node2 -->
<g id="edge1" class="edge">
<title>Node1&#45;&gt;Node2</title>
<path fill="none" stroke="midnightblue" d="M1350.64,-422.57C1398.7,-419.05 1464.98,-406.57 1507,-367 1555.9,-320.95 1565.68,-235.4 1567.58,-197.69"/>
<polygon fill="midnightblue" stroke="midnightblue" points="1571.08,-197.74 1567.95,-187.61 1564.09,-197.48 1571.08,-197.74"/>
</g>
<!-- Node3 -->
<g id="node3" class="node">
<title>Node3</title>
<g id="a_node3"><a xlink:title=" ">
<polygon fill="none" stroke="#bfbfbf" points="1109.5,-112.5 1109.5,-131.5 1150.5,-131.5 1150.5,-112.5 1109.5,-112.5"/>
<text text-anchor="middle" x="1130" y="-119.5" font-family="Arial" font-size="10.00">string</text>
</a>
</g>
</g>
<!-- Node1&#45;&gt;Node3 -->
<g id="edge63" class="edge">
<title>Node1&#45;&gt;Node3</title>
<path fill="none" stroke="midnightblue" d="M1317.4,-403.46C1343.32,-381.82 1379,-344.34 1379,-302 1379,-302 1379,-302 1379,-238.5 1379,-206.05 1383.74,-190.13 1360,-168 1331.48,-141.41 1216.76,-129.41 1160.89,-125.06"/>
<polygon fill="midnightblue" stroke="midnightblue" points="1161.09,-121.57 1150.86,-124.31 1160.57,-128.55 1161.09,-121.57"/>
</g>
<!-- Node5 -->
<g id="node5" class="node">
<title>Node5</title>
<g id="a_node5"><a xlink:href="input_8h.html" target="_top" xlink:title=" ">
<polygon fill="none" stroke="black" points="1172,-230 1172,-249 1234,-249 1234,-230 1172,-230"/>
<text text-anchor="middle" x="1203" y="-237" font-family="Arial" font-size="10.00">inp/input.h</text>
</a>
</g>
</g>
<!-- Node1&#45;&gt;Node5 -->
<g id="edge4" class="edge">
<title>Node1&#45;&gt;Node5</title>
<path fill="none" stroke="midnightblue" d="M1281.58,-403.47C1264.38,-367.8 1228.14,-292.65 1211.58,-258.3"/>
<polygon fill="midnightblue" stroke="midnightblue" points="1214.62,-256.53 1207.12,-249.04 1208.31,-259.57 1214.62,-256.53"/>
</g>
<!-- Node7 -->
<g id="node7" class="node">
<title>Node7</title>
<g id="a_node7"><a xlink:href="demModel_8h.html" target="_top" xlink:title=" ">
<polygon fill="none" stroke="black" points="815.5,-347.5 815.5,-366.5 936.5,-366.5 936.5,-347.5 815.5,-347.5"/>
<text text-anchor="middle" x="876" y="-354.5" font-family="Arial" font-size="10.00">model/dem/demModel.h</text>
</a>
</g>
</g>
<!-- Node1&#45;&gt;Node7 -->
<g id="edge8" class="edge">
<title>Node1&#45;&gt;Node7</title>
<path fill="none" stroke="midnightblue" d="M1231.1,-413.62C1153.82,-401.51 1019.91,-380.54 940.48,-368.1"/>
<polygon fill="midnightblue" stroke="midnightblue" points="941.01,-364.64 930.59,-366.55 939.93,-371.56 941.01,-364.64"/>
</g>
<!-- Node11 -->
<g id="node11" class="node">
<title>Node11</title>
<g id="a_node11"><a xlink:href="io_8h.html" target="_top" xlink:title=" ">
<polygon fill="none" stroke="red" points="833,-112.5 833,-131.5 881,-131.5 881,-112.5 833,-112.5"/>
<text text-anchor="middle" x="857" y="-119.5" font-family="Arial" font-size="10.00">util/io.h</text>
</a>
</g>
</g>
<!-- Node1&#45;&gt;Node11 -->
<g id="edge60" class="edge">
<title>Node1&#45;&gt;Node11</title>
<path fill="none" stroke="midnightblue" d="M1231.4,-412.31C1173.73,-398.13 1095,-366.88 1095,-302 1095,-302 1095,-302 1095,-238.5 1095,-149.1 957.39,-128.87 891.44,-124.32"/>
<polygon fill="midnightblue" stroke="midnightblue" points="891.32,-120.8 881.13,-123.69 890.9,-127.79 891.32,-120.8"/>
</g>
<!-- Node20 -->
<g id="node13" class="node">
<title>Node20</title>
<g id="a_node13"><a xlink:title=" ">
<polygon fill="none" stroke="#bfbfbf" points="891,-56.5 891,-75.5 941,-75.5 941,-56.5 891,-56.5"/>
<text text-anchor="middle" x="916" y="-63.5" font-family="Arial" font-size="10.00">fstream</text>
</a>
</g>
</g>
<!-- Node1&#45;&gt;Node20 -->
<g id="edge62" class="edge">
<title>Node1&#45;&gt;Node20</title>
<path fill="none" stroke="midnightblue" d="M1350.51,-413.33C1410.1,-399.85 1493,-369.04 1493,-302 1493,-302 1493,-302 1493,-238.5 1493,-124.9 1076.83,-80.56 951.38,-69.77"/>
<polygon fill="midnightblue" stroke="midnightblue" points="951.42,-66.26 941.16,-68.91 950.84,-73.24 951.42,-66.26"/>
</g>
<!-- Node39 -->
<g id="node21" class="node">
<title>Node39</title>
<g id="a_node21"><a xlink:href="methods_8h.html" target="_top" xlink:title=" ">
<polygon fill="none" stroke="red" points="0,-112.5 0,-131.5 78,-131.5 78,-112.5 0,-112.5"/>
<text text-anchor="middle" x="39" y="-119.5" font-family="Arial" font-size="10.00">util/methods.h</text>
</a>
</g>
</g>
<!-- Node1&#45;&gt;Node39 -->
<g id="edge59" class="edge">
<title>Node1&#45;&gt;Node39</title>
<path fill="none" stroke="midnightblue" d="M1231.13,-423.31C988.6,-423.8 92,-417.79 92,-302 92,-302 92,-302 92,-238.5 92,-200.47 67.97,-161.29 52.27,-139.75"/>
<polygon fill="midnightblue" stroke="midnightblue" points="54.97,-137.52 46.15,-131.65 49.39,-141.74 54.97,-137.52"/>
</g>
<!-- Node47 -->
<g id="node27" class="node">
<title>Node47</title>
<g id="a_node27"><a xlink:href="outputDeck_8h.html" target="_top" xlink:title=" ">
<polygon fill="none" stroke="black" points="1231,-168.5 1231,-187.5 1351,-187.5 1351,-168.5 1231,-168.5"/>
<text text-anchor="middle" x="1291" y="-175.5" font-family="Arial" font-size="10.00">inp/decks/outputDeck.h</text>
</a>
</g>
</g>
<!-- Node1&#45;&gt;Node47 -->
<g id="edge55" class="edge">
<title>Node1&#45;&gt;Node47</title>
<path fill="none" stroke="midnightblue" d="M1291,-403.44C1291,-357.46 1291,-242.96 1291,-197.77"/>
<polygon fill="midnightblue" stroke="midnightblue" points="1294.5,-197.64 1291,-187.64 1287.5,-197.64 1294.5,-197.64"/>
</g>
<!-- Node48 -->
<g id="node28" class="node">
<title>Node48</title>
<g id="a_node28"><a xlink:title=" ">
<polygon fill="none" stroke="#bfbfbf" points="1559,-347.5 1559,-366.5 1629,-366.5 1629,-347.5 1559,-347.5"/>
<text text-anchor="middle" x="1594" y="-354.5" font-family="Arial" font-size="10.00">fmt/format.h</text>
</a>
</g>
</g>
<!-- Node1&#45;&gt;Node48 -->
<g id="edge61" class="edge">
<title>Node1&#45;&gt;Node48</title>
<path fill="none" stroke="midnightblue" d="M1350.5,-410.24C1408.67,-397.76 1495.96,-379.03 1548.7,-367.72"/>
<polygon fill="midnightblue" stroke="midnightblue" points="1549.72,-371.08 1558.77,-365.56 1548.25,-364.23 1549.72,-371.08"/>
</g>
<!-- Node2&#45;&gt;Node3 -->
<g id="edge2" class="edge">
<title>Node2&#45;&gt;Node3</title>
<path fill="none" stroke="midnightblue" d="M1520.71,-171.17C1430.68,-160.07 1236.91,-136.18 1161.21,-126.85"/>
<polygon fill="midnightblue" stroke="midnightblue" points="1161.27,-123.33 1150.92,-125.58 1160.42,-130.28 1161.27,-123.33"/>
</g>
<!-- Node4 -->
<g id="node4" class="node">
<title>Node4</title>
<g id="a_node4"><a xlink:title=" ">
<polygon fill="none" stroke="#bfbfbf" points="756,-0.5 756,-19.5 800,-19.5 800,-0.5 756,-0.5"/>
<text text-anchor="middle" x="778" y="-7.5" font-family="Arial" font-size="10.00">vector</text>
</a>
</g>
</g>
<!-- Node2&#45;&gt;Node4 -->
<g id="edge3" class="edge">
<title>Node2&#45;&gt;Node4</title>
<path fill="none" stroke="midnightblue" d="M1564,-168.22C1552.86,-144.95 1518.96,-81.7 1469,-56 1409.99,-25.65 938.76,-14.18 810.27,-11.6"/>
<polygon fill="midnightblue" stroke="midnightblue" points="810.32,-8.1 800.26,-11.4 810.19,-15.1 810.32,-8.1"/>
</g>
<!-- Node5&#45;&gt;Node3 -->
<g id="edge5" class="edge">
<title>Node5&#45;&gt;Node3</title>
<path fill="none" stroke="midnightblue" d="M1202.32,-229.57C1200.89,-215.47 1196.58,-187.64 1184,-168 1176.11,-155.67 1163.76,-145.02 1152.86,-137.18"/>
<polygon fill="midnightblue" stroke="midnightblue" points="1154.78,-134.25 1144.54,-131.51 1150.84,-140.04 1154.78,-134.25"/>
</g>
<!-- Node5&#45;&gt;Node4 -->
<g id="edge6" class="edge">
<title>Node5&#45;&gt;Node4</title>
<path fill="none" stroke="midnightblue" d="M1234.25,-234.85C1268.21,-229.53 1322.63,-216.91 1360,-188 1412.69,-147.24 1476.46,-104.7 1431,-56 1388.34,-10.29 936.4,-9.92 810.43,-10.71"/>
<polygon fill="midnightblue" stroke="midnightblue" points="810.24,-7.21 800.27,-10.78 810.29,-14.21 810.24,-7.21"/>
</g>
<!-- Node6 -->
<g id="node6" class="node">
<title>Node6</title>
<g id="a_node6"><a xlink:title=" ">
<polygon fill="none" stroke="#bfbfbf" points="1123,-168.5 1123,-187.5 1175,-187.5 1175,-168.5 1123,-168.5"/>
<text text-anchor="middle" x="1149" y="-175.5" font-family="Arial" font-size="10.00">memory</text>
</a>
</g>
</g>
<!-- Node5&#45;&gt;Node6 -->
<g id="edge7" class="edge">
<title>Node5&#45;&gt;Node6</title>
<path fill="none" stroke="midnightblue" d="M1195.26,-229.98C1187,-220.87 1173.72,-206.24 1163.51,-194.98"/>
<polygon fill="midnightblue" stroke="midnightblue" points="1166.03,-192.56 1156.72,-187.51 1160.85,-197.27 1166.03,-192.56"/>
</g>
<!-- Node8 -->
<g id="node8" class="node">
<title>Node8</title>
<g id="a_node8"><a xlink:href="modelData_8h.html" target="_top" xlink:title=" ">
<polygon fill="none" stroke="black" points="637.5,-291.5 637.5,-310.5 718.5,-310.5 718.5,-291.5 637.5,-291.5"/>
<text text-anchor="middle" x="678" y="-298.5" font-family="Arial" font-size="10.00">../modelData.h</text>
</a>
</g>
</g>
<!-- Node7&#45;&gt;Node8 -->
<g id="edge9" class="edge">
<title>Node7&#45;&gt;Node8</title>
<path fill="none" stroke="midnightblue" d="M844.63,-347.44C810.74,-338.2 756.6,-323.44 719.28,-313.26"/>
<polygon fill="midnightblue" stroke="midnightblue" points="719.8,-309.77 709.23,-310.52 717.95,-316.52 719.8,-309.77"/>
</g>
<!-- Node8&#45;&gt;Node4 -->
<g id="edge54" class="edge">
<title>Node8&#45;&gt;Node4</title>
<path fill="none" stroke="midnightblue" d="M718.86,-298.5C831.29,-294.11 1143.5,-279.95 1243,-255 1324.86,-234.48 1417,-263.39 1417,-179 1417,-179 1417,-179 1417,-121 1417,-58.8 940.63,-22 810.5,-13.11"/>
<polygon fill="midnightblue" stroke="midnightblue" points="810.58,-9.61 800.37,-12.43 810.11,-16.6 810.58,-9.61"/>
</g>
<!-- Node8&#45;&gt;Node5 -->
<g id="edge30" class="edge">
<title>Node8&#45;&gt;Node5</title>
<path fill="none" stroke="midnightblue" d="M718.76,-295.38C816.5,-284.3 1063.41,-256.32 1161.7,-245.18"/>
<polygon fill="midnightblue" stroke="midnightblue" points="1162.3,-248.64 1171.84,-244.03 1161.51,-241.68 1162.3,-248.64"/>
</g>
<!-- Node9 -->
<g id="node9" class="node">
<title>Node9</title>
<g id="a_node9"><a xlink:href="material_8h.html" target="_top" xlink:title=" ">
<polygon fill="none" stroke="black" points="696,-224.5 696,-254.5 790,-254.5 790,-224.5 696,-224.5"/>
<text text-anchor="start" x="704" y="-242.5" font-family="Arial" font-size="10.00">material/mparticle</text>
<text text-anchor="middle" x="743" y="-231.5" font-family="Arial" font-size="10.00">/material.h</text>
</a>
</g>
</g>
<!-- Node8&#45;&gt;Node9 -->
<g id="edge10" class="edge">
<title>Node8&#45;&gt;Node9</title>
<path fill="none" stroke="midnightblue" d="M687.31,-291.48C695.87,-283.64 708.9,-271.71 720.21,-261.37"/>
<polygon fill="midnightblue" stroke="midnightblue" points="722.67,-263.86 727.68,-254.52 717.94,-258.69 722.67,-263.86"/>
</g>
<!-- Node26 -->
<g id="node17" class="node">
<title>Node26</title>
<g id="a_node17"><a xlink:href="particleFLoading_8h.html" target="_top" xlink:title=" ">
<polygon fill="none" stroke="black" points="398,-230 398,-249 528,-249 528,-230 398,-230"/>
<text text-anchor="middle" x="463" y="-237" font-family="Arial" font-size="10.00">loading/particleFLoading.h</text>
</a>
</g>
</g>
<!-- Node8&#45;&gt;Node26 -->
<g id="edge31" class="edge">
<title>Node8&#45;&gt;Node26</title>
<path fill="none" stroke="midnightblue" d="M647.2,-291.48C609.44,-281.03 545.34,-263.29 503.59,-251.73"/>
<polygon fill="midnightblue" stroke="midnightblue" points="504.32,-248.3 493.75,-249.01 502.45,-255.05 504.32,-248.3"/>
</g>
<!-- Node37 -->
<g id="node19" class="node">
<title>Node37</title>
<g id="a_node19"><a xlink:href="particleULoading_8h.html" target="_top" xlink:title=" ">
<polygon fill="none" stroke="black" points="546.5,-230 546.5,-249 677.5,-249 677.5,-230 546.5,-230"/>
<text text-anchor="middle" x="612" y="-237" font-family="Arial" font-size="10.00">loading/particleULoading.h</text>
</a>
</g>
</g>
<!-- Node8&#45;&gt;Node37 -->
<g id="edge36" class="edge">
<title>Node8&#45;&gt;Node37</title>
<path fill="none" stroke="midnightblue" d="M668.54,-291.48C658.25,-282.2 641.58,-267.17 629.01,-255.83"/>
<polygon fill="midnightblue" stroke="midnightblue" points="631.21,-253.11 621.44,-249.01 626.52,-258.3 631.21,-253.11"/>
</g>
<!-- Node38 -->
<g id="node20" class="node">
<title>Node38</title>
<g id="a_node20"><a xlink:href="nsearch_8h.html" target="_top" xlink:title=" ">
<polygon fill="none" stroke="black" points="321.5,-168.5 321.5,-187.5 418.5,-187.5 418.5,-168.5 321.5,-168.5"/>
<text text-anchor="middle" x="370" y="-175.5" font-family="Arial" font-size="10.00">nsearch/nsearch.h</text>
</a>
</g>
</g>
<!-- Node8&#45;&gt;Node38 -->
<g id="edge39" class="edge">
<title>Node8&#45;&gt;Node38</title>
<path fill="none" stroke="midnightblue" d="M637.38,-299.06C566.56,-296.56 424.62,-287.53 389,-255 373.18,-240.55 369.64,-215.12 369.25,-197.68"/>
<polygon fill="midnightblue" stroke="midnightblue" points="372.75,-197.61 369.35,-187.57 365.75,-197.54 372.75,-197.61"/>
</g>
<!-- Node44 -->
<g id="node24" class="node">
<title>Node44</title>
<g id="a_node24"><a xlink:href="fracture_8h.html" target="_top" xlink:title=" ">
<polygon fill="none" stroke="black" points="134.5,-112.5 134.5,-131.5 235.5,-131.5 235.5,-112.5 134.5,-112.5"/>
<text text-anchor="middle" x="185" y="-119.5" font-family="Arial" font-size="10.00">geometry/fracture.h</text>
</a>
</g>
</g>
<!-- Node8&#45;&gt;Node44 -->
<g id="edge49" class="edge">
<title>Node8&#45;&gt;Node44</title>
<path fill="none" stroke="midnightblue" d="M637.41,-300.13C576.79,-299.01 460,-291.71 369,-255 299.35,-226.9 231.18,-167.23 201.08,-138.76"/>
<polygon fill="midnightblue" stroke="midnightblue" points="203.26,-136 193.62,-131.61 198.42,-141.05 203.26,-136"/>
</g>
<!-- Node9&#45;&gt;Node3 -->
<g id="edge28" class="edge">
<title>Node9&#45;&gt;Node3</title>
<path fill="none" stroke="midnightblue" d="M790.25,-236.82C850.03,-233.28 955.18,-222.27 1038,-188 1067.04,-175.98 1095.87,-153.44 1113.32,-138.32"/>
<polygon fill="midnightblue" stroke="midnightblue" points="1115.76,-140.83 1120.92,-131.57 1111.12,-135.6 1115.76,-140.83"/>
</g>
<!-- Node9&#45;&gt;Node4 -->
<g id="edge29" class="edge">
<title>Node9&#45;&gt;Node4</title>
<path fill="none" stroke="midnightblue" d="M721.3,-224.47C709.66,-215.58 696.41,-202.95 690,-188 686.5,-179.83 687.75,-176.6 690,-168 704.61,-112.05 744.09,-54.94 764.84,-27.59"/>
<polygon fill="midnightblue" stroke="midnightblue" points="767.75,-29.55 771.1,-19.5 762.21,-25.27 767.75,-29.55"/>
</g>
<!-- Node9&#45;&gt;Node6 -->
<g id="edge27" class="edge">
<title>Node9&#45;&gt;Node6</title>
<path fill="none" stroke="midnightblue" d="M790.37,-231.56C872.31,-219.55 1038.8,-195.15 1112.5,-184.35"/>
<polygon fill="midnightblue" stroke="midnightblue" points="1113.29,-187.77 1122.68,-182.86 1112.27,-180.85 1113.29,-187.77"/>
</g>
<!-- Node10 -->
<g id="node10" class="node">
<title>Node10</title>
<g id="a_node10"><a xlink:href="influenceFn_8h.html" target="_top" xlink:title=" ">
<polygon fill="none" stroke="red" points="699.5,-168.5 699.5,-187.5 774.5,-187.5 774.5,-168.5 699.5,-168.5"/>
<text text-anchor="middle" x="737" y="-175.5" font-family="Arial" font-size="10.00">influenceFn.h</text>
</a>
</g>
</g>
<!-- Node9&#45;&gt;Node10 -->
<g id="edge11" class="edge">
<title>Node9&#45;&gt;Node10</title>
<path fill="none" stroke="midnightblue" d="M741.58,-224.4C740.78,-216.47 739.77,-206.46 738.9,-197.86"/>
<polygon fill="midnightblue" stroke="midnightblue" points="742.36,-197.26 737.87,-187.66 735.39,-197.96 742.36,-197.26"/>
</g>
<!-- Node12 -->
<g id="node12" class="node">
<title>Node12</title>
<g id="a_node12"><a xlink:href="point_8h.html" target="_top" xlink:title=" ">
<polygon fill="none" stroke="red" points="457,-56.5 457,-75.5 503,-75.5 503,-56.5 457,-56.5"/>
<text text-anchor="middle" x="480" y="-63.5" font-family="Arial" font-size="10.00">point.h</text>
</a>
</g>
</g>
<!-- Node9&#45;&gt;Node12 -->
<g id="edge25" class="edge">
<title>Node9&#45;&gt;Node12</title>
<path fill="none" stroke="midnightblue" d="M695.78,-226.44C656.24,-215.79 603.39,-200.12 585,-188 542.6,-160.06 507.27,-110.42 490.49,-84.25"/>
<polygon fill="midnightblue" stroke="midnightblue" points="493.45,-82.38 485.17,-75.76 487.51,-86.09 493.45,-82.38"/>
</g>
<!-- Node23 -->
<g id="node14" class="node">
<title>Node23</title>
<g id="a_node14"><a xlink:href="materialDeck_8h.html" target="_top" xlink:title=" ">
<polygon fill="none" stroke="red" points="793,-168.5 793,-187.5 921,-187.5 921,-168.5 793,-168.5"/>
<text text-anchor="middle" x="857" y="-175.5" font-family="Arial" font-size="10.00">inp/decks/materialDeck.h</text>
</a>
</g>
</g>
<!-- Node9&#45;&gt;Node23 -->
<g id="edge18" class="edge">
<title>Node9&#45;&gt;Node23</title>
<path fill="none" stroke="midnightblue" d="M770.02,-224.4C788.63,-214.68 813.21,-201.86 831.49,-192.31"/>
<polygon fill="midnightblue" stroke="midnightblue" points="833.17,-195.39 840.41,-187.66 829.93,-189.18 833.17,-195.39"/>
</g>
<!-- Node24 -->
<g id="node15" class="node">
<title>Node24</title>
<g id="a_node15"><a xlink:href="function_8h.html" target="_top" xlink:title=" ">
<polygon fill="none" stroke="black" points="565.5,-112.5 565.5,-131.5 640.5,-131.5 640.5,-112.5 565.5,-112.5"/>
<text text-anchor="middle" x="603" y="-119.5" font-family="Arial" font-size="10.00">util/function.h</text>
</a>
</g>
</g>
<!-- Node9&#45;&gt;Node24 -->
<g id="edge22" class="edge">
<title>Node9&#45;&gt;Node24</title>
<path fill="none" stroke="midnightblue" d="M695.79,-225.48C654.52,-213.62 600.23,-196.68 594,-188 584.37,-174.57 588.54,-155.5 593.97,-141.48"/>
<polygon fill="midnightblue" stroke="midnightblue" points="597.34,-142.49 598.15,-131.93 590.93,-139.69 597.34,-142.49"/>
</g>
<!-- Node25 -->
<g id="node16" class="node">
<title>Node25</title>
<g id="a_node16"><a xlink:title=" ">
<polygon fill="none" stroke="#bfbfbf" points="603,-168.5 603,-187.5 643,-187.5 643,-168.5 603,-168.5"/>
<text text-anchor="middle" x="623" y="-175.5" font-family="Arial" font-size="10.00">limits</text>
</a>
</g>
</g>
<!-- Node9&#45;&gt;Node25 -->
<g id="edge26" class="edge">
<title>Node9&#45;&gt;Node25</title>
<path fill="none" stroke="midnightblue" d="M714.56,-224.4C694.88,-214.64 668.86,-201.74 649.59,-192.18"/>
<polygon fill="midnightblue" stroke="midnightblue" points="650.98,-188.96 640.46,-187.66 647.87,-195.24 650.98,-188.96"/>
</g>
<!-- Node10&#45;&gt;Node4 -->
<g id="edge17" class="edge">
<title>Node10&#45;&gt;Node4</title>
<path fill="none" stroke="midnightblue" d="M739.2,-168.08C745.66,-141.95 764.61,-65.21 773.41,-29.58"/>
<polygon fill="midnightblue" stroke="midnightblue" points="776.88,-30.12 775.88,-19.57 770.09,-28.44 776.88,-30.12"/>
</g>
<!-- Node10&#45;&gt;Node11 -->
<g id="edge12" class="edge">
<title>Node10&#45;&gt;Node11</title>
<path fill="none" stroke="midnightblue" d="M756.01,-168.44C775.59,-159.64 806.31,-145.81 828.73,-135.72"/>
<polygon fill="midnightblue" stroke="midnightblue" points="830.39,-138.81 838.07,-131.52 827.52,-132.43 830.39,-138.81"/>
</g>
<!-- Node11&#45;&gt;Node4 -->
<g id="edge16" class="edge">
<title>Node11&#45;&gt;Node4</title>
<path fill="none" stroke="midnightblue" d="M850.8,-112.37C837.76,-94.22 807.3,-51.8 790.2,-27.99"/>
<polygon fill="midnightblue" stroke="midnightblue" points="792.85,-25.67 784.17,-19.59 787.16,-29.76 792.85,-25.67"/>
</g>
<!-- Node11&#45;&gt;Node12 -->
<g id="edge13" class="edge">
<title>Node11&#45;&gt;Node12</title>
<path fill="none" stroke="midnightblue" d="M832.84,-117.54C767.79,-108.22 588.77,-82.58 513.76,-71.84"/>
<polygon fill="midnightblue" stroke="midnightblue" points="513.87,-68.32 503.47,-70.36 512.87,-75.24 513.87,-68.32"/>
</g>
<!-- Node11&#45;&gt;Node20 -->
<g id="edge15" class="edge">
<title>Node11&#45;&gt;Node20</title>
<path fill="none" stroke="midnightblue" d="M866.48,-112.32C875.2,-104.34 888.34,-92.31 898.9,-82.65"/>
<polygon fill="midnightblue" stroke="midnightblue" points="901.33,-85.17 906.35,-75.83 896.61,-80 901.33,-85.17"/>
</g>
<!-- Node12&#45;&gt;Node4 -->
<g id="edge14" class="edge">
<title>Node12&#45;&gt;Node4</title>
<path fill="none" stroke="midnightblue" d="M503.38,-60.76C556.32,-51.17 685.42,-27.78 745.84,-16.83"/>
<polygon fill="midnightblue" stroke="midnightblue" points="746.73,-20.22 755.94,-15 745.48,-13.34 746.73,-20.22"/>
</g>
<!-- Node23&#45;&gt;Node3 -->
<g id="edge20" class="edge">
<title>Node23&#45;&gt;Node3</title>
<path fill="none" stroke="midnightblue" d="M900.26,-168.44C955.87,-157.44 1051.02,-138.62 1099.57,-129.02"/>
<polygon fill="midnightblue" stroke="midnightblue" points="1100.34,-132.44 1109.47,-127.06 1098.98,-125.57 1100.34,-132.44"/>
</g>
<!-- Node23&#45;&gt;Node4 -->
<g id="edge21" class="edge">
<title>Node23&#45;&gt;Node4</title>
<path fill="none" stroke="midnightblue" d="M849.41,-168.18C842.17,-159.44 831.31,-145.45 824,-132 805.19,-97.41 790.59,-53.51 783.24,-29.23"/>
<polygon fill="midnightblue" stroke="midnightblue" points="786.57,-28.16 780.38,-19.56 779.86,-30.14 786.57,-28.16"/>
</g>
<!-- Node23&#45;&gt;Node11 -->
<g id="edge19" class="edge">
<title>Node23&#45;&gt;Node11</title>
<path fill="none" stroke="midnightblue" d="M857,-168.08C857,-161.01 857,-150.86 857,-141.99"/>
<polygon fill="midnightblue" stroke="midnightblue" points="860.5,-141.75 857,-131.75 853.5,-141.75 860.5,-141.75"/>
</g>
<!-- Node24&#45;&gt;Node4 -->
<g id="edge24" class="edge">
<title>Node24&#45;&gt;Node4</title>
<path fill="none" stroke="midnightblue" d="M608.19,-112.17C616.72,-98.36 634.98,-71.61 657,-56 684,-36.86 720.1,-24.83 745.83,-18.07"/>
<polygon fill="midnightblue" stroke="midnightblue" points="746.97,-21.4 755.82,-15.58 745.27,-14.6 746.97,-21.4"/>
</g>
<!-- Node24&#45;&gt;Node12 -->
<g id="edge23" class="edge">
<title>Node24&#45;&gt;Node12</title>
<path fill="none" stroke="midnightblue" d="M583.51,-112.44C563.36,-103.6 531.68,-89.69 508.67,-79.59"/>
<polygon fill="midnightblue" stroke="midnightblue" points="509.96,-76.33 499.4,-75.52 507.15,-82.74 509.96,-76.33"/>
</g>
<!-- Node26&#45;&gt;Node12 -->
<g id="edge35" class="edge">
<title>Node26&#45;&gt;Node12</title>
<path fill="none" stroke="midnightblue" d="M463.87,-229.76C466.5,-203.15 474.48,-122.71 478.13,-85.84"/>
<polygon fill="midnightblue" stroke="midnightblue" points="481.65,-85.82 479.16,-75.52 474.69,-85.13 481.65,-85.82"/>
</g>
<!-- Node27 -->
<g id="node18" class="node">
<title>Node27</title>
<g id="a_node18"><a xlink:href="particleLoading_8h.html" target="_top" xlink:title=" ">
<polygon fill="none" stroke="red" points="939,-168.5 939,-187.5 1029,-187.5 1029,-168.5 939,-168.5"/>
<text text-anchor="middle" x="984" y="-175.5" font-family="Arial" font-size="10.00">particleLoading.h</text>
</a>
</g>
</g>
<!-- Node26&#45;&gt;Node27 -->
<g id="edge32" class="edge">
<title>Node26&#45;&gt;Node27</title>
<path fill="none" stroke="midnightblue" d="M502.43,-230C513.57,-227.81 525.73,-225.62 537,-224 707.4,-199.57 754.31,-210.02 928.91,-188.04"/>
<polygon fill="midnightblue" stroke="midnightblue" points="929.48,-191.5 938.96,-186.76 928.59,-184.56 929.48,-191.5"/>
</g>
<!-- Node27&#45;&gt;Node3 -->
<g id="edge33" class="edge">
<title>Node27&#45;&gt;Node3</title>
<path fill="none" stroke="midnightblue" d="M1007.13,-168.44C1032.2,-159.17 1072.29,-144.35 1099.81,-134.17"/>
<polygon fill="midnightblue" stroke="midnightblue" points="1101.17,-137.4 1109.33,-130.64 1098.74,-130.83 1101.17,-137.4"/>
</g>
<!-- Node27&#45;&gt;Node4 -->
<g id="edge34" class="edge">
<title>Node27&#45;&gt;Node4</title>
<path fill="none" stroke="midnightblue" d="M984.29,-168.24C984.52,-146.08 981.91,-87.34 950,-56 912.46,-19.13 848.65,-11.41 810.2,-10.37"/>
<polygon fill="midnightblue" stroke="midnightblue" points="810.11,-6.86 800.07,-10.23 810.02,-13.86 810.11,-6.86"/>
</g>
<!-- Node37&#45;&gt;Node12 -->
<g id="edge38" class="edge">
<title>Node37&#45;&gt;Node12</title>
<path fill="none" stroke="midnightblue" d="M586.87,-229.87C567.01,-221.87 539.9,-208.14 523,-188 497.65,-157.79 486.8,-111.55 482.52,-85.86"/>
<polygon fill="midnightblue" stroke="midnightblue" points="485.93,-85.01 480.98,-75.64 479.01,-86.05 485.93,-85.01"/>
</g>
<!-- Node37&#45;&gt;Node27 -->
<g id="edge37" class="edge">
<title>Node37&#45;&gt;Node27</title>
<path fill="none" stroke="midnightblue" d="M654.38,-229.97C665.01,-227.92 676.41,-225.81 687,-224 791.47,-206.17 820.47,-205.03 928.89,-188.15"/>
<polygon fill="midnightblue" stroke="midnightblue" points="929.59,-191.58 938.93,-186.57 928.51,-184.66 929.59,-191.58"/>
</g>
<!-- Node38&#45;&gt;Node3 -->
<g id="edge45" class="edge">
<title>Node38&#45;&gt;Node3</title>
<path fill="none" stroke="midnightblue" d="M418.7,-173.54C562.46,-163.33 982.26,-133.5 1099.36,-125.18"/>
<polygon fill="midnightblue" stroke="midnightblue" points="1099.69,-128.66 1109.42,-124.46 1099.2,-121.68 1099.69,-128.66"/>
</g>
<!-- Node38&#45;&gt;Node4 -->
<g id="edge46" class="edge">
<title>Node38&#45;&gt;Node4</title>
<path fill="none" stroke="midnightblue" d="M321.4,-175.19C257.24,-171.66 149.5,-161.41 125,-132 110.89,-115.07 116.79,-74.1 138,-56 184.47,-16.35 621.29,-11.61 745.31,-11.06"/>
<polygon fill="midnightblue" stroke="midnightblue" points="745.68,-14.56 755.66,-11.03 745.65,-7.56 745.68,-14.56"/>
</g>
<!-- Node38&#45;&gt;Node12 -->
<g id="edge40" class="edge">
<title>Node38&#45;&gt;Node12</title>
<path fill="none" stroke="midnightblue" d="M378.63,-168.37C397.11,-149.89 440.71,-106.29 464.26,-82.74"/>
<polygon fill="midnightblue" stroke="midnightblue" points="466.81,-85.14 471.41,-75.59 461.86,-80.19 466.81,-85.14"/>
</g>
<!-- Node38&#45;&gt;Node39 -->
<g id="edge41" class="edge">
<title>Node38&#45;&gt;Node39</title>
<path fill="none" stroke="midnightblue" d="M321.27,-169.23C265.75,-160.35 172.31,-145.32 92,-132 90.73,-131.79 89.45,-131.58 88.15,-131.36"/>
<polygon fill="midnightblue" stroke="midnightblue" points="88.51,-127.87 78.07,-129.67 87.35,-134.77 88.51,-127.87"/>
</g>
<!-- Node41 -->
<g id="node22" class="node">
<title>Node41</title>
<g id="a_node22"><a xlink:title=" ">
<polygon fill="none" stroke="#bfbfbf" points="349,-112.5 349,-131.5 395,-131.5 395,-112.5 349,-112.5"/>
<text text-anchor="middle" x="372" y="-119.5" font-family="Arial" font-size="10.00">cstdint</text>
</a>
</g>
</g>
<!-- Node38&#45;&gt;Node41 -->
<g id="edge44" class="edge">
<title>Node38&#45;&gt;Node41</title>
<path fill="none" stroke="midnightblue" d="M370.33,-168.08C370.59,-161.01 370.97,-150.86 371.3,-141.99"/>
<polygon fill="midnightblue" stroke="midnightblue" points="374.8,-141.87 371.68,-131.75 367.81,-141.61 374.8,-141.87"/>
</g>
<!-- Node42 -->
<g id="node23" class="node">
<title>Node42</title>
<g id="a_node23"><a xlink:href="nflannSetup_8h.html" target="_top" xlink:title=" ">
<polygon fill="none" stroke="red" points="253.5,-112.5 253.5,-131.5 330.5,-131.5 330.5,-112.5 253.5,-112.5"/>
<text text-anchor="middle" x="292" y="-119.5" font-family="Arial" font-size="10.00">nflannSetup.h</text>
</a>
</g>
</g>
<!-- Node38&#45;&gt;Node42 -->
<g id="edge47" class="edge">
<title>Node38&#45;&gt;Node42</title>
<path fill="none" stroke="midnightblue" d="M357.47,-168.32C345.41,-159.98 326.97,-147.21 312.73,-137.35"/>
<polygon fill="midnightblue" stroke="midnightblue" points="314.72,-134.47 304.5,-131.65 310.73,-140.22 314.72,-134.47"/>
</g>
<!-- Node39&#45;&gt;Node4 -->
<g id="edge43" class="edge">
<title>Node39&#45;&gt;Node4</title>
<path fill="none" stroke="midnightblue" d="M43.08,-112.33C50.49,-97.72 67.67,-68.55 92,-56 150.49,-25.83 617.45,-14.24 745.58,-11.61"/>
<polygon fill="midnightblue" stroke="midnightblue" points="745.97,-15.11 755.9,-11.41 745.83,-8.11 745.97,-15.11"/>
</g>
<!-- Node39&#45;&gt;Node12 -->
<g id="edge42" class="edge">
<title>Node39&#45;&gt;Node12</title>
<path fill="none" stroke="midnightblue" d="M78.14,-116.21C163.88,-105.71 367,-80.84 446.9,-71.05"/>
<polygon fill="midnightblue" stroke="midnightblue" points="447.39,-74.52 456.89,-69.83 446.54,-67.57 447.39,-74.52"/>
</g>
<!-- Node42&#45;&gt;Node12 -->
<g id="edge48" class="edge">
<title>Node42&#45;&gt;Node12</title>
<path fill="none" stroke="midnightblue" d="M321.79,-112.44C355.9,-102.65 411.63,-86.64 447.02,-76.47"/>
<polygon fill="midnightblue" stroke="midnightblue" points="448.22,-79.77 456.87,-73.64 446.29,-73.04 448.22,-79.77"/>
</g>
<!-- Node44&#45;&gt;Node4 -->
<g id="edge53" class="edge">
<title>Node44&#45;&gt;Node4</title>
<path fill="none" stroke="midnightblue" d="M215.14,-112.43C263.78,-98.86 362.77,-72.3 448,-56 556.27,-35.3 686.28,-20.48 745.62,-14.25"/>
<polygon fill="midnightblue" stroke="midnightblue" points="746.27,-17.71 755.85,-13.19 745.55,-10.74 746.27,-17.71"/>
</g>
<!-- Node44&#45;&gt;Node12 -->
<g id="edge50" class="edge">
<title>Node44&#45;&gt;Node12</title>
<path fill="none" stroke="midnightblue" d="M231.74,-112.44C291.63,-101.48 393.96,-82.75 446.58,-73.12"/>
<polygon fill="midnightblue" stroke="midnightblue" points="447.51,-76.51 456.72,-71.26 446.25,-69.62 447.51,-76.51"/>
</g>
<!-- Node45 -->
<g id="node25" class="node">
<title>Node45</title>
<g id="a_node25"><a xlink:title=" ">
<polygon fill="none" stroke="#bfbfbf" points="147.5,-56.5 147.5,-75.5 196.5,-75.5 196.5,-56.5 147.5,-56.5"/>
<text text-anchor="middle" x="172" y="-63.5" font-family="Arial" font-size="10.00">stdint.h</text>
</a>
</g>
</g>
<!-- Node44&#45;&gt;Node45 -->
<g id="edge51" class="edge">
<title>Node44&#45;&gt;Node45</title>
<path fill="none" stroke="midnightblue" d="M182.85,-112.08C181.13,-104.93 178.65,-94.64 176.5,-85.69"/>
<polygon fill="midnightblue" stroke="midnightblue" points="179.85,-84.65 174.11,-75.75 173.04,-86.29 179.85,-84.65"/>
</g>
<!-- Node46 -->
<g id="node26" class="node">
<title>Node46</title>
<g id="a_node26"><a xlink:title=" ">
<polygon fill="none" stroke="#bfbfbf" points="214.5,-56.5 214.5,-75.5 263.5,-75.5 263.5,-56.5 214.5,-56.5"/>
<text text-anchor="middle" x="239" y="-63.5" font-family="Arial" font-size="10.00">string.h</text>
</a>
</g>
</g>
<!-- Node44&#45;&gt;Node46 -->
<g id="edge52" class="edge">
<title>Node44&#45;&gt;Node46</title>
<path fill="none" stroke="midnightblue" d="M193.92,-112.08C201.78,-104.22 213.43,-92.57 222.92,-83.08"/>
<polygon fill="midnightblue" stroke="midnightblue" points="225.65,-85.3 230.25,-75.75 220.7,-80.35 225.65,-85.3"/>
</g>
<!-- Node47&#45;&gt;Node3 -->
<g id="edge57" class="edge">
<title>Node47&#45;&gt;Node3</title>
<path fill="none" stroke="midnightblue" d="M1265.49,-168.44C1236.97,-158.88 1190.81,-143.4 1160.43,-133.21"/>
<polygon fill="midnightblue" stroke="midnightblue" points="1161.38,-129.83 1150.78,-129.97 1159.15,-136.47 1161.38,-129.83"/>
</g>
<!-- Node47&#45;&gt;Node4 -->
<g id="edge58" class="edge">
<title>Node47&#45;&gt;Node4</title>
<path fill="none" stroke="midnightblue" d="M1275.54,-168.33C1251.27,-154.96 1202.51,-129.09 1159,-112 1033.85,-62.84 876.36,-29.65 809.91,-16.87"/>
<polygon fill="midnightblue" stroke="midnightblue" points="810.52,-13.42 800.04,-14.99 809.21,-20.3 810.52,-13.42"/>
</g>
<!-- Node47&#45;&gt;Node11 -->
<g id="edge56" class="edge">
<title>Node47&#45;&gt;Node11</title>
<path fill="none" stroke="midnightblue" d="M1230.65,-169.49C1138.3,-158 964.9,-136.43 891.37,-127.28"/>
<polygon fill="midnightblue" stroke="midnightblue" points="891.62,-123.78 881.26,-126.02 890.75,-130.73 891.62,-123.78"/>
</g>
</g>
</svg>
