<?xml version="1.0" encoding="UTF-8" standalone="no"?>
<!DOCTYPE svg PUBLIC "-//W3C//DTD SVG 1.1//EN"
 "http://www.w3.org/Graphics/SVG/1.1/DTD/svg11.dtd">
<!-- Generated by graphviz version 2.43.0 (0)
 -->
<!-- Title: /home/user/project/test/test_exec/fe/testFeLib.cpp Pages: 1 -->
<svg width="968pt" height="368pt"
 viewBox="0.00 0.00 968.33 368.00" xmlns="http://www.w3.org/2000/svg" xmlns:xlink="http://www.w3.org/1999/xlink">
<g id="graph0" class="graph" transform="scale(1 1) rotate(0) translate(4 364)">
<title>/home/user/project/test/test_exec/fe/testFeLib.cpp</title>
<!-- Node1 -->
<g id="Node000001" class="node">
<title>Node1</title>
<g id="a_Node000001"><a xlink:title=" ">
<polygon fill="#999999" stroke="#666666" points="445.33,-360 290.33,-360 290.33,-330 445.33,-330 445.33,-360"/>
<text text-anchor="start" x="298.33" y="-348" font-family="Arial" font-size="10.00">/home/user/project</text>
<text text-anchor="middle" x="367.83" y="-337" font-family="Arial" font-size="10.00">/test/test_exec/fe/testFeLib.cpp</text>
</a>
</g>
</g>
<!-- Node2 -->
<g id="Node000002" class="node">
<title>Node2</title>
<g id="a_Node000002"><a xlink:href="testFeLib_8h.html" target="_top" xlink:title=" ">
<polygon fill="white" stroke="#666666" points="404.33,-184 339.33,-184 339.33,-165 404.33,-165 404.33,-184"/>
<text text-anchor="middle" x="371.83" y="-172" font-family="Arial" font-size="10.00">testFeLib.h</text>
</a>
</g>
</g>
<!-- Node1&#45;&gt;Node2 -->
<g id="edge1_Node000001_Node000002" class="edge">
<title>Node1&#45;&gt;Node2</title>
<g id="a_edge1_Node000001_Node000002"><a xlink:title=" ">
<path fill="none" stroke="#63b8ff" d="M368.16,-329.92C368.88,-299.65 370.57,-228.35 371.38,-194.27"/>
<polygon fill="#63b8ff" stroke="#63b8ff" points="374.88,-194.34 371.62,-184.25 367.88,-194.17 374.88,-194.34"/>
</a>
</g>
</g>
<!-- Node3 -->
<g id="Node000003" class="node">
<title>Node3</title>
<g id="a_Node000003"><a xlink:title=" ">
<polygon fill="#e0e0e0" stroke="#999999" points="392.33,-129 351.33,-129 351.33,-110 392.33,-110 392.33,-129"/>
<text text-anchor="middle" x="371.83" y="-117" font-family="Arial" font-size="10.00">string</text>
</a>
</g>
</g>
<!-- Node1&#45;&gt;Node3 -->
<g id="edge43_Node000001_Node000003" class="edge">
<title>Node1&#45;&gt;Node3</title>
<g id="a_edge43_Node000001_Node000003"><a xlink:title=" ">
<path fill="none" stroke="#63b8ff" d="M359.28,-329.6C342.03,-298.57 306.6,-223.46 329.83,-165 334.35,-153.63 343.3,-143.48 351.79,-135.76"/>
<polygon fill="#63b8ff" stroke="#63b8ff" points="354.24,-138.27 359.62,-129.14 349.72,-132.92 354.24,-138.27"/>
</a>
</g>
</g>
<!-- Node5 -->
<g id="Node000005" class="node">
<title>Node5</title>
<g id="a_Node000005"><a xlink:href="quadElem_8h.html" target="_top" xlink:title=" ">
<polygon fill="white" stroke="#666666" points="196.83,-294 116.83,-294 116.83,-275 196.83,-275 196.83,-294"/>
<text text-anchor="middle" x="156.83" y="-282" font-family="Arial" font-size="10.00">fe/quadElem.h</text>
</a>
</g>
</g>
<!-- Node1&#45;&gt;Node5 -->
<g id="edge4_Node000001_Node000005" class="edge">
<title>Node1&#45;&gt;Node5</title>
<g id="a_edge4_Node000001_Node000005"><a xlink:title=" ">
<path fill="none" stroke="#63b8ff" d="M317.29,-329.99C280.56,-319.8 231.5,-306.2 197.34,-296.73"/>
<polygon fill="#63b8ff" stroke="#63b8ff" points="198.25,-293.35 187.68,-294.05 196.38,-300.1 198.25,-293.35"/>
</a>
</g>
</g>
<!-- Node9 -->
<g id="Node000009" class="node">
<title>Node9</title>
<g id="a_Node000009"><a xlink:href="point_8h.html" target="_top" xlink:title=" ">
<polygon fill="#fff0f0" stroke="red" points="282.83,-74 236.83,-74 236.83,-55 282.83,-55 282.83,-74"/>
<text text-anchor="middle" x="259.83" y="-62" font-family="Arial" font-size="10.00">point.h</text>
</a>
</g>
</g>
<!-- Node1&#45;&gt;Node9 -->
<g id="edge20_Node000001_Node000009" class="edge">
<title>Node1&#45;&gt;Node9</title>
<g id="a_edge20_Node000001_Node000009"><a xlink:title=" ">
<path fill="none" stroke="#63b8ff" d="M362.32,-329.81C344.31,-283.34 287.09,-135.8 266.94,-83.83"/>
<polygon fill="#63b8ff" stroke="#63b8ff" points="270.1,-82.32 263.23,-74.26 263.58,-84.85 270.1,-82.32"/>
</a>
</g>
</g>
<!-- Node17 -->
<g id="Node000017" class="node">
<title>Node17</title>
<g id="a_Node000017"><a xlink:title=" ">
<polygon fill="#e0e0e0" stroke="#999999" points="143.83,-74 93.83,-74 93.83,-55 143.83,-55 143.83,-74"/>
<text text-anchor="middle" x="118.83" y="-62" font-family="Arial" font-size="10.00">fstream</text>
</a>
</g>
</g>
<!-- Node1&#45;&gt;Node17 -->
<g id="edge42_Node000001_Node000017" class="edge">
<title>Node1&#45;&gt;Node17</title>
<g id="a_edge42_Node000001_Node000017"><a xlink:title=" ">
<path fill="none" stroke="#63b8ff" d="M290.1,-342.35C200.11,-338.84 59.18,-327.92 19.83,-294 -2.49,-274.77 0.83,-259.96 0.83,-230.5 0.83,-230.5 0.83,-230.5 0.83,-173.5 0.83,-126.67 52.04,-94.67 86.99,-78.28"/>
<polygon fill="#63b8ff" stroke="#63b8ff" points="88.67,-81.37 96.36,-74.08 85.8,-74.98 88.67,-81.37"/>
</a>
</g>
</g>
<!-- Node18 -->
<g id="Node000018" class="node">
<title>Node18</title>
<g id="a_Node000018"><a xlink:title=" ">
<polygon fill="#e0e0e0" stroke="#999999" points="394.83,-74 338.83,-74 338.83,-55 394.83,-55 394.83,-74"/>
<text text-anchor="middle" x="366.83" y="-62" font-family="Arial" font-size="10.00">algorithm</text>
</a>
</g>
</g>
<!-- Node1&#45;&gt;Node18 -->
<g id="edge41_Node000001_Node000018" class="edge">
<title>Node1&#45;&gt;Node18</title>
<g id="a_edge41_Node000001_Node000018"><a xlink:title=" ">
<path fill="none" stroke="#63b8ff" d="M374.98,-329.86C389.3,-299.93 419.6,-227.76 412.83,-165 410.15,-140.12 411.34,-132.7 400.83,-110 396.15,-99.89 388.85,-89.92 382.21,-81.98"/>
<polygon fill="#63b8ff" stroke="#63b8ff" points="384.65,-79.46 375.42,-74.27 379.4,-84.09 384.65,-79.46"/>
</a>
</g>
</g>
<!-- Node19 -->
<g id="Node000019" class="node">
<title>Node19</title>
<g id="a_Node000019"><a xlink:href="triElem_8h.html" target="_top" xlink:title=" ">
<polygon fill="white" stroke="#666666" points="282.33,-294 215.33,-294 215.33,-275 282.33,-275 282.33,-294"/>
<text text-anchor="middle" x="248.83" y="-282" font-family="Arial" font-size="10.00">fe/triElem.h</text>
</a>
</g>
</g>
<!-- Node1&#45;&gt;Node19 -->
<g id="edge16_Node000001_Node000019" class="edge">
<title>Node1&#45;&gt;Node19</title>
<g id="a_edge16_Node000001_Node000019"><a xlink:title=" ">
<path fill="none" stroke="#63b8ff" d="M339.32,-329.99C319.91,-320.45 294.4,-307.9 275.41,-298.57"/>
<polygon fill="#63b8ff" stroke="#63b8ff" points="276.92,-295.41 266.4,-294.14 273.83,-301.69 276.92,-295.41"/>
</a>
</g>
</g>
<!-- Node20 -->
<g id="Node000020" class="node">
<title>Node20</title>
<g id="a_Node000020"><a xlink:href="tetElem_8h.html" target="_top" xlink:title=" ">
<polygon fill="white" stroke="#666666" points="98.83,-294 28.83,-294 28.83,-275 98.83,-275 98.83,-294"/>
<text text-anchor="middle" x="63.83" y="-282" font-family="Arial" font-size="10.00">fe/tetElem.h</text>
</a>
</g>
</g>
<!-- Node1&#45;&gt;Node20 -->
<g id="edge18_Node000001_Node000020" class="edge">
<title>Node1&#45;&gt;Node20</title>
<g id="a_edge18_Node000001_Node000020"><a xlink:title=" ">
<path fill="none" stroke="#63b8ff" d="M294.7,-329.95C245.04,-320.41 177.58,-307.44 109.02,-294.23"/>
<polygon fill="#63b8ff" stroke="#63b8ff" points="109.37,-290.73 98.89,-292.28 108.05,-297.61 109.37,-290.73"/>
</a>
</g>
</g>
<!-- Node21 -->
<g id="Node000021" class="node">
<title>Node21</title>
<g id="a_Node000021"><a xlink:href="feElementDefs_8h.html" target="_top" xlink:title=" ">
<polygon fill="white" stroke="#666666" points="562.83,-294 456.83,-294 456.83,-275 562.83,-275 562.83,-294"/>
<text text-anchor="middle" x="509.83" y="-282" font-family="Arial" font-size="10.00">util/feElementDefs.h</text>
</a>
</g>
</g>
<!-- Node1&#45;&gt;Node21 -->
<g id="edge21_Node000001_Node000021" class="edge">
<title>Node1&#45;&gt;Node21</title>
<g id="a_edge21_Node000001_Node000021"><a xlink:title=" ">
<path fill="none" stroke="#63b8ff" d="M401.84,-329.99C425.43,-320.27 456.57,-307.44 479.35,-298.06"/>
<polygon fill="#63b8ff" stroke="#63b8ff" points="480.95,-301.18 488.86,-294.14 478.28,-294.71 480.95,-301.18"/>
</a>
</g>
</g>
<!-- Node22 -->
<g id="Node000022" class="node">
<title>Node22</title>
<g id="a_Node000022"><a xlink:href="methods_8h.html" target="_top" xlink:title=" ">
<polygon fill="white" stroke="#666666" points="740.83,-129 662.83,-129 662.83,-110 740.83,-110 740.83,-129"/>
<text text-anchor="middle" x="701.83" y="-117" font-family="Arial" font-size="10.00">util/methods.h</text>
</a>
</g>
</g>
<!-- Node1&#45;&gt;Node22 -->
<g id="edge22_Node000001_Node000022" class="edge">
<title>Node1&#45;&gt;Node22</title>
<g id="a_edge22_Node000001_Node000022"><a xlink:title=" ">
<path fill="none" stroke="#63b8ff" d="M445.49,-341.15C491.3,-336.12 548.42,-323.71 590.83,-294 647.89,-254.02 682.39,-174.39 695.62,-138.63"/>
<polygon fill="#63b8ff" stroke="#63b8ff" points="698.98,-139.63 699.04,-129.03 692.39,-137.27 698.98,-139.63"/>
</a>
</g>
</g>
<!-- Node28 -->
<g id="Node000028" class="node">
<title>Node28</title>
<g id="a_Node000028"><a xlink:href="nsearch_8h.html" target="_top" xlink:title=" ">
<polygon fill="white" stroke="#666666" points="619.33,-184 522.33,-184 522.33,-165 619.33,-165 619.33,-184"/>
<text text-anchor="middle" x="570.83" y="-172" font-family="Arial" font-size="10.00">nsearch/nsearch.h</text>
</a>
</g>
</g>
<!-- Node1&#45;&gt;Node28 -->
<g id="edge31_Node000001_Node000028" class="edge">
<title>Node1&#45;&gt;Node28</title>
<g id="a_edge31_Node000001_Node000028"><a xlink:title=" ">
<path fill="none" stroke="#63b8ff" d="M445.55,-334.92C496.33,-327.2 556.05,-314.12 571.83,-294 594.39,-265.24 585.15,-219.31 577.38,-193.9"/>
<polygon fill="#63b8ff" stroke="#63b8ff" points="580.6,-192.49 574.14,-184.09 573.96,-194.69 580.6,-192.49"/>
</a>
</g>
</g>
<!-- Node31 -->
<g id="Node000031" class="node">
<title>Node31</title>
<g id="a_Node000031"><a xlink:title=" ">
<polygon fill="#e0e0e0" stroke="#999999" points="735.33,-294 676.33,-294 676.33,-275 735.33,-275 735.33,-294"/>
<text text-anchor="middle" x="705.83" y="-282" font-family="Arial" font-size="10.00">csv/csv.h</text>
</a>
</g>
</g>
<!-- Node1&#45;&gt;Node31 -->
<g id="edge40_Node000001_Node000031" class="edge">
<title>Node1&#45;&gt;Node31</title>
<g id="a_edge40_Node000001_Node000031"><a xlink:title=" ">
<path fill="none" stroke="#63b8ff" d="M445.6,-331.26C504.91,-321.43 588.6,-307.3 661.83,-294 663.12,-293.77 664.43,-293.52 665.76,-293.28"/>
<polygon fill="#63b8ff" stroke="#63b8ff" points="666.84,-296.64 676.02,-291.35 665.55,-289.76 666.84,-296.64"/>
</a>
</g>
</g>
<!-- Node2&#45;&gt;Node3 -->
<g id="edge2_Node000002_Node000003" class="edge">
<title>Node2&#45;&gt;Node3</title>
<g id="a_edge2_Node000002_Node000003"><a xlink:title=" ">
<path fill="none" stroke="#63b8ff" d="M371.83,-164.75C371.83,-157.8 371.83,-147.85 371.83,-139.13"/>
<polygon fill="#63b8ff" stroke="#63b8ff" points="375.33,-139.09 371.83,-129.09 368.33,-139.09 375.33,-139.09"/>
</a>
</g>
</g>
<!-- Node4 -->
<g id="Node000004" class="node">
<title>Node4</title>
<g id="a_Node000004"><a xlink:title=" ">
<polygon fill="#e0e0e0" stroke="#999999" points="306.83,-19 262.83,-19 262.83,0 306.83,0 306.83,-19"/>
<text text-anchor="middle" x="284.83" y="-7" font-family="Arial" font-size="10.00">vector</text>
</a>
</g>
</g>
<!-- Node2&#45;&gt;Node4 -->
<g id="edge3_Node000002_Node000004" class="edge">
<title>Node2&#45;&gt;Node4</title>
<g id="a_edge3_Node000002_Node000004"><a xlink:title=" ">
<path fill="none" stroke="#63b8ff" d="M365.47,-164.88C359.11,-156.08 349.25,-141.93 341.83,-129 322.03,-94.48 302.77,-52.03 292.49,-28.46"/>
<polygon fill="#63b8ff" stroke="#63b8ff" points="295.61,-26.84 288.43,-19.05 289.18,-29.62 295.61,-26.84"/>
</a>
</g>
</g>
<!-- Node6 -->
<g id="Node000006" class="node">
<title>Node6</title>
<g id="a_Node000006"><a xlink:href="baseElem_8h.html" target="_top" xlink:title=" ">
<polygon fill="white" stroke="#666666" points="190.83,-239 122.83,-239 122.83,-220 190.83,-220 190.83,-239"/>
<text text-anchor="middle" x="156.83" y="-227" font-family="Arial" font-size="10.00">baseElem.h</text>
</a>
</g>
</g>
<!-- Node5&#45;&gt;Node6 -->
<g id="edge5_Node000005_Node000006" class="edge">
<title>Node5&#45;&gt;Node6</title>
<g id="a_edge5_Node000005_Node000006"><a xlink:title=" ">
<path fill="none" stroke="#63b8ff" d="M156.83,-274.75C156.83,-267.8 156.83,-257.85 156.83,-249.13"/>
<polygon fill="#63b8ff" stroke="#63b8ff" points="160.33,-249.09 156.83,-239.09 153.33,-249.09 160.33,-249.09"/>
</a>
</g>
</g>
<!-- Node7 -->
<g id="Node000007" class="node">
<title>Node7</title>
<g id="a_Node000007"><a xlink:href="quadData_8h.html" target="_top" xlink:title=" ">
<polygon fill="white" stroke="#666666" points="184.33,-184 117.33,-184 117.33,-165 184.33,-165 184.33,-184"/>
<text text-anchor="middle" x="150.83" y="-172" font-family="Arial" font-size="10.00">quadData.h</text>
</a>
</g>
</g>
<!-- Node6&#45;&gt;Node7 -->
<g id="edge6_Node000006_Node000007" class="edge">
<title>Node6&#45;&gt;Node7</title>
<g id="a_edge6_Node000006_Node000007"><a xlink:title=" ">
<path fill="none" stroke="#63b8ff" d="M155.84,-219.75C155.05,-212.8 153.92,-202.85 152.94,-194.13"/>
<polygon fill="#63b8ff" stroke="#63b8ff" points="156.4,-193.63 151.8,-184.09 149.45,-194.42 156.4,-193.63"/>
</a>
</g>
</g>
<!-- Node6&#45;&gt;Node9 -->
<g id="edge15_Node000006_Node000009" class="edge">
<title>Node6&#45;&gt;Node9</title>
<g id="a_edge15_Node000006_Node000009"><a xlink:title=" ">
<path fill="none" stroke="#63b8ff" d="M164.45,-219.97C172.06,-211.24 183.89,-197.15 192.83,-184 216.1,-149.79 238.88,-106.94 250.96,-83.28"/>
<polygon fill="#63b8ff" stroke="#63b8ff" points="254.2,-84.62 255.58,-74.12 247.95,-81.47 254.2,-84.62"/>
</a>
</g>
</g>
<!-- Node7&#45;&gt;Node4 -->
<g id="edge14_Node000007_Node000004" class="edge">
<title>Node7&#45;&gt;Node4</title>
<g id="a_edge14_Node000007_Node000004"><a xlink:title=" ">
<path fill="none" stroke="#63b8ff" d="M139.28,-164.86C113.37,-144.44 55.07,-92.11 84.83,-55 105.5,-29.22 201.5,-17.42 252.61,-12.89"/>
<polygon fill="#63b8ff" stroke="#63b8ff" points="253.12,-16.36 262.79,-12.03 252.53,-9.38 253.12,-16.36"/>
</a>
</g>
</g>
<!-- Node8 -->
<g id="Node000008" class="node">
<title>Node8</title>
<g id="a_Node000008"><a xlink:href="io_8h.html" target="_top" xlink:title=" ">
<polygon fill="#fff0f0" stroke="red" points="168.83,-129 120.83,-129 120.83,-110 168.83,-110 168.83,-129"/>
<text text-anchor="middle" x="144.83" y="-117" font-family="Arial" font-size="10.00">util/io.h</text>
</a>
</g>
</g>
<!-- Node7&#45;&gt;Node8 -->
<g id="edge7_Node000007_Node000008" class="edge">
<title>Node7&#45;&gt;Node8</title>
<g id="a_edge7_Node000007_Node000008"><a xlink:title=" ">
<path fill="none" stroke="#63b8ff" d="M149.84,-164.75C149.05,-157.8 147.92,-147.85 146.94,-139.13"/>
<polygon fill="#63b8ff" stroke="#63b8ff" points="150.4,-138.63 145.8,-129.09 143.45,-139.42 150.4,-138.63"/>
</a>
</g>
</g>
<!-- Node7&#45;&gt;Node9 -->
<g id="edge13_Node000007_Node000009" class="edge">
<title>Node7&#45;&gt;Node9</title>
<g id="a_edge13_Node000007_Node000009"><a xlink:title=" ">
<path fill="none" stroke="#63b8ff" d="M159.75,-164.66C178.12,-146.46 220.42,-104.55 243.71,-81.47"/>
<polygon fill="#63b8ff" stroke="#63b8ff" points="246.45,-83.68 251.09,-74.16 241.52,-78.71 246.45,-83.68"/>
</a>
</g>
</g>
<!-- Node8&#45;&gt;Node4 -->
<g id="edge11_Node000008_Node000004" class="edge">
<title>Node8&#45;&gt;Node4</title>
<g id="a_edge11_Node000008_Node000004"><a xlink:title=" ">
<path fill="none" stroke="#63b8ff" d="M156.29,-109.66C180.3,-91.14 236.12,-48.08 265.68,-25.28"/>
<polygon fill="#63b8ff" stroke="#63b8ff" points="267.82,-28.04 273.6,-19.16 263.55,-22.5 267.82,-28.04"/>
</a>
</g>
</g>
<!-- Node8&#45;&gt;Node9 -->
<g id="edge8_Node000008_Node000009" class="edge">
<title>Node8&#45;&gt;Node9</title>
<g id="a_edge8_Node000008_Node000009"><a xlink:title=" ">
<path fill="none" stroke="#63b8ff" d="M163.31,-109.98C181.81,-101.46 210.51,-88.23 231.81,-78.41"/>
<polygon fill="#63b8ff" stroke="#63b8ff" points="233.4,-81.53 241.02,-74.17 230.47,-75.18 233.4,-81.53"/>
</a>
</g>
</g>
<!-- Node8&#45;&gt;Node17 -->
<g id="edge10_Node000008_Node000017" class="edge">
<title>Node8&#45;&gt;Node17</title>
<g id="a_edge10_Node000008_Node000017"><a xlink:title=" ">
<path fill="none" stroke="#63b8ff" d="M140.54,-109.75C137.01,-102.57 131.92,-92.18 127.54,-83.27"/>
<polygon fill="#63b8ff" stroke="#63b8ff" points="130.59,-81.53 123.04,-74.09 124.3,-84.61 130.59,-81.53"/>
</a>
</g>
</g>
<!-- Node8&#45;&gt;Node18 -->
<g id="edge12_Node000008_Node000018" class="edge">
<title>Node8&#45;&gt;Node18</title>
<g id="a_edge12_Node000008_Node000018"><a xlink:title=" ">
<path fill="none" stroke="#63b8ff" d="M169.01,-112.73C207.46,-103.55 282.85,-85.55 328.65,-74.62"/>
<polygon fill="#63b8ff" stroke="#63b8ff" points="329.59,-77.99 338.5,-72.26 327.96,-71.18 329.59,-77.99"/>
</a>
</g>
</g>
<!-- Node9&#45;&gt;Node4 -->
<g id="edge9_Node000009_Node000004" class="edge">
<title>Node9&#45;&gt;Node4</title>
<g id="a_edge9_Node000009_Node000004"><a xlink:title=" ">
<path fill="none" stroke="#63b8ff" d="M263.96,-54.75C267.34,-47.57 272.24,-37.18 276.45,-28.27"/>
<polygon fill="#63b8ff" stroke="#63b8ff" points="279.68,-29.63 280.78,-19.09 273.35,-26.64 279.68,-29.63"/>
</a>
</g>
</g>
<!-- Node19&#45;&gt;Node6 -->
<g id="edge17_Node000019_Node000006" class="edge">
<title>Node19&#45;&gt;Node6</title>
<g id="a_edge17_Node000019_Node000006"><a xlink:title=" ">
<path fill="none" stroke="#63b8ff" d="M234.05,-274.98C219.65,-266.69 197.52,-253.94 180.64,-244.22"/>
<polygon fill="#63b8ff" stroke="#63b8ff" points="182.29,-241.13 171.88,-239.17 178.8,-247.19 182.29,-241.13"/>
</a>
</g>
</g>
<!-- Node20&#45;&gt;Node6 -->
<g id="edge19_Node000020_Node000006" class="edge">
<title>Node20&#45;&gt;Node6</title>
<g id="a_edge19_Node000020_Node000006"><a xlink:title=" ">
<path fill="none" stroke="#63b8ff" d="M78.77,-274.98C93.33,-266.69 115.7,-253.94 132.76,-244.22"/>
<polygon fill="#63b8ff" stroke="#63b8ff" points="134.66,-247.16 141.61,-239.17 131.19,-241.08 134.66,-247.16"/>
</a>
</g>
</g>
<!-- Node22&#45;&gt;Node4 -->
<g id="edge26_Node000022_Node000004" class="edge">
<title>Node22&#45;&gt;Node4</title>
<g id="a_edge26_Node000022_Node000004"><a xlink:title=" ">
<path fill="none" stroke="#63b8ff" d="M701.59,-109.89C700.71,-95.93 696.77,-68.56 679.83,-55 624.2,-10.5 401.4,-8.83 317.24,-9.85"/>
<polygon fill="#63b8ff" stroke="#63b8ff" points="316.95,-6.36 307,-10 317.05,-13.36 316.95,-6.36"/>
</a>
</g>
</g>
<!-- Node22&#45;&gt;Node9 -->
<g id="edge23_Node000022_Node000009" class="edge">
<title>Node22&#45;&gt;Node9</title>
<g id="a_edge23_Node000022_Node000009"><a xlink:title=" ">
<path fill="none" stroke="#63b8ff" d="M662.73,-113.85C594.95,-105.77 451.23,-88.63 329.83,-74 317.82,-72.55 304.66,-70.96 293.03,-69.54"/>
<polygon fill="#63b8ff" stroke="#63b8ff" points="293.19,-66.04 282.84,-68.3 292.35,-72.99 293.19,-66.04"/>
</a>
</g>
</g>
<!-- Node22&#45;&gt;Node18 -->
<g id="edge29_Node000022_Node000018" class="edge">
<title>Node22&#45;&gt;Node18</title>
<g id="a_edge29_Node000022_Node000018"><a xlink:title=" ">
<path fill="none" stroke="#63b8ff" d="M662.62,-113.63C607.37,-106.56 503.29,-92.44 405.15,-74.13"/>
<polygon fill="#63b8ff" stroke="#63b8ff" points="405.54,-70.64 395.06,-72.22 404.24,-77.52 405.54,-70.64"/>
</a>
</g>
</g>
<!-- Node23 -->
<g id="Node000023" class="node">
<title>Node23</title>
<g id="a_Node000023"><a xlink:title=" ">
<polygon fill="#e0e0e0" stroke="#999999" points="670.83,-74 624.83,-74 624.83,-55 670.83,-55 670.83,-74"/>
<text text-anchor="middle" x="647.83" y="-62" font-family="Arial" font-size="10.00">cstdint</text>
</a>
</g>
</g>
<!-- Node22&#45;&gt;Node23 -->
<g id="edge24_Node000022_Node000023" class="edge">
<title>Node22&#45;&gt;Node23</title>
<g id="a_edge24_Node000022_Node000023"><a xlink:title=" ">
<path fill="none" stroke="#63b8ff" d="M692.91,-109.75C685.05,-102.03 673.4,-90.6 663.91,-81.28"/>
<polygon fill="#63b8ff" stroke="#63b8ff" points="666.17,-78.6 656.58,-74.09 661.26,-83.59 666.17,-78.6"/>
</a>
</g>
</g>
<!-- Node24 -->
<g id="Node000024" class="node">
<title>Node24</title>
<g id="a_Node000024"><a xlink:title=" ">
<polygon fill="#e0e0e0" stroke="#999999" points="826.83,-74 780.83,-74 780.83,-55 826.83,-55 826.83,-74"/>
<text text-anchor="middle" x="803.83" y="-62" font-family="Arial" font-size="10.00">cstring</text>
</a>
</g>
</g>
<!-- Node22&#45;&gt;Node24 -->
<g id="edge25_Node000022_Node000024" class="edge">
<title>Node22&#45;&gt;Node24</title>
<g id="a_edge25_Node000022_Node000024"><a xlink:title=" ">
<path fill="none" stroke="#63b8ff" d="M718.22,-109.98C734.4,-101.57 759.4,-88.59 778.21,-78.81"/>
<polygon fill="#63b8ff" stroke="#63b8ff" points="779.88,-81.89 787.14,-74.17 776.65,-75.68 779.88,-81.89"/>
</a>
</g>
</g>
<!-- Node25 -->
<g id="Node000025" class="node">
<title>Node25</title>
<g id="a_Node000025"><a xlink:title=" ">
<polygon fill="#e0e0e0" stroke="#999999" points="890.83,-74 844.83,-74 844.83,-55 890.83,-55 890.83,-74"/>
<text text-anchor="middle" x="867.83" y="-62" font-family="Arial" font-size="10.00">chrono</text>
</a>
</g>
</g>
<!-- Node22&#45;&gt;Node25 -->
<g id="edge27_Node000022_Node000025" class="edge">
<title>Node22&#45;&gt;Node25</title>
<g id="a_edge27_Node000022_Node000025"><a xlink:title=" ">
<path fill="none" stroke="#63b8ff" d="M728.5,-109.98C757.53,-100.72 803.96,-85.89 835.15,-75.93"/>
<polygon fill="#63b8ff" stroke="#63b8ff" points="836.24,-79.26 844.7,-72.88 834.11,-72.59 836.24,-79.26"/>
</a>
</g>
</g>
<!-- Node26 -->
<g id="Node000026" class="node">
<title>Node26</title>
<g id="a_Node000026"><a xlink:title=" ">
<polygon fill="#e0e0e0" stroke="#999999" points="960.33,-74 909.33,-74 909.33,-55 960.33,-55 960.33,-74"/>
<text text-anchor="middle" x="934.83" y="-62" font-family="Arial" font-size="10.00">numeric</text>
</a>
</g>
</g>
<!-- Node22&#45;&gt;Node26 -->
<g id="edge28_Node000022_Node000026" class="edge">
<title>Node22&#45;&gt;Node26</title>
<g id="a_edge28_Node000022_Node000026"><a xlink:title=" ">
<path fill="none" stroke="#63b8ff" d="M740.57,-110C778.49,-101.63 838.15,-88.35 899.39,-74.07"/>
<polygon fill="#63b8ff" stroke="#63b8ff" points="900.29,-77.46 909.23,-71.77 898.69,-70.64 900.29,-77.46"/>
</a>
</g>
</g>
<!-- Node27 -->
<g id="Node000027" class="node">
<title>Node27</title>
<g id="a_Node000027"><a xlink:title=" ">
<polygon fill="#e0e0e0" stroke="#999999" points="762.33,-74 727.33,-74 727.33,-55 762.33,-55 762.33,-74"/>
<text text-anchor="middle" x="744.83" y="-62" font-family="Arial" font-size="10.00">map</text>
</a>
</g>
</g>
<!-- Node22&#45;&gt;Node27 -->
<g id="edge30_Node000022_Node000027" class="edge">
<title>Node22&#45;&gt;Node27</title>
<g id="a_edge30_Node000022_Node000027"><a xlink:title=" ">
<path fill="none" stroke="#63b8ff" d="M708.93,-109.75C715,-102.26 723.91,-91.28 731.34,-82.13"/>
<polygon fill="#63b8ff" stroke="#63b8ff" points="734.28,-84.06 737.86,-74.09 728.84,-79.65 734.28,-84.06"/>
</a>
</g>
</g>
<!-- Node28&#45;&gt;Node3 -->
<g id="edge35_Node000028_Node000003" class="edge">
<title>Node28&#45;&gt;Node3</title>
<g id="a_edge35_Node000028_Node000003"><a xlink:title=" ">
<path fill="none" stroke="#63b8ff" d="M538.86,-164.98C501.2,-154.95 439.1,-138.42 402.16,-128.58"/>
<polygon fill="#63b8ff" stroke="#63b8ff" points="403.02,-125.19 392.46,-125.99 401.22,-131.95 403.02,-125.19"/>
</a>
</g>
</g>
<!-- Node28&#45;&gt;Node4 -->
<g id="edge36_Node000028_Node000004" class="edge">
<title>Node28&#45;&gt;Node4</title>
<g id="a_edge36_Node000028_Node000004"><a xlink:title=" ">
<path fill="none" stroke="#63b8ff" d="M574.97,-164.76C584.52,-143.2 605.23,-86.88 577.83,-55 544.48,-16.2 386.14,-10.83 317.12,-10.36"/>
<polygon fill="#63b8ff" stroke="#63b8ff" points="316.85,-6.86 306.84,-10.33 316.83,-13.86 316.85,-6.86"/>
</a>
</g>
</g>
<!-- Node28&#45;&gt;Node9 -->
<g id="edge32_Node000028_Node000009" class="edge">
<title>Node28&#45;&gt;Node9</title>
<g id="a_edge32_Node000028_Node000009"><a xlink:title=" ">
<path fill="none" stroke="#63b8ff" d="M548.95,-164.91C516.71,-152.36 454.45,-128.46 400.83,-110 364.08,-97.35 321.48,-84.1 292.8,-75.38"/>
<polygon fill="#63b8ff" stroke="#63b8ff" points="293.49,-71.93 282.91,-72.38 291.46,-78.63 293.49,-71.93"/>
</a>
</g>
</g>
<!-- Node28&#45;&gt;Node22 -->
<g id="edge33_Node000028_Node000022" class="edge">
<title>Node28&#45;&gt;Node22</title>
<g id="a_edge33_Node000028_Node000022"><a xlink:title=" ">
<path fill="none" stroke="#63b8ff" d="M591.88,-164.98C613.23,-156.34 646.53,-142.87 670.89,-133.02"/>
<polygon fill="#63b8ff" stroke="#63b8ff" points="672.44,-136.17 680.4,-129.17 669.82,-129.68 672.44,-136.17"/>
</a>
</g>
</g>
<!-- Node28&#45;&gt;Node23 -->
<g id="edge34_Node000028_Node000023" class="edge">
<title>Node28&#45;&gt;Node23</title>
<g id="a_edge34_Node000028_Node000023"><a xlink:title=" ">
<path fill="none" stroke="#63b8ff" d="M579.68,-164.76C588.19,-156.11 601.16,-142.26 610.83,-129 621.61,-114.21 631.92,-96.06 638.91,-82.96"/>
<polygon fill="#63b8ff" stroke="#63b8ff" points="642.03,-84.54 643.56,-74.06 635.83,-81.3 642.03,-84.54"/>
</a>
</g>
</g>
<!-- Node29 -->
<g id="Node000029" class="node">
<title>Node29</title>
<g id="a_Node000029"><a xlink:href="nflannSetup_8h.html" target="_top" xlink:title=" ">
<polygon fill="white" stroke="#666666" points="568.33,-129 491.33,-129 491.33,-110 568.33,-110 568.33,-129"/>
<text text-anchor="middle" x="529.83" y="-117" font-family="Arial" font-size="10.00">nflannSetup.h</text>
</a>
</g>
</g>
<!-- Node28&#45;&gt;Node29 -->
<g id="edge37_Node000028_Node000029" class="edge">
<title>Node28&#45;&gt;Node29</title>
<g id="a_edge37_Node000028_Node000029"><a xlink:title=" ">
<path fill="none" stroke="#63b8ff" d="M564.06,-164.75C558.27,-157.26 549.77,-146.28 542.69,-137.13"/>
<polygon fill="#63b8ff" stroke="#63b8ff" points="545.36,-134.86 536.47,-129.09 539.82,-139.14 545.36,-134.86"/>
</a>
</g>
</g>
<!-- Node29&#45;&gt;Node9 -->
<g id="edge38_Node000029_Node000009" class="edge">
<title>Node29&#45;&gt;Node9</title>
<g id="a_edge38_Node000029_Node000009"><a xlink:title=" ">
<path fill="none" stroke="#63b8ff" d="M491.14,-110.91C437.92,-100.46 343.01,-81.83 292.91,-71.99"/>
<polygon fill="#63b8ff" stroke="#63b8ff" points="293.41,-68.53 282.93,-70.03 292.07,-75.39 293.41,-68.53"/>
</a>
</g>
</g>
<!-- Node30 -->
<g id="Node000030" class="node">
<title>Node30</title>
<g id="a_Node000030"><a xlink:title=" ">
<polygon fill="#e0e0e0" stroke="#999999" points="568.83,-74 412.83,-74 412.83,-55 568.83,-55 568.83,-74"/>
<text text-anchor="middle" x="490.83" y="-62" font-family="Arial" font-size="10.00">nanoflann/include/nanoflann.hpp</text>
</a>
</g>
</g>
<!-- Node29&#45;&gt;Node30 -->
<g id="edge39_Node000029_Node000030" class="edge">
<title>Node29&#45;&gt;Node30</title>
<g id="a_edge39_Node000029_Node000030"><a xlink:title=" ">
<path fill="none" stroke="#63b8ff" d="M523.39,-109.75C517.94,-102.34 509.96,-91.5 503.27,-82.41"/>
<polygon fill="#63b8ff" stroke="#63b8ff" points="505.89,-80.07 497.15,-74.09 500.26,-84.22 505.89,-80.07"/>
</a>
</g>
</g>
</g>
</svg>
