<?xml version="1.0" encoding="UTF-8" standalone="no"?>
<!DOCTYPE svg PUBLIC "-//W3C//DTD SVG 1.1//EN"
 "http://www.w3.org/Graphics/SVG/1.1/DTD/svg11.dtd">
<!-- Generated by graphviz version 2.43.0 (0)
 -->
<!-- Title: /home/user/project/test/test_exec/particle/testParticleLib.h Pages: 1 -->
<svg width="124pt" height="106pt"
 viewBox="0.00 0.00 124.00 106.00" xmlns="http://www.w3.org/2000/svg" xmlns:xlink="http://www.w3.org/1999/xlink">
<g id="graph0" class="graph" transform="scale(1 1) rotate(0) translate(4 102)">
<title>/home/user/project/test/test_exec/particle/testParticleLib.h</title>
<!-- Node1 -->
<g id="node1" class="node">
<title>Node1</title>
<g id="a_node1"><a xlink:title=" ">
<polygon fill="#bfbfbf" stroke="black" points="0,-56.5 0,-97.5 116,-97.5 116,-56.5 0,-56.5"/>
<text text-anchor="start" x="8" y="-85.5" font-family="Arial" font-size="10.00">/home/user/project</text>
<text text-anchor="start" x="8" y="-74.5" font-family="Arial" font-size="10.00">/test/test_exec/particle</text>
<text text-anchor="middle" x="58" y="-63.5" font-family="Arial" font-size="10.00">/testParticleLib.h</text>
</a>
</g>
</g>
<!-- Node2 -->
<g id="node2" class="node">
<title>Node2</title>
<g id="a_node2"><a xlink:title=" ">
<polygon fill="none" stroke="#bfbfbf" points="7.5,-0.5 7.5,-19.5 48.5,-19.5 48.5,-0.5 7.5,-0.5"/>
<text text-anchor="middle" x="28" y="-7.5" font-family="Arial" font-size="10.00">string</text>
</a>
</g>
</g>
<!-- Node1&#45;&gt;Node2 -->
<g id="edge1" class="edge">
<title>Node1&#45;&gt;Node2</title>
<path fill="none" stroke="midnightblue" d="M49,-56.5C44.93,-47.68 40.16,-37.34 36.19,-28.74"/>
<polygon fill="midnightblue" stroke="midnightblue" points="39.36,-27.27 31.99,-19.65 33.01,-30.2 39.36,-27.27"/>
</g>
<!-- Node3 -->
<g id="node3" class="node">
<title>Node3</title>
<g id="a_node3"><a xlink:title=" ">
<polygon fill="none" stroke="#bfbfbf" points="67,-0.5 67,-19.5 111,-19.5 111,-0.5 67,-0.5"/>
<text text-anchor="middle" x="89" y="-7.5" font-family="Arial" font-size="10.00">vector</text>
</a>
</g>
</g>
<!-- Node1&#45;&gt;Node3 -->
<g id="edge2" class="edge">
<title>Node1&#45;&gt;Node3</title>
<path fill="none" stroke="midnightblue" d="M67.3,-56.5C71.51,-47.68 76.44,-37.34 80.54,-28.74"/>
<polygon fill="midnightblue" stroke="midnightblue" points="83.73,-30.19 84.87,-19.65 77.41,-27.17 83.73,-30.19"/>
</g>
</g>
</svg>
