<?xml version="1.0" encoding="UTF-8" standalone="no"?>
<!DOCTYPE svg PUBLIC "-//W3C//DTD SVG 1.1//EN"
 "http://www.w3.org/Graphics/SVG/1.1/DTD/svg11.dtd">
<!-- Generated by graphviz version 2.43.0 (0)
 -->
<!-- Title: /home/user/project/test/test_exec/fe/testFeLib.cpp Pages: 1 -->
<svg width="960pt" height="375pt"
 viewBox="0.00 0.00 960.43 375.00" xmlns="http://www.w3.org/2000/svg" xmlns:xlink="http://www.w3.org/1999/xlink">
<g id="graph0" class="graph" transform="scale(1 1) rotate(0) translate(4 371)">
<title>/home/user/project/test/test_exec/fe/testFeLib.cpp</title>
<!-- Node1 -->
<g id="node1" class="node">
<title>Node1</title>
<g id="a_node1"><a xlink:title=" ">
<polygon fill="#bfbfbf" stroke="black" points="416.43,-336.5 416.43,-366.5 571.43,-366.5 571.43,-336.5 416.43,-336.5"/>
<text text-anchor="start" x="424.43" y="-354.5" font-family="Arial" font-size="10.00">/home/user/project</text>
<text text-anchor="middle" x="493.93" y="-343.5" font-family="Arial" font-size="10.00">/test/test_exec/fe/testFeLib.cpp</text>
</a>
</g>
</g>
<!-- Node2 -->
<g id="node2" class="node">
<title>Node2</title>
<g id="a_node2"><a xlink:href="testFeLib_8h.html" target="_top" xlink:title=" ">
<polygon fill="none" stroke="black" points="1.43,-168.5 1.43,-187.5 66.43,-187.5 66.43,-168.5 1.43,-168.5"/>
<text text-anchor="middle" x="33.93" y="-175.5" font-family="Arial" font-size="10.00">testFeLib.h</text>
</a>
</g>
</g>
<!-- Node1&#45;&gt;Node2 -->
<g id="edge1" class="edge">
<title>Node1&#45;&gt;Node2</title>
<path fill="none" stroke="midnightblue" d="M416.14,-347.3C321.23,-342.16 167.42,-329.47 118.93,-300 78.84,-275.63 52.67,-224.4 40.98,-197.07"/>
<polygon fill="midnightblue" stroke="midnightblue" points="44.12,-195.5 37.09,-187.57 37.64,-198.15 44.12,-195.5"/>
</g>
<!-- Node3 -->
<g id="node3" class="node">
<title>Node3</title>
<g id="a_node3"><a xlink:title=" ">
<polygon fill="none" stroke="#bfbfbf" points="13.43,-112.5 13.43,-131.5 54.43,-131.5 54.43,-112.5 13.43,-112.5"/>
<text text-anchor="middle" x="33.93" y="-119.5" font-family="Arial" font-size="10.00">string</text>
</a>
</g>
</g>
<!-- Node1&#45;&gt;Node3 -->
<g id="edge42" class="edge">
<title>Node1&#45;&gt;Node3</title>
<path fill="none" stroke="midnightblue" d="M416.4,-343.52C367.89,-336.93 305.11,-324.25 253.93,-300 165.75,-258.22 81.7,-174.41 48.66,-139.18"/>
<polygon fill="midnightblue" stroke="midnightblue" points="51.09,-136.65 41.72,-131.69 45.95,-141.41 51.09,-136.65"/>
</g>
<!-- Node5 -->
<g id="node5" class="node">
<title>Node5</title>
<g id="a_node5"><a xlink:href="quadElem_8h.html" target="_top" xlink:title=" ">
<polygon fill="none" stroke="black" points="318.93,-280.5 318.93,-299.5 398.93,-299.5 398.93,-280.5 318.93,-280.5"/>
<text text-anchor="middle" x="358.93" y="-287.5" font-family="Arial" font-size="10.00">fe/quadElem.h</text>
</a>
</g>
</g>
<!-- Node1&#45;&gt;Node5 -->
<g id="edge4" class="edge">
<title>Node1&#45;&gt;Node5</title>
<path fill="none" stroke="midnightblue" d="M461.94,-336.4C439.49,-326.51 409.72,-313.38 387.96,-303.79"/>
<polygon fill="midnightblue" stroke="midnightblue" points="389.14,-300.49 378.58,-299.66 386.31,-306.89 389.14,-300.49"/>
</g>
<!-- Node9 -->
<g id="node9" class="node">
<title>Node9</title>
<g id="a_node9"><a xlink:href="point_8h.html" target="_top" xlink:title=" ">
<polygon fill="none" stroke="red" points="524.93,-56.5 524.93,-75.5 570.93,-75.5 570.93,-56.5 524.93,-56.5"/>
<text text-anchor="middle" x="547.93" y="-63.5" font-family="Arial" font-size="10.00">point.h</text>
</a>
</g>
</g>
<!-- Node1&#45;&gt;Node9 -->
<g id="edge20" class="edge">
<title>Node1&#45;&gt;Node9</title>
<path fill="none" stroke="midnightblue" d="M537.68,-336.32C554.61,-328.45 572.22,-316.77 581.93,-300 586.39,-292.31 583.24,-288.79 581.93,-280 575.64,-237.72 561.27,-230.11 553.93,-188 547.7,-152.21 547.14,-109.63 547.44,-85.72"/>
<polygon fill="midnightblue" stroke="midnightblue" points="550.95,-85.65 547.64,-75.59 543.95,-85.52 550.95,-85.65"/>
</g>
<!-- Node17 -->
<g id="node10" class="node">
<title>Node17</title>
<g id="a_node10"><a xlink:title=" ">
<polygon fill="none" stroke="#bfbfbf" points="738.93,-56.5 738.93,-75.5 788.93,-75.5 788.93,-56.5 738.93,-56.5"/>
<text text-anchor="middle" x="763.93" y="-63.5" font-family="Arial" font-size="10.00">fstream</text>
</a>
</g>
</g>
<!-- Node1&#45;&gt;Node17 -->
<g id="edge41" class="edge">
<title>Node1&#45;&gt;Node17</title>
<path fill="none" stroke="midnightblue" d="M571.74,-345.95C644.15,-337.01 740.93,-310.86 740.93,-235 740.93,-235 740.93,-235 740.93,-177 740.93,-144.12 750.9,-106.86 757.71,-85.24"/>
<polygon fill="midnightblue" stroke="midnightblue" points="761.04,-86.3 760.83,-75.71 754.39,-84.12 761.04,-86.3"/>
</g>
<!-- Node18 -->
<g id="node11" class="node">
<title>Node18</title>
<g id="a_node11"><a xlink:title=" ">
<polygon fill="none" stroke="#bfbfbf" points="664.93,-56.5 664.93,-75.5 720.93,-75.5 720.93,-56.5 664.93,-56.5"/>
<text text-anchor="middle" x="692.93" y="-63.5" font-family="Arial" font-size="10.00">algorithm</text>
</a>
</g>
</g>
<!-- Node1&#45;&gt;Node18 -->
<g id="edge40" class="edge">
<title>Node1&#45;&gt;Node18</title>
<path fill="none" stroke="midnightblue" d="M571.46,-339.54C630.94,-326.25 702.93,-297.29 702.93,-235 702.93,-235 702.93,-235 702.93,-177 702.93,-144.82 698.63,-107.55 695.67,-85.7"/>
<polygon fill="midnightblue" stroke="midnightblue" points="699.1,-84.95 694.24,-75.53 692.17,-85.92 699.1,-84.95"/>
</g>
<!-- Node19 -->
<g id="node12" class="node">
<title>Node19</title>
<g id="a_node12"><a xlink:href="triElem_8h.html" target="_top" xlink:title=" ">
<polygon fill="none" stroke="black" points="417.43,-280.5 417.43,-299.5 484.43,-299.5 484.43,-280.5 417.43,-280.5"/>
<text text-anchor="middle" x="450.93" y="-287.5" font-family="Arial" font-size="10.00">fe/triElem.h</text>
</a>
</g>
</g>
<!-- Node1&#45;&gt;Node19 -->
<g id="edge16" class="edge">
<title>Node1&#45;&gt;Node19</title>
<path fill="none" stroke="midnightblue" d="M483.74,-336.4C477.56,-327.84 469.63,-316.87 463.11,-307.86"/>
<polygon fill="midnightblue" stroke="midnightblue" points="465.88,-305.71 457.19,-299.66 460.21,-309.81 465.88,-305.71"/>
</g>
<!-- Node20 -->
<g id="node13" class="node">
<title>Node20</title>
<g id="a_node13"><a xlink:href="tetElem_8h.html" target="_top" xlink:title=" ">
<polygon fill="none" stroke="black" points="502.93,-280.5 502.93,-299.5 572.93,-299.5 572.93,-280.5 502.93,-280.5"/>
<text text-anchor="middle" x="537.93" y="-287.5" font-family="Arial" font-size="10.00">fe/tetElem.h</text>
</a>
</g>
</g>
<!-- Node1&#45;&gt;Node20 -->
<g id="edge18" class="edge">
<title>Node1&#45;&gt;Node20</title>
<path fill="none" stroke="midnightblue" d="M504.36,-336.4C510.69,-327.84 518.8,-316.87 525.47,-307.86"/>
<polygon fill="midnightblue" stroke="midnightblue" points="528.4,-309.78 531.53,-299.66 522.77,-305.62 528.4,-309.78"/>
</g>
<!-- Node21 -->
<g id="node14" class="node">
<title>Node21</title>
<g id="a_node14"><a xlink:href="feElementDefs_8h.html" target="_top" xlink:title=" ">
<polygon fill="none" stroke="black" points="768.93,-280.5 768.93,-299.5 874.93,-299.5 874.93,-280.5 768.93,-280.5"/>
<text text-anchor="middle" x="821.93" y="-287.5" font-family="Arial" font-size="10.00">util/feElementDefs.h</text>
</a>
</g>
</g>
<!-- Node1&#45;&gt;Node21 -->
<g id="edge21" class="edge">
<title>Node1&#45;&gt;Node21</title>
<path fill="none" stroke="midnightblue" d="M571.25,-336.47C630.68,-325.69 711.42,-311.05 765.02,-301.32"/>
<polygon fill="midnightblue" stroke="midnightblue" points="765.82,-304.74 775.04,-299.51 764.58,-297.85 765.82,-304.74"/>
</g>
<!-- Node22 -->
<g id="node15" class="node">
<title>Node22</title>
<g id="a_node15"><a xlink:href="methods_8h.html" target="_top" xlink:title=" ">
<polygon fill="none" stroke="black" points="340.93,-112.5 340.93,-131.5 418.93,-131.5 418.93,-112.5 340.93,-112.5"/>
<text text-anchor="middle" x="379.93" y="-119.5" font-family="Arial" font-size="10.00">util/methods.h</text>
</a>
</g>
</g>
<!-- Node1&#45;&gt;Node22 -->
<g id="edge22" class="edge">
<title>Node1&#45;&gt;Node22</title>
<path fill="none" stroke="midnightblue" d="M416.07,-338.77C372.06,-330.37 323.24,-317.45 309.93,-300 270.59,-248.4 332.78,-171.82 363.9,-138.94"/>
<polygon fill="midnightblue" stroke="midnightblue" points="366.6,-141.18 371.06,-131.57 361.58,-136.3 366.6,-141.18"/>
</g>
<!-- Node27 -->
<g id="node20" class="node">
<title>Node27</title>
<g id="a_node20"><a xlink:href="nsearch_8h.html" target="_top" xlink:title=" ">
<polygon fill="none" stroke="black" points="165.43,-168.5 165.43,-187.5 262.43,-187.5 262.43,-168.5 165.43,-168.5"/>
<text text-anchor="middle" x="213.93" y="-175.5" font-family="Arial" font-size="10.00">nsearch/nsearch.h</text>
</a>
</g>
</g>
<!-- Node1&#45;&gt;Node27 -->
<g id="edge30" class="edge">
<title>Node1&#45;&gt;Node27</title>
<path fill="none" stroke="midnightblue" d="M416.33,-348.18C371.58,-343.26 316.51,-330.7 276.93,-300 243.2,-273.84 225.74,-224.53 218.35,-197.64"/>
<polygon fill="midnightblue" stroke="midnightblue" points="221.66,-196.44 215.79,-187.62 214.88,-198.18 221.66,-196.44"/>
</g>
<!-- Node30 -->
<g id="node23" class="node">
<title>Node30</title>
<g id="a_node23"><a xlink:title=" ">
<polygon fill="none" stroke="#bfbfbf" points="893.43,-280.5 893.43,-299.5 952.43,-299.5 952.43,-280.5 893.43,-280.5"/>
<text text-anchor="middle" x="922.93" y="-287.5" font-family="Arial" font-size="10.00">csv/csv.h</text>
</a>
</g>
</g>
<!-- Node1&#45;&gt;Node30 -->
<g id="edge39" class="edge">
<title>Node1&#45;&gt;Node30</title>
<path fill="none" stroke="midnightblue" d="M571.6,-342.71C648.32,-334.5 769.17,-320.19 883.23,-299.96"/>
<polygon fill="midnightblue" stroke="midnightblue" points="883.96,-303.39 893.18,-298.18 882.72,-296.5 883.96,-303.39"/>
</g>
<!-- Node2&#45;&gt;Node3 -->
<g id="edge2" class="edge">
<title>Node2&#45;&gt;Node3</title>
<path fill="none" stroke="midnightblue" d="M33.93,-168.08C33.93,-161.01 33.93,-150.86 33.93,-141.99"/>
<polygon fill="midnightblue" stroke="midnightblue" points="37.43,-141.75 33.93,-131.75 30.43,-141.75 37.43,-141.75"/>
</g>
<!-- Node4 -->
<g id="node4" class="node">
<title>Node4</title>
<g id="a_node4"><a xlink:title=" ">
<polygon fill="none" stroke="#bfbfbf" points="467.93,-0.5 467.93,-19.5 511.93,-19.5 511.93,-0.5 467.93,-0.5"/>
<text text-anchor="middle" x="489.93" y="-7.5" font-family="Arial" font-size="10.00">vector</text>
</a>
</g>
</g>
<!-- Node2&#45;&gt;Node4 -->
<g id="edge3" class="edge">
<title>Node2&#45;&gt;Node4</title>
<path fill="none" stroke="midnightblue" d="M25.72,-168.18C18.39,-159.66 8.18,-146.02 3.93,-132 -6.64,-97.09 4.46,-76.05 34.93,-56 104.54,-10.2 365.97,-9.26 457.8,-10.4"/>
<polygon fill="midnightblue" stroke="midnightblue" points="457.84,-13.9 467.89,-10.54 457.94,-6.9 457.84,-13.9"/>
</g>
<!-- Node6 -->
<g id="node6" class="node">
<title>Node6</title>
<g id="a_node6"><a xlink:href="baseElem_8h.html" target="_top" xlink:title=" ">
<polygon fill="none" stroke="black" points="450.93,-224.5 450.93,-243.5 518.93,-243.5 518.93,-224.5 450.93,-224.5"/>
<text text-anchor="middle" x="484.93" y="-231.5" font-family="Arial" font-size="10.00">baseElem.h</text>
</a>
</g>
</g>
<!-- Node5&#45;&gt;Node6 -->
<g id="edge5" class="edge">
<title>Node5&#45;&gt;Node6</title>
<path fill="none" stroke="midnightblue" d="M378.9,-280.44C399.54,-271.6 431.99,-257.69 455.56,-247.59"/>
<polygon fill="midnightblue" stroke="midnightblue" points="457.25,-250.67 465.06,-243.52 454.49,-244.24 457.25,-250.67"/>
</g>
<!-- Node7 -->
<g id="node7" class="node">
<title>Node7</title>
<g id="a_node7"><a xlink:href="quadData_8h.html" target="_top" xlink:title=" ">
<polygon fill="none" stroke="black" points="562.43,-168.5 562.43,-187.5 629.43,-187.5 629.43,-168.5 562.43,-168.5"/>
<text text-anchor="middle" x="595.93" y="-175.5" font-family="Arial" font-size="10.00">quadData.h</text>
</a>
</g>
</g>
<!-- Node6&#45;&gt;Node7 -->
<g id="edge6" class="edge">
<title>Node6&#45;&gt;Node7</title>
<path fill="none" stroke="midnightblue" d="M502.77,-224.32C520.65,-215.62 548.41,-202.12 568.98,-192.11"/>
<polygon fill="midnightblue" stroke="midnightblue" points="570.68,-195.18 578.14,-187.65 567.62,-188.88 570.68,-195.18"/>
</g>
<!-- Node6&#45;&gt;Node9 -->
<g id="edge15" class="edge">
<title>Node6&#45;&gt;Node9</title>
<path fill="none" stroke="midnightblue" d="M485.15,-224.31C485.97,-203.73 489.92,-150.86 508.93,-112 514.25,-101.13 522.85,-90.8 530.62,-82.78"/>
<polygon fill="midnightblue" stroke="midnightblue" points="533.27,-85.1 537.97,-75.6 528.37,-80.09 533.27,-85.1"/>
</g>
<!-- Node7&#45;&gt;Node4 -->
<g id="edge14" class="edge">
<title>Node7&#45;&gt;Node4</title>
<path fill="none" stroke="midnightblue" d="M597.33,-168.41C600.29,-147.14 605.02,-91.2 579.93,-56 566.14,-36.65 541.59,-25.16 521.62,-18.64"/>
<polygon fill="midnightblue" stroke="midnightblue" points="522.54,-15.26 511.96,-15.74 520.53,-21.97 522.54,-15.26"/>
</g>
<!-- Node8 -->
<g id="node8" class="node">
<title>Node8</title>
<g id="a_node8"><a xlink:href="io_8h.html" target="_top" xlink:title=" ">
<polygon fill="none" stroke="red" points="626.93,-112.5 626.93,-131.5 674.93,-131.5 674.93,-112.5 626.93,-112.5"/>
<text text-anchor="middle" x="650.93" y="-119.5" font-family="Arial" font-size="10.00">util/io.h</text>
</a>
</g>
</g>
<!-- Node7&#45;&gt;Node8 -->
<g id="edge7" class="edge">
<title>Node7&#45;&gt;Node8</title>
<path fill="none" stroke="midnightblue" d="M605.01,-168.08C613.1,-160.14 625.13,-148.34 634.84,-138.8"/>
<polygon fill="midnightblue" stroke="midnightblue" points="637.33,-141.25 642.02,-131.75 632.43,-136.26 637.33,-141.25"/>
</g>
<!-- Node7&#45;&gt;Node9 -->
<g id="edge13" class="edge">
<title>Node7&#45;&gt;Node9</title>
<path fill="none" stroke="midnightblue" d="M592.16,-168.37C584.35,-150.46 566.23,-108.92 555.76,-84.95"/>
<polygon fill="midnightblue" stroke="midnightblue" points="558.89,-83.36 551.68,-75.59 552.47,-86.16 558.89,-83.36"/>
</g>
<!-- Node8&#45;&gt;Node4 -->
<g id="edge11" class="edge">
<title>Node8&#45;&gt;Node4</title>
<path fill="none" stroke="midnightblue" d="M647.98,-112.13C642.94,-98.26 631.39,-71.43 612.93,-56 586.75,-34.11 548.99,-22.42 522.23,-16.5"/>
<polygon fill="midnightblue" stroke="midnightblue" points="522.71,-13.02 512.21,-14.43 521.29,-19.88 522.71,-13.02"/>
</g>
<!-- Node8&#45;&gt;Node9 -->
<g id="edge8" class="edge">
<title>Node8&#45;&gt;Node9</title>
<path fill="none" stroke="midnightblue" d="M634.38,-112.32C617.94,-103.7 592.5,-90.36 573.46,-80.39"/>
<polygon fill="midnightblue" stroke="midnightblue" points="574.92,-77.2 564.44,-75.65 571.67,-83.4 574.92,-77.2"/>
</g>
<!-- Node8&#45;&gt;Node17 -->
<g id="edge10" class="edge">
<title>Node8&#45;&gt;Node17</title>
<path fill="none" stroke="midnightblue" d="M668.84,-112.44C687.19,-103.68 715.94,-89.94 737.03,-79.86"/>
<polygon fill="midnightblue" stroke="midnightblue" points="738.6,-82.99 746.11,-75.52 735.58,-76.67 738.6,-82.99"/>
</g>
<!-- Node8&#45;&gt;Node18 -->
<g id="edge12" class="edge">
<title>Node8&#45;&gt;Node18</title>
<path fill="none" stroke="midnightblue" d="M657.87,-112.08C663.86,-104.38 672.68,-93.03 679.98,-83.65"/>
<polygon fill="midnightblue" stroke="midnightblue" points="682.75,-85.79 686.13,-75.75 677.22,-81.5 682.75,-85.79"/>
</g>
<!-- Node9&#45;&gt;Node4 -->
<g id="edge9" class="edge">
<title>Node9&#45;&gt;Node4</title>
<path fill="none" stroke="midnightblue" d="M538.61,-56.32C530.04,-48.34 517.12,-36.31 506.74,-26.65"/>
<polygon fill="midnightblue" stroke="midnightblue" points="509.12,-24.09 499.42,-19.83 504.35,-29.21 509.12,-24.09"/>
</g>
<!-- Node19&#45;&gt;Node6 -->
<g id="edge17" class="edge">
<title>Node19&#45;&gt;Node6</title>
<path fill="none" stroke="midnightblue" d="M456.55,-280.08C461.3,-272.53 468.25,-261.49 474.08,-252.23"/>
<polygon fill="midnightblue" stroke="midnightblue" points="477.06,-254.08 479.42,-243.75 471.13,-250.35 477.06,-254.08"/>
</g>
<!-- Node20&#45;&gt;Node6 -->
<g id="edge19" class="edge">
<title>Node20&#45;&gt;Node6</title>
<path fill="none" stroke="midnightblue" d="M529.18,-280.08C521.46,-272.22 510.03,-260.57 500.71,-251.08"/>
<polygon fill="midnightblue" stroke="midnightblue" points="503.02,-248.44 493.52,-243.75 498.03,-253.34 503.02,-248.44"/>
</g>
<!-- Node22&#45;&gt;Node4 -->
<g id="edge26" class="edge">
<title>Node22&#45;&gt;Node4</title>
<path fill="none" stroke="midnightblue" d="M388.56,-112.37C407.04,-93.89 450.64,-50.29 474.19,-26.74"/>
<polygon fill="midnightblue" stroke="midnightblue" points="476.74,-29.14 481.34,-19.59 471.79,-24.19 476.74,-29.14"/>
</g>
<!-- Node22&#45;&gt;Node9 -->
<g id="edge23" class="edge">
<title>Node22&#45;&gt;Node9</title>
<path fill="none" stroke="midnightblue" d="M406.55,-112.44C435.94,-103 483.27,-87.78 514.98,-77.59"/>
<polygon fill="midnightblue" stroke="midnightblue" points="516.23,-80.87 524.68,-74.47 514.09,-74.2 516.23,-80.87"/>
</g>
<!-- Node22&#45;&gt;Node18 -->
<g id="edge29" class="edge">
<title>Node22&#45;&gt;Node18</title>
<path fill="none" stroke="midnightblue" d="M418.94,-114.27C479.23,-103.87 594.35,-84.01 654.37,-73.65"/>
<polygon fill="midnightblue" stroke="midnightblue" points="655.3,-77.04 664.56,-71.89 654.11,-70.15 655.3,-77.04"/>
</g>
<!-- Node23 -->
<g id="node16" class="node">
<title>Node23</title>
<g id="a_node16"><a xlink:title=" ">
<polygon fill="none" stroke="#bfbfbf" points="224.93,-56.5 224.93,-75.5 270.93,-75.5 270.93,-56.5 224.93,-56.5"/>
<text text-anchor="middle" x="247.93" y="-63.5" font-family="Arial" font-size="10.00">cstdint</text>
</a>
</g>
</g>
<!-- Node22&#45;&gt;Node23 -->
<g id="edge24" class="edge">
<title>Node22&#45;&gt;Node23</title>
<path fill="none" stroke="midnightblue" d="M359.02,-112.44C337.2,-103.52 302.78,-89.44 278.04,-79.32"/>
<polygon fill="midnightblue" stroke="midnightblue" points="279.33,-76.06 268.75,-75.52 276.68,-82.54 279.33,-76.06"/>
</g>
<!-- Node24 -->
<g id="node17" class="node">
<title>Node24</title>
<g id="a_node17"><a xlink:title=" ">
<polygon fill="none" stroke="#bfbfbf" points="358.93,-56.5 358.93,-75.5 404.93,-75.5 404.93,-56.5 358.93,-56.5"/>
<text text-anchor="middle" x="381.93" y="-63.5" font-family="Arial" font-size="10.00">cstring</text>
</a>
</g>
</g>
<!-- Node22&#45;&gt;Node24 -->
<g id="edge25" class="edge">
<title>Node22&#45;&gt;Node24</title>
<path fill="none" stroke="midnightblue" d="M380.26,-112.08C380.52,-105.01 380.9,-94.86 381.23,-85.99"/>
<polygon fill="midnightblue" stroke="midnightblue" points="384.73,-85.87 381.61,-75.75 377.74,-85.61 384.73,-85.87"/>
</g>
<!-- Node25 -->
<g id="node18" class="node">
<title>Node25</title>
<g id="a_node18"><a xlink:title=" ">
<polygon fill="none" stroke="#bfbfbf" points="460.93,-56.5 460.93,-75.5 506.93,-75.5 506.93,-56.5 460.93,-56.5"/>
<text text-anchor="middle" x="483.93" y="-63.5" font-family="Arial" font-size="10.00">chrono</text>
</a>
</g>
</g>
<!-- Node22&#45;&gt;Node25 -->
<g id="edge27" class="edge">
<title>Node22&#45;&gt;Node25</title>
<path fill="none" stroke="midnightblue" d="M396.64,-112.32C413.24,-103.7 438.93,-90.36 458.15,-80.39"/>
<polygon fill="midnightblue" stroke="midnightblue" points="460,-83.37 467.26,-75.65 456.78,-77.16 460,-83.37"/>
</g>
<!-- Node26 -->
<g id="node19" class="node">
<title>Node26</title>
<g id="a_node19"><a xlink:title=" ">
<polygon fill="none" stroke="#bfbfbf" points="289.43,-56.5 289.43,-75.5 340.43,-75.5 340.43,-56.5 289.43,-56.5"/>
<text text-anchor="middle" x="314.93" y="-63.5" font-family="Arial" font-size="10.00">numeric</text>
</a>
</g>
</g>
<!-- Node22&#45;&gt;Node26 -->
<g id="edge28" class="edge">
<title>Node22&#45;&gt;Node26</title>
<path fill="none" stroke="midnightblue" d="M369.49,-112.32C359.79,-104.26 345.12,-92.08 333.43,-82.37"/>
<polygon fill="midnightblue" stroke="midnightblue" points="335.49,-79.53 325.56,-75.83 331.02,-84.92 335.49,-79.53"/>
</g>
<!-- Node27&#45;&gt;Node3 -->
<g id="edge34" class="edge">
<title>Node27&#45;&gt;Node3</title>
<path fill="none" stroke="midnightblue" d="M185.41,-168.44C152.35,-158.53 98.09,-142.25 64.27,-132.1"/>
<polygon fill="midnightblue" stroke="midnightblue" points="65.07,-128.69 54.48,-129.16 63.05,-135.39 65.07,-128.69"/>
</g>
<!-- Node27&#45;&gt;Node4 -->
<g id="edge35" class="edge">
<title>Node27&#45;&gt;Node4</title>
<path fill="none" stroke="midnightblue" d="M180.27,-168.42C139.04,-155.88 71.07,-128.15 41.93,-76 37.6,-68.24 35.97,-62.59 41.93,-56 69.76,-25.23 359.52,-14.55 457.65,-11.8"/>
<polygon fill="midnightblue" stroke="midnightblue" points="457.95,-15.29 467.85,-11.52 457.76,-8.29 457.95,-15.29"/>
</g>
<!-- Node27&#45;&gt;Node9 -->
<g id="edge31" class="edge">
<title>Node27&#45;&gt;Node9</title>
<path fill="none" stroke="midnightblue" d="M262.64,-170.86C306.75,-164.34 373.05,-152.15 427.93,-132 447.2,-124.93 495.35,-97.66 524.46,-80.77"/>
<polygon fill="midnightblue" stroke="midnightblue" points="526.31,-83.74 533.18,-75.69 522.78,-77.69 526.31,-83.74"/>
</g>
<!-- Node27&#45;&gt;Node22 -->
<g id="edge32" class="edge">
<title>Node27&#45;&gt;Node22</title>
<path fill="none" stroke="midnightblue" d="M240.23,-168.44C268.28,-159.32 312.88,-144.81 344.12,-134.65"/>
<polygon fill="midnightblue" stroke="midnightblue" points="345.32,-137.94 353.75,-131.52 343.16,-131.28 345.32,-137.94"/>
</g>
<!-- Node27&#45;&gt;Node23 -->
<g id="edge33" class="edge">
<title>Node27&#45;&gt;Node23</title>
<path fill="none" stroke="midnightblue" d="M216.62,-168.38C219.45,-159.32 224.01,-144.66 227.93,-132 232.78,-116.31 238.27,-98.49 242.26,-85.48"/>
<polygon fill="midnightblue" stroke="midnightblue" points="245.63,-86.42 245.22,-75.83 238.94,-84.37 245.63,-86.42"/>
</g>
<!-- Node28 -->
<g id="node21" class="node">
<title>Node28</title>
<g id="a_node21"><a xlink:href="nflannSetup_8h.html" target="_top" xlink:title=" ">
<polygon fill="none" stroke="black" points="142.43,-112.5 142.43,-131.5 219.43,-131.5 219.43,-112.5 142.43,-112.5"/>
<text text-anchor="middle" x="180.93" y="-119.5" font-family="Arial" font-size="10.00">nflannSetup.h</text>
</a>
</g>
</g>
<!-- Node27&#45;&gt;Node28 -->
<g id="edge36" class="edge">
<title>Node27&#45;&gt;Node28</title>
<path fill="none" stroke="midnightblue" d="M208.48,-168.08C203.92,-160.61 197.26,-149.72 191.64,-140.52"/>
<polygon fill="midnightblue" stroke="midnightblue" points="194.48,-138.46 186.28,-131.75 188.51,-142.11 194.48,-138.46"/>
</g>
<!-- Node28&#45;&gt;Node9 -->
<g id="edge37" class="edge">
<title>Node28&#45;&gt;Node9</title>
<path fill="none" stroke="midnightblue" d="M219.66,-117.58C280.52,-111.83 402.35,-98.74 514.48,-76.05"/>
<polygon fill="midnightblue" stroke="midnightblue" points="515.52,-79.41 524.61,-73.97 514.11,-72.55 515.52,-79.41"/>
</g>
<!-- Node29 -->
<g id="node22" class="node">
<title>Node29</title>
<g id="a_node22"><a xlink:title=" ">
<polygon fill="none" stroke="#bfbfbf" points="50.93,-56.5 50.93,-75.5 206.93,-75.5 206.93,-56.5 50.93,-56.5"/>
<text text-anchor="middle" x="128.93" y="-63.5" font-family="Arial" font-size="10.00">nanoflann/include/nanoflann.hpp</text>
</a>
</g>
</g>
<!-- Node28&#45;&gt;Node29 -->
<g id="edge38" class="edge">
<title>Node28&#45;&gt;Node29</title>
<path fill="none" stroke="midnightblue" d="M172.34,-112.08C164.77,-104.22 153.55,-92.57 144.42,-83.08"/>
<polygon fill="midnightblue" stroke="midnightblue" points="146.82,-80.53 137.36,-75.75 141.77,-85.38 146.82,-80.53"/>
</g>
</g>
</svg>
