<?xml version="1.0" encoding="UTF-8" standalone="no"?>
<!DOCTYPE svg PUBLIC "-//W3C//DTD SVG 1.1//EN"
 "http://www.w3.org/Graphics/SVG/1.1/DTD/svg11.dtd">
<!-- Generated by graphviz version 2.43.0 (0)
 -->
<!-- Title: main Pages: 1 -->
<svg width="678pt" height="459pt"
 viewBox="0.00 0.00 678.00 458.50" xmlns="http://www.w3.org/2000/svg" xmlns:xlink="http://www.w3.org/1999/xlink">
<g id="graph0" class="graph" transform="scale(1 1) rotate(0) translate(4 454.5)">
<title>main</title>
<!-- Node1 -->
<g id="node1" class="node">
<title>Node1</title>
<g id="a_node1"><a xlink:title=" ">
<polygon fill="#bfbfbf" stroke="black" points="0,-218.5 0,-237.5 38,-237.5 38,-218.5 0,-218.5"/>
<text text-anchor="middle" x="19" y="-225.5" font-family="Arial" font-size="10.00">main</text>
</a>
</g>
</g>
<!-- Node2 -->
<g id="node2" class="node">
<title>Node2</title>
<g id="a_node2"><a xlink:href="classutil_1_1io_1_1InputParser.html#aa96876b43b2ea728d90f2e108959908d" target="_top" xlink:title="Check if argument exists.">
<polygon fill="none" stroke="black" points="88.5,-420 88.5,-450 187.5,-450 187.5,-420 88.5,-420"/>
<text text-anchor="start" x="96.5" y="-438" font-family="Arial" font-size="10.00">util::io::InputParser</text>
<text text-anchor="middle" x="138" y="-427" font-family="Arial" font-size="10.00">::cmdOptionExists</text>
</a>
</g>
</g>
<!-- Node1&#45;&gt;Node2 -->
<g id="edge1" class="edge">
<title>Node1&#45;&gt;Node2</title>
<path fill="none" stroke="midnightblue" d="M20.01,-237.79C20.57,-267.79 26.29,-359.47 74,-411 75.77,-412.92 77.72,-414.68 79.79,-416.31"/>
<polygon fill="midnightblue" stroke="midnightblue" points="78.03,-419.34 88.31,-421.9 81.87,-413.49 78.03,-419.34"/>
</g>
<!-- Node3 -->
<g id="node3" class="node">
<title>Node3</title>
<g id="a_node3"><a xlink:href="classutil_1_1io_1_1InputParser.html#a35153cf2599a94625a88a8e8b0b86d25" target="_top" xlink:title="Get value of argument specified by key.">
<polygon fill="none" stroke="black" points="88.5,-371 88.5,-401 187.5,-401 187.5,-371 88.5,-371"/>
<text text-anchor="start" x="96.5" y="-389" font-family="Arial" font-size="10.00">util::io::InputParser</text>
<text text-anchor="middle" x="138" y="-378" font-family="Arial" font-size="10.00">::getCmdOption</text>
</a>
</g>
</g>
<!-- Node1&#45;&gt;Node3 -->
<g id="edge2" class="edge">
<title>Node1&#45;&gt;Node3</title>
<path fill="none" stroke="midnightblue" d="M21.64,-237.64C26.04,-260.86 40.17,-320.61 74,-356 77.38,-359.54 81.26,-362.7 85.4,-365.53"/>
<polygon fill="midnightblue" stroke="midnightblue" points="83.82,-368.66 94.18,-370.86 87.45,-362.68 83.82,-368.66"/>
</g>
<!-- Node4 -->
<g id="node4" class="node">
<title>Node4</title>
<g id="a_node4"><a xlink:href="namespaceutil_1_1parallel.html#a836a5bd06aa09111f66f69f97c1f093c" target="_top" xlink:title="Returns pointer to MpiStatus struct.">
<polygon fill="none" stroke="black" points="238,-332.5 238,-351.5 368,-351.5 368,-332.5 238,-332.5"/>
<text text-anchor="middle" x="303" y="-339.5" font-family="Arial" font-size="10.00">util::parallel::getMpiStatus</text>
</a>
</g>
</g>
<!-- Node1&#45;&gt;Node4 -->
<g id="edge3" class="edge">
<title>Node1&#45;&gt;Node4</title>
<path fill="none" stroke="midnightblue" d="M22.63,-237.64C28.39,-256.68 44.04,-298.9 74,-318 119.26,-346.86 180.1,-351.97 227.55,-350.35"/>
<polygon fill="midnightblue" stroke="midnightblue" points="227.94,-353.84 237.77,-349.89 227.62,-346.84 227.94,-353.84"/>
</g>
<!-- Node5 -->
<g id="node5" class="node">
<title>Node5</title>
<g id="a_node5"><a xlink:href="namespaceutil_1_1parallel.html#aa0c65ae0f7fb6e0c4f3104c5bf3b1ff6" target="_top" xlink:title="Initializes MPI and also creates MpiStatus struct.">
<polygon fill="none" stroke="black" points="404,-265.5 404,-284.5 505,-284.5 505,-265.5 404,-265.5"/>
<text text-anchor="middle" x="454.5" y="-272.5" font-family="Arial" font-size="10.00">util::parallel::initMpi</text>
</a>
</g>
</g>
<!-- Node1&#45;&gt;Node5 -->
<g id="edge7" class="edge">
<title>Node1&#45;&gt;Node5</title>
<path fill="none" stroke="midnightblue" d="M25.49,-237.52C33.92,-251.06 51.46,-275.3 74,-285 187.68,-333.9 338.76,-305.69 411.22,-287.17"/>
<polygon fill="midnightblue" stroke="midnightblue" points="412.54,-290.45 421.32,-284.52 410.76,-283.68 412.54,-290.45"/>
</g>
<!-- Node7 -->
<g id="node7" class="node">
<title>Node7</title>
<g id="a_node7"><a xlink:href="namespaceutil_1_1parallel.html#a4ad550a438091fb9cd924783e690764d" target="_top" xlink:title="Get number of threads to be used by taskflow.">
<polygon fill="none" stroke="black" points="74,-256.5 74,-275.5 202,-275.5 202,-256.5 74,-256.5"/>
<text text-anchor="middle" x="138" y="-263.5" font-family="Arial" font-size="10.00">util::parallel::getNThreads</text>
</a>
</g>
</g>
<!-- Node1&#45;&gt;Node7 -->
<g id="edge6" class="edge">
<title>Node1&#45;&gt;Node7</title>
<path fill="none" stroke="midnightblue" d="M38.42,-234.72C48.83,-238.45 62.1,-243.11 74,-247 80.57,-249.14 87.55,-251.34 94.38,-253.43"/>
<polygon fill="midnightblue" stroke="midnightblue" points="93.63,-256.86 104.21,-256.42 95.66,-250.16 93.63,-256.86"/>
</g>
<!-- Node8 -->
<g id="node8" class="node">
<title>Node8</title>
<g id="a_node8"><a xlink:href="namespaceutil_1_1parallel.html#a51937c54a3624744fa6dff8f5e312862" target="_top" xlink:title="Initializes MpiStatus struct.">
<polygon fill="none" stroke="black" points="74,-218.5 74,-237.5 202,-237.5 202,-218.5 74,-218.5"/>
<text text-anchor="middle" x="138" y="-225.5" font-family="Arial" font-size="10.00">util::parallel::initNThreads</text>
</a>
</g>
</g>
<!-- Node1&#45;&gt;Node8 -->
<g id="edge8" class="edge">
<title>Node1&#45;&gt;Node8</title>
<path fill="none" stroke="midnightblue" d="M38.02,-228C45.35,-228 54.34,-228 63.88,-228"/>
<polygon fill="midnightblue" stroke="midnightblue" points="63.98,-231.5 73.98,-228 63.98,-224.5 63.98,-231.5"/>
</g>
<!-- Node9 -->
<g id="node9" class="node">
<title>Node9</title>
<g id="a_node9"><a xlink:href="namespaceutil_1_1parallel.html#adb80f14125b7556bb478cc3725508fa8" target="_top" xlink:title="get rank (id) of this processor">
<polygon fill="none" stroke="black" points="247.5,-142.5 247.5,-161.5 358.5,-161.5 358.5,-142.5 247.5,-142.5"/>
<text text-anchor="middle" x="303" y="-149.5" font-family="Arial" font-size="10.00">util::parallel::mpiRank</text>
</a>
</g>
</g>
<!-- Node1&#45;&gt;Node9 -->
<g id="edge9" class="edge">
<title>Node1&#45;&gt;Node9</title>
<path fill="none" stroke="midnightblue" d="M35.04,-218.39C45.58,-212.04 60.2,-204.01 74,-199 127.45,-179.61 191,-167.34 237.42,-160.21"/>
<polygon fill="midnightblue" stroke="midnightblue" points="237.98,-163.67 247.35,-158.73 236.94,-156.75 237.98,-163.67"/>
</g>
<!-- Node10 -->
<g id="node10" class="node">
<title>Node10</title>
<g id="a_node10"><a xlink:href="namespaceutil_1_1parallel.html#ad67dcfb56bf70d082e443e849c832c00" target="_top" xlink:title="Get size (number) of processors.">
<polygon fill="none" stroke="black" points="249.5,-208.5 249.5,-227.5 356.5,-227.5 356.5,-208.5 249.5,-208.5"/>
<text text-anchor="middle" x="303" y="-215.5" font-family="Arial" font-size="10.00">util::parallel::mpiSize</text>
</a>
</g>
</g>
<!-- Node1&#45;&gt;Node10 -->
<g id="edge11" class="edge">
<title>Node1&#45;&gt;Node10</title>
<path fill="none" stroke="midnightblue" d="M38.08,-219.91C48.38,-215.74 61.66,-211.11 74,-209 129.18,-199.58 192.91,-203.3 238.95,-208.52"/>
<polygon fill="midnightblue" stroke="midnightblue" points="238.73,-212.02 249.07,-209.73 239.56,-205.07 238.73,-212.02"/>
</g>
<!-- Node11 -->
<g id="node11" class="node">
<title>Node11</title>
<g id="a_node11"><a xlink:href="namespaceutil_1_1io.html#a578a578ce41389fb01e56de7316b7054" target="_top" xlink:title="Prints formatted information.">
<polygon fill="none" stroke="black" points="104,-104.5 104,-123.5 172,-123.5 172,-104.5 104,-104.5"/>
<text text-anchor="middle" x="138" y="-111.5" font-family="Arial" font-size="10.00">util::io::print</text>
</a>
</g>
</g>
<!-- Node1&#45;&gt;Node11 -->
<g id="edge13" class="edge">
<title>Node1&#45;&gt;Node11</title>
<path fill="none" stroke="midnightblue" d="M23.3,-218.43C30.04,-200.27 47.04,-160.58 74,-138 79.86,-133.09 86.83,-129.13 93.96,-125.94"/>
<polygon fill="midnightblue" stroke="midnightblue" points="95.71,-129.02 103.7,-122.07 93.12,-122.51 95.71,-129.02"/>
</g>
<!-- Node12 -->
<g id="node12" class="node">
<title>Node12</title>
<g id="a_node12"><a xlink:href="namespaceutil_1_1io.html#a3e537e3bd778616255015cde6e60a30a" target="_top" xlink:title="Returns formatted string for output.">
<polygon fill="none" stroke="black" points="263,-95.5 263,-114.5 343,-114.5 343,-95.5 263,-95.5"/>
<text text-anchor="middle" x="303" y="-102.5" font-family="Arial" font-size="10.00">util::io::printStr</text>
</a>
</g>
</g>
<!-- Node1&#45;&gt;Node12 -->
<g id="edge17" class="edge">
<title>Node1&#45;&gt;Node12</title>
<path fill="none" stroke="midnightblue" d="M20.47,-218.41C22.31,-192.99 31.21,-123.81 74,-95 132.91,-55.34 221.11,-76.12 268.69,-92.15"/>
<polygon fill="midnightblue" stroke="midnightblue" points="267.61,-95.48 278.21,-95.47 269.92,-88.87 267.61,-95.48"/>
</g>
<!-- Node14 -->
<g id="node14" class="node">
<title>Node14</title>
<g id="a_node14"><a xlink:href="namespacetest.html#ae165316fc718590c70e7cdc08a093568" target="_top" xlink:title="Tests PeriDEM model class.">
<polygon fill="none" stroke="black" points="90.5,-28.5 90.5,-47.5 185.5,-47.5 185.5,-28.5 90.5,-28.5"/>
<text text-anchor="middle" x="138" y="-35.5" font-family="Arial" font-size="10.00">test::testPeriDEM</text>
</a>
</g>
</g>
<!-- Node1&#45;&gt;Node14 -->
<g id="edge18" class="edge">
<title>Node1&#45;&gt;Node14</title>
<path fill="none" stroke="midnightblue" d="M20.35,-218.31C21.9,-190.27 30.12,-108.1 74,-62 77.64,-58.18 81.95,-54.96 86.58,-52.24"/>
<polygon fill="midnightblue" stroke="midnightblue" points="88.43,-55.24 95.8,-47.63 85.29,-48.98 88.43,-55.24"/>
</g>
<!-- Node4&#45;&gt;Node5 -->
<g id="edge4" class="edge">
<title>Node4&#45;&gt;Node5</title>
<path fill="none" stroke="midnightblue" d="M331.35,-332.48C342.79,-328.3 356.15,-323.18 368,-318 387.98,-309.26 409.94,-298.18 426.61,-289.46"/>
<polygon fill="midnightblue" stroke="midnightblue" points="428.54,-292.39 435.75,-284.63 425.28,-286.2 428.54,-292.39"/>
</g>
<!-- Node6 -->
<g id="node6" class="node">
<title>Node6</title>
<g id="a_node6"><a xlink:href="namespaceutil_1_1parallel.html#a47cb50d2db6de7cf2a786994f274cc9a" target="_top" xlink:title="Initializes MpiStatus struct.">
<polygon fill="none" stroke="black" points="541,-265.5 541,-284.5 670,-284.5 670,-265.5 541,-265.5"/>
<text text-anchor="middle" x="605.5" y="-272.5" font-family="Arial" font-size="10.00">util::parallel::initMpiStatus</text>
</a>
</g>
</g>
<!-- Node5&#45;&gt;Node6 -->
<g id="edge5" class="edge">
<title>Node5&#45;&gt;Node6</title>
<path fill="none" stroke="midnightblue" d="M505.11,-275C513.33,-275 522,-275 530.66,-275"/>
<polygon fill="midnightblue" stroke="midnightblue" points="530.79,-278.5 540.79,-275 530.79,-271.5 530.79,-278.5"/>
</g>
<!-- Node9&#45;&gt;Node5 -->
<g id="edge10" class="edge">
<title>Node9&#45;&gt;Node5</title>
<path fill="none" stroke="midnightblue" d="M317.76,-161.54C330.91,-170.8 351.17,-185.39 368,-199 392.15,-218.53 418.71,-242.57 435.71,-258.31"/>
<polygon fill="midnightblue" stroke="midnightblue" points="433.54,-261.07 443.24,-265.32 438.31,-255.94 433.54,-261.07"/>
</g>
<!-- Node10&#45;&gt;Node5 -->
<g id="edge12" class="edge">
<title>Node10&#45;&gt;Node5</title>
<path fill="none" stroke="midnightblue" d="M329.02,-227.54C353.6,-236.91 391.31,-251.29 418.78,-261.76"/>
<polygon fill="midnightblue" stroke="midnightblue" points="417.8,-265.14 428.4,-265.43 420.3,-258.6 417.8,-265.14"/>
</g>
<!-- Node11&#45;&gt;Node9 -->
<g id="edge14" class="edge">
<title>Node11&#45;&gt;Node9</title>
<path fill="none" stroke="midnightblue" d="M172.38,-121.78C195.07,-127.07 225.52,-134.17 251.21,-140.16"/>
<polygon fill="midnightblue" stroke="midnightblue" points="250.62,-143.62 261.15,-142.48 252.21,-136.8 250.62,-143.62"/>
</g>
<!-- Node11&#45;&gt;Node12 -->
<g id="edge15" class="edge">
<title>Node11&#45;&gt;Node12</title>
<path fill="none" stroke="midnightblue" d="M172.38,-112.16C195.57,-110.88 226.85,-109.15 252.88,-107.71"/>
<polygon fill="midnightblue" stroke="midnightblue" points="253.14,-111.2 262.93,-107.16 252.75,-104.21 253.14,-111.2"/>
</g>
<!-- Node13 -->
<g id="node13" class="node">
<title>Node13</title>
<g id="a_node13"><a xlink:href="namespaceutil_1_1io.html#a38afb09a152cca4061850f4123bd3aeb" target="_top" xlink:title="Returns tab spaces of given size.">
<polygon fill="none" stroke="black" points="412,-95.5 412,-114.5 497,-114.5 497,-95.5 412,-95.5"/>
<text text-anchor="middle" x="454.5" y="-102.5" font-family="Arial" font-size="10.00">util::io::getTabS</text>
</a>
</g>
</g>
<!-- Node12&#45;&gt;Node13 -->
<g id="edge16" class="edge">
<title>Node12&#45;&gt;Node13</title>
<path fill="none" stroke="midnightblue" d="M343.28,-105C361.17,-105 382.6,-105 401.78,-105"/>
<polygon fill="midnightblue" stroke="midnightblue" points="401.87,-108.5 411.87,-105 401.87,-101.5 401.87,-108.5"/>
</g>
<!-- Node15 -->
<g id="node15" class="node">
<title>Node15</title>
<g id="a_node15"><a xlink:href="classmodel_1_1DEMModel.html#ae8eba7a12449983fa10d07e3b7374512" target="_top" xlink:title="Main driver to simulate.">
<polygon fill="none" stroke="black" points="244.5,-0.5 244.5,-19.5 361.5,-19.5 361.5,-0.5 244.5,-0.5"/>
<text text-anchor="middle" x="303" y="-7.5" font-family="Arial" font-size="10.00">model::DEMModel::run</text>
</a>
</g>
</g>
<!-- Node14&#45;&gt;Node15 -->
<g id="edge19" class="edge">
<title>Node14&#45;&gt;Node15</title>
<path fill="none" stroke="midnightblue" d="M185.71,-29.98C201.59,-27.25 219.65,-24.15 236.72,-21.21"/>
<polygon fill="midnightblue" stroke="midnightblue" points="237.37,-24.65 246.63,-19.51 236.18,-17.76 237.37,-24.65"/>
</g>
<!-- Node16 -->
<g id="node16" class="node">
<title>Node16</title>
<g id="a_node16"><a xlink:href="namespaceutil_1_1methods.html#aaf9cfac99073d034d41e10d4d17e59a2" target="_top" xlink:title="Returns difference between two times.">
<polygon fill="none" stroke="black" points="246.5,-38.5 246.5,-57.5 359.5,-57.5 359.5,-38.5 246.5,-38.5"/>
<text text-anchor="middle" x="303" y="-45.5" font-family="Arial" font-size="10.00">util::methods::timeDiff</text>
</a>
</g>
</g>
<!-- Node14&#45;&gt;Node16 -->
<g id="edge20" class="edge">
<title>Node14&#45;&gt;Node16</title>
<path fill="none" stroke="midnightblue" d="M185.71,-40.87C201.37,-41.83 219.14,-42.92 235.99,-43.95"/>
<polygon fill="midnightblue" stroke="midnightblue" points="236.14,-47.47 246.33,-44.58 236.57,-40.48 236.14,-47.47"/>
</g>
</g>
</svg>
