<?xml version="1.0" encoding="UTF-8" standalone="no"?>
<!DOCTYPE svg PUBLIC "-//W3C//DTD SVG 1.1//EN"
 "http://www.w3.org/Graphics/SVG/1.1/DTD/svg11.dtd">
<!-- Generated by graphviz version 2.43.0 (0)
 -->
<!-- Title: /home/user/project/test/test_exec/meshpartitioning/testMeshPartitioningLib.cpp Pages: 1 -->
<svg width="1583pt" height="274pt"
 viewBox="0.00 0.00 1582.50 274.00" xmlns="http://www.w3.org/2000/svg" xmlns:xlink="http://www.w3.org/1999/xlink">
<g id="graph0" class="graph" transform="scale(1 1) rotate(0) translate(4 270)">
<title>/home/user/project/test/test_exec/meshpartitioning/testMeshPartitioningLib.cpp</title>
<!-- Node1 -->
<g id="node1" class="node">
<title>Node1</title>
<g id="a_node1"><a xlink:title=" ">
<polygon fill="#bfbfbf" stroke="black" points="693.5,-224.5 693.5,-265.5 849.5,-265.5 849.5,-224.5 693.5,-224.5"/>
<text text-anchor="start" x="701.5" y="-253.5" font-family="Arial" font-size="10.00">/home/user/project</text>
<text text-anchor="start" x="701.5" y="-242.5" font-family="Arial" font-size="10.00">/test/test_exec/meshpartitioning</text>
<text text-anchor="middle" x="771.5" y="-231.5" font-family="Arial" font-size="10.00">/testMeshPartitioningLib.cpp</text>
</a>
</g>
</g>
<!-- Node2 -->
<g id="node2" class="node">
<title>Node2</title>
<g id="a_node2"><a xlink:href="testMeshPartitioningLib_8h.html" target="_top" xlink:title=" ">
<polygon fill="none" stroke="black" points="93,-112.5 93,-131.5 220,-131.5 220,-112.5 93,-112.5"/>
<text text-anchor="middle" x="156.5" y="-119.5" font-family="Arial" font-size="10.00">testMeshPartitioningLib.h</text>
</a>
</g>
</g>
<!-- Node1&#45;&gt;Node2 -->
<g id="edge1" class="edge">
<title>Node1&#45;&gt;Node2</title>
<path fill="none" stroke="midnightblue" d="M693.35,-241.42C564.9,-236.27 315.3,-222.1 234.5,-188 208.74,-177.13 184.95,-154.77 170.59,-139.34"/>
<polygon fill="midnightblue" stroke="midnightblue" points="172.91,-136.69 163.62,-131.59 167.71,-141.37 172.91,-136.69"/>
</g>
<!-- Node3 -->
<g id="node3" class="node">
<title>Node3</title>
<g id="a_node3"><a xlink:title=" ">
<polygon fill="none" stroke="#bfbfbf" points="228,-56.5 228,-75.5 269,-75.5 269,-56.5 228,-56.5"/>
<text text-anchor="middle" x="248.5" y="-63.5" font-family="Arial" font-size="10.00">string</text>
</a>
</g>
</g>
<!-- Node1&#45;&gt;Node3 -->
<g id="edge52" class="edge">
<title>Node1&#45;&gt;Node3</title>
<path fill="none" stroke="midnightblue" d="M693.25,-236.69C567.29,-223.31 327.67,-190.73 268.5,-132 256.33,-119.92 251.53,-100.64 249.66,-86.21"/>
<polygon fill="midnightblue" stroke="midnightblue" points="253.11,-85.53 248.7,-75.9 246.14,-86.18 253.11,-85.53"/>
</g>
<!-- Node5 -->
<g id="node5" class="node">
<title>Node5</title>
<g id="a_node5"><a xlink:href="mesh_8h.html" target="_top" xlink:title=" ">
<polygon fill="none" stroke="black" points="1050.5,-168.5 1050.5,-187.5 1110.5,-187.5 1110.5,-168.5 1050.5,-168.5"/>
<text text-anchor="middle" x="1080.5" y="-175.5" font-family="Arial" font-size="10.00">fe/mesh.h</text>
</a>
</g>
</g>
<!-- Node1&#45;&gt;Node5 -->
<g id="edge4" class="edge">
<title>Node1&#45;&gt;Node5</title>
<path fill="none" stroke="midnightblue" d="M849.87,-227.51C910.51,-214.76 991.99,-197.62 1040.11,-187.5"/>
<polygon fill="midnightblue" stroke="midnightblue" points="1041.08,-190.87 1050.14,-185.39 1039.64,-184.02 1041.08,-190.87"/>
</g>
<!-- Node6 -->
<g id="node6" class="node">
<title>Node6</title>
<g id="a_node6"><a xlink:href="point_8h.html" target="_top" xlink:title=" ">
<polygon fill="none" stroke="black" points="1059.5,-56.5 1059.5,-75.5 1121.5,-75.5 1121.5,-56.5 1059.5,-56.5"/>
<text text-anchor="middle" x="1090.5" y="-63.5" font-family="Arial" font-size="10.00">util/point.h</text>
</a>
</g>
</g>
<!-- Node1&#45;&gt;Node6 -->
<g id="edge20" class="edge">
<title>Node1&#45;&gt;Node6</title>
<path fill="none" stroke="midnightblue" d="M849.55,-241.56C971.41,-236.71 1200.5,-223.11 1273.5,-188 1305.22,-172.75 1316.03,-164.52 1329.5,-132 1332.9,-123.79 1335.17,-118.84 1329.5,-112 1304.85,-82.28 1193.41,-72.05 1131.79,-68.64"/>
<polygon fill="midnightblue" stroke="midnightblue" points="1131.79,-65.14 1121.62,-68.11 1131.42,-72.13 1131.79,-65.14"/>
</g>
<!-- Node13 -->
<g id="node13" class="node">
<title>Node13</title>
<g id="a_node13"><a xlink:href="meshPartitioning_8h.html" target="_top" xlink:title=" ">
<polygon fill="none" stroke="black" points="277,-112.5 277,-131.5 386,-131.5 386,-112.5 277,-112.5"/>
<text text-anchor="middle" x="331.5" y="-119.5" font-family="Arial" font-size="10.00">fe/meshPartitioning.h</text>
</a>
</g>
</g>
<!-- Node1&#45;&gt;Node13 -->
<g id="edge14" class="edge">
<title>Node1&#45;&gt;Node13</title>
<path fill="none" stroke="midnightblue" d="M693.34,-228.54C644.26,-218.28 579.8,-203.84 523.5,-188 466.59,-171.99 401.69,-149 363.8,-135.09"/>
<polygon fill="midnightblue" stroke="midnightblue" points="364.9,-131.77 354.31,-131.59 362.48,-138.33 364.9,-131.77"/>
</g>
<!-- Node14 -->
<g id="node14" class="node">
<title>Node14</title>
<g id="a_node14"><a xlink:href="meshUtil_8h.html" target="_top" xlink:title=" ">
<polygon fill="none" stroke="black" points="0,-112.5 0,-131.5 75,-131.5 75,-112.5 0,-112.5"/>
<text text-anchor="middle" x="37.5" y="-119.5" font-family="Arial" font-size="10.00">fe/meshUtil.h</text>
</a>
</g>
</g>
<!-- Node1&#45;&gt;Node14 -->
<g id="edge17" class="edge">
<title>Node1&#45;&gt;Node14</title>
<path fill="none" stroke="midnightblue" d="M693.22,-243.25C582.12,-240.64 373.02,-229.96 200.5,-188 150.33,-175.8 95.15,-151.27 63.58,-136.08"/>
<polygon fill="midnightblue" stroke="midnightblue" points="65.1,-132.92 54.58,-131.69 62.03,-139.21 65.1,-132.92"/>
</g>
<!-- Node15 -->
<g id="node15" class="node">
<title>Node15</title>
<g id="a_node15"><a xlink:href="methods_8h.html" target="_top" xlink:title=" ">
<polygon fill="none" stroke="black" points="927.5,-168.5 927.5,-187.5 1005.5,-187.5 1005.5,-168.5 927.5,-168.5"/>
<text text-anchor="middle" x="966.5" y="-175.5" font-family="Arial" font-size="10.00">util/methods.h</text>
</a>
</g>
</g>
<!-- Node1&#45;&gt;Node15 -->
<g id="edge21" class="edge">
<title>Node1&#45;&gt;Node15</title>
<path fill="none" stroke="midnightblue" d="M830.01,-224.5C862.88,-213.54 902.83,-200.22 930.99,-190.84"/>
<polygon fill="midnightblue" stroke="midnightblue" points="932.42,-194.05 940.8,-187.57 930.21,-187.41 932.42,-194.05"/>
</g>
<!-- Node17 -->
<g id="node17" class="node">
<title>Node17</title>
<g id="a_node17"><a xlink:href="io_8h.html" target="_top" xlink:title=" ">
<polygon fill="none" stroke="black" points="586.5,-168.5 586.5,-187.5 634.5,-187.5 634.5,-168.5 586.5,-168.5"/>
<text text-anchor="middle" x="610.5" y="-175.5" font-family="Arial" font-size="10.00">util/io.h</text>
</a>
</g>
</g>
<!-- Node1&#45;&gt;Node17 -->
<g id="edge27" class="edge">
<title>Node1&#45;&gt;Node17</title>
<path fill="none" stroke="midnightblue" d="M723.19,-224.5C696.61,-213.77 664.42,-200.77 641.26,-191.42"/>
<polygon fill="midnightblue" stroke="midnightblue" points="642.51,-188.15 631.93,-187.65 639.89,-194.64 642.51,-188.15"/>
</g>
<!-- Node21 -->
<g id="node21" class="node">
<title>Node21</title>
<g id="a_node21"><a xlink:title=" ">
<polygon fill="none" stroke="#bfbfbf" points="404.5,-112.5 404.5,-131.5 454.5,-131.5 454.5,-112.5 404.5,-112.5"/>
<text text-anchor="middle" x="429.5" y="-119.5" font-family="Arial" font-size="10.00">fstream</text>
</a>
</g>
</g>
<!-- Node1&#45;&gt;Node21 -->
<g id="edge51" class="edge">
<title>Node1&#45;&gt;Node21</title>
<path fill="none" stroke="midnightblue" d="M695.2,-224.5C659.15,-214.64 615.74,-201.85 577.5,-188 534.12,-172.29 485.41,-149.95 456.12,-135.97"/>
<polygon fill="midnightblue" stroke="midnightblue" points="457.49,-132.75 446.96,-131.58 454.46,-139.06 457.49,-132.75"/>
</g>
<!-- Node22 -->
<g id="node22" class="node">
<title>Node22</title>
<g id="a_node22"><a xlink:title=" ">
<polygon fill="none" stroke="#bfbfbf" points="676.5,-112.5 676.5,-131.5 732.5,-131.5 732.5,-112.5 676.5,-112.5"/>
<text text-anchor="middle" x="704.5" y="-119.5" font-family="Arial" font-size="10.00">algorithm</text>
</a>
</g>
</g>
<!-- Node1&#45;&gt;Node22 -->
<g id="edge50" class="edge">
<title>Node1&#45;&gt;Node22</title>
<path fill="none" stroke="midnightblue" d="M760.59,-224.29C747.72,-201.06 726.55,-162.82 714.22,-140.56"/>
<polygon fill="midnightblue" stroke="midnightblue" points="717.15,-138.63 709.25,-131.57 711.03,-142.02 717.15,-138.63"/>
</g>
<!-- Node23 -->
<g id="node23" class="node">
<title>Node23</title>
<g id="a_node23"><a xlink:href="writer_8h.html" target="_top" xlink:title=" ">
<polygon fill="none" stroke="black" points="1202.5,-168.5 1202.5,-187.5 1264.5,-187.5 1264.5,-168.5 1202.5,-168.5"/>
<text text-anchor="middle" x="1233.5" y="-175.5" font-family="Arial" font-size="10.00">rw/writer.h</text>
</a>
</g>
</g>
<!-- Node1&#45;&gt;Node23 -->
<g id="edge38" class="edge">
<title>Node1&#45;&gt;Node23</title>
<path fill="none" stroke="midnightblue" d="M849.61,-233.01C948.4,-219.11 1114.9,-195.69 1192.01,-184.84"/>
<polygon fill="midnightblue" stroke="midnightblue" points="1192.86,-188.25 1202.28,-183.39 1191.89,-181.32 1192.86,-188.25"/>
</g>
<!-- Node25 -->
<g id="node25" class="node">
<title>Node25</title>
<g id="a_node25"><a xlink:href="geometryUtil_8h.html" target="_top" xlink:title=" ">
<polygon fill="none" stroke="black" points="750.5,-112.5 750.5,-131.5 874.5,-131.5 874.5,-112.5 750.5,-112.5"/>
<text text-anchor="middle" x="812.5" y="-119.5" font-family="Arial" font-size="10.00">geometry/geometryUtil.h</text>
</a>
</g>
</g>
<!-- Node1&#45;&gt;Node25 -->
<g id="edge45" class="edge">
<title>Node1&#45;&gt;Node25</title>
<path fill="none" stroke="midnightblue" d="M778.18,-224.29C785.98,-201.27 798.78,-163.5 806.34,-141.17"/>
<polygon fill="midnightblue" stroke="midnightblue" points="809.7,-142.17 809.59,-131.57 803.07,-139.92 809.7,-142.17"/>
</g>
<!-- Node26 -->
<g id="node26" class="node">
<title>Node26</title>
<g id="a_node26"><a xlink:title=" ">
<polygon fill="none" stroke="#bfbfbf" points="1437,-168.5 1437,-187.5 1486,-187.5 1486,-168.5 1437,-168.5"/>
<text text-anchor="middle" x="1461.5" y="-175.5" font-family="Arial" font-size="10.00">metis.h</text>
</a>
</g>
</g>
<!-- Node1&#45;&gt;Node26 -->
<g id="edge48" class="edge">
<title>Node1&#45;&gt;Node26</title>
<path fill="none" stroke="midnightblue" d="M849.59,-240.84C972.22,-235.09 1217.16,-220.36 1422.5,-188 1423.96,-187.77 1425.44,-187.52 1426.94,-187.24"/>
<polygon fill="midnightblue" stroke="midnightblue" points="1427.74,-190.65 1436.85,-185.24 1426.35,-183.79 1427.74,-190.65"/>
</g>
<!-- Node27 -->
<g id="node27" class="node">
<title>Node27</title>
<g id="a_node27"><a xlink:title=" ">
<polygon fill="none" stroke="#bfbfbf" points="1504.5,-168.5 1504.5,-187.5 1574.5,-187.5 1574.5,-168.5 1504.5,-168.5"/>
<text text-anchor="middle" x="1539.5" y="-175.5" font-family="Arial" font-size="10.00">fmt/format.h</text>
</a>
</g>
</g>
<!-- Node1&#45;&gt;Node27 -->
<g id="edge49" class="edge">
<title>Node1&#45;&gt;Node27</title>
<path fill="none" stroke="midnightblue" d="M849.52,-241.15C980.77,-235.66 1254.12,-221.22 1494.07,-188.04"/>
<polygon fill="midnightblue" stroke="midnightblue" points="1494.6,-191.5 1504.02,-186.65 1493.64,-184.57 1494.6,-191.5"/>
</g>
<!-- Node2&#45;&gt;Node3 -->
<g id="edge2" class="edge">
<title>Node2&#45;&gt;Node3</title>
<path fill="none" stroke="midnightblue" d="M171.28,-112.32C185.77,-103.82 208.07,-90.73 224.99,-80.8"/>
<polygon fill="midnightblue" stroke="midnightblue" points="226.9,-83.74 233.76,-75.65 223.36,-77.7 226.9,-83.74"/>
</g>
<!-- Node4 -->
<g id="node4" class="node">
<title>Node4</title>
<g id="a_node4"><a xlink:title=" ">
<polygon fill="none" stroke="#bfbfbf" points="597.5,-0.5 597.5,-19.5 641.5,-19.5 641.5,-0.5 597.5,-0.5"/>
<text text-anchor="middle" x="619.5" y="-7.5" font-family="Arial" font-size="10.00">vector</text>
</a>
</g>
</g>
<!-- Node2&#45;&gt;Node4 -->
<g id="edge3" class="edge">
<title>Node2&#45;&gt;Node4</title>
<path fill="none" stroke="midnightblue" d="M161.86,-112.43C171.44,-97.97 192.98,-69.02 219.5,-56 284.17,-24.24 504.2,-14.45 587.33,-11.84"/>
<polygon fill="midnightblue" stroke="midnightblue" points="587.56,-15.33 597.45,-11.54 587.35,-8.34 587.56,-15.33"/>
</g>
<!-- Node5&#45;&gt;Node4 -->
<g id="edge13" class="edge">
<title>Node5&#45;&gt;Node4</title>
<path fill="none" stroke="midnightblue" d="M1075.39,-168.34C1066.62,-154.27 1047.33,-126.54 1023.5,-112 900.52,-36.95 724.21,-17.54 652.11,-12.63"/>
<polygon fill="midnightblue" stroke="midnightblue" points="652.05,-9.11 641.85,-11.98 651.61,-16.1 652.05,-9.11"/>
</g>
<!-- Node5&#45;&gt;Node6 -->
<g id="edge5" class="edge">
<title>Node5&#45;&gt;Node6</title>
<path fill="none" stroke="midnightblue" d="M1081.28,-168.37C1082.9,-150.62 1086.62,-109.67 1088.81,-85.6"/>
<polygon fill="midnightblue" stroke="midnightblue" points="1092.3,-85.87 1089.72,-75.59 1085.33,-85.23 1092.3,-85.87"/>
</g>
<!-- Node11 -->
<g id="node11" class="node">
<title>Node11</title>
<g id="a_node11"><a xlink:title=" ">
<polygon fill="none" stroke="#bfbfbf" points="1108.5,-112.5 1108.5,-131.5 1154.5,-131.5 1154.5,-112.5 1108.5,-112.5"/>
<text text-anchor="middle" x="1131.5" y="-119.5" font-family="Arial" font-size="10.00">cstdint</text>
</a>
</g>
</g>
<!-- Node5&#45;&gt;Node11 -->
<g id="edge11" class="edge">
<title>Node5&#45;&gt;Node11</title>
<path fill="none" stroke="midnightblue" d="M1088.92,-168.08C1096.35,-160.22 1107.35,-148.57 1116.31,-139.08"/>
<polygon fill="midnightblue" stroke="midnightblue" points="1118.91,-141.42 1123.24,-131.75 1113.82,-136.62 1118.91,-141.42"/>
</g>
<!-- Node12 -->
<g id="node12" class="node">
<title>Node12</title>
<g id="a_node12"><a xlink:title=" ">
<polygon fill="none" stroke="#bfbfbf" points="1172.5,-112.5 1172.5,-131.5 1218.5,-131.5 1218.5,-112.5 1172.5,-112.5"/>
<text text-anchor="middle" x="1195.5" y="-119.5" font-family="Arial" font-size="10.00">cstring</text>
</a>
</g>
</g>
<!-- Node5&#45;&gt;Node12 -->
<g id="edge12" class="edge">
<title>Node5&#45;&gt;Node12</title>
<path fill="none" stroke="midnightblue" d="M1098.72,-168.44C1117.4,-159.68 1146.66,-145.94 1168.12,-135.86"/>
<polygon fill="midnightblue" stroke="midnightblue" points="1169.8,-138.93 1177.36,-131.52 1166.82,-132.6 1169.8,-138.93"/>
</g>
<!-- Node6&#45;&gt;Node4 -->
<g id="edge10" class="edge">
<title>Node6&#45;&gt;Node4</title>
<path fill="none" stroke="midnightblue" d="M1059.09,-58.34C1054.54,-57.48 1049.91,-56.67 1045.5,-56 899.35,-33.71 723.3,-18.9 651.91,-13.4"/>
<polygon fill="midnightblue" stroke="midnightblue" points="652,-9.9 641.77,-12.62 651.47,-16.87 652,-9.9"/>
</g>
<!-- Node7 -->
<g id="node7" class="node">
<title>Node7</title>
<g id="a_node7"><a xlink:title=" ">
<polygon fill="none" stroke="#bfbfbf" points="1134.5,-0.5 1134.5,-19.5 1178.5,-19.5 1178.5,-0.5 1134.5,-0.5"/>
<text text-anchor="middle" x="1156.5" y="-7.5" font-family="Arial" font-size="10.00">cmath</text>
</a>
</g>
</g>
<!-- Node6&#45;&gt;Node7 -->
<g id="edge6" class="edge">
<title>Node6&#45;&gt;Node7</title>
<path fill="none" stroke="midnightblue" d="M1101.1,-56.32C1110.96,-48.26 1125.85,-36.08 1137.72,-26.37"/>
<polygon fill="midnightblue" stroke="midnightblue" points="1140.18,-28.88 1145.7,-19.83 1135.75,-23.46 1140.18,-28.88"/>
</g>
<!-- Node8 -->
<g id="node8" class="node">
<title>Node8</title>
<g id="a_node8"><a xlink:title=" ">
<polygon fill="none" stroke="#bfbfbf" points="996.5,-0.5 996.5,-19.5 1046.5,-19.5 1046.5,-0.5 996.5,-0.5"/>
<text text-anchor="middle" x="1021.5" y="-7.5" font-family="Arial" font-size="10.00">iomanip</text>
</a>
</g>
</g>
<!-- Node6&#45;&gt;Node8 -->
<g id="edge7" class="edge">
<title>Node6&#45;&gt;Node8</title>
<path fill="none" stroke="midnightblue" d="M1079.41,-56.32C1069.01,-48.18 1053.24,-35.84 1040.78,-26.09"/>
<polygon fill="midnightblue" stroke="midnightblue" points="1042.82,-23.24 1032.79,-19.83 1038.51,-28.75 1042.82,-23.24"/>
</g>
<!-- Node9 -->
<g id="node9" class="node">
<title>Node9</title>
<g id="a_node9"><a xlink:title=" ">
<polygon fill="none" stroke="#bfbfbf" points="1064.5,-0.5 1064.5,-19.5 1116.5,-19.5 1116.5,-0.5 1064.5,-0.5"/>
<text text-anchor="middle" x="1090.5" y="-7.5" font-family="Arial" font-size="10.00">sstream</text>
</a>
</g>
</g>
<!-- Node6&#45;&gt;Node9 -->
<g id="edge8" class="edge">
<title>Node6&#45;&gt;Node9</title>
<path fill="none" stroke="midnightblue" d="M1090.5,-56.08C1090.5,-49.01 1090.5,-38.86 1090.5,-29.99"/>
<polygon fill="midnightblue" stroke="midnightblue" points="1094,-29.75 1090.5,-19.75 1087,-29.75 1094,-29.75"/>
</g>
<!-- Node10 -->
<g id="node10" class="node">
<title>Node10</title>
<g id="a_node10"><a xlink:title=" ">
<polygon fill="none" stroke="#bfbfbf" points="893.5,-0.5 893.5,-19.5 947.5,-19.5 947.5,-0.5 893.5,-0.5"/>
<text text-anchor="middle" x="920.5" y="-7.5" font-family="Arial" font-size="10.00">iostream</text>
</a>
</g>
</g>
<!-- Node6&#45;&gt;Node10 -->
<g id="edge9" class="edge">
<title>Node6&#45;&gt;Node10</title>
<path fill="none" stroke="midnightblue" d="M1063.56,-56.44C1034.84,-47.32 989.17,-32.81 957.18,-22.65"/>
<polygon fill="midnightblue" stroke="midnightblue" points="957.9,-19.21 947.31,-19.52 955.78,-25.88 957.9,-19.21"/>
</g>
<!-- Node13&#45;&gt;Node3 -->
<g id="edge15" class="edge">
<title>Node13&#45;&gt;Node3</title>
<path fill="none" stroke="midnightblue" d="M318.16,-112.32C305.34,-103.98 285.72,-91.21 270.56,-81.35"/>
<polygon fill="midnightblue" stroke="midnightblue" points="272.09,-78.17 261.8,-75.65 268.28,-84.04 272.09,-78.17"/>
</g>
<!-- Node13&#45;&gt;Node4 -->
<g id="edge16" class="edge">
<title>Node13&#45;&gt;Node4</title>
<path fill="none" stroke="midnightblue" d="M347.59,-112.37C372.84,-99.06 423.52,-73.26 468.5,-56 508.77,-40.55 556.72,-27.06 587.61,-18.98"/>
<polygon fill="midnightblue" stroke="midnightblue" points="588.59,-22.34 597.39,-16.45 586.84,-15.56 588.59,-22.34"/>
</g>
<!-- Node14&#45;&gt;Node3 -->
<g id="edge18" class="edge">
<title>Node14&#45;&gt;Node3</title>
<path fill="none" stroke="midnightblue" d="M70.93,-112.44C111.47,-102.07 179.19,-84.74 218.24,-74.74"/>
<polygon fill="midnightblue" stroke="midnightblue" points="219.16,-78.12 227.98,-72.25 217.43,-71.34 219.16,-78.12"/>
</g>
<!-- Node14&#45;&gt;Node4 -->
<g id="edge19" class="edge">
<title>Node14&#45;&gt;Node4</title>
<path fill="none" stroke="midnightblue" d="M53.47,-112.32C80.7,-97.97 138.25,-69.52 190.5,-56 334.97,-18.63 514.47,-12.17 586.92,-11.14"/>
<polygon fill="midnightblue" stroke="midnightblue" points="587.25,-14.64 597.21,-11.03 587.17,-7.64 587.25,-14.64"/>
</g>
<!-- Node15&#45;&gt;Node4 -->
<g id="edge25" class="edge">
<title>Node15&#45;&gt;Node4</title>
<path fill="none" stroke="midnightblue" d="M957.45,-168.4C942.87,-154.91 912.81,-128.58 883.5,-112 804.78,-67.46 702.58,-34.7 651.5,-19.85"/>
<polygon fill="midnightblue" stroke="midnightblue" points="652.27,-16.43 641.7,-17.04 650.34,-23.16 652.27,-16.43"/>
</g>
<!-- Node15&#45;&gt;Node6 -->
<g id="edge22" class="edge">
<title>Node15&#45;&gt;Node6</title>
<path fill="none" stroke="midnightblue" d="M962.07,-168.06C956.1,-154.57 947.5,-128.81 959.5,-112 979.68,-83.72 1018.81,-73.03 1049.06,-69.08"/>
<polygon fill="midnightblue" stroke="midnightblue" points="1049.79,-72.52 1059.35,-67.95 1049.03,-65.56 1049.79,-72.52"/>
</g>
<!-- Node15&#45;&gt;Node11 -->
<g id="edge23" class="edge">
<title>Node15&#45;&gt;Node11</title>
<path fill="none" stroke="midnightblue" d="M992.64,-168.44C1021.43,-159.02 1067.73,-143.87 1098.87,-133.68"/>
<polygon fill="midnightblue" stroke="midnightblue" points="1099.99,-136.99 1108.41,-130.56 1097.81,-130.34 1099.99,-136.99"/>
</g>
<!-- Node15&#45;&gt;Node12 -->
<g id="edge24" class="edge">
<title>Node15&#45;&gt;Node12</title>
<path fill="none" stroke="midnightblue" d="M1005.51,-168.69C1043.25,-160.51 1102.29,-147.37 1162.42,-132.18"/>
<polygon fill="midnightblue" stroke="midnightblue" points="1163.64,-135.48 1172.46,-129.63 1161.91,-128.7 1163.64,-135.48"/>
</g>
<!-- Node16 -->
<g id="node16" class="node">
<title>Node16</title>
<g id="a_node16"><a xlink:title=" ">
<polygon fill="none" stroke="#bfbfbf" points="968.5,-112.5 968.5,-131.5 1014.5,-131.5 1014.5,-112.5 968.5,-112.5"/>
<text text-anchor="middle" x="991.5" y="-119.5" font-family="Arial" font-size="10.00">chrono</text>
</a>
</g>
</g>
<!-- Node15&#45;&gt;Node16 -->
<g id="edge26" class="edge">
<title>Node15&#45;&gt;Node16</title>
<path fill="none" stroke="midnightblue" d="M970.63,-168.08C974.01,-160.77 978.92,-150.18 983.12,-141.1"/>
<polygon fill="midnightblue" stroke="midnightblue" points="986.42,-142.3 987.45,-131.75 980.07,-139.36 986.42,-142.3"/>
</g>
<!-- Node17&#45;&gt;Node4 -->
<g id="edge36" class="edge">
<title>Node17&#45;&gt;Node4</title>
<path fill="none" stroke="midnightblue" d="M586.38,-170.34C557.61,-161.85 512.19,-146.53 502.5,-132 497.57,-124.6 500.52,-120.67 502.5,-112 508.65,-85.06 510.1,-75.68 529.5,-56 545.69,-39.58 569.11,-28.13 588,-20.89"/>
<polygon fill="midnightblue" stroke="midnightblue" points="589.19,-24.18 597.4,-17.48 586.81,-17.6 589.19,-24.18"/>
</g>
<!-- Node17&#45;&gt;Node6 -->
<g id="edge28" class="edge">
<title>Node17&#45;&gt;Node6</title>
<path fill="none" stroke="midnightblue" d="M615.13,-168.43C623.45,-153.96 642.45,-124.99 667.5,-112 733.31,-77.87 956.05,-69.6 1049.11,-67.61"/>
<polygon fill="midnightblue" stroke="midnightblue" points="1049.35,-71.11 1059.27,-67.41 1049.21,-64.11 1049.35,-71.11"/>
</g>
<!-- Node17&#45;&gt;Node10 -->
<g id="edge35" class="edge">
<title>Node17&#45;&gt;Node10</title>
<path fill="none" stroke="midnightblue" d="M611.99,-168.14C614.76,-154.28 622.02,-127.48 638.5,-112 708.41,-46.35 823.95,-22.87 883.09,-14.87"/>
<polygon fill="midnightblue" stroke="midnightblue" points="883.64,-18.33 893.11,-13.6 882.75,-11.39 883.64,-18.33"/>
</g>
<!-- Node18 -->
<g id="node18" class="node">
<title>Node18</title>
<g id="a_node18"><a xlink:href="parallelUtil_8h.html" target="_top" xlink:title=" ">
<polygon fill="none" stroke="black" points="511,-112.5 511,-131.5 582,-131.5 582,-112.5 511,-112.5"/>
<text text-anchor="middle" x="546.5" y="-119.5" font-family="Arial" font-size="10.00">parallelUtil.h</text>
</a>
</g>
</g>
<!-- Node17&#45;&gt;Node18 -->
<g id="edge29" class="edge">
<title>Node17&#45;&gt;Node18</title>
<path fill="none" stroke="midnightblue" d="M600.22,-168.32C590.66,-160.26 576.22,-148.08 564.72,-138.37"/>
<polygon fill="midnightblue" stroke="midnightblue" points="566.87,-135.61 556.97,-131.83 562.36,-140.96 566.87,-135.61"/>
</g>
<!-- Node17&#45;&gt;Node21 -->
<g id="edge34" class="edge">
<title>Node17&#45;&gt;Node21</title>
<path fill="none" stroke="midnightblue" d="M586.46,-169.83C555.22,-160.51 500.41,-144.16 464.54,-133.45"/>
<polygon fill="midnightblue" stroke="midnightblue" points="465.09,-129.97 454.51,-130.46 463.09,-136.67 465.09,-129.97"/>
</g>
<!-- Node17&#45;&gt;Node22 -->
<g id="edge37" class="edge">
<title>Node17&#45;&gt;Node22</title>
<path fill="none" stroke="midnightblue" d="M625.6,-168.32C640.4,-159.82 663.19,-146.73 680.48,-136.8"/>
<polygon fill="midnightblue" stroke="midnightblue" points="682.51,-139.67 689.43,-131.65 679.02,-133.6 682.51,-139.67"/>
</g>
<!-- Node18&#45;&gt;Node3 -->
<g id="edge31" class="edge">
<title>Node18&#45;&gt;Node3</title>
<path fill="none" stroke="midnightblue" d="M510.85,-114.54C451.78,-103.84 334.62,-82.61 279.08,-72.54"/>
<polygon fill="midnightblue" stroke="midnightblue" points="279.61,-69.08 269.14,-70.74 278.36,-75.97 279.61,-69.08"/>
</g>
<!-- Node18&#45;&gt;Node4 -->
<g id="edge32" class="edge">
<title>Node18&#45;&gt;Node4</title>
<path fill="none" stroke="midnightblue" d="M542.47,-112.32C537.01,-99.16 529.07,-73.83 539.5,-56 549.86,-38.29 570.03,-27.01 587.52,-20.18"/>
<polygon fill="midnightblue" stroke="midnightblue" points="589.18,-23.3 597.42,-16.65 586.83,-16.71 589.18,-23.3"/>
</g>
<!-- Node19 -->
<g id="node19" class="node">
<title>Node19</title>
<g id="a_node19"><a xlink:title=" ">
<polygon fill="none" stroke="#bfbfbf" points="611,-56.5 611,-75.5 652,-75.5 652,-56.5 611,-56.5"/>
<text text-anchor="middle" x="631.5" y="-63.5" font-family="Arial" font-size="10.00">mpi.h</text>
</a>
</g>
</g>
<!-- Node18&#45;&gt;Node19 -->
<g id="edge30" class="edge">
<title>Node18&#45;&gt;Node19</title>
<path fill="none" stroke="midnightblue" d="M560.16,-112.32C573.42,-103.9 593.77,-90.97 609.35,-81.07"/>
<polygon fill="midnightblue" stroke="midnightblue" points="611.31,-83.97 617.88,-75.65 607.56,-78.06 611.31,-83.97"/>
</g>
<!-- Node20 -->
<g id="node20" class="node">
<title>Node20</title>
<g id="a_node20"><a xlink:title=" ">
<polygon fill="none" stroke="#bfbfbf" points="548.5,-56.5 548.5,-75.5 592.5,-75.5 592.5,-56.5 548.5,-56.5"/>
<text text-anchor="middle" x="570.5" y="-63.5" font-family="Arial" font-size="10.00">thread</text>
</a>
</g>
</g>
<!-- Node18&#45;&gt;Node20 -->
<g id="edge33" class="edge">
<title>Node18&#45;&gt;Node20</title>
<path fill="none" stroke="midnightblue" d="M550.46,-112.08C553.71,-104.77 558.42,-94.18 562.45,-85.1"/>
<polygon fill="midnightblue" stroke="midnightblue" points="565.75,-86.31 566.61,-75.75 559.35,-83.47 565.75,-86.31"/>
</g>
<!-- Node23&#45;&gt;Node4 -->
<g id="edge44" class="edge">
<title>Node23&#45;&gt;Node4</title>
<path fill="none" stroke="midnightblue" d="M1264.79,-169.42C1300.17,-159.34 1350.34,-139.52 1329.5,-112 1274.02,-38.76 1220.88,-72.55 1130.5,-56 951.51,-23.23 732.71,-14.1 651.68,-11.75"/>
<polygon fill="midnightblue" stroke="midnightblue" points="651.7,-8.25 641.61,-11.48 651.51,-15.25 651.7,-8.25"/>
</g>
<!-- Node23&#45;&gt;Node6 -->
<g id="edge39" class="edge">
<title>Node23&#45;&gt;Node6</title>
<path fill="none" stroke="midnightblue" d="M1259.46,-168.49C1289.68,-157.22 1333.11,-135.96 1313.5,-112 1291.01,-84.52 1190.1,-73.44 1132.03,-69.28"/>
<polygon fill="midnightblue" stroke="midnightblue" points="1131.92,-65.77 1121.71,-68.58 1131.45,-72.75 1131.92,-65.77"/>
</g>
<!-- Node23&#45;&gt;Node11 -->
<g id="edge42" class="edge">
<title>Node23&#45;&gt;Node11</title>
<path fill="none" stroke="midnightblue" d="M1217.11,-168.32C1200.83,-159.7 1175.63,-146.36 1156.78,-136.39"/>
<polygon fill="midnightblue" stroke="midnightblue" points="1158.32,-133.24 1147.85,-131.65 1155.05,-139.43 1158.32,-133.24"/>
</g>
<!-- Node23&#45;&gt;Node12 -->
<g id="edge43" class="edge">
<title>Node23&#45;&gt;Node12</title>
<path fill="none" stroke="midnightblue" d="M1227.23,-168.08C1221.86,-160.46 1213.98,-149.26 1207.42,-139.94"/>
<polygon fill="midnightblue" stroke="midnightblue" points="1210.28,-137.91 1201.66,-131.75 1204.55,-141.94 1210.28,-137.91"/>
</g>
<!-- Node24 -->
<g id="node24" class="node">
<title>Node24</title>
<g id="a_node24"><a xlink:href="matrix_8h.html" target="_top" xlink:title=" ">
<polygon fill="none" stroke="black" points="1236.5,-112.5 1236.5,-131.5 1304.5,-131.5 1304.5,-112.5 1236.5,-112.5"/>
<text text-anchor="middle" x="1270.5" y="-119.5" font-family="Arial" font-size="10.00">util/matrix.h</text>
</a>
</g>
</g>
<!-- Node23&#45;&gt;Node24 -->
<g id="edge40" class="edge">
<title>Node23&#45;&gt;Node24</title>
<path fill="none" stroke="midnightblue" d="M1239.61,-168.08C1244.78,-160.53 1252.35,-149.49 1258.69,-140.23"/>
<polygon fill="midnightblue" stroke="midnightblue" points="1261.74,-141.98 1264.5,-131.75 1255.96,-138.02 1261.74,-141.98"/>
</g>
<!-- Node24&#45;&gt;Node6 -->
<g id="edge41" class="edge">
<title>Node24&#45;&gt;Node6</title>
<path fill="none" stroke="midnightblue" d="M1241.98,-112.44C1211.43,-103.28 1162.79,-88.69 1128.9,-78.52"/>
<polygon fill="midnightblue" stroke="midnightblue" points="1129.47,-75.04 1118.89,-75.52 1127.46,-81.74 1129.47,-75.04"/>
</g>
<!-- Node25&#45;&gt;Node4 -->
<g id="edge47" class="edge">
<title>Node25&#45;&gt;Node4</title>
<path fill="none" stroke="midnightblue" d="M797.36,-112.37C763.95,-93.33 683.74,-47.62 643.45,-24.65"/>
<polygon fill="midnightblue" stroke="midnightblue" points="645,-21.5 634.57,-19.59 641.53,-27.58 645,-21.5"/>
</g>
<!-- Node25&#45;&gt;Node6 -->
<g id="edge46" class="edge">
<title>Node25&#45;&gt;Node6</title>
<path fill="none" stroke="midnightblue" d="M856.55,-112.44C909.51,-102.16 997.71,-85.02 1049.35,-74.99"/>
<polygon fill="midnightblue" stroke="midnightblue" points="1050.02,-78.43 1059.17,-73.09 1048.68,-71.56 1050.02,-78.43"/>
</g>
</g>
</svg>
