<?xml version="1.0" encoding="UTF-8" standalone="no"?>
<!DOCTYPE svg PUBLIC "-//W3C//DTD SVG 1.1//EN"
 "http://www.w3.org/Graphics/SVG/1.1/DTD/svg11.dtd">
<!-- Generated by graphviz version 2.43.0 (0)
 -->
<!-- Title: /home/user/project/test/test_exec/parallelcomp/testParallelCompLib.h Pages: 1 -->
<svg width="148pt" height="106pt"
 viewBox="0.00 0.00 148.00 106.00" xmlns="http://www.w3.org/2000/svg" xmlns:xlink="http://www.w3.org/1999/xlink">
<g id="graph0" class="graph" transform="scale(1 1) rotate(0) translate(4 102)">
<title>/home/user/project/test/test_exec/parallelcomp/testParallelCompLib.h</title>
<!-- Node1 -->
<g id="node1" class="node">
<title>Node1</title>
<g id="a_node1"><a xlink:title=" ">
<polygon fill="#bfbfbf" stroke="black" points="0,-56.5 0,-97.5 140,-97.5 140,-56.5 0,-56.5"/>
<text text-anchor="start" x="8" y="-85.5" font-family="Arial" font-size="10.00">/home/user/project</text>
<text text-anchor="start" x="8" y="-74.5" font-family="Arial" font-size="10.00">/test/test_exec/parallelcomp</text>
<text text-anchor="middle" x="70" y="-63.5" font-family="Arial" font-size="10.00">/testParallelCompLib.h</text>
</a>
</g>
</g>
<!-- Node2 -->
<g id="node2" class="node">
<title>Node2</title>
<g id="a_node2"><a xlink:title=" ">
<polygon fill="none" stroke="#bfbfbf" points="19.5,-0.5 19.5,-19.5 60.5,-19.5 60.5,-0.5 19.5,-0.5"/>
<text text-anchor="middle" x="40" y="-7.5" font-family="Arial" font-size="10.00">string</text>
</a>
</g>
</g>
<!-- Node1&#45;&gt;Node2 -->
<g id="edge1" class="edge">
<title>Node1&#45;&gt;Node2</title>
<path fill="none" stroke="midnightblue" d="M61,-56.5C56.93,-47.68 52.16,-37.34 48.19,-28.74"/>
<polygon fill="midnightblue" stroke="midnightblue" points="51.36,-27.27 43.99,-19.65 45.01,-30.2 51.36,-27.27"/>
</g>
<!-- Node3 -->
<g id="node3" class="node">
<title>Node3</title>
<g id="a_node3"><a xlink:title=" ">
<polygon fill="none" stroke="#bfbfbf" points="79,-0.5 79,-19.5 123,-19.5 123,-0.5 79,-0.5"/>
<text text-anchor="middle" x="101" y="-7.5" font-family="Arial" font-size="10.00">vector</text>
</a>
</g>
</g>
<!-- Node1&#45;&gt;Node3 -->
<g id="edge2" class="edge">
<title>Node1&#45;&gt;Node3</title>
<path fill="none" stroke="midnightblue" d="M79.3,-56.5C83.51,-47.68 88.44,-37.34 92.54,-28.74"/>
<polygon fill="midnightblue" stroke="midnightblue" points="95.73,-30.19 96.87,-19.65 89.41,-27.17 95.73,-30.19"/>
</g>
</g>
</svg>
