<?xml version="1.0" encoding="UTF-8" standalone="no"?>
<!DOCTYPE svg PUBLIC "-//W3C//DTD SVG 1.1//EN"
 "http://www.w3.org/Graphics/SVG/1.1/DTD/svg11.dtd">
<!-- Generated by graphviz version 2.43.0 (0)
 -->
<!-- Title: main Pages: 1 -->
<svg width="649pt" height="276pt"
 viewBox="0.00 0.00 649.00 275.50" xmlns="http://www.w3.org/2000/svg" xmlns:xlink="http://www.w3.org/1999/xlink">
<g id="graph0" class="graph" transform="scale(1 1) rotate(0) translate(4 271.5)">
<title>main</title>
<!-- Node1 -->
<g id="Node000001" class="node">
<title>Node1</title>
<g id="a_Node000001"><a xlink:title=" ">
<polygon fill="#999999" stroke="#666666" points="38,-133 0,-133 0,-114 38,-114 38,-133"/>
<text text-anchor="middle" x="19" y="-121" font-family="Arial" font-size="10.00">main</text>
</a>
</g>
</g>
<!-- Node2 -->
<g id="Node000002" class="node">
<title>Node2</title>
<g id="a_Node000002"><a xlink:href="classutil_1_1io_1_1InputParser.html#aa96876b43b2ea728d90f2e108959908d" target="_top" xlink:title="Check if argument exists.">
<polygon fill="white" stroke="#666666" points="173,-267.5 74,-267.5 74,-237.5 173,-237.5 173,-267.5"/>
<text text-anchor="start" x="82" y="-255.5" font-family="Arial" font-size="10.00">util::io::InputParser</text>
<text text-anchor="middle" x="123.5" y="-244.5" font-family="Arial" font-size="10.00">::cmdOptionExists</text>
</a>
</g>
</g>
<!-- Node1&#45;&gt;Node2 -->
<g id="edge1_Node000001_Node000002" class="edge">
<title>Node1&#45;&gt;Node2</title>
<g id="a_edge1_Node000001_Node000002"><a xlink:title=" ">
<path fill="none" stroke="#63b8ff" d="M22.7,-133.15C28.76,-153.26 45.23,-200.17 74,-228.5 74.94,-229.43 75.93,-230.32 76.95,-231.19"/>
<polygon fill="#63b8ff" stroke="#63b8ff" points="75.18,-234.24 85.33,-237.29 79.3,-228.58 75.18,-234.24"/>
</a>
</g>
</g>
<!-- Node3 -->
<g id="Node000003" class="node">
<title>Node3</title>
<g id="a_Node000003"><a xlink:href="classutil_1_1io_1_1InputParser.html#afe43d01219bc49d0e9a9714b1fa17375" target="_top" xlink:title="Get value of argument specified by key.">
<polygon fill="white" stroke="#666666" points="173,-219.5 74,-219.5 74,-189.5 173,-189.5 173,-219.5"/>
<text text-anchor="start" x="82" y="-207.5" font-family="Arial" font-size="10.00">util::io::InputParser</text>
<text text-anchor="middle" x="123.5" y="-196.5" font-family="Arial" font-size="10.00">::getCmdOption</text>
</a>
</g>
</g>
<!-- Node1&#45;&gt;Node3 -->
<g id="edge2_Node000001_Node000003" class="edge">
<title>Node1&#45;&gt;Node3</title>
<g id="a_edge2_Node000001_Node000003"><a xlink:title=" ">
<path fill="none" stroke="#63b8ff" d="M28.6,-133C38.8,-143.98 56.63,-162.22 74,-175.5 77.84,-178.44 82,-181.32 86.21,-184.05"/>
<polygon fill="#63b8ff" stroke="#63b8ff" points="84.51,-187.12 94.85,-189.44 88.22,-181.18 84.51,-187.12"/>
</a>
</g>
</g>
<!-- Node4 -->
<g id="Node000004" class="node">
<title>Node4</title>
<g id="a_Node000004"><a xlink:href="namespaceutil_1_1parallel.html#a836a5bd06aa09111f66f69f97c1f093c" target="_top" xlink:title="Returns pointer to MpiStatus struct.">
<polygon fill="white" stroke="#666666" points="339,-171 209,-171 209,-152 339,-152 339,-171"/>
<text text-anchor="middle" x="274" y="-159" font-family="Arial" font-size="10.00">util::parallel::getMpiStatus</text>
</a>
</g>
</g>
<!-- Node1&#45;&gt;Node4 -->
<g id="edge3_Node000001_Node000004" class="edge">
<title>Node1&#45;&gt;Node4</title>
<g id="a_edge3_Node000001_Node000004"><a xlink:title=" ">
<path fill="none" stroke="#63b8ff" d="M38.36,-128.91C48.74,-131.81 62.01,-135.23 74,-137.5 114.79,-145.21 160.77,-150.95 198.25,-154.87"/>
<polygon fill="#63b8ff" stroke="#63b8ff" points="198.28,-158.4 208.59,-155.93 199,-151.43 198.28,-158.4"/>
</a>
</g>
</g>
<!-- Node5 -->
<g id="Node000005" class="node">
<title>Node5</title>
<g id="a_Node000005"><a xlink:href="namespaceutil_1_1parallel.html#aa0c65ae0f7fb6e0c4f3104c5bf3b1ff6" target="_top" xlink:title="Initializes MPI and also creates MpiStatus struct.">
<polygon fill="white" stroke="#666666" points="476,-114 375,-114 375,-95 476,-95 476,-114"/>
<text text-anchor="middle" x="425.5" y="-102" font-family="Arial" font-size="10.00">util::parallel::initMpi</text>
</a>
</g>
</g>
<!-- Node1&#45;&gt;Node5 -->
<g id="edge6_Node000001_Node000005" class="edge">
<title>Node1&#45;&gt;Node5</title>
<g id="a_edge6_Node000001_Node000005"><a xlink:title=" ">
<path fill="none" stroke="#63b8ff" d="M38.17,-122.65C94.99,-119.98 271.13,-111.7 364.69,-107.31"/>
<polygon fill="#63b8ff" stroke="#63b8ff" points="365.03,-110.8 374.85,-106.83 364.7,-103.81 365.03,-110.8"/>
</a>
</g>
</g>
<!-- Node7 -->
<g id="Node000007" class="node">
<title>Node7</title>
<g id="a_Node000007"><a xlink:href="namespaceutil_1_1parallel.html#adb80f14125b7556bb478cc3725508fa8" target="_top" xlink:title="get rank (id) of this processor">
<polygon fill="white" stroke="#666666" points="329.5,-57 218.5,-57 218.5,-38 329.5,-38 329.5,-57"/>
<text text-anchor="middle" x="274" y="-45" font-family="Arial" font-size="10.00">util::parallel::mpiRank</text>
</a>
</g>
</g>
<!-- Node1&#45;&gt;Node7 -->
<g id="edge7_Node000001_Node000007" class="edge">
<title>Node1&#45;&gt;Node7</title>
<g id="a_edge7_Node000001_Node000007"><a xlink:title=" ">
<path fill="none" stroke="#63b8ff" d="M33.09,-113.76C43.64,-106.36 59.11,-96.46 74,-90.5 117.17,-73.22 168.52,-62.35 208.24,-55.86"/>
<polygon fill="#63b8ff" stroke="#63b8ff" points="209.01,-59.28 218.34,-54.26 207.92,-52.37 209.01,-59.28"/>
</a>
</g>
</g>
<!-- Node8 -->
<g id="Node000008" class="node">
<title>Node8</title>
<g id="a_Node000008"><a xlink:href="namespaceutil_1_1parallel.html#ad67dcfb56bf70d082e443e849c832c00" target="_top" xlink:title="Get size (number) of processors.">
<polygon fill="white" stroke="#666666" points="327.5,-95 220.5,-95 220.5,-76 327.5,-76 327.5,-95"/>
<text text-anchor="middle" x="274" y="-83" font-family="Arial" font-size="10.00">util::parallel::mpiSize</text>
</a>
</g>
</g>
<!-- Node1&#45;&gt;Node8 -->
<g id="edge9_Node000001_Node000008" class="edge">
<title>Node1&#45;&gt;Node8</title>
<g id="a_edge9_Node000001_Node000008"><a xlink:title=" ">
<path fill="none" stroke="#63b8ff" d="M38.36,-118.09C48.74,-115.19 62.01,-111.77 74,-109.5 119.3,-100.94 171,-94.81 210.35,-90.89"/>
<polygon fill="#63b8ff" stroke="#63b8ff" points="210.72,-94.37 220.33,-89.92 210.04,-87.4 210.72,-94.37"/>
</a>
</g>
</g>
<!-- Node9 -->
<g id="Node000009" class="node">
<title>Node9</title>
<g id="a_Node000009"><a xlink:href="namespaceutil_1_1io.html#a578a578ce41389fb01e56de7316b7054" target="_top" xlink:title="Prints formatted information.">
<polygon fill="white" stroke="#666666" points="157.5,-19 89.5,-19 89.5,0 157.5,0 157.5,-19"/>
<text text-anchor="middle" x="123.5" y="-7" font-family="Arial" font-size="10.00">util::io::print</text>
</a>
</g>
</g>
<!-- Node1&#45;&gt;Node9 -->
<g id="edge11_Node000001_Node000009" class="edge">
<title>Node1&#45;&gt;Node9</title>
<g id="a_edge11_Node000001_Node000009"><a xlink:title=" ">
<path fill="none" stroke="#63b8ff" d="M23.62,-113.88C30.77,-95.98 48.28,-57.22 74,-33.5 77.91,-29.89 82.47,-26.7 87.2,-23.93"/>
<polygon fill="#63b8ff" stroke="#63b8ff" points="89.15,-26.85 96.36,-19.1 85.88,-20.66 89.15,-26.85"/>
</a>
</g>
</g>
<!-- Node4&#45;&gt;Node5 -->
<g id="edge4_Node000004_Node000005" class="edge">
<title>Node4&#45;&gt;Node5</title>
<g id="a_edge4_Node000004_Node000005"><a xlink:title=" ">
<path fill="none" stroke="#63b8ff" d="M300.56,-151.98C312.28,-147.6 326.36,-142.31 339,-137.5 355.83,-131.09 374.5,-123.9 390.08,-117.87"/>
<polygon fill="#63b8ff" stroke="#63b8ff" points="391.77,-120.97 399.83,-114.09 389.24,-114.44 391.77,-120.97"/>
</a>
</g>
</g>
<!-- Node6 -->
<g id="Node000006" class="node">
<title>Node6</title>
<g id="a_Node000006"><a xlink:href="namespaceutil_1_1parallel.html#a47cb50d2db6de7cf2a786994f274cc9a" target="_top" xlink:title="Initializes MpiStatus struct.">
<polygon fill="white" stroke="#666666" points="641,-114 512,-114 512,-95 641,-95 641,-114"/>
<text text-anchor="middle" x="576.5" y="-102" font-family="Arial" font-size="10.00">util::parallel::initMpiStatus</text>
</a>
</g>
</g>
<!-- Node5&#45;&gt;Node6 -->
<g id="edge5_Node000005_Node000006" class="edge">
<title>Node5&#45;&gt;Node6</title>
<g id="a_edge5_Node000005_Node000006"><a xlink:title=" ">
<path fill="none" stroke="#63b8ff" d="M476.11,-104.5C484.33,-104.5 493,-104.5 501.66,-104.5"/>
<polygon fill="#63b8ff" stroke="#63b8ff" points="501.79,-108 511.79,-104.5 501.79,-101 501.79,-108"/>
</a>
</g>
</g>
<!-- Node7&#45;&gt;Node5 -->
<g id="edge8_Node000007_Node000005" class="edge">
<title>Node7&#45;&gt;Node5</title>
<g id="a_edge8_Node000007_Node000005"><a xlink:title=" ">
<path fill="none" stroke="#63b8ff" d="M307.78,-57.02C317.87,-60.14 328.96,-63.77 339,-67.5 357.71,-74.45 378.25,-83.3 394.5,-90.6"/>
<polygon fill="#63b8ff" stroke="#63b8ff" points="393.46,-93.97 404.02,-94.91 396.35,-87.59 393.46,-93.97"/>
</a>
</g>
</g>
<!-- Node8&#45;&gt;Node5 -->
<g id="edge10_Node000008_Node000005" class="edge">
<title>Node8&#45;&gt;Node5</title>
<g id="a_edge10_Node000008_Node000005"><a xlink:title=" ">
<path fill="none" stroke="#63b8ff" d="M327.71,-92.2C339.66,-93.72 352.44,-95.34 364.66,-96.9"/>
<polygon fill="#63b8ff" stroke="#63b8ff" points="364.41,-100.39 374.77,-98.18 365.29,-93.45 364.41,-100.39"/>
</a>
</g>
</g>
<!-- Node9&#45;&gt;Node7 -->
<g id="edge12_Node000009_Node000007" class="edge">
<title>Node9&#45;&gt;Node7</title>
<g id="a_edge12_Node000009_Node000007"><a xlink:title=" ">
<path fill="none" stroke="#63b8ff" d="M157.83,-18.03C177.92,-23.17 203.84,-29.8 225.99,-35.47"/>
<polygon fill="#63b8ff" stroke="#63b8ff" points="225.32,-38.91 235.87,-38 227.05,-32.13 225.32,-38.91"/>
</a>
</g>
</g>
<!-- Node10 -->
<g id="Node000010" class="node">
<title>Node10</title>
<g id="a_Node000010"><a xlink:href="namespaceutil_1_1io.html#a3e537e3bd778616255015cde6e60a30a" target="_top" xlink:title="Returns formatted string for output.">
<polygon fill="white" stroke="#666666" points="314,-19 234,-19 234,0 314,0 314,-19"/>
<text text-anchor="middle" x="274" y="-7" font-family="Arial" font-size="10.00">util::io::printStr</text>
</a>
</g>
</g>
<!-- Node9&#45;&gt;Node10 -->
<g id="edge13_Node000009_Node000010" class="edge">
<title>Node9&#45;&gt;Node10</title>
<g id="a_edge13_Node000009_Node000010"><a xlink:title=" ">
<path fill="none" stroke="#63b8ff" d="M157.83,-9.5C177.24,-9.5 202.09,-9.5 223.73,-9.5"/>
<polygon fill="#63b8ff" stroke="#63b8ff" points="223.73,-13 233.73,-9.5 223.73,-6 223.73,-13"/>
</a>
</g>
</g>
<!-- Node11 -->
<g id="Node000011" class="node">
<title>Node11</title>
<g id="a_Node000011"><a xlink:href="namespaceutil_1_1io.html#a38afb09a152cca4061850f4123bd3aeb" target="_top" xlink:title="Returns tab spaces of given size.">
<polygon fill="white" stroke="#666666" points="468,-19 383,-19 383,0 468,0 468,-19"/>
<text text-anchor="middle" x="425.5" y="-7" font-family="Arial" font-size="10.00">util::io::getTabS</text>
</a>
</g>
</g>
<!-- Node10&#45;&gt;Node11 -->
<g id="edge14_Node000010_Node000011" class="edge">
<title>Node10&#45;&gt;Node11</title>
<g id="a_edge14_Node000010_Node000011"><a xlink:title=" ">
<path fill="none" stroke="#63b8ff" d="M314.28,-9.5C332.17,-9.5 353.6,-9.5 372.78,-9.5"/>
<polygon fill="#63b8ff" stroke="#63b8ff" points="372.87,-13 382.87,-9.5 372.87,-6 372.87,-13"/>
</a>
</g>
</g>
</g>
</svg>
