<?xml version="1.0" encoding="UTF-8" standalone="no"?>
<!DOCTYPE svg PUBLIC "-//W3C//DTD SVG 1.1//EN"
 "http://www.w3.org/Graphics/SVG/1.1/DTD/svg11.dtd">
<!-- Generated by graphviz version 2.43.0 (0)
 -->
<!-- Title: /home/user/project/test/test_exec/peridem/testPeriDEMLib.cpp Pages: 1 -->
<svg width="1588pt" height="453pt"
 viewBox="0.00 0.00 1588.01 453.00" xmlns="http://www.w3.org/2000/svg" xmlns:xlink="http://www.w3.org/1999/xlink">
<g id="graph0" class="graph" transform="scale(1 1) rotate(0) translate(4 449)">
<title>/home/user/project/test/test_exec/peridem/testPeriDEMLib.cpp</title>
<!-- Node1 -->
<g id="node1" class="node">
<title>Node1</title>
<g id="a_node1"><a xlink:title=" ">
<polygon fill="#bfbfbf" stroke="black" points="1171.51,-403.5 1171.51,-444.5 1290.51,-444.5 1290.51,-403.5 1171.51,-403.5"/>
<text text-anchor="start" x="1179.51" y="-432.5" font-family="Arial" font-size="10.00">/home/user/project</text>
<text text-anchor="start" x="1179.51" y="-421.5" font-family="Arial" font-size="10.00">/test/test_exec/peridem</text>
<text text-anchor="middle" x="1231.01" y="-410.5" font-family="Arial" font-size="10.00">/testPeriDEMLib.cpp</text>
</a>
</g>
</g>
<!-- Node2 -->
<g id="node2" class="node">
<title>Node2</title>
<g id="a_node2"><a xlink:href="testPeriDEMLib_8h.html" target="_top" xlink:title=" ">
<polygon fill="none" stroke="black" points="1184.01,-168.5 1184.01,-187.5 1278.01,-187.5 1278.01,-168.5 1184.01,-168.5"/>
<text text-anchor="middle" x="1231.01" y="-175.5" font-family="Arial" font-size="10.00">testPeriDEMLib.h</text>
</a>
</g>
</g>
<!-- Node1&#45;&gt;Node2 -->
<g id="edge1" class="edge">
<title>Node1&#45;&gt;Node2</title>
<path fill="none" stroke="midnightblue" d="M1231.01,-403.44C1231.01,-357.46 1231.01,-242.96 1231.01,-197.77"/>
<polygon fill="midnightblue" stroke="midnightblue" points="1234.51,-197.64 1231.01,-187.64 1227.51,-197.64 1234.51,-197.64"/>
</g>
<!-- Node3 -->
<g id="node3" class="node">
<title>Node3</title>
<g id="a_node3"><a xlink:title=" ">
<polygon fill="none" stroke="#bfbfbf" points="636.51,-112.5 636.51,-131.5 677.51,-131.5 677.51,-112.5 636.51,-112.5"/>
<text text-anchor="middle" x="657.01" y="-119.5" font-family="Arial" font-size="10.00">string</text>
</a>
</g>
</g>
<!-- Node1&#45;&gt;Node3 -->
<g id="edge68" class="edge">
<title>Node1&#45;&gt;Node3</title>
<path fill="none" stroke="midnightblue" d="M1171.09,-421.24C1042.83,-413.84 743.14,-376.21 617.01,-188 605.81,-171.28 621.98,-151.52 636.98,-138.22"/>
<polygon fill="midnightblue" stroke="midnightblue" points="639.56,-140.63 645.02,-131.55 635.09,-135.24 639.56,-140.63"/>
</g>
<!-- Node5 -->
<g id="node5" class="node">
<title>Node5</title>
<g id="a_node5"><a xlink:href="input_8h.html" target="_top" xlink:title=" ">
<polygon fill="none" stroke="black" points="548.01,-230 548.01,-249 610.01,-249 610.01,-230 548.01,-230"/>
<text text-anchor="middle" x="579.01" y="-237" font-family="Arial" font-size="10.00">inp/input.h</text>
</a>
</g>
</g>
<!-- Node1&#45;&gt;Node5 -->
<g id="edge4" class="edge">
<title>Node1&#45;&gt;Node5</title>
<path fill="none" stroke="midnightblue" d="M1171.33,-421.11C1026.78,-416.01 666.63,-400.11 624.01,-367 590.36,-340.86 581.82,-287.54 579.69,-259.2"/>
<polygon fill="midnightblue" stroke="midnightblue" points="583.18,-258.83 579.13,-249.04 576.19,-259.22 583.18,-258.83"/>
</g>
<!-- Node7 -->
<g id="node7" class="node">
<title>Node7</title>
<g id="a_node7"><a xlink:href="demModel_8h.html" target="_top" xlink:title=" ">
<polygon fill="none" stroke="black" points="419.51,-347.5 419.51,-366.5 540.51,-366.5 540.51,-347.5 419.51,-347.5"/>
<text text-anchor="middle" x="480.01" y="-354.5" font-family="Arial" font-size="10.00">model/dem/demModel.h</text>
</a>
</g>
</g>
<!-- Node1&#45;&gt;Node7 -->
<g id="edge8" class="edge">
<title>Node1&#45;&gt;Node7</title>
<path fill="none" stroke="midnightblue" d="M1171.39,-418.07C1056.28,-408.51 795.4,-386.66 576.01,-367 567.8,-366.26 559.2,-365.48 550.66,-364.69"/>
<polygon fill="midnightblue" stroke="midnightblue" points="550.97,-361.2 540.69,-363.76 550.32,-368.17 550.97,-361.2"/>
</g>
<!-- Node11 -->
<g id="node11" class="node">
<title>Node11</title>
<g id="a_node11"><a xlink:href="io_8h.html" target="_top" xlink:title=" ">
<polygon fill="none" stroke="red" points="1163.01,-112.5 1163.01,-131.5 1211.01,-131.5 1211.01,-112.5 1163.01,-112.5"/>
<text text-anchor="middle" x="1187.01" y="-119.5" font-family="Arial" font-size="10.00">util/io.h</text>
</a>
</g>
</g>
<!-- Node1&#45;&gt;Node11 -->
<g id="edge65" class="edge">
<title>Node1&#45;&gt;Node11</title>
<path fill="none" stroke="midnightblue" d="M1290.63,-414.99C1353.64,-402.79 1444.01,-372.92 1444.01,-302 1444.01,-302 1444.01,-302 1444.01,-238.5 1444.01,-206.05 1448.82,-190.05 1425.01,-168 1395.9,-141.03 1280.33,-129.37 1221.63,-125.1"/>
<polygon fill="midnightblue" stroke="midnightblue" points="1221.58,-121.59 1211.36,-124.39 1221.09,-128.57 1221.58,-121.59"/>
</g>
<!-- Node20 -->
<g id="node13" class="node">
<title>Node20</title>
<g id="a_node13"><a xlink:title=" ">
<polygon fill="none" stroke="#bfbfbf" points="1201.01,-56.5 1201.01,-75.5 1251.01,-75.5 1251.01,-56.5 1201.01,-56.5"/>
<text text-anchor="middle" x="1226.01" y="-63.5" font-family="Arial" font-size="10.00">fstream</text>
</a>
</g>
</g>
<!-- Node1&#45;&gt;Node20 -->
<g id="edge67" class="edge">
<title>Node1&#45;&gt;Node20</title>
<path fill="none" stroke="midnightblue" d="M1290.81,-419.72C1365.05,-412.04 1482.01,-386.54 1482.01,-302 1482.01,-302 1482.01,-302 1482.01,-177 1482.01,-81.99 1331.31,-68.02 1261.16,-66.66"/>
<polygon fill="midnightblue" stroke="midnightblue" points="1261.06,-63.16 1251.02,-66.54 1260.98,-70.16 1261.06,-63.16"/>
</g>
<!-- Node39 -->
<g id="node22" class="node">
<title>Node39</title>
<g id="a_node22"><a xlink:href="methods_8h.html" target="_top" xlink:title=" ">
<polygon fill="none" stroke="red" points="293.01,-112.5 293.01,-131.5 371.01,-131.5 371.01,-112.5 293.01,-112.5"/>
<text text-anchor="middle" x="332.01" y="-119.5" font-family="Arial" font-size="10.00">util/methods.h</text>
</a>
</g>
</g>
<!-- Node1&#45;&gt;Node39 -->
<g id="edge64" class="edge">
<title>Node1&#45;&gt;Node39</title>
<path fill="none" stroke="midnightblue" d="M1171.48,-422.21C1007.7,-419.53 553.07,-408.45 410.01,-367 309.54,-337.89 256.56,-344.86 203.01,-255 182.07,-219.86 203.16,-195.96 233.01,-168 249.28,-152.76 271.59,-142.01 290.92,-134.84"/>
<polygon fill="midnightblue" stroke="midnightblue" points="292.14,-138.13 300.42,-131.51 289.82,-131.52 292.14,-138.13"/>
</g>
<!-- Node45 -->
<g id="node26" class="node">
<title>Node45</title>
<g id="a_node26"><a xlink:href="outputDeck_8h.html" target="_top" xlink:title=" ">
<polygon fill="none" stroke="black" points="1296.01,-168.5 1296.01,-187.5 1416.01,-187.5 1416.01,-168.5 1296.01,-168.5"/>
<text text-anchor="middle" x="1356.01" y="-175.5" font-family="Arial" font-size="10.00">inp/decks/outputDeck.h</text>
</a>
</g>
</g>
<!-- Node1&#45;&gt;Node45 -->
<g id="edge60" class="edge">
<title>Node1&#45;&gt;Node45</title>
<path fill="none" stroke="midnightblue" d="M1241.03,-403.44C1264.79,-357.07 1324.24,-241.01 1346.98,-196.63"/>
<polygon fill="midnightblue" stroke="midnightblue" points="1350.14,-198.13 1351.59,-187.64 1343.91,-194.94 1350.14,-198.13"/>
</g>
<!-- Node46 -->
<g id="node27" class="node">
<title>Node46</title>
<g id="a_node27"><a xlink:title=" ">
<polygon fill="none" stroke="#bfbfbf" points="1510.01,-347.5 1510.01,-366.5 1580.01,-366.5 1580.01,-347.5 1510.01,-347.5"/>
<text text-anchor="middle" x="1545.01" y="-354.5" font-family="Arial" font-size="10.00">fmt/format.h</text>
</a>
</g>
</g>
<!-- Node1&#45;&gt;Node46 -->
<g id="edge66" class="edge">
<title>Node1&#45;&gt;Node46</title>
<path fill="none" stroke="midnightblue" d="M1290.81,-410.62C1351.79,-398 1445.01,-378.7 1500,-367.32"/>
<polygon fill="midnightblue" stroke="midnightblue" points="1500.72,-370.74 1509.81,-365.29 1499.3,-363.89 1500.72,-370.74"/>
</g>
<!-- Node2&#45;&gt;Node3 -->
<g id="edge2" class="edge">
<title>Node2&#45;&gt;Node3</title>
<path fill="none" stroke="midnightblue" d="M1183.68,-172.45C1168.75,-171.02 1152.19,-169.44 1137.01,-168 967.45,-151.93 764.17,-132.98 687.91,-125.88"/>
<polygon fill="midnightblue" stroke="midnightblue" points="687.88,-122.36 677.6,-124.92 687.23,-129.33 687.88,-122.36"/>
</g>
<!-- Node4 -->
<g id="node4" class="node">
<title>Node4</title>
<g id="a_node4"><a xlink:title=" ">
<polygon fill="none" stroke="#bfbfbf" points="847.01,-0.5 847.01,-19.5 891.01,-19.5 891.01,-0.5 847.01,-0.5"/>
<text text-anchor="middle" x="869.01" y="-7.5" font-family="Arial" font-size="10.00">vector</text>
</a>
</g>
</g>
<!-- Node2&#45;&gt;Node4 -->
<g id="edge3" class="edge">
<title>Node2&#45;&gt;Node4</title>
<path fill="none" stroke="midnightblue" d="M1237.51,-168.44C1253.16,-146.76 1289.48,-89.06 1260.01,-56 1236.25,-29.35 990.67,-16.22 901.3,-12.3"/>
<polygon fill="midnightblue" stroke="midnightblue" points="901.35,-8.8 891.2,-11.87 901.05,-15.79 901.35,-8.8"/>
</g>
<!-- Node5&#45;&gt;Node3 -->
<g id="edge5" class="edge">
<title>Node5&#45;&gt;Node3</title>
<path fill="none" stroke="midnightblue" d="M577.28,-229.95C574.91,-215.89 572.19,-187.52 584.01,-168 593.72,-151.97 611.53,-140.82 627.13,-133.64"/>
<polygon fill="midnightblue" stroke="midnightblue" points="628.63,-136.8 636.46,-129.66 625.89,-130.36 628.63,-136.8"/>
</g>
<!-- Node5&#45;&gt;Node4 -->
<g id="edge6" class="edge">
<title>Node5&#45;&gt;Node4</title>
<path fill="none" stroke="midnightblue" d="M552.82,-229.95C501.38,-213.24 388.71,-177.09 349.01,-168 297.73,-156.26 154.48,-166.79 115.01,-132 89.12,-109.17 75.33,-81.11 99.01,-56 124.7,-28.76 693.31,-14.77 836.51,-11.67"/>
<polygon fill="midnightblue" stroke="midnightblue" points="836.89,-15.16 846.81,-11.45 836.74,-8.16 836.89,-15.16"/>
</g>
<!-- Node6 -->
<g id="node6" class="node">
<title>Node6</title>
<g id="a_node6"><a xlink:title=" ">
<polygon fill="none" stroke="#bfbfbf" points="626.01,-168.5 626.01,-187.5 678.01,-187.5 678.01,-168.5 626.01,-168.5"/>
<text text-anchor="middle" x="652.01" y="-175.5" font-family="Arial" font-size="10.00">memory</text>
</a>
</g>
</g>
<!-- Node5&#45;&gt;Node6 -->
<g id="edge7" class="edge">
<title>Node5&#45;&gt;Node6</title>
<path fill="none" stroke="midnightblue" d="M589.47,-229.98C600.96,-220.61 619.64,-205.38 633.6,-194.01"/>
<polygon fill="midnightblue" stroke="midnightblue" points="636.03,-196.54 641.57,-187.51 631.61,-191.11 636.03,-196.54"/>
</g>
<!-- Node8 -->
<g id="node8" class="node">
<title>Node8</title>
<g id="a_node8"><a xlink:href="modelData_8h.html" target="_top" xlink:title=" ">
<polygon fill="none" stroke="black" points="427.51,-291.5 427.51,-310.5 508.51,-310.5 508.51,-291.5 427.51,-291.5"/>
<text text-anchor="middle" x="468.01" y="-298.5" font-family="Arial" font-size="10.00">../modelData.h</text>
</a>
</g>
</g>
<!-- Node7&#45;&gt;Node8 -->
<g id="edge9" class="edge">
<title>Node7&#45;&gt;Node8</title>
<path fill="none" stroke="midnightblue" d="M478.03,-347.08C476.44,-339.93 474.15,-329.64 472.17,-320.69"/>
<polygon fill="midnightblue" stroke="midnightblue" points="475.54,-319.75 469.96,-310.75 468.71,-321.27 475.54,-319.75"/>
</g>
<!-- Node8&#45;&gt;Node4 -->
<g id="edge59" class="edge">
<title>Node8&#45;&gt;Node4</title>
<path fill="none" stroke="midnightblue" d="M508.55,-300.04C641.51,-299.21 1060.29,-288.51 1137.01,-188 1155.78,-163.41 1133.71,-106.42 1060.01,-56 1011.49,-22.81 941.58,-13.92 901.18,-11.65"/>
<polygon fill="midnightblue" stroke="midnightblue" points="901.24,-8.15 891.09,-11.18 900.92,-15.14 901.24,-8.15"/>
</g>
<!-- Node8&#45;&gt;Node5 -->
<g id="edge31" class="edge">
<title>Node8&#45;&gt;Node5</title>
<path fill="none" stroke="midnightblue" d="M483.92,-291.48C502.3,-281.62 532.77,-265.29 554.26,-253.77"/>
<polygon fill="midnightblue" stroke="midnightblue" points="555.98,-256.82 563.14,-249.01 552.67,-250.65 555.98,-256.82"/>
</g>
<!-- Node9 -->
<g id="node9" class="node">
<title>Node9</title>
<g id="a_node9"><a xlink:href="material_8h.html" target="_top" xlink:title=" ">
<polygon fill="none" stroke="black" points="789.01,-224.5 789.01,-254.5 883.01,-254.5 883.01,-224.5 789.01,-224.5"/>
<text text-anchor="start" x="797.01" y="-242.5" font-family="Arial" font-size="10.00">material/mparticle</text>
<text text-anchor="middle" x="836.01" y="-231.5" font-family="Arial" font-size="10.00">/material.h</text>
</a>
</g>
</g>
<!-- Node8&#45;&gt;Node9 -->
<g id="edge10" class="edge">
<title>Node8&#45;&gt;Node9</title>
<path fill="none" stroke="midnightblue" d="M508.8,-293.41C574.48,-282.79 703.88,-261.86 778.77,-249.75"/>
<polygon fill="midnightblue" stroke="midnightblue" points="779.65,-253.16 788.97,-248.11 778.54,-246.25 779.65,-253.16"/>
</g>
<!-- Node22 -->
<g id="node14" class="node">
<title>Node22</title>
<g id="a_node14"><a xlink:title=" ">
<polygon fill="none" stroke="#bfbfbf" points="264.01,-56.5 264.01,-75.5 310.01,-75.5 310.01,-56.5 264.01,-56.5"/>
<text text-anchor="middle" x="287.01" y="-63.5" font-family="Arial" font-size="10.00">cstring</text>
</a>
</g>
</g>
<!-- Node8&#45;&gt;Node22 -->
<g id="edge58" class="edge">
<title>Node8&#45;&gt;Node22</title>
<path fill="none" stroke="midnightblue" d="M427.31,-299.24C360.27,-297.03 231.24,-288.42 203.01,-255 194.12,-244.47 199.66,-237.36 203.01,-224 210.33,-194.8 255.14,-119.15 276.15,-84.63"/>
<polygon fill="midnightblue" stroke="midnightblue" points="279.39,-86.06 281.62,-75.7 273.41,-82.4 279.39,-86.06"/>
</g>
<!-- Node26 -->
<g id="node18" class="node">
<title>Node26</title>
<g id="a_node18"><a xlink:href="particleFLoading_8h.html" target="_top" xlink:title=" ">
<polygon fill="none" stroke="black" points="212.01,-230 212.01,-249 342.01,-249 342.01,-230 212.01,-230"/>
<text text-anchor="middle" x="277.01" y="-237" font-family="Arial" font-size="10.00">loading/particleFLoading.h</text>
</a>
</g>
</g>
<!-- Node8&#45;&gt;Node26 -->
<g id="edge32" class="edge">
<title>Node8&#45;&gt;Node26</title>
<path fill="none" stroke="midnightblue" d="M440.65,-291.48C407.46,-281.14 351.36,-263.66 314.25,-252.1"/>
<polygon fill="midnightblue" stroke="midnightblue" points="314.92,-248.64 304.33,-249.01 312.83,-255.32 314.92,-248.64"/>
</g>
<!-- Node37 -->
<g id="node20" class="node">
<title>Node37</title>
<g id="a_node20"><a xlink:href="particleULoading_8h.html" target="_top" xlink:title=" ">
<polygon fill="none" stroke="black" points="360.51,-230 360.51,-249 491.51,-249 491.51,-230 360.51,-230"/>
<text text-anchor="middle" x="426.01" y="-237" font-family="Arial" font-size="10.00">loading/particleULoading.h</text>
</a>
</g>
</g>
<!-- Node8&#45;&gt;Node37 -->
<g id="edge37" class="edge">
<title>Node8&#45;&gt;Node37</title>
<path fill="none" stroke="midnightblue" d="M461.99,-291.48C455.76,-282.64 445.84,-268.59 437.99,-257.48"/>
<polygon fill="midnightblue" stroke="midnightblue" points="440.64,-255.16 432.02,-249.01 434.93,-259.2 440.64,-255.16"/>
</g>
<!-- Node38 -->
<g id="node21" class="node">
<title>Node38</title>
<g id="a_node21"><a xlink:href="nsearch_8h.html" target="_top" xlink:title=" ">
<polygon fill="none" stroke="black" points="434.51,-168.5 434.51,-187.5 531.51,-187.5 531.51,-168.5 434.51,-168.5"/>
<text text-anchor="middle" x="483.01" y="-175.5" font-family="Arial" font-size="10.00">nsearch/nsearch.h</text>
</a>
</g>
</g>
<!-- Node8&#45;&gt;Node38 -->
<g id="edge40" class="edge">
<title>Node8&#45;&gt;Node38</title>
<path fill="none" stroke="midnightblue" d="M476.76,-291.29C484.58,-282.84 495.46,-269.25 500.01,-255 506.23,-235.54 499.18,-212.57 492.36,-197.01"/>
<polygon fill="midnightblue" stroke="midnightblue" points="495.32,-195.08 487.85,-187.57 489,-198.1 495.32,-195.08"/>
</g>
<!-- Node40 -->
<g id="node23" class="node">
<title>Node40</title>
<g id="a_node23"><a xlink:title=" ">
<polygon fill="none" stroke="#bfbfbf" points="108.01,-56.5 108.01,-75.5 154.01,-75.5 154.01,-56.5 108.01,-56.5"/>
<text text-anchor="middle" x="131.01" y="-63.5" font-family="Arial" font-size="10.00">cstdint</text>
</a>
</g>
</g>
<!-- Node8&#45;&gt;Node40 -->
<g id="edge57" class="edge">
<title>Node8&#45;&gt;Node40</title>
<path fill="none" stroke="midnightblue" d="M427.24,-299.45C351.6,-297.59 193.51,-289.56 153.01,-255 102.99,-212.31 103.83,-176.8 115.01,-112 116.58,-102.91 119.81,-93.22 122.95,-85.17"/>
<polygon fill="midnightblue" stroke="midnightblue" points="126.28,-86.3 126.9,-75.72 119.82,-83.6 126.28,-86.3"/>
</g>
<!-- Node44 -->
<g id="node25" class="node">
<title>Node44</title>
<g id="a_node25"><a xlink:href="fracture_8h.html" target="_top" xlink:title=" ">
<polygon fill="none" stroke="black" points="135.51,-112.5 135.51,-131.5 236.51,-131.5 236.51,-112.5 135.51,-112.5"/>
<text text-anchor="middle" x="186.01" y="-119.5" font-family="Arial" font-size="10.00">geometry/fracture.h</text>
</a>
</g>
</g>
<!-- Node8&#45;&gt;Node44 -->
<g id="edge52" class="edge">
<title>Node8&#45;&gt;Node44</title>
<path fill="none" stroke="midnightblue" d="M427.3,-300.11C353.62,-299.33 202.73,-293.03 170.01,-255 142.26,-222.74 162.78,-168.49 176.43,-140.65"/>
<polygon fill="midnightblue" stroke="midnightblue" points="179.59,-142.17 181.05,-131.68 173.36,-138.96 179.59,-142.17"/>
</g>
<!-- Node9&#45;&gt;Node3 -->
<g id="edge29" class="edge">
<title>Node9&#45;&gt;Node3</title>
<path fill="none" stroke="midnightblue" d="M800.3,-224.49C779.08,-215.45 752.09,-202.66 730.01,-188 708.5,-173.72 686.78,-153.46 672.69,-139.36"/>
<polygon fill="midnightblue" stroke="midnightblue" points="674.84,-136.56 665.33,-131.87 669.84,-141.46 674.84,-136.56"/>
</g>
<!-- Node9&#45;&gt;Node4 -->
<g id="edge30" class="edge">
<title>Node9&#45;&gt;Node4</title>
<path fill="none" stroke="midnightblue" d="M883.26,-238.75C922.84,-236.13 977.21,-225.33 1005.01,-188 1050.89,-126.41 944.25,-54.11 893.72,-24.59"/>
<polygon fill="midnightblue" stroke="midnightblue" points="895.41,-21.52 884.99,-19.59 891.93,-27.59 895.41,-21.52"/>
</g>
<!-- Node9&#45;&gt;Node6 -->
<g id="edge28" class="edge">
<title>Node9&#45;&gt;Node6</title>
<path fill="none" stroke="midnightblue" d="M792.41,-224.4C760.52,-214.09 717.78,-200.27 687.87,-190.59"/>
<polygon fill="midnightblue" stroke="midnightblue" points="688.84,-187.23 678.25,-187.48 686.69,-193.89 688.84,-187.23"/>
</g>
<!-- Node10 -->
<g id="node10" class="node">
<title>Node10</title>
<g id="a_node10"><a xlink:href="influenceFn_8h.html" target="_top" xlink:title=" ">
<polygon fill="none" stroke="red" points="1052.51,-168.5 1052.51,-187.5 1127.51,-187.5 1127.51,-168.5 1052.51,-168.5"/>
<text text-anchor="middle" x="1090.01" y="-175.5" font-family="Arial" font-size="10.00">influenceFn.h</text>
</a>
</g>
</g>
<!-- Node9&#45;&gt;Node10 -->
<g id="edge11" class="edge">
<title>Node9&#45;&gt;Node10</title>
<path fill="none" stroke="midnightblue" d="M883.19,-227.45C928.94,-216.73 997.93,-200.57 1043.46,-189.9"/>
<polygon fill="midnightblue" stroke="midnightblue" points="1044.43,-193.27 1053.37,-187.58 1042.84,-186.46 1044.43,-193.27"/>
</g>
<!-- Node12 -->
<g id="node12" class="node">
<title>Node12</title>
<g id="a_node12"><a xlink:href="point_8h.html" target="_top" xlink:title=" ">
<polygon fill="none" stroke="red" points="524.01,-56.5 524.01,-75.5 570.01,-75.5 570.01,-56.5 524.01,-56.5"/>
<text text-anchor="middle" x="547.01" y="-63.5" font-family="Arial" font-size="10.00">point.h</text>
</a>
</g>
</g>
<!-- Node9&#45;&gt;Node12 -->
<g id="edge26" class="edge">
<title>Node9&#45;&gt;Node12</title>
<path fill="none" stroke="midnightblue" d="M813.54,-224.46C798.7,-214.84 779.11,-201.43 763.01,-188 726.33,-157.4 727.78,-136.89 687.01,-112 653.49,-91.53 609.69,-79.41 580.08,-73"/>
<polygon fill="midnightblue" stroke="midnightblue" points="580.74,-69.56 570.23,-70.96 579.32,-76.42 580.74,-69.56"/>
</g>
<!-- Node23 -->
<g id="node15" class="node">
<title>Node23</title>
<g id="a_node15"><a xlink:href="materialDeck_8h.html" target="_top" xlink:title=" ">
<polygon fill="none" stroke="red" points="772.01,-168.5 772.01,-187.5 900.01,-187.5 900.01,-168.5 772.01,-168.5"/>
<text text-anchor="middle" x="836.01" y="-175.5" font-family="Arial" font-size="10.00">inp/decks/materialDeck.h</text>
</a>
</g>
</g>
<!-- Node9&#45;&gt;Node23 -->
<g id="edge19" class="edge">
<title>Node9&#45;&gt;Node23</title>
<path fill="none" stroke="midnightblue" d="M836.01,-224.4C836.01,-216.47 836.01,-206.46 836.01,-197.86"/>
<polygon fill="midnightblue" stroke="midnightblue" points="839.51,-197.66 836.01,-187.66 832.51,-197.66 839.51,-197.66"/>
</g>
<!-- Node24 -->
<g id="node16" class="node">
<title>Node24</title>
<g id="a_node16"><a xlink:href="function_8h.html" target="_top" xlink:title=" ">
<polygon fill="none" stroke="black" points="864.51,-112.5 864.51,-131.5 939.51,-131.5 939.51,-112.5 864.51,-112.5"/>
<text text-anchor="middle" x="902.01" y="-119.5" font-family="Arial" font-size="10.00">util/function.h</text>
</a>
</g>
</g>
<!-- Node9&#45;&gt;Node24 -->
<g id="edge23" class="edge">
<title>Node9&#45;&gt;Node24</title>
<path fill="none" stroke="midnightblue" d="M869.42,-224.34C884.4,-216.09 900.57,-204.11 909.01,-188 916.58,-173.56 913.45,-154.87 909.25,-141.24"/>
<polygon fill="midnightblue" stroke="midnightblue" points="912.47,-139.83 905.83,-131.57 905.87,-142.16 912.47,-139.83"/>
</g>
<!-- Node25 -->
<g id="node17" class="node">
<title>Node25</title>
<g id="a_node17"><a xlink:title=" ">
<polygon fill="none" stroke="#bfbfbf" points="956.01,-168.5 956.01,-187.5 996.01,-187.5 996.01,-168.5 956.01,-168.5"/>
<text text-anchor="middle" x="976.01" y="-175.5" font-family="Arial" font-size="10.00">limits</text>
</a>
</g>
</g>
<!-- Node9&#45;&gt;Node25 -->
<g id="edge27" class="edge">
<title>Node9&#45;&gt;Node25</title>
<path fill="none" stroke="midnightblue" d="M869.19,-224.4C892.57,-214.46 923.62,-201.26 946.22,-191.66"/>
<polygon fill="midnightblue" stroke="midnightblue" points="947.81,-194.79 955.64,-187.66 945.07,-188.35 947.81,-194.79"/>
</g>
<!-- Node10&#45;&gt;Node4 -->
<g id="edge18" class="edge">
<title>Node10&#45;&gt;Node4</title>
<path fill="none" stroke="midnightblue" d="M1088.91,-168.48C1085.61,-146.38 1073.65,-86.79 1038.01,-56 999.43,-22.67 938.75,-13.7 901.56,-11.48"/>
<polygon fill="midnightblue" stroke="midnightblue" points="901.43,-7.97 891.28,-11 901.1,-14.96 901.43,-7.97"/>
</g>
<!-- Node10&#45;&gt;Node11 -->
<g id="edge12" class="edge">
<title>Node10&#45;&gt;Node11</title>
<path fill="none" stroke="midnightblue" d="M1105.6,-168.32C1121.01,-159.74 1144.82,-146.49 1162.72,-136.52"/>
<polygon fill="midnightblue" stroke="midnightblue" points="1164.43,-139.58 1171.47,-131.65 1161.03,-133.46 1164.43,-139.58"/>
</g>
<!-- Node10&#45;&gt;Node22 -->
<g id="edge17" class="edge">
<title>Node10&#45;&gt;Node22</title>
<path fill="none" stroke="midnightblue" d="M1052.32,-170.3C981.11,-157.78 821.83,-130.44 687.01,-112 551.3,-93.43 388.9,-76.92 320.25,-70.2"/>
<polygon fill="midnightblue" stroke="midnightblue" points="320.35,-66.69 310.06,-69.2 319.67,-73.66 320.35,-66.69"/>
</g>
<!-- Node11&#45;&gt;Node4 -->
<g id="edge16" class="edge">
<title>Node11&#45;&gt;Node4</title>
<path fill="none" stroke="midnightblue" d="M1184.54,-112.16C1180.04,-97.83 1169.07,-69.74 1149.01,-56 1109.19,-28.72 966.1,-16.83 901.3,-12.76"/>
<polygon fill="midnightblue" stroke="midnightblue" points="901.43,-9.26 891.24,-12.15 901.01,-16.25 901.43,-9.26"/>
</g>
<!-- Node11&#45;&gt;Node12 -->
<g id="edge13" class="edge">
<title>Node11&#45;&gt;Node12</title>
<path fill="none" stroke="midnightblue" d="M1162.7,-118.95C1064.16,-110.63 694.28,-79.43 580.52,-69.83"/>
<polygon fill="midnightblue" stroke="midnightblue" points="580.58,-66.32 570.33,-68.97 580,-73.3 580.58,-66.32"/>
</g>
<!-- Node11&#45;&gt;Node20 -->
<g id="edge15" class="edge">
<title>Node11&#45;&gt;Node20</title>
<path fill="none" stroke="midnightblue" d="M1193.45,-112.08C1198.96,-104.46 1207.04,-93.26 1213.78,-83.94"/>
<polygon fill="midnightblue" stroke="midnightblue" points="1216.67,-85.91 1219.69,-75.75 1211,-81.81 1216.67,-85.91"/>
</g>
<!-- Node12&#45;&gt;Node4 -->
<g id="edge14" class="edge">
<title>Node12&#45;&gt;Node4</title>
<path fill="none" stroke="midnightblue" d="M570.17,-61.12C626.72,-51.63 771.97,-27.27 836.86,-16.39"/>
<polygon fill="midnightblue" stroke="midnightblue" points="837.64,-19.81 846.92,-14.7 836.48,-12.91 837.64,-19.81"/>
</g>
<!-- Node23&#45;&gt;Node3 -->
<g id="edge21" class="edge">
<title>Node23&#45;&gt;Node3</title>
<path fill="none" stroke="midnightblue" d="M807.65,-168.44C774.86,-158.55 721.11,-142.34 687.46,-132.19"/>
<polygon fill="midnightblue" stroke="midnightblue" points="688.29,-128.78 677.71,-129.24 686.27,-135.48 688.29,-128.78"/>
</g>
<!-- Node23&#45;&gt;Node4 -->
<g id="edge22" class="edge">
<title>Node23&#45;&gt;Node4</title>
<path fill="none" stroke="midnightblue" d="M837.79,-168.08C842.98,-141.95 858.23,-65.21 865.32,-29.58"/>
<polygon fill="midnightblue" stroke="midnightblue" points="868.79,-30.06 867.31,-19.57 861.93,-28.69 868.79,-30.06"/>
</g>
<!-- Node23&#45;&gt;Node11 -->
<g id="edge20" class="edge">
<title>Node23&#45;&gt;Node11</title>
<path fill="none" stroke="midnightblue" d="M891.63,-168.44C964.94,-157.17 1091.7,-137.66 1152.51,-128.31"/>
<polygon fill="midnightblue" stroke="midnightblue" points="1153.38,-131.72 1162.73,-126.74 1152.31,-124.8 1153.38,-131.72"/>
</g>
<!-- Node24&#45;&gt;Node4 -->
<g id="edge25" class="edge">
<title>Node24&#45;&gt;Node4</title>
<path fill="none" stroke="midnightblue" d="M899.42,-112.37C894.07,-94.54 881.7,-53.3 874.49,-29.27"/>
<polygon fill="midnightblue" stroke="midnightblue" points="877.82,-28.16 871.59,-19.59 871.11,-30.18 877.82,-28.16"/>
</g>
<!-- Node24&#45;&gt;Node12 -->
<g id="edge24" class="edge">
<title>Node24&#45;&gt;Node12</title>
<path fill="none" stroke="midnightblue" d="M864.36,-115.27C794.57,-104.66 646.25,-82.09 580.08,-72.03"/>
<polygon fill="midnightblue" stroke="midnightblue" points="580.6,-68.57 570.19,-70.53 579.55,-75.49 580.6,-68.57"/>
</g>
<!-- Node26&#45;&gt;Node12 -->
<g id="edge36" class="edge">
<title>Node26&#45;&gt;Node12</title>
<path fill="none" stroke="midnightblue" d="M266.4,-229.65C250.9,-215.67 225.53,-188 241.01,-168 280.07,-117.53 319.28,-151.61 380.01,-132 429.11,-116.15 484.68,-93.55 517.73,-79.61"/>
<polygon fill="midnightblue" stroke="midnightblue" points="519.4,-82.7 527.23,-75.57 516.66,-76.26 519.4,-82.7"/>
</g>
<!-- Node27 -->
<g id="node19" class="node">
<title>Node27</title>
<g id="a_node19"><a xlink:href="particleLoading_8h.html" target="_top" xlink:title=" ">
<polygon fill="none" stroke="red" points="250.01,-168.5 250.01,-187.5 340.01,-187.5 340.01,-168.5 250.01,-168.5"/>
<text text-anchor="middle" x="295.01" y="-175.5" font-family="Arial" font-size="10.00">particleLoading.h</text>
</a>
</g>
</g>
<!-- Node26&#45;&gt;Node27 -->
<g id="edge33" class="edge">
<title>Node26&#45;&gt;Node27</title>
<path fill="none" stroke="midnightblue" d="M279.59,-229.98C282.16,-221.49 286.18,-208.2 289.47,-197.32"/>
<polygon fill="midnightblue" stroke="midnightblue" points="292.89,-198.09 292.44,-187.51 286.19,-196.07 292.89,-198.09"/>
</g>
<!-- Node27&#45;&gt;Node3 -->
<g id="edge34" class="edge">
<title>Node27&#45;&gt;Node3</title>
<path fill="none" stroke="midnightblue" d="M340.13,-173.31C402.6,-167.67 519.01,-155.26 626.2,-132.11"/>
<polygon fill="midnightblue" stroke="midnightblue" points="627.2,-135.47 636.21,-129.91 625.7,-128.64 627.2,-135.47"/>
</g>
<!-- Node27&#45;&gt;Node4 -->
<g id="edge35" class="edge">
<title>Node27&#45;&gt;Node4</title>
<path fill="none" stroke="midnightblue" d="M249.77,-176.49C178.81,-174.63 46.36,-166.49 17.01,-132 -4.88,-106.28 -6.23,-80.51 17.01,-56 45.73,-25.73 684.04,-13.88 836.52,-11.48"/>
<polygon fill="midnightblue" stroke="midnightblue" points="836.69,-14.98 846.64,-11.32 836.59,-7.98 836.69,-14.98"/>
</g>
<!-- Node37&#45;&gt;Node12 -->
<g id="edge39" class="edge">
<title>Node37&#45;&gt;Node12</title>
<path fill="none" stroke="midnightblue" d="M423.54,-229.74C420.14,-215.88 415.43,-188.38 425.01,-168 435.72,-145.24 493.42,-103.43 525.49,-81.42"/>
<polygon fill="midnightblue" stroke="midnightblue" points="527.87,-84.04 534.17,-75.52 523.93,-78.25 527.87,-84.04"/>
</g>
<!-- Node37&#45;&gt;Node27 -->
<g id="edge38" class="edge">
<title>Node37&#45;&gt;Node27</title>
<path fill="none" stroke="midnightblue" d="M407.24,-229.98C385.16,-219.95 348.29,-203.2 322.87,-191.65"/>
<polygon fill="midnightblue" stroke="midnightblue" points="324.3,-188.46 313.75,-187.51 321.4,-194.83 324.3,-188.46"/>
</g>
<!-- Node38&#45;&gt;Node3 -->
<g id="edge48" class="edge">
<title>Node38&#45;&gt;Node3</title>
<path fill="none" stroke="midnightblue" d="M510.58,-168.44C542.14,-158.65 593.69,-142.65 626.45,-132.48"/>
<polygon fill="midnightblue" stroke="midnightblue" points="627.87,-135.71 636.38,-129.4 625.79,-129.02 627.87,-135.71"/>
</g>
<!-- Node38&#45;&gt;Node4 -->
<g id="edge49" class="edge">
<title>Node38&#45;&gt;Node4</title>
<path fill="none" stroke="midnightblue" d="M482.34,-168.33C481.14,-145.87 481.34,-85.49 515.01,-56 562.41,-14.48 758.02,-10.53 836.36,-10.66"/>
<polygon fill="midnightblue" stroke="midnightblue" points="836.59,-14.16 846.61,-10.7 836.62,-7.16 836.59,-14.16"/>
</g>
<!-- Node38&#45;&gt;Node12 -->
<g id="edge41" class="edge">
<title>Node38&#45;&gt;Node12</title>
<path fill="none" stroke="midnightblue" d="M488.03,-168.37C498.55,-150.3 523.05,-108.18 536.94,-84.31"/>
<polygon fill="midnightblue" stroke="midnightblue" points="540.01,-86 542.01,-75.59 533.96,-82.47 540.01,-86"/>
</g>
<!-- Node38&#45;&gt;Node39 -->
<g id="edge42" class="edge">
<title>Node38&#45;&gt;Node39</title>
<path fill="none" stroke="midnightblue" d="M459.09,-168.44C433.79,-159.4 393.71,-145.06 365.33,-134.92"/>
<polygon fill="midnightblue" stroke="midnightblue" points="366.42,-131.59 355.83,-131.52 364.06,-138.18 366.42,-131.59"/>
</g>
<!-- Node38&#45;&gt;Node40 -->
<g id="edge47" class="edge">
<title>Node38&#45;&gt;Node40</title>
<path fill="none" stroke="midnightblue" d="M434.19,-169.93C429.4,-169.26 424.61,-168.61 420.01,-168 354.76,-159.35 169.63,-181.29 126.01,-132 114.91,-119.45 118.32,-99.67 123.17,-85.23"/>
<polygon fill="midnightblue" stroke="midnightblue" points="126.46,-86.42 126.77,-75.83 119.93,-83.92 126.46,-86.42"/>
</g>
<!-- Node42 -->
<g id="node24" class="node">
<title>Node42</title>
<g id="a_node24"><a xlink:href="nflannSetup_8h.html" target="_top" xlink:title=" ">
<polygon fill="none" stroke="red" points="541.51,-112.5 541.51,-131.5 618.51,-131.5 618.51,-112.5 541.51,-112.5"/>
<text text-anchor="middle" x="580.01" y="-119.5" font-family="Arial" font-size="10.00">nflannSetup.h</text>
</a>
</g>
</g>
<!-- Node38&#45;&gt;Node42 -->
<g id="edge50" class="edge">
<title>Node38&#45;&gt;Node42</title>
<path fill="none" stroke="midnightblue" d="M498.6,-168.32C514.01,-159.74 537.82,-146.49 555.72,-136.52"/>
<polygon fill="midnightblue" stroke="midnightblue" points="557.43,-139.58 564.47,-131.65 554.03,-133.46 557.43,-139.58"/>
</g>
<!-- Node39&#45;&gt;Node4 -->
<g id="edge46" class="edge">
<title>Node39&#45;&gt;Node4</title>
<path fill="none" stroke="midnightblue" d="M336.13,-112.4C343.6,-97.9 360.86,-68.88 385.01,-56 463.62,-14.1 741.73,-10.7 836.84,-10.8"/>
<polygon fill="midnightblue" stroke="midnightblue" points="836.99,-14.3 847,-10.83 837.01,-7.3 836.99,-14.3"/>
</g>
<!-- Node39&#45;&gt;Node12 -->
<g id="edge43" class="edge">
<title>Node39&#45;&gt;Node12</title>
<path fill="none" stroke="midnightblue" d="M366.08,-112.44C406.71,-102.24 474.14,-85.3 514.21,-75.24"/>
<polygon fill="midnightblue" stroke="midnightblue" points="515.17,-78.61 524.01,-72.78 513.46,-71.82 515.17,-78.61"/>
</g>
<!-- Node39&#45;&gt;Node22 -->
<g id="edge45" class="edge">
<title>Node39&#45;&gt;Node22</title>
<path fill="none" stroke="midnightblue" d="M324.58,-112.08C318.16,-104.38 308.71,-93.03 300.89,-83.65"/>
<polygon fill="midnightblue" stroke="midnightblue" points="303.4,-81.19 294.3,-75.75 298.02,-85.67 303.4,-81.19"/>
</g>
<!-- Node39&#45;&gt;Node40 -->
<g id="edge44" class="edge">
<title>Node39&#45;&gt;Node40</title>
<path fill="none" stroke="midnightblue" d="M300.16,-112.44C263.03,-102.47 201.94,-86.06 164.23,-75.92"/>
<polygon fill="midnightblue" stroke="midnightblue" points="164.82,-72.46 154.25,-73.24 163,-79.22 164.82,-72.46"/>
</g>
<!-- Node42&#45;&gt;Node12 -->
<g id="edge51" class="edge">
<title>Node42&#45;&gt;Node12</title>
<path fill="none" stroke="midnightblue" d="M574.56,-112.08C570,-104.61 563.34,-93.72 557.72,-84.52"/>
<polygon fill="midnightblue" stroke="midnightblue" points="560.56,-82.46 552.36,-75.75 554.59,-86.11 560.56,-82.46"/>
</g>
<!-- Node44&#45;&gt;Node4 -->
<g id="edge56" class="edge">
<title>Node44&#45;&gt;Node4</title>
<path fill="none" stroke="midnightblue" d="M192.04,-112.31C202.75,-97.67 226.69,-68.46 255.01,-56 360.7,-9.51 725.33,-9.44 836.55,-10.55"/>
<polygon fill="midnightblue" stroke="midnightblue" points="836.76,-14.05 846.8,-10.66 836.84,-7.05 836.76,-14.05"/>
</g>
<!-- Node44&#45;&gt;Node12 -->
<g id="edge53" class="edge">
<title>Node44&#45;&gt;Node12</title>
<path fill="none" stroke="midnightblue" d="M236.59,-113.43C311.43,-102.24 449.67,-81.56 513.32,-72.04"/>
<polygon fill="midnightblue" stroke="midnightblue" points="514.22,-75.44 523.59,-70.5 513.18,-68.52 514.22,-75.44"/>
</g>
<!-- Node44&#45;&gt;Node22 -->
<g id="edge55" class="edge">
<title>Node44&#45;&gt;Node22</title>
<path fill="none" stroke="midnightblue" d="M202.24,-112.32C218.36,-103.7 243.31,-90.36 261.98,-80.39"/>
<polygon fill="midnightblue" stroke="midnightblue" points="263.66,-83.46 270.82,-75.65 260.36,-77.28 263.66,-83.46"/>
</g>
<!-- Node44&#45;&gt;Node40 -->
<g id="edge54" class="edge">
<title>Node44&#45;&gt;Node40</title>
<path fill="none" stroke="midnightblue" d="M176.93,-112.08C168.84,-104.14 156.82,-92.34 147.1,-82.8"/>
<polygon fill="midnightblue" stroke="midnightblue" points="149.51,-80.26 139.92,-75.75 144.61,-85.25 149.51,-80.26"/>
</g>
<!-- Node45&#45;&gt;Node3 -->
<g id="edge62" class="edge">
<title>Node45&#45;&gt;Node3</title>
<path fill="none" stroke="midnightblue" d="M1295.82,-168.94C1292.85,-168.61 1289.9,-168.29 1287.01,-168 1057.42,-144.85 779.56,-129.35 687.95,-124.57"/>
<polygon fill="midnightblue" stroke="midnightblue" points="687.88,-121.06 677.72,-124.04 687.52,-128.05 687.88,-121.06"/>
</g>
<!-- Node45&#45;&gt;Node4 -->
<g id="edge63" class="edge">
<title>Node45&#45;&gt;Node4</title>
<path fill="none" stroke="midnightblue" d="M1353.37,-168.39C1345.85,-145.53 1322.01,-83.21 1278.01,-56 1215.09,-17.08 986.22,-11.68 901.14,-11.04"/>
<polygon fill="midnightblue" stroke="midnightblue" points="901.06,-7.54 891.04,-10.98 901.02,-14.54 901.06,-7.54"/>
</g>
<!-- Node45&#45;&gt;Node11 -->
<g id="edge61" class="edge">
<title>Node45&#45;&gt;Node11</title>
<path fill="none" stroke="midnightblue" d="M1329.23,-168.44C1299.92,-159.08 1252.86,-144.04 1220.98,-133.85"/>
<polygon fill="midnightblue" stroke="midnightblue" points="1221.79,-130.44 1211.2,-130.73 1219.66,-137.11 1221.79,-130.44"/>
</g>
</g>
</svg>
