<?xml version="1.0" encoding="UTF-8" standalone="no"?>
<!DOCTYPE svg PUBLIC "-//W3C//DTD SVG 1.1//EN"
 "http://www.w3.org/Graphics/SVG/1.1/DTD/svg11.dtd">
<!-- Generated by graphviz version 2.43.0 (0)
 -->
<!-- Title: /home/user/project/test/test_exec/peridem/testPeriDEMLib.h Pages: 1 -->
<svg width="264pt" height="128pt"
 viewBox="0.00 0.00 264.00 128.00" xmlns="http://www.w3.org/2000/svg" xmlns:xlink="http://www.w3.org/1999/xlink">
<g id="graph0" class="graph" transform="scale(1 1) rotate(0) translate(4 124)">
<title>/home/user/project/test/test_exec/peridem/testPeriDEMLib.h</title>
<!-- Node1 -->
<g id="node1" class="node">
<title>Node1</title>
<g id="a_node1"><a xlink:title=" ">
<polygon fill="#bfbfbf" stroke="black" points="68,-78.5 68,-119.5 187,-119.5 187,-78.5 68,-78.5"/>
<text text-anchor="start" x="76" y="-107.5" font-family="Arial" font-size="10.00">/home/user/project</text>
<text text-anchor="start" x="76" y="-96.5" font-family="Arial" font-size="10.00">/test/test_exec/peridem</text>
<text text-anchor="middle" x="127.5" y="-85.5" font-family="Arial" font-size="10.00">/testPeriDEMLib.h</text>
</a>
</g>
</g>
<!-- Node2 -->
<g id="node2" class="node">
<title>Node2</title>
<g id="a_node2"><a xlink:href="testPeriDEM_8cpp.html" target="_top" xlink:title=" ">
<polygon fill="none" stroke="black" points="0,-0.5 0,-41.5 119,-41.5 119,-0.5 0,-0.5"/>
<text text-anchor="start" x="8" y="-29.5" font-family="Arial" font-size="10.00">/home/user/project</text>
<text text-anchor="start" x="8" y="-18.5" font-family="Arial" font-size="10.00">/test/test_exec/peridem</text>
<text text-anchor="middle" x="59.5" y="-7.5" font-family="Arial" font-size="10.00">/testPeriDEM.cpp</text>
</a>
</g>
</g>
<!-- Node1&#45;&gt;Node2 -->
<g id="edge1" class="edge">
<title>Node1&#45;&gt;Node2</title>
<path fill="none" stroke="midnightblue" d="M103.27,-70.92C94.58,-61.2 84.96,-50.45 76.95,-41.51"/>
<polygon fill="midnightblue" stroke="midnightblue" points="100.71,-73.31 109.99,-78.43 105.93,-68.64 100.71,-73.31"/>
</g>
<!-- Node3 -->
<g id="node3" class="node">
<title>Node3</title>
<g id="a_node3"><a xlink:href="testPeriDEMLib_8cpp.html" target="_top" xlink:title=" ">
<polygon fill="none" stroke="black" points="137,-0.5 137,-41.5 256,-41.5 256,-0.5 137,-0.5"/>
<text text-anchor="start" x="145" y="-29.5" font-family="Arial" font-size="10.00">/home/user/project</text>
<text text-anchor="start" x="145" y="-18.5" font-family="Arial" font-size="10.00">/test/test_exec/peridem</text>
<text text-anchor="middle" x="196.5" y="-7.5" font-family="Arial" font-size="10.00">/testPeriDEMLib.cpp</text>
</a>
</g>
</g>
<!-- Node1&#45;&gt;Node3 -->
<g id="edge2" class="edge">
<title>Node1&#45;&gt;Node3</title>
<path fill="none" stroke="midnightblue" d="M152.09,-70.92C160.91,-61.2 170.67,-50.45 178.79,-41.51"/>
<polygon fill="midnightblue" stroke="midnightblue" points="149.4,-68.67 145.27,-78.43 154.58,-73.38 149.4,-68.67"/>
</g>
</g>
</svg>
