<?xml version="1.0" encoding="UTF-8" standalone="no"?>
<!DOCTYPE svg PUBLIC "-//W3C//DTD SVG 1.1//EN"
 "http://www.w3.org/Graphics/SVG/1.1/DTD/svg11.dtd">
<!-- Generated by graphviz version 2.43.0 (0)
 -->
<!-- Title: /home/user/project/test/test_exec/nsearch/testNSearchLib.cpp Pages: 1 -->
<svg width="1586pt" height="280pt"
 viewBox="0.00 0.00 1585.50 280.00" xmlns="http://www.w3.org/2000/svg" xmlns:xlink="http://www.w3.org/1999/xlink">
<g id="graph0" class="graph" transform="scale(1 1) rotate(0) translate(4 276)">
<title>/home/user/project/test/test_exec/nsearch/testNSearchLib.cpp</title>
<!-- Node1 -->
<g id="Node000001" class="node">
<title>Node1</title>
<g id="a_Node000001"><a xlink:title=" ">
<polygon fill="#999999" stroke="#666666" points="903,-272 784,-272 784,-231 903,-231 903,-272"/>
<text text-anchor="start" x="792" y="-260" font-family="Arial" font-size="10.00">/home/user/project</text>
<text text-anchor="start" x="792" y="-249" font-family="Arial" font-size="10.00">/test/test_exec/nsearch</text>
<text text-anchor="middle" x="843.5" y="-238" font-family="Arial" font-size="10.00">/testNSearchLib.cpp</text>
</a>
</g>
</g>
<!-- Node2 -->
<g id="Node000002" class="node">
<title>Node2</title>
<g id="a_Node000002"><a xlink:href="testNSearchLib_8h.html" target="_top" xlink:title=" ">
<polygon fill="white" stroke="#666666" points="709.5,-189.5 617.5,-189.5 617.5,-170.5 709.5,-170.5 709.5,-189.5"/>
<text text-anchor="middle" x="663.5" y="-177.5" font-family="Arial" font-size="10.00">testNSearchLib.h</text>
</a>
</g>
</g>
<!-- Node1&#45;&gt;Node2 -->
<g id="edge1_Node000001_Node000002" class="edge">
<title>Node1&#45;&gt;Node2</title>
<g id="a_edge1_Node000001_Node000002"><a xlink:title=" ">
<path fill="none" stroke="#63b8ff" d="M792.88,-230.96C761.39,-218.8 721.9,-203.55 694.88,-193.11"/>
<polygon fill="#63b8ff" stroke="#63b8ff" points="696.11,-189.84 685.52,-189.5 693.59,-196.37 696.11,-189.84"/>
</a>
</g>
</g>
<!-- Node4 -->
<g id="Node000004" class="node">
<title>Node4</title>
<g id="a_Node000004"><a xlink:title=" ">
<polygon fill="#e0e0e0" stroke="#999999" points="658.5,-19 614.5,-19 614.5,0 658.5,0 658.5,-19"/>
<text text-anchor="middle" x="636.5" y="-7" font-family="Arial" font-size="10.00">vector</text>
</a>
</g>
</g>
<!-- Node1&#45;&gt;Node4 -->
<g id="edge45_Node000001_Node000004" class="edge">
<title>Node1&#45;&gt;Node4</title>
<g id="a_edge45_Node000001_Node000004"><a xlink:title=" ">
<path fill="none" stroke="#63b8ff" d="M794.63,-230.77C779.67,-222.14 764.94,-210.4 756.5,-195 738.34,-161.87 739.44,-143.71 756.5,-110 768.7,-85.89 793.3,-98.11 805.5,-74 809.31,-66.47 810.66,-61.69 805.5,-55 788.91,-33.48 712.78,-20.29 668.57,-14.3"/>
<polygon fill="#63b8ff" stroke="#63b8ff" points="668.97,-10.83 658.6,-13 668.06,-17.77 668.97,-10.83"/>
</a>
</g>
</g>
<!-- Node5 -->
<g id="Node000005" class="node">
<title>Node5</title>
<g id="a_Node000005"><a xlink:href="nsearch_8h.html" target="_top" xlink:title=" ">
<polygon fill="white" stroke="#666666" points="448,-189.5 351,-189.5 351,-170.5 448,-170.5 448,-189.5"/>
<text text-anchor="middle" x="399.5" y="-177.5" font-family="Arial" font-size="10.00">nsearch/nsearch.h</text>
</a>
</g>
</g>
<!-- Node1&#45;&gt;Node5 -->
<g id="edge4_Node000001_Node000005" class="edge">
<title>Node1&#45;&gt;Node5</title>
<g id="a_edge4_Node000001_Node000005"><a xlink:title=" ">
<path fill="none" stroke="#63b8ff" d="M783.62,-241.13C698.32,-227.78 542.82,-203.43 458.18,-190.19"/>
<polygon fill="#63b8ff" stroke="#63b8ff" points="458.64,-186.72 448.22,-188.63 457.56,-193.63 458.64,-186.72"/>
</a>
</g>
</g>
<!-- Node6 -->
<g id="Node000006" class="node">
<title>Node6</title>
<g id="a_Node000006"><a xlink:href="point_8h.html" target="_top" xlink:title=" ">
<polygon fill="white" stroke="#666666" points="140.5,-74 78.5,-74 78.5,-55 140.5,-55 140.5,-74"/>
<text text-anchor="middle" x="109.5" y="-62" font-family="Arial" font-size="10.00">util/point.h</text>
</a>
</g>
</g>
<!-- Node1&#45;&gt;Node6 -->
<g id="edge32_Node000001_Node000006" class="edge">
<title>Node1&#45;&gt;Node6</title>
<g id="a_edge32_Node000001_Node000006"><a xlink:title=" ">
<path fill="none" stroke="#63b8ff" d="M783.52,-247.65C654.16,-241.06 352.75,-223.12 254.5,-195 191.44,-176.95 162.43,-181.04 122.5,-129 112.76,-116.31 109.83,-98.12 109.15,-84.47"/>
<polygon fill="#63b8ff" stroke="#63b8ff" points="112.64,-84.23 109.01,-74.28 105.65,-84.33 112.64,-84.23"/>
</a>
</g>
</g>
<!-- Node10 -->
<g id="Node000010" class="node">
<title>Node10</title>
<g id="a_Node000010"><a xlink:title=" ">
<polygon fill="#e0e0e0" stroke="#999999" points="846.5,-19 792.5,-19 792.5,0 846.5,0 846.5,-19"/>
<text text-anchor="middle" x="819.5" y="-7" font-family="Arial" font-size="10.00">iostream</text>
</a>
</g>
</g>
<!-- Node1&#45;&gt;Node10 -->
<g id="edge43_Node000001_Node000010" class="edge">
<title>Node1&#45;&gt;Node10</title>
<g id="a_edge43_Node000001_Node000010"><a xlink:title=" ">
<path fill="none" stroke="#63b8ff" d="M857.28,-230.74C874.24,-204.17 900.14,-155.06 894.5,-110 891.36,-84.97 894.64,-75.89 880.5,-55 871.89,-42.28 858.39,-31.89 846.28,-24.35"/>
<polygon fill="#63b8ff" stroke="#63b8ff" points="847.79,-21.18 837.39,-19.15 844.25,-27.22 847.79,-21.18"/>
</a>
</g>
</g>
<!-- Node11 -->
<g id="Node000011" class="node">
<title>Node11</title>
<g id="a_Node000011"><a xlink:href="methods_8h.html" target="_top" xlink:title=" ">
<polygon fill="white" stroke="#666666" points="588.5,-129 510.5,-129 510.5,-110 588.5,-110 588.5,-129"/>
<text text-anchor="middle" x="549.5" y="-117" font-family="Arial" font-size="10.00">util/methods.h</text>
</a>
</g>
</g>
<!-- Node1&#45;&gt;Node11 -->
<g id="edge31_Node000001_Node000011" class="edge">
<title>Node1&#45;&gt;Node11</title>
<g id="a_edge31_Node000001_Node000011"><a xlink:title=" ">
<path fill="none" stroke="#63b8ff" d="M783.79,-247.24C733.6,-242.09 661.74,-228.86 608.5,-195 586.27,-180.86 568.82,-155.38 558.83,-138.2"/>
<polygon fill="#63b8ff" stroke="#63b8ff" points="561.75,-136.24 553.84,-129.2 555.63,-139.64 561.75,-136.24"/>
</a>
</g>
</g>
<!-- Node20 -->
<g id="Node000020" class="node">
<title>Node20</title>
<g id="a_Node000020"><a xlink:href="function_8h.html" target="_top" xlink:title=" ">
<polygon fill="white" stroke="#666666" points="75,-129 0,-129 0,-110 75,-110 75,-129"/>
<text text-anchor="middle" x="37.5" y="-117" font-family="Arial" font-size="10.00">util/function.h</text>
</a>
</g>
</g>
<!-- Node1&#45;&gt;Node20 -->
<g id="edge26_Node000001_Node000020" class="edge">
<title>Node1&#45;&gt;Node20</title>
<g id="a_edge26_Node000001_Node000020"><a xlink:title=" ">
<path fill="none" stroke="#63b8ff" d="M783.82,-249.04C616.17,-244.52 149.25,-229.01 89.5,-195 67.5,-182.48 52.65,-156.37 44.62,-138.64"/>
<polygon fill="#63b8ff" stroke="#63b8ff" points="47.81,-137.18 40.69,-129.33 41.36,-139.91 47.81,-137.18"/>
</a>
</g>
</g>
<!-- Node21 -->
<g id="Node000021" class="node">
<title>Node21</title>
<g id="a_Node000021"><a xlink:href="matrix_8h.html" target="_top" xlink:title=" ">
<polygon fill="white" stroke="#666666" points="199.5,-129 131.5,-129 131.5,-110 199.5,-110 199.5,-129"/>
<text text-anchor="middle" x="165.5" y="-117" font-family="Arial" font-size="10.00">util/matrix.h</text>
</a>
</g>
</g>
<!-- Node1&#45;&gt;Node21 -->
<g id="edge29_Node000001_Node000021" class="edge">
<title>Node1&#45;&gt;Node21</title>
<g id="a_edge29_Node000001_Node000021"><a xlink:title=" ">
<path fill="none" stroke="#63b8ff" d="M783.76,-249.47C688.65,-246.59 497.61,-235.74 341.5,-195 285.4,-180.36 223.88,-150.99 190.48,-133.83"/>
<polygon fill="#63b8ff" stroke="#63b8ff" points="191.93,-130.63 181.44,-129.12 188.7,-136.84 191.93,-130.63"/>
</a>
</g>
</g>
<!-- Node22 -->
<g id="Node000022" class="node">
<title>Node22</title>
<g id="a_Node000022"><a xlink:href="randomDist_8h.html" target="_top" xlink:title=" ">
<polygon fill="white" stroke="#666666" points="1037,-189.5 946,-189.5 946,-170.5 1037,-170.5 1037,-189.5"/>
<text text-anchor="middle" x="991.5" y="-177.5" font-family="Arial" font-size="10.00">util/randomDist.h</text>
</a>
</g>
</g>
<!-- Node1&#45;&gt;Node22 -->
<g id="edge33_Node000001_Node000022" class="edge">
<title>Node1&#45;&gt;Node22</title>
<g id="a_edge33_Node000001_Node000022"><a xlink:title=" ">
<path fill="none" stroke="#63b8ff" d="M885.12,-230.96C910.44,-219.06 942.06,-204.21 964.23,-193.81"/>
<polygon fill="#63b8ff" stroke="#63b8ff" points="965.83,-196.92 973.39,-189.5 962.85,-190.59 965.83,-196.92"/>
</a>
</g>
</g>
<!-- Node23 -->
<g id="Node000023" class="node">
<title>Node23</title>
<g id="a_Node000023"><a xlink:title=" ">
<polygon fill="#e0e0e0" stroke="#999999" points="1015,-129 966,-129 966,-110 1015,-110 1015,-129"/>
<text text-anchor="middle" x="990.5" y="-117" font-family="Arial" font-size="10.00">random</text>
</a>
</g>
</g>
<!-- Node1&#45;&gt;Node23 -->
<g id="edge44_Node000001_Node000023" class="edge">
<title>Node1&#45;&gt;Node23</title>
<g id="a_edge44_Node000001_Node000023"><a xlink:title=" ">
<path fill="none" stroke="#63b8ff" d="M864.26,-230.82C882.92,-213.27 911.19,-187.03 936.5,-165 947.95,-155.03 961.1,-144.19 971.55,-135.7"/>
<polygon fill="#63b8ff" stroke="#63b8ff" points="974.02,-138.2 979.6,-129.2 969.62,-132.76 974.02,-138.2"/>
</a>
</g>
</g>
<!-- Node24 -->
<g id="Node000024" class="node">
<title>Node24</title>
<g id="a_Node000024"><a xlink:href="parallelUtil_8h.html" target="_top" xlink:title=" ">
<polygon fill="white" stroke="#666666" points="851.5,-189.5 765.5,-189.5 765.5,-170.5 851.5,-170.5 851.5,-189.5"/>
<text text-anchor="middle" x="808.5" y="-177.5" font-family="Arial" font-size="10.00">util/parallelUtil.h</text>
</a>
</g>
</g>
<!-- Node1&#45;&gt;Node24 -->
<g id="edge35_Node000001_Node000024" class="edge">
<title>Node1&#45;&gt;Node24</title>
<g id="a_edge35_Node000001_Node000024"><a xlink:title=" ">
<path fill="none" stroke="#63b8ff" d="M833.56,-230.77C828.52,-220.76 822.45,-208.7 817.54,-198.95"/>
<polygon fill="#63b8ff" stroke="#63b8ff" points="820.57,-197.18 812.94,-189.82 814.31,-200.33 820.57,-197.18"/>
</a>
</g>
</g>
<!-- Node27 -->
<g id="Node000027" class="node">
<title>Node27</title>
<g id="a_Node000027"><a xlink:title=" ">
<polygon fill="#e0e0e0" stroke="#999999" points="1125.5,-189.5 1055.5,-189.5 1055.5,-170.5 1125.5,-170.5 1125.5,-189.5"/>
<text text-anchor="middle" x="1090.5" y="-177.5" font-family="Arial" font-size="10.00">fmt/format.h</text>
</a>
</g>
</g>
<!-- Node1&#45;&gt;Node27 -->
<g id="edge40_Node000001_Node000027" class="edge">
<title>Node1&#45;&gt;Node27</title>
<g id="a_edge40_Node000001_Node000027"><a xlink:title=" ">
<path fill="none" stroke="#63b8ff" d="M903.2,-234.87C943.74,-224.09 998.5,-209.19 1046.5,-195 1049.08,-194.24 1051.73,-193.44 1054.41,-192.62"/>
<polygon fill="#63b8ff" stroke="#63b8ff" points="1055.52,-195.93 1064.03,-189.62 1053.44,-189.25 1055.52,-195.93"/>
</a>
</g>
</g>
<!-- Node28 -->
<g id="Node000028" class="node">
<title>Node28</title>
<g id="a_Node000028"><a xlink:title=" ">
<polygon fill="#e0e0e0" stroke="#999999" points="1185,-189.5 1144,-189.5 1144,-170.5 1185,-170.5 1185,-189.5"/>
<text text-anchor="middle" x="1164.5" y="-177.5" font-family="Arial" font-size="10.00">bitset</text>
</a>
</g>
</g>
<!-- Node1&#45;&gt;Node28 -->
<g id="edge41_Node000001_Node000028" class="edge">
<title>Node1&#45;&gt;Node28</title>
<g id="a_edge41_Node000001_Node000028"><a xlink:title=" ">
<path fill="none" stroke="#63b8ff" d="M903.1,-243.54C962.69,-235.56 1056.44,-220.22 1134.5,-195 1135.9,-194.55 1137.32,-194.04 1138.75,-193.51"/>
<polygon fill="#63b8ff" stroke="#63b8ff" points="1140.13,-196.72 1147.98,-189.6 1137.4,-190.27 1140.13,-196.72"/>
</a>
</g>
</g>
<!-- Node29 -->
<g id="Node000029" class="node">
<title>Node29</title>
<g id="a_Node000029"><a xlink:title=" ">
<polygon fill="#e0e0e0" stroke="#999999" points="1253.5,-189.5 1203.5,-189.5 1203.5,-170.5 1253.5,-170.5 1253.5,-189.5"/>
<text text-anchor="middle" x="1228.5" y="-177.5" font-family="Arial" font-size="10.00">fstream</text>
</a>
</g>
</g>
<!-- Node1&#45;&gt;Node29 -->
<g id="edge42_Node000001_Node000029" class="edge">
<title>Node1&#45;&gt;Node29</title>
<g id="a_edge42_Node000001_Node000029"><a xlink:title=" ">
<path fill="none" stroke="#63b8ff" d="M903.09,-245.36C973.66,-238.3 1094.27,-223.14 1194.5,-195 1196.44,-194.46 1198.41,-193.83 1200.38,-193.16"/>
<polygon fill="#63b8ff" stroke="#63b8ff" points="1201.95,-196.31 1210.07,-189.5 1199.48,-189.76 1201.95,-196.31"/>
</a>
</g>
</g>
<!-- Node30 -->
<g id="Node000030" class="node">
<title>Node30</title>
<g id="a_Node000030"><a xlink:title=" ">
<polygon fill="#e0e0e0" stroke="#999999" points="1423,-189.5 1272,-189.5 1272,-170.5 1423,-170.5 1423,-189.5"/>
<text text-anchor="middle" x="1347.5" y="-177.5" font-family="Arial" font-size="10.00">taskflow/taskflow/taskflow.hpp</text>
</a>
</g>
</g>
<!-- Node1&#45;&gt;Node30 -->
<g id="edge46_Node000001_Node000030" class="edge">
<title>Node1&#45;&gt;Node30</title>
<g id="a_edge46_Node000001_Node000030"><a xlink:title=" ">
<path fill="none" stroke="#63b8ff" d="M903.26,-243.19C984.62,-233.09 1134.76,-213.98 1262.5,-195 1270.49,-193.81 1278.9,-192.5 1287.19,-191.18"/>
<polygon fill="#63b8ff" stroke="#63b8ff" points="1287.89,-194.61 1297.2,-189.55 1286.77,-187.7 1287.89,-194.61"/>
</a>
</g>
</g>
<!-- Node31 -->
<g id="Node000031" class="node">
<title>Node31</title>
<g id="a_Node000031"><a xlink:title=" ">
<polygon fill="#e0e0e0" stroke="#999999" points="1577.5,-195 1441.5,-195 1441.5,-165 1577.5,-165 1577.5,-195"/>
<text text-anchor="start" x="1449.5" y="-183" font-family="Arial" font-size="10.00">taskflow/taskflow/algorithm</text>
<text text-anchor="middle" x="1509.5" y="-172" font-family="Arial" font-size="10.00">/for_each.hpp</text>
</a>
</g>
</g>
<!-- Node1&#45;&gt;Node31 -->
<g id="edge47_Node000001_Node000031" class="edge">
<title>Node1&#45;&gt;Node31</title>
<g id="a_edge47_Node000001_Node000031"><a xlink:title=" ">
<path fill="none" stroke="#63b8ff" d="M903.05,-246.59C1007.82,-239.33 1232.08,-222.15 1431.06,-195.13"/>
<polygon fill="#63b8ff" stroke="#63b8ff" points="1431.68,-198.57 1441.12,-193.75 1430.73,-191.64 1431.68,-198.57"/>
</a>
</g>
</g>
<!-- Node3 -->
<g id="Node000003" class="node">
<title>Node3</title>
<g id="a_Node000003"><a xlink:title=" ">
<polygon fill="#e0e0e0" stroke="#999999" points="671,-129 630,-129 630,-110 671,-110 671,-129"/>
<text text-anchor="middle" x="650.5" y="-117" font-family="Arial" font-size="10.00">string</text>
</a>
</g>
</g>
<!-- Node2&#45;&gt;Node3 -->
<g id="edge2_Node000002_Node000003" class="edge">
<title>Node2&#45;&gt;Node3</title>
<g id="a_edge2_Node000002_Node000003"><a xlink:title=" ">
<path fill="none" stroke="#63b8ff" d="M661.58,-170.37C659.76,-162.16 656.95,-149.54 654.62,-139.05"/>
<polygon fill="#63b8ff" stroke="#63b8ff" points="658.01,-138.17 652.43,-129.17 651.18,-139.69 658.01,-138.17"/>
</a>
</g>
</g>
<!-- Node2&#45;&gt;Node4 -->
<g id="edge3_Node000002_Node000004" class="edge">
<title>Node2&#45;&gt;Node4</title>
<g id="a_edge3_Node000002_Node000004"><a xlink:title=" ">
<path fill="none" stroke="#63b8ff" d="M669.68,-170.06C679.73,-155.98 700.8,-128.38 723.5,-110 752.92,-86.19 811.19,-85.29 788.5,-55 774.13,-35.82 708.85,-22.13 668.65,-15.34"/>
<polygon fill="#63b8ff" stroke="#63b8ff" points="669.21,-11.89 658.78,-13.73 668.08,-18.79 669.21,-11.89"/>
</a>
</g>
</g>
<!-- Node5&#45;&gt;Node3 -->
<g id="edge21_Node000005_Node000003" class="edge">
<title>Node5&#45;&gt;Node3</title>
<g id="a_edge21_Node000005_Node000003"><a xlink:title=" ">
<path fill="none" stroke="#63b8ff" d="M436,-170.49C485.67,-158.92 573.68,-138.4 620.02,-127.6"/>
<polygon fill="#63b8ff" stroke="#63b8ff" points="620.84,-131.01 629.78,-125.33 619.25,-124.19 620.84,-131.01"/>
</a>
</g>
</g>
<!-- Node5&#45;&gt;Node4 -->
<g id="edge22_Node000005_Node000004" class="edge">
<title>Node5&#45;&gt;Node4</title>
<g id="a_edge22_Node000005_Node000004"><a xlink:title=" ">
<path fill="none" stroke="#63b8ff" d="M392.01,-170.38C373.95,-148.52 331.58,-90.15 361.5,-55 392.31,-18.81 537.93,-11.96 603.89,-10.73"/>
<polygon fill="#63b8ff" stroke="#63b8ff" points="604.19,-14.23 614.13,-10.57 604.08,-7.23 604.19,-14.23"/>
</a>
</g>
</g>
<!-- Node5&#45;&gt;Node6 -->
<g id="edge5_Node000005_Node000006" class="edge">
<title>Node5&#45;&gt;Node6</title>
<g id="a_edge5_Node000005_Node000006"><a xlink:title=" ">
<path fill="none" stroke="#63b8ff" d="M368.83,-170.43C337.59,-161.37 287.99,-146.04 246.5,-129 229.03,-121.83 225.56,-118.09 208.5,-110 185.2,-98.94 158.51,-86.99 138.72,-78.26"/>
<polygon fill="#63b8ff" stroke="#63b8ff" points="139.9,-74.95 129.33,-74.13 137.08,-81.36 139.9,-74.95"/>
</a>
</g>
</g>
<!-- Node5&#45;&gt;Node11 -->
<g id="edge11_Node000005_Node000011" class="edge">
<title>Node5&#45;&gt;Node11</title>
<g id="a_edge11_Node000005_Node000011"><a xlink:title=" ">
<path fill="none" stroke="#63b8ff" d="M421.31,-170.49C446.75,-160.57 489.01,-144.09 518.01,-132.78"/>
<polygon fill="#63b8ff" stroke="#63b8ff" points="519.62,-135.91 527.66,-129.02 517.07,-129.39 519.62,-135.91"/>
</a>
</g>
</g>
<!-- Node12 -->
<g id="Node000012" class="node">
<title>Node12</title>
<g id="a_Node000012"><a xlink:title=" ">
<polygon fill="#e0e0e0" stroke="#999999" points="416.5,-74 370.5,-74 370.5,-55 416.5,-55 416.5,-74"/>
<text text-anchor="middle" x="393.5" y="-62" font-family="Arial" font-size="10.00">cstdint</text>
</a>
</g>
</g>
<!-- Node5&#45;&gt;Node12 -->
<g id="edge20_Node000005_Node000012" class="edge">
<title>Node5&#45;&gt;Node12</title>
<g id="a_edge20_Node000005_Node000012"><a xlink:title=" ">
<path fill="none" stroke="#63b8ff" d="M399.05,-170.47C398.08,-152.23 395.8,-109.07 394.49,-84.14"/>
<polygon fill="#63b8ff" stroke="#63b8ff" points="397.98,-83.93 393.96,-74.13 390.99,-84.3 397.98,-83.93"/>
</a>
</g>
</g>
<!-- Node18 -->
<g id="Node000018" class="node">
<title>Node18</title>
<g id="a_Node000018"><a xlink:href="nflannSetup_8h.html" target="_top" xlink:title=" ">
<polygon fill="white" stroke="#666666" points="333,-129 256,-129 256,-110 333,-110 333,-129"/>
<text text-anchor="middle" x="294.5" y="-117" font-family="Arial" font-size="10.00">nflannSetup.h</text>
</a>
</g>
</g>
<!-- Node5&#45;&gt;Node18 -->
<g id="edge23_Node000005_Node000018" class="edge">
<title>Node5&#45;&gt;Node18</title>
<g id="a_edge23_Node000005_Node000018"><a xlink:title=" ">
<path fill="none" stroke="#63b8ff" d="M384.01,-170.37C366.87,-160.82 339.03,-145.31 318.94,-134.12"/>
<polygon fill="#63b8ff" stroke="#63b8ff" points="320.5,-130.98 310.06,-129.17 317.09,-137.09 320.5,-130.98"/>
</a>
</g>
</g>
<!-- Node6&#45;&gt;Node4 -->
<g id="edge10_Node000006_Node000004" class="edge">
<title>Node6&#45;&gt;Node4</title>
<g id="a_edge10_Node000006_Node000004"><a xlink:title=" ">
<path fill="none" stroke="#63b8ff" d="M140.88,-56.47C143.79,-55.92 146.69,-55.43 149.5,-55 319.47,-29.27 525.22,-16.4 603.83,-12.15"/>
<polygon fill="#63b8ff" stroke="#63b8ff" points="604.26,-15.63 614.06,-11.6 603.89,-8.64 604.26,-15.63"/>
</a>
</g>
</g>
<!-- Node7 -->
<g id="Node000007" class="node">
<title>Node7</title>
<g id="a_Node000007"><a xlink:title=" ">
<polygon fill="#e0e0e0" stroke="#999999" points="131.5,-19 87.5,-19 87.5,0 131.5,0 131.5,-19"/>
<text text-anchor="middle" x="109.5" y="-7" font-family="Arial" font-size="10.00">cmath</text>
</a>
</g>
</g>
<!-- Node6&#45;&gt;Node7 -->
<g id="edge6_Node000006_Node000007" class="edge">
<title>Node6&#45;&gt;Node7</title>
<g id="a_edge6_Node000006_Node000007"><a xlink:title=" ">
<path fill="none" stroke="#63b8ff" d="M109.5,-54.75C109.5,-47.8 109.5,-37.85 109.5,-29.13"/>
<polygon fill="#63b8ff" stroke="#63b8ff" points="113,-29.09 109.5,-19.09 106,-29.09 113,-29.09"/>
</a>
</g>
</g>
<!-- Node8 -->
<g id="Node000008" class="node">
<title>Node8</title>
<g id="a_Node000008"><a xlink:title=" ">
<polygon fill="#e0e0e0" stroke="#999999" points="199.5,-19 149.5,-19 149.5,0 199.5,0 199.5,-19"/>
<text text-anchor="middle" x="174.5" y="-7" font-family="Arial" font-size="10.00">iomanip</text>
</a>
</g>
</g>
<!-- Node6&#45;&gt;Node8 -->
<g id="edge7_Node000006_Node000008" class="edge">
<title>Node6&#45;&gt;Node8</title>
<g id="a_edge7_Node000006_Node000008"><a xlink:title=" ">
<path fill="none" stroke="#63b8ff" d="M119.94,-54.98C129.65,-47.07 144.32,-35.11 156,-25.58"/>
<polygon fill="#63b8ff" stroke="#63b8ff" points="158.33,-28.2 163.87,-19.17 153.9,-22.78 158.33,-28.2"/>
</a>
</g>
</g>
<!-- Node9 -->
<g id="Node000009" class="node">
<title>Node9</title>
<g id="a_Node000009"><a xlink:title=" ">
<polygon fill="#e0e0e0" stroke="#999999" points="69.5,-19 17.5,-19 17.5,0 69.5,0 69.5,-19"/>
<text text-anchor="middle" x="43.5" y="-7" font-family="Arial" font-size="10.00">sstream</text>
</a>
</g>
</g>
<!-- Node6&#45;&gt;Node9 -->
<g id="edge8_Node000006_Node000009" class="edge">
<title>Node6&#45;&gt;Node9</title>
<g id="a_edge8_Node000006_Node000009"><a xlink:title=" ">
<path fill="none" stroke="#63b8ff" d="M98.9,-54.98C89.04,-47.07 74.15,-35.11 62.28,-25.58"/>
<polygon fill="#63b8ff" stroke="#63b8ff" points="64.29,-22.7 54.3,-19.17 59.9,-28.16 64.29,-22.7"/>
</a>
</g>
</g>
<!-- Node6&#45;&gt;Node10 -->
<g id="edge9_Node000006_Node000010" class="edge">
<title>Node6&#45;&gt;Node10</title>
<g id="a_edge9_Node000006_Node000010"><a xlink:title=" ">
<path fill="none" stroke="#63b8ff" d="M140.87,-56.39C143.78,-55.87 146.69,-55.39 149.5,-55 212.18,-46.3 650.48,-20.35 782.17,-12.67"/>
<polygon fill="#63b8ff" stroke="#63b8ff" points="782.4,-16.16 792.18,-12.08 781.99,-9.17 782.4,-16.16"/>
</a>
</g>
</g>
<!-- Node11&#45;&gt;Node4 -->
<g id="edge15_Node000011_Node000004" class="edge">
<title>Node11&#45;&gt;Node4</title>
<g id="a_edge15_Node000011_Node000004"><a xlink:title=" ">
<path fill="none" stroke="#63b8ff" d="M569.87,-109.9C585.08,-102.5 605.27,-90.4 617.5,-74 627.28,-60.89 632.06,-42.75 634.37,-29.22"/>
<polygon fill="#63b8ff" stroke="#63b8ff" points="637.86,-29.53 635.79,-19.14 630.93,-28.56 637.86,-29.53"/>
</a>
</g>
</g>
<!-- Node11&#45;&gt;Node6 -->
<g id="edge12_Node000011_Node000006" class="edge">
<title>Node11&#45;&gt;Node6</title>
<g id="a_edge12_Node000011_Node000006"><a xlink:title=" ">
<path fill="none" stroke="#63b8ff" d="M510.43,-115.44C440.34,-109.68 288.42,-95.91 150.77,-74.06"/>
<polygon fill="#63b8ff" stroke="#63b8ff" points="151.32,-70.61 140.89,-72.48 150.21,-77.52 151.32,-70.61"/>
</a>
</g>
</g>
<!-- Node11&#45;&gt;Node12 -->
<g id="edge13_Node000011_Node000012" class="edge">
<title>Node11&#45;&gt;Node12</title>
<g id="a_edge13_Node000011_Node000012"><a xlink:title=" ">
<path fill="none" stroke="#63b8ff" d="M524.44,-109.98C497.93,-100.98 455.99,-86.73 426.74,-76.79"/>
<polygon fill="#63b8ff" stroke="#63b8ff" points="427.57,-73.38 416.97,-73.47 425.31,-80 427.57,-73.38"/>
</a>
</g>
</g>
<!-- Node13 -->
<g id="Node000013" class="node">
<title>Node13</title>
<g id="a_Node000013"><a xlink:title=" ">
<polygon fill="#e0e0e0" stroke="#999999" points="608.5,-74 562.5,-74 562.5,-55 608.5,-55 608.5,-74"/>
<text text-anchor="middle" x="585.5" y="-62" font-family="Arial" font-size="10.00">cstring</text>
</a>
</g>
</g>
<!-- Node11&#45;&gt;Node13 -->
<g id="edge14_Node000011_Node000013" class="edge">
<title>Node11&#45;&gt;Node13</title>
<g id="a_edge14_Node000011_Node000013"><a xlink:title=" ">
<path fill="none" stroke="#63b8ff" d="M555.44,-109.75C560.48,-102.34 567.84,-91.5 574.01,-82.41"/>
<polygon fill="#63b8ff" stroke="#63b8ff" points="576.94,-84.33 579.67,-74.09 571.15,-80.39 576.94,-84.33"/>
</a>
</g>
</g>
<!-- Node14 -->
<g id="Node000014" class="node">
<title>Node14</title>
<g id="a_Node000014"><a xlink:title=" ">
<polygon fill="#e0e0e0" stroke="#999999" points="710.5,-74 664.5,-74 664.5,-55 710.5,-55 710.5,-74"/>
<text text-anchor="middle" x="687.5" y="-62" font-family="Arial" font-size="10.00">chrono</text>
</a>
</g>
</g>
<!-- Node11&#45;&gt;Node14 -->
<g id="edge16_Node000011_Node000014" class="edge">
<title>Node11&#45;&gt;Node14</title>
<g id="a_edge16_Node000011_Node000014"><a xlink:title=" ">
<path fill="none" stroke="#63b8ff" d="M571.67,-109.98C594.27,-101.3 629.56,-87.75 655.25,-77.88"/>
<polygon fill="#63b8ff" stroke="#63b8ff" points="656.84,-81.02 664.92,-74.17 654.33,-74.49 656.84,-81.02"/>
</a>
</g>
</g>
<!-- Node15 -->
<g id="Node000015" class="node">
<title>Node15</title>
<g id="a_Node000015"><a xlink:title=" ">
<polygon fill="#e0e0e0" stroke="#999999" points="780,-74 729,-74 729,-55 780,-55 780,-74"/>
<text text-anchor="middle" x="754.5" y="-62" font-family="Arial" font-size="10.00">numeric</text>
</a>
</g>
</g>
<!-- Node11&#45;&gt;Node15 -->
<g id="edge17_Node000011_Node000015" class="edge">
<title>Node11&#45;&gt;Node15</title>
<g id="a_edge17_Node000011_Node000015"><a xlink:title=" ">
<path fill="none" stroke="#63b8ff" d="M582.44,-109.98C619.84,-100.31 680.64,-84.6 719.05,-74.66"/>
<polygon fill="#63b8ff" stroke="#63b8ff" points="719.98,-78.04 728.78,-72.15 718.23,-71.26 719.98,-78.04"/>
</a>
</g>
</g>
<!-- Node16 -->
<g id="Node000016" class="node">
<title>Node16</title>
<g id="a_Node000016"><a xlink:title=" ">
<polygon fill="#e0e0e0" stroke="#999999" points="490.5,-74 434.5,-74 434.5,-55 490.5,-55 490.5,-74"/>
<text text-anchor="middle" x="462.5" y="-62" font-family="Arial" font-size="10.00">algorithm</text>
</a>
</g>
</g>
<!-- Node11&#45;&gt;Node16 -->
<g id="edge18_Node000011_Node000016" class="edge">
<title>Node11&#45;&gt;Node16</title>
<g id="a_edge18_Node000011_Node000016"><a xlink:title=" ">
<path fill="none" stroke="#63b8ff" d="M535.52,-109.98C522.03,-101.77 501.37,-89.18 485.46,-79.49"/>
<polygon fill="#63b8ff" stroke="#63b8ff" points="487.09,-76.38 476.73,-74.17 483.45,-82.36 487.09,-76.38"/>
</a>
</g>
</g>
<!-- Node17 -->
<g id="Node000017" class="node">
<title>Node17</title>
<g id="a_Node000017"><a xlink:title=" ">
<polygon fill="#e0e0e0" stroke="#999999" points="544,-74 509,-74 509,-55 544,-55 544,-74"/>
<text text-anchor="middle" x="526.5" y="-62" font-family="Arial" font-size="10.00">map</text>
</a>
</g>
</g>
<!-- Node11&#45;&gt;Node17 -->
<g id="edge19_Node000011_Node000017" class="edge">
<title>Node11&#45;&gt;Node17</title>
<g id="a_edge19_Node000011_Node000017"><a xlink:title=" ">
<path fill="none" stroke="#63b8ff" d="M545.7,-109.75C542.59,-102.57 538.08,-92.18 534.21,-83.27"/>
<polygon fill="#63b8ff" stroke="#63b8ff" points="537.42,-81.87 530.23,-74.09 531,-84.66 537.42,-81.87"/>
</a>
</g>
</g>
<!-- Node18&#45;&gt;Node6 -->
<g id="edge24_Node000018_Node000006" class="edge">
<title>Node18&#45;&gt;Node6</title>
<g id="a_edge24_Node000018_Node000006"><a xlink:title=" ">
<path fill="none" stroke="#63b8ff" d="M264.78,-109.98C233.45,-101.01 183.93,-86.82 149.26,-76.89"/>
<polygon fill="#63b8ff" stroke="#63b8ff" points="150.03,-73.47 139.46,-74.08 148.11,-80.2 150.03,-73.47"/>
</a>
</g>
</g>
<!-- Node19 -->
<g id="Node000019" class="node">
<title>Node19</title>
<g id="a_Node000019"><a xlink:title=" ">
<polygon fill="#e0e0e0" stroke="#999999" points="314.5,-74 158.5,-74 158.5,-55 314.5,-55 314.5,-74"/>
<text text-anchor="middle" x="236.5" y="-62" font-family="Arial" font-size="10.00">nanoflann/include/nanoflann.hpp</text>
</a>
</g>
</g>
<!-- Node18&#45;&gt;Node19 -->
<g id="edge25_Node000018_Node000019" class="edge">
<title>Node18&#45;&gt;Node19</title>
<g id="a_edge25_Node000018_Node000019"><a xlink:title=" ">
<path fill="none" stroke="#63b8ff" d="M285.18,-109.98C276.69,-102.23 263.94,-90.58 253.62,-81.14"/>
<polygon fill="#63b8ff" stroke="#63b8ff" points="255.73,-78.33 245.99,-74.17 251.01,-83.5 255.73,-78.33"/>
</a>
</g>
</g>
<!-- Node20&#45;&gt;Node4 -->
<g id="edge28_Node000020_Node000004" class="edge">
<title>Node20&#45;&gt;Node4</title>
<g id="a_edge28_Node000020_Node000004"><a xlink:title=" ">
<path fill="none" stroke="#63b8ff" d="M39.09,-109.72C42.18,-95.52 50.44,-67.8 69.5,-55 113.98,-25.15 490.45,-13.93 604.13,-11.21"/>
<polygon fill="#63b8ff" stroke="#63b8ff" points="604.37,-14.7 614.29,-10.97 604.21,-7.7 604.37,-14.7"/>
</a>
</g>
</g>
<!-- Node20&#45;&gt;Node6 -->
<g id="edge27_Node000020_Node000006" class="edge">
<title>Node20&#45;&gt;Node6</title>
<g id="a_edge27_Node000020_Node000006"><a xlink:title=" ">
<path fill="none" stroke="#63b8ff" d="M49.07,-109.98C59.92,-102 76.38,-89.88 89.38,-80.31"/>
<polygon fill="#63b8ff" stroke="#63b8ff" points="91.74,-82.92 97.72,-74.17 87.59,-77.28 91.74,-82.92"/>
</a>
</g>
</g>
<!-- Node21&#45;&gt;Node6 -->
<g id="edge30_Node000021_Node000006" class="edge">
<title>Node21&#45;&gt;Node6</title>
<g id="a_edge30_Node000021_Node000006"><a xlink:title=" ">
<path fill="none" stroke="#63b8ff" d="M156.5,-109.98C148.31,-102.23 135.99,-90.58 126.03,-81.14"/>
<polygon fill="#63b8ff" stroke="#63b8ff" points="128.33,-78.5 118.66,-74.17 123.52,-83.59 128.33,-78.5"/>
</a>
</g>
</g>
<!-- Node22&#45;&gt;Node23 -->
<g id="edge34_Node000022_Node000023" class="edge">
<title>Node22&#45;&gt;Node23</title>
<g id="a_edge34_Node000022_Node000023"><a xlink:title=" ">
<path fill="none" stroke="#63b8ff" d="M991.35,-170.37C991.21,-162.25 991,-149.81 990.82,-139.39"/>
<polygon fill="#63b8ff" stroke="#63b8ff" points="994.32,-139.11 990.65,-129.17 987.32,-139.23 994.32,-139.11"/>
</a>
</g>
</g>
<!-- Node24&#45;&gt;Node3 -->
<g id="edge37_Node000024_Node000003" class="edge">
<title>Node24&#45;&gt;Node3</title>
<g id="a_edge37_Node000024_Node000003"><a xlink:title=" ">
<path fill="none" stroke="#63b8ff" d="M785.53,-170.49C758,-160.3 711.77,-143.19 681.2,-131.87"/>
<polygon fill="#63b8ff" stroke="#63b8ff" points="682.08,-128.46 671.48,-128.27 679.65,-135.02 682.08,-128.46"/>
</a>
</g>
</g>
<!-- Node24&#45;&gt;Node4 -->
<g id="edge38_Node000024_Node000004" class="edge">
<title>Node24&#45;&gt;Node4</title>
<g id="a_edge38_Node000024_Node000004"><a xlink:title=" ">
<path fill="none" stroke="#63b8ff" d="M829.63,-170.47C846.27,-162.48 868.32,-148.79 878.5,-129 889.84,-106.96 868.42,-62.02 860.5,-55 832.48,-30.16 723.84,-17.75 668.82,-12.95"/>
<polygon fill="#63b8ff" stroke="#63b8ff" points="668.83,-9.44 658.57,-12.09 668.24,-16.41 668.83,-9.44"/>
</a>
</g>
</g>
<!-- Node25 -->
<g id="Node000025" class="node">
<title>Node25</title>
<g id="a_Node000025"><a xlink:title=" ">
<polygon fill="#e0e0e0" stroke="#999999" points="807,-129 766,-129 766,-110 807,-110 807,-129"/>
<text text-anchor="middle" x="786.5" y="-117" font-family="Arial" font-size="10.00">mpi.h</text>
</a>
</g>
</g>
<!-- Node24&#45;&gt;Node25 -->
<g id="edge36_Node000024_Node000025" class="edge">
<title>Node24&#45;&gt;Node25</title>
<g id="a_edge36_Node000024_Node000025"><a xlink:title=" ">
<path fill="none" stroke="#63b8ff" d="M805.25,-170.37C802.13,-162.07 797.32,-149.28 793.35,-138.72"/>
<polygon fill="#63b8ff" stroke="#63b8ff" points="796.56,-137.3 789.76,-129.17 790,-139.76 796.56,-137.3"/>
</a>
</g>
</g>
<!-- Node26 -->
<g id="Node000026" class="node">
<title>Node26</title>
<g id="a_Node000026"><a xlink:title=" ">
<polygon fill="#e0e0e0" stroke="#999999" points="869.5,-129 825.5,-129 825.5,-110 869.5,-110 869.5,-129"/>
<text text-anchor="middle" x="847.5" y="-117" font-family="Arial" font-size="10.00">thread</text>
</a>
</g>
</g>
<!-- Node24&#45;&gt;Node26 -->
<g id="edge39_Node000024_Node000026" class="edge">
<title>Node24&#45;&gt;Node26</title>
<g id="a_edge39_Node000024_Node000026"><a xlink:title=" ">
<path fill="none" stroke="#63b8ff" d="M814.25,-170.37C819.96,-161.81 828.85,-148.47 836.01,-137.74"/>
<polygon fill="#63b8ff" stroke="#63b8ff" points="839.09,-139.43 841.72,-129.17 833.26,-135.55 839.09,-139.43"/>
</a>
</g>
</g>
</g>
</svg>
