<?xml version="1.0" encoding="UTF-8" standalone="no"?>
<!DOCTYPE svg PUBLIC "-//W3C//DTD SVG 1.1//EN"
 "http://www.w3.org/Graphics/SVG/1.1/DTD/svg11.dtd">
<!-- Generated by graphviz version 2.43.0 (0)
 -->
<!-- Title: /home/user/project/test/test_exec/parallelcomp/testParallelComp.cpp Pages: 1 -->
<svg width="686pt" height="214pt"
 viewBox="0.00 0.00 685.50 214.00" xmlns="http://www.w3.org/2000/svg" xmlns:xlink="http://www.w3.org/1999/xlink">
<g id="graph0" class="graph" transform="scale(1 1) rotate(0) translate(4 210)">
<title>/home/user/project/test/test_exec/parallelcomp/testParallelComp.cpp</title>
<!-- Node1 -->
<g id="Node000001" class="node">
<title>Node1</title>
<g id="a_Node000001"><a xlink:title=" ">
<polygon fill="#999999" stroke="#666666" points="384.5,-206 244.5,-206 244.5,-165 384.5,-165 384.5,-206"/>
<text text-anchor="start" x="252.5" y="-194" font-family="Arial" font-size="10.00">/home/user/project</text>
<text text-anchor="start" x="252.5" y="-183" font-family="Arial" font-size="10.00">/test/test_exec/parallelcomp</text>
<text text-anchor="middle" x="314.5" y="-172" font-family="Arial" font-size="10.00">/testParallelComp.cpp</text>
</a>
</g>
</g>
<!-- Node2 -->
<g id="Node000002" class="node">
<title>Node2</title>
<g id="a_Node000002"><a xlink:href="PeriDEMConfig_8h.html" target="_top" xlink:title=" ">
<polygon fill="white" stroke="#666666" points="124,-129 31,-129 31,-110 124,-110 124,-129"/>
<text text-anchor="middle" x="77.5" y="-117" font-family="Arial" font-size="10.00">PeriDEMConfig.h</text>
</a>
</g>
</g>
<!-- Node1&#45;&gt;Node2 -->
<g id="edge1_Node000001_Node000002" class="edge">
<title>Node1&#45;&gt;Node2</title>
<g id="a_edge1_Node000001_Node000002"><a xlink:title=" ">
<path fill="none" stroke="#63b8ff" d="M244.35,-165.56C203.48,-154.52 153.35,-140.98 118.76,-131.64"/>
<polygon fill="#63b8ff" stroke="#63b8ff" points="119.57,-128.23 109,-129.01 117.74,-134.99 119.57,-128.23"/>
</a>
</g>
</g>
<!-- Node4 -->
<g id="Node000004" class="node">
<title>Node4</title>
<g id="a_Node000004"><a xlink:href="testParallelCompLib_8h.html" target="_top" xlink:title=" ">
<polygon fill="white" stroke="#666666" points="269,-74 156,-74 156,-55 269,-55 269,-74"/>
<text text-anchor="middle" x="212.5" y="-62" font-family="Arial" font-size="10.00">testParallelCompLib.h</text>
</a>
</g>
</g>
<!-- Node1&#45;&gt;Node4 -->
<g id="edge3_Node000001_Node000004" class="edge">
<title>Node1&#45;&gt;Node4</title>
<g id="a_edge3_Node000001_Node000004"><a xlink:title=" ">
<path fill="none" stroke="#63b8ff" d="M297.66,-164.85C277.78,-141.65 245.08,-103.51 226.52,-81.85"/>
<polygon fill="#63b8ff" stroke="#63b8ff" points="229.1,-79.49 219.94,-74.18 223.79,-84.05 229.1,-79.49"/>
</a>
</g>
</g>
<!-- Node7 -->
<g id="Node000007" class="node">
<title>Node7</title>
<g id="a_Node000007"><a xlink:href="io_8h.html" target="_top" xlink:title=" ">
<polygon fill="white" stroke="#666666" points="372.5,-129 324.5,-129 324.5,-110 372.5,-110 372.5,-129"/>
<text text-anchor="middle" x="348.5" y="-117" font-family="Arial" font-size="10.00">util/io.h</text>
</a>
</g>
</g>
<!-- Node1&#45;&gt;Node7 -->
<g id="edge6_Node000001_Node000007" class="edge">
<title>Node1&#45;&gt;Node7</title>
<g id="a_edge6_Node000001_Node000007"><a xlink:title=" ">
<path fill="none" stroke="#63b8ff" d="M324.89,-164.95C329.43,-156.39 334.73,-146.42 339.15,-138.1"/>
<polygon fill="#63b8ff" stroke="#63b8ff" points="342.25,-139.73 343.85,-129.26 336.06,-136.45 342.25,-139.73"/>
</a>
</g>
</g>
<!-- Node12 -->
<g id="Node000012" class="node">
<title>Node12</title>
<g id="a_Node000012"><a xlink:title=" ">
<polygon fill="#e0e0e0" stroke="#999999" points="568.5,-19 514.5,-19 514.5,0 568.5,0 568.5,-19"/>
<text text-anchor="middle" x="541.5" y="-7" font-family="Arial" font-size="10.00">iostream</text>
</a>
</g>
</g>
<!-- Node1&#45;&gt;Node12 -->
<g id="edge24_Node000001_Node000012" class="edge">
<title>Node1&#45;&gt;Node12</title>
<g id="a_edge24_Node000001_Node000012"><a xlink:title=" ">
<path fill="none" stroke="#63b8ff" d="M384.63,-171.26C438.09,-157.09 508.17,-128.79 542.5,-74 550.82,-60.72 549.59,-42.6 546.85,-29.12"/>
<polygon fill="#63b8ff" stroke="#63b8ff" points="550.17,-27.96 544.37,-19.09 543.38,-29.64 550.17,-27.96"/>
</a>
</g>
</g>
<!-- Node13 -->
<g id="Node000013" class="node">
<title>Node13</title>
<g id="a_Node000013"><a xlink:href="parallelUtil_8h.html" target="_top" xlink:title=" ">
<polygon fill="white" stroke="#666666" points="138,-74 67,-74 67,-55 138,-55 138,-74"/>
<text text-anchor="middle" x="102.5" y="-62" font-family="Arial" font-size="10.00">parallelUtil.h</text>
</a>
</g>
</g>
<!-- Node1&#45;&gt;Node13 -->
<g id="edge22_Node000001_Node000013" class="edge">
<title>Node1&#45;&gt;Node13</title>
<g id="a_edge22_Node000001_Node000013"><a xlink:title=" ">
<path fill="none" stroke="#63b8ff" d="M279.49,-164.85C236.42,-140.67 164.39,-100.24 126.89,-79.19"/>
<polygon fill="#63b8ff" stroke="#63b8ff" points="128.13,-75.88 117.7,-74.03 124.71,-81.98 128.13,-75.88"/>
</a>
</g>
</g>
<!-- Node18 -->
<g id="Node000018" class="node">
<title>Node18</title>
<g id="a_Node000018"><a xlink:title=" ">
<polygon fill="#e0e0e0" stroke="#999999" points="677.5,-129 607.5,-129 607.5,-110 677.5,-110 677.5,-129"/>
<text text-anchor="middle" x="642.5" y="-117" font-family="Arial" font-size="10.00">fmt/format.h</text>
</a>
</g>
</g>
<!-- Node1&#45;&gt;Node18 -->
<g id="edge23_Node000001_Node000018" class="edge">
<title>Node1&#45;&gt;Node18</title>
<g id="a_edge23_Node000001_Node000018"><a xlink:title=" ">
<path fill="none" stroke="#63b8ff" d="M384.86,-170.77C449.06,-158.24 542.03,-140.1 596.97,-129.38"/>
<polygon fill="#63b8ff" stroke="#63b8ff" points="597.96,-132.76 607.1,-127.41 596.62,-125.89 597.96,-132.76"/>
</a>
</g>
</g>
<!-- Node3 -->
<g id="Node000003" class="node">
<title>Node3</title>
<g id="a_Node000003"><a xlink:title=" ">
<polygon fill="#e0e0e0" stroke="#999999" points="49,-74 0,-74 0,-55 49,-55 49,-74"/>
<text text-anchor="middle" x="24.5" y="-62" font-family="Arial" font-size="10.00">cstddef</text>
</a>
</g>
</g>
<!-- Node2&#45;&gt;Node3 -->
<g id="edge2_Node000002_Node000003" class="edge">
<title>Node2&#45;&gt;Node3</title>
<g id="a_edge2_Node000002_Node000003"><a xlink:title=" ">
<path fill="none" stroke="#63b8ff" d="M68.75,-109.75C61.03,-102.03 49.6,-90.6 40.28,-81.28"/>
<polygon fill="#63b8ff" stroke="#63b8ff" points="42.64,-78.69 33.09,-74.09 37.69,-83.64 42.64,-78.69"/>
</a>
</g>
</g>
<!-- Node5 -->
<g id="Node000005" class="node">
<title>Node5</title>
<g id="a_Node000005"><a xlink:title=" ">
<polygon fill="#e0e0e0" stroke="#999999" points="184,-19 143,-19 143,0 184,0 184,-19"/>
<text text-anchor="middle" x="163.5" y="-7" font-family="Arial" font-size="10.00">string</text>
</a>
</g>
</g>
<!-- Node4&#45;&gt;Node5 -->
<g id="edge4_Node000004_Node000005" class="edge">
<title>Node4&#45;&gt;Node5</title>
<g id="a_edge4_Node000004_Node000005"><a xlink:title=" ">
<path fill="none" stroke="#63b8ff" d="M204.41,-54.75C197.34,-47.11 186.91,-35.82 178.35,-26.56"/>
<polygon fill="#63b8ff" stroke="#63b8ff" points="180.8,-24.06 171.44,-19.09 175.66,-28.81 180.8,-24.06"/>
</a>
</g>
</g>
<!-- Node6 -->
<g id="Node000006" class="node">
<title>Node6</title>
<g id="a_Node000006"><a xlink:title=" ">
<polygon fill="#e0e0e0" stroke="#999999" points="246.5,-19 202.5,-19 202.5,0 246.5,0 246.5,-19"/>
<text text-anchor="middle" x="224.5" y="-7" font-family="Arial" font-size="10.00">vector</text>
</a>
</g>
</g>
<!-- Node4&#45;&gt;Node6 -->
<g id="edge5_Node000004_Node000006" class="edge">
<title>Node4&#45;&gt;Node6</title>
<g id="a_edge5_Node000004_Node000006"><a xlink:title=" ">
<path fill="none" stroke="#63b8ff" d="M214.48,-54.75C216.07,-47.72 218.36,-37.62 220.35,-28.84"/>
<polygon fill="#63b8ff" stroke="#63b8ff" points="223.76,-29.62 222.56,-19.09 216.93,-28.07 223.76,-29.62"/>
</a>
</g>
</g>
<!-- Node7&#45;&gt;Node6 -->
<g id="edge20_Node000007_Node000006" class="edge">
<title>Node7&#45;&gt;Node6</title>
<g id="a_edge20_Node000007_Node000006"><a xlink:title=" ">
<path fill="none" stroke="#63b8ff" d="M338.94,-109.78C325.38,-97.45 299.74,-74.28 277.5,-55 266.15,-45.16 253.25,-34.32 243.02,-25.81"/>
<polygon fill="#63b8ff" stroke="#63b8ff" points="245.07,-22.96 235.14,-19.27 240.6,-28.35 245.07,-22.96"/>
</a>
</g>
</g>
<!-- Node8 -->
<g id="Node000008" class="node">
<title>Node8</title>
<g id="a_Node000008"><a xlink:href="point_8h.html" target="_top" xlink:title=" ">
<polygon fill="white" stroke="#666666" points="371.5,-74 325.5,-74 325.5,-55 371.5,-55 371.5,-74"/>
<text text-anchor="middle" x="348.5" y="-62" font-family="Arial" font-size="10.00">point.h</text>
</a>
</g>
</g>
<!-- Node7&#45;&gt;Node8 -->
<g id="edge7_Node000007_Node000008" class="edge">
<title>Node7&#45;&gt;Node8</title>
<g id="a_edge7_Node000007_Node000008"><a xlink:title=" ">
<path fill="none" stroke="#63b8ff" d="M348.5,-109.75C348.5,-102.8 348.5,-92.85 348.5,-84.13"/>
<polygon fill="#63b8ff" stroke="#63b8ff" points="352,-84.09 348.5,-74.09 345,-84.09 352,-84.09"/>
</a>
</g>
</g>
<!-- Node7&#45;&gt;Node12 -->
<g id="edge19_Node000007_Node000012" class="edge">
<title>Node7&#45;&gt;Node12</title>
<g id="a_edge19_Node000007_Node000012"><a xlink:title=" ">
<path fill="none" stroke="#63b8ff" d="M372.53,-119.35C409.73,-119.31 481.23,-113.63 522.5,-74 534.55,-62.43 539.04,-43.56 540.68,-29.39"/>
<polygon fill="#63b8ff" stroke="#63b8ff" points="544.18,-29.5 541.46,-19.26 537.2,-28.96 544.18,-29.5"/>
</a>
</g>
</g>
<!-- Node7&#45;&gt;Node13 -->
<g id="edge13_Node000007_Node000013" class="edge">
<title>Node7&#45;&gt;Node13</title>
<g id="a_edge13_Node000007_Node000013"><a xlink:title=" ">
<path fill="none" stroke="#63b8ff" d="M324.46,-113.32C283.66,-104.53 200.2,-86.55 148.06,-75.31"/>
<polygon fill="#63b8ff" stroke="#63b8ff" points="148.58,-71.85 138.07,-73.16 147.1,-78.69 148.58,-71.85"/>
</a>
</g>
</g>
<!-- Node16 -->
<g id="Node000016" class="node">
<title>Node16</title>
<g id="a_Node000016"><a xlink:title=" ">
<polygon fill="#e0e0e0" stroke="#999999" points="513.5,-74 463.5,-74 463.5,-55 513.5,-55 513.5,-74"/>
<text text-anchor="middle" x="488.5" y="-62" font-family="Arial" font-size="10.00">fstream</text>
</a>
</g>
</g>
<!-- Node7&#45;&gt;Node16 -->
<g id="edge18_Node000007_Node000016" class="edge">
<title>Node7&#45;&gt;Node16</title>
<g id="a_edge18_Node000007_Node000016"><a xlink:title=" ">
<path fill="none" stroke="#63b8ff" d="M370.99,-109.98C394.02,-101.27 430.04,-87.63 456.13,-77.75"/>
<polygon fill="#63b8ff" stroke="#63b8ff" points="457.48,-80.98 465.6,-74.17 455.01,-74.44 457.48,-80.98"/>
</a>
</g>
</g>
<!-- Node17 -->
<g id="Node000017" class="node">
<title>Node17</title>
<g id="a_Node000017"><a xlink:title=" ">
<polygon fill="#e0e0e0" stroke="#999999" points="445.5,-74 389.5,-74 389.5,-55 445.5,-55 445.5,-74"/>
<text text-anchor="middle" x="417.5" y="-62" font-family="Arial" font-size="10.00">algorithm</text>
</a>
</g>
</g>
<!-- Node7&#45;&gt;Node17 -->
<g id="edge21_Node000007_Node000017" class="edge">
<title>Node7&#45;&gt;Node17</title>
<g id="a_edge21_Node000007_Node000017"><a xlink:title=" ">
<path fill="none" stroke="#63b8ff" d="M359.59,-109.98C369.99,-102 385.76,-89.88 398.22,-80.31"/>
<polygon fill="#63b8ff" stroke="#63b8ff" points="400.41,-83.04 406.21,-74.17 396.15,-77.49 400.41,-83.04"/>
</a>
</g>
</g>
<!-- Node8&#45;&gt;Node6 -->
<g id="edge12_Node000008_Node000006" class="edge">
<title>Node8&#45;&gt;Node6</title>
<g id="a_edge12_Node000008_Node000006"><a xlink:title=" ">
<path fill="none" stroke="#63b8ff" d="M328.58,-54.98C308.45,-46.38 277.12,-32.99 254.09,-23.15"/>
<polygon fill="#63b8ff" stroke="#63b8ff" points="255.36,-19.88 244.79,-19.17 252.6,-26.32 255.36,-19.88"/>
</a>
</g>
</g>
<!-- Node9 -->
<g id="Node000009" class="node">
<title>Node9</title>
<g id="a_Node000009"><a xlink:title=" ">
<polygon fill="#e0e0e0" stroke="#999999" points="378.5,-19 334.5,-19 334.5,0 378.5,0 378.5,-19"/>
<text text-anchor="middle" x="356.5" y="-7" font-family="Arial" font-size="10.00">cmath</text>
</a>
</g>
</g>
<!-- Node8&#45;&gt;Node9 -->
<g id="edge8_Node000008_Node000009" class="edge">
<title>Node8&#45;&gt;Node9</title>
<g id="a_edge8_Node000008_Node000009"><a xlink:title=" ">
<path fill="none" stroke="#63b8ff" d="M349.82,-54.75C350.87,-47.8 352.37,-37.85 353.69,-29.13"/>
<polygon fill="#63b8ff" stroke="#63b8ff" points="357.17,-29.5 355.2,-19.09 350.25,-28.45 357.17,-29.5"/>
</a>
</g>
</g>
<!-- Node10 -->
<g id="Node000010" class="node">
<title>Node10</title>
<g id="a_Node000010"><a xlink:title=" ">
<polygon fill="#e0e0e0" stroke="#999999" points="446.5,-19 396.5,-19 396.5,0 446.5,0 446.5,-19"/>
<text text-anchor="middle" x="421.5" y="-7" font-family="Arial" font-size="10.00">iomanip</text>
</a>
</g>
</g>
<!-- Node8&#45;&gt;Node10 -->
<g id="edge9_Node000008_Node000010" class="edge">
<title>Node8&#45;&gt;Node10</title>
<g id="a_edge9_Node000008_Node000010"><a xlink:title=" ">
<path fill="none" stroke="#63b8ff" d="M360.23,-54.98C371.23,-47 387.92,-34.88 401.1,-25.31"/>
<polygon fill="#63b8ff" stroke="#63b8ff" points="403.52,-27.88 409.56,-19.17 399.41,-22.21 403.52,-27.88"/>
</a>
</g>
</g>
<!-- Node11 -->
<g id="Node000011" class="node">
<title>Node11</title>
<g id="a_Node000011"><a xlink:title=" ">
<polygon fill="#e0e0e0" stroke="#999999" points="316.5,-19 264.5,-19 264.5,0 316.5,0 316.5,-19"/>
<text text-anchor="middle" x="290.5" y="-7" font-family="Arial" font-size="10.00">sstream</text>
</a>
</g>
</g>
<!-- Node8&#45;&gt;Node11 -->
<g id="edge10_Node000008_Node000011" class="edge">
<title>Node8&#45;&gt;Node11</title>
<g id="a_edge10_Node000008_Node000011"><a xlink:title=" ">
<path fill="none" stroke="#63b8ff" d="M339.18,-54.98C330.69,-47.23 317.94,-35.58 307.62,-26.14"/>
<polygon fill="#63b8ff" stroke="#63b8ff" points="309.73,-23.33 299.99,-19.17 305.01,-28.5 309.73,-23.33"/>
</a>
</g>
</g>
<!-- Node8&#45;&gt;Node12 -->
<g id="edge11_Node000008_Node000012" class="edge">
<title>Node8&#45;&gt;Node12</title>
<g id="a_edge11_Node000008_Node000012"><a xlink:title=" ">
<path fill="none" stroke="#63b8ff" d="M371.78,-57.11C404.8,-48.04 465.56,-31.35 504.71,-20.6"/>
<polygon fill="#63b8ff" stroke="#63b8ff" points="505.7,-23.96 514.41,-17.94 503.84,-17.21 505.7,-23.96"/>
</a>
</g>
</g>
<!-- Node13&#45;&gt;Node5 -->
<g id="edge15_Node000013_Node000005" class="edge">
<title>Node13&#45;&gt;Node5</title>
<g id="a_edge15_Node000013_Node000005"><a xlink:title=" ">
<path fill="none" stroke="#63b8ff" d="M112.3,-54.98C121.32,-47.15 134.91,-35.34 145.82,-25.86"/>
<polygon fill="#63b8ff" stroke="#63b8ff" points="148.27,-28.37 153.52,-19.17 143.68,-23.09 148.27,-28.37"/>
</a>
</g>
</g>
<!-- Node13&#45;&gt;Node6 -->
<g id="edge16_Node000013_Node000006" class="edge">
<title>Node13&#45;&gt;Node6</title>
<g id="a_edge16_Node000013_Node000006"><a xlink:title=" ">
<path fill="none" stroke="#63b8ff" d="M122.1,-54.98C141.82,-46.42 172.45,-33.11 195.08,-23.28"/>
<polygon fill="#63b8ff" stroke="#63b8ff" points="196.76,-26.37 204.54,-19.17 193.98,-19.94 196.76,-26.37"/>
</a>
</g>
</g>
<!-- Node14 -->
<g id="Node000014" class="node">
<title>Node14</title>
<g id="a_Node000014"><a xlink:title=" ">
<polygon fill="#e0e0e0" stroke="#999999" points="62,-19 21,-19 21,0 62,0 62,-19"/>
<text text-anchor="middle" x="41.5" y="-7" font-family="Arial" font-size="10.00">mpi.h</text>
</a>
</g>
</g>
<!-- Node13&#45;&gt;Node14 -->
<g id="edge14_Node000013_Node000014" class="edge">
<title>Node13&#45;&gt;Node14</title>
<g id="a_edge14_Node000013_Node000014"><a xlink:title=" ">
<path fill="none" stroke="#63b8ff" d="M92.7,-54.98C83.68,-47.15 70.09,-35.34 59.18,-25.86"/>
<polygon fill="#63b8ff" stroke="#63b8ff" points="61.32,-23.09 51.48,-19.17 56.73,-28.37 61.32,-23.09"/>
</a>
</g>
</g>
<!-- Node15 -->
<g id="Node000015" class="node">
<title>Node15</title>
<g id="a_Node000015"><a xlink:title=" ">
<polygon fill="#e0e0e0" stroke="#999999" points="124.5,-19 80.5,-19 80.5,0 124.5,0 124.5,-19"/>
<text text-anchor="middle" x="102.5" y="-7" font-family="Arial" font-size="10.00">thread</text>
</a>
</g>
</g>
<!-- Node13&#45;&gt;Node15 -->
<g id="edge17_Node000013_Node000015" class="edge">
<title>Node13&#45;&gt;Node15</title>
<g id="a_edge17_Node000013_Node000015"><a xlink:title=" ">
<path fill="none" stroke="#63b8ff" d="M102.5,-54.75C102.5,-47.8 102.5,-37.85 102.5,-29.13"/>
<polygon fill="#63b8ff" stroke="#63b8ff" points="106,-29.09 102.5,-19.09 99,-29.09 106,-29.09"/>
</a>
</g>
</g>
</g>
</svg>
