<?xml version="1.0" encoding="UTF-8" standalone="no"?>
<!DOCTYPE svg PUBLIC "-//W3C//DTD SVG 1.1//EN"
 "http://www.w3.org/Graphics/SVG/1.1/DTD/svg11.dtd">
<!-- Generated by graphviz version 2.43.0 (0)
 -->
<!-- Title: main Pages: 1 -->
<svg width="657pt" height="216pt"
 viewBox="0.00 0.00 657.00 216.00" xmlns="http://www.w3.org/2000/svg" xmlns:xlink="http://www.w3.org/1999/xlink">
<g id="graph0" class="graph" transform="scale(1 1) rotate(0) translate(4 212)">
<title>main</title>
<!-- Node1 -->
<g id="Node000001" class="node">
<title>Node1</title>
<g id="a_Node000001"><a xlink:title=" ">
<polygon fill="#999999" stroke="#666666" points="38,-113 0,-113 0,-94 38,-94 38,-113"/>
<text text-anchor="middle" x="19" y="-101" font-family="Arial" font-size="10.00">main</text>
</a>
</g>
</g>
<!-- Node2 -->
<g id="Node000002" class="node">
<title>Node2</title>
<g id="a_Node000002"><a xlink:href="namespaceutil_1_1parallel.html#a836a5bd06aa09111f66f69f97c1f093c" target="_top" xlink:title="Returns pointer to MpiStatus struct.">
<polygon fill="white" stroke="#666666" points="347,-208 217,-208 217,-189 347,-189 347,-208"/>
<text text-anchor="middle" x="282" y="-196" font-family="Arial" font-size="10.00">util::parallel::getMpiStatus</text>
</a>
</g>
</g>
<!-- Node1&#45;&gt;Node2 -->
<g id="edge1_Node000001_Node000002" class="edge">
<title>Node1&#45;&gt;Node2</title>
<g id="a_edge1_Node000001_Node000002"><a xlink:title=" ">
<path fill="none" stroke="#63b8ff" d="M24.17,-113.07C31.62,-128.89 48.84,-160.16 74,-174.5 113.93,-197.25 165.2,-203.34 206.72,-203.69"/>
<polygon fill="#63b8ff" stroke="#63b8ff" points="206.79,-207.19 216.78,-203.67 206.77,-200.19 206.79,-207.19"/>
</a>
</g>
</g>
<!-- Node3 -->
<g id="Node000003" class="node">
<title>Node3</title>
<g id="a_Node000003"><a xlink:href="namespaceutil_1_1parallel.html#aa0c65ae0f7fb6e0c4f3104c5bf3b1ff6" target="_top" xlink:title="Initializes MPI and also creates MpiStatus struct.">
<polygon fill="white" stroke="#666666" points="484,-151 383,-151 383,-132 484,-132 484,-151"/>
<text text-anchor="middle" x="433.5" y="-139" font-family="Arial" font-size="10.00">util::parallel::initMpi</text>
</a>
</g>
</g>
<!-- Node1&#45;&gt;Node3 -->
<g id="edge4_Node000001_Node000003" class="edge">
<title>Node1&#45;&gt;Node3</title>
<g id="a_edge4_Node000001_Node000003"><a xlink:title=" ">
<path fill="none" stroke="#63b8ff" d="M29.74,-113.09C39.85,-122.32 56.59,-135.72 74,-141.5 174.98,-175.03 300.97,-163.78 373.53,-152.6"/>
<polygon fill="#63b8ff" stroke="#63b8ff" points="374.08,-156.06 383.41,-151.03 372.98,-149.14 374.08,-156.06"/>
</a>
</g>
</g>
<!-- Node5 -->
<g id="Node000005" class="node">
<title>Node5</title>
<g id="a_Node000005"><a xlink:href="namespaceutil_1_1parallel.html#adb80f14125b7556bb478cc3725508fa8" target="_top" xlink:title="get rank (id) of this processor">
<polygon fill="white" stroke="#666666" points="337.5,-94 226.5,-94 226.5,-75 337.5,-75 337.5,-94"/>
<text text-anchor="middle" x="282" y="-82" font-family="Arial" font-size="10.00">util::parallel::mpiRank</text>
</a>
</g>
</g>
<!-- Node1&#45;&gt;Node5 -->
<g id="edge5_Node000001_Node000005" class="edge">
<title>Node1&#45;&gt;Node5</title>
<g id="a_edge5_Node000001_Node000005"><a xlink:title=" ">
<path fill="none" stroke="#63b8ff" d="M38.35,-102.16C74.69,-99.52 157.37,-93.5 216.1,-89.22"/>
<polygon fill="#63b8ff" stroke="#63b8ff" points="216.68,-92.69 226.4,-88.47 216.17,-85.71 216.68,-92.69"/>
</a>
</g>
</g>
<!-- Node6 -->
<g id="Node000006" class="node">
<title>Node6</title>
<g id="a_Node000006"><a xlink:href="namespaceutil_1_1parallel.html#ad67dcfb56bf70d082e443e849c832c00" target="_top" xlink:title="Get size (number) of processors.">
<polygon fill="white" stroke="#666666" points="181,-132 74,-132 74,-113 181,-113 181,-132"/>
<text text-anchor="middle" x="127.5" y="-120" font-family="Arial" font-size="10.00">util::parallel::mpiSize</text>
</a>
</g>
</g>
<!-- Node1&#45;&gt;Node6 -->
<g id="edge7_Node000001_Node000006" class="edge">
<title>Node1&#45;&gt;Node6</title>
<g id="a_edge7_Node000001_Node000006"><a xlink:title=" ">
<path fill="none" stroke="#63b8ff" d="M38.07,-106.72C45.47,-108.04 54.51,-109.66 63.95,-111.34"/>
<polygon fill="#63b8ff" stroke="#63b8ff" points="63.42,-114.8 73.88,-113.11 64.65,-107.91 63.42,-114.8"/>
</a>
</g>
</g>
<!-- Node7 -->
<g id="Node000007" class="node">
<title>Node7</title>
<g id="a_Node000007"><a xlink:href="namespaceutil_1_1io.html#a578a578ce41389fb01e56de7316b7054" target="_top" xlink:title="Prints formatted information.">
<polygon fill="white" stroke="#666666" points="161.5,-56 93.5,-56 93.5,-37 161.5,-37 161.5,-56"/>
<text text-anchor="middle" x="127.5" y="-44" font-family="Arial" font-size="10.00">util::io::print</text>
</a>
</g>
</g>
<!-- Node1&#45;&gt;Node7 -->
<g id="edge9_Node000001_Node000007" class="edge">
<title>Node1&#45;&gt;Node7</title>
<g id="a_edge9_Node000001_Node000007"><a xlink:title=" ">
<path fill="none" stroke="#63b8ff" d="M34.85,-93.76C45.54,-86.91 60.42,-77.72 74,-70.5 80.63,-66.97 87.88,-63.46 94.81,-60.24"/>
<polygon fill="#63b8ff" stroke="#63b8ff" points="96.33,-63.4 103.99,-56.08 93.44,-57.02 96.33,-63.4"/>
</a>
</g>
</g>
<!-- Node10 -->
<g id="Node000010" class="node">
<title>Node10</title>
<g id="a_Node000010"><a xlink:href="namespacetest.html#ad46ca3f06841d1eebe364386b4bf889d" target="_top" xlink:title="Perform test on Fracture class and check if bitwise functions are working correctly.">
<polygon fill="white" stroke="#666666" points="177.5,-19 77.5,-19 77.5,0 177.5,0 177.5,-19"/>
<text text-anchor="middle" x="127.5" y="-7" font-family="Arial" font-size="10.00">test::testTransform</text>
</a>
</g>
</g>
<!-- Node1&#45;&gt;Node10 -->
<g id="edge13_Node000001_Node000010" class="edge">
<title>Node1&#45;&gt;Node10</title>
<g id="a_edge13_Node000001_Node000010"><a xlink:title=" ">
<path fill="none" stroke="#63b8ff" d="M24.37,-93.86C32.12,-77.82 49.75,-45.62 74,-27.5 75.85,-26.12 77.81,-24.84 79.85,-23.65"/>
<polygon fill="#63b8ff" stroke="#63b8ff" points="81.77,-26.61 89.17,-19.03 78.66,-20.34 81.77,-26.61"/>
</a>
</g>
</g>
<!-- Node2&#45;&gt;Node3 -->
<g id="edge2_Node000002_Node000003" class="edge">
<title>Node2&#45;&gt;Node3</title>
<g id="a_edge2_Node000002_Node000003"><a xlink:title=" ">
<path fill="none" stroke="#63b8ff" d="M308.56,-188.98C320.28,-184.6 334.36,-179.31 347,-174.5 363.83,-168.09 382.5,-160.9 398.08,-154.87"/>
<polygon fill="#63b8ff" stroke="#63b8ff" points="399.77,-157.97 407.83,-151.09 397.24,-151.44 399.77,-157.97"/>
</a>
</g>
</g>
<!-- Node4 -->
<g id="Node000004" class="node">
<title>Node4</title>
<g id="a_Node000004"><a xlink:href="namespaceutil_1_1parallel.html#a47cb50d2db6de7cf2a786994f274cc9a" target="_top" xlink:title="Initializes MpiStatus struct.">
<polygon fill="white" stroke="#666666" points="649,-151 520,-151 520,-132 649,-132 649,-151"/>
<text text-anchor="middle" x="584.5" y="-139" font-family="Arial" font-size="10.00">util::parallel::initMpiStatus</text>
</a>
</g>
</g>
<!-- Node3&#45;&gt;Node4 -->
<g id="edge3_Node000003_Node000004" class="edge">
<title>Node3&#45;&gt;Node4</title>
<g id="a_edge3_Node000003_Node000004"><a xlink:title=" ">
<path fill="none" stroke="#63b8ff" d="M484.11,-141.5C492.33,-141.5 501,-141.5 509.66,-141.5"/>
<polygon fill="#63b8ff" stroke="#63b8ff" points="509.79,-145 519.79,-141.5 509.79,-138 509.79,-145"/>
</a>
</g>
</g>
<!-- Node5&#45;&gt;Node3 -->
<g id="edge6_Node000005_Node000003" class="edge">
<title>Node5&#45;&gt;Node3</title>
<g id="a_edge6_Node000005_Node000003"><a xlink:title=" ">
<path fill="none" stroke="#63b8ff" d="M308.56,-94.02C320.28,-98.4 334.36,-103.69 347,-108.5 363.83,-114.91 382.5,-122.1 398.08,-128.13"/>
<polygon fill="#63b8ff" stroke="#63b8ff" points="397.24,-131.56 407.83,-131.91 399.77,-125.03 397.24,-131.56"/>
</a>
</g>
</g>
<!-- Node6&#45;&gt;Node3 -->
<g id="edge8_Node000006_Node000003" class="edge">
<title>Node6&#45;&gt;Node3</title>
<g id="a_edge8_Node000006_Node000003"><a xlink:title=" ">
<path fill="none" stroke="#63b8ff" d="M181.11,-125.79C234.38,-129.12 316.66,-134.26 372.46,-137.75"/>
<polygon fill="#63b8ff" stroke="#63b8ff" points="372.36,-141.25 382.55,-138.38 372.79,-134.26 372.36,-141.25"/>
</a>
</g>
</g>
<!-- Node7&#45;&gt;Node5 -->
<g id="edge10_Node000007_Node000005" class="edge">
<title>Node7&#45;&gt;Node5</title>
<g id="a_edge10_Node000007_Node000005"><a xlink:title=" ">
<path fill="none" stroke="#63b8ff" d="M161.59,-54.75C182.42,-59.94 209.66,-66.72 232.87,-72.51"/>
<polygon fill="#63b8ff" stroke="#63b8ff" points="232.32,-75.98 242.87,-75 234.01,-69.18 232.32,-75.98"/>
</a>
</g>
</g>
<!-- Node8 -->
<g id="Node000008" class="node">
<title>Node8</title>
<g id="a_Node000008"><a xlink:href="namespaceutil_1_1io.html#a3e537e3bd778616255015cde6e60a30a" target="_top" xlink:title="Returns formatted string for output.">
<polygon fill="white" stroke="#666666" points="322,-56 242,-56 242,-37 322,-37 322,-56"/>
<text text-anchor="middle" x="282" y="-44" font-family="Arial" font-size="10.00">util::io::printStr</text>
</a>
</g>
</g>
<!-- Node7&#45;&gt;Node8 -->
<g id="edge11_Node000007_Node000008" class="edge">
<title>Node7&#45;&gt;Node8</title>
<g id="a_edge11_Node000007_Node000008"><a xlink:title=" ">
<path fill="none" stroke="#63b8ff" d="M161.59,-46.5C182.03,-46.5 208.63,-46.5 231.53,-46.5"/>
<polygon fill="#63b8ff" stroke="#63b8ff" points="231.76,-50 241.76,-46.5 231.76,-43 231.76,-50"/>
</a>
</g>
</g>
<!-- Node9 -->
<g id="Node000009" class="node">
<title>Node9</title>
<g id="a_Node000009"><a xlink:href="namespaceutil_1_1io.html#a38afb09a152cca4061850f4123bd3aeb" target="_top" xlink:title="Returns tab spaces of given size.">
<polygon fill="white" stroke="#666666" points="476,-56 391,-56 391,-37 476,-37 476,-56"/>
<text text-anchor="middle" x="433.5" y="-44" font-family="Arial" font-size="10.00">util::io::getTabS</text>
</a>
</g>
</g>
<!-- Node8&#45;&gt;Node9 -->
<g id="edge12_Node000008_Node000009" class="edge">
<title>Node8&#45;&gt;Node9</title>
<g id="a_edge12_Node000008_Node000009"><a xlink:title=" ">
<path fill="none" stroke="#63b8ff" d="M322.28,-46.5C340.17,-46.5 361.6,-46.5 380.78,-46.5"/>
<polygon fill="#63b8ff" stroke="#63b8ff" points="380.87,-50 390.87,-46.5 380.87,-43 380.87,-50"/>
</a>
</g>
</g>
</g>
</svg>
