<?xml version="1.0" encoding="UTF-8" standalone="no"?>
<!DOCTYPE svg PUBLIC "-//W3C//DTD SVG 1.1//EN"
 "http://www.w3.org/Graphics/SVG/1.1/DTD/svg11.dtd">
<!-- Generated by graphviz version 2.43.0 (0)
 -->
<!-- Title: /home/user/project/test/test_exec/util/testUtil.cpp Pages: 1 -->
<svg width="584pt" height="214pt"
 viewBox="0.00 0.00 583.50 214.00" xmlns="http://www.w3.org/2000/svg" xmlns:xlink="http://www.w3.org/1999/xlink">
<g id="graph0" class="graph" transform="scale(1 1) rotate(0) translate(4 210)">
<title>/home/user/project/test/test_exec/util/testUtil.cpp</title>
<!-- Node1 -->
<g id="Node000001" class="node">
<title>Node1</title>
<g id="a_Node000001"><a xlink:title=" ">
<polygon fill="#999999" stroke="#666666" points="343.5,-206 245.5,-206 245.5,-165 343.5,-165 343.5,-206"/>
<text text-anchor="start" x="253.5" y="-194" font-family="Arial" font-size="10.00">/home/user/project</text>
<text text-anchor="start" x="253.5" y="-183" font-family="Arial" font-size="10.00">/test/test_exec/util</text>
<text text-anchor="middle" x="294.5" y="-172" font-family="Arial" font-size="10.00">/testUtil.cpp</text>
</a>
</g>
</g>
<!-- Node2 -->
<g id="Node000002" class="node">
<title>Node2</title>
<g id="a_Node000002"><a xlink:href="testUtilLib_8h.html" target="_top" xlink:title=" ">
<polygon fill="white" stroke="#666666" points="78,-74 9,-74 9,-55 78,-55 78,-74"/>
<text text-anchor="middle" x="43.5" y="-62" font-family="Arial" font-size="10.00">testUtilLib.h</text>
</a>
</g>
</g>
<!-- Node1&#45;&gt;Node2 -->
<g id="edge1_Node000001_Node000002" class="edge">
<title>Node1&#45;&gt;Node2</title>
<g id="a_edge1_Node000001_Node000002"><a xlink:title=" ">
<path fill="none" stroke="#63b8ff" d="M253.33,-164.98C201.74,-140.52 114.77,-99.29 70.76,-78.42"/>
<polygon fill="#63b8ff" stroke="#63b8ff" points="72.08,-75.18 61.54,-74.05 69.08,-81.5 72.08,-75.18"/>
</a>
</g>
</g>
<!-- Node5 -->
<g id="Node000005" class="node">
<title>Node5</title>
<g id="a_Node000005"><a xlink:href="io_8h.html" target="_top" xlink:title=" ">
<polygon fill="white" stroke="#666666" points="318.5,-129 270.5,-129 270.5,-110 318.5,-110 318.5,-129"/>
<text text-anchor="middle" x="294.5" y="-117" font-family="Arial" font-size="10.00">util/io.h</text>
</a>
</g>
</g>
<!-- Node1&#45;&gt;Node5 -->
<g id="edge4_Node000001_Node000005" class="edge">
<title>Node1&#45;&gt;Node5</title>
<g id="a_edge4_Node000001_Node000005"><a xlink:title=" ">
<path fill="none" stroke="#63b8ff" d="M294.5,-164.95C294.5,-156.85 294.5,-147.5 294.5,-139.47"/>
<polygon fill="#63b8ff" stroke="#63b8ff" points="298,-139.26 294.5,-129.26 291,-139.26 298,-139.26"/>
</a>
</g>
</g>
<!-- Node10 -->
<g id="Node000010" class="node">
<title>Node10</title>
<g id="a_Node000010"><a xlink:title=" ">
<polygon fill="#e0e0e0" stroke="#999999" points="496.5,-19 442.5,-19 442.5,0 496.5,0 496.5,-19"/>
<text text-anchor="middle" x="469.5" y="-7" font-family="Arial" font-size="10.00">iostream</text>
</a>
</g>
</g>
<!-- Node1&#45;&gt;Node10 -->
<g id="edge22_Node000001_Node000010" class="edge">
<title>Node1&#45;&gt;Node10</title>
<g id="a_edge22_Node000001_Node000010"><a xlink:title=" ">
<path fill="none" stroke="#63b8ff" d="M342.69,-164.87C380.38,-146.92 430.88,-116.65 458.5,-74 467.15,-60.65 469.58,-42.54 470.04,-29.08"/>
<polygon fill="#63b8ff" stroke="#63b8ff" points="473.54,-29.07 470.05,-19.07 466.54,-29.06 473.54,-29.07"/>
</a>
</g>
</g>
<!-- Node11 -->
<g id="Node000011" class="node">
<title>Node11</title>
<g id="a_Node000011"><a xlink:href="parallelUtil_8h.html" target="_top" xlink:title=" ">
<polygon fill="white" stroke="#666666" points="167,-74 96,-74 96,-55 167,-55 167,-74"/>
<text text-anchor="middle" x="131.5" y="-62" font-family="Arial" font-size="10.00">parallelUtil.h</text>
</a>
</g>
</g>
<!-- Node1&#45;&gt;Node11 -->
<g id="edge20_Node000001_Node000011" class="edge">
<title>Node1&#45;&gt;Node11</title>
<g id="a_edge20_Node000001_Node000011"><a xlink:title=" ">
<path fill="none" stroke="#63b8ff" d="M267.58,-164.85C234.97,-141.04 180.77,-101.47 151.59,-80.16"/>
<polygon fill="#63b8ff" stroke="#63b8ff" points="153.52,-77.24 143.38,-74.18 149.4,-82.9 153.52,-77.24"/>
</a>
</g>
</g>
<!-- Node16 -->
<g id="Node000016" class="node">
<title>Node16</title>
<g id="a_Node000016"><a xlink:title=" ">
<polygon fill="#e0e0e0" stroke="#999999" points="575.5,-129 505.5,-129 505.5,-110 575.5,-110 575.5,-129"/>
<text text-anchor="middle" x="540.5" y="-117" font-family="Arial" font-size="10.00">fmt/format.h</text>
</a>
</g>
</g>
<!-- Node1&#45;&gt;Node16 -->
<g id="edge21_Node000001_Node000016" class="edge">
<title>Node1&#45;&gt;Node16</title>
<g id="a_edge21_Node000001_Node000016"><a xlink:title=" ">
<path fill="none" stroke="#63b8ff" d="M343.69,-171.7C388.73,-159.98 454.73,-142.81 497.66,-131.65"/>
<polygon fill="#63b8ff" stroke="#63b8ff" points="498.72,-134.99 507.51,-129.08 496.95,-128.21 498.72,-134.99"/>
</a>
</g>
</g>
<!-- Node3 -->
<g id="Node000003" class="node">
<title>Node3</title>
<g id="a_Node000003"><a xlink:title=" ">
<polygon fill="#e0e0e0" stroke="#999999" points="41,-19 0,-19 0,0 41,0 41,-19"/>
<text text-anchor="middle" x="20.5" y="-7" font-family="Arial" font-size="10.00">string</text>
</a>
</g>
</g>
<!-- Node2&#45;&gt;Node3 -->
<g id="edge2_Node000002_Node000003" class="edge">
<title>Node2&#45;&gt;Node3</title>
<g id="a_edge2_Node000002_Node000003"><a xlink:title=" ">
<path fill="none" stroke="#63b8ff" d="M39.7,-54.75C36.59,-47.57 32.08,-37.18 28.21,-28.27"/>
<polygon fill="#63b8ff" stroke="#63b8ff" points="31.42,-26.87 24.23,-19.09 25,-29.66 31.42,-26.87"/>
</a>
</g>
</g>
<!-- Node4 -->
<g id="Node000004" class="node">
<title>Node4</title>
<g id="a_Node000004"><a xlink:title=" ">
<polygon fill="#e0e0e0" stroke="#999999" points="224.5,-19 180.5,-19 180.5,0 224.5,0 224.5,-19"/>
<text text-anchor="middle" x="202.5" y="-7" font-family="Arial" font-size="10.00">vector</text>
</a>
</g>
</g>
<!-- Node2&#45;&gt;Node4 -->
<g id="edge3_Node000002_Node000004" class="edge">
<title>Node2&#45;&gt;Node4</title>
<g id="a_edge3_Node000002_Node000004"><a xlink:title=" ">
<path fill="none" stroke="#63b8ff" d="M69.05,-54.98C96.73,-45.76 140.94,-31.02 170.81,-21.06"/>
<polygon fill="#63b8ff" stroke="#63b8ff" points="171.97,-24.37 180.35,-17.88 169.76,-17.72 171.97,-24.37"/>
</a>
</g>
</g>
<!-- Node5&#45;&gt;Node4 -->
<g id="edge18_Node000005_Node000004" class="edge">
<title>Node5&#45;&gt;Node4</title>
<g id="a_edge18_Node000005_Node000004"><a xlink:title=" ">
<path fill="none" stroke="#63b8ff" d="M289.35,-109.85C281.65,-97.22 266.32,-73.24 250.5,-55 241.4,-44.51 230.05,-33.9 220.67,-25.66"/>
<polygon fill="#63b8ff" stroke="#63b8ff" points="222.91,-22.97 213.04,-19.11 218.35,-28.28 222.91,-22.97"/>
</a>
</g>
</g>
<!-- Node6 -->
<g id="Node000006" class="node">
<title>Node6</title>
<g id="a_Node000006"><a xlink:href="point_8h.html" target="_top" xlink:title=" ">
<polygon fill="white" stroke="#666666" points="343.5,-74 297.5,-74 297.5,-55 343.5,-55 343.5,-74"/>
<text text-anchor="middle" x="320.5" y="-62" font-family="Arial" font-size="10.00">point.h</text>
</a>
</g>
</g>
<!-- Node5&#45;&gt;Node6 -->
<g id="edge5_Node000005_Node000006" class="edge">
<title>Node5&#45;&gt;Node6</title>
<g id="a_edge5_Node000005_Node000006"><a xlink:title=" ">
<path fill="none" stroke="#63b8ff" d="M298.79,-109.75C302.31,-102.57 307.41,-92.18 311.78,-83.27"/>
<polygon fill="#63b8ff" stroke="#63b8ff" points="315.02,-84.61 316.29,-74.09 308.74,-81.53 315.02,-84.61"/>
</a>
</g>
</g>
<!-- Node5&#45;&gt;Node10 -->
<g id="edge17_Node000005_Node000010" class="edge">
<title>Node5&#45;&gt;Node10</title>
<g id="a_edge17_Node000005_Node000010"><a xlink:title=" ">
<path fill="none" stroke="#63b8ff" d="M306.74,-109.99C324.82,-97.53 359.81,-73.76 390.5,-55 408.3,-44.12 428.83,-32.58 444.51,-23.98"/>
<polygon fill="#63b8ff" stroke="#63b8ff" points="446.47,-26.9 453.57,-19.04 443.11,-20.75 446.47,-26.9"/>
</a>
</g>
</g>
<!-- Node5&#45;&gt;Node11 -->
<g id="edge11_Node000005_Node000011" class="edge">
<title>Node5&#45;&gt;Node11</title>
<g id="a_edge11_Node000005_Node000011"><a xlink:title=" ">
<path fill="none" stroke="#63b8ff" d="M270.45,-110.68C243.28,-101.85 198.78,-87.38 167.48,-77.2"/>
<polygon fill="#63b8ff" stroke="#63b8ff" points="168.41,-73.82 157.81,-74.06 166.24,-80.48 168.41,-73.82"/>
</a>
</g>
</g>
<!-- Node14 -->
<g id="Node000014" class="node">
<title>Node14</title>
<g id="a_Node000014"><a xlink:title=" ">
<polygon fill="#e0e0e0" stroke="#999999" points="449.5,-74 399.5,-74 399.5,-55 449.5,-55 449.5,-74"/>
<text text-anchor="middle" x="424.5" y="-62" font-family="Arial" font-size="10.00">fstream</text>
</a>
</g>
</g>
<!-- Node5&#45;&gt;Node14 -->
<g id="edge16_Node000005_Node000014" class="edge">
<title>Node5&#45;&gt;Node14</title>
<g id="a_edge16_Node000005_Node000014"><a xlink:title=" ">
<path fill="none" stroke="#63b8ff" d="M315.39,-109.98C336.58,-101.34 369.63,-87.87 393.8,-78.02"/>
<polygon fill="#63b8ff" stroke="#63b8ff" points="395.29,-81.19 403.23,-74.17 392.65,-74.7 395.29,-81.19"/>
</a>
</g>
</g>
<!-- Node15 -->
<g id="Node000015" class="node">
<title>Node15</title>
<g id="a_Node000015"><a xlink:title=" ">
<polygon fill="#e0e0e0" stroke="#999999" points="241.5,-74 185.5,-74 185.5,-55 241.5,-55 241.5,-74"/>
<text text-anchor="middle" x="213.5" y="-62" font-family="Arial" font-size="10.00">algorithm</text>
</a>
</g>
</g>
<!-- Node5&#45;&gt;Node15 -->
<g id="edge19_Node000005_Node000015" class="edge">
<title>Node5&#45;&gt;Node15</title>
<g id="a_edge19_Node000005_Node000015"><a xlink:title=" ">
<path fill="none" stroke="#63b8ff" d="M281.49,-109.98C269.04,-101.84 250.04,-89.41 235.29,-79.76"/>
<polygon fill="#63b8ff" stroke="#63b8ff" points="237.04,-76.72 226.75,-74.17 233.2,-82.57 237.04,-76.72"/>
</a>
</g>
</g>
<!-- Node6&#45;&gt;Node4 -->
<g id="edge10_Node000006_Node000004" class="edge">
<title>Node6&#45;&gt;Node4</title>
<g id="a_edge10_Node000006_Node000004"><a xlink:title=" ">
<path fill="none" stroke="#63b8ff" d="M301.54,-54.98C282.47,-46.42 252.84,-33.11 230.95,-23.28"/>
<polygon fill="#63b8ff" stroke="#63b8ff" points="232.36,-20.07 221.8,-19.17 229.49,-26.46 232.36,-20.07"/>
</a>
</g>
</g>
<!-- Node7 -->
<g id="Node000007" class="node">
<title>Node7</title>
<g id="a_Node000007"><a xlink:title=" ">
<polygon fill="#e0e0e0" stroke="#999999" points="424.5,-19 380.5,-19 380.5,0 424.5,0 424.5,-19"/>
<text text-anchor="middle" x="402.5" y="-7" font-family="Arial" font-size="10.00">cmath</text>
</a>
</g>
</g>
<!-- Node6&#45;&gt;Node7 -->
<g id="edge6_Node000006_Node000007" class="edge">
<title>Node6&#45;&gt;Node7</title>
<g id="a_edge6_Node000006_Node000007"><a xlink:title=" ">
<path fill="none" stroke="#63b8ff" d="M333.67,-54.98C346.27,-46.84 365.5,-34.41 380.44,-24.76"/>
<polygon fill="#63b8ff" stroke="#63b8ff" points="382.59,-27.54 389.09,-19.17 378.79,-21.66 382.59,-27.54"/>
</a>
</g>
</g>
<!-- Node8 -->
<g id="Node000008" class="node">
<title>Node8</title>
<g id="a_Node000008"><a xlink:title=" ">
<polygon fill="#e0e0e0" stroke="#999999" points="292.5,-19 242.5,-19 242.5,0 292.5,0 292.5,-19"/>
<text text-anchor="middle" x="267.5" y="-7" font-family="Arial" font-size="10.00">iomanip</text>
</a>
</g>
</g>
<!-- Node6&#45;&gt;Node8 -->
<g id="edge7_Node000006_Node000008" class="edge">
<title>Node6&#45;&gt;Node8</title>
<g id="a_edge7_Node000006_Node000008"><a xlink:title=" ">
<path fill="none" stroke="#63b8ff" d="M311.75,-54.75C304.03,-47.03 292.6,-35.6 283.28,-26.28"/>
<polygon fill="#63b8ff" stroke="#63b8ff" points="285.64,-23.69 276.09,-19.09 280.69,-28.64 285.64,-23.69"/>
</a>
</g>
</g>
<!-- Node9 -->
<g id="Node000009" class="node">
<title>Node9</title>
<g id="a_Node000009"><a xlink:title=" ">
<polygon fill="#e0e0e0" stroke="#999999" points="362.5,-19 310.5,-19 310.5,0 362.5,0 362.5,-19"/>
<text text-anchor="middle" x="336.5" y="-7" font-family="Arial" font-size="10.00">sstream</text>
</a>
</g>
</g>
<!-- Node6&#45;&gt;Node9 -->
<g id="edge8_Node000006_Node000009" class="edge">
<title>Node6&#45;&gt;Node9</title>
<g id="a_edge8_Node000006_Node000009"><a xlink:title=" ">
<path fill="none" stroke="#63b8ff" d="M323.14,-54.75C325.26,-47.72 328.31,-37.62 330.96,-28.84"/>
<polygon fill="#63b8ff" stroke="#63b8ff" points="334.37,-29.67 333.91,-19.09 327.67,-27.65 334.37,-29.67"/>
</a>
</g>
</g>
<!-- Node6&#45;&gt;Node10 -->
<g id="edge9_Node000006_Node000010" class="edge">
<title>Node6&#45;&gt;Node10</title>
<g id="a_edge9_Node000006_Node000010"><a xlink:title=" ">
<path fill="none" stroke="#63b8ff" d="M343.78,-55.22C368.42,-46.45 407.55,-32.54 435.61,-22.56"/>
<polygon fill="#63b8ff" stroke="#63b8ff" points="437.15,-25.72 445.39,-19.07 434.8,-19.13 437.15,-25.72"/>
</a>
</g>
</g>
<!-- Node11&#45;&gt;Node3 -->
<g id="edge13_Node000011_Node000003" class="edge">
<title>Node11&#45;&gt;Node3</title>
<g id="a_edge13_Node000011_Node000003"><a xlink:title=" ">
<path fill="none" stroke="#63b8ff" d="M113.67,-54.98C95.89,-46.5 68.35,-33.35 47.82,-23.54"/>
<polygon fill="#63b8ff" stroke="#63b8ff" points="49.19,-20.32 38.66,-19.17 46.17,-26.64 49.19,-20.32"/>
</a>
</g>
</g>
<!-- Node11&#45;&gt;Node4 -->
<g id="edge14_Node000011_Node000004" class="edge">
<title>Node11&#45;&gt;Node4</title>
<g id="a_edge14_Node000011_Node000004"><a xlink:title=" ">
<path fill="none" stroke="#63b8ff" d="M142.91,-54.98C153.61,-47 169.84,-34.88 182.66,-25.31"/>
<polygon fill="#63b8ff" stroke="#63b8ff" points="184.97,-27.96 190.89,-19.17 180.78,-22.35 184.97,-27.96"/>
</a>
</g>
</g>
<!-- Node12 -->
<g id="Node000012" class="node">
<title>Node12</title>
<g id="a_Node000012"><a xlink:title=" ">
<polygon fill="#e0e0e0" stroke="#999999" points="100,-19 59,-19 59,0 100,0 100,-19"/>
<text text-anchor="middle" x="79.5" y="-7" font-family="Arial" font-size="10.00">mpi.h</text>
</a>
</g>
</g>
<!-- Node11&#45;&gt;Node12 -->
<g id="edge12_Node000011_Node000012" class="edge">
<title>Node11&#45;&gt;Node12</title>
<g id="a_edge12_Node000011_Node000012"><a xlink:title=" ">
<path fill="none" stroke="#63b8ff" d="M122.91,-54.75C115.34,-47.03 104.12,-35.6 94.99,-26.28"/>
<polygon fill="#63b8ff" stroke="#63b8ff" points="97.43,-23.78 87.93,-19.09 92.43,-28.68 97.43,-23.78"/>
</a>
</g>
</g>
<!-- Node13 -->
<g id="Node000013" class="node">
<title>Node13</title>
<g id="a_Node000013"><a xlink:title=" ">
<polygon fill="#e0e0e0" stroke="#999999" points="162.5,-19 118.5,-19 118.5,0 162.5,0 162.5,-19"/>
<text text-anchor="middle" x="140.5" y="-7" font-family="Arial" font-size="10.00">thread</text>
</a>
</g>
</g>
<!-- Node11&#45;&gt;Node13 -->
<g id="edge15_Node000011_Node000013" class="edge">
<title>Node11&#45;&gt;Node13</title>
<g id="a_edge15_Node000011_Node000013"><a xlink:title=" ">
<path fill="none" stroke="#63b8ff" d="M132.99,-54.75C134.17,-47.8 135.86,-37.85 137.34,-29.13"/>
<polygon fill="#63b8ff" stroke="#63b8ff" points="140.82,-29.53 139.04,-19.09 133.92,-28.36 140.82,-29.53"/>
</a>
</g>
</g>
</g>
</svg>
