<?xml version="1.0" encoding="UTF-8" standalone="no"?>
<!DOCTYPE svg PUBLIC "-//W3C//DTD SVG 1.1//EN"
 "http://www.w3.org/Graphics/SVG/1.1/DTD/svg11.dtd">
<!-- Generated by graphviz version 2.43.0 (0)
 -->
<!-- Title: /home/user/project/test/test_exec/fe/testFeLib.h Pages: 1 -->
<svg width="324pt" height="104pt"
 viewBox="0.00 0.00 324.00 104.00" xmlns="http://www.w3.org/2000/svg" xmlns:xlink="http://www.w3.org/1999/xlink">
<g id="graph0" class="graph" transform="scale(1 1) rotate(0) translate(4 100)">
<title>/home/user/project/test/test_exec/fe/testFeLib.h</title>
<!-- Node1 -->
<g id="Node000001" class="node">
<title>Node1</title>
<g id="a_Node000001"><a xlink:title=" ">
<polygon fill="#999999" stroke="#666666" points="227,-96 82,-96 82,-66 227,-66 227,-96"/>
<text text-anchor="start" x="90" y="-84" font-family="Arial" font-size="10.00">/home/user/project</text>
<text text-anchor="middle" x="154.5" y="-73" font-family="Arial" font-size="10.00">/test/test_exec/fe/testFeLib.h</text>
</a>
</g>
</g>
<!-- Node2 -->
<g id="Node000002" class="node">
<title>Node2</title>
<g id="a_Node000002"><a xlink:href="testFe_8cpp.html" target="_top" xlink:title=" ">
<polygon fill="white" stroke="#666666" points="143,-30 0,-30 0,0 143,0 143,-30"/>
<text text-anchor="start" x="8" y="-18" font-family="Arial" font-size="10.00">/home/user/project</text>
<text text-anchor="middle" x="71.5" y="-7" font-family="Arial" font-size="10.00">/test/test_exec/fe/testFe.cpp</text>
</a>
</g>
</g>
<!-- Node1&#45;&gt;Node2 -->
<g id="edge1_Node000001_Node000002" class="edge">
<title>Node1&#45;&gt;Node2</title>
<g id="a_edge1_Node000001_Node000002"><a xlink:title=" ">
<path fill="none" stroke="#63b8ff" d="M127.89,-59.48C115.48,-49.91 101.03,-38.77 89.87,-30.16"/>
<polygon fill="#63b8ff" stroke="#63b8ff" points="126.02,-62.46 136.08,-65.8 130.3,-56.92 126.02,-62.46"/>
</a>
</g>
</g>
<!-- Node3 -->
<g id="Node000003" class="node">
<title>Node3</title>
<g id="a_Node000003"><a xlink:href="testFeLib_8cpp.html" target="_top" xlink:title=" ">
<polygon fill="white" stroke="#666666" points="316,-30 161,-30 161,0 316,0 316,-30"/>
<text text-anchor="start" x="169" y="-18" font-family="Arial" font-size="10.00">/home/user/project</text>
<text text-anchor="middle" x="238.5" y="-7" font-family="Arial" font-size="10.00">/test/test_exec/fe/testFeLib.cpp</text>
</a>
</g>
</g>
<!-- Node1&#45;&gt;Node3 -->
<g id="edge2_Node000001_Node000003" class="edge">
<title>Node1&#45;&gt;Node3</title>
<g id="a_edge2_Node000001_Node000003"><a xlink:title=" ">
<path fill="none" stroke="#63b8ff" d="M181.44,-59.48C193.99,-49.91 208.61,-38.77 219.91,-30.16"/>
<polygon fill="#63b8ff" stroke="#63b8ff" points="178.98,-56.95 173.14,-65.8 183.22,-62.52 178.98,-56.95"/>
</a>
</g>
</g>
</g>
</svg>
