<?xml version="1.0" encoding="UTF-8" standalone="no"?>
<!DOCTYPE svg PUBLIC "-//W3C//DTD SVG 1.1//EN"
 "http://www.w3.org/Graphics/SVG/1.1/DTD/svg11.dtd">
<!-- Generated by graphviz version 2.43.0 (0)
 -->
<!-- Title: /home/user/project/test/test_exec/util/testUtil.cpp Pages: 1 -->
<svg width="957pt" height="269pt"
 viewBox="0.00 0.00 956.68 269.00" xmlns="http://www.w3.org/2000/svg" xmlns:xlink="http://www.w3.org/1999/xlink">
<g id="graph0" class="graph" transform="scale(1 1) rotate(0) translate(4 265)">
<title>/home/user/project/test/test_exec/util/testUtil.cpp</title>
<!-- Node1 -->
<g id="Node000001" class="node">
<title>Node1</title>
<g id="a_Node000001"><a xlink:title=" ">
<polygon fill="#999999" stroke="#666666" points="519.68,-261 421.68,-261 421.68,-220 519.68,-220 519.68,-261"/>
<text text-anchor="start" x="429.68" y="-249" font-family="Arial" font-size="10.00">/home/user/project</text>
<text text-anchor="start" x="429.68" y="-238" font-family="Arial" font-size="10.00">/test/test_exec/util</text>
<text text-anchor="middle" x="470.68" y="-227" font-family="Arial" font-size="10.00">/testUtil.cpp</text>
</a>
</g>
</g>
<!-- Node2 -->
<g id="Node000002" class="node">
<title>Node2</title>
<g id="a_Node000002"><a xlink:href="testUtilLib_8h.html" target="_top" xlink:title=" ">
<polygon fill="white" stroke="#666666" points="83.18,-74 14.18,-74 14.18,-55 83.18,-55 83.18,-74"/>
<text text-anchor="middle" x="48.68" y="-62" font-family="Arial" font-size="10.00">testUtilLib.h</text>
</a>
</g>
</g>
<!-- Node1&#45;&gt;Node2 -->
<g id="edge1_Node000001_Node000002" class="edge">
<title>Node1&#45;&gt;Node2</title>
<g id="a_edge1_Node000001_Node000002"><a xlink:title=" ">
<path fill="none" stroke="#63b8ff" d="M421.38,-226.94C384.11,-216.87 331.97,-201.56 287.68,-184 206.4,-151.78 115.02,-102.63 72.64,-79.05"/>
<polygon fill="#63b8ff" stroke="#63b8ff" points="74.1,-75.85 63.66,-74.03 70.68,-81.96 74.1,-75.85"/>
</a>
</g>
</g>
<!-- Node5 -->
<g id="Node000005" class="node">
<title>Node5</title>
<g id="a_Node000005"><a xlink:href="io_8h.html" target="_top" xlink:title=" ">
<polygon fill="white" stroke="#666666" points="494.68,-184 446.68,-184 446.68,-165 494.68,-165 494.68,-184"/>
<text text-anchor="middle" x="470.68" y="-172" font-family="Arial" font-size="10.00">util/io.h</text>
</a>
</g>
</g>
<!-- Node1&#45;&gt;Node5 -->
<g id="edge4_Node000001_Node000005" class="edge">
<title>Node1&#45;&gt;Node5</title>
<g id="a_edge4_Node000001_Node000005"><a xlink:title=" ">
<path fill="none" stroke="#63b8ff" d="M470.68,-219.95C470.68,-211.85 470.68,-202.5 470.68,-194.47"/>
<polygon fill="#63b8ff" stroke="#63b8ff" points="474.18,-194.26 470.68,-184.26 467.18,-194.26 474.18,-194.26"/>
</a>
</g>
</g>
<!-- Node10 -->
<g id="Node000010" class="node">
<title>Node10</title>
<g id="a_Node000010"><a xlink:title=" ">
<polygon fill="#e0e0e0" stroke="#999999" points="610.68,-74 556.68,-74 556.68,-55 610.68,-55 610.68,-74"/>
<text text-anchor="middle" x="583.68" y="-62" font-family="Arial" font-size="10.00">iostream</text>
</a>
</g>
</g>
<!-- Node1&#45;&gt;Node10 -->
<g id="edge36_Node000001_Node000010" class="edge">
<title>Node1&#45;&gt;Node10</title>
<g id="a_edge36_Node000001_Node000010"><a xlink:title=" ">
<path fill="none" stroke="#63b8ff" d="M519.99,-221.65C559.22,-204.52 611.41,-174.47 635.68,-129 645.72,-110.2 626.29,-91.7 608.39,-79.56"/>
<polygon fill="#63b8ff" stroke="#63b8ff" points="610.18,-76.55 599.87,-74.14 606.43,-82.46 610.18,-76.55"/>
</a>
</g>
</g>
<!-- Node15 -->
<g id="Node000015" class="node">
<title>Node15</title>
<g id="a_Node000015"><a xlink:href="parallelUtil_8h.html" target="_top" xlink:title=" ">
<polygon fill="white" stroke="#666666" points="172.18,-74 101.18,-74 101.18,-55 172.18,-55 172.18,-74"/>
<text text-anchor="middle" x="136.68" y="-62" font-family="Arial" font-size="10.00">parallelUtil.h</text>
</a>
</g>
</g>
<!-- Node1&#45;&gt;Node15 -->
<g id="edge34_Node000001_Node000015" class="edge">
<title>Node1&#45;&gt;Node15</title>
<g id="a_edge34_Node000001_Node000015"><a xlink:title=" ">
<path fill="none" stroke="#63b8ff" d="M421.35,-221.8C369.47,-202.28 286.29,-168.37 219.68,-129 195.48,-114.69 170.16,-94.43 153.95,-80.67"/>
<polygon fill="#63b8ff" stroke="#63b8ff" points="156.22,-78.01 146.36,-74.14 151.65,-83.31 156.22,-78.01"/>
</a>
</g>
</g>
<!-- Node19 -->
<g id="Node000019" class="node">
<title>Node19</title>
<g id="a_Node000019"><a xlink:title=" ">
<polygon fill="#e0e0e0" stroke="#999999" points="948.68,-129 904.68,-129 904.68,-110 948.68,-110 948.68,-129"/>
<text text-anchor="middle" x="926.68" y="-117" font-family="Arial" font-size="10.00">format</text>
</a>
</g>
</g>
<!-- Node1&#45;&gt;Node19 -->
<g id="edge35_Node000001_Node000019" class="edge">
<title>Node1&#45;&gt;Node19</title>
<g id="a_edge35_Node000001_Node000019"><a xlink:title=" ">
<path fill="none" stroke="#63b8ff" d="M519.88,-227.24C564.29,-216.12 631.42,-199.19 689.68,-184 763.11,-164.86 849.1,-141.61 894.62,-129.24"/>
<polygon fill="#63b8ff" stroke="#63b8ff" points="895.76,-132.56 904.49,-126.55 893.92,-125.8 895.76,-132.56"/>
</a>
</g>
</g>
<!-- Node3 -->
<g id="Node000003" class="node">
<title>Node3</title>
<g id="a_Node000003"><a xlink:title=" ">
<polygon fill="#e0e0e0" stroke="#999999" points="54.18,-19 13.18,-19 13.18,0 54.18,0 54.18,-19"/>
<text text-anchor="middle" x="33.68" y="-7" font-family="Arial" font-size="10.00">string</text>
</a>
</g>
</g>
<!-- Node2&#45;&gt;Node3 -->
<g id="edge2_Node000002_Node000003" class="edge">
<title>Node2&#45;&gt;Node3</title>
<g id="a_edge2_Node000002_Node000003"><a xlink:title=" ">
<path fill="none" stroke="#63b8ff" d="M46.21,-54.75C44.22,-47.72 41.36,-37.62 38.88,-28.84"/>
<polygon fill="#63b8ff" stroke="#63b8ff" points="42.21,-27.76 36.12,-19.09 35.47,-29.66 42.21,-27.76"/>
</a>
</g>
</g>
<!-- Node4 -->
<g id="Node000004" class="node">
<title>Node4</title>
<g id="a_Node000004"><a xlink:title=" ">
<polygon fill="#e0e0e0" stroke="#999999" points="237.68,-19 193.68,-19 193.68,0 237.68,0 237.68,-19"/>
<text text-anchor="middle" x="215.68" y="-7" font-family="Arial" font-size="10.00">vector</text>
</a>
</g>
</g>
<!-- Node2&#45;&gt;Node4 -->
<g id="edge3_Node000002_Node000004" class="edge">
<title>Node2&#45;&gt;Node4</title>
<g id="a_edge3_Node000002_Node000004"><a xlink:title=" ">
<path fill="none" stroke="#63b8ff" d="M75.52,-54.98C105.05,-45.61 152.5,-30.55 183.88,-20.59"/>
<polygon fill="#63b8ff" stroke="#63b8ff" points="184.99,-23.91 193.46,-17.55 182.87,-17.24 184.99,-23.91"/>
</a>
</g>
</g>
<!-- Node5&#45;&gt;Node3 -->
<g id="edge26_Node000005_Node000003" class="edge">
<title>Node5&#45;&gt;Node3</title>
<g id="a_edge26_Node000005_Node000003"><a xlink:title=" ">
<path fill="none" stroke="#63b8ff" d="M446.58,-172.28C359.03,-167.3 59.98,-145.23 4.68,-74 -6.39,-59.73 5.26,-40.55 16.93,-27.01"/>
<polygon fill="#63b8ff" stroke="#63b8ff" points="19.75,-29.12 24,-19.41 14.63,-24.35 19.75,-29.12"/>
</a>
</g>
</g>
<!-- Node5&#45;&gt;Node4 -->
<g id="edge23_Node000005_Node000004" class="edge">
<title>Node5&#45;&gt;Node4</title>
<g id="a_edge23_Node000005_Node000004"><a xlink:title=" ">
<path fill="none" stroke="#63b8ff" d="M446.42,-172C392.99,-168.22 267.51,-156.56 236.68,-129 208.73,-104.01 209.65,-55.83 212.7,-29.25"/>
<polygon fill="#63b8ff" stroke="#63b8ff" points="216.21,-29.4 214.1,-19.01 209.27,-28.44 216.21,-29.4"/>
</a>
</g>
</g>
<!-- Node6 -->
<g id="Node000006" class="node">
<title>Node6</title>
<g id="a_Node000006"><a xlink:href="point_8h.html" target="_top" xlink:title=" ">
<polygon fill="white" stroke="#666666" points="749.68,-129 703.68,-129 703.68,-110 749.68,-110 749.68,-129"/>
<text text-anchor="middle" x="726.68" y="-117" font-family="Arial" font-size="10.00">point.h</text>
</a>
</g>
</g>
<!-- Node5&#45;&gt;Node6 -->
<g id="edge5_Node000005_Node000006" class="edge">
<title>Node5&#45;&gt;Node6</title>
<g id="a_edge5_Node000005_Node000006"><a xlink:title=" ">
<path fill="none" stroke="#63b8ff" d="M494.77,-168.51C540.76,-158.99 641.18,-138.2 693.5,-127.37"/>
<polygon fill="#63b8ff" stroke="#63b8ff" points="694.51,-130.74 703.59,-125.28 693.09,-123.88 694.51,-130.74"/>
</a>
</g>
</g>
<!-- Node5&#45;&gt;Node10 -->
<g id="edge22_Node000005_Node000010" class="edge">
<title>Node5&#45;&gt;Node10</title>
<g id="a_edge22_Node000005_Node000010"><a xlink:title=" ">
<path fill="none" stroke="#63b8ff" d="M494.74,-174.31C528.75,-173.98 589.95,-167.65 618.68,-129 629.99,-113.8 615.91,-94.53 602.39,-81.23"/>
<polygon fill="#63b8ff" stroke="#63b8ff" points="604.42,-78.34 594.68,-74.16 599.68,-83.5 604.42,-78.34"/>
</a>
</g>
</g>
<!-- Node11 -->
<g id="Node000011" class="node">
<title>Node11</title>
<g id="a_Node000011"><a xlink:href="constants_8h.html" target="_top" xlink:title=" ">
<polygon fill="white" stroke="#666666" points="388.68,-74 320.68,-74 320.68,-55 388.68,-55 388.68,-74"/>
<text text-anchor="middle" x="354.68" y="-62" font-family="Arial" font-size="10.00">constants.h</text>
</a>
</g>
</g>
<!-- Node5&#45;&gt;Node11 -->
<g id="edge11_Node000005_Node000011" class="edge">
<title>Node5&#45;&gt;Node11</title>
<g id="a_edge11_Node000005_Node000011"><a xlink:title=" ">
<path fill="none" stroke="#63b8ff" d="M446.67,-166.64C426.94,-159.91 399.43,-147.88 381.68,-129 369.9,-116.47 362.84,-98.01 358.91,-84.22"/>
<polygon fill="#63b8ff" stroke="#63b8ff" points="362.26,-83.2 356.4,-74.37 355.48,-84.92 362.26,-83.2"/>
</a>
</g>
</g>
<!-- Node12 -->
<g id="Node000012" class="node">
<title>Node12</title>
<g id="a_Node000012"><a xlink:href="logger_8h.html" target="_top" xlink:title=" ">
<polygon fill="white" stroke="#666666" points="297.18,-129 246.18,-129 246.18,-110 297.18,-110 297.18,-129"/>
<text text-anchor="middle" x="271.68" y="-117" font-family="Arial" font-size="10.00">logger.h</text>
</a>
</g>
</g>
<!-- Node5&#45;&gt;Node12 -->
<g id="edge12_Node000005_Node000012" class="edge">
<title>Node5&#45;&gt;Node12</title>
<g id="a_edge12_Node000005_Node000012"><a xlink:title=" ">
<path fill="none" stroke="#63b8ff" d="M446.68,-167.11C411.9,-157.84 347.25,-140.63 307.02,-129.91"/>
<polygon fill="#63b8ff" stroke="#63b8ff" points="307.91,-126.53 297.35,-127.33 306.11,-133.29 307.91,-126.53"/>
</a>
</g>
</g>
<!-- Node14 -->
<g id="Node000014" class="node">
<title>Node14</title>
<g id="a_Node000014"><a xlink:title=" ">
<polygon fill="#e0e0e0" stroke="#999999" points="553.68,-19 503.68,-19 503.68,0 553.68,0 553.68,-19"/>
<text text-anchor="middle" x="528.68" y="-7" font-family="Arial" font-size="10.00">fstream</text>
</a>
</g>
</g>
<!-- Node5&#45;&gt;Node14 -->
<g id="edge21_Node000005_Node000014" class="edge">
<title>Node5&#45;&gt;Node14</title>
<g id="a_edge21_Node000005_Node000014"><a xlink:title=" ">
<path fill="none" stroke="#63b8ff" d="M494.88,-172.63C545.29,-170.2 664.64,-161.23 758.68,-129 806.3,-112.68 832.16,-117.38 857.68,-74 861.97,-66.72 863.24,-61.36 857.68,-55 819.83,-11.68 640.98,-8.86 564.03,-9.72"/>
<polygon fill="#63b8ff" stroke="#63b8ff" points="563.82,-6.22 553.87,-9.86 563.92,-13.22 563.82,-6.22"/>
</a>
</g>
</g>
<!-- Node18 -->
<g id="Node000018" class="node">
<title>Node18</title>
<g id="a_Node000018"><a xlink:title=" ">
<polygon fill="#e0e0e0" stroke="#999999" points="462.68,-74 406.68,-74 406.68,-55 462.68,-55 462.68,-74"/>
<text text-anchor="middle" x="434.68" y="-62" font-family="Arial" font-size="10.00">algorithm</text>
</a>
</g>
</g>
<!-- Node5&#45;&gt;Node18 -->
<g id="edge24_Node000005_Node000018" class="edge">
<title>Node5&#45;&gt;Node18</title>
<g id="a_edge24_Node000005_Node000018"><a xlink:title=" ">
<path fill="none" stroke="#63b8ff" d="M446.54,-167.67C427.13,-161.57 401.11,-149.88 388.68,-129 378.25,-111.47 395.8,-92.7 412.14,-80.15"/>
<polygon fill="#63b8ff" stroke="#63b8ff" points="414.35,-82.88 420.43,-74.2 410.26,-77.19 414.35,-82.88"/>
</a>
</g>
</g>
<!-- Node5&#45;&gt;Node19 -->
<g id="edge25_Node000005_Node000019" class="edge">
<title>Node5&#45;&gt;Node19</title>
<g id="a_edge25_Node000005_Node000019"><a xlink:title=" ">
<path fill="none" stroke="#63b8ff" d="M494.98,-172C559.68,-167.79 741.42,-154.42 890.68,-129 891.93,-128.79 893.2,-128.56 894.48,-128.31"/>
<polygon fill="#63b8ff" stroke="#63b8ff" points="895.24,-131.73 904.31,-126.25 893.8,-124.88 895.24,-131.73"/>
</a>
</g>
</g>
<!-- Node20 -->
<g id="Node000020" class="node">
<title>Node20</title>
<g id="a_Node000020"><a xlink:title=" ">
<polygon fill="#e0e0e0" stroke="#999999" points="525.18,-129 490.18,-129 490.18,-110 525.18,-110 525.18,-129"/>
<text text-anchor="middle" x="507.68" y="-117" font-family="Arial" font-size="10.00">map</text>
</a>
</g>
</g>
<!-- Node5&#45;&gt;Node20 -->
<g id="edge27_Node000005_Node000020" class="edge">
<title>Node5&#45;&gt;Node20</title>
<g id="a_edge27_Node000005_Node000020"><a xlink:title=" ">
<path fill="none" stroke="#63b8ff" d="M476.79,-164.75C481.97,-157.34 489.53,-146.5 495.88,-137.41"/>
<polygon fill="#63b8ff" stroke="#63b8ff" points="498.83,-139.29 501.69,-129.09 493.09,-135.29 498.83,-139.29"/>
</a>
</g>
</g>
<!-- Node21 -->
<g id="Node000021" class="node">
<title>Node21</title>
<g id="a_Node000021"><a xlink:title=" ">
<polygon fill="#e0e0e0" stroke="#999999" points="609.68,-129 543.68,-129 543.68,-110 609.68,-110 609.68,-129"/>
<text text-anchor="middle" x="576.68" y="-117" font-family="Arial" font-size="10.00">string_view</text>
</a>
</g>
</g>
<!-- Node5&#45;&gt;Node21 -->
<g id="edge28_Node000005_Node000021" class="edge">
<title>Node5&#45;&gt;Node21</title>
<g id="a_edge28_Node000005_Node000021"><a xlink:title=" ">
<path fill="none" stroke="#63b8ff" d="M487.72,-164.98C504.61,-156.54 530.75,-143.47 550.33,-133.68"/>
<polygon fill="#63b8ff" stroke="#63b8ff" points="551.96,-136.77 559.34,-129.17 548.83,-130.51 551.96,-136.77"/>
</a>
</g>
</g>
<!-- Node22 -->
<g id="Node000022" class="node">
<title>Node22</title>
<g id="a_Node000022"><a xlink:href="inputParser_8h.html" target="_top" xlink:title=" ">
<polygon fill="white" stroke="#666666" points="471.68,-129 397.68,-129 397.68,-110 471.68,-110 471.68,-129"/>
<text text-anchor="middle" x="434.68" y="-117" font-family="Arial" font-size="10.00">inputParser.h</text>
</a>
</g>
</g>
<!-- Node5&#45;&gt;Node22 -->
<g id="edge29_Node000005_Node000022" class="edge">
<title>Node5&#45;&gt;Node22</title>
<g id="a_edge29_Node000005_Node000022"><a xlink:title=" ">
<path fill="none" stroke="#63b8ff" d="M464.74,-164.75C459.71,-157.34 452.35,-146.5 446.17,-137.41"/>
<polygon fill="#63b8ff" stroke="#63b8ff" points="449.03,-135.39 440.52,-129.09 443.24,-139.33 449.03,-135.39"/>
</a>
</g>
</g>
<!-- Node6&#45;&gt;Node4 -->
<g id="edge10_Node000006_Node000004" class="edge">
<title>Node6&#45;&gt;Node4</title>
<g id="a_edge10_Node000006_Node000004"><a xlink:title=" ">
<path fill="none" stroke="#63b8ff" d="M713.65,-109.81C689.71,-94.01 639.35,-61.58 619.68,-55 550.76,-31.96 331.22,-17.19 248.04,-12.29"/>
<polygon fill="#63b8ff" stroke="#63b8ff" points="248.1,-8.79 237.92,-11.71 247.7,-15.78 248.1,-8.79"/>
</a>
</g>
</g>
<!-- Node7 -->
<g id="Node000007" class="node">
<title>Node7</title>
<g id="a_Node000007"><a xlink:title=" ">
<polygon fill="#e0e0e0" stroke="#999999" points="780.68,-74 736.68,-74 736.68,-55 780.68,-55 780.68,-74"/>
<text text-anchor="middle" x="758.68" y="-62" font-family="Arial" font-size="10.00">cmath</text>
</a>
</g>
</g>
<!-- Node6&#45;&gt;Node7 -->
<g id="edge6_Node000006_Node000007" class="edge">
<title>Node6&#45;&gt;Node7</title>
<g id="a_edge6_Node000006_Node000007"><a xlink:title=" ">
<path fill="none" stroke="#63b8ff" d="M731.97,-109.75C736.4,-102.42 742.85,-91.73 748.3,-82.7"/>
<polygon fill="#63b8ff" stroke="#63b8ff" points="751.33,-84.46 753.5,-74.09 745.33,-80.84 751.33,-84.46"/>
</a>
</g>
</g>
<!-- Node8 -->
<g id="Node000008" class="node">
<title>Node8</title>
<g id="a_Node000008"><a xlink:title=" ">
<polygon fill="#e0e0e0" stroke="#999999" points="848.68,-74 798.68,-74 798.68,-55 848.68,-55 848.68,-74"/>
<text text-anchor="middle" x="823.68" y="-62" font-family="Arial" font-size="10.00">iomanip</text>
</a>
</g>
</g>
<!-- Node6&#45;&gt;Node8 -->
<g id="edge7_Node000006_Node000008" class="edge">
<title>Node6&#45;&gt;Node8</title>
<g id="a_edge7_Node000006_Node000008"><a xlink:title=" ">
<path fill="none" stroke="#63b8ff" d="M742.27,-109.98C757.45,-101.69 780.78,-88.94 798.58,-79.22"/>
<polygon fill="#63b8ff" stroke="#63b8ff" points="800.72,-82.04 807.82,-74.17 797.36,-75.89 800.72,-82.04"/>
</a>
</g>
</g>
<!-- Node9 -->
<g id="Node000009" class="node">
<title>Node9</title>
<g id="a_Node000009"><a xlink:title=" ">
<polygon fill="#e0e0e0" stroke="#999999" points="718.68,-74 666.68,-74 666.68,-55 718.68,-55 718.68,-74"/>
<text text-anchor="middle" x="692.68" y="-62" font-family="Arial" font-size="10.00">sstream</text>
</a>
</g>
</g>
<!-- Node6&#45;&gt;Node9 -->
<g id="edge8_Node000006_Node000009" class="edge">
<title>Node6&#45;&gt;Node9</title>
<g id="a_edge8_Node000006_Node000009"><a xlink:title=" ">
<path fill="none" stroke="#63b8ff" d="M721.07,-109.75C716.37,-102.42 709.51,-91.73 703.72,-82.7"/>
<polygon fill="#63b8ff" stroke="#63b8ff" points="706.54,-80.62 698.19,-74.09 700.65,-84.4 706.54,-80.62"/>
</a>
</g>
</g>
<!-- Node6&#45;&gt;Node10 -->
<g id="edge9_Node000006_Node000010" class="edge">
<title>Node6&#45;&gt;Node10</title>
<g id="a_edge9_Node000006_Node000010"><a xlink:title=" ">
<path fill="none" stroke="#63b8ff" d="M703.71,-109.98C680.19,-101.27 643.4,-87.63 616.75,-77.75"/>
<polygon fill="#63b8ff" stroke="#63b8ff" points="617.67,-74.36 607.08,-74.17 615.24,-80.93 617.67,-74.36"/>
</a>
</g>
</g>
<!-- Node12&#45;&gt;Node11 -->
<g id="edge20_Node000012_Node000011" class="edge">
<title>Node12&#45;&gt;Node11</title>
<g id="a_edge20_Node000012_Node000011"><a xlink:title=" ">
<path fill="none" stroke="#63b8ff" d="M285.02,-109.98C297.77,-101.84 317.24,-89.41 332.35,-79.76"/>
<polygon fill="#63b8ff" stroke="#63b8ff" points="334.56,-82.5 341.11,-74.17 330.79,-76.6 334.56,-82.5"/>
</a>
</g>
</g>
<!-- Node13 -->
<g id="Node000013" class="node">
<title>Node13</title>
<g id="a_Node000013"><a xlink:href="loggerDeck_8h.html" target="_top" xlink:title=" ">
<polygon fill="white" stroke="#666666" points="302.68,-74 228.68,-74 228.68,-55 302.68,-55 302.68,-74"/>
<text text-anchor="middle" x="265.68" y="-62" font-family="Arial" font-size="10.00">loggerDeck.h</text>
</a>
</g>
</g>
<!-- Node12&#45;&gt;Node13 -->
<g id="edge13_Node000012_Node000013" class="edge">
<title>Node12&#45;&gt;Node13</title>
<g id="a_edge13_Node000012_Node000013"><a xlink:title=" ">
<path fill="none" stroke="#63b8ff" d="M270.69,-109.75C269.91,-102.8 268.78,-92.85 267.79,-84.13"/>
<polygon fill="#63b8ff" stroke="#63b8ff" points="271.26,-83.63 266.66,-74.09 264.3,-84.42 271.26,-83.63"/>
</a>
</g>
</g>
<!-- Node12&#45;&gt;Node15 -->
<g id="edge15_Node000012_Node000015" class="edge">
<title>Node12&#45;&gt;Node15</title>
<g id="a_edge15_Node000012_Node000015"><a xlink:title=" ">
<path fill="none" stroke="#63b8ff" d="M249.99,-109.98C227.89,-101.3 193.36,-87.75 168.23,-77.88"/>
<polygon fill="#63b8ff" stroke="#63b8ff" points="169.36,-74.57 158.77,-74.17 166.8,-81.08 169.36,-74.57"/>
</a>
</g>
</g>
<!-- Node13&#45;&gt;Node14 -->
<g id="edge14_Node000013_Node000014" class="edge">
<title>Node13&#45;&gt;Node14</title>
<g id="a_edge14_Node000013_Node000014"><a xlink:title=" ">
<path fill="none" stroke="#63b8ff" d="M302.81,-56.02C353.57,-45.79 443.99,-27.57 493.64,-17.56"/>
<polygon fill="#63b8ff" stroke="#63b8ff" points="494.47,-20.96 503.59,-15.56 493.09,-14.1 494.47,-20.96"/>
</a>
</g>
</g>
<!-- Node15&#45;&gt;Node3 -->
<g id="edge17_Node000015_Node000003" class="edge">
<title>Node15&#45;&gt;Node3</title>
<g id="a_edge17_Node000015_Node000003"><a xlink:title=" ">
<path fill="none" stroke="#63b8ff" d="M120.14,-54.98C103.79,-46.57 78.55,-33.59 59.55,-23.81"/>
<polygon fill="#63b8ff" stroke="#63b8ff" points="61.03,-20.63 50.53,-19.17 57.82,-26.86 61.03,-20.63"/>
</a>
</g>
</g>
<!-- Node15&#45;&gt;Node4 -->
<g id="edge18_Node000015_Node000004" class="edge">
<title>Node15&#45;&gt;Node4</title>
<g id="a_edge18_Node000015_Node000004"><a xlink:title=" ">
<path fill="none" stroke="#63b8ff" d="M149.38,-54.98C161.51,-46.84 180.04,-34.41 194.43,-24.76"/>
<polygon fill="#63b8ff" stroke="#63b8ff" points="196.41,-27.65 202.76,-19.17 192.51,-21.84 196.41,-27.65"/>
</a>
</g>
</g>
<!-- Node16 -->
<g id="Node000016" class="node">
<title>Node16</title>
<g id="a_Node000016"><a xlink:title=" ">
<polygon fill="#e0e0e0" stroke="#999999" points="113.18,-19 72.18,-19 72.18,0 113.18,0 113.18,-19"/>
<text text-anchor="middle" x="92.68" y="-7" font-family="Arial" font-size="10.00">mpi.h</text>
</a>
</g>
</g>
<!-- Node15&#45;&gt;Node16 -->
<g id="edge16_Node000015_Node000016" class="edge">
<title>Node15&#45;&gt;Node16</title>
<g id="a_edge16_Node000015_Node000016"><a xlink:title=" ">
<path fill="none" stroke="#63b8ff" d="M129.42,-54.75C123.14,-47.18 113.9,-36.05 106.25,-26.84"/>
<polygon fill="#63b8ff" stroke="#63b8ff" points="108.9,-24.55 99.81,-19.09 103.51,-29.02 108.9,-24.55"/>
</a>
</g>
</g>
<!-- Node17 -->
<g id="Node000017" class="node">
<title>Node17</title>
<g id="a_Node000017"><a xlink:title=" ">
<polygon fill="#e0e0e0" stroke="#999999" points="175.68,-19 131.68,-19 131.68,0 175.68,0 175.68,-19"/>
<text text-anchor="middle" x="153.68" y="-7" font-family="Arial" font-size="10.00">thread</text>
</a>
</g>
</g>
<!-- Node15&#45;&gt;Node17 -->
<g id="edge19_Node000015_Node000017" class="edge">
<title>Node15&#45;&gt;Node17</title>
<g id="a_edge19_Node000015_Node000017"><a xlink:title=" ">
<path fill="none" stroke="#63b8ff" d="M139.49,-54.75C141.74,-47.72 144.98,-37.62 147.8,-28.84"/>
<polygon fill="#63b8ff" stroke="#63b8ff" points="151.21,-29.68 150.93,-19.09 144.54,-27.54 151.21,-29.68"/>
</a>
</g>
</g>
<!-- Node22&#45;&gt;Node4 -->
<g id="edge32_Node000022_Node000004" class="edge">
<title>Node22&#45;&gt;Node4</title>
<g id="a_edge32_Node000022_Node000004"><a xlink:title=" ">
<path fill="none" stroke="#63b8ff" d="M446.18,-109.89C461.9,-97.1 486.55,-72.67 471.68,-55 443.41,-21.39 310.02,-13.16 247.79,-11.15"/>
<polygon fill="#63b8ff" stroke="#63b8ff" points="247.84,-7.65 237.74,-10.86 247.64,-14.65 247.84,-7.65"/>
</a>
</g>
</g>
<!-- Node22&#45;&gt;Node10 -->
<g id="edge31_Node000022_Node000010" class="edge">
<title>Node22&#45;&gt;Node10</title>
<g id="a_edge31_Node000022_Node000010"><a xlink:title=" ">
<path fill="none" stroke="#63b8ff" d="M458.62,-109.98C483.24,-101.23 521.8,-87.51 549.6,-77.62"/>
<polygon fill="#63b8ff" stroke="#63b8ff" points="551.06,-80.82 559.31,-74.17 548.71,-74.22 551.06,-80.82"/>
</a>
</g>
</g>
<!-- Node22&#45;&gt;Node14 -->
<g id="edge30_Node000022_Node000014" class="edge">
<title>Node22&#45;&gt;Node14</title>
<g id="a_edge30_Node000022_Node000014"><a xlink:title=" ">
<path fill="none" stroke="#63b8ff" d="M455,-109.95C470.51,-102.49 491.42,-90.31 504.68,-74 515.26,-61 521.49,-42.85 524.94,-29.29"/>
<polygon fill="#63b8ff" stroke="#63b8ff" points="528.44,-29.7 527.22,-19.18 521.61,-28.16 528.44,-29.7"/>
</a>
</g>
</g>
<!-- Node22&#45;&gt;Node18 -->
<g id="edge33_Node000022_Node000018" class="edge">
<title>Node22&#45;&gt;Node18</title>
<g id="a_edge33_Node000022_Node000018"><a xlink:title=" ">
<path fill="none" stroke="#63b8ff" d="M434.68,-109.75C434.68,-102.8 434.68,-92.85 434.68,-84.13"/>
<polygon fill="#63b8ff" stroke="#63b8ff" points="438.18,-84.09 434.68,-74.09 431.18,-84.09 438.18,-84.09"/>
</a>
</g>
</g>
</g>
</svg>
