<?xml version="1.0" encoding="UTF-8" standalone="no"?>
<!DOCTYPE svg PUBLIC "-//W3C//DTD SVG 1.1//EN"
 "http://www.w3.org/Graphics/SVG/1.1/DTD/svg11.dtd">
<!-- Generated by graphviz version 2.43.0 (0)
 -->
<!-- Title: /home/user/project/test/test_exec/meshpartitioning/testMeshPartitioningLib.h Pages: 1 -->
<svg width="338pt" height="128pt"
 viewBox="0.00 0.00 338.00 128.00" xmlns="http://www.w3.org/2000/svg" xmlns:xlink="http://www.w3.org/1999/xlink">
<g id="graph0" class="graph" transform="scale(1 1) rotate(0) translate(4 124)">
<title>/home/user/project/test/test_exec/meshpartitioning/testMeshPartitioningLib.h</title>
<!-- Node1 -->
<g id="node1" class="node">
<title>Node1</title>
<g id="a_node1"><a xlink:title=" ">
<polygon fill="#bfbfbf" stroke="black" points="87,-78.5 87,-119.5 243,-119.5 243,-78.5 87,-78.5"/>
<text text-anchor="start" x="95" y="-107.5" font-family="Arial" font-size="10.00">/home/user/project</text>
<text text-anchor="start" x="95" y="-96.5" font-family="Arial" font-size="10.00">/test/test_exec/meshpartitioning</text>
<text text-anchor="middle" x="165" y="-85.5" font-family="Arial" font-size="10.00">/testMeshPartitioningLib.h</text>
</a>
</g>
</g>
<!-- Node2 -->
<g id="node2" class="node">
<title>Node2</title>
<g id="a_node2"><a xlink:href="testMeshPartitioning_8cpp.html" target="_top" xlink:title=" ">
<polygon fill="none" stroke="black" points="0,-0.5 0,-41.5 156,-41.5 156,-0.5 0,-0.5"/>
<text text-anchor="start" x="8" y="-29.5" font-family="Arial" font-size="10.00">/home/user/project</text>
<text text-anchor="start" x="8" y="-18.5" font-family="Arial" font-size="10.00">/test/test_exec/meshpartitioning</text>
<text text-anchor="middle" x="78" y="-7.5" font-family="Arial" font-size="10.00">/testMeshPartitioning.cpp</text>
</a>
</g>
</g>
<!-- Node1&#45;&gt;Node2 -->
<g id="edge1" class="edge">
<title>Node1&#45;&gt;Node2</title>
<path fill="none" stroke="midnightblue" d="M134.98,-71.78C123.61,-61.84 110.87,-50.72 100.33,-41.51"/>
<polygon fill="midnightblue" stroke="midnightblue" points="132.76,-74.49 142.6,-78.43 137.37,-69.21 132.76,-74.49"/>
</g>
<!-- Node3 -->
<g id="node3" class="node">
<title>Node3</title>
<g id="a_node3"><a xlink:href="testMeshPartitioningLib_8cpp.html" target="_top" xlink:title=" ">
<polygon fill="none" stroke="black" points="174,-0.5 174,-41.5 330,-41.5 330,-0.5 174,-0.5"/>
<text text-anchor="start" x="182" y="-29.5" font-family="Arial" font-size="10.00">/home/user/project</text>
<text text-anchor="start" x="182" y="-18.5" font-family="Arial" font-size="10.00">/test/test_exec/meshpartitioning</text>
<text text-anchor="middle" x="252" y="-7.5" font-family="Arial" font-size="10.00">/testMeshPartitioningLib.cpp</text>
</a>
</g>
</g>
<!-- Node1&#45;&gt;Node3 -->
<g id="edge2" class="edge">
<title>Node1&#45;&gt;Node3</title>
<path fill="none" stroke="midnightblue" d="M195.02,-71.78C206.39,-61.84 219.13,-50.72 229.67,-41.51"/>
<polygon fill="midnightblue" stroke="midnightblue" points="192.63,-69.21 187.4,-78.43 197.24,-74.49 192.63,-69.21"/>
</g>
</g>
</svg>
