<?xml version="1.0" encoding="UTF-8" standalone="no"?>
<!DOCTYPE svg PUBLIC "-//W3C//DTD SVG 1.1//EN"
 "http://www.w3.org/Graphics/SVG/1.1/DTD/svg11.dtd">
<!-- Generated by graphviz version 2.43.0 (0)
 -->
<!-- Title: /home/user/project/src/fe/tetElem.cpp Pages: 1 -->
<svg width="425pt" height="368pt"
 viewBox="0.00 0.00 425.00 368.00" xmlns="http://www.w3.org/2000/svg" xmlns:xlink="http://www.w3.org/1999/xlink">
<g id="graph0" class="graph" transform="scale(1 1) rotate(0) translate(4 364)">
<title>/home/user/project/src/fe/tetElem.cpp</title>
<!-- Node1 -->
<g id="Node000001" class="node">
<title>Node1</title>
<g id="a_Node000001"><a xlink:title=" ">
<polygon fill="#999999" stroke="#666666" points="235,-360 135,-360 135,-330 235,-330 235,-360"/>
<text text-anchor="start" x="143" y="-348" font-family="Arial" font-size="10.00">/home/user/project</text>
<text text-anchor="middle" x="185" y="-337" font-family="Arial" font-size="10.00">/src/fe/tetElem.cpp</text>
</a>
</g>
</g>
<!-- Node2 -->
<g id="Node000002" class="node">
<title>Node2</title>
<g id="a_Node000002"><a xlink:href="tetElem_8h.html" target="_top" xlink:title=" ">
<polygon fill="white" stroke="#666666" points="171.5,-294 112.5,-294 112.5,-275 171.5,-275 171.5,-294"/>
<text text-anchor="middle" x="142" y="-282" font-family="Arial" font-size="10.00">tetElem.h</text>
</a>
</g>
</g>
<!-- Node1&#45;&gt;Node2 -->
<g id="edge1_Node000001_Node000002" class="edge">
<title>Node1&#45;&gt;Node2</title>
<g id="a_edge1_Node000001_Node000002"><a xlink:title=" ">
<path fill="none" stroke="#63b8ff" d="M174.59,-329.84C168.54,-321.61 160.88,-311.18 154.5,-302.51"/>
<polygon fill="#63b8ff" stroke="#63b8ff" points="157.19,-300.25 148.44,-294.27 151.55,-304.4 157.19,-300.25"/>
</a>
</g>
</g>
<!-- Node5 -->
<g id="Node000005" class="node">
<title>Node5</title>
<g id="a_Node000005"><a xlink:href="io_8h.html" target="_top" xlink:title=" ">
<polygon fill="#fff0f0" stroke="red" points="86,-129 38,-129 38,-110 86,-110 86,-129"/>
<text text-anchor="middle" x="62" y="-117" font-family="Arial" font-size="10.00">util/io.h</text>
</a>
</g>
</g>
<!-- Node1&#45;&gt;Node5 -->
<g id="edge19_Node000001_Node000005" class="edge">
<title>Node1&#45;&gt;Node5</title>
<g id="a_edge19_Node000001_Node000005"><a xlink:title=" ">
<path fill="none" stroke="#63b8ff" d="M149.75,-329.84C133.56,-321.64 115.45,-309.78 104,-294 69.32,-246.2 63,-173.44 62.03,-139.36"/>
<polygon fill="#63b8ff" stroke="#63b8ff" points="65.53,-138.96 61.88,-129.02 58.53,-139.07 65.53,-138.96"/>
</a>
</g>
</g>
<!-- Node10 -->
<g id="Node000010" class="node">
<title>Node10</title>
<g id="a_Node000010"><a xlink:title=" ">
<polygon fill="#e0e0e0" stroke="#999999" points="65,-19 11,-19 11,0 65,0 65,-19"/>
<text text-anchor="middle" x="38" y="-7" font-family="Arial" font-size="10.00">iostream</text>
</a>
</g>
</g>
<!-- Node1&#45;&gt;Node10 -->
<g id="edge18_Node000001_Node000010" class="edge">
<title>Node1&#45;&gt;Node10</title>
<g id="a_edge18_Node000001_Node000010"><a xlink:title=" ">
<path fill="none" stroke="#63b8ff" d="M134.94,-335.54C80.15,-323.07 0,-293.99 0,-230.5 0,-230.5 0,-230.5 0,-118.5 0,-85.02 16.45,-48.84 27.7,-28.01"/>
<polygon fill="#63b8ff" stroke="#63b8ff" points="30.87,-29.53 32.72,-19.1 24.76,-26.1 30.87,-29.53"/>
</a>
</g>
</g>
<!-- Node18 -->
<g id="Node000018" class="node">
<title>Node18</title>
<g id="a_Node000018"><a xlink:href="function_8h.html" target="_top" xlink:title=" ">
<polygon fill="white" stroke="#666666" points="331.5,-129 256.5,-129 256.5,-110 331.5,-110 331.5,-129"/>
<text text-anchor="middle" x="294" y="-117" font-family="Arial" font-size="10.00">util/function.h</text>
</a>
</g>
</g>
<!-- Node1&#45;&gt;Node18 -->
<g id="edge13_Node000001_Node000018" class="edge">
<title>Node1&#45;&gt;Node18</title>
<g id="a_edge13_Node000001_Node000018"><a xlink:title=" ">
<path fill="none" stroke="#63b8ff" d="M198.54,-329.93C216.17,-310.85 246.76,-275.01 264,-239 279.83,-205.94 287.96,-163.54 291.57,-139.46"/>
<polygon fill="#63b8ff" stroke="#63b8ff" points="295.08,-139.62 292.99,-129.23 288.15,-138.65 295.08,-139.62"/>
</a>
</g>
</g>
<!-- Node19 -->
<g id="Node000019" class="node">
<title>Node19</title>
<g id="a_Node000019"><a xlink:href="matrix_8h.html" target="_top" xlink:title=" ">
<polygon fill="white" stroke="#666666" points="255,-239 187,-239 187,-220 255,-220 255,-239"/>
<text text-anchor="middle" x="221" y="-227" font-family="Arial" font-size="10.00">util/matrix.h</text>
</a>
</g>
</g>
<!-- Node1&#45;&gt;Node19 -->
<g id="edge16_Node000001_Node000019" class="edge">
<title>Node1&#45;&gt;Node19</title>
<g id="a_edge16_Node000001_Node000019"><a xlink:title=" ">
<path fill="none" stroke="#63b8ff" d="M189.56,-329.63C196.06,-309.12 208.01,-271.47 215.15,-248.93"/>
<polygon fill="#63b8ff" stroke="#63b8ff" points="218.54,-249.82 218.23,-239.23 211.87,-247.7 218.54,-249.82"/>
</a>
</g>
</g>
<!-- Node20 -->
<g id="Node000020" class="node">
<title>Node20</title>
<g id="a_Node000020"><a xlink:href="feElementDefs_8h.html" target="_top" xlink:title=" ">
<polygon fill="white" stroke="#666666" points="417,-294 311,-294 311,-275 417,-275 417,-294"/>
<text text-anchor="middle" x="364" y="-282" font-family="Arial" font-size="10.00">util/feElementDefs.h</text>
</a>
</g>
</g>
<!-- Node1&#45;&gt;Node20 -->
<g id="edge20_Node000001_Node000020" class="edge">
<title>Node1&#45;&gt;Node20</title>
<g id="a_edge20_Node000001_Node000020"><a xlink:title=" ">
<path fill="none" stroke="#63b8ff" d="M227.87,-329.99C258.5,-319.98 299.23,-306.67 328.13,-297.22"/>
<polygon fill="#63b8ff" stroke="#63b8ff" points="329.41,-300.49 337.83,-294.05 327.23,-293.83 329.41,-300.49"/>
</a>
</g>
</g>
<!-- Node3 -->
<g id="Node000003" class="node">
<title>Node3</title>
<g id="a_Node000003"><a xlink:href="baseElem_8h.html" target="_top" xlink:title=" ">
<polygon fill="white" stroke="#666666" points="169,-239 101,-239 101,-220 169,-220 169,-239"/>
<text text-anchor="middle" x="135" y="-227" font-family="Arial" font-size="10.00">baseElem.h</text>
</a>
</g>
</g>
<!-- Node2&#45;&gt;Node3 -->
<g id="edge2_Node000002_Node000003" class="edge">
<title>Node2&#45;&gt;Node3</title>
<g id="a_edge2_Node000002_Node000003"><a xlink:title=" ">
<path fill="none" stroke="#63b8ff" d="M140.84,-274.75C139.93,-267.8 138.61,-257.85 137.46,-249.13"/>
<polygon fill="#63b8ff" stroke="#63b8ff" points="140.91,-248.54 136.13,-239.09 133.97,-249.46 140.91,-248.54"/>
</a>
</g>
</g>
<!-- Node4 -->
<g id="Node000004" class="node">
<title>Node4</title>
<g id="a_Node000004"><a xlink:href="quadData_8h.html" target="_top" xlink:title=" ">
<polygon fill="white" stroke="#666666" points="160.5,-184 93.5,-184 93.5,-165 160.5,-165 160.5,-184"/>
<text text-anchor="middle" x="127" y="-172" font-family="Arial" font-size="10.00">quadData.h</text>
</a>
</g>
</g>
<!-- Node3&#45;&gt;Node4 -->
<g id="edge3_Node000003_Node000004" class="edge">
<title>Node3&#45;&gt;Node4</title>
<g id="a_edge3_Node000003_Node000004"><a xlink:title=" ">
<path fill="none" stroke="#63b8ff" d="M133.68,-219.75C132.63,-212.8 131.13,-202.85 129.81,-194.13"/>
<polygon fill="#63b8ff" stroke="#63b8ff" points="133.25,-193.45 128.3,-184.09 126.33,-194.5 133.25,-193.45"/>
</a>
</g>
</g>
<!-- Node6 -->
<g id="Node000006" class="node">
<title>Node6</title>
<g id="a_Node000006"><a xlink:href="point_8h.html" target="_top" xlink:title=" ">
<polygon fill="#fff0f0" stroke="red" points="188,-74 142,-74 142,-55 188,-55 188,-74"/>
<text text-anchor="middle" x="165" y="-62" font-family="Arial" font-size="10.00">point.h</text>
</a>
</g>
</g>
<!-- Node3&#45;&gt;Node6 -->
<g id="edge12_Node000003_Node000006" class="edge">
<title>Node3&#45;&gt;Node6</title>
<g id="a_edge12_Node000003_Node000006"><a xlink:title=" ">
<path fill="none" stroke="#63b8ff" d="M144.88,-219.75C153.39,-211.5 165.05,-198.3 170,-184 181.69,-150.24 175.23,-107.8 169.86,-83.96"/>
<polygon fill="#63b8ff" stroke="#63b8ff" points="173.24,-83.03 167.47,-74.14 166.44,-84.69 173.24,-83.03"/>
</a>
</g>
</g>
<!-- Node4&#45;&gt;Node5 -->
<g id="edge4_Node000004_Node000005" class="edge">
<title>Node4&#45;&gt;Node5</title>
<g id="a_edge4_Node000004_Node000005"><a xlink:title=" ">
<path fill="none" stroke="#63b8ff" d="M116.56,-164.98C106.85,-157.07 92.18,-145.11 80.5,-135.58"/>
<polygon fill="#63b8ff" stroke="#63b8ff" points="82.6,-132.78 72.63,-129.17 78.17,-138.2 82.6,-132.78"/>
</a>
</g>
</g>
<!-- Node4&#45;&gt;Node6 -->
<g id="edge10_Node000004_Node000006" class="edge">
<title>Node4&#45;&gt;Node6</title>
<g id="a_edge10_Node000004_Node000006"><a xlink:title=" ">
<path fill="none" stroke="#63b8ff" d="M130.11,-164.66C136.32,-147.01 150.37,-107.09 158.62,-83.64"/>
<polygon fill="#63b8ff" stroke="#63b8ff" points="161.94,-84.75 161.95,-74.16 155.33,-82.43 161.94,-84.75"/>
</a>
</g>
</g>
<!-- Node11 -->
<g id="Node000011" class="node">
<title>Node11</title>
<g id="a_Node000011"><a xlink:title=" ">
<polygon fill="#e0e0e0" stroke="#999999" points="161,-19 117,-19 117,0 161,0 161,-19"/>
<text text-anchor="middle" x="139" y="-7" font-family="Arial" font-size="10.00">vector</text>
</a>
</g>
</g>
<!-- Node4&#45;&gt;Node11 -->
<g id="edge11_Node000004_Node000011" class="edge">
<title>Node4&#45;&gt;Node11</title>
<g id="a_edge11_Node000004_Node000011"><a xlink:title=" ">
<path fill="none" stroke="#63b8ff" d="M127.19,-164.86C127.68,-145.27 129.2,-96.02 133,-55 133.79,-46.45 135.01,-37.03 136.15,-29.06"/>
<polygon fill="#63b8ff" stroke="#63b8ff" points="139.63,-29.41 137.64,-19.01 132.71,-28.38 139.63,-29.41"/>
</a>
</g>
</g>
<!-- Node5&#45;&gt;Node6 -->
<g id="edge5_Node000005_Node000006" class="edge">
<title>Node5&#45;&gt;Node6</title>
<g id="a_edge5_Node000005_Node000006"><a xlink:title=" ">
<path fill="none" stroke="#63b8ff" d="M78.55,-109.98C94.89,-101.57 120.13,-88.59 139.13,-78.81"/>
<polygon fill="#63b8ff" stroke="#63b8ff" points="140.86,-81.86 148.15,-74.17 137.66,-75.63 140.86,-81.86"/>
</a>
</g>
</g>
<!-- Node5&#45;&gt;Node10 -->
<g id="edge8_Node000005_Node000010" class="edge">
<title>Node5&#45;&gt;Node10</title>
<g id="a_edge8_Node000005_Node000010"><a xlink:title=" ">
<path fill="none" stroke="#63b8ff" d="M60.04,-109.66C56.13,-92.09 47.32,-52.45 42.1,-28.95"/>
<polygon fill="#63b8ff" stroke="#63b8ff" points="45.51,-28.16 39.92,-19.16 38.68,-29.68 45.51,-28.16"/>
</a>
</g>
</g>
<!-- Node5&#45;&gt;Node11 -->
<g id="edge9_Node000005_Node000011" class="edge">
<title>Node5&#45;&gt;Node11</title>
<g id="a_edge9_Node000005_Node000011"><a xlink:title=" ">
<path fill="none" stroke="#63b8ff" d="M66.46,-109.98C73.13,-97.49 86.39,-73.69 100,-55 107.17,-45.16 116.05,-34.89 123.54,-26.71"/>
<polygon fill="#63b8ff" stroke="#63b8ff" points="126.18,-29.01 130.43,-19.3 121.05,-24.23 126.18,-29.01"/>
</a>
</g>
</g>
<!-- Node6&#45;&gt;Node10 -->
<g id="edge6_Node000006_Node000010" class="edge">
<title>Node6&#45;&gt;Node10</title>
<g id="a_edge6_Node000006_Node000010"><a xlink:title=" ">
<path fill="none" stroke="#63b8ff" d="M144.6,-54.98C123.98,-46.38 91.89,-32.99 68.31,-23.15"/>
<polygon fill="#63b8ff" stroke="#63b8ff" points="69.35,-19.79 58.78,-19.17 66.66,-26.25 69.35,-19.79"/>
</a>
</g>
</g>
<!-- Node6&#45;&gt;Node11 -->
<g id="edge7_Node000006_Node000011" class="edge">
<title>Node6&#45;&gt;Node11</title>
<g id="a_edge7_Node000006_Node000011"><a xlink:title=" ">
<path fill="none" stroke="#63b8ff" d="M160.71,-54.75C157.19,-47.57 152.09,-37.18 147.72,-28.27"/>
<polygon fill="#63b8ff" stroke="#63b8ff" points="150.76,-26.53 143.21,-19.09 144.48,-29.61 150.76,-26.53"/>
</a>
</g>
</g>
<!-- Node18&#45;&gt;Node6 -->
<g id="edge14_Node000018_Node000006" class="edge">
<title>Node18&#45;&gt;Node6</title>
<g id="a_edge14_Node000018_Node000006"><a xlink:title=" ">
<path fill="none" stroke="#63b8ff" d="M273.27,-109.98C252.24,-101.34 219.45,-87.87 195.46,-78.02"/>
<polygon fill="#63b8ff" stroke="#63b8ff" points="196.68,-74.73 186.1,-74.17 194.02,-81.21 196.68,-74.73"/>
</a>
</g>
</g>
<!-- Node18&#45;&gt;Node11 -->
<g id="edge15_Node000018_Node000011" class="edge">
<title>Node18&#45;&gt;Node11</title>
<g id="a_edge15_Node000018_Node000011"><a xlink:title=" ">
<path fill="none" stroke="#63b8ff" d="M281.58,-109.84C255.05,-91.36 192.62,-47.86 159.88,-25.05"/>
<polygon fill="#63b8ff" stroke="#63b8ff" points="161.69,-22.04 151.48,-19.2 157.69,-27.79 161.69,-22.04"/>
</a>
</g>
</g>
<!-- Node19&#45;&gt;Node6 -->
<g id="edge17_Node000019_Node000006" class="edge">
<title>Node19&#45;&gt;Node6</title>
<g id="a_edge17_Node000019_Node000006"><a xlink:title=" ">
<path fill="none" stroke="#63b8ff" d="M219.4,-219.95C215.54,-200.15 204.85,-149.79 189,-110 185.3,-100.72 180.15,-90.91 175.57,-82.86"/>
<polygon fill="#63b8ff" stroke="#63b8ff" points="178.49,-80.92 170.4,-74.08 172.46,-84.47 178.49,-80.92"/>
</a>
</g>
</g>
</g>
</svg>
