<?xml version="1.0" encoding="UTF-8" standalone="no"?>
<!DOCTYPE svg PUBLIC "-//W3C//DTD SVG 1.1//EN"
 "http://www.w3.org/Graphics/SVG/1.1/DTD/svg11.dtd">
<!-- Generated by graphviz version 2.43.0 (0)
 -->
<!-- Title: /home/user/project/src/util/transformation.h Pages: 1 -->
<svg width="1448pt" height="463pt"
 viewBox="0.00 0.00 1447.50 463.00" xmlns="http://www.w3.org/2000/svg" xmlns:xlink="http://www.w3.org/1999/xlink">
<g id="graph0" class="graph" transform="scale(1 1) rotate(0) translate(4 459)">
<title>/home/user/project/src/util/transformation.h</title>
<!-- Node1 -->
<g id="node1" class="node">
<title>Node1</title>
<g id="a_node1"><a xlink:title=" ">
<polygon fill="#bfbfbf" stroke="black" points="973.5,-424.5 973.5,-454.5 1095.5,-454.5 1095.5,-424.5 973.5,-424.5"/>
<text text-anchor="start" x="981.5" y="-442.5" font-family="Arial" font-size="10.00">/home/user/project</text>
<text text-anchor="middle" x="1034.5" y="-431.5" font-family="Arial" font-size="10.00">/src/util/transformation.h</text>
</a>
</g>
</g>
<!-- Node2 -->
<g id="node2" class="node">
<title>Node2</title>
<g id="a_node2"><a xlink:href="particleULoading_8cpp.html" target="_top" xlink:title=" ">
<polygon fill="none" stroke="black" points="0,-145.5 0,-175.5 161,-175.5 161,-145.5 0,-145.5"/>
<text text-anchor="start" x="8" y="-163.5" font-family="Arial" font-size="10.00">/home/user/project</text>
<text text-anchor="middle" x="80.5" y="-152.5" font-family="Arial" font-size="10.00">/src/loading/particleULoading.cpp</text>
</a>
</g>
</g>
<!-- Node1&#45;&gt;Node2 -->
<g id="edge1" class="edge">
<title>Node1&#45;&gt;Node2</title>
<path fill="none" stroke="midnightblue" d="M963.03,-433.05C884.86,-426.19 756.2,-412.26 647.5,-388 536.38,-363.2 509.64,-351.19 403.5,-310 291.59,-266.57 163.28,-203.41 108.09,-175.57"/>
<polygon fill="midnightblue" stroke="midnightblue" points="962.98,-436.56 973.25,-433.93 963.59,-429.58 962.98,-436.56"/>
</g>
<!-- Node3 -->
<g id="node3" class="node">
<title>Node3</title>
<g id="a_node3"><a xlink:href="refParticle_8h.html" target="_top" xlink:title=" ">
<polygon fill="none" stroke="black" points="750,-145.5 750,-175.5 873,-175.5 873,-145.5 750,-145.5"/>
<text text-anchor="start" x="758" y="-163.5" font-family="Arial" font-size="10.00">/home/user/project</text>
<text text-anchor="middle" x="811.5" y="-152.5" font-family="Arial" font-size="10.00">/src/particle/refParticle.h</text>
</a>
</g>
</g>
<!-- Node1&#45;&gt;Node3 -->
<g id="edge2" class="edge">
<title>Node1&#45;&gt;Node3</title>
<path fill="none" stroke="midnightblue" d="M963.35,-428.3C850.92,-410.53 640.59,-369.95 598.5,-310 551.94,-243.68 675.78,-197.28 753.68,-175.52"/>
<polygon fill="midnightblue" stroke="midnightblue" points="962.83,-431.76 973.25,-429.85 963.91,-424.85 962.83,-431.76"/>
</g>
<!-- Node5 -->
<g id="node5" class="node">
<title>Node5</title>
<g id="a_node5"><a xlink:href="particle_8h.html" target="_top" xlink:title=" ">
<polygon fill="none" stroke="black" points="848.5,-78.5 848.5,-108.5 958.5,-108.5 958.5,-78.5 848.5,-78.5"/>
<text text-anchor="start" x="856.5" y="-96.5" font-family="Arial" font-size="10.00">/home/user/project</text>
<text text-anchor="middle" x="903.5" y="-85.5" font-family="Arial" font-size="10.00">/src/particle/particle.h</text>
</a>
</g>
</g>
<!-- Node1&#45;&gt;Node5 -->
<g id="edge14" class="edge">
<title>Node1&#45;&gt;Node5</title>
<path fill="none" stroke="midnightblue" d="M1069.49,-419.01C1107.09,-395.21 1161.5,-351.14 1161.5,-295.5 1161.5,-295.5 1161.5,-295.5 1161.5,-226.5 1161.5,-136.06 1034.3,-107.55 958.53,-98.59"/>
<polygon fill="midnightblue" stroke="midnightblue" points="1067.5,-416.13 1060.81,-424.35 1071.17,-422.09 1067.5,-416.13"/>
</g>
<!-- Node12 -->
<g id="node12" class="node">
<title>Node12</title>
<g id="a_node12"><a xlink:href="geom_8cpp.html" target="_top" xlink:title=" ">
<polygon fill="none" stroke="black" points="985.5,-352 985.5,-382 1083.5,-382 1083.5,-352 985.5,-352"/>
<text text-anchor="start" x="993.5" y="-370" font-family="Arial" font-size="10.00">/home/user/project</text>
<text text-anchor="middle" x="1034.5" y="-359" font-family="Arial" font-size="10.00">/src/util/geom.cpp</text>
</a>
</g>
</g>
<!-- Node1&#45;&gt;Node12 -->
<g id="edge15" class="edge">
<title>Node1&#45;&gt;Node12</title>
<path fill="none" stroke="midnightblue" d="M1034.5,-414.23C1034.5,-403.57 1034.5,-391.41 1034.5,-382.25"/>
<polygon fill="midnightblue" stroke="midnightblue" points="1031,-414.23 1034.5,-424.23 1038,-414.23 1031,-414.23"/>
</g>
<!-- Node13 -->
<g id="node13" class="node">
<title>Node13</title>
<g id="a_node13"><a xlink:href="geomObjects_8h.html" target="_top" xlink:title=" ">
<polygon fill="none" stroke="black" points="823.5,-352 823.5,-382 941.5,-382 941.5,-352 823.5,-352"/>
<text text-anchor="start" x="831.5" y="-370" font-family="Arial" font-size="10.00">/home/user/project</text>
<text text-anchor="middle" x="882.5" y="-359" font-family="Arial" font-size="10.00">/src/util/geomObjects.h</text>
</a>
</g>
</g>
<!-- Node1&#45;&gt;Node13 -->
<g id="edge16" class="edge">
<title>Node1&#45;&gt;Node13</title>
<path fill="none" stroke="midnightblue" d="M995.02,-420.19C969.37,-408.29 936.44,-393.02 912.84,-382.07"/>
<polygon fill="midnightblue" stroke="midnightblue" points="993.56,-423.37 1004.11,-424.4 996.51,-417.02 993.56,-423.37"/>
</g>
<!-- Node33 -->
<g id="node24" class="node">
<title>Node33</title>
<g id="a_node24"><a xlink:href="transformation_8cpp.html" target="_top" xlink:title=" ">
<polygon fill="none" stroke="black" points="1190,-352 1190,-382 1323,-382 1323,-352 1190,-352"/>
<text text-anchor="start" x="1198" y="-370" font-family="Arial" font-size="10.00">/home/user/project</text>
<text text-anchor="middle" x="1256.5" y="-359" font-family="Arial" font-size="10.00">/src/util/transformation.cpp</text>
</a>
</g>
</g>
<!-- Node1&#45;&gt;Node33 -->
<g id="edge40" class="edge">
<title>Node1&#45;&gt;Node33</title>
<path fill="none" stroke="midnightblue" d="M1088.48,-421.36C1126.39,-409.32 1176.48,-393.41 1212.08,-382.11"/>
<polygon fill="midnightblue" stroke="midnightblue" points="1087.1,-418.12 1078.63,-424.49 1089.22,-424.8 1087.1,-418.12"/>
</g>
<!-- Node34 -->
<g id="node25" class="node">
<title>Node34</title>
<g id="a_node25"><a xlink:href="testUtilLib_8cpp.html" target="_top" xlink:title=" ">
<polygon fill="none" stroke="black" points="1341.5,-346.5 1341.5,-387.5 1439.5,-387.5 1439.5,-346.5 1341.5,-346.5"/>
<text text-anchor="start" x="1349.5" y="-375.5" font-family="Arial" font-size="10.00">/home/user/project</text>
<text text-anchor="start" x="1349.5" y="-364.5" font-family="Arial" font-size="10.00">/test/test_exec/util</text>
<text text-anchor="middle" x="1390.5" y="-353.5" font-family="Arial" font-size="10.00">/testUtilLib.cpp</text>
</a>
</g>
</g>
<!-- Node1&#45;&gt;Node34 -->
<g id="edge41" class="edge">
<title>Node1&#45;&gt;Node34</title>
<path fill="none" stroke="midnightblue" d="M1105.87,-429.76C1166.67,-421.52 1256.08,-407.51 1332.5,-388 1335.39,-387.26 1338.34,-386.45 1341.31,-385.58"/>
<polygon fill="midnightblue" stroke="midnightblue" points="1105.06,-426.34 1095.61,-431.13 1105.99,-433.28 1105.06,-426.34"/>
</g>
<!-- Node4 -->
<g id="node4" class="node">
<title>Node4</title>
<g id="a_node4"><a xlink:href="modelData_8cpp.html" target="_top" xlink:title=" ">
<polygon fill="none" stroke="black" points="697,-6 697,-36 828,-36 828,-6 697,-6"/>
<text text-anchor="start" x="705" y="-24" font-family="Arial" font-size="10.00">/home/user/project</text>
<text text-anchor="middle" x="762.5" y="-13" font-family="Arial" font-size="10.00">/src/model/modelData.cpp</text>
</a>
</g>
</g>
<!-- Node3&#45;&gt;Node4 -->
<g id="edge3" class="edge">
<title>Node3&#45;&gt;Node4</title>
<path fill="none" stroke="midnightblue" d="M806.72,-135.49C803.1,-119.03 797.55,-96.86 790.5,-78 785.02,-63.34 776.84,-47.45 770.74,-36.36"/>
<polygon fill="midnightblue" stroke="midnightblue" points="803.31,-136.32 808.81,-145.38 810.16,-134.87 803.31,-136.32"/>
</g>
<!-- Node3&#45;&gt;Node5 -->
<g id="edge4" class="edge">
<title>Node3&#45;&gt;Node5</title>
<path fill="none" stroke="midnightblue" d="M839.88,-139.45C854.03,-129.45 870.81,-117.6 883.58,-108.58"/>
<polygon fill="midnightblue" stroke="midnightblue" points="837.61,-136.77 831.46,-145.4 841.65,-142.48 837.61,-136.77"/>
</g>
<!-- Node8 -->
<g id="node8" class="node">
<title>Node8</title>
<g id="a_node8"><a xlink:href="vtkParticleReader_8cpp.html" target="_top" xlink:title=" ">
<polygon fill="none" stroke="black" points="532.5,-6 532.5,-36 678.5,-36 678.5,-6 532.5,-6"/>
<text text-anchor="start" x="540.5" y="-24" font-family="Arial" font-size="10.00">/home/user/project</text>
<text text-anchor="middle" x="605.5" y="-13" font-family="Arial" font-size="10.00">/src/rw/vtkParticleReader.cpp</text>
</a>
</g>
</g>
<!-- Node3&#45;&gt;Node8 -->
<g id="edge12" class="edge">
<title>Node3&#45;&gt;Node8</title>
<path fill="none" stroke="midnightblue" d="M801.07,-136.11C791.93,-117.99 777.04,-93.46 757.5,-78 740.9,-64.87 691.29,-47.82 653.21,-36"/>
<polygon fill="midnightblue" stroke="midnightblue" points="798.06,-137.92 805.56,-145.41 804.37,-134.88 798.06,-137.92"/>
</g>
<!-- Node9 -->
<g id="node9" class="node">
<title>Node9</title>
<g id="a_node9"><a xlink:href="vtkParticleWriter_8cpp.html" target="_top" xlink:title=" ">
<polygon fill="none" stroke="black" points="374.5,-6 374.5,-36 514.5,-36 514.5,-6 374.5,-6"/>
<text text-anchor="start" x="382.5" y="-24" font-family="Arial" font-size="10.00">/home/user/project</text>
<text text-anchor="middle" x="444.5" y="-13" font-family="Arial" font-size="10.00">/src/rw/vtkParticleWriter.cpp</text>
</a>
</g>
</g>
<!-- Node3&#45;&gt;Node9 -->
<g id="edge13" class="edge">
<title>Node3&#45;&gt;Node9</title>
<path fill="none" stroke="midnightblue" d="M739.54,-149.33C644.26,-135.74 487.59,-112.91 482.5,-109 459.25,-91.11 449.96,-56.04 446.46,-36.33"/>
<polygon fill="midnightblue" stroke="midnightblue" points="739.3,-152.83 749.7,-150.78 740.29,-145.9 739.3,-152.83"/>
</g>
<!-- Node11 -->
<g id="node11" class="node">
<title>Node11</title>
<g id="a_node11"><a xlink:href="refParticle_8cpp.html" target="_top" xlink:title=" ">
<polygon fill="none" stroke="black" points="614.5,-78.5 614.5,-108.5 748.5,-108.5 748.5,-78.5 614.5,-78.5"/>
<text text-anchor="start" x="622.5" y="-96.5" font-family="Arial" font-size="10.00">/home/user/project</text>
<text text-anchor="middle" x="681.5" y="-85.5" font-family="Arial" font-size="10.00">/src/particle/refParticle.cpp</text>
</a>
</g>
</g>
<!-- Node3&#45;&gt;Node11 -->
<g id="edge11" class="edge">
<title>Node3&#45;&gt;Node11</title>
<path fill="none" stroke="midnightblue" d="M774.21,-140.85C753.65,-130.58 728.55,-118.03 709.65,-108.58"/>
<polygon fill="midnightblue" stroke="midnightblue" points="772.78,-144.05 783.29,-145.4 775.91,-137.79 772.78,-144.05"/>
</g>
<!-- Node5&#45;&gt;Node4 -->
<g id="edge6" class="edge">
<title>Node5&#45;&gt;Node4</title>
<path fill="none" stroke="midnightblue" d="M866.25,-73.87C842.55,-62.02 812.34,-46.92 790.65,-36.07"/>
<polygon fill="midnightblue" stroke="midnightblue" points="864.8,-77.06 875.31,-78.4 867.93,-70.8 864.8,-77.06"/>
</g>
<!-- Node6 -->
<g id="node6" class="node">
<title>Node6</title>
<g id="a_node6"><a xlink:href="demModel_8cpp.html" target="_top" xlink:title=" ">
<polygon fill="none" stroke="black" points="1120,-6 1120,-36 1271,-36 1271,-6 1120,-6"/>
<text text-anchor="start" x="1128" y="-24" font-family="Arial" font-size="10.00">/home/user/project</text>
<text text-anchor="middle" x="1195.5" y="-13" font-family="Arial" font-size="10.00">/src/model/dem/demModel.cpp</text>
</a>
</g>
</g>
<!-- Node5&#45;&gt;Node6 -->
<g id="edge5" class="edge">
<title>Node5&#45;&gt;Node6</title>
<path fill="none" stroke="midnightblue" d="M968.62,-76.78C1019.22,-64.56 1088.75,-47.77 1137.46,-36.01"/>
<polygon fill="midnightblue" stroke="midnightblue" points="967.67,-73.41 958.77,-79.16 969.31,-80.21 967.67,-73.41"/>
</g>
<!-- Node7 -->
<g id="node7" class="node">
<title>Node7</title>
<g id="a_node7"><a xlink:href="particle_8cpp.html" target="_top" xlink:title=" ">
<polygon fill="none" stroke="black" points="846,-6 846,-36 967,-36 967,-6 846,-6"/>
<text text-anchor="start" x="854" y="-24" font-family="Arial" font-size="10.00">/home/user/project</text>
<text text-anchor="middle" x="906.5" y="-13" font-family="Arial" font-size="10.00">/src/particle/particle.cpp</text>
</a>
</g>
</g>
<!-- Node5&#45;&gt;Node7 -->
<g id="edge7" class="edge">
<title>Node5&#45;&gt;Node7</title>
<path fill="none" stroke="midnightblue" d="M904.53,-68.23C904.99,-57.57 905.5,-45.41 905.89,-36.25"/>
<polygon fill="midnightblue" stroke="midnightblue" points="901.04,-68.09 904.11,-78.23 908.03,-68.39 901.04,-68.09"/>
</g>
<!-- Node5&#45;&gt;Node8 -->
<g id="edge8" class="edge">
<title>Node5&#45;&gt;Node8</title>
<path fill="none" stroke="midnightblue" d="M838.67,-77.51C795.75,-67.55 738.24,-54.12 687.5,-42 679.52,-40.09 671.11,-38.06 662.83,-36.06"/>
<polygon fill="midnightblue" stroke="midnightblue" points="837.89,-80.93 848.42,-79.78 839.47,-74.11 837.89,-80.93"/>
</g>
<!-- Node5&#45;&gt;Node9 -->
<g id="edge9" class="edge">
<title>Node5&#45;&gt;Node9</title>
<path fill="none" stroke="midnightblue" d="M838.06,-86.13C762.05,-78.2 633.04,-63.07 523.5,-42 514.75,-40.32 505.52,-38.25 496.58,-36.09"/>
<polygon fill="midnightblue" stroke="midnightblue" points="838.12,-89.66 848.43,-87.2 838.84,-82.7 838.12,-89.66"/>
</g>
<!-- Node10 -->
<g id="node10" class="node">
<title>Node10</title>
<g id="a_node10"><a xlink:href="testParticleLib_8cpp.html" target="_top" xlink:title=" ">
<polygon fill="none" stroke="black" points="985.5,-0.5 985.5,-41.5 1101.5,-41.5 1101.5,-0.5 985.5,-0.5"/>
<text text-anchor="start" x="993.5" y="-29.5" font-family="Arial" font-size="10.00">/home/user/project</text>
<text text-anchor="start" x="993.5" y="-18.5" font-family="Arial" font-size="10.00">/test/test_exec/particle</text>
<text text-anchor="middle" x="1043.5" y="-7.5" font-family="Arial" font-size="10.00">/testParticleLib.cpp</text>
</a>
</g>
</g>
<!-- Node5&#45;&gt;Node10 -->
<g id="edge10" class="edge">
<title>Node5&#45;&gt;Node10</title>
<path fill="none" stroke="midnightblue" d="M940.52,-73.86C960.3,-63.9 984.64,-51.64 1004.68,-41.55"/>
<polygon fill="midnightblue" stroke="midnightblue" points="938.85,-70.78 931.49,-78.4 942,-77.03 938.85,-70.78"/>
</g>
<!-- Node13&#45;&gt;Node3 -->
<g id="edge37" class="edge">
<title>Node13&#45;&gt;Node3</title>
<path fill="none" stroke="midnightblue" d="M835.45,-347.04C819.86,-338.24 804.27,-326.08 795.5,-310 771.41,-265.84 793.02,-203.33 804.9,-175.64"/>
<polygon fill="midnightblue" stroke="midnightblue" points="834.09,-350.28 844.57,-351.85 837.35,-344.09 834.09,-350.28"/>
</g>
<!-- Node13&#45;&gt;Node5 -->
<g id="edge38" class="edge">
<title>Node13&#45;&gt;Node5</title>
<path fill="none" stroke="midnightblue" d="M902.12,-343.73C909.39,-334.05 916.76,-322.16 920.5,-310 942.99,-236.82 918.84,-143.42 908.1,-108.5"/>
<polygon fill="midnightblue" stroke="midnightblue" points="899.34,-341.6 895.86,-351.61 904.82,-345.96 899.34,-341.6"/>
</g>
<!-- Node13&#45;&gt;Node6 -->
<g id="edge36" class="edge">
<title>Node13&#45;&gt;Node6</title>
<path fill="none" stroke="midnightblue" d="M951.59,-350.4C1014.67,-335.87 1098.96,-315.64 1104.5,-310 1130.56,-283.46 1123.5,-265.69 1123.5,-228.5 1123.5,-228.5 1123.5,-228.5 1123.5,-159.5 1123.5,-109.65 1161.1,-60.04 1181.96,-36.36"/>
<polygon fill="midnightblue" stroke="midnightblue" points="950.62,-347.03 941.66,-352.68 952.19,-353.85 950.62,-347.03"/>
</g>
<!-- Node14 -->
<g id="node14" class="node">
<title>Node14</title>
<g id="a_node14"><a xlink:href="apps_2twop_2main_8cpp.html" target="_top" xlink:title=" ">
<polygon fill="none" stroke="black" points="804,-279.5 804,-309.5 911,-309.5 911,-279.5 804,-279.5"/>
<text text-anchor="start" x="812" y="-297.5" font-family="Arial" font-size="10.00">/home/user/project</text>
<text text-anchor="middle" x="857.5" y="-286.5" font-family="Arial" font-size="10.00">/apps/twop/main.cpp</text>
</a>
</g>
</g>
<!-- Node13&#45;&gt;Node14 -->
<g id="edge17" class="edge">
<title>Node13&#45;&gt;Node14</title>
<path fill="none" stroke="midnightblue" d="M874.01,-342.06C870.2,-331.32 865.84,-319.01 862.55,-309.75"/>
<polygon fill="midnightblue" stroke="midnightblue" points="870.8,-343.48 877.44,-351.73 877.4,-341.14 870.8,-343.48"/>
</g>
<!-- Node15 -->
<g id="node15" class="node">
<title>Node15</title>
<g id="a_node15"><a xlink:href="zoneDeck_8h.html" target="_top" xlink:title=" ">
<polygon fill="none" stroke="black" points="608,-279.5 608,-309.5 747,-309.5 747,-279.5 608,-279.5"/>
<text text-anchor="start" x="616" y="-297.5" font-family="Arial" font-size="10.00">/home/user/project</text>
<text text-anchor="middle" x="677.5" y="-286.5" font-family="Arial" font-size="10.00">/src/inp/pdecks/zoneDeck.h</text>
</a>
</g>
</g>
<!-- Node13&#45;&gt;Node15 -->
<g id="edge18" class="edge">
<title>Node13&#45;&gt;Node15</title>
<path fill="none" stroke="midnightblue" d="M831.96,-348.62C797,-336.6 751.08,-320.81 718.42,-309.57"/>
<polygon fill="midnightblue" stroke="midnightblue" points="830.91,-351.96 841.51,-351.9 833.19,-345.34 830.91,-351.96"/>
</g>
<!-- Node31 -->
<g id="node22" class="node">
<title>Node31</title>
<g id="a_node22"><a xlink:href="pBCData_8h.html" target="_top" xlink:title=" ">
<polygon fill="none" stroke="black" points="413,-279.5 413,-309.5 548,-309.5 548,-279.5 413,-279.5"/>
<text text-anchor="start" x="421" y="-297.5" font-family="Arial" font-size="10.00">/home/user/project</text>
<text text-anchor="middle" x="480.5" y="-286.5" font-family="Arial" font-size="10.00">/src/inp/pdecks/pBCData.h</text>
</a>
</g>
</g>
<!-- Node13&#45;&gt;Node31 -->
<g id="edge34" class="edge">
<title>Node13&#45;&gt;Node31</title>
<path fill="none" stroke="midnightblue" d="M812.99,-353.81C738.7,-340.78 621.69,-320.26 548.13,-307.36"/>
<polygon fill="midnightblue" stroke="midnightblue" points="812.73,-357.32 823.18,-355.6 813.94,-350.42 812.73,-357.32"/>
</g>
<!-- Node32 -->
<g id="node23" class="node">
<title>Node32</title>
<g id="a_node23"><a xlink:href="geomObjects_8cpp.html" target="_top" xlink:title=" ">
<polygon fill="none" stroke="black" points="967.5,-279.5 967.5,-309.5 1095.5,-309.5 1095.5,-279.5 967.5,-279.5"/>
<text text-anchor="start" x="975.5" y="-297.5" font-family="Arial" font-size="10.00">/home/user/project</text>
<text text-anchor="middle" x="1031.5" y="-286.5" font-family="Arial" font-size="10.00">/src/util/geomObjects.cpp</text>
</a>
</g>
</g>
<!-- Node13&#45;&gt;Node32 -->
<g id="edge39" class="edge">
<title>Node13&#45;&gt;Node32</title>
<path fill="none" stroke="midnightblue" d="M921.54,-347.53C946.63,-335.66 978.73,-320.47 1001.76,-309.57"/>
<polygon fill="midnightblue" stroke="midnightblue" points="919.84,-344.46 912.29,-351.9 922.83,-350.79 919.84,-344.46"/>
</g>
<!-- Node16 -->
<g id="node16" class="node">
<title>Node16</title>
<g id="a_node16"><a xlink:href="particleDeck_8h.html" target="_top" xlink:title=" ">
<polygon fill="none" stroke="black" points="403,-212.5 403,-242.5 552,-242.5 552,-212.5 403,-212.5"/>
<text text-anchor="start" x="411" y="-230.5" font-family="Arial" font-size="10.00">/home/user/project</text>
<text text-anchor="middle" x="477.5" y="-219.5" font-family="Arial" font-size="10.00">/src/inp/pdecks/particleDeck.h</text>
</a>
</g>
</g>
<!-- Node15&#45;&gt;Node16 -->
<g id="edge19" class="edge">
<title>Node15&#45;&gt;Node16</title>
<path fill="none" stroke="midnightblue" d="M624.35,-276.23C592,-265.71 551.19,-252.45 520.81,-242.58"/>
<polygon fill="midnightblue" stroke="midnightblue" points="623.51,-279.63 634.1,-279.4 625.67,-272.98 623.51,-279.63"/>
</g>
<!-- Node16&#45;&gt;Node2 -->
<g id="edge23" class="edge">
<title>Node16&#45;&gt;Node2</title>
<path fill="none" stroke="midnightblue" d="M392.93,-212.65C324.5,-201.45 228.74,-185.77 161.32,-174.73"/>
<polygon fill="midnightblue" stroke="midnightblue" points="392.39,-216.11 402.83,-214.27 393.52,-209.2 392.39,-216.11"/>
</g>
<!-- Node16&#45;&gt;Node3 -->
<g id="edge25" class="edge">
<title>Node16&#45;&gt;Node3</title>
<path fill="none" stroke="midnightblue" d="M559.57,-210.53C618.4,-199.08 696.4,-183.9 749.94,-173.48"/>
<polygon fill="midnightblue" stroke="midnightblue" points="558.71,-207.13 549.56,-212.48 560.05,-214 558.71,-207.13"/>
</g>
<!-- Node16&#45;&gt;Node5 -->
<g id="edge24" class="edge">
<title>Node16&#45;&gt;Node5</title>
<path fill="none" stroke="midnightblue" d="M562.24,-226.79C666.78,-225.36 836.35,-216.59 882.5,-176 901.7,-159.11 904.46,-127.23 904.29,-108.74"/>
<polygon fill="midnightblue" stroke="midnightblue" points="561.98,-223.3 552.02,-226.91 562.06,-230.3 561.98,-223.3"/>
</g>
<!-- Node16&#45;&gt;Node11 -->
<g id="edge26" class="edge">
<title>Node16&#45;&gt;Node11</title>
<path fill="none" stroke="midnightblue" d="M559.79,-210.53C622.12,-198.03 697.83,-181.83 702.5,-176 718.2,-156.38 703.33,-126.33 691.87,-108.73"/>
<polygon fill="midnightblue" stroke="midnightblue" points="559.04,-207.11 549.91,-212.5 560.41,-213.97 559.04,-207.11"/>
</g>
<!-- Node17 -->
<g id="node17" class="node">
<title>Node17</title>
<g id="a_node17"><a xlink:href="input_8cpp.html" target="_top" xlink:title=" ">
<polygon fill="none" stroke="black" points="255.5,-145.5 255.5,-175.5 353.5,-175.5 353.5,-145.5 255.5,-145.5"/>
<text text-anchor="start" x="263.5" y="-163.5" font-family="Arial" font-size="10.00">/home/user/project</text>
<text text-anchor="middle" x="304.5" y="-152.5" font-family="Arial" font-size="10.00">/src/inp/input.cpp</text>
</a>
</g>
</g>
<!-- Node16&#45;&gt;Node17 -->
<g id="edge20" class="edge">
<title>Node16&#45;&gt;Node17</title>
<path fill="none" stroke="midnightblue" d="M430.44,-208.82C402.63,-198.37 367.91,-185.32 341.97,-175.58"/>
<polygon fill="midnightblue" stroke="midnightblue" points="429.37,-212.16 439.96,-212.4 431.83,-205.6 429.37,-212.16"/>
</g>
<!-- Node18 -->
<g id="node18" class="node">
<title>Node18</title>
<g id="a_node18"><a xlink:href="particleLoading_8h.html" target="_top" xlink:title=" ">
<polygon fill="none" stroke="red" points="372,-145.5 372,-175.5 515,-175.5 515,-145.5 372,-145.5"/>
<text text-anchor="start" x="380" y="-163.5" font-family="Arial" font-size="10.00">/home/user/project</text>
<text text-anchor="middle" x="443.5" y="-152.5" font-family="Arial" font-size="10.00">/src/loading/particleLoading.h</text>
</a>
</g>
</g>
<!-- Node16&#45;&gt;Node18 -->
<g id="edge21" class="edge">
<title>Node16&#45;&gt;Node18</title>
<path fill="none" stroke="midnightblue" d="M465.36,-203.28C460.51,-194.02 455.09,-183.66 450.86,-175.58"/>
<polygon fill="midnightblue" stroke="midnightblue" points="462.39,-205.16 470.12,-212.4 468.59,-201.91 462.39,-205.16"/>
</g>
<!-- Node20 -->
<g id="node19" class="node">
<title>Node20</title>
<g id="a_node19"><a xlink:href="particleFLoading_8cpp.html" target="_top" xlink:title=" ">
<polygon fill="none" stroke="black" points="533.5,-145.5 533.5,-175.5 693.5,-175.5 693.5,-145.5 533.5,-145.5"/>
<text text-anchor="start" x="541.5" y="-163.5" font-family="Arial" font-size="10.00">/home/user/project</text>
<text text-anchor="middle" x="613.5" y="-152.5" font-family="Arial" font-size="10.00">/src/loading/particleFLoading.cpp</text>
</a>
</g>
</g>
<!-- Node16&#45;&gt;Node20 -->
<g id="edge22" class="edge">
<title>Node16&#45;&gt;Node20</title>
<path fill="none" stroke="midnightblue" d="M516.22,-207.99C537.78,-197.69 564.19,-185.07 584.05,-175.58"/>
<polygon fill="midnightblue" stroke="midnightblue" points="514.52,-204.93 507.01,-212.4 517.54,-211.24 514.52,-204.93"/>
</g>
<!-- Node29 -->
<g id="node20" class="node">
<title>Node29</title>
<g id="a_node20"><a xlink:href="wall_8h.html" target="_top" xlink:title=" ">
<polygon fill="none" stroke="black" points="491.5,-78.5 491.5,-108.5 589.5,-108.5 589.5,-78.5 491.5,-78.5"/>
<text text-anchor="start" x="499.5" y="-96.5" font-family="Arial" font-size="10.00">/home/user/project</text>
<text text-anchor="middle" x="540.5" y="-85.5" font-family="Arial" font-size="10.00">/src/particle/wall.h</text>
</a>
</g>
</g>
<!-- Node16&#45;&gt;Node29 -->
<g id="edge27" class="edge">
<title>Node16&#45;&gt;Node29</title>
<path fill="none" stroke="midnightblue" d="M392.88,-223.22C309.73,-216.9 201.4,-198.51 246.5,-145 277.25,-108.52 416.03,-98.39 491.41,-95.58"/>
<polygon fill="midnightblue" stroke="midnightblue" points="392.66,-226.71 402.88,-223.93 393.15,-219.73 392.66,-226.71"/>
</g>
<!-- Node27 -->
<g id="node21" class="node">
<title>Node27</title>
<g id="a_node21"><a xlink:href="wall_8cpp.html" target="_top" xlink:title=" ">
<polygon fill="none" stroke="black" points="181,-6 181,-36 288,-36 288,-6 181,-6"/>
<text text-anchor="start" x="189" y="-24" font-family="Arial" font-size="10.00">/home/user/project</text>
<text text-anchor="middle" x="234.5" y="-13" font-family="Arial" font-size="10.00">/src/particle/wall.cpp</text>
</a>
</g>
</g>
<!-- Node16&#45;&gt;Node27 -->
<g id="edge33" class="edge">
<title>Node16&#45;&gt;Node27</title>
<path fill="none" stroke="midnightblue" d="M392.52,-220.23C330.02,-213.65 252.61,-200.68 232.5,-176 199.22,-135.17 218.35,-65.98 228.93,-36.26"/>
<polygon fill="midnightblue" stroke="midnightblue" points="392.5,-223.75 402.8,-221.27 393.21,-216.79 392.5,-223.75"/>
</g>
<!-- Node29&#45;&gt;Node4 -->
<g id="edge29" class="edge">
<title>Node29&#45;&gt;Node4</title>
<path fill="none" stroke="midnightblue" d="M594.48,-75.36C632.39,-63.32 682.48,-47.41 718.08,-36.11"/>
<polygon fill="midnightblue" stroke="midnightblue" points="593.1,-72.12 584.63,-78.49 595.22,-78.8 593.1,-72.12"/>
</g>
<!-- Node29&#45;&gt;Node6 -->
<g id="edge28" class="edge">
<title>Node29&#45;&gt;Node6</title>
<path fill="none" stroke="midnightblue" d="M599.64,-78.92C601.61,-78.59 603.57,-78.28 605.5,-78 828.14,-45.41 888.05,-75.88 1110.5,-42 1120.69,-40.45 1131.47,-38.31 1141.79,-36.01"/>
<polygon fill="midnightblue" stroke="midnightblue" points="598.9,-75.5 589.69,-80.72 600.15,-82.38 598.9,-75.5"/>
</g>
<!-- Node29&#45;&gt;Node8 -->
<g id="edge31" class="edge">
<title>Node29&#45;&gt;Node8</title>
<path fill="none" stroke="midnightblue" d="M560.45,-70.86C570.82,-59.61 583.21,-46.18 592.37,-36.25"/>
<polygon fill="midnightblue" stroke="midnightblue" points="557.86,-68.51 553.65,-78.23 563.01,-73.25 557.86,-68.51"/>
</g>
<!-- Node29&#45;&gt;Node9 -->
<g id="edge32" class="edge">
<title>Node29&#45;&gt;Node9</title>
<path fill="none" stroke="midnightblue" d="M512.73,-72.11C496.96,-60.53 477.63,-46.33 463.57,-36"/>
<polygon fill="midnightblue" stroke="midnightblue" points="510.94,-75.14 521.07,-78.23 515.08,-69.49 510.94,-75.14"/>
</g>
<!-- Node29&#45;&gt;Node27 -->
<g id="edge30" class="edge">
<title>Node29&#45;&gt;Node27</title>
<path fill="none" stroke="midnightblue" d="M481.57,-78.92C425.64,-66.04 342.3,-46.84 288.18,-34.37"/>
<polygon fill="midnightblue" stroke="midnightblue" points="480.81,-82.34 491.34,-81.17 482.38,-75.52 480.81,-82.34"/>
</g>
<!-- Node31&#45;&gt;Node16 -->
<g id="edge35" class="edge">
<title>Node31&#45;&gt;Node16</title>
<path fill="none" stroke="midnightblue" d="M479.39,-269.4C478.97,-260.37 478.51,-250.41 478.15,-242.58"/>
<polygon fill="midnightblue" stroke="midnightblue" points="475.89,-269.57 479.85,-279.4 482.88,-269.25 475.89,-269.57"/>
</g>
</g>
</svg>
