<?xml version="1.0" encoding="UTF-8" standalone="no"?>
<!DOCTYPE svg PUBLIC "-//W3C//DTD SVG 1.1//EN"
 "http://www.w3.org/Graphics/SVG/1.1/DTD/svg11.dtd">
<!-- Generated by graphviz version 2.43.0 (0)
 -->
<!-- Title: /home/user/project/src/rw/vtkParticleWriter.h Pages: 1 -->
<svg width="618pt" height="115pt"
 viewBox="0.00 0.00 618.00 115.00" xmlns="http://www.w3.org/2000/svg" xmlns:xlink="http://www.w3.org/1999/xlink">
<g id="graph0" class="graph" transform="scale(1 1) rotate(0) translate(4 111)">
<title>/home/user/project/src/rw/vtkParticleWriter.h</title>
<!-- Node1 -->
<g id="Node000001" class="node">
<title>Node1</title>
<g id="a_Node000001"><a xlink:title=" ">
<polygon fill="#999999" stroke="#666666" points="364,-107 234,-107 234,-77 364,-77 364,-107"/>
<text text-anchor="start" x="242" y="-95" font-family="Arial" font-size="10.00">/home/user/project</text>
<text text-anchor="middle" x="299" y="-84" font-family="Arial" font-size="10.00">/src/rw/vtkParticleWriter.h</text>
</a>
</g>
</g>
<!-- Node2 -->
<g id="Node000002" class="node">
<title>Node2</title>
<g id="a_Node000002"><a xlink:href="apps_2peridynamics_2main_8cpp.html" target="_top" xlink:title=" ">
<polygon fill="white" stroke="#666666" points="144,-35.5 0,-35.5 0,-5.5 144,-5.5 144,-35.5"/>
<text text-anchor="start" x="8" y="-23.5" font-family="Arial" font-size="10.00">/home/user/project</text>
<text text-anchor="middle" x="72" y="-12.5" font-family="Arial" font-size="10.00">/apps/peridynamics/main.cpp</text>
</a>
</g>
</g>
<!-- Node1&#45;&gt;Node2 -->
<g id="edge1_Node000001_Node000002" class="edge">
<title>Node1&#45;&gt;Node2</title>
<g id="a_edge1_Node000001_Node000002"><a xlink:title=" ">
<path fill="none" stroke="#63b8ff" d="M243.05,-73.87C204.53,-62.08 154,-46.61 117.87,-35.54"/>
<polygon fill="#63b8ff" stroke="#63b8ff" points="242.48,-77.35 253.06,-76.94 244.53,-70.66 242.48,-77.35"/>
</a>
</g>
</g>
<!-- Node3 -->
<g id="Node000003" class="node">
<title>Node3</title>
<g id="a_Node000003"><a xlink:href="apps_2twoparticle__demo_2main_8cpp.html" target="_top" xlink:title=" ">
<polygon fill="white" stroke="#666666" points="282,-41 162,-41 162,0 282,0 282,-41"/>
<text text-anchor="start" x="170" y="-29" font-family="Arial" font-size="10.00">/home/user/project</text>
<text text-anchor="start" x="170" y="-18" font-family="Arial" font-size="10.00">/apps/twoparticle_demo</text>
<text text-anchor="middle" x="222" y="-7" font-family="Arial" font-size="10.00">/main.cpp</text>
</a>
</g>
</g>
<!-- Node1&#45;&gt;Node3 -->
<g id="edge2_Node000001_Node000003" class="edge">
<title>Node1&#45;&gt;Node3</title>
<g id="a_edge2_Node000001_Node000003"><a xlink:title=" ">
<path fill="none" stroke="#63b8ff" d="M275.99,-70.23C265.75,-60.99 253.76,-50.17 243.69,-41.07"/>
<polygon fill="#63b8ff" stroke="#63b8ff" points="273.65,-72.83 283.42,-76.94 278.34,-67.64 273.65,-72.83"/>
</a>
</g>
</g>
<!-- Node4 -->
<g id="Node000004" class="node">
<title>Node4</title>
<g id="a_Node000004"><a xlink:href="demModel_8cpp.html" target="_top" xlink:title=" ">
<polygon fill="white" stroke="#666666" points="451.5,-35.5 300.5,-35.5 300.5,-5.5 451.5,-5.5 451.5,-35.5"/>
<text text-anchor="start" x="308.5" y="-23.5" font-family="Arial" font-size="10.00">/home/user/project</text>
<text text-anchor="middle" x="376" y="-12.5" font-family="Arial" font-size="10.00">/src/model/dem/demModel.cpp</text>
</a>
</g>
</g>
<!-- Node1&#45;&gt;Node4 -->
<g id="edge3_Node000001_Node000004" class="edge">
<title>Node1&#45;&gt;Node4</title>
<g id="a_edge3_Node000001_Node000004"><a xlink:title=" ">
<path fill="none" stroke="#63b8ff" d="M322.28,-69.99C334.64,-58.84 349.49,-45.43 360.44,-35.54"/>
<polygon fill="#63b8ff" stroke="#63b8ff" points="319.66,-67.64 314.58,-76.94 324.35,-72.83 319.66,-67.64"/>
</a>
</g>
</g>
<!-- Node5 -->
<g id="Node000005" class="node">
<title>Node5</title>
<g id="a_Node000005"><a xlink:href="vtkParticleWriter_8cpp.html" target="_top" xlink:title=" ">
<polygon fill="white" stroke="#666666" points="610,-35.5 470,-35.5 470,-5.5 610,-5.5 610,-35.5"/>
<text text-anchor="start" x="478" y="-23.5" font-family="Arial" font-size="10.00">/home/user/project</text>
<text text-anchor="middle" x="540" y="-12.5" font-family="Arial" font-size="10.00">/src/rw/vtkParticleWriter.cpp</text>
</a>
</g>
</g>
<!-- Node1&#45;&gt;Node5 -->
<g id="edge4_Node000001_Node000005" class="edge">
<title>Node1&#45;&gt;Node5</title>
<g id="a_edge4_Node000001_Node000005"><a xlink:title=" ">
<path fill="none" stroke="#63b8ff" d="M357.62,-74.09C398.61,-62.28 452.69,-46.68 491.3,-35.54"/>
<polygon fill="#63b8ff" stroke="#63b8ff" points="356.41,-70.8 347.77,-76.94 358.35,-77.53 356.41,-70.8"/>
</a>
</g>
</g>
</g>
</svg>
