<?xml version="1.0" encoding="UTF-8" standalone="no"?>
<!DOCTYPE svg PUBLIC "-//W3C//DTD SVG 1.1//EN"
 "http://www.w3.org/Graphics/SVG/1.1/DTD/svg11.dtd">
<!-- Generated by graphviz version 2.43.0 (0)
 -->
<!-- Title: /home/user/project/src/rw/vtkParticleReader.h Pages: 1 -->
<svg width="476pt" height="93pt"
 viewBox="0.00 0.00 475.50 93.00" xmlns="http://www.w3.org/2000/svg" xmlns:xlink="http://www.w3.org/1999/xlink">
<g id="graph0" class="graph" transform="scale(1 1) rotate(0) translate(4 89)">
<title>/home/user/project/src/rw/vtkParticleReader.h</title>
<!-- Node1 -->
<g id="Node000001" class="node">
<title>Node1</title>
<g id="a_Node000001"><a xlink:title=" ">
<polygon fill="#999999" stroke="#666666" points="235.5,-85 99.5,-85 99.5,-55 235.5,-55 235.5,-85"/>
<text text-anchor="start" x="107.5" y="-73" font-family="Arial" font-size="10.00">/home/user/project</text>
<text text-anchor="middle" x="167.5" y="-62" font-family="Arial" font-size="10.00">/src/rw/vtkParticleReader.h</text>
</a>
</g>
</g>
<!-- Node2 -->
<g id="Node000002" class="node">
<title>Node2</title>
<g id="a_Node000002"><a xlink:title=" ">
<polygon fill="#e0e0e0" stroke="#999999" points="41,-19 0,-19 0,0 41,0 41,-19"/>
<text text-anchor="middle" x="20.5" y="-7" font-family="Arial" font-size="10.00">string</text>
</a>
</g>
</g>
<!-- Node1&#45;&gt;Node2 -->
<g id="edge1_Node000001_Node000002" class="edge">
<title>Node1&#45;&gt;Node2</title>
<g id="a_edge1_Node000001_Node000002"><a xlink:title=" ">
<path fill="none" stroke="#63b8ff" d="M132.29,-54.99C107.47,-45.11 74.56,-32.01 50.88,-22.59"/>
<polygon fill="#63b8ff" stroke="#63b8ff" points="51.94,-19.24 41.35,-18.8 49.35,-25.75 51.94,-19.24"/>
</a>
</g>
</g>
<!-- Node3 -->
<g id="Node000003" class="node">
<title>Node3</title>
<g id="a_Node000003"><a xlink:title=" ">
<polygon fill="#e0e0e0" stroke="#999999" points="154,-19 59,-19 59,0 154,0 154,-19"/>
<text text-anchor="middle" x="106.5" y="-7" font-family="Arial" font-size="10.00">vtkSmartPointer.h</text>
</a>
</g>
</g>
<!-- Node1&#45;&gt;Node3 -->
<g id="edge2_Node000001_Node000003" class="edge">
<title>Node1&#45;&gt;Node3</title>
<g id="a_edge2_Node000001_Node000003"><a xlink:title=" ">
<path fill="none" stroke="#63b8ff" d="M152.73,-54.84C143.79,-46.26 132.36,-35.3 123.1,-26.42"/>
<polygon fill="#63b8ff" stroke="#63b8ff" points="125.28,-23.66 115.64,-19.27 120.44,-28.71 125.28,-23.66"/>
</a>
</g>
</g>
<!-- Node4 -->
<g id="Node000004" class="node">
<title>Node4</title>
<g id="a_Node000004"><a xlink:title=" ">
<polygon fill="#e0e0e0" stroke="#999999" points="285,-19 172,-19 172,0 285,0 285,-19"/>
<text text-anchor="middle" x="228.5" y="-7" font-family="Arial" font-size="10.00">vtkUnstructuredGrid.h</text>
</a>
</g>
</g>
<!-- Node1&#45;&gt;Node4 -->
<g id="edge3_Node000001_Node000004" class="edge">
<title>Node1&#45;&gt;Node4</title>
<g id="a_edge3_Node000001_Node000004"><a xlink:title=" ">
<path fill="none" stroke="#63b8ff" d="M182.27,-54.84C191.21,-46.26 202.64,-35.3 211.9,-26.42"/>
<polygon fill="#63b8ff" stroke="#63b8ff" points="214.56,-28.71 219.36,-19.27 209.72,-23.66 214.56,-28.71"/>
</a>
</g>
</g>
<!-- Node5 -->
<g id="Node000005" class="node">
<title>Node5</title>
<g id="a_Node000005"><a xlink:title=" ">
<polygon fill="#e0e0e0" stroke="#999999" points="467.5,-19 303.5,-19 303.5,0 467.5,0 467.5,-19"/>
<text text-anchor="middle" x="385.5" y="-7" font-family="Arial" font-size="10.00">vtkXMLUnstructuredGridReader.h</text>
</a>
</g>
</g>
<!-- Node1&#45;&gt;Node5 -->
<g id="edge4_Node000001_Node000005" class="edge">
<title>Node1&#45;&gt;Node5</title>
<g id="a_edge4_Node000001_Node000005"><a xlink:title=" ">
<path fill="none" stroke="#63b8ff" d="M219.72,-54.99C257.66,-44.8 308.35,-31.2 343.65,-21.73"/>
<polygon fill="#63b8ff" stroke="#63b8ff" points="344.87,-25.03 353.62,-19.05 343.06,-18.27 344.87,-25.03"/>
</a>
</g>
</g>
</g>
</svg>
