<?xml version="1.0" encoding="UTF-8" standalone="no"?>
<!DOCTYPE svg PUBLIC "-//W3C//DTD SVG 1.1//EN"
 "http://www.w3.org/Graphics/SVG/1.1/DTD/svg11.dtd">
<!-- Generated by graphviz version 2.43.0 (0)
 -->
<!-- Title: /home/user/project/src/rw/vtkReader.cpp Pages: 1 -->
<svg width="1902pt" height="263pt"
 viewBox="0.00 0.00 1901.50 263.00" xmlns="http://www.w3.org/2000/svg" xmlns:xlink="http://www.w3.org/1999/xlink">
<g id="graph0" class="graph" transform="scale(1 1) rotate(0) translate(4 259)">
<title>/home/user/project/src/rw/vtkReader.cpp</title>
<!-- Node1 -->
<g id="node1" class="node">
<title>Node1</title>
<g id="a_node1"><a xlink:title=" ">
<polygon fill="#bfbfbf" stroke="black" points="1090,-224.5 1090,-254.5 1203,-254.5 1203,-224.5 1090,-224.5"/>
<text text-anchor="start" x="1098" y="-242.5" font-family="Arial" font-size="10.00">/home/user/project</text>
<text text-anchor="middle" x="1146.5" y="-231.5" font-family="Arial" font-size="10.00">/src/rw/vtkReader.cpp</text>
</a>
</g>
</g>
<!-- Node2 -->
<g id="node2" class="node">
<title>Node2</title>
<g id="a_node2"><a xlink:href="vtkReader_8h.html" target="_top" xlink:title=" ">
<polygon fill="none" stroke="black" points="432.5,-168.5 432.5,-187.5 502.5,-187.5 502.5,-168.5 432.5,-168.5"/>
<text text-anchor="middle" x="467.5" y="-175.5" font-family="Arial" font-size="10.00">vtkReader.h</text>
</a>
</g>
</g>
<!-- Node1&#45;&gt;Node2 -->
<g id="edge1" class="edge">
<title>Node1&#45;&gt;Node2</title>
<path fill="none" stroke="midnightblue" d="M1089.78,-233.53C957.97,-221.98 633.16,-193.52 513.08,-182.99"/>
<polygon fill="midnightblue" stroke="midnightblue" points="513.05,-179.48 502.78,-182.09 512.44,-186.45 513.05,-179.48"/>
</g>
<!-- Node15 -->
<g id="node15" class="node">
<title>Node15</title>
<g id="a_node15"><a xlink:title=" ">
<polygon fill="none" stroke="#bfbfbf" points="644.5,-168.5 644.5,-187.5 742.5,-187.5 742.5,-168.5 644.5,-168.5"/>
<text text-anchor="middle" x="693.5" y="-175.5" font-family="Arial" font-size="10.00">vtkAbstractArray.h</text>
</a>
</g>
</g>
<!-- Node1&#45;&gt;Node15 -->
<g id="edge15" class="edge">
<title>Node1&#45;&gt;Node15</title>
<path fill="none" stroke="midnightblue" d="M1089.86,-231.74C1015.12,-222.72 879.21,-205.94 752.78,-188.15"/>
<polygon fill="midnightblue" stroke="midnightblue" points="752.93,-184.64 742.53,-186.7 751.95,-191.57 752.93,-184.64"/>
</g>
<!-- Node16 -->
<g id="node16" class="node">
<title>Node16</title>
<g id="a_node16"><a xlink:title=" ">
<polygon fill="none" stroke="#bfbfbf" points="760.5,-168.5 760.5,-187.5 838.5,-187.5 838.5,-168.5 760.5,-168.5"/>
<text text-anchor="middle" x="799.5" y="-175.5" font-family="Arial" font-size="10.00">vtkCellArray.h</text>
</a>
</g>
</g>
<!-- Node1&#45;&gt;Node16 -->
<g id="edge16" class="edge">
<title>Node1&#45;&gt;Node16</title>
<path fill="none" stroke="midnightblue" d="M1089.89,-229.14C1029.91,-219.18 932.47,-202.83 848.5,-188 848.4,-187.98 848.3,-187.96 848.2,-187.95"/>
<polygon fill="midnightblue" stroke="midnightblue" points="849,-184.53 838.54,-186.22 847.77,-191.43 849,-184.53"/>
</g>
<!-- Node17 -->
<g id="node17" class="node">
<title>Node17</title>
<g id="a_node17"><a xlink:title=" ">
<polygon fill="none" stroke="#bfbfbf" points="857,-168.5 857,-187.5 934,-187.5 934,-168.5 857,-168.5"/>
<text text-anchor="middle" x="895.5" y="-175.5" font-family="Arial" font-size="10.00">vtkCellData.h</text>
</a>
</g>
</g>
<!-- Node1&#45;&gt;Node17 -->
<g id="edge17" class="edge">
<title>Node1&#45;&gt;Node17</title>
<path fill="none" stroke="midnightblue" d="M1089.86,-225.07C1044.98,-214.43 983.08,-199.76 941.29,-189.86"/>
<polygon fill="midnightblue" stroke="midnightblue" points="941.92,-186.41 931.39,-187.51 940.31,-193.22 941.92,-186.41"/>
</g>
<!-- Node18 -->
<g id="node18" class="node">
<title>Node18</title>
<g id="a_node18"><a xlink:title=" ">
<polygon fill="none" stroke="#bfbfbf" points="952.5,-168.5 952.5,-187.5 1044.5,-187.5 1044.5,-168.5 952.5,-168.5"/>
<text text-anchor="middle" x="998.5" y="-175.5" font-family="Arial" font-size="10.00">vtkDoubleArray.h</text>
</a>
</g>
</g>
<!-- Node1&#45;&gt;Node18 -->
<g id="edge18" class="edge">
<title>Node1&#45;&gt;Node18</title>
<path fill="none" stroke="midnightblue" d="M1111.43,-224.4C1086.48,-214.37 1053.29,-201.03 1029.36,-191.4"/>
<polygon fill="midnightblue" stroke="midnightblue" points="1030.62,-188.14 1020.04,-187.66 1028.01,-194.64 1030.62,-188.14"/>
</g>
<!-- Node19 -->
<g id="node19" class="node">
<title>Node19</title>
<g id="a_node19"><a xlink:title=" ">
<polygon fill="none" stroke="#bfbfbf" points="1062.5,-168.5 1062.5,-187.5 1142.5,-187.5 1142.5,-168.5 1062.5,-168.5"/>
<text text-anchor="middle" x="1102.5" y="-175.5" font-family="Arial" font-size="10.00">vtkFieldData.h</text>
</a>
</g>
</g>
<!-- Node1&#45;&gt;Node19 -->
<g id="edge19" class="edge">
<title>Node1&#45;&gt;Node19</title>
<path fill="none" stroke="midnightblue" d="M1136.07,-224.4C1129.74,-215.84 1121.63,-204.87 1114.97,-195.86"/>
<polygon fill="midnightblue" stroke="midnightblue" points="1117.66,-193.62 1108.9,-187.66 1112.03,-197.78 1117.66,-193.62"/>
</g>
<!-- Node20 -->
<g id="node20" class="node">
<title>Node20</title>
<g id="a_node20"><a xlink:title=" ">
<polygon fill="none" stroke="#bfbfbf" points="1160.5,-168.5 1160.5,-187.5 1222.5,-187.5 1222.5,-168.5 1160.5,-168.5"/>
<text text-anchor="middle" x="1191.5" y="-175.5" font-family="Arial" font-size="10.00">vtkIdList.h</text>
</a>
</g>
</g>
<!-- Node1&#45;&gt;Node20 -->
<g id="edge20" class="edge">
<title>Node1&#45;&gt;Node20</title>
<path fill="none" stroke="midnightblue" d="M1157.16,-224.4C1163.64,-215.84 1171.93,-204.87 1178.75,-195.86"/>
<polygon fill="midnightblue" stroke="midnightblue" points="1181.71,-197.74 1184.95,-187.66 1176.13,-193.52 1181.71,-197.74"/>
</g>
<!-- Node21 -->
<g id="node21" class="node">
<title>Node21</title>
<g id="a_node21"><a xlink:title=" ">
<polygon fill="none" stroke="#bfbfbf" points="1240.5,-168.5 1240.5,-187.5 1312.5,-187.5 1312.5,-168.5 1240.5,-168.5"/>
<text text-anchor="middle" x="1276.5" y="-175.5" font-family="Arial" font-size="10.00">vtkIntArray.h</text>
</a>
</g>
</g>
<!-- Node1&#45;&gt;Node21 -->
<g id="edge21" class="edge">
<title>Node1&#45;&gt;Node21</title>
<path fill="none" stroke="midnightblue" d="M1177.31,-224.4C1198.83,-214.55 1227.34,-201.5 1248.27,-191.92"/>
<polygon fill="midnightblue" stroke="midnightblue" points="1249.95,-195 1257.58,-187.66 1247.03,-188.64 1249.95,-195"/>
</g>
<!-- Node22 -->
<g id="node22" class="node">
<title>Node22</title>
<g id="a_node22"><a xlink:title=" ">
<polygon fill="none" stroke="#bfbfbf" points="1330.5,-168.5 1330.5,-187.5 1412.5,-187.5 1412.5,-168.5 1330.5,-168.5"/>
<text text-anchor="middle" x="1371.5" y="-175.5" font-family="Arial" font-size="10.00">vtkPointData.h</text>
</a>
</g>
</g>
<!-- Node1&#45;&gt;Node22 -->
<g id="edge22" class="edge">
<title>Node1&#45;&gt;Node22</title>
<path fill="none" stroke="midnightblue" d="M1199.54,-224.47C1239.2,-213.99 1292.71,-199.84 1329.44,-190.12"/>
<polygon fill="midnightblue" stroke="midnightblue" points="1330.56,-193.45 1339.33,-187.51 1328.77,-186.68 1330.56,-193.45"/>
</g>
<!-- Node23 -->
<g id="node23" class="node">
<title>Node23</title>
<g id="a_node23"><a xlink:title=" ">
<polygon fill="none" stroke="#bfbfbf" points="1430.5,-168.5 1430.5,-187.5 1496.5,-187.5 1496.5,-168.5 1430.5,-168.5"/>
<text text-anchor="middle" x="1463.5" y="-175.5" font-family="Arial" font-size="10.00">vtkPoints.h</text>
</a>
</g>
</g>
<!-- Node1&#45;&gt;Node23 -->
<g id="edge23" class="edge">
<title>Node1&#45;&gt;Node23</title>
<path fill="none" stroke="midnightblue" d="M1203.21,-228.59C1256.71,-219.13 1339.39,-204.21 1420.2,-188.22"/>
<polygon fill="midnightblue" stroke="midnightblue" points="1420.92,-191.64 1430.05,-186.26 1419.56,-184.78 1420.92,-191.64"/>
</g>
<!-- Node24 -->
<g id="node24" class="node">
<title>Node24</title>
<g id="a_node24"><a xlink:title=" ">
<polygon fill="none" stroke="#bfbfbf" points="1515,-168.5 1515,-187.5 1638,-187.5 1638,-168.5 1515,-168.5"/>
<text text-anchor="middle" x="1576.5" y="-175.5" font-family="Arial" font-size="10.00">vtkUnsignedCharArray.h</text>
</a>
</g>
</g>
<!-- Node1&#45;&gt;Node24 -->
<g id="edge24" class="edge">
<title>Node1&#45;&gt;Node24</title>
<path fill="none" stroke="midnightblue" d="M1203.16,-230.66C1280.73,-219.93 1420.03,-200.65 1504.79,-188.92"/>
<polygon fill="midnightblue" stroke="midnightblue" points="1505.42,-192.37 1514.85,-187.53 1504.46,-185.43 1505.42,-192.37"/>
</g>
<!-- Node25 -->
<g id="node25" class="node">
<title>Node25</title>
<g id="a_node25"><a xlink:title=" ">
<polygon fill="none" stroke="#bfbfbf" points="1656,-168.5 1656,-187.5 1769,-187.5 1769,-168.5 1656,-168.5"/>
<text text-anchor="middle" x="1712.5" y="-175.5" font-family="Arial" font-size="10.00">vtkUnsignedIntArray.h</text>
</a>
</g>
</g>
<!-- Node1&#45;&gt;Node25 -->
<g id="edge25" class="edge">
<title>Node1&#45;&gt;Node25</title>
<path fill="none" stroke="midnightblue" d="M1203.3,-233.47C1294.46,-225.24 1479.3,-207.92 1645.86,-188.16"/>
<polygon fill="midnightblue" stroke="midnightblue" points="1646.28,-191.64 1655.8,-186.98 1645.45,-184.69 1646.28,-191.64"/>
</g>
<!-- Node26 -->
<g id="node26" class="node">
<title>Node26</title>
<g id="a_node26"><a xlink:href="feElementDefs_8h.html" target="_top" xlink:title=" ">
<polygon fill="none" stroke="black" points="1787.5,-168.5 1787.5,-187.5 1893.5,-187.5 1893.5,-168.5 1787.5,-168.5"/>
<text text-anchor="middle" x="1840.5" y="-175.5" font-family="Arial" font-size="10.00">util/feElementDefs.h</text>
</a>
</g>
</g>
<!-- Node1&#45;&gt;Node26 -->
<g id="edge26" class="edge">
<title>Node1&#45;&gt;Node26</title>
<path fill="none" stroke="midnightblue" d="M1203.27,-235.19C1312.4,-228.57 1559.22,-212.3 1777.39,-188.06"/>
<polygon fill="midnightblue" stroke="midnightblue" points="1777.88,-191.52 1787.43,-186.93 1777.1,-184.57 1777.88,-191.52"/>
</g>
<!-- Node27 -->
<g id="node27" class="node">
<title>Node27</title>
<g id="a_node27"><a xlink:href="io_8h.html" target="_top" xlink:title=" ">
<polygon fill="none" stroke="black" points="678.5,-112.5 678.5,-131.5 726.5,-131.5 726.5,-112.5 678.5,-112.5"/>
<text text-anchor="middle" x="702.5" y="-119.5" font-family="Arial" font-size="10.00">util/io.h</text>
</a>
</g>
</g>
<!-- Node1&#45;&gt;Node27 -->
<g id="edge27" class="edge">
<title>Node1&#45;&gt;Node27</title>
<path fill="none" stroke="midnightblue" d="M1089.57,-237.09C962.7,-233.37 665.54,-221.16 635.5,-188 618.42,-169.15 647.47,-148.98 672.5,-136.2"/>
<polygon fill="midnightblue" stroke="midnightblue" points="674.33,-139.2 681.79,-131.68 671.27,-132.9 674.33,-139.2"/>
</g>
<!-- Node3 -->
<g id="node3" class="node">
<title>Node3</title>
<g id="a_node3"><a xlink:title=" ">
<polygon fill="none" stroke="#bfbfbf" points="0,-112.5 0,-131.5 95,-131.5 95,-112.5 0,-112.5"/>
<text text-anchor="middle" x="47.5" y="-119.5" font-family="Arial" font-size="10.00">vtkSmartPointer.h</text>
</a>
</g>
</g>
<!-- Node2&#45;&gt;Node3 -->
<g id="edge2" class="edge">
<title>Node2&#45;&gt;Node3</title>
<path fill="none" stroke="midnightblue" d="M432.31,-173.08C368.98,-165.93 231.42,-149.98 105.36,-132.22"/>
<polygon fill="midnightblue" stroke="midnightblue" points="105.53,-128.71 95.14,-130.78 104.55,-135.65 105.53,-128.71"/>
</g>
<!-- Node4 -->
<g id="node4" class="node">
<title>Node4</title>
<g id="a_node4"><a xlink:title=" ">
<polygon fill="none" stroke="#bfbfbf" points="113,-112.5 113,-131.5 226,-131.5 226,-112.5 113,-112.5"/>
<text text-anchor="middle" x="169.5" y="-119.5" font-family="Arial" font-size="10.00">vtkUnstructuredGrid.h</text>
</a>
</g>
</g>
<!-- Node2&#45;&gt;Node4 -->
<g id="edge3" class="edge">
<title>Node2&#45;&gt;Node4</title>
<path fill="none" stroke="midnightblue" d="M432.44,-170.65C381.75,-161.46 287.43,-144.37 226.62,-133.35"/>
<polygon fill="midnightblue" stroke="midnightblue" points="226.88,-129.84 216.41,-131.5 225.63,-136.73 226.88,-129.84"/>
</g>
<!-- Node5 -->
<g id="node5" class="node">
<title>Node5</title>
<g id="a_node5"><a xlink:title=" ">
<polygon fill="none" stroke="#bfbfbf" points="244.5,-112.5 244.5,-131.5 408.5,-131.5 408.5,-112.5 244.5,-112.5"/>
<text text-anchor="middle" x="326.5" y="-119.5" font-family="Arial" font-size="10.00">vtkXMLUnstructuredGridReader.h</text>
</a>
</g>
</g>
<!-- Node2&#45;&gt;Node5 -->
<g id="edge4" class="edge">
<title>Node2&#45;&gt;Node5</title>
<path fill="none" stroke="midnightblue" d="M445.16,-168.44C421.75,-159.48 384.76,-145.31 358.31,-135.18"/>
<polygon fill="midnightblue" stroke="midnightblue" points="359.33,-131.82 348.74,-131.52 356.82,-138.36 359.33,-131.82"/>
</g>
<!-- Node6 -->
<g id="node6" class="node">
<title>Node6</title>
<g id="a_node6"><a xlink:href="point_8h.html" target="_top" xlink:title=" ">
<polygon fill="none" stroke="black" points="468.5,-56.5 468.5,-75.5 530.5,-75.5 530.5,-56.5 468.5,-56.5"/>
<text text-anchor="middle" x="499.5" y="-63.5" font-family="Arial" font-size="10.00">util/point.h</text>
</a>
</g>
</g>
<!-- Node2&#45;&gt;Node6 -->
<g id="edge5" class="edge">
<title>Node2&#45;&gt;Node6</title>
<path fill="none" stroke="midnightblue" d="M462.89,-168.27C456.8,-155.49 447.7,-131.13 455.5,-112 460.3,-100.23 469.83,-89.86 478.79,-82.05"/>
<polygon fill="midnightblue" stroke="midnightblue" points="481.15,-84.64 486.72,-75.63 476.75,-79.2 481.15,-84.64"/>
</g>
<!-- Node12 -->
<g id="node12" class="node">
<title>Node12</title>
<g id="a_node12"><a xlink:href="matrix_8h.html" target="_top" xlink:title=" ">
<polygon fill="none" stroke="black" points="464.5,-112.5 464.5,-131.5 532.5,-131.5 532.5,-112.5 464.5,-112.5"/>
<text text-anchor="middle" x="498.5" y="-119.5" font-family="Arial" font-size="10.00">util/matrix.h</text>
</a>
</g>
</g>
<!-- Node2&#45;&gt;Node12 -->
<g id="edge11" class="edge">
<title>Node2&#45;&gt;Node12</title>
<path fill="none" stroke="midnightblue" d="M472.62,-168.08C476.91,-160.61 483.16,-149.72 488.44,-140.52"/>
<polygon fill="midnightblue" stroke="midnightblue" points="491.53,-142.17 493.48,-131.75 485.46,-138.68 491.53,-142.17"/>
</g>
<!-- Node13 -->
<g id="node13" class="node">
<title>Node13</title>
<g id="a_node13"><a xlink:title=" ">
<polygon fill="none" stroke="#bfbfbf" points="550.5,-112.5 550.5,-131.5 596.5,-131.5 596.5,-112.5 550.5,-112.5"/>
<text text-anchor="middle" x="573.5" y="-119.5" font-family="Arial" font-size="10.00">cstdint</text>
</a>
</g>
</g>
<!-- Node2&#45;&gt;Node13 -->
<g id="edge13" class="edge">
<title>Node2&#45;&gt;Node13</title>
<path fill="none" stroke="midnightblue" d="M484.53,-168.32C501.53,-159.66 527.88,-146.24 547.49,-136.25"/>
<polygon fill="midnightblue" stroke="midnightblue" points="549.19,-139.31 556.51,-131.65 546.01,-133.08 549.19,-139.31"/>
</g>
<!-- Node14 -->
<g id="node14" class="node">
<title>Node14</title>
<g id="a_node14"><a xlink:title=" ">
<polygon fill="none" stroke="#bfbfbf" points="614.5,-112.5 614.5,-131.5 660.5,-131.5 660.5,-112.5 614.5,-112.5"/>
<text text-anchor="middle" x="637.5" y="-119.5" font-family="Arial" font-size="10.00">cstring</text>
</a>
</g>
</g>
<!-- Node2&#45;&gt;Node14 -->
<g id="edge14" class="edge">
<title>Node2&#45;&gt;Node14</title>
<path fill="none" stroke="midnightblue" d="M494.44,-168.44C524.26,-158.97 572.35,-143.7 604.43,-133.5"/>
<polygon fill="midnightblue" stroke="midnightblue" points="605.77,-136.75 614.24,-130.39 603.65,-130.08 605.77,-136.75"/>
</g>
<!-- Node7 -->
<g id="node7" class="node">
<title>Node7</title>
<g id="a_node7"><a xlink:title=" ">
<polygon fill="none" stroke="#bfbfbf" points="343.5,-0.5 343.5,-19.5 387.5,-19.5 387.5,-0.5 343.5,-0.5"/>
<text text-anchor="middle" x="365.5" y="-7.5" font-family="Arial" font-size="10.00">cmath</text>
</a>
</g>
</g>
<!-- Node6&#45;&gt;Node7 -->
<g id="edge6" class="edge">
<title>Node6&#45;&gt;Node7</title>
<path fill="none" stroke="midnightblue" d="M478.27,-56.44C456.12,-47.52 421.18,-33.44 396.06,-23.32"/>
<polygon fill="midnightblue" stroke="midnightblue" points="397.22,-20.01 386.63,-19.52 394.6,-26.5 397.22,-20.01"/>
</g>
<!-- Node8 -->
<g id="node8" class="node">
<title>Node8</title>
<g id="a_node8"><a xlink:title=" ">
<polygon fill="none" stroke="#bfbfbf" points="405.5,-0.5 405.5,-19.5 455.5,-19.5 455.5,-0.5 405.5,-0.5"/>
<text text-anchor="middle" x="430.5" y="-7.5" font-family="Arial" font-size="10.00">iomanip</text>
</a>
</g>
</g>
<!-- Node6&#45;&gt;Node8 -->
<g id="edge7" class="edge">
<title>Node6&#45;&gt;Node8</title>
<path fill="none" stroke="midnightblue" d="M488.41,-56.32C478.01,-48.18 462.24,-35.84 449.78,-26.09"/>
<polygon fill="midnightblue" stroke="midnightblue" points="451.82,-23.24 441.79,-19.83 447.51,-28.75 451.82,-23.24"/>
</g>
<!-- Node9 -->
<g id="node9" class="node">
<title>Node9</title>
<g id="a_node9"><a xlink:title=" ">
<polygon fill="none" stroke="#bfbfbf" points="473.5,-0.5 473.5,-19.5 525.5,-19.5 525.5,-0.5 473.5,-0.5"/>
<text text-anchor="middle" x="499.5" y="-7.5" font-family="Arial" font-size="10.00">sstream</text>
</a>
</g>
</g>
<!-- Node6&#45;&gt;Node9 -->
<g id="edge8" class="edge">
<title>Node6&#45;&gt;Node9</title>
<path fill="none" stroke="midnightblue" d="M499.5,-56.08C499.5,-49.01 499.5,-38.86 499.5,-29.99"/>
<polygon fill="midnightblue" stroke="midnightblue" points="503,-29.75 499.5,-19.75 496,-29.75 503,-29.75"/>
</g>
<!-- Node10 -->
<g id="node10" class="node">
<title>Node10</title>
<g id="a_node10"><a xlink:title=" ">
<polygon fill="none" stroke="#bfbfbf" points="543.5,-0.5 543.5,-19.5 597.5,-19.5 597.5,-0.5 543.5,-0.5"/>
<text text-anchor="middle" x="570.5" y="-7.5" font-family="Arial" font-size="10.00">iostream</text>
</a>
</g>
</g>
<!-- Node6&#45;&gt;Node10 -->
<g id="edge9" class="edge">
<title>Node6&#45;&gt;Node10</title>
<path fill="none" stroke="midnightblue" d="M510.91,-56.32C521.61,-48.18 537.84,-35.84 550.66,-26.09"/>
<polygon fill="midnightblue" stroke="midnightblue" points="553.04,-28.67 558.89,-19.83 548.81,-23.1 553.04,-28.67"/>
</g>
<!-- Node11 -->
<g id="node11" class="node">
<title>Node11</title>
<g id="a_node11"><a xlink:title=" ">
<polygon fill="none" stroke="#bfbfbf" points="615.5,-0.5 615.5,-19.5 659.5,-19.5 659.5,-0.5 615.5,-0.5"/>
<text text-anchor="middle" x="637.5" y="-7.5" font-family="Arial" font-size="10.00">vector</text>
</a>
</g>
</g>
<!-- Node6&#45;&gt;Node11 -->
<g id="edge10" class="edge">
<title>Node6&#45;&gt;Node11</title>
<path fill="none" stroke="midnightblue" d="M521.37,-56.44C544.28,-47.48 580.48,-33.31 606.37,-23.18"/>
<polygon fill="midnightblue" stroke="midnightblue" points="607.7,-26.42 615.74,-19.52 605.15,-19.9 607.7,-26.42"/>
</g>
<!-- Node12&#45;&gt;Node6 -->
<g id="edge12" class="edge">
<title>Node12&#45;&gt;Node6</title>
<path fill="none" stroke="midnightblue" d="M498.67,-112.08C498.8,-105.01 498.98,-94.86 499.15,-85.99"/>
<polygon fill="midnightblue" stroke="midnightblue" points="502.65,-85.81 499.34,-75.75 495.65,-85.68 502.65,-85.81"/>
</g>
<!-- Node27&#45;&gt;Node6 -->
<g id="edge28" class="edge">
<title>Node27&#45;&gt;Node6</title>
<path fill="none" stroke="midnightblue" d="M678.36,-114.39C675.37,-113.58 672.37,-112.77 669.5,-112 625.36,-100.14 574.7,-86.76 540.25,-77.69"/>
<polygon fill="midnightblue" stroke="midnightblue" points="541.1,-74.3 530.54,-75.14 539.32,-81.07 541.1,-74.3"/>
</g>
<!-- Node27&#45;&gt;Node10 -->
<g id="edge35" class="edge">
<title>Node27&#45;&gt;Node10</title>
<path fill="none" stroke="midnightblue" d="M690.78,-112.24C678.95,-103.32 660.22,-88.98 644.5,-76 624.66,-59.62 602.58,-40.04 587.74,-26.68"/>
<polygon fill="midnightblue" stroke="midnightblue" points="589.68,-23.71 579.92,-19.6 584.99,-28.91 589.68,-23.71"/>
</g>
<!-- Node27&#45;&gt;Node11 -->
<g id="edge36" class="edge">
<title>Node27&#45;&gt;Node11</title>
<path fill="none" stroke="midnightblue" d="M690.94,-112.2C680.78,-103.9 666.28,-90.58 657.5,-76 648.84,-61.62 643.63,-43.16 640.71,-29.59"/>
<polygon fill="midnightblue" stroke="midnightblue" points="644.1,-28.69 638.77,-19.54 637.23,-30.02 644.1,-28.69"/>
</g>
<!-- Node28 -->
<g id="node28" class="node">
<title>Node28</title>
<g id="a_node28"><a xlink:href="parallelUtil_8h.html" target="_top" xlink:title=" ">
<polygon fill="none" stroke="black" points="666,-56.5 666,-75.5 737,-75.5 737,-56.5 666,-56.5"/>
<text text-anchor="middle" x="701.5" y="-63.5" font-family="Arial" font-size="10.00">parallelUtil.h</text>
</a>
</g>
</g>
<!-- Node27&#45;&gt;Node28 -->
<g id="edge29" class="edge">
<title>Node27&#45;&gt;Node28</title>
<path fill="none" stroke="midnightblue" d="M702.33,-112.08C702.2,-105.01 702.02,-94.86 701.85,-85.99"/>
<polygon fill="midnightblue" stroke="midnightblue" points="705.35,-85.68 701.66,-75.75 698.35,-85.81 705.35,-85.68"/>
</g>
<!-- Node32 -->
<g id="node32" class="node">
<title>Node32</title>
<g id="a_node32"><a xlink:title=" ">
<polygon fill="none" stroke="#bfbfbf" points="755.5,-56.5 755.5,-75.5 805.5,-75.5 805.5,-56.5 755.5,-56.5"/>
<text text-anchor="middle" x="780.5" y="-63.5" font-family="Arial" font-size="10.00">fstream</text>
</a>
</g>
</g>
<!-- Node27&#45;&gt;Node32 -->
<g id="edge34" class="edge">
<title>Node27&#45;&gt;Node32</title>
<path fill="none" stroke="midnightblue" d="M715.03,-112.32C727.09,-103.98 745.53,-91.21 759.77,-81.35"/>
<polygon fill="midnightblue" stroke="midnightblue" points="761.77,-84.22 768,-75.65 757.78,-78.47 761.77,-84.22"/>
</g>
<!-- Node33 -->
<g id="node33" class="node">
<title>Node33</title>
<g id="a_node33"><a xlink:title=" ">
<polygon fill="none" stroke="#bfbfbf" points="823.5,-56.5 823.5,-75.5 879.5,-75.5 879.5,-56.5 823.5,-56.5"/>
<text text-anchor="middle" x="851.5" y="-63.5" font-family="Arial" font-size="10.00">algorithm</text>
</a>
</g>
</g>
<!-- Node27&#45;&gt;Node33 -->
<g id="edge37" class="edge">
<title>Node27&#45;&gt;Node33</title>
<path fill="none" stroke="midnightblue" d="M726.11,-112.44C750.96,-103.44 790.27,-89.19 818.25,-79.05"/>
<polygon fill="midnightblue" stroke="midnightblue" points="819.79,-82.21 828,-75.52 817.41,-75.63 819.79,-82.21"/>
</g>
<!-- Node28&#45;&gt;Node11 -->
<g id="edge32" class="edge">
<title>Node28&#45;&gt;Node11</title>
<path fill="none" stroke="midnightblue" d="M691.22,-56.32C681.66,-48.26 667.22,-36.08 655.72,-26.37"/>
<polygon fill="midnightblue" stroke="midnightblue" points="657.87,-23.61 647.97,-19.83 653.36,-28.96 657.87,-23.61"/>
</g>
<!-- Node29 -->
<g id="node29" class="node">
<title>Node29</title>
<g id="a_node29"><a xlink:title=" ">
<polygon fill="none" stroke="#bfbfbf" points="678,-0.5 678,-19.5 719,-19.5 719,-0.5 678,-0.5"/>
<text text-anchor="middle" x="698.5" y="-7.5" font-family="Arial" font-size="10.00">mpi.h</text>
</a>
</g>
</g>
<!-- Node28&#45;&gt;Node29 -->
<g id="edge30" class="edge">
<title>Node28&#45;&gt;Node29</title>
<path fill="none" stroke="midnightblue" d="M701,-56.08C700.61,-49.01 700.05,-38.86 699.55,-29.99"/>
<polygon fill="midnightblue" stroke="midnightblue" points="703.04,-29.54 698.99,-19.75 696.05,-29.93 703.04,-29.54"/>
</g>
<!-- Node30 -->
<g id="node30" class="node">
<title>Node30</title>
<g id="a_node30"><a xlink:title=" ">
<polygon fill="none" stroke="#bfbfbf" points="737,-0.5 737,-19.5 778,-19.5 778,-0.5 737,-0.5"/>
<text text-anchor="middle" x="757.5" y="-7.5" font-family="Arial" font-size="10.00">string</text>
</a>
</g>
</g>
<!-- Node28&#45;&gt;Node30 -->
<g id="edge31" class="edge">
<title>Node28&#45;&gt;Node30</title>
<path fill="none" stroke="midnightblue" d="M710.5,-56.32C718.69,-48.42 731.01,-36.55 740.97,-26.94"/>
<polygon fill="midnightblue" stroke="midnightblue" points="743.57,-29.29 748.34,-19.83 738.71,-24.26 743.57,-29.29"/>
</g>
<!-- Node31 -->
<g id="node31" class="node">
<title>Node31</title>
<g id="a_node31"><a xlink:title=" ">
<polygon fill="none" stroke="#bfbfbf" points="796.5,-0.5 796.5,-19.5 840.5,-19.5 840.5,-0.5 796.5,-0.5"/>
<text text-anchor="middle" x="818.5" y="-7.5" font-family="Arial" font-size="10.00">thread</text>
</a>
</g>
</g>
<!-- Node28&#45;&gt;Node31 -->
<g id="edge33" class="edge">
<title>Node28&#45;&gt;Node31</title>
<path fill="none" stroke="midnightblue" d="M720.04,-56.44C739.12,-47.64 769.07,-33.81 790.94,-23.72"/>
<polygon fill="midnightblue" stroke="midnightblue" points="792.43,-26.88 800.05,-19.52 789.5,-20.53 792.43,-26.88"/>
</g>
</g>
</svg>
