<?xml version="1.0" encoding="UTF-8" standalone="no"?>
<!DOCTYPE svg PUBLIC "-//W3C//DTD SVG 1.1//EN"
 "http://www.w3.org/Graphics/SVG/1.1/DTD/svg11.dtd">
<!-- Generated by graphviz version 2.43.0 (0)
 -->
<!-- Title: /home/user/project/src/rw/vtkWriter.h Pages: 1 -->
<svg width="630pt" height="207pt"
 viewBox="0.00 0.00 629.50 207.00" xmlns="http://www.w3.org/2000/svg" xmlns:xlink="http://www.w3.org/1999/xlink">
<g id="graph0" class="graph" transform="scale(1 1) rotate(0) translate(4 203)">
<title>/home/user/project/src/rw/vtkWriter.h</title>
<!-- Node1 -->
<g id="node1" class="node">
<title>Node1</title>
<g id="a_node1"><a xlink:title=" ">
<polygon fill="#bfbfbf" stroke="black" points="274.5,-168.5 274.5,-198.5 372.5,-198.5 372.5,-168.5 274.5,-168.5"/>
<text text-anchor="start" x="282.5" y="-186.5" font-family="Arial" font-size="10.00">/home/user/project</text>
<text text-anchor="middle" x="323.5" y="-175.5" font-family="Arial" font-size="10.00">/src/rw/vtkWriter.h</text>
</a>
</g>
</g>
<!-- Node2 -->
<g id="node2" class="node">
<title>Node2</title>
<g id="a_node2"><a xlink:title=" ">
<polygon fill="none" stroke="#bfbfbf" points="0,-112.5 0,-131.5 95,-131.5 95,-112.5 0,-112.5"/>
<text text-anchor="middle" x="47.5" y="-119.5" font-family="Arial" font-size="10.00">vtkSmartPointer.h</text>
</a>
</g>
</g>
<!-- Node1&#45;&gt;Node2 -->
<g id="edge1" class="edge">
<title>Node1&#45;&gt;Node2</title>
<path fill="none" stroke="midnightblue" d="M274.47,-171.93C224.48,-161.15 147.32,-144.52 97.11,-133.69"/>
<polygon fill="midnightblue" stroke="midnightblue" points="97.65,-130.23 87.13,-131.54 96.17,-137.07 97.65,-130.23"/>
</g>
<!-- Node3 -->
<g id="node3" class="node">
<title>Node3</title>
<g id="a_node3"><a xlink:title=" ">
<polygon fill="none" stroke="#bfbfbf" points="113,-112.5 113,-131.5 226,-131.5 226,-112.5 113,-112.5"/>
<text text-anchor="middle" x="169.5" y="-119.5" font-family="Arial" font-size="10.00">vtkUnstructuredGrid.h</text>
</a>
</g>
</g>
<!-- Node1&#45;&gt;Node3 -->
<g id="edge2" class="edge">
<title>Node1&#45;&gt;Node3</title>
<path fill="none" stroke="midnightblue" d="M287,-168.4C260.93,-158.33 226.21,-144.91 201.28,-135.28"/>
<polygon fill="midnightblue" stroke="midnightblue" points="202.5,-132 191.91,-131.66 199.97,-138.53 202.5,-132"/>
</g>
<!-- Node4 -->
<g id="node4" class="node">
<title>Node4</title>
<g id="a_node4"><a xlink:title=" ">
<polygon fill="none" stroke="#bfbfbf" points="244.5,-112.5 244.5,-131.5 402.5,-131.5 402.5,-112.5 244.5,-112.5"/>
<text text-anchor="middle" x="323.5" y="-119.5" font-family="Arial" font-size="10.00">vtkXMLUnstructuredGridWriter.h</text>
</a>
</g>
</g>
<!-- Node1&#45;&gt;Node4 -->
<g id="edge3" class="edge">
<title>Node1&#45;&gt;Node4</title>
<path fill="none" stroke="midnightblue" d="M323.5,-168.4C323.5,-160.47 323.5,-150.46 323.5,-141.86"/>
<polygon fill="midnightblue" stroke="midnightblue" points="327,-141.66 323.5,-131.66 320,-141.66 327,-141.66"/>
</g>
<!-- Node5 -->
<g id="node5" class="node">
<title>Node5</title>
<g id="a_node5"><a xlink:href="point_8h.html" target="_top" xlink:title=" ">
<polygon fill="none" stroke="black" points="430.5,-56.5 430.5,-75.5 492.5,-75.5 492.5,-56.5 430.5,-56.5"/>
<text text-anchor="middle" x="461.5" y="-63.5" font-family="Arial" font-size="10.00">util/point.h</text>
</a>
</g>
</g>
<!-- Node1&#45;&gt;Node5 -->
<g id="edge4" class="edge">
<title>Node1&#45;&gt;Node5</title>
<path fill="none" stroke="midnightblue" d="M354.77,-168.38C372.52,-159.46 394.52,-146.83 411.5,-132 427.36,-118.15 441.58,-98.61 450.76,-84.58"/>
<polygon fill="midnightblue" stroke="midnightblue" points="453.88,-86.2 456.27,-75.88 447.96,-82.45 453.88,-86.2"/>
</g>
<!-- Node11 -->
<g id="node11" class="node">
<title>Node11</title>
<g id="a_node11"><a xlink:href="matrix_8h.html" target="_top" xlink:title=" ">
<polygon fill="none" stroke="black" points="458.5,-112.5 458.5,-131.5 526.5,-131.5 526.5,-112.5 458.5,-112.5"/>
<text text-anchor="middle" x="492.5" y="-119.5" font-family="Arial" font-size="10.00">util/matrix.h</text>
</a>
</g>
</g>
<!-- Node1&#45;&gt;Node11 -->
<g id="edge10" class="edge">
<title>Node1&#45;&gt;Node11</title>
<path fill="none" stroke="midnightblue" d="M363.55,-168.4C392.41,-158.24 430.95,-144.67 458.35,-135.02"/>
<polygon fill="midnightblue" stroke="midnightblue" points="459.64,-138.28 467.91,-131.66 457.31,-131.68 459.64,-138.28"/>
</g>
<!-- Node6 -->
<g id="node6" class="node">
<title>Node6</title>
<g id="a_node6"><a xlink:title=" ">
<polygon fill="none" stroke="#bfbfbf" points="305.5,-0.5 305.5,-19.5 349.5,-19.5 349.5,-0.5 305.5,-0.5"/>
<text text-anchor="middle" x="327.5" y="-7.5" font-family="Arial" font-size="10.00">cmath</text>
</a>
</g>
</g>
<!-- Node5&#45;&gt;Node6 -->
<g id="edge5" class="edge">
<title>Node5&#45;&gt;Node6</title>
<path fill="none" stroke="midnightblue" d="M440.27,-56.44C418.12,-47.52 383.18,-33.44 358.06,-23.32"/>
<polygon fill="midnightblue" stroke="midnightblue" points="359.22,-20.01 348.63,-19.52 356.6,-26.5 359.22,-20.01"/>
</g>
<!-- Node7 -->
<g id="node7" class="node">
<title>Node7</title>
<g id="a_node7"><a xlink:title=" ">
<polygon fill="none" stroke="#bfbfbf" points="367.5,-0.5 367.5,-19.5 417.5,-19.5 417.5,-0.5 367.5,-0.5"/>
<text text-anchor="middle" x="392.5" y="-7.5" font-family="Arial" font-size="10.00">iomanip</text>
</a>
</g>
</g>
<!-- Node5&#45;&gt;Node7 -->
<g id="edge6" class="edge">
<title>Node5&#45;&gt;Node7</title>
<path fill="none" stroke="midnightblue" d="M450.41,-56.32C440.01,-48.18 424.24,-35.84 411.78,-26.09"/>
<polygon fill="midnightblue" stroke="midnightblue" points="413.82,-23.24 403.79,-19.83 409.51,-28.75 413.82,-23.24"/>
</g>
<!-- Node8 -->
<g id="node8" class="node">
<title>Node8</title>
<g id="a_node8"><a xlink:title=" ">
<polygon fill="none" stroke="#bfbfbf" points="435.5,-0.5 435.5,-19.5 487.5,-19.5 487.5,-0.5 435.5,-0.5"/>
<text text-anchor="middle" x="461.5" y="-7.5" font-family="Arial" font-size="10.00">sstream</text>
</a>
</g>
</g>
<!-- Node5&#45;&gt;Node8 -->
<g id="edge7" class="edge">
<title>Node5&#45;&gt;Node8</title>
<path fill="none" stroke="midnightblue" d="M461.5,-56.08C461.5,-49.01 461.5,-38.86 461.5,-29.99"/>
<polygon fill="midnightblue" stroke="midnightblue" points="465,-29.75 461.5,-19.75 458,-29.75 465,-29.75"/>
</g>
<!-- Node9 -->
<g id="node9" class="node">
<title>Node9</title>
<g id="a_node9"><a xlink:title=" ">
<polygon fill="none" stroke="#bfbfbf" points="505.5,-0.5 505.5,-19.5 559.5,-19.5 559.5,-0.5 505.5,-0.5"/>
<text text-anchor="middle" x="532.5" y="-7.5" font-family="Arial" font-size="10.00">iostream</text>
</a>
</g>
</g>
<!-- Node5&#45;&gt;Node9 -->
<g id="edge8" class="edge">
<title>Node5&#45;&gt;Node9</title>
<path fill="none" stroke="midnightblue" d="M472.91,-56.32C483.61,-48.18 499.84,-35.84 512.66,-26.09"/>
<polygon fill="midnightblue" stroke="midnightblue" points="515.04,-28.67 520.89,-19.83 510.81,-23.1 515.04,-28.67"/>
</g>
<!-- Node10 -->
<g id="node10" class="node">
<title>Node10</title>
<g id="a_node10"><a xlink:title=" ">
<polygon fill="none" stroke="#bfbfbf" points="577.5,-0.5 577.5,-19.5 621.5,-19.5 621.5,-0.5 577.5,-0.5"/>
<text text-anchor="middle" x="599.5" y="-7.5" font-family="Arial" font-size="10.00">vector</text>
</a>
</g>
</g>
<!-- Node5&#45;&gt;Node10 -->
<g id="edge9" class="edge">
<title>Node5&#45;&gt;Node10</title>
<path fill="none" stroke="midnightblue" d="M483.37,-56.44C506.28,-47.48 542.48,-33.31 568.37,-23.18"/>
<polygon fill="midnightblue" stroke="midnightblue" points="569.7,-26.42 577.74,-19.52 567.15,-19.9 569.7,-26.42"/>
</g>
<!-- Node11&#45;&gt;Node5 -->
<g id="edge11" class="edge">
<title>Node11&#45;&gt;Node5</title>
<path fill="none" stroke="midnightblue" d="M487.38,-112.08C483.09,-104.61 476.84,-93.72 471.56,-84.52"/>
<polygon fill="midnightblue" stroke="midnightblue" points="474.54,-82.68 466.52,-75.75 468.47,-86.17 474.54,-82.68"/>
</g>
</g>
</svg>
