<?xml version="1.0" encoding="UTF-8" standalone="no"?>
<!DOCTYPE svg PUBLIC "-//W3C//DTD SVG 1.1//EN"
 "http://www.w3.org/Graphics/SVG/1.1/DTD/svg11.dtd">
<!-- Generated by graphviz version 2.43.0 (0)
 -->
<!-- Title: /home/user/project/src/particle/wall.cpp Pages: 1 -->
<svg width="1864pt" height="498pt"
 viewBox="0.00 0.00 1863.50 498.00" xmlns="http://www.w3.org/2000/svg" xmlns:xlink="http://www.w3.org/1999/xlink">
<g id="graph0" class="graph" transform="scale(1 1) rotate(0) translate(4 494)">
<title>/home/user/project/src/particle/wall.cpp</title>
<!-- Node1 -->
<g id="node1" class="node">
<title>Node1</title>
<g id="a_node1"><a xlink:title=" ">
<polygon fill="#bfbfbf" stroke="black" points="1092.5,-459.5 1092.5,-489.5 1199.5,-489.5 1199.5,-459.5 1092.5,-459.5"/>
<text text-anchor="start" x="1100.5" y="-477.5" font-family="Arial" font-size="10.00">/home/user/project</text>
<text text-anchor="middle" x="1146" y="-466.5" font-family="Arial" font-size="10.00">/src/particle/wall.cpp</text>
</a>
</g>
</g>
<!-- Node2 -->
<g id="node2" class="node">
<title>Node2</title>
<g id="a_node2"><a xlink:href="wall_8h.html" target="_top" xlink:title=" ">
<polygon fill="none" stroke="black" points="1287,-403.5 1287,-422.5 1329,-422.5 1329,-403.5 1287,-403.5"/>
<text text-anchor="middle" x="1308" y="-410.5" font-family="Arial" font-size="10.00">wall.h</text>
</a>
</g>
</g>
<!-- Node1&#45;&gt;Node2 -->
<g id="edge1" class="edge">
<title>Node1&#45;&gt;Node2</title>
<path fill="none" stroke="midnightblue" d="M1184.39,-459.4C1212.77,-448.98 1250.89,-434.97 1277.26,-425.29"/>
<polygon fill="midnightblue" stroke="midnightblue" points="1278.57,-428.54 1286.75,-421.8 1276.16,-421.97 1278.57,-428.54"/>
</g>
<!-- Node6 -->
<g id="node6" class="node">
<title>Node6</title>
<g id="a_node6"><a xlink:href="io_8h.html" target="_top" xlink:title=" ">
<polygon fill="none" stroke="red" points="559,-112.5 559,-131.5 607,-131.5 607,-112.5 559,-112.5"/>
<text text-anchor="middle" x="583" y="-119.5" font-family="Arial" font-size="10.00">util/io.h</text>
</a>
</g>
</g>
<!-- Node1&#45;&gt;Node6 -->
<g id="edge77" class="edge">
<title>Node1&#45;&gt;Node6</title>
<path fill="none" stroke="midnightblue" d="M1092.33,-466.78C903.58,-441.87 276.1,-347.93 171,-188 125.8,-119.21 443.96,-145.37 548.92,-131.63"/>
<polygon fill="midnightblue" stroke="midnightblue" points="549.62,-135.07 558.96,-130.07 548.54,-128.15 549.62,-135.07"/>
</g>
<!-- Node27 -->
<g id="node18" class="node">
<title>Node27</title>
<g id="a_node18"><a xlink:href="particleDeck_8h.html" target="_top" xlink:title=" ">
<polygon fill="none" stroke="red" points="78,-112.5 78,-131.5 208,-131.5 208,-112.5 78,-112.5"/>
<text text-anchor="middle" x="143" y="-119.5" font-family="Arial" font-size="10.00">inp/pdecks/particleDeck.h</text>
</a>
</g>
</g>
<!-- Node1&#45;&gt;Node27 -->
<g id="edge73" class="edge">
<title>Node1&#45;&gt;Node27</title>
<path fill="none" stroke="midnightblue" d="M1092.45,-473.53C899.36,-472.42 243.25,-457.75 110,-311 66.03,-262.58 109.47,-177.08 131.68,-140.45"/>
<polygon fill="midnightblue" stroke="midnightblue" points="134.71,-142.2 137.05,-131.86 128.78,-138.49 134.71,-142.2"/>
</g>
<!-- Node45 -->
<g id="node26" class="node">
<title>Node45</title>
<g id="a_node26"><a xlink:href="mesh_8h.html" target="_top" xlink:title=" ">
<polygon fill="none" stroke="black" points="1604,-168.5 1604,-187.5 1664,-187.5 1664,-168.5 1604,-168.5"/>
<text text-anchor="middle" x="1634" y="-175.5" font-family="Arial" font-size="10.00">fe/mesh.h</text>
</a>
</g>
</g>
<!-- Node1&#45;&gt;Node45 -->
<g id="edge72" class="edge">
<title>Node1&#45;&gt;Node45</title>
<path fill="none" stroke="midnightblue" d="M1199.58,-463.66C1266.81,-449.65 1383.97,-419.62 1472,-367 1536.88,-328.21 1556.32,-316.69 1600,-255 1612.76,-236.98 1622.4,-213.41 1628.1,-197.32"/>
<polygon fill="midnightblue" stroke="midnightblue" points="1631.51,-198.14 1631.4,-187.54 1624.88,-195.9 1631.51,-198.14"/>
</g>
<!-- Node46 -->
<g id="node27" class="node">
<title>Node46</title>
<g id="a_node27"><a xlink:href="geom_8h.html" target="_top" xlink:title=" ">
<polygon fill="none" stroke="black" points="1790.5,-112.5 1790.5,-131.5 1855.5,-131.5 1855.5,-112.5 1790.5,-112.5"/>
<text text-anchor="middle" x="1823" y="-119.5" font-family="Arial" font-size="10.00">util/geom.h</text>
</a>
</g>
</g>
<!-- Node1&#45;&gt;Node46 -->
<g id="edge74" class="edge">
<title>Node1&#45;&gt;Node46</title>
<path fill="none" stroke="midnightblue" d="M1199.78,-469.91C1359,-458.56 1817,-420.5 1817,-358 1817,-358 1817,-358 1817,-238.5 1817,-204.32 1819.65,-164.52 1821.43,-141.69"/>
<polygon fill="midnightblue" stroke="midnightblue" points="1824.92,-141.93 1822.24,-131.69 1817.95,-141.37 1824.92,-141.93"/>
</g>
<!-- Node47 -->
<g id="node28" class="node">
<title>Node47</title>
<g id="a_node28"><a xlink:href="materialUtil_8h.html" target="_top" xlink:title=" ">
<polygon fill="none" stroke="black" points="625,-347.5 625,-366.5 737,-366.5 737,-347.5 625,-347.5"/>
<text text-anchor="middle" x="681" y="-354.5" font-family="Arial" font-size="10.00">material/materialUtil.h</text>
</a>
</g>
</g>
<!-- Node1&#45;&gt;Node47 -->
<g id="edge78" class="edge">
<title>Node1&#45;&gt;Node47</title>
<path fill="none" stroke="midnightblue" d="M1092.2,-460.14C999.39,-437.08 810.92,-390.27 725.21,-368.98"/>
<polygon fill="midnightblue" stroke="midnightblue" points="725.83,-365.53 715.28,-366.51 724.14,-372.32 725.83,-365.53"/>
</g>
<!-- Node3 -->
<g id="node3" class="node">
<title>Node3</title>
<g id="a_node3"><a xlink:href="modelData_8h.html" target="_top" xlink:title=" ">
<polygon fill="none" stroke="black" points="1198.5,-291.5 1198.5,-310.5 1299.5,-310.5 1299.5,-291.5 1198.5,-291.5"/>
<text text-anchor="middle" x="1249" y="-298.5" font-family="Arial" font-size="10.00">model/modelData.h</text>
</a>
</g>
</g>
<!-- Node2&#45;&gt;Node3 -->
<g id="edge2" class="edge">
<title>Node2&#45;&gt;Node3</title>
<path fill="none" stroke="midnightblue" d="M1303.37,-403.37C1293.72,-385.38 1271.29,-343.55 1258.45,-319.63"/>
<polygon fill="midnightblue" stroke="midnightblue" points="1261.42,-317.75 1253.61,-310.59 1255.25,-321.06 1261.42,-317.75"/>
</g>
<!-- Node12 -->
<g id="node8" class="node">
<title>Node12</title>
<g id="a_node8"><a xlink:title=" ">
<polygon fill="none" stroke="#bfbfbf" points="771,-0.5 771,-19.5 815,-19.5 815,-0.5 771,-0.5"/>
<text text-anchor="middle" x="793" y="-7.5" font-family="Arial" font-size="10.00">vector</text>
</a>
</g>
</g>
<!-- Node2&#45;&gt;Node12 -->
<g id="edge71" class="edge">
<title>Node2&#45;&gt;Node12</title>
<path fill="none" stroke="midnightblue" d="M1286.96,-411.7C1161.23,-409.84 507.8,-398.72 310,-367 150.9,-341.48 0,-340.13 0,-179 0,-179 0,-179 0,-121 0,-82.58 22.5,-72.92 57,-56 120.79,-24.72 627.37,-13.85 760.86,-11.52"/>
<polygon fill="midnightblue" stroke="midnightblue" points="760.92,-15.01 770.86,-11.34 760.8,-8.02 760.92,-15.01"/>
</g>
<!-- Node19 -->
<g id="node9" class="node">
<title>Node19</title>
<g id="a_node9"><a xlink:title=" ">
<polygon fill="none" stroke="#bfbfbf" points="1305,-112.5 1305,-131.5 1351,-131.5 1351,-112.5 1305,-112.5"/>
<text text-anchor="middle" x="1328" y="-119.5" font-family="Arial" font-size="10.00">cstring</text>
</a>
</g>
</g>
<!-- Node2&#45;&gt;Node19 -->
<g id="edge70" class="edge">
<title>Node2&#45;&gt;Node19</title>
<path fill="none" stroke="midnightblue" d="M1310.7,-403.26C1316.16,-384.77 1328,-340.24 1328,-302 1328,-302 1328,-302 1328,-238.5 1328,-204.36 1328,-164.55 1328,-141.71"/>
<polygon fill="midnightblue" stroke="midnightblue" points="1331.5,-141.69 1328,-131.69 1324.5,-141.69 1331.5,-141.69"/>
</g>
<!-- Node2&#45;&gt;Node27 -->
<g id="edge68" class="edge">
<title>Node2&#45;&gt;Node27</title>
<path fill="none" stroke="midnightblue" d="M1286.77,-411.2C1126.58,-404.99 114,-363.34 114,-302 114,-302 114,-302 114,-238.5 114,-203.14 126.94,-163.48 135.53,-141.05"/>
<polygon fill="midnightblue" stroke="midnightblue" points="138.88,-142.09 139.33,-131.51 132.38,-139.51 138.88,-142.09"/>
</g>
<!-- Node39 -->
<g id="node22" class="node">
<title>Node39</title>
<g id="a_node22"><a xlink:title=" ">
<polygon fill="none" stroke="#bfbfbf" points="1515,-112.5 1515,-131.5 1561,-131.5 1561,-112.5 1515,-112.5"/>
<text text-anchor="middle" x="1538" y="-119.5" font-family="Arial" font-size="10.00">cstdint</text>
</a>
</g>
</g>
<!-- Node2&#45;&gt;Node39 -->
<g id="edge69" class="edge">
<title>Node2&#45;&gt;Node39</title>
<path fill="none" stroke="midnightblue" d="M1329.22,-411.1C1414.79,-406.9 1730,-385.76 1730,-302 1730,-302 1730,-302 1730,-238.5 1730,-165.23 1626.06,-137.25 1571.13,-127.58"/>
<polygon fill="midnightblue" stroke="midnightblue" points="1571.6,-124.11 1561.16,-125.93 1570.45,-131.02 1571.6,-124.11"/>
</g>
<!-- Node44 -->
<g id="node25" class="node">
<title>Node44</title>
<g id="a_node25"><a xlink:href="baseParticle_8h.html" target="_top" xlink:title=" ">
<polygon fill="none" stroke="black" points="1356.5,-347.5 1356.5,-366.5 1435.5,-366.5 1435.5,-347.5 1356.5,-347.5"/>
<text text-anchor="middle" x="1396" y="-354.5" font-family="Arial" font-size="10.00">baseParticle.h</text>
</a>
</g>
</g>
<!-- Node2&#45;&gt;Node44 -->
<g id="edge57" class="edge">
<title>Node2&#45;&gt;Node44</title>
<path fill="none" stroke="midnightblue" d="M1322.14,-403.32C1335.87,-394.9 1356.94,-381.97 1373.06,-372.07"/>
<polygon fill="midnightblue" stroke="midnightblue" points="1375.2,-374.87 1381.9,-366.65 1371.54,-368.9 1375.2,-374.87"/>
</g>
<!-- Node2&#45;&gt;Node45 -->
<g id="edge63" class="edge">
<title>Node2&#45;&gt;Node45</title>
<path fill="none" stroke="midnightblue" d="M1329.25,-408.21C1357.35,-402.52 1407.65,-389.9 1445,-367 1523.56,-318.83 1594.26,-231.85 1621.79,-195.58"/>
<polygon fill="midnightblue" stroke="midnightblue" points="1624.65,-197.61 1627.84,-187.51 1619.04,-193.41 1624.65,-197.61"/>
</g>
<!-- Node4 -->
<g id="node4" class="node">
<title>Node4</title>
<g id="a_node4"><a xlink:href="material_8h.html" target="_top" xlink:title=" ">
<polygon fill="none" stroke="black" points="489,-224.5 489,-254.5 583,-254.5 583,-224.5 489,-224.5"/>
<text text-anchor="start" x="497" y="-242.5" font-family="Arial" font-size="10.00">material/mparticle</text>
<text text-anchor="middle" x="536" y="-231.5" font-family="Arial" font-size="10.00">/material.h</text>
</a>
</g>
</g>
<!-- Node3&#45;&gt;Node4 -->
<g id="edge3" class="edge">
<title>Node3&#45;&gt;Node4</title>
<path fill="none" stroke="midnightblue" d="M1198.29,-295.77C1069.31,-285 729.3,-256.63 593.36,-245.29"/>
<polygon fill="midnightblue" stroke="midnightblue" points="593.42,-241.78 583.16,-244.44 592.84,-248.76 593.42,-241.78"/>
</g>
<!-- Node3&#45;&gt;Node12 -->
<g id="edge56" class="edge">
<title>Node3&#45;&gt;Node12</title>
<path fill="none" stroke="midnightblue" d="M1299.72,-294.72C1418.38,-281.1 1701.95,-240.7 1673,-168 1637.72,-79.41 1582.72,-78.26 1490,-56 1361.23,-25.09 944.77,-14.16 825.31,-11.63"/>
<polygon fill="midnightblue" stroke="midnightblue" points="825.08,-8.12 815.01,-11.41 824.93,-15.12 825.08,-8.12"/>
</g>
<!-- Node3&#45;&gt;Node19 -->
<g id="edge55" class="edge">
<title>Node3&#45;&gt;Node19</title>
<path fill="none" stroke="midnightblue" d="M1252.81,-291.46C1264.98,-264.19 1303.1,-178.78 1319.91,-141.13"/>
<polygon fill="midnightblue" stroke="midnightblue" points="1323.16,-142.43 1324.04,-131.87 1316.77,-139.57 1323.16,-142.43"/>
</g>
<!-- Node24 -->
<g id="node15" class="node">
<title>Node24</title>
<g id="a_node15"><a xlink:href="input_8h.html" target="_top" xlink:title=" ">
<polygon fill="none" stroke="black" points="668,-168.5 668,-187.5 730,-187.5 730,-168.5 668,-168.5"/>
<text text-anchor="middle" x="699" y="-175.5" font-family="Arial" font-size="10.00">inp/input.h</text>
</a>
</g>
</g>
<!-- Node3&#45;&gt;Node24 -->
<g id="edge23" class="edge">
<title>Node3&#45;&gt;Node24</title>
<path fill="none" stroke="midnightblue" d="M1198.13,-299.28C1092.4,-297.13 852.66,-288.57 779,-255 750.2,-241.88 725.26,-214.04 711.18,-195.95"/>
<polygon fill="midnightblue" stroke="midnightblue" points="713.65,-193.4 704.85,-187.5 708.05,-197.6 713.65,-193.4"/>
</g>
<!-- Node25 -->
<g id="node16" class="node">
<title>Node25</title>
<g id="a_node16"><a xlink:href="particleFLoading_8h.html" target="_top" xlink:title=" ">
<polygon fill="none" stroke="black" points="788,-230 788,-249 918,-249 918,-230 788,-230"/>
<text text-anchor="middle" x="853" y="-237" font-family="Arial" font-size="10.00">loading/particleFLoading.h</text>
</a>
</g>
</g>
<!-- Node3&#45;&gt;Node25 -->
<g id="edge27" class="edge">
<title>Node3&#45;&gt;Node25</title>
<path fill="none" stroke="midnightblue" d="M1198.28,-293.71C1134.91,-285.67 1023.2,-270.86 928,-255 920.54,-253.76 912.69,-252.35 904.98,-250.91"/>
<polygon fill="midnightblue" stroke="midnightblue" points="905.46,-247.44 894.98,-249.01 904.15,-254.32 905.46,-247.44"/>
</g>
<!-- Node36 -->
<g id="node19" class="node">
<title>Node36</title>
<g id="a_node19"><a xlink:href="particleULoading_8h.html" target="_top" xlink:title=" ">
<polygon fill="none" stroke="black" points="936.5,-230 936.5,-249 1067.5,-249 1067.5,-230 936.5,-230"/>
<text text-anchor="middle" x="1002" y="-237" font-family="Arial" font-size="10.00">loading/particleULoading.h</text>
</a>
</g>
</g>
<!-- Node3&#45;&gt;Node36 -->
<g id="edge34" class="edge">
<title>Node3&#45;&gt;Node36</title>
<path fill="none" stroke="midnightblue" d="M1213.61,-291.48C1169.77,-280.92 1095.03,-262.91 1047.12,-251.37"/>
<polygon fill="midnightblue" stroke="midnightblue" points="1047.87,-247.95 1037.32,-249.01 1046.23,-254.75 1047.87,-247.95"/>
</g>
<!-- Node37 -->
<g id="node20" class="node">
<title>Node37</title>
<g id="a_node20"><a xlink:href="nsearch_8h.html" target="_top" xlink:title=" ">
<polygon fill="none" stroke="black" points="1085.5,-230 1085.5,-249 1182.5,-249 1182.5,-230 1085.5,-230"/>
<text text-anchor="middle" x="1134" y="-237" font-family="Arial" font-size="10.00">nsearch/nsearch.h</text>
</a>
</g>
</g>
<!-- Node3&#45;&gt;Node37 -->
<g id="edge37" class="edge">
<title>Node3&#45;&gt;Node37</title>
<path fill="none" stroke="midnightblue" d="M1232.52,-291.48C1213.39,-281.58 1181.63,-265.14 1159.35,-253.62"/>
<polygon fill="midnightblue" stroke="midnightblue" points="1160.94,-250.5 1150.45,-249.01 1157.72,-256.71 1160.94,-250.5"/>
</g>
<!-- Node3&#45;&gt;Node39 -->
<g id="edge54" class="edge">
<title>Node3&#45;&gt;Node39</title>
<path fill="none" stroke="midnightblue" d="M1289.98,-291.47C1345.24,-278.08 1443.86,-247.32 1506,-188 1519.34,-175.27 1527.9,-155.8 1532.77,-141.48"/>
<polygon fill="midnightblue" stroke="midnightblue" points="1536.18,-142.33 1535.8,-131.74 1529.49,-140.25 1536.18,-142.33"/>
</g>
<!-- Node43 -->
<g id="node24" class="node">
<title>Node43</title>
<g id="a_node24"><a xlink:href="fracture_8h.html" target="_top" xlink:title=" ">
<polygon fill="none" stroke="black" points="1160.5,-168.5 1160.5,-187.5 1261.5,-187.5 1261.5,-168.5 1160.5,-168.5"/>
<text text-anchor="middle" x="1211" y="-175.5" font-family="Arial" font-size="10.00">geometry/fracture.h</text>
</a>
</g>
</g>
<!-- Node3&#45;&gt;Node43 -->
<g id="edge49" class="edge">
<title>Node3&#45;&gt;Node43</title>
<path fill="none" stroke="midnightblue" d="M1246.27,-291.3C1240.1,-271.68 1225.02,-223.64 1216.71,-197.19"/>
<polygon fill="midnightblue" stroke="midnightblue" points="1220.04,-196.12 1213.71,-187.62 1213.37,-198.21 1220.04,-196.12"/>
</g>
<!-- Node5 -->
<g id="node5" class="node">
<title>Node5</title>
<g id="a_node5"><a xlink:href="influenceFn_8h.html" target="_top" xlink:title=" ">
<polygon fill="none" stroke="red" points="498.5,-168.5 498.5,-187.5 573.5,-187.5 573.5,-168.5 498.5,-168.5"/>
<text text-anchor="middle" x="536" y="-175.5" font-family="Arial" font-size="10.00">influenceFn.h</text>
</a>
</g>
</g>
<!-- Node4&#45;&gt;Node5 -->
<g id="edge4" class="edge">
<title>Node4&#45;&gt;Node5</title>
<path fill="none" stroke="midnightblue" d="M536,-224.4C536,-216.47 536,-206.46 536,-197.86"/>
<polygon fill="midnightblue" stroke="midnightblue" points="539.5,-197.66 536,-187.66 532.5,-197.66 539.5,-197.66"/>
</g>
<!-- Node7 -->
<g id="node7" class="node">
<title>Node7</title>
<g id="a_node7"><a xlink:href="point_8h.html" target="_top" xlink:title=" ">
<polygon fill="none" stroke="red" points="995,-56.5 995,-75.5 1041,-75.5 1041,-56.5 995,-56.5"/>
<text text-anchor="middle" x="1018" y="-63.5" font-family="Arial" font-size="10.00">point.h</text>
</a>
</g>
</g>
<!-- Node4&#45;&gt;Node7 -->
<g id="edge18" class="edge">
<title>Node4&#45;&gt;Node7</title>
<path fill="none" stroke="midnightblue" d="M583.11,-234.25C658.25,-226.9 801.42,-210.43 847,-188 891.29,-166.21 887.5,-140.22 928,-112 946.5,-99.11 969.23,-87.77 987.22,-79.71"/>
<polygon fill="midnightblue" stroke="midnightblue" points="988.91,-82.79 996.67,-75.57 986.1,-76.37 988.91,-82.79"/>
</g>
<!-- Node4&#45;&gt;Node12 -->
<g id="edge22" class="edge">
<title>Node4&#45;&gt;Node12</title>
<path fill="none" stroke="midnightblue" d="M488.87,-233.5C434.8,-226.68 351.11,-212.42 332,-188 326.52,-181 327.77,-175.82 332,-168 375.19,-88.07 418.2,-88.59 503,-56 591.95,-21.82 705.72,-13.56 760.56,-11.6"/>
<polygon fill="midnightblue" stroke="midnightblue" points="760.84,-15.09 770.72,-11.28 760.62,-8.09 760.84,-15.09"/>
</g>
<!-- Node20 -->
<g id="node10" class="node">
<title>Node20</title>
<g id="a_node10"><a xlink:href="materialDeck_8h.html" target="_top" xlink:title=" ">
<polygon fill="none" stroke="red" points="352,-168.5 352,-187.5 480,-187.5 480,-168.5 352,-168.5"/>
<text text-anchor="middle" x="416" y="-175.5" font-family="Arial" font-size="10.00">inp/decks/materialDeck.h</text>
</a>
</g>
</g>
<!-- Node4&#45;&gt;Node20 -->
<g id="edge11" class="edge">
<title>Node4&#45;&gt;Node20</title>
<path fill="none" stroke="midnightblue" d="M507.56,-224.4C487.88,-214.64 461.86,-201.74 442.59,-192.18"/>
<polygon fill="midnightblue" stroke="midnightblue" points="443.98,-188.96 433.46,-187.66 440.87,-195.24 443.98,-188.96"/>
</g>
<!-- Node15 -->
<g id="node11" class="node">
<title>Node15</title>
<g id="a_node11"><a xlink:title=" ">
<polygon fill="none" stroke="#bfbfbf" points="676.5,-112.5 676.5,-131.5 717.5,-131.5 717.5,-112.5 676.5,-112.5"/>
<text text-anchor="middle" x="697" y="-119.5" font-family="Arial" font-size="10.00">string</text>
</a>
</g>
</g>
<!-- Node4&#45;&gt;Node15 -->
<g id="edge21" class="edge">
<title>Node4&#45;&gt;Node15</title>
<path fill="none" stroke="midnightblue" d="M552.87,-224.47C570.67,-209.85 599.73,-186.54 626,-168 641.65,-156.95 659.91,-145.41 674,-136.77"/>
<polygon fill="midnightblue" stroke="midnightblue" points="675.85,-139.74 682.58,-131.56 672.22,-133.76 675.85,-139.74"/>
</g>
<!-- Node21 -->
<g id="node12" class="node">
<title>Node21</title>
<g id="a_node12"><a xlink:href="function_8h.html" target="_top" xlink:title=" ">
<polygon fill="none" stroke="black" points="465.5,-112.5 465.5,-131.5 540.5,-131.5 540.5,-112.5 465.5,-112.5"/>
<text text-anchor="middle" x="503" y="-119.5" font-family="Arial" font-size="10.00">util/function.h</text>
</a>
</g>
</g>
<!-- Node4&#45;&gt;Node21 -->
<g id="edge15" class="edge">
<title>Node4&#45;&gt;Node21</title>
<path fill="none" stroke="midnightblue" d="M488.65,-232.73C437.42,-225.41 360.67,-210.89 343,-188 311.02,-146.58 397.01,-131.43 454.98,-125.97"/>
<polygon fill="midnightblue" stroke="midnightblue" points="455.43,-129.45 465.08,-125.09 454.82,-122.48 455.43,-129.45"/>
</g>
<!-- Node22 -->
<g id="node13" class="node">
<title>Node22</title>
<g id="a_node13"><a xlink:title=" ">
<polygon fill="none" stroke="#bfbfbf" points="180,-168.5 180,-187.5 220,-187.5 220,-168.5 180,-168.5"/>
<text text-anchor="middle" x="200" y="-175.5" font-family="Arial" font-size="10.00">limits</text>
</a>
</g>
</g>
<!-- Node4&#45;&gt;Node22 -->
<g id="edge19" class="edge">
<title>Node4&#45;&gt;Node22</title>
<path fill="none" stroke="midnightblue" d="M488.92,-232.01C429.29,-223.48 323.51,-207.29 234,-188 232.72,-187.73 231.42,-187.43 230.11,-187.13"/>
<polygon fill="midnightblue" stroke="midnightblue" points="230.61,-183.65 220.06,-184.64 228.93,-190.44 230.61,-183.65"/>
</g>
<!-- Node23 -->
<g id="node14" class="node">
<title>Node23</title>
<g id="a_node14"><a xlink:title=" ">
<polygon fill="none" stroke="#bfbfbf" points="206,-56.5 206,-75.5 258,-75.5 258,-56.5 206,-56.5"/>
<text text-anchor="middle" x="232" y="-63.5" font-family="Arial" font-size="10.00">memory</text>
</a>
</g>
</g>
<!-- Node4&#45;&gt;Node23 -->
<g id="edge20" class="edge">
<title>Node4&#45;&gt;Node23</title>
<path fill="none" stroke="midnightblue" d="M488.92,-235.16C421.91,-229.49 303.65,-215.78 272,-188 242.02,-161.7 234.43,-112.45 232.56,-85.6"/>
<polygon fill="midnightblue" stroke="midnightblue" points="236.06,-85.42 232.06,-75.6 229.06,-85.77 236.06,-85.42"/>
</g>
<!-- Node5&#45;&gt;Node6 -->
<g id="edge5" class="edge">
<title>Node5&#45;&gt;Node6</title>
<path fill="none" stroke="midnightblue" d="M543.76,-168.08C550.54,-160.3 560.54,-148.8 568.76,-139.37"/>
<polygon fill="midnightblue" stroke="midnightblue" points="571.46,-141.59 575.38,-131.75 566.18,-137 571.46,-141.59"/>
</g>
<!-- Node5&#45;&gt;Node12 -->
<g id="edge10" class="edge">
<title>Node5&#45;&gt;Node12</title>
<path fill="none" stroke="midnightblue" d="M552.18,-168.44C568.51,-159.67 594.34,-145.46 616,-132 674.38,-95.72 740.62,-48.83 773.02,-25.51"/>
<polygon fill="midnightblue" stroke="midnightblue" points="775.16,-28.27 781.22,-19.58 771.06,-22.6 775.16,-28.27"/>
</g>
<!-- Node5&#45;&gt;Node19 -->
<g id="edge9" class="edge">
<title>Node5&#45;&gt;Node19</title>
<path fill="none" stroke="midnightblue" d="M573.68,-174.19C598.02,-172.38 630.38,-170.01 659,-168 903,-150.87 1197.16,-131.54 1294.75,-125.17"/>
<polygon fill="midnightblue" stroke="midnightblue" points="1295.14,-128.65 1304.89,-124.51 1294.68,-121.66 1295.14,-128.65"/>
</g>
<!-- Node6&#45;&gt;Node7 -->
<g id="edge6" class="edge">
<title>Node6&#45;&gt;Node7</title>
<path fill="none" stroke="midnightblue" d="M607.01,-118.02C680.2,-108.93 900.64,-81.57 984.83,-71.12"/>
<polygon fill="midnightblue" stroke="midnightblue" points="985.37,-74.58 994.86,-69.87 984.51,-67.63 985.37,-74.58"/>
</g>
<!-- Node6&#45;&gt;Node12 -->
<g id="edge8" class="edge">
<title>Node6&#45;&gt;Node12</title>
<path fill="none" stroke="midnightblue" d="M586.85,-112.39C593.55,-98.39 608.73,-70.78 630,-56 669.66,-28.45 725.65,-17.73 760.61,-13.58"/>
<polygon fill="midnightblue" stroke="midnightblue" points="761.17,-17.04 770.74,-12.49 760.42,-10.08 761.17,-17.04"/>
</g>
<!-- Node7&#45;&gt;Node12 -->
<g id="edge7" class="edge">
<title>Node7&#45;&gt;Node12</title>
<path fill="none" stroke="midnightblue" d="M994.77,-59.42C954.35,-49.72 871.04,-29.73 825.12,-18.71"/>
<polygon fill="midnightblue" stroke="midnightblue" points="825.65,-15.24 815.11,-16.31 824.01,-22.04 825.65,-15.24"/>
</g>
<!-- Node20&#45;&gt;Node6 -->
<g id="edge12" class="edge">
<title>Node20&#45;&gt;Node6</title>
<path fill="none" stroke="midnightblue" d="M442.46,-168.44C471.34,-159.1 517.66,-144.13 549.16,-133.94"/>
<polygon fill="midnightblue" stroke="midnightblue" points="550.39,-137.22 558.83,-130.82 548.24,-130.56 550.39,-137.22"/>
</g>
<!-- Node20&#45;&gt;Node12 -->
<g id="edge14" class="edge">
<title>Node20&#45;&gt;Node12</title>
<path fill="none" stroke="midnightblue" d="M419.64,-168.43C425.71,-154.98 439.02,-128.72 457,-112 495.73,-75.99 512.16,-73.7 562,-56 630.44,-31.7 715.2,-19.45 760.63,-14.23"/>
<polygon fill="midnightblue" stroke="midnightblue" points="761.21,-17.69 770.77,-13.11 760.44,-10.73 761.21,-17.69"/>
</g>
<!-- Node20&#45;&gt;Node15 -->
<g id="edge13" class="edge">
<title>Node20&#45;&gt;Node15</title>
<path fill="none" stroke="midnightblue" d="M460.53,-168.44C518.03,-157.39 616.61,-138.45 666.37,-128.89"/>
<polygon fill="midnightblue" stroke="midnightblue" points="667.05,-132.32 676.21,-127 665.73,-125.45 667.05,-132.32"/>
</g>
<!-- Node21&#45;&gt;Node7 -->
<g id="edge16" class="edge">
<title>Node21&#45;&gt;Node7</title>
<path fill="none" stroke="midnightblue" d="M540.66,-113.47C543.81,-112.94 546.96,-112.44 550,-112 712.05,-88.75 907.45,-74.31 984.47,-69.15"/>
<polygon fill="midnightblue" stroke="midnightblue" points="984.79,-72.63 994.53,-68.48 984.32,-65.65 984.79,-72.63"/>
</g>
<!-- Node21&#45;&gt;Node12 -->
<g id="edge17" class="edge">
<title>Node21&#45;&gt;Node12</title>
<path fill="none" stroke="midnightblue" d="M513.64,-112.5C531.49,-98.65 569.04,-71.25 605,-56 657.25,-33.84 722.5,-21.32 760.78,-15.37"/>
<polygon fill="midnightblue" stroke="midnightblue" points="761.46,-18.81 770.83,-13.87 760.42,-11.89 761.46,-18.81"/>
</g>
<!-- Node24&#45;&gt;Node12 -->
<g id="edge25" class="edge">
<title>Node24&#45;&gt;Node12</title>
<path fill="none" stroke="midnightblue" d="M704.52,-168.46C710.27,-159.48 719.49,-144.88 727,-132 748.11,-95.81 771.22,-52.52 783.71,-28.77"/>
<polygon fill="midnightblue" stroke="midnightblue" points="786.98,-30.08 788.53,-19.6 780.78,-26.83 786.98,-30.08"/>
</g>
<!-- Node24&#45;&gt;Node15 -->
<g id="edge24" class="edge">
<title>Node24&#45;&gt;Node15</title>
<path fill="none" stroke="midnightblue" d="M698.67,-168.08C698.41,-161.01 698.03,-150.86 697.7,-141.99"/>
<polygon fill="midnightblue" stroke="midnightblue" points="701.19,-141.61 697.32,-131.75 694.2,-141.87 701.19,-141.61"/>
</g>
<!-- Node24&#45;&gt;Node23 -->
<g id="edge26" class="edge">
<title>Node24&#45;&gt;Node23</title>
<path fill="none" stroke="midnightblue" d="M667.85,-172.2C621.58,-164.86 532.06,-149.78 457,-132 389.46,-116 311.95,-92.44 267.8,-78.51"/>
<polygon fill="midnightblue" stroke="midnightblue" points="268.7,-75.13 258.11,-75.44 266.58,-81.8 268.7,-75.13"/>
</g>
<!-- Node25&#45;&gt;Node7 -->
<g id="edge33" class="edge">
<title>Node25&#45;&gt;Node7</title>
<path fill="none" stroke="midnightblue" d="M881.76,-229.99C904.25,-222.12 935.12,-208.52 956,-188 986.05,-158.47 1004.34,-111.29 1012.66,-85.44"/>
<polygon fill="midnightblue" stroke="midnightblue" points="1016.03,-86.36 1015.62,-75.77 1009.34,-84.31 1016.03,-86.36"/>
</g>
<!-- Node26 -->
<g id="node17" class="node">
<title>Node26</title>
<g id="a_node17"><a xlink:href="particleLoading_8h.html" target="_top" xlink:title=" ">
<polygon fill="none" stroke="black" points="748,-168.5 748,-187.5 838,-187.5 838,-168.5 748,-168.5"/>
<text text-anchor="middle" x="793" y="-175.5" font-family="Arial" font-size="10.00">particleLoading.h</text>
</a>
</g>
</g>
<!-- Node25&#45;&gt;Node26 -->
<g id="edge28" class="edge">
<title>Node25&#45;&gt;Node26</title>
<path fill="none" stroke="midnightblue" d="M844.4,-229.98C835.14,-220.78 820.18,-205.96 808.79,-194.66"/>
<polygon fill="midnightblue" stroke="midnightblue" points="811.15,-192.07 801.58,-187.51 806.22,-197.04 811.15,-192.07"/>
</g>
<!-- Node26&#45;&gt;Node12 -->
<g id="edge30" class="edge">
<title>Node26&#45;&gt;Node12</title>
<path fill="none" stroke="midnightblue" d="M793,-168.08C793,-141.95 793,-65.21 793,-29.58"/>
<polygon fill="midnightblue" stroke="midnightblue" points="796.5,-29.57 793,-19.57 789.5,-29.57 796.5,-29.57"/>
</g>
<!-- Node26&#45;&gt;Node15 -->
<g id="edge29" class="edge">
<title>Node26&#45;&gt;Node15</title>
<path fill="none" stroke="midnightblue" d="M777.58,-168.32C762.46,-159.82 739.18,-146.73 721.53,-136.8"/>
<polygon fill="midnightblue" stroke="midnightblue" points="722.82,-133.51 712.39,-131.65 719.39,-139.61 722.82,-133.51"/>
</g>
<!-- Node26&#45;&gt;Node27 -->
<g id="edge31" class="edge">
<title>Node26&#45;&gt;Node27</title>
<path fill="none" stroke="midnightblue" d="M747.96,-169.18C744.93,-168.75 741.93,-168.35 739,-168 552.44,-145.46 331.57,-132.29 218.3,-126.51"/>
<polygon fill="midnightblue" stroke="midnightblue" points="218.17,-123 208.01,-125.99 217.82,-129.99 218.17,-123"/>
</g>
<!-- Node27&#45;&gt;Node23 -->
<g id="edge32" class="edge">
<title>Node27&#45;&gt;Node23</title>
<path fill="none" stroke="midnightblue" d="M157.3,-112.32C171.18,-103.9 192.49,-90.97 208.8,-81.07"/>
<polygon fill="midnightblue" stroke="midnightblue" points="211,-83.83 217.74,-75.65 207.37,-77.85 211,-83.83"/>
</g>
<!-- Node36&#45;&gt;Node7 -->
<g id="edge36" class="edge">
<title>Node36&#45;&gt;Node7</title>
<path fill="none" stroke="midnightblue" d="M1002.82,-229.76C1005.3,-203.15 1012.8,-122.71 1016.24,-85.84"/>
<polygon fill="midnightblue" stroke="midnightblue" points="1019.76,-85.8 1017.21,-75.52 1012.79,-85.15 1019.76,-85.8"/>
</g>
<!-- Node36&#45;&gt;Node26 -->
<g id="edge35" class="edge">
<title>Node36&#45;&gt;Node26</title>
<path fill="none" stroke="midnightblue" d="M972.06,-229.98C935.43,-219.55 873.3,-201.86 832.72,-190.31"/>
<polygon fill="midnightblue" stroke="midnightblue" points="833.47,-186.88 822.89,-187.51 831.55,-193.61 833.47,-186.88"/>
</g>
<!-- Node37&#45;&gt;Node7 -->
<g id="edge38" class="edge">
<title>Node37&#45;&gt;Node7</title>
<path fill="none" stroke="midnightblue" d="M1128.09,-229.76C1109.78,-202.69 1053.79,-119.91 1029.47,-83.96"/>
<polygon fill="midnightblue" stroke="midnightblue" points="1032.26,-81.84 1023.76,-75.52 1026.47,-85.76 1032.26,-81.84"/>
</g>
<!-- Node37&#45;&gt;Node12 -->
<g id="edge46" class="edge">
<title>Node37&#45;&gt;Node12</title>
<path fill="none" stroke="midnightblue" d="M1135.57,-229.61C1138.12,-216.04 1143.73,-189.45 1152,-168 1158.51,-151.12 1166.65,-149.56 1171,-132 1173.14,-123.37 1175.79,-119.49 1171,-112 1133.16,-52.79 909.58,-23.31 825.2,-14.19"/>
<polygon fill="midnightblue" stroke="midnightblue" points="825.48,-10.7 815.17,-13.13 824.74,-17.66 825.48,-10.7"/>
</g>
<!-- Node37&#45;&gt;Node15 -->
<g id="edge45" class="edge">
<title>Node37&#45;&gt;Node15</title>
<path fill="none" stroke="midnightblue" d="M1101.51,-229.91C1019.92,-208.35 807.25,-152.14 727.66,-131.1"/>
<polygon fill="midnightblue" stroke="midnightblue" points="728.33,-127.66 717.77,-128.49 726.54,-134.43 728.33,-127.66"/>
</g>
<!-- Node38 -->
<g id="node21" class="node">
<title>Node38</title>
<g id="a_node21"><a xlink:href="methods_8h.html" target="_top" xlink:title=" ">
<polygon fill="none" stroke="red" points="1394,-168.5 1394,-187.5 1472,-187.5 1472,-168.5 1394,-168.5"/>
<text text-anchor="middle" x="1433" y="-175.5" font-family="Arial" font-size="10.00">util/methods.h</text>
</a>
</g>
</g>
<!-- Node37&#45;&gt;Node38 -->
<g id="edge39" class="edge">
<title>Node37&#45;&gt;Node38</title>
<path fill="none" stroke="midnightblue" d="M1176.84,-229.98C1231.53,-219.09 1325.94,-200.3 1383.6,-188.83"/>
<polygon fill="midnightblue" stroke="midnightblue" points="1384.45,-192.23 1393.58,-186.85 1383.09,-185.36 1384.45,-192.23"/>
</g>
<!-- Node37&#45;&gt;Node39 -->
<g id="edge44" class="edge">
<title>Node37&#45;&gt;Node39</title>
<path fill="none" stroke="midnightblue" d="M1182.81,-235.55C1265.84,-229.86 1430.52,-215.43 1481,-188 1501.31,-176.96 1517.82,-155.68 1527.74,-140.47"/>
<polygon fill="midnightblue" stroke="midnightblue" points="1530.74,-142.27 1533.05,-131.93 1524.8,-138.58 1530.74,-142.27"/>
</g>
<!-- Node41 -->
<g id="node23" class="node">
<title>Node41</title>
<g id="a_node23"><a xlink:href="nflannSetup_8h.html" target="_top" xlink:title=" ">
<polygon fill="none" stroke="red" points="1084.5,-112.5 1084.5,-131.5 1161.5,-131.5 1161.5,-112.5 1084.5,-112.5"/>
<text text-anchor="middle" x="1123" y="-119.5" font-family="Arial" font-size="10.00">nflannSetup.h</text>
</a>
</g>
</g>
<!-- Node37&#45;&gt;Node41 -->
<g id="edge47" class="edge">
<title>Node37&#45;&gt;Node41</title>
<path fill="none" stroke="midnightblue" d="M1130.32,-229.76C1126.37,-219.84 1120.33,-203.09 1118,-188 1115.62,-172.6 1117.24,-154.97 1119.26,-141.95"/>
<polygon fill="midnightblue" stroke="midnightblue" points="1122.74,-142.34 1121.03,-131.88 1115.85,-141.12 1122.74,-142.34"/>
</g>
<!-- Node38&#45;&gt;Node7 -->
<g id="edge40" class="edge">
<title>Node38&#45;&gt;Node7</title>
<path fill="none" stroke="midnightblue" d="M1426.42,-168.49C1414.78,-154.11 1389.01,-125.27 1360,-112 1305.37,-87 1126.31,-73.55 1051.41,-68.9"/>
<polygon fill="midnightblue" stroke="midnightblue" points="1051.33,-65.39 1041.14,-68.27 1050.91,-72.37 1051.33,-65.39"/>
</g>
<!-- Node38&#45;&gt;Node12 -->
<g id="edge43" class="edge">
<title>Node38&#45;&gt;Node12</title>
<path fill="none" stroke="midnightblue" d="M1428.94,-168.28C1422.2,-154.62 1407.47,-128.08 1388,-112 1340.43,-72.72 1320.68,-71.6 1261,-56 1101.47,-14.32 902.32,-10.4 825.39,-10.6"/>
<polygon fill="midnightblue" stroke="midnightblue" points="825.35,-7.1 815.37,-10.65 825.38,-14.1 825.35,-7.1"/>
</g>
<!-- Node38&#45;&gt;Node19 -->
<g id="edge42" class="edge">
<title>Node38&#45;&gt;Node19</title>
<path fill="none" stroke="midnightblue" d="M1416.13,-168.32C1399.29,-159.66 1373.19,-146.24 1353.76,-136.25"/>
<polygon fill="midnightblue" stroke="midnightblue" points="1355.32,-133.12 1344.83,-131.65 1352.12,-139.34 1355.32,-133.12"/>
</g>
<!-- Node38&#45;&gt;Node39 -->
<g id="edge41" class="edge">
<title>Node38&#45;&gt;Node39</title>
<path fill="none" stroke="midnightblue" d="M1449.87,-168.32C1466.71,-159.66 1492.81,-146.24 1512.24,-136.25"/>
<polygon fill="midnightblue" stroke="midnightblue" points="1513.88,-139.34 1521.17,-131.65 1510.68,-133.12 1513.88,-139.34"/>
</g>
<!-- Node41&#45;&gt;Node7 -->
<g id="edge48" class="edge">
<title>Node41&#45;&gt;Node7</title>
<path fill="none" stroke="midnightblue" d="M1106.13,-112.32C1089.29,-103.66 1063.19,-90.24 1043.76,-80.25"/>
<polygon fill="midnightblue" stroke="midnightblue" points="1045.32,-77.12 1034.83,-75.65 1042.12,-83.34 1045.32,-77.12"/>
</g>
<!-- Node43&#45;&gt;Node7 -->
<g id="edge50" class="edge">
<title>Node43&#45;&gt;Node7</title>
<path fill="none" stroke="midnightblue" d="M1208.06,-168.43C1202.82,-154.5 1190.58,-126.97 1171,-112 1135.67,-84.99 1084.44,-74.16 1051.18,-69.84"/>
<polygon fill="midnightblue" stroke="midnightblue" points="1051.39,-66.34 1041.05,-68.65 1050.57,-73.29 1051.39,-66.34"/>
</g>
<!-- Node43&#45;&gt;Node12 -->
<g id="edge53" class="edge">
<title>Node43&#45;&gt;Node12</title>
<path fill="none" stroke="midnightblue" d="M1219.48,-168.23C1227.05,-159.75 1237.6,-146.13 1242,-132 1252.03,-99.75 1264.66,-81.05 1242,-56 1214.1,-25.17 923.71,-14.53 825.36,-11.79"/>
<polygon fill="midnightblue" stroke="midnightblue" points="825.22,-8.29 815.13,-11.52 825.03,-15.28 825.22,-8.29"/>
</g>
<!-- Node43&#45;&gt;Node19 -->
<g id="edge52" class="edge">
<title>Node43&#45;&gt;Node19</title>
<path fill="none" stroke="midnightblue" d="M1229.54,-168.44C1248.62,-159.64 1278.57,-145.81 1300.44,-135.72"/>
<polygon fill="midnightblue" stroke="midnightblue" points="1301.93,-138.88 1309.55,-131.52 1299,-132.53 1301.93,-138.88"/>
</g>
<!-- Node43&#45;&gt;Node39 -->
<g id="edge51" class="edge">
<title>Node43&#45;&gt;Node39</title>
<path fill="none" stroke="midnightblue" d="M1261.73,-168.62C1329.46,-157.44 1447.5,-137.95 1504.84,-128.48"/>
<polygon fill="midnightblue" stroke="midnightblue" points="1505.52,-131.91 1514.82,-126.83 1504.38,-125 1505.52,-131.91"/>
</g>
<!-- Node44&#45;&gt;Node3 -->
<g id="edge59" class="edge">
<title>Node44&#45;&gt;Node3</title>
<path fill="none" stroke="midnightblue" d="M1372.71,-347.44C1348.19,-338.44 1309.4,-324.19 1281.8,-314.05"/>
<polygon fill="midnightblue" stroke="midnightblue" points="1282.78,-310.68 1272.18,-310.52 1280.36,-317.25 1282.78,-310.68"/>
</g>
<!-- Node44&#45;&gt;Node4 -->
<g id="edge58" class="edge">
<title>Node44&#45;&gt;Node4</title>
<path fill="none" stroke="midnightblue" d="M1356.25,-350.66C1217.73,-332.06 755.99,-270.04 593.31,-248.2"/>
<polygon fill="midnightblue" stroke="midnightblue" points="593.41,-244.68 583.04,-246.82 592.48,-251.62 593.41,-244.68"/>
</g>
<!-- Node44&#45;&gt;Node12 -->
<g id="edge62" class="edge">
<title>Node44&#45;&gt;Node12</title>
<path fill="none" stroke="midnightblue" d="M1433.12,-347.44C1498.47,-330.14 1632.37,-284.19 1688,-188 1703.14,-161.82 1666.09,-118.02 1660,-112 1619.59,-72.01 1599.99,-70.42 1545,-56 1405.94,-19.53 951.14,-12.51 825.44,-11.26"/>
<polygon fill="midnightblue" stroke="midnightblue" points="825.34,-7.76 815.31,-11.16 825.27,-14.76 825.34,-7.76"/>
</g>
<!-- Node44&#45;&gt;Node19 -->
<g id="edge61" class="edge">
<title>Node44&#45;&gt;Node19</title>
<path fill="none" stroke="midnightblue" d="M1393.59,-347.36C1386.12,-320.64 1362.63,-236.97 1342,-168 1339.36,-159.17 1336.33,-149.4 1333.77,-141.22"/>
<polygon fill="midnightblue" stroke="midnightblue" points="1337.08,-140.1 1330.74,-131.61 1330.41,-142.2 1337.08,-140.1"/>
</g>
<!-- Node44&#45;&gt;Node39 -->
<g id="edge60" class="edge">
<title>Node44&#45;&gt;Node39</title>
<path fill="none" stroke="midnightblue" d="M1405.52,-347.26C1430.18,-324.02 1496.28,-257.72 1527,-188 1533.42,-173.42 1536.11,-155.47 1537.23,-142.14"/>
<polygon fill="midnightblue" stroke="midnightblue" points="1540.75,-141.99 1537.86,-131.8 1533.76,-141.57 1540.75,-141.99"/>
</g>
<!-- Node45&#45;&gt;Node7 -->
<g id="edge64" class="edge">
<title>Node45&#45;&gt;Node7</title>
<path fill="none" stroke="midnightblue" d="M1628.56,-168.35C1618.84,-153.75 1596.97,-124.61 1570,-112 1477.14,-68.6 1156.08,-66.28 1051.34,-66.71"/>
<polygon fill="midnightblue" stroke="midnightblue" points="1051.03,-63.21 1041.05,-66.77 1051.07,-70.21 1051.03,-63.21"/>
</g>
<!-- Node45&#45;&gt;Node12 -->
<g id="edge67" class="edge">
<title>Node45&#45;&gt;Node12</title>
<path fill="none" stroke="midnightblue" d="M1631.75,-168.24C1627.62,-154.02 1617.41,-126.1 1598,-112 1471.51,-20.12 959.08,-11.64 825.15,-11.01"/>
<polygon fill="midnightblue" stroke="midnightblue" points="825.13,-7.51 815.12,-10.97 825.11,-14.51 825.13,-7.51"/>
</g>
<!-- Node45&#45;&gt;Node19 -->
<g id="edge66" class="edge">
<title>Node45&#45;&gt;Node19</title>
<path fill="none" stroke="midnightblue" d="M1603.82,-171.67C1546.22,-161.51 1421,-139.41 1361.15,-128.85"/>
<polygon fill="midnightblue" stroke="midnightblue" points="1361.56,-125.37 1351.1,-127.08 1360.34,-132.26 1361.56,-125.37"/>
</g>
<!-- Node45&#45;&gt;Node39 -->
<g id="edge65" class="edge">
<title>Node45&#45;&gt;Node39</title>
<path fill="none" stroke="midnightblue" d="M1618.58,-168.32C1603.46,-159.82 1580.18,-146.73 1562.53,-136.8"/>
<polygon fill="midnightblue" stroke="midnightblue" points="1563.82,-133.51 1553.39,-131.65 1560.39,-139.61 1563.82,-133.51"/>
</g>
<!-- Node46&#45;&gt;Node7 -->
<g id="edge75" class="edge">
<title>Node46&#45;&gt;Node7</title>
<path fill="none" stroke="midnightblue" d="M1790.45,-118.82C1660.84,-110.12 1182.24,-78.02 1051.3,-69.23"/>
<polygon fill="midnightblue" stroke="midnightblue" points="1051.31,-65.73 1041.1,-68.55 1050.84,-72.71 1051.31,-65.73"/>
</g>
<!-- Node46&#45;&gt;Node12 -->
<g id="edge76" class="edge">
<title>Node46&#45;&gt;Node12</title>
<path fill="none" stroke="midnightblue" d="M1819.69,-112.31C1813.58,-97.66 1799.03,-68.44 1776,-56 1690.78,-9.97 985.08,-10.18 825.15,-10.83"/>
<polygon fill="midnightblue" stroke="midnightblue" points="824.98,-7.33 815,-10.87 825.02,-14.33 824.98,-7.33"/>
</g>
<!-- Node47&#45;&gt;Node3 -->
<g id="edge82" class="edge">
<title>Node47&#45;&gt;Node3</title>
<path fill="none" stroke="midnightblue" d="M737.29,-351.86C830.38,-344.81 1022.19,-329.43 1184,-311 1185.31,-310.85 1186.62,-310.7 1187.95,-310.54"/>
<polygon fill="midnightblue" stroke="midnightblue" points="1188.79,-313.96 1198.29,-309.26 1187.93,-307.02 1188.79,-313.96"/>
</g>
<!-- Node47&#45;&gt;Node4 -->
<g id="edge80" class="edge">
<title>Node47&#45;&gt;Node4</title>
<path fill="none" stroke="midnightblue" d="M670.1,-347.32C647.25,-329.11 593.78,-286.52 561.69,-260.96"/>
<polygon fill="midnightblue" stroke="midnightblue" points="563.64,-258.04 553.63,-254.55 559.27,-263.51 563.64,-258.04"/>
</g>
<!-- Node47&#45;&gt;Node7 -->
<g id="edge79" class="edge">
<title>Node47&#45;&gt;Node7</title>
<path fill="none" stroke="midnightblue" d="M685.21,-347.25C696.86,-323.91 731.8,-259.54 779,-224 815.4,-196.59 835.7,-211.06 875,-188 926.64,-157.71 977.95,-108.42 1002.71,-83.11"/>
<polygon fill="midnightblue" stroke="midnightblue" points="1005.35,-85.42 1009.78,-75.79 1000.31,-80.55 1005.35,-85.42"/>
</g>
<!-- Node47&#45;&gt;Node12 -->
<g id="edge85" class="edge">
<title>Node47&#45;&gt;Node12</title>
<path fill="none" stroke="midnightblue" d="M624.78,-352.59C468.11,-341.55 38,-300.21 38,-179 38,-179 38,-179 38,-121 38,-44.66 122.7,-73.53 197,-56 305.62,-30.37 652.52,-16.04 760.56,-12.12"/>
<polygon fill="midnightblue" stroke="midnightblue" points="760.96,-15.6 770.83,-11.75 760.71,-8.61 760.96,-15.6"/>
</g>
<!-- Node47&#45;&gt;Node15 -->
<g id="edge84" class="edge">
<title>Node47&#45;&gt;Node15</title>
<path fill="none" stroke="midnightblue" d="M677.31,-347.43C666.15,-320.23 634.96,-233.74 659,-168 663.06,-156.91 671.19,-146.67 678.89,-138.76"/>
<polygon fill="midnightblue" stroke="midnightblue" points="681.47,-141.14 686.29,-131.7 676.64,-136.07 681.47,-141.14"/>
</g>
<!-- Node47&#45;&gt;Node22 -->
<g id="edge83" class="edge">
<title>Node47&#45;&gt;Node22</title>
<path fill="none" stroke="midnightblue" d="M657.8,-347.46C578.48,-318.27 318.09,-222.45 229.68,-189.92"/>
<polygon fill="midnightblue" stroke="midnightblue" points="230.83,-186.62 220.24,-186.45 228.42,-193.19 230.83,-186.62"/>
</g>
<!-- Node47&#45;&gt;Node43 -->
<g id="edge81" class="edge">
<title>Node47&#45;&gt;Node43</title>
<path fill="none" stroke="midnightblue" d="M737.37,-352.33C856.24,-343.45 1127.05,-316.79 1192,-255 1207.52,-240.24 1211.13,-214.87 1211.62,-197.54"/>
<polygon fill="midnightblue" stroke="midnightblue" points="1215.12,-197.49 1211.58,-187.5 1208.12,-197.51 1215.12,-197.49"/>
</g>
</g>
</svg>
