<?xml version="1.0" encoding="UTF-8" standalone="no"?>
<!DOCTYPE svg PUBLIC "-//W3C//DTD SVG 1.1//EN"
 "http://www.w3.org/Graphics/SVG/1.1/DTD/svg11.dtd">
<!-- Generated by graphviz version 2.43.0 (0)
 -->
<!-- Title: /home/user/project/src/particle/wall.h Pages: 1 -->
<svg width="1419pt" height="442pt"
 viewBox="0.00 0.00 1418.91 442.00" xmlns="http://www.w3.org/2000/svg" xmlns:xlink="http://www.w3.org/1999/xlink">
<g id="graph0" class="graph" transform="scale(1 1) rotate(0) translate(4 438)">
<title>/home/user/project/src/particle/wall.h</title>
<!-- Node1 -->
<g id="node1" class="node">
<title>Node1</title>
<g id="a_node1"><a xlink:title=" ">
<polygon fill="#bfbfbf" stroke="black" points="726.91,-403.5 726.91,-433.5 824.91,-433.5 824.91,-403.5 726.91,-403.5"/>
<text text-anchor="start" x="734.91" y="-421.5" font-family="Arial" font-size="10.00">/home/user/project</text>
<text text-anchor="middle" x="775.91" y="-410.5" font-family="Arial" font-size="10.00">/src/particle/wall.h</text>
</a>
</g>
</g>
<!-- Node2 -->
<g id="node2" class="node">
<title>Node2</title>
<g id="a_node2"><a xlink:href="modelData_8h.html" target="_top" xlink:title=" ">
<polygon fill="none" stroke="black" points="493.41,-291.5 493.41,-310.5 594.41,-310.5 594.41,-291.5 493.41,-291.5"/>
<text text-anchor="middle" x="543.91" y="-298.5" font-family="Arial" font-size="10.00">model/modelData.h</text>
</a>
</g>
</g>
<!-- Node1&#45;&gt;Node2 -->
<g id="edge1" class="edge">
<title>Node1&#45;&gt;Node2</title>
<path fill="none" stroke="midnightblue" d="M747.46,-403.34C702.12,-380.77 614.14,-336.97 570.2,-315.09"/>
<polygon fill="midnightblue" stroke="midnightblue" points="571.54,-311.85 561.02,-310.52 568.42,-318.11 571.54,-311.85"/>
</g>
<!-- Node11 -->
<g id="node9" class="node">
<title>Node11</title>
<g id="a_node9"><a xlink:title=" ">
<polygon fill="none" stroke="#bfbfbf" points="860.91,-0.5 860.91,-19.5 904.91,-19.5 904.91,-0.5 860.91,-0.5"/>
<text text-anchor="middle" x="882.91" y="-7.5" font-family="Arial" font-size="10.00">vector</text>
</a>
</g>
</g>
<!-- Node1&#45;&gt;Node11 -->
<g id="edge70" class="edge">
<title>Node1&#45;&gt;Node11</title>
<path fill="none" stroke="midnightblue" d="M824.94,-413.76C973.89,-401.77 1410.91,-361.49 1410.91,-302 1410.91,-302 1410.91,-302 1410.91,-177 1410.91,-92.72 1345.56,-80.43 1264.91,-56 1199.67,-36.24 995.55,-19.38 915.54,-13.36"/>
<polygon fill="midnightblue" stroke="midnightblue" points="915.34,-9.83 905.1,-12.58 914.82,-16.81 915.34,-9.83"/>
</g>
<!-- Node26 -->
<g id="node19" class="node">
<title>Node26</title>
<g id="a_node19"><a xlink:href="particleDeck_8h.html" target="_top" xlink:title=" ">
<polygon fill="none" stroke="red" points="104.91,-112.5 104.91,-131.5 234.91,-131.5 234.91,-112.5 104.91,-112.5"/>
<text text-anchor="middle" x="169.91" y="-119.5" font-family="Arial" font-size="10.00">inp/pdecks/particleDeck.h</text>
</a>
</g>
</g>
<!-- Node1&#45;&gt;Node26 -->
<g id="edge68" class="edge">
<title>Node1&#45;&gt;Node26</title>
<path fill="none" stroke="midnightblue" d="M726.84,-415.39C556.48,-407.4 0.91,-375.71 0.91,-302 0.91,-302 0.91,-302 0.91,-238.5 0.91,-206.05 -2.72,-191.27 19.91,-168 39.65,-147.69 68.18,-136.45 95.06,-130.28"/>
<polygon fill="midnightblue" stroke="midnightblue" points="95.8,-133.7 104.87,-128.22 94.37,-126.85 95.8,-133.7"/>
</g>
<!-- Node44 -->
<g id="node29" class="node">
<title>Node44</title>
<g id="a_node29"><a xlink:title=" ">
<polygon fill="none" stroke="#bfbfbf" points="29.41,-168.5 29.41,-187.5 78.41,-187.5 78.41,-168.5 29.41,-168.5"/>
<text text-anchor="middle" x="53.91" y="-175.5" font-family="Arial" font-size="10.00">string.h</text>
</a>
</g>
</g>
<!-- Node1&#45;&gt;Node44 -->
<g id="edge69" class="edge">
<title>Node1&#45;&gt;Node44</title>
<path fill="none" stroke="midnightblue" d="M726.66,-416.25C610.43,-411.14 313.73,-385.29 112.91,-255 90.41,-240.41 72.93,-214.24 63.02,-196.75"/>
<polygon fill="midnightblue" stroke="midnightblue" points="65.91,-194.74 58.08,-187.6 59.75,-198.06 65.91,-194.74"/>
</g>
<!-- Node45 -->
<g id="node30" class="node">
<title>Node45</title>
<g id="a_node30"><a xlink:href="baseParticle_8h.html" target="_top" xlink:title=" ">
<polygon fill="none" stroke="black" points="919.41,-347.5 919.41,-366.5 998.41,-366.5 998.41,-347.5 919.41,-347.5"/>
<text text-anchor="middle" x="958.91" y="-354.5" font-family="Arial" font-size="10.00">baseParticle.h</text>
</a>
</g>
</g>
<!-- Node1&#45;&gt;Node45 -->
<g id="edge59" class="edge">
<title>Node1&#45;&gt;Node45</title>
<path fill="none" stroke="midnightblue" d="M819.27,-403.4C850.9,-393.12 893.24,-379.35 922.98,-369.68"/>
<polygon fill="midnightblue" stroke="midnightblue" points="924.12,-372.99 932.54,-366.57 921.95,-366.33 924.12,-372.99"/>
</g>
<!-- Node46 -->
<g id="node31" class="node">
<title>Node46</title>
<g id="a_node31"><a xlink:href="mesh_8h.html" target="_top" xlink:title=" ">
<polygon fill="none" stroke="black" points="832.91,-168.5 832.91,-187.5 892.91,-187.5 892.91,-168.5 832.91,-168.5"/>
<text text-anchor="middle" x="862.91" y="-175.5" font-family="Arial" font-size="10.00">fe/mesh.h</text>
</a>
</g>
</g>
<!-- Node1&#45;&gt;Node46 -->
<g id="edge64" class="edge">
<title>Node1&#45;&gt;Node46</title>
<path fill="none" stroke="midnightblue" d="M781.09,-403.29C796.06,-362.26 839.36,-243.55 856.14,-197.53"/>
<polygon fill="midnightblue" stroke="midnightblue" points="859.5,-198.54 859.64,-187.95 852.93,-196.14 859.5,-198.54"/>
</g>
<!-- Node3 -->
<g id="node3" class="node">
<title>Node3</title>
<g id="a_node3"><a xlink:href="material_8h.html" target="_top" xlink:title=" ">
<polygon fill="none" stroke="black" points="911.91,-224.5 911.91,-254.5 1005.91,-254.5 1005.91,-224.5 911.91,-224.5"/>
<text text-anchor="start" x="919.91" y="-242.5" font-family="Arial" font-size="10.00">material/mparticle</text>
<text text-anchor="middle" x="958.91" y="-231.5" font-family="Arial" font-size="10.00">/material.h</text>
</a>
</g>
</g>
<!-- Node2&#45;&gt;Node3 -->
<g id="edge2" class="edge">
<title>Node2&#45;&gt;Node3</title>
<path fill="none" stroke="midnightblue" d="M594.79,-292.7C672.52,-281.56 820.36,-260.36 901.7,-248.7"/>
<polygon fill="midnightblue" stroke="midnightblue" points="902.36,-252.14 911.77,-247.26 901.37,-245.21 902.36,-252.14"/>
</g>
<!-- Node2&#45;&gt;Node11 -->
<g id="edge58" class="edge">
<title>Node2&#45;&gt;Node11</title>
<path fill="none" stroke="midnightblue" d="M493.07,-297.97C394.55,-293.5 181.27,-281.06 112.91,-255 60.02,-234.84 7.1,-223.13 19.91,-168 32.45,-113.98 28.67,-86.62 74.91,-56 140.4,-12.62 708.27,-10.69 850.64,-10.9"/>
<polygon fill="midnightblue" stroke="midnightblue" points="850.88,-14.4 860.88,-10.92 850.89,-7.4 850.88,-14.4"/>
</g>
<!-- Node23 -->
<g id="node16" class="node">
<title>Node23</title>
<g id="a_node16"><a xlink:href="input_8h.html" target="_top" xlink:title=" ">
<polygon fill="none" stroke="black" points="278.91,-168.5 278.91,-187.5 340.91,-187.5 340.91,-168.5 278.91,-168.5"/>
<text text-anchor="middle" x="309.91" y="-175.5" font-family="Arial" font-size="10.00">inp/input.h</text>
</a>
</g>
</g>
<!-- Node2&#45;&gt;Node23 -->
<g id="edge27" class="edge">
<title>Node2&#45;&gt;Node23</title>
<path fill="none" stroke="midnightblue" d="M493.29,-295.99C456.02,-291.01 405.52,-279.89 367.91,-255 345.69,-240.3 328.53,-214.16 318.82,-196.7"/>
<polygon fill="midnightblue" stroke="midnightblue" points="321.76,-194.77 313.98,-187.58 315.58,-198.05 321.76,-194.77"/>
</g>
<!-- Node24 -->
<g id="node17" class="node">
<title>Node24</title>
<g id="a_node17"><a xlink:href="particleFLoading_8h.html" target="_top" xlink:title=" ">
<polygon fill="none" stroke="black" points="376.91,-230 376.91,-249 506.91,-249 506.91,-230 376.91,-230"/>
<text text-anchor="middle" x="441.91" y="-237" font-family="Arial" font-size="10.00">loading/particleFLoading.h</text>
</a>
</g>
</g>
<!-- Node2&#45;&gt;Node24 -->
<g id="edge31" class="edge">
<title>Node2&#45;&gt;Node24</title>
<path fill="none" stroke="midnightblue" d="M529.29,-291.48C512.55,-281.71 484.9,-265.58 465.19,-254.08"/>
<polygon fill="midnightblue" stroke="midnightblue" points="466.89,-251.02 456.49,-249.01 463.37,-257.07 466.89,-251.02"/>
</g>
<!-- Node35 -->
<g id="node20" class="node">
<title>Node35</title>
<g id="a_node20"><a xlink:href="particleULoading_8h.html" target="_top" xlink:title=" ">
<polygon fill="none" stroke="black" points="572.41,-230 572.41,-249 703.41,-249 703.41,-230 572.41,-230"/>
<text text-anchor="middle" x="637.91" y="-237" font-family="Arial" font-size="10.00">loading/particleULoading.h</text>
</a>
</g>
</g>
<!-- Node2&#45;&gt;Node35 -->
<g id="edge38" class="edge">
<title>Node2&#45;&gt;Node35</title>
<path fill="none" stroke="midnightblue" d="M557.37,-291.48C572.59,-281.84 597.59,-266.02 615.71,-254.55"/>
<polygon fill="midnightblue" stroke="midnightblue" points="617.88,-257.31 624.46,-249.01 614.14,-251.4 617.88,-257.31"/>
</g>
<!-- Node36 -->
<g id="node21" class="node">
<title>Node36</title>
<g id="a_node21"><a xlink:href="nsearch_8h.html" target="_top" xlink:title=" ">
<polygon fill="none" stroke="black" points="517.41,-168.5 517.41,-187.5 614.41,-187.5 614.41,-168.5 517.41,-168.5"/>
<text text-anchor="middle" x="565.91" y="-175.5" font-family="Arial" font-size="10.00">nsearch/nsearch.h</text>
</a>
</g>
</g>
<!-- Node2&#45;&gt;Node36 -->
<g id="edge41" class="edge">
<title>Node2&#45;&gt;Node36</title>
<path fill="none" stroke="midnightblue" d="M545.49,-291.3C549.04,-271.76 557.71,-224.06 562.53,-197.55"/>
<polygon fill="midnightblue" stroke="midnightblue" points="565.99,-198.09 564.34,-187.62 559.1,-196.84 565.99,-198.09"/>
</g>
<!-- Node42 -->
<g id="node27" class="node">
<title>Node42</title>
<g id="a_node27"><a xlink:href="fracture_8h.html" target="_top" xlink:title=" ">
<polygon fill="none" stroke="black" points="122.41,-230 122.41,-249 223.41,-249 223.41,-230 122.41,-230"/>
<text text-anchor="middle" x="172.91" y="-237" font-family="Arial" font-size="10.00">geometry/fracture.h</text>
</a>
</g>
</g>
<!-- Node2&#45;&gt;Node42 -->
<g id="edge53" class="edge">
<title>Node2&#45;&gt;Node42</title>
<path fill="none" stroke="midnightblue" d="M493.1,-291.85C425.43,-281 305.89,-261.83 233.57,-250.23"/>
<polygon fill="midnightblue" stroke="midnightblue" points="234.12,-246.77 223.69,-248.65 233.01,-253.68 234.12,-246.77"/>
</g>
<!-- Node4 -->
<g id="node4" class="node">
<title>Node4</title>
<g id="a_node4"><a xlink:href="influenceFn_8h.html" target="_top" xlink:title=" ">
<polygon fill="none" stroke="black" points="1229.41,-168.5 1229.41,-187.5 1304.41,-187.5 1304.41,-168.5 1229.41,-168.5"/>
<text text-anchor="middle" x="1266.91" y="-175.5" font-family="Arial" font-size="10.00">influenceFn.h</text>
</a>
</g>
</g>
<!-- Node3&#45;&gt;Node4 -->
<g id="edge3" class="edge">
<title>Node3&#45;&gt;Node4</title>
<path fill="none" stroke="midnightblue" d="M1006.02,-229.4C1063.73,-218.25 1160.94,-199.47 1219.01,-188.25"/>
<polygon fill="midnightblue" stroke="midnightblue" points="1219.87,-191.65 1229.02,-186.32 1218.54,-184.78 1219.87,-191.65"/>
</g>
<!-- Node6 -->
<g id="node6" class="node">
<title>Node6</title>
<g id="a_node6"><a xlink:href="point_8h.html" target="_top" xlink:title=" ">
<polygon fill="none" stroke="red" points="808.91,-56.5 808.91,-75.5 854.91,-75.5 854.91,-56.5 808.91,-56.5"/>
<text text-anchor="middle" x="831.91" y="-63.5" font-family="Arial" font-size="10.00">point.h</text>
</a>
</g>
</g>
<!-- Node3&#45;&gt;Node6 -->
<g id="edge22" class="edge">
<title>Node3&#45;&gt;Node6</title>
<path fill="none" stroke="midnightblue" d="M948.51,-224.47C925.34,-193.17 869.5,-117.76 844.44,-83.93"/>
<polygon fill="midnightblue" stroke="midnightblue" points="847.01,-81.51 838.24,-75.56 841.38,-85.68 847.01,-81.51"/>
</g>
<!-- Node3&#45;&gt;Node11 -->
<g id="edge26" class="edge">
<title>Node3&#45;&gt;Node11</title>
<path fill="none" stroke="midnightblue" d="M954.15,-224.27C940.97,-184.81 903.96,-74.02 889.15,-29.68"/>
<polygon fill="midnightblue" stroke="midnightblue" points="892.38,-28.3 885.89,-19.93 885.74,-30.52 892.38,-28.3"/>
</g>
<!-- Node19 -->
<g id="node11" class="node">
<title>Node19</title>
<g id="a_node11"><a xlink:href="materialDeck_8h.html" target="_top" xlink:title=" ">
<polygon fill="none" stroke="black" points="1024.91,-168.5 1024.91,-187.5 1152.91,-187.5 1152.91,-168.5 1024.91,-168.5"/>
<text text-anchor="middle" x="1088.91" y="-175.5" font-family="Arial" font-size="10.00">inp/decks/materialDeck.h</text>
</a>
</g>
</g>
<!-- Node3&#45;&gt;Node19 -->
<g id="edge14" class="edge">
<title>Node3&#45;&gt;Node19</title>
<path fill="none" stroke="midnightblue" d="M989.71,-224.4C1011.23,-214.55 1039.74,-201.5 1060.67,-191.92"/>
<polygon fill="midnightblue" stroke="midnightblue" points="1062.35,-195 1069.99,-187.66 1059.44,-188.64 1062.35,-195"/>
</g>
<!-- Node14 -->
<g id="node12" class="node">
<title>Node14</title>
<g id="a_node12"><a xlink:title=" ">
<polygon fill="none" stroke="#bfbfbf" points="699.41,-112.5 699.41,-131.5 740.41,-131.5 740.41,-112.5 699.41,-112.5"/>
<text text-anchor="middle" x="719.91" y="-119.5" font-family="Arial" font-size="10.00">string</text>
</a>
</g>
</g>
<!-- Node3&#45;&gt;Node14 -->
<g id="edge25" class="edge">
<title>Node3&#45;&gt;Node14</title>
<path fill="none" stroke="midnightblue" d="M911.74,-230.24C876.76,-222.75 828.77,-209.51 790.91,-188 768.56,-175.3 747.43,-154.4 734.13,-139.73"/>
<polygon fill="midnightblue" stroke="midnightblue" points="736.49,-137.12 727.25,-131.93 731.24,-141.74 736.49,-137.12"/>
</g>
<!-- Node20 -->
<g id="node13" class="node">
<title>Node20</title>
<g id="a_node13"><a xlink:href="function_8h.html" target="_top" xlink:title=" ">
<polygon fill="none" stroke="black" points="987.41,-112.5 987.41,-131.5 1062.41,-131.5 1062.41,-112.5 987.41,-112.5"/>
<text text-anchor="middle" x="1024.91" y="-119.5" font-family="Arial" font-size="10.00">util/function.h</text>
</a>
</g>
</g>
<!-- Node3&#45;&gt;Node20 -->
<g id="edge19" class="edge">
<title>Node3&#45;&gt;Node20</title>
<path fill="none" stroke="midnightblue" d="M967,-224.34C979.05,-203.24 1001.71,-163.6 1014.82,-140.65"/>
<polygon fill="midnightblue" stroke="midnightblue" points="1018.03,-142.09 1019.95,-131.67 1011.95,-138.62 1018.03,-142.09"/>
</g>
<!-- Node21 -->
<g id="node14" class="node">
<title>Node21</title>
<g id="a_node14"><a xlink:title=" ">
<polygon fill="none" stroke="#bfbfbf" points="1170.91,-168.5 1170.91,-187.5 1210.91,-187.5 1210.91,-168.5 1170.91,-168.5"/>
<text text-anchor="middle" x="1190.91" y="-175.5" font-family="Arial" font-size="10.00">limits</text>
</a>
</g>
</g>
<!-- Node3&#45;&gt;Node21 -->
<g id="edge23" class="edge">
<title>Node3&#45;&gt;Node21</title>
<path fill="none" stroke="midnightblue" d="M1006.28,-227.52C1045.37,-218.28 1102.5,-204.37 1160.9,-188.17"/>
<polygon fill="midnightblue" stroke="midnightblue" points="1161.98,-191.5 1170.67,-185.44 1160.09,-184.76 1161.98,-191.5"/>
</g>
<!-- Node22 -->
<g id="node15" class="node">
<title>Node22</title>
<g id="a_node15"><a xlink:title=" ">
<polygon fill="none" stroke="#bfbfbf" points="143.91,-56.5 143.91,-75.5 195.91,-75.5 195.91,-56.5 143.91,-56.5"/>
<text text-anchor="middle" x="169.91" y="-63.5" font-family="Arial" font-size="10.00">memory</text>
</a>
</g>
</g>
<!-- Node3&#45;&gt;Node22 -->
<g id="edge24" class="edge">
<title>Node3&#45;&gt;Node22</title>
<path fill="none" stroke="midnightblue" d="M911.84,-226.48C884.74,-218.23 850.83,-205.58 823.91,-188 784.43,-162.23 792.6,-132 749.91,-112 725.22,-100.43 329.44,-76.36 206.23,-69.11"/>
<polygon fill="midnightblue" stroke="midnightblue" points="206.35,-65.61 196.16,-68.52 205.94,-72.6 206.35,-65.61"/>
</g>
<!-- Node5 -->
<g id="node5" class="node">
<title>Node5</title>
<g id="a_node5"><a xlink:href="io_8h.html" target="_top" xlink:title=" ">
<polygon fill="none" stroke="red" points="1118.91,-112.5 1118.91,-131.5 1166.91,-131.5 1166.91,-112.5 1118.91,-112.5"/>
<text text-anchor="middle" x="1142.91" y="-119.5" font-family="Arial" font-size="10.00">util/io.h</text>
</a>
</g>
</g>
<!-- Node4&#45;&gt;Node5 -->
<g id="edge4" class="edge">
<title>Node4&#45;&gt;Node5</title>
<path fill="none" stroke="midnightblue" d="M1247.26,-168.44C1226.94,-159.6 1195,-145.69 1171.81,-135.59"/>
<polygon fill="midnightblue" stroke="midnightblue" points="1173.03,-132.3 1162.46,-131.52 1170.23,-138.72 1173.03,-132.3"/>
</g>
<!-- Node10 -->
<g id="node8" class="node">
<title>Node10</title>
<g id="a_node8"><a xlink:title=" ">
<polygon fill="none" stroke="#bfbfbf" points="1177.91,-0.5 1177.91,-19.5 1231.91,-19.5 1231.91,-0.5 1177.91,-0.5"/>
<text text-anchor="middle" x="1204.91" y="-7.5" font-family="Arial" font-size="10.00">iostream</text>
</a>
</g>
</g>
<!-- Node4&#45;&gt;Node10 -->
<g id="edge12" class="edge">
<title>Node4&#45;&gt;Node10</title>
<path fill="none" stroke="midnightblue" d="M1263.57,-168.08C1253.77,-141.83 1224.9,-64.55 1211.67,-29.12"/>
<polygon fill="midnightblue" stroke="midnightblue" points="1214.88,-27.71 1208.11,-19.57 1208.33,-30.16 1214.88,-27.71"/>
</g>
<!-- Node4&#45;&gt;Node11 -->
<g id="edge13" class="edge">
<title>Node4&#45;&gt;Node11</title>
<path fill="none" stroke="midnightblue" d="M1259.8,-168.23C1240.86,-145.54 1186.57,-84.64 1126.91,-56 1056.51,-22.21 963.45,-13.71 915.13,-11.63"/>
<polygon fill="midnightblue" stroke="midnightblue" points="915.09,-8.12 904.97,-11.26 914.83,-15.12 915.09,-8.12"/>
</g>
<!-- Node18 -->
<g id="node10" class="node">
<title>Node18</title>
<g id="a_node10"><a xlink:title=" ">
<polygon fill="none" stroke="#bfbfbf" points="1298.91,-112.5 1298.91,-131.5 1344.91,-131.5 1344.91,-112.5 1298.91,-112.5"/>
<text text-anchor="middle" x="1321.91" y="-119.5" font-family="Arial" font-size="10.00">cstring</text>
</a>
</g>
</g>
<!-- Node4&#45;&gt;Node18 -->
<g id="edge11" class="edge">
<title>Node4&#45;&gt;Node18</title>
<path fill="none" stroke="midnightblue" d="M1275.99,-168.08C1284.08,-160.14 1296.1,-148.34 1305.82,-138.8"/>
<polygon fill="midnightblue" stroke="midnightblue" points="1308.31,-141.25 1312.99,-131.75 1303.4,-136.26 1308.31,-141.25"/>
</g>
<!-- Node5&#45;&gt;Node6 -->
<g id="edge5" class="edge">
<title>Node5&#45;&gt;Node6</title>
<path fill="none" stroke="midnightblue" d="M1118.76,-116.81C1063.58,-107.23 928.16,-83.71 865.15,-72.77"/>
<polygon fill="midnightblue" stroke="midnightblue" points="865.43,-69.27 854.97,-71.01 864.23,-76.16 865.43,-69.27"/>
</g>
<!-- Node5&#45;&gt;Node10 -->
<g id="edge9" class="edge">
<title>Node5&#45;&gt;Node10</title>
<path fill="none" stroke="midnightblue" d="M1147.77,-112.37C1157.96,-94.3 1181.7,-52.18 1195.15,-28.31"/>
<polygon fill="midnightblue" stroke="midnightblue" points="1198.2,-30.02 1200.06,-19.59 1192.1,-26.58 1198.2,-30.02"/>
</g>
<!-- Node5&#45;&gt;Node11 -->
<g id="edge10" class="edge">
<title>Node5&#45;&gt;Node11</title>
<path fill="none" stroke="midnightblue" d="M1140.37,-112.25C1135.78,-98.05 1124.68,-70.14 1104.91,-56 1074.84,-34.5 969.24,-20.31 915.24,-14.29"/>
<polygon fill="midnightblue" stroke="midnightblue" points="915.48,-10.8 905.16,-13.19 914.73,-17.75 915.48,-10.8"/>
</g>
<!-- Node7 -->
<g id="node7" class="node">
<title>Node7</title>
<g id="a_node7"><a xlink:title=" ">
<polygon fill="none" stroke="#bfbfbf" points="1019.91,-0.5 1019.91,-19.5 1063.91,-19.5 1063.91,-0.5 1019.91,-0.5"/>
<text text-anchor="middle" x="1041.91" y="-7.5" font-family="Arial" font-size="10.00">cmath</text>
</a>
</g>
</g>
<!-- Node6&#45;&gt;Node7 -->
<g id="edge6" class="edge">
<title>Node6&#45;&gt;Node7</title>
<path fill="none" stroke="midnightblue" d="M855.18,-59.01C892.87,-49.32 967.31,-30.18 1009.94,-19.22"/>
<polygon fill="midnightblue" stroke="midnightblue" points="1010.98,-22.57 1019.79,-16.69 1009.24,-15.79 1010.98,-22.57"/>
</g>
<!-- Node6&#45;&gt;Node10 -->
<g id="edge7" class="edge">
<title>Node6&#45;&gt;Node10</title>
<path fill="none" stroke="midnightblue" d="M854.96,-61.66C917.53,-52.6 1091.01,-27.49 1167.66,-16.39"/>
<polygon fill="midnightblue" stroke="midnightblue" points="1168.42,-19.82 1177.82,-14.92 1167.42,-12.89 1168.42,-19.82"/>
</g>
<!-- Node6&#45;&gt;Node11 -->
<g id="edge8" class="edge">
<title>Node6&#45;&gt;Node11</title>
<path fill="none" stroke="midnightblue" d="M840.33,-56.08C847.75,-48.22 858.76,-36.57 867.72,-27.08"/>
<polygon fill="midnightblue" stroke="midnightblue" points="870.32,-29.42 874.64,-19.75 865.23,-24.62 870.32,-29.42"/>
</g>
<!-- Node19&#45;&gt;Node5 -->
<g id="edge15" class="edge">
<title>Node19&#45;&gt;Node5</title>
<path fill="none" stroke="midnightblue" d="M1097.82,-168.08C1105.69,-160.22 1117.34,-148.57 1126.82,-139.08"/>
<polygon fill="midnightblue" stroke="midnightblue" points="1129.56,-141.3 1134.15,-131.75 1124.61,-136.35 1129.56,-141.3"/>
</g>
<!-- Node19&#45;&gt;Node7 -->
<g id="edge16" class="edge">
<title>Node19&#45;&gt;Node7</title>
<path fill="none" stroke="midnightblue" d="M1123.92,-168.45C1142.84,-161.84 1164.59,-150.59 1175.91,-132 1180.53,-124.41 1179.03,-120.32 1175.91,-112 1158.89,-66.7 1107.54,-37.67 1073.58,-22.86"/>
<polygon fill="midnightblue" stroke="midnightblue" points="1074.65,-19.52 1064.08,-18.89 1071.95,-25.97 1074.65,-19.52"/>
</g>
<!-- Node19&#45;&gt;Node11 -->
<g id="edge18" class="edge">
<title>Node19&#45;&gt;Node11</title>
<path fill="none" stroke="midnightblue" d="M1088.45,-168.25C1087.38,-155.01 1083.82,-129.57 1071.91,-112 1034.8,-57.26 958.1,-29.85 914.68,-18.2"/>
<polygon fill="midnightblue" stroke="midnightblue" points="915.48,-14.79 904.92,-15.7 913.74,-21.57 915.48,-14.79"/>
</g>
<!-- Node19&#45;&gt;Node14 -->
<g id="edge17" class="edge">
<title>Node19&#45;&gt;Node14</title>
<path fill="none" stroke="midnightblue" d="M1030.44,-168.44C951.07,-156.83 812.1,-136.49 750.64,-127.5"/>
<polygon fill="midnightblue" stroke="midnightblue" points="750.83,-123.99 740.43,-126 749.82,-130.92 750.83,-123.99"/>
</g>
<!-- Node20&#45;&gt;Node6 -->
<g id="edge20" class="edge">
<title>Node20&#45;&gt;Node6</title>
<path fill="none" stroke="midnightblue" d="M994.32,-112.44C959.11,-102.59 901.46,-86.46 865.16,-76.3"/>
<polygon fill="midnightblue" stroke="midnightblue" points="865.65,-72.81 855.07,-73.48 863.76,-79.55 865.65,-72.81"/>
</g>
<!-- Node20&#45;&gt;Node11 -->
<g id="edge21" class="edge">
<title>Node20&#45;&gt;Node11</title>
<path fill="none" stroke="midnightblue" d="M1019.79,-112.43C1011.4,-98.98 993.58,-72.72 972.91,-56 955.4,-41.85 932.72,-30.54 914.5,-22.8"/>
<polygon fill="midnightblue" stroke="midnightblue" points="915.75,-19.53 905.17,-18.98 913.1,-26.01 915.75,-19.53"/>
</g>
<!-- Node23&#45;&gt;Node11 -->
<g id="edge29" class="edge">
<title>Node23&#45;&gt;Node11</title>
<path fill="none" stroke="midnightblue" d="M278.82,-172.9C220.62,-164.9 99.95,-146.73 87.91,-132 61.09,-99.21 105.28,-70.91 134.91,-56 199.47,-23.5 715.62,-13.52 850.66,-11.45"/>
<polygon fill="midnightblue" stroke="midnightblue" points="850.83,-14.94 860.78,-11.3 850.73,-7.94 850.83,-14.94"/>
</g>
<!-- Node23&#45;&gt;Node14 -->
<g id="edge28" class="edge">
<title>Node23&#45;&gt;Node14</title>
<path fill="none" stroke="midnightblue" d="M341.06,-172.9C417.29,-162.86 612.54,-137.14 688.76,-127.1"/>
<polygon fill="midnightblue" stroke="midnightblue" points="689.66,-130.51 699.12,-125.74 688.75,-123.57 689.66,-130.51"/>
</g>
<!-- Node23&#45;&gt;Node22 -->
<g id="edge30" class="edge">
<title>Node23&#45;&gt;Node22</title>
<path fill="none" stroke="midnightblue" d="M278.68,-175.12C224.94,-171.17 118.57,-159.93 95.91,-132 79.13,-111.33 110.11,-91.77 136.98,-79.61"/>
<polygon fill="midnightblue" stroke="midnightblue" points="138.42,-82.79 146.22,-75.62 135.65,-76.37 138.42,-82.79"/>
</g>
<!-- Node24&#45;&gt;Node6 -->
<g id="edge37" class="edge">
<title>Node24&#45;&gt;Node6</title>
<path fill="none" stroke="midnightblue" d="M428.44,-229.89C396.55,-208.49 321.72,-151.78 357.91,-112 372.76,-95.67 693,-75.25 798.52,-68.95"/>
<polygon fill="midnightblue" stroke="midnightblue" points="798.83,-72.43 808.61,-68.35 798.42,-65.45 798.83,-72.43"/>
</g>
<!-- Node25 -->
<g id="node18" class="node">
<title>Node25</title>
<g id="a_node18"><a xlink:href="particleLoading_8h.html" target="_top" xlink:title=" ">
<polygon fill="none" stroke="black" points="396.91,-168.5 396.91,-187.5 486.91,-187.5 486.91,-168.5 396.91,-168.5"/>
<text text-anchor="middle" x="441.91" y="-175.5" font-family="Arial" font-size="10.00">particleLoading.h</text>
</a>
</g>
</g>
<!-- Node24&#45;&gt;Node25 -->
<g id="edge32" class="edge">
<title>Node24&#45;&gt;Node25</title>
<path fill="none" stroke="midnightblue" d="M441.91,-229.98C441.91,-221.58 441.91,-208.48 441.91,-197.66"/>
<polygon fill="midnightblue" stroke="midnightblue" points="445.41,-197.51 441.91,-187.51 438.41,-197.51 445.41,-197.51"/>
</g>
<!-- Node25&#45;&gt;Node11 -->
<g id="edge34" class="edge">
<title>Node25&#45;&gt;Node11</title>
<path fill="none" stroke="midnightblue" d="M408.92,-168.44C390.44,-161.77 368.95,-150.45 357.91,-132 340.55,-103.02 335.06,-80.88 357.91,-56 391.28,-19.64 741.49,-12.6 850.62,-11.29"/>
<polygon fill="midnightblue" stroke="midnightblue" points="850.74,-14.79 860.7,-11.18 850.66,-7.79 850.74,-14.79"/>
</g>
<!-- Node25&#45;&gt;Node14 -->
<g id="edge33" class="edge">
<title>Node25&#45;&gt;Node14</title>
<path fill="none" stroke="midnightblue" d="M485.96,-168.44C542.72,-157.42 639.97,-138.53 689.29,-128.95"/>
<polygon fill="midnightblue" stroke="midnightblue" points="690.19,-132.34 699.34,-127 688.85,-125.47 690.19,-132.34"/>
</g>
<!-- Node25&#45;&gt;Node26 -->
<g id="edge35" class="edge">
<title>Node25&#45;&gt;Node26</title>
<path fill="none" stroke="midnightblue" d="M398.81,-168.44C351.06,-158.96 274.04,-143.67 222.71,-133.48"/>
<polygon fill="midnightblue" stroke="midnightblue" points="223.29,-130.03 212.8,-131.52 221.93,-136.9 223.29,-130.03"/>
</g>
<!-- Node26&#45;&gt;Node22 -->
<g id="edge36" class="edge">
<title>Node26&#45;&gt;Node22</title>
<path fill="none" stroke="midnightblue" d="M169.91,-112.08C169.91,-105.01 169.91,-94.86 169.91,-85.99"/>
<polygon fill="midnightblue" stroke="midnightblue" points="173.41,-85.75 169.91,-75.75 166.41,-85.75 173.41,-85.75"/>
</g>
<!-- Node35&#45;&gt;Node6 -->
<g id="edge40" class="edge">
<title>Node35&#45;&gt;Node6</title>
<path fill="none" stroke="midnightblue" d="M647.53,-230C678.36,-202.74 775.03,-117.28 814.68,-82.23"/>
<polygon fill="midnightblue" stroke="midnightblue" points="817.05,-84.8 822.23,-75.56 812.42,-79.56 817.05,-84.8"/>
</g>
<!-- Node35&#45;&gt;Node25 -->
<g id="edge39" class="edge">
<title>Node35&#45;&gt;Node25</title>
<path fill="none" stroke="midnightblue" d="M609.82,-229.98C575.62,-219.59 517.71,-202.01 479.64,-190.45"/>
<polygon fill="midnightblue" stroke="midnightblue" points="480.52,-187.06 469.94,-187.51 478.49,-193.76 480.52,-187.06"/>
</g>
<!-- Node36&#45;&gt;Node6 -->
<g id="edge42" class="edge">
<title>Node36&#45;&gt;Node6</title>
<path fill="none" stroke="midnightblue" d="M580.52,-168.35C603.46,-155.02 649.58,-129.19 690.91,-112 726.83,-97.06 769.58,-84.05 798.52,-75.91"/>
<polygon fill="midnightblue" stroke="midnightblue" points="799.81,-79.19 808.51,-73.14 797.94,-72.44 799.81,-79.19"/>
</g>
<!-- Node36&#45;&gt;Node11 -->
<g id="edge49" class="edge">
<title>Node36&#45;&gt;Node11</title>
<path fill="none" stroke="midnightblue" d="M575.24,-168.08C589.7,-154.61 618.76,-128.88 646.91,-112 715.8,-70.67 804.69,-37.47 851.26,-21.44"/>
<polygon fill="midnightblue" stroke="midnightblue" points="852.46,-24.72 860.8,-18.19 850.2,-18.1 852.46,-24.72"/>
</g>
<!-- Node36&#45;&gt;Node14 -->
<g id="edge48" class="edge">
<title>Node36&#45;&gt;Node14</title>
<path fill="none" stroke="midnightblue" d="M590.31,-168.44C617.16,-159.03 660.37,-143.87 689.44,-133.68"/>
<polygon fill="midnightblue" stroke="midnightblue" points="690.8,-136.92 699.07,-130.3 688.48,-130.31 690.8,-136.92"/>
</g>
<!-- Node37 -->
<g id="node22" class="node">
<title>Node37</title>
<g id="a_node22"><a xlink:href="methods_8h.html" target="_top" xlink:title=" ">
<polygon fill="none" stroke="black" points="526.91,-112.5 526.91,-131.5 604.91,-131.5 604.91,-112.5 526.91,-112.5"/>
<text text-anchor="middle" x="565.91" y="-119.5" font-family="Arial" font-size="10.00">util/methods.h</text>
</a>
</g>
</g>
<!-- Node36&#45;&gt;Node37 -->
<g id="edge43" class="edge">
<title>Node36&#45;&gt;Node37</title>
<path fill="none" stroke="midnightblue" d="M565.91,-168.08C565.91,-161.01 565.91,-150.86 565.91,-141.99"/>
<polygon fill="midnightblue" stroke="midnightblue" points="569.41,-141.75 565.91,-131.75 562.41,-141.75 569.41,-141.75"/>
</g>
<!-- Node39 -->
<g id="node24" class="node">
<title>Node39</title>
<g id="a_node24"><a xlink:title=" ">
<polygon fill="none" stroke="#bfbfbf" points="366.91,-112.5 366.91,-131.5 412.91,-131.5 412.91,-112.5 366.91,-112.5"/>
<text text-anchor="middle" x="389.91" y="-119.5" font-family="Arial" font-size="10.00">cstdint</text>
</a>
</g>
</g>
<!-- Node36&#45;&gt;Node39 -->
<g id="edge47" class="edge">
<title>Node36&#45;&gt;Node39</title>
<path fill="none" stroke="midnightblue" d="M538.02,-168.44C506.75,-158.85 456.08,-143.3 422.87,-133.11"/>
<polygon fill="midnightblue" stroke="midnightblue" points="423.75,-129.72 413.17,-130.14 421.7,-136.42 423.75,-129.72"/>
</g>
<!-- Node40 -->
<g id="node25" class="node">
<title>Node40</title>
<g id="a_node25"><a xlink:href="nflannSetup_8h.html" target="_top" xlink:title=" ">
<polygon fill="none" stroke="black" points="431.41,-112.5 431.41,-131.5 508.41,-131.5 508.41,-112.5 431.41,-112.5"/>
<text text-anchor="middle" x="469.91" y="-119.5" font-family="Arial" font-size="10.00">nflannSetup.h</text>
</a>
</g>
</g>
<!-- Node36&#45;&gt;Node40 -->
<g id="edge50" class="edge">
<title>Node36&#45;&gt;Node40</title>
<path fill="none" stroke="midnightblue" d="M550.48,-168.32C535.37,-159.82 512.09,-146.73 494.43,-136.8"/>
<polygon fill="midnightblue" stroke="midnightblue" points="495.72,-133.51 485.29,-131.65 492.29,-139.61 495.72,-133.51"/>
</g>
<!-- Node37&#45;&gt;Node6 -->
<g id="edge44" class="edge">
<title>Node37&#45;&gt;Node6</title>
<path fill="none" stroke="midnightblue" d="M605.15,-113.03C657.53,-102.4 749.37,-83.76 798.56,-73.77"/>
<polygon fill="midnightblue" stroke="midnightblue" points="799.56,-77.14 808.67,-71.72 798.17,-70.28 799.56,-77.14"/>
</g>
<!-- Node37&#45;&gt;Node11 -->
<g id="edge45" class="edge">
<title>Node37&#45;&gt;Node11</title>
<path fill="none" stroke="midnightblue" d="M572.93,-112.19C584.86,-97.9 610.55,-69.87 638.91,-56 709.05,-21.69 802.21,-13.4 850.61,-11.49"/>
<polygon fill="midnightblue" stroke="midnightblue" points="850.92,-14.99 860.8,-11.16 850.69,-7.99 850.92,-14.99"/>
</g>
<!-- Node38 -->
<g id="node23" class="node">
<title>Node38</title>
<g id="a_node23"><a xlink:title=" ">
<polygon fill="none" stroke="#bfbfbf" points="540.91,-56.5 540.91,-75.5 586.91,-75.5 586.91,-56.5 540.91,-56.5"/>
<text text-anchor="middle" x="563.91" y="-63.5" font-family="Arial" font-size="10.00">chrono</text>
</a>
</g>
</g>
<!-- Node37&#45;&gt;Node38 -->
<g id="edge46" class="edge">
<title>Node37&#45;&gt;Node38</title>
<path fill="none" stroke="midnightblue" d="M565.57,-112.08C565.31,-105.01 564.94,-94.86 564.61,-85.99"/>
<polygon fill="midnightblue" stroke="midnightblue" points="568.1,-85.61 564.23,-75.75 561.1,-85.87 568.1,-85.61"/>
</g>
<!-- Node40&#45;&gt;Node6 -->
<g id="edge51" class="edge">
<title>Node40&#45;&gt;Node6</title>
<path fill="none" stroke="midnightblue" d="M508.65,-113.59C511.78,-113.03 514.89,-112.5 517.91,-112 619.95,-95.13 741.27,-78.79 798.66,-71.29"/>
<polygon fill="midnightblue" stroke="midnightblue" points="799.15,-74.75 808.61,-69.99 798.24,-67.81 799.15,-74.75"/>
</g>
<!-- Node41 -->
<g id="node26" class="node">
<title>Node41</title>
<g id="a_node26"><a xlink:title=" ">
<polygon fill="none" stroke="#bfbfbf" points="366.91,-56.5 366.91,-75.5 522.91,-75.5 522.91,-56.5 366.91,-56.5"/>
<text text-anchor="middle" x="444.91" y="-63.5" font-family="Arial" font-size="10.00">nanoflann/include/nanoflann.hpp</text>
</a>
</g>
</g>
<!-- Node40&#45;&gt;Node41 -->
<g id="edge52" class="edge">
<title>Node40&#45;&gt;Node41</title>
<path fill="none" stroke="midnightblue" d="M465.78,-112.08C462.39,-104.77 457.49,-94.18 453.29,-85.1"/>
<polygon fill="midnightblue" stroke="midnightblue" points="456.33,-83.36 448.96,-75.75 449.98,-86.3 456.33,-83.36"/>
</g>
<!-- Node42&#45;&gt;Node6 -->
<g id="edge54" class="edge">
<title>Node42&#45;&gt;Node6</title>
<path fill="none" stroke="midnightblue" d="M181.18,-229.71C204.33,-205.78 272.83,-139.39 344.91,-112 428.21,-80.35 702.33,-70.35 798.33,-67.77"/>
<polygon fill="midnightblue" stroke="midnightblue" points="798.71,-71.26 808.62,-67.51 798.53,-64.27 798.71,-71.26"/>
</g>
<!-- Node42&#45;&gt;Node11 -->
<g id="edge57" class="edge">
<title>Node42&#45;&gt;Node11</title>
<path fill="none" stroke="midnightblue" d="M160.31,-229.75C138.18,-213.51 93.06,-176.31 75.91,-132 63.16,-99.09 70.17,-76.48 98.91,-56 160.85,-11.85 710.68,-10.48 850.62,-10.85"/>
<polygon fill="midnightblue" stroke="midnightblue" points="850.69,-14.35 860.7,-10.88 850.71,-7.35 850.69,-14.35"/>
</g>
<!-- Node43 -->
<g id="node28" class="node">
<title>Node43</title>
<g id="a_node28"><a xlink:title=" ">
<polygon fill="none" stroke="#bfbfbf" points="148.41,-168.5 148.41,-187.5 197.41,-187.5 197.41,-168.5 148.41,-168.5"/>
<text text-anchor="middle" x="172.91" y="-175.5" font-family="Arial" font-size="10.00">stdint.h</text>
</a>
</g>
</g>
<!-- Node42&#45;&gt;Node43 -->
<g id="edge55" class="edge">
<title>Node42&#45;&gt;Node43</title>
<path fill="none" stroke="midnightblue" d="M172.91,-229.98C172.91,-221.58 172.91,-208.48 172.91,-197.66"/>
<polygon fill="midnightblue" stroke="midnightblue" points="176.41,-197.51 172.91,-187.51 169.41,-197.51 176.41,-197.51"/>
</g>
<!-- Node42&#45;&gt;Node44 -->
<g id="edge56" class="edge">
<title>Node42&#45;&gt;Node44</title>
<path fill="none" stroke="midnightblue" d="M155.86,-229.98C136.06,-220.08 103.19,-203.64 80.14,-192.12"/>
<polygon fill="midnightblue" stroke="midnightblue" points="81.43,-188.85 70.92,-187.51 78.3,-195.11 81.43,-188.85"/>
</g>
<!-- Node45&#45;&gt;Node2 -->
<g id="edge61" class="edge">
<title>Node45&#45;&gt;Node2</title>
<path fill="none" stroke="midnightblue" d="M919.11,-350.82C846.2,-341.34 690.78,-321.11 604.6,-309.9"/>
<polygon fill="midnightblue" stroke="midnightblue" points="604.82,-306.4 594.45,-308.58 603.91,-313.34 604.82,-306.4"/>
</g>
<!-- Node45&#45;&gt;Node3 -->
<g id="edge60" class="edge">
<title>Node45&#45;&gt;Node3</title>
<path fill="none" stroke="midnightblue" d="M958.91,-347.32C958.91,-329.97 958.91,-290.46 958.91,-264.66"/>
<polygon fill="midnightblue" stroke="midnightblue" points="962.41,-264.55 958.91,-254.55 955.41,-264.55 962.41,-264.55"/>
</g>
<!-- Node45&#45;&gt;Node11 -->
<g id="edge63" class="edge">
<title>Node45&#45;&gt;Node11</title>
<path fill="none" stroke="midnightblue" d="M998.6,-353.41C1102.22,-345.58 1372.91,-317.73 1372.91,-240.5 1372.91,-240.5 1372.91,-240.5 1372.91,-177 1372.91,-146.9 1375.25,-133.22 1353.91,-112 1291.22,-49.7 1011,-21.43 915.16,-13.46"/>
<polygon fill="midnightblue" stroke="midnightblue" points="915.18,-9.95 904.93,-12.63 914.61,-16.93 915.18,-9.95"/>
</g>
<!-- Node45&#45;&gt;Node18 -->
<g id="edge62" class="edge">
<title>Node45&#45;&gt;Node18</title>
<path fill="none" stroke="midnightblue" d="M998.53,-349.92C1073.78,-336.1 1236.74,-294.81 1313.91,-188 1323.57,-174.62 1324.85,-155.51 1324.14,-141.47"/>
<polygon fill="midnightblue" stroke="midnightblue" points="1327.63,-141.17 1323.27,-131.51 1320.65,-141.77 1327.63,-141.17"/>
</g>
<!-- Node46&#45;&gt;Node6 -->
<g id="edge65" class="edge">
<title>Node46&#45;&gt;Node6</title>
<path fill="none" stroke="midnightblue" d="M860.47,-168.37C855.45,-150.54 843.82,-109.3 837.05,-85.27"/>
<polygon fill="midnightblue" stroke="midnightblue" points="840.41,-84.27 834.33,-75.59 833.67,-86.17 840.41,-84.27"/>
</g>
<!-- Node46&#45;&gt;Node11 -->
<g id="edge67" class="edge">
<title>Node46&#45;&gt;Node11</title>
<path fill="none" stroke="midnightblue" d="M863.98,-168.08C867.13,-141.95 876.37,-65.21 880.67,-29.58"/>
<polygon fill="midnightblue" stroke="midnightblue" points="884.15,-29.92 881.87,-19.57 877.2,-29.08 884.15,-29.92"/>
</g>
<!-- Node46&#45;&gt;Node14 -->
<g id="edge66" class="edge">
<title>Node46&#45;&gt;Node14</title>
<path fill="none" stroke="midnightblue" d="M840.25,-168.44C815.94,-159.27 777.22,-144.64 750.29,-134.47"/>
<polygon fill="midnightblue" stroke="midnightblue" points="751.19,-131.07 740.6,-130.82 748.72,-137.62 751.19,-131.07"/>
</g>
</g>
</svg>
