<?xml version="1.0" encoding="UTF-8" standalone="no"?>
<!DOCTYPE svg PUBLIC "-//W3C//DTD SVG 1.1//EN"
 "http://www.w3.org/Graphics/SVG/1.1/DTD/svg11.dtd">
<!-- Generated by graphviz version 2.43.0 (0)
 -->
<!-- Title: /home/user/project/src/particle/wall.cpp Pages: 1 -->
<svg width="1614pt" height="498pt"
 viewBox="0.00 0.00 1614.00 498.00" xmlns="http://www.w3.org/2000/svg" xmlns:xlink="http://www.w3.org/1999/xlink">
<g id="graph0" class="graph" transform="scale(1 1) rotate(0) translate(4 494)">
<title>/home/user/project/src/particle/wall.cpp</title>
<!-- Node1 -->
<g id="node1" class="node">
<title>Node1</title>
<g id="a_node1"><a xlink:title=" ">
<polygon fill="#bfbfbf" stroke="black" points="355.5,-459.5 355.5,-489.5 462.5,-489.5 462.5,-459.5 355.5,-459.5"/>
<text text-anchor="start" x="363.5" y="-477.5" font-family="Arial" font-size="10.00">/home/user/project</text>
<text text-anchor="middle" x="409" y="-466.5" font-family="Arial" font-size="10.00">/src/particle/wall.cpp</text>
</a>
</g>
</g>
<!-- Node2 -->
<g id="node2" class="node">
<title>Node2</title>
<g id="a_node2"><a xlink:href="wall_8h.html" target="_top" xlink:title=" ">
<polygon fill="none" stroke="black" points="856,-403.5 856,-422.5 898,-422.5 898,-403.5 856,-403.5"/>
<text text-anchor="middle" x="877" y="-410.5" font-family="Arial" font-size="10.00">wall.h</text>
</a>
</g>
</g>
<!-- Node1&#45;&gt;Node2 -->
<g id="edge1" class="edge">
<title>Node1&#45;&gt;Node2</title>
<path fill="none" stroke="midnightblue" d="M462.69,-466.67C561.06,-454.17 767.31,-427.95 845.79,-417.97"/>
<polygon fill="midnightblue" stroke="midnightblue" points="846.51,-421.4 855.99,-416.67 845.63,-414.46 846.51,-421.4"/>
</g>
<!-- Node6 -->
<g id="node6" class="node">
<title>Node6</title>
<g id="a_node6"><a xlink:href="io_8h.html" target="_top" xlink:title=" ">
<polygon fill="none" stroke="red" points="907,-112.5 907,-131.5 955,-131.5 955,-112.5 907,-112.5"/>
<text text-anchor="middle" x="931" y="-119.5" font-family="Arial" font-size="10.00">util/io.h</text>
</a>
</g>
</g>
<!-- Node1&#45;&gt;Node6 -->
<g id="edge71" class="edge">
<title>Node1&#45;&gt;Node6</title>
<path fill="none" stroke="midnightblue" d="M454.36,-459.39C497.54,-443.65 561.23,-414.03 598,-367 654.52,-294.72 584.23,-228.75 653,-168 692.15,-133.42 829.19,-142.2 896.72,-131.77"/>
<polygon fill="midnightblue" stroke="midnightblue" points="897.71,-135.15 906.93,-129.92 896.47,-128.26 897.71,-135.15"/>
</g>
<!-- Node27 -->
<g id="node18" class="node">
<title>Node27</title>
<g id="a_node18"><a xlink:href="particleDeck_8h.html" target="_top" xlink:title=" ">
<polygon fill="none" stroke="red" points="1410,-112.5 1410,-131.5 1540,-131.5 1540,-112.5 1410,-112.5"/>
<text text-anchor="middle" x="1475" y="-119.5" font-family="Arial" font-size="10.00">inp/pdecks/particleDeck.h</text>
</a>
</g>
</g>
<!-- Node1&#45;&gt;Node27 -->
<g id="edge67" class="edge">
<title>Node1&#45;&gt;Node27</title>
<path fill="none" stroke="midnightblue" d="M462.62,-473.59C683.71,-473.26 1513,-464.9 1513,-358 1513,-358 1513,-358 1513,-238.5 1513,-202.25 1495.91,-162.67 1484.65,-140.53"/>
<polygon fill="midnightblue" stroke="midnightblue" points="1487.73,-138.87 1479.97,-131.66 1481.54,-142.14 1487.73,-138.87"/>
</g>
<!-- Node38 -->
<g id="node21" class="node">
<title>Node38</title>
<g id="a_node21"><a xlink:href="methods_8h.html" target="_top" xlink:title=" ">
<polygon fill="none" stroke="red" points="142,-112.5 142,-131.5 220,-131.5 220,-112.5 142,-112.5"/>
<text text-anchor="middle" x="181" y="-119.5" font-family="Arial" font-size="10.00">util/methods.h</text>
</a>
</g>
</g>
<!-- Node1&#45;&gt;Node38 -->
<g id="edge72" class="edge">
<title>Node1&#45;&gt;Node38</title>
<path fill="none" stroke="midnightblue" d="M355.11,-469.61C244.05,-460.12 0,-430.95 0,-358 0,-358 0,-358 0,-238.5 0,-175.82 78.1,-145.65 131.7,-132.32"/>
<polygon fill="midnightblue" stroke="midnightblue" points="132.8,-135.66 141.73,-129.95 131.19,-128.85 132.8,-135.66"/>
</g>
<!-- Node43 -->
<g id="node24" class="node">
<title>Node43</title>
<g id="a_node24"><a xlink:href="fracture_8h.html" target="_top" xlink:title=" ">
<polygon fill="none" stroke="black" points="180.5,-230 180.5,-249 281.5,-249 281.5,-230 180.5,-230"/>
<text text-anchor="middle" x="231" y="-237" font-family="Arial" font-size="10.00">geometry/fracture.h</text>
</a>
</g>
</g>
<!-- Node1&#45;&gt;Node43 -->
<g id="edge66" class="edge">
<title>Node1&#45;&gt;Node43</title>
<path fill="none" stroke="midnightblue" d="M355.45,-459.57C334.54,-451.8 311.83,-440.12 296,-423 251.9,-375.32 237.35,-295.73 232.86,-259.5"/>
<polygon fill="midnightblue" stroke="midnightblue" points="236.31,-258.91 231.73,-249.36 229.36,-259.68 236.31,-258.91"/>
</g>
<!-- Node47 -->
<g id="node28" class="node">
<title>Node47</title>
<g id="a_node28"><a xlink:href="mesh_8h.html" target="_top" xlink:title=" ">
<polygon fill="none" stroke="black" points="316,-168.5 316,-187.5 376,-187.5 376,-168.5 316,-168.5"/>
<text text-anchor="middle" x="346" y="-175.5" font-family="Arial" font-size="10.00">fe/mesh.h</text>
</a>
</g>
</g>
<!-- Node1&#45;&gt;Node47 -->
<g id="edge65" class="edge">
<title>Node1&#45;&gt;Node47</title>
<path fill="none" stroke="midnightblue" d="M384.53,-459.36C355.21,-440.37 310,-403.69 310,-358 310,-358 310,-358 310,-300 310,-261.99 326.52,-219.94 337.18,-196.78"/>
<polygon fill="midnightblue" stroke="midnightblue" points="340.44,-198.08 341.59,-187.54 334.12,-195.06 340.44,-198.08"/>
</g>
<!-- Node48 -->
<g id="node29" class="node">
<title>Node48</title>
<g id="a_node29"><a xlink:href="geom_8h.html" target="_top" xlink:title=" ">
<polygon fill="none" stroke="black" points="238.5,-112.5 238.5,-131.5 303.5,-131.5 303.5,-112.5 238.5,-112.5"/>
<text text-anchor="middle" x="271" y="-119.5" font-family="Arial" font-size="10.00">util/geom.h</text>
</a>
</g>
</g>
<!-- Node1&#45;&gt;Node48 -->
<g id="edge68" class="edge">
<title>Node1&#45;&gt;Node48</title>
<path fill="none" stroke="midnightblue" d="M355.24,-463.86C270.15,-447.05 114,-409.22 114,-358 114,-358 114,-358 114,-238.5 114,-206.05 110.66,-191.53 133,-168 146.26,-154.03 192.92,-140.69 228.34,-132.22"/>
<polygon fill="midnightblue" stroke="midnightblue" points="229.52,-135.54 238.46,-129.85 227.92,-128.72 229.52,-135.54"/>
</g>
<!-- Node49 -->
<g id="node30" class="node">
<title>Node49</title>
<g id="a_node30"><a xlink:href="materialUtil_8h.html" target="_top" xlink:title=" ">
<polygon fill="none" stroke="black" points="477,-347.5 477,-366.5 589,-366.5 589,-347.5 477,-347.5"/>
<text text-anchor="middle" x="533" y="-354.5" font-family="Arial" font-size="10.00">material/materialUtil.h</text>
</a>
</g>
</g>
<!-- Node1&#45;&gt;Node49 -->
<g id="edge73" class="edge">
<title>Node1&#45;&gt;Node49</title>
<path fill="none" stroke="midnightblue" d="M424.2,-459.34C447.56,-437.58 492.1,-396.09 516.32,-373.54"/>
<polygon fill="midnightblue" stroke="midnightblue" points="518.76,-376.05 523.69,-366.67 513.99,-370.92 518.76,-376.05"/>
</g>
<!-- Node3 -->
<g id="node3" class="node">
<title>Node3</title>
<g id="a_node3"><a xlink:href="modelData_8h.html" target="_top" xlink:title=" ">
<polygon fill="none" stroke="black" points="826.5,-291.5 826.5,-310.5 927.5,-310.5 927.5,-291.5 826.5,-291.5"/>
<text text-anchor="middle" x="877" y="-298.5" font-family="Arial" font-size="10.00">model/modelData.h</text>
</a>
</g>
</g>
<!-- Node2&#45;&gt;Node3 -->
<g id="edge2" class="edge">
<title>Node2&#45;&gt;Node3</title>
<path fill="none" stroke="midnightblue" d="M877,-403.37C877,-385.62 877,-344.67 877,-320.6"/>
<polygon fill="midnightblue" stroke="midnightblue" points="880.5,-320.59 877,-310.59 873.5,-320.59 880.5,-320.59"/>
</g>
<!-- Node12 -->
<g id="node8" class="node">
<title>Node12</title>
<g id="a_node8"><a xlink:title=" ">
<polygon fill="none" stroke="#bfbfbf" points="909,-0.5 909,-19.5 953,-19.5 953,-0.5 909,-0.5"/>
<text text-anchor="middle" x="931" y="-7.5" font-family="Arial" font-size="10.00">vector</text>
</a>
</g>
</g>
<!-- Node2&#45;&gt;Node12 -->
<g id="edge64" class="edge">
<title>Node2&#45;&gt;Node12</title>
<path fill="none" stroke="midnightblue" d="M898.03,-411.1C1017.56,-405.74 1606,-375.6 1606,-302 1606,-302 1606,-302 1606,-121 1606,-62.68 1547.73,-73.19 1492,-56 1392.13,-25.2 1067.41,-14.45 963.38,-11.75"/>
<polygon fill="midnightblue" stroke="midnightblue" points="963.27,-8.25 953.19,-11.49 963.09,-15.25 963.27,-8.25"/>
</g>
<!-- Node2&#45;&gt;Node27 -->
<g id="edge62" class="edge">
<title>Node2&#45;&gt;Node27</title>
<path fill="none" stroke="midnightblue" d="M898.28,-410.39C1004.81,-402.06 1475,-361.91 1475,-302 1475,-302 1475,-302 1475,-238.5 1475,-204.36 1475,-164.55 1475,-141.71"/>
<polygon fill="midnightblue" stroke="midnightblue" points="1478.5,-141.69 1475,-131.69 1471.5,-141.69 1478.5,-141.69"/>
</g>
<!-- Node45 -->
<g id="node26" class="node">
<title>Node45</title>
<g id="a_node26"><a xlink:title=" ">
<polygon fill="none" stroke="#bfbfbf" points="248.5,-168.5 248.5,-187.5 297.5,-187.5 297.5,-168.5 248.5,-168.5"/>
<text text-anchor="middle" x="273" y="-175.5" font-family="Arial" font-size="10.00">string.h</text>
</a>
</g>
</g>
<!-- Node2&#45;&gt;Node45 -->
<g id="edge63" class="edge">
<title>Node2&#45;&gt;Node45</title>
<path fill="none" stroke="midnightblue" d="M855.81,-411.77C779.22,-410.65 517.43,-404.13 444,-367 365.57,-327.34 305.66,-235.57 282.94,-196.8"/>
<polygon fill="midnightblue" stroke="midnightblue" points="285.76,-194.69 277.75,-187.75 279.68,-198.17 285.76,-194.69"/>
</g>
<!-- Node46 -->
<g id="node27" class="node">
<title>Node46</title>
<g id="a_node27"><a xlink:href="baseParticle_8h.html" target="_top" xlink:title=" ">
<polygon fill="none" stroke="black" points="967.5,-347.5 967.5,-366.5 1046.5,-366.5 1046.5,-347.5 967.5,-347.5"/>
<text text-anchor="middle" x="1007" y="-354.5" font-family="Arial" font-size="10.00">baseParticle.h</text>
</a>
</g>
</g>
<!-- Node2&#45;&gt;Node46 -->
<g id="edge53" class="edge">
<title>Node2&#45;&gt;Node46</title>
<path fill="none" stroke="midnightblue" d="M897.6,-403.44C918.99,-394.56 952.68,-380.56 977.02,-370.45"/>
<polygon fill="midnightblue" stroke="midnightblue" points="978.61,-373.58 986.5,-366.52 975.92,-367.12 978.61,-373.58"/>
</g>
<!-- Node2&#45;&gt;Node47 -->
<g id="edge58" class="edge">
<title>Node2&#45;&gt;Node47</title>
<path fill="none" stroke="midnightblue" d="M855.75,-412.02C781.41,-411.72 533.9,-407.62 468,-367 434.27,-346.21 376.99,-239.5 354.98,-196.75"/>
<polygon fill="midnightblue" stroke="midnightblue" points="358.06,-195.09 350.4,-187.78 351.83,-198.27 358.06,-195.09"/>
</g>
<!-- Node4 -->
<g id="node4" class="node">
<title>Node4</title>
<g id="a_node4"><a xlink:href="material_8h.html" target="_top" xlink:title=" ">
<polygon fill="none" stroke="black" points="960,-224.5 960,-254.5 1054,-254.5 1054,-224.5 960,-224.5"/>
<text text-anchor="start" x="968" y="-242.5" font-family="Arial" font-size="10.00">material/mparticle</text>
<text text-anchor="middle" x="1007" y="-231.5" font-family="Arial" font-size="10.00">/material.h</text>
</a>
</g>
</g>
<!-- Node3&#45;&gt;Node4 -->
<g id="edge3" class="edge">
<title>Node3&#45;&gt;Node4</title>
<path fill="none" stroke="midnightblue" d="M895.63,-291.48C914.22,-282.96 943.38,-269.62 967.2,-258.72"/>
<polygon fill="midnightblue" stroke="midnightblue" points="968.73,-261.87 976.36,-254.52 965.81,-255.5 968.73,-261.87"/>
</g>
<!-- Node3&#45;&gt;Node12 -->
<g id="edge52" class="edge">
<title>Node3&#45;&gt;Node12</title>
<path fill="none" stroke="midnightblue" d="M927.72,-295.06C1033.51,-283.34 1268,-249.44 1268,-179 1268,-179 1268,-179 1268,-121 1268,-57.26 1047.36,-24.65 963.14,-14.53"/>
<polygon fill="midnightblue" stroke="midnightblue" points="963.45,-11.04 953.11,-13.35 962.64,-17.99 963.45,-11.04"/>
</g>
<!-- Node24 -->
<g id="node15" class="node">
<title>Node24</title>
<g id="a_node15"><a xlink:href="input_8h.html" target="_top" xlink:title=" ">
<polygon fill="none" stroke="black" points="1296,-168.5 1296,-187.5 1358,-187.5 1358,-168.5 1296,-168.5"/>
<text text-anchor="middle" x="1327" y="-175.5" font-family="Arial" font-size="10.00">inp/input.h</text>
</a>
</g>
</g>
<!-- Node3&#45;&gt;Node24 -->
<g id="edge23" class="edge">
<title>Node3&#45;&gt;Node24</title>
<path fill="none" stroke="midnightblue" d="M927.72,-299.9C1023.06,-298.82 1224.58,-292.09 1282,-255 1302.58,-241.71 1315,-215.41 1321.43,-197.52"/>
<polygon fill="midnightblue" stroke="midnightblue" points="1324.8,-198.47 1324.61,-187.88 1318.15,-196.28 1324.8,-198.47"/>
</g>
<!-- Node25 -->
<g id="node16" class="node">
<title>Node25</title>
<g id="a_node16"><a xlink:href="particleFLoading_8h.html" target="_top" xlink:title=" ">
<polygon fill="none" stroke="black" points="812,-230 812,-249 942,-249 942,-230 812,-230"/>
<text text-anchor="middle" x="877" y="-237" font-family="Arial" font-size="10.00">loading/particleFLoading.h</text>
</a>
</g>
</g>
<!-- Node3&#45;&gt;Node25 -->
<g id="edge27" class="edge">
<title>Node3&#45;&gt;Node25</title>
<path fill="none" stroke="midnightblue" d="M877,-291.48C877,-283.08 877,-269.98 877,-259.16"/>
<polygon fill="midnightblue" stroke="midnightblue" points="880.5,-259.01 877,-249.01 873.5,-259.01 880.5,-259.01"/>
</g>
<!-- Node36 -->
<g id="node19" class="node">
<title>Node36</title>
<g id="a_node19"><a xlink:href="particleULoading_8h.html" target="_top" xlink:title=" ">
<polygon fill="none" stroke="black" points="662.5,-230 662.5,-249 793.5,-249 793.5,-230 662.5,-230"/>
<text text-anchor="middle" x="728" y="-237" font-family="Arial" font-size="10.00">loading/particleULoading.h</text>
</a>
</g>
</g>
<!-- Node3&#45;&gt;Node36 -->
<g id="edge34" class="edge">
<title>Node3&#45;&gt;Node36</title>
<path fill="none" stroke="midnightblue" d="M855.65,-291.48C830.31,-281.36 787.86,-264.4 758.93,-252.85"/>
<polygon fill="midnightblue" stroke="midnightblue" points="759.89,-249.47 749.31,-249.01 757.3,-255.97 759.89,-249.47"/>
</g>
<!-- Node37 -->
<g id="node20" class="node">
<title>Node37</title>
<g id="a_node20"><a xlink:href="nsearch_8h.html" target="_top" xlink:title=" ">
<polygon fill="none" stroke="black" points="432.5,-168.5 432.5,-187.5 529.5,-187.5 529.5,-168.5 432.5,-168.5"/>
<text text-anchor="middle" x="481" y="-175.5" font-family="Arial" font-size="10.00">nsearch/nsearch.h</text>
</a>
</g>
</g>
<!-- Node3&#45;&gt;Node37 -->
<g id="edge37" class="edge">
<title>Node3&#45;&gt;Node37</title>
<path fill="none" stroke="midnightblue" d="M826.39,-293.06C780.46,-286 711.23,-273.47 653,-255 598.9,-237.84 538.96,-208.94 506.06,-192.16"/>
<polygon fill="midnightblue" stroke="midnightblue" points="507.63,-189.03 497.14,-187.56 504.43,-195.25 507.63,-189.03"/>
</g>
<!-- Node3&#45;&gt;Node43 -->
<g id="edge47" class="edge">
<title>Node3&#45;&gt;Node43</title>
<path fill="none" stroke="midnightblue" d="M826.31,-295.33C709,-284.53 419.16,-257.83 292.21,-246.14"/>
<polygon fill="midnightblue" stroke="midnightblue" points="292.18,-242.62 281.9,-245.19 291.54,-249.59 292.18,-242.62"/>
</g>
<!-- Node5 -->
<g id="node5" class="node">
<title>Node5</title>
<g id="a_node5"><a xlink:href="influenceFn_8h.html" target="_top" xlink:title=" ">
<polygon fill="none" stroke="red" points="1126.5,-168.5 1126.5,-187.5 1201.5,-187.5 1201.5,-168.5 1126.5,-168.5"/>
<text text-anchor="middle" x="1164" y="-175.5" font-family="Arial" font-size="10.00">influenceFn.h</text>
</a>
</g>
</g>
<!-- Node4&#45;&gt;Node5 -->
<g id="edge4" class="edge">
<title>Node4&#45;&gt;Node5</title>
<path fill="none" stroke="midnightblue" d="M1044.21,-224.4C1070.78,-214.33 1106.19,-200.91 1131.61,-191.28"/>
<polygon fill="midnightblue" stroke="midnightblue" points="1133.04,-194.47 1141.16,-187.66 1130.56,-187.93 1133.04,-194.47"/>
</g>
<!-- Node7 -->
<g id="node7" class="node">
<title>Node7</title>
<g id="a_node7"><a xlink:href="point_8h.html" target="_top" xlink:title=" ">
<polygon fill="none" stroke="red" points="490,-56.5 490,-75.5 536,-75.5 536,-56.5 490,-56.5"/>
<text text-anchor="middle" x="513" y="-63.5" font-family="Arial" font-size="10.00">point.h</text>
</a>
</g>
</g>
<!-- Node4&#45;&gt;Node7 -->
<g id="edge18" class="edge">
<title>Node4&#45;&gt;Node7</title>
<path fill="none" stroke="midnightblue" d="M959.98,-226.19C956.94,-225.44 953.93,-224.7 951,-224 878.42,-206.64 855.43,-217.77 787,-188 759.76,-176.15 703.93,-124.55 677,-112 633.83,-91.88 579.95,-79.25 545.99,-72.66"/>
<polygon fill="midnightblue" stroke="midnightblue" points="546.61,-69.21 536.13,-70.8 545.31,-76.09 546.61,-69.21"/>
</g>
<!-- Node4&#45;&gt;Node12 -->
<g id="edge22" class="edge">
<title>Node4&#45;&gt;Node12</title>
<path fill="none" stroke="midnightblue" d="M1054.22,-239.39C1123.95,-238.74 1242.98,-228.98 1211,-168 1190.68,-129.24 1087.73,-76.39 1049,-56 1021.16,-41.34 987.45,-28.98 963.21,-20.94"/>
<polygon fill="midnightblue" stroke="midnightblue" points="964.03,-17.53 953.44,-17.77 961.87,-24.19 964.03,-17.53"/>
</g>
<!-- Node20 -->
<g id="node10" class="node">
<title>Node20</title>
<g id="a_node10"><a xlink:href="materialDeck_8h.html" target="_top" xlink:title=" ">
<polygon fill="none" stroke="red" points="942,-168.5 942,-187.5 1070,-187.5 1070,-168.5 942,-168.5"/>
<text text-anchor="middle" x="1006" y="-175.5" font-family="Arial" font-size="10.00">inp/decks/materialDeck.h</text>
</a>
</g>
</g>
<!-- Node4&#45;&gt;Node20 -->
<g id="edge11" class="edge">
<title>Node4&#45;&gt;Node20</title>
<path fill="none" stroke="midnightblue" d="M1006.76,-224.4C1006.63,-216.47 1006.46,-206.46 1006.32,-197.86"/>
<polygon fill="midnightblue" stroke="midnightblue" points="1009.81,-197.6 1006.15,-187.66 1002.81,-197.72 1009.81,-197.6"/>
</g>
<!-- Node15 -->
<g id="node11" class="node">
<title>Node15</title>
<g id="a_node11"><a xlink:title=" ">
<polygon fill="none" stroke="#bfbfbf" points="847.5,-112.5 847.5,-131.5 888.5,-131.5 888.5,-112.5 847.5,-112.5"/>
<text text-anchor="middle" x="868" y="-119.5" font-family="Arial" font-size="10.00">string</text>
</a>
</g>
</g>
<!-- Node4&#45;&gt;Node15 -->
<g id="edge21" class="edge">
<title>Node4&#45;&gt;Node15</title>
<path fill="none" stroke="midnightblue" d="M983.87,-224.3C968.86,-214.71 949.17,-201.4 933,-188 914.48,-172.65 895.24,-152.84 882.54,-139.15"/>
<polygon fill="midnightblue" stroke="midnightblue" points="884.88,-136.52 875.55,-131.51 879.72,-141.25 884.88,-136.52"/>
</g>
<!-- Node21 -->
<g id="node12" class="node">
<title>Node21</title>
<g id="a_node12"><a xlink:href="function_8h.html" target="_top" xlink:title=" ">
<polygon fill="none" stroke="black" points="1011.5,-112.5 1011.5,-131.5 1086.5,-131.5 1086.5,-112.5 1011.5,-112.5"/>
<text text-anchor="middle" x="1049" y="-119.5" font-family="Arial" font-size="10.00">util/function.h</text>
</a>
</g>
</g>
<!-- Node4&#45;&gt;Node21 -->
<g id="edge15" class="edge">
<title>Node4&#45;&gt;Node21</title>
<path fill="none" stroke="midnightblue" d="M1039.59,-224.44C1054.47,-216.16 1070.62,-204.12 1079,-188 1087.47,-171.72 1076.19,-152.59 1065.12,-139.32"/>
<polygon fill="midnightblue" stroke="midnightblue" points="1067.39,-136.61 1058.09,-131.54 1062.19,-141.3 1067.39,-136.61"/>
</g>
<!-- Node22 -->
<g id="node13" class="node">
<title>Node22</title>
<g id="a_node13"><a xlink:title=" ">
<polygon fill="none" stroke="#bfbfbf" points="662,-168.5 662,-187.5 702,-187.5 702,-168.5 662,-168.5"/>
<text text-anchor="middle" x="682" y="-175.5" font-family="Arial" font-size="10.00">limits</text>
</a>
</g>
</g>
<!-- Node4&#45;&gt;Node22 -->
<g id="edge19" class="edge">
<title>Node4&#45;&gt;Node22</title>
<path fill="none" stroke="midnightblue" d="M959.71,-225.95C956.77,-225.26 953.85,-224.61 951,-224 864.92,-205.69 762.04,-190.25 712.13,-183.16"/>
<polygon fill="midnightblue" stroke="midnightblue" points="712.41,-179.67 702.02,-181.74 711.44,-186.6 712.41,-179.67"/>
</g>
<!-- Node23 -->
<g id="node14" class="node">
<title>Node23</title>
<g id="a_node14"><a xlink:title=" ">
<polygon fill="none" stroke="#bfbfbf" points="1356,-56.5 1356,-75.5 1408,-75.5 1408,-56.5 1356,-56.5"/>
<text text-anchor="middle" x="1382" y="-63.5" font-family="Arial" font-size="10.00">memory</text>
</a>
</g>
</g>
<!-- Node4&#45;&gt;Node23 -->
<g id="edge20" class="edge">
<title>Node4&#45;&gt;Node23</title>
<path fill="none" stroke="midnightblue" d="M1054.26,-238.71C1141.83,-238.05 1324.34,-231.35 1367,-188 1393.63,-160.94 1390.31,-112.39 1385.93,-85.76"/>
<polygon fill="midnightblue" stroke="midnightblue" points="1389.35,-85 1384.08,-75.81 1382.47,-86.28 1389.35,-85"/>
</g>
<!-- Node5&#45;&gt;Node6 -->
<g id="edge5" class="edge">
<title>Node5&#45;&gt;Node6</title>
<path fill="none" stroke="midnightblue" d="M1127.08,-168.44C1082.53,-158.12 1008.25,-140.9 965.03,-130.89"/>
<polygon fill="midnightblue" stroke="midnightblue" points="965.8,-127.47 955.27,-128.62 964.22,-134.29 965.8,-127.47"/>
</g>
<!-- Node5&#45;&gt;Node12 -->
<g id="edge10" class="edge">
<title>Node5&#45;&gt;Node12</title>
<path fill="none" stroke="midnightblue" d="M1155.53,-168.22C1142.98,-155.37 1118.5,-130.91 1096,-112 1063.88,-85 1055.73,-77.99 1020,-56 1000.47,-43.98 977.32,-32.35 959.52,-23.93"/>
<polygon fill="midnightblue" stroke="midnightblue" points="960.79,-20.65 950.25,-19.59 957.83,-27 960.79,-20.65"/>
</g>
<!-- Node19 -->
<g id="node9" class="node">
<title>Node19</title>
<g id="a_node9"><a xlink:title=" ">
<polygon fill="none" stroke="#bfbfbf" points="1194,-112.5 1194,-131.5 1240,-131.5 1240,-112.5 1194,-112.5"/>
<text text-anchor="middle" x="1217" y="-119.5" font-family="Arial" font-size="10.00">cstring</text>
</a>
</g>
</g>
<!-- Node5&#45;&gt;Node19 -->
<g id="edge9" class="edge">
<title>Node5&#45;&gt;Node19</title>
<path fill="none" stroke="midnightblue" d="M1172.75,-168.08C1180.47,-160.22 1191.9,-148.57 1201.22,-139.08"/>
<polygon fill="midnightblue" stroke="midnightblue" points="1203.9,-141.34 1208.41,-131.75 1198.91,-136.44 1203.9,-141.34"/>
</g>
<!-- Node6&#45;&gt;Node7 -->
<g id="edge6" class="edge">
<title>Node6&#45;&gt;Node7</title>
<path fill="none" stroke="midnightblue" d="M906.95,-113.99C903.95,-113.25 900.92,-112.56 898,-112 769.39,-87.09 613.76,-74.04 546.56,-69.22"/>
<polygon fill="midnightblue" stroke="midnightblue" points="546.41,-65.7 536.18,-68.49 545.91,-72.69 546.41,-65.7"/>
</g>
<!-- Node6&#45;&gt;Node12 -->
<g id="edge8" class="edge">
<title>Node6&#45;&gt;Node12</title>
<path fill="none" stroke="midnightblue" d="M931,-112.37C931,-94.62 931,-53.67 931,-29.6"/>
<polygon fill="midnightblue" stroke="midnightblue" points="934.5,-29.59 931,-19.59 927.5,-29.59 934.5,-29.59"/>
</g>
<!-- Node7&#45;&gt;Node12 -->
<g id="edge7" class="edge">
<title>Node7&#45;&gt;Node12</title>
<path fill="none" stroke="midnightblue" d="M536.07,-62.02C606.26,-52.95 817.37,-25.68 898.63,-15.18"/>
<polygon fill="midnightblue" stroke="midnightblue" points="899.3,-18.62 908.77,-13.87 898.4,-11.68 899.3,-18.62"/>
</g>
<!-- Node20&#45;&gt;Node6 -->
<g id="edge12" class="edge">
<title>Node20&#45;&gt;Node6</title>
<path fill="none" stroke="midnightblue" d="M993.95,-168.32C982.54,-160.11 965.17,-147.6 951.57,-137.81"/>
<polygon fill="midnightblue" stroke="midnightblue" points="953.43,-134.84 943.27,-131.83 949.34,-140.52 953.43,-134.84"/>
</g>
<!-- Node20&#45;&gt;Node12 -->
<g id="edge14" class="edge">
<title>Node20&#45;&gt;Node12</title>
<path fill="none" stroke="midnightblue" d="M1001.97,-168.08C990.11,-141.83 955.19,-64.55 939.19,-29.12"/>
<polygon fill="midnightblue" stroke="midnightblue" points="942.18,-27.24 934.87,-19.57 935.8,-30.12 942.18,-27.24"/>
</g>
<!-- Node20&#45;&gt;Node15 -->
<g id="edge13" class="edge">
<title>Node20&#45;&gt;Node15</title>
<path fill="none" stroke="midnightblue" d="M984.13,-168.44C960.95,-159.37 924.17,-144.98 898.22,-134.83"/>
<polygon fill="midnightblue" stroke="midnightblue" points="899.45,-131.55 888.86,-131.16 896.9,-138.07 899.45,-131.55"/>
</g>
<!-- Node21&#45;&gt;Node7 -->
<g id="edge16" class="edge">
<title>Node21&#45;&gt;Node7</title>
<path fill="none" stroke="midnightblue" d="M1011.35,-116.96C996.58,-115.39 979.5,-113.59 964,-112 807.7,-95.93 620.84,-77.55 546.19,-70.24"/>
<polygon fill="midnightblue" stroke="midnightblue" points="546.3,-66.74 536,-69.25 545.61,-73.7 546.3,-66.74"/>
</g>
<!-- Node21&#45;&gt;Node12 -->
<g id="edge17" class="edge">
<title>Node21&#45;&gt;Node12</title>
<path fill="none" stroke="midnightblue" d="M1043.31,-112.33C1034.44,-99.19 1016.29,-73.88 997,-56 984.23,-44.17 968.11,-33.12 955,-24.93"/>
<polygon fill="midnightblue" stroke="midnightblue" points="956.44,-21.71 946.08,-19.5 952.8,-27.69 956.44,-21.71"/>
</g>
<!-- Node24&#45;&gt;Node12 -->
<g id="edge25" class="edge">
<title>Node24&#45;&gt;Node12</title>
<path fill="none" stroke="midnightblue" d="M1326.66,-168.24C1325.26,-145.57 1318.16,-84.71 1282,-56 1233.06,-17.14 1040.25,-11.62 963.13,-11"/>
<polygon fill="midnightblue" stroke="midnightblue" points="963.07,-7.5 953.05,-10.94 963.02,-14.5 963.07,-7.5"/>
</g>
<!-- Node24&#45;&gt;Node15 -->
<g id="edge24" class="edge">
<title>Node24&#45;&gt;Node15</title>
<path fill="none" stroke="midnightblue" d="M1295.77,-174.49C1213.49,-167.75 991.31,-148.78 898.42,-131.63"/>
<polygon fill="midnightblue" stroke="midnightblue" points="899.01,-128.18 888.53,-129.71 897.68,-135.05 899.01,-128.18"/>
</g>
<!-- Node24&#45;&gt;Node23 -->
<g id="edge26" class="edge">
<title>Node24&#45;&gt;Node23</title>
<path fill="none" stroke="midnightblue" d="M1331.32,-168.37C1340.31,-150.38 1361.22,-108.55 1373.19,-84.63"/>
<polygon fill="midnightblue" stroke="midnightblue" points="1376.36,-86.1 1377.7,-75.59 1370.1,-82.97 1376.36,-86.1"/>
</g>
<!-- Node25&#45;&gt;Node7 -->
<g id="edge33" class="edge">
<title>Node25&#45;&gt;Node7</title>
<path fill="none" stroke="midnightblue" d="M851.27,-229.84C825.84,-220.85 786.19,-205.64 754,-188 702.53,-159.79 698.34,-138.57 646,-112 613.62,-95.56 573.89,-83.02 546.33,-75.4"/>
<polygon fill="midnightblue" stroke="midnightblue" points="546.96,-71.95 536.4,-72.73 545.14,-78.71 546.96,-71.95"/>
</g>
<!-- Node26 -->
<g id="node17" class="node">
<title>Node26</title>
<g id="a_node17"><a xlink:href="particleLoading_8h.html" target="_top" xlink:title=" ">
<polygon fill="none" stroke="black" points="796,-168.5 796,-187.5 886,-187.5 886,-168.5 796,-168.5"/>
<text text-anchor="middle" x="841" y="-175.5" font-family="Arial" font-size="10.00">particleLoading.h</text>
</a>
</g>
</g>
<!-- Node25&#45;&gt;Node26 -->
<g id="edge28" class="edge">
<title>Node25&#45;&gt;Node26</title>
<path fill="none" stroke="midnightblue" d="M871.84,-229.98C866.55,-221.23 858.16,-207.37 851.47,-196.31"/>
<polygon fill="midnightblue" stroke="midnightblue" points="854.32,-194.25 846.15,-187.51 848.33,-197.88 854.32,-194.25"/>
</g>
<!-- Node26&#45;&gt;Node12 -->
<g id="edge30" class="edge">
<title>Node26&#45;&gt;Node12</title>
<path fill="none" stroke="midnightblue" d="M838.41,-168.22C835.09,-155.38 830.61,-130.94 838,-112 852.52,-74.79 887.89,-43.01 910.58,-25.5"/>
<polygon fill="midnightblue" stroke="midnightblue" points="912.68,-28.3 918.59,-19.51 908.49,-22.7 912.68,-28.3"/>
</g>
<!-- Node26&#45;&gt;Node15 -->
<g id="edge29" class="edge">
<title>Node26&#45;&gt;Node15</title>
<path fill="none" stroke="midnightblue" d="M845.46,-168.08C849.15,-160.69 854.52,-149.95 859.09,-140.81"/>
<polygon fill="midnightblue" stroke="midnightblue" points="862.28,-142.26 863.62,-131.75 856.02,-139.13 862.28,-142.26"/>
</g>
<!-- Node26&#45;&gt;Node27 -->
<g id="edge31" class="edge">
<title>Node26&#45;&gt;Node27</title>
<path fill="none" stroke="midnightblue" d="M886.38,-172.43C901.23,-170.97 917.82,-169.37 933,-168 1099.54,-152.94 1295.05,-137.18 1399.75,-128.9"/>
<polygon fill="midnightblue" stroke="midnightblue" points="1400.2,-132.37 1409.9,-128.09 1399.65,-125.39 1400.2,-132.37"/>
</g>
<!-- Node27&#45;&gt;Node23 -->
<g id="edge32" class="edge">
<title>Node27&#45;&gt;Node23</title>
<path fill="none" stroke="midnightblue" d="M1460.06,-112.32C1445.41,-103.82 1422.87,-90.73 1405.76,-80.8"/>
<polygon fill="midnightblue" stroke="midnightblue" points="1407.31,-77.65 1396.9,-75.65 1403.8,-83.7 1407.31,-77.65"/>
</g>
<!-- Node36&#45;&gt;Node7 -->
<g id="edge36" class="edge">
<title>Node36&#45;&gt;Node7</title>
<path fill="none" stroke="midnightblue" d="M708.88,-229.89C692.04,-221.43 667.93,-207.01 653,-188 630.77,-159.69 650.08,-137.82 625,-112 603.92,-90.3 570.99,-78.76 546.29,-72.83"/>
<polygon fill="midnightblue" stroke="midnightblue" points="546.78,-69.35 536.26,-70.61 545.27,-76.19 546.78,-69.35"/>
</g>
<!-- Node36&#45;&gt;Node26 -->
<g id="edge35" class="edge">
<title>Node36&#45;&gt;Node26</title>
<path fill="none" stroke="midnightblue" d="M744.19,-229.98C762.9,-220.12 793.92,-203.79 815.8,-192.27"/>
<polygon fill="midnightblue" stroke="midnightblue" points="817.62,-195.27 824.84,-187.51 814.36,-189.07 817.62,-195.27"/>
</g>
<!-- Node37&#45;&gt;Node7 -->
<g id="edge38" class="edge">
<title>Node37&#45;&gt;Node7</title>
<path fill="none" stroke="midnightblue" d="M475.41,-168.29C467.97,-155.53 456.68,-131.19 465,-112 470.27,-99.84 480.62,-89.46 490.36,-81.74"/>
<polygon fill="midnightblue" stroke="midnightblue" points="492.64,-84.41 498.63,-75.67 488.5,-78.77 492.64,-84.41"/>
</g>
<!-- Node37&#45;&gt;Node12 -->
<g id="edge44" class="edge">
<title>Node37&#45;&gt;Node12</title>
<path fill="none" stroke="midnightblue" d="M510.44,-168.49C539.69,-159.88 585.73,-145.88 625,-132 727.68,-95.71 847.12,-46.37 901.42,-23.54"/>
<polygon fill="midnightblue" stroke="midnightblue" points="902.93,-26.7 910.78,-19.59 900.21,-20.25 902.93,-26.7"/>
</g>
<!-- Node37&#45;&gt;Node15 -->
<g id="edge43" class="edge">
<title>Node37&#45;&gt;Node15</title>
<path fill="none" stroke="midnightblue" d="M529.84,-170C534.62,-169.32 539.4,-168.65 544,-168 651.73,-152.82 779.67,-135.16 837.24,-127.23"/>
<polygon fill="midnightblue" stroke="midnightblue" points="837.72,-130.7 847.15,-125.87 836.76,-123.76 837.72,-130.7"/>
</g>
<!-- Node37&#45;&gt;Node38 -->
<g id="edge39" class="edge">
<title>Node37&#45;&gt;Node38</title>
<path fill="none" stroke="midnightblue" d="M432.67,-168.5C384.1,-159.92 306.82,-146.2 230.32,-132.23"/>
<polygon fill="midnightblue" stroke="midnightblue" points="230.49,-128.7 220.03,-130.35 229.23,-135.59 230.49,-128.7"/>
</g>
<!-- Node40 -->
<g id="node22" class="node">
<title>Node40</title>
<g id="a_node22"><a xlink:title=" ">
<polygon fill="none" stroke="#bfbfbf" points="570,-112.5 570,-131.5 616,-131.5 616,-112.5 570,-112.5"/>
<text text-anchor="middle" x="593" y="-119.5" font-family="Arial" font-size="10.00">cstdint</text>
</a>
</g>
</g>
<!-- Node37&#45;&gt;Node40 -->
<g id="edge42" class="edge">
<title>Node37&#45;&gt;Node40</title>
<path fill="none" stroke="midnightblue" d="M498.99,-168.32C517.04,-159.62 545.05,-146.12 565.8,-136.11"/>
<polygon fill="midnightblue" stroke="midnightblue" points="567.56,-139.15 575.05,-131.65 564.52,-132.84 567.56,-139.15"/>
</g>
<!-- Node41 -->
<g id="node23" class="node">
<title>Node41</title>
<g id="a_node23"><a xlink:href="nflannSetup_8h.html" target="_top" xlink:title=" ">
<polygon fill="none" stroke="red" points="474.5,-112.5 474.5,-131.5 551.5,-131.5 551.5,-112.5 474.5,-112.5"/>
<text text-anchor="middle" x="513" y="-119.5" font-family="Arial" font-size="10.00">nflannSetup.h</text>
</a>
</g>
</g>
<!-- Node37&#45;&gt;Node41 -->
<g id="edge45" class="edge">
<title>Node37&#45;&gt;Node41</title>
<path fill="none" stroke="midnightblue" d="M486.28,-168.08C490.71,-160.61 497.16,-149.72 502.62,-140.52"/>
<polygon fill="midnightblue" stroke="midnightblue" points="505.73,-142.14 507.81,-131.75 499.71,-138.57 505.73,-142.14"/>
</g>
<!-- Node38&#45;&gt;Node7 -->
<g id="edge40" class="edge">
<title>Node38&#45;&gt;Node7</title>
<path fill="none" stroke="midnightblue" d="M220.02,-113.59C223.05,-113.04 226.08,-112.51 229,-112 319.43,-96.36 426.43,-79.98 479.58,-71.98"/>
<polygon fill="midnightblue" stroke="midnightblue" points="480.4,-75.4 489.77,-70.45 479.36,-68.48 480.4,-75.4"/>
</g>
<!-- Node38&#45;&gt;Node12 -->
<g id="edge41" class="edge">
<title>Node38&#45;&gt;Node12</title>
<path fill="none" stroke="midnightblue" d="M204.06,-112.5C243.71,-98.26 327.61,-69.81 401,-56 587.27,-20.95 815.55,-13.18 898.74,-11.47"/>
<polygon fill="midnightblue" stroke="midnightblue" points="898.89,-14.97 908.82,-11.28 898.76,-7.97 898.89,-14.97"/>
</g>
<!-- Node41&#45;&gt;Node7 -->
<g id="edge46" class="edge">
<title>Node41&#45;&gt;Node7</title>
<path fill="none" stroke="midnightblue" d="M513,-112.08C513,-105.01 513,-94.86 513,-85.99"/>
<polygon fill="midnightblue" stroke="midnightblue" points="516.5,-85.75 513,-75.75 509.5,-85.75 516.5,-85.75"/>
</g>
<!-- Node43&#45;&gt;Node7 -->
<g id="edge48" class="edge">
<title>Node43&#45;&gt;Node7</title>
<path fill="none" stroke="midnightblue" d="M229.39,-229.68C227.27,-215.25 225.27,-186.34 239,-168 254.1,-147.84 410.87,-98.11 480.26,-76.88"/>
<polygon fill="midnightblue" stroke="midnightblue" points="481.29,-80.22 489.84,-73.96 479.25,-73.52 481.29,-80.22"/>
</g>
<!-- Node43&#45;&gt;Node12 -->
<g id="edge51" class="edge">
<title>Node43&#45;&gt;Node12</title>
<path fill="none" stroke="midnightblue" d="M199.48,-229.97C177.62,-222.45 149.58,-209.29 133,-188 95.64,-140.02 114.39,-82.75 169,-56 235.19,-23.58 761.83,-13.52 898.62,-11.44"/>
<polygon fill="midnightblue" stroke="midnightblue" points="898.92,-14.94 908.86,-11.29 898.81,-7.94 898.92,-14.94"/>
</g>
<!-- Node44 -->
<g id="node25" class="node">
<title>Node44</title>
<g id="a_node25"><a xlink:title=" ">
<polygon fill="none" stroke="#bfbfbf" points="142.5,-168.5 142.5,-187.5 191.5,-187.5 191.5,-168.5 142.5,-168.5"/>
<text text-anchor="middle" x="167" y="-175.5" font-family="Arial" font-size="10.00">stdint.h</text>
</a>
</g>
</g>
<!-- Node43&#45;&gt;Node44 -->
<g id="edge49" class="edge">
<title>Node43&#45;&gt;Node44</title>
<path fill="none" stroke="midnightblue" d="M221.83,-229.98C211.85,-220.7 195.69,-205.67 183.49,-194.33"/>
<polygon fill="midnightblue" stroke="midnightblue" points="185.86,-191.75 176.15,-187.51 181.09,-196.88 185.86,-191.75"/>
</g>
<!-- Node43&#45;&gt;Node45 -->
<g id="edge50" class="edge">
<title>Node43&#45;&gt;Node45</title>
<path fill="none" stroke="midnightblue" d="M237.02,-229.98C243.26,-221.14 253.17,-207.09 261.02,-195.98"/>
<polygon fill="midnightblue" stroke="midnightblue" points="264.09,-197.7 266.99,-187.51 258.37,-193.66 264.09,-197.7"/>
</g>
<!-- Node46&#45;&gt;Node3 -->
<g id="edge55" class="edge">
<title>Node46&#45;&gt;Node3</title>
<path fill="none" stroke="midnightblue" d="M986.4,-347.44C965.01,-338.56 931.32,-324.56 906.98,-314.45"/>
<polygon fill="midnightblue" stroke="midnightblue" points="908.08,-311.12 897.5,-310.52 905.39,-317.58 908.08,-311.12"/>
</g>
<!-- Node46&#45;&gt;Node4 -->
<g id="edge54" class="edge">
<title>Node46&#45;&gt;Node4</title>
<path fill="none" stroke="midnightblue" d="M1007,-347.32C1007,-329.97 1007,-290.46 1007,-264.66"/>
<polygon fill="midnightblue" stroke="midnightblue" points="1010.5,-264.55 1007,-254.55 1003.5,-264.55 1010.5,-264.55"/>
</g>
<!-- Node46&#45;&gt;Node12 -->
<g id="edge57" class="edge">
<title>Node46&#45;&gt;Node12</title>
<path fill="none" stroke="midnightblue" d="M1046.99,-353.9C1191.73,-344.73 1673.32,-299.79 1549,-112 1483.53,-13.11 1080.74,-9.42 963.18,-10.49"/>
<polygon fill="midnightblue" stroke="midnightblue" points="962.98,-6.99 953.02,-10.6 963.06,-13.99 962.98,-6.99"/>
</g>
<!-- Node46&#45;&gt;Node19 -->
<g id="edge56" class="edge">
<title>Node46&#45;&gt;Node19</title>
<path fill="none" stroke="midnightblue" d="M1046.72,-353.74C1130.04,-346.48 1319.31,-315.96 1367,-188 1385.19,-139.19 1300.2,-126.96 1250.63,-123.94"/>
<polygon fill="midnightblue" stroke="midnightblue" points="1250.51,-120.43 1240.34,-123.42 1250.15,-127.42 1250.51,-120.43"/>
</g>
<!-- Node47&#45;&gt;Node7 -->
<g id="edge59" class="edge">
<title>Node47&#45;&gt;Node7</title>
<path fill="none" stroke="midnightblue" d="M350.37,-168.17C357.63,-154.34 373.42,-127.58 394,-112 419.54,-92.66 454.33,-80.79 479.69,-74.14"/>
<polygon fill="midnightblue" stroke="midnightblue" points="480.73,-77.48 489.59,-71.68 479.04,-70.69 480.73,-77.48"/>
</g>
<!-- Node47&#45;&gt;Node12 -->
<g id="edge61" class="edge">
<title>Node47&#45;&gt;Node12</title>
<path fill="none" stroke="midnightblue" d="M315.87,-170.17C312.54,-169.43 309.2,-168.69 306,-168 227.01,-150.9 84.84,-176.9 133,-112 184.19,-43.01 233.54,-71.68 318,-56 537.25,-15.29 807.03,-11.06 898.74,-10.88"/>
<polygon fill="midnightblue" stroke="midnightblue" points="898.79,-14.38 908.78,-10.87 898.78,-7.38 898.79,-14.38"/>
</g>
<!-- Node47&#45;&gt;Node15 -->
<g id="edge60" class="edge">
<title>Node47&#45;&gt;Node15</title>
<path fill="none" stroke="midnightblue" d="M376.34,-173.34C390.51,-171.66 407.61,-169.68 423,-168 578.29,-151.07 764.32,-132.96 836.88,-125.98"/>
<polygon fill="midnightblue" stroke="midnightblue" points="837.52,-129.43 847.14,-124.99 836.85,-122.47 837.52,-129.43"/>
</g>
<!-- Node48&#45;&gt;Node7 -->
<g id="edge69" class="edge">
<title>Node48&#45;&gt;Node7</title>
<path fill="none" stroke="midnightblue" d="M303.64,-113.72C349.82,-103.41 433.75,-84.68 480.08,-74.35"/>
<polygon fill="midnightblue" stroke="midnightblue" points="480.92,-77.75 489.91,-72.15 479.39,-70.91 480.92,-77.75"/>
</g>
<!-- Node48&#45;&gt;Node12 -->
<g id="edge70" class="edge">
<title>Node48&#45;&gt;Node12</title>
<path fill="none" stroke="midnightblue" d="M293.3,-112.47C331.24,-98.32 411.05,-70.17 481,-56 635.39,-24.72 824.18,-14.83 898.62,-12.01"/>
<polygon fill="midnightblue" stroke="midnightblue" points="898.89,-15.51 908.76,-11.65 898.64,-8.51 898.89,-15.51"/>
</g>
<!-- Node49&#45;&gt;Node3 -->
<g id="edge77" class="edge">
<title>Node49&#45;&gt;Node3</title>
<path fill="none" stroke="midnightblue" d="M587.51,-347.44C649.82,-337.66 751.54,-321.69 816.32,-311.53"/>
<polygon fill="midnightblue" stroke="midnightblue" points="817.05,-314.95 826.39,-309.94 815.97,-308.04 817.05,-314.95"/>
</g>
<!-- Node49&#45;&gt;Node4 -->
<g id="edge75" class="edge">
<title>Node49&#45;&gt;Node4</title>
<path fill="none" stroke="midnightblue" d="M569.11,-347.48C639.97,-330.73 802.44,-292.09 949.83,-255.27"/>
<polygon fill="midnightblue" stroke="midnightblue" points="951.11,-258.56 959.96,-252.74 949.41,-251.77 951.11,-258.56"/>
</g>
<!-- Node49&#45;&gt;Node7 -->
<g id="edge74" class="edge">
<title>Node49&#45;&gt;Node7</title>
<path fill="none" stroke="midnightblue" d="M524.72,-347.49C502.82,-324.32 443.63,-257.16 423,-188 409.65,-143.24 458.61,-102.11 489.52,-81.28"/>
<polygon fill="midnightblue" stroke="midnightblue" points="491.59,-84.11 498.07,-75.72 487.78,-78.24 491.59,-84.11"/>
</g>
<!-- Node49&#45;&gt;Node12 -->
<g id="edge80" class="edge">
<title>Node49&#45;&gt;Node12</title>
<path fill="none" stroke="midnightblue" d="M476.91,-351.43C401.55,-342.96 266.11,-319.35 171,-255 96.68,-204.72 62.4,-105.85 137,-56 201.12,-13.15 758.13,-10.82 898.83,-10.92"/>
<polygon fill="midnightblue" stroke="midnightblue" points="898.95,-14.42 908.96,-10.93 898.96,-7.42 898.95,-14.42"/>
</g>
<!-- Node49&#45;&gt;Node15 -->
<g id="edge79" class="edge">
<title>Node49&#45;&gt;Node15</title>
<path fill="none" stroke="midnightblue" d="M532.26,-347.25C530.24,-317.12 528,-216.91 582,-168 619.06,-134.44 771.21,-125.86 837.22,-123.71"/>
<polygon fill="midnightblue" stroke="midnightblue" points="837.51,-127.2 847.4,-123.4 837.31,-120.2 837.51,-127.2"/>
</g>
<!-- Node49&#45;&gt;Node22 -->
<g id="edge78" class="edge">
<title>Node49&#45;&gt;Node22</title>
<path fill="none" stroke="midnightblue" d="M540.53,-347.42C548.42,-338.39 561.15,-323.76 572,-311 607.08,-269.72 647.74,-220.59 668.41,-195.51"/>
<polygon fill="midnightblue" stroke="midnightblue" points="671.19,-197.64 674.85,-187.7 665.79,-193.19 671.19,-197.64"/>
</g>
<!-- Node49&#45;&gt;Node43 -->
<g id="edge76" class="edge">
<title>Node49&#45;&gt;Node43</title>
<path fill="none" stroke="midnightblue" d="M510.3,-347.32C457.16,-326.99 324.51,-276.26 263.12,-252.78"/>
<polygon fill="midnightblue" stroke="midnightblue" points="264.14,-249.43 253.55,-249.12 261.64,-255.97 264.14,-249.43"/>
</g>
</g>
</svg>
