$MeshFormat
2.2 0 8
$EndMeshFormat
$Nodes
84
1 -0.00040000000000000002 0 0
2 0.00040000000000000002 0 0
3 0 0.0011999999999999999 0
4 -0.00030000000000018564 0 0
5 -0.00020000000000049823 0 0
6 -0.00010000000000077904 0 0
7 -1.0493992827487197e-15 0 0
8 9.9999999999210367e-05 0 0
9 0.0001999999999994806 0 0
10 0.00029999999999975093 0 0
11 0.00036923076923082966 9.2307692307511051e-05 0
12 0.00033846153846166336 0.00018461538461500991 0
13 0.00030769230769253625 0.00027692307692239125 0
14 0.0002769230769234265 0.00036923076922972057 0
15 0.00024615384615425966 0.00046153846153722098 0
16 0.00021538461538510558 0.00055384615384468318 0
17 0.00018461538461586572 0.00064615384615240282 0
18 0.00015384615384655438 0.00073846153846033691 0
19 0.00012307692307724958 0.00083076923076825116 0
20 9.2307692307938539e-05 0.00092307692307618428 0
21 6.1538461538619097e-05 0.0010153846153841426 0
22 3.0769230769308979e-05 0.001107692307692073 0
23 -3.0769230769185577e-05 0.0011076923076924431 0
24 -6.1538461538349429e-05 0.0010153846153849516 0
25 -9.2307692307461408e-05 0.00092307692307761575 0
26 -0.00012307692307656439 0.00083076923077030681 0
27 -0.00015384615384572939 0.00073846153846281182 0
28 -0.0001846153846148804 0.00064615384615535878 0
29 -0.00021538461538412226 0.00055384615384763318 0
30 -0.00024615384615343561 0.00046153846153969313 0
31 -0.00027692307692274242 0.00036923076923177269 0
32 -0.00030769230769205546 0.00027692307692383361 0
33 -0.00033846153846137686 0.00018461538461586949 0
34 -0.00036923076923068903 9.2307692307933009e-05 0
35 3.0288545839127043e-06 0.00029558355188288047 0
36 -1.4533617184441886e-16 0.00051674907964562077 0
37 0.00015545897452064872 0.00017461289495098974 0
38 -0.00015275546784136997 0.00017541187100484333 0
39 1.9144299860662795e-16 0.000674136404660848 0
40 0.00010654721467389557 0.00039850891861754764 0
41 -0.00010654721467392982 0.00039850891861768198 0
42 9.6167078438570596e-06 0.00014423076923073317 0
43 2.0382987402197764e-16 0.00079408906992892571 0
44 0.00016292305387108637 0.0002959030356512777 0
45 -0.00016264718584272557 0.00029598456382075268 0
46 0.00025412217437169549 0.00010475325497596698 0
47 -0.00025274523075592687 0.00010528756326542186 0
48 -7.5096467243345293e-05 0.00058422852151169408 0
49 7.5096467243116228e-05 0.00058422852151167153 0
50 3.7860682296948219e-07 0.00039895234825705985 0
51 0.00013898870410173562 0.00049504149737805855 0
52 -0.00013898870410205359 0.0004950414973789078 0
53 -6.3868199118141997e-05 9.2644661399636112e-05 0
54 9.5562872704409339e-05 9.7654509154810446e-05 0
55 -7.5532882614116377e-05 0.00025078274884892255 0
56 8.6236153381137089e-05 0.00025099768093679944 0
57 -5.4434583048060094e-08 0.00089415266852648455 0
58 0.0002440469608293842 0.00022405387412920933 0
59 -0.00024332090777535762 0.00022428967621538126 0
60 -3.0771918691068599e-16 0.0010461538461542109 0
61 6.8482751083083219e-05 0.00074899754721169159 0
62 -6.8482751082459857e-05 0.00074899754721216593 0
63 0.00019534903732762479 0.00038928825654988383 0
64 -0.00019531619589548886 0.00038929796228593327 0
65 -0.00016620327877025525 7.888655022492567e-05 0
66 -4.5739779151732218e-17 0.00058983563183245857 0
67 0.00010636886605096625 0.00066740966899281567 0
68 -0.00010636886604974156 0.00066740966899319298 0
69 -5.1419492645017367e-05 0.00017615839905471607 0
70 0.00016696002378860765 7.5669227214575141e-05 0
71 7.1822776666600232e-05 0.00032798910706911301 0
72 -6.8263964344777908e-05 0.00032796242628545952 0
73 -3.6496469817780572e-07 0.00097016737803846151 0
74 -6.1971043558505293e-05 0.00046732115990470155 0
75 6.202623405722154e-05 0.00046732115990427237 0
76 1.6729753457783512e-05 0.00021597728355671113 0
77 2.5385622949618425e-05 7.0743377896232939e-05 0
78 5.3622862017783918e-05 0.00084941041254079524 0
79 -5.3622862017016262e-05 0.00084941041254072889 0
80 7.8264459926778799e-05 0.00016806130268566682 0
81 0.00015160907405009703 0.0005838696913484134 0
82 -0.0001516090740501043 0.00058386969135169702 0
83 0.00023974026696591547 0.00031006145825738911 0
84 -0.00023959244374939309 0.00031010817768582967 0
$EndNodes
$Elements
132
1 2 2 0 1 34 4 47
2 2 2 0 1 10 11 46
3 2 2 0 1 22 3 23
4 2 2 0 1 49 36 75
5 2 2 0 1 36 48 74
6 2 2 0 1 15 51 63
7 2 2 0 1 52 30 64
8 2 2 0 1 51 49 75
9 2 2 0 1 48 52 74
10 2 2 0 1 11 12 46
11 2 2 0 1 33 34 47
12 2 2 0 1 6 7 53
13 2 2 0 1 4 5 47
14 2 2 0 1 9 10 46
15 2 2 0 1 44 37 58
16 2 2 0 1 38 45 59
17 2 2 0 1 53 7 77
18 2 2 0 1 15 16 51
19 2 2 0 1 29 30 52
20 2 2 0 1 39 43 62
21 2 2 0 1 43 39 61
22 2 2 0 1 51 40 63
23 2 2 0 1 41 52 64
24 2 2 0 1 41 45 72
25 2 2 0 1 44 40 71
26 2 2 0 1 37 44 56
27 2 2 0 1 45 38 55
28 2 2 0 1 40 44 63
29 2 2 0 1 45 41 64
30 2 2 0 1 46 12 58
31 2 2 0 1 33 47 59
32 2 2 0 1 37 46 58
33 2 2 0 1 47 38 59
34 2 2 0 1 35 55 76
35 2 2 0 1 55 69 76
36 2 2 0 1 11 10 2
37 2 2 0 1 4 34 1
38 2 2 0 1 39 49 67
39 2 2 0 1 48 39 68
40 2 2 0 1 46 37 70
41 2 2 0 1 38 47 65
42 2 2 0 1 26 62 79
43 2 2 0 1 61 19 78
44 2 2 0 1 9 46 70
45 2 2 0 1 47 5 65
46 2 2 0 1 39 48 66
47 2 2 0 1 49 39 66
48 2 2 0 1 48 36 66
49 2 2 0 1 36 49 66
50 2 2 0 1 21 22 60
51 2 2 0 1 23 24 60
52 2 2 0 1 26 27 62
53 2 2 0 1 18 19 61
54 2 2 0 1 45 55 72
55 2 2 0 1 56 44 71
56 2 2 0 1 50 35 71
57 2 2 0 1 35 50 72
58 2 2 0 1 44 58 83
59 2 2 0 1 59 45 84
60 2 2 0 1 42 53 77
61 2 2 0 1 20 21 73
62 2 2 0 1 12 13 58
63 2 2 0 1 32 33 59
64 2 2 0 1 43 61 78
65 2 2 0 1 62 43 79
66 2 2 0 1 57 20 73
67 2 2 0 1 40 50 71
68 2 2 0 1 50 41 72
69 2 2 0 1 6 53 65
70 2 2 0 1 53 38 65
71 2 2 0 1 24 25 73
72 2 2 0 1 25 57 73
73 2 2 0 1 61 39 67
74 2 2 0 1 39 62 68
75 2 2 0 1 5 6 65
76 2 2 0 1 37 54 70
77 2 2 0 1 8 9 70
78 2 2 0 1 54 8 70
79 2 2 0 1 22 23 60
80 2 2 0 1 50 36 74
81 2 2 0 1 36 50 75
82 2 2 0 1 41 50 74
83 2 2 0 1 50 40 75
84 2 2 0 1 7 8 77
85 2 2 0 1 8 54 77
86 2 2 0 1 32 59 84
87 2 2 0 1 58 13 83
88 2 2 0 1 14 15 63
89 2 2 0 1 30 31 64
90 2 2 0 1 29 52 82
91 2 2 0 1 51 16 81
92 2 2 0 1 52 48 82
93 2 2 0 1 49 51 81
94 2 2 0 1 45 64 84
95 2 2 0 1 63 44 83
96 2 2 0 1 38 53 69
97 2 2 0 1 40 51 75
98 2 2 0 1 52 41 74
99 2 2 0 1 53 42 69
100 2 2 0 1 27 28 68
101 2 2 0 1 17 18 67
102 2 2 0 1 14 63 83
103 2 2 0 1 64 31 84
104 2 2 0 1 55 38 69
105 2 2 0 1 25 26 79
106 2 2 0 1 19 20 78
107 2 2 0 1 37 56 80
108 2 2 0 1 35 56 71
109 2 2 0 1 55 35 72
110 2 2 0 1 57 25 79
111 2 2 0 1 20 57 78
112 2 2 0 1 62 27 68
113 2 2 0 1 18 61 67
114 2 2 0 1 17 67 81
115 2 2 0 1 68 28 82
116 2 2 0 1 67 49 81
117 2 2 0 1 48 68 82
118 2 2 0 1 69 42 76
119 2 2 0 1 16 17 81
120 2 2 0 1 28 29 82
121 2 2 0 1 56 35 76
122 2 2 0 1 31 32 84
123 2 2 0 1 13 14 83
124 2 2 0 1 54 42 77
125 2 2 0 1 54 37 80
126 2 2 0 1 42 54 80
127 2 2 0 1 57 43 78
128 2 2 0 1 43 57 79
129 2 2 0 1 56 76 80
130 2 2 0 1 21 60 73
131 2 2 0 1 60 24 73
132 2 2 0 1 76 42 80
$EndElements
