$MeshFormat
2.2 0 8
$EndMeshFormat
$Nodes
318
1 0.0018 0 0
2 0.002 0 0
3 0.0019 0 0
4 0.0017940033097243186 9.9502128522408045e-05 0
5 0.0017762351836927148 0.0001975911970102845 0
6 0.001747319772725597 0.0002929957463275076 0
7 0.0017081759328946482 0.00038468590186550302 0
8 0.0016598842605720279 0.00047191259949340463 0
9 0.0016035671930920894 0.00055419359379697548 0
10 0.0015403029307741497 0.00063126800337315488 0
11 0.0014710758268394008 0.00070304079640278133 0
12 0.0013967555684075079 0.00076953119570151961 0
13 0.0013180953019209087 0.00083083081934134592 0
14 0.0012357399234079476 0.00088707281132181684 0
15 0.0011502388736843712 0.00093841032741312394 0
16 0.0010620601459847821 0.00098500216860840568 0
17 0.00097160345726187943 0.0010270037080218799 0
18 0.0008792120418168733 0.0010645613248481346 0
19 0.00078518281119069572 0.00109780919169812 0
20 0.00068977495193351128 0.001126867576260714 0
21 0.00059321703409717576 0.0011518421156623934 0
22 0.00049571307714351938 0.0011728236085838896 0
23 0.00039744755086622166 0.0011898881516208978 0
24 0.0002985896779254445 0.001203097406027693 0
25 0.00019929712043593068 0.0012124989157496237 0
26 9.9719233681421204e-05 0.0012181264024990566 0
27 2.5082999451135996e-18 0.0012199999999999999 0
28 -9.971923368141539e-05 0.0012181264024990566 0
29 -0.00019929712043592569 0.0012124989157496239 0
30 -0.00029858967792543956 0.0012030974060276936 0
31 -0.00039744755086621635 0.0011898881516208986 0
32 -0.00049571307714351418 0.0011728236085838907 0
33 -0.00059321703409717023 0.0011518421156623947 0
34 -0.00068977495193350629 0.0011268675762607155 0
35 -0.00078518281119069008 0.0010978091916981219 0
36 -0.00087921204181687243 0.0010645613248481348 0
37 -0.00097160345726187336 0.0010270037080218825 0
38 -0.0010620601459847777 0.00098500216860840785 0
39 -0.0011502388736843634 0.0009384103274131286 0
40 -0.0012357399234079408 0.00088707281132182107 0
41 -0.0013180953019209032 0.00083083081934135004 0
42 -0.001396755568407505 0.00076953119570152221 0
43 -0.001471075826839398 0.00070304079640278437 0
44 -0.0015403029307741469 0.00063126800337315824 0
45 -0.0016035671930920855 0.00055419359379698079 0
46 -0.001659884260572025 0.0004719125994934094 0
47 -0.0017081759328946469 0.00038468590186550606 0
48 -0.0017473197727255986 0.00029299574632750305 0
49 -0.0017762351836927155 0.00019759119701028227 0
50 -0.0017940033097243189 9.9502128522404901e-05 0
51 -0.0018 -3.6431149426235578e-18 0
52 -0.0017940033097243182 -9.9502128522410552e-05 0
53 -0.0017762351836927137 -0.0001975911970102884 0
54 -0.0017473197727255962 -0.00029299574632750961 0
55 -0.0017081759328946441 -0.00038468590186551197 0
56 -0.0016598842605720216 -0.00047191259949341466 0
57 -0.0016035671930920811 -0.00055419359379698632 0
58 -0.0015403029307741423 -0.00063126800337316312 0
59 -0.0014710758268393935 -0.0007030407964027886 0
60 -0.0013967555684075003 -0.00076953119570152611 0
61 -0.001318095301920898 -0.00083083081934135362 0
62 -0.0012357399234079356 -0.00088707281132182464 0
63 -0.0011502388736843586 -0.00093841032741313109 0
64 -0.0010620601459847723 -0.00098500216860841067 0
65 -0.00097160345726186978 -0.001027003708021884 0
66 -0.0008792120418168694 -0.0010645613248481361 0
67 -0.00078518281119068693 -0.0010978091916981228 0
68 -0.00068977495193349968 -0.0011268675762607172 0
69 -0.0005932170340971621 -0.0011518421156623967 0
70 -0.00049571307714350312 -0.0011728236085838928 0
71 -0.00039744755086620589 -0.0011898881516209004 0
72 -0.00029858967792543089 -0.0012030974060276947 0
73 -0.00019929712043591422 -0.0012124989157496248 0
74 -9.9719233681408247e-05 -0.001218126402499057 0
75 4.4655088306108908e-18 -0.0012199999999999999 0
76 9.9719233681417165e-05 -0.0012181264024990566 0
77 0.00019929712043592466 -0.0012124989157496239 0
78 0.00029858967792543815 -0.0012030974060276936 0
79 0.00039744755086621456 -0.0011898881516208988 0
80 0.00049571307714351158 -0.0011728236085838911 0
81 0.00059321703409717045 -0.0011518421156623947 0
82 0.00068977495193350933 -0.0011268675762607146 0
83 0.00078518281119069485 -0.0010978091916981204 0
84 0.00087921204181688132 -0.0010645613248481314 0
85 0.00097160345726189081 -0.0010270037080218749 0
86 0.0010620601459847949 -0.00098500216860839939 0
87 0.0011502388736843853 -0.00093841032741311613 0
88 0.0012357399234079578 -0.00088707281132181033 0
89 0.001318095301920921 -0.00083083081934133703 0
90 0.00139675556840752 -0.00076953119570150963 0
91 0.0014710758268394221 -0.00070304079640276106 0
92 0.0015403029307741651 -0.00063126800337313753 0
93 0.0016035671930920994 -0.00055419359379696215 0
94 0.0016598842605720322 -0.00047191259949339758 0
95 0.0017081759328946477 -0.00038468590186550416 0
96 0.0017473197727255986 -0.00029299574632750321 0
97 0.0017762351836927166 -0.0001975911970102771 0
98 0.0017940033097243191 -9.9502128522404508e-05 0
99 0.0019949422251462072 9.9502281285721803e-05 0
100 0.0019798985484722298 0.00019799204908582424 0
101 0.0019552408688202371 0.00029452714815207052 0
102 0.001921537329005237 0.00038829139017922614 0
103 0.0018794901570792109 0.00047862637539813668 0
104 0.001829871793578409 0.00056503886356816795 0
105 0.0017734702047750642 0.00064718906206748814 0
106 0.0017110486461389119 0.00072486767065971182 0
107 0.0016433200234272497 0.00079796908291957099 0
108 0.001570933828761605 0.00086646510822402877 0
109 0.0014944717962150416 0.00093038243999750739 0
110 0.0014144492202654098 0.00098978450564371902 0
111 0.0013313198386631759 0.0010447573252765968 0
112 0.0012454819655029993 0.0010953992833973032 0
113 0.0011572852485171896 0.0011418136968203735 0
114 0.0010670373537567683 0.0011841035976581605 0
115 0.00097500980312574634 0.001222368349993675 0
116 0.00088144362045901282 0.0012567012375805685 0
117 0.00078655404986388317 0.0012871880344591984 0
118 0.00069053478256227228 0.0013139061001057576 0
119 0.00059356157440857847 0.0013369238879304044 0
120 0.00049579545059545455 0.0013563006919089648 0
121 0.0003973854713495122 0.0013720865664048167 0
122 0.00029847118060003446 0.0013843223351633458 0
123 0.00019918480916595146 0.001393039644726878 0
124 9.9653268849241456e-05 0.0013982610345510433 0
125 -7.8711410973863914e-18 0.0014 0
126 -9.9653268849257624e-05 0.0013982610345510428 0
127 -0.00019918480916596756 0.0013930396447268769 0
128 -0.00029847118060005089 0.001384322335163344 0
129 -0.00039738547134952846 0.0013720865664048143 0
130 -0.00049579545059547016 0.0013563006919089619 0
131 -0.0005935615744085956 0.0013369238879304007 0
132 -0.00069053478256229245 0.0013139061001057523 0
133 -0.00078655404986390334 0.0012871880344591923 0
134 -0.0008814436204590306 0.0012567012375805625 0
135 -0.00097500980312576673 0.0012223683499936672 0
136 -0.0010670373537567926 0.0011841035976581499 0
137 -0.0011572852485172145 0.0011418136968203614 0
138 -0.0012454819655030238 0.0010953992833972895 0
139 -0.0013313198386631971 0.0010447573252765838 0
140 -0.0014144492202654299 0.00098978450564370514 0
141 -0.0014944717962150596 0.00093038243999749341 0
142 -0.0015709338287616223 0.00086646510822401348 0
143 -0.0016433200234272653 0.00079796908291955527 0
144 -0.0017110486461389266 0.0007248676706596949 0
145 -0.0017734702047750791 0.00064718906206746819 0
146 -0.001829871793578422 0.00056503886356814768 0
147 -0.0018794901570792204 0.00047862637539811836 0
148 -0.0019215373290052448 0.00038829139017920684 0
149 -0.0019552408688202449 0.00029452714815204504 0
150 -0.0019798985484722354 0.000197992049085796 0
151 -0.0019949422251462103 9.9502281285693519e-05 0
152 -0.002 -2.9671344350043579e-17 0
153 -0.0019949422251462037 -9.9502281285752703e-05 0
154 -0.0019798985484722237 -0.00019799204908585414 0
155 -0.0019552408688202272 -0.0002945271481521018 0
156 -0.0019215373290052218 -0.00038829139017926268 0
157 -0.0018794901570791931 -0.00047862637539817062 0
158 -0.0018298717935783899 -0.00056503886356819852 0
159 -0.0017734702047750436 -0.00064718906206751589 0
160 -0.0017110486461388871 -0.00072486767065974022 0
161 -0.0016433200234272237 -0.00079796908291959745 0
162 -0.0015709338287615783 -0.00086646510822405284 0
163 -0.001494471796215015 -0.00093038243999752843 0
164 -0.0014144492202653762 -0.00098978450564374265 0
165 -0.0013313198386631505 -0.001044757325276613 0
166 -0.0012454819655029735 -0.0010953992833973175 0
167 -0.001157285248517162 -0.0011418136968203874 0
168 -0.0010670373537567434 -0.0011841035976581716 0
169 -0.00097500980312572379 -0.0012223683499936839 0
170 -0.00088144362045899276 -0.0012567012375805755 0
171 -0.00078655404986386289 -0.0012871880344592045 0
172 -0.00069053478256225786 -0.0013139061001057612 0
173 -0.00059356157440856048 -0.0013369238879304083 0
174 -0.00049579545059543449 -0.0013563006919089682 0
175 -0.00039738547134949155 -0.0013720865664048198 0
176 -0.00029847118060000703 -0.0013843223351633488 0
177 -0.00019918480916592964 -0.0013930396447268795 0
178 -9.965326884922396e-05 -0.0013982610345510439 0
179 2.0948888033058801e-17 -0.0014 0
180 9.965326884926581e-05 -0.0013982610345510424 0
181 0.00019918480916597132 -0.0013930396447268765 0
182 0.00029847118060005024 -0.001384322335163344 0
183 0.00039738547134953432 -0.0013720865664048137 0
184 0.00049579545059547678 -0.0013563006919089606 0
185 0.00059356157440860048 -0.0013369238879303996 0
186 0.00069053478256229722 -0.001313906100105751 0
187 0.00078655404986390312 -0.0012871880344591925 0
188 0.0008814436204590319 -0.001256701237580562 0
189 0.00097500980312576336 -0.0012223683499936683 0
190 0.0010670373537567817 -0.0011841035976581547 0
191 0.0011572852485171989 -0.001141813696820369 0
192 0.0012454819655030103 -0.0010953992833972969 0
193 0.0013313198386631876 -0.0010447573252765896 0
194 0.0014144492202654221 -0.00098978450564371034 0
195 0.001494471796215054 -0.00093038243999749785 0
196 0.0015709338287616173 -0.00086646510822401804 0
197 0.001643320023427264 -0.00079796908291955636 0
198 0.0017110486461389279 -0.00072486767065969349 0
199 0.0017734702047750748 -0.00064718906206747383 0
200 0.0018298717935784185 -0.00056503886356815288 0
201 0.0018794901570792194 -0.00047862637539812026 0
202 0.0019215373290052409 -0.000388291390179216 0
203 0.0019552408688202406 -0.00029452714815205919 0
204 0.0019798985484722311 -0.00019799204908581711 0
205 0.0019949422251462081 -9.9502281285714146e-05 0
206 -0.001871365352963643 -5.4224888909055258e-05 0
207 -0.0018737349199801179 5.4491628025297976e-05 0
208 -0.0017689508660391575 -0.00047429727266594038 0
209 0.0017689508660391686 0.00047429727266591875 0
210 0.0017689508660391753 -0.00047429727266590845 0
211 -0.0017689508660391744 0.00047429727266591127 0
212 0.0018137097700405475 0.00037403229282317082 0
213 -0.0018137097700405501 0.00037403229282316719 0
214 0.0018137097700405512 -0.0003740322928231673 0
215 -0.0018137097700405443 -0.00037403229282318291 0
216 0.0018657764194224774 -0.00016205243664245463 0
217 -0.0018713824715352774 -0.00016637119442449173 0
218 0.0018657764194224763 0.00016205243664245991 0
219 -0.0018717209811090663 0.00016640930001251471 0
220 0.0018443982516973894 -0.00027033434903721981 0
221 -0.0018443982516973885 0.00027033434903722301 0
222 0.0018443982516973885 0.00027033434903722469 0
223 -0.001844398251697387 -0.00027033434903722876 0
224 0.0017077888344083354 -0.00056090590081152639 0
225 -0.0017077888344083209 -0.00056090590081155653 0
226 0.0017077888344083304 0.00056090590081154113 0
227 -0.0017077888344083317 0.00056090590081154059 0
228 -0.0012406915466358463 -0.00099092399376331849 0
229 0.0012406915466358637 0.00099092399376330634 0
230 0.0012406915466358756 -0.00099092399376329897 0
231 -0.0012406915466358726 0.00099092399376330136 0
232 -0.0013253743005140987 0.00093282674129142808 0
233 0.0013253743005140987 0.00093282674129142689 0
234 0.0013253743005141108 -0.00093282674129141995 0
235 -0.0013253743005140839 -0.00093282674129143816 0
236 0.0016386816839465222 -0.00064751780022555706 0
237 -0.0016386816839465044 -0.00064751780022558828 0
238 0.0016386816839465135 0.00064751780022557776 0
239 -0.0016386816839465083 0.00064751780022558362 0
240 4.9823082082691542e-05 -0.001307517726049263 0
241 -4.9823082082684603e-05 0.0013075177260492637 0
242 -0.001410511655928441 0.0008683017564613748 0
243 0.0014105116559284441 0.00086830175646137068 0
244 -0.001410511655928435 -0.00086830175646137946 0
245 0.0014105116559284612 -0.00086830175646136526 0
246 -0.0011483192601955698 -0.0010385241161949439 0
247 0.0011483192601955973 -0.0010385241161949299 0
248 0.0011483192601955843 0.001038524116194937 0
249 -0.001148319260195582 0.0010385241161949374 0
250 0.001567845043391785 -0.00072710548261343676 0
251 -0.0015678450433917663 0.00072710548261346246 0
252 -0.0015678450433917605 -0.00072710548261346766 0
253 0.00156784504339177 0.00072710548261345985 0
254 -0.0014914969893043866 0.00080064801709134141 0
255 0.0014914969893043899 0.00080064801709133816 0
256 -0.0014914969893043833 -0.00080064801709134369 0
257 0.00149149698930441 -0.00080064801709132461 0
258 0.00015438172063053212 -0.0013015495871705734 0
259 -0.00015438172063053174 0.0013015495871705747 0
260 -0.00015438172063052231 -0.0013015495871705747 0
261 -5.0655190179739573e-05 -0.0013075757917116566 0
262 0.00015438172063053678 0.0013015495871705743 0
263 5.0655190179751581e-05 0.0013075757917116564 0
264 -0.0010532059693839774 -0.0010843402282484976 0
265 0.0010532059693840012 -0.0010843402282484902 0
266 0.0010532059693839884 0.0010843402282484944 0
267 -0.0010532059693839828 0.0010843402282484957 0
268 -0.00025707537760467041 0.0012936827644309938 0
269 0.00025707537760466932 -0.0012936827644309938 0
270 0.00025707537760467637 0.0012936827644309886 0
271 -0.00025707537760466108 -0.0012936827644309881 0
272 -0.00095759382852655473 -0.0011249599948412561 0
273 0.00095759382852656037 0.0011249599948412504 0
274 0.00095759382852657067 -0.001124959994841245 0
275 -0.00095759382852655581 0.0011249599948412504 0
276 0.00035930693015601541 -0.0012809743741338763 0
277 -0.00035930693015601747 0.0012809743741338745 0
278 0.00035930693015602153 0.0012809743741338708 0
279 -0.00035930693015600581 -0.0012809743741338732 0
280 -0.00086037076407229822 -0.0011608630694148903 0
281 0.00086037076407230494 0.0011608630694148871 0
282 -0.00086037076407230104 0.0011608630694148864 0
283 0.00086037076407230809 -0.001160863069414884 0
284 0.0004610324117516336 -0.0012645777388897903 0
285 -0.00046103241175163496 0.0012645777388897896 0
286 0.0004610324117516406 0.0012645777388897864 0
287 -0.00046103241175162422 -0.001264577738889789 0
288 0.00056213362283342267 0.0012444411860361407 0
289 -0.00056213362283341812 0.0012444411860361426 0
290 0.0005621336228334166 -0.0012444411860361426 0
291 -0.0005621336228334076 -0.0012444411860361431 0
292 0.00076194604952748693 0.0011926718282779043 0
293 -0.00076194604952748129 0.0011926718282779056 0
294 -0.00076194604952747533 -0.0011926718282779072 0
295 0.00076194604952748454 -0.0011926718282779041 0
296 0.00066248385350105494 -0.0012204992496979426 0
297 -0.00066248385350104648 -0.0012204992496979441 0
298 -0.00066248385350105299 0.0012204992496979432 0
299 0.00066248385350105949 0.0012204992496979415 0
300 0.0019091018109807793 8.6362028588441101e-05 0
301 0.0019091018109807828 -8.6362028588438458e-05 0
302 -0.0019113533804898243 0.00023109479343958885 0
303 0.0019098312117034508 -0.00022982300371842952 0
304 0.0019098312117034515 0.00022982300371843971 0
305 -0.0019113102032482553 -0.00023108993303296864 0
306 -0.0019239454424932294 0.00011513074468816198 0
307 -0.0019239454424932185 -0.00011513074468816827 0
308 -0.0018751072582568807 -0.00033553801395293242 0
309 0.0018751072582568798 0.00033553801395291963 0
310 0.0018751072582568803 -0.00033553801395291459 0
311 -0.001875107258256879 0.00033553801395291247 0
312 -0.0016395732638068425 0.00072071116176355705 0
313 0.0016395732638068512 -0.0007207111617635294 0
314 0.0016395732638068376 0.00072071116176354892 0
315 -0.0016395732638068206 -0.00072071116176355618 0
316 -0.0019286662021125436 -4.8061805055622569e-18 0
317 0.0018469666196864526 -5.2762300534596139e-05 0
318 0.0018469666196864508 5.2762300534596836e-05 0
$EndNodes
$Elements
432
1 2 2 0 1 172 294 171
2 2 2 0 1 118 292 117
3 2 2 0 1 187 295 186
4 2 2 0 1 133 293 132
5 2 2 0 1 172 297 294
6 2 2 0 1 118 299 292
7 2 2 0 1 295 296 186
8 2 2 0 1 293 298 132
9 2 2 0 1 162 256 252
10 2 2 0 1 250 257 196
11 2 2 0 1 108 255 253
12 2 2 0 1 251 254 142
13 2 2 0 1 162 252 161
14 2 2 0 1 197 250 196
15 2 2 0 1 108 253 107
16 2 2 0 1 143 251 142
17 2 2 0 1 227 239 145
18 2 2 0 1 224 236 199
19 2 2 0 1 105 238 226
20 2 2 0 1 159 237 225
21 2 2 0 1 283 295 188
22 2 2 0 1 282 293 134
23 2 2 0 1 116 292 281
24 2 2 0 1 170 294 280
25 2 2 0 1 145 239 144
26 2 2 0 1 199 236 198
27 2 2 0 1 106 238 105
28 2 2 0 1 160 237 159
29 2 2 0 1 291 297 173
30 2 2 0 1 288 299 119
31 2 2 0 1 131 298 289
32 2 2 0 1 185 296 290
33 2 2 0 1 134 293 133
34 2 2 0 1 188 295 187
35 2 2 0 1 117 292 116
36 2 2 0 1 171 294 170
37 2 2 0 1 173 297 172
38 2 2 0 1 119 299 118
39 2 2 0 1 186 296 185
40 2 2 0 1 132 298 131
41 2 2 0 1 103 212 102
42 2 2 0 1 157 215 156
43 2 2 0 1 202 214 201
44 2 2 0 1 148 213 147
45 2 2 0 1 218 300 100
46 2 2 0 1 204 301 216
47 2 2 0 1 244 256 163
48 2 2 0 1 243 255 109
49 2 2 0 1 195 257 245
50 2 2 0 1 141 254 242
51 2 2 0 1 211 227 146
52 2 2 0 1 210 224 200
53 2 2 0 1 104 226 209
54 2 2 0 1 158 225 208
55 2 2 0 1 208 215 157
56 2 2 0 1 209 212 103
57 2 2 0 1 201 214 210
58 2 2 0 1 147 213 211
59 2 2 0 1 100 300 99
60 2 2 0 1 205 301 204
61 2 2 0 1 274 283 189
62 2 2 0 1 275 282 135
63 2 2 0 1 115 281 273
64 2 2 0 1 169 280 272
65 2 2 0 1 200 224 199
66 2 2 0 1 146 227 145
67 2 2 0 1 105 226 104
68 2 2 0 1 159 225 158
69 2 2 0 1 163 256 162
70 2 2 0 1 109 255 108
71 2 2 0 1 196 257 195
72 2 2 0 1 142 254 141
73 2 2 0 1 286 288 120
74 2 2 0 1 287 291 174
75 2 2 0 1 130 289 285
76 2 2 0 1 184 290 284
77 2 2 0 1 135 282 134
78 2 2 0 1 189 283 188
79 2 2 0 1 116 281 115
80 2 2 0 1 170 280 169
81 2 2 0 1 7 209 8
82 2 2 0 1 94 210 95
83 2 2 0 1 46 211 47
84 2 2 0 1 55 208 56
85 2 2 0 1 120 288 119
86 2 2 0 1 174 291 173
87 2 2 0 1 131 289 130
88 2 2 0 1 185 290 184
89 2 2 0 1 233 243 110
90 2 2 0 1 235 244 164
91 2 2 0 1 194 245 234
92 2 2 0 1 140 242 232
93 2 2 0 1 46 227 211
94 2 2 0 1 94 224 210
95 2 2 0 1 209 226 8
96 2 2 0 1 208 225 56
97 2 2 0 1 267 275 136
98 2 2 0 1 265 274 190
99 2 2 0 1 114 273 266
100 2 2 0 1 168 272 264
101 2 2 0 1 279 287 175
102 2 2 0 1 278 286 121
103 2 2 0 1 129 285 277
104 2 2 0 1 183 284 276
105 2 2 0 1 175 287 174
106 2 2 0 1 121 286 120
107 2 2 0 1 130 285 129
108 2 2 0 1 184 284 183
109 2 2 0 1 136 275 135
110 2 2 0 1 190 274 189
111 2 2 0 1 115 273 114
112 2 2 0 1 169 272 168
113 2 2 0 1 164 244 163
114 2 2 0 1 110 243 109
115 2 2 0 1 195 245 194
116 2 2 0 1 141 242 140
117 2 2 0 1 55 215 208
118 2 2 0 1 7 212 209
119 2 2 0 1 210 214 95
120 2 2 0 1 211 213 47
121 2 2 0 1 249 267 137
122 2 2 0 1 113 266 248
123 2 2 0 1 247 265 191
124 2 2 0 1 167 264 246
125 2 2 0 1 99 300 2
126 2 2 0 1 2 301 205
127 2 2 0 1 2 300 3
128 2 2 0 1 3 301 2
129 2 2 0 1 270 278 122
130 2 2 0 1 271 279 176
131 2 2 0 1 128 277 268
132 2 2 0 1 182 276 269
133 2 2 0 1 176 279 175
134 2 2 0 1 122 278 121
135 2 2 0 1 129 277 128
136 2 2 0 1 183 276 182
137 2 2 0 1 137 267 136
138 2 2 0 1 114 266 113
139 2 2 0 1 191 265 190
140 2 2 0 1 168 264 167
141 2 2 0 1 111 233 110
142 2 2 0 1 194 234 193
143 2 2 0 1 140 232 139
144 2 2 0 1 165 235 164
145 2 2 0 1 231 249 138
146 2 2 0 1 112 248 229
147 2 2 0 1 230 247 192
148 2 2 0 1 166 246 228
149 2 2 0 1 260 271 177
150 2 2 0 1 262 270 123
151 2 2 0 1 181 269 258
152 2 2 0 1 127 268 259
153 2 2 0 1 307 316 153
154 2 2 0 1 151 316 306
155 2 2 0 1 228 235 165
156 2 2 0 1 229 233 111
157 2 2 0 1 193 234 230
158 2 2 0 1 139 232 231
159 2 2 0 1 138 249 137
160 2 2 0 1 113 248 112
161 2 2 0 1 192 247 191
162 2 2 0 1 167 246 166
163 2 2 0 1 62 228 63
164 2 2 0 1 39 231 40
165 2 2 0 1 14 229 15
166 2 2 0 1 87 230 88
167 2 2 0 1 126 259 241
168 2 2 0 1 180 258 240
169 2 2 0 1 39 249 231
170 2 2 0 1 229 248 15
171 2 2 0 1 87 247 230
172 2 2 0 1 228 246 63
173 2 2 0 1 123 270 122
174 2 2 0 1 177 271 176
175 2 2 0 1 128 268 127
176 2 2 0 1 182 269 181
177 2 2 0 1 241 259 28
178 2 2 0 1 240 258 76
179 2 2 0 1 178 260 177
180 2 2 0 1 181 258 180
181 2 2 0 1 124 262 123
182 2 2 0 1 127 259 126
183 2 2 0 1 178 261 260
184 2 2 0 1 124 263 262
185 2 2 0 1 62 235 228
186 2 2 0 1 14 233 229
187 2 2 0 1 230 234 88
188 2 2 0 1 231 232 40
189 2 2 0 1 148 311 213
190 2 2 0 1 212 309 102
191 2 2 0 1 202 310 214
192 2 2 0 1 215 308 156
193 2 2 0 1 75 240 76
194 2 2 0 1 27 241 28
195 2 2 0 1 306 316 207
196 2 2 0 1 206 316 307
197 2 2 0 1 240 261 179
198 2 2 0 1 241 263 125
199 2 2 0 1 153 316 152
200 2 2 0 1 152 316 151
201 2 2 0 1 75 261 240
202 2 2 0 1 27 263 241
203 2 2 0 1 51 207 206
204 2 2 0 1 50 219 207
205 2 2 0 1 206 217 52
206 2 2 0 1 97 220 216
207 2 2 0 1 217 223 53
208 2 2 0 1 49 221 219
209 2 2 0 1 218 222 5
210 2 2 0 1 179 261 178
211 2 2 0 1 125 263 124
212 2 2 0 1 214 220 96
213 2 2 0 1 54 223 215
214 2 2 0 1 213 221 48
215 2 2 0 1 6 222 212
216 2 2 0 1 45 239 227
217 2 2 0 1 226 238 9
218 2 2 0 1 225 237 57
219 2 2 0 1 93 236 224
220 2 2 0 1 238 253 10
221 2 2 0 1 237 252 58
222 2 2 0 1 92 250 236
223 2 2 0 1 44 251 239
224 2 2 0 1 91 257 250
225 2 2 0 1 43 254 251
226 2 2 0 1 253 255 11
227 2 2 0 1 252 256 59
228 2 2 0 1 60 256 244
229 2 2 0 1 242 254 42
230 2 2 0 1 12 255 243
231 2 2 0 1 245 257 90
232 2 2 0 1 234 245 89
233 2 2 0 1 232 242 41
234 2 2 0 1 13 243 233
235 2 2 0 1 61 244 235
236 2 2 0 1 86 265 247
237 2 2 0 1 38 267 249
238 2 2 0 1 246 264 64
239 2 2 0 1 248 266 16
240 2 2 0 1 85 274 265
241 2 2 0 1 264 272 65
242 2 2 0 1 266 273 17
243 2 2 0 1 37 275 267
244 2 2 0 1 74 261 75
245 2 2 0 1 26 263 27
246 2 2 0 1 259 268 29
247 2 2 0 1 25 270 262
248 2 2 0 1 258 269 77
249 2 2 0 1 73 271 260
250 2 2 0 1 217 307 154
251 2 2 0 1 150 306 219
252 2 2 0 1 268 277 30
253 2 2 0 1 269 276 78
254 2 2 0 1 24 278 270
255 2 2 0 1 72 279 271
256 2 2 0 1 272 280 66
257 2 2 0 1 84 283 274
258 2 2 0 1 273 281 18
259 2 2 0 1 36 282 275
260 2 2 0 1 154 305 217
261 2 2 0 1 216 303 204
262 2 2 0 1 100 304 218
263 2 2 0 1 219 302 150
264 2 2 0 1 276 284 79
265 2 2 0 1 277 285 31
266 2 2 0 1 23 286 278
267 2 2 0 1 71 287 279
268 2 2 0 1 280 294 67
269 2 2 0 1 281 292 19
270 2 2 0 1 35 293 282
271 2 2 0 1 83 295 283
272 2 2 0 1 260 261 74
273 2 2 0 1 262 263 26
274 2 2 0 1 76 258 77
275 2 2 0 1 28 259 29
276 2 2 0 1 25 262 26
277 2 2 0 1 73 260 74
278 2 2 0 1 37 267 38
279 2 2 0 1 64 264 65
280 2 2 0 1 85 265 86
281 2 2 0 1 16 266 17
282 2 2 0 1 86 247 87
283 2 2 0 1 15 248 16
284 2 2 0 1 63 246 64
285 2 2 0 1 38 249 39
286 2 2 0 1 88 234 89
287 2 2 0 1 40 232 41
288 2 2 0 1 13 233 14
289 2 2 0 1 61 235 62
290 2 2 0 1 60 244 61
291 2 2 0 1 41 242 42
292 2 2 0 1 12 243 13
293 2 2 0 1 89 245 90
294 2 2 0 1 90 257 91
295 2 2 0 1 42 254 43
296 2 2 0 1 59 256 60
297 2 2 0 1 11 255 12
298 2 2 0 1 43 251 44
299 2 2 0 1 58 252 59
300 2 2 0 1 10 253 11
301 2 2 0 1 91 250 92
302 2 2 0 1 92 236 93
303 2 2 0 1 9 238 10
304 2 2 0 1 44 239 45
305 2 2 0 1 57 237 58
306 2 2 0 1 56 225 57
307 2 2 0 1 45 227 46
308 2 2 0 1 8 226 9
309 2 2 0 1 93 224 94
310 2 2 0 1 47 213 48
311 2 2 0 1 54 215 55
312 2 2 0 1 95 214 96
313 2 2 0 1 6 212 7
314 2 2 0 1 96 220 97
315 2 2 0 1 5 222 6
316 2 2 0 1 48 221 49
317 2 2 0 1 53 223 54
318 2 2 0 1 52 217 53
319 2 2 0 1 49 219 50
320 2 2 0 1 4 218 5
321 2 2 0 1 97 216 98
322 2 2 0 1 50 207 51
323 2 2 0 1 51 206 52
324 2 2 0 1 285 289 32
325 2 2 0 1 22 288 286
326 2 2 0 1 284 290 80
327 2 2 0 1 70 291 287
328 2 2 0 1 104 209 103
329 2 2 0 1 201 210 200
330 2 2 0 1 158 208 157
331 2 2 0 1 147 211 146
332 2 2 0 1 166 228 165
333 2 2 0 1 112 229 111
334 2 2 0 1 193 230 192
335 2 2 0 1 139 231 138
336 2 2 0 1 126 241 125
337 2 2 0 1 180 240 179
338 2 2 0 1 29 268 30
339 2 2 0 1 77 269 78
340 2 2 0 1 24 270 25
341 2 2 0 1 72 271 73
342 2 2 0 1 34 298 293
343 2 2 0 1 292 299 20
344 2 2 0 1 82 296 295
345 2 2 0 1 294 297 68
346 2 2 0 1 21 299 288
347 2 2 0 1 69 297 291
348 2 2 0 1 290 296 81
349 2 2 0 1 289 298 33
350 2 2 0 1 4 318 218
351 2 2 0 1 216 317 98
352 2 2 0 1 65 272 66
353 2 2 0 1 17 273 18
354 2 2 0 1 84 274 85
355 2 2 0 1 36 275 37
356 2 2 0 1 78 276 79
357 2 2 0 1 30 277 31
358 2 2 0 1 71 279 72
359 2 2 0 1 23 278 24
360 2 2 0 1 220 310 203
361 2 2 0 1 221 311 149
362 2 2 0 1 101 309 222
363 2 2 0 1 155 308 223
364 2 2 0 1 66 280 67
365 2 2 0 1 35 282 36
366 2 2 0 1 18 281 19
367 2 2 0 1 83 283 84
368 2 2 0 1 31 285 32
369 2 2 0 1 79 284 80
370 2 2 0 1 22 286 23
371 2 2 0 1 70 287 71
372 2 2 0 1 203 303 220
373 2 2 0 1 149 302 221
374 2 2 0 1 222 304 101
375 2 2 0 1 223 305 155
376 2 2 0 1 21 288 22
377 2 2 0 1 32 289 33
378 2 2 0 1 80 290 81
379 2 2 0 1 69 291 70
380 2 2 0 1 218 318 300
381 2 2 0 1 301 317 216
382 2 2 0 1 19 292 20
383 2 2 0 1 67 294 68
384 2 2 0 1 34 293 35
385 2 2 0 1 82 295 83
386 2 2 0 1 81 296 82
387 2 2 0 1 33 298 34
388 2 2 0 1 20 299 21
389 2 2 0 1 68 297 69
390 2 2 0 1 207 316 206
391 2 2 0 1 206 307 217
392 2 2 0 1 219 306 207
393 2 2 0 1 214 310 220
394 2 2 0 1 213 311 221
395 2 2 0 1 222 309 212
396 2 2 0 1 223 308 215
397 2 2 0 1 220 303 216
398 2 2 0 1 217 305 223
399 2 2 0 1 221 302 219
400 2 2 0 1 218 304 222
401 2 2 0 1 154 307 153
402 2 2 0 1 151 306 150
403 2 2 0 1 238 314 253
404 2 2 0 1 237 315 252
405 2 2 0 1 250 313 236
406 2 2 0 1 251 312 239
407 2 2 0 1 236 313 198
408 2 2 0 1 160 315 237
409 2 2 0 1 106 314 238
410 2 2 0 1 239 312 144
411 2 2 0 1 149 311 148
412 2 2 0 1 203 310 202
413 2 2 0 1 102 309 101
414 2 2 0 1 156 308 155
415 2 2 0 1 197 313 250
416 2 2 0 1 252 315 161
417 2 2 0 1 253 314 107
418 2 2 0 1 143 312 251
419 2 2 0 1 155 305 154
420 2 2 0 1 101 304 100
421 2 2 0 1 150 302 149
422 2 2 0 1 204 303 203
423 2 2 0 1 198 313 197
424 2 2 0 1 161 315 160
425 2 2 0 1 107 314 106
426 2 2 0 1 144 312 143
427 2 2 0 1 1 317 3
428 2 2 0 1 3 318 1
429 2 2 0 1 1 318 4
430 2 2 0 1 98 317 1
431 2 2 0 1 300 318 3
432 2 2 0 1 3 317 301
$EndElements
