$MeshFormat
2.2 0 8
$EndMeshFormat
$Nodes
216
1 -0.00015294999999999998 0.0066117999999999993 0
2 0.0089177000000000006 0.0066117999999999993 0
3 0.0089177000000000006 0.0072117999999999991 0
4 -0.00015295000000000065 0.0072117999999999991 0
5 4.4238043477910392e-05 0.0066117999999999993 0
6 0.00024142608695579593 0.0066117999999999993 0
7 0.00043861413043368689 0.0066117999999999993 0
8 0.00063580217391165145 0.0066117999999999993 0
9 0.00083299021738968419 0.0066117999999999993 0
10 0.0010301782608676277 0.0066117999999999993 0
11 0.0012273663043453561 0.0066117999999999993 0
12 0.0014245543478230158 0.0066117999999999993 0
13 0.0016217423913007609 0.0066117999999999993 0
14 0.0018189304347784199 0.0066117999999999993 0
15 0.00201611847825608 0.0066117999999999993 0
16 0.0022133065217339095 0.0066117999999999993 0
17 0.002410494565211569 0.0066117999999999993 0
18 0.0026076826086892284 0.0066117999999999993 0
19 0.0028048706521670358 0.0066117999999999993 0
20 0.0030020586956447173 0.0066117999999999993 0
21 0.0031992467391223768 0.0066117999999999993 0
22 0.0033964347826000362 0.0066117999999999993 0
23 0.0035936228260776961 0.0066117999999999993 0
24 0.0037908108695554402 0.0066117999999999993 0
25 0.0039879989130332701 0.0066117999999999993 0
26 0.0041851869565108927 0.0066117999999999993 0
27 0.0043823749999885898 0.0066117999999999993 0
28 0.0045795630434671553 0.0066117999999999993 0
29 0.0047767510869458898 0.0066117999999999993 0
30 0.0049739391304249037 0.0066117999999999993 0
31 0.0051711271739036989 0.0066117999999999993 0
32 0.0053683152173826182 0.0066117999999999993 0
33 0.0055655032608613892 0.0066117999999999993 0
34 0.005762691304339991 0.0066117999999999993 0
35 0.0059598793478187638 0.0066117999999999993 0
36 0.0061570673912973726 0.0066117999999999993 0
37 0.0063542554347761383 0.0066117999999999993 0
38 0.0065514434782551817 0.0066117999999999993 0
39 0.0067486315217339162 0.0066117999999999993 0
40 0.0069458195652129595 0.0066117999999999993 0
41 0.0071430076086917253 0.0066117999999999993 0
42 0.0073401956521703341 0.0066117999999999993 0
43 0.0075373836956491068 0.0066117999999999993 0
44 0.007734571739127929 0.0066117999999999993 0
45 0.0079317597826063253 0.0066117999999999993 0
46 0.008128947826085399 0.0066117999999999993 0
47 0.0083261358695637961 0.0066117999999999993 0
48 0.0085233239130427223 0.0066117999999999993 0
49 0.0087205119565212652 0.0066117999999999993 0
50 0.0089177000000000006 0.0068117999999998862 0
51 0.0089177000000000006 0.0070117999999994348 0
52 0.0087205119565219244 0.0072117999999999991 0
53 0.0085233239130442298 0.0072117999999999991 0
54 0.0083261358695658882 0.0072117999999999991 0
55 0.0081289478260884139 0.0072117999999999991 0
56 0.0079317597826099248 0.0072117999999999991 0
57 0.0077345717391322831 0.0072117999999999991 0
58 0.0075373836956545521 0.0072117999999999991 0
59 0.0073401956521770423 0.0072117999999999991 0
60 0.0071430076086993711 0.0072117999999999991 0
61 0.0069458195652217138 0.0072117999999999991 0
62 0.0067486315217439394 0.0072117999999999991 0
63 0.0065514434782660905 0.0072117999999999991 0
64 0.0063542554347885069 0.0072117999999999991 0
65 0.0061570673913108062 0.0072117999999999991 0
66 0.0059598793478334144 0.0072117999999999991 0
67 0.0057626913043556096 0.0072117999999999991 0
68 0.0055655032608782698 0.0072117999999999991 0
69 0.0053683152174004356 0.0072117999999999991 0
70 0.0051711271739230801 0.0072117999999999991 0
71 0.004973939130445062 0.0072117999999999991 0
72 0.004776751086967213 0.0072117999999999991 0
73 0.0045795630434895705 0.0072117999999999991 0
74 0.0043823750000118551 0.0072117999999999991 0
75 0.0041851869565332697 0.0072117999999999991 0
76 0.0039879989130545161 0.0072117999999999991 0
77 0.0037908108695754823 0.0072117999999999991 0
78 0.0035936228260966688 0.0072117999999999991 0
79 0.0033964347826177304 0.0072117999999999991 0
80 0.0031992467391389395 0.0072117999999999991 0
81 0.0030020586956603177 0.0072117999999999991 0
82 0.0028048706521815259 0.0072117999999999991 0
83 0.002607682608702898 0.0072117999999999991 0
84 0.002410494565224114 0.0072117999999999991 0
85 0.0022133065217450508 0.0072117999999999991 0
86 0.0020161184782662971 0.0072117999999999991 0
87 0.0018189304347872347 0.0072117999999999991 0
88 0.001621742391308449 0.0072117999999999991 0
89 0.0014245543478298203 0.0072117999999999991 0
90 0.0012273663043510293 0.0072117999999999991 0
91 0.0010301782608721881 0.0072117999999999991 0
92 0.00083299021739377185 0.0072117999999999991 0
93 0.00063580217391467908 0.0072117999999999991 0
94 0.00043861413043626285 0.0072117999999999991 0
95 0.00024142608695731579 0.0072117999999999991 0
96 4.4238043478753847e-05 0.0072117999999999991 0
97 -0.00015295000000000044 0.0070118000000001122 0
98 -0.00015295000000000019 0.0068118000000005636 0
99 0.0083925253731383757 0.0069101309045743846 0
100 0.0080303538043491624 0.0069118000000004962 0
101 0.00037222462686154015 0.0069134690954256069 0
102 0.0076359777173934194 0.0069118000000007174 0
103 0.00073439619565067319 0.0069117999999995031 0
104 0.0011287722826064871 0.0069117999999992489 0
105 0.0072416016304382063 0.0069118000000011016 0
106 0.0015231483695618882 0.0069117999999988812 0
107 0.0019175244565172468 0.0069117999999985507 0
108 0.0068472255434828327 0.006911800000001439 0
109 0.0064528494565273056 0.0069118000000017929 0
110 0.0023119005434727394 0.0069117999999981682 0
111 0.0060584733695721064 0.006911800000002204 0
112 0.0027062766304281299 0.0069117999999977536 0
113 0.0056640972826169237 0.0069118000000025605 0
114 0.0031006527173835464 0.0069117999999974361 0
115 0.0052697211956617531 0.0069118000000029257 0
116 0.0034950288043388653 0.0069117999999970909 0
117 0.0038894048912943551 0.006911799999996705 0
118 0.0048947925049645825 0.0069101451621347548 0
119 0.0042643335819917911 0.0069134833529800989 0
120 0.0045789112593534066 0.0069134941057831384 0
121 0.0087131905597611914 0.0069117999999997373 0
122 5.1559440238733738e-05 0.0069118000000002768 0
123 0.0082189784395759278 0.0070275437711250855 0
124 0.0078331657608711001 0.0070131960943870435 0
125 0.00054577156042395368 0.0067960562288749285 0
126 0.00093158423912865606 0.0068104039056129896 0
127 0.0074387896739158063 0.0070131960943872092 0
128 0.0013259603260841859 0.0068104039056128308 0
129 0.0070444135869605394 0.0070131960943872751 0
130 0.0017203364130395898 0.0068104039056126886 0
131 0.0021147124999949967 0.0068104039056125932 0
132 0.0066500375000050072 0.0070131960943874295 0
133 0.0058612853260945211 0.0070131960943877495 0
134 0.0062556614130496544 0.0070131960943876429 0
135 0.002509088586950398 0.0068104039056124692 0
136 0.0054669092391393627 0.0070131960943878658 0
137 0.005076825925257703 0.0070283503973134626 0
138 0.0029034646739058796 0.006810403905612313 0
139 0.0032978407608612054 0.0068104039056121968 0
140 0.0036922168478165682 0.0068104039056121422 0
141 0.0040838399199129606 0.0067994793641038215 0
142 0.0040819068738676906 0.0070286972861519064 0
143 0.0058612853260793726 0.0068003893330600487 0
144 0.0054669092391220085 0.0068003893330601138 0
145 0.0029034646739209248 0.007023210666939987 0
146 0.0032978407608783345 0.0070232106669399193 0
147 0.0062556614130367567 0.0068003893330599941 0
148 0.0050770006262779895 0.0067953669102931435 0
149 0.0036922168478360751 0.0070232106669398959 0
150 0.0025090885869635078 0.0070232106669400676 0
151 0.007833165760867138 0.0068003893330597165 0
152 0.0066500374999945572 0.0068003893330598857 0
153 0.00093158423913297997 0.0070232106669403001 0
154 0.0074387896739097278 0.0068003893330597625 0
155 0.0021147125000056739 0.0070232106669401223 0
156 0.0017203364130478414 0.007023210666940183 0
157 0.0070444135869523498 0.0068003893330598024 0
158 0.0082205513104777646 0.0067973957804108309 0
159 0.0013259603260904252 0.007023210666940261 0
160 0.00054419868952223734 0.0070262042195891545 0
161 0.0044333589960901922 0.00679475702593621 0
162 0.0047257670908684808 0.0067947570259416553 0
163 0.0047201318850457656 0.0070269624691700902 0
164 0.0044177076428748539 0.0069953242683978983 0
165 0.0085800133008659615 0.0070223156178011257 0
166 0.00018473669913395479 0.0068012843821988892 0
167 0.0085750597043568449 0.0067957029445244264 0
168 0.0001896902956430959 0.0070278970554755868 0
169 0.0038894048913149962 0.0070780013018694595 0
170 0.0052697211956431551 0.0067455986981303515 0
171 0.0034950288043572014 0.0070780013018696625 0
172 0.0056640972826006919 0.0067455986981301954 0
173 0.003100652717399626 0.007078001301869803 0
174 0.006058473369558069 0.0067455986981299976 0
175 0.0027062766304422102 0.0070780013018699756 0
176 0.0064528494565156535 0.0067455986981296975 0
177 0.002311900543484582 0.0070780013018702749 0
178 0.0019175244565267661 0.0070780013018704891 0
179 0.0068472255434734253 0.0067455986981295015 0
180 0.0072416016304310254 0.0067455986981293887 0
181 0.0015231483695691344 0.0070780013018706053 0
182 0.008030353804345837 0.0067455986981289689 0
183 0.0076359777173885188 0.0067455986981291407 0
184 0.0011287722826116089 0.0070780013018708439 0
185 0.00073439619565422536 0.0070780013018710208 0
186 0.0080303538043491642 0.0070780013018714822 0
187 0.0076359777173934168 0.0070780013018714744 0
188 0.0011287722826064915 0.0067455986981285031 0
189 0.00073439619565066777 0.0067455986981286012 0
190 0.0072416016304382063 0.0070780013018716765 0
191 0.0015231483695618885 0.0067455986981283002 0
192 0.0019175244565172492 0.006745598698128131 0
193 0.0068472255434828327 0.0070780013018718795 0
194 0.0064528494565273056 0.007078001301872046 0
195 0.002311900543472739 0.0067455986981279237 0
196 0.0060584733695721064 0.0070780013018722403 0
197 0.0056640972826169245 0.0070780013018724311 0
198 0.0027062766304281299 0.0067455986981276687 0
199 0.0031006527173835468 0.0067455986981275117 0
200 0.0052697211956617522 0.0070780013018726315 0
201 0.0034950288043388658 0.0067455986981273235 0
202 0.003889404891294356 0.0067455986981270867 0
203 0.0042762488288666314 0.0067480741144603194 0
204 0.0048853454905268059 0.0067468713831306433 0
205 0.0048866085625903968 0.0070753746011583511 0
206 0.0042731789629719486 0.0070745169841132651 0
207 0.0087629320974540216 0.007059199395900051 0
208 1.8179025459353992e-06 0.0067644006040999431 0
209 0.008762674205091029 0.0067641100252952184 0
210 2.0757949089160232e-06 0.0070594899747048146 0
211 0.0084008275350970496 0.0067513079930413408 0
212 0.0003639224649029173 0.0070722920069586489 0
213 0.008401073943670026 0.0070717395232131382 0
214 0.00036367605632983121 0.0067518604767869105 0
215 0.0045795630434799575 0.0067616955739248068 0
216 0.004546694992062188 0.0070695955895000683 0
$EndNodes
$Elements
332
1 2 2 0 1 50 51 121
2 2 2 0 1 97 98 122
3 2 2 0 1 50 121 209
4 2 2 0 1 121 51 207
5 2 2 0 1 97 122 210
6 2 2 0 1 122 98 208
7 2 2 0 1 117 141 142
8 2 2 0 1 115 137 148
9 2 2 0 1 116 140 149
10 2 2 0 1 113 136 144
11 2 2 0 1 114 139 146
12 2 2 0 1 111 133 143
13 2 2 0 1 112 138 145
14 2 2 0 1 109 134 147
15 2 2 0 1 110 135 150
16 2 2 0 1 107 131 155
17 2 2 0 1 108 132 152
18 2 2 0 1 106 130 156
19 2 2 0 1 105 129 157
20 2 2 0 1 104 128 159
21 2 2 0 1 102 127 154
22 2 2 0 1 100 124 151
23 2 2 0 1 103 126 153
24 2 2 0 1 99 123 158
25 2 2 0 1 101 125 160
26 2 2 0 1 123 100 158
27 2 2 0 1 125 103 160
28 2 2 0 1 124 102 151
29 2 2 0 1 126 104 153
30 2 2 0 1 127 105 154
31 2 2 0 1 128 106 159
32 2 2 0 1 129 108 157
33 2 2 0 1 130 107 156
34 2 2 0 1 132 109 152
35 2 2 0 1 131 110 155
36 2 2 0 1 134 111 147
37 2 2 0 1 135 112 150
38 2 2 0 1 133 113 143
39 2 2 0 1 138 114 145
40 2 2 0 1 136 115 144
41 2 2 0 1 139 116 146
42 2 2 0 1 137 118 148
43 2 2 0 1 140 117 149
44 2 2 0 1 141 119 142
45 2 2 0 1 165 99 167
46 2 2 0 1 166 101 168
47 2 2 0 1 54 55 123
48 2 2 0 1 7 8 125
49 2 2 0 1 56 57 124
50 2 2 0 1 9 10 126
51 2 2 0 1 58 59 127
52 2 2 0 1 11 12 128
53 2 2 0 1 66 67 133
54 2 2 0 1 60 61 129
55 2 2 0 1 68 69 136
56 2 2 0 1 15 16 131
57 2 2 0 1 13 14 130
58 2 2 0 1 62 63 132
59 2 2 0 1 64 65 134
60 2 2 0 1 17 18 135
61 2 2 0 1 70 71 137
62 2 2 0 1 19 20 138
63 2 2 0 1 21 22 139
64 2 2 0 1 23 24 140
65 2 2 0 1 25 26 141
66 2 2 0 1 121 165 167
67 2 2 0 1 122 166 168
68 2 2 0 1 52 53 165
69 2 2 0 1 5 6 166
70 2 2 0 1 48 49 167
71 2 2 0 1 95 96 168
72 2 2 0 1 52 165 207
73 2 2 0 1 5 166 208
74 2 2 0 1 167 49 209
75 2 2 0 1 168 96 210
76 2 2 0 1 72 73 163
77 2 2 0 1 28 29 162
78 2 2 0 1 27 28 161
79 2 2 0 1 73 74 216
80 2 2 0 1 74 164 216
81 2 2 0 1 119 161 164
82 2 2 0 1 161 120 164
83 2 2 0 1 120 162 163
84 2 2 0 1 162 118 163
85 2 2 0 1 75 76 142
86 2 2 0 1 34 35 143
87 2 2 0 1 32 33 144
88 2 2 0 1 81 82 145
89 2 2 0 1 79 80 146
90 2 2 0 1 36 37 147
91 2 2 0 1 30 31 148
92 2 2 0 1 77 78 149
93 2 2 0 1 83 84 150
94 2 2 0 1 44 45 151
95 2 2 0 1 91 92 153
96 2 2 0 1 87 88 156
97 2 2 0 1 40 41 157
98 2 2 0 1 42 43 154
99 2 2 0 1 38 39 152
100 2 2 0 1 85 86 155
101 2 2 0 1 46 47 158
102 2 2 0 1 89 90 159
103 2 2 0 1 93 94 160
104 2 2 0 1 28 162 215
105 2 2 0 1 161 28 215
106 2 2 0 1 163 73 216
107 2 2 0 1 117 142 169
108 2 2 0 1 115 148 170
109 2 2 0 1 116 149 171
110 2 2 0 1 113 144 172
111 2 2 0 1 114 146 173
112 2 2 0 1 111 143 174
113 2 2 0 1 112 145 175
114 2 2 0 1 110 150 177
115 2 2 0 1 109 147 176
116 2 2 0 1 107 155 178
117 2 2 0 1 108 152 179
118 2 2 0 1 106 156 181
119 2 2 0 1 105 157 180
120 2 2 0 1 104 159 184
121 2 2 0 1 102 154 183
122 2 2 0 1 103 153 185
123 2 2 0 1 100 151 182
124 2 2 0 1 158 100 182
125 2 2 0 1 160 103 185
126 2 2 0 1 151 102 183
127 2 2 0 1 153 104 184
128 2 2 0 1 154 105 180
129 2 2 0 1 159 106 181
130 2 2 0 1 157 108 179
131 2 2 0 1 156 107 178
132 2 2 0 1 152 109 176
133 2 2 0 1 155 110 177
134 2 2 0 1 147 111 174
135 2 2 0 1 150 112 175
136 2 2 0 1 143 113 172
137 2 2 0 1 145 114 173
138 2 2 0 1 146 116 171
139 2 2 0 1 144 115 170
140 2 2 0 1 149 117 169
141 2 2 0 1 123 55 186
142 2 2 0 1 124 100 186
143 2 2 0 1 100 123 186
144 2 2 0 1 56 124 186
145 2 2 0 1 124 57 187
146 2 2 0 1 125 8 189
147 2 2 0 1 126 10 188
148 2 2 0 1 126 103 189
149 2 2 0 1 58 127 187
150 2 2 0 1 103 125 189
151 2 2 0 1 102 124 187
152 2 2 0 1 9 126 189
153 2 2 0 1 127 59 190
154 2 2 0 1 104 126 188
155 2 2 0 1 11 128 188
156 2 2 0 1 127 102 187
157 2 2 0 1 128 12 191
158 2 2 0 1 128 104 188
159 2 2 0 1 60 129 190
160 2 2 0 1 13 130 191
161 2 2 0 1 129 61 193
162 2 2 0 1 133 67 197
163 2 2 0 1 130 14 192
164 2 2 0 1 15 131 192
165 2 2 0 1 132 63 194
166 2 2 0 1 66 133 196
167 2 2 0 1 131 16 195
168 2 2 0 1 134 65 196
169 2 2 0 1 106 128 191
170 2 2 0 1 130 106 191
171 2 2 0 1 129 105 190
172 2 2 0 1 105 127 190
173 2 2 0 1 62 132 193
174 2 2 0 1 68 136 197
175 2 2 0 1 136 69 200
176 2 2 0 1 64 134 194
177 2 2 0 1 132 108 193
178 2 2 0 1 135 18 198
179 2 2 0 1 131 107 192
180 2 2 0 1 17 135 195
181 2 2 0 1 70 137 200
182 2 2 0 1 133 111 196
183 2 2 0 1 134 109 194
184 2 2 0 1 19 138 198
185 2 2 0 1 107 130 192
186 2 2 0 1 108 129 193
187 2 2 0 1 109 132 194
188 2 2 0 1 138 20 199
189 2 2 0 1 110 131 195
190 2 2 0 1 113 133 197
191 2 2 0 1 136 113 197
192 2 2 0 1 111 134 196
193 2 2 0 1 138 112 198
194 2 2 0 1 135 110 195
195 2 2 0 1 112 135 198
196 2 2 0 1 21 139 199
197 2 2 0 1 139 22 201
198 2 2 0 1 23 140 201
199 2 2 0 1 140 24 202
200 2 2 0 1 115 136 200
201 2 2 0 1 137 115 200
202 2 2 0 1 114 138 199
203 2 2 0 1 139 114 199
204 2 2 0 1 25 141 202
205 2 2 0 1 140 116 201
206 2 2 0 1 117 140 202
207 2 2 0 1 116 139 201
208 2 2 0 1 141 117 202
209 2 2 0 1 148 118 204
210 2 2 0 1 142 119 206
211 2 2 0 1 141 26 203
212 2 2 0 1 119 141 203
213 2 2 0 1 3 52 207
214 2 2 0 1 1 5 208
215 2 2 0 1 49 2 209
216 2 2 0 1 96 4 210
217 2 2 0 1 51 3 207
218 2 2 0 1 98 1 208
219 2 2 0 1 2 50 209
220 2 2 0 1 4 97 210
221 2 2 0 1 137 71 205
222 2 2 0 1 118 137 205
223 2 2 0 1 142 76 169
224 2 2 0 1 144 33 172
225 2 2 0 1 32 144 170
226 2 2 0 1 34 143 172
227 2 2 0 1 143 35 174
228 2 2 0 1 77 149 169
229 2 2 0 1 146 80 173
230 2 2 0 1 148 31 170
231 2 2 0 1 81 145 173
232 2 2 0 1 79 146 171
233 2 2 0 1 36 147 174
234 2 2 0 1 145 82 175
235 2 2 0 1 149 78 171
236 2 2 0 1 147 37 176
237 2 2 0 1 151 45 182
238 2 2 0 1 83 150 175
239 2 2 0 1 150 84 177
240 2 2 0 1 46 158 182
241 2 2 0 1 38 152 176
242 2 2 0 1 44 151 183
243 2 2 0 1 153 92 185
244 2 2 0 1 85 155 177
245 2 2 0 1 155 86 178
246 2 2 0 1 152 39 179
247 2 2 0 1 87 156 178
248 2 2 0 1 40 157 179
249 2 2 0 1 93 160 185
250 2 2 0 1 91 153 184
251 2 2 0 1 42 154 180
252 2 2 0 1 154 43 183
253 2 2 0 1 156 88 181
254 2 2 0 1 157 41 180
255 2 2 0 1 89 159 181
256 2 2 0 1 159 90 184
257 2 2 0 1 101 160 212
258 2 2 0 1 99 158 211
259 2 2 0 1 30 148 204
260 2 2 0 1 54 123 213
261 2 2 0 1 123 99 213
262 2 2 0 1 7 125 214
263 2 2 0 1 125 101 214
264 2 2 0 1 75 142 206
265 2 2 0 1 158 47 211
266 2 2 0 1 160 94 212
267 2 2 0 1 121 167 209
268 2 2 0 1 122 168 210
269 2 2 0 1 165 121 207
270 2 2 0 1 166 122 208
271 2 2 0 1 53 54 213
272 2 2 0 1 47 48 211
273 2 2 0 1 94 95 212
274 2 2 0 1 6 7 214
275 2 2 0 1 74 75 206
276 2 2 0 1 71 72 205
277 2 2 0 1 29 30 204
278 2 2 0 1 26 27 203
279 2 2 0 1 76 77 169
280 2 2 0 1 31 32 170
281 2 2 0 1 78 79 171
282 2 2 0 1 55 56 186
283 2 2 0 1 33 34 172
284 2 2 0 1 80 81 173
285 2 2 0 1 45 46 182
286 2 2 0 1 84 85 177
287 2 2 0 1 92 93 185
288 2 2 0 1 37 38 176
289 2 2 0 1 35 36 174
290 2 2 0 1 82 83 175
291 2 2 0 1 86 87 178
292 2 2 0 1 39 40 179
293 2 2 0 1 43 44 183
294 2 2 0 1 90 91 184
295 2 2 0 1 41 42 180
296 2 2 0 1 88 89 181
297 2 2 0 1 57 58 187
298 2 2 0 1 8 9 189
299 2 2 0 1 10 11 188
300 2 2 0 1 59 60 190
301 2 2 0 1 12 13 191
302 2 2 0 1 61 62 193
303 2 2 0 1 14 15 192
304 2 2 0 1 63 64 194
305 2 2 0 1 16 17 195
306 2 2 0 1 65 66 196
307 2 2 0 1 18 19 198
308 2 2 0 1 67 68 197
309 2 2 0 1 20 21 199
310 2 2 0 1 69 70 200
311 2 2 0 1 22 23 201
312 2 2 0 1 24 25 202
313 2 2 0 1 165 53 213
314 2 2 0 1 166 6 214
315 2 2 0 1 48 167 211
316 2 2 0 1 95 168 212
317 2 2 0 1 162 29 204
318 2 2 0 1 27 161 203
319 2 2 0 1 164 74 206
320 2 2 0 1 72 163 205
321 2 2 0 1 161 119 203
322 2 2 0 1 118 162 204
323 2 2 0 1 163 118 205
324 2 2 0 1 119 164 206
325 2 2 0 1 120 161 215
326 2 2 0 1 162 120 215
327 2 2 0 1 120 163 216
328 2 2 0 1 167 99 211
329 2 2 0 1 99 165 213
330 2 2 0 1 168 101 212
331 2 2 0 1 101 166 214
332 2 2 0 1 164 120 216
$EndElements
