$MeshFormat
2.2 0 8
$EndMeshFormat
$Nodes
123
1 0.001 0 0
2 0 0 0
3 0.00098078528040323066 0.00019509032201612777 0
4 0.00092387953251128719 0.00038268343236508886 0
5 0.00083146961230254606 0.00055557023301960092 0
6 0.00070710678118654881 0.00070710678118654621 0
7 0.00055557023301960418 0.00083146961230254389 0
8 0.00038268343236509228 0.00092387953251128578 0
9 0.00019509032201613135 0.00098078528040322979 0
10 3.3919014138328374e-18 0.001 0
11 -0.00019509032201612406 0.00098078528040323131 0
12 -0.00038268343236508518 0.0009238795325112886 0
13 -0.000555570233019598 0.00083146961230254812 0
14 -0.00070710678118654339 0.00070710678118655174 0
15 -0.00083146961230254194 0.00055557023301960732 0
16 -0.00092387953251128426 0.00038268343236509564 0
17 -0.00098078528040322914 0.00019509032201613468 0
18 -0.001 7.2278920375157371e-18 0
19 -0.00098078528040323218 -0.0001950903220161201 0
20 -0.0009238795325112899 -0.00038268343236508225 0
21 -0.00083146961230254888 -0.0005555702330195967 0
22 -0.00070710678118655207 -0.00070710678118654307 0
23 -0.00055557023301960743 -0.00083146961230254183 0
24 -0.00038268343236509445 -0.00092387953251128491 0
25 -0.00019509032201613303 -0.00098078528040322958 0
26 -4.6245891183727288e-18 -0.001 0
27 0.00019509032201612395 -0.00098078528040323131 0
28 0.00038268343236508588 -0.00092387953251128838 0
29 0.00055557023301960038 -0.00083146961230254649 0
30 0.0007071067811865461 -0.00070710678118654892 0
31 0.00083146961230254422 -0.00055557023301960374 0
32 0.00092387953251128654 -0.00038268343236509038 0
33 0.00098078528040323044 -0.00019509032201612872 0
34 -0.00082191986186878224 -7.3786386393514489e-05 0
35 -9.2102078295331813e-05 0.00080781433108997761 0
36 0.00082143946530316208 8.0904725710667026e-05 0
37 -0.00063805369643016481 0.0005236371360700712 0
38 0.00051835966396330342 0.00063449177623446326 0
39 -0.00053398147315167723 -0.00066408864628613655 0
40 0.00064813461424265476 -0.00054699003211862397 0
41 8.0904725710663312e-05 -0.00082143946530316187 0
42 -0.00080902113388570075 0.00025386569451903466 0
43 0.00038909749422988036 -0.00072795021106109308 0
44 -0.00072296585810013099 -0.00040175231161186431 0
45 0.00081269405229918439 -0.00023119864795223565 0
46 -0.0003966349947300752 0.00074090380454673371 0
47 0.00022811847268484182 0.00080565649173920553 0
48 0.00071073550269207491 0.00038088300666507484 0
49 -0.00027079256714498181 -0.00080619838201144835 0
50 -0.00085531694536249885 9.4384388754409763e-05 0
51 -0.00067770113988199602 0.00011198251719142856 0
52 -0.00062997440983421338 -0.00010328280083659253 0
53 -0.00047613707345166002 3.8319255938716161e-05 0
54 -0.00043100975505555871 -0.00014906272363027006 0
55 -0.00051441924720655309 0.00023349067567551504 0
56 -0.0003302258197534078 0.00017341742874614515 0
57 -0.00036290528221914693 0.00036391942717537454 0
58 -0.00018363146080191203 0.00030685751954851283 0
59 -0.00021951109105998364 0.00049071426738658895 0
60 -3.8348147856712645e-05 0.00043973625967625297 0
61 7.7555372718931089e-06 0.00025982380397739362 0
62 0.00015118242835781821 0.0003836659409507354 0
63 0.00019858023382865418 0.00020230151481533866 0
64 0.0003403305955140972 0.00032450326038852012 0
65 0.00038467283460657647 0.00013517262170597259 0
66 0.00031965135424930286 0.00053868374900517275 0
67 0.00021636474224991093 6.7159169007252765e-06 0
68 0.00010968657504543441 -0.00017487316955075655 0
69 0.00031203897914461624 -0.00019132278004890531 0
70 0.00020103957315559563 -0.00035443608545966459 0
71 4.7404468891029786e-06 -0.00033984974401149437 0
72 9.1351955449827925e-05 -0.00051473435184738411 0
73 -0.0001017894679916526 -0.00049567588686212497 0
74 -0.00018836195295591745 -0.00033411324550873165 0
75 0.00039148462927707716 -0.00036986415649944488 0
76 0.00051394470854126235 -0.00020811482903661981 0
77 -0.00028790804806885946 -0.00048584083807133197 0
78 0.00053200541158330693 0.00026252656056215969 0
79 0.00058862347990228374 8.8898754409574444e-05 0
80 0.0001038399503359393 0.00055768302132807213 0
81 0.00028782085644138384 -0.00053199135338886168 0
82 -0.00057239333660563749 -0.00028649323400367031 0
83 -7.7183771499028165e-05 0.00061590337820302586 0
84 0.00051410603678635561 0.00044760879917391465 0
85 -0.00029813941210751082 -5.2771728010321186e-06 0
86 -8.1115986470222144e-05 -0.00017420825201072741 0
87 -0.00012531369899483627 0.00011722755928958373 0
88 -4.5528575214412496e-06 -0.00066609665078776236 0
89 -0.00041714414655022052 0.00055278741175249745 0
90 0.0004530375096265102 -3.9641406183117552e-05 0
91 -0.00037799436790929947 -0.00031988450342451257 0
92 0.00069930288927953527 0.0002138299711626212 0
93 0.00067165935089720909 -9.210336140176505e-05 0
94 -0.00050756168800012553 -0.00046064193095168241 0
95 0.00018030690842801058 -0.00067587532977137388 0
96 0.00047431624084793715 -0.0005377057317812907 0
97 -0.00065588891250352422 0.00032781005658531271 0
98 -0.00036362907917092711 -0.00064456735416092018 0
99 0.0005717080151964283 -0.00038112366981810027 0
100 7.4607055373931934e-05 0.00086086581940960066 0
101 0.00073945760334883748 -0.00039135640684038678 0
102 0.00065841214033756073 0.00054496992580797062 0
103 -9.7046353256035093e-05 -0.00081867127015110904 0
104 -0.00054290197038332039 0.00067118094917168044 0
105 0.00037283964852720522 0.00072999226591338685 0
106 -0.00077531971322054773 -0.00024051474787114066 0
107 -0.00026179831083893612 0.00082267005003217898 0
108 -0.00066061708254820705 -0.0005578319806111646 0
109 0.00024983951137556209 -0.00082361049214226022 0
110 -0.00025328950580918275 -0.00016982965370426013 0
111 -0.00024248072678806424 0.0006599673016096638 0
112 0.0008630164470671347 -8.4999700991956326e-05 0
113 -0.00018761972885898289 -0.00065284173034078278 0
114 -0.00051768225698192196 0.00040032894145175426 0
115 0.00055756506056359471 -0.0006772680957015712 0
116 0.00083530137626430269 0.00025325389168924528 0
117 6.0496842836238571e-05 0.0007129010135914402 0
118 -0.00077803641862353391 0.00041489325259389914 0
119 -0.00014531676826989561 -3.9031326962688125e-05 0
120 -0.00042133135697045764 -0.00077404070545446636 0
121 0.00022146510548510021 0.0006623516298503683 0
122 0.00065816904533782508 -0.00025786310951234889 0
123 7.0160822783671618e-05 0.00012220336040635386 0
$EndNodes
$Elements
212
1 2 2 0 1 52 106 82
2 2 2 0 1 76 93 90
3 2 2 0 1 38 105 66
4 2 2 0 1 90 93 79
5 2 2 0 1 105 121 66
6 2 2 0 1 48 84 78
7 2 2 0 1 82 106 44
8 2 2 0 1 66 84 38
9 2 2 0 1 34 106 52
10 2 2 0 1 48 102 84
11 2 2 0 1 94 98 77
12 2 2 0 1 34 52 51
13 2 2 0 1 55 97 51
14 2 2 0 1 2 68 67
15 2 2 0 1 79 93 36
16 2 2 0 1 51 97 42
17 2 2 0 1 39 98 94
18 2 2 0 1 36 92 79
19 2 2 0 1 88 113 103
20 2 2 0 1 103 113 49
21 2 2 0 1 81 95 43
22 2 2 0 1 34 51 50
23 2 2 0 1 44 94 82
24 2 2 0 1 67 123 2
25 2 2 0 1 78 92 48
26 2 2 0 1 89 104 37
27 2 2 0 1 37 114 89
28 2 2 0 1 68 69 67
29 2 2 0 1 96 99 75
30 2 2 0 1 76 122 93
31 2 2 0 1 52 53 51
32 2 2 0 1 44 108 94
33 2 2 0 1 35 111 83
34 2 2 0 1 68 70 69
35 2 2 0 1 107 111 35
36 2 2 0 1 53 55 51
37 2 2 0 1 52 54 53
38 2 2 0 1 70 75 69
39 2 2 0 1 2 86 68
40 2 2 0 1 68 71 70
41 2 2 0 1 71 72 70
42 2 2 0 1 62 80 60
43 2 2 0 1 75 76 69
44 2 2 0 1 64 66 62
45 2 2 0 1 65 78 64
46 2 2 0 1 71 73 72
47 2 2 0 1 66 80 62
48 2 2 0 1 65 79 78
49 2 2 0 1 63 64 62
50 2 2 0 1 74 77 73
51 2 2 0 1 58 59 57
52 2 2 0 1 63 65 64
53 2 2 0 1 40 99 96
54 2 2 0 1 58 60 59
55 2 2 0 1 56 57 55
56 2 2 0 1 71 74 73
57 2 2 0 1 53 56 55
58 2 2 0 1 43 96 81
59 2 2 0 1 61 62 60
60 2 2 0 1 56 58 57
61 2 2 0 1 29 43 28
62 2 2 0 1 21 44 20
63 2 2 0 1 13 46 12
64 2 2 0 1 17 42 16
65 2 2 0 1 33 45 32
66 2 2 0 1 5 48 4
67 2 2 0 1 9 47 8
68 2 2 0 1 25 49 24
69 2 2 0 1 70 81 75
70 2 2 0 1 61 63 62
71 2 2 0 1 63 67 65
72 2 2 0 1 15 37 14
73 2 2 0 1 7 38 6
74 2 2 0 1 3 36 1
75 2 2 0 1 23 39 22
76 2 2 0 1 27 41 26
77 2 2 0 1 31 40 30
78 2 2 0 1 11 35 10
79 2 2 0 1 19 34 18
80 2 2 0 1 72 81 70
81 2 2 0 1 58 61 60
82 2 2 0 1 80 83 60
83 2 2 0 1 64 84 66
84 2 2 0 1 52 82 54
85 2 2 0 1 60 83 59
86 2 2 0 1 68 86 71
87 2 2 0 1 81 96 75
88 2 2 0 1 58 87 61
89 2 2 0 1 78 84 64
90 2 2 0 1 54 85 53
91 2 2 0 1 53 85 56
92 2 2 0 1 69 90 67
93 2 2 0 1 117 121 47
94 2 2 0 1 85 87 56
95 2 2 0 1 71 86 74
96 2 2 0 1 67 90 65
97 2 2 0 1 56 87 58
98 2 2 0 1 95 109 43
99 2 2 0 1 87 123 61
100 2 2 0 1 74 91 77
101 2 2 0 1 84 102 38
102 2 2 0 1 91 94 77
103 2 2 0 1 79 92 78
104 2 2 0 1 73 88 72
105 2 2 0 1 65 90 79
106 2 2 0 1 59 89 57
107 2 2 0 1 2 123 87
108 2 2 0 1 63 123 67
109 2 2 0 1 41 95 88
110 2 2 0 1 76 90 69
111 2 2 0 1 88 95 72
112 2 2 0 1 100 117 47
113 2 2 0 1 57 114 55
114 2 2 0 1 88 103 41
115 2 2 0 1 74 110 91
116 2 2 0 1 72 95 81
117 2 2 0 1 82 91 54
118 2 2 0 1 50 51 42
119 2 2 0 1 89 111 46
120 2 2 0 1 59 111 89
121 2 2 0 1 77 113 73
122 2 2 0 1 91 110 54
123 2 2 0 1 75 99 76
124 2 2 0 1 32 101 31
125 2 2 0 1 10 100 9
126 2 2 0 1 18 50 17
127 2 2 0 1 6 102 5
128 2 2 0 1 26 103 25
129 2 2 0 1 20 106 19
130 2 2 0 1 12 107 11
131 2 2 0 1 22 108 21
132 2 2 0 1 8 105 7
133 2 2 0 1 14 104 13
134 2 2 0 1 17 50 42
135 2 2 0 1 9 100 47
136 2 2 0 1 45 101 32
137 2 2 0 1 25 103 49
138 2 2 0 1 5 102 48
139 2 2 0 1 21 108 44
140 2 2 0 1 44 106 20
141 2 2 0 1 46 107 12
142 2 2 0 1 13 104 46
143 2 2 0 1 47 105 8
144 2 2 0 1 35 100 10
145 2 2 0 1 34 50 18
146 2 2 0 1 31 101 40
147 2 2 0 1 38 102 6
148 2 2 0 1 41 103 26
149 2 2 0 1 39 108 22
150 2 2 0 1 19 106 34
151 2 2 0 1 7 105 38
152 2 2 0 1 37 104 14
153 2 2 0 1 11 107 35
154 2 2 0 1 47 121 105
155 2 2 0 1 43 109 28
156 2 2 0 1 27 109 41
157 2 2 0 1 28 109 27
158 2 2 0 1 46 104 89
159 2 2 0 1 33 112 45
160 2 2 0 1 36 112 1
161 2 2 0 1 55 114 97
162 2 2 0 1 82 94 91
163 2 2 0 1 29 115 43
164 2 2 0 1 48 116 4
165 2 2 0 1 40 115 30
166 2 2 0 1 3 116 36
167 2 2 0 1 42 118 16
168 2 2 0 1 93 122 45
169 2 2 0 1 15 118 37
170 2 2 0 1 49 120 24
171 2 2 0 1 23 120 39
172 2 2 0 1 86 110 74
173 2 2 0 1 40 101 99
174 2 2 0 1 101 122 99
175 2 2 0 1 1 112 33
176 2 2 0 1 45 112 93
177 2 2 0 1 93 112 36
178 2 2 0 1 94 108 39
179 2 2 0 1 80 121 117
180 2 2 0 1 83 111 59
181 2 2 0 1 73 113 88
182 2 2 0 1 54 110 85
183 2 2 0 1 98 113 77
184 2 2 0 1 80 117 83
185 2 2 0 1 83 117 35
186 2 2 0 1 30 115 29
187 2 2 0 1 4 116 3
188 2 2 0 1 16 118 15
189 2 2 0 1 41 109 95
190 2 2 0 1 85 119 87
191 2 2 0 1 66 121 80
192 2 2 0 1 24 120 23
193 2 2 0 1 86 119 110
194 2 2 0 1 43 115 96
195 2 2 0 1 61 123 63
196 2 2 0 1 96 115 40
197 2 2 0 1 92 116 48
198 2 2 0 1 36 116 92
199 2 2 0 1 45 122 101
200 2 2 0 1 97 118 42
201 2 2 0 1 37 118 97
202 2 2 0 1 89 114 57
203 2 2 0 1 98 120 49
204 2 2 0 1 39 120 98
205 2 2 0 1 87 119 2
206 2 2 0 1 110 119 85
207 2 2 0 1 2 119 86
208 2 2 0 1 49 113 98
209 2 2 0 1 46 111 107
210 2 2 0 1 97 114 37
211 2 2 0 1 35 117 100
212 2 2 0 1 99 122 76
$EndElements
