$MeshFormat
2.2 0 8
$EndMeshFormat
$Nodes
582
1 -0.00075295000000000006 -0.00075295000000000006 0
2 0.0095177000000000005 -0.00075295000000000006 0
3 0.0095177000000000005 0.0072117999999999991 0
4 0.0089177000000000006 0.0072117999999999991 0
5 0.0089177000000000006 0.0066117999999999993 0
6 0.0089177000000000006 -0.00015295 0
7 -0.00015295 -0.00015295 0
8 -0.00015295 0.0066117999999999993 0
9 -0.00015295 0.0072117999999999991 0
10 -0.00075295000000000006 0.0072117999999999991 0
11 -0.00055543750000032585 -0.00075295000000000006 0
12 -0.0003579250000006916 -0.00075295000000000006 0
13 -0.00016041250000114191 -0.00075295000000000006 0
14 3.7099999998524273e-05 -0.00075295000000000006 0
15 0.00023461249999824239 -0.00075295000000000006 0
16 0.00043212499999800312 -0.00075295000000000006 0
17 0.00062963749999761531 -0.00075295000000000006 0
18 0.00082714999999708113 -0.00075295000000000006 0
19 0.0010246624999964624 -0.00075295000000000006 0
20 0.0012221749999958599 -0.00075295000000000006 0
21 0.0014196874999953097 -0.00075295000000000006 0
22 0.001617199999994645 -0.00075295000000000006 0
23 0.0018147124999940718 -0.00075295000000000006 0
24 0.002012224999993499 -0.00075295000000000006 0
25 0.0022097374999928338 -0.00075295000000000006 0
26 0.0024072499999922997 -0.00075295000000000006 0
27 0.0026047624999917659 -0.00075295000000000006 0
28 0.0028022749999912309 -0.00075295000000000006 0
29 0.0029997874999906971 -0.00075295000000000006 0
30 0.0031972999999899938 -0.00075295000000000006 0
31 0.0033948124999891726 -0.00075295000000000006 0
32 0.0035923249999885863 -0.00075295000000000006 0
33 0.0037898374999880522 -0.00075295000000000006 0
34 0.0039873499999875175 -0.00075295000000000006 0
35 0.0041848624999869851 -0.00075295000000000006 0
36 0.0043823749999864492 -0.00075295000000000006 0
37 0.0045798874999860729 -0.00075295000000000006 0
38 0.0047773999999870254 -0.00075295000000000006 0
39 0.00497491249998748 -0.00075295000000000006 0
40 0.0051724249999883284 -0.00075295000000000006 0
41 0.0053699374999883944 -0.00075295000000000006 0
42 0.0055674499999892671 -0.00075295000000000006 0
43 0.0057649624999893054 -0.00075295000000000006 0
44 0.0059624749999902058 -0.00075295000000000006 0
45 0.0061599874999902181 -0.00075295000000000006 0
46 0.0063574999999911428 -0.00075295000000000006 0
47 0.0065550124999918073 -0.00075295000000000006 0
48 0.0067525249999922377 -0.00075295000000000006 0
49 0.0069500374999927183 -0.00075295000000000006 0
50 0.0071475499999933568 -0.00075295000000000006 0
51 0.0073450624999943093 -0.00075295000000000006 0
52 0.0075425749999947639 -0.00075295000000000006 0
53 0.0077400874999956105 -0.00075295000000000006 0
54 0.0079375999999956766 -0.00075295000000000006 0
55 0.0081351124999965493 -0.00075295000000000006 0
56 0.0083326249999965876 -0.00075295000000000006 0
57 0.008530137499997488 -0.00075295000000000006 0
58 0.0087276499999974985 -0.00075295000000000006 0
59 0.008925162499998425 -0.00075295000000000006 0
60 0.0091226749999990895 -0.00075295000000000006 0
61 0.0093201874999995181 -0.00075295000000000006 0
62 0.0095177000000000005 -0.00055383125000028899 0
63 0.0095177000000000005 -0.00035471250000067522 0
64 0.0095177000000000005 -0.00015559375000101072 0
65 0.0095177000000000005 4.3524999998708703e-05 0
66 0.0095177000000000005 0.00024264374999838595 0
67 0.0095177000000000005 0.00044176249999781751 0
68 0.0095177000000000005 0.00064088124999727445 0
69 0.0095177000000000005 0.00083999999999674006 0
70 0.0095177000000000005 0.0010391187499961974 0
71 0.0095177000000000005 0.0012382374999955446 0
72 0.0095177000000000005 0.001437356249994976 0
73 0.0095177000000000005 0.0016364749999944923 0
74 0.0095177000000000005 0.0018355937499938391 0
75 0.0095177000000000005 0.0020347124999933559 0
76 0.0095177000000000005 0.0022338312499927872 0
77 0.0095177000000000005 0.002432949999992219 0
78 0.0095177000000000005 0.0026320687499917341 0
79 0.0095177000000000005 0.0028311874999910804 0
80 0.0095177000000000005 0.0030303062499905959 0
81 0.0095177000000000005 0.0032294249999900268 0
82 0.0095177000000000005 0.0034285437499907618 0
83 0.0095177000000000005 0.0036276624999911603 0
84 0.0095177000000000005 0.0038267812499915561 0
85 0.0095177000000000005 0.004025899999991615 0
86 0.0095177000000000005 0.00422501874999303 0
87 0.0095177000000000005 0.0044241374999930885 0
88 0.0095177000000000005 0.0046232562499938252 0
89 0.0095177000000000005 0.0048223749999938836 0
90 0.0095177000000000005 0.0050214937499946204 0
91 0.0095177000000000005 0.0052206124999946788 0
92 0.0095177000000000005 0.0054197312499960938 0
93 0.0095177000000000005 0.0056188499999961523 0
94 0.0095177000000000005 0.005817968749996889 0
95 0.0095177000000000005 0.0060170874999969457 0
96 0.0095177000000000005 0.006216206249998359 0
97 0.0095177000000000005 0.006415324999998414 0
98 0.0095177000000000005 0.0066144437499991507 0
99 0.0095177000000000005 0.0068135624999992074 0
100 0.0095177000000000005 0.0070126812499999441 0
101 0.0093177000000005655 0.0072117999999999991 0
102 0.0091177000000001139 0.0072117999999999991 0
103 0.0089177000000000006 0.0070118000000001122 0
104 0.0089177000000000006 0.0068118000000005636 0
105 0.0089177000000000006 0.0064128367647064153 0
106 0.0089177000000000006 0.0062138735294124123 0
107 0.0089177000000000006 0.0060149102941189584 0
108 0.0089177000000000006 0.0058159470588248262 0
109 0.0089177000000000006 0.0056169838235313714 0
110 0.0089177000000000006 0.0054180205882379175 0
111 0.0089177000000000006 0.0052190573529444628 0
112 0.0089177000000000006 0.0050200941176506688 0
113 0.0089177000000000006 0.0048211308823572141 0
114 0.0089177000000000006 0.0046221676470637584 0
115 0.0089177000000000006 0.0044232044117703036 0
116 0.0089177000000000006 0.0042242411764766494 0
117 0.0089177000000000006 0.004025277941183055 0
118 0.0089177000000000006 0.0038263147058895997 0
119 0.0089177000000000006 0.0036273514705961445 0
120 0.0089177000000000006 0.0034283882353026898 0
121 0.0089177000000000006 0.0032294250000089808 0
122 0.0089177000000000006 0.0030304617647145056 0
123 0.0089177000000000006 0.0028314985294197741 0
124 0.0089177000000000006 0.002632535294125043 0
125 0.0089177000000000006 0.0024335720588306523 0
126 0.0089177000000000006 0.0022346088235359208 0
127 0.0089177000000000006 0.0020356455882411893 0
128 0.0089177000000000006 0.0018366823529464577 0
129 0.0089177000000000006 0.001637719117651917 0
130 0.0089177000000000006 0.0014387558823573355 0
131 0.0089177000000000006 0.0012397926470626049 0
132 0.0089177000000000006 0.0010408294117678733 0
133 0.0089177000000000006 0.00084186617647314266 0
134 0.0089177000000000006 0.00064290294117875027 0
135 0.0089177000000000006 0.0004439397058840196 0
136 0.0089177000000000006 0.00024497647058928807 0
137 0.0089177000000000006 4.6013235294559141e-05 0
138 0.0087205119565219244 -0.00015295 0
139 0.0085233239130442298 -0.00015295 0
140 0.0083261358695658882 -0.00015295 0
141 0.0081289478260884139 -0.00015295 0
142 0.0079317597826099248 -0.00015295 0
143 0.0077345717391322831 -0.00015295 0
144 0.0075373836956545521 -0.00015295 0
145 0.0073401956521770423 -0.00015295 0
146 0.0071430076086993711 -0.00015295 0
147 0.0069458195652217138 -0.00015295 0
148 0.0067486315217439394 -0.00015295 0
149 0.0065514434782660905 -0.00015295 0
150 0.0063542554347885069 -0.00015295 0
151 0.0061570673913108062 -0.00015295 0
152 0.0059598793478334144 -0.00015295 0
153 0.0057626913043556096 -0.00015295 0
154 0.0055655032608782698 -0.00015295 0
155 0.0053683152174004356 -0.00015295 0
156 0.0051711271739230801 -0.00015295 0
157 0.004973939130445062 -0.00015295 0
158 0.004776751086967213 -0.00015295 0
159 0.0045795630434895705 -0.00015295 0
160 0.0043823750000118551 -0.00015295 0
161 0.0041851869565332697 -0.00015295 0
162 0.0039879989130545161 -0.00015295 0
163 0.0037908108695754823 -0.00015295 0
164 0.0035936228260966688 -0.00015295 0
165 0.0033964347826177304 -0.00015295 0
166 0.0031992467391389395 -0.00015295 0
167 0.0030020586956603177 -0.00015295 0
168 0.0028048706521815259 -0.00015295 0
169 0.002607682608702898 -0.00015295 0
170 0.002410494565224114 -0.00015295 0
171 0.0022133065217450508 -0.00015295 0
172 0.0020161184782662971 -0.00015295 0
173 0.0018189304347872347 -0.00015295 0
174 0.001621742391308449 -0.00015295 0
175 0.0014245543478298203 -0.00015295 0
176 0.0012273663043510293 -0.00015295 0
177 0.0010301782608721881 -0.00015295 0
178 0.00083299021739377185 -0.00015295 0
179 0.00063580217391467908 -0.00015295 0
180 0.00043861413043626285 -0.00015295 0
181 0.00024142608695731579 -0.00015295 0
182 4.4238043478753847e-05 -0.00015295 0
183 -0.00015295 4.6013235293737857e-05 0
184 -0.00015295 0.00024497647058743273 0
185 -0.00015295 0.00044393970588119038 0
186 -0.00015295 0.00064290294117497226 0
187 -0.00015295 0.00084186617646851724 0
188 -0.00015295 0.0010408294117619816 0
189 -0.00015295 0.0012397926470554457 0
190 -0.00015295 0.0014387558823489993 0
191 -0.00015295 0.0016377191176426234 0
192 -0.00015295 0.0018366823529361771 0
193 -0.00015295 0.0020356455882296421 0
194 -0.00015295 0.0022346088235231064 0
195 -0.00015295 0.0024335720588167303 0
196 -0.00015295 0.002632535294110375 0
197 -0.00015295 0.0028314985294038385 0
198 -0.00015295 0.0030304617646973037 0
199 -0.00015295 0.0032294249999907688 0
200 -0.00015295 0.0034283882352853399 0
201 -0.00015295 0.0036273514705800801 0
202 -0.00015295 0.0038263147058748212 0
203 -0.00015295 0.0040252779411692223 0
204 -0.00015295 0.0042242411764639633 0
205 -0.00015295 0.0044232044117587044 0
206 -0.00015295 0.0046221676470534455 0
207 -0.00015295 0.0048211308823479957 0
208 -0.00015295 0.0050200941176425859 0
209 -0.00015295 0.005219057352937327 0
210 -0.00015295 0.005418020588232068 0
211 -0.00015295 0.0056169838235268091 0
212 -0.00015295 0.0058159470588212102 0
213 -0.00015295 0.0060149102941159504 0
214 -0.00015295 0.0062138735294106915 0
215 -0.00015295 0.0064128367647054299 0
216 -0.00015295 0.0068117999999998862 0
217 -0.00015295 0.0070117999999994348 0
218 -0.00035294999999950581 0.0072117999999999991 0
219 -0.00055294999999945266 0.0072117999999999991 0
220 -0.00075295000000000006 0.0070126812500002867 0
221 -0.00075295000000000006 0.0068135625000005752 0
222 -0.00075295000000000006 0.0066144437500008629 0
223 -0.00075295000000000006 0.0064153250000011514 0
224 -0.00075295000000000006 0.006216206250001439 0
225 -0.00075295000000000006 0.0060170875000020657 0
226 -0.00075295000000000006 0.0058179687500026587 0
227 -0.00075295000000000006 0.0056188500000033193 0
228 -0.00075295000000000006 0.0054197312500039122 0
229 -0.00075295000000000006 0.0052206125000042337 0
230 -0.00075295000000000006 0.0050214937500047581 0
231 -0.00075295000000000006 0.0048223750000051489 0
232 -0.00075295000000000006 0.0046232562500058087 0
233 -0.00075295000000000006 0.0044241375000064016 0
234 -0.00075295000000000006 0.0042250187500070275 0
235 -0.00075295000000000006 0.0040259000000076543 0
236 -0.00075295000000000006 0.0038267812500080958 0
237 -0.00075295000000000006 0.0036276625000087573 0
238 -0.00075295000000000006 0.0034285437500092496 0
239 -0.00075295000000000006 0.0032294250000098265 0
240 -0.00075295000000000006 0.0030303062500090985 0
241 -0.00075295000000000006 0.0028311875000087087 0
242 -0.00075295000000000006 0.0026320687500083189 0
243 -0.00075295000000000006 0.00243295000000793 0
244 -0.00075295000000000006 0.0022338312500072019 0
245 -0.00075295000000000006 0.002034712500006473 0
246 -0.00075295000000000006 0.0018355937500060824 0
247 -0.00075295000000000006 0.0016364750000056943 0
248 -0.00075295000000000006 0.0014373562500053045 0
249 -0.00075295000000000006 0.0012382375000045765 0
250 -0.00075295000000000006 0.0010391187500038484 0
251 -0.00075295000000000006 0.00084000000000345864 0
252 -0.00075295000000000006 0.00064088125000306799 0
253 -0.00075295000000000006 0.00044176250000267821 0
254 -0.00075295000000000006 0.00024264375000194755 0
255 -0.00075295000000000006 4.3525000001219498e-05 0
256 -0.00075295000000000006 -0.00015559374999917028 0
257 -0.00075295000000000006 -0.00035471249999956093 0
258 -0.00075295000000000006 -0.00055383124999995158 0
259 0.0091825507760424901 -0.00041473070519703112 0
260 -0.00042575181575383735 -0.0004177309438734101 0
261 0.0044809690217507163 -0.000452950000004176 0
262 0.0040865929347939003 -0.000452896771933745 0
263 0.0048753451087061419 -0.00045284371933278765 0
264 0.003692216847836076 -0.00045279084216985572 0
265 0.0052697211956617531 -0.00045273814047492905 0
266 0.0032978407608783354 -0.00045268561421952646 0
267 0.0056640972826169237 -0.00045263326343058743 0
268 0.0029034646739209244 -0.00045258108808276517 0
269 0.0060584733695721073 -0.0004525290881998126 0
270 0.0025090885869635078 -0.00045247726375949272 0
271 0.0064528494565273056 -0.0004524256147825923 0
272 0.0021147125000056739 -0.00045237414124984555 0
273 0.0068472255434828327 -0.0004523228431789705 0
274 0.001720336413047841 -0.00045227172055377877 0
275 0.0072416016304382063 -0.00045222077338891381 0
276 0.001325960326090425 -0.00045217000167120663 0
277 0.0076359777173934176 -0.0004521194054123375 0
278 0.00093158423913297986 -0.00045206898460221581 0
279 0.0080303538043491624 -0.00045201873924943683 0
280 0.00053720815217547097 -0.00045196866934676282 0
281 0.0084247298913050668 -0.0004519187749002008 0
282 0.00016654351555172312 -0.00045389449322786533 0
283 0.0088147606454333539 -0.00045214174048451006 0
284 -0.00045290556048219969 -4.7087351722088457e-05 0
285 0.0092193595486110905 -6.6099555277193182e-05 0
286 -0.00045295000000315983 0.0031299433823440371 0
287 0.0092177000000031421 0.003328906617655834 0
288 0.009217674235393521 0.0029309801470671372 0
289 -0.00045292423539352027 0.00352786985293271 0
290 0.0092176485111038174 0.0037268330882428689 0
291 -0.00045289851110379907 0.0027320169117571055 0
292 -0.00045287282711105331 0.0039257963235220239 0
293 0.0092176228271110463 0.0025330536764778477 0
294 0.0092175971834367251 0.0041247595588298491 0
295 -0.00045284718343668369 0.0023340904411699179 0
296 -0.00045282158006067046 0.0043237227941113326 0
297 0.0092175715800606618 0.0021351272058885559 0
298 0.0092175460170016797 0.0045226860294170388 0
299 -0.00045279601700161311 0.0019361639705829112 0
300 -0.00045277049424252897 0.0047216492647007245 0
301 0.0092175204942424871 0.0017372007352991822 0
302 0.0092174950117988493 0.0049206125000039467 0
303 -0.00045274501179880434 0.0015382374999958113 0
304 0.0092174695696564252 0.0013392742647099706 0
305 -0.00045271956965645599 0.0051195757352899569 0
306 0.0092174441678282339 0.0053185389705911867 0
307 -0.00045269416782812663 0.0011403110294087133 0
308 0.0092174188063025905 0.00094134779412050344 0
309 -0.00045266880630256349 0.0055175022058794347 0
310 0.0092173934850896134 0.0057164654411780945 0
311 -0.00045264348508956831 0.00074238455882174464 0
312 -0.00045261820418083685 0.0059154286764685803 0
313 0.009219344390675184 0.00056226134684557298 0
314 0.0092173429635833762 0.0061143919117656945 0
315 -0.00045259296358328996 0.00034445808823431147 0
316 -0.00045256776329131478 0.0063133551470580494 0
317 0.0092172525289808942 0.0065133589561856362 0
318 -0.00045458429483205055 0.0066803831953229269 0
319 0.0092174088386720969 0.0069118000000003487 0
320 0.0092172538236305959 0.00024403913384060184 0
321 -0.00012702583588735186 -0.00048077029612817888 0
322 -0.00045290591770870468 0.0070044174822309294 0
323 0.0042837809782725559 -0.00035153591675059269 0
324 0.0046781570652283892 -0.00035151799023363237 0
325 0.0038894048913149953 -0.00035150012602644496 0
326 0.0050725331521840706 -0.00035148232410848882 0
327 0.0034950288043572018 -0.00035146458444417357 0
328 0.0054669092391393627 -0.00035144690701165127 0
329 0.0031006527173996264 -0.00035142929177668165 0
330 0.0058612853260945211 -0.00035141173871653975 0
331 0.0027062766304422102 -0.00035139424779797245 0
332 0.0062556614130496535 -0.00035137681899758945 0
333 0.0023119005434845815 -0.00035135945228315568 0
334 0.0066500375000050063 -0.00035134214763044664 0
335 0.0019175244565267661 -0.00035132490500828698 0
336 0.0070444135869605394 -0.00035130772439165232 0
337 0.0015231483695691342 -0.00035129060575063399 0
338 0.0074387896739158063 -0.00035127354905931124 0
339 0.0011287722826116091 -0.0003512565542887612 0
340 0.0078331657608711001 -0.00035123962141273777 0
341 0.00073439619565422536 -0.00035122275040242118 0
342 0.0082275418478271502 -0.00035120594123154067 0
343 0.0003417677256208814 -0.00034333401549029204 0
344 0.0086219179347830684 -0.00035117250829736125 0
345 -0.00035229655159559043 0.00014549485294058532 0
346 0.0093169620991150216 0.0067120302077037586 0
347 -0.00035242432900717074 0.0033289066176380544 0
348 0.0091171743290071744 0.003129943382361746 0
349 0.0091171657110013203 0.0035278698529494193 0
350 -0.00035241571100132966 0.0029309801470505719 0
351 -0.00035240710722300478 0.0037268330882274511 0
352 0.0091171571072230107 0.0027320169117724092 0
353 0.0091171485176740306 0.003925796323536331 0
354 -0.00035239851767404986 0.0025330536764635527 0
355 -0.000352389942346479 0.0041247595588165932 0
356 0.0091171399423464802 0.002334090441183287 0
357 0.0091171313812412006 0.0043237227941234722 0
358 -0.0003523813812411235 0.0021351272058763725 0
359 -0.00035237283435147961 0.004522686029406071 0
360 0.0091171228343514578 0.0019361639705938226 0
361 0.009117114301677132 0.0047216492647104797 0
362 -0.00035236430167717443 0.0017372007352893994 0
363 0.0091171057832124553 0.0015382375000046256 0
364 -0.00035235578321245951 0.0049206124999952895 0
365 0.0091170972789562481 0.0051195757352975636 0
366 -0.00035234727895616506 0.0013392742647022231 0
367 0.0091170887889036826 0.0011403110294152391 0
368 -0.00035233878890367221 0.0053185389705846962 0
369 0.0091170803130525974 0.0055175022058846475 0
370 -0.00035233031305262271 0.00094134779411524973 0
371 -0.00035232185139942145 0.0057164654411740144 0
372 0.0091088526804550297 0.00074421977218191841 0
373 0.0091170634039410541 0.0059154286764718945 0
374 -0.00035231340394105187 0.00054342132352808148 0
375 -0.00033699593277333951 0.0065046454009695049 0
376 -0.00035230497067432586 0.0061143919117633283 0
377 0.0091170465515956357 0.0063133551470594025 0
378 0.0090021949576280028 -0.00056149144046647526 0
379 0.0093248145992044541 -0.00024220223072725507 0
380 -0.00056344361031759351 -0.00023496903227709118 0
381 0.00862528335307307 -0.00057116897340424603 0
382 0.00034140149579107298 -0.00056751930328812351 0
383 0.0082311572204953852 -0.00057117602949247591 0
384 0.00073096622670742193 -0.00057120255537108249 0
385 0.0078364103260851834 -0.00057122906889293793 0
386 0.0011250575865111166 -0.00056924175130666809 0
387 0.0074427190977907273 -0.0005678232906877631 0
388 0.0015189686004561855 -0.00056607510181858707 0
389 0.0070487937499930401 -0.00056424612633490003 0
390 0.0019134687499937858 -0.00056425864248945182 0
391 0.0066537687499920095 -0.00056427092972899612 0
392 0.0023084937499925685 -0.00056428298803356397 0
393 0.0062587437499906804 -0.00056429481738914673 0
394 0.0027035187499914962 -0.00056430641777472962 0
395 0.0058637187499897617 -0.00056431778917649807 0
396 0.0030985437499903489 -0.0005643289315725035 0
397 0.0054686937499888334 -0.00056433984494892644 0
398 0.0034935687499888807 -0.00056435052928307269 0
399 0.0050736687499879033 -0.00056436098456096441 0
400 0.003888593749987782 -0.00056437121075917881 0
401 0.0046786437499865535 -0.00056438120786372632 0
402 0.0042836187499867154 -0.00056439097585022735 0
403 -0.00056744791405413241 0.00014379306223857998 0
404 0.0093297359033827718 0.0063157656249983899 0
405 -0.00056499127817866981 0.0061166468750017541 0
406 0.009329746600189686 0.0059175281249969078 0
407 -0.00056499660018973592 0.0005413218750028731 0
408 -0.00056500186941360348 0.0057184093750029773 0
409 0.0093351539957335517 0.000745559146766429 0
410 0.0093297570858489366 0.00551929062499613 0
411 -0.00056500708584899867 0.00093955937500365364 0
412 0.0093297622494930999 0.0011386781249958712 0
413 -0.00056501224949313139 0.0053201718750040712 0
414 0.0093297673603448383 0.0051210531249946461 0
415 -0.00056501736034488524 0.0013377968750049403 0
416 0.0093297724184010344 0.0015369156249947333 0
417 -0.00056502241840105597 0.0049219343750049466 0
418 0.0093297774236610464 0.0047228156249938605 0
419 -0.00056502742366112242 0.0017360343750058879 0
420 0.0093297823761212591 0.0019351531249935973 0
421 -0.00056503237612126329 0.0045236968750061004 0
422 0.0093297872757814818 0.0043245781249930575 0
423 -0.00056503727578152121 0.0021342718750068383 0
424 -0.0005684729787044765 0.0065042159456788146 0
425 -0.00056504212263747795 0.0041254593750073331 0
426 0.0093297921226374748 0.0023333906249925029 0
427 0.0093297969166895901 0.0039263406249915866 0
428 -0.00056504691668964177 0.0025325093750081236 0
429 -0.00056505165793304356 0.0037272218750084257 0
430 0.0093298016579330453 0.0027316281249914072 0
431 0.0093298063463687752 0.0035281031249909615 0
432 -0.00056505634636877912 0.0029307468750089031 0
433 -0.00056506098199142994 0.0033289843750095374 0
434 0.009329810981991437 0.0031298656249903124 0
435 0.0091048080139042031 0.006711800000000271 0
436 -0.00055333054011717851 -0.00055278662937287705 0
437 0.0093125763443285929 -0.00054788126331166789 0
438 0.0089799720635014395 -0.00034164891455625522 0
439 -0.0003471864591134734 -0.00020398959855008467 0
440 -0.00027317025097928433 -0.0005673503779801926 0
441 -1.2934089669682607e-05 -0.00034305303484956199 0
442 0.0093348283210538882 9.6207407534800119e-05 0
443 0.0093333920921224167 0.00039087522443154242 0
444 0.0091130178324647596 -0.00021322044291563816 0
445 0.0091003815649813961 9.5307623964300449e-05 0
446 0.0091027763837009112 0.00038608963864784906 0
447 1.8543989241197108e-05 -0.00054264359111814216 0
448 -0.00056392820902470054 0.0068703231700552089 0
449 -0.00034045575813259666 0.0068740273836668487 0
450 0.0093425280816490947 0.0070367360144588317 0
451 0.0090926090518521283 0.0070368909481479157 0
452 -0.00022316974190060492 -0.00036097404189690469 0
453 0.0088190102912260697 -0.0006181404308710464 0
454 0.0084287865929735199 -0.00062003275555938455 0
455 0.00053426767493391686 -0.0006193181056011938 0
456 0.0080341267701843893 -0.00062006476752697007 0
457 0.00092788411046901243 -0.0006196826582559932 0
458 0.0076395539282519409 -0.00061941435299860776 0
459 0.0013209312499955848 -0.00061873046656086585 0
460 0.0072463062499938382 -0.00061876383329682177 0
461 0.0017159562499943586 -0.00061879694978019158 0
462 0.0068512812499924788 -0.00061882981586193378 0
463 0.0021109812499931651 -0.00061886243137218382 0
464 0.0064562562499914881 -0.00061889479616090255 0
465 0.0025060062499920321 -0.00061892691005385303 0
466 0.0060612312499902015 -0.00061895877290003712 0
467 0.0029010312499909647 -0.0006189903845213331 0
468 0.0056662062499892836 -0.00061902174476534736 0
469 0.0044809690217507163 -0.00028674869813124408 0
470 0.0032960562499895802 -0.00061905285344988643 0
471 0.0040865929347938994 -0.00028671920903895596 0
472 0.0052711812499883562 -0.00061908371042166039 0
473 0.0048753451087061419 -0.00028668981614396975 0
474 0.003691081249988321 -0.00061911431549420035 0
475 0.0036922168478360751 -0.00028666051943776634 0
476 0.0048761562499872509 -0.00061914466851306247 0
477 0.0052697211956617531 -0.00028663131894715967 0
478 0.0040861062499872539 -0.00061917476928769171 0
479 0.003297840760878335 -0.00028660221466496853 0
480 0.0044811312499862593 -0.00061920461766235544 0
481 0.0056640972826169237 -0.00028657320661652585 0
482 0.0029034646739209248 -0.00028654429479627063 0
483 0.0060584733695721073 -0.0002865154792277187 0
484 0.0025090885869635078 -0.0002864867599069945 0
485 0.0064528494565273048 -0.00028645813685587132 0
486 0.0021147125000056739 -0.00028642961007219599 0
487 0.0068472255434828344 -0.00028640117957583905 0
488 0.0017203364130478412 -0.00028637284536643881 0
489 0.0072416016304382071 -0.00028634460746205397 0
490 0.001325960326090425 -0.00028631646586391705 0
491 0.0076359777173934176 -0.00028628842058843647 0
492 0.00093158423913298008 -0.00028626047163858017 0
493 0.0080303538043491624 -0.00028623261902865091 0
494 0.00053720815217547118 -0.00028620486276373862 0
495 0.0084247298913050668 -0.00028617720285624491 0
496 0.0088132963652516709 -0.00028901535823227273 0
497 -0.00029165771423825271 -4.2503772407569989e-05 0
498 -0.00061793941697078523 -5.0066414351710086e-05 0
499 0.0093839830542134777 0.0065148843749987841 0
500 -0.00061924830334880037 0.0063157656250012939 0
501 0.0093840134947798665 0.0061166468749976558 0
502 -0.00061926349477971578 0.00034220312500231283 0
503 -0.00061927862848440288 0.0059175281250023644 0
504 0.0093840437044484405 0.0057184093749965215 0
505 -0.000619293704448348 0.00074044062500326331 0
506 -0.00061930872264805105 0.0055192906250036275 0
507 0.0093840587226480688 0.00093955937499646852 0
508 0.0093840736830705027 0.005320171874995382 0
509 -0.00061932368307033995 0.0011386781250042127 0
510 0.0093840885856897992 0.0013377968749952605 0
511 -0.00061933858568983581 0.0051210531250044985 0
512 0.0093841034304950714 0.0049219343749942511 0
513 -0.00061935343049499458 0.0015369156250054999 0
514 0.0093841182174587822 0.0017360343749941657 0
515 -0.00061936821745880511 0.0047228156250054831 0
516 0.0093841329465710784 0.0045236968749934534 0
517 -0.00061938294657099848 0.001935153125006277 0
518 -0.00028645567958573569 0.0031299433823440371 0
519 0.0090512056795856843 0.0033289066176558336 0
520 -0.00061939761780290968 0.0043245781250067202 0
521 0.0093841476178029085 0.0021342718749930724 0
522 0.0090511913805933 0.0029309801470671372 0
523 -0.00028644138059328076 0.00352786985293271 0
524 0.0093841622311459563 0.0041254593749923242 0
525 -0.00061941223114583214 0.002333390625007566 0
526 0.0090511771037354305 0.0037268330882428693 0
527 -0.00028642710373542418 0.0027320169117571055 0
528 -0.0006194267865691017 0.0039263406250078792 0
529 0.0093841767865690748 0.0025325093749919768 0
530 0.0090511628489997314 0.0025330536764778477 0
531 -0.00028641284899971823 0.0039257963235220239 0
532 0.009384191284065516 0.0037272218749913565 0
533 -0.00061944128406549973 0.0027316281250085142 0
534 0.0090511486163998168 0.0041247595588298491 0
535 -0.00028639861639977529 0.0023340904411699179 0
536 -0.0006194557236029577 0.0035281031250090043 0
537 0.0093842057236029411 0.0029307468749908373 0
538 -0.00028638440592495434 0.0043237227941113326 0
539 0.0090511344059249592 0.0021351272058885555 0
540 0.0093842201051755128 0.0033289843749903956 0
541 -0.00061947010517552118 0.0031298656250094629 0
542 0.0090511202175874213 0.0045226860294170388 0
543 -0.00028637021758736657 0.001936163970582911 0
544 -0.00028635605137787389 0.0047216492647007237 0
545 0.0090511060513778531 0.0017372007352991871 0
546 0.0090510919073068675 0.0049206125000039467 0
547 -0.00028634190730680755 0.0015382374999958113 0
548 -0.00028632778536680936 0.005119575735289956 0
549 0.0090510777853668057 0.0013392742647099706 0
550 0.0090510636855667733 0.0053185389705911867 0
551 -0.00028631368556670096 0.0011403110294087133 0
552 0.009051049607900501 0.00094134779412050821 0
553 -0.00028629960790048364 0.0055175022058794347 0
554 0.0090510355523755331 0.0057164654411780945 0
555 -0.00028628555237550016 0.00074238455882174464 0
556 -0.00028627151898739993 0.005915428676468582 0
557 0.0090510075077419507 0.0061143919117656945 0
558 -0.00028625750774184401 0.00034445808823431153 0
559 -0.00028624351863609825 0.0063133551470580486 0
560 0.0090509795516742677 0.0065123183823532155 0
561 0.0093820123816692694 -6.1831216884873218e-05 0
562 0.00014974927778170299 -0.00028843117938963115 0
563 0.0090536701001751943 -5.9904810945635236e-05 0
564 0.0090537712601470328 0.00055170436129007812 0
565 0.0093828680259990093 0.00055351357309448576 0
566 -0.00059993552160383479 0.0070558533153627229 0
567 -0.00030578576533798183 0.007055960618550754 0
568 0.00016668491418191336 -0.00060983450019550564 0
569 -0.00028961558247154621 0.0066934946193201901 0
570 0.0091628003640209111 -0.00059964533927602079 0
571 -0.00061438319945440962 0.0066912017722212617 0
572 0.0093650137478543793 -0.00039807034038398265 0
573 -0.00060271622739022698 -0.00040450925404536011 0
574 0.0093734368372221551 0.006880662551421504 0
575 0.0090500451808856863 0.0068968181896298421 0
576 0.0093507935592017245 0.00024344137895133256 0
577 0.0090794981314800856 0.00024208577818901346 0
578 -0.00043182092076524885 -0.00063091814188825544 0
579 0.0092176128299571742 0.0071082131730559528 0
580 -0.00010687599107877141 -0.00061861550147550965 0
581 0.0094123535928458298 -0.0006468536292884386 0
582 -0.00065366701002937612 -0.00065312946984320721 0
$EndNodes
$Elements
904
1 2 2 0 1 218 219 322
2 2 2 0 1 260 440 452
3 2 2 0 1 440 321 452
4 2 2 0 1 322 219 566
5 2 2 0 1 218 322 567
6 2 2 0 1 344 281 381
7 2 2 0 1 280 343 382
8 2 2 0 1 342 279 383
9 2 2 0 1 278 341 384
10 2 2 0 1 340 277 385
11 2 2 0 1 276 339 386
12 2 2 0 1 338 275 387
13 2 2 0 1 274 337 388
14 2 2 0 1 336 273 389
15 2 2 0 1 272 335 390
16 2 2 0 1 334 271 391
17 2 2 0 1 270 333 392
18 2 2 0 1 332 269 393
19 2 2 0 1 268 331 394
20 2 2 0 1 330 267 395
21 2 2 0 1 266 329 396
22 2 2 0 1 328 265 397
23 2 2 0 1 264 327 398
24 2 2 0 1 326 263 399
25 2 2 0 1 262 325 400
26 2 2 0 1 324 261 401
27 2 2 0 1 345 315 403
28 2 2 0 1 261 323 402
29 2 2 0 1 323 262 402
30 2 2 0 1 377 314 404
31 2 2 0 1 316 375 424
32 2 2 0 1 312 376 405
33 2 2 0 1 263 324 401
34 2 2 0 1 373 310 406
35 2 2 0 1 374 311 407
36 2 2 0 1 309 371 408
37 2 2 0 1 308 372 409
38 2 2 0 1 325 264 400
39 2 2 0 1 369 306 410
40 2 2 0 1 370 307 411
41 2 2 0 1 304 367 412
42 2 2 0 1 305 368 413
43 2 2 0 1 265 326 399
44 2 2 0 1 365 302 414
45 2 2 0 1 366 303 415
46 2 2 0 1 301 363 416
47 2 2 0 1 300 364 417
48 2 2 0 1 327 266 398
49 2 2 0 1 361 298 418
50 2 2 0 1 362 299 419
51 2 2 0 1 267 328 397
52 2 2 0 1 297 360 420
53 2 2 0 1 296 359 421
54 2 2 0 1 357 294 422
55 2 2 0 1 358 295 423
56 2 2 0 1 329 268 396
57 2 2 0 1 292 355 425
58 2 2 0 1 293 356 426
59 2 2 0 1 354 291 428
60 2 2 0 1 353 290 427
61 2 2 0 1 269 330 395
62 2 2 0 1 288 352 430
63 2 2 0 1 289 351 429
64 2 2 0 1 349 287 431
65 2 2 0 1 350 286 432
66 2 2 0 1 331 270 394
67 2 2 0 1 286 347 433
68 2 2 0 1 287 348 434
69 2 2 0 1 347 289 433
70 2 2 0 1 348 288 434
71 2 2 0 1 317 346 435
72 2 2 0 1 346 319 435
73 2 2 0 1 271 332 393
74 2 2 0 1 290 349 431
75 2 2 0 1 291 350 432
76 2 2 0 1 351 292 429
77 2 2 0 1 352 293 430
78 2 2 0 1 333 272 392
79 2 2 0 1 294 353 427
80 2 2 0 1 295 354 428
81 2 2 0 1 284 345 403
82 2 2 0 1 355 296 425
83 2 2 0 1 356 297 426
84 2 2 0 1 273 334 391
85 2 2 0 1 298 357 422
86 2 2 0 1 299 358 423
87 2 2 0 1 359 300 421
88 2 2 0 1 360 301 420
89 2 2 0 1 335 274 390
90 2 2 0 1 302 361 418
91 2 2 0 1 303 362 419
92 2 2 0 1 364 305 417
93 2 2 0 1 363 304 416
94 2 2 0 1 275 336 389
95 2 2 0 1 306 365 414
96 2 2 0 1 307 366 415
97 2 2 0 1 367 308 412
98 2 2 0 1 368 309 413
99 2 2 0 1 337 276 388
100 2 2 0 1 310 369 410
101 2 2 0 1 311 370 411
102 2 2 0 1 371 312 408
103 2 2 0 1 372 313 409
104 2 2 0 1 277 338 387
105 2 2 0 1 314 373 406
106 2 2 0 1 315 374 407
107 2 2 0 1 376 316 405
108 2 2 0 1 339 278 386
109 2 2 0 1 375 318 424
110 2 2 0 1 317 377 404
111 2 2 0 1 279 340 385
112 2 2 0 1 341 280 384
113 2 2 0 1 281 342 383
114 2 2 0 1 343 282 382
115 2 2 0 1 283 344 381
116 2 2 0 1 59 60 378
117 2 2 0 1 98 99 346
118 2 2 0 1 160 161 323
119 2 2 0 1 158 159 324
120 2 2 0 1 162 163 325
121 2 2 0 1 156 157 326
122 2 2 0 1 164 165 327
123 2 2 0 1 154 155 328
124 2 2 0 1 166 167 329
125 2 2 0 1 152 153 330
126 2 2 0 1 168 169 331
127 2 2 0 1 100 3 450
128 2 2 0 1 150 151 332
129 2 2 0 1 170 171 333
130 2 2 0 1 148 149 334
131 2 2 0 1 172 173 335
132 2 2 0 1 146 147 336
133 2 2 0 1 174 175 337
134 2 2 0 1 144 145 338
135 2 2 0 1 176 177 339
136 2 2 0 1 142 143 340
137 2 2 0 1 178 179 341
138 2 2 0 1 140 141 342
139 2 2 0 1 180 181 343
140 2 2 0 1 138 139 344
141 2 2 0 1 3 101 450
142 2 2 0 1 183 184 345
143 2 2 0 1 199 200 347
144 2 2 0 1 121 122 348
145 2 2 0 1 197 198 350
146 2 2 0 1 119 120 349
147 2 2 0 1 123 124 352
148 2 2 0 1 201 202 351
149 2 2 0 1 195 196 354
150 2 2 0 1 117 118 353
151 2 2 0 1 125 126 356
152 2 2 0 1 203 204 355
153 2 2 0 1 115 116 357
154 2 2 0 1 193 194 358
155 2 2 0 1 205 206 359
156 2 2 0 1 127 128 360
157 2 2 0 1 113 114 361
158 2 2 0 1 191 192 362
159 2 2 0 1 129 130 363
160 2 2 0 1 207 208 364
161 2 2 0 1 220 448 566
162 2 2 0 1 111 112 365
163 2 2 0 1 189 190 366
164 2 2 0 1 131 132 367
165 2 2 0 1 209 210 368
166 2 2 0 1 109 110 369
167 2 2 0 1 187 188 370
168 2 2 0 1 211 212 371
169 2 2 0 1 133 134 372
170 2 2 0 1 107 108 373
171 2 2 0 1 185 186 374
172 2 2 0 1 213 214 376
173 2 2 0 1 105 106 377
174 2 2 0 1 215 8 375
175 2 2 0 1 220 221 448
176 2 2 0 1 4 103 451
177 2 2 0 1 102 4 451
178 2 2 0 1 63 64 379
179 2 2 0 1 256 257 380
180 2 2 0 1 449 217 567
181 2 2 0 1 216 217 449
182 2 2 0 1 448 318 449
183 2 2 0 1 322 448 449
184 2 2 0 1 66 67 443
185 2 2 0 1 12 13 440
186 2 2 0 1 282 441 447
187 2 2 0 1 441 321 447
188 2 2 0 1 380 260 439
189 2 2 0 1 283 378 438
190 2 2 0 1 284 380 439
191 2 2 0 1 182 7 441
192 2 2 0 1 378 259 438
193 2 2 0 1 136 137 445
194 2 2 0 1 135 136 446
195 2 2 0 1 136 445 577
196 2 2 0 1 65 66 442
197 2 2 0 1 66 443 576
198 2 2 0 1 57 58 381
199 2 2 0 1 15 16 382
200 2 2 0 1 55 56 383
201 2 2 0 1 17 18 384
202 2 2 0 1 53 54 385
203 2 2 0 1 19 20 386
204 2 2 0 1 51 52 387
205 2 2 0 1 21 22 388
206 2 2 0 1 49 50 389
207 2 2 0 1 23 24 390
208 2 2 0 1 47 48 391
209 2 2 0 1 25 26 392
210 2 2 0 1 45 46 393
211 2 2 0 1 27 28 394
212 2 2 0 1 43 44 395
213 2 2 0 1 29 30 396
214 2 2 0 1 41 42 397
215 2 2 0 1 31 32 398
216 2 2 0 1 39 40 399
217 2 2 0 1 33 34 400
218 2 2 0 1 37 38 401
219 2 2 0 1 35 36 402
220 2 2 0 1 285 442 445
221 2 2 0 1 442 320 445
222 2 2 0 1 381 281 454
223 2 2 0 1 280 382 455
224 2 2 0 1 320 443 446
225 2 2 0 1 443 313 446
226 2 2 0 1 383 279 456
227 2 2 0 1 254 255 403
228 2 2 0 1 96 97 404
229 2 2 0 1 224 225 405
230 2 2 0 1 94 95 406
231 2 2 0 1 252 253 407
232 2 2 0 1 278 384 457
233 2 2 0 1 226 227 408
234 2 2 0 1 68 69 409
235 2 2 0 1 92 93 410
236 2 2 0 1 250 251 411
237 2 2 0 1 228 229 413
238 2 2 0 1 70 71 412
239 2 2 0 1 90 91 414
240 2 2 0 1 248 249 415
241 2 2 0 1 230 231 417
242 2 2 0 1 72 73 416
243 2 2 0 1 222 223 424
244 2 2 0 1 88 89 418
245 2 2 0 1 246 247 419
246 2 2 0 1 74 75 420
247 2 2 0 1 232 233 421
248 2 2 0 1 86 87 422
249 2 2 0 1 244 245 423
250 2 2 0 1 234 235 425
251 2 2 0 1 76 77 426
252 2 2 0 1 84 85 427
253 2 2 0 1 242 243 428
254 2 2 0 1 236 237 429
255 2 2 0 1 78 79 430
256 2 2 0 1 82 83 431
257 2 2 0 1 240 241 432
258 2 2 0 1 238 239 433
259 2 2 0 1 80 81 434
260 2 2 0 1 446 136 577
261 2 2 0 1 441 7 452
262 2 2 0 1 385 277 458
263 2 2 0 1 276 386 459
264 2 2 0 1 104 5 435
265 2 2 0 1 387 275 460
266 2 2 0 1 274 388 461
267 2 2 0 1 389 273 462
268 2 2 0 1 442 66 576
269 2 2 0 1 272 390 463
270 2 2 0 1 391 271 464
271 2 2 0 1 270 392 465
272 2 2 0 1 393 269 466
273 2 2 0 1 268 394 467
274 2 2 0 1 395 267 468
275 2 2 0 1 266 396 470
276 2 2 0 1 316 424 500
277 2 2 0 1 403 315 502
278 2 2 0 1 404 314 501
279 2 2 0 1 397 265 472
280 2 2 0 1 312 405 503
281 2 2 0 1 406 310 504
282 2 2 0 1 407 311 505
283 2 2 0 1 264 398 474
284 2 2 0 1 309 408 506
285 2 2 0 1 308 409 507
286 2 2 0 1 410 306 508
287 2 2 0 1 411 307 509
288 2 2 0 1 399 263 476
289 2 2 0 1 305 413 511
290 2 2 0 1 304 412 510
291 2 2 0 1 414 302 512
292 2 2 0 1 415 303 513
293 2 2 0 1 262 400 478
294 2 2 0 1 301 416 514
295 2 2 0 1 300 417 515
296 2 2 0 1 418 298 516
297 2 2 0 1 419 299 517
298 2 2 0 1 401 261 480
299 2 2 0 1 297 420 521
300 2 2 0 1 296 421 520
301 2 2 0 1 422 294 524
302 2 2 0 1 423 295 525
303 2 2 0 1 261 402 480
304 2 2 0 1 293 426 529
305 2 2 0 1 292 425 528
306 2 2 0 1 317 435 560
307 2 2 0 1 402 262 478
308 2 2 0 1 428 291 533
309 2 2 0 1 427 290 532
310 2 2 0 1 288 430 537
311 2 2 0 1 289 429 536
312 2 2 0 1 263 401 476
313 2 2 0 1 431 287 540
314 2 2 0 1 432 286 541
315 2 2 0 1 287 434 540
316 2 2 0 1 286 433 541
317 2 2 0 1 400 264 474
318 2 2 0 1 433 289 536
319 2 2 0 1 434 288 537
320 2 2 0 1 290 431 532
321 2 2 0 1 291 432 533
322 2 2 0 1 265 399 472
323 2 2 0 1 429 292 528
324 2 2 0 1 430 293 529
325 2 2 0 1 294 427 524
326 2 2 0 1 295 428 525
327 2 2 0 1 398 266 470
328 2 2 0 1 425 296 520
329 2 2 0 1 426 297 521
330 2 2 0 1 298 422 516
331 2 2 0 1 299 423 517
332 2 2 0 1 267 397 468
333 2 2 0 1 421 300 515
334 2 2 0 1 420 301 514
335 2 2 0 1 284 403 498
336 2 2 0 1 302 418 512
337 2 2 0 1 303 419 513
338 2 2 0 1 396 268 467
339 2 2 0 1 417 305 511
340 2 2 0 1 416 304 510
341 2 2 0 1 306 414 508
342 2 2 0 1 307 415 509
343 2 2 0 1 269 395 466
344 2 2 0 1 413 309 506
345 2 2 0 1 412 308 507
346 2 2 0 1 310 410 504
347 2 2 0 1 311 411 505
348 2 2 0 1 394 270 465
349 2 2 0 1 408 312 503
350 2 2 0 1 440 13 580
351 2 2 0 1 314 406 501
352 2 2 0 1 315 407 502
353 2 2 0 1 6 438 444
354 2 2 0 1 405 316 500
355 2 2 0 1 271 393 464
356 2 2 0 1 317 404 499
357 2 2 0 1 345 284 497
358 2 2 0 1 392 272 463
359 2 2 0 1 160 323 469
360 2 2 0 1 323 161 471
361 2 2 0 1 324 159 469
362 2 2 0 1 158 324 473
363 2 2 0 1 162 325 471
364 2 2 0 1 325 163 475
365 2 2 0 1 326 157 473
366 2 2 0 1 156 326 477
367 2 2 0 1 273 391 462
368 2 2 0 1 261 324 469
369 2 2 0 1 164 327 475
370 2 2 0 1 323 261 469
371 2 2 0 1 327 165 479
372 2 2 0 1 325 262 471
373 2 2 0 1 328 155 477
374 2 2 0 1 154 328 481
375 2 2 0 1 262 323 471
376 2 2 0 1 166 329 479
377 2 2 0 1 263 326 473
378 2 2 0 1 329 167 482
379 2 2 0 1 324 263 473
380 2 2 0 1 330 153 481
381 2 2 0 1 327 264 475
382 2 2 0 1 152 330 483
383 2 2 0 1 264 325 475
384 2 2 0 1 168 331 482
385 2 2 0 1 265 328 477
386 2 2 0 1 331 169 484
387 2 2 0 1 326 265 477
388 2 2 0 1 332 151 483
389 2 2 0 1 329 266 479
390 2 2 0 1 150 332 485
391 2 2 0 1 266 327 479
392 2 2 0 1 170 333 484
393 2 2 0 1 267 330 481
394 2 2 0 1 333 171 486
395 2 2 0 1 328 267 481
396 2 2 0 1 334 149 485
397 2 2 0 1 331 268 482
398 2 2 0 1 148 334 487
399 2 2 0 1 268 329 482
400 2 2 0 1 172 335 486
401 2 2 0 1 269 332 483
402 2 2 0 1 335 173 488
403 2 2 0 1 330 269 483
404 2 2 0 1 336 147 487
405 2 2 0 1 333 270 484
406 2 2 0 1 146 336 489
407 2 2 0 1 270 331 484
408 2 2 0 1 174 337 488
409 2 2 0 1 271 334 485
410 2 2 0 1 337 175 490
411 2 2 0 1 332 271 485
412 2 2 0 1 390 274 461
413 2 2 0 1 338 145 489
414 2 2 0 1 335 272 486
415 2 2 0 1 144 338 491
416 2 2 0 1 272 333 486
417 2 2 0 1 176 339 490
418 2 2 0 1 273 336 487
419 2 2 0 1 339 177 492
420 2 2 0 1 334 273 487
421 2 2 0 1 183 345 497
422 2 2 0 1 340 143 491
423 2 2 0 1 337 274 488
424 2 2 0 1 142 340 493
425 2 2 0 1 274 335 488
426 2 2 0 1 178 341 492
427 2 2 0 1 275 338 489
428 2 2 0 1 341 179 494
429 2 2 0 1 336 275 489
430 2 2 0 1 342 141 493
431 2 2 0 1 339 276 490
432 2 2 0 1 140 342 495
433 2 2 0 1 276 337 490
434 2 2 0 1 180 343 494
435 2 2 0 1 277 340 491
436 2 2 0 1 338 277 491
437 2 2 0 1 344 139 495
438 2 2 0 1 341 278 492
439 2 2 0 1 138 344 496
440 2 2 0 1 278 339 492
441 2 2 0 1 279 342 493
442 2 2 0 1 340 279 493
443 2 2 0 1 343 280 494
444 2 2 0 1 280 341 494
445 2 2 0 1 281 344 495
446 2 2 0 1 342 281 495
447 2 2 0 1 344 283 496
448 2 2 0 1 275 389 460
449 2 2 0 1 388 276 459
450 2 2 0 1 345 184 558
451 2 2 0 1 315 345 558
452 2 2 0 1 199 347 518
453 2 2 0 1 121 348 519
454 2 2 0 1 347 200 523
455 2 2 0 1 348 122 522
456 2 2 0 1 349 120 519
457 2 2 0 1 350 198 518
458 2 2 0 1 277 387 458
459 2 2 0 1 197 350 527
460 2 2 0 1 119 349 526
461 2 2 0 1 123 352 522
462 2 2 0 1 201 351 523
463 2 2 0 1 352 124 530
464 2 2 0 1 351 202 531
465 2 2 0 1 354 196 527
466 2 2 0 1 353 118 526
467 2 2 0 1 117 353 534
468 2 2 0 1 195 354 535
469 2 2 0 1 287 349 519
470 2 2 0 1 286 350 518
471 2 2 0 1 125 356 530
472 2 2 0 1 203 355 531
473 2 2 0 1 348 287 519
474 2 2 0 1 347 286 518
475 2 2 0 1 355 204 538
476 2 2 0 1 356 126 539
477 2 2 0 1 357 116 534
478 2 2 0 1 358 194 535
479 2 2 0 1 351 289 523
480 2 2 0 1 352 288 522
481 2 2 0 1 115 357 542
482 2 2 0 1 193 358 543
483 2 2 0 1 289 347 523
484 2 2 0 1 288 348 522
485 2 2 0 1 205 359 538
486 2 2 0 1 127 360 539
487 2 2 0 1 291 354 527
488 2 2 0 1 290 353 526
489 2 2 0 1 359 206 544
490 2 2 0 1 360 128 545
491 2 2 0 1 350 291 527
492 2 2 0 1 349 290 526
493 2 2 0 1 361 114 542
494 2 2 0 1 362 192 543
495 2 2 0 1 355 292 531
496 2 2 0 1 356 293 530
497 2 2 0 1 113 361 546
498 2 2 0 1 191 362 547
499 2 2 0 1 292 351 531
500 2 2 0 1 293 352 530
501 2 2 0 1 129 363 545
502 2 2 0 1 207 364 544
503 2 2 0 1 294 357 534
504 2 2 0 1 295 358 535
505 2 2 0 1 363 130 549
506 2 2 0 1 364 208 548
507 2 2 0 1 354 295 535
508 2 2 0 1 353 294 534
509 2 2 0 1 365 112 546
510 2 2 0 1 366 190 547
511 2 2 0 1 359 296 538
512 2 2 0 1 360 297 539
513 2 2 0 1 111 365 550
514 2 2 0 1 189 366 551
515 2 2 0 1 296 355 538
516 2 2 0 1 297 356 539
517 2 2 0 1 131 367 549
518 2 2 0 1 209 368 548
519 2 2 0 1 298 361 542
520 2 2 0 1 299 362 543
521 2 2 0 1 367 132 552
522 2 2 0 1 368 210 553
523 2 2 0 1 357 298 542
524 2 2 0 1 358 299 543
525 2 2 0 1 369 110 550
526 2 2 0 1 370 188 551
527 2 2 0 1 364 300 544
528 2 2 0 1 363 301 545
529 2 2 0 1 109 369 554
530 2 2 0 1 187 370 555
531 2 2 0 1 300 359 544
532 2 2 0 1 301 360 545
533 2 2 0 1 211 371 553
534 2 2 0 1 133 372 552
535 2 2 0 1 302 365 546
536 2 2 0 1 303 366 547
537 2 2 0 1 371 212 556
538 2 2 0 1 361 302 546
539 2 2 0 1 362 303 547
540 2 2 0 1 373 108 554
541 2 2 0 1 374 186 555
542 2 2 0 1 367 304 549
543 2 2 0 1 368 305 548
544 2 2 0 1 107 373 557
545 2 2 0 1 185 374 558
546 2 2 0 1 304 363 549
547 2 2 0 1 305 364 548
548 2 2 0 1 213 376 556
549 2 2 0 1 306 369 550
550 2 2 0 1 307 370 551
551 2 2 0 1 376 214 559
552 2 2 0 1 365 306 550
553 2 2 0 1 366 307 551
554 2 2 0 1 377 106 557
555 2 2 0 1 372 308 552
556 2 2 0 1 371 309 553
557 2 2 0 1 105 377 560
558 2 2 0 1 308 367 552
559 2 2 0 1 309 368 553
560 2 2 0 1 310 373 554
561 2 2 0 1 311 374 555
562 2 2 0 1 369 310 554
563 2 2 0 1 370 311 555
564 2 2 0 1 376 312 556
565 2 2 0 1 312 371 556
566 2 2 0 1 314 377 557
567 2 2 0 1 373 314 557
568 2 2 0 1 374 315 558
569 2 2 0 1 316 376 559
570 2 2 0 1 377 317 560
571 2 2 0 1 215 375 559
572 2 2 0 1 386 278 457
573 2 2 0 1 375 316 559
574 2 2 0 1 279 385 456
575 2 2 0 1 260 436 578
576 2 2 0 1 384 280 455
577 2 2 0 1 259 379 444
578 2 2 0 1 346 317 499
579 2 2 0 1 98 346 499
580 2 2 0 1 379 285 444
581 2 2 0 1 281 383 454
582 2 2 0 1 283 381 453
583 2 2 0 1 440 260 578
584 2 2 0 1 409 313 565
585 2 2 0 1 343 181 562
586 2 2 0 1 282 343 562
587 2 2 0 1 372 134 564
588 2 2 0 1 313 372 564
589 2 2 0 1 61 437 570
590 2 2 0 1 10 220 566
591 2 2 0 1 439 260 452
592 2 2 0 1 219 10 566
593 2 2 0 1 217 9 567
594 2 2 0 1 9 218 567
595 2 2 0 1 378 60 570
596 2 2 0 1 381 58 453
597 2 2 0 1 57 381 454
598 2 2 0 1 382 16 455
599 2 2 0 1 383 56 454
600 2 2 0 1 55 383 456
601 2 2 0 1 17 384 455
602 2 2 0 1 384 18 457
603 2 2 0 1 385 54 456
604 2 2 0 1 53 385 458
605 2 2 0 1 19 386 457
606 2 2 0 1 386 20 459
607 2 2 0 1 387 52 458
608 2 2 0 1 51 387 460
609 2 2 0 1 21 388 459
610 2 2 0 1 388 22 461
611 2 2 0 1 389 50 460
612 2 2 0 1 49 389 462
613 2 2 0 1 23 390 461
614 2 2 0 1 390 24 463
615 2 2 0 1 391 48 462
616 2 2 0 1 47 391 464
617 2 2 0 1 25 392 463
618 2 2 0 1 392 26 465
619 2 2 0 1 393 46 464
620 2 2 0 1 45 393 466
621 2 2 0 1 27 394 465
622 2 2 0 1 394 28 467
623 2 2 0 1 395 44 466
624 2 2 0 1 43 395 468
625 2 2 0 1 29 396 467
626 2 2 0 1 396 30 470
627 2 2 0 1 397 42 468
628 2 2 0 1 41 397 472
629 2 2 0 1 31 398 470
630 2 2 0 1 398 32 474
631 2 2 0 1 399 40 472
632 2 2 0 1 380 284 498
633 2 2 0 1 39 399 476
634 2 2 0 1 33 400 474
635 2 2 0 1 400 34 478
636 2 2 0 1 401 38 476
637 2 2 0 1 37 401 480
638 2 2 0 1 35 402 478
639 2 2 0 1 402 36 480
640 2 2 0 1 437 62 572
641 2 2 0 1 258 436 573
642 2 2 0 1 256 380 498
643 2 2 0 1 435 319 575
644 2 2 0 1 378 283 453
645 2 2 0 1 59 378 453
646 2 2 0 1 60 61 570
647 2 2 0 1 403 255 498
648 2 2 0 1 254 403 502
649 2 2 0 1 404 97 499
650 2 2 0 1 96 404 501
651 2 2 0 1 224 405 500
652 2 2 0 1 405 225 503
653 2 2 0 1 406 95 501
654 2 2 0 1 407 253 502
655 2 2 0 1 94 406 504
656 2 2 0 1 252 407 505
657 2 2 0 1 226 408 503
658 2 2 0 1 408 227 506
659 2 2 0 1 409 69 507
660 2 2 0 1 410 93 504
661 2 2 0 1 411 251 505
662 2 2 0 1 92 410 508
663 2 2 0 1 250 411 509
664 2 2 0 1 228 413 506
665 2 2 0 1 70 412 507
666 2 2 0 1 412 71 510
667 2 2 0 1 413 229 511
668 2 2 0 1 414 91 508
669 2 2 0 1 415 249 509
670 2 2 0 1 424 223 500
671 2 2 0 1 90 414 512
672 2 2 0 1 248 415 513
673 2 2 0 1 72 416 510
674 2 2 0 1 230 417 511
675 2 2 0 1 417 231 515
676 2 2 0 1 416 73 514
677 2 2 0 1 418 89 512
678 2 2 0 1 419 247 513
679 2 2 0 1 88 418 516
680 2 2 0 1 246 419 517
681 2 2 0 1 74 420 514
682 2 2 0 1 232 421 515
683 2 2 0 1 420 75 521
684 2 2 0 1 421 233 520
685 2 2 0 1 422 87 516
686 2 2 0 1 423 245 517
687 2 2 0 1 86 422 524
688 2 2 0 1 244 423 525
689 2 2 0 1 234 425 520
690 2 2 0 1 76 426 521
691 2 2 0 1 425 235 528
692 2 2 0 1 426 77 529
693 2 2 0 1 427 85 524
694 2 2 0 1 428 243 525
695 2 2 0 1 84 427 532
696 2 2 0 1 242 428 533
697 2 2 0 1 236 429 528
698 2 2 0 1 78 430 529
699 2 2 0 1 430 79 537
700 2 2 0 1 429 237 536
701 2 2 0 1 431 83 532
702 2 2 0 1 432 241 533
703 2 2 0 1 82 431 540
704 2 2 0 1 240 432 541
705 2 2 0 1 238 433 536
706 2 2 0 1 80 434 537
707 2 2 0 1 433 239 541
708 2 2 0 1 434 81 540
709 2 2 0 1 435 5 560
710 2 2 0 1 424 318 571
711 2 2 0 1 285 379 561
712 2 2 0 1 259 378 570
713 2 2 0 1 379 259 572
714 2 2 0 1 260 380 573
715 2 2 0 1 379 64 561
716 2 2 0 1 62 63 572
717 2 2 0 1 257 258 573
718 2 2 0 1 63 379 572
719 2 2 0 1 380 257 573
720 2 2 0 1 346 99 574
721 2 2 0 1 318 375 569
722 2 2 0 1 375 8 569
723 2 2 0 1 319 346 574
724 2 2 0 1 382 282 568
725 2 2 0 1 68 409 565
726 2 2 0 1 438 259 444
727 2 2 0 1 6 444 563
728 2 2 0 1 437 259 570
729 2 2 0 1 259 437 572
730 2 2 0 1 436 260 573
731 2 2 0 1 13 14 580
732 2 2 0 1 448 322 566
733 2 2 0 1 15 382 568
734 2 2 0 1 322 449 567
735 2 2 0 1 222 424 571
736 2 2 0 1 321 441 452
737 2 2 0 1 14 15 568
738 2 2 0 1 104 435 575
739 2 2 0 1 99 100 574
740 2 2 0 1 103 104 575
741 2 2 0 1 221 222 571
742 2 2 0 1 14 447 580
743 2 2 0 1 8 216 569
744 2 2 0 1 7 439 452
745 2 2 0 1 137 6 563
746 2 2 0 1 436 11 578
747 2 2 0 1 67 68 565
748 2 2 0 1 439 7 497
749 2 2 0 1 438 6 496
750 2 2 0 1 181 182 562
751 2 2 0 1 283 438 496
752 2 2 0 1 447 14 568
753 2 2 0 1 134 135 564
754 2 2 0 1 284 439 497
755 2 2 0 1 64 65 561
756 2 2 0 1 58 59 453
757 2 2 0 1 56 57 454
758 2 2 0 1 16 17 455
759 2 2 0 1 54 55 456
760 2 2 0 1 18 19 457
761 2 2 0 1 7 183 497
762 2 2 0 1 52 53 458
763 2 2 0 1 20 21 459
764 2 2 0 1 50 51 460
765 2 2 0 1 22 23 461
766 2 2 0 1 48 49 462
767 2 2 0 1 24 25 463
768 2 2 0 1 46 47 464
769 2 2 0 1 26 27 465
770 2 2 0 1 44 45 466
771 2 2 0 1 28 29 467
772 2 2 0 1 42 43 468
773 2 2 0 1 159 160 469
774 2 2 0 1 30 31 470
775 2 2 0 1 161 162 471
776 2 2 0 1 40 41 472
777 2 2 0 1 157 158 473
778 2 2 0 1 32 33 474
779 2 2 0 1 163 164 475
780 2 2 0 1 38 39 476
781 2 2 0 1 155 156 477
782 2 2 0 1 34 35 478
783 2 2 0 1 165 166 479
784 2 2 0 1 36 37 480
785 2 2 0 1 153 154 481
786 2 2 0 1 167 168 482
787 2 2 0 1 151 152 483
788 2 2 0 1 169 170 484
789 2 2 0 1 149 150 485
790 2 2 0 1 171 172 486
791 2 2 0 1 147 148 487
792 2 2 0 1 173 174 488
793 2 2 0 1 145 146 489
794 2 2 0 1 175 176 490
795 2 2 0 1 143 144 491
796 2 2 0 1 177 178 492
797 2 2 0 1 141 142 493
798 2 2 0 1 179 180 494
799 2 2 0 1 139 140 495
800 2 2 0 1 6 138 496
801 2 2 0 1 255 256 498
802 2 2 0 1 97 98 499
803 2 2 0 1 223 224 500
804 2 2 0 1 95 96 501
805 2 2 0 1 253 254 502
806 2 2 0 1 225 226 503
807 2 2 0 1 93 94 504
808 2 2 0 1 251 252 505
809 2 2 0 1 69 70 507
810 2 2 0 1 227 228 506
811 2 2 0 1 91 92 508
812 2 2 0 1 249 250 509
813 2 2 0 1 71 72 510
814 2 2 0 1 229 230 511
815 2 2 0 1 89 90 512
816 2 2 0 1 247 248 513
817 2 2 0 1 73 74 514
818 2 2 0 1 231 232 515
819 2 2 0 1 87 88 516
820 2 2 0 1 245 246 517
821 2 2 0 1 120 121 519
822 2 2 0 1 198 199 518
823 2 2 0 1 233 234 520
824 2 2 0 1 75 76 521
825 2 2 0 1 122 123 522
826 2 2 0 1 200 201 523
827 2 2 0 1 85 86 524
828 2 2 0 1 243 244 525
829 2 2 0 1 118 119 526
830 2 2 0 1 196 197 527
831 2 2 0 1 235 236 528
832 2 2 0 1 77 78 529
833 2 2 0 1 124 125 530
834 2 2 0 1 202 203 531
835 2 2 0 1 83 84 532
836 2 2 0 1 241 242 533
837 2 2 0 1 116 117 534
838 2 2 0 1 194 195 535
839 2 2 0 1 79 80 537
840 2 2 0 1 237 238 536
841 2 2 0 1 204 205 538
842 2 2 0 1 126 127 539
843 2 2 0 1 81 82 540
844 2 2 0 1 239 240 541
845 2 2 0 1 114 115 542
846 2 2 0 1 192 193 543
847 2 2 0 1 206 207 544
848 2 2 0 1 128 129 545
849 2 2 0 1 112 113 546
850 2 2 0 1 190 191 547
851 2 2 0 1 130 131 549
852 2 2 0 1 208 209 548
853 2 2 0 1 110 111 550
854 2 2 0 1 188 189 551
855 2 2 0 1 132 133 552
856 2 2 0 1 210 211 553
857 2 2 0 1 108 109 554
858 2 2 0 1 186 187 555
859 2 2 0 1 212 213 556
860 2 2 0 1 106 107 557
861 2 2 0 1 184 185 558
862 2 2 0 1 214 215 559
863 2 2 0 1 5 105 560
864 2 2 0 1 321 440 580
865 2 2 0 1 11 436 582
866 2 2 0 1 437 61 581
867 2 2 0 1 100 450 574
868 2 2 0 1 62 437 581
869 2 2 0 1 436 258 582
870 2 2 0 1 448 221 571
871 2 2 0 1 451 103 575
872 2 2 0 1 182 441 562
873 2 2 0 1 443 67 565
874 2 2 0 1 11 12 578
875 2 2 0 1 445 137 563
876 2 2 0 1 444 285 563
877 2 2 0 1 65 442 561
878 2 2 0 1 216 449 569
879 2 2 0 1 135 446 564
880 2 2 0 1 319 450 579
881 2 2 0 1 451 319 579
882 2 2 0 1 441 282 562
883 2 2 0 1 442 285 561
884 2 2 0 1 285 445 563
885 2 2 0 1 313 443 565
886 2 2 0 1 446 313 564
887 2 2 0 1 258 1 582
888 2 2 0 1 2 62 581
889 2 2 0 1 61 2 581
890 2 2 0 1 1 11 582
891 2 2 0 1 101 102 579
892 2 2 0 1 320 446 577
893 2 2 0 1 443 320 576
894 2 2 0 1 12 440 578
895 2 2 0 1 320 442 576
896 2 2 0 1 282 447 568
897 2 2 0 1 445 320 577
898 2 2 0 1 449 318 569
899 2 2 0 1 318 448 571
900 2 2 0 1 450 319 574
901 2 2 0 1 319 451 575
902 2 2 0 1 447 321 580
903 2 2 0 1 450 101 579
904 2 2 0 1 102 451 579
$EndElements
