$MeshFormat
2.2 0 8
$EndMeshFormat
$Nodes
91
1 0 0 0
2 0.001 0 0
3 0.0005000000000000001 0.0008660254037844386 0
4 -0.0004999999999999998 0.0008660254037844388 0
5 -0.001 1.224646799147353e-19 0
6 -0.0005000000000000004 -0.0008660254037844384 0
7 0.0005 -0.0008660254037844386 0
8 0.0009000000000002355 0.00017320508075648 0
9 0.000800000000000515 0.0003464101615128835 0
10 0.0007000000000005239 0.0005196152422697559 0
11 0.0006000000000002573 0.0006928203230271053 0
12 0.0003000000000003939 0.0008660254037844386 0
13 0.0001000000000009507 0.0008660254037844387 0
14 -9.999999999891595e-05 0.0008660254037844387 0
15 -0.0002999999999995257 0.0008660254037844388 0
16 -0.0005999999999998479 0.0006928203230278142 0
17 -0.0006999999999994867 0.0005196152422715522 0
18 -0.0007999999999994468 0.0003464101615147338 0
19 -0.0008999999999996838 0.0001732050807574355 0
20 -0.0009000000000002042 -0.000173205080756534 0
21 -0.0008000000000004893 -0.0003464101615129282 0
22 -0.0007000000000005051 -0.0005196152422697886 0
23 -0.0006000000000002359 -0.0006928203230271427 0
24 -0.0003000000000004131 -0.0008660254037844384 0
25 -0.000100000000000972 -0.0008660254037844385 0
26 9.999999999902155e-05 -0.0008660254037844385 0
27 0.0002999999999995383 -0.0008660254037844386 0
28 0.0005999999999997517 -0.000692820323027981 0
29 0.000699999999999422 -0.0005196152422716644 0
30 0.0007999999999994734 -0.0003464101615146876 0
31 0.0008999999999997265 -0.0001732050807573614 0
32 -0.0004999999999987143 0.0005196152422704678 0
33 0.0004999999999998586 -0.0005196152422715398 0
34 -0.000700000000000388 -0.0001732050807581704 0
35 0.0007000000000007946 0.00017320508075648 0
36 -0.000200000000000699 -0.0006928203230278146 0
37 0.0002000000000006395 0.0006928203230278833 0
38 -0.0001999999999991212 0.0006928203230274042 0
39 -0.0006999999999996012 0.0001732050807571874 0
40 0.0005000000000005968 0.0005196152422705958 0
41 -0.0005000000000007152 -0.0005196152422715513 0
42 0.0001999999999996396 -0.0006928203230280985 0
43 0.0007000000000003285 -0.0001732050807574362 0
44 1.043151567729772e-15 0.0006928203230276416 0
45 0.0001000000000011756 0.0005196152422712212 0
46 -9.999999999844362e-05 0.0005196152422706229 0
47 2.018811550222321e-15 0.0003464101615143362 0
48 -0.0001999999999986198 0.000346410161512813 0
49 0.0002000000000017115 0.0003464101615146472 0
50 0.0001000000000019686 0.0001732050807578313 0
51 0.0003000000000023429 0.0001732050807578841 0
52 0.0002000000000021496 1.112097790881746e-15 0
53 0.0001000000000025612 -0.0001732050807572996 0
54 -9.999999999843619e-05 -0.0001732050807590132 0
55 -0.0001999999999992131 -2.985192569122015e-15 0
56 0.0003000000000018125 -0.0001732050807574316 0
57 5.764070499838143e-16 -0.0003464101615157252 0
58 -0.0002999999999991172 -0.0001732050807615823 0
59 -0.0003999999999998975 -5.098726235012469e-15 0
60 -0.0002999999999988746 0.0001732050807551717 0
61 -0.0005000000000004691 -0.0001732050807596365 0
62 0.0004000000000019744 5.963563699575476e-17 0
63 -0.0002999999999985741 0.0005196152422701544 0
64 -0.0003999999999988417 0.0003464101615129111 0
65 -0.0005999999999988595 0.0003464101615135672 0
66 -8.30817348512064e-16 -0.0006928203230280695 0
67 -0.0001000000000005929 -0.0005196152422721724 0
68 0.000600000000000006 -0.0003464101615148757 0
69 0.0004000000000009435 -0.000346410161515181 0
70 0.0006000000000007263 0.0003464101615132488 0
71 -0.0003999999999996009 0.0006928203230275906 0
72 0.0004000000000003914 0.0006928203230277053 0
73 -0.0008000000000004889 -4.645806309100386e-17 0
74 -0.0006000000000003208 -1.657081047899689e-15 0
75 -0.0004000000000004622 -0.0006928203230277968 0
76 0.0003999999999998628 -0.0006928203230280547 0
77 0.0008000000000004545 -2.388294098078225e-16 0
78 -0.0003000000000004645 -0.0005196152422725512 0
79 0.0003000000000003307 -0.0005196152422720188 0
80 -9.999999999831841e-05 0.0001732050807566293 0
81 0.0003000000000010666 0.0005196152422709923 0
82 0.0006000000000012417 -4.57768227259588e-16 0
83 -0.0005000000000006425 0.0001732050807556985 0
84 0.000400000000001885 0.0003464101615139009 0
85 0.0001000000000002607 -0.0005196152422721491 0
86 0.0005000000000010805 -0.0001732050807578514 0
87 0.000500000000001494 0.0001732050807568526 0
88 0.0002000000000010809 -0.0003464101615149675 0
89 -0.0001999999999995366 -0.0003464101615165692 0
90 -0.0006000000000002919 -0.0003464101615150743 0
91 -0.000399999999999838 -0.0003464101615167922 0
$EndNodes
$Elements
187
1 15 2 0 1 1
2 15 2 0 2 2
3 15 2 0 3 3
4 15 2 0 4 4
5 15 2 0 5 5
6 15 2 0 6 6
7 15 2 0 7 7
8 1 2 0 1 2 8
9 1 2 0 1 8 9
10 1 2 0 1 9 10
11 1 2 0 1 10 11
12 1 2 0 1 11 3
13 1 2 0 2 3 12
14 1 2 0 2 12 13
15 1 2 0 2 13 14
16 1 2 0 2 14 15
17 1 2 0 2 15 4
18 1 2 0 3 4 16
19 1 2 0 3 16 17
20 1 2 0 3 17 18
21 1 2 0 3 18 19
22 1 2 0 3 19 5
23 1 2 0 4 5 20
24 1 2 0 4 20 21
25 1 2 0 4 21 22
26 1 2 0 4 22 23
27 1 2 0 4 23 6
28 1 2 0 5 6 24
29 1 2 0 5 24 25
30 1 2 0 5 25 26
31 1 2 0 5 26 27
32 1 2 0 5 27 7
33 1 2 0 6 7 28
34 1 2 0 6 28 29
35 1 2 0 6 29 30
36 1 2 0 6 30 31
37 1 2 0 6 31 2
38 2 2 0 1 34 61 74
39 2 2 0 1 48 60 80
40 2 2 0 1 60 55 80
41 2 2 0 1 61 59 74
42 2 2 0 1 57 54 89
43 2 2 0 1 60 48 64
44 2 2 0 1 56 53 88
45 2 2 0 1 67 57 89
46 2 2 0 1 63 32 64
47 2 2 0 1 74 59 83
48 2 2 0 1 17 18 65
49 2 2 0 1 50 1 52
50 2 2 0 1 32 63 71
51 2 2 0 1 55 1 80
52 2 2 0 1 52 1 53
53 2 2 0 1 63 38 71
54 2 2 0 1 59 60 83
55 2 2 0 1 64 32 65
56 2 2 0 1 82 62 86
57 2 2 0 1 32 17 65
58 2 2 0 1 69 56 88
59 2 2 0 1 18 39 65
60 2 2 0 1 57 67 85
61 2 2 0 1 62 56 86
62 2 2 0 1 60 64 83
63 2 2 0 1 81 49 84
64 2 2 0 1 61 34 90
65 2 2 0 1 38 15 71
66 2 2 0 1 46 38 63
67 2 2 0 1 39 73 74
68 2 2 0 1 1 50 80
69 2 2 0 1 39 19 73
70 2 2 0 1 64 65 83
71 2 2 0 1 29 30 68
72 2 2 0 1 54 58 89
73 2 2 0 1 52 53 56
74 2 2 0 1 33 29 68
75 2 2 0 1 42 27 76
76 2 2 0 1 14 15 38
77 2 2 0 1 90 41 91
78 2 2 0 1 43 31 77
79 2 2 0 1 40 11 72
80 2 2 0 1 9 10 70
81 2 2 0 1 25 26 66
82 2 2 0 1 41 23 75
83 2 2 0 1 53 1 54
84 2 2 0 1 44 38 46
85 2 2 0 1 37 13 44
86 2 2 0 1 36 25 66
87 2 2 0 1 13 14 44
88 2 2 0 1 52 56 62
89 2 2 0 1 35 9 70
90 2 2 0 1 53 57 88
91 2 2 0 1 22 23 41
92 2 2 0 1 26 27 42
93 2 2 0 1 14 38 44
94 2 2 0 1 10 11 40
95 2 2 0 1 18 19 39
96 2 2 0 1 10 40 70
97 2 2 0 1 30 43 68
98 2 2 0 1 26 42 66
99 2 2 0 1 30 31 43
100 2 2 0 1 33 68 69
101 2 2 0 1 41 75 78
102 2 2 0 1 56 69 86
103 2 2 0 1 37 44 45
104 2 2 0 1 43 82 86
105 2 2 0 1 36 66 67
106 2 2 0 1 40 72 81
107 2 2 0 1 42 76 79
108 2 2 0 1 53 54 57
109 2 2 0 1 54 1 55
110 2 2 0 1 40 81 84
111 2 2 0 1 54 55 58
112 2 2 0 1 58 59 61
113 2 2 0 1 19 5 73
114 2 2 0 1 58 55 59
115 2 2 0 1 84 51 87
116 2 2 0 1 59 55 60
117 2 2 0 1 45 44 46
118 2 2 0 1 48 46 63
119 2 2 0 1 48 63 64
120 2 2 0 1 51 52 62
121 2 2 0 1 36 67 78
122 2 2 0 1 31 2 77
123 2 2 0 1 43 77 82
124 2 2 0 1 11 3 72
125 2 2 0 1 23 6 75
126 2 2 0 1 49 50 51
127 2 2 0 1 27 7 76
128 2 2 0 1 51 50 52
129 2 2 0 1 47 46 48
130 2 2 0 1 15 4 71
131 2 2 0 1 33 69 79
132 2 2 0 1 45 46 47
133 2 2 0 1 12 13 37
134 2 2 0 1 8 9 35
135 2 2 0 1 24 25 36
136 2 2 0 1 20 21 34
137 2 2 0 1 45 47 49
138 2 2 0 1 28 29 33
139 2 2 0 1 16 17 32
140 2 2 0 1 85 79 88
141 2 2 0 1 49 47 50
142 2 2 0 1 4 16 71
143 2 2 0 1 73 34 74
144 2 2 0 1 42 79 85
145 2 2 0 1 16 32 71
146 2 2 0 1 5 20 73
147 2 2 0 1 6 24 75
148 2 2 0 1 3 12 72
149 2 2 0 1 7 28 76
150 2 2 0 1 75 36 78
151 2 2 0 1 2 8 77
152 2 2 0 1 20 34 73
153 2 2 0 1 24 36 75
154 2 2 0 1 12 37 72
155 2 2 0 1 28 33 76
156 2 2 0 1 8 35 77
157 2 2 0 1 67 66 85
158 2 2 0 1 76 33 79
159 2 2 0 1 69 68 86
160 2 2 0 1 37 45 81
161 2 2 0 1 50 47 80
162 2 2 0 1 51 62 87
163 2 2 0 1 49 51 84
164 2 2 0 1 45 49 81
165 2 2 0 1 47 48 80
166 2 2 0 1 72 37 81
167 2 2 0 1 39 74 83
168 2 2 0 1 22 41 90
169 2 2 0 1 61 90 91
170 2 2 0 1 70 84 87
171 2 2 0 1 77 35 82
172 2 2 0 1 65 39 83
173 2 2 0 1 70 40 84
174 2 2 0 1 66 42 85
175 2 2 0 1 34 21 90
176 2 2 0 1 58 61 91
177 2 2 0 1 68 43 86
178 2 2 0 1 35 70 87
179 2 2 0 1 82 35 87
180 2 2 0 1 57 85 88
181 2 2 0 1 62 82 87
182 2 2 0 1 89 58 91
183 2 2 0 1 79 69 88
184 2 2 0 1 21 22 90
185 2 2 0 1 78 67 89
186 2 2 0 1 41 78 91
187 2 2 0 1 78 89 91
$EndElements
