$MeshFormat
2.2 0 8
$EndMeshFormat
$Nodes
721
1 0 0 0
2 0.003 0 0
3 0.0015 0.002598076211353316 0
4 -0.001499999999999999 0.002598076211353316 0
5 -0.003 3.67394039744206e-19 0
6 -0.001500000000000001 -0.002598076211353315 0
7 0.0015 -0.002598076211353316 0
8 0.002900000000000056 0.0001732050807567915 0
9 0.002800000000000379 0.0003464101615131184 0
10 0.00270000000000078 0.0005196152422693119 0
11 0.00260000000000089 0.0006928203230260098 0
12 0.002500000000001111 0.0008660254037825148 0
13 0.002400000000001581 0.00103923048453859 0
14 0.002300000000001876 0.001212435565294966 0
15 0.002200000000001825 0.001385640646051942 0
16 0.002100000000001616 0.001558845726809191 0
17 0.002000000000001336 0.001732050807566563 0
18 0.001900000000001074 0.001905255888323906 0
19 0.001800000000000718 0.002078460969081409 0
20 0.001700000000000512 0.002251666049838654 0
21 0.001600000000000282 0.002424871130595941 0
22 0.001300000000000368 0.002598076211353316 0
23 0.001100000000000859 0.002598076211353316 0
24 0.0009000000000013985 0.002598076211353316 0
25 0.0007000000000019745 0.002598076211353316 0
26 0.0005000000000025138 0.002598076211353316 0
27 0.0003000000000030506 0.002598076211353316 0
28 0.0001000000000035985 0.002598076211353316 0
29 -9.999999999644928e-05 0.002598076211353316 0
30 -0.0002999999999970001 0.002598076211353316 0
31 -0.000499999999997401 0.002598076211353316 0
32 -0.0006999999999981522 0.002598076211353316 0
33 -0.000899999999998203 0.002598076211353316 0
34 -0.001099999999999028 0.002598076211353316 0
35 -0.00129999999999922 0.002598076211353316 0
36 -0.001599999999999827 0.002424871130596727 0
37 -0.001699999999999541 0.002251666049840334 0
38 -0.001799999999999151 0.002078460969084124 0
39 -0.001899999999998906 0.001905255888327659 0
40 -0.001999999999998702 0.001732050807571124 0
41 -0.002099999999998542 0.001558845726814514 0
42 -0.002199999999998326 0.001385640646058001 0
43 -0.00229999999999827 0.001212435565301211 0
44 -0.002399999999998414 0.001039230484544074 0
45 -0.002499999999998671 0.0008660254037867407 0
46 -0.002599999999998975 0.0006928203230293271 0
47 -0.002699999999999324 0.0005196152422718334 0
48 -0.002799999999999428 0.000346410161514767 0
49 -0.002899999999999677 0.0001732050807574472 0
50 -0.002900000000000139 -0.0001732050807566464 0
51 -0.002800000000000461 -0.0003464101615129775 0
52 -0.002700000000000603 -0.0005196152422696181 0
53 -0.002600000000001017 -0.0006928203230257901 0
54 -0.002500000000001275 -0.000866025403782231 0
55 -0.002400000000001501 -0.001039230484538727 0
56 -0.002300000000001886 -0.001212435565294948 0
57 -0.002200000000001855 -0.00138564064605189 0
58 -0.002100000000001601 -0.001558845726809216 0
59 -0.002000000000001315 -0.0017320508075666 0
60 -0.001900000000001045 -0.001905255888323955 0
61 -0.00180000000000081 -0.002078460969081251 0
62 -0.001700000000000495 -0.002251666049838685 0
63 -0.00160000000000029 -0.002424871130595927 0
64 -0.001300000000000473 -0.002598076211353315 0
65 -0.001100000000000781 -0.002598076211353315 0
66 -0.0009000000000014117 -0.002598076211353315 0
67 -0.0007000000000019835 -0.002598076211353315 0
68 -0.0005000000000025427 -0.002598076211353315 0
69 -0.0003000000000031866 -0.002598076211353315 0
70 -0.0001000000000036607 -0.002598076211353315 0
71 9.999999999641828e-05 -0.002598076211353315 0
72 0.0002999999999966862 -0.002598076211353315 0
73 0.0004999999999973441 -0.002598076211353315 0
74 0.0006999999999981461 -0.002598076211353315 0
75 0.0008999999999989147 -0.002598076211353316 0
76 0.0010999999999984 -0.002598076211353316 0
77 0.001299999999999198 -0.002598076211353316 0
78 0.001599999999999844 -0.002424871130596699 0
79 0.001699999999999598 -0.002251666049840237 0
80 0.001799999999999288 -0.002078460969083886 0
81 0.001899999999998966 -0.001905255888327555 0
82 0.001999999999998738 -0.001732050807571064 0
83 0.002099999999998528 -0.00155884572681454 0
84 0.002199999999998233 -0.001385640646058163 0
85 0.002299999999998077 -0.001212435565301545 0
86 0.002399999999998304 -0.001039230484544264 0
87 0.002499999999998625 -0.00086602540378682 0
88 0.002599999999998928 -0.0006928203230294075 0
89 0.002699999999999196 -0.0005196152422720563 0
90 0.002799999999999477 -0.0003464101615146807 0
91 0.002899999999999671 -0.0001732050807574581 0
92 0.002400000000001549 0.0006928203230261393 0
93 -0.002400000000001654 -0.0006928203230258426 0
94 -0.0006000000000012469 -0.002424871130597108 0
95 0.0006000000000019825 0.002424871130596602 0
96 0.001799999999999265 -0.001732050807571104 0
97 -0.001799999999998887 0.001732050807570376 0
98 -0.0003999999999972322 0.002424871130596102 0
99 -0.002299999999998242 0.0008660254037867896 0
100 0.0003999999999983033 -0.002424871130596612 0
101 0.001900000000001455 0.00155884572681011 0
102 -0.001900000000000498 -0.001558845726810307 0
103 0.002299999999999838 -0.0008660254037868156 0
104 0.0009999999999992413 -0.002424871130596785 0
105 -0.002599999999999378 0.0003464101615145906 0
106 -0.0009999999999988772 0.002424871130596196 0
107 0.002599999999998991 -0.0003464101615147249 0
108 -0.00160000000000023 -0.002078460969081502 0
109 0.00160000000000035 0.002078460969081659 0
110 0.002600000000001127 0.0003464101615132949 0
111 3.022055209857229e-15 0.002424871130596298 0
112 -0.00210000000000203 -0.001212435565295978 0
113 0.002100000000002276 0.001212435565295215 0
114 0.002099999999998493 -0.001212435565301604 0
115 -0.00209999999999852 0.001212435565300853 0
116 -2.796839546706971e-15 -0.002424871130597204 0
117 -0.002600000000000729 -0.000346410161513199 0
118 -0.001599999999999619 0.002078460969083206 0
119 -0.001000000000001096 -0.002424871130596974 0
120 0.001600000000000103 -0.002078460969083889 0
121 0.001000000000000945 0.002424871130596432 0
122 -0.001400000000000096 0.002424871130596496 0
123 0.00280000000000001 9.849524986125605e-17 0
124 -0.002799999999999816 2.664833414697809e-16 0
125 0.001400000000000013 -0.002424871130596365 0
126 -0.001400000000000026 -0.002424871130596539 0
127 0.001400000000000121 0.002424871130596473 0
128 -0.001199999999999706 0.002424871130596157 0
129 -0.001099999999999343 0.002251666049839252 0
130 -0.0008999999999988166 0.002251666049839229 0
131 -0.0009999999999987972 0.002078460969082277 0
132 -0.000799999999998784 0.002078460969082327 0
133 -0.0008999999999986858 0.001905255888325395 0
134 -0.0006999999999987614 0.001905255888325469 0
135 -0.0007999999999987224 0.00173205080756857 0
136 -0.0005999999999986966 0.001732050807568588 0
137 -0.0006999999999987079 0.001558845726811713 0
138 -0.0004999999999987282 0.001558845726811732 0
139 -0.0005999999999987004 0.001385640646054851 0
140 -0.0003999999999987244 0.001385640646054881 0
141 -0.0007999999999986893 0.001385640646054827 0
142 -0.0006999999999986701 0.001212435565297957 0
143 -0.0008999999999986862 0.001212435565297941 0
144 -0.0007999999999986451 0.001039230484541056 0
145 -0.0009999999999986769 0.00103923048454104 0
146 -0.0008999999999986263 0.0008660254037841835 0
147 -0.001099999999998657 0.0008660254037841167 0
148 -0.000999999999998612 0.0006928203230272485 0
149 -0.001199999999998663 0.0006928203230271719 0
150 -0.001099999999998611 0.0005196152422703159 0
151 -0.001299999999998685 0.0005196152422702224 0
152 -0.001199999999998558 0.0003464101615134732 0
153 -0.001399999999998684 0.0003464101615132739 0
154 -0.00129999999999856 0.0001732050807564651 0
155 -0.001499999999998684 0.0001732050807563238 0
156 -0.001399999999998647 -5.880080132294092e-16 0
157 -0.001199999999998427 -2.64735065466648e-16 0
158 -0.0012999999999986 -0.0001732050807574785 0
159 -0.001099999999998435 -0.0001732050807572847 0
160 -0.001199999999998568 -0.0003464101615144082 0
161 -0.0009999999999982777 -0.0003464101615143485 0
162 -0.001099999999998508 -0.0005196152422714 0
163 -0.0008999999999981979 -0.0005196152422713478 0
164 -0.0009999999999984674 -0.0006928203230284663 0
165 -0.0007999999999983439 -0.0006928203230284637 0
166 -0.000899999999998445 -0.000866025403785493 0
167 -0.0006999999999983223 -0.0008660254037854568 0
168 -0.0007999999999983697 -0.001039230484542451 0
169 -0.0005999999999982714 -0.001039230484542412 0
170 -0.0006999999999983224 -0.001212435565299376 0
171 -0.0004999999999982384 -0.001212435565299382 0
172 -0.0003999999999981613 -0.001039230484542391 0
173 -0.0002999999999981432 -0.001212435565299383 0
174 -0.0001999999999980344 -0.001039230484542393 0
175 -9.999999999799438e-05 -0.00121243556529938 0
176 2.111500971205168e-15 -0.001039230484542404 0
177 0.0001000000000021739 -0.001212435565299391 0
178 0.0002000000000021545 -0.001039230484542181 0
179 0.0003000000000022635 -0.001212435565299343 0
180 0.00040000000000223 -0.001039230484542298 0
181 0.0005000000000023663 -0.001212435565299396 0
182 0.000600000000002235 -0.0010392304845423 0
183 0.0007000000000024014 -0.001212435565299362 0
184 0.0008000000000024363 -0.001039230484542394 0
185 0.0007000000000022626 -0.0008660254037852924 0
186 0.0009000000000024845 -0.0008660254037854174 0
187 0.0008000000000024386 -0.0006928203230283376 0
188 0.00100000000000259 -0.0006928203230284079 0
189 0.0009000000000025513 -0.0005196152422713215 0
190 0.00110000000000275 -0.0005196152422713516 0
191 0.001000000000002696 -0.0003464101615143037 0
192 0.001200000000002864 -0.0003464101615143093 0
193 0.001100000000002719 -0.0001732050807571752 0
194 0.001300000000002928 -0.0001732050807572635 0
195 0.00120000000000282 -2.210146128611701e-16 0
196 0.001400000000003011 -2.878059126978931e-16 0
197 0.001300000000002949 0.0001732050807566904 0
198 0.001100000000002754 0.0001732050807568172 0
199 0.001200000000002894 0.000346410161513714 0
200 0.001000000000002725 0.0003464101615137962 0
201 0.001100000000002839 0.00051961524227075 0
202 0.0009000000000026738 0.0005196152422708428 0
203 0.001000000000002783 0.0006928203230278396 0
204 0.0008000000000026243 0.0006928203230278957 0
205 0.0009000000000025619 0.0008660254037847899 0
206 0.0007000000000025586 0.0008660254037848966 0
207 0.0008000000000025781 0.00103923048454185 0
208 -0.000699999999998612 0.0008660254037843389 0
209 -0.0002999999999987568 0.001558845726811741 0
210 -0.001399999999998771 -0.000346410161514231 0
211 -0.0003999999999983844 -0.001385640646056374 0
212 -0.0008999999999983689 -0.001212435565299394 0
213 0.0006000000000024202 -0.001385640646056274 0
214 0.001000000000002404 -0.001039230484542623 0
215 0.001400000000003159 0.0003464101615135188 0
216 0.001500000000003044 -0.0001732050807572585 0
217 0.001100000000002678 0.0008660254037846575 0
218 -0.0001999999999987557 0.001385640646054903 0
219 -9.999999999879154e-05 0.001558845726811756 0
220 0.0006000000000024795 0.0006928203230279215 0
221 -0.001199999999998692 0.001039230484541027 0
222 -0.0008999999999979747 -0.0001732050807567661 0
223 0.0008000000000023945 -0.0003464101615140312 0
224 0.0001000000000021451 -0.0008660254037852663 0
225 -0.001599999999998742 0.0003464101615132006 0
226 -0.001699999999998745 0.0001732050807562799 0
227 -0.001099999999998602 -0.000866025403785345 0
228 1.201973633471742e-15 0.001385640646054934 0
229 0.0001000000000011582 0.001558845726811764 0
230 -9.999999999875424e-05 0.001212435565298105 0
231 0.0002000000000021005 -0.001385640646056363 0
232 0.00130000000000285 -0.0005196152422714717 0
233 0.0008000000000025248 0.0003464101615139543 0
234 -0.0002999999999981322 -0.0008660254037850376 0
235 -0.0008999999999982877 0.0005196152422707284 0
236 0.00160000000000314 -3.292993048381598e-16 0
237 0.001700000000003137 -0.0001732050807572798 0
238 0.0008000000000024465 -0.001385640646056297 0
239 0.0007000000000024335 -0.001558845726813168 0
240 -0.0007999999999983827 -0.001385640646056333 0
241 -0.0009999999999983891 -0.001385640646056306 0
242 -0.0008999999999984242 -0.001558845726813256 0
243 -0.001399999999998706 0.0006928203230271667 0
244 -0.000999999999998702 0.001732050807568413 0
245 0.0009000000000023839 -0.001558845726813225 0
246 -0.0006999999999979915 -0.0005196152422708867 0
247 0.001800000000003234 -3.631625526921237e-16 0
248 -0.00179999999999877 0.0003464101615131756 0
249 -0.001899999999998741 0.0001732050807562483 0
250 -0.000199999999998787 0.001732050807568461 0
251 -0.001099999999998424 -0.001558845726813231 0
252 -0.001199999999998494 -0.001385640646056275 0
253 0.0008000000000024115 -0.001732050807570037 0
254 0.0006000000000024265 -0.001732050807570031 0
255 0.001900000000003224 -0.0001732050807572967 0
256 0.00180000000000317 -0.0003464101615143073 0
257 0.0002000000000012898 0.001385640646055109 0
258 0.000300000000001103 0.001558845726811923 0
259 0.0002000000000011158 0.001732050807568599 0
260 0.0004000000000010267 0.001732050807568601 0
261 -0.0009999999999983958 -0.00173205080757013 0
262 -0.0007999999999984807 -0.001732050807570146 0
263 0.001000000000002319 -0.001732050807570008 0
264 0.00110000000000227 -0.001558845726813288 0
265 0.002000000000003234 -3.498313834796041e-16 0
266 0.001900000000003287 0.0001732050807564928 0
267 -0.001799999999998753 -5.697211365868204e-16 0
268 -0.001999999999998658 -6.204392107138819e-16 0
269 -0.001899999999998717 -0.0001732050807573732 0
270 0.0006000000000021675 -0.0006928203230281045 0
271 -0.0019999999999988 0.0003464101615131285 0
272 0.0005000000000009655 0.001558845726811939 0
273 0.0006000000000008688 0.00173205080756866 0
274 -0.001899999999998802 0.0005196152422701221 0
275 0.0005000000000024631 0.0008660254037849238 0
276 0.0004000000000023837 0.0006928203230279846 0
277 0.0003000000000010552 0.001905255888325366 0
278 0.0007000000000008307 0.001558845726811984 0
279 0.0008000000000007677 0.001732050807568697 0
280 0.0009000000000007539 0.001558845726811973 0
281 0.001000000000000712 0.001732050807568697 0
282 0.001100000000000918 0.001558845726811853 0
283 -0.001299999999998551 -0.00155884572681327 0
284 -0.001399999999998661 -0.001385640646056235 0
285 0.0007000000000024523 -0.001905255888326907 0
286 0.0005000000000022274 -0.001905255888326997 0
287 0.002000000000003337 -0.0003464101615143111 0
288 0.001900000000003243 -0.0005196152422714059 0
289 -0.00209999999999852 -0.0001732050807573991 0
290 -0.001999999999998699 -0.000346410161514141 0
291 -0.002199999999998653 -4.680003852624199e-16 0
292 0.0009000000000007199 0.001905255888325525 0
293 -0.0008999999999984097 -0.00190525588832693 0
294 -0.0006999999999985542 -0.001905255888326946 0
295 -0.001099999999998196 -0.001905255888326918 0
296 0.0003000000000023871 0.000866025403784945 0
297 0.000200000000002331 0.0006928203230280258 0
298 0.0003000000000023106 0.0005196152422710762 0
299 0.000100000000002272 0.00051961524227112 0
300 2.297040415227362e-15 0.0006928203230280599 0
301 -9.999999999774996e-05 0.0005196152422711657 0
302 -0.0001999999999977013 0.0006928203230280791 0
303 -0.0002999999999977435 0.0005196152422711963 0
304 0.001200000000002133 -0.001732050807570016 0
305 0.001300000000002085 -0.001558845726813343 0
306 0.001100000000002244 -0.001905255888326322 0
307 0.001100000000000656 0.001905255888325528 0
308 0.002100000000003177 0.0001732050807564955 0
309 0.002000000000003264 0.0003464101615132797 0
310 0.002200000000002871 -1.124872661122431e-16 0
311 -0.00149999999999856 -0.001558845726813193 0
312 -0.002099999999998841 0.0005196152422700562 0
313 -0.001199999999999074 0.00207846096908202 0
314 0.0006000000000024141 -0.002078460969083476 0
315 0.0002000000000022478 0.0003464101615141781 0
316 0.0006000000000013325 0.001385640646055452 0
317 0.001800000000003375 0.0003464101615133201 0
318 0.001900000000003384 0.0005196152422701117 0
319 -0.001799999999998842 -0.0003464101615140949 0
320 -0.001899999999998844 -0.0005196152422708798 0
321 -0.0005999999999985938 -0.001732050807570181 0
322 -0.0004999999999986789 -0.001905255888327009 0
323 0.001200000000002221 -0.001385640646056579 0
324 0.001400000000002091 -0.001385640646056653 0
325 -0.000599999999998514 0.002078460969082286 0
326 0.0004000000000022919 0.0003464101615141278 0
327 0.0003000000000022228 0.0001732050807572199 0
328 -0.002199999999998917 0.0003464101615132979 0
329 -0.002199999999998869 -0.0003464101615140254 0
330 0.001700000000003469 0.0005196152422701719 0
331 0.001800000000003494 0.0006928203230267342 0
332 0.001600000000003506 0.0006928203230270264 0
333 0.001700000000003457 0.0008660254037835761 0
334 0.001500000000003515 0.0008660254037839822 0
335 0.001600000000003491 0.001039230484540856 0
336 -0.0009999999999987662 0.001385640646054815 0
337 0.0001000000000011466 0.001905255888325376 0
338 -0.000399999999998691 -0.001732050807570234 0
339 -0.0002999999999990261 -0.001905255888326933 0
340 -0.0001999999999987687 -0.001732050807570244 0
341 -9.999999999909398e-05 -0.001905255888326981 0
342 -0.0003999999999991636 -0.002078460969083849 0
343 1.226006781628504e-15 -0.001732050807570296 0
344 0.0001000000000011901 -0.00190525588832721 0
345 0.0005000000000022708 0.0001732050807571684 0
346 0.0004000000000022016 2.531638150502699e-16 0
347 0.0006000000000022646 1.95206083646963e-16 0
348 0.0005000000000021907 -0.0001732050807567279 0
349 0.0003000000000019998 -0.0001732050807566029 0
350 0.0004000000000020854 -0.0003464101615136403 0
351 0.0002000000000018886 -0.0003464101615135119 0
352 0.0003000000000019909 -0.0005196152422705645 0
353 0.0001000000000019142 -0.0005196152422705005 0
354 -0.001699999999998927 -0.0005196152422708399 0
355 -0.001799999999999517 -0.0006928203230279644 0
356 -0.00159999999999907 -0.0006928203230277064 0
357 -0.001699999999999705 -0.0008660254037848857 0
358 -0.00199999999999928 -0.0006928203230275034 0
359 -0.001499999999999147 -0.0008660254037846113 0
360 -0.001599999999998973 -0.001039230484541378 0
361 0.000200000000001626 -0.001732050807570256 0
362 0.001300000000002207 -0.001212435565299849 0
363 0.001500000000002154 -0.001212435565299906 0
364 0.001400000000002261 -0.001039230484543015 0
365 0.001600000000002252 -0.001039230484543083 0
366 0.001500000000002357 -0.0008660254037861389 0
367 0.001700000000002483 -0.0008660254037860739 0
368 0.001600000000001527 -0.001385640646057329 0
369 0.001700000000002994 -0.0005196152422714678 0
370 -0.001299999999998609 -0.001212435565299152 0
371 0.001400000000003327 0.00103923048454121 0
372 0.001500000000003581 0.0012124355652984 0
373 0.001300000000002388 0.001212435565298246 0
374 0.001400000000003286 0.001385640646055305 0
375 -0.001999999999998712 0.0006928203230271283 0
376 -0.001799999999998726 0.0006928203230271246 0
377 -0.001899999999998678 0.0008660254037841889 0
378 -0.001699999999998687 0.0008660254037841515 0
379 -0.001799999999998697 0.001039230484541147 0
380 -0.001599999999998666 0.001039230484541116 0
381 -0.001699999999998603 0.001212435565298036 0
382 -0.001499999999998655 0.001212435565297992 0
383 -0.001599999999998609 0.001385640646054841 0
384 -0.001399999999998707 0.001385640646054803 0
385 -0.001499999999998637 0.001558845726811586 0
386 0.002100000000003355 -0.0005196152422713159 0
387 0.0002000000000011394 0.002078460969082139 0
388 1.300717214625056e-15 0.002078460969082128 0
389 0.0004000000000009418 0.00207846096908216 0
390 -0.000199999999997795 0.000346410161514344 0
391 -0.0003999999999978122 0.0003464101615143357 0
392 -0.0004999999999978969 0.0005196152422712066 0
393 -0.0005999999999978091 0.0003464101615143388 0
394 -0.0004999999999978606 0.0001732050807574341 0
395 -0.0006999999999978434 0.000173205080757451 0
396 -0.0005999999999979209 5.468444707473763e-16 0
397 0.002200000000002829 0.0003464101615132823 0
398 0.002000000000003226 0.0006928203230263712 0
399 1.879896533476526e-15 -0.0003464101615135558 0
400 -9.999999999812822e-05 -0.0005196152422704521 0
401 -0.0001999999999981297 -0.0003464101615136107 0
402 -0.0002999999999981932 -0.0005196152422704096 0
403 -0.0003999999999980651 -0.0003464101615133489 0
404 0.0004000000000023248 0.001039230484541808 0
405 -0.001399999999998455 -0.001732050807569908 0
406 0.0008000000000025124 -0.002078460969083837 0
407 0.001400000000001584 -0.001732050807570478 0
408 0.001000000000000938 0.00138564064605511 0
409 -0.0007999999999986214 -0.002078460969083578 0
410 -0.0003999999999981144 5.970995001966054e-16 0
411 -0.00159999999999864 -0.001385640646055632 0
412 0.001700000000003486 0.001212435565297556 0
413 0.002200000000002693 -0.0003464101615138244 0
414 0.0004000000000014708 -0.002078460969083419 0
415 0.002000000000002531 -0.000692820323029133 0
416 -0.001799999999998575 0.001385640646055483 0
417 0.0003000000000012727 0.002251666049839011 0
418 0.001000000000000641 0.002078460969082316 0
419 0.0008000000000007261 0.002078460969082289 0
420 0.001200000000000434 0.002078460969082491 0
421 0.001300000000000385 0.001905255888325417 0
422 -0.001799999999999442 -0.001039230484541369 0
423 0.0002000000000019862 0.001039230484541739 0
424 -0.002299999999998983 0.0005196152422706911 0
425 -0.001299999999998776 0.001558845726811534 0
426 -0.001399999999998802 0.001732050807568325 0
427 -9.999999999849834e-05 -0.001558845726813382 0
428 0.001400000000003361 0.0006928203230272918 0
429 -0.001399999999998977 -0.0006928203230279208 0
430 0.001300000000002488 -0.0008660254037859225 0
431 -0.001599999999999129 -0.001732050807568899 0
432 -9.999999999803586e-05 0.0008660254037849604 0
433 -0.0002999999999978882 0.000866025403784906 0
434 3.20472092150507e-17 -0.002078460969083756 0
435 0.0007000000000008811 -0.002251666049840121 0
436 0.001800000000001662 -0.001039230484544008 0
437 0.002300000000002566 -0.0005196152422708984 0
438 -0.001999999999998732 0.001039230484541425 0
439 0.00050000000000122 0.002251666049839138 0
440 -0.001299999999999593 0.002251666049839237 0
441 -0.001399999999999437 0.002078460969082563 0
442 0.0001000000000018322 0.0001732050807572795 0
443 0.0009000000000008889 0.002251666049839341 0
444 -0.0007999999999979447 5.085134064409617e-16 0
445 -0.0008999999999980131 0.0001732050807572699 0
446 0.001199999999999318 -0.002424871130596402 0
447 0.001300000000000157 -0.002251666049839783 0
448 0.001099999999999863 -0.002251666049839754 0
449 -0.001599999999998918 0.001732050807568953 0
450 0.002699999999999495 -0.0001732050807569986 0
451 0.002600000000000397 1.667390003556405e-16 0
452 0.002499999999999295 -0.0001732050807571 0
453 1.946748245824451e-15 -0.0006928203230277447 0
454 -0.001499999999999866 -0.002251666049839135 0
455 -0.001299999999999416 -0.002251666049839624 0
456 -0.001399999999999231 -0.002078460969082413 0
457 0.001200000000001433 0.001385640646055003 0
458 0.001100000000001765 0.001212435565298322 0
459 0.001300000000001875 0.00155884572681205 0
460 0.001500000000001663 0.001558845726812852 0
461 0.001600000000002545 0.001385640646055073 0
462 0.001900000000001719 -0.0008660254037871752 0
463 0.0004000000000020554 -0.001732050807570148 0
464 0.0002000000000007239 -0.002078460969083814 0
465 0.0001000000000003975 -0.002251666049840992 0
466 0.001600000000002757 -0.0006928203230287877 0
467 -0.0006999999999977903 -0.0001732050807564577 0
468 0.001499999999999876 0.0022516660498392 0
469 -0.001399999999998858 -0.001039230484541899 0
470 -0.001699999999999024 -0.001212435565298289 0
471 -0.001900000000001109 -0.001212435565296999 0
472 0.0005000000000021089 -0.0005196152422707228 0
473 -0.0006999999999980321 0.0005196152422710888 0
474 -0.0005999999999978598 0.002424871130596213 0
475 0.0007000000000022789 -0.0001732050807567818 0
476 0.0008000000000023902 9.780858848534857e-17 0
477 -0.00129999999999911 0.001905255888325266 0
478 -0.0009999999999981612 8.272010825159196e-17 0
479 0.002200000000002245 0.001039230484538676 0
480 0.00200000000000295 0.00103923048453914 0
481 -0.0007999999999982488 0.002424871130596348 0
482 0.0004000000000019626 -0.000692820323027611 0
483 -0.002699999999999516 0.0001732050807574553 0
484 -0.002599999999999653 3.018328498018604e-16 0
485 -0.002499999999999359 0.0001732050807572026 0
486 -0.002399999999998913 -1.365552636245493e-16 0
487 -0.002499999999999224 -0.000173205080756592 0
488 0.0007000000000011093 0.0022516660498393 0
489 0.000400000000002515 0.002424871130596432 0
490 -0.002300000000001909 -0.0008660254037822397 0
491 -0.002200000000002295 -0.0006928203230257958 0
492 -0.002300000000001429 -0.000519615242269737 0
493 -0.00210000000000218 -0.0008660254037833704 0
494 -0.001599999999998958 -0.0003464101615140802 0
495 0.0006000000000008698 0.0020784609690823 0
496 0.001600000000003416 0.0003464101615133722 0
497 0.001700000000000612 0.001905255888324563 0
498 -0.0004999999999976868 0.002251666049839056 0
499 -0.0002999999999972459 0.002251666049838911 0
500 -0.0003999999999978996 0.002078460969081996 0
501 -0.0001999999999969038 0.002424871130596021 0
502 -0.000200000000002939 -0.002424871130597236 0
503 -0.0001000000000028424 -0.002251666049840207 0
504 -0.002099999999999903 -0.000519615242270347 0
505 -0.002700000000000004 -0.0001732050807564744 0
506 0.0007000000000008059 0.001905255888325479 0
507 0.001800000000000728 0.001732050807567967 0
508 -0.0004999999999985933 -0.00155884572681337 0
509 0.0009000000000024686 -0.0001732050807569784 0
510 -0.00190000000000079 -0.0008660254037841016 0
511 -0.001699999999998695 0.001558845726812524 0
512 -0.001899999999998541 0.001558845726813906 0
513 0.001100000000000486 0.002251666049839245 0
514 0.001300000000001668 -0.001905255888326827 0
515 0.001899999999999112 -0.001558845726814697 0
516 0.0005999999999995307 -0.00242487113059654 0
517 0.001100000000002313 -0.00121243556529975 0
518 -0.001199999999998773 0.001385640646054784 0
519 -0.001599999999998718 -6.072887418634432e-16 0
520 -0.001099999999998768 0.001558845726811542 0
521 0.002000000000002352 0.001385640646052512 0
522 0.002500000000001347 0.0005196152422696555 0
523 -0.002299999999999343 -0.0001732050807570604 0
524 0.0009000000000023826 -0.001905255888326504 0
525 -0.002200000000002354 -0.00103923048453913 0
526 -0.001800000000000037 -0.001732050807567973 0
527 0.0004000000000023179 -0.001385640646056279 0
528 -0.002399999999998414 0.0006928203230294798 0
529 0.0006000000000023841 0.00103923048454179 0
530 0.00070000000000218 0.001212435565298731 0
531 -0.0004999999999985758 0.001905255888325277 0
532 0.0006000000000023504 0.0003464101615140923 0
533 0.0007000000000023058 -0.0005196152422710376 0
534 -0.0009999999999982933 -0.002078460969083522 0
535 -0.0008999999999995467 -0.002251666049840188 0
536 -0.00119999999999847 -0.002078460969083117 0
537 -0.0009999999999984303 -0.001039230484542421 0
538 0.002300000000002552 0.0001732050807567852 0
539 -0.0007999999999977569 -0.0003464101615137935 0
540 0.000500000000000928 0.001905255888325428 0
541 0.001400000000002956 -0.0003464101615142813 0
542 2.173987986159309e-15 -0.001385640646056381 0
543 -0.002099999999998686 0.0001732050807563041 0
544 -9.999999999802947e-05 -0.0008660254037850348 0
545 -0.0005999999999989015 -0.002078460969083619 0
546 -0.000500000000000505 -0.002251666049840673 0
547 0.001500000000003175 0.0001732050807565846 0
548 -0.0005999999999984037 -0.001385640646056367 0
549 -0.002500000000001218 -0.0005196152422696546 0
550 0.000300000000001994 0.001212435565298621 0
551 -0.0005999999999982387 -0.0006928203230281187 0
552 0.001800000000002621 -0.0006928203230290072 0
553 0.002100000000002893 0.0005196152422699354 0
554 0.0002000000000021411 3.026279313950164e-16 0
555 0.0001000000000016407 -0.0001732050807567795 0
556 0.001700000000001389 -0.001212435565300933 0
557 -0.001499999999998794 -0.001212435565298764 0
558 -0.001899999999998554 0.001212435565298513 0
559 0.001500000000001385 -0.001558845726814094 0
560 0.0001000000000020389 0.0008660254037849247 0
561 0.0005000000000021177 -0.0008660254037849387 0
562 -0.0005999999999986456 0.001039230484541131 0
563 -0.0004999999999983293 0.0008660254037846051 0
564 -0.001099999999998736 0.001212435565297938 0
565 -0.001199999999998739 -0.0006928203230281593 0
566 -0.001499999999998719 0.0005196152422701681 0
567 2.160674886982997e-15 0.0003464101615143067 0
568 -0.0002999999999980611 0.0001732050807575926 0
569 0.001200000000002618 -0.0006928203230286787 0
570 0.002100000000002739 -0.0001732050807569565 0
571 -0.000899999999998726 0.001558845726811647 0
572 0.002199999999999208 -0.001039230484544923 0
573 -0.0004999999999986857 0.001212435565298014 0
574 1.1774819581462e-15 0.001732050807568555 0
575 -0.001199999999998276 -0.00173205080757003 0
576 0.00230000000000203 0.0008660254037825001 0
577 0.001699999999999629 -0.001905255888327522 0
578 -0.0004999999999980693 -0.0005196152422704853 0
579 -0.001299999999998675 0.0008660254037841336 0
580 0.001200000000003049 0.0006928203230275382 0
581 0.0002000000000019562 -0.0006928203230275854 0
582 -0.0001999999999981302 -0.0006928203230276613 0
583 -0.000299999999998225 -0.0001732050807564872 0
584 -0.0002999999999987173 0.001212435565298159 0
585 0.0006000000000021938 -0.0003464101615137502 0
586 0.0005000000000023879 0.0005196152422710286 0
587 0.0001000000000014976 0.001212435565298388 0
588 -0.0004999999999982284 -0.0008660254037851174 0
589 -0.002499999999999177 0.0005196152422717994 0
590 -0.001299999999998709 0.001212435565297945 0
591 0.0007000000000025115 0.0005196152422709696 0
592 0.001200000000000458 0.002424871130596494 0
593 0.0003000000000013878 -0.001905255888327183 0
594 0.0008000000000015317 0.002424871130596639 0
595 -0.001699999999999348 0.001905255888326964 0
596 -0.001499999999998766 -0.0001732050807573881 0
597 -0.001399999999998653 0.00103923048454107 0
598 -0.0003999999999981881 -0.0006928203230276575 0
599 -0.0006999999999984797 -0.001558845726813275 0
600 0.0009000000000024024 -0.001212435565299493 0
601 0.000500000000002329 -0.001558845726813176 0
602 -0.001699999999998746 0.0005196152422701442 0
603 -0.001699999999998902 -0.0001732050807573436 0
604 0.001700000000003271 0.0001732050807565129 0
605 -9.999999999867407e-05 0.001905255888325184 0
606 -0.0003999999999987278 0.00173205080756843 0
607 0.001000000000002339 -0.001385640646056438 0
608 0.002700000000000783 0.0001732050807568411 0
609 0.001999999999998821 -0.001385640646058164 0
610 -0.0003999999999984988 0.001039230484541439 0
611 -0.0006999999999983183 0.002251666049839243 0
612 0.000700000000002402 0.0001732050807570738 0
613 0.0003000000000019613 -0.001558845726813303 0
614 0.001600000000003046 -0.0003464101615143012 0
615 -0.0004999999999979663 -0.0001732050807563349 0
616 -0.001499999999998684 0.0008660254037841186 0
617 0.001200000000000711 0.001732050807568774 0
618 -0.0002999999999985333 -0.001558845726813318 0
619 -0.001099999999998448 -0.001212435565299329 0
620 0.00150000000000332 0.0005196152422703123 0
621 0.0009000000000025524 0.0001732050807569541 0
622 -0.001599999999998711 0.0006928203230271456 0
623 -0.0003999999999978168 0.0006928203230280234 0
624 0.001000000000002617 -8.425606132927976e-17 0
625 0.001500000000002871 -0.0005196152422716023 0
626 -0.0011999999999987 -0.001039230484542138 0
627 -0.0001999999999982642 -0.001385640646056303 0
628 -0.001499999999998889 -0.0005196152422709867 0
629 0.0001000000000016879 0.002251666049839013 0
630 0.001300000000003078 0.000519615242270513 0
631 0.0002000000000026732 0.00242487113059637 0
632 0.0001000000000016433 -0.001558845726813407 0
633 -0.0007999999999984567 0.0006928203230275932 0
634 -0.001499999999999473 0.001905255888325771 0
635 0.001200000000002346 -0.001039230484542796 0
636 0.001500000000000301 -0.002251666049840188 0
637 0.001200000000002465 0.001039230484541648 0
638 -0.001299999999998742 -0.0005196152422711843 0
639 -0.00199999999999875 0.00138564064605754 0
640 -0.002199999999998522 0.001039230484543726 0
641 0.001300000000003066 0.000866025403784388 0
642 -0.001499999999999685 0.00225166604983976 0
643 0.001100000000002488 -0.0008660254037856406 0
644 0.001500000000000351 0.001905255888325106 0
645 -0.002299999999999055 0.000173205080756741 0
646 -0.0007999999999980872 0.0003464101615141018 0
647 -0.001199999999999973 -0.002424871130596545 0
648 -0.001199999999998746 0.001732050807568375 0
649 -9.999999999816162e-05 0.0001732050807575913 0
650 -0.001099999999998852 0.001905255888325291 0
651 0.001400000000002647 -0.0006928203230289205 0
652 -0.0009999999999982881 0.0003464101615138205 0
653 -0.001299999999998837 -0.000866025403785012 0
654 -0.001099999999998288 0.0001732050807568722 0
655 0.001400000000000228 0.002078460969082342 0
656 0.001300000000000182 0.002251666049839604 0
657 0.000300000000002024 -0.0008660254037847078 0
658 -0.002099999999998511 0.000866025403784421 0
659 -0.002199999999998617 0.0006928203230280942 0
660 0.002400000000001991 0.0003464101615133937 0
661 1.371925132372701e-15 0.001039230484541776 0
662 -0.0005999999999979399 -0.0003464101615135511 0
663 0.002200000000002501 0.0006928203230263789 0
664 -0.0001999999999985708 0.001039230484541685 0
665 -0.002400000000000135 -0.000346410161513378 0
666 -0.0005999999999981905 0.0006928203230278093 0
667 0.0004000000000013068 0.001385640646055361 0
668 0.00120000000000123 -0.002078460969083038 0
669 0.002300000000002181 0.0005196152422698765 0
670 -9.999999999846818e-05 -0.0001732050807567719 0
671 0.0005000000000018366 0.001212435565298515 0
672 0.001800000000003384 0.001039230484539837 0
673 -0.000299999999998454 0.001905255888325193 0
674 -0.002399999999999145 0.0003464101615140537 0
675 0.001500000000000778 -0.001905255888327485 0
676 -0.001299999999998561 -0.001905255888326339 0
677 -0.0008000000000010576 -0.002424871130597054 0
678 -0.0006999999999999798 -0.00225166604984037 0
679 0.001400000000000706 -0.002078460969083535 0
680 -0.0001999999999981162 0.002078460969081962 0
681 0.002100000000002752 0.0008660254037825529 0
682 -0.001099999999999061 -0.002251666049839856 0
683 -0.00200000000000103 -0.001385640646053117 0
684 0.0008000000000010275 0.001385640646055555 0
685 0.001600000000000533 -0.001732050807571139 0
686 -9.999999999770919e-05 0.002251666049839055 0
687 -0.0004000000000019585 -0.002424871130597217 0
688 -0.00179999999999909 -0.001385640646054314 0
689 0.001000000000002063 0.001039230484541455 0
690 0.002200000000002757 -0.0006928203230279887 0
691 0.0009000000000016793 0.001212435565298274 0
692 0.001700000000000372 -0.001558845726814518 0
693 -0.0001999999999989421 1.091778035165747e-15 0
694 0.001400000000000868 0.001732050807568918 0
695 0.002500000000001417 0.0001732050807568582 0
696 -0.001699999999999998 -0.001905255888324871 0
697 0.0007999999999994988 -0.00242487113059695 0
698 0.00190000000000321 0.0008660254037830352 0
699 0.001800000000000302 -0.001385640646058233 0
700 0.001000000000001418 -0.002078460969083513 0
701 -0.001699999999999326 -0.00155884572681172 0
702 0.001900000000003005 0.001212435565296205 0
703 0.002400000000001268 1.25469296410885e-16 0
704 -0.0002000000000004011 -0.002078460969083265 0
705 -0.001499999999999267 -0.001905255888325655 0
706 0.001900000000000157 -0.001212435565301498 0
707 0.0001999999999973109 -0.002424871130597735 0
708 0.001600000000000527 0.00173205080756894 0
709 0.0009000000000004863 -0.002251666049840578 0
710 0.001800000000002086 0.001385640646054135 0
711 -0.002000000000001318 -0.001039230484540158 0
712 0.000299999999999228 -0.002251666049840054 0
713 0.00200000000000025 -0.001039230484544745 0
714 -0.0003000000000013016 -0.002251666049840408 0
715 0.0005000000000003046 -0.002251666049840036 0
716 0.002300000000001304 -0.0001732050807561903 0
717 0.002400000000000701 -0.0006928203230287225 0
718 0.002100000000001051 -0.0008660254037867968 0
719 0.002400000000001306 -0.0003464101615128899 0
720 0.002500000000000876 -0.0005196152422709381 0
721 0.001700000000001501 0.001558845726811513 0
$EndNodes
$Elements
1447
1 15 2 0 1 1
2 15 2 0 2 2
3 15 2 0 3 3
4 15 2 0 4 4
5 15 2 0 5 5
6 15 2 0 6 6
7 15 2 0 7 7
8 1 2 0 1 2 8
9 1 2 0 1 8 9
10 1 2 0 1 9 10
11 1 2 0 1 10 11
12 1 2 0 1 11 12
13 1 2 0 1 12 13
14 1 2 0 1 13 14
15 1 2 0 1 14 15
16 1 2 0 1 15 16
17 1 2 0 1 16 17
18 1 2 0 1 17 18
19 1 2 0 1 18 19
20 1 2 0 1 19 20
21 1 2 0 1 20 21
22 1 2 0 1 21 3
23 1 2 0 2 3 22
24 1 2 0 2 22 23
25 1 2 0 2 23 24
26 1 2 0 2 24 25
27 1 2 0 2 25 26
28 1 2 0 2 26 27
29 1 2 0 2 27 28
30 1 2 0 2 28 29
31 1 2 0 2 29 30
32 1 2 0 2 30 31
33 1 2 0 2 31 32
34 1 2 0 2 32 33
35 1 2 0 2 33 34
36 1 2 0 2 34 35
37 1 2 0 2 35 4
38 1 2 0 3 4 36
39 1 2 0 3 36 37
40 1 2 0 3 37 38
41 1 2 0 3 38 39
42 1 2 0 3 39 40
43 1 2 0 3 40 41
44 1 2 0 3 41 42
45 1 2 0 3 42 43
46 1 2 0 3 43 44
47 1 2 0 3 44 45
48 1 2 0 3 45 46
49 1 2 0 3 46 47
50 1 2 0 3 47 48
51 1 2 0 3 48 49
52 1 2 0 3 49 5
53 1 2 0 4 5 50
54 1 2 0 4 50 51
55 1 2 0 4 51 52
56 1 2 0 4 52 53
57 1 2 0 4 53 54
58 1 2 0 4 54 55
59 1 2 0 4 55 56
60 1 2 0 4 56 57
61 1 2 0 4 57 58
62 1 2 0 4 58 59
63 1 2 0 4 59 60
64 1 2 0 4 60 61
65 1 2 0 4 61 62
66 1 2 0 4 62 63
67 1 2 0 4 63 6
68 1 2 0 5 6 64
69 1 2 0 5 64 65
70 1 2 0 5 65 66
71 1 2 0 5 66 67
72 1 2 0 5 67 68
73 1 2 0 5 68 69
74 1 2 0 5 69 70
75 1 2 0 5 70 71
76 1 2 0 5 71 72
77 1 2 0 5 72 73
78 1 2 0 5 73 74
79 1 2 0 5 74 75
80 1 2 0 5 75 76
81 1 2 0 5 76 77
82 1 2 0 5 77 7
83 1 2 0 6 7 78
84 1 2 0 6 78 79
85 1 2 0 6 79 80
86 1 2 0 6 80 81
87 1 2 0 6 81 82
88 1 2 0 6 82 83
89 1 2 0 6 83 84
90 1 2 0 6 84 85
91 1 2 0 6 85 86
92 1 2 0 6 86 87
93 1 2 0 6 87 88
94 1 2 0 6 88 89
95 1 2 0 6 89 90
96 1 2 0 6 90 91
97 1 2 0 6 91 2
98 2 2 0 1 471 422 711
99 2 2 0 1 357 355 510
100 2 2 0 1 465 434 503
101 2 2 0 1 116 465 503
102 2 2 0 1 329 523 665
103 2 2 0 1 690 415 718
104 2 2 0 1 112 471 711
105 2 2 0 1 448 447 668
106 2 2 0 1 329 492 504
107 2 2 0 1 118 441 642
108 2 2 0 1 492 329 665
109 2 2 0 1 449 97 511
110 2 2 0 1 97 449 595
111 2 2 0 1 491 358 504
112 2 2 0 1 426 477 634
113 2 2 0 1 422 357 510
114 2 2 0 1 457 374 459
115 2 2 0 1 313 129 440
116 2 2 0 1 358 491 493
117 2 2 0 1 446 447 448
118 2 2 0 1 355 358 510
119 2 2 0 1 511 97 512
120 2 2 0 1 373 374 457
121 2 2 0 1 442 1 554
122 2 2 0 1 456 455 536
123 2 2 0 1 492 491 504
124 2 2 0 1 422 510 711
125 2 2 0 1 710 101 721
126 2 2 0 1 373 457 458
127 2 2 0 1 712 100 715
128 2 2 0 1 700 406 709
129 2 2 0 1 688 102 701
130 2 2 0 1 95 439 488
131 2 2 0 1 441 440 642
132 2 2 0 1 486 487 523
133 2 2 0 1 372 412 461
134 2 2 0 1 558 416 639
135 2 2 0 1 455 647 682
136 2 2 0 1 103 87 717
137 2 2 0 1 104 76 446
138 2 2 0 1 441 118 634
139 2 2 0 1 291 486 523
140 2 2 0 1 106 34 128
141 2 2 0 1 117 487 505
142 2 2 0 1 115 438 558
143 2 2 0 1 129 128 440
144 2 2 0 1 595 449 634
145 2 2 0 1 439 95 489
146 2 2 0 1 416 511 512
147 2 2 0 1 313 440 441
148 2 2 0 1 487 484 505
149 2 2 0 1 488 443 594
150 2 2 0 1 161 163 539
151 2 2 0 1 76 77 446
152 2 2 0 1 416 512 639
153 2 2 0 1 477 441 634
154 2 2 0 1 178 180 657
155 2 2 0 1 106 128 129
156 2 2 0 1 471 112 683
157 2 2 0 1 95 488 594
158 2 2 0 1 159 222 478
159 2 2 0 1 516 74 697
160 2 2 0 1 438 115 640
161 2 2 0 1 554 1 555
162 2 2 0 1 523 487 665
163 2 2 0 1 454 455 456
164 2 2 0 1 121 443 513
165 2 2 0 1 424 528 589
166 2 2 0 1 94 546 678
167 2 2 0 1 222 444 478
168 2 2 0 1 450 451 452
169 2 2 0 1 115 558 639
170 2 2 0 1 683 102 688
171 2 2 0 1 645 328 674
172 2 2 0 1 373 458 637
173 2 2 0 1 107 90 450
174 2 2 0 1 104 446 448
175 2 2 0 1 640 99 658
176 2 2 0 1 443 121 594
177 2 2 0 1 417 439 489
178 2 2 0 1 108 62 454
179 2 2 0 1 583 670 693
180 2 2 0 1 157 159 478
181 2 2 0 1 371 637 641
182 2 2 0 1 588 234 598
183 2 2 0 1 246 578 662
184 2 2 0 1 485 645 674
185 2 2 0 1 234 544 582
186 2 2 0 1 658 99 659
187 2 2 0 1 431 526 696
188 2 2 0 1 498 474 611
189 2 2 0 1 224 453 544
190 2 2 0 1 286 463 593
191 2 2 0 1 234 582 598
192 2 2 0 1 109 20 468
193 2 2 0 1 629 417 631
194 2 2 0 1 444 222 467
195 2 2 0 1 108 454 456
196 2 2 0 1 463 361 593
197 2 2 0 1 544 453 582
198 2 2 0 1 107 450 452
199 2 2 0 1 526 60 696
200 2 2 0 1 498 325 500
201 2 2 0 1 677 94 678
202 2 2 0 1 438 640 658
203 2 2 0 1 453 224 581
204 2 2 0 1 111 501 686
205 2 2 0 1 282 457 459
206 2 2 0 1 503 434 704
207 2 2 0 1 182 185 561
208 2 2 0 1 374 372 461
209 2 2 0 1 434 341 704
210 2 2 0 1 560 423 661
211 2 2 0 1 417 489 631
212 2 2 0 1 102 526 701
213 2 2 0 1 361 463 613
214 2 2 0 1 485 484 486
215 2 2 0 1 99 528 659
216 2 2 0 1 637 217 641
217 2 2 0 1 625 232 651
218 2 2 0 1 626 227 653
219 2 2 0 1 613 231 632
220 2 2 0 1 369 466 552
221 2 2 0 1 351 349 555
222 2 2 0 1 435 516 697
223 2 2 0 1 121 513 592
224 2 2 0 1 500 325 531
225 2 2 0 1 370 469 557
226 2 2 0 1 118 595 634
227 2 2 0 1 647 119 682
228 2 2 0 1 361 613 632
229 2 2 0 1 466 367 552
230 2 2 0 1 325 498 611
231 2 2 0 1 471 683 688
232 2 2 0 1 483 484 485
233 2 2 0 1 222 161 539
234 2 2 0 1 423 550 587
235 2 2 0 1 546 545 678
236 2 2 0 1 163 246 539
237 2 2 0 1 40 41 512
238 2 2 0 1 414 712 715
239 2 2 0 1 550 257 587
240 2 2 0 1 154 157 654
241 2 2 0 1 539 246 662
242 2 2 0 1 469 360 557
243 2 2 0 1 466 369 625
244 2 2 0 1 462 415 552
245 2 2 0 1 282 459 617
246 2 2 0 1 33 34 106
247 2 2 0 1 392 623 666
248 2 2 0 1 461 710 721
249 2 2 0 1 466 625 651
250 2 2 0 1 97 40 512
251 2 2 0 1 31 32 474
252 2 2 0 1 1 442 649
253 2 2 0 1 111 629 631
254 2 2 0 1 320 290 504
255 2 2 0 1 34 35 128
256 2 2 0 1 448 668 700
257 2 2 0 1 469 626 653
258 2 2 0 1 469 370 626
259 2 2 0 1 367 462 552
260 2 2 0 1 420 655 656
261 2 2 0 1 105 48 483
262 2 2 0 1 449 426 634
263 2 2 0 1 414 286 593
264 2 2 0 1 246 551 578
265 2 2 0 1 529 530 671
266 2 2 0 1 474 32 481
267 2 2 0 1 157 478 654
268 2 2 0 1 106 130 481
269 2 2 0 1 180 561 657
270 2 2 0 1 103 690 718
271 2 2 0 1 270 472 482
272 2 2 0 1 105 483 485
273 2 2 0 1 578 551 598
274 2 2 0 1 486 291 645
275 2 2 0 1 464 414 593
276 2 2 0 1 29 30 501
277 2 2 0 1 459 374 460
278 2 2 0 1 563 433 610
279 2 2 0 1 446 125 447
280 2 2 0 1 474 481 611
281 2 2 0 1 470 411 557
282 2 2 0 1 5 50 124
283 2 2 0 1 475 223 509
284 2 2 0 1 485 486 645
285 2 2 0 1 223 191 509
286 2 2 0 1 472 270 533
287 2 2 0 1 551 588 598
288 2 2 0 1 528 424 659
289 2 2 0 1 290 329 504
290 2 2 0 1 119 535 682
291 2 2 0 1 528 46 589
292 2 2 0 1 185 270 561
293 2 2 0 1 535 677 678
294 2 2 0 1 433 563 623
295 2 2 0 1 360 470 557
296 2 2 0 1 191 193 509
297 2 2 0 1 349 554 555
298 2 2 0 1 399 351 555
299 2 2 0 1 533 223 585
300 2 2 0 1 223 475 585
301 2 2 0 1 180 182 561
302 2 2 0 1 35 4 122
303 2 2 0 1 90 91 450
304 2 2 0 1 26 27 489
305 2 2 0 1 456 536 676
306 2 2 0 1 371 373 637
307 2 2 0 1 95 26 489
308 2 2 0 1 235 473 633
309 2 2 0 1 313 441 477
310 2 2 0 1 672 333 698
311 2 2 0 1 33 106 481
312 2 2 0 1 10 11 522
313 2 2 0 1 358 320 504
314 2 2 0 1 488 439 495
315 2 2 0 1 20 21 468
316 2 2 0 1 546 94 687
317 2 2 0 1 486 484 487
318 2 2 0 1 536 455 682
319 2 2 0 1 49 5 124
320 2 2 0 1 111 29 501
321 2 2 0 1 427 542 627
322 2 2 0 1 131 313 650
323 2 2 0 1 62 63 454
324 2 2 0 1 423 587 661
325 2 2 0 1 494 210 596
326 2 2 0 1 285 406 524
327 2 2 0 1 419 488 495
328 2 2 0 1 224 178 657
329 2 2 0 1 48 49 483
330 2 2 0 1 445 646 652
331 2 2 0 1 467 222 539
332 2 2 0 1 100 516 715
333 2 2 0 1 535 119 677
334 2 2 0 1 106 129 130
335 2 2 0 1 530 316 671
336 2 2 0 1 496 215 547
337 2 2 0 1 193 195 624
338 2 2 0 1 472 533 585
339 2 2 0 1 648 244 650
340 2 2 0 1 19 109 497
341 2 2 0 1 483 124 484
342 2 2 0 1 18 19 497
343 2 2 0 1 629 111 686
344 2 2 0 1 51 52 117
345 2 2 0 1 231 542 632
346 2 2 0 1 385 449 511
347 2 2 0 1 509 193 624
348 2 2 0 1 61 62 108
349 2 2 0 1 101 17 507
350 2 2 0 1 508 211 548
351 2 2 0 1 419 495 506
352 2 2 0 1 547 236 604
353 2 2 0 1 273 279 506
354 2 2 0 1 54 55 490
355 2 2 0 1 644 109 655
356 2 2 0 1 187 189 533
357 2 2 0 1 428 580 630
358 2 2 0 1 134 136 531
359 2 2 0 1 244 520 571
360 2 2 0 1 473 235 646
361 2 2 0 1 569 188 643
362 2 2 0 1 279 292 506
363 2 2 0 1 542 175 627
364 2 2 0 1 16 101 521
365 2 2 0 1 707 100 712
366 2 2 0 1 110 10 522
367 2 2 0 1 517 214 600
368 2 2 0 1 210 158 596
369 2 2 0 1 548 240 599
370 2 2 0 1 273 506 540
371 2 2 0 1 481 130 611
372 2 2 0 1 450 123 451
373 2 2 0 1 35 122 128
374 2 2 0 1 417 389 439
375 2 2 0 1 430 569 643
376 2 2 0 1 429 565 638
377 2 2 0 1 565 162 638
378 2 2 0 1 271 328 543
379 2 2 0 1 128 122 440
380 2 2 0 1 109 468 655
381 2 2 0 1 313 477 650
382 2 2 0 1 704 342 714
383 2 2 0 1 520 336 571
384 2 2 0 1 383 385 511
385 2 2 0 1 89 90 107
386 2 2 0 1 72 73 100
387 2 2 0 1 305 407 559
388 2 2 0 1 294 409 545
389 2 2 0 1 98 31 474
390 2 2 0 1 56 57 112
391 2 2 0 1 148 235 633
392 2 2 0 1 53 54 93
393 2 2 0 1 214 184 600
394 2 2 0 1 646 235 652
395 2 2 0 1 91 2 123
396 2 2 0 1 623 563 666
397 2 2 0 1 454 126 455
398 2 2 0 1 46 47 589
399 2 2 0 1 247 265 266
400 2 2 0 1 189 223 533
401 2 2 0 1 217 580 641
402 2 2 0 1 232 569 651
403 2 2 0 1 131 129 313
404 2 2 0 1 580 201 630
405 2 2 0 1 438 379 558
406 2 2 0 1 387 389 417
407 2 2 0 1 325 134 531
408 2 2 0 1 266 265 308
409 2 2 0 1 11 12 92
410 2 2 0 1 496 547 604
411 2 2 0 1 342 545 546
412 2 2 0 1 270 482 561
413 2 2 0 1 270 187 533
414 2 2 0 1 14 15 113
415 2 2 0 1 290 289 329
416 2 2 0 1 381 383 416
417 2 2 0 1 309 397 553
418 2 2 0 1 363 368 556
419 2 2 0 1 242 261 262
420 2 2 0 1 416 383 511
421 2 2 0 1 419 443 488
422 2 2 0 1 227 565 653
423 2 2 0 1 484 124 505
424 2 2 0 1 98 474 498
425 2 2 0 1 404 275 529
426 2 2 0 1 499 498 500
427 2 2 0 1 596 519 603
428 2 2 0 1 262 261 293
429 2 2 0 1 381 382 383
430 2 2 0 1 532 233 591
431 2 2 0 1 304 306 514
432 2 2 0 1 489 27 631
433 2 2 0 1 215 197 547
434 2 2 0 1 419 418 443
435 2 2 0 1 285 314 406
436 2 2 0 1 269 268 289
437 2 2 0 1 294 293 409
438 2 2 0 1 518 336 520
439 2 2 0 1 490 55 525
440 2 2 0 1 506 495 540
441 2 2 0 1 508 548 599
442 2 2 0 1 292 418 419
443 2 2 0 1 379 380 381
444 2 2 0 1 86 87 103
445 2 2 0 1 28 29 111
446 2 2 0 1 618 427 627
447 2 2 0 1 336 518 564
448 2 2 0 1 292 419 506
449 2 2 0 1 245 253 263
450 2 2 0 1 233 202 591
451 2 2 0 1 385 426 449
452 2 2 0 1 407 304 514
453 2 2 0 1 542 427 632
454 2 2 0 1 309 308 397
455 2 2 0 1 264 263 304
456 2 2 0 1 59 60 526
457 2 2 0 1 592 513 656
458 2 2 0 1 305 304 407
459 2 2 0 1 145 143 564
460 2 2 0 1 448 700 709
461 2 2 0 1 44 45 99
462 2 2 0 1 266 308 309
463 2 2 0 1 86 103 572
464 2 2 0 1 513 420 656
465 2 2 0 1 18 497 507
466 2 2 0 1 387 277 389
467 2 2 0 1 211 171 548
468 2 2 0 1 19 20 109
469 2 2 0 1 73 74 516
470 2 2 0 1 383 384 385
471 2 2 0 1 620 428 630
472 2 2 0 1 267 268 269
473 2 2 0 1 253 285 524
474 2 2 0 1 262 293 294
475 2 2 0 1 82 83 515
476 2 2 0 1 512 41 639
477 2 2 0 1 600 238 607
478 2 2 0 1 238 239 245
479 2 2 0 1 17 18 507
480 2 2 0 1 16 17 101
481 2 2 0 1 70 71 116
482 2 2 0 1 267 249 268
483 2 2 0 1 409 534 535
484 2 2 0 1 628 429 638
485 2 2 0 1 245 239 253
486 2 2 0 1 304 263 306
487 2 2 0 1 260 273 540
488 2 2 0 1 81 82 96
489 2 2 0 1 494 596 603
490 2 2 0 1 226 249 267
491 2 2 0 1 47 48 105
492 2 2 0 1 275 206 529
493 2 2 0 1 226 267 519
494 2 2 0 1 269 289 290
495 2 2 0 1 30 98 501
496 2 2 0 1 243 616 622
497 2 2 0 1 130 129 131
498 2 2 0 1 342 322 545
499 2 2 0 1 292 307 418
500 2 2 0 1 460 374 461
501 2 2 0 1 381 380 382
502 2 2 0 1 377 378 379
503 2 2 0 1 529 207 530
504 2 2 0 1 355 320 358
505 2 2 0 1 411 688 701
506 2 2 0 1 287 413 570
507 2 2 0 1 98 499 501
508 2 2 0 1 245 263 264
509 2 2 0 1 398 318 553
510 2 2 0 1 206 207 529
511 2 2 0 1 284 370 557
512 2 2 0 1 166 227 537
513 2 2 0 1 421 644 655
514 2 2 0 1 247 255 265
515 2 2 0 1 102 59 526
516 2 2 0 1 331 318 398
517 2 2 0 1 288 369 552
518 2 2 0 1 77 125 446
519 2 2 0 1 379 378 380
520 2 2 0 1 58 59 102
521 2 2 0 1 339 322 342
522 2 2 0 1 408 684 691
523 2 2 0 1 215 496 620
524 2 2 0 1 383 382 384
525 2 2 0 1 176 224 544
526 2 2 0 1 215 620 630
527 2 2 0 1 195 194 196
528 2 2 0 1 226 248 249
529 2 2 0 1 192 232 541
530 2 2 0 1 389 277 540
531 2 2 0 1 329 289 523
532 2 2 0 1 368 324 559
533 2 2 0 1 283 405 575
534 2 2 0 1 363 324 368
535 2 2 0 1 63 6 126
536 2 2 0 1 242 251 261
537 2 2 0 1 377 376 378
538 2 2 0 1 143 336 564
539 2 2 0 1 176 175 177
540 2 2 0 1 155 226 519
541 2 2 0 1 169 168 170
542 2 2 0 1 236 237 247
543 2 2 0 1 178 177 179
544 2 2 0 1 220 275 276
545 2 2 0 1 155 225 226
546 2 2 0 1 182 181 183
547 2 2 0 1 154 153 155
548 2 2 0 1 167 166 168
549 2 2 0 1 180 179 181
550 2 2 0 1 196 236 547
551 2 2 0 1 220 206 275
552 2 2 0 1 211 618 627
553 2 2 0 1 259 258 260
554 2 2 0 1 210 494 628
555 2 2 0 1 206 205 207
556 2 2 0 1 199 197 215
557 2 2 0 1 219 228 229
558 2 2 0 1 264 304 305
559 2 2 0 1 98 498 499
560 2 2 0 1 53 93 549
561 2 2 0 1 327 442 554
562 2 2 0 1 276 275 296
563 2 2 0 1 193 192 194
564 2 2 0 1 443 418 513
565 2 2 0 1 195 198 624
566 2 2 0 1 296 275 404
567 2 2 0 1 562 563 610
568 2 2 0 1 160 158 210
569 2 2 0 1 91 123 450
570 2 2 0 1 279 281 292
571 2 2 0 1 45 46 528
572 2 2 0 1 186 184 214
573 2 2 0 1 173 171 211
574 2 2 0 1 322 294 545
575 2 2 0 1 296 404 423
576 2 2 0 1 300 297 560
577 2 2 0 1 616 378 622
578 2 2 0 1 240 241 242
579 2 2 0 1 411 284 557
580 2 2 0 1 221 145 564
581 2 2 0 1 415 288 552
582 2 2 0 1 165 164 166
583 2 2 0 1 156 155 519
584 2 2 0 1 409 293 534
585 2 2 0 1 477 426 648
586 2 2 0 1 132 131 133
587 2 2 0 1 324 305 559
588 2 2 0 1 209 218 219
589 2 2 0 1 168 166 537
590 2 2 0 1 170 240 548
591 2 2 0 1 167 169 588
592 2 2 0 1 432 300 560
593 2 2 0 1 189 191 223
594 2 2 0 1 174 176 544
595 2 2 0 1 612 476 621
596 2 2 0 1 318 309 553
597 2 2 0 1 183 181 213
598 2 2 0 1 385 425 426
599 2 2 0 1 495 389 540
600 2 2 0 1 423 404 550
601 2 2 0 1 179 177 231
602 2 2 0 1 200 202 233
603 2 2 0 1 93 492 549
604 2 2 0 1 181 179 527
605 2 2 0 1 197 196 547
606 2 2 0 1 375 376 377
607 2 2 0 1 80 81 577
608 2 2 0 1 477 648 650
609 2 2 0 1 635 430 643
610 2 2 0 1 276 296 297
611 2 2 0 1 236 247 604
612 2 2 0 1 204 206 220
613 2 2 0 1 259 260 277
614 2 2 0 1 493 490 525
615 2 2 0 1 229 257 258
616 2 2 0 1 418 420 513
617 2 2 0 1 238 213 239
618 2 2 0 1 39 40 97
619 2 2 0 1 487 117 665
620 2 2 0 1 170 168 212
621 2 2 0 1 249 271 543
622 2 2 0 1 377 379 438
623 2 2 0 1 670 1 693
624 2 2 0 1 346 327 554
625 2 2 0 1 176 177 178
626 2 2 0 1 260 272 273
627 2 2 0 1 196 194 216
628 2 2 0 1 163 165 246
629 2 2 0 1 260 258 272
630 2 2 0 1 130 131 132
631 2 2 0 1 211 508 618
632 2 2 0 1 349 346 554
633 2 2 0 1 202 203 204
634 2 2 0 1 196 216 236
635 2 2 0 1 81 96 577
636 2 2 0 1 358 493 510
637 2 2 0 1 172 174 234
638 2 2 0 1 204 205 206
639 2 2 0 1 174 175 176
640 2 2 0 1 297 296 560
641 2 2 0 1 365 363 556
642 2 2 0 1 234 174 544
643 2 2 0 1 299 297 300
644 2 2 0 1 327 315 442
645 2 2 0 1 299 301 567
646 2 2 0 1 210 628 638
647 2 2 0 1 240 242 599
648 2 2 0 1 298 297 299
649 2 2 0 1 189 190 191
650 2 2 0 1 185 187 270
651 2 2 0 1 148 150 235
652 2 2 0 1 229 258 259
653 2 2 0 1 154 155 156
654 2 2 0 1 219 229 574
655 2 2 0 1 301 390 567
656 2 2 0 1 159 161 222
657 2 2 0 1 117 52 549
658 2 2 0 1 177 175 542
659 2 2 0 1 551 167 588
660 2 2 0 1 30 31 98
661 2 2 0 1 217 637 689
662 2 2 0 1 194 192 541
663 2 2 0 1 353 351 399
664 2 2 0 1 289 268 291
665 2 2 0 1 166 164 227
666 2 2 0 1 138 140 209
667 2 2 0 1 232 190 569
668 2 2 0 1 171 170 548
669 2 2 0 1 299 300 301
670 2 2 0 1 517 600 607
671 2 2 0 1 271 312 328
672 2 2 0 1 442 315 567
673 2 2 0 1 439 389 495
674 2 2 0 1 200 201 202
675 2 2 0 1 348 346 349
676 2 2 0 1 276 297 298
677 2 2 0 1 277 260 540
678 2 2 0 1 136 137 138
679 2 2 0 1 179 231 527
680 2 2 0 1 67 68 94
681 2 2 0 1 298 299 315
682 2 2 0 1 153 151 566
683 2 2 0 1 165 166 167
684 2 2 0 1 144 146 208
685 2 2 0 1 193 194 195
686 2 2 0 1 371 372 373
687 2 2 0 1 390 391 568
688 2 2 0 1 301 300 302
689 2 2 0 1 246 165 551
690 2 2 0 1 315 299 567
691 2 2 0 1 191 192 193
692 2 2 0 1 204 203 205
693 2 2 0 1 151 243 566
694 2 2 0 1 296 423 560
695 2 2 0 1 135 133 244
696 2 2 0 1 163 164 165
697 2 2 0 1 183 213 238
698 2 2 0 1 302 300 432
699 2 2 0 1 302 432 433
700 2 2 0 1 151 149 243
701 2 2 0 1 152 153 154
702 2 2 0 1 144 208 562
703 2 2 0 1 229 259 574
704 2 2 0 1 350 349 351
705 2 2 0 1 150 151 152
706 2 2 0 1 169 172 588
707 2 2 0 1 385 384 425
708 2 2 0 1 134 135 136
709 2 2 0 1 152 151 153
710 2 2 0 1 520 244 648
711 2 2 0 1 219 218 228
712 2 2 0 1 202 201 203
713 2 2 0 1 132 133 134
714 2 2 0 1 397 308 538
715 2 2 0 1 391 394 568
716 2 2 0 1 400 399 401
717 2 2 0 1 263 253 524
718 2 2 0 1 384 382 590
719 2 2 0 1 213 181 527
720 2 2 0 1 394 410 568
721 2 2 0 1 562 208 563
722 2 2 0 1 187 188 189
723 2 2 0 1 284 252 370
724 2 2 0 1 191 190 192
725 2 2 0 1 136 135 137
726 2 2 0 1 373 372 374
727 2 2 0 1 147 221 579
728 2 2 0 1 170 212 240
729 2 2 0 1 134 133 135
730 2 2 0 1 220 586 591
731 2 2 0 1 192 190 232
732 2 2 0 1 140 139 573
733 2 2 0 1 135 244 571
734 2 2 0 1 394 396 410
735 2 2 0 1 164 162 565
736 2 2 0 1 142 144 562
737 2 2 0 1 288 256 369
738 2 2 0 1 138 139 140
739 2 2 0 1 198 199 200
740 2 2 0 1 227 164 565
741 2 2 0 1 138 137 139
742 2 2 0 1 155 153 225
743 2 2 0 1 353 399 400
744 2 2 0 1 391 303 392
745 2 2 0 1 139 142 573
746 2 2 0 1 176 178 224
747 2 2 0 1 375 274 376
748 2 2 0 1 25 26 95
749 2 2 0 1 301 303 390
750 2 2 0 1 49 124 483
751 2 2 0 1 402 401 403
752 2 2 0 1 27 28 631
753 2 2 0 1 190 188 569
754 2 2 0 1 301 302 303
755 2 2 0 1 137 135 571
756 2 2 0 1 152 154 654
757 2 2 0 1 157 158 159
758 2 2 0 1 32 33 481
759 2 2 0 1 390 303 391
760 2 2 0 1 352 351 353
761 2 2 0 1 142 143 144
762 2 2 0 1 348 349 350
763 2 2 0 1 185 186 187
764 2 2 0 1 174 173 175
765 2 2 0 1 229 228 257
766 2 2 0 1 391 392 393
767 2 2 0 1 172 173 174
768 2 2 0 1 289 291 523
769 2 2 0 1 143 141 336
770 2 2 0 1 444 445 478
771 2 2 0 1 519 267 603
772 2 2 0 1 580 428 641
773 2 2 0 1 393 392 473
774 2 2 0 1 526 431 701
775 2 2 0 1 141 137 571
776 2 2 0 1 209 140 218
777 2 2 0 1 308 265 310
778 2 2 0 1 189 188 190
779 2 2 0 1 436 365 556
780 2 2 0 1 165 167 551
781 2 2 0 1 336 141 571
782 2 2 0 1 391 393 394
783 2 2 0 1 139 141 142
784 2 2 0 1 444 395 445
785 2 2 0 1 225 153 566
786 2 2 0 1 418 307 420
787 2 2 0 1 150 149 151
788 2 2 0 1 394 393 395
789 2 2 0 1 326 315 327
790 2 2 0 1 394 395 396
791 2 2 0 1 142 562 573
792 2 2 0 1 144 145 146
793 2 2 0 1 345 327 346
794 2 2 0 1 396 395 444
795 2 2 0 1 400 401 402
796 2 2 0 1 203 201 580
797 2 2 0 1 396 444 467
798 2 2 0 1 157 156 158
799 2 2 0 1 518 384 590
800 2 2 0 1 531 136 606
801 2 2 0 1 350 351 352
802 2 2 0 1 100 73 516
803 2 2 0 1 586 532 591
804 2 2 0 1 99 45 528
805 2 2 0 1 293 261 295
806 2 2 0 1 142 141 143
807 2 2 0 1 200 199 201
808 2 2 0 1 209 219 250
809 2 2 0 1 139 137 141
810 2 2 0 1 154 156 157
811 2 2 0 1 262 294 321
812 2 2 0 1 382 380 597
813 2 2 0 1 93 54 490
814 2 2 0 1 202 204 591
815 2 2 0 1 347 346 348
816 2 2 0 1 243 149 579
817 2 2 0 1 316 667 671
818 2 2 0 1 250 219 574
819 2 2 0 1 292 281 307
820 2 2 0 1 226 225 248
821 2 2 0 1 559 407 685
822 2 2 0 1 161 162 163
823 2 2 0 1 47 105 589
824 2 2 0 1 353 400 453
825 2 2 0 1 120 80 577
826 2 2 0 1 298 315 326
827 2 2 0 1 149 147 579
828 2 2 0 1 21 3 127
829 2 2 0 1 266 309 317
830 2 2 0 1 269 290 319
831 2 2 0 1 178 179 180
832 2 2 0 1 148 149 150
833 2 2 0 1 233 612 621
834 2 2 0 1 163 162 164
835 2 2 0 1 379 381 558
836 2 2 0 1 220 276 586
837 2 2 0 1 167 168 169
838 2 2 0 1 402 403 578
839 2 2 0 1 144 143 145
840 2 2 0 1 231 177 542
841 2 2 0 1 195 196 197
842 2 2 0 1 344 341 434
843 2 2 0 1 198 197 199
844 2 2 0 1 360 357 422
845 2 2 0 1 337 277 387
846 2 2 0 1 367 365 436
847 2 2 0 1 159 160 161
848 2 2 0 1 187 186 188
849 2 2 0 1 147 145 221
850 2 2 0 1 347 475 476
851 2 2 0 1 590 382 597
852 2 2 0 1 472 352 482
853 2 2 0 1 345 346 347
854 2 2 0 1 352 353 581
855 2 2 0 1 347 348 475
856 2 2 0 1 243 579 616
857 2 2 0 1 326 327 345
858 2 2 0 1 403 401 583
859 2 2 0 1 259 337 574
860 2 2 0 1 353 453 581
861 2 2 0 1 407 514 675
862 2 2 0 1 476 475 509
863 2 2 0 1 350 352 472
864 2 2 0 1 158 156 596
865 2 2 0 1 249 248 271
866 2 2 0 1 140 573 584
867 2 2 0 1 217 203 580
868 2 2 0 1 172 171 173
869 2 2 0 1 228 218 230
870 2 2 0 1 146 147 148
871 2 2 0 1 247 237 255
872 2 2 0 1 306 263 524
873 2 2 0 1 205 203 217
874 2 2 0 1 242 241 251
875 2 2 0 1 185 184 186
876 2 2 0 1 159 158 160
877 2 2 0 1 276 298 586
878 2 2 0 1 268 249 543
879 2 2 0 1 326 345 532
880 2 2 0 1 293 295 534
881 2 2 0 1 328 424 674
882 2 2 0 1 253 254 285
883 2 2 0 1 400 402 582
884 2 2 0 1 482 352 581
885 2 2 0 1 453 400 582
886 2 2 0 1 238 245 607
887 2 2 0 1 96 82 515
888 2 2 0 1 343 344 361
889 2 2 0 1 432 560 661
890 2 2 0 1 146 145 147
891 2 2 0 1 218 140 584
892 2 2 0 1 233 532 612
893 2 2 0 1 340 343 427
894 2 2 0 1 369 256 614
895 2 2 0 1 259 277 337
896 2 2 0 1 38 39 595
897 2 2 0 1 273 272 278
898 2 2 0 1 79 80 120
899 2 2 0 1 180 181 182
900 2 2 0 1 470 422 471
901 2 2 0 1 475 348 585
902 2 2 0 1 236 216 237
903 2 2 0 1 348 350 585
904 2 2 0 1 340 341 343
905 2 2 0 1 287 386 413
906 2 2 0 1 161 160 162
907 2 2 0 1 283 311 405
908 2 2 0 1 230 218 584
909 2 2 0 1 298 326 586
910 2 2 0 1 317 309 318
911 2 2 0 1 184 183 600
912 2 2 0 1 343 341 344
913 2 2 0 1 148 147 149
914 2 2 0 1 172 234 588
915 2 2 0 1 319 290 320
916 2 2 0 1 216 194 541
917 2 2 0 1 195 197 198
918 2 2 0 1 169 170 171
919 2 2 0 1 457 408 458
920 2 2 0 1 321 294 322
921 2 2 0 1 136 138 606
922 2 2 0 1 240 212 241
923 2 2 0 1 212 168 537
924 2 2 0 1 464 434 465
925 2 2 0 1 15 16 521
926 2 2 0 1 381 416 558
927 2 2 0 1 340 339 341
928 2 2 0 1 350 472 585
929 2 2 0 1 2 8 123
930 2 2 0 1 221 564 590
931 2 2 0 1 579 221 597
932 2 2 0 1 332 334 428
933 2 2 0 1 273 278 279
934 2 2 0 1 308 310 538
935 2 2 0 1 242 262 599
936 2 2 0 1 364 366 430
937 2 2 0 1 432 661 664
938 2 2 0 1 24 25 594
939 2 2 0 1 356 359 429
940 2 2 0 1 204 220 591
941 2 2 0 1 326 532 586
942 2 2 0 1 247 266 604
943 2 2 0 1 198 200 621
944 2 2 0 1 182 183 184
945 2 2 0 1 386 288 415
946 2 2 0 1 56 112 525
947 2 2 0 1 564 518 590
948 2 2 0 1 169 171 172
949 2 2 0 1 156 519 596
950 2 2 0 1 262 321 599
951 2 2 0 1 228 230 587
952 2 2 0 1 433 432 664
953 2 2 0 1 287 256 288
954 2 2 0 1 42 43 115
955 2 2 0 1 283 252 284
956 2 2 0 1 338 339 340
957 2 2 0 1 183 238 600
958 2 2 0 1 402 578 598
959 2 2 0 1 264 305 323
960 2 2 0 1 311 284 411
961 2 2 0 1 39 97 595
962 2 2 0 1 403 583 615
963 2 2 0 1 319 354 494
964 2 2 0 1 85 86 572
965 2 2 0 1 221 590 597
966 2 2 0 1 255 287 570
967 2 2 0 1 410 396 615
968 2 2 0 1 93 490 491
969 2 2 0 1 269 319 603
970 2 2 0 1 321 338 508
971 2 2 0 1 266 317 604
972 2 2 0 1 366 365 367
973 2 2 0 1 405 311 431
974 2 2 0 1 366 367 466
975 2 2 0 1 251 283 575
976 2 2 0 1 257 228 587
977 2 2 0 1 415 462 718
978 2 2 0 1 75 76 104
979 2 2 0 1 182 184 185
980 2 2 0 1 425 518 520
981 2 2 0 1 378 376 622
982 2 2 0 1 583 410 615
983 2 2 0 1 25 95 594
984 2 2 0 1 278 272 316
985 2 2 0 1 364 365 366
986 2 2 0 1 344 434 464
987 2 2 0 1 359 357 360
988 2 2 0 1 282 280 408
989 2 2 0 1 413 386 437
990 2 2 0 1 317 330 496
991 2 2 0 1 13 14 479
992 2 2 0 1 359 360 469
993 2 2 0 1 573 562 610
994 2 2 0 1 312 274 375
995 2 2 0 1 356 355 357
996 2 2 0 1 356 357 359
997 2 2 0 1 372 335 412
998 2 2 0 1 364 363 365
999 2 2 0 1 286 254 463
1000 2 2 0 1 282 408 457
1001 2 2 0 1 574 337 605
1002 2 2 0 1 371 335 372
1003 2 2 0 1 601 527 613
1004 2 2 0 1 338 322 339
1005 2 2 0 1 534 295 536
1006 2 2 0 1 323 305 324
1007 2 2 0 1 261 251 575
1008 2 2 0 1 253 239 254
1009 2 2 0 1 330 318 331
1010 2 2 0 1 138 209 606
1011 2 2 0 1 367 436 462
1012 2 2 0 1 267 269 603
1013 2 2 0 1 425 384 518
1014 2 2 0 1 132 134 325
1015 2 2 0 1 287 288 386
1016 2 2 0 1 93 491 492
1017 2 2 0 1 319 494 603
1018 2 2 0 1 334 335 371
1019 2 2 0 1 302 433 623
1020 2 2 0 1 239 213 601
1021 2 2 0 1 376 274 602
1022 2 2 0 1 213 527 601
1023 2 2 0 1 323 362 517
1024 2 2 0 1 337 387 388
1025 2 2 0 1 265 255 570
1026 2 2 0 1 360 422 470
1027 2 2 0 1 330 331 332
1028 2 2 0 1 476 509 624
1029 2 2 0 1 321 508 599
1030 2 2 0 1 354 355 356
1031 2 2 0 1 283 284 311
1032 2 2 0 1 130 132 611
1033 2 2 0 1 354 320 355
1034 2 2 0 1 279 280 281
1035 2 2 0 1 332 331 333
1036 2 2 0 1 502 116 503
1037 2 2 0 1 321 322 338
1038 2 2 0 1 52 53 549
1039 2 2 0 1 392 303 623
1040 2 2 0 1 317 496 604
1041 2 2 0 1 214 635 643
1042 2 2 0 1 285 286 314
1043 2 2 0 1 369 614 625
1044 2 2 0 1 209 250 606
1045 2 2 0 1 362 363 364
1046 2 2 0 1 317 318 330
1047 2 2 0 1 332 333 334
1048 2 2 0 1 463 254 601
1049 2 2 0 1 319 320 354
1050 2 2 0 1 347 476 612
1051 2 2 0 1 251 252 283
1052 2 2 0 1 370 252 619
1053 2 2 0 1 255 256 287
1054 2 2 0 1 23 24 121
1055 2 2 0 1 582 402 598
1056 2 2 0 1 271 274 312
1057 2 2 0 1 279 278 280
1058 2 2 0 1 362 324 363
1059 2 2 0 1 361 344 593
1060 2 2 0 1 532 345 612
1061 2 2 0 1 376 602 622
1062 2 2 0 1 245 264 607
1063 2 2 0 1 250 574 605
1064 2 2 0 1 69 70 502
1065 2 2 0 1 77 7 125
1066 2 2 0 1 328 312 424
1067 2 2 0 1 281 280 282
1068 2 2 0 1 406 314 435
1069 2 2 0 1 463 601 613
1070 2 2 0 1 225 566 602
1071 2 2 0 1 214 517 635
1072 2 2 0 1 251 241 252
1073 2 2 0 1 527 231 613
1074 2 2 0 1 655 468 656
1075 2 2 0 1 291 268 543
1076 2 2 0 1 375 658 659
1077 2 2 0 1 334 333 335
1078 2 2 0 1 323 324 362
1079 2 2 0 1 340 427 618
1080 2 2 0 1 271 248 274
1081 2 2 0 1 11 92 522
1082 2 2 0 1 255 237 256
1083 2 2 0 1 285 254 286
1084 2 2 0 1 70 116 502
1085 2 2 0 1 602 566 622
1086 2 2 0 1 254 239 601
1087 2 2 0 1 175 173 627
1088 2 2 0 1 14 113 479
1089 2 2 0 1 212 537 619
1090 2 2 0 1 515 83 609
1091 2 2 0 1 264 323 607
1092 2 2 0 1 337 388 605
1093 2 2 0 1 479 113 480
1094 2 2 0 1 41 42 639
1095 2 2 0 1 541 232 625
1096 2 2 0 1 241 212 619
1097 2 2 0 1 565 429 653
1098 2 2 0 1 569 430 651
1099 2 2 0 1 579 597 616
1100 2 2 0 1 584 573 610
1101 2 2 0 1 696 108 705
1102 2 2 0 1 332 428 620
1103 2 2 0 1 65 66 119
1104 2 2 0 1 420 307 421
1105 2 2 0 1 345 347 612
1106 2 2 0 1 396 467 615
1107 2 2 0 1 344 464 593
1108 2 2 0 1 537 227 626
1109 2 2 0 1 380 378 616
1110 2 2 0 1 78 79 636
1111 2 2 0 1 478 445 654
1112 2 2 0 1 295 261 575
1113 2 2 0 1 21 127 468
1114 2 2 0 1 248 225 602
1115 2 2 0 1 566 243 622
1116 2 2 0 1 508 338 618
1117 2 2 0 1 44 99 640
1118 2 2 0 1 621 476 624
1119 2 2 0 1 200 233 621
1120 2 2 0 1 55 56 525
1121 2 2 0 1 146 148 633
1122 2 2 0 1 314 286 414
1123 2 2 0 1 338 340 618
1124 2 2 0 1 323 517 607
1125 2 2 0 1 198 621 624
1126 2 2 0 1 310 265 570
1127 2 2 0 1 496 330 620
1128 2 2 0 1 201 199 630
1129 2 2 0 1 370 619 626
1130 2 2 0 1 4 36 122
1131 2 2 0 1 124 50 505
1132 2 2 0 1 121 24 594
1133 2 2 0 1 63 126 454
1134 2 2 0 1 407 675 685
1135 2 2 0 1 274 248 602
1136 2 2 0 1 581 224 657
1137 2 2 0 1 614 541 625
1138 2 2 0 1 427 343 632
1139 2 2 0 1 64 65 647
1140 2 2 0 1 303 302 623
1141 2 2 0 1 356 429 628
1142 2 2 0 1 216 541 614
1143 2 2 0 1 8 9 608
1144 2 2 0 1 597 380 616
1145 2 2 0 1 330 332 620
1146 2 2 0 1 281 282 617
1147 2 2 0 1 368 559 692
1148 2 2 0 1 132 325 611
1149 2 2 0 1 307 281 617
1150 2 2 0 1 494 354 628
1151 2 2 0 1 37 38 118
1152 2 2 0 1 237 216 614
1153 2 2 0 1 256 237 614
1154 2 2 0 1 92 12 576
1155 2 2 0 1 619 537 626
1156 2 2 0 1 411 470 688
1157 2 2 0 1 291 543 645
1158 2 2 0 1 36 37 642
1159 2 2 0 1 252 241 619
1160 2 2 0 1 173 211 627
1161 2 2 0 1 442 567 649
1162 2 2 0 1 445 395 646
1163 2 2 0 1 364 430 635
1164 2 2 0 1 393 473 646
1165 2 2 0 1 84 85 114
1166 2 2 0 1 9 10 110
1167 2 2 0 1 133 131 650
1168 2 2 0 1 390 568 649
1169 2 2 0 1 452 451 703
1170 2 2 0 1 150 152 652
1171 2 2 0 1 188 186 643
1172 2 2 0 1 428 334 641
1173 2 2 0 1 426 425 648
1174 2 2 0 1 421 307 617
1175 2 2 0 1 162 160 638
1176 2 2 0 1 387 417 629
1177 2 2 0 1 199 215 630
1178 2 2 0 1 673 605 680
1179 2 2 0 1 473 392 666
1180 2 2 0 1 517 362 635
1181 2 2 0 1 497 109 644
1182 2 2 0 1 388 387 629
1183 2 2 0 1 51 117 505
1184 2 2 0 1 83 84 609
1185 2 2 0 1 118 38 595
1186 2 2 0 1 22 23 592
1187 2 2 0 1 354 356 628
1188 2 2 0 1 491 490 493
1189 2 2 0 1 343 361 632
1190 2 2 0 1 447 125 636
1191 2 2 0 1 65 119 647
1192 2 2 0 1 208 146 633
1193 2 2 0 1 578 403 662
1194 2 2 0 1 79 120 636
1195 2 2 0 1 43 44 640
1196 2 2 0 1 556 368 699
1197 2 2 0 1 451 123 608
1198 2 2 0 1 430 366 651
1199 2 2 0 1 50 51 505
1200 2 2 0 1 28 111 631
1201 2 2 0 1 12 13 576
1202 2 2 0 1 429 359 653
1203 2 2 0 1 115 43 640
1204 2 2 0 1 480 672 698
1205 2 2 0 1 123 8 608
1206 2 2 0 1 362 364 635
1207 2 2 0 1 543 328 645
1208 2 2 0 1 160 210 638
1209 2 2 0 1 375 377 658
1210 2 2 0 1 37 118 642
1211 2 2 0 1 404 529 671
1212 2 2 0 1 3 22 127
1213 2 2 0 1 113 15 521
1214 2 2 0 1 397 660 669
1215 2 2 0 1 559 685 692
1216 2 2 0 1 414 464 712
1217 2 2 0 1 186 214 643
1218 2 2 0 1 667 550 671
1219 2 2 0 1 23 121 592
1220 2 2 0 1 334 371 641
1221 2 2 0 1 545 409 678
1222 2 2 0 1 445 652 654
1223 2 2 0 1 6 64 126
1224 2 2 0 1 122 36 642
1225 2 2 0 1 9 110 608
1226 2 2 0 1 7 78 125
1227 2 2 0 1 589 105 674
1228 2 2 0 1 258 257 667
1229 2 2 0 1 395 393 646
1230 2 2 0 1 257 550 667
1231 2 2 0 1 125 78 636
1232 2 2 0 1 13 479 576
1233 2 2 0 1 440 122 642
1234 2 2 0 1 74 75 697
1235 2 2 0 1 368 692 699
1236 2 2 0 1 690 103 717
1237 2 2 0 1 567 390 649
1238 2 2 0 1 583 401 670
1239 2 2 0 1 425 520 648
1240 2 2 0 1 316 530 684
1241 2 2 0 1 455 126 647
1242 2 2 0 1 235 150 652
1243 2 2 0 1 316 272 667
1244 2 2 0 1 424 312 659
1245 2 2 0 1 42 115 639
1246 2 2 0 1 244 133 650
1247 2 2 0 1 584 610 664
1248 2 2 0 1 468 127 656
1249 2 2 0 1 250 605 673
1250 2 2 0 1 649 568 693
1251 2 2 0 1 610 433 664
1252 2 2 0 1 84 114 609
1253 2 2 0 1 366 466 651
1254 2 2 0 1 412 335 672
1255 2 2 0 1 467 539 662
1256 2 2 0 1 436 556 706
1257 2 2 0 1 359 469 653
1258 2 2 0 1 652 152 654
1259 2 2 0 1 535 534 682
1260 2 2 0 1 208 633 666
1261 2 2 0 1 117 549 665
1262 2 2 0 1 58 102 683
1263 2 2 0 1 684 530 691
1264 2 2 0 1 660 522 669
1265 2 2 0 1 67 94 677
1266 2 2 0 1 424 589 674
1267 2 2 0 1 633 473 666
1268 2 2 0 1 676 405 705
1269 2 2 0 1 575 405 676
1270 2 2 0 1 465 116 707
1271 2 2 0 1 459 460 694
1272 2 2 0 1 114 85 572
1273 2 2 0 1 110 522 660
1274 2 2 0 1 561 482 657
1275 2 2 0 1 553 397 669
1276 2 2 0 1 536 295 676
1277 2 2 0 1 410 583 693
1278 2 2 0 1 637 458 689
1279 2 2 0 1 126 64 647
1280 2 2 0 1 615 467 662
1281 2 2 0 1 482 581 657
1282 2 2 0 1 377 438 658
1283 2 2 0 1 112 57 683
1284 2 2 0 1 420 421 655
1285 2 2 0 1 408 280 684
1286 2 2 0 1 127 22 592
1287 2 2 0 1 278 316 684
1288 2 2 0 1 312 375 659
1289 2 2 0 1 119 66 677
1290 2 2 0 1 94 68 687
1291 2 2 0 1 397 538 660
1292 2 2 0 1 524 406 700
1293 2 2 0 1 205 217 689
1294 2 2 0 1 462 436 713
1295 2 2 0 1 1 649 693
1296 2 2 0 1 500 531 673
1297 2 2 0 1 501 499 686
1298 2 2 0 1 403 615 662
1299 2 2 0 1 514 306 668
1300 2 2 0 1 398 553 663
1301 2 2 0 1 105 485 674
1302 2 2 0 1 60 61 696
1303 2 2 0 1 549 492 665
1304 2 2 0 1 127 592 656
1305 2 2 0 1 500 673 680
1306 2 2 0 1 661 230 664
1307 2 2 0 1 461 412 710
1308 2 2 0 1 531 606 673
1309 2 2 0 1 587 230 661
1310 2 2 0 1 563 208 666
1311 2 2 0 1 69 502 687
1312 2 2 0 1 230 584 664
1313 2 2 0 1 272 258 667
1314 2 2 0 1 437 386 690
1315 2 2 0 1 555 1 670
1316 2 2 0 1 399 555 670
1317 2 2 0 1 522 92 669
1318 2 2 0 1 499 500 680
1319 2 2 0 1 401 399 670
1320 2 2 0 1 636 120 679
1321 2 2 0 1 92 576 663
1322 2 2 0 1 550 404 671
1323 2 2 0 1 606 250 673
1324 2 2 0 1 92 663 669
1325 2 2 0 1 499 680 686
1326 2 2 0 1 479 480 681
1327 2 2 0 1 431 696 705
1328 2 2 0 1 335 333 672
1329 2 2 0 1 456 676 705
1330 2 2 0 1 663 553 669
1331 2 2 0 1 514 668 679
1332 2 2 0 1 66 67 677
1333 2 2 0 1 333 331 698
1334 2 2 0 1 409 535 678
1335 2 2 0 1 120 577 675
1336 2 2 0 1 556 699 706
1337 2 2 0 1 431 311 701
1338 2 2 0 1 57 58 683
1339 2 2 0 1 465 707 712
1340 2 2 0 1 680 388 686
1341 2 2 0 1 295 575 676
1342 2 2 0 1 447 636 679
1343 2 2 0 1 480 113 702
1344 2 2 0 1 675 577 685
1345 2 2 0 1 101 507 721
1346 2 2 0 1 675 514 679
1347 2 2 0 1 451 608 695
1348 2 2 0 1 436 706 713
1349 2 2 0 1 341 339 704
1350 2 2 0 1 694 460 708
1351 2 2 0 1 577 96 685
1352 2 2 0 1 462 713 718
1353 2 2 0 1 280 278 684
1354 2 2 0 1 388 629 686
1355 2 2 0 1 605 388 680
1356 2 2 0 1 534 536 682
1357 2 2 0 1 687 502 714
1358 2 2 0 1 108 456 705
1359 2 2 0 1 72 100 707
1360 2 2 0 1 503 704 714
1361 2 2 0 1 68 69 687
1362 2 2 0 1 507 497 708
1363 2 2 0 1 668 306 700
1364 2 2 0 1 608 110 695
1365 2 2 0 1 458 408 691
1366 2 2 0 1 470 471 688
1367 2 2 0 1 617 459 694
1368 2 2 0 1 207 205 689
1369 2 2 0 1 576 479 681
1370 2 2 0 1 207 689 691
1371 2 2 0 1 672 480 702
1372 2 2 0 1 685 96 692
1373 2 2 0 1 530 207 691
1374 2 2 0 1 516 435 715
1375 2 2 0 1 689 458 691
1376 2 2 0 1 386 415 690
1377 2 2 0 1 96 515 692
1378 2 2 0 1 663 576 681
1379 2 2 0 1 681 480 698
1380 2 2 0 1 116 71 707
1381 2 2 0 1 717 88 720
1382 2 2 0 1 451 695 703
1383 2 2 0 1 568 410 693
1384 2 2 0 1 87 88 717
1385 2 2 0 1 412 672 702
1386 2 2 0 1 120 675 679
1387 2 2 0 1 421 617 694
1388 2 2 0 1 61 108 696
1389 2 2 0 1 75 104 697
1390 2 2 0 1 398 663 681
1391 2 2 0 1 342 546 714
1392 2 2 0 1 668 447 679
1393 2 2 0 1 644 421 694
1394 2 2 0 1 692 515 699
1395 2 2 0 1 398 681 698
1396 2 2 0 1 570 413 716
1397 2 2 0 1 493 525 711
1398 2 2 0 1 695 538 703
1399 2 2 0 1 331 398 698
1400 2 2 0 1 546 687 714
1401 2 2 0 1 435 314 715
1402 2 2 0 1 406 435 709
1403 2 2 0 1 306 524 700
1404 2 2 0 1 719 437 720
1405 2 2 0 1 311 411 701
1406 2 2 0 1 88 89 720
1407 2 2 0 1 515 609 699
1408 2 2 0 1 716 413 719
1409 2 2 0 1 510 493 711
1410 2 2 0 1 660 538 695
1411 2 2 0 1 110 660 695
1412 2 2 0 1 412 702 710
1413 2 2 0 1 413 437 719
1414 2 2 0 1 644 694 708
1415 2 2 0 1 538 310 703
1416 2 2 0 1 452 703 716
1417 2 2 0 1 339 342 704
1418 2 2 0 1 113 521 702
1419 2 2 0 1 405 431 705
1420 2 2 0 1 702 521 710
1421 2 2 0 1 699 609 706
1422 2 2 0 1 104 448 709
1423 2 2 0 1 71 72 707
1424 2 2 0 1 703 310 716
1425 2 2 0 1 521 101 710
1426 2 2 0 1 697 104 709
1427 2 2 0 1 609 114 706
1428 2 2 0 1 507 708 721
1429 2 2 0 1 464 465 712
1430 2 2 0 1 497 644 708
1431 2 2 0 1 502 503 714
1432 2 2 0 1 525 112 711
1433 2 2 0 1 314 414 715
1434 2 2 0 1 706 114 713
1435 2 2 0 1 435 697 709
1436 2 2 0 1 310 570 716
1437 2 2 0 1 572 103 718
1438 2 2 0 1 437 717 720
1439 2 2 0 1 114 572 713
1440 2 2 0 1 437 690 717
1441 2 2 0 1 452 716 719
1442 2 2 0 1 107 452 719
1443 2 2 0 1 107 719 720
1444 2 2 0 1 713 572 718
1445 2 2 0 1 89 107 720
1446 2 2 0 1 460 461 721
1447 2 2 0 1 708 460 721
$EndElements
